<?xml version="1.0" encoding="utf-8"?><svg viewBox="0 0 72 72" xmlns="http://www.w3.org/2000/svg" xmlns:xlink="http://www.w3.org/1999/xlink"><style>:root>svg{display:none}:root>svg:target{display:block}</style><svg viewBox="0 0 72 72" id="1F440" xmlns="http://www.w3.org/2000/svg"><ellipse cx="19.548" cy="35.958" fill="#FFF" rx="14.469" ry="24.655"/><ellipse cx="52.452" cy="35.958" fill="#FFF" rx="14.469" ry="24.655"/><ellipse cx="52.452" cy="35.958" fill="#FFF" rx="14.469" ry="24.655"/><circle cx="46.01" cy="37.817" r="8.027" fill="#A57939"/><ellipse cx="19.548" cy="35.958" fill="#FFF" rx="14.469" ry="24.655"/><circle cx="13.106" cy="37.817" r="8.027" fill="#A57939"/><ellipse cx="19.548" cy="35.958" fill="none" stroke="#000" stroke-linecap="round" stroke-linejoin="round" stroke-miterlimit="10" stroke-width="2" rx="14.469" ry="24.655"/><ellipse cx="52.452" cy="35.958" fill="none" stroke="#000" stroke-linecap="round" stroke-linejoin="round" stroke-miterlimit="10" stroke-width="2" rx="14.469" ry="24.655"/><circle cx="13.106" cy="37.817" r="3.623"/><circle cx="46.01" cy="37.817" r="3.623"/><circle cx="13.106" cy="37.817" r="3.623" fill="none" stroke="#000" stroke-linecap="round" stroke-linejoin="round" stroke-miterlimit="10" stroke-width="2"/><circle cx="13.106" cy="37.817" r="8.027" fill="none" stroke="#000" stroke-linecap="round" stroke-linejoin="round" stroke-miterlimit="10" stroke-width="2"/><circle cx="46.01" cy="37.817" r="3.623" fill="none" stroke="#000" stroke-linecap="round" stroke-linejoin="round" stroke-miterlimit="10" stroke-width="2"/><circle cx="46.01" cy="37.817" r="8.027" fill="none" stroke="#000" stroke-linecap="round" stroke-linejoin="round" stroke-miterlimit="10" stroke-width="2"/></svg><svg viewBox="0 0 72 72" id="1F441" xmlns="http://www.w3.org/2000/svg"><ellipse cx="35.75" cy="36.428" fill="#FFF" rx="34.81" ry="20.428"/><ellipse cx="35.75" cy="36.428" fill="#FFF" rx="34.81" ry="20.428"/><circle cx="36" cy="35.958" r="15.484" fill="#a57939"/><ellipse cx="35.75" cy="36.428" fill="none" stroke="#000" stroke-linecap="round" stroke-linejoin="round" stroke-miterlimit="10" stroke-width="2" rx="34.81" ry="20.428"/><circle cx="36" cy="35.958" r="8.442"/><circle cx="36" cy="35.958" r="8.442" fill="none" stroke="#000" stroke-linecap="round" stroke-linejoin="round" stroke-miterlimit="10" stroke-width="2"/><circle cx="36" cy="35.958" r="15.484" fill="none" stroke="#000" stroke-linecap="round" stroke-linejoin="round" stroke-miterlimit="10" stroke-width="2"/></svg><svg viewBox="0 0 72 72" id="1F442" xmlns="http://www.w3.org/2000/svg"><path fill="#fcea2b" d="M25.107 19.748C29.732 2.207 61 7 49.711 35.665c-14.592 35.792-32.791 24.677-29.729 13"/><path fill="#f1b31c" d="M45.688 35.614c3.663-21.877-14.563-17.239-16.006-11.676 3.974-15.875 24.091-9.593 16.006 11.676zm-11.525-7.98c4.438 7 8.337 13.908 2.337 16.616-1.397.574-2.877.413-4.382 1.173-1.535.723-1.82 1.327-3.639 3.285-2.562 2.063-5.77-1.546-3.958-3.687 3.073-3.396 6.448-3.927 4.667-7.209-1.22-2.204.495-5.027 4.402-3.902"/><g fill="none" stroke="#000" stroke-linecap="round" stroke-linejoin="round" stroke-miterlimit="10" stroke-width="2"><path d="M26.125 19.625C30.75 2.083 61 7.875 49.688 35.958c-14.592 35.792-31.876 25-28.813 13.323"/><path d="M35.103 28c4.439 7 7.397 13.542 1.397 16.25-1.397.574-2.877.413-4.382 1.173-1.535.723-1.82 1.327-3.639 3.285-2.562 2.063-5.77-1.546-3.958-3.687 3.073-3.396 6.448-3.927 4.667-7.209-1.22-2.204-.407-5.28 3.5-4.156m-3.006-9.718c3.974-15.875 24.832-10.259 15.24 11.118"/></g></svg><svg viewBox="0 0 72 72" id="1F442-1F3FB" xmlns="http://www.w3.org/2000/svg"><path fill="#fadcbc" stroke="#fadcbc" d="M25.107 19.748C29.732 2.207 61 7 49.711 35.665c-14.592 35.792-32.791 24.677-29.729 13"/><path fill="#debb90" d="M45.688 35.614c3.663-21.877-14.563-17.239-16.006-11.676 3.974-15.875 24.091-9.593 16.006 11.676zm-11.525-7.98c4.438 7 8.337 13.908 2.337 16.616-1.397.574-2.877.413-4.382 1.173-1.535.723-1.82 1.327-3.639 3.285-2.562 2.063-5.77-1.546-3.958-3.687 3.073-3.396 6.448-3.927 4.667-7.209-1.22-2.204.495-5.027 4.402-3.902"/><g fill="none" stroke="#000" stroke-linecap="round" stroke-linejoin="round" stroke-miterlimit="10" stroke-width="2"><path d="M26.125 19.625C30.75 2.083 61 7.875 49.688 35.958c-14.592 35.792-31.876 25-28.813 13.323"/><path d="M35.103 28c4.439 7 7.397 13.542 1.397 16.25-1.397.574-2.877.413-4.382 1.173-1.535.723-1.82 1.327-3.639 3.285-2.562 2.063-5.77-1.546-3.958-3.687 3.073-3.396 6.448-3.927 4.667-7.209-1.22-2.204-.407-5.28 3.5-4.156m-3.006-9.718c3.974-15.875 24.832-10.259 15.24 11.118"/></g></svg><svg viewBox="0 0 72 72" id="1F442-1F3FC" xmlns="http://www.w3.org/2000/svg"><path fill="#debb90" stroke="#debb90" d="M25.107 19.748C29.732 2.207 61 7 49.711 35.665c-14.592 35.792-32.791 24.677-29.729 13"/><path fill="#c19a65" d="M45.688 35.614c3.663-21.877-14.563-17.239-16.006-11.676 3.974-15.875 24.091-9.593 16.006 11.676zm-11.525-7.98c4.438 7 8.337 13.908 2.337 16.616-1.397.574-2.877.413-4.382 1.173-1.535.723-1.82 1.327-3.639 3.285-2.562 2.063-5.77-1.546-3.958-3.687 3.073-3.396 6.448-3.927 4.667-7.209-1.22-2.204.495-5.027 4.402-3.902"/><g fill="none" stroke="#000" stroke-linecap="round" stroke-linejoin="round" stroke-miterlimit="10" stroke-width="2"><path d="M26.125 19.625C30.75 2.083 61 7.875 49.688 35.958c-14.592 35.792-31.876 25-28.813 13.323"/><path d="M35.103 28c4.439 7 7.397 13.542 1.397 16.25-1.397.574-2.877.413-4.382 1.173-1.535.723-1.82 1.327-3.639 3.285-2.562 2.063-5.77-1.546-3.958-3.687 3.073-3.396 6.448-3.927 4.667-7.209-1.22-2.204-.407-5.28 3.5-4.156m-3.006-9.718c3.974-15.875 24.832-10.259 15.24 11.118"/></g></svg><svg viewBox="0 0 72 72" id="1F442-1F3FD" xmlns="http://www.w3.org/2000/svg"><path fill="#c19a65" stroke="#c19a65" d="M25.107 19.748C29.732 2.207 61 7 49.711 35.665c-14.592 35.792-32.791 24.677-29.729 13"/><path fill="#a57939" d="M45.688 35.614c3.663-21.877-14.563-17.239-16.006-11.676 3.974-15.875 24.091-9.593 16.006 11.676zm-11.525-7.98c4.438 7 8.337 13.908 2.337 16.616-1.397.574-2.877.413-4.382 1.173-1.535.723-1.82 1.327-3.639 3.285-2.562 2.063-5.77-1.546-3.958-3.687 3.073-3.396 6.448-3.927 4.667-7.209-1.22-2.204.495-5.027 4.402-3.902"/><g fill="none" stroke="#000" stroke-linecap="round" stroke-linejoin="round" stroke-miterlimit="10" stroke-width="2"><path d="M26.125 19.625C30.75 2.083 61 7.875 49.688 35.958c-14.592 35.792-31.876 25-28.813 13.323"/><path d="M35.103 28c4.439 7 7.397 13.542 1.397 16.25-1.397.574-2.877.413-4.382 1.173-1.535.723-1.82 1.327-3.639 3.285-2.562 2.063-5.77-1.546-3.958-3.687 3.073-3.396 6.448-3.927 4.667-7.209-1.22-2.204-.407-5.28 3.5-4.156m-3.006-9.718c3.974-15.875 24.832-10.259 15.24 11.118"/></g></svg><svg viewBox="0 0 72 72" id="1F442-1F3FE" xmlns="http://www.w3.org/2000/svg"><path fill="#a57939" stroke="#a57939" d="M25.107 19.748C29.732 2.207 61 7 49.711 35.665c-14.592 35.792-32.791 24.677-29.729 13"/><path fill="#6a462f" d="M45.688 35.614c3.663-21.877-14.563-17.239-16.006-11.676 3.974-15.875 24.091-9.593 16.006 11.676zm-11.525-7.98c4.438 7 8.337 13.908 2.337 16.616-1.397.574-2.877.413-4.382 1.173-1.535.723-1.82 1.327-3.639 3.285-2.562 2.063-5.77-1.546-3.958-3.687 3.073-3.396 6.448-3.927 4.667-7.209-1.22-2.204.495-5.027 4.402-3.902"/><g fill="none" stroke="#000" stroke-linecap="round" stroke-linejoin="round" stroke-miterlimit="10" stroke-width="2"><path d="M26.125 19.625C30.75 2.083 61 7.875 49.688 35.958c-14.592 35.792-31.876 25-28.813 13.323"/><path d="M35.103 28c4.439 7 7.397 13.542 1.397 16.25-1.397.574-2.877.413-4.382 1.173-1.535.723-1.82 1.327-3.639 3.285-2.562 2.063-5.77-1.546-3.958-3.687 3.073-3.396 6.448-3.927 4.667-7.209-1.22-2.204-.407-5.28 3.5-4.156m-3.006-9.718c3.974-15.875 24.832-10.259 15.24 11.118"/></g></svg><svg viewBox="0 0 72 72" id="1F442-1F3FF" xmlns="http://www.w3.org/2000/svg"><path fill="#6a462f" stroke="#6a462f" d="M25.107 19.748C29.732 2.207 61 7 49.711 35.665c-14.592 35.792-32.791 24.677-29.729 13"/><path fill="#352318" d="M45.688 35.614c3.663-21.877-14.563-17.239-16.006-11.676 3.974-15.875 24.091-9.593 16.006 11.676zm-11.525-7.98c4.438 7 8.337 13.908 2.337 16.616-1.397.574-2.877.413-4.382 1.173-1.535.723-1.82 1.327-3.639 3.285-2.562 2.063-5.77-1.546-3.958-3.687 3.073-3.396 6.448-3.927 4.667-7.209-1.22-2.204.495-5.027 4.402-3.902"/><g fill="none" stroke="#000" stroke-linecap="round" stroke-linejoin="round" stroke-miterlimit="10" stroke-width="2"><path d="M26.125 19.625C30.75 2.083 61 7.875 49.688 35.958c-14.592 35.792-31.876 25-28.813 13.323"/><path d="M35.103 28c4.439 7 7.397 13.542 1.397 16.25-1.397.574-2.877.413-4.382 1.173-1.535.723-1.82 1.327-3.639 3.285-2.562 2.063-5.77-1.546-3.958-3.687 3.073-3.396 6.448-3.927 4.667-7.209-1.22-2.204-.407-5.28 3.5-4.156m-3.006-9.718c3.974-15.875 24.832-10.259 15.24 11.118"/></g></svg><svg viewBox="0 0 72 72" id="1F443" xmlns="http://www.w3.org/2000/svg"><g fill="#fcea2b"><path d="M46.05 41.903c-1.079-3.806-4.372-14.867-3.172-30.028h-13.39c1.2 15.161-2.094 26.222-3.172 30.028"/><path d="M50.25 36.708c7.583 4.667 2.833 12.752-1.688 14.021C44.642 51.83 46 60.07 36 60.042c-10 .026-8.643-8.212-12.563-9.313-4.52-1.269-9.281-9.354-1.698-14.021"/></g><g fill="none" stroke="#000" stroke-linecap="round" stroke-linejoin="round" stroke-miterlimit="10" stroke-width="2"><path d="M29.487 12.875c1.2 14.656-2.093 25.348-3.171 29.028m16.562-29.028c-1.2 14.656 2.093 25.348 3.172 29.028"/><path d="M50.25 37.708c7.583 4.667 2.833 11.752-1.688 13.021C44.642 51.83 46 60.07 36 60.042c-10 .026-8.643-8.212-12.563-9.313-4.52-1.269-9.27-8.354-1.687-13.02"/></g></svg><svg viewBox="0 0 72 72" id="1F443-1F3FB" xmlns="http://www.w3.org/2000/svg"><g fill="#fadcbc" stroke="#fadcbc"><path d="M46.05 41.903c-1.079-3.806-4.372-14.867-3.172-30.028h-13.39c1.2 15.161-2.094 26.222-3.172 30.028"/><path d="M50.25 36.708c7.583 4.667 2.833 12.752-1.688 14.021C44.642 51.83 46 60.07 36 60.042c-10 .026-8.643-8.212-12.563-9.313-4.52-1.269-9.281-9.354-1.698-14.021"/></g><g fill="none" stroke="#000" stroke-linecap="round" stroke-linejoin="round" stroke-miterlimit="10" stroke-width="2"><path d="M29.487 12.875c1.2 14.656-2.093 25.348-3.171 29.028m16.562-29.028c-1.2 14.656 2.093 25.348 3.172 29.028"/><path d="M50.25 37.708c7.583 4.667 2.833 11.752-1.688 13.021C44.642 51.83 46 60.07 36 60.042c-10 .026-8.643-8.212-12.563-9.313-4.52-1.269-9.27-8.354-1.687-13.02"/></g></svg><svg viewBox="0 0 72 72" id="1F443-1F3FC" xmlns="http://www.w3.org/2000/svg"><g fill="#debb90" stroke="#debb90"><path d="M46.05 41.903c-1.079-3.806-4.372-14.867-3.172-30.028h-13.39c1.2 15.161-2.094 26.222-3.172 30.028"/><path d="M50.25 36.708c7.583 4.667 2.833 12.752-1.688 14.021C44.642 51.83 46 60.07 36 60.042c-10 .026-8.643-8.212-12.563-9.313-4.52-1.269-9.281-9.354-1.698-14.021"/></g><g fill="none" stroke="#000" stroke-linecap="round" stroke-linejoin="round" stroke-miterlimit="10" stroke-width="2"><path d="M29.487 12.875c1.2 14.656-2.093 25.348-3.171 29.028m16.562-29.028c-1.2 14.656 2.093 25.348 3.172 29.028"/><path d="M50.25 37.708c7.583 4.667 2.833 11.752-1.688 13.021C44.642 51.83 46 60.07 36 60.042c-10 .026-8.643-8.212-12.563-9.313-4.52-1.269-9.27-8.354-1.687-13.02"/></g></svg><svg viewBox="0 0 72 72" id="1F443-1F3FD" xmlns="http://www.w3.org/2000/svg"><g fill="#c19a65" stroke="#c19a65"><path d="M46.05 41.903c-1.079-3.806-4.372-14.867-3.172-30.028h-13.39c1.2 15.161-2.094 26.222-3.172 30.028"/><path d="M50.25 36.708c7.583 4.667 2.833 12.752-1.688 14.021C44.642 51.83 46 60.07 36 60.042c-10 .026-8.643-8.212-12.563-9.313-4.52-1.269-9.281-9.354-1.698-14.021"/></g><g fill="none" stroke="#000" stroke-linecap="round" stroke-linejoin="round" stroke-miterlimit="10" stroke-width="2"><path d="M29.487 12.875c1.2 14.656-2.093 25.348-3.171 29.028m16.562-29.028c-1.2 14.656 2.093 25.348 3.172 29.028"/><path d="M50.25 37.708c7.583 4.667 2.833 11.752-1.688 13.021C44.642 51.83 46 60.07 36 60.042c-10 .026-8.643-8.212-12.563-9.313-4.52-1.269-9.27-8.354-1.687-13.02"/></g></svg><svg viewBox="0 0 72 72" id="1F443-1F3FE" xmlns="http://www.w3.org/2000/svg"><g fill="#a57939" stroke="#a57939"><path d="M46.05 41.903c-1.079-3.806-4.372-14.867-3.172-30.028h-13.39c1.2 15.161-2.094 26.222-3.172 30.028"/><path d="M50.25 36.708c7.583 4.667 2.833 12.752-1.688 14.021C44.642 51.83 46 60.07 36 60.042c-10 .026-8.643-8.212-12.563-9.313-4.52-1.269-9.281-9.354-1.698-14.021"/></g><g fill="none" stroke="#000" stroke-linecap="round" stroke-linejoin="round" stroke-miterlimit="10" stroke-width="2"><path d="M29.487 12.875c1.2 14.656-2.093 25.348-3.171 29.028m16.562-29.028c-1.2 14.656 2.093 25.348 3.172 29.028"/><path d="M50.25 37.708c7.583 4.667 2.833 11.752-1.688 13.021C44.642 51.83 46 60.07 36 60.042c-10 .026-8.643-8.212-12.563-9.313-4.52-1.269-9.27-8.354-1.687-13.02"/></g></svg><svg viewBox="0 0 72 72" id="1F443-1F3FF" xmlns="http://www.w3.org/2000/svg"><g fill="#6a462f" stroke="#6a462f"><path d="M46.05 41.903c-1.079-3.806-4.372-14.867-3.172-30.028h-13.39c1.2 15.161-2.094 26.222-3.172 30.028"/><path d="M50.25 36.708c7.583 4.667 2.833 12.752-1.688 14.021C44.642 51.83 46 60.07 36 60.042c-10 .026-8.643-8.212-12.563-9.313-4.52-1.269-9.281-9.354-1.698-14.021"/></g><g fill="none" stroke="#000" stroke-linecap="round" stroke-linejoin="round" stroke-miterlimit="10" stroke-width="2"><path d="M29.487 12.875c1.2 14.656-2.093 25.348-3.171 29.028m16.562-29.028c-1.2 14.656 2.093 25.348 3.172 29.028"/><path d="M50.25 37.708c7.583 4.667 2.833 11.752-1.688 13.021C44.642 51.83 46 60.07 36 60.042c-10 .026-8.643-8.212-12.563-9.313-4.52-1.269-9.27-8.354-1.687-13.02"/></g></svg><svg viewBox="0 0 72 72" id="1F444" xmlns="http://www.w3.org/2000/svg"><path fill="#ea5a47" d="M64.05 34.59c-4.56-2.963-9.963-9.286-15.69-14.31-1.328-1.169-2.925-2.567-5.85-1.169l-3.851 2.05c-.888.514-1.191.69-2.663.69s-1.775-.176-2.663-.69l-3.851-2.05c-2.925-1.399-4.522 0-5.85 1.169-5.722 5.02-11.13 11.34-15.69 14.31l15.02 14.36c2.529 2.452 5.827 4.522 13.03 4.522s10.5-2.069 13.03-4.522z"/><path fill="#fff" d="M36 39.06c-7.667 0-9.791-4.905-13.87-4.292 6.763-5.096 10.48-.613 13.87-.613s7.108-4.483 13.87.613c-4.081-.613-6.204 4.292-13.87 4.292z"/><path fill="#fff" d="M36 39.06c-7.667 0-9.791-4.905-13.87-4.292 6.763-5.096 10.48-.613 13.87-.613s7.108-4.483 13.87.613c-4.081-.613-6.204 4.292-13.87 4.292z"/><g fill="none" stroke="#000" stroke-linecap="round" stroke-linejoin="round" stroke-miterlimit="10" stroke-width="2.434"><path d="M8.167 34.6c4.981 1.66 6.255 1.889 14.07.177M63.83 34.6c-4.981 1.66-6.255 1.889-14.07.177"/><path d="M8.167 34.6c4.981 1.66 6.255 1.889 14.07.177"/><path d="m8.167 34.6 14.91 14.25c2.51 2.434 5.782 4.487 12.93 4.487s10.42-2.053 12.93-4.487l14.91-14.25m-55.68 0c4.525-2.941 9.886-9.214 15.56-14.2 1.318-1.16 2.902-2.548 5.805-1.16l3.821 2.034c.881.51 1.182.684 2.643.684s1.761-.174 2.643-.684l3.821-2.034c2.902-1.388 4.487 0 5.805 1.16 5.678 4.981 11.04 11.25 15.56 14.2"/><path d="M63.83 34.6c-4.981 1.66-6.255 1.889-14.07.177M36 39.03c-7.608 0-9.715-4.867-13.76-4.259 6.711-5.057 10.4-.608 13.76-.608s7.053-4.45 13.76.608c-4.049-.608-6.156 4.259-13.76 4.259z"/></g></svg><svg viewBox="0 0 72 72" id="1F445" xmlns="http://www.w3.org/2000/svg"><path fill="none" d="M15.625 21.75h41.75"/><path fill="#ea5a47" d="M56.967 16.777c0 6-41.78 7.82-41.342 1.007C5.97 53.023 24.962 60.375 36.5 60.375s31.895-6.02 20.467-43.598z"/><g fill="none" stroke="#000" stroke-linecap="round" stroke-linejoin="round" stroke-miterlimit="10" stroke-width="2"><path d="M62.417 12.5C56.28 19.625 48.969 22.19 36 22.188c-12.969.001-20.281-2.563-26.417-9.688"/><path d="M62.417 12.5C56.28 19.625 48.969 22.19 36 22.188c-12.969.001-20.281-2.563-26.417-9.688"/><path d="M57.375 21.75C66.5 55.188 48.038 60.375 36.5 60.375s-30-5.188-20.875-38.625M36.5 60.375V34.196"/></g></svg><svg viewBox="0 0 72 72" id="1F4AA" xmlns="http://www.w3.org/2000/svg"><g fill="#FCEA2B"><path d="M63.11 54.165c-10.969 9.44-26.36 11.68-46.41 11.563 0 0-3.74 1.15-4.597-3.565 0 0-.77-20.887 3.809-35.548 0 0-.195-5.981.029-9.898a2.574 2.574 0 0 1 .828-1.753c5.757-5.319 8.349-6.098 8.349-6.098l8.368-1.481c1.325.906 4.228 4.18 3.75 9.995l.107-.4 3.215.902c1.123.341 1.859 1.525 1.841 2.654-.01 1.17-2.805 2.046-2.805 2.046l-6.118 1.383c-1.831 2.874-5.594 3.176-7.279 3.098-.088-.243-.593-.02-.193 0 .594 1.5 1.289 5.115 1.922 11.807l.176 1.86c.048.527.316 4.73.384 7.477 1.812-4.413 6.636-12.561 15.735-13.847 13.463-1.92 20.165 8.495 20.165 8.495s.234.272.526.77c2.066 3.448 1.247 7.91-1.802 10.54z"/><path d="M26.508 26.81c-.41-.02-.74-.06-.94-.09l.64-.49c.11.14.21.33.3.58z"/><path d="M26.508 26.81c-.41-.02-.74-.06-.94-.09l.64-.49c.11.14.21.33.3.58z"/></g><g fill="#F1B31C"><path d="M21.922 26.23s5.344-4.986 1.615-6.38l12.76-.419.672-1.142.22-1.844c1.07.178 3.364.946 3.64 1.012 0 0 2.405 1.873.45 4.093l-7.78 2.235s-4.723 3.803-11.577 2.445z"/><path d="M21.922 26.23c.794 9.218 2.56 25.641 2.07 27.745-.045.7.655.81 1.012.296.829-.667 2.767-2.597 3.818-5.195 0-5.762-.666-12.458-2.219-22.262-.57-1.585-2.939-1.566-4.681-.584zm26.277 7.87s10.239 6.972 3.106 16.42c0 0 2.132 8.516.155 9.85-1.977 1.334 20.619-5.545 12.136-18.563 0 0-5.158-7.573-15.397-7.708z"/></g><g fill="none" stroke="#000" stroke-linecap="round" stroke-linejoin="round" stroke-miterlimit="10" stroke-width="2"><path d="M27.468 40.552c-.428-4.28-1.132-12.72-1.954-13.754 0 0 5.2 1.11 7.811-2.974m1.178 29.264s10.802 2.701 19.287-4.327"/><path d="M27.72 50.631s2.868-14.473 16.368-16.393S64.3 42.753 64.3 42.753s.23.275.527.77c2.073 3.456 1.25 7.934-1.803 10.564-10.992 9.464-26.426 11.712-46.518 11.597 0 0-3.75 1.145-4.61-3.574 0 0-.769-20.94 3.818-35.627 0 0-.197-6 .03-9.928a2.59 2.59 0 0 1 .827-1.752c5.78-5.332 8.375-6.115 8.375-6.115l8.388-1.484c1.436.984 4.725 4.739 3.57 11.495"/><path d="M25.589 19.295s1.816 2.59 3.632-.284V16l-.46-1.658-.36-.278m1.143 5.231s1.816 2.59 3.633-.284V16l-.873-2.125m4.516 5.136c-1.961 1.89-3.32 0-3.32 0m-13.199-2.564a3.732 3.732 0 0 1 1.278 2.432c.033.288.131.57.336.774.595.594 1.959 1.517 3.323-.642V16l-.636-1.268m15.754 3.557c1.926.57 2.262 3.427-.702 4.1l-6.329 1.435"/></g></svg><svg viewBox="0 0 72 72" id="1F4AA-1F3FB" xmlns="http://www.w3.org/2000/svg"><g fill="#fadcbc" stroke="#fadcbc"><path d="M63.11 54.165c-10.969 9.44-26.36 11.68-46.41 11.563 0 0-3.74 1.15-4.597-3.565 0 0-.77-20.887 3.809-35.548 0 0-.195-5.981.029-9.898a2.574 2.574 0 0 1 .828-1.753c5.757-5.319 8.349-6.098 8.349-6.098l8.368-1.481c1.325.906 4.228 4.18 3.75 9.995l.107-.4 3.215.902c1.123.341 1.859 1.525 1.841 2.654-.01 1.17-2.805 2.046-2.805 2.046l-6.118 1.383c-1.831 2.874-5.594 3.176-7.279 3.098-.088-.243-.593-.02-.193 0 .594 1.5 1.289 5.115 1.922 11.807l.176 1.86c.048.527.316 4.73.384 7.477 1.812-4.413 6.636-12.561 15.735-13.847 13.463-1.92 20.165 8.495 20.165 8.495s.234.272.526.77c2.066 3.448 1.247 7.91-1.802 10.54z"/><path d="M26.508 26.81c-.41-.02-.74-.06-.94-.09l.64-.49c.11.14.21.33.3.58z"/><path d="M26.508 26.81c-.41-.02-.74-.06-.94-.09l.64-.49c.11.14.21.33.3.58z"/></g><g fill="#debb90"><path d="M21.922 26.23s5.344-4.986 1.615-6.38l12.76-.419.672-1.142.22-1.844c1.07.178 3.364.946 3.64 1.012 0 0 2.405 1.873.45 4.093l-7.78 2.235s-4.723 3.803-11.577 2.445z"/><path d="M21.922 26.23c.794 9.218 2.56 25.641 2.07 27.745-.045.7.655.81 1.012.296.829-.667 2.767-2.597 3.818-5.195 0-5.762-.666-12.458-2.219-22.262-.57-1.585-2.939-1.566-4.681-.584zm26.277 7.87s10.239 6.972 3.106 16.42c0 0 2.132 8.516.155 9.85-1.977 1.334 20.619-5.545 12.136-18.563 0 0-5.158-7.573-15.397-7.708z"/></g><g fill="none" stroke="#000" stroke-linecap="round" stroke-linejoin="round" stroke-miterlimit="10" stroke-width="2"><path d="M27.468 40.552c-.428-4.28-1.132-12.72-1.954-13.754 0 0 5.2 1.11 7.811-2.974m1.178 29.264s10.802 2.701 19.287-4.327"/><path d="M27.72 50.631s2.868-14.473 16.368-16.393S64.3 42.753 64.3 42.753s.23.275.527.77c2.073 3.456 1.25 7.934-1.803 10.564-10.992 9.464-26.426 11.712-46.518 11.597 0 0-3.75 1.145-4.61-3.574 0 0-.769-20.94 3.818-35.627 0 0-.197-6 .03-9.928a2.59 2.59 0 0 1 .827-1.752c5.78-5.332 8.375-6.115 8.375-6.115l8.388-1.484c1.436.984 4.725 4.739 3.57 11.495"/><path d="M25.589 19.295s1.816 2.59 3.632-.284V16l-.46-1.658-.36-.278m1.143 5.231s1.816 2.59 3.633-.284V16l-.873-2.125m4.516 5.136c-1.961 1.89-3.32 0-3.32 0m-13.199-2.564a3.732 3.732 0 0 1 1.278 2.432c.033.288.131.57.336.774.595.594 1.959 1.517 3.323-.642V16l-.636-1.268m15.754 3.557c1.926.57 2.262 3.427-.702 4.1l-6.329 1.435"/></g></svg><svg viewBox="0 0 72 72" id="1F4AA-1F3FC" xmlns="http://www.w3.org/2000/svg"><g fill="#debb90" stroke="#debb90"><path d="M63.11 54.165c-10.969 9.44-26.36 11.68-46.41 11.563 0 0-3.74 1.15-4.597-3.565 0 0-.77-20.887 3.809-35.548 0 0-.195-5.981.029-9.898a2.574 2.574 0 0 1 .828-1.753c5.757-5.319 8.349-6.098 8.349-6.098l8.368-1.481c1.325.906 4.228 4.18 3.75 9.995l.107-.4 3.215.902c1.123.341 1.859 1.525 1.841 2.654-.01 1.17-2.805 2.046-2.805 2.046l-6.118 1.383c-1.831 2.874-5.594 3.176-7.279 3.098-.088-.243-.593-.02-.193 0 .594 1.5 1.289 5.115 1.922 11.807l.176 1.86c.048.527.316 4.73.384 7.477 1.812-4.413 6.636-12.561 15.735-13.847 13.463-1.92 20.165 8.495 20.165 8.495s.234.272.526.77c2.066 3.448 1.247 7.91-1.802 10.54z"/><path d="M26.508 26.81c-.41-.02-.74-.06-.94-.09l.64-.49c.11.14.21.33.3.58z"/><path d="M26.508 26.81c-.41-.02-.74-.06-.94-.09l.64-.49c.11.14.21.33.3.58z"/></g><g fill="#c19a65"><path d="M21.922 26.23s5.344-4.986 1.615-6.38l12.76-.419.672-1.142.22-1.844c1.07.178 3.364.946 3.64 1.012 0 0 2.405 1.873.45 4.093l-7.78 2.235s-4.723 3.803-11.577 2.445z"/><path d="M21.922 26.23c.794 9.218 2.56 25.641 2.07 27.745-.045.7.655.81 1.012.296.829-.667 2.767-2.597 3.818-5.195 0-5.762-.666-12.458-2.219-22.262-.57-1.585-2.939-1.566-4.681-.584zm26.277 7.87s10.239 6.972 3.106 16.42c0 0 2.132 8.516.155 9.85-1.977 1.334 20.619-5.545 12.136-18.563 0 0-5.158-7.573-15.397-7.708z"/></g><g fill="none" stroke="#000" stroke-linecap="round" stroke-linejoin="round" stroke-miterlimit="10" stroke-width="2"><path d="M27.468 40.552c-.428-4.28-1.132-12.72-1.954-13.754 0 0 5.2 1.11 7.811-2.974m1.178 29.264s10.802 2.701 19.287-4.327"/><path d="M27.72 50.631s2.868-14.473 16.368-16.393S64.3 42.753 64.3 42.753s.23.275.527.77c2.073 3.456 1.25 7.934-1.803 10.564-10.992 9.464-26.426 11.712-46.518 11.597 0 0-3.75 1.145-4.61-3.574 0 0-.769-20.94 3.818-35.627 0 0-.197-6 .03-9.928a2.59 2.59 0 0 1 .827-1.752c5.78-5.332 8.375-6.115 8.375-6.115l8.388-1.484c1.436.984 4.725 4.739 3.57 11.495"/><path d="M25.589 19.295s1.816 2.59 3.632-.284V16l-.46-1.658-.36-.278m1.143 5.231s1.816 2.59 3.633-.284V16l-.873-2.125m4.516 5.136c-1.961 1.89-3.32 0-3.32 0m-13.199-2.564a3.732 3.732 0 0 1 1.278 2.432c.033.288.131.57.336.774.595.594 1.959 1.517 3.323-.642V16l-.636-1.268m15.754 3.557c1.926.57 2.262 3.427-.702 4.1l-6.329 1.435"/></g></svg><svg viewBox="0 0 72 72" id="1F4AA-1F3FD" xmlns="http://www.w3.org/2000/svg"><g fill="#c19a65" stroke="#c19a65"><path d="M63.11 54.165c-10.969 9.44-26.36 11.68-46.41 11.563 0 0-3.74 1.15-4.597-3.565 0 0-.77-20.887 3.809-35.548 0 0-.195-5.981.029-9.898a2.574 2.574 0 0 1 .828-1.753c5.757-5.319 8.349-6.098 8.349-6.098l8.368-1.481c1.325.906 4.228 4.18 3.75 9.995l.107-.4 3.215.902c1.123.341 1.859 1.525 1.841 2.654-.01 1.17-2.805 2.046-2.805 2.046l-6.118 1.383c-1.831 2.874-5.594 3.176-7.279 3.098-.088-.243-.593-.02-.193 0 .594 1.5 1.289 5.115 1.922 11.807l.176 1.86c.048.527.316 4.73.384 7.477 1.812-4.413 6.636-12.561 15.735-13.847 13.463-1.92 20.165 8.495 20.165 8.495s.234.272.526.77c2.066 3.448 1.247 7.91-1.802 10.54z"/><path d="M26.508 26.81c-.41-.02-.74-.06-.94-.09l.64-.49c.11.14.21.33.3.58z"/><path d="M26.508 26.81c-.41-.02-.74-.06-.94-.09l.64-.49c.11.14.21.33.3.58z"/></g><g fill="#a57939"><path d="M21.922 26.23s5.344-4.986 1.615-6.38l12.76-.419.672-1.142.22-1.844c1.07.178 3.364.946 3.64 1.012 0 0 2.405 1.873.45 4.093l-7.78 2.235s-4.723 3.803-11.577 2.445z"/><path d="M21.922 26.23c.794 9.218 2.56 25.641 2.07 27.745-.045.7.655.81 1.012.296.829-.667 2.767-2.597 3.818-5.195 0-5.762-.666-12.458-2.219-22.262-.57-1.585-2.939-1.566-4.681-.584zm26.277 7.87s10.239 6.972 3.106 16.42c0 0 2.132 8.516.155 9.85-1.977 1.334 20.619-5.545 12.136-18.563 0 0-5.158-7.573-15.397-7.708z"/></g><g fill="none" stroke="#000" stroke-linecap="round" stroke-linejoin="round" stroke-miterlimit="10" stroke-width="2"><path d="M27.468 40.552c-.428-4.28-1.132-12.72-1.954-13.754 0 0 5.2 1.11 7.811-2.974m1.178 29.264s10.802 2.701 19.287-4.327"/><path d="M27.72 50.631s2.868-14.473 16.368-16.393S64.3 42.753 64.3 42.753s.23.275.527.77c2.073 3.456 1.25 7.934-1.803 10.564-10.992 9.464-26.426 11.712-46.518 11.597 0 0-3.75 1.145-4.61-3.574 0 0-.769-20.94 3.818-35.627 0 0-.197-6 .03-9.928a2.59 2.59 0 0 1 .827-1.752c5.78-5.332 8.375-6.115 8.375-6.115l8.388-1.484c1.436.984 4.725 4.739 3.57 11.495"/><path d="M25.589 19.295s1.816 2.59 3.632-.284V16l-.46-1.658-.36-.278m1.143 5.231s1.816 2.59 3.633-.284V16l-.873-2.125m4.516 5.136c-1.961 1.89-3.32 0-3.32 0m-13.199-2.564a3.732 3.732 0 0 1 1.278 2.432c.033.288.131.57.336.774.595.594 1.959 1.517 3.323-.642V16l-.636-1.268m15.754 3.557c1.926.57 2.262 3.427-.702 4.1l-6.329 1.435"/></g></svg><svg viewBox="0 0 72 72" id="1F4AA-1F3FE" xmlns="http://www.w3.org/2000/svg"><g fill="#a57939" stroke="#a57939"><path d="M63.11 54.165c-10.969 9.44-26.36 11.68-46.41 11.563 0 0-3.74 1.15-4.597-3.565 0 0-.77-20.887 3.809-35.548 0 0-.195-5.981.029-9.898a2.574 2.574 0 0 1 .828-1.753c5.757-5.319 8.349-6.098 8.349-6.098l8.368-1.481c1.325.906 4.228 4.18 3.75 9.995l.107-.4 3.215.902c1.123.341 1.859 1.525 1.841 2.654-.01 1.17-2.805 2.046-2.805 2.046l-6.118 1.383c-1.831 2.874-5.594 3.176-7.279 3.098-.088-.243-.593-.02-.193 0 .594 1.5 1.289 5.115 1.922 11.807l.176 1.86c.048.527.316 4.73.384 7.477 1.812-4.413 6.636-12.561 15.735-13.847 13.463-1.92 20.165 8.495 20.165 8.495s.234.272.526.77c2.066 3.448 1.247 7.91-1.802 10.54z"/><path d="M26.508 26.81c-.41-.02-.74-.06-.94-.09l.64-.49c.11.14.21.33.3.58z"/><path d="M26.508 26.81c-.41-.02-.74-.06-.94-.09l.64-.49c.11.14.21.33.3.58z"/></g><g fill="#6a462f"><path d="M21.922 26.23s5.344-4.986 1.615-6.38l12.76-.419.672-1.142.22-1.844c1.07.178 3.364.946 3.64 1.012 0 0 2.405 1.873.45 4.093l-7.78 2.235s-4.723 3.803-11.577 2.445z"/><path d="M21.922 26.23c.794 9.218 2.56 25.641 2.07 27.745-.045.7.655.81 1.012.296.829-.667 2.767-2.597 3.818-5.195 0-5.762-.666-12.458-2.219-22.262-.57-1.585-2.939-1.566-4.681-.584zm26.277 7.87s10.239 6.972 3.106 16.42c0 0 2.132 8.516.155 9.85-1.977 1.334 20.619-5.545 12.136-18.563 0 0-5.158-7.573-15.397-7.708z"/></g><g fill="none" stroke="#000" stroke-linecap="round" stroke-linejoin="round" stroke-miterlimit="10" stroke-width="2"><path d="M27.468 40.552c-.428-4.28-1.132-12.72-1.954-13.754 0 0 5.2 1.11 7.811-2.974m1.178 29.264s10.802 2.701 19.287-4.327"/><path d="M27.72 50.631s2.868-14.473 16.368-16.393S64.3 42.753 64.3 42.753s.23.275.527.77c2.073 3.456 1.25 7.934-1.803 10.564-10.992 9.464-26.426 11.712-46.518 11.597 0 0-3.75 1.145-4.61-3.574 0 0-.769-20.94 3.818-35.627 0 0-.197-6 .03-9.928a2.59 2.59 0 0 1 .827-1.752c5.78-5.332 8.375-6.115 8.375-6.115l8.388-1.484c1.436.984 4.725 4.739 3.57 11.495"/><path d="M25.589 19.295s1.816 2.59 3.632-.284V16l-.46-1.658-.36-.278m1.143 5.231s1.816 2.59 3.633-.284V16l-.873-2.125m4.516 5.136c-1.961 1.89-3.32 0-3.32 0m-13.199-2.564a3.732 3.732 0 0 1 1.278 2.432c.033.288.131.57.336.774.595.594 1.959 1.517 3.323-.642V16l-.636-1.268m15.754 3.557c1.926.57 2.262 3.427-.702 4.1l-6.329 1.435"/></g></svg><svg viewBox="0 0 72 72" id="1F4AA-1F3FF" xmlns="http://www.w3.org/2000/svg"><g fill="#6a462f" stroke="#6a462f"><path d="M63.11 54.165c-10.969 9.44-26.36 11.68-46.41 11.563 0 0-3.74 1.15-4.597-3.565 0 0-.77-20.887 3.809-35.548 0 0-.195-5.981.029-9.898a2.574 2.574 0 0 1 .828-1.753c5.757-5.319 8.349-6.098 8.349-6.098l8.368-1.481c1.325.906 4.228 4.18 3.75 9.995l.107-.4 3.215.902c1.123.341 1.859 1.525 1.841 2.654-.01 1.17-2.805 2.046-2.805 2.046l-6.118 1.383c-1.831 2.874-5.594 3.176-7.279 3.098-.088-.243-.593-.02-.193 0 .594 1.5 1.289 5.115 1.922 11.807l.176 1.86c.048.527.316 4.73.384 7.477 1.812-4.413 6.636-12.561 15.735-13.847 13.463-1.92 20.165 8.495 20.165 8.495s.234.272.526.77c2.066 3.448 1.247 7.91-1.802 10.54z"/><path d="M26.508 26.81c-.41-.02-.74-.06-.94-.09l.64-.49c.11.14.21.33.3.58z"/><path d="M26.508 26.81c-.41-.02-.74-.06-.94-.09l.64-.49c.11.14.21.33.3.58z"/></g><g fill="#352318"><path d="M21.922 26.23s5.344-4.986 1.615-6.38l12.76-.419.672-1.142.22-1.844c1.07.178 3.364.946 3.64 1.012 0 0 2.405 1.873.45 4.093l-7.78 2.235s-4.723 3.803-11.577 2.445z"/><path d="M21.922 26.23c.794 9.218 2.56 25.641 2.07 27.745-.045.7.655.81 1.012.296.829-.667 2.767-2.597 3.818-5.195 0-5.762-.666-12.458-2.219-22.262-.57-1.585-2.939-1.566-4.681-.584zm26.277 7.87s10.239 6.972 3.106 16.42c0 0 2.132 8.516.155 9.85-1.977 1.334 20.619-5.545 12.136-18.563 0 0-5.158-7.573-15.397-7.708z"/></g><g fill="none" stroke="#000" stroke-linecap="round" stroke-linejoin="round" stroke-miterlimit="10" stroke-width="2"><path d="M27.468 40.552c-.428-4.28-1.132-12.72-1.954-13.754 0 0 5.2 1.11 7.811-2.974m1.178 29.264s10.802 2.701 19.287-4.327"/><path d="M27.72 50.631s2.868-14.473 16.368-16.393S64.3 42.753 64.3 42.753s.23.275.527.77c2.073 3.456 1.25 7.934-1.803 10.564-10.992 9.464-26.426 11.712-46.518 11.597 0 0-3.75 1.145-4.61-3.574 0 0-.769-20.94 3.818-35.627 0 0-.197-6 .03-9.928a2.59 2.59 0 0 1 .827-1.752c5.78-5.332 8.375-6.115 8.375-6.115l8.388-1.484c1.436.984 4.725 4.739 3.57 11.495"/><path d="M25.589 19.295s1.816 2.59 3.632-.284V16l-.46-1.658-.36-.278m1.143 5.231s1.816 2.59 3.633-.284V16l-.873-2.125m4.516 5.136c-1.961 1.89-3.32 0-3.32 0m-13.199-2.564a3.732 3.732 0 0 1 1.278 2.432c.033.288.131.57.336.774.595.594 1.959 1.517 3.323-.642V16l-.636-1.268m15.754 3.557c1.926.57 2.262 3.427-.702 4.1l-6.329 1.435"/></g></svg><svg viewBox="0 0 72 72" id="1F9B4" xmlns="http://www.w3.org/2000/svg"><path fill="#fff" d="M57.63 16.277c-.748-.674-2.153-.592-3.69-.307l.003-.003c-3.038.383-3.745-4.61-5.322-6.388a5.599 5.599 0 0 0-4.794-1.804c-3.358.503-4.686 4.667-4.863 5.22a8.98 8.98 0 0 0-.016 5.23 7.259 7.259 0 0 1-.287 4.875 57.348 57.348 0 0 1-16.708 21.366 10.228 10.228 0 0 0-6.025 1.645c-1.167.767-3.44 2.262-3.525 4.742a5.377 5.377 0 0 0 1.966 3.957c.751.676 2.16.592 3.7.306l-.012.005c3.038-.383 3.745 4.61 5.322 6.387a5.599 5.599 0 0 0 4.794 1.804c3.358-.503 4.686-4.667 4.863-5.22a8.98 8.98 0 0 0 .016-5.23 5.54 5.54 0 0 1 .01-3.365l.37-.136 8.643-14.046.337-.55a55.5 55.5 0 0 1 7.56-8.187 10.317 10.317 0 0 0 6.1-1.601c1.167-.768 3.44-2.262 3.525-4.742a5.377 5.377 0 0 0-1.966-3.958z"/><path fill="#d0cfce" d="M22.424 59.176c-.946 1.5 2.186 6.58 8.553 2.83 1.41-.83 1.85-3.965 2.785-5.836.482-.963-1.34-5.505-.841-6.535C37.798 39.57 45.739 30.428 49.973 26.82a10.317 10.317 0 0 0 6.099-1.602c1.167-.767 3.44-2.262 3.525-4.742a5.378 5.378 0 0 0-1.966-3.957c-2.074-1.867-3.869-.995-4.032-.692 0 0 1.128 2.183-1.861 5.292-7.091 7.374-18.971 22.716-24.727 34.453-2.62 5.34-4.587 3.603-4.587 3.603z"/><g fill="none" stroke="#000" stroke-linecap="round" stroke-linejoin="round" stroke-width="2"><path d="M47.39 16.635c1.097 1.92 8.167-1.983 10.24-.116a5.378 5.378 0 0 1 1.967 3.958c-.086 2.48-2.358 3.975-3.525 4.742a10.317 10.317 0 0 1-6.1 1.602c-7.278 6.2-13.998 17.304-16.54 21.914a5.9 5.9 0 0 0-.38 4.37 8.98 8.98 0 0 1-.016 5.23c-.177.553-1.505 4.717-4.863 5.22a5.599 5.599 0 0 1-4.794-1.805c-1.577-1.777-2.284-6.77-5.322-6.387"/><path d="M24.61 54.937c-1.097-1.92-8.168 1.983-10.24.116a5.378 5.378 0 0 1-1.967-3.958c.085-2.48 2.358-3.975 3.525-4.742a10.228 10.228 0 0 1 6.025-1.645A57.348 57.348 0 0 0 38.66 23.342a7.26 7.26 0 0 0 .287-4.875 8.98 8.98 0 0 1 .016-5.23c.177-.552 1.505-4.717 4.863-5.22a5.599 5.599 0 0 1 4.794 1.805c1.577 1.777 2.284 6.77 5.322 6.387"/></g></svg><svg viewBox="0 0 72 72" id="1F9B5" xmlns="http://www.w3.org/2000/svg"><g fill="#fcea2b"><path d="M53.07 8.942c-3 7-12.539 11.949-12.5 14.5.041 2.823 1.293 8.539 1.5 11.5a121.39 121.39 0 0 1 0 20c-.146 1.994 4.651 5.67 0 9-1.223.874-6-2-14 0a24.134 24.134 0 0 1-7.59.29 1.8 1.8 0 0 1-.517-3.41c2.228-1.037 5.186-1.96 7.106-2.88 2.951-1.417 4.787-2.834 5.825-4.671a1.794 1.794 0 0 0 .218-.696c.851-8.01-2.58-20.217-5.043-25.634a8.077 8.077 0 0 1-1-4c0-2 1-3 2-5 2.243-4.485 2.847-7.175 3.928-9.432a2.007 2.007 0 0 1 1.722-1 52.719 52.719 0 0 1 14.655.681z"/><path stroke="#fcea2b" stroke-linecap="round" stroke-linejoin="round" stroke-width="2" d="M53.07 8.942c-3 7-12.539 11.949-12.5 14.5.041 2.823 1.293 8.539 1.5 11.5a121.39 121.39 0 0 1 0 20c-.146 1.994 4.651 5.67 0 9-1.223.874-6-2-14 0a24.134 24.134 0 0 1-7.59.29 1.8 1.8 0 0 1-.517-3.41c2.228-1.037 5.186-1.96 7.106-2.88 2.951-1.417 4.787-2.834 5.825-4.671a1.794 1.794 0 0 0 .218-.696c.851-8.01-2.58-20.217-5.043-25.634a8.077 8.077 0 0 1-1-4c0-2 1-3 2-5 2.243-4.485 2.847-7.175 3.928-9.432a2.007 2.007 0 0 1 1.722-1 52.719 52.719 0 0 1 14.655.681z"/></g><g fill="none" stroke="#000" stroke-linecap="round" stroke-linejoin="round" stroke-width="2"><path d="M53.07 8.942c-3 7-12.539 11.949-12.5 14.5.041 2.823 1.293 8.539 1.5 11.5a121.39 121.39 0 0 1 0 20c-.146 1.994 4.456 6.341 0 9-1.677 1-6-2-14 0a24.134 24.134 0 0 1-7.59.29 1.8 1.8 0 0 1-.517-3.41c2.228-1.037 5.186-1.96 7.106-2.88 2.951-1.417 4.787-2.834 5.825-4.671a1.794 1.794 0 0 0 .218-.696c.851-8.01-2.58-20.217-5.043-25.634a8.077 8.077 0 0 1-1-4c0-2 1-3 2-5 2.243-4.485 2.847-7.175 3.928-9.432a2.007 2.007 0 0 1 1.722-1 52.719 52.719 0 0 1 14.655.681"/><path d="M33.07 19.942c-1.372 1.69-1.78 3.669-1 5a2.906 2.906 0 0 0 1 1"/></g></svg><svg viewBox="0 0 72 72" id="1F9B5-1F3FB" xmlns="http://www.w3.org/2000/svg"><g fill="#fadcbc"><path d="M53.07 8.942c-3 7-12.539 11.949-12.5 14.5.041 2.823 1.293 8.539 1.5 11.5a121.39 121.39 0 0 1 0 20c-.146 1.994 4.651 5.67 0 9-1.223.874-6-2-14 0a24.134 24.134 0 0 1-7.59.29 1.8 1.8 0 0 1-.517-3.41c2.228-1.037 5.186-1.96 7.106-2.88 2.951-1.417 4.787-2.834 5.825-4.671a1.794 1.794 0 0 0 .218-.696c.851-8.01-2.58-20.217-5.043-25.634a8.077 8.077 0 0 1-1-4c0-2 1-3 2-5 2.243-4.485 2.847-7.175 3.928-9.432a2.007 2.007 0 0 1 1.722-1 52.719 52.719 0 0 1 14.655.681z"/><path stroke="#fadcbc" stroke-linecap="round" stroke-linejoin="round" stroke-width="2" d="M53.07 8.942c-3 7-12.539 11.949-12.5 14.5.041 2.823 1.293 8.539 1.5 11.5a121.39 121.39 0 0 1 0 20c-.146 1.994 4.651 5.67 0 9-1.223.874-6-2-14 0a24.134 24.134 0 0 1-7.59.29 1.8 1.8 0 0 1-.517-3.41c2.228-1.037 5.186-1.96 7.106-2.88 2.951-1.417 4.787-2.834 5.825-4.671a1.794 1.794 0 0 0 .218-.696c.851-8.01-2.58-20.217-5.043-25.634a8.077 8.077 0 0 1-1-4c0-2 1-3 2-5 2.243-4.485 2.847-7.175 3.928-9.432a2.007 2.007 0 0 1 1.722-1 52.719 52.719 0 0 1 14.655.681z"/></g><g fill="none" stroke="#000" stroke-linecap="round" stroke-linejoin="round" stroke-width="2"><path d="M53.07 8.942c-3 7-12.539 11.949-12.5 14.5.041 2.823 1.293 8.539 1.5 11.5a121.39 121.39 0 0 1 0 20c-.146 1.994 4.456 6.341 0 9-1.677 1-6-2-14 0a24.134 24.134 0 0 1-7.59.29 1.8 1.8 0 0 1-.517-3.41c2.228-1.037 5.186-1.96 7.106-2.88 2.951-1.417 4.787-2.834 5.825-4.671a1.794 1.794 0 0 0 .218-.696c.851-8.01-2.58-20.217-5.043-25.634a8.077 8.077 0 0 1-1-4c0-2 1-3 2-5 2.243-4.485 2.847-7.175 3.928-9.432a2.007 2.007 0 0 1 1.722-1 52.719 52.719 0 0 1 14.655.681"/><path d="M33.07 19.942c-1.372 1.69-1.78 3.669-1 5a2.906 2.906 0 0 0 1 1"/></g></svg><svg viewBox="0 0 72 72" id="1F9B5-1F3FC" xmlns="http://www.w3.org/2000/svg"><g fill="#debb90"><path d="M53.07 8.942c-3 7-12.539 11.949-12.5 14.5.041 2.823 1.293 8.539 1.5 11.5a121.39 121.39 0 0 1 0 20c-.146 1.994 4.651 5.67 0 9-1.223.874-6-2-14 0a24.134 24.134 0 0 1-7.59.29 1.8 1.8 0 0 1-.517-3.41c2.228-1.037 5.186-1.96 7.106-2.88 2.951-1.417 4.787-2.834 5.825-4.671a1.794 1.794 0 0 0 .218-.696c.851-8.01-2.58-20.217-5.043-25.634a8.077 8.077 0 0 1-1-4c0-2 1-3 2-5 2.243-4.485 2.847-7.175 3.928-9.432a2.007 2.007 0 0 1 1.722-1 52.719 52.719 0 0 1 14.655.681z"/><path stroke="#debb90" stroke-linecap="round" stroke-linejoin="round" stroke-width="2" d="M53.07 8.942c-3 7-12.539 11.949-12.5 14.5.041 2.823 1.293 8.539 1.5 11.5a121.39 121.39 0 0 1 0 20c-.146 1.994 4.651 5.67 0 9-1.223.874-6-2-14 0a24.134 24.134 0 0 1-7.59.29 1.8 1.8 0 0 1-.517-3.41c2.228-1.037 5.186-1.96 7.106-2.88 2.951-1.417 4.787-2.834 5.825-4.671a1.794 1.794 0 0 0 .218-.696c.851-8.01-2.58-20.217-5.043-25.634a8.077 8.077 0 0 1-1-4c0-2 1-3 2-5 2.243-4.485 2.847-7.175 3.928-9.432a2.007 2.007 0 0 1 1.722-1 52.719 52.719 0 0 1 14.655.681z"/></g><g fill="none" stroke="#000" stroke-linecap="round" stroke-linejoin="round" stroke-width="2"><path d="M53.07 8.942c-3 7-12.539 11.949-12.5 14.5.041 2.823 1.293 8.539 1.5 11.5a121.39 121.39 0 0 1 0 20c-.146 1.994 4.456 6.341 0 9-1.677 1-6-2-14 0a24.134 24.134 0 0 1-7.59.29 1.8 1.8 0 0 1-.517-3.41c2.228-1.037 5.186-1.96 7.106-2.88 2.951-1.417 4.787-2.834 5.825-4.671a1.794 1.794 0 0 0 .218-.696c.851-8.01-2.58-20.217-5.043-25.634a8.077 8.077 0 0 1-1-4c0-2 1-3 2-5 2.243-4.485 2.847-7.175 3.928-9.432a2.007 2.007 0 0 1 1.722-1 52.719 52.719 0 0 1 14.655.681"/><path d="M33.07 19.942c-1.372 1.69-1.78 3.669-1 5a2.906 2.906 0 0 0 1 1"/></g></svg><svg viewBox="0 0 72 72" id="1F9B5-1F3FD" xmlns="http://www.w3.org/2000/svg"><g fill="#c19a65"><path d="M53.07 8.942c-3 7-12.539 11.949-12.5 14.5.041 2.823 1.293 8.539 1.5 11.5a121.39 121.39 0 0 1 0 20c-.146 1.994 4.651 5.67 0 9-1.223.874-6-2-14 0a24.134 24.134 0 0 1-7.59.29 1.8 1.8 0 0 1-.517-3.41c2.228-1.037 5.186-1.96 7.106-2.88 2.951-1.417 4.787-2.834 5.825-4.671a1.794 1.794 0 0 0 .218-.696c.851-8.01-2.58-20.217-5.043-25.634a8.077 8.077 0 0 1-1-4c0-2 1-3 2-5 2.243-4.485 2.847-7.175 3.928-9.432a2.007 2.007 0 0 1 1.722-1 52.719 52.719 0 0 1 14.655.681z"/><path stroke="#c19a65" stroke-linecap="round" stroke-linejoin="round" stroke-width="2" d="M53.07 8.942c-3 7-12.539 11.949-12.5 14.5.041 2.823 1.293 8.539 1.5 11.5a121.39 121.39 0 0 1 0 20c-.146 1.994 4.651 5.67 0 9-1.223.874-6-2-14 0a24.134 24.134 0 0 1-7.59.29 1.8 1.8 0 0 1-.517-3.41c2.228-1.037 5.186-1.96 7.106-2.88 2.951-1.417 4.787-2.834 5.825-4.671a1.794 1.794 0 0 0 .218-.696c.851-8.01-2.58-20.217-5.043-25.634a8.077 8.077 0 0 1-1-4c0-2 1-3 2-5 2.243-4.485 2.847-7.175 3.928-9.432a2.007 2.007 0 0 1 1.722-1 52.719 52.719 0 0 1 14.655.681z"/></g><g fill="none" stroke="#000" stroke-linecap="round" stroke-linejoin="round" stroke-width="2"><path d="M53.07 8.942c-3 7-12.539 11.949-12.5 14.5.041 2.823 1.293 8.539 1.5 11.5a121.39 121.39 0 0 1 0 20c-.146 1.994 4.456 6.341 0 9-1.677 1-6-2-14 0a24.134 24.134 0 0 1-7.59.29 1.8 1.8 0 0 1-.517-3.41c2.228-1.037 5.186-1.96 7.106-2.88 2.951-1.417 4.787-2.834 5.825-4.671a1.794 1.794 0 0 0 .218-.696c.851-8.01-2.58-20.217-5.043-25.634a8.077 8.077 0 0 1-1-4c0-2 1-3 2-5 2.243-4.485 2.847-7.175 3.928-9.432a2.007 2.007 0 0 1 1.722-1 52.719 52.719 0 0 1 14.655.681"/><path d="M33.07 19.942c-1.372 1.69-1.78 3.669-1 5a2.906 2.906 0 0 0 1 1"/></g></svg><svg viewBox="0 0 72 72" id="1F9B5-1F3FE" xmlns="http://www.w3.org/2000/svg"><g fill="#a57939"><path d="M53.07 8.942c-3 7-12.539 11.949-12.5 14.5.041 2.823 1.293 8.539 1.5 11.5a121.39 121.39 0 0 1 0 20c-.146 1.994 4.651 5.67 0 9-1.223.874-6-2-14 0a24.134 24.134 0 0 1-7.59.29 1.8 1.8 0 0 1-.517-3.41c2.228-1.037 5.186-1.96 7.106-2.88 2.951-1.417 4.787-2.834 5.825-4.671a1.794 1.794 0 0 0 .218-.696c.851-8.01-2.58-20.217-5.043-25.634a8.077 8.077 0 0 1-1-4c0-2 1-3 2-5 2.243-4.485 2.847-7.175 3.928-9.432a2.007 2.007 0 0 1 1.722-1 52.719 52.719 0 0 1 14.655.681z"/><path stroke="#a57939" stroke-linecap="round" stroke-linejoin="round" stroke-width="2" d="M53.07 8.942c-3 7-12.539 11.949-12.5 14.5.041 2.823 1.293 8.539 1.5 11.5a121.39 121.39 0 0 1 0 20c-.146 1.994 4.651 5.67 0 9-1.223.874-6-2-14 0a24.134 24.134 0 0 1-7.59.29 1.8 1.8 0 0 1-.517-3.41c2.228-1.037 5.186-1.96 7.106-2.88 2.951-1.417 4.787-2.834 5.825-4.671a1.794 1.794 0 0 0 .218-.696c.851-8.01-2.58-20.217-5.043-25.634a8.077 8.077 0 0 1-1-4c0-2 1-3 2-5 2.243-4.485 2.847-7.175 3.928-9.432a2.007 2.007 0 0 1 1.722-1 52.719 52.719 0 0 1 14.655.681z"/></g><g fill="none" stroke="#000" stroke-linecap="round" stroke-linejoin="round" stroke-width="2"><path d="M53.07 8.942c-3 7-12.539 11.949-12.5 14.5.041 2.823 1.293 8.539 1.5 11.5a121.39 121.39 0 0 1 0 20c-.146 1.994 4.456 6.341 0 9-1.677 1-6-2-14 0a24.134 24.134 0 0 1-7.59.29 1.8 1.8 0 0 1-.517-3.41c2.228-1.037 5.186-1.96 7.106-2.88 2.951-1.417 4.787-2.834 5.825-4.671a1.794 1.794 0 0 0 .218-.696c.851-8.01-2.58-20.217-5.043-25.634a8.077 8.077 0 0 1-1-4c0-2 1-3 2-5 2.243-4.485 2.847-7.175 3.928-9.432a2.007 2.007 0 0 1 1.722-1 52.719 52.719 0 0 1 14.655.681"/><path d="M33.07 19.942c-1.372 1.69-1.78 3.669-1 5a2.906 2.906 0 0 0 1 1"/></g></svg><svg viewBox="0 0 72 72" id="1F9B5-1F3FF" xmlns="http://www.w3.org/2000/svg"><g fill="#6a462f"><path d="M53.07 8.942c-3 7-12.539 11.949-12.5 14.5.041 2.823 1.293 8.539 1.5 11.5a121.39 121.39 0 0 1 0 20c-.146 1.994 4.651 5.67 0 9-1.223.874-6-2-14 0a24.134 24.134 0 0 1-7.59.29 1.8 1.8 0 0 1-.517-3.41c2.228-1.037 5.186-1.96 7.106-2.88 2.951-1.417 4.787-2.834 5.825-4.671a1.794 1.794 0 0 0 .218-.696c.851-8.01-2.58-20.217-5.043-25.634a8.077 8.077 0 0 1-1-4c0-2 1-3 2-5 2.243-4.485 2.847-7.175 3.928-9.432a2.007 2.007 0 0 1 1.722-1 52.719 52.719 0 0 1 14.655.681z"/><path stroke="#6a462f" stroke-linecap="round" stroke-linejoin="round" stroke-width="2" d="M53.07 8.942c-3 7-12.539 11.949-12.5 14.5.041 2.823 1.293 8.539 1.5 11.5a121.39 121.39 0 0 1 0 20c-.146 1.994 4.651 5.67 0 9-1.223.874-6-2-14 0a24.134 24.134 0 0 1-7.59.29 1.8 1.8 0 0 1-.517-3.41c2.228-1.037 5.186-1.96 7.106-2.88 2.951-1.417 4.787-2.834 5.825-4.671a1.794 1.794 0 0 0 .218-.696c.851-8.01-2.58-20.217-5.043-25.634a8.077 8.077 0 0 1-1-4c0-2 1-3 2-5 2.243-4.485 2.847-7.175 3.928-9.432a2.007 2.007 0 0 1 1.722-1 52.719 52.719 0 0 1 14.655.681z"/></g><g fill="none" stroke="#000" stroke-linecap="round" stroke-linejoin="round" stroke-width="2"><path d="M53.07 8.942c-3 7-12.539 11.949-12.5 14.5.041 2.823 1.293 8.539 1.5 11.5a121.39 121.39 0 0 1 0 20c-.146 1.994 4.456 6.341 0 9-1.677 1-6-2-14 0a24.134 24.134 0 0 1-7.59.29 1.8 1.8 0 0 1-.517-3.41c2.228-1.037 5.186-1.96 7.106-2.88 2.951-1.417 4.787-2.834 5.825-4.671a1.794 1.794 0 0 0 .218-.696c.851-8.01-2.58-20.217-5.043-25.634a8.077 8.077 0 0 1-1-4c0-2 1-3 2-5 2.243-4.485 2.847-7.175 3.928-9.432a2.007 2.007 0 0 1 1.722-1 52.719 52.719 0 0 1 14.655.681"/><path d="M33.07 19.942c-1.372 1.69-1.78 3.669-1 5a2.906 2.906 0 0 0 1 1"/></g></svg><svg viewBox="0 0 72 72" id="1F9B6" xmlns="http://www.w3.org/2000/svg"><path fill="#fcea2b" d="M38 13s2 18 2 23c0 4.123-2.172 7.586-5 9-4 2-14 7-19 7h-3.4a4.894 4.894 0 0 0-.6 2.5 3.5 3.5 0 0 0 3.5 3.5H49a5 5 0 0 0 5-5c0-6-3-11-3-17s3-23 3-23v-1H38z"/><path fill="#f1b31c" d="M45.5 58H49a5 5 0 0 0 5-5c0-6-3-11-3-17s3-23 3-23v-1h-4s-3 17-3 23 3 11 3 17a5 5 0 0 1-5 5z"/><g fill="none" stroke="#000" stroke-linecap="round" stroke-width="2"><path stroke-linejoin="round" d="M38 13s2 18 2 23c0 4.123-2.172 7.586-5 9-4 2-14 7-19 7h-3.4a4.894 4.894 0 0 0-.6 2.5 3.5 3.5 0 0 0 3.5 3.5H49a5 5 0 0 0 5-5c0-6-3-11-3-17s3-23 3-23"/><path stroke-miterlimit="10" d="M48 47a4 4 0 0 1-4 4"/></g></svg><svg viewBox="0 0 72 72" id="1F9B6-1F3FB" xmlns="http://www.w3.org/2000/svg"><path fill="#fadcbc" d="M38 13s2 18 2 23c0 4.123-2.172 7.586-5 9-4 2-14 7-19 7h-3.4a4.894 4.894 0 0 0-.6 2.5 3.5 3.5 0 0 0 3.5 3.5H49a5 5 0 0 0 5-5c0-6-3-11-3-17s3-23 3-23v-1H38z"/><path fill="#debb90" d="M45.5 58H49a5 5 0 0 0 5-5c0-6-3-11-3-17s3-23 3-23v-1h-4s-3 17-3 23 3 11 3 17a5 5 0 0 1-5 5z"/><g fill="none" stroke="#000" stroke-linecap="round" stroke-width="2"><path stroke-linejoin="round" d="M38 13s2 18 2 23c0 4.123-2.172 7.586-5 9-4 2-14 7-19 7h-3.4a4.894 4.894 0 0 0-.6 2.5 3.5 3.5 0 0 0 3.5 3.5H49a5 5 0 0 0 5-5c0-6-3-11-3-17s3-23 3-23"/><path stroke-miterlimit="10" d="M48 47a4 4 0 0 1-4 4"/></g></svg><svg viewBox="0 0 72 72" id="1F9B6-1F3FC" xmlns="http://www.w3.org/2000/svg"><path fill="#debb90" d="M38 13s2 18 2 23c0 4.123-2.172 7.586-5 9-4 2-14 7-19 7h-3.4a4.894 4.894 0 0 0-.6 2.5 3.5 3.5 0 0 0 3.5 3.5H49a5 5 0 0 0 5-5c0-6-3-11-3-17s3-23 3-23v-1H38z"/><path fill="#c19a65" d="M45.5 58H49a5 5 0 0 0 5-5c0-6-3-11-3-17s3-23 3-23v-1h-4s-3 17-3 23 3 11 3 17a5 5 0 0 1-5 5z"/><g fill="none" stroke="#000" stroke-linecap="round" stroke-width="2"><path stroke-linejoin="round" d="M38 13s2 18 2 23c0 4.123-2.172 7.586-5 9-4 2-14 7-19 7h-3.4a4.894 4.894 0 0 0-.6 2.5 3.5 3.5 0 0 0 3.5 3.5H49a5 5 0 0 0 5-5c0-6-3-11-3-17s3-23 3-23"/><path stroke-miterlimit="10" d="M48 47a4 4 0 0 1-4 4"/></g></svg><svg viewBox="0 0 72 72" id="1F9B6-1F3FD" xmlns="http://www.w3.org/2000/svg"><path fill="#c19a65" d="M38 13s2 18 2 23c0 4.123-2.172 7.586-5 9-4 2-14 7-19 7h-3.4a4.894 4.894 0 0 0-.6 2.5 3.5 3.5 0 0 0 3.5 3.5H49a5 5 0 0 0 5-5c0-6-3-11-3-17s3-23 3-23v-1H38z"/><path fill="#a57939" d="M45.5 58H49a5 5 0 0 0 5-5c0-6-3-11-3-17s3-23 3-23v-1h-4s-3 17-3 23 3 11 3 17a5 5 0 0 1-5 5z"/><g fill="none" stroke="#000" stroke-linecap="round" stroke-width="2"><path stroke-linejoin="round" d="M38 13s2 18 2 23c0 4.123-2.172 7.586-5 9-4 2-14 7-19 7h-3.4a4.894 4.894 0 0 0-.6 2.5 3.5 3.5 0 0 0 3.5 3.5H49a5 5 0 0 0 5-5c0-6-3-11-3-17s3-23 3-23"/><path stroke-miterlimit="10" d="M48 47a4 4 0 0 1-4 4"/></g></svg><svg viewBox="0 0 72 72" id="1F9B6-1F3FE" xmlns="http://www.w3.org/2000/svg"><path fill="#a57939" d="M38 13s2 18 2 23c0 4.123-2.172 7.586-5 9-4 2-14 7-19 7h-3.4a4.894 4.894 0 0 0-.6 2.5 3.5 3.5 0 0 0 3.5 3.5H49a5 5 0 0 0 5-5c0-6-3-11-3-17s3-23 3-23v-1H38z"/><path fill="#6a462f" d="M45.5 58H49a5 5 0 0 0 5-5c0-6-3-11-3-17s3-23 3-23v-1h-4s-3 17-3 23 3 11 3 17a5 5 0 0 1-5 5z"/><g fill="none" stroke="#000" stroke-linecap="round" stroke-width="2"><path stroke-linejoin="round" d="M38 13s2 18 2 23c0 4.123-2.172 7.586-5 9-4 2-14 7-19 7h-3.4a4.894 4.894 0 0 0-.6 2.5 3.5 3.5 0 0 0 3.5 3.5H49a5 5 0 0 0 5-5c0-6-3-11-3-17s3-23 3-23"/><path stroke-miterlimit="10" d="M48 47a4 4 0 0 1-4 4"/></g></svg><svg viewBox="0 0 72 72" id="1F9B6-1F3FF" xmlns="http://www.w3.org/2000/svg"><path fill="#6a462f" d="M38 13s2 18 2 23c0 4.123-2.172 7.586-5 9-4 2-14 7-19 7h-3.4a4.894 4.894 0 0 0-.6 2.5 3.5 3.5 0 0 0 3.5 3.5H49a5 5 0 0 0 5-5c0-6-3-11-3-17s3-23 3-23v-1H38z"/><path fill="#352318" d="M45.5 58H49a5 5 0 0 0 5-5c0-6-3-11-3-17s3-23 3-23v-1h-4s-3 17-3 23 3 11 3 17a5 5 0 0 1-5 5z"/><g fill="none" stroke="#000" stroke-linecap="round" stroke-width="2"><path stroke-linejoin="round" d="M38 13s2 18 2 23c0 4.123-2.172 7.586-5 9-4 2-14 7-19 7h-3.4a4.894 4.894 0 0 0-.6 2.5 3.5 3.5 0 0 0 3.5 3.5H49a5 5 0 0 0 5-5c0-6-3-11-3-17s3-23 3-23"/><path stroke-miterlimit="10" d="M48 47a4 4 0 0 1-4 4"/></g></svg><svg viewBox="0 0 72 72" id="1F9B7" xmlns="http://www.w3.org/2000/svg"><path fill="#fff" d="M56.846 18.796a11.642 11.642 0 0 0-10.55-5.013c-4.808.546-6.06 2.765-10.357 3.188-4.296-.423-5.55-2.642-10.357-3.188a11.642 11.642 0 0 0-10.55 5.013c-2.758 4.212-2.153 10.504 1.812 15.318a6.092 6.092 0 0 1 1.444 3.626c.237 6.121 1.402 23.342 6.988 24.508 4.31.9 2.03-19.697 10.663-19.43 8.632-.267 6.354 20.329 10.663 19.43 5.586-1.166 6.75-18.387 6.988-24.508a6.092 6.092 0 0 1 1.444-3.626c3.965-4.814 4.57-11.106 1.812-15.318z"/><path fill="#d0cfce" d="M56.846 18.796c-1.252-2.796-12.474-7.687-10.55-5.013 3.06 4.252 4.207 12.231 3.257 20.922-.818 7.468-5.476 23.877-5.476 23.877-.365 2.232.97 4.208 1.83 4.071 2.375-.377 7.936-7.613 7.683-24.913a5.675 5.675 0 0 1 1.443-3.626 14.41 14.41 0 0 0 1.813-15.318z"/><path fill="none" stroke="#000" stroke-miterlimit="10" stroke-width="2" d="M56.846 18.796a11.642 11.642 0 0 0-10.55-5.013c-4.808.546-6.06 2.765-10.357 3.188-4.296-.423-5.55-2.642-10.357-3.188a11.642 11.642 0 0 0-10.55 5.013c-2.758 4.212-2.153 10.504 1.812 15.318a6.092 6.092 0 0 1 1.444 3.626c.237 6.121 1.402 23.342 6.988 24.508 4.31.9 2.03-19.697 10.663-19.43 8.632-.267 6.354 20.329 10.663 19.43 5.586-1.166 6.75-18.387 6.988-24.508a6.092 6.092 0 0 1 1.444-3.626c3.965-4.814 4.57-11.106 1.812-15.318z"/></svg><svg viewBox="0 0 72 72" id="1F9BB" xmlns="http://www.w3.org/2000/svg"><path fill="#d0cfce" d="M46.094 29.814a8.094 8.094 0 0 0 1.23-5.115c-.331-8.514-6.588-10.901-9.592-13.478 4.19 5.492 5.96 10.756 2.615 20.854 0 0 3.333 1.506 5.747-2.26z"/><path fill="#fcea2b" d="M15.224 17.362C19.849-.179 51.117 4.614 39.828 33.28c-14.592 35.792-32.792 24.677-29.73 13"/><path fill="#f1b31c" d="M35.525 33.666c3.664-21.877-14.563-17.24-16.006-11.677 3.975-15.875 24.092-9.592 16.006 11.677zM24 25.686c4.439 7 8.337 13.907 2.337 16.616-1.397.573-2.876.413-4.382 1.173-1.535.723-1.82 1.327-3.639 3.285-2.562 2.063-5.77-1.546-3.958-3.687 3.073-3.396 6.448-3.928 4.667-7.209-1.22-2.204.495-5.027 4.402-3.902z"/><g fill="none" stroke="#000" stroke-linecap="round" stroke-width="2"><path stroke-miterlimit="10" d="M50.45 18.001a20.313 20.313 0 0 1 1.275 9.755 13.674 13.674 0 0 1-.513 2.218m3.453-14.962a27.885 27.885 0 0 1 1.674 13.01 18.658 18.658 0 0 1-.657 2.956m3.228-17.05a32.338 32.338 0 0 1 1.867 14.713 21.533 21.533 0 0 1-.718 3.342"/><path stroke-linejoin="round" d="M46.094 29.814a8.094 8.094 0 0 0 1.23-5.115c-.331-8.514-6.588-10.901-9.592-13.478 4.19 5.492 5.96 10.756 2.615 20.854 0 0 3.333 1.506 5.747-2.26z"/><path stroke-linejoin="round" d="M19.52 21.99c3.973-15.877 24.831-10.26 15.24 11.117"/><path stroke-linejoin="round" d="M10.712 47.333C7.65 59.01 24.932 69.802 39.525 34.01 50.837 5.927 20.587.135 15.962 17.677c0 0-2.776 9.892 5.391 14.05"/><path stroke-linejoin="round" d="M24.837 26.052c4.439 7 7.5 13.542 1.5 16.25-1.397.573-2.876.413-4.382 1.173-1.534.723-1.82 1.327-3.639 3.285-2.562 2.063-5.77-1.546-3.958-3.687"/><circle cx="20.028" cy="35.552" r="4.048" stroke-linejoin="round"/></g><circle cx="20.01" cy="35.494" r="3.054" fill="#d0cfce"/></svg><svg viewBox="0 0 72 72" id="1F9BB-1F3FB" xmlns="http://www.w3.org/2000/svg"><path fill="#d0cfce" d="M46.094 29.814a8.094 8.094 0 0 0 1.23-5.115c-.331-8.514-6.588-10.901-9.592-13.478 4.19 5.492 5.96 10.756 2.615 20.854 0 0 3.333 1.506 5.747-2.26z"/><path fill="#fadcbc" d="M15.224 17.362C19.849-.179 51.117 4.614 39.828 33.28c-14.592 35.792-32.792 24.677-29.73 13"/><path fill="#debb90" d="M35.525 33.666c3.664-21.877-14.563-17.24-16.006-11.677 3.975-15.875 24.092-9.592 16.006 11.677zM24 25.686c4.439 7 8.337 13.907 2.337 16.616-1.397.573-2.876.413-4.382 1.173-1.535.723-1.82 1.327-3.639 3.285-2.562 2.063-5.77-1.546-3.958-3.687 3.073-3.396 6.448-3.928 4.667-7.209-1.22-2.204.495-5.027 4.402-3.902z"/><g fill="none" stroke="#000" stroke-linecap="round" stroke-width="2"><path stroke-miterlimit="10" d="M50.45 18.001a20.313 20.313 0 0 1 1.275 9.755 13.674 13.674 0 0 1-.513 2.218m3.453-14.962a27.885 27.885 0 0 1 1.674 13.01 18.658 18.658 0 0 1-.657 2.956m3.228-17.05a32.338 32.338 0 0 1 1.867 14.713 21.533 21.533 0 0 1-.718 3.342"/><path stroke-linejoin="round" d="M46.094 29.814a8.094 8.094 0 0 0 1.23-5.115c-.331-8.514-6.588-10.901-9.592-13.478 4.19 5.492 5.96 10.756 2.615 20.854 0 0 3.333 1.506 5.747-2.26z"/><path stroke-linejoin="round" d="M19.52 21.99c3.973-15.877 24.831-10.26 15.24 11.117"/><path stroke-linejoin="round" d="M10.712 47.333C7.65 59.01 24.932 69.802 39.525 34.01 50.837 5.927 20.587.135 15.962 17.677c0 0-2.776 9.892 5.391 14.05"/><path stroke-linejoin="round" d="M24.837 26.052c4.439 7 7.5 13.542 1.5 16.25-1.397.573-2.876.413-4.382 1.173-1.534.723-1.82 1.327-3.639 3.285-2.562 2.063-5.77-1.546-3.958-3.687"/><circle cx="20.028" cy="35.552" r="4.048" stroke-linejoin="round"/></g><circle cx="20.01" cy="35.494" r="3.054" fill="#d0cfce"/></svg><svg viewBox="0 0 72 72" id="1F9BB-1F3FC" xmlns="http://www.w3.org/2000/svg"><path fill="#d0cfce" d="M46.094 29.814a8.094 8.094 0 0 0 1.23-5.115c-.331-8.514-6.588-10.901-9.592-13.478 4.19 5.492 5.96 10.756 2.615 20.854 0 0 3.333 1.506 5.747-2.26z"/><path fill="#debb90" d="M15.224 17.362C19.849-.179 51.117 4.614 39.828 33.28c-14.592 35.792-32.792 24.677-29.73 13"/><path fill="#c19a65" d="M35.525 33.666c3.664-21.877-14.563-17.24-16.006-11.677 3.975-15.875 24.092-9.592 16.006 11.677zM24 25.686c4.439 7 8.337 13.907 2.337 16.616-1.397.573-2.876.413-4.382 1.173-1.535.723-1.82 1.327-3.639 3.285-2.562 2.063-5.77-1.546-3.958-3.687 3.073-3.396 6.448-3.928 4.667-7.209-1.22-2.204.495-5.027 4.402-3.902z"/><g fill="none" stroke="#000" stroke-linecap="round" stroke-width="2"><path stroke-miterlimit="10" d="M50.45 18.001a20.313 20.313 0 0 1 1.275 9.755 13.674 13.674 0 0 1-.513 2.218m3.453-14.962a27.885 27.885 0 0 1 1.674 13.01 18.658 18.658 0 0 1-.657 2.956m3.228-17.05a32.338 32.338 0 0 1 1.867 14.713 21.533 21.533 0 0 1-.718 3.342"/><path stroke-linejoin="round" d="M46.094 29.814a8.094 8.094 0 0 0 1.23-5.115c-.331-8.514-6.588-10.901-9.592-13.478 4.19 5.492 5.96 10.756 2.615 20.854 0 0 3.333 1.506 5.747-2.26z"/><path stroke-linejoin="round" d="M19.52 21.99c3.973-15.877 24.831-10.26 15.24 11.117"/><path stroke-linejoin="round" d="M10.712 47.333C7.65 59.01 24.932 69.802 39.525 34.01 50.837 5.927 20.587.135 15.962 17.677c0 0-2.776 9.892 5.391 14.05"/><path stroke-linejoin="round" d="M24.837 26.052c4.439 7 7.5 13.542 1.5 16.25-1.397.573-2.876.413-4.382 1.173-1.534.723-1.82 1.327-3.639 3.285-2.562 2.063-5.77-1.546-3.958-3.687"/><circle cx="20.028" cy="35.552" r="4.048" stroke-linejoin="round"/></g><circle cx="20.01" cy="35.494" r="3.054" fill="#d0cfce"/></svg><svg viewBox="0 0 72 72" id="1F9BB-1F3FD" xmlns="http://www.w3.org/2000/svg"><path fill="#d0cfce" d="M46.094 29.814a8.094 8.094 0 0 0 1.23-5.115c-.331-8.514-6.588-10.901-9.592-13.478 4.19 5.492 5.96 10.756 2.615 20.854 0 0 3.333 1.506 5.747-2.26z"/><path fill="#c19a65" d="M15.224 17.362C19.849-.179 51.117 4.614 39.828 33.28c-14.592 35.792-32.792 24.677-29.73 13"/><path fill="#a57939" d="M35.525 33.666c3.664-21.877-14.563-17.24-16.006-11.677 3.975-15.875 24.092-9.592 16.006 11.677zM24 25.686c4.439 7 8.337 13.907 2.337 16.616-1.397.573-2.876.413-4.382 1.173-1.535.723-1.82 1.327-3.639 3.285-2.562 2.063-5.77-1.546-3.958-3.687 3.073-3.396 6.448-3.928 4.667-7.209-1.22-2.204.495-5.027 4.402-3.902z"/><g fill="none" stroke="#000" stroke-linecap="round" stroke-width="2"><path stroke-miterlimit="10" d="M50.45 18.001a20.313 20.313 0 0 1 1.275 9.755 13.674 13.674 0 0 1-.513 2.218m3.453-14.962a27.885 27.885 0 0 1 1.674 13.01 18.658 18.658 0 0 1-.657 2.956m3.228-17.05a32.338 32.338 0 0 1 1.867 14.713 21.533 21.533 0 0 1-.718 3.342"/><path stroke-linejoin="round" d="M46.094 29.814a8.094 8.094 0 0 0 1.23-5.115c-.331-8.514-6.588-10.901-9.592-13.478 4.19 5.492 5.96 10.756 2.615 20.854 0 0 3.333 1.506 5.747-2.26z"/><path stroke-linejoin="round" d="M19.52 21.99c3.973-15.877 24.831-10.26 15.24 11.117"/><path stroke-linejoin="round" d="M10.712 47.333C7.65 59.01 24.932 69.802 39.525 34.01 50.837 5.927 20.587.135 15.962 17.677c0 0-2.776 9.892 5.391 14.05"/><path stroke-linejoin="round" d="M24.837 26.052c4.439 7 7.5 13.542 1.5 16.25-1.397.573-2.876.413-4.382 1.173-1.534.723-1.82 1.327-3.639 3.285-2.562 2.063-5.77-1.546-3.958-3.687"/><circle cx="20.028" cy="35.552" r="4.048" stroke-linejoin="round"/></g><circle cx="20.01" cy="35.494" r="3.054" fill="#d0cfce"/></svg><svg viewBox="0 0 72 72" id="1F9BB-1F3FE" xmlns="http://www.w3.org/2000/svg"><path fill="#d0cfce" d="M46.094 29.814a8.094 8.094 0 0 0 1.23-5.115c-.331-8.514-6.588-10.901-9.592-13.478 4.19 5.492 5.96 10.756 2.615 20.854 0 0 3.333 1.506 5.747-2.26z"/><path fill="#a57939" d="M15.224 17.362C19.849-.179 51.117 4.614 39.828 33.28c-14.592 35.792-32.792 24.677-29.73 13"/><path fill="#6a462f" d="M35.525 33.666c3.664-21.877-14.563-17.24-16.006-11.677 3.975-15.875 24.092-9.592 16.006 11.677zM24 25.686c4.439 7 8.337 13.907 2.337 16.616-1.397.573-2.876.413-4.382 1.173-1.535.723-1.82 1.327-3.639 3.285-2.562 2.063-5.77-1.546-3.958-3.687 3.073-3.396 6.448-3.928 4.667-7.209-1.22-2.204.495-5.027 4.402-3.902z"/><g fill="none" stroke="#000" stroke-linecap="round" stroke-width="2"><path stroke-miterlimit="10" d="M50.45 18.001a20.313 20.313 0 0 1 1.275 9.755 13.674 13.674 0 0 1-.513 2.218m3.453-14.962a27.885 27.885 0 0 1 1.674 13.01 18.658 18.658 0 0 1-.657 2.956m3.228-17.05a32.338 32.338 0 0 1 1.867 14.713 21.533 21.533 0 0 1-.718 3.342"/><path stroke-linejoin="round" d="M46.094 29.814a8.094 8.094 0 0 0 1.23-5.115c-.331-8.514-6.588-10.901-9.592-13.478 4.19 5.492 5.96 10.756 2.615 20.854 0 0 3.333 1.506 5.747-2.26z"/><path stroke-linejoin="round" d="M19.52 21.99c3.973-15.877 24.831-10.26 15.24 11.117"/><path stroke-linejoin="round" d="M10.712 47.333C7.65 59.01 24.932 69.802 39.525 34.01 50.837 5.927 20.587.135 15.962 17.677c0 0-2.776 9.892 5.391 14.05"/><path stroke-linejoin="round" d="M24.837 26.052c4.439 7 7.5 13.542 1.5 16.25-1.397.573-2.876.413-4.382 1.173-1.534.723-1.82 1.327-3.639 3.285-2.562 2.063-5.77-1.546-3.958-3.687"/><circle cx="20.028" cy="35.552" r="4.048" stroke-linejoin="round"/></g><circle cx="20.01" cy="35.494" r="3.054" fill="#d0cfce"/></svg><svg viewBox="0 0 72 72" id="1F9BB-1F3FF" xmlns="http://www.w3.org/2000/svg"><path fill="#d0cfce" d="M46.094 29.814a8.094 8.094 0 0 0 1.23-5.115c-.331-8.514-6.588-10.901-9.592-13.478 4.19 5.492 5.96 10.756 2.615 20.854 0 0 3.333 1.506 5.747-2.26z"/><path fill="#6a462f" d="M15.224 17.362C19.849-.179 51.117 4.614 39.828 33.28c-14.592 35.792-32.792 24.677-29.73 13"/><path fill="#352318" d="M35.525 33.666c3.664-21.877-14.563-17.24-16.006-11.677 3.975-15.875 24.092-9.592 16.006 11.677zM24 25.686c4.439 7 8.337 13.907 2.337 16.616-1.397.573-2.876.413-4.382 1.173-1.535.723-1.82 1.327-3.639 3.285-2.562 2.063-5.77-1.546-3.958-3.687 3.073-3.396 6.448-3.928 4.667-7.209-1.22-2.204.495-5.027 4.402-3.902z"/><g fill="none" stroke="#000" stroke-linecap="round" stroke-width="2"><path stroke-miterlimit="10" d="M50.45 18.001a20.313 20.313 0 0 1 1.275 9.755 13.674 13.674 0 0 1-.513 2.218m3.453-14.962a27.885 27.885 0 0 1 1.674 13.01 18.658 18.658 0 0 1-.657 2.956m3.228-17.05a32.338 32.338 0 0 1 1.867 14.713 21.533 21.533 0 0 1-.718 3.342"/><path stroke-linejoin="round" d="M46.094 29.814a8.094 8.094 0 0 0 1.23-5.115c-.331-8.514-6.588-10.901-9.592-13.478 4.19 5.492 5.96 10.756 2.615 20.854 0 0 3.333 1.506 5.747-2.26z"/><path stroke-linejoin="round" d="M19.52 21.99c3.973-15.877 24.831-10.26 15.24 11.117"/><path stroke-linejoin="round" d="M10.712 47.333C7.65 59.01 24.932 69.802 39.525 34.01 50.837 5.927 20.587.135 15.962 17.677c0 0-2.776 9.892 5.391 14.05"/><path stroke-linejoin="round" d="M24.837 26.052c4.439 7 7.5 13.542 1.5 16.25-1.397.573-2.876.413-4.382 1.173-1.534.723-1.82 1.327-3.639 3.285-2.562 2.063-5.77-1.546-3.958-3.687"/><circle cx="20.028" cy="35.552" r="4.048" stroke-linejoin="round"/></g><circle cx="20.01" cy="35.494" r="3.054" fill="#d0cfce"/></svg><svg viewBox="0 0 72 72" id="1F9BE" xmlns="http://www.w3.org/2000/svg"><path fill="#d0cfce" d="m19.076 42.528 2.637 5.118-.142 5.146-3.546 1.794-9.457-.877.318-9.397 5.514-1.85 1.425-5.954L18 35.461zm29.058 11.067-5.313-.286v-6.04l3.624-2.416 4.833 4.832z"/><path fill="#d0cfce" d="m43.356 52.759-2.416 2.416H25.222l-2.416-2.416v-6.04l2.416-2.417H40.94l2.416 2.416zm6.35-31.743 6.625-4.403 7.716 3.312v6.612L54.123 48.58l-3.313 1.104-4.404-4.404 1.105-12.132z"/><path fill="#9b9b9a" d="M59.84 19.09s1.206 8.559-9.042 29.17c.159 1.189 4.087 1.766 9.719-12.93 0 0 8.38-14.96-.676-16.24M49.485 47.282l-4.397 5.614h4.534z"/><g fill="none" stroke="#000" stroke-width="2"><path stroke-linecap="round" stroke-linejoin="round" d="m44.04 46.24.684-.456a2.55 2.55 0 0 1 3.218.319l1.65 1.65a2.55 2.55 0 0 1 .185 3.399l-.832 1.038a2.55 2.55 0 0 1-2.126.95l-1.501-.081a2.55 2.55 0 0 1-2.412-2.546v-2.151a2.55 2.55 0 0 1 1.135-2.122z"/><path stroke-miterlimit="10" d="m23.59 46.21.792-.705a2.55 2.55 0 0 1 1.694-.644h13.48a2.55 2.55 0 0 1 1.695.644l.793.705a2.55 2.55 0 0 1 .855 1.905V51.1a2.55 2.55 0 0 1-.855 1.905l-.793.705a2.55 2.55 0 0 1-1.695.644h-13.48a2.55 2.55 0 0 1-1.694-.644l-.792-.705a2.55 2.55 0 0 1-.855-1.905v-2.985a2.55 2.55 0 0 1 .855-1.905zm26.27 1.85-2.37-2.37a2.55 2.55 0 0 1-.736-2.034l.963-10.6q.01-.113.031-.225L49.7 22.1a2.55 2.55 0 0 1 1.094-1.665l4.443-2.962a2.55 2.55 0 0 1 2.42-.222l4.76 2.04a2.55 2.55 0 0 1 1.545 2.344V25.9a2.55 2.55 0 0 1-.224 1.046l-9.057 20.13a2.55 2.55 0 0 1-1.52 1.373l-.69.23a2.55 2.55 0 0 1-2.61-.616z"/><path stroke-linecap="round" stroke-linejoin="round" d="M11.656 50.893H9.694m1.695-3.557-1.594.128m7.969 7.306c.492 0 .973-.143 1.386-.41l3.12-2.023v-4.5l-2.077-4.038a2.552 2.552 0 0 1-.256-.8l-.926-6.373c-.342-1.139-2.517-1.244-3.19-.117a17.16 17.16 0 0 0-.437 4.492 2.6 2.6 0 0 1-2.356 2.68l-3.124.233c-2.168.129-2.267 3.284-.113 3.55-2.194.837-1.906 3.082-.099 3.435-1.936.408-1.879 3.185.072 3.523l2.22.348z"/></g></svg><svg viewBox="0 0 72 72" id="1F9BF" xmlns="http://www.w3.org/2000/svg"><path fill="#d0cfce" d="m28 29.175 1.924-1.924 4.918 2.096L34.424 33l-5.462.024L28 31.1v-1.925zM35.742 56.2l.315-2.314L33.644 51h-2.886l-5.883 6.359-2.04 2.116.658 1.625 12.249-4.9z"/><path fill="#d0cfce" d="M34.428 51.422h-3.357l-2.237-8.659v-9.621l6.352-.024 1.926 3.864-.134 4.803-2.55 9.637m-3.585-24a.008.008 0 0 1-.004-.013l10.491-17.35a.024.024 0 0 1 .015-.01l5.583-.899a.023.023 0 0 1 .017.005l4.017 3.728a.026.026 0 0 1 .008.017l.027 5.753a.021.021 0 0 1-.008.015L35.77 29.484a.02.02 0 0 1-.017.002z"/><path fill="#9b9b9a" d="M48.865 10.56s2.123 2.965-15.138 17.984 2.031 1.931 5.754-1.174 11.516-8.707 11.516-8.707 2.395-4.864-2.132-8.102M31.42 33.4s3.937 1.445 1.553 18.022l4.005-9.637s.804-8.758-5.557-8.385"/><path fill="#9b9b9a" d="M32.973 28.927v4.097L34.424 33l.418-3.653-1.869-.42z"/><g fill="none" stroke="#000" stroke-width="2"><path stroke-miterlimit="10" d="M31.12 27.744a.796.796 0 0 1-.385-1.214l10.1-15.638a2.522 2.522 0 0 1 1.532-.986l3.948-.583a2.447 2.447 0 0 1 1.738.518l2.746 2.434a2.541 2.541 0 0 1 .748 1.663v3.773a2.092 2.092 0 0 1-.832 1.554L36.222 28.91a2.13 2.13 0 0 1-1.76.18zm2.843 23.678h-1.736a2.197 2.197 0 0 1-1.988-1.984l-1.812-14.312a1.73 1.73 0 0 1 1.748-1.991l2.572-.01a3.595 3.595 0 0 1 2.917 1.77l.159.309a9.198 9.198 0 0 1 .859 3.777l-.023.805a20.158 20.158 0 0 1-.586 3.928l-2.11 7.708"/><path stroke-linejoin="round" d="M35.542 56.977a1.874 1.874 0 0 0 1.078-1.344l.048-.335a2.466 2.466 0 0 0-.52-1.739l-1.226-1.387a2.535 2.535 0 0 0-1.662-.75h-1.05a2.736 2.736 0 0 0-1.7.715l-4.82 4.93a117.1 117.1 0 0 1-1.413 1.414l-.729.716a1.495 1.495 0 0 0-.365 1.513 1 1 0 0 0 1.283.458z"/><path stroke-miterlimit="10" d="M28.159 30.256a2.618 2.618 0 0 1 .726-1.65l.58-.55a1.702 1.702 0 0 1 1.655-.313l3.342 1.348a1.381 1.381 0 0 1 .808 1.366l-.202 1.668a1.166 1.166 0 0 1-1.12.997l-3.773.016a1.82 1.82 0 0 1-1.467-.88l-.082-.156a4.704 4.704 0 0 1-.468-1.846z"/></g></svg><svg viewBox="0 0 72 72" id="1F9E0" xmlns="http://www.w3.org/2000/svg"><path fill="#ea5a47" d="M16 35h9.875m0 0c3.417 0 4.75-2.917 4.75-6.167M16 45.5h3.75m15.55 0v-6.062m0 0c0-2.246 1.2-5.25 5.075-5.25m18.083.354h-8.583"/><path fill="#FFA7C0" d="M40.375 45.5S40.539 56 32.417 56H16c-7.208 0-7.667-10.5 0-10.5-7.208 0-7.667-10.5 0-10.5-8.167-7.25 1.875-13.563 6.5-8.688-4.799-6.625 5.375-10.312 8.875-5-.412-5.312 4.847-6.27 9.725-2.288l-.433.351c2.375-2.375 10.177-1.083 10.177 5.314l-2.219 1.623c6.865-6.864 14.208 4.188 8.5 8.23h1.333c4.75 0 5.292 10.958-1.333 10.958H29.292"/><path fill="#ea5a47" d="M40.667 19.375c-2.417 2.417-.283 3.178-4.271 7.167"/><g fill="none" stroke="#000" stroke-linecap="round" stroke-linejoin="round" stroke-miterlimit="10" stroke-width="2"><path d="M16 35h9.875m0 0c3.417 0 4.75-2.917 4.75-6.167M16 45.5h3.75m15.55 0v-6.062m0 0c0-2.246 1.2-5.25 5.075-5.25m18.083.354h-8.583"/><path d="M40.375 45.5S40.539 56 32.417 56H16c-7.208 0-7.667-10.5 0-10.5-7.208 0-7.667-10.5 0-10.5-8.167-7.25 1.875-13.563 6.5-8.688-4.799-6.625 5.375-10.312 8.875-5-.412-5.312 4.847-6.27 9.725-2.288l-.433.351c2.375-2.375 10.177-1.083 10.177 5.314l-2.219 1.623c6.865-6.864 14.208 4.188 8.5 8.23h1.333c4.75 0 5.292 10.958-1.333 10.958H29.292"/><path d="M40.667 19.375c-2.417 2.417-.283 3.178-4.271 7.167"/></g></svg><svg viewBox="0 0 72 72" id="1FAC0" xmlns="http://www.w3.org/2000/svg"><path fill="#EA5A47" d="m38.464 14.703.412 3.127.403.054 1.367-2.565 2.156.761c-.14 1.558-1.74 4.232 1.07 5.26-1.837.618-2.811 1.241-4.632-.016-1.048-.724-2.627.08-3.242.34-.754.32-1.636.659-1.484 1.935.042.347.382.683-.421 1.719-1.596 1.789-2.73 1.607-4.726 5.196-2.448-3.237-1.18-9.924 2.915-12.305l-.49-1.943 2.106-.92 1.65 2.595.93-3.238h1.986z"/><path fill="#D22F27" d="M37.9 51.32a22.857 22.857 0 0 0 2.06-12.01c-.373-3.598-.176-3.306.216-4.887 2.847 2.28 6.41 1.884 9.318 1.17a5.877 5.877 0 0 1 .744 4.458 27.05 27.05 0 0 1-7.305 14.576c-3.216 3.306-6.436 3.632-10.08.84-5.132-3.931-9.458-8.54-11.164-15.056-.928-3.542 1.94-9.104 5.354-10.403a2.085 2.085 0 0 1 2.324.505 15.856 15.856 0 0 1 4.04 6.237c.63 1.561 1.164 3.162 1.783 4.86-2.937-8.303-4.214-9.757-5.824-11.097 1.016-2.46 3.844-4.339 4.726-5.196a1.87 1.87 0 0 0 .495-1.377 1.592 1.592 0 0 1 1.079-2.135c1.358-.567 2.654-1.337 4.184-.076.794.387 1.713.43 2.54.116 2.193-.701 4.32-1.615 6.199-2.34l2.514 5.083c-1.536 1.066-3.425 2.29-5.215 3.646a32.724 32.724 0 0 0-3.94 3.417 7.678 7.678 0 0 0-2.103 6.904 20.346 20.346 0 0 1-1.725 12.14c-.091.2-.147.417-.22.625z"/><path fill="#EA5A47" d="M29.366 30.513c-2.992-2.58-6.465 3.032-7.41 5.755a7.833 7.833 0 0 1-.88-5.597c1.089-3.984 2.26-7.947 3.353-11.765h6.869a8.323 8.323 0 0 0-1.676 1.987 10.153 10.153 0 0 0-1.095 7.995 7.7 7.7 0 0 0 .84 1.625zm16.522-2.279a7.897 7.897 0 0 1 2.305 5.498c.001.407.112 2.133-.248 2.188a11.07 11.07 0 0 1-5.69-.314c-2.39-.88-2.096-1.784-1.037-3.09a26.693 26.693 0 0 1 4.67-4.282z"/><g fill="none" stroke="#000" stroke-linecap="round" stroke-linejoin="round" stroke-width="2"><path d="m38.464 14.703.412 3.127.403.054 1.367-2.565 2.156.761c-.14 1.558-1.74 4.232 1.07 5.26-1.837.618-2.811 1.241-4.632-.016-1.048-.724-2.627.08-3.242.34-.754.32-1.636.659-1.484 1.935.042.347.382.683-.421 1.719-1.596 1.789-2.73 1.607-4.726 5.196-2.448-3.237-1.18-9.924 2.915-12.305l-.49-1.943 2.106-.92 1.65 2.595.93-3.238h1.986z"/><path d="M37.9 51.32a22.857 22.857 0 0 0 2.06-12.01c-.373-3.598-.176-3.306.216-4.887 2.847 2.28 6.41 1.884 9.318 1.17a5.877 5.877 0 0 1 .744 4.458 27.05 27.05 0 0 1-7.305 14.576c-3.216 3.306-6.436 3.632-10.08.84-5.132-3.931-9.458-8.54-11.164-15.056-.928-3.542 1.94-9.104 5.354-10.403a2.085 2.085 0 0 1 2.324.505 15.856 15.856 0 0 1 4.04 6.237c.63 1.561 1.164 3.162 1.783 4.86-2.937-8.303-4.214-9.757-5.824-11.097 1.016-2.46 3.844-4.339 4.726-5.196a1.87 1.87 0 0 0 .495-1.377 1.592 1.592 0 0 1 1.079-2.135c1.358-.567 2.654-1.337 4.184-.076.794.387 1.713.43 2.54.116 2.193-.701 4.32-1.615 6.199-2.34l2.514 5.083c-1.536 1.066-3.425 2.29-5.215 3.646a32.724 32.724 0 0 0-3.94 3.417 7.678 7.678 0 0 0-2.103 6.904 20.346 20.346 0 0 1-1.725 12.14c-.091.2-.147.417-.22.625z"/><path d="M29.366 30.513c-2.992-2.58-6.465 3.032-7.41 5.755a7.833 7.833 0 0 1-.88-5.597c1.089-3.984 2.26-7.947 3.353-11.765h6.869a8.323 8.323 0 0 0-1.676 1.987 10.153 10.153 0 0 0-1.095 7.995 7.7 7.7 0 0 0 .84 1.625zm16.522-2.279a7.897 7.897 0 0 1 2.305 5.498c.001.407.112 2.133-.248 2.188a11.07 11.07 0 0 1-5.69-.314c-2.39-.88-2.096-1.784-1.037-3.09a26.693 26.693 0 0 1 4.67-4.282z"/></g></svg><svg viewBox="0 0 72 72" id="1FAC1" xmlns="http://www.w3.org/2000/svg"><path fill="#ea5a47" d="M32.24 32.645c-.16-.661-.27-1.294-.472-1.895a18.1 18.1 0 0 0-.924-2.357 3.204 3.204 0 0 0-4.43-1.628 9.748 9.748 0 0 0-2.647 1.683 26.67 26.67 0 0 0-5.973 7.645 21.851 21.851 0 0 0-2.231 5.582 14.915 14.915 0 0 0-.416 2.843c-.074 2.303-.073 4.608-.062 6.912a10.923 10.923 0 0 0 .487 3.405 3.235 3.235 0 0 0 3.14 2.455 1.635 1.635 0 0 1 .29.065h.152c.337-.04.676-.07 1.01-.122a15.89 15.89 0 0 0 6.629-2.851 15.632 15.632 0 0 0 4.808-5.14 9.095 9.095 0 0 0 1.241-4.747q-.092-3.889-.175-7.778a23.371 23.371 0 0 0-.426-4.072zm5.255-.319c.05-.224.089-.38.122-.536a11.836 11.836 0 0 1 1.278-3.632 3.228 3.228 0 0 1 2.653-1.841 4.326 4.326 0 0 1 2.22.553 14.593 14.593 0 0 1 4.247 3.511 29.367 29.367 0 0 1 5.124 8.203 16.216 16.216 0 0 1 1.432 6.624c-.012.528.039 1.058.061 1.588v4.861c-.025.198-.041.397-.078.592a23.776 23.776 0 0 1-.532 2.665 2.984 2.984 0 0 1-2.322 2.162 6.52 6.52 0 0 1-3.189-.163 17.333 17.333 0 0 1-10.115-7.276 8.913 8.913 0 0 1-1.55-5.152c.049-2.644.118-5.287.175-7.93a23.711 23.711 0 0 1 .474-4.229z"/><g fill="none" stroke="#000" stroke-linecap="round" stroke-linejoin="round" stroke-width="2"><path d="M32.24 32.645c-.16-.661-.27-1.294-.472-1.895a18.1 18.1 0 0 0-.924-2.357 3.204 3.204 0 0 0-4.43-1.628 9.748 9.748 0 0 0-2.647 1.683 26.67 26.67 0 0 0-5.973 7.645 21.851 21.851 0 0 0-2.231 5.582 14.915 14.915 0 0 0-.416 2.843c-.074 2.303-.073 4.608-.062 6.912a10.923 10.923 0 0 0 .487 3.405 3.235 3.235 0 0 0 3.14 2.455 1.635 1.635 0 0 1 .29.065h.152c.337-.04.676-.07 1.01-.122a15.89 15.89 0 0 0 6.629-2.851 15.632 15.632 0 0 0 4.808-5.14 9.095 9.095 0 0 0 1.241-4.747q-.092-3.889-.175-7.778a23.371 23.371 0 0 0-.426-4.072zm5.255-.319c.05-.224.089-.38.122-.536a11.836 11.836 0 0 1 1.278-3.632 3.228 3.228 0 0 1 2.653-1.841 4.326 4.326 0 0 1 2.22.553 14.593 14.593 0 0 1 4.247 3.511 29.367 29.367 0 0 1 5.124 8.203 16.216 16.216 0 0 1 1.432 6.624c-.012.528.039 1.058.061 1.588v4.861c-.025.198-.041.397-.078.592a23.776 23.776 0 0 1-.532 2.665 2.984 2.984 0 0 1-2.322 2.162 6.52 6.52 0 0 1-3.189-.163 17.333 17.333 0 0 1-10.115-7.276 8.913 8.913 0 0 1-1.55-5.152c.049-2.644.118-5.287.175-7.93a23.711 23.711 0 0 1 .474-4.229z"/><path d="M34.604 14.562v15.173a7.037 7.037 0 0 1-2.55 5.457 25.564 25.564 0 0 1-6.83 3.774s-4.39 1.839-6.053 8.358"/><path d="M25.091 45.129s-.436-4.92 1.08-6.552M21.3 36.82s1.966 2.145 6.039 1.236m7.265-23.494v15.173a7.038 7.038 0 0 0 2.55 5.457 25.566 25.566 0 0 0 6.83 3.774s4.391 1.839 6.054 8.358"/><path d="M44.117 45.129s.437-4.92-1.079-6.552m4.872-1.757s-1.967 2.145-6.04 1.236"/></g></svg></svg>