<?xml version="1.0" encoding="utf-8"?><svg viewBox="0 0 72 72" xmlns="http://www.w3.org/2000/svg" xmlns:xlink="http://www.w3.org/1999/xlink"><style>:root>svg{display:none}:root>svg:target{display:block}</style><svg viewBox="0 0 72 72" id="1F638" xmlns="http://www.w3.org/2000/svg"><path fill="#F4AA41" d="M58.666 48.832c-3.598 9.117-12.632 15.155-23.208 15.155-9.117 0-19.256-5.848-22.853-14.965l-.127-.312c-1.141-2.86-1.957-6.36-1.957-9.633l3.667-33.371 11.228 11.08a24.164 24.164 0 0 1 9.51-1.939h1.064c3.373 0 6.588.691 9.51 1.939l11.228-11.08 3.723 33.876a24.9 24.9 0 0 1-1.77 9.256"/><path fill="#E27022" d="M35.458 63.987c10.61.342 20.354-6.004 23.952-15.121l.11-.231c1.142-2.86 1.959-6.897 1.959-10.17l-4.75-32.76"/><path fill="#EA5A47" d="M25.6 48.524s7.8 4.16 10.4-3.12c2.6 7.28 10.805 3.07 10.805 3.07s-2.694 4.381-3.487 5.234c-4.018 4.314-9.401 4.053-13.672.116-.935-.862-4.046-5.3-4.046-5.3z"/><g fill="none" stroke="#000" stroke-linecap="round" stroke-linejoin="round" stroke-miterlimit="10" stroke-width="2"><path d="m62 54.128-9.36-5.2m5.2 10.4-9.36-5.2M13.292 48a23.845 23.845 0 0 1-1.732-8.952l3.64-32.76 10.98 10.715a23.858 23.858 0 0 1 9.3-1.875h1.04c3.299 0 6.442.668 9.3 1.875L56.8 6.288l3.64 32.76c0 3.164-.614 6.186-1.732 8.951M10 54.128l9.36-5.2m-5.2 10.4 9.36-5.2m8.117-8.662h8.321"/><path d="M25.398 48.586s7.8 4.16 10.4-3.12c2.6 7.28 10.804 3.07 10.804 3.07s-2.693 4.381-3.487 5.234c-4.017 4.313-9.4 4.053-13.672.116-.935-.862-4.046-5.3-4.046-5.3zM22.851 59.39A23.76 23.76 0 0 0 35.481 63h1.038a23.76 23.76 0 0 0 12.63-3.61m6.054-21.632c-3.114-4.151-9.342-4.151-11.418 0m-26.987 0c3.114-4.151 9.342-4.151 11.418 0"/></g></svg><svg viewBox="0 0 72 72" id="1F639" xmlns="http://www.w3.org/2000/svg"><path fill="#F4AA41" d="M58.65 48.875C55.06 57.974 46.044 64 35.49 64c-9.1 0-19.219-5.836-22.81-14.935l-.125-.312c-1.14-2.855-1.954-6.348-1.954-9.614l4.66-32.306L25.466 16.89a24.117 24.117 0 0 1 9.492-1.935h1.061c3.367 0 6.575.69 9.492 1.935L56.717 5.833l3.715 33.81a24.85 24.85 0 0 1-1.767 9.238"/><path fill="#E27022" d="M35.489 63.698c10.478.338 20.103-5.93 23.656-14.935l.11-.228c1.127-2.824 1.933-6.811 1.933-10.044L56.497 6.135"/><path fill="#92D3F5" d="M14.247 42.85c-1.85.156-5.588.725-7.663 2.801a3.407 3.407 0 0 0-1.008 2.429c0 .918.357 1.782 1.008 2.433 1.299 1.299 3.564 1.299 4.86 0 2.077-2.076 2.647-5.815 2.803-7.664zm43.509 0c.156 1.848.726 5.587 2.802 7.663 1.3 1.299 3.564 1.297 4.862 0a3.444 3.444 0 0 0 .002-4.862c-2.076-2.076-5.815-2.646-7.666-2.802z"/><path fill="#EA5A47" d="M25.099 49.036s7.785 4.152 10.38-3.114c2.594 7.266 10.783 3.064 10.783 3.064s-2.688 4.373-3.48 5.224c-4.01 4.305-9.383 4.046-13.645.116-.934-.86-4.038-5.29-4.038-5.29z"/><path fill="none" stroke="#000" stroke-linecap="round" stroke-linejoin="round" stroke-miterlimit="10" stroke-width="2" d="m61.95 54.177-9.342-5.19m5.19 10.38-9.342-5.19M11.74 37.938 15.241 6.43 26.2 17.126a23.811 23.811 0 0 1 9.282-1.872h1.038c3.292 0 6.43.667 9.282 1.872L56.76 6.43l3.522 31.697M22.852 59.39A23.76 23.76 0 0 0 35.482 63h1.038c4.637 0 8.967-1.322 12.63-3.61M9.013 54.177l9.342-5.19m-4.152 10.38 9.342-5.19"/><path fill="none" stroke="#000" stroke-linecap="round" stroke-linejoin="round" stroke-miterlimit="10" stroke-width="2" d="M55.203 37.938c-3.114-4.152-9.342-4.152-11.418 0m-26.987 0c3.114-4.152 9.342-4.152 11.418 0"/><path d="M9.014 53.548a5.478 5.478 0 0 1-3.898-1.616 5.48 5.48 0 0 1-1.616-3.9 5.47 5.47 0 0 1 1.616-3.897c3.43-3.43 9.952-3.469 10.228-3.469.573 0 1.038.465 1.038 1.038 0 .276-.039 6.798-3.47 10.228a5.472 5.472 0 0 1-3.898 1.616zM14.247 42.8c-1.85.156-5.588.726-7.663 2.802a3.407 3.407 0 0 0-1.008 2.428c0 .919.357 1.782 1.008 2.433 1.299 1.3 3.564 1.3 4.86 0 2.077-2.076 2.647-5.814 2.803-7.663zM62.99 53.548a5.48 5.48 0 0 1-3.9-1.616c-3.43-3.43-3.468-9.952-3.468-10.228 0-.574.464-1.038 1.038-1.038.275 0 6.8.039 10.23 3.469a5.52 5.52 0 0 1-.003 7.797 5.47 5.47 0 0 1-3.896 1.616zM57.757 42.8c.156 1.849.726 5.587 2.802 7.663 1.3 1.3 3.564 1.298 4.862 0a3.444 3.444 0 0 0 .002-4.861c-2.076-2.076-5.815-2.646-7.666-2.802z"/><path fill="none" stroke="#000" stroke-linecap="round" stroke-linejoin="round" stroke-miterlimit="10" stroke-width="2" d="M31.637 45.466h8.321m-14.56 3.12s7.8 4.16 10.4-3.12c2.6 7.28 10.804 3.07 10.804 3.07s-2.693 4.381-3.487 5.234c-4.017 4.313-9.4 4.053-13.672.116-.935-.862-4.046-5.3-4.046-5.3z"/></svg><svg viewBox="0 0 72 72" id="1F63A" xmlns="http://www.w3.org/2000/svg"><path fill="#F4AA41" d="M58.666 48.832c-3.598 9.117-12.632 15.155-23.208 15.155-9.117 0-19.256-5.848-22.853-14.965l-.127-.312c-1.141-2.86-1.957-6.36-1.957-9.633l3.667-33.371 11.228 11.08a24.164 24.164 0 0 1 9.51-1.939h1.064c3.373 0 6.588.691 9.51 1.939l11.228-11.08 3.723 33.876a24.9 24.9 0 0 1-1.77 9.256"/><path fill="#E27022" d="M35.458 63.987c10.61.342 20.354-6.004 23.952-15.121l.11-.231c1.142-2.86 1.959-6.897 1.959-10.17l-4.75-32.76"/><path fill="#FFF" d="M55.106 33.627s-9.276-9.276-13.252 6.625c10.602 7.952 13.252-6.625 13.252-6.625zm-38.212 0s9.276-9.276 13.252 6.625c-10.602 7.952-13.252-6.625-13.252-6.625z"/><path fill="#EA5A47" d="M25.6 48.524s7.8 4.16 10.4-3.12c2.6 7.28 10.805 3.07 10.805 3.07s-2.694 4.381-3.487 5.234c-4.018 4.314-9.401 4.053-13.672.116-.935-.862-4.046-5.3-4.046-5.3z"/><path fill="none" stroke="#000" stroke-linecap="round" stroke-linejoin="round" stroke-miterlimit="10" stroke-width="2" d="M55.106 33.69s-9.276-9.277-13.252 6.624c10.602 7.952 13.252-6.625 13.252-6.625zM62 54.128l-9.36-5.2m5.2 10.4-9.36-5.2"/><path fill="none" stroke="#000" stroke-linecap="round" stroke-linejoin="round" stroke-miterlimit="10" stroke-width="2" d="M13.292 48a23.845 23.845 0 0 1-1.732-8.952l3.64-32.76 10.98 10.715a23.858 23.858 0 0 1 9.3-1.875h1.04c3.299 0 6.442.668 9.3 1.875L56.8 6.288l3.64 32.76c0 3.164-.614 6.186-1.732 8.951"/><path fill="none" stroke="#000" stroke-linecap="round" stroke-linejoin="round" stroke-miterlimit="10" stroke-width="2" d="M16.894 33.69s9.276-9.277 13.252 6.624c-10.602 7.952-13.252-6.625-13.252-6.625zM10 54.128l9.36-5.2m-5.2 10.4 9.36-5.2"/><circle cx="23.52" cy="36.448" r="2.08"/><circle cx="48.48" cy="36.448" r="2.08"/><path fill="none" stroke="#000" stroke-linecap="round" stroke-linejoin="round" stroke-miterlimit="10" stroke-width="2" d="M31.637 45.466h8.321m-14.56 3.12s7.8 4.16 10.4-3.12c2.6 7.28 10.804 3.07 10.804 3.07s-2.693 4.381-3.487 5.234c-4.017 4.313-9.4 4.053-13.672.116-.935-.862-4.046-5.3-4.046-5.3zM22.851 59.39A23.76 23.76 0 0 0 35.481 63h1.038a23.76 23.76 0 0 0 12.63-3.61"/></svg><svg viewBox="0 0 72 72" id="1F63B" xmlns="http://www.w3.org/2000/svg"><path fill="#F4AA41" d="M58.628 48.844c-3.595 9.11-12.621 15.143-23.19 15.143-9.11 0-19.24-5.843-22.835-14.953l-.127-.313c-1.14-2.857-.955-6.355-.955-9.625l3.664-32.345 10.22 10.07a24.145 24.145 0 0 1 9.502-1.936h1.063c3.37 0 6.583.69 9.503 1.937L56.693 5.75l3.72 33.85c0 3.27-.629 6.392-1.77 9.25"/><path fill="#E27022" d="M35.439 63.987c10.6.342 20.338-6 23.933-15.11l.111-.23c1.14-2.858 1.956-6.892 1.956-10.162L56.693 5.75"/><path fill="#D22F27" d="M23.882 31.304c-1.364-3.616-6.944-3.848-6.594 1.42.046.7.303 1.372.691 1.955l5.733 6.924 5.63-6.755c.624-.75.994-1.701.975-2.68-.093-4.691-5.445-4.35-6.606-.866"/><path fill="#EA5A47" d="M25.386 48.639s7.794 4.156 10.392-3.118c2.598 7.274 10.797 3.068 10.797 3.068s-2.692 4.377-3.485 5.23c-4.014 4.31-9.394 4.05-13.661.116-.935-.861-4.043-5.296-4.043-5.296z"/><path fill="#D22F27" d="M48.604 31.304c-1.364-3.616-6.943-3.848-6.594 1.42.047.7.303 1.372.692 1.955l5.733 6.924 5.629-6.755c.624-.75.994-1.701.975-2.68-.093-4.691-5.445-4.35-6.606-.866"/><g fill="none" stroke="#000" stroke-linecap="round" stroke-linejoin="round" stroke-miterlimit="10" stroke-width="2"><path d="m62.019 54.059-9.47-4.981m5.254 10.285-9.352-5.196M13.29 48.043a23.828 23.828 0 0 1-1.731-8.945l3.637-32.735 10.97 10.707a23.849 23.849 0 0 1 9.294-1.874h1.04c3.296 0 6.437.668 9.294 1.874l10.97-10.707 3.637 32.735c0 3.162-.614 6.182-1.73 8.945M22.816 59.385A23.786 23.786 0 0 0 35.46 63h1.04c4.643 0 8.977-1.323 12.645-3.615M10 54.167l9.353-5.196m-5.196 10.392 9.353-5.196"/><path d="M23.882 31.397c-1.364-3.616-6.944-3.847-6.594 1.42.046.7.303 1.372.691 1.956l5.733 6.923h0l5.63-6.755c.624-.75.994-1.701.975-2.68-.093-4.691-5.445-4.35-6.606-.866m24.893.002c-1.364-3.616-6.943-3.847-6.594 1.42.047.7.303 1.372.692 1.956l5.733 6.923h0l5.629-6.755c.624-.75.994-1.701.975-2.68-.093-4.691-5.445-4.35-6.606-.866M31.637 45.466h8.321m-14.56 3.12s7.8 4.16 10.4-3.12c2.6 7.28 10.804 3.07 10.804 3.07s-2.693 4.381-3.487 5.234c-4.017 4.313-9.4 4.053-13.672.116-.935-.862-4.046-5.3-4.046-5.3z"/></g></svg><svg viewBox="0 0 72 72" id="1F63C" xmlns="http://www.w3.org/2000/svg"><path fill="#F4AA41" d="M58.666 48.945c-3.598 9.117-12.632 15.042-23.208 15.042-9.117 0-19.256-5.735-22.853-14.851l-.127-.313c-1.141-2.86-.957-6.36-.957-9.633l3.667-32.37L25.416 16.9a24.164 24.164 0 0 1 9.51-1.94h1.064c3.373 0 6.588.691 9.51 1.94L56.728 5.82l3.723 33.875a24.9 24.9 0 0 1-1.77 9.257"/><path fill="#E27022" d="M35.458 63.987c10.61.342 20.354-5.89 23.952-15.008l.11-.23c1.142-2.86.959-6.897.959-10.17l-3.75-31.76"/><path fill="#EA5A47" d="M33.43 53.78c4.276 2.801 9.57-.534 10.33-3.683l1.083-.96s-4.713 3.604-7.967-1.05c.215 4.007-1.562 5.151-3.376 5.74"/><path fill="#FFF" d="M55.106 33.74S41.2 39.62 41.854 40.367c13.306 12.103 14.35-4.94 13.252-6.625zm-38.212 0s12.866 6.92 13.252 6.626c-12.845 12.737-14.549-3.86-13.252-6.625z"/><path fill="none" stroke="#000" stroke-linecap="round" stroke-linejoin="round" stroke-miterlimit="10" stroke-width="2" d="M34 46.88h6.16m-6.73 6.88c4.276 2.802 9.57-.533 10.33-3.682l1.083-.96s-4.713 3.604-7.967-1.05c.215 4.007-1.562 5.151-3.376 5.74m21.606-20.086S41.2 39.6 41.854 40.347c13.306 12.103 14.35-4.94 13.252-6.625zM62 54.16l-9.36-5.2m5.2 10.4-9.36-5.2"/><path fill="none" stroke="#000" stroke-linecap="round" stroke-linejoin="round" stroke-miterlimit="10" stroke-width="2" d="M13.292 48.032a23.845 23.845 0 0 1-1.732-8.952L15.2 6.32l10.98 10.715a23.858 23.858 0 0 1 9.3-1.875h1.04c3.299 0 6.441.668 9.301 1.875L56.8 6.32l3.64 32.76c0 3.165-.614 6.186-1.732 8.952m-35.883 11.35A23.806 23.806 0 0 0 35.48 63h1.04c4.646 0 8.984-1.324 12.655-3.618"/><path fill="none" stroke="#000" stroke-linecap="round" stroke-linejoin="round" stroke-miterlimit="10" stroke-width="2" d="M16.894 33.722s12.866 6.918 13.252 6.625c-12.845 12.737-14.549-3.86-13.252-6.625zM10 54.16l9.36-5.2m-5.2 10.4 9.36-5.2"/><circle cx="23.52" cy="38.56" r="2.08"/><circle cx="48.48" cy="38.56" r="2.08"/></svg><svg viewBox="0 0 72 72" id="1F63D" xmlns="http://www.w3.org/2000/svg"><path fill="#F4AA41" d="M58.666 48.832c-3.598 9.117-12.632 15.155-23.208 15.155-9.117 0-19.256-5.848-22.853-14.965l-.126-.312c-1.142-2.86-.958-6.36-.958-9.633l3.667-32.371 10.228 10.08a24.164 24.164 0 0 1 9.51-1.939h1.064c3.373 0 6.588.691 9.51 1.939l11.228-11.08 3.723 33.876a24.9 24.9 0 0 1-1.77 9.256"/><path fill="#E27022" d="M35.458 63.987c10.61.342 20.354-6.004 23.952-15.121l.11-.231c1.142-2.86.959-6.896.959-10.169l-3.75-32.76"/><g fill="none" stroke="#000" stroke-linecap="round" stroke-linejoin="round" stroke-miterlimit="10" stroke-width="2"><path d="m62 54.16-9.36-5.2m5.2 10.4-9.36-5.2m-35.188-6.128a23.845 23.845 0 0 1-1.732-8.952L15.2 6.32l10.98 10.715a23.858 23.858 0 0 1 9.3-1.875h1.04c3.299 0 6.442.668 9.3 1.875L56.8 6.32l3.64 32.76c0 3.165-.614 6.186-1.732 8.952m-35.883 11.35A23.806 23.806 0 0 0 35.48 63h1.04c4.646 0 8.985-1.324 12.655-3.618M10 54.16l9.36-5.2m-5.2 10.4 9.36-5.2"/><path d="M55.24 38.93c-3.12-4.16-9.36-4.16-11.44 0m-27.04 0c3.12-4.16 9.36-4.16 11.44 0m7.448 8.754s10.945 3.323 0 5.786c0 0 10.876 3.108 0 5.109"/></g></svg><svg viewBox="0 0 72 72" id="1F63E" xmlns="http://www.w3.org/2000/svg"><path fill="#F4AA41" d="M58.666 48.974c-3.598 9.117-12.632 15.013-23.208 15.013-9.117 0-19.256-5.706-22.853-14.823l-.126-.313c-1.142-2.86-.958-6.36-.958-9.632l3.667-32.372 10.228 10.08a24.164 24.164 0 0 1 9.51-1.939h1.064c3.373 0 6.588.692 9.51 1.94l11.228-11.08 3.723 33.875a24.9 24.9 0 0 1-1.77 9.257"/><path fill="#E27022" d="M35.458 63.986c10.61.343 20.354-5.862 23.952-14.979l.11-.23c1.142-2.86.959-6.897.959-10.17l-3.75-32.76"/><path fill="#FFF" d="M55.106 33.769S41.2 39.647 41.854 40.394c13.306 12.103 14.35-4.94 13.252-6.625zm-38.212 0s12.866 6.918 13.252 6.625c-12.845 12.738-14.549-3.86-13.252-6.625z"/><path fill="none" stroke="#000" stroke-linecap="round" stroke-linejoin="round" stroke-miterlimit="10" stroke-width="2" d="M40.16 52.08 36 46.88m-4.16 5.2 4.16-5.2m-4.16 0h8.32m14.946-13.158S41.2 39.6 41.854 40.347c13.306 12.103 14.35-4.94 13.252-6.625zM62 54.16l-9.36-5.2m5.2 10.4-9.36-5.2"/><path fill="none" stroke="#000" stroke-linecap="round" stroke-linejoin="round" stroke-miterlimit="10" stroke-width="2" d="M13.292 48.032a23.845 23.845 0 0 1-1.732-8.952L15.2 6.32l10.98 10.715a23.858 23.858 0 0 1 9.3-1.875h1.04c3.299 0 6.441.668 9.301 1.875L56.8 6.32l3.64 32.76c0 3.165-.614 6.186-1.732 8.952m-35.883 11.35A23.806 23.806 0 0 0 35.48 63h1.04c4.646 0 8.984-1.324 12.655-3.618"/><path fill="none" stroke="#000" stroke-linecap="round" stroke-linejoin="round" stroke-miterlimit="10" stroke-width="2" d="M16.894 33.722s12.866 6.918 13.252 6.625c-12.845 12.737-14.549-3.86-13.252-6.625zM10 54.16l9.36-5.2m-5.2 10.4 9.36-5.2"/><circle cx="23.52" cy="38.56" r="2.08"/><circle cx="48.48" cy="38.56" r="2.08"/></svg><svg viewBox="0 0 72 72" id="1F63F" xmlns="http://www.w3.org/2000/svg"><path fill="#F4AA41" d="M58.666 48.832c-3.598 9.117-12.632 15.155-23.208 15.155-9.117 0-19.256-5.848-22.853-14.965l-.126-.312c-1.142-2.86-.958-6.36-.958-9.633l3.667-32.371 10.228 10.08a24.164 24.164 0 0 1 9.51-1.939h1.064c3.373 0 6.588.691 9.51 1.939l11.228-11.08 3.723 33.876a24.9 24.9 0 0 1-1.77 9.256"/><path fill="#E27022" d="M35.458 63.987c10.61.342 20.354-6.004 23.952-15.121l.11-.231c1.142-2.86.959-6.896.959-10.169l-3.75-32.76"/><path fill="#FFF" d="M55.106 33.527s-9.276-9.277-13.252 6.625c10.602 7.951 13.252-6.625 13.252-6.625zm-38.212 0s9.276-9.277 13.252 6.625c-10.602 7.951-13.252-6.625-13.252-6.625z"/><path fill="#92D3F5" d="M20.92 48.194c-1.2 1.42-3.444 4.473-3.444 7.414a3.414 3.414 0 0 0 1.007 2.435c.65.65 1.515 1.01 2.437 1.01 1.841 0 3.446-1.605 3.444-3.445 0-2.941-2.245-5.993-3.444-7.414z"/><path fill="none" stroke="#000" stroke-linecap="round" stroke-linejoin="round" stroke-miterlimit="10" stroke-width="2" d="M55.106 33.485s-9.276-9.277-13.252 6.625c10.602 7.951 13.252-6.625 13.252-6.625zM62 53.923l-9.36-5.199m5.2 10.399-9.36-5.2"/><path fill="none" stroke="#000" stroke-linecap="round" stroke-linejoin="round" stroke-miterlimit="10" stroke-width="2" d="M13.292 47.795a23.845 23.845 0 0 1-1.732-8.952l3.64-32.76 10.98 10.715a23.858 23.858 0 0 1 9.3-1.874h1.04c3.299 0 6.442.668 9.3 1.874L56.8 6.084l3.64 32.76c0 3.164-.614 6.186-1.732 8.951m-31.704 13.66A23.867 23.867 0 0 0 35.48 63h1.04c4.647 0 8.985-1.324 12.655-3.618"/><path fill="none" stroke="#000" stroke-linecap="round" stroke-linejoin="round" stroke-miterlimit="10" stroke-width="2" d="M16.894 33.485s9.276-9.277 13.252 6.625c-10.602 7.951-13.252-6.625-13.252-6.625zM10 53.923l8.72-4.844m-2.71 9.012-1.85 1.03"/><circle cx="23.52" cy="36.243" r="2.08"/><circle cx="48.48" cy="36.243" r="2.08"/><path d="M24.827 59.473a5.489 5.489 0 0 1-3.907 1.617 5.49 5.49 0 0 1-3.908-1.618 5.48 5.48 0 0 1-1.616-3.906c0-4.86 4.593-9.508 4.789-9.703a1.04 1.04 0 0 1 1.47 0c.196.195 4.79 4.843 4.789 9.703a5.481 5.481 0 0 1-1.617 3.907zM20.92 48.152c-1.2 1.42-3.444 4.473-3.444 7.414a3.414 3.414 0 0 0 1.007 2.435c.65.65 1.515 1.01 2.437 1.01 1.841 0 3.446-1.605 3.444-3.445 0-2.941-2.245-5.993-3.444-7.414z"/><path fill="none" stroke="#000" stroke-linecap="round" stroke-linejoin="round" stroke-miterlimit="10" stroke-width="2" d="M40.16 52.08 36 46.88m-4.16 5.2 4.16-5.2m-4.16 0h8.32"/></svg><svg viewBox="0 0 72 72" id="1F640" xmlns="http://www.w3.org/2000/svg"><path fill="#F4AA41" d="M58.363 49.283c-3.55 8.995-12.463 14.81-22.898 14.81-8.995 0-18.998-5.628-22.548-14.623l-.124-.308c-1.127-2.822-.931-6.275-.931-9.504l3.617-31.925 10.079 9.932a23.842 23.842 0 0 1 9.383-1.913h1.05c3.327 0 6.499.681 9.382 1.913L56.452 6.733l3.672 33.423c0 3.229-.62 6.312-1.747 9.133"/><path fill="#E27022" d="M35.465 64.093c10.468.338 20.083-5.782 23.632-14.777l.11-.228c1.126-2.821.931-6.804.931-10.033L56.452 6.733"/><ellipse cx="36" cy="51.719" fill="#EA5A47" rx="6.452" ry="7.751"/><ellipse cx="24.456" cy="34.194" fill="#FFF" rx="7.751" ry="6.452" transform="rotate(-70.494 24.456 34.194)"/><ellipse cx="46.84" cy="34.195" fill="#FFF" rx="6.452" ry="7.751" transform="rotate(-19.507 46.839 34.196)"/><path fill="#F4AA41" d="M15.295 65h9.034s1.374-13.369 0-15.81c-.998-1.774-2.547-5.271-6.852-5.138-1.558.048-6.011 1.347-4.71 5.251 1.813 5.44 3.422 4.505 4.293 6.178C18.204 57.68 15.295 65 15.295 65zm41.029 0H47.29s-1.374-13.369 0-15.81c.998-1.774 2.548-5.271 6.853-5.138 1.557.048 6.01 1.347 4.71 5.251-1.814 5.44-3.423 4.505-4.294 6.178C53.415 57.68 56.324 65 56.324 65z"/><g fill="none" stroke="#000" stroke-linecap="round" stroke-linejoin="round" stroke-miterlimit="10" stroke-width="2"><path d="m61.65 54.45-4.04-2.25m-.06 7.38-3.21-1.78M12.92 46.48s-.01-.01 0-.01c-.67-2.19-1.03-4.5-1.03-6.9l3.59-32.32 10.83 10.57a23.55 23.55 0 0 1 9.18-1.85h1.02c3.26 0 6.36.66 9.18 1.85L56.52 7.25l3.59 32.32c0 2.59-.41 5.07-1.19 7.4M24.7 60.56c3.23 1.67 6.9 2.61 10.79 2.61h1.02c3.75 0 7.28-.87 10.43-2.42M14.1 52.36l-3.75 2.09m6.9 3.57-2.8 1.56"/><ellipse cx="36" cy="51.719" rx="6.452" ry="7.751"/><ellipse cx="24.456" cy="34.194" rx="7.751" ry="6.452" transform="rotate(-70.494 24.456 34.194)"/><ellipse cx="46.84" cy="34.195" rx="6.452" ry="7.751" transform="rotate(-19.507 46.839 34.196)"/><path d="M15.295 65h9.034s1.374-13.369 0-15.81c-.998-1.774-2.547-5.271-6.852-5.138-1.558.048-6.011 1.347-4.71 5.251 1.813 5.44 3.422 4.505 4.293 6.178C18.204 57.68 15.295 65 15.295 65zm41.029 0H47.29s-1.374-13.369 0-15.81c.998-1.774 2.548-5.271 6.853-5.138 1.557.048 6.01 1.347 4.71 5.251-1.814 5.44-3.423 4.505-4.294 6.178C53.415 57.68 56.324 65 56.324 65z"/></g></svg></svg>