<?xml version="1.0" encoding="utf-8"?><svg viewBox="0 0 72 72" xmlns="http://www.w3.org/2000/svg" xmlns:xlink="http://www.w3.org/1999/xlink"><style>:root>svg{display:none}:root>svg:target{display:block}</style><svg viewBox="0 0 72 72" id="1F4BB" xmlns="http://www.w3.org/2000/svg"><path fill="#9B9B9A" d="M63.738 40.98v27.066H11.812V35.96h51.926zm-1.113-5.022h-50V3.891h50z"/><path fill="#FFF" d="m62.625 36-50-22.221V3.892l50 22.22z"/><g fill="none" stroke="#000" stroke-linecap="round" stroke-linejoin="round" stroke-miterlimit="10" stroke-width="2"><path d="M62.625 40.98v27.066h-50V40.98m50-5.022h-50V3.891h50zm-45 5.57h40m-40 5.569h40m-40 5.569h40"/><path d="M30.717 56.186h13.506v8.104H30.717zm31.908-20.228h-50V3.891h50z"/></g></svg><svg viewBox="0 0 72 72" id="1F4BD" xmlns="http://www.w3.org/2000/svg"><path fill="#3F3F3F" d="M11 10.958h50v50H11z"/><path fill="#D0CFCE" d="M52.55 47.117c-3.587 5.31-9.66 8.8-16.55 8.8-11.023 0-19.958-8.936-19.958-19.959S24.977 16 36 16c6.857 0 12.906 3.458 16.5 8.725"/><circle cx="35.927" cy="35.887" r="19.958" fill="#D0CFCE"/><path fill="#D0CFCE" d="M17.513 26.386c3.078-5.938 8.954-10.29 16.097-11.121 11.43-1.331 21.773 6.855 23.103 18.284 1.33 11.43-6.856 21.773-18.284 23.103-7.11.828-13.8-2.027-18.16-7.055"/><path fill="#D0CFCE" d="M52.55 47.046c-3.587 5.309-9.66 8.8-16.55 8.8-11.023 0-19.958-8.936-19.958-19.96S24.977 15.93 36 15.93c6.857 0 12.906 3.457 16.5 8.724"/><circle cx="36" cy="35.958" r="5" fill="#3F3F3F"/><path fill="#D0CFCE" d="M44 36.5v5.475l17 2.458V28.5l-17 2.458v5.475"/><g fill="none" stroke="#000" stroke-linecap="round" stroke-linejoin="round" stroke-miterlimit="10" stroke-width="2"><path d="M11 10.958h50v50H11z"/><path d="M52.55 47.117c-3.587 5.31-9.66 8.8-16.55 8.8-11.023 0-19.958-8.936-19.958-19.959S24.977 16 36 16c6.857 0 12.906 3.458 16.5 8.725"/><path d="M52.55 47.046c-3.587 5.309-9.66 8.8-16.55 8.8-11.023 0-19.958-8.936-19.958-19.96S24.977 15.93 36 15.93c6.857 0 12.906 3.457 16.5 8.724"/><circle cx="36" cy="35.958" r="5"/><path d="M44 36.5v5.475l17 2.458V28.5l-17 2.458v5.475"/></g></svg><svg viewBox="0 0 72 72" id="1F4BE" xmlns="http://www.w3.org/2000/svg"><g stroke-linecap="round" stroke-linejoin="round" stroke-miterlimit="10" stroke-width="2"><path fill="#3F3F3F" d="M11.136 11h50v50h-50z"/><path fill="#D0CFCE" d="M56.136 60V35.162h-40V60"/><path fill="#9B9B9A" d="M16.136 12v17.607h30.913V12"/><path fill="#61B2E4" d="M19.956 38.96h32.031v5.771H19.956z"/></g><g fill="none" stroke="#000" stroke-linecap="round" stroke-linejoin="round" stroke-miterlimit="10" stroke-width="2"><path d="M11.136 11h50v50h-50z"/><path d="M56.136 60V35.162h-40V60m0-48v17.607h30.913V12"/><path d="M19.956 38.96h32.031v5.771H19.956z"/></g></svg><svg viewBox="0 0 72 72" id="1F4BF" xmlns="http://www.w3.org/2000/svg"><path fill="#FFF" d="M37 6.96c-.08 0-.17 0-.25.01-5.46.04-10.56 1.59-14.9 4.25a28.976 28.976 0 0 0-11.76 13.94A28.693 28.693 0 0 0 8 35.96c0 15.93 12.84 28.86 28.75 28.99.02.01.03.01.04 0 .07.01.14.01.21.01 16.02 0 29-12.99 29-29 0-16.02-12.98-29-29-29zm4.5 29c0 2.76-2.24 5-5 5s-5-2.24-5-5 2.24-5 5-5 5 2.24 5 5z"/><path fill="#D0CFCE" d="M9.72 24.838a28.835 28.835 0 0 0-2.22 11.12c0 15.991 13.009 29.001 29 29.001 5.288 0 10.245-1.43 14.519-3.912L9.72 24.837zm53.416 22.577A28.833 28.833 0 0 0 65.5 35.958c0-15.99-13.009-29-29-29a28.82 28.82 0 0 0-14.837 4.095l41.473 36.362z"/><g fill="none" stroke="#000" stroke-miterlimit="10"><path d="M37 6.96c-.08 0-.17 0-.25.01-5.46.04-10.56 1.59-14.9 4.25a28.976 28.976 0 0 0-11.76 13.94A28.693 28.693 0 0 0 8 35.96c0 15.93 12.84 28.86 28.75 28.99.02.01.03.01.04 0 .07.01.14.01.21.01 16.02 0 29-12.99 29-29 0-16.02-12.98-29-29-29zm4.5 29c0 2.76-2.24 5-5 5s-5-2.24-5-5 2.24-5 5-5 5 2.24 5 5z"/><path stroke-linecap="round" stroke-linejoin="round" stroke-width="2" d="M64.59 28.71c-.24-.92-.52-1.83-.85-2.71-.32-.89-.69-1.77-1.1-2.61A29.09 29.09 0 0 0 49.07 9.82c-.84-.41-1.72-.78-2.61-1.1-.88-.33-1.79-.61-2.71-.85-2.24-.57-4.58-.89-7-.9-.08-.01-.17-.01-.25-.01-.44 0-.88.01-1.32.04-.11-.01-.22 0-.32.01-.32.01-.64.04-.95.07-.14.01-.28.02-.42.04-.33.03-.65.07-.98.12-.33.04-.65.09-.98.15-.64.11-1.28.24-1.91.4-.3.07-.6.15-.9.23-.03 0-.07.01-.1.03-.6.16-1.2.35-1.78.57-.27.09-.54.19-.81.3a.56.56 0 0 0-.2.08c-.56.2-1.11.44-1.65.71-.29.14-.57.28-.85.42-.57.29-1.13.6-1.67.92l.017.015c-5.333 3.17-9.561 7.985-11.957 13.775-.18.43-.35.86-.51 1.3-.32.87-.6 1.77-.82 2.68-.15.56-.27 1.12-.37 1.69-.17.83-.29 1.68-.37 2.53-.1.96-.15 1.94-.15 2.92 0 2.5.32 4.93.91 7.24.24.93.52 1.83.85 2.72A28.804 28.804 0 0 0 16 56.46c.99 1 2.04 1.91 3.16 2.73.74.57 1.51 1.09 2.3 1.57h.01c.79.49 1.61.93 2.46 1.34 3.8 1.83 8.06 2.86 12.57 2.86.08 0 .17 0 .25-.01.02.01.03.01.04 0 .33.01.65 0 .97-.02.15 0 .31-.01.47-.03.32-.01.63-.03.94-.07.47-.03.93-.09 1.39-.16.26-.03.53-.07.79-.12.63-.1 1.25-.23 1.87-.38.28-.06.56-.13.84-.21.66-.17 1.31-.37 1.95-.61.28-.09.55-.19.81-.29.59-.21 1.16-.46 1.73-.73.28-.13.56-.26.84-.4.55-.28 1.09-.57 1.63-.88l-.013-.011c5.37-3.1 9.668-7.87 12.133-13.619.01-.01.01-.01.01-.02a27.763 27.763 0 0 0 1.4-4.08c.1-.38.19-.77.28-1.16.13-.56.23-1.13.32-1.71.08-.49.14-.98.19-1.48.04-.36.07-.73.09-1.1.05-.63.07-1.27.07-1.91 0-2.5-.32-4.93-.91-7.25zM31.5 35.96c0-2.76 2.24-5 5-5s5 2.24 5 5-2.24 5-5 5-5-2.24-5-5z"/></g></svg><svg viewBox="0 0 72 72" id="1F4C0" xmlns="http://www.w3.org/2000/svg"><path fill="#FFF" d="M64.59 28.71c-.24-.92-.52-1.83-.85-2.71-.32-.89-.69-1.77-1.1-2.61A29.09 29.09 0 0 0 49.07 9.82c-.84-.41-1.72-.78-2.61-1.1-.88-.33-1.79-.61-2.71-.85a29.39 29.39 0 0 0-7.25-.91c-.44 0-.88.01-1.32.04-.11-.01-.22 0-.32.01-.32.01-.64.04-.95.07-.14.01-.28.02-.42.04-.33.03-.65.07-.98.12-.33.04-.65.09-.98.15-.64.11-1.28.24-1.91.4-.3.07-.6.15-.9.23-.03 0-.07.01-.1.03-.6.16-1.2.35-1.78.57-.27.09-.54.19-.81.3a.56.56 0 0 0-.2.08c-.56.2-1.11.44-1.65.71-.29.14-.57.28-.85.42-.57.29-1.13.6-1.67.92l.017.015c-5.333 3.17-9.561 7.985-11.957 13.775-.18.43-.35.86-.51 1.3-.32.87-.6 1.77-.82 2.68-.15.56-.27 1.12-.37 1.69-.17.83-.29 1.68-.37 2.53-.1.96-.15 1.94-.15 2.92 0 2.5.32 4.93.91 7.24.24.93.52 1.83.85 2.72A28.804 28.804 0 0 0 16 56.46c.99 1 2.04 1.91 3.16 2.73.74.57 1.51 1.09 2.3 1.57h.01c.79.49 1.61.93 2.46 1.34a28.882 28.882 0 0 0 13.83 2.83c.15 0 .31-.01.47-.03.32-.01.63-.03.94-.07.47-.03.93-.09 1.39-.16.26-.03.53-.07.79-.12.63-.1 1.25-.23 1.87-.38.28-.06.56-.13.84-.21.66-.17 1.31-.37 1.95-.61.28-.09.55-.19.81-.29.59-.21 1.16-.46 1.73-.73.28-.13.56-.26.84-.4.55-.28 1.09-.57 1.63-.88l-.013-.011c5.37-3.1 9.668-7.87 12.133-13.619.01-.01.01-.01.01-.02a27.763 27.763 0 0 0 1.4-4.08c.1-.38.19-.77.28-1.16.13-.56.23-1.13.32-1.71.08-.49.14-.98.19-1.48.04-.36.07-.73.09-1.1.05-.63.07-1.27.07-1.91 0-2.5-.32-4.93-.91-7.25zM41.5 35.96c0 2.76-2.24 5-5 5s-5-2.24-5-5 2.24-5 5-5 5 2.24 5 5z"/><path fill="#FCEA2B" d="M9.72 24.838a28.835 28.835 0 0 0-2.22 11.12c0 15.991 13.009 29.001 29 29.001 5.288 0 10.245-1.43 14.519-3.912L9.72 24.837zm53.416 22.577A28.833 28.833 0 0 0 65.5 35.958c0-15.99-13.009-29-29-29a28.82 28.82 0 0 0-14.837 4.095l41.473 36.362z"/><path fill="none" stroke="#000" stroke-linecap="round" stroke-linejoin="round" stroke-miterlimit="10" stroke-width="2" d="M64.59 28.71c-.24-.92-.52-1.83-.85-2.71-.32-.89-.69-1.77-1.1-2.61A29.09 29.09 0 0 0 49.07 9.82c-.84-.41-1.72-.78-2.61-1.1-.88-.33-1.79-.61-2.71-.85a29.39 29.39 0 0 0-7.25-.91c-.44 0-.88.01-1.32.04-.11-.01-.22 0-.32.01-.32.01-.64.04-.95.07-.14.01-.28.02-.42.04-.33.03-.65.07-.98.12-.33.04-.65.09-.98.15-.64.11-1.28.24-1.91.4-.3.07-.6.15-.9.23-.03 0-.07.01-.1.03-.6.16-1.2.35-1.78.57-.27.09-.54.19-.81.3a.56.56 0 0 0-.2.08c-.56.2-1.11.44-1.65.71-.29.14-.57.28-.85.42-.57.29-1.13.6-1.67.92l.017.015c-5.333 3.17-9.561 7.985-11.957 13.775-.18.43-.35.86-.51 1.3-.32.87-.6 1.77-.82 2.68-.15.56-.27 1.12-.37 1.69-.17.83-.29 1.68-.37 2.53-.1.96-.15 1.94-.15 2.92 0 2.5.32 4.93.91 7.24.24.93.52 1.83.85 2.72A28.804 28.804 0 0 0 16 56.46c.99 1 2.04 1.91 3.16 2.73.74.57 1.51 1.09 2.3 1.57h.01c.79.49 1.61.93 2.46 1.34a28.882 28.882 0 0 0 13.83 2.83c.15 0 .31-.01.47-.03.32-.01.63-.03.94-.07.47-.03.93-.09 1.39-.16.26-.03.53-.07.79-.12.63-.1 1.25-.23 1.87-.38.28-.06.56-.13.84-.21.66-.17 1.31-.37 1.95-.61.28-.09.55-.19.81-.29.59-.21 1.16-.46 1.73-.73.28-.13.56-.26.84-.4.55-.28 1.09-.57 1.63-.88l-.013-.011c5.37-3.1 9.668-7.87 12.133-13.619.01-.01.01-.01.01-.02a27.763 27.763 0 0 0 1.4-4.08c.1-.38.19-.77.28-1.16.13-.56.23-1.13.32-1.71.08-.49.14-.98.19-1.48.04-.36.07-.73.09-1.1.05-.63.07-1.27.07-1.91 0-2.5-.32-4.93-.91-7.25zM41.5 35.96c0 2.76-2.24 5-5 5s-5-2.24-5-5 2.24-5 5-5 5 2.24 5 5z"/></svg><svg viewBox="0 0 72 72" id="1F50B" xmlns="http://www.w3.org/2000/svg"><path fill="#d0cfce" d="M59.971 42.798a1 1 0 0 1 1-1h4.143v-9.183h-4.143a1 1 0 0 1-1-1m0 0v-7.158H6.662V49.47h53.309v-6.671"/><path fill="#d0cfce" d="M61.083 32.349a1 1 0 0 1-1-1v-7.16H6.773v25.014h53.313V42.53a1 1 0 0 1 1-1h4.143v-9.18h-4.146z"/><path fill="#b1cc33" d="M12.002 45.367h32.239V28.36H12.002v17.007z"/><g fill="none" stroke="#000" stroke-linecap="round" stroke-linejoin="round" stroke-width="2"><path d="M61.081 31.348v-7.16a1 1 0 0 0-1-1H6.772a1 1 0 0 0-1 1v25.017a1 1 0 0 0 1 1h53.313a1 1 0 0 0 1-1V42.53h5.143V31.347h-5.147z"/><path d="M11 27.36h34.239v19.007H11z"/></g></svg><svg viewBox="0 0 72 72" id="1F50C" xmlns="http://www.w3.org/2000/svg"><path fill="#9b9b9a" d="M30.644 51.106a1 1 0 0 1 1.224.708l1.455 5.45h8.387l1.455-5.427a1 1 0 0 1 1.225-.707"/><path fill="#3F3F3F" d="M33.013 24.105a1 1 0 0 1-1-1V8.22a2.307 2.307 0 1 0-4.615 0v14.883a1 1 0 0 1-1 1m23.152.002a1 1 0 0 1-1-1V8.22a2.307 2.307 0 0 0-4.614 0v14.883a1 1 0 0 1-1 1"/><path fill="#d0cfce" d="M47.601 24.189H20.435v10.48c-.013 9.48 7.663 17.177 17.144 17.189 3.543.005 7-1.087 9.898-3.124.593-8.17.634-16.37.124-24.546z"/><path fill="#9b9b9a" d="M47.601 24.189a182.29 182.29 0 0 1-.124 24.546 17.171 17.171 0 0 0 7.339-14.066V24.19h-7.215z"/><path fill="#d0cfce" d="M41.657 67.097a1 1 0 0 1-1-1v-7.083h-6.063v7.083a1 1 0 0 1-1 1"/><g fill="none" stroke="#000" stroke-linecap="round" stroke-width="2"><path stroke-miterlimit="10" d="M33.013 23.093V8.21a3.307 3.307 0 0 0-3.307-3.307h0a3.307 3.307 0 0 0-3.307 3.307h0v14.883m23.151 0V8.21a3.307 3.307 0 0 0-3.307-3.307h0a3.307 3.307 0 0 0-3.307 3.307h0v14.883"/><path stroke-linejoin="round" d="M19.435 23.189v11.48c0 10.046 8.144 18.19 18.19 18.19s18.19-8.144 18.19-18.19v-11.48h-36.38z"/><path stroke-linejoin="round" d="M31.011 51.81 32.665 58h9.921l1.654-6.166m-10.622 14.25V58h8.063v8.084"/></g></svg><svg viewBox="0 0 72 72" id="1F5A5" xmlns="http://www.w3.org/2000/svg"><path fill="#D0CFCE" d="M44.183 60.958c0 4.959 7.84 7.042 7.84 7.042h-31.62s7.84-2.083 7.84-7.042v-4.933h15.778l.162 4.933z"/><path fill="#9B9B9A" d="M63.194 56H9.232a5.075 5.075 0 0 1-5.074-5.075V16.033a5.075 5.075 0 0 1 5.074-5.075h53.962a5.075 5.075 0 0 1 5.075 5.075v34.892A5.075 5.075 0 0 1 63.194 56z"/><path fill="#FFF" d="M67.547 46.721 4.213 24.201v-9.458a2.671 2.671 0 0 1 3.566-2.517L67.547 33.48v13.242z"/><path fill="#D0CFCE" d="M68.269 47.563s.168 4.855-1.55 6.83-.722 1.604-3.525 1.604H9.232c-2.802 0-4.164-1.852-4.164-2.444l-.91-5.99"/><g fill="none" stroke="#000" stroke-linecap="round" stroke-linejoin="round" stroke-miterlimit="10"><path stroke-width="2" d="M63.194 56H9.232a5.075 5.075 0 0 1-5.074-5.075V16.033a5.075 5.075 0 0 1 5.074-5.075h53.962a5.075 5.075 0 0 1 5.075 5.075v34.892A5.075 5.075 0 0 1 63.194 56z"/><path stroke-width=".919" d="M68.269 47.563s.168 4.855-1.55 6.83-.722 1.604-3.525 1.604H9.232c-2.802 0-4.164-1.852-4.164-2.444l-.91-5.99"/><path stroke-width="2" d="M63.194 56H9.232a5.075 5.075 0 0 1-5.074-5.075V16.033a5.075 5.075 0 0 1 5.074-5.075h53.962a5.075 5.075 0 0 1 5.075 5.075v34.892A5.075 5.075 0 0 1 63.194 56zM7.213 48.492h58m-22.03 12.466c0 4.959 8.84 7.042 8.84 7.042h-31.62s8.84-2.083 8.84-7.042"/></g></svg><svg viewBox="0 0 72 72" id="1F5A8" xmlns="http://www.w3.org/2000/svg"><path fill="#9B9B9A" d="M56.5 57.039h12v-41.11h-64v41.11h12z"/><path fill="#9B9B9A" d="M16.5 56h-12V15.929h64V56h-12"/><path fill="#D0CFCE" d="M5.393 15.929h7.141V56H5.393zm54.743 0h7.918V56h-7.918zM15.5 15.412V4.992h42V15.93"/><path fill="#D0CFCE" d="M16.5 12.503v-7.51h40v7.882"/><path fill="#3F3F3F" d="M52.54 44.433V68H20.46V44.433"/><path fill="#3F3F3F" d="M51.586 50.587V68H21.414V50.587"/><path fill="#FFF" d="M61.145 20.335v31.95m-14.362-7.832v19.303H26.217V44.453M11.5 20.335v31.95"/><g fill="none" stroke="#000" stroke-linecap="round" stroke-linejoin="round" stroke-miterlimit="10" stroke-width="2"><path d="M16.5 12.503v-7.51h40v7.882m-4.914 37.712V68H21.414V50.587m39.731-30.252v31.95"/><path d="M46.783 44.453v19.303H26.217V44.453m3.311 3.925h13.944m-13.944 4.827h13.944m-13.944 5.299h13.944M11.5 20.335v31.95"/><path d="M16.5 52.285V49.15a4.716 4.716 0 0 1 4.716-4.717h30.568A4.716 4.716 0 0 1 56.5 49.15v3.135"/><path d="M56.5 56h12V15.929h-64V56h12"/></g></svg><svg viewBox="0 0 72 72" id="1F5B1" xmlns="http://www.w3.org/2000/svg"><path fill="#d0cfce" d="M38.41 11.95h-4.821c-7.25 0-13.18 4.932-13.18 12.18v23.74c0 7.25 5.932 12.18 13.18 12.18h4.821c7.25 0 13.18-4.932 13.18-12.18V24.13c0-7.25-5.932-12.18-13.18-12.18z"/><path fill="#3f3f3f" d="M36.15 17.93h-.308a2.565 2.565 0 0 0-2.558 2.558v7.94a2.565 2.565 0 0 0 2.558 2.558h.308a2.565 2.565 0 0 0 2.558-2.558v-7.94a2.565 2.565 0 0 0-2.558-2.558z"/><path fill="#9b9b9a" d="M34.79 12.79c3.959 1.699 7.723 4.137 8.161 10.3.508 7.135-2.133 20.5-2.982 27.28-.594 4.745-2.94 6.942-6.056 9.432-1.571 1.256 6.889 1.102 10.37-.934 2.989-1.747 5.885-4.747 5.921-3.798l.422-33.75s-1.225-9.075-11.2-9.078c0 0-10.01-.515-4.635.551z"/><g fill="none" stroke="#000" stroke-linecap="round" stroke-linejoin="round" stroke-miterlimit="10" stroke-width="2"><path d="M36.26 31.12h-.518a2.49 2.49 0 0 1-2.49-2.478v-8.126a2.492 2.492 0 0 1 2.49-2.478h.518a2.49 2.49 0 0 1 2.49 2.478v8.126a2.492 2.492 0 0 1-2.49 2.478z"/><path d="M39.61 60.05h-7.215c-6.475 0-11.77-5.263-11.77-11.7V23.64c0-6.432 5.298-11.7 11.77-11.7h7.215c6.475 0 11.77 5.263 11.77 11.7v24.71c0 6.432-5.298 11.7-11.77 11.7z"/></g></svg><svg viewBox="0 0 72 72" id="1F5B2" xmlns="http://www.w3.org/2000/svg"><path fill="#d0cfce" d="M38.32 14.95h-4.638a12.72 12.72 0 0 0-12.68 12.68v22.84a12.72 12.72 0 0 0 12.68 12.68h4.638A12.72 12.72 0 0 0 51 50.47V27.63a12.72 12.72 0 0 0-12.68-12.68z"/><path fill="#9b9b9a" d="M34.84 16.71c3.809 1.634 7.429 3.98 7.851 9.907.488 6.864-2.052 19.72-2.868 26.25-.571 4.565-2.829 6.678-5.826 9.074 7.15 1.956 12.45-1.073 15.39-3.987 2.791-10 1.554-22.51 1.443-33.41-.846-5.23-6.24-8.613-11.53-8.356 0 0-9.629-.496-4.459.53z"/><circle cx="36.74" cy="30.51" r="8.902" fill="#f4aa41"/><path fill="#e27022" d="M37.95 21.03a6.238 6.238 0 0 1 1.407 3.94 8.902 8.902 0 0 1-8.902 8.901c-1.765 0-2.272-.52-3.656-1.407 1.582 2.47 6.045 6.946 9.196 6.946a8.902 8.902 0 0 0 8.902-8.902c0-3.151-4.476-7.897-6.946-9.479z"/><g fill="none" stroke="#000" stroke-linecap="round" stroke-linejoin="round" stroke-width="2"><path d="M40.13 62.42h-8.259a10.75 10.75 0 0 1-10.72-10.72V26.39a10.75 10.75 0 0 1 10.72-10.72h8.259a10.75 10.75 0 0 1 10.72 10.72V51.7a10.75 10.75 0 0 1-10.72 10.72z"/><circle cx="36" cy="30.51" r="8.902"/><path d="M36 15.1c.5-13.15-19.03-4.582-21.79-9.568"/></g></svg><svg viewBox="0 0 72 72" id="1F9EE" xmlns="http://www.w3.org/2000/svg"><circle cx="20.197" cy="19.736" r="2.724" fill="#ea5a47"/><path fill="#d22f27" d="M21.276 17.057a2.72 2.72 0 0 1-3.758 3.76 2.722 2.722 0 1 0 3.758-3.76z"/><circle cx="30.834" cy="19.736" r="2.724" fill="#ea5a47"/><path fill="#d22f27" d="M31.914 17.057a2.72 2.72 0 0 1-3.759 3.76 2.722 2.722 0 1 0 3.759-3.76z"/><circle cx="37.697" cy="19.736" r="2.724" fill="#ea5a47"/><path fill="#d22f27" d="M38.777 17.057a2.72 2.72 0 0 1-3.76 3.76 2.722 2.722 0 1 0 3.76-3.76z"/><circle cx="45.246" cy="19.736" r="2.724" fill="#ea5a47"/><path fill="#d22f27" d="M46.326 17.057a2.72 2.72 0 0 1-3.76 3.76 2.722 2.722 0 1 0 3.76-3.76z"/><circle cx="23.931" cy="30.374" r="2.724" fill="#fcea2b"/><path fill="#f1b31c" d="M25.01 27.695a2.72 2.72 0 0 1-3.758 3.758 2.722 2.722 0 1 0 3.759-3.758z"/><circle cx="31.137" cy="30.374" r="2.724" fill="#fcea2b"/><path fill="#f1b31c" d="M32.217 27.695a2.72 2.72 0 0 1-3.76 3.758 2.722 2.722 0 1 0 3.76-3.758z"/><circle cx="47.264" cy="30.374" r="2.724" fill="#fcea2b"/><path fill="#f1b31c" d="M48.344 27.695a2.72 2.72 0 0 1-3.759 3.758 2.722 2.722 0 1 0 3.76-3.758z"/><circle cx="54.814" cy="30.374" r="2.724" fill="#fcea2b"/><path fill="#f1b31c" d="M55.893 27.695a2.72 2.72 0 0 1-3.759 3.758 2.722 2.722 0 1 0 3.76-3.758z"/><circle cx="23.931" cy="41.011" r="2.724" fill="#f4aa41"/><path fill="#e27022" d="M25.01 38.332a2.72 2.72 0 0 1-3.758 3.759 2.722 2.722 0 1 0 3.759-3.759z"/><circle cx="31.137" cy="41.011" r="2.724" fill="#f4aa41"/><path fill="#e27022" d="M32.217 38.332a2.72 2.72 0 0 1-3.76 3.759 2.722 2.722 0 1 0 3.76-3.759z"/><circle cx="41.088" cy="41.011" r="2.724" fill="#f4aa41"/><path fill="#e27022" d="M42.168 38.332a2.72 2.72 0 0 1-3.76 3.759 2.722 2.722 0 1 0 3.76-3.759z"/><circle cx="51.423" cy="41.011" r="2.724" fill="#f4aa41"/><path fill="#e27022" d="M52.502 38.332a2.72 2.72 0 0 1-3.759 3.759 2.722 2.722 0 1 0 3.76-3.759z"/><g fill="none" stroke="#000"><path stroke-linecap="round" stroke-linejoin="round" stroke-width="2" d="M12.092 58.874v-46m36.559 6.863 10.895-.001m-18.523.001h.869m-7.748 0h.263m-10.821 0h3.887m-14.614 0h4.032m43.017 39.137v-46"/><circle cx="20.197" cy="19.736" r="2.724" stroke-miterlimit="10" stroke-width="1.362"/><circle cx="30.834" cy="19.736" r="2.724" stroke-miterlimit="10" stroke-width="1.362"/><circle cx="37.697" cy="19.736" r="2.724" stroke-miterlimit="10" stroke-width="1.362"/><circle cx="45.246" cy="19.736" r="2.724" stroke-miterlimit="10" stroke-width="1.362"/><path stroke-linecap="round" stroke-linejoin="round" stroke-width="2" d="M58.075 30.374h.784m-8.302 0h.985m-17.062 0h9.442m-16.739 0h.702m-15.026 0h7.775"/><circle cx="23.931" cy="30.374" r="2.724" stroke-miterlimit="10" stroke-width="1.362"/><circle cx="31.137" cy="30.374" r="2.724" stroke-miterlimit="10" stroke-width="1.362"/><circle cx="47.264" cy="30.374" r="2.724" stroke-miterlimit="10" stroke-width="1.362"/><circle cx="54.814" cy="30.374" r="2.724" stroke-miterlimit="10" stroke-width="1.362"/><path stroke-linecap="round" stroke-linejoin="round" stroke-width="2" d="M54.76 41.011h4.099m-14.419 0h3.631m-13.613 0h3.333m-10.539 0h.56m-14.953 0h7.747"/><circle cx="23.931" cy="41.011" r="2.724" stroke-miterlimit="10" stroke-width="1.362"/><circle cx="31.137" cy="41.011" r="2.724" stroke-miterlimit="10" stroke-width="1.362"/><circle cx="41.088" cy="41.011" r="2.724" stroke-miterlimit="10" stroke-width="1.362"/><circle cx="51.423" cy="41.011" r="2.724" stroke-miterlimit="10" stroke-width="1.362"/></g></svg><svg viewBox="0 0 72 72" id="2328" xmlns="http://www.w3.org/2000/svg"><path fill="#d0cfce" d="M5 18.498h62v35.82H5z"/><path fill="#9b9b9a" fill-rule="evenodd" stroke="#9b9b9a" stroke-linecap="round" stroke-linejoin="round" stroke-width="2" d="M9 25h3v3H9zm51 0h3v3h-3zm-43.71 0h3v3h-3zm7.28 0h3v3h-3zm7.29 0h3v3h-3zm7.28 0h3v3h-3zm7.29 0h3v3h-3zm7.28 0h3v3h-3zM20.5 34.5h3v3h-3zm28 0h3v3h-3zM9 44h3v3H9zm7 0h3v3h-3zm37 0h3v3h-3zm7 0h3v3h-3zm-18.5-9.5h3v3h-3zm-7 0h3v3h-3zm-7 0h3v3h-3zM22.93 44h26.14v3H22.93zM9 34.5h7.5v3H9zm46.5 0H63v3h-7.5z" opacity=".999"/><g fill="none" stroke="#000" stroke-linecap="round" stroke-linejoin="round" stroke-miterlimit="10" stroke-width="2"><path d="M5 18.5h62v35H5z"/><path d="M9 47h3v-3m10.93 3h26.14v-3M16 47h3v-3m34 3h3v-3m4 3h3v-3m-7.5-6.5H63v-3M16.29 28h3v-3m4.28 3h3v-3m4.29 3h3v-3m4.28 3h3v-3m4.29 3h3v-3m4.28 3h3v-3M60 28h3v-3M9 28h3v-3M9 37.5h7.5v-3m32 3h3v-3m-10 3h3v-3m-10 3h3v-3m-10 3h3v-3m-10 3h3v-3"/></g></svg></svg>