<?xml version="1.0" encoding="utf-8"?><svg viewBox="0 0 72 72" xmlns="http://www.w3.org/2000/svg" xmlns:xlink="http://www.w3.org/1999/xlink"><style>:root>svg{display:none}:root>svg:target{display:block}</style><svg viewBox="0 0 72 72" id="1F374" xmlns="http://www.w3.org/2000/svg"><g fill="#D0CFCE" stroke-miterlimit="10" stroke-width="2"><path d="M32.07 26.296c0-5.943-5.12-12.16-5.12-10.296s.947 26.632.947 26.632L26.95 58.83a2 2 0 104 0l-.529-16.29s1.65-10.3 1.65-16.243z"/><path stroke-linecap="round" stroke-linejoin="round" d="M45.938 16.74s.112 4.158.112 8.106c0 2.96-.9 4.82-2.181 5.565l.029 28.418a2 2 0 11-4 0l.81-28.413c-1.287-.74-2.19-2.602-2.19-5.57 0-3.948.11-8.106.11-8.106"/></g><g fill="none" stroke="#000" stroke-miterlimit="10" stroke-width="2"><path d="M32.07 26.296c0-5.943-5.12-12.16-5.12-10.296s.947 26.632.947 26.632L26.95 58.83a2 2 0 104 0l-.529-16.29s1.65-10.3 1.65-16.243z"/><path stroke-linecap="round" stroke-linejoin="round" d="M45.938 16.74s.112 4.158.112 8.106c0 2.96-.9 4.82-2.181 5.565h0l.029 28.418a2 2 0 11-4 0l.81-28.413h0c-1.287-.74-2.19-2.602-2.19-5.57 0-3.948.11-8.106.11-8.106M42.283 16.74v9.585"/></g></svg><svg viewBox="0 0 72 72" id="1F37D" xmlns="http://www.w3.org/2000/svg"><g fill="#D0CFCE" stroke-miterlimit="10" stroke-width="2"><path d="M66.12 26.296C66.12 20.353 61 14.136 61 16s.947 26.632.947 26.632L61 58.83a2 2 0 104 0l-.529-16.29s1.65-10.3 1.65-16.243z"/><path stroke-linecap="round" stroke-linejoin="round" d="M11.421 16.74s.112 4.158.112 8.106c0 2.96-.9 4.82-2.181 5.565l.028 28.418a2 2 0 11-4 0l.811-28.413C4.904 29.677 4 27.814 4 24.846c0-3.948.112-8.106.112-8.106M7.766 16.74v9.585"/><circle cx="36" cy="35.958" r="19.958" stroke-linecap="round" stroke-linejoin="round"/><circle cx="36.004" cy="36" r="12.149" stroke-linecap="round" stroke-linejoin="round"/></g><g fill="none" stroke="#000" stroke-miterlimit="10" stroke-width="2"><path d="M66.12 26.296C66.12 20.353 61 14.136 61 16s.947 26.632.947 26.632L61 58.83a2 2 0 104 0l-.529-16.29s1.65-10.3 1.65-16.243z"/><path stroke-linecap="round" stroke-linejoin="round" d="M11.421 16.74s.112 4.158.112 8.106c0 2.96-.9 4.82-2.181 5.565h0l.028 28.418a2 2 0 11-4 0l.811-28.413h0C4.904 29.677 4 27.814 4 24.846c0-3.948.112-8.106.112-8.106M7.766 16.74v9.585"/><circle cx="36" cy="35.958" r="19.958" stroke-linecap="round" stroke-linejoin="round"/><circle cx="36.004" cy="36" r="12.149" stroke-linecap="round" stroke-linejoin="round"/></g></svg><svg viewBox="0 0 72 72" id="1F3FA" xmlns="http://www.w3.org/2000/svg"><path fill="#f4aa41" d="M50.725 24.082l1.077-1.874a6.049 6.049 0 00-7.652-8.117 8.011 8.011 0 011.629-2.347 2.062 2.062 0 00.423-2.275 2.124 2.124 0 00-1.959-1.304H27.757a2.124 2.124 0 00-1.959 1.304 2.062 2.062 0 00.424 2.275 8.037 8.037 0 011.612 2.314 6 6 0 00-1.985-.352 6.073 6.073 0 00-5.564 8.502l1.045 1.818a15.288 15.288 0 00-4.012 10.534c0 6.795 4.271 15.88 12.695 27.002a.997.997 0 00.797.396h10.38a.997.997 0 00.797-.396C50.41 50.44 54.682 41.355 54.682 34.56a15.305 15.305 0 00-3.957-10.478zm-24.876-8.376a3.965 3.965 0 011.417.264c0 .007.586.295.966.483-.337 2.294-3.1 4.544-4.179 5.24a10.868 10.868 0 00-1.27.936l-.686-1.27a4.074 4.074 0 013.752-5.653zm20.39 0a4.074 4.074 0 013.751 5.653l-.713 1.32a10.989 10.989 0 00-1.301-.968c-1.101-.706-3.84-2.93-4.2-5.218.37-.184 1.046-.515 1.046-.523a3.965 3.965 0 011.416-.264z"/><path fill="#e27022" d="M41.19 60.799c6.246-8.247 12.492-18.377 12.492-26.398a14.292 14.292 0 00-6.246-12.008s-4.702-3.014-4.702-6.553a7.303 7.303 0 012.328-4.953 1.093 1.093 0 00-.05-1.562H39.73a1.116 1.116 0 01.818 1.88 7.303 7.303 0 00-2.328 4.954c0 3.538 4.703 6.553 4.703 6.553a14.292 14.292 0 016.245 12.008c0 7.919-6.088 17.89-12.254 26.08z"/><path fill="#3f3f3f" d="M45.852 65.97H26.148a.97.97 0 01-.97-.97c0-3.204 4.585-4.805 5.108-4.977a.968.968 0 01.303-.048H41.41a.968.968 0 01.303.048c.523.172 5.108 1.773 5.108 4.977a.97.97 0 01-.97.97zM46.202 9.47a2.124 2.124 0 00-1.959-1.304H27.757a2.124 2.124 0 00-1.959 1.303 2.062 2.062 0 00.424 2.275 7.171 7.171 0 011.88 3.049c.008.031.03.054.042.084a.985.985 0 00.954.772h13.808c.013 0 .024-.007.038-.008a.988.988 0 00.312-.063.97.97 0 00.135-.073.994.994 0 00.164-.11.974.974 0 00.114-.122 1.021 1.021 0 00.175-.316c.007-.023.022-.042.028-.066a7.08 7.08 0 011.907-3.147 2.062 2.062 0 00.423-2.275zM53.76 40.545a.945.945 0 00.011-.14.931.931 0 00.027-.134c0-.02-.01-.038-.012-.059a.948.948 0 00-.04-.203.974.974 0 00-.057-.173.957.957 0 00-.105-.156.671.671 0 00-.274-.248.951.951 0 00-.183-.095c-.02-.007-.034-.022-.055-.028a1.12 1.12 0 01-.274-.038H19.202a.947.947 0 00-.14.028.952.952 0 00-.135.01c-.021.006-.035.021-.055.029a.953.953 0 00-.18.092.849.849 0 00-.436.572.96.96 0 00-.043.214c0 .02-.01.035-.01.055a.954.954 0 00.025.126.937.937 0 00.011.148 38.307 38.307 0 001.882 5.073.992.992 0 00.193.277c.019.02.04.034.06.053a.991.991 0 00.224.15.942.942 0 00.09.04.994.994 0 00.347.07h29.16a.975.975 0 00.237.172 1.002 1.002 0 001.325-.495l.117-.27.016-.035a38.157 38.157 0 001.87-5.035z"/><g fill="none" stroke="#000" stroke-linecap="round" stroke-linejoin="round"><path stroke-width="2" d="M21.035 45.209h29.93M19.202 40.271h33.596M41.19 60.958c6.246-8.246 12.492-18.377 12.492-26.398a14.292 14.292 0 00-6.246-12.007S42.734 19.538 42.734 16a7.303 7.303 0 012.328-4.954 1.116 1.116 0 00-.819-1.88H27.757a1.116 1.116 0 00-.819 1.88A7.303 7.303 0 0129.266 16c0 3.538-4.702 6.553-4.702 6.553a14.292 14.292 0 00-6.246 12.007c0 8.02 6.246 18.151 12.492 26.398z"/><path stroke-width="1.939" d="M30.59 60.945s-4.442 1.46-4.442 4.055h19.704c0-2.595-4.441-4.055-4.441-4.055"/><path stroke-width="2" d="M29.098 14.649a6.072 6.072 0 00-8.789 7.613l1.55 2.682M42.905 14.649a6.072 6.072 0 018.789 7.613l-1.55 2.682"/><path d="M18.547 37.338h5.296v-1.957h-2.044v-1.957h3.914v3.914h3.914v-2.044H27.67v-1.87h4.001v3.914h3.914v-1.957h-2.044v-1.957h3.914v3.914h3.914v-1.957h-1.957v-1.957h4.001v3.914h3.914v-1.957h-2.044v-1.957h3.914v3.914h4.256"/><path stroke-width="2" d="M32.723 14.649h10.182"/></g></svg><svg viewBox="0 0 72 72" id="1F52A" xmlns="http://www.w3.org/2000/svg"><g stroke-miterlimit="10" stroke-width="2"><path fill="#3F3F3F" stroke="#3F3F3F" d="M24.272 30.108c-3.545-.267-13.737-.805-18.656 0 0 0-1.386.756 0 4.63 0 0 1.257.547 3 .547 1.49 0 12.87 1.538 15.656 1.108"/><path fill="#3F3F3F" stroke-linecap="round" stroke-linejoin="round" d="M20.483 30.108c-3.545-.267-10.948-.805-15.867 0 0 0-1.386 1.756 0 5.63 0 0 2.257-.453 4-.453 1.49 0 9.445 1.19 12.232.759"/><path fill="#D0CFCE" stroke-linecap="round" stroke-linejoin="round" d="M24.272 39.85h9.344c32 0 31.95-9.742 31.95-9.742H24.272v9.741"/></g><g fill="none" stroke="#000" stroke-linecap="round" stroke-linejoin="round" stroke-miterlimit="10" stroke-width="2"><path d="M20.483 30.108c-3.545-.267-10.948-.805-15.867 0 0 0-1.386 1.756 0 5.63 0 0 2.257-.453 4-.453 1.49 0 9.445 1.19 12.232.759M24.272 39.85h9.344c32 0 31.95-9.742 31.95-9.742H24.272v9.741"/></g></svg><svg viewBox="0 0 72 72" id="1F944" xmlns="http://www.w3.org/2000/svg"><path fill="#D0CFCE" stroke-linecap="round" stroke-linejoin="round" stroke-miterlimit="10" stroke-width="2" d="M43.457 21.323c0-5.058-2.61-9.159-5.832-9.159s-5.832 4.1-5.832 9.159c0 4.698 1.355 8.566 4.257 9.094l-.811 28.412a2 2 0 104 0L39.21 30.41c2.897-.535 4.247-4.396 4.247-9.088z"/><path fill="none" stroke="#000" stroke-linecap="round" stroke-linejoin="round" stroke-miterlimit="10" stroke-width="2" d="M43.457 21.323c0-5.058-2.61-9.159-5.832-9.159s-5.832 4.1-5.832 9.159c0 4.698 1.355 8.566 4.257 9.094h0l-.811 28.412a2 2 0 104 0L39.21 30.41h0c2.897-.535 4.247-4.396 4.247-9.088z"/></svg><svg viewBox="0 0 72 72" id="1F962" xmlns="http://www.w3.org/2000/svg"><g fill="#D22F27" stroke-linecap="round" stroke-linejoin="round" stroke-miterlimit="10" stroke-width="2"><path d="M53.76 58.958L18.83 20.3a2 2 0 00-2.828 2.828l37.76 35.83M56.585 57.428l-26.073-45.11a2 2 0 00-3.357 2.174l29.43 42.936"/></g><g fill="none" stroke="#000" stroke-linecap="round" stroke-linejoin="round" stroke-miterlimit="10" stroke-width="2"><path d="M53.76 58.958L18.83 20.3a2 2 0 00-2.828 2.828l37.76 35.83M56.585 57.428l-26.073-45.11a2 2 0 00-3.357 2.174l29.43 42.936"/></g></svg></svg>