<?xml version="1.0" encoding="utf-8"?><svg viewBox="0 0 72 72" xmlns="http://www.w3.org/2000/svg" xmlns:xlink="http://www.w3.org/1999/xlink"><style>:root>svg{display:none}:root>svg:target{display:block}</style><svg viewBox="0 0 72 72" id="1F380" xmlns="http://www.w3.org/2000/svg"><path fill="#EA5A47" d="M57.294 16.473c-4.958 0-13.753 4.83-18.134 9.532a5.103 5.103 0 011.355 3.49c-.049 6.281.113 6.522-.158 7.604 11.59 3.595 14.485 12.515 20.195 4.937 6.515-8.648 2.87-25.563-3.258-25.563z"/><path fill="#D22F27" d="M40.511 29.95c4.656-4.24 12.293-8.202 16.783-8.202 3.356 0 5.966 5.071 6.572 11.08.823-7.978-2.26-16.355-6.572-16.355-4.958 0-13.753 4.83-18.134 9.532a5.103 5.103 0 011.355 3.49l-.004.455z"/><path fill="#EA5A47" d="M30.11 28.49v.46c.01 1.54.01 2.7 0 3.58v2.14c0 .57.03.88.11 1.24.01.03.01.06.02.09.02.03.02.06.03.1h-.01c-7.18 2.23-11.02 6.5-14.26 7.62-1.7.59-3.24.32-5-1.56-.3-.32-.61-.7-.93-1.12-1.51-2.01-2.48-4.46-2.99-7.04v-.02c-.14-.71-.25-1.43-.32-2.15-.05-.44-.09-.88-.1-1.32-.03-.43-.04-.87-.04-1.3 0-5.56 1.77-10.85 4.38-12.87.16-.13.32-.24.49-.34.58-.34 1.2-.53 1.84-.53.61 0 1.27.07 1.98.21.23.04.46.09.69.15.21.05.43.11.65.17 4.76 1.32 10.85 4.96 14.43 8.61l-.97 3.88z"/><path fill="#D22F27" d="M30.11 28.49v.46c-3.82-3.48-9.66-6.78-14.11-7.84-.97-.23-1.87-.36-2.67-.36-.83 0-1.61.31-2.33.87-.12.09-.23.18-.35.29-2.01 1.83-3.46 5.64-3.89 9.92-.05-.44-.09-.88-.1-1.32-.03-.43-.04-.87-.04-1.3 0-5.56 1.77-10.85 4.38-12.87.16-.13.32-.24.49-.34.58-.34 1.2-.53 1.84-.53.61 0 1.27.07 1.98.21.23.04.46.09.69.15.21.05.43.11.65.17 4.76 1.32 10.85 4.96 14.43 8.61l-.97 3.88z"/><path fill="#EA5A47" d="M30.297 36.82a23.23 23.23 0 00-3.4 1.556c-2.209 2.938-6.122 8.834-10.311 18.22-.334.747.177 1.643.854 1.495l4.82-1.054c.7-.153 1.4.264 1.744 1.038l2.171 4.893c.38.856 1.407.686 1.592-.265.942-4.824 3.101-15.242 5.718-22.267-1.543-.328-2.787-1.759-3.188-3.616zM44.146 38.433a22.025 22.025 0 00-3.443-1.613c-.4 1.857-1.645 3.288-3.188 3.616 2.617 7.025 4.776 17.442 5.718 22.267.185.95 1.212 1.121 1.592.265l2.171-4.893c.344-.774 1.044-1.19 1.743-1.038l4.821 1.054c.678.148 1.189-.748.855-1.496-4.163-9.325-8.053-15.205-10.27-18.162z"/><path fill="#EA5A47" d="M35.84 22.718h-1.68c-2.233 0-4.05 2.381-4.05 5.309v6.645c0 2.927 1.817 5.309 4.05 5.309h1.68c2.233 0 4.05-2.382 4.05-5.31v-6.644c0-2.928-1.817-5.309-4.05-5.309z"/><path fill="#D22F27" d="M39.547 24.624c.589.922.943 2.11.943 3.403v6.645c0 2.927-1.817 5.309-4.05 5.309H34.76a3.222 3.222 0 01-1.559-.41c1.462-.802 2.492-2.696 2.492-4.9v-6.644c0-2.204-1.03-4.098-2.492-4.9a3.222 3.222 0 011.56-.409h1.678c1.247 0 2.363.742 3.107 1.906z"/><g fill="none" stroke="#000" stroke-miterlimit="10"><path stroke-width="1.992" d="M59.056 16.104a3.548 3.548 0 00-1.762-.485c-2.217 0-5.2.965-8.214 2.454"/><path stroke-width="1.992" d="M40.357 36.245c11.59 3.596 14.485 12.515 20.195 4.937 5.861-7.78 3.5-22.252-1.496-25.078M49.08 18.073c-3.727 1.84-7.498 4.478-9.92 7.078M30.11 28.49v.46c.01 1.54.01 2.7 0 3.58 0 1.02-.01 1.67 0 2.14 0 .57.03.88.11 1.24 0 .02.01.03.01.05.02.04.03.09.04.14h-.01c-7.18 2.23-11.02 6.5-14.26 7.62-1.7.59-3.24.32-5-1.56-.3-.32-.61-.7-.93-1.12-1.51-2.01-2.48-4.46-2.99-7.04-.14-.72-.25-1.44-.32-2.17-.05-.44-.09-.88-.1-1.32-.03-.43-.04-.87-.04-1.3 0-5.56 1.77-10.85 4.38-12.87.16-.13.32-.24.49-.34.58-.34 1.2-.53 1.84-.53.61 0 1.27.07 1.98.21.23.04.46.09.69.15.21.05.43.11.65.17 4.76 1.32 10.85 4.96 14.43 8.61"/><path stroke-linecap="round" stroke-linejoin="round" stroke-width="2" d="M30.297 36.82a23.23 23.23 0 00-3.4 1.556c-2.209 2.938-6.122 8.834-10.311 18.22-.334.747.177 1.643.854 1.495l4.82-1.054c.7-.153 1.4.264 1.744 1.038l2.171 4.893c.38.856 1.407.686 1.592-.265.942-4.824 3.101-15.242 5.718-22.267-1.543-.328-2.787-1.759-3.188-3.616zM44.146 38.433a22.025 22.025 0 00-3.443-1.613c-.4 1.857-1.645 3.288-3.188 3.616 2.617 7.025 4.776 17.442 5.718 22.267.185.95 1.212 1.121 1.592.265l2.171-4.893c.344-.774 1.044-1.19 1.743-1.038l4.821 1.054c.678.148 1.189-.748.855-1.496-4.163-9.325-8.053-15.205-10.27-18.162z"/><path stroke-width="2" d="M35.84 22.718h-1.68c-2.233 0-4.05 2.381-4.05 5.309v6.645c0 2.927 1.817 5.309 4.05 5.309h1.68c2.233 0 4.05-2.382 4.05-5.31v-6.644c0-2.928-1.817-5.309-4.05-5.309z"/></g></svg><svg viewBox="0 0 72 72" id="1F381" xmlns="http://www.w3.org/2000/svg"><path fill="#D22F27" d="M51.024 14.021c-1.67-3.009-3.671-4.534-5.948-4.534-2.62 0-5.341 2.063-8.09 6.133A36.494 36.494 0 0036 17.165a35.896 35.896 0 00-.986-1.545c-2.748-4.07-5.47-6.133-8.09-6.133-2.276 0-4.278 1.525-5.948 4.534-1.248 2.252-1.145 4.02-.548 4.979 1.077 1.73 3.83 2.745 7.704 3.411 2.975.513 6.122.589 7.734.589h.269c1.611 0 4.759-.076 7.733-.589 3.873-.666 6.626-1.682 7.704-3.411.595-.96.701-2.727-.548-4.979z"/><path fill="#FCEA2B" d="M16 36h39v25H16z"/><path fill="#f1b31c" d="M53.39 35.5L17 35.558v5.5l27.143 3.929L55 46.5V35.558z"/><path fill="#EA5A47" d="M29.714 60h12.572V44.273l-12.572-2.487z"/><path fill="#FCEA2B" d="M14 21h44v14H14z"/><path fill="#EA5A47" d="M29.714 22h12.571v13H29.714z"/><path fill="#D22F27" d="M42.286 35.5l-12.572.02v7.354l12.572 1.833z"/><g fill="none" stroke="#000" stroke-miterlimit="10" stroke-width="2"><path stroke-linecap="round" stroke-linejoin="round" d="M54.091 21.357H17.356M17.356 21.357H14V35.5h2.357v25.143h39.286V35.5H58V21.357h-3.909M16.357 35.5h40.072M50.961 18.25c.384-.98.492-2.393-.49-4.229-1.608-3.009-3.536-4.534-5.728-4.534-2.525 0-5.146 2.063-7.794 6.133a36.644 36.644 0 00-.95 1.545 36.02 36.02 0 00-.949-1.545c-2.647-4.07-5.269-6.133-7.793-6.133-2.193 0-4.12 1.525-5.73 4.534-.901 1.69-.883 3.021-.574 3.987"/><path d="M42.286 60V44.273M29.714 41.786V60M42.286 35V22M29.714 22v13M42.286 44.707V35.5l-12.572.02v7.354"/></g></svg><svg viewBox="0 0 72 72" id="1F383" xmlns="http://www.w3.org/2000/svg"><path fill="#5C9E31" d="M47.9 9.133c.003-.09-.018-.186-.02-.277a4.535 4.535 0 00-.037-.507c-.013-.091-.019-.18-.037-.271a5.31 5.31 0 00-.267-.99c-1.445-3.736-5.958-4.914-9.268-2.859-2.541 1.579-3.972 4.473-4.87 7.227-.868 2.656-1.369 5.49-1.536 8.3l.018-.003-.008.083a18.7 18.7 0 012.86-.348l.008-.08a24 24 0 011.14-.027c1.711 0 3.112.172 4.247.424-1.124-2.89-1.928-6.282-1.03-9.163.387-1.238 1.095-2.506 2.312-3.145 1.362-.717 3.448-.158 2.959 1.75-.096.373-.421.56-.616.863-.898 1.388.34 2.317 1.652 1.985 1.641-.414 2.4-1.626 2.463-3.025l.03.063z"/><path fill="#F4AA41" d="M26.642 19.757l.01-.005c-.125-.045-.25-.079-.375-.12-.15-.05-.302-.1-.452-.144a14.74 14.74 0 00-.533-.142c-.15-.039-.301-.078-.45-.11-.175-.04-.348-.07-.521-.101-.15-.027-.3-.055-.449-.077-.17-.025-.34-.042-.508-.06-.15-.016-.298-.033-.446-.043-.166-.012-.33-.017-.496-.022-.147-.005-.294-.011-.44-.011-.164 0-.326.008-.488.014-.144.006-.288.01-.43.022-.162.012-.32.03-.48.05-.14.016-.282.03-.421.051-.158.024-.314.054-.47.084-.138.026-.276.05-.411.08-.156.036-.31.077-.463.118-.133.036-.267.069-.399.108-.153.047-.304.1-.455.15-.129.045-.258.086-.384.134-.152.057-.3.12-.45.183-.123.052-.247.102-.369.157-.15.068-.296.142-.443.216-.117.059-.236.115-.352.177-.147.079-.291.164-.436.248-.112.065-.226.128-.336.197-.145.089-.287.185-.429.28-.106.07-.214.139-.319.213-.143.1-.282.206-.422.312-.1.075-.201.148-.3.226-.14.111-.276.228-.413.344-.094.08-.19.158-.283.24-.137.12-.27.247-.402.373-.09.083-.18.165-.267.251-.134.132-.264.269-.394.406-.082.086-.166.169-.247.257-.13.142-.256.29-.383.436-.076.088-.154.174-.229.264-.126.151-.247.307-.369.463-.07.09-.144.18-.213.271-.122.16-.238.326-.355.49-.065.093-.133.183-.197.276-.115.169-.226.341-.337.514-.06.094-.123.186-.183.282-.109.175-.212.354-.317.533-.056.097-.115.192-.17.29-.103.181-.2.366-.297.551-.052.099-.106.196-.157.295-.096.19-.186.382-.278.575-.046.098-.095.194-.14.293-.088.192-.17.386-.252.58-.044.104-.09.206-.133.31-.083.204-.16.41-.237.617-.036.095-.074.19-.109.285-.073.204-.14.41-.207.615-.034.103-.071.204-.103.307-.065.205-.122.41-.18.617-.03.105-.063.209-.091.314-.059.216-.11.434-.161.652-.023.096-.05.192-.072.289-.052.235-.098.47-.143.707-.015.08-.034.16-.048.24-.051.284-.095.567-.135.85-.005.035-.012.069-.016.103-.302 2.21-.27 4.452.076 6.645.172 1.099.418 2.186.752 3.25a23.908 23.908 0 001.796 4.232 22.034 22.034 0 002.252 3.39c.084.103.174.2.26.3.179.213.357.427.545.632l.002.002c.252.275.503.536.752.787.083.084.165.163.247.244a27.569 27.569 0 00.782.741 24.603 24.603 0 001.214 1.03c.083.066.167.134.25.197.208.16.414.311.62.456l.082.06c.23.16.458.31.683.453.079.05.156.095.233.142a16.58 16.58 0 00.71.41 15.328 15.328 0 001.07.53 13.458 13.458 0 00.736.304l.123.048c.201.073.4.14.595.2l.204.06a12.031 12.031 0 00.614.161 11.562 11.562 0 00.914.175l.198.03c.14.017.277.032.413.044.035.003.071.008.106.01.169.014.333.023.494.028.052.002.102.001.153.002.11.002.22.003.328.001.058 0 .114-.002.171-.004a9.985 9.985 0 00.742-.053l.136-.015c.117-.014.23-.03.34-.049l.058-.008c.13-.022.256-.046.378-.072l.08-.018c.092-.02.183-.041.27-.063l.1-.027c.08-.02.156-.042.23-.064l.088-.026c.078-.024.152-.048.224-.072l.062-.021c.186-.065.352-.13.497-.19l.003-.002.153-.067h-.001c.347-.158.534-.278.534-.278 1.47 1.463 7.67 1.715 8.089 1.73h.045c.419-.015 6.62-.267 8.089-1.73 0 0 6.843 4.436 15.588-5.086 7.038-7.045 7.9-20.523 2.017-28.668a16.802 16.802 0 00-1.844-2.15 17.452 17.452 0 00-3.528-2.702c-3.633-2.084-7.825-2.376-11.726-.892 0 0-2.028-2.488-8.619-2.488s-8.618 2.488-8.618 2.488c-.11-.041-.218-.073-.327-.112"/><path fill="#E27022" d="M44.588 59.645c1.75.803 7.67 2.592 14.904-5.364 2.196-2.414 3.827-5.404 4.805-8.555a23.047 23.047 0 00.82-9.894c-1.364-10.115-9.731-19.865-20.242-16.08 5.759 2.711 9.814 9.439 10.743 16.328a23.958 23.958 0 01-.852 10.285c-1.017 3.276-2.712 6.383-4.994 8.894-1.823 2.004-3.565 3.414-5.184 4.386z"/><path fill="#FCEA2B" d="M20 48s15 10 32 0c0 0-16 20-32 0zM35.896 47.928l-1.711-2.964L32.473 42h6.846l-1.712 2.964zM48.974 37.845a5 5 0 002.956-6.424l-9.38 3.468a5 5 0 006.424 2.956zM22.818 37.845a5 5 0 01-2.956-6.424l9.38 3.468a5 5 0 01-6.424 2.956z"/><g fill="none" stroke="#000" stroke-linecap="round" stroke-linejoin="round" stroke-miterlimit="10" stroke-width="2"><path d="M39.4 17.66c-.68-2.34-.98-4.83-.3-7.02.39-1.24 1.1-2.5 2.31-3.14 1.36-.72 3.45-.16 2.96 1.75-.09.37-.42.56-.62.86-.89 1.39.35 2.32 1.66 1.99 1.64-.42 2.4-1.63 2.46-3.03l.03.06c0-.09-.02-.18-.02-.27 0-.17-.02-.34-.04-.51l-.03-.27a5.21 5.21 0 00-.27-.99c-1.45-3.74-5.96-4.92-9.27-2.86-2.54 1.58-3.97 4.47-4.87 7.23a32.18 32.18 0 00-1.36 6.26"/><path d="M7.135 33.932c-.052.235-.097.47-.142.707-.015.08-.034.16-.048.24-.05.284-.094.567-.133.85l-.017.103a23.106 23.106 0 00.076 6.645c.17 1.098.414 2.186.744 3.25a24.028 24.028 0 001.779 4.232 22.05 22.05 0 002.23 3.39c.082.103.171.2.256.3.178.213.354.427.54.632l.002.002c.25.275.498.536.744.787.082.084.164.163.245.244a27.474 27.474 0 00.774.741 24.174 24.174 0 001.202 1.03c.082.066.165.134.247.197.206.16.411.311.614.456l.081.06c.228.16.454.31.677.453.078.05.154.095.231.142a16.41 16.41 0 00.702.41 15.31 15.31 0 001.06.53c.079.035.157.072.235.105.167.071.331.137.494.2.04.014.081.032.12.047.2.073.396.14.59.2l.202.06a11.98 11.98 0 00.608.161 11.36 11.36 0 00.905.175l.195.03c.139.017.275.032.41.044.034.003.07.008.105.01.167.014.33.023.489.028.051.002.1.001.15.002.11.002.22.003.326.001.057 0 .113-.003.17-.004a9.799 9.799 0 00.734-.053l.135-.015c.115-.014.227-.03.336-.049l.057-.008a9.17 9.17 0 00.374-.072l.08-.018c.091-.02.181-.041.268-.064l.099-.026c.078-.02.154-.042.227-.064l.087-.026a8.18 8.18 0 00.222-.072l.061-.021c.184-.065.349-.13.492-.19l.003-.002a6.89 6.89 0 00.151-.067s0 0 0 0c.343-.158.529-.279.529-.279 1.454 1.464 7.593 1.716 8.008 1.731h.044c.415-.015 6.553-.267 8.008-1.73 0 0 6.776 4.436 15.433-5.086 6.967-7.045 7.821-20.524 1.996-28.668a16.758 16.758 0 00-1.824-2.15 17.298 17.298 0 00-3.494-2.702c-3.596-2.084-7.746-2.377-11.609-.892 0 0-2.008-2.489-8.532-2.489s-8.532 2.49-8.532 2.49c-.109-.042-.215-.074-.324-.113"/><path d="M27.027 19.757l.01-.005c-.124-.045-.247-.079-.371-.12-.15-.05-.299-.1-.447-.144a14.43 14.43 0 00-.528-.142c-.15-.039-.298-.078-.446-.11-.173-.04-.344-.07-.516-.101-.148-.027-.297-.055-.444-.077-.169-.025-.336-.042-.504-.06-.147-.016-.294-.033-.44-.043-.165-.012-.328-.017-.492-.022-.145-.005-.291-.011-.435-.011-.163 0-.323.008-.483.014-.143.006-.286.01-.427.022-.16.012-.317.03-.474.05-.14.016-.28.03-.418.051-.156.024-.31.054-.465.084-.136.026-.272.05-.407.08-.154.036-.306.077-.458.118-.132.036-.264.069-.395.108-.151.047-.3.1-.45.15-.128.045-.255.086-.381.134-.15.057-.297.12-.444.183-.123.052-.246.102-.366.157-.148.068-.293.142-.439.216-.116.059-.234.115-.348.177-.146.079-.29.164-.432.248-.111.065-.223.128-.333.197-.143.089-.283.185-.424.28-.106.07-.212.139-.316.213-.142.1-.28.206-.418.312-.099.075-.2.148-.296.226-.14.111-.274.228-.41.344-.093.08-.188.158-.28.24-.135.12-.267.247-.398.373-.088.083-.178.165-.264.251-.133.132-.262.269-.39.406-.082.086-.165.169-.245.257-.129.142-.254.29-.38.436-.075.088-.152.174-.226.264M20 48s15 10 32 0c0 0-16 20-32 0zM35.896 47.928l-1.711-2.964L32.473 42h6.846l-1.712 2.964zM48.974 37.845a5 5 0 002.956-6.424l-9.38 3.468a5 5 0 006.424 2.956zM22.818 37.845a5 5 0 01-2.956-6.424l9.38 3.468a5 5 0 01-6.424 2.956z"/></g></svg><svg viewBox="0 0 72 72" id="1F384" xmlns="http://www.w3.org/2000/svg"><path fill="#B1CC33" d="M30.748 53.166l-13.352.642a.988.988 0 01-.938-1.452l8.339-15.366-3.69.557c-.383.054-1.045.172-1.257-.149a.987.987 0 01-.016-1.064l7.762-12.376-2.279.37c-.39.06-1.057.174-1.27-.154a.987.987 0 010-1.078l11.42-17.537a.989.989 0 01.813-.448c.333.004.64.154.827.424L49.035 22.7a.989.989 0 01.048 1.052c-.188.33-.822.237-1.212.214l-3.045-.214L52.41 36.35a.989.989 0 01-.034 1.06c-.216.316-.88.194-1.257.136l-3.314-.534 8.328 15.344a.988.988 0 01-.946 1.451l-13.584-1.02"/><ellipse cx="36.295" cy="17.458" fill="#fcea2b" rx="2" ry="1.971"/><path fill="#5C9E31" d="M38.371 23.043l5.443.124 7.977 13.587-4.238.25 8.227 15.954-17.7-.047z"/><ellipse cx="30.619" cy="42.493" fill="#fcea2b" rx="2" ry="1.971"/><ellipse cx="40.214" cy="29.255" fill="#fcea2b" rx="2" ry="1.971"/><g><path d="M36.295 64.849a1 1 0 01-1-1V54.54a1 1 0 012 0v9.309a1 1 0 01-1 1z"/><path d="M55.486 54.099a.933.933 0 01-.075-.003l-13.746-1.033a1 1 0 01-.922-1.072.991.991 0 011.072-.922l11.931.897-8.232-15.415a1 1 0 011.04-1.459l3.237.522-7.27-12.263a1 1 0 01.009-1.034.982.982 0 01.92-.473l2.903.204-10.03-14.435-9.511 14.604 2.237-.363a.999.999 0 011.01 1.514L22.478 35.63l3.568-.54a1 1 0 011.031 1.46l-8.24 15.43 11.712-.786a1 1 0 11.134 1.995l-13.51.908a1 1 0 01-.95-1.469l8.152-15.262-3.734.564a.999.999 0 01-1-1.515l7.566-12.236-2.306.375a1.001 1.001 0 01-.998-1.534L35.457 5.276a1 1 0 01.823-.454c.336.005.647.156.836.43l12.07 17.368a1 1 0 01-.89 1.569l-3.082-.217 7.386 12.46a1 1 0 01-1.02 1.497l-3.352-.541 8.14 15.24a1 1 0 01-.882 1.471z"/></g></svg><svg viewBox="0 0 72 72" id="1F386" xmlns="http://www.w3.org/2000/svg"><g stroke="#000" stroke-width="2"><path fill="none" stroke-linecap="round" stroke-linejoin="round" d="M35 38.915h2v25h-2z"/><path fill="none" stroke-linecap="round" stroke-miterlimit="10" d="M15.995 32.911h0M55.989 32.902h0M35.978 12.915h0"/><path fill="none" stroke-linecap="round" stroke-linejoin="round" d="M21.849 18.771l9.9 9.9M40.234 28.67l9.899-9.899M50.133 47.055l-9.899-9.899M31.749 37.156l-9.9 9.899"/><path fill="none" stroke-linecap="round" stroke-miterlimit="10" d="M29.991 32.913h-9M35.991 17.913v9M50.991 32.913h-9M13.087 23.427l6.556 2.716M13.088 42.41l6.556-2.717M26.513 55.83l2.714-6.557M45.495 55.825l-2.718-6.556M58.913 42.396l-6.558-2.712M58.903 23.415l-6.554 2.719M45.472 10l-2.711 6.558M26.492 10.024l2.724 6.553"/><path stroke-linejoin="round" d="M36 34.315l1.7 1.215-.631-1.992 1.681-1.24-2.089-.016L36 30.3l-.661 1.982-2.089.016 1.681 1.24-.631 1.992 1.7-1.215z"/></g><g stroke-width="2"><path fill="none" stroke="#d22f27" stroke-linecap="round" stroke-linejoin="round" d="M35 38.915h2v25h-2z"/><path fill="none" stroke="#fcea2b" stroke-linecap="round" stroke-miterlimit="10" d="M15.995 32.911h0"/><path fill="none" stroke="#f1b31c" stroke-linecap="round" stroke-miterlimit="10" d="M55.989 32.902h0M35.978 12.915h0"/><path fill="none" stroke="#e27022" stroke-linecap="round" stroke-linejoin="round" d="M21.849 18.771l9.9 9.9"/><path fill="none" stroke="#61b2e4" stroke-linecap="round" stroke-linejoin="round" d="M40.234 28.67l9.899-9.899"/><path fill="none" stroke="#f1b31c" stroke-linecap="round" stroke-linejoin="round" d="M50.133 47.055l-9.899-9.899"/><path fill="none" stroke="#e67a94" stroke-linecap="round" stroke-linejoin="round" d="M31.749 37.156l-9.9 9.899"/><path fill="none" stroke="#d0cfce" stroke-linecap="round" stroke-miterlimit="10" d="M29.991 32.913h-9"/><path fill="none" stroke="#8967aa" stroke-linecap="round" stroke-miterlimit="10" d="M35.991 17.913v9"/><path fill="none" stroke="#ea5a47" stroke-linecap="round" stroke-miterlimit="10" d="M50.991 32.913h-9"/><path fill="none" stroke="#b399c8" stroke-linecap="round" stroke-miterlimit="10" d="M13.087 23.427l6.556 2.716"/><path fill="none" stroke="#92d3f5" stroke-linecap="round" stroke-miterlimit="10" d="M13.088 42.41l6.556-2.717"/><path fill="none" stroke="#b1cc33" stroke-linecap="round" stroke-miterlimit="10" d="M26.513 55.83l2.714-6.557"/><path fill="none" stroke="#ffa7c0" stroke-linecap="round" stroke-miterlimit="10" d="M45.495 55.825l-2.718-6.556"/><path fill="none" stroke="#b399c8" stroke-linecap="round" stroke-miterlimit="10" d="M58.913 42.396l-6.558-2.712"/><path fill="none" stroke="#b1cc33" stroke-linecap="round" stroke-miterlimit="10" d="M58.903 23.415l-6.554 2.719"/><path fill="none" stroke="#a57939" stroke-linecap="round" stroke-miterlimit="10" d="M45.472 10l-2.711 6.558"/><path fill="none" stroke="#fcea2b" stroke-linecap="round" stroke-miterlimit="10" d="M26.492 10.024l2.724 6.553"/><path fill="#d22f27" stroke="#d22f27" stroke-linejoin="round" d="M36 34.315l1.7 1.215-.631-1.992 1.681-1.24-2.089-.016L36 30.3l-.661 1.982-2.089.016 1.681 1.24-.631 1.992 1.7-1.215z"/></g><path fill="none" stroke="#000" stroke-linecap="round" stroke-linejoin="round" stroke-width="2" d="M35 58.915v-20h2"/></svg><svg viewBox="0 0 72 72" id="1F387" xmlns="http://www.w3.org/2000/svg"><g fill="none" stroke="#000" stroke-linecap="round" stroke-width="2"><path stroke-miterlimit="10" d="M27.612 16.11h0M55.898 44.382h0M55.882 16.1h0M27.593 16.128h0"/><path stroke-linejoin="round" d="M41.75 10.25v14M47.75 30.25h14M41.75 50.25v-14M35.75 30.25h-14"/><path stroke-miterlimit="10" d="M37.507 26.007l-6.364-6.364M52.357 19.643l-6.364 6.364M52.357 40.857l-6.364-6.364M32.262 7.347l2.715 6.556M18.84 20.77l6.557 2.715M18.843 39.753l6.556-2.718M32.269 53.171l2.714-6.557M51.252 53.164l-2.718-6.555M64.667 39.735l-6.557-2.712M64.656 20.752l-6.555 2.72M51.218 7.348l-2.707 6.56M32.236 7.358l2.715 6.556M13 57l27.638-27.76a1.5 1.5 0 012.121 0h0a1.5 1.5 0 010 2.122L19 55"/></g><path fill="#9b9b9a" d="M11.293 57.172L39.93 28.534a2.5 2.5 0 013.535 0 2.5 2.5 0 010 3.535L14.828 60.707a1 1 0 01-1.414 0l-2.121-2.121a1 1 0 010-1.414z"/><g fill="none" stroke="#f1b31c" stroke-linecap="round" stroke-width="2"><path stroke-miterlimit="10" d="M27.612 16.11h0M55.898 44.382h0M55.882 16.1h0M27.593 16.128h0"/><path stroke-linejoin="round" d="M41.75 10.25v14M47.75 30.25h14M41.75 50.25v-14M35.75 30.25h-14"/><path stroke-miterlimit="10" d="M37.507 26.007l-6.364-6.364M52.357 19.643l-6.364 6.364M52.357 40.857l-6.364-6.364M32.262 7.347l2.715 6.556M18.84 20.77l6.557 2.715M18.843 39.753l6.556-2.718M32.269 53.171l2.714-6.557M51.252 53.164l-2.718-6.555M64.667 39.735l-6.557-2.712M64.656 20.752l-6.555 2.72M51.218 7.348l-2.707 6.56M32.236 7.358l2.715 6.556"/></g><g><path fill="none" stroke="#000" stroke-linecap="round" stroke-miterlimit="10" stroke-width="2" d="M17 52.879L40.638 29.24a1.5 1.5 0 012.121 0h0a1.5 1.5 0 010 2.121L31.92 42.201"/></g></svg><svg viewBox="0 0 72 72" id="1F388" xmlns="http://www.w3.org/2000/svg"><path fill="#D22F27" d="M33.976 42.69l.03 6.46.03 6.459-5.92-3.807-5.919-3.807 5.89-2.652z"/><circle cx="45" cy="27" r="23" fill="#EA5A47"/><path fill="#D22F27" d="M60.827 10.549a23.041 23.041 0 00-4.361-3.417c5.36 8.847 4.224 20.525-3.418 28.166s-19.32 8.778-28.166 3.418a23.042 23.042 0 003.417 4.36c8.982 8.982 23.545 8.982 32.528 0 8.982-8.982 8.982-23.545 0-32.527z"/><g fill="none" stroke="#000" stroke-miterlimit="10"><path stroke-linecap="round" stroke-linejoin="round" stroke-width="2.122" d="M34 47.21l.01 1.94.03 6.46-5.92-3.81L22.2 48l5.89-2.66 1.95-.88"/><circle cx="45" cy="27" r="23" stroke-width="2"/><path stroke-linecap="round" stroke-linejoin="round" stroke-width="2" d="M17.725 65.09c.505.04 1.026 0 1.547-.129 2.704-.664 4.41-3.457 3.812-6.238"/><path stroke-linecap="round" stroke-linejoin="round" stroke-width="2" d="M23.14 58.907a4.875 4.875 0 01-.258-1.53c-.024-2.785 2.26-5.13 5.102-5.237"/></g></svg><svg viewBox="0 0 72 72" id="1F389" xmlns="http://www.w3.org/2000/svg"><path fill="#F1B31C" d="M26.18 20.18l12.57 12.57 12.57 12.57-21.53 8.96-21.53 8.96 8.96-21.53z"/><path fill="#FCEA2B" d="M40 35L25.692 20.67l-9.3 21.87L7.09 64.41z"/><path fill="#EA5A47" d="M15.224 45.285l11.062 11.062-5.531 2.251-7.797-7.797z"/><path fill="#D22F27" d="M17.343 55.248l3.412 3.35 5.53-2.251-4.8-4.801z"/><path fill="#EA5A47" d="M20.805 32.163l6.696 6.696 11.7 11.7-6.274 2.863-8.171-8.172-6.606-6.605z"/><path fill="#D22F27" d="M26.537 47.031l6.39 6.39 6.273-2.863-7.838-7.838z"/><ellipse cx="30.295" cy="14.458" fill="#8967aa" rx="2" ry="1.971"/><ellipse cx="60.295" cy="18.458" fill="#f1b31c" rx="2" ry="1.971"/><ellipse cx="57.295" cy="39.458" fill="#d22f27" rx="2" ry="1.971"/><g fill="none" stroke="#000" stroke-linecap="round" stroke-linejoin="round" stroke-miterlimit="10" stroke-width="2"><path d="M50.663 45.64l.168.168-21.87 9.3L7.09 64.41l9.3-21.87 9.301-21.87M25.801 20.778l12.46 12.46L50.664 45.64M25.692 20.669l.109.109M46.49 7.367c.235.449.403.943.49 1.473.451 2.747-1.447 5.414-4.239 5.957"/><path d="M42.933 14.776a4.875 4.875 0 00-1.51.364c-2.569 1.072-3.827 4.093-2.81 6.75M61.793 26.717a4.875 4.875 0 01-.543 1.454c-1.372 2.423-4.523 3.31-7.037 1.98"/><path d="M54.374 30.256a4.876 4.876 0 00-1.403-.663c-2.673-.778-5.549.787-6.422 3.493"/></g></svg><svg viewBox="0 0 72 72" id="1F38A" xmlns="http://www.w3.org/2000/svg"><path fill="#f1b31c" d="M31.843 18.778c-3.526-6.933-11.93-9.884-19.035-6.57S2.56 23.854 5.606 31.012l26.237-12.235z"/><path fill="#FCEA2B" d="M13.204 12.156c3.13-1.46 6.51-1.7 9.616-.925-.884.222-1.76.525-2.616.925-6.176 2.88-9.351 9.552-8.078 15.95L6.002 30.96c-3.045-7.158.097-15.492 7.202-18.805z"/><path fill="#F1B31C" d="M66.66 30.961c3.045-7.158-.097-15.492-7.202-18.805s-15.508-.363-19.035 6.57L66.66 30.962z"/><path fill="#FCEA2B" d="M59.458 12.156c-3.13-1.46-6.51-1.7-9.615-.925.883.222 1.759.525 2.615.925 6.176 2.88 9.352 9.552 8.079 15.95l6.123 2.855c3.045-7.158-.097-15.492-7.202-18.805z"/><ellipse cx="19.295" cy="31.458" fill="#ea5a47" rx="2" ry="1.971"/><ellipse cx="44.295" cy="33.458" fill="#8967aa" rx="2" ry="1.971"/><ellipse cx="40.295" cy="55.458" fill="#FCEA2B" rx="2" ry="1.971"/><g fill="none" stroke="#000" stroke-linecap="round" stroke-linejoin="round" stroke-miterlimit="10" stroke-width="2"><path d="M31.843 18.778c-3.526-6.933-11.93-9.884-19.035-6.57S2.56 23.854 5.606 31.012l26.237-12.235zM66.66 30.961c3.045-7.158-.097-15.492-7.202-18.805s-15.508-.363-19.035 6.57L66.66 30.962zM36.361 30.342c-.436.257-.84.588-1.194.992-1.834 2.094-1.632 5.361.452 7.297"/><path d="M35.467 38.513c.408.299.777.669 1.089 1.106 1.615 2.267 1.087 5.498-1.18 7.215M20.956 42.953c-.495.105-.984.29-1.448.56-2.405 1.402-3.254 4.563-1.894 7.062"/><path d="M17.507 50.414c.292.414.524.882.68 1.395.81 2.664-.719 5.558-3.415 6.465M53.493 38.62c.477.169.937.416 1.361.745 2.201 1.705 2.626 4.951.95 7.25"/><path d="M55.931 46.469a4.876 4.876 0 00-.857 1.294c-1.153 2.534-.018 5.604 2.536 6.857"/></g></svg><svg viewBox="0 0 72 72" id="1F38B" xmlns="http://www.w3.org/2000/svg"><path fill="#B1CC33" d="M57.696 32.939a.782.782 0 01-.288-.056c-.58-.229-14.076-5.669-21.558-17.85-6.832 3.083-11.59 10.26-11.664 10.375-.333.512-.935.59-1.346.174-.41-.417-.472-1.169-.14-1.68.13-.199 13.106-19.758 27.8-9.851 7.869 5.306 8.144 17.168 8.153 17.67.005.385-.137.75-.384.98a.838.838 0 01-.573.238z"/><path fill="#5C9E31" d="M23.984 25.994c1.916-2.992 5.28-7.38 9.791-9.98.622-.39 1.26-.76 1.927-1.083.02.033.042.063.063.096 3.643-1.527 7.911-1.78 12.684.635 7.714 3.906 9.912 14.06 10.303 16.26.077-.186.124-.39.117-.606-.02-.509-.558-12.503-8.543-17.699-14.91-9.701-27.449 10.371-27.574 10.575-.321.525-.243 1.285.176 1.697.316.31.732.334 1.056.105z"/><path fill="#B1CC33" d="M28.7 4.534H15.54c-1.533 0-2.694.583-2.372 1.206 1.038 2.004 1.683 4.784 1.683 7.862 0 3.756-.96 8.077-2.424 10.075v2.016c1.464 1.998 2.424 6.319 2.424 10.075 0 3.756-.96 8.077-2.424 10.076v2.015c1.464 1.998 2.424 6.319 2.424 10.075 0 3.078-.645 5.858-1.683 7.862-.323.623.84 1.206 2.373 1.206H28.7c1.533 0 2.695-.583 2.372-1.206-1.038-2.004-1.682-4.784-1.682-7.862 0-3.756.96-8.077 2.423-10.075v-2.015c-1.464-2-2.423-6.32-2.423-10.076s.96-8.077 2.423-10.075v-2.016c-1.464-1.998-2.423-6.319-2.423-10.075 0-3.078.644-5.858 1.682-7.862.323-.623-.84-1.206-2.372-1.206z"/><path fill="#5C9E31" d="M22.899 65.796c1.357-2.004 2.199-4.785 2.199-7.862 0-3.756-1.254-7.07-3.168-9.068v-4.03c1.914-2 3.168-5.312 3.168-9.068s-1.254-7.07-3.168-9.068v-4.03c1.914-2 3.168-5.312 3.168-9.068 0-3.078-.842-5.859-2.2-7.862-.421-.623 1.097-1.206 3.102-1.206h-9.503c-2.004 0-3.523.583-3.101 1.206 1.357 2.004 2.2 4.784 2.2 7.862 0 3.756-1.255 8.077-3.169 10.075v2.016c1.914 1.998 3.168 6.319 3.168 10.075 0 3.756-1.254 8.077-3.168 10.076v2.015c1.914 1.998 3.168 6.319 3.168 10.075 0 3.078-.842 5.858-2.199 7.862-.422.623 1.097 1.206 3.101 1.206H26c-2.005 0-3.523-.583-3.101-1.206z"/><path fill="#EA5A47" d="M40.445 27.99l-5.42 2.693c-.645.32-.979 1.086-.775 1.804 1.238 4.368 5.941 19.198 15.146 28.946.512.543 1.345.562 1.91.067l9.246-8.115c.705-.618.703-1.763-.014-2.349-3.125-2.553-10.873-9.648-18.287-22.467-.375-.649-1.15-.905-1.806-.58z"/><path fill="#D22F27" d="M39.497 28.46l-4.273 2.123c-.645.32-.978 1.087-.775 1.804 1.238 4.368 5.942 19.198 15.146 28.946.513.543 1.346.563 1.91.067l2.568-2.253C45.247 48.782 40.748 33.316 39.497 28.46z"/><path fill="#5C9E31" d="M31.523 50.207H12.464A1.468 1.468 0 0111 48.743v-4.294c0-.805.659-1.464 1.464-1.464h19.06c.805 0 1.463.659 1.463 1.464v4.294c0 .805-.659 1.464-1.464 1.464zM31.523 28.207H12.464A1.468 1.468 0 0111 26.743v-4.294c0-.805.659-1.464 1.464-1.464h19.06c.805 0 1.463.659 1.463 1.464v4.294c0 .805-.659 1.464-1.464 1.464z"/><path fill="#B1CC33" d="M31.523 20.985h-.207l-14.424 7.222h14.631c.805 0 1.464-.659 1.464-1.464v-4.294c0-.805-.659-1.464-1.464-1.464zM31.523 42.985h-.207l-14.424 7.222h14.631c.805 0 1.464-.659 1.464-1.464v-4.294c0-.805-.659-1.464-1.464-1.464z"/><g><path fill="none" stroke="#000" stroke-linecap="round" stroke-linejoin="round" stroke-miterlimit="10" stroke-width="2" d="M41 12c3.344-.501 6.746-.48 10.5 2.051 7.869 5.306 8.144 17.168 8.153 17.67.005.385-.138.75-.384.98a.838.838 0 01-.573.238.782.782 0 01-.288-.056C57.874 32.673 46.657 28.21 39 18M40.445 27.99l-5.42 2.693c-.645.32-.979 1.086-.775 1.804 1.238 4.368 5.941 19.198 15.146 28.946.512.543 1.345.562 1.91.067l9.246-8.115c.705-.618.703-1.763-.014-2.349-3.125-2.553-10.873-9.648-18.287-22.467-.375-.649-1.15-.905-1.806-.58z"/><path d="M15.95 13.574c.013-2.93-.532-5.707-1.54-7.885a3.511 3.511 0 011.266-.184l13.16.059c.574.002 1.003.099 1.265.195-1.029 2.17-1.598 4.941-1.611 7.871a26.646 26.646 0 00.315 4.115c.18 1.167.432 2.257.733 3.24h2.102a20.397 20.397 0 01-.858-3.546 24.586 24.586 0 01-.292-3.8c.012-2.819.582-5.445 1.603-7.394a1.43 1.43 0 00-.044-1.43c-.551-.915-2.016-1.246-3.204-1.252l-13.16-.058c-1.21.02-2.655.313-3.215 1.223a1.43 1.43 0 00-.057 1.428c1.003 1.96 1.55 4.59 1.537 7.41-.012 2.601-.511 5.39-1.254 7.419h2.118c.693-2.155 1.124-4.818 1.136-7.411zM15.85 35.74c.012-2.53-.4-5.312-1.102-7.533h-2.111c.037.103.076.199.113.306.7 2.072 1.112 4.77 1.1 7.218-.01 2.533-.485 5.24-1.195 7.254h2.118c.66-2.124 1.066-4.72 1.078-7.245zM30.39 35.805c.012-2.677.538-5.558 1.317-7.598h-2.12c-.727 2.186-1.185 4.922-1.196 7.589-.012 2.497.362 5.071.99 7.189h2.111c-.675-2.012-1.113-4.683-1.101-7.18zM28.525 54.649a25.903 25.903 0 00-.234 3.312c-.013 2.93.532 5.708 1.541 7.886-.262.094-.69.18-1.267.184l-13.16-.06c-.573-.002-1.003-.099-1.264-.195 1.028-2.17 1.597-4.94 1.61-7.87.013-2.708-.434-5.491-1.162-7.699h-2.113c.776 2.051 1.288 4.979 1.275 7.689-.012 2.819-.582 5.445-1.603 7.394a1.43 1.43 0 00.044 1.43c.551.915 2.017 1.247 3.205 1.252l13.16.06h.028c1.182 0 2.63-.32 3.186-1.224a1.43 1.43 0 00.058-1.429c-1.004-1.959-1.55-4.59-1.538-7.41a24.02 24.02 0 01.217-3.055v-.002c.237-1.775.653-3.426 1.162-4.705h-2.133c-.442 1.29-.793 2.797-1.012 4.442z"/></g></svg><svg viewBox="0 0 72 72" id="1F38D" xmlns="http://www.w3.org/2000/svg"><path fill="none" stroke="#000" stroke-linecap="round" stroke-miterlimit="10" stroke-width="2" d="M22.707 46.707l9.192 9.193M29.071 48.828v4.243M26.243 46v4.243M24.828 53.071h4.243M22 50.243h4.243M49.293 46.707L40.1 55.9M42.929 48.828v4.243M45.757 46v4.243M47.172 53.071h-4.243M50 50.243h-4.243M36 43v13M33 49l3 3M33 45l3 3M39 49l-3 3M39 45l-3 3M35 22v11"/><path fill="none" stroke="#000" stroke-linecap="round" stroke-linejoin="round" stroke-width="2" d="M37 28v11"/><path d="M36.5 8c1.38 0 2.5 1.79 2.5 4s-1.12 4-2.5 4-2.5-1.79-2.5-4 1.12-4 2.5-4m0-2C33.977 6 32 8.636 32 12s1.977 6 4.5 6 4.5-2.636 4.5-6-1.977-6-4.5-6zM40.5 24c1.38 0 2.5 1.79 2.5 4s-1.12 4-2.5 4-2.5-1.79-2.5-4 1.12-4 2.5-4m0-2c-2.523 0-4.5 2.635-4.5 6s1.977 6 4.5 6 4.5-2.636 4.5-6-1.977-6-4.5-6z"/><path d="M31.5 18c1.38 0 2.5 1.79 2.5 4s-1.12 4-2.5 4-2.5-1.79-2.5-4 1.12-4 2.5-4m0-2c-2.523 0-4.5 2.635-4.5 6s1.977 6 4.5 6 4.5-2.636 4.5-6-1.977-6-4.5-6z"/><path d="M36.5 8c1.38 0 2.5 1.79 2.5 4v12.818A1.982 1.982 0 0140.5 24c1.38 0 2.5 1.79 2.5 4v27H29V22c0-2.21 1.12-4 2.5-4s2.5 1.79 2.5 4l.08-10c0-2.21 1.039-4 2.42-4m0-2c-2.52 0-4.42 2.58-4.42 6l-.033 4.042A3.572 3.572 0 0031.5 16c-2.523 0-4.5 2.635-4.5 6v33a2 2 0 002 2h14a2 2 0 002-2V28c0-3.139-1.72-5.643-4-5.965V12c0-3.365-1.977-6-4.5-6z"/><path fill="none" stroke="#000" stroke-linecap="round" stroke-linejoin="round" stroke-width="2" d="M32 56v11M40 56v11M46 59.5H26M26 63.5h20"/><g><path fill="#f4aa41" d="M26 56h20v11H26z"/><path fill="none" stroke="#a57939" stroke-linecap="round" stroke-linejoin="round" stroke-width="2" d="M32 56v11M40 56v11M46 59.5H26M26 63.5h20"/><path fill="#b1cc33" d="M29 22h5v33h-5z"/><path fill="#5c9e31" d="M34 12h5v43h-5z"/><path fill="#b1cc33" d="M38 28h5v27h-5z"/><ellipse cx="36.5" cy="12" fill="#f4aa41" rx="2.5" ry="4"/><ellipse cx="40.5" cy="28" fill="#f4aa41" rx="2.5" ry="4"/><ellipse cx="31.5" cy="22" fill="#f4aa41" rx="2.5" ry="4"/><path fill="none" stroke="#186648" stroke-linecap="round" stroke-miterlimit="10" stroke-width="2" d="M22.707 46.707l9.192 9.193M29.071 48.828v4.243M26.243 46v4.243M24.828 53.071h4.243M22 50.243h4.243M49.293 46.707L40.1 55.9M42.929 48.828v4.243M45.757 46v4.243M47.172 53.071h-4.243M50 50.243h-4.243M36 43v13M33 49l3 3M33 45l3 3M39 49l-3 3M39 45l-3 3"/></g><g><path fill="none" stroke="#000" stroke-linecap="round" stroke-linejoin="round" stroke-width="2" d="M26 56h20v11H26z"/></g></svg><svg viewBox="0 0 72 72" id="1F38E" xmlns="http://www.w3.org/2000/svg"><path fill="#3F3F3F" stroke-linecap="round" stroke-linejoin="round" stroke-miterlimit="10" stroke-width="2" d="M14 21h-.001c-2.535-1.037-4.22-2.872-4.22-4.962 0-3.237 4.041-5.862 9.025-5.862s9.024 2.625 9.024 5.862c0 2.09-1.684 3.925-4.22 4.961"/><ellipse cx="18.918" cy="31.854" fill="#3F3F3F" stroke-linecap="round" stroke-linejoin="round" stroke-miterlimit="10" stroke-width="2" rx="10.082" ry="12.544"/><path fill="#92D3F5" d="M4.33 56v-2.503c0-4.168 3.761-7.509 7.512-7.51 4.507 4.172 9.013 4.172 13.52 0 3.752.001 7.512 3.342 7.512 7.51V56"/><path fill="#EA5A47" d="M38.33 56v-2.503c0-4.168 3.761-7.509 7.512-7.51 4.507 4.172 9.014 4.172 13.52 0 3.752.001 7.512 3.342 7.512 7.51V56"/><path fill="#3F3F3F" stroke-linecap="round" stroke-linejoin="round" stroke-miterlimit="10" stroke-width="2" d="M48.114 20.823h-.001c-2.535-1.037-4.22-2.871-4.22-4.961 0-3.238 4.041-5.862 9.025-5.862 4.983 0 9.024 2.624 9.024 5.862 0 2.09-1.684 3.924-4.22 4.96"/><ellipse cx="52.918" cy="31.854" fill="#3F3F3F" stroke-linecap="round" stroke-linejoin="round" stroke-miterlimit="10" stroke-width="2" rx="10.082" ry="12.544"/><path fill="#FCEA2B" stroke-linecap="round" stroke-linejoin="round" stroke-miterlimit="10" stroke-width="1.937" d="M62 36.248c-.94 3.868-3.559 6.879-6.849 7.831l-.002.001a7.986 7.986 0 01-2.231.317c-4.304 0-7.937-3.44-9.082-8.148v-.002c.558-2.293 1.706-4.285 3.234-5.725a1.929 1.929 0 011.212-.518c.345-.022.7.046 1.025.207 1.112.55 2.332.854 3.61.854s2.5-.304 3.612-.854c.741-.367 1.64-.25 2.237.311 1.528 1.44 2.677 3.432 3.234 5.726zM28 36.248c-.94 3.868-3.559 6.879-6.849 7.831l-.002.001a7.986 7.986 0 01-2.231.317c-4.304 0-7.937-3.44-9.082-8.148v-.002c.558-2.293 1.706-4.285 3.234-5.725a1.929 1.929 0 011.212-.518c.345-.022.7.046 1.025.207a8.106 8.106 0 003.61.854 8.105 8.105 0 003.612-.854c.741-.367 1.64-.25 2.237.311 1.528 1.44 2.677 3.432 3.234 5.726z"/><g fill="none" stroke="#000" stroke-linecap="round" stroke-linejoin="round" stroke-miterlimit="10"><path stroke-width="2" d="M14 21h-.001c-2.535-1.037-4.22-2.872-4.22-4.962 0-3.237 4.041-5.862 9.025-5.862s9.024 2.625 9.024 5.862c0 2.09-1.684 3.925-4.22 4.961"/><ellipse cx="18.918" cy="31.854" stroke-width="2" rx="10.082" ry="12.544"/><path stroke-width="2" d="M4.33 55v-2.253c0-3.752 3.761-6.76 7.512-6.76 4.507 3.755 9.013 3.755 13.52 0 3.752 0 7.512 3.008 7.512 6.76V55M38.33 55v-2.253c0-3.752 3.761-6.76 7.512-6.76 4.507 3.755 9.014 3.755 13.52 0 3.752 0 7.512 3.008 7.512 6.76V55M48.114 20.823h-.001c-2.535-1.037-4.22-2.871-4.22-4.961 0-3.238 4.041-5.862 9.025-5.862 4.983 0 9.024 2.624 9.024 5.862 0 2.09-1.684 3.924-4.22 4.96"/><ellipse cx="52.918" cy="31.854" stroke-width="2" rx="10.082" ry="12.544"/><path stroke-width="1.937" d="M62 36.248v0c-.94 3.868-3.559 6.879-6.849 7.831l-.002.001a7.986 7.986 0 01-2.231.317c-4.304 0-7.937-3.44-9.082-8.148v-.002c.558-2.293 1.706-4.285 3.234-5.725a1.929 1.929 0 011.212-.518c.345-.022.7.046 1.025.207 1.112.55 2.332.854 3.61.854s2.5-.304 3.612-.854c.741-.367 1.64-.25 2.237.311 1.528 1.44 2.677 3.432 3.234 5.726z"/><path stroke-width="1.633" d="M55 35s2-3 4 0M47 35s2-3 4 0"/><path stroke-width="1.937" d="M28 36.248v0c-.94 3.868-3.559 6.879-6.849 7.831l-.002.001a7.986 7.986 0 01-2.231.317c-4.304 0-7.937-3.44-9.082-8.148v-.002c.558-2.293 1.706-4.285 3.234-5.725a1.929 1.929 0 011.212-.518c.345-.022.7.046 1.025.207a8.106 8.106 0 003.61.854 8.105 8.105 0 003.612-.854c.741-.367 1.64-.25 2.237.311 1.528 1.44 2.677 3.432 3.234 5.726z"/><path stroke-width="1.633" d="M21 35s2-3 4 0M13 35s2-3 4 0"/></g></svg><svg viewBox="0 0 72 72" id="1F38F" xmlns="http://www.w3.org/2000/svg"><path fill="#61b2e4" d="M58.692 19.154c2.923 0 7.308-2.462 7.308-2.462v9.846s-2.923-4.923-7.308-2.461S47 26.538 47 26.538L45.538 29h-7.307l-1.462-2.462A20.799 20.799 0 0128 24.078v-3.692s4.385-3.556 8.77-3.556v-2.462s9.042-3 17.538 1.094v2.462a7.098 7.098 0 004.384 1.23z"/><path fill="#d22f27" d="M56.692 40.154c2.923 0 7.308-2.462 7.308-2.462v9.846s-2.923-4.923-7.308-2.461S45 47.539 45 47.539L43.538 50h-7.307l-1.462-2.462A20.799 20.799 0 0126 45.078v-3.692s4.385-3.556 8.77-3.556v-2.462s9.042-3 17.538 1.095v2.461a7.098 7.098 0 004.384 1.23z"/><g stroke="#000" stroke-linecap="round" stroke-linejoin="round" stroke-width="2"><path fill="none" d="M18 67V8"/><circle cx="18" cy="7" r="1"/><circle cx="18" cy="7" r="2"/><circle cx="36" cy="21.367" r="1"/><path fill="none" d="M42 20s3 0 4 2"/><circle cx="34" cy="42.367" r="1"/><path fill="none" d="M40 41s3 0 4 2M28 20.385L18 22l10 2.077M26 41.385L18 43l8 2.077M58.692 19.154c2.923 0 7.308-2.462 7.308-2.462v9.846s-2.923-4.923-7.308-2.461S47 26.538 47 26.538L45.538 29h-7.307l-1.462-2.462A20.799 20.799 0 0128 24.078v-3.692s4.385-3.556 8.77-3.556v-2.462s9.042-3 17.538 1.094v2.462a7.098 7.098 0 004.384 1.23z"/><path fill="none" d="M56.692 40.154c2.923 0 7.308-2.462 7.308-2.462v9.846s-2.923-4.923-7.308-2.461S45 47.539 45 47.539L43.538 50h-7.307l-1.462-2.462A20.799 20.799 0 0126 45.078v-3.692s4.385-3.556 8.77-3.556v-2.462s9.042-3 17.538 1.095v2.461a7.098 7.098 0 004.384 1.23z"/></g></svg><svg viewBox="0 0 72 72" id="1F390" xmlns="http://www.w3.org/2000/svg"><path fill="#92d3f5" d="M55.177 38.627a19.673 19.673 0 00.494-9.215A19.997 19.997 0 0016 33a19.742 19.742 0 00.824 5.63 2.005 2.005 0 001.924 1.43h34.504a2.007 2.007 0 001.925-1.434z"/><path fill="#f1b31c" d="M39 41a3 3 0 01-6 0"/><path fill="#d0cfce" d="M16 54a14.423 14.423 0 0014-4l4 6a14.423 14.423 0 01-14 4z"/><g><g fill="none" stroke="#000" stroke-width="2"><path stroke-miterlimit="10" d="M55.177 38.627a19.673 19.673 0 00.494-9.215A19.997 19.997 0 0016 33a19.742 19.742 0 00.824 5.63 2.005 2.005 0 001.924 1.43h34.504a2.007 2.007 0 001.925-1.434z"/><path stroke-linecap="round" stroke-miterlimit="10" d="M36 13s.789-4.106-1-5"/><path stroke-miterlimit="10" d="M36 44s1 6-4 9M39 41a3 3 0 01-6 0"/><path stroke-linejoin="round" d="M16 54a14.423 14.423 0 0014-4l4 6a14.423 14.423 0 01-14 4z"/></g></g></svg><svg viewBox="0 0 72 72" id="1F391" xmlns="http://www.w3.org/2000/svg"><g stroke="#000"><circle cx="36" cy="21" r="9" fill="none" stroke-miterlimit="10" stroke-width="2"/><g fill="none" stroke-linecap="round" stroke-miterlimit="10" stroke-width="2"><path d="M15.006 43.04a9.816 9.816 0 016.623 2.957M15.534 40.011a10.281 10.281 0 016.56 2.453M16.275 37.006a10.585 10.585 0 016.445 2.138M17.424 34.009a10.599 10.599 0 016.161 2.026M24.846 33.252a9.97 9.97 0 00-5.27-2.155M23.076 28.678a8.757 8.757 0 013.575 2.342"/></g><g fill="none" stroke-linecap="round" stroke-miterlimit="10" stroke-width="2"><path d="M20.006 52.04a9.816 9.816 0 016.623 2.957M20.534 49.011a10.281 10.281 0 016.56 2.453M21.275 46.006a10.585 10.585 0 016.445 2.138M22.424 43.009a10.599 10.599 0 016.161 2.026M29.846 42.252a9.97 9.97 0 00-5.27-2.155M28.076 37.678a8.757 8.757 0 013.575 2.342"/></g><g fill="none" stroke-linecap="round" stroke-miterlimit="10" stroke-width="2"><path d="M25 28a12.06 12.06 0 00-7 5c-2.88 4.32-3.686 14.857-3.912 20.421M30 37a12.06 12.06 0 00-7 5c-2.292 3.438-3.27 10.81-3.687 16.484"/></g><path stroke-linejoin="round" stroke-width=".75" d="M52 22.46l.618.442-.229-.724.611-.451-.76-.006L52 21l-.24.721-.76.006.611.361-.229.814.618-.442z"/><path stroke-linejoin="round" stroke-width="1.5" d="M54.897 32.071l1.3.929-.482-1.523L57 30.528l-1.598-.012L54.897 29l-.505 1.426-1.598.102 1.286.949L53.597 33l1.3-.929z"/><path stroke-linejoin="round" d="M18.5 24.337l.927.663-.344-1.087.917-.676-1.14-.099-.36-.991-.36 1.081-1.14.009.917.676L17.573 25l.927-.663z"/><circle cx="53.75" cy="47.75" r="2.25" fill="none" stroke-linecap="round" stroke-miterlimit="10" stroke-width="2"/><circle cx="47" cy="47.75" r="2.25" fill="none" stroke-linecap="round" stroke-miterlimit="10" stroke-width="2"/><circle cx="40.25" cy="47.75" r="2.25" fill="none" stroke-linecap="round" stroke-miterlimit="10" stroke-width="2"/><circle cx="43.625" cy="41.75" r="2.25" fill="none" stroke-linecap="round" stroke-miterlimit="10" stroke-width="2"/><circle cx="50.375" cy="41.75" r="2.25" fill="none" stroke-linecap="round" stroke-miterlimit="10" stroke-width="2"/><circle cx="47" cy="35.75" r="2.25" fill="none" stroke-linecap="round" stroke-miterlimit="10" stroke-width="2"/></g><circle cx="36" cy="36" r="28" fill="#1e50a0"/><circle cx="36" cy="21" r="9" fill="#f1b31c" stroke="#f1b31c" stroke-miterlimit="10" stroke-width="2"/><circle cx="53.75" cy="47.75" r="2.25" fill="#d0cfce" stroke="#d0cfce" stroke-linecap="round" stroke-miterlimit="10" stroke-width="2"/><circle cx="47" cy="47.75" r="2.25" fill="#d0cfce" stroke="#d0cfce" stroke-linecap="round" stroke-miterlimit="10" stroke-width="2"/><circle cx="40.25" cy="47.75" r="2.25" fill="#d0cfce" stroke="#d0cfce" stroke-linecap="round" stroke-miterlimit="10" stroke-width="2"/><circle cx="43.625" cy="41.75" r="2.25" fill="#d0cfce" stroke="#d0cfce" stroke-linecap="round" stroke-miterlimit="10" stroke-width="2"/><circle cx="50.375" cy="41.75" r="2.25" fill="#d0cfce" stroke="#d0cfce" stroke-linecap="round" stroke-miterlimit="10" stroke-width="2"/><circle cx="47" cy="35.75" r="2.25" fill="#d0cfce" stroke="#d0cfce" stroke-linecap="round" stroke-miterlimit="10" stroke-width="2"/><g fill="none" stroke="#f4aa41" stroke-linecap="round" stroke-miterlimit="10" stroke-width="2"><path d="M15.006 43.04a9.816 9.816 0 016.623 2.957M15.534 40.011a10.281 10.281 0 016.56 2.453M16.275 37.006a10.585 10.585 0 016.445 2.138M17.424 34.009a10.599 10.599 0 016.161 2.026M24.846 33.252a9.97 9.97 0 00-5.27-2.155M23.076 28.678a8.757 8.757 0 013.575 2.342"/></g><g fill="none" stroke="#f4aa41" stroke-linecap="round" stroke-miterlimit="10" stroke-width="2"><path d="M20.006 52.04a9.816 9.816 0 016.623 2.957M20.534 49.011a10.281 10.281 0 016.56 2.453M21.275 46.006a10.585 10.585 0 016.445 2.138M22.424 43.009a10.599 10.599 0 016.161 2.026M29.846 42.252a9.97 9.97 0 00-5.27-2.155M28.076 37.678a8.757 8.757 0 013.575 2.342"/></g><g fill="none" stroke="#5c9e31" stroke-linecap="round" stroke-miterlimit="10" stroke-width="2"><path d="M25 28a12.06 12.06 0 00-7 5c-2.88 4.32-3.686 14.857-3.912 20.421M30 37a12.06 12.06 0 00-7 5c-2.292 3.438-3.27 10.81-3.687 16.484"/></g><path fill="#f1b31c" stroke="#f1b31c" stroke-linejoin="round" stroke-width=".75" d="M52 22.46l.618.442-.229-.724.611-.451-.76-.006L52 21l-.24.721-.76.006.611.361-.229.814.618-.442z"/><path fill="#f1b31c" stroke="#f1b31c" stroke-linejoin="round" stroke-width="1.5" d="M54.897 32.071l1.3.929-.482-1.523L57 30.528l-1.598-.012L54.897 29l-.505 1.426-1.598.102 1.286.949L53.597 33l1.3-.929z"/><path fill="#f1b31c" stroke="#f1b31c" stroke-linejoin="round" d="M18.5 24.337l.927.663-.344-1.087.917-.676-1.14-.099-.36-.991-.36 1.081-1.14.009.917.676L17.573 25l.927-.663z"/><path fill="#a57939" stroke="#a57939" stroke-linecap="round" stroke-linejoin="round" stroke-width="2" d="M36 64a27.89 27.89 0 0018.617-7.092q.496-.443.971-.908H40zM58.243 53H34v3h21.588l2.655-3z"/><g><g fill="none" stroke="#000" stroke-width="2"><path stroke-linecap="round" stroke-miterlimit="10" d="M55.341 49.341a2.25 2.25 0 01-3.182-3.182M48.591 49.341a2.25 2.25 0 01-3.182-3.182M41.841 49.341a2.25 2.25 0 01-3.182-3.182M45.216 43.341a2.25 2.25 0 01-3.182-3.182M51.966 43.341a2.25 2.25 0 01-3.182-3.182M48.591 37.341a2.25 2.25 0 01-3.182-3.182"/><path stroke-linecap="round" stroke-linejoin="round" d="M58.243 53H34v3"/><path stroke-linecap="round" stroke-miterlimit="10" d="M42.364 27.364a9 9 0 01-12.728-12.728"/><path stroke-linecap="round" stroke-linejoin="round" d="M40 56l-4 8"/><circle cx="36" cy="36" r="28" stroke-linejoin="round"/></g></g></svg><svg viewBox="0 0 72 72" id="1F397" xmlns="http://www.w3.org/2000/svg"><path fill="#D22F27" d="M21.8 62.4L33 66l20-42.7c2.9-6 0-13.4-5.7-15.3"/><path fill="#EA5A47" d="M45 48.5l-6.5 13.1 1.7 3.4 11.2-3.5M25 8c-5.8 1.9-8.6 9.2-5.8 15.3L28 42.2l6.4-13.8"/><path fill="#D22F27" d="M41 20l5.9-12.8H25.3l6 12.8z"/><g fill="none" stroke="#000" stroke-linecap="round" stroke-linejoin="round" stroke-miterlimit="10" stroke-width="1.813"><path d="M21.8 62.4L33 66l20-42.7c2.9-6 0-13.4-5.7-15.3L21.8 62.4zM38.9 62.4l1.3 2.6 11.2-3.5-6-12.2M34.2 27.6L25 8c-5.8 1.9-8.6 9.2-5.8 15.3l8.5 18.3M33.7 19.1h4.6M43.7 8.1H28.6"/></g></svg><svg viewBox="0 0 72 72" id="1F39F" xmlns="http://www.w3.org/2000/svg"><path fill="#D22F27" d="M57.6 35.9c0-4.9 3.9-9.1 9.4-10.6v-5.2H5v5.5c4.9 1.7 8.4 5.7 8.4 10.3S9.9 44.6 5 46.3v5.5h62v-5.2c-5.4-1.5-9.4-5.7-9.4-10.7z"/><g fill="none" stroke="#000" stroke-linejoin="round" stroke-miterlimit="10"><path stroke-width="2.216" d="M57.1 35.6c0-4.9 3.9-9.1 9.4-10.6v-5.2h-62v5.5c4.9 1.7 8.4 5.7 8.4 10.3s-3.5 8.6-8.4 10.3v5.5h62v-5.2c-5.4-1.5-9.4-5.7-9.4-10.6z"/><path stroke-width="2.095" d="M18.5 25h34v20h-34z"/></g><path fill="none" stroke="#FFF" stroke-linejoin="round" stroke-miterlimit="10" stroke-width="2.1" d="M18.5 25h34v20h-34z"/></svg><svg viewBox="0 0 72 72" id="1F3AB" xmlns="http://www.w3.org/2000/svg"><path fill="#FCEA2B" d="M48.713 23.515c-3.428-3.552-4.029-8.784-1.869-12.933l-3.6-3.732L6.886 41.936l3.801 3.94c4.073-1.574 8.868-.671 12.09 2.667 3.222 3.339 3.953 8.164 2.236 12.178l3.802 3.939 36.357-35.086-3.6-3.732c-4.225 2.011-9.431 1.225-12.86-2.327z"/><path fill="none" stroke="#000" stroke-miterlimit="10" stroke-width="2" d="M48.155 23.505c-3.428-3.552-4.029-8.784-1.869-12.933l-3.6-3.732L6.328 41.926l3.801 3.94c4.072-1.574 8.868-.671 12.09 2.667s3.953 8.164 2.236 12.178l3.801 3.939 36.358-35.086-3.6-3.732c-4.225 2.011-9.431 1.225-12.86-2.327z"/><circle cx="37.122" cy="22.122" r="2" transform="rotate(-44.781 37.124 22.123)"/><circle cx="43.612" cy="28.661" r="2" transform="rotate(-44.781 43.614 28.661)"/><circle cx="50.101" cy="35.199" r="2" transform="rotate(-44.781 50.104 35.2)"/></svg><svg viewBox="0 0 72 72" id="1F9E7" xmlns="http://www.w3.org/2000/svg"><path fill="#d22f27" d="M17 5h38v62H17z"/><circle cx="36" cy="27" r="10" fill="#f1b31c"/><g><g fill="none" stroke="#000"><g stroke-linecap="round" stroke-linejoin="round"><path d="M31.887 21.413v2.454M29.924 23.867h3.85A12.01 12.01 0 0129.7 28.85"/><path d="M33.587 28.264a5.238 5.238 0 01-1.7-1.452v5.775M34.812 22.148H41.7M35.98 23.84h4.488v2.01H35.98zM35.37 32.537v-4.922h5.796v4.922M35.37 29.667h5.796M35.37 31.716h5.796M38.229 31.716v-4.101"/></g><g stroke-linecap="round" stroke-miterlimit="10" stroke-width="2"><circle cx="36" cy="27" r="10"/><path d="M55 18a25.4 25.4 0 01-9.289 6.652M26.289 24.652A25.4 25.4 0 0117 18"/></g><path stroke-linejoin="round" stroke-width="2" d="M17 5h38v62H17z"/></g></g></svg><svg viewBox="0 0 72 72" id="1F9E8" xmlns="http://www.w3.org/2000/svg"><g fill="none" stroke="#000" stroke-linecap="round" stroke-miterlimit="10" stroke-width="2"><path d="M62 23l5.657-1.414M55 14.343L56.414 20M60 20l3-5"/></g><rect width="40" height="13" x="3.516" y="31.28" fill="#d22f27" rx="1" transform="rotate(-45 23.516 37.78)"/><g fill="none" stroke="#fcea2b" stroke-linecap="round" stroke-miterlimit="10" stroke-width="2"><path d="M62 23l5.657-1.414M55 14.343L56.414 20M60 20l3-5"/></g><g fill="none" stroke="#000" stroke-linejoin="round" stroke-width="2"><rect width="40" height="13" x="3.516" y="31.28" rx="1" transform="rotate(-45 23.516 37.78)"/><path stroke-linecap="round" d="M58 23.28s-2.757 6.829-7 4 .472-8.764-4-11c-4-2-9.342 7.357-9.342 7.357"/></g></svg><svg viewBox="0 0 72 72" id="2728" xmlns="http://www.w3.org/2000/svg"><path fill="#FCEA2B" d="M25.705 40.107c.146.805.925 1.462 1.968 1.659l11.906 2.25c.557.104.564.702.006.808l-11.919 2.252c-1.043.197-1.815.852-1.96 1.657l-3.157 17.493c-.087.48-1.007.48-1.094 0l-3.156-17.492c-.146-.805-.918-1.461-1.961-1.658l-11.92-2.252c-.557-.105-.557-.702 0-.807l11.92-2.253c1.043-.197 1.172-1.141 1.317-1.946l2.653-14.092c.087-.482 2.154-3.595 2.24-3.113l3.157 17.494z"/><path fill="#F1B31C" d="M22.65 66.226l1.582-15.404c-2.8-4.618-3.87-9.41-5.173-12.822l-1.355 2.12c-.135.805-.852 1.46-1.82 1.657L4.815 44.028c-.517.106-.517.702 0 .807l11.067 2.25c.968.198 2.686.853 2.82 1.658l2.931 17.483c.08.48.935.48 1.016 0z"/><path fill="#FCEA2B" d="M46.676 19.305c.105.581.668 1.056 1.421 1.198l8.599 1.625c.402.076.407.507.004.583l-8.608 1.627c-.753.142-1.311.616-1.416 1.197l-2.28 12.633c-.062.348-.727.348-.79 0l-2.28-12.633c-.104-.581-.662-1.055-1.415-1.197l-8.609-1.626c-.402-.077-.402-.507 0-.583l8.609-1.627c.753-.142.846-.825.951-1.406l1.793-10.178c.063-.347 1.679-2.595 1.741-2.248l2.28 12.635z"/><path fill="#F1B31C" d="M44.747 38.169l.865-11.125c-2.022-3.336-3.517-6.796-4.458-9.26l-.257 1.53c-.097.582-.615 1.055-1.315 1.197l-7.992 1.626c-.374.076-.374.507 0 .583l7.992 1.625c.7.142 2.218.616 2.315 1.197l2.116 12.627c.059.347.676.347.734 0z"/><path fill="#FCEA2B" d="M56.882 48.936c.087.464.55.842 1.168.955l7.066 1.296c.331.06.335.405.004.465l-7.074 1.297c-.619.114-1.077.491-1.164.955L55.01 63.978c-.051.277-.598.277-.65 0l-1.873-10.074c-.086-.464-.544-.841-1.163-.955l-7.075-1.296c-.33-.061-.33-.405 0-.465l7.075-1.298c.619-.113.695-.657.782-1.12l1.473-8.117c.052-.277 1.38-2.07 1.431-1.792l1.873 10.075z"/><path fill="#F1B31C" d="M55.231 63.978l1.054-8.87c-1.612-2.66-2.804-5.42-3.555-7.385l-.204 1.22c-.078.464-.491.841-1.049.955l-6.373 1.296c-.299.06-.299.404 0 .465l6.373 1.296c.558.113.97.491 1.049.954l2.12 10.07c.047.276.54.276.585 0z"/><g fill="none" stroke="#000" stroke-linecap="round" stroke-linejoin="round" stroke-miterlimit="10" stroke-width="2"><path d="M20 32l2.142-11.16.7 4.176 2.33 13.905c.26 1.56 1.643 2.816 3.52 3.198L40 44.419l-11.316 2.303c-1.872.381-3.251 1.636-3.513 3.197L22.142 68l-3.029-18.08c-.261-1.561-1.64-2.816-3.513-3.197L4.284 44.42 15.6 42.117C17.473 41.737 18.739 39.56 19 38M42.556 13.45l1.547-8.06.505 3.016 1.682 10.043c.19 1.126 1.187 2.033 2.543 2.309L57 22.42l-8.173 1.663c-1.352.275-2.348 1.181-2.537 2.308L44.103 39.45l-2.188-13.058c-.189-1.127-1.185-2.034-2.537-2.309l-8.173-1.663 8.173-1.663c1.352-.275 2.267-1.847 2.455-2.974M53.848 44.267l1.234-6.428.403 2.406 1.341 8.008c.151.899.947 1.622 2.028 1.842l6.512 1.325-6.517 1.326c-1.078.22-1.872.942-2.023 1.84L55.082 65l-1.745-10.413c-.15-.899-.944-1.621-2.023-1.84l-6.517-1.327 6.517-1.326c1.079-.22 1.808-1.473 1.958-2.371"/></g></svg></svg>