<?xml version="1.0" encoding="utf-8"?><svg viewBox="0 0 72 72" xmlns="http://www.w3.org/2000/svg" xmlns:xlink="http://www.w3.org/1999/xlink"><style>:root>svg{display:none}:root>svg:target{display:block}</style><svg viewBox="0 0 72 72" id="1F600" xmlns="http://www.w3.org/2000/svg"><circle cx="36" cy="36" r="23" fill="#FCEA2B"/><path fill="#FFF" d="M50.595 41.64a11.557 11.557 0 0 1-.87 4.49c-12.49 3.03-25.43.34-27.49-.13a11.435 11.435 0 0 1-.83-4.36h.11s14.8 3.59 28.89.07l.19-.07z"/><path fill="#EA5A47" d="M49.725 46.13c-1.79 4.27-6.35 7.23-13.69 7.23-7.41 0-12.03-3.03-13.8-7.36 2.06.47 15 3.16 27.49.13z"/><circle cx="36" cy="36" r="23" fill="none" stroke="#000" stroke-linecap="round" stroke-linejoin="round" stroke-width="2"/><path fill="none" stroke="#000" stroke-linecap="round" stroke-linejoin="round" stroke-width="2" d="M50.595 41.64a11.557 11.557 0 0 1-.87 4.49c-12.49 3.03-25.43.34-27.49-.13a11.435 11.435 0 0 1-.83-4.36h.11s14.8 3.59 28.89.07l.19-.07z"/><path fill="none" stroke="#000" stroke-linecap="round" stroke-linejoin="round" stroke-width="2" d="M49.725 46.13c-1.79 4.27-6.35 7.23-13.69 7.23-7.41 0-12.03-3.03-13.8-7.36 2.06.47 15 3.16 27.49.13z"/><path d="M30 31a3.001 3.001 0 0 1-6 0c0-1.655 1.345-3 3-3s3 1.345 3 3m18 0a3.001 3.001 0 0 1-6 0c0-1.655 1.345-3 3-3s3 1.345 3 3"/></svg><svg viewBox="0 0 72 72" id="1F601" xmlns="http://www.w3.org/2000/svg"><circle cx="36" cy="36" r="23" fill="#fcea2b"/><path fill="#fff" d="M50.595 41.64a11.555 11.555 0 0 1-.87 4.49c-12.49 3.03-25.43.34-27.49-.13a11.435 11.435 0 0 1-.83-4.36h.11s14.8 3.59 28.89.07z"/><path fill="#fff" d="M49.725 46.13c-1.79 4.27-6.35 7.23-13.69 7.23-7.41 0-12.03-3.03-13.8-7.36 2.06.47 15 3.16 27.49.13z"/><g fill="none" stroke="#000" stroke-linecap="round" stroke-width="2"><circle cx="36" cy="36" r="23" stroke-linejoin="round"/><path stroke-linejoin="round" d="M50.595 41.64a11.555 11.555 0 0 1-.87 4.49c-12.49 3.03-25.43.34-27.49-.13a11.435 11.435 0 0 1-.83-4.36h.11s14.8 3.59 28.89.07z"/><path stroke-linejoin="round" d="M49.725 46.13c-1.79 4.27-6.35 7.23-13.69 7.23-7.41 0-12.03-3.03-13.8-7.36 2.06.47 15 3.16 27.49.13z"/><path stroke-miterlimit="10" d="M31.694 32.404a4.726 4.726 0 0 0-8.638 0m25.888 0a4.726 4.726 0 0 0-8.638 0"/></g></svg><svg viewBox="0 0 72 72" id="1F602" xmlns="http://www.w3.org/2000/svg"><circle cx="36" cy="36" r="24" fill="#fcea2b"/><path fill="#fff" d="M50.595 41.64a11.555 11.555 0 0 1-.87 4.49c-12.49 3.03-25.43.34-27.49-.13a11.435 11.435 0 0 1-.83-4.36h.11s14.8 3.59 28.89.07z"/><path fill="#ea5a47" d="M49.725 46.13c-1.79 4.27-6.35 7.23-13.69 7.23-7.41 0-12.03-3.03-13.8-7.36 2.06.47 15 3.16 27.49.13z"/><path fill="#92d3f5" d="M65.756 47.338a4.242 4.242 0 0 1-6 0c-2.973-2.97-3.007-8.96-3.007-9.02.231.013 6.05.063 9.007 3.019a4.241 4.241 0 0 1 0 6zm-59.516.001a4.242 4.242 0 0 1-.002-6.002c2.972-2.971 8.961-3.006 9.02-3.006-.012.231-.062 6.051-3.018 9.007a4.241 4.241 0 0 1-6 0z"/><g fill="none" stroke="#000" stroke-width="2"><path stroke-linecap="round" stroke-linejoin="round" d="m58.848 33.34-.02-.167a23.003 23.003 0 0 0-45.624-.253c-.015.107-.039.313-.052.42m4.031 15.889A23.531 23.531 0 0 0 36 59a23.343 23.343 0 0 0 18.757-9.687"/><path stroke-linecap="round" stroke-linejoin="round" d="M20.695 28.2a6.306 6.306 0 0 1 3.39-3 6.304 6.304 0 0 1 4.53-.42m22.69 3.42a7.19 7.19 0 0 0-7.909-3.43m7.199 16.87a11.555 11.555 0 0 1-.87 4.49c-12.49 3.03-25.43.34-27.49-.13a11.435 11.435 0 0 1-.83-4.36h.11s14.8 3.59 28.89.07z"/><path stroke-linecap="round" stroke-linejoin="round" d="M49.725 46.13c-1.79 4.27-6.35 7.23-13.69 7.23-7.41 0-12.03-3.03-13.8-7.36 2.06.47 15 3.16 27.49.13z"/><path stroke-linejoin="round" d="M65.756 47.338a4.242 4.242 0 0 1-6 0c-2.973-2.97-3.007-8.96-3.007-9.02.231.013 6.05.063 9.007 3.019a4.241 4.241 0 0 1 0 6zm-59.516.001a4.242 4.242 0 0 1-.002-6.002c2.972-2.971 8.961-3.006 9.02-3.006-.012.231-.062 6.051-3.018 9.007a4.241 4.241 0 0 1-6 0z"/><path stroke-linecap="round" stroke-miterlimit="10" d="M31.694 35.164a4.726 4.726 0 0 0-8.638 0m25.888 0a4.726 4.726 0 0 0-8.638 0"/></g></svg><svg viewBox="0 0 72 72" id="1F603" xmlns="http://www.w3.org/2000/svg"><circle cx="36" cy="36" r="23" fill="#fcea2b"/><path fill="#fff" d="M50.595 41.64a11.555 11.555 0 0 1-.87 4.49c-12.49 3.03-25.43.34-27.49-.13a11.435 11.435 0 0 1-.83-4.36h.11s14.8 3.59 28.89.07z"/><path fill="#ea5a47" d="M49.725 46.13c-1.79 4.27-6.35 7.23-13.69 7.23-7.41 0-12.03-3.03-13.8-7.36 2.06.47 15 3.16 27.49.13z"/><circle cx="36" cy="36" r="23" fill="none" stroke="#000" stroke-linecap="round" stroke-linejoin="round" stroke-width="2"/><ellipse cx="28.568" cy="30.818" rx="3" ry="5.404"/><ellipse cx="43.432" cy="30.822" rx="3" ry="5.404"/><path fill="none" stroke="#000" stroke-linecap="round" stroke-linejoin="round" stroke-width="2" d="M50.595 41.64a11.555 11.555 0 0 1-.87 4.49c-12.49 3.03-25.43.34-27.49-.13a11.435 11.435 0 0 1-.83-4.36h.11s14.8 3.59 28.89.07z"/><path fill="none" stroke="#000" stroke-linecap="round" stroke-linejoin="round" stroke-width="2" d="M49.725 46.13c-1.79 4.27-6.35 7.23-13.69 7.23-7.41 0-12.03-3.03-13.8-7.36 2.06.47 15 3.16 27.49.13z"/></svg><svg viewBox="0 0 72 72" id="1F604" xmlns="http://www.w3.org/2000/svg"><circle cx="36" cy="36" r="23" fill="#fcea2b"/><path fill="#fff" d="M50.595 41.64a11.555 11.555 0 0 1-.87 4.49c-12.49 3.03-25.43.34-27.49-.13a11.435 11.435 0 0 1-.83-4.36h.11s14.8 3.59 28.89.07z"/><path fill="#ea5a47" d="M49.725 46.13c-1.79 4.27-6.35 7.23-13.69 7.23-7.41 0-12.03-3.03-13.8-7.36 2.06.47 15 3.16 27.49.13z"/><g fill="none" stroke="#000" stroke-linecap="round" stroke-width="2"><circle cx="36" cy="36" r="23" stroke-linejoin="round"/><path stroke-linejoin="round" d="M50.595 41.64a11.555 11.555 0 0 1-.87 4.49c-12.49 3.03-25.43.34-27.49-.13a11.435 11.435 0 0 1-.83-4.36h.11s14.8 3.59 28.89.07z"/><path stroke-linejoin="round" d="M49.725 46.13c-1.79 4.27-6.35 7.23-13.69 7.23-7.41 0-12.03-3.03-13.8-7.36 2.06.47 15 3.16 27.49.13z"/><path stroke-miterlimit="10" d="M31.694 32.404a4.726 4.726 0 0 0-8.638 0m25.888 0a4.726 4.726 0 0 0-8.638 0"/></g></svg><svg viewBox="0 0 72 72" id="1F605" xmlns="http://www.w3.org/2000/svg"><circle cx="36" cy="36" r="24" fill="#fcea2b"/><path fill="#92d3f5" d="M54.25 28.176a4.242 4.242 0 0 1-4.244-4.243c0-4.203 4.21-8.462 4.253-8.504.154.173 4.234 4.322 4.234 8.504a4.241 4.241 0 0 1-4.243 4.243z"/><path fill="#fff" d="M50.595 41.64a11.555 11.555 0 0 1-.87 4.49c-12.49 3.03-25.43.34-27.49-.13a11.435 11.435 0 0 1-.83-4.36h.11s14.8 3.59 28.89.07z"/><path fill="#ea5a47" d="M49.725 46.13c-1.79 4.27-6.35 7.23-13.69 7.23-7.41 0-12.03-3.03-13.8-7.36 2.06.47 15 3.16 27.49.13z"/><g fill="none" stroke="#000" stroke-width="2"><path stroke-linejoin="round" d="M54.25 28.176a4.242 4.242 0 0 1-4.244-4.243c0-4.203 4.21-8.462 4.253-8.504.154.173 4.234 4.322 4.234 8.504a4.241 4.241 0 0 1-4.243 4.243z"/><path stroke-linecap="round" stroke-linejoin="round" d="M48.094 16.433a22.958 22.958 0 1 0 10.4 14.745"/><path stroke-linecap="round" stroke-linejoin="round" d="M50.595 41.64a11.555 11.555 0 0 1-.87 4.49c-12.49 3.03-25.43.34-27.49-.13a11.435 11.435 0 0 1-.83-4.36h.11s14.8 3.59 28.89.07z"/><path stroke-linecap="round" stroke-linejoin="round" d="M49.725 46.13c-1.79 4.27-6.35 7.23-13.69 7.23-7.41 0-12.03-3.03-13.8-7.36 2.06.47 15 3.16 27.49.13z"/><path stroke-linecap="round" stroke-miterlimit="10" d="M31.694 33.404a4.726 4.726 0 0 0-8.638 0m25.888 0a4.726 4.726 0 0 0-8.638 0"/></g></svg><svg viewBox="0 0 72 72" id="1F606" xmlns="http://www.w3.org/2000/svg"><circle cx="36" cy="36" r="23" fill="#fcea2b"/><path fill="#fff" d="M50.595 41.64a11.555 11.555 0 0 1-.87 4.49c-12.49 3.03-25.43.34-27.49-.13a11.435 11.435 0 0 1-.83-4.36h.11s14.8 3.59 28.89.07z"/><path fill="#ea5a47" d="M49.725 46.13c-1.79 4.27-6.35 7.23-13.69 7.23-7.41 0-12.03-3.03-13.8-7.36 2.06.47 15 3.16 27.49.13z"/><g fill="none" stroke="#000" stroke-linecap="round" stroke-linejoin="round" stroke-width="2"><path d="m25.168 27.413 6.587 4.014-6.587 3.738m21.664-7.752-6.587 4.014 6.587 3.738"/><circle cx="36" cy="36" r="23"/><path d="M50.595 41.64a11.555 11.555 0 0 1-.87 4.49c-12.49 3.03-25.43.34-27.49-.13a11.435 11.435 0 0 1-.83-4.36h.11s14.8 3.59 28.89.07z"/><path d="M49.725 46.13c-1.79 4.27-6.35 7.23-13.69 7.23-7.41 0-12.03-3.03-13.8-7.36 2.06.47 15 3.16 27.49.13z"/></g></svg><svg viewBox="0 0 72 72" id="1F607" xmlns="http://www.w3.org/2000/svg"><path fill="#fcea2b" d="M36 60a24 24 0 0 0 18.157-39.695q-.13-.152-.265-.301A24 24 0 1 0 36 60z"/><g fill="none" stroke="#000" stroke-width="2"><path stroke-linecap="round" stroke-linejoin="round" d="M45.815 45.227a15.43 15.43 0 0 1-19.63 0m21.581-28.994a23.027 23.027 0 0 0-23.37-.096"/><path stroke-linecap="round" stroke-linejoin="round" d="M17.638 22.147a23 23 0 1 0 36.625-.13"/><ellipse cx="36" cy="14.8" stroke-miterlimit="10" rx="25" ry="5.25"/><path stroke-linecap="round" stroke-miterlimit="10" d="M31.694 33.404a4.726 4.726 0 0 0-8.638 0m25.888 0a4.726 4.726 0 0 0-8.638 0"/></g><ellipse cx="36" cy="14.8" fill="none" stroke="#61b2e4" stroke-miterlimit="10" stroke-width="2.1" rx="25" ry="5.25"/></svg><svg viewBox="0 0 72 72" id="1F609" xmlns="http://www.w3.org/2000/svg"><circle cx="36" cy="36" r="23" fill="#FCEA2B"/><path fill="#EA5A47" d="m38.254 51.023 3.023-1.346 1.169-1.443.318-1.61-3.699.045h-9.968l1.314 3.008 3.159 1.346z"/><path fill="none" stroke="#000" stroke-linecap="round" stroke-linejoin="round" stroke-width="2" d="M20.648 30.028a6.283 6.283 0 0 1 2.66-3.643 6.28 6.28 0 0 1 4.32-1.375m23.376 6.077a7.163 7.163 0 0 0-8.51-1.17m.289 15.852c0 2.937-2.308 5.272-6.934 5.272s-6.964-2.342-6.964-5.272"/><path fill="none" stroke="#000" stroke-linecap="round" stroke-linejoin="round" stroke-width="2" d="M28.94 45.769s7.047 2.52 13.75.054m4.313-9.963a5.902 5.902 0 0 0-2.87-.922 7.476 7.476 0 0 0-3.18.775"/><circle cx="28.079" cy="35.309" r="3"/><circle cx="36" cy="36" r="23" fill="none" stroke="#000" stroke-linecap="round" stroke-linejoin="round" stroke-width="2"/></svg><svg viewBox="0 0 72 72" id="1F60A" xmlns="http://www.w3.org/2000/svg"><circle cx="36" cy="36" r="23" fill="#fcea2b"/><g fill="none" stroke="#000" stroke-linecap="round" stroke-width="2"><circle cx="36" cy="36" r="23" stroke-linejoin="round"/><path stroke-linejoin="round" d="M45.815 45.227a15.43 15.43 0 0 1-19.63 0"/><path stroke-miterlimit="10" d="M31.694 33.404a4.726 4.726 0 0 0-8.638 0m25.888 0a4.726 4.726 0 0 0-8.638 0"/></g></svg><svg viewBox="0 0 72 72" id="1F642" xmlns="http://www.w3.org/2000/svg"><circle cx="36" cy="36" r="23" fill="#FCEA2B"/><circle cx="36" cy="36" r="23" fill="none" stroke="#000" stroke-linecap="round" stroke-linejoin="round" stroke-width="2"/><path fill="none" stroke="#000" stroke-linecap="round" stroke-linejoin="round" stroke-width="2" d="M45.815 44.93c-2.9 1.635-6.248 2.57-9.815 2.57s-6.915-.934-9.815-2.57"/><path d="M30 31a3.001 3.001 0 0 1-6 0c0-1.655 1.345-3 3-3s3 1.345 3 3m18 0a3.001 3.001 0 0 1-6 0c0-1.655 1.345-3 3-3s3 1.345 3 3"/></svg><svg viewBox="0 0 72 72" id="1F643" xmlns="http://www.w3.org/2000/svg"><circle cx="36" cy="36" r="23" fill="#FCEA2B"/><circle cx="36" cy="36" r="23" fill="none" stroke="#000" stroke-linecap="round" stroke-linejoin="round" stroke-width="2"/><path fill="none" stroke="#000" stroke-linecap="round" stroke-linejoin="round" stroke-width="2" d="M26.185 27.07c2.9-1.636 6.248-2.57 9.815-2.57s6.915.934 9.815 2.57"/><path d="M42 41a3.001 3.001 0 0 1 6 0c0 1.655-1.345 3-3 3s-3-1.345-3-3m-18 0a3.001 3.001 0 0 1 6 0c0 1.655-1.345 3-3 3s-3-1.345-3-3"/></svg><svg viewBox="0 0 72 72" id="1F923" xmlns="http://www.w3.org/2000/svg"><circle cx="36" cy="35.999" r="24" fill="#fcea2b"/><path fill="#fff" d="M51.58 34.554a11.555 11.555 0 0 1 1.22 4.408c-9.837 8.272-22.622 11.622-24.676 12.118a11.434 11.434 0 0 1-2.684-3.535l.098-.049s14.852-3.372 25.903-12.795z"/><path fill="#ea5a47" d="M52.799 38.962c.297 4.62-2.469 9.3-9.042 12.567-6.636 3.298-12.121 2.641-15.633-.449 2.053-.496 14.839-3.846 24.675-12.118z"/><path fill="#92d3f5" d="M67.693 32.909a4.242 4.242 0 0 1-5.374 2.672c-3.984-1.339-6.68-6.687-6.707-6.74.213-.092 5.447-2.637 9.41-1.306a4.241 4.241 0 0 1 2.67 5.374zM14.395 59.398a4.242 4.242 0 0 1-2.672-5.374c1.339-3.984 6.687-6.68 6.74-6.707.091.213 2.637 5.447 1.305 9.41a4.241 4.241 0 0 1-5.373 2.671z"/><g fill="none" stroke="#000" stroke-linejoin="round" stroke-width="2"><path stroke-linecap="round" d="m55.277 23.449-.093-.141a23.003 23.003 0 0 0-40.969 20.078l.14.4M25.037 56.22a23.531 23.531 0 0 0 21.199.376 23.343 23.343 0 0 0 12.486-17.023m-7.142-5.019a11.555 11.555 0 0 1 1.22 4.408c-9.837 8.272-22.622 11.622-24.676 12.118a11.434 11.434 0 0 1-2.684-3.535l.098-.049s14.852-3.372 25.903-12.795z"/><path stroke-linecap="round" d="M52.799 38.962c.297 4.62-2.469 9.3-9.042 12.567-6.636 3.298-12.121 2.641-15.633-.449 2.053-.496 14.838-3.846 24.675-12.118z"/><path d="M67.693 32.909a4.242 4.242 0 0 1-5.374 2.672c-3.984-1.339-6.68-6.687-6.707-6.74.213-.092 5.447-2.637 9.41-1.306a4.241 4.241 0 0 1 2.67 5.374zM14.395 59.398a4.242 4.242 0 0 1-2.672-5.374c1.339-3.984 6.687-6.68 6.74-6.707.091.213 2.637 5.447 1.305 9.41a4.241 4.241 0 0 1-5.373 2.671z"/><path stroke-linecap="round" d="m22.478 33.13 7.685.663-4.235 6.279m15.95-16.584-4.112 6.526 7.562.416"/></g></svg></svg>