<?xml version="1.0" encoding="utf-8"?><svg viewBox="0 0 72 72" xmlns="http://www.w3.org/2000/svg" xmlns:xlink="http://www.w3.org/1999/xlink"><style>:root>svg{display:none}:root>svg:target{display:block}</style><svg viewBox="0 0 72 72" id="1F60F" xmlns="http://www.w3.org/2000/svg"><path fill="#FCEA2B" d="M36 13c-12.682 0-23 10.318-23 23s10.318 23 23 23 23-10.318 23-23-10.318-23-23-23z"/><circle cx="36" cy="36" r="23" fill="none" stroke="#000" stroke-width="2"/><path fill="none" stroke="#000" stroke-linecap="round" stroke-linejoin="round" stroke-miterlimit="10" stroke-width="2" d="M29.94 46.66c8.505.703 16.67.427 16.98-4.128M41.93 26.77c.467-.25 2.52-1.1 5.042-.574 2.118.392 2.421.828 3.73 1.725M22.29 28.7c.327-.427 1.792-2.245 4.424-2.685 2.135-.357 3.794.402 4.352.688"/><path d="M32 33a3.001 3.001 0 01-6 0c0-1.655 1.345-3 3-3s3 1.345 3 3M50 33a3.001 3.001 0 01-6 0c0-1.655 1.345-3 3-3s3 1.345 3 3"/></svg><svg viewBox="0 0 72 72" id="1F610" xmlns="http://www.w3.org/2000/svg"><path fill="#FCEA2B" d="M36 13c-12.682 0-23 10.318-23 23s10.318 23 23 23 23-10.318 23-23-10.318-23-23-23z"/><circle cx="36" cy="36" r="23" fill="none" stroke="#000" stroke-miterlimit="10" stroke-width="2"/><path fill="none" stroke="#000" stroke-linecap="round" stroke-linejoin="round" stroke-miterlimit="10" stroke-width="2" d="M27 43h18"/><path d="M30 31a3.001 3.001 0 01-6 0c0-1.655 1.345-3 3-3s3 1.345 3 3M48 31a3.001 3.001 0 01-6 0c0-1.655 1.345-3 3-3s3 1.345 3 3"/></svg><svg viewBox="0 0 72 72" id="1F611" xmlns="http://www.w3.org/2000/svg"><path fill="#FCEA2B" d="M36 13c-12.682 0-23 10.318-23 23s10.318 23 23 23 23-10.318 23-23-10.318-23-23-23z"/><g fill="none" stroke="#000" stroke-miterlimit="10" stroke-width="2"><circle cx="36" cy="36" r="23"/><path stroke-linecap="round" stroke-linejoin="round" d="M27 43h18M25 31h5M43 31h5"/></g></svg><svg viewBox="0 0 72 72" id="1F612" xmlns="http://www.w3.org/2000/svg"><path fill="#FCEA2B" d="M36 13c-12.682 0-23 10.318-23 23s10.318 23 23 23 23-10.318 23-23-10.318-23-23-23z"/><circle cx="36" cy="36" r="23" fill="none" stroke="#000" stroke-miterlimit="10" stroke-width="2"/><path fill="none" stroke="#000" stroke-linecap="round" stroke-linejoin="round" stroke-miterlimit="10" stroke-width="2" d="M30.09 43.09c3.126-.789 4.815-1.229 8.332-1.098 3.229.12 6.141.596 7.579 2.936M23.29 26.7c.327-.427 1.792-2.245 4.424-2.685 2.135-.357 3.794.402 4.352.688M42.93 25c.467-.25 2.52-1.1 5.042-.574 2.118.392 2.421.828 3.73 1.725"/><path d="M32 31a3.001 3.001 0 01-6 0c0-1.655 1.345-3 3-3s3 1.345 3 3M50 31a3.001 3.001 0 01-6 0c0-1.655 1.345-3 3-3s3 1.345 3 3"/></svg><svg viewBox="0 0 72 72" id="1F62C" xmlns="http://www.w3.org/2000/svg"><path fill="#FCEA2B" d="M36 13c-12.703 0-23 10.297-23 23s10.297 23 23 23 23-10.297 23-23c-.014-12.697-10.303-22.986-23-23z"/><path fill="#FFF" d="M44.5 49.27h-17a4.012 4.012 0 01-4-4 4.012 4.012 0 014-4h17a4.012 4.012 0 014 4 4.012 4.012 0 01-4 4z"/><g><path fill="none" stroke="#000" stroke-linecap="round" stroke-linejoin="round" stroke-width="2" d="M28 41.771v7M33 41.771v7M38 41.771v7M43 41.771v7"/><circle cx="36" cy="36" r="23" fill="none" stroke="#000" stroke-miterlimit="10" stroke-width="2"/><path fill="none" stroke="#000" stroke-miterlimit="2" stroke-width="2" d="M44.5 49.27h-17a4.012 4.012 0 01-4-4h0a4.012 4.012 0 014-4h17a4.012 4.012 0 014 4h0a4.012 4.012 0 01-4 4z"/><path d="M30 31a3.001 3.001 0 01-6 0c0-1.655 1.345-3 3-3s3 1.345 3 3M48 31a3.001 3.001 0 01-6 0c0-1.655 1.345-3 3-3s3 1.345 3 3"/></g></svg><svg viewBox="0 0 72 72" id="1F636" xmlns="http://www.w3.org/2000/svg"><circle cx="36" cy="36" r="23" fill="#FCEA2B"/><circle cx="36" cy="36" r="23" fill="none" stroke="#000" stroke-linecap="round" stroke-linejoin="round" stroke-miterlimit="10" stroke-width="2"/><path d="M30 31a3.001 3.001 0 01-6 0c0-1.655 1.345-3 3-3s3 1.345 3 3M48 31a3.001 3.001 0 01-6 0c0-1.655 1.345-3 3-3s3 1.345 3 3"/></svg><svg viewBox="0 0 72 72" id="1F644" xmlns="http://www.w3.org/2000/svg"><circle cx="36" cy="36" r="23" fill="#FCEA2B"/><circle cx="46" cy="32" r="6.5" fill="#FFF"/><circle cx="26" cy="32" r="6.5" fill="#FFF"/><g><circle cx="46.056" cy="28" r="2.556"/><circle cx="26.056" cy="28" r="2.556"/><circle cx="36" cy="36" r="23" fill="none" stroke="#000" stroke-linecap="round" stroke-linejoin="round" stroke-miterlimit="10" stroke-width="2"/><circle cx="46" cy="32" r="6.5" fill="none" stroke="#000" stroke-miterlimit="10" stroke-width="2"/><circle cx="26" cy="32" r="6.5" fill="none" stroke="#000" stroke-miterlimit="10" stroke-width="2"/><path fill="none" stroke="#000" stroke-linecap="round" stroke-linejoin="round" stroke-miterlimit="10" stroke-width="2" d="M31 49.497h10"/></g></svg><svg viewBox="0 0 72 72" id="1F910" xmlns="http://www.w3.org/2000/svg"><circle cx="36" cy="35.643" r="23" fill="#FCEA2B"/><path fill="#9B9B9A" d="M58.297 54.198l-1.947 1.946a2.402 2.402 0 01-3.397 0l-4.86-4.86a2.402 2.402 0 010-3.397l1.946-1.947a2.402 2.402 0 013.397 0l4.86 4.861a2.402 2.402 0 010 3.397z"/><path fill="#D0CFCE" d="M50.355 47.787l-.512.513a.737.737 0 01-1.043 0l-1.615-1.616a.737.737 0 010-1.042l.512-.512a.737.737 0 011.042 0l1.616 1.615a.737.737 0 010 1.042z"/><g><path fill="none" stroke="#000" stroke-linecap="round" stroke-linejoin="round" stroke-miterlimit="10" stroke-width="2" d="M47.705 45.684l-23.665-.089M24.561 45.865v3.303M26.472 42.026v3.303M28.413 45.865v3.303M30.325 42.026v3.303M32.253 45.865v3.303M34.164 42.026v3.303M36.105 45.865v3.303M38.017 42.026v3.303M39.932 45.865v3.303M41.844 42.026v3.303M43.813 45.865v3.303M45.7 42.026v3.303"/><path fill="none" stroke="#000" stroke-linecap="round" stroke-miterlimit="10" stroke-width="2" d="M50.918 45.328a2.402 2.402 0 012.518.56l4.86 4.86a2.402 2.402 0 010 3.397l-1.946 1.946a2.402 2.402 0 01-3.397 0l-4.86-4.86a2.402 2.402 0 01-.604-2.387"/><path fill="none" stroke="#000" stroke-linecap="round" stroke-linejoin="round" stroke-miterlimit="10" stroke-width="2" d="M57.481 44.237A22.944 22.944 0 0059 36c0-12.703-10.298-23-23-23S13 23.297 13 36c0 12.702 10.298 23 23 23 4.07 0 7.893-1.057 11.21-2.912"/><path d="M30 31a3.001 3.001 0 01-6 0c0-1.655 1.345-3 3-3s3 1.345 3 3M48 31a3.001 3.001 0 01-6 0c0-1.655 1.345-3 3-3s3 1.345 3 3"/></g></svg><svg viewBox="0 0 72 72" id="1F925" xmlns="http://www.w3.org/2000/svg"><g fill="#FCEA2B"><path d="M36 12c-13.234 0-24 10.766-24 24s10.766 24 24 24 24-10.766 24-24-10.766-24-24-24z"/><path d="M37.43 44.162s8.736-.08 12.075.59c3.339.67 6.732 2.066 9.141.95 1.136-.527 1.648-1.641 1.722-2.71.102-1.065-.22-2.247-1.255-2.953-2.193-1.497-5.774-.624-9.177-.51s-12.009-1.398-12.009-1.398"/></g><path fill="none" stroke="#000" stroke-linecap="round" stroke-linejoin="round" stroke-miterlimit="10" stroke-width="2" d="M20.95 27.277a6.306 6.306 0 013.664-2.66 6.304 6.304 0 014.55.019M50.559 26.272a7.19 7.19 0 00-7.608-4.056"/><path fill="none" stroke="#000" stroke-linecap="round" stroke-linejoin="round" stroke-miterlimit="10" stroke-width="2" d="M58.963 34.7C58.29 22.6 48.265 13 36 13c-12.703 0-23 10.297-23 23 0 12.702 10.297 23 23 23 7.08 0 13.413-3.2 17.632-8.232"/><path d="M30 31a3.001 3.001 0 01-6 0c0-1.655 1.345-3 3-3s3 1.345 3 3M48 31a3.001 3.001 0 01-6 0c0-1.655 1.345-3 3-3s3 1.345 3 3"/><path fill="none" stroke="#000" stroke-linecap="round" stroke-linejoin="round" stroke-miterlimit="10" stroke-width="2" d="M39.722 50.635s-5.718-1.834-8.871 1.55M37.43 44.162s8.736-.08 12.075.59c3.339.67 6.732 2.066 9.141.95 1.136-.527 1.648-1.641 1.722-2.71.102-1.065-.22-2.247-1.255-2.953-2.193-1.497-5.774-.624-9.177-.51s-12.009-1.398-12.009-1.398"/></svg><svg viewBox="0 0 72 72" id="1F928" xmlns="http://www.w3.org/2000/svg"><path fill="#FCEA2B" d="M36 13c-12.682 0-23 10.318-23 23s10.318 23 23 23 23-10.318 23-23-10.318-23-23-23z"/><circle cx="36" cy="36" r="23" fill="none" stroke="#000" stroke-linecap="round" stroke-linejoin="round" stroke-width="2"/><path fill="none" stroke="#000" stroke-linecap="round" stroke-linejoin="round" stroke-miterlimit="10" stroke-width="2" d="M23.07 27.743c.414-.344 2.246-1.791 4.91-1.636 2.16.126 3.61 1.233 4.09 1.636M48.93 27.095c-.414.344-2.246 1.792-4.91 1.637-2.16-.126-3.61-1.234-4.09-1.637"/><path d="M30 35a3.001 3.001 0 01-6 0c0-1.655 1.345-3 3-3s3 1.345 3 3M48 35a3.001 3.001 0 01-6 0c0-1.655 1.345-3 3-3s3 1.345 3 3"/><path fill="none" stroke="#000" stroke-linecap="round" stroke-linejoin="round" stroke-width="2" d="M29.132 47.139c4.6-1.417 9.829-1.47 13.736 0"/></svg></svg>