<?xml version="1.0" encoding="utf-8"?><svg viewBox="0 0 72 72" xmlns="http://www.w3.org/2000/svg" xmlns:xlink="http://www.w3.org/1999/xlink"><style>:root>svg{display:none}:root>svg:target{display:block}</style><svg viewBox="0 0 72 72" id="1F366" xmlns="http://www.w3.org/2000/svg"><path fill="#FFF" d="M53.935 36v4H18.368v-4h1.002c-.02-.34.01-.68.1-1 .3-1.05 1.17-1.92 2.33-2.18l3.77-.87c-1.5.11-2.88-.84-3.21-2.3-.37-1.61.68-3.23 2.36-3.62l3.77-.87c-1.5.1-2.88-.85-3.21-2.3-.37-1.61.69-3.23 2.37-3.62l3.79-.87c-1.51.13-2.9-.82-3.23-2.29-.38-1.61.68-3.24 2.36-3.62l1.26-.29h.01C33.86 11.67 36 7 34 5h3c1.66 0 3 1.34 3 3s-1 2.52-2.69 2.9l2.77-.64c1.68-.39 3.34.61 3.71 2.22.34 1.45-.47 2.89-1.84 3.46L43 15.7c1.68-.39 3.35.6 3.72 2.22.33 1.44-.48 2.88-1.85 3.45l1.06-.24c1.68-.38 3.34.61 3.71 2.23.34 1.46-.5 2.92-1.9 3.48l1.11-.26c1.68-.39 3.34.61 3.71 2.22.38 1.62-.68 3.24-2.36 3.63l-2.39.55L50 33c1.31 0 2.42.83 2.82 2 .12.31 1.115.65 1.115 1z"/><path fill="#fcea2b" d="M17 40h38v10H17zm35 10-4 12c-.873 2.62-2.24 5-5 5H29c-2.76 0-4.127-2.38-5-5l-4-12"/><path fill="#f1b31c" d="M42.333 40H55v10H42.333zm1.023 10L40 63.03c-.374 1.454-.84 2.849-1.468 3.97H43c2.76 0 4.127-2.38 5-5l4-12h-8.644z"/><g fill="none" stroke="#000" stroke-linecap="round" stroke-linejoin="round" stroke-miterlimit="10"><path stroke-width="2" d="M17 40h38v10H17zm36-4a3 3 0 0 0-3-3l-2.219-.016"/><path stroke-width="2.04" d="M30.571 12.456c-1.68.387-2.738 2.01-2.366 3.625.373 1.614 2.036 2.608 3.716 2.22l9.509-2.195c1.68-.387 2.738-2.01 2.365-3.625-.372-1.614-2.035-2.608-3.715-2.22l-9.509 2.195z"/><path stroke-width="2.04" d="M27.648 19.24c-1.68.388-2.739 2.01-2.366 3.625.372 1.614 2.035 2.61 3.715 2.221l15.355-3.544c1.68-.388 2.739-2.012 2.366-3.626-.372-1.614-2.036-2.608-3.716-2.22L27.647 19.24z"/><path stroke-width="2.04" d="M49.64 23.355c-.372-1.614-2.035-2.609-3.714-2.22l-21.201 4.894c-1.68.388-2.739 2.011-2.367 3.625.373 1.615 2.037 2.609 3.716 2.221l21.201-4.894c1.68-.388 2.739-2.011 2.366-3.626z"/><path stroke-width="2.04" d="M35.942 35.717 50.2 32.426c1.679-.388 2.738-2.011 2.365-3.625-.373-1.614-2.036-2.61-3.714-2.222l-27.048 6.245c-1.523.35-2.535 1.717-2.433 3.173"/><path stroke-width="2" d="M34 5h3c1.657 0 3 1.343 3 3s-1 2.521-2.688 2.896"/><path stroke-width="2" d="M34 5c2 2-.145 6.688-2.167 7.167M52 50l-4 12c-.873 2.62-2.24 5-5 5H29c-2.76 0-4.127-2.38-5-5l-4-12"/></g></svg><svg viewBox="0 0 72 72" id="1F367" xmlns="http://www.w3.org/2000/svg"><path fill="#FCEA2B" d="M52.07 24.888c3.907 3.904 3.907 10.236.001 14.142-3.905 3.905-12.166 6.041-16.071 2.137-3.905-3.906-1.977-12.374 1.929-16.28s10.237-3.905 14.141.001z"/><path fill="#F1B31C" d="M52.07 24.896c-2.593-2.594-6.257-3.455-9.571-2.602a9.943 9.943 0 0 1 4.571 2.602c3.907 3.906 3.907 10.238.001 14.142A9.93 9.93 0 0 1 42.5 41.64c3.313.853 6.977-.008 9.571-2.602 3.906-3.904 3.906-10.236 0-14.142z"/><ellipse cx="26.999" cy="32.043" fill="#FCEA2B" rx="10" ry="10" transform="rotate(-45.001 27 32.043)"/><path fill="#F1B31C" d="M34.07 24.979c-2.593-2.594-6.257-3.455-9.571-2.602a9.943 9.943 0 0 1 4.571 2.602c3.907 3.906 3.907 10.238.001 14.142a9.931 9.931 0 0 1-4.571 2.602c3.314.853 6.977-.008 9.571-2.602 3.906-3.904 3.906-10.236 0-14.142z"/><path fill="#EA5A47" d="M31 27c1.644 0 3.089-.804 4-2.027V30a3 3 0 0 0 6 0v2a3 3 0 0 0 6 0v-2.184A2.97 2.97 0 0 0 48 30a3 3 0 0 0 3-3v-2.996a9.948 9.948 0 0 0-5.003-1.954c0-.017.003-.033.003-.05 0-5.523-4.478-10-10-10s-10 4.477-10 10a5 5 0 0 0 5 5z"/><path fill="#FFF" d="M33 60v-6a5 5 0 0 0-5-5h-7a5 5 0 0 1-5-5v-3a2 2 0 0 1 2-2h36a2 2 0 0 1 2 2v3a5 5 0 0 1-5 5h-7a5 5 0 0 0-5 5v6"/><g fill="none" stroke="#000" stroke-linecap="round" stroke-linejoin="round" stroke-miterlimit="10"><path stroke-width="2" d="M45.997 22.05C51.052 22.55 55 26.813 55 32a9.96 9.96 0 0 1-2.367 6.46m-15.666-5.646a9.96 9.96 0 0 1-2.536 5.878m-14.833.032A9.964 9.964 0 0 1 17 32c0-5.178 3.935-9.436 8.978-9.948"/><path stroke-width="2" d="M31 27c1.644 0 3.089-.804 4-2.027V30a3 3 0 0 0 6 0v2a3 3 0 0 0 6 0v-2.184A2.97 2.97 0 0 0 48 30a3 3 0 0 0 3-3v-2.996a9.948 9.948 0 0 0-5.003-1.954c0-.017.003-.033.003-.05 0-5.523-4.478-10-10-10s-10 4.477-10 10a5 5 0 0 0 5 5z"/><path stroke-width="1.947" d="M33 60v-6a5 5 0 0 0-5-5h-7a5 5 0 0 1-5-5v-3a2 2 0 0 1 2-2h36a2 2 0 0 1 2 2v3a5 5 0 0 1-5 5h-7a5 5 0 0 0-5 5v6m-10 0h14"/></g></svg><svg viewBox="0 0 72 72" id="1F368" xmlns="http://www.w3.org/2000/svg"><ellipse cx="35.999" cy="21.001" fill="#FCEA2B" rx="10" ry="10" transform="rotate(-45.001 36 21.002)"/><path fill="#F1B31C" d="M43.07 13.938c-2.593-2.594-6.257-3.456-9.571-2.602a9.943 9.943 0 0 1 4.571 2.602c3.907 3.906 3.907 10.237.001 14.142a9.927 9.927 0 0 1-4.571 2.602c3.313.853 6.977-.008 9.571-2.602 3.906-3.905 3.906-10.236 0-14.142z"/><path fill="#FCEA2B" d="M52.07 23.93c3.907 3.904 3.907 10.236.001 14.142C48.166 41.977 39.905 44.904 36 41c-3.905-3.906-1.977-13.166 1.929-17.071s10.237-3.906 14.141 0z"/><path fill="#F1B31C" d="M52.07 23.938c-2.593-2.594-6.257-3.456-9.571-2.602a9.943 9.943 0 0 1 4.571 2.602c3.907 3.906 3.907 10.238.001 14.142a9.93 9.93 0 0 1-4.571 2.602c3.313.853 6.977-.008 9.571-2.602 3.906-3.904 3.906-10.236 0-14.142z"/><ellipse cx="26.999" cy="31.002" fill="#FCEA2B" rx="10" ry="10.001" transform="rotate(-45.001 26.999 31.003)"/><path fill="#F1B31C" d="M34.07 23.938c-2.593-2.594-6.257-3.456-9.571-2.602a9.943 9.943 0 0 1 4.571 2.602c3.907 3.906 3.907 10.238.001 14.142a9.93 9.93 0 0 1-4.571 2.602c3.314.853 6.977-.008 9.571-2.602 3.906-3.904 3.906-10.236 0-14.142z"/><path fill="#FFF" d="M33 60v-6a5 5 0 0 0-5-5h-7a5 5 0 0 1-5-5v-3a2 2 0 0 1 2-2h36a2 2 0 0 1 2 2v3a5 5 0 0 1-5 5h-7a5 5 0 0 0-5 5v6"/><g fill="none" stroke="#000" stroke-linecap="round" stroke-linejoin="round" stroke-miterlimit="10"><path stroke-width="2" d="M26 21c0-5.523 4.477-10 10-10s10 4.477 10 10"/><path stroke-width="2" d="M36.066 26.503A10 10 0 0 1 45 21c5.522 0 10 4.477 10 10a9.982 9.982 0 0 1-3.795 7.842"/><path stroke-width="2" d="M20.64 38.717A9.98 9.98 0 0 1 17 31c0-5.523 4.477-10 10-10s10 4.477 10 10a9.982 9.982 0 0 1-3.795 7.842"/><path stroke-width="1.947" d="M33 60v-6a5 5 0 0 0-5-5h-7a5 5 0 0 1-5-5v-3a2 2 0 0 1 2-2h36a2 2 0 0 1 2 2v3a5 5 0 0 1-5 5h-7a5 5 0 0 0-5 5v6m-10 0h14"/></g></svg><svg viewBox="0 0 72 72" id="1F369" xmlns="http://www.w3.org/2000/svg"><path fill="#fcea2b" d="M36 7C19.983 7 7 19.984 7 36s12.983 29 29 29 29-12.984 29-29S52.017 7 36 7zm0 39c-5.522 0-10-4.478-10-10s4.478-10 10-10 10 4.478 10 10-4.477 10-10 10z"/><path fill="none" d="M36 46c5.522 0 10-4.478 10-10s-4.478-10-10-10-10 4.478-10 10a9.962 9.962 0 0 0 2.865 7h.479-.479A9.963 9.963 0 0 0 36 46z"/><path fill="none" d="M46 36c0-5.522-4.478-10-10-10s-10 4.478-10 10a9.962 9.962 0 0 0 2.865 7A9.963 9.963 0 0 0 36 46c5.523 0 10-4.477 10-10z"/><path fill="#f1b31c" d="M36 7C19.983 7 7 19.984 7 36c0 1.706.156 3.375.439 5H10a5 5 0 0 1 5 5 5 5 0 0 0 10 0 3 3 0 0 1 3-3h.865A9.962 9.962 0 0 1 26 36c0-5.522 4.478-10 10-10s10 4.478 10 10-4.478 10-10 10a5 5 0 0 1 5 5 5 5 0 0 0 10 0 3 3 0 0 1 6 0c0 1.222.842 2.321 1.895 2.79A28.866 28.866 0 0 0 65 36C65 19.984 52.017 7 36 7z"/><circle cx="14" cy="31" r="2" fill="#FFF"/><circle cx="20" cy="39" r="2" fill="#FFF"/><circle cx="52" cy="40" r="2" fill="#FFF"/><circle cx="58" cy="32" r="2" fill="#FFF"/><circle cx="50" cy="25" r="2" fill="#FFF"/><circle cx="42" cy="14" r="2" fill="#FFF"/><circle cx="33" cy="20" r="2" fill="#FFF"/><circle cx="21" cy="20" r="2" fill="#FFF"/><g fill="none" stroke="#000" stroke-linecap="round" stroke-linejoin="round" stroke-miterlimit="10" stroke-width="2"><circle cx="14" cy="31" r="2"/><circle cx="20" cy="39" r="2"/><circle cx="52" cy="40" r="2"/><circle cx="58" cy="32" r="2"/><circle cx="50" cy="25" r="2"/><circle cx="42" cy="14" r="2"/><circle cx="33" cy="20" r="2"/><circle cx="21" cy="20" r="2"/><circle cx="36" cy="36" r="29"/><circle cx="36" cy="36" r="10"/><path d="M8 41h2a5 5 0 0 1 5 5 5 5 0 0 0 10 0 3 3 0 0 1 3-3h.667m30.158 10.76A3 3 0 0 1 57 51a3 3 0 0 0-6 0 5 5 0 0 1-10 0 5 5 0 0 0-5-5"/></g></svg><svg viewBox="0 0 72 72" id="1F36A" xmlns="http://www.w3.org/2000/svg"><path fill="#a57939" d="M64 36a9.635 9.635 0 0 0-1.558-5.263 9.642 9.642 0 0 0-.574-5.452 9.64 9.64 0 0 0-3.452-4.265 9.63 9.63 0 0 0-2.618-4.818 9.633 9.633 0 0 0-4.82-2.62 9.645 9.645 0 0 0-4.262-3.45 9.652 9.652 0 0 0-5.457-.575A9.648 9.648 0 0 0 35.999 8c-1.94 0-3.744.576-5.26 1.558a9.648 9.648 0 0 0-5.455.573 9.642 9.642 0 0 0-4.263 3.454 9.647 9.647 0 0 0-4.82 2.617 9.638 9.638 0 0 0-2.618 4.821 9.648 9.648 0 0 0-4.025 9.72 9.652 9.652 0 0 0 0 10.52 9.66 9.66 0 0 0 4.029 9.718 9.647 9.647 0 0 0 7.437 7.437 9.646 9.646 0 0 0 4.262 3.451 9.65 9.65 0 0 0 5.457.574A9.65 9.65 0 0 0 36.003 64c1.94 0 3.744-.576 5.26-1.558a9.659 9.659 0 0 0 9.718-4.027 9.64 9.64 0 0 0 4.819-2.616 9.633 9.633 0 0 0 2.619-4.823 9.647 9.647 0 0 0 3.45-4.261 9.653 9.653 0 0 0 .575-5.458A9.654 9.654 0 0 0 64 36z"/><circle cx="19" cy="35" r="2" fill="#6A462F"/><circle cx="32" cy="41" r="2" fill="#6A462F"/><circle cx="30" cy="51" r="2" fill="#6A462F"/><circle cx="46" cy="51" r="2" fill="#6A462F"/><circle cx="52" cy="36" r="2" fill="#6A462F"/><circle cx="48" cy="21" r="2" fill="#6A462F"/><circle cx="32" cy="22" r="2" fill="#6A462F"/><g fill="none" stroke="#000" stroke-linecap="round" stroke-linejoin="round" stroke-miterlimit="10" stroke-width="1.939"><path d="M64 35.875a9.632 9.632 0 0 0-1.558-5.262 9.643 9.643 0 0 0-.574-5.453 9.64 9.64 0 0 0-3.452-4.265 9.631 9.631 0 0 0-2.618-4.818 9.633 9.633 0 0 0-4.82-2.62 9.645 9.645 0 0 0-4.262-3.45 9.65 9.65 0 0 0-5.457-.575 9.648 9.648 0 0 0-5.26-1.556 9.65 9.65 0 0 0-5.26 1.557 9.646 9.646 0 0 0-5.455.574 9.642 9.642 0 0 0-4.263 3.453 9.648 9.648 0 0 0-7.438 7.439 9.647 9.647 0 0 0-4.025 9.72A9.649 9.649 0 0 0 8 35.877c0 1.941.577 3.746 1.559 5.262a9.66 9.66 0 0 0 4.028 9.718 9.648 9.648 0 0 0 7.438 7.436 9.659 9.659 0 0 0 9.718 4.025 9.65 9.65 0 0 0 5.26 1.557 9.65 9.65 0 0 0 5.26-1.557 9.652 9.652 0 0 0 9.718-4.027 9.634 9.634 0 0 0 4.819-2.617 9.63 9.63 0 0 0 2.619-4.822 9.65 9.65 0 0 0 3.45-4.262 9.649 9.649 0 0 0 .575-5.457A9.657 9.657 0 0 0 64 35.875z"/><circle cx="19" cy="35" r="2"/><circle cx="32" cy="41" r="2"/><circle cx="30" cy="51" r="2"/><circle cx="46" cy="51" r="2"/><circle cx="52" cy="36" r="2"/><circle cx="48" cy="21" r="2"/><circle cx="32" cy="22" r="2"/></g></svg><svg viewBox="0 0 72 72" id="1F36B" xmlns="http://www.w3.org/2000/svg"><path fill="#a57939" d="M54 32.906v-27H18.031v33.61"/><path fill="#ea5a47" d="m55 25-38 7v35h38z"/><g fill="none" stroke="#000" stroke-linecap="round" stroke-linejoin="round" stroke-miterlimit="10" stroke-width="2"><path d="M38 9h11v9H38zM23 9h11v9H23zm32 16-38 7v35h38z"/><path d="M53 20.932V5H19v22.541"/><path d="M38 23.847V22h9.503M23 26.764V22h11v2.625"/><path d="M47.503 22H38v1.847m-4 .778V22H23v4.764"/></g></svg><svg viewBox="0 0 72 72" id="1F36C" xmlns="http://www.w3.org/2000/svg"><path fill="#b1cc33" d="m47.08 27.084 5.334-1.006-.477-.734 11.056-2.225 1.414-1.414a2 2 0 1 0-2.829-2.829 2 2 0 0 1-2.828-2.828 2 2 0 0 0-2.828-2.829 2 2 0 0 1-2.828-2.828 2 2 0 0 0-2.828-2.828l-1.414 1.414-2.196 11.117-.946-.608-.824 4.125M24.71 44.707l-5.334 1.004.695.932L9 48.857l-1.414 1.414a2.002 2.002 0 0 0 2.83 2.83 2 2 0 1 1 2.827 2.829 2 2 0 1 0 2.828 2.828 2 2 0 1 1 2.828 2.828 2 2 0 1 0 2.828 2.828L23.142 63l2.215-11.072.926.562.824-4.123"/><circle cx="35.993" cy="36" r="14.999" fill="#b1cc33"/><path fill="#5c9e31" d="M51.001 35.99c.001-5.502-2.973-10.3-7.392-12.91a14.906 14.906 0 0 1 2.09 7.608c0 8.285-6.716 15.002-15 15A14.89 14.89 0 0 1 23.09 43.6c2.61 4.42 7.408 7.39 12.911 7.392 8.284 0 15-6.717 14.999-15.002z"/><g fill="none" stroke="#000" stroke-linecap="round" stroke-linejoin="round" stroke-miterlimit="10" stroke-width="2"><ellipse cx="36" cy="36" rx="15" ry="15" transform="rotate(-45.001 35.998 36)"/><path d="M51.929 25.356 63 23.142l1.414-1.414a2 2 0 1 0-2.829-2.829 2 2 0 1 1-2.828-2.828 2 2 0 0 0-2.828-2.828 2 2 0 0 1-2.828-2.828 2 2 0 0 0-2.828-2.83L48.858 9l-2.214 11.07M20.071 46.643 9 48.857l-1.415 1.414a2.001 2.001 0 0 0 2.83 2.83 2 2 0 1 1 2.827 2.827 2 2 0 0 0 2.828 2.83 2.001 2.001 0 0 1 2.828-.002 2.001 2.001 0 0 1 0 2.83 2 2 0 1 0 2.829 2.828L23.142 63l2.215-11.072"/><ellipse cx="36.001" cy="35.958" rx="15" ry="15" transform="rotate(-45.001 36.001 35.959)"/></g></svg><svg viewBox="0 0 72 72" id="1F36D" xmlns="http://www.w3.org/2000/svg"><circle cx="8.627" cy="51.48" r="18" fill="#ea5a47" transform="rotate(-45)"/><g fill="none" stroke="#000" stroke-linecap="round" stroke-linejoin="round"><circle cx="8.675" cy="51.41" r="18.22" stroke-miterlimit="10" stroke-width="2" transform="rotate(-45)"/><path stroke-miterlimit="10" stroke-width="2" d="m12 60.7 13.79-13.79"/><path stroke-width="1.864" d="M42.69 30.99c.19-.71 1.05-.094 1.179.316.35 1.11-.82 1.996-1.811 2.042-1.774.082-2.992-1.659-2.906-3.306.128-2.417 2.507-4.008 4.801-3.769 3.058.32 5.032 3.357 4.632 6.297-.503 3.699-4.208 6.059-7.792 5.495-4.341-.683-7.089-5.059-6.359-9.287.86-4.982 5.911-8.12 10.78-7.222 5.624 1.037 9.152 6.763 8.085 12.28-1.213 6.266-7.615 10.18-13.77 8.948-6.907-1.387-11.22-8.467-9.811-15.27 1.562-7.549 9.32-12.25 16.76-10.67"/></g><path fill="none" stroke="#fff" stroke-linecap="round" stroke-linejoin="round" stroke-width="1.864" d="M42.69 30.99c.19-.71 1.05-.094 1.179.316.35 1.11-.82 1.996-1.811 2.042-1.774.082-2.992-1.659-2.906-3.306.128-2.417 2.507-4.008 4.801-3.769 3.058.32 5.032 3.357 4.632 6.297-.503 3.699-4.208 6.059-7.792 5.495-4.341-.683-7.089-5.059-6.359-9.287.86-4.982 5.911-8.12 10.78-7.222 5.624 1.037 9.152 6.763 8.085 12.28-1.213 6.266-7.615 10.18-13.77 8.948-6.907-1.387-11.22-8.467-9.811-15.27 1.562-7.549 9.32-12.25 16.76-10.67"/></svg><svg viewBox="0 0 72 72" id="1F36E" xmlns="http://www.w3.org/2000/svg"><circle cx="38.5" cy="15" r="2" fill="#ea5a47"/><circle cx="33.5" cy="15" r="2" fill="#ea5a47"/><circle cx="36" cy="11" r="2" fill="#ea5a47"/><path fill="#FFF" d="M60 57a3 3 0 0 1-3 3H15a3 3 0 0 1-3-3v-1h48v1z"/><path fill="#fcea2b" d="M55.767 34.414 58 56H14l2.233-21.586L17 27c0-5.523 4.478-10 10-10h18c5.522 0 10 4.477 10 10l.767 7.414z"/><path fill="#a57939" d="M55.533 34.414a2.98 2.98 0 0 1-1.766.586 3 3 0 0 1-3-3v-2a3 3 0 1 0-6 0v2a3 3 0 0 1-6 0v-2a3 3 0 1 0-6 0v2a3 3 0 0 1-6 0v-2a3 3 0 1 0-6 0v2a3 3 0 0 1-3 3A2.98 2.98 0 0 1 16 34.414L16.767 27c0-5.523 4.477-10 10-10h18c5.522 0 10 4.477 10 10l.766 7.414z"/><g fill="none" stroke="#000" stroke-linecap="round" stroke-linejoin="round" stroke-miterlimit="10" stroke-width="2"><path d="M60 57a3 3 0 0 1-3 3H15a3 3 0 0 1-3-3v-1h48v1z"/><circle cx="38.5" cy="15" r="2"/><circle cx="33.5" cy="15" r="2"/><circle cx="36" cy="11" r="2"/><path d="M16.233 34.414 17 27c0-5.523 4.478-10 10-10h18c5.522 0 10 4.477 10 10l.767 7.414m-39.534 0L14 56h44l-2.233-21.586"/><path d="M16.233 34.414A2.98 2.98 0 0 0 18 35a3 3 0 0 0 3-3v-2a3 3 0 1 1 6 0v2a3 3 0 0 0 6 0v-2a3 3 0 1 1 6 0v2a3 3 0 0 0 6 0v-2a3 3 0 1 1 6 0v2a3 3 0 0 0 3 3 2.98 2.98 0 0 0 1.767-.586"/></g></svg><svg viewBox="0 0 72 72" id="1F36F" xmlns="http://www.w3.org/2000/svg"><path fill="#f4aa41" d="M55 17v-6H17v6m28 43c8.284 0 15-6.716 15-15V22a5 5 0 0 0-5-5H17a5 5 0 0 0-5 5v23c0 8.284 6.716 15 15 15h18z"/><path fill="#fcea2b" d="M35 17v14a5 5 0 0 0 10 0v11a3 3 0 0 0 6 0V23a3 3 0 1 0 6 0v-5.578A4.979 4.979 0 0 0 55 17H33v-6h22v6"/><g fill="none" stroke="#000" stroke-linecap="round" stroke-linejoin="round" stroke-miterlimit="10" stroke-width="2"><path d="M55 17v-6H17v6m34 25a3 3 0 0 1-6 0m6-19a3 3 0 1 0 6 0v-5M45 31a5 5 0 1 1-10 0m10 11V31m6 11V23m-16 8V17m-2 0v-6"/><path d="M45 60c8.284 0 15-6.716 15-15V22a5 5 0 0 0-5-5H17a5 5 0 0 0-5 5v23c0 8.284 6.716 15 15 15h18z"/></g></svg><svg viewBox="0 0 72 72" id="1F370" xmlns="http://www.w3.org/2000/svg"><path fill="#FFF" d="m58 17.057-17.751 2.728-1.327 1.208L7 26a2 2 0 0 0-2 2v12h1a5 5 0 0 0 5-4.999 5 5 0 1 1 10 0 5 5 0 0 0 10 0 5 5 0 1 1 10 0 5 5 0 0 0 10 0 5 5 0 1 1 10 0A5 5 0 0 0 66 40h1V28c0-4.711-3.26-8.663-7.647-9.722-.434-.104-.88-1.124-1.334-1.17"/><circle cx="49.5" cy="18" r="5" fill="#ea5a47"/><path fill="#fcea2b" d="M67 39v20a2 2 0 0 1-2 2H7a2 2 0 0 1-2-2V39"/><path fill="#fcea2b" d="M67 40h-1a5 5 0 0 1-5-5 5 5 0 0 0-10 0 5 5 0 0 1-10 0 5 5 0 0 0-10 0 5 5 0 0 1-10 0 5 5 0 0 0-10 0 5 5 0 0 1-5 5H5"/><g fill="none" stroke="#000" stroke-linecap="round" stroke-linejoin="round" stroke-miterlimit="10" stroke-width="2"><path d="M67 28v31a2 2 0 0 1-2 2H7a2 2 0 0 1-2-2V28a2 2 0 0 1 2-2l33.996-5.439m17.023-2.51C63.063 18.561 67 22.822 67 28"/><path d="M5 40h1a5 5 0 0 0 5-4.999 5 5 0 1 1 10 0 5 5 0 0 0 10 0 5 5 0 1 1 10 0 5 5 0 0 0 10 0 5 5 0 1 1 10 0A5 5 0 0 0 66 40h1M5 48h62M5 52h62"/><circle cx="49.5" cy="18" r="5"/><path d="M49.5 16c0-5.523 4.477-10 10-10"/></g></svg><svg viewBox="0 0 72 72" id="1F382" xmlns="http://www.w3.org/2000/svg"><path fill="#fcea2b" d="M11 37c0 1.105 50 2.104 50 1v-7h-1V20a5 5 0 0 0-5-5H17a5 5 0 0 0-5 5v11h-1v6z"/><path fill="#FFF" d="M12 21.924a5 5 0 0 1 6.321.612 5.002 5.002 0 0 0 7.073 0 5 5 0 0 1 7.07 0 5.002 5.002 0 0 0 7.072 0 5 5 0 0 1 7.07 0 5.002 5.002 0 0 0 7.073 0A5 5 0 0 1 60 21.924V20a5 5 0 0 0-5-5H17a5 5 0 0 0-5 5v1.924z"/><path fill="#fcea2b" d="M5 60a2 2 0 0 0 2 2h58a2 2 0 0 0 2-2V41a5 5 0 0 0-5-5H10a5 5 0 0 0-5 5v19z"/><circle cx="36" cy="12" r="3" fill="#ea5a47"/><path fill="#FFF" d="M11.251 45.536a5 5 0 0 0 7.07 0 5.002 5.002 0 0 1 7.073 0 5 5 0 0 0 7.07 0 5.002 5.002 0 0 1 7.072 0 5 5 0 0 0 7.07 0 5.002 5.002 0 0 1 7.073 0 5 5 0 0 0 7.07 0A5 5 0 0 1 67 44.877V41a5 5 0 0 0-5-5H10a5 5 0 0 0-5 5v3.877a5 5 0 0 1 6.251.66z"/><g fill="none" stroke="#000" stroke-linecap="round" stroke-linejoin="round" stroke-miterlimit="10" stroke-width="2"><circle cx="36" cy="12" r="3"/><path d="M36 10.75a5 5 0 0 1 5-5M11.251 45.536a5 5 0 0 0 7.07 0 5.002 5.002 0 0 1 7.073 0 5 5 0 0 0 7.07 0 5.002 5.002 0 0 1 7.072 0 5 5 0 0 0 7.07 0 5.002 5.002 0 0 1 7.073 0 5 5 0 0 0 7.07 0A5 5 0 0 1 67 44.877V41a5 5 0 0 0-5-5H10a5 5 0 0 0-5 5v3.877a5 5 0 0 1 6.251.66z"/><path d="M5 44.877V60a2 2 0 0 0 2 2h58a2 2 0 0 0 2-2V44.877"/><path d="M11.251 45.536a5 5 0 0 0 7.07 0 5.002 5.002 0 0 1 7.073 0 5 5 0 0 0 7.07 0 5.002 5.002 0 0 1 7.072 0 5 5 0 0 0 7.07 0 5.002 5.002 0 0 1 7.073 0 5 5 0 0 0 7.07 0A5 5 0 0 1 67 44.877V41a5 5 0 0 0-5-5H10a5 5 0 0 0-5 5v3.877a5 5 0 0 1 6.251.66zM60 21.924V32M12 21.924V32m0-10.076a5 5 0 0 1 6.321.612 5.002 5.002 0 0 0 7.073 0 5 5 0 0 1 7.07 0 5.002 5.002 0 0 0 7.072 0 5 5 0 0 1 7.07 0 5.002 5.002 0 0 0 7.073 0A5 5 0 0 1 60 21.924V20a5 5 0 0 0-5-5H17a5 5 0 0 0-5 5v1.924z"/></g></svg><svg viewBox="0 0 72 72" id="1F967" xmlns="http://www.w3.org/2000/svg"><path fill="#FFF" d="M66.747 49.062s-1.896 3.051-2.025 4.1c-.207 1.685-.376 3.075-2.075 3.075H9.353c-1.699 0-2.868-1.39-3.075-3.075-.13-1.049-1.167-4.1-1.167-4.1l-.119-6.858c2.36-3.433 10.59-5.44 31.008-5.44 20.172 0 31.612.101 30.923 4.236l-.176 8.062z"/><path fill="#fcea2b" d="M63.73 36.326c-.357-1.523-.937-3.326-.937-3.326-2.84-6.856-8.297-12.63-15.695-15.694-14.475-5.995-31.02.595-37.474 14.735 0 0-.78 1.865-1.15 4.222C6.464 36.91 5 38.774 5 41a5 5 0 0 0 5 5c1.866 0 3.474-1.034 4.333-2.549.86 1.515 2.468 2.549 4.334 2.549 1.865 0 3.475-1.035 4.333-2.55.858 1.515 2.468 2.55 4.333 2.55 1.866 0 3.475-1.034 4.334-2.549C32.527 44.966 34.134 46 36 46s3.474-1.034 4.333-2.549c.86 1.515 2.468 2.549 4.334 2.549 1.865 0 3.475-1.035 4.333-2.55.858 1.515 2.468 2.55 4.333 2.55 1.866 0 3.475-1.034 4.334-2.549C58.527 44.966 60.134 46 62 46a5 5 0 0 0 5-5c0-2.15-1.366-3.969-3.27-4.674z"/><path fill="none" stroke="#000" stroke-linecap="round" stroke-linejoin="round" stroke-miterlimit="10" stroke-width="2" d="M66 49s-.874 2.977-1 4c-.202 1.645-1.343 3-3 3H10c-1.657 0-2.798-1.355-3-3-.126-1.023-1-4-1-4m57.73-12.674c-.357-1.523-.937-3.326-.937-3.326-2.84-6.856-8.297-12.63-15.695-15.694-14.475-5.995-31.02.595-37.474 14.735 0 0-.78 1.865-1.15 4.222C6.464 36.91 5 38.774 5 41a5 5 0 0 0 5 5c1.866 0 3.474-1.034 4.333-2.549.86 1.515 2.468 2.549 4.334 2.549 1.865 0 3.475-1.035 4.333-2.55.858 1.515 2.468 2.55 4.333 2.55 1.866 0 3.475-1.034 4.334-2.549C32.527 44.966 34.134 46 36 46s3.474-1.034 4.333-2.549c.86 1.515 2.468 2.549 4.334 2.549 1.865 0 3.475-1.035 4.333-2.55.858 1.515 2.468 2.55 4.333 2.55 1.866 0 3.475-1.034 4.334-2.549C58.527 44.966 60.134 46 62 46a5 5 0 0 0 5-5c0-2.15-1.366-3.969-3.27-4.674zM36 32v-6m-13.556 3.557 4.778-4.779m22.335 4.779-4.779-4.779"/></svg><svg viewBox="0 0 72 72" id="1F9C1" xmlns="http://www.w3.org/2000/svg"><path fill="none" stroke="#000" stroke-linecap="round" stroke-linejoin="round" stroke-width="2" d="m34.134 16.5 1.732-1m-8 10-1.732-1m10.732 11-1.732-1M45.5 26.866l-1-1.732m-10 2.732 1-1.732m6-7.268-1-1.732m-17 18.732-1-1.732M29 40h2m16.5-3.134 1-1.732M41.134 39.5l1.732-1"/><path fill="#a57939" stroke="#a57939" stroke-miterlimit="10" stroke-width="2" d="M59.031 43.629a2 2 0 1 0-2-3.464L36 40l-21.01.165a2.15 2.15 0 0 0-2.732.732 2.15 2.15 0 0 0 .732 2.732L36 57z"/><path fill="#92d3f5" d="M56 46c-4 0-8 13-8 21H24c0-8-4-21-8-21h5l3 2 3-2 3 2 3-2 3 2 3-2 3 2 3-2 3 2 3-2z"/><path fill="#ffa7c0" stroke="#ffa7c0" stroke-miterlimit="10" stroke-width="2" d="M50 42c3.846-1.099 6-3 6-7 0-2-3-4-3-4s-1.915-1.958-1.357-3.204C52 27 20 27.161 20 28c0 1-2 2-2 2s-3 0-3 4c0 7 6.864 7.466 13 9 4 1 5-1 10-1 4 0 5 2 12 0z"/><path fill="#ffa7c0" stroke="#ffa7c0" stroke-linecap="round" stroke-linejoin="round" stroke-width="2" d="M24.052 20.66c-2.276 0-4.552 2.46-4.552 4.31 0 2.206 1.138 5.413 10.241 5.413l10.242.103c10.241 0 12.517-2.103 12.517-4.31s-3.414-3.206-3.414-3.206C47.86 22 46.828 21 47.948 18.349c-.086-2.269-6.376-4.273-6.804-7.39a1.42 1.42 0 0 0-.21-.611L39 5c-.127 6.663-12.672 7.832-12.672 12.245 0 0 0 3.414-2.276 3.414z"/><path fill="#61b2e4" stroke="#61b2e4" stroke-linecap="round" stroke-linejoin="round" stroke-width="2" d="m34.134 16.5 1.732-1"/><path fill="#61b2e4" stroke="#d22f27" stroke-linecap="round" stroke-linejoin="round" stroke-width="2" d="m27.866 25.5-1.732-1"/><path fill="#61b2e4" stroke="#5c9e31" stroke-linecap="round" stroke-linejoin="round" stroke-width="2" d="m36.866 35.5-1.732-1M45.5 26.866l-1-1.732"/><path fill="#61b2e4" stroke="#fcea2b" stroke-linecap="round" stroke-linejoin="round" stroke-width="2" d="m34.5 27.866 1-1.732"/><path fill="#61b2e4" stroke="#8967aa" stroke-linecap="round" stroke-linejoin="round" stroke-width="2" d="m41.5 18.866-1-1.732"/><path fill="#5c9e31" stroke="#61b2e4" stroke-linecap="round" stroke-linejoin="round" stroke-width="2" d="m23.5 35.866-1-1.732"/><path fill="#61b2e4" stroke="#e27022" stroke-linecap="round" stroke-linejoin="round" stroke-width="2" d="M29 40h2"/><path fill="#61b2e4" stroke="#d22f27" stroke-linecap="round" stroke-linejoin="round" stroke-width="2" d="m47.5 36.866 1-1.732"/><path fill="#61b2e4" stroke="#fcea2b" stroke-linecap="round" stroke-linejoin="round" stroke-width="2" d="m41.134 39.5 1.732-1"/><g fill="none" stroke="#000" stroke-linecap="round" stroke-linejoin="round" stroke-width="2"><path d="M39 5c-.127 6.663-12.672 7.832-12.672 12.245 0 2.207 3.413 2.207 5.69 2.207m9.102-8.827c0 3.31 6.828 5.517 6.828 7.724s-4.49 4.634-11.379 4.31M24.052 20.66c-2.276 0-4.552 2.46-4.552 4.31 0 2.206 1.138 5.413 10.241 5.413m10.242.104c10.241 0 12.517-2.104 12.517-4.31s-3.414-3.207-3.414-3.207M56 46c-4 0-8 13-8 21H24c0-8-4-21-8-21"/><path d="m21 46 2.168 1.445a1.627 1.627 0 0 0 1.664 0l1.336-.89a1.627 1.627 0 0 1 1.664 0l1.336.89a1.627 1.627 0 0 0 1.664 0l1.336-.89a1.627 1.627 0 0 1 1.664 0l1.336.89a1.627 1.627 0 0 0 1.664 0l1.336-.89a1.627 1.627 0 0 1 1.664 0l1.336.89a1.627 1.627 0 0 0 1.664 0l1.336-.89a1.627 1.627 0 0 1 1.664 0l1.336.89a1.627 1.627 0 0 0 1.664 0L51 46M18 30s-3 0-3 4c0 3 3 8 9 8m33.031-1.835a2 2 0 1 1 2 3.464M14.99 40.165a2.15 2.15 0 0 0-2.732.732 2.15 2.15 0 0 0 .732 2.732M53 31s3 1 3 4-2 7-6 7"/></g></svg></svg>