<?xml version="1.0" encoding="utf-8"?><svg viewBox="0 0 72 72" xmlns="http://www.w3.org/2000/svg" xmlns:xlink="http://www.w3.org/1999/xlink"><style>:root>svg{display:none}:root>svg:target{display:block}</style><svg viewBox="0 0 72 72" id="1F6CE" xmlns="http://www.w3.org/2000/svg"><path fill="#f1b31c" stroke="#f1b31c" stroke-miterlimit="10" d="M36.4 16.8a17.669 17.669 0 00-17.7 17.7H54a17.584 17.584 0 00-17.6-17.7z"/><path fill="#f1b31c" d="M37.5 15.6a1.771 1.771 0 001.7-1.8 1.752 1.752 0 00-1.7-1.7 1.771 1.771 0 00-1.7 1.8 1.685 1.685 0 001.7 1.7zM36.7 41.6a1.771 1.771 0 001.7-1.8 1.752 1.752 0 00-1.7-1.7 1.771 1.771 0 00-1.7 1.8 1.627 1.627 0 001.7 1.7z"/><path fill="#fff" d="M40.8 23c.7-.1 1.3.5 1.9.8a4.013 4.013 0 011.6 1.3c1 1.6 3.6.1 2.6-1.5a7.809 7.809 0 00-2.7-2.4 6.1 6.1 0 00-3.4-1.2 1.5 1.5 0 000 3z"/><path fill="none" stroke="#6a462f" stroke-miterlimit="10" stroke-width="3" d="M14.5 47.5h42"/><path fill="none" stroke="#6a462f" stroke-miterlimit="10" stroke-width="2.356" d="M17.9 43.7h36.6"/><path fill="none" stroke="#f1b31c" stroke-miterlimit="10" stroke-width="2.356" d="M16.2 36h41.2"/><g fill="none" stroke="#000"><path stroke-linecap="round" stroke-linejoin="round" stroke-width="2.356" d="M19.1 33.3a17.65 17.65 0 0135.3-.1v.1"/><path stroke-linejoin="round" stroke-width="2" d="M17.3 34.3h39A1.752 1.752 0 0158 36v.1a1.752 1.752 0 01-1.7 1.7h-39a1.752 1.752 0 01-1.7-1.7V36a1.627 1.627 0 011.7-1.7z"/><path stroke-linecap="square" stroke-miterlimit="10" stroke-width="2" d="M35 38.4h3.5v2.4H35z"/><path stroke-linecap="square" stroke-linejoin="round" stroke-width="2" d="M17.4 41.9h37.7v3.5H17.4zM15 45.5h42.4V49H15z"/><path stroke-linecap="round" stroke-linejoin="round" stroke-width="2" d="M35 15a2.35 2.35 0 114.7-.1h0"/></g></svg><svg viewBox="0 0 72 72" id="1F9F3" xmlns="http://www.w3.org/2000/svg"><path d="M40.701 37.652l2.598 1.5-1 1.732-2.598-1.5 1-1.732m-.365-2.366a1 1 0 00-.867.5l-2 3.464a1 1 0 00.366 1.366l4.33 2.5a1 1 0 001.366-.366l2-3.464a1 1 0 00-.366-1.366l-4.33-2.5a.994.994 0 00-.5-.135zM30.497 29.267a1.002 1.002 0 11-.497.135.993.993 0 01.497-.135m0-2a3 3 0 102.601 1.5 2.987 2.987 0 00-2.6-1.5zM58.497 42.268a1 1 0 11-.497.135.992.992 0 01.497-.135m0-2a3 3 0 102.601 1.5 2.987 2.987 0 00-2.6-1.5zM33.299 47.652l1 1.732-2.598 1.5-1-1.732 2.598-1.5m.365-2.366a.995.995 0 00-.499.134l-4.33 2.5a1 1 0 00-.366 1.366l2 3.464a1 1 0 001.366.366l4.33-2.5a1 1 0 00.366-1.366l-2-3.464a1 1 0 00-.867-.5zM15 38.5v3h-2v-3h2m1-2h-4a1 1 0 00-1 1v5a1 1 0 001 1h4a1 1 0 001-1v-5a1 1 0 00-1-1z"/><g><rect width="54" height="34" x="9" y="22" fill="#a57939" rx="3"/><rect width="4" height="38" x="19" y="20" fill="#6a462f" rx="1"/><rect width="4" height="38" x="49" y="20" fill="#6a462f" rx="1"/><rect width="7" height="6" x="38" y="36.268" fill="#e67a94" rx="1" transform="rotate(30 41.501 39.266)"/><circle cx="30.5" cy="30.268" r="3" fill="#fcea2b"/><circle cx="58.5" cy="43.269" r="3" fill="#61b2e4"/><rect width="7" height="6" x="29" y="46.268" fill="#f4aa41" rx="1" transform="rotate(-30 32.5 49.268)"/><rect width="7" height="6" x="10.5" y="37" fill="#b1cc33" rx="1" transform="rotate(90 14 40)"/><path fill="#a57939" d="M33.5 22v-2a1 1 0 011-1h3a1 1 0 011 1v2h3v-3.8a2.2 2.2 0 00-2.2-2.2h-6.6a2.2 2.2 0 00-2.2 2.2V22z"/></g><g><g fill="none" stroke="#000" stroke-width="2"><path stroke-linejoin="round" d="M33.5 22v-2a1 1 0 011-1h3a1 1 0 011 1v2h3v-3.8a2.2 2.2 0 00-2.2-2.2h-6.6a2.2 2.2 0 00-2.2 2.2V22z"/><path stroke-miterlimit="10" d="M53 56h7a3 3 0 003-3V25a3 3 0 00-3-3h-7M19 22h-7a3 3 0 00-3 3v28a3 3 0 003 3h7"/><path stroke-linecap="round" stroke-linejoin="round" d="M40.067 40.75l-1.732-1 2-3.464 3.031 1.75"/><path stroke-linecap="round" stroke-miterlimit="10" d="M31.5 32a2 2 0 11-2-3.463M57.5 41.536a2 2 0 112 3.465"/><path stroke-linecap="round" stroke-linejoin="round" d="M31.067 47.786l-1.732 1 2 3.464 3.031-1.75M12 39.5v-2h4V41"/><rect width="4" height="38" x="19" y="20" stroke-miterlimit="10" rx="1"/><rect width="4" height="38" x="49" y="20" stroke-miterlimit="10" rx="1"/><path stroke-miterlimit="10" d="M23 22h26M49 56H23"/></g></g></svg></svg>