<?xml version="1.0" encoding="utf-8"?><svg viewBox="0 0 72 72" xmlns="http://www.w3.org/2000/svg" xmlns:xlink="http://www.w3.org/1999/xlink"><style>:root>svg{display:none}:root>svg:target{display:block}</style><svg viewBox="0 0 72 72" id="0023-FE0F-20E3" xmlns="http://www.w3.org/2000/svg"><path fill="#d0cfce" d="M11.875 12.208h48v47.834h-48z"/><g fill="none" stroke="#000" stroke-linecap="round" stroke-linejoin="round" stroke-width="2"><path d="M12.125 11.958h48v48h-48zM33.453 27.616L30.94 44.634M40.81 27.616l-2.513 17.018M28.066 32.357l16.717-.017M26.967 39.847l16.717-.017"/></g></svg><svg viewBox="0 0 72 72" id="002A-FE0F-20E3" xmlns="http://www.w3.org/2000/svg"><path fill="#d0cfce" d="M11.875 12.166h48V60h-48z"/><g fill="none" stroke="#000" stroke-linecap="round" stroke-linejoin="round" stroke-width="2"><path d="M12.125 11.916h48v48h-48zM36.125 24.916v22M26.923 29.89l18.404 12.053M26.912 41.926l18.426-12.02"/></g></svg><svg viewBox="0 0 72 72" id="0030-FE0F-20E3" xmlns="http://www.w3.org/2000/svg"><path fill="#d0cfce" d="M11.875 12.166h48V60h-48z"/><g fill="none" stroke="#000" stroke-linecap="round" stroke-linejoin="round" stroke-width="2"><path d="M12.125 11.916h48v48h-48z"/><path d="M35.875 44.78h0a4.76 4.76 0 01-4.76-4.76v-7.874a4.76 4.76 0 014.76-4.76h0a4.76 4.76 0 014.76 4.76v7.874a4.76 4.76 0 01-4.76 4.76z"/></g></svg><svg viewBox="0 0 72 72" id="0031-FE0F-20E3" xmlns="http://www.w3.org/2000/svg"><path fill="#d0cfce" d="M11.875 12.291h48v47.834h-48z"/><g fill="none" stroke="#000" stroke-linecap="round" stroke-linejoin="round" stroke-width="2"><path d="M12.125 12.041h48v48h-48z"/><path d="M31.664 30.895l4.8-3.59.122 17.472"/></g></svg><svg viewBox="0 0 72 72" id="0032-FE0F-20E3" xmlns="http://www.w3.org/2000/svg"><path fill="#d0cfce" d="M12 12.166h48V60H12z"/><g fill="none" stroke="#000" stroke-linecap="round" stroke-linejoin="round" stroke-width="2"><path d="M12.25 11.916h48v48h-48z"/><path d="M31.03 31.498a5.33 5.33 0 015.22-4.255h0a5.312 5.312 0 013.768 1.561 4.115 4.115 0 01-.046 5.58l-9.05 10.205h10.656"/></g></svg><svg viewBox="0 0 72 72" id="0033-FE0F-20E3" xmlns="http://www.w3.org/2000/svg"><path fill="#d0cfce" d="M12 12.166h48V60H12z"/><g fill="none" stroke="#000" stroke-linecap="round" stroke-linejoin="round" stroke-width="2"><path d="M12.25 11.916h48v48h-48z"/><path d="M31.419 41.115A4.776 4.776 0 0036.2 44.57h0a4.629 4.629 0 004.88-4.327 4.629 4.629 0 00-4.88-4.327 4.629 4.629 0 004.88-4.327 4.629 4.629 0 00-4.88-4.327h0a4.776 4.776 0 00-4.781 3.455"/></g></svg><svg viewBox="0 0 72 72" id="0034-FE0F-20E3" xmlns="http://www.w3.org/2000/svg"><path fill="#d0cfce" d="M11.875 12.291h48v47.834h-48z"/><g fill="none" stroke="#000" stroke-linecap="round" stroke-linejoin="round" stroke-width="2"><path d="M12.125 12.041h48v48h-48z"/><path d="M37.502 27.34l-6.466 14.62h10.178M39.538 36.571v8.171"/></g></svg><svg viewBox="0 0 72 72" id="0035-FE0F-20E3" xmlns="http://www.w3.org/2000/svg"><path fill="#d0cfce" d="M11.75 12.166h48V60h-48z"/><g fill="none" stroke="#000" stroke-linecap="round" stroke-linejoin="round" stroke-width="2"><path d="M12 11.916h48v48H12z"/><path d="M31.867 41.804a4.203 4.203 0 003.95 2.767h.115a4.201 4.201 0 004.201-4.202v-.901a4.201 4.201 0 00-4.201-4.201h-4.065v-8.005h8.266"/></g></svg><svg viewBox="0 0 72 72" id="0036-FE0F-20E3" xmlns="http://www.w3.org/2000/svg"><path fill="#d0cfce" d="M11.875 12.124h48v47.834h-48z"/><g fill="none" stroke="#000" stroke-linecap="round" stroke-linejoin="round" stroke-width="2"><path d="M12.125 11.874h48v48h-48z"/><circle cx="36.125" cy="39.913" r="4.659"/><path d="M36.125 27.177l-3.816 10.066"/></g></svg><svg viewBox="0 0 72 72" id="0037-FE0F-20E3" xmlns="http://www.w3.org/2000/svg"><path fill="#d0cfce" d="M11.875 12.166h48V60h-48z"/><g fill="none" stroke="#000" stroke-linecap="round" stroke-linejoin="round" stroke-width="2"><path d="M12.125 11.916h48v48h-48z"/><path d="M30.984 31.679v-4.293h9.782l-6.044 17.395"/></g></svg><svg viewBox="0 0 72 72" id="0038-FE0F-20E3" xmlns="http://www.w3.org/2000/svg"><path fill="#d0cfce" d="M11.75 12.416h48V60.25h-48z"/><g fill="none" stroke="#000" stroke-linecap="round" stroke-linejoin="round" stroke-width="2"><path d="M12 12.166h48v48H12z"/><path d="M31.34 40.518h0a4.346 4.346 0 004.345 4.346h.63a4.346 4.346 0 004.346-4.346h0a4.346 4.346 0 00-4.346-4.346h-.63a4.346 4.346 0 00-4.346 4.346zM31.34 31.814h0a4.346 4.346 0 004.345 4.346h.63a4.346 4.346 0 004.346-4.346h0a4.346 4.346 0 00-4.346-4.346h-.63a4.346 4.346 0 00-4.346 4.346z"/></g></svg><svg viewBox="0 0 72 72" id="0039-FE0F-20E3" xmlns="http://www.w3.org/2000/svg"><path fill="#d0cfce" d="M11.875 12.38h48v47.834h-48z"/><g fill="none" stroke="#000" stroke-linecap="round" stroke-linejoin="round" stroke-width="2"><path d="M12.125 12.13h48v48h-48z"/><circle cx="36.125" cy="32.092" r="4.659"/><path d="M36.125 44.828l3.816-10.066"/></g></svg><svg viewBox="0 0 72 72" id="1F51F" xmlns="http://www.w3.org/2000/svg"><path fill="#d0cfce" d="M11.875 12.166h48V60h-48z"/><g fill="none" stroke="#000" stroke-linecap="round" stroke-linejoin="round" stroke-width="2"><path d="M12.125 11.916h48v48h-48z"/><path d="M39.822 44.442h0a4.643 4.643 0 01-4.643-4.643v-7.681a4.643 4.643 0 014.643-4.643h0a4.643 4.643 0 014.643 4.643v7.681a4.643 4.643 0 01-4.643 4.643zM25.535 31.05l4.644-3.48v16.776"/></g></svg></svg>