<?xml version="1.0" encoding="utf-8"?><svg viewBox="0 0 72 72" xmlns="http://www.w3.org/2000/svg" xmlns:xlink="http://www.w3.org/1999/xlink"><style>:root>svg{display:none}:root>svg:target{display:block}</style><svg viewBox="0 0 72 72" id="1F50F" xmlns="http://www.w3.org/2000/svg"><path fill="#fcea2b" d="M37.48 34.315v17.694H10.561V34.315H37.48"/><path fill="#f1b31c" d="M37.48 34.365L23.879 51.878h13.672l-.071-17.513z"/><path fill="none" stroke="#9b9b9a" stroke-linejoin="round" stroke-width="3.625" d="M14.907 33.812c0-6.652 2.187-13.686 8.936-13.686 6.872 0 9.074 5.558 9.349 13.686"/><path fill="#d0cfce" stroke="#d0cfce" stroke-linecap="round" stroke-linejoin="round" stroke-width="1.563" d="M42.923 41.776l-2.881 4.84-5.341 1.257-.581-4.984 3.977-4.15"/><path fill="#9b9b9a" d="M61.44 17.03l-2.188-1.35-2.16-1.386s-7.148 5.727-11.397 11.742a109.015 109.015 0 00-7.93 12.493l2.828 1.78 2.659 1.674a138.853 138.853 0 0010.09-11.135 63.418 63.418 0 008.097-13.817z"/><path fill="#3f3f3f" d="M43.3 29.772a60.702 60.702 0 00-5.627 8.7l2.828 1.78 2.659 1.673a63.87 63.87 0 007.176-7.724z"/><g><g fill="none" stroke="#000" stroke-linejoin="round" stroke-width="2"><path d="M13.697 34.307c0-7.532 2.924-15.258 10.12-15.258 6.898 0 10.274 6.055 10.585 15.258"/><path stroke-linecap="round" d="M37.48 50.39v1.554H10.561V34.3H37.48"/><path stroke-linecap="round" d="M41.799 44.313l-1.686 2.293-5.412 1.267-.595-5.048 1.757-2.303M37.088 44.702l-1.686 2.293M61.44 17.03l-2.188-1.35-2.16-1.386s-7.148 5.727-11.397 11.742a109.015 109.015 0 00-7.93 12.493l2.828 1.78 2.659 1.674a138.853 138.853 0 0010.09-11.135 63.418 63.418 0 008.097-13.817z"/><path d="M43.208 29.643l7.405 4.658"/></g></g></svg><svg viewBox="0 0 72 72" id="1F510" xmlns="http://www.w3.org/2000/svg"><path fill="#D0CFCE" stroke="#D0CFCE" stroke-linecap="round" stroke-linejoin="round" stroke-miterlimit="10" stroke-width="2" d="M14.196 35.652c-.2-7.666 5.579-16.384 12.452-16.6 6.93-.219 14.414 10.252 12.41 17.173h-3.183s.79-7.133-2.234-10.144c-1.542-1.536-4.55-4.3-7.48-3.869-1.977.291-6.392 2.807-7.31 4.581-1.028 1.984-1.17 8.859-1.17 8.859h-3.485z"/><path fill="#FCEA2B" d="M41.698 36.361h1.63v23.372H10.283V36.36h1.63z"/><path fill="#F1B31C" d="M42.941 36.532L26.62 59.578h16.79z"/><path fill="#F4AA41" d="M55.94 32.583c3.583-1.818 6.069-5.786 6.069-10.389 0-6.321-4.69-11.446-10.473-11.446s-10.474 5.125-10.474 11.446c0 5.112 3.1 10.046 7.358 10.62"/><path fill="#F4AA41" stroke="#F4AA41" stroke-linecap="round" stroke-linejoin="round" stroke-miterlimit="10" stroke-width="2" d="M56.027 32.35l-.011 3.076.156 20.725-4.502 4.501-4.66-4.66 2.883-2.883-3.157-3.157 3.641-3.642-3.14-3.14.014-2.976 2.71-2.71-1.242-1.241v-3.894"/><path fill="#E27022" d="M53.544 57.09l1.2-1.202-.219-19.827-1.214.013z"/><circle cx="51.535" cy="18.109" r="3.521" fill="#E27022" transform="rotate(-45.001 51.535 18.11)"/><g fill="none" stroke="#000" stroke-linecap="round" stroke-linejoin="round" stroke-miterlimit="10" stroke-width="2"><path d="M39.467 33.42c.581-8.034-5.889-14.587-12.82-14.369-6.872.217-12.45 7.083-12.45 14.37M41.698 36.32h1.63v23.372H10.283V36.32h1.63z"/><path d="M17.825 33.42c0-5.509 3.979-10.7 8.88-10.864 4.944-.165 9.559 4.79 9.144 10.864M56.025 36.026l.257 20.446-4.561 4.56-4.766-4.765 2.921-2.921-3.228-3.228 3.69-3.69-3.212-3.211v-3.03l2.745-2.745-1.27-1.27"/><circle cx="51.535" cy="18.109" r="3.521" transform="rotate(-45.001 51.535 18.11)"/><path d="M56.017 31.636c3.57-1.769 6.027-5.59 5.993-10-.046-6.057-4.772-10.932-10.556-10.888-5.784.044-10.435 4.99-10.39 11.047.038 4.898 3.134 9.022 7.376 10.399"/></g></svg><svg viewBox="0 0 72 72" id="1F511" xmlns="http://www.w3.org/2000/svg"><path fill="#F4AA41" d="M33.536 31.991c-1.402-4.288-.225-9.41 3.428-13.063 5.018-5.018 12.808-5.364 17.4-.773s4.244 12.381-.774 17.4c-4.057 4.056-10.434 5.512-14.268 2.588"/><path fill="#F4AA41" stroke="#F4AA41" stroke-linecap="round" stroke-linejoin="round" stroke-miterlimit="10" stroke-width="2" d="M33.652 31.736l-2.434 2.451-16.574 16.327v7.146h7.399v-4.576h5.011v-5.782h4.986l2.351-2.373v-4.302h1.97l3.091-3.09"/><path fill="#E27022" d="M15.985 53.346v-1.907l15.913-15.565.952.974z"/><circle cx="48.52" cy="23.998" r="3.952" fill="#E27022"/><g fill="none" stroke="#000" stroke-linecap="round" stroke-linejoin="round" stroke-miterlimit="10" stroke-width="2"><path d="M30.735 34.656L14.303 50.68v7.24h7.565v-4.636h5.125v-5.858h5.098l2.405-2.404v-4.358h2.015"/><circle cx="48.52" cy="23.998" r="3.952"/><path d="M34.226 31.178c-1.43-4.238-.347-9.22 3.18-12.695 4.845-4.771 12.465-4.889 17.022-.263s4.322 12.244-.523 17.016c-3.917 3.857-9.648 4.673-14.108 2.4"/></g></svg><svg viewBox="0 0 72 72" id="1F512" xmlns="http://www.w3.org/2000/svg"><path fill="#D0CFCE" stroke="#D0CFCE" stroke-linecap="round" stroke-linejoin="round" stroke-miterlimit="10" stroke-width="2" d="M21.375 31.175c-.35-8.771 6.45-18.54 14.387-18.78 8.005-.242 16.541 10.97 14.333 19.052h-4.04s1.563-7.922-2.216-11.253c-1.85-1.63-5.255-4.771-8.64-4.292-2.282.323-6.867 3.451-7.926 5.42-2.065 3.837-1.725 9.817-1.725 9.817l-4.173.036z"/><path fill="#FCEA2B" d="M53 32.297h1.875v26.875h-38V32.297h1.875z"/><path fill="#F1B31C" d="M54.43 32.493L35.66 58.994h19.308z"/><g fill="none" stroke="#000" stroke-linecap="round" stroke-linejoin="round" stroke-miterlimit="10" stroke-width="2"><path d="M53 32.25h1.875v26.875h-38V32.25h1.875zM21.375 28.915c0-8.379 6.415-16.275 14.319-16.523 7.97-.251 15.41 7.284 14.741 16.523"/><path d="M25.548 28.915c0-6.336 4.575-12.306 10.212-12.494 5.684-.19 10.99 5.508 10.514 12.494"/></g></svg><svg viewBox="0 0 72 72" id="1F513" xmlns="http://www.w3.org/2000/svg"><path fill="#FCEA2B" d="M53 32.297h1.875v26.875h-38V32.297h1.875z"/><path fill="#F1B31C" d="M54.43 32.493L35.66 58.994h19.308z"/><path fill="#D0CFCE" stroke="#D0CFCE" stroke-linejoin="round" stroke-miterlimit="10" stroke-width="2" d="M46.064 31.817l.21-2.902c.477-6.985-4.83-12.683-10.514-12.494-4.672.156-8.616 4.285-9.828 9.301l-4.05-.902c1.661-6.692 7.218-12.221 13.811-12.428 7.97-.251 15.41 7.284 14.742 16.523l-.243 2.902"/><g fill="none" stroke="#000" stroke-linecap="round" stroke-linejoin="round" stroke-miterlimit="10" stroke-width="2"><path d="M53 32.25h1.875v26.875h-38V32.25h1.875zM46.274 28.915c.477-6.986-4.83-12.683-10.514-12.494-4.672.156-8.616 4.285-9.828 9.301l-4.05-.902c1.661-6.692 7.218-12.221 13.811-12.428 7.97-.251 15.41 7.284 14.742 16.523"/></g></svg><svg viewBox="0 0 72 72" id="1F5DD" xmlns="http://www.w3.org/2000/svg"><g fill="#3F3F3F"><path d="M58.37 24.89c-1.08-1.1-3.71-2.83-4.62-4.07-.91-1.23-1.78-4.23-2.51-5.58-2.02-3.76-7.42-4.16-10.85-1.63l-1.26.94c-3.43 2.53-4.76 7.94-1.63 10.84 1.15 1.07 3.81 2.82 4.74 4.08.92 1.25 1.72 4.17 2.39 5.57 1.85 3.84 7.42 4.16 10.85 1.63l1.26-.94c3.43-2.53 4.63-7.81 1.63-10.84zm-2.27 5.47a4.936 4.936 0 01-5.66 4.09c-2.69-.43-4.24-2.93-4.09-5.65.17-3.16-2.53-3.12-2.53-3.12a4.949 4.949 0 01-4.1-5.66c.44-2.69 2.97-4.52 5.66-4.09s4.53 2.96 4.09 5.66c0 0-.71 3.02 2.54 3.11 2.72.08 4.52 2.97 4.09 5.66z"/><path d="M23.601 51.644l-2.198-2.049L44.25 32.733l-4.71-5.853L10.9 48.754l3.753 5.377 2.79-2.146 2.093 2.488-2.709 2.265 3.234 3.918 2.228-1.785s.456-3.532 4.02-3.135l2.36-2.003-2.928-3.7-2.141 1.61z"/></g><g fill="none" stroke="#000" stroke-miterlimit="10" stroke-width="2"><path stroke-linecap="round" stroke-linejoin="round" d="M40.561 34.56L21.204 49.18l2.157 2.604 2.1-1.586 2.872 3.643-2.314 1.972c-3.497-.39-3.944 3.087-3.944 3.087l-2.186 1.757-3.173-3.858 2.658-2.229-2.054-2.45-2.736 2.113-3.683-4.54 26.18-19.778"/><path d="M58.37 24.89c-1.08-1.1-3.71-2.83-4.62-4.07-.91-1.23-1.78-4.23-2.51-5.58-2.02-3.76-7.42-4.16-10.85-1.63l-1.26.94c-3.43 2.53-4.76 7.94-1.63 10.84 1.15 1.07 3.81 2.82 4.74 4.08.92 1.25 1.72 4.17 2.39 5.57 1.85 3.84 7.42 4.16 10.85 1.63l1.26-.94c3.43-2.53 4.63-7.81 1.63-10.84zm-2.27 5.47a4.936 4.936 0 01-5.66 4.09c-2.69-.43-4.24-2.93-4.09-5.65.17-3.16-2.53-3.12-2.53-3.12a4.949 4.949 0 01-4.1-5.66c.44-2.69 2.97-4.52 5.66-4.09s4.53 2.96 4.09 5.66c0 0-.71 3.02 2.54 3.11 2.72.08 4.52 2.97 4.09 5.66z"/></g></svg></svg>