<?xml version="1.0" encoding="utf-8"?><svg viewBox="0 0 72 72" xmlns="http://www.w3.org/2000/svg" xmlns:xlink="http://www.w3.org/1999/xlink"><style>:root>svg{display:none}:root>svg:target{display:block}</style><svg viewBox="0 0 72 72" id="1F4E4" xmlns="http://www.w3.org/2000/svg"><g stroke-miterlimit="10" stroke-width="2"><path fill="#92D3F5" d="M41.003 26.14h-1.589a1 1 0 0 0-1 1v4.411a1 1 0 0 1-.999 1h-4.33a1 1 0 0 1-1-1V27.14a1 1 0 0 0-1-1h-1.579a1 1 0 0 1-.815-1.576l5.748-8.121a1 1 0 0 1 1.631 0l5.749 8.12a1 1 0 0 1-.816 1.577z"/><path fill="#d0cfce" d="M61 42.189v10.74a3.095 3.095 0 0 1-3.092 3.092H14a3 3 0 0 1-3-3V42.096a3 3 0 0 1 3-3h5.407c1.12 0 2.227.523 2.786 1.494a2.903 2.903 0 0 0 2.515 1.464l11.287.01 11.286-.01c1.072 0 2.01-.587 2.516-1.464.559-.97 1.666-1.494 2.786-1.494h5.325c1.7 0 3.092 1.382 3.092 3.093z"/></g><g fill="none" stroke="#000" stroke-miterlimit="10" stroke-width="2"><path d="M41.003 26.14h-1.589a1 1 0 0 0-1 1v4.411a1 1 0 0 1-.999 1h-4.33a1 1 0 0 1-1-1V27.14a1 1 0 0 0-1-1h-1.579a1 1 0 0 1-.815-1.576l5.748-8.121a1 1 0 0 1 1.631 0l5.749 8.12a1 1 0 0 1-.816 1.577z"/><path stroke-linecap="round" stroke-linejoin="round" d="M61 42.189v10.74a3.095 3.095 0 0 1-3.092 3.092H14a3 3 0 0 1-3-3V42.096a3 3 0 0 1 3-3h5.407c1.12 0 2.227.523 2.786 1.494a2.903 2.903 0 0 0 2.515 1.464l11.287.01 11.286-.01c1.072 0 2.01-.587 2.516-1.464.559-.97 1.666-1.494 2.786-1.494h5.325c1.7 0 3.092 1.382 3.092 3.093z"/></g></svg><svg viewBox="0 0 72 72" id="1F4E5" xmlns="http://www.w3.org/2000/svg"><g stroke-linecap="round" stroke-miterlimit="10" stroke-width="2"><path fill="#EA5A47" d="M29.507 22.43h1.589a1 1 0 0 0 .999-.999v-4.41a1 1 0 0 1 1-1h4.33a1 1 0 0 1 1 1v4.41a1 1 0 0 0 1 1h1.578a1 1 0 0 1 .816 1.577l-5.748 8.12a1 1 0 0 1-1.632 0l-5.748-8.12a1 1 0 0 1 .816-1.577z"/><path fill="#d0cfce" d="M60.736 42.189v10.74a3.095 3.095 0 0 1-3.092 3.092H13.736a3 3 0 0 1-3-3V42.096a3 3 0 0 1 3-3h5.406c1.12 0 2.228.523 2.787 1.494a2.903 2.903 0 0 0 2.515 1.464l11.287.01 11.286-.01c1.072 0 2.01-.587 2.515-1.464.56-.97 1.667-1.494 2.787-1.494h5.325c1.7 0 3.092 1.382 3.092 3.093z"/></g><g fill="none" stroke="#000" stroke-linecap="round" stroke-miterlimit="10" stroke-width="2"><path d="M29.507 22.43h1.589a1 1 0 0 0 .999-.999v-4.41a1 1 0 0 1 1-1h4.33a1 1 0 0 1 1 1v4.41a1 1 0 0 0 1 1h1.578a1 1 0 0 1 .816 1.577l-5.748 8.12a1 1 0 0 1-1.632 0l-5.748-8.12a1 1 0 0 1 .816-1.577z"/><path stroke-linejoin="round" d="M60.736 42.189v10.74a3.095 3.095 0 0 1-3.092 3.092H13.736a3 3 0 0 1-3-3V42.096a3 3 0 0 1 3-3h5.406c1.12 0 2.228.523 2.787 1.494a2.903 2.903 0 0 0 2.515 1.464l11.287.01 11.286-.01c1.072 0 2.01-.587 2.515-1.464.56-.97 1.667-1.494 2.787-1.494h5.325c1.7 0 3.092 1.382 3.092 3.093z"/></g></svg><svg viewBox="0 0 72 72" id="1F4E6" xmlns="http://www.w3.org/2000/svg"><g stroke-linecap="round" stroke-linejoin="round" stroke-miterlimit="10" stroke-width="2"><path fill="#f4aa41" d="M61.665 11.98v48c0 .55-.45 1-1 1h-48c-.55 0-1-.45-1-1v-48c0-.55.45-1 1-1h48c.55 0 1 .45 1 1z"/><path fill="#d0cfce" d="M44.835 58.625v2.355h-16.33v-2.355c0-1.123 1.35-2.042 3-2.042h10.33c1.65 0 3 .92 3 2.042zm-.059-46.659v5.17c0 1.064-1.35 1.935-3 1.935h-10.33c-1.65 0-3-.87-3-1.934v-5.171"/></g><g stroke="#000" stroke-miterlimit="10" stroke-width="2"><path fill="none" stroke-linecap="round" stroke-linejoin="round" d="M61.665 11.98v48c0 .55-.45 1-1 1h-48c-.55 0-1-.45-1-1v-48c0-.55.45-1 1-1h48c.55 0 1 .45 1 1z"/><path d="M41.899 29.438H31.44a2.946 2.946 0 0 1-2.938-2.938 2.946 2.946 0 0 1 2.938-2.938h10.458a2.946 2.946 0 0 1 2.938 2.938 2.946 2.946 0 0 1-2.938 2.938z"/><path fill="none" stroke-linecap="round" stroke-linejoin="round" d="M44.835 58.625v2.355h-16.33v-2.355c0-1.123 1.35-2.042 3-2.042h10.33c1.65 0 3 .92 3 2.042zm-.059-46.659v5.17c0 1.064-1.35 1.935-3 1.935h-10.33c-1.65 0-3-.87-3-1.934v-5.171"/></g></svg><svg viewBox="0 0 72 72" id="1F4E7" xmlns="http://www.w3.org/2000/svg"><path fill="#D0CFCE" d="m26.638 36.75-15.35 14.14c-.35-.62-.57-1.44-.57-2.32V22.06l15.92 14.69zm-5.467-16.854h28.542v3.125H21.171z"/><path fill="#9B9B9A" d="M60.658 22.01v26.56c0 .86-.2 1.65-.55 2.27L47.841 39.607l-1.615 1.226-2.447-3.234L60.66 22.01z"/><path fill="none" d="m11.354 21.649-.062-.039"/><path fill="#D0CFCE" d="m26.638 36.75 4.47 4.13c.24.22.48.41.72.57 2.43 1.8 5.26 1.8 7.68-.01.23-.16.47-.36.69-.56l4.5-4.15"/><path fill="#D0CFCE" stroke="#D0CFCE" stroke-linecap="round" stroke-linejoin="round" stroke-miterlimit="10" stroke-width="1.8" d="m26.638 36.75 4.47 4.13c.24.22.48.41.72.57 2.43 1.8 5.26 1.8 7.68-.01.23-.16.47-.36.69-.56l4.5-4.15 15.41 14.11c-.42.77-1.07 1.27-1.79 1.27h-45.26c-.7 0-1.34-.47-1.77-1.22l15.35-14.14"/><path fill="#D0CFCE" stroke="#D0CFCE" stroke-linecap="round" stroke-linejoin="round" stroke-miterlimit="10" stroke-width="2" d="M20 36h7v5h-7z"/><path fill="#D0CFCE" d="M47.763 39.536 60.108 50.84c-.42.77-1.07 1.27-1.79 1.27h-45.26c-.7 0-1.34-.47-1.77-1.22l12.078-11.126"/><path fill="#D0CFCE" d="M49.485 20.9h9.46c.59 0 1.16.35 1.57.91.05.06.1.13.14.2l-15.96 14.72-4.5 4.15c-.22.2-.46.4-.69.56-2.42 1.81-5.25 1.81-7.68.01-.24-.16-.48-.35-.72-.57l-4.47-4.13-15.92-14.69c.04-.06.09-.13.14-.2.42-.6.99-.96 1.61-.96h8.48"/><path fill="none" stroke="#EA5A47" stroke-linecap="round" stroke-miterlimit="10" stroke-width="2" d="M37.698 20.755h-4v7h4m-4-3.5h3"/><g fill="none" stroke="#000" stroke-linecap="round" stroke-linejoin="round" stroke-miterlimit="10" stroke-width="2"><path d="m20.072 42.799-8.784 8.091c-.35-.62-.57-1.44-.57-2.32V22.06l15.92 14.69m17.142.85 16.878-15.59v26.56c0 .86-.2 1.65-.55 2.27L47.841 39.607M11.354 21.649l-.062-.039m15.346 15.14 4.47 4.13c.24.22.48.41.72.57 2.43 1.8 5.26 1.8 7.68-.01.23-.16.47-.36.69-.56l4.5-4.15"/><path d="M47.763 39.536 60.108 50.84c-.42.77-1.07 1.27-1.79 1.27h-45.26c-.7 0-1.34-.47-1.77-1.22l12.078-11.126"/><path d="M49.485 20.9h9.46c.59 0 1.16.35 1.57.91.05.06.1.13.14.2l-15.96 14.72-4.5 4.15c-.22.2-.46.4-.69.56-2.42 1.81-5.25 1.81-7.68.01-.24-.16-.48-.35-.72-.57l-4.47-4.13-15.92-14.69c.04-.06.09-.13.14-.2.42-.6.99-.96 1.61-.96h8.48m-7.757 31.21s-2.752.14-2.47-4.485"/></g></svg><svg viewBox="0 0 72 72" id="1F4E8" xmlns="http://www.w3.org/2000/svg"><rect width="37.511" height="23.454" x="27.599" y="23.819" fill="#d0cfce" rx="1.563"/><path fill="#9b9b9a" d="M65.152 24.597v19.995a4.175 4.175 0 0 1-.376 1.73l-8.494-7.819-.752.075-3.082-2.856z"/><g fill="none" stroke="#000" stroke-linecap="round" stroke-linejoin="round" stroke-width="2"><path d="M5.797 41.904h16.31m-12.815-6.99h12.815m14.405 3.664-8.42 7.743a3.903 3.903 0 0 1-.45-1.729v-19.92m29.896 14.727 7.292 6.711a3.586 3.586 0 0 0 .323-1.484v-20.03"/><path d="m55.455 37.752 9.246 8.494a1.607 1.607 0 0 1-1.353.977H29.371a1.78 1.78 0 0 1-1.353-.902l9.095-8.344"/><path d="m65.152 24.597-12.027 11.05-3.383 3.157c-.15.15-.376.3-.526.45a4.634 4.634 0 0 1-5.788 0c-.15-.15-.376-.3-.527-.45l-3.382-3.082-11.877-11.05c0-.075.075-.075.075-.15a1.533 1.533 0 0 1 1.203-.752h34.954a1.656 1.656 0 0 1 1.203.677c0 .075.075.075.075.15z"/></g></svg><svg viewBox="0 0 72 72" id="1F4E9" xmlns="http://www.w3.org/2000/svg"><path fill="#D0CFCE" d="M20.28 22.563H52v3.125H20.28zm7.947 18.22-3.287 3.226-2.201-.9-11.341 10.448c-.35-.62-.57-1.44-.57-2.32v-26.51l17.4 16.056z"/><path fill="#9B9B9A" d="M60.767 24.677v26.56c0 .86-.2 1.65-.55 2.27L48.779 43.032l-1.523.197-3.473-2.807 3.975-3.745 13.01-12z"/><path fill="#D0CFCE" d="m26.747 39.417 4.47 4.13c.24.22.48.41.72.57 2.43 1.8 5.26 1.8 7.68-.01.23-.16.47-.36.69-.56l4.5-4.15"/><path fill="#D0CFCE" stroke="#D0CFCE" stroke-linecap="round" stroke-linejoin="round" stroke-miterlimit="10" stroke-width="1.8" d="m26.747 39.417 4.47 4.13c.24.22.48.41.72.57 2.43 1.8 5.26 1.8 7.68-.01.23-.16.47-.36.69-.56l4.5-4.15 15.41 14.11c-.42.77-1.07 1.27-1.79 1.27h-45.26c-.7 0-1.34-.47-1.77-1.22l15.35-14.14"/><path fill="#D0CFCE" d="m47.872 42.203 12.345 11.304c-.42.77-1.07 1.27-1.79 1.27h-45.26c-.7 0-1.34-.47-1.77-1.22l12.08-11.127"/><path fill="#D0CFCE" d="M49.594 23.567h9.46c.59 0 1.16.35 1.57.91.05.06.1.13.14.2l-15.96 14.72-4.5 4.15c-.22.2-.46.4-.69.56-2.42 1.81-5.25 1.81-7.68.01-.24-.16-.48-.35-.72-.57l-4.47-4.13-15.92-14.69c.04-.06.09-.13.14-.2.42-.6.99-.96 1.61-.96h8.48"/><path fill="#EA5A47" d="M29.95 22.097h1.588a1 1 0 0 0 1-.999v-4.411a1 1 0 0 1 .999-1h4.331a1 1 0 0 1 1 1v4.411a1 1 0 0 0 1 1h1.578a1 1 0 0 1 .816 1.576l-5.749 8.121a1 1 0 0 1-1.631 0l-5.748-8.12a1 1 0 0 1 .815-1.578z"/><g fill="none" stroke="#000" stroke-linecap="round" stroke-miterlimit="10" stroke-width="2"><path stroke-linejoin="round" d="M22.739 43.11 11.398 53.556c-.35-.62-.57-1.44-.57-2.32v-26.51l17.4 16.056m15.554-.36 3.975-3.745 13.01-12v26.56c0 .86-.2 1.65-.55 2.27L48.779 43.032"/><path stroke-linejoin="round" d="m26.747 39.417 4.47 4.13c.24.22.48.41.72.57 2.43 1.8 5.26 1.8 7.68-.01.23-.16.47-.36.69-.56l4.5-4.15"/><path stroke-linejoin="round" d="m47.872 42.203 12.345 11.304c-.42.77-1.07 1.27-1.79 1.27h-45.26c-.7 0-1.34-.47-1.77-1.22l12.08-11.127"/><path stroke-linejoin="round" d="M49.594 23.567h9.46c.59 0 1.16.35 1.57.91.05.06.1.13.14.2l-15.96 14.72-4.5 4.15c-.22.2-.46.4-.69.56-2.42 1.81-5.25 1.81-7.68.01-.24-.16-.48-.35-.72-.57l-4.47-4.13-15.92-14.69c.04-.06.09-.13.14-.2.42-.6.99-.96 1.61-.96h8.48"/><path d="M29.95 22.097h1.588a1 1 0 0 0 1-.999v-4.411a1 1 0 0 1 .999-1h4.331a1 1 0 0 1 1 1v4.411a1 1 0 0 0 1 1h1.578a1 1 0 0 1 .816 1.576l-5.749 8.121a1 1 0 0 1-1.631 0l-5.748-8.12a1 1 0 0 1 .815-1.578z"/></g></svg><svg viewBox="0 0 72 72" id="1F4EA" xmlns="http://www.w3.org/2000/svg"><path fill="#FFF" stroke="#FFF" stroke-miterlimit="10" stroke-width="1.8" d="M32.498 57.778V35.886h6.736v21.892a3.378 3.378 0 0 1-3.368 3.368 3.358 3.358 0 0 1-2.378-.99 3.358 3.358 0 0 1-.99-2.378z"/><path fill="#FFF" d="M39.23 44.875V57.78c0 1.85-1.51 3.37-3.36 3.37-.93 0-1.77-.38-2.38-.99s-.99-1.46-.99-2.38V44.844"/><path fill="#61B2E4" stroke="#61B2E4" stroke-linejoin="round" stroke-miterlimit="10" stroke-width="1.8" d="M56.541 25.826v9.825c0 1.967-1.305 3.598-2.976 3.822-.132.02-.265.03-.408.03l-28.628-.03c1.1 0 1.988-1.009 1.988-2.242V25.826c0-5.768-4.077-11.822-3.415-11.822h23.064c.662 0 1.304.072 1.926.214h.01c4.8 1.03 8.439 5.84 8.439 11.608z"/><path fill="#EA5A47" d="M40.1 29.017v.905c0 .622.426 1.131.947 1.131h9.666v2.037c0 .622.426 1.131.947 1.131h7.202c.52 0 .947-.51.947-1.131v-4.073c0-.623-.426-1.132-.947-1.132H41.047c-.521 0-.947.51-.947 1.132z"/><path fill="#92D3F5" d="M33.218 25.822v11.405c0 1.233-.887 2.242-1.988 2.242H14.486c-1.101 0-1.978-1.01-1.978-2.242V24.915c.235-3.648 1.927-6.838 4.434-8.816 1.66-1.314 3.71-2.099 5.9-2.099.663 0 1.305.071 1.927.214h.01c4.8 1.03 8.439 5.84 8.439 11.608z"/><g fill="none" stroke="#000" stroke-miterlimit="10" stroke-width="2"><path stroke-linecap="round" d="M39.23 44.875V57.78c0 1.85-1.51 3.37-3.36 3.37-.93 0-1.77-.38-2.38-.99s-.99-1.46-.99-2.38V44.844"/><path stroke-linecap="round" stroke-linejoin="round" d="m23.09 14.01.01-.01h23.07c.66 0 1.3.08 1.92.22h.01c3.97.85 7.14 4.28 8.12 8.7M24.53 39.47l28.63.03c.14 0 .27-.01.4-.03.84-.11 1.58-.57 2.12-1.25"/><path stroke-linejoin="round" d="M40.1 29.017v.905c0 .622.426 1.131.947 1.131h9.666v2.037c0 .622.426 1.131.947 1.131h7.202c.52 0 .947-.51.947-1.131v-4.073c0-.623-.426-1.132-.947-1.132H41.047c-.521 0-.947.51-.947 1.132z"/><path d="M33.218 25.822v11.405c0 1.233-.887 2.242-1.988 2.242H14.486c-1.101 0-1.978-1.01-1.978-2.242V24.915c.235-3.648 1.927-6.838 4.434-8.816 1.66-1.314 3.71-2.099 5.9-2.099.663 0 1.305.071 1.927.214h.01c4.8 1.03 8.439 5.84 8.439 11.608z"/><path stroke-linecap="round" d="M20.662 17.526v3.017c0 .56.458 1.02 1.019 1.02h2.038c.56 0 1.02-.46 1.02-1.02v-3.078"/></g></svg><svg viewBox="0 0 72 72" id="1F4EB" xmlns="http://www.w3.org/2000/svg"><path fill="#FFF" d="M27.815 13.764c-.684 0-1.358.073-2.01.22h-.01a8.861 8.861 0 0 0-1.99-.22h4.01z"/><path fill="#FFF" stroke="#FFF" stroke-miterlimit="10" stroke-width="1.8" d="M32.498 57.778V35.886h6.736v21.892a3.378 3.378 0 0 1-3.368 3.368 3.358 3.358 0 0 1-2.378-.99 3.358 3.358 0 0 1-.99-2.378z"/><path fill="#61B2E4" stroke="#61B2E4" stroke-linejoin="round" stroke-miterlimit="10" stroke-width="1.8" d="M58.605 25.977v10.145c0 2.032-1.347 3.716-3.073 3.947a2.724 2.724 0 0 1-.421.032l-29.564-.032c1.136 0 2.052-1.042 2.052-2.315V25.977c0-5.957-4.21-12.209-3.526-12.209h23.818c.684 0 1.347.074 1.989.221h.01c4.958 1.063 8.715 6.03 8.715 11.988z"/><path fill="#92D3F5" d="M34.52 25.972V37.75c0 1.274-.916 2.316-2.053 2.316H15.175c-1.137 0-2.042-1.042-2.042-2.316V25.036c.242-3.768 1.99-7.063 4.578-9.104 1.716-1.358 3.831-2.168 6.094-2.168.684 0 1.347.073 1.99.22h.01c4.957 1.064 8.714 6.031 8.714 11.988z"/><path fill="#EA5A47" d="M41.087 31.354h.934c.643 0 1.169-.44 1.169-.979v-9.98h2.103c.643 0 1.168-.441 1.168-.98V11.98c0-.539-.525-.98-1.168-.98h-4.206c-.643 0-1.169.441-1.169.98v18.396c0 .538.526.979 1.169.979z"/><path fill="#FFF" d="M39.23 44.875V57.78c0 1.85-1.51 3.37-3.36 3.37-.93 0-1.77-.38-2.38-.99s-.99-1.46-.99-2.38V44.844"/><g fill="none" stroke="#000" stroke-miterlimit="10" stroke-width="2"><path d="M27.815 13.764c-.684 0-1.358.073-2.01.22h-.01a8.861 8.861 0 0 0-1.99-.22h4.01z"/><path stroke-linecap="round" stroke-linejoin="round" d="M35.87 13.77h-11.8m27.28.66c4.22 1.63 7.25 6.19 7.25 11.55v10.14c0 2.03-1.34 3.72-3.07 3.95-.14.02-.27.03-.42.03l-29.56-.03c.07 0 .14 0 .21-.01"/><path d="M34.52 25.972V37.75c0 1.274-.916 2.316-2.053 2.316H15.175c-1.137 0-2.042-1.042-2.042-2.316V25.036c.242-3.768 1.99-7.063 4.578-9.104 1.716-1.358 3.831-2.168 6.094-2.168.684 0 1.347.073 1.99.22h.01c4.957 1.064 8.714 6.031 8.714 11.988z"/><path stroke-linecap="round" d="M21.553 17.405v3.115c0 .58.473 1.053 1.052 1.053h2.105c.58 0 1.053-.474 1.053-1.053v-3.178"/><path stroke-linejoin="round" d="M41.087 31.354h.934c.643 0 1.169-.44 1.169-.979v-9.98h2.103c.643 0 1.168-.441 1.168-.98V11.98c0-.539-.525-.98-1.168-.98h-4.206c-.643 0-1.169.441-1.169.98v18.396c0 .538.526.979 1.169.979z"/><path stroke-linecap="round" d="M39.23 44.875V57.78c0 1.85-1.51 3.37-3.36 3.37-.93 0-1.77-.38-2.38-.99s-.99-1.46-.99-2.38V44.844"/></g></svg><svg viewBox="0 0 72 72" id="1F4EC" xmlns="http://www.w3.org/2000/svg"><path fill="#61b2e4" d="M58.7 27.6c0-5.4-2.963-10.422-7.3-11.6-3.428-.931-15.4-.6-15.4-.6l-11.804-.098c-.7 0 3.504 6.298 3.504 12.298v11.7a2.338 2.338 0 0 1-2.123 2.396L58.7 41.6z"/><path fill="#3f3f3f" d="M34.6 27.6v11.8a2.163 2.163 0 0 1-2.1 2.3H15.3a2.15 2.15 0 0 1-2-2.3V26.6a12.27 12.27 0 0 1 4.6-9.1 9.502 9.502 0 0 1 6.1-2.2 13.552 13.552 0 0 1 2 .2c4.9 1.1 8.6 6.1 8.6 12.1z"/><path fill="#ea5a47" d="M41.2 33h.9a1.12 1.12 0 0 0 1.2-1V22h2.1a1.12 1.12 0 0 0 1.2-1v-7.4a1.126 1.126 0 0 0-1.2-1h-4.2a1.12 1.12 0 0 0-1.2 1V32a1.126 1.126 0 0 0 1.2 1z"/><rect width="11.257" height="14.298" x="23.027" y="25.462" fill="#d0cfce" rx="1.563"/><path fill="#fff" d="M39.3 59.4V41.653l-6.813.009.013 4.738v13"/><g fill="none" stroke="#000" stroke-width="2"><path stroke-linecap="round" stroke-linejoin="round" d="M40 15.346c-7.5-.125-15.804-.044-15.804-.044m1.381 26.394L58.7 41.6v-14c0-5.4-2.963-10.422-7.3-11.6a30.007 30.007 0 0 0-4.8-.463"/><path stroke-linejoin="round" d="M41.2 33h.9a1.12 1.12 0 0 0 1.2-1V22h2.1a1.12 1.12 0 0 0 1.2-1v-7.4a1.126 1.126 0 0 0-1.2-1h-4.2a1.12 1.12 0 0 0-1.2 1V32a1.126 1.126 0 0 0 1.2 1z"/><path stroke-miterlimit="10" d="M34.6 27.6v11.8a2.163 2.163 0 0 1-2.1 2.3H15.3a2.15 2.15 0 0 1-2-2.3V26.6a12.27 12.27 0 0 1 4.6-9.1 9.502 9.502 0 0 1 6.1-2.2 13.552 13.552 0 0 1 2 .2c4.9 1.1 8.6 6.1 8.6 12.1z"/><path stroke-linecap="round" stroke-linejoin="round" d="M39.3 59.4V41.653l-6.813.009.013 4.738v13m-4.213-24.94-4.969 4.72a2.44 2.44 0 0 1-.266-1.054V25.982"/><path stroke-linecap="round" stroke-linejoin="round" d="M34.253 39.73h-10.18a1.049 1.049 0 0 1-.799-.55l5.368-5.087m5.529-8.661H23.806a.901.901 0 0 0-.71.459c0 .045-.044.045-.044.091l7.009 6.737 1.996 1.878c.089.092.222.184.31.275a2.85 2.85 0 0 0 1.803.612"/></g></svg><svg viewBox="0 0 72 72" id="1F4ED" xmlns="http://www.w3.org/2000/svg"><path fill="#61b2e4" d="M58.7 27.6c0-5.4-2.963-10.422-7.3-11.6-3.428-.931-15.4-.6-15.4-.6l-11.804-.098c-.7 0 3.504 6.298 3.504 12.298v11.7a2.338 2.338 0 0 1-2.123 2.396L58.7 41.6z"/><path fill="#3f3f3f" d="M34.6 27.6v11.8a2.163 2.163 0 0 1-2.1 2.3H15.3a2.15 2.15 0 0 1-2-2.3V26.6a12.27 12.27 0 0 1 4.6-9.1 9.502 9.502 0 0 1 6.1-2.2 13.552 13.552 0 0 1 2 .2c4.9 1.1 8.6 6.1 8.6 12.1z"/><path fill="#ea5a47" d="M40.377 31.53v.9a1.12 1.12 0 0 0 1 1.2h10v2.1a1.12 1.12 0 0 0 1 1.2h7.4a1.126 1.126 0 0 0 1-1.2v-4.2a1.12 1.12 0 0 0-1-1.2h-18.4a1.126 1.126 0 0 0-1 1.2z"/><path fill="#fff" d="M39.3 59.4V41.653l-6.813.009.013 4.738v13"/><g fill="none" stroke="#000" stroke-width="2"><path stroke-linecap="round" stroke-linejoin="round" d="M58.7 30.295V27.6c0-5.4-3.029-10.201-7.3-11.6-3.47-1.136-27.204-.698-27.204-.698m1.381 26.394L58.7 41.6v-4.628"/><path stroke-linejoin="round" d="M40.377 31.53v.9a1.12 1.12 0 0 0 1 1.2h10v2.1a1.12 1.12 0 0 0 1 1.2h7.4a1.126 1.126 0 0 0 1-1.2v-4.2a1.12 1.12 0 0 0-1-1.2h-18.4a1.126 1.126 0 0 0-1 1.2z"/><path stroke-miterlimit="10" d="M34.6 27.6v11.8a2.163 2.163 0 0 1-2.1 2.3H15.3a2.15 2.15 0 0 1-2-2.3V26.6a12.27 12.27 0 0 1 4.6-9.1 9.502 9.502 0 0 1 6.1-2.2 13.552 13.552 0 0 1 2 .2c4.9 1.1 8.6 6.1 8.6 12.1z"/><path stroke-linecap="round" stroke-linejoin="round" d="M39.3 59.4V41.653l-6.813.009.013 4.738v13"/></g></svg><svg viewBox="0 0 72 72" id="1F4EE" xmlns="http://www.w3.org/2000/svg"><g stroke-miterlimit="10"><path fill="#FFF" stroke="#FFF" stroke-linecap="round" stroke-linejoin="round" stroke-width="1.8" d="M29.992 54.879v14h11v-14"/><path fill="#EA5A47" d="M53.774 13.502v39.62a2.704 2.704 0 0 1-2.701 2.702H20.456a2.698 2.698 0 0 1-2.701-2.701V13.502a2.698 2.698 0 0 1 2.701-2.702h30.617a2.704 2.704 0 0 1 2.701 2.701z"/><path fill="#D22F27" stroke="#D22F27" stroke-linejoin="round" stroke-width="2" d="M47.491 11.084h4.646c.673 0 1.224 1.206 1.224 2.701v39.621c-.644 2.878-5.832 2.05-5.832 2.05"/><path fill="#3F3F3F" stroke="#3F3F3F" stroke-linecap="round" stroke-width="2" d="M50.065 22.225v6.08c0 .747-.672 1.35-1.505 1.35H22.77c-.833 0-1.505-.603-1.505-1.35v-6.08h28.8z"/><path fill="#D0CFCE" stroke="#D0CFCE" stroke-linecap="round" stroke-linejoin="round" stroke-width="2" d="M42.345 42.8h-13.41c-.44 0-.84-.1-1.15-.28-.39-.21-.64-.54-.64-.9V18.76c0-.35.24-.67.62-.89.31-.18.72-.29 1.17-.29h13.38l-7.41 8.04-2.09 2.26c-.11.12-.21.24-.29.36-.91 1.23-.91 2.66.01 3.88.08.12.18.24.28.35l2.1 2.27 7.43 8.06zm.181-24.896.02-.032"/><path fill="#D0CFCE" stroke="#D0CFCE" stroke-linecap="round" stroke-linejoin="round" stroke-width="2" d="M42.905 18.47v23.47c0 .29-.18.58-.46.79l-.1.07-7.43-8.06-2.1-2.27c-.1-.11-.2-.23-.28-.35-.92-1.22-.92-2.65-.01-3.88.08-.12.18-.24.29-.36l2.09-2.26 7.41-8.04c.03.02.07.05.11.07.3.22.48.5.48.82z"/><path fill="#EA5A47" d="M50.064 19.14v4.043h-28.8v-4.042c0-.895.673-1.617 1.506-1.617h25.79c.832 0 1.504.722 1.504 1.617z"/><path fill="#D22F27" stroke="#D22F27" stroke-linejoin="round" stroke-width="2" d="M43.315 23.25v-.07m6.75-4.04v4.04h-4.04v-5.66h3.136c.503 0 .904.73.904 1.62z"/><path fill="#FFF" d="M30 60.25V69h11v-8.938"/></g><g fill="none" stroke="#000" stroke-linecap="round" stroke-miterlimit="10" stroke-width="2"><path d="M53.774 13.502v39.62a2.704 2.704 0 0 1-2.701 2.702H20.456a2.698 2.698 0 0 1-2.701-2.701V13.502a2.698 2.698 0 0 1 2.701-2.702h30.617a2.704 2.704 0 0 1 2.701 2.701z"/><path d="M53.774 13.502v39.62a2.704 2.704 0 0 1-2.701 2.702H20.456a2.698 2.698 0 0 1-2.701-2.701V13.502a2.698 2.698 0 0 1 2.701-2.702h30.617a2.704 2.704 0 0 1 2.701 2.701z"/><path d="M22.658 29.653c-.79-.042-1.413-.629-1.413-1.349v-6.079h28.8v6.08c0 .747-.673 1.35-1.505 1.35"/><path d="M50.064 19.14v4.043h-28.8v-4.042c0-.895.673-1.617 1.506-1.617h25.79c.832 0 1.504.722 1.504 1.617z"/><path d="M50.064 19.14v4.043h-28.8v-4.042c0-.895.673-1.617 1.506-1.617h25.79c.832 0 1.504.722 1.504 1.617z"/><path stroke-linejoin="round" d="M30 60.25V69h11v-8.938M34.93 26.73l-2.081 2.226c-.11.12-.211.24-.292.358-.915 1.224-.915 2.647.01 3.86.08.12.181.24.282.349l2.113 2.258 7.475 8.019H28.946c-.443 0-.845-.1-1.157-.279-.393-.209-.644-.537-.644-.895L27 26.594"/><path stroke-linejoin="round" d="M43 26.837v16.107c0 .289-.181.577-.463.786l-.1.07-7.475-8.019-2.113-2.258c-.1-.11-.201-.23-.282-.349-.925-1.213-.925-2.636-.01-3.86.08-.12.181-.238.292-.358l2.103-2.248.041-.045"/></g></svg><svg viewBox="0 0 72 72" id="1F5F3" xmlns="http://www.w3.org/2000/svg"><path fill="#d0cfce" stroke="#d0cfce" stroke-linejoin="round" stroke-width="2" d="M10.14 63.05V31.1h51.73v31.95z"/><path fill="#9b9b9a" stroke="#9b9b9a" stroke-linecap="round" stroke-width="2" d="M61.35 37 35.01 63.05h10.23L61.35 37"/><path fill="#d0cfce" d="M22.17 36.99h27.87v3.752H22.17z"/><path fill="#fff" d="m24.1 31.34 16.17 5.836 9.927-22.72-16.38-6.695z"/><path fill="#9b9b9a" stroke="#9b9b9a" stroke-linejoin="round" stroke-width="2" d="M45.24 63.05h16.62L61.345 37z"/><path fill="none" stroke="#9b9b9a" stroke-linecap="round" stroke-linejoin="round" stroke-width="2" d="M21.97 38.89h28.18"/><path fill="none" stroke="#000" stroke-linecap="round" stroke-linejoin="round" stroke-width="2" d="M43.706 31.096h18.15v29.942m-51.722 0V31.096h13.534m13.595 5.745-13.486-5.529 9.988-24.364 16.72 6.851-9.376 22.862m-19.199.259H50.1"/></svg><svg viewBox="0 0 72 72" id="2709" xmlns="http://www.w3.org/2000/svg"><path fill="#D0CFCE" d="m28 37-4 4-1.33-.44-11.215 10.33c-.35-.62-.57-1.44-.57-2.32V22.06L28 37z"/><path fill="#9B9B9A" d="M60.825 22.01v26.56c0 .86-.2 1.65-.55 2.27L48.958 40.478l-1.029.058-4.064-3.806 16.96-14.72z"/><path fill="none" d="m11.521 21.649-.063-.039"/><path fill="#D0CFCE" d="m26.805 36.75 4.47 4.13c.24.22.48.41.72.57 2.43 1.8 5.26 1.8 7.68-.01.23-.16.47-.36.69-.56l4.5-4.15"/><path fill="#D0CFCE" stroke="#D0CFCE" stroke-linecap="round" stroke-linejoin="round" stroke-miterlimit="10" stroke-width="1.8" d="m26.805 36.75 4.47 4.13c.24.22.48.41.72.57 2.43 1.8 5.26 1.8 7.68-.01.23-.16.47-.36.69-.56l4.5-4.15 15.41 14.11c-.42.77-1.07 1.27-1.79 1.27h-45.26c-.7 0-1.34-.47-1.77-1.22l15.35-14.14"/><path fill="#D0CFCE" d="M47.93 39.536 60.274 50.84c-.42.77-1.07 1.27-1.79 1.27h-45.26c-.7 0-1.34-.47-1.77-1.22l12.078-11.126"/><path fill="#D0CFCE" d="m60.825 22.01-15.96 14.72-4.5 4.15c-.22.2-.46.4-.69.56-2.42 1.81-5.25 1.81-7.68.01-.24-.16-.48-.35-.72-.57l-4.47-4.13-15.92-14.69c.04-.06.09-.13.14-.2.42-.6.99-.96 1.61-.96h46.48c.59 0 1.16.35 1.57.91.05.06.1.13.14.2z"/><g fill="none" stroke="#000" stroke-linecap="round" stroke-linejoin="round" stroke-miterlimit="10" stroke-width="2"><path d="M22.67 40.56 11.455 50.89c-.35-.62-.57-1.44-.57-2.32V22.06m49.94-.05v26.56c0 .86-.2 1.65-.55 2.27L48.958 40.478M11.521 21.649l-.063-.039m15.347 15.14 4.47 4.13c.24.22.48.41.72.57 2.43 1.8 5.26 1.8 7.68-.01.23-.16.47-.36.69-.56l4.5-4.15"/><path d="M47.93 39.536 60.274 50.84c-.42.77-1.07 1.27-1.79 1.27h-45.26c-.7 0-1.34-.47-1.77-1.22l12.078-11.126"/><path d="m60.825 22.01-15.96 14.72-4.5 4.15c-.22.2-.46.4-.69.56-2.42 1.81-5.25 1.81-7.68.01-.24-.16-.48-.35-.72-.57l-4.47-4.13-15.92-14.69c.04-.06.09-.13.14-.2.42-.6.99-.96 1.61-.96h46.48c.59 0 1.16.35 1.57.91.05.06.1.13.14.2z"/></g></svg></svg>