<?xml version="1.0" encoding="utf-8"?><svg viewBox="0 0 72 72" xmlns="http://www.w3.org/2000/svg" xmlns:xlink="http://www.w3.org/1999/xlink"><style>:root>svg{display:none}:root>svg:target{display:block}</style><svg viewBox="0 0 72 72" id="1F3D7" xmlns="http://www.w3.org/2000/svg"><path fill="#FCEA2B" d="M58 25.833L12 27v-7l46 1.167z"/><path fill="#FCEA2B" d="M28 59H18l2-46h6z"/><path fill="#D0CFCE" d="M40.5 37h19v4h-19z"/><g fill="none" stroke="#000" stroke-linecap="round" stroke-linejoin="round" stroke-miterlimit="10" stroke-width="2"><path d="M58 25.833L12 27v-7l46 1.167z"/><path d="M28 59H18l2-46h6zM19 50h8M19 41h8M19.5 34h7M34 26v-5M42 26v-5M50 37V21M40.5 37h19v4h-19z"/><path d="M58 25.833L12 27v-7l46 1.167z"/></g></svg><svg viewBox="0 0 72 72" id="1F3D8" xmlns="http://www.w3.org/2000/svg"><path fill="#FFF" d="M14.5 41.5h23v16h-23z"/><path fill="#FFF" d="M33.61 26.9h23v16h-23z"/><path fill="#92D3F5" stroke-linecap="round" stroke-linejoin="round" stroke-miterlimit="10" stroke-width="2" d="M48.5 32h5v4h-5z"/><path fill="#EA5A47" stroke-linecap="round" stroke-linejoin="round" stroke-miterlimit="10" stroke-width="2" d="M57.5 27h-23v-1.463L46 15l11.5 10.537zM21 34.581l-4 3.665V32h4zM41 19.581l-4 3.665V17h4z"/><path fill="#A57939" d="M38 33h8v9.992h-8z"/><path fill="#A57939" stroke-linecap="round" stroke-linejoin="round" stroke-miterlimit="10" stroke-width="2" d="M19 47h6v10h-6z"/><path fill="#92D3F5" stroke-linecap="round" stroke-linejoin="round" stroke-miterlimit="10" stroke-width="2" d="M28.5 47h5v4h-5z"/><path fill="#EA5A47" stroke-linecap="round" stroke-linejoin="round" stroke-miterlimit="10" stroke-width="2" d="M37.5 42h-23v-1.463L26 30l11.5 10.537z"/><g fill="none" stroke="#000" stroke-linecap="round" stroke-linejoin="round" stroke-miterlimit="10" stroke-width="2"><path d="M48.5 32h5v4h-5zM57.5 27h-23v-1.463L46 15l11.5 10.537zM21 34.581l-4 3.665V32h4zM41 19.581l-4 3.665V17h4z"/><path d="M34.5 33v-7.463L46 15l11.5 10.537V42h-16"/><path d="M45 42V32h-6v4.088M19 47h6v10h-6zM28.5 47h5v4h-5zM37.5 42h-23v-1.463L26 30l11.5 10.537z"/><path d="M14.5 42h23v15h-23z"/></g></svg><svg viewBox="0 0 72 72" id="1F3DA" xmlns="http://www.w3.org/2000/svg"><path fill="#FFF" d="M18.5 31.5h35v25h-35z"/><path fill="#EA5A47" d="M28.5 22.059l-5 4.706V17h5z"/><path fill="#A57939" d="M25.5 40h9v16h-9z"/><path fill="#6A462F" d="M37.45 40.38L24.26 53.57l-2.92-2.91 4.16-4.16L32 40l2.53-2.53z"/><path fill="#9B9B9A" d="M48 47h-8v-7h8z"/><path fill="#92D3F5" d="M42.792 47L46 43l-3-1-1-2h6v7z"/><path fill="#EA5A47" d="M36 15L19 31v1h34v-1l-6-5-7 1-8 1 2-4-2-2 6.6-4.4z"/><g fill="none" stroke="#000" stroke-linecap="round" stroke-linejoin="round" stroke-miterlimit="10" stroke-width="2"><path d="M28.5 22.059l-5 4.706V17h5zM32 40l-6.5 6.5V40zM34.5 43.33V56h-9v-3.67zM48 47h-8v-7h8z"/><path stroke-width="1.99998" d="M21.342 50.656l13.192-13.191 2.914 2.914-13.191 13.192z"/><path d="M42.792 47L46 43l-3-1-1-2h6v7zM42 22v4M45 25v1M39 19v7M40 19l-4-4-17 16v1h34v-1l-6-5-7 1-8 1 2-4-2-2 6.6-4.4M36 20v7"/><path d="M19 32h34v24H19z"/></g></svg><svg viewBox="0 0 72 72" id="1F3DB" xmlns="http://www.w3.org/2000/svg"><path fill="#9b9b9a" d="M18.54 26h34.92v25.95H18.54z"/><path fill="#fff" stroke-miterlimit="10" d="M12 56h48v4H12zM14.13 22h43.74v4H14.13zM15.72 52h40.55v4H15.72zM18.5 26h4v26h-4z"/><path fill="#fff" stroke-miterlimit="10" d="M27.35 26.15h4v26h-4zM49.52 25.95h3.941v26H49.52z"/><path fill="#fff" stroke-linecap="round" stroke-linejoin="round" stroke-miterlimit="10" stroke-width="2" d="M36 12l-17 9.75h34z"/><path fill="#fff" stroke-miterlimit="10" d="M40.35 26.15h4v26h-4z"/><g fill="none" stroke="#000" stroke-linecap="round" stroke-linejoin="round" stroke-miterlimit="10"><path stroke-width="2" d="M11.99 55.89H60v3.993H11.99z"/><path stroke-width="2.001" d="M14.18 21.76h43.65v3.999H14.18z"/><path stroke-width="2" d="M15.27 51.76h41.47v3.993H15.27z"/><path stroke-width="1.702" d="M18.35 25.61h4.298v26.3H18.35zM27.35 25.61h4.298v26.3H27.35zM49.35 25.61h4.298v26.3H49.35z"/><path stroke-width="1.916" d="M36 12l-17 9.75h34z" transform="matrix(1.091 0 0 .9982 -3.283 .098)"/><path stroke-width="1.702" d="M40.35 25.61h4.298v26.3H40.35z"/></g></svg><svg viewBox="0 0 72 72" id="1F3DF" xmlns="http://www.w3.org/2000/svg"><path fill="#D0CFCE" d="M66 34l-4 15H10L6 34zM66 34c0-10.493-19.507-8-30-8S6 23.507 6 34h60z"/><path fill="#D0CFCE" d="M14 31c0-10.493 15.704-6 22-6s22-4.493 22 6H14z"/><path fill="#D0CFCE" d="M25 33.573c0-18.382 8.482-9.172 11-9.172 2.518 0 12-9.21 12 9.172H25z"/><path fill="#92D3F5" d="M41 49c0-10.493-2.901-12-5-12s-5 1.507-5 12h10z"/><g fill="none" stroke="#000" stroke-linecap="round" stroke-linejoin="round" stroke-miterlimit="10" stroke-width="2"><path d="M66 34l-4 15H41c0-10.49-2.9-12-5-12s-5 1.51-5 12H10L6 34c0-4.88 4.23-6.95 9.81-7.78 2.31-2.16 6.51-2.36 10.68-2.08 2.55-4.75 7.65.26 9.51.26 1.85 0 7.47-4.98 10.32-.31 3.9-.19 7.71.11 9.87 2.13 5.58.83 9.81 2.9 9.81 7.78zM41 49H31M58 31c0-2.18-.68-3.71-1.81-4.78M15.81 26.22C14.68 27.29 14 28.82 14 31"/><path d="M48 33.57c0-3.54-.35-6.06-.94-7.82l-.74-1.66M26.49 24.14l-.64 1.61c-.53 1.76-.85 4.28-.85 7.82M13 49v-6c0-.55.45-1 1-1M19 49v-6c0-.55.45-1 1-1M25 49v-6c0-.55.45-1 1-1M57 49v-6c0-.55.45-1 1-1M51 49v-6c0-.55.45-1 1-1M45 49v-6c0-.55.45-1 1-1M41 49H31c0-10.49 2.9-12 5-12s5 1.51 5 12z"/></g></svg><svg viewBox="0 0 72 72" id="1F3E0" xmlns="http://www.w3.org/2000/svg"><path fill="#FFF" d="M19 32h34v24H19z"/><path fill="#A57939" stroke-linecap="round" stroke-linejoin="round" stroke-miterlimit="10" stroke-width="2" d="M25 40h9v16h-9z"/><path fill="#92D3F5" stroke-linecap="round" stroke-linejoin="round" stroke-miterlimit="10" stroke-width="2" d="M40 40h8v7h-8z"/><path fill="#EA5A47" stroke-linecap="round" stroke-linejoin="round" stroke-miterlimit="10" stroke-width="2" d="M53 32H19v-1l16-16 18 16z"/><path fill="#EA5A47" stroke-linecap="round" stroke-linejoin="round" stroke-miterlimit="10" stroke-width="2" d="M29 21l-5 5v-9h5z"/><g fill="none" stroke="#000" stroke-linecap="round" stroke-linejoin="round" stroke-miterlimit="10" stroke-width="2"><path d="M25 40h9v16h-9zM40 40h8v7h-8zM53 32H19v-1l16-16 18 16z"/><path d="M19 32h34v24H19zM29 21l-5 5v-9h5z"/></g></svg><svg viewBox="0 0 72 72" id="1F3E1" xmlns="http://www.w3.org/2000/svg"><path fill="#FFF" d="M37.075 36.053h26.884v18.114H37.075z"/><path fill="#EA5A47" stroke="#EA5A47" stroke-linecap="round" stroke-linejoin="round" stroke-miterlimit="10" stroke-width="2" d="M50.235 23.2L38.1 36h25.4z"/><path fill="#EA5A47" d="M47.3 26l-6.4 6.06v-8.574c0-.931.755-1.416 1.686-1.416h3.028c.931 0 1.686.485 1.686 1.416V26z"/><path fill="#A57939" d="M43 42h6v12h-6z"/><path fill="#92D3F5" d="M54 42h6v5h-6z"/><path fill="#B1CC33" d="M41.006 28.34c0-3.313-3.445-6.003-7.694-6.003-.355.003-.71.025-1.062.066-1.8-3.455-5.707-5.855-10.25-5.855-6.248 0-11.312 4.528-11.312 10.114.001.37.025.738.07 1.104C7.966 28.666 6 30.81 6 33.314c0 3.312 3.445 6.002 7.694 6.002a9.136 9.136 0 004.613-1.207c1.818 1.477 4.727 2.439 8.016 2.439 5.51 0 9.977-2.688 9.977-6.003 0-.219-.021-.438-.06-.653 2.796-.902 4.766-3.047 4.766-5.553z"/><g fill="none" stroke="#000" stroke-linecap="round" stroke-width="2"><path stroke-linejoin="round" stroke-miterlimit="10" d="M46 27l4.235-4L64 35.098V54H38V41.548"/><path stroke-linejoin="round" stroke-miterlimit="10" d="M43 42h6v12h-6zM54 42h6v5h-6zM43.5 23h3v3"/><path stroke-linejoin="round" d="M22.5 54v-7.173L17.5 42M23.041 46.727l2.844-2.961"/><path stroke-miterlimit="10" d="M41.006 28.34c0-3.313-3.445-6.003-7.694-6.003-.355.003-.71.025-1.062.066-1.8-3.455-5.707-5.855-10.25-5.855-6.248 0-11.312 4.528-11.312 10.114.001.37.025.738.07 1.104C7.966 28.666 6 30.81 6 33.314c0 3.312 3.445 6.002 7.694 6.002a9.136 9.136 0 004.613-1.207c1.818 1.477 4.727 2.439 8.016 2.439 5.51 0 9.977-2.688 9.977-6.003 0-.219-.021-.438-.06-.653 2.796-.902 4.766-3.047 4.766-5.553z"/><path stroke-linejoin="round" stroke-miterlimit="10" d="M63.5 36h-21"/></g></svg><svg viewBox="0 0 72 72" id="1F3E2" xmlns="http://www.w3.org/2000/svg"><g stroke-linecap="round" stroke-linejoin="round" stroke-miterlimit="10" stroke-width="2"><path fill="#D0CFCE" d="M8.5 19h55v35h-55z"/><path fill="#92D3F5" d="M29.5 44h13v10h-13z"/><path fill="none" stroke="#92D3F5" d="M22 44h2v5h-2zM14 44h2v5h-2zM22 34h2v5h-2zM14 34h2v5h-2zM22 24h2v5h-2zM14 24h2v5h-2zM39 34h2v5h-2zM31 34h2v5h-2zM39 24h2v5h-2zM31 24h2v5h-2zM56 44h2v5h-2zM48 44h2v5h-2zM56 34h2v5h-2zM48 34h2v5h-2zM56 24h2v5h-2zM48 24h2v5h-2z"/></g><g fill="none" stroke="#000" stroke-linecap="round" stroke-linejoin="round" stroke-miterlimit="10" stroke-width="2"><path d="M8.5 19h55v35h-55z"/><path d="M29.5 44h13v10h-13zM36 54V44M16 29h-2v-5M24 49h-2v-5M16 49h-2v-5M24 39h-2v-5M16 39h-2v-5M24 29h-2v-5M41 39h-2v-5M33 39h-2v-5M41 29h-2v-5M33 29h-2v-5M58 49h-2v-5M50 49h-2v-5M58 39h-2v-5M50 39h-2v-5M58 29h-2v-5M50 29h-2v-5"/></g></svg><svg viewBox="0 0 72 72" id="1F3E3" xmlns="http://www.w3.org/2000/svg"><path fill="#D0CFCE" d="M12.5 12h27v48h-27zM39.5 25h19v35h-19z"/><path fill="#92D3F5" stroke="#92D3F5" stroke-linecap="round" stroke-linejoin="round" stroke-miterlimit="10" stroke-width="2" d="M17 40h2v5h-2zM25 40h2v5h-2zM33 40h2v5h-2zM44 30h2v5h-2zM52 30h2v5h-2zM44 40h2v5h-2zM52 40h2v5h-2zM44 50h2v5h-2zM52 50h2v5h-2z"/><path fill="#92D3F5" d="M19.5 50h13v10h-13z"/><g stroke="#000" stroke-linecap="round" stroke-linejoin="round" stroke-miterlimit="10" stroke-width="2"><path fill="none" d="M12.5 12h27v48h-27zM39.5 25h19v35h-19z"/><path fill="none" d="M19.5 50h13v10h-13zM26 60V50M54 35h-2v-5M54 45h-2v-5M54 55h-2v-5M46 35h-2v-5M27 45h-2v-5M35 45h-2v-5M19 45h-2v-5M46 45h-2v-5M46 55h-2v-5"/><path d="M18 18h16v2H18zM18 24h16v2H18zM25 26h2v7h-2z"/></g></svg><svg viewBox="0 0 72 72" id="1F3E4" xmlns="http://www.w3.org/2000/svg"><path fill="#d0cfce" d="M13 14h46v46H13z"/><circle cx="37" cy="37" r="6" fill="#fcea2b"/><path fill="#92d3f5" d="M29.5 50h13v10h-13z"/><path fill="none" stroke="#92d3f5" stroke-linecap="round" stroke-linejoin="round" stroke-width="2" d="M51 30h2v5h-2zM51 20h2v5h-2zM35 20h2v5h-2zM43 20h2v5h-2zM27 20h2v5h-2zM51 40h2v5h-2zM51 50h2v5h-2zM19 30h2v5h-2zM19 20h2v5h-2zM19 40h2v5h-2zM19 50h2v5h-2z"/><circle cx="37" cy="37" r="3" fill="#d0cfce"/><path fill="#fcea2b" d="M31 34.5l-4.3 4.3L32 41l1-1-2-5.5zM47 37l-4 4-2-2 3.9-4 2.1 2z"/><path fill="#fcea2b" d="M43 41a8.89 8.89 0 01-6 2 8.89 8.89 0 01-6-2l2-2a10.718 10.718 0 004 1 10.718 10.718 0 004-1z"/><g fill="none" stroke="#000" stroke-linecap="round" stroke-linejoin="round" stroke-width="2"><path d="M13 14h46v46H13z"/><path d="M43 36.9L41 39a11.184 11.184 0 01-3.8 1 3 3 0 10-.4 0 9.289 9.289 0 01-3.8-1l-.3.3-1.5-4A6.027 6.027 0 0143 36.9zM29.5 50h13v10h-13zM36 60V50"/><path d="M32.7 39.3l-1.4 1.4-4.6-1.9 4.3-4.3.2.8 1.5 4zM47 37l-4 4-2-2 2-2.1 1.9-1.9 2.1 2z"/><path d="M43 41a8.813 8.813 0 01-5.5 2h-.9a8.88 8.88 0 01-5.6-2l2-2a11.184 11.184 0 003.8 1h.4a9.289 9.289 0 003.8-1zM21 25h-2v-5M53 35h-2v-5M45 25h-2v-5M53 25h-2v-5M37 25h-2v-5M29 25h-2v-5M21 35h-2v-5M21 45h-2v-5M53 45h-2v-5M53 55h-2v-5M21 55h-2v-5"/></g></svg><svg viewBox="0 0 72 72" id="1F3E5" xmlns="http://www.w3.org/2000/svg"><g stroke-linecap="round" stroke-linejoin="round" stroke-miterlimit="10" stroke-width="2"><path fill="#FFF" d="M22.5 12h27v48h-27zM13.5 25h9v35h-9zM49.5 25h9v35h-9z"/><path fill="#92D3F5" d="M29.5 44h13v16h-13z"/><path fill="#EA5A47" d="M43.5 23h-5v-5h-5v5h-5v5h5v5h5v-5h5z"/><path fill="none" stroke="#92D3F5" d="M17 30h2v5h-2zM17 40h2v5h-2zM17 50h2v5h-2zM53 30h2v5h-2zM53 40h2v5h-2zM53 50h2v5h-2z"/></g><g fill="none" stroke="#000" stroke-linecap="round" stroke-linejoin="round" stroke-miterlimit="10" stroke-width="2"><path d="M22.5 12h27v48h-27zM13.5 25h9v35h-9zM49.5 25h9v35h-9z"/><path d="M29.5 44h13v16h-13zM36 60V44M43.5 23h-5v-5h-5v5h-5v5h5v5h5v-5h5zM19 35h-2v-5M19 45h-2v-5M19 55h-2v-5M55 35h-2v-5M55 45h-2v-5M55 55h-2v-5"/></g></svg><svg viewBox="0 0 72 72" id="1F3E6" xmlns="http://www.w3.org/2000/svg"><path fill="#9B9B9A" d="M16 26h40v34H16z"/><path fill="#D0CFCE" d="M14 22h44v4H14z"/><path fill="#FFF" d="M19.5 26h2.052v34H19.5M24.933 26h2.038v34h-2.038M47.067 60h-2.05V26h2.05M52.5 60h-2.018V26H52.5"/><path fill="#D0CFCE" d="M36 12L19 22h34z"/><path fill="#92D3F5" d="M31.5 50h9v10h-9z"/><circle cx="36" cy="35" r="5" fill="#FCEA2B"/><path fill="none" stroke="#F4AA41" stroke-linecap="round" stroke-linejoin="round" stroke-miterlimit="10" d="M36.948 34.262c-.098-.38-.52-.666-1.027-.666h0c-.579 0-1.048.373-1.048.834 0 .461.47.835 1.048.835l-.021.003c.579 0 1.048.374 1.048.835 0 .46-.469.835-1.048.835h0c-.507 0-.93-.287-1.027-.667M35.911 33.596V32.8M35.911 37.733v-.795"/><g fill="none" stroke="#000" stroke-miterlimit="10"><path stroke-linecap="round" stroke-linejoin="round" stroke-width="2" d="M16 26h40v34H16zM14 22h44v4H14z"/><path stroke-linecap="round" stroke-linejoin="round" stroke-width="2" d="M19.5 26h3v34h-3M24.933 26h3v34h-3M47.067 60h-3V26h3M52.5 60h-3V26h3M36 12l-17 9.75h34zM31.5 50h9v10h-9zM36 60V50"/><circle cx="36" cy="35" r="5" stroke-width="2"/><path stroke-linecap="round" stroke-linejoin="round" d="M36.948 34.262c-.098-.38-.52-.666-1.027-.666h0c-.579 0-1.048.373-1.048.834 0 .461.47.835 1.048.835l-.021.003c.579 0 1.048.374 1.048.835 0 .46-.469.835-1.048.835h0c-.507 0-.93-.287-1.027-.667M35.911 33.596V32.8M35.911 37.733v-.795"/></g></svg><svg viewBox="0 0 72 72" id="1F3E8" xmlns="http://www.w3.org/2000/svg"><path fill="#D0CFCE" d="M17 17h38v38H17zM55 20h11.5v35H55z"/><path fill="none" stroke="#92D3F5" stroke-linecap="round" stroke-linejoin="round" stroke-miterlimit="10" stroke-width="2" d="M60 25h2v5h-2zM60 35h2v5h-2zM60 45h2v5h-2z"/><path fill="#D0CFCE" d="M5 20h12.5v35H5z"/><path fill="none" stroke="#92D3F5" stroke-linecap="round" stroke-linejoin="round" stroke-miterlimit="10" stroke-width="2" d="M10 25h2v5h-2zM10 35h2v5h-2zM10 45h2v5h-2zM31 22h2v5h-2zM39 22h2v5h-2zM47 22h2v5h-2zM23 22h2v5h-2z"/><path fill="#9B9B9A" d="M23 41h26v14H23z"/><path fill="#FCEA2B" d="M21.5 32h29v9h-29z"/><path fill="#92D3F5" d="M31.5 45h9v10h-9z"/><g fill="none" stroke="#000" stroke-linecap="round" stroke-linejoin="round" stroke-miterlimit="10"><path stroke-width="2" d="M17 17h38v38H17zM55 20h11.5v35H55zM5 20h11.5v35H5z"/><path stroke-width="2" d="M23 41h26v14H23zM21.5 32h29v9h-29zM27 55V41M45 55V41"/><path stroke-width="2" d="M31.5 45h9v10h-9zM36 55V45M49 27h-2v-5M41 27h-2v-5M33 27h-2v-5M25 27h-2v-5M12 30h-2v-5M12 40h-2v-5M62 40h-2v-5M62 30h-2v-5M62 50h-2v-5M12 50h-2v-5"/><path d="M42.045 34.499h-2.26v3.955h2.26M39.785 36.476h1.695M25.659 34.499v3.955M27.919 34.499v3.955M27.919 36.469h-2.26M44.305 34.499v3.955H46M31.688 38.454h0c-.78 0-1.412-.632-1.412-1.413v-1.13c0-.78.632-1.412 1.412-1.412h0c.78 0 1.413.632 1.413 1.412v1.13c0 .78-.633 1.413-1.413 1.413zM35.361 34.516h2.26M36.491 34.516v3.955"/></g></svg><svg viewBox="0 0 72 72" id="1F3E9" xmlns="http://www.w3.org/2000/svg"><g stroke-linecap="round" stroke-linejoin="round" stroke-width="2"><path fill="#FFA7C0" stroke-miterlimit="10" d="M22.5 10h27v52h-27z"/><path fill="#92D3F5" stroke-miterlimit="10" d="M27 52h10v10H27z"/><path fill="none" stroke="#92D3F5" stroke-miterlimit="10" d="M35 42h2v5h-2zM43 42h2v5h-2zM43 53h2v5h-2zM27 42h2v5h-2zM35 31h2v5h-2zM43 31h2v5h-2zM27 31h2v5h-2z"/><path fill="#EA5A47" d="M36 25.825l-4.87-6.244-.156-.232A2.863 2.863 0 1136 16.621a2.863 2.863 0 114.888 2.936L36 25.825z"/></g><g fill="none" stroke="#000" stroke-linecap="round" stroke-linejoin="round" stroke-width="2"><path stroke-miterlimit="10" d="M22.5 10h27v52h-27z"/><path stroke-miterlimit="10" d="M27 52h10v10H27zM32 62V52"/><path d="M36 25.825l-4.87-6.244-.156-.232A2.863 2.863 0 1136 16.621a2.863 2.863 0 114.888 2.936L36 25.825z"/><path stroke-miterlimit="10" d="M37 36h-2v-5M29 36h-2v-5M45 36h-2v-5M37 47h-2v-5M29 47h-2v-5M45 47h-2v-5M45 58h-2v-5"/></g></svg><svg viewBox="0 0 72 72" id="1F3EA" xmlns="http://www.w3.org/2000/svg"><path fill="#E27022" d="M9 38h53v17H9z"/><path fill="#92D3F5" d="M14 45h10v10H14zM28 45h10v10H28zM38 45h10v10H38zM48 45h10v10H48z"/><ellipse cx="19" cy="37" fill="#FFF" rx="7" ry="5"/><g fill="none" stroke="#000" stroke-miterlimit="10"><path stroke-linecap="round" stroke-linejoin="round" stroke-width="2" d="M26 38h36v17H9V38h3"/><path stroke-linecap="round" stroke-linejoin="round" stroke-width="2" d="M14 45h10v10H14zM19 55V45M28 45h10v10H28zM38 45h10v10H38zM48 45h10v10H48z"/><ellipse cx="19" cy="37" stroke-width="2" rx="7" ry="5"/><path stroke-linecap="round" stroke-linejoin="round" stroke-width=".857" d="M16.577 35.99a.922.922 0 01.903-.737h0c.254 0 .485.104.651.27.26.26.236.69-.008.965l-1.565 1.765h1.843M20.778 35.253l-1.115 2.52h1.755M21.129 36.845v1.408"/></g></svg><svg viewBox="0 0 72 72" id="1F3EB" xmlns="http://www.w3.org/2000/svg"><g stroke-linecap="round" stroke-linejoin="round" stroke-width="2"><path fill="#D0CFCE" stroke-miterlimit="10" d="M8.5 18h55v35h-55z"/><path fill="#A57939" stroke-miterlimit="10" d="M27.5 40h17v13h-17z"/><circle cx="36" cy="28.5" r="6.5" fill="#FFF"/><path fill="none" stroke="#92D3F5" stroke-miterlimit="10" d="M20 43h2v5h-2zM13 43h2v5h-2zM20 33h2v5h-2zM13 33h2v5h-2zM20 23h2v5h-2zM13 23h2v5h-2zM57 43h2v5h-2zM50 43h2v5h-2zM57 33h2v5h-2zM50 33h2v5h-2zM57 23h2v5h-2zM50 23h2v5h-2z"/></g><g fill="none" stroke="#000" stroke-linecap="round" stroke-linejoin="round" stroke-width="2"><path stroke-miterlimit="10" d="M8.5 18h55v35h-55z"/><path stroke-miterlimit="10" d="M27.5 40h17v13h-17zM36 53V40"/><circle cx="36" cy="28.5" r="6.5"/><path d="M36 29v-4M36 29l2-1"/><path stroke-miterlimit="10" d="M22 48h-2v-5M15 48h-2v-5M22 38h-2v-5M15 38h-2v-5M22 28h-2v-5M15 28h-2v-5M59 48h-2v-5M52 48h-2v-5M59 38h-2v-5M52 38h-2v-5M59 28h-2v-5M52 28h-2v-5"/></g></svg><svg viewBox="0 0 72 72" id="1F3EC" xmlns="http://www.w3.org/2000/svg"><g stroke-linecap="round" stroke-linejoin="round" stroke-miterlimit="10" stroke-width="2"><path fill="#D0CFCE" d="M16 12h40v48H16z"/><path fill="#92D3F5" d="M20 50h8v10h-8zM44 50h8v10h-8zM32 50h8v10h-8zM16 36h10v10H16zM26 36h10v10H26zM36 36h10v10H36zM46 36h10v10H46zM16 26h10v10H16zM26 26h10v10H26zM36 26h10v10H36zM46 26h10v10H46zM16 16h10v10H16zM26 16h10v10H26zM36 16h10v10H36zM46 16h10v10H46z"/></g><g fill="none" stroke="#000" stroke-linecap="round" stroke-linejoin="round" stroke-miterlimit="10" stroke-width="2"><path d="M16 12h40v48H16z"/><path d="M20 50h8v10h-8zM44 50h8v10h-8zM32 50h8v10h-8zM16 36h10v10H16zM26 36h10v10H26zM36 36h10v10H36zM46 36h10v10H46zM16 26h10v10H16zM26 26h10v10H26zM36 26h10v10H36zM46 26h10v10H46zM16 16h10v10H16zM26 16h10v10H26zM36 16h10v10H36zM46 16h10v10H46z"/></g></svg><svg viewBox="0 0 72 72" id="1F3ED" xmlns="http://www.w3.org/2000/svg"><g stroke-linecap="round" stroke-linejoin="round" stroke-miterlimit="10" stroke-width="2"><path fill="#EA5A47" d="M9.5 38h53v17h-53z"/><path fill="#D0CFCE" d="M14.5 43h13v12h-13z"/><path fill="#92D3F5" d="M32.5 43h5v5h-5zM37.5 43h5v5h-5zM42.5 43h5v5h-5zM47.5 43h5v5h-5zM52.5 43h5v5h-5z"/><path fill="#3F3F3F" d="M56 38h-6l1-16h4z"/><path fill="#D0CFCE" d="M14.497 31l.005 7h9.995zM25 31l.005 7H35zM35 31l.005 7H45z"/></g><g fill="none" stroke="#000" stroke-linecap="round" stroke-miterlimit="10" stroke-width="2"><path stroke-linejoin="round" d="M9.5 38h53v17h-53z"/><path stroke-linejoin="round" d="M14.5 43h13v12h-13zM14.5 47h13M14.5 51h13M32.5 43h5v5h-5zM37.5 43h5v5h-5zM42.5 43h5v5h-5zM47.5 43h5v5h-5zM52.5 43h5v5h-5zM56 38h-6l1-16h4zM14.497 31l.005 7h9.995zM25 31l.005 7H35zM35 31l.005 7H45z"/><path d="M54 19c.043-1.956-.325-4.002-2.079-5.566-1.487-1.327-3.042-1.05-5.619-2.103C44.783 10.709 45 7 42.085 5.48M51 19c-.645-1.847-.81-3.15-3-4-1.858-.721-6 0-7-2"/></g></svg><svg viewBox="0 0 72 72" id="1F3EF" xmlns="http://www.w3.org/2000/svg"><path fill="#FFF" d="M17 50h38v10H17zM22 33h28v10H22zM27 16h18v10H27z"/><path fill="#3F3F3F" d="M54 33H18l4-3 2-4h24l2 4zM59.5 50h-47l4-3 2-4h35l2 4zM49 16H23l4-3 2-4h14l2 4z"/><path fill="#A57939" d="M41.5 60h-11v-7h11z"/><path fill="none" stroke="#92D3F5" stroke-linecap="round" stroke-linejoin="round" stroke-miterlimit="10" stroke-width="2" d="M23 53h2v4h-2zM31 19h2v4h-2zM39 19h2v4h-2zM47 53h2v4h-2z"/><path fill="#D0CFCE" d="M36 31L23 45h26z"/><path fill="none" stroke="#92D3F5" stroke-linecap="round" stroke-linejoin="round" stroke-miterlimit="10" stroke-width="2" d="M32 40h2v2h-2zM38 40h2v2h-2z"/><g fill="none" stroke="#000" stroke-linecap="round" stroke-linejoin="round" stroke-miterlimit="10" stroke-width="2"><path d="M17 50h38v10H17zM34.14 33l-9.28 10H22V33zM50 33v10h-2.86l-9.28-10zM27 16h18v10H27zM54 33H37.86L36 31l-1.86 2H18l4-3 2-4h24l2 4zM59.5 50h-47l4-3 2-4h6.36L23 45h26l-1.86-2h6.36l2 4zM49 16H23l4-3 2-4h14l2 4z"/><path d="M41.5 60h-11v-7h11z"/><path d="M34.063 60v-7h4v7M49 45H23l1.86-2 9.28-10L36 31l1.86 2 9.28 10zM25 57h-2v-4M33 23h-2v-4M41 23h-2v-4M49 57h-2v-4"/><path d="M34 42h-2v-2M40 42h-2v-2"/></g></svg><svg viewBox="0 0 72 72" id="1F3F0" xmlns="http://www.w3.org/2000/svg"><path fill="#9B9B9A" d="M30 27h12v14H30z"/><path fill="#D0CFCE" stroke-linecap="round" stroke-linejoin="round" stroke-miterlimit="10" stroke-width="2" d="M52 55H20V39h7v2h5v-2h8v2h5v-2h7v2-2zM10 32h10v23H10zM52 32h10v23H52zM8 26h14v6H8zM29.5 22h13v6h-13zM50 26h14v6H50z"/><path fill="#EA5A47" stroke-linecap="round" stroke-linejoin="round" stroke-miterlimit="10" stroke-width="2" d="M36 12l-4.5 10h9zM15 16L9.5 26h11zM57 16l-5.5 10h11z"/><path fill="#A57939" stroke-linecap="round" stroke-linejoin="round" stroke-miterlimit="10" stroke-width="2" d="M40.5 55h-9v-6a3 3 0 013-3h3a3 3 0 013 3v6z"/><g fill="none" stroke="#000" stroke-linecap="round" stroke-linejoin="round" stroke-miterlimit="10" stroke-width="2"><path d="M31 35v-7h10v7"/><path d="M37 35h-2v-3a1 1 0 011-1h0M52 55H20V39h7v2h5v-2h8v2h5v-2h7v2-2zM10 32h10v23H10zM52 32h10v23H52zM8 26h14v6H8zM29.5 22h13v6h-13zM50 26h14v6H50zM36 12l-4.5 10h9zM15 16L9.5 26h11zM57 16l-5.5 10h11z"/><path d="M40.5 55h-9v-6a3 3 0 013-3h3a3 3 0 013 3v6zM36 46v9M16 40h-2v-3a1 1 0 011-1h0M58 40h-2v-3a1 1 0 011-1h0"/></g></svg><svg viewBox="0 0 72 72" id="1F492" xmlns="http://www.w3.org/2000/svg"><path fill="#D0CFCE" d="M44 34V19.435l-7.294-5.216a1.248 1.248 0 00-1.412 0L28 19.435V34"/><path fill="#FFF" stroke-linecap="round" stroke-linejoin="round" stroke-miterlimit="10" stroke-width="2" d="M53 41.495v24.508c0 .55-.4.997-.895.997h-32.21c-.494 0-.895-.446-.895-.997V41.495c0-.29.113-.565.31-.755l16.105-15.498a.827.827 0 011.17 0L52.69 40.74c.197.19.31.465.31.755z"/><path fill="#A57939" stroke-linecap="round" stroke-miterlimit="10" stroke-width="2" d="M41 58.943c0-3.85-3.348-6.126-4.565-6.825a.86.86 0 00-.87 0c-1.217.7-4.565 2.974-4.565 6.825v7.09c0 .534.41.967.914.967h8.172c.505 0 .914-.433.914-.968v-7.089z"/><path fill="#EA5A47" stroke-linecap="round" stroke-linejoin="round" stroke-width="2" d="M36 45.825l-4.87-6.244-.156-.232A2.863 2.863 0 1136 36.621a2.863 2.863 0 114.888 2.936L36 45.825z"/><g fill="none" stroke="#000" stroke-linecap="round" stroke-width="2"><path stroke-linejoin="round" stroke-miterlimit="10" d="M53 41.495v24.508c0 .55-.4.997-.895.997h-32.21c-.494 0-.895-.446-.895-.997V41.495c0-.29.113-.565.31-.755l16.105-15.498a.827.827 0 011.17 0L52.69 40.74c.197.19.31.465.31.755z"/><path stroke-linejoin="round" stroke-miterlimit="10" d="M43 27v-8.565l-6.382-5.216a.981.981 0 00-1.236 0L29 18.435V27"/><path stroke-miterlimit="10" d="M36 13V5M32.5 8h7M41 58.943c0-3.85-3.348-6.126-4.565-6.825a.86.86 0 00-.87 0c-1.217.7-4.565 2.974-4.565 6.825v7.09c0 .534.41.967.914.967h8.172c.505 0 .914-.433.914-.968v-7.089z"/><path stroke-linejoin="round" d="M36 45.825l-4.87-6.244-.156-.232A2.863 2.863 0 1136 36.621a2.863 2.863 0 114.888 2.936L36 45.825z"/></g></svg><svg viewBox="0 0 72 72" id="1F5FC" xmlns="http://www.w3.org/2000/svg"><path fill="#d22f27" d="M36.118 7h.999v9.498h-.999z"/><path fill="#ea5a47" d="M35.068 7h1.05v9.498h-1.05z"/><path fill="#d0cfce" d="M41.824 22.646h-5.682v-4.252h4.918l.764 4.252z"/><path fill="#ea5a47" d="M36.16 48.84l-.018 2.607s-3.098.077-5.355 3.693a14.11 14.11 0 00-1.615 6.582l-10.541-.245s6.835-3.138 8.883-6.754a50.835 50.835 0 002.52-5.712"/><path fill="#d22f27" d="M36.121 49.178l-.003 2.27s3.098.076 5.355 3.692a14.111 14.111 0 011.615 6.582l10.54-.245s-6.834-3.138-8.882-6.754a48.79 48.79 0 01-2.398-5.397"/><path fill="#b1cc33" d="M5.96 63.413h30.041V66H5.96z"/><path fill="#5c9e31" d="M36 63.413h30.041V66H36z"/><path fill="#ea5a47" d="M36.111 42.5H30.13l2.673-18.413 3.308.109V42.5z"/><path fill="#d22f27" d="M40.931 42.5h-4.82V24.196h4.232l.588 18.304z"/><path fill="#d0cfce" d="M43.031 47.984h-6.853v-4.077h7.862l-1.009 4.077z"/><g fill="none" stroke="#000" stroke-width="2"><path stroke-linecap="round" stroke-linejoin="round" d="M27.44 43.196h17.12l-1.041 5.5H28.385l-.945-5.5zM5.019 62.5h61.962V67H5.019z"/><path stroke-miterlimit="10" d="M29.786 62c0-5.314 2.845-9.622 6.356-9.622s6.356 4.308 6.356 9.622"/><path stroke-linecap="round" stroke-linejoin="round" d="M42.877 49.5a17.042 17.042 0 003.03 5.827A25.634 25.634 0 0054.57 62M40.255 34.591c-.1-.929-.255-2.521-.36-4.527-.176-3.41-.1-6.118-.084-6.14a104.18 104.18 0 001.61 19.158M28.832 49.325a17.874 17.874 0 01-3.364 7.002 18.536 18.536 0 01-7.691 5.537M31.947 34.591c.1-.929.255-2.521.359-4.527.177-3.41.1-6.118.085-6.14a104.18 104.18 0 01-1.61 19.158M36.182 17.5h-5.437l-.543 5.886h11.96l-.543-5.886h-5.437M34.444 17V6h3.348v11"/></g></svg><svg viewBox="0 0 72 72" id="1F5FD" xmlns="http://www.w3.org/2000/svg"><path fill="#92d3f5" d="M16.598 20.026c.239 1.888.574 4.446 1.011 7.492.364 2.53.55 3.684.945 3.724.818.084 1.882-4.52 2.073-5.349a35.42 35.42 0 00.848-5.867"/><path fill="#61b2e4" d="M13.781 15.056h9.686v4.408h-9.686zM23.332 29.871c.509.07.866.774 2.272 6.456 1.446 5.84 1.265 5.89 1.824 6.985 1.581 3.099 3.03 2.699 5.603 6.57 2.219 3.34 1.508 4.189 2.974 5.16 2.966 1.964 6.397-.533 11.366.989a9.802 9.802 0 015.124 3.083c1.02 1.27 3.491 4.343 2.58 5.994-1.403 2.541-8.693-2.146-19.68-.229-4.453.777-8.145 2.4-8.907 1.173-.843-1.356 3.239-4.033 2.728-7.733-.304-2.203-2.628-4.566-4.042-7.564-2.441-5.175-5.87-9.498-4.725-15.051.651-3.154 1.73-5.992 2.883-5.833z"/><ellipse cx="41.903" cy="46.206" fill="#92d3f5" rx="4.857" ry="5.806"/><path fill="#f4aa41" d="M16.141 13.355a2.821 2.821 0 01.096-2.424c.514-1.012 1.378-1.142 2.645-1.925 2.725-1.683 3.14-3.806 4.049-3.567.937.246 1.034 2.638 1.06 3.276.06 1.511.166 4.128-1.716 5.465-1.943 1.381-5.282.884-6.134-.825z"/><path fill="none" stroke="#92d3f5" stroke-linecap="round" stroke-miterlimit="10" stroke-width="2" d="M41.028 30.513v6.101M50.422 33.3l-4.314 4.314M33.218 33.11l4.314 4.314M29.912 41.239h3.605M50.289 41.239h6.101"/><g fill="none" stroke="#000" stroke-linecap="round" stroke-linejoin="round" stroke-width="2"><path d="M13.364 15.056h10.102v4.408H13.364zM16.282 13.737a3.543 3.543 0 01-.231-2.35c.348-1.192 1.336-1.56 3.178-2.913 2.84-2.088 3.307-3.284 4.006-3.013.942.365.96 2.898.53 4.601a7.437 7.437 0 01-.729 1.821M16.578 19.842q1.313 11.966 2.482 11.952 1.02-.012 1.93-9.148M19.572 35.457c.58 1.981 1.17 4 2.34 8.04 1.437 4.966 1.481 5.164 1.794 5.922 2.437 5.899 5.014 6.542 4.666 9.6a43.512 43.512 0 01-1.436 5.563c-.182.619-.34 1.128-.448 1.47M22.987 29.1a51.056 51.056 0 012.872 8.116c1.276 4.519.834 4.78 1.885 6.73 2.274 4.223 5.048 4.298 7.088 8.793a6.001 6.001 0 001.615 2.392 6.777 6.777 0 004.845 1.286c1.968-.203 3.216-1.083 4.897-1.342a5.382 5.382 0 015.063 2.24c1.096 1.003 1.912 3.135 3.5 7.357"/><ellipse cx="41.903" cy="46.206" rx="5" ry="6.101"/><path d="M50.289 41.717h6.101M46.618 37.877l4.314-4.314M41.618 36.614v-6.101M33.517 41.717h-3.605M37.188 37.861l-4.314-4.314"/></g></svg><svg viewBox="0 0 72 72" id="1F6D6" xmlns="http://www.w3.org/2000/svg"><path fill="#a57939" d="M56.973 55.428a3.335 3.335 0 01-1.818 3.266c-2.605 1.315-8.037 2.944-19.12 3.234q-1.175.031-2.268.03c-10.459 0-15.255-2.013-17.23-3.27a3.283 3.283 0 01-1.511-3.093v-16.89h41.96z"/><path fill="#6a462f" d="M37.457 42.197a80.275 80.275 0 01-28.383-5.248 1.032 1.032 0 01-.476-1.483c9.423-15.568 26.328-25.016 27.044-25.41a1.033 1.033 0 01.994-.003c.768.421 18.9 10.475 27.027 25.412a1.032 1.032 0 01.072.82 1 1 0 01-.552.613c-8.745 3.674-17.477 4.814-25.726 5.299zM33.883 61.966c-2.335 0-3.792-.093-3.905-.1a1 1 0 01-.933-.998V45.269a1 1 0 011-1h12.148a1 1 0 011 1v15.317a1 1 0 01-.908.996 92.864 92.864 0 01-8.402.384zm8.31-1.38z"/><path fill="#fcea2b" d="M36.994 11.444a1.16 1.16 0 00.136-.537.982.982 0 00-.034-.177.96.96 0 00-.063-.2c-.009-.017-.008-.037-.018-.055a.922.922 0 00-.09-.106.937.937 0 00-.078-.118c-.014-.014-.034-.019-.05-.032a.96.96 0 00-.17-.113 1.157 1.157 0 00-.538-.137.996.996 0 00-.178.034.963.963 0 00-.196.061c-.019.01-.04.008-.058.018-.715.395-17.612 9.84-27.031 25.4a.999.999 0 00.457 1.435 39.77 39.77 0 006.054 2.074 1.01 1.01 0 00.198.02l.008.001h.007a.993.993 0 00.294-.052.949.949 0 00.088-.035.987.987 0 00.185-.103.954.954 0 00.08-.06.986.986 0 00.15-.168c.017-.024.037-.043.052-.069l.01-.013a114.889 114.889 0 0120.638-26.846c.015-.015.02-.035.033-.05a.956.956 0 00.114-.171z"/><path fill="none" stroke="#000" stroke-linecap="round" stroke-linejoin="round" stroke-width="2" d="M53.74 33.087a127.35 127.35 0 013.057 5.087"/><g fill="none" stroke="#000" stroke-linecap="round" stroke-linejoin="round" stroke-width="2"><path d="M55.986 41.23l-.012 14.248a2.315 2.315 0 01-1.27 2.323c-2.187 1.105-7.373 2.831-18.694 3.127-11.758.307-16.898-1.786-18.935-3.082a2.3 2.3 0 01-1.049-2.199V41.231"/><path d="M30.044 57.816V45.269h12.149v12.547M62.757 35.958c-8.074-14.842-26.616-25-26.616-25S18.87 20.49 9.48 36M25.404 33.132a60.26 60.26 0 00-2.022 6.744M32.045 41.012s.284-3.383.97-8.026M46.918 33.197a60.281 60.281 0 012.022 6.744M40.192 41.049s-.283-3.383-.97-8.025M18.4 32.927q-1.535 2.425-3.056 5.086M53.74 33.087a127.35 127.35 0 013.057 5.087"/></g></svg><svg viewBox="0 0 72 72" id="1F9F1" xmlns="http://www.w3.org/2000/svg"><g fill="#d22f27" stroke="#d22f27" stroke-linecap="round" stroke-linejoin="round" stroke-width="2"><path d="M15 45h17v9H15zM33 46h16v8H33zM40 36h17v9H40zM23 37h16v7H23zM15 27h17v9H15zM32 27h17v9H32zM40 18h17v9H40zM23 18h17v9H23z"/></g><g fill="none" stroke="#000" stroke-linecap="round" stroke-linejoin="round" stroke-width="2"><path d="M32 36v-9M54 27H15M40 19v8M58 36H19M40 45v-9M52 45H19M32 53v-8M47 18H20M23 18v9M23 45v-4M32 36v-9M49 46v5M44 54H26M57 40v-4"/></g></svg><svg viewBox="0 0 72 72" id="1FAA8" xmlns="http://www.w3.org/2000/svg"><path fill="#d0cfce" d="M55.785 34.99a1 1 0 01.105 1.041l-3.894 8.063a1.002 1.002 0 01-.706.546l-10.798 2.138a1.007 1.007 0 01-.794-.18L16.214 29.02a1 1 0 01-.176-1.432l2.438-2.997a.998.998 0 01.326-.262l18.305-9.222a1.015 1.015 0 01.658-.085l3.819.807a.997.997 0 01.637.442l2.673 4.144 1.62 2.49z"/><path fill="#3f3f3f" d="M26.692 56h20.096l-6.471-10.181-23.374-17.6-1.129 4.827L26.692 56z"/><path fill="#9b9b9a" d="M54.78 36.031l1.348 11.513L54.469 56h-7.681l-6.471-10.181 10.622-1.879 3.841-7.909z"/><g fill="none" stroke="#000" stroke-linecap="round" stroke-linejoin="round" stroke-width="2"><path d="M45.797 23.608l9.193 11.989 1.138 11.642L54.469 56H26.692L16 32.86l.813-4.641 2.439-2.997L37.558 16l3.819.807 2.643 4.11-5.012 3.353"/><path d="M47.359 56l-7.061-10.203-23.485-17.578M54.99 35.597l-3.895 8.062-10.797 2.138"/></g></svg><svg viewBox="0 0 72 72" id="1FAB5" xmlns="http://www.w3.org/2000/svg"><path fill="#a57939" d="M35.665 60.771a31.363 31.363 0 01-9.832-1.452.959.959 0 01-.653-.908v-.392a.876.876 0 01.006-.11 5.694 5.694 0 00-.885-3.881.987.987 0 01-.175-.38l-.043-.195a11.265 11.265 0 00.049 3.458.958.958 0 01-1.43 1.009c-2.698-1.603-3.264-3.347-3.264-4.528V18.385a.958.958 0 01.894-.956.97.97 0 011.013.83c.007.041-.502 5.59 14.32 5.59 14.772 0 14.312-5.55 14.323-5.607a.99.99 0 011.024-.803.952.952 0 01.88.946v9.006a3.1 3.1 0 001.555-1 .968.968 0 01.994-.369c2.667.628 3.276 5.623 3.37 6.619a.956.956 0 01-.378.856c-2.23 1.672-4.693 7.15-5.541 9.333V53.39c0 4.208-6.976 7.38-16.227 7.38z"/><path fill="#6a462f" d="M26.138 59.368a.607.607 0 01-.194-.02 11.095 11.095 0 01-3.364-1.515.958.958 0 01-.327-.55 11.977 11.977 0 01.345-5.737 1.62 1.62 0 011.49-1.333c1.013.04 1.49 1.158 1.87 2.843a7.756 7.756 0 011.137 5.017v.337a.957.957 0 01-.957.958z"/><path fill="#fcea2b" d="M35.665 25.765c-9.252 0-16.227-3.172-16.227-7.38s6.976-7.38 16.227-7.38 16.227 3.172 16.227 7.38-6.976 7.38-16.227 7.38z"/><g fill="none" stroke="#000" stroke-linecap="round" stroke-linejoin="round" stroke-width="2"><path d="M50.934 42.652s2.91-7.66 5.924-9.92c0 0-.502-5.275-2.637-5.778a4.156 4.156 0 01-3.287 1.525V18.385M50.934 46.034v7.358c0 2.968-4.789 5.466-11.294 6.202l-.018-.048a11.432 11.432 0 01-.693-3.652 6.274 6.274 0 01.301-2.267c.216-.604.566-1.155.774-1.762a8.118 8.118 0 00.288-2.656l-.021-10.073M20.396 18.385v35.007c0 1.38 1.034 2.658 2.796 3.705a11.088 11.088 0 01.303-5.218s.715-2.375 1.567 1.568a6.666 6.666 0 011.075 4.572v.391a30.562 30.562 0 009.528 1.404q.233 0 .464-.003M38.068 19.7c7.117-2.436-9.894-4.019-8.711.246 2.379 2.714 15.213 2.556 16.414-1.442 1.158-5.425-22.204-4.754-19.922.91"/><path d="M31.35 48.364a75.095 75.095 0 01-.504-9.564 4.668 4.668 0 00-.272-2.036 8.182 8.182 0 00-.993-1.363 8.105 8.105 0 01-1.164-5.593 53.879 53.879 0 00.542-5.44l-.006-.213a33.523 33.523 0 006.712.652c8.433 0 15.269-2.875 15.269-6.422s-6.836-6.422-15.27-6.422-15.268 2.875-15.268 6.422c0 1.944 2.052 3.686 5.296 4.863"/></g></svg></svg>