<?xml version="1.0" encoding="utf-8"?><svg viewBox="0 0 72 72" xmlns="http://www.w3.org/2000/svg" xmlns:xlink="http://www.w3.org/1999/xlink"><style>:root>svg{display:none}:root>svg:target{display:block}</style><svg viewBox="0 0 72 72" id="1F301" xmlns="http://www.w3.org/2000/svg"><path fill="none" stroke="#000" stroke-linecap="round" stroke-linejoin="round" stroke-width="2" d="M27 31l3-1 2 2 3-2 2 1 2-1 2 2 1-1"/><path fill="#fff" d="M21.38 27.63c1.636.377 3.012.948 4.016 1.579-2.246.631-3.65 13.32-10.57 17.69-4.659-2.517-7.075-9.495-4.782-13.8 2.43-8.036 10.83-5.355 11.33-5.47zM58.01 33.3c.602.12 3.002-.243 4.54.451 3.639 1.302 4.828 4.206 4.63 8.066.017 2.845-3.155 3.48-5.039 5.611-4.23-.446-3.926-3.52-4.733-3.069-5.214 2.913-14.63-7.577-13.72-12.99 4.296-10.07 15.93-1.788 14.32 1.933z"/><path fill="#3f3f3f" d="M16.76 45.06l2.9-10.63 1.93 4.83 5.8-15.46 2.49 3 5.43-14.35 2.71 5.56 2.9 9.66 1.93-3.87 2.9 12.56 2.89-6.76 2.9 15.46"/><path fill="#fff" d="M44.05 29l-3.13 1.57-2.9-.97-1.94-.97-3.86 1.94-1.93-1.94-2.9.97-1.24-2.48 1.24-3.32 2.49 3 5.43-14.35 2.71 5.56 2.9 9.66 1.93-3.87zM38.56 40.49l3.219-1.266s3.964-.933 6.863.033a8.76 8.76 0 015.797 8.695c.017 2.845-.528 6.481-2.412 8.613-2.843 2.528-5.311 2.812-8.038 2.936-1.547.122-3.918-.135-4.749-1.446l-1.522-2.154c-1.403 1.932-4.082 3.492-6.465 3.644-2.281 0-4.895-.474-6.263-2.299l-2.016-2.255a3.675 3.675 0 01-3.314 1.655c-1.932 0-5.797-.966-5.797-5.797-.196-3.445 2.529-7.396 5.963-7.729l3.057.167c-.625-2.6 2.355-6.929 7.403-6.929 2.325 0 6.707.895 8.274 4.131z"/><g fill="none" stroke="#000" stroke-linecap="round" stroke-width="2"><path stroke-linejoin="round" d="M61.2 34.43a6.428 6.428 0 015.797 6.763c0 4.83-3.864 5.797-5.797 5.797a3.539 3.539 0 01-3.864-3.864M21.59 28.63s-3.864-.966-6.763 0-4.83 2.898-4.83 7.729a11.57 11.57 0 002.898 7.729M16.76 45.06l2.9-10.63 1.93 4.83 5.8-15.46 2.49 3 5.43-14.35 2.71 5.56 2.9 9.66 1.93-3.87 2.9 12.56 2.89-6.76L51 40"/><path stroke-linejoin="round" d="M19.66 44.09a6.428 6.428 0 00-5.797 6.763c0 4.83 3.864 5.797 5.797 5.797a3.539 3.539 0 003.864-3.864M25.46 56.65a7.246 7.246 0 005.797 2.898c3.864 0 6.763-3.864 6.763-4.83M39.95 57.62a4.186 4.186 0 003.864 1.932 5.175 5.175 0 004.83-4.83M23.53 45.06c-1.932-1.932.966-8.695 6.763-8.695 2.898 0 8.695.966 8.695 6.763M41.88 40.23s3.864-1.932 6.763-.966a8.76 8.76 0 015.797 8.695 11.57 11.57 0 01-2.898 7.729"/><path stroke-miterlimit="10" d="M57.34 35.4c1.932-1.932-.966-8.695-6.763-8.695a10.77 10.77 0 00-6.6 1.993"/></g></svg><svg viewBox="0 0 72 72" id="1F303" xmlns="http://www.w3.org/2000/svg"><path fill="#8967aa" d="M4 3.985h64v64H4z"/><path fill="#9b9b9a" d="M9.923 45.944v-17h10v17M33.923 32.944h13v35.041h-13z"/><path fill="#d0cfce" d="M50.923 67.985V36.944h16v31.041M4.923 67.985V45.944h34v22.041"/><path fill="#fcea2b" d="M8.923 48.948h2.991v5.997H8.923zM14.923 48.948h2.991v5.997h-2.991zM26.923 48.948h2.991v5.997h-2.991zM32.923 48.948h2.991v5.997h-2.991zM54.923 39.948h2.991v5.997h-2.991zM60.923 49.948h2.991v5.997h-2.991zM60.923 59.948h2.991v5.997h-2.991zM54.923 59.948h2.991v5.997h-2.991zM32.923 58.948h2.991v5.997h-2.991zM20.923 58.948h2.991v5.997h-2.991zM8.923 58.948h2.991v5.997H8.923z"/><circle cx="22" cy="20.842" r="2" fill="#fcea2b"/><circle cx="34" cy="25.842" r="2" fill="#fcea2b"/><circle cx="33" cy="14.842" r="2" fill="#fcea2b"/><circle cx="14" cy="10.842" r="2" fill="#fcea2b"/><path fill="#fcea2b" d="M56 25.842c-.484.527-9.016-2.397-9-9 .01-4.4 3.813-8.554 9-9a22.137 22.137 0 00-2.078 2.087A10.451 10.451 0 0051 16.842c.063 2.889 1.758 5.223 3.16 6.797 1.102 1.235 2.024 2.003 1.84 2.203z"/><g fill="none" stroke="#000" stroke-linecap="round" stroke-linejoin="round" stroke-width="2"><path d="M50.923 66.944v-30h16v30M4.923 66.944v-21h34v21"/><path d="M34.923 42.944v-10h12v34M10.923 42.944v-14h8v14M56.923 45.944h-2v-5M62.923 55.944h-2v-5M28.923 54.944h-2v-5M34.923 54.944h-2v-5M34.923 64.944h-2v-5M16.923 54.944h-2v-5M10.923 54.944h-2v-5M10.923 64.944h-2v-5M22.923 64.944h-2v-5M56.923 65.944h-2v-5M62.923 65.944h-2v-5M14.923 31.944v11M38.923 35.944v7M42.923 35.944v31M14 12.842a2 2 0 010-4M22 22.842a2 2 0 010-4M33 16.842a2 2 0 110-4M34 27.842a2 2 0 010-4M56 25.842c-.484.527-9.016-2.397-9-9 .01-4.4 3.813-8.554 9-9a22.137 22.137 0 00-2.078 2.087A10.451 10.451 0 0051 16.842c.063 2.889 1.758 5.223 3.16 6.797 1.102 1.235 2.024 2.003 1.84 2.203z"/></g></svg><svg viewBox="0 0 72 72" id="1F304" xmlns="http://www.w3.org/2000/svg"><path fill="#e27022" d="M4 4h64v64H4z"/><path fill="#f4aa41" d="M68 4h-8L44 35l4 3 17-20 3-3.231M4 17.562l2.019 1.913L24.55 38.066l3.75-3.308L9 4H4v13.562zM30.879 4l2.469 28.375 4.983.412 3.749-25.98L42.566 4"/><path fill="#fcea2b" d="M50.961 49.078c-.267 3.131-5.203 14.664-16.04 13.883a15 15 0 01-13.882-16.04c.627-8.7 8.662-14.341 16.04-13.882 6.991.435 11.089 6.206 11.654 7.03a14.632 14.632 0 012.107 5.547 16.402 16.402 0 01.121 3.462z"/><path fill="#d0cfce" d="M4 42.636l11.889-9.226L54.869 68H4V42.636z"/><path fill="#9b9b9a" d="M41.492 54.869L68 27.944V68H54.869"/><g fill="none" stroke="#000" stroke-linecap="round" stroke-width="2"><path stroke-miterlimit="10" d="M25.75 37.049a15.025 15.025 0 0114.712-3.374 15.362 15.362 0 017.586 5.388 11.518 11.518 0 011.694 2.88"/><path stroke-linejoin="round" d="M5 42.416l11.34-9.561L54.746 67M42.983 53.445L66.755 28.22"/></g></svg><svg viewBox="0 0 72 72" id="1F305" xmlns="http://www.w3.org/2000/svg"><path fill="#61b2e4" d="M4 47.292h64v20.787H4z"/><path fill="#e27022" d="M4 4.079h64v43.213H4z"/><path fill="#f4aa41" d="M68 4.079h-8l-16 31 4 3 17-20 3-3.231M4 17.641l2.019 1.913L24.55 38.145l3.75-3.308L9 4.079H4v13.562zM30.879 4.079l2.469 28.375 4.983.412 3.749-25.98.486-2.807M68 34.719l-21.932 6.999.707 4.95L68 44.947M4 34.899l21.933 6.999-.707 4.95L4 45.127"/><path fill="#fcea2b" d="M21.48 47.292a15.68 15.68 0 1129.04 0"/><path fill="#fff" d="M67.964 24.049L68 47.292H49.932l5.087-10.284 3.622-3.575 1.002-5.65 1.284-2.879 7.037-.855zM4.037 24.049L4 47.292h17.48l-3.153-11.213-3.479-3.988.119-3.245-3.894-3.942-7.036-.855z"/><g fill="none" stroke="#000" stroke-linecap="round" stroke-miterlimit="10" stroke-width="2"><path d="M8.48 32.188a7.753 7.753 0 019.848 4.82M5 24.026a7.753 7.753 0 019.848 4.82M54.475 40.583a7.753 7.753 0 018.332-7.127M58.641 30.756a7.753 7.753 0 018.332-7.127M5.124 47.293h61.753M20.49 43.963a15.68 15.68 0 1130.775.253"/></g></svg><svg viewBox="0 0 72 72" id="1F306" xmlns="http://www.w3.org/2000/svg"><path fill="#e27022" d="M4 3.898h64V68H4z"/><path fill="#9b9b9a" d="M9.923 46V29h10v17M33.923 33h13v35h-13z"/><path fill="#d0cfce" d="M50.923 68V37h16v31M4.923 68V46h34v22"/><path fill="#fcea2b" d="M8.923 49.004h2.991v5.997H8.923zM14.923 49.004h2.991v5.997h-2.991zM26.923 49.004h2.991v5.997h-2.991zM32.923 49.004h2.991v5.997h-2.991zM54.923 40.004h2.991v5.997h-2.991zM60.923 50.004h2.991v5.997h-2.991zM60.923 60.004h2.991v5.997h-2.991zM54.923 60.004h2.991v5.997h-2.991zM32.923 59.004h2.991v5.997h-2.991zM20.923 59.004h2.991v5.997h-2.991zM8.923 59.004h2.991v5.997H8.923z"/><g fill="none" stroke="#000" stroke-linecap="round" stroke-linejoin="round" stroke-width="2"><path d="M50.924 66.629v-30h16v30M4.924 66.629v-21h34v21"/><path d="M34.924 42.629v-10h12v34M10.924 42.629v-14h8v14M56.924 45.629h-2v-5M62.924 55.629h-2v-5M28.924 54.629h-2v-5M34.924 54.629h-2v-5M34.924 64.629h-2v-5M16.924 54.629h-2v-5M10.924 54.629h-2v-5M10.924 64.629h-2v-5M22.924 64.629h-2v-5M56.924 65.629h-2v-5M62.924 65.629h-2v-5M14.924 31.629v11M38.924 35.629v7M42.924 35.629v31"/></g></svg><svg viewBox="0 0 72 72" id="1F307" xmlns="http://www.w3.org/2000/svg"><path fill="#e27022" d="M4 4h64.09v64H4z"/><path fill="#f4aa41" d="M4 31.112l21.09 5.515-.443 4.98L4 41.035M68.09 31.112L47 36.627l.443 4.98 20.647-.572M68.09 11.879l-17 20-4-3L59.927 4.008 68.09 4M4 4l.001 9.364 2.108 1.991 18.531 18.59 3.75-3.307L12.1 4M32.502 4l1.936 22.255 4.983.411L42.692 4"/><circle cx="37.09" cy="35.879" r="15" fill="#fcea2b"/><path fill="#9b9b9a" d="M10.013 45.981v-17h10v17M34.013 32.981h13V68h-13z"/><path fill="#d0cfce" d="M51.013 68V36.981h16V68M5.013 68V45.981h34V68"/><path fill="#fcea2b" d="M9.013 48.985h2.991v5.997H9.013zM15.013 48.985h2.991v5.997h-2.991zM27.013 48.985h2.991v5.997h-2.991zM33.013 48.985h2.991v5.997h-2.991zM55.013 39.985h2.991v5.997h-2.991zM61.013 49.985h2.991v5.997h-2.991zM61.013 59.985h2.991v5.997h-2.991zM55.013 59.985h2.991v5.997h-2.991zM33.013 58.985h2.991v5.997h-2.991zM21.013 58.985h2.991v5.997h-2.991zM9.013 58.985h2.991v5.997H9.013z"/><g fill="none" stroke="#000" stroke-linecap="round" stroke-width="2"><path stroke-linejoin="round" d="M51.013 66.981v-30h16v30M5.013 66.981v-21h34v21"/><path stroke-linejoin="round" d="M35.013 42.981v-10h12v34M11.013 42.981v-14h8v14M57.013 45.981h-2v-5M63.013 55.981h-2v-5M29.013 54.981h-2v-5M35.013 54.981h-2v-5M35.013 64.981h-2v-5M17.013 54.981h-2v-5M11.013 54.981h-2v-5M11.013 64.981h-2v-5M23.013 64.981h-2v-5M57.013 65.981h-2v-5M63.013 65.981h-2v-5M15.013 31.981v11M39.013 35.981v7M43.013 35.981v31"/><path stroke-miterlimit="10" d="M23.875 42.982a15.002 15.002 0 1128.091-9.037"/></g></svg><svg viewBox="0 0 72 72" id="1F309" xmlns="http://www.w3.org/2000/svg"><g stroke="#000"><g fill="none" stroke-linecap="round" stroke-miterlimit="10" stroke-width="2"><path d="M41.773 19.473a7.218 7.218 0 01-5.695 9.864M41.773 19.473a6.054 6.054 0 01-5.695 9.864"/></g><path stroke-linejoin="round" stroke-width="2" d="M22 22.381l1.854 1.325-.688-2.173L25 20.18l-2.279-.107L22 18l-.721 2.162L19 20.18l1.834 1.353-.688 2.173L22 22.381z"/><path stroke-linejoin="round" stroke-width=".75" d="M27 32.46l.618.442-.229-.724.611-.451-.76-.006L27 31l-.24.721-.76.006.611.361-.229.814.618-.442z"/><path stroke-linejoin="round" d="M51.5 26.337l.927.663-.344-1.087.917-.676-1.14-.099-.36-.991-.36 1.081-1.14.009.917.676L50.573 27l.927-.663z"/></g><rect width="48" height="48" x="12" y="12" fill="#1e50a0" rx="1"/><g stroke="#f1b31c"><g fill="none" stroke-linecap="round" stroke-miterlimit="10" stroke-width="2"><path d="M41.773 19.473a7.218 7.218 0 01-5.695 9.864M41.773 19.473a6.054 6.054 0 01-5.695 9.864"/></g><path fill="#f1b31c" stroke-linejoin="round" stroke-width="2" d="M22 22.381l1.854 1.325-.688-2.173L25 20.18l-2.279-.107L22 18l-.721 2.162L19 20.18l1.834 1.353-.688 2.173L22 22.381z"/><path fill="#f1b31c" stroke-linejoin="round" stroke-width=".75" d="M27 32.46l.618.442-.229-.724.611-.451-.76-.006L27 31l-.24.721-.76.006.611.361-.229.814.618-.442z"/><path fill="#f1b31c" stroke-linejoin="round" d="M51.5 26.337l.927.663-.344-1.087.917-.676-1.14-.099-.36-.991-.36 1.081-1.14.009.917.676L50.573 27l.927-.663z"/></g><g><g fill="none" stroke="#000" stroke-width="2"><path stroke-linecap="round" stroke-miterlimit="10" d="M12.923 48.038h46.154M24 36.962L12 48.038"/><path stroke-miterlimit="10" d="M24 36.962v23.076M48 60.038V36.962"/><g stroke-miterlimit="10"><path d="M24 41.222l-7.385 6.816M24 45.482l-2.769 2.556"/></g><path stroke-linecap="round" stroke-miterlimit="10" d="M48 36.962L36 48.038"/><g stroke-miterlimit="10"><path d="M48 41.222l-7.385 6.816M48 45.482l-2.769 2.556"/></g><path stroke-linecap="round" stroke-miterlimit="10" d="M24 36.962l12 11.076"/><g stroke-miterlimit="10"><path d="M24 41.222l7.385 6.816M24 45.482l2.769 2.556"/></g><path stroke-linecap="round" stroke-miterlimit="10" d="M48 36.962l12 11.076"/><g stroke-miterlimit="10"><path d="M48 41.222l7.385 6.816M48 45.482l2.769 2.556"/></g><rect width="48" height="48" x="12" y="12" stroke-linejoin="round" rx="1"/></g></g></svg><svg viewBox="0 0 72 72" id="1F3A0" xmlns="http://www.w3.org/2000/svg"><path fill="#fff" d="M27.24 55.13l-8.387-4.806 3.7-8.325-3.323-2.89-2.677-14.11-8.538 1.199-1.462-2.199 8-6c-.208.03-.22-4.11.634-5.177 2.221-2.211 2.474.644 3.721 2.273l8.351 8.243 2.293 1.66 17.76-2.195 9.237 2.195 1.787 7.042-4.147 6.785 2.36 5.173-6.2 6-3.794-4.482 1.994-6.518-2.37-.267-17.63 4.267-5 6 4.912 3.681z"/><path fill="#f4aa41" d="M37.55 22.71l-5 .89L32.49 4h5.06zM32.55 45.57l4.94-1.07.06 23.5h-5z"/><path fill="#fcea2b" d="M34.96 45.05l2.19-.55.02 23.5h-2.21zM37.24 22.76l-2.21.4V4.028h2.21z"/><path fill="#d0cfce" d="M48.548 39s-2.1 6.8-3 9a68.387 68.387 0 00-2 8l4.2-1.2 2.4-4.9-1.2-.2v-2.6l2.9-3M56.548 25h2c3 0 7 3 6 7-.7 2.9-4.1 5.6.9 10.6 0 0 .7 2.8-2 2a6.358 6.358 0 01-3.4-4.1c-1.8-5.5 1.7-8.2 1-10.2-.4-1.2-2.3-1.1-2.3-1.1M21.849 42.1l-1.1 2.9c-.6.2-4.4 1.5-4.3 2.7.2 1.9-.9 7.3-.9 7.3l-2 1s-2-8-2-9a3.881 3.881 0 011-3 61.25 61.25 0 016-4"/><path fill="#e67a94" d="M42.55 28c.073 3.48.114 5.413-1 6-1.409.743-3.943-1.052-5-2-1.134-1.017-1.013-1.458-2-2-1.68-.922-2.924-.136-4-1-.501-.402-1.023-1.208-1-3"/><path fill="#ffa7c0" d="M30.54 24.81l11.32-1.409a.582.582 0 01.666.576l.023 4.028-13-2z"/><g fill="none" stroke="#000" stroke-linecap="round" stroke-width="2"><path stroke-miterlimit="10" d="M32.55 5v18.16M37.55 5v17"/><path stroke-linejoin="round" d="M26.55 24c-1-1-2.5-3.5-5-6a14.39 14.39 0 00-3-2l-2-3M46.55 30s-1 3 0 5c1.2 2.4 5.8 8 5.8 9l-2.8 3s-1.1.7-1.1 1.4a1.563 1.563 0 001.9 1.6s6.4-5.6 6.2-6c-.5-1.3-1.4-3.7-2-5-1-2 4-5 4-8 0-1.6-1-6-5-7a19.32 19.32 0 00-6-.3M24.55 54a19.44 19.44 0 01-5-3 3.054 3.054 0 010-3l3-6a7.812 7.812 0 01-3-2c-1-1-.9-5-1-7-.1-1.8-2-8-2-8a37.46 37.46 0 00-8 1c-.7.2-2.6-1.6-2-2a79.74 79.74 0 018-6M26.55 51a11.35 11.35 0 011.2 1.2 1.758 1.758 0 01-2.2 2.7c-.6-.5-1-.9-1-.9"/><path stroke-linejoin="round" d="M47.55 38s-7.4 3.4-10 4a79.17 79.17 0 01-9 1c-4 4-5 6-5 6a20.04 20.04 0 003 2M48.548 39s-2.1 6.8-3 9c-.5 1.2-.6 1.9-1.5 4-.8 1.8-.9 2.1-.9 2.1a1.85 1.85 0 001 2.4 2.158 2.158 0 002.4-1.3l1-2.1M15.55 52v2c0 1.1-.7 2-1.5 2a1.56 1.56 0 01-1.5-1.6V52M18.55 40a61.25 61.25 0 00-6 4 3.881 3.881 0 00-1 3 46.19 46.19 0 001 5M56.55 25h2c3 0 7 3 6 7-.7 2.9-5 6 0 11"/><path stroke-miterlimit="10" d="M32.55 46v21M37.55 45v22"/><path stroke-linejoin="round" d="M29.55 25c-.2 2.269.385 3.392 1 4 1.432 1.416 3.389.387 5 2 1.149 1.15.813 2.332 2 3a3.718 3.718 0 003 0M15.55 48v4"/></g></svg><svg viewBox="0 0 72 72" id="1F3A1" xmlns="http://www.w3.org/2000/svg"><path fill="#61b2e4" d="M33.636 37.325L17.31 66.846h12.788l3.538-29.521zM36.386 37.606l16.261 29.24H39.859l-3.473-29.24z"/><path fill="#92d3f5" d="M46.53 55.464l-7.563-14.071-1.208.699 8.209 24.754h6.679l-5.442-10.127M31.703 42.584L24.001 66.24h6.182l3.304-23.424-1.784-.232z"/><path fill="none" stroke="#9b9b9a" stroke-linecap="round" stroke-linejoin="round" stroke-width="2" d="M38.327 29.961l12.272-12.272M19.267 49.049L32.36 35.956M56.918 32.927H38.901M50.612 48.676L37.63 35.694M31.149 32.946h-18.56M32.207 30.299L19.253 17.345M35.532 29.051V10.492"/><circle cx="34.734" cy="33.066" r="24.855" fill="none" stroke="#9b9b9a" stroke-miterlimit="10"/><circle cx="11.682" cy="20.785" r="4.588" fill="#f4aa41"/><circle cx="42.121" cy="9.418" r="4.588" fill="#f4aa41"/><circle cx="60.916" cy="32.206" r="4.64" fill="#f4aa41"/><circle cx="47.91" cy="55.464" r="4.64" fill="#f4aa41"/><circle cx="13.141" cy="47.132" r="4.588" fill="#f4aa41"/><g fill="none" stroke="#000" stroke-width="2"><path stroke-linecap="round" stroke-linejoin="round" d="M31.703 55.464l1.473-18.139M30.692 62.634l-.594 4.212H17.31l5.268-9.802M33.176 37.325l-8.679 16.148M38.254 55.464l-2.162-18.371M39.289 62.804l.57 4.042h12.788L48.929 60M36.092 37.093l8.184 14.294M60.646 36.838a26.132 26.132 0 01-8.409 15.7M47.281 10.081a26.226 26.226 0 0113.022 17.327M14.44 16.524a26.13 26.13 0 0120.294-9.64 26.484 26.484 0 012.677.135M10.457 42.887A26.305 26.305 0 019.7 25.373M43.763 57.65a26.215 26.215 0 01-28.123-6.67"/><path stroke-linecap="round" stroke-miterlimit="10" d="M37.163 36.16a3.876 3.876 0 111.738-3.234"/><path stroke-linecap="round" stroke-linejoin="round" d="M37.969 29.602L50.24 17.331M18.909 48.69l13.093-13.092M31.849 30.657L18.895 17.703M50.254 49.035L37.271 36.052M31.149 33.453h-18.56M56.276 33.433H38.901M35.025 29.051V10.492"/><circle cx="11.682" cy="20.785" r="4.588" stroke-miterlimit="10"/><circle cx="42.121" cy="9.418" r="4.588" stroke-miterlimit="10"/><path stroke-miterlimit="10" d="M65.556 32.206a4.64 4.64 0 01-4.64 4.64q-.137 0-.27-.008a4.64 4.64 0 114.91-4.632zM52.55 55.464a4.64 4.64 0 11-4.64-4.64 4.641 4.641 0 014.64 4.64z"/><circle cx="13.141" cy="47.132" r="4.588" stroke-miterlimit="10"/></g></svg><svg viewBox="0 0 72 72" id="1F3A2" xmlns="http://www.w3.org/2000/svg"><path fill="#fcea2b" d="M39.478 16.493c5.549-3.93 8.754-.634 8.754-.634a2.323 2.323 0 01.232 3.267L38.498 30.62a2.323 2.323 0 01-3.267.233l-3.713-3.22a2.323 2.323 0 01-.233-3.267l1.631-1.882 3.235 2.805 5.811-6.703z"/><path fill="#f4aa41" d="M45.966 22.194L38.86 30.39a2.323 2.323 0 01-3.267.233l-3.713-3.22a2.323 2.323 0 01-.233-3.267l1.632-1.882 3.234 2.804 2.417-2.788"/><path fill="#ea5a47" d="M14.271 50.034l-6.405-2.562v16.421h6.405V50.034z"/><path fill="#d22f27" d="M10.38 49.63v14.083h3.203V50.9l-3.203-1.27z"/><path fill="#ea5a47" d="M30.613 48.78l-6.405 1.693v13.42h6.405V48.78z"/><path fill="#d22f27" d="M27.41 50.111v14.083h3.203V48.78l-3.203 1.331z"/><path fill="#ea5a47" d="M48.353 36.383l-6.405 6.413v21.139h6.405V36.383z"/><path fill="#d22f27" d="M44.515 40.249v23.945h3.203V37.986l-3.203 2.263z"/><path fill="#ea5a47" d="M64.822 11.896l-6.405 10.482v41.515h6.405V11.896z"/><path fill="#d22f27" d="M61.62 17.866v45.492h3.202V13.565l-3.202 4.301z"/><g><path fill="none" stroke="#000" stroke-linecap="round" stroke-miterlimit="10" stroke-width="2" d="M62.359 6.195S36.534 62.135 7.178 42.17"/><path fill="none" stroke="#000" stroke-linecap="round" stroke-linejoin="round" stroke-width="2" d="M47.718 36.383l-6.405 6.413v21.139h6.405V36.383zM30.613 48.78l-6.405 1.693v13.42h6.405V48.78zM13.583 50.034l-6.405-2.562v16.421h6.405V50.034zM39.86 16.45c5.55-3.93 8.755-.634 8.755-.634a2.323 2.323 0 01.232 3.267l-9.966 11.495a2.323 2.323 0 01-3.267.233l-3.713-3.22a2.323 2.323 0 01-.233-3.267l1.632-1.882 3.234 2.804 5.812-6.703z"/><circle cx="48.575" cy="20.77" r="1.55"/><circle cx="46.884" cy="22.991" r="1.55"/><circle cx="40.021" cy="30.636" r="1.55"/><circle cx="42.21" cy="28.608" r="1.55"/><path fill="none" stroke="#000" stroke-linecap="round" stroke-linejoin="round" stroke-width="2" d="M64.822 11.896l-6.405 10.482v41.515h6.405V11.896z"/></g></svg><svg viewBox="0 0 72 72" id="1F3AA" xmlns="http://www.w3.org/2000/svg"><g stroke-linecap="round" stroke-linejoin="round" stroke-miterlimit="10" stroke-width="2"><path fill="#FFF" d="M11.5 39h49v16h-49zM36 25L11.5 39h49z"/><path fill="#EA5A47" d="M36 25L20.5 39h31z"/><path fill="#FFF" d="M36 25l-5.5 14h11z"/><path fill="#EA5A47" d="M21 39h30v16H21z"/><path fill="#FFF" d="M30.5 39h11v16h-11z"/><path fill="#3F3F3F" d="M36 44l-3 11h6z"/></g><g fill="none" stroke="#000" stroke-linecap="round" stroke-linejoin="round" stroke-miterlimit="10" stroke-width="2"><path d="M11.5 39h49v16h-49zM36 25L11.5 39h49z"/><path d="M36 25L20.5 39h31z"/><path d="M36 25l-5.5 14h11zM21 39h30v16H21z"/><path d="M30.5 39h11v16h-11z"/><path d="M36 44l-3 11h6z"/></g></svg><svg viewBox="0 0 72 72" id="1F3D9" xmlns="http://www.w3.org/2000/svg"><path fill="#9B9B9A" d="M10 34V17h10v17M34 21h13v35H34z"/><path fill="#D0CFCE" stroke-miterlimit="10" d="M51 56V25h16v31M5 56V34h34v22"/><g fill="none" stroke="#000" stroke-miterlimit="10"><path d="M51 56V25h16v31M5 56V34h34v22"/><path stroke-linecap="round" stroke-linejoin="round" stroke-width="2" d="M51 55V25h16v30M5 55V34h34v21"/><path stroke-linecap="round" stroke-linejoin="round" stroke-width="2" d="M35 31V21h12v34M11 31V17h8v14M57 34h-2v-5M63 34h-2v-5M57 44h-2v-5M63 44h-2v-5M29 43h-2v-5M35 43h-2v-5M29 53h-2v-5M35 53h-2v-5M17 43h-2v-5M23 43h-2v-5M17 53h-2v-5M11 43H9v-5M11 53H9v-5M23 53h-2v-5M57 54h-2v-5M63 54h-2v-5M15 20v11M39 24v7M43 24v31"/></g></svg><svg viewBox="0 0 72 72" id="1F488" xmlns="http://www.w3.org/2000/svg"><g stroke-linecap="round" stroke-linejoin="round" stroke-miterlimit="10" stroke-width="2"><path fill="#D0CFCE" d="M48.5 16h-23a2 2 0 110-4h23a2 2 0 110 4zM48.5 60h-23a2 2 0 110-4h23a2 2 0 110 4z"/><path fill="#EA5A47" d="M26 16h22v40H26z"/><path fill="#FFF" d="M41.822 16L26 25v-4l8.462-5zM26 37l22-13v-4L26 33zM48 32L26 45v4l22-13zM48 44L27.692 56h6.77L48 48z"/><path fill="#92D3F5" d="M48 16h-6.178L26 25v8l22-13zM48 44L27.692 56H26v-7l22-13z"/></g><g fill="none" stroke="#000" stroke-linecap="round" stroke-linejoin="round" stroke-miterlimit="10" stroke-width="2"><path d="M48.5 16h-23a2 2 0 01-2-2h0a2 2 0 012-2h23a2 2 0 012 2h0a2 2 0 01-2 2zM48.5 60h-23a2 2 0 01-2-2h0a2 2 0 012-2h23a2 2 0 012 2h0a2 2 0 01-2 2zM26 16h22v40H26z"/><path d="M41.822 16L26 25v-4l8.462-5zM26 37l22-13v-4L26 33zM48 32L26 45v4l22-13zM48 44L27.692 56h6.77L48 48z"/><path d="M48 16h-6.178L26 25v8l22-13zM48 44L27.692 56H26v-7l22-13z"/></g></svg><svg viewBox="0 0 72 72" id="2668" xmlns="http://www.w3.org/2000/svg"><path fill="none" stroke="#ea5a47" stroke-linecap="round" stroke-linejoin="round" stroke-width="2" d="M31.961 12.387s-9.403 7.407-1.796 16.337-1.796 16.336-1.796 16.336h-2s9.403-7.406 1.796-16.336 1.796-16.337 1.796-16.337z"/><path fill="none" stroke="#ea5a47" stroke-linecap="round" stroke-linejoin="round" stroke-width="2" d="M40.277 12.099s-9.404 7.406-1.796 16.336-1.797 16.337-1.797 16.337h-2s9.404-7.406 1.797-16.337S38.277 12.1 38.277 12.1z"/><path fill="#ea5a47" d="M20.201 31.772c-6.445 2.662-8.29 6.141-8.29 11.195 0 8.156 11.008 14.768 24.588 14.768s24.588-6.612 24.588-14.768c0-4.928-2.572-8.288-8.749-10.97 7.012 2.99 11.575 7.852 11.575 13.344C63.913 54.431 51.416 61.8 36 61.8S8.087 54.431 8.087 45.341c0-5.631 4.797-10.602 12.114-13.57z"/><path fill="#d22f27" d="M36 57.62q.249.003.5.003c13.58 0 24.587-6.612 24.587-14.768 0-4.929-2.572-8.288-8.748-10.97 7.012 2.99 11.574 7.852 11.574 13.344 0 9.09-12.497 16.458-27.913 16.458"/><path fill="none" stroke="#ea5a47" stroke-linecap="round" stroke-miterlimit="10" stroke-width="2" d="M26.781 45.06s9.404-7.406 1.797-16.336 1.796-16.337 1.796-16.337"/><path fill="none" stroke="#ea5a47" stroke-linecap="round" stroke-linejoin="round" stroke-width="2" d="M48.782 12.099s-9.404 7.406-1.796 16.336-1.797 16.337-1.797 16.337h-2s9.404-7.406 1.797-16.337S46.782 12.1 46.782 12.1z"/><path fill="none" stroke="#ea5a47" stroke-linecap="round" stroke-miterlimit="10" stroke-width="2" d="M35.204 44.772S44.607 37.365 37 28.435 38.796 12.1 38.796 12.1"/><g fill="none" stroke="#000" stroke-linecap="round" stroke-linejoin="round" stroke-width="2"><path d="M20.201 31.772c-6.445 2.662-8.29 6.141-8.29 11.195 0 8.156 11.008 14.768 24.588 14.768s24.588-6.612 24.588-14.768c0-4.928-2.572-8.288-8.749-10.97 7.012 2.99 11.575 7.852 11.575 13.344C63.913 54.431 51.416 61.8 36 61.8S8.087 54.431 8.087 45.341c0-5.631 4.797-10.602 12.114-13.57zM29.374 12.387s-9.403 7.407-1.796 16.337M25.781 45.06s9.404-7.406 1.797-16.336M46.219 12.099s-9.404 7.406-1.797 16.336M42.626 44.772s9.403-7.406 1.796-16.337M37.796 12.099S28.393 19.505 36 28.435M34.204 44.772S43.607 37.365 36 28.435"/></g></svg><svg viewBox="0 0 72 72" id="26F2" xmlns="http://www.w3.org/2000/svg"><path fill="#d0cfce" d="M35.955 41.28v-8.545l-5.02-.621 1.793 4.973.717 4.348 2.51-.155z"/><path fill="#9b9b9a" d="M35.955 41.7v-8.544l5.02-.621-1.793 4.972-.717 4.349-2.51-.156z"/><path fill="#d0cfce" d="M36 42.239l-.045 17.777H30.98s-.377-7.726-1.69-10.945-9.6-9.297-9.6-9.297 11.731 2.47 14.02 2.467"/><path fill="#d0cfce" d="M36 60.622v5.551H5.742V54.228s19.259 6.74 23.892 6.253 6.366.141 6.366.141z"/><path fill="#9b9b9a" d="M36 60.622v5.551h30.257V54.228S47 60.968 42.367 60.48 36 60.622 36 60.622z"/><path fill="none" stroke="#61b2e4" stroke-linecap="round" stroke-linejoin="round" stroke-width="2" d="M53.578 35.819v-4.177M53.046 35.82v-5.717a5.662 5.662 0 0110.735-.087v20.917h-.717v-19.29"/><path fill="#9b9b9a" d="M35.955 42.239v17.777h5.02s.377-7.726 1.69-10.945 9.6-9.297 9.6-9.297-11.731 2.47-14.02 2.467"/><path fill="none" stroke="#61b2e4" stroke-linecap="round" stroke-linejoin="round" stroke-width="2" d="M48.014 16.12a4.51 4.51 0 00-4.743-4.233 4.51 4.51 0 00-4.743 4.232v10.608h-.625V14.689a5.662 5.662 0 0110.735-.087v20.917h-.717v-19.29l.093.023v19.29"/><path fill="none" stroke="#92d3f5" stroke-linecap="round" stroke-linejoin="round" stroke-width="2" d="M18.638 35.82v-5.717a5.393 5.393 0 00-5.274-3.902 5.407 5.407 0 00-5.46 3.815v20.917h.717v-19.29M33.157 16.251v10.476h.624V14.689a5.393 5.393 0 00-5.274-3.902 5.407 5.407 0 00-5.46 3.815v20.917h.717"/><g fill="none" stroke="#000" stroke-linecap="round" stroke-linejoin="round" stroke-width="2"><path d="M67.015 66.713H4.985V53.32A75.625 75.625 0 0036 60.016a75.504 75.504 0 0031.015-6.696zM16 38.867a58.01 58.01 0 0020.41 3.367A57.997 57.997 0 0056 38.484M28.57 31.474a21.163 21.163 0 0014.617-.14M16 38.867a22.456 22.456 0 0115.025 20.408M56 38.484a22.456 22.456 0 00-15.025 20.408"/><path d="M28.57 31.498a13.081 13.081 0 012.643 3.383 13.33 13.33 0 011.585 6.554M43.09 31.498a13.084 13.084 0 00-2.643 3.383 13.332 13.332 0 00-1.585 6.554M54.232 35.82v-3.673a4.088 4.088 0 018.176 0V50.91M39.182 26.727v-9.971a4.088 4.088 0 018.176 0v18.763M17.453 35.82v-3.673a4.088 4.088 0 10-8.177 0V50.91M32.503 26.727v-9.971a4.088 4.088 0 10-8.177 0v18.763"/></g></svg><svg viewBox="0 0 72 72" id="26FA" xmlns="http://www.w3.org/2000/svg"><g stroke-linecap="round" stroke-linejoin="round" stroke-miterlimit="10" stroke-width="2"><path fill="#FCEA2B" d="M36 18L14.54 55h42.92z"/><path fill="#F1B31C" d="M36 18L14.54 55H36z"/><path fill="#8967AA" d="M36 46.12c-1.48 0-4.44 1.48-7.4 1.48a7.4 7.4 0 00-7.4 7.4H36v-8.88z"/></g><g fill="none" stroke="#000" stroke-linecap="round" stroke-linejoin="round" stroke-miterlimit="10" stroke-width="2"><path d="M36 18L14.54 55h42.92z"/><path d="M36 18L14.54 55H36zM36 55V18"/><path d="M36 46.12c-1.48 0-4.44 1.48-7.4 1.48a7.4 7.4 0 00-7.4 7.4H36v-8.88zM36 55V18"/></g></svg></svg>