<?xml version="1.0" encoding="utf-8"?><svg viewBox="0 0 72 72" xmlns="http://www.w3.org/2000/svg" xmlns:xlink="http://www.w3.org/1999/xlink"><style>:root>svg{display:none}:root>svg:target{display:block}</style><svg viewBox="0 0 72 72" id="1F30D" xmlns="http://www.w3.org/2000/svg"><g stroke-linecap="round" stroke-linejoin="round" stroke-miterlimit="10" stroke-width="2"><circle cx="36" cy="36" r="28" fill="#92D3F5"/><path fill="#B1CC33" d="M49.44 11.43c-.539.906-1.645 2.143-2.44 2.57-1.245.67-1.904.267-3 1-1.269.848-1.21 1.938-2 2-.802.063-.688-1.993-1-3-.452-1.458-.23-1.527-1-2-1.083-.666-3.212-1.05-5 0-.71.417-.75.682-3 4-1.71 2.522-2.188 3.11-2 4 .199.942.043 1.747 1 2 1.187.313 1.366-.272 2-1 1.328-1.525 2.358-3.783 3-4 .571-.193 2.066 1.35 2 3-.046 1.165-.852 1.922-2 3-.742.697-2.875 1.5-6 2-1.719.275-1.408.852-2.063 1.594-.842.955-.461 2.169-1.28 3.312-1.026 1.43-3.473 1.792-3.657 2.72-.157.79 1.96 1.358 3 1.374.85.013 1.064-.772 3-2 .74-.47 1.75-1.281 2.688-1.25.504.017 1.828.285 2.343.719.594.5-.156 1.844-.406 3.156s-2.897 1.865-3.854 2.02c-1.574.258-4.144-.522-5.604.938-1 1-1.116 1.766-1.167 3.417-.013.417.937 3.032 2 4 1.144 1.042 2.294-.836 4 0 1.746.855 2.493 2.729 3 4 .508 1.273.176 1.168 1 5 .415 1.927.32 1.12 1 4 .563 2.383.589 2.768 1 3 1.173.663 3.9-.816 5-3 .69-1.368.211-1.962 1-5 .393-1.512.59-2.268 1-3 1.733-3.086 4.883-3.126 5-5 .08-1.282-1.357-1.851-1-3 .342-1.1 1.81-1.06 2-2 .258-1.275-2.25-2.316-2-3 .282-.775 4.07-1.01 6 1 .64.666.498.978 2 4 1.384 2.785 1.764 3.043 2 3 .429-.078.322-1.135 1-3 .324-.892 1.093-3.006 2-3 .625.004.739 1.01 2 2 .71.558 1.79.88 2.347 1.038.428-1.945.653-3.965.653-6.038 0-10.632-5.925-19.88-14.653-24.62"/></g><g fill="none" stroke="#000" stroke-linecap="round" stroke-linejoin="round" stroke-miterlimit="10" stroke-width="2"><circle cx="36" cy="36" r="28"/><path d="M49.44 11.43c-.539.906-1.645 2.143-2.44 2.57-1.245.67-1.904.267-3 1-1.269.848-1.21 1.938-2 2-.802.063-.688-1.993-1-3-.452-1.458-.23-1.527-1-2-1.083-.666-3.212-1.05-5 0-.71.417-.75.682-3 4-1.71 2.522-2.188 3.11-2 4 .199.942.043 1.747 1 2 1.187.313 1.366-.272 2-1 1.328-1.525 2.358-3.783 3-4 .571-.193 2.066 1.35 2 3-.046 1.165-.852 1.922-2 3-.742.697-2.875 1.5-6 2-1.719.275-1.408.852-2.063 1.594-.842.955-.461 2.169-1.28 3.312-1.026 1.43-3.473 1.792-3.657 2.72-.157.79 1.96 1.358 3 1.374.85.013 1.064-.772 3-2 .74-.47 1.75-1.281 2.688-1.25.504.017 1.828.285 2.343.719.594.5-.156 1.844-.406 3.156s-2.897 1.865-3.854 2.02c-1.574.258-4.144-.522-5.604.938-1 1-1.116 1.766-1.167 3.417-.013.417.937 3.032 2 4 1.144 1.042 2.294-.836 4 0 1.746.855 2.493 2.729 3 4 .508 1.273.176 1.168 1 5 .415 1.927.32 1.12 1 4 .563 2.383.589 2.768 1 3 1.173.663 3.9-.816 5-3 .69-1.368.211-1.962 1-5 .393-1.512.59-2.268 1-3 1.733-3.086 4.883-3.126 5-5 .08-1.282-1.357-1.851-1-3 .342-1.1 1.81-1.06 2-2 .258-1.275-2.25-2.316-2-3 .282-.775 4.07-1.01 6 1 .64.666.498.978 2 4 1.384 2.785 1.764 3.043 2 3 .429-.078.322-1.135 1-3 .324-.892 1.093-3.006 2-3 .625.004.739 1.01 2 2 .71.558 1.79.88 2.347 1.038.428-1.945.653-3.965.653-6.038 0-10.632-5.925-19.88-14.653-24.62"/></g></svg><svg viewBox="0 0 72 72" id="1F30E" xmlns="http://www.w3.org/2000/svg"><g stroke-linecap="round" stroke-linejoin="round" stroke-miterlimit="10" stroke-width="2"><circle cx="36" cy="36" r="28" fill="#92D3F5"/><path fill="#B1CC33" d="M41.688 29.197c-.057.794-2.27 3.522-2.838 3.916-1.183.821-1.644.445-2.675 1.255-.653.514-1.469 1.064-2.468 1.256-.554.106-.31-.417-1.554.383-.694.445-.078.925 0 1.362.104.588.183.234 1.362 1.362.616.59.67 1.115 1.362 1.362.432.155.746.07 1.362 0 1.291-.146.717 1.126 1.362 1.362 1.484.544 2.032.317 3.399.545.552.092 1.312-.18 2 1 .296.508 0 2 .05 2.542.084.916-.506 1.729-1.362 2.724-.692.806-.82.681-1.362 1.362-.724.91-.53 1.177-1.362 2.725-.843 1.566-1.306 1.786-1.362 2.724-.024.392-.001 1.32 0 1.362.023.947.076 1.072 0 1.362-.178.677-1.553 1.27-2.072 1.192-1.021-.153-1.003-3.682-1.05-4.228-.096-1.104.356-1.72.397-2.412.142-2.393.541-3.135 0-4.087-.345-.607-.527-.34-1.362-1.362-.471-.577-1.185-1.473-1.362-2.724-.111-.788.121-.793 0-1.362-.225-1.056-1.101-1.397-2.724-2.724-1.001-.82-1.89-1.545-2.724-2.725-.434-.613-1.048-1.48-1.363-2.724-.413-1.638.203-1.905 0-4.086a9.624 9.624 0 0 0-1.362-4.087c-.474-.766-.808-1.288-1.362-1.362-1.055-.14-1.62 1.52-2.724 1.362-.66-.094-1.169-.788-1.362-1.362-.052-.153-.24-.74 0-1.362.133-.345.543-.684 1.362-1.362.836-.693 1.256-1.045 1.362-1.362.2-.598-.16-.81 0-1.362.274-.944 1.723-1.694 2.724-1.362.576.19.451.555 1.362 1.362.443.391 1.399 1.126 2.725 1.362.67.12 1.004.179 1.362 0 .88-.441.46-1.609 1.362-2.725.83-1.026 2.179-1.265 2.724-1.362 1.349-.239 1.533.274 2.725 0 1.28-.293 1.243-.925 2.724-1.362.648-.19 1.79-.528 2.724 0 .84.475.729 1.21 1.362 1.362.884.214 1.317-1.164 2.725-1.362 1.074-.15 2.352.438 2.724 1.362.185.46.098.882 0 1.362-.297 1.452-1.084 1.54-1.362 2.725-.303 1.288.346 1.6 0 2.724-.227.738-.681.51-1.405 1.107-.331.272-.411.71-1.32 1.617-.454.454-.925.892-1.362 1.362-.995 1.073-1.154 1.154-1.362 1.363"/></g><g fill="none" stroke="#000" stroke-linecap="round" stroke-linejoin="round" stroke-miterlimit="10" stroke-width="2"><circle cx="36" cy="36" r="28"/><path d="M41.688 29.197c-.057.794-2.27 3.522-2.838 3.916-1.183.821-1.644.445-2.675 1.255-.653.514-1.469 1.064-2.468 1.256-.554.106-.31-.417-1.554.383-.694.445-.078.925 0 1.362.104.588.183.234 1.362 1.362.616.59.67 1.115 1.362 1.362.432.155.746.07 1.362 0 1.291-.146.717 1.126 1.362 1.362 1.484.544 2.032.317 3.399.545.552.092 1.312-.18 2 1 .296.508 0 2 .05 2.542.084.916-.506 1.729-1.362 2.724-.692.806-.82.681-1.362 1.362-.724.91-.53 1.177-1.362 2.725-.843 1.566-1.306 1.786-1.362 2.724-.024.392-.001 1.32 0 1.362.023.947.076 1.072 0 1.362-.178.677-1.553 1.27-2.072 1.192-1.021-.153-1.003-3.682-1.05-4.228-.096-1.104.356-1.72.397-2.412.142-2.393.541-3.135 0-4.087-.345-.607-.527-.34-1.362-1.362-.471-.577-1.185-1.473-1.362-2.724-.111-.788.121-.793 0-1.362-.225-1.056-1.101-1.397-2.724-2.724-1.001-.82-1.89-1.545-2.724-2.725-.434-.613-1.048-1.48-1.363-2.724-.413-1.638.203-1.905 0-4.086a9.624 9.624 0 0 0-1.362-4.087c-.474-.766-.808-1.288-1.362-1.362-1.055-.14-1.62 1.52-2.724 1.362-.66-.094-1.169-.788-1.362-1.362-.052-.153-.24-.74 0-1.362.133-.345.543-.684 1.362-1.362.836-.693 1.256-1.045 1.362-1.362.2-.598-.16-.81 0-1.362.274-.944 1.723-1.694 2.724-1.362.576.19.451.555 1.362 1.362.443.391 1.399 1.126 2.725 1.362.67.12 1.004.179 1.362 0 .88-.441.46-1.609 1.362-2.725.83-1.026 2.179-1.265 2.724-1.362 1.349-.239 1.533.274 2.725 0 1.28-.293 1.243-.925 2.724-1.362.648-.19 1.79-.528 2.724 0 .84.475.729 1.21 1.362 1.362.884.214 1.317-1.164 2.725-1.362 1.074-.15 2.352.438 2.724 1.362.185.46.098.882 0 1.362-.297 1.452-1.084 1.54-1.362 2.725-.303 1.288.346 1.6 0 2.724-.227.738-.681.51-1.405 1.107-.331.272-.411.71-1.32 1.617-.454.454-.925.892-1.362 1.362-.995 1.073-1.154 1.154-1.362 1.363"/></g></svg><svg viewBox="0 0 72 72" id="1F30F" xmlns="http://www.w3.org/2000/svg"><circle cx="36" cy="36" r="28" fill="#92D3F5"/><path fill="#B1CC33" d="M9 34c.536.13 2.303.396 3 1 .88.763-.079 1.435 1 3 .875 1.27 1.438 3.086 2 3 .743-.113.556-2.66 2-4 .465-.432 1.227-2.14 2-2 1.492.27 1.22 3.371 3 4 1.036.366 2.334.741 3 0 .852-.948.337-1.715 1-3 .828-1.604 2.075-1.274 4-3 2.01-1.802-.735-2.714 1-4 2.099-1.555 4.522-.469 6-2 1.379-1.428-.45-2.799 1-4 .638-.529 3.077-.494 6-1 1.283-.222 3.239-.56 5-1 1.418-.354 2.064-1.265 2-2-.063-.722-.683-.978-1-1-2.017-.142-2.27.19-4 0-1.99-.22-1.95-.693-4-1-.945-.142-1.086-.061-5 0-2.265.035-3.41.052-4 0a24.017 24.017 0 0 1-5-1c-2.032-.656-2-.977-3-1-1.51-.035-2.109.687-4 1a9.34 9.34 0 0 1-3 0l-1.004-.562-2.83 3.033-2.26 3.26-1.547 3.005L9.16 28l-.848 3.811-.231 2.06L9 34z"/><path fill="#B1CC33" d="M32 47a7.246 7.246 0 0 0-3 1c-.703.43-1.555.952-2 2-.465 1.095-.214 2.124 0 3 .247 1.012.429 1.755 1 2 .728.313 1.233.45 3 0 .771-.196 1.94-.494 3 0 .995.464.816.124 2 1 .418.31 1.539 1.139 3 1 1.272-.12 2.404-.937 3-2 .745-1.327.588-2.921 0-4-.834-1.53-2.09-1.205-3-3-.412-.814-.363-1.294-1-2-.652-.722-1.652-1.27-2-1-.401.312.455 1.413 0 2-.486.628-1.77-.238-4 0zm-5-6c-1.013.543-1.956 1.547-2 2-.025.258.316.509 1 1 1.059.76 1.088 1.808 1.5 1.667.555-.19 1.346-1.79 2.043-2.834.814-1.219 3.077-1.197 3.29-2.083.197-.818-2.22-2.676-2.833-2.75-.86-.103-.998 1.927-3 3zM9 34c.536.13 2.303.396 3 1 .88.763-.079 1.435 1 3 .875 1.27 1.438 3.086 2 3 .743-.113.556-2.66 2-4 .465-.432 1.227-2.14 2-2 1.492.27 1.22 3.371 3 4 1.036.366 2.334.741 3 0 .852-.948.337-1.715 1-3 .828-1.604 2.075-1.274 4-3 2.01-1.802-.735-2.714 1-4 2.099-1.555 4.522-.469 6-2 1.379-1.428-.45-2.799 1-4 .638-.529 3.077-.494 6-1 1.283-.222 2.239.44 4 0 1.418-.354 4.064-2.265 4-3-.063-.722-1.683-.978-2-1-2.017-.142-2.27.19-4 0-1.99-.22-1.95-.693-4-1-.945-.142-1.086-.061-5 0-2.265.035-3.41.052-4 0a24.017 24.017 0 0 1-5-1c-2.032-.656-2-.977-3-1-1.51-.035-2.109.687-4 1a9.34 9.34 0 0 1-3 0"/><g fill="none" stroke="#000" stroke-linecap="round" stroke-linejoin="round" stroke-miterlimit="10" stroke-width="2"><circle cx="36" cy="36" r="28"/><path d="M32 47a7.246 7.246 0 0 0-3 1c-.703.43-1.555.952-2 2-.465 1.095-.214 2.124 0 3 .247 1.012.429 1.755 1 2 .728.313 1.233.45 3 0 .771-.196 1.94-.494 3 0 .995.464.816.124 2 1 .418.31 1.539 1.139 3 1 1.272-.12 2.404-.937 3-2 .745-1.327.588-2.921 0-4-.834-1.53-2.09-1.205-3-3-.412-.814-.363-1.294-1-2-.652-.722-1.652-1.27-2-1-.401.312.455 1.413 0 2-.486.628-1.77-.238-4 0zm-5-6c-1.013.543-1.956 1.547-2 2-.025.258.316.509 1 1 1.059.76 1.088 1.808 1.5 1.667.555-.19 1.346-1.79 2.043-2.834.814-1.219 3.077-1.197 3.29-2.083.197-.818-2.22-2.676-2.833-2.75-.86-.103-.998 1.927-3 3zM9 34c.536.13 2.303.396 3 1 .88.763-.079 1.435 1 3 .875 1.27 1.438 3.086 2 3 .743-.113.556-2.66 2-4 .465-.432 1.227-2.14 2-2 1.492.27 1.22 3.371 3 4 1.036.366 2.334.741 3 0 .852-.948.337-1.715 1-3 .828-1.604 2.075-1.274 4-3 2.01-1.802-.735-2.714 1-4 2.099-1.555 4.522-.469 6-2 1.379-1.428-.45-2.799 1-4 .638-.529 3.077-.494 6-1 1.283-.222 2.239.44 4 0 1.418-.354 4.064-2.265 4-3-.063-.722-1.683-.978-2-1-2.017-.142-2.27.19-4 0-1.99-.22-1.95-.693-4-1-.945-.142-1.086-.061-5 0-2.265.035-3.41.052-4 0a24.017 24.017 0 0 1-5-1c-2.032-.656-2-.977-3-1-1.51-.035-2.109.687-4 1a9.34 9.34 0 0 1-3 0"/><circle cx="36" cy="36" r="28"/></g></svg><svg viewBox="0 0 72 72" id="1F310" xmlns="http://www.w3.org/2000/svg"><circle cx="36" cy="36" r="28" fill="#92D3F5"/><g fill="none" stroke="#000" stroke-linecap="round" stroke-linejoin="round" stroke-miterlimit="10" stroke-width="2"><circle cx="36" cy="36" r="28"/><path d="M36 8v56c-8.56 0-15.5-12.536-15.5-28S27.44 8 36 8c8.56 0 15.5 12.536 15.5 28S44.56 64 36 64m28-28H8m52-14H12m48 28H12"/></g></svg><svg viewBox="0 0 72 72" id="1F5FA" xmlns="http://www.w3.org/2000/svg"><g stroke-linecap="round" stroke-linejoin="round" stroke-miterlimit="10" stroke-width="2"><path fill="#92D3F5" d="M5 17h62v38H5z"/><path fill="#B1CC33" d="M28.5 30.5c-.042.583-1.667 2.586-2.083 2.875-.869.603-1.207.327-1.964.922-.48.377-1.078.78-1.812.922-.407.078-.227-.306-1.141.281-.51.327-.057.679 0 1 .077.432.134.172 1 1 .452.433.492.818 1 1 .317.114.548.051 1 0 .948-.108.526.827 1 1 1.09.399.997 1.832 2 2 .405.068.55-.144 1 0 .411.132.883.5 1 1 .154.657-.372 1.27-1 2-.508.591-.602.5-1 1-.531.668-.389.864-1 2-.618 1.15-.958 1.311-1 2-.017.288 0 .97 0 1 .018.695.056.787 0 1-.13.497-1.14.932-1.52.875-.75-.113-.737-2.703-.772-3.104-.07-.81.262-1.263.292-1.771.104-1.757.397-2.302 0-3-.253-.446-.387-.25-1-1-.346-.424-.87-1.082-1-2-.082-.579.089-.582 0-1-.165-.775-.808-1.026-2-2-.735-.601-1.387-1.134-2-2-.319-.45-.77-1.087-1-2-.304-1.202.149-1.399 0-3a7.064 7.064 0 0 0-1-3c-.348-.562-.594-.946-1-1-.774-.103-1.19 1.115-2 1-.484-.069-.858-.579-1-1-.038-.113-.176-.544 0-1 .098-.253.399-.502 1-1 .614-.508.922-.767 1-1 .146-.439-.117-.595 0-1 .2-.693 1.265-1.244 2-1 .422.14.331.408 1 1 .325.287 1.026.827 2 1 .492.088.738.131 1 0 .647-.324.338-1.18 1-2 .61-.753 1.6-.929 2-1 .99-.175 1.125.2 2 0 .94-.216.913-.68 2-1 .476-.14 1.315-.388 2 0 .617.349.535.888 1 1 .649.157.967-.855 2-1 .789-.11 1.727.321 2 1 .136.337.072.647 0 1-.218 1.065-.795 1.13-1 2-.222.946.254 1.175 0 2-.167.542-.5.375-1.031.813-.243.2-.302.52-.969 1.187-.333.333-.68.654-1 1-.73.788-.847.847-1 1m6 5c-.233-.296-1.228-1.826-1-2 .282-.215.78.208 1 0 .182-.172-.117-.504 0-1 .112-.478.556-.877 1-1 .528-.146.897.145 1 0 .198-.279-1.238-1.262-1-2 .147-.458.803-.402 1-1 .132-.402-.127-.54 0-1 .129-.465.537-.845 1-1 .132-.044.572-.192 1 0 .542.243.458.757 1 1 .305.137.695.137 1 0 .541-.242.483-.767 1-1 .343-.154.513.01 1 0 1.117-.024 1.94-.931 2-1 .503-.571.248-.8 1-2 .401-.641.665-.88 1-1 .095-.034.556-.199 1 0 .54.241.485.764 1 1 .267.122.44.055 1 0 .071-.007.714-.005 2 0 1.905.007 1.82.044 2 0 1.01-.247.991-.753 2-1 .698-.17.683.077 2 0 1.198-.07 1.775-.308 2 0 .086.117.021.178 0 1-.009.335.27.65.276 1.042.011.891.043.835-.005.958-.208.53-.362.659-.604 1.188-.09.197-.12.274-.084 1.02.053 1.097.356.848.417 1.792.048.738.125.886 0 1-.336.305-2.173-.264-2.583-1.125-.431-.905-.122-1.673-.417-1.875-.404-.278-2.233 1.126-2.5 2.016-.053.176-.284.452.578 1.234.872.79 1.249 1.084 1.328 1.156.485.438 1.008 1.028.594 1.594-.557.76-1.615.316-2 1-.345.613.386 1.185 0 2-.111.235-.407.49-1 1-.66.568-.904.65-1 1-.128.467.185.783 0 1-.237.279-.967.013-1 0-1.29-.484-1.342-1.97-2-2-.789-.036-1.221 2.078-2 2-.175-.018-.45-.345-1-1-.53-.63-.642-.862-1-1-.458-.177-.891-.037-1 0-.18.061-.503.222-1 1-.707 1.108-.438 1.395-1 2-.476.513-.858.509-1 1-.03.104-.02.403 0 1 .02.614.03.922 0 1-.208.531-.762.47-1 1-.163.363.026.551 0 1-.06 1.034-1.19 2.148-2 2-.322-.059-.548-.373-1-1-.4-.555-.828-1.15-1-2-.184-.915.154-1.01 0-2-.078-.502-.253-1.632-1-2-.716-.353-1.245.348-2 0-.702-.324-1.023-1.29-1-2 .025-.76.444-1.293 1-2 .436-.554.654-.831 1-1m20 9c-1.18.58-1.744.453-2 1-.199.424-.04.886 0 1 .243.704.925.972 1 1 .864.324 1.339-.354 2 0 .504.27.426.771 1 1 .316.126.597.076 1 0 .693-.131 1.583-.3 2-1 .3-.501.198-1.01 0-2-.153-.768-.355-1.778-1-2-.126-.043-.138-.012-1 0-.731.01-.806-.012-1 0-.765.046-.904.462-2 1z"/></g><g fill="none" stroke="#000" stroke-linecap="round" stroke-linejoin="round" stroke-miterlimit="10" stroke-width="2"><path d="M5 17h62v38H5z"/><path d="M28.5 30.5c-.042.583-1.667 2.586-2.083 2.875-.869.603-1.207.327-1.964.922-.48.377-1.078.78-1.812.922-.407.078-.227-.306-1.141.281-.51.327-.057.679 0 1 .077.432.134.172 1 1 .452.433.492.818 1 1 .317.114.548.051 1 0 .948-.108.526.827 1 1 1.09.399.997 1.832 2 2 .405.068.55-.144 1 0 .411.132.883.5 1 1 .154.657-.372 1.27-1 2-.508.591-.602.5-1 1-.531.668-.389.864-1 2-.618 1.15-.958 1.311-1 2-.017.288 0 .97 0 1 .018.695.056.787 0 1-.13.497-1.14.932-1.52.875-.75-.113-.737-2.703-.772-3.104-.07-.81.262-1.263.292-1.771.104-1.757.397-2.302 0-3-.253-.446-.387-.25-1-1-.346-.424-.87-1.082-1-2-.082-.579.089-.582 0-1-.165-.775-.808-1.026-2-2-.735-.601-1.387-1.134-2-2-.319-.45-.77-1.087-1-2-.304-1.202.149-1.399 0-3a7.064 7.064 0 0 0-1-3c-.348-.562-.594-.946-1-1-.774-.103-1.19 1.115-2 1-.484-.069-.858-.579-1-1-.038-.113-.176-.544 0-1 .098-.253.399-.502 1-1 .614-.508.922-.767 1-1 .146-.439-.117-.595 0-1 .2-.693 1.265-1.244 2-1 .422.14.331.408 1 1 .325.287 1.026.827 2 1 .492.088.738.131 1 0 .647-.324.338-1.18 1-2 .61-.753 1.6-.929 2-1 .99-.175 1.125.2 2 0 .94-.216.913-.68 2-1 .476-.14 1.315-.388 2 0 .617.349.535.888 1 1 .649.157.967-.855 2-1 .789-.11 1.727.321 2 1 .136.337.072.647 0 1-.218 1.065-.795 1.13-1 2-.222.946.254 1.175 0 2-.167.542-.5.375-1.031.813-.243.2-.302.52-.969 1.187-.333.333-.68.654-1 1-.73.788-.847.847-1 1m6 5c-.233-.296-1.228-1.826-1-2 .282-.215.78.208 1 0 .182-.172-.117-.504 0-1 .112-.478.556-.877 1-1 .528-.146.897.145 1 0 .198-.279-1.238-1.262-1-2 .147-.458.803-.402 1-1 .132-.402-.127-.54 0-1 .129-.465.537-.845 1-1 .132-.044.572-.192 1 0 .542.243.458.757 1 1 .305.137.695.137 1 0 .541-.242.483-.767 1-1 .343-.154.513.01 1 0 1.117-.024 1.94-.931 2-1 .503-.571.248-.8 1-2 .401-.641.665-.88 1-1 .095-.034.556-.199 1 0 .54.241.485.764 1 1 .267.122.44.055 1 0 .071-.007.714-.005 2 0 1.905.007 1.82.044 2 0 1.01-.247.991-.753 2-1 .698-.17.683.077 2 0 1.198-.07 1.775-.308 2 0 .086.117.021.178 0 1-.009.335.27.65.276 1.042.011.891.043.835-.005.958-.208.53-.362.659-.604 1.188-.09.197-.12.274-.084 1.02.053 1.097.356.848.417 1.792.048.738.125.886 0 1-.336.305-2.173-.264-2.583-1.125-.431-.905-.122-1.673-.417-1.875-.404-.278-2.233 1.126-2.5 2.016-.053.176-.284.452.578 1.234.872.79 1.249 1.084 1.328 1.156.485.438 1.008 1.028.594 1.594-.557.76-1.615.316-2 1-.345.613.386 1.185 0 2-.111.235-.407.49-1 1-.66.568-.904.65-1 1-.128.467.185.783 0 1-.237.279-.967.013-1 0-1.29-.484-1.342-1.97-2-2-.789-.036-1.221 2.078-2 2-.175-.018-.45-.345-1-1-.53-.63-.642-.862-1-1-.458-.177-.891-.037-1 0-.18.061-.503.222-1 1-.707 1.108-.438 1.395-1 2-.476.513-.858.509-1 1-.03.104-.02.403 0 1 .02.614.03.922 0 1-.208.531-.762.47-1 1-.163.363.026.551 0 1-.06 1.034-1.19 2.148-2 2-.322-.059-.548-.373-1-1-.4-.555-.828-1.15-1-2-.184-.915.154-1.01 0-2-.078-.502-.253-1.632-1-2-.716-.353-1.245.348-2 0-.702-.324-1.023-1.29-1-2 .025-.76.444-1.293 1-2 .436-.554.654-.831 1-1m20 9c-1.18.58-1.744.453-2 1-.199.424-.04.886 0 1 .243.704.925.972 1 1 .864.324 1.339-.354 2 0 .504.27.426.771 1 1 .316.126.597.076 1 0 .693-.131 1.583-.3 2-1 .3-.501.198-1.01 0-2-.153-.768-.355-1.778-1-2-.126-.043-.138-.012-1 0-.731.01-.806-.012-1 0-.765.046-.904.462-2 1z"/></g></svg><svg viewBox="0 0 72 72" id="1F5FE" xmlns="http://www.w3.org/2000/svg"><path fill="#92d3f5" d="M11.011 11H61v49.767a.233.233 0 0 1-.233.233H11.233a.233.233 0 0 1-.233-.233V11.011a.011.011 0 0 1 .011-.011z"/><path fill="#d22f27" d="M54.462 47.429v5.274h2.067l-2.067-5.274z"/><path fill="#d0cfce" d="M54.462 57.485v-4.782h2.067l-2.067 4.782z"/><path fill="#ea5a47" d="m52.394 52.703 2.068-5.274v5.274"/><path fill="#fff" d="m52.394 52.703 2.068 4.782v-4.782"/><path fill="#b1cc33" d="M25.06 50.701c.238.475.674.422.85.85.169.41-.087.811 0 .85.167.076.703-1.573 1.7-1.7.34-.043.474.124.85 0a1.384 1.384 0 0 0 .85-.85c.054-.155.205-.587 0-.85-.308-.396-1.236-.173-1.7 0-.891.334-1.004.837-1.7.85-.418.008-.673-.168-.85 0-.18.172-.14.572 0 .85z"/><path fill="#b1cc33" d="M22.51 48.151c-.074.255-.193.66 0 .85.295.292 1.095-.148 2.55-.85a20.166 20.166 0 0 1 4.25-1.7c.096-.022 2.324-.525 2.55 0 .15.348-.758.728-.85 1.7a1.706 1.706 0 0 0 .85 1.7 1.445 1.445 0 0 0 .85 0 4.048 4.048 0 0 0 1.7-.85c.585-.41.876-.62.85-.85-.037-.323-.601-.317-.85-.85a.905.905 0 0 1 0-.85c.285-.4 1.15-.347 1.7 0 .527.333.445.731.85.85.664.196 1.533-.682 1.7-.85.485-.49.582-.866.85-.85.39.024.48.84.85.85.316.009.341-.582.85-.85.611-.321 1.122.243 1.7 0 .344-.144.489-.48.85-1.7a18.23 18.23 0 0 0 .85-3.4c.064-1.451-.333-1.663 0-2.55.278-.738.659-.87.85-1.7.176-.762-.098-.86 0-1.7.16-1.376.948-1.571.85-2.55-.053-.525-.275-.423-.85-1.7-.518-1.15-.508-1.613-.85-1.7-.567-.143-1.063 1.005-1.7.85-.48-.116-.497-.838-.85-.85-.392-.012-.893.86-.85 1.7.04.79.537 1.112.85 1.7 1.107 2.079-1.23 5.303-1.7 5.95-1.35 1.862-2.838 2.547-3.4 2.55-.614.004-.85 0-.85 0-.715-.011-.736-.04-.85 0-.411.147-.45.646-.85 1.7a4.916 4.916 0 0 1-.85 1.7 3.254 3.254 0 0 1-1.7.85c-1.803.442-2.376-.25-4.25 0a7.42 7.42 0 0 0-2.55.85 4.69 4.69 0 0 0-2.55 2.55zm22.1-22.101c-.361.288-1.622 1.287-2.55.85-.83-.39-.989-1.737-.85-2.55a3.993 3.993 0 0 1 .85-1.7c.337-.462.514-.705.85-.85.749-.32 1.301.274 1.7 0 .314-.214.239-.765 0-2.55-.241-1.801-.354-2.716 0-3.4.142-.273.432-.83.85-.85.917-.04.902 2.577 2.55 3.4 1.642.82 3.635-.787 4.25 0 .51.653-.503 2.21 0 2.55.269.182.687-.174.85 0 .207.223-.136 1.157-.85 1.7-.97.74-1.818.146-2.55.85-.662.638-.314 1.455-.85 1.7-.723.332-1.508-1.08-2.55-.85-.697.156-.632.854-1.7 1.7zM16.985 51.127a1.41 1.41 0 0 0 .85 1.7c.362.109.513-.114.85 0a1.688 1.688 0 0 1 .85 1.7c-.12 1.137-1.403 1.456-1.275 2.125.097.513.968.927 1.7.85 1.661-.175 2.401-2.862 2.55-3.4.25-.91.515-1.87 0-2.55-.43-.567-1.195-.67-2.55-.85a6.798 6.798 0 0 0-1.7 0c-.721.089-1.106.136-1.275.425z"/><g fill="none" stroke="#000"><path stroke-linejoin="round" stroke-width="2" d="M10.5 10.5h51v51h-51z"/><path stroke-miterlimit="10" d="M25.06 50.701c.238.475.674.422.85.85.169.41-.087.811 0 .85.167.076.703-1.573 1.7-1.7.34-.043.474.124.85 0a1.384 1.384 0 0 0 .85-.85c.054-.155.205-.587 0-.85-.308-.396-1.236-.173-1.7 0-.891.334-1.004.837-1.7.85-.418.008-.673-.168-.85 0-.18.172-.14.572 0 .85z"/><path stroke-miterlimit="10" d="M22.51 48.151c-.074.255-.193.66 0 .85.295.292 1.095-.148 2.55-.85a20.166 20.166 0 0 1 4.25-1.7c.096-.022 2.324-.525 2.55 0 .15.348-.758.728-.85 1.7a1.706 1.706 0 0 0 .85 1.7 1.445 1.445 0 0 0 .85 0 4.048 4.048 0 0 0 1.7-.85c.585-.41.876-.62.85-.85-.037-.323-.601-.317-.85-.85a.905.905 0 0 1 0-.85c.285-.4 1.15-.347 1.7 0 .527.333.445.731.85.85.664.196 1.533-.682 1.7-.85.485-.49.582-.866.85-.85.39.024.48.84.85.85.316.009.341-.582.85-.85.611-.321 1.122.243 1.7 0 .344-.144.489-.48.85-1.7a18.23 18.23 0 0 0 .85-3.4c.064-1.451-.333-1.663 0-2.55.278-.738.659-.87.85-1.7.176-.762-.098-.86 0-1.7.16-1.376.948-1.571.85-2.55-.053-.525-.275-.423-.85-1.7-.518-1.15-.508-1.613-.85-1.7-.567-.143-1.063 1.005-1.7.85-.48-.116-.497-.838-.85-.85-.392-.012-.893.86-.85 1.7.04.79.537 1.112.85 1.7 1.107 2.079-1.23 5.303-1.7 5.95-1.35 1.862-2.838 2.547-3.4 2.55-.614.004-.85 0-.85 0-.715-.011-.736-.04-.85 0-.411.147-.45.646-.85 1.7a4.916 4.916 0 0 1-.85 1.7 3.254 3.254 0 0 1-1.7.85c-1.803.442-2.376-.25-4.25 0a7.42 7.42 0 0 0-2.55.85 4.69 4.69 0 0 0-2.55 2.55zm22.1-22.101c-.361.288-1.622 1.287-2.55.85-.83-.39-.989-1.737-.85-2.55a3.993 3.993 0 0 1 .85-1.7c.337-.462.514-.705.85-.85.749-.32 1.301.274 1.7 0 .314-.214.239-.765 0-2.55-.241-1.801-.354-2.716 0-3.4.142-.273.432-.83.85-.85.917-.04.902 2.577 2.55 3.4 1.642.82 3.635-.787 4.25 0 .51.653-.503 2.21 0 2.55.269.182.687-.174.85 0 .207.223-.136 1.157-.85 1.7-.97.74-1.818.146-2.55.85-.662.638-.314 1.455-.85 1.7-.723.332-1.508-1.08-2.55-.85-.697.156-.632.854-1.7 1.7zM16.985 51.127a1.41 1.41 0 0 0 .85 1.7c.362.109.513-.114.85 0a1.688 1.688 0 0 1 .85 1.7c-.12 1.137-1.403 1.456-1.275 2.125.097.513.968.927 1.7.85 1.661-.175 2.401-2.862 2.55-3.4.25-.91.515-1.87 0-2.55-.43-.567-1.195-.67-2.55-.85a6.798 6.798 0 0 0-1.7 0c-.721.089-1.106.136-1.275.425z"/><path stroke-linejoin="round" stroke-width=".793" d="m52.014 52.744 2.486-5.315 2.41 5.315L54.5 57.5l-2.486-4.756z"/></g></svg><svg viewBox="0 0 72 72" id="1F9ED" xmlns="http://www.w3.org/2000/svg"><path d="M33.2 33.2 48 24l-9.2 14.8"/><circle cx="36" cy="36" r="24" fill="#fcea2b"/><path fill="#f1b31c" d="M53 19a24.042 24.042 0 0 1-17 41 24.302 24.302 0 0 1-17-7"/><path fill="#fff" d="M33.2 33.2 24 48l14.8-9.2"/><path fill="#ea5a47" d="M33.2 33.2 48 24l-9.2 14.8"/><g fill="none" stroke="#000" stroke-linecap="round" stroke-linejoin="round" stroke-width="2"><circle cx="36" cy="36" r="24"/><path d="M33.2 33.2 24 48l14.8-9.2"/><path d="M33.2 33.2 48 24l-9.2 14.8M36 21v-5m0 40v-5m15-15h5m-40 0h5"/></g></svg></svg>