<?xml version="1.0" encoding="utf-8"?><svg viewBox="0 0 72 72" xmlns="http://www.w3.org/2000/svg" xmlns:xlink="http://www.w3.org/1999/xlink"><style>:root>svg{display:none}:root>svg:target{display:block}</style><svg viewBox="0 0 72 72" id="1F54B" xmlns="http://www.w3.org/2000/svg"><g stroke-linecap="round" stroke-linejoin="round" stroke-miterlimit="10" stroke-width="2"><path fill="#3F3F3F" d="M16.5 16h39v39h-39z"/><path fill="#F1B31C" d="M16.5 23h39v4h-39z"/><path fill="#9B9B9A" d="M22.5 47h5v8h-5z"/><path fill="#F1B31C" d="M36 31l-2 3.5 2 3.5 2-3.5z"/><circle cx="25" cy="34.5" r="2.5" fill="#F1B31C"/><circle cx="46.5" cy="34.5" r="2.5" fill="#F1B31C"/></g><g fill="none" stroke="#000" stroke-linecap="round" stroke-linejoin="round" stroke-miterlimit="10" stroke-width="2"><path d="M16.5 16h39v39h-39z"/><path d="M16.5 23h39v4h-39zM22.5 47h5v8h-5zM36 31l-2 3.5 2 3.5 2-3.5z"/><circle cx="25" cy="34.5" r="2.5"/><circle cx="46.5" cy="34.5" r="2.5"/></g></svg><svg viewBox="0 0 72 72" id="1F54C" xmlns="http://www.w3.org/2000/svg"><path fill="#D0CFCE" d="M17.5 26h7v34h-7z"/><ellipse cx="42" cy="36" fill="#F4AA41" rx="12.5" ry="10"/><path fill="#D0CFCE" d="M29 40h26v20H29z"/><path fill="#F4AA41" d="M21 17l-3.5 9h7z"/><path fill="#3F3F3F" d="M24.5 36h-7l-2-5h11z"/><circle cx="42" cy="24" r="2" fill="#F4AA41"/><path fill="#9B9B9A" d="M42 45l-3.496 5.244A3 3 0 0038 51.908V60h8v-8.092a3 3 0 00-.504-1.664L42 45z"/><g fill="none" stroke="#000" stroke-linecap="round" stroke-linejoin="round" stroke-miterlimit="10" stroke-width="2"><path d="M17.5 26h7v5h-7zM17.5 36h7v24h-7zM54.5 36c0 1.42-.37 2.78-1.04 4H30.54a8.28 8.28 0 01-1.04-4c0-5.52 5.6-10 12.5-10s12.5 4.48 12.5 10zM55 40v20h-9v-8.09c0-.59-.18-1.17-.5-1.67l-2.84-4.25L42 45l-.66.99-2.84 4.25c-.32.5-.5 1.08-.5 1.67V60h-9V40h26zM21 17l-3.5 9h7zM26.5 31l-2 5h-7l-2-5z"/><circle cx="42" cy="24" r="2"/><path d="M46 51.91V60h-8v-8.09c0-.59.18-1.17.5-1.67l2.84-4.25L42 45l.66.99 2.84 4.25c.32.5.5 1.08.5 1.67z"/></g></svg><svg viewBox="0 0 72 72" id="1F54D" xmlns="http://www.w3.org/2000/svg"><g stroke-miterlimit="10" stroke-width="2"><path fill="#F4AA41" d="M52 33.78V60H18V33.78a1 1 0 01.408-.805L34.38 21.23a.946.946 0 011.238 0l15.973 11.744a1 1 0 01.408.806z"/><path fill="#F4AA41" stroke-linecap="round" stroke-linejoin="round" d="M8 39h10v21H8zM52 39h10v21H52z"/><path fill="#A57939" stroke-linecap="round" stroke-linejoin="round" d="M39 60h-8v-6a3 3 0 013-3h2a3 3 0 013 3v6z"/><path fill="#3F3F3F" stroke-linecap="round" stroke-linejoin="round" d="M57 30l-5 9h10zM13 30l-5 9h10z"/><path fill="#FFF" stroke-linecap="round" stroke-linejoin="round" d="M35 27l-8.66 15h17.32z"/><path fill="#D0CFCE" stroke-linecap="round" stroke-linejoin="round" d="M35 47l8.66-15H26.34z"/><path fill="#D0CFCE" stroke-linecap="round" stroke-linejoin="round" d="M35 27l-8.66 15h17.32z"/></g><g fill="none" stroke="#000" stroke-miterlimit="10" stroke-width="2"><path d="M52 33.78V60H18V33.78a1 1 0 01.408-.805L34.38 21.23a.946.946 0 011.238 0l15.973 11.744a1 1 0 01.408.806z"/><path stroke-linecap="round" stroke-linejoin="round" d="M8 39h10v21H8zM52 39h10v21H52zM39 60h-8v-6a3 3 0 013-3h2a3 3 0 013 3v6z"/><path stroke-linecap="round" stroke-linejoin="round" d="M14 47h-2v-3a1 1 0 011-1h0M58 47h-2v-3a1 1 0 011-1h0M35 60v-9M57 30l-5 9h10zM13 30l-5 9h10zM35 27l-8.66 15h17.32z"/><path stroke-linecap="round" stroke-linejoin="round" d="M35 47l8.66-15H26.34z"/><path stroke-linecap="round" stroke-linejoin="round" d="M35 27l-8.66 15h17.32z"/><path stroke-linecap="round" stroke-linejoin="round" d="M35 47l8.66-15H26.34z"/></g></svg><svg viewBox="0 0 72 72" id="1F6D5" xmlns="http://www.w3.org/2000/svg"><path fill="#f4aa41" d="M17 52.759h38v10.7H17zM17 43.458h38v9.3H17z"/><path fill="#92d3f5" stroke="#92d3f5" stroke-linecap="round" stroke-linejoin="round" stroke-width="2" d="M47 56.458h2v4h-2zM23 56.458h2v4h-2zM48 47.436h2v2h-2zM41.5 47.436h2v2h-2zM35 47.436h2v2h-2zM28.5 47.436h2v2h-2zM22 47.436h2v2h-2z"/><circle cx="36.063" cy="12.381" r="5" fill="#f4aa41"/><path fill="#f4aa41" d="M21.129 38.437h29.995v5.022H21.129zM27 23.408h18v4.05H27zM25 28.487h22v6.971H25z"/><path fill="#f4aa41" d="M22.587 33.521H50v3.875H22.587zM29.5 19.78h13v4.05h-13z"/><path fill="#e27022" d="M37.583 7.511a4.969 4.969 0 01-5 8.32 4.99 4.99 0 105-8.32zM25.311 42.651l10.751-10.752 10.752 10.752M41.5 63.458h-11v-7h11v7z"/><g fill="none" stroke="#000" stroke-linecap="round" stroke-linejoin="round" stroke-width="2"><path d="M17 43.458h38v9.3H17zM17 52.759h38v10.7H17zM43.5 38.436h7.624v5.022H21.129v-5.022h7.049M27 24.408h18v4.05H27zM25 32.613v-4.126h22v4.126M37.517 32.947H50v5.022h-7.37M29.092 20.344h13.842v4.05H29.092z"/><path d="M25.311 42.651l10.751-10.752 10.752 10.752M29.485 37.969h-6.898v-5.022h11.937M41.5 63.458h-11v-7h11v7z"/><path d="M34.062 63.458v-7h4v7M49 60.458h-2v-4M24 49.458h-2v-2M50 49.458h-2v-2M43.5 49.458h-2v-2M37 49.458h-2v-2M30.5 49.458h-2v-2M25 60.458h-2v-4"/><circle cx="36.063" cy="12.381" r="5"/><path d="M36.063 17.669v2.386"/></g></svg><svg viewBox="0 0 72 72" id="26E9" xmlns="http://www.w3.org/2000/svg"><path fill="#D22F27" d="M16 33h40v4H16z"/><path fill="#EA5A47" d="M22 27h4v28h-4zM46 27h4v28h-4z"/><path fill="#3F3F3F" d="M20.5 55h7v5h-7zM44.5 55h7v5h-7zM34 27h4v6h-4z"/><path fill="#EA5A47" d="M12.5 21s11.25 2 15 2H46c3.375 0 13.5-2 13.5-2l-4 3-2 3h-35l-2-3-4-3z"/><g fill="none" stroke="#000" stroke-linecap="round" stroke-linejoin="round" stroke-miterlimit="10" stroke-width="2"><path d="M16 33h6v4h-6zM26 33h20v4H26zM50 33h6v4h-6zM22 27h4v28h-4zM46 27h4v28h-4zM20.5 55h7v5h-7zM44.5 55h7v5h-7zM34 27h4v6h-4zM59.5 21l-4 3-2 3h-35l-2-3-4-3s11.25 2 15 2H46c3.38 0 13.5-2 13.5-2z"/></g></svg><svg viewBox="0 0 72 72" id="26EA" xmlns="http://www.w3.org/2000/svg"><path fill="#D0CFCE" d="M44 36V20.492l-7.294-5.27a1.238 1.238 0 00-1.412 0L28 20.491V36"/><path fill="#FFF" d="M18.947 66L19 42.102l17.045-15.117 16.963 15.128L53 66z"/><path fill="#A57939" stroke-linecap="round" stroke-miterlimit="10" stroke-width="2" d="M41 57.943c0-3.85-3.348-6.126-4.565-6.825a.86.86 0 00-.87 0c-1.217.7-4.565 2.974-4.565 6.825v7.09c0 .534.41.967.914.967h8.172c.505 0 .914-.433.914-.968v-7.089z"/><circle cx="36" cy="42" r="5" fill="#92D3F5" stroke-miterlimit="10" stroke-width="2"/><g><path d="M36 28.36l16 14.196V65H20V42.556L36 28.36M36 26a.93.93 0 00-.62.237L18.329 41.365a.984.984 0 00-.328.737v23.925a.96.96 0 00.947.973h34.106a.96.96 0 00.947-.973V42.102a.984.984 0 00-.328-.737L36.619 26.237A.93.93 0 0036 26z"/><path fill="none" stroke="#000" stroke-linecap="round" stroke-linejoin="round" stroke-miterlimit="10" stroke-width="2" d="M43 29v-8.508l-6.382-5.27a.974.974 0 00-1.236 0L29 20.491V29"/><path fill="none" stroke="#000" stroke-linecap="round" stroke-miterlimit="10" stroke-width="2" d="M36 14V6M32.5 10h7M41 57.943c0-3.85-3.348-6.126-4.565-6.825a.86.86 0 00-.87 0c-1.217.7-4.565 2.974-4.565 6.825v7.09c0 .534.41.967.914.967h8.172c.505 0 .914-.433.914-.968v-7.089z"/><circle cx="36" cy="42" r="5" fill="none" stroke="#000" stroke-miterlimit="10" stroke-width="2"/></g></svg></svg>