<?xml version="1.0" encoding="utf-8"?><svg viewBox="0 0 72 72" xmlns="http://www.w3.org/2000/svg" xmlns:xlink="http://www.w3.org/1999/xlink"><style>:root>svg{display:none}:root>svg:target{display:block}</style><svg viewBox="0 0 72 72" id="1F337" xmlns="http://www.w3.org/2000/svg"><path fill="#5C9E31" d="M23.697 59.43s-8.769-5.362-9.193-14.698c-.436-9.587 9.214-26.947 9.214-26.947s-4.72 20.706-.021 41.645z"/><path fill="#F4AA41" d="M50.717 27.303c-2.763-.123-8.057 1.58-9.515 2.89-2.49 2.236-2.945 2.851-3.843 6.473-.104.417.08.552.189 1.413.149 1.173-3.592-1.364-3.592-1.364-2.137-1.858-1.282-5.288-.16-7.888 2.692-6.237 14.314-9.896 16.45-8.038 0 0 .957 1.216 1.122 6.475l-.651.04z"/><path fill="#F4AA41" d="M57.288 29.872c1.344 2.493-3.056 13.578-9.732 14.835-2.153.405-3.875-.063-5.73-1.462-.998-.754-1.823-1.721-2.457-2.8-1.555-2.366-.845-5.708.938-7.908 4.278-5.277 15.426-5.031 16.981-2.665"/><path fill="#E27022" d="M52.948 22.666c2.163-.502 4.295-.322 4.838.362M51.368 27.264S51 22.726 50.91 22.5c-.11-.276 3.11-2.074 6.877-1.149 3.768.925 0 7.995 0 7.995l-1.326-.995a1.795 1.795 0 00-.723-.327c-1.181-.24-4.369-.761-4.369-.761z"/><g fill="none" stroke="#000" stroke-linecap="round" stroke-linejoin="round" stroke-width="2"><path d="M23.697 59.43s-8.769-5.362-9.193-14.698c-.436-9.587 9.214-26.947 9.214-26.947s-4.72 20.706-.021 41.645zM34.088 41.289c-3.438 3.548-7.676 10.246-5.83 20.735M57.084 29.872c1.343 2.493-3.056 13.578-9.733 14.835-2.153.405-3.875-.063-5.729-1.462-.998-.754-1.823-1.721-2.458-2.8v0c-1.554-2.366-.844-5.708.939-7.908 4.278-5.277 15.426-5.031 16.98-2.665M53.537 22.342c2.163-.503 4.295-.322 4.838.362M58.375 22.704c.387.585.232 2.163-.377 3.833M34.566 35.928c-2.132-1.863-1.89-4.848-.761-7.445 2.706-6.232 13.512-8.983 15.645-7.12M49.304 21.195c.506.527.797 1.59.846 3.102"/></g></svg><svg viewBox="0 0 72 72" id="1F338" xmlns="http://www.w3.org/2000/svg"><path fill="#5C9E31" d="M25.837 35.11c4.106 4.886 2.225 13.438 2.225 13.438s-7.537.829-11.644-4.057-2.602-13.638-2.602-13.638 7.916-.625 12.021 4.257z"/><path fill="#FFA7C0" d="M43.71 31.86c3.34 1 7.98 4 8.83 10.66l-2.19.18h-.01l.18 2.19c-11.57.37-12.55-9.35-12.55-9.35h-.69s-.88 9.72-12.45 9.35l.18-2.19H25l-2.19-.18c.85-6.66 5.49-9.66 8.83-10.66-3.51.24-9.12-.91-12.2-7.16l2.02-.88-.88-2.02c7.02-2.67 10.93-.15 13.2 2.55-1.77-3.31-2.95-8.31 2.2-13.98l1.56 1.56h.01l1.55-1.56c5.16 5.67 3.98 10.67 2.21 13.98h.16c2.27-2.7 6.28-5.22 13.3-2.55l-.88 2.02 2.02.88c-3.08 6.25-8.7 7.4-12.2 7.16z"/><path fill="#FCEA2B" d="M37.962 26.019s.976-.002 1.957.253l-1.072 6.932c-1.89-.047-4.38-1.79-4.38-3.69a3.495 3.495 0 013.495-3.495"/><g><path fill="none" stroke="#000" stroke-linecap="round" stroke-linejoin="round" stroke-width="2" d="M20.559 46.521c-1.335-.73-2.621-1.694-3.66-2.964-3.992-4.886-2.804-12.462-2.804-12.462s5.013.23 9.042 2.902"/><path fill="none" stroke="#000" stroke-linecap="round" stroke-linejoin="round" stroke-miterlimit="10" stroke-width="2" d="M34.07 24.62c-1.77-3.312-2.951-8.311 2.202-13.98l1.557 1.558h.003M37.832 12.198h.002l1.558-1.557c5.153 5.668 3.972 10.667 2.202 13.98h.165c2.273-2.7 6.275-5.22 13.297-2.554l-.879 2.02v.003l2.02.879c-3.08 6.248-8.694 7.398-12.2 7.163M34.07 24.62c-2.273-2.698-6.18-5.218-13.201-2.553l.878 2.02v.003l-2.02.879c3.08 6.248 8.694 7.398 12.2 7.163"/><path fill="none" stroke="#000" stroke-linecap="round" stroke-linejoin="round" stroke-miterlimit="10" stroke-width="2" d="M31.927 32.132c-3.335 1-7.979 4-8.83 10.658l2.197.175.001.002-.174 2.196c11.572.368 12.444-9.358 12.444-9.358h.699s.972 9.726 12.544 9.358l-.175-2.196.002-.002 2.196-.175c-.85-6.658-5.494-9.657-8.83-10.658M37.874 33.008a3.495 3.495 0 111.078-6.847M38.263 29.513l2.482-1.03"/><circle cx="43.937" cy="27.073" r="1.398" transform="rotate(-24.122 43.938 27.073)"/><path fill="none" stroke="#000" stroke-linecap="round" stroke-linejoin="round" stroke-miterlimit="10" stroke-width="2" d="M38.263 29.514l2.457 2.46"/><path fill="none" stroke="#000" stroke-linecap="round" stroke-linejoin="round" stroke-width="2" d="M37.163 43.893c-3.438 3.548-7.676 10.246-5.83 20.735"/></g></svg><svg viewBox="0 0 72 72" id="1F339" xmlns="http://www.w3.org/2000/svg"><path fill="#EA5A47" d="M38.163 16.825s-5.19-.514-5.862 3.044 1.757 6.498 2.93 6.655c0 0-2.555 6.294 1.873 9.694s9.162 1.191 10.976-2.122c0 0 8.084.967 8.44-6.457 0 0-.965-6.424-5.866-6.293 0 0 1.363-6.977-3.898-8.471s-8.593 3.95-8.593 3.95z"/><path fill="#B1CC33" d="M25.93 32.603c3.991 4.886 2.804 12.462 2.804 12.462s-7.66-.346-11.653-5.232-2.805-12.462-2.805-12.462 7.661.35 11.653 5.232z"/><path fill="#D22F27" d="M44.412 38.237c.91 1.976 1.874 3.717 3.497 4.563 1.708.89 3.683.676 5.128-.125 1.526-.847 2.655-2.51 2.697-4.595.036-1.762-1.106-3.524-2.148-5.403l-5.037 2.432-4.137 3.128zM51.952 20.074s.196-3.275-.304-4.074c0 0 1.142-1.674 3.088-1.317 1.482.272 2.332 3.318 2.653 4.755.112.503.288.723-.05 1.112-.545.627-1.803 1.805-2.96 2.058l-2.427-2.534z"/><path fill="#EA5A47" d="M48.366 22.704c0 1.631-2.093 2.954-4.675 2.954s-4.675-1.323-4.675-2.954"/><path fill="#D22F27" d="M50.525 31.17c-.501.686-1.424 1.104-2.286 1.355a8.337 8.337 0 01-3.543.254 10.013 10.013 0 01-5.45-2.651 9.294 9.294 0 01-2.708-4.85s-.006-.03-.014-.089a3.878 3.878 0 011.391-3.413c.656-.554 1.584-.882 2.476-1.004a8.337 8.337 0 013.542.269 9.839 9.839 0 014.96 3.418 9.153 9.153 0 011.898 5.188"/><path fill="#EA5A47" d="M39.016 22.838c-.002 1.613 1.917 2.668 4.515 2.78s4.759-1.12 4.828-2.75v-.316c-.02-1.632-2.142-2.974-4.74-2.998-2.599-.024-4.622 1.652-4.603 3.285"/><path fill="#D22F27" d="M43.174 24.817c-.61-1.416.329-3.183 2.098-3.947.918-.396 1.96-.354 2.875-.035 1.417.494 2.41 1.88 2.375 3.382a1.843 1.843 0 01-.103.606"/><path fill="#D22F27" d="M43.174 23.83c-.61 1.416.329 3.184 2.098 3.947.918.397 1.96.354 2.875.035 1.417-.494 2.41-1.88 2.375-3.382a1.843 1.843 0 00-.103-.605"/><g fill="none" stroke="#000" stroke-linecap="round" stroke-linejoin="round" stroke-width="2"><path stroke-miterlimit="10" d="M49.867 30.398c-.442.635-1.258 1.02-2.02 1.253a7.055 7.055 0 01-3.132.235 8.703 8.703 0 01-4.818-2.452 8.707 8.707 0 01-2.393-4.485M40.003 22.822c0-1.63 1.653-2.953 3.692-2.953 2.04 0 3.692 1.322 3.692 2.953"/><path stroke-miterlimit="10" d="M49.41 24.987c0 1.16-1.176 2.102-2.627 2.102-.753 0-1.461-.34-1.998-.834-.833-.764-1.107-2.018-.635-3.045.069-.15.152-.284.252-.388M53.308 15.902c.98-.623 2.405-.137 3.185 1.087.78 1.224.617 2.722-.362 3.346M54.195 35.924a4.363 4.363 0 01-7.63 4.233M38.163 16.193c-2.253-.855-5.918 1.231-6.512 3.676-.57 2.341.9 6.214 3.153 7.069M50.867 20.834c5.416.628 6.396 6.461 5.802 8.774-.882 3.435-5.39 5.401-8.12 4.69M50.867 20.834a6.762 6.762 0 10-12.704-4.64M34.804 26.938a7.796 7.796 0 1013.745 7.36"/><path d="M25.93 32.31c3.991 4.885 2.804 12.461 2.804 12.461s-7.66-.347-11.653-5.233-2.805-12.462-2.805-12.462 7.661.351 11.653 5.233zM37.104 40.864c-3.438 3.548-7.676 10.246-5.829 20.735"/></g></svg><svg viewBox="0 0 72 72" id="1F33A" xmlns="http://www.w3.org/2000/svg"><path fill="#ffa7c0" stroke="#ffa7c0" d="M56.239 31.078c.789-2.398-.301-8.807-2.824-8.894 3.467-10.044-11.017-11.013-11.385-8.228-3.083-5.954-15.552 2.894-11.305 8.577-1.836.408-3.839 6.938-2.046 9.081 1.619 1.937 6.814 3.985 6.814 3.985.087 2.523 3.752 5.271 6.275 5.184 2.364-.082 7.708-1.107 7.42-5.185 0 0 5.746-.559 7.051-4.52z"/><path fill="#fcea2b" d="M40.82 28.398c-1.834 0-3.32-1.443-3.32-3.223 0-1.369.769-2.538 2.009-3.006a.701.701 0 01.693.144l3.437 2.853 3.273 2.769c.369.312.566.809.44 1.276-.371 1.386-1.669 2.41-3.213 2.41-1.833 0-3.319-1.443-3.319-3.223"/><path fill="#b1cc33" d="M21.818 33.265c3.992 4.886 2.805 12.462 2.805 12.462s-7.66-.347-11.653-5.233c-3.993-4.886-2.805-12.462-2.805-12.462s7.661.351 11.653 5.233z"/><g><path fill="none" stroke="#000" stroke-linecap="round" stroke-linejoin="round" stroke-width="2" d="M21.818 33.276c3.992 4.886 2.805 12.462 2.805 12.462s-7.66-.347-11.653-5.233c-3.993-4.886-2.805-12.462-2.805-12.462s7.661.351 11.653 5.233zM32.993 41.831c-3.438 3.548-7.676 10.246-5.829 20.735M43.012 26.373c-.001 0 3.03-3.917-.072-7.5M46.41 29.025a3 3 0 11-6 0M40.41 29.025a3 3 0 01-.736-5.909M30.765 22.439c-1.784-2.219-.74-5.933 2.333-8.296 3.072-2.362 7.01-2.477 8.794-.258"/><path fill="none" stroke="#000" stroke-linecap="round" stroke-linejoin="round" stroke-width="2" d="M30.765 22.439c-1.784-2.219-.74-5.933 2.333-8.296 3.072-2.362 7.01-2.477 8.794-.258M35.405 35.771c-2.675.977-5.857-1.206-7.107-4.874-1.25-3.669-.094-7.434 2.581-8.411M41.987 13.99c1.628-2.337 5.486-2.379 8.617-.094 3.13 2.284 4.348 6.03 2.72 8.366M53.476 22.232c2.748.747 4.085 4.366 2.987 8.083-1.099 3.716-4.216 6.123-6.964 5.376M49.468 35.668c.098 2.846-2.964 5.193-6.839 5.242-3.875.049-7.096-2.218-7.194-5.064"/><circle cx="47.825" cy="25.042" r="1"/><circle cx="47.731" cy="19.443" r="1"/></g></svg><svg viewBox="0 0 72 72" id="1F33B" xmlns="http://www.w3.org/2000/svg"><path fill="#FCEA2B" d="M43.278 20.52c.275-.645 1.445-3.289 1.915-3.859 2.592-3.144 7.54-3.344 7.54-3.344s.742 4.896-1.848 8.039c-.7.85-1.573 1.484-2.474 1.957l-1.864.85c.816-.435 3.59-1.634 4.574-1.757 4.043-.504 7.777 2.748 7.777 2.748s-2.823 4.068-6.864 4.574c-1.504.187-2.966-.145-4.208-.637l-1.513-.562c1.072.4 3.645 1.562 4.525 2.46 2.852 2.91 2.528 7.852 2.528 7.852s-4.947.219-7.798-2.689c-.63-.642-1.885-3.776-2.243-4.541l.767 2.397c.238.713.392 1.474.407 2.268.074 4.074-3.555 7.443-3.555 7.443s-3.747-3.238-3.822-7.31c-.015-.833 1.347-4.705 1.347-4.705l-1.14 2.622c-1.772 2.489-4.516 4.144-7.555 4.449-.925.093-1.544.066-1.544.066s-.323-4.942 2.529-7.852c.828-.846 1.834-1.427 2.844-1.826l1.71-.71c-.003 0-4.314 1.454-5.75 1.275-4.04-.506-6.865-4.574-6.865-4.574s3.734-3.252 7.778-2.748c.837.105 3.842 1.578 4.56 1.92l-2.21-1.211c-.77-.449-1.507-1.023-2.114-1.76-2.59-3.142-1.849-8.038-1.849-8.038s4.948.2 7.54 3.344c.502.608 1.854 3.216 2.136 3.907l-.91-1.94a7.721 7.721 0 01-.507-2.55c-.074-4.073 3.555-7.442 3.555-7.442s3.747 3.236 3.822 7.31a7.713 7.713 0 01-.411 2.559"/><circle cx="40.792" cy="26.177" r="5" fill="#F1B31C"/><path fill="#5C9E31" d="M23.365 38.967c2.344 2.868 1.647 7.316 1.647 7.316s-4.498-.203-6.842-3.072-1.647-7.317-1.647-7.317 4.498.206 6.842 3.073zM36.653 52.501c2.858-2.334 7.289-1.64 7.289-1.64s-.203 4.48-3.06 6.815c-2.858 2.335-7.29 1.64-7.29 1.64s.206-4.48 3.061-6.815z"/><g fill="none" stroke="#000" stroke-linecap="round" stroke-linejoin="round" stroke-width="2"><circle cx="40.792" cy="26.177" r="5"/><path d="M23.859 38.563c2.79 3.414 1.96 8.708 1.96 8.708s-5.353-.242-8.143-3.657-1.96-8.707-1.96-8.707 5.353.245 8.143 3.656zM43.278 20.52c.275-.645 1.445-3.289 1.915-3.859 2.592-3.144 7.54-3.344 7.54-3.344s.742 4.896-1.848 8.039c-.7.85-1.573 1.484-2.474 1.957l-1.864.85c.816-.435 3.59-1.634 4.574-1.757 4.043-.504 7.777 2.748 7.777 2.748s-2.823 4.068-6.864 4.574c-1.504.187-2.966-.145-4.208-.637l-1.513-.562c1.072.4 3.645 1.562 4.525 2.46 2.852 2.91 2.528 7.852 2.528 7.852s-4.947.219-7.798-2.689c-.63-.642-1.885-3.776-2.243-4.541l.767 2.397c.238.713.392 1.474.407 2.268.074 4.074-3.555 7.443-3.555 7.443s-3.747-3.238-3.822-7.31c-.015-.833 1.347-4.705 1.347-4.705l-1.14 2.622c-1.772 2.489-4.516 4.144-7.555 4.449-.925.093-1.544.066-1.544.066s-.323-4.942 2.529-7.852c.828-.846 1.834-1.427 2.844-1.826l1.71-.71c-.003 0-4.314 1.454-5.75 1.275-4.04-.506-6.865-4.574-6.865-4.574s3.734-3.252 7.778-2.748c.837.105 3.842 1.578 4.56 1.92l-2.21-1.211c-.77-.449-1.507-1.023-2.114-1.76-2.59-3.142-1.849-8.038-1.849-8.038s4.948.2 7.54 3.344c.502.608 1.854 3.216 2.136 3.907l-.91-1.94a7.721 7.721 0 01-.507-2.55c-.074-4.073 3.555-7.442 3.555-7.442s3.747 3.236 3.822 7.31a7.713 7.713 0 01-.411 2.559M36.242 51.997c3.414-2.79 8.708-1.96 8.708-1.96s-.243 5.353-3.657 8.143c-3.414 2.79-8.708 1.96-8.708 1.96s.245-5.353 3.657-8.143zM34.366 41.03c-3.438 3.547-7.676 10.245-5.829 20.734"/></g></svg><svg viewBox="0 0 72 72" id="1F33C" xmlns="http://www.w3.org/2000/svg"><path fill="#FCEA2B" d="M53.199 26.128a1 1 0 010-1.182l.78-1.066a5.286 5.286 0 00-4.836-8.376l-1.313.143a1.007 1.007 0 01-1.023-.59l-.533-1.209a5.286 5.286 0 00-9.672 0l-.533 1.21a1.01 1.01 0 01-1.023.59l-1.313-.144a5.286 5.286 0 00-4.836 8.376l.78 1.066a1 1 0 010 1.182l-.78 1.066a5.285 5.285 0 004.837 8.376l1.313-.143a1 1 0 011.023.59l.533 1.208c.135.299.297.585.484.854.043.063.088.122.133.182.17.232.36.45.567.65.019.02.037.04.056.057a5.143 5.143 0 001.738 1.068c.594.224 1.223.34 1.858.342a5.221 5.221 0 004.836-3.153l.533-1.208a1 1 0 011.023-.59l1.313.142a5.286 5.286 0 004.837-8.376l-.782-1.065z"/><path fill="#5C9E31" d="M10.079 28.398c-.151 2.092-.178 7.231 2.687 10.738s7.906 4.508 9.985 4.774c.15-2.092.178-7.232-2.687-10.738-2.875-3.517-7.908-4.508-9.985-4.774z"/><path fill="#F1B31C" d="M41.438 21.537a4 4 0 100 8 4 4 0 000-8z"/><g fill="none" stroke="#000" stroke-linecap="round" stroke-linejoin="round" stroke-width="2"><circle cx="41.438" cy="25.537" r="5"/><path d="M20.837 32.54C24.829 37.424 23.642 45 23.642 45s-7.66-.347-11.653-5.233-2.805-12.462-2.805-12.462 7.66.347 11.653 5.233zM32.01 41.09c-3.437 3.548-7.675 10.246-5.828 20.735M47.189 13.443l.533 1.21 1.313-.144a6.285 6.285 0 015.75 9.961l-.78 1.066.78 1.066a6.285 6.285 0 01-5.75 9.961l-1.313-.143-.533 1.21a6.285 6.285 0 01-11.5 0l-.533-1.21-1.313.143a6.285 6.285 0 01-5.751-9.96l.78-1.067-.78-1.066a6.285 6.285 0 015.75-9.96l1.314.142.533-1.209a6.285 6.285 0 0111.5 0z"/></g></svg><svg viewBox="0 0 72 72" id="1F3F5" xmlns="http://www.w3.org/2000/svg"><path fill="#d22f27" stroke="#d22f27" stroke-miterlimit="10" stroke-width="2" d="M35.465 10C29.8 10 25.2 17.196 25.055 26.155c-8.499.45-15.176 4.921-15.176 10.38 0 5.465 6.693 9.94 15.206 10.38.441 8.513 4.916 15.206 10.38 15.206 5.458 0 9.93-6.677 10.38-15.176C54.804 46.801 62 42.201 62 36.535c0-5.66-7.18-10.256-16.125-10.41C45.721 17.18 41.125 10 35.465 10z"/><path fill="#ea5a47" d="M53.197 18.174c-3.76-3.76-11.587-2.037-17.627 3.812-5.938-5.34-13.335-6.805-16.957-3.183-3.626 3.626-2.154 11.036 3.202 16.978-5.356 5.94-6.828 13.351-3.202 16.977 3.622 3.622 11.02 2.158 16.957-3.183 6.04 5.849 13.867 7.571 17.627 3.812 3.755-3.755 2.04-11.569-3.792-17.606 5.832-6.038 7.547-13.851 3.792-17.607z"/><circle cx="35.591" cy="35.781" r="8.003" fill="#f4aa41" stroke="#f4aa41" stroke-miterlimit="10" stroke-width="2"/><circle cx="35.591" cy="35.781" r="4.446" fill="#fcea2b" stroke="#fcea2b" stroke-miterlimit="10" stroke-width="2"/><g fill="none" stroke="#000" stroke-linejoin="round" stroke-width="2"><path stroke-linecap="round" d="M53.197 18.174c-3.76-3.76-11.587-2.037-17.627 3.812-5.938-5.34-13.335-6.805-16.957-3.183-3.626 3.626-2.154 11.036 3.202 16.978-5.356 5.94-6.828 13.351-3.202 16.977 3.622 3.622 11.02 2.158 16.957-3.183 6.04 5.849 13.867 7.571 17.627 3.812 3.755-3.755 2.04-11.569-3.792-17.606 5.832-6.038 7.547-13.851 3.792-17.607zM58.547 42.897A8.312 8.312 0 0062 36.535c0-2.575-1.485-4.929-3.947-6.745M28.391 57.71c1.857 2.738 4.342 4.411 7.075 4.411a8.306 8.306 0 006.35-3.436M13.125 30.343a8.207 8.207 0 00-3.246 6.192 7.855 7.855 0 002.566 5.57M42.077 13.77c-1.797-2.356-4.1-3.77-6.611-3.77a8.302 8.302 0 00-6.349 3.435"/><circle cx="35.591" cy="35.781" r="8.003"/><circle cx="35.591" cy="35.781" r="4.446"/></g></svg><svg viewBox="0 0 72 72" id="1F490" xmlns="http://www.w3.org/2000/svg"><path fill="#5C9E31" d="M36.124 56.135s-15.07-3.998-18.97-11.88c-4.003-8.094-2.802-26.49-2.802-26.49s2.594 28.707 21.772 38.37zM50.279 19.078c1.988-3.67 3.066-4.706 3.066-4.706s7.54 23.351-1.644 32.605c-6.493 6.542-15.577 9.158-15.577 9.158s5.252-2.078 8.598-17.032c1.212-5.419 1.72-12.945 5.557-20.025z"/><path fill="#B399C8" d="M35.729 35.641s6.037 3.918 10.18-1.4-2.987-13.012-2.987-13.012-4.594-4.662-7.259-2.143c0 0 5.438 9.258 2.933 13.243-2.504 3.982-2.867 3.312-2.867 3.312z"/><path fill="#B399C8" d="M43.934 35.529s4.204 3.42 7.783-1.24.33-10.992.33-10.992-1.73-4.246-4.278-4.889c-2.548-.643-5.192 3.854-5.192 3.854s6.557 7.294 1.357 13.267z"/><path fill="#8967AA" d="M43.127 21.433s-2.545-2.621-5-3.047c0 0 .642-2.813 2.563-4.238 0 0 1.108-.52 2.235.234 1.127.754 2.418 2.589 2.418 2.589l.754 1.605s-1.43.688-2.97 2.857z"/><path fill="#F4AA41" d="M29.793 21.73c-1.643 1.517-3.686 5.54-3.771 7.132-.145 2.717-.054 3.332 1.495 5.93.178.3.36.272.912.704.752.59-2.82 1.282-2.82 1.282-2.273.16-3.738-2.303-4.578-4.442-2.016-5.134 2.516-13.92 4.789-14.08 0 0 1.236.148 4.321 3.076l-.348.397z"/><path fill="#F4AA41" d="M34.509 20.495c1.984.594 5.443 8.606 2.639 12.71-.904 1.323-2.037 1.972-3.72 2.207a7.007 7.007 0 01-2.72-.176c-2.029-.42-3.39-2.517-3.606-4.577-.517-4.944 5.378-10.584 7.407-10.164"/><path fill="#E27022" d="M27.861 18.313c1.077-1.728 2.576-2.993 3.372-2.902M29.818 22.319s-3.181-2.703-3.386-2.791c-.25-.108.672-3.36 3.715-5.204s5.183 5.184 5.183 5.184l-1.505.215c-.245.035-.475.12-.68.257-.923.61-3.327 2.339-3.327 2.339z"/><g fill="none" stroke="#000" stroke-linecap="round" stroke-linejoin="round" stroke-width="2"><path d="M36.124 56.135s-15.07-3.998-18.97-11.88c-4.003-8.094-2.802-26.49-2.802-26.49s2.594 28.707 21.772 38.37z"/><path d="M52.238 17.767c1.42-2.74 2.184-3.03 2.184-3.03s6.462 22.986-2.72 32.24c-6.494 6.542-15.578 9.158-15.578 9.158M28.036 39.103c.062 3.941.493 11.521 7.453 16.397M34.57 19.687c2.163.649 5.935 9.385 2.877 13.861-.986 1.443-2.22 2.15-4.056 2.407a7.64 7.64 0 01-2.967-.192h0c-2.212-.458-3.697-2.745-3.932-4.992-.564-5.39 5.865-11.542 8.077-11.084M28.32 17.44c.936-1.504 2.24-2.605 2.933-2.525M31.253 14.915c.549.112 1.352 1.09 1.95 2.375M25.281 35.808c-2.254.152-3.8-1.669-4.63-3.77-1.988-5.043 2.556-12.692 4.81-12.844M25.284 19.181c.583.012 1.347.448 2.228 1.273M44.721 39.103c-.062 3.941-1.637 12.156-8.597 17.032M39.925 36.01a7.814 7.814 0 002.408-.247h0c2.213-.458 3.697-2.744 3.932-4.991.477-4.56-4.046-9.662-6.792-10.851M44.438 17.44c-.937-1.504-2.241-2.605-2.934-2.525M41.504 14.915c-.548.112-1.351 1.09-1.95 2.375"/><path d="M47.477 35.808c2.254.152 3.8-1.669 4.63-3.77 1.988-5.043-2.556-12.692-4.81-12.844M47.473 19.181c-.582.012-1.347.448-2.227 1.273M30.933 58.686c-2.758.948-6.209 1.516-9.658.95M40.19 58.509c.3.117.535.2.858.31 2.731.921 5.883 1.376 9.285.818M29.15 58.008s4.444 1.905 13.967 0"/></g></svg><svg viewBox="0 0 72 72" id="1F4AE" xmlns="http://www.w3.org/2000/svg"><g fill="none" stroke="#000" stroke-linecap="round" stroke-linejoin="round" stroke-width="2"><path d="M46.92 17.265a16.54 16.54 0 00-2.106-7.145l-2.143 1.362-1.333-2.256a16.542 16.542 0 00-5.293 5.243M14.258 30.41a16.54 16.54 0 01-3.43-6.613l2.489-.502-.601-2.55a16.54 16.54 0 017.449.116M37.637 56.498a16.54 16.54 0 005.956 4.475L44.5 58.6l2.416 1.014a16.54 16.54 0 001.114-7.366M58.012 38.762a16.54 16.54 0 005.453-5.076l-2.176-1.31 1.424-2.2a16.538 16.538 0 00-7.055-2.393M21.43 53.484a16.54 16.54 0 01-7.45.117l.663-2.452-2.55-.601a16.538 16.538 0 013.43-6.613M29.57 32.7c-3.223-2.653-6.532-7.306-3.538-15.334l2.311.985h0"/><path d="M28.24 18.393h0l.985-2.312c7.72 3.717 8.556 9.365 8.07 13.51l.206-.082c1.25-3.735 4.334-7.969 12.623-8.192l-.098 2.433h0l2.433.098a13.932 13.932 0 01-9.583 12.474M29.57 32.7c-3.49-1.828-8.543-2.786-14.676 2.794l1.756 1.687h0l-1.687 1.756a13.932 13.932 0 0015.552 2.36"/><path d="M30.412 41.338a13.706 13.706 0 00-4.63 14.67l2.35-.706h0l.706 2.35c12.115-4.397 8.876-14.824 8.876-14.824l.722-.29s5.05 9.578 16.773 4.501l-1.015-2.225h0l2.183-1.118a13.854 13.854 0 00-13.5-7.374"/></g><g fill="none" stroke="#D22F27" stroke-linecap="round" stroke-linejoin="round" stroke-width="2"><path d="M46.92 17.265a16.54 16.54 0 00-2.106-7.145l-2.143 1.362-1.333-2.256a16.542 16.542 0 00-5.293 5.243M14.258 30.41a16.54 16.54 0 01-3.43-6.613l2.489-.502-.601-2.55a16.54 16.54 0 017.449.116M37.637 56.498a16.54 16.54 0 005.956 4.475L44.5 58.6l2.416 1.014a16.54 16.54 0 001.114-7.366M58.012 38.762a16.54 16.54 0 005.453-5.076l-2.176-1.31 1.424-2.2a16.538 16.538 0 00-7.055-2.393M21.43 53.484a16.54 16.54 0 01-7.45.117l.663-2.452-2.55-.601a16.538 16.538 0 013.43-6.613M29.57 32.7c-3.223-2.653-6.532-7.306-3.538-15.334l2.311.985h0"/><path d="M28.24 18.393h0l.985-2.312c7.72 3.717 8.556 9.365 8.07 13.51l.206-.082c1.25-3.735 4.334-7.969 12.623-8.192l-.098 2.433h0l2.433.098a13.932 13.932 0 01-9.583 12.474M29.57 32.7c-3.49-1.828-8.543-2.786-14.676 2.794l1.756 1.687h0l-1.687 1.756a13.932 13.932 0 0015.552 2.36"/><path d="M30.412 41.338a13.706 13.706 0 00-4.63 14.67l2.35-.706h0l.706 2.35c12.115-4.397 8.876-14.824 8.876-14.824l.722-.29s5.05 9.578 16.773 4.501l-1.015-2.225h0l2.183-1.118a13.854 13.854 0 00-13.5-7.374"/></g></svg><svg viewBox="0 0 72 72" id="1F940" xmlns="http://www.w3.org/2000/svg"><path fill="#EA5A47" d="M55.065 36.26s4.033-3.307 1.993-6.298c-2.04-2.992-5.837-3.353-6.779-2.634 0 0-2.643-6.258-8.178-5.53-5.536.727-7.32 5.635-6.26 9.26 0 0-6.4 5.034-1.402 10.534 0 0 5.224 3.861 8.597.303 0 0 3.969 5.897 8.746 3.233 4.778-2.664 3.283-8.868 3.283-8.868z"/><path fill="#D22F27" d="M35.868 25.74c-2.04-.754-3.953-1.304-5.7-.754-1.836.577-3.082 2.126-3.537 3.714-.48 1.678-.102 3.652 1.342 5.156 1.221 1.272 3.274 1.71 5.34 2.302l1.841-5.281.714-5.137z"/><path fill="#EA5A47" d="M44.056 39.519c-1.154-1.153-.609-3.568 1.217-5.394s4.24-2.371 5.394-1.218"/><path fill="#D22F27" d="M36.543 35.059c-.13-.84.226-1.787.658-2.575a8.336 8.336 0 012.326-2.685 10.014 10.014 0 015.729-1.98 9.294 9.294 0 015.343 1.515s.027.018.073.054c.322.25 1.6 1.374 1.43 3.397-.072.856-.496 1.743-1.041 2.46a8.337 8.337 0 01-2.695 2.316 9.839 9.839 0 01-5.924 1.09 9.152 9.152 0 01-5.01-2.327"/><path fill="#EA5A47" d="M50.157 32.812c-1.14-1.142-3.242-.53-5.157 1.227s-2.574 4.158-1.47 5.36l.223.222c1.168 1.14 3.617.589 5.472-1.232 1.854-1.82 2.1-4.436.932-5.577"/><path fill="#D22F27" d="M45.637 34.281c1.433.57 2.019 2.484 1.307 4.275-.368.93-1.136 1.636-2.007 2.058-1.352.652-3.035.374-4.072-.712a1.843 1.843 0 01-.355-.502"/><path fill="#D22F27" d="M46.335 34.98c-.57-1.434-2.484-2.02-4.275-1.308-.929.369-1.636 1.136-2.057 2.008-.653 1.351-.375 3.034.712 4.07.158.152.326.277.501.356"/><path fill="#B1CC33" d="M10.374 37.432c1.542-3.181 5.673-4.365 5.673-4.365s1.63 3.976.089 7.158c-1.542 3.181-5.673 4.364-5.673 4.364s-1.628-3.976-.088-7.157z"/><path fill="#EA5A47" d="M43.571 54.86c-.184.983-1.49 1.563-2.916 1.296-1.426-.266-2.433-1.28-2.25-2.262l1.384-2.621c.888-1.517.926-1.528 1.871-1.334l.296.055c.952.159.983.183 1.267 1.918l.349 2.944"/><g fill="none" stroke="#000" stroke-linecap="round" stroke-linejoin="round" stroke-width="2"><path stroke-miterlimit="10" d="M55.24 36.794c2.197-.989 3.094-4.581 1.786-6.73-1.253-2.058-4.811-4.232-7.009-3.243M38.48 31.213a8.7 8.7 0 016.17-2.556 8.7 8.7 0 016.171 2.556M42.975 42.495c-4.273 3.386-9.086.15-9.936-1.916-1.35-3.279-.379-7.815 2.054-9.244M49.251 33.407c1.153 1.154.92 3.258-.522 4.7-1.442 1.441-3.546 1.675-4.7.522"/><path stroke-miterlimit="10" d="M41.069 38.529c-.821-.82-.655-2.318.371-3.344.533-.532 1.274-.793 2.003-.824 1.129-.048 2.21.645 2.602 1.705.057.154.093.308.095.452M43.571 54.86c-.184.983-1.49 1.563-2.916 1.296-1.426-.266-2.433-1.28-2.25-2.262l1.384-2.621c.888-1.517.926-1.528 1.871-1.334l.296.055c.952.159.983.183 1.267 1.918l.349 2.944M29.952 34.178a4.363 4.363 0 112.402-8.389M55.24 36.794a6.762 6.762 0 11-12.265 5.7M50.017 26.821a7.796 7.796 0 10-14.924 4.515"/><path d="M10.374 37.432c1.542-3.181 5.673-4.365 5.673-4.365s1.63 3.976.089 7.158c-1.542 3.181-5.673 4.364-5.673 4.364s-1.628-3.976-.088-7.157zM40.44 17.148C37.8 10.77 30.487 7.741 24.11 10.382s-9.408 9.953-6.766 16.332c0 0 10.657 22.193 9.657 32.193"/></g></svg></svg>