<?xml version="1.0" encoding="utf-8"?><svg viewBox="0 0 72 72" xmlns="http://www.w3.org/2000/svg" xmlns:xlink="http://www.w3.org/1999/xlink"><style>:root>svg{display:none}:root>svg:target{display:block}</style><svg viewBox="0 0 72 72" id="203C" xmlns="http://www.w3.org/2000/svg"><g fill="#d22f27"><ellipse cx="26.669" cy="59.435" rx="3" ry="3.023"/><path d="M26.57 49.964a2.485 2.485 0 01-2.5-2.519V11.977a2.5 2.5 0 115 0v35.468a2.485 2.485 0 01-2.5 2.519z"/><ellipse cx="45.331" cy="59.435" rx="3" ry="3.023"/><path d="M45.23 49.964a2.485 2.485 0 01-2.5-2.519V11.977a2.5 2.5 0 115 0v35.468a2.485 2.485 0 01-2.5 2.519z"/></g><g fill="none" stroke="#000" stroke-linecap="round" stroke-linejoin="round" stroke-width="2"><ellipse cx="26.669" cy="60.081" rx="3" ry="3.023"/><ellipse cx="45.331" cy="60.081" rx="3" ry="3.023"/><path d="M26.67 49.964a2.485 2.485 0 01-2.5-2.519V11.977a2.5 2.5 0 115 0v35.468a2.485 2.485 0 01-2.5 2.519zM45.33 49.964a2.485 2.485 0 01-2.5-2.519V11.977a2.5 2.5 0 115 0v35.468a2.485 2.485 0 01-2.5 2.519z"/></g></svg><svg viewBox="0 0 72 72" id="2049" xmlns="http://www.w3.org/2000/svg"><g fill="#d22f27"><ellipse cx="43.824" cy="58.38" rx="3.147" ry="3.153"/><path d="M43.713 49.316a1.476 1.476 0 01-1.476-1.464c0-.082-.06-2.56.004-8.415.036-3.231 3.63-6.127 8.385-10.876 2.178-2.174 2.474-4.716 2.474-7.127 0-3.282-2.965-7.587-8.983-7.587-5.339 0-8.5 3.467-8.5 9.552a1.434 1.434 0 01-1.394 1.587 1.552 1.552 0 01-1.505-1.759c0-9.882 7.29-12.269 11.365-12.269 6.57 0 12.028 3.432 12.028 10.207 0 3.671-.48 6.526-3.71 9.755-3.956 3.956-7.184 6.346-7.208 8.549-.065 5.826-.005 8.278-.004 8.36a1.476 1.476 0 01-1.465 1.487z"/><ellipse cx="22.421" cy="58.25" rx="3" ry="3.023"/><path d="M22.321 50.778a2.485 2.485 0 01-2.5-2.519V12.792a2.5 2.5 0 115 0v35.467a2.485 2.485 0 01-2.5 2.52z"/></g><ellipse cx="43.824" cy="58.38" fill="none" stroke="#000" stroke-linecap="round" stroke-linejoin="round" stroke-width="2" rx="3.147" ry="3.153"/><path d="M44.082 10.958c6.57 0 12.028 3.432 12.028 10.207 0 3.671-.48 6.526-3.71 9.755-3.955 3.956-7.183 6.346-7.208 8.549-.065 5.826-.005 8.278-.004 8.36a1.476 1.476 0 01-1.464 1.487h-.012a1.476 1.476 0 01-1.475-1.464c0-.082-.061-2.561.004-8.416.036-3.23 3.63-6.127 8.385-10.875 2.178-2.174 2.474-4.716 2.474-7.127 0-3.282-2.965-7.587-8.983-7.587-5.339 0-8.5 3.467-8.5 9.552a1.434 1.434 0 01-1.394 1.587 1.552 1.552 0 01-1.505-1.759c0-9.882 7.29-12.269 11.365-12.269m0-2c-4.964 0-13.365 3.006-13.365 14.27a3.519 3.519 0 003.505 3.758 3.418 3.418 0 003.394-3.587c0-3.445 1.128-7.552 6.5-7.552 4.816 0 6.983 3.267 6.983 5.587 0 2.364-.316 4.144-1.886 5.712a250.26 250.26 0 01-2.157 2.12c-3.934 3.833-6.776 6.602-6.815 10.149-.055 4.945-.022 7.539-.005 8.424a3.476 3.476 0 106.952-.025l-.002-.075c-.016-.86-.048-3.384.006-8.248.01-.838 2.102-2.821 3.948-4.571.809-.767 1.726-1.637 2.674-2.585 3.577-3.577 4.296-6.926 4.296-11.17 0-7.3-5.638-12.206-14.028-12.206z"/><ellipse cx="22.421" cy="58.895" fill="none" stroke="#000" stroke-linecap="round" stroke-linejoin="round" stroke-width="2" rx="3" ry="3.023"/><path fill="none" stroke="#000" stroke-linecap="round" stroke-linejoin="round" stroke-width="2" d="M22.421 50.778a2.485 2.485 0 01-2.5-2.519V12.792a2.5 2.5 0 115 0v35.467a2.485 2.485 0 01-2.5 2.52z"/></svg><svg viewBox="0 0 72 72" id="2753" xmlns="http://www.w3.org/2000/svg"><g fill="#d22f27" stroke-miterlimit="10"><path d="M48.72 20.15c.305 9.298-8.021 12.75-10.82 19.21v7.565c0 1.39-1.11 2.5-2.5 2.5-1.38 0-2.5-1.11-2.5-2.5V37.06c3.493-6.142 10.38-7.469 10.67-17.06 0-5.66-6.543-6.151-7.988-6.175h-.05c-5.767 1.187-6.135 4.99-7.289 9.549-.667 1.521-1.564 2.045-2.9 2.03a2.498 2.498 0 01-2.02-2.9c.588-2.752.758-6.639 2.35-8.502 2.71-3.14 4.819-4.957 9.179-5.167.24 0 .49-.01.73-.01.09 0 .18 0 .27.01 8.27.24 12.6 2.992 12.87 11.32z"/><circle cx="34.95" cy="58.84" r="3"/></g><circle cx="35.3" cy="58.84" r="2.625" fill="none" stroke="#000" stroke-linecap="round" stroke-linejoin="round" stroke-miterlimit="10" stroke-width="1.75"/><path d="M35.67 10.07c6.57 0 12.03 3.431 12.03 10.21 0 3.671-.48 6.526-3.71 9.755-3.956 3.956-7.184 6.346-7.208 8.549-.065 5.826-.005 8.278-.004 8.36a1.476 1.476 0 01-1.464 1.487h-.012a1.476 1.476 0 01-1.476-1.464c0-.082-.06-2.561.005-8.416.035-3.231 3.63-6.127 8.385-10.88 2.178-2.174 2.474-4.716 2.474-7.127 0-3.282-2.965-7.587-8.984-7.587-5.338 0-8.5 3.467-8.5 9.552a1.434 1.434 0 01-1.394 1.587 1.552 1.552 0 01-1.505-1.759c0-9.882 7.29-12.27 11.36-12.27m0-2c-4.964 0-13.36 3.005-13.36 14.27a3.519 3.519 0 003.505 3.759 3.418 3.418 0 003.395-3.587c0-3.445 1.128-7.552 6.499-7.552 4.817 0 6.984 3.267 6.984 5.587 0 2.364-.316 4.144-1.886 5.712-.752.75-1.474 1.454-2.157 2.12-3.933 3.833-6.775 6.602-6.815 10.15-.055 4.946-.022 7.539-.005 8.424a3.476 3.476 0 106.952-.025l-.002-.075c-.016-.86-.048-3.384.006-8.248.01-.838 2.102-2.822 3.948-4.572.809-.767 1.726-1.636 2.675-2.585 3.577-3.577 4.296-6.926 4.296-11.17 0-7.3-5.638-12.21-14.03-12.21z"/></svg><svg viewBox="0 0 72 72" id="2754" xmlns="http://www.w3.org/2000/svg"><g fill="#fff" stroke-miterlimit="10"><path d="M48.72 20.15c.305 9.298-8.021 12.75-10.82 19.21v7.565c0 1.39-1.11 2.5-2.5 2.5-1.38 0-2.5-1.11-2.5-2.5V37.06c3.493-6.142 10.38-7.469 10.67-17.06 0-5.66-6.543-6.151-7.988-6.175h-.05c-5.767 1.187-6.135 4.99-7.289 9.549-.667 1.521-1.564 2.045-2.9 2.03a2.498 2.498 0 01-2.02-2.9c.588-2.752.758-6.639 2.35-8.502 2.71-3.14 4.819-4.957 9.179-5.167.24 0 .49-.01.73-.01.09 0 .18 0 .27.01 8.27.24 12.6 2.992 12.87 11.32z"/><circle cx="34.95" cy="58.84" r="3"/></g><circle cx="35.3" cy="58.84" r="2.625" fill="none" stroke="#000" stroke-linecap="round" stroke-linejoin="round" stroke-miterlimit="10" stroke-width="1.75"/><path d="M35.67 10.07c6.57 0 12.03 3.431 12.03 10.21 0 3.671-.48 6.526-3.71 9.755-3.956 3.956-7.184 6.346-7.208 8.549-.065 5.826-.005 8.278-.004 8.36a1.476 1.476 0 01-1.464 1.487h-.012a1.476 1.476 0 01-1.476-1.464c0-.082-.06-2.561.005-8.416.035-3.231 3.63-6.127 8.385-10.88 2.178-2.174 2.474-4.716 2.474-7.127 0-3.282-2.965-7.587-8.984-7.587-5.338 0-8.5 3.467-8.5 9.552a1.434 1.434 0 01-1.394 1.587 1.552 1.552 0 01-1.505-1.759c0-9.882 7.29-12.27 11.36-12.27m0-2c-4.964 0-13.36 3.005-13.36 14.27a3.519 3.519 0 003.505 3.759 3.418 3.418 0 003.395-3.587c0-3.445 1.128-7.552 6.499-7.552 4.817 0 6.984 3.267 6.984 5.587 0 2.364-.316 4.144-1.886 5.712-.752.75-1.474 1.454-2.157 2.12-3.933 3.833-6.775 6.602-6.815 10.15-.055 4.946-.022 7.539-.005 8.424a3.476 3.476 0 106.952-.025l-.002-.075c-.016-.86-.048-3.384.006-8.248.01-.838 2.102-2.822 3.948-4.572.809-.767 1.726-1.636 2.675-2.585 3.577-3.577 4.296-6.926 4.296-11.17 0-7.3-5.638-12.21-14.03-12.21z"/></svg><svg viewBox="0 0 72 72" id="2755" xmlns="http://www.w3.org/2000/svg"><g fill="#FFF" stroke-linecap="round" stroke-linejoin="round" stroke-miterlimit="10" stroke-width="2"><circle cx="36.093" cy="58.842" r="3"/><path d="M35.987 49.373a2.5 2.5 0 01-2.5-2.5v-35.21a2.5 2.5 0 115 0v35.21a2.5 2.5 0 01-2.5 2.5z"/></g><g fill="none" stroke="#000" stroke-linecap="round" stroke-linejoin="round" stroke-miterlimit="10" stroke-width="2"><circle cx="36.093" cy="58.842" r="3"/><path d="M35.987 49.373a2.5 2.5 0 01-2.5-2.5v-35.21a2.5 2.5 0 115 0v35.21a2.5 2.5 0 01-2.5 2.5z"/></g></svg><svg viewBox="0 0 72 72" id="2757" xmlns="http://www.w3.org/2000/svg"><g fill="#D22F27" stroke-linecap="round" stroke-linejoin="round" stroke-miterlimit="10" stroke-width="2"><circle cx="36.093" cy="58.842" r="3"/><path d="M35.987 49.373a2.5 2.5 0 01-2.5-2.5v-35.21a2.5 2.5 0 115 0v35.21a2.5 2.5 0 01-2.5 2.5z"/></g><g fill="none" stroke="#000" stroke-linecap="round" stroke-linejoin="round" stroke-miterlimit="10" stroke-width="2"><circle cx="36.093" cy="58.842" r="3"/><path d="M35.987 49.373a2.5 2.5 0 01-2.5-2.5v-35.21a2.5 2.5 0 115 0v35.21a2.5 2.5 0 01-2.5 2.5z"/></g></svg><svg viewBox="0 0 72 72" id="3030" xmlns="http://www.w3.org/2000/svg"><path fill="#3F3F3F" d="M16 37.166c1 3 2.239 5 5 5 2.75 0 3.99-1.983 4.987-4.961l.013-.039.017-.051c1.797-5.372 4.028-8.949 8.983-8.949 4.97 0 7.2 3.6 9 9l.038.114c1.12 2.906 2.236 4.886 4.962 4.886 2.761 0 4-2 5-5l.02-.062.024-.069c1.792-5.327 4.026-8.869 8.956-8.869v5.001c-2.634.33-4.275 1.825-5 4l-.081.241c-1.786 5.265-4.023 8.758-8.919 8.758-4.946 0-7.178-3.565-8.973-8.92l-.115-.34c-.946-2.855-2.231-4.74-4.912-4.74-2.761 0-4 2-5 5l-.06.179c-1.79 5.3-4.024 8.821-8.94 8.821-4.97 0-7.2-3.6-9-9l-.03-.089c-.74-2.126-2.372-3.584-4.97-3.91v-5.001c4.97 0 7.2 3.6 9 9"/><path fill="none" stroke="#000" stroke-linecap="round" stroke-linejoin="round" stroke-width="2" d="M16 37.166c1 3 2.239 5 5 5 2.75 0 3.99-1.983 4.987-4.961l.013-.039.017-.051c1.797-5.372 4.028-8.949 8.983-8.949 4.97 0 7.2 3.6 9 9l.038.114c1.12 2.906 2.236 4.886 4.962 4.886 2.761 0 4-2 5-5h0l.02-.062.024-.069c1.792-5.327 4.026-8.869 8.956-8.869v5.001c-2.634.33-4.275 1.825-5 4l-.081.241c-1.786 5.265-4.023 8.758-8.919 8.758-4.946 0-7.178-3.565-8.973-8.92l-.115-.34c-.946-2.855-2.231-4.74-4.912-4.74-2.761 0-4 2-5 5l-.06.179c-1.79 5.3-4.024 8.821-8.94 8.821-4.97 0-7.2-3.6-9-9l-.03-.089c-.74-2.126-2.372-3.584-4.97-3.91v-5.001c4.97 0 7.2 3.6 9 9"/></svg></svg>