<?xml version="1.0" encoding="utf-8"?><svg viewBox="0 0 72 72" xmlns="http://www.w3.org/2000/svg" xmlns:xlink="http://www.w3.org/1999/xlink"><style>:root>svg{display:none}:root>svg:target{display:block}</style><svg viewBox="0 0 72 72" id="1F4E2" xmlns="http://www.w3.org/2000/svg"><circle cx="59.383" cy="36.38" r="5" fill="#3F3F3F" stroke="#3F3F3F" stroke-miterlimit="10" stroke-width="2"/><path fill="#d0cfce" d="M57.739 11.375L41.303 24.721H12.59a3.01 3.01 0 00-3 3v16.692a3.01 3.01 0 003 3h28.712L57.74 60.541l-.002-49.166zM18.751 25.333v21.25"/><path fill="#9b9b9a" d="M18.687 24.511l-7.535.437-1.529 1.911-.055 18.183 2.13 2.457 6.825-.055zM27.75 47.746V60.04c0 1.509-1.117 2.732-2.496 2.732h-4.992c-1.379 0-2.497-1.223-2.497-2.732V47.746"/><g fill="none" stroke="#000" stroke-linecap="round" stroke-linejoin="round" stroke-width="2"><path d="M57.739 11.375L41.303 24.721H12.59a3.01 3.01 0 00-3 3v16.692a3.01 3.01 0 003 3h28.712L57.74 60.541l-.002-49.166zM18.751 25.333v21.25"/><path d="M26.75 51.445v9a2 2 0 01-2 2h-4a2 2 0 01-2-2v-9M61.614 31.907a5 5 0 01-.002 8.966"/></g></svg><svg viewBox="0 0 72 72" id="1F4E3" xmlns="http://www.w3.org/2000/svg"><path fill="#fff" d="M19.64 44.88l20.94 1.577 19.06 7.565v-37.19l-18.12 7.952-21.88 1.19z"/><path fill="#d0cfce" d="M19.64 45v-4.116s25.39-.507 40 8.546v4.596c-15.21-10.43-40-9.142-40-9.142"/><path fill="#d22f27" d="M12.85 25.98h6.787v18.63H12.85a2 2 0 01-2-2V27.98a2 2 0 012-2z"/><rect width="6" height="40.01" x="59.64" y="15.29" fill="#ea5a47" rx="2" ry="2"/><path fill="#9b9b9a" d="M19.636 44.92l.628 4.031h-1.368l1.681 8.916h1.5l.38 2.016-6.475.076-2.835-15.04"/><path fill="#ea5a47" d="M10.85 28.79H8.365a2 2 0 00-2 2v8.922a2 2 0 002 2h2.485"/><g fill="none" stroke="#000" stroke-linecap="round" stroke-linejoin="round" stroke-width="2"><path d="M19.64 25.98s24.79 1.289 40-9.142M19.64 44.88s24.79-1.289 40 9.142M12.85 25.98h6.787v18.63H12.85a2 2 0 01-2-2V27.98a2 2 0 012-2z"/><rect width="6" height="40.01" x="59.64" y="15.29" rx="2" ry="2"/><path d="M19.636 44.92l.877 4.648h-1.5l1.564 8.299h.5l.38 2.016-5.476.076-2.835-15.04M19.64 25.98s24.79 1.289 40-9.142M19.64 44.88s24.79-1.289 40 9.142M10.85 28.79H8.365a2 2 0 00-2 2v8.922a2 2 0 002 2h2.485M13.64 41h3"/></g></svg><svg viewBox="0 0 72 72" id="1F4EF" xmlns="http://www.w3.org/2000/svg"><path fill="#f1b31c" stroke="#f1b31c" stroke-linecap="round" stroke-linejoin="round" stroke-miterlimit="10" stroke-width="2" d="M39.807 51h-9c-12.702 0-23-14.954-23-26h-5c0 12.703 10.298 30 23 30h9"/><path fill="#fcea2b" d="M49.053 33.195c0-.01 0-.02-.01-.03-.24-.75-.56-1.46-.98-2.14-.13-.23-.28-.46-.44-.67l.63 1.26c.4 1.3.62 2.69.62 4.12 0 4.01-1.68 7.62-4.38 10.17.04.03.08.06.12.1l.36.43 2.43-3.25.39-.59c1.82-2.72 2.28-6.27 1.26-9.4zm8.75 2.51c-.28-9.03-5.64-17.14-13.46-20.84-.54-.27-1.1-.51-1.67-.73-.36-.13-.72-.26-1.09-.37-.36-.12-.74-.22-1.11-.32-1.81-.49-3.7-.74-5.67-.74-9.14 0-17.05 5.34-20.73 13.07-.16.34-.31.67-.46 1.02-.29.69-.55 1.39-.77 2.11-.12.36-.22.73-.31 1.09-.08.31-.16.62-.22.93a3.4 3.4 0 00-.07.34c-.07.32-.12.65-.17.98-.06.35-.1.7-.14 1.06-.09.8-.13 1.62-.13 2.44 0 .81.04 1.62.13 2.41.03.37.08.74.14 1.1.06.37.13.73.2 1.08l.18.82.21.8c.23.8-.35 1.863-.05 2.633 1.13 2.79 3.357 6.444 5.427 8.564.71.74 1.743.003 2.553.623.01.01.01.01.02.01a22.8 22.8 0 0014.19 4.92c5.89 0 11.34-2.21 15.46-5.85.33-.29.64-.58.95-.9.77-.75 1.48-1.56 2.13-2.42 2.77-3.63 4.43-8.11 4.47-12.96 0-.29 0-.58-.01-.87zm-14.67 10.12c-2.27 1.33-9.16 4.56-17.41.57-3-2.57-5.533-6.107-5.533-10.377 0-7.75 6.913-14.313 14.653-14.313 3.45 0 6.6 1.24 9.04 3.31l2.654 2.62 1.2 2.39-.324.03c.07.1.15.2.21.3l.63 1.26c.4 1.3.62 2.69.62 4.12 0 4.01-1.68 7.62-4.38 10.17-.39-.3-.93-.34-1.36-.08zm5.92-12.63c0-.01 0-.02-.01-.03-.24-.75-.56-1.46-.98-2.14-.13-.23-.28-.46-.44-.67l.63 1.26c.4 1.3.62 2.69.62 4.12 0 4.01-1.68 7.62-4.38 10.17.04.03.08.06.12.1l.36.43 2.43-3.25.39-.59c1.82-2.72 2.28-6.27 1.26-9.4z"/><path fill="#f1b31c" d="M58.733 38.03c-.06.75-.13 1.2-.13 1.2 0 4.84-2.51 8.05-5.26 10.56-1.15 1.05-2.34 1.98-3.41 2.85l-.64.52c-.87.74-1.62 1.44-2.15 2.15l.79-4.19.14-.71 2.6-13.74-1.62-3.22c0-.01 0-.02-.01-.03l-.79-1.55-.63-1.26.114-.33-1.2-2.39-1.803-2.62-3.32-2.74-.75-.83 3.68-6.58.02-.04.31-.56c6.95 2.89 11.54 9.26 13.27 15.03.09.3.16.63.23.92.77 3.02.69 5.98.56 7.56z"/><path fill="#FFF" d="M44.493 46.16c-2.51 2.4-5.9 3.86-9.65 3.86-3.48 0-6.67-1.27-9.12-3.37 8.25 3.99 15.14.76 17.41-.57.43-.26.97-.22 1.36.08z"/><path fill="#fcea2b" stroke="#fcea2b" stroke-linecap="round" stroke-linejoin="round" stroke-miterlimit="10" stroke-width="2" d="M69.163 51.6l-3.38 2.6a10.3 10.3 0 00-12.06-3.25l-2.51 1.26-1.16.58-.75.38-.01-.01-1.36-2.04-2.95-4.42-.01-.01 2.43-3.25.39-.59c1.82-2.72 2.28-6.27 1.26-9.4 0-.01 0-.02-.01-.03-.24-.75-.56-1.46-.98-2.14-.13-.23-.28-.46-.44-.67-.06-.1-.14-.2-.21-.3l.04-.03.15-.12 3.19-2.45 7.02 9.12.92 1.2 10.43 13.57z"/><path fill="#a57939" d="M49.843 54.61c-14.54 9.47-27.82 2.42-31.8-.17-.61-.39-.72-1.22-.28-1.77.02-.04.06-.08.09-.11l.47-.57 3.11-3.74 1.68-2.02c.39-.39.99-.45 1.47-.18.38.21.77.41 1.14.6 8.25 3.99 15.14.76 17.41-.57.43-.26.97-.22 1.36.08.04.03.08.06.12.1l.36.43.01.01 3.09 3.71 1.86 2.23.08.1c.02.02.03.03.04.05.09.1.16.2.21.32.23.52.08 1.17-.42 1.5z"/><g fill="none" stroke="#000" stroke-linecap="round" stroke-linejoin="round"><path stroke-width="2" d="M8.61 30.693c-.523-1.947-.803-3.873-.803-5.693h-5c0 6.053 2.339 13.15 6.162 18.921M56.866 29.467C54.051 19.947 45.241 13 34.807 13c-12.702 0-23 10.297-23 23 0 4.719 1.421 9.105 3.859 12.756"/><path stroke-width="2" d="M46.157 26.193A14.966 14.966 0 0034.807 21c-8.284 0-15 6.716-15 15 0 2.346.54 4.567 1.5 6.544M47.403 43.44l.39-.59c1.82-2.72 2.28-6.27 1.26-9.4 0-.01 0-.02-.01-.03-.24-.75-.56-1.46-.98-2.14-.13-.23-.28-.46-.44-.67-.06-.1-.14-.2-.21-.3l.04-.03.15-.12 3.19-2.45 7.02 9.12.92 1.2 10.43 13.57-3.38 2.6a10.3 10.3 0 00-12.06-3.25"/><path stroke-width="2.143" d="M49.843 54.61c-14.54 9.47-27.82 2.42-31.8-.17-.61-.39-.72-1.22-.28-1.77.02-.04.06-.08.09-.11l.47-.57 3.11-3.74 1.68-2.02c.39-.39.99-.45 1.47-.18.38.21.77.41 1.14.6 8.25 3.99 15.14.76 17.41-.57.43-.26.97-.22 1.36.08.04.03.08.06.12.1l.36.43.01.01 3.09 3.71 1.86 2.23.08.1c.02.02.03.03.04.05.09.1.16.2.21.32.23.52.08 1.17-.42 1.5z"/></g></svg><svg viewBox="0 0 72 72" id="1F507" xmlns="http://www.w3.org/2000/svg"><g stroke-miterlimit="10"><path fill="#d0cfce" stroke="#d0cfce" stroke-linecap="round" stroke-linejoin="round" stroke-width="2" d="M33.77 47.413l16.436 13.128V11.375L33.77 24.721M33.715 24.801v21.25"/><path fill="#9b9b9a" stroke="#9b9b9a" stroke-width="1.938" d="M32.793 24.721H20.855c-1.554.005-2.812 1.345-2.817 3v16.692c.005 1.655 1.263 2.995 2.817 3h11.938"/></g><g fill="none" stroke="#000" stroke-linecap="round" stroke-linejoin="round" stroke-width="2"><path d="M50.22 45.488l-.001-34.113-16.435 13.346h-4.128M20.23 24.843a3.01 3.01 0 00-2.158 2.878v16.692a3.01 3.01 0 003 3h12.712L50.22 60.541v-5.659M33.784 25.333V29M33.784 39v8.051M11.605 11.783l48.5 48.499"/></g></svg><svg viewBox="0 0 72 72" id="1F508" xmlns="http://www.w3.org/2000/svg"><path fill="#9b9b9a" d="M12.08 44.411V27.717a2 2 0 012-2H25.79V46.41H14.08a2 2 0 01-2-1.998z"/><path fill="#d0cfce" d="M42.268 58.433l-14.5-11.579a.977.977 0 00.061-.3v-21.25a.937.937 0 00-.024-.117l14.46-11.74.003 44.986z"/><g fill="none" stroke="#000" stroke-linecap="round" stroke-width="2"><path stroke-linejoin="round" d="M43.219 11.375L26.784 24.721H14.072a3.01 3.01 0 00-3 3v16.692a3.01 3.01 0 003 3h12.712L43.22 60.541l-.001-49.166zM26.784 25.333v21.25"/><path stroke-miterlimit="10" d="M54.674 24.612a18.91 18.91 0 010 22.692"/></g></svg><svg viewBox="0 0 72 72" id="1F509" xmlns="http://www.w3.org/2000/svg"><path fill="#9b9b9a" d="M12.08 44.411V27.717a2 2 0 012-2H25.79V46.41H14.08a2 2 0 01-2-1.998z"/><path fill="#d0cfce" d="M42.268 58.433l-14.5-11.579a.974.974 0 00.061-.3v-21.25a.937.937 0 00-.024-.117l14.46-11.74.003 44.986z"/><g fill="none" stroke="#000" stroke-linecap="round" stroke-width="2"><path stroke-linejoin="round" d="M43.219 11.375L26.784 24.721H14.072a3.01 3.01 0 00-3 3v16.692a3.01 3.01 0 003 3h12.712L43.22 60.541l-.001-49.166zM26.784 25.333v21.25"/><path stroke-miterlimit="10" d="M54.674 24.612a18.91 18.91 0 010 22.692M58.869 19.782a26.96 26.96 0 010 32.352"/></g></svg><svg viewBox="0 0 72 72" id="1F50A" xmlns="http://www.w3.org/2000/svg"><path fill="#9b9b9a" d="M12.08 44.411V27.717a2 2 0 012-2H25.79V46.41H14.08a2 2 0 01-2-1.998z"/><path fill="#d0cfce" d="M42.268 58.433l-14.5-11.579a.974.974 0 00.061-.3v-21.25a.92.92 0 00-.024-.117l14.46-11.74.003 44.986z"/><g fill="none" stroke="#000" stroke-linecap="round" stroke-width="2"><path stroke-linejoin="round" d="M43.219 11.375L26.784 24.721H14.072a3.01 3.01 0 00-3 3v16.692a3.01 3.01 0 003 3h12.712L43.22 60.541l-.001-49.166zM26.784 25.333v21.25"/><path stroke-miterlimit="10" d="M54.674 24.612a18.91 18.91 0 010 22.692M50.369 28.782a11.96 11.96 0 010 14.352M58.869 19.782a26.96 26.96 0 010 32.352"/></g></svg><svg viewBox="0 0 72 72" id="1F514" xmlns="http://www.w3.org/2000/svg"><circle cx="35.61" cy="57.772" r="5" fill="#f1b31c" stroke="#f1b31c" stroke-miterlimit="10" stroke-width="2"/><path fill="#fcea2b" d="M56.105 56.782s-2.059-3.766-3.254-9.585c-1.352-6.584-1.88-15.515-2.246-19.415-.775-8.247-6.716-15-15-15h-.5c-8.284 0-14.225 6.753-15 15-.367 3.9-.894 12.831-2.246 19.415-1.196 5.82-3.254 9.585-3.254 9.585h41.5z"/><g fill="none" stroke="#000" stroke-linecap="round" stroke-linejoin="round"><path stroke-width="2" d="M30.105 13.283a5 5 0 0110 0M40.087 60a5 5 0 01-8.966-.002"/><path stroke-miterlimit="10" stroke-width="1.818" d="M56.105 56.782s-2.059-3.766-3.254-9.585c-1.352-6.584-1.88-15.515-2.246-19.415-.775-8.247-6.716-15-15-15h-.5c-8.284 0-14.225 6.753-15 15-.367 3.9-.894 12.831-2.246 19.415-1.196 5.82-3.254 9.585-3.254 9.585h41.5z"/></g></svg><svg viewBox="0 0 72 72" id="1F515" xmlns="http://www.w3.org/2000/svg"><g stroke-miterlimit="10" stroke-width="2"><circle cx="35.61" cy="57.772" r="5" fill="#f1b31c" stroke="#f1b31c"/><path fill="#fcea2b" stroke="#fcea2b" stroke-linecap="round" stroke-linejoin="round" d="M56.105 56.782s-2.059-3.766-3.254-9.585c-1.352-6.584-1.88-15.515-2.246-19.415-.775-8.247-6.716-15-15-15h-.5c-8.284 0-14.225 6.753-15 15-.367 3.9-.894 12.831-2.246 19.415-1.196 5.82-3.254 9.585-3.254 9.585h41.5z"/></g><g fill="none" stroke="#000" stroke-linecap="round" stroke-linejoin="round" stroke-width="2"><path d="M30.105 13.283a5 5 0 0110 0M40.087 60a5 5 0 01-8.966-.002"/><path stroke-miterlimit="10" d="M53.464 49.77a42.349 42.349 0 01-.613-2.573c-1.352-6.584-1.88-15.515-2.246-19.415-.775-8.247-6.716-15-15-15h-.5c-4.945 0-9.055 2.406-11.73 6.1M20.258 26.564c-.063.402-.115.808-.153 1.218-.367 3.9-.894 12.831-2.246 19.415-1.195 5.82-3.254 9.585-3.254 9.585h35.5"/><path d="M11.605 12.783l47.5 47.499"/></g></svg></svg>