<?xml version="1.0" encoding="utf-8"?><svg viewBox="0 0 128 128" xmlns="http://www.w3.org/2000/svg" xmlns:xlink="http://www.w3.org/1999/xlink"><style>:root>svg{display:none}:root>svg:target{display:block}</style><svg viewBox="0 0 128 128" id="1F170" xmlns="http://www.w3.org/2000/svg"><g fill="#db4437"><path d="M63.85 48.54l-8.9 26.81h17.81z"/><path d="M120.88 0h-114C3.09 0 0 3.1 0 6.88v114.01c0 3.79 3.09 6.88 6.88 6.88h114.01c3.79 0 6.88-3.1 6.88-6.88V6.88c0-3.78-3.1-6.88-6.89-6.88z"/></g><text style="line-height:1.25" x="33.856" y="96.976" font-family="sans-serif" font-size="40" font-weight="400" letter-spacing="0" word-spacing="0"><tspan x="33.856" y="96.976" style="-inkscape-font-specification:'Comic Neue Bold'" fill="#fff" font-family="Comic Neue" font-size="96" font-weight="700">A</tspan></text></svg><svg viewBox="0 0 128 128" id="1F171" xmlns="http://www.w3.org/2000/svg"><path fill="#db4437" d="M120.88 0h-114C3.1 0 0 3.1 0 6.88v114.01c0 3.79 3.1 6.88 6.88 6.88h114.01c3.79 0 6.88-3.09 6.88-6.88V6.88c0-3.78-3.1-6.88-6.89-6.88z"/><text style="line-height:1.25" x="34.096" y="96.592" font-family="sans-serif" font-size="40" font-weight="400" letter-spacing="0" word-spacing="0"><tspan style="-inkscape-font-specification:'Comic Neue Bold'" x="34.096" y="96.592" fill="#fff" font-family="Comic Neue" font-size="96" font-weight="700">B</tspan></text></svg><svg viewBox="0 0 128 128" id="1F17E" xmlns="http://www.w3.org/2000/svg"><path fill="#db4437" d="M121 .11H6.99C3.21.11.12 3.21.12 6.99V121c0 3.79 3.09 6.88 6.87 6.88H121c3.78 0 6.88-3.09 6.88-6.88V6.99c0-3.78-3.1-6.88-6.88-6.88z"/><text style="line-height:1.25" x="32.176" y="96.64" font-family="sans-serif" font-size="40" font-weight="400" letter-spacing="0" word-spacing="0"><tspan x="32.176" y="96.64" style="-inkscape-font-specification:'Comic Neue Bold'" fill="#fff" font-family="Comic Neue" font-size="96" font-weight="700">O</tspan></text></svg><svg viewBox="0 0 128 128" id="1F17F" xmlns="http://www.w3.org/2000/svg"><path fill="#006ca2" d="M121 .11H6.99C3.21.11.12 3.21.12 6.99V121c0 3.78 3.09 6.88 6.87 6.88H121c3.78 0 6.88-3.09 6.88-6.88V7c0-3.79-3.1-6.89-6.88-6.89z"/><text style="line-height:1.25" x="35.776" y="96.736" fill="#fff" font-family="sans-serif" font-size="40" font-weight="400" letter-spacing="0" word-spacing="0"><tspan x="35.776" y="96.736" style="-inkscape-font-specification:'Comic Neue Bold'" font-family="Comic Neue" font-size="96" font-weight="700">P</tspan></text></svg><svg viewBox="0 0 128 128" id="1F18E" xmlns="http://www.w3.org/2000/svg"><path fill="#db4437" d="M121 .11H6.99C3.21.11.12 3.2.12 6.99V121c0 3.79 3.09 6.88 6.87 6.88H121c3.78 0 6.88-3.09 6.88-6.88V6.99c0-3.78-3.1-6.88-6.88-6.88z"/><text style="line-height:1.25" x="3.549" y="96.928" fill="#fff" font-family="sans-serif" font-size="40" font-weight="400" letter-spacing="0" word-spacing="0"><tspan x="3.549" y="96.928" style="-inkscape-font-specification:'Comic Neue Bold'" font-family="Comic Neue" font-size="96" font-weight="700">AB</tspan></text></svg><svg viewBox="0 0 128 128" id="1F191" xmlns="http://www.w3.org/2000/svg"><path fill="#db4437" d="M120.88.11h-114C3.09.11 0 3.21 0 7v114.01c0 3.78 3.09 6.88 6.88 6.88h114.01c3.78 0 6.88-3.1 6.88-6.88V7c-.01-3.79-3.1-6.89-6.89-6.89z"/><text style="line-height:1.25" x="7.158" y="96.736" font-family="sans-serif" font-size="40" font-weight="400" letter-spacing="0" word-spacing="0"><tspan x="7.158" y="96.736" style="-inkscape-font-specification:'Comic Neue Bold'" fill="#fff" font-family="Comic Neue" font-size="96" font-weight="700">CL</tspan></text></svg><svg viewBox="0 0 128 128" id="1F192" xmlns="http://www.w3.org/2000/svg"><path fill="#40c0e7" d="M120.88 0h-114C3.09 0 0 3.1 0 6.88v114.01c0 3.78 3.09 6.88 6.88 6.88h114.01c3.78 0 6.88-3.1 6.88-6.88V6.88c0-3.78-3.1-6.88-6.89-6.88z"/><text style="line-height:38.65476227px" x=".494" y="72.734" fill="#fff" font-family="Sans" font-size="61.848" font-weight="400" letter-spacing="0" transform="scale(.8049 1.2424)" word-spacing="0"><tspan x=".494" y="72.734" style="-inkscape-font-specification:'Comic Neue Bold'" font-family="Comic Neue" font-weight="700">COOL</tspan></text></svg><svg viewBox="0 0 128 128" id="1F193" xmlns="http://www.w3.org/2000/svg"><path fill="#40c0e7" d="M120.88 0h-114C3.09 0 0 3.1 0 6.88v114.01c0 3.78 3.09 6.88 6.88 6.88h114.01c3.78 0 6.88-3.1 6.88-6.88V6.88c0-3.78-3.1-6.88-6.89-6.88z"/><text style="line-height:40.77195358px" x="-.239" y="73.889" fill="#fff" font-family="Sans" font-size="65.235" font-weight="400" letter-spacing="0" transform="scale(.8049 1.2424)" word-spacing="0"><tspan x="-.239" y="73.889" style="-inkscape-font-specification:'Comic Neue Bold'" font-family="Comic Neue" font-weight="700">FREE</tspan></text></svg><svg viewBox="0 0 128 128" id="1F194" xmlns="http://www.w3.org/2000/svg"><path fill="#7742cc" d="M120.88 0h-114C3.1 0 0 3.1 0 6.88v114.01c0 3.78 3.1 6.88 6.88 6.88h114.01c3.78 0 6.88-3.1 6.88-6.88V6.88c0-3.78-3.1-6.88-6.89-6.88z"/><text style="line-height:74.04734039px" x="-.035" y="103.215" fill="#fff" font-family="Sans" font-size="118.476" font-weight="400" letter-spacing="0" word-spacing="0"><tspan x="-.035" y="103.215" style="-inkscape-font-specification:'Comic Neue Bold'" stroke-width=".378" font-family="Comic Neue" font-weight="700">ID</tspan></text></svg><svg viewBox="0 0 128 128" id="1F195" xmlns="http://www.w3.org/2000/svg"><path fill="#40c0e7" d="M120.88 0h-114C3.1 0 0 3.09 0 6.87v114.01c0 3.79 3.1 6.88 6.88 6.88h114.01c3.78 0 6.88-3.09 6.88-6.88V6.87c0-3.78-3.1-6.87-6.89-6.87z"/><text style="line-height:36.84184265px" x="-.643" y="84.396" fill="#fff" font-family="Sans" font-size="58.947" font-weight="400" letter-spacing="0" word-spacing="0"><tspan x="-.643" y="84.396" style="-inkscape-font-specification:'Comic Neue Bold'" stroke-width=".62" font-family="Comic Neue" font-weight="700">NEW</tspan></text></svg><svg viewBox="0 0 128 128" id="1F196" xmlns="http://www.w3.org/2000/svg"><path fill="#40c0e7" d="M121 0H6.99C3.21 0 .12 3.1.12 6.88v114.01c0 3.79 3.1 6.88 6.88 6.88h114c3.78 0 6.88-3.1 6.88-6.88V6.88c0-3.78-3.1-6.88-6.88-6.88z"/><text style="line-height:57.05724335px" x=".209" y="95.13" fill="#fff" font-family="Sans" font-size="91.292" font-weight="400" letter-spacing="0" word-spacing="0"><tspan x=".209" y="95.13" style="-inkscape-font-specification:'Comic Neue Bold'" stroke-width=".438" font-family="Comic Neue" font-weight="700">NG</tspan></text></svg><svg viewBox="0 0 128 128" id="1F197" xmlns="http://www.w3.org/2000/svg"><path fill="#40c0e7" d="M120.88 0h-114C3.1 0 0 3.1 0 6.88v114.01c0 3.78 3.1 6.88 6.88 6.88h114.01c3.78 0 6.88-3.1 6.88-6.88V6.88c0-3.78-3.1-6.88-6.89-6.88z"/><text style="line-height:65.71477509px" x="-2.9" y="99.749" fill="#fff" font-family="Sans" font-size="105.144" font-weight="400" letter-spacing="0" word-spacing="0"><tspan x="-2.9" y="99.749" style="-inkscape-font-specification:'Comic Neue Bold'" stroke-width=".471" font-family="Comic Neue" font-weight="700">OK</tspan></text></svg><svg viewBox="0 0 128 128" id="1F198" xmlns="http://www.w3.org/2000/svg"><path fill="#db4437" d="M121.02.09h-114C3.24.09.14 3.18.14 6.97v114.01c0 3.78 3.09 6.88 6.88 6.88h114.01c3.78 0 6.88-3.1 6.88-6.88V6.97c0-3.78-3.1-6.88-6.89-6.88z"/><text style="line-height:44.84339905px" x=".698" y="84.256" fill="#fff" font-family="Sans" font-size="71.749" font-weight="400" letter-spacing="0" transform="scale(.93534 1.06913)" word-spacing="0"><tspan x=".698" y="84.256" style="-inkscape-font-specification:'Comic Neue Bold'" font-family="Comic Neue" font-weight="700">SOS</tspan></text></svg><svg viewBox="0 0 128 128" id="1F199" xmlns="http://www.w3.org/2000/svg"><path fill="#40c0e7" d="M121 .12H6.99C3.21.12.12 3.21.12 7v114.01c0 3.78 3.1 6.87 6.88 6.87h114c3.79 0 6.88-3.09 6.88-6.87V7c0-3.79-3.09-6.88-6.88-6.88z"/><text style="line-height:59.47261429px" x="-1.311" y="91.025" fill="#fff" font-family="Sans" font-size="95.156" font-weight="400" letter-spacing="0" transform="scale(.91527 1.09258)" word-spacing="0"><tspan x="-1.311" y="91.025" style="-inkscape-font-specification:'Comic Neue Bold'" font-family="Comic Neue" font-weight="700">UP!</tspan></text></svg><svg viewBox="0 0 128 128" id="1F19A" xmlns="http://www.w3.org/2000/svg"><path fill="#ed6c30" d="M121 .11H7C3.22.11.12 3.21.12 6.99V121c0 3.79 3.1 6.88 6.88 6.88h114c3.78 0 6.88-3.09 6.88-6.88V6.99c0-3.78-3.09-6.88-6.88-6.88z"/><text style="line-height:1.25" x="10.406" y="96.736" font-family="sans-serif" font-size="40" font-weight="400" letter-spacing="0" word-spacing="0"><tspan x="10.406" y="96.736" style="-inkscape-font-specification:'Comic Neue Bold'" fill="#fff" font-family="Comic Neue" font-size="96" font-weight="700">VS</tspan></text></svg><svg viewBox="0 0 128 128" id="1F201" xmlns="http://www.w3.org/2000/svg"><path fill="#fcc21b" d="M119.79.34H8.2C3.87.34.33 3.88.33 8.21v111.58c0 4.33 3.54 7.87 7.87 7.87h111.59c4.33 0 7.87-3.54 7.87-7.87V8.21c0-4.33-3.54-7.87-7.87-7.87z"/><path fill="#2f2f2f" d="M59.27 30.26H19.38c-.42 0-.82.17-1.11.46-.29.29-.46.7-.46 1.11v15.38c0 .41.17.82.46 1.11.29.29.7.46 1.11.46H41.5v35.55H19.37c-.42 0-.82.17-1.11.46-.29.29-.46.7-.46 1.11v15.38c0 .41.17.82.46 1.11.29.29.7.46 1.11.46h39.89c.41 0 .81-.17 1.11-.46.29-.29.46-.7.46-1.11V31.83c0-.41-.17-.82-.46-1.11-.28-.3-.69-.46-1.1-.46zm49.45 0H68.83c-.42 0-.82.17-1.11.46-.29.29-.46.7-.46 1.11v15.38c0 .41.17.82.46 1.11.29.29.7.46 1.11.46h22.13v35.55H68.83c-.42 0-.82.17-1.11.46-.29.29-.46.7-.46 1.11v15.38c0 .41.17.82.46 1.11.29.29.7.46 1.11.46h39.9c.41 0 .82-.17 1.11-.46.29-.29.46-.7.46-1.11V31.83a1.573 1.573 0 00-1.58-1.57z"/></svg><svg viewBox="0 0 128 128" id="1F202" xmlns="http://www.w3.org/2000/svg"><path fill="#ed6c30" d="M119.79.34H8.2C3.87.34.33 3.88.33 8.21v111.58c0 4.33 3.54 7.87 7.87 7.87h111.58c4.33 0 7.87-3.55 7.87-7.87V8.21c.01-4.34-3.53-7.87-7.86-7.87z"/><path fill="#fff" d="M110.08 40.28H94.15V25.4c0-.42-.17-.82-.46-1.11-.29-.29-.7-.47-1.11-.47h-14.6c-.41 0-.82.17-1.11.47-.29.29-.46.69-.46 1.11v14.87H52.86V25.4c0-.42-.17-.82-.46-1.11-.29-.29-.7-.47-1.11-.47h-14.6c-.41 0-.82.17-1.11.47-.29.29-.46.69-.46 1.11v14.87H17.83c-.42 0-.82.17-1.11.47-.29.29-.46.69-.46 1.11v14.54c0 .42.17.82.46 1.11.29.29.7.46 1.11.46h17.29v21.15c0 .41.17.82.46 1.11.29.29.7.46 1.11.46h14.6c.42 0 .82-.17 1.11-.46.29-.29.46-.7.46-1.11V57.97h23.5c-.35 15.29-5.49 24.86-10.59 30.71-2.64 3.02-5.27 5.04-7.23 6.31-.98.63-1.79 1.07-2.35 1.35-.28.14-.49.23-.63.29l-.15.07-.03.01c-.44.18-.78.54-.92.99-.15.45-.08.95.18 1.34l7.98 12.23c.4.61 1.16.87 1.84.63.16-.06 7.57-2.68 14.98-10.96 7.23-8.06 14.36-21.57 14.69-42.97h15.96c.41 0 .82-.17 1.11-.46.29-.29.46-.7.46-1.11V41.86c0-.42-.17-.82-.46-1.11-.3-.3-.7-.47-1.12-.47z"/></svg><svg viewBox="0 0 128 128" id="1F21A" xmlns="http://www.w3.org/2000/svg"><path fill="#ed6c30" d="M119.72.42H8.28C3.95.42.42 3.95.42 8.28v111.44c0 4.33 3.53 7.86 7.86 7.86h111.44c4.33 0 7.86-3.54 7.86-7.86V8.28c0-4.33-3.53-7.86-7.86-7.86z"/><path fill="#fff" d="M106.24 52.2h-9.55V40.66h6.67c.42 0 .82-.17 1.11-.46.29-.29.46-.7.46-1.11v-8.61c0-.41-.17-.81-.46-1.11-.29-.29-.7-.47-1.11-.47H39.88l1.76-4.18c.16-.38.17-.82.01-1.21-.16-.38-.47-.69-.85-.85l-9.89-4.16a1.57 1.57 0 00-2.06.84l-9.82 23.31c-.16.39-.16.82-.01 1.21.16.38.47.69.85.85l9.9 4.17c.39.16.82.16 1.21.01.39-.16.69-.46.85-.84l3-7.14v11.3h-9.56c-.41 0-.81.17-1.11.46-.29.29-.46.7-.46 1.11v8.61c0 .41.17.82.46 1.11.3.29.7.46 1.11.46h9.56v9.9h-6.67c-.41 0-.82.17-1.11.46-.29.29-.46.7-.46 1.11v8.61c0 .41.18.82.46 1.11.29.29.7.46 1.11.46h75.19c.42 0 .82-.17 1.11-.46.29-.29.46-.7.46-1.11v-8.61c0-.41-.17-.82-.46-1.11-.29-.29-.7-.46-1.11-.46h-6.67v-9.9h9.55c.42 0 .82-.17 1.12-.46.29-.29.45-.7.45-1.11v-8.61c0-.41-.16-.82-.45-1.11-.29-.3-.69-.47-1.11-.47zM46.72 40.66h4.46V52.2h-4.46V40.66zM84.8 52.2H80V40.66h4.81V52.2zM63.06 63.95h5.05v9.9h-5.05v-9.9zm5.06-11.75h-5.05V40.66h5.05V52.2zm-21.4 11.75h4.46v9.9h-4.46v-9.9zm38.08 9.9H80v-9.9h4.81v9.9zm-42 18.14l-8.04-3.38c-.8-.33-1.71.04-2.05.84l-5.58 13.24c-.17.39-.17.82-.01 1.21s.46.69.85.85l8.04 3.39c.39.17.83.17 1.21.01s.7-.47.85-.85l5.58-13.25c.16-.39.17-.81 0-1.2-.16-.39-.46-.69-.85-.86zm17.77-1.65c-.2-.85-1.05-1.37-1.89-1.16l-8.48 2.04c-.41.1-.75.35-.97.71-.22.36-.29.78-.19 1.19l3.37 13.98c.1.41.35.75.71.97.36.22.78.29 1.19.19l8.49-2.04a1.583 1.583 0 001.16-1.9l-3.39-13.98zm20.06-.39a1.552 1.552 0 00-1.92-1.1l-8.42 2.27c-.41.11-.75.37-.97.73-.21.36-.26.79-.16 1.19l3.74 13.88c.11.4.37.74.74.95.37.21.79.27 1.2.15l8.43-2.27c.41-.11.74-.37.96-.73.21-.37.26-.79.16-1.2l-3.76-13.87zm20.03-.4a1.579 1.579 0 00-1.99-1L90.4 91.3c-.4.13-.73.41-.91.78-.19.38-.22.81-.09 1.2l4.52 13.65c.14.4.42.72.79.91.37.19.8.22 1.2.09l8.28-2.75a1.578 1.578 0 001-1.99l-4.53-13.64z"/></svg><svg viewBox="0 0 128 128" id="1F22F" xmlns="http://www.w3.org/2000/svg"><path fill="#bdcf46" d="M119.77.36H8.23C3.9.36.36 3.9.36 8.23v111.54c0 4.32 3.54 7.87 7.87 7.87h111.54c4.33 0 7.87-3.55 7.87-7.87V8.23c0-4.33-3.54-7.87-7.87-7.87z"/><path fill="#fff" d="M62.96 62.69v-.01zm43.71-13.74l-9.65-3.21a1.58 1.58 0 00-1.96.93l-.04.1c-.11.25-.42.95-.83 1.68-.41.74-.97 1.51-1.42 1.88-.1.09-.46.28-.93.42-1.44.44-3.73.49-4.01.48h-13.5v-5.19l28.75-8.25c.84-.24 1.31-1.11 1.07-1.95l-2.37-8.26a1.576 1.576 0 00-1.94-1.09l-25.5 7.33v-7.64c0-.41-.17-.81-.46-1.1-.29-.29-.7-.47-1.11-.47H62.43c-.42 0-.82.18-1.11.47-.29.29-.46.69-.46 1.1v22.8c-.02.1-.05.18-.05.27v8.14c0 .08 0 .86.25 1.89.25 1.03.73 2.35 1.91 3.41 1.22 1.09 2.63 1.54 3.73 1.78 1.1.23 1.92.23 1.99.24h23.47c.16 0 .31-.05.46-.1.76-.05 1.58-.13 2.46-.26 2.1-.35 4.4-.9 6.12-2.31 2.25-1.92 3.79-4.67 4.86-6.96 1.06-2.3 1.61-4.13 1.62-4.18.25-.82-.2-1.68-1.01-1.95zm-3.93 18.35H61.8c-.42 0-.82.17-1.12.46-.29.29-.46.7-.46 1.11v37.41c0 .41.17.82.46 1.11.29.29.7.46 1.12.46h40.93c.42 0 .82-.17 1.12-.46.29-.29.45-.7.45-1.11V68.87c0-.41-.17-.82-.45-1.11-.29-.3-.7-.46-1.11-.46zM92.1 83.25l-.41.17H72.83l-.4-.17-.17-.4V78.2l.17-.41.4-.17H91.7l.41.17.16.41v4.64l-.17.41zm.16 9.26v4.64l-.16.4-.41.17H72.83l-.4-.17-.17-.4v-4.64l.17-.4.4-.17H91.7l.41.17.15.4zM52.63 63.24c-.17-.38-.49-.68-.87-.83-.39-.15-.83-.14-1.21.04l-2.66 1.19v-11.1h6.8c.41 0 .82-.17 1.11-.46.29-.29.46-.69.46-1.11v-8.59c0-.42-.17-.82-.46-1.11-.29-.29-.7-.46-1.11-.46h-6.8V24.27c0-.41-.17-.82-.46-1.11-.29-.29-.7-.46-1.1-.46H34.6c-.41 0-.82.17-1.11.46-.29.29-.46.7-.46 1.11V40.8h-9.68c-.41 0-.82.17-1.11.46-.29.29-.46.69-.46 1.11v8.59c0 .42.17.82.46 1.11.3.29.7.46 1.11.46h9.68V70.3l-11.08 4.95c-.38.18-.68.49-.83.88-.15.39-.14.83.03 1.2l3.52 7.85c.17.38.49.68.88.83.39.15.83.14 1.21-.04l6.28-2.81v9.14H29c-.46 0-.88.19-1.18.54-.3.34-.43.79-.38 1.24l1.59 11.77c.1.78.77 1.37 1.55 1.37h9.24c.08 0 .94 0 2.09-.28 1.13-.27 2.61-.81 3.76-2.09 1.19-1.34 1.7-2.91 1.96-4.13.26-1.23.26-2.14.26-2.22v-22l7.45-3.33c.8-.36 1.15-1.29.8-2.08l-3.51-7.85zm-6.97 41.6z"/></svg><svg viewBox="0 0 128 128" id="1F232" xmlns="http://www.w3.org/2000/svg"><path fill="#ed6c30" d="M119.79.34H8.21C3.88.34.34 3.88.34 8.21v111.58c0 4.33 3.54 7.87 7.87 7.87h111.58c4.33 0 7.87-3.55 7.87-7.87V8.21c0-4.33-3.54-7.87-7.87-7.87z"/><path fill="#fff" d="M22.9 58.25c.42 0 .84-.17 1.13-.48l11.68-12.12v6.56c0 .41.17.82.46 1.11.29.29.7.46 1.11.46h8.57c.41 0 .82-.17 1.11-.46.29-.29.46-.7.46-1.11V44.9l7.38 7.66c.29.31.71.48 1.13.48.43 0 .84-.18 1.13-.48l5.4-5.61c.59-.61.59-1.58 0-2.18l-6.82-7.08h4.27c.42 0 .82-.17 1.11-.47.29-.29.46-.7.46-1.11v-6.2c0-.42-.17-.82-.46-1.11-.29-.29-.7-.46-1.11-.46h-12.5v-6.09c0-.42-.17-.82-.46-1.11-.29-.29-.7-.46-1.11-.46h-8.57c-.41 0-.82.17-1.11.46-.29.29-.46.7-.46 1.11v6.09H20.34c-.41 0-.82.17-1.11.46-.29.29-.47.7-.47 1.11v6.2c0 .41.17.82.47 1.11.29.29.7.47 1.11.47h7.85L16.36 49.98c-.59.61-.59 1.57 0 2.18l5.4 5.61c.3.3.71.48 1.14.48zm76.82-20.56h7.85c.41 0 .82-.17 1.11-.47.29-.29.46-.7.46-1.11v-6.2c0-.42-.17-.82-.46-1.11-.29-.29-.7-.46-1.11-.46H92.2v-6.09c0-.42-.17-.82-.46-1.11-.29-.29-.7-.46-1.11-.46h-8.56c-.42 0-.82.17-1.11.46-.29.29-.46.7-.46 1.11v6.09H68c-.42 0-.82.17-1.11.46-.29.29-.46.7-.46 1.11v6.2c0 .41.17.82.46 1.11.29.29.7.47 1.11.47h4.27l-6.82 7.08c-.59.61-.59 1.57 0 2.18l5.4 5.61c.29.31.7.48 1.13.48.43 0 .84-.18 1.13-.48l7.38-7.66v7.31c0 .41.17.82.46 1.11.29.29.7.46 1.11.46h8.56c.42 0 .82-.17 1.11-.46.29-.29.46-.7.46-1.11v-6.56l11.68 12.12c.3.31.71.48 1.13.48.42 0 .84-.17 1.13-.48l5.4-5.61c.59-.61.59-1.58 0-2.18L99.72 37.69zm7.6 37.06H21.6c-.41 0-.82.17-1.11.46-.29.29-.46.7-.46 1.11v7.78c0 .41.17.82.46 1.11.29.29.7.46 1.11.46h37.08v10.65h-6.92c-.44 0-.86.19-1.16.51-.3.33-.44.77-.4 1.21l.87 9.03c.08.81.75 1.43 1.57 1.43h12.65c.08 0 .91-.01 2.02-.27 1.1-.27 2.53-.8 3.66-2.04 1.15-1.3 1.65-2.82 1.91-4.01.25-1.19.26-2.07.26-2.14V85.68h34.21c.41 0 .82-.17 1.11-.46.29-.29.46-.7.46-1.11v-7.78c0-.42-.17-.82-.46-1.11-.32-.3-.72-.47-1.14-.47zM29.38 59.66c-.29.29-.46.7-.46 1.11v7.78c0 .42.17.82.46 1.11.29.29.7.46 1.11.46h67.94c.42 0 .82-.17 1.11-.46.29-.29.46-.7.46-1.11v-7.78c0-.42-.17-.82-.46-1.11-.29-.29-.7-.46-1.11-.46H30.49c-.41 0-.82.16-1.11.46z"/><path fill="#fff" d="M41.91 88.28c-.55-.67-1.53-.76-2.2-.21L27.34 98.14c-.33.26-.53.65-.57 1.07-.04.42.09.84.36 1.16l5.62 6.75c.55.66 1.53.76 2.2.21l12.38-10.06c.33-.27.53-.65.58-1.07.04-.42-.09-.83-.36-1.16l-5.64-6.76zm60.75 8.48L87.61 87.5c-.74-.45-1.7-.23-2.16.5l-4.68 7.43c-.22.36-.29.79-.2 1.2.1.41.35.76.71.98l15.06 9.27c.74.46 1.7.23 2.16-.5l4.68-7.44c.22-.36.3-.79.2-1.2-.1-.4-.36-.76-.72-.98zm-31.71 9.44v.01z"/></svg><svg viewBox="0 0 128 128" id="1F233" xmlns="http://www.w3.org/2000/svg"><path fill="#40c0e7" d="M119.79.34H8.21C3.88.34.34 3.88.34 8.21v111.58c0 4.32 3.54 7.87 7.87 7.87h111.58c4.33 0 7.87-3.55 7.87-7.87V8.21c0-4.33-3.54-7.87-7.87-7.87z"/><path fill="#fff" d="M100.24 95.14H73.19v-7.21h16.84c.42 0 .82-.17 1.11-.46.29-.29.46-.7.46-1.12v-9.66c0-.42-.17-.82-.46-1.12-.29-.29-.7-.46-1.11-.46H37.98c-.42 0-.82.17-1.11.46-.29.29-.46.7-.46 1.12v9.66c0 .41.17.82.46 1.12.29.29.7.46 1.11.46h16.75v7.21H27.76c-.41 0-.82.17-1.11.46-.29.29-.46.7-.46 1.11v9.66c0 .42.17.82.46 1.11.29.29.7.46 1.11.46h72.48c.42 0 .82-.17 1.11-.46.29-.29.46-.7.46-1.11v-9.66c0-.41-.17-.82-.46-1.11-.29-.29-.69-.46-1.11-.46zm4.17-68.26H73.19v-8.21c0-.41-.17-.82-.46-1.11-.29-.29-.7-.46-1.12-.46H56.3c-.42 0-.82.17-1.11.46-.29.29-.46.7-.46 1.11v8.21H23.5c-.42 0-.82.17-1.11.46-.29.29-.46.7-.46 1.11v25.63c0 .41.17.82.46 1.11.29.29.7.46 1.11.46h12.18c.42 0 .82-.17 1.11-.46.29-.29.46-.7.46-1.11V40h53.4v14.07c0 .41.17.82.46 1.11.29.29.7.46 1.11.46h12.18c.42 0 .82-.17 1.12-.46.29-.29.46-.7.46-1.11V28.45a1.574 1.574 0 00-1.57-1.57z"/><path fill="#fff" d="M34.35 73.97c18.61-5.14 26.45-18.01 26.56-18.19.39-.63.27-1.45-.27-1.96l-7.55-7.11a1.578 1.578 0 00-2.45.37v.02c-.15.25-1.91 3.16-5.56 6.41-3.66 3.25-9.2 6.83-16.99 8.53-.5.11-.91.45-1.11.92-.2.47-.16 1.01.11 1.44l5.51 8.87c.37.61 1.08.89 1.75.7zm47.96-2c3.83.84 8.15.99 13.39.99.42 0 .82-.17 1.11-.46.29-.29.46-.7.46-1.11v-9.84a1.578 1.578 0 00-1.69-1.57s-.17.01-.5.02c-.33.02-.81.03-1.4.03-1.34 0-3.22-.07-5.08-.36-1.86-.29-3.69-.82-4.89-1.59-.73-.46-1.45-1.28-2.06-2.3-.91-1.52-1.57-3.46-1.97-4.98-.2-.76-.34-1.42-.43-1.89-.04-.24-.08-.42-.1-.54l-.02-.18c-.11-.79-.8-1.37-1.6-1.35l-10.93.25c-.42.01-.82.19-1.11.5-.29.31-.45.72-.43 1.14 0 .07.12 3 1.03 6.7.92 3.69 2.6 8.19 6.01 11.34 3.03 2.77 6.38 4.37 10.21 5.2z"/></svg><svg viewBox="0 0 128 128" id="1F234" xmlns="http://www.w3.org/2000/svg"><path fill="#ed6c30" d="M119.79.34H8.21C3.88.34.34 3.88.34 8.21v111.58c0 4.33 3.54 7.87 7.87 7.87h111.58c4.33 0 7.87-3.54 7.87-7.87V8.21c0-4.33-3.54-7.87-7.87-7.87z"/><path fill="#fff" d="M89.21 67.91c.28 0 .56-.12.76-.31.2-.2.31-.48.31-.76v-9.69c0-.28-.11-.56-.31-.76-.2-.2-.48-.31-.76-.31H42.05c-.28 0-.56.12-.76.31-.2.2-.31.48-.31.76v9.69c0 .28.11.56.31.76.2.2.48.31.76.31h47.16zm10.15 5.65H31.9c-.28 0-.56.11-.76.32-.2.2-.31.48-.31.76v30.85c0 .28.11.56.31.76.2.2.48.31.76.31h67.46c.28 0 .56-.12.76-.31.2-.21.31-.48.31-.76V74.64c0-.28-.11-.57-.31-.76-.19-.21-.47-.32-.76-.32zM86.6 86.01v8.1l-.17.41-.41.17H45.24l-.41-.17-.17-.41v-8.1l.17-.41.41-.17h40.79l.41.17.16.41z"/><path fill="#fff" d="M114.24 49.73s-.36-.15-1.05-.46c-4.84-2.16-25.68-12.08-46.85-30.9l-.06-.03c-.06-.05-.14-.08-.21-.11a.95.95 0 00-.21-.09c-.03 0-.05-.02-.07-.02-.05-.01-.1.01-.16.01-.05 0-.1-.02-.16-.01-.02 0-.05.02-.07.02a.95.95 0 00-.21.09c-.07.03-.14.06-.21.11l-.06.03c-12.1 10.75-24.09 18.6-33.05 23.76-4.48 2.58-8.2 4.48-10.8 5.74-1.29.63-2.32 1.1-3 1.4-.69.31-1.05.46-1.05.46-.29.12-.51.36-.61.66-.1.3-.06.63.11.9l7.06 11.42c.28.45.84.63 1.33.42.06-.03 19.19-8 40.72-25.21 21.53 17.2 40.67 25.18 40.72 25.21.49.2 1.05.02 1.33-.42l7.06-11.42c.16-.27.21-.6.11-.9-.09-.3-.32-.53-.61-.66z"/></svg><svg viewBox="0 0 128 128" id="1F235" xmlns="http://www.w3.org/2000/svg"><path fill="#ed6c30" d="M119.79.34H8.21C3.88.34.34 3.88.34 8.21V119.8c0 4.33 3.54 7.87 7.87 7.87h111.58c4.33 0 7.87-3.54 7.87-7.87V8.21c0-4.33-3.54-7.87-7.87-7.87z"/><path fill="#fff" d="M104.93 46.37h-10.7v-5.95h8.39c.41 0 .82-.17 1.11-.46.29-.29.46-.7.46-1.11v-8.27c0-.41-.17-.82-.46-1.11-.29-.29-.7-.46-1.11-.46h-8.39v-5.48c0-.42-.17-.82-.46-1.11-.29-.29-.7-.46-1.11-.46h-8.91a1.574 1.574 0 00-1.57 1.57v5.48h-15.1v-5.48c0-.42-.17-.82-.46-1.11-.29-.29-.7-.46-1.12-.46h-8.91c-.42 0-.82.17-1.12.46-.3.28-.47.68-.47 1.1V29h-8.39c-.41 0-.82.17-1.11.46-.29.29-.46.7-.46 1.11v8.27c0 .41.17.82.46 1.11.29.29.7.46 1.11.46H55v5.95H44.3c-.42 0-.82.17-1.11.46-.29.29-.46.7-.46 1.11v8.26c0 .42.17.82.46 1.11.29.29.7.46 1.11.46h25.1v3.64H44.3c-.42 0-.82.17-1.11.46-.29.29-.46.7-.46 1.11v44.27c0 .41.17.82.46 1.11.29.29.7.46 1.11.46h8.91c.42 0 .82-.17 1.11-.46.29-.29.46-.7.46-1.11v-34.4h14.61V87h-2.21v-7.19c0-.42-.17-.82-.46-1.11-.29-.29-.7-.46-1.11-.46h-7.02c-.42 0-.82.17-1.11.46-.29.29-.46.7-.46 1.11V95.6c0 .42.17.82.46 1.11.29.29.7.46 1.11.46h32.06c.42 0 .82-.17 1.11-.46.29-.29.46-.7.46-1.11V79.81c0-.42-.17-.82-.46-1.11-.29-.29-.7-.46-1.11-.46h-7.03c-.41 0-.82.17-1.11.46-.29.29-.46.7-.46 1.11V87h-2.48V72.84h14.87v25.52H87.7c-.46 0-.91.21-1.21.57-.3.36-.42.84-.33 1.3l1.39 7.33c.14.74.79 1.28 1.55 1.28h10.11c.08 0 .86 0 1.89-.25 1.02-.25 2.35-.73 3.41-1.91 1.07-1.22 1.53-2.63 1.76-3.72.24-1.1.24-1.92.24-1.99v-1.03c0-.1-.04-.2-.05-.29.02-.1.05-.19.05-.29V63c0-.42-.17-.82-.46-1.11-.29-.29-.7-.46-1.11-.46H79.57v-3.64h25.36c.41 0 .82-.17 1.11-.46.29-.29.46-.69.46-1.11v-8.26c0-.42-.17-.82-.46-1.11-.29-.31-.69-.48-1.11-.48zm-37.87-5.95h15.1v5.95h-15.1v-5.95zm-30.3 41.24a1.579 1.579 0 00-2.43-.19L19.95 96.41c-.52.54-.59 1.38-.16 1.99l4.73 6.78a1.572 1.572 0 002.42.18l14.38-14.93c.52-.54.59-1.37.16-1.99l-4.72-6.78zm-4.75-12.47c.69.51 1.65.39 2.18-.29l5.1-6.51a1.573 1.573 0 00-.3-2.23L26.6 50.9c-.68-.51-1.65-.38-2.18.29l-5.1 6.51c-.26.34-.38.76-.32 1.18.05.42.28.8.62 1.05l12.39 9.26zm1.33-25.81c.69.51 1.66.38 2.18-.29l5.1-6.51c.26-.34.38-.76.32-1.18-.06-.43-.28-.8-.62-1.06l-12.39-9.25c-.68-.51-1.66-.39-2.18.29l-5.1 6.5c-.26.34-.38.76-.32 1.18.05.42.27.8.62 1.05l12.39 9.27z"/></svg><svg viewBox="0 0 128 128" id="1F236" xmlns="http://www.w3.org/2000/svg"><path fill="#40c0e7" d="M119.89.22H8.11C3.77.22.22 3.77.22 8.11v111.78c0 4.33 3.55 7.89 7.89 7.89h111.78c4.34 0 7.89-3.55 7.89-7.89V8.11c0-4.34-3.55-7.89-7.89-7.89z"/><path fill="#fff" d="M103.28 28.84H70.85c1.96-6.27 2.4-10.32 2.41-10.4.05-.45-.1-.9-.4-1.23-.3-.34-.74-.53-1.19-.53H60.39c-.76 0-1.41.53-1.56 1.28 0 0-.02.1-.07.33-.26 1.15-1.27 5.18-3.46 10.56H28.33c-.42 0-.83.17-1.13.46-.3.3-.46.71-.46 1.13v12.2c0 .42.17.83.46 1.13.3.3.71.47 1.13.47h18.71a74.629 74.629 0 01-5.09 6.62c-.02.01-.03.01-.05.02-.03.03-.04.06-.06.09-4.67 5.41-10.48 10.57-17.79 14.63-.38.21-.65.55-.76.97-.11.42-.06.86.16 1.23l6.28 10.62c.22.38.58.64 1.01.74.42.1.87.02 1.24-.22 3.43-2.24 6.57-4.57 9.46-6.96v35.44c0 .42.17.83.46 1.13.3.3.71.46 1.13.46h11.42c.42 0 .83-.17 1.13-.46.3-.3.46-.71.46-1.13v-15.3h28.67v4.55h-3.87c-.47 0-.92.21-1.22.56-.3.36-.44.84-.36 1.29l1.55 9.15c.13.77.79 1.33 1.57 1.33h9.01c.08 0 .92 0 2.05-.28 1.11-.27 2.56-.8 3.7-2.06 1.17-1.32 1.67-2.86 1.93-4.06.25-1.21.25-2.1.26-2.17V51.99c0-.42-.17-.83-.47-1.13-.3-.3-.71-.46-1.13-.46H60.67c1.36-2.1 2.58-4.17 3.67-6.18h38.94c.42 0 .83-.17 1.13-.47.3-.3.46-.71.46-1.13v-12.2c0-.42-.17-.83-.46-1.13-.3-.29-.71-.45-1.13-.45zM56.05 77.41h28.67v4.79H56.05v-4.79zm28.67-9.92H56.05V62.7h28.67v4.79z"/></svg><svg viewBox="0 0 128 128" id="1F237" xmlns="http://www.w3.org/2000/svg"><path fill="#fcc21b" d="M119.89.23H8.11C3.77.23.22 3.78.22 8.11V119.9c0 4.33 3.55 7.88 7.89 7.88h111.78c4.34 0 7.89-3.55 7.89-7.88V8.11c0-4.34-3.55-7.88-7.89-7.88z"/><path fill="#2f2f2f" d="M101.86 21.25H30.95c-.87 0-1.57.7-1.57 1.56v50.16c-.68 13.19-9.54 22.73-9.63 22.83-.29.31-.45.73-.43 1.16.02.43.22.83.54 1.11l10.93 9.37a1.562 1.562 0 002.19-.15c.42-.47 9.67-11.12 12.32-25.29h40.76v9.22H76.9c-.45 0-.89.2-1.18.54-.3.35-.44.8-.37 1.26l2.02 13.83c.11.77.77 1.34 1.55 1.34h14.64c.19 0 4.68-.05 7.21-3.34 2.63-3.39 2.66-8.55 2.66-8.77V22.81c-.01-.86-.71-1.56-1.57-1.56zM46.04 68.68v-8.6h40.02v8.6H46.04zm40.01-21.91H46.03v-8.6h40.02v8.6z"/></svg><svg viewBox="0 0 128 128" id="1F238" xmlns="http://www.w3.org/2000/svg"><path fill="#f79329" d="M119.86.25H8.13C3.79.25.25 3.79.25 8.13v111.73c0 4.33 3.54 7.89 7.88 7.89h111.73c4.34 0 7.88-3.56 7.88-7.89V8.13c.01-4.33-3.54-7.88-7.88-7.88z"/><path fill="#fff" d="M107.05 31H74.69V17.54c0-.41-.17-.82-.46-1.12-.29-.29-.7-.46-1.12-.46H56.13c-.42 0-.82.17-1.12.46-.29.29-.46.7-.46 1.12V31H22.18c-.42 0-.82.17-1.12.46-.29.29-.46.69-.46 1.11v54.18c0 .41.17.82.46 1.12.29.29.7.46 1.12.46h32.37v21.81c0 .42.17.82.46 1.12.29.29.7.46 1.12.46h16.98c.42 0 .82-.17 1.12-.46.29-.29.46-.7.46-1.12V88.33h32.37c.42 0 .82-.17 1.12-.46.29-.29.46-.71.46-1.12V32.57c0-.42-.17-.82-.46-1.11-.3-.29-.71-.46-1.13-.46zm-52.5 14.5v8.23H36.48c-.26 0-.52-.11-.71-.29-.19-.19-.29-.45-.29-.71V45.5c0-.27.11-.52.29-.71.19-.19.45-.29.71-.29h18.07v1zM35.48 66.62c0-.26.11-.52.29-.71.19-.19.45-.29.71-.29h18.07v9.23H36.48c-.26 0-.52-.11-.71-.29-.19-.19-.29-.45-.29-.71v-7.23zm39.21 7.22v-8.22h18.07c.26 0 .52.11.71.29.19.19.29.44.29.71v7.22c0 .26-.11.53-.29.71a.99.99 0 01-.71.29H74.69v-1zm18.77-20.4a.99.99 0 01-.71.29H74.69V44.5h18.07c.26 0 .52.11.71.29.19.19.29.44.29.71v7.22c0 .27-.11.53-.3.72z"/></svg><svg viewBox="0 0 128 128" id="1F239" xmlns="http://www.w3.org/2000/svg"><path fill="#ed6c30" d="M119.71.43H8.28C3.96.43.42 3.96.42 8.29v111.43c0 4.32 3.53 7.86 7.86 7.86h111.43c4.32 0 7.86-3.54 7.86-7.86V8.29c0-4.33-3.53-7.86-7.86-7.86z"/><path fill="#fff" d="M104.87 26.72H94.58c-.42 0-.82.16-1.11.46-.29.29-.46.7-.46 1.11v65.53h-8.13c-.45 0-.88.2-1.18.53-.3.34-.44.79-.38 1.24l1.39 10.76c.1.79.77 1.37 1.56 1.37h12.89c.08 0 .85 0 1.88-.25 1.02-.25 2.35-.73 3.41-1.9 1.07-1.22 1.52-2.62 1.76-3.72.23-1.1.23-1.91.23-1.99V28.29c0-.41-.17-.82-.46-1.11-.29-.3-.7-.46-1.11-.46z"/><path fill="#fff" d="M87.57 84.6c.29-.29.46-.7.46-1.11v-55.2c0-.41-.17-.82-.46-1.11-.29-.29-.7-.46-1.11-.46h-10.3c-.41 0-.82.16-1.11.46-.29.29-.46.7-.46 1.11v55.2c0 .41.17.82.46 1.11.29.29.7.46 1.11.46h10.29c.42 0 .82-.17 1.12-.46zm-20.16-.71H25.14c-.41 0-.82.17-1.11.46-.29.29-.46.7-.46 1.11v20.94c0 .41.17.82.46 1.11.29.29.7.46 1.11.46h42.27c.41 0 .82-.17 1.11-.46.29-.29.46-.7.46-1.11V85.46c0-.41-.17-.82-.46-1.11-.29-.29-.7-.46-1.11-.46zm-10.49 9.15v5.77l-.17.41-.41.16H36.2l-.4-.16-.17-.41v-5.77l.17-.4.4-.17h20.14l.41.17.17.4zm13.02-61.8H52.06v-5.66c0-.42-.17-.82-.46-1.12-.29-.29-.7-.46-1.11-.46h-8.43c-.42 0-.82.17-1.11.46-.29.3-.46.7-.46 1.12v5.66H22.61c-.41 0-.82.17-1.11.46-.29.29-.46.7-.46 1.11v8.59c0 .22.06.43.15.63v7.29c0 .41.17.82.46 1.11.29.29.7.46 1.11.46h7.1c.41 0 .82-.17 1.11-.46.29-.29.46-.7.46-1.11v-6.35h9.06v3.9h-4.85c-.41 0-.82.17-1.11.46-.29.29-.46.7-.46 1.11v6.21c0 .41.17.82.46 1.11.29.29.7.46 1.11.46h4.85v2.76h-9.71c-.41 0-.82.17-1.11.46-.29.29-.46.69-.46 1.11v6.21c0 .42.17.81.46 1.11.29.29.7.46 1.11.46h9.71v2.76H25.14c-.41 0-.82.17-1.11.46-.29.29-.46.7-.46 1.11v6.21c0 .42.17.82.46 1.11.29.29.7.46 1.11.46h42.27c.41 0 .82-.17 1.11-.46.29-.29.46-.7.46-1.11v-6.21c0-.41-.17-.82-.46-1.11-.29-.29-.7-.46-1.11-.46H52.06v-2.76h9.71a1.574 1.574 0 001.57-1.57v-6.21c0-.41-.17-.81-.46-1.11-.29-.29-.7-.46-1.11-.46h-9.71v-2.76h4.85c.41 0 .82-.17 1.11-.46.29-.29.46-.7.46-1.11v-6.21c0-.41-.17-.82-.46-1.11-.29-.29-.7-.46-1.11-.46h-4.85v-3.9h9.2v6.35c0 .41.17.82.46 1.11.29.29.7.46 1.11.46h7.1c.42 0 .82-.17 1.11-.46.29-.29.46-.7.46-1.11v-16.5c0-.41-.17-.82-.46-1.11-.28-.3-.69-.47-1.1-.47z"/></svg><svg viewBox="0 0 128 128" id="1F23A" xmlns="http://www.w3.org/2000/svg"><path fill="#f79329" d="M119.85.27H8.15C3.82.27.27 3.81.27 8.15v111.7c0 4.34 3.54 7.88 7.88 7.88h111.7c4.33 0 7.88-3.54 7.88-7.88V8.15c0-4.33-3.55-7.88-7.88-7.88z"/><path fill="#fff" d="M105.48 29.13h-13.6l3.03-7.3c.33-.8-.05-1.73-.85-2.07l-9.82-4.08c-.39-.17-.83-.17-1.22 0s-.7.48-.86.87l-5 12.57h-6.52V17.06c0-.28-.12-.57-.32-.76-.2-.21-.48-.31-.76-.31H58.42c-.28 0-.56.11-.76.31-.2.2-.31.48-.31.76v12.07h-6.21V17.06c0-.28-.11-.57-.31-.76-.2-.21-.48-.31-.76-.31H38.9c-.28 0-.56.11-.76.31-.2.2-.32.48-.32.76v12.07H24.49c-.42 0-.82.17-1.12.46-.29.29-.46.7-.46 1.12v26.62c0 .41.17.82.46 1.12.29.29.7.46 1.12.46h12.19c.42 0 .82-.17 1.11-.46.29-.29.46-.7.46-1.12V40.92h53.46v16.41c0 .41.17.82.46 1.12.29.29.7.46 1.12.46h12.19c.42 0 .82-.17 1.12-.46.29-.29.46-.7.46-1.12V30.71c0-.42-.17-.82-.46-1.12-.3-.29-.71-.46-1.12-.46z"/><path fill="#fff" d="M100.54 80.49H64.3l2.23-6.62h18.55c.42 0 .82-.17 1.12-.46.29-.29.46-.7.46-1.12V48.41c0-.41-.17-.82-.46-1.12-.29-.29-.7-.46-1.12-.46H45.34c-.42 0-.82.17-1.12.46-.29.29-.46.7-.46 1.12V72.3c0 .41.17.82.46 1.12.29.29.7.46 1.12.46h6.45l-2.23 6.62H29.88c-.42 0-.82.17-1.12.46-.29.29-.46.69-.46 1.11v26.92c0 .42.17.82.46 1.12.29.29.7.46 1.12.46h70.66c.41 0 .82-.17 1.11-.46.29-.29.46-.69.46-1.12V82.07c0-.42-.17-.82-.46-1.11-.29-.3-.69-.47-1.11-.47zM55.17 57.06l.17-.4.41-.17h18.93l.41.17.17.4v6.59l-.17.4-.41.18H55.74l-.41-.18-.17-.4v-6.59zm33.02 41.98l-.17.41-.41.17h-44.8l-.41-.17-.17-.41V92l.17-.41.41-.17h44.8l.41.17.17.41v7.04z"/></svg><svg viewBox="0 0 128 128" id="1F250" xmlns="http://www.w3.org/2000/svg"><path fill="#ed6c30" d="M64 .15C28.74.15.15 28.74.15 64c0 35.27 28.59 63.85 63.85 63.85 35.26 0 63.85-28.58 63.85-63.85C127.85 28.74 99.26.15 64 .15z"/><path fill="#fff" d="M58.29 61.52h39.65c.39 0 .77-.16 1.04-.43s.43-.66.43-1.04V26.77c0-.39-.16-.77-.43-1.04-.27-.28-.65-.43-1.04-.43H58.29c-.39 0-.77.15-1.04.43-.27.27-.43.65-.43 1.04v33.28c0 .38.16.77.43 1.04.28.27.65.43 1.04.43zm30.79-21.95l-.38.16H67.54l-.38-.16-.16-.38v-4.13l.16-.38.38-.16H88.7l.38.16.16.38v4.13l-.16.38zm.15 8.22v4.13l-.16.38-.38.16H67.54l-.38-.16-.16-.38v-4.13l.16-.38.38-.16H88.7l.38.16.15.38zm14.93 17.25H52.29c-.39 0-.77.15-1.04.43-.27.27-.43.65-.43 1.04v7.7c0 .39.16.77.43 1.04.28.28.65.43 1.04.43H82.4v3.53H52.29c-.39 0-.77.15-1.04.43s-.43.66-.43 1.04v6.3c0 .38.16.77.43 1.04.28.28.65.43 1.04.43H82.4v6.79h-3.58c-.43 0-.84.19-1.12.52-.28.33-.4.77-.33 1.2l1.42 8.44c.12.71.74 1.22 1.45 1.22h8.31c.07 0 .85 0 1.89-.24 1.03-.26 2.36-.74 3.42-1.91 1.08-1.22 1.54-2.64 1.78-3.75.24-1.1.24-1.93.24-2V88.44h8.27c.39 0 .77-.15 1.04-.43s.43-.66.43-1.04v-6.3c0-.38-.16-.77-.43-1.04s-.65-.43-1.04-.43h-8.27v-3.53h8.27c.39 0 .77-.16 1.04-.43s.43-.65.43-1.04v-7.7c0-.39-.16-.77-.43-1.04-.27-.26-.64-.42-1.03-.42z"/><path fill="#fff" d="M72.26 91.83H60.28c-.39 0-.77.16-1.04.43-.27.28-.43.65-.43 1.04v7.54c0 .39.16.77.43 1.04s.65.43 1.04.43h11.99c.39 0 .77-.16 1.04-.43.27-.28.43-.65.43-1.04V93.3c0-.39-.16-.77-.43-1.04-.28-.27-.66-.43-1.05-.43zM25.47 45.31c.14.36.43.66.79.82.35.15.76.15 1.12.02l20.4-8.05c.36-.14.65-.43.81-.79.15-.36.16-.77.02-1.13l-3.51-8.89c-.3-.75-1.15-1.12-1.91-.82l-20.4 8.04c-.76.29-1.13 1.15-.83 1.91l3.51 8.89zm25.66 9.88l-3.51-8.89c-.15-.38-.42-.66-.79-.81-.36-.16-.76-.17-1.13-.02l-22.92 9.12c-.76.3-1.12 1.15-.83 1.91l3.51 8.89c.15.37.42.66.79.81.36.15.76.16 1.13.02l5.24-2.08v39.22c0 .39.15.77.43 1.04.27.27.65.43 1.04.43h9.5c.39 0 .77-.16 1.04-.43s.43-.65.43-1.04V59.18l5.23-2.08c.77-.31 1.14-1.17.84-1.91z"/></svg><svg viewBox="0 0 128 128" id="1F251" xmlns="http://www.w3.org/2000/svg"><path fill="#40c0e7" d="M64 .15C28.74.15.15 28.74.15 64c0 35.27 28.59 63.85 63.85 63.85 35.26 0 63.85-28.58 63.85-63.85C127.85 28.74 99.26.15 64 .15z"/><path fill="#fff" d="M101.2 35.87H25.6c-.39 0-.77.16-1.04.43s-.43.66-.43 1.04V48.6c0 .38.15.76.43 1.04.27.28.65.43 1.04.43h48.56v42.25H68.9c-.43 0-.84.19-1.12.52-.28.33-.4.77-.33 1.2l1.9 11.25c.12.71.74 1.23 1.45 1.23h11.07c.08 0 1.09-.01 2.41-.33s3.01-.95 4.31-2.39c1.35-1.52 1.94-3.34 2.25-4.77.31-1.43.31-2.49.31-2.57V50.07h10.04c.39 0 .77-.16 1.04-.43s.43-.65.43-1.04V37.34c0-.38-.16-.77-.43-1.04-.26-.27-.64-.43-1.03-.43z"/><path fill="#fff" d="M65.96 57H34.44c-.39 0-.76.16-1.04.43-.27.27-.43.65-.43 1.04V87.7c0 .38.16.77.44 1.04.27.28.65.43 1.04.43h31.52c.39 0 .77-.15 1.04-.43.27-.27.43-.66.43-1.04V58.47c0-.39-.16-.77-.43-1.04-.28-.28-.66-.43-1.05-.43zm-9.28 10.52v11.12l-.15.38-.38.16H44.26l-.38-.16-.16-.38V67.52l.16-.38.38-.15h11.88l.38.15.16.38z"/></svg><svg viewBox="0 0 128 128" id="1F520" xmlns="http://www.w3.org/2000/svg"><path fill="#3e99ff" d="M7.4 0c18.867 0 37.158.959 56.025.959C82.29.959 101.733 0 120.6 0c4.1 0 7.4 3.3 7.4 7.4 0 18.867-.575 30.447-.575 49.313 0 18.867.575 45.02.575 63.887 0 4.1-3.3 7.4-7.4 7.4-18.867 0-35.24-1.918-54.107-1.918C47.626 126.082 26.267 128 7.4 128c-4.1 0-7.4-3.3-7.4-7.4 0-18.867.959-38.692.959-57.559C.959 44.175 0 26.267 0 7.4 0 3.3 3.3 0 7.4 0z"/><path fill="#2089ff" d="M125.143 1.178C87.202 46.084 32.053 77.426.87 124.195a7.375 7.375 0 005.658 2.627c18.867 0 40.225-1.918 59.092-1.918 18.867 0 35.24 1.918 54.108 1.918 4.1 0 7.4-3.3 7.4-7.4 0-18.867-.576-45.02-.576-63.887 0-18.867.576-30.446.576-49.312a7.37 7.37 0 00-1.986-5.045z"/><text style="line-height:1.25;font-variant-ligatures:normal;font-variant-position:normal;font-variant-caps:normal;font-variant-numeric:normal;font-variant-alternates:normal;font-feature-settings:normal;text-indent:0;text-align:start;text-decoration-line:none;text-decoration-style:solid;text-decoration-color:#000;text-transform:none;text-orientation:mixed;white-space:normal" x="75.313" y="54.549" fill="#fff" font-family="Comic Neue" font-size="66.139" font-weight="700" letter-spacing="0" word-spacing="0"><tspan x="75.313" y="54.549" style="line-height:1.25;font-variant-ligatures:normal;font-variant-position:normal;font-variant-caps:normal;font-variant-numeric:normal;font-variant-alternates:normal;font-feature-settings:normal;text-indent:0;text-align:start;text-decoration-line:none;text-decoration-style:solid;text-decoration-color:#000;text-transform:none;text-orientation:mixed;white-space:normal">B</tspan></text><text x="11.096" y="118.519" style="line-height:1.25;font-variant-ligatures:normal;font-variant-position:normal;font-variant-caps:normal;font-variant-numeric:normal;font-variant-alternates:normal;font-feature-settings:normal;text-indent:0;text-align:start;text-decoration-line:none;text-decoration-style:solid;text-decoration-color:#000;text-transform:none;text-orientation:mixed;white-space:normal" fill="#fff" font-family="Comic Neue" font-size="66.139" font-weight="700" letter-spacing="0" word-spacing="0"><tspan style="line-height:1.25;font-variant-ligatures:normal;font-variant-position:normal;font-variant-caps:normal;font-variant-numeric:normal;font-variant-alternates:normal;font-feature-settings:normal;text-indent:0;text-align:start;text-decoration-line:none;text-decoration-style:solid;text-decoration-color:#000;text-transform:none;text-orientation:mixed;white-space:normal" x="11.096" y="118.519">C</tspan></text><text style="line-height:1.25;font-variant-ligatures:normal;font-variant-position:normal;font-variant-caps:normal;font-variant-numeric:normal;font-variant-alternates:normal;font-feature-settings:normal;text-indent:0;text-align:start;text-decoration-line:none;text-decoration-style:solid;text-decoration-color:#000;text-transform:none;text-orientation:mixed;white-space:normal" x="11.327" y="54.814" fill="#2f2f2f" font-family="Comic Neue" font-size="66.139" font-weight="700" letter-spacing="0" word-spacing="0"><tspan x="11.327" y="54.814" style="line-height:1.25;font-variant-ligatures:normal;font-variant-position:normal;font-variant-caps:normal;font-variant-numeric:normal;font-variant-alternates:normal;font-feature-settings:normal;text-indent:0;text-align:start;text-decoration-line:none;text-decoration-style:solid;text-decoration-color:#000;text-transform:none;text-orientation:mixed;white-space:normal" fill="#fff">A</tspan></text><text style="line-height:1.25;font-variant-ligatures:normal;font-variant-position:normal;font-variant-caps:normal;font-variant-numeric:normal;font-variant-alternates:normal;font-feature-settings:normal;text-indent:0;text-align:start;text-decoration-line:none;text-decoration-style:solid;text-decoration-color:#000;text-transform:none;text-orientation:mixed;white-space:normal" x="75.081" y="117.857" fill="#2f2f2f" font-family="Comic Neue" font-size="66.139" font-weight="700" letter-spacing="0" word-spacing="0"><tspan x="75.081" y="117.857" style="line-height:1.25;font-variant-ligatures:normal;font-variant-position:normal;font-variant-caps:normal;font-variant-numeric:normal;font-variant-alternates:normal;font-feature-settings:normal;text-indent:0;text-align:start;text-decoration-line:none;text-decoration-style:solid;text-decoration-color:#000;text-transform:none;text-orientation:mixed;white-space:normal" fill="#fff">D</tspan></text></svg><svg viewBox="0 0 128 128" id="1F521" xmlns="http://www.w3.org/2000/svg"><path fill="#3e99ff" d="M7.4 0c18.867 0 37.158.959 56.025.959C82.29.959 101.733 0 120.6 0c4.1 0 7.4 3.3 7.4 7.4 0 18.867-.575 30.447-.575 49.313 0 18.867.575 45.02.575 63.887 0 4.1-3.3 7.4-7.4 7.4-18.867 0-35.24-1.918-54.107-1.918C47.626 126.082 26.267 128 7.4 128c-4.1 0-7.4-3.3-7.4-7.4 0-18.867.959-38.692.959-57.559C.959 44.175 0 26.267 0 7.4 0 3.3 3.3 0 7.4 0z"/><path fill="#2089ff" d="M125.143 1.178C87.202 46.084 32.053 77.426.87 124.195a7.375 7.375 0 005.658 2.627c18.867 0 40.225-1.918 59.092-1.918 18.867 0 35.24 1.918 54.108 1.918 4.1 0 7.4-3.3 7.4-7.4 0-18.867-.576-45.02-.576-63.887 0-18.867.576-30.446.576-49.312a7.37 7.37 0 00-1.986-5.045z"/><text x="77.896" y="54.549" style="line-height:1.25;font-variant-ligatures:normal;font-variant-position:normal;font-variant-caps:normal;font-variant-numeric:normal;font-variant-alternates:normal;font-feature-settings:normal;text-indent:0;text-align:start;text-decoration-line:none;text-decoration-style:solid;text-decoration-color:#000;text-transform:none;text-orientation:mixed;white-space:normal" fill="#fff" font-family="Comic Neue" font-size="66.139" font-weight="700" letter-spacing="0" word-spacing="0"><tspan style="line-height:1.25;font-variant-ligatures:normal;font-variant-position:normal;font-variant-caps:normal;font-variant-numeric:normal;font-variant-alternates:normal;font-feature-settings:normal;text-indent:0;text-align:start;text-decoration-line:none;text-decoration-style:solid;text-decoration-color:#000;text-transform:none;text-orientation:mixed;white-space:normal" x="77.896" y="54.549">b</tspan></text><text style="line-height:1.25;font-variant-ligatures:normal;font-variant-position:normal;font-variant-caps:normal;font-variant-numeric:normal;font-variant-alternates:normal;font-feature-settings:normal;text-indent:0;text-align:start;text-decoration-line:none;text-decoration-style:solid;text-decoration-color:#000;text-transform:none;text-orientation:mixed;white-space:normal" x="15.165" y="118.519" fill="#fff" font-family="Comic Neue" font-size="66.139" font-weight="700" letter-spacing="0" word-spacing="0"><tspan x="15.165" y="118.519" style="line-height:1.25;font-variant-ligatures:normal;font-variant-position:normal;font-variant-caps:normal;font-variant-numeric:normal;font-variant-alternates:normal;font-feature-settings:normal;text-indent:0;text-align:start;text-decoration-line:none;text-decoration-style:solid;text-decoration-color:#000;text-transform:none;text-orientation:mixed;white-space:normal">c</tspan></text><text x="15.267" y="54.814" style="line-height:1.25;font-variant-ligatures:normal;font-variant-position:normal;font-variant-caps:normal;font-variant-numeric:normal;font-variant-alternates:normal;font-feature-settings:normal;text-indent:0;text-align:start;text-decoration-line:none;text-decoration-style:solid;text-decoration-color:#000;text-transform:none;text-orientation:mixed;white-space:normal" fill="#2f2f2f" font-family="Comic Neue" font-size="66.139" font-weight="700" letter-spacing="0" word-spacing="0"><tspan style="line-height:1.25;font-variant-ligatures:normal;font-variant-position:normal;font-variant-caps:normal;font-variant-numeric:normal;font-variant-alternates:normal;font-feature-settings:normal;text-indent:0;text-align:start;text-decoration-line:none;text-decoration-style:solid;text-decoration-color:#000;text-transform:none;text-orientation:mixed;white-space:normal" x="15.267" y="54.814" fill="#fff">a</tspan></text><text x="78.052" y="117.857" style="line-height:1.25;font-variant-ligatures:normal;font-variant-position:normal;font-variant-caps:normal;font-variant-numeric:normal;font-variant-alternates:normal;font-feature-settings:normal;text-indent:0;text-align:start;text-decoration-line:none;text-decoration-style:solid;text-decoration-color:#000;text-transform:none;text-orientation:mixed;white-space:normal" fill="#2f2f2f" font-family="Comic Neue" font-size="66.139" font-weight="700" letter-spacing="0" word-spacing="0"><tspan style="line-height:1.25;font-variant-ligatures:normal;font-variant-position:normal;font-variant-caps:normal;font-variant-numeric:normal;font-variant-alternates:normal;font-feature-settings:normal;text-indent:0;text-align:start;text-decoration-line:none;text-decoration-style:solid;text-decoration-color:#000;text-transform:none;text-orientation:mixed;white-space:normal" x="78.052" y="117.857" fill="#fff">d</tspan></text></svg><svg viewBox="0 0 128 128" id="1F522" xmlns="http://www.w3.org/2000/svg"><path fill="#3e99ff" d="M7.4 0c18.867 0 37.158.959 56.025.959C82.29.959 101.733 0 120.6 0c4.1 0 7.4 3.3 7.4 7.4 0 18.867-.575 30.447-.575 49.313 0 18.867.575 45.02.575 63.887 0 4.1-3.3 7.4-7.4 7.4-18.867 0-35.24-1.918-54.107-1.918C47.626 126.082 26.267 128 7.4 128c-4.1 0-7.4-3.3-7.4-7.4 0-18.867.959-38.692.959-57.559C.959 44.175 0 26.267 0 7.4 0 3.3 3.3 0 7.4 0z"/><path fill="#2089ff" d="M126.014 2.355C88.073 47.262 32.924 78.604 1.742 125.373A7.375 7.375 0 007.4 128c18.867 0 40.226-1.918 59.092-1.918 18.867 0 35.24 1.918 54.108 1.918 4.1 0 7.4-3.3 7.4-7.4 0-18.867-.576-45.02-.576-63.887 0-18.867.576-30.446.576-49.313a7.37 7.37 0 00-1.986-5.045z"/><text style="line-height:1.25;font-variant-ligatures:normal;font-variant-position:normal;font-variant-caps:normal;font-variant-numeric:normal;font-variant-alternates:normal;font-feature-settings:normal;text-indent:0;text-align:start;text-decoration-line:none;text-decoration-style:solid;text-decoration-color:#000;text-transform:none;text-orientation:mixed;white-space:normal" x="78.1" y="54.549" fill="#fff" font-family="Comic Neue" font-size="66.139" font-weight="700" letter-spacing="0" word-spacing="0"><tspan x="78.1" y="54.549" style="line-height:1.25;font-variant-ligatures:normal;font-variant-position:normal;font-variant-caps:normal;font-variant-numeric:normal;font-variant-alternates:normal;font-feature-settings:normal;text-indent:0;text-align:start;text-decoration-line:none;text-decoration-style:solid;text-decoration-color:#000;text-transform:none;text-orientation:mixed;white-space:normal">2</tspan></text><text x="13.491" y="117.725" style="line-height:1.25;font-variant-ligatures:normal;font-variant-position:normal;font-variant-caps:normal;font-variant-numeric:normal;font-variant-alternates:normal;font-feature-settings:normal;text-indent:0;text-align:start;text-decoration-line:none;text-decoration-style:solid;text-decoration-color:#000;text-transform:none;text-orientation:mixed;white-space:normal" fill="#fff" font-family="Comic Neue" font-size="66.139" font-weight="700" letter-spacing="0" word-spacing="0"><tspan style="line-height:1.25;font-variant-ligatures:normal;font-variant-position:normal;font-variant-caps:normal;font-variant-numeric:normal;font-variant-alternates:normal;font-feature-settings:normal;text-indent:0;text-align:start;text-decoration-line:none;text-decoration-style:solid;text-decoration-color:#000;text-transform:none;text-orientation:mixed;white-space:normal" x="13.491" y="117.725">3</tspan></text><text style="line-height:1.25;font-variant-ligatures:normal;font-variant-position:normal;font-variant-caps:normal;font-variant-numeric:normal;font-variant-alternates:normal;font-feature-settings:normal;text-indent:0;text-align:start;text-decoration-line:none;text-decoration-style:solid;text-decoration-color:#000;text-transform:none;text-orientation:mixed;white-space:normal" x="17.989" y="54.649" fill="#2f2f2f" font-family="Comic Neue" font-size="66.139" font-weight="700" letter-spacing="0" word-spacing="0"><tspan x="17.989" y="54.649" style="line-height:1.25;font-variant-ligatures:normal;font-variant-position:normal;font-variant-caps:normal;font-variant-numeric:normal;font-variant-alternates:normal;font-feature-settings:normal;text-indent:0;text-align:start;text-decoration-line:none;text-decoration-style:solid;text-decoration-color:#000;text-transform:none;text-orientation:mixed;white-space:normal" fill="#fff">1</tspan></text><text style="line-height:1.25;font-variant-ligatures:normal;font-variant-position:normal;font-variant-caps:normal;font-variant-numeric:normal;font-variant-alternates:normal;font-feature-settings:normal;text-indent:0;text-align:start;text-decoration-line:none;text-decoration-style:solid;text-decoration-color:#000;text-transform:none;text-orientation:mixed;white-space:normal" x="78.827" y="117.857" fill="#2f2f2f" font-family="Comic Neue" font-size="66.139" font-weight="700" letter-spacing="0" word-spacing="0"><tspan x="78.827" y="117.857" style="line-height:1.25;font-variant-ligatures:normal;font-variant-position:normal;font-variant-caps:normal;font-variant-numeric:normal;font-variant-alternates:normal;font-feature-settings:normal;text-indent:0;text-align:start;text-decoration-line:none;text-decoration-style:solid;text-decoration-color:#000;text-transform:none;text-orientation:mixed;white-space:normal" fill="#fff">4</tspan></text></svg><svg viewBox="0 0 128 128" id="1F523" xmlns="http://www.w3.org/2000/svg"><path fill="#3e99ff" d="M7.4 0c18.867 0 37.158.959 56.025.959C82.29.959 101.733 0 120.6 0c4.1 0 7.4 3.3 7.4 7.4 0 18.867-.575 30.447-.575 49.313 0 18.867.575 45.02.575 63.887 0 4.1-3.3 7.4-7.4 7.4-18.867 0-35.24-1.918-54.107-1.918C47.626 126.082 26.267 128 7.4 128c-4.1 0-7.4-3.3-7.4-7.4 0-18.867.959-38.692.959-57.559C.959 44.175 0 26.267 0 7.4 0 3.3 3.3 0 7.4 0z"/><path fill="#2089ff" d="M126.014 2.355C88.073 47.262 32.924 78.604 1.742 125.373A7.375 7.375 0 007.4 128c18.867 0 40.226-1.918 59.092-1.918 18.867 0 35.24 1.918 54.108 1.918 4.1 0 7.4-3.3 7.4-7.4 0-18.867-.576-45.02-.576-63.887 0-18.867.576-30.446.576-49.313a7.37 7.37 0 00-1.986-5.045z"/><path fill="#fff" d="M10.89 11.51c-.41 0-.74.33-.74.73v8.59c0 .4.34.72.74.72h42.37c.41 0 .73-.32.73-.72H54v-8.59c0-.41-.33-.73-.73-.73H10.89zm0 17.34c-.41 0-.74.33-.74.73v8.59c0 .41.34.73.74.73h15.83v17.04c0 .41.33.73.73.73h9.26c.4 0 .73-.33.73-.73V38.9h15.82c.41 0 .73-.33.73-.73H54v-8.59c0-.41-.33-.73-.73-.73H10.89z"/><path fill="#fff" stroke-width=".937" d="M104.63 77.106l-.495.262-9.586 14.655c.028-.319.084-.618.084-.937 0-6.034-4.32-10.916-11.244-10.916-6.915 0-11.244 4.882-11.244 10.916 0 6.025 4.329 10.907 11.244 10.907 2.09 0 3.898-.487 5.463-1.264l-10.344 15.806-.03.6.517.31H89.91l.496-.273 7.61-11.872c0 .094-.03.18-.03.273 0 6.034 4.33 10.915 11.254 10.915 6.915 0 11.244-4.881 11.253-10.897 0-6.034-4.329-10.916-11.244-10.916-1.921 0-3.616.403-5.097 1.078l11.367-17.747.018-.59-.516-.31zm-21.241 9.68c2.727 0 4.432 1.92 4.432 4.3s-1.696 4.3-4.432 4.3c-2.727 0-4.433-1.92-4.433-4.3s1.706-4.3 4.433-4.3zm25.852 14.495c2.726 0 4.432 1.921 4.432 4.301s-1.706 4.3-4.432 4.3c-2.736 0-4.442-1.92-4.442-4.3s1.706-4.3 4.442-4.3z"/><path fill="#fff" stroke-width=".948" d="M79.249 54.575a12.31 12.31 0 002.274 1.308c4.34 1.857 9.513.55 13.322-1.933 3.487-2.274 7.144-6.661 6.623-10.954v-.019l-.265-19.282c.18-.01.34-.01.492-.019 1.44-.01 2.9.105 4.312.38 2.643.52 5.306 1.553 7.21 3.515 1.905 1.942 3.667 3.866 6.49 4.377 1.185.209 3.232-.151 3.98-1.184 1.232-1.696-1.44-2.303-2.255-3.174-.767-.834-1.061-2.274-1.25-3.364-.616-3.695-2.19-7.088-4.965-9.636-3.705-3.402-8.775-5.686-14.204-6.661-.777-.143-1.677-.2-2.492-.029-.019 0-.028-.01-.047-.01a2.493 2.493 0 00-2.464 2.54l.36 25.981c-1.544-.824-3.278-1.317-5.078-1.507-4.501-.464-9.39.929-12.546 3.715-1.06.938-2.122 2.17-2.757 3.44-.663 1.307-1.203 3.23-1.09 4.708.256 3.08 1.8 6.008 4.35 7.808z"/><path fill="#fff" stroke-width=".877" d="M32.072 71.716c-14.59 0-25.187 10.325-25.187 24.555 0 14.229 10.589 24.563 25.187 24.563 5.912 0 11.307-1.676 15.606-4.843l-4.456-6.035c-3 2.21-6.852 3.377-11.16 3.377-10.412 0-17.676-7.018-17.676-17.054 0-10.035 7.272-17.045 17.677-17.045 13.036 0 17.677 9.15 17.677 17.703l.017.299c.026.412-.052 1.693-.675 2.596-.14.15-.79.51-1.606.51-.465 0-1.324-.097-1.86-.747-.947-1.14-1.456-4.044-1.49-5.632h-.045V85.48a.528.528 0 00-.526-.526h-6.36a.528.528 0 00-.527.526v.658c-1.807-.982-3.93-1.588-6.395-1.588-7.667 0-12.457 5.413-12.457 12.09 0 6.684 4.79 12.096 12.457 12.096 4.22 0 7.518-1.666 9.676-4.254 1.825 2.14 4.553 3.36 7.536 3.36 3.14 0 6.176-1.448 7.746-3.694 2.097-3.017 2.088-6.386 2.036-7.333-.053-15.028-10.168-25.099-25.195-25.099zm-1.79 30.494c-3.544 0-5.764-2.5-5.764-5.597 0-3.088 2.22-5.597 5.764-5.597 3.553 0 5.764 2.509 5.764 5.597 0 3.096-2.211 5.597-5.764 5.597z"/></svg><svg viewBox="0 0 128 128" id="1F524" xmlns="http://www.w3.org/2000/svg"><path fill="#3e99ff" d="M7.4 0c18.867 0 37.158.959 56.025.959C82.29.959 101.733 0 120.6 0c4.1 0 7.4 3.3 7.4 7.4 0 18.867-.575 30.447-.575 49.313 0 18.867.575 45.02.575 63.887 0 4.1-3.3 7.4-7.4 7.4-18.867 0-35.24-1.918-54.107-1.918C47.626 126.082 26.267 128 7.4 128c-4.1 0-7.4-3.3-7.4-7.4 0-18.867.959-38.692.959-57.559C.959 44.175 0 26.267 0 7.4 0 3.3 3.3 0 7.4 0z"/><path fill="#2089ff" d="M125.143 1.178C87.202 46.084 32.053 77.426.87 124.195a7.375 7.375 0 005.658 2.627c18.867 0 40.225-1.918 59.092-1.918 18.867 0 35.24 1.918 54.108 1.918 4.1 0 7.4-3.3 7.4-7.4 0-18.867-.576-45.02-.576-63.887 0-18.867.576-30.446.576-49.312a7.37 7.37 0 00-1.986-5.045z"/><text style="line-height:1.25;font-variant-ligatures:normal;font-variant-caps:normal;font-variant-numeric:normal;font-feature-settings:normal;text-align:start" x="12.536" y="82.701" fill="#fff" stroke-width="2.916" font-family="Comic Neue" font-size="54.441" font-weight="400" letter-spacing="0" word-spacing="0"><tspan x="12.536" y="82.701" font-weight="700">a</tspan></text><text x="49.002" y="82.658" style="line-height:1.25;font-variant-ligatures:normal;font-variant-caps:normal;font-variant-numeric:normal;font-feature-settings:normal;text-align:start" fill="#fff" stroke-width="2.97" font-family="Comic Neue" font-size="55.447" font-weight="400" letter-spacing="0" word-spacing="0"><tspan x="49.002" y="82.658" font-weight="700">b</tspan></text><text style="line-height:1.25;font-variant-ligatures:normal;font-variant-caps:normal;font-variant-numeric:normal;font-feature-settings:normal;text-align:start" x="85.527" y="84.12" fill="#fff" stroke-width="3.161" font-family="Comic Neue" font-size="59.004" font-weight="400" letter-spacing="0" word-spacing="0"><tspan x="85.527" y="84.12" font-weight="700">c</tspan></text></svg><svg viewBox="0 0 128 128" id="2139" xmlns="http://www.w3.org/2000/svg"><path fill="#40c0e7" d="M64 .41C28.93.41.41 28.93.41 64c0 35.06 28.52 63.59 63.58 63.59S127.58 99.07 127.58 64C127.59 28.93 99.06.41 64 .41zm0 118C34 118.41 9.6 94 9.6 64 9.6 34 34 9.59 64 9.59S118.41 34 118.41 64.01C118.4 94 93.99 118.41 64 118.41z"/><text style="line-height:71.00093079px" x="42.161" y="111.656" fill="#40c0e7" font-family="Sans" font-size="113.601" font-weight="400" letter-spacing="0" transform="scale(1.15766 .86381)" word-spacing="0"><tspan x="42.161" y="111.656" style="-inkscape-font-specification:'Comic Neue Bold'" font-family="Comic Neue" font-weight="700">i</tspan></text></svg><svg viewBox="0 0 128 128" id="24C2" xmlns="http://www.w3.org/2000/svg"><path fill="#40c0e7" d="M64.01.33C28.84.33.34 28.84.34 64s28.51 63.66 63.67 63.66 63.66-28.5 63.66-63.66S99.17.33 64.01.33zm0 121.24c-31.74 0-57.57-25.83-57.57-57.56 0-31.74 25.83-57.57 57.57-57.57 31.73 0 57.56 25.83 57.56 57.57 0 31.73-25.83 57.56-57.56 57.56z"/><text style="line-height:1.25" x="23.008" y="96.688" fill="#40c0e7" font-family="sans-serif" font-size="40" font-weight="400" letter-spacing="0" word-spacing="0"><tspan x="23.008" y="96.688" style="-inkscape-font-specification:'Comic Neue Bold'" font-family="Comic Neue" font-size="96" font-weight="700">M</tspan></text></svg><svg viewBox="0 0 128 128" id="3297" xmlns="http://www.w3.org/2000/svg"><path fill="#d7598b" d="M64 .22C28.83.22.22 28.83.22 64S28.83 127.77 64 127.77s63.78-28.6 63.78-63.77S99.17.22 64 .22z"/><path fill="#fff" d="M102.4 91.09c-.05.01-1.83.11-3.22-.12l-.58-.17c-1.19-.34-2.05-.57-2.77-2.22-.72-1.61-.99-4.07-1.27-6.68l-.18-1.64c-.38-3.17-.79-7.43-.89-12.56h6.16c.81 0 1.47-.66 1.47-1.47v-36.5c0-.81-.66-1.47-1.47-1.47H60.29c-.81 0-1.47.66-1.47 1.47v36.5c0 .81.66 1.47 1.47 1.47h5.11c-.69 19.46-9.38 30.08-9.47 30.19-.29.34-.41.79-.32 1.23.09.44.37.81.77 1.02l8.69 4.5c.21.11.44.16.67.16.44 0 .87-.2 1.15-.56.45-.57 10.59-13.72 11.14-36.55h2.83c.22 18.4 3.52 26.73 3.61 26.93.1.36 2.65 8.96 14.73 8.96 1.12 0 2.3-.08 3.51-.23.73-.09 1.29-.72 1.29-1.46v-9.34c0-.41-.17-.8-.47-1.09-.31-.26-.71-.4-1.13-.37zM72.29 55.73c-.31 0-.57-.26-.57-.57V40.79c0-.32.26-.58.57-.58h15.36c.31 0 .57.26.57.58v14.37c0 .31-.26.57-.57.57H72.29z"/><path fill="#fff" d="M59.76 68.4L47.74 56.07l7.81-7.44c.29-.28.46-.67.46-1.07V37.17c0-.81-.66-1.47-1.47-1.47h-7.2v-9.45c0-.81-.66-1.47-1.47-1.47H34.34c-.81 0-1.47.66-1.47 1.47v9.45H22.45c-.81 0-1.47.66-1.47 1.47v10.39c0 .81.66 1.47 1.47 1.47h13.4L17.54 66.48c-.28.27-.45.64-.46 1.03-.01.39.14.77.41 1.05l7.14 7.49c.29.3.68.46 1.07.46.36 0 .73-.14 1.02-.4l6.15-5.87v31.41c0 .81.66 1.47 1.47 1.47h11.54c.81 0 1.47-.66 1.47-1.47V72.61l4.03 4.13a1.475 1.475 0 002.09.01l6.28-6.3c.56-.56.57-1.48.01-2.05z"/></svg><svg viewBox="0 0 128 128" id="3299" xmlns="http://www.w3.org/2000/svg"><path fill="#ed6c30" d="M64 .33C28.89.33.33 28.89.33 64S28.89 127.67 64 127.67 127.67 99.1 127.67 64C127.67 28.89 99.11.33 64 .33z"/><g fill="#fff"><path d="M60.28 78.69l-9.1-19.79h7.01c.81 0 1.47-.65 1.47-1.47V48.8c0-.81-.66-1.47-1.47-1.47h-8.48v-8.25l7.67-2.4c.77-.24 1.2-1.06.96-1.83l-2.83-9.1c-.12-.38-.38-.68-.72-.87a1.5 1.5 0 00-1.12-.1l-27.69 8.68c-.78.25-1.2 1.06-.97 1.84l2.83 9.1a1.475 1.475 0 001.4 1.04c.15 0 .3-.03.44-.06l7.61-2.39v4.11l-.42.21c-.02.01-.03.03-.05.04H25.17c-.81 0-1.47.66-1.47 1.47v8.63c0 .81.66 1.47 1.47 1.47h9.16l-13.4 27.2c-.35.73-.06 1.6.67 1.97l7.99 3.96c.2.1.43.16.66.16.16 0 .31-.03.47-.08.37-.12.67-.39.85-.74l5.73-11.66V102c0 .81.66 1.47 1.47 1.47h9.48c.81 0 1.47-.66 1.47-1.47V78.61l1.97 4.29c.16.37.47.65.85.77a1.517 1.517 0 001.15-.07l5.93-3c.69-.35.99-1.19.66-1.91zm44.15 8.26l-6.86-4.6c-.4-.27-.9-.32-1.34-.16-.45.16-.78.54-.9 1-1.38 5.34-3.72 5.39-3.76 5.4-.35-.04-.71.05-.99.25.27-.18.53-.22.43-.21-.25 0-.7-.04-1.28-.12l-.58-.16c-1.2-.3-2.06-.52-2.83-2.14-.55-1.14-.87-2.72-1.13-4.48 2.01-3.4 3.93-7.25 5.6-11.63.2-.52 4.82-12.83 6.13-28.33.06-.69-.39-1.34-1.06-1.53l-9.31-2.63c-.41-.12-.86-.05-1.22.19s-.59.63-.64 1.06c-.78 7.07-1.78 12.58-2.7 16.71-.35-3.11-.74-6.66-1.19-10.81-.09-.79-.78-1.38-1.58-1.3l-9.64.79c-.81.06-1.41.78-1.34 1.58C69.46 61.14 70.82 71.7 72 78.85c-6.53 9.39-13.21 13.23-13.3 13.28-.39.21-.66.59-.74 1.04-.07.44.05.88.35 1.22l6.49 7.29c.29.32.69.49 1.1.49.26 0 .52-.07.75-.21.32-.19 4.28-2.61 9.23-7.82 1.4 2.45 5 6.91 12.74 6.91 1.03 0 2.11-.07 3.14-.23 10.91-.93 13.27-12.28 13.29-12.39.12-.56-.12-1.15-.62-1.48z"/><path d="M65.76 33.9l12.37 6.74a1.472 1.472 0 001.99-.58l3.6-6.6c.18-.35.23-.75.12-1.12-.11-.37-.36-.68-.71-.88l-12.37-6.74c-.71-.38-1.6-.12-1.99.59l-3.6 6.6c-.19.34-.23.74-.12 1.11.11.38.36.69.71.88zm-6.93 27.84v11.32c0 .81.66 1.47 1.47 1.47h7.52c.81 0 1.47-.65 1.47-1.47V61.74c0-.81-.66-1.47-1.47-1.47H60.3c-.82 0-1.47.65-1.47 1.47zm46.06 1.32a1.48 1.48 0 00-.6-.96c-.32-.23-.71-.31-1.09-.25l-7.42 1.23c-.8.13-1.34.89-1.21 1.68l2.3 13.9c.12.72.74 1.23 1.44 1.23.08 0 .16-.01.24-.03l7.42-1.22c.39-.06.73-.28.96-.6.22-.31.32-.71.26-1.09l-2.3-13.89z"/></g></svg></svg>