<?xml version="1.0" encoding="utf-8"?><svg viewBox="0 0 128 128" xmlns="http://www.w3.org/2000/svg" xmlns:xlink="http://www.w3.org/1999/xlink"><style>:root>svg{display:none}:root>svg:target{display:block}</style><svg viewBox="0 0 128 128" id="1F638" xmlns="http://www.w3.org/2000/svg"><path fill="#2f2f2f" d="M30.098 63.31H98.25v19.2H30.098z"/><path fill="none" d="M75.44 79.64c.25.1.51.15.78.15.85 0 1.65-.52 1.99-1.35.07-.18 1.78-4.31 6.91-5.14 5.12-.84 8.07 2.54 8.17 2.68.75.92 2.1 1.04 3 .29a2.13 2.13 0 00.3-3c-.18-.23-4.54-5.42-12.16-4.18-7.6 1.23-10.1 7.54-10.2 7.81a2.12 2.12 0 001.21 2.74zm-40.8-3.88c.13-.14 3.16-3.44 8.26-2.47 5.08.98 6.69 5.12 6.77 5.33.31.87 1.13 1.41 2.01 1.41a2.132 2.132 0 002.01-2.85c-.09-.27-2.42-6.64-9.98-8.09-7.57-1.43-12.08 3.62-12.28 3.84-.76.89-.66 2.22.21 2.99.88.8 2.22.71 3-.16z"/><path fill="#fae1a7" d="M125.07 86.16l-8.26-1.48c.1-1.84.09-3.7 0-5.56l8.4-1.25a2.137 2.137 0 001.8-2.43c-.16-1.17-1.25-1.97-2.43-1.8l-8.18 1.22c-.89-5.98-3.2-11.94-6.67-17.3 1.04-10.02 3.05-37.19-5.09-42.65-6.5-4.36-21.96 11.83-26.94 17.63-1.15 1.34-2.2 2.54-3.16 3.65-3.48-.53-7.02-.83-10.55-.83-3.52 0-7.06.29-10.54.83-.96-1.11-2-2.31-3.15-3.65-4.98-5.81-20.45-21.99-26.93-17.63-8.15 5.47-6.13 32.64-5.09 42.65-3.48 5.36-5.78 11.33-6.68 17.3l-8.18-1.22c-1.16-.17-2.25.63-2.43 1.8a2.15 2.15 0 001.8 2.43l8.41 1.25c-.09 1.86-.1 3.72 0 5.56l-8.26 1.48c-1.16.22-1.94 1.32-1.73 2.48a2.14 2.14 0 002.1 1.75c.12 0 .25-.01.38-.03l7.94-1.43c.33 2.1.81 4.17 1.5 6.18l-6.47 2.06a2.138 2.138 0 00-1.39 2.68 2.148 2.148 0 002.69 1.39l6.85-2.18c1.98 3.89 4.88 7.47 8.97 10.53 6.04 4.51 13.58 7.57 21.33 9.23 2.95.63 10.57 2.1 18.55 2.1 7.99 0 16.35-1.47 19.3-2.1 7.75-1.66 15.28-4.72 21.32-9.23 4.11-3.06 7-6.63 8.98-10.53l6.84 2.18a2.124 2.124 0 002.67-1.39c.36-1.12-.26-2.33-1.38-2.68l-6.48-2.06c.69-2.01 1.17-4.08 1.5-6.18l7.95 1.43c.12.02.25.03.38.03 1.01 0 1.91-.72 2.09-1.75.18-1.15-.59-2.26-1.76-2.48zm-50.86-9.27c.1-.27 2.6-6.58 10.2-7.81 7.62-1.24 11.98 3.95 12.16 4.18.75.91.61 2.25-.3 3-.9.75-2.25.62-3-.29-.11-.13-3.06-3.52-8.17-2.68-5.13.83-6.84 4.97-6.91 5.14-.34.83-1.14 1.35-1.99 1.35a2.13 2.13 0 01-1.99-2.89zm-42.79-3.95c.2-.22 4.71-5.28 12.28-3.84 7.57 1.45 9.89 7.83 9.98 8.09a2.135 2.135 0 01-4.02 1.44c-.08-.22-1.69-4.36-6.77-5.33-5.1-.98-8.13 2.33-8.26 2.47-.78.87-2.12.96-3 .17-.88-.78-.97-2.1-.21-3z"/><path fill="#d38e52" fill-rule="evenodd" stroke-linecap="round" stroke-linejoin="round" stroke-width="3.78" d="M53.46 36.19s1.907 20.197 4.817-.581m16.273.581s-3.382 19.114-4.508-.55m-8.106-.247s2.2 31.92 4.687.021"/><path fill="#f0c4b1" fill-rule="evenodd" stroke-linecap="round" stroke-linejoin="round" stroke-width="3.78" d="M24.536 52.592S13.248-7.495 47.134 39.226c0 0-14.233 5.357-22.598 13.366zm78.367-1.465s9.968-53.896-19.955-11.989c0 0 12.568 4.805 19.955 11.989z"/><path fill="#f3aed7" stroke="#f0a0af" stroke-linecap="round" stroke-linejoin="round" stroke-width="1.063" d="M68.505 82.51C68.68 85.291 64 88.552 64 88.552s-4.68-3.26-4.505-6.042c.176-2.781 3.578-2.635 4.505-1.318.927-1.317 4.33-1.463 4.505 1.318z"/><path fill="#2f2f2f" d="M35.356 90.69c1.636 0 2.857 1.01 4.062 1.7 1.134.66 2.57 1.03 3.927 1.38 1.653.44 3.313.9 5.037 1.17.663.1 1.341.14 2.035.14 1.262 0 2.539-.14 3.72-.34 2.634-.43 4.558-1.58 6.769-2.61 1.117-.52 2.346-.9 3.695-.9.304 0 .607.02.918.06.998.13 2.052.52 2.961.84 1.333.47 2.57 1.14 3.856 1.69 1.133.47 2.338.64 3.64.68 1.26.03 2.538.09 3.815.09 1.66 0 3.296-.1 4.909-.5 1.34-.33 2.626-.68 3.847-1.21 1.413-.62 3.448-1.73 4.685-1.73.822 0 1.285.49.982 1.95-.423 2.02-1.085 4.13-2.267 5.99-1.708 2.67-4.39 5.04-7.822 6.62-6.617 3.05-14.343 3.86-22.022 3.88h-.032c-11.725 0-23.427-4.77-27.226-13.12-.272-.59-.958-2.16-1.118-3.51-.143-1.19.128-2.23 1.445-2.29.056.02.12.02.184.02m0-2.56l-.264.01c-1.453.07-2.267.87-2.698 1.53-.439.67-.918 1.86-.694 3.71.2 1.7.95 3.49 1.38 4.41 4.526 9.93 17.824 14.39 28.991 14.39 9.626-.03 16.85-1.32 22.756-4.04 3.672-1.69 6.681-4.25 8.717-7.42 1.197-1.89 2.059-4.15 2.65-6.94.319-1.51.167-2.77-.431-3.76-.4-.64-1.158-1.41-2.523-1.41-1.333 0-2.953.76-4.39 1.43-.335.16-.662.31-.966.44-1.045.45-2.187.77-3.575 1.11-1.262.31-2.65.45-4.51.45-.83 0-1.66-.02-2.49-.05l-1.286-.04c-1.245-.03-2.21-.21-3.04-.55-.44-.19-.887-.4-1.342-.61-.822-.39-1.676-.79-2.602-1.11l-.303-.1c-.902-.32-1.932-.68-3.001-.82a8.882 8.882 0 00-1.134-.07c-1.42 0-2.857.35-4.406 1.06-.439.21-.862.41-1.277.61-1.692.83-3.16 1.55-5.052 1.86-1.262.21-2.427.31-3.457.31-.646 0-1.253-.04-1.788-.13-1.516-.23-2.977-.62-4.51-1.04l-.35-.09c-1.35-.36-2.61-.69-3.497-1.2-.231-.13-.447-.27-.67-.41-1.086-.68-2.45-1.53-4.238-1.53z"/><path fill="#2f2f2f" stroke-linejoin="round" stroke-width=".78" d="M34.999 89.765c-1.237-.072-2.243 1.47-2.06 2.97.27 2.217 1.16 4.258 2.225 6.032 2.526 3.985 6.223 6.474 9.962 8.244 5.023 2.305 10.38 3.34 15.713 3.522 7.28.04 14.668-.455 21.673-3.124 3.803-1.45 7.556-3.831 10.067-7.8 1.261-2.014 2.084-4.445 2.457-6.953.173-.952-.276-1.883-.932-2.338-1.395-.279-2.776.239-4.068.854-2.982 1.404-6.107 2.441-9.316 2.402-2.311.017-4.618.07-6.922-.292-2.192-.66-4.248-1.891-6.448-2.527-1.52-.522-3.14-.566-4.69-.247-2.781.79-5.317 2.626-8.152 3.177-2.037.4-4.12.497-6.175.276a64.217 64.217 0 01-7.299-1.861c-1.868-.675-3.506-2.375-5.525-2.323-.17-.007-.34-.015-.51-.012z"/><path fill="#fff" stroke-linejoin="round" stroke-width=".78" d="M34.999 89.766c-1.237-.073-2.242 1.468-2.06 2.968.218 1.781.842 3.44 1.628 4.948a50.8 17.823 0 0029.34 3.287 50.8 17.823 0 0029.737-3.399 19.477 19.477 0 001.392-4.914c.173-.952-.276-1.883-.932-2.338-1.394-.278-2.776.239-4.067.854-2.982 1.404-6.108 2.442-9.317 2.402-2.311.017-4.618.07-6.922-.293-2.192-.658-4.248-1.89-6.447-2.527-1.52-.522-3.142-.566-4.691-.246-2.782.789-5.317 2.626-8.152 3.178-2.038.4-4.12.496-6.175.275a64.22 64.22 0 01-7.3-1.861c-1.868-.675-3.506-2.375-5.524-2.323a8.678 8.678 0 00-.51-.011z"/></svg><svg viewBox="0 0 128 128" id="1F639" xmlns="http://www.w3.org/2000/svg"><ellipse cx="-80.371" cy="45.945" fill="#fff" rx="12.13" ry="9.33" transform="rotate(-75.375)"/><path fill="#fff" d="M113.32 85.99c3 6 1.69 12.72-2.93 15.03-4.6 2.3-10.77-.69-13.77-6.68s-1.69-12.72 2.92-15.03c4.61-2.31 10.78.68 13.78 6.68z"/><path fill="#2f2f2f" d="M30.58 61.74h68.3v18.5h-68.3z"/><path fill="#aba497" d="M125.09 80.12l-7.62-1.38a38.34 38.34 0 00-.71-5.67l8.46-1.26a2.144 2.144 0 001.8-2.43c-.18-1.17-1.28-1.95-2.43-1.8l-8.9 1.33c-1.21-3.9-2.98-7.71-5.28-11.26 1.04-10.02 3.05-37.17-5.09-42.64-6.5-4.36-21.96 11.82-26.93 17.63-1.15 1.34-2.2 2.55-3.16 3.65-3.48-.53-7.02-.83-10.55-.82-3.53-.01-7.06.29-10.55.82-.96-1.1-2-2.31-3.16-3.65-4.98-5.81-20.44-21.99-26.94-17.63-8.15 5.47-6.13 32.64-5.09 42.65A46.09 46.09 0 0013.6 69.1L3.41 67.6c-1.16-.15-2.25.63-2.42 1.8-.17 1.17.63 2.25 1.8 2.43l9.78 1.45c-.31 1.59-.53 3.17-.64 4.76-.01.15-.01.31-.02.46l-8.98 1.62a2.134 2.134 0 00-1.72 2.48 2.123 2.123 0 002.1 1.75c.12 0 .25-.01.38-.03l8.12-1.47c.03 2.17.2 4.33.55 6.45l-5.7 1.81a2.138 2.138 0 00-1.39 2.68 2.14 2.14 0 002.69 1.39l5.33-1.69c1.72 6.09 5.14 11.71 11.17 16.21 6.05 4.51 13.57 7.57 21.33 9.23 2.94.63 10.56 2.1 18.55 2.1s16.35-1.47 19.3-2.1c7.75-1.66 15.28-4.72 21.33-9.23 5.9-4.4 9.29-9.87 11.05-15.81l4.09 1.3a2.136 2.136 0 002.68-1.39c.36-1.12-.26-2.33-1.39-2.68l-4.42-1.4c.37-2.17.57-4.39.61-6.62l6.77 1.23c.13.02.26.03.39.03 1.01 0 1.91-.73 2.1-1.75.17-1.17-.6-2.28-1.76-2.49zm-95.01 3.94c-.25.57-.57 1.17-.75 1.77-.56 1.9-.81 4.67-1.48 7.13-.77 2.81-2.11 5.24-5.12 5.6-4.28.52-6.47-4.02-5.6-7.68.72-3.02 2.65-5.5 5.2-7.21 1.57-1.05 3.53-2.34 5.42-2.7.77-.14 1.92-.45 2.66-.03 1.02.61 0 2.36-.33 3.12zm2.28-7.78c-.9-.76-1.02-2.09-.27-2.99.19-.22 4.59-5.39 12.19-4.09 7.59 1.29 10.05 7.62 10.15 7.89a2.147 2.147 0 01-2 2.89c-.86 0-1.66-.52-1.99-1.38-.08-.21-1.78-4.32-6.87-5.19-5.12-.87-8.08 2.48-8.21 2.63-.77.89-2.11 1-3 .24zm61.6-.2c-.11-.13-3.05-3.52-8.18-2.67-5.12.84-6.83 4.98-6.9 5.15-.33.83-1.14 1.35-1.99 1.35-.25 0-.52-.05-.77-.15a2.129 2.129 0 01-1.22-2.74c.1-.27 2.59-6.58 10.2-7.83 7.61-1.23 11.98 3.95 12.16 4.17.75.91.61 2.25-.29 3-.91.76-2.26.63-3.01-.28zm11.81 22.48c-3.02-.36-4.35-2.79-5.12-5.6-.68-2.47-.92-5.23-1.49-7.13-.18-.61-.5-1.2-.75-1.77-.33-.76-1.35-2.51-.31-3.11.73-.42 1.89-.1 2.66.03 1.89.35 3.85 1.64 5.42 2.7 2.55 1.72 4.48 4.19 5.2 7.21.86 3.66-1.32 8.19-5.61 7.67z"/><path fill="#f3aed7" stroke="#f0a0af" stroke-linecap="round" stroke-linejoin="round" stroke-width="1.1" d="M68.664 84.813c.181 2.88-4.664 6.255-4.664 6.255s-4.845-3.375-4.664-6.255c.182-2.88 3.704-2.728 4.664-1.364.96-1.364 4.482-1.516 4.664 1.364z"/><path fill="#2f2f2f" d="M35.94 90.38c-.04 0-.27.01-.32.01-1.51.08-2.42.79-2.91 1.38-.8.95-1.11 2.22-.92 3.77.19 1.63.91 3.38 1.32 4.27 4.5 10.09 17.8 14.61 28.98 14.61 9.58-.03 16.78-1.34 22.7-4.13 3.69-1.74 6.71-4.35 8.73-7.57 1.16-1.87 1.99-4.1 2.56-6.83.33-1.58.1-2.84-.67-3.78-.66-.81-1.66-1.26-2.8-1.26-1.53 0-3.15.77-4.71 1.52-.33.16-.63.3-.92.43-2.59 1.16-5.85 1.85-8.72 1.85-1.96 0-3.71-.31-5.08-.91-.45-.19-.89-.4-1.33-.62-.82-.39-1.67-.8-2.61-1.14l-.27-.1c-.89-.32-2-.72-3.15-.87-.43-.06-.83-.08-1.24-.08-1.53 0-3.08.38-4.71 1.15-.44.21-.86.42-1.28.63-1.6.8-2.97 1.49-4.68 1.77-1.18.2-2.27.3-3.22.3-.58 0-1.12-.04-1.6-.11-1.42-.22-2.83-.61-4.32-1.01l-.34-.09c-1.27-.34-2.44-.66-3.2-1.11-.23-.14-.44-.27-.65-.4-1.1-.72-2.61-1.68-4.64-1.68z"/><path fill="#fff" stroke-linejoin="round" stroke-width=".78" d="M35.94 91.23c.049 0-.058.002-.127.004-.07.003-.114.006-.194.006h.045c-1.263.067-1.925.622-2.299 1.073l-.002.002-.002.002c-.63.747-.898 1.736-.728 3.119v.006c.143 1.227.647 2.607 1.039 3.527A50.172 15.406 0 0064 102.127a50.172 15.406 0 0030.34-3.152c.352-.995.66-2.066.908-3.258.295-1.414.09-2.353-.496-3.069v-.002c-.492-.603-1.226-.947-2.143-.947-1.245 0-2.782.687-4.34 1.436-.334.162-.64.307-.94.441-2.72 1.218-6.063 1.924-9.07 1.924-2.044 0-3.896-.316-5.41-.977l-.001-.002a23.59 23.59 0 01-1.364-.634c-.822-.391-1.644-.786-2.533-1.108h-.002l-.265-.097c-.891-.32-1.946-.695-2.973-.828l-.004-.002h-.004a7.92 7.92 0 00-1.123-.073c-1.388 0-2.807.342-4.346 1.069l-.002.002c-.429.204-.84.41-1.261.62-1.6.8-3.066 1.544-4.924 1.848-1.217.206-2.35.31-3.358.31-.618 0-1.197-.04-1.722-.116l-.004-.002h-.004c-1.485-.23-2.922-.629-4.406-1.028l-.342-.09-.002-.001c-1.273-.341-2.475-.645-3.412-1.2l-.004-.002-.004-.002c-.233-.142-.446-.274-.656-.404l-.01-.006-.008-.006c-1.091-.714-2.413-1.54-4.176-1.54z"/><path fill="#f0c4b1" fill-rule="evenodd" stroke-linecap="round" stroke-linejoin="round" stroke-width="3.78" d="M25.353 52.043S14.066-8.044 47.951 38.677c0 0-14.232 5.357-22.598 13.366zm78.367-1.465s9.968-53.896-19.955-11.989c0 0 12.569 4.805 19.955 11.989z"/><path fill="#1a1a1a" fill-rule="evenodd" stroke-linecap="round" stroke-linejoin="round" stroke-width="3.78" d="M54.14 36.29s1.907 20.197 4.817-.581m16.273.581s-3.382 19.114-4.508-.55m-8.106-.247s2.2 31.92 4.687.021"/></svg><svg viewBox="0 0 128 128" id="1F63A" xmlns="http://www.w3.org/2000/svg"><path fill="#2f2f2f" d="M28.66 64.9h76.51v19.2H28.66zm12.77 30.26h45.56v19.2H41.43z"/><path fill="#f79329" d="M125.08 85.23l-7.85-1.42c.07-1.88.04-3.78-.08-5.68l8.07-1.2a2.144 2.144 0 001.8-2.43 2.13 2.13 0 00-2.42-1.79l-7.96 1.19c-.99-5.66-3.23-11.27-6.52-16.35 1.05-10.02 3.05-37.17-5.09-42.64-6.49-4.36-21.95 11.83-26.94 17.63-1.15 1.34-2.2 2.55-3.16 3.65-3.48-.53-7.02-.82-10.55-.82-3.52 0-7.06.29-10.54.82-.97-1.1-2.01-2.31-3.16-3.65-4.98-5.81-20.44-21.99-26.94-17.64-8.15 5.47-6.13 32.64-5.09 42.65-3.31 5.11-5.55 10.76-6.53 16.45l-8.71-1.3a2.15 2.15 0 00-2.43 1.79c-.17 1.17.63 2.26 1.8 2.43l8.83 1.32c-.11 1.81-.14 3.63-.08 5.43l-8.61 1.55A2.134 2.134 0 001.2 87.7a2.14 2.14 0 002.1 1.75c.12 0 .25-.01.38-.03l8.2-1.48c.27 2.11.71 4.18 1.33 6.2l-6.56 2.08a2.138 2.138 0 00-1.39 2.68 2.127 2.127 0 002.68 1.39l6.8-2.16c1.97 4.25 4.98 8.15 9.4 11.45 6.05 4.51 13.58 7.57 21.33 9.23 2.95.63 10.56 2.1 18.55 2.1s16.35-1.47 19.3-2.1c7.75-1.66 15.28-4.72 21.33-9.23 4.35-3.24 7.33-7.07 9.3-11.24l6.13 1.95a2.136 2.136 0 002.68-1.39c.35-1.12-.27-2.32-1.39-2.68l-5.86-1.86c.65-2.04 1.1-4.14 1.38-6.28l7.45 1.34c.13.02.26.03.38.03 1.01 0 1.91-.72 2.1-1.75.19-1.15-.58-2.26-1.74-2.47zM32.51 75.19c0-4.58 3.3-8.29 7.37-8.29 4.06 0 7.36 3.71 7.36 8.29 0 4.58-3.3 8.3-7.36 8.3-4.07 0-7.37-3.71-7.37-8.3zm51.32 23.55c-.27 1.67-.7 3.42-1.46 4.96-1.1 2.21-2.83 4.18-5.03 5.49-4.26 2.53-9.23 3.2-14.18 3.21-7.55.02-15.09-3.94-17.54-10.87-.17-.48-.61-1.78-.72-2.9-.09-.98.08-1.84.93-1.9 1.12-.07 1.93.81 2.73 1.41.74.55 1.66.85 2.53 1.15 1.07.36 2.13.74 3.24.96 1.19.24 2.53.09 3.7-.16 1.7-.36 2.93-1.3 4.35-2.16.88-.53 1.87-.88 2.97-.7.65.11 1.32.43 1.9.7.85.38 1.66.95 2.48 1.4.72.39 1.5.54 2.35.56 1.88.05 3.78.24 5.61-.34.87-.28 1.69-.56 2.48-1 1.52-.84 4.15-2.84 3.66.19zm5.07-15.25c-4.07 0-7.37-3.71-7.37-8.3 0-4.58 3.3-8.29 7.37-8.29 4.06 0 7.36 3.71 7.36 8.29 0 4.59-3.3 8.3-7.36 8.3z"/><path fill="#f0c4b1" fill-rule="evenodd" stroke-linecap="round" stroke-linejoin="round" stroke-width="3.78" d="M23.89 53.27S12.602-6.816 46.488 39.906c0 0-14.233 5.356-22.598 13.366zm81.662-1.576S116.37-6.503 83.892 38.75c0 0 13.642 5.188 21.66 12.945z"/><path fill="#f4f4f4" stroke-linejoin="round" stroke-width=".78" d="M63.66 80.184a29.019 24.789 0 00-29.02 24.789 29.019 24.789 0 003.536 11.806 64.115 64.115 0 007.295 2.032c2.95.63 10.559 2.1 18.549 2.1s16.35-1.47 19.3-2.1a64.918 64.918 0 005.418-1.415 29.019 24.789 0 003.942-12.423 29.019 24.789 0 00-29.02-24.79zM45.83 96.73c1.12-.07 1.93.81 2.73 1.41.74.55 1.66.85 2.53 1.15 1.07.36 2.13.74 3.24.96 1.19.24 2.53.09 3.7-.16 1.7-.36 2.93-1.3 4.35-2.16.88-.53 1.87-.88 2.97-.7.65.11 1.32.43 1.9.7.85.38 1.66.95 2.48 1.4.72.39 1.5.54 2.35.56 1.88.05 3.78.24 5.61-.34.87-.28 1.69-.56 2.48-1 1.52-.84 4.15-2.84 3.66.19-.27 1.67-.7 3.42-1.46 4.96-1.1 2.21-2.83 4.18-5.03 5.49-4.26 2.53-9.23 3.2-14.18 3.21-7.55.02-15.09-3.94-17.54-10.87-.17-.48-.61-1.78-.72-2.9-.09-.98.08-1.84.93-1.9z"/></svg><svg viewBox="0 0 128 128" id="1F63B" xmlns="http://www.w3.org/2000/svg"><path fill="#2f2f2f" d="M36.69 92.37h58.74v19.2H36.69z"/><path fill="#5a5a5a" d="M125.09 94.34l-9.95-1.8c.43-1.68.74-3.4.94-5.14l9.15-1.36a2.137 2.137 0 001.8-2.43c-.17-1.16-1.27-1.96-2.42-1.79l-8.23 1.22c.03-1.71 0-3.41-.12-5.13-.25-3.72-1.08-7.47-2.41-11.11 2.94-8.31 12.13-36.37 5.13-43.87-5.34-5.72-24.06 6.53-30.24 11.06-2.22 1.63-4.14 3.01-5.79 4.19-6.16-1.86-12.84-2.83-19.46-2.82-6.73-.01-13.52 1-19.77 2.92a408.88 408.88 0 01-6.94-4.15c-6.54-3.97-26.25-14.57-31.07-8.41-5.72 7.31 3.2 30.22 7.65 40.47-1.46 3.83-2.37 7.79-2.63 11.71a58.99 58.99 0 00-.12 4.97l-7.2-1.07c-1.15-.17-2.25.63-2.43 1.79-.17 1.17.63 2.25 1.8 2.43l8.1 1.21c.21 1.85.53 3.68 1 5.47L2.9 94.32a2.131 2.131 0 10.38 4.23c.12 0 .25-.01.38-.03l9.58-1.72c.78 1.9 1.76 3.73 2.96 5.48l-9.57 3.04A2.138 2.138 0 005.24 108a2.136 2.136 0 002.68 1.39l11.15-3.54c1.23 1.3 2.6 2.55 4.16 3.72 6.05 4.51 13.57 7.57 21.33 9.23 2.95.63 10.56 2.1 18.55 2.1s16.35-1.47 19.3-2.1c7.75-1.66 15.28-4.71 21.33-9.23 1.67-1.24 3.11-2.58 4.4-3.98.02.01.04.03.06.03l11.87 3.77c.21.07.43.1.65.1.9 0 1.75-.58 2.03-1.49.35-1.12-.27-2.32-1.39-2.68l-10.41-3.31c1.15-1.72 2.09-3.53 2.84-5.39l10.53 1.9c.13.03.25.03.38.03 1.01 0 1.91-.72 2.1-1.75.22-1.14-.55-2.25-1.71-2.46zm-38.84 4.47c-.72 3.06-4.09 9.02-11.75 9.69-.63.05-1.23.08-1.81.08-4.44 0-7.39-1.51-9.2-2.88-1.81 1.37-4.77 2.88-9.2 2.88-.58 0-1.18-.03-1.81-.08-7.65-.67-11.03-6.63-11.75-9.69a2.67 2.67 0 011.99-3.21c1.43-.34 2.85.55 3.2 1.97.14.54 1.47 5.12 7.03 5.61 5.95.53 8.26-2.54 8.36-2.67.06-.09.16-.13.23-.21.15-.16.27-.34.46-.47 1.22-.82 2.88-.5 3.7.72.07.09 2.38 3.16 8.33 2.63 5.57-.49 6.89-5.09 7.03-5.62a2.67 2.67 0 015.19 1.25z"/><path fill="#d65a8c" d="M49.524 55.291a9.005 9.005 0 00-8.916 10.535c-1.069-4.749-5.715-7.824-10.516-6.872-4.877.965-8.044 5.688-7.078 10.553 2.304 11.673 21.905 18.11 21.905 18.11s15.675-13.413 13.358-25.073c-.833-4.257-4.572-7.224-8.753-7.253zm26.989-3.598c-5.11.035-9.672 3.662-10.705 8.867-2.832 14.257 16.333 30.654 16.333 30.654s23.965-7.884 26.781-22.14c1.165-5.933-2.69-11.707-8.654-12.903-5.87-1.164-11.55 2.596-12.857 8.403 1.008-5.87-2.816-11.489-8.685-12.669a10.974 10.974 0 00-2.213-.212z"/><path fill="#f0c4b1" fill-rule="evenodd" stroke-linecap="round" stroke-linejoin="round" stroke-width="3.78" d="M17.403 62.369S-13.458.727 38.119 41.052c0 0-13.988 10.111-20.716 21.317zm92.702-2.247S137.511-1.09 87.944 40.893c0 0 14.707 8.864 22.161 19.23z"/></svg><svg viewBox="0 0 128 128" id="1F63C" xmlns="http://www.w3.org/2000/svg"><path fill="#2f2f2f" d="M107.84 81.88c0 15.9-19.34 28.8-43.2 28.8-23.86 0-43.2-12.9-43.2-28.8 0-15.91 19.34-28.8 43.2-28.8 23.85 0 43.2 12.89 43.2 28.8z"/><path fill="#ededed" d="M125.08 92.17l-10.3-1.86c.31-1.64.52-3.3.63-4.98l9.81-1.46a2.15 2.15 0 001.8-2.43c-.17-1.17-1.25-1.95-2.43-1.8L115.52 81c-.02-1.03-.05-2.05-.12-3.08-.52-7.78-3.55-15.69-8.47-22.46-.69-10.66-3.24-36.41-11.93-40.37-6.81-3.1-18.65 13.69-23.13 20.87-3.05-.4-6.15-.6-9.23-.6-2.94 0-5.89.19-8.8.56-4.49-7.24-16.22-23.95-23.02-20.88-8.57 3.87-11.25 28.91-12.03 39.84-5.17 6.89-8.37 15.03-8.91 23.04-.06.89-.1 1.79-.12 2.68l-6.36-.95c-1.16-.15-2.25.63-2.42 1.8-.17 1.17.63 2.25 1.8 2.43l7.06 1.05c.12 1.98.35 3.94.75 5.86l-7.68 1.38a2.134 2.134 0 00-1.72 2.48 2.14 2.14 0 002.1 1.75c.12 0 .25-.01.38-.03l8.03-1.45c.67 2 1.55 3.94 2.65 5.8l-7.71 2.45a2.136 2.136 0 101.29 4.07l8.98-2.85c1.53 1.85 3.33 3.6 5.48 5.2 6.05 4.51 13.57 7.57 21.33 9.23 2.95.63 10.56 2.1 18.55 2.1s16.35-1.47 19.3-2.1c7.75-1.66 15.28-4.72 21.33-9.23 2.41-1.8 4.38-3.78 6.01-5.89l11.16 3.55a2.136 2.136 0 002.68-1.39c.35-1.12-.27-2.33-1.39-2.68L111.35 100c.98-1.78 1.78-3.63 2.38-5.53l10.59 1.91c.13.02.26.03.38.03 1.01 0 1.91-.72 2.1-1.75.21-1.16-.56-2.27-1.72-2.49zm-88.14-9.4c-5.48 0-9.94-4.21-9.94-9.41 0-1.18.25-2.3.68-3.34l17.72 8.25c-1.76 2.69-4.88 4.5-8.46 4.5zm55.18 19.13a2.678 2.678 0 01-2.53 1.82c-.28 0-.57-.04-.85-.14-2.37-.8-4.19-1.87-5.6-3.03-6.84 4.31-13.38 5.71-18.9 5.71-9.12 0-15.47-3.72-15.89-3.97a2.669 2.669 0 012.74-4.58c.56.33 13.55 7.76 28.6-1.32-1.05-1.92-1.27-3.45-1.29-3.59-.19-1.46.83-2.8 2.3-3 1.45-.18 2.78.82 2.99 2.26.04.25.85 4.47 6.76 6.46 1.39.47 2.14 1.98 1.67 3.38zm-3.78-19.13c-4.02 0-7.46-2.27-9.03-5.52l17.79-8.28c.74 1.31 1.2 2.79 1.2 4.38-.01 5.21-4.47 9.42-9.96 9.42z"/><path fill="#f0c4b1" fill-rule="evenodd" stroke-linecap="round" stroke-linejoin="round" stroke-width="3.78" d="M25.546 48.275s-6.92-57.136 23.199-10.822c0 0-14.397 3.948-23.199 10.822zm74.564-.752s6.105-59.15-24.893-9.958c0 0 15.389 3.332 24.894 9.958z"/></svg><svg viewBox="0 0 128 128" id="1F63D" xmlns="http://www.w3.org/2000/svg"><ellipse cx="63.02" cy="78.11" fill="#2f2f2f" rx="43.2" ry="32.41"/><path fill="#6f4516" d="M125.09 79.15l-9.04-1.63a38.46 38.46 0 00-.77-5.19l9.94-1.48a2.137 2.137 0 001.8-2.43c-.17-1.16-1.25-1.95-2.42-1.79l-10.44 1.55c-1.2-3.68-2.91-7.28-5.09-10.64 1.05-10.03 3.05-37.18-5.09-42.64-6.49-4.36-21.95 11.83-26.94 17.63-1.15 1.34-2.2 2.54-3.16 3.65-3.48-.53-7.02-.83-10.54-.83-3.53 0-7.07.29-10.54.83-.97-1.11-2.01-2.31-3.16-3.65C44.66 26.72 29.2 10.54 22.7 14.9c-8.15 5.48-6.13 32.64-5.09 42.65-2.14 3.3-3.83 6.83-5.03 10.45l-9.16-1.37a2.15 2.15 0 00-2.43 1.79c-.17 1.17.63 2.26 1.8 2.43l8.64 1.29c-.42 1.87-.7 3.75-.84 5.63l-7.67 1.38a2.134 2.134 0 00-1.72 2.48 2.149 2.149 0 002.48 1.72l6.76-1.22c.01 2.24.15 4.47.48 6.66l-4.28 1.36a2.13 2.13 0 00.64 4.16c.21 0 .43-.02.65-.1l3.86-1.23c1.69 6.24 5.13 11.99 11.28 16.58 6.05 4.51 13.57 7.57 21.33 9.23 2.95.63 10.56 2.1 18.55 2.1s16.35-1.47 19.3-2.1c7.75-1.66 15.28-4.72 21.33-9.23 6.28-4.69 9.73-10.59 11.38-16.98l5.12 1.62c.21.08.43.1.65.1.9 0 1.74-.58 2.03-1.48.35-1.12-.27-2.33-1.39-2.68l-5.58-1.77c.3-2.14.43-4.31.43-6.49l8.11 1.46a2.149 2.149 0 002.48-1.72 2.13 2.13 0 00-1.72-2.47zM31.71 61.01a2.137 2.137 0 013.69-2.15c.09.15 2.45 3.96 7.64 3.96 5.28 0 7.62-3.92 7.64-3.96a2.137 2.137 0 013.69 2.15c-.15.25-3.63 6.08-11.33 6.08-7.71-.01-11.19-5.83-11.33-6.08zm26.45 27.32c-.42 1.1-1.66 1.63-2.76 1.23-2.97-1.15-4.31-.84-4.84-.55-.17.09-.69.37-.94 1.45-.14.59.41 2.29 2.91 3.48.9.43 1.38 1.43 1.16 2.4A2.13 2.13 0 0151.61 98c-.01.01-.02 0-.02 0-3.18 0-4.56.86-4.71 1.26-.36.98-.15 1.55.04 1.9.7 1.28 2.88 2.42 6 3.14 1.15.26 1.87 1.4 1.6 2.55-.23.99-1.1 1.66-2.08 1.66-.16 0-.32-.02-.48-.05-4.51-1.03-7.48-2.8-8.81-5.27-.89-1.65-.99-3.53-.29-5.42.55-1.49 1.85-2.62 3.75-3.29-1.18-1.7-1.5-3.52-1.17-4.97.44-1.95 1.51-3.43 3.09-4.27 2.1-1.12 4.92-1 8.38.33 1.12.42 1.67 1.66 1.25 2.76zm38.55-27.32c-.15.25-3.62 6.08-11.33 6.08-7.7 0-11.18-5.83-11.33-6.08-.6-1.02-.25-2.33.77-2.92 1.01-.59 2.31-.25 2.91.76.12.19 2.48 3.97 7.65 3.97 5.28 0 7.62-3.92 7.65-3.96.59-1.02 1.9-1.36 2.92-.77 1.01.59 1.35 1.9.76 2.92z"/><path fill="#f0c4b1" fill-rule="evenodd" stroke-linecap="round" stroke-linejoin="round" stroke-width="3.78" d="M21.742 51.223S10.454-8.865 44.34 37.857c0 0-14.233 5.356-22.598 13.366zm82.402-.531S115.49-10.34 81.432 37.116c0 0 14.305 5.441 22.712 13.576z"/><path fill="#483328" fill-rule="evenodd" stroke-linecap="round" stroke-linejoin="round" stroke-width="3.78" d="M52.8 36.18s1.907 20.197 4.817-.581m16.263.581s-3.382 19.114-4.508-.55m-8.951-.038s2.2 31.92 4.687.021"/></svg><svg viewBox="0 0 128 128" id="1F63E" xmlns="http://www.w3.org/2000/svg"><ellipse cx="61.75" cy="83.35" fill="#2f2f2f" rx="43.2" ry="32.41"/><path fill="#f3c89c" d="M32.4 12.533a4.236 4.236 0 00-1.58.367c-7.697 3.479-10.62 23.923-11.7 35.996l-.018.208.007-.114c-.213 2.397-.38 4.575-.468 6.09.043-.753.155-2.01.234-3.037 3.207 1.566 6.916 2.428 11.06 2.428 3.364 0 6.44-.357 9.264-1.116 3.523 1.27 6.94 2.504 9.942 3.172 8.42 1.874 10.192 10.863 7.97 18.72-6.598 23.333-20.905 27.888-39.879 27.888-2.895 0-5.575-.277-8.043-.793h-.002l-2.537.808a2.135 2.135 0 101.29 4.07l8.98-2.85a31.382 31.382 0 005.48 5.2c6.05 4.51 13.57 7.57 21.33 9.23 2.95.63 10.56 2.1 18.55 2.1s16.35-1.47 19.3-2.1c7.75-1.66 15.28-4.72 21.33-9.23 2.41-1.8 4.38-3.78 6.01-5.89l11.16 3.55a2.135 2.135 0 002.68-1.39c.35-1.12-.27-2.33-1.39-2.68l-2.57-.816h-.001c-2.465.515-5.14.79-8.031.79-18.974 0-33.28-4.554-39.88-27.888-2.194-7.761-5.977-13.19 1.143-17.808 3.016-1.957 7.993-3.766 13.438-5.213 3.684 1.557 7.86 2.246 12.595 2.246 3.218 0 6.173-.523 8.836-1.487h.002c-.7-10.743-3.241-36.079-11.892-40.023-7.12-3.24-19.73 15.249-23.7 21.789-.23.38-.45.73-.67 1.09-2.65-.3-5.33-.48-8-.48-2.53 0-5.06.17-7.58.44-.2-.34-.4-.67-.62-1.02-3.571-5.946-14.212-21.72-21.483-22.237a4.979 4.979 0 00-.557-.01zm93.944 70.801zm-.705.43z"/><path fill="#2f2f2f" d="M62.3 95.12c10.03-1.77 16.76 3 17.04 3.2 1.05.76 1.28 2.22.52 3.27a2.348 2.348 0 01-3.27.53c-.21-.15-5.48-3.8-13.48-2.39-8 1.41-11.71 6.64-11.86 6.86a2.342 2.342 0 01-3.87-2.64c.2-.28 4.9-7.06 14.92-8.83z"/><path fill="#60503a" d="M19.117 48.896c-.007.082-.008.126-.015.208.006-.071.01-.136.017-.208h-.002zm-.242 3.147c-.079 1.027-.19 2.284-.234 3.037-5.08 6.85-8.22 14.91-8.76 22.83-.06.9-.101 1.79-.121 2.68l-6.36-.95c-1.16-.16-2.25.63-2.42 1.8a2.119 2.119 0 001.8 2.42l7.06 1.05c.12 1.98.35 3.94.75 5.86l-7.68 1.38a2.135 2.135 0 00-1.72 2.48 2.139 2.139 0 002.48 1.72l8.03-1.45c.67 2 1.55 3.94 2.65 5.8l-5.162 1.642c2.468.517 5.148.793 8.044.793 18.974 0 33.28-4.555 39.88-27.889 2.22-7.856.449-16.845-7.971-18.719-3.002-.668-6.419-1.901-9.942-3.172-2.824.759-5.9 1.116-9.263 1.116-4.145 0-7.854-.862-11.061-2.428zm87.915-.537c.031.447.08.994.106 1.402-.03-.434-.07-.928-.107-1.402zm-21.321.719c-5.445 1.447-10.422 3.256-13.438 5.212-7.12 4.62-3.337 10.048-1.142 17.81 6.598 23.333 20.905 27.888 39.879 27.888 2.891 0 5.567-.276 8.033-.791l-7.442-2.364a30.55 30.55 0 002.381-5.53l10.59 1.91c.13.02.26.03.38.03 1.01 0 1.91-.72 2.1-1.75.2-1.15-.57-2.26-1.73-2.47l-10.3-1.86c.31-1.64.52-3.3.63-4.98l9.81-1.46a2.139 2.139 0 001.8-2.42 2.143 2.143 0 00-2.43-1.8L115.52 81a63.84 63.84 0 00-.12-3.08c-.52-7.71-3.49-15.55-8.33-22.28-.036-.71-.096-1.644-.168-2.656h-.002c-2.663.964-5.618 1.487-8.836 1.487-4.735 0-8.911-.689-12.595-2.246z"/><path fill="#1c2327" d="M42.99 69.86c.94.08 1.72.82 1.81 1.75v.02c.5 5.74-2.99 10.73-7.78 11.15-4.79.42-9.1-3.89-9.61-9.63-.19-2.15.19-4.2.98-5.94.49-1.07 1.82-1.44 2.84-.85 3.31 1.91 7.35 3.15 11.76 3.5zm38.38 0c-.94.08-1.72.82-1.81 1.75v.02c-.5 5.74 2.99 10.73 7.78 11.15 4.79.42 9.1-3.89 9.61-9.63.19-2.15-.19-4.2-.98-5.94-.49-1.07-1.82-1.44-2.84-.85-3.31 1.91-7.35 3.15-11.76 3.5z"/><path fill="#433a30" d="M32.957 12.543c-.752-.053-1.468.056-2.137.357-8.424 3.807-11.145 27.925-11.968 39.133 3.212 1.573 6.93 2.438 11.084 2.438 12.835 0 21.592-5.028 27.443-18.867-.773.061-1.547.114-2.318.197-.2-.34-.402-.672-.622-1.022-3.57-5.945-14.211-21.72-21.482-22.236zm59.918.051c-7.273.488-17.967 16.23-21.564 22.156-.214.353-.419.68-.624 1.014 5.852 13.72 14.59 18.707 27.377 18.707 3.22 0 6.175-.523 8.838-1.487-.7-10.743-3.241-36.079-11.892-40.023a4.37 4.37 0 00-2.135-.367z"/><path fill="#f0c4b1" fill-rule="evenodd" stroke-linecap="round" stroke-linejoin="round" stroke-width="3.78" d="M100.624 49.478s5.89-64.229-25.943-11.535c0 0 16.015 4.056 25.943 11.535zm-77.315.215s-3.54-67.667 28.515-11.266c0 0-17.469 3.735-28.515 11.266z"/></svg><svg viewBox="0 0 128 128" id="1F63F" xmlns="http://www.w3.org/2000/svg"><path fill="#e9c35c" d="M114.727 21.479c-7.676.094-20.975 8.871-25.997 12.56-2.23 1.62-4.14 3.012-5.79 4.182-6.16-1.86-12.84-2.83-19.46-2.83-6.73-.01-13.52 1-19.77 2.92-1.92-1.12-4.22-2.491-6.94-4.141-6.52-3.97-26.23-14.57-31.06-8.41-5.72 7.31 3.2 30.22 7.65 40.48-1.46 3.83-2.37 7.78-2.63 11.71-.07.95-.1 1.9-.12 2.84l-7.2-1.07c-1.16-.15-2.25.63-2.42 1.79-.17 1.17.63 2.26 1.8 2.42l7.92 1.18a43.2 43.2 0 00.71 5.58l-8.5 1.53A2.133 2.133 0 001.2 94.7a2.142 2.142 0 002.1 1.75c.12 0 .25-.01.38-.03l8.84-1.59a29.79 29.79 0 002.58 5.71l-8.45 2.68a2.138 2.138 0 00-1.39 2.68 2.126 2.126 0 002.68 1.38l9.69-3.08a31.136 31.136 0 005.63 5.38c6.05 4.52 13.57 7.57 21.33 9.23 2.95.63 10.56 2.1 18.55 2.1s16.35-1.47 19.3-2.1c7.75-1.66 15.28-4.71 21.33-9.23 2.31-1.73 4.23-3.62 5.82-5.64l10.5 3.33c.21.07.43.1.65.1.9 0 1.74-.57 2.03-1.48.35-1.12-.27-2.33-1.39-2.68l-9.31-2.96c1.02-1.8 1.84-3.68 2.47-5.61l9.8 1.77a2.148 2.148 0 002.48-1.72c.2-1.13-.57-2.24-1.73-2.45l-9.49-1.71c.34-1.72.55-3.48.67-5.26l8.95-1.33a2.131 2.131 0 001.8-2.42c-.17-1.16-1.25-1.94-2.43-1.79l-8.22 1.22c-.02-1-.05-2-.12-3-.25-3.72-1.08-7.47-2.41-11.11 2.94-8.31 12.13-36.37 5.13-43.87-1-1.072-2.472-1.513-4.243-1.491zm-10.202 73.923z"/><path fill="#fff" d="M96.58 82.99c-1.2.09-1.04 2.11-1.06 2.94-.02.62.01 1.3-.09 1.92-.31 1.96-1.28 4.56-1.73 7.08-.52 2.87-.36 5.64 2.21 7.26 3.65 2.31 7.57-.83 8.37-4.51.65-3.04-.03-6.11-1.58-8.75-.97-1.64-2.18-3.64-3.73-4.77-.64-.45-1.55-1.24-2.39-1.17z"/><path fill="#2f2f2f" d="M76.527 70.879a2.137 2.137 0 00-2.168 2.82c.09.26 2.35 6.662 9.9 8.192.99.2 1.931.279 2.821.279 5.86 0 9.32-3.82 9.49-4 .78-.87.7-2.21-.17-2.99-.87-.78-2.22-.72-3.01.15-.13.14-3.2 3.4-8.29 2.38-5.07-1.02-6.64-5.2-6.71-5.4a2.126 2.126 0 00-1.863-1.431zm-26.779.601a2.14 2.14 0 00-1.889 1.4c-.07.19-1.65 4.37-6.75 5.37-5.1.99-8.13-2.3-8.25-2.42-.78-.88-2.13-.97-3.01-.2-.89.79-.979 2.13-.199 3.02.16.18 3.63 4.06 9.54 4.06.86 0 1.77-.09 2.74-.28 7.56-1.47 9.85-7.85 9.95-8.13a2.129 2.129 0 00-2.132-2.82z"/><path fill="#f0c4b1" fill-rule="evenodd" stroke-linecap="round" stroke-linejoin="round" stroke-width="3.78" d="M17.935 60.635S-8.685 5.596 36.248 41.821c0 0-12.335 8.895-18.313 18.814zm93.551-2.632S134.696 4.582 92.77 41.2c0 0 12.423 7.748 18.716 16.802z"/><path fill="#bb5100" fill-rule="evenodd" stroke-linecap="round" stroke-linejoin="round" stroke-width="3.78" d="M58.154 35.598c-1.55.12-3.096.291-4.629.515.328 3.187 2.071 17.916 4.63-.515zm11.944.122c1.087 17.689 3.85 2.996 4.283.551a68.83 68.83 0 00-4.283-.55zm-6.618-.33c-.493 0-.988.016-1.482.026.18 2.631 2.2 30.685 4.547.05a68.379 68.379 0 00-3.065-.075z"/></svg><svg viewBox="0 0 128 128" id="1F640" xmlns="http://www.w3.org/2000/svg"><path fill="#ebebeb" d="M125.09 92.58l-9.49-1.71c.34-1.72.55-3.48.67-5.26l8.95-1.33a2.132 2.132 0 001.8-2.42c-.17-1.17-1.25-1.95-2.42-1.8l-8.22 1.22c-.02-1-.05-2-.11-3-.23-3.35-.93-6.73-2.04-10.03 3.26-9.41 11.48-35.6 4.76-42.81-5.33-5.72-24.06 6.53-30.23 11.06-1.35.99-2.59 1.89-3.73 2.71-6.72-2.3-14.15-3.49-21.52-3.48-7.58-.01-15.25 1.23-22.12 3.67-1.38-.82-2.89-1.72-4.58-2.76-6.54-3.98-26.26-14.57-31.08-8.41-5.55 7.08 2.67 28.85 7.24 39.51-1.21 3.47-1.98 7.02-2.22 10.55-.06.95-.09 1.9-.12 2.85l-7.21-1.07c-1.16-.15-2.25.63-2.42 1.8-.17 1.17.63 2.25 1.8 2.42l7.92 1.18c.12 1.88.35 3.75.71 5.58l-8.5 1.53a2.134 2.134 0 00-1.72 2.48 2.129 2.129 0 002.09 1.75c.13 0 .26-.01.38-.03l8.83-1.59c.66 1.97 1.51 3.88 2.58 5.71l-8.45 2.68a2.122 2.122 0 00-1.39 2.68c.29.91 1.13 1.49 2.03 1.49.21 0 .43-.03.64-.1l9.69-3.08c1.56 1.92 3.4 3.73 5.62 5.39 6.05 4.51 13.58 7.57 21.33 9.23 2.95.63 10.57 2.1 18.56 2.1 7.99 0 16.35-1.47 19.3-2.1 7.75-1.66 15.28-4.71 21.33-9.23 2.31-1.73 4.23-3.62 5.82-5.65l10.5 3.34c.21.07.43.1.65.1.91 0 1.74-.58 2.03-1.49.36-1.12-.27-2.33-1.39-2.68l-9.31-2.96c1.02-1.8 1.84-3.68 2.47-5.61l9.8 1.77c.13.02.25.03.38.03 1.01 0 1.91-.72 2.1-1.75.22-1.16-.55-2.26-1.71-2.48z"/><path fill="#2f2f2f" d="M81.39 96.02c-5.94 0-8.27 4.54-13.22 5.2-4.97.51-8.3-3.37-14.07-1.98-5.27 1.28-7.11 6.42-5.94 9.8 1.24 3.63 4.58 5.87 10.25 5.2 5.47-.64 5.43-3.04 10.86-3.72 5.44-.61 5.95 1.74 11.43 1.09 5.67-.67 8.4-3.63 8.76-7.45.35-3.56-2.65-8.12-8.07-8.14zM48.695 72.275a2.125 2.125 0 00-1.965 1.844c-.01.05-.66 4.55-5.54 6.58-4.79 1.99-8.43-.619-8.57-.719a2.133 2.133 0 00-2.99.41c-.72.94-.54 2.27.4 2.99.17.13 3.14 2.34 7.53 2.34 1.59 0 3.37-.29 5.26-1.08 7.11-2.96 8.09-9.67 8.14-9.95.15-1.17-.66-2.25-1.83-2.4a2.172 2.172 0 00-.435-.015zm28.23.079a2.135 2.135 0 00-2.066 2.576c.06.28 1.551 6.9 8.871 9.3 1.55.51 3 .71 4.33.71 4.94 0 8.16-2.8 8.33-2.95.88-.78.96-2.13.18-3.01-.79-.89-2.13-.96-3.01-.18-.04.04-3.49 3.03-8.5 1.38-4.93-1.62-5.98-5.96-6.03-6.16a2.136 2.136 0 00-2.104-1.666z"/><path fill="#1a1a1a" d="M10.738 26.348c-2.186-.011-3.953.535-5.008 1.882-5.55 7.08 2.67 28.85 7.24 39.51a42.65 42.65 0 00-1.622 6.088c2.14.554 4.354.931 6.623 1.113 23.689 1.903 29.223-7.05 32.511-33.277a26.53 26.53 0 00.164-4.73c-3.184.601-6.296 1.415-9.255 2.466-1.38-.82-2.89-1.72-4.58-2.76-5.11-3.109-18.264-10.253-26.073-10.292zm1.492 4.72c3.823-.065 10.586 3.286 21.819 12.342 0 0-12.335 8.895-18.313 18.815 0 0-14.974-30.96-3.506-31.157z"/><path fill="#1a1a1a" stroke-linejoin="round" stroke-width=".78" d="M112.506 51.05c-1.608 4.8-3.219 8.544-3.219 8.544-2.051-2.952-4.753-5.759-7.465-8.21-11.462 2.102-10.943 7.831-16.65 21.837-.713 1.75-1.03 3.462-1.014 5.113.4.21.835.402 1.324.562 2.188.72 3.954.425 5.229-.04a7.692 7.692 0 001.482-.729c.17-.108.297-.2.377-.262l.08-.06.004-.004a.041.041 0 00.01-.01h.002c1.419-1.258 3.644-1.138 4.914.293v.002c1.265 1.427 1.133 3.648-.295 4.914v.002h-.002c-.264.233-3.772 3.287-9.222 3.287-.331 0-.67-.015-1.014-.039 3.985 5.215 11.649 8.866 20.185 9.482 4.889.353 9.413-1.21 13.077-4.013l-4.71-.85c.34-1.72.55-3.48.67-5.26l8.952-1.33a2.131 2.131 0 001.799-2.42c-.17-1.17-1.25-1.948-2.42-1.798l-8.22 1.218c-.02-1-.05-2-.11-3-.23-3.35-.93-6.729-2.04-10.029 1.153-3.326 2.921-8.76 4.434-14.701a19.128 19.128 0 00-6.158-2.498zm-81.92 34.266a41.624 41.624 0 00-4.813.268c-5.284.615-10.279 1.79-14.664 3.469.097.668.19 1.338.32 1.998l-6.99 1.258a28.528 28.528 0 00-3.261 2.337A2.128 2.128 0 003.68 96.78l8.83-1.59c.66 1.97 1.51 3.881 2.58 5.711l-8.45 2.68a2.122 2.122 0 00-1.39 2.68c.29.91 1.13 1.49 2.03 1.49.21 0 .43-.03.64-.1l9.69-3.08a31.467 31.467 0 005.62 5.39c6.05 4.51 13.58 7.57 21.33 9.23 1.48.315 4.132.843 7.417 1.29.733-1.412 1.462-3.1 2.195-4.968-1.183-.203-2.254-.56-3.197-1.076-1.998-1.094-3.377-2.873-4.09-4.956v-.001c-1.45-4.193.892-10.093 6.896-11.551h.002c.713-.172 1.393-.26 2.051-.301-2.551-4.799-7.934-8.893-15.064-10.934a14.686 14.686 0 01-3.21.377 14.69 14.69 0 01-6.974-1.754z"/><path fill="#f0c4b1" fill-rule="evenodd" stroke-linecap="round" stroke-linejoin="round" stroke-width="3.78" d="M15.736 62.226s-26.62-55.04 18.312-18.815c0 0-12.335 8.895-18.312 18.815z"/><path fill="#1a1a1a" stroke-linejoin="round" stroke-width=".78" d="M92.166 34.127c-1.327.893-2.52 1.722-3.406 2.373-1.35.99-2.59 1.89-3.73 2.71-4.644-1.588-9.628-2.634-14.696-3.134a12.226 11.875 0 00-.82 4.235A12.226 11.875 0 0081.74 52.186a12.226 11.875 0 0011.422-7.65 83.307 83.307 0 00-2.592-1.745 159.053 159.053 0 013.377-2.863 12.226 11.875 0 00-1.781-5.801z"/><path fill="#f0c4b1" fill-rule="evenodd" stroke-linecap="round" stroke-linejoin="round" stroke-width="3.78" d="M109.287 59.593s23.209-53.42-18.717-16.801c0 0 12.424 7.747 18.717 16.801z"/><path fill="#f3aed7" stroke="#f0a0af" stroke-linecap="round" stroke-linejoin="round" stroke-width="1.063" d="M68.505 89.216C68.68 91.997 64 95.258 64 95.258s-4.68-3.26-4.505-6.042c.176-2.782 3.578-2.635 4.505-1.318.927-1.317 4.33-1.464 4.505 1.318z"/></svg></svg>