<?xml version="1.0" encoding="utf-8"?><svg viewBox="0 0 128 128" xmlns="http://www.w3.org/2000/svg" xmlns:xlink="http://www.w3.org/1999/xlink"><style>:root>svg{display:none}:root>svg:target{display:block}</style><svg viewBox="0 0 128 128" id="1F60B" xmlns="http://www.w3.org/2000/svg"><path fill="#fcc21b" d="M127.22 93.42c0 13.86-28.29 25.1-63.22 25.1-34.92 0-63.23-11.24-63.23-25.1C.77 79.55 2.24 9.48 64 9.48c61.77 0 63.22 70.06 63.22 83.94"/><path fill="#d7598b" d="M82.18 93.97c9.68-.36 14.23 12.61 24.02 9.77 1.83-.52 3.71-1.75 5.25-3.39l-.06-.06.06.06c1.53-1.65 2.55-3.62 3.04-5.46 2.96-11.15-9.57-21.61-13.72-20.76L82.18 93.97z"/><g fill="#2f2f2f"><path d="M64 98.38c-1.66 0-3-1.34-3-3s1.34-3 3-3c14.93 0 27.82-8.18 32.07-20.35a3 3 0 013.82-1.84 3 3 0 011.84 3.82C96.64 88.59 81.48 98.38 64 98.38z"/><path d="M64 98.38c-17.48 0-32.64-9.79-37.74-24.37-.55-1.56.28-3.28 1.84-3.82s3.27.28 3.82 1.84C36.18 84.21 49.07 92.38 64 92.38c1.66 0 3 1.34 3 3s-1.34 3-3 3z"/></g><path fill="#2f2f2f" d="M30.84 55.61a2.728 2.728 0 01-3.73.93 2.72 2.72 0 01-.96-3.71c.18-.31 4.6-7.62 14.37-7.62 9.78 0 14.2 7.31 14.39 7.62a2.735 2.735 0 01-2.36 4.11c-.92 0-1.83-.47-2.34-1.32-.13-.22-3.12-4.96-9.69-4.96-6.57-.01-9.55 4.74-9.68 4.95zm70.04.94c-.43.26-.91.38-1.37.38-.94 0-1.85-.49-2.36-1.34-.11-.2-3.08-4.94-9.66-4.94-6.69 0-9.66 4.89-9.69 4.94a2.724 2.724 0 01-4.69-2.77c.18-.31 4.6-7.62 14.38-7.62 9.77 0 14.18 7.31 14.36 7.62.76 1.3.32 2.98-.97 3.73z"/></svg><svg viewBox="0 0 128 128" id="1F61B" xmlns="http://www.w3.org/2000/svg"><path fill="#fcc21b" d="M127.22 93.42c0 13.86-28.29 25.1-63.22 25.1-34.92 0-63.23-11.24-63.23-25.1C.77 79.55 2.24 9.48 64 9.48c61.77 0 63.22 70.06 63.22 83.94"/><path fill="#d7598b" d="M47.44 85.6c3.85 4.48.76 17.64 10.25 22.37 1.77.89 4.13 1.35 6.55 1.34v-.08.08c2.42-.04 4.77-.55 6.52-1.47 9.4-4.92 6.04-18.02 9.8-22.58l-33.12.34z"/><path fill="#2f2f2f" d="M64 89.76c-11.65 0-23.3-3.14-33.25-9.41a3.007 3.007 0 01-.94-4.14c.88-1.4 2.74-1.82 4.14-.94 17.97 11.34 42.12 11.34 60.09 0 1.4-.88 3.25-.46 4.14.94s.46 3.25-.94 4.14C87.3 86.63 75.65 89.76 64 89.76zM42.21 65.19c-4.49.04-8.17-4.27-8.22-9.62-.05-5.37 3.55-9.75 8.04-9.79 4.48-.04 8.17 4.27 8.22 9.64.05 5.36-3.55 9.73-8.04 9.77zm44.11 0c4.48-.01 8.11-4.36 8.1-9.71-.01-5.37-3.66-9.7-8.14-9.69-4.49.01-8.13 4.36-8.12 9.73.02 5.35 3.67 9.68 8.16 9.67z"/></svg><svg viewBox="0 0 128 128" id="1F61C" xmlns="http://www.w3.org/2000/svg"><path fill="#fcc21b" d="M127.22 93.42c0 13.86-28.29 25.1-63.22 25.1-34.92 0-63.23-11.24-63.23-25.1C.77 79.55 2.24 9.48 64 9.48c61.77 0 63.22 70.06 63.22 83.94"/><path fill="#2f2f2f" d="M48.32 55.41c0 5.41-3.62 9.79-8.1 9.79-4.48 0-8.12-4.38-8.12-9.79 0-5.42 3.64-9.8 8.12-9.8 4.48 0 8.1 4.38 8.1 9.8m50.14 6.37c-.5 1.13-1.7 1.72-2.86 1.52-.21-.04-.42-.1-.61-.19-7.83-3.49-18.47-3.39-18.57-3.39-1.21.02-2.24-.78-2.57-1.92-.33-1.15.16-2.37 1.18-2.98 9.01-5.41 21.72-7.26 22.25-7.33 1.45-.2 2.78.8 2.98 2.24.2 1.44-.81 2.77-2.24 2.98-.07.01-5.28.76-11.12 2.65 3.25.47 6.94 1.48 10.24 2.94 1.32.59 1.92 2.16 1.32 3.48z"/><path fill="#d7598b" d="M47.44 85.6c3.85 4.48.76 17.64 10.25 22.37 1.77.89 4.13 1.35 6.55 1.34v-.08.08c2.42-.04 4.77-.55 6.52-1.47 9.4-4.92 6.04-18.02 9.8-22.58l-33.12.34z"/><path fill="#2f2f2f" d="M64 89.76c-11.65 0-23.3-3.14-33.25-9.41a3.007 3.007 0 01-.94-4.14c.88-1.4 2.74-1.82 4.14-.94 17.97 11.34 42.12 11.34 60.09 0 1.4-.88 3.25-.46 4.14.94s.46 3.25-.94 4.14C87.3 86.63 75.65 89.76 64 89.76z"/></svg><svg viewBox="0 0 128 128" id="1F61D" xmlns="http://www.w3.org/2000/svg"><path fill="#fcc21b" d="M127.22 93.42c0 13.86-28.29 25.1-63.22 25.1-34.92 0-63.23-11.24-63.23-25.1C.77 79.55 2.24 9.48 64 9.48c61.77 0 63.22 70.06 63.22 83.94"/><path fill="#2f2f2f" d="M48.32-29.26c0 5.41-3.62 9.79-8.1 9.79-4.48 0-8.12-4.38-8.12-9.79 0-5.42 3.64-9.8 8.12-9.8 4.48 0 8.1 4.38 8.1 9.8m50.14 6.37c-.5 1.13-1.7 1.72-2.86 1.52-.21-.04-.42-.1-.61-.19-7.83-3.49-18.47-3.39-18.57-3.39-1.21.02-2.24-.78-2.57-1.92-.33-1.15.16-2.37 1.18-2.98 9.01-5.41 21.72-7.26 22.25-7.33 1.45-.2 2.78.8 2.98 2.24.2 1.44-.81 2.77-2.24 2.98-.07.01-5.28.76-11.12 2.65 3.25.47 6.94 1.48 10.24 2.94 1.32.6 1.92 2.16 1.32 3.48z"/><path fill="#d7598b" d="M47.44 85.93c3.85 4.48.76 17.64 10.25 22.37 1.77.89 4.13 1.35 6.55 1.34v-.08.08c2.42-.04 4.77-.55 6.52-1.47 9.4-4.92 6.04-18.02 9.8-22.58l-33.12.34z"/><path fill="#2f2f2f" d="M64 90.1c-11.65 0-23.3-3.14-33.25-9.41a3.007 3.007 0 01-.94-4.14c.88-1.4 2.74-1.82 4.14-.94 17.97 11.34 42.12 11.34 60.09 0 1.4-.88 3.25-.46 4.14.94s.46 3.25-.94 4.14C87.3 86.96 75.65 90.1 64 90.1zM98.46 63.78c-.5 1.13-1.7 1.72-2.86 1.52-.21-.04-.42-.1-.61-.19-7.83-3.49-18.47-3.39-18.57-3.39-1.21.02-2.24-.78-2.57-1.92-.33-1.15.16-2.37 1.18-2.98 9.01-5.41 21.72-7.26 22.25-7.33 1.45-.2 2.78.8 2.98 2.24.2 1.44-.81 2.77-2.24 2.98-.07.01-5.28.76-11.12 2.65 3.25.47 6.94 1.48 10.24 2.94 1.32.59 1.92 2.16 1.32 3.48zm-68.7 0c.5 1.13 1.7 1.72 2.86 1.52.21-.04.42-.1.61-.19 7.83-3.49 18.47-3.39 18.57-3.39 1.21.02 2.24-.78 2.57-1.92.33-1.15-.16-2.37-1.18-2.98-9.01-5.41-21.72-7.26-22.25-7.33-1.45-.2-2.78.8-2.98 2.24-.2 1.44.81 2.77 2.24 2.98.07.01 5.28.76 11.12 2.65-3.25.47-6.94 1.48-10.24 2.94a2.65 2.65 0 00-1.32 3.48z"/><path fill="none" stroke="#2f2f2f" stroke-linecap="round" stroke-linejoin="round" stroke-miterlimit="10" stroke-width="6" d="M23.18 228.98a78.106 78.106 0 0081.63 0"/></svg><svg viewBox="0 0 128 128" id="1F911" xmlns="http://www.w3.org/2000/svg"><style>.aest1{fill:#2f2f2f}</style><path fill="#fcc21b" d="M63.9 9.6C1.6 9.6.1 79.5.1 93.3c0 13.8 28.6 25 63.8 25 35.2 0 63.8-11.2 63.8-25S126.2 9.6 63.9 9.6z"/><path d="M51.3 55.6c-1.5-1.2-3.5-2-5.8-2.5V46c.8.3 1.4.7 2 1.3.4.5.8 1 1.1 1.6.3.7 1 1.2 1.8 1.2h.2c1.6 0 2.6-1.7 1.9-3.1-.4-.8-.9-1.6-1.7-2.2-1.4-1.4-3.2-2.2-5.3-2.5v-.8c0-1-.8-1.8-1.8-1.8s-1.8.8-1.8 1.8v.8c-2.1.2-3.9.9-5.4 2.1-1.6 1.3-2.4 2.9-2.4 4.6 0 1.6.8 3.1 2.4 4.5 1.4 1.3 3.3 2.2 5.5 2.7v7.7c-1.1-.2-2.1-.8-2.9-1.7-.5-.6-.9-1.3-1.1-2-.3-.9-1.1-1.6-2-1.6-1.4 0-2.4 1.4-2 2.7.4 1.2 1.1 2.4 2.2 3.4 1.6 1.6 3.6 2.5 5.9 2.8v.7c0 1 .8 1.8 1.8 1.8s1.8-.8 1.8-1.8v-.7c2.2-.3 4.2-1.1 5.8-2.4 1.7-1.5 2.5-3.3 2.5-5.3-.2-1.5-1-2.9-2.7-4.2zM49.6 60c0 .9-.4 1.7-1.3 2.5-.8.7-1.7 1.1-2.8 1.3v-7c1.1.3 2.1.7 2.8 1.3.9.6 1.3 1.3 1.3 1.9zM38.4 48.9c0-.7.4-1.4 1.1-2 .7-.5 1.5-.9 2.5-1.1v6.5c-1-.3-1.8-.8-2.5-1.4-.8-.6-1.1-1.3-1.1-2zm53.2 6.7c-1.5-1.2-3.5-2-5.8-2.5V46c.8.3 1.4.7 2 1.3.4.5.8 1 1.1 1.6.3.7 1 1.2 1.8 1.2h.2c1.6 0 2.6-1.7 1.9-3.1-.4-.8-.9-1.6-1.7-2.2-1.4-1.4-3.2-2.2-5.3-2.5v-.8c0-1-.8-1.8-1.8-1.8s-1.8.8-1.8 1.8v.8c-2.1.2-3.9.9-5.4 2.1-1.6 1.3-2.4 2.9-2.4 4.6 0 1.6.8 3.1 2.4 4.5 1.4 1.3 3.3 2.2 5.5 2.7v7.7c-1.1-.2-2.1-.8-2.9-1.7-.5-.6-.9-1.3-1.1-2-.3-.9-1.1-1.6-2-1.6-1.4 0-2.4 1.4-2 2.7.4 1.2 1.1 2.4 2.2 3.4 1.6 1.6 3.6 2.5 5.9 2.8v.7c0 1 .8 1.8 1.8 1.8s1.8-.8 1.8-1.8v-.7c2.2-.3 4.2-1.1 5.8-2.4 1.7-1.5 2.5-3.3 2.5-5.3-.1-1.5-1-2.9-2.7-4.2zM90 60c0 .9-.4 1.7-1.3 2.5-.8.7-1.7 1.1-2.8 1.3v-7c1.1.3 2.1.7 2.8 1.3.8.6 1.3 1.3 1.3 1.9zM78.7 48.9c0-.7.4-1.4 1.1-2 .7-.5 1.5-.9 2.5-1.1v6.5c-1-.3-1.8-.8-2.5-1.4-.7-.6-1.1-1.3-1.1-2z" class="aest1"/><path fill="none" d="M.1 0h128v128H.1z"/><path fill="#7cb342" d="M64 83.2H42.1c5 7.2-.2 28 12.2 35.7 2.3 1.4 6.4 2.2 9.6 2.2m.1.1c3.2 0 7.3-.8 9.6-2.2 12.5-7.7 7.2-28.5 12.2-35.7H64"/><path fill="none" stroke="#2f2f2f" stroke-linecap="round" stroke-linejoin="round" stroke-miterlimit="10" stroke-width="6" d="M34.5 81.6l.9.3c19 5.7 39.2 5.6 58.1-.3"/><path d="M70.6 104.8c-1.4-1-3.1-1.8-5.1-2.2v-6.3c.7.2 1.3.6 1.8 1.2.4.4.7.9.9 1.4.3.6.9 1.1 1.6 1.1h.2c1.4 0 2.3-1.5 1.7-2.8-.3-.7-.8-1.4-1.5-2-1.3-1.2-2.9-2-4.7-2.2v-.7c0-.9-.7-1.6-1.6-1.6-.9 0-1.6.7-1.6 1.6v.7c-1.9.2-3.5.8-4.8 1.9-1.4 1.2-2.2 2.5-2.2 4.1 0 1.5.7 2.8 2.1 4 1.3 1.1 2.9 1.9 4.9 2.4v6.8c-1-.2-1.9-.7-2.6-1.5-.5-.5-.8-1.1-1-1.7-.2-.8-.9-1.4-1.8-1.4-1.3 0-2.2 1.2-1.8 2.4.4 1.1 1 2.1 1.9 3 1.4 1.4 3.2 2.3 5.2 2.5v.6c0 .9.7 1.6 1.6 1.6.9 0 1.6-.7 1.6-1.6v-.6c2-.2 3.7-.9 5.1-2.2 1.5-1.3 2.3-2.9 2.3-4.7.1-1.4-.7-2.7-2.2-3.8zm-1.5 3.9c0 .8-.4 1.5-1.1 2.2-.7.6-1.5 1-2.5 1.2v-6.2c1 .3 1.9.7 2.5 1.2.8.5 1.1 1.1 1.1 1.6zm-10-9.9c0-.7.3-1.2 1-1.7.6-.5 1.3-.8 2.2-1v5.8c-.9-.3-1.6-.7-2.2-1.2-.6-.6-1-1.2-1-1.9z" class="aest1"/></svg><svg viewBox="0 0 128 128" id="1F92A" xmlns="http://www.w3.org/2000/svg"><defs><linearGradient id="afa"><stop offset="0" stop-color="#fff"/><stop offset="1" stop-color="#fff" stop-opacity=".901"/></linearGradient><linearGradient id="afb" x1="95.743" x2="95.743" y1="70.878" y2="82.469" gradientTransform="translate(-94.485 -9.55)" gradientUnits="userSpaceOnUse" xlink:href="#afa"/></defs><path fill="#fcc21b" d="M63.89 9.64C1.58 9.64.1 79.5.1 93.33c0 13.83 28.56 25.03 63.79 25.03 35.24 0 63.79-11.21 63.79-25.03 0-13.83-1.47-83.69-63.79-83.69z"/><ellipse cx="-34.521" cy="90.108" fill="#fff" rx="16.611" ry="15.501" transform="rotate(-83.65)"/><path fill="#2f2f2f" d="M90.733 44.57c-.189 2.712-2.58 4.782-5.332 4.618-2.761-.156-4.848-2.498-4.66-5.21.182-2.719 2.564-4.781 5.325-4.617 2.76.156 4.856 2.498 4.667 5.21"/><path fill="#fff" stroke-width=".877" d="M43.35 35.631a10.251 9.566 85.687 00-.956.02 10.251 9.566 85.687 00-8.77 10.942 10.251 9.566 85.687 003.789 7.395 19.139 9.56 0 017.729-.828 19.139 9.56 0 014.542.287 10.251 9.566 85.687 003.019-8.293 10.251 9.566 85.687 00-9.353-9.523z"/><path fill="#2f2f2f" stroke-width="1.209" d="M47.624 46.469c.27 2.328-1.423 4.459-3.78 4.756-2.364.305-4.501-1.345-4.77-3.666-.283-2.329 1.408-4.46 3.772-4.764 2.357-.297 4.502 1.352 4.778 3.674"/><path fill="#ec6c31" stroke-width="5" d="M95.593 62.568c-3.385-1.568-7.004.416-10.286 1.668-9.14 3.487-17.438 4.913-21.426 5.56-3.988.646-12.312 1.915-22.086 1.493-3.509-.15-7.57-.89-10.285 1.667-3.446 3.243.927 12.159 8.045 17.509 4.303 3.233 14.273 9.245 28.794 6.891 14.52-2.354 22.08-11.208 25.142-15.635 5.063-7.324 6.386-17.163 2.102-19.153z"/><path fill="url(#afb)" stroke-linejoin="round" stroke-width=".78" d="M-59.131 61.33c-.956.01-1.713.21-2.41.681h-.002c-.288.195-.523.5-.641 1.379-.119.879-.002 2.216.432 3.732.117.41.26.832.42 1.262a44.377 16.047 0 0030.847 4.535A44.377 16.047 0 00.353 68.41c.164-.438.31-.868.43-1.285.433-1.516.55-2.854.431-3.734-.118-.879-.352-1.186-.636-1.379-.93-.63-1.969-.775-3.44-.633-1.47.142-3.223.628-5.074 1.01-9.851 2.036-18.474 2.111-22.547 2.111s-12.694-.075-22.545-2.111c-1.851-.382-3.605-.868-5.076-1.01a9.628 9.628 0 00-1.027-.049z" transform="rotate(-9.208 65.106 -520.024)"/><path fill="#ff71a9" stroke="#ff71a9" stroke-linecap="round" stroke-linejoin="round" stroke-width="1.319" d="M43.534 89.125s-6.298 21.392 6.27 25.708c12.569 4.316 17.887-13.02 15.763-21.387-7.733-3.722-12.46-4.95-22.033-4.321z"/><path fill="#ff71a9" stroke="#ff63a0" stroke-linecap="round" stroke-linejoin="round" stroke-width="1.319" d="M53.699 89.83s5.827.452 1.062 21.397"/></svg></svg>