<?xml version="1.0" encoding="utf-8"?><svg viewBox="0 0 128 128" xmlns="http://www.w3.org/2000/svg" xmlns:xlink="http://www.w3.org/1999/xlink"><style>:root>svg{display:none}:root>svg:target{display:block}</style><svg style="fill-rule:evenodd;clip-rule:evenodd;stroke-linejoin:round;stroke-miterlimit:1.41421" viewBox="0 0 128 128" xml:space="preserve" id="1F47F" xmlns="http://www.w3.org/2000/svg"><path d="M64.46 24.82c-58.32 0-59.7 65.38-59.7 78.33 0 12.93 26.75 23.43 59.7 23.43 32.99 0 59.7-10.5 59.7-23.43.01-12.95-1.37-78.33-59.7-78.33z" style="fill:#b47ce4;fill-rule:nonzero"/><path d="M83.92 40.16c.71-2.01 2.2-3.9 4.43-5.65 1.82-1.43 3.75-2.83 5.25-4.61 4.42-5.26 6.58-13.45 5.58-20.29-.23-1.53-1.72-4.48-.71-5.87 1.75-2.38 6.08.08 7.47 1.45 4.35 4.28 6.96 10.15 8.23 16.05 1.59 7.33 1.37 14.93-1.06 22.03-2.02 5.88-6.87 11.69-13.12 13.07-5.36 1.19-11.15-2.35-14.11-6.56-2.39-3.42-3.01-6.65-1.96-9.62zm-38.91-.84c-.71-2-2.18-3.89-4.43-5.65-1.83-1.43-3.72-2.83-5.24-4.61-4.41-5.26-6.57-13.44-5.57-20.28.23-1.54 1.7-4.48.7-5.87-1.74-2.4-6.07.07-7.47 1.45-4.34 4.28-6.95 10.15-8.24 16.04-1.57 7.32-1.36 14.93 1.08 22.03 2.01 5.88 6.88 11.69 13.12 13.08 5.35 1.19 11.14-2.36 14.08-6.56 2.4-3.43 3.03-6.65 1.97-9.63z" style="fill:#b47ce4;fill-rule:nonzero"/><path d="M38.06 89.86c-13.82-2.84-15.27-15.5-14.29-21l34.26 10.26c-.97 5.47-10.27 12.72-19.97 10.74z" style="fill:#2f2f2f;fill-rule:nonzero"/><clipPath id="aaa"><path d="M38.06 89.86c-13.82-2.84-15.27-15.5-14.29-21l34.26 10.26c-.97 5.47-10.27 12.72-19.97 10.74z"/></clipPath><g clip-path="url(#aaa)"><path d="M39.47 84.11c-9.17-1.79-9.99-11.04-8.65-14.68l21.47 6.8c-.13 3.62-6.35 9.15-12.82 7.88z" style="fill:#fbb817;fill-rule:nonzero"/></g><path d="M90.87 89.86c13.82-2.84 15.27-15.5 14.29-21L70.9 79.11c.97 5.48 10.28 12.73 19.97 10.75z" style="fill:#2f2f2f;fill-rule:nonzero"/><clipPath id="aab"><path d="M90.87 89.86c13.82-2.84 15.27-15.5 14.29-21L70.9 79.11c.97 5.48 10.28 12.73 19.97 10.75z"/></clipPath><g clip-path="url(#aab)"><path d="M89.45 84.11c9.17-1.79 9.99-11.04 8.65-14.68l-21.46 6.8c.12 3.62 6.34 9.15 12.81 7.88z" style="fill:#fbb817;fill-rule:nonzero"/></g><path d="M63.18 98.3c.63 0 1.31.03 1.98.06 15.84.95 21.84 9.54 22.09 9.9.9 1.3.54 3.06-.74 3.94-1.29.88-3.03.54-3.92-.73-.23-.32-4.93-6.69-17.77-7.44-12.8-.74-18.38 7.62-18.45 7.7-.83 1.31-2.6 1.69-3.91.84a2.82 2.82 0 0 1-.83-3.91c.28-.46 6.86-10.36 21.55-10.36z" style="fill:#2f2f2f;fill-rule:nonzero"/></svg><svg viewBox="0 0 128 128" id="1F480" xmlns="http://www.w3.org/2000/svg"><g fill="#78a3ad"><path d="M104.08 49.57c-1.51-2.24-3.08-4.55-3.65-7.24-.24-1.11-1.54-5.46.03-6.08.87-.34 1.02.9 1.22 1.45 1.16 3.06 1.58 6.01 3.73 8.6 1.55 1.88 3.37 3.56 4.79 5.53C110.15 24.54 98.96 1.87 64 1.87c-34.82 0-46.06 22.49-46.2 49.63 1.38-1.84 3.11-3.43 4.57-5.2 2.14-2.59 2.57-5.54 3.73-8.6.21-.55.37-1.79 1.22-1.45 1.58.62.27 4.97.04 6.08-.58 2.69-2.14 5-3.65 7.24-1.62 2.4-3.79 4.56-4.62 7.4-.42 1.42-.81 2.83-.78 4.31.2 1.76.44 3.51.78 5.25 1.09 5.59 3.8 14.47 8.97 17.62 4 2.43 8.91.96 12.5 4.35 3.07 2.91 3.41 7.23 7.67 9.01 3.75 1.57 8.8 1.61 13.1 1.61 4.62 0 8.84.06 13.07-.99 4-1 8.37-2.88 11.19-6.04.48-.53.85-1.12 1.19-1.72.82-1.44 1.48-2.96 2.95-3.99 2.09-1.46 4.85-1.4 7.21-2.17 5.43-1.79 6.71-6.35 9.15-10.95 1.65-3.09 2.62-6.2 3.22-9.39.09-.86.13-1.72.16-2.58.02-1.48-.37-2.9-.78-4.32-.82-2.83-3-5-4.61-7.4zM45.1 71.23c-13.53 3.91-18.54-7.93-13.89-15.86 2.49-4.25 7.76-7.38 15.97-6.36 13.31 1.65 8.28 19.21-2.08 22.22zm22.72 12.75c-1.72.2-3.26.4-4.95.18-2.13-.27-5.45.23-6.85-1.83-.52-.76-.51-1.62-.44-2.49.04-.47.11-.95.12-1.42.05-2.02.73-3.96 1.61-5.76.43-.89.93-1.79 1.4-2.69 1.08-2.07 3.71-4.61 6.29-3.52 1.06.45 2.43 1.31 3.02 2.32.66 1.14.77 2.5 1.35 3.67.53 1.07.75 2.09.93 3.3.16 1.09.29 2.2.4 3.29.23 2.4-.1 4.62-2.88 4.95zm14.84-12.75C72.3 68.22 67.27 50.66 80.57 49c8.22-1.02 13.48 2.11 15.98 6.36 4.65 7.94-.36 19.78-13.89 15.87z"/><path d="M94.84 88.67c-5.73-1.6-4.91 8.15-6.93 11.05-2.93 4.19-9.22 3.64-13.69 4.14-5.22.59-9.92 1-15.34 1-6.42 0-15.66.83-20.41-4.52-2.57-2.9-1.4-6.55-3.31-9.48-1.71-2.62-5.59-3.45-5.61.63-.01 3.14.8 6.46 1.34 9.53.73 4.15 1.69 8 3.58 11.79 1.37 2.73 3.7 4.61 6 6.54 2.76 2.31 5.67 3.09 9.08 4.16 1.64.51 3.3.99 4.99 1.23 2.06.3 4.24.27 6.33.54 3.14.4 7.01 1.29 10.23.57 5.15-1.14 10.19-3.86 15.01-5.8 9.82-3.94 12.49-15.38 12.49-25.07-.01-3.01-.49-5.4-3.76-6.31z"/></g></svg><svg style="fill-rule:evenodd;clip-rule:evenodd;stroke-linejoin:round;stroke-miterlimit:1.41421" viewBox="0 0 128 128" xml:space="preserve" id="1F608" xmlns="http://www.w3.org/2000/svg"><path d="M64.46 24.82c-58.32 0-59.7 65.38-59.7 78.33 0 12.93 26.75 23.43 59.7 23.43 32.99 0 59.7-10.5 59.7-23.43.01-12.95-1.37-78.33-59.7-78.33z" style="fill:#b47ce4;fill-rule:nonzero"/><path d="M83.92 40.16c.71-2.01 2.2-3.9 4.43-5.65 1.82-1.43 3.75-2.83 5.25-4.61 4.42-5.26 6.58-13.45 5.58-20.29-.23-1.53-1.72-4.48-.71-5.87 1.75-2.38 6.08.08 7.47 1.45 4.35 4.28 6.96 10.15 8.23 16.05 1.59 7.33 1.37 14.93-1.06 22.03-2.02 5.88-6.87 11.69-13.12 13.07-5.36 1.19-11.15-2.35-14.11-6.56-2.39-3.42-3.01-6.65-1.96-9.62zm-38.91-.84c-.71-2-2.18-3.89-4.43-5.65-1.83-1.43-3.72-2.83-5.24-4.61-4.41-5.26-6.57-13.44-5.57-20.28.23-1.54 1.7-4.48.7-5.87-1.74-2.4-6.07.07-7.47 1.45-4.34 4.28-6.95 10.15-8.24 16.04-1.57 7.32-1.36 14.93 1.08 22.03 2.01 5.88 6.88 11.69 13.12 13.08 5.35 1.19 11.14-2.36 14.08-6.56 2.4-3.43 3.03-6.65 1.97-9.63z" style="fill:#b47ce4;fill-rule:nonzero"/><path d="M38.06 89.86c-13.82-2.84-15.27-15.5-14.29-21l34.26 10.26c-.97 5.47-10.27 12.72-19.97 10.74z" style="fill:#2f2f2f;fill-rule:nonzero"/><clipPath id="aca"><path d="M38.06 89.86c-13.82-2.84-15.27-15.5-14.29-21l34.26 10.26c-.97 5.47-10.27 12.72-19.97 10.74z"/></clipPath><g clip-path="url(#aca)"><path d="M39.47 84.11c-9.17-1.79-9.99-11.04-8.65-14.68l21.47 6.8c-.13 3.62-6.35 9.15-12.82 7.88z" style="fill:#fbb817;fill-rule:nonzero"/></g><path d="M90.87 89.86c13.82-2.84 15.27-15.5 14.29-21L70.9 79.11c.97 5.48 10.28 12.73 19.97 10.75z" style="fill:#2f2f2f;fill-rule:nonzero"/><clipPath id="acb"><path d="M90.87 89.86c13.82-2.84 15.27-15.5 14.29-21L70.9 79.11c.97 5.48 10.28 12.73 19.97 10.75z"/></clipPath><g clip-path="url(#acb)"><path d="M89.45 84.11c9.17-1.79 9.99-11.04 8.65-14.68l-21.46 6.8c.12 3.62 6.34 9.15 12.81 7.88z" style="fill:#fbb817;fill-rule:nonzero"/></g><path d="M65.74 113.02c-.63 0-1.31-.03-1.98-.06-15.84-.95-21.84-9.54-22.09-9.9-.9-1.3-.54-3.06.74-3.94 1.29-.88 3.03-.54 3.92.73.23.32 4.93 6.69 17.77 7.44 12.8.74 18.38-7.62 18.45-7.7.83-1.31 2.6-1.69 3.91-.84s1.69 2.6.83 3.91c-.28.45-6.86 10.36-21.55 10.36z" style="fill:#2f2f2f;fill-rule:nonzero"/></svg><svg viewBox="0 0 128 128" id="1F620" xmlns="http://www.w3.org/2000/svg"><path fill="#fcc21b" d="M63.79 8.64C1.48 8.64 0 78.5 0 92.33c0 13.83 28.56 25.03 63.79 25.03 35.24 0 63.79-11.21 63.79-25.03 0-13.83-1.47-83.69-63.79-83.69z"/><path fill="none" stroke="#2f2f2f" stroke-linecap="round" stroke-miterlimit="10" stroke-width="6" d="M38.58 89.5c13.23-13.8 37.19-13.8 50.42 0"/><path fill="#2f2f2f" d="M97.53 48.87a2.5 2.5 0 0 0-1.4-1.5c-.66-.28-1.4-.27-2.05.03l-16.51 7.55s-1.08.51-2.19.49c-2.27-.03-2.51-1.34-3.1-2.34-.27-.48-.94-.95-1.57-.69-1.07.45-1 2.79-.92 3.38.25 1.74.75 3.09 1.23 4.06.59 1.18 1.91 2.82 2.36 3.25 2.45 2.44 6.67 3.97 10.96 3.72 1.76-.09 3.46-.48 5.06-1.13 8.98-3.69 9.78-12.09 8.13-16.82zm-67.27 0a2.5 2.5 0 0 1 1.4-1.5c.66-.28 1.4-.27 2.06.03l16.51 7.55s1.07.51 2.18.49c2.27-.03 2.52-1.34 3.09-2.34.28-.48.94-.95 1.57-.69 1.07.45 1 2.79.92 3.38-.24 1.74-.74 3.09-1.23 4.06-.59 1.18-1.91 2.82-2.36 3.25-2.46 2.44-6.67 3.97-10.97 3.72-1.77-.09-3.47-.48-5.06-1.13-8.96-3.69-9.76-12.09-8.11-16.82z"/></svg><svg viewBox="0 0 128 128" id="1F621" xmlns="http://www.w3.org/2000/svg"><path fill="#fcc21b" d="M63.99 9.64C1.68 9.64.2 79.5.2 93.33c0 13.83 28.56 25.03 63.79 25.03 35.24 0 63.79-11.21 63.79-25.03 0-13.83-1.47-83.69-63.79-83.69z"/><defs><path id="aea" d="M63.99 9.64C1.68 9.64.2 79.5.2 93.33c0 13.83 28.56 25.03 63.79 25.03 35.24 0 63.79-11.21 63.79-25.03 0-13.83-1.47-83.69-63.79-83.69z"/></defs><clipPath id="aeb"><use overflow="visible" xlink:href="#aea"/></clipPath><g clip-path="url(#aeb)"><path fill="#fcc21b" d="M85.87 82.6c-33.26 8.25-69.93-3.39-82.01-26.08C-8.19 33.87 8.89 8.77 42.12.48c33.15-8.24 69.9 3.43 82.04 26.11 12.02 22.68-5.12 47.78-38.29 56.01z"/><path fill="#fcc01c" d="M84.96 80.88c-31.86 7.91-67-3.25-78.57-24.99-11.56-21.7 4.81-45.76 36.65-53.7 31.76-7.89 67.02 3.27 78.61 25.02 11.55 21.71-4.92 45.78-36.69 53.67z"/><path fill="#fcbe1c" d="M84.04 79.16C53.57 86.72 19.97 76.05 8.9 55.27-2.15 34.51 13.5 11.51 43.95 3.91c30.37-7.55 64.09 3.12 75.17 23.93 11.06 20.76-4.69 43.78-35.08 51.32z"/><path fill="#fbbb1d" d="M83.13 77.44c-29.08 7.21-61.14-2.97-71.71-22.8C.87 34.83 15.81 12.88 44.87 5.63c28.99-7.2 61.17 2.98 71.74 22.83 10.55 19.82-4.49 41.78-33.48 48.98z"/><path fill="#fbb91e" d="M82.21 75.72c-27.68 6.87-58.22-2.83-68.28-21.71C3.89 35.15 18.12 14.26 45.78 7.35c27.6-6.86 58.24 2.84 68.31 21.74 10.04 18.86-4.27 39.78-31.88 46.63z"/><path fill="#fbb71e" d="M81.29 74.01C55 80.53 26.01 71.32 16.45 53.39 6.91 35.48 20.42 15.63 46.7 9.07c26.21-6.51 55.31 2.69 64.87 20.65 9.54 17.91-4.05 37.77-30.28 44.29z"/><path fill="#fbb51f" d="M80.38 72.29c-24.9 6.17-52.36-2.54-61.41-19.53C9.94 35.8 22.73 17 47.61 10.79c24.82-6.17 52.38 2.55 61.44 19.55 9.04 16.97-3.84 35.78-28.67 41.95z"/><path fill="#fab220" d="M79.46 70.57c-23.51 5.83-49.43-2.4-57.98-18.44-8.53-16.01 3.55-33.76 27.04-39.62 23.44-5.82 49.45 2.41 58 18.46 8.54 16.01-3.61 33.78-27.06 39.6z"/><path fill="#fab020" d="M78.55 68.85C56.43 74.33 32.04 66.59 24 51.51c-8.02-15.07 3.34-31.76 25.44-37.28 22.05-5.48 46.53 2.27 54.57 17.37 8.03 15.06-3.41 31.77-25.46 37.25z"/><path fill="#faae21" d="M77.63 67.13c-20.72 5.14-43.58-2.12-51.11-16.25C19 36.76 29.65 21.11 50.36 15.95c20.66-5.13 43.6 2.12 51.14 16.27 7.51 14.12-3.2 29.78-23.87 34.91z"/><path fill="#faac22" d="M76.71 65.41c-19.33 4.79-40.65-1.98-47.68-15.16-7.01-13.17 2.93-27.76 22.24-32.59 19.27-4.79 40.67 1.98 47.7 15.18 7.02 13.18-2.98 27.78-22.26 32.57z"/><path fill="#f9a922" d="M75.8 63.69c-17.94 4.44-37.72-1.84-44.25-14.07-6.5-12.22 2.72-25.77 20.64-30.24 17.89-4.45 37.74 1.84 44.27 14.09 6.51 12.22-2.77 25.78-20.66 30.22z"/><path fill="#f9a723" d="M74.88 61.98c-16.54 4.1-34.8-1.7-40.82-12.98-6-11.27 2.51-23.77 19.04-27.89C69.6 17 87.92 22.8 93.94 34.1c6 11.27-2.55 23.77-19.06 27.88z"/><path fill="#f9a524" d="M73.97 60.26C58.81 64.01 42.1 58.7 36.58 48.37c-5.49-10.32 2.3-21.77 17.44-25.55 15.11-3.76 31.89 1.55 37.4 11.9 5.5 10.33-2.34 21.78-17.45 25.54z"/><path fill="#f9a324" d="M73.05 58.54c-13.76 3.41-28.94-1.41-33.95-10.8-4.99-9.38 2.09-19.77 15.84-23.2 13.72-3.41 28.96 1.41 33.97 10.81 4.99 9.37-2.13 19.78-15.86 23.19z"/><path fill="#f8a025" d="M72.13 56.82c-12.37 3.06-26.02-1.27-30.52-9.7-4.48-8.43 1.88-17.77 14.24-20.85 12.34-3.07 26.03 1.27 30.53 9.71 4.49 8.42-1.91 17.77-14.25 20.84z"/><path fill="#f89e26" d="M71.22 55.1c-10.97 2.71-23.09-1.13-27.09-8.61-3.98-7.48 1.67-15.77 12.64-18.51 10.95-2.72 23.1 1.12 27.1 8.62 3.98 7.48-1.7 15.78-12.65 18.5z"/><path fill="#f89c26" d="M70.3 53.38c-9.58 2.37-20.16-.99-23.65-7.52-3.47-6.53 1.46-13.77 11.04-16.16 9.56-2.38 20.17.98 23.66 7.53C84.82 43.76 79.86 51 70.3 53.38z"/><path fill="#f89a27" d="M69.39 51.66c-8.19 2.02-17.23-.85-20.22-6.43-2.97-5.58 1.25-11.77 9.43-13.82 8.18-2.04 17.25.84 20.23 6.43 2.97 5.59-1.27 11.79-9.44 13.82z"/><path fill="#f79728" d="M68.47 49.94c-6.8 1.68-14.32-.7-16.79-5.34-2.47-4.63 1.04-9.77 7.83-11.47 6.79-1.69 14.32.69 16.8 5.34 2.47 4.64-1.05 9.78-7.84 11.47z"/><path fill="#f79528" d="M67.55 48.23c-5.4 1.33-11.39-.56-13.36-4.25-1.96-3.68.83-7.77 6.23-9.12 5.4-1.35 11.39.55 13.36 4.25 1.97 3.68-.83 7.77-6.23 9.12z"/><path fill="#f79329" d="M66.64 46.51c-4.01.98-8.45-.42-9.93-3.15-1.45-2.74.62-5.78 4.63-6.78s8.45.41 9.93 3.15c1.45 2.74-.62 5.78-4.63 6.78z"/></g><path fill="#2f2f2f" d="M51.25 51.1c.94.08 1.72.82 1.81 1.75v.02c.5 5.74-2.99 10.73-7.78 11.15-4.79.42-9.1-3.89-9.61-9.63-.19-2.15.19-4.2.98-5.94.49-1.07 1.82-1.44 2.84-.85 3.31 1.91 7.35 3.15 11.76 3.5zm27.13 0c-.94.08-1.72.82-1.81 1.75v.02c-.5 5.74 2.99 10.73 7.78 11.15 4.79.42 9.1-3.89 9.61-9.63.19-2.15-.19-4.2-.98-5.94-.49-1.07-1.82-1.44-2.84-.85-3.31 1.91-7.35 3.15-11.76 3.5zm-15.6 28.09c13.92-2.45 23.26 4.16 23.65 4.44a3.257 3.257 0 0 1 .73 4.54 3.257 3.257 0 0 1-4.54.73c-.29-.21-7.61-5.27-18.71-3.31-11.1 1.96-16.25 9.22-16.46 9.52-1.02 1.47-3.04 1.85-4.51.84a3.245 3.245 0 0 1-.86-4.5c.27-.39 6.79-9.8 20.7-12.26z"/></svg><svg viewBox="0 0 128 128" id="1F624" xmlns="http://www.w3.org/2000/svg"><path fill="#fcc21b" d="M64 9.64C1.69 9.64.21 79.5.21 93.33c0 13.83 28.56 25.03 63.79 25.03 35.24 0 63.79-11.21 63.79-25.03 0-13.83-1.47-83.69-63.79-83.69z"/><path fill="#fcc21b" d="M109.54 76.27c-9.5 3.41-19.98-1.4-23.44-10.78-3.44-9.37 1.43-19.74 10.93-23.17 9.47-3.41 19.98 1.42 23.45 10.79 3.44 9.38-1.46 19.75-10.94 23.16z"/><path fill="#fcc01c" d="M109.31 75.63c-9.15 3.29-19.24-1.35-22.56-10.37-3.31-9.02 1.38-19 10.52-22.3 9.12-3.28 19.23 1.37 22.57 10.39 3.31 9.02-1.41 19.01-10.53 22.28z"/><path fill="#fcbe1c" d="M109.07 75c-8.79 3.16-18.49-1.29-21.69-9.97-3.18-8.67 1.33-18.26 10.11-21.43 8.77-3.15 18.48 1.31 21.69 9.98 3.19 8.67-1.34 18.27-10.11 21.42z"/><path fill="#fbbb1d" d="M108.84 74.36c-8.44 3.03-17.74-1.24-20.81-9.57-3.06-8.32 1.27-17.53 9.7-20.57 8.41-3.03 17.74 1.26 20.82 9.58 3.05 8.33-1.29 17.54-9.71 20.56z"/><path fill="#fbb91e" d="M108.61 73.73c-8.08 2.9-17-1.19-19.93-9.17-2.93-7.97 1.22-16.79 9.3-19.7 8.06-2.9 16.99 1.21 19.94 9.18 2.91 7.97-1.25 16.79-9.31 19.69z"/><path fill="#fbb71e" d="M108.37 73.09c-7.73 2.78-16.25-1.14-19.06-8.76-2.8-7.62 1.17-16.05 8.89-18.84 7.7-2.77 16.24 1.15 19.06 8.77 2.8 7.63-1.18 16.07-8.89 18.83z"/><path fill="#fbb51f" d="M108.14 72.46c-7.37 2.65-15.5-1.09-18.18-8.36-2.67-7.27 1.11-15.31 8.48-17.97 7.35-2.64 15.5 1.1 18.19 8.37 2.66 7.27-1.14 15.32-8.49 17.96z"/><path fill="#fab220" d="M107.9 71.82c-7.02 2.52-14.75-1.03-17.3-7.96-2.54-6.92 1.06-14.57 8.07-17.1 7-2.52 14.75 1.05 17.31 7.97 2.54 6.92-1.08 14.58-8.08 17.09z"/><path fill="#fab020" d="M107.67 71.19c-6.66 2.39-14.01-.98-16.43-7.55-2.41-6.57 1.01-13.84 7.66-16.24 6.64-2.39 14 1 16.43 7.56 2.42 6.57-1.02 13.85-7.66 16.23z"/><path fill="#faae21" d="M107.44 70.56c-6.31 2.26-13.26-.93-15.55-7.15-2.28-6.22.95-13.1 7.25-15.37 6.29-2.26 13.26.94 15.56 7.16 2.28 6.21-.97 13.1-7.26 15.36z"/><path fill="#faac22" d="M107.2 69.92c-5.95 2.14-12.51-.88-14.68-6.75-2.15-5.87.9-12.36 6.84-14.5 5.93-2.13 12.51.89 14.68 6.76 2.16 5.86-.9 12.36-6.84 14.49z"/><path fill="#f9a922" d="M106.97 69.29c-5.59 2.01-11.77-.82-13.8-6.35-2.03-5.51.85-11.62 6.44-13.64 5.58-2.01 11.76.84 13.8 6.35 2.02 5.52-.86 11.63-6.44 13.64z"/><path fill="#f9a723" d="M106.74 68.65c-5.24 1.88-11.02-.77-12.92-5.94-1.9-5.16.79-10.88 6.03-12.77 5.23-1.88 11.02.78 12.93 5.95 1.88 5.16-.82 10.89-6.04 12.76z"/><path fill="#f9a524" d="M106.5 68.02c-4.88 1.75-10.27-.72-12.05-5.54-1.77-4.81.74-10.14 5.62-11.91 4.87-1.75 10.27.73 12.05 5.55 1.77 4.81-.75 10.15-5.62 11.9z"/><path fill="#f9a324" d="M106.27 67.38c-4.53 1.63-9.53-.67-11.17-5.14-1.64-4.46.68-9.41 5.21-11.04 4.52-1.62 9.52.68 11.17 5.14 1.64 4.48-.69 9.42-5.21 11.04z"/><path fill="#f8a025" d="M106.03 66.75c-4.17 1.5-8.78-.62-10.29-4.74-1.51-4.11.63-8.67 4.8-10.17 4.16-1.5 8.77.63 10.3 4.74 1.51 4.12-.64 8.67-4.81 10.17z"/><path fill="#f89e26" d="M105.8 66.11c-3.82 1.37-8.03-.56-9.42-4.33-1.38-3.76.58-7.93 4.39-9.31 3.81-1.37 8.03.57 9.42 4.34 1.39 3.77-.58 7.94-4.39 9.3z"/><path fill="#f89c26" d="M105.57 65.48c-3.46 1.24-7.28-.51-8.54-3.93-1.25-3.41.52-7.19 3.98-8.44 3.46-1.24 7.28.52 8.55 3.93 1.25 3.42-.54 7.2-3.99 8.44z"/><path fill="#f89a27" d="M105.33 64.85c-3.11 1.12-6.54-.46-7.67-3.53-1.13-3.06.47-6.45 3.57-7.58 3.1-1.11 6.53.47 7.67 3.53 1.14 3.07-.47 6.46-3.57 7.58z"/><path fill="#f79728" d="M105.1 64.21c-2.75.99-5.79-.41-6.79-3.12s.42-5.72 3.17-6.71c2.75-.99 5.79.41 6.79 3.13.99 2.71-.43 5.72-3.17 6.7z"/><path fill="#f79528" d="M104.87 63.58c-2.4.86-5.04-.35-5.91-2.72-.87-2.36.36-4.98 2.76-5.84 2.39-.86 5.04.36 5.92 2.72.85 2.36-.38 4.98-2.77 5.84z"/><path fill="#f79329" d="M104.63 62.94c-2.04.73-4.3-.3-5.04-2.32-.74-2.01.31-4.24 2.35-4.98 2.04-.73 4.29.31 5.04 2.32.74 2.02-.31 4.25-2.35 4.98z"/><path fill="#fcc21b" d="M31.54 76.27c-9.5 3.41-19.98-1.4-23.44-10.78-3.44-9.37 1.43-19.74 10.93-23.17 9.47-3.41 19.98 1.42 23.45 10.79 3.44 9.38-1.46 19.75-10.94 23.16z"/><path fill="#fcc01c" d="M31.31 75.63c-9.15 3.29-19.24-1.35-22.56-10.37-3.31-9.02 1.38-19 10.52-22.3 9.12-3.28 19.23 1.37 22.57 10.39 3.31 9.02-1.41 19.01-10.53 22.28z"/><path fill="#fcbe1c" d="M31.07 75c-8.79 3.16-18.49-1.29-21.69-9.97-3.18-8.67 1.34-18.27 10.12-21.44 8.77-3.15 18.48 1.31 21.69 9.98 3.18 8.68-1.35 18.28-10.12 21.43z"/><path fill="#fbbb1d" d="M30.84 74.36c-8.44 3.03-17.74-1.24-20.81-9.57-3.06-8.32 1.27-17.53 9.7-20.57 8.41-3.03 17.74 1.26 20.82 9.58 3.05 8.33-1.29 17.54-9.71 20.56z"/><path fill="#fbb91e" d="M30.61 73.73c-8.08 2.9-17-1.19-19.93-9.17-2.93-7.97 1.22-16.79 9.3-19.7 8.06-2.9 16.99 1.21 19.94 9.18 2.91 7.97-1.25 16.79-9.31 19.69z"/><path fill="#fbb71e" d="M30.37 73.09c-7.73 2.78-16.25-1.14-19.06-8.76-2.8-7.62 1.17-16.05 8.89-18.84 7.7-2.77 16.24 1.15 19.06 8.77 2.8 7.63-1.18 16.07-8.89 18.83z"/><path fill="#fbb51f" d="M30.14 72.46c-7.37 2.65-15.5-1.09-18.18-8.36-2.67-7.27 1.11-15.31 8.48-17.97 7.35-2.64 15.5 1.1 18.19 8.37 2.66 7.27-1.14 15.32-8.49 17.96z"/><path fill="#fab220" d="M29.9 71.82c-7.02 2.52-14.76-1.03-17.3-7.96-2.54-6.92 1.06-14.57 8.07-17.1 7-2.52 14.75 1.05 17.31 7.97 2.54 6.92-1.08 14.58-8.08 17.09z"/><path fill="#fab020" d="M29.67 71.19c-6.66 2.39-14.01-.98-16.43-7.55-2.41-6.57 1.01-13.84 7.66-16.24 6.64-2.39 14 1 16.43 7.56 2.42 6.57-1.02 13.85-7.66 16.23z"/><path fill="#faae21" d="M29.44 70.56c-6.31 2.26-13.26-.93-15.55-7.15-2.28-6.22.95-13.1 7.25-15.37 6.29-2.26 13.26.94 15.56 7.16 2.28 6.21-.97 13.1-7.26 15.36z"/><path fill="#faac22" d="M29.2 69.92c-5.95 2.14-12.51-.88-14.68-6.75-2.15-5.87.9-12.36 6.84-14.5 5.93-2.13 12.51.89 14.68 6.76 2.16 5.86-.9 12.36-6.84 14.49z"/><path fill="#f9a922" d="M28.97 69.29c-5.59 2.01-11.77-.82-13.8-6.35-2.03-5.51.85-11.62 6.44-13.64 5.58-2.01 11.76.84 13.8 6.35 2.02 5.52-.86 11.63-6.44 13.64z"/><path fill="#f9a723" d="M28.74 68.65c-5.24 1.88-11.02-.77-12.92-5.94-1.9-5.16.79-10.88 6.03-12.77 5.23-1.88 11.02.78 12.93 5.95 1.88 5.16-.82 10.89-6.04 12.76z"/><path fill="#f9a524" d="M28.5 68.02c-4.88 1.75-10.27-.72-12.05-5.54-1.77-4.81.74-10.14 5.62-11.91 4.87-1.75 10.27.73 12.05 5.55 1.77 4.81-.75 10.15-5.62 11.9z"/><path fill="#f9a324" d="M28.27 67.38c-4.53 1.63-9.53-.67-11.17-5.14-1.64-4.46.68-9.41 5.21-11.04 4.52-1.62 9.52.68 11.17 5.14 1.64 4.48-.69 9.42-5.21 11.04z"/><path fill="#f8a025" d="M28.03 66.75c-4.17 1.5-8.78-.62-10.29-4.74-1.51-4.11.63-8.67 4.8-10.17 4.16-1.5 8.77.63 10.3 4.74 1.51 4.12-.64 8.67-4.81 10.17z"/><path fill="#f89e26" d="M27.8 66.11c-3.82 1.37-8.03-.56-9.42-4.33-1.38-3.76.58-7.93 4.39-9.31 3.81-1.37 8.03.57 9.42 4.34 1.39 3.77-.58 7.94-4.39 9.3z"/><path fill="#f89c26" d="M27.57 65.48c-3.46 1.24-7.28-.51-8.54-3.93-1.25-3.41.52-7.19 3.98-8.44 3.46-1.24 7.28.52 8.55 3.93 1.25 3.42-.54 7.2-3.99 8.44z"/><path fill="#f89a27" d="M27.33 64.85c-3.11 1.12-6.54-.46-7.67-3.53-1.13-3.06.47-6.45 3.57-7.58 3.1-1.11 6.53.47 7.67 3.53 1.14 3.07-.47 6.46-3.57 7.58z"/><path fill="#f79728" d="M27.1 64.21c-2.75.99-5.79-.41-6.79-3.12s.42-5.72 3.17-6.71c2.75-.99 5.79.41 6.79 3.13.99 2.71-.43 5.72-3.17 6.7z"/><path fill="#f79528" d="M26.87 63.58c-2.4.86-5.04-.35-5.91-2.72-.87-2.36.36-4.98 2.76-5.84 2.39-.86 5.04.36 5.92 2.72.85 2.36-.38 4.98-2.77 5.84z"/><path fill="#f79329" d="M26.63 62.94c-2.04.73-4.3-.3-5.04-2.32-.74-2.01.31-4.24 2.35-4.98 2.04-.73 4.29.31 5.04 2.32.74 2.02-.31 4.25-2.35 4.98z"/><path fill="#fff" d="M37.92 95.6c-3.29 5.74-10.63 7.77-16.45 4.53-.33-.19-.61-.43-.91-.64-3.63 2.2-8.29 2.49-12.26.29C2.5 96.54.46 89.24 3.74 83.51c.07-.13.18-.23.26-.35-1.91-3.49-2.04-7.82.09-11.53 3.28-5.74 10.66-7.76 16.45-4.53 2.38 1.33 4.08 3.35 5.09 5.64 8-2.09 21.07-10.5 27.49-16.84 0 0-9.53 15.02-19.64 23.52 5.69 3.28 7.69 10.49 4.44 16.18zm52.16 0c3.29 5.74 10.63 7.77 16.45 4.53.33-.19.61-.43.91-.64 3.63 2.2 8.29 2.49 12.26.29 5.8-3.24 7.84-10.54 4.56-16.27-.07-.13-.18-.23-.26-.35 1.91-3.49 2.04-7.82-.09-11.53-3.28-5.74-10.66-7.76-16.45-4.53-2.38 1.33-4.08 3.35-5.09 5.64-8-2.09-21.07-10.5-27.49-16.84 0 0 9.53 15.02 19.64 23.52-5.69 3.28-7.69 10.49-4.44 16.18z"/><path fill="#2f2f2f" d="M80.04 48.65c0-.88.12-1.71.3-2.51 1.72-.47 3.52-1.13 5.35-2.22 1.85-1.11 3.39-2.23 4.77-3.37 2.19 1.58 3.67 4.59 3.67 8.1 0 5.11-3.14 9.25-7.04 9.25-3.9.01-7.05-4.14-7.05-9.25zm-31.66 0c0-.88-.12-1.71-.3-2.51-1.72-.47-3.52-1.13-5.34-2.22a37.684 37.684 0 0 1-4.77-3.37c-2.19 1.58-3.67 4.59-3.67 8.1 0 5.11 3.14 9.25 7.04 9.25 3.88.01 7.04-4.14 7.04-9.25zm-5.51 30.5c-.67 0-1.35-.25-1.88-.75a2.75 2.75 0 0 1-.12-3.89c5.8-6.18 14.24-9.73 23.13-9.73 8.9 0 17.33 3.55 23.13 9.73a2.76 2.76 0 0 1-.12 3.89 2.76 2.76 0 0 1-3.89-.12C78.35 73.2 71.38 70.29 64 70.29c-7.38 0-14.35 2.91-19.12 7.99-.55.58-1.28.87-2.01.87z"/></svg><svg viewBox="0 0 128 128" id="1F92C" xmlns="http://www.w3.org/2000/svg"><path fill="#fcc21b" d="M63.99 9.64C1.68 9.64.2 79.5.2 93.33c0 13.83 28.56 25.03 63.79 25.03 35.24 0 63.79-11.21 63.79-25.03 0-13.83-1.47-83.69-63.79-83.69z"/><defs><path id="aga" d="M63.99 9.64C1.68 9.64.2 79.5.2 93.33c0 13.83 28.56 25.03 63.79 25.03 35.24 0 63.79-11.21 63.79-25.03 0-13.83-1.47-83.69-63.79-83.69z"/></defs><clipPath id="agb"><use overflow="visible" xlink:href="#aga"/></clipPath><g clip-path="url(#agb)"><path fill="#fcc21b" d="M85.87 82.6c-33.26 8.25-69.93-3.39-82.01-26.08C-8.19 33.87 8.89 8.77 42.12.48c33.15-8.24 69.9 3.43 82.04 26.11 12.02 22.68-5.12 47.78-38.29 56.01z"/><path fill="#fcc01c" d="M84.96 80.88c-31.86 7.91-67-3.25-78.57-24.99-11.56-21.7 4.81-45.76 36.65-53.7 31.76-7.89 67.02 3.27 78.61 25.02 11.55 21.71-4.92 45.78-36.69 53.67z"/><path fill="#fcbe1c" d="M84.04 79.16C53.57 86.72 19.97 76.05 8.9 55.27-2.15 34.51 13.5 11.51 43.95 3.91c30.37-7.55 64.09 3.12 75.17 23.93 11.06 20.76-4.69 43.78-35.08 51.32z"/><path fill="#fbbb1d" d="M83.13 77.44c-29.08 7.21-61.14-2.97-71.71-22.8C.87 34.83 15.81 12.88 44.87 5.63c28.99-7.2 61.17 2.98 71.74 22.83 10.55 19.82-4.49 41.78-33.48 48.98z"/><path fill="#fbb91e" d="M82.21 75.72c-27.68 6.87-58.22-2.83-68.28-21.71C3.89 35.15 18.12 14.26 45.78 7.35c27.6-6.86 58.24 2.84 68.31 21.74 10.04 18.86-4.27 39.78-31.88 46.63z"/><path fill="#fbb71e" d="M81.29 74.01C55 80.53 26.01 71.32 16.45 53.39 6.91 35.48 20.42 15.63 46.7 9.07c26.21-6.51 55.31 2.69 64.87 20.65 9.54 17.91-4.05 37.77-30.28 44.29z"/><path fill="#fbb51f" d="M80.38 72.29c-24.9 6.17-52.36-2.54-61.41-19.53C9.94 35.8 22.73 17 47.61 10.79c24.82-6.17 52.38 2.55 61.44 19.55 9.04 16.97-3.84 35.78-28.67 41.95z"/><path fill="#fab220" d="M79.46 70.57c-23.51 5.83-49.43-2.4-57.98-18.44-8.53-16.01 3.55-33.76 27.04-39.62 23.44-5.82 49.45 2.41 58 18.46 8.54 16.01-3.61 33.78-27.06 39.6z"/><path fill="#fab020" d="M78.55 68.85C56.43 74.33 32.04 66.59 24 51.51c-8.02-15.07 3.34-31.76 25.44-37.28 22.05-5.48 46.53 2.27 54.57 17.37 8.03 15.06-3.41 31.77-25.46 37.25z"/><path fill="#faae21" d="M77.63 67.13c-20.72 5.14-43.58-2.12-51.11-16.25C19 36.76 29.65 21.11 50.36 15.95c20.66-5.13 43.6 2.12 51.14 16.27 7.51 14.12-3.2 29.78-23.87 34.91z"/><path fill="#faac22" d="M76.71 65.41c-19.33 4.79-40.65-1.98-47.68-15.16-7.01-13.17 2.93-27.76 22.24-32.59 19.27-4.79 40.67 1.98 47.7 15.18 7.02 13.18-2.98 27.78-22.26 32.57z"/><path fill="#f9a922" d="M75.8 63.69c-17.94 4.44-37.72-1.84-44.25-14.07-6.5-12.22 2.72-25.77 20.64-30.24 17.89-4.45 37.74 1.84 44.27 14.09 6.51 12.22-2.77 25.78-20.66 30.22z"/><path fill="#f9a723" d="M74.88 61.98c-16.54 4.1-34.8-1.7-40.82-12.98-6-11.27 2.51-23.77 19.04-27.89C69.6 17 87.92 22.8 93.94 34.1c6 11.27-2.55 23.77-19.06 27.88z"/><path fill="#f9a524" d="M73.97 60.26C58.81 64.01 42.1 58.7 36.58 48.37c-5.49-10.32 2.3-21.77 17.44-25.55 15.11-3.76 31.89 1.55 37.4 11.9 5.5 10.33-2.34 21.78-17.45 25.54z"/><path fill="#f9a324" d="M73.05 58.54c-13.76 3.41-28.94-1.41-33.95-10.8-4.99-9.38 2.09-19.77 15.84-23.2 13.72-3.41 28.96 1.41 33.97 10.81 4.99 9.37-2.13 19.78-15.86 23.19z"/><path fill="#f8a025" d="M72.13 56.82c-12.37 3.06-26.02-1.27-30.52-9.7-4.48-8.43 1.88-17.77 14.24-20.85 12.34-3.07 26.03 1.27 30.53 9.71 4.49 8.42-1.91 17.77-14.25 20.84z"/><path fill="#f89e26" d="M71.22 55.1c-10.97 2.71-23.09-1.13-27.09-8.61-3.98-7.48 1.67-15.77 12.64-18.51 10.95-2.72 23.1 1.12 27.1 8.62 3.98 7.48-1.7 15.78-12.65 18.5z"/><path fill="#f89c26" d="M70.3 53.38c-9.58 2.37-20.16-.99-23.65-7.52-3.47-6.53 1.46-13.77 11.04-16.16 9.56-2.38 20.17.98 23.66 7.53C84.82 43.76 79.86 51 70.3 53.38z"/><path fill="#f89a27" d="M69.39 51.66c-8.19 2.02-17.23-.85-20.22-6.43-2.97-5.58 1.25-11.77 9.43-13.82 8.18-2.04 17.25.84 20.23 6.43 2.97 5.59-1.27 11.79-9.44 13.82z"/><path fill="#f79728" d="M68.47 49.94c-6.8 1.68-14.32-.7-16.79-5.34-2.47-4.63 1.04-9.77 7.83-11.47 6.79-1.69 14.32.69 16.8 5.34 2.47 4.64-1.05 9.78-7.84 11.47z"/><path fill="#f79528" d="M67.55 48.23c-5.4 1.33-11.39-.56-13.36-4.25-1.96-3.68.83-7.77 6.23-9.12 5.4-1.35 11.39.55 13.36 4.25 1.97 3.68-.83 7.77-6.23 9.12z"/><path fill="#f79329" d="M66.64 46.51c-4.01.98-8.45-.42-9.93-3.15-1.45-2.74.62-5.78 4.63-6.78s8.45.41 9.93 3.15c1.45 2.74-.62 5.78-4.63 6.78z"/></g><path fill="#2f2f2f" d="M51.25 51.1c.94.08 1.72.82 1.81 1.75v.02c.5 5.74-2.99 10.73-7.78 11.15-4.79.42-9.1-3.89-9.61-9.63-.19-2.15.19-4.2.98-5.94.49-1.07 1.82-1.44 2.84-.85 3.31 1.91 7.35 3.15 11.76 3.5zm27.13 0c-.94.08-1.72.82-1.81 1.75v.02c-.5 5.74 2.99 10.73 7.78 11.15 4.79.42 9.1-3.89 9.61-9.63.19-2.15-.19-4.2-.98-5.94-.49-1.07-1.82-1.44-2.84-.85-3.31 1.91-7.35 3.15-11.76 3.5z"/><path fill="#ed6c30" d="M43.09 98.64c1.99 1.34 4.5.46 6.71 0 6.18-1.28 11.6-1.33 14.2-1.33 2.6 0 8.03.05 14.2 1.33 2.21.46 4.72 1.34 6.71 0 2.52-1.71.66-7.83-3.31-11.97-2.4-2.5-8.13-7.35-17.61-7.35-9.48 0-15.2 4.85-17.61 7.35-3.95 4.15-5.81 10.27-3.29 11.97z"/><rect width="80.585" height="17.281" x="23.707" y="81.015" fill="#441400" rx=".7" ry=".7"/><text x="26.371" y="97.861" fill="#fff" fill-opacity=".909" stroke-width=".621" font-family="sans-serif" font-size="24.83" font-weight="400" letter-spacing="0" style="line-height:1.25" word-spacing="0"><tspan x="26.371" y="97.861" font-family="Comic Neue" font-weight="700" style="-inkscape-font-specification:'Comic Neue Bold'">%#!$&amp;</tspan></text></svg><svg viewBox="0 0 128 128" id="2620" xmlns="http://www.w3.org/2000/svg"><g fill="#769da7"><path d="M13.62 119.86a9.946 9.946 0 0 1-5.27 2.76 8.221 8.221 0 0 0 1.94 3.04c3.49 3.49 9.35 3.28 13.09-.46 3.74-3.74 3.95-9.6.46-13.08-2.08-2.08-5-2.82-7.82-2.3 1.21 3.29.39 7.25-2.4 10.04z"/><ellipse cx="9.1" cy="110.94" rx="9.58" ry="8.93" transform="rotate(-45.001 9.101 110.937)"/><path d="M104.16 15.87c2.08 2.08 5 2.82 7.82 2.3-1.21-3.28-.39-7.25 2.4-10.04a9.946 9.946 0 0 1 5.27-2.76 8.221 8.221 0 0 0-1.94-3.04c-3.49-3.49-9.34-3.28-13.08.46-3.75 3.74-3.95 9.6-.47 13.08z"/><ellipse cx="118.9" cy="17.06" rx="9.58" ry="8.93" transform="rotate(-45.001 118.898 17.065)"/><path d="m110.15 8.39 9.46 9.46A2276.452 2276.452 0 0 0 18.68 118.78l-9.46-9.46C43.91 76.74 77.57 43.08 110.15 8.39z"/><path d="M26.31 117.78c.03-3.95 1.37-8.75 5.91-13.29l-8.49 5.83-1.39 2.38 3.97 5.08zM10.23 101.7c3.95-.03 8.75-1.37 13.29-5.91l-5.83 8.49-2.38 1.39-5.08-3.97zm91.47-91.47c-.03 3.95-1.37 8.75-5.91 13.29l8.49-5.83 1.39-2.38-3.97-5.08zm16.08 16.08c-3.95.03-8.75 1.37-13.29 5.91l5.83-8.49 2.38-1.39 5.08 3.97zM8.14 13.62a9.946 9.946 0 0 1-2.76-5.27 8.221 8.221 0 0 0-3.04 1.94c-3.49 3.49-3.28 9.35.46 13.09 3.74 3.74 9.6 3.95 13.08.46 2.08-2.08 2.82-5 2.3-7.82-3.29 1.21-7.25.39-10.04-2.4z"/><ellipse cx="17.06" cy="9.1" rx="8.93" ry="9.58" transform="rotate(-45.001 17.063 9.103)"/><path d="M112.13 104.16c-2.08 2.08-2.82 5-2.3 7.82 3.28-1.21 7.25-.39 10.04 2.4a9.946 9.946 0 0 1 2.76 5.27 8.221 8.221 0 0 0 3.04-1.94c3.49-3.49 3.28-9.34-.46-13.08-3.74-3.75-9.6-3.95-13.08-.47z"/><ellipse cx="110.94" cy="118.9" rx="8.93" ry="9.58" transform="rotate(-45.001 110.936 118.9)"/><path d="m119.61 110.15-9.46 9.46A2276.452 2276.452 0 0 0 9.22 18.68l9.46-9.46c32.58 34.69 66.24 68.35 100.93 100.93z"/><path d="M10.22 26.31c3.95.03 8.75 1.37 13.29 5.91l-5.83-8.49-2.38-1.39-5.08 3.97zM26.3 10.23c.03 3.95 1.37 8.75 5.91 13.29l-8.49-5.83-1.39-2.38 3.97-5.08zm91.47 91.47c-3.95-.03-8.75-1.37-13.29-5.91l5.83 8.49 2.38 1.39 5.08-3.97zm-16.08 16.08c-.03-3.95-1.37-8.75-5.91-13.29l8.49 5.83 1.39 2.38-3.97 5.08z"/></g><path fill="none" stroke="#fff" stroke-miterlimit="10" stroke-width="5.25" d="M106 58.62c0-24.64-13.67-40.25-42.26-40.25C35.67 18.38 22 33.98 22 58.62c0 18.65 7.34 28.67 18.5 33.57.57 17.38 10.86 17.43 23.5 17.43s22.93-.05 23.5-17.43c11.16-4.9 18.5-14.92 18.5-33.57z"/><path fill="#769da7" d="M106 58.62c0 29.85-18.8 37.61-42 37.61s-42-7.76-42-37.61c0-24.64 13.67-40.25 41.73-40.25 28.6.01 42.27 15.61 42.27 40.25z"/><path fill="#fff" d="M58.31 60.75C57.21 67.96 50 71.78 42.7 71.78s-11.43-4.71-11.43-9.54c0-6.43 8.91-13.73 16.21-13.73s11.81 5.89 10.83 12.24zm11.38 0c1.1 7.21 8.31 11.04 15.61 11.04s11.43-4.71 11.43-9.54c0-6.43-8.91-13.73-16.21-13.73-7.31 0-11.81 5.88-10.83 12.23z"/><path fill="#769da7" d="M87.55 90.7c0 18.92-10.55 18.92-23.55 18.92s-23.55 0-23.55-18.92S50.99 71.78 64 71.78s23.55 0 23.55 18.92z"/><ellipse cx="64" cy="82.65" fill="#fff" rx="5.96" ry="8.84"/></svg></svg>