<?xml version="1.0" encoding="utf-8"?><svg viewBox="0 0 128 128" xmlns="http://www.w3.org/2000/svg" xmlns:xlink="http://www.w3.org/1999/xlink"><style>:root>svg{display:none}:root>svg:target{display:block}</style><svg viewBox="0 0 128 128" id="1F600" xmlns="http://www.w3.org/2000/svg"><defs><linearGradient id="aaa"><stop offset="0" stop-color="#fff"/><stop offset="1" stop-color="#fff" stop-opacity=".787"/></linearGradient><linearGradient id="aab" x1="95.743" x2="95.743" y1="70.878" y2="82.469" gradientUnits="userSpaceOnUse" xlink:href="#aaa"/></defs><path fill="#fcc21b" d="M63.89 9.64C1.58 9.64.1 79.5.1 93.33c0 13.83 28.56 25.03 63.79 25.03 35.24 0 63.79-11.21 63.79-25.03 0-13.83-1.47-83.69-63.79-83.69z"/><path fill="#2f2f2f" d="M42 58.3c-4.49.04-8.17-4.27-8.22-9.62-.05-5.37 3.55-9.75 8.04-9.79 4.48-.04 8.17 4.27 8.22 9.64.05 5.35-3.55 9.72-8.04 9.77zm44.11 0c4.48-.01 8.11-4.36 8.1-9.71-.01-5.37-3.66-9.7-8.14-9.69-4.49.01-8.13 4.36-8.12 9.73.02 5.35 3.67 9.68 8.16 9.67z"/><path fill="#ec6c31" stroke-width="5" d="M96.462 69.49c-3.09-2.09-6.98-.71-10.42 0-9.58 1.98-18 2.06-22.04 2.06-4.04 0-12.46-.08-22.04-2.06-3.44-.71-7.33-2.09-10.42 0-3.92 2.65-1.03 12.15 5.14 18.57 3.73 3.88 12.61 11.41 27.32 11.41s23.59-7.53 27.32-11.41c6.17-6.42 9.05-15.92 5.14-18.57z"/><path fill="url(#aab)" stroke-linejoin="round" stroke-width=".78" d="M35.354 70.879c-.956.01-1.713.21-2.41.682h-.003c-.287.194-.522.5-.64 1.378-.119.88-.002 2.216.431 3.733.117.409.26.831.42 1.262A44.377 16.047 0 0064 82.469a44.377 16.047 0 0030.838-4.51c.164-.438.31-.869.43-1.285.433-1.517.55-2.855.431-3.735-.118-.878-.352-1.185-.636-1.378-.93-.63-1.969-.775-3.44-.633-1.47.142-3.224.627-5.074 1.01-9.851 2.036-18.474 2.11-22.547 2.11s-12.694-.074-22.545-2.11c-1.851-.383-3.605-.868-5.076-1.01a9.628 9.628 0 00-1.027-.05z"/></svg><svg viewBox="0 0 128 128" id="1F601" xmlns="http://www.w3.org/2000/svg"><defs><linearGradient id="aba"><stop offset="0" stop-color="#fff"/><stop offset="1" stop-color="#fff" stop-opacity=".901"/></linearGradient><linearGradient id="abb" x1="95.743" x2="95.743" y1="70.878" y2="82.469" gradientTransform="translate(0 -6.773)" gradientUnits="userSpaceOnUse" xlink:href="#aba"/><linearGradient id="abc" x1="95.743" x2="95.743" y1="96.735" y2="81.998" gradientTransform="translate(0 -6.773)" gradientUnits="userSpaceOnUse" xlink:href="#aba"/></defs><path fill="#fcc21b" d="M63.89 9.64C1.58 9.64.1 79.5.1 93.33c0 13.83 28.56 25.03 63.79 25.03 35.24 0 63.79-11.21 63.79-25.03 0-13.83-1.47-83.69-63.79-83.69z"/><path fill="#2f2f2f" d="M31.96 51.85a2.728 2.728 0 01-3.73.93 2.72 2.72 0 01-.96-3.71c.18-.31 4.6-7.62 14.37-7.62 9.78 0 14.2 7.31 14.39 7.62a2.735 2.735 0 01-2.36 4.11c-.92 0-1.83-.47-2.34-1.32-.13-.22-3.12-4.96-9.69-4.96-6.57-.01-9.54 4.74-9.68 4.95zm68.04.94c-.43.26-.91.38-1.37.38-.94 0-1.85-.49-2.36-1.34-.11-.2-3.08-4.94-9.66-4.94-6.69 0-9.66 4.89-9.69 4.94a2.724 2.724 0 01-4.69-2.77c.18-.31 4.6-7.62 14.38-7.62 9.77 0 14.18 7.31 14.36 7.62.76 1.3.32 2.97-.97 3.73z"/><path fill="#ec6c31" stroke-width="5" d="M96.462 62.716c-3.09-2.09-6.98-.71-10.42 0-9.58 1.98-18 2.06-22.04 2.06-4.04 0-12.46-.08-22.04-2.06-3.44-.71-7.33-2.09-10.42 0-3.92 2.65-1.03 12.15 5.14 18.57 3.73 3.88 12.61 11.41 27.32 11.41s23.59-7.53 27.32-11.41c6.17-6.42 9.05-15.92 5.14-18.57z"/><path fill="url(#abb)" stroke-linejoin="round" stroke-width=".78" d="M35.354 64.106c-.956.01-1.713.21-2.41.682h-.003c-.287.194-.522.5-.64 1.379-.119.879-.002 2.216.431 3.732.118.41.26.832.42 1.262A44.377 16.047 0 0064 75.696a44.377 16.047 0 0030.838-4.51c.164-.438.31-.868.43-1.285.433-1.517.55-2.854.431-3.734-.118-.879-.352-1.186-.636-1.38-.93-.628-1.969-.774-3.44-.632-1.47.142-3.224.628-5.074 1.01-9.851 2.036-18.474 2.111-22.547 2.111s-12.694-.075-22.545-2.111c-1.851-.382-3.605-.868-5.076-1.01a9.628 9.628 0 00-1.027-.049z"/><path style="line-height:normal;font-variant-ligatures:normal;font-variant-position:normal;font-variant-caps:normal;font-variant-numeric:normal;font-variant-alternates:normal;font-variant-east-asian:normal;font-feature-settings:normal;text-indent:0;text-align:start;text-decoration-line:none;text-decoration-style:solid;text-decoration-color:#000;text-transform:none;text-orientation:mixed;shape-padding:0;isolation:auto;mix-blend-mode:normal" fill="url(#abc)" stroke-linejoin="round" stroke-width=".78" d="M33.605 72.238c1.083 2.474 2.771 5.123 4.88 7.317 3.475 3.616 11.66 10.642 25.517 10.642s22.041-7.026 25.518-10.642c2.1-2.186 3.783-4.825 4.865-7.291C86.066 75.046 75.26 76.585 64 76.586c-11.273-.006-22.083-1.555-30.395-4.348z" color="#000" font-family="sans-serif" font-weight="400" overflow="visible"/></svg><svg viewBox="0 0 128 128" id="1F602" xmlns="http://www.w3.org/2000/svg"><defs><linearGradient id="acb" x1="95.743" x2="95.743" y1="70.878" y2="82.469" gradientTransform="translate(-5.045 -5.53)" gradientUnits="userSpaceOnUse" xlink:href="#aca"/><linearGradient id="aca"><stop offset="0" stop-color="#fff"/><stop offset="1" stop-color="#fff" stop-opacity=".787"/></linearGradient></defs><path fill="#fcc21b" d="M63.89 9.64C1.58 9.64.1 79.5.1 93.33c0 13.83 28.56 25.03 63.79 25.03 35.24 0 63.79-11.21 63.79-25.03 0-13.83-1.47-83.69-63.79-83.69z"/><path fill="#2f2f2f" d="M31.96 54.45a2.728 2.728 0 01-3.73.93 2.72 2.72 0 01-.96-3.71c.18-.31 4.6-7.62 14.37-7.62 9.78 0 14.2 7.31 14.39 7.62a2.735 2.735 0 01-2.36 4.11c-.92 0-1.83-.47-2.34-1.32-.13-.22-3.12-4.96-9.69-4.96-6.57-.01-9.54 4.74-9.68 4.95zm68.04.94c-.43.26-.91.38-1.37.38-.94 0-1.85-.49-2.36-1.34-.11-.2-3.08-4.94-9.66-4.94-6.69 0-9.66 4.89-9.69 4.94a2.724 2.724 0 01-4.69-2.77c.18-.31 4.6-7.62 14.38-7.62 9.77 0 14.18 7.31 14.36 7.62.76 1.3.32 2.97-.97 3.73z"/><path fill="#fff" d="M106.57 79.41c-1.38-2.21-2.93-6.97-3.17-8.49-.41-2.61-1.5-7.34-2.3-11.3-.22-1.07-.2-2.56 1.15-2.63 1.08-.03 2.77.61 3.76.95 2.92 1 5.98 2.69 8.51 4.4 4.62 3.17 7.76 8.25 7.14 13.99-.47 4.24-4.45 7.04-8.05 6.87-2.6-.1-5.76-1.73-7.04-3.79zm-85.14 0c1.38-2.21 2.93-6.97 3.17-8.49.41-2.61 1.5-7.34 2.3-11.3.22-1.07.2-2.56-1.15-2.63-1.08-.03-2.77.61-3.76.95-2.92 1-5.98 2.69-8.51 4.4-4.62 3.17-7.76 8.25-7.14 13.99.47 4.24 4.45 7.04 8.05 6.87 2.6-.1 5.76-1.73 7.04-3.79z"/><path fill="#ec6c31" stroke-width="5" d="M96.462 63.959c-3.09-2.09-6.98-.71-10.42 0-9.58 1.98-18 2.06-22.04 2.06-4.04 0-12.46-.08-22.04-2.06-3.44-.71-7.33-2.09-10.42 0-3.92 2.65-1.03 12.15 5.14 18.57 3.73 3.88 12.61 11.41 27.32 11.41s23.59-7.53 27.32-11.41c6.17-6.42 9.05-15.92 5.14-18.57z"/><path fill="url(#acb)" stroke-linejoin="round" stroke-width=".78" d="M30.308 65.349c-.955.01-1.712.21-2.41.681h-.002c-.288.195-.522.5-.64 1.379-.12.88-.003 2.216.431 3.732.117.41.26.832.42 1.262a44.377 16.047 0 0030.848 4.535 44.377 16.047 0 0030.838-4.51c.163-.438.31-.868.43-1.285.433-1.516.55-2.854.43-3.734-.117-.878-.351-1.185-.636-1.379-.93-.629-1.968-.775-3.44-.633-1.47.142-3.223.628-5.074 1.01-9.85 2.036-18.473 2.111-22.546 2.111s-12.694-.075-22.545-2.11c-1.852-.383-3.605-.869-5.076-1.01a9.628 9.628 0 00-1.028-.05z" transform="translate(5.045)"/></svg><svg viewBox="0 0 128 128" id="1F603" xmlns="http://www.w3.org/2000/svg"><path fill="#fcc21b" d="M63.79 8.64C1.48 8.64 0 78.5 0 92.33c0 13.83 28.56 25.03 63.79 25.03 35.24 0 63.79-11.21 63.79-25.03 0-13.83-1.47-83.69-63.79-83.69z"/><path fill="#ed6c30" d="M84.57 168.14c-4.2-.92-9.28 2.92-17.17 4.51-1.24.25-2.35.34-3.38.33v20.31c12.59 0 20.53-6.19 23.38-10.51 5.33-8.08 2.96-13.38-2.83-14.64zm-41.12 0c4.2-.92 9.28 2.92 17.17 4.51 1.24.25 2.35.34 3.38.33v20.31c-11.84 0-20.68-6.46-23.38-10.51-5.37-8.06-2.96-13.38 2.83-14.64zM96.46 70.26c-3.09-2.09-6.98-.71-10.42 0-9.58 1.98-18 2.06-22.04 2.06s-12.46-.08-22.04-2.06c-3.44-.71-7.33-2.09-10.42 0-3.92 2.65-1.03 12.15 5.14 18.57 3.73 3.88 12.61 11.41 27.32 11.41s23.59-7.53 27.32-11.41c6.17-6.42 9.05-15.92 5.14-18.57z"/><path fill="#2f2f2f" d="M42.21 61.3c-4.49.04-8.17-4.27-8.22-9.62-.05-5.37 3.55-9.75 8.04-9.79 4.48-.04 8.17 4.27 8.22 9.64.05 5.35-3.55 9.72-8.04 9.77zm44.11 0c4.48-.01 8.11-4.36 8.1-9.71-.01-5.37-3.66-9.7-8.14-9.69-4.49.01-8.13 4.36-8.12 9.73.02 5.35 3.67 9.68 8.16 9.67z"/></svg><svg viewBox="0 0 128 128" id="1F604" xmlns="http://www.w3.org/2000/svg"><path fill="#fcc21b" d="M63.79 8.64C1.48 8.64 0 78.5 0 92.33c0 13.83 28.56 25.03 63.79 25.03 35.24 0 63.79-11.21 63.79-25.03 0-13.83-1.47-83.69-63.79-83.69z"/><path fill="#fcc21b" d="M109.54 90.9c-9.5 3.41-19.98-1.4-23.44-10.78-3.44-9.37 1.43-19.74 10.93-23.17 9.47-3.41 19.98 1.42 23.45 10.79 3.44 9.39-1.46 19.76-10.94 23.16z"/><path fill="#fcc01c" d="M109.31 90.27c-9.15 3.29-19.24-1.35-22.56-10.37-3.31-9.02 1.38-19 10.52-22.3 9.12-3.28 19.23 1.37 22.57 10.39 3.31 9.02-1.41 19-10.53 22.28z"/><path fill="#fcbe1c" d="M109.07 89.63c-8.79 3.16-18.49-1.29-21.69-9.97C84.2 71 88.72 61.4 97.5 58.23c8.77-3.15 18.48 1.31 21.69 9.98 3.18 8.68-1.35 18.28-10.12 21.42z"/><path fill="#fbbb1d" d="M108.84 89c-8.44 3.03-17.74-1.24-20.81-9.57-3.06-8.32 1.27-17.53 9.7-20.57 8.41-3.03 17.74 1.26 20.82 9.58 3.05 8.33-1.29 17.54-9.71 20.56z"/><path fill="#fbb91e" d="M108.61 88.36c-8.08 2.9-17-1.19-19.93-9.17-2.93-7.97 1.22-16.79 9.3-19.7 8.06-2.9 16.99 1.21 19.94 9.18 2.91 7.98-1.25 16.8-9.31 19.69z"/><path fill="#fbb71e" d="M108.37 87.73c-7.73 2.78-16.25-1.14-19.06-8.76-2.8-7.62 1.17-16.05 8.89-18.84 7.7-2.77 16.24 1.15 19.06 8.77 2.8 7.63-1.18 16.06-8.89 18.83z"/><path fill="#fbb51f" d="M108.14 87.1c-7.37 2.65-15.5-1.09-18.18-8.36-2.67-7.27 1.11-15.31 8.48-17.97 7.35-2.64 15.5 1.1 18.19 8.37 2.66 7.27-1.14 15.32-8.49 17.96z"/><path fill="#fab220" d="M107.9 86.46c-7.02 2.52-14.76-1.03-17.3-7.96-2.54-6.92 1.06-14.57 8.07-17.1 7-2.52 14.75 1.05 17.31 7.97 2.54 6.92-1.08 14.58-8.08 17.09z"/><path fill="#fab020" d="M107.67 85.83c-6.66 2.39-14.01-.98-16.43-7.55-2.41-6.57 1.01-13.84 7.66-16.24 6.64-2.39 14 1 16.43 7.56 2.42 6.57-1.02 13.84-7.66 16.23z"/><path fill="#faae21" d="M107.44 85.19c-6.31 2.26-13.26-.93-15.55-7.15-2.28-6.22.95-13.1 7.25-15.37 6.29-2.26 13.26.94 15.56 7.16 2.28 6.22-.97 13.1-7.26 15.36z"/><path fill="#faac22" d="M107.2 84.56c-5.95 2.14-12.51-.88-14.68-6.75-2.15-5.87.9-12.36 6.84-14.5 5.93-2.13 12.51.89 14.68 6.76 2.16 5.86-.9 12.36-6.84 14.49z"/><path fill="#f9a922" d="M106.97 83.92c-5.59 2.01-11.77-.82-13.8-6.35-2.03-5.51.85-11.62 6.44-13.64 5.58-2.01 11.76.84 13.8 6.35 2.02 5.53-.86 11.64-6.44 13.64z"/><path fill="#f9a723" d="M106.74 83.29c-5.24 1.88-11.02-.77-12.92-5.94-1.9-5.16.79-10.88 6.03-12.77 5.23-1.88 11.02.78 12.93 5.95 1.88 5.16-.82 10.88-6.04 12.76z"/><path fill="#f9a524" d="M106.5 82.65c-4.88 1.75-10.27-.72-12.05-5.54-1.77-4.81.74-10.14 5.62-11.91 4.87-1.75 10.27.73 12.05 5.55 1.77 4.82-.75 10.16-5.62 11.9z"/><path fill="#f9a324" d="M106.27 82.02c-4.53 1.63-9.53-.67-11.17-5.14-1.64-4.46.68-9.41 5.21-11.04 4.52-1.62 9.52.68 11.17 5.14 1.64 4.47-.69 9.42-5.21 11.04z"/><path fill="#f8a025" d="M106.03 81.39c-4.17 1.5-8.78-.62-10.29-4.74-1.51-4.11.63-8.67 4.8-10.17 4.16-1.5 8.77.63 10.3 4.74 1.51 4.11-.64 8.67-4.81 10.17z"/><path fill="#f89e26" d="M105.8 80.75c-3.82 1.37-8.03-.56-9.42-4.33-1.38-3.76.58-7.93 4.39-9.31 3.81-1.37 8.03.57 9.42 4.34 1.39 3.76-.58 7.93-4.39 9.3z"/><path fill="#f89c26" d="M105.57 80.12c-3.46 1.24-7.28-.51-8.54-3.93-1.25-3.41.52-7.19 3.98-8.44 3.46-1.24 7.28.52 8.55 3.93 1.25 3.41-.54 7.2-3.99 8.44z"/><path fill="#f89a27" d="M105.33 79.48c-3.11 1.12-6.54-.46-7.67-3.53-1.13-3.06.47-6.45 3.57-7.58 3.1-1.11 6.53.47 7.67 3.53 1.14 3.07-.47 6.47-3.57 7.58z"/><path fill="#f79728" d="M105.1 78.85c-2.75.99-5.79-.41-6.79-3.12s.42-5.72 3.17-6.71c2.75-.99 5.79.41 6.79 3.13.99 2.7-.43 5.71-3.17 6.7z"/><path fill="#f79528" d="M104.87 78.21c-2.4.86-5.04-.35-5.91-2.72-.87-2.36.36-4.98 2.76-5.84 2.39-.86 5.04.36 5.92 2.72.85 2.36-.38 4.99-2.77 5.84z"/><path fill="#f79329" d="M104.63 77.58c-2.04.73-4.3-.3-5.04-2.32-.74-2.01.31-4.24 2.35-4.98 2.04-.73 4.29.31 5.04 2.32.74 2.01-.31 4.25-2.35 4.98z"/><path fill="#fcc21b" d="M31.54 90.9c-9.5 3.41-19.98-1.4-23.44-10.78-3.44-9.37 1.43-19.74 10.93-23.17 9.47-3.41 19.98 1.42 23.45 10.79 3.44 9.39-1.46 19.76-10.94 23.16z"/><path fill="#fcc01c" d="M31.31 90.27c-9.15 3.29-19.24-1.35-22.56-10.37-3.31-9.02 1.38-19 10.52-22.3 9.12-3.28 19.23 1.37 22.57 10.39 3.31 9.02-1.41 19-10.53 22.28z"/><path fill="#fcbe1c" d="M31.07 89.63c-8.79 3.16-18.49-1.29-21.69-9.97C6.2 71 10.72 61.4 19.5 58.23c8.77-3.15 18.48 1.31 21.69 9.98 3.18 8.68-1.35 18.28-10.12 21.42z"/><path fill="#fbbb1d" d="M30.84 89c-8.44 3.03-17.74-1.24-20.81-9.57-3.06-8.32 1.27-17.53 9.7-20.57 8.41-3.03 17.74 1.26 20.82 9.58 3.05 8.33-1.29 17.54-9.71 20.56z"/><path fill="#fbb91e" d="M30.61 88.36c-8.08 2.9-17-1.19-19.93-9.17-2.93-7.97 1.22-16.79 9.3-19.7 8.06-2.9 16.99 1.21 19.94 9.18 2.91 7.98-1.25 16.8-9.31 19.69z"/><path fill="#fbb71e" d="M30.37 87.73c-7.73 2.78-16.25-1.14-19.06-8.76-2.8-7.62 1.17-16.05 8.89-18.84 7.7-2.77 16.24 1.15 19.06 8.77 2.8 7.63-1.18 16.06-8.89 18.83z"/><path fill="#fbb51f" d="M30.14 87.1c-7.37 2.65-15.5-1.09-18.18-8.36-2.67-7.27 1.11-15.31 8.48-17.97 7.35-2.64 15.5 1.1 18.19 8.37 2.66 7.27-1.14 15.32-8.49 17.96z"/><path fill="#fab220" d="M29.9 86.46c-7.02 2.52-14.76-1.03-17.3-7.96-2.54-6.92 1.06-14.57 8.07-17.1 7-2.52 14.75 1.05 17.31 7.97 2.54 6.92-1.08 14.58-8.08 17.09z"/><path fill="#fab020" d="M29.67 85.83c-6.66 2.39-14.01-.98-16.43-7.55-2.41-6.57 1.01-13.84 7.66-16.24 6.64-2.39 14 1 16.43 7.56 2.42 6.57-1.02 13.84-7.66 16.23z"/><path fill="#faae21" d="M29.44 85.19c-6.31 2.26-13.26-.93-15.55-7.15-2.28-6.22.95-13.1 7.25-15.37 6.29-2.26 13.26.94 15.56 7.16 2.28 6.22-.97 13.1-7.26 15.36z"/><path fill="#faac22" d="M29.2 84.56c-5.95 2.14-12.51-.88-14.68-6.75-2.15-5.87.9-12.36 6.84-14.5 5.93-2.13 12.51.89 14.68 6.76 2.16 5.86-.9 12.36-6.84 14.49z"/><path fill="#f9a922" d="M28.97 83.92c-5.59 2.01-11.77-.82-13.8-6.35-2.03-5.51.85-11.62 6.44-13.64 5.58-2.01 11.76.84 13.8 6.35 2.02 5.53-.86 11.64-6.44 13.64z"/><path fill="#f9a723" d="M28.74 83.29c-5.24 1.88-11.02-.77-12.92-5.94-1.9-5.16.79-10.88 6.03-12.77 5.23-1.88 11.02.78 12.93 5.95 1.88 5.16-.82 10.88-6.04 12.76z"/><path fill="#f9a524" d="M28.5 82.65c-4.88 1.75-10.27-.72-12.05-5.54-1.77-4.81.74-10.14 5.62-11.91 4.87-1.75 10.27.73 12.05 5.55 1.77 4.82-.75 10.16-5.62 11.9z"/><path fill="#f9a324" d="M28.27 82.02c-4.53 1.63-9.53-.67-11.17-5.14-1.64-4.46.68-9.41 5.21-11.04 4.52-1.62 9.52.68 11.17 5.14 1.64 4.47-.69 9.42-5.21 11.04z"/><path fill="#f8a025" d="M28.03 81.39c-4.17 1.5-8.78-.62-10.29-4.74-1.51-4.11.63-8.67 4.8-10.17 4.16-1.5 8.77.63 10.3 4.74 1.51 4.11-.64 8.67-4.81 10.17z"/><path fill="#f89e26" d="M27.8 80.75c-3.82 1.37-8.03-.56-9.42-4.33-1.38-3.76.58-7.93 4.39-9.31 3.81-1.37 8.03.57 9.42 4.34 1.39 3.76-.58 7.93-4.39 9.3z"/><path fill="#f89c26" d="M27.57 80.12c-3.46 1.24-7.28-.51-8.54-3.93-1.25-3.41.52-7.19 3.98-8.44 3.46-1.24 7.28.52 8.55 3.93 1.25 3.41-.54 7.2-3.99 8.44z"/><path fill="#f89a27" d="M27.33 79.48c-3.11 1.12-6.54-.46-7.67-3.53-1.13-3.06.47-6.45 3.57-7.58 3.1-1.11 6.53.47 7.67 3.53 1.14 3.07-.47 6.47-3.57 7.58z"/><path fill="#f79728" d="M27.1 78.85c-2.75.99-5.79-.41-6.79-3.12s.42-5.72 3.17-6.71c2.75-.99 5.79.41 6.79 3.13.99 2.7-.43 5.71-3.17 6.7z"/><path fill="#f79528" d="M26.87 78.21c-2.4.86-5.04-.35-5.91-2.72-.87-2.36.36-4.98 2.76-5.84 2.39-.86 5.04.36 5.92 2.72.85 2.36-.38 4.99-2.77 5.84z"/><path fill="#f79329" d="M26.63 77.58c-2.04.73-4.3-.3-5.04-2.32-.74-2.01.31-4.24 2.35-4.98 2.04-.73 4.29.31 5.04 2.32.74 2.01-.31 4.25-2.35 4.98z"/><g fill="#2f2f2f"><path d="M30.96 54.45a2.728 2.728 0 01-3.73.93 2.72 2.72 0 01-.96-3.71c.18-.31 4.6-7.62 14.37-7.62 9.78 0 14.2 7.31 14.39 7.62a2.735 2.735 0 01-2.36 4.11c-.92 0-1.83-.47-2.34-1.32-.13-.22-3.12-4.96-9.69-4.96-6.57-.01-9.54 4.74-9.68 4.95zm70.04.94c-.43.26-.91.38-1.37.38-.94 0-1.85-.49-2.36-1.34-.11-.2-3.08-4.94-9.66-4.94-6.69 0-9.66 4.89-9.69 4.94a2.724 2.724 0 01-4.69-2.77c.18-.31 4.6-7.62 14.38-7.62 9.77 0 14.18 7.31 14.36 7.62.76 1.3.32 2.97-.97 3.73z"/></g><g fill="#ed6c30"><path d="M84.57 168.14c-4.2-.92-9.28 2.92-17.17 4.51-1.24.25-2.35.34-3.38.33v20.31c12.59 0 20.53-6.19 23.38-10.51 5.33-8.08 2.96-13.38-2.83-14.64zm-41.12 0c4.2-.92 9.28 2.92 17.17 4.51 1.24.25 2.35.34 3.38.33v20.31c-11.84 0-20.68-6.46-23.38-10.51-5.37-8.06-2.96-13.38 2.83-14.64z"/></g><path fill="#ed6c30" d="M96.46 68.26c-3.09-2.09-6.98-.71-10.42 0-9.58 1.98-18 2.06-22.04 2.06s-12.46-.08-22.04-2.06c-3.44-.71-7.33-2.09-10.42 0-3.92 2.65-1.03 12.15 5.14 18.57C40.41 90.71 49.29 98.24 64 98.24s23.59-7.53 27.32-11.41c6.17-6.42 9.05-15.92 5.14-18.57z"/></svg><svg viewBox="0 0 128 128" id="1F605" xmlns="http://www.w3.org/2000/svg"><path fill="#fcc21b" d="M63.79 8.64C1.48 8.64 0 78.5 0 92.33c0 13.83 28.56 25.03 63.79 25.03 35.24 0 63.79-11.21 63.79-25.03 0-13.83-1.47-83.69-63.79-83.69z"/><path fill="#2f2f2f" d="M30.96 54.45a2.728 2.728 0 01-3.73.93 2.72 2.72 0 01-.96-3.71c.18-.31 4.6-7.62 14.37-7.62 9.78 0 14.2 7.31 14.39 7.62a2.735 2.735 0 01-2.36 4.11c-.92 0-1.83-.47-2.34-1.32-.13-.22-3.12-4.96-9.69-4.96-6.57-.01-9.54 4.74-9.68 4.95zm70.04.94c-.43.26-.91.38-1.37.38-.94 0-1.85-.49-2.36-1.34-.11-.2-3.08-4.94-9.66-4.94-6.69 0-9.66 4.89-9.69 4.94a2.724 2.724 0 01-4.69-2.77c.18-.31 4.6-7.62 14.38-7.62 9.77 0 14.18 7.31 14.36 7.62.76 1.3.32 2.97-.97 3.73z"/><path fill="#fff" d="M119.19 68.66c-1.68 4.5-5.13 6.96-7.79 7.39-2.99.48-5.52-.31-7.14-2.22-2.05-2.42-2.34-6.23-.84-10.73 2.73-8.09 3.69-22.88 3.71-23.02.04-.57.39-1.05.94-1.21.53-.19 1.11 0 1.48.43 12.37 14.92 11.36 24.8 9.64 29.36z"/><path fill="#ed6c30" d="M96.46 68.26c-3.09-2.09-6.98-.71-10.42 0-9.58 1.98-18 2.06-22.04 2.06s-12.46-.08-22.04-2.06c-3.44-.71-7.33-2.09-10.42 0-3.92 2.65-1.03 12.15 5.14 18.57C40.41 90.71 49.29 98.24 64 98.24s23.59-7.53 27.32-11.41c6.17-6.42 9.05-15.92 5.14-18.57z"/></svg><svg viewBox="0 0 128 128" id="1F606" xmlns="http://www.w3.org/2000/svg"><path fill="#fcc21b" d="M63.79 8.64C1.48 8.64 0 78.5 0 92.33c0 13.83 28.56 25.03 63.79 25.03 35.24 0 63.79-11.21 63.79-25.03 0-13.83-1.47-83.69-63.79-83.69z"/><path fill="#fcc21b" d="M109.54 90.9c-9.5 3.41-19.98-1.4-23.44-10.78-3.44-9.37 1.43-19.74 10.93-23.17 9.47-3.41 19.98 1.42 23.45 10.79 3.44 9.39-1.46 19.76-10.94 23.16z"/><path fill="#fcc01c" d="M109.31 90.27c-9.15 3.29-19.24-1.35-22.56-10.37-3.31-9.02 1.38-19 10.52-22.3 9.12-3.28 19.23 1.37 22.57 10.39 3.31 9.02-1.41 19-10.53 22.28z"/><path fill="#fcbe1c" d="M109.07 89.63c-8.79 3.16-18.49-1.29-21.69-9.97C84.2 71 88.72 61.4 97.5 58.23c8.77-3.15 18.48 1.31 21.69 9.98 3.18 8.68-1.35 18.28-10.12 21.42z"/><path fill="#fbbb1d" d="M108.84 89c-8.44 3.03-17.74-1.24-20.81-9.57-3.06-8.32 1.27-17.53 9.7-20.57 8.41-3.03 17.74 1.26 20.82 9.58 3.05 8.33-1.29 17.54-9.71 20.56z"/><path fill="#fbb91e" d="M108.61 88.36c-8.08 2.9-17-1.19-19.93-9.17-2.93-7.97 1.22-16.79 9.3-19.7 8.06-2.9 16.99 1.21 19.94 9.18 2.91 7.98-1.25 16.8-9.31 19.69z"/><path fill="#fbb71e" d="M108.37 87.73c-7.73 2.78-16.25-1.14-19.06-8.76-2.8-7.62 1.17-16.05 8.89-18.84 7.7-2.77 16.24 1.15 19.06 8.77 2.8 7.63-1.18 16.06-8.89 18.83z"/><path fill="#fbb51f" d="M108.14 87.1c-7.37 2.65-15.5-1.09-18.18-8.36-2.67-7.27 1.11-15.31 8.48-17.97 7.35-2.64 15.5 1.1 18.19 8.37 2.66 7.27-1.14 15.32-8.49 17.96z"/><path fill="#fab220" d="M107.9 86.46c-7.02 2.52-14.76-1.03-17.3-7.96-2.54-6.92 1.06-14.57 8.07-17.1 7-2.52 14.75 1.05 17.31 7.97 2.54 6.92-1.08 14.58-8.08 17.09z"/><path fill="#fab020" d="M107.67 85.83c-6.66 2.39-14.01-.98-16.43-7.55-2.41-6.57 1.01-13.84 7.66-16.24 6.64-2.39 14 1 16.43 7.56 2.42 6.57-1.02 13.84-7.66 16.23z"/><path fill="#faae21" d="M107.44 85.19c-6.31 2.26-13.26-.93-15.55-7.15-2.28-6.22.95-13.1 7.25-15.37 6.29-2.26 13.26.94 15.56 7.16 2.28 6.22-.97 13.1-7.26 15.36z"/><path fill="#faac22" d="M107.2 84.56c-5.95 2.14-12.51-.88-14.68-6.75-2.15-5.87.9-12.36 6.84-14.5 5.93-2.13 12.51.89 14.68 6.76 2.16 5.86-.9 12.36-6.84 14.49z"/><path fill="#f9a922" d="M106.97 83.92c-5.59 2.01-11.77-.82-13.8-6.35-2.03-5.51.85-11.62 6.44-13.64 5.58-2.01 11.76.84 13.8 6.35 2.02 5.53-.86 11.64-6.44 13.64z"/><path fill="#f9a723" d="M106.74 83.29c-5.24 1.88-11.02-.77-12.92-5.94-1.9-5.16.79-10.88 6.03-12.77 5.23-1.88 11.02.78 12.93 5.95 1.88 5.16-.82 10.88-6.04 12.76z"/><path fill="#f9a524" d="M106.5 82.65c-4.88 1.75-10.27-.72-12.05-5.54-1.77-4.81.74-10.14 5.62-11.91 4.87-1.75 10.27.73 12.05 5.55 1.77 4.82-.75 10.16-5.62 11.9z"/><path fill="#f9a324" d="M106.27 82.02c-4.53 1.63-9.53-.67-11.17-5.14-1.64-4.46.68-9.41 5.21-11.04 4.52-1.62 9.52.68 11.17 5.14 1.64 4.47-.69 9.42-5.21 11.04z"/><path fill="#f8a025" d="M106.03 81.39c-4.17 1.5-8.78-.62-10.29-4.74-1.51-4.11.63-8.67 4.8-10.17 4.16-1.5 8.77.63 10.3 4.74 1.51 4.11-.64 8.67-4.81 10.17z"/><path fill="#f89e26" d="M105.8 80.75c-3.82 1.37-8.03-.56-9.42-4.33-1.38-3.76.58-7.93 4.39-9.31 3.81-1.37 8.03.57 9.42 4.34 1.39 3.76-.58 7.93-4.39 9.3z"/><path fill="#f89c26" d="M105.57 80.12c-3.46 1.24-7.28-.51-8.54-3.93-1.25-3.41.52-7.19 3.98-8.44 3.46-1.24 7.28.52 8.55 3.93 1.25 3.41-.54 7.2-3.99 8.44z"/><path fill="#f89a27" d="M105.33 79.48c-3.11 1.12-6.54-.46-7.67-3.53-1.13-3.06.47-6.45 3.57-7.58 3.1-1.11 6.53.47 7.67 3.53 1.14 3.07-.47 6.47-3.57 7.58z"/><path fill="#f79728" d="M105.1 78.85c-2.75.99-5.79-.41-6.79-3.12s.42-5.72 3.17-6.71c2.75-.99 5.79.41 6.79 3.13.99 2.7-.43 5.71-3.17 6.7z"/><path fill="#f79528" d="M104.87 78.21c-2.4.86-5.04-.35-5.91-2.72-.87-2.36.36-4.98 2.76-5.84 2.39-.86 5.04.36 5.92 2.72.85 2.36-.38 4.99-2.77 5.84z"/><path fill="#f79329" d="M104.63 77.58c-2.04.73-4.3-.3-5.04-2.32-.74-2.01.31-4.24 2.35-4.98 2.04-.73 4.29.31 5.04 2.32.74 2.01-.31 4.25-2.35 4.98z"/><path fill="#fcc21b" d="M31.54 90.9c-9.5 3.41-19.98-1.4-23.44-10.78-3.44-9.37 1.43-19.74 10.93-23.17 9.47-3.41 19.98 1.42 23.45 10.79 3.44 9.39-1.46 19.76-10.94 23.16z"/><path fill="#fcc01c" d="M31.31 90.27c-9.15 3.29-19.24-1.35-22.56-10.37-3.31-9.02 1.38-19 10.52-22.3 9.12-3.28 19.23 1.37 22.57 10.39 3.31 9.02-1.41 19-10.53 22.28z"/><path fill="#fcbe1c" d="M31.07 89.63c-8.79 3.16-18.49-1.29-21.69-9.97C6.2 71 10.72 61.4 19.5 58.23c8.77-3.15 18.48 1.31 21.69 9.98 3.18 8.68-1.35 18.28-10.12 21.42z"/><path fill="#fbbb1d" d="M30.84 89c-8.44 3.03-17.74-1.24-20.81-9.57-3.06-8.32 1.27-17.53 9.7-20.57 8.41-3.03 17.74 1.26 20.82 9.58 3.05 8.33-1.29 17.54-9.71 20.56z"/><path fill="#fbb91e" d="M30.61 88.36c-8.08 2.9-17-1.19-19.93-9.17-2.93-7.97 1.22-16.79 9.3-19.7 8.06-2.9 16.99 1.21 19.94 9.18 2.91 7.98-1.25 16.8-9.31 19.69z"/><path fill="#fbb71e" d="M30.37 87.73c-7.73 2.78-16.25-1.14-19.06-8.76-2.8-7.62 1.17-16.05 8.89-18.84 7.7-2.77 16.24 1.15 19.06 8.77 2.8 7.63-1.18 16.06-8.89 18.83z"/><path fill="#fbb51f" d="M30.14 87.1c-7.37 2.65-15.5-1.09-18.18-8.36-2.67-7.27 1.11-15.31 8.48-17.97 7.35-2.64 15.5 1.1 18.19 8.37 2.66 7.27-1.14 15.32-8.49 17.96z"/><path fill="#fab220" d="M29.9 86.46c-7.02 2.52-14.76-1.03-17.3-7.96-2.54-6.92 1.06-14.57 8.07-17.1 7-2.52 14.75 1.05 17.31 7.97 2.54 6.92-1.08 14.58-8.08 17.09z"/><path fill="#fab020" d="M29.67 85.83c-6.66 2.39-14.01-.98-16.43-7.55-2.41-6.57 1.01-13.84 7.66-16.24 6.64-2.39 14 1 16.43 7.56 2.42 6.57-1.02 13.84-7.66 16.23z"/><path fill="#faae21" d="M29.44 85.19c-6.31 2.26-13.26-.93-15.55-7.15-2.28-6.22.95-13.1 7.25-15.37 6.29-2.26 13.26.94 15.56 7.16 2.28 6.22-.97 13.1-7.26 15.36z"/><path fill="#faac22" d="M29.2 84.56c-5.95 2.14-12.51-.88-14.68-6.75-2.15-5.87.9-12.36 6.84-14.5 5.93-2.13 12.51.89 14.68 6.76 2.16 5.86-.9 12.36-6.84 14.49z"/><path fill="#f9a922" d="M28.97 83.92c-5.59 2.01-11.77-.82-13.8-6.35-2.03-5.51.85-11.62 6.44-13.64 5.58-2.01 11.76.84 13.8 6.35 2.02 5.53-.86 11.64-6.44 13.64z"/><path fill="#f9a723" d="M28.74 83.29c-5.24 1.88-11.02-.77-12.92-5.94-1.9-5.16.79-10.88 6.03-12.77 5.23-1.88 11.02.78 12.93 5.95 1.88 5.16-.82 10.88-6.04 12.76z"/><path fill="#f9a524" d="M28.5 82.65c-4.88 1.75-10.27-.72-12.05-5.54-1.77-4.81.74-10.14 5.62-11.91 4.87-1.75 10.27.73 12.05 5.55 1.77 4.82-.75 10.16-5.62 11.9z"/><path fill="#f9a324" d="M28.27 82.02c-4.53 1.63-9.53-.67-11.17-5.14-1.64-4.46.68-9.41 5.21-11.04 4.52-1.62 9.52.68 11.17 5.14 1.64 4.47-.69 9.42-5.21 11.04z"/><path fill="#f8a025" d="M28.03 81.39c-4.17 1.5-8.78-.62-10.29-4.74-1.51-4.11.63-8.67 4.8-10.17 4.16-1.5 8.77.63 10.3 4.74 1.51 4.11-.64 8.67-4.81 10.17z"/><path fill="#f89e26" d="M27.8 80.75c-3.82 1.37-8.03-.56-9.42-4.33-1.38-3.76.58-7.93 4.39-9.31 3.81-1.37 8.03.57 9.42 4.34 1.39 3.76-.58 7.93-4.39 9.3z"/><path fill="#f89c26" d="M27.57 80.12c-3.46 1.24-7.28-.51-8.54-3.93-1.25-3.41.52-7.19 3.98-8.44 3.46-1.24 7.28.52 8.55 3.93 1.25 3.41-.54 7.2-3.99 8.44z"/><path fill="#f89a27" d="M27.33 79.48c-3.11 1.12-6.54-.46-7.67-3.53-1.13-3.06.47-6.45 3.57-7.58 3.1-1.11 6.53.47 7.67 3.53 1.14 3.07-.47 6.47-3.57 7.58z"/><path fill="#f79728" d="M27.1 78.85c-2.75.99-5.79-.41-6.79-3.12s.42-5.72 3.17-6.71c2.75-.99 5.79.41 6.79 3.13.99 2.7-.43 5.71-3.17 6.7z"/><path fill="#f79528" d="M26.87 78.21c-2.4.86-5.04-.35-5.91-2.72-.87-2.36.36-4.98 2.76-5.84 2.39-.86 5.04.36 5.92 2.72.85 2.36-.38 4.99-2.77 5.84z"/><path fill="#f79329" d="M26.63 77.58c-2.04.73-4.3-.3-5.04-2.32-.74-2.01.31-4.24 2.35-4.98 2.04-.73 4.29.31 5.04 2.32.74 2.01-.31 4.25-2.35 4.98z"/><g fill="#2f2f2f"><path d="M98.46 57.78c-.5 1.13-1.7 1.72-2.86 1.52-.21-.04-.42-.1-.61-.19-7.83-3.49-18.47-3.39-18.57-3.39-1.21.02-2.24-.78-2.57-1.92-.33-1.15.16-2.37 1.18-2.98 9.01-5.41 21.72-7.26 22.25-7.33 1.45-.2 2.78.8 2.98 2.24.2 1.44-.81 2.77-2.24 2.98-.07.01-5.28.76-11.12 2.65 3.25.47 6.94 1.48 10.24 2.94 1.32.59 1.92 2.16 1.32 3.48zm-68.7 0c.5 1.13 1.7 1.72 2.86 1.52.21-.04.42-.1.61-.19 7.83-3.49 18.47-3.39 18.57-3.39 1.21.02 2.24-.78 2.57-1.92.33-1.15-.16-2.37-1.18-2.98-9.01-5.41-21.72-7.26-22.25-7.33-1.45-.2-2.78.8-2.98 2.24-.2 1.44.81 2.77 2.24 2.98.07.01 5.28.76 11.12 2.65-3.25.47-6.94 1.48-10.24 2.94a2.65 2.65 0 00-1.32 3.48z"/></g><path fill="#ed6c30" d="M96.46 68.26c-3.09-2.09-6.98-.71-10.42 0-9.58 1.98-18 2.06-22.04 2.06s-12.46-.08-22.04-2.06c-3.44-.71-7.33-2.09-10.42 0-3.92 2.65-1.03 12.15 5.14 18.57C40.41 90.71 49.29 98.24 64 98.24s23.59-7.53 27.32-11.41c6.17-6.42 9.05-15.92 5.14-18.57z"/></svg><svg viewBox="0 0 128 128" id="1F607" xmlns="http://www.w3.org/2000/svg"><path fill="#fcc21b" d="M63.79 16.91C1.48 16.91 0 86.76 0 100.59c0 13.83 28.56 25.03 63.79 25.03 35.24 0 63.79-11.21 63.79-25.03 0-13.83-1.47-83.68-63.79-83.68z"/><path fill="#2f2f2f" d="M64 103.36c-11.77 0-22.5-5.46-29.42-14.99-.97-1.34-.68-3.22.66-4.19s3.22-.68 4.19.66C45.22 92.8 54.17 97.36 64 97.36s18.78-4.56 24.56-12.52a2.993 2.993 0 014.19-.66c1.34.97 1.64 2.85.66 4.19C86.5 97.9 75.77 103.36 64 103.36zM31.96 73.81a2.728 2.728 0 01-3.73.93 2.72 2.72 0 01-.96-3.71c.18-.31 4.6-7.62 14.37-7.62 9.78 0 14.2 7.31 14.39 7.62a2.735 2.735 0 01-2.36 4.11c-.92 0-1.83-.47-2.34-1.32-.13-.22-3.12-4.96-9.69-4.96-6.57-.01-9.54 4.74-9.68 4.95zm68.04.94c-.43.26-.91.38-1.37.38-.94 0-1.85-.49-2.36-1.34-.11-.2-3.08-4.94-9.66-4.94-6.69 0-9.66 4.89-9.69 4.94a2.724 2.724 0 01-4.69-2.77c.18-.31 4.6-7.62 14.38-7.62 9.77 0 14.18 7.31 14.36 7.62.76 1.3.32 2.98-.97 3.73z"/><path fill="#40c0e7" d="M63.8 0C32.59 0 7.28 9.4 7.28 21c0 11.61 25.31 21 56.52 21 31.21 0 56.5-9.39 56.5-21 0-11.6-25.29-21-56.5-21zm-.01 25.86c-17.68 0-32.03-3.81-32.03-8.51 0-4.69 14.35-8.51 32.03-8.51 17.67 0 32 3.82 32 8.51 0 4.71-14.33 8.51-32 8.51z"/></svg><svg viewBox="0 0 128 128" id="1F609" xmlns="http://www.w3.org/2000/svg"><path fill="#fcc21b" d="M127.22 93.42c0 13.86-28.29 25.1-63.22 25.1-34.92 0-63.23-11.24-63.23-25.1C.77 79.55 2.24 9.48 64 9.48c61.77 0 63.22 70.06 63.22 83.94"/><path fill="#2f2f2f" d="M48.32 55.41c0 5.41-3.62 9.79-8.1 9.79-4.48 0-8.12-4.38-8.12-9.79 0-5.42 3.64-9.8 8.12-9.8 4.48 0 8.1 4.38 8.1 9.8m50.965 6.888a2.634 2.634 0 01-2.6 1.93 2.543 2.543 0 01-.632-.096c-8.264-2.28-18.77-.59-18.868-.575-1.193.2-2.331-.436-2.828-1.514a2.628 2.628 0 01.72-3.123c8.1-6.697 20.39-10.427 20.904-10.575a2.633 2.633 0 013.282 1.769 2.652 2.652 0 01-1.77 3.281c-.067.02-5.106 1.542-10.598 4.284 3.284-.022 7.083.425 10.565 1.375a2.633 2.633 0 011.825 3.244zM64 93.53c-9.7 0-19.4-3.69-26.79-11.08a3 3 0 010-4.24 3 3 0 014.24 0c12.43 12.43 32.66 12.43 45.09 0a3 3 0 014.24 0 3 3 0 010 4.24C83.4 89.84 73.7 93.53 64 93.53z"/></svg><svg viewBox="0 0 128 128" id="1F60A" xmlns="http://www.w3.org/2000/svg"><path fill="#fcc21b" d="M63.8 9.47c-62.52 0-64 70.08-64 83.95 0 13.88 28.65 25.11 64 25.11s63.99-11.23 63.99-25.11c0-13.87-1.48-83.95-63.99-83.95z"/><path fill="#fcc21b" d="M105.88 92.91c-9.15 3.28-19.24-1.35-22.57-10.37-3.31-9.02 1.38-19.01 10.52-22.31 9.12-3.28 19.23 1.37 22.57 10.39 3.32 9.03-1.4 19.02-10.52 22.29z"/><path fill="#fcc01c" d="M105.63 92.25c-8.78 3.15-18.46-1.29-21.65-9.95-3.18-8.65 1.32-18.24 10.1-21.4 8.75-3.15 18.45 1.31 21.65 9.96 3.18 8.66-1.34 18.25-10.1 21.39z"/><path fill="#fcbe1c" d="M105.39 91.58c-8.4 3.01-17.67-1.24-20.73-9.53-3.05-8.29 1.27-17.46 9.67-20.49 8.38-3.01 17.67 1.26 20.73 9.54 3.04 8.3-1.29 17.48-9.67 20.48z"/><path fill="#fbbb1d" d="M105.14 90.92c-8.03 2.88-16.89-1.18-19.81-9.11-2.91-7.92 1.21-16.69 9.24-19.58 8.01-2.88 16.88 1.2 19.82 9.12 2.9 7.92-1.24 16.69-9.25 19.57z"/><path fill="#fbb91e" d="M104.9 90.25c-7.66 2.75-16.11-1.13-18.89-8.68-2.78-7.55 1.16-15.92 8.81-18.67 7.64-2.75 16.1 1.14 18.9 8.7 2.76 7.55-1.18 15.91-8.82 18.65z"/><path fill="#fbb71e" d="M104.65 89.59c-7.29 2.61-15.32-1.07-17.97-8.26-2.64-7.19 1.1-15.14 8.38-17.77 7.27-2.61 15.32 1.09 17.98 8.27 2.63 7.19-1.12 15.15-8.39 17.76z"/><path fill="#fbb51f" d="M104.41 88.92c-6.91 2.48-14.54-1.02-17.05-7.84-2.51-6.82 1.04-14.37 7.95-16.86 6.89-2.48 14.53 1.03 17.06 7.85 2.5 6.83-1.07 14.38-7.96 16.85z"/><path fill="#fab220" d="M104.16 88.26c-6.54 2.35-13.76-.96-16.13-7.42-2.37-6.45.99-13.59 7.52-15.95 6.52-2.35 13.75.98 16.14 7.43 2.37 6.45-1 13.59-7.53 15.94z"/><path fill="#fab020" d="M103.91 87.59c-6.17 2.21-12.97-.91-15.22-6.99-2.24-6.08.93-12.82 7.1-15.04 6.15-2.21 12.97.92 15.22 7.01 2.24 6.08-.94 12.81-7.1 15.02z"/><path fill="#faae21" d="M103.67 86.93c-5.8 2.08-12.19-.85-14.3-6.57-2.1-5.72.87-12.04 6.67-14.13 5.78-2.08 12.19.87 14.3 6.58 2.1 5.71-.89 12.04-6.67 14.12z"/><path fill="#faac22" d="M103.42 86.26c-5.42 1.95-11.41-.8-13.38-6.15-1.97-5.35.82-11.27 6.24-13.23 5.41-1.94 11.4.81 13.38 6.16 1.97 5.36-.82 11.28-6.24 13.22z"/><path fill="#f9a922" d="M103.18 85.6c-5.05 1.81-10.62-.74-12.46-5.73-1.83-4.98.76-10.5 5.81-12.32 5.04-1.81 10.62.75 12.46 5.74 1.83 4.98-.77 10.5-5.81 12.31z"/><path fill="#f9a723" d="M102.93 84.93c-4.68 1.68-9.84-.69-11.54-5.31-1.7-4.61.71-9.72 5.38-11.41 4.67-1.68 9.84.7 11.54 5.31 1.7 4.63-.71 9.73-5.38 11.41z"/><path fill="#f9a524" d="M102.69 84.26c-4.3 1.54-9.06-.63-10.62-4.88-1.56-4.25.65-8.95 4.95-10.5 4.29-1.54 9.05.64 10.63 4.89 1.55 4.25-.66 8.95-4.96 10.49z"/><path fill="#f9a324" d="M102.44 83.6c-3.93 1.41-8.27-.58-9.7-4.46-1.43-3.88.59-8.17 4.52-9.59 3.92-1.41 8.27.59 9.71 4.47 1.43 3.88-.6 8.17-4.53 9.58z"/><path fill="#f8a025" d="M102.2 82.93c-3.56 1.28-7.49-.52-8.78-4.04-1.29-3.51.54-7.4 4.1-8.68 3.55-1.28 7.49.53 8.79 4.05 1.28 3.51-.56 7.4-4.11 8.67z"/><path fill="#f89e26" d="M101.95 82.27c-3.19 1.14-6.71-.47-7.86-3.62-1.16-3.15.48-6.63 3.67-7.78 3.18-1.14 6.7.48 7.87 3.62 1.15 3.16-.49 6.64-3.68 7.78z"/><path fill="#f89c26" d="M101.71 81.6c-2.81 1.01-5.92-.41-6.95-3.19-1.02-2.78.43-5.85 3.24-6.87 2.81-1.01 5.92.42 6.95 3.2 1.02 2.78-.43 5.85-3.24 6.86z"/><path fill="#f89a27" d="M101.46 80.94c-2.44.88-5.14-.36-6.03-2.77-.89-2.41.37-5.08 2.81-5.96 2.44-.88 5.14.37 6.03 2.78.89 2.41-.37 5.07-2.81 5.95z"/><path fill="#f79728" d="M101.22 80.27c-2.07.74-4.36-.31-5.11-2.35s.31-4.3 2.38-5.05c2.07-.74 4.35.31 5.11 2.36.75 2.04-.31 4.3-2.38 5.04z"/><path fill="#f79528" d="M100.97 79.61c-1.7.61-3.57-.25-4.19-1.93-.62-1.68.26-3.53 1.95-4.14 1.7-.61 3.57.25 4.19 1.93.62 1.68-.25 3.53-1.95 4.14z"/><path fill="#f79329" d="M100.73 78.94c-1.32.47-2.79-.2-3.27-1.5-.48-1.31.2-2.75 1.53-3.23 1.32-.48 2.79.2 3.27 1.51.48 1.3-.21 2.74-1.53 3.22z"/><path fill="#fcc21b" d="M32.5 92.25c-9.15 3.28-19.24-1.35-22.57-10.38-3.32-9.02 1.38-19.01 10.52-22.31 9.12-3.28 19.23 1.37 22.57 10.39 3.32 9.03-1.4 19.02-10.52 22.3z"/><path fill="#fcc01c" d="M32.25 91.58c-8.78 3.15-18.46-1.29-21.65-9.96-3.18-8.65 1.32-18.23 10.1-21.4 8.75-3.14 18.45 1.31 21.65 9.97 3.18 8.67-1.34 18.25-10.1 21.39z"/><path fill="#fcbe1c" d="M32.01 90.92c-8.4 3.01-17.67-1.24-20.73-9.53-3.05-8.28 1.27-17.46 9.67-20.49 8.38-3.01 17.67 1.26 20.73 9.55 3.04 8.28-1.29 17.46-9.67 20.47z"/><path fill="#fbbb1d" d="M31.76 90.25c-8.03 2.88-16.89-1.18-19.81-9.11-2.91-7.92 1.21-16.68 9.24-19.58 8.01-2.88 16.88 1.2 19.82 9.12 2.9 7.92-1.24 16.7-9.25 19.57z"/><path fill="#fbb91e" d="M31.52 89.59c-7.66 2.75-16.11-1.13-18.89-8.69-2.78-7.55 1.16-15.91 8.81-18.67 7.64-2.74 16.1 1.14 18.9 8.7 2.76 7.55-1.18 15.91-8.82 18.66z"/><path fill="#fbb71e" d="M31.27 88.92c-7.29 2.61-15.32-1.07-17.97-8.27-2.64-7.18 1.1-15.14 8.38-17.77 7.27-2.61 15.32 1.09 17.98 8.28 2.63 7.19-1.12 15.15-8.39 17.76z"/><path fill="#fbb51f" d="M31.03 88.26c-6.91 2.48-14.54-1.02-17.05-7.84-2.51-6.82 1.04-14.36 7.95-16.86 6.89-2.48 14.53 1.03 17.06 7.85 2.5 6.82-1.07 14.37-7.96 16.85z"/><path fill="#fab220" d="M30.78 87.59c-6.54 2.35-13.76-.96-16.13-7.42-2.37-6.45.99-13.59 7.52-15.95 6.52-2.34 13.75.98 16.14 7.43 2.37 6.45-1 13.6-7.53 15.94z"/><path fill="#fab020" d="M30.54 86.93c-6.17 2.21-12.97-.91-15.22-7-2.24-6.08.93-12.82 7.1-15.04 6.15-2.21 12.97.92 15.22 7.01 2.23 6.08-.95 12.81-7.1 15.03z"/><path fill="#faae21" d="M30.29 86.26c-5.8 2.08-12.19-.85-14.3-6.58-2.1-5.71.87-12.04 6.67-14.13 5.78-2.08 12.19.86 14.3 6.58 2.1 5.72-.89 12.05-6.67 14.13z"/><path fill="#faac22" d="M30.05 85.6c-5.42 1.94-11.41-.8-13.38-6.15-1.97-5.35.82-11.27 6.24-13.22 5.41-1.94 11.4.81 13.38 6.16 1.96 5.34-.83 11.26-6.24 13.21z"/><path fill="#f9a922" d="M29.8 84.93c-5.05 1.81-10.62-.75-12.46-5.73-1.83-4.98.76-10.49 5.81-12.32 5.04-1.81 10.62.75 12.46 5.74 1.83 4.98-.77 10.5-5.81 12.31z"/><path fill="#f9a723" d="M29.55 84.26c-4.68 1.68-9.84-.69-11.54-5.31-1.7-4.61.71-9.72 5.38-11.41 4.67-1.68 9.84.7 11.54 5.31 1.7 4.63-.71 9.74-5.38 11.41z"/><path fill="#f9a524" d="M29.31 83.6c-4.3 1.54-9.06-.64-10.62-4.89-1.56-4.24.65-8.95 4.95-10.5 4.29-1.54 9.05.64 10.63 4.89 1.56 4.25-.66 8.95-4.96 10.5z"/><path fill="#f9a324" d="M29.06 82.93c-3.93 1.41-8.27-.58-9.7-4.46-1.43-3.88.59-8.17 4.52-9.59 3.92-1.41 8.27.58 9.71 4.47 1.43 3.88-.6 8.17-4.53 9.58z"/><path fill="#f8a025" d="M28.82 82.27c-3.56 1.27-7.49-.53-8.78-4.04-1.29-3.51.54-7.4 4.1-8.68 3.55-1.28 7.49.53 8.79 4.04 1.28 3.51-.56 7.4-4.11 8.68z"/><path fill="#f89e26" d="M28.57 81.6c-3.19 1.14-6.71-.47-7.87-3.62-1.16-3.14.48-6.62 3.67-7.77 3.18-1.14 6.7.47 7.87 3.62 1.16 3.15-.48 6.63-3.67 7.77z"/><path fill="#f89c26" d="M28.33 80.94c-2.81 1.01-5.92-.42-6.95-3.2-1.02-2.77.43-5.85 3.24-6.86 2.81-1.01 5.92.42 6.95 3.2 1.02 2.77-.43 5.85-3.24 6.86z"/><path fill="#f89a27" d="M28.08 80.27c-2.44.87-5.14-.36-6.03-2.77-.89-2.41.37-5.08 2.81-5.96 2.44-.88 5.14.36 6.03 2.77.89 2.42-.37 5.08-2.81 5.96z"/><path fill="#f79728" d="M27.84 79.61c-2.07.74-4.36-.31-5.11-2.35s.31-4.3 2.38-5.05c2.07-.74 4.36.31 5.11 2.35s-.31 4.3-2.38 5.05z"/><path fill="#f79528" d="M27.59 78.94c-1.69.61-3.57-.25-4.19-1.93-.62-1.67.26-3.53 1.95-4.14 1.7-.61 3.57.25 4.19 1.93.62 1.68-.25 3.53-1.95 4.14z"/><path fill="#f79329" d="M27.35 78.28c-1.32.47-2.79-.2-3.27-1.51-.48-1.3.2-2.76 1.53-3.23 1.32-.47 2.79.19 3.27 1.5s-.21 2.76-1.53 3.24z"/><path fill="#2f2f2f" d="M29.96 66.18a2.728 2.728 0 01-3.73.93 2.72 2.72 0 01-.96-3.71c.18-.31 4.6-7.62 14.37-7.62 9.78 0 14.2 7.31 14.39 7.62a2.735 2.735 0 01-2.36 4.11c-.92 0-1.83-.47-2.34-1.32-.13-.22-3.12-4.96-9.69-4.96-6.57-.01-9.54 4.74-9.68 4.95zm72.04.94c-.43.26-.91.38-1.37.38-.94 0-1.85-.49-2.36-1.34-.11-.2-3.08-4.94-9.66-4.94-6.69 0-9.66 4.89-9.69 4.94a2.724 2.724 0 01-4.69-2.77c.18-.31 4.6-7.62 14.38-7.62 9.77 0 14.18 7.31 14.36 7.62.76 1.3.32 2.98-.97 3.73zM64.45 94.1c-19.78 0-28.38-10.38-28.74-10.82-1.12-1.39-.9-3.42.48-4.54 1.38-1.11 3.4-.9 4.52.47.32.38 7.25 8.43 23.73 8.43 15.84 0 22.01-9.27 22.26-9.67a3.238 3.238 0 014.45-.98c1.5.95 1.95 2.92 1.01 4.43-.31.52-8.14 12.68-27.71 12.68z"/></svg><svg viewBox="0 0 128 128" id="1F642" xmlns="http://www.w3.org/2000/svg"><path fill="#fcc21b" d="M63.89 9.64C1.58 9.64.1 79.5.1 93.33c0 13.83 28.56 25.03 63.79 25.03 35.24 0 63.79-11.21 63.79-25.03 0-13.83-1.47-83.69-63.79-83.69z"/><path fill="#2f2f2f" d="M63.89 95.08c-14.13 0-22.18-8.14-22.52-8.48a3.254 3.254 0 014.67-4.53c.25.25 6.58 6.51 17.85 6.51 11.27 0 17.6-6.25 17.87-6.52a3.26 3.26 0 014.59-.04 3.238 3.238 0 01.06 4.58c-.34.34-8.39 8.48-22.52 8.48z"/><path fill="none" d="M.41 0H128v128H.41z"/><path fill="#2f2f2f" d="M42 68c-4.49.04-8.17-4.27-8.22-9.62-.05-5.37 3.55-9.75 8.04-9.79 4.48-.04 8.17 4.27 8.22 9.64.05 5.36-3.55 9.73-8.04 9.77zm44.11 0c4.48-.01 8.11-4.36 8.1-9.71-.01-5.37-3.66-9.7-8.14-9.69-4.49.01-8.13 4.36-8.12 9.73.02 5.35 3.67 9.68 8.16 9.67z"/></svg><svg viewBox="0 0 128 128" id="1F643" xmlns="http://www.w3.org/2000/svg"><defs><path id="ala" d="M.41 0H128v128H.41z"/></defs><clipPath id="alb"><use overflow="visible" xlink:href="#ala"/></clipPath><g clip-path="url(#alb)"><path fill="#fcc21b" d="M127.79 34.67c0-13.83-28.55-25.03-63.79-25.03C28.77 9.64.21 20.84.21 34.67c0 13.83 1.48 83.68 63.79 83.68 62.32.01 63.79-69.85 63.79-83.68z"/></g><g fill="#2f2f2f" clip-path="url(#alb)"><path d="M42 82c-4.49.04-8.17-4.27-8.22-9.62-.05-5.37 3.55-9.75 8.04-9.79 4.48-.04 8.17 4.27 8.22 9.64.05 5.36-3.55 9.73-8.04 9.77zm44.11 0c4.48-.01 8.11-4.36 8.1-9.71-.01-5.37-3.66-9.7-8.14-9.69-4.49.01-8.13 4.36-8.12 9.73.02 5.35 3.67 9.68 8.16 9.67zM63.89 30.94c-14.13 0-22.18 8.14-22.52 8.48a3.254 3.254 0 004.67 4.53c.25-.25 6.58-6.51 17.85-6.51 11.27 0 17.6 6.25 17.87 6.52a3.26 3.26 0 004.59.04 3.238 3.238 0 00.06-4.58c-.34-.34-8.39-8.48-22.52-8.48z"/></g></svg><svg id="1F923" viewBox="0 0 128 128" xmlns="http://www.w3.org/2000/svg"><style id="amstyle2">.amst1{fill:#2f2f2f}</style><path id="ampath4" fill="#fcc21b" d="M122.2 34.1c9.7 9.7-2.2 37.2-26.6 61.5-24.3 24.3-51.9 36.2-61.5 26.6-9.7-9.7-57.5-59.5-14.4-102.5 43-43.1 92.8 4.7 102.5 14.4"/><g id="amg10"><path id="ampath6" d="M32.3 75.6c.3-.3.6-.6.8-1.1 3.7-8.1 9.5-14.8 9.5-14.9.9-1 .9-2.4.2-3.6-.7-1.1-2.1-1.6-3.3-1.2-9.2 2.7-18.3 8.2-18.7 8.4-1.4.9-1.8 2.7-1 4.1.9 1.4 2.7 1.9 4.1 1 0 0 3.5-2.1 8.1-4.3-1.5 2.4-3 5.1-4.4 7.9-.7 1.5 0 3.3 1.5 4 1.1.6 2.3.4 3.2-.3z" class="amst1"/><path id="ampath8" d="M75.4 32.1c-.3.3-.6.6-1.1.8-8 3.6-14.7 9.3-14.8 9.4-1 .9-2.4.9-3.5.2s-1.6-2.1-1.2-3.3c2.7-9.1 8.2-18.1 8.4-18.5.9-1.4 2.7-1.8 4.1-1 1.4.9 1.8 2.7 1 4.1 0 0-2.1 3.4-4.3 8 2.3-1.5 5-3 7.9-4.3 1.5-.7 3.3 0 3.9 1.5.5 1.1.3 2.3-.4 3.1z" class="amst1"/></g><path id="ampath12" fill="#ed6c30" d="M94 40.6c-3.2-1.7-7.6-.2-11.1 3.4-3.7 3.8-7.6 10.6-10.7 14.6-1.6 2.1-3.4 4-5.1 5.9-1.9 1.8-3.8 3.5-5.9 5.1-4.1 3.1-10.9 7-14.7 10.6-3.6 3.4-5.2 7.8-3.5 11 2.8 5.4 12.2 8.1 21.6 6.9 8.5-1.1 15.4-3.6 21.9-8.2.8-.6 2-1.6 3.1-2.8 1.1-1.1 2.2-2.3 2.8-3.1 4.7-6.4 7.2-13.3 8.4-21.8 1.2-9.3-1.4-18.8-6.8-21.6z"/><g id="amg40" fill="#fff" transform="rotate(-45 52.134 68.915)"><path id="ampath36" d="M106.57 79.41c-1.38-2.21-2.93-6.97-3.17-8.49-.41-2.61-1.5-7.34-2.3-11.3-.22-1.07-.2-2.56 1.15-2.63 1.08-.03 2.77.61 3.76.95 2.92 1 5.98 2.69 8.51 4.4 4.62 3.17 7.76 8.25 7.14 13.99-.47 4.24-4.45 7.04-8.05 6.87-2.6-.1-5.76-1.73-7.04-3.79z"/><path id="ampath38" d="M21.43 79.41c1.38-2.21 2.93-6.97 3.17-8.49.41-2.61 1.5-7.34 2.3-11.3.22-1.07.2-2.56-1.15-2.63-1.08-.03-2.77.61-3.76.95-2.92 1-5.98 2.69-8.51 4.4-4.62 3.17-7.76 8.25-7.14 13.99.47 4.24 4.45 7.04 8.05 6.87 2.6-.1 5.76-1.73 7.04-3.79z"/></g></svg></svg>