<?xml version="1.0" encoding="utf-8"?><svg viewBox="0 0 128 128" xmlns="http://www.w3.org/2000/svg" xmlns:xlink="http://www.w3.org/1999/xlink"><style>:root>svg{display:none}:root>svg:target{display:block}</style><svg viewBox="0 0 128 128" id="1F980" xmlns="http://www.w3.org/2000/svg"><path fill="#b21818" d="M-50.92 58.29c1.94-.99 5-2.86 7.11-5.78.81-1.12.38-2.72-.84-3.3l-.91-.43c-.94-.44-2.06-.13-2.64.76-1.41 2.16-3.46 3.91-4.87 4.96-.89.66-1.17 1.91-.63 2.89.55 1.02 1.77 1.42 2.78.9zm-68.53 5.05-4.7-4.13c-1.36-.36-2.74.53-2.98 1.91l-.41 2.4c-.23 1.36.73 2.64 2.1 2.8l5.12 1.73c1.2.13 2.31-.64 2.6-1.8.31-1.28-.46-2.57-1.73-2.91z"/><path fill="#b21818" d="m-128.01 58.82-4.78-.95c-1.66.1-2.89 1.6-2.65 3.24l.41 2.83c.23 1.61 1.78 2.68 3.38 2.35l4.22-.65a2.84 2.84 0 0 0 2.26-2.97c-.1-1.55-1.29-3.95-2.84-3.85z"/><path fill="#b21818" d="m-142.41 72.3 2.22-.85c1.49-.69 2.65-1.5 2.95-1.91l4.39-3.73c.45-.61.29-1.81-.11-2.45l-1.39-2.22c-.7-1.12-2.32-1.15-3.07-.07l-7.02 9.25c-.92 1.28.46 2.15 2.03 1.98zm26.3.31-6.89-2.38c-1.36-.36-2.74.53-2.98 1.91l-.41 2.4c-.23 1.36.73 2.64 2.1 2.8l7.3-.02c1.2.13 2.31-.64 2.6-1.8.32-1.28-.45-2.58-1.72-2.91z"/><path fill="#b21818" d="m-127 71.06-7.25-1.56c-1.66.1-2.89 1.6-2.65 3.24l.41 2.83c.23 1.61 1.78 2.68 3.38 2.35l6.84-1.27a2.84 2.84 0 0 0 2.26-2.97 2.81 2.81 0 0 0-2.99-2.62z"/><path fill="#b21818" d="m-145.35 87.03 2.22-.85c1.49-.69 2.65-1.5 2.95-1.91l5.86-6.83c.45-.61.29-1.81-.11-2.45l-1.39-2.22c-.7-1.12-2.32-1.15-3.07-.07l-8.5 12.35c-.91 1.29.47 2.15 2.04 1.98zm33.61-4.48-10.15-1.32c-1.39-.22-2.67.81-2.76 2.22l-.16 2.43c-.09 1.38 1 2.55 2.38 2.56l10.31-1.1c1.2.01 2.23-.87 2.39-2.07.18-1.31-.72-2.52-2.01-2.72z"/><path fill="#b21818" d="m-125.79 82.47-6.08-.16a2.84 2.84 0 0 0-2.3 3.5l.71 2.77c.4 1.57 2.05 2.48 3.61 1.98l5.38-2.61c1.36-.44 2.18-1.8 1.94-3.19a2.827 2.827 0 0 0-3.26-2.29z"/><path fill="#b21818" d="m-140.31 98.05 2.11-1.08c1.41-.84 2.3-1.76 2.56-2.2l4.52-4.56c.39-.65.1-1.83-.37-2.43l-1.62-2.06c-.82-1.04-2.43-.91-3.06.25l-6.39 10.32c-.75 1.38.71 2.1 2.25 1.76zm33.63-7.5-12.82.72c-1.84.1-2.84 2.21-1.74 3.7l2.25 3.07c.58.79 1.6 1.13 2.54.85l10.83-3.21c1.37-.4 2.05-1.93 1.44-3.22l-.27-.58c-.4-.86-1.28-1.38-2.23-1.33z"/><path fill="#b21818" d="m-120.39 93.78-3.14.43c-.97.13-1.74.89-1.9 1.86l-.72 6.14c-.23 1.47.81 3.46 2.74 3.45l1.34.22c.87-.12 1.59-.73 1.84-1.58l2.27-7.69c.47-1.54-.83-3.05-2.43-2.83z"/><path fill="#b21818" d="M-123.44 107.67s2.24 3.22 4.96 4.66c2.85 1.52 4.39 1.42 4.6.83.33-.96-2.88-3.1-4.59-5.34s-2.74-4.1-2.74-4.1c-.36-.38-.92-.5-1.39-.28-1.67.76-2.09 2.91-.84 4.23zm73-44.33 4.7-4.13c1.36-.36 2.74.53 2.98 1.91l.41 2.4c.23 1.36-.73 2.64-2.1 2.8l-5.12 1.73c-1.2.13-2.31-.64-2.6-1.8a2.43 2.43 0 0 1 1.73-2.91z"/><path fill="#b21818" d="m-41.87 58.82 4.78-.95c1.66.1 2.89 1.6 2.65 3.24l-.41 2.83c-.23 1.61-1.78 2.68-3.38 2.35l-4.22-.65a2.84 2.84 0 0 1-2.26-2.97c.1-1.55 1.28-3.95 2.84-3.85z"/><path fill="#b21818" d="m-27.47 72.3-2.22-.85c-1.49-.69-2.65-1.5-2.95-1.91l-4.39-3.73c-.45-.61-.29-1.81.11-2.45l1.39-2.22c.7-1.12 2.32-1.15 3.07-.07l7.02 9.25c.92 1.28-.46 2.15-2.03 1.98zm-26.3.31 6.89-2.38c1.36-.36 2.74.53 2.98 1.91l.41 2.4c.23 1.36-.73 2.64-2.1 2.8l-7.3-.02c-1.2.13-2.31-.64-2.6-1.8-.32-1.28.45-2.58 1.72-2.91z"/><path fill="#b21818" d="m-42.88 71.06 7.25-1.56c1.66.1 2.89 1.6 2.65 3.24l-.41 2.83c-.23 1.61-1.78 2.68-3.38 2.35l-6.84-1.27a2.84 2.84 0 0 1-2.26-2.97 2.81 2.81 0 0 1 2.99-2.62z"/><path fill="#b21818" d="m-24.53 87.03-2.22-.85c-1.49-.69-2.65-1.5-2.95-1.91l-5.86-6.83c-.45-.61-.29-1.81.11-2.45l1.39-2.22c.7-1.12 2.32-1.15 3.07-.07l8.5 12.35c.9 1.29-.47 2.15-2.04 1.98zm-33.61-4.48 10.15-1.32c1.39-.22 2.67.81 2.76 2.22l.16 2.43c.09 1.38-1 2.55-2.38 2.56l-10.31-1.1c-1.2.01-2.23-.87-2.39-2.07-.18-1.31.71-2.52 2.01-2.72z"/><path fill="#b21818" d="m-44.09 82.47 6.08-.16a2.84 2.84 0 0 1 2.3 3.5l-.71 2.77c-.4 1.57-2.05 2.48-3.61 1.98l-5.38-2.61a2.846 2.846 0 0 1-1.94-3.19 2.822 2.822 0 0 1 3.26-2.29z"/><path fill="#b21818" d="m-29.57 98.05-2.11-1.08c-1.41-.84-2.3-1.76-2.56-2.2l-4.52-4.56c-.39-.65-.1-1.83.37-2.43l1.62-2.06c.82-1.04 2.43-.91 3.06.25l6.39 10.32c.75 1.38-.71 2.1-2.25 1.76zm-33.63-7.5 12.82.72c1.84.1 2.84 2.21 1.74 3.7l-2.25 3.07a2.33 2.33 0 0 1-2.54.85l-10.83-3.21a2.318 2.318 0 0 1-1.44-3.22l.27-.58c.4-.86 1.28-1.38 2.23-1.33z"/><path fill="#b21818" d="m-49.49 93.78 3.14.43c.97.13 1.74.89 1.9 1.86l.72 6.14c.23 1.47-.81 3.46-2.74 3.45l-1.34.22c-.87-.12-1.59-.73-1.84-1.58l-2.27-7.69c-.47-1.54.83-3.05 2.43-2.83z"/><path fill="#b21818" d="M-46.44 107.67s-2.24 3.22-4.96 4.66c-2.85 1.52-4.39 1.42-4.6.83-.33-.96 2.88-3.1 4.59-5.34 1.71-2.24 2.74-4.1 2.74-4.1.36-.38.92-.5 1.39-.28 1.67.76 2.09 2.91.84 4.23z"/><circle cx="-99.1" cy="38.95" r="5.17" fill="#2f2f2f"/><circle cx="-72.87" cy="38.79" r="5.17" fill="#2f2f2f"/><path fill="#b21818" d="m-45.41 37.39-3.68 1.12c-1.54.47-2.41 2.1-1.94 3.64l2.05 6.72a2.917 2.917 0 0 0 2.97 2.06l1.83-.12a2.92 2.92 0 0 0 2.73-2.98l-.2-7.72c-.05-1.93-1.92-3.28-3.76-2.72zm-74.11 20.9c-1.94-.99-5-2.86-7.11-5.78-.81-1.12-.38-2.72.84-3.3l.91-.43c.94-.44 2.06-.13 2.64.76 1.41 2.16 3.46 3.91 4.87 4.96.89.66 1.17 1.91.63 2.89-.56 1.02-1.78 1.42-2.78.9z"/><path fill="#b21818" d="m-125.04 37.39 3.68 1.12c1.54.47 2.41 2.1 1.94 3.64l-2.05 6.72a2.917 2.917 0 0 1-2.97 2.06l-1.83-.12a2.92 2.92 0 0 1-2.73-2.98l.2-7.72c.05-1.93 1.92-3.28 3.76-2.72z"/><circle cx="-100.85" cy="36.82" r="1.22" fill="#939090"/><circle cx="-73.98" cy="36.82" r="1.22" fill="#939090"/><path fill="#ea4832" d="M-38.14 36.46c.45-3.91 1.36-10.13-3.4-16.06C-49.56 10.43-58.9 9.78-62.11 10s-1.95 1.44-.19 3.17c.81.8 3.31 2.89 5.05 5.32 1.79 2.48 2.8 5.29 1.98 5.84-1.39.93-4.99-1.61-6.14-3-1.24-1.51-1.44-1.98-2.67-4.23-1.2-2.21-1.53-3.25-2.01-2.65-.48.6-1.04 2.38-.76 4.68.24 1.9 1.23 3.93 1.81 6.33.99 4.12.17 3.19 1.52 8.33.8 3.04 1.95 4.83 5.4 7.58 3.76 3.01 7.76 2.71 9.37 2.89 2.5.27 5.26-1.13 8.01-2.62.68-.37 2.4-3.5 2.6-5.18zm-95.55 0c-.45-3.91-1.36-10.13 3.4-16.06 8.01-9.98 17.35-10.63 20.57-10.4 3.21.23 1.95 1.44.19 3.17-.81.8-3.31 2.89-5.05 5.32-1.79 2.48-2.8 5.29-1.98 5.84 1.39.93 4.99-1.61 6.14-3 1.24-1.51 1.44-1.98 2.67-4.23 1.2-2.21 1.53-3.25 2.01-2.65.48.6 1.04 2.38.76 4.68-.24 1.9-1.23 3.93-1.81 6.33-.99 4.12-.17 3.19-1.52 8.33-.8 3.04-1.95 4.83-5.4 7.58-3.76 3.01-7.76 2.71-9.37 2.89-2.5.27-5.26-1.13-8.01-2.62-.68-.37-2.4-3.5-2.6-5.18zm67.81 59.74c-1.26.16-2.41.77-3.32 1.67-1.93 1.89-6.49 5.46-16.2 5.46-9.85 0-14.79-3.86-16.9-5.87a6.184 6.184 0 0 0-3.48-1.69c-6.94-.91-12.47-6.12-13.18-12.77l-3.7-18.46c-.9-8.43 6.15-13.57 15.34-15.73 0 0 10.24-2.67 21.92-2.67s21.92 2.67 21.92 2.67c9.32 2.16 15.94 7.05 15.39 15.18-.02.36-.09.73-.17 1.08l-4.36 18.35c-.73 6.68-6.29 11.9-13.26 12.78z"/><path fill="#f48a84" d="M-112.77 65.09c-1.24 0-2.31-.95-2.47-2.21-.24-1.92.59-5.7 5.19-7.7a2.48 2.48 0 0 1 3.26 1.29c.55 1.26-.03 2.71-1.29 3.26-2.21.96-2.25 2.35-2.24 2.62.17 1.36-.8 2.56-2.16 2.72-.1.01-.2.02-.29.02z"/><path fill="#d86030" d="M97.74 57.93c1.93-.98 4.98-2.85 7.08-5.75.8-1.11.38-2.71-.84-3.28l-.9-.42c-.93-.44-2.05-.13-2.63.75-1.4 2.15-3.44 3.89-4.85 4.94-.89.66-1.16 1.9-.63 2.88.55 1 1.77 1.39 2.77.88zm-68.23 5.03-4.68-4.11a2.39 2.39 0 0 0-2.97 1.91l-.41 2.39c-.23 1.36.72 2.63 2.09 2.78l5.09 1.73c1.19.13 2.3-.63 2.59-1.8.32-1.28-.44-2.57-1.71-2.9z"/><path fill="#d86030" d="m20.98 58.45-4.76-.95c-1.66.1-2.88 1.59-2.64 3.22l.41 2.82c.23 1.6 1.78 2.67 3.37 2.34l4.2-.65a2.822 2.822 0 0 0 2.25-2.96c-.1-1.53-1.28-3.91-2.83-3.82z"/><path fill="#d86030" d="m6.64 71.87 2.21-.85c1.48-.68 2.63-1.49 2.94-1.9l4.37-3.72c.45-.61.29-1.8-.11-2.44l-1.39-2.21a1.836 1.836 0 0 0-3.06-.07l-7 9.21c-.89 1.29.48 2.16 2.04 1.98zm26.19.31-6.86-2.37A2.39 2.39 0 0 0 23 71.72l-.4 2.38c-.23 1.36.72 2.63 2.09 2.78l7.27-.02c1.19.13 2.3-.63 2.59-1.8.31-1.25-.45-2.54-1.72-2.88z"/><path fill="#d86030" d="m21.99 70.64-7.22-1.55c-1.66.1-2.88 1.59-2.64 3.22l.41 2.82c.23 1.6 1.78 2.67 3.37 2.34l6.81-1.27a2.822 2.822 0 0 0 2.25-2.96 2.818 2.818 0 0 0-2.98-2.6z"/><path fill="#d86030" d="m3.71 86.55 2.21-.85c1.48-.68 2.63-1.49 2.94-1.9L14.7 77c.45-.61.29-1.8-.11-2.44l-1.39-2.21a1.836 1.836 0 0 0-3.06-.07l-8.46 12.3c-.9 1.28.47 2.14 2.03 1.97zm33.47-4.47-10.1-1.32c-1.39-.21-2.66.81-2.75 2.21l-.16 2.42c-.09 1.37.99 2.54 2.37 2.55l10.26-1.1c1.2.01 2.22-.87 2.38-2.06.19-1.3-.71-2.5-2-2.7z"/><path fill="#d86030" d="m23.19 82.01-6.06-.16c-1.64.27-2.7 1.88-2.29 3.48l.7 2.76c.4 1.57 2.05 2.47 3.6 1.97l5.36-2.6a2.832 2.832 0 0 0 1.93-3.18c-.26-1.52-1.71-2.53-3.24-2.27z"/><path fill="#d86030" d="m8.74 97.52 2.11-1.08c1.4-.84 2.29-1.75 2.55-2.19l4.5-4.54c.39-.65.1-1.82-.37-2.42l-1.61-2.05c-.81-1.03-2.41-.9-3.05.25L6.5 95.76c-.75 1.38.7 2.09 2.24 1.76zm33.48-7.47-12.76.72c-1.83.1-2.82 2.2-1.74 3.68l2.24 3.06c.58.79 1.59 1.13 2.53.85l10.79-3.2a2.32 2.32 0 0 0 1.44-3.21l-.27-.58a2.32 2.32 0 0 0-2.23-1.32z"/><path fill="#d86030" d="m28.57 93.27-3.13.43c-.97.13-1.73.89-1.89 1.85l-.71 6.11c-.23 1.47.8 3.45 2.73 3.44l1.34.22c.87-.12 1.58-.73 1.83-1.57L31 96.1c.46-1.55-.84-3.05-2.43-2.83z"/><path fill="#d86030" d="M25.53 107.1s2.23 3.21 4.93 4.64c2.84 1.51 4.37 1.42 4.58.82.33-.96-2.87-3.08-4.57-5.32-1.7-2.23-2.73-4.08-2.73-4.08-.35-.38-.91-.49-1.39-.28-1.64.76-2.06 2.91-.82 4.22zm72.7-44.14 4.68-4.11a2.39 2.39 0 0 1 2.97 1.91l.41 2.39c.23 1.36-.72 2.63-2.09 2.78l-5.09 1.73c-1.19.13-2.3-.63-2.59-1.8-.32-1.28.44-2.57 1.71-2.9z"/><path fill="#d86030" d="m106.75 58.45 4.76-.95c1.66.1 2.88 1.59 2.64 3.22l-.41 2.82c-.23 1.6-1.78 2.67-3.37 2.34l-4.2-.65a2.822 2.822 0 0 1-2.25-2.96c.1-1.53 1.29-3.91 2.83-3.82z"/><path fill="#d86030" d="m121.1 71.87-2.21-.85c-1.48-.68-2.63-1.49-2.94-1.9l-4.37-3.72c-.45-.61-.29-1.8.11-2.44l1.39-2.21c.7-1.11 2.31-1.15 3.06-.07l6.99 9.21c.9 1.29-.47 2.16-2.03 1.98zm-26.2.31 6.86-2.37a2.39 2.39 0 0 1 2.97 1.91l.41 2.39c.23 1.36-.72 2.63-2.09 2.78l-7.27-.02c-1.19.13-2.3-.63-2.59-1.8-.31-1.26.45-2.55 1.71-2.89z"/><path fill="#d86030" d="m105.75 70.64 7.22-1.55c1.66.1 2.88 1.59 2.64 3.22l-.41 2.82c-.23 1.6-1.78 2.67-3.37 2.34l-6.81-1.27a2.822 2.822 0 0 1-2.25-2.96c.1-1.53 1.43-2.69 2.98-2.6z"/><path fill="#d86030" d="m124.02 86.55-2.21-.85c-1.48-.68-2.63-1.49-2.94-1.9l-5.84-6.8c-.45-.61-.29-1.8.11-2.44l1.39-2.21c.7-1.11 2.31-1.15 3.06-.07l8.46 12.3c.91 1.28-.46 2.14-2.03 1.97zm-33.46-4.47 10.1-1.32c1.39-.21 2.66.81 2.75 2.21l.16 2.42c.09 1.37-.99 2.54-2.37 2.55l-10.26-1.1c-1.2.01-2.22-.87-2.38-2.06-.19-1.3.7-2.5 2-2.7z"/><path fill="#d86030" d="m104.54 82.01 6.06-.16c1.64.27 2.7 1.88 2.29 3.48l-.7 2.76c-.4 1.57-2.05 2.47-3.6 1.97l-5.36-2.6a2.832 2.832 0 0 1-1.93-3.18 2.801 2.801 0 0 1 3.24-2.27z"/><path fill="#d86030" d="m119 97.52-2.11-1.08c-1.4-.84-2.29-1.75-2.55-2.19l-4.5-4.54c-.39-.65-.1-1.82.37-2.42l1.61-2.05c.81-1.03 2.41-.9 3.05.25l6.36 10.27c.76 1.38-.69 2.09-2.23 1.76zm-33.49-7.47 12.76.72c1.83.1 2.82 2.2 1.74 3.68l-2.24 3.06c-.58.79-1.59 1.13-2.53.85l-10.79-3.2a2.32 2.32 0 0 1-1.44-3.21l.27-.58c.41-.85 1.29-1.37 2.23-1.32z"/><path fill="#d86030" d="m99.17 93.27 3.13.43c.97.13 1.73.89 1.89 1.85l.71 6.11c.23 1.47-.8 3.45-2.73 3.44l-1.34.22c-.87-.12-1.58-.73-1.83-1.57l-2.26-7.66c-.46-1.54.83-3.04 2.43-2.82z"/><path fill="#d86030" d="M102.2 107.1s-2.23 3.21-4.93 4.64c-2.84 1.51-4.37 1.42-4.58.82-.33-.96 2.87-3.08 4.57-5.32 1.7-2.23 2.73-4.08 2.73-4.08.35-.38.91-.49 1.39-.28 1.65.76 2.07 2.91.82 4.22z"/><ellipse cx="49.81" cy="37.66" fill="#2f2f2f" rx="5.53" ry="6.63"/><ellipse cx="76.76" cy="37.46" fill="#2f2f2f" rx="5.53" ry="6.63"/><path fill="#d86030" d="m103.23 37.12-3.66 1.11c-1.53.47-2.4 2.09-1.93 3.62l2.04 6.69a2.905 2.905 0 0 0 2.96 2.05l1.82-.12c1.56-.1 2.76-1.41 2.72-2.97l-.2-7.69c-.05-1.9-1.91-3.25-3.75-2.69zm-73.8 20.81c-1.93-.98-4.98-2.85-7.08-5.75-.8-1.11-.38-2.71.84-3.28l.9-.42c.93-.44 2.05-.13 2.63.75 1.4 2.15 3.44 3.89 4.85 4.94.89.66 1.16 1.9.63 2.88-.55 1-1.76 1.39-2.77.88z"/><path fill="#d86030" d="m23.94 37.12 3.66 1.11c1.53.47 2.4 2.09 1.93 3.62l-2.04 6.69a2.905 2.905 0 0 1-2.96 2.05l-1.82-.12a2.902 2.902 0 0 1-2.72-2.97l.2-7.69c.06-1.9 1.92-3.25 3.75-2.69z"/><circle cx="48.22" cy="35.25" r="1.28" fill="#939090"/><circle cx="75.34" cy="35.25" r="1.28" fill="#939090"/><path fill="#ed6c30" d="M110.47 36.2c.45-3.89 1.35-10.09-3.39-15.99C99.1 10.27 89.8 9.62 86.6 9.85c-3.2.22-1.94 1.43-.19 3.16.81.79 3.29 2.88 5.03 5.29 1.78 2.47 2.79 5.27 1.97 5.81-1.38.92-4.97-1.6-6.11-2.98-1.24-1.5-1.43-1.97-2.65-4.22-1.19-2.2-1.53-3.24-2-2.64-.48.6-1.04 2.37-.75 4.66.24 1.89 1.22 3.92 1.8 6.31.99 4.11.17 3.17 1.52 8.3.8 3.02 1.94 4.81 5.37 7.55 3.75 3 7.73 2.7 9.33 2.87 2.49.27 5.24-1.13 7.98-2.61.65-.37 2.38-3.49 2.57-5.15zm-95.14 0c-.45-3.89-1.35-10.09 3.39-15.99C26.7 10.27 36 9.62 39.2 9.85c3.2.22 1.94 1.43.19 3.16-.81.79-3.29 2.88-5.03 5.29-1.78 2.47-2.79 5.27-1.97 5.81 1.38.92 4.97-1.6 6.11-2.98 1.24-1.5 1.43-1.97 2.65-4.22 1.19-2.2 1.53-3.24 2-2.64.48.6 1.04 2.37.75 4.66-.24 1.89-1.22 3.92-1.8 6.31-.99 4.11-.17 3.17-1.52 8.3-.8 3.02-1.94 4.81-5.37 7.55-3.75 3-7.73 2.7-9.33 2.87-2.49.27-5.24-1.13-7.98-2.61-.66-.37-2.38-3.49-2.57-5.15zm67.52 59.48c-1.25.16-2.4.77-3.31 1.66-1.92 1.88-6.47 5.44-16.13 5.44-9.81 0-14.73-3.85-16.83-5.85-.96-.91-2.16-1.51-3.46-1.68-6.91-.9-12.42-6.09-13.12-12.71l-3.69-18.38c-.89-8.39 6.13-13.51 15.27-15.66 0 0 10.2-2.66 21.83-2.66s21.82 2.66 21.82 2.66c9.28 2.15 15.87 7.02 15.32 15.12-.02.36-.09.72-.17 1.07l-4.35 18.27c-.7 6.64-6.24 11.84-13.18 12.72z"/><path fill="#fff" d="M36.51 68.15c-1.68 0-3.14-1.29-3.34-3-.32-2.6.8-7.73 7.03-10.43 1.7-.74 3.68.04 4.41 1.74.74 1.7-.04 3.68-1.74 4.41-2.99 1.3-3.05 3.18-3.03 3.55.23 1.84-1.08 3.46-2.92 3.69-.14.03-.28.04-.41.04z"/></svg><svg viewBox="0 0 128 128" id="1F990" xmlns="http://www.w3.org/2000/svg"><path fill="none" stroke="#dd5728" stroke-linecap="round" stroke-linejoin="round" stroke-miterlimit="10" stroke-width="2.35" d="M25.1 79.95c5.08-2.54 8.91-.07 10.51 3.93m-9.85-8.92c5.6-.93 8.53 2.54 8.9 6.84m-7.83-13.31c5.47-1.49 8.78 1.41 8.78 6.32m-7.15-11.09c5.67.18 8.78 3.05 8.73 8.46m1.25-14.02c3.73 2.48 5.61 7.73 3.25 11.31m-1.45-12.5c4.11 1.81 9.25 7.05 6.43 13.91m-2.81-13.91c4.11 1.81 22.88 5.61 24.58 14.29m-23.7-15.17c5.58.88 34.88 3.58 36.59 12.26"/><path fill="#dd5728" d="M97.98 37c-.54 0-1.02-.37-1.15-.92-.14-.63.26-1.26.89-1.4 6.84-1.53 13.22-6.8 15.53-12.81 1.06-2.75 1.72-6.87-1.1-10.85-6.72-9.46-23.8-8.07-44.57 3.64l-2.61 1.47C51.49 23.76 46.29 27.6 29.99 29.22c-3.82.38-7.68-.07-7.74-.72-.05-.65 3.78.1 7.66-.61 15.26-2.81 16.51-3.31 33.9-13.8l2.61-1.48C88.66.08 106.47-1.03 114.06 9.66c2.67 3.77 3.17 8.4 1.38 13.05-2.61 6.81-9.53 12.54-17.21 14.26-.08.02-.16.03-.25.03z"/><path fill="#dd5728" d="M96.83 37c-.54 0-1.02-.37-1.15-.92-.14-.63.26-1.26.89-1.4 6.36-1.43 9.65-6.64 10.61-11.05 1.08-4.99-.43-9.75-3.96-12.43-9.81-7.43-24.34-6.93-44.43 1.53-16.3 6.87-22.54 10.19-34.89 7.26-1.5-.36-5.24-1.91-5.16-2.55.08-.64 4.58 1.64 8.82 1.83 9.52.41 11.77-.35 30.32-8.7 20.7-9.32 36.22-9.22 46.76-1.24 4.27 3.23 6.12 8.9 4.84 14.8-1.42 6.52-6.16 11.45-12.39 12.84-.09.02-.18.03-.26.03zM26.07 94.56c1.15-.34 6.33 3.22 11.4 5.58 3.41 1.58 11.55 3.52 15.12 4.68 2.57.84 5.16 2.31 5.51 4.93.52 3.87-3.59 4.48-5.61 4.33-6-.44-14.13-4.51-18.53-8.55-3.52-3.26-10.56-10.19-7.89-10.97z"/><path fill="#f37021" d="M25.43 95.53c1.41.12 5.6 5.59 10.2 9.85 3.09 2.87 11.22 7.92 14.67 10.44 2.48 1.82 4.71 4.26 4 6.92-1.05 3.94-5.82 2.92-7.97 1.99-6.41-2.77-13.64-9.88-16.79-15.51-2.54-4.53-7.38-13.98-4.11-13.69z"/><defs><path id="aaba" d="M15.87 76.29c-3.13.52-3.33 3.52-2.08 5.88 2.73 5.14 4.05 9.39 7.61 14.37 1.06 1.48 2.85 3.54 4.75 3.1 1.87-.44 3.6-2.91 3.62-4.7.08-9.99-1.42-15.71-2.95-16.89-3.19-2.43-8.51-2.39-10.95-1.76z"/></defs><use fill="#f37021" overflow="visible" xlink:href="#aaba"/><clipPath id="aabb"><use overflow="visible" xlink:href="#aaba"/></clipPath><path fill="#dd5728" d="M12.33 80.67c1.17-1.57 4.82.45 7.24.83 2.99.47 6.81-.88 10.2 10.33.51 1.7 2.24-10.87-2.2-15.08-2.05-1.94-5.9-1.66-8.61-1.43-3 .25-5.59.84-7.99 2.61" clip-path="url(#aabb)"/><defs><path id="aabc" d="M16.95 64.73c-2.55-.71-4.39-.09-5.07 2.62-.85 3.39-.37 9.76 2.45 11.08 3.39 1.58 9.66 1.63 12.41-.92 1.01-.94 1.76-7.54-1.1-9.17-3.48-1.96-4.91-2.82-8.69-3.61z"/></defs><use fill="#f37021" overflow="visible" xlink:href="#aabc"/><clipPath id="aabd"><use overflow="visible" xlink:href="#aabc"/></clipPath><path fill="#dd5728" d="M11.6 68.89c1.47-.76 2.65 2.66 6.51 4.04 5.29 1.9 8.52 1.37 9.11 3.62.63 2.37 4.5-4.54.52-8-2.94-2.56-7.29-4.13-11.07-4.8-2.75-.49-5.31-.39-6.3 2.53" clip-path="url(#aabd)"/><defs><path id="aabe" d="M21.6 52.35c-3.31-1.46-5.36-.08-6.98 2.85-1.71 3.08-3.07 9.47-.31 12.09 2.92 2.77 9.93 5.69 12.42 2.74 1.52-1.8 3.6-6.24 2.23-9.75-1.9-4.83-3.1-6.08-7.36-7.93z"/></defs><use fill="#f37021" overflow="visible" xlink:href="#aabe"/><clipPath id="aabf"><use overflow="visible" xlink:href="#aabe"/></clipPath><path fill="#dd5728" d="M14.39 55.65c2.22-1.07 3.1 4.93 4.76 6.48 5.18 4.83 8.39 5.01 8.25 6.98-.15 2.12 3.55-4.69 3.55-4.69-.23-2.15-1.7-4.22-2.97-5.89-1.73-2.26-3.78-4.33-6.1-5.99-1.57-1.12-3.88-2.61-5.91-1.98-1.57.48-2.26 2.19-2.85 3.56" clip-path="url(#aabf)"/><defs><path id="aabg" d="M31.9 42.26c-3.69-2.14-8.38 1.29-11.11 3.47-3.07 2.46-4.29 5.62-2.95 9.7 1.5 4.54 6.02 9.14 10.81 8.54 3.67-.46 7.78-4.16 8.53-7.65 1.16-5.38-.82-11.05-5.28-14.06z"/></defs><use fill="#f37021" overflow="visible" xlink:href="#aabg"/><clipPath id="aabh"><use overflow="visible" xlink:href="#aabg"/></clipPath><path fill="#dd5728" d="M24.47 42.58c1.76.54.59 6.66 1.77 11.39 1.51 6.05 6.06 7.02 4.44 9.43-.56.83 5.77-1.28 6.62-1.96 1.08-.87.33-2.88.02-3.93-.92-3.07-2.21-6.06-3.53-8.98-1.24-2.73-2.59-6.38-4.99-8.34-1.46-1.19-2.59-.26-3.65.92" clip-path="url(#aabh)"/><defs><path id="aabi" d="M43.92 38.73c-1.98-3.86-10.32-2.24-13.66.54-3.88 3.22-2.9 7.68-1.97 12.06.93 4.36 3.76 8.39 8.13 8.49 4.48.1 10.06-1.69 10.89-5.16 1.32-5.45-.9-11.37-3.39-15.93z"/></defs><use fill="#f37021" overflow="visible" xlink:href="#aabi"/><clipPath id="aabj"><use overflow="visible" xlink:href="#aabi"/></clipPath><path fill="#dd5728" d="M38.44 33.47c-.49.65-5.08 3.23-3.98 2.97 3.12-.72 1.97 6.53 3.12 11.69 1.4 6.24 3.32 8.43 0 11.66-2.66 2.58 8.99-.61 10.13-1.63 3.55-3.17 4.53-6.46 4.49-11.2-.04-5.54-3.47-10.6-8.64-12.64-2.7-1.06-3.19-3.22-5.12-.85z" clip-path="url(#aabj)"/><path fill="#dd5728" d="M88.29 34.5c1.53-.24 16.96-3.08 17.26-1.54.04 1.54-2.99 2.96-6.32 4.77-2.46 1.34-6.95 3.62-6.56 4.76.25 1.18 7.2-1.13 6.81.92-.3 1.87-15.68 9.39-42.28 13.56-2.74.43 7.04-4.43 5.9-8-1.3-4.09 19.27-13.03 25.19-14.47z"/><path fill="#f37021" d="M42.25 33.47c14.1-6.72 36.76-5.37 42.68-5.09 6.07.29 17.82-.52 17.82 1.4-.02 2.52-15.49 8.03-17.54 10.03 1.14-.08 4.32-.07 5-.07 3.3 0 3.37.89.8 2.6-1.62 1.08-3.99 2.81-5.88 3.78-5.13 2.62-14.43 7.35-19.94 8.83-5.91 1.59-14.71 4-19.13 2.96-3.93-.93-5.21-6.28-6.32-11.37-1.28-5.95-3-10.44 2.51-13.07z"/><circle cx="80.42" cy="30.1" r="3.38" fill="#4a3530"/></svg><svg id="1F991" viewBox="0 0 128 128" xmlns="http://www.w3.org/2000/svg"><style id="aacstyle2">.aacst0{fill:#ea88a9}</style><path id="aacpath4" d="M123.8 71.9c-5.1-4-11.6-5.4-19.8-2.1-7 2.8-12.9 11.4-17.1 17.2-3.3 4.5-7.1 10-13.4 10.1-4.7.1-9.5-4.8-9.7-9.6-.3-5.1 3.2-7.4 6-11.1 0 0-7.1-6.3-9.1-9.1-2.8-2.1-9.1-9.1-9.1-9.1-3.7 2.8-6 6.3-11.1 6-4.9-.3-9.7-5-9.6-9.7.1-6.2 5.6-10.1 10.1-13.4C46.8 36.9 55.4 31 58.2 24c3.4-8.3 1.9-14.7-2.1-19.8-2.6-3.3-4.9-3.6-4.7-1 .4 5-2.7 9.9-6.3 14.5-1.9 2.4 1.8 2.9 1.4 5.7-.7 4.9-8.3 8.2-12.6 11.6-4.8 3.7-10 8.2-11.3 14.6-1.5 7 .5 11.3 5.2 16 4.3 4.3 7.4 4.5 9 5.9 1.2 1-3.4 3.7-6.5 2.2-3.4-1.7-5-5.7-6.3-7.9-3.7-6.4-8-12.3-16.3-11-2.9.5-7.9 3.8-5.8 7 2.6 4.1 7.5-1 10.9.5 2.7 1.2 4.6 4.5 5.9 7.1 1.5 2.9 3.4 5.8 6 8.1 4 3.5 8.7 2.1 8.9 3.3.4 1.3-2.6 4.7-5.5 6-2.9 1.3-6.9 1.3-9.8-.1-2.4-1.2-5.4-3.4-5.5-6.2-.1-1.3.1-2.5 1-3.6 1.2-1.6 3.1-1.3 3.6-2.1 1-1.8-1.6-3.6-3.6-3.7-2.5-.2-4.9.7-6.5 2.7-5.2 6.5 1 15.8 7.7 18.7 6.3 2.7 11.1 2 15.4 1 2.4-.6 4.3-1.6 5-.9.7.7-.3 2.6-.9 5-1.1 4.2-1.8 9 1 15.4 2.9 6.7 12.2 13 18.7 7.7 2-1.6 2.9-4 2.7-6.5-.2-2-1.9-4.7-3.7-3.6-.8.5-.5 2.3-2.1 3.6-1.1.8-2.2 1.1-3.6 1-2.8-.2-5-3.1-6.2-5.5-1.4-3-1.4-6.9-.1-9.8 1.4-2.9 4.8-6 6-5.5 1.2.2-.1 5 3.3 8.9 2.3 2.6 5.1 4.5 8.1 6 2.6 1.3 5.9 3.2 7.1 5.9 1.5 3.5-3.6 8.3.5 10.9 3.2 2.1 6.6-2.9 7-5.8 1.3-8.3-4.6-12.5-11-16.3-2.2-1.3-6.2-2.8-7.9-6.3-1.5-3.1 1.1-7.7 2.2-6.5 1.4 1.6 1.6 4.7 5.9 9 4.7 4.7 9 6.7 16 5.2 6.4-1.3 10.9-6.6 14.6-11.3 3.4-4.4 6.7-11.9 11.6-12.6 2.8-.4 3.2 3.3 5.7 1.4 4.7-3.6 9.6-6.7 14.5-6.3 2.5.1 2.3-2.1-1-4.7z" class="aacst0"/><g id="aacg14" fill="#e7799d"><defs id="aacdefs7"><path id="aacSVGID_1_" d="M35.4 92.6c-.7-.7-2.6.3-5 .9-4.2 1.1-9 1.8-15.4-1-6.7-2.9-13-12.2-7.7-18.7 1.6-2 4-2.9 6.5-2.7 2 .2 4.7 1.9 3.6 3.7-.5.8-2.3.5-3.6 2.1-.8 1.1-1.1 2.2-1 3.6.2 2.8 3.1 5 5.5 6.2 3 1.4 6.9 1.4 9.8.1 2.9-1.4 6-4.8 5.5-6-.2-1.2-5 .1-8.9-3.3-2.6-2.3-4.5-5.1-6-8.1-1.3-2.6-3.2-5.9-5.9-7.1-3.3-1.5-8.2 3.6-10.8-.5-2.1-3.2 2.9-6.6 5.8-7 8.3-1.3 12.5 4.6 16.3 11 1.3 2.2 2.8 6.2 6.3 7.9 3.1 1.5 7.7-1.1 6.5-2.2-1.6-1.4-4.7-1.6-9-5.9-4.7-4.7-6.7-9-5.2-16C24 43.2 29.3 38.7 34 35c4.4-3.4 11.9-6.7 12.6-11.6.4-2.8-3.3-3.2-1.4-5.7 3.6-4.7 6.7-9.6 6.3-14.5-.2-2.6 2.1-2.4 4.7 1 4 5.1 5.4 11.6 2.1 19.8-2.9 7-11.5 12.9-17.3 17.1-4.5 3.3-10 7.1-10.1 13.4-.1 4.7 4.8 9.5 9.6 9.7 5.1.3 7.4-3.2 11.1-6 0 0 6.3 7.1 9.1 9.1"/></defs><clipPath id="aacSVGID_2_"><use id="aacuse9" width="100%" height="100%" overflow="visible" xlink:href="#aacSVGID_1_"/></clipPath><path id="aacpath12" d="M45.5 57c-.8 1.4 0 7.1 1.9 11.2.8 1.7 2.3 4.2 5.3 7.2 2-1 4.8-.3 6.6-1.5.8-.6 1.5-1 1.5-2.2-.1-1.7-1.4-3.7-2.1-5.3-1.3-2.8-1.9-6.3-5.2-7.4-2.5-.9-5.4-1.9-8-2" clip-path="url(#aacSVGID_2_)"/></g><path id="aacpath16" d="M111.3 13.9c-9.3-3.7-19.5-7.7-29.4-6.5-4.2.5-9.4 2.6-8.8 7.8.7 6 7.5 10.2 13 10.9 10.2 1.4 18.3-6.1 25-12.1" class="aacst0"/><g id="aacg26"><defs id="aacdefs19"><path id="aacSVGID_3_" d="M111.3 13.9c-9.3-3.7-19.5-7.7-29.4-6.5-4.2.5-9.4 2.6-8.8 7.8.7 6 7.5 10.2 13 10.9 10.2 1.4 18.3-6.1 25-12.1"/></defs><clipPath id="aacSVGID_4_"><use id="aacuse21" width="100%" height="100%" overflow="visible" xlink:href="#aacSVGID_3_"/></clipPath><path id="aacpath24" fill="#9d69ac" d="M99.1 6.8c-.4 4.3-6 5.5-10.4 7-5.6 2-7 4.9-11.2 3.9-2-.4-3.6-1.6-4.9-2.9-1.5-1.5 2.5 6.4 3.5 7.1 9.1 6.3 19.3 2.5 26.7-3.2 1.9-1.5 7.3-5.1 6.4-8.3-.7-2.6-7.9-3-10.1-3.6z" clip-path="url(#aacSVGID_4_)"/></g><circle id="aacellipse28" cx="-16.001" cy="78.924" r="6.2" fill="#2f2f2f" transform="rotate(-45)"/><g id="aacg38" fill="#e7799d"><defs id="aacdefs31"><path id="aacSVGID_5_" d="M35.4 92.6c.7.7-.3 2.6-.9 5-1.1 4.2-1.8 9 1 15.4 2.9 6.7 12.2 13 18.7 7.7 2-1.6 2.9-4 2.7-6.5-.2-2-1.9-4.7-3.7-3.6-.8.5-.5 2.3-2.1 3.6-1.1.8-2.2 1.1-3.6 1-2.8-.2-5-3.1-6.2-5.5-1.4-3-1.4-6.9-.1-9.8 1.4-2.9 4.8-6 6-5.5 1.2.2-.1 5 3.3 8.9 2.3 2.6 5.1 4.5 8.1 6 2.6 1.3 5.9 3.2 7.1 5.9 1.5 3.5-3.6 8.3.5 10.9 3.2 2.1 6.6-2.9 7-5.8 1.3-8.3-4.6-12.5-11-16.3-2.2-1.3-6.2-2.8-7.9-6.3-1.5-3.1 1.1-7.7 2.2-6.5 1.4 1.6 1.6 4.7 5.9 9 4.7 4.7 9 6.7 16 5.2 6.4-1.3 10.9-6.6 14.6-11.3 3.4-4.4 6.7-11.9 11.6-12.6 2.8-.4 3.2 3.3 5.7 1.4 4.7-3.6 9.6-6.7 14.5-6.3 2.6.2 2.4-2.1-1-4.7-5.1-4-11.6-5.4-19.8-2.1-7 2.8-12.9 11.4-17.1 17.2-3.3 4.5-7.2 10-13.4 10.1-4.7.1-9.5-4.8-9.7-9.6-.3-5.1 3.2-7.4 6-11.1 0 0-7.1-6.3-9.1-9.1"/></defs><clipPath id="aacSVGID_6_"><use id="aacuse33" width="100%" height="100%" overflow="visible" xlink:href="#aacSVGID_5_"/></clipPath><path id="aacpath36" d="M71 82.5c-1.4.8-7.1 0-11.2-1.9-1.7-.8-4.2-2.3-7.2-5.3 1-2 .3-4.8 1.5-6.6.6-.8 1-1.5 2.2-1.5 1.7.1 3.7 1.4 5.3 2.1 2.8 1.3 6.3 1.9 7.4 5.2.9 2.5 1.9 5.4 2 8" clip-path="url(#aacSVGID_6_)"/></g><path id="aacpath40" d="M114.1 16.7c3.7 9.3 7.7 19.5 6.5 29.4-.5 4.2-2.6 9.4-7.8 8.8-6-.7-10.2-7.5-10.9-13-1.4-10.2 6.1-18.3 12.1-25" class="aacst0"/><g id="aacg50"><defs id="aacdefs43"><path id="aacSVGID_7_" d="M114.1 16.7c3.7 9.3 7.7 19.5 6.5 29.4-.5 4.2-2.6 9.4-7.8 8.8-6-.7-10.2-7.5-10.9-13-1.4-10.2 6.1-18.3 12.1-25"/></defs><clipPath id="aacSVGID_8_"><use id="aacuse45" width="100%" height="100%" overflow="visible" xlink:href="#aacSVGID_7_"/></clipPath><path id="aacpath48" fill="#9d69ac" d="M121.2 28.9c-4.3.4-5.5 6-7 10.4-2 5.6-4.9 7-3.9 11.2.4 2 1.6 3.6 2.9 4.9 1.5 1.5-6.4-2.5-7.1-3.5-6.3-9.1-2.5-19.3 3.2-26.7 1.5-1.9 5.1-7.3 8.3-6.4 2.6.7 3 7.9 3.6 10.1z" clip-path="url(#aacSVGID_8_)"/></g><path id="aacpath52" d="M116.3 11.7c-2.9-2.9-34.9 7-54.9 25.4-5.3 4.9-9.2 9.7-11.3 16.8-2.2 7.7 2.2 12.7 6.7 17.3 4.5 4.6 9.6 9 17.3 6.7 7.1-2.1 11.9-6 16.8-11.3 18.5-20 28.3-52 25.4-54.9z" class="aacst0"/><circle id="aacellipse54" cx="-15.959" cy="102.1" r="6.2" fill="#2f2f2f" transform="rotate(-45)"/></svg><svg viewBox="0 0 128 128" id="1F99E" xmlns="http://www.w3.org/2000/svg"><g transform="rotate(-30 69.037 -31.294) scale(.34071)"><path fill="none" stroke="#a43100" stroke-linecap="round" stroke-linejoin="round" stroke-width="4" d="M52.925 44.01S-5.753 11.411-68.649 47.845"/><g stroke-linecap="round" stroke-linejoin="round" paint-order="stroke fill markers" transform="matrix(.8847 -.22762 -.17738 -.63566 39.566 271.772)"><ellipse cx="-5.105" cy="154.362" fill="#cb3d00" rx="22.373" ry="5.54" transform="rotate(21.352)"/><ellipse cx="-26.441" cy="147.661" fill="#b43600" rx="22.373" ry="7.458"/><ellipse cx="6.915" cy="147.661" fill="#ce3e00" rx="22.373" ry="7.458"/></g><g stroke-linecap="round" stroke-linejoin="round" paint-order="stroke fill markers" transform="translate(12.272 9.204)"><ellipse cx="-5.105" cy="154.362" fill="#cb3d00" rx="22.373" ry="5.54" transform="rotate(21.352)"/><ellipse cx="-26.441" cy="147.661" fill="#b43600" rx="22.373" ry="7.458"/><ellipse cx="6.915" cy="147.661" fill="#ce3e00" rx="22.373" ry="7.458"/></g><ellipse cx="51.295" cy="86.195" fill="#b43600" paint-order="stroke fill markers" rx="22.78" ry="7.729" transform="rotate(45)"/><ellipse cx="5.966" cy="110.508" fill="#cb3c00" paint-order="stroke fill markers" rx="22.78" ry="7.729"/><g stroke-width=".782" paint-order="stroke fill markers"><path fill="#992400" d="M-4.576 25.767c-9.94 17.218-29.825 24.348-19.778 30.148 10.046 5.8 29.134-1.79 39.075-19.007 9.94-17.217 9.854-35.877-.192-41.677C10.6-7.04 5.364 8.55-4.576 25.767z"/><path fill="#c52e00" d="M-16.482 33.81c-6.754 11.697 9.462 10.917-3.605 29.505-5.095 7.249-15.554 23.672-21.527 20.224-11.945-6.896-18.06-43.471-4.552-66.867C-32.658-6.725-9.936-18.894 2.01-11.998 7.54-8.804-2.975 10.413-16.482 33.81z"/></g><g stroke-linecap="round" stroke-linejoin="round" paint-order="stroke fill markers" transform="translate(0 -14.915)"><ellipse cx="-5.105" cy="154.362" fill="#cb3d00" rx="22.373" ry="5.54" transform="rotate(21.352)"/><ellipse cx="-26.441" cy="147.661" fill="#b43600" rx="22.373" ry="7.458"/><ellipse cx="6.915" cy="147.661" fill="#ce3e00" rx="22.373" ry="7.458"/></g></g><g transform="matrix(-.29507 .17036 .17036 .29507 62.675 8.514)"><path fill="none" stroke="#a43100" stroke-linecap="round" stroke-linejoin="round" stroke-width="4" d="M52.925 44.01S-5.753 11.411-68.649 47.845"/><g stroke-linecap="round" stroke-linejoin="round" paint-order="stroke fill markers" transform="matrix(.8847 -.22762 -.17738 -.63566 39.566 271.772)"><ellipse cx="-5.105" cy="154.362" fill="#cb3d00" rx="22.373" ry="5.54" transform="rotate(21.352)"/><ellipse cx="-26.441" cy="147.661" fill="#b43600" rx="22.373" ry="7.458"/><ellipse cx="6.915" cy="147.661" fill="#ce3e00" rx="22.373" ry="7.458"/></g><g stroke-linecap="round" stroke-linejoin="round" paint-order="stroke fill markers" transform="translate(12.272 9.204)"><ellipse cx="-5.105" cy="154.362" fill="#cb3d00" rx="22.373" ry="5.54" transform="rotate(21.352)"/><ellipse cx="-26.441" cy="147.661" fill="#b43600" rx="22.373" ry="7.458"/><ellipse cx="6.915" cy="147.661" fill="#ce3e00" rx="22.373" ry="7.458"/></g><ellipse cx="51.295" cy="86.195" fill="#b43600" paint-order="stroke fill markers" rx="22.78" ry="7.729" transform="rotate(45)"/><ellipse cx="5.966" cy="110.508" fill="#cb3c00" paint-order="stroke fill markers" rx="22.78" ry="7.729"/><g stroke-width=".782" paint-order="stroke fill markers"><path fill="#992400" d="M-4.576 25.767c-9.94 17.218-29.825 24.348-19.778 30.148 10.046 5.8 29.134-1.79 39.075-19.007 9.94-17.217 9.854-35.877-.192-41.677C10.6-7.04 5.364 8.55-4.576 25.767z"/><path fill="#c52e00" d="M-16.482 33.81c-6.754 11.697 9.462 10.917-3.605 29.505-5.095 7.249-15.554 23.672-21.527 20.224-11.945-6.896-18.06-43.471-4.552-66.867C-32.658-6.725-9.936-18.894 2.01-11.998 7.54-8.804-2.975 10.413-16.482 33.81z"/></g><g stroke-linecap="round" stroke-linejoin="round" paint-order="stroke fill markers" transform="translate(0 -14.915)"><ellipse cx="-5.105" cy="154.362" fill="#cb3d00" rx="22.373" ry="5.54" transform="rotate(21.352)"/><ellipse cx="-26.441" cy="147.661" fill="#b43600" rx="22.373" ry="7.458"/><ellipse cx="6.915" cy="147.661" fill="#ce3e00" rx="22.373" ry="7.458"/></g></g><path fill="#e34400" d="M87.313 67.82c-6.293-10.9-12.947-9.62-19.09-6.073-6.143 3.546-10.58 8.67-4.286 19.57 3.146 5.45 4.59 6.709 10.088 10.602 5.497 3.893 8.528 14.183 16.987 9.3 8.459-4.884 1.063-12.654.44-19.361-.623-6.708-.992-8.588-4.139-14.038z" paint-order="stroke fill markers"/><path fill="#e33b00" d="M78.553 50.177c6.82 11.812 3.867 19.89-3.178 23.957-7.046 4.068-15.517 2.586-22.337-9.226-6.819-11.811-9.404-29.479-2.358-33.547 7.046-4.068 21.054 7.005 27.873 18.816z" paint-order="stroke fill markers"/><path fill="#c52e00" d="M62.883 37.44c3.13 5.422.625 7.825-2.976 9.904-3.6 2.078-6.934 3.046-10.064-2.375-3.13-5.422-3.971-15.7-1.271-17.26 2.7-1.558 11.18 4.31 14.31 9.731z" paint-order="stroke fill markers"/><path fill="none" stroke="#272727" stroke-linecap="round" stroke-linejoin="round" stroke-width=".852" d="M48.976 38.367s.633-1.648 2.235-1.29m4.153-2.398s.633-1.648 2.235-1.29"/><path fill="none" stroke="#fff" stroke-linecap="round" stroke-opacity=".208" stroke-width="1.704" d="M68.484 84.005s6.101-9.39 18.804-10.857"/><path fill="none" stroke="#fff" stroke-linecap="round" stroke-opacity=".208" stroke-width="1.475" d="M72.118 87.388S77.4 79.256 88.4 77.986"/><path fill="none" stroke="#fff" stroke-linecap="round" stroke-opacity=".208" stroke-width="1.247" d="M76.028 91.251s4.466-6.873 13.764-7.946"/><path fill="#e34400" d="M115.139 103.96c3.644 6.31-6.615 8.066-15.07 12.947-8.454 4.881-15.103 12.888-18.747 6.576-3.644-6.31-2.902-24.55 5.552-29.43 8.455-4.882 24.621 3.595 28.265 9.906z" paint-order="stroke fill markers"/><path fill="none" stroke="#000" stroke-linecap="round" stroke-opacity=".377" stroke-width="1.363" d="M61.398 73.951s9.34-8.308 20.995-12.3"/></svg><svg style="fill-rule:evenodd;clip-rule:evenodd;stroke-linecap:round;stroke-linejoin:round;stroke-miterlimit:1.5" viewBox="0 0 128 128" xml:space="preserve" id="1F9AA" xmlns="http://www.w3.org/2000/svg"><path d="M10.715 43.305a.756.756 0 0 1 1.49.217c1.331 12.135 12.116 26.738 30.185 37.17a94.522 94.522 0 0 0 6.247 3.304c4.812 2.778 6.632 2.247 11.004 5.678 5.581 4.379 10.108 9.577 16 13.688 3.336 2.327 8.287 5.258 12.291 5.278.496.003.927-.025 1.302-.079a.81.81 0 0 1 .948.831c-.015 1.275-.805 2.16-3.525 2.147-4.004-.02-8.955-2.952-12.29-5.279-5.892-4.11-10.42-9.309-16-13.688-4.372-3.431-6.193-2.9-11.005-5.678a94.484 94.484 0 0 1-6.246-3.303C21.479 72.253 10.225 55.952 10.715 43.305zm90.028 54.837a.802.802 0 0 1 1.084.907l.01.003c-.746 3.555-7.34 1.887-11.081 2.88a.805.805 0 0 1-1.095-.944c.123-.401.317-.77.648-1.082 2.082-1.966 7.361-1.094 10.434-1.764zm15.081-18.217a.764.764 0 0 1 1.076.86c-.336 1.476-3.314 3.358-4.708 3.76-4.104 1.183-9.366.066-13.209 1.81a.806.806 0 0 1-1.141-.942c.15-.297.344-.594.672-.868 3.963-3.305 10.381-2.48 15.144-3.853a17.227 17.227 0 0 0 2.166-.767zm-1.425-24.533a.816.816 0 0 1 1.078.757c.001.131-.001.261-.009.391-.071 1.136-2.426 2.684-3.434 3.006-2.231.714-6.3.726-9 1.862a.742.742 0 0 1-.983-.383c-.096-.254-.149-.454-.071-.603 1.625-3.142 8.588-3.808 11.678-4.796.212-.067.468-.144.741-.234z" style="fill:#ed6c30"/><path d="M53.411 49.477h.001c5.19-1.374 9.138-5.741 14.609-6.842 4.722-.95 8.35 2.738 13.154 1.548 6.087-1.509 10.231-5.148 16.671-1.962 1.2.595 2.448 1.367 3.002 2.481.365.735-.697 1.787-1.211 2.353-1.574 1.732-5.835 3.895-5.717 6.444.036.776 4.121.914 4.908.971 3.497.252 10.637 1.214 11.735 4.765.322 1.043-1.084 2.628-1.81 3.382-2.48 2.576-6.731 3.242-8.015 6.736-.556 1.513 1.415 2.12 2.712 2.707 2.029.919 3.676 2.013 4.305 3.931.966 2.946-5.784 3.518-6.615 6.3-.837 2.798 6.707 4.478 1.856 7.246-2.509 1.432-7.119.544-10.043.293-5.164-.443-9.868-2.058-14.934-2.781-3.97-.566-4.916.422-8.925.422a68.04 68.04 0 0 1-5.094.19c-20.119 0-36.454-8.743-36.454-19.511 0-8.797 10.903-16.243 25.865-18.673z" style="fill:#f7dfe9" transform="rotate(30 141.703 14.667) scale(1.38607)"/><ellipse cx="64" cy="64" rx="36.454" ry="23.161" style="fill:#f8dc90" transform="matrix(1.03246 .59609 -.42157 .73019 13.964 -29.255)"/><circle cx="55.813" cy="56.899" r="7.101" style="fill:#a8e2f9" transform="rotate(30 135.508 -5.146) scale(1.38607)"/><path d="M50.012 55.959c1.346.39 2.336 1.149 2.97 2.416" style="fill:none;stroke:#fff;stroke-width:.72px" transform="rotate(30 142.356 16.13) scale(1.38607)"/></svg></svg>