<?xml version="1.0" encoding="utf-8"?><svg viewBox="0 0 128 128" xmlns="http://www.w3.org/2000/svg" xmlns:xlink="http://www.w3.org/1999/xlink"><style>:root>svg{display:none}:root>svg:target{display:block}</style><svg viewBox="0 0 128 128" id="2640" xmlns="http://www.w3.org/2000/svg"><g fill="#fcc21b"><path d="M71.926 83.696v40.31h-16.86v-40.31z"/><path d="M83.65 111.532H43.34v-16.86h40.31zM63.5 4.68c-22.57 0-40.87 18.3-40.87 40.87 0 22.57 18.3 40.87 40.87 40.87s40.87-18.3 40.87-40.87c0-22.57-18.3-40.87-40.87-40.87zm0 64.89c-13.26 0-24.02-10.75-24.02-24.02 0-13.26 10.75-24.02 24.02-24.02s24.02 10.75 24.02 24.02c0 13.26-10.76 24.02-24.02 24.02z"/></g></svg><svg viewBox="0 0 128 128" id="2642" xmlns="http://www.w3.org/2000/svg"><g fill="#fcc21b"><path d="M119.175 9.018v41.26h-16.42V9.018z"/><path d="M119.278 25.432h-41.26V9.012h41.26z"/><path d="M110.389 29.414L78.873 60.93l-11.61-11.61 31.515-31.516z"/><path d="M77.49 50.7c-15.96-15.96-41.84-15.96-57.8 0-15.96 15.96-15.96 41.84 0 57.8s41.84 15.96 57.8 0c15.96-15.96 15.96-41.84 0-57.8zM31.61 96.58c-9.38-9.38-9.38-24.58 0-33.96 9.38-9.38 24.58-9.38 33.96 0s9.38 24.58 0 33.96c-9.37 9.38-24.58 9.38-33.96 0z"/></g></svg></svg>