<?xml version="1.0" encoding="utf-8"?><svg viewBox="0 0 128 128" xmlns="http://www.w3.org/2000/svg" xmlns:xlink="http://www.w3.org/1999/xlink"><style>:root>svg{display:none}:root>svg:target{display:block}</style><svg viewBox="0 0 128 128" id="0023-FE0F-20E3" xmlns="http://www.w3.org/2000/svg"><path fill="#1bb7fc" d="M116 128H12c-6.6 0-12-5.4-12-12V12C0 5.4 5.4 0 12 0h104c6.6 0 12 5.4 12 12v104c0 6.6-5.4 12-12 12z"/><path fill="#1b79fc" d="M124.48 3.52 3.52 124.48C5.7 126.65 8.7 128 12 128h104c6.6 0 12-5.4 12-12V12c0-3.3-1.35-6.3-3.52-8.48z"/><path fill="#1ba2fc" d="M112 101c0 6.63-5.37 12-12 12H27.89c-6.6 0-12-5.4-12-12V28.9c0-6.6 5.4-12 12-12H100c6.63 0 12 5.37 12 12z"/><text x="65.515" y="99.243" fill="#fff" stroke-width="1.102" font-family="Playfair Display" font-size="20.579" font-weight="400" letter-spacing="0" style="line-height:1.25;-inkscape-font-specification:'Playfair Display';font-variant-ligatures:normal;font-variant-caps:normal;font-variant-numeric:normal;font-feature-settings:normal;text-align:center" text-anchor="middle" word-spacing="0"><tspan x="65.515" y="99.243" font-family="Comic Neue" font-size="105.834" font-weight="700" style="-inkscape-font-specification:'Comic Neue Bold';text-align:center">#</tspan></text></svg><svg viewBox="0 0 128 128" id="002A-FE0F-20E3" xmlns="http://www.w3.org/2000/svg"><path fill="#1bb7fc" d="M116 128H12c-6.6 0-12-5.4-12-12V12C0 5.4 5.4 0 12 0h104c6.6 0 12 5.4 12 12v104c0 6.6-5.4 12-12 12z"/><path fill="#1b79fc" d="M124.48 3.52 3.52 124.48C5.7 126.65 8.7 128 12 128h104c6.6 0 12-5.4 12-12V12c0-3.3-1.35-6.3-3.52-8.48z"/><path fill="#1ba2fc" d="M112 101c0 6.63-5.37 12-12 12H27.89c-6.6 0-12-5.4-12-12V28.9c0-6.6 5.4-12 12-12H100c6.63 0 12 5.37 12 12z"/><text x="66.323" y="185.926" fill="#fff" stroke-width="2.324" font-family="Playfair Display" font-size="43.381" font-weight="400" letter-spacing="0" style="line-height:1.25;-inkscape-font-specification:'Playfair Display';font-variant-ligatures:normal;font-variant-caps:normal;font-variant-numeric:normal;font-feature-settings:normal;text-align:center" text-anchor="middle" word-spacing="0"><tspan x="66.323" y="185.926" font-family="Comic Neue" font-size="223.104" font-weight="700" style="-inkscape-font-specification:'Comic Neue Bold';text-align:center">*</tspan></text></svg><svg viewBox="0 0 128 128" id="0030-FE0F-20E3" xmlns="http://www.w3.org/2000/svg"><path fill="#1bb7fc" d="M116 128H12c-6.6 0-12-5.4-12-12V12C0 5.4 5.4 0 12 0h104c6.6 0 12 5.4 12 12v104c0 6.6-5.4 12-12 12z"/><path fill="#1b79fc" d="M124.48 3.52 3.52 124.48C5.7 126.65 8.7 128 12 128h104c6.6 0 12-5.4 12-12V12c0-3.3-1.35-6.3-3.52-8.48z"/><path fill="#1ba2fc" d="M112 101c0 6.63-5.37 12-12 12H27.89c-6.6 0-12-5.4-12-12V28.9c0-6.6 5.4-12 12-12H100c6.63 0 12 5.37 12 12z"/><text x="65.201" y="99.084" fill="#fff" stroke-width="1.102" font-family="Playfair Display" font-size="20.579" font-weight="400" letter-spacing="0" style="line-height:1.25;-inkscape-font-specification:'Playfair Display';font-variant-ligatures:normal;font-variant-caps:normal;font-variant-numeric:normal;font-feature-settings:normal;text-align:center" text-anchor="middle" word-spacing="0"><tspan x="65.201" y="99.084" font-family="Comic Neue" font-size="105.834" font-weight="700" style="-inkscape-font-specification:'Comic Neue Bold';text-align:center">0</tspan></text></svg><svg viewBox="0 0 128 128" id="0031-FE0F-20E3" xmlns="http://www.w3.org/2000/svg"><path fill="#1bb7fc" d="M116 128H12c-6.6 0-12-5.4-12-12V12C0 5.4 5.4 0 12 0h104c6.6 0 12 5.4 12 12v104c0 6.6-5.4 12-12 12z"/><path fill="#1b79fc" d="M124.48 3.52 3.52 124.48C5.7 126.65 8.7 128 12 128h104c6.6 0 12-5.4 12-12V12c0-3.3-1.35-6.3-3.52-8.48z"/><path fill="#1ba2fc" d="M112 101c0 6.63-5.37 12-12 12H27.89c-6.6 0-12-5.4-12-12V28.9c0-6.6 5.4-12 12-12H100c6.63 0 12 5.37 12 12z"/><text x="65.201" y="99.084" fill="#fff" stroke-width="1.102" font-family="Playfair Display" font-size="20.579" font-weight="400" letter-spacing="0" style="line-height:1.25;-inkscape-font-specification:'Playfair Display';font-variant-ligatures:normal;font-variant-caps:normal;font-variant-numeric:normal;font-feature-settings:normal;text-align:center" text-anchor="middle" word-spacing="0"><tspan x="65.201" y="99.084" font-family="Comic Neue" font-size="105.834" font-weight="700" style="-inkscape-font-specification:'Comic Neue Bold';text-align:center">1</tspan></text></svg><svg viewBox="0 0 128 128" id="0032-FE0F-20E3" xmlns="http://www.w3.org/2000/svg"><path fill="#1bb7fc" d="M116 128H12c-6.6 0-12-5.4-12-12V12C0 5.4 5.4 0 12 0h104c6.6 0 12 5.4 12 12v104c0 6.6-5.4 12-12 12z"/><path fill="#1b79fc" d="M124.48 3.52 3.52 124.48C5.7 126.65 8.7 128 12 128h104c6.6 0 12-5.4 12-12V12c0-3.3-1.35-6.3-3.52-8.48z"/><path fill="#1ba2fc" d="M112 101c0 6.63-5.37 12-12 12H27.89c-6.6 0-12-5.4-12-12V28.9c0-6.6 5.4-12 12-12H100c6.63 0 12 5.37 12 12z"/><text x="65.201" y="99.084" fill="#fff" stroke-width="1.102" font-family="Playfair Display" font-size="20.579" font-weight="400" letter-spacing="0" style="line-height:1.25;-inkscape-font-specification:'Playfair Display';font-variant-ligatures:normal;font-variant-caps:normal;font-variant-numeric:normal;font-feature-settings:normal;text-align:center" text-anchor="middle" word-spacing="0"><tspan x="65.201" y="99.084" font-family="Comic Neue" font-size="105.834" font-weight="700" style="-inkscape-font-specification:'Comic Neue Bold';text-align:center">2</tspan></text></svg><svg viewBox="0 0 128 128" id="0033-FE0F-20E3" xmlns="http://www.w3.org/2000/svg"><path fill="#1bb7fc" d="M116 128H12c-6.6 0-12-5.4-12-12V12C0 5.4 5.4 0 12 0h104c6.6 0 12 5.4 12 12v104c0 6.6-5.4 12-12 12z"/><path fill="#1b79fc" d="M124.48 3.52 3.52 124.48C5.7 126.65 8.7 128 12 128h104c6.6 0 12-5.4 12-12V12c0-3.3-1.35-6.3-3.52-8.48z"/><path fill="#1ba2fc" d="M112 101c0 6.63-5.37 12-12 12H27.89c-6.6 0-12-5.4-12-12V28.9c0-6.6 5.4-12 12-12H100c6.63 0 12 5.37 12 12z"/><text x="65.201" y="99.084" fill="#fff" stroke-width="1.102" font-family="Playfair Display" font-size="20.579" font-weight="400" letter-spacing="0" style="line-height:1.25;-inkscape-font-specification:'Playfair Display';font-variant-ligatures:normal;font-variant-caps:normal;font-variant-numeric:normal;font-feature-settings:normal;text-align:center" text-anchor="middle" word-spacing="0"><tspan x="65.201" y="99.084" font-family="Comic Neue" font-size="105.834" font-weight="700" style="-inkscape-font-specification:'Comic Neue Bold';text-align:center">3</tspan></text></svg><svg viewBox="0 0 128 128" id="0034-FE0F-20E3" xmlns="http://www.w3.org/2000/svg"><path fill="#fff" d="M92.92 73.42H80.09V26.4c0-.18-.05-.33-.12-.47 0-.01 0-.03-.01-.04-.01-.02-.04-.04-.05-.06-.08-.11-.17-.21-.28-.29-.04-.03-.07-.06-.11-.08-.15-.08-.32-.13-.5-.13H62.64c-.17 0-.32.05-.47.12-.04.02-.08.05-.12.08-.1.07-.18.14-.26.24-.02.02-.05.03-.06.06l-31.18 48.1c-.01.02-.01.05-.02.07-.07.13-.12.27-.14.42 0 .02-.01.05-.01.08v13.18c0 .6.48 1.08 1.07 1.08h30.09v13.17c0 .6.49 1.08 1.09 1.08H79c.6 0 1.08-.48 1.08-1.08V88.75h12.83c.59 0 1.08-.48 1.08-1.08V74.5c.01-.59-.48-1.08-1.07-1.08zM61.55 55.31v18.11H49.82l11.73-18.11z"/></svg><svg viewBox="0 0 128 128" id="0035-FE0F-20E3" xmlns="http://www.w3.org/2000/svg"><path fill="#1bb7fc" d="M116 128H12c-6.6 0-12-5.4-12-12V12C0 5.4 5.4 0 12 0h104c6.6 0 12 5.4 12 12v104c0 6.6-5.4 12-12 12z"/><path fill="#1b79fc" d="M124.48 3.52 3.52 124.48C5.7 126.65 8.7 128 12 128h104c6.6 0 12-5.4 12-12V12c0-3.3-1.35-6.3-3.52-8.48z"/><path fill="#1ba2fc" d="M112 101c0 6.63-5.37 12-12 12H27.89c-6.6 0-12-5.4-12-12V28.9c0-6.6 5.4-12 12-12H100c6.63 0 12 5.37 12 12z"/><text x="65.201" y="99.084" fill="#fff" stroke-width="1.102" font-family="Playfair Display" font-size="20.579" font-weight="400" letter-spacing="0" style="line-height:1.25;-inkscape-font-specification:'Playfair Display';font-variant-ligatures:normal;font-variant-caps:normal;font-variant-numeric:normal;font-feature-settings:normal;text-align:center" text-anchor="middle" word-spacing="0"><tspan x="65.201" y="99.084" font-family="Comic Neue" font-size="105.834" font-weight="700" style="-inkscape-font-specification:'Comic Neue Bold';text-align:center">5</tspan></text></svg><svg viewBox="0 0 128 128" id="0036-FE0F-20E3" xmlns="http://www.w3.org/2000/svg"><path fill="#fff" d="M33.58 81.24c.04.34.1.67.15 1.01.05.33.09.65.15.99l.06.29c.07.36.15.73.23 1.08.1.43.22.85.34 1.27C37.87 97.29 49.06 105 63.61 105h.03c17.46-.01 30.14-11.12 30.14-26.43S81.09 52.14 63.62 52.14c-2.22 0-4.37.18-6.42.53 6.71-11.7 17.03-18.38 17.13-18.45.28-.17.45-.45.48-.75.03-.31-.08-.62-.29-.84l-10.07-10.3c-.32-.32-.81-.4-1.21-.2-.55.28-13.55 7.02-22.22 22.24-4.39 7.67-9.81 19.77-7.44 36.87zm30.03-13.88c6.86 0 11.85 4.71 11.85 11.2 0 6.49-4.99 11.2-11.85 11.2-6.87 0-11.85-4.71-11.85-11.2 0-6.49 4.98-11.2 11.85-11.2z"/></svg><svg viewBox="0 0 128 128" id="0037-FE0F-20E3" xmlns="http://www.w3.org/2000/svg"><path fill="#1bb7fc" d="M116 128H12c-6.6 0-12-5.4-12-12V12C0 5.4 5.4 0 12 0h104c6.6 0 12 5.4 12 12v104c0 6.6-5.4 12-12 12z"/><path fill="#1b79fc" d="M124.48 3.52 3.52 124.48C5.7 126.65 8.7 128 12 128h104c6.6 0 12-5.4 12-12V12c0-3.3-1.35-6.3-3.52-8.48z"/><path fill="#1ba2fc" d="M112 101c0 6.63-5.37 12-12 12H27.89c-6.6 0-12-5.4-12-12V28.9c0-6.6 5.4-12 12-12H100c6.63 0 12 5.37 12 12z"/><text x="65.201" y="99.084" fill="#fff" stroke-width="1.102" font-family="Playfair Display" font-size="20.579" font-weight="400" letter-spacing="0" style="line-height:1.25;-inkscape-font-specification:'Playfair Display';font-variant-ligatures:normal;font-variant-caps:normal;font-variant-numeric:normal;font-feature-settings:normal;text-align:center" text-anchor="middle" word-spacing="0"><tspan x="65.201" y="99.084" font-family="Comic Neue" font-size="105.834" font-weight="700" style="-inkscape-font-specification:'Comic Neue Bold';text-align:center">7</tspan></text></svg><svg viewBox="0 0 128 128" id="0038-FE0F-20E3" xmlns="http://www.w3.org/2000/svg"><path fill="#1bb7fc" d="M116 128H12c-6.6 0-12-5.4-12-12V12C0 5.4 5.4 0 12 0h104c6.6 0 12 5.4 12 12v104c0 6.6-5.4 12-12 12z"/><path fill="#1b79fc" d="M124.48 3.52 3.52 124.48C5.7 126.65 8.7 128 12 128h104c6.6 0 12-5.4 12-12V12c0-3.3-1.35-6.3-3.52-8.48z"/><path fill="#1ba2fc" d="M112 101c0 6.63-5.37 12-12 12H27.89c-6.6 0-12-5.4-12-12V28.9c0-6.6 5.4-12 12-12H100c6.63 0 12 5.37 12 12z"/><text x="65.201" y="99.084" fill="#fff" stroke-width="1.102" font-family="Playfair Display" font-size="20.579" font-weight="400" letter-spacing="0" style="line-height:1.25;-inkscape-font-specification:'Playfair Display';font-variant-ligatures:normal;font-variant-caps:normal;font-variant-numeric:normal;font-feature-settings:normal;text-align:center" text-anchor="middle" word-spacing="0"><tspan x="65.201" y="99.084" font-family="Comic Neue" font-size="105.834" font-weight="700" style="-inkscape-font-specification:'Comic Neue Bold';text-align:center">8</tspan></text></svg><svg viewBox="0 0 128 128" id="0039-FE0F-20E3" xmlns="http://www.w3.org/2000/svg"><path fill="#1bb7fc" d="M116 128H12c-6.6 0-12-5.4-12-12V12C0 5.4 5.4 0 12 0h104c6.6 0 12 5.4 12 12v104c0 6.6-5.4 12-12 12z"/><path fill="#1b79fc" d="M124.48 3.52 3.52 124.48C5.7 126.65 8.7 128 12 128h104c6.6 0 12-5.4 12-12V12c0-3.3-1.35-6.3-3.52-8.48z"/><path fill="#1ba2fc" d="M112 101c0 6.63-5.37 12-12 12H27.89c-6.6 0-12-5.4-12-12V28.9c0-6.6 5.4-12 12-12H100c6.63 0 12 5.37 12 12z"/><text x="65.201" y="99.084" fill="#fff" stroke-width="1.102" font-family="Playfair Display" font-size="20.579" font-weight="400" letter-spacing="0" style="line-height:1.25;-inkscape-font-specification:'Playfair Display';font-variant-ligatures:normal;font-variant-caps:normal;font-variant-numeric:normal;font-feature-settings:normal;text-align:center" text-anchor="middle" word-spacing="0"><tspan x="65.201" y="99.084" font-family="Comic Neue" font-size="105.834" font-weight="700" style="-inkscape-font-specification:'Comic Neue Bold';text-align:center">9</tspan></text></svg><svg viewBox="0 0 128 128" id="1F51F" xmlns="http://www.w3.org/2000/svg"><path fill="#1bb7fc" d="M116 128H12c-6.6 0-12-5.4-12-12V12C0 5.4 5.4 0 12 0h104c6.6 0 12 5.4 12 12v104c0 6.6-5.4 12-12 12z"/><path fill="#1b79fc" d="M124.48 3.52 3.52 124.48C5.7 126.65 8.7 128 12 128h104c6.6 0 12-5.4 12-12V12c0-3.3-1.35-6.3-3.52-8.48z"/><path fill="#1ba2fc" d="M112 101c0 6.63-5.37 12-12 12H27.89c-6.6 0-12-5.4-12-12V28.9c0-6.6 5.4-12 12-12H100c6.63 0 12 5.37 12 12z"/><text x="21.137" y="94.66" font-size="17.903" font-weight="400" letter-spacing="0" style="font-weight:400;font-size:17.90299988px;line-height:1.25;font-family:'Playfair Display';-inkscape-font-specification:'Playfair Display';font-variant-ligatures:normal;font-variant-caps:normal;font-variant-numeric:normal;font-feature-settings:normal;text-align:center;letter-spacing:0;word-spacing:0;text-anchor:middle;fill:#fff;stroke-width:.95899999" word-spacing="0">
    <tspan x="21.137" y="94.66" font-size="92.073" font-weight="700" letter-spacing="-9.08" style="font-weight:700;font-size:92.07299805px;font-family:'Comic Neue';-inkscape-font-specification:'Comic Neue Bold';text-align:start;letter-spacing:-9.07999992;text-anchor:start">1</tspan>
  </text><text x="51.619" y="94.66" font-size="17.903" font-weight="400" letter-spacing="0" style="font-weight:400;font-size:17.90299988px;line-height:1.25;font-family:'Playfair Display';-inkscape-font-specification:'Playfair Display';font-variant-ligatures:normal;font-variant-caps:normal;font-variant-numeric:normal;font-feature-settings:normal;text-align:center;letter-spacing:0;word-spacing:0;text-anchor:middle;fill:#fff;stroke-width:.95899999" word-spacing="0">
    <tspan x="51.619" y="94.66" font-size="92.073" font-weight="700" letter-spacing="-9.08" style="font-weight:700;font-size:92.07299805px;font-family:'Comic Neue';-inkscape-font-specification:'Comic Neue Bold';text-align:start;letter-spacing:-9.07999992;text-anchor:start">0</tspan>
  </text></svg></svg>