<?xml version="1.0" encoding="utf-8"?><svg viewBox="0 0 128 128" xmlns="http://www.w3.org/2000/svg" xmlns:xlink="http://www.w3.org/1999/xlink"><style>:root>svg{display:none}:root>svg:target{display:block}</style><svg viewBox="0 0 128 128" id="1F50F" xmlns="http://www.w3.org/2000/svg"><path fill="#78a3ad" d="M27.87 65.05c0-6.97 5.67-12.64 12.64-12.64 6.98 0 12.65 5.67 12.65 12.64V78.4h12.52V65.05c0-13.87-11.29-25.16-25.17-25.16-13.87 0-25.16 11.29-25.16 25.16V78.4h12.52V65.05z"/><defs><path id="aaaa" d="M53.16 78.4v.16H27.87v-.16H15.35v.16h-1.58c-2.99 0-5.41 2.42-5.41 5.4v36.98c0 2.99 2.42 5.41 5.41 5.41h53.49c2.99 0 5.41-2.42 5.41-5.41V83.97c0-2.99-2.42-5.4-5.41-5.4h-1.58v-.17H53.16z"/></defs><use fill="#fcc21b" overflow="visible" xlink:href="#aaaa"/><path fill="#2f2f2f" d="M46.23 98.91c0-3.15-2.56-5.71-5.71-5.71-3.16 0-5.71 2.56-5.71 5.71a5.7 5.7 0 0 0 3.56 5.29l-.12.54-1.84 7.86h8.23l-1.84-7.86-.12-.54c2.07-.86 3.55-2.9 3.55-5.29z"/><path fill="#fff" d="M96.57 117.4c2.06 2.57 5.38 7.7 5.41 7.75.4.64 1.46.64 1.87 0 .04-.05 3.35-5.18 5.41-7.75 3.67-4.61 9.5-14.34 8.07-21.59-1.03-5.25-2.63-7.35-3.92-9.03-1.09-1.43-1.89-2.46-2.13-5.13a1.11 1.11 0 0 0-1.11-1.01H95.66c-.58 0-1.06.44-1.11 1.01-.25 2.67-1.04 3.7-2.13 5.12-1.29 1.68-2.89 3.78-3.92 9.03-1.43 7.26 4.4 16.99 8.07 21.6z"/><path fill="#2f2f2f" d="M102.91 127.72c-1.11 0-2.12-.54-2.69-1.44-.03-.05-3.29-5.09-5.28-7.57-1.08-1.35-10.43-13.47-8.5-23.3 1.13-5.76 2.97-8.16 4.32-9.9 1.01-1.31 1.51-1.97 1.71-4.05a3.197 3.197 0 0 1 3.19-2.91h14.51c1.64 0 3.02 1.24 3.18 2.88.2 2.09.7 2.75 1.71 4.07 1.35 1.77 3.19 4.18 4.31 9.9 1.93 9.85-7.42 21.95-8.49 23.29-1.16 1.45-3 4.1-5.19 7.45-.02.03-.13.2-.16.23-.51.81-1.52 1.35-2.62 1.35zm-6.39-44.99c-.41 2.66-1.4 3.95-2.44 5.32-1.22 1.58-2.59 3.37-3.53 8.16-1.28 6.51 4.45 15.86 7.66 19.89 1.47 1.84 3.56 4.94 4.71 6.67 1.42-2.14 3.33-4.95 4.7-6.68 3.21-4.03 8.94-13.37 7.66-19.89-.94-4.76-2.31-6.56-3.52-8.15-1.06-1.38-2.05-2.67-2.45-5.33H96.52z"/><path fill="#fcc21b" d="M96.81 116.8c1.98 2.46 5.17 7.37 5.2 7.42.39.61 1.41.61 1.8 0 .04-.05 3.23-4.96 5.2-7.43 3.53-4.41 9.13-13.73 7.77-20.68-1-5.03-2.53-7.03-3.77-8.64-1.05-1.37-1.81-2.35-2.05-4.91-.06-.55-.51-.97-1.06-.97H95.94c-.55 0-1.02.42-1.07.97-.25 2.56-1 3.54-2.05 4.91-1.24 1.61-2.78 3.62-3.77 8.65-1.37 6.94 4.24 16.26 7.76 20.68z"/><path fill="#2f2f2f" d="M107.72 84.69c.6 2.11 1.58 3.39 2.48 4.56 1.14 1.49 2.31 3.02 3.15 7.34 1.06 5.39-3.76 13.89-7.27 18.29-.93 1.17-2.09 2.81-3.17 4.39-1.04-1.52-2.22-3.18-3.18-4.38-3.5-4.4-8.33-12.91-7.27-18.29.85-4.34 2.02-5.86 3.16-7.34.89-1.16 1.87-2.44 2.47-4.55h9.63m2.45-4.07H95.66c-.58 0-1.06.44-1.11 1.01-.25 2.67-1.04 3.7-2.13 5.12-1.29 1.68-2.89 3.78-3.92 9.03-1.42 7.25 4.41 16.98 8.08 21.59 2.06 2.57 5.38 7.7 5.41 7.75.2.32.57.48.93.48.37 0 .73-.16.94-.48.04-.05 3.35-5.18 5.41-7.75 3.67-4.61 9.5-14.34 8.07-21.59-1.03-5.25-2.63-7.35-3.92-9.03-1.09-1.43-1.89-2.46-2.13-5.13-.07-.56-.55-1-1.12-1z"/><path fill="#2f2f2f" d="M98.69 100.08c0-2.34 1.89-4.23 4.22-4.23 2.34 0 4.24 1.89 4.24 4.23 0 2.33-1.89 4.23-4.23 4.23a4.238 4.238 0 0 1-4.23-4.23z"/><path fill="#2f2f2f" d="M101.41 102.62v21.67c.34.52.55.84.57.86.4.64 1.46.64 1.87 0 .01-.02.22-.34.57-.86v-21.67h-3.01z"/><g fill="#2f2f2f"><path d="M90.51 85.01c.01-1.37 5.56-2.49 12.4-2.48 6.85 0 12.4 1.11 12.4 2.48 0 1.37-5.55 2.48-12.39 2.48-6.85-.01-12.41-1.11-12.41-2.48z"/><path d="M90.52 53.21h24.79v31.8h-24.8z"/></g><defs><path id="aaab" d="M102.92 60.87c7.69 0 13.92-1.25 13.92-2.79V28.37c0-12.95-3.36-28.09-13.93-28.09-10.56 0-13.92 14.89-13.92 28.09v29.72c0 1.53 6.25 2.78 13.93 2.78z"/></defs><use fill="#2f2f2f" overflow="visible" xlink:href="#aaab"/><clipPath id="aaac"><use overflow="visible" xlink:href="#aaab"/></clipPath><g clip-path="url(#aaac)"><defs><path id="aaad" d="M111.12 49.15V14.73c3.46-.51 5.72-1.32 5.72-2.24V7.86c0 1.07-3.01 2-7.43 2.46l-2.51.2c-1.26.08-2.6.12-3.99.12-7.69 0-13.93-1.25-13.93-2.79v4.63c0 1.53 6.24 2.78 13.92 2.78.57 0 1.13-.01 1.68-.02v34.42c-.55.02-1.11.02-1.68.02-7.69 0-13.93-1.25-13.93-2.79v4.62c0 1.55 6.24 2.79 13.92 2.79.57 0 1.13-.01 1.69-.02v5.89l6.53-.53v-5.88c3.46-.51 5.71-1.32 5.71-2.25v-4.63c.02.95-2.24 1.77-5.7 2.27z"/></defs><use fill="#fcc21b" overflow="visible" xlink:href="#aaad"/></g></svg><svg viewBox="0 0 128 128" id="1F510" xmlns="http://www.w3.org/2000/svg"><path fill="#78a3ad" d="M24.84 48.9c0-6.98 5.67-12.65 12.64-12.65 6.97 0 12.65 5.67 12.65 12.65v13.35h12.52V48.9c0-13.88-11.29-25.17-25.17-25.17S12.31 35.02 12.31 48.9v13.35h12.52V48.9z"/><defs><path id="aaba" d="M50.13 62.26v.15H24.84v-.15H12.31v.15h-1.58c-2.99 0-5.41 2.42-5.41 5.4v36.98c0 2.98 2.42 5.41 5.41 5.41h53.49c2.99 0 5.41-2.42 5.41-5.41V67.81c0-2.98-2.42-5.4-5.41-5.4h-1.58v-.15H50.13z"/></defs><use fill="#fcc21b" overflow="visible" xlink:href="#aaba"/><path fill="#2f2f2f" d="M43.19 82.76c0-3.15-2.56-5.71-5.71-5.71s-5.71 2.55-5.71 5.71c0 2.39 1.48 4.44 3.57 5.28l-.13.54-1.84 7.87h8.23l-1.84-7.87-.12-.54a5.683 5.683 0 0 0 3.55-5.28z"/><path fill="#fcc21b" d="M104.77 62.39c3.79-1.21 7.37-3.3 10.38-6.31 10.03-10.03 10.03-26.3 0-36.33-10.03-10.03-26.3-10.03-36.33 0-10.03 10.03-10.03 26.3 0 36.33 3.01 3.01 6.59 5.1 10.38 6.31v19.64l5.19 5.2-5.19 5.19 5.19 5.19-5.19 5.19v5.19l7.79 7.79 7.79-7.79v-45.6zM91.79 32.72c-2.86-2.86-2.86-7.51 0-10.38 2.86-2.87 7.51-2.87 10.38 0 2.87 2.87 2.87 7.52 0 10.38a7.333 7.333 0 0 1-10.38 0z"/></svg><svg viewBox="0 0 128 128" id="1F511" xmlns="http://www.w3.org/2000/svg"><path fill="#fcc21b" d="M68.53 76.78c5.56 2.87 11.86 4.53 18.55 4.53 22.3 0 40.38-18.08 40.38-40.38 0-22.3-18.08-40.38-40.38-40.38-22.3 0-40.39 18.08-40.39 40.38 0 6.69 1.65 12.99 4.53 18.54L29.39 81.3v11.54H17.85v11.53H6.3l-5.77 5.78v17.31h17.31l50.69-50.68zm18.55-47.4c0-6.37 5.16-11.54 11.54-11.54 6.37 0 11.53 5.16 11.53 11.54 0 6.38-5.16 11.54-11.53 11.54-6.38 0-11.54-5.16-11.54-11.54z"/></svg><svg viewBox="0 0 128 128" id="1F512" xmlns="http://www.w3.org/2000/svg"><path fill="#fcc21b" d="M30.78 86.03s8.45 25.44 13.26 30.87c3.4 3.83 8.67 8.16 22.46 5.26 0 0 10.77-1.2 24.12-11.46 0 0 8.1-5.22 8.94-15.38.64-7.64.85-36.45.85-36.45s-1.27-7.18-12.87-7.18c-11.61 0-27.7 7.59-39.87 14.73-12.18 7.15-16.89 19.61-16.89 19.61z"/><path fill="#fff" d="M42.66 69.53c10.96-7.12 20.89-11.26 27.53-14.08 0 0 15.9-7.12 24.62-1.76 0 0 10.39 7.65-8.02 19.37-18.25 11.61-30.4 16-30.4 16s-15.71 6.32-22.11-2.52c-4-5.55.91-12.16 8.38-17.01z"/><path fill="#fcc21b" d="M45.19 93.97c-5.81 0-10.34-2.01-13.1-5.83-1.67-2.31-2.29-4.98-1.78-7.72.83-4.47 4.69-9.15 10.86-13.16 10.92-7.1 20.89-11.31 27.5-14.11l.46-.2c.31-.14 8.97-3.97 17.39-3.97 3.86 0 7.13.81 9.72 2.4.07.04.13.08.19.13 1.56 1.15 4.16 4.22 4.02 8.45-.17 5.18-4.28 10.37-12.19 15.4C69.96 87 57.83 91.44 57.32 91.62c-.15.06-5.9 2.35-12.13 2.35zm41.33-39.55c-7.24 0-15.14 3.48-15.22 3.52l-.51.22c-6.43 2.71-16.14 6.82-26.65 13.65-4.78 3.1-7.94 6.69-8.48 9.59-.24 1.3.02 2.42.84 3.54 1.72 2.38 4.64 3.59 8.69 3.59 5.19 0 10.15-1.97 10.2-1.98.21-.08 12.21-4.49 29.95-15.78 6.13-3.9 9.57-7.81 9.68-10.99.07-2.14-1.44-3.56-1.75-3.84-1.72-1.01-3.99-1.52-6.75-1.52z"/><path fill="#78a3ad" d="M51.32 82.65c-4.93 2.68-8.07.83-10.14-1.25-2.09-2.09-9.32-13.11-11.88-22.14-4.39-15.42-1.66-36.24 21.52-46.29 34.45-14.92 40.44 15.2 40.61 24.36.15 8.13-1.01 20.8-1.56 23.06-.39 1.59-.59 3.56-4.51 5.2-1.96.82-5.75.19-7.02-1.7-2.92-4.35 6.72-48.19-21.08-34.55-25.48 12.5-3.42 45.87-3.42 45.87s2.43 4.75-2.52 7.44z"/><path fill="#2f2f2f" d="M81.3 91.36c-1.17-2.23-4.84-2.29-8.2-.13-3.35 2.16-5.11 5.72-3.94 7.95.8 1.53 2.78 2.01 5.01 1.49l-.93 6.96 7.48-3.91-2.63-4.96c2.85-2.17 4.29-5.34 3.21-7.4z"/></svg><svg viewBox="0 0 128 128" id="1F513" xmlns="http://www.w3.org/2000/svg"><path fill="#fcc21b" d="M11.85 90.13S20.3 115.57 25.11 121c3.4 3.83 8.68 8.16 22.46 5.26 0 0 10.76-1.2 24.12-11.46 0 0 8.09-5.23 8.94-15.38.64-7.64.85-36.45.85-36.45s-1.27-7.19-12.88-7.19c-11.6 0-27.69 7.6-39.87 14.73-12.17 7.16-16.88 19.62-16.88 19.62z"/><path fill="#fff" d="M23.72 73.63c10.96-7.13 20.89-11.27 27.53-14.08 0 0 15.9-7.12 24.62-1.76 0 0 10.39 7.65-8.02 19.37-18.25 11.61-30.39 16-30.39 16s-15.71 6.31-22.11-2.53c-4.01-5.54.9-12.15 8.37-17z"/><path fill="#fcc21b" d="M26.25 98.06c-5.8 0-10.33-2.02-13.1-5.84-1.67-2.31-2.29-4.98-1.78-7.72.83-4.47 4.69-9.15 10.87-13.16 10.91-7.1 20.89-11.32 27.5-14.11l.46-.2c.31-.14 8.97-3.97 17.39-3.97 3.86 0 7.13.81 9.72 2.41.06.04.13.08.19.13 1.56 1.15 4.16 4.22 4.02 8.45-.17 5.18-4.27 10.36-12.19 15.4C51.02 91.1 38.9 95.54 38.39 95.72c-.15.06-5.91 2.34-12.14 2.34zm41.33-39.55c-7.23 0-15.14 3.49-15.21 3.52l-.52.22c-6.43 2.72-16.14 6.83-26.65 13.66-4.77 3.1-7.94 6.69-8.48 9.59-.24 1.3.02 2.42.83 3.54 1.73 2.38 4.64 3.59 8.69 3.59 5.19 0 10.15-1.97 10.2-1.98.21-.08 12.21-4.49 29.95-15.77 6.13-3.9 9.57-7.81 9.68-11 .07-2.14-1.44-3.56-1.75-3.83-1.71-1.03-3.97-1.54-6.74-1.54z"/><path fill="#2f2f2f" d="M62.36 95.45c-1.17-2.23-4.84-2.29-8.19-.13-3.35 2.16-5.13 5.72-3.95 7.95.8 1.53 2.78 2.01 5.01 1.49l-.93 6.96 7.48-3.91-2.63-4.96c2.86-2.16 4.29-5.33 3.21-7.4z"/><path fill="#78a3ad" d="M66.22 69.89c-5.42 1.47-8.04-1.04-9.59-3.54-1.55-2.51-6.06-14.89-6.5-24.28-.74-16.01 5.2-35.82 30.07-40.29 36.95-6.64 36.96 22.15 36.52 31.3-.54 11.42-4.38 21.9-5.44 23.98-.74 1.46-1.38 3.33-5.58 4.03-2.1.35-5.65-1.13-6.45-3.26-1.84-4.9 13.65-45.55-16.54-38.63-27.67 6.34-12.35 44.05-12.35 44.05s1.29 5.16-4.14 6.64z"/><path fill="#2f2f2f" d="M26.07 81.61c1.34-1.4 3.35-2.35 5.25-2.66 1.28-.21 2.97-.25 4.02.64 1.88 1.6.2 4.53-1.25 5.65-1.82 1.42-4.43 2.1-6.71 1.86-2.64-.28-3.34-2.52-2.01-4.59.2-.32.44-.62.7-.9z"/></svg><svg viewBox="0 0 128 128" id="1F5DD" xmlns="http://www.w3.org/2000/svg"><path fill="#666766" d="M65.37 94.08a.989.989 0 0 0-.51-.57L51.32 86.9a.992.992 0 0 0-1.34.46l-5.13 10.5c-.12.24-.13.51-.05.76.09.25.27.46.51.57l13.54 6.61c.14.07.29.1.44.1.11 0 .22-.02.33-.05.25-.09.46-.27.57-.51l5.13-10.51c.12-.22.14-.5.05-.75zm-7.54 13.84-13.54-6.61a.992.992 0 0 0-1.34.46l-5.13 10.51c-.12.24-.13.51-.05.76.09.25.27.46.51.57l13.54 6.61a1.005 1.005 0 0 0 1.34-.46l5.13-10.51a.983.983 0 0 0-.46-1.33z"/><path fill="#313738" d="M94.04 15.32 78.56 7.77c-2.91-1.42-6-2.14-9.2-2.14-6.31 0-12.29 2.91-16 7.79-.11.14-.22.3-.32.45l-.31.44c-.14.2-.28.39-.41.6-.36.58-.69 1.17-.97 1.74-.28.58-.54 1.19-.77 1.83-.08.23-.15.46-.22.69l-.16.51c-.06.18-.11.36-.16.53-2.43 9.22 2.22 19.04 11.06 23.35l1.68.82-33.98 69.65c-.12.24-.13.51-.05.76.09.25.27.46.51.57l10.32 5.03a1.005 1.005 0 0 0 1.34-.46L74.9 50.28l1.68.82c2.91 1.42 6 2.14 9.2 2.14 6.31 0 12.29-2.91 16-7.79.11-.14.22-.3.32-.45l.31-.45c.14-.19.28-.39.4-.59a17.946 17.946 0 0 0 1.74-3.57c.08-.23.15-.45.22-.68l.16-.53c.06-.17.11-.35.15-.52 2.44-9.21-2.21-19.03-11.04-23.34zm-18.99 17.6-3.28 1.29c-2.67 1.05-5.58.94-8.15-.31-4.29-2.09-6.55-6.97-5.38-11.58.02-.08.04-.15.07-.23l.07-.22c.05-.16.09-.32.15-.48.13-.35.27-.69.44-1.03.17-.34.35-.67.54-.97.09-.15.19-.29.35-.5l.08-.11c.04-.06.09-.13.13-.18 1.9-2.46 4.9-3.92 8.03-3.92 1.54 0 3.03.34 4.42 1.02 2.57 1.25 4.44 3.47 5.25 6.23l1 3.38c.08.27.27.49.52.61s.54.13.8.03l3.28-1.29c2.67-1.05 5.58-.94 8.15.31 4.29 2.09 6.55 6.97 5.38 11.58-.02.08-.05.16-.07.24l-.05.17c-.05.17-.1.35-.16.52-.13.35-.27.69-.44 1.03-.17.34-.35.67-.54.97-.09.14-.18.27-.27.4l-.28.39c-1.9 2.46-4.9 3.92-8.03 3.92a9.98 9.98 0 0 1-4.42-1.02c-2.57-1.25-4.44-3.47-5.25-6.23l-1-3.38a.987.987 0 0 0-.52-.61.976.976 0 0 0-.44-.1c-.14 0-.26.03-.38.07z"/><path fill="#666766" d="m75.53 54.97-16.85-8.22c-.24-.12-.51-.13-.76-.05-.25.09-.46.27-.57.51l-2.41 4.94a1 1 0 0 0 .46 1.34l16.85 8.22c.14.07.29.1.44.1.11 0 .22-.02.33-.05.25-.09.46-.27.57-.51L76 56.31c.23-.5.03-1.1-.47-1.34zm-5.67 11.62-16.85-8.22c-.24-.12-.51-.13-.76-.05-.25.09-.46.27-.57.51l-2.41 4.94a1 1 0 0 0 .46 1.34l16.85 8.22a1.005 1.005 0 0 0 1.34-.46l2.41-4.94c.12-.24.13-.51.05-.76-.1-.26-.28-.47-.52-.58z"/></svg></svg>