<?xml version="1.0" encoding="utf-8"?><svg viewBox="0 0 128 128" xmlns="http://www.w3.org/2000/svg" xmlns:xlink="http://www.w3.org/1999/xlink"><style>:root>svg{display:none}:root>svg:target{display:block}</style><svg viewBox="0 0 128 128" id="1F4E4" xmlns="http://www.w3.org/2000/svg"><path fill="#fcc21b" d="M88.59 94.89v20.63s-.4 4.83 2.56 2.01c.52-.5 7.52-8.09 7.52-8.09l18.41-17.65s2.18-2.47 2.18-6.5V69.54s0-4.46-3.07-1.39c-3.06 3.07-24.25 20.63-24.25 20.63s-3.35 1.92-3.35 6.11zm-2.33-7.69c-1.7.57-3.5.3-5.35.07-.12-.01-.24-.04-.35-.05-2.52-.44-5.13-.79-7.69-.7-2.21.07-4.57.55-6.2 2.17-2.54 2.54-5.29 8.27-9.26 8.47-4.98.24-10.25-1.11-15.21-1.59-2.06-.2-4.2-.26-6.21-.78-.77-.2-1.52-.49-2.2-.92-.34-.21-.69-.45-.97-.74-.35-.37-.66-.78-.25-1.26.28-.33.71-.51 1.06-.76.97-.66 15.93-12.31 16.77-13 .99-.81 2.41-.84 3.63-.73 1.58.15 3.17.29 4.75.42 3.17.26 30.41 3.49 31.66 3.56.43.03 1.36.03 1.53.57.21.62-3.61 4.56-5.71 5.27zm28.85-24.15c-.58.48-1.15.95-1.71 1.45-1.14.98-2.25 1.99-3.36 3-2.2 2.01-12.4 10.56-13.42 10.62-5.88.33-32.98-3.32-40.66-4.14-1.8-.19-3.58-.21-4.01-2.24-.25-1.23-.24-2.48-.32-3.73-.18-2.79-.31-5.58-.31-8.38 0-1.24-.17-2.74.13-3.94.18-.7.94-1.16 1.65-1.13.38.02 4.95.52 6.04.63 2.4.25 4.82.5 7.23.75 3.28.34 6.56.68 9.85 1.03 3.72.38 7.43.78 11.14 1.17 3.7.38 7.4.78 11.1 1.17 3.24.34 6.48.69 9.72 1.03l3.92.42c1.09.12 2.25.14 3.26.5.23.09.45.02.58.3.31.73-.35 1.09-.83 1.49z"/><path fill="#fcc21b" d="M83.24 115.98c.05 1.45.78 3.9-1 4.55-1.18.44-2.57.04-3.78-.1-8.88-1.05-66.12-8.07-67.22-9.22-1.19-1.23-.83-2.84-.88-4.4-.16-4.59.02-9.18.2-13.77.09-2.13-.1-4.46.26-6.56.17-1 .68-1.79 1.77-1.79.95 0 1.95.1 2.88.28 2.06.4 4.26.3 6.24 1.01 2.37.85 3.28 2.71 4.17 4.91.5 1.24.98 2.49 1.54 3.71.89 1.92 2.03 3.24 3.36 4.15 1.81 1.23 8.03 2.05 15.08 2.85 5.31.6 11.6 1.46 13.9 1.01 1.41-.27 2.74-.76 3.97-1.55 1.61-1.02 2.79-2.91 3.87-4.43.56-.8 1.11-1.62 1.66-2.43.3-.45.63-.89 1.16-1.04 1.65-.47 3.67.04 5.36.2 1.48.14 2.95.32 4.43.39.94.05 2.8-.08 3.13 1.08.28.95-.03 2.39-.05 3.38-.03 1.34-.06 2.69-.08 4.03-.09 4.58-.12 9.16.03 13.74z"/><path fill="#fcc21b" d="m14.39 79.76 10 1.16s6.35 1.35 6.93 5.2l.58 1.92 17.13-12.7s.77-.58.77-2.89v-12.7c0-2.7-2.12-2.5-3.66-1.54S14.39 79.76 14.39 79.76z"/><path fill="#855c52" d="M123.09 61.74c-.03-2.88-1.91-3.74-3.11-4.33-1.78-.88-4.2-1.11-6.57-1.42-8.37-1.08-49.45-5.37-59.99-6.29-1.53-.13-3.25.07-5.9 1.7-14.47 8.94-23.96 14.5-34.55 22.09-1.61 1.15-3.1 2.4-4.72 3.54-1.78 1.24-2.64 2.45-2.65 4.6-.1 9.44-1.06 18.79-.6 28.17.06 1.14.14 2.28.24 3.42.23 2.58 4.23 3.39 6.18 3.61 1.95.21 3.79.75 5.73 1.07 5.26.88 10.55 1.6 15.82 2.42 6.15.96 12.34 1.83 18.52 2.61 6.02.76 12.03 1.5 18.05 2.19 3.86.44 14.89 2.03 15.31 2.03 2.73 0 4.1-1.33 5.56-2.64 6.98-6.29 25.45-25.07 31.07-31.57 1.25-1.45 1.53-2.61 1.55-4.53.06-7.21.14-18.14.06-26.67zm-70.32-5.62c.17-.67.9-1.11 1.58-1.08.37.02 4.75.5 5.79.6 2.32.24 4.63.48 6.93.72 3.15.33 6.3.65 9.45.99 3.56.37 7.13.74 10.68 1.12 3.55.37 7.1.75 10.64 1.12l9.32.99c1.26.13 2.51.27 3.76.41 1.04.11 2.16.13 3.12.47.23.08.44.02.55.28.3.71-.33 1.07-.79 1.45-.56.45-1.11.92-1.65 1.39-1.09.94-2.16 1.91-3.22 2.88-2.11 1.93-11.89 10.13-12.87 10.18-5.63.32-31.63-3.18-38.99-3.97-1.72-.18-3.44-.2-3.85-2.15-.25-1.17-.23-2.38-.3-3.58-.17-2.67-.29-5.35-.3-8.04.03-1.19-.14-2.63.15-3.78zm-7.1 2.58c1.49-.93 3.53-1.12 3.53 1.49v12.27c0 2.23-.74 2.79-.74 2.79L31.91 87.51l-.56-1.86c-.56-3.72-6.69-5.02-6.69-5.02L15 79.52S44.17 59.63 45.67 58.7zm37.57 57.28c.05 1.45.78 3.9-1 4.55-1.18.44-2.57.04-3.78-.1-8.88-1.05-66.12-8.07-67.22-9.22-1.19-1.23-.83-2.84-.88-4.4-.16-4.59.02-9.18.2-13.77.09-2.13-.1-4.46.26-6.56.17-1 .68-1.79 1.77-1.79.95 0 1.95.1 2.88.28 2.06.4 4.26.3 6.24 1.01 2.37.85 3.28 2.71 4.17 4.91.5 1.24.98 2.49 1.54 3.71.89 1.92 2.03 3.24 3.36 4.15 1.81 1.23 8.03 2.05 15.08 2.85 5.31.6 11.6 1.46 13.9 1.01 1.41-.27 2.74-.76 3.97-1.55 1.61-1.02 2.79-2.91 3.87-4.43.56-.8 1.11-1.62 1.66-2.43.3-.45.63-.89 1.16-1.04 1.65-.47 3.67.04 5.36.2 1.48.14 2.95.32 4.43.39.94.05 2.8-.08 3.13 1.08.28.95-.03 2.39-.05 3.38-.03 1.34-.06 2.69-.08 4.03-.09 4.58-.12 9.16.03 13.74zm-2.93-28.71c-.12-.01-.23-.04-.34-.05-2.44-.42-4.97-.76-7.44-.68-2.13.07-4.43.53-5.99 2.1-2.47 2.46-5.12 8.01-8.97 8.2-4.83.24-9.92-1.08-14.72-1.54-2-.19-4.06-.25-6.01-.76-.75-.2-1.48-.48-2.13-.89-.32-.2-.67-.44-.94-.71-.34-.36-.64-.75-.24-1.22.27-.32.69-.5 1.03-.73.94-.64 15.42-11.92 16.23-12.58.96-.79 2.34-.81 3.52-.7 1.53.14 3.06.28 4.6.41 3.07.25 29.43 3.37 30.65 3.44.41.03 1.32.03 1.49.55.2.61-3.49 4.42-5.52 5.1-1.69.54-3.42.28-5.22.06zm38.95-2c0 4.03-2.18 6.5-2.18 6.5l-18.41 17.65s-7 7.59-7.52 8.09c-2.96 2.83-2.56-2.01-2.56-2.01V94.89c0-4.18 3.35-6.13 3.35-6.13s21.19-17.56 24.25-20.63c3.07-3.07 3.07 1.39 3.07 1.39v15.75z"/><path fill="#ed6c30" d="m65.83.84 24.68 33.68h-15.4v31.43H56.69V34.52H41.13L65.83.84z"/></svg><svg viewBox="0 0 128 128" id="1F4E5" xmlns="http://www.w3.org/2000/svg"><path fill="#fcc21b" d="M88.63 94.92v20.63s-.4 4.83 2.56 2.01c.52-.5 7.52-8.09 7.52-8.09l18.41-17.65s2.18-2.47 2.18-6.5V69.57s0-4.46-3.07-1.39c-3.06 3.07-24.25 20.63-24.25 20.63s-3.35 1.93-3.35 6.11zm-2.33-7.69c-1.71.57-3.5.3-5.36.07-.12-.01-.23-.03-.35-.05-2.52-.44-5.13-.79-7.68-.7-2.21.07-4.58.55-6.19 2.17-2.54 2.54-5.3 8.27-9.27 8.47-4.98.24-10.25-1.11-15.21-1.59-2.06-.2-4.2-.26-6.21-.78-.78-.2-1.52-.49-2.2-.92-.34-.21-.69-.45-.97-.74-.35-.37-.66-.78-.25-1.26.28-.33.71-.51 1.06-.76.97-.66 15.93-12.31 16.77-13 .99-.81 2.41-.84 3.62-.73 1.59.15 3.17.29 4.75.42 3.17.26 30.4 3.48 31.65 3.56.43.03 1.37.03 1.54.57.21.62-3.6 4.56-5.7 5.27zm28.84-24.15c-.57.47-1.14.95-1.71 1.45-1.14.98-2.25 1.99-3.35 3-2.2 2.01-12.41 10.56-13.42 10.62-5.88.33-32.98-3.32-40.66-4.14-1.8-.19-3.58-.2-4.01-2.24-.26-1.22-.25-2.48-.32-3.73-.17-2.79-.3-5.58-.31-8.38 0-1.24-.18-2.74.13-3.94.18-.7.94-1.16 1.64-1.13.39.02 4.96.52 6.05.63l7.23.75c3.28.34 6.57.68 9.85 1.03 3.71.38 7.43.78 11.14 1.17 3.7.38 7.4.78 11.1 1.17 3.24.34 6.48.69 9.72 1.03l3.92.42c1.09.12 2.25.14 3.26.5.24.09.45.02.57.3.32.73-.35 1.1-.83 1.49z"/><path fill="#fcc21b" d="M83.27 116.01c.05 1.45.77 3.9-1 4.55-1.18.44-2.57.04-3.78-.1-8.88-1.05-66.12-8.07-67.22-9.22-1.19-1.23-.83-2.84-.88-4.4-.17-4.59.02-9.18.2-13.76.08-2.13-.11-4.46.25-6.56.18-1 .69-1.79 1.77-1.79.95 0 1.95.1 2.88.28 2.05.4 4.25.3 6.23 1.01 2.36.85 3.28 2.71 4.17 4.91.51 1.24.97 2.49 1.53 3.71.89 1.92 2.03 3.24 3.37 4.15 1.81 1.23 8.04 2.05 15.08 2.85 5.3.61 11.6 1.46 13.9 1.01 1.41-.27 2.75-.76 3.97-1.55 1.61-1.02 2.79-2.91 3.86-4.43.57-.8 1.11-1.62 1.66-2.43.3-.45.63-.89 1.16-1.05 1.65-.47 3.67.04 5.36.2 1.48.14 2.95.32 4.43.39.93.05 2.8-.08 3.14 1.08.28.95-.04 2.39-.06 3.38-.03 1.35-.06 2.69-.08 4.03-.05 4.58-.09 9.16.06 13.74z"/><path fill="#fcc21b" d="m14.43 79.79 10.01 1.15s6.35 1.35 6.93 5.2l.57 1.92 17.13-12.7s.77-.58.77-2.89v-12.7c0-2.7-2.12-2.5-3.65-1.54-1.55.97-31.76 21.56-31.76 21.56z"/><path fill="#855c52" d="M123.13 61.77c-.03-2.88-1.91-3.74-3.11-4.33-1.78-.88-4.2-1.11-6.57-1.42-8.37-1.08-49.45-5.37-59.99-6.29-1.52-.14-3.25.07-5.9 1.7C33.08 60.38 23.6 65.94 13 73.52c-1.61 1.15-3.09 2.4-4.71 3.54-1.78 1.24-2.64 2.45-2.66 4.6-.09 9.44-1.06 18.8-.59 28.17.06 1.14.13 2.28.24 3.42.23 2.58 4.23 3.39 6.18 3.61 1.95.21 3.8.74 5.73 1.07 5.26.88 10.55 1.6 15.82 2.42 6.15.96 12.33 1.83 18.51 2.61 6.02.76 12.03 1.5 18.05 2.19 3.87.44 14.89 2.03 15.31 2.03 2.73 0 4.11-1.33 5.57-2.64 6.98-6.29 25.45-25.07 31.07-31.57 1.26-1.45 1.53-2.61 1.55-4.53.06-7.2.13-18.14.06-26.67zm-70.32-5.62c.17-.67.9-1.11 1.58-1.08.37.02 4.75.5 5.79.6l6.93.72c3.15.33 6.3.65 9.44.98 3.56.37 7.13.74 10.69 1.12 3.55.37 7.1.74 10.65 1.12l9.32.99c1.25.13 2.51.27 3.76.4 1.04.11 2.16.13 3.12.47.22.08.44.02.55.28.3.71-.33 1.07-.79 1.45-.56.45-1.1.92-1.64 1.39-1.09.94-2.15 1.91-3.22 2.88-2.12 1.93-11.9 10.13-12.87 10.18-5.64.32-31.63-3.18-38.99-3.97-1.73-.18-3.43-.2-3.85-2.15-.24-1.17-.23-2.38-.3-3.58-.17-2.67-.29-5.35-.3-8.04 0-1.17-.16-2.6.13-3.76zm-7.11 2.58c1.49-.93 3.53-1.12 3.53 1.49v12.27c0 2.23-.75 2.79-.75 2.79L31.95 87.54l-.56-1.86c-.56-3.72-6.69-5.02-6.69-5.02l-9.67-1.11S44.21 59.67 45.7 58.73zm37.57 57.28c.05 1.45.77 3.9-1 4.55-1.18.44-2.57.04-3.78-.1-8.88-1.05-66.12-8.07-67.22-9.22-1.19-1.23-.83-2.84-.88-4.4-.17-4.59.02-9.18.2-13.76.08-2.13-.11-4.46.25-6.56.18-1 .69-1.79 1.77-1.79.95 0 1.95.1 2.88.28 2.05.4 4.25.3 6.23 1.01 2.36.85 3.28 2.71 4.17 4.91.51 1.24.97 2.49 1.53 3.71.89 1.92 2.03 3.24 3.37 4.15 1.81 1.23 8.04 2.05 15.08 2.85 5.3.61 11.6 1.46 13.9 1.01 1.41-.27 2.75-.76 3.97-1.55 1.61-1.02 2.79-2.91 3.86-4.43.57-.8 1.11-1.62 1.66-2.43.3-.45.63-.89 1.16-1.05 1.65-.47 3.67.04 5.36.2 1.48.14 2.95.32 4.43.39.93.05 2.8-.08 3.14 1.08.28.95-.04 2.39-.06 3.38-.03 1.35-.06 2.69-.08 4.03-.05 4.58-.09 9.16.06 13.74zM80.34 87.3a3.98 3.98 0 0 1-.34-.05c-2.44-.42-4.96-.76-7.44-.67-2.14.07-4.43.53-5.99 2.1-2.47 2.47-5.13 8.01-8.97 8.2-4.83.24-9.92-1.08-14.72-1.54-2-.19-4.06-.25-6.01-.76-.75-.2-1.48-.48-2.13-.89-.33-.2-.67-.44-.94-.71-.34-.36-.65-.75-.24-1.22.27-.32.68-.5 1.02-.73.94-.65 15.42-11.93 16.23-12.59.96-.79 2.33-.81 3.51-.71 1.53.14 3.07.28 4.6.4 3.06.25 29.43 3.37 30.64 3.44.42.03 1.33.03 1.49.55.2.61-3.49 4.42-5.52 5.1-1.65.56-3.39.31-5.19.08zm38.96-1.99c0 4.03-2.18 6.5-2.18 6.5l-18.41 17.65s-7 7.59-7.52 8.09c-2.96 2.83-2.56-2.01-2.56-2.01V94.92c0-4.18 3.34-6.13 3.34-6.13s21.19-17.56 24.25-20.63c3.07-3.07 3.07 1.39 3.07 1.39s.01 10.18.01 15.76z"/><path fill="#ed6c30" d="M66.68 78.4 41.99 44.73H57.4V13.3h18.42v31.43h15.56L66.68 78.4z"/></svg><svg viewBox="0 0 128 128" id="1F4E6" xmlns="http://www.w3.org/2000/svg"><path fill="#fcc21b" d="m69.46 3.62-65.28 32V92.9l54.36 31.48L123.82 88V30.71z"/><path fill="#855c52" d="M58.54 127.47c-.54 0-1.07-.14-1.56-.42L2.63 95.58a3.086 3.086 0 0 1-1.54-2.68V35.62c0-1.18.67-2.26 1.73-2.78L68.1.84c.87-.43 1.88-.42 2.75.01l54.36 27.09a3.11 3.11 0 0 1 1.71 2.77V88c0 1.12-.61 2.16-1.59 2.71l-65.28 36.38c-.47.26-.99.38-1.51.38zM7.28 91.12l51.29 29.7 62.15-34.64V32.63L69.45 7.07 7.28 37.55v53.57z"/><path fill="#855c52" d="m35.92 64.69-9.26-4.8c-1.8-.94-3.55-.21-3.85 1.71-.36 1.99.92 4.28 2.82 5.34l9.85 5.16c.55.26 1.11.39 1.62.38 1.2-.05 2.02-.92 2.08-2.34.11-2.01-1.31-4.36-3.26-5.45z"/><path fill="#b89278" d="m36.52 62.01-10.33-5.2v-8.82l10.33 5.3zm0 46.17-10.33-5.99v-8.9l10.33 6.17zm61.86-86.67L87.74 16.2 26.73 46.5l10.65 5.46z"/><g fill="#855c52"><path d="M58.54 126.75c-.42 0-.83-.11-1.19-.32L2.99 94.95a2.398 2.398 0 0 1-1.19-2.06V35.62c0-.83.43-1.59 1.13-2.02.71-.44 1.59-.47 2.33-.09l54.36 27.87c.79.41 1.29 1.22 1.29 2.11v60.9c0 .85-.45 1.63-1.18 2.06-.38.2-.78.3-1.19.3zM6.56 91.53l49.61 28.73V64.93L6.56 39.5v52.03z"/><path d="M58.54 65.86c-.37 0-.75-.09-1.08-.26L3.1 37.73a2.36 2.36 0 0 1-1.29-2.13c.01-.9.52-1.71 1.33-2.11l65.28-32c.66-.33 1.44-.32 2.1 0l54.36 27.09c.81.4 1.32 1.22 1.32 2.12 0 .9-.51 1.72-1.31 2.12L59.61 65.6c-.34.17-.71.26-1.07.26zM9.48 35.66l49.07 25.16 59.96-30.1L69.45 6.27 9.48 35.66z"/><path d="M58.54 126.75a2.375 2.375 0 0 1-2.38-2.38v-60.9c0-.9.5-1.72 1.31-2.12l65.28-32.77c.73-.37 1.61-.33 2.31.1.71.43 1.13 1.2 1.13 2.02V88c0 .86-.47 1.66-1.22 2.08l-65.28 36.38c-.36.19-.75.29-1.15.29zm2.37-61.8v55.39l60.53-33.74V34.56L60.91 64.95z"/></g></svg><svg viewBox="0 0 128 128" id="1F4E7" xmlns="http://www.w3.org/2000/svg"><g fill="#fcc21b" fill-rule="evenodd" clip-rule="evenodd"><path d="M14.85 49.05v51.42h98.3V49.05L64 73.49z"/><path d="M14.85 27.53V41.2L64 65.63l49.15-24.43V27.53z"/></g><path fill="#fcc21b" d="M64.02 38.78c15.6 0 26.11 10.46 26.21 26.05.01.13.01.31.02.52.01 1.28-.21 3.89-1.69 6.42-.13.24-.26.48-.42.71-1.63 2.34-4.78 3.86-8.05 3.87h-.02c-3.1 0-5.94-1.27-7.84-3.48-2.24 2.69-5.67 4.44-10.06 4.45h-.04c-4.94 0-8.73-2.16-10.9-5.45-1.21-1.84-1.91-4.04-2.03-6.41a8.02 8.02 0 0 1-.03-.7c-.02-6.95 4.96-12.6 12.95-12.62h.02c2.56 0 4.77.62 6.65 1.64v-.69c0-.3.24-.55.55-.55l6.62-.02c.3 0 .55.24.55.55l.03 8.83h.04c.03.93.21 2.27.53 3.48.25.97.6 1.86 1.03 2.38.55.65 1.42.76 1.91.76h.03c.85 0 1.52-.37 1.66-.52.63-.9.73-2.15.71-2.63v-.08l-.01-.31c-.02-8.89-4.86-18.38-18.39-18.38h-.07c-10.84.02-18.4 7.34-18.37 17.8 0 .36.03.71.05 1.06.12 2.33.62 4.48 1.45 6.41C49.8 78.14 56 82.11 63.99 82.11h.05c4.47-.01 8.48-1.24 11.6-3.55l4.66 6.28c-4.47 3.31-10.08 5.07-16.24 5.08h-.08c-12.46 0-22.11-7.25-25.17-18.03-.58-2.02-.9-4.17-.99-6.41-.01-.35-.05-.7-.05-1.06-.03-14.81 10.97-25.6 26.17-25.63.02-.01.05-.01.08-.01m-1.9 31.76h.02c3.42-.01 5.62-2.25 5.93-5.14.03-.23.06-.46.06-.7-.01-3.2-2.32-5.81-6.01-5.81h-.02c-3.69.01-5.99 2.63-5.98 5.84 0 .24.04.47.07.7.32 2.88 2.52 5.11 5.93 5.11m1.9-37.09h-.1c-8.74.02-16.74 3.14-22.51 8.8-5.81 5.69-8.99 13.57-8.98 22.18 0 .33.02.66.04.99l.02.25c.11 2.71.5 5.28 1.19 7.69 3.79 13.31 15.68 21.91 30.3 21.91 7.4-.01 14.1-2.13 19.49-6.13a5.337 5.337 0 0 0 1.11-7.46l-.39-.52c3.42-.9 6.43-2.89 8.33-5.62.24-.35.45-.71.65-1.07 2.12-3.63 2.42-7.28 2.41-9.14 0-.26-.01-.47-.02-.63-.18-18.42-13.13-31.25-31.54-31.25z"/><path fill="#ed6c30" fill-rule="evenodd" d="M90.23 64.83c-.1-15.62-10.65-26.09-26.29-26.05-15.2.03-26.2 10.82-26.17 25.63 0 .36.04.71.05 1.06.09 2.25.41 4.39.99 6.41 3.08 10.81 12.75 18.06 25.25 18.03 6.15-.01 11.77-1.77 16.24-5.08l-4.66-6.28c-3.11 2.31-7.13 3.53-11.6 3.55-8.01.02-14.23-3.96-16.96-10.24-.83-1.93-1.33-4.09-1.45-6.41-.02-.35-.05-.7-.05-1.06-.02-10.46 7.53-17.77 18.37-17.8 13.58-.03 18.44 9.48 18.46 18.38l.01.31v.08c.02.48-.08 1.73-.71 2.63-.14.15-.81.52-1.66.52-.48 0-1.38-.1-1.94-.76-.44-.52-.78-1.42-1.03-2.38-.32-1.21-.51-2.55-.53-3.48h-.04l-.03-8.83c0-.3-.25-.55-.55-.55l-6.62.02c-.3 0-.55.25-.55.55v.69c-1.88-1.02-4.1-1.65-6.67-1.64-7.98.02-12.96 5.67-12.95 12.62 0 .24.02.47.03.7.12 2.38.82 4.57 2.03 6.41 2.18 3.3 5.98 5.47 10.94 5.45 4.39-.01 7.82-1.76 10.06-4.45 1.9 2.21 4.75 3.49 7.86 3.48 3.27-.01 6.42-1.52 8.05-3.87.16-.23.29-.47.42-.71 1.48-2.53 1.7-5.15 1.69-6.42.02-.2.01-.38.01-.51zm-22.16.57c-.31 2.89-2.51 5.13-5.93 5.14-3.42.01-5.63-2.23-5.95-5.11-.03-.23-.07-.46-.07-.7-.01-3.21 2.3-5.83 5.98-5.84 3.7-.01 6.02 2.6 6.03 5.81 0 .24-.04.47-.06.7z" clip-rule="evenodd"/></svg><svg viewBox="0 0 128 128" id="1F4E8" xmlns="http://www.w3.org/2000/svg"><defs><path id="aaea" d="M83.42 30.09c3.59-4.08 7.24-8.1 10.96-12.05.52-.55 1.04-1.09 1.57-1.63 1.27-1.31 2.54-2.62 3.85-3.88 1.12-1.08 2.54-2.5 4.27-2.2.67.12.96.92.9 1.49-.05.58-.22 1.16-.45 1.75-.47 1.19-1.19 2.36-1.75 3.35-3.75 6.72-8.07 13.2-12.33 19.61-.61.92-1.09 1.97-1.71 2.88l-.34.32c-.32.3-.63.5-1.07.58-2.45.46-5.25.23-7.72.05-.86-.06-1.87-.1-2.67-.48-.93-.44-.53-1.72-.07-2.35 1.63-2.19 4.76-5.39 6.56-7.44zm-25.39 7.44c-.46.62-.86 1.91.07 2.35.8.38 1.81.41 2.67.48 2.47.18 5.27.41 7.72-.05.43-.08.75-.28 1.07-.58l.34-.32c.62-.9 1.1-1.95 1.71-2.88 4.26-6.4 8.57-12.89 12.32-19.61.56-.99 1.28-2.16 1.75-3.35.23-.59.4-1.18.45-1.75.05-.57-.23-1.38-.91-1.49-1.72-.3-3.13 1.12-4.26 2.2-1.31 1.26-2.59 2.57-3.85 3.88-.53.54-1.05 1.08-1.57 1.63-3.72 3.95-7.37 7.98-10.96 12.05-1.8 2.05-4.93 5.25-6.55 7.44zm-18.78 2.35c.8.38 1.8.41 2.67.48 2.47.18 5.28.41 7.72-.05.44-.08.75-.28 1.07-.58l.34-.32c.62-.9 1.1-1.95 1.71-2.88 4.26-6.4 8.56-12.89 12.32-19.61.56-.99 1.28-2.16 1.75-3.35.23-.59.4-1.18.45-1.75.05-.57-.23-1.38-.91-1.49-1.72-.3-3.13 1.12-4.26 2.2-1.31 1.26-2.59 2.57-3.86 3.88-.52.54-1.05 1.08-1.57 1.63-3.71 3.95-7.36 7.98-10.95 12.05-1.8 2.05-4.93 5.24-6.55 7.44-.46.63-.86 1.91.07 2.35z"/></defs><use fill="#40c0e7" overflow="visible" xlink:href="#aaea"/><g fill="#fcc21b" fill-rule="evenodd" clip-rule="evenodd"><path d="M14.85 69.89v51.42h98.3V69.89L64 94.33z"/><path d="M14.85 48.36v13.68L64 86.47l49.15-24.43V48.36z"/></g></svg><svg viewBox="0 0 128 128" id="1F4E9" xmlns="http://www.w3.org/2000/svg"><g fill="#fcc21b" fill-rule="evenodd" clip-rule="evenodd"><path d="M14.85 69.89v51.42h98.3V69.89L64 94.33z"/><path d="M14.85 48.36v13.68L64 86.47l49.15-24.43V48.36z"/></g><path fill="#ed6c30" d="M63.85 62.28 40.24 30.06h14.73V0h17.62v30.06h14.88L63.85 62.28z"/></svg><svg viewBox="0 0 128 128" id="1F4EA" xmlns="http://www.w3.org/2000/svg"><path fill="#fff" d="M80.26 99.49c-.02-.02-.05-.03-.07-.05-1.5-.98-3.86-.83-5.49-.58-4.04.6-5.31 4.87-5.63 8.66-.43 5.08-.09 10.27-.09 15.37 0 .79.07 1.59.33 2.33.11.3 1.4 2.35 6.29 2.35 4.81-.34 5.66-2.69 5.7-2.98.72-4.82.49-12.64.4-17.5-.04-2.65.91-5.82-1.44-7.6z"/><path fill="#855c52" d="M77.1 102.24c.7 0 1.1.08 1.34.16.11.45.03 1.57-.02 2.27-.05.78-.1 1.56-.09 2.31l.02 1.14c.09 4.43.24 10.96-.29 15.28-.37.19-1.13.48-2.58.59-1.69-.01-2.65-.28-3.14-.49-.01-.09-.01-.2-.01-.32 0-1.63-.04-3.27-.07-4.91-.08-3.68-.15-7.15.16-10.58.29-3.3 1.22-5.08 2.77-5.3.72-.1 1.36-.15 1.91-.15m0-4.02c-.88 0-1.74.09-2.47.19-4.46.63-5.86 5.02-6.21 8.92-.47 5.24-.1 10.58-.1 15.84 0 .81.07 1.64.36 2.4.12.31 1.54 2.42 6.94 2.42 5.3-.35 6.24-2.78 6.29-3.07.79-4.97.55-13.03.45-18.03-.05-2.72.99-5.98-1.6-7.83a.218.218 0 0 0-.08-.05c-.98-.6-2.29-.79-3.58-.79z"/><path fill="#ed6c30" d="M118.23 64.1c-.49-4.92-1.33-9.88-3.02-14.55-1.43-3.97-3.58-8.01-7.17-10.42-4.69-3.15-9.56-4.17-15.4-4.95-10.32-1.38-21.18.19-31.37 1.85-3.92.64-7.81 1.22-11.66 1.98-3.57.7-14.33 3.33-16.06 4.02-2.66 1.07-4.98 2.75-6.89 4.87-.94 1.04-4.35 6.2-5.55 12.81-1.74 9.65-1.65 21.41-1.23 28.96.02.53.64 3.85 2.39 5.36 1.75 1.51 26.55 12.28 37.6 16.02.4.46 1.78.52 2.32.59 1.37.18 2.75.06 4.1-.29.89-.23 1.6-.8 2.42-1.18 1.32-.61 2.65-1.2 3.97-1.8 2.52-1.14 4.96-2.43 7.39-3.74 2.11-1.13 4.46-1.78 6.67-2.81 2.19-1.03 4.39-2.08 6.57-3.13 6.3-3.03 12.57-6.14 18.78-9.34 1.8-.92 3.99-1.55 5.24-3.25 1.49-2.03 1.36-5.27 1.4-7.66.09-4.45-.06-8.91-.5-13.34z"/><path fill="#855c52" d="M119.68 63.86c-.51-5.07-1.37-10.17-3.11-14.98-1.47-4.08-3.69-8.25-7.38-10.73-4.83-3.24-9.85-4.29-15.86-5.1-10.62-1.42-21.8.2-32.3 1.91-4.03.65-8.05 1.25-12 2.04-3.67.73-14.76 3.43-16.53 4.14-2.74 1.1-5.14 2.83-7.1 5.01-.96 1.07-4.49 6.38-5.71 13.19-1.79 9.94-1.69 22.04-1.26 29.81.02.55.67 3.97 2.46 5.52 1.8 1.56 27.34 12.64 38.71 16.5.49.57 2.27.62 2.93.67 1.44.12 2.83-.2 4.23-.53 3.21-.75 6.02-2.84 9.02-4.17 3.88-1.72 7.65-3.67 11.49-5.47 2.26-1.06 4.52-2.14 6.76-3.22a828.35 828.35 0 0 0 19.35-9.61c1.84-.95 4.1-1.6 5.39-3.34 1.54-2.09 1.4-5.43 1.44-7.88.07-4.6-.08-9.19-.53-13.76zm-60.8 27.96c.02 3.47.56 7.31-.15 10.73-.44 2.11-1.29 2.3-3.18 1.57-.81-.31-1.63-.6-2.44-.93-2.45-.98-4.87-2.02-7.29-3.08-.89-.39-1.79-.79-2.68-1.18-3.72-1.64-7.42-3.31-11.17-4.89-1.59-.67-3.18-1.33-4.79-1.96-.68-.27-1.82-.78-2.27-1.37-1.52-2.04-1.05-5.57-1.04-7.94.01-5.5.1-11 .17-16.49.08-6.15.97-12.63 5.29-17.34 1.44-1.58 3.66-2.72 5.76-3.13 2.44-.47 5.32-.51 7.78-.14 1.24.19 2.44.44 3.55.72 1.94.48 8.4 4.09 10.55 10.78 3.23 10.02 1.9 24.73 1.89 28.43-.01 2.08 0 4.15.02 6.22zm53.02-7.78c-8.06 4.26-17.29 9.15-25.26 12.81-1.52.7-3.07 1.38-4.6 2.06-3.7 1.62-7.42 3.19-11.09 4.86-.92.42-2.13.76-2.96 1.15-.96.45-2.04.85-2.9-.01-.96-.97-.58-3.21-.56-4.58.02-1.67.05-3.34.07-5.02.04-3.48.07-6.95.09-10.43.02-4.21.39-22.82-1.35-27.71-.38-1.07-.82-2.12-1.31-3.15-1.37-2.84-3.13-5.52-5.41-7.73-2.82-2.75-7.26-3.59-6.37-4.55.42-.45 1.32-.48 1.87-.6 4.44-.9 10.69-2.12 15.99-2.79 9.75-1.23 18.89-2.28 28.56.32 2.58.69 5.1 1.6 7.51 2.75 2.6 1.31 6.19 5.41 7.8 12.1 1.95 8.13 2.34 18.74 2.49 24.83.05 4.27-1.66 5.21-2.57 5.69z"/><path fill="#fcc21b" d="M100.28 62.49c-2.06.44-16.99 4.08-22.37 5.59-1.7.48-3.77.79-5.09 2.06-.81.78-.76 1.82-.75 2.87.02 1.4.02 2.81.27 4.19.35 1.89 1.87 1.82 3.36 1.29.93-.33 16.06-6.24 18.86-6.29 1.94-.04 1.67 5.23 2.96 7.5 1.59 2.81 4.65.89 6.64-.04 2.39-1.13 3.42-3 3.74-5.7.38-3.24.71-6.85.05-10.07-.76-3.75-5.2-1.93-7.67-1.4z"/><path fill="#fff" d="M43.18 68.1c2.62.8 7.42 1.85 8.11-2.05.22-1.26.09-2.18-.33-2.93-.53-.95-1.51-1.62-2.78-2.31-2.93-1.59-6.5-1.96-9.66-2.92-1.74-.53-4.04-1.02-5.62.15-1.85 1.38-2.25 3.98-.57 5.66 2.57 2.57 7.49 3.38 10.85 4.4zm3.89 4.63c-2-.73-4.09-1.19-6.08-1.93-1.51-.57-3.02-1.16-4.57-1.62-2.31-.69-4.32-1.82-6.5-.05-1.74 1.41-1.99 3.84-.34 5.49 1.18 1.18 3.48 1.66 5.08 2.26 1.99.73 1.51 3.16 1.42 4.83-.13 2.51-.69 6.35.82 8.54.86 1.25 2.68 1.76 4.1 1.35 1.84-.53 2.38-2.42 2.42-4.16.06-2-.12-4.36.38-6.3.42-1.64 2.43-.57 3.55-.29 1.11.28 2.82.61 3.86-.09.79-.53 1.42-1.73 1.5-2.64.09-1.07-.19-1.92-.71-2.59-1.1-1.46-3.22-2.17-4.93-2.8z"/></svg><svg viewBox="0 0 128 128" id="1F4EB" xmlns="http://www.w3.org/2000/svg"><path fill="#fcc21b" d="M77.46 63.32h.2c1.75 0 3.83-.58 3.87-2.52-.02-2.55-.03-5.09-.05-7.64-.02-4.76-.05-9.51-.08-14.27 0-.59-.01-1.18-.01-1.77-.01-.65-.01-1.31-.01-1.97-.01-.86-.07-1.71-.02-2.57.02-.26.04-.51.09-.76.28-1.59 1.18-2.58 2.59-2.91.13-.03 3.36-.64 6.09-1.15 3.09-.59 5.73-1.08 5.93-1.14 2.71-.78 2.76-3.77 2.76-3.77s.43-8.87.31-11.99c-.09-2.73-2.37-2.9-2.92-2.9h-.12S82.6 9 78.66 9.41c-1.77.18-2.21 1.64-2.34 3.19-.09 1.12-.1 2.24-.13 3.37-.05 2.11-.1 4.21-.14 6.32-.05 2.73-.1 5.46-.14 8.19-.02.82-.02 1.65-.04 2.47-.02 1.51-.05 3.01-.06 4.52-.02.66-.02 1.31-.03 1.96-.05 2.86-.09 5.72-.12 8.59-.03 2.38-.06 4.76-.1 7.14-.02 1.52-.04 3.04-.05 4.57-.01.93-.24 2.21.31 2.96.41.56 1.01.62 1.64.63z"/><path fill="#855c52" d="M77.66 68.34h-.2c-2.57-.06-4.46-.98-5.71-2.71-1.48-2.03-1.35-4.32-1.28-5.56l.07-4.97.09-7.14c.03-2.86.07-5.73.12-8.6l.13-8.95c.04-2.73.09-5.46.14-8.2.05-2.13.09-4.25.14-6.37l.02-.6c.02-1.01.06-2.02.13-3.03.53-6.62 5.36-7.63 6.83-7.78 3.96-.41 17.01-1.42 17.57-1.46.07-.01.15-.01.22-.01.06 0 .24-.01.29-.01 3.81 0 7.75 2.66 7.94 7.74.12 3.23-.27 11.48-.32 12.41-.06 3.17-2.05 7.09-6.38 8.35-.36.11-.44.13-6.4 1.25l-2.65.5c-.77.15-1.47.28-2.05.39 0 .19.01.38.02.57.01.33.02.65.02.98l.14 25.64c-.07 4.5-3.72 7.56-8.88 7.56zm3.6-54.12c-.02.42-.02.84-.03 1.26l-.02.63c-.05 2.1-.1 4.2-.14 6.29-.02.76-.03 1.52-.05 2.29.59-.29 1.21-.51 1.87-.67.06-.01 1.7-.33 3.67-.7l2.64-.5c1.88-.35 3.58-.67 4.65-.88.1-2.25.25-6.11.29-8.79-3.28.27-9.24.74-12.88 1.07z"/><path fill="#fff" d="M80.27 99.49c-.02-.02-.05-.03-.07-.05-1.5-.98-3.86-.83-5.49-.58-4.04.6-5.31 4.87-5.62 8.66-.43 5.08-.1 10.27-.1 15.37 0 .79.07 1.59.33 2.33.11.3 1.4 2.35 6.29 2.35 4.81-.34 5.66-2.7 5.7-2.98.72-4.83.49-12.64.4-17.5-.05-2.65.9-5.82-1.44-7.6z"/><path fill="#855c52" d="M77.1 102.24c.75 0 1.16.09 1.34.14.11.44.03 1.58-.02 2.28-.06.74-.1 1.5-.09 2.31l.02 1.12c.09 4.43.24 10.98-.3 15.3-.36.19-1.13.48-2.57.59-1.69-.01-2.65-.28-3.14-.49-.01-.09-.01-.2-.01-.32 0-1.63-.04-3.27-.07-4.91-.08-3.68-.15-7.16.16-10.57.29-3.31 1.22-5.09 2.76-5.31.73-.09 1.37-.14 1.92-.14m0-4.02c-.88 0-1.73.09-2.46.19-4.46.62-5.86 5.02-6.21 8.92-.47 5.23-.1 10.58-.1 15.84 0 .81.07 1.64.36 2.4.12.31 1.54 2.42 6.94 2.42 5.3-.35 6.24-2.78 6.29-3.07.79-4.97.55-13.03.45-18.03-.05-2.72.99-5.98-1.6-7.83a.218.218 0 0 0-.08-.05c-.98-.6-2.3-.79-3.59-.79z"/><path fill="#ed6c30" d="M118.23 64.1c-.49-4.92-1.33-9.88-3.02-14.55-1.43-3.97-3.58-8.01-7.17-10.42-4.69-3.15-9.56-4.17-15.4-4.95-10.32-1.38-21.18.19-31.37 1.85-3.92.64-7.81 1.22-11.66 1.98-3.57.7-14.33 3.33-16.06 4.02-2.66 1.07-4.98 2.75-6.89 4.87-.94 1.04-4.35 6.2-5.55 12.8-1.74 9.65-1.65 21.41-1.23 28.96.02.53.64 3.85 2.39 5.36 1.75 1.51 26.55 12.28 37.6 16.02.4.46 1.78.52 2.32.59 1.37.18 2.76.06 4.1-.29.89-.23 1.6-.8 2.42-1.19 1.32-.61 2.65-1.2 3.97-1.8 2.52-1.14 4.96-2.43 7.39-3.74 2.11-1.13 4.46-1.78 6.67-2.81 2.19-1.03 4.39-2.08 6.57-3.13 6.3-3.03 12.57-6.14 18.78-9.34 1.8-.92 3.99-1.55 5.24-3.25 1.49-2.03 1.36-5.27 1.4-7.66.09-4.43-.06-8.89-.5-13.32z"/><path fill="#855c52" d="M119.68 63.86c-.51-5.07-1.37-10.17-3.11-14.98-1.47-4.08-3.69-8.25-7.38-10.73-4.83-3.24-9.85-4.29-15.86-5.1-10.62-1.42-21.8.2-32.3 1.91-4.03.66-8.05 1.25-12 2.04-3.67.73-14.76 3.43-16.53 4.14-2.74 1.1-5.14 2.83-7.1 5.01-.96 1.07-4.49 6.38-5.71 13.19-1.79 9.93-1.69 22.04-1.27 29.81.02.55.67 3.97 2.46 5.52 1.8 1.56 27.34 12.64 38.71 16.5.49.57 2.27.62 2.94.67 1.44.12 2.83-.2 4.23-.53 3.21-.75 6.02-2.84 9.02-4.17 3.88-1.72 7.65-3.67 11.49-5.47 2.26-1.06 4.52-2.14 6.76-3.22 6.49-3.12 12.94-6.32 19.35-9.62 1.84-.95 4.1-1.6 5.39-3.34 1.54-2.09 1.4-5.43 1.44-7.89.08-4.58-.07-9.17-.53-13.74zM58.89 91.82c.02 3.47.56 7.31-.15 10.73-.44 2.11-1.29 2.3-3.18 1.57-.81-.31-1.63-.6-2.44-.93-2.45-.98-4.87-2.02-7.29-3.08-.89-.39-1.79-.78-2.68-1.18-3.72-1.64-7.42-3.31-11.17-4.89-1.59-.67-3.19-1.33-4.79-1.96-.68-.27-1.82-.78-2.27-1.37-1.52-2.04-1.05-5.57-1.04-7.94.01-5.5.1-11 .17-16.49.08-6.15.97-12.63 5.29-17.34 1.44-1.58 3.66-2.72 5.76-3.13 2.44-.47 5.32-.51 7.77-.14 1.24.19 2.44.44 3.55.72 1.94.48 8.4 4.09 10.55 10.78 3.23 10.02 1.9 24.73 1.89 28.43-.01 2.08 0 4.15.03 6.22zm53.02-7.78c-8.06 4.26-17.29 9.15-25.26 12.81-1.52.7-3.07 1.38-4.6 2.06-3.7 1.62-7.42 3.19-11.09 4.86-.92.42-2.13.76-2.96 1.15-.96.45-2.04.85-2.9-.01-.96-.97-.58-3.21-.56-4.58.02-1.67.05-3.34.07-5.02.04-3.48.07-6.95.09-10.43.02-4.21.39-22.82-1.35-27.71-.38-1.07-.82-2.12-1.31-3.15-1.37-2.84-3.13-5.52-5.41-7.73-2.82-2.75-7.26-3.59-6.37-4.55.42-.45 1.32-.48 1.88-.6 4.44-.9 10.69-2.12 15.99-2.79 9.75-1.23 18.89-2.28 28.56.32 2.58.69 5.1 1.6 7.51 2.75 2.6 1.31 6.19 5.41 7.8 12.1 1.95 8.13 2.34 18.74 2.5 24.83.02 4.27-1.68 5.21-2.59 5.69z"/><path fill="#fff" d="M43.19 68.1c2.62.8 7.42 1.85 8.11-2.05.22-1.26.09-2.18-.33-2.93-.53-.95-1.51-1.62-2.79-2.31-2.93-1.58-6.5-1.96-9.66-2.92-1.74-.53-4.04-1.02-5.62.15-1.85 1.38-2.25 3.98-.57 5.66 2.58 2.57 7.49 3.38 10.86 4.4zm3.88 4.63c-2-.73-4.09-1.19-6.08-1.93-1.51-.56-3.02-1.16-4.57-1.62-2.31-.69-4.32-1.82-6.5-.05-1.74 1.41-1.99 3.84-.34 5.49 1.18 1.18 3.48 1.66 5.08 2.26 1.99.73 1.51 3.16 1.42 4.83-.13 2.51-.69 6.35.81 8.54.86 1.25 2.68 1.76 4.1 1.35 1.84-.53 2.38-2.42 2.42-4.16.06-2-.12-4.36.38-6.3.42-1.64 2.43-.57 3.55-.29 1.11.28 2.82.61 3.86-.09.79-.53 1.42-1.73 1.5-2.64.09-1.07-.19-1.91-.71-2.59-1.08-1.46-3.21-2.17-4.92-2.8z"/><path fill="#fcc21b" d="M77.46 63.32h.2c1.75 0 3.83-.58 3.87-2.52-.02-2.55-.03-5.09-.05-7.64-.02-4.76-.05-9.51-.08-14.27 0-.59-.01-1.18-.01-1.77-.01-.65-.01-1.31-.01-1.97-.01-.86-.07-1.71-.02-2.57.02-.26.04-.51.09-.76.28-1.59 1.18-2.58 2.59-2.91.13-.03 3.36-.64 6.09-1.15 3.09-.59 5.73-1.08 5.93-1.14 2.71-.78 2.76-3.77 2.76-3.77s.43-8.87.31-11.99c-.09-2.73-2.37-2.9-2.92-2.9h-.12S82.6 9 78.66 9.41c-1.77.18-2.21 1.64-2.34 3.19-.09 1.12-.1 2.24-.13 3.37-.05 2.11-.1 4.21-.14 6.32-.05 2.73-.1 5.46-.14 8.19-.02.82-.02 1.65-.04 2.47-.02 1.51-.05 3.01-.06 4.52-.02.66-.02 1.31-.03 1.96-.05 2.86-.09 5.72-.12 8.59-.03 2.38-.06 4.76-.1 7.14-.02 1.52-.04 3.04-.05 4.57-.01.93-.24 2.21.31 2.96.41.56 1.01.62 1.64.63z"/></svg><svg viewBox="0 0 128 128" id="1F4EC" xmlns="http://www.w3.org/2000/svg"><path fill="#fcc21b" d="M77.46 63.32h.19c1.75 0 3.84-.58 3.87-2.52-.02-2.55-.02-5.09-.04-7.64-.03-4.76-.05-9.51-.08-14.27-.01-.59-.01-1.18-.02-1.77 0-.65-.01-1.31-.01-1.97 0-.85-.07-1.71-.01-2.57.02-.26.04-.51.08-.76.29-1.59 1.19-2.58 2.59-2.91.14-.03 3.37-.64 6.09-1.15 3.1-.59 5.74-1.08 5.94-1.14 2.71-.78 2.75-3.77 2.75-3.77s.43-8.87.32-11.99c-.1-2.73-2.37-2.9-2.93-2.9h-.12S82.58 9 78.65 9.41c-1.76.18-2.21 1.64-2.34 3.19-.1 1.12-.1 2.24-.13 3.37-.06 2.11-.1 4.21-.14 6.32-.05 2.73-.1 5.46-.14 8.19-.02.82-.02 1.65-.04 2.47-.02 1.51-.05 3.01-.07 4.52-.01.65-.02 1.31-.02 1.96-.05 2.86-.09 5.72-.12 8.59-.03 2.38-.06 4.76-.1 7.14-.01 1.52-.03 3.04-.05 4.57-.01.93-.24 2.2.31 2.96.41.56 1.02.62 1.65.63z"/><path fill="#855c52" d="M77.65 68.34h-.19c-2.61-.06-4.49-.99-5.74-2.75-1.44-1.98-1.32-4.28-1.25-5.51l.02-.4.15-11.71c.03-2.87.07-5.74.12-8.61l.13-8.96c.04-2.72.09-5.45.14-8.19.04-2.12.09-4.23.14-6.36l.02-.71c.02-.98.04-1.97.13-2.95.53-6.6 5.36-7.61 6.82-7.77C82.11 4 95.71 2.96 95.71 2.96c.13-.01.37-.02.5-.02 3.81 0 7.76 2.66 7.94 7.73.11 3.24-.28 11.49-.33 12.42-.05 3.17-2.04 7.1-6.37 8.35-.36.1-.45.13-6.41 1.25l-2.99.56-1.69.32c0 .19.01.36.01.54l.16 26.65c-.06 4.52-3.72 7.58-8.88 7.58zm3.62-54.12c-.02.41-.03.79-.04 1.16l-.02.75c-.05 2.08-.09 4.18-.13 6.28-.02.77-.03 1.53-.05 2.3.58-.29 1.2-.51 1.87-.67.09-.02 1.52-.3 3.31-.63l2.99-.56c1.88-.35 3.58-.67 4.64-.88.09-2.09.26-6.05.29-8.79-3.16.23-9.18.71-12.86 1.04z"/><path fill="#fff" d="M80.26 99.49a.304.304 0 0 0-.07-.05c-1.49-.98-3.85-.83-5.48-.58-4.05.6-5.31 4.87-5.63 8.65-.42 5.08-.09 10.27-.09 15.37 0 .79.07 1.58.34 2.33.1.3 1.4 2.35 6.29 2.35 4.8-.34 5.66-2.7 5.7-2.98.72-4.83.5-12.64.41-17.5-.08-2.64.87-5.8-1.47-7.59z"/><path fill="#855c52" d="M77.1 102.24c.79 0 1.21.1 1.33.13.12.43.04 1.58-.01 2.29-.05.78-.11 1.57-.09 2.31l.03 1.22c.09 4.4.24 10.9-.29 15.19-.37.19-1.13.48-2.57.59-1.69-.01-2.66-.28-3.15-.49-.01-.09-.01-.2-.01-.32 0-1.61-.03-3.24-.07-4.86-.07-3.69-.15-7.18.16-10.62.29-3.3 1.22-5.08 2.76-5.3.71-.09 1.36-.14 1.91-.14m0-4.02c-.88 0-1.74.09-2.47.19-4.46.62-5.85 5.02-6.2 8.92-.47 5.23-.11 10.58-.11 15.84 0 .81.08 1.64.37 2.4.12.31 1.54 2.42 6.94 2.42 5.29-.35 6.23-2.78 6.28-3.07.8-4.97.55-13.03.45-18.03-.06-2.72.99-5.98-1.59-7.83a.218.218 0 0 0-.08-.05c-.99-.6-2.3-.79-3.59-.79z"/><path fill="#ed6c30" d="M118.23 64.1c-.49-4.92-1.33-9.88-3.02-14.55-1.43-3.97-3.58-8.01-7.18-10.42-4.69-3.15-9.56-4.17-15.4-4.95-10.31-1.37-21.17.2-31.36 1.85-3.92.64-7.82 1.22-11.66 1.98-3.57.71-14.33 3.33-16.06 4.02-2.66 1.07-4.99 2.75-6.89 4.86-.95 1.04-4.36 6.2-5.56 12.8-1.73 9.65-1.64 21.41-1.22 28.96.02.53.64 3.85 2.39 5.36 1.75 1.51 26.54 12.28 37.6 16.02.39.46 1.77.52 2.32.59 1.37.18 2.75.06 4.09-.29.9-.24 1.6-.8 2.43-1.18 1.32-.61 2.65-1.2 3.97-1.8 2.52-1.14 4.95-2.43 7.39-3.74 2.11-1.13 4.46-1.77 6.66-2.81s4.39-2.08 6.57-3.13a763.29 763.29 0 0 0 18.79-9.34c1.8-.92 3.99-1.55 5.23-3.25 1.5-2.03 1.37-5.27 1.4-7.66.09-4.42-.05-8.88-.49-13.32z"/><path fill="#855c52" d="M119.68 63.86c-.51-5.07-1.37-10.17-3.11-14.98-1.48-4.08-3.7-8.25-7.39-10.73-4.83-3.24-9.85-4.29-15.86-5.1-10.62-1.42-21.8.2-32.29 1.91-4.03.66-8.04 1.25-12.01 2.04-3.66.73-14.75 3.43-16.52 4.14-2.74 1.1-5.15 2.83-7.1 5.01-.97 1.07-4.49 6.38-5.71 13.19-1.79 9.94-1.69 22.04-1.27 29.81.03.55.67 3.97 2.47 5.52 1.8 1.56 27.33 12.64 38.7 16.5.49.57 2.27.62 2.94.67 1.44.13 2.82-.2 4.23-.53 3.21-.75 6.02-2.84 9.01-4.17 3.88-1.72 7.66-3.67 11.49-5.47 2.26-1.06 4.51-2.14 6.76-3.22 6.49-3.12 12.94-6.32 19.34-9.61 1.85-.95 4.11-1.6 5.39-3.34 1.54-2.09 1.4-5.43 1.45-7.88.08-4.6-.06-9.19-.52-13.76zm-7.77 20.18c-8.06 4.26-17.29 9.15-25.26 12.81-1.53.7-3.07 1.38-4.61 2.06-3.69 1.62-7.41 3.19-11.09 4.86-.92.42-2.13.76-2.97 1.15-.95.45-2.03.85-2.9-.01-.96-.97-.59-3.21-.56-4.58.02-1.67.05-3.34.06-5.02.21-16.14.09-37.59-14.3-48.3-.96-.72-1.98-1.39-3.13-1.76-.89-.29-2-.38-2.76-.98-2.15-1.68 2.48-2.15 3.21-2.32 6.67-1.59 13.69-2.72 20.51-3.59 9.75-1.23 18.89-2.28 28.56.32 2.57.69 5.1 1.6 7.51 2.75 2.6 1.31 6.19 5.41 7.8 12.1 1.95 8.13 2.34 18.74 2.49 24.83.05 4.26-1.65 5.2-2.56 5.68z"/><path fill="#fcc21b" d="M77.46 63.32h.19c1.75 0 3.84-.58 3.87-2.52-.02-2.55-.02-5.09-.04-7.64-.03-4.76-.05-9.51-.08-14.27-.01-.59-.01-1.18-.02-1.77 0-.65-.01-1.31-.01-1.97 0-.85-.07-1.71-.01-2.57.02-.26.04-.51.08-.76.29-1.59 1.19-2.58 2.59-2.91.14-.03 3.37-.64 6.09-1.15 3.1-.59 5.74-1.08 5.94-1.14 2.71-.78 2.75-3.77 2.75-3.77s.43-8.87.32-11.99c-.1-2.73-2.37-2.9-2.93-2.9h-.12S82.58 9 78.65 9.41c-1.76.18-2.21 1.64-2.34 3.19-.1 1.12-.1 2.24-.13 3.37-.06 2.11-.1 4.21-.14 6.32-.05 2.73-.1 5.46-.14 8.19-.02.82-.02 1.65-.04 2.47-.02 1.51-.05 3.01-.07 4.52-.01.65-.02 1.31-.02 1.96-.05 2.86-.09 5.72-.12 8.59-.03 2.38-.06 4.76-.1 7.14-.01 1.52-.03 3.04-.05 4.57-.01.93-.24 2.2.31 2.96.41.56 1.02.62 1.65.63z"/><path fill="#855c52" d="M6.37 106.07c4.75 3.69 9.73 7.22 14.56 10.82.67.47 1.31.94 1.98 1.42 2.05 1.58 4.94 3.26 7.88 3.44 3.44.22 4.85-1.56 7.14-3.03 6.15-3.92 12.24-8.34 18.52-13.11 1.21-.92 2.42-1.86 3.7-2.82 2.24-1.72 4.75-3.86 3.84-6.44-.78-2.07-3.36-3.82-5.66-4.98-2.06-1.02-3.88-2.16-5.93-3.13-2.34-1.04-4.57-2.08-6.87-3.09-7.35-3.23-13.44.27-13.44.27l-19.62 7.05c-2.87 1.2-5.66 2.42-8.44 3.56-1.35.56-2.5 1.32-3.41 2.28-1.69 1.74.35 3.47 1.95 4.78 1.28 1 2.53 2 3.8 2.98z"/><defs><path id="aaia" d="M8.38 99.48c-.34-.09-.62-.26-.98-.31-.25-1.05 3.5-1.86 4.36-2.15.21-.06.4-.15.6-.22.32-.11.6-.22.9-.34 1.64-.62 3.19-1.27 4.87-1.87.11-.04.26-.1.37-.14 1.51-.55 3.04-1.14 4.53-1.72 3.48-1.33 7.05-2.74 10.6-4.28l.26-.09c1.18-.53 2.39-1.23 3.81-1.4 1.47-.19 3.75.71 5.05 1.26.53.26 1.31.53 1.74.92.9.83.81 2.02.82 3.04-.01 1.48-.22 2.8-.62 4.24-.56 2.01-.24 3.69-3.25 4.07-2.09.26-4.21-.17-6.29-.16h-.09c-2.35.02-4.73-.02-7.05-.16-3.53-.22-7.01-.31-10.48-.33-.17 0-.33-.01-.53 0-1.4-.01-2.84-.12-4.24-.18-.27-.01-.56-.03-.86-.03-.45-.01-.85-.04-1.36-.03-.66-.02-1.45.07-2.16-.12zm39.06.71c.13-.61.28-1.22.49-1.84l.36-1.67c1.34-.35 3.14.22 4.45.43 1.21.18 2.29.42 3.42.69.58.14 1.75.06 2.13.47.69.67-.82 1.2-1.43 1.55-1.53.91-2.77 2.12-4.21 3.08-1.16.77-2.19 1.64-3.35 2.4-.08.05-.15.09-.22.14-1.04.67-2.2 1.27-3.26 1.93-1.93 1.22-3.79 2.44-5.62 3.69-3.01 2.13-5.52 4.57-8.78 6.26-.52.26-1.31.49-1.62.04-.21-.35-.13-1.08-.14-1.47-.15-1.51.35-3.09.59-4.61.24-1.64.39-3.32.78-4.97.2-.88-.11-1.88.35-2.71.62-1.04 2.34-.51 3.54-.55 1.21-.05 2.38-.01 3.56-.04 1.35-.05 2.73.03 4.1-.01.64-.01 1.3-.05 1.91-.14 1.9-.29 2.52-1.3 2.95-2.67zm1.22-8.62c2.86.15 7.45 2.3 9.3 3.75 1.09.87.45.81-.93.64-1.5-.19-2.91-.53-4.42-.59-1.11-.05-2.62-.16-3.53-.68-.37-.21-.52-.39-.57-.62v-.56c.03-.51-.22-1.48.15-1.94zm-36.8 14.14c-.19-.14-.36-.29-.55-.44-.08-.06-.14-.11-.23-.17-.68-.61-1.31-1.22-2.02-1.83-.7-.6-.56-.85.31-.89.69-.03 1.38-.04 2.1-.05.29-.01.56-.02.89-.03 1.54-.01 3.08.03 4.69.09 2 .07 4.08.18 6.06.3 1.25.07 2.49.06 3.75.29l.18.04c.62.07 1.11.08 1.2.57.15.93-.59 1.78-.65 2.68-.05 1.25-.59 2.54-.81 3.74-.27 1.15-.57 2.27-.86 3.39-.14.33-.16 1.45-.47 1.63-.39.24-1.06-.38-1.41-.61-1.11-.8-2.2-1.74-3.41-2.46-1.51-.9-2.9-1.87-4.31-2.82-.17-.11-.31-.22-.5-.33-.69-.52-1.39-1.02-2.03-1.58-.57-.54-1.31-1.01-1.93-1.52z"/></defs><clipPath id="aaib"><use overflow="visible" xlink:href="#aaia"/></clipPath><path fill="#fcc21b" d="M38.32 85.32 3.69 99.01l1.26 3.9 25.57 16.8 31.14-20.33 1.49-4.18z" clip-path="url(#aaib)"/></svg><svg viewBox="0 0 128 128" id="1F4ED" xmlns="http://www.w3.org/2000/svg"><path fill="#fff" d="M80.26 99.48c-.02-.02-.05-.03-.07-.05-1.5-.98-3.86-.83-5.49-.58-4.04.6-5.31 4.87-5.63 8.66-.43 5.08-.09 10.27-.09 15.37 0 .79.07 1.59.33 2.33.11.3 1.4 2.35 6.29 2.35 4.81-.34 5.66-2.7 5.7-2.98.72-4.83.49-12.64.4-17.5-.04-2.64.91-5.81-1.44-7.6z"/><path fill="#855c52" d="M77.1 102.24c.72 0 1.13.08 1.35.15.11.44.03 1.57-.02 2.27-.06.79-.11 1.57-.09 2.31l.02 1.14c.09 4.43.24 10.97-.29 15.28-.37.19-1.13.48-2.57.59-1.69-.01-2.66-.28-3.15-.49-.01-.09-.01-.2-.01-.32 0-1.63-.04-3.27-.07-4.91-.08-3.68-.15-7.15.16-10.57.3-3.31 1.23-5.09 2.76-5.31.72-.09 1.36-.14 1.91-.14m0-4.02c-.88 0-1.73.09-2.46.19-4.46.63-5.85 5.02-6.21 8.92-.47 5.24-.1 10.58-.1 15.84 0 .81.08 1.64.37 2.4.12.31 1.54 2.42 6.94 2.42 5.29-.35 6.23-2.78 6.28-3.07.79-4.97.55-13.03.45-18.03-.05-2.72.99-5.98-1.59-7.83-.03-.02-.06-.03-.09-.05-.99-.6-2.3-.79-3.59-.79z"/><path fill="#ed6c30" d="M118.23 64.1c-.49-4.92-1.33-9.88-3.01-14.55-1.44-3.97-3.59-8.01-7.18-10.42-4.69-3.15-9.56-4.17-15.4-4.95-10.32-1.38-21.18.19-31.37 1.85-3.91.64-7.81 1.22-11.66 1.98-3.57.7-14.33 3.33-16.06 4.02-2.65 1.07-4.98 2.75-6.89 4.87-.94 1.04-4.35 6.2-5.55 12.8-1.74 9.65-1.64 21.4-1.23 28.96.02.53.65 3.86 2.39 5.37 1.75 1.51 26.55 12.28 37.6 16.02.4.47 1.78.53 2.32.6 1.37.18 2.76.06 4.1-.29.89-.23 1.6-.8 2.43-1.18 1.31-.61 2.65-1.2 3.97-1.8 2.51-1.14 4.95-2.44 7.38-3.74 2.11-1.13 4.46-1.78 6.67-2.81 2.2-1.03 4.39-2.08 6.57-3.13 6.3-3.03 12.57-6.14 18.79-9.34 1.79-.92 3.99-1.55 5.23-3.24 1.49-2.03 1.36-5.27 1.4-7.66.09-4.47-.05-8.93-.5-13.36z"/><path fill="#855c52" d="M119.68 63.86c-.5-5.07-1.37-10.17-3.1-14.98-1.47-4.08-3.7-8.25-7.39-10.73-4.83-3.24-9.85-4.29-15.86-5.1-10.62-1.42-21.8.2-32.29 1.91-4.04.66-8.06 1.25-12.01 2.04-3.67.73-14.76 3.43-16.53 4.14-2.74 1.1-5.14 2.83-7.1 5.01-.96 1.07-4.48 6.38-5.71 13.19-1.79 9.94-1.69 22.04-1.26 29.81.02.55.67 3.97 2.46 5.52 1.8 1.56 27.34 12.64 38.71 16.5.49.57 2.27.62 2.93.67 1.45.12 2.83-.2 4.23-.53 3.21-.75 6.02-2.84 9.02-4.17 3.88-1.72 7.65-3.67 11.49-5.47 2.26-1.06 4.52-2.14 6.76-3.22 6.49-3.12 12.95-6.32 19.35-9.62 1.85-.95 4.11-1.6 5.39-3.34 1.54-2.09 1.4-5.43 1.44-7.89.07-4.58-.07-9.17-.53-13.74zm-7.77 20.18c-8.06 4.26-17.3 9.15-25.27 12.81-1.52.7-3.07 1.39-4.6 2.06-3.7 1.62-7.42 3.19-11.09 4.86-.91.42-2.13.76-2.96 1.15-.95.45-2.04.85-2.9-.01-.97-.97-.59-3.21-.56-4.58l.06-5.02c.2-16.14.09-37.6-14.31-48.31-.96-.72-1.97-1.39-3.12-1.76-.9-.29-2.01-.38-2.77-.98-2.15-1.68 2.49-2.15 3.22-2.33 6.67-1.58 13.69-2.72 20.5-3.58 9.75-1.23 18.89-2.28 28.56.32 2.58.69 5.11 1.6 7.51 2.75 2.6 1.31 6.19 5.41 7.8 12.1 1.95 8.13 2.35 18.74 2.49 24.83.05 4.27-1.66 5.21-2.56 5.69z"/><path fill="#fcc21b" d="M100.28 62.49c-2.06.44-16.99 4.08-22.36 5.59-1.71.48-3.77.79-5.09 2.06-.82.78-.77 1.82-.75 2.87.02 1.4.02 2.81.27 4.19.35 1.89 1.87 1.82 3.37 1.29.93-.33 16.05-6.24 18.85-6.29 1.94-.04 1.67 5.23 2.96 7.5 1.59 2.81 4.65.89 6.64-.04 2.39-1.13 3.42-3 3.74-5.7.38-3.24.71-6.85.05-10.07-.77-3.75-5.21-1.93-7.68-1.4z"/></svg><svg viewBox="0 0 128 128" id="1F4EE" xmlns="http://www.w3.org/2000/svg"><path fill="#ed6c30" d="m86.6 26.5 28.09-7.47-1.78-3.56L63.84 3.03l-32 6.75v2.49z"/><path fill="#ed6c30" d="m86.6 26.5 25.96-7.11 5.33 5.33-1.06 54.76L86.6 95.12z"/><path fill="#ed6c30" d="m26.5 12.98 61.17 14.23-1.78 66.84-55.47-9.6-7.12-5.68z"/><path fill="#fcc21b" d="M45 26.85 10.5 52.1l2.14 5.33L45.7 75.21l25.26-35.56v-5.33z"/><path fill="#855c52" d="M120.86 43.81c-.1-6.78.9-14.4-.59-21.23-.29-1.33-.68-2.63-1.18-3.9-2.58-6.42-9.03-7.68-15.02-9.41-11.86-3.42-24.39-6.04-36.6-7.89C55.5-.43 44.8 2.58 33.17 5.19 25.08 7 21.29 11.16 20.57 19.48c-.6 6.93-.58 13.99-.49 21.03-3.03 2.27-6.03 4.58-9.07 6.84a13.89 13.89 0 0 0-3.7 4.09c-.96 1.61-.08 3.58 1.19 4.76 2.12 1.98 4.12 4.03 6.77 5.33 1.74.87 3.44 1.9 5.11 2.98.07 2.81.14 5.62.2 8.43.03 1.51.06 3.02.08 4.53.01.35.48 4.72 3.06 6.23 5.97 3.48 13.5 5.08 20.06 7.01 2.95.87 5.91 1.72 8.88 2.54 1.23.34 2.53.57 3.73.97.99.32 3 .74 2.62 2.19-.22.83-1.18.85-1.9 1-1.1.22-2.21.36-3.3.56-1.58.28-3.13.64-4.64 1.13-2.44.79-4.99 1.91-6.74 3.85-1.73 1.93-1.92 4.16-1.92 6.6v2.67c0 .7.06 1.45.24 2.16-.04 3.21 2.66 6.23 7.67 8.5 4.53 2.06 10.6 3.41 17.08 3.81 1.33.08 2.63.12 3.89.12 5.5 0 11.21-.56 16.24-2.9 1.75-.81 3.78-1.78 4.9-3.42 1.37-2 1.15-4.61 1.17-6.91.03-2.44.27-5.15-1.08-7.32-1.5-2.41-4.15-3.98-6.68-5.13-2.23-1.01-4.83-1.85-7.66-2.49v-.14c3.87.47 7.76.51 11.58-.49l.18-.07c.84-.12 1.66-.51 2.42-.83 2.52-1.04 5.08-1.92 7.65-2.83 4.08-1.45 8.07-3.19 11.88-5.25 2.72-1.48 6.55-3.17 8.42-5.71 3.3-4.49 2.14-11.29 2.32-16.51.26-7.68.24-15.32.13-23zM16.1 51.58c-.39-.05-.77-.22-1.16-.21-.52-1.42 3.68-3.46 4.59-4.06.22-.14.42-.3.63-.45.32-.23.64-.46.97-.69 1.68-1.2 3.32-2.45 5.02-3.63.13-.09.26-.19.39-.28 1.52-1.06 3.02-2.15 4.52-3.23 3.39-2.44 6.74-4.93 10.02-7.54l.18-.15c1.1-.88 2.13-1.96 3.49-2.42 1.41-.48 3.82.2 5.18.65.62.21 1.44.4 1.95.79 1.08.85 1.31 2.31 1.59 3.56.41 1.81.54 3.51.54 5.39 0 2.67.8 4.76-2.11 5.91-2.03.8-4.31.7-6.43 1.18-.02 0-.04.01-.07.01-2.45.55-4.92 1.04-7.41 1.38-3.85.53-7.65 1.23-11.46 2.02-.2.04-.39.07-.58.11-1.59.33-3.2.53-4.8.77-.32.05-.65.1-.97.16-.53.09-1.05.19-1.57.31-.8.21-1.65.51-2.51.42zm41.66-8c-.01-.82-.05-1.63-.05-2.45l-.12-2.18c1.19-.7 3.07-.35 4.39-.35 1.17 0 2.28.08 3.42.18.58.05 1.6-.25 2.09.17.83.7-.42 1.65-.86 2.21-1.16 1.46-1.94 3.23-3.03 4.76-.88 1.25-1.62 2.62-2.5 3.86-.06.08-.12.16-.19.24-.83 1.14-1.81 2.2-2.65 3.33-1.58 2.12-3.14 4.26-4.62 6.45-2.57 3.82-4.53 8.06-7.62 11.51-.48.54-1.29 1.12-1.74.53-.35-.45-.44-1.58-.57-2.14-.52-2.2-.39-4.67-.53-6.94-.16-2.42-.43-4.83-.43-7.25 0-1.26-.62-2.55-.32-3.82.38-1.57 2.3-1.24 3.54-1.59 1.22-.35 2.44-.56 3.66-.89 1.34-.37 2.77-.58 4.13-.93.65-.17 1.28-.35 1.87-.62 1.79-.79 2.13-2.24 2.13-4.08zm-1.22-11c2.76-.35 7.62 1.42 9.77 2.83 1.28.85.64.91-.67.95-1.42.05-2.86-.09-4.28.11-1.08.15-2.55.31-3.58-.16-.4-.18-.59-.39-.71-.67-.07-.19-.11-.4-.14-.67-.08-.65-.61-1.77-.39-2.39zm-35.26 27.1c-.24-.16-.5-.31-.73-.5-.08-.07-.17-.13-.25-.2-.9-.72-1.79-1.43-2.72-2.11-.94-.69-.8-1.09.18-1.38.81-.23 1.64-.43 2.47-.63.33-.08.64-.18.98-.25 1.77-.41 3.55-.76 5.35-1.07 2.28-.4 4.58-.76 6.8-1.09 1.37-.2 2.73-.52 4.13-.52h.24c.63-.03 1.15-.13 1.36.53.39 1.25-.21 2.61-.03 3.88.24 1.79.03 3.74.03 5.55 0 1.73-.08 3.47-.13 5.2-.02.5.23 2.18-.08 2.55-.41.49-1.3-.24-1.74-.5-1.46-.87-2.91-1.94-4.43-2.68-1.89-.92-3.72-1.95-5.57-2.97-.2-.12-.38-.24-.58-.36-.93-.56-1.8-1.14-2.71-1.78-.83-.57-1.73-1.1-2.57-1.67zm61.59 26.84c.04 2.06-.35 3.57-1.15 4.55-1.08 1.32-2.92 1.69-5.43 1.22-.08-.01-.15-.01-.23-.03-.2-.04-.41-.07-.61-.12-.28-.05-.57-.1-.85-.16-3.73-.73-7.49-1.36-11.21-2.2-1.87-.42-3.73-.85-5.61-1.3l-.85-.2c-.28-.07-.57-.13-.84-.2-7.43-1.79-14.82-3.85-21.85-6.73-1.96-.8-6.84-2.37-7.24-5.01-.07-.5-.52-3.55-.5-5.09.01-.88.02-1.81.02-2.76.9.48 1.85.91 2.75 1.39 2.58 1.35 5.03 2.96 7.55 4.42 1.03.6 2.22.98 3.3 1.5.98.47 1.83.94 2.88 1.2 1.69.4 3.39.73 4.84-.52a23.49 23.49 0 0 0 4.76-5.66c1.29-2.16 2.84-4.19 4.1-6.4 1.23-2.14 2.85-4.09 4.12-6.26 1.18-2.02 2.64-3.83 3.73-5.86.23-.44.5-.87.74-1.3.67.11 1.33.2 1.99.25 3.5.26 6.12.12 7.54-3.43.66-1.65.38-3.63.38-5.39 0-2.36.17-5-.57-7.21-1.14-3.38-4.87-4.36-7.94-5.05-4.63-1.05-9.31-1.79-13.92-2.99-4.31-1.12-8.79-2.38-13.16-3.22-1.2-.23-2.42-.39-3.64-.45-1.26-.07-2.6.02-3.52.72-1.98 1.52-1.52 4.93-1.78 7.08-.08.65-.08 1.32-.07 1.98-1.38.83-2.75 1.66-4.08 2.57 0-7.1.03-12.42.16-13.34.33-2.31.8-4.56 1.33-5.19.93-1.13 2.03-1.56 3.22-1.65 5.14.29 10.84 1.9 16.18 3.35 6.18 1.69 12.62 2.35 18.74 4.27 1.35.42 2.75.52 4.1.94 1.08.33 2.17.6 3.27.85 1.48.34 3.04.93 4.52 1.46 5.86 2.1 4.69 9.36 4.88 14.46.23 5.92.41 11.85.41 17.78.01 9.55-.67 18.18-.46 27.73zM63.89 16.9c-7.12-1.3-14.18-2.88-21.28-4.28-1.68-.33-3.34-.82-5.02-1.17-4.37-.91.82-2.18 2.29-2.43 1.95-.33 14.44-2.5 18.55-2.52 4.64-.03 9.26.51 14.33 1.45 6.33 1.17 12.53 2.84 18.87 3.97 3.68.65 7.26 1.84 10.88 2.73.96.24 3.76.58 4.2 1.55.82 1.78-14.6 5.09-16.96 5.16-8.73.25-17.04-2.85-25.86-4.46zm51.32 53.47c-.19 3.79-.12 6.19-.76 7.91-1.2 3.25-6.39 5.32-6.39 5.32s-9.02 4.41-14.7 6.19c-5.69 1.78-3.92-7.11-3.92-7.11s.16-38.04 0-44.8c-.23-10.08 4.88-10.66 4.88-10.66l13.87-3.56c7.63-2.4 6.88 5.05 6.88 5.05s.75 29.34.14 41.66z"/><path fill="#855c52" d="M45 107.03v7.07s.62 2.8 2.89 3.87c2.27 1.07 7.6 4.53 18.8 4.8 11.2.27 18.13-3.6 18.13-3.6s2.27-.93 2.4-3.33c.13-2.4.16-6.19.16-6.19L45 107.03z"/><path fill="#78a3ad" d="M77.64 103.25c1.58.5 3.13 1.12 4.55 1.76 3.93 1.78 5.25 3.61 5.19 4.64-.02.19-.08.38-.18.58-.24.5-.76 1.03-1.52 1.55-.59.4-1.33.8-2.22 1.17-3.05 1.27-7.81 2.27-14.05 2.27-1.18 0-2.39-.04-3.63-.11-5.98-.37-11.51-1.59-15.58-3.44-.46-.21-.88-.42-1.27-.62-.87-.46-1.58-.92-2.13-1.36-.74-.59-1.22-1.15-1.49-1.63-.23-.39-.33-.74-.31-1.02.09-1.5 2.18-2.5 3.33-3.03 1.25-.58 2.58-1 3.91-1.34 1.57-.4 3.27-.83 4.88-.96 5.18-.42 10.59-.09 15.76.49 1.54.16 3.17.55 4.76 1.05z"/><g fill="#855c52"><path d="M74.33 105.74v-9.48l-16.39-3.57v12.54c-.11 1.73 3.48 3.35 8.01 3.63 4.52.28 8.28-.89 8.38-2.62.02-.17-.04-.34-.1-.51l.1.01z"/><path d="M67.26 111.04c-.47 0-.95-.01-1.44-.04-2.45-.15-4.75-.67-6.5-1.46-3.21-1.45-3.58-3.4-3.51-4.43V92.7c0-.65.29-1.26.8-1.66a2.2 2.2 0 0 1 1.79-.43l16.4 3.57c.98.21 1.68 1.08 1.68 2.09v9.48c0 .06-.01.13-.01.19.01.16.02.33 0 .52-.19 2.8-3.71 4.58-9.21 4.58zm-7.19-5.99c.54.53 2.69 1.48 6.01 1.69 3.19.21 5.37-.45 6.05-.87-.08-.35-.06-.68.07-1v-6.88l-12.13-2.64v9.7z"/></g></svg><svg viewBox="0 0 128 128" id="1F5F3" xmlns="http://www.w3.org/2000/svg"><path fill="#006ca2" d="M16.28 98.57C12.28 96.75 9 91.66 9 87.26v-34c0-4.4 3.28-9.49 7.28-11.31l40.43-18.38c4.01-1.82 10.56-1.82 14.57 0l40.43 18.38c4.01 1.82 7.28 6.91 7.28 11.31v34c0 4.4-3.28 9.49-7.28 11.31l-40.43 18.38c-4.01 1.82-10.56 1.82-14.57 0L16.28 98.57z"/><path fill="#40c0e7" d="M71.28 66.95c-4.01 1.82-10.56 1.82-14.57 0L16.28 48.57c-4.01-1.82-4.01-4.8 0-6.62l40.43-18.38c4.01-1.82 10.56-1.82 14.57 0l40.43 18.38c4.01 1.82 4.01 4.8 0 6.62L71.28 66.95z"/><path fill="#006ca2" d="M82.69 55.93c-1 .46-2.64.46-3.64 0L40.52 38.42c-1-.46-1-1.2 0-1.66l4.79-2.18c1-.46 2.64-.46 3.64 0L87.48 52.1c1 .46 1 1.2 0 1.66l-4.79 2.17z"/><path fill="#fbc21a" d="M79.34 53.73c0 .01-.01.01-.01.01L46.01 38.6c-.01-.01-.01-.01-.01-.02L57.56 7.75c0-.01.01-.01.01-.01l33.32 15.14c.01 0 .01.01.01.01L79.34 53.73z"/><path fill="none" stroke="#875a3b" stroke-miterlimit="10" stroke-width="2" d="M79.33 53.74 90.9 22.89"/><path fill="#006ca2" d="M163.15 98.32c-4.01-1.82-7.28-6.91-7.28-11.31v-34c0-4.4 3.28-9.49 7.28-11.31l40.43-18.38c4.01-1.82 10.56-1.82 14.57 0l40.43 18.38c4.01 1.82 7.28 6.91 7.28 11.31v34c0 4.4-3.28 9.49-7.28 11.31l-40.43 18.38c-4.01 1.82-10.56 1.82-14.57 0l-40.43-18.38z"/><path fill="#40c0e7" d="M218.15 66.7c-4.01 1.82-10.56 1.82-14.57 0l-40.43-18.38c-4.01-1.82-4.01-4.8 0-6.62l40.43-18.38c4.01-1.82 10.56-1.82 14.57 0l40.43 18.38c4.01 1.82 4.01 4.8 0 6.62L218.15 66.7z"/><path fill="#006ca2" d="M228.82 55.19c-1 .46-2.64.46-3.64 0l-36.69-16.68c-1-.46-1-1.2 0-1.66l4.43-2.01c1-.46 2.64-.46 3.64 0l36.69 16.68c1 .46 1 1.2 0 1.66l-4.43 2.01z"/><path fill="#006ca2" d="M229.55 55.69c-1 .46-2.64.46-3.64 0l-38.53-17.51c-1-.46-1-1.2 0-1.66l4.79-2.18c1-.46 2.64-.46 3.64 0l38.53 17.51c1 .46 1 1.2 0 1.66l-4.79 2.18z"/><path fill="#fbc21a" d="m239.93 23.14-9.08 13.03c-4.97 7.13-4.66 17.33-4.66 17.33l-33.32-15.15s-.32-10.2 4.66-17.33l9.08-13.03 33.32 15.15z"/><path fill="none" stroke="#875a3b" stroke-miterlimit="10" stroke-width="2" d="m239.93 23.14-9.08 13.03c-4.97 7.13-4.66 17.33-4.66 17.33"/><path fill="none" stroke="#875a3b" stroke-linecap="round" stroke-linejoin="round" stroke-miterlimit="10" stroke-width="4" d="M203 34.54c2.99-2.98 20.09-7.79 23.53-7.6m-16.66-7.58c.07 2.81 5.37 16.89 9.79 22.76"/></svg><svg viewBox="0 0 128 128" id="2709" xmlns="http://www.w3.org/2000/svg"><g fill="#fcc21b" fill-rule="evenodd" clip-rule="evenodd"><path d="M20.97 50.92v45.02h86.06V50.92L64 72.31z"/><path d="M20.97 32.06v11.98L64 65.43l43.03-21.39V32.06z"/></g></svg></svg>