<?xml version="1.0" encoding="utf-8"?><svg viewBox="0 0 128 128" xmlns="http://www.w3.org/2000/svg" xmlns:xlink="http://www.w3.org/1999/xlink"><style>:root>svg{display:none}:root>svg:target{display:block}</style><svg viewBox="0 0 128 128" id="1F648" xmlns="http://www.w3.org/2000/svg"><path fill="#fcc21b" d="M103.14 55.92c-.64 3.85-.5 7.78-.57 11.67-.02 1.1-.03 2.2-.05 3.3-.04 1.09-.23 1.52.84 1.82 3.8 1.05 8.49-1.38 9.71-5.14.32-.99.58-2.24.73-3.28.15-1.15.52-2.83.37-3.97-.28-1.98-1.58-3.82-2.51-5.54-.61-1.13-1.23-2.09-2.46-2.57-1.21-.47-4.06-.94-5.17-.11-1.06.78-.69 2.67-.89 3.82zm-77.49-3.74c-1.49-.02-2.43-.51-3.88 0-1.81.65-3.75 1.51-4.93 3.13-1.74 2.41-2.55 7.1-1.71 9.85 1 3.19 2.12 6.09 5.75 6.92 1.96.46 6.77.33 7.08-2.21l-2.31-17.69z"/><path fill="#2f2f2f" d="M103.11 49.38c2.17-.4 4.86.24 6.84 1.33 5.11 2.81 6.27 9.59 5.07 15.25-.96 4.52-3.58 7.91-8.96 9.26-3.25.81-5.7-.57-5.7-.57s1.33-3.97 1.77-5.37c4.86 2.47 7.9-.74 8.43-6.25.85-8.92-7.95-7.87-7.95-7.87s.16-4.18.5-5.78zm-78.68 0c-2.16-.4-4.86.24-6.84 1.33-5.1 2.81-6.27 9.59-5.07 15.25.96 4.52 3.57 7.91 8.96 9.26 3.25.81 5.71-.57 5.71-.57s-1.33-3.97-1.77-5.37c-4.87 2.47-7.91-.74-8.43-6.25-.85-8.92 7.94-7.87 7.94-7.87s-.17-4.18-.5-5.78z"/><path fill="#2f2f2f" d="M105.04 58.09c-.66-11.71-6.22-23.76-14.84-31.24-6.98-6.05-16.8-9.15-26.42-9.12-9.63-.02-19.45 3.07-26.42 9.12-8.63 7.49-14.19 19.54-14.85 31.24-.62 11.11 1.24 22.31 9.78 30.04 4.73 4.28 10.62 7.18 16.68 8.75 2.31.6 8.26 1.99 14.51 1.99s12.79-1.39 15.09-1.99c6.07-1.57 11.95-4.47 16.69-8.75 8.54-7.73 10.4-18.92 9.78-30.04z"/><path fill="#fcc21b" d="M89.99 65.18c-.34-2.75-.31-6.34.42-9.02.93-3.44 1.37-6.89.1-10.29-1.36-3.65-3.78-6.77-7.22-8.02-1.21-.44-2.56-.41-3.83-.51-5.45-.44-10.25 5.45-15.69 5.27-5.44.18-10.25-5.71-15.69-5.27-1.27.1-2.61.07-3.83.51-3.44 1.25-5.85 4.37-7.21 8.02-1.27 3.4-.83 6.85.1 10.29.73 2.68.76 6.27.42 9.02-.33 2.62-1.6 5.06-1.75 7.69-.39 7.18 4.93 12.02 10.25 14.74 5.26 2.68 11.7 3.71 17.71 3.58 6.01.12 12.45-.9 17.71-3.58 5.32-2.72 10.63-7.56 10.24-14.74-.13-2.63-1.41-5.08-1.73-7.69z"/><path fill="#2f2f2f" d="M67 63.24c-1.12-.65-3.53-.7-5.11-.38-3.81.75-2.54 3.61-.25 4.68.7.33 1.6.53 2.61.42 1.66-.18 2.25-.72 2.83-1.38.95-1.06 1.29-2.54-.08-3.34z"/><g fill="#855c52"><path d="M12.79 67.58c1.23-1.45 2.57-2.91 4.04-4.38-.01-.1-.02-.19-.04-.28-.58-6.08 3.31-7.54 5.86-7.86-.13.97-.26 1.93-.31 2.9 0 .05 0 .09-.01.14.08-.06.15-.13.22-.19.59-.5 1.17-1 1.75-1.51 1.29-1.14 2.24-2.74 3.25-4.44.2-.34.4-.68.61-1.02.89-1.47 1.97-2.9 3.43-4.5 2.2-2.4 5.13-5.59 9.51-6.97.92-.78 1.92-1.41 3.07-1.83 1.22-.44 2.58-.4 3.84-.51 5.48-.44 10.3 5.47 15.76 5.3 5.46.18 10.29-5.74 15.76-5.3 1.27.11 2.62.07 3.85.51 1.04.38 1.97.95 2.82 1.63 4.77 1.24 7.9 4.64 10.2 7.17 1.46 1.6 2.55 3.03 3.44 4.5.2.34.41.68.61 1.03 1 1.69 1.95 3.29 3.25 4.44.49.43.99.85 1.48 1.28-.05-.87-.17-1.74-.28-2.61 2.54.31 6.37 1.76 5.87 7.72 1.49 1.48 2.86 2.95 4.12 4.41.13-.44.26-.87.36-1.33 1.21-5.69.03-12.49-5.09-15.31-1.84-1.01-4.25-1.59-6.32-1.38-2.26-8.72-7.02-16.94-13.52-22.58-7-6.08-16.87-9.19-26.54-9.17-9.66-.02-19.53 3.08-26.53 9.17-6.5 5.64-11.27 13.86-13.52 22.58-2.07-.21-4.49.37-6.32 1.38-5.13 2.82-6.3 9.63-5.09 15.31.12.58.28 1.15.47 1.7z"/><path d="M125 90.64c-.24-.93-.55-1.87-.9-2.81-.17-.47-.36-.95-.56-1.42-2.85-6.85-7.71-13.19-7.71-13.19l-.02.01c-.67-.91-1.35-1.81-2.04-2.67-.09-.11-.19-.21-.29-.32a72.412 72.412 0 0 0-3.5-3.94c-1.32-1.37-2.69-2.7-4.08-3.98-.2-.18-.4-.35-.59-.52-1.2-1.06-2.43-2.08-3.63-3.14-1.95-1.72-3.12-3.98-4.44-6.16-.87-1.45-1.94-2.77-3.08-4.02-1.29-1.41-2.57-2.77-4.01-3.9-1.49-1.17-3.16-2.08-5.17-2.51-.5-.11-1.09-.18-1.66-.18-.53 0-1.05.06-1.5.2-2.18.67-3.1 2.19-.66 3.29.77.34 1.53.62 2.17 1.23.39.37 1.38 2 .3 2l-.14-.01c-1.29-.14-2.72-1.14-3.97-1.55-1.29-.42-2.61-.66-3.97-.66h-.11c-2.75.02-5.49.91-7.13 3.25-1.89 2.71-2.38 6.67-1.47 9.92.73 2.64 2.56 5.03 4.98 6.29 2.38 1.24 5.2 1.88 7.81 2.37 4.36.83 8.15 1.97 11.74 4.68.17.13.32.28.49.41 3.06 2.43 5.54 5.52 7.94 8.58.14.17.25.35.38.52.22.29.43.6.66.9.4.63 1.17 1.92 1.58 3.16.34 1.02.43 1.99.29 2.51-.09.37-.31.52-.63.29-1.41-.97-3.68-4.18-3.68-4.18l-.01-.01-.09-.01c.01-.02.03-.04.04-.05-.3-.42-.59-.84-.92-1.25-1.86-2.38-3.8-4.81-6-6.86-1.36 4.98-5.6 8.51-9.85 10.68-5.28 2.69-11.74 3.72-17.78 3.6-6.03.12-12.5-.91-17.78-3.6-4.16-2.12-8.3-5.55-9.76-10.36-2.06 1.98-3.88 4.28-5.65 6.54-.34.44-.64.88-.96 1.31l-.01.01s-.06.09-.15.21c-.51.71-2.33 3.14-3.52 3.97-.33.23-.54.08-.64-.29-.14-.52-.05-1.49.29-2.51.41-1.24 1.18-2.53 1.58-3.16.14-.19.28-.38.41-.57.21-.28.4-.57.62-.85 2.28-2.9 4.64-5.83 7.49-8.2.32-.26.61-.55.93-.79 3.6-2.7 7.39-3.85 11.75-4.68 2.62-.5 5.44-1.13 7.82-2.37 2.41-1.26 4.25-3.66 4.98-6.29.89-3.25.42-7.21-1.47-9.92-1.65-2.34-4.39-3.23-7.13-3.25h-.12c-1.35 0-2.67.23-3.97.66-1.25.41-2.68 1.4-3.97 1.55l-.15.01c-1.08 0-.08-1.63.3-2 .64-.61 1.4-.88 2.17-1.23 2.44-1.09 1.52-2.61-.66-3.29-.45-.14-.97-.2-1.5-.2-.58 0-1.16.07-1.66.18-2.33.5-4.19 1.65-5.86 3.09-1.17 1.01-2.25 2.15-3.32 3.33-1.14 1.25-2.21 2.57-3.08 4.02-1.32 2.19-2.49 4.45-4.44 6.16-1.35 1.2-2.75 2.32-4.09 3.54-.04.05-.09.08-.14.13a94.54 94.54 0 0 0-4.4 4.33c-1.19 1.26-2.36 2.54-3.44 3.88l-.03.03c-.69.85-1.37 1.76-2.04 2.67l-.02-.01s-4.85 6.34-7.71 13.19c-.2.47-.39.94-.57 1.42-.35.93-.65 1.87-.89 2.79-1.39 5.43-.75 11.12 3.98 14.76 4.51 3.48 14.33 5.45 20.21 2.5 6.22-3.11 10.99-9.28 13.88-13.88 2.53 1.21 5.16 2.18 7.84 2.87 2.32.6 8.3 2 14.57 2 6.28 0 12.84-1.4 15.15-2 2.72-.7 5.37-1.68 7.92-2.91 2.78 4.95 7.53 11.81 13.96 15.03 5.89 2.95 14.09 1.78 18.6-1.7 4.73-3.64 7.28-11.23 5.89-16.67z"/></g><path fill="#ed6c30" d="M64.47 70.46c-1.22-.29-2.3.24-3.14 1.11-2.74 2.86-4.27 10.4.3 12.39 1.9.83 4.78.72 6.13-1.01 1.64-2.11 1.23-6.01.11-8.82-.7-1.76-1.41-3.2-3.4-3.67z"/></svg><svg viewBox="0 0 128 128" id="1F649" xmlns="http://www.w3.org/2000/svg"><path fill="#2f2f2f" d="M26.45 43.17c-.49-.77-1.31-1.25-2.13-1.58-4.14-1.65-11.78 2.24-10.14 7.45.32 1.04 1.51 2.23 1.84 3.27.75 2.39 1.13 4 1.09 6.49-.03 1.74-.23 3.46-.23 5.2 0 1.66.02 3.4.65 4.95.14.36.24.8.49 1.11.17.22.38.36.51.63.32.67.3 1.53.24 2.26-.04.48-.2.94-.18 1.42.05 1.11.37 2.52 1.49 2.96 1.84.73 3.85.4 4.95-1.09 1.2-1.62 1.38-3.99 1.38-5.94 0-.98-.12-2-.32-2.94-.14-.59-.19-1.17-.4-1.77-.21-.57-.41-1.12-.57-1.7-.31-1.12-.77-2.2-.95-3.33-.18-1.1-.34-2.14-.35-3.27 0-1.01.15-2.05.3-3.03.12-.84.45-1.56.67-2.38.12-.47.3-.93.43-1.39.12-.41.41-.73.61-1.1.18-.32.33-.65.54-.96 1.01-1.47 1.01-3.79.08-5.26zm75.3 0c.49-.77 1.31-1.25 2.14-1.58 4.15-1.65 11.77 2.24 10.14 7.45-.32 1.04-1.51 2.23-1.83 3.27-.74 2.39-1.13 4-1.09 6.49.03 1.74.23 3.46.23 5.2 0 1.66-.03 3.4-.65 4.95-.15.36-.25.8-.48 1.11-.18.22-.38.36-.51.63-.32.67-.31 1.53-.23 2.26.05.48.2.94.18 1.42-.05 1.11-.37 2.52-1.48 2.96-1.85.73-3.86.4-4.96-1.09-1.2-1.62-1.37-3.99-1.37-5.94 0-.98.11-2 .32-2.94.13-.59.18-1.17.4-1.77.21-.57.4-1.12.57-1.7.31-1.12.76-2.2.94-3.33.18-1.1.34-2.14.35-3.27 0-1.01-.15-2.05-.3-3.03-.13-.84-.45-1.56-.68-2.38-.13-.47-.29-.93-.43-1.39-.12-.41-.41-.73-.62-1.1-.18-.32-.32-.65-.54-.96-1.03-1.47-1.04-3.79-.1-5.26z"/><path fill="#2f2f2f" d="M105.16 58.01c-.65-11.74-6.23-23.82-14.88-31.33-6.99-6.08-16.85-9.17-26.5-9.15-9.66-.02-19.51 3.07-26.5 9.15-8.65 7.51-14.23 19.59-14.89 31.33-.62 11.15 1.24 22.38 9.81 30.13 4.73 4.29 10.64 7.2 16.72 8.78 2.31.6 8.29 2 14.55 2 6.27 0 12.82-1.39 15.13-2 6.09-1.57 11.99-4.49 16.73-8.78 8.59-7.76 10.45-18.99 9.83-30.13z"/><path fill="#855c52" d="M118.76 71.18c-.16-.26-.26-.5-.4-.76-.38-.71-.69-1.4-.93-2.07-.36-1.03-.58-1.97-.68-2.81 2.23-5.15 2.34-10.22.2-15.13-.8-1.83-3.72-7.82-7.72-7.82-1.01 0-2.1.39-3.23 1.16-1.6 1.09-1.55 2.62-.49 5.51.19.53.41 1.09.67 1.71.54 1.31 1.05 2.55 1.25 3.69.08.43.12.85.15 1.27.19 2.84-.58 5.53-1.31 8.14-.6 2.12-1.14 4.15-1.13 6.05.01.47.01.94.09 1.39.19 1.06.62 2.39 1.5 3.37.04.06.06.11.1.17.39.66.88 1.54 1.43 2.57.28.53.59 1.12.91 1.75.85 1.65 1.79 3.59 2.8 5.89 1.51 3.44 1.39 7.42-1.86 7.01-3.46-.44-6.59-4.17-8.6-6.49-.66-.76-1.38-1.46-2.11-2.09 1.64-2.32 2.88-4.83 3.79-7.48-.17-.27-.32-.55-.46-.84-.48-.96-.86-2.01-1.08-3.22-.04-.21-.05-.42-.08-.63-.35-2.89.43-5.71 1.2-8.44.77-2.74 1.5-5.32 1.08-7.82-.01-.05-.04-.13-.06-.19-.13-.67-.47-1.52-.86-2.45-.04-.09-.07-.17-.11-.27-1.08-2.6-2.57-6.23-1.06-9.2-2.6-6.37-6.49-12.18-11.44-16.48-7-6.08-16.87-9.19-26.53-9.16-9.67-.02-19.53 3.08-26.53 9.16-4.82 4.18-8.63 9.79-11.23 15.96 1.97 3.01.34 6.93-.81 9.7-.18.44-.35.86-.51 1.27-.21.55-.38 1.05-.47 1.47-.02.05-.04.13-.05.18-.42 2.5.3 5.09 1.08 7.82.83 2.93 1.68 5.95 1.12 9.07-.02.1-.05.18-.07.27-.22 1.06-.55 2-.97 2.86-.24.49-.51.93-.8 1.34.93 2.59 2.18 5.04 3.82 7.31-.64.58-1.27 1.19-1.84 1.85-2.01 2.32-5.14 6.06-8.61 6.49-3.25.41-3.36-3.57-1.85-7.01 1.01-2.3 1.95-4.24 2.8-5.89.32-.63.62-1.22.91-1.75.53-.98.99-1.81 1.37-2.45.06-.11.12-.2.18-.3.87-.98 1.31-2.31 1.5-3.37.08-.43.08-.88.09-1.33 0-.04.01-.07.01-.11 0-1.07-.17-2.17-.44-3.31-.2-.88-.43-1.77-.7-2.7-.76-2.68-1.53-5.45-1.28-8.37.03-.35.06-.7.12-1.05.2-1.15.72-2.4 1.27-3.71.26-.64.49-1.21.68-1.75 1.06-2.88 1.11-4.4-.49-5.42-.96-.62-1.88-.91-2.82-.91-4.04 0-7.5 5.53-8.46 7.22-2.48 4.31-1.61 10.09.49 15.15a13.707 13.707 0 0 1-1.6 5.09c-.15.29-.28.59-.46.89C4.2 78.76-2.95 92.28 2 102.38c2.98 6.09 10.21 9.3 16.4 7.67 8-2.09 17.4-12.24 21.2-16.66 2.96 1.58 6.11 2.79 9.32 3.62 2.32.6 8.3 2 14.57 2 6.28 0 12.84-1.4 15.16-2 3.4-.88 6.73-2.2 9.85-3.92 3.52 4.25 12.93 14.82 21.1 16.96 6.2 1.62 13.42-1.59 16.4-7.67 4.95-10.1-2.2-23.62-7.24-31.2z"/><path fill="#fcc21b" d="M63.78 91.29c-6.04.12-12.51-.91-17.79-3.6-5.34-2.72-10.67-7.59-10.29-14.79.14-2.63 1.42-5.09 1.74-7.72.34-2.76.31-6.37-.42-9.05-.93-3.45-1.38-6.91-.1-10.33 1.37-3.66 3.79-6.8 7.24-8.05 1.23-.45 2.58-.41 3.85-.52 5.47-.44 10.3 5.48 15.76 5.3 5.45.18 10.28-5.73 15.75-5.3 1.27.11 2.62.07 3.85.52 3.45 1.25 5.88 4.39 7.24 8.05 1.27 3.41.83 6.87-.1 10.33-.73 2.69-.76 6.29-.42 9.05.33 2.63 1.61 5.08 1.75 7.72.39 7.21-4.94 12.07-10.29 14.79-5.27 2.69-11.74 3.72-17.77 3.6z"/><ellipse cx="50.96" cy="55.76" fill="#2f2f2f" rx="5.03" ry="6.07"/><path fill="#2f2f2f" d="M76.6 49.69c-2.78 0-5.03 2.71-5.03 6.07 0 3.35 2.25 6.07 5.03 6.07 2.77 0 5.02-2.72 5.02-6.07 0-3.36-2.25-6.07-5.02-6.07z"/><path fill="#ed6c30" d="M64.47 70.56c-1.21-.29-2.3.24-3.14 1.11-2.74 2.87-4.27 10.4.3 12.39 1.9.83 4.78.72 6.13-1.01 1.64-2.11 1.23-6.01.11-8.82-.7-1.76-1.41-3.19-3.4-3.67z"/><path fill="#2f2f2f" d="M61.74 67.05c.69.33 1.59.53 2.61.42 1.66-.19 2.25-.73 2.83-1.38.94-1.06 1.28-2.54-.09-3.33-1.12-.66-3.53-.7-5.11-.39-3.8.75-2.53 3.6-.24 4.68z"/></svg><svg viewBox="0 0 128 128" id="1F64A" xmlns="http://www.w3.org/2000/svg"><path fill="#2f2f2f" d="M105.24 57.98c-.66-11.76-6.25-23.87-14.91-31.39-7.01-6.09-16.88-9.19-26.55-9.17-9.67-.02-19.55 3.09-26.55 9.17-8.67 7.52-14.26 19.63-14.91 31.39-.63 11.17 1.25 22.42 9.83 30.19 4.75 4.3 10.66 7.22 16.76 8.79 2.32.6 8.3 2 14.58 2 6.28 0 12.85-1.4 15.17-2 6.09-1.58 12-4.49 16.76-8.79 8.57-7.77 10.44-19.02 9.82-30.19z"/><path fill="#fcc21b" d="M90.11 65.11c-.34-2.76-.31-6.37.43-9.06.93-3.46 1.37-6.92.1-10.34-1.37-3.66-3.79-6.8-7.25-8.05-1.23-.44-2.58-.41-3.85-.51-5.48-.44-10.31 5.47-15.77 5.3-5.46.17-10.3-5.74-15.77-5.3-1.28.1-2.62.07-3.85.51-3.45 1.25-5.88 4.39-7.24 8.05-1.28 3.42-.83 6.88.09 10.34.73 2.69.76 6.3.42 9.06-.33 2.63-1.61 5.08-1.75 7.72-.38 7.21 4.96 12.08 10.3 14.81 5.29 2.69 11.76 3.72 17.8 3.6 6.04.12 12.52-.91 17.79-3.6 5.35-2.73 10.68-7.6 10.3-14.81-.14-2.64-1.42-5.1-1.75-7.72z"/><path fill="#855c52" d="M110.14 50.54c-1.83-1.01-4.25-1.59-6.32-1.38-2.25-8.72-7.01-16.94-13.51-22.58-7-6.08-16.87-9.18-26.54-9.16-9.67-.02-19.53 3.08-26.53 9.16-6.5 5.64-11.27 13.86-13.51 22.58-2.07-.22-4.49.37-6.32 1.38-5.12 2.83-6.3 9.63-5.09 15.31.96 4.54 3.59 7.94 9 9.3 1.04.26 1.99.28 2.81.21 1.2 3.77 3.04 7.28 5.73 10.38 1.67-1.06 3.23-2.13 4.53-3.17 1.06-.85 2-1.82 2.89-2.85-1.1-2.01-1.72-4.31-1.57-6.93.14-2.63 1.42-5.09 1.75-7.72.34-2.76.31-6.37-.42-9.06-.94-3.45-1.38-6.91-.11-10.33 1.37-3.66 3.79-6.8 7.25-8.05 1.22-.44 2.58-.41 3.85-.51 5.47-.44 10.3 5.48 15.75 5.3 5.46.18 10.29-5.73 15.75-5.3 1.27.11 2.63.07 3.85.51 3.45 1.25 5.88 4.39 7.25 8.05 1.27 3.41.83 6.87-.11 10.33-.73 2.69-.76 6.29-.42 9.06.33 2.62 1.61 5.08 1.75 7.72.13 2.43-.4 4.59-1.36 6.5 1.01 1.2 2.05 2.32 3.25 3.28 1.2.96 2.63 1.95 4.16 2.93 2.58-3.04 4.35-6.46 5.52-10.13.83.07 1.77.05 2.81-.21 5.41-1.35 8.04-4.76 9-9.3 1.21-5.69.04-12.49-5.09-15.32zM64.06 95.78c-1.04.23-2.09.44-3.11.62-2.26.38-4.27.95-6.2 1.74 2.56.42 5.61.77 8.73.77 3.38 0 6.81-.4 9.65-.87-1.85-.74-3.79-1.28-5.95-1.64a78.09 78.09 0 0 1-3.12-.62z"/><path fill="#2f2f2f" d="M60.52 68.25c.03-.01.41.5.86.79.76.47 4.04-.16 5.91-.18.52-.01.96-.36 1.47-.3 1.1.13 1.61.45 2.7.87.95.37 1.78.93 2.6 1.52 1.52 1.1 3.29 1.99 4.24 3.69.98 1.78 1.4 3.99 1.52 6.01.12 2.1-.08 4.21-.74 6.21-.65 1.96-2.23 3.64-3.66 5.06-.8.78-1.81 1.34-2.8 1.86-1.05.55-2.27.6-3.43.67-1.21.08-2.46.16-3.68-.05-1.47-.25-2.85-.79-4.28-1.2-1.76-.5-3.59-1.15-5.17-2.1-1.52-.91-3.11-1.89-4.23-3.28-.9-1.12-1.7-2.43-2.24-3.76-.58-1.43-.58-2.91-.57-4.43.01-1.4.54-2.54 1.2-3.75.5-.94.98-1.89 1.68-2.71.87-1.03 1.84-1.94 3.02-2.62.43-.24.87-.46 1.35-.6.26-.07.8-.09 1-.27 0 0 3.24-1.43 3.25-1.43z"/><path fill="#855c52" d="M107.86 94.8c-3.54-2.01-8.16-4.5-12.09-7.06-1.42-.93-2.77-1.87-3.93-2.81-1.13-.91-2.13-1.92-3.07-2.98-2.44-2.77-4.38-5.88-6.97-8.61-2.67-2.81-5.34-5.45-9.32-6.22-.45-.09-.98-.14-1.5-.14-.58 0-1.16.07-1.65.23-1.15.38-1.92.99-2.04 1.64 3.18.55 5.76 2.11 7.37 4.52 2.26 3.39 2.91 8.3 1.65 12.5-.47 1.57-1.25 3.03-2.23 4.31-1.17 1.52-2.63 2.78-4.3 3.64 3.04.7 5.69 1.75 8.23 3.23 1.67.97 3.31 2.12 4.98 3.48 4.06 3.34 9.45 8.13 14.4 9.88 1.78.63 3.71 1.03 5.59 1.03 3.5 0 6.84-1.35 8.8-5.06 2.55-4.77.28-9.21-3.92-11.58z"/><path fill="#855c52" d="M60.45 93.4c.17-.03.34-.06.5-.09 1.03-.18 2.08-.39 3.11-.64 1.47-.36 2.93-.82 4.25-1.47.09-.05.17-.11.26-.16 2.31-1.25 4.1-3.49 4.86-6.03.96-3.23.57-7.2-1.27-9.95-.37-.56-.81-1.03-1.3-1.43-1.19-1-2.66-1.57-4.21-1.81-.51-.08-1.03-.14-1.56-.16h-.37c-.23 0-.44.04-.66.05-1.03.06-2.06.22-3.07.52-.09.03-.19.08-.28.11-1.11.39-2.32 1.1-3.44 1.29-.1.01-.19.05-.29.06h-.12c-.86 0-.44-.97-.02-1.58.12-.18.25-.33.34-.41.66-.59 1.42-.85 2.2-1.18 1.16-.49 1.55-1.09 1.45-1.66-.12-.65-.89-1.26-2.04-1.64-.49-.17-1.07-.23-1.65-.23-.53 0-1.05.06-1.51.14-3.98.77-6.64 3.41-9.32 6.22-2.69 2.84-4.69 6.09-7.27 8.94-.85.94-1.75 1.83-2.77 2.64-1.25 1.01-2.72 2.03-4.29 3.03-3.85 2.49-8.29 4.89-11.73 6.84-4.19 2.38-6.47 6.81-3.94 11.59 1.96 3.71 5.31 5.06 8.8 5.06 1.88 0 3.8-.4 5.59-1.03 4.95-1.75 10.34-6.54 14.41-9.88 1.61-1.32 3.19-2.43 4.8-3.38 2.6-1.53 5.3-2.62 8.4-3.33.71-.16 1.41-.3 2.14-.43z"/><path fill="#fcc21b" d="M16.79 62.92c-.58-6.08 3.3-7.54 5.85-7.86-.12.96-.25 1.93-.31 2.9-.22 4.05-.12 8.12.52 12.03-3.47.47-5.63-2.52-6.06-7.07zm93.97 0c-.43 4.56-2.59 7.54-6.07 7.07.63-3.91.74-7.98.52-12.03-.05-.97-.19-1.93-.31-2.9 2.55.31 6.44 1.78 5.86 7.86z"/><path fill="#2f2f2f" d="M50.96 61.72c2.78 0 5.03-2.72 5.03-6.07s-2.25-6.07-5.03-6.07c-2.77 0-5.03 2.72-5.03 6.07s2.26 6.07 5.03 6.07zm25.64 0c2.77 0 5.02-2.72 5.02-6.07s-2.25-6.07-5.02-6.07c-2.79 0-5.04 2.72-5.04 6.07s2.25 6.07 5.04 6.07zm-14.86 5.23c.49.23 1.11.35 1.77.39.28.02.54.06.84.03.1-.01.17-.04.27-.05 1.43-.22 2.02-.72 2.56-1.34.39-.44.66-.95.77-1.46.14-.71-.06-1.41-.85-1.88-1.12-.66-3.53-.7-5.11-.39-1.78.35-2.42 1.16-2.4 2.03.03 1.02.93 2.09 2.15 2.67z"/></svg></svg>