<?xml version="1.0" encoding="utf-8"?><svg viewBox="0 0 128 128" xmlns="http://www.w3.org/2000/svg" xmlns:xlink="http://www.w3.org/1999/xlink"><style>:root>svg{display:none}:root>svg:target{display:block}</style><svg viewBox="0 0 128 128" id="1F301" xmlns="http://www.w3.org/2000/svg"><defs><path id="aaaa" d="M128 115.89c0 6.65-5.44 12.1-12.09 12.1H12.1c-6.65 0-12.09-5.44-12.09-12.1V12.1C.01 5.44 5.45 0 12.1 0h103.8c6.66 0 12.1 5.44 12.1 12.1v103.79z"/></defs><use fill="#b9e8f4" overflow="visible" xlink:href="#aaaa"/><clipPath id="aaab"><use overflow="visible" xlink:href="#aaaa"/></clipPath><g clip-path="url(#aaab)"><path fill="#7d7d7d" d="M8.59 109.28h111.49v19.87H8.59z"/><path fill="#7d7d7d" d="M52 89.68c0-4.99-4.08-9.07-9.07-9.07h-25.3c-4.99 0-9.07 4.08-9.07 9.07v30.39c0 4.99 4.08 9.07 9.07 9.07h25.3c4.99 0 9.07-4.08 9.07-9.07V89.68z"/><path fill="#7d7d7d" d="M43.76 94.87H85.9v34.28H43.76z"/><path fill="#7d7d7d" d="M120.03 64.62c0-4.99-4.08-9.07-9.07-9.07H86.97c-4.99 0-9.07 4.08-9.07 9.07v55.46c0 4.99 4.08 9.07 9.07 9.07h23.99c4.99 0 9.07-4.08 9.07-9.07V64.62z"/><path fill="#40c0e7" d="M93.83 72.95c0 1.37-1.12 2.5-2.49 2.5h-2.92c-1.37 0-2.49-1.12-2.49-2.5v-4.63c0-1.37 1.12-2.49 2.49-2.49h2.92c1.37 0 2.49 1.12 2.49 2.49v4.63zm19.49.91c0 .46-1.12 1.58-2.49 1.58h-2.92c-1.37 0-2.5-1.12-2.5-2.5v-4.63c0-1.37 1.13-2.49 2.5-2.49h2.92c1.37 0 2.49 1.12 2.49 1.58v6.46zm0 15.32c0 .46-1.12 1.58-2.49 1.58h-2.92c-1.37 0-2.5-1.12-2.5-2.49v-4.63c0-1.37 1.13-2.5 2.5-2.5h2.92c1.37 0 2.49 1.12 2.49 1.58v6.46zm-10.67 13.86c0 .46-1.12 1.58-2.49 1.58h-2.92c-1.37 0-2.5-1.12-2.5-2.49V97.5c0-1.37 1.12-2.5 2.5-2.5h2.92c1.37 0 2.49 1.12 2.49 1.58v6.46zm-79.24-.82c0 1.37-1.12 2.5-2.5 2.5H18a2.5 2.5 0 0 1-2.5-2.5v-4.63c0-1.37 1.12-2.49 2.5-2.49h2.91c1.37 0 2.5 1.12 2.5 2.49v4.63zm11.11 0c0 1.37-1.13 2.5-2.5 2.5h-2.91a2.5 2.5 0 0 1-2.5-2.5v-4.63c0-1.37 1.12-2.49 2.5-2.49h2.91c1.37 0 2.5 1.12 2.5 2.49v4.63zm11.11 0c0 1.37-1.13 2.5-2.5 2.5h-2.91a2.5 2.5 0 0 1-2.5-2.5v-4.63c0-1.37 1.12-2.49 2.5-2.49h2.91c1.37 0 2.5 1.12 2.5 2.49v4.63zM23.41 116.4c0 1.37-1.12 2.5-2.5 2.5H18a2.5 2.5 0 0 1-2.5-2.5v-4.63c0-1.37 1.12-2.49 2.5-2.49h2.91c1.37 0 2.5 1.12 2.5 2.49v4.63zm11.11 0c0 1.37-1.13 2.5-2.5 2.5h-2.91a2.5 2.5 0 0 1-2.5-2.5v-4.63c0-1.37 1.12-2.49 2.5-2.49h2.91c1.37 0 2.5 1.12 2.5 2.49v4.63zm22.22 0c0 1.37-1.13 2.5-2.5 2.5h-2.91a2.5 2.5 0 0 1-2.5-2.5v-4.63c0-1.37 1.12-2.49 2.5-2.49h2.91c1.37 0 2.5 1.12 2.5 2.49v4.63z"/></g><defs><path id="aaac" d="M128 115.89c0 6.65-5.44 12.1-12.09 12.1H12.1c-6.65 0-12.09-5.44-12.09-12.1V12.1C.01 5.44 5.45 0 12.1 0h103.8c6.66 0 12.1 5.44 12.1 12.1v103.79z"/></defs><clipPath id="aaad"><use overflow="visible" xlink:href="#aaac"/></clipPath><g clip-path="url(#aaad)"><defs><path id="aaae" d="M-5.06 88.01c-3.53.05-8.9-1.48-8.9-6.43 0-8.88.54-24.89.54-30.89 0-4.39.48-8.83 5.44-8.83h22.94c4.69 0 11.93-.26 16.6.46 6.07.93 10.88 2.68 8.73 8.73-2 5.63-11.02 3.75-12.39 7.98-.77 2.38-.02 3.9 1.54 4.86 3.91 2.41 35.8 1.38 52.48 2.54 3.85.27 10.38 3.35 10.38 9.48 0 6.7-3.97 10.34-13.32 10.95C59.89 88.1-.96 87.95-5.06 88.01z"/></defs><clipPath id="aaaf"><use overflow="visible" xlink:href="#aaae"/></clipPath><g clip-path="url(#aaaf)"><linearGradient id="aaag" x1="-18.899" x2="103.56" y1="89.517" y2="93.7" gradientUnits="userSpaceOnUse"><stop offset="0" stop-color="#fff"/><stop offset="1" stop-color="#fff"/></linearGradient><path fill="url(#aaag)" d="M-18.84 86.79h122.35v9.65H-18.84z" opacity=".022"/><linearGradient id="aaah" x1="-18.812" x2="103.467" y1="86.198" y2="94.562" gradientUnits="userSpaceOnUse"><stop offset="0" stop-color="#fff"/><stop offset="1" stop-color="#fff"/></linearGradient><path fill="url(#aaah)" d="M-18.84 85.56h122.35v9.65H-18.84z" opacity=".043"/><linearGradient id="aaai" x1="-18.582" x2="103.231" y1="82.889" y2="95.412" gradientUnits="userSpaceOnUse"><stop offset="0" stop-color="#fff"/><stop offset="1" stop-color="#fff"/></linearGradient><path fill="url(#aaai)" d="M-18.84 84.33h122.35v9.65H-18.84z" opacity=".065"/><linearGradient id="aaaj" x1="-18.21" x2="102.855" y1="79.602" y2="96.242" gradientUnits="userSpaceOnUse"><stop offset="0" stop-color="#fff"/><stop offset="1" stop-color="#fff"/></linearGradient><path fill="url(#aaaj)" d="M-18.84 83.1h122.35v9.65H-18.84z" opacity=".087"/><linearGradient id="aaak" x1="-17.7" x2="102.34" y1="76.344" y2="97.041" gradientUnits="userSpaceOnUse"><stop offset="0" stop-color="#fff"/><stop offset="1" stop-color="#fff"/></linearGradient><path fill="url(#aaak)" d="M-18.84 81.87h122.35v9.65H-18.84z" opacity=".109"/><linearGradient id="aaal" x1="-17.052" x2="101.688" y1="73.126" y2="97.8" gradientUnits="userSpaceOnUse"><stop offset="0" stop-color="#fff"/><stop offset="1" stop-color="#fff"/></linearGradient><path fill="url(#aaal)" d="M-18.84 80.64h122.35v9.65H-18.84z" opacity=".13"/><linearGradient id="aaam" x1="-16.27" x2="100.901" y1="69.957" y2="98.511" gradientUnits="userSpaceOnUse"><stop offset="0" stop-color="#fff"/><stop offset="1" stop-color="#fff"/></linearGradient><path fill="url(#aaam)" d="M-18.84 79.41h122.35v9.65H-18.84z" opacity=".152"/><linearGradient id="aaan" x1="-15.357" x2="99.985" y1="66.846" y2="99.163" gradientUnits="userSpaceOnUse"><stop offset="0" stop-color="#fff"/><stop offset="1" stop-color="#fff"/></linearGradient><path fill="url(#aaan)" d="M-18.84 78.19h122.35v9.65H-18.84z" opacity=".174"/><linearGradient id="aaao" x1="-14.319" x2="98.942" y1="63.801" y2="99.749" gradientUnits="userSpaceOnUse"><stop offset="0" stop-color="#fff"/><stop offset="1" stop-color="#fff"/></linearGradient><path fill="url(#aaao)" d="M-18.84 76.96h122.35v9.65H-18.84z" opacity=".196"/><linearGradient id="aaap" x1="-13.16" x2="97.78" y1="60.831" y2="100.259" gradientUnits="userSpaceOnUse"><stop offset="0" stop-color="#fff"/><stop offset="1" stop-color="#fff"/></linearGradient><path fill="url(#aaap)" d="M-18.84 75.73h122.35v9.65H-18.84z" opacity=".217"/><linearGradient id="aaaq" x1="-11.886" x2="96.502" y1="57.944" y2="100.686" gradientUnits="userSpaceOnUse"><stop offset="0" stop-color="#fff"/><stop offset="1" stop-color="#fff"/></linearGradient><path fill="url(#aaaq)" d="M-18.84 74.5h122.35v9.65H-18.84z" opacity=".239"/><linearGradient id="aaar" x1="-10.502" x2="95.115" y1="55.147" y2="101.023" gradientUnits="userSpaceOnUse"><stop offset="0" stop-color="#fff"/><stop offset="1" stop-color="#fff"/></linearGradient><path fill="url(#aaar)" d="M-18.84 73.27h122.35v9.65H-18.84z" opacity=".261"/><linearGradient id="aaas" x1="-9.014" x2="93.625" y1="52.448" y2="101.261" gradientUnits="userSpaceOnUse"><stop offset="0" stop-color="#fff"/><stop offset="1" stop-color="#fff"/></linearGradient><path fill="url(#aaas)" d="M-18.84 72.04h122.35v9.65H-18.84z" opacity=".283"/><linearGradient id="aaat" x1="-7.431" x2="92.039" y1="49.854" y2="101.395" gradientUnits="userSpaceOnUse"><stop offset="0" stop-color="#fff"/><stop offset="1" stop-color="#fff"/></linearGradient><path fill="url(#aaat)" d="M-18.84 70.82h122.35v9.65H-18.84z" opacity=".304"/><linearGradient id="aaau" x1="-5.76" x2="90.365" y1="47.37" y2="101.419" gradientUnits="userSpaceOnUse"><stop offset="0" stop-color="#fff"/><stop offset="1" stop-color="#fff"/></linearGradient><path fill="url(#aaau)" d="M-18.84 69.59h122.35v9.65H-18.84z" opacity=".326"/><linearGradient id="aaav" x1="-4.007" x2="88.611" y1="45.003" y2="101.325" gradientUnits="userSpaceOnUse"><stop offset="0" stop-color="#fff"/><stop offset="1" stop-color="#fff"/></linearGradient><path fill="url(#aaav)" d="M-18.84 68.36h122.35v9.65H-18.84z" opacity=".348"/><linearGradient id="aaaw" x1="-2.181" x2="86.784" y1="42.758" y2="101.11" gradientUnits="userSpaceOnUse"><stop offset="0" stop-color="#fff"/><stop offset="1" stop-color="#fff"/></linearGradient><path fill="url(#aaaw)" d="M-18.84 67.13h122.35v9.65H-18.84z" opacity=".37"/><linearGradient id="aaax" x1="-.292" x2="84.894" y1="40.638" y2="100.769" gradientUnits="userSpaceOnUse"><stop offset="0" stop-color="#fff"/><stop offset="1" stop-color="#fff"/></linearGradient><path fill="url(#aaax)" d="M-18.84 65.9h122.35v9.65H-18.84z" opacity=".391"/><linearGradient id="aaay" x1="1.653" x2="82.949" y1="38.649" y2="100.297" gradientUnits="userSpaceOnUse"><stop offset="0" stop-color="#fff"/><stop offset="1" stop-color="#fff"/></linearGradient><path fill="url(#aaay)" d="M-18.84 64.67h122.35v9.65H-18.84z" opacity=".413"/><linearGradient id="aaaz" x1="3.644" x2="80.957" y1="36.794" y2="99.692" gradientUnits="userSpaceOnUse"><stop offset="0" stop-color="#fff"/><stop offset="1" stop-color="#fff"/></linearGradient><path fill="url(#aaaz)" d="M-18.84 63.45h122.35v9.65H-18.84z" opacity=".435"/><linearGradient id="aaaA" x1="5.672" x2="78.929" y1="35.074" y2="98.952" gradientUnits="userSpaceOnUse"><stop offset="0" stop-color="#fff"/><stop offset="1" stop-color="#fff"/></linearGradient><path fill="url(#aaaA)" d="M-18.84 62.22h122.35v9.65H-18.84z" opacity=".457"/><linearGradient id="aaaB" x1="7.728" x2="76.874" y1="33.494" y2="98.073" gradientUnits="userSpaceOnUse"><stop offset="0" stop-color="#fff"/><stop offset="1" stop-color="#fff"/></linearGradient><path fill="url(#aaaB)" d="M-18.84 60.99h122.35v9.65H-18.84z" opacity=".478"/><linearGradient id="aaaC" x1="9.802" x2="74.802" y1="32.053" y2="97.053" gradientUnits="userSpaceOnUse"><stop offset="0" stop-color="#fff"/><stop offset="1" stop-color="#fff"/></linearGradient><path fill="url(#aaaC)" d="M-18.84 59.76h122.35v9.65H-18.84z" opacity=".5"/><linearGradient id="aaaD" x1="11.884" x2="72.721" y1="30.753" y2="95.893" gradientUnits="userSpaceOnUse"><stop offset="0" stop-color="#fff"/><stop offset="1" stop-color="#fff"/></linearGradient><path fill="url(#aaaD)" d="M-18.84 58.53h122.35v9.65H-18.84z" opacity=".522"/><linearGradient id="aaaE" x1="13.965" x2="70.641" y1="29.594" y2="94.593" gradientUnits="userSpaceOnUse"><stop offset="0" stop-color="#fff"/><stop offset="1" stop-color="#fff"/></linearGradient><path fill="url(#aaaE)" d="M-18.84 57.3h122.35v9.65H-18.84z" opacity=".543"/><linearGradient id="aaaF" x1="16.036" x2="68.573" y1="28.575" y2="93.152" gradientUnits="userSpaceOnUse"><stop offset="0" stop-color="#fff"/><stop offset="1" stop-color="#fff"/></linearGradient><path fill="url(#aaaF)" d="M-18.84 56.07h122.35v9.65H-18.84z" opacity=".565"/><linearGradient id="aaaG" x1="18.086" x2="66.525" y1="27.697" y2="91.573" gradientUnits="userSpaceOnUse"><stop offset="0" stop-color="#fff"/><stop offset="1" stop-color="#fff"/></linearGradient><path fill="url(#aaaG)" d="M-18.84 54.85h122.35v9.65H-18.84z" opacity=".587"/><linearGradient id="aaaH" x1="20.106" x2="64.507" y1="26.954" y2="89.856" gradientUnits="userSpaceOnUse"><stop offset="0" stop-color="#fff"/><stop offset="1" stop-color="#fff"/></linearGradient><path fill="url(#aaaH)" d="M-18.84 53.62h122.35v9.65H-18.84z" opacity=".609"/><linearGradient id="aaaI" x1="22.088" x2="62.529" y1="26.349" y2="88.005" gradientUnits="userSpaceOnUse"><stop offset="0" stop-color="#fff"/><stop offset="1" stop-color="#fff"/></linearGradient><path fill="url(#aaaI)" d="M-18.84 52.39h122.35v9.65H-18.84z" opacity=".63"/><linearGradient id="aaaJ" x1="24.021" x2="60.598" y1="25.873" y2="86.022" gradientUnits="userSpaceOnUse"><stop offset="0" stop-color="#fff"/><stop offset="1" stop-color="#fff"/></linearGradient><path fill="url(#aaaJ)" d="M-18.84 51.16h122.35v9.65H-18.84z" opacity=".652"/><linearGradient id="aaaK" x1="25.898" x2="58.725" y1="25.527" y2="83.911" gradientUnits="userSpaceOnUse"><stop offset="0" stop-color="#fff"/><stop offset="1" stop-color="#fff"/></linearGradient><path fill="url(#aaaK)" d="M-18.84 49.93h122.35v9.65H-18.84z" opacity=".674"/><linearGradient id="aaaL" x1="27.708" x2="56.918" y1="25.305" y2="81.677" gradientUnits="userSpaceOnUse"><stop offset="0" stop-color="#fff"/><stop offset="1" stop-color="#fff"/></linearGradient><path fill="url(#aaaL)" d="M-18.84 48.7h122.35v9.65H-18.84z" opacity=".696"/><linearGradient id="aaaM" x1="29.445" x2="55.184" y1="25.202" y2="79.324" gradientUnits="userSpaceOnUse"><stop offset="0" stop-color="#fff"/><stop offset="1" stop-color="#fff"/></linearGradient><path fill="url(#aaaM)" d="M-18.84 47.48h122.35v9.65H-18.84z" opacity=".717"/><linearGradient id="aaaN" x1="31.101" x2="53.533" y1="25.213" y2="76.857" gradientUnits="userSpaceOnUse"><stop offset="0" stop-color="#fff"/><stop offset="1" stop-color="#fff"/></linearGradient><path fill="url(#aaaN)" d="M-18.84 46.25h122.35v9.65H-18.84z" opacity=".739"/><linearGradient id="aaaO" x1="32.667" x2="51.97" y1="25.332" y2="74.283" gradientUnits="userSpaceOnUse"><stop offset="0" stop-color="#fff"/><stop offset="1" stop-color="#fff"/></linearGradient><path fill="url(#aaaO)" d="M-18.84 45.02h122.35v9.65H-18.84z" opacity=".761"/><linearGradient id="aaaP" x1="34.136" x2="50.504" y1="25.552" y2="71.608" gradientUnits="userSpaceOnUse"><stop offset="0" stop-color="#fff"/><stop offset="1" stop-color="#fff"/></linearGradient><path fill="url(#aaaP)" d="M-18.84 43.79h122.35v9.65H-18.84z" opacity=".783"/><linearGradient id="aaaQ" x1="35.503" x2="49.141" y1="25.867" y2="68.839" gradientUnits="userSpaceOnUse"><stop offset="0" stop-color="#fff"/><stop offset="1" stop-color="#fff"/></linearGradient><path fill="url(#aaaQ)" d="M-18.84 42.56h122.35v9.65H-18.84z" opacity=".804"/><linearGradient id="aaaR" x1="36.76" x2="47.887" y1="26.27" y2="65.983" gradientUnits="userSpaceOnUse"><stop offset="0" stop-color="#fff"/><stop offset="1" stop-color="#fff"/></linearGradient><path fill="url(#aaaR)" d="M-18.84 41.33h122.35v9.65H-18.84z" opacity=".826"/><linearGradient id="aaaS" x1="37.903" x2="46.748" y1="26.752" y2="63.048" gradientUnits="userSpaceOnUse"><stop offset="0" stop-color="#fff"/><stop offset="1" stop-color="#fff"/></linearGradient><path fill="url(#aaaS)" d="M-18.84 40.1h122.35v9.65H-18.84z" opacity=".848"/><linearGradient id="aaaT" x1="38.925" x2="45.728" y1="27.305" y2="60.042" gradientUnits="userSpaceOnUse"><stop offset="0" stop-color="#fff"/><stop offset="1" stop-color="#fff"/></linearGradient><path fill="url(#aaaT)" d="M-18.84 38.88h122.35v9.65H-18.84z" opacity=".87"/><linearGradient id="aaaU" x1="39.824" x2="44.833" y1="27.922" y2="56.974" gradientUnits="userSpaceOnUse"><stop offset="0" stop-color="#fff"/><stop offset="1" stop-color="#fff"/></linearGradient><path fill="url(#aaaU)" d="M-18.84 37.65h122.35v9.65H-18.84z" opacity=".891"/><linearGradient id="aaaV" x1="40.594" x2="44.065" y1="28.594" y2="53.851" gradientUnits="userSpaceOnUse"><stop offset="0" stop-color="#fff"/><stop offset="1" stop-color="#fff"/></linearGradient><path fill="url(#aaaV)" d="M-18.84 36.42h122.35v9.65H-18.84z" opacity=".913"/><linearGradient id="aaaW" x1="41.232" x2="43.429" y1="29.311" y2="50.683" gradientUnits="userSpaceOnUse"><stop offset="0" stop-color="#fff"/><stop offset="1" stop-color="#fff"/></linearGradient><path fill="url(#aaaW)" d="M-18.84 35.19h122.35v9.65H-18.84z" opacity=".935"/><linearGradient id="aaaX" x1="41.736" x2="42.927" y1="30.064" y2="47.48" gradientUnits="userSpaceOnUse"><stop offset="0" stop-color="#fff"/><stop offset="1" stop-color="#fff"/></linearGradient><path fill="url(#aaaX)" d="M-18.84 33.96h122.35v9.65H-18.84z" opacity=".957"/><linearGradient id="aaaY" x1="42.103" x2="42.561" y1="30.845" y2="44.249" gradientUnits="userSpaceOnUse"><stop offset="0" stop-color="#fff"/><stop offset="1" stop-color="#fff"/></linearGradient><path fill="url(#aaaY)" d="M-18.84 32.73h122.35v9.65H-18.84z" opacity=".978"/><linearGradient id="aaaZ" x1="42.333" x2="42.333" y1="31.643" y2="41.001" gradientUnits="userSpaceOnUse"><stop offset="0" stop-color="#fff"/><stop offset="1" stop-color="#fff"/></linearGradient><path fill="url(#aaaZ)" d="M-18.84 31.51h122.35v9.65H-18.84z"/></g><defs><path id="aaaaa" d="M132.5 58.36c.34-2.15 1.05-48.14.06-55.15-.53-3.82-4.16-4.78-12.39-4.78-11.84 0-75.87.23-85.9 1.28C28.82.27 25.01.86 23.2 1.54c-4.89 1.8-8.76 8.47-4.54 13.56 2.34 2.83 6.6 3.34 10 3.69 15.82 1.65 29.66.49 41.03 1.05 2.7.13 7.65.48 7.88 3.63.22 3.14-1.94 3.38-4.66 3.97-4.05.91-8.32 2.49-8.62 6.68-.17 2.34.6 5.73 4.67 7.43 4.57 1.93 12.37 1.23 15.82 1.72 3.74.53 18.08-.45 18.67 3.94.46 3.45-7.97.24-7.97 8.94 0 5.89 10.22 5.88 14.74 6.6 3 .48 11.95.78 17.24-.02 3.78-.58 4.58-1.48 5.04-4.37z"/></defs><clipPath id="aaaab"><use overflow="visible" xlink:href="#aaaaa"/></clipPath><g clip-path="url(#aaaab)"><linearGradient id="aaaac" x1="12.642" x2="135.151" y1="60.236" y2="64.421" gradientUnits="userSpaceOnUse"><stop offset="0" stop-color="#fff"/><stop offset="1" stop-color="#fff"/></linearGradient><path fill="url(#aaaac)" d="M12.72 56.78h122.35v11.1H12.72z" opacity=".022"/><linearGradient id="aaaad" x1="12.704" x2="135.083" y1="56.729" y2="65.1" gradientUnits="userSpaceOnUse"><stop offset="0" stop-color="#fff"/><stop offset="1" stop-color="#fff"/></linearGradient><path fill="url(#aaaad)" d="M12.72 55.36h122.35v11.1H12.72z" opacity=".043"/><linearGradient id="aaaae" x1="12.91" x2="134.873" y1="53.231" y2="65.769" gradientUnits="userSpaceOnUse"><stop offset="0" stop-color="#fff"/><stop offset="1" stop-color="#fff"/></linearGradient><path fill="url(#aaaae)" d="M12.72 53.95h122.35v11.1H12.72z" opacity=".065"/><linearGradient id="aaaaf" x1="13.258" x2="134.52" y1="49.753" y2="66.42" gradientUnits="userSpaceOnUse"><stop offset="0" stop-color="#fff"/><stop offset="1" stop-color="#fff"/></linearGradient><path fill="url(#aaaaf)" d="M12.72 52.54h122.35v11.1H12.72z" opacity=".087"/><linearGradient id="aaaag" x1="13.745" x2="134.028" y1="46.303" y2="67.042" gradientUnits="userSpaceOnUse"><stop offset="0" stop-color="#fff"/><stop offset="1" stop-color="#fff"/></linearGradient><path fill="url(#aaaag)" d="M12.72 51.12h122.35v11.1H12.72z" opacity=".109"/><linearGradient id="aaaah" x1="14.371" x2="133.399" y1="42.891" y2="67.626" gradientUnits="userSpaceOnUse"><stop offset="0" stop-color="#fff"/><stop offset="1" stop-color="#fff"/></linearGradient><path fill="url(#aaaah)" d="M12.72 49.71h122.35v11.1H12.72z" opacity=".13"/><linearGradient id="aaaai" x1="15.13" x2="132.634" y1="39.526" y2="68.162" gradientUnits="userSpaceOnUse"><stop offset="0" stop-color="#fff"/><stop offset="1" stop-color="#fff"/></linearGradient><path fill="url(#aaaai)" d="M12.72 48.3h122.35v11.1H12.72z" opacity=".152"/><linearGradient id="aaaaj" x1="16.021" x2="131.739" y1="36.218" y2="68.641" gradientUnits="userSpaceOnUse"><stop offset="0" stop-color="#fff"/><stop offset="1" stop-color="#fff"/></linearGradient><path fill="url(#aaaaj)" d="M12.72 46.88h122.35v11.1H12.72z" opacity=".174"/><linearGradient id="aaaak" x1="17.039" x2="130.718" y1="32.974" y2="69.055" gradientUnits="userSpaceOnUse"><stop offset="0" stop-color="#fff"/><stop offset="1" stop-color="#fff"/></linearGradient><path fill="url(#aaaak)" d="M12.72 45.47h122.35v11.1H12.72z" opacity=".196"/><linearGradient id="aaaal" x1="18.178" x2="129.575" y1="29.805" y2="69.395" gradientUnits="userSpaceOnUse"><stop offset="0" stop-color="#fff"/><stop offset="1" stop-color="#fff"/></linearGradient><path fill="url(#aaaal)" d="M12.72 44.06h122.35v11.1H12.72z" opacity=".217"/><linearGradient id="aaaam" x1="19.434" x2="128.315" y1="26.717" y2="69.654" gradientUnits="userSpaceOnUse"><stop offset="0" stop-color="#fff"/><stop offset="1" stop-color="#fff"/></linearGradient><path fill="url(#aaaam)" d="M12.72 42.64h122.35v11.1H12.72z" opacity=".239"/><linearGradient id="aaaan" x1="20.801" x2="126.945" y1="23.718" y2="69.822" gradientUnits="userSpaceOnUse"><stop offset="0" stop-color="#fff"/><stop offset="1" stop-color="#fff"/></linearGradient><path fill="url(#aaaan)" d="M12.72 41.23h122.35v11.1H12.72z" opacity=".261"/><linearGradient id="aaaao" x1="22.272" x2="125.471" y1="20.815" y2="69.895" gradientUnits="userSpaceOnUse"><stop offset="0" stop-color="#fff"/><stop offset="1" stop-color="#fff"/></linearGradient><path fill="url(#aaaao)" d="M12.72 39.82h122.35v11.1H12.72z" opacity=".283"/><linearGradient id="aaaap" x1="23.841" x2="123.9" y1="18.017" y2="69.863" gradientUnits="userSpaceOnUse"><stop offset="0" stop-color="#fff"/><stop offset="1" stop-color="#fff"/></linearGradient><path fill="url(#aaaap)" d="M12.72 38.4h122.35v11.1H12.72z" opacity=".304"/><linearGradient id="aaaaq" x1="25.499" x2="122.239" y1="15.328" y2="69.722" gradientUnits="userSpaceOnUse"><stop offset="0" stop-color="#fff"/><stop offset="1" stop-color="#fff"/></linearGradient><path fill="url(#aaaaq)" d="M12.72 36.99h122.35v11.1H12.72z" opacity=".326"/><linearGradient id="aaaar" x1="27.24" x2="120.497" y1="12.754" y2="69.465" gradientUnits="userSpaceOnUse"><stop offset="0" stop-color="#fff"/><stop offset="1" stop-color="#fff"/></linearGradient><path fill="url(#aaaar)" d="M12.72 35.58h122.35v11.1H12.72z" opacity=".348"/><linearGradient id="aaaas" x1="29.055" x2="118.68" y1="10.302" y2="69.087" gradientUnits="userSpaceOnUse"><stop offset="0" stop-color="#fff"/><stop offset="1" stop-color="#fff"/></linearGradient><path fill="url(#aaaas)" d="M12.72 34.16h122.35v11.1H12.72z" opacity=".37"/><linearGradient id="aaaat" x1="30.936" x2="116.799" y1="7.975" y2="68.584" gradientUnits="userSpaceOnUse"><stop offset="0" stop-color="#fff"/><stop offset="1" stop-color="#fff"/></linearGradient><path fill="url(#aaaat)" d="M12.72 32.75h122.35v11.1H12.72z" opacity=".391"/><linearGradient id="aaaau" x1="32.873" x2="114.861" y1="5.778" y2="67.951" gradientUnits="userSpaceOnUse"><stop offset="0" stop-color="#fff"/><stop offset="1" stop-color="#fff"/></linearGradient><path fill="url(#aaaau)" d="M12.72 31.34h122.35v11.1H12.72z" opacity=".413"/><linearGradient id="aaaav" x1="34.859" x2="112.875" y1="3.713" y2="67.184" gradientUnits="userSpaceOnUse"><stop offset="0" stop-color="#fff"/><stop offset="1" stop-color="#fff"/></linearGradient><path fill="url(#aaaav)" d="M12.72 29.92h122.35v11.1H12.72z" opacity=".435"/><linearGradient id="aaaaw" x1="36.883" x2="110.851" y1="1.786" y2="66.282" gradientUnits="userSpaceOnUse"><stop offset="0" stop-color="#fff"/><stop offset="1" stop-color="#fff"/></linearGradient><path fill="url(#aaaaw)" d="M12.72 28.51h122.35v11.1H12.72z" opacity=".457"/><linearGradient id="aaaax" x1="38.937" x2="108.798" y1="-.004" y2="65.242" gradientUnits="userSpaceOnUse"><stop offset="0" stop-color="#fff"/><stop offset="1" stop-color="#fff"/></linearGradient><path fill="url(#aaaax)" d="M12.72 27.1h122.35v11.1H12.72z" opacity=".478"/><linearGradient id="aaaay" x1="41.01" x2="106.726" y1="-1.654" y2="64.062" gradientUnits="userSpaceOnUse"><stop offset="0" stop-color="#fff"/><stop offset="1" stop-color="#fff"/></linearGradient><path fill="url(#aaaay)" d="M12.72 25.68h122.35v11.1H12.72z" opacity=".5"/><linearGradient id="aaaaz" x1="43.094" x2="104.644" y1="-3.163" y2="62.741" gradientUnits="userSpaceOnUse"><stop offset="0" stop-color="#fff"/><stop offset="1" stop-color="#fff"/></linearGradient><path fill="url(#aaaaz)" d="M12.72 24.27h122.35v11.1H12.72z" opacity=".522"/><linearGradient id="aaaaA" x1="45.178" x2="102.561" y1="-4.531" y2="61.28" gradientUnits="userSpaceOnUse"><stop offset="0" stop-color="#fff"/><stop offset="1" stop-color="#fff"/></linearGradient><path fill="url(#aaaaA)" d="M12.72 22.86h122.35v11.1H12.72z" opacity=".543"/><linearGradient id="aaaaB" x1="47.252" x2="100.489" y1="-5.758" y2="59.678" gradientUnits="userSpaceOnUse"><stop offset="0" stop-color="#fff"/><stop offset="1" stop-color="#fff"/></linearGradient><path fill="url(#aaaaB)" d="M12.72 21.44h122.35v11.1H12.72z" opacity=".565"/><linearGradient id="aaaaC" x1="49.309" x2="98.435" y1="-6.846" y2="57.937" gradientUnits="userSpaceOnUse"><stop offset="0" stop-color="#fff"/><stop offset="1" stop-color="#fff"/></linearGradient><path fill="url(#aaaaC)" d="M12.72 20.03h122.35v11.1H12.72z" opacity=".587"/><linearGradient id="aaaaD" x1="51.337" x2="96.409" y1="-7.795" y2="56.058" gradientUnits="userSpaceOnUse"><stop offset="0" stop-color="#fff"/><stop offset="1" stop-color="#fff"/></linearGradient><path fill="url(#aaaaD)" d="M12.72 18.62h122.35v11.1H12.72z" opacity=".609"/><linearGradient id="aaaaE" x1="53.327" x2="94.421" y1="-8.609" y2="54.044" gradientUnits="userSpaceOnUse"><stop offset="0" stop-color="#fff"/><stop offset="1" stop-color="#fff"/></linearGradient><path fill="url(#aaaaE)" d="M12.72 17.2h122.35v11.1H12.72z" opacity=".63"/><linearGradient id="aaaaF" x1="55.271" x2="92.481" y1="-9.29" y2="51.898" gradientUnits="userSpaceOnUse"><stop offset="0" stop-color="#fff"/><stop offset="1" stop-color="#fff"/></linearGradient><path fill="url(#aaaaF)" d="M12.72 15.79h122.35v11.1H12.72z" opacity=".652"/><linearGradient id="aaaaG" x1="57.16" x2="90.595" y1="-9.842" y2="49.622" gradientUnits="userSpaceOnUse"><stop offset="0" stop-color="#fff"/><stop offset="1" stop-color="#fff"/></linearGradient><path fill="url(#aaaaG)" d="M12.72 14.38h122.35v11.1H12.72z" opacity=".674"/><linearGradient id="aaaaH" x1="58.984" x2="88.774" y1="-10.269" y2="47.223" gradientUnits="userSpaceOnUse"><stop offset="0" stop-color="#fff"/><stop offset="1" stop-color="#fff"/></linearGradient><path fill="url(#aaaaH)" d="M12.72 12.96h122.35v11.1H12.72z" opacity=".696"/><linearGradient id="aaaaI" x1="60.736" x2="87.026" y1="-10.576" y2="44.704" gradientUnits="userSpaceOnUse"><stop offset="0" stop-color="#fff"/><stop offset="1" stop-color="#fff"/></linearGradient><path fill="url(#aaaaI)" d="M12.72 11.55h122.35v11.1H12.72z" opacity=".717"/><linearGradient id="aaaaJ" x1="62.407" x2="85.358" y1="-10.768" y2="42.07" gradientUnits="userSpaceOnUse"><stop offset="0" stop-color="#fff"/><stop offset="1" stop-color="#fff"/></linearGradient><path fill="url(#aaaaJ)" d="M12.72 10.14h122.35v11.1H12.72z" opacity=".739"/><linearGradient id="aaaaK" x1="63.991" x2="83.778" y1="-10.85" y2="39.328" gradientUnits="userSpaceOnUse"><stop offset="0" stop-color="#fff"/><stop offset="1" stop-color="#fff"/></linearGradient><path fill="url(#aaaaK)" d="M12.72 8.73h122.35v11.1H12.72z" opacity=".761"/><linearGradient id="aaaaL" x1="65.479" x2="82.294" y1="-10.83" y2="36.483" gradientUnits="userSpaceOnUse"><stop offset="0" stop-color="#fff"/><stop offset="1" stop-color="#fff"/></linearGradient><path fill="url(#aaaaL)" d="M12.72 7.31h122.35v11.1H12.72z" opacity=".783"/><linearGradient id="aaaaM" x1="66.865" x2="80.912" y1="-10.714" y2="33.544" gradientUnits="userSpaceOnUse"><stop offset="0" stop-color="#fff"/><stop offset="1" stop-color="#fff"/></linearGradient><path fill="url(#aaaaM)" d="M12.72 5.9h122.35V17H12.72z" opacity=".804"/><linearGradient id="aaaaN" x1="68.143" x2="79.637" y1="-10.509" y2="30.515" gradientUnits="userSpaceOnUse"><stop offset="0" stop-color="#fff"/><stop offset="1" stop-color="#fff"/></linearGradient><path fill="url(#aaaaN)" d="M12.72 4.49h122.35v11.1H12.72z" opacity=".826"/><linearGradient id="aaaaO" x1="69.307" x2="78.477" y1="-10.224" y2="27.407" gradientUnits="userSpaceOnUse"><stop offset="0" stop-color="#fff"/><stop offset="1" stop-color="#fff"/></linearGradient><path fill="url(#aaaaO)" d="M12.72 3.07h122.35v11.1H12.72z" opacity=".848"/><linearGradient id="aaaaP" x1="70.351" x2="77.435" y1="-9.865" y2="24.225" gradientUnits="userSpaceOnUse"><stop offset="0" stop-color="#fff"/><stop offset="1" stop-color="#fff"/></linearGradient><path fill="url(#aaaaP)" d="M12.72 1.66h122.35v11.1H12.72z" opacity=".87"/><linearGradient id="aaaaQ" x1="71.272" x2="76.517" y1="-9.442" y2="20.981" gradientUnits="userSpaceOnUse"><stop offset="0" stop-color="#fff"/><stop offset="1" stop-color="#fff"/></linearGradient><path fill="url(#aaaaQ)" d="M12.72.25h122.35v11.1H12.72z" opacity=".891"/><linearGradient id="aaaaR" x1="72.065" x2="75.727" y1="-8.962" y2="17.68" gradientUnits="userSpaceOnUse"><stop offset="0" stop-color="#fff"/><stop offset="1" stop-color="#fff"/></linearGradient><path fill="url(#aaaaR)" d="M12.72-1.17h122.35v11.1H12.72z" opacity=".913"/><linearGradient id="aaaaS" x1="72.727" x2="75.067" y1="-8.435" y2="14.332" gradientUnits="userSpaceOnUse"><stop offset="0" stop-color="#fff"/><stop offset="1" stop-color="#fff"/></linearGradient><path fill="url(#aaaaS)" d="M12.72-2.58h122.35v11.1H12.72z" opacity=".935"/><linearGradient id="aaaaT" x1="73.254" x2="74.541" y1="-7.87" y2="10.946" gradientUnits="userSpaceOnUse"><stop offset="0" stop-color="#fff"/><stop offset="1" stop-color="#fff"/></linearGradient><path fill="url(#aaaaT)" d="M12.72-3.99h122.35v11.1H12.72z" opacity=".957"/><linearGradient id="aaaaU" x1="73.646" x2="74.152" y1="-7.277" y2="7.533" gradientUnits="userSpaceOnUse"><stop offset="0" stop-color="#fff"/><stop offset="1" stop-color="#fff"/></linearGradient><path fill="url(#aaaaU)" d="M12.72-5.41h122.35v11.1H12.72z" opacity=".978"/><linearGradient id="aaaaV" x1="73.899" x2="73.899" y1="-6.663" y2="4.101" gradientUnits="userSpaceOnUse"><stop offset="0" stop-color="#fff"/><stop offset="1" stop-color="#fff"/></linearGradient><path fill="url(#aaaaV)" d="M12.72-6.82h122.35v11.1H12.72z"/></g><defs><path id="aaaaW" d="M127.3 128.47c1.87-.21 3.04-1.61 3.73-3.55 1.21-3.41 1.38-18.61.56-21.37-.61-2.07-.37-6.64-.37-6.64s-45.54 0-55.38.24c-1.66.04-7.43-.15-10.34 3.5-3.79 4.73 1.8 7.55 3.24 8.03 3.84 1.27 9.5.03 9 3.48-.2 1.36-.95 2-4.79 2.08-17.11.37-28.55.58-39.94.69-4.8.04-6.59 1.21-8.52 2.93-2.12 1.89-2.79 6.17-.3 8.93 2.17 2.39 5.83 2.55 8.68 2.55 34.25-.01 84.95.21 94.43-.87z"/></defs><clipPath id="aaaaX"><use overflow="visible" xlink:href="#aaaaW"/></clipPath><g clip-path="url(#aaaaX)"><linearGradient id="aaaaY" x1="19.558" x2="141.908" y1="128.38" y2="132.559" gradientUnits="userSpaceOnUse"><stop offset="0" stop-color="#fff"/><stop offset="1" stop-color="#fff"/></linearGradient><path fill="url(#aaaaY)" d="M19.56 127.24h122.35v6.46H19.56z" opacity=".022"/><linearGradient id="aaaaZ" x1="19.699" x2="141.762" y1="125.472" y2="133.821" gradientUnits="userSpaceOnUse"><stop offset="0" stop-color="#fff"/><stop offset="1" stop-color="#fff"/></linearGradient><path fill="url(#aaaaZ)" d="M19.56 126.42h122.35v6.46H19.56z" opacity=".043"/><linearGradient id="aaaba" x1="19.982" x2="141.473" y1="122.579" y2="135.069" gradientUnits="userSpaceOnUse"><stop offset="0" stop-color="#fff"/><stop offset="1" stop-color="#fff"/></linearGradient><path fill="url(#aaaba)" d="M19.56 125.6h122.35v6.46H19.56z" opacity=".065"/><linearGradient id="aaabb" x1="20.406" x2="141.044" y1="119.711" y2="136.292" gradientUnits="userSpaceOnUse"><stop offset="0" stop-color="#fff"/><stop offset="1" stop-color="#fff"/></linearGradient><path fill="url(#aaabb)" d="M19.56 124.77h122.35v6.46H19.56z" opacity=".087"/><linearGradient id="aaabc" x1="20.969" x2="140.477" y1="116.876" y2="137.481" gradientUnits="userSpaceOnUse"><stop offset="0" stop-color="#fff"/><stop offset="1" stop-color="#fff"/></linearGradient><path fill="url(#aaabc)" d="M19.56 123.95h122.35v6.46H19.56z" opacity=".109"/><linearGradient id="aaabd" x1="21.667" x2="139.774" y1="114.084" y2="138.627" gradientUnits="userSpaceOnUse"><stop offset="0" stop-color="#fff"/><stop offset="1" stop-color="#fff"/></linearGradient><path fill="url(#aaabd)" d="M19.56 123.13h122.35v6.46H19.56z" opacity=".13"/><linearGradient id="aaabe" x1="22.498" x2="138.939" y1="111.345" y2="139.72" gradientUnits="userSpaceOnUse"><stop offset="0" stop-color="#fff"/><stop offset="1" stop-color="#fff"/></linearGradient><path fill="url(#aaabe)" d="M19.56 122.31h122.35v6.46H19.56z" opacity=".152"/><linearGradient id="aaabf" x1="23.457" x2="137.976" y1="108.666" y2="140.752" gradientUnits="userSpaceOnUse"><stop offset="0" stop-color="#fff"/><stop offset="1" stop-color="#fff"/></linearGradient><path fill="url(#aaabf)" d="M19.56 121.49h122.35v6.46H19.56z" opacity=".174"/><linearGradient id="aaabg" x1="24.54" x2="136.888" y1="106.057" y2="141.715" gradientUnits="userSpaceOnUse"><stop offset="0" stop-color="#fff"/><stop offset="1" stop-color="#fff"/></linearGradient><path fill="url(#aaabg)" d="M19.56 120.66h122.35v6.46H19.56z" opacity=".196"/><linearGradient id="aaabh" x1="25.742" x2="135.683" y1="103.525" y2="142.599" gradientUnits="userSpaceOnUse"><stop offset="0" stop-color="#fff"/><stop offset="1" stop-color="#fff"/></linearGradient><path fill="url(#aaabh)" d="M19.56 119.84h122.35v6.46H19.56z" opacity=".217"/><linearGradient id="aaabi" x1="27.057" x2="134.365" y1="101.08" y2="143.397" gradientUnits="userSpaceOnUse"><stop offset="0" stop-color="#fff"/><stop offset="1" stop-color="#fff"/></linearGradient><path fill="url(#aaabi)" d="M19.56 119.02h122.35v6.46H19.56z" opacity=".239"/><linearGradient id="aaabj" x1="28.479" x2="132.94" y1="98.728" y2="144.101" gradientUnits="userSpaceOnUse"><stop offset="0" stop-color="#fff"/><stop offset="1" stop-color="#fff"/></linearGradient><path fill="url(#aaabj)" d="M19.56 118.2h122.35v6.46H19.56z" opacity=".261"/><linearGradient id="aaabk" x1="30.001" x2="131.415" y1="96.476" y2="144.706" gradientUnits="userSpaceOnUse"><stop offset="0" stop-color="#fff"/><stop offset="1" stop-color="#fff"/></linearGradient><path fill="url(#aaabk)" d="M19.56 117.37h122.35v6.46H19.56z" opacity=".283"/><linearGradient id="aaabl" x1="31.617" x2="129.797" y1="94.331" y2="145.203" gradientUnits="userSpaceOnUse"><stop offset="0" stop-color="#fff"/><stop offset="1" stop-color="#fff"/></linearGradient><path fill="url(#aaabl)" d="M19.56 116.55h122.35v6.46H19.56z" opacity=".304"/><linearGradient id="aaabm" x1="33.318" x2="128.094" y1="92.298" y2="145.588" gradientUnits="userSpaceOnUse"><stop offset="0" stop-color="#fff"/><stop offset="1" stop-color="#fff"/></linearGradient><path fill="url(#aaabm)" d="M19.56 115.73h122.35v6.46H19.56z" opacity=".326"/><linearGradient id="aaabn" x1="35.097" x2="126.313" y1="90.384" y2="145.854" gradientUnits="userSpaceOnUse"><stop offset="0" stop-color="#fff"/><stop offset="1" stop-color="#fff"/></linearGradient><path fill="url(#aaabn)" d="M19.56 114.91h122.35v6.46H19.56z" opacity=".348"/><linearGradient id="aaabo" x1="36.945" x2="124.464" y1="88.593" y2="145.997" gradientUnits="userSpaceOnUse"><stop offset="0" stop-color="#fff"/><stop offset="1" stop-color="#fff"/></linearGradient><path fill="url(#aaabo)" d="M19.56 114.09h122.35v6.46H19.56z" opacity=".37"/><linearGradient id="aaabp" x1="38.853" x2="122.555" y1="86.929" y2="146.012" gradientUnits="userSpaceOnUse"><stop offset="0" stop-color="#fff"/><stop offset="1" stop-color="#fff"/></linearGradient><path fill="url(#aaabp)" d="M19.56 113.26h122.35v6.46H19.56z" opacity=".391"/><linearGradient id="aaabq" x1="40.814" x2="120.594" y1="85.397" y2="145.896" gradientUnits="userSpaceOnUse"><stop offset="0" stop-color="#fff"/><stop offset="1" stop-color="#fff"/></linearGradient><path fill="url(#aaabq)" d="M19.56 112.44h122.35v6.46H19.56z" opacity=".413"/><linearGradient id="aaabr" x1="42.817" x2="118.59" y1="84" y2="145.645" gradientUnits="userSpaceOnUse"><stop offset="0" stop-color="#fff"/><stop offset="1" stop-color="#fff"/></linearGradient><path fill="url(#aaabr)" d="M19.56 111.62h122.35v6.46H19.56z" opacity=".435"/><linearGradient id="aaabs" x1="44.854" x2="116.554" y1="82.74" y2="145.259" gradientUnits="userSpaceOnUse"><stop offset="0" stop-color="#fff"/><stop offset="1" stop-color="#fff"/></linearGradient><path fill="url(#aaabs)" d="M19.56 110.8h122.35v6.46H19.56z" opacity=".457"/><linearGradient id="aaabt" x1="46.915" x2="114.494" y1="81.618" y2="144.733" gradientUnits="userSpaceOnUse"><stop offset="0" stop-color="#fff"/><stop offset="1" stop-color="#fff"/></linearGradient><path fill="url(#aaabt)" d="M19.56 109.97h122.35v6.46H19.56z" opacity=".478"/><linearGradient id="aaabu" x1="48.99" x2="112.42" y1="80.637" y2="144.067" gradientUnits="userSpaceOnUse"><stop offset="0" stop-color="#fff"/><stop offset="1" stop-color="#fff"/></linearGradient><path fill="url(#aaabu)" d="M19.56 109.15h122.35v6.46H19.56z" opacity=".5"/><linearGradient id="aaabv" x1="51.07" x2="110.341" y1="79.797" y2="143.26" gradientUnits="userSpaceOnUse"><stop offset="0" stop-color="#fff"/><stop offset="1" stop-color="#fff"/></linearGradient><path fill="url(#aaabv)" d="M19.56 108.33h122.35v6.46H19.56z" opacity=".522"/><linearGradient id="aaabw" x1="53.146" x2="108.267" y1="79.097" y2="142.313" gradientUnits="userSpaceOnUse"><stop offset="0" stop-color="#fff"/><stop offset="1" stop-color="#fff"/></linearGradient><path fill="url(#aaabw)" d="M19.56 107.51h122.35v6.46H19.56z" opacity=".543"/><linearGradient id="aaabx" x1="55.207" x2="106.209" y1="78.537" y2="141.227" gradientUnits="userSpaceOnUse"><stop offset="0" stop-color="#fff"/><stop offset="1" stop-color="#fff"/></linearGradient><path fill="url(#aaabx)" d="M19.56 106.69h122.35v6.46H19.56z" opacity=".565"/><linearGradient id="aaaby" x1="57.244" x2="104.174" y1="78.115" y2="140.002" gradientUnits="userSpaceOnUse"><stop offset="0" stop-color="#fff"/><stop offset="1" stop-color="#fff"/></linearGradient><path fill="url(#aaaby)" d="M19.56 105.86h122.35v6.46H19.56z" opacity=".587"/><linearGradient id="aaabz" x1="59.247" x2="102.173" y1="77.83" y2="138.642" gradientUnits="userSpaceOnUse"><stop offset="0" stop-color="#fff"/><stop offset="1" stop-color="#fff"/></linearGradient><path fill="url(#aaabz)" d="M19.56 105.04h122.35v6.46H19.56z" opacity=".609"/><linearGradient id="aaabA" x1="61.209" x2="100.215" y1="77.679" y2="137.148" gradientUnits="userSpaceOnUse"><stop offset="0" stop-color="#fff"/><stop offset="1" stop-color="#fff"/></linearGradient><path fill="url(#aaabA)" d="M19.56 104.22h122.35v6.46H19.56z" opacity=".63"/><linearGradient id="aaabB" x1="63.119" x2="98.308" y1="77.658" y2="135.524" gradientUnits="userSpaceOnUse"><stop offset="0" stop-color="#fff"/><stop offset="1" stop-color="#fff"/></linearGradient><path fill="url(#aaabB)" d="M19.56 103.4h122.35v6.46H19.56z" opacity=".652"/><linearGradient id="aaabC" x1="64.969" x2="96.461" y1="77.764" y2="133.773" gradientUnits="userSpaceOnUse"><stop offset="0" stop-color="#fff"/><stop offset="1" stop-color="#fff"/></linearGradient><path fill="url(#aaabC)" d="M19.56 102.58h122.35v6.46H19.56z" opacity=".674"/><linearGradient id="aaabD" x1="66.75" x2="94.683" y1="77.992" y2="131.901" gradientUnits="userSpaceOnUse"><stop offset="0" stop-color="#fff"/><stop offset="1" stop-color="#fff"/></linearGradient><path fill="url(#aaabD)" d="M19.56 101.75h122.35v6.46H19.56z" opacity=".696"/><linearGradient id="aaabE" x1="68.454" x2="92.982" y1="78.337" y2="129.913" gradientUnits="userSpaceOnUse"><stop offset="0" stop-color="#fff"/><stop offset="1" stop-color="#fff"/></linearGradient><path fill="url(#aaabE)" d="M19.56 100.93h122.35v6.46H19.56z" opacity=".717"/><linearGradient id="aaabF" x1="70.074" x2="91.366" y1="78.794" y2="127.814" gradientUnits="userSpaceOnUse"><stop offset="0" stop-color="#fff"/><stop offset="1" stop-color="#fff"/></linearGradient><path fill="url(#aaabF)" d="M19.56 100.11h122.35v6.46H19.56z" opacity=".739"/><linearGradient id="aaabG" x1="71.602" x2="89.842" y1="79.356" y2="125.609" gradientUnits="userSpaceOnUse"><stop offset="0" stop-color="#fff"/><stop offset="1" stop-color="#fff"/></linearGradient><path fill="url(#aaabG)" d="M19.56 99.29h122.35v6.46H19.56z" opacity=".761"/><linearGradient id="aaabH" x1="73.031" x2="88.416" y1="80.017" y2="123.306" gradientUnits="userSpaceOnUse"><stop offset="0" stop-color="#fff"/><stop offset="1" stop-color="#fff"/></linearGradient><path fill="url(#aaabH)" d="M19.56 98.46h122.35v6.46H19.56z" opacity=".783"/><linearGradient id="aaabI" x1="74.355" x2="87.096" y1="80.769" y2="120.913" gradientUnits="userSpaceOnUse"><stop offset="0" stop-color="#fff"/><stop offset="1" stop-color="#fff"/></linearGradient><path fill="url(#aaabI)" d="M19.56 97.64h122.35v6.46H19.56z" opacity=".804"/><linearGradient id="aaabJ" x1="75.567" x2="85.886" y1="81.606" y2="118.435" gradientUnits="userSpaceOnUse"><stop offset="0" stop-color="#fff"/><stop offset="1" stop-color="#fff"/></linearGradient><path fill="url(#aaabJ)" d="M19.56 96.82h122.35v6.46H19.56z" opacity=".826"/><linearGradient id="aaabK" x1="76.663" x2="84.793" y1="82.519" y2="115.881" gradientUnits="userSpaceOnUse"><stop offset="0" stop-color="#fff"/><stop offset="1" stop-color="#fff"/></linearGradient><path fill="url(#aaabK)" d="M19.56 96h122.35v6.46H19.56z" opacity=".848"/><linearGradient id="aaabL" x1="77.638" x2="83.822" y1="83.502" y2="113.26" gradientUnits="userSpaceOnUse"><stop offset="0" stop-color="#fff"/><stop offset="1" stop-color="#fff"/></linearGradient><path fill="url(#aaabL)" d="M19.56 95.18h122.35v6.46H19.56z" opacity=".87"/><linearGradient id="aaabM" x1="78.487" x2="82.976" y1="84.543" y2="110.579" gradientUnits="userSpaceOnUse"><stop offset="0" stop-color="#fff"/><stop offset="1" stop-color="#fff"/></linearGradient><path fill="url(#aaabM)" d="M19.56 94.35h122.35v6.46H19.56z" opacity=".891"/><linearGradient id="aaabN" x1="79.206" x2="82.259" y1="85.636" y2="107.848" gradientUnits="userSpaceOnUse"><stop offset="0" stop-color="#fff"/><stop offset="1" stop-color="#fff"/></linearGradient><path fill="url(#aaabN)" d="M19.56 93.53h122.35v6.46H19.56z" opacity=".913"/><linearGradient id="aaabO" x1="79.793" x2="81.674" y1="86.77" y2="105.075" gradientUnits="userSpaceOnUse"><stop offset="0" stop-color="#fff"/><stop offset="1" stop-color="#fff"/></linearGradient><path fill="url(#aaabO)" d="M19.56 92.71h122.35v6.46H19.56z" opacity=".935"/><linearGradient id="aaabP" x1="80.244" x2="81.224" y1="87.939" y2="102.269" gradientUnits="userSpaceOnUse"><stop offset="0" stop-color="#fff"/><stop offset="1" stop-color="#fff"/></linearGradient><path fill="url(#aaabP)" d="M19.56 91.89h122.35v6.46H19.56z" opacity=".957"/><linearGradient id="aaabQ" x1="80.559" x2="80.911" y1="89.129" y2="99.441" gradientUnits="userSpaceOnUse"><stop offset="0" stop-color="#fff"/><stop offset="1" stop-color="#fff"/></linearGradient><path fill="url(#aaabQ)" d="M19.56 91.06h122.35v6.46H19.56z" opacity=".978"/><linearGradient id="aaabR" x1="80.735" x2="80.735" y1="90.335" y2="96.598" gradientUnits="userSpaceOnUse"><stop offset="0" stop-color="#fff"/><stop offset="1" stop-color="#fff"/></linearGradient><path fill="url(#aaabR)" d="M19.56 90.24h122.35v6.46H19.56z"/></g></g></svg><svg viewBox="0 0 128 128" id="1F303" xmlns="http://www.w3.org/2000/svg"><path fill="#fcc21b" d="M119.39 56.23H85.04v43.46h-37.4V85.24H11.76v37.41h24.35v.76h72.59v-5.35h10.69zm-48.2-21.28c.53.44.87 1.39.74 2.08l-.63 3.82c-.11.69.28.96.88.6l3.3-1.96c.59-.37 1.59-.38 2.19-.05l3.39 1.82c.62.33 1 .04.85-.65l-.8-3.78c-.14-.68.16-1.65.66-2.11l2.69-2.59c.51-.48.36-.96-.33-1.04l-3.78-.45c-.7-.07-1.52-.66-1.83-1.28l-1.68-3.31c-.31-.61-.8-.61-1.09.02l-1.51 3.38c-.29.65-1.08 1.26-1.78 1.37l-3.78.61c-.68.1-.82.59-.29 1.05l2.8 2.47zm17.92-21.27c.53.44.87 1.39.74 2.08l-.63 3.82c-.11.69.28.96.88.6l3.3-1.96c.59-.37 1.59-.38 2.19-.05l3.39 1.82c.62.33 1 .04.85-.65l-.8-3.78c-.14-.68.16-1.65.66-2.11l2.69-2.59c.51-.48.36-.96-.33-1.04l-3.78-.45c-.7-.07-1.52-.66-1.83-1.28l-1.68-3.31c-.31-.61-.8-.61-1.09.02l-1.51 3.38c-.29.65-1.08 1.26-1.78 1.37l-3.78.61c-.68.11-.82.59-.29 1.05l2.8 2.47zM56.15 52.93c1.49-.31 5.26-1.38 5.08-3.44-.21-2.5-5.54-3.01-7.35-3.53-14.73-4.16-17.63-26.29-6.8-36.16 1.63-1.49 3.46-2.75 5.22-4.07 1.04-.78 4.46-1.92 4.14-3.63C55.95.05 50.09.05 48.6.06c-5.59.02-11.2 1.28-16.17 3.88-7.21 3.77-11.95 11.65-12.65 19.59-.7 7.88.23 14.56 6 20.4 8.36 8.45 18.87 11.42 30.37 9z"/><path fill="#006ca2" d="M112.99 50.69H87.8c-5.24 0-9.52 4.29-9.52 9.52v31.76H51.1v-5.45c0-5.24-4.29-9.52-9.52-9.52H15.01c-5.24 0-9.52 4.29-9.52 9.52v31.91c0 .28.06.54.08.82v8.7H122.5V60.21c.01-5.23-4.28-9.52-9.51-9.52zm-91.91 63.89c0 1.44-1.18 2.62-2.62 2.62H15.4c-1.44 0-2.62-1.18-2.62-2.62v-4.86c0-1.43 1.18-2.62 2.62-2.62h3.06c1.44 0 2.62 1.18 2.62 2.62v4.86zm0-14.89c0 1.44-1.18 2.62-2.62 2.62H15.4c-1.44 0-2.62-1.18-2.62-2.62v-4.86c0-1.43 1.18-2.62 2.62-2.62h3.06c1.44 0 2.62 1.18 2.62 2.62v4.86zm11.66 14.89c0 1.44-1.18 2.62-2.62 2.62h-3.06c-1.44 0-2.62-1.18-2.62-2.62v-4.86c0-1.43 1.18-2.62 2.62-2.62h3.06c1.44 0 2.62 1.18 2.62 2.62v4.86zm0-14.89c0 1.44-1.18 2.62-2.62 2.62h-3.06c-1.44 0-2.62-1.18-2.62-2.62v-4.86c0-1.43 1.18-2.62 2.62-2.62h3.06c1.44 0 2.62 1.18 2.62 2.62v4.86zm11.66 0c0 1.21-.84 2.18-1.96 2.48-.22.06-.43.14-.66.14h-3.06c-1.44 0-2.62-1.18-2.62-2.62v-4.86c0-1.43 1.18-2.62 2.62-2.62h3.06c.23 0 .44.07.66.14 1.11.3 1.96 1.28 1.96 2.48v4.86zm11.66 14.89c0 1.44-1.18 2.62-2.62 2.62h-3.05c-1.44 0-2.62-1.18-2.62-2.62v-4.86c0-1.43 1.18-2.62 2.62-2.62h3.06c1.44 0 2.62 1.18 2.62 2.62v4.86zM95 68.96c0 1.44-1.18 2.62-2.62 2.62h-3.06c-1.44 0-2.62-1.18-2.62-2.62V64.1c0-1.44 1.18-2.62 2.62-2.62h3.06c1.44 0 2.62 1.18 2.62 2.62v4.86zm9.26 31.59c0 .48-1.18 1.66-2.62 1.66h-3.06c-1.44 0-2.62-1.18-2.62-2.62v-4.86c0-1.44 1.18-2.62 2.62-2.62h3.06c1.44 0 2.62 1.18 2.62 1.66v6.78zM115.46 86c0 .48-1.18 1.66-2.62 1.66h-3.06c-1.44 0-2.62-1.18-2.62-2.62v-4.86c0-1.43 1.18-2.62 2.62-2.62h3.06c1.44 0 2.62 1.18 2.62 1.66V86zm0-16.08c0 .48-1.18 1.66-2.62 1.66h-3.06c-1.44 0-2.62-1.18-2.62-2.62V64.1c0-1.44 1.18-2.62 2.62-2.62h3.06c1.44 0 2.62 1.18 2.62 1.66v6.78z"/></svg><svg viewBox="0 0 128 128" id="1F304" xmlns="http://www.w3.org/2000/svg"><g fill="#fcc21b"><path d="M92.02 68.66c-2.71-11.97-10.64-18.94-24.25-21.31a30.33 30.33 0 0 0-5.07-.42c-4.52 0-9.02.88-12.69 2.49-8.94 3.91-14.91 11.46-16.39 20.72-1.47 9.22 1.97 18.58 9.19 25.03 2.81 2.51 5.88 4.4 9.12 5.61 3.09 1.15 6.48 1.73 10.08 1.73 8.93 0 17.92-3.68 23.47-9.59 6.07-6.46 8.51-15.53 6.54-24.26z"/><path d="M118.93 72c-.1-.33-.35-.59-.68-.7l-13.52-4.61 11.82-10.89c.32-.29.42-.74.28-1.14-.14-.4-.52-.68-.94-.71l-16.77-1.02 5.43-15.68a1.068 1.068 0 0 0-1.32-1.37l-15.91 4.87 1.97-16.86c.04-.42-.16-.83-.53-1.05-.37-.21-.83-.18-1.17.08L72.4 34.32l-8.45-17.04c-.18-.37-.47-.55-.97-.59-.42 0-.78.25-.96.62l-7.5 16.44-14.17-12.19c-.32-.27-.78-.34-1.15-.16-.38.18-.62.56-.62.98l.27 17.17-16.38-5.56c-.39-.13-.82-.03-1.12.28-.28.3-.37.75-.22 1.13l6.36 15.9-16.69 1.84c-.4.05-.74.31-.88.69-.14.38-.05.8.22 1.1l10.38 11.04-13.27 4.9a1.064 1.064 0 0 0-.47 1.66l19.16 24.41c.2.26.51.41.84.41h.05l11.52-.53c-7.21-7.33-10.54-17.39-8.95-27.34 1.72-10.73 8.6-19.46 18.89-23.96 4.2-1.83 9.31-2.85 14.4-2.85 2.02 0 3.97.16 5.8.48 15.28 2.65 24.59 10.92 27.68 24.57a31.01 31.01 0 0 1-6.46 26.76l12.43-.57c.31-.01.6-.16.79-.41l15.82-20.54c.22-.28.28-.63.18-.96z"/></g><defs><path id="aaca" d="M127.99 115.9c0 6.65-5.44 12.09-12.1 12.09H12.09C5.44 127.99 0 122.55 0 115.9V12.1C0 5.44 5.44 0 12.09 0h103.8c6.66 0 12.1 5.44 12.1 12.1v103.8z"/></defs><clipPath id="aacb"><use overflow="visible" xlink:href="#aaca"/></clipPath><path fill="#757f3f" d="M-16.44 75.04c.09.08.18.15.28.23 2.51-4.45 8.19-8.8 12.61-11.24 5.69-3.15 11.49-6.91 18.11-7.53 7.15-.67 13.5 2.75 19.14 6.8 5.03 3.61 19.21 18.18 22.14 21.03 2.43 2.35 6.89 5.51 10.55 4.32 2-.66 3.74-2.47 5.45-3.67 16.06-11.26 31.83-32.72 53.32-20.71 8.57 4.79 15.92 12.97 21.35 21.07 3.56 5.31 3.31 12.51 4.6 18.57 1.01 4.68 3.25 8.93 4.54 13.52 1.19 4.23 2.85 8.47 3.86 12.7.34 1.41.07 3.21.05 4.66-.02 1.47-.03 1.55-1.04 2.45-3.24 2.9-10.31 2.81-14.31 2.88-9.14.14-18.13 1.99-27.27 2.14-4.38.07-8.85.19-13.22-.09-4.61-.3-9.21-.93-13.83-1.01-19.03-.32-38.19.9-57.18-.43-7.53-.53-15.04-.23-22.57.09-6.07.26-12.32 1.62-18.43 1.08-1.36-.12-3.83-.68-4.97-1.51-1.91-1.39-1.06-5.39-1.06-7.4l-2.12-57.95z" clip-path="url(#aacb)"/></svg><svg viewBox="0 0 128 128" id="1F305" xmlns="http://www.w3.org/2000/svg"><g fill="#fcc21b"><path d="M92.81 77.43c-2.71-11.97-10.64-18.94-24.25-21.3-1.59-.28-3.29-.42-5.07-.42-4.51 0-9.02.88-12.68 2.49-8.94 3.91-14.91 11.46-16.39 20.71-.93 5.84.12 11.72 2.83 16.89l54.33-2.47a26.809 26.809 0 0 0 1.23-15.9z"/><path d="m119.05 80.07-13.52-4.61 11.81-10.89c.32-.29.42-.74.28-1.15-.14-.4-.51-.68-.94-.7L99.93 61.7l5.44-15.68a1.068 1.068 0 0 0-1.32-1.37l-15.91 4.87 1.96-16.86c.04-.42-.16-.84-.53-1.05-.37-.22-.83-.19-1.17.07L73.2 43.09l-8.45-17.04c-.18-.37-.5-.62-.97-.6-.41.01-.78.25-.95.62l-7.5 16.44-14.18-12.18c-.32-.27-.77-.33-1.15-.15-.38.18-.62.56-.61.98l.27 17.18-16.38-5.56a1.072 1.072 0 1 0-1.34 1.41l6.35 15.9-16.69 1.82c-.4.05-.75.31-.88.69-.14.38-.05.8.22 1.1l10.39 11.04-13.27 4.9a1.076 1.076 0 1 0-.28 1.86l19.16 14.54c.19.14.41.22.65.22h.05l4.96-.23c-2.49-5.53-3.37-11.68-2.39-17.78 1.71-10.72 8.6-19.45 18.89-23.95 4.2-1.84 9.31-2.85 14.4-2.85 2.02 0 3.97.16 5.8.48 15.28 2.65 24.6 10.92 27.68 24.56 1.27 5.62.9 11.36-.83 16.64l6.8-.31c.2-.01.38-.07.55-.18l15.82-10.68c.33-.23.51-.62.46-1.03-.07-.4-.34-.73-.73-.86z"/></g><defs><path id="aada" d="M127.99 115.9c0 6.65-5.44 12.09-12.09 12.09H12.1c-6.66 0-12.1-5.44-12.1-12.09V12.1C0 5.45 5.44 0 12.1 0h103.8c6.65 0 12.09 5.45 12.09 12.1v103.8z"/></defs><clipPath id="aadb"><use overflow="visible" xlink:href="#aada"/></clipPath><path fill="#40c0e7" d="M-7.02 85.44h142.41v49.83H-7.02z" clip-path="url(#aadb)"/><g fill="#fff" clip-path="url(#aadb)"><path d="M17.85 95.66c-1.18-.72-2.79-.9-4.14-.89-2.61.01-7.81-.76-7.5 3.37.1 1.22.86 2.13 2.05 2.43 1.97.49 4.3.48 6.31.33 1.16-.09 2.65-.3 3.69-.87 1.66-.9 1.06-3.4-.28-4.28-.04-.03-.08-.05-.13-.09zm15.47 8.64c-1.18-.72-2.79-.9-4.14-.9-2.61.01-7.81-.76-7.5 3.37.09 1.23.86 2.14 2.05 2.43 1.98.49 4.3.48 6.32.33 1.15-.08 2.65-.3 3.68-.86 1.67-.9 1.06-3.4-.27-4.29-.05-.02-.09-.06-.14-.08zm88.26-10.43c-1.18-.72-2.79-.9-4.14-.89-2.61.01-7.81-.76-7.5 3.37.09 1.23.86 2.13 2.05 2.43 1.97.49 4.3.48 6.31.33 1.16-.09 2.64-.3 3.69-.87 1.66-.9 1.06-3.4-.27-4.28-.05-.03-.1-.05-.14-.09zm-10.91 9.52c-1.18-.72-2.79-.9-4.14-.89-2.61.01-7.81-.76-7.5 3.37.09 1.22.86 2.13 2.04 2.43 1.98.49 4.3.48 6.32.33 1.15-.09 2.64-.3 3.68-.87 1.67-.9 1.06-3.4-.28-4.28a.623.623 0 0 0-.12-.09zm-67.56-11.4c2.16-.01 4.32-.04 6.48-.02 7.06.07 14.13-.08 21.19-.07 6.63.01 13.25.17 19.88.17 1.63 0 3.36-.03 4.88.33.88.22 1.8.35 2.13 1.3.62 1.75-.55 2.68-1.81 3.63-1.97 1.48-2.83 3.49-4.38 5.29-1.68 1.96-4.88 2.78-7.36 2.97-3.37.25-4.79-.66-6.76 2.43-.59.93-1.33 1.29-2.32 1.67-1.36.52-2.94.94-4.4.93-3.34-.02-8.33.61-10.75-2.28-1.04-1.23-1.55-2.54-3.29-2.8-1.02-.16-2.04-.29-3.09-.29-1.14 0-2.43.18-3.55.01-.89-.14-1.79-.64-2.43-1.27-.65-.63-1.02-1.74-1.35-2.65-.6-1.65-2.55-2.12-4.15-2.28-.95-.1-1.88-.33-2.85-.32-1.03 0-1.91-.07-2.89-.37-1.6-.5-3.94-2.31-3.34-4.22.84-2.68 4.06-2.27 6.15-2.22 1.32.06 2.66.07 4.01.06z"/></g></svg><svg viewBox="0 0 128 128" id="1F306" xmlns="http://www.w3.org/2000/svg"><defs><path id="aaeb" d="M127.99 115.89c0 6.66-5.44 12.1-12.1 12.1H12.1c-6.65 0-12.1-5.44-12.1-12.1V12.1C0 5.44 5.44 0 12.1 0h103.8c6.65 0 12.1 5.44 12.1 12.1v103.79z"/></defs><linearGradient id="aaea" x1="63.995" x2="63.995" y1=".637" y2="127.581" gradientUnits="userSpaceOnUse"><stop offset="0" stop-color="#ed6c30"/><stop offset=".534" stop-color="#f79329"/><stop offset="1" stop-color="#fcc21b"/></linearGradient><use fill="url(#aaea)" overflow="visible" xlink:href="#aaeb"/><clipPath id="aaec"><use overflow="visible" xlink:href="#aaeb"/></clipPath><g clip-path="url(#aaec)"><path fill="#2f2f2f" d="M8.58 109.28h111.49v19.87H8.58z"/><path fill="#2f2f2f" d="M51.99 89.68c0-4.99-4.08-9.07-9.07-9.07h-25.3c-4.99 0-9.07 4.08-9.07 9.07v30.39c0 4.99 4.08 9.07 9.07 9.07h25.3c4.99 0 9.07-4.08 9.07-9.07V89.68z"/><path fill="#2f2f2f" d="M43.75 94.87h42.14v34.28H43.75z"/><path fill="#2f2f2f" d="M120.02 64.62c0-4.99-4.08-9.07-9.07-9.07H86.96c-4.99 0-9.07 4.08-9.07 9.07v55.46c0 4.99 4.08 9.07 9.07 9.07h23.99c4.99 0 9.07-4.08 9.07-9.07V64.62z"/><path fill="#fcc21b" d="M93.82 72.95c0 1.37-1.12 2.5-2.49 2.5h-2.92c-1.37 0-2.49-1.12-2.49-2.5v-4.63c0-1.37 1.12-2.49 2.49-2.49h2.92c1.37 0 2.49 1.13 2.49 2.49v4.63zm19.49.91c0 .46-1.12 1.58-2.49 1.58h-2.92c-1.37 0-2.5-1.12-2.5-2.5v-4.63c0-1.37 1.12-2.49 2.5-2.49h2.92c1.37 0 2.49 1.13 2.49 1.58v6.46z"/><path fill="#f79329" d="M113.31 89.18c0 .46-1.12 1.58-2.49 1.58h-2.92c-1.37 0-2.5-1.12-2.5-2.49v-4.63c0-1.37 1.12-2.5 2.5-2.5h2.92c1.37 0 2.49 1.13 2.49 1.58v6.46z"/><path fill="#fcc21b" d="M102.64 103.04c0 .46-1.12 1.58-2.49 1.58h-2.92c-1.37 0-2.5-1.12-2.5-2.49V97.5c0-1.37 1.12-2.5 2.5-2.5h2.92c1.37 0 2.49 1.12 2.49 1.58v6.46zm-79.24-.82c0 1.37-1.12 2.5-2.5 2.5h-2.91a2.5 2.5 0 0 1-2.5-2.5v-4.63c0-1.37 1.12-2.49 2.5-2.49h2.91c1.37 0 2.5 1.12 2.5 2.49v4.63z"/><path fill="#f79329" d="M34.51 102.22c0 1.37-1.12 2.5-2.5 2.5H29.1a2.5 2.5 0 0 1-2.5-2.5v-4.63c0-1.37 1.12-2.49 2.5-2.49h2.91c1.37 0 2.5 1.12 2.5 2.49v4.63z"/><path fill="#fcc21b" d="M45.62 102.22c0 1.37-1.12 2.5-2.5 2.5h-2.91a2.5 2.5 0 0 1-2.5-2.5v-4.63c0-1.37 1.12-2.49 2.5-2.49h2.91c1.37 0 2.5 1.12 2.5 2.49v4.63z"/><path fill="#f79329" d="M23.4 116.4c0 1.37-1.12 2.5-2.5 2.5h-2.91a2.5 2.5 0 0 1-2.5-2.5v-4.63c0-1.37 1.12-2.49 2.5-2.49h2.91c1.37 0 2.5 1.12 2.5 2.49v4.63z"/><path fill="#fcc21b" d="M34.51 116.4c0 1.37-1.12 2.5-2.5 2.5H29.1a2.5 2.5 0 0 1-2.5-2.5v-4.63c0-1.37 1.12-2.49 2.5-2.49h2.91c1.37 0 2.5 1.12 2.5 2.49v4.63z"/><path fill="#f79329" d="M56.73 116.4c0 1.37-1.12 2.5-2.5 2.5h-2.91a2.5 2.5 0 0 1-2.5-2.5v-4.63c0-1.37 1.12-2.49 2.5-2.49h2.91c1.37 0 2.5 1.12 2.5 2.49v4.63z"/></g></svg><svg viewBox="0 0 128 128" id="1F307" xmlns="http://www.w3.org/2000/svg"><defs><path id="aafb" d="M127.99 115.89c0 6.65-5.44 12.1-12.1 12.1H12.1c-6.65 0-12.1-5.44-12.1-12.1V12.1C0 5.44 5.44 0 12.1 0h103.8c6.65 0 12.1 5.44 12.1 12.1v103.79z"/></defs><linearGradient id="aafa" x1="63.995" x2="63.995" y1=".637" y2="127.582" gradientUnits="userSpaceOnUse"><stop offset="0" stop-color="#ed6c30"/><stop offset=".534" stop-color="#f79329"/><stop offset="1" stop-color="#fcc21b"/></linearGradient><use fill="url(#aafa)" overflow="visible" xlink:href="#aafb"/><clipPath id="aafc"><use overflow="visible" xlink:href="#aafb"/></clipPath><g clip-path="url(#aafc)"><defs><path id="aafd" d="M94.67 43.45c0 16.94-13.73 30.67-30.67 30.67S33.33 60.39 33.33 43.45 47.06 12.78 64 12.78c16.93 0 30.67 13.73 30.67 30.67z"/></defs><use fill="#fcc21b" overflow="visible" xlink:href="#aafd"/></g><g clip-path="url(#aafc)"><path fill="#2f2f2f" d="M8.58 109.28h111.49v19.87H8.58z"/><path fill="#2f2f2f" d="M51.99 89.69c0-4.99-4.08-9.07-9.07-9.07h-25.3c-4.99 0-9.07 4.08-9.07 9.07v30.39c0 4.99 4.08 9.07 9.07 9.07h25.3c4.99 0 9.07-4.08 9.07-9.07V89.69z"/><path fill="#2f2f2f" d="M43.75 94.87h42.14v34.28H43.75z"/><path fill="#2f2f2f" d="M120.02 64.62c0-4.99-4.08-9.07-9.07-9.07H86.96c-4.99 0-9.07 4.08-9.07 9.07v55.46c0 4.99 4.08 9.07 9.07 9.07h23.99c4.99 0 9.07-4.08 9.07-9.07V64.62z"/><path fill="#fcc21b" d="M93.82 72.95c0 1.37-1.12 2.5-2.49 2.5h-2.92c-1.37 0-2.49-1.12-2.49-2.5v-4.63c0-1.37 1.12-2.49 2.49-2.49h2.92c1.37 0 2.49 1.12 2.49 2.49v4.63zm19.49.91c0 .46-1.12 1.58-2.49 1.58h-2.92c-1.37 0-2.5-1.12-2.5-2.5v-4.63c0-1.37 1.12-2.49 2.5-2.49h2.92c1.37 0 2.49 1.12 2.49 1.58v6.46z"/><path fill="#f79329" d="M113.31 89.18c0 .46-1.12 1.58-2.49 1.58h-2.92c-1.37 0-2.5-1.12-2.5-2.49v-4.63c0-1.37 1.12-2.5 2.5-2.5h2.92c1.37 0 2.49 1.12 2.49 1.58v6.46z"/><path fill="#fcc21b" d="M102.64 103.04c0 .46-1.12 1.58-2.49 1.58h-2.92c-1.37 0-2.5-1.12-2.5-2.49V97.5c0-1.37 1.12-2.5 2.5-2.5h2.92c1.37 0 2.49 1.13 2.49 1.58v6.46zm-79.24-.82c0 1.37-1.12 2.5-2.5 2.5h-2.91a2.5 2.5 0 0 1-2.5-2.5v-4.63c0-1.37 1.12-2.49 2.5-2.49h2.91c1.37 0 2.5 1.12 2.5 2.49v4.63z"/><path fill="#f79329" d="M34.51 102.22c0 1.37-1.12 2.5-2.5 2.5H29.1a2.5 2.5 0 0 1-2.5-2.5v-4.63c0-1.37 1.12-2.49 2.5-2.49h2.91c1.37 0 2.5 1.12 2.5 2.49v4.63z"/><path fill="#fcc21b" d="M45.62 102.22c0 1.37-1.12 2.5-2.5 2.5h-2.91a2.5 2.5 0 0 1-2.5-2.5v-4.63c0-1.37 1.12-2.49 2.5-2.49h2.91c1.37 0 2.5 1.12 2.5 2.49v4.63z"/><path fill="#f79329" d="M23.4 116.4c0 1.37-1.12 2.5-2.5 2.5h-2.91a2.5 2.5 0 0 1-2.5-2.5v-4.63c0-1.37 1.12-2.49 2.5-2.49h2.91c1.37 0 2.5 1.13 2.5 2.49v4.63z"/><path fill="#fcc21b" d="M34.51 116.4c0 1.37-1.12 2.5-2.5 2.5H29.1a2.5 2.5 0 0 1-2.5-2.5v-4.63c0-1.37 1.12-2.49 2.5-2.49h2.91c1.37 0 2.5 1.13 2.5 2.49v4.63z"/><path fill="#f79329" d="M56.73 116.4c0 1.37-1.12 2.5-2.5 2.5h-2.91a2.5 2.5 0 0 1-2.5-2.5v-4.63c0-1.37 1.12-2.49 2.5-2.49h2.91c1.37 0 2.5 1.13 2.5 2.49v4.63z"/></g></svg><svg viewBox="0 0 128 128" id="1F309" xmlns="http://www.w3.org/2000/svg"><defs><path id="aaga" d="M127.99 115.89c0 6.65-5.44 12.1-12.1 12.1H12.1c-6.65 0-12.1-5.44-12.1-12.1V12.1C0 5.44 5.44 0 12.1 0h103.8c6.65 0 12.1 5.44 12.1 12.1v103.79z"/></defs><use fill="#006ca2" overflow="visible" xlink:href="#aaga"/><clipPath id="aagb"><use overflow="visible" xlink:href="#aaga"/></clipPath><g clip-path="url(#aagb)"><path fill="#fff" d="M28.04 104.89h15.65v29.24H28.04zm57.5 0h15.66v29.24H85.54z"/><path fill="#fff" d="M28.04 104.89h15.65v13.89H28.04zm57.5 0h15.66v13.89H85.54z"/><path fill="#fff" d="M-4.59 98.59h145.37v12.6H-4.59z"/><path fill="#fff" d="M-4.59 98.59h145.37v4.94H-4.59z"/><defs><path id="aagc" d="M-3.29 79.85C37.1 72.1 64.62 34.77 64.62 34.77h.01s27.52 37.33 67.91 45.08v26.16H-4.59l1.3-26.16z"/></defs><clipPath id="aagd"><use overflow="visible" xlink:href="#aagc"/></clipPath><g fill="#fff" clip-path="url(#aagd)"><path d="M60.44 5.5h8.35v99.3h-8.35zm-15.81 0h5.07v99.3h-5.07zm-17.11 0h5.07v99.3h-5.07zm-17.13 0h5.08v99.3h-5.08zm69.64 0h5.07v99.3h-5.07zm17.12 0h5.08v99.3h-5.08zm17.12 0h5.08v99.3h-5.08z"/></g><path fill="#fff" d="M132.53 82.08c-.14 0-.28-.01-.42-.04-35.4-6.8-60.7-35.27-67.5-43.66-6.85 8.38-32.41 36.93-67.48 43.66a2.23 2.23 0 1 1-.84-4.38c39.07-7.5 66.26-43.85 66.53-44.21.84-1.14 2.75-1.13 3.59 0 1.12 1.5 27.87 36.79 66.54 44.21 1.21.23 2 1.4 1.77 2.61a2.225 2.225 0 0 1-2.19 1.81z"/><g fill="#fcc21b"><circle cx="102.05" cy="12.32" r="3.88"/><circle cx="45.43" cy="10.98" r="3.88"/><path d="M23.79 34.56c0 2.13-1.73 3.88-3.88 3.88a3.89 3.89 0 0 1-3.88-3.88c0-2.14 1.74-3.88 3.88-3.88 2.14.01 3.88 1.74 3.88 3.88zM17.3 54.79c0 1.82-1.48 3.31-3.31 3.31-1.82 0-3.31-1.48-3.31-3.31s1.48-3.31 3.31-3.31 3.31 1.47 3.31 3.31z"/><ellipse cx="18.3" cy="14.85" rx="2.41" ry="2.41"/><path d="M44.78 33.12c0 1.33-1.08 2.41-2.41 2.41s-2.41-1.08-2.41-2.41a2.42 2.42 0 0 1 2.41-2.42c1.34 0 2.41 1.08 2.41 2.42z"/><ellipse cx="83.53" cy="15.54" rx="2.41" ry="2.41"/><path d="M93.77 34.77c0 1.33-1.08 2.41-2.42 2.41-1.33 0-2.41-1.08-2.41-2.41s1.08-2.41 2.41-2.41c1.34.01 2.42 1.08 2.42 2.41zm24.73-4.9c0 1.33-1.08 2.41-2.41 2.41s-2.41-1.08-2.41-2.41 1.08-2.41 2.41-2.41 2.41 1.07 2.41 2.41zm-2.93 19.21c0 1.32-1.07 2.41-2.41 2.41-1.33 0-2.41-1.08-2.41-2.41a2.42 2.42 0 0 1 2.41-2.42c1.33 0 2.41 1.08 2.41 2.42z"/></g></g></svg><svg viewBox="0 0 128 128" id="1F3A0" xmlns="http://www.w3.org/2000/svg"><path fill="#fcc21b" d="M16.48 21.66s-3.81-2.54-6.42-4.42c-2.92-2.1-4.66-3.62-4.27-4.52.23-.53 1.62-.39 4 .15 3.96.9 9.63 2.68 9.63 2.68l-2.94 6.11z"/><defs><path id="aaha" d="M58.58 3.02h9.99v124.7h-9.99z"/></defs><use fill="#fcc21b" overflow="visible" xlink:href="#aaha"/><clipPath id="aahb"><use overflow="visible" xlink:href="#aaha"/></clipPath><g fill="#f79329" clip-path="url(#aahb)"><path d="M58.27 27.65c-.58 0-.94-.05-1-.05l.31-2.28-.16 1.14.15-1.14c.25.02 6.37.74 11.13-5.91l1.87 1.34c-4.45 6.21-10.05 6.9-12.3 6.9zm0 10.51c-.58 0-.94-.05-1-.06l.31-2.27-.16 1.14.15-1.14c.25.03 6.37.74 11.13-5.91l1.87 1.34c-4.45 6.21-10.05 6.9-12.3 6.9zm0 10.51c-.58 0-.94-.05-1-.05l.31-2.28-.16 1.14.15-1.14c.25.02 6.37.74 11.13-5.91l1.87 1.34c-4.45 6.22-10.05 6.9-12.3 6.9zm0 48.89c-.58 0-.94-.05-1-.05l.31-2.28-.16 1.14.15-1.14c.25.03 6.37.73 11.13-5.91l1.87 1.34c-4.45 6.21-10.05 6.9-12.3 6.9zm0 10.51c-.58 0-.94-.05-1-.05l.31-2.28-.16 1.14.15-1.14c.25.02 6.37.74 11.13-5.91l1.87 1.34c-4.45 6.21-10.05 6.9-12.3 6.9zm0 10.51c-.58 0-.94-.05-1-.06l.31-2.27-.16 1.14.15-1.14c.25.03 6.37.74 11.13-5.91l1.87 1.34c-4.45 6.21-10.05 6.9-12.3 6.9zm0 10.51a7.9 7.9 0 0 1-1-.05l.31-2.28-.16 1.14.15-1.14c.25.02 6.37.74 11.13-5.91l1.87 1.34c-4.45 6.22-10.05 6.9-12.3 6.9z"/></g><circle cx="63.57" cy="9.71" r="7.21" fill="#f79329" clip-path="url(#aahb)"/><ellipse cx="63.57" cy="7.49" fill="#fcc21b" rx="7.21" ry="7.21"/><defs><path id="aahc" d="M126.33 77.43c-1.03-.53-1.79-.91-2.8-1.58-2.05-1.36-3.28-2.55-4.06-4.88-.89-2.68-1.71-5.53-2.92-8.08-2.2-4.62-6.38-8.39-11.58-9.09-2.75-.37-8.23.42-10.99 2.92-.13-.09-.26-.19-.4-.28-.69-.45-1.47-.61-2.25-.95-1.66-.73-3.62-1.37-5.43-1.49-6.22-.42-12 1.54-18.15 0-1.58-.39-3.15-.73-4.71-1.06-.18-.04-.41-.11-.67-.19-1.65-1.25-3.79-2.46-4.63-3.46-6.51-7.64-3.76-20-10.56-28.06-6.53-7.73-15.89-12.05-25.92-8.45-3.48 1.25-4.07 4.71-5.1 7.79-1.47 4.43-2.02 8.97-3.25 13.45-.65 2.37-1.84 6.97-.61 9.31 1.42 2.69 6.41 3.28 8.96 2.34 3.86-1.44 4.98-5.72 7.21-8.58 1.9-2.45 4.38-1.4 5.21 1.08.66 1.99-.97 5.39-1.69 7.19-1.91 4.85-5.08 9.02-7.29 13.72-2.02 4.29-2.75 9.6-2.72 14.29.03 3.39 1.61 5.53-2.32 7.23-2.55 1.1-5.15 2.28-6.3 4.99-.99 2.32-1.03 4.94-1.27 7.42-.46 4.98-.87 9.84 1.08 14.43.38.9.94 1.45 1.64 2.28 1.76 2.1 3.05 3.96 6.02 3.69 1.92-.17 1.79-1.64 2.08-3.12.34-1.73.81-2.79.29-4.63-.57-1.96-3.1-1.79-3.48-3.98-.49-2.77-.11-6.09.74-8.75 1.8-5.62 8.11-3.89 12.69-3.41 3.97.42 7.94 1.01 11.94 1.06 5 .05 10-.35 14.95-1.04 4.67-.64 9.28-1.77 13.98-2.04 3.99-.22 9.4 1.22 12.56 3.77 1.53 1.23 3.19 2.48 4.61 3.85 1.49 1.44 2.62 2.27 1.16 4.23-1.59 2.14-3.66 3.82-5.86 5.29-2.54 1.7-5.47 3.19-7.33 5.7-1.31 1.75-3.26 6.7-.54 8.08 1.35.68 4.24-.28 5.67-.78 1.9-.65 4.4-2.2 4.87-4.3.25-1.05.06-1.42.85-2.27.48-.53 1.09-1.18 1.66-1.63 1.79-1.42 4.39-2.13 6.43-3.17 3.16-1.6 9.27-4.05 10.45-7.85 2.18-7.12-8.47-13.96-8.47-21.22 0-3.18.65-6.43.39-9.61.04-.7.16-1.86.8-2.06.24-.08.56.03.85.23 1.44 2.76 1.81 6.53 3.03 9.22 3.46 7.71 10.74 10.59 18.46 6.95 1.27-.61 5.6-3.04 2.72-4.5z"/></defs><use fill="#d7598b" overflow="visible" xlink:href="#aahc"/><clipPath id="aahd"><use overflow="visible" xlink:href="#aahc"/></clipPath><path fill="#40c0e7" d="M51.23 47.71s-11.29 4.94-23.58 3.14c0 0-7.9 8.06-6.95 22.02l11.2-8.99 7.08 12.73 6.8-16.08 9.56 4.88 7.37-13.87-11.48-3.83z" clip-path="url(#aahd)"/><g fill="#fcc21b" clip-path="url(#aahd)"><path d="M28.94 48.46s11.86 2.2 22.63-4.38l2.29 4.38s-11.78 7.72-27.53 4.8l2.61-4.8zM20.38 71.1l.81-.81 2.06-2.06L26 65.48c.95-.96 1.91-1.91 2.87-2.87.81-.81 1.61-1.62 2.43-2.43.24-.24.48-.48.71-.72.2-.19.49-.58.79-.55.28.03.4.37.49.59.22.52.45 1.03.67 1.54.56 1.27 1.11 2.55 1.67 3.82.59 1.34 1.15 2.69 1.75 4.03.18.41.83 2.31 1.42 2.31.53 0 1.93-3.91 1.93-3.91.19-.52.39-1.03.58-1.55.43-1.17.87-2.33 1.3-3.49.47-1.24.92-2.48 1.39-3.72.13-.36.27-.73.41-1.1.11-.3.17-.75.55-.83.32-.07.6.21.82.4.47.4.97.79 1.46 1.16 1.46 1.08 3.02 2.05 4.65 2.86.57.29 1.16.55 1.75.79L52 66.75s-2.82-.36-4.83-2.05c-.25-.21-.42-.41-.71-.39-.3.02-.42.69-.42.69l-5.07 12.3s-1.5 3.08-3.58.57c-1.01-1.21-1.77-2.66-2.53-4.03-.88-1.6-1.7-3.23-2.49-4.87-.27-.55-.42-1.2-.75-1.72-.43-.67-1.09 0-1.46.42-.24.28-.52.51-.79.78-.75.76-1.5 1.53-2.25 2.29-1.63 1.63-3.27 3.27-4.9 4.89l-1.1 1.1"/></g><path fill="#40c0e7" d="m96.77 56.89-14.83.1-.96 9.28 16.97.65 4.38-4.76z" clip-path="url(#aahd)"/><g fill="#fcc21b" clip-path="url(#aahd)"><path d="m101.44 64.78-1.69-4.28c-7.36 6.22-17.69 2.64-17.69 2.64l-.63 2.15-1.09-.29-2.32 7.35s4.24 1.65 6.64-2.22c0 0 .57 3.96 5.07 4.01 3.09.04 3.91-2.5 4.13-3.92h.01s1.34 4.63 6.81 3.96c0 0 .9-4.08.25-8.97.34-.26.51-.43.51-.43zm-4.67-7.89S91.93 53.37 85 52.3l-1.62 6.41s7.94 2.68 13.39-1.82z"/></g><path fill="#f79329" d="M93.97 56.72s7.38 3.55 6.55 12.97l1.4.91s2.31 14.02 12.3 14.36c0 0 14.24 2.3 15.39-7.01l-12.29-20.68-16.2-6.9-7.15 6.35z" clip-path="url(#aahd)"/><g fill="#fcc21b" clip-path="url(#aahd)"><path d="m16.84 17.18-1.29 3.57s8.97 1.22 14.29 4.02l1.22-4.02s-7.33-3.43-14.22-3.57zm-3.86 13.9-1.01 3.45s8.33 2.08 14.93 6.82l1.8-3.3c-.01-.01-6.61-5.25-15.72-6.97z"/><path d="M31.85 15.44s-1.72 10.91-9.55 20.52l3.37 1.72s6.96-7.97 9.62-20.74l-3.44-1.5z"/></g><path fill="#f79329" d="M27.27 12.88c-.09-1.04-.35-2.5.02-3.22.57-1.09 1.49-.27 2.65-.34 2.07-.12 3.48-.12 5.59.47 2.55.71 4.62 1.98 6.72 3.65 3.49 2.78 6.44 5.82 9.04 9.42 2.7 3.74 4.18 8.75 5.23 13.07.55 2.24.46 4.39.67 6.72.19 2.13.73 4.17.49 6.33-.28 2.55-1.72 2.26-3.85 2.26-2.67 0-3.89-.66-4.49-3.36-.52-2.35-.66-4.75-1.03-7.1-.37-2.46-.83-5.06-1.48-7.47-1.25-4.61-5.09-9-8.4-12.23-1.51-1.47-3.31-2.45-5.06-3.58-1.69-1.09-2.7-1.36-4.57-1.76-1.37-.29-1.49-.8-1.48-2.22 0-.18-.02-.4-.05-.64z"/><circle cx="22.24" cy="27.87" r="2.2" fill="#2f2f2f"/><path fill="#d7598b" d="M27.02 9.5c-.02-.13-.06-.26-.09-.38-.4-1.39-1.53-2.29-3.07-2.12-1.8.21-1.65 2.02-1.86 3.46-.17 1.13-.33 1.78-1.25 2.53-.41.35-2.53 2.48-1.83 3 .25.18.65.07.92.1.39.04.77.21 1.16.29.56.12 1.14.13 1.71.28 1.76.47 3.55.79 5.32 1.08.5.08 1.01.26 1.51.27.39.01.78.21 1.09-.13.88-.94-.31-1.7-1.07-2.06-.89-.44-2.2-1.04-2.46-2.12-.3-1.34.16-2.86-.08-4.2z"/><path fill="#855c52" d="M86.37 49.71c-.3-.76-.88-1.31-1.62-1.57-1.66-.58-4.24 0-6.69.64-.99.26-2.04.53-2.56.57-1.16.09-2.46.15-3.77.15-2.82 0-5.05-.32-6.56-.92-.47-.23-2.13-1.35-2.82-1.94a2.3 2.3 0 0 0-3.91-.58c-.12.14-.22.28-.33.44-.61.84-1.09 1.75-1.55 2.61-.29.56-.59 1.12-.91 1.64-.48.75-1.01 1.53-1.55 2.32-2.63 3.86-5.62 8.23-5.49 13.28.18 7.8 8.51 11.35 16.17 11.35.35 0 .68-.01 1-.02 7.73-.35 13.13-3.43 16.06-9.15.07-.13 5.97-15.24 4.53-18.82z"/><path fill="#b89278" d="M78.08 51.22c-.1 1.78-.37 3.92-1.04 6.19-.16.65-.34 1.3-.5 1.94a50.01 50.01 0 0 1-1.38 4.3c-.14.38-.26.8-.44 1.17-1.45 2.82-4.12 4.34-7.93 4.52-.16 0-.33.01-.5.01-3.78 0-7.88-1.75-7.97-5.6-.1-4.02 3.29-7.73 5.36-11.13 0 0 .42-.8.91-2.03-.99-.38-1.87-.78-2.53-1.14-2.84 4.69-7.52 9.8-7.39 15.35.13 5.31 5.79 7.72 11 7.72.23 0 .47 0 .68-.01 5.26-.24 8.94-2.33 10.93-6.23.25-.5.41-1.08.6-1.6.72-1.95 1.37-3.93 1.9-5.93.45-1.71.95-3.44 1.21-5.19.07-.43.13-.86.16-1.3.03-.4.07-1.01.05-1.68-.84.19-1.93.43-3.12.64z"/></svg><svg viewBox="0 0 128 128" id="1F3A1" xmlns="http://www.w3.org/2000/svg"><g fill="#2f2f2f"><path d="M64.01 104.52c-28.68 0-52-23.33-52-52s23.33-52 52-52 52 23.33 52 52-23.33 52-52 52zm0-99.37c-26.12 0-47.38 21.25-47.38 47.37S37.89 99.9 64.01 99.9s47.37-21.25 47.37-47.37S90.13 5.15 64.01 5.15z"/><path d="M64.01 75.72c-12.8 0-23.21-10.41-23.21-23.2s10.41-23.2 23.21-23.2c12.79 0 23.2 10.41 23.2 23.2-.01 12.79-10.41 23.2-23.2 23.2zm0-41.77c-10.25 0-18.58 8.33-18.58 18.57s8.33 18.57 18.58 18.57c10.24 0 18.57-8.33 18.57-18.57s-8.33-18.57-18.57-18.57z"/><path d="M64.01 59.89c-4.06 0-7.37-3.3-7.37-7.37 0-4.06 3.31-7.37 7.37-7.37 4.06 0 7.37 3.3 7.37 7.37s-3.31 7.37-7.37 7.37zm0-10.1c-1.51 0-2.74 1.23-2.74 2.74 0 1.51 1.23 2.74 2.74 2.74 1.51 0 2.74-1.23 2.74-2.74 0-1.51-1.23-2.74-2.74-2.74z"/><path d="M64.01 54.84a2.32 2.32 0 0 1-2.32-2.31V2.84c0-1.28 1.04-2.31 2.32-2.31 1.28 0 2.31 1.04 2.31 2.31v49.69c0 1.27-1.04 2.31-2.31 2.31z"/><path d="M64.01 54.84a2.315 2.315 0 0 1-1.78-3.8l31.94-38.06c.82-.98 2.28-1.1 3.26-.28.98.82 1.11 2.28.29 3.26L65.77 54.01c-.45.55-1.1.83-1.76.83z"/><path d="M64 54.84c-1.1 0-2.08-.79-2.28-1.91-.21-1.26.62-2.46 1.88-2.68l48.93-8.62c1.27-.23 2.46.62 2.69 1.88.21 1.26-.63 2.46-1.88 2.68L64.41 54.8c-.14.03-.28.04-.41.04z"/><path d="M107.03 79.69c-.4 0-.79-.1-1.16-.31L62.85 54.53a2.312 2.312 0 0 1-.85-3.16c.64-1.1 2.06-1.48 3.16-.84l43.03 24.85a2.31 2.31 0 0 1 .85 3.16 2.34 2.34 0 0 1-2.01 1.15z"/><path d="M81 101.53c-.95 0-1.84-.58-2.18-1.52l-16.99-46.7c-.44-1.2.19-2.53 1.38-2.97 1.2-.44 2.53.18 2.96 1.38l16.99 46.7a2.317 2.317 0 0 1-2.16 3.11z"/><path d="M47 101.53a2.317 2.317 0 0 1-2.17-3.11l17-46.69c.44-1.2 1.76-1.82 2.97-1.38 1.2.44 1.82 1.76 1.38 2.97l-17 46.69c-.35.94-1.23 1.52-2.18 1.52z"/><path d="M20.97 79.68c-.8 0-1.58-.42-2.01-1.16-.63-1.11-.26-2.52.85-3.16l43.04-24.84c1.1-.63 2.52-.26 3.15.85a2.31 2.31 0 0 1-.85 3.16L22.12 79.37c-.36.21-.76.31-1.15.31z"/><path d="M64.01 54.84c-.13 0-.27-.01-.4-.04l-48.94-8.63a2.3 2.3 0 0 1-1.87-2.68 2.302 2.302 0 0 1 2.68-1.88l48.94 8.63a2.3 2.3 0 0 1 1.87 2.68 2.321 2.321 0 0 1-2.28 1.92z"/><path d="M64.01 54.84c-.66 0-1.32-.28-1.78-.83L30.29 15.94c-.82-.98-.69-2.44.29-3.26.98-.82 2.44-.7 3.26.29l31.93 38.07c.82.98.7 2.44-.28 3.26-.43.36-.96.54-1.48.54z"/><path d="M76.14 121.34H51.91c-.69 0-1.34-.3-1.77-.83-.44-.53-.63-1.22-.5-1.9l12.1-66.5c.2-1.1 1.16-1.9 2.28-1.9 1.12 0 2.08.8 2.28 1.9l12.01 66.06c.11.26.17.55.17.85a2.352 2.352 0 0 1-2.34 2.32zm-21.46-4.63h18.65l-9.32-51.25-9.33 51.25z"/><path d="M51.91 119.02h24.18v6.44H51.91z"/><path d="M76.09 127.77H51.91a2.32 2.32 0 0 1-2.32-2.31v-6.44c0-1.28 1.04-2.31 2.32-2.31h24.18a2.32 2.32 0 0 1 2.32 2.31v6.44c0 1.28-1.04 2.31-2.32 2.31zm-21.87-4.62h19.56v-1.81H54.22v1.81zm15.66-35.98H58.12a2.32 2.32 0 0 1-2.32-2.31c0-1.28 1.04-2.31 2.32-2.31h11.76c1.28 0 2.31 1.04 2.31 2.31a2.292 2.292 0 0 1-2.31 2.31z"/></g><ellipse cx="32.07" cy="25.19" fill="#d7598b" rx="10.75" ry="10.74"/><path fill="#40c0e7" d="M35.96 20.07c-2.65-1.79-6.78-1.71-8.7.97-.54.74-1.29 1.89-.89 2.84.31.76 1.22 1.03 1.95 1.19 1.42.29 10.95 1.11 9.83-2.23-.39-1.16-1.19-2.1-2.19-2.77z"/><path fill="#d7598b" d="M74.75 10.96c0 5.93-4.82 10.74-10.74 10.74-5.94 0-10.75-4.8-10.75-10.74S58.07.22 64.01.22c5.92.01 10.74 4.81 10.74 10.74z"/><path fill="#40c0e7" d="M67.9 5.85c-2.66-1.79-6.78-1.71-8.7.97-.53.74-1.28 1.89-.88 2.85.31.75 1.22 1.03 1.95 1.18 1.42.29 10.95 1.11 9.83-2.23-.41-1.16-1.2-2.11-2.2-2.77z"/><path fill="#d7598b" d="M106.69 25.2c0 5.93-4.82 10.74-10.74 10.74-5.94 0-10.74-4.8-10.74-10.74s4.8-10.74 10.74-10.74c5.92 0 10.74 4.8 10.74 10.74z"/><path fill="#40c0e7" d="M99.83 20.09c-2.66-1.79-6.78-1.71-8.7.97-.54.74-1.28 1.89-.89 2.85.31.75 1.22 1.03 1.95 1.19 1.42.29 10.95 1.11 9.82-2.23-.38-1.17-1.17-2.12-2.18-2.78z"/><path fill="#d7598b" d="M123.68 54.64c0 5.93-4.82 10.74-10.74 10.74-5.94 0-10.75-4.8-10.75-10.74S107 43.9 112.94 43.9c5.92 0 10.74 4.8 10.74 10.74z"/><path fill="#40c0e7" d="M116.83 49.52c-2.66-1.79-6.78-1.71-8.69.97-.54.74-1.29 1.89-.89 2.84.31.76 1.22 1.03 1.95 1.19 1.42.29 10.95 1.11 9.82-2.23-.39-1.16-1.19-2.1-2.19-2.77z"/><path fill="#d7598b" d="M117.77 88.11c0 5.93-4.82 10.74-10.74 10.74-5.94 0-10.74-4.8-10.74-10.74s4.8-10.74 10.74-10.74c5.92 0 10.74 4.8 10.74 10.74z"/><path fill="#40c0e7" d="M110.93 82.99c-2.66-1.79-6.78-1.71-8.7.97-.54.74-1.28 1.89-.89 2.85.31.75 1.22 1.03 1.95 1.19 1.42.29 10.95 1.11 9.83-2.23-.4-1.17-1.2-2.11-2.19-2.78z"/><path fill="#d7598b" d="M31.71 88.1c0 5.93-4.82 10.74-10.74 10.74-5.94 0-10.75-4.8-10.75-10.74s4.81-10.74 10.75-10.74c5.92 0 10.74 4.8 10.74 10.74z"/><path fill="#40c0e7" d="M24.86 82.98c-2.66-1.79-6.79-1.71-8.7.97-.53.74-1.28 1.89-.88 2.85.31.75 1.22 1.03 1.94 1.19 1.42.29 10.95 1.11 9.83-2.23-.39-1.17-1.19-2.11-2.19-2.78z"/><path fill="#d7598b" d="M25.81 54.62c0 5.93-4.82 10.74-10.74 10.74-5.94 0-10.75-4.8-10.75-10.74s4.81-10.74 10.75-10.74c5.92 0 10.74 4.81 10.74 10.74z"/><path fill="#40c0e7" d="M18.96 49.51c-2.66-1.79-6.78-1.71-8.7.97-.54.74-1.28 1.89-.89 2.85.31.75 1.22 1.03 1.95 1.18 1.42.29 10.95 1.11 9.83-2.23-.39-1.16-1.19-2.11-2.19-2.77z"/><path fill="#d7598b" d="M91.73 107.34c0 5.93-4.82 10.74-10.74 10.74-5.94 0-10.75-4.8-10.75-10.74S75.05 96.6 80.99 96.6c5.93 0 10.74 4.8 10.74 10.74z"/><path fill="#40c0e7" d="M84.89 102.23c-2.66-1.79-6.78-1.71-8.7.97-.53.74-1.28 1.89-.88 2.85.31.75 1.22 1.03 1.95 1.18 1.42.29 10.95 1.11 9.83-2.23-.41-1.17-1.2-2.11-2.2-2.77z"/><path fill="#d7598b" d="M58.78 106.53c0 5.93-4.82 10.74-10.74 10.74-5.94 0-10.75-4.8-10.75-10.74s4.81-10.74 10.75-10.74c5.92 0 10.74 4.8 10.74 10.74z"/><path fill="#40c0e7" d="M51.93 101.41c-2.65-1.78-6.78-1.71-8.7.97-.53.74-1.28 1.88-.89 2.84.31.75 1.22 1.03 1.95 1.19 1.42.29 10.95 1.11 9.83-2.23-.4-1.16-1.19-2.1-2.19-2.77z"/></svg><svg viewBox="0 0 128 128" id="1F3A2" xmlns="http://www.w3.org/2000/svg"><path fill="#006ca2" d="M118.26 25.12h-5.52c-.41 0-.75.33-.75.75v100.27c0 .41.33.75.75.75h5.52c.41 0 .75-.34.75-.75V25.87c0-.42-.34-.75-.75-.75zM89.95 68.29h-5.52a.57.57 0 0 0-.57.57v57.29c0 .31.26.56.57.56h5.52c.32 0 .56-.25.56-.56V68.86a.55.55 0 0 0-.56-.57zm-27.46 33.97h-5.52c-.2 0-.36.16-.36.36v23.51c0 .2.16.36.36.36h5.52c.2 0 .37-.16.37-.36v-23.51c0-.19-.17-.36-.37-.36z"/><g fill="#006ca2"><path d="M126.28.46h-8.48c-.33 0-.62.22-.71.53-.2.66-21.12 66.88-105.16 125.19a.74.74 0 0 0-.29.84c.1.31.39.52.71.52h27.62c.19 0 .37-.07.5-.19C112.8 62.51 126.88 5.27 127.03 4.53V1.21c0-.42-.33-.75-.75-.75z"/><path d="M102.32 4.74c.02-.07.03-.14.03-.21V1.21c0-.41-.33-.75-.75-.75h-7.03c-.31 0-.58.19-.7.47-.2.51-20.89 51.38-92.58 99.74-.2.14-.33.37-.33.62v12.45c0 .28.15.53.4.66a.73.73 0 0 0 .77-.04C86.58 56.37 102.17 5.25 102.32 4.74z"/></g><path fill="#40c0e7" d="M48.74 15.66a.568.568 0 0 0-.74.13C28.71 40.34 1.83 48.45 1.56 48.53c-.24.07-.41.29-.41.54v10.97c0 .2.1.38.27.48.09.05.2.08.3.08.08 0 .18-.02.26-.06 34.87-18.1 46.87-43.91 46.98-44.17.12-.26.03-.57-.22-.71zM1.72 40.16c.05 0 .12-.01.17-.03C30.54 29.76 38.68 14.1 38.75 13.95c.11-.21.05-.47-.14-.62a.497.497 0 0 0-.63.01C19.51 28.98 1.82 31.81 1.64 31.84c-.25.04-.43.25-.43.5v7.32c0 .16.09.32.22.41.09.06.19.09.29.09z"/><defs><path id="aaja" d="M104.23 25.28c-.53-2.23-1.79-4.7-3.33-6.4-4.74-5.24-16.42-4.79-22.91-4.55-1.29.05-2.61.15-3.87.47-1.53.38-3.11.9-4.48 1.68-.5.29-1.02.6-1.5.95-.18.08-.37.13-.55.22-1.18.6-2.3 1.33-3.32 2.17-5.72 4.75-10.25 14.89-5.79 21.8 3.5 5.43 10.79 6.27 16.64 6.91 5.53.6 14.27 3.7 19.11-.05 6.06-4.69 11.83-15.51 10-23.2z"/></defs><defs><path id="aajb" d="M87.74 51.3c-2.79 0-5.79-.57-8.44-1.07-1.55-.29-3.01-.57-4.28-.71-5.73-.62-13.58-1.48-17.37-7.36-4.97-7.7.28-18.37 6-23.11 1.07-.89 2.25-1.66 3.5-2.29.15-.08.3-.13.46-.19.46-.32 1.02-.66 1.55-.96 1.28-.73 2.83-1.31 4.74-1.78 1.44-.36 2.93-.45 4.08-.5 1.57-.06 3.44-.13 5.45-.13 9.22 0 15.19 1.64 18.24 5.01 1.62 1.79 2.98 4.41 3.56 6.84 1.91 8.07-3.93 19.24-10.36 24.22-1.79 1.36-4.12 2.03-7.13 2.03zm-4.33-36.11c-1.98 0-3.83.07-5.37.13-1.05.04-2.41.12-3.68.44-1.73.43-3.11.95-4.23 1.58-.47.27-.95.56-1.4.89l-.45.21c-.08.03-.16.06-.24.1-1.12.57-2.17 1.26-3.13 2.05-5 4.16-9.88 13.85-5.59 20.49 3.27 5.08 10.28 5.84 15.91 6.46 1.34.15 2.85.43 4.44.73 2.56.49 5.47 1.03 8.06 1.03h.01c2.56 0 4.48-.53 5.88-1.61 5.94-4.6 11.33-15.07 9.64-22.19-.51-2.12-1.69-4.41-3.09-5.97-2.65-2.92-8.13-4.34-16.76-4.34z"/></defs><use fill="#ed6c30" overflow="visible" xlink:href="#aaja"/><use fill="#ed6c30" overflow="visible" xlink:href="#aajb"/><path fill="#2f2f2f" d="m65.86 21.93-.09.15c-1.7 2.89-3.04 6.43.49 8.5 2.83 1.66 6.39 1.8 9.57 2.03 2.14.16 4.28.42 6.44.5 2.25.08 4.28-.33 6.49-.59 6.08-.72 10.2-11.13 2.7-13.03-2.85-.72-5.73-1.38-8.65-1.74-1.4-.17-2.8-.2-4.21-.28-1.19-.07-2.39-.43-3.58-.29-1.06.13-2.21.39-3.24.69-2.32.68-4.64 2.02-5.92 4.06z"/><defs><path id="aajc" d="M88.26 51.1c-.22-2.28-1.12-4.9-2.42-6.8-2.22-3.26-9.66-5.15-13.58-5.73-1.97-.29-3.93-.69-5.92-.94-4.14-.51-8.36-.74-12.53-.26-1.51.17-2.98.79-4.4 1.7-5.43 3.51-9.86 11.53-11.37 16.51-1.41 4.66-1.87 10.39 1.29 14.47 2.12 2.74 5.45 3.97 8.75 4.58 6.93 1.28 15.1 2.93 22.14 1.67 5.7-1.02 8.7-6.47 12.09-10.61 3.52-4.29 6.51-8.78 5.95-14.59z"/></defs><defs><path id="aajd" d="M64.71 77.75c-5.3 0-10.86-1.03-15.77-1.95l-1.03-.19c-4.34-.8-7.4-2.42-9.36-4.95-3.82-4.93-2.55-11.74-1.45-15.37 1.37-4.53 5.78-13.17 11.78-17.06 1.62-1.05 3.24-1.67 4.83-1.85 3.73-.43 7.79-.35 12.76.26 1.21.15 2.4.35 3.6.55.79.13 1.57.27 2.35.38 1.15.17 11.29 1.79 14.27 6.15 1.36 2 2.34 4.78 2.58 7.26.62 6.43-2.86 11.27-6.16 15.31-.62.76-1.23 1.57-1.85 2.38-2.72 3.6-5.81 7.68-10.83 8.58-1.78.35-3.64.5-5.72.5zm-6.12-39.64c-1.62 0-3.19.09-4.66.26-1.28.15-2.62.67-3.97 1.54-5.25 3.4-9.57 11.38-10.95 15.96-.98 3.26-2.15 9.35 1.13 13.58 1.63 2.12 4.3 3.5 8.14 4.21l1.03.19c4.82.9 10.29 1.91 15.4 1.91 1.96 0 3.71-.14 5.35-.44 4.25-.76 6.97-4.35 9.59-7.82.63-.83 1.26-1.66 1.9-2.44 3.05-3.73 6.26-8.19 5.72-13.86-.2-2.17-1.06-4.6-2.24-6.33-1.77-2.59-7.93-4.56-12.91-5.31-.8-.12-1.6-.25-2.4-.39-1.16-.2-2.33-.4-3.51-.54-2.82-.35-5.31-.52-7.62-.52z"/></defs><use fill="#ed6c30" overflow="visible" xlink:href="#aajc"/><use fill="#ed6c30" overflow="visible" xlink:href="#aajd"/><path fill="#2f2f2f" d="M50.06 43.64c-.03.05-.06.1-.08.14-1.65 2.75-2.95 6.19.47 8.53 2.74 1.88 6.19 2.3 9.27 2.79 2.08.33 4.15.76 6.23 1.01 2.18.26 4.14.01 6.28-.08 5.89-.23 9.87-10.32 2.62-12.81-2.76-.94-5.55-1.83-8.37-2.42-1.36-.28-2.71-.42-4.08-.61-1.15-.17-2.31-.62-3.47-.57-1.03.05-2.14.21-3.13.43-2.24.5-4.49 1.65-5.74 3.59z"/><defs><path id="aaje" d="M70.11 75.29c-.09-2.48-.92-5.39-2.21-7.54-3.93-6.52-16.37-7.01-23.07-8.24-4.77-.88-9.56-1.39-14.16.59-5.68 2.46-9.81 7.44-12.96 12.62-1.46 2.4-2.74 4.95-3.46 7.67-1.27 4.79-1.95 10.07 1.39 14.2 3.03 3.76 8 5.41 12.54 6.5 5.35 1.28 11.37 3.31 16.93 2.68 5.2-.58 9.51-3.57 12.91-7.36 3.35-3.74 7.27-7.67 9.74-12.06 1.47-2.6 2.47-6.03 2.35-9.06z"/></defs><defs><path id="aajf" d="M42.96 104.89c-4 0-8.04-1.05-11.96-2.06-1.04-.27-2.06-.53-3.05-.77-4.63-1.12-9.82-2.8-13.08-6.84-3.72-4.61-2.79-10.48-1.58-15.08.66-2.49 1.8-5.01 3.57-7.94 4-6.58 8.39-10.84 13.41-13.02 2.27-.98 4.72-1.46 7.51-1.46 2.57 0 5.09.4 7.22.8 1.18.22 2.54.41 4.01.62 6.86.98 16.26 2.32 19.73 8.09 1.35 2.24 2.25 5.31 2.35 8.02.12 3.04-.81 6.62-2.47 9.59-2.1 3.73-5.14 7.06-8.09 10.28-.6.66-1.2 1.31-1.77 1.96-4.08 4.55-8.64 7.13-13.54 7.68-.74.09-1.5.13-2.26.13zm-5.17-45.17c-2.51 0-4.71.42-6.72 1.29-4.64 2-8.72 6.01-12.5 12.23-1.68 2.76-2.74 5.12-3.35 7.41-1.16 4.4-1.94 9.43 1.2 13.32 2.89 3.58 7.68 5.12 12 6.15 1 .24 2.04.51 3.08.78 3.79.98 7.71 2 11.45 2 .69 0 1.37-.03 2.05-.11 4.4-.49 8.53-2.86 12.28-7.03.58-.65 1.18-1.31 1.79-1.97 2.87-3.14 5.84-6.38 7.82-9.91 1.47-2.62 2.32-5.89 2.22-8.54-.09-2.39-.88-5.1-2.07-7.06-2.98-4.95-11.83-6.22-18.3-7.14-1.5-.21-2.89-.41-4.1-.64-2.03-.39-4.44-.78-6.85-.78z"/></defs><use fill="#ed6c30" overflow="visible" xlink:href="#aaje"/><use fill="#ed6c30" overflow="visible" xlink:href="#aajf"/><path fill="#2f2f2f" d="M28.8 64.95c-.03.06-.06.1-.09.16-1.58 2.74-2.79 6.1.43 8.62 2.64 2.07 6.07 2.77 9.23 3.51 2.18.52 4.41 1.16 6.69 1.61 2.44.48 4.71.41 7.22.54 7.23.33 13.09-11.16 3.78-14.33-3.37-1.14-6.67-2.21-9.94-2.89-1.54-.32-3.06-.48-4.57-.7-1.25-.19-2.5-.68-3.73-.63-1.09.06-2.25.23-3.28.46-2.28.49-4.53 1.67-5.74 3.65z"/><path fill="#fff" d="M18.16 85.77c1.27-1.53 4.04-1.74 5.24-.08.88 1.22 1.07 2.69.23 3.97-.66 1.01-1.68 2.04-2.98 1.95-2.74-.18-4.18-3.8-2.49-5.84zm19.51 5.86c1.43-1.74 4.56-1.97 5.92-.09.99 1.38 1.2 3.05.26 4.5-.73 1.14-1.9 2.3-3.37 2.21-3.1-.22-4.72-4.31-2.81-6.62z"/><path fill="#78a3ad" d="M74.76 47.65c-.27-.88-.7-1.74-.7-2.75 0-1.12.83-2.04.87-3.17.03-.78.09-1.49-.1-2.22-1.03-4.09-6.09-4.03-7.77-.62-.85 1.73-.33 3.05.18 4.76.3.98.29 1.73-.22 2.56-.52.85-1.11 1.65-1.43 2.64-.35 1.08-1.03 2.32 0 3.04 1.4.99 3.09.98 4.66 1.24.78.13 1.62.27 2.3-.32.86-.75 1.75-1.75 2.21-2.92.32-.82.21-1.53 0-2.24zM62.51 36.24c-.03-.14-.06-.29-.1-.43-.44-1.73-1.8-2.85-3.34-2.95-1.59-.1-3.5.46-4.51 1.96-.82 1.21-.98 3.01-.59 4.45.36 1.32 1.3 2.35.46 3.75-.77 1.29-1.85 2.76-1.88 4.42-.04 2.31 4.69 2.67 6.14 2.79 1.25.1 2.52-1.45 3.11-2.55 1.15-2.16.14-2.5-.47-4.44-.29-.92.19-2.45.55-3.27.53-1.25.86-2.39.63-3.73zm-6.47 34.49c-.26-.98-.72-1.95-.67-3.06.07-1.22 1.08-2.17 1.19-3.41.07-.84.18-1.62 0-2.44-.97-4.56-6.89-4.86-9.03-1.25-1.09 1.84-.54 3.32-.05 5.23.29 1.09.25 1.92-.4 2.79-.65.89-1.39 1.73-1.82 2.79-.47 1.16-1.33 2.47-.17 3.34 1.58 1.18 3.56 1.3 5.37 1.7.91.2 1.88.42 2.71-.18 1.05-.76 2.13-1.79 2.74-3.04.42-.89.34-1.68.13-2.47zm-13-13.45c-.02-.16-.04-.32-.08-.49-.38-1.95-1.81-3.29-3.49-3.51-1.72-.22-3.83.25-5.01 1.85-.96 1.29-1.23 3.26-.88 4.9.32 1.49 1.28 2.7.3 4.18-.91 1.38-2.16 2.94-2.28 4.77-.17 2.55 4.96 3.3 6.52 3.53 1.36.19 2.82-1.43 3.52-2.61 1.36-2.31.28-2.76-.27-4.96-.26-1.04.33-2.7.76-3.59.66-1.33 1.08-2.58.91-4.07zm47.9-33.69c-.41-.83-1.01-1.61-1.14-2.61-.14-1.11.65-2.15.55-3.29-.07-.77-.1-1.48-.41-2.18-1.68-3.88-7.31-3-8.73.67-.72 1.85.04 3.07.82 4.68.45.92.55 1.67.08 2.58-.46.92-1.02 1.81-1.25 2.85-.26 1.12-.85 2.47.4 3.01 1.69.75 3.57.47 5.35.47.89 0 1.84 0 2.52-.7.87-.89 1.72-2.02 2.08-3.26.26-.86.05-1.55-.27-2.22zm-13.89-9.57c-.04-.13-.09-.28-.15-.41-.69-1.64-2.24-2.54-3.86-2.39-1.67.15-3.58 1-4.45 2.64-.71 1.33-.65 3.13-.05 4.49.54 1.25 1.65 2.12.96 3.63-.65 1.4-1.58 3.02-1.4 4.66.25 2.29 5.23 1.91 6.75 1.79 1.32-.1 2.44-1.83 2.91-3.01.93-2.31-.17-2.49-1.05-4.31-.42-.86-.12-2.45.15-3.32.4-1.3.61-2.49.19-3.77z"/></svg><svg viewBox="0 0 128 128" id="1F3AA" xmlns="http://www.w3.org/2000/svg"><path fill="#ed6c30" d="M114.29 16.73c-.5-1.03-1.65-1.76-2.94-1.86-1.18-.1-2.35.11-3.45.31-4.02.72-8.23.45-11.88-1.49-2.37-1.26-4.4-2.98-6.56-4.81-1.23-1.04-2.51-2.12-3.84-3.09C81.26 2.59 76.2.66 71.01.2c-.72-.07-1.42-.01-2.13.07-.4.04-.86 0-1.32.08-1.29 0-2.52.16-3.65.49-.1.03-.19.07-.28.11-1.42.18-2.54 1.35-2.54 2.82v35.04c0 1.6 1.29 2.89 2.9 2.89 1.59 0 2.88-1.29 2.88-2.89v-9.92c5.39-1.9 9.14-1.44 14.35.55 6.12 2.35 14.49 1.63 20.42-1.08 1.44-.66 2.75-1.34 4.05-2.09 1.88-1.1 3.58-2.11 5.24-3.47 1.24-1.01 2.4-2.23 3.09-3.26.6-.92.69-1.93.27-2.81z"/><defs><path id="aaka" d="M120.65 106.34c-3.7-6.37-7.74-12.57-10.99-19.16-1.21-2.46-2.33-4.98-3.28-7.54-.15-.42-.3-.83-.45-1.25-1.4-4.04-.33-8.93-5.99-7.24-1.52.45-3.09.66-4.65.79-6.05.51-12.02 1.27-17.96 2.46-2.93.58-5.64 2.05-8.63 2.35-1.53.15-3.11.13-4.7.06-1.59.07-3.18.09-4.71-.06-2.99-.3-5.7-1.76-8.63-2.35-5.93-1.18-11.91-1.95-17.95-2.46-1.57-.13-3.15-.35-4.66-.79-5.65-1.69-4.59 3.21-5.98 7.24-.14.42-.3.83-.45 1.25-.96 2.56-2.07 5.08-3.28 7.54-3.25 6.58-7.3 12.79-11 19.16-7.55 13 12.62 17.89 21.75 20.11 1.68.41 3.38.78 5.08 1.11 3.07.61 5.5.29 8.16-1.37 2.51-1.57 4.73-3.7 6.42-6.13.32-.46.62-.93.89-1.41 4.57-7.99 10.8-36.26 10.8-36.26l6.69-.26s1.91 33.1 19.4 42.99c4.08 2.3 7.88 2.42 12.38 1.34 9.14-2.23 29.31-7.12 21.74-20.12z"/></defs><use fill="#fcc21b" overflow="visible" xlink:href="#aaka"/><clipPath id="aakb"><use overflow="visible" xlink:href="#aaka"/></clipPath><g fill="#ed6c30" clip-path="url(#aakb)"><path d="M59.91 92.11c.04-.33.08-.66.09-.99.08-1.57.34-2.81.8-4.33.42-1.41.82-3.25-.35-4.43-2.24-2.26-7.42 6.31-8.68 7.7-3.84 4.28-8.14 8.13-12.62 11.75-2.21 1.78-4.46 3.5-6.74 5.19-1.42 1.04-4.81 2.7-4.85 4.74-.04 2.25 4.57 3.85 6.06 4.84 3.45 2.28 6.34 5.94 4.33 10.16-.16.34-.33.74-.62 1-.29.27-.87.34-.72.86 2.43 1.22 5.18-.28 7.3-1.42 2.45-1.31 4.28-3.28 5.95-5.46l.21-.27c1-1.32 1.87-2.74 2.66-4.2.35-.65.82-1.35 1-2.07.14-.58.16-1.13.36-1.71 1.09-3.29 2.23-6.56 3.24-9.89.64-2.12 1.03-4.31 1.44-6.49.31-1.62.89-3.31 1.14-4.98zm17.14 25.88c.62.82 1.27 1.61 1.96 2.36 2.25 2.44 4.87 4.58 7.85 6.07 1.66.83 3.45 1.42 5.14 2.15 1.59.69 3.75.42 5.36-.04.6-.17 1.82-.3 2.3-.71-.16-.54-.97-.25-1.4-.3-.57-.07-1.19-.26-1.76-.33-.95-.1-1.94-.45-2.84-.78-2.82-1.03-4.55-3.67-3.64-6.6.72-2.29 2.59-3.88 4.47-5.25 1.33-.97 4.78-2.53 3.33-4.62-1.25-1.81-3.74-2.66-5.39-4.01-2.15-1.73-4.33-3.15-6.35-5.06-2.52-2.41-4.96-4.94-7.08-7.71-1.24-1.64-2.55-3.21-3.7-4.92-1.24-1.85-2.31-3.79-3.46-5.69-.72-1.19-1.38-2.31-2.92-1.61-.98.45-1.55 1.58-1.99 2.49-.45.89-.79 1.55-.87 2.57-.09.99.05 1.98.16 2.96.08.78.28 1.56.41 2.34.35 2.19 1.05 4.44 1.61 6.61.62 2.4 1.33 4.78 2.18 7.11 1.74 4.8 3.86 9.24 6.63 12.97z"/></g><defs><path id="aakc" d="M66.15 89.5c-2.51 0-4.81-.71-6.51-2.01l-.43-.34c-.38-.31-.64-.51-.89-.63-.17.14-.41.37-.57.53-.54.52-1.16 1.1-1.99 1.45-1.66.69-3.47.83-4.7.83-.58 0-1.14-.03-1.68-.09-2.63-.28-5.57-1.64-7.12-4.05-.04.02-.08.05-.11.06l-.27.16c-2.4 1.43-6.25 1.69-8.94.89-2.15-.64-3.69-2.22-4.54-4.69-.04-.12-.08-.26-.12-.41-.11.07-.2.13-.28.18-2.19 1.22-4.16 1.78-6.04 1.71-1.63-.06-6.53-1.38-6.85-7.38-.33-6.17-.62-8.96.91-10.7 1.38-1.58 41.32-25.07 43.47-25.88.79-.3 2.29-1.17 3.04-1.17 1.21 0 4.34.38 4.34.38S88.34 50.95 94.9 54.6c5.16 2.86 10.47 5.8 13.62 7.89 1.71 1.12 3.02 2.21 2.88 5.2-.11 2.12-.03 4.9-.2 6.09-.42 3.05-1.18 3.44-2.98 4.87-1.31 1.03-3.22 1.67-5.01 1.67-.98 0-1.86-.18-2.64-.54-1.17 1.85-2.73 3.71-5.26 4.72-2.05.82-4.65.13-6.01-.46-.05-.03-.1-.05-.15-.08-.13.19-.25.39-.34.54-.36.58-.7 1.11-1.11 1.52-.75.74-1.8 1.32-2.83 1.85-2.26 1.17-5.07 1.47-7.59.8l-.29-.08c-.87-.23-1.86-.49-2.85-1.12-.2-.13-.41-.28-.62-.43-.04-.03-.1-.07-.14-.11-.71.69-1.22 1.03-2.2 1.5-1.46.7-3.21 1.07-5.03 1.07z"/></defs><use fill="#fcc21b" overflow="visible" xlink:href="#aakc"/><clipPath id="aakd"><use overflow="visible" xlink:href="#aakc"/></clipPath><path fill="#ed6c30" d="M99.71 68.35c-.17-.17-.35-.33-.54-.49l-9.3-8.58c-4.56-4.2-9.11-8.4-13.67-12.59-1.87-1.73-3.75-3.46-5.62-5.18-.79-.73-1.55-1.54-2.39-2.2-.67-.53-1.18-1.35-1.88-1.81-.71-.46-1.75.03-2.54-.05-.56-.06-1.13-.37-1.69-.22-.74.19-1.42 1.11-1.93 1.64-.69.7-1.31 1.46-2.06 2.1-1.37 1.14-2.44 2.47-3.7 3.72-1.76 1.73-3.56 3.45-5.35 5.15-4.41 4.18-8.76 8.43-13.07 12.7-1.51 1.49-3.05 2.98-4.45 4.58-1.65 1.87-2.87 3.58-2.94 4.65-.08 1.39-.3 2.8-.3 4.19 0 6.25.13 11.4 6.05 13.02 3.12.85 7.69-.31 7.88-3.89.19-3.54.42-8.42.71-10.49.24-1.67 9.83-18.36 12.38-22.06 2.22-3.22 4.19-6.9 6.54-10.03-.18 1.03-3.17 32.44-3.17 33.6 0 2.19-.22 8.28-.19 10.47.05 2.5 4.5 4.64 5.78 4.81.93.12 2.29-.16 3.21-.36.78-.17 1.59-.37 2.33-.66.71-.29 1.39-.63 2.1-.89.76-.28 1.1-1.82 1.55-2.51.42-.65.88-10.49.56-12.16-.26-1.3-8.06-31.03-8.23-32.54.23.29 11.9 16.78 14.39 20.39 1.6 2.32 7.44 10.42 7.71 12.2.25 1.64.61 3.33.6 5-.01.98.16 1.74.38 2.66 1.03 4.16 5.74 4.65 8.77 2.45 1.93-1.39 2.71-3.17 2.95-5.3.13-1.67.71-9.87-.87-11.32z" clip-path="url(#aakd)"/></svg><svg viewBox="0 0 128 128" id="1F3D9" xmlns="http://www.w3.org/2000/svg"><path fill="#78a3ad" d="M0 71.05V23.54c0-1.5 1.46-2.69 2.96-2.69h16.12c1.5 0 2.92 1.19 2.92 2.69v47.51H0z"/><path fill="#fff" d="M4 35.17h5.06v6.32H4zm8.85 0h5.06v6.32h-5.06zM4 26.23h5.06v6.32H4zm8.85 22.8h5.06v6.32h-5.06zM110 41.49h5.06v6.32H110zm8.85 0h5.06v6.32h-5.06zm0 16.49h5.06v6.32h-5.06zM110 50.97h5.06v6.32H110z"/><path fill="#78a3ad" d="M73.33 127.88V11.33c0-2.23 2.16-4 4.39-4h23.94c2.23 0 4.34 1.77 4.34 4v116.54H73.33zm38.75 0V35.33c0-2.23 2.16-4 4.39-4H128v96.54h-15.92z"/><path fill="#fff" d="M78 17.33h5.33V24H78zm9.33 0h5.33V24h-5.33zm-9.33 10h5.33V34H78zm18.67 0H102V34h-5.33zm0 14H102V48h-5.33zm0 10H102V58h-5.33z"/><path fill="#78a3ad" d="M28.17 127.98V19.82c0-2.46 2.36-4.42 4.78-4.42h26.07c2.43 0 4.72 1.96 4.72 4.42v108.17H28.17z"/><path fill="#fff" d="M43.42 20.58h5.81v7.36h-5.81zm10.16 0h5.81v7.36h-5.81zM33.25 31.63h5.81v7.36h-5.81zm20.33 0h5.81v7.36h-5.81zM33.25 53.68h5.81v7.36h-5.81zm10.17-11h5.81v7.36h-5.81zm10.16 22.05h5.81v7.36h-5.81z"/><path fill="#78a3ad" d="M51.74 18.34H41.63a4.02 4.02 0 0 1-4.02-4.02v-.8c0-2.22 1.8-4.02 4.02-4.02h10.11c2.22 0 4.02 1.8 4.02 4.02v.8c0 2.22-1.8 4.02-4.02 4.02zM63.31 46H76v14H63.31z"/><path fill="#006ca2" d="M49 127.98V61.54c0-1.91 1.86-3.43 3.77-3.43h21.5c1.91 0 3.72 1.52 3.72 3.43v66.44H49z"/><path fill="#fff" d="M54 63.11h7v9h-7zm12 0h7v9h-7zm0 13h7v9h-7zm-12 13h7v9h-7zm12 0h7v9h-7zm-12 13h7v9h-7z"/><path fill="#006ca2" d="M96 127.98H75V90.1h16.99A4.01 4.01 0 0 1 96 94.11v33.87z"/><path fill="#006ca2" d="M88 127.98V45.1c0-2.68 2.61-4.82 5.29-4.82l29.49-.18c2.68 0 5.22 2.13 5.22 4.82v83.06H88z"/><path fill="#fff" d="M106 52.1h6v7h-6zm-11 0h6v7h-6zm22 11h6v7h-6zm-11 0h6v7h-6zm0 11h6v7h-6zm-11 0h6v7h-6zm22 11h6v7h-6zm-11 0h6v7h-6zm-11 0h6v7h-6zm11 22h6v7h-6zm-11-11h6v7h-6z"/><path fill="#006ca2" d="M27.11 47.5H14.28c-1.67 0-3.02-.74-3.02-2.41v-3.62c0-1.67 1.35-3.02 3.02-3.02h12.83c1.67 0 3.02 1.35 3.02 3.02v3.62c0 1.67-1.35 2.41-3.02 2.41z"/><path fill="#006ca2" d="M0 127.96V50c0-2.68 2.61-4.82 5.29-4.82L34.78 45c2.68 0 5.22 2.13 5.22 4.82v78.14H0z"/><path fill="#fff" d="M18 52.75h6v7h-6zm11-.16h6v7h-6zm-22.08 11h6v7h-6zm11.08.16h6v7h-6zm0 11h6v7h-6zm11 11h6v7h-6zm-22 0h6v7H7zm22 22h6v7h-6zm-11 0h6v7h-6zm-11-11h6v7H7z"/></svg><svg viewBox="0 0 128 128" id="1F488" xmlns="http://www.w3.org/2000/svg"><defs><path id="aama" d="M86.63 36.54c-.82.19-1.65.38-2.48.53-9.06 1.66-18.11 1.54-27.17 1.25-4.44-.14-8.89-.45-13.21-1.25-.85-.16-1.67-.33-2.49-.51l1.61 58.72c5.99 6.62 16.06 6.47 20.89 6.4 4.82.07 14.72-1.01 20.79-7.02l2.06-58.12z"/></defs><clipPath id="aamb"><use overflow="visible" xlink:href="#aama"/></clipPath><path fill="#fff" d="M38.47 26.98h51.22v79.05H38.47z" clip-path="url(#aamb)"/><path fill="#ed6c30" d="M60.41 35.4c-16.79 2.77-21.77 12.38-21.77 12.38l2.13 18.64s1.92-6.98 13.94-13.4c12.46-6.66 27.18-8.79 33.73-20.5L60.41 35.4z" clip-path="url(#aamb)"/><path fill="#006ca2" d="M87.53 42.95c-1.57 7.45-8.14 13.4-13.92 16.04C63.2 63.75 57.83 66.28 53 69.41c-10.09 6.55-11.92 14.66-11.92 14.66v11.67l6.24 4.54s3.81-7.41 9.6-12.96c7.11-6.8 11.29-8.01 19.97-13.22 6.45-3.86 10.64-10.68 10.64-10.68V42.95z" clip-path="url(#aamb)"/><path fill="#ed6c30" d="M62.13 104.69s3.62-6.19 8.03-10.31c8.46-7.91 13.18-6.92 17.1-17.87v18.5c0 .01-2.65 9.51-25.13 9.68z" clip-path="url(#aamb)"/><path fill="#78a3ad" d="M48.21 7.15c2.32-2.86 5.31-4.7 8.59-5.53 4.54-1.15 10.01-1.15 14.55 0 3.27.83 6.26 2.67 8.56 5.53 1.48 1.82 4.04 5.05 3.31 7.76-.38 1.41-1.41 1.67-2.49 2.11-2.64 1.06-5.42 1.59-8.23 1.83-5.74.47-11.23.47-16.96 0-2.8-.24-5.58-.78-8.21-1.83-1.08-.44-2.1-.7-2.47-2.11-.73-2.72 1.86-5.94 3.35-7.76zm43 21.04c-2.39 1.2-4.93 2.07-7.66 2.6-3.73.73-7.54 1.19-11.37 1.45-5.35.36-10.99.37-16.43 0-3.83-.26-7.63-.72-11.35-1.45-2.74-.53-5.26-1.4-7.64-2.6-2.3-1.16-3.38-3.3-2.12-5.53.9-1.59 2.53-2.83 4.55-3.17 1.09-.2 5.43 4.25 24.5 4.25 19.44 0 24.06-4.45 25.17-4.25 2.02.35 3.64 1.58 4.53 3.17 1.22 2.23.13 4.37-2.18 5.53zm-11.19 92.25c-2.32 3.04-5.32 5.01-8.62 5.89-4.57 1.22-10.07 1.22-14.65 0-3.29-.88-6.31-2.85-8.64-5.89-.52-.68-1.18-1.57-1.79-2.54 2.35 1.35 4.94 2.36 7.71 2.9 6.25 1.22 13.77 1.22 20.03 0 2.79-.55 5.4-1.57 7.76-2.95-.6 1-1.27 1.9-1.8 2.59zm11.7-16.79c-.73 2.6-2.57 5.23-4.84 6.68-2.58 1.65-5.31 3.03-8.23 3.9-9.29 2.77-20.73 2.77-30.01 0-2.91-.87-5.62-2.25-8.19-3.9-2.26-1.46-4.09-4.09-4.79-6.68-.36-1.32-.43-2.79.19-4.08.49-1.05 1.67-2.61 2.99-2.17.75.25 1.31 1.3 1.77 1.89.69.89 1.47 1.68 2.37 2.39 1.81 1.43 3.94 2.45 6.15 3.19 8.63 2.89 20.43 2.9 29.1 0 2.22-.74 4.35-1.76 6.17-3.19.91-.71 1.69-1.5 2.4-2.39.46-.59 1.03-1.64 1.78-1.89 1.32-.44 2.48 1.12 2.97 2.17.61 1.29.54 2.76.17 4.08z"/></svg><svg viewBox="0 0 128 128" id="2668" xmlns="http://www.w3.org/2000/svg"><g fill="#40c0e7"><path d="M31.33 89.47c-.35.51-.32 1.18.06 1.66.27.36.69.54 1.11.54.17 0 .34-.03.5-.09.24-.09 23.53-9.46 14.35-45.37-8.45-33.08.8-38.54.86-38.58.67-.31.97-1.09.71-1.77a1.42 1.42 0 0 0-1.71-.85c-.42.12-10.32 3.1-16.01 13.62-4.77 8.84-5.09 20.16-.96 33.67 8.07 26.31 1.16 37.07 1.09 37.17zm25.88 0c-.35.51-.32 1.18.06 1.66.27.36.68.54 1.11.54.17 0 .34-.03.51-.09.24-.09 23.52-9.46 14.34-45.37-8.46-33.08.8-38.54.86-38.57.67-.32.97-1.1.71-1.78a1.42 1.42 0 0 0-1.71-.85c-.42.12-10.32 3.1-16.01 13.62-4.77 8.84-5.09 20.16-.96 33.67 8.07 26.31 1.16 37.07 1.09 37.17zm25.87 0c-.35.51-.32 1.18.06 1.66.27.36.68.54 1.11.54.17 0 .34-.03.51-.09.24-.09 23.52-9.46 14.35-45.37-8.47-33.07.79-38.53.85-38.57.66-.31.97-1.09.71-1.77-.26-.68-1-1.05-1.71-.85-.42.12-10.32 3.1-16.01 13.62-4.77 8.84-5.09 20.16-.96 33.67 8.04 26.2 1.21 36.99 1.09 37.16z"/><path d="M114.84 61.51c-2.79-2.27-6.41-.23-3.85 3.85 2.15 3.44 3.43 7.07 3.43 10.93 0 16.67-22.57 30.18-50.41 30.18-27.85 0-50.42-13.51-50.42-30.18 0-3.86 1.28-7.49 3.43-10.93 2.56-4.08-1.06-6.12-3.86-3.85C5.28 67.92.62 75.88.62 84.5c0 21.28 28.37 38.54 63.38 38.54 35 0 63.38-17.26 63.38-38.54 0-8.62-4.67-16.58-12.54-22.99z"/></g></svg><svg viewBox="0 0 128 128" id="26F2" xmlns="http://www.w3.org/2000/svg"><path fill="#2f2f2f" d="m76.98 79.57-5.75-.59v-4.26l4.54-2.09c-.79 0-1.02-2.7-1.02-2.7l-8.37-1.88-.05-.96-2.11.48-2.11-.48-.04.96-8.38 1.88s-.23 2.7-1.03 2.7l4.47 2.06v4.3l-5.69.59s-.2 2.57-.89 2.57l11.22 10.61 2.44-1.7 2.45 1.7 11.21-10.61c-.7-.01-.89-2.58-.89-2.58z"/><defs><path id="aaoa" d="M91.7 82.14H36.46c-2.47 0-4.48 2.01-4.48 4.48 0 2.34 1.81 4.24 4.1 4.44 1.27 4.85 5.12 13.35 16.69 18.38 3.78 1.64 2.02 4.93-.98 5.99-1.18.45-2.01 1.48-2.01 2.69 0 1.62 1.48 2.93 3.33 2.93h21.54c1.84 0 3.33-1.31 3.33-2.93 0-1.21-.83-2.24-2.02-2.69-3-1.06-4.76-4.34-.98-5.99 11.54-5.01 15.4-13.47 16.69-18.34h.06c2.47 0 4.48-2 4.48-4.48-.03-2.47-2.04-4.48-4.51-4.48z"/></defs><use fill="#78a3ad" overflow="visible" xlink:href="#aaoa"/><clipPath id="aaob"><use overflow="visible" xlink:href="#aaoa"/></clipPath><path fill="#2f2f2f" d="M35.05 91.1h56.59v3.05H35.05z" clip-path="url(#aaob)"/><path fill="#78a3ad" d="M47.98 76.1c0 1.92 1.56 3.47 3.47 3.47h25.53c1.92 0 3.46-1.56 3.46-3.47 0-1.92-1.55-3.47-3.46-3.47H51.45c-1.91 0-3.47 1.55-3.47 3.47zm16.23-16.7c-5.82 0-10.53 4.71-10.53 10.53h21.06c.01-5.82-4.71-10.53-10.53-10.53z"/><path fill="#40c0e7" d="M35.86 55.67c5.96-6.36 16.79-8.5 23.44-1.88.61.6 1.05 1.35 1.54 2.04.32.44 1.15 1.73 1.83 1.22.39-.29.23-1.12.18-1.54-.12-1.27-.51-2.52-.95-3.72-1.45-4.04-3.62-7.84-6.5-11.05-6.68-7.45-17.56-10.07-27.17-7.84-10.1 2.35-18.46 8.75-24.83 16.77C2.19 51.19 1.04 53 .75 54.95c-.26 1.75.24 4.54 2.55 4.64 2.38.1 4.29-4.68 6.76-3.13 1.72 1.08-.01 4.59.55 6.1.69 1.86 2.64 2.38 4.35 1.57 1.76-.84 2.41-3.03 4.06-3.97 1.18-.67 2.86-.12 3.49 1.05.94 1.76-.75 4.7 1.21 6.02 1.8 1.21 3.7.38 5.15-.95 1.39-1.29 2.37-3.7 3.32-5.34 1.09-1.84 2.19-3.68 3.67-5.27zm91.37-.7c-.29-1.95-1.44-3.76-2.65-5.28-6.37-8.03-14.73-14.43-24.84-16.77-9.61-2.23-20.48.39-27.17 7.84-2.87 3.2-5.04 7-6.49 11.05-.43 1.2-.82 2.44-.95 3.72-.04.42-.2 1.25.18 1.54.69.51 1.52-.78 1.84-1.22.5-.69.94-1.44 1.54-2.04 6.65-6.62 17.49-4.48 23.44 1.88 1.48 1.58 2.57 3.43 3.66 5.29.95 1.63 1.93 4.04 3.32 5.34 1.45 1.33 3.35 2.16 5.14.95 1.95-1.32.28-4.26 1.21-6.02.62-1.18 2.3-1.73 3.48-1.05 1.64.94 2.29 3.12 4.06 3.97 1.71.81 3.66.29 4.35-1.57.56-1.51-1.16-5.02.56-6.1 2.46-1.55 4.37 3.23 6.75 3.13 2.33-.12 2.83-2.92 2.57-4.66z"/><path fill="#fff" d="M17.79 42.32c-1.94.95-6.11 3.88-8.03 5.95-.83.89-1.55 1.75-.96 2.4 1.04 1.17 4.39-1.33 6.22-.7.88.3 1.64.83 1.46 1.95-.07.38-1.58 2.87-.35 3.68.81.54 2.12-.01 2.78-.62 1.66-1.02 3.22-2.04 5.52-1.24 1.73.6-.25 3.86 1.86 4.5 1.62.49 2.81-1.63 3.22-2.34 1.07-1.83 2.27-3.67 4.11-5.34.35-.31 1.31-1.5.07-2.35-.91-.63-2.83.25-4.34.72-.87.27-2.53-.23-2.56-1.38-.02-.88.52-2.11-.49-2.83-.63-.44-2.32-.23-2.98 0-.32.12-1.75.46-2.05.07-.46-.6.72-1.45-.06-2.5-.47-.6-2-.67-3.42.03zm92.84 0c1.94.95 6.11 3.88 8.03 5.95.83.89 1.55 1.75.96 2.4-1.04 1.17-4.39-1.33-6.22-.7-.87.3-1.65.83-1.47 1.95.06.38 1.59 2.87.35 3.68-.82.54-2.12-.01-2.78-.62-1.66-1.02-3.22-2.04-5.52-1.24-1.73.6.26 3.86-1.86 4.5-1.62.49-2.81-1.63-3.22-2.34-1.07-1.83-2.27-3.67-4.12-5.34-.34-.31-1.31-1.5-.07-2.35.91-.63 2.83.25 4.34.72.87.27 2.53-.23 2.56-1.38.02-.88-.52-2.11.5-2.83.63-.44 2.31-.23 2.97 0 .32.12 1.75.46 2.05.07.46-.6-.72-1.45.07-2.5.49-.6 2-.67 3.43.03z"/></svg><svg viewBox="0 0 128 128" id="26FA" xmlns="http://www.w3.org/2000/svg"><path fill="#fcc21b" d="M4.42 100.59a4.154 4.154 0 0 1-2.36-5.21C24.52 30.28 61.1 34.64 61.1 34.64c41.77.96 59.98 46.75 64.53 60.58.71 2.16-.46 4.47-2.61 5.2l-63.29 21.42c-.94.32-1.96.29-2.87-.08L4.42 100.59z"/><path fill="#e89f0f" d="M61.16 34.33s-6.91 3.76-7.95 33.76c-.78 22.75 6.51 53.72 6.51 53.72l63.63-21.51a4.14 4.14 0 0 0 2.71-4.86c-3.09-13.15-16.91-57.47-64.9-61.11z"/><path fill="#ed6c30" d="M66.92 10.61c1.17.12 2.29.49 3.52.7 6.37 1.07 31.87 4.69 33.41 5.3.68.27 1.62.72 1.82 1.49.32 1.17-1.16 1.7-1.98 2.11-3.48 1.76-29.82 10.53-33.59 11.77-1.22.41-2.28.99-3.58 1.04-1.21.05-2.59.81-3.7.05-1.07-.73-1.13-1.76-1.13-2.95 0-1.24-.21-2.5-.33-3.73-.11-1.22 0-2.5 0-3.72 0-1.33.17-2.57.17-3.92 0-1.47.03-2.89.16-4.33.09-1.01.3-2.21.86-3.03.44-.65.94-1.14 1.73-1.29.97-.17 1.71.41 2.64.51"/><path fill="#855c52" d="M60.72 38.77c-1.35 0-2.44-1.34-2.44-2.99V9.94c0-1.65 1.1-2.99 2.44-2.99 1.35 0 2.44 1.34 2.44 2.99v25.84c0 1.65-1.09 2.99-2.44 2.99m48.46 66.3S101.42 66.49 86 70.71c-13.15 3.61-6.08 44.24-6.08 44.24l29.26-9.88z"/></svg></svg>