<?xml version="1.0" encoding="utf-8"?><svg viewBox="0 0 128 128" xmlns="http://www.w3.org/2000/svg" xmlns:xlink="http://www.w3.org/1999/xlink"><style>:root>svg{display:none}:root>svg:target{display:block}</style><svg viewBox="0 0 128 128" id="1F52F" xmlns="http://www.w3.org/2000/svg"><g fill="#f79329"><path d="M104.74 64l16.25-27.32c.86-1.45.88-3.25.05-4.71a4.677 4.677 0 00-4.08-2.37H84.27L68.03 2.3C67.19.87 65.66 0 64 0s-3.19.87-4.03 2.3L43.73 29.6H11.05c-1.69 0-3.24.9-4.08 2.37-.83 1.47-.82 3.27.05 4.71L23.26 64 7.01 91.32a4.687 4.687 0 004.03 7.09h32.69l16.24 27.3c.84 1.42 2.38 2.29 4.03 2.29s3.18-.87 4.03-2.29l16.24-27.3h32.69c1.69 0 3.24-.91 4.08-2.37.83-1.47.82-3.27-.05-4.72L104.74 64zm3.96-25.02l-9.42 15.84-9.43-15.84h18.85zM93.82 64L78.93 89.03H49.06L34.18 64l14.89-25.02h29.87L93.82 64zM64 13.87l9.35 15.72h-18.7L64 13.87zM19.29 38.98h18.85l-9.42 15.84-9.43-15.84zm0 50.05l9.43-15.85 9.42 15.85H19.29zM64 114.13l-9.36-15.72h18.71L64 114.13zm25.85-25.1l9.43-15.85 9.42 15.85H89.85z"/><circle cx="64" cy="64.51" r="14.03"/></g></svg><svg viewBox="0 0 128 128" id="1F549" xmlns="http://www.w3.org/2000/svg"><path fill="#f79229" d="M-111.8 48.58c-.54-1.48.16-3.14 1.6-3.78 6.59-2.95 13.26-4.42 20-4.42 5.01 0 9.32.89 12.94 2.67 3.61 1.78 6.32 4.2 8.13 7.26 1.81 3.06 2.71 6.52 2.71 10.37 0 3.95-.93 7.5-2.78 10.66-1.85 3.16-4.61 5.77-8.27 7.84 1.54 1.35 3.05 2.33 4.52 2.93 1.47.6 3.02.9 4.66.9 1.98 0 3.75-.55 5.31-1.66 1.56-1.11 3.24-3.08 5.02-5.93l4.41-7.08c2.6-4.19 5.06-7.35 7.37-9.47 2.31-2.12 4.74-3.62 7.3-4.52 2.55-.89 5.52-1.34 8.89-1.34 4.14 0 7.99 1.05 11.53 3.14s6.29 5.16 8.24 9.18c1.95 4.02 2.93 8.76 2.93 14.2 0 4.92-.94 9.29-2.81 13.11-1.95 3.98-5.05 7.34-8.9 9.55-4.06 2.33-8.83 3.5-14.31 3.5-4 0-7.7-.76-11.09-2.28-2.6-1.16-5.26-2.83-7.96-5-1.37-1.1-1.55-3.13-.35-4.41.98-1.05 2.13-2.28 3.1-3.31 1.07-1.14 2.85-1.31 4.08-.34 1.72 1.37 3.4 2.44 5.03 3.19 2.29 1.06 4.83 1.59 7.62 1.59 2.36 0 4.58-.57 6.65-1.7 2.07-1.13 3.76-2.9 5.06-5.31 1.3-2.41 1.95-5.32 1.95-8.74 0-4.87-1.01-8.72-3.04-11.56-2.02-2.84-4.75-4.26-8.17-4.26-1.83 0-3.47.35-4.91 1.05-1.45.7-2.84 1.82-4.19 3.36-1.35 1.54-2.87 3.73-4.55 6.58l-3.9 6.58a38.223 38.223 0 01-4.59 6.21c-1.71 1.88-3.72 3.36-6.03 4.44s-5.01 1.63-8.09 1.63h-.07c1.3 2.7 1.95 5.44 1.95 8.24 0 4.53-1.05 8.35-3.14 11.45s-4.89 5.4-8.38 6.87c-3.49 1.47-7.43 2.2-11.82 2.2-5.78 0-11.06-1.4-15.83-4.19-4.77-2.79-9.26-7.17-13.48-13.12-3.79-5.34-7.54-12.25-11.27-20.71a3 3 0 011.72-4.03c1.49-.54 3.28-1.18 4.73-1.71 1.49-.54 3.15.18 3.77 1.64 4.33 10.2 8.79 17.84 13.37 22.93 4.96 5.52 10.29 8.27 15.97 8.27 4 0 7.11-.92 9.32-2.75 2.22-1.83 3.32-4.53 3.32-8.09 0-3.18-.87-6.21-2.6-9.11s-4.48-5.78-8.24-8.67c-1.73.32-3.56.56-5.5.7-1.66.13-3.11-1.15-3.22-2.81l-.27-4.39c-.1-1.62 1.1-3.06 2.72-3.19 4.65-.37 8.28-1.38 10.89-3.03 3.13-1.97 4.7-5.01 4.7-9.11 0-2.31-.54-4.21-1.63-5.71a9.21 9.21 0 00-4.23-3.25c-1.73-.67-3.64-1.01-5.71-1.01-3.13 0-6.12.39-8.96 1.16-2.14.58-4.63 1.53-7.48 2.84-1.59.73-3.47-.05-4.07-1.69l-1.67-4.56zm87.21-38.74c1.49.51 2.34 2.11 1.92 3.63-2.13 7.7-5.44 13.57-9.93 17.61-5.01 4.5-11.66 6.76-19.95 6.76-13.87 0-24.05-8.05-30.54-24.16-.64-1.59.19-3.4 1.8-3.96l4.52-1.57c1.52-.53 3.17.24 3.77 1.74 2.36 5.86 5.03 10.22 8.01 13.1 3.42 3.3 7.68 4.95 12.79 4.95 3.56 0 6.56-.76 9-2.28 2.43-1.52 4.43-3.72 6-6.61 1.24-2.3 2.41-5.31 3.48-9.04.47-1.64 2.24-2.54 3.85-1.98l5.28 1.81zm-28.1-4.01c1.98 0 3.7.71 5.17 2.13 1.47 1.42 2.2 3.17 2.2 5.24 0 2.07-.73 3.82-2.2 5.24-1.47 1.42-3.19 2.13-5.17 2.13s-3.7-.71-5.17-2.13c-1.47-1.42-2.2-3.17-2.2-5.24 0-2.07.73-3.82 2.2-5.24 1.47-1.42 3.19-2.13 5.17-2.13z"/><g fill="#f79229"><path d="M76.52 39.24c16.29-.25 24.83-7.42 31.32-23.45.39-.95-.02-2.04-.95-2.49l-6.37-3.06a1.92 1.92 0 00-2.63 1.04c-4.23 10.85-10.98 20.07-24.7 20.07-9.08 0-16.22-5.89-20.55-15.29a.98.98 0 00-1.3-.48l-1.95.94a.98.98 0 00-.45 1.3c6.36 13.03 13.27 21.64 27.58 21.42zm27.55 13.25c-7.82-.47-16.84 2.56-23.91 13.49-4.72 7.3-9.84 18.59-16.37 18.86-5.34.22-6.87-.82-10.84-4.72 4.83-2.99 10.36-9.33 10.65-15.56.43-9.3-1.1-18.7-11.01-22.6-11.02-4.7-23.51.09-33.87 5.44-.95.49-1.33 1.66-.84 2.61l3.66 7.1a1.938 1.938 0 002.79.73c1.16-.77 2.8-1.8 4.65-2.78 6.25-3.32 11.51-4.02 18.32-2.43 5.88 1.38 11.35 9.13 7.74 14.75-4.02 6.26-11.98 6.53-18.9 6.68-1.13.02-1.99 1-1.88 2.12l.65 6.58a1.93 1.93 0 002.23 1.72c2.02-.33 5.09-.8 7.02-.93 5.65-.38 10.18 7.09 10.18 12.22.01 7.86-4.98 15.49-13.54 15.74-11.52.33-22.99-7.58-31.66-20.53a.962.962 0 00-1.19-.35l-2.92 1.28c-.5.22-.73.82-.49 1.32 7.8 16.02 19.19 29.18 38.55 29.35 14.28.13 21.66-7.3 22.09-17.29.17-3.95-2.05-9.68-4.84-13.78 3.09 1.67 5.32 2 8.42 1.95 6.71-.1 12.03-6.01 17.57-16C94.67 62.47 98 58.31 105.57 58.39c7.14.07 11.45 6.99 10.91 19.51-.62 14.27-7.55 22.95-18.46 23.19-7.67.16-13.49-1.45-17.4-6.85-.33-.45-.95-.56-1.39-.22l-1.86 1.42c-.41.32-.5.91-.2 1.34 5.6 7.85 10.59 13.4 19.82 14.61 15.92.37 26.95-10.3 26.89-28.95-.06-18.66-8.21-29.26-19.81-29.95z"/><path d="M75.25 22.54c.31.26.69.38 1.07.38.47 0 .94-.19 1.27-.57l7.56-8.58c.3-.34.45-.79.42-1.24-.03-.45-.25-.87-.59-1.17L76.4 4.09c-.69-.59-1.73-.52-2.34.15l-7.85 8.58c-.31.34-.47.8-.44 1.26.03.46.26.89.62 1.19l8.86 7.27z"/></g></svg><svg viewBox="0 0 128 128" id="1F54E" xmlns="http://www.w3.org/2000/svg"><path fill="#855c52" d="M68 110h-7V27c0-1.1.9-2 2-2h3c1.1 0 2 .9 2 2v83z"/><g fill="#855c52"><path d="M63.79 52.65C53.78 52.27 46 43.73 46 33.71V31c0-1.1.9-2 2-2h3c1.1 0 2 .9 2 2v2.83c0 5.98 4.43 11.22 10.39 11.78C70.23 46.26 76 40.87 76 34.17V31c0-1.1.9-2 2-2h3c1.1 0 2 .9 2 2v3.17c0 10.43-8.69 18.88-19.21 18.48z"/><path d="M64.45 67.33C46.34 67.03 32 51.83 32 33.72V31c0-1.1.9-2 2-2h3c1.1 0 2 .9 2 2v2.79c0 14.24 11.22 26.25 25.45 26.54C79.13 60.63 91 48.78 91 34.17V31c0-1.1.9-2 2-2h3c1.1 0 2 .9 2 2v3.17c0 18.47-15.01 33.46-33.55 33.16z"/><path d="M63.82 81.99C37.64 81.35 17 59.37 17 33.19V31c0-1.1.9-2 2-2h3c1.1 0 2 .9 2 2v2.22c0 22.29 17.48 41.1 39.76 41.76C86.83 75.67 106 57.09 106 34.17V31c0-1.1.9-2 2-2h3c1.1 0 2 .9 2 2v3.17c0 26.76-22.27 48.47-49.18 47.82z"/><path d="M63.53 96.66C29.24 96.14 2 67.52 2 33.22V31c0-1.1.9-2 2-2h3c1.1 0 2 .9 2 2v2.32C9 63.78 33.19 89.2 63.64 89.66c31 .47 56.36-24.6 56.36-55.49V31c0-1.1.9-2 2-2h3c1.1 0 2 .9 2 2v3.17c0 34.78-28.57 63.02-63.47 62.49z"/></g><path fill="#ec6c30" d="M59.88 11.3c0 3.89 1.58 7.42 4.12 9.97 2.55-2.56 4.12-6.08 4.12-9.97S66.55 3.88 64 1.33a14.057 14.057 0 00-4.12 9.97zm15 4c0 3.89 1.58 7.42 4.12 9.97 2.55-2.56 4.12-6.08 4.12-9.97S81.55 7.88 79 5.33a14.057 14.057 0 00-4.12 9.97zm14.66 0c0 3.89 1.58 7.42 4.12 9.97 2.55-2.56 4.12-6.08 4.12-9.97s-1.58-7.42-4.12-9.97a14.099 14.099 0 00-4.12 9.97zm14.67 0c0 3.89 1.58 7.42 4.12 9.97 2.55-2.56 4.12-6.08 4.12-9.97s-1.58-7.42-4.12-9.97a14.099 14.099 0 00-4.12 9.97zm14.67-1.33c0 3.89 1.58 7.42 4.12 9.97 2.55-2.56 4.12-6.08 4.12-9.97S125.55 6.56 123 4a14.075 14.075 0 00-4.12 9.97zm-74 1.33c0 3.89 1.58 7.42 4.12 9.97 2.55-2.56 4.12-6.08 4.12-9.97S51.55 7.88 49 5.33a14.057 14.057 0 00-4.12 9.97zm-14.67 0c0 3.89 1.58 7.42 4.12 9.97 2.55-2.56 4.12-6.08 4.12-9.97s-1.58-7.42-4.12-9.97a14.099 14.099 0 00-4.12 9.97zm-14.67 0c0 3.89 1.58 7.42 4.12 9.97 2.55-2.56 4.12-6.08 4.12-9.97s-1.58-7.42-4.12-9.97a14.099 14.099 0 00-4.12 9.97zm-14.66 0c0 3.89 1.58 7.42 4.12 9.97 2.55-2.56 4.12-6.08 4.12-9.97S7.55 7.88 5 5.33A14.057 14.057 0 00.88 15.3z"/><path fill="#855c52" d="M92.87 126.84H35.23c-1.54 0-2.5-1.66-1.74-2.99l.73-1.27A26.994 26.994 0 0157.64 109h12.67c9.16 0 17.69 4.64 22.67 12.33l1.57 2.42c.86 1.33-.1 3.09-1.68 3.09z"/><path fill="none" stroke="#6b4b43" stroke-miterlimit="10" stroke-width="7" d="M205.88 24.01v84.66"/><g fill="none" stroke="#6b4b43" stroke-miterlimit="10" stroke-width="7"><path d="M190.88 28.01v4.82c0 8.28 6.72 15 15 15s15-6.72 15-15v-4.82"/><path d="M176.21 28.01v4.82c0 16.38 13.28 29.67 29.67 29.67s29.67-13.28 29.67-29.67v-4.82"/><path d="M161.54 28.01v4.82c0 24.48 19.85 44.33 44.33 44.33s44.33-19.85 44.33-44.33v-4.82"/><path d="M146.88 28.01v4.82c0 32.58 26.42 59 59 59s59-26.42 59-59v-4.82"/></g><path fill="#c33" d="M201.76 9.97c0 3.89 1.58 7.42 4.12 9.97 2.55-2.56 4.12-6.08 4.12-9.97s-1.58-7.42-4.12-9.97a14.075 14.075 0 00-4.12 9.97zm15 4c0 3.89 1.58 7.42 4.12 9.97 2.55-2.56 4.12-6.08 4.12-9.97s-1.58-7.42-4.12-9.97a14.075 14.075 0 00-4.12 9.97zm14.66 0c0 3.89 1.58 7.42 4.12 9.97 2.55-2.56 4.12-6.08 4.12-9.97s-1.58-7.42-4.12-9.97a14.117 14.117 0 00-4.12 9.97zm14.67 0c0 3.89 1.58 7.42 4.12 9.97 2.55-2.56 4.12-6.08 4.12-9.97s-1.58-7.42-4.12-9.97a14.075 14.075 0 00-4.12 9.97zm14.67 0c0 3.89 1.58 7.42 4.12 9.97 2.55-2.56 4.12-6.08 4.12-9.97s-1.58-7.42-4.12-9.97a14.075 14.075 0 00-4.12 9.97zm-74 0c0 3.89 1.58 7.42 4.12 9.97 2.55-2.56 4.12-6.08 4.12-9.97s-1.58-7.42-4.12-9.97a14.075 14.075 0 00-4.12 9.97zm-14.67 0c0 3.89 1.58 7.42 4.12 9.97 2.55-2.56 4.12-6.08 4.12-9.97s-1.58-7.42-4.12-9.97a14.075 14.075 0 00-4.12 9.97zm-14.67 0c0 3.89 1.58 7.42 4.12 9.97 2.55-2.56 4.12-6.08 4.12-9.97s-1.58-7.42-4.12-9.97a14.117 14.117 0 00-4.12 9.97zm-14.66 0c0 3.89 1.58 7.42 4.12 9.97 2.55-2.56 4.12-6.08 4.12-9.97s-1.58-7.42-4.12-9.97a14.075 14.075 0 00-4.12 9.97z"/><path fill="none" stroke="#6b4b43" stroke-miterlimit="10" stroke-width="7" d="M233.21 123.34h-54.67l5-14.67h43.67z"/></svg><svg viewBox="0 0 128 128" id="1F6D0" xmlns="http://www.w3.org/2000/svg"><path fill="#7742cc" d="M121.1 0H6.89C3.1 0 0 3.11 0 6.89V121.1c0 3.79 3.1 6.89 6.89 6.89H121.1c3.79 0 6.89-3.11 6.89-6.89V6.89c0-3.78-3.1-6.89-6.89-6.89z"/><g fill="#fff"><path d="M104.54 38.05c-.74 0-1.49-.2-2.17-.61L71.12 18.22c-3.86-2.37-10.62-2.37-14.48 0L25.39 37.44c-1.95 1.2-4.5.59-5.7-1.36-1.2-1.95-.59-4.5 1.36-5.7L52.3 11.17c6.49-3.99 16.66-3.99 23.16 0l31.25 19.21a4.142 4.142 0 01-2.17 7.67zM83.64 93.7c-4.76 1.2-5.71 1.4-10.48 2.6-2.73.69-4.94-1.11-5.55-3.92-2.58-11.81-2.67-15.65-5.15-24.95-.89-3.71-.02-9.18 4.45-10.37 1.89-.5 2.82-.7 4.72-1.18 3.85-.99 7.93 2.58 9.34 6.44 3.83 9.1 5.22 15.26 7.05 24.95.37 2.85-1.65 5.74-4.38 6.43z"/><path d="M65.68 57.56L48.8 66.89a4.224 4.224 0 004.09 7.39l16.87-9.33-4.08-7.39z"/><path d="M54.14 67.88L44.17 55.9c-1.49-1.8-4.16-2.04-5.97-.54-1.8 1.5-2.05 4.17-.56 5.96L47.6 73.3l6.54-5.42zm31.71 41.41H59.58c-2.69 0-4.86 2.18-4.86 4.86 0 2.69 2.18 4.86 4.86 4.86h26.27c2.69 0 4.86-2.18 4.86-4.86s-2.17-4.86-4.86-4.86z"/><path d="M75.6 87.49l-7.75 5.74-12 17.8a4.856 4.856 0 00.6 6.85 4.856 4.856 0 006.85-.6l22.97-25.12c1.73-2.06-1.76-3.54-3.82-5.27a4.866 4.866 0 00-6.85.6z"/><circle cx="64.14" cy="42.44" r="11.58"/></g></svg><svg viewBox="0 0 128 128" id="2626" xmlns="http://www.w3.org/2000/svg"><path fill="#f79229" stroke="#f79229" stroke-miterlimit="10" d="M99 51.28V40.37c0-.55-.45-1-1-1H71.45c-.55 0-1-.45-1-1v-9.59c0-.55.45-1 1-1h13.16c.55 0 1-.45 1-1v-10.9c0-.55-.45-1-1-1H71.45c-.55 0-1-.45-1-1V2.53c0-.55-.45-1-1-1h-10.9c-.55 0-1 .45-1 1v11.34c0 .55-.45 1-1 1H43.39c-.55 0-1 .45-1 1v10.91c0 .55.45 1 1 1h13.16c.55 0 1 .45 1 1v9.59c0 .55-.45 1-1 1H30c-.55 0-1 .45-1 1v10.91c0 .55.45 1 1 1h26.55c.55 0 1 .45 1 1v33.3a1 1 0 01-1.41.91L43.8 82c-.66-.29-1.41.19-1.41.91v10.72c0 .39.23.75.59.91l13.97 6.22c.36.16.59.52.59.91V125c0 .55.45 1 1 1h10.91c.55 0 1-.45 1-1v-16.68a1 1 0 011.41-.91l12.34 5.5c.66.29 1.41-.19 1.41-.91v-10.72c0-.39-.23-.75-.59-.91l-13.97-6.22a.998.998 0 01-.59-.91V53.28c0-.55.45-1 1-1H98c.55 0 1-.45 1-1z"/></svg><svg viewBox="0 0 128 128" id="262A" xmlns="http://www.w3.org/2000/svg"><path fill="#f79229" d="M77.02 117.02c-29.34 0-53.11-23.83-53.02-53.2.09-28.41 23.05-52 51.45-52.82 13.17-.38 25.3 4.05 34.76 11.66.95.77 2.18-.55 1.36-1.46C99.2 7.46 80.99-.89 60.84.08 28.11 1.65 1.58 28.24.07 60.97-1.63 97.69 27.65 128 64 128c18.89 0 35.87-8.19 47.58-21.21.81-.9-.42-2.21-1.37-1.45-9.08 7.3-20.62 11.68-33.19 11.68z"/><path fill="#f79229" d="M80.26 39.52L85 54.1c.27.82 1.04 1.38 1.9 1.38h15.33c1.94 0 2.74 2.48 1.18 3.62L91 68.11c-.7.51-.99 1.41-.73 2.24l4.74 14.58c.6 1.84-1.51 3.37-3.08 2.24l-12.4-9.01c-.7-.51-1.65-.51-2.35 0l-12.4 9.01c-1.57 1.14-3.68-.39-3.08-2.24l4.74-14.58c.27-.82-.03-1.73-.73-2.24l-12.4-9.01c-1.57-1.14-.76-3.62 1.18-3.62h15.33a2 2 0 001.9-1.38l4.74-14.58c.59-1.84 3.2-1.84 3.8 0z"/></svg><svg viewBox="0 0 128 128" id="262E" xmlns="http://www.w3.org/2000/svg"><g fill="none" stroke="#f79229" stroke-miterlimit="10" stroke-width="11"><circle cx="64" cy="64" r="58"/><path stroke-linecap="round" stroke-linejoin="round" d="M64 6v116m0-58l41.01 41.01m-82.02 0L64 64"/></g></svg><svg viewBox="0 0 128 128" id="262F" xmlns="http://www.w3.org/2000/svg"><circle cx="64" cy="64" r="61.5" fill="#2f2f2f" stroke="#464747" stroke-miterlimit="10" stroke-width="4"/><g stroke="#4589f1" stroke-miterlimit="10" stroke-width="8"><circle cx="64" cy="64" r="48.47" fill="none"/><path fill="none" stroke-linecap="round" stroke-linejoin="round" d="M64 7.43v113.14M24 24l80 80M7.43 64h113.14M24 104l80-80"/><circle cx="64" cy="64" r="10.09" fill="#fff"/></g><circle cx="64" cy="64" r="61.5" fill="#2f2f2f"/><circle cx="34.48" cy="64.02" r="7.15" fill="#fff"/><path fill="#fff" d="M10.08 64c-.02-29.78 24.11-53.93 53.88-53.95 29.78-.02 53.93 24.1 53.95 53.88.01 14.89-12.05 26.97-26.94 26.98-14.88.01-26.31-11.97-26.97-26.95-.65-14.73-12.09-26.95-26.98-26.94-14.89.01-26.95 12.09-26.94 26.98z"/><circle cx="93.52" cy="63.98" r="7.15" fill="#2f2f2f"/></svg><svg viewBox="0 0 128 128" id="2638" xmlns="http://www.w3.org/2000/svg"><path fill="none" d="M71.45 48.14l18.93-18.93a43.848 43.848 0 00-21.52-8.93v26.78c.9.29 1.76.65 2.59 1.08zm-13.58-1.08V20.28a43.886 43.886 0 00-21.52 8.93l18.93 18.93c.83-.43 1.69-.79 2.59-1.08zM47.5 55.92L28.57 36.98a43.848 43.848 0 00-8.93 21.52h26.78c.29-.9.66-1.76 1.08-2.58zm32.81 2.58h26.78a43.886 43.886 0 00-8.93-21.52L79.23 55.92c.42.82.79 1.68 1.08 2.58zM55.28 79.86L36.35 98.79c6.1 4.75 13.47 7.92 21.52 8.93V80.94c-.9-.29-1.76-.65-2.59-1.08zm23.95-7.78l18.93 18.93c4.75-6.1 7.92-13.47 8.93-21.52H80.31c-.29.91-.66 1.77-1.08 2.59zM46.42 69.5H19.64a43.886 43.886 0 008.93 21.52L47.5 72.08c-.42-.82-.79-1.68-1.08-2.58zm22.45 11.44v26.78a43.886 43.886 0 0021.52-8.93L71.45 79.86c-.83.43-1.69.79-2.58 1.08z"/><path fill="#f79229" d="M121.23 58.5h-3.06c-1.1-11.07-5.5-21.18-12.18-29.34l2.18-2.18a5.498 5.498 0 000-7.78 5.498 5.498 0 00-7.78 0l-2.19 2.19A54.65 54.65 0 0068.87 9.2V6.13c0-3.04-2.46-5.5-5.5-5.5s-5.5 2.46-5.5 5.5V9.2c-11.07 1.1-21.18 5.5-29.34 12.18l-2.19-2.19a5.498 5.498 0 00-7.78 0 5.498 5.498 0 000 7.78l2.19 2.19C14.06 37.32 9.66 47.43 8.56 58.5H5.5C2.46 58.5 0 60.96 0 64s2.46 5.5 5.5 5.5h3.06c1.1 11.07 5.5 21.18 12.18 29.34l-2.19 2.19a5.498 5.498 0 003.89 9.39c1.41 0 2.82-.54 3.89-1.61l2.19-2.19c8.16 6.69 18.28 11.08 29.34 12.18v3.06c0 3.04 2.46 5.5 5.5 5.5s5.5-2.46 5.5-5.5v-3.06c11.07-1.1 21.18-5.5 29.34-12.18l2.19 2.19c1.07 1.07 2.48 1.61 3.89 1.61s2.82-.54 3.89-1.61a5.498 5.498 0 000-7.78l-2.18-2.18c6.69-8.16 11.08-18.28 12.18-29.34h3.06c3.04 0 5.5-2.46 5.5-5.5s-2.46-5.51-5.5-5.51zm-14.14 0H80.31c-.29-.9-.66-1.76-1.08-2.58l18.93-18.93a43.813 43.813 0 018.93 21.51zM70.19 64c0 3.76-3.06 6.82-6.82 6.82s-6.82-3.06-6.82-6.82 3.06-6.82 6.82-6.82 6.82 3.06 6.82 6.82zm20.19-34.79L71.45 48.14c-.83-.42-1.69-.79-2.58-1.08V20.28c8.04 1 15.41 4.18 21.51 8.93zm-32.51-8.93v26.78c-.9.29-1.76.66-2.58 1.08L36.35 29.21c6.1-4.75 13.47-7.93 21.52-8.93zm-29.3 16.7L47.5 55.92c-.42.83-.79 1.69-1.08 2.58H19.64a43.98 43.98 0 018.93-21.52zM19.64 69.5h26.78c.29.9.66 1.76 1.08 2.58L28.57 91.02a43.98 43.98 0 01-8.93-21.52zm16.71 29.29l18.93-18.93c.83.42 1.69.79 2.58 1.08v26.78c-8.04-1-15.41-4.18-21.51-8.93zm32.52 8.93V80.94c.9-.29 1.76-.66 2.58-1.08l18.93 18.93c-6.1 4.75-13.47 7.93-21.51 8.93zm29.29-16.7L79.23 72.08c.42-.83.79-1.69 1.08-2.58h26.78a43.886 43.886 0 01-8.93 21.52z"/></svg><svg viewBox="0 0 128 128" id="269B" xmlns="http://www.w3.org/2000/svg"><path fill="#f79229" d="M64 127.55c-16.45 0-25.33-32.74-25.33-63.55S47.55.45 64 .45 89.33 33.19 89.33 64 80.45 127.55 64 127.55zm0-119.1c-7.24 0-17.33 21.13-17.33 55.55s10.1 55.55 17.33 55.55S81.33 98.42 81.33 64 71.24 8.45 64 8.45z"/><path fill="#f79229" d="M25.66 103.01c-7.75 0-13.78-2.17-16.7-7.23-2.66-4.6-3.43-12.92 7.98-26.37 8.02-9.46 20.23-19.17 34.39-27.34 26.68-15.4 59.48-24.08 67.7-9.84 2.66 4.6 3.43 12.92-7.98 26.37-8.02 9.46-20.23 19.17-34.39 27.34-17.19 9.93-36.94 17.07-51 17.07zm76.61-70.09c-10.21 0-27.15 4.64-46.93 16.06-13.39 7.73-24.86 16.82-32.29 25.59-6.27 7.39-9.01 13.98-7.15 17.2 3.62 6.27 26.97 4.44 56.77-12.76 13.39-7.73 24.86-16.82 32.29-25.59 6.27-7.39 9.01-13.98 7.15-17.2-1.22-2.1-4.67-3.3-9.84-3.3z"/><path fill="#f79229" d="M102.34 103.01c-14.06 0-33.8-7.14-51-17.07-14.17-8.18-26.38-17.89-34.4-27.34C5.53 45.14 6.31 36.83 8.96 32.22c8.23-14.25 41.02-5.57 67.7 9.84 14.16 8.18 26.38 17.89 34.39 27.34 11.41 13.46 10.63 21.77 7.98 26.37-2.92 5.07-8.94 7.24-16.69 7.24zM25.73 32.92c-5.18 0-8.62 1.19-9.84 3.3-1.86 3.22.88 9.81 7.15 17.2 7.44 8.77 18.9 17.86 32.29 25.59 29.81 17.21 53.16 19.03 56.77 12.76 1.86-3.22-.88-9.81-7.15-17.2-7.44-8.77-18.9-17.86-32.29-25.59-19.77-11.41-36.71-16.06-46.93-16.06z"/><circle cx="64" cy="64" r="7.91" fill="#f79229"/><ellipse cx="-72.33" cy="64" fill="none" stroke="#fbc21a" stroke-miterlimit="10" stroke-width="8" rx="21.33" ry="59.55"/><ellipse cx="-72.33" cy="64" fill="none" stroke="#fbc21a" stroke-miterlimit="10" stroke-width="8" rx="59.55" ry="21.33" transform="rotate(-30 -72.328 63.996)"/><ellipse cx="-72.33" cy="64" fill="none" stroke="#fbc21a" stroke-miterlimit="10" stroke-width="8" rx="21.33" ry="59.55" transform="rotate(-60 -72.328 64)"/><circle cx="-72.33" cy="64" r="5.91" fill="#fbc21a"/></svg><svg viewBox="0 0 128 128" id="271D" xmlns="http://www.w3.org/2000/svg"><path fill="#f79229" d="M69 2H58c-1.1 0-2 .9-2 2v30H29c-1.1 0-2 .9-2 2v11c0 1.1.9 2 2 2h27v75c0 1.1.9 2 2 2h11c1.1 0 2-.9 2-2V49h28c1.1 0 2-.9 2-2V36c0-1.1-.9-2-2-2H71V4c0-1.1-.9-2-2-2z"/></svg><svg viewBox="0 0 128 128" id="2721" xmlns="http://www.w3.org/2000/svg"><g fill="#fbc21a"><path d="M113 240.9H7.76c-1.55 0-2.51-1.68-1.72-3.02l52.62-89.08c.77-1.31 2.67-1.31 3.44 0l52.62 89.08c.79 1.34-.17 3.02-1.72 3.02zm-86.39-10.83h67.53c1.55 0 2.51-1.69 1.72-3.02L62.1 170.3c-.78-1.3-2.66-1.3-3.44 0l-33.77 56.75c-.79 1.33.17 3.02 1.72 3.02z"/><path d="M58.64 271.04L4.39 181.91c-.81-1.33.15-3.04 1.71-3.04H113c1.55 0 2.51 1.68 1.72 3.02l-52.64 89.13c-.77 1.3-2.65 1.31-3.44.02zm-35.36-78.28l35.36 56.81c.79 1.27 2.65 1.25 3.42-.03l33.8-56.81c.79-1.33-.17-3.02-1.72-3.02H24.98c-1.57-.01-2.53 1.72-1.7 3.05z"/></g><path fill="#f79329" d="M104.74 64l16.25-27.32c.86-1.45.88-3.25.05-4.71a4.677 4.677 0 00-4.08-2.37H84.27L68.03 2.3C67.19.87 65.66 0 64 0s-3.19.87-4.03 2.3L43.73 29.6H11.05c-1.69 0-3.24.9-4.08 2.37-.83 1.47-.82 3.27.05 4.71L23.26 64 7.01 91.32a4.687 4.687 0 004.03 7.09h32.69l16.24 27.3c.84 1.42 2.38 2.29 4.03 2.29s3.18-.87 4.03-2.29l16.24-27.3h32.69c1.69 0 3.24-.91 4.08-2.37.83-1.47.82-3.27-.05-4.72L104.74 64zm3.96-25.02l-9.42 15.84-9.43-15.84h18.85zM93.82 64L78.93 89.03H49.06L34.18 64l14.89-25.02h29.87L93.82 64zM64 13.87l9.35 15.72h-18.7L64 13.87zM19.29 38.98h18.85l-9.42 15.84-9.43-15.84zm0 50.05l9.43-15.85 9.42 15.85H19.29zM64 114.13l-9.36-15.72h18.71L64 114.13zm25.85-25.1l9.43-15.85 9.42 15.85H89.85z"/><g fill="none" stroke="#fbc21a" stroke-miterlimit="10" stroke-width="11"><path d="M-119 90l46-79 46 79z"/><path d="M-27 38l-46 79-46-79z"/></g></svg></svg>