<?xml version="1.0" encoding="utf-8"?><svg viewBox="0 0 128 128" xmlns="http://www.w3.org/2000/svg" xmlns:xlink="http://www.w3.org/1999/xlink"><style>:root>svg{display:none}:root>svg:target{display:block}</style><svg viewBox="0 0 128 128" id="1F4E2" xmlns="http://www.w3.org/2000/svg"><path fill="#fff" d="M92.4 33.99c3.68-.42 13.15-.87 14.86-.61 1.39.21 3.03.76 4.82 2.09 1.65 1.23 3.86 2.8 5.58 4.07a63.06 63.06 0 0 1 5.91 4.98c.42.4.83.81 1.24 1.22 1.31 1.32 1.47 4.11 1.6 6.54.33 6.81-.08 26.91-.08 37.42 0 4.21-5 4.07-5.78 4.11-5.7.23-13.84.01-16.96.08-2.55.05-5.08-2.17-5.08-2.17l-11.67-8.64-.04-44.35c.01-.02-.37-4.48 5.6-4.74z"/><path fill="#78a3ad" d="m124.31 47.92-21.47.37v42.93l20.74 1.45z"/><path fill="#2f2f2f" d="m86.01 37.71.03 46.14 12.15 8.99s2.64 2.31 5.28 2.26c3.24-.07 11.71.15 17.65-.08.81-.03 6 .11 6-4.27 0-10.94.43-31.84.09-38.93-.12-2.52-.3-5.43-1.66-6.8-.42-.42-.85-.85-1.29-1.27a65.346 65.346 0 0 0-6.15-5.18c-1.79-1.32-4.09-2.96-5.81-4.24-1.85-1.38-3.57-1.95-5.01-2.17-1.78-.26-11.63.2-15.46.64-6.22.27-5.82 4.91-5.82 4.91zm19.78 47.38V78.2c0-7.85-.06-24.98-.04-25.7.01-.45.1-1.04.44-1.36.38-.37 12.14-.67 14.12-.21 1.62.37 1.46 3.06 1.48 4.13.15 7.55.32 15.1.11 22.65-.04 1.34-.06 2.68-.09 4.02-.03 1.12-.01 2.25-.05 3.37-.04.99.04 2.28-.53 3.14-.39.58-.94.61-1.58.7-2.35.33-4.69.35-7.06.35-1.85 0-4.36.3-6.08-.54-.1-.05-.18-.11-.26-.18-.85-.74-.46-2.53-.46-3.48zm-1.22-40.62c-.46-.16-6.3-4.39-8.97-6.74-.83-.73.27-1.08.93-1.16 2.45-.33 8.65-.34 9.23-.34 1.07 0 2.16.18 3.13.91.92.69 10.56 7.16 8.89 7.65-.38.11-11.34.15-11.8.06-.48-.1-1-.24-1.41-.38z"/><path fill="#2f2f2f" d="M102.81 64.48V52.36c0-2.19-1.62-4.04-3.8-4.33-.19-.03-15.95-2.18-29.42-8.44-3.06-1.42-16.34-10.53-19.3-12.77-7.15-5.4-10.4-8.23-10.45-8.25-4.27-1.26-6.64-1.86-6.64.07l-8.43 85c0 1.85 10.96 8.79 15.66 5.27C47.45 103.65 54.24 98.5 61 93.59c13.23-9.6 37.93-12.36 38.18-12.39 2.22-.24 3.9-2.11 3.9-4.34V65.92c0-.51-.1-.99-.27-1.44z"/><path fill="#ed6c30" d="M98.44 65.92V52.36s-24.83-3.29-40.01-14.14C43.25 27.36 37.56 18.65 37.56 18.65v89.67s6.14-7.58 20.87-18.26c14.36-10.42 40.28-13.19 40.28-13.19V65.92h-.27z"/><path fill="#fff" d="M49.25 38.48s7.53 8.1 24.6 12.9c13.65 3.84 24.18 4.44 24.18 4.44l.63 5.25s-32.5.59-47.32-6.89l-2.09-15.7z"/><path fill="#2f2f2f" d="M91.76 50.56s5.56 4.06 5.56 13.98c0 10.07-6.94 14.43-6.94 14.43l3.69 3.78 6.86-6.89-1.06-24.44-5.78-5.21-2.33 4.35z"/><path fill="#ed6c30" d="M3.55 64c0 26.21 10.91 47.47 24.37 47.47 13.45 0 24.37-21.26 24.37-47.47 0-26.23-10.92-47.48-24.37-47.48C14.45 16.53 3.55 37.77 3.55 64z"/><path fill="#2f2f2f" d="M.66 64c0 27.61 12.36 50 27.62 50s27.63-22.38 27.63-50-12.37-50-27.63-50S.66 36.38.66 64zm5.12 0c0-23.82 9.36-43.12 20.9-43.12 11.55 0 20.91 19.3 20.91 43.12 0 23.81-9.37 43.11-20.91 43.11-11.54 0-20.9-19.3-20.9-43.11z"/><ellipse cx="21.79" cy="62.62" fill="#2f2f2f" rx="6.02" ry="10.32"/><path fill="#2f2f2f" d="m21.79 52.3 30.5-3.55 1.32 5.94-27.82 1.7z"/><path fill="#2f2f2f" d="M39.03 52.28S35.74 41.3 28.55 34.57c-4.88-4.57-12.7-6.96-15.02-4.08l-.98-3.18s8.54-12.5 19.73-8.64c11.19 3.87 19.73 29.79 19.73 29.79l-12.98 3.82zM21.05 72.87l30.96 10.75 2.8-5.1L22.8 68.7zm29.91 19.69s-.52 3.46 3.48.48l.9 2.96-9.26 6.24-1.65-2.97 3.14-6.68 3.39-.03z"/></svg><svg viewBox="0 0 128 128" id="1F4E3" xmlns="http://www.w3.org/2000/svg"><path fill="#fcc21b" d="m35.22 38.99-23.5 65.04-5.67.84-3.25 9.28 4.17 5.57 8.36 2.6 5.56-.74 4.92-5.78 55.84-14.89s22.1-1.7 20.02-37.52c0 0-6.71-22.5-28.56-35.3.01 0-22.32-8.83-37.89 10.9z"/><path fill="#fff" d="M41.84 55.95c-4.27 8.14-8.54 16.29-12.81 24.43-2.52 4.82-5.05 9.64-7.58 14.46-1.23 2.34-2.56 4.64-3.48 7.13-.39 1.04-1.11 2.66-.78 3.81.59 2.07 2.26.83 3.19-.24 3.8-4.34 7.24-9.04 10.84-13.54 3.8-4.74 7.6-9.49 11.41-14.23.48-.6 5.65-6.02 5.37-6.7-.01-.01-6.16-15.12-6.16-15.12z"/><g fill="#855c52"><path d="M93.32 43.86C79.36 25.45 55.85 17.53 42.38 27.54c-11.48 8.53-8.11 31.97 5.86 50.39 13.97 18.41 37.21 26.13 46.73 19.73 15.26-10.27 12.32-35.39-1.65-53.8zM91.97 90.3c-9.49 3.87-24.74-3.52-35.68-16.64-11.55-13.85-16.5-31.81-9.53-40.58 8.26-10.43 28.66-3.38 43.06 16.26 13.4 18.28 13.2 36.44 2.15 40.96z"/><path d="M49.51 24.8h-.17c-4.39-.01-8.63 3.74-11.36 6.93-2.44 2.84-4.47 6.02-6.15 9.36-4.21 8.34-7.42 17.21-10.47 26.03-2.77 8.01-5.29 16.11-7.78 24.21-.66 2.15-6.04 16.83-2.7 17.64 1.93.46 3.09-6.18 3.41-7.37.9-3.28 1.67-6.62 2.79-9.84 2.11-6.09 4.23-12.18 6.43-18.24 2.4-6.59 4.89-13.15 7.64-19.6 2.33-5.47 4.78-10.95 7.89-16.03 1.03-1.68 2.13-3.34 3.45-4.82 1.36-1.53 3.11-2.61 4.98-3.38 1.6-.66 3.85-.62 5.06-1.98.75-.84.31-1.52-.44-2.21-.78-.73-1.58-.7-2.58-.7zm50.11 65.06c-.04.47-.16.93-.34 1.29-.91 1.87-2.65 3.61-4.16 5.01-3.03 2.81-.31 2.12-4.12 3.65-1.81.73-10.92 4.39-22.76 7.53-6.64 1.76-13.29 3.47-19.94 5.17-7.04 1.8-14.09 3.82-21.2 5.32-1.24.26-2.48.65-3.72.86-1.74.29-5.13-1.23-3.37-3.39.42-.52.96-.56 1.59-.69 2.73-.54 44.26-11.51 55.68-15.41 4.47-1.52 9.33-2.26 12.91-5.47 1.39-1.25 2.42-2.72 3.66-4.07.94-1.01 2.8-2.38 4.25-2.23 1.23.14 1.61 1.31 1.52 2.43z"/><path d="M14.01 103.49c-.44 2.73-.41 5.51 1.48 7.67 1.78 2.04 4.4 2.81 7.04 2.82 1.08.01 2.03-.11 3.07-.39.83-.22 3.09-1.05 3.68.03.19.36.26.96.26 1.37-.01.81-.52 1.59-1.16 2.05-.32.24-.71.33-1.05.52-.33.18-.63.32-.99.42-1.54.45-3.2.47-4.79.36-1.26-.08-2.58-.23-3.8-.6-2.03-.62-3.86-1.83-5.34-3.34-3.61-3.7-3.94-10.78-.6-14.75.18-.22.27-.33.38-.58.09-.2.2-.34.38-.47.33-.26.76-.43 1.17-.56.37-.11.88-.25 1.17 0 .37.33.09.67 0 1.08-.29 1.39-.66 2.87-.9 4.37z"/><path d="M11.07 101.05c-.76-.1-1.66.11-2.41.25-2.06.39-4.21.93-5.6 2.62-1.5 1.82-2.31 4.34-2.46 6.67-.49 7.69 5.14 14.81 12.96 15.71 2.2.25 5.76-.16 7.62-1.49 1.55-1.11 2.34-2.97 2.82-4.75.25-.93 1.37-4.2-.41-4.3-.87-.04-1.72-.06-2.56.14-.92.22-1.01 0-1.35.97-.34.98-.18 2.12-.75 3.03-.67 1.06-2.04 1.78-3.28 1.78-3.62-.02-7.07-2.21-8.79-5.35-1.85-3.35-2.99-8.07 1.33-10.02.72-.33 1.57-.21 2.3-.51 1.1-.45.87-.78 1.22-1.77.16-.47.36-.92.49-1.4.07-.23.43-.91.36-1.1-.12-.33-1.15-.44-1.49-.48z"/></g><path fill="#ed6c30" d="M124.03 72.96c-.07 0-.12-.01-.18-.01-2.14-.11-4.26.36-6.39.49-2.1.14-4.17.48-6.25.78-.8.12-1.51.07-1.95.86-.4.71-.49 1.66.3 2.15 2.3 1.42 4.8 2.54 7.24 3.69 1.78.83 3.59 1.59 5.38 2.39.56.25 1.23.67 1.87.67.9 0 1.36-.86 1.68-1.56.73-1.64 1.35-3.42 1.49-5.21.08-1.08.46-2.21-.13-3.2-.6-.99-1.99-1-3.06-1.05zm-14.95-46.17c-.05.04-.09.09-.13.13-1.53 1.5-2.63 3.36-3.97 5.02-1.33 1.63-2.48 3.39-3.67 5.12-.46.67-.97 1.16-.69 2.02.26.78.88 1.49 1.79 1.23 2.6-.72 5.13-1.8 7.63-2.81 1.81-.75 3.61-1.56 5.41-2.33.56-.24 1.33-.45 1.77-.92.61-.65.29-1.58-.01-2.29-.7-1.65-1.59-3.31-2.81-4.64-.73-.8-1.31-1.83-2.43-2.06-1.18-.24-2.13.78-2.89 1.53zM70.32 4.92c-.01.07-.02.12-.03.18-.21 2.13.16 4.27.19 6.4.04 2.09.28 4.18.48 6.28.07.81 0 1.52.77 1.99.69.43 1.63.58 2.16-.2 1.53-2.23 2.77-4.67 4.03-7.06.91-1.74 1.76-3.51 2.64-5.27.28-.54.73-1.19.76-1.84.05-.89-.79-1.4-1.47-1.75-1.61-.81-3.35-1.5-5.14-1.74-1.07-.14-2.18-.56-3.19-.01-1.04.56-1.1 1.96-1.2 3.02z"/></svg><svg viewBox="0 0 128 128" id="1F4EF" xmlns="http://www.w3.org/2000/svg"><path fill="#fcc21b" d="M124.14 59.02c-2.22-2.22-4.56-3.48-5.23-2.82 0 0-.76.82-.96 2.2-.2 1.35-.68 3.87-1.98 5.1-2.81 2.47-5.55 4.64-8.14 6.5.31-1.36.57-2.74.71-4.17 1.77-18.07-11.44-34.14-29.51-35.91-18.06-1.77-34.14 11.44-35.91 29.51-.08.73-.08 1.45-.1 2.17-.94-1.11-1.67-2.11-2.08-2.92-2.93-5.78.08-19.1.08-19.1l-.02.01c.18-1.07.06-1.97-.44-2.61-2.52-3.23-13.33 1.02-24.14 9.47C5.59 54.9-1.13 64.37 1.39 67.6c.53.68 1.45 1.01 2.65 1.06l-.03.02s7.32-.32 16.25 3.85c4.42 2.06 18.48 13.23 27.1 16.98 19.47 8.48 30.3 5.96 30.3 5.96l-.04-.04c6.2-.34 12.02-2.4 16.9-5.78l.01.01s12.24-6.87 26.17-22.48c1.25-.95 3.08-1.48 4.16-1.75 1.37-.34 2.11-1.17 2.11-1.17.66-.68-.61-3.02-2.83-5.24zm-101.33-4c-6.52 5.05-12.47 8.15-13.31 6.93-.83-1.22 3.78-6.31 10.31-11.36 6.51-5.05 12.46-8.15 13.29-6.93.84 1.22-3.78 6.31-10.29 11.36zm50.96 28.52c-11.55-1.13-19.99-11.41-18.86-22.96 1.13-11.55 11.4-19.99 22.96-18.86 11.55 1.13 19.99 11.41 18.85 22.96-1.13 11.55-11.4 19.99-22.95 18.86z"/><path fill="#ed6c30" d="M93.22 87.63c-.04-.8-.2-1.63-.44-2.35-.31-.95-.77-2.18-1.4-2.96-.77-.95-1.72-1.99-2.94-2.45-.72-.27-1.5-.23-2.19.11-.35.17-.68.35-1.01.54-3.38 1.89-7.41 2.1-11.19 1.79-1.12-.09-2.21-.39-3.33-.42-.32-.01-.65-.01-.97.08-.17.05-.73.27-.57.53.07.11.27.16.37.24.84.72 1.14 2.41 1.3 3.43.47 3.01-.42 6.9-3.02 8.75-.18.13-.38.21-.59.29-.3.12-.87-.05-.65.42.14.31.42.57.69.76 1.47 1.03 3.72 1.1 5.45 1.19 3.8.2 7.69-.22 11.34-1.29 1.07-.31 2.12-.68 3.14-1.11 2.79-1.18 5.7-3.47 6-6.72.01-.26.02-.55.01-.83zm-23.43 15.42c-.03-1.42-.73-2.68-2.55-3.35-2.22-.82-4.33 1.22-5.85 2.55-1.04.9-2.37 1.77-2.95 3.06-.29.63-.24 1.2.31 1.65.13.1.48.19.55.33.09.19-.12.36-.12.56.01.52.4.95.84 1.16.31.15.6.14.83.39.19.21.25.61.49.79.24.18.62.24.9.3.32.08.41.08.7.28.94.62 2.98 1.06 3.83.06.41-.48.68-1.24.95-1.82.85-1.8 2.1-3.92 2.07-5.96z"/><path fill="#ed6c30" d="M70.86 93.79c-.03.28-.05.54-.08.75-.1.75-.33 1.52-.68 2.2-.76 1.47-1.81 2.8-3.17 3.75-.42.29-1.7.6-1.69 1.11 0 .69 1.01 1.33 1.59 1.33 2.32.01 3.88-1.76 4.91-3.62.91-1.65 2.36-4.66 1.25-6.51-.35-.59-1.26-.41-1.74-.04-.25.19-.34.61-.39 1.03zm21.4 9.43c-.54-1.32-.37-2.75 1.04-4.07 1.74-1.62 4.48-.56 6.39.08 1.3.44 2.87.72 3.9 1.68.51.47.68 1.02.34 1.64-.08.14-.37.36-.37.51-.01.21.25.29.32.47.2.47.01 1.03-.32 1.39-.23.26-.5.37-.61.68-.1.27 0 .66-.15.92s-.48.46-.72.63c-.27.19-.34.23-.54.53-.63.94-2.34 2.13-3.5 1.54-.57-.28-1.11-.88-1.59-1.31-1.46-1.33-3.43-2.8-4.19-4.69z"/><path fill="#ed6c30" d="M90.16 92.18c.01.28-.01.55.01.75.04.76.21 1.55.5 2.25.64 1.52 1.57 2.94 2.86 3.99.39.32 1.64.74 1.59 1.24-.06.69-1.12 1.24-1.7 1.2-2.31-.18-3.71-2.06-4.6-4-.78-1.72-2-4.84-.74-6.59.41-.56 1.29-.31 1.75.1.25.21.31.64.33 1.06z"/></svg><svg viewBox="0 0 128 128" id="1F507" xmlns="http://www.w3.org/2000/svg"><path fill="#006ca2" d="M64 3.69c-33.31 0-60.31 27-60.31 60.31s27.01 60.32 60.32 60.32 60.31-27 60.31-60.32c-.01-33.31-27-60.31-60.32-60.31z"/><path fill="#db4437" d="M64 128C28.71 128 0 99.29 0 64S28.71 0 64 0s64 28.71 64 64-28.71 64-64 64zm0-117.11c-29.29 0-53.11 23.83-53.11 53.11 0 29.29 23.83 53.11 53.11 53.11S117.11 93.29 117.11 64 93.29 10.89 64 10.89z"/><path fill="#fff" stroke="#fff" stroke-linecap="round" stroke-linejoin="round" stroke-width="2.847" d="m83.86 22.063-.09.06a12.331 42.034 0 0 1 .085-.014l.004-.047zm-3.122 2.171L43.627 50.061H30.973v27.878h12.654l37.135 25.844A12.331 42.034 0 0 1 72.365 64a12.331 42.034 0 0 1 8.373-39.766zm3.112 81.698.01.005v-.003a12.331 42.034 0 0 1-.01-.002z" paint-order="stroke fill markers"/><path fill="#fff" stroke="#fff" stroke-linecap="round" stroke-linejoin="round" stroke-width="2.7" d="M84.695 26.783c-.181.154-.496.441-.978 1.137-1.023 1.475-2.254 4.171-3.28 7.668-1.314 4.48-2.343 10.276-2.917 16.81A6.244 12.258 0 0 1 81.77 64a6.244 12.258 0 0 1-4.251 11.605c.574 6.534 1.604 12.329 2.918 16.807 1.025 3.497 2.256 6.193 3.279 7.668.482.696.797.983.978 1.137.182-.154.496-.441.979-1.137 1.023-1.475 2.253-4.17 3.28-7.666 2.05-6.993 3.423-17.175 3.423-28.414s-1.372-21.42-3.424-28.414c-1.026-3.497-2.256-6.191-3.28-7.666-.482-.696-.796-.983-.978-1.137z"/><path fill="#db4437" d="M111.73 102.59 103.3 111 17 25.27l8.43-8.41z"/></svg><svg viewBox="0 0 128 128" id="1F508" xmlns="http://www.w3.org/2000/svg"><defs><linearGradient id="aaeb"><stop offset="0"/><stop offset="1" stop-opacity="0"/></linearGradient><linearGradient id="aaea"><stop offset="0" stop-color="#fff"/><stop offset="1" stop-color="#fff" stop-opacity="0"/></linearGradient><linearGradient id="aaed" x1="43.521" x2="58.099" y1="12.927" y2="91.858" gradientUnits="userSpaceOnUse" xlink:href="#aaea"/><linearGradient id="aaec" x1="47.25" x2="39.126" y1="113.278" y2="57.345" gradientUnits="userSpaceOnUse" xlink:href="#aaeb"/></defs><path fill="#0083bd" d="M14.425 46.373H58.9v35.254H14.425z" paint-order="stroke fill markers"/><path fill="#00364e" d="M82.356 10.848A15.593 53.153 0 0 0 66.765 64a15.593 53.153 0 0 0 15.591 53.152A15.593 53.153 0 0 0 97.95 64a15.593 53.153 0 0 0-15.594-53.152z" paint-order="stroke fill markers"/><path fill="#a5c0cb" d="M70.763 48.5A7.896 15.5 0 0 0 62.867 64a7.896 15.5 0 0 0 7.896 15.5A7.896 15.5 0 0 0 78.659 64a7.896 15.5 0 0 0-7.896-15.5z" paint-order="stroke fill markers"/><path fill="#0083bd" d="m81.3 10.969-.113.078a15.593 53.153 0 0 1 .109-.018zm-3.947 2.746L30.425 46.373v35.254l46.959 32.68A15.593 53.153 0 0 1 66.764 64a15.593 53.153 0 0 1 10.589-50.285zm3.935 103.308.012.008v-.006a15.593 53.153 0 0 1-.012-.002z" paint-order="stroke fill markers"/><path fill="url(#aaec)" d="m21.424 81.627 46.959 32.68a15.593 53.153 0 0 1-8.235-22.17l-.021-.004c-17.075-2.1-38.703-10.506-38.703-10.506zm50.863 35.396.012.008v-.006a15.593 53.153 0 0 1-.012-.002z" opacity=".151" transform="translate(9.001)"/><path fill="url(#aaed)" d="m72.299 10.969-.113.078a15.593 53.153 0 0 1 .109-.018zm-3.947 2.746L21.424 46.373s17.494-1.35 38.086-6.818l.006-.002a15.593 53.153 0 0 1 8.836-25.838z" opacity=".151" transform="translate(9.001)"/></svg><svg viewBox="0 0 128 128" id="1F509" xmlns="http://www.w3.org/2000/svg"><defs><linearGradient id="aafc" x1="47.25" x2="39.126" y1="113.278" y2="57.345" gradientUnits="userSpaceOnUse" xlink:href="#aafa"/><linearGradient id="aafa"><stop offset="0"/><stop offset="1" stop-opacity="0"/></linearGradient><linearGradient id="aafd" x1="43.521" x2="58.099" y1="12.927" y2="91.858" gradientUnits="userSpaceOnUse" xlink:href="#aafb"/><linearGradient id="aafb"><stop offset="0" stop-color="#fff"/><stop offset="1" stop-color="#fff" stop-opacity="0"/></linearGradient></defs><path fill="#0083bd" d="M14.425 46.373H58.9v35.254H14.425z" paint-order="stroke fill markers"/><path fill="#00364e" d="M82.356 10.848A15.593 53.153 0 0 0 66.765 64a15.593 53.153 0 0 0 15.591 53.152A15.593 53.153 0 0 0 97.95 64a15.593 53.153 0 0 0-15.594-53.152z" paint-order="stroke fill markers"/><path fill="#a5c0cb" d="M70.763 48.5A7.896 15.5 0 0 0 62.867 64a7.896 15.5 0 0 0 7.896 15.5A7.896 15.5 0 0 0 78.659 64a7.896 15.5 0 0 0-7.896-15.5z" paint-order="stroke fill markers"/><path fill="#0083bd" d="m81.3 10.969-.113.078a15.593 53.153 0 0 1 .109-.018zm-3.947 2.746L30.425 46.373v35.254l46.959 32.68A15.593 53.153 0 0 1 66.764 64a15.593 53.153 0 0 1 10.589-50.285zm3.935 103.308.012.008v-.006a15.593 53.153 0 0 1-.012-.002z" paint-order="stroke fill markers"/><path fill="url(#aafc)" d="m21.424 81.627 46.959 32.68a15.593 53.153 0 0 1-8.235-22.17l-.021-.004c-17.075-2.1-38.703-10.506-38.703-10.506zm50.863 35.396.012.008v-.006a15.593 53.153 0 0 1-.012-.002z" opacity=".151" transform="translate(9.001)"/><path fill="url(#aafd)" d="m72.299 10.969-.113.078a15.593 53.153 0 0 1 .109-.018zm-3.947 2.746L21.424 46.373s17.494-1.35 38.086-6.818l.006-.002a15.593 53.153 0 0 1 8.836-25.838z" opacity=".151" transform="translate(9.001)"/><path fill="none" stroke="#00caf3" stroke-linecap="round" stroke-linejoin="round" stroke-width="4.735" d="M104.693 93.687A16.542 38.754 0 0 0 110.603 64a16.542 38.754 0 0 0-5.91-29.687" paint-order="stroke fill markers"/></svg><svg viewBox="0 0 128 128" id="1F50A" xmlns="http://www.w3.org/2000/svg"><defs><linearGradient id="aagc" x1="47.25" x2="39.126" y1="113.278" y2="57.345" gradientUnits="userSpaceOnUse" xlink:href="#aaga"/><linearGradient id="aaga"><stop offset="0"/><stop offset="1" stop-opacity="0"/></linearGradient><linearGradient id="aagd" x1="43.521" x2="58.099" y1="12.927" y2="91.858" gradientUnits="userSpaceOnUse" xlink:href="#aagb"/><linearGradient id="aagb"><stop offset="0" stop-color="#fff"/><stop offset="1" stop-color="#fff" stop-opacity="0"/></linearGradient></defs><path fill="#0083bd" d="M14.425 46.373H58.9v35.254H14.425z" paint-order="stroke fill markers"/><path fill="#00364e" d="M82.356 10.848A15.593 53.153 0 0 0 66.765 64a15.593 53.153 0 0 0 15.591 53.152A15.593 53.153 0 0 0 97.95 64a15.593 53.153 0 0 0-15.594-53.152z" paint-order="stroke fill markers"/><path fill="#a5c0cb" d="M70.763 48.5A7.896 15.5 0 0 0 62.867 64a7.896 15.5 0 0 0 7.896 15.5A7.896 15.5 0 0 0 78.659 64a7.896 15.5 0 0 0-7.896-15.5z" paint-order="stroke fill markers"/><path fill="#0083bd" d="m81.3 10.969-.113.078a15.593 53.153 0 0 1 .109-.018zm-3.947 2.746L30.425 46.373v35.254l46.959 32.68A15.593 53.153 0 0 1 66.764 64a15.593 53.153 0 0 1 10.589-50.285zm3.935 103.308.012.008v-.006a15.593 53.153 0 0 1-.012-.002z" paint-order="stroke fill markers"/><path fill="url(#aagc)" d="m21.424 81.627 46.959 32.68a15.593 53.153 0 0 1-8.235-22.17l-.021-.004c-17.075-2.1-38.703-10.506-38.703-10.506zm50.863 35.396.012.008v-.006a15.593 53.153 0 0 1-.012-.002z" opacity=".151" transform="translate(9.001)"/><path fill="url(#aagd)" d="m72.299 10.969-.113.078a15.593 53.153 0 0 1 .109-.018zm-3.947 2.746L21.424 46.373s17.494-1.35 38.086-6.818l.006-.002a15.593 53.153 0 0 1 8.836-25.838z" opacity=".151" transform="translate(9.001)"/><path fill="none" stroke="#00caf3" stroke-linecap="round" stroke-linejoin="round" stroke-width="6" d="M95.67 84.864A11.626 27.236 0 0 0 99.823 64a11.626 27.236 0 0 0-4.153-20.864m18.52 58.696A21.08 49.386 0 0 0 121.72 64a21.08 49.386 0 0 0-7.53-37.832m-9.988 66.999A16.252 38.074 0 0 0 110.008 64a16.252 38.074 0 0 0-5.806-29.167" paint-order="stroke fill markers"/></svg><svg viewBox="0 0 128 128" id="1F514" xmlns="http://www.w3.org/2000/svg"><path fill="#fff" d="M42.99 9.46c2.6 5.16.52 11.46-4.65 14.06-5.17 2.6-11.46.52-14.07-4.65-2.61-5.17-.52-11.47 4.65-14.07 5.17-2.6 11.47-.51 14.07 4.66z"/><path fill="#fcc21b" d="M114.02 54.1c-2.33-2.94-5.52-5.11-8.95-7.05-2.68-1.52-5.12-2.94-8.06-4.73-4.13-2.51-7.88-5.75-11.33-8.98-2.04-1.91-4-3.89-5.97-5.87-4-4.02-8.15-8.19-12.87-11.77-5.75-4.35-12.97-6.75-20.4-6.85-.13-.31-.21-.64-.36-.94A13.876 13.876 0 0 0 33.63.24c-2.16 0-4.32.51-6.26 1.49-6.66 3.35-9.41 11.35-6.42 18.09-2 2.24-5.61 6.66-7.15 11.12-1.26 3.64-1.94 7.99-1.92 12.23.02 5.81.38 11.63.73 17.26.49 8.04 1 16.35.5 24.54-.05.8-.11 1.68-.18 2.62-.34 4.52-.72 10.29-.02 15.61.5 5.44 2.42 10.67 6.74 15.53 11.88 10.79 37.85 14.04 66.55-2.05 26.48-14.84 30.98-30.73 33.27-41.02 1.59-7.25.19-14.44-5.45-21.56z"/><defs><path id="aaha" d="M92.82 62.77c-10.79.37-23.99 4.69-36.12 11.65-10.86 6.24-19.57 13.87-24.82 21.48-4.6 6.74-5.89 12.79-3.66 16.69 2.35 4.08 9.38 6.7 18.4 6.84 10.07.18 21.66-2.68 31.99-7.92 10.92-5.53 20.21-13.52 26.1-22.54 5.24-8 6.94-15.67 4.43-20.36-2.16-4.05-8-6.12-16.32-5.84z"/></defs><use fill="#2f2f2f" overflow="visible" xlink:href="#aaha"/><clipPath id="aahb"><use overflow="visible" xlink:href="#aaha"/></clipPath><g clip-path="url(#aahb)"><defs><path id="aahc" d="M85.82 71.39c4.27 8.49.85 18.85-7.65 23.12-8.5 4.28-18.85.86-23.14-7.64-4.27-8.49-.86-18.85 7.64-23.13 8.51-4.28 18.86-.85 23.15 7.65z"/></defs><use fill="#fcc21b" overflow="visible" xlink:href="#aahc"/><clipPath id="aahd"><use overflow="visible" xlink:href="#aahc"/></clipPath><path fill="#b89278" d="M78.79 61.79c3.59 1.22 5.71 5.55 5.84 7.62-5.99-3.12-14.49-.41-20.12 4.53-5.44 4.78-7.91 12.05-7.33 16.2-6.2-2.51-8.39-14.21-3.74-17.69l25.35-10.66z" clip-path="url(#aahd)"/></g><g clip-path="url(#aahb)"><ellipse cx="67.57" cy="85.83" fill="#fff" rx="5.38" ry="5.38" transform="rotate(-26.696 67.577 85.838)"/></g><path fill="#2f2f2f" d="M30.47 7.9c.99-.5 2.05-.75 3.15-.75 1.31 0 2.55.37 3.62 1.01.37.29.63.69.41 1.19-.15.37-.53.58-.95.75-1.95.54-3.83 1.25-5.62 2.11-.64.28-1.26.59-1.87.83-.96.38-2.08 1.09-2.19-.4 0-.09.05-.61.14-1.09.6-1.53 1.73-2.86 3.31-3.65z"/><path fill="#fff" d="M31.39 50.91c-4.06-13.52-4.3-22.21-2.68-28.18.21-.76.11-1.71-.77-1.01-1.83 1.46-4.86 4.09-6.17 6.33-.37.62-.58 1.28-.74 1.97 0 0-2.32 7.25-.59 16.86 1.61 9.01 4.25 22.57 1.41 39.42-.19 1.13-.15 2.82.68 1.84 2.09-2.44 6.24-7.25 9.74-10.93.2-.21.73-1.04.89-1.83.66-3.15 1.91-12.2-1.77-24.47z"/></svg><svg viewBox="0 0 128 128" id="1F515" xmlns="http://www.w3.org/2000/svg"><ellipse cx="63.3" cy="64.7" fill="#006ca2" rx="61.69" ry="61.69"/><path fill="#fff" d="M109.02 57.96v-.01c-.01-.01-.03-.02-.03-.04-.02-.04-.03-.07-.06-.1a.138.138 0 0 1-.03-.04c-2.41-4.1-7.23-6.75-11.14-8.87l-1.07-.59c-1.61-.89-3.29-1.75-4.99-2.62-3.49-1.78-7.09-3.63-10.25-5.83-1.62-1.11-3.18-2.29-4.75-3.46-3.19-2.39-6.49-4.85-10.14-6.85-4.43-2.43-9.67-3.37-14.83-2.68a9.72 9.72 0 0 0-9.82-4.64c-1.49.22-2.94.8-4.18 1.67-4.28 3.01-5.4 8.85-2.62 13.23-1.16 1.76-3.19 5.19-3.8 8.42-.5 2.66-.52 5.74-.08 8.68.62 4.03 1.45 8.03 2.27 11.89 1.16 5.54 2.36 11.26 2.86 16.98.05.57.09 1.18.14 1.85.41 5.73 1.05 14.32 5.85 18.06 3.03 4.13 9.86 5.75 18.88 4.41 8.73-1.29 18.11-5.08 26.44-10.68 8.45-5.69 15.34-12.95 19.41-20.46 4.02-7.38 4.7-14.05 1.94-18.32zM38.66 30.47c.31-1.02.92-1.94 1.86-2.6a4.85 4.85 0 0 1 2.1-.84c.91-.13 1.8-.01 2.61.32.28.17.52.42.41.79-.07.28-.31.47-.59.62-1.26.57-2.49 1.24-3.62 2.02-.44.26-.86.56-1.27.8-.63.36-1.34.97-1.55-.06l.05-1.05zm7.67 52.15c-.18.67-.5 1.21-.83 1.75-.12.17-.26.35-.37.52-1.2 1.83-2.17 3.59-2.9 5.28-.17.29-.39.56-.67.56-.25-.01-.4-.25-.5-.55-.27-1.98-.42-3.92-.53-5.51-.05-.68-.1-1.32-.14-1.89-.52-5.98-1.75-11.82-2.94-17.47-.82-3.81-1.64-7.75-2.24-11.67-.38-2.51-.35-5.11.06-7.33.19-1.02.63-2.24 1.27-3.57.18-.21.38-.31.51.01.11.29.11.6.17.88.02.06.03.12.03.18.44 3.33 1.48 6.72 2.07 9.06 2.17 8.46 6.04 16.29 7.08 25.05.08.59.14 1.19.2 1.79.04.97-.03 1.96-.27 2.91zm54.04-3.65c-5.05 7.31-12.44 12.72-14.73 14.25-3.75 2.51-20.33 11.15-30.81 10.35-1.33-.1-4.33-.15-5.17-2-.88-1.92-.04-5.71 3.17-10.13 5.4-7.42 13.78-14.41 13.78-14.41s.86 3.84 2.06 5.53a11.21 11.21 0 0 0 2.5 2.59c.48.36.98.67 1.49.95.58.31 1.16.56 1.76.77 3.4 1.16 7.3.75 10.47-1.48 3.03-2.13 4.72-5.45 4.91-8.87a10.386 10.386 0 0 0-.37-3.66c-.34-1.29-.9-2.54-1.71-3.69-.78-1.1-2.75-2.75-2.75-2.75s10.94-5.75 18.81-3.83c4.16 1.02 1.75 8.93-3.41 16.38z"/><path fill="#db4437" d="M64 128C28.71 128 0 99.29 0 64S28.71 0 64 0s64 28.71 64 64-28.71 64-64 64zm0-117.11c-29.29 0-53.11 23.83-53.11 53.11 0 29.29 23.83 53.11 53.11 53.11S117.11 93.29 117.11 64 93.29 10.89 64 10.89z"/><path fill="#db4437" d="M111.73 102.59 103.3 111 17 25.27l8.43-8.41z"/></svg></svg>