<?xml version="1.0" encoding="utf-8"?><svg viewBox="0 0 128 128" xmlns="http://www.w3.org/2000/svg" xmlns:xlink="http://www.w3.org/1999/xlink"><style>:root>svg{display:none}:root>svg:target{display:block}</style><svg viewBox="0 0 128 128" id="1F4F5" xmlns="http://www.w3.org/2000/svg"><defs><radialGradient id="aaab" cx="42.143" cy="6.368" r="1.639" fx="42.143" fy="6.368" gradientTransform="matrix(1.41729 0 0 1.31445 -11.243 12.07)" gradientUnits="userSpaceOnUse" xlink:href="#aaaa"/><linearGradient id="aaaa"><stop offset="0" stop-color="#282846"/><stop offset="1" stop-color="#1a4223" stop-opacity=".177"/></linearGradient></defs><circle cx="63.3" cy="64.7" r="61.69" fill="#fff"/><rect width="45.344" height="91.01" x="42.24" y="18" fill="#181818" paint-order="stroke fill markers" rx="6.2" ry="2.1"/><path fill="#fff" d="M43.43 22.754h42.965v80.126H43.43z" paint-order="stroke fill markers"/><path fill="none" fill-rule="evenodd" stroke="#282828" stroke-linecap="round" stroke-linejoin="round" stroke-width="1.48" d="M57.515 105.67H72.31M57.515 20.44H72.31"/><circle cx="48.486" cy="20.441" r="1.074" fill="url(#aaab)" paint-order="stroke fill markers"/><path fill="#db4437" d="M64 128C28.71 128 0 99.29 0 64S28.71 0 64 0s64 28.71 64 64-28.71 64-64 64zm0-117.11c-29.29 0-53.11 23.83-53.11 53.11 0 29.29 23.83 53.11 53.11 53.11S117.11 93.29 117.11 64 93.29 10.89 64 10.89z"/><path fill="#db4437" d="M111.73 102.59L103.3 111 17 25.27l8.43-8.41z"/></svg><svg viewBox="0 0 128 128" id="1F51E" xmlns="http://www.w3.org/2000/svg"><circle cx="63.59" cy="64.41" r="61.69" fill="#006ca2"/><text style="line-height:1.25" x="17.599" y="95.968" fill="#fff" font-family="sans-serif" font-size="40" font-weight="400" letter-spacing="0" word-spacing="0"><tspan x="17.599" y="95.968" style="-inkscape-font-specification:'Comic Neue Bold'" font-family="Comic Neue" font-size="96" font-weight="700">18</tspan></text><path fill="#db4437" d="M111.37 102.59l-8.43 8.41-86.31-85.73 8.43-8.41z"/><path fill="#db4437" d="M64 128C28.71 128 0 99.29 0 64S28.71 0 64 0s64 28.71 64 64-28.71 64-64 64zm0-117.11c-29.29 0-53.11 23.83-53.11 53.11 0 29.29 23.83 53.11 53.11 53.11S117.11 93.29 117.11 64 93.29 10.89 64 10.89z"/></svg><svg viewBox="0 0 128 128" id="1F6AB" xmlns="http://www.w3.org/2000/svg"><circle cx="64.25" cy="64.28" r="54.44" fill="#fff"/><path fill="#db4437" d="M63.99 128.01c-35.29 0-64-28.71-64-64s28.71-64 64-64 64 28.71 64 64-28.71 64-64 64zm0-117.11c-29.29 0-53.11 23.83-53.11 53.11 0 29.29 23.83 53.11 53.11 53.11S117.1 93.3 117.1 64.01c0-29.28-23.83-53.11-53.11-53.11z"/><path fill="#db4437" d="M111.37 103.73l-8.43 8.41-86.31-85.73L25.06 18z"/></svg><svg viewBox="0 0 128 128" id="1F6AD" xmlns="http://www.w3.org/2000/svg"><circle cx="64" cy="64" r="56" fill="#fff"/><path fill="#db4437" d="M64 128C28.71 128 0 99.29 0 64S28.71 0 64 0s64 28.71 64 64-28.71 64-64 64zm0-117.11c-29.29 0-53.11 23.83-53.11 53.11 0 29.29 23.83 53.11 53.11 53.11S117.11 93.29 117.11 64 93.29 10.89 64 10.89z"/><path fill="#2f2f2f" d="M86 61H27c-1.65 0-3 1.35-3 3v7c0 1.65 1.35 3 3 3h59c1.65 0 3-1.35 3-3v-7c0-1.65-1.35-3-3-3z"/><path fill="#ed6c30" d="M91.8 72.14c-.18 1.95 1.29 1.36 2.72 1.37 1.19 0 2.29.13 3.46.13 1.1 0 1.98-.41 3.07-.4.8.01 2.71.21 3-.82.16-.56 0-1.53-.04-2.12-.15-2.47.03-5.01-.33-7.46-.11-.77-.59-1.49-1.44-1.57-.54-.05-1.07.22-1.61.27-.51.06-.95-.12-1.43-.16-.77-.06-1.67-.34-2.5-.38-.06 0-.12 0-.18-.01-.28 0-.55.02-.8.11-.84.28-1.16.37-2.01.26-.37-.05-1.22-.11-1.56.04-.24.1-.39.3-.48.54-.25.65-.04 1.65.18 2.14.41.95.14 1.86.14 2.88-.01 1.73-.02 3.47-.19 5.18z"/><path fill="#78a3ad" d="M59.7 30.2c2.42 8.13 9.75 12.4 17.68 13.81 2.33.42 4.7.65 7.07.82 1.27.09 11.56-.12 8.46 2.74-1.24 1.14-3.24 2.13-4.17 3.65-.35.56-.56 1.18-.52 1.92.16 3.11 4.22 4.78 6.78 5.3.54.11 1.44.35 2.25.35.61 0 1.17-.14 1.47-.6.66-1-.47-1.5-1.19-1.94-1.12-.69-1.64-1.3-1.34-2.74.62-2.98 4.61-3.23 7.01-3.66 1.49-.27 3-.73 4.31-1.48 1.57-.89 2.86-2.18 3.41-4.08.18-.62.26-1.26.28-1.9.06-2.61-1.14-5.26-3.32-6.67-3.05-1.97-6.79-1.74-10.3-1.91-.41-.02-.82-.04-1.23-.08-2.1-.18-4.95-1.01-6.55-2.4-1.47-1.28-.92-2.5.23-3.47 1.13-.95 2.85-1.65 3.8-1.92 1.65-.45 3.36-.57 5.07-.57 1.74 0 3.49.12 5.22.12h.03c.7 0 1.39-.02 2.08-.07 3.57-.28 7.13-1.78 9.65-4.37.4-.41.77-.84 1.11-1.31 2.56-3.49 2.79-8.2-1.11-10.74-.8-.52-2.48-1.41-3.83-1.41-.53 0-1.02.14-1.39.49-.37.36-.2 1.02.03 1.47.72 1.4.49 2.58-.36 3.28-.53.44-1.29.7-2.23.7-.59 0-1.14-.04-1.7-.1-1.59-.18-3.08-1.38-4.37-2.23-1.19-.79-2.35-1.64-3.56-2.39-1.11-.68-2.26-1.29-3.51-1.68-2.77-.88-5.91-1.29-9.13-1.29-2.89 0-5.84.33-8.65.95-2.81.61-5.47 1.51-7.8 2.64-.59.29-1.16.63-1.72.98-3.97 2.52-6.91 6.55-8.07 11.05-.72 2.81-.76 5.82.11 8.74z"/><path fill="#db4437" d="M111.37 102.59l-8.43 8.41-86.31-85.73 8.43-8.41z"/></svg><svg viewBox="0 0 128 128" id="1F6AF" xmlns="http://www.w3.org/2000/svg"><circle cx="64" cy="64.7" r="61.69" fill="#006ca2"/><g fill="#fff"><path d="M81.27 38.32H62.98c-5.34 0-9.78 3.82-10.76 8.87l-2.62 9.7-8.35 6.59a3.658 3.658 0 00-.59 5.14 3.658 3.658 0 005.14.59l9.35-7.38v-.01c.57-.47 1-1.1 1.21-1.87l2.16-7.97c.23-.83 1.02-1.44 1.82-1.47.79.03 1.54.68 1.54 1.47v54.76a4.22 4.22 0 008.44 0v-32.3a1.609 1.609 0 113.22 0v32.31a4.22 4.22 0 008.44 0V51.99c0-.82.66-1.48 1.48-1.48s1.48.66 1.48 1.48v18.34c0 2.02 1.64 3.66 3.66 3.66 2.02 0 3.66-1.64 3.66-3.66V49.28c-.03-6.05-4.93-10.96-10.99-10.96zm-9.36-2.66c5.55 0 10.04-4.5 10.04-10.04s-4.5-10.04-10.04-10.04-10.04 4.5-10.04 10.04 4.49 10.04 10.04 10.04z"/><path d="M46.85 80.15l-5.22 1.35c-.5.13-1.04-.02-1.4-.39l-3.96-4.03c-.79-.8-.41-2.15.67-2.43l5.22-1.35c.5-.13 1.04.02 1.4.39l3.96 4.03c.78.8.41 2.15-.67 2.43zm6.24 10.5l-3.68 3.7c-.36.36-.87.5-1.36.37l-5.29-1.4c-1.05-.28-1.4-1.59-.64-2.36l3.68-3.7c.36-.36.87-.5 1.36-.37l5.29 1.4c1.05.29 1.4 1.6.64 2.36zm-11.48 14.13l-4.78-.87c-.46-.08-.84-.41-1-.85l-1.71-4.8c-.34-.95.48-1.91 1.47-1.73l4.78.87c.46.08.84.41 1 .85l1.71 4.8c.34.95-.48 1.91-1.47 1.73z"/></g><path fill="#db4437" d="M111.37 102.73l-8.43 8.41-86.31-85.73L25.06 17z"/><path fill="#db4437" d="M64 128C28.71 128 0 99.29 0 64S28.71 0 64 0s64 28.71 64 64-28.71 64-64 64zm0-117.11c-29.29 0-53.11 23.83-53.11 53.11 0 29.29 23.83 53.11 53.11 53.11S117.11 93.29 117.11 64 93.29 10.89 64 10.89z"/></svg><svg viewBox="0 0 128 128" id="1F6B1" xmlns="http://www.w3.org/2000/svg"><circle cx="63.3" cy="64.7" r="61.69" fill="#006ca2"/><g fill="#fff"><path d="M51.11 68.48h-8.68c-1.35 0-2.44-1.09-2.44-2.44 0-12.26 9.94-22.2 22.2-22.2h33.55V57.4H62.2c-4.78 0-8.65 3.87-8.65 8.65 0 1.34-1.09 2.43-2.44 2.43zm3.22 33.99H37.19a1.7 1.7 0 01-1.68-1.45l-4.22-29.4a1.7 1.7 0 011.44-1.92 1.7 1.7 0 011.92 1.44l4.01 27.95h14.21l4.01-27.95c.13-.93.98-1.57 1.92-1.44.93.13 1.57.99 1.44 1.92l-4.22 29.4a1.71 1.71 0 01-1.69 1.45z"/><path d="M75.24 62.57h-.77c-6.36 0-11.57-5.21-11.57-11.57v-.77c0-6.36 5.21-11.57 11.57-11.57h.77c6.36 0 11.57 5.21 11.57 11.57V51c-.01 6.37-5.21 11.57-11.57 11.57zm13.59-30.69H60.88a3.73 3.73 0 010-7.46h27.95a3.73 3.73 0 010 7.46z"/><path d="M74.85 54.35a3.73 3.73 0 01-3.73-3.73V28.15a3.73 3.73 0 017.46 0v22.47a3.73 3.73 0 01-3.73 3.73zM51.73 81.02c-2.01 0-3.13-.76-3.94-1.31-.66-.45-1.06-.72-2.03-.72-.97 0-1.37.27-2.03.72-.81.55-1.92 1.31-3.94 1.31-2.01 0-3.13-.76-3.94-1.31-.66-.45-1.06-.72-2.03-.72-.94 0-1.69-.76-1.69-1.69s.76-1.69 1.69-1.69c2.01 0 3.13.76 3.94 1.31.66.45 1.06.72 2.03.72.97 0 1.37-.27 2.03-.72.81-.55 1.92-1.31 3.94-1.31 2.01 0 3.13.76 3.94 1.31.66.45 1.06.72 2.03.72.97 0 1.37-.27 2.03-.72.81-.55 1.92-1.31 3.94-1.31.94 0 1.69.76 1.69 1.69s-.76 1.69-1.69 1.69c-.97 0-1.37.27-2.03.72-.81.56-1.92 1.31-3.94 1.31zm44.02-20.37c-.94 0-1.69-.76-1.69-1.69V42.29c0-.94.76-1.69 1.69-1.69s1.69.76 1.69 1.69v16.66c0 .94-.76 1.7-1.69 1.7z"/></g><path fill="#db4437" d="M111.37 102.73l-8.43 8.41-86.31-85.73L25.06 17z"/><path fill="#db4437" d="M64 128C28.71 128 0 99.29 0 64S28.71 0 64 0s64 28.71 64 64-28.71 64-64 64zm0-117.11c-29.29 0-53.11 23.83-53.11 53.11 0 29.29 23.83 53.11 53.11 53.11S117.11 93.29 117.11 64 93.29 10.89 64 10.89z"/></svg><svg viewBox="0 0 128 128" id="1F6B3" xmlns="http://www.w3.org/2000/svg"><circle cx="63.19" cy="64.44" r="60.75" fill="#006ca2"/><path fill="#db4437" d="M64 128C28.71 128 0 99.29 0 64S28.71 0 64 0s64 28.71 64 64-28.71 64-64 64zm0-117.11c-29.29 0-53.11 23.83-53.11 53.11 0 29.29 23.83 53.11 53.11 53.11S117.11 93.29 117.11 64 93.29 10.89 64 10.89z"/><path fill="#fff" d="M93.94 49.73c-3.6 0-6.96.94-9.89 2.57l-5.94-7.99v-.98c.59.03 1.2.05 1.79.03 2.09-.06 4.27-1.24 5.18-3.18.94-2.01.03-4.34-1.92-5.4l-.4-.19c-1.1-.41-2.22-.09-3.4.05-1.44.17-2.88.33-4.32.48-2.39.23-4.77.82-7.14 1.07-1.37.15-2.52 1.37-2.78 2.66-.37 1.76.93 2.62 2.45 3.15.94.33 1.92.52 2.89.65H49.73c.18-.91.36-1.83.53-2.74l.18-1.05c.34-2.11.63-3.2 1.06-3.77.7.5 1.5.63 2.62.49 3.3-.43 7.29.93 9.52-2.36.36-.52.39-1.37.31-1.97-.22-1.42-1.52-2.73-2.96-2.76-1.92-.05-3.89-.08-5.82-.01-1.34.05-3.38.21-4.47 1.08-.19.16-.34.33-.48.51-3.56 1.4-4.22 5.41-4.63 7.99l-.18.99c-.74 4.21-1.66 8.48-3.03 12.6a20.19 20.19 0 00-8.61-1.93c-11.28 0-20.45 9.18-20.45 20.45s9.18 20.45 20.45 20.45 20.44-9.17 20.44-20.45c0-6.38-2.94-12.08-7.53-15.84.5-1.45.96-2.92 1.37-4.4l14.15 21c.11.15.23.29.36.42.05.04.09.07.13.11.11.08.21.16.32.22.06.03.11.06.16.08.12.06.24.1.37.15.05.02.1.03.15.04.17.04.36.07.55.07h.64c-.19.6-.33 1.19-.36 1.83-.03.5-.14.99-.26 1.46-.32-.01-.63-.03-.94-.01-1.63.14-3.74 1.29-3.61 3.17.16 2.34 1.92 2.06 3.72 2.06 1.8 0 4.84.46 6.34-.8 1.12-.94.83-3.24-.44-3.94-.64-.34-1.41-.38-2.17-.38.23-.9.37-1.83.55-2.74.04-.18.11-.41.18-.66h5.7c.94 10.42 9.7 18.62 20.36 18.62 11.28 0 20.45-9.17 20.45-20.45s-9.18-20.45-20.46-20.45zM48.77 70.18c0 8.27-6.73 15.01-15 15.01s-15.02-6.73-15.02-15.01 6.74-15.01 15.02-15.01c2.38 0 4.63.58 6.64 1.57-1.82 3.99-4.22 7.76-7.52 11.06l-.09.11-.3.15c-1.17.7-1.56 2.21-.85 3.38.47.79 1.28 1.29 2.19 1.31h.08c1.4 0 2.2-1.06 2.58-1.61 3.46-3.49 6.01-7.37 7.96-11.46 2.66 2.72 4.31 6.43 4.31 10.5zm31.3-14.98c-3.31 3.07-5.6 7.22-6.32 11.88H68.1l8.03-17.17 3.94 5.29zm3.25 4.39l5.57 7.49h-9.63c.61-2.88 2.05-5.48 4.06-7.49zm-11.53-12l-7.94 16.98L52.4 47.59h19.39zm22.15 37.6c-7.66 0-13.97-5.76-14.88-13.18h14.73c.93 0 1.79-.52 2.2-1.35.42-.83.34-1.83-.22-2.57l-8.44-11.36c2-.98 4.24-1.55 6.61-1.55 8.28 0 15 6.73 15 15.01.01 8.27-6.72 15-15 15z"/><path fill="#db4437" d="M111.37 102.59l-8.43 8.41-86.31-85.73 8.43-8.41z"/></svg><svg viewBox="0 0 128 128" id="1F6B7" xmlns="http://www.w3.org/2000/svg"><circle cx="63.3" cy="64.7" r="61.69" fill="#006ca2"/><path fill="#db4437" d="M64 128C28.71 128 0 99.29 0 64S28.71 0 64 0s64 28.71 64 64-28.71 64-64 64zm0-117.11c-29.29 0-53.11 23.83-53.11 53.11 0 29.29 23.83 53.11 53.11 53.11S117.11 93.29 117.11 64 93.29 10.89 64 10.89z"/><g fill="#fff"><path d="M60.22 64.26L48.13 82.09c-1.41 1.69-1.17 4.21.52 5.62 1.69 1.41 4.21 1.17 5.62-.52l13.6-16.32-7.65-6.61z"/><path d="M47.21 84.58l-1.52 21.19c-.15 2.2 1.5 4.1 3.7 4.26 2.2.15 4.1-1.5 4.26-3.7l1.52-21.19-7.96-.56zM61.1 66.12L67.26 87a3.99 3.99 0 007.84-1.48l-3.9-20.88-10.1 1.48z"/><path d="M67.37 87.46l7.27 19.97a3.98 3.98 0 005.11 2.37 3.98 3.98 0 002.37-5.11l-7.27-19.97-7.48 2.74z"/><circle cx="55.61" cy="26.93" r="9.5"/><path d="M65.73 73.38l-.31.06c-3.97.75-7.84-1.88-8.59-5.86L53.1 47.86c-.75-3.97 1.88-7.84 5.86-8.59l.31-.06c3.97-.75 7.84 1.88 8.59 5.86l3.73 19.73c.74 3.97-1.89 7.83-5.86 8.58z"/><path d="M60.64 46.31l14.69 8.27c1.72.97 3.91.36 4.87-1.37.97-1.72.36-3.91-1.37-4.87l-14.69-8.27-3.5 6.24z"/><path d="M73.64 52.43l3 11.25a3.585 3.585 0 004.39 2.53 3.585 3.585 0 002.53-4.39l-3-11.25-6.92 1.86zM57.82 55.02l-13.4 9.57a3.573 3.573 0 00-.82 4.99 3.573 3.573 0 004.99.82l13.4-9.57-4.17-5.81z"/></g><path fill="#db4437" d="M111.37 102.73l-8.43 8.41-86.31-85.73L25.06 17z"/></svg><svg viewBox="0 0 128 128" id="1F6B8" xmlns="http://www.w3.org/2000/svg"><path fill="#fcc21b" d="M64 126.82c-.78 0-1.55-.3-2.14-.89L2.07 66.15c-.57-.57-.89-1.34-.89-2.15 0-.8.32-1.58.89-2.14L61.86 2.07a3.029 3.029 0 014.29 0l59.79 59.79a3.042 3.042 0 010 4.29l-59.79 59.79c-.6.58-1.37.88-2.15.88z"/><path fill="none" stroke="#444" stroke-miterlimit="10" stroke-width="3" d="M116.3 67L67 116.3a4.225 4.225 0 01-5.99 0L11.7 67a4.225 4.225 0 010-5.99L61 11.7a4.225 4.225 0 015.99 0L116.3 61a4.255 4.255 0 010 6z"/><g fill="#444"><path d="M40.51 66.69l1.59-5.96c.12-.48.43-.92.9-1.18l7.78-4.38 1.86 3.31-7.08 3.98-1.39 5.22a1.896 1.896 0 01-2.32 1.34 1.91 1.91 0 01-1.34-2.33zm12.36 1.29l6.41 9.44c.75.9.62 2.23-.27 2.97s-2.23.62-2.97-.27l-7.21-8.65 4.04-3.49z"/><path d="M59.76 78.75l.81 11.23c.08 1.16-.8 2.17-1.96 2.25-1.16.08-2.17-.8-2.25-1.96l-.81-11.23 4.21-.29zm-7.58-10.16l-3.26 11.06a2.121 2.121 0 01-2.47 1.69 2.121 2.121 0 01-1.69-2.47l2.31-11.81 5.11 1.53z"/><path d="M48.85 79.89L45 90.47c-.4 1.1-1.61 1.66-2.71 1.26s-1.66-1.61-1.26-2.71l3.85-10.58 3.97 1.45z"/><circle cx="55.86" cy="47.02" r="6.22"/><path d="M49.7 74.55l.68.13c2.15.41 4.24-1.02 4.65-3.17L57.3 59.5c.41-2.15-1.02-4.24-3.17-4.65l-.68-.13c-2.15-.41-4.24 1.02-4.65 3.17L46.53 69.9c-.4 2.16 1.03 4.25 3.17 4.65z"/><path d="M54.14 63.09l7.1 5.07c.85.61 1.05 1.79.44 2.65-.61.85-1.79 1.05-2.65.44l-7.1-5.07 2.21-3.09zM61.53 62l1.88-7.05c.15-.57.51-1.09 1.07-1.4l9.21-5.58 2.2 3.91L67.5 57l-1.64 6.17a2.23 2.23 0 01-2.75 1.58A2.23 2.23 0 0161.53 62zm14.76 3.27l7.58 11.18c.88 1.06.74 2.64-.33 3.52-1.06.88-2.64.74-3.52-.33l-8.53-10.23 4.8-4.14z"/><path d="M84.41 77.64l.96 11.7c.1 1.38-.94 2.57-2.32 2.67-1.38.1-2.57-.94-2.67-2.32l-.96-11.7 4.99-.35zM75.36 64.7L71.5 77.79a2.493 2.493 0 01-2.92 1.99 2.493 2.493 0 01-1.99-2.92l2.44-13.09 6.33.93z"/><path d="M71.49 77.86l-4.56 12.52a2.502 2.502 0 01-3.21 1.49 2.502 2.502 0 01-1.49-3.21l4.56-12.52 4.7 1.72z"/><circle cx="78.97" cy="39.82" r="6.27"/><path d="M72.21 69.05l1.79.34c2.22.42 4.38-1.05 4.79-3.27l2.53-13.36c.42-2.22-1.05-4.38-3.27-4.79l-1.79-.34c-2.22-.42-4.38 1.05-4.79 3.27l-2.53 13.36c-.42 2.21 1.06 4.37 3.27 4.79z"/><path d="M78.27 57.74l8.4 6c1.01.72 1.24 2.12.52 3.13a2.242 2.242 0 01-3.13.52l-8.4-6 2.61-3.65z"/><path d="M80.72 62.74l4.7 10.21c.44 1.19-.44 2.45-1.71 2.45l-18.82 1.2c-1.24 0-2.1-1.23-1.67-2.39l5.98-11.69c.14-.39.52-.66.94-.66l9.64.22c.42.01.79.27.94.66z"/></g></svg><svg viewBox="0 0 128 128" id="2622" xmlns="http://www.w3.org/2000/svg"><circle cx="64" cy="64" r="64" fill="#fbc21a"/><path d="M35.7 18.56c-15.5 9.73-24.38 26.22-25.01 43.4-.04 1.06.84 1.94 1.9 1.94h48.3c1.46 0 2.38-1.58 1.65-2.85L38.38 19.21a1.922 1.922 0 00-2.68-.65zm3.46 92.66c15.18 8.01 33.88 8.56 50.04.01.96-.51 1.32-1.7.78-2.64L65.82 66.75c-.73-1.27-2.56-1.27-3.29 0l-24.15 41.83c-.54.94-.18 2.13.78 2.64zm50.82-92L65.82 61.05a1.9 1.9 0 001.65 2.85h48.3c1.06 0 1.94-.87 1.9-1.93-.3-8.47-2.6-16.99-7.13-24.84a53.315 53.315 0 00-17.89-18.57c-.92-.57-2.13-.28-2.67.66z"/><circle cx="64" cy="64" r="15.1" stroke="#fbc21a" stroke-miterlimit="10" stroke-width="8"/></svg><svg viewBox="0 0 128 128" id="2623" xmlns="http://www.w3.org/2000/svg"><circle cx="64" cy="64" r="64" fill="#fbc21a"/><circle cx="64" cy="63.85" r="25.33" fill="none" stroke="#2f2f2f" stroke-miterlimit="10" stroke-width="6"/><path fill="#2f2f2f" d="M39.78 110.69a31.47 31.47 0 01-16.58-4.73c-1.54-.95-2.08-2.95-1.24-4.56.6-1.14 1.78-1.85 3.07-1.85.48 0 .95.1 1.39.29 2.4 1.05 4.95 1.59 7.59 1.59 3.32 0 6.58-.87 9.43-2.51 6.25-3.61 9.85-10.33 9.39-17.54-.49-7.69-5.49-14.14-13.74-17.73-1.13-.13-2.25-.19-3.33-.19-5.25 0-9.77 1.46-13.43 4.34-3.93 3.09-6.5 7.74-7.06 12.75-.19 1.76-1.66 3.09-3.4 3.09h-.11l-.1-.01a3.486 3.486 0 01-3.3-3.35 31.44 31.44 0 0126.19-32.02c-1.3-3.5-1.98-7.23-1.98-10.96 0-11.6 6.36-22.22 16.6-27.71.5-.27 1.06-.41 1.64-.41 1.2 0 2.29.6 2.93 1.61a3.47 3.47 0 01-.88 4.64c-4.82 3.54-7.71 9.23-7.71 15.2 0 7.22 4.02 13.7 10.5 16.91 2.63 1.3 5.44 1.97 8.34 1.97 4.66 0 9.46-1.73 13.89-5 3.93-5.32 5.58-11.05 4.79-16.59-.71-4.95-3.45-9.5-7.51-12.48a3.47 3.47 0 01-.88-4.64 3.41 3.41 0 012.92-1.62c.57 0 1.14.14 1.64.41A31.413 31.413 0 0195.43 37.3c0 3.73-.68 7.46-1.98 10.96 3.68.62 7.25 1.9 10.48 3.77 10.05 5.8 16.06 16.62 15.7 28.23a3.476 3.476 0 01-3.33 3.35h-.15c-1.76 0-3.23-1.33-3.43-3.08-.66-5.95-4.14-11.29-9.31-14.28a18.89 18.89 0 00-9.44-2.55c-3.71 0-7.32 1.1-10.45 3.19-6.42 4.27-9.5 11.82-8.49 20.77 2.64 6.06 6.78 10.36 11.98 12.44 2.2.88 4.54 1.33 6.95 1.33 2.61 0 5.25-.55 7.62-1.59.44-.19.91-.29 1.39-.29 1.29 0 2.47.71 3.07 1.85.84 1.6.3 3.6-1.24 4.55a31.405 31.405 0 01-16.58 4.73c-5.5 0-10.94-1.46-15.71-4.22a31.726 31.726 0 01-8.5-7.19 31.545 31.545 0 01-8.5 7.19 31.44 31.44 0 01-15.73 4.23z"/><path fill="#fbc21a" d="M50.8 11.68c.32 0 .63.16.82.45.27.43.16.99-.24 1.29-5.46 4.01-8.73 10.45-8.73 17.22 0 8.18 4.56 15.51 11.89 19.15 3.01 1.49 6.2 2.23 9.45 2.23 5.26 0 10.67-1.93 15.67-5.71 4.49-5.95 6.38-12.42 5.47-18.73-.81-5.61-3.91-10.77-8.51-14.14a.959.959 0 01-.24-1.29c.18-.29.49-.45.82-.45.15 0 .31.04.46.12a28.916 28.916 0 0115.28 25.51c0 4.54-1.07 9.03-3.12 13.06 4.52.25 8.94 1.56 12.87 3.83a28.896 28.896 0 0114.45 25.98c-.02.51-.42.91-.93.93h-.05c-.48 0-.89-.37-.94-.86-.74-6.74-4.69-12.78-10.55-16.17a21.321 21.321 0 00-10.69-2.88c-4.12 0-8.23 1.21-11.84 3.6-7.32 4.87-10.79 13.43-9.54 23.5 2.9 6.86 7.56 11.74 13.49 14.11 2.51 1 5.19 1.5 7.88 1.5 2.94 0 5.89-.6 8.62-1.8a.91.91 0 01.39-.08c.35 0 .68.19.85.52.24.45.09 1-.34 1.27-4.68 2.9-9.97 4.36-15.27 4.36-4.99 0-9.98-1.29-14.46-3.88a28.746 28.746 0 01-9.75-9.24 29.031 29.031 0 01-9.75 9.24 28.915 28.915 0 01-14.46 3.88c-5.3 0-10.59-1.46-15.27-4.36a.96.96 0 01-.34-1.27c.17-.33.51-.51.85-.51.13 0 .26.03.39.08 2.74 1.2 5.67 1.8 8.6 1.8 3.71 0 7.4-.96 10.68-2.85 7.08-4.09 11.16-11.7 10.64-19.87-.56-8.77-6.24-16.06-15.58-20.02-1.36-.17-2.69-.25-3.98-.25-5.77 0-10.89 1.66-14.98 4.88-4.45 3.51-7.37 8.77-7.99 14.44-.05.48-.44.86-.92.86h-.08a.97.97 0 01-.93-.93 28.885 28.885 0 0114.45-25.98c3.93-2.27 8.36-3.58 12.87-3.83a28.878 28.878 0 01-3.12-13.06c0-10.68 5.85-20.45 15.28-25.51.12-.1.28-.14.43-.14m0-5c-.98 0-1.96.25-2.83.71a33.888 33.888 0 00-17.9 29.91c0 3.07.42 6.14 1.25 9.1-2.97.77-5.84 1.93-8.5 3.47C11.97 56.13 5.48 67.81 5.87 80.34c.1 3.07 2.55 5.58 5.6 5.77.13.01.27.01.4.01 3.02 0 5.55-2.28 5.89-5.31.48-4.35 2.71-8.38 6.12-11.06 3.21-2.53 7.21-3.81 11.88-3.81.87 0 1.77.05 2.68.14 7.25 3.27 11.47 8.73 11.9 15.45.4 6.26-2.72 12.09-8.15 15.22-2.47 1.42-5.3 2.18-8.18 2.18-2.29 0-4.51-.46-6.59-1.38-.76-.33-1.56-.5-2.39-.5-2.22 0-4.24 1.22-5.28 3.19-1.45 2.76-.51 6.2 2.13 7.85a33.966 33.966 0 0017.9 5.11c5.94 0 11.81-1.57 16.96-4.55a33.83 33.83 0 007.25-5.63c2.15 2.19 4.6 4.09 7.25 5.63a33.945 33.945 0 0016.96 4.55c6.32 0 12.51-1.77 17.9-5.11 2.65-1.64 3.59-5.09 2.13-7.85a5.95 5.95 0 00-5.28-3.19c-.83 0-1.65.17-2.41.51-2.04.9-4.33 1.37-6.6 1.37-2.09 0-4.12-.39-6.02-1.15-4.47-1.79-8.08-5.51-10.46-10.77-.79-7.92 1.83-14.3 7.43-18.03 2.72-1.81 5.86-2.77 9.07-2.77 2.85 0 5.68.77 8.19 2.21 4.49 2.59 7.51 7.22 8.08 12.39a5.946 5.946 0 005.91 5.31c.1 0 .2 0 .3-.01 3.09-.15 5.58-2.67 5.68-5.77.39-12.53-6.1-24.21-16.95-30.47-2.66-1.53-5.53-2.7-8.5-3.47.82-2.96 1.25-6.03 1.25-9.1 0-12.53-6.86-23.99-17.91-29.91-.86-.46-1.84-.71-2.82-.71-2.06 0-3.95 1.04-5.05 2.79-1.66 2.63-1 6.14 1.52 7.98 3.52 2.59 5.9 6.53 6.52 10.83.69 4.77-.73 9.75-4.1 14.45-3.91 2.81-8.08 4.29-12.1 4.29-2.51 0-4.95-.57-7.23-1.71-5.62-2.78-9.11-8.4-9.11-14.67 0-5.18 2.5-10.11 6.69-13.19 2.51-1.85 3.18-5.36 1.51-7.99a5.917 5.917 0 00-5.04-2.78z"/><path fill="#fbc21a" d="M78.74 70.13l-7.85-4.53c.14-.56.23-1.14.23-1.75 0-3.26-2.19-6-5.18-6.84v-9.06h-3.85v9.06a7.103 7.103 0 00-5.18 6.84c0 .6.08 1.19.23 1.75l-7.85 4.53 1.93 3.34 7.85-4.53a7.076 7.076 0 004.96 2.02c1.93 0 3.68-.77 4.96-2.02l7.85 4.53 1.9-3.34z"/><circle cx="-87" cy="64" r="64" fill="#fc3"/><circle cx="-87" cy="64" r="24.28" fill="none" stroke="#2f2f2f" stroke-miterlimit="10" stroke-width="6"/><path fill="#2f2f2f" stroke="#2f2f2f" stroke-linecap="round" stroke-linejoin="round" stroke-miterlimit="10" d="M-46.55 53.16c-4.67-2.7-9.78-3.97-14.81-3.96 2.52-4.36 3.97-9.41 3.97-14.81 0-11.3-6.33-21.12-15.64-26.11 9.99 7.34 14.01 22.34 3.34 36.36-19.49 14.84-40.94 1.27-40.94-17.31 0-7.82 3.8-14.75 9.66-19.05-9.31 4.99-15.64 14.81-15.64 26.11 0 5.4 1.45 10.45 3.97 14.81a29.498 29.498 0 00-14.81 3.96c-9.79 5.65-15.12 16.04-14.79 26.6 1.36-12.32 12.35-23.3 29.82-21.07 22.6 9.46 21.57 34.82 5.48 44.11-6.77 3.91-14.68 4.08-21.33 1.16 8.98 5.56 20.64 6.14 30.43.49A29.5 29.5 0 00-87 93.61c2.51 4.36 6.16 8.15 10.84 10.84 9.79 5.65 21.45 5.08 30.43-.49-11.35 4.98-26.35.96-33.16-15.29-3.11-24.3 19.37-36.09 35.46-26.8 6.77 3.91 10.87 10.67 11.67 17.89.33-10.56-5.01-20.95-14.79-26.6z"/><circle cx="-87" cy="64" r="7.38" fill="#fc3"/><path fill="#da433d" stroke="#fc3" stroke-miterlimit="10" stroke-width="4" d="M-87 64.14V47.5m-.25 16.64l-14.04 8.11m14.04-8.39l14.54 8.39"/></svg><svg viewBox="0 0 128 128" id="26A0" xmlns="http://www.w3.org/2000/svg"><path fill="#fcc21b" d="M9.6 114.26L64 20.03l54.41 94.23z"/><path fill="#2f2f2f" d="M127.07 115.93L66.89 11.7c-.6-1.03-1.7-1.67-2.89-1.67-1.19 0-2.29.64-2.88 1.67L.93 115.93c-.6 1.03-.6 2.3 0 3.34.6 1.03 1.7 1.66 2.89 1.66h120.36c1.19 0 2.29-.63 2.89-1.66.59-1.04.59-2.31 0-3.34zM9.6 114.26L64 20.03l54.41 94.23H9.6z"/><text style="line-height:1.25;-inkscape-font-specification:'Comic Neue';font-variant-ligatures:normal;font-variant-caps:normal;font-variant-numeric:normal;font-feature-settings:normal;text-align:start" x="53.662" y="110.97" fill="#2f2f2f" stroke-width="5.566" font-family="Comic Neue" font-size="103.904" font-weight="400" letter-spacing="0" word-spacing="0"><tspan x="53.662" y="110.97" style="-inkscape-font-specification:'Comic Neue Bold'" font-weight="700">!</tspan></text></svg><svg viewBox="0 0 128 128" id="26D4" xmlns="http://www.w3.org/2000/svg"><path fill="#fff" d="M15.58 51.47h96.83v25.05H15.58z"/><path fill="#ed6c30" d="M64 .57C28.96.57.57 28.97.57 64c0 35.04 28.39 63.43 63.43 63.43 35.02 0 63.43-28.4 63.43-63.43S99.02.57 64 .57zM15.58 76.53V51.47h96.83v25.05H15.58z"/></svg></svg>