<?xml version="1.0" encoding="utf-8"?><svg viewBox="0 0 128 128" xmlns="http://www.w3.org/2000/svg" xmlns:xlink="http://www.w3.org/1999/xlink"><style>:root>svg{display:none}:root>svg:target{display:block}</style><svg viewBox="0 0 128 128" id="1F4DD" xmlns="http://www.w3.org/2000/svg"><path fill="#fff" d="M-96.47 22.03c-5.93.43-11.85.51-17.73 1.18-2.77.32-5.48 1.26-8.28 1.51-2.75.24-5.45.18-8.2.52-.86.11-1.6.52-2.66.57-1.43.07-1.89-.3-2.61 1.07-1.24 2.4.55 7.48 1.11 9.78 1.21 4.91 2.26 9.86 3.79 14.68 1.56 4.96 3.47 9.76 4.22 14.91.66 4.5 1.75 9 2.2 13.51.33 3.27.27 6.37 1.47 9.48 2.05 5.39 3.53 10.97 4.91 16.57 1.19 4.85 1.95 8.08 5.55 11.8.96.99 3.92 3.41 3.9 4.81 3.08.52 6.67.08 9.8.08 4.63 0 8.56-1.44 13.05-2.05 4.53-.62 9.06-1.74 13.56-2.41 3.95-.59 7.99-1.26 11.83-2.44 5.59-1.72 11.01-3.84 16.82-3.94 4.03-.07 7.75-1.79 11.45-3.11.78-.28 8.06-1.77 8.05-2.44-.02-2.42-3.34-5.54-4.82-7.5-2.43-3.22-4.69-6.99-6.09-10.75-.83-2.23-2.82-4.26-3.69-6.64-.86-2.34-1.98-4.2-2.88-6.4-.87-2.14-1.15-4.88-2.13-7.18-2.57-6.04-7.31-11.15-9.01-17.49-.49-1.81-.46-3.73-1.3-5.47-.76-1.58-1.87-2.91-2.49-4.59-2.05-5.58-5.27-11.21-6.48-16.97-.48-2.3-1.56-5.21-3.35-6.82-1.99-1.78-3.35.92-5.8 1.4-2.63.51-5.38.6-8.06 1.19-5.33 1.17-10.64 2.74-16.13 3.14z"/><g fill="#006ca2"><path d="M-21.8 103.07c-4-5.48-7.91-10.94-10.98-17.06-2.53-5.05-4.89-10.52-7.15-15.83-1.18-2.77-2.35-5.55-3.56-8.31-.9-2.05-3.03-5.17-2.98-7.51-.86-.25-3.63 1.21-3.95 2.04-.43 1.14.44 2.82.71 3.91.81 3.17 2.69 6.12 3.9 9.15 1.53 3.84 3.15 7.65 4.57 11.54 1.91 5.25 4.69 10.35 7.37 15.26a83.72 83.72 0 0 0 2.67 4.57c.33.53.64 1.06.98 1.58 1.63 2.41-.86 3-2.73 3.58-4.69 1.45-9.55 2.18-14.35 3.2-4.47.96-8.87 2.19-13.35 3.09-10.67 2.16-21.46 4.14-32.18 6.02-2.97.52-5.98.95-8.98 1.17-1.94.14-4.09.49-5.9-.4-1.91-.93-3.18-3.09-4.18-4.87-1.47-2.59-2.7-5.32-3.75-8.11-2.77-7.36-4.27-15.11-5.92-22.77-.86-4.02-1.76-8.04-2.91-11.99-3.19-10.92-5.09-22.15-7.69-33.21-.66-2.83-1.55-5.66-1.76-8.58-.05-.62.13-1.15.16-1.74.4.01.78-.24 1.15-.33.53-.12 1.11-.15 1.65-.19.92-.06 1.85-.14 2.78-.22 1.8-.16 3.61-.34 5.41-.53 4.06-.45 8.15-.47 12.22-.93 4.38-.5 8.74-1.21 13.13-1.62 8.67-.81 17.42-1.57 25.8-4.04.71-.21 2.08-.76 2.79-.42.92.45.89 1.7 1.38 2.46.68 1.07 1.35 2.69 1.75 3.89.24.73.46 1.4.75 2.11.34.83 1.42 3.69 2.42 3.54.33-.05 3.61-3.41 3.58-3.54-.45-1.65-1.71-3.25-2.41-4.89-.46-1.07-.7-2.2-1.01-3.32-.51-1.82-1.95-4.08-3.14-5.54-1.16-1.41-4.02-.32-5.54.03-4.02.92-7.9 2.41-11.96 3.15-5.76 1.05-11.6 1.59-17.43 2.09-3.45.3-6.91.58-10.37.93-4.98.52-9.97 1.14-14.96 1.52-1.4.07-2.81.18-4.22.31-1.65.14-3.25.05-4.91.32-1.02.16-1.97.45-2.97.68-1.21.29-1.91 1.55-1.66 2.76 3.5 16.75 5.98 33.55 10.77 50.04 4.67 16.04 5.49 33.5 16.12 47.3 1.7 2.2 4.36 2.4 6.93 2.32 16.77-.54 33.39-5.2 49.73-8.63 11.67-2.44 24.32-4.01 35.12-9.32 1.49-.73 1.56-1.27.62-2.55-.54-.71-1.05-1.41-1.56-2.11z"/><path d="M-80.28 32.55c-3.1.36-6.07 1.16-9.15 1.7-2.84.49-4.98-.31-7.77.77-3.27 1.27-6.84.73-10.25 1.28-3.18.51-6.54 4.29-9.5 1.13-2.39-2.54-6.12 1.25-3.81 3.81 4.4 4.86 9.5 2.23 14.78.41 1.81-.62 4.05.28 5.92-.14 2.18-.48 4.8-1.63 6.99-1.86 4.21-.45 8.53-1.11 12.77-1.68 3.4-.46 3.51-5.83.02-5.42zm-11.35 19.26c-1.94.57-3.17.62-5.23.39-1.59-.17-3.84 1.43-5.23 1.97-2.5.97-5.6-.39-8.21-.36-2.03.03-3.95 1.42-5.69 2.28-3.37 1.66-.42 6.7 2.95 5.04 4.15-2.05 8.12-.37 12.49-1.35 1.74-.39 3.14-1.87 5.04-1.69 2.34.21 3.34-.07 5.37-.82 3.39-1.25 2.07-6.52-1.49-5.46zM-93.3 69.1c-.87.52-2.28.18-3.29.3-2.09.26-3.66 2.47-5.88 1.99-4.11-.88-6.46-1.01-9.82 1.94-1.52 1.34-.25 3.75 1.57 3.8 2.52.07 4.07-1.2 6.75-.33 2.26.74 4.23.3 6.29-.74 1.79-.91 1.93-1.13 4-1.22 1.71-.07 3.11-.64 3.98-2.13 1.35-2.28-1.31-4.98-3.6-3.61z"/></g><defs><path id="aaaa" d="M-80.16 50.83s-4.34 20.69-4.34 20.71c-.11.58-.11 1.25.28 1.73.65.76 1.85.27 2.6.04.53-.16 1.06-.31 1.59-.47.76-.22 1.52-.45 2.28-.67l2.74-.81c.99-.29 1.97-.58 2.95-.87.98-.29 1.96-.58 2.93-.87.89-.26 1.78-.52 2.66-.79.72-.21 1.44-.43 2.16-.64a247.824 247.824 0 0 0 1.82-.55l-4.83-14.49-12.84-2.32z"/></defs><use fill="#fcd4b5" overflow="visible" xlink:href="#aaaa"/><clipPath id="aaab"><use overflow="visible" xlink:href="#aaaa"/></clipPath><path fill="#006ca2" d="M-83.45 64.82c-.75 2.39-1.48 4.77-2.01 6.58-.17.54-.3 1.04-.42 1.45-.24.86-.16 1.87.08 2.08.39.35.79.5 1.22.45l.09-.02c.87-.17 4.34-1.53 8.3-3.16-3.24-.66-6.77-3.73-7.26-7.38z" clip-path="url(#aaab)"/><path fill="#fcd4b5" d="M-19.55 9.81c-1.32-1.88-2.98-3.67-4.5-4.45-2.89-1.5-9.25-2.91-11.73.07-2.44 2.94-1.2 9.82.16 12.98 2.4 5.53 11.46 10.46 16.89 6.12 2.25-1.8 3.17-4.34 2.52-7.2-.29-1.29-.74-2.5-1.22-3.73-.44-1.12-1.2-2.48-2.12-3.79z"/><path fill="#40c0e7" d="M-38.82 9.79c-1.24.63-2.35 1.5-3.32 2.49-1.97 2.03-3.73 3.64-6.13 5.18-3.97 2.55-7.22 6.37-10.7 9.51-2.6 2.35-4.78 5.09-7.22 7.6-2.16 2.23-3.56 5.12-5.49 7.54-1.19 1.48-2.08 3.12-3.25 4.61-1.12 1.42-2.48 2.77-3.33 4.36-.27.5-.87 1.32-.76 1.89.2.95.87.85 1.64 1.07 1.42.4 3 .25 4.3.88 0 .83.62 1.85.85 2.67.37 1.35.41 2.56 1.91 2.72 1.09.11 1.74.13 2.72.54 1.27.53 1.07 1.21 1.34 2.44.22 1 .43 2.33.82 3.26.21.49.53 1.13 1.09 1.3.95.29 1.29-.53 1.94-1.03 3.26-2.45 6.64-4.86 9.96-7.27 1.97-1.43 3.58-3.34 5.37-5 1.73-1.6 3.72-2.94 5.5-4.52 2.5-2.24 5.18-4.15 7.74-6.3 1.34-1.12 2.29-2.51 3.52-3.75 1.33-1.33 2.94-2.24 4.23-3.6 1.77-1.85 2.87-3.88 3.85-6.18.19-.46 1.08-1.38.85-1.97-.34-.85-2.06-.58-2.77-.73-2.32-.5-4.25-2.01-6.43-2.85-1.58-.62-2.62-1.91-3.64-3.19-.87-1.08-1.51-2.58-2.06-3.87-.73-1.72-.33-4.08-.33-5.92v-.53l-2.2-1.35z"/><path fill="#006ca2" d="M-12.83 17.65C-15.67 7.01-27.42-2.13-38.04 4.63c-.06.04-.13.08-.19.13-5.1 3.97-12.72 11.75-18.51 17.79-6.59 6.89-13.42 13.74-19.14 21.42-.71.94-1.46 1.73-2.08 2.74-.99 1.6-2.28 3.36-2.42 5.29-.2 2.61 2.6 3.12 4.66 3.34.58.06 1.4.25 1.58.89.21.76.34 1.58.52 2.35.16.71.15 1.59.61 2.2.45.6 1.36.6 2.02.68.7.09 1.4.17 2.11.28.4.06.88.09 1.22.35.55.42.52 1.22.73 1.82.28.81.38 1.68.6 2.51.18.68.34.98.97 1.28 1.76.85 3.65.16 5.13-.9 6.52-4.68 12.66-9.87 18.73-15.12 3-2.59 6.01-5.16 8.96-7.81.45-.4.9-.81 1.35-1.21 4.07-3.71 8.6-7.53 12.47-11.45.56-.56 1.12-1.13 1.65-1.72 3.4-3.82 5.69-6.4 4.24-11.84zm-61.21 30.33c2.96-3.48 6.2-6.77 9.3-10.13 6.54-7.1 13.42-13.93 20.31-20.68 1.01-.98 1.88-2.14 2.93-3.08.38-.34 1.11-1.12 1.67-.98.78.2.7 1.46.76 2.07.1.94.3 1.9.56 2.85l-34.62 35-3.67-.81c.73-1.47 1.62-2.89 2.76-4.24zm36.34-27.67c.77 1.78 1.82 3.44 3.13 4.75.23.24.48.46.75.67.44.34.91.68 1.39 1l-34.64 33.19-3.82-.76-.73-4.56 33.92-34.29zm10.77 10.62c-.29.27-.58.53-.87.8-.74.69-1.48 1.38-2.23 2.06-2 1.86-4.01 3.72-6.01 5.58-2.42 2.24-4.83 4.48-7.24 6.72-2.48 2.3-4.97 4.6-7.45 6.9-2.22 2.05-4.43 4.1-6.65 6.14-1.61 1.48-3.22 2.96-4.84 4.43-.63.57-1.26 1.19-1.94 1.71l-1.33-3.87 34.96-33.5c1.03.56 2.1 1.03 3.2 1.36 1.42.4 1.42.73.4 1.67zm8.97-9.7c-1.69 4.59-6.68 2.81-9.8 1.23-3.63-1.84-5.82-5.28-6.68-9.17-.78-3.52-.45-7.25 4.14-6.87 4.09.34 7.83 3.02 10.34 6.17 1.89 2.37 2.95 6.06 2 8.64z"/><path fill="#006ca2" d="M-27.8 11.26c-1.85-.07-1.91 1.44-1.54 2.84.42 1.55 1.36 2.89 2.85 3.57 1.28.58 3.32 1.2 3.92-.68.34-1.06-.17-2.52-.97-3.44-1.05-1.22-2.61-2.23-4.26-2.29z"/><path fill="#b0bec5" d="M6.89 123.12V8.14a3.06 3.06 0 0 1 3.06-3.06H99a3.06 3.06 0 0 1 3.06 3.06v114.98a3.06 3.06 0 0 1-3.06 3.06H9.96c-1.69 0-3.07-1.37-3.07-3.06z"/><path fill="#e0e0e0" d="M4.14 120.36V5.38A3.06 3.06 0 0 1 7.2 2.32h89.04a3.06 3.06 0 0 1 3.06 3.06v114.98a3.06 3.06 0 0 1-3.06 3.06H7.2c-1.69.01-3.06-1.37-3.06-3.06z"/><path fill="none" stroke="#616161" stroke-linecap="round" stroke-linejoin="round" stroke-miterlimit="10" stroke-width="5" d="M17.56 28.65h68.33M17.56 43.91h68.33M17.56 59.16h68.33M17.56 74.42h68.33M17.56 89.68h29.22"/><path fill="#eee" d="m88.683 27.653 6.739-6.739 5.749 5.749-6.739 6.739z"/><path fill="#c5c5c5" d="m94.429 33.397 6.738-6.738 8.132 8.131-6.739 6.739z"/><path fill="#e0e0e0" d="m102.564 41.532 6.738-6.74 5.75 5.75-6.74 6.738z"/><path fill="#e95f5d" d="M109.26 13.41a4.484 4.484 0 0 0-6.34 0l-7.49 7.49 5.75 5.75 10.67-10.67-2.59-2.57z"/><path fill="#d64545" d="m122.55 26.7-2.58-2.58-10.67 10.67 5.75 5.75 7.49-7.49c1.76-1.76 1.76-4.6.01-6.35z"/><path fill="#df4c49" d="m101.174 26.658 10.67-10.67 8.132 8.131-10.67 10.67z"/><path fill="none" d="m72.62 82.97-5.75-5.75 3.37 3.37z"/><path fill="#ffd05f" d="M58.75 69.08 94.43 33.4l-5.75-5.75L53 63.34l-1.94 6.7c.46.46 1.46.91 6.28-.97.83-.32 1.36-.02 1.4 0l.01.01z"/><path fill="#f59252" d="m49.34 84.06-.07-.07.07.07zm1.28 1.28-1.28-1.28zm-1.33-1.3c.01.01.01.04.02.06l.03-.04s-.04-.02-.05-.02zm.05.02-.03.04.03-.04z"/><path fill="#f59252" d="m58.75 69.09-9.42 14.97-.03.04c.03.1.05.25-.03.45-.71 1.9-.53 2.3-.34 2.48.18.18.58.37 2.48-.34.2-.08.35-.06.45-.03l.04-.03 14.97-9.42-8.12-8.12zm-6.88 17.57.04-.03-.04.03z"/><path fill="#333" d="M52.12 88.92a.498.498 0 0 1-.23-.13c-.14-.14-.31-.44.07-1.76.05-.19 0-.31-.03-.36-.01-.01-.04-.01-.06-.02a.657.657 0 0 0-.45.03c-1.9.71-2.3.53-2.48.34-.18-.18-.37-.58.34-2.48.08-.2.06-.35.03-.45-.01-.02-.01-.05-.02-.06-.05-.03-.17-.08-.36-.03-1.31.38-1.61.22-1.76.07a.498.498 0 0 1-.13-.23v-.01l-1.55 5.35c-.23.79.5 1.52 1.29 1.29l5.34-1.55c.01 0 .01 0 0 0z"/><path fill="#f59252" d="M51.93 86.68c-.01-.01-.02-.04-.02-.04l-.04.03c.02 0 .05 0 .06.01z"/><path fill="#e5823b" d="M52.12 88.92h.01l1.61-.46-.01-.01zm0 0 1.61-.47-1.61.47z"/><path fill="#e5823b" d="m66.88 77.22-14.97 9.42.07.07s-.02-.01-.05-.02c.03.05.08.17.03.36-.38 1.31-.22 1.61-.07 1.76.05.05.12.1.23.13l1.61-.47 18.9-5.49-5.75-5.76z"/><path fill="#e5823b" d="m51.98 86.7-.07-.07s.01.03.02.04c.03.02.05.03.05.03z"/><path fill="#f9a371" d="M58.75 69.09s-.55-.35-1.42-.01c-4.82 1.88-5.83 1.42-6.28.97l-3.54 12.19-.47 1.61c.03.11.08.18.13.23.14.14.44.31 1.76-.07.19-.05.31 0 .36.03-.01-.03-.02-.05-.02-.05l.07.07 9.41-14.97z"/><path fill="#f9a371" d="m49.34 84.06-.07-.07s.01.02.02.05c.01 0 .05.02.05.02z"/><path fill="#ffbf24" d="M94.43 33.4 58.75 69.09l8.13 8.13 35.69-35.69-8.14-8.13zM58.75 69.09s.42.66.04 1.68c-2.14 5.69-1.58 6.89-1.03 7.44.55.55 1.75 1.11 7.44-1.03 1.02-.38 1.68.04 1.68.04l-4.06-4.06-4.07-4.07z"/><path fill="#eba81b" d="M102.56 41.53 66.87 77.22l5.75 5.75 35.69-35.69-5.75-5.75zM66.87 77.22s.35.55.01 1.42c-1.88 4.82-1.42 5.83-.97 6.28l6.71-1.95-2.38-2.38-3.37-3.37z"/></svg><svg viewBox="0 0 128 128" id="1F58A" xmlns="http://www.w3.org/2000/svg"><path fill="#bcaaa4" d="M64.83 46.3 27.29 92.55c-.23.28-.41.6-.54.94l-4.88 12.81c-1.08 2.84 1.62 5.65 4.2 4.34l12.02-6.11c.34-.17.66-.42.92-.71l41.08-46.2c.71-.79 1.01-1.91.81-2.99-.73-3.96-3.62-12.77-14.65-9.33-.55.17-1.04.53-1.42 1z"/><path fill="#bdbdbd" d="m38.09 104.54-12.02 6.11c-2.57 1.31-5.28-1.5-4.2-4.34l4.88-12.81 11.34 11.04z"/><path d="M64 46.33c5.14-5.64 24.93-26.62 36.73-31.78 4.47-1.96 10.09 1.47 8.66 7.04-1.98 7.67-29.63 39.24-29.63 39.24-.57.73-2.73 1.24-3.38.97-.22-.09.6-.56.44-.82l-.12-.49c-.1-.4-.26-.79-.48-1.14-2.76-4.35-6.61-7.27-11.7-9.6-.56-.26-2.44-.25-2.44-.25 0-1.42 1.12-2.29 1.92-3.17z"/><path fill="#212121" d="m22.77 104.24-1.34 3.32c-.94 2.32 1.41 4.61 3.63 3.54l3.48-1.66-5.77-5.2z"/><path fill="#fafafa" d="m52.09 82.05-.51-.47a.877.877 0 0 1-.07-1.22l19.41-22.13a.84.84 0 0 1 1.19-.07l.51.47c.35.32.38.87.07 1.22L53.28 81.99a.83.83 0 0 1-1.19.06z"/><path fill="#795548" d="M64.34 45.76c5.14-5.56 25.57-27.55 37.37-32.65 4.47-1.93 10.09 1.43 8.66 6.91-1.98 7.55-29.31 39.18-29.31 39.18-.76.96-2.3.88-2.93-.16-2.8-4.63-7.12-8.23-12.29-10.26l-.85-.33c-1.13-.45-1.46-1.82-.65-2.69z"/><path d="M90.71 49.78c6.71-8.09 12.17-13.75 18.36-23.41.56-.88 1.94.4 1.4 1.33-4.53 8-15.33 20.27-18.1 23.43-.7.79-2.25-.64-1.66-1.35z"/><path d="M110.21 28.27c-.5.69-1.48.84-2.17.34l-1.5-1.09a1.56 1.56 0 0 1-.34-2.17c.5-.69 1.48-.84 2.17-.34l1.5 1.09c.7.5.85 1.48.34 2.17z"/><path fill="#fff" d="M26.75 93.49s.17-.39.25-.51c.06-.11.29-.43.29-.43l11.72 11.27s-.32.32-.46.42c-.13.1-.46.29-.46.29L26.75 93.49z"/></svg><svg viewBox="0 0 128 128" id="1F58B" xmlns="http://www.w3.org/2000/svg"><path fill="#bdbdbd" d="M44.88 81.1 26.22 92.72l-8.25 24.93c-.45 1.37 1.2 2.45 2.27 1.48 5.72-5.16 15.91-13 19.98-7.58L50.7 85.43l-5.82-4.33z"/><path fill="#fafafa" d="M39.41 110.71c.28-7.19 5.75-19.78 8.18-25.03.06-.12-.12-.21-.18-.09l-12.67 22.15c-.62 1.14-1.01 1.94-1.23 2.51l1.65-.4c.97-.25 2.61-.05 3.75.48l.5.38z"/><circle cx="30.01" cy="101.82" r="2.2" fill="#212121"/><path fill="#212121" d="m30.01 103.42-10.18 15.44c-.26.37-.16.64-.81.6l-.41-.23 9.96-16.88 1.44 1.07z"/><path fill="#795548" d="M43.99 74.46c-1.89 1.33-2.09 4.06-.42 5.66l7.24 6.95a4.925 4.925 0 0 0 6.43.34s51.65-56.02 54.22-62.65c2.5-6.47-8.53-14.03-13.72-10.66-5.11 3.32-53.75 60.36-53.75 60.36z"/><path fill="#bcaaa4" d="m70.7 65.39-.67-.6c-.45-.4-.49-1.1-.09-1.55l25.19-28.15c.4-.45 1.1-.49 1.55-.09l.67.6c.45.4.49 1.1.09 1.55L72.25 65.31c-.4.45-1.1.48-1.55.08zM57.53 86.17 45.16 74.9c-.89-.81-.96-2.2-.14-3.09.81-.89 2.2-.96 3.09-.14l12.37 11.27c.89.81.96 2.2.14 3.09-.81.89-2.2.95-3.09.14z"/></svg><svg viewBox="0 0 128 128" id="1F58C" xmlns="http://www.w3.org/2000/svg"><defs><path id="aada" d="M40.97 80.92c-6.3-1.36-13.54.35-18.58 4.98-5.24 4.79-6.36 11.91-7.7 18.53-.74 3.6-1.02 8.75-4.15 11.21-1.41 1.11-2.71 1.17-4.35 1.09-.64-.03-3.62-1.05-2.77.91 1.61 3.74 9.63 6.01 13.1 6.79 9.33 2.08 19.33-.46 26.76-6.41.77-.63 1.52-1.29 2.23-1.98 5.74-5.57 10.04-14.12 8.4-22.22-1.48-7.32-6.77-11.57-12.94-12.9z"/></defs><use fill="#855c52" overflow="visible" xlink:href="#aada"/><clipPath id="aadb"><use overflow="visible" xlink:href="#aada"/></clipPath><path fill="#ed6c30" d="M28 97.84c.09.33.14.73.12 1.24-.13 3.05 2.03 4.11 4.74 4.59 2.75.48 6.28.48 5.63 4.16-.29 1.58-1.25 2.62.17 3.86 2.13 1.87 6.75 2.33 9.33 1.22 1.59-.69 3.75-1.18 2.38 1.33-.79 1.45-2.07 2.69-3.08 4.01-1.11 1.44-2.38 2.53-3.85 3.59-1.08.79-1.9 1.79-3.1 2.42-3.06 1.57-6.68 1.59-10.01 2.07-4.46.64-8.92 2.39-13.21.33-4.54-2.18-9.85-2.55-14.28-4.93-2.18-1.17-3.38-2.84-2.59-5.27.68-2.09 2.3-2.63 4.33-2.72 2.29-.1 4.2-.38 5.61-2.4 1.21-1.72 1.08-4.55 1.3-6.54.29-2.72.5-5.63 1.65-8.15.96-2.08 1.99-4.15 3.29-6.05.61-.89 1.28-1.99 2.13-2.67 1.32-1.06 2.76-1.4 4.35-1.8.26 1.28-1.07 2.99-1.45 4.17-.65 2.02-.98 4.25.98 5.46 1.89 1.16 4.93-.18 5.56 2.08z" clip-path="url(#aadb)"/><path fill="#196ca2" d="M64.07 56.13c8.55-6.93 21.61-22.09 29.56-29.73 4.88-4.68 9.5-9.72 14.13-14.6 2.93-3.09 7.35-8.65 12.25-7.69.85.17 1.56.66 2.16 1.27 1.33 1.35.86 3.93.08 5.46-3.12 6.11-7.95 11.64-12.13 17.06-1.6 2.08-3.2 4.14-4.87 6.17-4.86 5.94-15.97 18.07-20.57 24.22-1.79 2.4-3.51 4.84-5.13 7.35-1.01 1.55-2.36 2.79-3.11 4.48-.76 1.72-3.96-4.07-4.13-4.51-.65-1.71-1.36-2.67-2.92-3.52-1.12-.6-7.35-2.63-6.48-4.57.22-.52.65-.98 1.16-1.39z"/><defs><path id="aadc" d="M75.68 68.17C74.47 65.6 72.83 63.61 71 62c-.47-.42-.94-.82-1.36-1.24-2.84-2.79-5.53-3.82-7.95-3.14-3.63 1.02-4.71 2.61-7.22 5.68-.68.84-1.31 1.61-1.88 2.23-4.58 4.97-4.74 4.6-11.61 7.66l-.58.24c-1.55.65-3.67 1.54-4.21 3.73-.23.94-.21 2.4 1.19 4.07 1.53 1.83 3.34 3.1 5.08 4.33.63.44 1.25.88 1.86 1.35 1.99 1.53 3.72 3.41 5.55 5.39l1.08 1.17c.29.3.55.68.85 1.06.82 1.09 1.83 2.45 3.33 3.17.52.25.97.4 1.41.48 1.7.3 2.75-.6 3.3-1.09l.23-.19c2.21-1.83 3.94-5.39 4.92-7.9.62-1.6.57-2 1-3 1.15-2.63 2.99-4.61 4-6 2-2.75 2.81-3.78 3.58-4.48 2.28-2.1 3.43-4.52 2.11-7.35z"/></defs><use fill="#c7e4ea" overflow="visible" xlink:href="#aadc"/><clipPath id="aadd"><use overflow="visible" xlink:href="#aadc"/></clipPath><path fill="#78a3ad" d="M63.99 98.16c-.9-.16-1.71-.75-2.12-1.65-.49-1.11-.72-2.15-.93-3.09-.19-.84-.34-1.57-.67-2.18-2.98-5.64-7.05-9.9-14.03-14.7-2.09-1.44-4.06-2.32-5.82-2.63a2.862 2.862 0 0 1-2.33-3.32c.27-1.56 1.76-2.6 3.33-2.33 2.57.45 5.29 1.65 8.07 3.55 5.44 3.74 11.59 8.66 15.87 16.76.68 1.3.96 2.54 1.19 3.63.17.75.31 1.4.57 1.97.65 1.44 0 3.14-1.44 3.79-.57.24-1.14.3-1.69.2z" clip-path="url(#aadd)"/></svg><svg viewBox="0 0 128 128" id="1F58D" xmlns="http://www.w3.org/2000/svg"><path fill="#e5502e" d="M34.846 115.713 13.824 94.691l90.87-90.87 21.022 21.023z"/><path fill="#c63720" d="M125.52 25.26c-1.81 1.81-7.01-5.5-11.53-10.02s-11.49-9.17-9.68-10.98c1.81-1.81 10.56-2.23 16.97 4.19 5.5 5.5 6.05 15 4.24 16.81z"/><path fill="#e5502e" d="M125.52 25.26c-2.34 2.34-9.73-.11-15.58-5.97S101.96 6.6 104.3 4.26c2.34-2.34 8.99.45 14.85 6.31s8.71 12.35 6.37 14.69z"/><ellipse cx="24.24" cy="105.11" fill="#c63720" rx="6" ry="15" transform="rotate(-45.001 24.237 105.11)"/><path fill="#2f2f2f" d="M20.18 88.33c2.34-2.34 8.99.51 14.85 6.36 5.86 5.86 8.52 12.32 6.18 14.66l6.88-6.88-.29-.29c.93-2.93-1.32-8.64-6.43-13.76-5.11-5.11-11.41-7.93-14.33-7.01l-6.86 6.92zM91.6 16.91c2.3-2.3 8.8.32 14.66 6.18 5.86 5.86 8.71 12.51 6.36 14.85l6.88-6.88-.29-.29c.93-2.93-1.89-8.64-7.01-13.76-5.11-5.11-10.83-7.93-13.76-7.01l-6.84 6.91z"/><path fill="#e5502e" d="M30.6 114.99c-1.81 1.81-6.94-.25-11.47-4.78s-6.61-9.66-4.8-11.47c1.81-1.81 6.83.39 11.36 4.92 4.52 4.53 6.72 9.52 4.91 11.33z"/><path fill="#e5502e" d="m9.53 125.81 21.38-11.14-16.25-16.26-11.13 21.4z"/><ellipse cx="6.6" cy="122.75" fill="#c63720" rx="1.79" ry="4.47" transform="rotate(-45.001 6.6 122.746)"/><defs><path id="aaea" d="M4.58 45.2h129v30h-129z" transform="rotate(-45.001 69.08 60.204)"/></defs><clipPath id="aaeb"><use overflow="visible" xlink:href="#aaea"/></clipPath><ellipse cx="81.76" cy="68.99" fill="#2f2f2f" clip-path="url(#aaeb)" rx="30.7" ry="7.15" transform="rotate(-44.928 81.758 68.988)"/></svg><svg viewBox="0 0 128 128" id="270F" xmlns="http://www.w3.org/2000/svg"><defs><path id="aafa" d="M17.73 68.85.63 121.91s-.54 2.54.92 3.44 2.9.17 2.9.17l53.71-20.37-11.01-30.07-29.42-6.23z"/></defs><use fill="#fcd4b5" overflow="visible" xlink:href="#aafa"/><clipPath id="aafb"><use overflow="visible" xlink:href="#aafa"/></clipPath><path fill="#006ca2" d="M4.31 106.58c-1.51 4.82-2.99 9.64-4.05 13.28-.32 1.1-.6 2.08-.84 2.93-.48 1.73-.32 3.76.15 4.19.78.71 1.6 1.01 2.45.9l.19-.04c1.76-.36 8.76-3.08 16.75-6.38-2.81-6.25-8.99-12.32-14.65-14.88z" clip-path="url(#aafb)"/><path fill="#bdcf46" d="M119.69 36.9c-.04-.39-.08-.77-.11-1.14-.07-1.15-.2-2.26-.32-3.37-.13-1.15-.26-2.29-.33-3.45l-.02-.33c0-.07-.01-.13-.01-.2L56.17 85.92c.32 1.38.4 4.12.48 6.8.06 1.96.11 3.82.26 4.91.03.11.4.08 1.26-.77 6.62-6.48 42.61-39.02 54.43-49.71l3.72-3.35c1.48-1.31 3.31-2.93 3.48-4.74.06-.67-.03-1.42-.11-2.16zM95.23 10.39c.64-.04 1.28-.11 1.92-.19.6-.07 1.16-.12 1.72-.16L36.94 68.12c-.2-.07-.39-.14-.6-.19-1.36-.32-2.79-.4-4.17-.47-1.25-.06-2.43-.12-3.57-.35.18-.21.53-.54 1.21-1.01 1.17-.83 5.78-5.19 10.25-9.42 2.21-2.08 4.34-4.1 5.9-5.54l6.26-5.78c10.11-9.36 25.4-23.5 31.61-28.95.56-.49 1.1-.99 1.63-1.48 1.37-1.27 2.66-2.46 4.23-3.5.61-.4 1.15-.49 1.91-.62l.39-.07c1.1-.21 2.21-.29 3.24-.35zM40.01 81c-.3-2.53-.56-7.37-.42-8.86.04-.42 0-.83-.08-1.21l63.66-59.71c.04.03.08.05.12.09 3.19 2.94 11.62 10.92 13.92 13.49L53.18 83.5c-2.04-.49-4.28-.85-6.84-1.09-.26-.03-.65-.04-1.13-.06-1.21-.05-3.04-.13-4.19-.46-.9-.26-1-.89-1.01-.89z"/><path fill="#757f3f" d="M127.42 32.53c-.11-2.6-.4-5.28-.86-7.96l-.1-.66c-.17-1.13-.36-2.42-1.06-3.3-2.2-2.76-5.23-5.56-8.18-8.17-1-.88-1.99-1.82-2.97-2.75-2.13-2.01-4.33-4.09-6.71-5.72-1.74-1.18-3.98-1.76-6.88-1.76-2.38 0-4.9.39-7.13.74-1.13.17-2.2.34-3.19.45-1.61.17-3.22.86-4.92 2.11-.42.29-20.13 18.35-49.59 45.36-5.54 5.09-16.77 14.16-17.81 16.65-.37.87-.43 1.79-.03 2.74 1.93 4.53 9.11 2.93 12.97 3.54.46.07 1.54.13 1.8.61.57 1 1.11 9.53 1.68 11.29 1.23 3.74 6.07 3.17 9.2 3.28 1.19.04 5.48.13 6.72 1.13.43.34.4 1.45.44 1.93.11 1.3.12 2.61.11 3.91 0 1.41-.04 2.82-.04 4.24 0 .9.17 2.27.59 3.08.63 1.24 1.94 2.04 3.22 2.36 4.04 1.03 6.46-2.27 9.1-4.59l.9-.79c1.32-1.17 2.62-2.33 3.98-3.47 10.14-8.58 31.38-28.11 44.07-39.77l4.15-3.82c1.85-1.69 3.68-3.39 5.49-5.12.3-.29.64-.58.98-.88 1.42-1.25 3.03-2.66 3.42-4.57.59-2.95.81-6.35.65-10.09zm-91.09 35.4c-1.36-.32-2.79-.4-4.17-.47-1.25-.06-2.43-.12-3.57-.35.18-.21 7-6.2 11.46-10.43 2.21-2.08 4.34-4.1 5.9-5.54l6.26-5.78c10.11-9.36 25.4-23.5 31.61-28.95.56-.49 1.1-.99 1.63-1.48 1.37-1.27 2.66-2.46 4.23-3.5.61-.4 1.15-.49 1.91-.62l.39-.07c1.1-.2 2.21-.29 3.25-.35.64-.04 1.28-.11 1.92-.19.6-.07 1.16-.12 1.72-.16L36.94 68.12c-.2-.07-.39-.14-.61-.19zm10.02 14.48c-.26-.03-.65-.04-1.13-.06-1.21-.05-3.04-.13-4.19-.46-.91-.26-1.01-.89-1.02-.89-.3-2.53-.56-7.37-.42-8.86.04-.42 0-.83-.08-1.21l63.66-59.71c.04.03.08.05.12.09 3.19 2.94 11.62 10.92 13.92 13.49L53.18 83.5c-2.04-.5-4.28-.85-6.83-1.09zm73.45-43.35c-.17 1.8-2 3.43-3.48 4.74l-3.72 3.35c-11.83 10.69-47.81 43.23-54.43 49.71-.86.85-1.22.88-1.26.77-.14-1.08-.2-2.94-.26-4.91-.08-2.67-.16-5.42-.48-6.8l62.74-57.51c0 .06.01.13.01.2l.02.33c.07 1.17.2 2.3.33 3.45.12 1.11.25 2.22.32 3.37.03.37.06.76.11 1.14.07.74.16 1.49.1 2.16z"/></svg><svg viewBox="0 0 128 128" id="2712" xmlns="http://www.w3.org/2000/svg"><path fill="#fcc21b" d="M3.3 113.79c-.46 4.09-2.06 11.56-2.07 11.63-.2.93.73 1.86 1.66 1.66.07-.01 7.54-1.61 11.63-2.07 7.32-.83 21.08-4.28 26.24-11.96 3.73-5.56 4.17-8.83 4.52-11.45.29-2.23.5-3.84 2.64-6.42.46-.55.43-1.37-.08-1.88L35.02 80.47c-.51-.51-1.32-.55-1.88-.09-2.58 2.14-4.19 2.36-6.42 2.65-2.63.34-5.9.78-11.45 4.52C7.59 92.7 4.14 106.47 3.3 113.79z"/><g fill="#2f2f2f"><path d="m33.59 86.21 8.51 8.52c-1.34 2.4-1.6 4.4-1.84 6.21-.31 2.31-.63 4.71-3.7 9.29-3.84 5.7-15.62 8.96-22.6 9.75-1.9.21-4.42.65-6.69 1.08.43-2.27.86-4.79 1.07-6.68.8-6.99 4.05-18.79 9.75-22.62 4.58-3.08 6.97-3.4 9.29-3.7 1.82-.25 3.82-.52 6.21-1.85m.44-6.15c-.32 0-.64.11-.9.32-2.58 2.14-4.19 2.36-6.42 2.65-2.63.34-5.9.78-11.45 4.52C7.59 92.7 4.14 106.47 3.3 113.79c-.46 4.09-2.06 11.56-2.07 11.63-.18.84.57 1.69 1.41 1.69.09 0 .17-.01.25-.03.07-.01 7.54-1.61 11.63-2.07 7.32-.83 21.08-4.28 26.24-11.96 3.73-5.56 4.17-8.83 4.52-11.45.29-2.23.5-3.84 2.64-6.42.46-.55.43-1.37-.08-1.88L35.02 80.47c-.27-.27-.63-.41-.99-.41z"/><path d="M20.5 100.34a5.308 5.308 0 0 1 7.48-.01 5.281 5.281 0 0 1 0 7.48c-2.06 2.06-5.41 2.06-7.48 0a5.287 5.287 0 0 1 0-7.47z"/><path d="M20.66 105.01 1.5 124.17c-.16.76-.26 1.24-.26 1.26-.2.93.73 1.86 1.66 1.66.01 0 .49-.1 1.26-.26l19.16-19.17-2.66-2.65z"/></g><path fill="#2f2f2f" d="m60.32 44.13 23.96 23.66-32.46 33.49s-8.56-4.02-15.53-10.81c-6.97-6.79-8.77-13.49-8.77-13.49l32.8-32.85z"/><defs><path id="aaga" d="M65 63.36c7.43 7.34 14.65 12.07 16.12 10.58l28.34-28.71c12.36-12.52 23.55-30.36 13.34-40.44-10.21-10.07-27.66 1.1-40.26 13.87L54.2 47.38c-1.47 1.49 3.37 8.65 10.8 15.98z"/></defs><use fill="#2f2f2f" overflow="visible" xlink:href="#aaga"/><clipPath id="aagb"><use overflow="visible" xlink:href="#aaga"/></clipPath><g clip-path="url(#aagb)"><defs><path id="aagc" d="m84.11 59.87 32.84-33.28c3.83 2.82 6.79 4.19 7.67 3.29l4.41-4.48c-1.02 1.03-4.82-.95-9.53-4.7l-2.62-2.19a99.558 99.558 0 0 1-3.97-3.69C105.48 7.48 100.64.32 102.1-1.17L97.7 3.3c-1.46 1.48 3.38 8.64 10.8 15.97.55.54 1.1 1.07 1.64 1.58L77.31 54.14c-.55-.52-1.1-1.04-1.65-1.58-7.43-7.33-12.28-14.5-10.8-15.98l-4.41 4.47c-1.48 1.5 3.37 8.65 10.79 15.98.55.54 1.1 1.08 1.65 1.58l-5.62 5.69 6.82 5.71 5.6-5.68c3.83 2.81 6.79 4.17 7.67 3.28l4.42-4.47c-.87.9-3.84-.46-7.67-3.27z"/></defs><use fill="#fcc21b" overflow="visible" xlink:href="#aagc"/></g></svg></svg>