<svg xmlns="http://www.w3.org/2000/svg" viewBox="0 0 36 36"><path fill="#99AAB5" d="M34.763 29.713l-5.621-23.2c-.873-3.606-4.515-5.832-8.124-4.956-.34.082-.665.196-.982.326A4.773 4.773 0 0017.765.487a4.823 4.823 0 00-5.921 3.374l-5.05 18.418a2.885 2.885 0 00.278 2.209 2.884 2.884 0 001.759 1.365 2.888 2.888 0 002.21-.278 2.893 2.893 0 001.366-1.759l3.029-11.051a1 1 0 00-1.929-.529l-3.029 11.05a.906.906 0 01-1.118.637.904.904 0 01-.637-1.114L13.771 4.39a2.826 2.826 0 013.464-1.974 2.81 2.81 0 011.033.537 6.704 6.704 0 00-1.412 1.641 6.685 6.685 0 00-.795 5.088l.988 4.077-4.151 15.144a4.698 4.698 0 01-2.22 2.859 4.692 4.692 0 01-3.592.451 4.695 4.695 0 01-2.859-2.219 4.7 4.7 0 01-.452-3.591l4.291-15.656a1 1 0 00-1.929-.529L1.849 25.874a6.682 6.682 0 00.643 5.109 6.686 6.686 0 004.068 3.159 6.684 6.684 0 005.111-.644 6.684 6.684 0 003.159-4.067l3.195-11.656 1.862 7.683a1 1 0 101.943-.47l-2.713-11.196L21.14 6.41a4.789 4.789 0 00-.066-2.764c.139-.048.271-.11.416-.145a4.732 4.732 0 015.71 3.483l5.621 23.2a2.822 2.822 0 01-4.209 3.071 2.802 2.802 0 01-1.271-1.743l-4.497-18.56v-.001a.896.896 0 01.107-.687.911.911 0 011.661.259L27.31 23.66a1 1 0 101.943-.47l-2.698-11.137a2.914 2.914 0 00-3.513-2.143 2.893 2.893 0 00-1.8 1.312 2.895 2.895 0 00-.343 2.201v.001l4.497 18.559a4.779 4.779 0 002.174 2.979 4.789 4.789 0 003.645.569 4.824 4.824 0 003.548-5.818zM18.564 5.634c.201-.331.449-.619.717-.885.052.374.031.757-.072 1.132l-1.067 3.893-.137-.563a4.702 4.702 0 01.559-3.577z"/><path fill="#66757F" d="M18.142 9.774l.973 4.017.324-1.194-.946-4.101zm-1.445 5.261l.968 4.031.358-1.291-.973-4.016zm4.376-11.39s.304-.126.538-.173c0 0-.25-1.016-1.023-1.797l-.552.208c-.001.001.732.762 1.037 1.762zm-2.189 1.538s.266-.328.397-.434c0 0-.091-1.086-1.012-1.797l-.416.388c.844.554 1.031 1.843 1.031 1.843z"/></svg>