<svg xmlns="http://www.w3.org/2000/svg" viewBox="0 0 36 36"><path fill="#FFCC4D" d="M36 18c0 9.941-8.059 18-18 18-9.94 0-18-8.059-18-18C0 8.06 8.06 0 18 0c9.941 0 18 8.06 18 18"/><path fill="#664500" d="M6 13a1 1 0 01-.004-2c.156-.002 3.569-.086 6.205-3.6a1 1 0 011.6 1.2C10.538 12.95 6.184 13 6 13zm24 0c-.184 0-4.537-.05-7.8-4.4a1 1 0 111.599-1.2c2.641 3.521 6.061 3.599 6.206 3.6.55.006.994.456.991 1.005A.996.996 0 0130 13zm.6 7.2c-.114-.086-1.931-1.426-4.646-2.344.026-.115.046-.233.046-.356 0-.369-.139-.703-.359-.964A13.866 13.866 0 0129.002 16 1 1 0 0029 14c-.221 0-5.451.038-8.707 3.293A1 1 0 0021 19c4.59 0 8.363 2.772 8.401 2.801a1.003 1.003 0 001.4-.202A1 1 0 0030.6 20.2zm-14.893-2.907C12.452 14.038 7.221 14 7 14a1.001 1.001 0 00-.001 2c.026 0 1.558.016 3.361.536-.221.261-.36.595-.36.964 0 .123.019.241.047.356-2.716.918-4.533 2.258-4.647 2.344a.999.999 0 101.2 1.6c.037-.028 3.787-2.8 8.4-2.8a1 1 0 00.707-1.707zM18 30a1 1 0 01-.781-.375l-3.194-3.992L11.8 28.6a.998.998 0 01-1.507.107l-1-1a.999.999 0 111.414-1.414l.185.185L13.2 23.4a.996.996 0 011.58-.025L18 27.399l3.219-4.024c.193-.241.484-.375.797-.375.31.005.599.152.784.4l2.309 3.077.185-.185a.999.999 0 111.414 1.414l-1 1a.975.975 0 01-.778.29 1 1 0 01-.729-.397l-2.226-2.967-3.193 3.992A1.002 1.002 0 0118 30z"/></svg>