<svg xmlns="http://www.w3.org/2000/svg" viewBox="0 0 36 36"><path fill="#939598" d="M0 34h36v2H0z"/><path fill="#58595B" d="M10 32a3 3 0 10-6 0 3 3 0 006 0z"/><path fill="#292F33" d="M9 32a2 2 0 10-4 0 2 2 0 004 0z"/><circle cx="29" cy="32" r="3" fill="#58595B"/><circle cx="29" cy="32" r="2" fill="#292F33"/><path fill="#E6E7E8" d="M34 2H2a1 1 0 010-2h32a1 1 0 110 2z"/><path fill="#66757F" d="M22.998 4.944a1.002 1.002 0 00-.373-.726l-3.683-2.945a.98.98 0 00-.162-.898.988.988 0 00-1.281-.221.987.987 0 00-1.281.221.979.979 0 00-.162.898l-3.682 2.945a1.001 1.001 0 00-.083 1.488l3.835 3.834A.987.987 0 0017 11a.991.991 0 00.5-.155c.156.091.324.155.5.155a.987.987 0 00.872-1.458l3.835-3.835a.998.998 0 00.291-.763zM17.5 8.085l-3.003-3.003L17.5 2.68l3.003 2.403L17.5 8.085z"/><path fill="#BCBEC0" d="M30 10a2 2 0 01-2 2H8a2 2 0 010-4h20a2 2 0 012 2z"/><path fill="#E6E7E8" d="M36 22a4 4 0 01-4 4H4a4 4 0 01-4-4v-8a4 4 0 014-4h28a4 4 0 014 4v8zM0 28h36v4H0z"/><path fill="#BE1931" d="M0 14h36v14H0z"/><path fill="#DD2E44" d="M36 14H0v10h6v6h7v-6h10v6h7v-6h6z"/><path fill="#55ACEE" d="M2 16H0v10h2a2 2 0 002-2v-6a2 2 0 00-2-2zm34 0h-2a2 2 0 00-2 2v6a2 2 0 002 2h2V16zm-15 6a1 1 0 01-1 1h-4a1 1 0 01-1-1v-4a1 1 0 011-1h4a1 1 0 011 1v4zm-9 1a1 1 0 01-1 1H8a1 1 0 01-1-1v-5a1 1 0 011-1h3a1 1 0 011 1v5zm17 0a1 1 0 01-1 1h-3a1 1 0 01-1-1v-5a1 1 0 011-1h3a1 1 0 011 1v5z"/><path fill="#A0041E" d="M0 28h36v2H0z"/></svg>