<svg xmlns="http://www.w3.org/2000/svg" viewBox="0 0 36 36"><path fill="#FFCB4C" d="M30.728 5.272c7.029 7.029 7.029 18.427 0 25.456s-18.426 7.029-25.456 0c-7.029-7.029-7.029-18.427 0-25.456s18.426-7.029 25.456 0"/><path fill="#65471B" d="M19.279 19.28c-3.494 3.494-6.219 5.404-9.645 7.713-.781.529-1.928 1.929.001 3.859 3.857 3.857 13.111 4.247 19.287-1.929 6.177-6.177 5.788-15.43 1.929-19.288-1.929-1.93-3.33-.782-3.858-.001-2.308 3.425-4.219 6.151-7.714 9.646z"/><path fill="#FFF" d="M11.564 28.923s3.858-1.929 9.644-7.716c5.787-5.786 7.715-9.643 7.715-9.643s1.928 5.787-4.822 12.537c-6.75 6.751-12.537 4.822-12.537 4.822z"/><path fill="#65471B" d="M24.299 6.655c-.141.02-2.373.357-4.943 1.628a1.524 1.524 0 00-.219-.285 1.484 1.484 0 00-.936-.427 13.806 13.806 0 011.998-2.756 1 1 0 00-1.415-1.413c-.156.156-3.828 3.881-3.828 8.485a.999.999 0 001.707.707c3.245-3.245 7.874-3.953 7.921-3.96a1.002 1.002 0 00.847-1.132 1.001 1.001 0 00-1.132-.847zM11.712 15.13c-4.604 0-8.329 3.672-8.485 3.828a1 1 0 001.414 1.415 13.825 13.825 0 012.756-1.997c.029.341.166.675.427.936.087.087.184.157.285.219C6.837 22.1 6.5 24.333 6.48 24.474a1 1 0 001.979.283c.007-.046.698-4.657 3.96-7.919a1.002 1.002 0 00-.707-1.708z"/><path fill="#64AADD" d="M30.101 12.055a4.999 4.999 0 005.567-4.36 5 5 0 00-4.359-5.568C28.568 1.794 20.9 4.89 20.779 5.883c-.121.992 6.581 5.837 9.322 6.172zM12.157 29.999a4.999 4.999 0 01-4.36 5.567 5 5 0 01-5.568-4.359c-.334-2.742 2.763-10.41 3.756-10.531.992-.12 5.837 6.582 6.172 9.323z"/></svg>