<svg xmlns="http://www.w3.org/2000/svg" viewBox="0 0 36 36"><path fill="#FFCB4C" d="M35 17c0 9.389-7.611 17-17 17-9.388 0-17-7.611-17-17C1 7.612 8.612 0 18 0c9.389 0 17 7.612 17 17"/><path fill="#65471B" d="M18 27.136c3.335 0 5.547.388 8.284.92.625.12 1.841 0 1.841-1.841 0-3.682-4.23-8.284-10.125-8.284S7.875 22.533 7.875 26.215c0 1.841 1.216 1.962 1.841 1.841 2.736-.532 4.949-.92 8.284-.92zm11.9-9.947c-.108-.081-1.823-1.347-4.388-2.214.026-.108.044-.22.044-.336 0-.349-.131-.664-.339-.91a13.044 13.044 0 013.175-.506.945.945 0 00-.002-1.889c-.208 0-5.148.036-8.223 3.11a.945.945 0 00.667 1.612c4.335 0 7.899 2.618 7.935 2.645a.945.945 0 001.131-1.512zm-14.066-2.746c-3.074-3.075-8.014-3.11-8.223-3.11a.944.944 0 00-.002 1.889c.025 0 1.472.015 3.174.506a1.408 1.408 0 00-.339.91c0 .116.018.228.044.336-2.565.867-4.281 2.133-4.389 2.214a.944.944 0 001.133 1.511c.035-.026 3.576-2.644 7.933-2.644.382 0 .726-.23.872-.583a.939.939 0 00-.203-1.029z"/><path fill="#77AF57" d="M25.712 32.287v-7.101c0-2.593-3.889-5.185-7.778-5.185s-7.778 2.593-7.778 5.185v7.101c-4.403.349-7.359.985-7.359 1.713 0 1.105 6.777 2 15.137 2s15.137-.895 15.137-2c0-.728-2.956-1.364-7.359-1.713z"/><circle cx="15.875" cy="23.228" r="1.235" fill="#5D8F3F"/><circle cx="20.698" cy="25.64" r="1.235" fill="#5D8F3F"/><circle cx="21.232" cy="30.515" r="1.235" fill="#5D8F3F" transform="rotate(-80.781 21.232 30.514)"/><circle cx="15.107" cy="32.548" r="1.765" fill="#5D8F3F" transform="rotate(-80.781 15.107 32.548)"/></svg>