<svg xmlns="http://www.w3.org/2000/svg" viewBox="0 0 36 36"><path fill="#9266CC" d="M36 32a4 4 0 01-4 4H4a4 4 0 01-4-4V4a4 4 0 014-4h28a4 4 0 014 4v28z"/><path fill="#FFF" d="M32 17h-1.051a12.929 12.929 0 00-3.088-7.447l1.159-1.159a.999.999 0 10-1.414-1.414l-1.159 1.159A12.926 12.926 0 0019 5.051V4a1 1 0 10-2 0v1.051a12.932 12.932 0 00-7.448 3.088L8.487 7.073a.999.999 0 10-1.414 1.414l1.066 1.066A12.922 12.922 0 005.051 17H4a1 1 0 100 2h1.051a12.926 12.926 0 003.088 7.447L6.98 27.606a.999.999 0 101.414 1.414l1.159-1.159A12.929 12.929 0 0017 30.949V32a1 1 0 102 0v-1.051a12.931 12.931 0 007.447-3.088l1.066 1.066a.997.997 0 001.414 0 .999.999 0 000-1.414l-1.066-1.066a12.932 12.932 0 003.088-7.448H32A1 1 0 1032 17zm-5.552-6.033A10.943 10.943 0 0128.949 17h-6.04a4.96 4.96 0 00-.707-1.788l4.246-4.245zM19 7.051a10.954 10.954 0 016.034 2.501l-4.22 4.22A4.964 4.964 0 0019 13.001v-5.95zM21 17.9c0 1.654-1.346 3-3 3s-3-1.346-3-3 1.346-3 3-3 3 1.346 3 3zM17 7.051v5.95a4.964 4.964 0 00-1.814.771l-4.22-4.22A10.95 10.95 0 0117 7.051zm-7.448 3.916l4.246 4.246a4.96 4.96 0 00-.707 1.788h-6.04a10.94 10.94 0 012.501-6.034zm0 14.067A10.946 10.946 0 017.051 19h6.08a4.99 4.99 0 00.741 1.714l-4.32 4.32zM17 28.949a10.954 10.954 0 01-6.034-2.501l4.345-4.345a4.96 4.96 0 001.688.697v6.149zm2 0v-6.15a4.96 4.96 0 001.688-.697l4.345 4.346A10.94 10.94 0 0119 28.949zm7.447-3.915l-4.32-4.32a4.95 4.95 0 00.741-1.715h6.08a10.936 10.936 0 01-2.501 6.035z"/></svg>