<svg xmlns="http://www.w3.org/2000/svg" xmlns:xlink="http://www.w3.org/1999/xlink" viewBox="0 0 1200 600"><path fill="#171796" d="M0 0h1200v600H0z"/><path fill="#fff" d="M0 0h1200v400H0z"/><path fill="red" d="M0 0h1200v200H0z"/><path fill="red" d="M599.628 454.875c64.108 0 116.556-52.451 116.556-116.556V199.818H483.069v138.501c0 64.108 52.451 116.556 116.556 116.556z"/><path fill="#fff" d="M599.628 453.007c62.885 0 114.333-51.45 114.333-114.333V202.061H485.292v136.613c0 62.886 51.45 114.333 114.336 114.333z"/><g fill="red"><path d="M533.552 206.36h-44v48.342h44zm0 96.682h44v-48.34h-44zm-44 35.363c0 4.39.272 8.72.778 12.98h43.222v-48.343h-44v35.363zm132.004-35.363h-44.004v48.343h44.004zm0 96.682h44v-48.34h-44zm44 26.445a111.412 111.412 0 0 0 25.122-26.442h-25.122v26.442zm-132.001-26.445h44v-48.34h-44zm-25.163 0a111.384 111.384 0 0 0 25.163 26.475v-26.475h-25.163zm98.825 48.343c4.87-.34 9.656-.997 14.336-1.957v-46.386h-44v46.392c4.664.956 9.439 1.61 14.293 1.948 5.124.317 10.248.299 15.368 0z"/><path d="M708.734 351.385c.509-4.275.781-8.62.781-13.024v-35.316h-43.962v48.343h43.18zm-87.178-48.343h44v-48.34h-44zm0-96.683h-44v48.343h44zm87.959 48.343V206.36h-43.959v48.343z"/></g><path fill="#fff" d="m711.978 198.4 27.282-61.843-20.785-33.564-34.437 12.749-24.177-27.638-31.859 18.258-28.407-23.266-28.407 23.266-31.858-18.258-24.18 27.635-34.437-12.749-20.791 33.573 27.247 61.855c34.333-15.54 72.401-24.198 112.43-24.198 40.01 0 78.06 8.652 112.385 24.18z"/><path fill="#0093dd" d="m174293 40024-17 20-11537-4272-6456 10424 2473 5623 6265 14222c4678-2068 9555-3764 14594-5048l-5321-20968z" transform="scale(.00296)"/><path fill="#fff" stroke="#000" stroke-width="118.163" d="M173629 50332c413 783 647 1674 647 2617 0 3106-2533 5639-5639 5639-2737 0-5029-1968-5535-4561 974 1722 2823 2888 4935 2888 3121 0 5667-2545 5667-5667 0-312-26-618-75-917z" transform="scale(.00296)"/><path d="m168461 42530-19 93-393 2024 1553 1357 71 62-90 31-1949 672-399 2023-19 93-71-63-1556-1352-1951 666-91 31 19-94 393-2023-1552-1357-72-63 90-31 1949-671 399-2023 19-93 71 62 1556 1353 1951-666z" transform="scale(.00296)"/><path fill="#f7db17" d="m166119 45404 1455 1269 1821-627zm12-64 3277 641-1450-1268zm-3518-689 3276 641-1455-1268zm3264 706-3277-641 1450 1267zm183-123 2194-2517-1823 622zm-2356 2703 2194-2517-1826 626zm2244-2474-2194 2517 1823-622zm2356-2703-2194 2517 1826-626zm-2371 2482-1083-3158-373 1890zm1163 3392-1083-3158-371 1894zm-1021-3180 1083 3159 373-1890zm-1163-3392 1083 3159 371-1895z" transform="scale(.00296)"/><path fill="#171796" d="m571.484 109.183-.059.047-31.592-18.103-23.926 27.344 15.75 62.065A274.537 274.537 0 0 1 576.774 173l-5.293-63.817z"/><path fill="red" d="M527.75 165.132a290.116 290.116 0 0 1 47.712-7.968l-1.337-16.132a306.725 306.725 0 0 0-50.359 8.41l3.981 15.69zm-7.918-31.192a322.225 322.225 0 0 1 52.97-8.847l-1.315-15.836a338.17 338.17 0 0 0-55.565 9.28l3.91 15.403z"/><g transform="scale(.00296)"><path fill="#0093dd" d="m212105 36890-23 13-9517-7794-9497 7778 1788 21560c2543-210 5113-322 7709-322 2608 0 5190 113 7744 325l1795-21560z"/><g id="a"><path d="M202545 46585c-18-2-44 10-69 45-186 250-359 469-545 720-195 61-242 180-167 348-261-26-291 193-302 432-250-379-522-482-814-307-11-230-187-338-439-392-180-10-319-65-436-145-60-42-110-64-170-106-126-88-226-5-172 74 267 434 535 868 802 1302-14 80 6 151 88 204 47 133 93 265 140 397-11 38-21 75-32 113-221-105-443-118-664-133-170-8-287-50-361-137-54-63-91-26-92 82-3 534 162 1014 599 1492-231 4-462 11-694 21-79 6-95 39-73 104 126 304 339 579 822 766-208 112-327 285-357 520-9 224-75 382-212 455-60 32-81 65-24 106 253 185 565 193 895 112-157 270-226 553-198 850 208 56 412 15 614-52-29 61-44 175-52 309-7 115-41 229-104 343-32 33-65 84 4 102 336 91 648 52 915-47 0 243 2 487 76 727 18 58 70 102 125 26 155-214 322-396 527-517 31 90 75 168 156 215 96 55 147 170 153 343 0 30-2 60 35 90 149 7 514-380 589-597 206 121 284 246 439 461 55 76 99 29 128-25 62-243 67-481 66-724 267 99 579 138 915 47 69-19 36-70 4-102-62-114-105-250-113-365-9-133-14-226-43-287 202 68 405 108 614 52 29-297-53-579-211-850 330 80 655 73 908-112 57-41 35-74-24-106-136-73-203-231-212-455-30-235-149-409-357-520 483-187 696-463 822-766 22-66 6-99-73-104-231-10-480-24-711-27 437-478 606-961 604-1495-1-108-38-146-92-82-74 87-179 137-348 146-222 15-435 24-656 128-11-38-21-75-32-113 46-132 106-260 153-393 82-53 102-123 88-204 267-434 513-868 781-1302 54-79-46-162-171-74-60 42-110 64-170 106-117 80-257 134-437 145-251 54-417 167-428 397-293-175-564-73-814 307-11-239-41-457-302-432 75-168 17-291-178-352-186-250-458-470-644-720-31-35-51-47-69-45z"/><g fill="#f7db17"><path d="M205075 47978c-51-26-124 17-162 95s-33 170 19 196c40 20 84-6 119-56l22-36c2-3 4-6 5-9 38-78 49-163-2-188zm-5008 0c52-26 124 17 162 95s39 165-13 191-103-24-141-102-60-158-9-184zm4539 905c-32 0-59 27-59 59s26 59 59 59 59-26 59-59c0-32-26-59-59-59zm-4032 0c-32 0-59 26-59 59 0 32 26 59 59 59s59-26 59-59-26-59-59-59zm4294-304c-754-91-1506-133-2260-133s-1509 41-2269 115c-26 8-21 90 14 86 756-73 1507-113 2256-113 743 0 1485 40 2228 129 39 4 54-80 32-84z"/><path d="M200319 48495c768-75 1530-117 2289-116 754 0 1507 42 2261 133l111-184c-32 10-62 9-90-5-76-38-92-161-36-274 56-114 164-175 240-138 39 19 62 62 68 114l446-739c-204 130-328 214-581 252-281 41-409 139-368 307 38 156-57 133-201 54-314-171-541 71-652 353-73 186-159 181-168-13-4-70 0-131-7-200-21-223-89-286-216-224-161 78-175 25-137-58 28-60 86-128 66-221-9-67-66-92-151-98-182-244-467-483-649-727-182 244-374 483-556 727-86 5-142 30-152 98-20 93 52 157 80 217 38 82 23 135-137 57-127-61-186-3-207 220-7 69-10 139-13 209-9 194-95 199-168 13-111-282-352-524-667-353-145 79-203 102-182-54 23-172-107-266-388-307-253-37-377-122-581-252l419 682c12-25 29-45 53-57 76-38 184 24 240 138 56 113 40 237-36 274-10 5-21 8-32 10l100 163zm4389 911c-7 3-7 4-24 11-46 19-80 66-134 124-57 60-128 125-211 188-12 10-25 19-44-6s-7-35 6-44c80-62 149-124 204-182 30-32 56-63 77-92-95-11-190-21-284-30-79 24-157 55-222 95-59 35-107 77-137 125-8 14-16 27-44 11-27-16-19-30-11-44 35-58 91-107 158-147 33-20 69-38 106-54-107-9-214-18-321-25-22 13-42 29-61 47-20 19-39 42-56 67-9 13-18 26-44 8s-18-31-8-44c19-29 41-54 64-77l9-9c-80-5-161-10-241-14-2 2-5 5-8 7-21 18-40 38-55 59s-28 43-38 67c-6 15-12 29-41 18-29-12-23-26-17-41 12-29 27-55 45-81 8-11 18-22 27-33-115-5-230-9-344-12-4 5-9 8-14 11-25 15-47 32-66 51s-35 40-48 63c-8 14-16 28-43 12-28-16-20-29-12-43 16-28 35-54 59-77 7-7 14-13 21-19-122-2-244-4-365-4-120 0-240 1-360 3 8 7 15 13 22 20 23 23 42 49 59 77 8 14 16 27-12 43s-35 2-44-12c-13-23-29-44-48-63s-41-36-66-51c-6-3-12-7-15-12-115 2-230 6-345 11 11 11 20 23 29 35 19 25 33 52 45 81 6 15 12 29-17 41s-35-3-41-18c-9-24-22-46-38-67-15-21-34-41-55-59-4-3-7-6-10-10-81 4-162 8-243 13 4 4 9 8 13 12 24 23 45 48 64 77 9 13 18 26-8 44s-35 5-44-8c-18-26-36-48-56-67s-41-35-64-49c-1-1-3-2-5-3-110 7-220 14-330 23 43 18 85 38 122 61 67 40 124 89 158 147 8 14 16 27-11 44-27 16-35 3-44-11-29-48-78-90-137-125-72-44-159-77-246-102h-2c-90 7-179 15-268 24 22 33 51 68 86 106 55 58 124 120 204 182 13 9 25 19 6 44s-32 15-44 6c-83-64-155-128-211-188-37-38-99-111-135-140-196-90-354-127-575-147-153-14-318-9-458-79 36 85 75 164 126 229 53 68 120 121 209 147 8 2 21 16 22 25 28 157 84 286 169 386 52 60 114 110 188 149-75-81-132-166-172-251-67-142-90-286-77-420 1-16 3-32 34-29 32 3 30 19 29 35-11 123 9 256 72 387 56 118 159 237 291 346 24 19 0 63-29 55-154-44-290-123-383-231-89-104-149-237-180-397-94-32-165-90-222-164-47-60-85-131-118-205 28 428 182 801 456 1137 61 75 165 182 255 216 92 35 95 100-20 101-34 1-69 1-105 1 84 31 164 66 233 105 127 73 217 162 224 273 1 16 2 32-29 34-32 2-33-14-34-29-6-86-82-160-192-223-113-65-259-117-402-160-154 0-312-1-459 3 39 28 80 57 131 84 82 44 188 86 343 122 89 21 166 52 233 91 71 42 130 93 177 150 10 12 20 25-5 45s-34 8-45-5c-42-52-95-98-159-135-61-36-133-64-216-84-161-38-272-81-358-128-75-40-131-82-184-123 180 393 450 573 835 689 23 7 43 13 61 19 3 1 6 1 9 2 86 21 175 40 266 55 92 15 166 28 261 37 16 1 32 3 29 34-3 32-19 30-34 29-99-9-174-22-266-38-58-10-115-21-171-33-26 6-64 9-107 12-232 14-420 225-435 494 0 5 0 11-1 16 88-80 179-157 273-212 117-68 239-103 364-69 15 4 31 8 22 39-8 31-23 27-39 22-106-28-212 3-316 63-108 63-213 158-315 253-24 147-82 285-205 377 61 34 104 65 163 45 86-39 172-78 261-108 91-31 184-52 282-57 16-1 32-1 33 31s-14 32-31 33c-91 4-179 24-264 53-75 26-149 58-222 91 221 47 460-1 667-79 60-22 105-42 133-41 51-30 112-53 172-79 66-28 132-51 182-57 16-2 32-4 35 28 4 32-12 33-28 35-112 13-127 21-222 79 0 21-66 57-126 96-36 24-70 52-87 67-95 86-144 181-188 287-29 70-52 145-68 224 55-108 121-211 201-303 94-108 208-201 345-265 14-7 29-13 42 15 13 29-1 35-15 42-129 60-236 147-324 250-90 103-161 222-219 345-31 64-8 1-42 86 110-122 212-224 323-307 132-100 283-157 418-133 15 3 31 6 26 37s-21 28-37 26c-116-21-250 32-369 121-121 92-244 223-366 361 184 26 366-26 542-85 91-30 183-135 239-152 19-24 38-46 57-67 33-37 67-71 102-100 12-10 24-20 45 4s8 34-4 45c-33 28-65 60-96 94-32 35-62 73-92 113-6 8-13 17-24 16-60 70-151 162-172 240-57 210-25 370-122 576 71-38 128-81 175-134 53-60 94-135 128-230 37-104 95-195 167-270 75-77 165-136 261-172 15-5 30-11 41 19s-4 35-19 41c-87 32-169 86-238 157-66 68-119 151-153 247-37 102-81 183-141 250-44 50-95 91-156 127 52-3 78-10 121-7 79-6 211-66 279-119 66-51 116-120 154-206 6-15 13-29 42-16s23 27 16 42c-42 96-99 174-173 231-56 43-121 75-196 93 161-5 311-42 467-100 65-24 87-168 127-208 32-58 66-112 105-158 47-56 101-101 164-127 15-6 29-12 41 18 12 29-3 35-17 41-52 21-98 60-139 108-36 42-68 93-98 147 10 73-51 228-53 305-7 205-2 409 53 612 53-71 107-134 162-192 0-5 0-10 1-15 18-106 33-219 40-332 7-112 7-223-6-329-2-16-4-32 27-35 32-4 34 12 35 28 14 111 14 226 7 340-6 90-16 180-30 269 54-51 53-51 77-103 37-80 59-159 67-237 9-80 5-157-13-230-4-15-7-31 24-38s35 8 38 24c19 80 25 165 14 252-8 65-24 132-49 199 56-42 114-82 178-122-4-75-5-153-3-227 2-68 7-134 18-190 4-20 7-40 47-33s37 27 33 48c-9 50-14 111-16 177-2 78 0 162 4 243 5 82 49 185 125 230 103 62 158 163 186 274 16-145 17-280 3-400-17-143-55-267-114-368-8-14-16-27 12-44 27-16 35-2 43 12 63 110 104 241 122 393 17 146 13 310-13 488 102-82 381-258 352-594-7-27-16-52-28-75-7-14-14-28 14-42s35 0 42 14c17 33 30 69 39 110 5 24 8 49 11 76 13-7 45-43 51-39 24 16 58 38 80 54-21-60-35-120-42-178-10-87-5-172 14-252 4-15 7-31 38-24s27 23 24 38c-18 73-22 151-13 230 9 77 31 157 67 237 4 8 8 16 5 25 24 21 47 42 70 65-13-84-22-170-28-255-8-115-7-230 7-341 2-16 4-32 35-28s29 20 27 35c-13 106-13 217-6 329 7 113 22 225 40 332 1 2 1 5 1 7 54 59 95 120 152 196 55-203 73-407 66-612-2-76-69-227-65-302-30-55-63-107-100-151-41-49-87-87-139-108-15-6-29-12-18-41 12-29 27-24 41-18 62 26 117 71 164 127 38 45 72 98 103 154 57 7 78 179 143 212 154 57 298 94 453 100-75-19-140-50-195-93-74-57-131-135-173-231-6-15-13-29 16-42s35 2 42 16c38 86 88 156 154 206 85 66 289 124 400 127-61-37-113-78-157-128-59-67-104-148-141-250-34-95-87-179-153-247-68-71-150-124-238-157-15-6-29-11-19-41 11-29 26-24 41-19 96 36 186 94 261 172 72 74 130 166 167 270 34 95 75 169 128 230 47 54 105 98 177 135-98-207-66-367-122-577-35-129-232-277-193-320 45-51 133 88 248 127 175 59 357 111 540 85-122-138-244-269-366-361-119-90-237-140-352-120-16 3-31 6-37-26-5-31 10-34 26-37 135-24 269 32 401 132 111 84 201 175 311 298-18-47 0-14-30-77-59-123-130-241-220-345-89-102-196-189-324-250-14-7-28-13-15-42 13-28 28-22 42-15 137 65 251 157 345 265 81 93 147 198 203 307-15-81-39-157-68-227-44-106-93-201-188-287-62-56-209-140-208-179-29-15-33-11-63-24-61-26-121-46-164-52-16-2-32-4-28-35 4-32 19-30 35-28 50 6 115 28 182 56 33 14 66 43 98 60 53 4 139 47 208 74 206 78 446 126 666 79-73-33-147-65-223-91-85-29-172-49-264-53-16-1-32-1-31-33s17-31 33-31c98 4 191 26 282 57 89 30 175 69 261 108 59 27 101-7 163-45-123-92-181-230-205-376l-2-2c-102-95-207-190-315-253-104-60-210-91-316-63-15 4-31 8-39-22-8-31 7-35 22-39 125-33 247 1 364 69 94 55 186 132 274 213 0-6-1-11-1-17-15-270-203-480-435-494-78-5-189 21-186-32 4-59 97-44 234-86 385-116 655-296 836-690-54 41-110 83-186 124-86 47-198 91-358 128-82 19-154 48-216 84-64 38-117 84-159 135-10 12-20 25-45 5s-14-32-5-45c47-57 106-108 177-150 67-39 145-70 233-91 155-36 261-78 343-122 51-27 92-55 131-84-148-4-305-3-459-3-143 44-289 96-402 160-110 63-186 136-192 223-1 16-2 32-34 29-32-2-31-18-29-34 8-111 97-200 224-273 69-39 149-74 233-105-35 0-70 0-104-1-116-2-112-66-20-101 90-34 190-141 251-216 271-334 412-714 456-1130-33 72-69 140-115 198-57 73-128 131-222 164-31 160-91 293-180 397-92 108-216 185-369 230-29 8-52-35-29-55 132-109 221-226 278-344 62-131 83-264 72-387-1-16-3-32 29-35 31-3 33 13 34 29 12 134-10 278-78 420-40 85-97 170-172 251 73-39 136-89 187-149 85-100 141-229 170-386 1-8 14-22 22-25 89-27 155-79 209-147 51-65 90-143 126-228-140 69-304 64-457 78-213 19-369 68-554 152z"/><path d="M204649 49231c-680-88-1359-113-2041-114-684 0-1369 40-2058 112-20 6-15 33-14 46 2 28 37 35 121 27 643-60 1285-93 1932-93 674 0 1351 21 2038 102 33 9 77-85 22-81z"/><path fill-rule="evenodd" d="M200570 49160c683-71 1362-110 2038-110 675 0 1349 40 2025 127l31-127c-17 9-37 15-58 15-67 0-123-55-123-123s55-123 123-123c51 0 94 31 113 75l60-170c-724-84-1446-122-2171-122-729 0-1459 38-2193 107l58 164c22-32 59-54 101-54 68 0 123 55 123 123s-55 123-123 123c-12 0-25-2-36-6l33 94-2 7zm3067-416c-68 0-123 55-123 123s55 123 123 123 123-55 123-123-55-123-123-123zm0 64c-33 0-59 27-59 59s26 59 59 59c32 0 59-27 59-59s-26-59-59-59zm-1082-91c-67 0-123 55-123 123s55 123 123 123 123-55 123-123-55-123-123-123zm0 64c-32 0-59 26-59 59s26 59 59 59 59-26 59-59c0-32-26-59-59-59zm-1064-40c-68 0-123 55-123 123s55 123 123 123c67 0 123-55 123-123s-55-123-123-123zm0 64c-33 0-59 26-59 59s26 59 59 59c32 0 59-26 59-59 0-32-26-59-59-59z"/></g><path d="M202601 47974c-14-68-49-129-100-175-51-47-116-78-187-88-33-4-39-58-7-68 60-20 114-67 157-133 45-69 79-157 95-256 5-34 64-35 69-1 15 84 51 153 97 208 55 66 125 112 193 138 31 12 25 63-8 68-59 9-105 42-141 87-50 62-81 145-100 221-8 33-62 31-69-2zm33-118c20-52 47-103 81-146 28-34 60-64 99-84-51-30-100-70-143-120-28-34-53-73-73-116-19 59-45 112-75 158-31 47-67 86-108 116 50 19 95 47 134 82 34 31 63 68 85 110zm799 5115-515 206c-17 7-35 14-48-21-14-34 4-41 21-48l515-206c17-7 35-14 48 21 14 34-4 41-21 48zm59-326-604 328c-16 9-33 18-51-15s-1-42 15-51l604-328c16-9 33-18 51 15s1 42-15 51zm-1826-65 604 328c16 9 33 18 15 51s-34 24-51 15l-604-328c-16-9-33-18-15-51s34-24 51-15zm51 322 515 206c18 7 35 14 21 48-14 35-31 28-49 21l-515-206c-17-7-34-14-21-48 14-35 31-28 48-21zm224 434c137 33 261 48 358 31 88-16 155-60 191-146v-493c-107-1-212-15-303-41-109-31-170-98-201-178-41-107-27-235-4-329 5-18 9-36 45-27s32 27 27 45c-20 82-33 194 1 284 23 60 69 110 152 133 91 25 198 38 307 38 107 0 214-13 304-40 82-24 148-69 192-123s65-117 57-176c-5-36-24-62-49-80-34-24-82-35-128-37-47-2-94 7-142 16-25 5-50 9-77 13-19 2-37 5-42-32s14-40 32-42c23-3 48-8 73-12 52-10 105-20 159-18 60 2 121 18 168 51 42 29 72 72 80 131 11 80-16 163-73 233-53 65-131 119-229 147-83 24-178 38-274 42v483c3 5 3 11 2 16 37 82 102 125 188 141 97 18 221 2 358-31 18-5 36-9 45 27 8 37-9 41-28 45-146 35-279 51-388 32-92-17-165-58-215-132-49 74-124 115-215 132-109 20-242 4-388-32-18-4-37-8-28-45 8-36 27-32 45-27zm356 210 402-9c19 0 38-1 38 37 1 38-18 38-37 38l-402 9c-19 0-37 1-38-37s18-38 37-38zm593-3082c151-125 293-227 423-297 133-72 254-111 359-106 19 1 37 1 36 39-1 37-20 37-39 36-92-4-200 32-322 97-125 67-263 166-410 289-14 12-29 24-53-5s-9-41 5-53zm-605 56c-141-130-298-240-445-314-139-71-268-108-363-100-19 2-37 4-40-34-4-37 15-39 34-40 110-10 252 31 404 107 152 77 315 191 461 325 14 13 28 25 2 53-25 27-39 15-53 2zm-213 1004c37-83 83-155 136-219 53-63 112-119 174-170 14-12 29-24 52 5 24 29 9 41-5 53-59 48-114 101-164 160-49 59-91 125-125 201-8 17-15 34-49 19s-27-32-19-49zm371-1734c49 66 88 139 114 223 26 82 40 175 39 279 5 80 6 165-7 249-13 86-42 170-97 246-43 60-101 97-165 113-53 13-109 10-164-7 29 100 51 208 6 308-8 18-33 27-51 18-43-22-86-43-128-62s-84-36-127-51l-1-1c-95-37-173-73-236-112-65-39-115-80-150-124l1 2c-44-49-72-106-88-170-14-55-20-114-22-174-72-39-138-78-194-116-64-43-118-87-161-131-13-14-26-27 1-53s40-12 53 1c39 40 89 80 150 121 60 40 128 81 204 121 124 13 247 51 370 109 106 50 211 115 317 192 13 7 19 16 27 20 8 6 16 13 25 19 51 22 104 28 152 16 47-11 90-39 122-84 48-66 72-139 84-214 12-77 11-157 6-234v-2c1-97-12-183-35-258-24-76-58-142-102-201-11-15-22-30 7-52s41-7 52 7zm-375 1047c-104-77-207-141-311-190-105-49-210-83-314-98 2 48 8 93 18 135 13 52 35 99 71 138l1 1c30 37 73 72 130 107 60 36 134 71 225 106l-1-1c45 16 89 34 133 54 31 14 61 28 93 44 19-83-10-179-37-267-2-8-5-15-9-29zm776-1003c-44 59-79 125-102 201-24 76-36 161-35 258v2c-5 77-6 158 6 234 12 75 37 148 84 214 32 45 75 72 122 84 48 12 101 6 152-16 8-6 17-13 25-19 6-4 13-12 27-20 105-77 211-143 317-192 123-58 246-95 370-109 75-40 144-80 204-121s111-81 149-121c13-13 26-27 53-1s14 39 0 53c-43 44-97 88-161 131-57 38-122 77-194 116-2 61-8 119-22 174-16 63-44 121-88 170l1-2c-35 44-85 85-150 124-63 38-141 75-237 112l-1 1c-43 15-85 32-127 51-43 19-85 40-128 62-18 9-43 0-51-18-45-100-23-208 6-308-55 18-111 20-164 7-64-15-122-53-165-113-55-76-84-160-97-246-13-85-12-169-7-249-1-104 13-196 39-279 26-84 65-158 114-223 11-15 22-30 52-7 30 22 19 37 7 52zm940 715c-105 15-209 49-314 98-104 49-207 113-311 190-4 13-6 21-8 29-27 88-56 184-37 267 31-15 62-30 93-44 44-20 87-38 133-54l-1 1c91-35 165-70 225-106 58-34 100-70 131-107l1-1c35-39 57-86 71-138 11-42 16-87 19-135z"/><path fill-rule="evenodd" d="M203459 50602c-119 0-216 97-216 216s97 217 216 217 216-97 216-217c0-119-97-216-216-216zm0 69c-81 0-147 66-147 147s66 147 147 147 147-66 147-147-66-147-147-147zm0 60c-48 0-87 39-87 87s39 87 87 87 87-39 87-87-39-87-87-87zm-1697-124c119 0 217 97 217 216s-97 217-217 217c-119 0-216-97-216-217 0-119 97-216 216-216zm0 69c81 0 147 66 147 147s-66 147-147 147-147-66-147-147 66-147 147-147zm0 60c48 0 87 39 87 87s-39 87-87 87-87-39-87-87 39-87 87-87z"/></g><use transform="rotate(-2.173 -55532.79 156275.842)" xlink:href="#a"/><use transform="rotate(2.18 459865.852 156275.761)" xlink:href="#a"/></g><path fill="#171796" d="m683.405 118.504-.074.026-23.976-27.403-31.524 18.067-5.316 63.818a274.412 274.412 0 0 1 45.113 7.551l15.774-62.056z"/><path d="M634.05 122.434c1.095-.266 2.175-.322 3.223.32.459.19.805.432 1.018.743.486-.376.98-.728 1.492-1.03.72-.533 1.454-1.003 2.244-1.267 1.13-.574 2.258-.914 3.39-1.018 1.195-.204 2.397-.216 3.593-.145.997.06 1.962.334 2.883.864.834.415 1.666.832 2.5 1.246.883.492 1.765.936 2.647 1.309 1.119.44 2.377.589 3.718.639.657.024 1.302.024 1.936-.145.512-.136.831.19.266.536-4.144 2.542-7.391.281-10.162-.731a20.103 20.103 0 0 1 2.664 2.122c1.054 1.015 2.232 2.045 4.316 2.995 1.264.575 2.64 1.028 4.408 1.042a11.06 11.06 0 0 0 1.941-.133c.353-.056.503-.023.51.16.005.124-.027.373-.237.512-1.069.716-2.075.906-3.197.977-2.137.136-4.422-.565-6.512-1.687-1.673-.9-2.8-1.995-4.132-2.978-1.33-.98-2.478-1.524-3.712-1.785-1.217-.26-2.534-.23-3.644.113.332.065.613.222.784.42.572.337 1.306.485 2.368.607.554.065.382.447-.47.905-.512.66-1.178 1.016-2.063.93-1.22.808-1.655.32-2.063-.21-.05.334-.148.663-.293.98a.752.752 0 0 1-.018.532c.195.302.29.595.225.918a.77.77 0 0 0 .272.491c.255.231.417.498.45.823.003.216.121.394.293.554.249.204.5.384.749.69.737.266 1.077.831 1.199 1.562.556.18.787.583.897 1.063.316.133.606.293.772.574 1.137.003 2.247.003 3.286.113.974.103 1.767.71 2.477 1.497.48.074.965.098 1.462-.014.513-.225 1.054-.397 1.643-.447.974-.083 1.95-.134 2.88.088.63.151 1.122.486 1.525.942.58.66 1.474.57 2.238.245 1.036-.44 1.897-.426 2.957.039.452-.175.905-.258 1.358-.21.388-.42.8-.524 1.223-.536.69-.024 1.19.083 1.06.968-.036.24-.178.47-.359.553-.317.684-.92.885-1.687.82-.083.47-.275.82-.583 1.045.352 1.086.015 1.522-.79 1.507-.17.314-.42.509-.85.447a1.725 1.725 0 0 1-1.09.642c.048.284.17.417.37.722.548.83-.275 1.164-1.026 1.175.192.548.216 1.096.148 1.643.766.465.87.953.162 1.436.518.906.317 1.572-.654 2.057-.015.506-.065 1.015-.402 1.3-.231.195-.563.23-.344.597.394.652.308 1.474-.275 1.498-.124-.012-.237.006-.246.204 0 .068-.059.137-.174.205-.699.376-1.353.805-1.954 1.299-.089.06-.177.1-.266.02-.438.954-1.255 1.922-2.158 2.896-.14.716-.545 1.201-1.217 1.453a.512.512 0 0 1-.4.408c.377.418.519.82.155 1.217-.447.488-1.036.965-1.625 1.116-1.252.32-2.037.26-2.54-.22-.444-.422-.27-.742.012-.875-.773.062-.93-.347-.909-.891.044-.273.136-.237.409-.228.42.012.799-.216 1.195-.346a2.34 2.34 0 0 1 .604-.675c.14-.876.693-1.362 1.445-1.649.607-.23 1.187-.817 1.75-1.575.345-.598.695-1.193 1.041-1.79-.243-.317-.308-.634-.317-.95a1.846 1.846 0 0 1-.695-.646c-.545-.038-.77-.284-.85-.625a1.293 1.293 0 0 1-.408-.053c-.267.172-.536.323-.87.308a8.612 8.612 0 0 1-1.362 1.137c-.163.45-.486.63-.88.686-1.118.134-1.787 1.528-2.403 2.096-.248.184-.402.51-.512.9-.053.734-.18 1.308-.583 1.32-.361-.015-.417-.053-.43-.092a1.481 1.481 0 0 0-.47.021c.302.332.35.749.071 1.116-.278.361-.678.474-1.062.5-.797.053-1.442-.018-2.04-.26-.571-.234-.64-.575-.621-.906-.412-.195-.495-.39-.45-.583.056-.249.284-.376.57-.296.25-.119.498-.199.747-.246.722-.778 1.465-1.447 2.282-1.758.24-.29.515-.55.85-.767.094-.698.553-1.249 1.115-1.761.05-.252.134-.506.276-.758-.033-.15.009-.222.012-.364-.228-.423-.365-.932-.196-1.355a1.64 1.64 0 0 1-.062-.675c-1.344.799-1.758.527-1.912-.122-.492.412-.95.604-1.279.012-.476.142-.956.302-1.433.113-.31.121-.624.23-.982.254-.145.287-.34.574-.604.862-.015.603-.225 1.207-.613 1.811a11.58 11.58 0 0 1-.87 1.933 1.23 1.23 0 0 1-.133.624c.103.743-.145 1.105-.554 1.288-.11.299-.272.601-.52.9-.013.098-.021.198-.033.296.163.438.19.873-.255 1.311-.358.225-.74.462-1.119.648-.447.22-.861.116-1.237-.02-.66-.237-.61-.468-.524-.693a.805.805 0 0 1-.651-.009c-.16-.1-.26-.204-.42-.308-.143-.257-.193-.491.153-.675.436-.192.732-.334 1.075-.686.118-.267.27-.468.482-.521.208-.486.462-.814.809-.903.254-.6.526-1.264.849-1.838.113-.175.195-.355.142-.554-.006-.162.006-.316.142-.408.077-.065.213-.124.042-.216a1.7 1.7 0 0 1 .204-1.442c.35-.527.74-1.8.37-2.424-.068-.35-.136-.749-.092-1.077-.127-.006-.222.011-.35-.077-.283-.175-.52-.01-.736.307-.157.397-.314.746-.47.746-.149 1.025-.652 1.82-1.176 2.025-.121.47-.198.941-.133 1.412.053.512 0 .861-.237.92-.26.066-.503.217-.654.634a1.28 1.28 0 0 0-.092.42c.361.373.252.838-.095 1.181-.781.77-1.752.657-2.779.355-.743-.293-.924-.603-.85-.92-1.053-.089-.843-.897.03-1.14.938-.263 1.7-.864 2.324-1.722.056-1.019.29-1.711.837-1.82.054-.625.249-1.188.512-1.72.276-.483.444-1.013.347-1.658-.583-.364-.607-.74-.071-1.125.177-.104.157-.21-.062-.317-.356-.035-.311-.376-.288-.695-.014-.166-.1-.252-.257-.255-.787-.115-.592-.438-.255-.787.142-.16.237-.397.09-.492-.122-.077-.205-.346-.232-.583-.482-.364-.275-.737 0-1.095-.272-.23-.4-.568-.438-.962-.897-.038-1.231-.494-.746-1.157.204-.281.468-.55.788-.808.207-.335.405-.67.307-1.004-.257-.654.566-1.148 1.27-1.657a1.1 1.1 0 0 1-.154-.512c-.396-.382-.296-.737.142-1.075a1.33 1.33 0 0 1-.162-.52c-.986.194-.98-.395-.521-1.342-.572-.328-.412-.911.624-1.8a1.19 1.19 0 0 1 .113-.47 2.393 2.393 0 0 0-1.25.379c-.393.257-.784.225-1.177.062-.122-.195-.308-.361-.521-.512-.27-.237-.332-.503-.276-.787-1.16.065-1.382-.794-.686-1.3.387-.308.671-.63.778-.983.314-.796.98-1.338 1.628-1.894 0-.228.05-.456.121-.687-.287-.192-.589-.331-.92-.358a1.469 1.469 0 0 0-.716-.796c-.217-.13-.288-.252-.154-.545-.616-.55-.462-.885-.305-1.202z"/><g fill="#f7db17"><path d="M655.101 152.325c-.068.005-.139.011-.219.008-.299.305-.657.61-.988.87-.288-.33-.714.033-.296.235-.071.05-.142.1-.214.148-.136.36-.26.515-.663.577-.062.009-.124.02-.186.035a3.688 3.688 0 0 1 .018-.447c.017-.18.047-.355.086-.527.005-.032.014-.062-.048-.077s-.07.018-.077.05a5.442 5.442 0 0 0-.092.542c-.017.163-.023.329-.017.495-1.016.325-1.602 1.382-2.294 2.134-.3.257-.45.613-.56.986-.059.198-.08 1.107-.284 1.121-.098.003-.201 0-.31 0-.11-.165-.258-.168-.445-.011-.423-.01-.873-.012-1.249.047-.257.278.45.175.826.405.172.104.246.308.178.592-.347.826-2.28.56-2.922.22-.299-.157-.31-.338-.299-.595.133 0 .27-.01.406-.03.23-.033.458-.1.683-.228.063-.035.128-.071.057-.198s-.136-.092-.199-.057a1.56 1.56 0 0 1-.58.193 3.21 3.21 0 0 1-.607.02c-.017 0-.035-.002-.05 0-.112-.065-.198-.141-.15-.21.046-.065.233.006.268.018.3-.139.56-.228.883-.29.68-.728 1.373-1.412 2.311-1.788.282-.337.586-.604.953-.846.13-.811.524-1.243 1.113-1.782.071-.335.154-.574.32-.867-.035-.187-.009-.305 0-.495-.225-.426-.358-.796-.18-1.273-.11-.346-.095-.58-.054-.9a.435.435 0 0 0-.003-.18 7.772 7.772 0 0 1 1.06-.716c-.027.32-.015.654.047 1.003l-.003.003c-.1.11-.186.216-.245.329a.662.662 0 0 0-.092.346c0 .033 0 .065.065.062.065 0 .065-.032.062-.065a.539.539 0 0 1 .077-.281c.053-.098.133-.199.228-.3a.131.131 0 0 0 .024-.032c.31-.009.615-.174.92-.42.276-.225.55-.515.823-.82-.003.444-.006.888-.012 1.332a2.926 2.926 0 0 0-.672.88c-.014.029-.03.055.027.085.06.03.074 0 .086-.03.163-.322.37-.589.61-.81h.012c.065 0 .065-.033.065-.066v-.003a3.96 3.96 0 0 1 1.146-.657c-.057.39-.084.773-.016 1.14.074.402.264.781.649 1.113.006.006.014.009.023.012z"/><path d="M635.767 141.065c.05-.092.177-.21.219-.202.008-.003.014-.003.023-.005.14-.261.284-.504.435-.723.196-.284.403-.535.622-.749.024-.023.047-.044.092 0 .044.048.02.068 0 .092-.213.207-.415.45-.607.728a7.27 7.27 0 0 0-.426.71c.044.06.065.152.041.217.045.405.098.633.278.867a.253.253 0 0 1 .063-.041c.074-.18.174-.34.299-.483.153-.172.34-.317.565-.438.154-.127.278-.257.379-.394.1-.133.18-.269.237-.408.011-.03.023-.06.085-.036.06.024.048.057.036.086a1.99 1.99 0 0 1-.252.438c-.11.142-.242.282-.408.418 0 0-.009.006-.012.006a1.98 1.98 0 0 0-.533.411c-.11.121-.195.258-.263.409.094.068.136.254.047.372-.27.388-.589.616-.086.948a.793.793 0 0 0 .237.639c.116.121.104.545-.18.85-.267.269-.063.198.213.23.02.006.041.015.062.021v-.003c.1-.195.219-.37.35-.533.126-.16.265-.31.408-.452.198-.196.355-.409.467-.625.11-.21.175-.426.187-.633.003-.033.003-.066.07-.06.066.003.063.036.06.068a1.762 1.762 0 0 1-.201.687c-.119.228-.284.45-.492.654-.139.14-.272.281-.396.441a3.246 3.246 0 0 0-.335.512c.332.202.225.563.275.894a.583.583 0 0 1 .172.048.062.062 0 0 1 .012-.018c.065-.1.13-.204.195-.308l.308-.488c.018-.027.036-.057.089-.021.056.035.038.062.02.089l-.307.488-.195.308c-.003.006-.006.012-.01.015.205.166.22.467-.032.698-.494.373-.355.489.107.785.059.435.062.784-.033 1.154.003.009.003.02.006.033.012.121.02.245.03.367l.03.37c.002.032.005.065-.06.07s-.068-.026-.071-.058l-.03-.37c-.003-.033-.006-.063-.006-.095-.023.056-.047.115-.077.177-.331.726-.674 1.318-.748 2.132-.797.19-.678.974-.723 1.666-.627.847-1.355 1.525-2.365 1.862-.19.062-.648.175-.692.414-.006.086.308.273.509.163.556-.533.835-.237.195.308-.05.104-.009.22.1.317.578.518 2.008.686 2.659.275.482-.302.734-.633.314-1.092.026-.651.28-1.288.968-1.471.08-.148.056-.424.02-.575-.065-.565.024-1.068.163-1.613.024-.068.074-.124.187-.154.26-.053.76-.808.917-1.533.039-.157.062-.32.092-.482.041-.252.139-.296.266-.148.122-.163.119-.26.193-.447.266-.388.65-.699 1.1-.48a3.792 3.792 0 0 1-.218-1.039c-.033-.432.009-.879.142-1.287.018-.063.038-.122.136-.107l.388-.92.39-.927c.012-.03.024-.06.083-.036s.048.057.036.086l-.39.927c-.131.308-.258.612-.389.917.057.042.039.095.021.148-.118.37-.157.779-.127 1.178.03.433.136.85.296 1.19.015.033.032.065.027.098.213.124.21.154.2.438-.005.222.024.441.078.708.423.781-.018 2.09-.43 2.743a1.356 1.356 0 0 0-.168 1.042c.254.246.089.5-.136.672-.018.06 0 .128.003.187.023.254-.068.467-.202.678-.346.624-.612 1.29-.89 1.944-.504.14-.607.432-.809.903-.293.083-.322.169-.447.438-.337.34-.66.545-1.092.74-.358.163-.012.32.24.492.228.168.527-.199.713-.477.204-.308.412-.216.278.024a2.43 2.43 0 0 0-.269.84c-.077.213.734.376.873.382.495.024 1.116-.459 1.504-.704.323-.329.272-.616.13-1.016l.003-.026a2.461 2.461 0 0 1-.595-.06 4.287 4.287 0 0 1-.698-.23c-.03-.012-.06-.024-.036-.086.024-.06.056-.048.086-.036.23.095.453.175.678.222.186.042.379.062.583.057l.033-.311c.257-.317.435-.628.574-1.007.547-.257.55-.524.476-1.11.122-.236.148-.376.14-.645.36-.642.657-1.3.902-1.995.432-.574.64-1.116.59-1.8.038-.266.135-.417.33-.408.143-.198.27-.403.386-.63.023.002.047.005.07.005-.005-.014-.002-.032 0-.047.036-.157.078-.296.13-.411a.996.996 0 0 1 .178-.282c.08-.195.11-.384.09-.568a1.378 1.378 0 0 0-.193-.554.614.614 0 0 1-.145-.23c-.027-.092-.009-.184.083-.276.023-.023.047-.044.091 0 .045.048.024.071 0 .092-.053.05-.062.098-.047.145a.57.57 0 0 0 .121.187l.006.011c.116.199.193.403.214.613s-.01.426-.104.642c0 .003-.012.018-.012.021a.901.901 0 0 0-.163.252 2.11 2.11 0 0 0-.121.385c-.003.008-.003.017-.006.023.305 0 .574-.094.867-.24l.018-.017c.148-.119.305-.3.435-.536a2.36 2.36 0 0 0 .249-.72c.006-.032.012-.061.077-.053.062.012.056.045.053.074a2.525 2.525 0 0 1-.263.761 1.96 1.96 0 0 1-.338.456c.474.142.885.003 1.335-.136-.065-.634-.056-1.116.012-1.495.074-.411.213-.701.388-.92.02-.027.038-.05.091-.012.05.041.033.065.012.091-.162.205-.293.477-.36.865-.066.36-.078.823-.016 1.432.006-.003.015-.003.024-.006.19.323.29.557.678.305.142-.094.29-.19.408-.313.045-.048.03-.074.066-.113.37-.394.742-.76 1.112-1.086a8.09 8.09 0 0 1 1.12-.838c.026-.018.056-.035.088.02s.006.072-.02.09a8.056 8.056 0 0 0-1.102.822c-.316.279-.633.587-.95.918.018.056.027.154.036.302.032.438.112.702.737.462.349-.133.385-.148.707-.34.157-.095.29-.175.382-.196.204-.16.406-.31.61-.447.198-.133.4-.255.598-.361a3.6 3.6 0 0 1 .162-.69c.193-.568.516-1.095.921-1.592l.02-.018c.338-.184.613-.4.833-.645.222-.246.387-.521.512-.82.011-.03.023-.06.085-.036.06.024.048.057.036.086-.13.31-.305.598-.533.856-.228.254-.509.48-.858.669-.394.485-.708.994-.891 1.542a3.325 3.325 0 0 0-.145.592c.012.003.023.014.035.038.03.06 0 .074-.026.086-.01.003-.018.009-.027.015-.038.32-.03.657.03 1.006.275-.009.553-.163.834-.39.3-.243.604-.578.906-.918.003-.009.003-.015.012-.02.074-.244.169-.457.293-.628.133-.184.296-.323.497-.409.03-.012.06-.026.086.036.024.059-.003.07-.035.086a1.077 1.077 0 0 0-.444.364c-.119.165-.21.373-.282.61-.003.461-.009.923-.011 1.385.014-.012.032-.024.047-.039.34-.263.731-.459 1.154-.613.045-.017.095.024.086.071-.065.415-.1.826-.032 1.205.065.355.225.687.544.983a3.472 3.472 0 0 1 .583-.77c.003-.006.006-.012.015-.014.121-.122.246-.234.376-.34.095-.087.19-.176.281-.264.095-.086.19-.175.284-.264.024-.023.048-.044.092.003s.02.071-.003.092l-.284.263c-.095.086-.19.175-.284.264l-.003.003c-.121.097-.24.201-.35.314l.015.36.006.196c.273.074.435.077.714.071.091.548.139.634.615.645a4.052 4.052 0 0 1 .018-.57 2.52 2.52 0 0 1 .142-.617c.012-.03.024-.059.083-.038.062.024.05.053.039.083a2.36 2.36 0 0 0-.137.583c-.02.18-.023.367-.017.56h.038c.19.39.415.582.817.757.113-.177.195-.355.249-.533a1.71 1.71 0 0 0 .07-.595c-.002-.032-.002-.065.06-.068.065-.003.068.027.071.06.015.213-.012.426-.077.639s-.169.423-.31.633c-.013.018-.024.036-.045.036.018.228.056.396.136.568.06-.127.121-.254.192-.373.098-.172.21-.325.347-.462.023-.023.044-.044.092 0 .044.045.023.068 0 .092-.128.124-.231.275-.326.435a4.976 4.976 0 0 0-.228.453c.044.077.1.154.166.243-.758 1.3-1.569 3.099-3.064 3.691-.772.305-1.11.699-1.264 1.524-.29.225-.497.453-.686.767-.504.169-.954.42-1.498.397 0 .352.115.506.467.509.672-.338.823-.4.883-.352.082.07-.095.553-.652.944-.086.053-.083.086-.032.174.47.737 1.705.474 2.368.3.473-.125 1.329-.687 1.566-1.16.091-.22-.116-.501-.323-.732-.947.145-.767-.764.047-.385.276-.083.311-.086.388-.39.725-.282 1.027-.587 1.193-1.365.731-.787 1.465-1.599 1.992-2.543.145-.177.23-.491.19-.654.13-.154.2-.35.248-.527.047-.19.077-.376.071-.565 0-.033-.003-.065.062-.068s.065.03.068.062a2.2 2.2 0 0 1-.074.6 5.595 5.595 0 0 1-.15.463c.047.118.07.198.174.168.634-.509 1.273-.867 1.957-1.29.047-.29.233-.432.52-.444.116.003.157-.033.199-.14.16-.399-.042-.674-.234-1.006-.178-.494.14-.613.456-.85.331-.245.308-.896.32-1.272h.003c-.012-.062-.024-.127-.039-.193a3.276 3.276 0 0 0-.112-.4c-.012-.029-.021-.061.038-.082.062-.02.071.009.083.041.05.145.089.282.118.415.012.053.021.106.033.157.317-.163.648-.353.772-.705.11-.39-.103-.76-.293-1.092-.08.038-.162.077-.248.112-.154.069-.32.14-.495.208-.03.012-.059.023-.082-.036s.006-.074.035-.083a12.766 12.766 0 0 0 .859-.379c.142-.094.287-.195.39-.328.228-.329-.385-.625-.598-.758l.003-.027c-.308-.28-.612-.565-.92-.846-.024-.02-.048-.045-.003-.092s.068-.027.092-.003l.852.782c.047-.483.053-.945-.098-1.424-.047-.154-.103-.305-.157-.456a1.394 1.394 0 0 1-.598-.497 1.295 1.295 0 0 1-.198-.619c-.003-.032-.003-.065.062-.071.065-.003.065.03.071.062.015.201.066.39.175.557.11.168.275.316.515.438.258.133.8.065 1.113-.086.435-.246-.133-.743-.266-1.036-.095-.21-.119-.426-.16-.651.038-.006.077-.015.118-.021a1.303 1.303 0 0 0-.174-.184.752.752 0 0 0-.234-.142c-.03-.011-.062-.02-.039-.082.021-.063.054-.05.083-.039.098.036.19.092.275.166.083.07.16.157.234.257a1.92 1.92 0 0 0 .128-.023c.429-.086.666-.326.926-.634a4.492 4.492 0 0 0-.468-.482 12.602 12.602 0 0 0-.532-.45c-.024-.02-.05-.042-.01-.092s.066-.03.092-.009c.184.148.367.3.54.456.174.16.34.329.49.512.015.018.03.036.018.06.394.035.459-.045.657-.397-.05-.18-.133-.35-.236-.512a3.124 3.124 0 0 0-.394-.483c-.024-.024-.045-.047 0-.092.047-.044.07-.02.092 0 .154.16.296.329.408.504.113.171.198.349.252.541.183.003.382.012.538-.083.344-.204.054-.938-.035-1.222.006-.003.009-.006.015-.012a3.45 3.45 0 0 0-.136-.086c-.08-.05-.163-.1-.243-.154-.027-.018-.053-.035-.02-.089.035-.056.061-.038.088-.02l.243.154.177.112.08-.062c.252-.201.34-.468.418-.746.118-.426.142-.237.639-.31.536-.084.826-.143 1.142-.77.166-.083.252-.154.282-.359.053-.37.023-.559-.4-.592-.592-.047-.953.072-1.353.462.054.08.107.163.16.243.018.027.036.053-.018.092-.053.035-.07.009-.088-.018l-.151-.23c-.54-.054-.971.032-1.474.221l-.151-.062c.106.142.189.278.251.411.086.19.13.37.136.542 0 .033.003.065-.062.068s-.065-.03-.068-.062c-.006-.157-.044-.32-.124-.494s-.201-.359-.373-.554l-.003-.003c-.42-.15-.805-.228-1.199-.219.065.065.133.13.198.193.086.082.172.165.255.248.024.024.047.045 0 .092-.044.047-.068.024-.092 0-.086-.083-.171-.166-.254-.249-.086-.083-.172-.165-.255-.248-.009-.01-.018-.018-.024-.027-.334.027-.68.115-1.062.275-.24.1-.486.178-.725.222.177.172.328.364.447.583.124.225.219.474.28.75.007.032.016.061-.047.076s-.07-.018-.077-.047c-.059-.264-.15-.503-.269-.716s-.266-.403-.441-.569c-.018-.015-.033-.032-.027-.056a2.224 2.224 0 0 1-.657.003l.264.435c.014.03.026.06-.03.086-.06.027-.074 0-.086-.03l-.242-.509a1.806 1.806 0 0 1-.592-.234c.062.234.109.486.145.752.047.352.077.728.085 1.125 0 .033.003.065-.062.065s-.065-.032-.065-.062a9.803 9.803 0 0 0-.083-1.11 5.87 5.87 0 0 0-.186-.888 2.076 2.076 0 0 1-.267-.249 2.623 2.623 0 0 0-.71-.553c.015.11.015.216 0 .322a1.185 1.185 0 0 1-.26.587c-.021.026-.039.05-.092.011-.05-.041-.033-.065-.012-.091a1.057 1.057 0 0 0 .219-.9c-.406-.187-.853-.278-1.314-.317a6.635 6.635 0 0 1 .687 1.09c.183.15.28.334.337.535.053.198.065.412.074.628 0 .032.003.065-.062.068s-.065-.03-.068-.062a2.606 2.606 0 0 0-.068-.598.892.892 0 0 0-.302-.477.11.11 0 0 1-.018-.02c-.1-.202-.213-.4-.335-.596a5.758 5.758 0 0 0-.411-.568l-.006-.006a6.242 6.242 0 0 0-.47-.009c.026.036.053.071.076.11a.72.72 0 0 1 .107.308c.003.032.006.065-.06.07s-.067-.026-.07-.059a.622.622 0 0 0-.09-.254.843.843 0 0 0-.138-.172c-.326.01-.649.036-.96.062.326.418.587.85.788 1.294a6 6 0 0 1 .462 1.53c.006.033.012.065-.053.074-.063.012-.069-.02-.074-.053a5.986 5.986 0 0 0-.453-1.498 6.396 6.396 0 0 0-.826-1.335l-.048.003a4.292 4.292 0 0 0-.748.145c.11.068.204.136.287.204.112.092.201.184.278.276.02.026.041.05-.009.091s-.071.018-.092-.008a1.965 1.965 0 0 0-.26-.26 3.001 3.001 0 0 0-.373-.255c-.13.041-.258.088-.385.139-.071.026-.14.053-.21.074.219.157.43.328.63.52.243.234.471.498.675.803.018.026.036.053-.018.089s-.07.008-.091-.018a4.74 4.74 0 0 0-.654-.782 5.83 5.83 0 0 0-.705-.57c-.266.058-.536.073-.805.064.166.329.31.66.42.995.119.36.202.725.228 1.095.003.033.006.065-.059.071s-.068-.027-.071-.06a4.467 4.467 0 0 0-.222-1.065 7.774 7.774 0 0 0-.447-1.042 9.682 9.682 0 0 1-.494-.053c.094.302.177.613.248.93.083.372.151.754.202 1.142.003.033.006.065-.057.074-.065.009-.068-.024-.074-.056a11.55 11.55 0 0 0-.198-1.13 11.59 11.59 0 0 0-.275-1.013c-.468-.506-.986-1-1.62-1.264a2.128 2.128 0 0 1 .468 1.403c0 .032-.003.065-.065.062-.065 0-.065-.035-.062-.065a2.04 2.04 0 0 0-.15-.835 2.093 2.093 0 0 0-.439-.657 2.44 2.44 0 0 0-.447-.089 19.514 19.514 0 0 0-1.25-.083c.32.29.572.557.549.88-.003.032-.006.065-.072.059s-.062-.039-.059-.071c.021-.3-.275-.569-.621-.876-.249-.01-.5-.012-.75-.015.137.139.255.278.35.417.13.19.222.379.266.568v.01c.027.292.098.55.228.763.128.21.311.373.563.488.03.015.059.027.032.086s-.056.048-.085.033a1.367 1.367 0 0 1-.62-.539c-.138-.228-.215-.5-.245-.811a1.567 1.567 0 0 0-.245-.521 3.341 3.341 0 0 0-.43-.494c-.278 0-.553-.003-.831-.003.115.328.195.666.251 1.01.065.42.095.849.104 1.284 0 .032 0 .065-.065.065s-.065-.033-.065-.062a8.921 8.921 0 0 0-.101-1.267 5.589 5.589 0 0 0-.26-1.03h-.078a1.252 1.252 0 0 0-.61-.548.754.754 0 0 1-.133.352c-.017.027-.038.054-.091.018s-.036-.062-.018-.089a.618.618 0 0 0 .112-.337l-.133-.056c-.133-.557-.257-.788-.701-.977a2.964 2.964 0 0 1-.042.476 1.67 1.67 0 0 1-.222.601c-.017.027-.035.057-.089.021-.056-.035-.038-.062-.02-.089a1.52 1.52 0 0 0 .204-.553c.03-.169.038-.34.038-.506-.023-.01-.05-.018-.076-.027-.119-.779-.261-1.214-1.069-1.522.009.101.012.205.006.308a1.703 1.703 0 0 1-.113.536c-.011.03-.023.062-.082.039s-.048-.054-.039-.083c.065-.169.095-.335.104-.498a2.373 2.373 0 0 0-.024-.458c-.172-.196-.417-.382-.628-.59.006.288-.032.572-.112.859a3.822 3.822 0 0 1-.483 1.042c-.017.027-.035.056-.088.02-.057-.035-.039-.062-.021-.088.216-.335.373-.672.468-1.007.091-.32.124-.642.1-.965-.091-.1-.168-.21-.222-.325l-.017.041c-.033.071-.063.142-.095.213-.015.03-.027.06-.086.036-.06-.027-.047-.056-.036-.086.033-.071.063-.142.095-.213l.074-.172c-.006-.035-.012-.07-.015-.11-.026-.248-.16-.44-.34-.603l-.003-.003a1.886 1.886 0 0 1-.089.234c-.056.121-.13.24-.225.36-.02.028-.038.051-.092.013-.05-.042-.03-.065-.011-.092.088-.112.157-.225.21-.334.044-.095.077-.19.1-.288a1.201 1.201 0 0 1-.189-.307.995.995 0 0 1-.124.213 1.453 1.453 0 0 1-.243.245c-.024.021-.05.042-.092-.009s-.015-.07.01-.091c.09-.074.162-.148.218-.222s.095-.145.121-.22c.042-.115.057-.04.018-.227.068-.367-.068-.586-.263-.891a.089.089 0 0 1 .012-.024 1.113 1.113 0 0 0-.394.104 3.577 3.577 0 0 0-.568.331c-.027.018-.054.036-.09-.018-.038-.053-.011-.07.019-.088.21-.142.408-.26.589-.34.183-.08.352-.125.497-.116a.461.461 0 0 0 .015-.284c-.592.219-1.06.322-1.436.346a2.048 2.048 0 0 1-.947-.145c-.03-.015-.06-.027-.033-.086.024-.06.057-.047.086-.035.234.1.515.16.888.136.37-.024.826-.125 1.412-.344l-.006-.017c.107-.237.193-.468.252-.699-.21.056-.418.053-.625.047h-.041c-.033 0-.065-.003-.065-.065 0-.065.035-.065.065-.065h.041c.22.003.438.01.654-.062.015-.077.027-.154.039-.23.032-.258.334-.32.547-.09.178.19.34.391.516.474.355.169.754.018 1.041-.213l-.263-.086c-.033-.009-.062-.02-.041-.08.02-.062.05-.053.08-.041.112.035.224.07.337.11l.077-.08c.734.061 1.21-.093 1.681-.566a8.651 8.651 0 0 1-1.113-.039c-.355-.041-.648-.112-.864-.219-.03-.014-.06-.03-.03-.085.03-.06.06-.045.086-.03.201.1.483.169.823.207.346.039.755.05 1.22.036h.005c.042-.048.083-.098.128-.151.201-.083.402-.175.55-.34-.855-.092-1.67-.261-2.436-.66-.198-.223-.512-.347-.846-.433-.622-.077-1.173.077-1.679.34-.133-.124-.236-.236-.367-.358-.195-.023-.379-.127-.574-.15-.26-.03-.533.02-.793-.01-.033-.003-.065-.005-.056-.07.005-.066.038-.063.07-.057.261.03.533-.02.794.009.251.03.491.14.743.169.84-.317 1.536-.492 2.137-.465a7.094 7.094 0 0 1 2.158-.272c-.01-.006-.018-.015-.027-.024-.086-.086-.044-.13 0-.172.394-.4.486-.766.358-1.098-.13-.343-.485-.666-.98-.962-.526.06-1.033-.083-1.592-.02-.35.038-.693.115-1.03.227.281.101.527.267.728.504.249.293.426.692.521 1.195.012.06.02.122-.098.143-.118.023-.13-.039-.142-.098-.086-.459-.245-.82-.467-1.084-.234-.334-.77-.464-.939-.532-.56.056-1.11.118-1.59.242-.36.092-.677.22-.92.409.361-.077.737-.062 1.063.1.31.154.574.445.74.915.02.056.038.116-.077.154s-.136-.018-.154-.077c-.14-.405-.358-.648-.616-.775-.512-.255-1.568-.033-2.015.299-.26.195-.521.447-.779.74-.047.056-.098.11-.207.014-.11-.097-.062-.15-.012-.204.27-.305.542-.574.823-.781.272-.202.553-.347.844-.415.296-.328.734-.527 1.24-.657.494-.127 1.06-.192 1.634-.248-.169-.34-.385-.545-.634-.655-.266-.118-.571-.136-.903-.103-.69.237-1.302.607-1.891 1.024.053 0 .107 0 .157.003.175.012.331-.015.476.041.057.021.116.042.074.157-.05.14-.432.053-.565.045a1.688 1.688 0 0 0-.5.047c-.027.006-.056.015-.083.006-.72.444-1.234.894-1.832 1.4l-.1.035c-.534-.02-.9.054-1.12.22-.198.15-.213.387-.174.707-.092.299-.208.627-.237.977-.625.536-1.32 1.071-1.643 1.853-.071.228-.192.429-.343.61.127.02.23.059.31.12.03.025.057.048.08.078.015-.133.036-.267.068-.394.045-.183.11-.352.196-.488.018-.027.035-.054.089-.018.056.035.038.062.02.089-.08.121-.139.278-.18.45a3.1 3.1 0 0 0-.083.636c-.003.065-.122.071-.13.006a.358.358 0 0 0-.14-.252.65.65 0 0 0-.337-.106 3.927 3.927 0 0 1-.435.396c-.124.101-.243.21-.27.373-.017.285.332.335.664.356.754.044.154.473.568.85.201.138.388.301.53.5.287.103.464.08.66-.01.038-.512-.006-.772.219-.772h.024a.96.96 0 0 1 .053-.195c.038-.095.095-.193.172-.288.02-.023.041-.05.091-.008s.03.065.01.091a1.008 1.008 0 0 0-.152.255.937.937 0 0 0-.053.213c.038.077.03.228.027.497.429-.21.82-.263 1.258-.284.82-.959 1.169-.716.45-.018l-.116.22c-.124.24-.204.426-.23.751-.211.184-1.241 1.03-.856 1.344.27-.038.438-.027.334.175-.127.27-.512.829-.385 1.136.048.113.214.101.376.063l.036-.033c.27-.219.553-.47.82-.764.263-.287.509-.615.707-.991.027-.054.053-.104.13-.086.08-.296.175-.59.282-.885.11-.305.233-.613.367-.92.02-.045.083-.054.112-.013.113.163.222.282.332.359.097.07.195.103.29.103s.192-.032.29-.097c.106-.074.213-.187.322-.34.018-.028.039-.054.092-.016s.036.062.015.092c-.118.166-.234.287-.355.37s-.24.124-.364.121a.63.63 0 0 1-.364-.13 1.416 1.416 0 0 1-.296-.299c-.116.27-.222.539-.32.808-.11.3-.204.601-.287.9.068.056.038.11.012.163-.213.4-.474.746-.752 1.05a7.302 7.302 0 0 1-.699.667c.033.219.09.426.19.64.447-.386.864-.776 1.231-1.179.367-.405.687-.823.938-1.258.018-.027.033-.056.09-.024s.038.063.023.09a7.08 7.08 0 0 1-.438.66c.03.044.006.061-.018.082-.047.039-.074.193-.086.39-.018.27 0 .605.03.844.003.033.009.066-.056.074s-.068-.023-.074-.056c-.033-.251-.048-.595-.033-.867.003-.071.012-.136.02-.195-.097.115-.198.23-.301.346-.373.411-.8.808-1.255 1.199-.003.003-.01.006-.012.009a.882.882 0 0 0 .041.07c-.396.288-.719.388-.275.773l.444-.32.474-.34c.026-.018.053-.038.091.015s.012.07-.014.092l-.477.34c-.154.11-.305.22-.459.329-.009.18.033.31.113.452a.66.66 0 0 1 .097-.008c.332-.24.664-.483.995-.723.027-.02.053-.038.092.015s.012.071-.015.092c-.32.234-.642.468-.965.701a.892.892 0 0 1-.115.148c-.326.234-1.463.936-1.341 1.421v.003a4.36 4.36 0 0 0 .805-.305c.27-.139.533-.325.781-.58.024-.024.045-.044.092 0 .044.045.024.068 0 .092-.257.263-.53.453-.811.6v.013c-.003.044-.003.088-.006.133l-.006.133c-.003.033-.003.065-.068.062s-.062-.035-.062-.068c.003-.044.003-.089.006-.133.003-.024.003-.05.003-.074-.231.106-.465.186-.702.252.098.458-.142.852-.387 1.246-.14.112-1.276 1.033-.803 1.308.128.062.27.092.412.107z"/><path d="M636.282 125.054c-.237-.142-.542-.317-.838-.376a1.8 1.8 0 0 0-.63-.701c-.22-.142-.22-.13-.137-.287.249-.027.353-.095.355-.163.13.003.243.02.338.053a.51.51 0 0 1 .252.175c.02.026.038.053.091.011.054-.038.033-.065.012-.091a.678.678 0 0 0-.314-.22 1.278 1.278 0 0 0-.461-.059c-.015 0-.027 0-.039.006a.928.928 0 0 0-.414-.068c-.169-.16-.311-.346-.243-.577.009.009.024.012.038.015.134.038.258.077.365.127.103.045.189.1.248.166.02.024.045.047.092.003s.027-.068.006-.092a.929.929 0 0 0-.29-.198 2.227 2.227 0 0 0-.281-.104c.976-.198 1.85-.183 2.723.335.459.19.675.408.923.746l-.248.21c-.572-.015-.992.065-1.255.266-.237.178-.285.497-.293.817z"/></g><path d="M655.7 152.085c-.193.118-.35.201-.548.234a.09.09 0 0 0 .023-.024c.128-.24.276-.45.441-.64l.065-.073.01.236.008.27zm2.447 5.239a2.87 2.87 0 0 1-.47.536c-.178.16-.38.31-.595.453-.027.017-.057.035-.092-.018s-.01-.071.018-.089a5.15 5.15 0 0 0 .58-.441c.174-.157.328-.326.45-.512.017-.027.035-.053.091-.018.054.036.036.062.018.089zm1.62-1.93c-.084.124-.164.249-.246.376-.018.027-.036.053-.092.018-.053-.036-.036-.062-.018-.089.083-.124.163-.252.246-.376.017-.027.035-.053.091-.018.054.036.036.062.018.092zm-.883-.124c-.041.186-.11.364-.228.527s-.293.307-.544.423c-.03.015-.06.027-.086-.033s.003-.074.032-.085c.231-.107.388-.237.495-.382.11-.145.168-.308.207-.48.006-.032.015-.062.077-.047s.056.044.047.077zm1.587-1.936c-.065.065-.122.139-.172.222a1.436 1.436 0 0 0-.124.272c-.012.03-.021.062-.083.042s-.053-.054-.042-.083a1.42 1.42 0 0 1 .326-.542c.024-.024.044-.044.092 0 .044.045.023.068 0 .092zm1.296.127c-.056.184-.11.37-.177.554-.068.19-.151.376-.258.562-.018.027-.032.056-.089.024s-.041-.062-.023-.089c.103-.18.18-.361.248-.539.065-.18.119-.364.175-.547.009-.033.018-.062.08-.045s.053.048.044.08zm-.589-7.586c.403.592.492 1.201.506 1.814.045-.222.095-.447.157-.669 0-.003.01-.02.01-.02.168-.237.274-.474.328-.708s.053-.47.011-.704c-.005-.033-.011-.063.054-.074.062-.012.07.02.077.053.044.251.044.506-.012.758a2.096 2.096 0 0 1-.34.746c-.11.411-.19.825-.267 1.24l-.015.077c-.012.062-.13.053-.13-.012 0-.047 0-.092.003-.14.009-.772.018-1.547-.482-2.281-.018-.027-.039-.054.017-.092.054-.036.074-.009.092.018zm-.986 1.27c-.005.05-.008.1-.014.148-.003.05-.01.1-.012.15-.003.033-.006.066-.071.06s-.062-.039-.06-.071c.004-.05.01-.101.012-.148.003-.05.01-.101.015-.151.003-.033.006-.065.071-.06s.062.039.06.072zm-.275 1.722c.1.329.178.663.234 1.007.039.234.062.47.074.713.027-.044.056-.086.089-.127.106-.133.248-.249.417-.347.027-.017.056-.032.089.024s.006.074-.024.089a1.308 1.308 0 0 0-.379.317.879.879 0 0 0-.183.402c-.012.065-.13.053-.13-.012.003-.355-.027-.701-.08-1.039s-.13-.666-.228-.988c-.009-.033-.02-.062.041-.08s.071.012.08.041zm1.374.616a4.427 4.427 0 0 1 .08 1.486c-.003.032-.01.065-.074.056s-.06-.041-.057-.074c.027-.222.036-.453.024-.695a4.5 4.5 0 0 0-.1-.746c-.007-.033-.015-.063.05-.077.062-.015.07.017.077.05zm1.178-.22c.044.244.068.48.056.708-.012.231-.056.45-.151.663-.08.243-.086.486-.044.729.041.248.136.497.248.748.015.03.027.06-.032.086s-.074-.003-.086-.032a3.17 3.17 0 0 1-.26-.779 1.62 1.62 0 0 1 .05-.796l.003-.006c.085-.195.13-.402.139-.619a2.81 2.81 0 0 0-.056-.677c-.006-.033-.012-.063.053-.074s.07.02.077.053zm.568-1.953c-.03.122-.06.246-.092.37-.03.122-.059.246-.091.37-.006.033-.015.062-.077.048s-.057-.048-.048-.08c.03-.122.06-.246.092-.37.03-.122.06-.246.092-.37.009-.033.015-.062.08-.048.062.015.056.048.047.08zm-.583-3.244c.035.113.068.225.104.338.008.032.017.062-.045.08-.062.02-.07-.012-.08-.042l-.103-.337c-.012-.033-.021-.063.041-.08s.071.012.08.041zm.299-2.466c.003.154.003.308-.009.968a.966.966 0 0 0-.293.477c-.053.198-.06.441-.009.731.006.033.012.065-.053.077s-.071-.02-.077-.053a1.777 1.777 0 0 1 .012-.788c.059-.222.174-.4.331-.538l-.026-.412c-.003-.154-.003-.308-.006-.459 0-.032 0-.065.065-.065s.065.033.065.065zm-2.448-.858c.379.249.704.524.93.85.227.328.358.704.343 1.148a.067.067 0 0 1-.092.056c-.213-.091-.43-.183-.642-.275.142.92.106 1.655-.095 2.217-.213.595-.607 1-1.17 1.231a.064.064 0 0 1-.085-.08c.11-.349.175-.698.201-1.047s.012-.699-.047-1.045c-.006-.033-.012-.065.053-.074.065-.012.071.02.074.053.06.358.077.72.047 1.078a4.798 4.798 0 0 1-.165.94c.459-.224.784-.585.968-1.097.2-.566.23-1.318.07-2.27-.008-.051.045-.092.09-.072l.66.284a1.717 1.717 0 0 0-.32-.973c-.216-.311-.527-.575-.894-.814-.027-.018-.053-.036-.018-.092.036-.053.062-.036.089-.018zm6.408-1.26-.053.126c-.018.041-.032.086-.05.128-.012.03-.024.059-.083.035s-.047-.053-.036-.083l.054-.127c.018-.041.032-.086.05-.127.012-.03.024-.06.083-.036s.047.054.035.083zm-1.506-.033c.124.05.225.118.308.2.082.08.145.175.198.28.015.029.03.058-.027.085-.059.03-.074 0-.086-.027-.047-.091-.103-.174-.174-.245s-.157-.13-.267-.172c-.03-.012-.059-.024-.035-.083s.053-.047.083-.035zm-2.238.642c.163.18.27.39.326.63.056.234.065.495.035.773-.003.032-.006.065-.071.06s-.062-.04-.056-.072a2.19 2.19 0 0 0-.033-.731 1.29 1.29 0 0 0-.296-.571c-.02-.024-.044-.048.006-.092.048-.044.071-.018.092.006zm-7.563.728-.026.255c-.01.085-.018.171-.024.254-.003.033-.006.065-.071.06s-.062-.04-.056-.072c.008-.086.017-.171.023-.254l.027-.255c.003-.032.006-.065.07-.059s.063.038.06.071zm1.403-.74c.036.121.071.243.11.364l.032.11c.01.032.018.062-.044.08s-.071-.012-.08-.045l-.033-.11c-.035-.12-.07-.242-.11-.363-.008-.03-.017-.063.045-.08s.071.011.08.044zm2.877 1.933a.757.757 0 0 1 .027.157c.003.053.003.103 0 .157-.003.032-.006.065-.071.059s-.062-.039-.06-.071a1.045 1.045 0 0 0 0-.136.69.69 0 0 0-.023-.136c-.009-.033-.018-.063.044-.08s.071.014.08.047zm.992-2.19a.42.42 0 0 1 .118.195.292.292 0 0 1-.03.21c-.014.03-.032.06-.088.027-.056-.03-.042-.06-.027-.09.021-.04.027-.079.018-.12s-.038-.09-.083-.137c-.024-.023-.044-.044 0-.091.045-.045.068-.024.092 0zm-6.867.346c0 .154.023.302.074.438.05.139.13.27.242.39.151.172.228.341.27.513.041.168.044.334.053.497 0 .033.003.065-.062.068s-.065-.03-.068-.062a2.52 2.52 0 0 0-.048-.474 1.076 1.076 0 0 0-.24-.458 1.317 1.317 0 0 1-.269-.433 1.406 1.406 0 0 1-.083-.485c0-.033 0-.065.066-.065s.065.032.065.065zm2.78 1.87c.153.288.239.569.271.853.036.281.018.568-.032.867-.056.347.018.684.207 1 .175.297.45.578.805.838a3.57 3.57 0 0 1-.16-1.121c.018-.427.148-.838.447-1.226.128-.166.213-.337.273-.512.062-.175.094-.352.118-.524.003-.032.009-.065.071-.056.065.006.06.038.056.071-.023.184-.059.367-.121.55s-.157.37-.293.548a1.982 1.982 0 0 0-.42 1.152c-.018.405.07.825.207 1.258.018.056-.05.103-.098.074-.447-.302-.787-.634-.997-.986-.205-.346-.287-.71-.222-1.086.047-.288.062-.563.03-.832s-.113-.533-.258-.805c-.015-.027-.033-.057.026-.086.057-.033.074-.003.09.027zm-1.117 1.708c0 .308-.086.616-.24.924a4.23 4.23 0 0 1-.47.722c.098-.038.198-.077.296-.124a2.865 2.865 0 0 0 .873-.622c.121-.124.243-.269.367-.44.018-.027.039-.054.092-.016s.032.066.015.092a4.482 4.482 0 0 1-.38.456 3.099 3.099 0 0 1-.337.302 30.576 30.576 0 0 1 .086.426c.006.033.015.062-.05.077-.062.015-.071-.018-.077-.05-.02-.092-.033-.16-.047-.228-.01-.047-.018-.095-.03-.142-.154.11-.31.192-.462.263-.177.083-.352.145-.527.21-.056.021-.11-.056-.07-.103.248-.296.458-.59.603-.882.145-.29.228-.577.228-.865 0-.032 0-.065.065-.065s.065.033.065.065zm-1.358-.109v.293c0 .033 0 .065-.066.065s-.065-.032-.065-.065v-.293c0-.033 0-.065.065-.065s.066.032.066.065z"/><path d="M653.263 141.973c.178.436.225.841.157 1.22-.065.379-.246.731-.515 1.063l-.009.008c-.257.222-.45.489-.592.788a3.264 3.264 0 0 0-.228.645 2.25 2.25 0 0 1 .228-.275 1.39 1.39 0 0 1 .636-.379c.273-.151.53-.317.77-.503.243-.19.468-.397.675-.63.02-.024.044-.048.092-.007s.026.065.006.092c-.213.24-.444.453-.693.645s-.512.364-.793.518l-.015.006c-.243.065-.43.19-.586.347s-.281.352-.403.553c-.032.053-.13.018-.118-.044.065-.367.163-.714.31-1.027s.35-.592.622-.826c.255-.314.424-.645.486-1s.017-.738-.151-1.15c-.012-.029-.024-.058.035-.085.06-.024.074.006.086.036zm2.762 4.429c-.042.118.044.228.219.452l.118.154c.234.311.32.663.326 1.033.006.362-.062.737-.133 1.102-.012.062-.119.059-.128-.003a2.234 2.234 0 0 0-.482-1.075c-.255-.32-.595-.604-.986-.864-.026-.018-.053-.036-.018-.092.036-.053.063-.035.09-.018.402.27.751.563 1.015.894.2.252.352.524.44.823.045-.257.078-.515.075-.764-.006-.343-.086-.669-.3-.956-.044-.062-.082-.11-.115-.15-.204-.264-.302-.391-.24-.575.012-.03.021-.062.083-.041s.05.053.042.083zm1.178-.077c.047.05.098.1.145.154.047.05.098.1.145.153.024.024.044.048-.003.092s-.071.021-.092-.003c-.047-.05-.097-.1-.145-.154-.047-.05-.097-.1-.145-.154-.02-.023-.044-.047.003-.091s.071-.021.092.003zm1.444.464c-.091.29-.18.578-.269.868l-.272.867c-.01.032-.018.062-.08.041-.062-.017-.054-.05-.042-.08.092-.29.18-.577.27-.867l.272-.867c.009-.033.018-.062.08-.045.062.021.053.05.041.083zm.817 4.846a.302.302 0 0 0 0 .216c.012.03.024.062-.038.083-.06.024-.071-.006-.083-.039a.433.433 0 0 1 0-.31c.012-.033.024-.063.083-.039.062.024.05.053.038.083zm-.858-1.424c-.039.151-.08.305-.118.456-.039.154-.077.305-.119.459-.009.032-.018.062-.08.047-.062-.018-.056-.047-.047-.08.038-.154.08-.305.118-.459l.119-.455c.009-.033.014-.063.08-.048.062.015.056.048.047.08zm-1.237-.006.112.113c.024.023.045.044 0 .091-.047.045-.07.024-.092 0l-.112-.112c-.024-.024-.045-.044 0-.092.047-.044.07-.023.092 0zm-1.454-.695c-.03.085-.059.171-.091.257-.03.086-.06.172-.092.258-.012.03-.021.062-.083.038-.06-.02-.05-.053-.039-.083.03-.086.06-.171.092-.257.03-.086.06-.172.092-.258.012-.032.02-.062.083-.041s.05.053.041.083zm-2.08 2.199a.866.866 0 0 0-.172.278c-.039.1-.06.204-.077.314-.006.032-.012.065-.074.053-.065-.012-.06-.041-.054-.074a1.88 1.88 0 0 1 .086-.337.96.96 0 0 1 .196-.32c.02-.024.044-.047.091-.003s.027.068.003.092zm-5.956 5.834a.828.828 0 0 1-.127.198 1.372 1.372 0 0 1-.199.193c-.023.02-.05.041-.091-.012-.042-.05-.015-.071.008-.092a1.02 1.02 0 0 0 .288-.34c.014-.03.026-.06.085-.036.06.027.045.056.033.086zm.932-.494a.44.44 0 0 1-.127.168.765.765 0 0 1-.201.116c-.033.012-.062.024-.083-.039-.024-.062.009-.074.038-.082.065-.024.122-.057.163-.092s.071-.077.092-.122c.012-.03.027-.059.086-.032s.044.056.032.086zm1.238-.755c-.021.035-.045.071-.077.106s-.077.072-.134.107c-.026.018-.056.036-.088-.02s-.006-.075.023-.09a.476.476 0 0 0 .169-.165c.018-.027.033-.056.089-.021.056.033.038.06.023.089zm1.861-4.843c-.059.175-.1.347-.115.518s-.006.344.03.512c.005.033.014.063-.048.077s-.07-.017-.077-.05c-.041-.183-.05-.37-.032-.553s.059-.367.121-.548c.012-.033.02-.062.083-.041s.05.053.041.082zm1.267-12.885c-.006.146-.044.288-.112.43s-.166.28-.293.42c-.021.024-.045.047-.092.003s-.027-.068-.003-.092c.118-.13.21-.26.272-.388a.959.959 0 0 0 .098-.378c0-.033.003-.066.068-.063s.062.036.062.068zm-1.293-1.142c.112.195.18.394.219.592.038.195.047.394.035.589 0 .033-.003.065-.068.062s-.062-.035-.062-.068a2.2 2.2 0 0 0-.032-.556c-.036-.184-.101-.37-.205-.554-.015-.027-.032-.056.024-.089s.074-.003.089.024zm-1.714 2.125a1.887 1.887 0 0 1-.506-.52.815.815 0 0 1-.119-.545c.006-.033.012-.063.074-.054.065.012.06.042.054.074a.689.689 0 0 0 .1.46c.095.159.252.319.47.482.028.017.054.038.016.091s-.065.033-.092.015zm1.897 3.224v.28c0 .033 0 .066-.065.066s-.065-.033-.065-.065v-.281c0-.033 0-.065.065-.065s.065.032.065.065zm-2.424-2.442c.382.36.61.796.731 1.278.077.3.11.616.116.948.003 0 .008-.003.014-.003.172-.06.305-.214.397-.46.098-.26.148-.62.157-1.08 0-.003.006-.03.009-.032.136-.222.219-.447.275-.67s.083-.449.104-.677c.006-.056.083-.08.118-.033.222.314.417.64.568.99s.252.718.29 1.121c.003.033.006.065-.059.071s-.068-.027-.07-.06a3.629 3.629 0 0 0-.279-1.08 4.831 4.831 0 0 0-.453-.82 3.618 3.618 0 0 1-.089.521c-.056.231-.142.46-.28.69-.01.468-.063.838-.164 1.107-.106.287-.266.465-.476.536-.021.006-.039.012-.056.003-.003.16-.012.323-.024.488-.003.033-.006.065-.071.06s-.062-.039-.06-.072c.045-.538.033-1.05-.085-1.512a2.47 2.47 0 0 0-.696-1.217c-.024-.02-.047-.044-.003-.091s.068-.024.092-.003zm1.42 6.077c-.026.171-.052.34-.08.512l-.079.509c-.003.032-.009.065-.074.053-.062-.009-.06-.041-.053-.074l.08-.51.08-.511c.005-.033.008-.062.074-.053.062.011.059.041.053.074zm-2.728 1.157.07.388c.007.032.013.062-.053.074-.062.011-.07-.021-.076-.054l-.072-.387c-.005-.033-.011-.063.054-.074.062-.012.07.02.074.053zm2.359-3.132a2.836 2.836 0 0 1-.198.746c-.104.24-.246.474-.433.696l-.003.003c-.233.254-.346.518-.381.793s.003.562.08.855c.008.033.014.063-.048.08-.062.015-.07-.014-.08-.047a2.361 2.361 0 0 1-.083-.903c.039-.299.163-.589.415-.864.177-.21.313-.432.411-.66.098-.231.16-.468.19-.714.003-.032.008-.065.07-.056.066.009.06.042.057.074zm-.616-.917c.045.248.006.494-.098.743a2.77 2.77 0 0 1-.482.722l-.006.006c-.222.186-.379.39-.503.6a5.13 5.13 0 0 0-.308.66c-.012.03-.024.06-.086.036-.059-.023-.047-.053-.035-.083.091-.228.186-.456.316-.678s.296-.435.527-.63a2.62 2.62 0 0 0 .456-.684c.095-.222.13-.447.089-.666-.006-.032-.012-.062.053-.077.062-.012.071.021.077.054zm-3.01 1.43c.07.497-.006.923-.193 1.296-.183.373-.476.692-.834.98-.024.02-.05.041-.092-.012-.041-.05-.015-.071.012-.092.343-.275.624-.583.799-.935s.249-.752.18-1.223c-.002-.032-.008-.065.057-.074s.068.024.074.056zm-3.845 2.128c.038.076.074.153.11.23.04.083.08.163.118.246.015.03.026.06-.03.086-.06.027-.074 0-.086-.03-.038-.083-.08-.162-.118-.245-.036-.077-.074-.154-.11-.228-.014-.03-.026-.06.03-.086.06-.027.074 0 .086.03zm-1.525.03c-.003.292.021.582.092.86.074.279.193.548.388.806l.006.011c.098.199.154.397.192.598.027.148.045.296.054.444.186-.198.328-.4.432-.61.118-.242.18-.494.186-.754 0-.033 0-.065.065-.062.065 0 .065.032.062.065a1.958 1.958 0 0 1-.198.808 2.73 2.73 0 0 1-.56.749c-.038.038-.106.012-.109-.045-.009-.192-.024-.384-.059-.571s-.089-.373-.178-.56c-.2-.269-.328-.553-.405-.846s-.1-.592-.098-.897c0-.032 0-.065.065-.065s.065.033.065.065zm.208 5.206a3.284 3.284 0 0 1 .225-.956c.011-.03.023-.06.082-.036.063.024.048.053.039.083a3.153 3.153 0 0 0-.216.915c-.003.032-.003.065-.071.059-.065-.003-.062-.036-.06-.068zm-.178 1.45.08-.577c.003-.033.009-.065.074-.056s.06.041.056.074l-.08.577c-.003.032-.009.065-.074.056s-.059-.041-.056-.074zm-.998 2.43c.095-.094.187-.207.273-.331.089-.127.171-.267.254-.412.015-.03.033-.056.09-.026.055.032.04.059.023.089a5.179 5.179 0 0 1-.26.423c-.092.13-.187.248-.29.35-.024.023-.048.043-.092 0s-.021-.069 0-.093zm-1.441-8.154v.24c0 .032 0 .064-.065.064s-.065-.032-.065-.065v-.24c0-.032 0-.065.065-.065s.065.033.065.066zm-2.44 5.618c-.002-.06-.005-.119-.01-.178l-.013-.18c0-.033-.003-.066.062-.069s.068.027.068.063l.012.177c.003.06.006.119.012.178 0 .032.003.065-.062.068s-.068-.027-.068-.062zm6.125-9.993c-.124.429-.222.876-.213 1.258.006.37.11.677.376.85.31.2.447.502.577.795l.024.054c.038-.145.07-.3.086-.453.02-.19.02-.373-.006-.539-.006-.032-.012-.065.053-.077.062-.012.071.02.074.053.03.178.03.376.009.575a3.128 3.128 0 0 1-.14.642c-.017.053-.094.06-.118.009a7.426 7.426 0 0 1-.097-.213c-.122-.276-.249-.56-.53-.74-.308-.199-.43-.545-.438-.956-.006-.397.092-.856.219-1.297.009-.032.018-.062.08-.044s.053.047.044.08zm-.429-1.637a3.1 3.1 0 0 1-.027.953 5.003 5.003 0 0 1-.29.95 3.01 3.01 0 0 0-.207 1.25c.02.422.13.843.326 1.242.014.03.03.06-.03.086-.06.03-.074 0-.086-.03a3.168 3.168 0 0 1-.124-2.596c.13-.325.228-.627.281-.926.056-.296.068-.592.027-.911-.003-.033-.01-.066.056-.074.062-.01.068.023.074.056zm-2.845 4.049a.988.988 0 0 0-.074.586c.036.198.122.4.243.601.018.027.033.056-.02.089-.057.032-.075.006-.09-.024a1.878 1.878 0 0 1-.257-.645 1.094 1.094 0 0 1 .083-.66c.015-.03.027-.06.086-.033s.044.056.032.086zm-1.24-.444c.02.115.027.252.015.388a1.072 1.072 0 0 1-.089.337v.003a.496.496 0 0 0-.047.329c.023.115.083.23.163.349.017.027.035.053-.018.092s-.071.012-.092-.018a1.065 1.065 0 0 1-.183-.397.605.605 0 0 1 .059-.414.95.95 0 0 0 .077-.293 1.38 1.38 0 0 0-.012-.352c-.006-.033-.012-.065.053-.074.065-.012.071.02.074.053zm7.252-10.742a2.895 2.895 0 0 0 .39 1.832c.019.027.033.057-.023.09s-.07.002-.089-.024c-.162-.285-.287-.587-.358-.903s-.092-.651-.047-1.007c.003-.032.006-.065.07-.056.066.006.063.039.057.071zm-.909.88c.17.298.314.62.424.973s.183.74.21 1.17c.003.032.003.064-.062.067s-.065-.03-.068-.062a4.707 4.707 0 0 0-.616-2.084c-.015-.03-.033-.056.024-.088s.074-.003.088.023zm-4.505.138c-.435.62-.624 1.122-.66 1.557-.035.433.08.794.252 1.128l.003.009c.118.343.171.684.163 1.027-.006.34-.077.684-.199 1.024-.012.033-.02.062-.083.039-.062-.02-.05-.053-.038-.083a3.13 3.13 0 0 0 .192-.983 2.808 2.808 0 0 0-.154-.977c-.18-.352-.302-.737-.263-1.192s.234-.983.684-1.623c.017-.026.038-.053.091-.017.054.038.036.065.015.091zm4.2-1.781a.917.917 0 0 1-.065.57c-.077.175-.21.341-.408.498-.201.157-.32.361-.373.607-.056.251-.044.545.018.873.006.033.012.065-.054.077-.062.012-.07-.02-.076-.053-.063-.347-.074-.654-.015-.924a1.14 1.14 0 0 1 .42-.68 1.23 1.23 0 0 0 .37-.448.792.792 0 0 0 .056-.49c-.006-.033-.015-.063.05-.078.063-.012.072.02.078.05zm-4.448.381c.086.276.088.545.009.814-.077.267-.237.53-.48.788l-.006.006a1.51 1.51 0 0 0-.465.719c-.091.281-.124.595-.142.92-.003.033-.003.066-.068.063s-.062-.036-.062-.068c.018-.335.053-.658.148-.954s.249-.562.5-.775c.228-.243.376-.488.45-.734a1.262 1.262 0 0 0-.009-.74c-.009-.033-.02-.062.042-.08s.07.012.08.044zm2.545.134a.953.953 0 0 0 0 .29c.015.091.05.18.11.266.018.027.035.053-.018.092-.053.035-.071.012-.092-.018a.784.784 0 0 1-.13-.317 1.02 1.02 0 0 1 0-.328c.003-.033.009-.065.074-.056s.06.041.056.074zm-.121-.67a1.065 1.065 0 0 0-.539.5c-.124.235-.198.537-.222.907.015.017.024.032.024.044.124.169.21.37.263.595.06.246.08.524.071.826 0 .032-.003.065-.068.062s-.062-.036-.062-.065a3.027 3.027 0 0 0-.068-.793 1.527 1.527 0 0 0-.225-.524c-.482.45-.72.947-.734 1.489-.018.565.204 1.18.63 1.838.018.026.036.056-.017.091s-.071.006-.09-.02c-.44-.681-.668-1.32-.65-1.912.017-.584.272-1.116.796-1.596v-.003c.02-.405.1-.737.24-.997.142-.264.34-.45.604-.56.03-.012.059-.023.085.036.024.059-.006.074-.035.086zm-.722-.935c-.006.054-.012.095-.015.14-.033.307-.065.654-.3.864-.13.115-.212.251-.271.396-.06.151-.09.314-.11.486-.003.032-.006.065-.071.056-.065-.006-.06-.038-.056-.074.02-.18.056-.355.118-.518a1.15 1.15 0 0 1 .305-.447c.195-.175.231-.497.258-.778l.014-.143c.003-.032.01-.065.074-.056s.06.042.057.074zm7.071 7.545c.077.16.14.326.18.495s.063.343.054.524c0 .032-.003.065-.068.062s-.062-.036-.062-.068a1.79 1.79 0 0 0-.048-.489 2.427 2.427 0 0 0-.174-.467c-.015-.03-.027-.06.032-.086s.071 0 .086.03zm.02 2.32c.057.267.06.54.013.812s-.148.55-.296.832l-.3.701c-.014.03-.026.06-.085.036s-.047-.056-.036-.086c.101-.234.199-.47.3-.705l.002-.005c.145-.27.24-.533.287-.794a2.006 2.006 0 0 0-.011-.763c-.006-.033-.012-.066.05-.077.062-.015.07.017.077.05zm-1.473-2.16c.423.47.698.968.829 1.492.133.524.118 1.074-.042 1.649-.009.032-.018.062-.08.044s-.053-.047-.044-.08c.154-.553.169-1.08.041-1.583s-.393-.983-.802-1.439c-.02-.024-.041-.047.006-.092s.071-.018.092.006zm-.13 2.605a6.544 6.544 0 0 1-1.083 1.652 3.146 3.146 0 0 0-.673 1.172c-.018.059-.13.038-.124-.024.012-.195-.012-.39-.065-.586s-.142-.394-.26-.589v.003c-.237-.35-.338-.702-.32-1.05.02-.35.16-.696.408-1.043.142-.243.243-.488.314-.73s.106-.49.115-.735c0-.033.003-.065.068-.062s.063.035.063.068a3.258 3.258 0 0 1-.45 1.527l-.003.006c-.234.329-.367.654-.385.977-.018.326.08.648.299.974l.003.003c.124.207.216.414.275.624.027.098.047.196.06.293a3.31 3.31 0 0 1 .586-.909c.242-.269.446-.541.618-.81.175-.273.32-.542.444-.811.015-.03.027-.06.086-.033s.044.056.032.086zm-3.863-1.243c-.01.322.02.624.086.908.065.282.171.545.32.788.017.026.032.056-.021.089-.057.035-.072.006-.09-.021a2.815 2.815 0 0 1-.334-.823 3.74 3.74 0 0 1-.089-.941c0-.033.003-.065.066-.062.065.003.065.035.062.065zm-2.2 1.178v.379c0 .032 0 .065-.065.065s-.065-.033-.065-.065v-.38c0-.032 0-.064.065-.064s.065.032.065.065zm.729-2.01c.006.222-.024.438-.092.645-.071.207-.18.406-.34.592-.021.024-.042.05-.092.006-.05-.041-.027-.065-.006-.092a1.62 1.62 0 0 0 .314-.55 1.71 1.71 0 0 0 .085-.601c0-.033-.003-.065.063-.065s.065.032.065.062zm-1.98 3.901c-.356-.885-.442-1.586-.353-2.158a2.453 2.453 0 0 1 .705-1.373c.233-.24.438-.477.57-.773s.196-.65.149-1.13c-.003-.033-.006-.065.06-.071s.064.026.07.059c.047.503-.018.879-.16 1.196-.139.313-.352.562-.595.81a2.337 2.337 0 0 0-.669 1.303c-.085.55 0 1.231.347 2.093.012.03.023.059-.036.083s-.074-.006-.086-.036zm-1.143-1.453a.9.9 0 0 0-.056.43c.014.141.068.286.156.431.018.027.036.056-.02.089-.057.036-.071.006-.09-.02-.097-.16-.156-.323-.174-.486s.003-.326.065-.489c.012-.03.024-.059.083-.038.062.024.048.053.039.083zm5.618-3.99c.234.328.37.669.397 1.024s-.054.722-.255 1.104c-.015.027-.03.056-.086.027-.06-.03-.041-.06-.027-.086.19-.358.267-.702.24-1.033-.023-.332-.154-.651-.373-.96-.02-.026-.038-.053.015-.091s.071-.012.092.015zm1.755-1.374a3 3 0 0 1 .089 2.087c-.018.06-.124.048-.127-.018-.012-.325-.08-.618-.202-.876s-.302-.48-.535-.669c-.024-.02-.05-.041-.01-.091s.066-.03.093-.01a2 2 0 0 1 .57.714c.08.169.14.352.175.548a2.99 2.99 0 0 0 .048-.649 2.809 2.809 0 0 0-.22-.988c-.011-.03-.023-.06.036-.086.06-.024.074.006.086.035zm1.042-1.423c.231.228.394.53.494.902.098.367.134.8.116 1.294v.003a2.59 2.59 0 0 0-.009.604c.02.186.074.358.172.512.017.026.035.056-.018.092-.056.035-.074.005-.092-.021a1.325 1.325 0 0 1-.192-.568 2.847 2.847 0 0 1 .009-.634v.003c.017-.482-.018-.903-.11-1.255-.095-.35-.246-.63-.459-.844-.023-.023-.047-.044 0-.091.045-.048.068-.024.092 0zm-2.765-.276c-.15.184-.242.4-.287.64a2.42 2.42 0 0 0 .006.799c.006.032.012.062-.053.074-.062.012-.068-.02-.074-.053a2.527 2.527 0 0 1-.006-.844c.047-.26.151-.494.314-.699.02-.023.041-.05.092-.008s.03.065.008.091zm-5.42 3.65c-.023.539-.18.977-.431 1.338-.252.358-.595.642-1.001.879-.027.018-.056.033-.089-.024s-.006-.07.024-.088c.388-.228.72-.5.959-.844.24-.34.388-.755.411-1.267 0-.032.003-.065.068-.062s.063.035.063.068zm-.138-1.865c.03.201.017.397-.027.592a2.713 2.713 0 0 1-.22.583c-.014.03-.029.057-.085.03-.06-.03-.044-.06-.03-.086.095-.19.17-.373.21-.553s.054-.359.027-.545c-.003-.033-.009-.065.056-.074s.072.024.074.056zm3.67-.27v.184l.062.953.006.086c.003.033.003.065-.06.071h-.02c-.009.012-.024.018-.053.018-.065 0-.065-.032-.065-.065v-1.054l-.018-.257c-.003-.033-.006-.065.06-.071.064-.003.067.026.07.059v.02c.015.012.015.033.015.054zm.885-1.636c-.26.317-.364.622-.37.92s.086.598.222.894c.308.495.408.986.376 1.48-.03.492-.192.98-.409 1.469-.014.03-.026.059-.085.032s-.045-.056-.033-.086c.213-.473.367-.95.397-1.423.03-.471-.065-.939-.358-1.41l-.003-.005c-.145-.314-.243-.63-.237-.956.006-.329.121-.66.4-1 .02-.025.04-.051.091-.01s.03.065.009.092zm-5.692-10.15c.43-.328.85-.515 1.29-.562.439-.045.891.05 1.383.28.163-.002.325-.002.488-.005.166-.003.335-.006.5-.006.033 0 .066 0 .066.065s-.033.065-.066.065c-.168.003-.334.006-.5.006l-.45.006-.009.009c-.526.465-.976.72-1.376.802a1.323 1.323 0 0 1-1.09-.237c-.032-.023-.064-.047-.02-.112s.08-.044.112-.02c.29.2.604.283.965.21.35-.075.746-.29 1.211-.684-.426-.187-.817-.26-1.193-.222-.408.041-.805.219-1.21.53-.033.023-.066.047-.113-.015-.047-.065-.018-.09.015-.113z"/><path d="M639.01 126.134a.327.327 0 0 1 0 .651c-.177 0-.325-.144-.325-.325s.145-.326.326-.326zm2.241 1.969c.234-.121.415-.252.566-.385a2.69 2.69 0 0 0 .367-.405c.018-.027.038-.054.092-.015s.032.065.014.092c-.106.145-.23.29-.384.429-.157.139-.347.272-.592.4-.03.014-.06.029-.086-.027-.03-.057-.003-.074.026-.086zm4.621-1.912a.651.651 0 0 1 .361.003.957.957 0 0 1 .35.192c.023.02.05.042.008.092s-.065.03-.091.009c-.101-.083-.205-.14-.302-.166s-.196-.027-.293-.003c-.033.009-.063.018-.08-.047-.018-.063.014-.071.044-.08zm-2.643.106c.103-.237.26-.417.476-.533.213-.112.483-.16.811-.13.033.003.065.006.06.071s-.039.062-.072.06c-.304-.027-.55.014-.74.115a.909.909 0 0 0-.417.47c-.012.03-.027.06-.086.033s-.047-.056-.032-.086zm.302.432a.529.529 0 0 1 .145-.299.697.697 0 0 1 .334-.183c.033-.009.062-.018.08.044s-.015.071-.044.08a.556.556 0 0 0-.273.148.432.432 0 0 0-.11.231c-.005.033-.011.062-.073.053s-.06-.041-.053-.074zm-4.399 1.463a1.991 1.991 0 0 0-.183.352 1.027 1.027 0 0 0-.06.414c.003.033.006.065-.059.068s-.068-.026-.07-.059a1.18 1.18 0 0 1 .064-.467c.048-.137.119-.261.196-.38.017-.026.035-.056.088-.02.057.035.039.062.021.089zm1.261.565v.195c0 .033 0 .066-.065.066s-.065-.033-.065-.066v-.195c0-.033 0-.065.065-.065s.065.032.065.065zm-.82-1.409c.13.047.258.071.388.074.13 0 .263-.018.394-.047.032-.006.062-.015.077.047s-.018.071-.048.08a1.747 1.747 0 0 1-.426.05 1.243 1.243 0 0 1-.432-.083c-.033-.011-.062-.023-.039-.082.024-.063.054-.048.083-.039zm.811-2.365a.397.397 0 0 0-.26.08.471.471 0 0 0-.163.237c-.009.032-.018.062-.08.044s-.053-.05-.044-.08a.614.614 0 0 1 .21-.302.537.537 0 0 1 .34-.106c.033 0 .065.003.065.065 0 .065-.032.065-.065.065zm-1.311.133a.995.995 0 0 0-.234.136.318.318 0 0 0-.104.142c-.011.033-.02.063-.082.042s-.05-.05-.042-.083a.46.46 0 0 1 .145-.201c.068-.056.157-.11.27-.157.03-.012.059-.024.082.035.027.06-.003.074-.035.086zm-.808.024c-.08.056-.148.115-.204.183s-.101.145-.134.228c-.011.03-.02.063-.083.039-.059-.02-.05-.053-.038-.083.036-.098.089-.187.154-.266s.142-.148.23-.21c.027-.018.054-.036.093.017s.011.071-.018.092zm-1.04.832c-.085.065-.168.136-.248.219s-.154.171-.225.27c-.018.026-.038.052-.092.014s-.032-.065-.014-.092c.074-.103.154-.198.236-.284s.172-.163.264-.23c.027-.022.053-.04.092.01.038.054.012.072-.015.093zm.104 1.145c-.062.068-.124.136-.186.201l-.19.202c-.02.023-.044.047-.091.003s-.027-.068-.003-.092l.186-.201.19-.202c.02-.023.044-.047.091-.003s.027.069.003.092zm-1.05.305v.403c0 .032 0 .065-.065.065s-.066-.033-.066-.065v-.403c0-.032 0-.065.066-.065s.065.033.065.065zm1.346 1.77-.062.66c-.003.021-.003.042-.006.062-.003.033-.006.066-.07.06s-.063-.039-.06-.071l.006-.063.062-.66c.003-.032.006-.065.071-.059s.062.039.06.071zm-.79-.586c-.003.142-.009.287-.015.43 0 .032-.003.064-.068.061s-.062-.035-.062-.065c.003-.145.009-.287.015-.432 0-.032.003-.065.068-.062s.062.036.062.068zm-.734-5.606a.91.91 0 0 1 .583.583c.012.033.02.062-.041.083s-.071-.012-.083-.042a.81.81 0 0 0-.196-.316.87.87 0 0 0-.31-.19c-.03-.012-.06-.023-.039-.083.024-.062.053-.05.083-.038zm6.447 8.406c.124.281.192.563.195.84.006.282-.05.563-.168.844-.012.03-.024.06-.083.036s-.048-.056-.036-.086c.11-.263.163-.527.157-.79a1.971 1.971 0 0 0-.183-.79c-.015-.03-.027-.06.032-.086s.074.003.086.032zm-2.102 2.43c.092-.316.225-.592.38-.843s.328-.48.502-.705a2.23 2.23 0 0 0 .406-.834c.077-.314.08-.64.024-.948-.006-.032-.012-.062.053-.074.062-.011.07.021.074.054.06.325.056.666-.024 1-.074.308-.213.61-.429.885a7.888 7.888 0 0 0-.494.693c-.148.243-.279.509-.364.81-.01.033-.018.063-.08.045s-.054-.047-.045-.08zm-2.702-.713c.044-.118.11-.222.198-.314s.198-.168.329-.23c.03-.015.059-.027.086.029.026.06 0 .074-.033.086a.993.993 0 0 0-.293.204.715.715 0 0 0-.169.27c-.012.029-.023.062-.083.038-.059-.02-.05-.053-.038-.083zm-.524-.19c.1-.13.201-.251.317-.358a1.33 1.33 0 0 1 .405-.263c.03-.012.06-.024.083.036.024.062-.006.074-.038.082-.14.057-.258.14-.365.237-.109.1-.207.222-.301.344-.021.026-.039.053-.092.011-.053-.038-.033-.065-.012-.091zm2.8-2.776c.113.05.22.074.323.077s.204-.012.302-.038c.032-.01.062-.018.08.044s-.015.071-.045.08a.994.994 0 0 1-.71-.044c-.03-.015-.06-.027-.033-.086s.056-.045.086-.033zm-1.394-.18c.032-.039.065-.074.098-.113l.011-.015c.021-.023.045-.047.092-.006.048.045.027.068.006.092l-.012.015a3.442 3.442 0 0 1-.1.112c-.021.024-.042.048-.092.006-.047-.041-.027-.068-.006-.091zm30.145 8.696c.062.068.115.14.162.216.045.077.08.157.11.243.012.032.02.062-.042.08-.062.02-.07-.012-.082-.042a.948.948 0 0 0-.098-.216.995.995 0 0 0-.145-.192c-.02-.024-.045-.048.003-.092s.07-.02.092.003zm-33.466 15.706c.142.13.29.248.453.331.16.08.337.13.538.13.033 0 .066 0 .066.066s-.033.065-.066.065a1.33 1.33 0 0 1-.598-.145 2.2 2.2 0 0 1-.482-.35c-.024-.02-.047-.044-.003-.091s.068-.027.092-.003z"/><g fill="red"><path d="M660.565 124.394c.743.033 1.46.003 2.07-.098-.652.471-1.483.788-2.38.936.174-.136.287-.279.337-.424a.532.532 0 0 0-.027-.414zm-1.773-.184c.483.08.983.137 1.477.17.006.011.015.02.021.032.08.11.104.216.068.32-.041.118-.154.242-.337.37-.05.035-.1.07-.03.168a7.032 7.032 0 0 1-1.515.027c.017-.01.035-.027.05-.042.18-.19.296-.384.329-.589a.783.783 0 0 0-.063-.453zm-13.1-3.765c.834-.11 1.684-.136 2.548-.115.284.115.494.284.625.506.142.249.192.574.133.98-.01.059-.018.121.103.136.122.018.13-.044.137-.104.065-.461.005-.837-.163-1.133a1.306 1.306 0 0 0-.32-.367c.077.003.154.006.23.012.995.053 1.768.337 2.632.766.006.006.015.015.021.024.184.192.246.39.216.595-.032.216-.163.45-.37.69-.038.047-.08.091.015.171.092.08.133.033.172-.015.233-.275.387-.547.426-.814a.87.87 0 0 0-.045-.435c.729.361 1.469.708 2.188 1.087.015.008.03.014.044.023a.14.14 0 0 0 .012.048.605.605 0 0 1-.065.53c-.11.156-.308.292-.595.399-.056.02-.112.041-.071.157.041.112.1.092.157.071.337-.127.574-.29.71-.491a.789.789 0 0 0 .134-.566c.476.258.953.524 1.441.758l.003.003c.086.172.1.326.033.468-.071.15-.237.293-.5.423-.054.027-.11.053-.057.163s.11.083.163.056c.317-.157.518-.337.613-.539a.68.68 0 0 0 .053-.432c.169.074.34.145.515.21.47.175 1.039.326 1.649.438a.078.078 0 0 0 .014.018c.113.157.151.308.125.453-.027.15-.119.305-.267.459-.041.044-.083.086.003.171.015.015.027.024.039.033-1.85-.19-3.496-1.074-5.219-1.74-.204-.08-.411-.157-.615-.237-.637-.24-1.28-.566-1.918-.826a.2.2 0 0 0-.083-.042c-.045-.014-.086-.03-.13-.041-.027-.012-.057-.02-.083-.033l.011.01a10.587 10.587 0 0 0-1.77-.415 7.633 7.633 0 0 0-2.03-.02l-.113-.019c.06-.364.012-.683-.168-.962a1.563 1.563 0 0 0-.587-.518z"/><path d="M642.663 121.26c.85-.37 1.711-.607 2.59-.752.403.16.67.355.82.586.145.228.18.494.13.802a5.242 5.242 0 0 0-2.297.281c-.195-.411-.458-.66-.766-.796a1.552 1.552 0 0 0-.477-.125zm9.315 4.712a11.758 11.758 0 0 0-.698-.418c-1.152-.633-2.472-1.024-3.795-1.074.012-.009.02-.02.033-.03.47-.48.574-.932.414-1.355-.124-.329-.411-.634-.808-.91.444-.023.856.004 1.317.069.651.092 1.495.31 2.265.622.19.414.242.778.16 1.086-.086.322-.329.592-.72.814-.053.03-.106.059-.047.166s.112.077.166.044c.453-.255.73-.574.834-.965.08-.302.057-.64-.077-1.015.521.234.992.512 1.32.817.43.296.853.595 1.267.908.003.527-.15.826-.405.983-.27.163-.654.184-1.092.14-.06-.007-.122-.013-.134.109v.006z"/><path d="M654.512 127.878c-.77-.601-1.521-1.228-2.33-1.77.448.035.847 0 1.15-.18.292-.181.485-.495.517-1.007.483.373.947.767 1.388 1.19.222.21.444.417.672.621 0 .003.003.006.003.012.054.19.071.352.057.489a.574.574 0 0 1-.14.328.684.684 0 0 1-.34.193c-.216.062-.497.074-.844.035-.056-.006-.115-.012-.13.092z"/><path d="M657.167 129.627a14.372 14.372 0 0 1-.766-.423 16.884 16.884 0 0 1-1.685-1.166c.332.026.61.009.835-.054a.936.936 0 0 0 .456-.263.805.805 0 0 0 .201-.468 1.152 1.152 0 0 0-.003-.266c.53.453 1.087.873 1.688 1.24.313.193.63.373.944.542-.003.02 0 .041.003.065.038.243-.098.397-.347.494-.29.116-.722.163-1.216.193-.056.003-.11.006-.116.1z"/><path d="M660.003 130.74c-.9-.245-1.77-.589-2.566-.977.456-.032.858-.085 1.148-.2.329-.131.518-.332.506-.655.527.266 1.054.497 1.59.687.095.21.1.382.012.527-.107.177-.34.325-.63.452-.057.024-.113.05-.063.16v.003z"/><path d="M665.911 130.14c.077-.012.55-.137.305.044-1.74 1.14-3.949 1.136-6.03.6.323-.144.587-.319.72-.538a.71.71 0 0 0 .07-.554c.664.216 1.336.37 2.028.46a.47.47 0 0 1-.109.316c-.11.136-.296.27-.6.402-.057.024-.113.048-.063.16.047.113.104.086.16.062.343-.15.565-.31.695-.473a.686.686 0 0 0 .163-.441c.856.092 1.74.08 2.664-.042zm-12.035 29.981c-.13.136-.24.287-.346.465-.507.169-.954.42-1.498.397 0 .352.115.506.467.509.672-.338.823-.4.883-.353.082.071-.095.554-.652.945-.086.053-.083.086-.032.174.47.737 1.705.474 2.368.3.473-.125 1.329-.687 1.566-1.161.091-.216-.116-.5-.323-.731-.524.08-.705-.163-.622-.332-.553-.195-1.169-.236-1.811-.213zm-18.923-5.964a4.093 4.093 0 0 1-1.315.728c-.19.062-.648.175-.692.414-.006.086.308.273.509.163.556-.533.835-.237.195.308-.05.104-.009.219.1.317.578.518 2.008.686 2.659.275.482-.302.734-.633.314-1.092.003-.104.014-.204.032-.308l-.796-.08-.488-.284-.518-.441zm12.455 4.333c-.047.006-.097.012-.145.021-.257.278.45.175.826.405.172.104.246.308.178.592-.347.826-2.28.56-2.922.22-.299-.157-.31-.338-.299-.595.133 0 .27-.01.406-.03.23-.033.458-.1.683-.228.063-.035.128-.074.057-.198-.071-.128-.136-.092-.199-.057-.19.107-.384.166-.58.193a3.21 3.21 0 0 1-.607.02h-.05c-.112-.065-.198-.141-.15-.21.046-.065.233.006.268.018.3-.139.56-.228.883-.29.044-.044.085-.092.13-.136.589.05 1.151.14 1.524.275zm-8.936-.506c-.118.071-.16.172-.246.358-.337.34-.66.545-1.092.74-.358.163-.012.32.24.492.228.168.527-.199.713-.477.204-.308.412-.216.278.024a2.43 2.43 0 0 0-.269.84c-.077.213.734.376.873.382.495.024 1.116-.459 1.504-.704.323-.329.272-.616.13-1.016l.003-.026a2.461 2.461 0 0 1-.595-.06 4.287 4.287 0 0 1-.698-.23c-.03-.012-.06-.024-.036-.086.015-.039.033-.047.053-.045l-.852-.195zm3.46-32.945c.136-.006.273-.012.406.003.251.03.491.14.743.169.84-.317 1.536-.491 2.137-.465a7.094 7.094 0 0 1 2.158-.272c-.01-.006-.018-.015-.027-.024-.086-.086-.044-.13 0-.171.394-.4.485-.767.358-1.099-.13-.343-.485-.666-.98-.962-.526.06-1.033-.082-1.592-.02-.35.038-.693.115-1.03.228.281.1.527.266.728.503.249.293.426.692.521 1.196.012.059.02.118-.098.142s-.13-.039-.142-.098c-.086-.459-.245-.82-.467-1.083-.234-.335-.77-.465-.939-.533-.56.056-1.11.118-1.59.243-.36.091-.677.219-.92.408.361-.077.737-.062 1.063.1.31.155.574.445.74.915.02.057.038.116-.077.154s-.136-.017-.154-.077c-.14-.405-.358-.648-.616-.775-.512-.255-1.569-.033-2.016.299-.26.195-.52.447-.778.74-.027.032-.056.062-.092.065.96.065 1.924.115 2.67.414zm-2.844-.541c-.021-.054.014-.092.047-.13.27-.306.542-.575.823-.782.272-.201.553-.346.844-.414.296-.329.734-.527 1.243-.658.494-.127 1.06-.192 1.63-.248-.168-.34-.384-.545-.633-.654-.266-.119-.574-.137-.903-.104-.69.237-1.302.607-1.891 1.024.053 0 .107 0 .157.003.175.012.331-.015.476.042.06.02.116.041.074.156-.05.14-.432.054-.565.045a1.688 1.688 0 0 0-.5.047c-.03.006-.056.015-.083.006-.619.382-1.086.77-1.587 1.193.38.133.675.29.868.474z"/></g><g><path fill="#0093dd" d="m710.684 195.46 25.906-58.717-19.11-30.855-34.078 12.619-15.774 62.056a274.004 274.004 0 0 1 43.053 14.9z"/><path fill="#fff" d="M677.648 141.148a314.38 314.38 0 0 1 49.446 17.114l-9.996 22.665a289.696 289.696 0 0 0-45.554-15.765z"/><path fill="red" d="m718.706 177.286 6.678-15.134a310.434 310.434 0 0 0-48.778-16.884l-3.937 15.484a294.62 294.62 0 0 1 46.268 16.013l-.231.521z"/><path d="M681.413 157.06c.447-.28.923-.213 1.403-.136.388-.145.834-.195 1.32-.177a2.42 2.42 0 0 1 .72-.243c.144-.112.15-.234.02-.364-.121-.148-.19-.293-.198-.441-.77-.447-1.054-1.128-1.347-1.803-.438-.115-.643-.263-.69-.429-.213-.02-.423-.041-.633-.065-.998.11-1.255-.213-1.61-.477-.297-.097-.554-.26-.72-.57l-.328-.415c-.273-.347-.19-.805.222-.779.29.033.577.033.843-.083.311-.139.776-.136 1.128-.106.417-.024.68-.293 1.086-.672l-.006-.486c-.065-.174.018-.251.249-.227.542.017.864.272 1.083.633.63.11 1.128.411 1.463.941.837.003 1.403.32 1.47.63.051.229-.195.49-.574.767.003.057.006.116.006.172.225.195.373.39.45.583.471.18.92.423 1.341.779 1.199-.14 3.22.73 5.953 2.474 1.773.317 3.493.808 5.144 1.522.35.012.699.02 1.045.032 2.963-.438 5.834-.1 8.498 1.936 1.007.121 1.91.438 2.783.8.648.266 1.308.37 1.974.431 1.077.104 2.17.37 3.253.874 1.217.272 2.353.654 3.058 1.506.5.604.379 1.16-.258 1.391-.385.812-1.151.847-2.3.447-.79.145-1.66-.488-2.45-1.083-1.099-.352-2.108-.986-3.106-1.66-.518-.388-1.042-.634-1.55-.743-.4-.086-.758-.143-.998 0-.119.07-.104.112 0 .198.278.234.473.583.536 1.003.056.37-.003.797.017 1.25.024.476.311.822.79 1.118.33.202.72.415 1.285.495.27.053.347.21.338.414.15.722.29 1.45.553 2.105.074.186.216.275.43.432.73.527.352 1.116-.314 1.243-.583.515-1.087.861-1.685.997-.476.16-.671-.035-.831-.269a.603.603 0 0 1-.554-.308c-.583-.429-.086-1.175 1.308-.855.03-.163.148-.213.267-.21-.083-.361-.13-.764.027-1.14-.125-.08-.231-.18-.412-.24-.503-.16-.98-.39-1.356-.743-.713-.672-1.829-1.234-2.903-1.8-.888-.044-1.548-.452-2.244-.799-.314-.002-.628-.008-.941-.011-.276-.092-.5.003-.666.2-.279.338-.601.282-.983.238-.438-.05-.882-.018-1.32-.024-.216.053-.43.121-.663.124-.495-.026-.977-.032-1.306.243-.272.287-.544.266-.817.16-.204-.095-.352-.195-.438-.302-.343-.071-.565-.157-.639-.26-.577-.163-.74-.326-.713-.489-.767-.183-.403-.787.094-.808.586-.024 1.122.089 1.696.169.483.136 1.078.056 1.472-.3.254-.23.349-.428.66-.6-.992-.065-1.723-.24-2.262-.58-1.45-.915-2.61-1.137-3.534-.361-.246.139-.438.195-.702.094a1.328 1.328 0 0 0-.728-.035c-.524.118-1.042.053-1.566-.136-.766.192-1.53.234-2.297.077-.648.34-1.121.379-1.423.118-.284-.16-.554-.323-.808-.497-.412-.062-.59-.166-.607-.302-.527-.06-.592-.252-.59-.462-.218-.252-.135-.444.084-.607.39-.163.796-.222 1.246.01.27.126.468.25.63.378.3-.035.557 0 .782.083.166-.26.636-.272 1.151-.243.258-.171.566-.293.96-.328-.013-.063-.024-.125-.033-.184-.518-.136-.785-.512-1.042-.89-.796-.016-1.368-.35-1.936-.7-.468.04-.844-.115-1.208-.334-.296.024-.624.036-.935-.044a3.192 3.192 0 0 1-1.75 0c-.387.035-.698-.003-1.018-.033-.364.418-.772.492-1.22.278-.245-.31-.594-.515-1.035-.63-.335-.11-.438-.255-.498-.412-.408-.251-.325-.5.069-.69.296-.141.666-.168 1.228.11.183.068.388.116.619.134z"/><path fill="#fff" d="M700.931 163.01c-.039-.068-.121-.24-.42-.068-.927-.05-1.963-.038-2.741-.497-.811-.477-1.646-.974-2.543-.939.266-.251.598-.423.983-.526.515-.137 1.125-.145 1.8-.036.947.154 1.781.338 2.427.58.621.234 1.06.524 1.252.897a.507.507 0 0 0 .053.06c.249.16.465.322.645.494.136.127.255.26.355.402a3.121 3.121 0 0 1-.89-.053 3.59 3.59 0 0 1-.924-.32z"/><path d="m703.062 118.288.053.278 1.167 6.038-4.639 4.044-.213.186.27.095 5.813 2.01 1.181 6.038.056.278.213-.186 4.648-4.029 5.822 1.995.27.092-.054-.278-1.166-6.042 4.638-4.043.213-.186-.27-.092-5.813-2.013-1.18-6.038-.057-.279-.213.187-4.65 4.031-5.82-1.998z"/><path fill="#f7db17" d="m700.22 128.58 4.334-3.778 5.45 1.877zm10.506-2.04 4.348-3.78 5.431 1.88zm9.818-1.708-4.334 3.777-5.449-1.877zm-10.505 2.042-4.348 3.777-5.432-1.876zm-6.361-8.03 5.437 1.865 1.101 5.656zm7.021 8.075 5.446 1.877 1.09 5.644zm6.388 7.649-5.438-1.862-1.101-5.657zm-7.021-8.075-5.447-1.874-1.09-5.645zm3.774-9.526 1.104 5.642-4.349 3.78zm-3.484 10.118 1.098 5.656-4.343 3.768zm-3.431 9.36-1.104-5.643 4.348-3.78zm3.484-10.118-1.098-5.657 4.342-3.765z"/></g></svg>