<svg xmlns="http://www.w3.org/2000/svg" viewBox="0 0 128 128"><style>.st0{fill:#77a3ad}.st1{fill:#fff}.st2{fill:#ed6c30}.st3{fill:none;stroke:#77a3ad;stroke-width:4;stroke-linecap:round;stroke-linejoin:round;stroke-miterlimit:10}</style><path d="M64 105.1c-6.6 0-11.9-5.3-11.9-11.9V12.9C52.1 6.3 57.4 1 64 1c6.6 0 11.9 5.3 11.9 11.9v80.4c0 6.5-5.3 11.8-11.9 11.8z" class="st0"/><circle cx="64" cy="103.6" r="22.5" class="st0"/><circle cx="64" cy="103.6" r="16.9" class="st1"/><path d="M64 106.7c-3.8 0-6.9-3.1-6.9-6.9V14.2c0-3.8 3.1-6.9 6.9-6.9 3.8 0 6.9 3.1 6.9 6.9v85.6c0 3.8-3.1 6.9-6.9 6.9z" class="st1"/><path d="M64.2 99.8h-.3c-2.1 0-3.7-1.7-3.7-3.7V34.6c0-2.1 1.7-3.7 3.7-3.7h.3c2.1 0 3.7 1.7 3.7 3.7V96c0 2.1-1.7 3.8-3.7 3.8z" class="st2"/><circle cx="64" cy="103.6" r="12.4" class="st2"/><path d="M55.9 20.9h6.3m-6.1 16h6.3m-6.3 15.9h6.3m-6.3 15h6.3m-6.3 14.9h6.3" class="st3"/></svg>