<svg xmlns="http://www.w3.org/2000/svg" viewBox="0 0 128 128"><path fill="#e79a00" d="M8.484 32.03a4.378 4.378 0 0 1 .272 1.5 4.378 4.378 0 0 1-4.377 4.378v3.432a4.378 4.378 0 0 1 4.377 4.377 4.378 4.378 0 0 1-4.377 4.379v3.431a4.378 4.378 0 0 1 4.377 4.38 4.378 4.378 0 0 1-4.377 4.376v3.434a4.378 4.378 0 0 1 4.377 4.377 4.378 4.378 0 0 1-4.377 4.379v3.431a4.378 4.378 0 0 1 4.377 4.38 4.378 4.378 0 0 1-4.377 4.376v3.432a4.378 4.378 0 0 1 4.377 4.379 4.378 4.378 0 0 1-.268 1.5H85.23a4.378 4.378 0 0 1-.271-1.5 4.378 4.378 0 0 1 4.377-4.38 4.378 4.378 0 0 1 4.379 4.38 4.378 4.378 0 0 1-.268 1.5h26.069a4.378 4.378 0 0 1-.272-1.5 4.378 4.378 0 0 1 4.377-4.38v-3.43a4.378 4.378 0 0 1-4.377-4.378 4.378 4.378 0 0 1 4.377-4.379v-3.431a4.378 4.378 0 0 1-4.377-4.38 4.378 4.378 0 0 1 4.377-4.376v-3.434a4.378 4.378 0 0 1-4.377-4.377 4.378 4.378 0 0 1 4.377-4.379v-3.431a4.378 4.378 0 0 1-4.377-4.38 4.378 4.378 0 0 1 4.377-4.376v-3.432a4.378 4.378 0 0 1-4.377-4.379 4.378 4.378 0 0 1 .27-1.5h-26.07a4.378 4.378 0 0 1 .27 1.5 4.378 4.378 0 0 1-4.378 4.38 4.378 4.378 0 0 1-4.377-4.38 4.378 4.378 0 0 1 .27-1.5zm80.852 9.31a4.378 4.378 0 0 1 4.379 4.377 4.378 4.378 0 0 1-4.38 4.379 4.378 4.378 0 0 1-4.376-4.38 4.378 4.378 0 0 1 4.377-4.376zm0 12.187a4.378 4.378 0 0 1 4.379 4.38 4.378 4.378 0 0 1-4.38 4.376 4.378 4.378 0 0 1-4.376-4.377 4.378 4.378 0 0 1 4.377-4.379zm0 12.19a4.378 4.378 0 0 1 4.379 4.377 4.378 4.378 0 0 1-4.38 4.379 4.378 4.378 0 0 1-4.376-4.38 4.378 4.378 0 0 1 4.377-4.376zm0 12.187a4.378 4.378 0 0 1 4.379 4.38 4.378 4.378 0 0 1-4.38 4.376 4.378 4.378 0 0 1-4.376-4.377 4.378 4.378 0 0 1 4.377-4.379z" paint-order="stroke fill markers"/><text x="13.835" y="54.366" fill="none" stroke="#000" font-family="Comic Neue" font-size="11.374" font-weight="400" letter-spacing="0" style="line-height:7.10880852px;-inkscape-font-specification:'Comic Neue'" transform="scale(1.00251 .9975)" word-spacing="0"><tspan x="13.835" y="54.366" fill="#2f2f2f" stroke="none" stroke-width="1.696" font-size="8.341" font-weight="700" style="-inkscape-font-specification:'Comic Neue Bold'">Keynote</tspan><tspan x="13.835" y="62.233" fill="#2f2f2f" stroke="none" stroke-width="1.696" font-size="8.341" style="-inkscape-font-specification:'Comic Neue'">Emoji Theatre</tspan><tspan x="13.835" y="70.1" fill="#2f2f2f" stroke="none" stroke-width="1.696" font-size="6.824" style="-inkscape-font-specification:'Comic Neue'">10105 N Atanu Drive,</tspan><tspan x="13.835" y="78.346" fill="#2f2f2f" stroke="none" stroke-width="1.696" font-size="5.308" style="-inkscape-font-specification:'Comic Neue'">Pertinuco, AC 90641, ASU</tspan></text><text x="13.069" y="98.252" fill="none" stroke="#000" font-family="Comic Neue" font-size="8.081" letter-spacing="0" style="line-height:5.05040741px;-inkscape-font-specification:'Comic Neue'" transform="scale(1.06127 .94227)" word-spacing="0"><tspan x="13.069" y="98.252" fill="#2f2f2f" stroke="none">27.07.2018</tspan></text><rect width="19.925" height="55.781" x="96.651" y="36.109" fill="#fff" paint-order="stroke fill markers" rx="1" ry="1"/><path fill="#2f2f2f" d="M98.063 90.273v-.554h17.101v.554zm0-1.107v-.553h17.101v.553zm0-2.212v-1.106h17.101v1.106zm0-1.659v-.553h17.101v.553zm0-1.66v-.553h17.101v.553zm0-1.105v-1.66h17.101v1.66zm0-2.766v-.554h17.101v.554zm0-1.107v-1.659h17.101v1.66zm0-3.318v-.553h17.101v.553zm0-1.107v-1.106h17.101v1.106zm0-2.765V70.36h17.101v1.106zm0-1.659v-.554h17.101v.554zm0-1.66v-1.106h17.101v1.106zm0-1.659v-1.106h17.101v1.106zm0-1.659v-.553h17.101v.553zm0-1.107v-.553h17.101v.553zm0-1.106v-.553h17.101v.553zm0-2.212v-.553h17.101v.553zm0-1.66v-.553h17.101v.553zm0-2.212v-.553h17.101v.553zm0-1.659v-1.107h17.101v1.107zm0-2.213v-1.106h17.101v1.106zm0-1.659v-.553h17.101v.553zm0-1.659v-.554h17.101v.554zm0-2.213v-1.66h17.101v1.66zm0-2.212v-.553h17.101v.553zm0-1.66v-1.106h17.101v1.106zm0-1.658v-1.107h17.101v1.106zm0-2.213v-.553h17.101v.553zm0-1.107v-.553h17.101v.553z"/></svg>