<svg xmlns="http://www.w3.org/2000/svg" viewBox="0 0 128 128"><circle cx="73.12" cy="97.81" r="6.37" fill="#e5b35a" transform="rotate(-43.995 73.117 97.803)"/><path fill="#e5b35a" d="M79.32 96.34l-12.11 3.85-10.85-24.38 15-5.41z"/><path fill="#e5b35a" d="M98.28 100.22l-3.19 10.68-23.87-7.01 3.74-11.82z"/><g fill="#4568ad"><path d="M103.99 105.51l-2.8 9.3a3.4 3.4 0 01-4.25 2.28l-.16-.05a3.4 3.4 0 01-2.28-4.25l2.8-9.3a3.4 3.4 0 014.25-2.28l.16.05c1.81.54 2.83 2.44 2.28 4.25z"/><path d="M96.527 116.964l4.772-15.837 4.529 1.364-4.772 15.837z"/><path d="M96.632 105.68l1.65-5.477 3.677 1.108-1.65 5.477z"/></g><g fill="#4568ad"><path d="M34.02 125.55l-8.45-4.8a3.41 3.41 0 01-1.28-4.65l.08-.15a3.41 3.41 0 014.65-1.28l8.45 4.8a3.41 3.41 0 011.28 4.65l-.08.15a3.414 3.414 0 01-4.65 1.28z"/><path d="M24.515 115.706l14.378 8.174-2.338 4.112-14.378-8.174z"/><path d="M35.489 118.315l4.972 2.827-1.898 3.338-4.972-2.827z"/></g><g fill="#f4d598"><circle cx="48.64" cy="96.59" r="6.37" transform="rotate(-74.924 48.642 96.585)"/><path d="M53.08 101.15l-9.52-8.41 15.33-21.83L71.25 81z"/><path d="M40.39 121.27l-9.7-5.49 12.33-22.2 10.69 6.28z"/><circle cx="65.08" cy="75.96" r="7.97"/></g><path fill="#bf8f68" d="M46.873 67.696l-5.798-4.303 8.706-11.733 5.798 4.302z"/><circle cx="43.95" cy="65.53" r="3.66" fill="#bf8f68" transform="rotate(-11.246 43.932 65.519)"/><path fill="#3615af" d="M45.41 54.57l9.22 6.59 6.82-9.54a5.535 5.535 0 00-1.28-7.71l-.23-.16a5.535 5.535 0 00-7.71 1.28l-6.82 9.54z"/><path fill="#bf8f68" d="M32.207 70.402l-.736-7.182 12.306-1.26.736 7.182z"/><path fill="#bf8f68" d="M23.57 67.45l.02.23a4.58 4.58 0 005.01 4.11l2.58-.26a4.58 4.58 0 004.11-5.01l-.02-.23a4.58 4.58 0 00-5.01-4.11l-2.58.26a4.574 4.574 0 00-4.11 5.01zM57.78 30.92l2.59 10.16-7.51 2.9-7.84-19.28z"/><path fill="#bf8f68" d="M57.2 20.62l2.03 17.36-11.32 1.41c-5.26.66-10-3.22-10.4-8.51l-.48-6.41c-.45-5.92 4.32-10.94 10.25-10.8l2.36.06c3.89.1 7.11 3.03 7.56 6.89z"/><path fill="#704324" d="M58.99 32.35l-5.4-.32-.71-3.68a3.413 3.413 0 00-2.35-2.62l-.78 4.24c-1.25-.08-2.38-.8-2.97-1.91l-1.17-2.21a3.346 3.346 0 00-2.52-1.75l-6.06-.79s-.91-8.2 7.07-10.14c1.38-.33 2.75-.58 4.07-.77 6.14-.86 11.61 3.94 11.59 10.14a70.11 70.11 0 01-.77 9.81zm-17.3-4.36c.08.77-.38 1.45-1.02 1.51-.64.06-1.22-.51-1.29-1.28-.08-.77.38-1.45 1.02-1.51.64-.07 1.21.51 1.29 1.28"/><path fill="#651fff" d="M70.04 75.11L57.6 78.06c-2.38.56-4.76-.91-5.33-3.28l-3.06-22.97c-.41-3.75-.72-10.11 4.25-11.28l4.3-1.02c4.28-1.01 7.26 3.62 8.51 8.03l7.06 22.24a4.43 4.43 0 01-3.29 5.33z"/><g><path fill="#bf8f68" d="M79.703 55.924L76.1 62.182l-12.663-7.29 3.602-6.257z"/><circle cx="77.89" cy="59.07" r="3.66" fill="#bf8f68" transform="rotate(-17.88 77.9 59.072)"/><path fill="#3615af" d="M66.83 58.9l5.47-9.92-10.26-5.67a5.536 5.536 0 00-7.51 2.17l-.13.24a5.536 5.536 0 002.17 7.51l10.26 5.67z"/><path fill="#bf8f68" d="M86.903 68.645l-6.419 3.307-5.665-10.997 6.419-3.307z"/><path fill="#bf8f68" d="M87.3 77.76l.2-.1a4.579 4.579 0 001.99-6.17l-1.18-2.3a4.579 4.579 0 00-6.17-1.99l-.2.1a4.579 4.579 0 00-1.99 6.17l1.18 2.3a4.593 4.593 0 006.17 1.99z"/></g><path fill="#704324" d="M59.43 19.99s5.25-1.9 9.38 6.02c3.29 6.31 11.42 8.68 11.42 8.68s-8.3 2.17-15.42-1.95c-7.11-4.12-5.38-12.75-5.38-12.75z"/></svg>