<svg xmlns="http://www.w3.org/2000/svg" style="fill-rule:evenodd;clip-rule:evenodd;stroke-linejoin:round;stroke-miterlimit:1.41421" viewBox="0 0 128 128" xml:space="preserve"><path d="m125.785 6.237.008.003.713.715.007 1.018-.003.008-.136.333-.134.333-.268.67-.135.337-.136.338-.137.338-.14.34-.141.339-.144.339-.074.171-.074.17-.075.17-.076.17-.076.17-.078.17-.079.169-.08.17-.082.169-.082.17-.084.169-.085.168-.087.169-.088.168-.09.168-.091.168-.093.167-.094.167-.097.166-.098.166-.1.166-.102.164-.104.165-.106.164-.109.163-.11.162-.113.162-.115.161-.117.161-.12.159-.122.159-.125.157-.127.157-.13.156-.133.155-.135.153-.138.153-.142.151-.143.15-.145.147-.077.076-.075.074-.076.073-.077.073-.078.072-.078.073-.079.071-.081.073-.159.14-.161.139-.163.136-.163.135-.164.133-.166.131-.166.13-.168.127-.168.125-.169.124-.17.122-.171.12-.171.118-.172.117-.173.115-.174.113-.175.112-.175.11-.175.108-.177.107-.176.106-.178.104-.177.103-.179.101-.179.1-.179.098-.179.098-.18.096-.181.095-.18.093-.181.093-.181.091-.182.09-.182.089-.181.088-.182.087-.183.087-.182.085-.183.084-.182.083-.183.083-.183.082-.182.081-.185.08-.363.158-.365.156-.365.153-.364.151-.364.149-.362.148-.362.146-.36.145-.715.286-.711.286-.351.142-.349.142-.347.143-.344.143-.342.144-.339.145-.338.147-.165.073-.166.074-.165.074-.164.074-.163.075-.163.076-.161.076-.161.076-.16.077-.159.077-.157.078-.157.079-.156.079-.155.08-.154.08-.152.081-.152.081-.151.083-.149.083-.149.083-.147.085-.146.085-.145.086-.144.087-.143.087-.141.089-.14.089-.14.09-.138.091-.136.092-.136.093-.134.094-.134.095-.131.096-.131.097-.13.097-.128.099-.127.101-.126.101-.124.102-.124.103-.122.105-.121.106-.119.107-.119.108-.118.111-.072.07-.073.071-.073.073-.072.073-.071.074-.072.076-.07.076-.071.077-.07.078-.069.079-.069.08-.069.08-.068.082-.068.083-.067.083-.067.085-.067.085-.066.086-.065.087-.066.088-.064.089-.065.089-.064.091-.063.091-.063.092-.063.093-.062.094-.062.094-.061.095-.061.096-.06.097-.06.098-.059.098-.059.099-.059.1-.058.1-.058.102-.057.102-.056.102-.057.103-.056.104-.055.105-.055.105-.054.106-.054.107-.054.107-.053.107-.052.109-.052.109-.052.109-.051.11-.051.111-.05.111-.05.112-.049.112-.049.112-.049.113-.046.111-.096.232-.093.23-.091.232-.089.234-.088.235-.085.236-.084.238-.082.239-.08.24-.078.241-.077.242-.075.243-.073.243-.072.245-.07.244-.068.245-.067.246-.065.245-.063.246-.062.246-.06.246-.059.246-.057.245-.056.245-.054.245-.053.244-.052.244-.049.243-.049.242-.047.241-.046.241-.045.239-.043.238-.042.237-.042.242-.002.008-1.587 2.179-2.758.5-.018-.004-2.317-1.493-.531-2.594.002-.008.067-.251.07-.26.072-.261.073-.263.075-.264.077-.266.078-.268.081-.268.082-.27.084-.272.086-.272.088-.273.09-.274.092-.275.094-.275.096-.277.098-.276.1-.278.102-.277.105-.278.106-.278.109-.279.111-.278.114-.278.116-.278.118-.278.12-.277.124-.278.125-.276.128-.276.131-.276.133-.274.136-.274.139-.273.14-.269.074-.139.072-.135.073-.135.074-.135.075-.134.075-.134.076-.134.077-.134.078-.133.078-.132.08-.133.079-.132.081-.131.082-.131.082-.131.083-.13.084-.13.085-.129.085-.129.086-.128.088-.128.088-.128.088-.126.09-.127.091-.126.091-.125.093-.124.093-.124.094-.124.095-.123.096-.122.097-.121.097-.121.099-.121.1-.119.1-.119.102-.118.102-.118.104-.116.104-.116.105-.116.107-.114.107-.114.109-.112.109-.112.111-.111.111-.111.113-.109.113-.109.115-.107.116-.107.116-.105.118-.105.119-.104.12-.102.121-.102.122-.101.124-.1.176-.138.177-.137.178-.134.179-.132.18-.129.181-.128.181-.125.182-.122.182-.121.183-.118.184-.117.185-.114.184-.112.186-.11.185-.109.187-.106.186-.104.187-.103.188-.1.188-.099.188-.097.188-.096.189-.093.188-.093.189-.09.19-.089.189-.088.19-.086.189-.084.19-.083.19-.082.19-.081.19-.079.19-.078.19-.076.191-.076.19-.075.19-.073.19-.072.19-.072.19-.07.19-.069.189-.069.19-.068.19-.066.191-.067.376-.129.378-.127.376-.125.376-.122.375-.12.374-.119.373-.118.739-.231.736-.229.364-.114.363-.114.361-.115.359-.115.357-.116.355-.117.352-.118.352-.12.173-.06.173-.061.173-.061.172-.062.172-.062.17-.063.17-.064.17-.064.169-.064.168-.066.167-.066.167-.067.165-.067.166-.068.164-.069.163-.07.163-.071.162-.072.161-.072.161-.073.16-.075.158-.075.158-.076.157-.078.157-.078.155-.08.155-.08.154-.082.153-.083.152-.084.151-.085.151-.087.149-.087.149-.09.148-.09.147-.092.146-.093.145-.095.144-.096.144-.097.142-.1.142-.1.141-.103.141-.104.062-.047.064-.049.062-.049.063-.049.062-.049.061-.05.061-.051.059-.048.122-.105.119-.105.117-.106.116-.107.114-.11.112-.11.111-.113.11-.114.109-.115.107-.117.106-.119.105-.12.104-.122.102-.123.102-.125.1-.126.099-.127.098-.129.097-.131.096-.132.096-.133.094-.135.093-.136.093-.137.091-.138.091-.14.09-.141.089-.142.089-.143.088-.145.087-.145.087-.147.086-.148.085-.149.085-.149.085-.151.084-.152.084-.152.083-.153.082-.153.166-.312.163-.314.164-.316.162-.319.163-.321.163-.323.328-.65.166-.327.166-.326.004-.007.792-.694 1.042-.004.009.004z" style="fill:#555" transform="matrix(1.08614 0 0 1.15475 -9.829 -6.681)"/><path d="M59.93 10.84s3.01.94 4.1 1.43l26.84 28.3s.94 1.29 3.01 1.91l-.87 8.45-17.17 3.97-24.25-17.73-4.54-18.44 12.88-7.89zM7.29 47.96s-.67-5.68.32-10.08l22.8-25.95s.84-.56 4.23-1.33l9.57 3.88-3.26 27.09-27.09 21.84-6.57-15.45z" style="fill:#855c52;fill-rule:nonzero" transform="matrix(1 0 0 1.05119 0 -3.315)"/><path d="M126.17 44.5c-1.42-.73-3.05.38-4.28.98-6.37 3.05-11.68 5.11-18.92 3.43-1.96-2.3-4.41-4.19-7.13-5.63-.8-.42-1.8-.96-2.74-.82-.35.06-.52.34-.74.6-.89 1.07-1.54 2.36-2.54 3.32-.96.91-2.45 1.56-3.92 1.77-.14.01-.28.03-.42.03-6.53 0-9.22-6.72-10.83-10.73-.26-.64-.49-1.22-.71-1.7-1.08-2.3-3.15-3.51-6.43-5.31-.54-.3-1.08-.59-1.62-.9-2.03-1.15-3.6-2.35-4.81-3.68-2.36-2.59-3.4-5.67-3.08-9.15.19-2.1.88-4.09 1.93-5.87-2.22-.65-7.39-1.98-12.83-1.98-4.81 0-9.81 1.05-12.46 1.74 1.13 1.84 1.86 3.93 2.06 6.12.31 3.47-.73 6.55-3.09 9.15-1.21 1.32-2.78 2.53-4.8 3.67-.54.31-1.08.6-1.62.9-3.28 1.8-5.35 3.02-6.43 5.32-.23.48-.46 1.06-.71 1.7-1.61 4.01-4.31 10.72-10.88 10.72-.65-.01-1.27-.09-1.88-.22-.02.95-.04 1.9 0 2.86.63 12.04 4.54 24.43 13.16 32.14 1.84 1.65 3.93 3.01 6.12 4.22 0 0-.13 15.2-.28 19.33-.12 3.57-1.76 11.18 2.18 13.45 4.87 2.81 14.84 3.34 18.3-1.85 1.47-2.22 1.77-4.93 1.77-7.5 0-2.95.17-4.11.17-7.07 0-1.25-.47-3.57.47-4.55.56-.59 1.3-.45 2.01-.45 1.13 0 2.28-.12 3.41-.23 6.36-.65 5.84 2.39 6.38 6.89.39 3.27-.22 6.52-.48 9.81-.34 4.32 3.65 5.9 7.51 6.09 4.1.2 9.19-.25 12.82-2.31 3.8-2.17 2.32-5.58 2.18-9.11-.1-2.46-.3-4.92-.49-7.37-.15-2-.51-3.99-.41-6 .1-1.75-.29-4.79 1.93-5.52 1.57-.52 3.33 0 4.96-.31 2.4-.44 2.23 4.34 2.3 5.62.17 3.09-.28 5.32 2.58 7.2 3.4 2.24 9.06 1.65 12.74.57 6.68-1.97 4.46-7.7 4.78-12.95.32-5.07.3-10.09-.04-15.16-.35-5.27-1.04-10.63-2.58-15.65 3.02.82 6.31.84 9.25-.03 3.91-1.16 6.96-3.8 8.43-7.52.69-1.75 2.09-6.85-.29-8.06z" style="fill:#f79329;fill-rule:nonzero" transform="matrix(1 0 0 1.05119 0 -3.315)"/><path d="M27.46 62.56c-2.79-.02-5.04-2.63-5.02-5.85.02-3.2 2.29-5.79 5.07-5.78 2.78.01 5.03 2.64 5.01 5.85-.01 3.22-2.29 5.79-5.06 5.78zm29.92 18.97c-.24.6-.84.95-1.28 1.21l-.2.12c-2.14 1.29-5.37 1.11-7.58.07l-.23-.11c-.31-.15-.44-.21-.64-.21-.31.03-.6.15-.86.27-.21.09-.42.17-.6.23-2.15.68-4.5 1.13-6.67.31-.6-.23-1.41-.69-1.86-1.32-.32-.44-.44-1.04-.31-1.53.11-.42.39-.76.78-.96.78-.37 1.64-.04 2.19.25 1.38.74 3.76.79 4.91-.43.39-.42.58-1.03.54-1.81v-.2c-1.16-.05-2.27-.24-3.37-.64-3.37-1.21-4.31-4.29-2.96-7.17.2-.43.44-.82.71-1.18 1.44-1.87 3.79-2.72 6.5-2.85 3.13-.15 7.23.99 8.87 3.7 1.06 1.77.58 4.49-.78 6.01-1.25 1.42-3.5 1.82-5.56 1.99-.01.73-.02 1.51.27 2.01l.46.37c1.32.9 3.39 1.08 4.82.27l.25-.14c.22-.13.43-.25.68-.34.67-.25 1.41-.05 1.79.52.29.45.34 1.04.13 1.56zm9.78-18.97c-2.77.01-5.04-2.57-5.05-5.78-.02-3.21 2.23-5.83 5.01-5.85 2.77-.01 5.05 2.58 5.07 5.78.02 3.22-2.24 5.83-5.03 5.85z" style="fill:#2f2f2f;fill-rule:nonzero" transform="matrix(1 0 0 1.05119 0 -3.315)"/><path d="M74.18 87.56c-4.06 3.43-10.13 7.72-23.2 7.72-12.02 0-19.15-5.55-19.15-5.55s8.16 2.61 15.78 2.61c4.44 0 8.14-.35 11.91-1.39 5.82-1.59 10.24-4.71 12.33-6.2 3.05-2.17 9.29-7.41 13.05-19.8 0 .01-.55 14.02-10.72 22.61z" style="fill:#ffee1e;fill-rule:nonzero" transform="matrix(1 0 0 1.05119 0 -3.315)"/><path d="M49.756 92.805c.082-.299.017-.81-.191-1.255.397-1.78.262-2.003.444-2.996.932-5.08 1.67-14.55 1.67-14.55s3.529-.337 7.645 3.831a22.456 22.456 0 0 1-1.431 4.486c-1.385 3.093-3.728 5.816-6.58 7.999a1.271 1.271 0 0 0-.445.628c-.038.12-.082.245-.134.378-.841 2.15-1.318 4.03-2.287 6.125-1.064 2.302-2.073 4.432-4.078 6.089-1.297 1.071-2.637 2.197-4.216 2.807-4.074 1.575-7.374 1.864-12.962 1.173-8.968-1.109-11.408-5.206-11.408-5.206 2.357 1.147 3.764 2.388 5.784 2.972 2.758.797 5.312 1.607 8.188 1.651 5.925.09 6.824-.635 8.159-.98 1.953-.504 3.771-1.606 5.338-2.848 1.623-1.286 2.646-2.887 3.718-4.623 1.151-1.864 2.206-3.564 2.786-5.681z" style="fill:#dc3939" transform="matrix(1.70456 0 0 1.79182 -.344 -93.713)"/><path d="M6.3 43.05c.86.55 1.82.9 2.88.9h.02c.16 0 .31-.03.46-.04.13-.02.24-.01.34-.03.21-.04.4-.11.59-.17.05-.02.11-.03.15-.05.24-.09.47-.21.68-.35h.01c2.9-1.8 4.33-6.85 5.5-9.34 1.99-4.24 5.98-5.94 9.78-8.09 1.45-.82 2.76-1.76 3.77-2.85 1.4-1.54 2.22-3.44 2.01-5.91v-.02c-.04-.5-.13-.98-.25-1.45-.06-.24-.16-.47-.23-.71-.07-.21-.13-.42-.21-.62-.14-.34-.31-.67-.49-.99-.04-.08-.08-.16-.12-.23a11.035 11.035 0 0 0-.73-1.1c-.01-.02-.03-.03-.04-.04-.32-.42-.67-.81-1.05-1.18l-.11-.11c-.35-.34-.74-.65-1.14-.94l-.22-.16c-.36-.24-.75-.46-1.14-.66-.13-.06-.24-.14-.36-.19-.43-.19-.88-.35-1.33-.48-.08-.03-.16-.07-.24-.09-.95-.24-1.88-.4-2.8-.51-.29-.04-.58-.04-.87-.06-.49-.04-1-.1-1.48-.1-.11 0-.22.02-.32.02-.34.01-.66.04-1 .06-.52.04-1.04.08-1.54.16-.35.06-.69.13-1.03.21-.46.1-.92.21-1.37.35-.34.11-.68.22-1.01.35-.43.15-.84.33-1.25.52-.32.15-.65.31-.96.47-.39.21-.76.44-1.13.68-.3.19-.61.38-.9.58-.36.26-.71.55-1.05.84-.27.23-.54.44-.8.67-.36.35-.7.72-1.04 1.09-.4.43-.77.89-1.13 1.36-.29.37-.58.74-.84 1.13-.23.34-.42.71-.63 1.06-.2.34-.41.67-.59 1.03-.2.38-.37.78-.55 1.18-.15.35-.31.7-.45 1.06-.16.41-.3.84-.43 1.26-.12.36-.23.72-.33 1.09-.13.41-.24.86-.33 1.31-.08.36-.14.74-.2 1.11-.07.46-.14.93-.19 1.4-.04.36-.05.74-.07 1.11-.03.49-.06.97-.05 1.46 0 .36.04.71.05 1.06.03.51.05 1.03.11 1.55.03.27.09.54.14.82.09.57.16 1.13.28 1.7.63 2.78 2.37 7.02 5.2 8.86.01.01.02.02.03.02zM63.28 13.5c-.16.31-.3.61-.43.93-.07.17-.12.34-.18.51-.08.25-.17.5-.24.76-.1.41-.17.82-.22 1.25 0 .04-.02.09-.02.13-.23 2.49.59 4.39 2 5.93 1.02 1.1 2.34 2.03 3.78 2.85 2.08 1.18 4.21 2.23 6.05 3.63 1.52 1.16 2.84 2.54 3.74 4.46 1.07 2.3 2.38 6.78 4.85 8.87.03.03.06.04.09.07.18.14.36.28.54.4.07.04.14.07.2.1.16.09.32.18.49.25.1.04.2.06.31.09.15.04.29.1.44.13.13.03.26.03.39.04.14.02.27.04.4.04h.03c4.58-.02 7.27-6.15 8.1-9.78.07-.32.1-.64.16-.97.1-.54.2-1.08.27-1.62.05-.39.06-.77.08-1.15.03-.5.07-.99.07-1.49 0-.38-.02-.75-.03-1.13-.02-.49-.05-.98-.1-1.47-.04-.37-.09-.73-.14-1.1-.07-.49-.16-.97-.26-1.45-.07-.35-.15-.69-.24-1.03-.12-.49-.27-.97-.42-1.44-.11-.31-.21-.63-.33-.94-.18-.5-.4-.98-.62-1.45-.12-.27-.24-.55-.37-.81-.27-.53-.57-1.04-.88-1.54-.12-.19-.22-.38-.34-.57-.9-1.37-1.95-2.61-3.12-3.7-.16-.15-.34-.29-.51-.43-.44-.37-.87-.74-1.33-1.07l-.71-.47c-.43-.28-.86-.55-1.32-.79-.28-.15-.55-.28-.84-.41-.44-.21-.9-.4-1.37-.58-.3-.11-.61-.22-.92-.31-.48-.12-.97-.24-1.46-.35-.32-.07-.64-.14-.97-.19-.52-.08-1.04-.13-1.58-.16-.32-.02-.64-.06-.97-.06-.11 0-.21-.02-.32-.02-.48 0-.97.06-1.46.09-.3.03-.6.03-.9.06-.91.11-1.84.28-2.79.51-.56.15-1.11.36-1.63.59-.13.06-.25.14-.37.2-.4.21-.79.44-1.17.69-.1.07-.2.15-.3.22-.39.3-.77.62-1.12.97-.05.05-.11.1-.16.16-.39.41-.75.84-1.08 1.3l-.02.02s0 .01-.01.02c-.22.32-.42.65-.6.99-.06.08-.1.15-.14.22z" style="fill:#f79329;fill-rule:nonzero" transform="matrix(1 0 0 1.05119 0 -3.315)"/><path d="M73.802 99.542c.04-.157.11-.32.228-.473 2.792-3.727 3.719-9.053 3.345-12.603-.226-2.141-.744-4.231-1.156-6.358l.335-1.296 1.162-.684 1.286.337.681 1.142c.625 4.412.523 8.847-1.007 13.592-.71 2.167-1.606 4.285-2.994 6.048-.55-.01-1.094.012-1.61.183a1.932 1.932 0 0 0-.27.112z" style="fill:#dc3939;fill-rule:nonzero" transform="matrix(1.32054 0 0 1.38814 -13.775 -45.9)"/><path d="M91.557 39.497c1.219.394 2.674 1.034 4.278 2.068a140.845 140.845 0 0 0-.838 5.145c-.537 3.666-.366 7.456.95 10.953.052.14.109.279.168.415a36.222 36.222 0 0 1-2.931 4.09c-.12-.291-.235-.583-.345-.876-.953-2.537-1.365-5.136-1.732-7.806-.663-4.814-.575-9.344.45-13.989z" style="fill:#fff"/></svg>