<svg xmlns="http://www.w3.org/2000/svg" style="fill-rule:evenodd;clip-rule:evenodd;stroke-linejoin:round;stroke-miterlimit:1.41421" viewBox="0 0 128 128" xml:space="preserve"><path d="M16.81 24.67s0 23.19 2.99 33.97c1.47 5.31 3.31 8.66 7.72 5.35l17.1-.17c4.4 3.36 7.56.14 8.51-5.32 2.24-12.88 2.24-33.83 2.24-33.83H16.81z" style="fill:#6d4c41;fill-rule:nonzero"/><ellipse cx="36.08" cy="24.67" rx="19.28" ry="17.33" style="fill:#6d4c41"/><path d="m56.87 61.64.66 1.76c1.29 3.47 2.94 6.8 4.93 9.93l6.58 10c.93 1.42.64 3.32-.68 4.39a3.31 3.31 0 0 1-4.83-.74L47.77 63.37l-.32-4.08 9.42 2.35zm-41.44-.2-.66 1.76c-1.29 3.47-2.94 6.8-4.93 9.93l-6.58 10c-.93 1.42-.64 3.32.68 4.39a3.31 3.31 0 0 0 4.83-.74l15.75-23.61.32-4.08-9.41 2.35z" style="fill:#bf8f68;fill-rule:nonzero"/><path d="M36.08 49.82c-3.5-.01-7.9.4-10.24 1.02-7.29 1.94-9.08 5.37-11.26 11.26l21.5 8.19V49.82z" style="fill:#651fff;fill-rule:nonzero"/><path d="M32.82 55.66h5.31v15.77h-5.31z" style="fill:#651fff;fill-rule:nonzero"/><path d="M22.71 61.97h12.28v17.4H22.71z" style="fill:#651fff;fill-rule:nonzero"/><path d="M22.78 77.45 14.59 96.9h21.49V77.45h-13.3z" style="fill:#651fff;fill-rule:nonzero"/><path d="M22.78 98.95h9.21v28.66h-9.21z" style="fill:#bf8f68;fill-rule:nonzero"/><path d="M22.78 96.9h9.21v3.07h-9.21z" style="fill:#99674f;fill-rule:nonzero"/><path d="M33.22 128h-12v-2.5c0-2.21 1.79-4 4-4h4c2.21 0 4 1.79 4 4v2.5z" style="fill:#444;fill-rule:nonzero"/><path d="M36.08 49.82c3.5-.01 7.9.4 10.24 1.02 7.29 1.94 9.08 5.37 11.26 11.26l-21.5 8.19V49.82z" style="fill:#651fff;fill-rule:nonzero"/><path d="M36.087 61.978h13.31v17.4h-13.31z" style="fill:#651fff;fill-rule:nonzero"/><path d="m49.39 77.45 8.19 19.45h-21.5V77.45h13.31z" style="fill:#651fff;fill-rule:nonzero"/><path d="M40.182 98.953h9.21v28.66h-9.21z" style="fill:#bf8f68;fill-rule:nonzero"/><path d="M40.182 96.907h9.21v3.07h-9.21z" style="fill:#99674f;fill-rule:nonzero"/><path d="M38.95 128h12v-2.5c0-2.21-1.79-4-4-4h-4c-2.21 0-4 1.79-4 4v2.5z" style="fill:#444;fill-rule:nonzero"/><path d="M36.09 56.78c-2.94 0-5.12-1.97-5.12-4.91v-5.12H41.2v5.12c0 2.93-2.17 4.91-5.11 4.91z" style="fill:#bf8f68;fill-rule:nonzero"/><path d="M41.2 51.77s-1.95.79-5.11.79-5.12-.7-5.12-.7v-5.02c0-1.34.89-2.8 2.23-2.8h5.79c1.34 0 2.22 1.36 2.22 2.7v5.03h-.01z" style="fill:#99674f;fill-rule:nonzero"/><path d="M34.04 76.43h4.09V96.9h-4.09z" style="fill:#651fff;fill-rule:nonzero"/><path d="M22.78 71.44h13.31v6.02H22.78z" style="fill:#4527a0;fill-rule:nonzero"/><path d="M36.087 71.431h13.31v6.02h-13.31z" style="fill:#4527a0;fill-rule:nonzero"/><path d="M34.04 71.44h4.09v6.02h-4.09z" style="fill:#4527a0;fill-rule:nonzero"/><path d="M36.08 11.51c-11.85 0-14.95 9.19-14.95 22.09 0 12.91 9.19 16.84 14.95 16.84S51.03 46.5 51.03 33.6c.01-12.9-3.09-22.09-14.95-22.09z" style="fill:#bf8f68;fill-rule:nonzero"/><path d="M40.61 21.64c-1.58 1.51-9.4 8.57-20.19 10.41V17.59s4.66-9.24 15.83-9.24 15.83 9.47 15.83 9.47v14.23s-7.32-2.81-11-10.32a.29.29 0 0 0-.47-.09z" style="fill:#6d4c41;fill-rule:nonzero"/><path d="M31.05 34.46c0 1.36-.91 2.47-2.04 2.47s-2.04-1.1-2.04-2.47.92-2.47 2.04-2.47c1.13.01 2.04 1.11 2.04 2.47m10.06 0c0 1.36.91 2.47 2.04 2.47s2.04-1.1 2.04-2.47-.92-2.47-2.04-2.47c-1.12.01-2.04 1.11-2.04 2.47" style="fill:#444;fill-rule:nonzero"/><path d="M40.51 42.79h-8.84c-.51 0-.72.34-.39.85.47.71 2.21 2.09 4.81 2.09 2.6 0 4.34-1.37 4.81-2.09.33-.51.11-.85-.39-.85z" style="fill:#4c3734;fill-rule:nonzero"/><path d="M38.22 39.31c-.75.21-1.53.32-2.14.32-.61 0-1.38-.1-2.14-.32-.32-.09-.45.21-.33.42.24.42 1.2 1.27 2.47 1.27 1.27 0 2.23-.85 2.47-1.27.12-.21-.01-.51-.33-.42z" style="fill:#99674f;fill-rule:nonzero"/><path d="M72.5 24.67s0 23.19 2.99 33.97c1.47 5.31 3.31 8.66 7.72 5.35l17.1-.17c4.4 3.36 7.56.14 8.51-5.32 2.24-12.88 2.24-33.83 2.24-33.83H72.5z" style="fill:#bfa055;fill-rule:nonzero"/><ellipse cx="91.78" cy="24.67" rx="19.28" ry="17.33" style="fill:#bfa055"/><path d="m112.57 61.64.66 1.76c1.29 3.47 2.94 6.8 4.93 9.93l6.58 10c.93 1.42.64 3.32-.68 4.39a3.31 3.31 0 0 1-4.83-.74l-15.75-23.61-.32-4.08 9.41 2.35zm-41.44-.2-.66 1.76c-1.29 3.47-2.94 6.8-4.93 9.93l-6.58 10c-.93 1.42-.64 3.32.68 4.39a3.31 3.31 0 0 0 4.83-.74l15.75-23.61.32-4.08-9.41 2.35z" style="fill:#e0bb95;fill-rule:nonzero"/><path d="M91.78 49.82c-3.5-.01-7.9.4-10.24 1.02-7.29 1.94-9.08 5.37-11.26 11.26l21.5 8.19V49.82z" style="fill:#a0f;fill-rule:nonzero"/><path d="M88.51 55.66h5.31v15.77h-5.31z" style="fill:#a0f;fill-rule:nonzero"/><path d="M78.4 61.97h12.28v17.4H78.4z" style="fill:#a0f;fill-rule:nonzero"/><path d="M78.47 77.45 70.28 96.9h21.5V77.45H78.47z" style="fill:#a0f;fill-rule:nonzero"/><path d="M78.47 98.95h9.21v28.66h-9.21z" style="fill:#e0bb95;fill-rule:nonzero"/><path d="M78.47 96.9h9.21v3.07h-9.21z" style="fill:#c48e6a;fill-rule:nonzero"/><path d="M88.91 128h-12v-2.5c0-2.21 1.79-4 4-4h4c2.21 0 4 1.79 4 4v2.5z" style="fill:#444;fill-rule:nonzero"/><path d="M91.78 49.82c3.5-.01 7.9.4 10.24 1.02 7.29 1.94 9.08 5.37 11.26 11.26l-21.5 8.19V49.82z" style="fill:#a0f;fill-rule:nonzero"/><path d="M91.77 61.978h13.31v17.4H91.77z" style="fill:#a0f;fill-rule:nonzero"/><path d="m105.08 77.45 8.19 19.45H91.78V77.45h13.3z" style="fill:#a0f;fill-rule:nonzero"/><path d="M95.875 98.953h9.21v28.66h-9.21z" style="fill:#e0bb95;fill-rule:nonzero"/><path d="M95.875 96.907h9.21v3.07h-9.21z" style="fill:#c48e6a;fill-rule:nonzero"/><path d="M94.64 128h12v-2.5c0-2.21-1.79-4-4-4h-4c-2.21 0-4 1.79-4 4v2.5z" style="fill:#444;fill-rule:nonzero"/><path d="M91.78 56.78c-2.94 0-5.12-1.97-5.12-4.91v-5.12H96.9v5.12c-.01 2.93-2.18 4.91-5.12 4.91z" style="fill:#e0bb95;fill-rule:nonzero"/><path d="M96.89 51.77s-1.95.79-5.11.79-5.12-.7-5.12-.7v-5.02c0-1.34.89-2.8 2.23-2.8h5.79c1.34 0 2.22 1.36 2.22 2.7v5.03h-.01z" style="fill:#c48e6a;fill-rule:nonzero"/><path d="M89.73 76.43h4.09V96.9h-4.09z" style="fill:#a0f;fill-rule:nonzero"/><path d="M78.47 71.44h13.31v6.02H78.47z" style="fill:#7b1fa2;fill-rule:nonzero"/><path d="M91.77 71.431h13.31v6.02H91.77z" style="fill:#7b1fa2;fill-rule:nonzero"/><path d="M89.73 71.44h4.09v6.02h-4.09z" style="fill:#7b1fa2;fill-rule:nonzero"/><path d="M91.78 11.51c-11.85 0-14.95 9.19-14.95 22.09 0 12.91 9.19 16.84 14.95 16.84s14.95-3.94 14.95-16.84-3.1-22.09-14.95-22.09z" style="fill:#e0bb95;fill-rule:nonzero"/><path d="M96.3 21.64c-1.58 1.51-9.4 8.57-20.19 10.41V17.59s4.66-9.24 15.83-9.24 15.83 9.47 15.83 9.47v14.23s-7.32-2.81-11-10.32a.29.29 0 0 0-.47-.09z" style="fill:#bfa055;fill-rule:nonzero"/><path d="M86.75 34.46c0 1.36-.91 2.47-2.04 2.47s-2.04-1.1-2.04-2.47.92-2.47 2.04-2.47c1.12.01 2.04 1.11 2.04 2.47m10.05 0c0 1.36.91 2.47 2.04 2.47s2.04-1.1 2.04-2.47-.92-2.47-2.04-2.47c-1.12.01-2.04 1.11-2.04 2.47" style="fill:#444;fill-rule:nonzero"/><path d="M96.2 42.79h-8.84c-.51 0-.72.34-.39.85.47.71 2.21 2.09 4.81 2.09 2.6 0 4.34-1.37 4.81-2.09.33-.51.11-.85-.39-.85z" style="fill:#4c3734;fill-rule:nonzero"/><path d="M93.91 39.31c-.75.21-1.53.32-2.14.32-.61 0-1.38-.1-2.14-.32-.32-.09-.45.21-.33.42.24.42 1.2 1.27 2.47 1.27 1.27 0 2.23-.85 2.47-1.27.12-.21-.01-.51-.33-.42z" style="fill:#c48e6a;fill-rule:nonzero"/></svg>