<svg xmlns="http://www.w3.org/2000/svg" viewBox="0 0 128 128"><ellipse cx="64" cy="56.06" fill="#e1450a" rx="54.5" ry="50.3" style="font-variant-east_asian:normal"/><path fill="#e0bb95" d="M64.17 14.87c-33.11 0-42.95 23.36-42.95 58.91 0 35.56 26.86 48.36 42.95 48.36 16.09 0 42.61-13.14 42.61-48.69 0-35.56-9.5-58.58-42.61-58.58z"/><path fill="#bfa055" d="M76.46 42.76c-4.34 4.17-25.9 23.6-55.62 28.68V31.6S33.67 6.15 64.45 6.15s43.61 26.09 43.61 26.09v39.2s-20.17-7.74-30.3-28.43c-.25-.51-.9-.64-1.3-.25z"/><path fill="#513f35" d="M76.38 100.52H51.62c-1.42 0-2.03.95-1.09 2.38 1.31 2 6.19 5.85 13.47 5.85s12.16-3.85 13.47-5.85c.94-1.43.33-2.38-1.09-2.38z"/><path fill="#c48e6a" d="M69.98 89.99c-2.11.6-4.29.89-5.98.89-1.69 0-3.87-.29-5.98-.89-.9-.26-1.25.6-.93 1.17.67 1.18 3.36 3.55 6.91 3.55 3.55 0 6.24-2.37 6.91-3.55.33-.57-.03-1.42-.93-1.17z"/><path fill="#444" d="M49.91 77.19c0 3.81-2.55 6.9-5.71 6.9s-5.73-3.09-5.73-6.9c0-3.82 2.57-6.91 5.73-6.91 3.16 0 5.71 3.09 5.71 6.91m28.17 0c0 3.81 2.56 6.9 5.72 6.9 3.15 0 5.72-3.09 5.72-6.9 0-3.82-2.57-6.91-5.72-6.91-3.16 0-5.72 3.09-5.72 6.91"/><path fill="#513f35" d="M76.38 100.52H51.62c-1.42 0-2.03.95-1.09 2.38 1.31 2 6.19 5.85 13.47 5.85s12.16-3.85 13.47-5.85c.94-1.43.33-2.38-1.09-2.38z"/><path fill="#c48e6a" d="M69.98 89.99c-2.11.6-4.29.89-5.98.89-1.69 0-3.87-.29-5.98-.89-.9-.26-1.25.6-.93 1.17.67 1.18 3.36 3.55 6.91 3.55 3.55 0 6.24-2.37 6.91-3.55.33-.57-.03-1.42-.93-1.17z"/><path fill="none" d="M40.322 67.693c-7.356 0-17.828 3.152-17.828 3.152-1.507 1.27-2.651 2.59-3.427 3.959.067 3.665.35 7.077.831 10.247.428.061 10.869 1.555 18.074 1.555 8.708.165 18.27-3.103 25.429-3.103h2.877c7.158 0 16.72 3.268 25.429 3.103 5.484 0 12.899-.874 16.327-1.32.575-3.711.9-7.736.9-12.14 0-.358-.007-.708-.009-1.063a7.903 7.903 0 0 0-1.74-1.238s-10.473-3.152-17.828-3.152c-9.4.446-16.22 4.31-24.517 4.31-8.298 0-15.117-3.864-24.518-4.31z"/><path fill="#444" d="M49.91 77.19c0 3.81-2.55 6.9-5.71 6.9s-5.73-3.09-5.73-6.9c0-3.82 2.57-6.91 5.73-6.91 3.16 0 5.71 3.09 5.71 6.91m28.17 0c0 3.81 2.56 6.9 5.72 6.9 3.15 0 5.72-3.09 5.72-6.9 0-3.82-2.57-6.91-5.72-6.91-3.16 0-5.72 3.09-5.72 6.91"/><path fill="#e1450a" d="M76.46 42.76c-4.34 4.17-25.9 23.6-55.62 28.68V31.6S33.67 6.15 64.45 6.15s43.61 26.09 43.61 26.09v39.2s-20.17-7.74-30.3-28.43c-.25-.51-.9-.64-1.3-.25z" style="font-variant-east_asian:normal"/><path fill="#e1450a" d="M22.33 55.268 9.5 55.8s-.27 25.78 3.16 48.84c2.55 17.15 2.99 19.868 15.19 18.468 10.093-1.158 17.228-2.454 23.296-3.36-14.482-5.134-29.925-19.004-29.925-45.97 0-6.618.34-12.81 1.11-18.511zm83.406.003c.722 5.6 1.043 11.676 1.043 18.178 0 27.069-15.373 41.135-29.812 46.31 6.047.908 13.156 2.2 23.183 3.35 12.2 1.4 12.64-1.318 15.19-18.468 3.43-23.06 3.16-48.84 3.16-48.84l-12.764-.53z" style="font-variant-east_asian:normal"/></svg>