<svg xmlns="http://www.w3.org/2000/svg" viewBox="0 0 128 128"><defs><path id="a" d="M39.95 98.79c-2.7-.82-5.5-1.34-8.35-1.33-1.74 0-3.61-.19-5.34.01-.45.05-1.03.14-1.43.32l-.17.09c-.5.07-.98.19-1.4.42-1.38.78-1.26 2.13-1.43 3.32-.13.92-.21 1.71-.23 2.65-.05 2.21-.11 4.44-.01 6.75.1 2.52.1 5.07.14 7.66.03 3.01-1 7.11 3.89 7.54.31.03.66.05 1.02.06.47.19 1.25.06 1.72.15.89.17 1.8.17 2.71.17 1.3 0 2.6.07 3.88-.11.9-.13 1.81-.01 2.7-.21 3.81-.86 7.03-3.2 8.94-6.38 3.05-5.08 2.76-12.2-.71-17.04-1.43-1.95-3.53-3.33-5.93-4.07zm-1.06 16.78c-.63 1.43-1.7 2.48-2.96 2.87-.72.22-1.55.15-2.29.15-.45 0-.85.01-1.25-.25-.55-.35-.84-.68-.85-1.46-.01-.99-.08-1.97-.08-2.95 0-1.86.08-3.71.08-5.57 0-.69-.12-1.62.07-2.27l.06-.16c.39-.89 1.58-.48 2.26-.48.93-.01 1.87.23 2.77.6.79.33 1.49.95 1.96 1.83 1.15 2.2 1.24 5.41.23 7.69zm62.32-16.78c-2.7-.82-5.5-1.34-8.35-1.33-1.73 0-3.61-.19-5.34.01-.45.05-1.03.14-1.44.32l-.17.09c-.5.07-.98.19-1.41.42-1.38.78-1.26 2.13-1.43 3.32-.13.92-.2 1.71-.23 2.65-.05 2.21-.11 4.44-.01 6.75.1 2.52.1 5.07.14 7.66.04 3.01-1 7.11 3.89 7.54.32.03.66.05 1.02.06.46.19 1.25.06 1.72.15.89.17 1.8.17 2.71.17 1.3 0 2.6.07 3.89-.11.9-.13 1.8-.01 2.7-.21 3.81-.86 7.03-3.2 8.94-6.38 3.05-5.08 2.76-12.2-.72-17.04-1.4-1.95-3.51-3.33-5.91-4.07zm-1.05 16.78c-.63 1.43-1.7 2.48-2.96 2.87-.72.22-1.55.15-2.28.15-.44 0-.85.01-1.25-.25-.55-.35-.83-.68-.85-1.46-.01-.99-.08-1.97-.08-2.95 0-1.86.08-3.71.08-5.57 0-.69-.12-1.62.07-2.27l.06-.16c.39-.89 1.59-.48 2.26-.48.93-.01 1.87.23 2.77.6.79.33 1.49.95 1.96 1.83 1.14 2.2 1.24 5.41.22 7.69zm-23.07-15.26c.29.37.49.79.51 1.28.03.79-.15 1.57-.3 2.34-.38 1.99-1.05 3.91-1.59 5.87-.82 2.9-1.57 5.81-2.52 8.67-.08.23-.16.46-.24.7-1.4 3.95-3.93 9.16-10.66 7.42-2.89-.75-3.69-3.22-4.63-5.19-.37-.77-.68-1.58-.95-2.39-1.46-4.36-2.98-8.92-4.09-13.38-.2-.81-.54-1.64-.71-2.49-.15-.79-.26-1.63-.07-2.42.27-1.07 1.18-1.6 2.21-1.81 1.29-.27 2.63-.5 3.95-.32 2.26.31 2.68 2.92 3.16 4.69.74 2.8 1.19 5.68 2.05 8.45.18.58.3 1.21.62 1.74.38.62 1.13.7 1.59.08.19-.24.24-.61.32-.9.15-.55.29-1.1.42-1.66.27-1.11.5-2.23.76-3.34.31-1.34.59-2.73 1.03-4.04.27-.83.48-1.7.76-2.52.31-.89.92-1.81 1.82-2.23.98-.45 2.06-.12 3.09-.12.65 0 1.35.21 1.95.47.57.25 1.13.62 1.52 1.1z"/></defs><path fill="#fcc21b" d="M110.32 45.45c0 22.11-20.74 40.04-46.33 40.04-25.57 0-46.31-17.93-46.31-40.04S38.41 5.41 63.99 5.41c25.59 0 46.33 17.92 46.33 40.04z"/><g fill="#fff"><path d="M115.13 53.66l-52.14-8.21 52.14-4.49z"/><path d="M110.32 33.45l-7.77-16.59-15.58-7.42-22.98 36.01z"/></g><path fill="#fff" d="M113.29 51.85l-50.25-6.16 48.62-16.93z"/><path fill="#fff" d="M14.25 44.93l50.75.38-45.61 22.32z"/><path fill="#fff" d="M18.64 59.97l8.98 16.12 16.09 6.55 20.28-37.19z"/><path fill="#fff" d="M27 76.3l38.11-31.86-46.26 21.3z"/><path fill="#fcc21b" d="M12.82 54.44l52.14-8.23-46.95 20.12z"/><path fill="#fff" d="M22.16 73.85l41.24-28.8-30.11 37.09z"/><g><path fill="#fff" d="M102.44 19.08L60.31 46.91l48.81-16.52z"/><path fill="#fcc21b" d="M113.59 42.22l-52.9 2.94 49.35-15.27z"/><path fill="#fff" d="M106.92 22L62.1 46.47l34.88-33.82z"/></g><path fill="#fcc21b" d="M63.99 5.41c25.59 0 46.33 17.93 46.33 40.04S89.58 85.49 63.99 85.49c-25.57 0-46.31-17.93-46.31-40.04 0-22.12 20.73-40.04 46.31-40.04m0-4.35c-29.5 0-53.5 20.75-53.5 46.26 0 25.5 24 46.26 53.5 46.26 29.51 0 53.52-20.75 53.52-46.26 0-25.51-24.01-46.26-53.52-46.26z"/><g><ellipse cx="63.99" cy="43.95" fill="#fff" rx="11.77" ry="10.18"/><path fill="#fcc21b" d="M63.99 33.77c6.5 0 11.78 4.56 11.78 10.18s-5.28 10.17-11.78 10.17c-6.5 0-11.77-4.55-11.77-10.17s5.27-10.18 11.77-10.18m0-3.19c-9.13 0-16.56 6.42-16.56 14.32s7.43 14.32 16.56 14.32c9.14 0 16.57-6.43 16.57-14.32 0-7.89-7.43-14.32-16.57-14.32z"/><ellipse cx="63.99" cy="43.95" fill="#fcc21b" rx="5.53" ry="4.78"/></g><text style="line-height:1.25;font-variant-ligatures:normal;font-variant-caps:normal;font-variant-numeric:normal;font-feature-settings:normal;text-align:start" x="25.217" y="126.133" fill="#006ca2" stroke-width="2.262" font-family="Comic Neue" font-size="42.224" font-weight="400" letter-spacing="0" word-spacing="0"><tspan x="25.217" y="126.133" font-weight="700">DVD</tspan></text></svg>