<svg xmlns="http://www.w3.org/2000/svg" xmlns:xlink="http://www.w3.org/1999/xlink" viewBox="0 0 128 128"><defs><linearGradient id="c" x1="64" x2="64" y1="9.57" y2="116.584" gradientTransform="matrix(.99 0 0 .99 .64 .645)" gradientUnits="userSpaceOnUse" xlink:href="#a"/><linearGradient id="a"><stop offset="0" stop-color="#3c48ff"/><stop offset="1" stop-color="#8bb6bb"/></linearGradient><radialGradient id="d" cx="42.143" cy="6.368" r="1.639" fx="42.143" fy="6.368" gradientTransform="matrix(1.87395 0 0 1.73798 -36.693 -4.008)" gradientUnits="userSpaceOnUse" xlink:href="#b"/><linearGradient id="b"><stop offset="0" stop-color="#282846"/><stop offset="1" stop-color="#1a4223" stop-opacity=".177"/></linearGradient></defs><rect width="59.954" height="120.334" x="34.023" y="3.833" fill="#181818" paint-order="stroke fill markers" rx="6.2" ry="2.1"/><path fill="url(#c)" d="M35.596 10.119h56.809v105.944H35.596z" paint-order="stroke fill markers"/><path fill="none" stroke="#282828" stroke-linecap="round" stroke-linejoin="round" stroke-width="1.48" d="M54.22 119.75h19.56M54.22 7.06h19.56"/><text x="43.835" y="36.255" fill="#fff" font-family="Sans" font-size="39.6" font-weight="400" letter-spacing="0" opacity=".8" style="line-height:24.74994087px" word-spacing="0"><tspan x="43.835" y="36.255" font-family="Comic Neue" font-size="17.16" style="-inkscape-font-specification:'Comic Neue'">04:20</tspan></text><path fill-opacity=".402" d="M35.596 109.286h56.809v6.777H35.596z" paint-order="stroke fill markers"/><g fill="none" fill-opacity=".402" stroke="#fff" stroke-width="1.01" paint-order="stroke fill markers" transform="matrix(.99 0 0 .99 .64 .645)"><ellipse cx="63.845" cy="113.161" stroke-width=".384" rx="1.299" ry="1.278"/><path stroke-linejoin="round" stroke-width=".643" d="m66.06 116.53-3.348-1.934 3.349-1.933z" transform="matrix(.59184 0 0 .6018 9.49 44.197)"/><path stroke-linejoin="round" stroke-width=".384" d="M78.794 111.883h2.597v2.555h-2.597z"/></g><text x="43.835" y="49.752" fill="#fff" font-family="Sans" font-size="39.6" font-weight="400" letter-spacing="0" opacity=".8" style="line-height:24.74994087px" word-spacing="0"><tspan x="43.835" y="49.752" font-family="Comic Neue" font-size="11.88" style="-inkscape-font-specification:'Comic Neue'">17.07.</tspan></text><circle cx="42.281" cy="7.06" r="1.419" fill="url(#d)" paint-order="stroke fill markers"/><g fill="#fff" stroke-width="1.981"><path d="M64 59.854c-10.58 0-19.155 8.576-19.155 19.15 0 10.58 8.576 19.155 19.155 19.155 10.574 0 19.155-8.575 19.155-19.155-.005-10.58-8.58-19.15-19.155-19.15zm14.824 19.15c0 3.549-1.251 6.804-3.326 9.353l-20.856-20.85a14.782 14.782 0 0 1 9.353-3.327c8.192 0 14.83 6.632 14.83 14.824zm-29.653 0c0-2.953.873-5.693 2.357-8.005L72 91.47a14.75 14.75 0 0 1-8.005 2.358c-8.187.005-14.824-6.633-14.824-14.825z"/><g transform="translate(18.931 46.7) scale(.50475)"><defs><path id="e" d="M106.64 46.87c-3.05-2.79-7.01-4.5-11.1-5.04-.78-.1-2.2-.04-2.69.74-.51.82-.44 1.95-.3 2.85.96 6.4 1.25 12.57-.1 18.96-.22 1.08-.44 2.16-.78 3.21-.31.94-.78 2.36-1.67 2.92-.75.46-1.54-.21-2.07-.69-3.06-2.84-7.44-4.63-11.67-4.03-1.25.17-2.66.57-3.77 1.2-1.14.65-2.49 1.82-3.14 2.99-1.34 2.44-1.61 5.39-.6 8 .27.72.63 1.45 1.05 2.09 2.33 3.53 6.85 5.1 10.92 5.12 3.53.02 7.23-1.1 9.58-3.87 1.01-1.2 1.74-2.6 2.28-4.05.62-1.67 1.25-3.33 1.9-4.98.64-1.6 1.1-3.28 1.49-4.96a42.985 42.985 0 0 0 .94-6.34c.07-.81.09-1.63.16-2.44.15-1.67-.14-3.31 2.14-2.99.7.09 1.37.47 1.98.79 1.55.82 2.97 2.02 3.88 3.53 1.05 1.76.89 3.67.25 5.55-.11.32-.18.75-.12 1.09.15.88.73 1.33 1.61 1.19 2.03-.33 4.3-4.45 4.6-6.85.63-4.98-1.14-10.66-4.77-13.99z"/></defs><use width="100%" height="100%" overflow="visible" xlink:href="#e"/></g></g><path fill="none" stroke="#000" stroke-linecap="round" stroke-linejoin="round" stroke-width="3.78" d="M25.326 31.44s-3.219 5.223-3.219 8.14c0 2.918 3.22 5.223 3.22 8.14 0 2.918-3.22 5.222-3.22 8.14s3.22 5.222 3.22 8.14-3.22 5.222-3.22 8.14 3.22 5.222 3.22 8.14c0 2.917-3.22 5.222-3.22 8.14 0 2.917 3.22 8.14 3.22 8.14M11.44 47.72c0 2.918-3.219 5.222-3.219 8.14s3.22 5.222 3.22 8.14-3.22 5.222-3.22 8.14 3.22 5.222 3.22 8.14m91.233-48.84s3.219 5.223 3.219 8.14c0 2.918-3.22 5.223-3.22 8.14 0 2.918 3.22 5.222 3.22 8.14s-3.22 5.222-3.22 8.14 3.22 5.222 3.22 8.14-3.22 5.222-3.22 8.14c0 2.917 3.22 5.222 3.22 8.14 0 2.917-3.22 8.14-3.22 8.14m13.887-48.84c0 2.918 3.219 5.222 3.219 8.14s-3.22 5.222-3.22 8.14 3.22 5.222 3.22 8.14-3.22 5.222-3.22 8.14"/></svg>