<svg xmlns="http://www.w3.org/2000/svg" viewBox="0 0 128 128"><path fill="#3e99ff" d="M7.4 0c18.867 0 37.158.959 56.025.959C82.29.959 101.733 0 120.6 0c4.1 0 7.4 3.3 7.4 7.4 0 18.867-.575 30.447-.575 49.313 0 18.867.575 45.02.575 63.887 0 4.1-3.3 7.4-7.4 7.4-18.867 0-35.24-1.918-54.107-1.918C47.626 126.082 26.267 128 7.4 128c-4.1 0-7.4-3.3-7.4-7.4 0-18.867.959-38.692.959-57.559C.959 44.175 0 26.267 0 7.4 0 3.3 3.3 0 7.4 0z"/><path fill="#2089ff" d="M125.143 1.178C87.202 46.084 32.053 77.426.87 124.195a7.375 7.375 0 005.658 2.627c18.867 0 40.225-1.918 59.092-1.918 18.867 0 35.24 1.918 54.108 1.918 4.1 0 7.4-3.3 7.4-7.4 0-18.867-.576-45.02-.576-63.887 0-18.867.576-30.446.576-49.312a7.37 7.37 0 00-1.986-5.045z"/><text style="line-height:1.25;font-variant-ligatures:normal;font-variant-caps:normal;font-variant-numeric:normal;font-feature-settings:normal;text-align:start" x="12.536" y="82.701" fill="#fff" stroke-width="2.916" font-family="Comic Neue" font-size="54.441" font-weight="400" letter-spacing="0" word-spacing="0"><tspan x="12.536" y="82.701" font-weight="700">a</tspan></text><text x="49.002" y="82.658" style="line-height:1.25;font-variant-ligatures:normal;font-variant-caps:normal;font-variant-numeric:normal;font-feature-settings:normal;text-align:start" fill="#fff" stroke-width="2.97" font-family="Comic Neue" font-size="55.447" font-weight="400" letter-spacing="0" word-spacing="0"><tspan x="49.002" y="82.658" font-weight="700">b</tspan></text><text style="line-height:1.25;font-variant-ligatures:normal;font-variant-caps:normal;font-variant-numeric:normal;font-feature-settings:normal;text-align:start" x="85.527" y="84.12" fill="#fff" stroke-width="3.161" font-family="Comic Neue" font-size="59.004" font-weight="400" letter-spacing="0" word-spacing="0"><tspan x="85.527" y="84.12" font-weight="700">c</tspan></text></svg>