<svg xmlns="http://www.w3.org/2000/svg" style="enable-background:new 0 0 128 128" viewBox="0 0 128 128"><path d="M7.4 0c18.867 0 37.158.959 56.025.959C82.29.959 101.733 0 120.6 0c4.1 0 7.4 3.3 7.4 7.4 0 18.867-.575 30.447-.575 49.313 0 18.867.575 45.02.575 63.887 0 4.1-3.3 7.4-7.4 7.4-18.867 0-35.24-1.918-54.107-1.918C47.626 126.082 26.267 128 7.4 128c-4.1 0-7.4-3.3-7.4-7.4 0-18.867.959-38.692.959-57.559C.959 44.175 0 26.267 0 7.4 0 3.3 3.3 0 7.4 0z" style="opacity:1;fill:#3e99ff;fill-opacity:1;stroke:none;stroke-width:1;stroke-linecap:butt;stroke-linejoin:miter;stroke-miterlimit:4;stroke-dasharray:none;stroke-dashoffset:0;stroke-opacity:1"/><path d="M126.014 2.355C88.073 47.262 32.924 78.604 1.742 125.373A7.375 7.375 0 0 0 7.4 128c18.867 0 40.226-1.918 59.092-1.918 18.867 0 35.24 1.918 54.108 1.918 4.1 0 7.4-3.3 7.4-7.4 0-18.867-.576-45.02-.576-63.887 0-18.867.576-30.446.576-49.313a7.37 7.37 0 0 0-1.986-5.045z" style="fill:#2089ff;fill-opacity:1;stroke:none;stroke-width:1px;stroke-linecap:butt;stroke-linejoin:miter;stroke-opacity:1"/><path d="M10.89 11.51c-.41 0-.74.33-.74.73v8.59c0 .4.34.72.74.72h42.37c.41 0 .73-.32.73-.72H54v-8.59c0-.41-.33-.73-.73-.73H10.89zm0 17.34c-.41 0-.74.33-.74.73v8.59c0 .41.34.73.74.73h15.83v17.04c0 .41.33.73.73.73h9.26c.4 0 .73-.33.73-.73V38.9h15.82c.41 0 .73-.33.73-.73H54v-8.59c0-.41-.33-.73-.73-.73H10.89z" style="fill:#fff"/><path d="m104.63 77.106-.495.262-9.586 14.655c.028-.319.084-.618.084-.937 0-6.034-4.32-10.916-11.244-10.916-6.915 0-11.244 4.882-11.244 10.916 0 6.025 4.329 10.907 11.244 10.907 2.09 0 3.898-.487 5.463-1.264l-10.344 15.806-.03.6.517.31H89.91l.496-.273 7.61-11.872c0 .094-.03.18-.03.273 0 6.034 4.33 10.915 11.254 10.915 6.915 0 11.244-4.881 11.253-10.897 0-6.034-4.329-10.916-11.244-10.916-1.921 0-3.616.403-5.097 1.078l11.367-17.747.018-.59-.516-.31zm-21.241 9.68c2.727 0 4.432 1.92 4.432 4.3s-1.696 4.3-4.432 4.3c-2.727 0-4.433-1.92-4.433-4.3s1.706-4.3 4.433-4.3zm25.852 14.495c2.726 0 4.432 1.921 4.432 4.301s-1.706 4.3-4.432 4.3c-2.736 0-4.442-1.92-4.442-4.3s1.706-4.3 4.442-4.3z" style="fill:#fff;stroke-width:.93700778"/><path d="M79.249 54.575a12.31 12.31 0 0 0 2.274 1.308c4.34 1.857 9.513.55 13.322-1.933 3.487-2.274 7.144-6.661 6.623-10.954v-.019l-.265-19.282c.18-.01.34-.01.492-.019 1.44-.01 2.9.105 4.312.38 2.643.52 5.306 1.553 7.21 3.515 1.905 1.942 3.667 3.866 6.49 4.377 1.185.209 3.232-.151 3.98-1.184 1.232-1.696-1.44-2.303-2.255-3.174-.767-.834-1.061-2.274-1.25-3.364-.616-3.695-2.19-7.088-4.965-9.636-3.705-3.402-8.775-5.686-14.204-6.661-.777-.143-1.677-.2-2.492-.029-.019 0-.028-.01-.047-.01a2.493 2.493 0 0 0-2.464 2.54l.36 25.981c-1.544-.824-3.278-1.317-5.078-1.507-4.501-.464-9.39.929-12.546 3.715-1.06.938-2.122 2.17-2.757 3.44-.663 1.307-1.203 3.23-1.09 4.708.256 3.08 1.8 6.008 4.35 7.808z" style="fill:#fff;fill-opacity:1;stroke-width:.94752157"/><path d="M32.072 71.716c-14.59 0-25.187 10.325-25.187 24.555 0 14.229 10.589 24.563 25.187 24.563 5.912 0 11.307-1.676 15.606-4.843l-4.456-6.035c-3 2.21-6.852 3.377-11.16 3.377-10.412 0-17.676-7.018-17.676-17.054 0-10.035 7.272-17.045 17.677-17.045 13.036 0 17.677 9.15 17.677 17.703l.017.299c.026.412-.052 1.693-.675 2.596-.14.15-.79.51-1.606.51-.465 0-1.324-.097-1.86-.747-.947-1.14-1.456-4.044-1.49-5.632h-.045V85.48a.528.528 0 0 0-.526-.526h-6.36a.528.528 0 0 0-.527.526v.658c-1.807-.982-3.93-1.588-6.395-1.588-7.667 0-12.457 5.413-12.457 12.09 0 6.684 4.79 12.096 12.457 12.096 4.22 0 7.518-1.666 9.676-4.254 1.825 2.14 4.553 3.36 7.536 3.36 3.14 0 6.176-1.448 7.746-3.694 2.097-3.017 2.088-6.386 2.036-7.333-.053-15.028-10.168-25.099-25.195-25.099zm-1.79 30.494c-3.544 0-5.764-2.5-5.764-5.597 0-3.088 2.22-5.597 5.764-5.597 3.553 0 5.764 2.509 5.764 5.597 0 3.096-2.211 5.597-5.764 5.597z" style="fill:#fff;fill-opacity:1;stroke-width:.87726092"/></svg>