<svg xmlns="http://www.w3.org/2000/svg" viewBox="0 0 128 128" style="fill-rule:evenodd;clip-rule:evenodd;stroke-linejoin:round;stroke-miterlimit:1.41421"><path style="fill:#efa825" d="M111.374 63.998h7.658v61.991h-7.658zM8.967 63.998h7.659v61.991H8.967z"/><path style="fill:#e1822c" d="M6.652 109.428H121.35v16.563H6.652zM13.173 98.384h101.654v5.522H13.173zM21.088 87.341h85.825v5.522H21.088zM28.491 76.3h71.018v5.52H28.49zM34.044 65.256h59.913v5.522H34.044zM42.52 54.214h42.96v5.522H42.52zM48.598 42.539h30.804v6.155H48.598zM52.957 29.522h22.087v6.861H52.957z"/><path d="M124.882 109.427H3.117l6.923-5.521h107.92l6.922 5.52zM117.959 98.384H10.04l6.135-5.52h95.648l6.135 5.52zM109.557 87.342H18.443l5.18-5.521h80.754l5.18 5.52zM101.698 76.3H26.303l4.286-5.522h66.822l4.287 5.521zM95.802 65.257H32.198l3.616-5.521h56.372l3.616 5.52zM86.803 54.214H41.197l2.592-5.52H84.21l2.593 5.52zM80.35 42.538h-32.7l1.858-6.154h28.984l1.859 6.154zM75.724 29.522H52.276l1.333-6.861h20.782l1.333 6.86z" style="fill:#f19542"/><path style="fill:#181818" d="M58.877 114h10.247v11.99H58.877z"/><ellipse cx="60.074" cy="108.663" rx="7.852" ry="1.838" style="fill:#181818" transform="matrix(.65238 0 0 1.93185 24.809 -95.92)"/><path style="fill:#efa825" d="M60.17 12.045h7.66V22.66h-7.66z"/><path d="M64.001 4.77s-6.146 4.507-6.146 6.438A6.148 6.148 0 0064 17.352a6.148 6.148 0 006.145-6.144C70.146 9.277 64 4.77 64 4.77z" style="fill:#e1822c"/><g><path d="M12.798 56.206S6.65 60.712 6.65 62.643a6.148 6.148 0 006.147 6.144 6.148 6.148 0 006.144-6.144c0-1.931-6.144-6.437-6.144-6.437z" style="fill:#e1822c"/></g><g><path d="M115.204 56.206s-6.146 4.506-6.146 6.437a6.148 6.148 0 006.146 6.144 6.148 6.148 0 006.145-6.144c0-1.931-6.145-6.437-6.145-6.437z" style="fill:#e1822c"/></g></svg>