<svg xmlns="http://www.w3.org/2000/svg" viewBox="0 0 128 128"><g stroke-linecap="round" stroke-linejoin="round" stroke-width=".847" transform="rotate(-30 50.392 91.888) scale(1.18056)"><path fill="none" stroke="#00abb8" stroke-width="2.541" d="M35.524 45.975v36.817m61.554-37.201V82.41"/><path fill="#224e80" d="M25.264 50.768c-7.302-.29-13.231 5.924-13.23 13.232-.001 7.308 5.928 13.522 13.23 13.232l19.367-.767h38.736l19.367.767c7.309 0 13.233-5.924 13.233-13.232 0-7.308-5.924-13.232-13.233-13.232l-19.367.767H44.631z" paint-order="stroke fill markers"/><rect width="12.464" height="4.986" x="29.292" y="43.482" fill="#212932" paint-order="stroke fill markers" rx="3"/><rect width="12.464" height="4.986" x="29.292" y="80.299" fill="#212932" paint-order="stroke fill markers" rx="3"/><rect width="12.464" height="4.986" x="90.846" y="43.098" fill="#212932" paint-order="stroke fill markers" rx="3"/><rect width="12.464" height="4.986" x="90.846" y="79.916" fill="#212932" paint-order="stroke fill markers" rx="3"/><path fill="#e5e5e5" d="m72.251 51.534-19.977.001-6.68 24.93h19.977l6.68-24.93z" paint-order="stroke fill markers"/><path fill="#f2f2f2" d="m101.63 50.81-18.263.725H81.46l-6.68 24.93h8.588l11.269.447 6.993-26.102z" paint-order="stroke fill markers"/></g></svg>