<svg xmlns="http://www.w3.org/2000/svg" viewBox="0 0 128 128" style="fill-rule:evenodd;clip-rule:evenodd;stroke-linejoin:round;stroke-miterlimit:1.41421"><path d="M61.042 50.408c.791 0 1.434.642 1.434 1.433v23.087c0 .158-.026.311-.074.454v8.989a5.663 5.663 0 01-5.66 5.66H44.079a5.663 5.663 0 01-5.66-5.66V73.05a5.663 5.663 0 015.66-5.66h10.537a2.123 2.123 0 002.126-2.126V51.84c0-.79.642-1.433 1.433-1.433h2.867zM103.496 46.714c.791 0 1.434.643 1.434 1.434v23.086c0 .159-.026.311-.074.454v8.99a5.663 5.663 0 01-5.66 5.66H86.533a5.663 5.663 0 01-5.66-5.66V69.355a5.663 5.663 0 015.66-5.66H97.07a2.123 2.123 0 002.126-2.126V48.148c0-.791.642-1.434 1.433-1.434h2.867z" style="fill:#f79329"/><path d="M87.416 101.382c-.001.055.002.272.007.55.004.394-.151.772-.43 1.05a1.46 1.46 0 01-1.051.42c-5.824-.118-12.645-.33-20.636-.635-12.058-.46-21.641-.693-29.23-1.548a1.934 1.934 0 01-1.69-1.661c-1.092-7.499-7.559-13.26-15.36-13.26-1.7 0-3.337.273-4.868.779a1.92 1.92 0 01-2.416-1.126c-3.15-8.94-3.555-23.03-3.041-45.45.556-24.294 9.563-27.365 14.228-27.314a2.69 2.69 0 012.629 2.792c-.374 13.07-.343 42.11.124 49.912 1.26 21.048 12.315 23.484 57.175 23.94a2.274 2.274 0 002.301-2.277v-8.36a6.147 6.147 0 016.144-6.144h24.503a6.148 6.148 0 016.146 6.144v17.429a6.126 6.126 0 01-2 4.533.956.956 0 01-1.57-.64c-.14-.993-.28-2.17-.415-2.682h-.001l-.025-.093v-.003l-.52-1.566-.003-.008-.034-.084-.002-.005-.035-.086v-.003a15.556 15.556 0 00-.836-1.736l-1.15-1.76-.004-.003-.055-.073-.003-.002-.056-.075a15.508 15.508 0 00-1.667-1.833l-.002-.001-.069-.064v-.002l-.07-.063v-.002l-.07-.062-.001-.001-.07-.063-.001-.001-.07-.062-.001-.002-.07-.062h-.002l-.07-.062h-.002l-.073-.062a15.473 15.473 0 00-10.055-3.697 15.47 15.47 0 00-9.95 3.606l-.077.064-.024.02-1.769 1.766-.032.036-.031.039-.033.036-.714.923-.033.045-.024.034-.033.046-.854 1.358-.03.055-.017.03-.031.057-.013.024-.034.062-.003.007c-.04.074-.33.652-.33.652l-.005.009-.11.235-.005.01-.03.068-.01.022-.105.242-.01.021-.029.07-.004.01c-.045.107-.09.215-.132.324l-.377 1.08c-.037.116-.177.616-.177.616l-.005.019-.02.078-.004.01a47.14 47.14 0 00-.256 1.195v.005s-.1.66-.123.846l-.001.01-.009.086-.003.013-.075.96v.005c-.004.096-.008.192-.01.29z" style="fill:#f79329"/><circle cx="23.868" cy="109" r="10.132" style="fill:#252525" transform="translate(-11.544 -37.769) scale(1.28078)"/><circle cx="23.868" cy="109" r="10.132" style="fill:#252525" transform="translate(72.379 -37.769) scale(1.28078)"/><circle cx="23.868" cy="109" r="10.132" style="fill:#979797" transform="matrix(.50564 0 0 .50564 6.957 46.721)"/><circle cx="23.868" cy="109" r="10.132" style="fill:#979797" transform="matrix(.50564 0 0 .50564 90.88 46.721)"/><path d="M75.382 12.795c8.038.116 16.284 1.59 23.334 4.322 5.65 2.189 10.551 6.27 12.93 12.3 1.49 3.776 2.33 7.768 3.358 11.702 2.417 9.307 4.64 23.015 5.301 28.251.144 1.137-.577 2.423-1.331 3.169-.755.746-2.133 1.313-3.193 1.309-1.059-.003-2.417-.58-3.164-1.329-.746-.75-1.12-2.04-1.312-3.167-1.118-6.573-3.236-18.997-6.375-30.272-2.539-9.125-13.702-12.928-25.184-14.694-10.097-1.554-17.318-.092-27.425 0-8.284.075-15.042-1.607-22.8-2.747-9.747-1.432-6.6-6.758-3.89-7.347 6.523-1.42 28.585.228 43.033-1.167 1.98-.186 3.964-.315 5.95-.331h.768z" style="fill:#757f3f;fill-rule:nonzero"/><path d="M18.193 27.206a1.483 1.483 0 00-2.211-1.25c-5.683 3.31-10.692 8.404-10.81 15.157-.058 3.413 1.232 27.537 8.326 27.5 2.676-.012 4.427-2.886 5.144-5.032.747-2.234.235-25.388-.113-28.715-.176-1.687-.282-5.261-.336-7.66z" style="fill:#54c6d9"/></svg>