<svg xmlns="http://www.w3.org/2000/svg" style="fill-rule:evenodd;clip-rule:evenodd;stroke-linecap:round;stroke-linejoin:round;stroke-miterlimit:1.5" viewBox="0 0 128 128" xml:space="preserve"><path d="M59.274 42.451c-2.474 2.008-3.33 5.073-7.616 8.079-1.964 1.377-6.631 1.801-10.782 10.483-4.054 8.481.356-12.654 6.129-18.927 2.554-2.775 13.937-.989 12.269.365z" style="fill:#e0bb95" transform="matrix(1.98231 0 0 2.06783 -32.227 -30.62)"/><path d="M42.486 53.399c.356.054 1.364.864 1.546 1.019.636.539.345 1.311-.165 1.916-.591.702-6.475 2.125-7.344 2.342" style="fill:#e0bb95;stroke:#c48e6a;stroke-width:.47px" transform="matrix(6.54337 0 0 6.18762 -204.896 -302.683)"/><path d="M52.718 22.767c-10.205-3.017-14.628-5.519-22.467 1.897-4.189 3.962-7.297 8.846-10.399 13.821-1.955 3.137-3.126 6.645-4.887 9.881-1.807 3.322-4.2 6.46-6.547 9.454A2.245 2.245 0 0 0 8 59.718c.601 2.528 2.27 8.808 4.845 11.191 7.034 6.509 18.636 1.496 21.21.258.349-.176.646-.439.862-.764 3.389-5.183 4.351-11.441 7.471-16.785 3.911-6.701 13.657-10.079 20.262-13.749 0 0-18.648 1.107-18.689-5.684-.046-7.585 8.757-11.418 8.757-11.418z" style="fill:#e0bb95;stroke:#e0bb95;stroke-width:.49px" transform="translate(-8 -7.381) scale(1.54069)"/><path d="m70.581 30.721-17.583 8.812-5.64-3.749-.435-6.106 22.308-4.928c-.587.819-14.348 5.332-15.248 5.669-.634.237-2.523.533-3.13.832-.339.167-.757.302-1.043.556-.61.542-.977 1.338-.632 1.982.164.308.386.589.632.834.456.452.91.971 1.485 1.255 5.002 2.471 12.193-5.183 19.286-5.157z" style="fill:#c48e6a" transform="matrix(1.48623 0 0 1.54069 -7.36 -7.525)"/><path d="M58.777 57.052a.225.225 0 0 1-.008.243.375.375 0 0 1-.251.152c-.787.149-2.55.434-3.945.377-1.248-.051-1.448.136-2.493.251-.862.096-1.324.526-2.426.836-.795.223-1.576 1.006-3.669 1.466-1.763.387-5.323.459-6.919-2.553-.674-1.272-.448-2.899.622-3.916.873-.831 2.198-1.139 3.439-1.527.953-.3 1.902-.61 2.858-.905a58.282 58.282 0 0 1 1.907-.549c3.086-.834 6.229.294 8.007.73.617.151 1.548.713 2.36.992a19.21 19.21 0 0 1 2.337 1.013c.175.09.287.235.304.394.016.159-.064.316-.218.425a2.192 2.192 0 0 1-1.749.338c-.744-.157-2.157-.929-3.034-1.191-.722-.217-3.521-.402-4.38-.454-2.071-.126-4.5.998-8.47 1.91l-.228.056c-2.918.751.113 2.626 1.353 2.593.092-.002-.209.051.25-.036 2.421-.479 4.575-1.78 7.095-2.341 2.541-.567 3.745.043 5.291.326 1.278.234 1.737.918 1.967 1.37z" style="fill:#e0bb95;fill-rule:nonzero" transform="matrix(3.07637 0 0 4.0996 -64.23 -186.386)"/><path d="M59.266 20.266c-.537.171-2.079.603-3.077 1.007-1.023.413-2.048 1.21-3.098 1.561-.658.22-3.298 1.178-3.977 1.406-1.346.451-3.016.373-4.251 1.095-1.148.671-4.83 1.842-5.197 3.344-.079.328-.911 1.307-1.118 1.227-.193-.074-.055-1.496.104-1.973.517-1.553 4.069-3.034 5.222-3.533 1.791-.774 4.406-.967 6.261-1.566 1.487-.479 2.93-1.151 4.436-1.561 1.704-.465 4.22-1.254 5.968-1.467 0 0-.897.341-1.273.46z" style="fill:#c48e6a" transform="translate(-10.444 -7.682) scale(1.54069)"/><path d="M47.03 33.369c.886.365 1.826.253 2.708-.062a6.35 6.35 0 0 0 .507-.228.123.123 0 0 1 .153.05.146.146 0 0 1-.013.173c-.605.642-1.505 1.694-1.739 2.483l-1.616-2.416z" style="fill:#c48e6a" transform="matrix(2.02513 0 0 1.88049 -30.493 -19.23)"/><path d="M52.28 23.129a.149.149 0 0 1-.008-.296c5.26-.557 11.363 1.421 17.903 3.433l-1.587 1.018a63.27 63.27 0 0 0-10.946-3.333c-.93-.193-2.966-.527-5.362-.822z" style="fill:#c48e6a"/></svg>