<svg xmlns="http://www.w3.org/2000/svg" viewBox="0 0 128 128" style="fill-rule:evenodd;clip-rule:evenodd;stroke-linecap:round;stroke-linejoin:round;stroke-miterlimit:1.5"><path d="M85.272 57.161c-4.904 4.152-6.601 10.49-15.097 16.706C66.28 76.715 57.03 77.591 48.8 95.544c-8.036 17.537.706-26.166 12.15-39.138 5.063-5.738 27.627-2.045 24.32.755z" style="fill:#bf8f68"/><path d="M73.106 27.73c2.33.334 8.925 5.346 10.116 6.305 4.161 3.335 2.257 8.112-1.08 11.855-3.867 4.344-42.368 13.15-48.054 14.492" style="fill:#bf8f68;stroke:#99674f;stroke-width:.47px"/><path d="M73.221 27.696c-15.723-4.649-22.537-8.503-34.614 2.922-6.454 6.104-11.243 13.63-16.022 21.294-3.012 4.833-4.816 10.238-7.53 15.224-2.783 5.118-6.47 9.953-10.086 14.565a3.46 3.46 0 00-.644 2.925c.926 3.894 3.497 13.57 7.464 17.241 10.837 10.029 28.713 2.305 32.678.398a3.47 3.47 0 001.328-1.177c5.222-7.986 6.704-17.627 11.51-25.86 6.027-10.325 21.042-15.53 31.218-21.184 0 0-28.73 1.706-28.794-8.757-.07-11.686 13.492-17.591 13.492-17.591z" style="fill:#bf8f68;stroke:#bf8f68;stroke-width:.49px"/><path d="M97.54 39.806L71.407 53.383l-8.382-5.776-.646-9.408 33.154-7.592c-.872 1.262-21.324 8.215-22.662 8.734-.942.365-3.75.821-4.652 1.282-.503.257-1.125.465-1.55.857-.906.835-1.452 2.061-.939 3.053.244.475.574.908.94 1.285.677.697 1.352 1.496 2.206 1.934 7.434 3.807 18.122-7.986 28.664-7.946z" style="fill:#99674f"/><path d="M116.59 47.504a1.187 1.187 0 01-.797 1.62c-2.421.61-7.845 1.779-12.136 1.545-3.84-.209-4.455.558-7.67 1.03-2.651.393-4.073 2.156-7.463 3.427-2.446.914-4.848 4.124-11.287 6.01-5.424 1.586-16.376 1.881-21.285-10.467-2.074-5.214-1.379-11.884 1.913-16.054 2.686-3.407 6.762-4.67 10.58-6.26 2.931-1.23 5.851-2.5 8.792-3.71a146.711 146.711 0 015.867-2.25c9.493-3.42 19.162 1.205 24.632 2.992 1.898.62 4.762 2.923 7.26 4.067 2.75 1.263 5.467 2.984 7.19 4.153.538.369.883.963.935 1.615a2.174 2.174 0 01-.67 1.742c-1.173 1.074-2.97 2.062-5.381 1.386-2.289-.644-6.636-3.809-9.334-4.883-2.221-.89-10.832-1.648-13.474-1.86-6.372-.517-13.844 4.09-26.057 7.83-.234.073-.468.151-.702.229-8.977 3.079.348 10.765 4.163 10.63.283-.008-.643.21.769-.147 7.448-1.964 14.074-7.298 21.827-9.598 7.817-2.324 11.52.177 16.277 1.337 3.931.96 5.343 3.763 6.05 5.616z" style="fill:#bf8f68;fill-rule:nonzero"/><path d="M80.866 23.541c-.827.264-3.203.93-4.74 1.552-1.577.636-3.156 1.864-4.774 2.405-1.014.339-5.08 1.815-6.127 2.166-2.074.695-4.647.575-6.55 1.687-1.768 1.034-7.441 2.838-8.006 5.152-.122.505-1.404 2.014-1.723 1.89-.297-.114-.085-2.304.16-3.04.797-2.392 6.27-4.674 8.046-5.443 2.76-1.192 6.788-1.49 9.646-2.412 2.291-.738 4.514-1.774 6.834-2.405 2.626-.717 6.502-1.932 9.195-2.26 0 0-1.382.525-1.961.708zM64.749 43.52c1.794.686 3.698.475 5.484-.117.216-.071.613-.243 1.026-.429a.259.259 0 01.284.42c-1.225 1.207-3.048 3.185-3.522 4.669L64.75 43.52z" style="fill:#99674f"/><path d="M52.28 23.129a.149.149 0 01-.008-.296c5.26-.557 11.363 1.421 17.903 3.433l-1.587 1.018a63.27 63.27 0 00-10.946-3.333c-.93-.193-2.966-.527-5.362-.822z" style="fill:#99674f"/></svg>