<svg xmlns="http://www.w3.org/2000/svg" xmlns:xlink="http://www.w3.org/1999/xlink" viewBox="0 0 128 128"><style>.st0{fill:#d1ebed}.st1{fill:#fff}.st2{fill:#fbcc2f}.st4{fill:#e5a315}.st5{fill:#aecece}.st7{fill:#ff6f00}</style><path d="M40.3 110.8c-2.1-1.2-4.6-2.4-5.8-4-.4-.6-.9-2.3-.7-4.7.2-2.6 2.1-10.9 5.7-19.5.3-.6.9-1.3 1.6-1.9.2-.2.5-.7.1-1l-3.4-.9-3.5-.8c-.5.1-.5.6-.4.9.3.8.5 1.7.4 2.4-1.2 9.3-3.7 17.3-4.8 19.7-1.1 2.2-2.3 3.4-3 3.7-1.8.8-4.6.6-7 .5-1.6 0-5.4-.2-5.9 1.9-.7 2.6 7.5 6.3 14.4 8.1s15.8 2.8 16.5.2c.6-2.1-2.8-3.8-4.2-4.6z" class="st0"/><path d="m66.5 23.4-26-7S32 36 29.8 56.1c-2 18.6 4.6 24.5 7.2 25.2 2.6.7 11.3-1.1 18.9-18.2 8.3-18.5 10.6-39.7 10.6-39.7z" class="st0"/><path d="M20.3 107.7c-.5-.2-1.1-.2-1.2.3-.1.3.3.6.6.8 1.3.8 3.6 1.7 6 2.5.3.1 1 .2 1.2 0 .3-.2.2-.5 0-.8-.2-.3-.6-.4-.9-.6-3-1-3.5-1.2-5.7-2.2z" class="st1"/><path d="M61.1 37.7 38 31.5c-6 22.6-6.2 41.5.8 43.3 7 1.9 16.3-14.5 22.3-37.1z" class="st2"/><defs><path id="SVGID_1_" d="M61.1 35.3c-.4-.5-.9-.2-1.5-.2-2.5.2-4.8-.5-6.9-1.9-2-1.3-3.9-2.8-6.2-3.7-1.5-.6-3.1-.8-4.6-.6-1.1.1-2.3.4-3.2 1.2-.7.7-.8 2-.9 2.9-.2 1.8 0 3.7.7 5.3 1.2 2.6 3.5 4.4 6 5.6.8.4 1.5.7 2.4.9.7.2 1.4.3 2.1.4 2.7.3 5.5 0 7.8-1.4 1.5-.9 2.7-2.2 3.5-3.8.5-1 .9-2.1 1.1-3.2.1-.5.1-.9-.1-1.4-.1 0-.1 0-.2-.1z"/></defs><use fill="#fbcc2f" overflow="visible" xlink:href="#SVGID_1_"/><clipPath id="SVGID_2_"><use overflow="visible" xlink:href="#SVGID_1_"/></clipPath><path fill="#e5a315" d="M58.7 35.2c-8.5-.8-16-.2-19.3-3.1-2.4-2 .6-3.4 3.2-3.5 6.4 0 7.9 3.3 11.2 4.6 2 .9 2.8 1.6 4.9 2z" clip-path="url(#SVGID_2_)"/><ellipse cx="40.7" cy="69.9" class="st4" rx="1.1" ry="1.1" transform="rotate(-75.001 40.735 69.93)"/><ellipse cx="43.8" cy="67.7" class="st4" rx=".7" ry=".7" transform="rotate(-75.001 43.84 67.666)"/><ellipse cx="39.5" cy="65.1" class="st4" rx="1.3" ry="1.3" transform="rotate(-75.001 39.547 65.067)"/><ellipse cx="44.3" cy="64.9" class="st4" rx="1.4" ry="1.4" transform="rotate(-75.001 44.323 64.94)"/><ellipse cx="41.6" cy="58.2" class="st4" rx="1.1" ry="1.1" transform="rotate(-75.001 41.625 58.21)"/><ellipse cx="44.3" cy="59.5" class="st4" rx="1" ry="1" transform="rotate(-75.001 44.262 59.457)"/><ellipse cx="49.8" cy="54.5" class="st4" rx="1" ry="1" transform="rotate(-75.001 49.846 54.5)"/><ellipse cx="42.4" cy="46.5" class="st4" rx="1.2" ry="1.2" transform="rotate(-75.001 42.36 46.528)"/><ellipse cx="46" cy="56.7" class="st4" rx="1.5" ry="1.5" transform="rotate(-75.001 46.001 56.706)"/><ellipse cx="43.4" cy="51.2" class="st4" rx="1.5" ry="1.5" transform="rotate(-75.001 43.409 51.25)"/><ellipse cx="48.7" cy="50.8" class="st4" rx="1.1" ry="1.1" transform="rotate(-75.001 48.705 50.817)"/><path d="M36.2 52c.5.3 1.9.9 3 1.4.7.3 1.1-.4 1.2-.9 1.1-7.2 5.5-23.3 7.8-28.9-1.4-.7-2.9-1.4-4.3-2.1-2.8 5.6-7.6 24.6-8 29-.1-.1-.3 1 .3 1.5z" class="st1"/><path d="M66.5 23.8c-.9 3.2-7.2 3.5-14.4 1.5-7.2-1.9-12.6-5.3-11.7-8.5.9-3.2 7.2-3.5 14.4-1.5 7.2 1.9 12.5 5.3 11.7 8.5z" class="st5"/><path d="M65 23.4c-.7 2.5-6.2 2.5-12.6.8-6.4-1.7-11.2-4.5-10.5-7 .7-2.5 6.2-2.5 12.6-.8 6.3 1.7 11.1 4.5 10.5 7zm43.5 90.5c-2.4 0-5.2.3-7-.5-.7-.3-1.9-1.5-3-3.7-1.1-2.4-3.6-10.5-4.8-19.7-.1-.7.1-1.6.4-2.4.1-.3.1-.8-.4-.9l-3.4.9-3.4.9c-.4.3-.1.8.1 1 .7.5 1.3 1.2 1.6 1.9 3.6 8.6 5.5 16.8 5.7 19.5.2 2.4-.3 4.1-.7 4.7-1.2 1.6-3.7 2.8-5.8 4-1.4.8-4.8 2.5-4.2 4.6.7 2.6 9.6 1.7 16.5-.2 6.9-1.8 15.1-5.5 14.4-8.1-.7-2.2-4.4-2-6-2z" class="st0"/><path d="m87.5 25.1-26 7s2.4 21.2 10.6 39.7C79.7 88.9 88.3 90.7 91 90c2.6-.7 9.2-6.6 7.2-25.2C96 44.7 87.5 25.1 87.5 25.1z" class="st0"/><path d="M89.5 121.2c-.5.1-1 .4-.9.8.1.3.6.4 1 .4 1.6.1 3.9-.3 6.4-.8.3-.1 1-.3 1.1-.6.2-.3-.1-.5-.4-.6-.3-.1-.7-.1-1.1 0-3 .5-3.6.6-6.1.8z" class="st1"/><path d="m90 40.2-23.1 6.2C73 69 82.2 85.4 89.2 83.5c7-1.9 6.8-20.7.8-43.3z" class="st2"/><defs><path id="SVGID_3_" d="M88.8 38.2c-.6-.2-.9.3-1.4.6-2.1 1.4-4.4 1.9-6.9 1.8-2.4-.1-4.8-.4-7.2-.1-1.5.2-3.1.8-4.3 1.8-.9.7-1.8 1.5-2.1 2.6-.3 1 .3 2.1.6 3 .7 1.7 1.8 3.2 3.3 4.3 2.3 1.6 5.2 2.1 8 1.8.8-.1 1.7-.2 2.5-.4.7-.2 1.4-.4 2-.7 2.4-1.1 4.7-2.8 6-5.1.8-1.5 1.2-3.3 1.1-5-.1-1.1-.3-2.3-.6-3.4-.2-.5-.3-.9-.8-1.1-.1-.1-.2-.1-.2-.1z"/></defs><use fill="#fbcc2f" overflow="visible" xlink:href="#SVGID_3_"/><clipPath id="SVGID_4_"><use overflow="visible" xlink:href="#SVGID_3_"/></clipPath><path fill="#e5a315" d="M86.6 39.3c-7.7 3.6-14 7.8-18.2 7-3.1-.6-1.2-3.3 1.1-4.6 5.5-3.2 8.5-1.1 12-1.6 2-.4 3.1-.1 5.1-.8z" clip-path="url(#SVGID_4_)"/><ellipse cx="88.4" cy="78.3" class="st4" rx="1.1" ry="1.1" transform="rotate(-14.999 88.402 78.302)"/><ellipse cx="90" cy="74.8" class="st4" rx=".7" ry=".7" transform="rotate(-14.999 89.96 74.789)"/><ellipse cx="84.9" cy="74.7" class="st4" rx="1.3" ry="1.3" transform="rotate(-14.999 84.942 74.685)"/><ellipse cx="89" cy="72.2" class="st4" rx="1.4" ry="1.4" transform="rotate(-14.999 89.015 72.187)"/><ellipse cx="83.3" cy="67.7" class="st4" rx="1.1" ry="1.1" transform="rotate(-14.999 83.312 67.707)"/><ellipse cx="86.2" cy="67.5" class="st4" rx="1" ry="1" transform="rotate(-14.999 86.22 67.469)"/><ellipse cx="88.6" cy="60.4" class="st4" rx="1" ry="1" transform="rotate(-14.999 88.577 60.383)"/><ellipse cx="78.1" cy="57.2" class="st4" rx="1.2" ry="1.2" transform="rotate(-14.999 78.107 57.223)"/><ellipse cx="86.3" cy="64.2" class="st4" rx="1.5" ry="1.5" transform="rotate(-14.999 86.35 64.216)"/><ellipse cx="81.4" cy="60.8" class="st4" rx="1.5" ry="1.5" transform="rotate(-14.999 81.377 60.788)"/><ellipse cx="85.7" cy="57.8" class="st4" rx="1.1" ry="1.1" transform="rotate(-14.999 85.748 57.764)"/><path d="M75.5 65c.6.1 2.1-.2 3.3-.3.8-.1.7-.9.5-1.4-2.7-6.8-6.9-22.9-7.7-28.9-1.6.1-3.2.2-4.8.4.4 6.3 5.7 25 7.5 29.1 0-.1.4 1 1.2 1.1z" class="st1"/><path d="M87.6 25.5c.9 3.2-4.5 6.6-11.7 8.5-7.2 1.9-13.5 1.7-14.4-1.5-.9-3.2 4.5-6.6 11.7-8.5 7.2-2 13.6-1.7 14.4 1.5z" class="st5"/><path d="M86.1 25.9c.7 2.5-4.1 5.3-10.5 7-6.4 1.7-11.9 1.7-12.6-.8-.7-2.5 4.1-5.3 10.5-7 6.4-1.7 11.9-1.7 12.6.8z" class="st0"/><path d="M78.7 3.6 74.2 15c-.4.9-1.7.8-1.9-.2L70.7 2.7c-.1-.6.5-1.2 1.1-1.1l6.1.7c.6.1 1 .7.8 1.3zm11.9 12.1L79 19.5c-1 .3-1.7-.8-1-1.6l8.3-9c.4-.5 1.2-.4 1.5.1l3.3 5.2c.4.5.1 1.3-.5 1.5zm-28-10.3 5.5 10.9c.5.9-.6 1.8-1.4 1.3l-10.1-6.8c-.6-.5-.6-1.2-.1-1.6l4.6-4.1c.5-.5 1.2-.3 1.5.3z" class="st7"/></svg>