<svg xmlns="http://www.w3.org/2000/svg" xmlns:xlink="http://www.w3.org/1999/xlink" viewBox="0 0 128 128"><defs><linearGradient id="a"><stop offset="0" stop-color="#80d8ff"/><stop offset="1" stop-color="#80d8ff" stop-opacity="0"/></linearGradient><linearGradient id="b" x1="45.723" x2="129.437" y1="63.8" y2="12.793" gradientUnits="userSpaceOnUse" xlink:href="#a"/></defs><path fill="url(#b)" d="M32.3 56.174s58.305-30.508 85.424-28.881l9.22 7.593s-40.949 6.373-58.17 38.508C59.14 91.376 32.3 56.174 32.3 56.174z" transform="translate(-1.624 5.257)"/><circle cx="50.064" cy="135.161" r="76.997" fill="#006bd9" paint-order="stroke fill markers" transform="matrix(.52677 .14115 -.0606 .22615 25.325 37.355)"/><circle cx="50.064" cy="135.161" r="76.997" fill="#0055ab" paint-order="stroke fill markers" transform="matrix(.5112 .13698 -.05611 .20942 25.995 37.972)"/><g transform="matrix(.23473 .0629 -.02577 .09616 35.734 56.99)"><circle cx="50.064" cy="135.161" r="76.997" fill="#fff" paint-order="stroke fill markers"/><g transform="rotate(15 -188.26 51.73)"><path fill="#fcc21b" d="M63.8 9.5c-62.5 0-64 70.1-64 83.9 0 13.9 28.7 25.1 64 25.1s64-11.2 64-25.1c0-13.8-1.5-83.9-64-83.9z" class="st0"/><path d="M75.6 94.8h-24c-1.6 0-2.9-1.5-2.9-3.3 0-1.8 1.3-3.3 2.9-3.3h24c1.6 0 2.9 1.5 2.9 3.3 0 1.8-1.3 3.3-2.9 3.3z" class="st1"/><ellipse cx="87.4" cy="58.8" fill="#fff" class="st2" rx="16.6" ry="16.3"/><ellipse cx="40.6" cy="58.8" fill="#fff" class="st2" rx="16.6" ry="16.3"/><path fill="#2f2f2f" d="M95.3 50.4a7.9 7.9 0 0 1-7.9 7.9 7.9 7.9 0 0 1-7.9-7.9 7.9 7.9 0 0 1 7.9-7.9 7.9 7.9 0 0 1 7.9 7.9zm-46.8 0a7.9 7.9 0 0 1-7.9 7.9 7.9 7.9 0 0 1-7.9-7.9 7.9 7.9 0 0 1 7.9-7.9 7.9 7.9 0 0 1 7.9 7.9z" paint-order="stroke fill markers"/></g></g></svg>