<svg xmlns="http://www.w3.org/2000/svg" viewBox="0 0 128 128"><path fill="#757f3f" d="m101.4 13.4-.2.2c-2.6 2.5-5.8 4.2-7.3 6.3-1.5 2.1-3.9 5.9-6.8 9.2s-7.4 8.6-7.4 8.6-2.5.6-3.4 2.6-1.8 4.1-4 6.1-10.1 10-12.9 11.9-6.9 2.5-8 4.1-2.9 3.6-5.8 5.5-10.1 7.4-13.4 8.8-4.9 1.8-6.4 3.5-7.8 6.5-11 8.8S4 98.4 3.1 102.4s-1.2 9.4 4 13.2 14.2 5.1 24.5 3.6 8.9-1.4 12.4-3.1 10.8-5 15.6-7.4 8-5.9 10.6-6.9 5-1.8 6.1-3.6 4.8-4.8 7.2-7.1 7.4-8.1 10-9.4 5.4-3.2 6.1-5.2 3-4.5 6.5-8.1S116.8 54 119 50.6s1.9-4.5 3.1-6 2.5-3.1 2.2-6 1.8-12.4.6-17.1-4.5-13-10.4-13.1-11 2.6-13.1 5"/><ellipse cx="48" cy="71.5" fill="#9e9d23" paint-order="stroke fill markers" rx="3" ry="2.5"/><ellipse cx="62.389" cy="72.621" fill="#9e9d23" paint-order="stroke fill markers" rx="3" ry="2.5"/><ellipse cx="89.389" cy="46.476" fill="#9e9d23" paint-order="stroke fill markers" rx="3.393" ry="2.802" transform="matrix(.78143 .62399 -.66457 .74722 0 0)"/><ellipse cx=".576" cy="116.916" fill="#9e9d23" paint-order="stroke fill markers" rx="3.216" ry="2.631" transform="matrix(.94748 -.31982 .33355 .94273 0 0)"/><ellipse cx="35.523" cy="110.919" fill="#9e9d23" paint-order="stroke fill markers" rx="3" ry="2.5" transform="rotate(-19.05)"/><ellipse cx="50.558" cy="110.279" fill="#9e9d23" paint-order="stroke fill markers" rx="3.65" ry="3.173" transform="matrix(.80573 -.59229 .50959 .86042 0 0)"/><ellipse cx="82.675" cy="54.363" fill="#9e9d23" paint-order="stroke fill markers" rx="3" ry="2.5"/><ellipse cx="65.447" cy="77.437" fill="#9e9d23" paint-order="stroke fill markers" rx="3" ry="2.5" transform="rotate(-29.812)"/><ellipse cx="-21.537" cy="91.496" fill="#9e9d23" paint-order="stroke fill markers" rx="3" ry="2.5" transform="rotate(-26.936)"/></svg>