<svg xmlns="http://www.w3.org/2000/svg" viewBox="0 0 128 128"><path fill="#975305" d="M85.904 15.857c-7.88.037-15.76 2.4-22.804 6.514-.292-.195-.56-.371-.56-.371.04-.02.08-.04.11-.07-3.15-1.97-6.79-3.68-10.99-4.97 0 0-26.61-5.85-40.02 17.02C1.718 50.912-.142 79.35 20.265 97.814c-1.758 3.18-2.23 6.47-.424 9.686 0 0 2.42 3.89 6.09 4.52 2.599.446 5.58-1.812 8.81-4.76 7.7 3.593 17.086 6.232 28.43 7.53 0 0 19.15 1.191 34.068-6.976.638.606 1.186 1.091 1.551 1.305 4.57 2.68 9.35 3.05 11.97 1.42 2.384-1.478 5.144-4.401-.96-14.115 4.57-7.19 9.682-14.427 12.342-22.574 2.61-7.97 3.339-16.46 2.029-24.44-1.94-11.85-8.34-22.58-19.72-28.87-5.88-3.247-12.21-4.712-18.546-4.683zm2.739 21.137c.35.019.695.06 1.037.125 5.46 1.05 14.07 7.25 12.29 20.9-.921 7.042-3.056 15.256-6.886 22.14-3.524-2.741-7.33-5.277-11.684-8.37-2.165-1.54-4.472-3.17-6.773-4.807.476-.97 4.39-9.253 3.402-18.752-.237-2.29-.819-4.84-1.797-7.484 1.743-1.198 6.234-3.977 10.41-3.752zm-48.079.524c4.033-.038 8.354 1.277 11.93 7.477l-.193.235s-4.252 10.9-2.362 18.04c.556 2.097 1.702 4.475 3.368 6.982-.117.117-3.826 3.851-9.358 7.838-1.878 1.35-5.468 3.496-9.36 6.158a35.224 35.224 0 0 1-3.72-5.648c-10.56-19.9-4.309-33.72.631-37.87 1.515-1.27 5.032-3.175 9.064-3.212zm25.44 45.771a75.967 75.967 0 0 0 8.047 5.352 76.273 76.273 0 0 1 7.144 4.691 21.77 21.77 0 0 1-1.795.607c-8.377 2.429-19.641 3.788-29.763.536 1.711-1.165 3.48-2.24 5.334-3.145 6.14-2.99 10.03-6.72 11.19-7.88z"/><path fill="none" stroke="#ffef77" stroke-linecap="round" stroke-opacity=".577" stroke-width="5.3" d="M20.852 31.266a36.058 36.058 0 0 0-3.391 4.652c-5.526 9.012-8.543 21.434-6.611 33.72"/><path fill="#fff" d="M17.58 74.441c.275.276.55.54.836.815.1.088.21.199.342.165.099-.022.176-.11.23-.187.21-.264.408-.54.618-.804.055-.385-.44-.671-.815-.561-.375.11-.639.44-.86.76m10.881-50.913c.11.448.29.92.654 1.21.363.29.956.351 1.27.012a47.978 47.978 0 0 1-.35-1.246c-.037-.109-.073-.242-.17-.302-.121-.073-.266-.049-.4-.012-.41.096-.822.205-1.233.302m13.249 4.501a1.395 1.395 0 0 1 1.028-1.294c.533-.134 1.09.06 1.61.254-.267.496-.52 1.004-.787 1.5-.048.085-.097.17-.182.206-.096.048-.217.012-.314-.025-.4-.145-.81-.278-1.21-.423m-1.5-6.969a1.883 1.883 0 0 0 1.064 1.258c.158-.557.4-1.077.738-1.549a5.314 5.314 0 0 1-.87-1.258c-.255.387-.497.786-.751 1.173m11.579 8.785a3.05 3.05 0 0 0 .448 1.718c.448-.315.883-.617 1.331-.932.073-.048.157-.109.182-.205a.335.335 0 0 0-.037-.242c-.205-.57-.4-1.15-.605-1.719-.326.218-.641.436-.968.654m9.292 7.211c.412.327.848.678 1.368.763.52.084 1.137-.194 1.234-.714a1.19 1.19 0 0 0-.968-.908c-.46-.06-.956.182-1.186.593m-4.839-5.82L59 31.823c.048.049.109.11.17.11.084 0 .145-.061.193-.122.351-.4.702-.81 1.065-1.21a11.038 11.038 0 0 1-1.234-1.573 5.74 5.74 0 0 1-1.779 1.307m.183 10.031c.484-.279.738-.872 1.246-1.077.69-.279 1.415.266 1.96.774a4.739 4.739 0 0 1-1.15 1.682 14.636 14.636 0 0 0-2.02-.956m7.986 5.517c.471.17.931.34 1.403.497.073.024.145.048.206.024.085-.037.12-.133.133-.218.133-.508.254-1.016.387-1.525-.762-.23-1.67.29-1.851 1.065m.278 5.276c.036.399 0 .798-.097 1.173.557.121 1.114.23 1.67.351l-.145-1.645c-.593.036-1.186.084-1.779.12m45.674 10.7c.265.554.53 1.108.808 1.65-.474.277-.935.543-1.408.82-.266-.728-.52-1.466-.785-2.193.392-.139.773-.266 1.165-.404m-4.328 29.604.554-1.662a25.01 25.01 0 0 1-1.858.081 5.58 5.58 0 0 1-.196 2.182c.37-.023.739-.116 1.073-.277m.266-12.581a1.436 1.436 0 0 1-.485 1.339 1.41 1.41 0 0 1-1.408.196 8.347 8.347 0 0 0 .208-1.523c.53-.012 1.061-.035 1.592-.047m-.484-46.029c.057-.069.173-.08.23-.01a2.11 2.11 0 0 1-.865.876c-.358-.265-.716-.519-1.074-.784a2.51 2.51 0 0 0 .74-.89c.38.232.715.532.992.866m-9.199-4.074c-.139.427-.335.854-.693 1.108-.357.254-.935.266-1.212-.08.139-.393.277-.774.416-1.166.035-.104.08-.22.185-.277.115-.07.254-.023.38.011.381.127.774.243 1.155.37m-13.631-7.987a1.78 1.78 0 0 1-1.097 1.13 4.766 4.766 0 0 0-.6-1.511c.358-.335.658-.727.912-1.143.208.393.427.773.635 1.166M59.058 57.341c.606.408 1.234.782 1.883 1.112.143-.561.287-1.112.43-1.673a.38.38 0 0 0 .01-.22c-.032-.078-.12-.122-.197-.155-.22-.099-.44-.209-.661-.308a26.86 26.86 0 0 1-1.74 1.442m4.449 6.563c-.342.154-.397.65-.22.98.176.33.528.529.847.716.165-.408.342-.815.507-1.211.044-.1.088-.22.044-.33-.033-.1-.132-.155-.22-.21-.21-.121-.43-.253-.64-.374m1.223 8.016c.154.473.308.936.463 1.41.374-.177.748-.353 1.134-.53.077-.032.154-.076.187-.154.033-.077.011-.176-.011-.253-.154-.484-.308-.98-.463-1.464a1.784 1.784 0 0 0-1.288 1.002m4.085-2.83c.595.198 1.19.385 1.784.583.253-.484.474-1.178.022-1.486-.264-.187-.65-.1-.892.11-.242.21-.396.507-.528.804m1.233 5.704c.363.517.77 1.002 1.222 1.453.253-.484.496-.98.749-1.464-.132-.254-.275-.518-.507-.683-.23-.165-.583-.198-.792 0-.177.176-.22.484-.452.573m4.074-3.051c.243.276.485.551.727.837.11.132.275.276.44.21a.441.441 0 0 0 .166-.155c.462-.693.22-1.75-.496-2.169-.044-.022-.099-.044-.143-.033a.196.196 0 0 0-.088.077c-.176.242-.352.474-.518.716m-19.864 8.985c-.594.198-1.189.385-1.784.584-.253-.485-.473-1.179-.022-1.487.265-.187.65-.099.892.11.243.21.397.507.529.804m25.711 26.416c-.595.198-1.19.385-1.784.583-.253-.484-.473-1.178-.022-1.486.264-.187.65-.1.892.11.242.21.396.506.528.804M51.064 86.367a2.309 2.309 0 0 1-1.167 1.365c-.451-.11-.837-.507-.87-.98-.044-.463.309-.947.771-1.013.462-.066.947.352.914.815m5.858 20.734a2.309 2.309 0 0 1-1.167 1.365c-.452-.11-.837-.506-.87-.98-.044-.462.308-.947.77-1.013.463-.066.948.352.915.815m4.756-3.491a2.309 2.309 0 0 1-1.167 1.366c-.451-.11-.837-.507-.87-.98-.044-.463.309-.947.771-1.013.463-.066.947.352.914.815M45.69 87.798c-.362.518-.77 1.002-1.221 1.453-.254-.484-.496-.98-.75-1.464.133-.253.276-.518.507-.683.232-.165.584-.198.793 0 .176.176.22.485.452.573m-3.997-1.035c-.298.253-.65.44-1.035.561-.089.022-.177.055-.265.022-.088-.022-.154-.099-.22-.165l-.892-.99c.176-.188.375-.375.617-.43.374-.088.738.165.99.44.254.276.485.606.827.782M35.45 95.66a2.835 2.835 0 0 1-1.464.947 2.87 2.87 0 0 1-.011-1.465c.507-.407 1.398-.077 1.53.562"/></svg>