<svg xmlns="http://www.w3.org/2000/svg" viewBox="0 0 128 128"><defs><clipPath id="a"><path fill="#ff9316" d="M3.05 35.563s-22.02 15.79 9.438 2.638c7.322-7.458-6.283-6.53-6.283-6.53s.363 1.861-3.154 3.892z"/></clipPath></defs><path fill="#272727" d="M43.975 111.171s-7.185-2.571-7.934 2.786c-.749 5.358 7.755 6.428 11.181 5.637 3.426-.792 5.256-7.352 5.256-7.352z" paint-order="stroke fill markers"/><path fill="none" stroke="#efefef" stroke-linecap="round" stroke-width="10" d="M34.769 97.264s-20.415-10.041-7.394-23.467c13.02-13.425 27.41-27.826 24.574-43.267-1.306-7.113-9.135-15.19-17.776-15.22"/><path fill="#dfdfdf" d="M123.357 88.29c10.732-2.154-26.914 23.654-49.335 26.18-22.42 2.524-39.276-2.383-40.603-14.167-1.327-11.784 15.773-23.384 38.193-25.909 22.421-2.525 20.73 20.122 51.745 13.896z" paint-order="stroke fill markers"/><g stroke-width=".93" transform="rotate(-6.425 -94.91 -26.424) scale(1.07488)"><path fill="#ff9316" d="M3.05 35.563s-22.02 15.79 9.438 2.638c7.322-7.458-6.283-6.53-6.283-6.53s.363 1.861-3.154 3.892z"/><ellipse cx="16.99" cy="32.193" fill="#e7e7e7" paint-order="stroke fill markers" rx="14.719" ry="9.344" transform="rotate(-7.037) skewX(.013)"/><ellipse cx="-11.869" cy="32.327" fill="#301a00" paint-order="stroke fill markers" rx="1.428" ry=".53" transform="matrix(.81359 -.58144 .41291 .91077 0 0)"/><path fill="none" stroke="#000" stroke-linecap="round" stroke-width=".465" d="M-1.616 43.22s10.69-3.443 12.965-5.494" clip-path="url(#a)"/><ellipse cx="17" cy="27.237" fill="#272727" paint-order="stroke fill markers" rx="1.563" ry="2.063"/></g><path fill="#eee" d="M107.977 44.255c14.668 16.59-1.018 43.904-25.075 47.672-26.023 4.077-45.525 13.401-49.984 2.103-4.243-10.752 10.64-18.811 26.588-44.422 13.746-22.073 29.613-26.683 48.47-5.353z" paint-order="stroke fill markers"/></svg>