<svg xmlns="http://www.w3.org/2000/svg" style="fill-rule:evenodd;clip-rule:evenodd;stroke-linejoin:round;stroke-miterlimit:1.41421" viewBox="0 0 128 128" xml:space="preserve"><path d="M52.871 43.999c1.723-.057 3.514-.222 5.175.358 2.057.719 5.946 2.297 7.462 3.814 3.106 3.107 6.188 6.362 7.561 10.646 1.254 3.911-.875 6.617-4.624 5.089-4.019-1.638-6.307-6.035-7.611-9.508-1.178-3.134-4.927-4.894-7.963-6.227" style="fill:#b67f5e" transform="rotate(-2.192 71.157 144.867)"/><path d="M84.45 79.126c1.289-.562.347-1.416 0 0-2.357 9.614 9.356 4.875 13.753 4.284 3.689-.496 8.862-3.073 12.131.079.583.563-.322 2.391-.694 2.917-1.639 2.316-4.072 2.923-6.763 2.645-3.053-.316-6.005-.895-9.094-.728" style="fill:#b67f5e" transform="matrix(1.36229 0 0 1.40437 -40.042 -36.035)"/><path d="M21.459 48.347c3.316 5.071-.579 11.685 1.034 17.536 1.893 6.871 2.291 14.307 5.09 20.888 6.182 14.536 17.367 26.608 32.508 29.541 5.198 1.007 16.524 1.423 21.759 2.143 7.677 1.057 14.379.229 22.165 0 4.389-.128 8.779-1.011 13.064-1.926 1.354-.289 2.705-.565 4.069-.802l.005-.001c.546-.096.948-.554.959-1.096a1.144 1.144 0 0 0-.911-1.134c-5.268-1.006-13.266-2.852-17.186-5.303-5.823-3.643-5.584-9.477-10.159-14.197-3.059-3.157-8.57-10.56-12.006-13.264-6.351-4.997-15.386-8.888-21.759-14.849-4.496-4.205-8.469-13.9-6.871-18.549l-31.761 1.013z" style="fill:#6e534b" transform="matrix(1.03542 0 0 1.06159 -5.53 -14.504)"/><path d="M40.93 53.966c-8.642 2.564-10.547 14.703-4.964 21.742 2.425 3.057 8.123 7.879 11.798 8.8 2.167.543 12.437.565 13.752 0 5.081-2.185 3.057-13.645-1.927-18.897-4.887-5.148-5.696-8.146-8.772-10.842-1.978-1.734-6.08-1.933-9.887-.803z" style="fill:#c79e84" transform="translate(-2.952 -2.269)"/><ellipse cx="34.512" cy="51.491" rx="3.551" ry="2.876" style="fill:#543a32" transform="matrix(.774 .774 -.831 .831 34.564 -49.97)"/><ellipse cx="34.512" cy="51.491" rx="3.551" ry="2.876" style="fill:#543a32" transform="matrix(-.774 .774 .831 .831 30.437 -49.97)"/><path d="M51.125 27.82c14.264 0 26.547 7.706 25.845 22.825-.549 11.831-11.581 21.459-25.845 21.459s-24.62-9.679-25.845-21.459C23.526 33.772 36.861 27.82 51.125 27.82z" style="fill:#926557" transform="matrix(.717 0 0 .687 -4.111 -5.047)"/><circle cx="44.244" cy="57.664" r="3.623" style="fill:#262626" transform="matrix(.717 0 0 .717 -9.784 -16.183)"/><circle cx="44.244" cy="57.664" r="3.623" style="fill:#262626" transform="matrix(.717 0 0 .717 11.338 -16.183)"/><path d="M88.36 62.502a1.432 1.432 0 0 1 1.55 1.497l-.002.001c-.549 11.336-11.58 20.561-25.844 20.561-14.265 0-24.62-9.274-25.845-20.561a1.139 1.139 0 0 1 1.155-1.264c3.169.061 6.325.315 9.358 1.335 1.841.619 3.525 1.758 5.318 2.529 1.492.641 3.114.697 4.674 1.072 2.313.556 4.766 1.551 7.185 1.309 4.031-.403 7.597-2.825 11.282-4.279 3.325-1.312 7.33-1.902 10.873-2.176l.296-.024z" style="fill:#e1d1cc" transform="matrix(.717 0 0 .717 -13.388 -16.143)"/><path d="M63.567 64.899c-1.133-.018-2.976-.061-4.454.049-.711.054-1.506.075-2.18.352-1.636.674-3.442 1.791-4.489 3.25-2.041 2.846-1.794 7.706.918 10.003 1.124.951 2.743 1.509 4.145 1.903 3.034.852 6.128 1.168 9.274 1.097 2.127-.048 4.099-1.082 5.973-1.976.875-.418 1.961-.885 2.561-1.694 2.007-2.706 2.468-7.615.288-10.018-.902-.993-1.974-1.99-3.195-2.565-1.693-.797-4.659-.192-6.496-.243-1.341-.038-1.562-.145-2.345-.158z" style="fill:#f6f1ef" transform="matrix(.717 0 0 .717 -13.388 -16.143)"/><path d="M63.135 64.517a1.906 1.906 0 0 0 1.729 0c.887-.469 1.985-.341 2.62.133.872.651.872 1.952 0 3.252-.498.799-1.639 1.597-2.752 2.217a1.502 1.502 0 0 1-1.464 0c-1.113-.62-2.254-1.418-2.752-2.217-.872-1.3-.872-2.601 0-3.252.635-.474 1.733-.602 2.619-.133z" style="fill:#262626" transform="matrix(.717 0 0 .717 -13.388 -17.82)"/><path d="M65.043 68.088v.071l.002.21.003.15.005.18.007.207.01.231.013.254.013.215.004.06.023.292.027.308.032.324.018.164.019.169.021.17.022.173.024.175.014.098.012.078.028.177.03.178.032.179.034.179.035.18.012.059.026.12.041.178.043.178.044.177.046.176.048.174.005.015.047.156.055.169.056.167.058.164.06.16.056.144.006.014.066.152.069.149.07.144.073.141.035.066.037.067.037.065.025.042.014.022.039.061.041.06.04.059.041.057.041.055.041.054.041.052.042.05.041.049.042.047.042.045.042.044.042.042.035.033.007.007.043.037.043.035.043.033.044.033.049.035.05.035.05.033.049.032.05.031.049.03.05.029.049.028.049.027.047.024.1.05.098.044.014.006.083.033.098.035.096.032.096.028.096.025.096.022.094.018.095.016.094.012.094.01.093.007.017.001.076.002.092.001.093-.002.091-.004.091-.007.091-.009.09-.011.09-.014.089-.015.088-.018.088-.019.078-.019.009-.003.086-.024.085-.026.085-.027.083-.029.083-.031.081-.032.081-.033.079-.034.078-.036.077-.037.075-.037.074-.039.073-.039.071-.04.069-.041.068-.041.066-.042.064-.042.063-.042.06-.042.059-.042.037-.027.019-.015.054-.042.052-.041.049-.041.047-.041.044-.039.042-.039.039-.037.036-.036.033-.034.031-.033.026-.03.032-.036 1.476.033-.027 1.476-.052.045-.062.052-.065.051-.067.052-.069.051-.072.051-.073.051-.076.05-.079.05-.08.05-.083.05-.085.049-.03.016-.058.033-.089.048-.091.048-.094.047-.096.047-.098.045-.099.045-.102.043-.104.043-.106.041-.107.04-.11.038-.111.037-.113.035-.114.034-.117.032-.118.029-.119.028-.121.026-.122.023-.124.021-.125.018-.014.002-.113.015-.127.014-.129.011-.13.008-.131.005-.132.001-.133-.001-.133-.005-.135-.009-.135-.012-.135-.016-.112-.017-.024-.003-.137-.024-.137-.027-.137-.032-.137-.036-.137-.04-.137-.045-.136-.05-.137-.054-.135-.06-.135-.064-.115-.059-.02-.01-.134-.072-.13-.077-.069-.042-.066-.042-.066-.043-.065-.045-.065-.046-.065-.047-.064-.049-.064-.05-.064-.051-.065-.053-.066-.057-.065-.059-.064-.061-.063-.063-.01-.01-.052-.053-.061-.064-.06-.066-.058-.067-.058-.069-.056-.07-.055-.071-.053-.072-.053-.073-.052-.075-.05-.076-.05-.076-.049-.078-.047-.079-.016-.027-.032-.051-.048-.08-.047-.08-.047-.084-.089-.163-.087-.169-.083-.172-.081-.174-.007-.016-.074-.16-.079-.179-.075-.18-.074-.183-.071-.184-.062-.169-.007-.017-.069-.186-.066-.188-.064-.188-.063-.189-.06-.189-.039-.127-.019-.062-.058-.188-.056-.188-.054-.187-.052-.187-.05-.185-.022-.081-.027-.103-.049-.181-.046-.18-.045-.177-.042-.175-.042-.174-.076-.334-.07-.321-.063-.305-.012-.062-.046-.224-.052-.266-.045-.243-.04-.218-.032-.191-.027-.164-.035-.227-.004-.025-.008-.056.964-1.122 1.122.965z" style="fill:#262626" transform="matrix(.717 0 0 .717 -13.388 -16.143)"/><path d="m62.957 68.245.008.056.004.025.035.227.027.164.032.191.04.218.045.243.052.266.046.224.012.062.063.305.07.321.076.334.042.174.042.175.045.177.046.18.049.181.027.103.022.081.05.185.052.187.054.187.056.188.058.188.019.062.039.127.06.189.063.189.064.188.066.188.069.186.007.017.062.169.071.184.074.183.075.18.079.179.074.16.007.016.081.174.083.172.087.169.089.163.047.084.047.08.048.08.032.051.016.027.047.079.049.078.05.076.05.076.052.075.053.073.053.072.055.071.056.07.058.069.058.067.06.066.061.064.052.053.01.01.063.063.064.061.065.059.066.057.065.053.064.051.064.05.064.049.065.047.065.046.065.045.066.043.066.042.069.042.13.077.134.072.02.01.115.059.135.064.135.06.137.054.136.05.137.045.137.04.137.036.137.032.137.027.137.024.024.003.112.017.135.016.135.012.135.009.133.005.133.001.132-.001.131-.005.13-.008.129-.011.127-.014.113-.015.014-.002.125-.018.124-.021.122-.023.121-.026.119-.028.118-.029.117-.032.114-.034.113-.035.111-.037.11-.038.107-.04.106-.041.104-.043.102-.043.099-.045.098-.045.096-.047.094-.047.091-.048.089-.048.058-.033.03-.016.085-.049.083-.05.08-.05.079-.05.076-.05.073-.051.072-.051.069-.051.067-.052.065-.051.062-.052.052-.045.027-1.476-1.476-.033-.032.036-.026.03-.031.033-.033.034-.036.036-.039.037-.042.039-.044.039-.047.041-.049.041-.052.041-.054.042-.019.015-.037.027-.059.042-.06.042-.063.042-.064.042-.066.042-.068.041-.069.041-.071.04-.073.039-.074.039-.075.037-.077.037-.078.036-.079.034-.081.033-.081.032-.083.031-.083.029-.085.027-.085.026-.086.024-.009.003-.078.019-.088.019-.088.018-.089.015-.09.014-.09.011-.091.009-.091.007-.091.004-.093.002-.092-.001-.076-.002-.017-.001-.093-.007-.094-.01-.094-.012-.095-.016-.094-.018-.096-.022-.096-.025-.096-.028-.096-.032-.098-.035-.083-.033-.014-.006-.098-.044-.1-.05-.047-.024-.049-.027-.049-.028-.05-.029-.049-.03-.05-.031-.049-.032-.05-.033-.05-.035-.049-.035-.044-.033-.043-.033-.043-.035-.043-.037-.007-.007-.035-.033-.042-.042-.042-.044-.042-.045-.042-.047-.041-.049-.042-.05-.041-.052-.041-.054-.041-.055-.041-.057-.04-.059-.041-.06-.039-.061-.014-.022-.025-.042-.037-.065-.037-.067-.035-.066-.073-.141-.07-.144-.069-.149-.066-.152-.006-.014-.056-.144-.06-.16-.058-.164-.056-.167-.055-.169-.047-.156-.005-.015-.048-.174-.046-.176-.044-.177-.043-.178-.041-.178-.026-.12-.012-.059-.035-.18-.034-.179-.032-.179-.03-.178-.028-.177-.012-.078-.014-.098-.024-.175-.022-.173-.021-.17-.019-.169-.018-.164-.032-.324-.027-.308-.023-.292-.004-.06-.013-.215-.013-.254-.01-.231-.007-.207-.005-.18-.003-.15-.002-.21v-.071l-1.122-.965-.964 1.122z" style="fill:#262626" transform="matrix(-.717 0 0 .717 78.404 -16.143)"/><path d="m70.105 67.052.064.041.109.068.109.068.11.067.11.066.111.065.111.064.112.063.113.062.112.061.114.06.112.059.122.062.109.054.232.111.234.108.236.105.237.101.239.099.241.095.242.093.224.083.02.008.247.085.247.083.25.08.25.078.116.035.137.04.254.072.255.07.256.068.258.066.01.002.249.06.26.06.262.058.262.058.139.029.124.025.264.051.534.1.212.039.358.057.573.091.286.044.012.001.275.036.286.037.286.034.285.033.272.029.013.001.285.025.284.022.283.019.282.016.282.012.036.001.245.006.139.001.139.001h.139l.139-.001.138-.003.139-.004.137-.004.138-.006.059-.004.078-.004.136-.01.136-.01.136-.012.135-.014.135-.014.134-.016.134-.018.134-.019.133-.02.132-.022.132-.023.132-.025.131-.026.13-.028.13-.03.13-.031.022-.006.107-.028.128-.035.128-.037.127-.039.127-.04.126-.042.133-.046 1.279.731-.72 1.285-.152.033-.158.032-.158.03-.158.028-.157.026-.158.023-.13.018-.027.004-.157.02-.156.018-.157.016-.156.014-.156.012-.155.01-.155.008-.155.007-.155.005-.155.003-.154.002h-.154l-.153-.002-.154-.003-.153-.005-.152-.006-.087-.004-.066-.003-.152-.008-.152-.009-.152-.01-.151-.012-.151-.013-.151-.014-.15-.015-.152-.017-.26-.031-.038-.004-.299-.037-.298-.041-.296-.045-.296-.047-.294-.05-.014-.002-.28-.047-.293-.052-.292-.053-.29-.055-.278-.054-.012-.002-.29-.052-.575-.106-.359-.068-.214-.035-.541-.09-.272-.047-.128-.023-.143-.023-.272-.045-.271-.047-.272-.048-.26-.048-.011-.002-.271-.049-.271-.051-.271-.053-.271-.055-.147-.031-.124-.025-.271-.058-.271-.061-.27-.063-.27-.067-.022-.005-.249-.062-.27-.071-.27-.074-.27-.077-.269-.081-.269-.086-.269-.089-.268-.093-.125-.046-.141-.05-.136-.051-.134-.05-.134-.052-.133-.054-.134-.054-.133-.055-.134-.057-.133-.058-.133-.06-.133-.06-.133-.062-.072-.035-.056-.026-.41-1.422 1.421-.409.049.031z" style="fill:#fff" transform="matrix(.717 0 0 .717 -12.81 -14.97)"/><path d="m68.635 67.43.41 1.422.056.026.072.035.133.062.133.06.133.06.133.058.134.057.133.055.134.054.133.054.134.052.134.05.136.051.141.05.125.046.268.093.269.089.269.086.269.081.27.077.27.074.27.071.249.062.022.005.27.067.27.063.271.061.271.058.124.025.147.031.271.055.271.053.271.051.271.049.011.002.26.048.272.048.271.047.272.045.143.023.128.023.272.047.541.09.214.035.359.068.575.106.29.052.012.002.278.054.29.055.292.053.293.052.28.047.014.002.294.05.296.047.296.045.298.041.299.037.038.004.26.031.152.017.15.015.151.014.151.013.151.012.152.01.152.009.152.008.066.003.087.004.152.006.153.005.154.003.153.002h.154l.154-.002.155-.003.155-.005.155-.007.155-.008.155-.01.156-.012.156-.014.157-.016.156-.018.157-.02.027-.004.13-.018.158-.023.157-.026.158-.028.158-.03.158-.032.152-.033.72-1.285-1.279-.731-.133.046-.126.042-.127.04-.127.039-.128.037-.128.035-.107.028-.022.006-.13.031-.13.03-.13.028-.131.026-.132.025-.132.023-.132.022-.133.02-.134.019-.134.018-.134.016-.135.014-.135.014-.136.012-.136.01-.136.01-.078.004-.059.004-.138.006-.137.004-.139.004-.138.003-.139.001h-.139l-.139-.001-.139-.001-.245-.006-.036-.001-.282-.012-.282-.016-.283-.019-.284-.022-.285-.025-.013-.001-.272-.029-.285-.033-.286-.034-.286-.037-.275-.036-.012-.001-.286-.044-.573-.091-.358-.057-.212-.039-.534-.1-.264-.051-.124-.025-.139-.029-.262-.058-.262-.058-.26-.06-.249-.06-.01-.002-.258-.066-.256-.068-.255-.07-.254-.072-.137-.04-.116-.035-.25-.078-.25-.08-.247-.083-.247-.085-.02-.008-.224-.083-.242-.093-.241-.095-.239-.099-.237-.101-.236-.105-.234-.108-.232-.111-.109-.054-.122-.062-.112-.059-.114-.06-.112-.061-.113-.062-.112-.063-.111-.064-.111-.065-.11-.066-.11-.067-.109-.068-.109-.068-.064-.041-.049-.031-1.421.409z" style="fill:#fff" transform="matrix(-.717 0 0 .717 77.81 -14.97)"/><path d="m93.945 64.571-.476 1.395-.135.059-.143.059-.144.058-.145.057-.147.055-.148.054-.148.052-.15.052-.022.007-.129.043-.152.049-.153.048-.154.047-.155.046-.156.044-.157.043-.159.043-.159.041-.16.039-.161.039-.162.038-.163.036-.164.036-.164.034-.166.034-.166.032-.169.032-.057.011-.277.051-.34.058-.342.054-.345.051-.347.048-.12.015-.23.03-.351.043-.354.04-.356.036-.357.034-.159.014-.2.019-.36.031-.361.029-.363.026-.363.023-.066.004-.298.022-.364.024-.364.022-.365.019-.101.005-.263.018-.365.022-.364.021-.363.019-.029.001-.334.02-.362.02-.361.019-.359.017-.032.001-.326.017-.357.018-.354.016-.353.014-.083.004-.268.012-.348.015-.688.027-.149.005-.528.022-.663.024-.647.022-.631.019-.215.006-.397.014-.592.019-1.047.034-.071.003-1.023-1.068 1.067-1.024.071.005 1.043.078.589.044.394.029.214.014.624.04.641.038.656.038.521.027.147.007.68.026.343.012.265.009.081.002.348.007.35.006.352.005.321.003h.032l.354-.001.355-.003.356-.005.329-.005.028-.001.358-.013.357-.014.358-.016.258-.014.099-.007.356-.027.356-.029.355-.031.29-.028.064-.007.352-.041.351-.043.349-.046.347-.048.192-.028.153-.024.342-.056.339-.059.336-.062.334-.064.217-.044.113-.023.326-.072.322-.075.319-.077.314-.08.257-.069.053-.015.152-.043.152-.045.15-.045.149-.046.148-.046.146-.048.145-.048.144-.049.142-.049.14-.051.14-.051.137-.052.136-.052.135-.054.133-.054.131-.055.13-.056.109-.048.019-.008.126-.058.124-.059.122-.059.121-.06.118-.061.117-.062.115-.062.118-.065 1.392.485z" style="fill:#fff" transform="matrix(.717 0 0 .717 -12.81 -14.97)"/><path d="m92.435 64.151-.115.062-.117.062-.118.061-.121.06-.122.059-.124.059-.126.058-.019.008-.109.048-.13.056-.131.055-.133.054-.135.054-.136.052-.137.052-.14.051-.14.051-.142.049-.144.049-.145.048-.146.048-.148.046-.149.046-.15.045-.152.045-.152.043-.053.015-.257.069-.314.08-.319.077-.322.075-.326.072-.113.023-.217.044-.334.064-.336.062-.339.059-.342.056-.153.024-.192.028-.347.048-.349.046-.351.043-.352.041-.064.007-.29.028-.355.031-.356.029-.356.027-.099.007-.258.014-.358.016-.357.014-.358.013-.028.001-.329.005-.356.005-.355.003-.354.001h-.032l-.321-.003-.352-.005-.35-.006-.348-.007-.081-.002-.265-.009-.343-.012-.68-.026-.147-.007-.521-.027-.656-.038-.641-.038-.624-.04-.214-.014-.394-.029-.589-.044-1.043-.078-.071-.005-1.067 1.024 1.023 1.068.071-.003 1.047-.034.592-.019.397-.014.215-.006.631-.019.647-.022.663-.024.528-.022.149-.005.688-.027.348-.015.268-.012.083-.004.353-.014.354-.016.357-.018.326-.017.032-.001.359-.017.361-.019.362-.02.334-.02.029-.001.363-.019.364-.021.365-.022.263-.018.101-.005.365-.019.364-.022.364-.024.298-.022.066-.004.363-.023.363-.026.361-.029.36-.031.2-.019.159-.014.357-.034.356-.036.354-.04.351-.043.23-.03.12-.015.347-.048.345-.051.342-.054.34-.058.277-.051.057-.011.169-.032.166-.032.166-.034.164-.034.164-.036.163-.036.162-.038.161-.039.16-.039.159-.041.159-.043.157-.043.156-.044.155-.046.154-.047.153-.048.152-.049.129-.043.022-.007.15-.052.148-.052.148-.054.147-.055.145-.057.144-.058.143-.059.135-.059.476-1.395-1.392-.485-.118.065z" style="fill:#fff" transform="matrix(-.717 0 0 .717 77.81 -14.97)"/><path d="m92.647 61.853-.392 1.422-.104.051-.111.054-.113.053-.115.051-.116.051-.119.05-.119.05-.122.048-.122.047-.022.009-.103.039-.125.046-.128.046-.128.045-.132.045-.263.086-.271.084-.276.082-.282.079-.287.077-.291.074-.293.071-.004.001-.3.072-.305.069-.309.068-.312.065-.317.063-.02.004-.299.059-.323.062-.325.059-.328.058-.326.054-.005.001-.332.057-.335.055-.336.054-.337.051-.175.026-.163.027-.339.053-.34.052-.34.05-.142.02-.198.032-.339.054-.34.052-.338.051-.014.002-.324.051-.336.052-.336.05-.292.043-.042.007-.332.05-.33.049-.327.047-.28.039-.045.006-.323.047-.319.044-.316.043-.296.038-.017.003-.309.041-.305.04-.3.038-.296.036-.292.035-.286.032-.281.03-.276.029-.052.005-.218.023-.264.026-.258.024-.252.022-.245.02-.238.018-.231.016-.156.01-.064.004-1.05-1.042 1.042-1.05.062.004.151.008.217.011.226.01.233.009.241.007.248.007.256.005.211.003h.051l.268.001.274-.001.28-.002.285-.003.291-.005.296-.006.3-.008.304-.009h.017l.291-.013.312-.015.316-.016.319-.018.044-.002.277-.019.324-.024.326-.025.329-.027.041-.003.289-.028.331-.034.333-.035.32-.036.013-.001.334-.044.333-.045.334-.046.195-.029.139-.023.332-.057.331-.059.33-.06.16-.03.169-.035.326-.069.324-.071.323-.072.319-.074.005-.001.311-.077.313-.08.309-.082.306-.082.283-.079.019-.006.297-.087.292-.089.288-.091.282-.091.276-.093.004-.001.267-.095.264-.097.257-.098.251-.099.243-.1.236-.101.23-.102.109-.05.108-.051.107-.052.104-.051.085-.042.018-.01.099-.052.097-.052.095-.052.093-.052.089-.053.088-.052.084-.052.082-.052.086-.055 1.419.401z" style="fill:#fff" transform="matrix(.717 0 0 .717 -12.81 -14.97)"/><path d="m71.115 65.76 1.05 1.042.068-.004.153-.009.233-.015.241-.018.25-.02.257-.022.265-.024.272-.026.279-.028h.001l.285-.028.293-.03.298-.032.305-.034.31-.036.316-.038.32-.04.325-.042.08-.011.25-.03.334-.043.338-.045.341-.046.1-.014.245-.032.348-.047.35-.049.353-.051.08-.012.275-.037.357-.051.359-.052.359-.053.003-.001.358-.05.362-.052.362-.054.209-.032.153-.02.363-.05.362-.052.361-.053.151-.023.21-.029.359-.051.358-.053.356-.055.314-.051.039-.006.352-.055.348-.057.346-.059.342-.061.254-.048.084-.015.335-.063.331-.065.326-.067.321-.069.25-.057.066-.014.311-.072.306-.075.3-.076.295-.079.287-.082.28-.083.14-.044.136-.044.135-.044.133-.046.132-.046.129-.046.065-.025.063-.023.126-.048.125-.048.122-.05.121-.051.119-.051.117-.053.115-.053.113-.055.104-.052.394-1.422-1.419-.401-.086.054-.081.051-.084.051-.088.052-.09.051-.094.052-.096.052-.099.052-.102.052-.052.025-.053.026-.107.051-.11.051-.113.051-.115.051-.117.051-.118.05-.248.101-.254.1-.263.099-.271.098-.279.097-.285.096-.061.02-.232.074-.299.091-.304.091-.311.089-.316.088-.08.022-.241.063-.326.083-.33.082-.334.08-.337.079-.038.008-.303.066-.345.073-.346.07-.349.07-.203.039-.148.026-.353.061-.354.059-.355.057-.151.024-.206.028-.356.046-.357.045-.353.044h-.003l-.356.037-.355.035-.353.033-.272.025-.08.006-.349.027-.348.025-.344.024-.243.015-.098.006-.339.017-.334.017-.33.014-.247.01-.079.003-.321.009-.317.007-.31.007-.306.004-.299.004-.292.002-.286.001h-.278l-.001-.001-.272-.003-.264-.005-.255-.006-.247-.007-.239-.008-.229-.01-.219-.01-.148-.008-.066-.004-1.042 1.05z" style="fill:#fff" transform="matrix(-.717 0 0 .717 77.81 -14.97)"/><path d="M40.204 99.047c3.225-3.455 13.681-7.032 18.477-5.058 2.305.949 7.223 3.823 9.838 3.358 8.332-1.481 12.706-3.381 16.899-3.358 1.419.008 3.1 2.063 2.845 3.358-.213 1.084-1.275 2.041-2.157 2.64-1.968 1.336-4.777.889-6.898 1.989-2.014 1.044-3.54 2.989-5.405 4.274-1.918 1.322-9.084 3.027-11.335 3.535" style="fill:url(#a)" transform="matrix(1.06322 0 0 1.18384 -6.792 -22.154)"/><path d="M17.883 50.392C14.554 52.876 6.307 61.951 5.497 70.178c-.248 2.522-.244 8.069 2.125 9.866.653.495 2.524-.119 3.188-.389a6.112 6.112 0 0 0 1.68-1.001c2.804-2.377 1.708-6.96 2.141-10.107.541-3.928 2.739-7.749 4.706-10.111 8.72-10.472 3.276-11.573-1.454-8.044z" style="fill:url(#b)" transform="rotate(-29.345 18.764 51.7)"/><path d="M66.386 53.116c1.414 1.699 2.615 3.556 3.391 5.691 1.402 3.86-.622 6.645-4.426 5.262-4.079-1.483-6.534-5.79-7.97-9.209a6.419 6.419 0 0 0-1.105-1.744h10.11z" style="fill:#b67f5e"/><defs><linearGradient id="a" x1="0" x2="1" y1="0" y2="0" gradientTransform="matrix(48.0848 0 0 16.3599 40.204 101.606)" gradientUnits="userSpaceOnUse"><stop offset="0" style="stop-color:#b67f5e;stop-opacity:0"/><stop offset="1" style="stop-color:#b67f5e;stop-opacity:1"/></linearGradient><linearGradient id="b" x1="0" x2="1" y1="0" y2="0" gradientTransform="rotate(158.757 6.876 28.253) scale(5.71683)" gradientUnits="userSpaceOnUse"><stop offset="0" style="stop-color:#b67f5e;stop-opacity:0"/><stop offset="1" style="stop-color:#b67f5e;stop-opacity:1"/></linearGradient></defs></svg>