<svg xmlns="http://www.w3.org/2000/svg" style="fill-rule:evenodd;clip-rule:evenodd;stroke-linejoin:round;stroke-miterlimit:1.41421" viewBox="0 0 128 128" xml:space="preserve"><path d="M24 22.325c0-.245-.56-.444-1.25-.444h-2.5c-.69 0-1.25.199-1.25.444V42.09c0 .245.56.444 1.25.444h2.5c.69 0 1.25-.199 1.25-.444V22.325z" style="fill:#e0e0e0" transform="matrix(1.28093 .73955 -2.08588 3.61286 97.838 -58.564)"/><path d="M24 23.051c0-.646-.56-1.17-1.25-1.17h-2.5c-.69 0-1.25.524-1.25 1.17v18.313c0 .646.56 1.17 1.25 1.17h2.5c.69 0 1.25-.524 1.25-1.17V23.051z" style="fill:#ea7c71" transform="matrix(1.28093 .73955 -.7904 1.36902 42.737 36.875)"/><path d="M24 24.227c0-1.295-.56-2.346-1.25-2.346h-2.5c-.69 0-1.25 1.051-1.25 2.346v15.961c0 1.295.56 2.346 1.25 2.346h2.5c.69 0 1.25-1.051 1.25-2.346V24.227z" style="fill:#4c4c4c" transform="matrix(2.56186 1.4791 -.78822 1.36524 54.515 -47.127)"/><circle cx="21.5" cy="92.534" r="2.346" style="fill:#d3d3d3" transform="rotate(30 290.42 139.97) scale(2.61273)"/></svg>