<svg xmlns="http://www.w3.org/2000/svg" viewBox="0 0 128 128" style="fill-rule:evenodd;clip-rule:evenodd;stroke-linejoin:round;stroke-miterlimit:1.41421"><path d="M75.376 79.412c3.65 4.311 3.698 11.747.726 16.446-1.54 2.431-3.347 4.265-3.996 7.17-.289 1.295-.507 2.47.494 3.486.53.536 1.182.93 1.86 1.24.856.391 2.167.977 3.126.818 3.08-.512 5.574-5 6.468-7.677 2.724-8.153 1.993-17.71-3.4-24.415" style="fill:#2d2d2d"/><path d="M55.351 63.169a15.5 15.5 0 0016.989 6.585 38.442 38.442 0 002.04-.531c4.206-1.19 8.427-3.659 12.712-4.366 1.496-.247 4.354-.42 6.416-.506a1.892 1.892 0 001.883-2.428c-1.895-4.113-7.39-7.034-10.014-10.348-5.514-6.963-7.154-12.943-7.542-21.71-.13-2.927-.107-6.195.561-9.067C81.214 8.691 92.899 4.08 103.993 3.037c3.07-.288 14.618-.829 16.345 0 1.609.773-3.195 3.05-14.15 6.569-6.891 2.214-8.363 9.104-8.665 14.388-.603 10.574 8.747 18.596 13.666 27.02 2.084 3.57 5.022 9.906 2.807 13.961-.902 1.651-2.663 3.228-4.575 4.612a1.895 1.895 0 00-.376 2.69c2.941 3.79 4.107 8.475 1.479 13.14-3.856 6.845-8.197 9.145-14.395 12.917-5.03 3.06-12.679 5.103-18.294 7.061-8.915 3.109-18.671 4.082-27.832 2.231-1.662-.336-7.59-2.277-11.006-3.53-2.722-.999-5.452-2.099-7.615-3.994-2.419-2.118-6.058-5.285-8.2-7.563-6.31-6.71-9.578-12.479-10.296-19.166-1.527-14.204 10.077-19.214 22.489-19.214 8.482 0 16.16 3.03 19.976 9.01z" style="fill:#232323"/><path d="M57.069 65.38c7.047 6.59 8.89 7.309 31.312 1.727 2.786-.693 8.992-.73 11.93-.705a1.337 1.337 0 001.332-1.494c-.635-2.535-2.643-8.258-9.074-17.24-2.644-3.69-6.387-9.611-7.215-13.995-1.432-7.568-.422-14.17 4.602-21.143 4.227-5.87 14.697-7.445 20.75-7.86a.305.305 0 01.09.6c-4.126 1.018-10.203 3.42-14.055 9.022-5.012 7.288-3.829 13.6-2.026 19.38a61.82 61.82 0 007.194 15.218c3.858 5.88 5.765 10.56 5.003 15.185-.199 1.203-1.249 2.68-1.863 3.46a1.33 1.33 0 01-1.096.515c-2.109-.022-9.025.052-15.572 2.208-14.511 4.78-23.352 6.755-31.312-4.877" style="fill:#efefef"/><ellipse cx="34.512" cy="51.491" rx="3.551" ry="2.876" style="fill:#1c1c1c" transform="matrix(1.07605 1.08646 -1.15534 1.16652 39.927 -37.001)"/><ellipse cx="34.512" cy="51.491" rx="3.551" ry="2.876" style="fill:#1c1c1c" transform="matrix(-1.07605 1.08646 1.15534 1.16652 30.676 -37.001)"/><path d="M35.375 54.159c12.412 0 23.1 6.487 22.49 19.214-.478 9.96-10.078 18.065-22.49 18.065-12.412 0-21.424-8.148-22.49-18.065C11.36 59.17 22.963 54.16 35.375 54.16z" style="fill:#232323"/><circle cx="44.244" cy="57.664" r="3.623" style="fill:#d5d5d5" transform="matrix(.68131 0 0 .6879 -7.642 28.09)"/><circle cx="44.244" cy="57.664" r="3.623" style="fill:#d5d5d5" transform="matrix(.68131 0 0 .6879 17.993 28.09)"/><path d="M34.943 74.163c-.986-.016-2.59-.054-3.876.043-.619.047-1.31.066-1.897.309-1.423.592-2.995 1.574-3.906 2.855-1.776 2.5-1.561 6.77.799 8.789.978.835 2.387 1.326 3.607 1.672 2.64.748 5.332 1.026 8.07.964 1.85-.042 3.566-.95 5.197-1.736.761-.368 1.706-.778 2.229-1.489 1.746-2.377 2.147-6.69.25-8.801-.785-.873-1.718-1.749-2.78-2.254-1.473-.7-4.054-.169-5.653-.214-1.167-.033-1.359-.127-2.04-.138z" style="fill:#534946"/><path d="M36.067 76.978l.001.063.004.185.005.134.007.159.008.183.012.203.014.225.013.184.005.058.022.26.014.133.013.137.015.14.017.144.017.146.018.149.02.15.021.153.023.154.011.075.013.08.026.157.03.157.028.158.031.158.032.158.008.037.027.121.038.159.038.157.04.155.042.156.042.15.001.004.047.152.049.149.05.148.052.145.054.144.042.109.013.031.03.067.03.068.03.066.03.066.03.065.032.064.032.063.033.061.032.06.033.06.033.06.011.019.024.038.035.055.035.054.036.052.036.052.037.05.037.05.037.047.037.046.037.044.037.043.039.042.038.04.037.038.019.017.02.02.039.034.039.033.04.032.04.03.043.032.044.032.044.03.045.03.044.029.045.028.044.026.044.026.044.024.044.024.044.023.044.022.044.021.04.018.004.002.043.019.044.018.044.017.044.016.043.015.044.015.043.014.043.013.044.012.043.011.043.012.042.01.044.01.042.007.043.008.043.008.042.006.043.006.042.006.04.004.087.007.083.004.085.002h.082l.083-.003.083-.005.082-.007.081-.009.081-.011.08-.013.08-.015.08-.017.062-.014.017-.004.077-.02.078-.023.075-.023.076-.026.075-.026.073-.028.073-.03.071-.029.07-.03.07-.033.068-.034.067-.033.066-.035.064-.035.063-.036.062-.036.06-.037.058-.037.056-.037.055-.038.053-.038.033-.023.019-.014.05-.037.046-.037.045-.037.044-.036.04-.035.04-.035.037-.034.034-.032.03-.032.03-.03.026-.029.03-.031 1.057.017-.014 1.059-.044.038-.051.044-.053.044-.056.044-.058.044-.06.044-.061.044-.064.043-.066.044-.068.043-.07.043-.072.042-.026.015-.047.027-.075.043-.078.042-.078.041-.081.04-.083.04-.085.039-.086.038-.088.037-.089.036-.091.035-.093.034-.094.032-.096.032-.097.03-.099.028-.099.026-.102.025-.102.023-.104.02-.104.02-.107.016-.022.003-.085.012-.108.012-.11.01-.109.009-.111.005-.112.002h-.112l-.114-.004-.113-.007-.115-.01-.115-.012-.112-.016h-.003l-.114-.019-.06-.011-.057-.013-.058-.012-.059-.013-.058-.015-.057-.016-.059-.016-.058-.017-.057-.019-.059-.02-.058-.02-.057-.021-.059-.022-.057-.024-.058-.025-.057-.025-.057-.026-.058-.028-.057-.029-.057-.03-.005-.002-.052-.027-.057-.032-.056-.032-.057-.034-.057-.034-.055-.036-.057-.037-.055-.038-.055-.04-.056-.04-.055-.041-.055-.042-.054-.044-.055-.046-.056-.047-.055-.05-.055-.052-.052-.053-.028-.029-.025-.025-.051-.055-.05-.056-.05-.057-.049-.06-.047-.058-.047-.061-.046-.062-.045-.063-.044-.063-.043-.066-.043-.065-.04-.067-.042-.068-.027-.046-.014-.022-.04-.069-.04-.07-.04-.07-.038-.072-.038-.072-.038-.072-.036-.074-.037-.073-.036-.075-.034-.076-.035-.077-.015-.034-.053-.118-.067-.155-.064-.158-.063-.159-.06-.16-.06-.163v-.004l-.058-.159-.055-.163-.055-.164-.052-.165-.052-.166-.037-.126-.011-.039-.05-.164-.046-.165-.045-.164-.044-.163-.043-.162-.02-.083-.02-.078-.04-.159-.039-.157-.036-.155-.036-.153-.034-.151-.032-.148-.031-.146-.03-.142-.028-.14-.051-.265-.012-.06-.036-.19-.043-.233-.036-.213-.032-.19-.027-.168-.021-.143-.028-.197-.003-.022-.007-.049.693-.804.803.693z" style="fill:#cfcfcf"/><path d="M36.088 77.09l-.007.048-.002.022-.028.197-.022.143-.027.167-.031.191-.037.213-.042.232-.037.19-.011.06-.052.266-.027.14-.03.142-.031.146-.032.148-.034.15-.036.154-.037.155-.038.157-.04.16-.02.077-.02.083-.043.162-.044.163-.045.164-.047.165-.049.164-.011.039-.038.126-.051.166-.052.165-.055.164-.056.163-.057.16-.001.003-.06.163-.06.16-.062.16-.064.157-.067.155-.053.118-.015.034-.035.077-.035.076-.035.075-.037.073-.037.074-.037.072-.038.072-.039.072-.039.07-.04.07-.04.069-.015.022-.027.046-.04.068-.041.067-.043.065-.043.066-.045.063-.044.063-.046.062-.047.061-.047.059-.05.059-.049.057-.05.056-.051.055-.026.025-.028.03-.052.052-.055.052-.054.05-.056.047-.056.046-.054.044-.055.042-.054.041-.056.04-.055.04-.056.038-.056.037-.056.036-.056.034-.057.034-.057.032-.056.032-.052.027-.006.003-.056.03-.058.028-.057.028-.057.026-.058.025-.057.025-.058.024-.058.022-.057.022-.059.02-.058.02-.057.018-.059.017-.058.016-.057.016-.059.015-.058.013-.058.012-.058.013-.06.011-.114.018-.002.001-.113.016-.115.012-.114.01-.114.007-.114.004h-.112L30.348 86l-.112-.005-.11-.008-.109-.01-.108-.013-.084-.012-.023-.003-.106-.017-.104-.018-.105-.021-.102-.023-.101-.025-.1-.026-.099-.028-.096-.03-.096-.032-.094-.032-.093-.034-.092-.035-.088-.036-.088-.037-.086-.038-.086-.039-.082-.04-.081-.04-.079-.041-.077-.042-.076-.043-.047-.027-.026-.015-.072-.042-.07-.043-.067-.043-.067-.044-.063-.043-.062-.044-.06-.044-.057-.044-.056-.044-.053-.044-.052-.044-.044-.038-.014-1.059 1.058-.017.03.031.026.03.029.029.031.032.034.032.037.034.039.035.04.035.044.036.045.037.047.037.05.037.018.014.033.023.053.038.055.038.057.037.058.037.06.037.062.036.063.036.064.035.065.035.067.033.068.034.07.032.07.031.072.03.073.029.073.028.075.026.075.026.076.023.077.022.078.02.016.005.063.014.08.017.08.015.08.013.08.011.082.01.082.006.082.005.083.003h.083l.084-.002.082-.003.002-.001.086-.007.04-.004.043-.006.042-.006.043-.006.042-.008.043-.008.043-.008.043-.01.043-.01.043-.01.043-.012.044-.012.042-.013.044-.014.043-.015.044-.015.043-.016.045-.017.043-.018.044-.019.004-.002.04-.018.044-.021.044-.022.043-.023.045-.024.043-.024.045-.026.044-.026.044-.028.045-.028.044-.03.045-.03.044-.033.043-.031.04-.03.04-.033.039-.033.038-.034.021-.02.018-.017.038-.038.038-.04.038-.042.038-.043.037-.044.037-.046.037-.048.037-.049.036-.05.037-.052.035-.052.036-.054.035-.055.023-.038.012-.02.033-.058.033-.06.032-.06.032-.062.032-.063.032-.064.031-.065.03-.066.03-.066.03-.068.03-.067.012-.031.043-.11.054-.143.052-.145.05-.148.048-.15.047-.151.001-.004.043-.15.042-.156.04-.155.038-.157.037-.159.027-.12.008-.038.032-.158.032-.158.028-.158.03-.157.025-.157.013-.08.012-.075.022-.154.021-.152.02-.151.018-.149.018-.146.016-.144.015-.14.014-.137.013-.134.023-.259.005-.058.013-.184.014-.225.011-.203.009-.183.007-.16.004-.133.005-.185v-.063l.804-.693.692.804z" style="fill:#cfcfcf"/><path d="M34.646 71.818c.418.237.93.237 1.346 0 .784-.465 1.788-.358 2.36.072.758.572.758 1.715 0 2.857-.452.73-1.509 1.46-2.514 2.014a1.08 1.08 0 01-1.037 0c-1.005-.553-2.061-1.284-2.513-2.014-.759-1.142-.759-2.285 0-2.857.572-.43 1.575-.537 2.358-.072z" style="fill:#9a4d35"/><path d="M31.23 54.355a42.496 42.496 0 014.145-.196c1.358 0 2.695.077 3.999.232-.346 1.159-1.07 2.126-1.31 3.352-.173.891-.34 1.826-.432 2.73-.215 2.102.077 5.3-2.09 6.372-1.324.653-2.316-1.615-2.613-2.585-.31-1.02-.358-2.173-.592-3.22-.507-2.273-.976-4.4-1.108-6.685z" style="fill:#efefef"/><path d="M28.646 91.719c.938 1.681 1.777 3.122 2.318 4.828.978 3.084-1.067 1.865 1.267 4.239 2.604 2.65-.344 4.528-1.267 5.897-1.243 1.843-3.644 2.137-4.842 3.832-1.163 1.644-2.015 3.682-.103 5.06.62.445 1.905 1.091 2.627 1.329.981.324 2.342.783 3.378.517 1.51-.388 2.59-1.833 3.4-3.068 1.856-2.833 5.334-6.072 5.9-9.43.211-1.255-.274-2.868-.2-4.137.1-1.681-1.61 1.661-1.327 0 .397-2.33-.704-2.482 2.193-2.341 2.185.106 3.988.555 5.088 2.34 1.93 3.139 1.825 4.545 1.936 8.136.05 1.616.102 3.037-.46 4.579-.857 2.351-3.241 3.765-3.62 6.352-.405 2.764 1.657 5.191 4.407 5.522 2.242.268 4.238-1.295 5.91-2.577 4.457-3.412 4.937-8.815 5.099-14.017.078-2.511.174-4.985-.314-7.463-.446-2.262-.913-4.532-1.214-6.82M87.81 84.161c4.114 4.532 4.168 12.348.817 17.287-1.734 2.556-3.772 4.484-4.504 7.538-.325 1.36-.571 2.596.557 3.663.597.564 1.332.978 2.098 1.305.964.41 2.441 1.027 3.522.859 3.472-.539 6.283-5.256 7.292-8.07 3.07-8.57 2.246-18.615-3.834-25.664" style="fill:#232323"/></svg>