<svg xmlns="http://www.w3.org/2000/svg" viewBox="0 0 128 128" style="fill-rule:evenodd;clip-rule:evenodd;stroke-linecap:round;stroke-linejoin:round;stroke-miterlimit:1.5"><path d="M10.715 43.305a.756.756 0 011.49.217c1.331 12.135 12.116 26.738 30.185 37.17a94.522 94.522 0 006.247 3.304c4.812 2.778 6.632 2.247 11.004 5.678 5.581 4.379 10.108 9.577 16 13.688 3.336 2.327 8.287 5.258 12.291 5.278.496.003.927-.025 1.302-.079a.81.81 0 01.948.831c-.015 1.275-.805 2.16-3.525 2.147-4.004-.02-8.955-2.952-12.29-5.279-5.892-4.11-10.42-9.309-16-13.688-4.372-3.431-6.193-2.9-11.005-5.678a94.484 94.484 0 01-6.246-3.303C21.479 72.253 10.225 55.952 10.715 43.305zm90.028 54.837a.802.802 0 011.084.907l.01.003c-.746 3.555-7.34 1.887-11.081 2.88a.805.805 0 01-1.095-.944c.123-.401.317-.77.648-1.082 2.082-1.966 7.361-1.094 10.434-1.764zm15.081-18.217a.764.764 0 011.076.86c-.336 1.476-3.314 3.358-4.708 3.76-4.104 1.183-9.366.066-13.209 1.81a.806.806 0 01-1.141-.942c.15-.297.344-.594.672-.868 3.963-3.305 10.381-2.48 15.144-3.853a17.227 17.227 0 002.166-.767zm-1.425-24.533a.816.816 0 011.078.757c.001.131-.001.261-.009.391-.071 1.136-2.426 2.684-3.434 3.006-2.231.714-6.3.726-9 1.862a.742.742 0 01-.983-.383c-.096-.254-.149-.454-.071-.603 1.625-3.142 8.588-3.808 11.678-4.796.212-.067.468-.144.741-.234z" style="fill:#ed6c30"/><path d="M56.142 27.52h.001c7.182 1.948 14.948-.558 22.278 1.912 6.327 2.132 8.126 9.073 14.717 10.974 8.353 2.407 15.849.911 21.371 9.199 1.028 1.546 1.991 3.337 1.884 5.058-.07 1.136-2.075 1.662-3.084 1.986-3.09.988-9.704.631-11.328 3.773-.495.956 4.313 3.953 5.218 4.567 4.023 2.726 11.927 8.829 10.784 13.852-.336 1.475-3.122 2.403-4.516 2.805-4.763 1.374-10.327-.773-14.29 2.531-1.716 1.431.23 3.526 1.38 5.13 1.798 2.509 3.017 4.963 2.443 7.701-.882 4.206-9.381.215-12.307 2.978-2.943 2.779 4.948 10.024-2.793 9.985-4.005-.02-8.923-4.281-12.259-6.609-5.891-4.11-10.419-9.31-15.999-13.688-4.373-3.43-6.193-2.9-11.006-5.679a94.309 94.309 0 01-6.246-3.302C18.24 66.75 4.691 44.935 12.154 32.01c6.096-10.56 24.344-11.942 43.988-4.49z" style="fill:#f7dfe9"/><ellipse cx="64" cy="64" rx="36.454" ry="23.161" style="fill:#f8dc90" transform="matrix(1.03246 .59609 -.42157 .73019 13.964 -29.255)"/><circle cx="55.813" cy="56.899" r="7.101" style="fill:#a8e2f9" transform="scale(1.38607) rotate(30 97.764 -3.713)"/><path d="M48.389 32.815c1.345 1.4 2.007 2.998 1.89 4.958" style="fill:none;stroke:#fff;stroke-width:.72px"/></svg>