<svg xmlns="http://www.w3.org/2000/svg" style="fill-rule:evenodd;clip-rule:evenodd;stroke-linecap:round;stroke-linejoin:round;stroke-miterlimit:1.5" viewBox="0 0 128 128" xml:space="preserve"><path d="M33.1 6.85c-1.75.18-3.57.2-5.25.65-1.69.45-3.47 1.35-5.03 2.11-3.07 1.48-5.51 3.78-3.97 7.4.81 1.87 1.52 3.68 1.87 5.66 1.79 10.26 3.11 21.14-.67 31.12-.73 1.91-1.97 3.37-2.13 5.48-.11 1.59.11 3.07.47 4.6 2.18 9.36 3.2 18.98 3.7 28.57.25 4.75.36 9.5.38 14.25.02 4.56-.27 9.95 2.24 13.99 2.05 3.29 7.8 3.59 11.19 4.33 21.28 4.57 45.6 4.34 64.6-7.55 5.39-3.37 10.51-7.66 14.93-12.22 4.9-5.07 2.22-10.72-.69-15.96-2.19-3.95-4.22-7.99-5.99-12.15-3.82-8.98-6.26-18.29-7.18-28-.17-1.69-.22-3.06-.1-4.8.1-1.59-.05-3.24-1.51-4.18-10.23-6.59-11.02-17.6-13.91-28.3-.71-2.63-.23-10.27-4.12-10.85-3.45-.51-7.22-1.07-10.7-.51-2.95.47-7.05.18-8.47 3.54-.49 1.16.04 2.29-.07 3.49-.73 8.11-15.93 9.56-21.22 5.89-3.16-2.18-3.65-7.03-8.37-6.56z" style="fill:#ed6c30;fill-rule:nonzero" transform="rotate(7.137 25.246 93.294) scale(.92019)"/><path d="M33.1 6.85c-1.75.18-3.57.2-5.25.65-1.69.45-3.47 1.35-5.03 2.11-3.07 1.48-5.51 3.78-3.97 7.4.81 1.87 1.52 3.68 1.87 5.66 1.79 10.26 3.11 21.14-.67 31.12-.73 1.91-1.97 3.37-2.13 5.48-.11 1.59.11 3.07.47 4.6 2.18 9.36 3.2 18.98 3.7 28.57.25 4.75.36 9.5.38 14.25.02 4.56-.27 9.95 2.24 13.99 2.05 3.29 7.8 3.59 11.19 4.33 21.28 4.57 45.6 4.34 64.6-7.55 5.39-3.37 10.51-7.66 14.93-12.22 4.9-5.07 2.22-10.72-.69-15.96-2.19-3.95-4.22-7.99-5.99-12.15-3.82-8.98-6.26-18.29-7.18-28-.17-1.69-.22-3.06-.1-4.8.1-1.59-.05-3.24-1.51-4.18-10.23-6.59-11.02-17.6-13.91-28.3-.71-2.63-.23-10.27-4.12-10.85-3.45-.51-7.22-1.07-10.7-.51-2.95.47-7.05.18-8.47 3.54-.49 1.16.04 2.29-.07 3.49-.73 8.11-15.93 9.56-21.22 5.89-3.16-2.18-3.65-7.03-8.37-6.56z" style="fill:none" transform="rotate(7.486 26.949 91.823) scale(.92019)"/><path d="M66.743 87.531c4.948 3.858 10.255 7.175 15.723 10.247" style="fill:none;stroke:#fff;stroke-width:6.7px" transform="translate(4.846 -16.219) scale(1.0743)"/><path d="M42.258 85.521c-4.32 2.259-8.568 5.418-11.985 8.895" style="fill:none;stroke:#fff;stroke-width:6.7px" transform="translate(.95 -12.608) scale(1.0743)"/><path d="M97.248 98.074c.197.506.396 1.011.598 1.515.824 2.049 1.604 4.157 1.85 6.196-9.9 4.693-20.69 7.36-31.643 8.608-2.424.276-4.877.434-7.325.575 0 0-4.598.164-7.355.133-12.273-.139-24.716-1.092-36.414-3.682-.019-2.317.352-4.689.613-6.852l.074-.619c11.844 1.439 23.978 1.26 35.664.988 15.167-.354 30.21-1.645 43.938-6.862zM30.374 21.376c.779-.235 1.569-.436 2.326-.539 1.084-.15 2.208-.094 3.325-.041l-.24.417c-3.468 3.005-1.207 10.233-.712 13.962.913 6.868.969 6.328 1.327 8.692 1.402 9.595-.474 19.433-3.253 28.705l-1.583 1.936-2.497.254-1.927-1.58c-.104-.991-.263-2.468-.257-2.487l.129-.43.25-.849c2.621-9.075 3.619-18.409 2.081-28.143-.955-6.194-1.72-12.732.68-19.058.107-.283.224-.563.351-.839zm39.977-1.882c1.717-.055 3.474.206 5.2.588 1.262 3.049 1.43 6.921 1.836 10.841.491 4.886.375 5.49.446 7.218.488 11.864.659 23.785 2.903 35.624l-.513 2.448-2.1 1.375-2.438-.515-1.371-2.08c-2.814-14.844-3.051-30.715-2.9-44.988.024-3.399.389-7.003-.931-10.063l-.132-.448z" style="fill:#fbff48;fill-rule:nonzero" transform="translate(1.228 -14.767) scale(1.0743)"/><path d="M18.598 64.871c8.318 2.613 16.85 5.014 26.116 6.395 13.148 1.96 26.291 2.296 39.857.093 2.14-.348 4.279-.687 6.416-1.022.122 2.433.356 4.851.7 7.255-1.897.397-3.808.794-5.735 1.193a152.31 152.31 0 0 1-7.034 1.298c-16.882 2.686-34.264-.002-51.552-5.35-2.825-.873-5.606-1.878-8.362-2.957a106.966 106.966 0 0 0-.342-4.037c-.104-.971-.148-1.913-.064-2.868z" style="fill:#fbff48;fill-rule:nonzero" transform="translate(1.228 -14.767) scale(1.0743)"/><path d="M67.556 121.75h-.016c-3.52-16.711-7.074-33.446-8.539-50.402-.715-8.282-.525-16.605-.487-24.907 1.262.104 3.072-1.117 3.681-1.331.335 2.997-.369 7.192-.37 10.539.039 21.692 3.588 44.457 8.07 65.931-.778.069-1.557.126-2.339.17z" style="fill:#fff;fill-rule:nonzero"/><g transform="rotate(7.137 25.246 93.294) scale(.92019)"><clipPath id="a"><path d="M33.1 6.85c-1.75.18-3.57.2-5.25.65-1.69.45-3.47 1.35-5.03 2.11-3.07 1.48-5.51 3.78-3.97 7.4.81 1.87 1.52 3.68 1.87 5.66 1.79 10.26 3.11 21.14-.67 31.12-.73 1.91-1.97 3.37-2.13 5.48-.11 1.59.11 3.07.47 4.6 2.18 9.36 3.2 18.98 3.7 28.57.25 4.75.36 9.5.38 14.25.02 4.56-.27 9.95 2.24 13.99 2.05 3.29 7.8 3.59 11.19 4.33 21.28 4.57 45.6 4.34 64.6-7.55 5.39-3.37 10.51-7.66 14.93-12.22 4.9-5.07 2.22-10.72-.69-15.96-2.19-3.95-4.22-7.99-5.99-12.15-3.82-8.98-6.26-18.29-7.18-28-.17-1.69-.22-3.06-.1-4.8.1-1.59-.05-3.24-1.51-4.18-10.23-6.59-11.02-17.6-13.91-28.3-.71-2.63-.23-10.27-4.12-10.85-3.45-.51-7.22-1.07-10.7-.51-2.95.47-7.05.18-8.47 3.54-.49 1.16.04 2.29-.07 3.49-.73 8.11-15.93 9.56-21.22 5.89-3.16-2.18-3.65-7.03-8.37-6.56z"/></clipPath><g clip-path="url(#a)"><path d="M37.59 29.93c1.42 4.08 3.12 8.03 6.1 11.18 4.17 4.42 11.56 6.5 17.28 4.53 1.86-.64 3.61-1.61 5.08-2.94 4.87-4.43 5.54-10.47 5.33-16.64-.14-4.23-.25-8.46-.62-12.67-.32-3.42-.81-9.4-4.58-10.99-1.57-.66-3.52-.32-4.22 1.46-.31.81-.24 1.69-.57 2.48-.39.92-.67 1.91-1.2 2.77-.84 1.36-2.49 2.21-3.95 2.68-1.48.46-3.21.64-4.75.54-1.26-.08-2.46.2-3.75.26-2.66.12-5.41-.48-7.45-2.29-.78-.69-1.5-1.28-2.18-2.06-.6-.69-1.36-1.44-2.36-1.32-4.79.6-2.51 7.9-1.97 10.81.24 1.34.54 2.68 1.01 3.96 1.02 2.67 1.84 5.49 2.8 8.24z" style="fill:#855c52;fill-rule:nonzero"/></g></g></svg>