<svg xmlns="http://www.w3.org/2000/svg" viewBox="0 0 128 128" style="fill-rule:evenodd;clip-rule:evenodd;stroke-linejoin:round;stroke-miterlimit:1.41421"><path d="M49.207 114.454l-11.442-9.967 18.134-26.224 15.624 11.042-22.316 25.15z" style="fill:#687483;fill-rule:nonzero"/><circle cx="51.13" cy="93.56" r="6.54" style="fill:#818c9b" transform="rotate(-53.365 51.418 124.241) scale(1.16499)"/><path d="M79.613 97.613l1.75 13.047-37.113 5.65-.956-15.285 36.319-3.412z" style="fill:#818c9b;fill-rule:nonzero"/><path d="M88.458 100.635l1.512 11.304a4.192 4.192 0 01-2.949 4.563 4.176 4.176 0 01-5.337-3.45l-1.512-11.303a4.176 4.176 0 013.586-4.7c2.272-.304 4.393 1.314 4.7 3.586z" style="fill:#4568ad;fill-rule:nonzero"/><path d="M85.971 116.704L83.35 97.108l5.6-.75 2.623 19.596-5.6.75z" style="fill:#4568ad;fill-rule:nonzero"/><path d="M80.518 104.38l-.905-6.766 4.549-.608.905 6.766-4.55.609z" style="fill:#4568ad;fill-rule:nonzero"/><path d="M69.065 34.573l.15 11.906-9.063 1.212-3.53-23.393 12.443 10.275z" style="fill:#fbc11b;fill-rule:nonzero"/><path d="M71.173 23.04l-2.376 19.723-12.874-1.457c-5.988-.675-10.193-6.22-9.226-12.162l1.176-7.211c1.084-6.664 7.678-10.94 14.202-9.204l2.586.688a8.88 8.88 0 016.512 9.622z" style="fill:#fbc11b;fill-rule:nonzero"/><path d="M69.426 37.517l-5.883-1.794.186-4.264a3.877 3.877 0 00-1.899-3.518l-1.992 4.473a4.12 4.12 0 01-2.773-2.9l-.71-2.75a3.832 3.832 0 00-2.319-2.61l-6.489-2.492s1.177-9.309 10.509-9.32c1.607 0 3.192.081 4.706.233 7.013.687 11.778 7.444 10.1 14.282a73.82 73.82 0 01-3.436 10.66z" style="fill:#f1f1f1;fill-rule:nonzero"/><path d="M52.067 27.059c-.128.873-.804 1.502-1.526 1.398-.722-.105-1.211-.886-1.083-1.76.128-.873.804-1.502 1.526-1.397.722.093 1.2.885 1.083 1.759" style="fill:#444;fill-rule:nonzero"/><path d="M71.523 89.304H56.087c-2.934 0-5.348-2.414-5.348-5.347l2.796-27.832c.56-4.52 1.969-12.07 8.132-12.07h5.335c5.313 0 7.526 6.28 7.76 11.814l2.096 28.1c.012 2.935-2.376 5.335-5.335 5.335z" style="fill:#00bfa5;fill-rule:nonzero"/><path d="M72.364 78.38l-8.521 1.387-2.805-17.234 8.52-1.387 2.806 17.234z" style="fill:#fbc11b;fill-rule:nonzero"/><circle cx="66.05" cy="64.33" r="3.75" style="fill:#fbc11b" transform="scale(1.165) rotate(-57.064 65.495 73.108)"/><g><path d="M59.884 68.707L73.2 66.296l-2.47-13.62a6.787 6.787 0 00-6.634-5.435c-3.713 0-6.768 3.055-6.768 6.767 0 .362.028.723.087 1.08l2.47 13.619z" style="fill:#04a287;fill-rule:nonzero"/></g><g><path d="M66.017 94.662l-7.913-3.452 5.91-13.551 7.913 3.452-5.91 13.55z" style="fill:#fbc11b;fill-rule:nonzero"/></g><g><path d="M57.997 101.968a5.607 5.607 0 007.398-2.878l1.13-2.575a5.607 5.607 0 00-2.878-7.397 5.607 5.607 0 00-7.397 2.877l-1.13 2.575a5.61 5.61 0 002.877 7.398z" style="fill:#fbc11b;fill-rule:nonzero"/></g></svg>