<svg xmlns="http://www.w3.org/2000/svg" style="fill-rule:evenodd;clip-rule:evenodd;stroke-linejoin:round;stroke-miterlimit:1.41421" viewBox="0 0 128 128" xml:space="preserve"><path d="M46.516 83.324c.651.632 2.079 3.672 2.109 3.652.353-.233.5-.669.791-.956.059-.057 1.413 1.222 1.981 1.418.229.079.701-.581.933-.624.559-.104 1.077.579 1.491.801.163.088 1.566-3.368 2.463-4.291" style="fill:#957946" transform="rotate(15 237.61 -35.043) scale(1.8356)"/><path d="m46.536 83.305.016.015.016.016.034.034.035.038.036.041.037.043.038.047.038.049.04.052.04.054.041.057.042.059.042.061.043.063.044.065.044.067.044.068.045.07.045.071.046.073.045.073.092.15.092.153.016.027.075.129.091.156.089.157.088.156.087.154.083.151.082.147.078.142.144.266.127.234.106.195.013.024.031.056.021.039.011-.011.024-.024.023-.026.022-.027.023-.027.021-.028.022-.029.021-.03.021-.031.021-.03.042-.064.041-.066.043-.067.043-.067.006-.01.016-.024.023-.034.023-.034.025-.034.024-.033.026-.033.027-.033.028-.033.029-.032.039-.041.015-.011.023-.013.025-.009.002-.001.019-.005.02-.002.017-.001.031.003.031.009.025.01.021.011.019.01.019.012.02.012.04.028.045.032.049.037.054.041.058.045.061.048.135.106.117.093.028.022.154.122.079.062.08.062.081.062.08.061.081.06.08.059.079.056.077.054.059.04.016.011.036.024.036.023.035.023.035.021.033.02.032.019.032.018.03.016.029.015.027.013.026.012.024.011.021.008.002-.001.006-.002.008-.004.008-.004.01-.006.01-.006.01-.006.024-.017.026-.018.027-.021.029-.024.029-.025.031-.026.013-.013.018-.015.032-.029.131-.12.066-.059.034-.029.033-.028.034-.027.034-.026.027-.02.007-.005.034-.022.02-.011.018-.01.019-.01.02-.009.021-.009.022-.008.023-.006.024-.005.036-.006.034-.004.034-.002.034-.002.034.001.034.001.033.003.033.004.032.005.032.007.032.007.031.008.031.009.031.01.03.011.03.012.029.013.029.013.028.013.028.015.028.015.028.015.027.016.027.016.026.017.027.018.051.034.051.037.05.037.048.038.048.038.047.038.046.039.175.148.041.034.041.033.039.031.038.03.035.025.015-.023.022-.036.025-.04.026-.044.027-.048.029-.051.063-.114.068-.125.073-.137.077-.146.004-.008.078-.147.174-.33.092-.174.095-.177.097-.181.02-.038.079-.144.101-.183.102-.183.103-.181.052-.089.052-.089.052-.088.052-.087.052-.086.052-.084.051-.083.052-.082.051-.079.051-.078.051-.076.03-.044.02-.029.05-.071.05-.069.049-.066.049-.063.048-.061.047-.057.047-.055.023-.026.023-.025.023-.024.023-.024.022-.022.003-.003.019-.019.04-.001v.039l-.017.02-.003.003-.02.024-.021.024-.02.025-.021.026-.02.027-.042.056-.043.06-.043.063-.043.065-.044.068-.044.071-.044.074-.018.029-.027.046-.045.078-.046.08-.045.081-.046.084-.046.085-.046.087-.046.088-.046.089-.046.09-.045.092-.046.092-.091.186-.09.187-.089.188-.069.148-.018.039-.087.185-.084.182-.082.178-.156.34-.07.151-.004.008-.071.151-.067.141-.063.131-.059.118-.027.056-.027.051-.026.049-.025.045-.023.042-.023.038-.022.036-.021.032-.021.029-.013.015-.012.013-.013.014-.015.014-.018.015-.024.014-.031.014-.021.005-.022.004-.022.001h-.004l-.027-.003-.025-.007-.019-.006-.034-.018-.023-.013-.023-.013-.023-.014-.045-.029h-.001l-.044-.031-.045-.032-.045-.033-.044-.034-.045-.035-.09-.071-.09-.071-.045-.035-.045-.035-.046-.033-.045-.033-.045-.031-.044-.03-.045-.029-.022-.013-.022-.013-.022-.012-.022-.012-.021-.011-.022-.01-.021-.01-.021-.01-.021-.008-.021-.008-.007-.003-.013-.005-.021-.007-.02-.006-.019-.005-.02-.005-.019-.004-.019-.003-.019-.003-.018-.002-.019-.001h-.036l-.018.001-.018.002-.017.002-.014.003h-.001l-.002.001-.003.001-.005.002-.006.004-.007.004-.007.004-.02.014-.005.003-.017.013-.024.019-.026.021-.028.023-.028.026-.062.055-.13.121-.034.031-.019.018-.015.013-.035.03-.035.03-.036.028-.036.028-.036.026-.036.024-.02.013-.019.011-.02.011-.02.01-.021.01-.021.009-.022.009-.023.007-.024.007-.025.005-.026.004-.028.002-.028-.001-.03-.002-.03-.006-.027-.008-.027-.01-.01-.004-.034-.014-.035-.015-.034-.017-.036-.018-.035-.019-.036-.021-.037-.021-.037-.022-.037-.024-.038-.024-.039-.025-.039-.026-.039-.027-.017-.012-.062-.044-.08-.059-.081-.061-.081-.063-.082-.064-.081-.065-.081-.065-.08-.066-.078-.065-.152-.127-.028-.023-.114-.097-.13-.11-.059-.05-.054-.045-.05-.041-.044-.035-.02-.016-.004.004-.022.027-.023.028-.022.029-.022.029-.022.03-.015.022-.007.009-.044.063-.045.064-.046.066-.047.066-.025.033-.025.033-.025.033-.027.032-.027.032-.028.032-.029.032-.031.03-.031.03-.032.03-.034.028-.035.028-.036.025-.02.014-.018.011-.017.01-.019.008-.019.005-.021.002-.02-.001h-.001l-.02-.004-.02-.007-.019-.009-.018-.013-.013-.011-.018-.023-.011-.018-.01-.018-.023-.043-.029-.058-.034-.07-.029-.058-.011-.025-.096-.201-.114-.24-.13-.273-.07-.146-.073-.15-.076-.155-.077-.157-.08-.16-.081-.16-.081-.161-.068-.131-.015-.028-.082-.157-.082-.154-.041-.076-.04-.074-.041-.074-.04-.071-.04-.071-.039-.068-.04-.067-.038-.065-.038-.062-.038-.061-.037-.058-.037-.056-.035-.053-.035-.051-.035-.047-.033-.045-.032-.042-.032-.038-.031-.035-.008-.01-.006-.006-.015-.016v-.039h.039zm7.204 4.168.003-.002-.003.002.001-.001.002-.001-.007.007.004-.005z" style="fill:#fff" transform="rotate(15 237.61 -35.043) scale(1.8356)"/><path d="M52.123 84.682c-4.077 0-9.326-2.598-12.23-4.429-10.4-6.56-14.512-19.517-8.144-29.583 4.606-7.28 9.439-7.017 13.738-10.819 3.108-2.748 4.035-11.505 5.618-11.547h1.69c2.21-.161 2.868 8.81 5.963 11.547 4.299 3.802 9.133 3.539 13.738 10.819 6.369 10.066 2.256 23.023-8.144 29.583-2.927 1.846-8.153 4.429-12.229 4.429z" style="fill:url(#a)" transform="rotate(15 241.37 -39.69) scale(1.8356)"/><path d="m51.927 84.884-.099-.002-.099-.004-.099-.004-.099-.005-.1-.007-.029-.002-.071-.005-.101-.008-.101-.008-.101-.01-.101-.011-.102-.011-.102-.012-.102-.013-.103-.014-.103-.015-.102-.015-.104-.016-.103-.017-.104-.018-.103-.019-.104-.019-.104-.02-.105-.021-.104-.021-.105-.022-.104-.023-.105-.024-.105-.024-.105-.025-.106-.025-.105-.027-.105-.026-.106-.028-.105-.028-.105-.029-.106-.029-.106-.03-.105-.03-.106-.031-.105-.032-.106-.032-.106-.032-.105-.033-.106-.034-.105-.034-.105-.035-.106-.035-.105-.036-.105-.036-.105-.036-.105-.037-.105-.038-.105-.038-.104-.038-.105-.039-.104-.039-.104-.039-.104-.04-.208-.081-.206-.083-.206-.083-.204-.085-.204-.086-.202-.088-.202-.088-.2-.089-.198-.09-.197-.091-.196-.091-.194-.093-.192-.093-.191-.093-.189-.094-.186-.094-.185-.094-.183-.094-.18-.095-.179-.095-.176-.094-.173-.095-.171-.094-.169-.094-.166-.094-.163-.093-.161-.093-.157-.092-.155-.091-.151-.091-.149-.09-.145-.089-.142-.088-.139-.087-.122-.078-.122-.078-.121-.079-.121-.08-.12-.08-.12-.081-.119-.081-.118-.082-.118-.082-.117-.083-.117-.084-.116-.084-.115-.085-.115-.085-.114-.086-.113-.086-.113-.087-.113-.087-.112-.088-.111-.088-.11-.089-.11-.09-.109-.09-.109-.09-.108-.091-.108-.092-.107-.092-.106-.092-.105-.093-.105-.094-.105-.094-.103-.094-.104-.095-.102-.095-.102-.096-.101-.097-.101-.097-.1-.097-.099-.098-.064-.063-.035-.035-.098-.099-.097-.099-.097-.099-.096-.1-.095-.101-.095-.101-.094-.101-.094-.102-.092-.102-.093-.103-.091-.103-.091-.103-.09-.104-.09-.105-.089-.104-.088-.106-.087-.105-.087-.106-.086-.106-.086-.107-.085-.107-.084-.108-.084-.108-.083-.108-.082-.109-.081-.109-.081-.109-.08-.11-.08-.11-.078-.11-.079-.111-.077-.111-.077-.112-.076-.112-.075-.112-.075-.113-.074-.112-.073-.114-.072-.113-.072-.114-.071-.114-.071-.115-.07-.115-.069-.115-.068-.115-.068-.116-.067-.116-.066-.117-.065-.116-.065-.117-.064-.118-.063-.117-.063-.118-.062-.118-.061-.118-.061-.119-.059-.119-.059-.119-.059-.12-.057-.119-.057-.12-.056-.121-.055-.12-.055-.121-.054-.121-.053-.121-.052-.121-.052-.122-.051-.122-.05-.122-.05-.122-.048-.123-.048-.123-.047-.123-.047-.123-.046-.123-.044-.124-.045-.124-.043-.124-.043-.124-.042-.124-.041-.125-.04-.125-.04-.125-.038-.125-.038-.125-.01-.034-.028-.092-.036-.125-.036-.126-.035-.126-.034-.126-.033-.126-.033-.127-.032-.126-.031-.127-.03-.127-.029-.127-.029-.127-.028-.127-.027-.128-.026-.127-.026-.128-.025-.127-.024-.128-.023-.128-.022-.128-.021-.128-.021-.129-.02-.128-.019-.128-.018-.129-.018-.129-.017-.128-.015-.129-.016-.129-.014-.129-.013-.129-.013-.129-.012-.129-.011-.129-.01-.129-.009-.13-.008-.129-.008-.129-.007-.13-.006-.129-.005-.13-.004-.129-.004-.13-.003-.129-.001-.13-.001-.129-.001-.13.001-.13.002-.129.002-.13.003-.13.004-.129.005-.13.006-.13.007-.129.007-.13.009-.129.009-.13.01-.13.011-.129.012-.13.012-.129.014-.129.014-.13.016-.129.016-.129.01-.076.007-.054.018-.129.018-.129.02-.129.021-.129.021-.129.023-.128.023-.129.024-.129.025-.128.026-.129.027-.128.027-.128.029-.129.029-.128.031-.128.031-.127.032-.128.033-.128.034-.127.035-.128.036-.127.036-.127.038-.127.038-.127.04-.127.04-.126.041-.127.042-.126.043-.126.044-.126.045-.126.046-.126.046-.125.048-.125.048-.126.05-.124.05-.125.052-.125.052-.124.053-.124.054-.125.055-.123.056-.124.057-.123.058-.124.058-.123.06-.122.061-.123.061-.122.063-.122.063-.122.065-.122.065-.121.066-.122.068-.121.068-.12.069-.121.07-.12.071-.12.072-.119.073-.12.074-.119.075-.119.109-.17.109-.167.109-.165.11-.162.109-.16.047-.067.062-.089.11-.154.109-.152.11-.149.11-.147.11-.144.109-.142.11-.14.11-.137.11-.135.111-.132.11-.131.11-.128.11-.126.11-.124.111-.121.11-.12.111-.118.11-.115.11-.114.111-.112.111-.109.11-.108.111-.106.11-.105.111-.102.111-.101.11-.099.111-.097.111-.096.11-.094.111-.092.111-.091.11-.09.111-.088.111-.086.11-.085.111-.084.11-.082.111-.081.11-.08.111-.078.11-.078.111-.076.11-.075.11-.073.111-.073.11-.072.11-.07.11-.07.11-.069.11-.068.11-.066.11-.066.11-.066.11-.064.109-.064.11-.063.109-.062.11-.061.109-.061.109-.061.11-.06.218-.118.217-.116.217-.115.217-.113.217-.113.215-.112.431-.222.113-.059.101-.052.214-.111.213-.112.213-.113.212-.114.106-.058.105-.057.106-.059.105-.058.105-.059.105-.06.105-.06.105-.061.105-.062.104-.062.104-.062.105-.064.103-.064.104-.065.104-.066.103-.066.103-.068.104-.068.102-.069.103-.071.103-.071.102-.072.102-.074.102-.074.102-.076.102-.077.101-.078.102-.079.101-.08.101-.082.1-.084.101-.084.1-.086.1-.087.036-.032.035-.032.035-.033.035-.033.035-.033.034-.035.034-.034.035-.036.034-.035.033-.037.034-.036.034-.038.033-.037.033-.039.033-.038.033-.04.033-.039.032-.041.033-.04.032-.041.032-.042.032-.042.063-.085.063-.087.062-.089.061-.091.061-.092.06-.093.06-.096.059-.096.058-.098.058-.1.057-.101.056-.102.056-.103.056-.105.055-.106.054-.106.054-.109.053-.109.052-.11.052-.111.052-.112.051-.113.051-.113.05-.115.049-.115.049-.116.049-.117.048-.117.048-.118.047-.118.047-.119.046-.119.046-.12.045-.12.045-.121.045-.12.044-.121.043-.121.044-.122.052-.148.033-.095.084-.243.083-.243.081-.242.08-.241.079-.24.077-.239.152-.471.148-.461.073-.225.072-.222.071-.218.071-.214.07-.209.069-.205.069-.199.069-.193.034-.095.034-.093.035-.092.034-.09.034-.088.034-.086.034-.085.034-.083.011-.027.023-.055.034-.079.034-.078.034-.076.034-.074.034-.071.034-.07.035-.068.034-.066.035-.063.035-.062.034-.059.036-.057.035-.055.036-.052.035-.05.036-.047.019-.024.018-.022.019-.022.018-.021.019-.02.018-.02.019-.02.019-.018.02-.018.019-.017.019-.017.02-.016.02-.015.02-.015.02-.014.02-.013.021-.012.021-.012.021-.011.021-.01.021-.009.022-.009.022-.007.022-.007.022-.006.023-.005.022-.004.023-.003.023-.002.023-.001 1.689.001.025-.001.029-.001.028.001.029.001.029.002.028.003.028.004.028.005.028.005.028.007.027.007.028.008.027.01.027.01.026.01.027.012.026.012.026.013.026.014.026.015.025.015.025.017.025.016.025.018.025.018.024.019.024.02.024.02.024.021.024.022.023.022.024.023.023.024.023.024.023.025.023.025.022.027.023.026.022.028.022.027.023.029.021.029.022.03.022.03.043.062.043.064.042.067.042.069.042.07.041.073.041.075.041.077.04.079.04.081.04.083.039.084.04.087.039.088.039.09.039.091.038.093.039.095.038.096.039.098.038.099.038.101.038.102.038.103.038.104.037.106.038.107.038.109.075.219.076.224.076.228.076.231.076.234.121.374.033.103.157.484.079.245.081.245.081.246.083.247.083.246.085.246.043.123.044.122.043.122.044.122.045.122.045.121.045.12.045.12.047.12.046.119.047.118.047.118.048.117.049.116.048.115.05.115.05.114.05.112.051.112.051.11.052.11.053.108.053.108.054.106.054.104.055.104.056.102.056.101.057.099.057.098.058.096.059.095.06.093.06.091.06.09.062.088.031.043.031.043.031.042.032.042.032.042.032.041.032.04.032.04.032.04.033.039.033.038.033.038.033.038.033.037.034.036.034.036.034.036.034.034.034.035.034.033.035.034.035.032.035.032.035.032.101.088.1.086.101.085.1.083.101.082.101.081.102.079.101.079.102.077.102.075.102.075.102.074.103.072.102.072.103.07.103.07.103.068.103.068.104.067.104.066.103.065.104.064.104.064.105.063.104.062.105.061.105.061.105.061.105.06.105.059.105.059.106.058.106.058.105.058.212.114.213.113.213.112.214.112.214.111.43.223.216.112.216.113.217.114.217.115.217.116.218.118.109.06.109.061.109.061.109.062.11.062.109.063.109.064.11.064.109.065.11.066.11.067.11.068.109.069.11.07.11.07.11.072.11.073.111.073.11.075.11.076.11.077.11.079.111.08.11.081.11.082.11.083.111.085.11.087.111.088.11.089.11.091.111.092.11.094.11.096.111.097.11.099.11.101.111.102.11.104.11.106.111.108.11.11.11.111.11.114.11.115.111.118.11.12.11.121.11.124.11.126.109.128.11.13.11.132.11.135.11.137.109.14.11.141.109.144.11.147.109.149.109.152.109.154.109.156.109.159.109.162.109.165.109.167.109.17.074.119.074.119.073.119.072.119.071.12.07.12.069.12.068.121.067.121.066.121.065.121.064.121.064.122.062.122.061.122.061.122.059.123.059.123.058.123.056.123.056.123.055.124.054.124.053.124.052.124.051.124.05.125.05.125.048.125.047.125.047.125.046.125.044.126.044.126.043.126.042.126.041.126.04.126.039.127.039.126.037.127.036.127.036.127.035.127.034.127.032.128.033.127.031.128.03.128.029.127.029.128.027.128.027.128.026.129.025.128.024.128.023.129.022.128.021.129.021.129.019.128.019.129.018.129.017.129.016.129.015.129.015.129.013.129.013.129.012.129.011.13.01.129.009.129.009.13.007.129.007.129.006.13.004.129.005.129.003.13.002.129.002.13.001.129v.129l-.001.13-.002.129-.001.04-.002.089-.003.13-.004.129-.005.129-.006.129-.007.129-.008.13-.008.129-.009.129-.01.129-.011.129-.012.128-.012.129-.014.129-.014.129-.015.128-.015.129-.017.128-.017.129-.018.128-.019.128-.02.128-.021.128-.021.128-.022.128-.023.128-.024.128-.025.127-.025.127-.026.128-.027.127-.028.127-.028.127-.03.127-.03.126-.031.127-.031.126-.033.126-.033.126-.034.126-.035.126-.035.126-.037.125-.037.125-.038.126-.038.124-.04.125-.04.125-.041.124-.042.124-.042.125-.043.123-.044.124-.045.123-.046.124-.046.123-.047.123-.047.122-.049.123-.049.122-.05.122-.051.122-.051.121-.053.121-.053.122-.053.12-.055.121-.055.12-.056.12-.056.12-.058.12-.058.119-.009.019-.05.1-.059.119-.06.119-.061.118-.062.118-.062.118-.064.117-.063.117-.065.117-.065.117-.066.116-.067.116-.067.116-.068.115-.069.115-.07.115-.07.114-.071.115-.072.113-.072.114-.073.113-.074.113-.074.112-.075.113-.076.111-.077.112-.077.111-.078.111-.078.11-.079.11-.08.11-.081.109-.081.109-.082.109-.083.108-.083.108-.084.108-.085.107-.085.106-.086.107-.087.106-.087.105-.088.105-.089.105-.089.104-.09.104-.091.104-.091.103-.092.102-.093.103-.093.101-.094.102-.095.101-.095.1-.096.1-.096.1-.097.099-.098.099-.099.098-.099.098-.099.097-.101.097-.101.097-.101.095-.103.096-.103.095-.103.094-.104.094-.105.094-.105.093-.106.093-.107.092-.107.091-.108.091-.109.091-.109.09-.11.089-.11.089-.111.089-.111.088-.113.087-.112.087-.114.086-.114.086-.114.085-.115.085-.116.084-.057.041-.06.043-.117.083-.117.083-.118.081-.119.082-.119.081-.12.08-.121.08-.121.079-.122.078-.122.078-.139.088-.143.089-.146.09-.149.09-.153.092-.155.092-.158.093-.161.093-.163.094-.166.094-.169.094-.172.095-.173.095-.176.095-.179.095-.18.095-.183.095-.185.094-.187.094-.188.094-.191.094-.192.093-.194.092-.195.092-.197.091-.198.091-.2.089-.201.088-.202.088-.203.086-.204.085-.205.084-.206.082-.104.041-.103.04-.104.04-.104.039-.104.04-.104.038-.105.039-.104.038-.105.037-.104.037-.105.037-.105.036-.105.035-.105.036-.105.034-.106.035-.105.033-.105.033-.105.033-.106.032-.105.032-.106.031-.105.03-.105.03-.106.029-.105.029-.105.028-.105.027-.105.027-.105.026-.105.026-.105.025-.105.024-.104.024-.105.023-.104.022-.105.021-.104.021-.104.02-.103.019-.104.019-.103.018-.104.017-.103.016-.102.016-.103.014-.102.014-.102.013-.102.013-.102.011-.101.011-.101.01-.101.008-.1.008-.101.008-.099.006-.1.005-.099.005-.099.003-.098.003-.098.001-.098.001-.098-.001-.098-.001zm-.918-56.46-.014.005-.015.006-.015.006-.014.007-.015.008-.015.009-.015.009-.016.01-.015.01-.015.012-.016.012-.015.012-.016.014-.016.014-.016.015-.016.015-.016.017-.016.017-.016.018-.016.018-.016.019-.016.02-.016.02-.033.044-.033.045-.032.049-.033.051-.033.053-.033.056-.033.058-.033.061-.033.063-.032.065-.033.068-.033.07-.034.071-.033.074-.033.076-.033.078-.022.054-.011.026-.033.082-.033.084-.034.085-.033.087-.033.089-.034.091-.033.092-.034.094-.068.192-.068.198-.068.203-.069.209-.07.213-.07.218-.072.222-.072.225-.146.462-.151.471-.077.24-.078.241-.079.242-.081.243-.082.244-.084.245-.033.095-.052.149-.043.122-.044.122-.044.122-.044.122-.045.121-.045.121-.046.121-.046.121-.047.12-.047.119-.048.119-.048.119-.048.118-.049.117-.05.117-.05.116-.051.115-.051.115-.052.114-.052.112-.053.112-.054.111-.054.11-.055.109-.055.108-.056.107-.057.105-.057.105-.058.103-.059.102-.059.1-.06.099-.061.098-.061.096-.062.095-.063.094-.063.091-.065.09-.065.089-.033.044-.033.043-.033.042-.033.043-.034.042-.034.041-.034.041-.034.04-.034.04-.035.04-.035.039-.035.039-.035.038-.036.037-.035.038-.036.036-.036.036-.037.036-.036.035-.037.034-.037.034-.038.034-.101.089-.102.088-.102.086-.102.085-.102.084-.103.082-.102.081-.103.08-.103.079-.103.077-.104.076-.103.075-.104.074-.104.073-.104.071-.104.071-.104.07-.105.069-.104.068-.105.067-.105.066-.105.065-.105.065-.105.064-.106.063-.105.062-.106.062-.106.061-.105.061-.106.06-.106.06-.107.059-.106.059-.106.058-.213.115-.214.115-.213.113-.214.112-.101.053-.113.06-.43.224-.215.112-.215.113-.216.114-.215.115-.216.117-.216.118-.108.06-.108.06-.109.061-.108.062-.108.062-.108.062-.108.064-.109.064-.108.065-.108.066-.109.066-.108.067-.108.069-.109.069-.108.07-.109.071-.108.072-.108.073-.109.075-.108.075-.109.077-.108.077-.109.079-.108.08-.109.082-.108.083-.108.084-.109.085-.108.087-.109.088-.108.09-.109.092-.108.093-.108.094-.109.096-.108.098-.108.099-.109.102-.108.103-.108.104-.109.107-.108.108-.108.111-.108.112-.108.114-.109.116-.108.118-.108.12-.108.123-.108.124-.108.127-.108.129-.107.131-.108.133-.108.135-.108.138-.107.141-.108.142-.108.145-.107.148-.108.15-.107.152-.061.089-.046.066-.108.158-.107.16-.107.163-.107.166-.107.169-.073.117-.073.117-.071.118-.071.118-.069.119-.069.118-.068.119-.066.119-.066.119-.065.12-.064.119-.063.12-.062.12-.061.121-.06.12-.059.121-.059.121-.057.121-.056.121-.056.122-.055.122-.053.122-.053.122-.052.122-.051.123-.05.122-.049.123-.048.123-.047.123-.047.124-.045.123-.045.124-.043.124-.043.124-.042.124-.041.124-.04.124-.039.125-.038.124-.037.125-.037.125-.035.125-.035.125-.034.126-.033.125-.032.125-.031.126-.03.126-.03.126-.028.125-.028.126-.026.127-.026.126-.025.126-.024.126-.024.127-.022.126-.022.127-.02.127-.02.126-.019.127-.018.127-.017.127-.007.053-.01.074-.015.127-.015.127-.014.127-.013.127-.012.127-.011.127-.011.127-.009.128-.009.127-.008.127-.007.128-.007.127-.005.127-.005.128-.003.127-.003.127-.002.128-.002.127v.255l.002.127.002.127.002.128.004.127.005.127.005.127.006.127.007.127.008.128.008.127.01.127.01.127.011.126.012.127.012.127.014.127.014.126.015.127.016.126.017.127.017.126.018.127.019.126.02.126.021.126.021.126.022.126.023.125.024.126.025.125.025.126.026.125.027.125.027.125.029.125.029.125.03.124.031.125.031.124.033.124.033.124.034.124.034.124.035.124.037.123.036.124.038.123.038.123.039.122.04.123.041.122.041.123.042.122.043.122.044.121.044.122.045.121.046.121.047.121.047.121.048.12.049.121.05.12.05.12.051.119.052.119.052.12.053.119.054.118.055.119.055.118.056.118.057.117.057.118.059.117.059.117.059.117.061.116.061.116.062.116.062.116.063.115.064.115.065.115.065.114.066.114.067.114.067.113.069.114.068.113.07.112.07.113.071.112.072.111.072.111.073.112.073.11.075.111.075.11.075.109.077.11.077.109.078.108.078.108.079.108.08.108.08.107.081.107.082.106.082.106.083.106.084.105.084.105.086.105.085.104.087.104.087.103.087.103.089.103.089.102.089.102.09.101.091.101.092.101.092.1.093.099.093.1.095.098.094.099.096.098.096.097.096.097.098.097.098.096.098.096.099.095.1.095.1.094.101.094.102.093.102.093.103.092.104.092.104.092.105.091.105.09.106.09.107.09.107.088.107.089.109.088.109.087.109.087.111.087.11.086.112.085.112.085.112.084.113.084.114.083.115.083.114.082.116.081.116.081.117.081.117.08.118.079.118.079.119.078.12.078.12.077.121.076.137.086.14.087.144.088.147.088.149.09.153.09.156.091.159.092.162.092.164.092.167.093.17.093.171.093.175.093.176.094.179.093.181.094.183.093.185.092.187.093.189.092.19.092.192.091.194.09.195.089.196.089.198.088.199.087.2.086.202.085.202.083.203.083.204.081.205.079.102.04.103.038.103.039.103.038.103.038.103.037.104.036.103.037.104.036.103.035.104.035.104.035.103.034.104.033.104.033.104.032.104.032.104.032.103.031.104.03.104.03.103.029.104.028.104.028.103.028.103.026.104.026.103.026.103.025.102.024.103.024.103.022.102.023.102.021.102.021.102.02.102.019.101.019.101.018.101.017.101.017.1.015.1.015.1.014.099.014.1.012.098.012.099.011.098.01.098.009.097.008.098.008.096.007.097.005.096.005.095.004.095.003.095.003.094.001h.188l.094-.001.094-.002.095-.003.096-.004.096-.005.096-.005.097-.007.097-.007.097-.008.098-.01.098-.009.099-.011.099-.012.099-.012.099-.013.1-.014.1-.015.1-.015.101-.016.1-.017.101-.018.102-.018.101-.02.102-.019.102-.021.102-.021.102-.022.103-.023.102-.023.103-.024.103-.025.103-.025.103-.026.103-.026.103-.028.104-.027.103-.029.104-.029.103-.029.104-.03.104-.031.103-.031.104-.031.104-.033.104-.032.103-.034.104-.033.104-.035.103-.034.104-.036.103-.035.103-.036.104-.037.103-.037.103-.037.103-.038.103-.038.102-.039.103-.039.102-.039.102-.04.204-.081.203-.081.203-.084.201-.084.2-.086.199-.086.198-.088.196-.088.195-.09.194-.09.192-.09.191-.092.189-.092.187-.092.185-.093.184-.093.181-.093.179-.093.177-.093.175-.094.172-.093.171-.093.167-.093.165-.093.162-.092.16-.092.157-.091.154-.09.151-.09.148-.089.144-.088.142-.088.138-.086.121-.076.12-.077.12-.078.119-.078.119-.079.118-.079.117-.08.117-.08.117-.081.115-.082.059-.041.056-.041.115-.082.114-.083.113-.084.113-.084.112-.085.112-.085.111-.086.11-.086.11-.087.109-.088.109-.088.108-.088.107-.089.107-.089.106-.09.105-.091.105-.09.105-.092.103-.092.103-.092.103-.093.102-.093.101-.094.101-.094.1-.095.099-.095.099-.096.098-.096.097-.097.097-.097.097-.097.095-.098.095-.098.094-.099.094-.099.093-.1.093-.1.091-.101.091-.101.091-.101.09-.102.089-.102.088-.102.088-.103.088-.104.086-.104.086-.104.085-.104.085-.105.084-.106.083-.105.083-.107.082-.106.081-.107.081-.107.08-.108.079-.108.078-.108.078-.109.078-.109.076-.109.076-.11.075-.11.075-.11.074-.111.073-.111.072-.111.072-.112.071-.112.071-.113.069-.112.069-.113.069-.114.067-.113.067-.114.067-.114.065-.115.065-.115.064-.115.064-.115.062-.116.062-.116.062-.116.06-.116.06-.117.059-.117.049-.099.01-.018.057-.118.057-.118.057-.118.055-.118.055-.119.054-.119.054-.119.052-.119.052-.119.051-.12.051-.12.05-.12.049-.121.048-.12.047-.121.047-.121.046-.121.045-.122.045-.122.044-.121.043-.123.042-.122.042-.122.04-.123.04-.123.04-.123.038-.123.038-.123.037-.123.036-.124.036-.124.034-.124.034-.124.034-.124.032-.125.032-.124.031-.125.03-.125.029-.125.029-.125.027-.125.027-.125.027-.126.025-.125.025-.126.024-.126.023-.126.022-.126.022-.126.02-.126.02-.126.019-.127.019-.126.017-.127.017-.127.016-.126.015-.127.014-.127.014-.127.013-.127.012-.127.011-.127.01-.127.01-.128.008-.127.008-.127.007-.128.006-.127.006-.127.004-.128.004-.127.002-.088.001-.04.002-.128.002-.127v-.255l-.002-.128-.002-.128-.003-.127-.003-.128-.005-.127-.005-.128-.007-.128-.007-.127-.008-.128-.008-.127-.01-.128-.01-.127-.012-.128-.012-.127-.013-.128-.014-.127-.014-.127-.016-.128-.016-.127-.018-.127-.018-.127-.019-.127-.02-.127-.021-.127-.021-.127-.023-.127-.023-.126-.024-.127-.025-.126-.026-.127-.027-.126-.028-.126-.029-.127-.029-.126-.03-.126-.032-.125-.032-.126-.033-.126-.034-.125-.034-.126-.036-.125-.037-.125-.037-.125-.039-.125-.039-.125-.04-.124-.041-.125-.042-.124-.043-.124-.044-.125-.044-.123-.046-.124-.047-.124-.047-.123-.048-.123-.049-.123-.051-.123-.051-.123-.052-.123-.053-.122-.053-.122-.055-.122-.056-.122-.001-.003-.056-.118-.057-.122-.059-.121-.059-.121-.06-.121-.062-.12-.062-.12-.063-.121-.064-.119-.065-.12-.066-.12-.067-.119-.068-.119-.069-.118-.069-.119-.071-.118-.072-.118-.072-.118-.074-.117-.107-.169-.108-.166-.107-.163-.108-.16-.107-.158-.108-.156-.107-.152-.108-.15-.108-.148-.108-.145-.108-.143-.108-.14-.108-.138-.108-.136-.108-.134-.108-.131-.108-.129-.109-.126-.108-.125-.108-.122-.109-.121-.108-.118-.109-.116-.108-.115-.108-.112-.109-.11-.109-.109-.108-.106-.109-.105-.108-.103-.109-.101-.109-.1-.108-.098-.109-.096-.109-.095-.108-.093-.109-.091-.109-.09-.108-.088-.109-.087-.109-.086-.109-.084-.108-.083-.109-.081-.109-.081-.108-.079-.109-.077-.109-.077-.108-.075-.109-.075-.109-.073-.108-.072-.109-.071-.109-.07-.108-.069-.007-.005-.102-.063-.108-.068-.109-.066-.109-.066-.108-.065-.109-.064-.108-.063-.108-.063-.109-.062-.108-.061-.108-.061-.109-.06-.108-.06-.216-.118-.216-.117-.216-.114-.216-.114-.216-.113-.215-.112-.429-.224-.215-.112-.214-.112-.214-.113-.213-.114-.213-.115-.106-.058-.107-.059-.106-.059-.106-.059-.106-.06-.105-.061-.106-.061-.106-.061-.105-.063-.105-.063-.106-.063-.105-.065-.105-.065-.105-.066-.104-.067-.105-.068-.104-.068-.104-.07-.105-.07-.103-.072-.104-.072-.104-.074-.103-.075-.104-.076-.103-.077-.103-.078-.103-.08-.102-.08-.103-.082-.102-.084-.102-.085-.102-.086-.102-.087-.101-.09-.037-.033-.037-.033-.037-.035-.036-.035-.036-.035-.036-.036-.035-.037-.036-.037-.035-.037-.035-.038-.034-.039-.035-.039-.034-.039-.034-.04-.034-.041-.033-.041-.034-.041-.033-.042-.033-.043-.032-.043-.033-.043-.032-.044-.032-.044-.032-.045-.063-.09-.062-.092-.062-.094-.06-.096-.06-.097-.06-.098-.058-.1-.058-.101-.057-.103-.056-.104-.056-.105-.03-.059-.025-.048-.055-.108-.054-.109-.053-.11-.052-.111-.052-.112-.052-.113-.051-.114-.05-.115-.05-.116-.049-.116-.049-.118-.048-.118-.048-.118-.047-.12-.047-.12-.046-.12-.046-.121-.045-.122-.045-.121-.045-.123-.044-.122-.044-.123-.043-.123-.044-.124-.085-.247-.083-.247-.083-.247-.081-.247-.081-.246-.079-.245-.157-.485-.033-.102-.121-.374-.076-.233-.076-.231-.075-.227-.075-.223-.076-.219-.037-.107-.038-.107-.037-.105-.038-.103-.037-.103-.038-.101-.038-.1-.037-.098-.038-.096-.038-.095-.038-.094-.038-.091-.038-.09-.039-.089-.038-.086-.039-.084-.038-.083-.039-.081-.039-.078-.04-.077-.039-.075-.039-.072-.04-.07-.04-.068-.04-.066-.04-.063-.041-.061-.041-.059-.02-.028-.02-.028-.021-.027-.02-.026-.021-.026-.021-.025-.02-.025-.021-.024-.006-.007-.015-.016-.021-.022-.02-.022-.021-.021-.021-.021-.021-.02-.021-.019-.021-.018-.021-.018-.021-.017-.021-.016-.021-.016-.021-.015-.021-.014-.022-.013-.021-.013-.021-.012-.021-.012-.021-.01-.021-.01-.022-.009-.021-.009-.021-.008-.022-.007-.021-.006-.022-.006-.021-.005-.022-.005-.021-.003-.022-.003-.022-.003-.022-.001-.022-.001h-.023l-.022.001-.027.001-1.69.002h-.014l-.014.002-.014.001-.014.003-.014.003-.015.004-.014.004z" style="fill:#fff" transform="rotate(15 241.37 -39.69) scale(1.8356)"/><path d="m40.852 45.116-.035.064-.082.024-.034.01-.114.037-.114.037-.113.039-.112.041-.111.041-.111.043-.109.045-.109.046-.109.047-.107.048-.106.05-.106.051-.105.052-.104.054-.104.055-.102.056-.102.057-.101.059-.1.059-.1.061-.098.062-.098.063-.097.065-.096.065-.096.067-.095.067-.094.069-.093.07-.092.071-.086.067-.006.005-.09.073-.09.073-.09.075-.088.076-.088.077-.087.078-.086.079-.086.08-.084.08-.084.082-.083.083-.082.083-.082.084-.08.086-.08.086-.079.087-.079.087-.077.089-.077.089-.076.09-.075.091-.075.092-.073.093-.073.093-.072.094-.072.094-.07.096-.07.096-.069.097-.068.097-.067.098-.067.099-.066.099-.065.1-.064.101-.064.101-.062.101-.062.103-.061.102-.06.104-.055.095-.005.009-.059.104-.058.105-.057.105-.057.106-.056.106-.055.106-.054.107-.053.108-.053.108-.052.108-.051.109-.05.109-.05.109-.048.11-.048.11-.047.11-.047.111-.045.111-.045.111-.044.111-.043.112-.043.112-.009.025-.032.087-.041.112-.041.113-.039.112-.039.113-.038.113-.037.113-.036.114-.035.113-.035.114-.034.113-.033.114-.032.114-.032.113-.031.114-.03.114-.029.114-.028.114-.028.113-.026.114-.026.114-.026.114-.024.113-.01.047-.014.067-.023.113-.022.113-.021.114-.021.113-.02.112-.019.113-.018.113-.018.112-.016.112-.016.112-.067.485-.033.244-.033.245-.032.246-.032.247-.005.043-.026.205-.031.249-.029.249-.028.25-.027.251-.013.128-.013.122-.012.126-.012.125-.011.126-.011.126-.011.125-.01.126-.01.126-.009.126-.008.125-.003.048-.005.078-.008.126-.007.125-.006.126-.006.125-.005.126-.005.125-.004.126-.003.125-.003.125-.001.125-.001.039-.001.085v.249l.001.125.002.124.003.124.003.123.005.124.005.123.006.123.007.123.008.122.006.079.003.043.01.122.01.122.012.121.013.121.013.121.015.121.016.12.017.125.019.125.02.125.021.125.021.125.023.124.024.124.025.124.026.124.027.123.028.123.029.123.03.123.031.122.032.122.032.123.034.121.034.122.035.121.023.078.013.044.037.121.037.121.038.12.039.121.04.12.04.12.041.12.042.119.043.12.043.119.044.119.045.119.045.119.046.118.046.118.047.119.048.117.048.118.049.118.049.117.049.117.051.117.05.117.051.117.052.116.052.117.052.116.053.116.053.116.054.115.108.231.109.23.11.23.112.229.112.228.113.228.114.227.13.257.131.26.067.13.067.131.068.131.068.131.069.131.07.131.043.079.027.051.072.131.072.13.073.129.074.13.074.128.076.128.077.127.078.126.079.125.08.124.041.062.041.061.041.061.041.061.042.06.042.06.043.06.043.059.043.059.043.059.044.058.044.058.045.057.044.057.046.057.045.056.046.055.047.055.046.055.047.054.048.054.048.053.054.059.054.058.055.058.055.057.056.057.056.057.057.056.058.056.058.056.058.055.059.056.059.054.06.055.06.054.061.054.061.053.061.053.062.053.062.052.063.053.063.052.063.051.063.052.064.051.065.05.064.051.13.1.131.099.132.098.133.097.133.096.134.095.135.094.136.093.135.093.137.091.136.091.137.089.136.089.137.089.137.087.136.087.136.086.187.117.085.053.017.071-.071.017-.086-.052-.188-.114-.138-.084-.138-.085-.139-.085-.138-.086-.139-.087-.139-.088-.138-.088-.139-.09-.138-.09-.137-.091-.137-.093-.137-.093-.136-.094-.01-.007-.125-.089-.135-.097-.133-.097-.133-.099-.066-.05-.066-.05-.065-.051-.065-.051-.065-.051-.064-.051-.064-.052-.064-.052-.063-.053-.063-.053-.063-.053-.062-.053-.062-.054-.061-.055-.061-.054-.061-.055-.06-.055-.06-.056-.059-.056-.059-.057-.058-.056-.058-.058-.057-.057-.057-.058-.056-.059-.056-.058-.05-.054-.049-.054-.049-.055-.049-.055-.048-.056-.048-.056-.048-.056-.047-.057-.046-.057-.047-.058-.046-.059-.045-.058-.046-.059-.044-.06-.045-.059-.044-.06-.044-.061-.043-.061-.043-.061-.043-.061-.043-.062-.042-.062-.083-.124-.083-.126-.081-.127-.08-.127-.078-.129-.078-.128-.077-.13-.076-.13-.075-.13-.074-.13-.028-.051-.045-.08-.072-.131-.071-.131-.071-.131-.07-.13-.069-.131-.069-.13-.135-.258-.133-.256-.118-.227-.116-.227-.116-.227-.116-.229-.114-.229-.113-.23-.112-.231-.055-.115-.049-.104-.006-.012-.055-.117-.054-.116-.054-.117-.053-.116-.053-.118-.053-.117-.052-.117-.051-.118-.051-.118-.051-.118-.05-.119-.049-.118-.049-.119-.049-.119-.048-.12-.047-.119-.046-.12-.046-.12-.046-.12-.044-.121-.044-.121-.043-.121-.043-.121-.042-.122-.041-.122-.04-.122-.039-.122-.039-.123-.014-.044-.024-.079-.037-.123-.036-.124-.035-.124-.034-.124-.034-.124-.032-.125-.032-.125-.03-.125-.03-.125-.029-.126-.027-.126-.027-.127-.026-.126-.024-.127-.024-.127-.023-.128-.021-.128-.02-.128-.019-.128-.018-.123-.016-.124-.015-.124-.014-.123-.013-.125-.012-.124-.011-.125-.004-.045-.006-.08-.009-.125-.008-.126-.007-.125-.006-.126-.005-.126-.004-.126-.004-.127-.002-.126-.002-.127-.001-.126v-.254l.002-.127.002-.127.003-.128.004-.127.004-.127.005-.127.006-.128.006-.127.007-.128.007-.127.005-.079.004-.048.008-.128.01-.127.01-.127.01-.127.011-.127.011-.127.012-.127.012-.127.013-.127.013-.123.014-.13.028-.252.029-.252.031-.251.032-.25.027-.206.006-.043.033-.248.035-.247.035-.245.035-.245.071-.485.017-.114.018-.114.019-.115.019-.114.021-.115.021-.115.022-.115.023-.115.023-.115.025-.116.015-.068.01-.047.026-.116.027-.115.028-.116.029-.115.029-.116.031-.116.031-.115.031-.116.033-.115.034-.116.034-.115.035-.115.036-.115.037-.116.037-.115.038-.114.039-.115.04-.115.041-.114.041-.114.043-.114.043-.114.034-.088.01-.025.045-.114.045-.113.047-.112.047-.113.048-.112.049-.112.049-.111.051-.111.051-.111.052-.111.053-.11.053-.11.055-.109.055-.109.056-.108.057-.108.057-.108.059-.107.059-.107.06-.106.061-.106.061-.105.005-.008.058-.096.063-.104.064-.104.065-.103.065-.102.067-.102.067-.101.068-.1.069-.1.069-.099.071-.099.071-.098.072-.097.073-.096.073-.096.074-.095.075-.094.076-.094.077-.092.077-.092.079-.092.079-.09.079-.089.081-.089.081-.088.082-.087.083-.086.084-.085.084-.084.086-.084.086-.082.086-.082.088-.08.088-.08.089-.079.09-.077.091-.077.091-.075.093-.075.093-.073.093-.073.007-.004.088-.067.095-.07.097-.069.097-.068.097-.067.099-.065.099-.065.1-.063.101-.062.101-.061.102-.06.104-.058.103-.058.105-.056.105-.054.106-.054.107-.052.108-.051.108-.049.109-.049.11-.046.111-.046.111-.044.112-.043.113-.041.113-.04.115-.038.115-.038.116-.035.116-.034.034-.01.083-.023.064.035z" style="fill:#9b5723" transform="rotate(15 241.37 -39.69) scale(1.8356)"/><path d="m40.705 45.104-.034.01-.116.034-.116.035-.115.038-.115.038-.113.04-.113.041-.112.043-.111.044-.111.046-.11.046-.109.049-.108.049-.108.051-.107.052-.106.054-.105.054-.105.056-.103.058-.104.058-.102.06-.101.061-.101.062-.1.063-.099.065-.099.065-.097.067-.097.068-.097.069-.095.07-.088.067-.007.004-.093.073-.093.073-.093.075-.091.075-.091.077-.09.077-.089.079-.088.08-.088.08-.086.082-.086.082-.086.084-.084.084-.084.085-.083.086-.082.087-.081.088-.081.089-.079.089-.079.09-.079.092-.077.092-.077.092-.076.094-.075.094-.074.095-.073.096-.073.096-.072.097-.071.098-.071.099-.069.099-.069.1-.068.1-.067.101-.067.102-.065.102-.065.103-.064.104-.063.104-.058.096-.005.008-.061.105-.061.106-.06.106-.059.107-.059.107-.057.108-.057.108-.056.108-.055.109-.055.109-.053.11-.053.11-.052.111-.051.111-.051.111-.049.111-.049.112-.048.112-.047.113-.047.112-.045.113-.045.114-.01.025-.034.088-.043.114-.043.114-.041.114-.041.114-.04.115-.039.115-.038.114-.037.115-.037.116-.036.115-.035.115-.034.115-.034.116-.033.115-.031.116-.031.115-.031.116-.029.116-.029.115-.028.116-.027.115-.026.116-.01.047-.015.068-.025.116-.023.115-.023.115-.022.115-.021.115-.021.115-.019.114-.019.115-.018.114-.017.114-.071.485-.035.245-.035.245-.035.247-.033.248-.006.043-.027.206-.032.25-.031.251-.029.252-.028.252-.014.13-.013.123-.013.127-.012.127-.012.127-.011.127-.011.127-.01.127-.01.127-.01.127-.008.128-.004.048-.005.079-.007.127-.007.128-.006.127-.006.128-.005.127-.004.127-.004.127-.003.128-.002.127-.002.127v.254l.001.126.002.127.002.126.004.127.004.126.005.126.006.126.007.125.008.126.009.125.006.08.004.045.011.125.012.124.013.125.014.123.015.124.016.124.018.123.019.128.02.128.021.128.023.128.024.127.024.127.026.126.027.127.027.126.029.126.03.125.03.125.032.125.032.125.034.124.034.124.035.124.036.124.037.123.024.079.014.044.039.123.039.122.04.122.041.122.042.122.043.121.043.121.044.121.044.121.046.12.046.12.046.12.047.119.048.12.049.119.049.119.049.118.05.119.051.118.051.118.051.118.052.117.053.117.053.118.053.116.054.117.054.116.055.117.055.116.055.115.112.231.113.23.114.229.116.229.116.227.116.227.118.227.133.256.135.258.069.13.069.131.07.13.071.131.071.131.072.131.045.08.028.051.074.13.075.13.076.13.077.13.078.128.078.129.08.127.081.127.083.126.083.124.042.062.043.062.043.061.043.061.043.061.044.061.044.06.045.059.044.06.046.059.045.058.046.059.047.058.046.057.047.057.048.056.048.056.048.056.049.055.049.055.049.054.05.054.056.058.056.059.057.058.057.057.058.058.058.056.059.057.059.056.06.056.06.055.061.055.061.054.061.055.062.054.062.053.063.053.063.053.063.053.064.052.064.052.064.051.065.051.065.051.065.051.066.05.066.05.133.099.133.097.135.097.135.096.136.094.137.093.137.093.137.091.138.09.139.09.138.088.139.088.139.087.138.086.139.085.138.085.138.084.188.114.086.052.071-.017-.017-.071-.085-.053-.187-.117-.136-.086-.136-.087-.137-.087-.137-.089-.136-.089-.137-.089-.136-.091-.137-.091-.135-.093-.136-.093-.135-.094-.134-.095-.133-.096-.01-.007-.123-.09-.132-.098-.131-.099-.13-.1-.064-.051-.065-.05-.064-.051-.063-.052-.063-.051-.063-.052-.063-.053-.062-.052-.062-.053-.061-.053-.061-.053-.061-.054-.06-.054-.06-.055-.059-.054-.059-.056-.058-.055-.058-.056-.058-.056-.057-.056-.056-.057-.056-.057-.055-.057-.055-.058-.054-.058-.054-.059-.048-.053-.048-.054-.047-.054-.046-.055-.047-.055-.046-.055-.045-.056-.046-.057-.044-.057-.045-.057-.044-.058-.044-.058-.043-.059-.043-.059-.043-.059-.043-.06-.042-.06-.042-.06-.041-.061-.041-.061-.041-.061-.041-.062-.08-.124-.079-.125-.078-.126-.077-.127-.076-.128-.074-.128-.074-.13-.073-.129-.072-.13-.072-.131-.027-.051-.043-.079-.07-.131-.069-.131-.068-.131-.068-.131-.067-.131-.067-.13-.131-.26-.13-.257-.114-.227-.113-.228-.112-.228-.112-.229-.11-.23-.109-.23-.108-.231-.054-.115-.047-.104-.006-.012-.053-.116-.052-.116-.052-.117-.052-.116-.051-.117-.05-.117-.051-.117-.049-.117-.049-.117-.049-.118-.048-.118-.048-.117-.047-.119-.046-.118-.046-.118-.045-.119-.045-.119-.044-.119-.043-.119-.043-.12-.042-.119-.041-.12-.04-.12-.04-.12-.039-.121-.038-.12-.037-.121-.037-.121-.013-.044-.023-.078-.035-.121-.034-.122-.034-.121-.032-.123-.032-.122-.031-.122-.03-.123-.029-.123-.028-.123-.027-.123-.026-.124-.025-.124-.024-.124-.023-.124-.021-.125-.021-.125-.02-.125-.019-.125-.017-.125-.016-.12-.015-.121-.013-.121-.013-.121-.012-.121-.01-.122-.01-.122-.003-.043-.006-.079-.008-.122-.007-.123-.006-.123-.005-.123-.005-.124-.003-.123-.003-.124-.002-.124-.001-.125v-.249l.001-.085.001-.039.001-.125.003-.125.003-.125.004-.126.005-.125.005-.126.006-.125.006-.126.007-.125.008-.126.005-.078.003-.048.008-.125.009-.126.01-.126.01-.126.011-.125.011-.126.011-.126.012-.125.012-.126.013-.122.013-.128.027-.251.028-.25.029-.249.031-.249.026-.205.005-.043.032-.247.032-.246.033-.245.033-.244.067-.485.016-.112.016-.112.018-.112.018-.113.019-.113.02-.112.021-.113.021-.114.022-.113.023-.113.014-.067.01-.047.024-.113.026-.114.026-.114.026-.114.028-.113.028-.114.029-.114.03-.114.031-.114.032-.113.032-.114.033-.114.034-.113.035-.114.035-.113.036-.114.037-.113.038-.113.039-.113.039-.112.041-.113.041-.112.032-.087.009-.025.043-.112.043-.112.044-.111.045-.111.045-.111.047-.111.047-.11.048-.11.048-.11.05-.109.05-.109.051-.109.052-.108.053-.108.053-.108.054-.107.055-.106.056-.106.057-.106.057-.105.058-.105.059-.104.005-.009.055-.095.06-.104.061-.102.062-.103.062-.101.064-.101.064-.101.065-.1.066-.099.067-.099.067-.098.068-.097.069-.097.07-.096.07-.096.072-.094.072-.094.073-.093.073-.093.075-.092.075-.091.076-.09.077-.089.077-.089.079-.087.079-.087.08-.086.08-.086.082-.084.082-.083.083-.083.084-.082.084-.08.086-.08.086-.079.087-.078.088-.077.088-.076.09-.075.09-.073.09-.073.006-.005.086-.067.092-.071.093-.07.094-.069.095-.067.096-.067.096-.065.097-.065.098-.063.098-.062.1-.061.1-.059.101-.059.102-.057.102-.056.104-.055.104-.054.105-.052.106-.051.106-.05.107-.048.109-.047.109-.046.109-.045.111-.043.111-.041.112-.041.113-.039.114-.037.114-.037.034-.01.082-.024.035-.064-.064-.035-.083.023z" style="fill:#9b5723" transform="scale(-1.8356 1.8356) rotate(-15 -79.297 374.85)"/><path d="M44.358 44.62v.072l-.046.049-.018.019-.03.03-.048.048-.048.048-.048.047-.049.048-.049.047-.05.046-.05.047-.05.046-.051.046-.051.045-.102.091-.104.089-.105.088-.106.088-.107.086-.108.086-.109.085-.11.085-.11.083-.111.083-.112.083-.112.082-.113.082-.113.081-.113.081-.114.081-.228.161-.456.321-.077.054-.15.106-.114.081-.112.08-.113.081-.112.082-.112.081-.11.083-.111.082-.109.083-.109.084-.107.085-.107.085-.106.086-.105.087-.103.087-.103.089-.101.089-.05.045-.05.046-.049.045-.049.046-.049.046-.048.047-.048.046-.047.047-.048.048-.046.047-.047.048-.046.048-.045.049-.045.049-.045.049-.044.05-.044.049-.043.051-.043.05-.042.051-.042.052-.042.051-.04.053-.041.052-.04.053-.039.053-.039.054-.038.054-.038.055-.037.055-.037.055-.036.056-.035.056-.035.057-.035.058-.034.057-.048.084-.047.083-.047.084-.046.085-.023.041-.023.043-.045.084-.045.085-.044.085-.044.085-.043.086-.043.085-.042.086-.042.086-.041.086-.041.086-.04.087-.039.087-.039.087-.039.087-.038.087-.037.087-.037.088-.037.088-.036.088-.035.088-.035.088-.035.089-.034.089-.033.089-.033.089-.032.089-.032.089-.031.09-.031.089-.024.069-.007.021-.03.09-.029.09-.029.09-.029.091-.028.09-.027.091-.027.091-.027.091-.026.091-.025.091-.025.092-.025.091-.024.092-.024.092-.023.092-.022.092-.022.092-.022.092-.021.093-.021.092-.02.093-.02.092-.019.093-.019.093-.018.093-.018.094-.017.093-.017.093-.017.094-.015.093-.015.086-.001.008-.015.094-.015.094-.014.094-.014.094-.013.094-.013.094-.012.094-.012.095-.012.094-.011.095-.01.094-.01.095-.01.095-.009.095-.009.095-.008.094-.008.096-.007.095-.007.095-.007.095-.006.095-.005.096-.005.095-.005.095-.004.096-.004.095-.004.096-.002.095-.003.096-.002.096-.001.073-.001.023-.001.095-.001.096v.288l.001.095.001.096.002.096.002.096.002.096.003.096.004.096.004.096.004.096.003.073.001.023.005.096.006.096.006.096.006.096.006.096.007.097.008.096.008.096.008.096.009.096.009.096.009.096.01.096.011.095.003.032.007.064.011.096.023.192.025.192.026.191.028.191.03.192.031.191.027.155.006.035.033.191.036.191.037.19.039.19.04.189.041.19.043.189.045.188.015.061.031.128.047.188.049.188.05.187.052.187.053.186.055.186.056.186.058.185.059.185.06.184.062.184.063.183.064.183.066.182.068.181.068.181.071.18.071.18.015.036.057.143.074.178.075.178.077.177.078.176.079.176.08.174.082.175.083.173.084.172.086.172.086.171.088.17.09.169.09.168.092.168.093.166.094.166.095.165.097.163.052.087.045.076.099.162.1.161.101.16.102.158.103.158.105.157.105.155.107.155.108.153.051.071.051.071.051.071.052.07.052.07.052.069.053.07.052.069.107.137.108.136.109.135.11.134.111.133.112.132.113.131.097.111.017.019.114.13.116.128.116.128.118.127.118.126.119.126.119.125.12.124.121.123.122.123.122.123.122.122.124.121.123.121.124.12.125.121.125.119.125.12.252.238.252.237.254.237.508.473.254.236.253.237.254.237.252.239.09.086.036.034.125.12.126.12.124.121.125.122.124.121.123.123.123.123.122.123.122.124.121.125.121.125.12.127.119.126.119.128.045.049.072.08-.002.073-.073-.004-.074-.078-.045-.048-.12-.125-.121-.125-.121-.123-.123-.123-.122-.123-.124-.122-.124-.121-.124-.12-.125-.12-.126-.12-.125-.119-.127-.118-.127-.119-.127-.118-.035-.033-.092-.084-.255-.235-.257-.233-.257-.233-.257-.233-.515-.465-.257-.233-.256-.234-.256-.235-.127-.118-.127-.119-.127-.118-.126-.12-.126-.119-.126-.12-.125-.121-.124-.121-.124-.122-.124-.123-.123-.123-.122-.124-.121-.125-.121-.125-.12-.127-.12-.127-.118-.128-.118-.129-.018-.019-.099-.111-.116-.131-.115-.132-.114-.133-.113-.134-.112-.135-.111-.137-.109-.137-.055-.07-.054-.069-.054-.07-.054-.071-.053-.07-.053-.071-.053-.071-.052-.072-.111-.154-.11-.155-.109-.156-.108-.157-.106-.158-.106-.159-.104-.161-.103-.161-.102-.163-.047-.076-.054-.087-.1-.165-.098-.165-.097-.167-.096-.167-.094-.169-.094-.169-.092-.17-.091-.172-.09-.172-.088-.172-.088-.174-.085-.175-.085-.175-.083-.176-.083-.177-.08-.178-.08-.178-.078-.179-.077-.18-.06-.144-.015-.037-.074-.181-.072-.182-.072-.183-.069-.183-.069-.184-.067-.185-.065-.185-.064-.185-.063-.187-.061-.186-.06-.188-.059-.187-.057-.189-.055-.188-.054-.189-.053-.19-.051-.19-.05-.19-.032-.13-.016-.061-.046-.192-.045-.191-.043-.192-.042-.192-.04-.193-.038-.193-.037-.193-.036-.193-.006-.036-.027-.158-.032-.194-.031-.194-.029-.194-.027-.195-.025-.195-.024-.194-.011-.098-.008-.065-.003-.032-.011-.098-.01-.097-.009-.098-.009-.097-.009-.098-.008-.098-.008-.097-.007-.098-.007-.098-.007-.097-.006-.098-.006-.097-.005-.098-.005-.098-.001-.023-.004-.074-.003-.098-.004-.098-.003-.097-.003-.098-.002-.098-.001-.097-.002-.098-.001-.097v-.293l.001-.097.002-.098.001-.097.001-.023.002-.075.003-.097.003-.097.004-.097.004-.098.004-.097.005-.097.006-.097.006-.097.006-.097.007-.097.007-.097.008-.096.008-.097.009-.097.009-.096.01-.097.01-.096.01-.097.011-.096.012-.096.012-.096.012-.096.013-.096.013-.096.014-.096.014-.096.015-.095.015-.096.016-.095.016-.096.002-.007.015-.088.017-.095.018-.095.018-.095.019-.095.019-.094.02-.095.02-.094.021-.095.021-.094.021-.094.023-.094.022-.094.023-.093.024-.094.024-.093.024-.094.025-.093.026-.093.026-.093.027-.093.027-.092.027-.093.028-.092.029-.092.029-.092.029-.092.03-.092.031-.091.031-.092.031-.091.008-.021.025-.07.032-.091.033-.09.034-.091.034-.09.035-.09.035-.09.036-.09.036-.09.037-.089.037-.089.038-.089.039-.089.038-.089.04-.088.04-.089.04-.088.041-.088.042-.087.042-.088.042-.087.043-.087.044-.087.044-.086.045-.087.045-.086.045-.086.047-.086.046-.085.048-.085.024-.044.024-.041.048-.085.049-.085.05-.084.05-.084.036-.06.037-.059.037-.058.038-.058.039-.058.039-.057.04-.057.04-.056.041-.055.041-.055.042-.055.042-.054.043-.054.043-.053.044-.053.044-.052.045-.052.045-.052.045-.051.046-.05.047-.051.046-.05.048-.049.047-.049.048-.049.049-.048.049-.048.049-.048.049-.047.05-.047.05-.047.051-.046.051-.046.051-.046.052-.046.051-.045.105-.089.106-.088.106-.088.108-.086.109-.085.11-.085.11-.083.111-.083.112-.082.113-.082.113-.081.113-.08.114-.08.115-.079.115-.08.115-.078.152-.104.079-.053.462-.312.231-.156.114-.079.115-.078.114-.079.114-.079.113-.08.112-.08.112-.08.112-.081.11-.082.11-.082.108-.083.108-.084.107-.085.106-.085.104-.086.104-.088.051-.044.051-.044.051-.045.05-.045.05-.045.049-.046.05-.045.048-.047.049-.046.048-.047.03-.029.018-.018.047-.047.073-.001z" style="fill:#9b5723" transform="rotate(15 241.37 -39.69) scale(1.8356)"/><path d="m44.285 44.621-.047.047-.018.018-.03.029-.048.047-.049.046-.048.047-.05.045-.049.046-.05.045-.05.045-.051.045-.051.044-.051.044-.104.088-.104.086-.106.085-.107.085-.108.084-.108.083-.11.082-.11.082-.112.081-.112.08-.112.08-.113.08-.114.079-.114.079-.115.078-.114.079-.231.156-.462.312-.079.053-.152.104-.115.078-.115.08-.115.079-.114.08-.113.08-.113.081-.113.082-.112.082-.111.083-.11.083-.11.085-.109.085-.108.086-.106.088-.106.088-.105.089-.051.045-.052.046-.051.046-.051.046-.051.046-.05.047-.05.047-.049.047-.049.048-.049.048-.049.048-.048.049-.047.049-.048.049-.046.05-.047.051-.046.05-.045.051-.045.052-.045.052-.044.052-.044.053-.043.053-.043.054-.042.054-.042.055-.041.055-.041.055-.04.056-.04.057-.039.057-.039.058-.038.058-.037.058-.037.059-.036.06-.05.084-.05.084-.049.085-.048.085-.024.041-.024.044-.048.085-.046.085-.047.086-.045.086-.045.086-.045.087-.044.086-.044.087-.043.087-.042.087-.042.088-.042.087-.041.088-.04.088-.04.089-.04.088-.038.089-.039.089-.038.089-.037.089-.037.089-.036.09-.036.09-.035.09-.035.09-.034.09-.034.091-.033.09-.032.091-.025.07-.008.021-.031.091-.031.092-.031.091-.03.092-.029.092-.029.092-.029.092-.028.092-.027.093-.027.092-.027.093-.026.093-.026.093-.025.093-.024.094-.024.093-.024.094-.023.093-.022.094-.023.094-.021.094-.021.094-.021.095-.02.094-.02.095-.019.094-.019.095-.018.095-.018.095-.017.095-.015.088-.002.007-.016.096-.016.095-.015.096-.015.095-.014.096-.014.096-.013.096-.013.096-.012.096-.012.096-.012.096-.011.096-.01.097-.01.096-.01.097-.009.096-.009.097-.008.097-.008.096-.007.097-.007.097-.006.097-.006.097-.006.097-.005.097-.004.097-.004.098-.004.097-.003.097-.003.097-.002.075-.001.023-.001.097-.002.098-.001.097v.293l.001.097.002.098.001.097.002.098.003.098.003.097.004.098.003.098.004.074.001.023.005.098.005.098.006.097.006.098.007.097.007.098.007.098.008.097.008.098.009.098.009.097.009.098.01.097.011.098.003.032.008.065.011.098.024.194.025.195.027.195.029.194.031.194.032.194.027.158.006.036.036.193.037.193.038.193.04.193.042.192.043.192.045.191.046.192.016.061.032.13.05.19.051.19.053.19.054.189.055.188.057.189.059.187.06.188.061.186.063.187.064.185.065.185.067.185.069.184.069.183.072.183.072.182.074.181.015.037.06.144.077.18.078.179.08.178.08.178.083.177.083.176.085.175.085.175.088.174.088.172.09.172.091.172.092.17.094.169.094.169.096.167.097.167.098.165.1.165.054.087.047.076.102.163.103.161.104.161.106.159.106.158.108.157.109.156.11.155.111.154.052.072.053.071.053.071.053.07.054.071.054.07.054.069.055.07.109.137.111.137.112.135.113.134.114.133.115.132.116.131.099.111.018.019.118.129.118.128.12.127.12.127.121.125.121.125.122.124.123.123.124.123.124.122.124.121.125.121.126.12.126.119.126.12.127.118.127.119.127.118.256.235.256.234.257.233.515.465.257.233.257.233.257.233.255.235.092.084.035.033.127.118.127.119.127.118.125.119.126.12.125.12.124.12.124.121.124.122.122.123.123.123.121.123.121.125.12.125.045.048.074.078.073.004.002-.073-.072-.08-.045-.049-.119-.128-.119-.126-.12-.127-.121-.125-.121-.125-.122-.124-.122-.123-.123-.123-.123-.123-.124-.121-.125-.122-.124-.121-.126-.12-.125-.12-.036-.034-.09-.086-.252-.239-.254-.237-.253-.237-.254-.236-.508-.473-.254-.237-.252-.237-.252-.238-.125-.12-.125-.119-.125-.121-.124-.12-.123-.121-.124-.121-.122-.122-.122-.123-.122-.123-.121-.123-.12-.124-.119-.125-.119-.126-.118-.126-.118-.127-.116-.128-.116-.128-.114-.13-.017-.019-.097-.111-.113-.131-.112-.132-.111-.133-.11-.134-.109-.135-.108-.136-.107-.137-.052-.069-.053-.07-.052-.069-.052-.07-.052-.07-.051-.071-.051-.071-.051-.071-.108-.153-.107-.155-.105-.155-.105-.157-.103-.158-.102-.158-.101-.16-.1-.161-.099-.162-.045-.076-.052-.087-.097-.163-.095-.165-.094-.166-.093-.166-.092-.168-.09-.168-.09-.169-.088-.17-.086-.171-.086-.172-.084-.172-.083-.173-.082-.175-.08-.174-.079-.176-.078-.176-.077-.177-.075-.178-.074-.178-.057-.143-.015-.036-.071-.18-.071-.18-.068-.181-.068-.181-.066-.182-.064-.183-.063-.183-.062-.184-.06-.184-.059-.185-.058-.185-.056-.186-.055-.186-.053-.186-.052-.187-.05-.187-.049-.188-.047-.188-.031-.128-.015-.061-.045-.188-.043-.189-.041-.19-.04-.189-.039-.19-.037-.19-.036-.191-.033-.191-.006-.035-.027-.155-.031-.191-.03-.192-.028-.191-.026-.191-.025-.192-.023-.192-.011-.096-.007-.064-.003-.032-.011-.095-.01-.096-.009-.096-.009-.096-.009-.096-.008-.096-.008-.096-.008-.096-.007-.097-.006-.096-.006-.096-.006-.096-.006-.096-.005-.096-.001-.023-.003-.073-.004-.096-.004-.096-.004-.096-.003-.096-.002-.096-.002-.096-.002-.096-.001-.096-.001-.095v-.288l.001-.096.001-.095.001-.023.001-.073.002-.096.003-.096.002-.095.004-.096.004-.095.004-.096.005-.095.005-.095.005-.096.006-.095.007-.095.007-.095.007-.095.008-.096.008-.094.009-.095.009-.095.01-.095.01-.095.01-.094.011-.095.012-.094.012-.095.012-.094.013-.094.013-.094.014-.094.014-.094.015-.094.015-.094.001-.008.015-.086.015-.093.017-.094.017-.093.017-.093.018-.094.018-.093.019-.093.019-.093.02-.092.02-.093.021-.092.021-.093.022-.092.022-.092.022-.092.023-.092.024-.092.024-.092.025-.091.025-.092.025-.091.026-.091.027-.091.027-.091.027-.091.028-.09.029-.091.029-.09.029-.09.03-.09.007-.021.024-.069.031-.089.031-.09.032-.089.032-.089.033-.089.033-.089.034-.089.035-.089.035-.088.035-.088.036-.088.037-.088.037-.088.037-.087.038-.087.039-.087.039-.087.039-.087.04-.087.041-.086.041-.086.042-.086.042-.086.043-.085.043-.086.044-.085.044-.085.045-.085.045-.084.023-.043.023-.041.046-.085.047-.084.047-.083.048-.084.034-.057.035-.058.035-.057.035-.056.036-.056.037-.055.037-.055.038-.055.038-.054.039-.054.039-.053.04-.053.041-.052.04-.053.042-.051.042-.052.042-.051.043-.05.043-.051.044-.049.044-.05.045-.049.045-.049.045-.049.046-.048.047-.048.046-.047.048-.048.047-.047.048-.046.048-.047.049-.046.049-.046.049-.045.05-.046.05-.045.101-.089.103-.089.103-.087.105-.087.106-.086.107-.085.107-.085.109-.084.109-.083.111-.082.11-.083.112-.081.112-.082.113-.081.112-.08.114-.081.15-.106.077-.054.456-.321.228-.161.114-.081.113-.081.113-.081.113-.082.112-.082.112-.083.111-.083.11-.083.11-.085.109-.085.108-.086.107-.086.106-.088.105-.088.104-.089.102-.091.051-.045.051-.046.05-.046.05-.047.05-.046.049-.047.049-.048.048-.047.048-.048.048-.048.03-.03.018-.019.046-.049v-.072l-.073.001z" style="fill:#9b5723" transform="scale(-1.8356 1.8356) rotate(-15 -79.297 374.85)"/><path d="m49.106 39.195-.04.094-.009.021-.047.114-.046.116-.044.116-.043.116-.042.117-.041.117-.04.118-.039.118-.038.119-.037.119-.036.12-.036.119-.034.121-.034.12-.034.121-.033.12-.033.121-.064.243-.063.244-.063.243-.063.244-.063.243-.065.244-.032.121-.034.122-.033.121-.035.121-.022.079-.013.042-.036.12-.036.121-.038.12-.038.119-.039.12-.041.118-.041.119-.043.118-.044.118-.045.117-.046.117-.048.116-.05.115-.025.058-.026.057-.026.058-.026.057-.027.057-.028.056-.028.057-.028.056-.029.057-.029.056-.029.056-.031.055-.03.056-.031.055-.032.056-.032.055-.033.054-.033.055-.034.054-.034.054-.035.054-.035.054-.036.053-.037.054-.037.053-.038.052-.038.053-.039.052-.04.052-.04.052-.041.052-.041.051-.121.147-.119.145-.237.286-.234.279-.23.275-.41.487-.04.048-.22.261-.216.259-.107.129-.105.127-.105.128-.104.127-.102.127-.102.127-.101.127-.1.126-.098.127-.098.127-.096.127-.096.127-.095.128-.093.128-.092.128-.013.018-.079.111-.09.13-.089.131-.088.131-.088.132-.085.134-.085.134-.084.136-.041.068-.042.068-.04.069-.041.069-.04.07-.04.07-.04.07-.039.07-.039.071-.039.072-.039.072-.038.072-.038.073-.038.073-.037.073-.037.074-.037.075-.036.075-.036.075-.036.076-.036.077-.035.077-.035.077-.035.078-.011.026-.023.053-.034.079-.034.079-.034.081-.033.081-.033.081-.033.082-.032.083-.032.083-.032.084-.031.085-.031.085-.031.086-.031.087-.03.087-.03.088-.029.089-.029.089-.029.09-.029.091-.028.092-.028.092-.028.094-.027.094-.027.095-.026.095-.032.118-.031.119-.03.121-.029.121-.028.122-.027.123-.024.117-.002.007-.025.125-.024.126-.023.126-.022.127-.022.128-.02.128-.019.129-.018.13-.017.13-.016.131-.015.131-.014.132-.001.009-.012.122-.013.133-.011.132-.01.133-.009.133-.008.133-.007.134-.006.133-.005.134-.004.133-.003.134-.001.083v.051l-.001.133v.134l.001.133.002.133.003.133.004.132.006.132.006.132.008.132.008.131.01.13.009.114.001.016.012.13.013.129.013.128.015.128.016.127.017.126.018.126.019.124.02.124.021.123.022.122.024.121.024.12.026.119.004.018.022.1.028.117.028.115.03.115.031.113.032.112.033.112.02.067.02.069.02.068.019.067.036.134.035.132.032.131.031.129.028.128.028.127.025.125.024.124.022.123.022.122.02.12.018.12.018.118.017.117.016.116.015.115.015.115.014.113.026.224.025.221.025.218.007.06.018.156.025.214.013.105.014.106.015.106.015.105.015.104.017.105.018.104.018.104.02.105.021.104.022.104.024.104.025.104.027.105.028.105.015.052.015.052.016.053.016.053.017.052.017.053.017.053.018.053.019.053.019.054.02.053.02.054.021.054.022.053.022.054.023.055.023.054.024.054.024.055.025.055.026.055.027.055.027.056.028.056.029.056.029.056.03.056.031.057.032.056.032.058.033.057.034.057.035.058.036.058.036.059.037.059.038.058.039.06.061.092.062.091.062.092.063.09.063.091.063.091.064.09.064.089.065.09.065.089.065.089.066.089.066.089.066.088.134.176.134.175.136.175.138.173.138.173.139.172.139.172.141.171.141.171.142.171.142.169.143.17.142.17.287.338.286.339.287.338.143.17.142.169.142.17.142.17.141.171.14.171.14.171.139.172.138.173.137.173.135.174.135.175.134.175.066.088.066.089.065.088.066.089.064.089.065.089.064.09.064.09.063.09.063.09.062.091.062.091.062.091.061.091.06.092.06.092.06.093.059.093.059.093.058.094.057.094.057.094.057.094.056.095.055.096.054.096.055.096.053.097.053.097.052.097.052.098.05.098.051.099.049.099.049.1.048.1.048.101.047.101.046.101.045.102.045.103.044.103.043.103.042.104.041.105.041.105.04.106.039.106.039.107.037.107-.031.066-.066-.032-.038-.106-.002-.005-.038-.1-.04-.105-.041-.104-.042-.104-.043-.103-.043-.103-.045-.102-.045-.101-.045-.101-.047-.101-.047-.1-.048-.099-.048-.099-.049-.099-.05-.098-.051-.098-.051-.097-.052-.097-.053-.096-.053-.096-.053-.095-.055-.095-.055-.095-.055-.094-.056-.094-.017-.027-.04-.067-.057-.093-.058-.092-.058-.093-.059-.092-.06-.092-.059-.091-.061-.091-.061-.091-.061-.09-.062-.09-.062-.09-.063-.089-.063-.09-.063-.088-.064-.089-.065-.088-.065-.089-.065-.087-.065-.088-.066-.087-.067-.087-.066-.087-.067-.087-.135-.173-.137-.172-.137-.171-.139-.171-.139-.17-.141-.169-.141-.169-.142-.169-.143-.168-.144-.168-.144-.167-.144-.168-.145-.167-.291-.334-.291-.335-.291-.335-.145-.168-.008-.009-.137-.159-.144-.169-.145-.169-.143-.17-.143-.17-.143-.171-.142-.172-.14-.172-.14-.173-.139-.174-.138-.175-.137-.176-.068-.089-.068-.088-.067-.089-.067-.089-.067-.09-.066-.089-.066-.09-.066-.091-.065-.09-.065-.091-.064-.092-.064-.091-.063-.092-.064-.093-.027-.041-.013-.02-.04-.06-.039-.06-.039-.06-.037-.06-.037-.06-.036-.059-.034-.059-.035-.059-.033-.059-.033-.058-.032-.058-.031-.058-.03-.058-.03-.058-.029-.057-.028-.058-.027-.057-.027-.057-.027-.057-.025-.056-.025-.057-.024-.056-.024-.056-.023-.056-.022-.056-.022-.056-.021-.055-.021-.056-.02-.055-.019-.055-.019-.056-.019-.055-.018-.054-.017-.055-.017-.055-.016-.054-.016-.055-.031-.109-.029-.108-.027-.108-.025-.108-.025-.108-.022-.107-.022-.107-.02-.108-.019-.107-.018-.107-.018-.107-.016-.107-.016-.107-.015-.108-.015-.107-.028-.216-.019-.156-.007-.06-.027-.218-.026-.22-.028-.223-.015-.112-.015-.112-.016-.114-.016-.114-.018-.115-.018-.115-.019-.117-.021-.117-.021-.119-.023-.12-.024-.12-.026-.122-.027-.123-.029-.124-.031-.126-.032-.127-.035-.128-.036-.129-.019-.066-.019-.065-.02-.066-.021-.068-.035-.113-.034-.116-.033-.117-.031-.118-.031-.12-.029-.12-.024-.103-.004-.019-.027-.122-.026-.124-.025-.124-.023-.126-.023-.126-.021-.127-.02-.128-.019-.129-.018-.129-.017-.131-.016-.13-.014-.132-.014-.132-.012-.133-.002-.016-.009-.117-.01-.133-.009-.135-.008-.134-.007-.135-.006-.135-.004-.136-.004-.135-.002-.136-.002-.136v-.137l.001-.136v-.052l.001-.085.004-.136.004-.137.005-.136.006-.137.008-.136.008-.136.009-.136.011-.136.011-.135.013-.135.013-.126.001-.009.015-.134.016-.134.017-.134.018-.133.019-.133.02-.132.021-.131.022-.131.023-.13.024-.129.026-.129.026-.128.002-.008.025-.119.029-.126.029-.126.031-.124.032-.123.032-.123.034-.121.028-.097.028-.097.028-.096.029-.094.029-.095.03-.093.029-.093.031-.091.03-.092.031-.09.031-.09.031-.089.032-.088.032-.088.032-.087.033-.086.033-.086.034-.085.033-.084.034-.084.034-.083.035-.082.035-.082.035-.081.036-.081.024-.054.012-.026.036-.08.037-.079.036-.078.038-.078.037-.077.038-.077.038-.076.038-.076.039-.075.039-.075.039-.075.04-.074.04-.073.04-.073.04-.073.041-.072.041-.072.041-.071.042-.071.042-.071.042-.07.042-.07.043-.069.043-.07.087-.137.087-.136.089-.135.09-.133.091-.133.093-.132.093-.131.081-.112.013-.018.095-.129.097-.129.097-.128.098-.128.1-.127.1-.127.101-.126.102-.127.104-.126.104-.127.105-.126.106-.127.107-.127.107-.127.109-.128.22-.256.224-.26.04-.047.418-.481.234-.27.237-.276.241-.281.121-.143.122-.144.041-.049.04-.05.04-.049.039-.049.038-.05.038-.051.037-.05.037-.051.036-.05.036-.052.035-.051.034-.052.034-.052.034-.052.033-.052.032-.053.032-.053.032-.053.031-.053.031-.054.03-.053.029-.054.03-.054.028-.055.029-.054.028-.055.027-.055.028-.055.026-.056.027-.055.026-.056.025-.056.05-.112.049-.113.048-.114.046-.115.045-.115.043-.115.043-.116.042-.117.04-.117.04-.118.039-.118.038-.118.037-.119.013-.042.024-.077.036-.12.036-.12.035-.12.035-.12.068-.242.068-.242.067-.242.067-.243.068-.242.068-.242.035-.121.035-.121.036-.121.037-.12.037-.12.038-.12.038-.12.04-.119.04-.119.041-.119.042-.118.044-.118.044-.117.046-.117.047-.116.048-.116.05-.115.009-.02.042-.094.068-.026.026.067z" style="fill:#9b5723" transform="rotate(15 241.37 -39.69) scale(1.8356)"/><path d="m49.012 39.154-.042.094-.009.02-.05.115-.048.116-.047.116-.046.117-.044.117-.044.118-.042.118-.041.119-.04.119-.04.119-.038.12-.038.12-.037.12-.037.12-.036.121-.035.121-.035.121-.068.242-.068.242-.067.243-.067.242-.068.242-.068.242-.035.12-.035.12-.036.12-.036.12-.024.077-.013.042-.037.119-.038.118-.039.118-.04.118-.04.117-.042.117-.043.116-.043.115-.045.115-.046.115-.048.114-.049.113-.05.112-.025.056-.026.056-.027.055-.026.056-.028.055-.027.055-.028.055-.029.054-.028.055-.03.054-.029.054-.03.053-.031.054-.031.053-.032.053-.032.053-.032.053-.033.052-.034.052-.034.052-.034.052-.035.051-.036.052-.036.05-.037.051-.037.05-.038.051-.038.05-.039.049-.04.049-.04.05-.041.049-.122.144-.121.143-.241.281-.237.276-.234.27-.418.481-.04.047-.224.26-.22.256-.109.128-.107.127-.107.127-.106.127-.105.126-.104.127-.104.126-.102.127-.101.126-.1.127-.1.127-.098.128-.097.128-.097.129-.095.129-.013.018-.081.112-.093.131-.093.132-.091.133-.09.133-.089.135-.087.136-.087.137-.043.07-.043.069-.042.07-.042.07-.042.071-.042.071-.041.071-.041.072-.041.072-.04.073-.04.073-.04.073-.04.074-.039.075-.039.075-.039.075-.038.076-.038.076-.038.077-.037.077-.038.078-.036.078-.037.079-.036.08-.012.026-.024.054-.036.081-.035.081-.035.082-.035.082-.034.083-.034.084-.033.084-.034.085-.033.086-.033.086-.032.087-.032.088-.032.088-.031.089-.031.09-.031.09-.03.092-.031.091-.029.093-.03.093-.029.095-.029.094-.028.096-.028.097-.028.097-.034.121-.032.123-.032.123-.031.124-.029.126-.029.126-.025.119-.002.008-.026.128-.026.129-.024.129-.023.13-.022.131-.021.131-.02.132-.019.133-.018.133-.017.134-.016.134-.015.134-.001.009-.013.126-.013.135-.011.135-.011.136-.009.136-.008.136-.008.136-.006.137-.005.136-.004.137-.004.136-.001.085v.052l-.001.136v.137l.002.136.002.136.004.135.004.136.006.135.007.135.008.134.009.135.01.133.009.117.002.016.012.133.014.132.014.132.016.13.017.131.018.129.019.129.02.128.021.127.023.126.023.126.025.124.026.124.027.122.004.019.024.103.029.12.031.12.031.118.033.117.034.116.035.113.021.068.02.066.019.065.019.066.036.129.035.128.032.127.031.126.029.124.027.123.026.122.024.12.023.12.021.119.021.117.019.117.018.115.018.115.016.114.016.114.015.112.015.112.028.223.026.22.027.218.007.06.019.156.028.216.015.107.015.108.016.107.016.107.018.107.018.107.019.107.02.108.022.107.022.107.025.108.025.108.027.108.029.108.031.109.016.055.016.054.017.055.017.055.018.054.019.055.019.056.019.055.02.055.021.056.021.055.022.056.022.056.023.056.024.056.024.056.025.057.025.056.027.057.027.057.027.057.028.058.029.057.03.058.03.058.031.058.032.058.033.058.033.059.035.059.034.059.036.059.037.06.037.06.039.06.039.06.04.06.04.061.064.093.063.092.064.091.064.092.065.091.065.09.066.091.066.09.066.089.067.09.067.089.067.089.068.088.068.089.137.176.138.175.139.174.14.173.14.172.142.172.143.171.143.17.143.17.145.169.144.169.145.168.145.168.291.335.291.335.291.334.145.167.144.168.144.167.144.168.143.168.142.169.141.169.141.169.139.17.139.171.137.171.137.172.135.173.067.087.066.087.067.087.066.087.065.088.065.087.065.089.065.088.064.089.063.088.063.09.063.089.062.09.062.09.061.09.061.091.061.091.059.091.06.092.059.092.058.093.058.092.057.093.057.094.056.094.055.094.055.095.055.095.053.095.053.096.053.096.052.097.051.097.051.098.05.098.049.099.048.099.048.099.047.1.047.101.045.101.045.101.045.102.043.103.043.103.042.104.041.104.04.105.04.105.038.106.066.032.031-.066-.037-.107-.002-.005-.037-.102-.039-.106-.04-.106-.041-.105-.041-.105-.042-.104-.043-.103-.044-.103-.045-.103-.045-.102-.046-.101-.047-.101-.048-.101-.048-.1-.049-.1-.049-.099-.051-.099-.05-.098-.052-.098-.052-.097-.053-.097-.053-.097-.055-.096-.054-.096-.055-.096-.016-.027-.04-.068-.057-.094-.057-.094-.057-.094-.058-.094-.059-.093-.059-.093-.06-.093-.06-.092-.06-.092-.061-.091-.062-.091-.062-.091-.062-.091-.063-.09-.063-.09-.064-.09-.064-.09-.065-.089-.064-.089-.066-.089-.065-.088-.066-.089-.066-.088-.134-.175-.135-.175-.135-.174-.137-.173-.138-.173-.139-.172-.14-.171-.14-.171-.141-.171-.142-.17-.142-.17-.142-.169-.143-.17-.287-.338-.286-.339-.287-.338-.142-.17-.008-.009-.135-.161-.142-.169-.142-.171-.141-.171-.141-.171-.139-.172-.139-.172-.138-.173-.138-.173-.136-.175-.134-.175-.134-.176-.066-.088-.066-.089-.066-.089-.065-.089-.065-.089-.065-.09-.064-.089-.064-.09-.063-.091-.063-.091-.063-.09-.062-.092-.062-.091-.061-.092-.026-.04-.013-.02-.038-.058-.037-.059-.036-.059-.036-.058-.035-.058-.034-.057-.033-.057-.032-.058-.032-.056-.031-.057-.03-.056-.029-.056-.029-.056-.028-.056-.027-.056-.027-.055-.026-.055-.025-.055-.024-.055-.024-.054-.023-.054-.023-.055-.022-.054-.022-.053-.021-.054-.02-.054-.02-.053-.019-.054-.019-.053-.018-.053-.017-.053-.017-.053-.017-.052-.016-.053-.016-.053-.015-.052-.015-.052-.028-.105-.027-.105-.025-.104-.024-.104-.022-.104-.021-.104-.02-.105-.018-.104-.018-.104-.017-.105-.015-.104-.015-.105-.015-.106-.014-.106-.013-.105-.025-.214-.018-.156-.007-.06-.025-.218-.025-.221-.026-.224-.014-.113-.015-.115-.015-.115-.016-.116-.017-.117-.018-.118-.018-.12-.02-.12-.022-.122-.022-.123-.024-.124-.025-.125-.028-.127-.028-.128-.031-.129-.032-.131-.035-.132-.036-.134-.019-.067-.02-.068-.02-.069-.02-.067-.033-.112-.032-.112-.031-.113-.03-.115-.028-.115-.028-.117-.022-.1-.004-.018-.026-.119-.024-.12-.024-.121-.022-.122-.021-.123-.02-.124-.019-.124-.018-.126-.017-.126-.016-.127-.015-.128-.013-.128-.013-.129-.012-.13-.001-.016-.009-.114-.01-.13-.008-.131-.008-.132-.006-.132-.006-.132-.004-.132-.003-.133-.002-.133-.001-.133v-.134l.001-.133v-.051l.001-.083.003-.134.004-.133.005-.134.006-.133.007-.134.008-.133.009-.133.01-.133.011-.132.013-.133.012-.122.001-.009.014-.132.015-.131.016-.131.017-.13.018-.13.019-.129.02-.128.022-.128.022-.127.023-.126.024-.126.025-.125.002-.007.024-.117.027-.123.028-.122.029-.121.03-.121.031-.119.032-.118.026-.095.027-.095.027-.094.028-.094.028-.092.028-.092.029-.091.029-.09.029-.089.029-.089.03-.088.03-.087.031-.087.031-.086.031-.085.031-.085.032-.084.032-.083.032-.083.033-.082.033-.081.033-.081.034-.081.034-.079.034-.079.023-.053.011-.026.035-.078.035-.077.035-.077.036-.077.036-.076.036-.075.036-.075.037-.075.037-.074.037-.073.038-.073.038-.073.038-.072.039-.072.039-.072.039-.071.039-.07.04-.07.04-.07.04-.07.041-.069.04-.069.042-.068.041-.068.084-.136.085-.134.085-.134.088-.132.088-.131.089-.131.09-.13.079-.111.013-.018.092-.128.093-.128.095-.128.096-.127.096-.127.098-.127.098-.127.1-.126.101-.127.102-.127.102-.127.104-.127.105-.128.105-.127.107-.129.216-.259.22-.261.04-.048.41-.487.23-.275.234-.279.237-.286.119-.145.121-.147.041-.051.041-.052.04-.052.04-.052.039-.052.038-.053.038-.052.037-.053.037-.054.036-.053.035-.054.035-.054.034-.054.034-.054.033-.055.033-.054.032-.055.032-.056.031-.055.03-.056.031-.055.029-.056.029-.056.029-.057.028-.056.028-.057.028-.056.027-.057.026-.057.026-.058.026-.057.025-.058.05-.115.048-.116.046-.117.045-.117.044-.118.043-.118.041-.119.041-.118.039-.12.038-.119.038-.12.036-.121.036-.12.013-.042.022-.079.035-.121.033-.121.034-.122.032-.121.065-.244.063-.243.063-.244.063-.243.063-.244.064-.243.033-.121.033-.12.034-.121.034-.12.034-.121.036-.119.036-.12.037-.119.038-.119.039-.118.04-.118.041-.117.042-.117.043-.116.044-.116.046-.116.047-.114.009-.021.04-.094-.026-.067-.068.026z" style="fill:#9b5723" transform="scale(-1.8356 1.8356) rotate(-15 -79.297 374.85)"/><path d="m50.493 30.249-.005.103-.006.117-.01.223-.009.228-.008.231-.008.234-.007.238-.006.24-.006.244-.005.247-.005.249-.009.506-.018 1.04-.009.48-.001.052-.011.537-.006.271-.008.272-.007.273-.009.274-.009.275-.01.275-.011.276-.012.276-.013.276-.014.276-.016.277-.016.276-.019.276-.019.275-.011.138-.011.137-.011.137-.012.137-.012.137-.012.137-.013.136-.014.136-.014.136-.014.136-.004.038-.011.097-.016.135-.016.134-.016.134-.017.134-.018.134-.018.133-.019.132-.019.132-.02.132-.021.131-.021.131-.021.13-.023.13-.022.129-.024.129-.024.128-.025.127-.025.127-.027.127-.026.125-.028.125-.028.125-.029.123-.028.117-.002.006-.03.122-.032.122-.032.121-.033.12-.033.119-.035.118-.035.118-.036.117-.037.115-.037.115-.039.115-.039.113-.04.112-.041.112-.042.11-.043.11-.044.108-.044.108-.046.107-.046.105-.048.105-.048.103-.05.103-.05.101-.051.099-.043.084-.043.084-.042.084-.032.065-.009.02-.042.085-.041.086-.04.086-.04.086-.04.087-.039.088-.039.088-.038.088-.038.089-.037.089-.038.09-.036.09-.037.09-.035.091-.036.092-.035.091-.035.093-.034.092-.034.093-.034.093-.033.094-.033.094-.032.094-.032.095-.032.095-.031.095-.031.096-.031.096-.03.097-.03.096-.029.097-.029.098-.028.092-.001.005-.029.098-.028.098-.028.098-.055.198-.053.199-.052.2-.051.201-.05.201-.048.203-.011.047-.036.156-.047.204-.044.205-.044.205-.043.206-.041.207-.041.207-.026.139-.013.069-.039.208-.037.209-.037.208-.035.21-.035.209-.033.21-.033.209-.014.093-.018.117-.031.21-.03.21-.03.21-.028.21-.028.21-.027.209-.026.21-.026.209-.003.026-.022.183-.024.208-.024.208-.023.208-.022.207-.022.206-.021.206-.021.206-.02.204-.019.204-.019.203-.019.202-.036.401-.001.023-.001.034-.001.044v.118l.002.073.001.082.003.09.003.098.004.106.005.113.006.121.007.129.008.135.001.031.007.111.009.149.011.155.011.161.013.167.014.172.015.178.016.184.017.188.018.193.02.198.022.202.022.206.024.21.025.213.027.217.029.221.03.223.031.226.033.229.035.231.036.233.007.044.031.191.04.237.041.238.043.24.022.12.023.12.023.121.024.12.024.121.025.121.025.122.026.121.026.121.026.121.027.121.028.122.028.121.029.121.029.12.03.121.03.121.031.12.031.12.032.12.032.119.033.12.033.118.034.119.035.118.035.118.036.117.036.116.037.117.037.115.038.115.039.115.039.114.039.113.041.112.041.112.041.111.042.111.043.109.043.109.044.108.045.107.045.106.046.105.047.104.047.103.047.102.049.102.052.108.052.109.051.109.05.11.049.109.048.11.048.109.047.11.047.11.045.11.045.111.045.11.044.111.043.111.042.111.042.111.041.111.041.111.04.111.04.112.039.112.038.112.038.112.038.112.037.112.036.112.036.113.035.112.035.113.035.113.034.113.034.113.033.113.033.113.065.227.063.228.035.128.027.099.061.229.06.228.058.229.058.23.056.23.056.23.055.231.055.23.054.232.054.231.08.348.027.116-.038.063-.062-.039-.028-.116-.085-.346-.057-.231-.058-.23-.058-.23-.058-.229-.059-.229-.06-.229-.061-.228-.061-.228-.063-.227-.064-.226-.028-.099-.036-.128-.066-.225-.068-.225-.034-.113-.035-.112-.035-.112-.035-.112-.036-.112-.037-.111-.036-.112-.038-.111-.037-.111-.038-.111-.039-.111-.039-.111-.04-.111-.04-.11-.041-.11-.041-.11-.042-.11-.042-.11-.043-.11-.044-.109-.044-.109-.045-.11-.045-.109-.046-.108-.047-.109-.047-.108-.049-.108-.048-.108-.05-.108-.05-.108-.051-.107-.051-.108-.053-.107-.053-.107-.051-.102-.05-.103-.049-.104-.048-.106-.048-.106-.048-.107-.046-.108-.046-.109-.046-.109-.045-.111-.044-.111-.043-.112-.043-.113-.043-.113-.041-.114-.041-.115-.041-.115-.04-.116-.039-.117-.039-.117-.032-.1-.006-.017-.037-.118-.037-.119-.036-.118-.036-.12-.035-.119-.035-.12-.034-.121-.033-.12-.033-.121-.033-.121-.032-.121-.031-.122-.031-.121-.03-.122-.03-.122-.029-.122-.029-.122-.028-.122-.028-.122-.027-.121-.027-.122-.026-.122-.026-.121-.025-.122-.025-.121-.024-.121-.024-.121-.046-.241-.045-.239-.043-.238-.033-.192-.007-.045-.039-.234-.038-.232-.035-.23-.034-.227-.032-.225-.031-.222-.029-.218-.028-.215-.026-.211-.025-.207-.023-.203-.022-.199-.021-.194-.019-.189-.018-.185-.017-.179-.016-.174-.014-.168-.013-.162-.012-.156-.011-.15-.008-.112-.002-.031-.009-.137-.008-.13-.006-.122-.006-.115-.005-.108-.004-.1-.004-.091-.002-.084-.002-.075-.001-.067v-.108l.001-.042.002-.033.033-.405.017-.203.018-.204.018-.205.018-.206.02-.206.019-.207.021-.207.021-.209.021-.208.022-.21.023-.209.021-.184.003-.026.025-.211.025-.21.026-.211.027-.212.028-.211.029-.211.029-.212.031-.212.017-.118.014-.093.032-.212.034-.211.034-.211.036-.211.036-.211.038-.21.038-.21.013-.07.027-.14.041-.209.042-.209.044-.208.044-.208.046-.207.047-.206.037-.158.011-.048.05-.204.051-.204.052-.203.053-.203.055-.201.057-.2.028-.1.029-.099.03-.099.001-.005.029-.094.03-.099.031-.098.031-.098.031-.098.032-.097.032-.097.032-.097.033-.096.033-.096.034-.096.034-.095.034-.095.035-.095.035-.094.036-.094.036-.094.036-.093.037-.093.037-.092.038-.092.038-.092.039-.091.039-.091.039-.09.04-.09.04-.09.04-.089.042-.088.041-.088.042-.088.042-.087.043-.087.01-.02.034-.066.044-.086.044-.086.044-.084.051-.096.05-.097.048-.099.048-.099.047-.101.046-.102.045-.103.045-.103.043-.105.043-.107.042-.107.041-.108.04-.109.039-.11.039-.111.038-.112.037-.113.036-.114.036-.115.035-.115.034-.117.033-.117.033-.118.032-.119.031-.12.002-.006.029-.115.03-.121.029-.122.029-.123.028-.123.027-.124.027-.125.026-.126.025-.126.025-.126.024-.128.024-.128.023-.128.022-.129.022-.13.022-.13.02-.131.02-.131.02-.131.019-.132.019-.133.018-.132.018-.134.017-.133.012-.096.004-.038.017-.134.016-.135.015-.135.015-.135.014-.136.015-.136.013-.136.014-.136.012-.136.013-.137.024-.274.022-.274.021-.275.02-.275.018-.275.017-.275.016-.275.016-.275.014-.274.013-.274.013-.273.011-.273.011-.271.011-.27.02-.537.001-.052.018-.479.035-1.04.018-.506.01-.249.009-.247.01-.244.011-.241.011-.238.012-.234.012-.231.013-.228.014-.224.008-.117.007-.103.054-.048.048.054z" style="fill:#9b5723" transform="rotate(15 228.463 -37.374) scale(1.8356)"/><path d="m50.16 30.867-.007.101-.008.118-.013.223-.012.225-.011.229-.011.23-.009.234-.008.235-.008.238-.007.24-.007.243-.006.244-.006.246-.011.497-.01.503-.01.508v.013l-.01.499-.006.258-.007.258-.006.26-.008.259-.008.26-.009.261-.01.26-.01.261-.012.261-.013.26-.014.261-.016.26-.017.26-.018.259-.01.129-.01.129-.01.129-.011.129-.012.129-.012.128-.012.128-.013.128-.013.128-.014.127-.014.127-.015.127-.008.068-.007.058-.015.126-.016.126-.017.125-.017.125-.018.125-.018.124-.019.124-.02.123-.02.123-.021.122-.021.122-.022.122-.023.121-.023.12-.024.12-.025.119-.025.119-.026.118-.027.118-.027.117-.029.116-.029.116-.029.115-.031.115-.031.114-.009.033-.023.08-.032.113-.034.111-.034.112-.035.11-.036.11-.037.108-.037.109-.039.107-.039.106-.04.106-.041.105-.042.104-.043.103-.044.103-.044.101-.046.101-.047.099-.047.099-.049.098-.049.097-.051.096-.044.084-.044.086-.044.085-.044.087-.043.086-.042.088-.042.087-.042.088-.007.016-.034.073-.041.089-.04.089-.04.09-.039.091-.039.091-.039.091-.038.091-.037.092-.037.093-.037.092-.037.094-.036.093-.035.094-.035.094-.035.095-.035.095-.034.096-.033.095-.034.096-.032.097-.033.096-.032.097-.032.098-.031.097-.031.098-.031.099-.03.098-.03.099-.029.099-.03.1-.029.099-.018.066-.038.134-.055.202-.053.202-.053.203-.051.204-.049.205-.049.205-.044.195-.003.011-.046.207-.044.208-.043.208-.043.209-.041.209-.04.21-.039.21-.01.056-.027.154-.037.211-.035.211-.034.211-.034.211-.032.212-.032.211-.029.199-.002.013-.029.211-.029.212-.027.211-.027.211-.027.211-.025.211-.025.211-.024.21-.012.11-.011.099-.022.21-.021.208-.021.208-.021.208-.019.207-.02.206-.018.206-.018.205-.018.204-.017.203-.033.405-.002.033-.001.042v.108l.001.067.002.075.002.084.004.091.004.1.005.108.006.115.007.122.007.13.009.137.01.143.009.13.002.02.012.156.013.162.014.168.016.174.017.179.018.185.019.189.021.194.022.199.023.203.025.207.026.212.028.214.029.219.031.221.032.225.034.227.035.23.038.232.039.235.04.236.043.238.045.239.046.241.024.121.024.121.025.121.025.122.026.121.026.122.027.122.027.122.028.122.028.121.029.122.029.122.03.122.03.122.031.121.031.122.032.121.033.121.033.121.033.121.034.12.035.12.035.119.036.12.036.119.037.118.038.118.038.118.038.117.04.116.039.116.041.115.041.115.042.114.042.114.043.112.043.112.045.111.044.111.046.11.046.108.047.108.047.107.048.107.049.105.049.104.05.103.05.102.054.107.052.108.052.107.051.107.05.108.049.108.049.108.048.108.047.108.047.109.046.109.046.109.045.109.044.109.043.109.043.11.043.11.042.11.041.11.041.11.04.11.039.111.04.111.038.111.038.111.038.111.037.111.037.112.036.111.036.112.036.112.035.112.034.112.035.113.067.225.066.226.047.163.018.063.064.226.062.227.062.228.061.228.06.229.059.229.058.229.058.23.058.23.057.231.085.347.028.115.062.039.038-.063-.026-.115-.081-.349-.054-.231-.054-.232-.054-.231-.056-.23-.056-.23-.056-.23-.058-.23-.058-.229-.06-.228-.06-.229-.017-.063-.045-.164-.064-.228-.064-.227-.033-.113-.034-.113-.033-.113-.035-.113-.034-.113-.035-.113-.036-.112-.036-.113-.036-.112-.037-.112-.037-.113-.038-.112-.039-.111-.039-.112-.039-.112-.04-.111-.041-.111-.041-.112-.042-.111-.043-.111-.043-.11-.044-.111-.044-.11-.045-.111-.046-.11-.046-.11-.047-.11-.048-.11-.049-.109-.049-.11-.05-.109-.051-.109-.051-.109-.052-.108-.049-.102-.048-.102-.047-.103-.046-.104-.046-.106-.045-.106-.045-.107-.044-.108-.043-.108-.043-.11-.042-.11-.042-.111-.041-.112-.04-.112-.04-.114-.039-.113-.038-.115-.038-.115-.037-.116-.03-.092-.007-.024-.036-.117-.036-.117-.035-.117-.035-.118-.034-.119-.033-.119-.033-.119-.032-.119-.032-.12-.032-.12-.03-.121-.03-.12-.03-.121-.029-.121-.029-.121-.028-.121-.028-.121-.027-.121-.026-.121-.026-.122-.026-.121-.025-.121-.025-.121-.024-.121-.024-.121-.023-.12-.023-.12-.022-.121-.043-.239-.041-.238-.04-.237-.001-.009-.037-.226-.036-.233-.035-.231-.033-.229-.031-.226-.03-.224-.029-.22-.027-.217-.025-.213-.024-.21-.022-.206-.022-.202-.019-.198-.019-.193-.017-.188-.016-.184-.015-.178-.014-.172-.012-.167-.012-.161-.01-.155-.002-.02-.008-.129-.009-.142-.007-.135-.007-.129-.006-.121-.005-.113-.004-.106-.003-.098-.003-.09-.001-.082-.002-.073v-.118l.001-.044.001-.034.001-.023.036-.4.019-.203.019-.203.019-.204.02-.204.021-.206.021-.206.022-.206.022-.207.023-.208.024-.208.012-.099.012-.109.025-.209.025-.209.027-.21.027-.209.027-.21.029-.21.029-.21.031-.21.002-.013.029-.197.031-.21.033-.209.034-.21.034-.209.036-.21.036-.208.028-.153.01-.056.038-.208.039-.208.04-.207.042-.207.043-.206.043-.205.045-.205.003-.011.043-.193.047-.203.048-.203.05-.202.051-.2.052-.2.054-.199.036-.133.018-.065.028-.098.028-.098.029-.098.028-.098.029-.097.03-.097.03-.097.03-.096.031-.096.031-.096.031-.095.032-.096.032-.094.032-.095.033-.094.033-.093.034-.094.034-.092.034-.093.035-.092.035-.092.035-.091.036-.091.036-.091.037-.09.037-.089.038-.09.038-.088.038-.089.039-.088.039-.087.033-.072.007-.015.04-.087.04-.086.041-.086.041-.085.041-.085.042-.084.043-.084.043-.084.051-.099.05-.101.049-.102.049-.102.047-.104.046-.104.045-.105.044-.106.043-.107.042-.108.041-.108.04-.109.039-.11.039-.11.037-.112.037-.112.035-.112.035-.114.034-.114.033-.114.032-.116.022-.081.009-.035.031-.116.029-.117.029-.118.028-.118.027-.119.027-.12.025-.12.025-.12.024-.121.024-.122.023-.122.022-.122.021-.123.021-.123.02-.124.02-.124.018-.125.018-.125.018-.126.017-.125.016-.126.016-.127.015-.127.015-.127.014-.127.006-.059.008-.069.012-.128.013-.128.012-.129.011-.129.011-.129.01-.129.01-.129.01-.13.009-.13.008-.13.009-.13.007-.13.015-.261.013-.261.011-.262.01-.262.009-.261.008-.262.007-.262.006-.261.005-.262.004-.26.003-.261.003-.259.002-.259.002-.258.003-.5v-.013l.001-.509.001-.503.002-.496.002-.246.001-.244.003-.242.003-.24.003-.237.005-.236.005-.232.006-.231.007-.228.008-.225.01-.222.006-.118.004-.101-.048-.055-.054.049z" style="fill:#9b5723" transform="scale(-1.8356 1.8356) rotate(-15 -72.832 371.812)"/><path d="m52.045 35.124-.003.099-.005.151-.009.25-.009.25-.01.249-.02.498-.021.497-.021.496-.02.496-.009.248-.009.248-.008.247-.007.248-.007.231v.016l-.006.248-.005.247-.005.248-.003.247-.001.248-.001.247.001.248.002.248.002.124.002.124.003.124.003.124.004.124.004.124.004.125.005.124.005.124.006.125.006.124.007.125.008.124.008.125.012.174.013.174.014.174.014.173.016.174.016.174.018.174.017.173.019.174.019.173.013.113.007.061.02.174.021.173.021.174.022.173.022.174.045.347.046.347.047.347.048.348.095.694.009.062.038.286.046.348.045.348.022.175.021.174.022.174.02.175.02.174.02.175.019.174.018.175.018.175.016.175.017.175.015.175.007.089.007.087.014.175.012.176.011.175.011.176.009.176.008.176.007.176.006.176.005.177.004.177.002.176.001.177-.001.177-.002.177-.003.178-.005.177-.007.178-.003.084-.001.013-.004.071-.005.083-.005.084-.006.083-.007.084-.007.083-.007.083-.008.083-.009.082-.009.083-.009.083-.01.082-.01.082-.011.082-.011.082-.012.082-.012.082-.025.163v.001l-.026.162-.029.163-.029.162-.031.162-.032.161-.033.161-.034.161-.035.161-.036.16-.009.039-.028.12-.038.16-.038.159-.039.159-.039.159-.08.317-.081.317-.04.157-.123.474-.081.316-.04.157-.039.158-.039.157-.039.158-.038.158-.032.136-.005.021-.037.158-.035.158-.035.158-.034.158-.033.158-.031.158-.031.159-.029.158-.027.159-.027.159-.024.16-.012.079-.012.08-.01.08-.011.08-.01.08-.01.08-.009.08-.009.081-.008.08-.008.08-.007.081-.007.081-.006.08-.006.081-.005.081-.005.081-.004.081-.004.081-.003.082-.002.081-.002.081-.002.082v.246l.001.082.002.111.003.111.004.111.005.112.005.111.006.111.007.111.008.11.008.111.009.111.01.111.01.111.01.11.012.111.012.111.012.111.013.11.013.111.014.11.014.111.03.221.03.221.033.221.033.222.034.221.035.221.07.443.02.124.051.319.035.222.035.223.034.222.033.223.032.222.03.224.03.223.014.112.013.112.014.112.012.112.013.112.011.112.011.113.011.112.01.113.009.112.014.17.012.169.012.169.012.169.01.169.011.169.005.093.004.076.009.169.008.168.008.169.008.169.006.168.007.169.005.168.005.168.005.169.004.168.004.168.003.168.003.168.002.168.002.168.002.168.001.168v.336l-.001.336-.002.335-.004.336-.005.335-.006.336-.008.335-.009.336-.01.335-.011.336-.012.336-.008.199-.005.136-.014.336-.015.336-.015.336-.016.337-.017.336-.017.337-.029.559-.006.115-.053.05-.049-.054.004-.115.021-.56.012-.337.011-.336.011-.337.01-.336.01-.336.009-.335.003-.136.005-.2.008-.335.006-.336.006-.335.004-.335.003-.335.002-.335.001-.334-.001-.335-.002-.335-.004-.335-.002-.167-.003-.167-.003-.168-.004-.167-.004-.168-.005-.167-.005-.168-.005-.167-.006-.168-.007-.167-.006-.168-.008-.167-.008-.168-.008-.168-.009-.167-.01-.168-.01-.168-.01-.168-.012-.168-.005-.075-.006-.093-.013-.168-.012-.168-.014-.168-.014-.168-.014-.168-.015-.168-.011-.111-.011-.112-.012-.11-.012-.111-.013-.111-.014-.111-.014-.111-.014-.111-.015-.11-.015-.111-.032-.221-.033-.221-.034-.222-.036-.221-.036-.221-.037-.221-.038-.221-.055-.318-.021-.124-.075-.443-.037-.221-.037-.222-.036-.222-.034-.222-.034-.223-.032-.223-.015-.111-.015-.112-.015-.112-.014-.112-.014-.112-.013-.112-.013-.112-.012-.112-.011-.112-.011-.113-.01-.112-.01-.113-.009-.113-.008-.113-.007-.113-.007-.113-.006-.113-.005-.114-.004-.113-.004-.114v-.021l-.001-.064-.002-.084v-.169l.001-.084.001-.084.002-.084.002-.083.004-.084.003-.083.004-.083.005-.084.005-.083.006-.083.007-.082.006-.083.008-.083.008-.082.008-.082.009-.083.009-.082.01-.082.01-.081.01-.082.011-.082.012-.082.024-.162.025-.163.027-.162.029-.162.029-.161.031-.161.032-.161.033-.161.034-.16.035-.16.036-.16.005-.021.032-.138.037-.159.038-.159.039-.159.039-.159.039-.159.08-.316.12-.475.04-.158.08-.315.079-.316.039-.158.038-.158.038-.158.037-.158.027-.119.009-.039.036-.158.035-.158.033-.159.033-.158.032-.159.03-.159.03-.159.027-.159.027-.16.025-.16.012-.08.012-.08.011-.08.011-.08.01-.081.01-.08.01-.08.009-.081.008-.08.008-.081.008-.081.007-.081.007-.081.006-.081.006-.081.005-.081.004-.069v-.013l.005-.081.007-.175.006-.174.005-.174.003-.175.002-.174v-.174l-.001-.174-.002-.174-.004-.174-.004-.174-.006-.174-.007-.174-.008-.174-.009-.174-.01-.173-.011-.174-.012-.174-.006-.086-.007-.088-.013-.173-.014-.174-.015-.174-.016-.174-.016-.173-.017-.174-.018-.174-.018-.173-.018-.174-.02-.174-.019-.173-.02-.174-.041-.348-.043-.347-.035-.286-.008-.062-.086-.696-.043-.348-.043-.348-.042-.349-.04-.348-.02-.175-.02-.174-.019-.175-.018-.174-.018-.175-.006-.061-.011-.114-.017-.175-.016-.175-.015-.175-.015-.175-.013-.175-.013-.175-.012-.175-.012-.176-.01-.175-.009-.175-.006-.126-.006-.126-.005-.125-.004-.126-.004-.125-.004-.126-.002-.125-.003-.125-.002-.125-.001-.125-.002-.125v-.374l.001-.249.003-.249.005-.249.005-.248.007-.249.008-.248.01-.248.01-.248v-.016l.011-.232.012-.248.013-.248.013-.247.014-.248.028-.496.03-.496.03-.497.029-.497.015-.249.013-.249.014-.249.008-.151.005-.099.053-.049.049.053z" style="fill:#9b5723" transform="rotate(15 241.37 -39.69) scale(1.8356)"/><defs><linearGradient id="a" x1="0" x2="1" y1="0" y2="0" gradientTransform="rotate(-90.917 60.802 9.02) scale(41.66084)" gradientUnits="userSpaceOnUse"><stop offset="0" style="stop-color:#ffd07d;stop-opacity:1"/><stop offset=".47" style="stop-color:#f6c676;stop-opacity:1"/><stop offset=".64" style="stop-color:#e2ae66;stop-opacity:1"/><stop offset=".79" style="stop-color:#cd9656;stop-opacity:1"/><stop offset=".83" style="stop-color:#b97d42;stop-opacity:1"/><stop offset=".88" style="stop-color:#a4632d;stop-opacity:1"/><stop offset="1" style="stop-color:#9b5723;stop-opacity:1"/></linearGradient></defs></svg>