<svg xmlns="http://www.w3.org/2000/svg" style="fill-rule:evenodd;clip-rule:evenodd;stroke-linejoin:round;stroke-miterlimit:1.41421" viewBox="0 0 128 128" xml:space="preserve"><ellipse cx="64" cy="45.9" rx="42" ry="39.5" style="fill:#bfa055" transform="translate(58.396 2.007) scale(.4909)"/><path d="M77.772 62.39h7.4v22.106h-7.4z" style="fill:#e0bb95" transform="matrix(.9592 -.34893 .41171 1.13177 -48.606 19.028)"/><circle cx="78.29" cy="84.276" r="3.7" style="fill:#e0bb95" transform="rotate(-19.99 72.712 130.327) scale(1.0207)"/><path d="M77.772 62.39h7.4v22.106h-7.4z" style="fill:#e0bb95" transform="matrix(.9993 .20794 -.24536 1.17908 -45.378 -29.268)"/><circle cx="78.29" cy="84.276" r="3.7" style="fill:#e0bb95" transform="rotate(11.755 41.392 -227.134) scale(1.0207)"/><path d="M35.98 49.81c3.62-.01 7.982.759 10.59 1.85 7.207 3.016 10.693 6.25 11.65 12.34l-22.24 3.839V49.81z" style="fill:#da4105;fill-rule:nonzero" transform="translate(1.467 -2.007) scale(1.0207)"/><path d="M35.98 49.81c3.62-.01 7.982.759 10.59 1.85 7.207 3.016 10.693 6.25 11.65 12.34l-22.24 3.839V49.81z" style="fill:#da4105;fill-rule:nonzero" transform="matrix(-1.0207 0 0 1.0207 74.916 -2.007)"/><path d="M22.15 81.9h10.71v45.72H22.15z" style="fill:#819b8a" transform="translate(1.467 -2.65) scale(1.0207)"/><path d="M34.26 128h-13.5v-3.5c0-2.21 1.79-4 4-4h5.5c2.21 0 4 1.79 4 4v3.5z" style="fill:#444;fill-rule:nonzero" transform="translate(1.467 -2.65) scale(1.0207)"/><path d="M39.037 81.887h10.71v45.72h-10.71z" style="fill:#819b8a" transform="translate(1.467 -2.65) scale(1.0207)"/><path d="M37.64 128h13.5v-3.5c0-2.21-1.79-4-4-4h-5.5c-2.21 0-4 1.79-4 4v3.5z" style="fill:#444;fill-rule:nonzero" transform="translate(1.467 -2.65) scale(1.0207)"/><path d="M35.98 57.47c-2.92 0-5.29-2.37-5.29-5.29v-4.52h10.58v4.52c0 2.92-2.37 5.29-5.29 5.29z" style="fill:#e0bb95;fill-rule:nonzero" transform="translate(1.467 -2.65) scale(1.0207)"/><path d="M41.28 51.74s-2.02.82-5.29.82-5.3-.72-5.3-.72v-5.19c0-1.39.92-2.89 2.31-2.89h5.98c1.39 0 2.3 1.41 2.3 2.8v5.18zm10.61-22.03s2.92.51 2.92 3.65c0 2.77-2.13 3.87-4.26 3.87v-7.51h1.34v-.01zm-31.82 0s-2.92.51-2.92 3.65c0 2.77 2.13 3.87 4.26 3.87v-7.51h-1.34v-.01z" style="fill:#c48e6a;fill-rule:nonzero" transform="translate(1.467 -2.65) scale(1.0207)"/><path d="M35.98 9.13c-12.57 0-15.86 9.75-15.86 23.44 0 14.2 10.772 17.87 15.86 17.87 5.088 0 15.86-3.57 15.86-17.87.01-13.69-3.28-23.44-15.86-23.44z" style="fill:#e0bb95;fill-rule:nonzero" transform="translate(1.467 -2.65) scale(1.0207)"/><path d="M30.76 33.84c0 1.41-.95 2.56-2.12 2.56-1.17 0-2.12-1.15-2.12-2.56 0-1.42.95-2.56 2.12-2.56 1.17 0 2.12 1.15 2.12 2.56m10.44 0c0 1.41.95 2.56 2.12 2.56 1.17 0 2.12-1.15 2.12-2.56 0-1.42-.95-2.56-2.12-2.56-1.17 0-2.12 1.15-2.12 2.56" style="fill:#444;fill-rule:nonzero" transform="translate(1.467 -2.65) scale(1.0207)"/><path d="M40.57 42.49h-9.18c-.53 0-.75.35-.4.88.49.74 2.3 2.17 5 2.17s4.51-1.43 5-2.17c.34-.52.11-.88-.42-.88z" style="fill:#513f35;fill-rule:nonzero" transform="translate(1.467 -2.65) scale(1.0207)"/><path d="M38.2 38.59c-.78.22-1.59.33-2.22.33-.63 0-1.44-.11-2.22-.33-.33-.09-.47.22-.35.43.25.44 1.25 1.32 2.56 1.32 1.32 0 2.32-.88 2.56-1.32.14-.21 0-.52-.33-.43z" style="fill:#c48e6a;fill-rule:nonzero" transform="translate(1.467 -2.65) scale(1.0207)"/><path d="M36.36 7.34s-.25-.01-.35-.01c-.11 0-.35.01-.35.01-9.958.198-14.214 6.676-16.14 9.481-3.809 5.547-1.51 14.149-1.51 14.149s.22-.22.61-.53c.42-.33.9-.52.9-.52-.781 2.546-.923 7.262 0 9.331 3.604-3.561 5.33-11.27 5.21-16.926 8.082-1.941 19.41-.808 22.56 0 .634 9.674 3.278 15.306 5.21 16.926 1.162-1.961.628-6.496 0-9.331 0 0 .47.19.9.52a6 6 0 0 1 .61.53s2.104-6.629-1.51-14.149c-1.569-3.265-6.615-9.211-16.14-9.481z" style="fill:#bfa055;fill-rule:nonzero" transform="translate(1.467 -2.65) scale(1.0207)"/><path d="M49.75 81.9h-27.6v15.54h10.71v-.9a2.402 2.402 0 0 1 2.39-2.39h1.4a2.402 2.402 0 0 1 2.39 2.39v.9h10.71V81.9z" style="fill:#819b8a;fill-rule:nonzero" transform="translate(1.467 -2.65) scale(1.0207)"/><path d="M78.057 61.041c-.147 9.27-.038 18.547.422 27.835h-14.51V61.041h14.088zm-28.143 0h14.055v27.835H49.492c.46-9.288.569-18.565.422-27.835z" style="fill:#da4105" transform="translate(-25.809)"/><path d="M50.732 19.403c2.138 1.047 4.363 1.948 6.094 3.666.68.673 1.253 1.481 1.792 2.266.144.209.489.951.718 1.047.08.033.381-.407.412-.452a7.25 7.25 0 0 0 .959-1.986c.713-2.315-.064-4.867-1.464-6.801" style="fill:#bfa055" transform="translate(-25.809)"/><path d="M59.089 18.574c.714.242 1.429.524 2.173.66 1.113.203 2.234.249 3.324.585 1.683.518 3.185 1.447 4.863 1.967 1.154.358 2.385.413 3.584.452 1.385.045 3.835-2.843 5.019-3.664" style="fill:#bfa055" transform="translate(-25.809)"/><path d="M63.161 19.424c1.698.742 3.008 1.966 4.247 3.324.377.413.703.862 1.03 1.314.114.158.228.317.34.477l.177.239c.172-.157.149-.808.13-1.032-.084-.983-.393-1.937-.711-2.864" style="fill:#bfa055" transform="translate(-24.033 .138)"/><path d="M51.703 10.229c-.505.275-.91.67-1.391.979-.978.629-2.123 1.273-3.191 1.708-.695.283-1.4.574-2.108.817-.086.03-.642.199-.642.199.006.039.186.111.22.13.255.142.532.248.813.328 1.112.314 2.567.632 3.709.315" style="fill:#bfa055" transform="rotate(-8.945 34.531 173.348)"/><path d="M70.035 6.114c1.841 0 4.022.619 5.622 1.535.411.235.784.496 1.154.791.076.061.357.216.382.309.029.104-.215-.016-.323-.025-.155-.013-.312-.024-.467-.044a26.136 26.136 0 0 0-2.103-.195c-.09-.004-.354-.047-.27-.013 1.688.686 3.273 1.148 4.758 2.27.328.248.597.553.855.87.089.11.181.217.258.336.049.075.231.215.143.225-.201.023-.453-.112-.656-.159a17.317 17.317 0 0 0-1.645-.307c-.24-.031-.48-.055-.721-.077-.11-.01-.391-.098-.331-.006.708 1.074 2.313 1.57 3.317 2.317.512.382.799.965 1.1 1.51.152.275.401.659.431.976.005.057-.115-.002-.172-.007a6.398 6.398 0 0 1-.401-.048c-.479-.07-.95-.183-1.428-.26-.077-.013-.39-.103-.451-.065-.043.027.273.431.28.439.422.5.999.83 1.445 1.304 1.053 1.121 2.658 2.783 2.826 4.394.014.129-.201-.164-.306-.239-.205-.147-.422-.275-.633-.413-.778-.51-1.464-1.118-2.359-1.413-.071-.024-.814-.245-.86-.098-.166.524.515 1.493.809 1.888.757 1.022 1.631 1.949 2.43 2.94.369.457.959 1.068 1.027 1.685.005.054-.099-.045-.147-.069a2.574 2.574 0 0 1-.381-.219 5.367 5.367 0 0 1-.764-.664c-.774-.824-1.472-1.734-2.257-2.544" style="fill:#bfa055" transform="translate(-25.596 .555)"/><path d="M55.928 7.04c-1.062.554-2.048 1.273-3.214 1.591-.27.073-.758.253-1.038.19-.615-.139-.871-.959-1.438-1.068-.214-.041-.301.281-.286.407.044.371.224.733.416 1.047.532.87 1.393 1.189 2.331 1.465m-5.719 7.005c-.773 1.482-1.968 2.738-2.439 4.376a8.728 8.728 0 0 0-.227 1.023 9.578 9.578 0 0 0-.065.446c-.007.062-.079.196-.018.186.215-.034.562-.475.742-.625.569-.477 1.113-1.01 1.784-1.344m24.56.299c.735.127 1.414.425 2.046.818.222.137.602.521.852.559.103.016-.111-.176-.16-.268a3.777 3.777 0 0 1-.228-.545c-.181-.534-.212-1.173-.593-1.616" style="fill:#bfa055" transform="translate(-25.809)"/><path d="M77.772 62.39h7.4v22.106h-7.4z" style="fill:#e0bb95" transform="matrix(-.9592 -.34893 -.41171 1.13177 176.606 19.028)"/><circle cx="78.29" cy="84.276" r="3.7" style="fill:#e0bb95" transform="scale(-1.0207 1.0207) rotate(-20 8.535 483.468)"/><path d="M77.772 62.39h7.4v22.106h-7.4z" style="fill:#e0bb95" transform="matrix(-.9993 .20794 .24536 1.17908 173.376 -29.268)"/><circle cx="78.29" cy="84.276" r="3.7" style="fill:#e0bb95" transform="matrix(-.9993 .20794 .20794 .9993 173.403 -13.196)"/><path d="M35.98 49.81c3.62-.01 7.982.759 10.59 1.85 7.207 3.016 10.693 6.25 11.65 12.34l-22.24 3.839V49.81z" style="fill:#da4105;fill-rule:nonzero" transform="matrix(-1.0207 0 0 1.0207 126.534 -2.007)"/><path d="M35.98 49.81c3.62-.01 7.982.759 10.59 1.85 7.207 3.016 10.693 6.25 11.65 12.34l-22.24 3.839V49.81z" style="fill:#da4105;fill-rule:nonzero" transform="translate(53.084 -2.007) scale(1.0207)"/><path d="M22.15 81.9h10.71v45.72H22.15z" style="fill:#819b8a" transform="matrix(-1.0207 0 0 1.0207 126.535 -2.65)"/><path d="M34.26 128h-13.5v-3.5c0-2.21 1.79-4 4-4h5.5c2.21 0 4 1.79 4 4v3.5z" style="fill:#444;fill-rule:nonzero" transform="matrix(-1.0207 0 0 1.0207 126.535 -2.65)"/><path d="M39.037 81.887h10.71v45.72h-10.71z" style="fill:#819b8a" transform="matrix(-1.0207 0 0 1.0207 126.535 -2.65)"/><path d="M37.64 128h13.5v-3.5c0-2.21-1.79-4-4-4h-5.5c-2.21 0-4 1.79-4 4v3.5z" style="fill:#444;fill-rule:nonzero" transform="matrix(-1.0207 0 0 1.0207 126.535 -2.65)"/><path d="M35.98 57.47c-2.92 0-5.29-2.37-5.29-5.29v-4.52h10.58v4.52c0 2.92-2.37 5.29-5.29 5.29z" style="fill:#e0bb95;fill-rule:nonzero" transform="matrix(-1.0207 0 0 1.0207 126.535 -2.65)"/><path d="M41.28 51.74s-2.02.82-5.29.82-5.3-.72-5.3-.72v-5.19c0-1.39.92-2.89 2.31-2.89h5.98c1.39 0 2.3 1.41 2.3 2.8v5.18zm10.61-22.03s2.92.51 2.92 3.65c0 2.77-2.13 3.87-4.26 3.87v-7.51h1.34v-.01zm-31.82 0s-2.92.51-2.92 3.65c0 2.77 2.13 3.87 4.26 3.87v-7.51h-1.34v-.01z" style="fill:#c48e6a;fill-rule:nonzero" transform="matrix(-1.0207 0 0 1.0207 126.535 -2.65)"/><path d="M35.98 9.13c-12.57 0-15.86 9.75-15.86 23.44 0 14.2 10.772 17.87 15.86 17.87 5.088 0 15.86-3.57 15.86-17.87.01-13.69-3.28-23.44-15.86-23.44z" style="fill:#e0bb95;fill-rule:nonzero" transform="matrix(-1.0207 0 0 1.0207 126.535 -2.65)"/><path d="M30.76 33.84c0 1.41-.95 2.56-2.12 2.56-1.17 0-2.12-1.15-2.12-2.56 0-1.42.95-2.56 2.12-2.56 1.17 0 2.12 1.15 2.12 2.56m10.44 0c0 1.41.95 2.56 2.12 2.56 1.17 0 2.12-1.15 2.12-2.56 0-1.42-.95-2.56-2.12-2.56-1.17 0-2.12 1.15-2.12 2.56" style="fill:#444;fill-rule:nonzero" transform="matrix(-1.0207 0 0 1.0207 126.535 -2.65)"/><path d="M40.57 42.49h-9.18c-.53 0-.75.35-.4.88.49.74 2.3 2.17 5 2.17s4.51-1.43 5-2.17c.34-.52.11-.88-.42-.88z" style="fill:#513f35;fill-rule:nonzero" transform="matrix(-1.0207 0 0 1.0207 126.535 -2.65)"/><path d="M38.2 38.59c-.78.22-1.59.33-2.22.33-.63 0-1.44-.11-2.22-.33-.33-.09-.47.22-.35.43.25.44 1.25 1.32 2.56 1.32 1.32 0 2.32-.88 2.56-1.32.14-.21 0-.52-.33-.43z" style="fill:#c48e6a;fill-rule:nonzero" transform="matrix(-1.0207 0 0 1.0207 126.535 -2.65)"/><path d="M49.75 81.9h-27.6v15.54h10.71v-.9a2.402 2.402 0 0 1 2.39-2.39h1.4a2.402 2.402 0 0 1 2.39 2.39v.9h10.71V81.9z" style="fill:#819b8a;fill-rule:nonzero" transform="matrix(-1.0207 0 0 1.0207 126.535 -2.65)"/><path d="M78.057 61.041c-.147 9.27-.038 18.547.422 27.835h-14.51V61.041h14.088zm-28.143 0h14.055v27.835H49.492c.46-9.288.569-18.565.422-27.835z" style="fill:#da4105" transform="matrix(-1 0 0 1 153.81 0)"/><path d="M73.07 34.21c-3.23 3.11-19.29 17.58-41.42 21.35V25.9S41.2 6.95 64.12 6.95c22.92 0 32.48 19.43 32.48 19.43v29.19S81.58 49.81 74.04 34.4a.607.607 0 0 0-.97-.19z" style="fill:#bfa055;fill-rule:nonzero" transform="matrix(.49085 0 0 .39322 58.396 2.686)"/></svg>