<svg xmlns="http://www.w3.org/2000/svg" xmlns:xlink="http://www.w3.org/1999/xlink" viewBox="0 0 128 128"><path fill="#fdcf25" d="M62.209 28.286c-5.695 0-13.328 3.425-17.116 7.678l-32.271 36.23c-1.894 2.126-1.847 3.57-1.835 5.433v28.571c0 1.52 2.429 2.244 5.276 2.244H64.93c5.695 0 13.33-3.425 17.118-7.678l32.27-36.23c1.893-2.126 1.71-2.859 1.834-5.433v-28.57c0-1.522-2.429-2.245-5.276-2.245z" paint-order="stroke fill markers"/><rect width="69.225" height="69.078" x="77.123" y="37.88" fill="#e3cd31" paint-order="stroke fill markers" rx="10.28" transform="skewX(-41.692) scale(1 .74673)"/><rect width="69.225" height="69.078" x="77.123" y="37.88" fill="#ffe215" paint-order="stroke fill markers" rx="10.28" transform="skewX(-41.692) scale(1 .74673)"/><ellipse id="a" cx="29.914" cy="70.425" fill-opacity=".22" stroke-linecap="round" stroke-linejoin="round" stroke-width="10" paint-order="stroke fill markers" rx="6.338" ry="3.794"/><use width="100%" height="100%" fill-opacity=".22" stroke-width=".876" transform="rotate(2.609 898.405 447.73) scale(1.1418)" xlink:href="#a"/><use width="100%" height="100%" fill-opacity=".22" stroke-width="1.233" transform="rotate(-1.844 24.156 -1421.579) scale(.81074)" xlink:href="#a"/><use width="100%" height="100%" fill-opacity=".22" stroke-width="1.156" transform="matrix(.86415 -.036 .036 .86415 31.62 -26.4)" xlink:href="#a"/><use width="100%" height="100%" fill-opacity=".22" stroke-width=".807" transform="rotate(1.523 1979.228 2425.193) scale(1.23867)" xlink:href="#a"/><use width="100%" height="100%" fill-opacity=".22" stroke-width="1.41" transform="rotate(-2.396 -314.687 -1447.693) scale(.70924)" xlink:href="#a"/><use width="100%" height="100%" fill-opacity=".22" stroke-width=".793" transform="matrix(1.25997 -.03418 .03418 1.25997 46.356 -40.918)" xlink:href="#a"/><use width="100%" height="100%" fill-opacity=".22" stroke-width="1.468" transform="rotate(2.422 -337.492 1472.092) scale(.68143)" xlink:href="#a"/><use width="100%" height="100%" fill-opacity=".22" stroke-width="1.507" transform="matrix(.6637 .00449 -.00449 .6637 19.128 28.086)" xlink:href="#a"/><use width="100%" height="100%" fill-opacity=".22" stroke-width="1.584" transform="rotate(-2.92 487.176 -395.142) scale(.6314)" xlink:href="#a"/><use width="100%" height="100%" fill-opacity=".22" stroke-width="1.476" transform="matrix(.67737 -.01452 .01452 .67737 14.827 10.983)" xlink:href="#a"/><use width="100%" height="100%" fill-opacity=".22" stroke-width=".956" transform="rotate(2.004 792.504 1022.544) scale(1.04596)" xlink:href="#a"/><use width="100%" height="100%" fill-opacity=".22" stroke-width="1.375" transform="matrix(.7274 -.00956 .00956 .7274 50.82 21.64)" xlink:href="#a"/><use width="100%" height="100%" fill-opacity=".22" stroke-width=".983" transform="rotate(-.508 -816.113 -2511.815) scale(1.01711)" xlink:href="#a"/><use width="100%" height="100%" fill-opacity=".22" stroke-width="1.32" transform="rotate(.716 -941.45 3499.855) scale(.75777)" xlink:href="#a"/><use width="100%" height="100%" fill-opacity=".22" stroke-width="1.231" transform="rotate(3.12 405.235 923.527) scale(.81253)" xlink:href="#a"/><use width="100%" height="100%" fill-opacity=".22" stroke-width="1.394" transform="matrix(.71747 .002 -.002 .71747 -1.358 25.13)" xlink:href="#a"/><use width="100%" height="100%" fill-opacity=".22" stroke-width="1.351" transform="rotate(-.988 85.868 -1851.74) scale(.74006)" xlink:href="#a"/><use width="100%" height="100%" fill-opacity=".22" stroke-width=".747" transform="rotate(-2.881 -353.719 -206.22) scale(1.33956)" xlink:href="#a"/><use width="100%" height="100%" fill-opacity=".22" stroke-width="1.22" transform="rotate(2.34 211.662 517.056) scale(.81965)" xlink:href="#a"/><use width="100%" height="100%" fill-opacity=".22" stroke-width="1.449" transform="rotate(3.461 -86.877 1169.052) scale(.69022)" xlink:href="#a"/><ellipse id="b" cx="15.797" cy="84.457" fill-opacity=".22" stroke-linecap="round" stroke-linejoin="round" stroke-width="10" paint-order="stroke fill markers" rx="3.186" ry="2.965"/><use width="100%" height="100%" fill-opacity=".22" stroke-width="1.3" transform="matrix(.7685 -.03056 .03056 .7685 3.617 27.88)" xlink:href="#b"/><use width="100%" height="100%" fill-opacity=".22" stroke-width="1.099" transform="rotate(1.696 -304.758 461.57) scale(.91009)" xlink:href="#b"/><use width="100%" height="100%" fill-opacity=".22" stroke-width="1.325" transform="rotate(-1.896 1223.075 -420.075) scale(.75449)" xlink:href="#b"/><use width="100%" height="100%" fill-opacity=".22" stroke-width="1.882" transform="rotate(.649 -4245.457 1911.245) scale(.53141)" xlink:href="#b"/><use width="100%" height="100%" fill-opacity=".22" stroke-width=".947" transform="rotate(1.409 -578.623 1795.132) scale(1.0557)" xlink:href="#b"/><use width="100%" height="100%" fill-opacity=".22" stroke-width="1.784" transform="rotate(-.484 4097.627 -3358.429) scale(.56067)" xlink:href="#b"/><use width="100%" height="100%" fill-opacity=".22" stroke-width="1.026" transform="rotate(-3.212 329.406 -279.988) scale(.97435)" xlink:href="#b"/><use id="c" width="100%" height="100%" fill-opacity=".22" stroke-width="1.549" transform="rotate(-.893 2787.143 -631.46) scale(.64545)" xlink:href="#b"/><use width="100%" height="100%" fill-opacity=".22" stroke-width=".987" transform="matrix(1.01305 -.00705 .00705 1.01305 52.148 6.274)" xlink:href="#b"/><use width="100%" height="100%" fill-opacity=".22" stroke-width="1.207" transform="rotate(-2.581 726.375 -1120.253) scale(.82824)" xlink:href="#b"/><use width="100%" height="100%" fill-opacity=".22" stroke-width="1.136" transform="rotate(2.871 -386.257 686.96) scale(.88005)" xlink:href="#b"/><use width="100%" height="100%" fill-opacity=".22" stroke-width="1.102" transform="rotate(-3.042 271.956 -355.796) scale(.90774)" xlink:href="#b"/><use width="100%" height="100%" fill-opacity=".22" stroke-width=".748" transform="rotate(-2.972 -289.994 -588.296) scale(1.33694)" xlink:href="#b"/><use width="100%" height="100%" fill-opacity=".22" stroke-width=".905" transform="rotate(3.32 -150.363 625.779) scale(1.10553)" xlink:href="#b"/><use width="100%" height="100%" fill-opacity=".22" stroke-width=".899" transform="matrix(1.11155 .05134 -.05134 1.11155 3.103 9.578)" xlink:href="#b"/><use width="100%" height="100%" fill-opacity=".22" stroke-width=".9" transform="rotate(.156 3742.325 14699.59) scale(1.11137)" xlink:href="#b"/><use width="100%" height="100%" fill-opacity=".22" stroke-width=".907" transform="rotate(2.968 143.245 672.255) scale(1.10228)" xlink:href="#b"/><use width="100%" height="100%" fill-opacity=".22" stroke-width=".99" transform="matrix(.88908 .05888 -.04571 1.14516 59.651 -11.108)" xlink:href="#c"/><use width="100%" height="100%" fill-opacity=".22" stroke-width="1.136" transform="translate(48.039 -3.142) scale(.88009)" xlink:href="#c"/><use width="100%" height="100%" fill-opacity=".22" stroke-width=".854" transform="matrix(1.0189 -.20697 .23645 1.2971 29.231 -39.276)" xlink:href="#c"/><use width="100%" height="100%" fill-opacity=".22" stroke-width="1.673" transform="rotate(-3.455 554.934 -746.676) scale(.59772)" xlink:href="#c"/><use width="100%" height="100%" fill-opacity=".22" stroke-width=".75" transform="matrix(1.0189 -.26823 .23645 1.68101 35.468 -78.357)" xlink:href="#c"/><use width="100%" height="100%" fill-opacity=".22" stroke-width=".885" transform="matrix(.8577 -.22925 .19904 1.4367 38.428 -45.02)" xlink:href="#c"/><use width="100%" height="100%" fill-opacity=".22" stroke-width=".853" transform="matrix(.92218 -.22925 .214 1.4367 39.657 -38.51)" xlink:href="#c"/><use width="100%" height="100%" fill-opacity=".22" stroke-width="1.264" transform="matrix(.72446 .04433 -.03725 .86217 61.987 10.82)" xlink:href="#c"/><use id="d" width="100%" height="100%" fill-opacity=".22" stroke-width=".978" transform="matrix(.59981 -.26823 .1392 1.68101 85.982 -113.07)" xlink:href="#c"/><use width="100%" height="100%" fill-opacity=".22" stroke-width="1.169" transform="translate(-4.353 32.73) scale(.85519)" xlink:href="#d"/><use width="100%" height="100%" fill-opacity=".22" stroke-width=".995" transform="matrix(1.0044 -.01692 .01692 1.0044 -9.502 21.99)" xlink:href="#d"/><use width="100%" height="100%" fill-opacity=".22" stroke-width=".98" transform="rotate(-2.996 426.66 451.091) scale(1.02018)" xlink:href="#d"/><use width="100%" height="100%" fill-opacity=".22" stroke-width="1.808" transform="rotate(-3.217 1017.315 -582.212) scale(.5532)" xlink:href="#d"/><use width="100%" height="100%" fill-opacity=".22" stroke-width="1.159" transform="rotate(-2.118 438.366 -283.456) scale(.86301)" xlink:href="#d"/><use width="100%" height="100%" fill-opacity=".22" stroke-width="1.369" transform="rotate(1.122 -1207.882 1532.83) scale(.73044)" xlink:href="#d"/><use width="100%" height="100%" fill-opacity=".22" stroke-width="1.077" transform="rotate(1.834 -1172.866 -361.876) scale(.92833)" xlink:href="#d"/><use width="100%" height="100%" fill-opacity=".22" stroke-width="1.65" transform="rotate(-.797 2335.13 -2548.993) scale(.60606)" xlink:href="#d"/><use width="100%" height="100%" fill-opacity=".22" stroke-width="1.354" transform="translate(22.218 18.376) scale(.7384)" xlink:href="#d"/><use width="100%" height="100%" fill-opacity=".22" stroke-width="1.218" transform="rotate(2.432 -710.948 152.542) scale(.82127)" xlink:href="#d"/><use width="100%" height="100%" fill-opacity=".22" stroke-width="1.038" transform="rotate(2.388 -786.833 -507.76) scale(.96347)" xlink:href="#d"/><use width="100%" height="100%" fill-opacity=".22" stroke-width=".929" transform="matrix(1.07582 -.04765 .04765 1.07582 -9.47 9.503)" xlink:href="#d"/><use width="100%" height="100%" fill-opacity=".22" stroke-width="1.001" transform="rotate(-.452 2354.437 609.417) scale(.9993)" xlink:href="#d"/><use id="e" width="100%" height="100%" fill-opacity=".22" stroke-width=".813" transform="matrix(1.23032 .00556 -.00556 1.23032 -38.541 6.626)" xlink:href="#d"/><use width="100%" height="100%" fill-opacity=".22" stroke-width="1.386" transform="matrix(.72155 .015 -.015 .72155 13.789 45.161)" xlink:href="#d"/><use width="100%" height="100%" fill-opacity=".22" stroke-width=".876" transform="rotate(-2.862 114.507 326.964) scale(1.14173)" xlink:href="#e"/><use width="100%" height="100%" fill-opacity=".22" stroke-width=".834" transform="matrix(1.29502 -.00914 .01067 1.10977 -48.362 19.328)" xlink:href="#e"/><use width="100%" height="100%" fill-opacity=".22" stroke-width="1.008" transform="rotate(2.266 -583.542 -238.902) scale(.99236)" xlink:href="#e"/><use width="100%" height="100%" fill-opacity=".22" stroke-width="1.264" transform="matrix(.88174 -.0169 .02098 .7099 20.087 2.272)" xlink:href="#e"/><use width="100%" height="100%" fill-opacity=".22" stroke-width="1.745" transform="rotate(-.829 1650.088 -2692.772) scale(.57303)" xlink:href="#e"/><use width="100%" height="100%" fill-opacity=".22" stroke-width=".802" transform="rotate(-.816 -348.11 2678.2) scale(1.24717)" xlink:href="#e"/><use width="100%" height="100%" fill-opacity=".22" stroke-width="1.103" transform="matrix(.98044 .00706 -.00825 .83879 3.77 1.435)" xlink:href="#e"/></svg>