<svg xmlns="http://www.w3.org/2000/svg" style="fill-rule:evenodd;clip-rule:evenodd;stroke-linejoin:round;stroke-miterlimit:1.41421" viewBox="0 0 128 128" xml:space="preserve"><path d="M44.065 61.501v-6.528c0-.463.375-.838.838-.838h28.513c.463 0 .838.375.838.838v6.528c-5.271 1.705-9.126 7.144-9.126 13.591H53.191c0-6.447-3.855-11.886-9.126-13.591z" style="fill:#44bdff" transform="translate(-126.281 -143.824) scale(3.21642)"/><path d="M74.254 54.978a.843.843 0 0 0-.843-.843H44.908a.843.843 0 0 0-.843.843v1.102a.822.822 0 0 0 .821.822h28.546a.822.822 0 0 0 .822-.822v-1.102z" style="fill:url(#a)" transform="translate(-126.281 -143.824) scale(3.21642)"/><path d="M112.225 54.61C98.909 80.012 84.159 96.63 83.243 97.653l-.045.05c0-20.736 12.398-38.231 29.352-43.715l-.325.622zm-96.775-.622c16.955 5.484 29.352 22.979 29.352 43.715-.033-.037-15.534-17.159-29.352-43.715z" style="fill:#0ca2f4"/><path d="M98.21 41.34c13.36 0 29.37 2.89 29.39 2.88v8.51s-3.6.47-3.91 3.75c-.16 1.32 3.12 28.35-23.51 28.35-18.91 0-26.87-11.32-29.45-20.54-1.17-4.37-2.19-9.37-6.72-9.37-4.53 0-5.55 5-6.72 9.37-2.58 9.21-10.55 20.54-29.45 20.54-26.63 0-23.35-27.02-23.51-28.35C4.01 53.2.42 52.73.42 52.73v-8.51s16.01-2.89 29.37-2.89c13.35 0 15.15 2.03 21.4 3.36C57.44 46.02 64 46.02 64 46.02s6.56 0 12.81-1.32c6.25-1.33 8.04-3.36 21.4-3.36zm-67.15 3.68c-4.27-.09-9.11.19-13.65 1.34-5.1 1.28-7.07 3.85-7.6 9.39-.53 5.43-1.13 19.27 8.73 24.46.57.3 1.83.5 2.44-.91C24 66.21 25.61 60.13 32.54 47.22c.551-1.672-.627-2.158-1.48-2.2zm64.571.041c-6.467.252-11.341 1.299-11.341 1.299-9.84 2.06-10.55 8.14-9.93 12.97.8 6.07 3.29 13.75 10.04 18.49.526.377 1.741.784 2.336-.734l.014-.036c2.22-10.48 5.52-20.14 10.78-29.89.59-1.73-.727-2.115-1.59-2.11l-.309.011z" style="fill:url(#b);fill-rule:nonzero" transform="translate(96.943 40.792) scale(.09206)"/><path d="M3.052 62.782c.41 4.996 1.527 9.965 4.344 14.119 7.296 10.762 20.602 11.16 31.59 7.933 9.298-2.732 16.714-10.283 19.548-19.456 1.097-3.646 2.047-8.899 5.397-8.957 3.348-.058 4.356 4.518 5.353 8.267 5.139 18.104 26.291 26.315 42.317 19.575 8.966-3.771 12.192-11.877 13.191-20.258 2.62 12.599 2.788 23.656 2.788 28.325 0 13.82-28.55 25.03-63.79 25.03C28.56 117.36 0 106.16 0 92.33c0-4.82.18-16.446 3.052-29.548zM63.91 104.82c-3.43 0-6.87-.43-10.25-1.31a3.028 3.028 0 0 1-2.15-3.66 3.014 3.014 0 0 1 3.66-2.14c11.65 3.04 24.21-.21 32.78-8.48a2.991 2.991 0 0 1 4.24.08 2.991 2.991 0 0 1-.08 4.24c-7.551 7.282-17.739 11.25-28.2 11.27z" style="fill:url(#c)" transform="translate(96.943 40.792) scale(.09206)"/><path d="M10.453 41.109C19.109 23.637 34.92 8.64 63.79 8.64c28.897 0 44.711 15.021 53.362 32.511-6.082-.764-12.184-1.259-18.304-1.309-6.795-.034-13.499 1.01-20.022 2.817-11.061 3.066-22.402 2.139-32.731-.917-11.079-3.226-23.418-2.383-35.642-.633z" style="fill:url(#d)" transform="translate(96.943 40.792) scale(.09206)"/><defs><linearGradient id="a" x1="0" x2="1" y1="0" y2="0" gradientTransform="matrix(30.1887 0 0 2.76624 44.065 55.518)" gradientUnits="userSpaceOnUse"><stop offset="0" style="stop-color:#9bd2fe;stop-opacity:1"/><stop offset="1" style="stop-color:#9cd2ff;stop-opacity:.356863"/></linearGradient><linearGradient id="b" x1="0" x2="1" y1="0" y2="0" gradientTransform="matrix(127.6 0 0 108.72 0 63)" gradientUnits="userSpaceOnUse"><stop offset="0" style="stop-color:white;stop-opacity:.913725"/><stop offset="1" style="stop-color:#e1e1e1;stop-opacity:.913725"/></linearGradient><linearGradient id="c" x1="0" x2="1" y1="0" y2="0" gradientTransform="matrix(127.6 0 0 108.72 0 63)" gradientUnits="userSpaceOnUse"><stop offset="0" style="stop-color:white;stop-opacity:.913725"/><stop offset="1" style="stop-color:#e1e1e1;stop-opacity:.913725"/></linearGradient><linearGradient id="d" x1="0" x2="1" y1="0" y2="0" gradientTransform="matrix(127.6 0 0 108.72 0 63)" gradientUnits="userSpaceOnUse"><stop offset="0" style="stop-color:white;stop-opacity:.913725"/><stop offset="1" style="stop-color:#e1e1e1;stop-opacity:.913725"/></linearGradient></defs></svg>