<svg xmlns="http://www.w3.org/2000/svg" fill-rule="evenodd" stroke-linejoin="round" stroke-miterlimit="1.414" clip-rule="evenodd" viewBox="0 0 128 128"><g transform="scale(1.26193) rotate(-30 25.433 84.466)"><circle cx="64" cy="64" r="25.034" fill="#f0b533"/><path fill="#d8ab3e" d="M63.841 39.415l-.159.002-.158.004-.158.005-.158.005-.158.007-.157.008-.157.008-.157.01-.157.01-.156.012-.156.012-.156.014-.155.014-.155.016-.155.016-.155.018-.154.018-.154.019-.153.02-.154.021-.153.023-.152.023-.153.023-.152.025-.151.026-.152.027-.151.028-.15.028-.151.03-.15.03-.15.031-.149.033-.149.033-.149.034-.148.035-.148.035-.147.037-.148.038-.147.038-.146.04-.146.04-.146.041-.145.042-.145.043-.145.043-.144.045-.144.045-.143.047-.144.047-.142.048-.142.049-.142.049-.142.051-.141.051-.14.053-.141.053-.14.053-.139.055-.139.056-.138.056-.139.057-.137.058-.137.059-.137.059-.137.061-.136.061-.135.062-.135.063-.135.063-.134.065-.133.065-.134.066-.132.067-.133.067-.131.068-.132.069-.131.07-.13.071-.13.071-.129.072-.129.073-.129.073-.127.075-.128.075-.127.076-.126.076-.126.077-.126.078-.125.079-.124.08-.124.08-.123.081-.123.081-.122.083-.122.083-.121.084-.121.084-.12.085-.12.086-.119.087-.119.087-.118.088-.117.089-.117.089-.116.09-.116.091-.115.091-.115.092-.114.093-.113.093-.113.094-.113.095-.111.095-.112.096-.11.097-.11.097-.109.098-.109.099-.108.099-.108.1-.107.1-.106.101-.106.102-.105.102-.105.103-.104.104-.103.104-.103.105-.102.105-.101.106-.101.107-.1.107-.1.108-.098.108-.099.109-.097.11-.097.11-.096.11-.096.112-.095.112-.094.112-.094.113-.092.114-.093.114-.091.114-.091.116-.09.115-.09.117-.089.116-.088.118-.087.118-.087.118-.086.119-.085.12-.085.12-.084.12-.083.122-.083.121-.081.122-.081.123-.081.123-.079.124-.079.124-.078.124-.078.126-.076.125-.076.126-.075.127-.075.127-.074.128-.072.128-.073.128-.071.129-.071.129-.07.13-.069.131-.068.131-.068.131-.066.132-.066.132-.066.132-.064.133-.064.134-.063.134-.062.134-.061.135-.061.135-.059.136-.059.136-.058.136-.057.137-.057.138-.055.137-.055.138-.054.139-.053.139-.053.139-.051.14-.051.14-.05.14-.049.141-.048.141-.047.142-.047.142-.045.142-.045.143-.044.143-.043.144-.042.144-.041.144-.041.144-.039.145-.039.145-.038.146-.037.146-.036.146-.035.147-.034.147-.034.147-.032.147-.032.148-.03.149-.03.148-.029.149-.028.149-.027.15-.026.149-.025.15-.025.151-.023.151-.022.151-.022.151-.021.151-.019.152-.019.152-.018.153-.017.152-.015.153-.015.154-.014.153-.013.154-.012.154-.012.154-.01.155-.009.155-.008.155-.007.155-.007.156-.005.155-.004.156-.003.157-.003.156-.001.157V64l.002.157.002.157.004.157.005.156.005.156.007.156.007.156.009.155.009.155.011.155.011.154.013.155.013.154.015.153.015.154.016.153.017.152.019.153.019.152.02.152.021.151.021.152.023.151.024.15.025.15.025.15.027.15.027.149.028.149.03.149.03.148.031.148.032.148.032.147.034.147.035.147.035.146.036.146.038.145.038.145.039.145.039.145.041.144.042.143.042.144.043.143.044.142.045.142.046.142.047.142.047.141.049.14.049.14.05.14.051.14.051.138.053.139.053.138.054.138.055.137.056.137.056.137.058.136.058.135.059.136.059.134.061.135.061.134.062.133.063.133.064.133.064.132.066.131.066.132.066.13.068.13.068.13.069.13.07.128.07.129.072.128.072.127.072.127.074.126.074.126.075.126.076.125.076.124.078.124.077.124.027.041.052.082.079.122.08.122.081.122.081.121.082.12.083.12.083.119.084.119.085.118.086.118.086.117.087.117.087.116.088.116.089.115.09.114.09.114.091.114.091.113.093.112.093.112.093.111.094.11.095.11.096.11.096.108.096.109.098.107.098.107.098.107.1.106.099.105.101.104.101.105.102.103.102.103.103.102.104.102.104.1.104.101.106.099.106.1.106.098.107.098.108.097.108.096.109.096.109.096.11.094.111.094.111.094.111.093.112.092.113.091.113.091.113.091.114.089.115.089.115.089.116.087.116.087.117.086.117.086.118.085.119.084.119.083.119.083.12.082.121.081.121.081.121.08.122.079.123.078.123.078.123.077.124.077.125.075.125.075.125.074.126.073.126.073.127.072.127.071.128.07.129.07.128.069.129.068.024.012.106.056.129.068.13.067.131.066.131.065.131.064.132.064.132.063.133.062.133.062.134.06.134.06.134.059.135.059.135.057.136.057.136.056.137.055.137.054.137.053.138.053.138.052.139.051.139.05.14.049.139.049.141.047.14.047.141.046.141.045.142.044.142.044.143.042.143.042.143.041.144.04.143.039.145.039.144.037.145.036.146.036.146.035.146.034.146.033.147.032.147.031.147.031.148.029.148.029.149.027.148.027.019.003.13.023.15.025.149.025.15.023.15.023.151.021.151.021.151.02.152.019.151.017.153.017.152.016.153.015.153.015.153.013.153.012.154.011.154.01.155.01.154.008.155.007.155.007.156.005.155.005.156.003.157.003.156.001.156.001.157-.001.156-.001.156-.003.155-.003.155-.005.155-.005.155-.006.155-.008.154-.008.154-.009.154-.011.154-.011.153-.012.153-.013.153-.014.152-.015.152-.016.152-.017.152-.018.151-.019.152-.019.15-.021.151-.021.15-.023.15-.023.15-.025.149-.025.149-.026.149-.027.148-.028.148-.029.148-.03.148-.03.147-.032.147-.032.146-.034.146-.034.146-.035.106-.026.04-.01.145-.037.145-.038.144-.038.144-.04.144-.04.143-.041.144-.042.142-.043.143-.044.142-.044.141-.046.142-.046.14-.047.141-.048.14-.049.14-.05.139-.05.139-.052.139-.052.138-.053.138-.054.137-.054.137-.056.137-.056.136-.057.136-.058.135-.058.135-.06.134-.06.135-.061.133-.062.133-.063.133-.063.133-.064.131-.065.132-.066.131-.067.131-.067.13-.068.129-.069.129-.069.129-.071.129-.071.127-.072.128-.072.127-.074.126-.074.126-.075.125-.075.125-.077.125-.077.124-.078.123-.078.123-.079.123-.08.122-.081.121-.082.121-.082.12-.083.12-.083.12-.084.119-.085.118-.086.118-.086.117-.087.117-.088.116-.089.116-.089.115-.089.114-.091.014-.011.1-.08.114-.092.113-.093.112-.093.111-.094.112-.095.11-.095.11-.096.11-.096.108-.098.109-.097.107-.099.107-.099.107-.1.106-.1.105-.101.105-.102.104-.102.103-.103.103-.104.102-.104.102-.105.101-.105.1-.106.1-.107.099-.107.099-.107.098-.109.097-.109.096-.109.096-.111.096-.11.094-.112.094-.111.094-.113.092-.113.092-.114.092-.114.09-.114.09-.116.09-.115.088-.117.088-.117.088-.117.086-.118.086-.119.085-.119.085-.12.084-.12.083-.121.082-.121.082-.122.081-.122.08-.123.08-.123.006-.009.072-.115.078-.125.077-.125.076-.125.075-.126.075-.127.074-.127.073-.128.073-.128.071-.128.071-.129.071-.13.069-.13.069-.13.068-.131.067-.131.066-.132.066-.132.065-.133.064-.133.063-.134.063-.134.061-.134.061-.135.06-.135.06-.136.058-.136.058-.137.057-.137.056-.138.055-.137.054-.139.054-.138.053-.14.052-.139.051-.14.05-.14.05-.141.048-.141.048-.142.047-.142.046-.142.045-.143.045-.143.028-.092.015-.051.043-.144.042-.144.04-.145.04-.145.039-.145.039-.146.037-.146.036-.146.036-.147.035-.147.033-.147.033-.148.032-.148.031-.149.03-.148.03-.149.028-.15.028-.15.026-.15.026-.15.024-.151.024-.151.023-.151.022-.151.021-.152.02-.153.019-.152.018-.153.017-.153.017-.153.015-.154.014-.154.014-.154.012-.155.012-.154.01-.155.01-.156.008-.155.008-.156.007-.156.005-.156.005-.157.004-.157.002-.157.002-.157.001-.158-.001-.158-.001-.157-.002-.157-.003-.157-.005-.157-.005-.156-.006-.156-.007-.156-.009-.156-.009-.155-.01-.155-.011-.155-.012-.154-.008-.096-.005-.059-.014-.154-.015-.153-.016-.154-.017-.153-.018-.153-.018-.152-.02-.153-.021-.152-.021-.151-.023-.152-.023-.151-.024-.151-.026-.15-.026-.15-.027-.15-.028-.15-.029-.149-.03-.149-.03-.148-.032-.149-.033-.148-.033-.147-.034-.147-.035-.147-.037-.147-.036-.146-.038-.146-.039-.145-.04-.146-.04-.144-.041-.145-.043-.144-.043-.144-.044-.143-.044-.143-.046-.142-.047-.143-.047-.141-.048-.142-.049-.141-.05-.14-.051-.141-.051-.14-.053-.139-.053-.139-.054-.139-.055-.138-.055-.138-.057-.137-.057-.137-.058-.137-.059-.136-.06-.136-.06-.135-.062-.135-.062-.134-.063-.134-.063-.134-.065-.133-.065-.132-.019-.039-.047-.094-.066-.131-.068-.132-.068-.131-.069-.13-.07-.13-.07-.13-.072-.129-.072-.128-.072-.128-.074-.128-.074-.127-.075-.127-.076-.126-.076-.126-.078-.125-.078-.124-.078-.125-.08-.123-.08-.123-.081-.123-.081-.122-.083-.122-.083-.121-.083-.121-.085-.12-.085-.119-.086-.119-.086-.119-.087-.118-.088-.117-.089-.117-.089-.116-.09-.116-.091-.115-.091-.115-.092-.114-.093-.113-.093-.113-.094-.113-.095-.111-.095-.112-.096-.11-.024-.028-.072-.083-.097-.11-.097-.109-.098-.109-.099-.109-.099-.107-.1-.108-.1-.106-.102-.106-.101-.105-.103-.105-.103-.104-.103-.104-.105-.103-.105-.102-.105-.102-.106-.101-.107-.1-.107-.1-.108-.099-.109-.099-.109-.098-.11-.097-.11-.097-.111-.096-.112-.095-.112-.095-.112-.094-.114-.093-.113-.093-.115-.092-.115-.091-.115-.091-.116-.09-.117-.089-.117-.089-.118-.088-.118-.087-.119-.087-.12-.086-.12-.085-.12-.085-.121-.083-.122-.084-.122-.082-.122-.082-.124-.081-.123-.08-.124-.079-.125-.079-.125-.078-.126-.078-.126-.076-.127-.076-.127-.075-.128-.075-.128-.073-.129-.073-.129-.072-.13-.072-.13-.07-.131-.07-.131-.069-.131-.068-.132-.068-.133-.067-.133-.066-.133-.065-.134-.064-.135-.064-.134-.063-.136-.062-.136-.061-.136-.061-.115-.05-.021-.01-.137-.059-.138-.058-.138-.057-.138-.057-.139-.056-.139-.055-.139-.054-.14-.053-.141-.052-.141-.052-.141-.051-.141-.05-.142-.049-.143-.048-.143-.048-.143-.046-.144-.046-.144-.045-.144-.044-.145-.043-.145-.042-.146-.042-.146-.04-.146-.04-.147-.039-.147-.038-.147-.037-.148-.036-.148-.035-.149-.034-.148-.034-.15-.032-.149-.032-.15-.031-.15-.03-.151-.029-.151-.028-.151-.027-.152-.026-.152-.025-.152-.024-.153-.024-.152-.022-.154-.022-.153-.02-.154-.02-.154-.018-.155-.018-.154-.017-.155-.015-.156-.015-.155-.014-.156-.013-.157-.012-.156-.011-.157-.01-.157-.009-.157-.008-.158-.007-.158-.006-.156-.005h-.002l-.158-.004-.159-.003-.159-.002-.159.002zm.488-.896l.164.001.164.002.164.003.163.004.164.006.163.006.162.007.163.008.162.01.162.01.162.011.161.013.162.013.161.015.16.015.161.016.16.018.16.018.159.019.16.021.158.021.159.022.159.023.158.025.157.025.158.026.157.027.157.028.156.029.157.03.156.031.155.032.155.033.155.034.155.035.154.035.154.037.153.037.153.039.153.039.153.041.152.041.152.042.151.043.151.044.151.045.15.046.15.046.149.048.149.048.149.05.148.05.148.051.148.052.147.053.146.054.147.054.146.056.145.056.145.057.145.059.144.059.022.009.122.051.143.06.143.062.142.063.142.063.141.064.141.065.141.066.14.067.14.067.139.069.139.069.138.07.138.071.137.071.137.073.136.073.136.074.135.075.135.075.135.077.133.077.134.078.133.079.132.079.132.081.131.081.131.082.13.082.13.084.129.084.129.085.128.086.128.086.127.087.126.088.126.089.126.089.125.09.124.091.124.092.123.092.123.093.122.094.121.095.121.095.121.096.119.097.12.097.118.098.118.099.117.099.117.101.116.1.116.102.115.102.114.103.114.104.113.104.113.105.112.106.111.106.111.107.11.107.109.109.109.109.108.109.107.11.107.111.106.112.105.112.105.113.104.113.104.114.077.086.026.029.101.116.101.116.1.118.099.117.099.119.098.119.097.119.097.12.096.121.095.121.095.122.093.123.093.123.093.123.091.124.091.125.09.125.09.126.089.127.088.127.087.127.086.129.086.128.085.129.084.13.084.13.082.131.082.132.081.132.081.132.079.133.079.133.078.134.077.135.077.135.075.135.075.136.074.137.074.137.072.137.072.139.071.138.049.099.021.04.069.14.068.14.067.14.067.141.066.141.065.142.064.143.063.143.062.143.062.144.061.144.06.144.059.145.058.146.057.146.056.146.056.147.055.147.053.148.053.148.052.149.052.149.05.149.049.15.049.15.047.15.047.151.046.152.045.151.044.152.043.153.042.153.041.153.04.154.04.154.038.154.037.155.037.155.036.155.034.156.034.156.033.157.032.157.03.157.03.158.029.158.028.158.027.158.026.159.025.159.025.16.023.16.022.16.021.16.02.161.019.161.018.162.018.161.016.162.015.163.014.162.013.163.012.163.011.164.01.163.009.164.008.164.007.165.006.165.005.165.004.165.003.165.002.166v.332l-.001.166-.003.165-.003.166-.005.165-.005.164-.007.165-.008.164-.008.164-.01.164-.011.163-.011.163-.013.163-.014.163-.015.162-.015.162-.017.162-.018.162-.019.161-.019.161-.021.16-.022.16-.023.16-.023.16-.025.159-.026.159-.026.159-.028.158-.029.158-.029.158-.031.157-.031.158-.033.156-.033.157-.034.156-.035.155-.037.155-.037.155-.038.155-.039.154-.04.154-.041.153-.041.154-.043.152-.044.153-.044.151-.017.055-.029.097-.046.151-.047.151-.048.15-.049.151-.05.149-.05.149-.052.149-.053.149-.053.147-.054.148-.055.147-.056.147-.057.146-.058.146-.058.145-.06.145-.06.145-.061.144-.062.144-.063.143-.064.143-.064.142-.066.142-.066.141-.067.141-.068.14-.069.14-.069.14-.07.139-.072.138-.072.138-.072.138-.074.137-.074.136-.075.136-.076.136-.077.135-.078.135-.078.134-.079.133-.08.133-.081.133-.081.131-.076.122-.007.01-.082.131-.083.131-.085.13-.084.129-.086.129-.087.129-.087.128-.088.127-.088.127-.09.126-.09.126-.091.125-.091.125-.093.124-.093.123-.093.123-.095.123-.095.121-.096.122-.097.12-.097.12-.098.119-.099.119-.099.118-.101.118-.1.117-.102.116-.102.116-.103.115-.104.115-.104.114-.105.113-.106.113-.106.112-.107.111-.108.111-.108.11-.109.11-.109.108-.111.109-.111.107-.111.107-.112.106-.113.106-.114.105-.114.104-.115.103-.115.103-.116.102-.117.102-.117.101-.118.1-.118.099-.119.099-.105.086-.015.012-.12.098-.121.096-.121.096-.122.096-.123.094-.123.094-.123.094-.125.092-.125.092-.125.091-.126.09-.127.09-.127.089-.128.088-.128.087-.129.087-.129.085-.13.085-.131.085-.131.083-.131.083-.132.082-.133.081-.133.081-.134.08-.134.078-.135.079-.135.077-.136.077-.137.075-.136.075-.138.074-.138.074-.138.072-.139.072-.139.071-.14.07-.14.069-.141.069-.141.067-.142.067-.142.066-.143.065-.143.065-.144.063-.144.063-.145.062-.145.06-.145.06-.146.06-.147.058-.147.057-.147.057-.148.056-.148.055-.148.054-.149.053-.15.052-.15.051-.15.051-.151.049-.151.049-.151.047-.152.047-.153.046-.152.045-.153.044-.154.043-.154.043-.154.041-.042.011-.113.029-.155.04-.155.038-.156.038-.157.036-.156.036-.157.034-.157.034-.158.033-.158.032-.158.031-.159.029-.159.029-.16.028-.159.027-.16.026-.161.025-.161.024-.161.023-.161.022-.162.021-.162.02-.162.019-.163.018-.163.018-.163.016-.163.015-.164.014-.164.013-.165.011-.164.011-.165.01-.166.009-.165.008-.166.007-.166.005-.166.005-.167.004-.167.002-.167.002h-.334l-.167-.002-.166-.003-.166-.003-.166-.005-.166-.006-.165-.007-.166-.008-.164-.009-.165-.01-.165-.011-.164-.012-.164-.013-.163-.014-.164-.015-.163-.016-.162-.017-.163-.018-.162-.02-.162-.02-.161-.021-.162-.022-.161-.023-.16-.024-.161-.025-.14-.023-.02-.003-.159-.028-.16-.028-.159-.03-.159-.03-.158-.031-.158-.032-.158-.034-.157-.034-.157-.035-.156-.036-.157-.037-.156-.038-.155-.039-.155-.04-.155-.04-.155-.042-.154-.043-.153-.043-.154-.045-.152-.045-.153-.047-.152-.047-.152-.048-.151-.049-.151-.05-.151-.051-.15-.051-.149-.053-.15-.054-.149-.054-.148-.055-.148-.057-.148-.057-.147-.058-.147-.058-.146-.06-.146-.061-.145-.061-.145-.062-.145-.063-.144-.064-.143-.065-.143-.066-.143-.066-.142-.068-.142-.068-.141-.069-.141-.07-.14-.07-.14-.072-.114-.059-.025-.013-.138-.075-.138-.075-.138-.075-.136-.077-.137-.077-.135-.078-.135-.079-.135-.08-.134-.08-.134-.082-.133-.082-.133-.083-.132-.083-.131-.085-.131-.085-.13-.086-.13-.086-.129-.088-.129-.088-.128-.089-.128-.09-.127-.09-.126-.091-.126-.092-.126-.093-.124-.093-.124-.094-.124-.095-.123-.095-.122-.097-.122-.097-.121-.097-.121-.099-.12-.099-.119-.099-.119-.101-.114-.098-.004-.003-.117-.102-.117-.103-.116-.104-.115-.104-.115-.105-.114-.105-.113-.107-.113-.107-.112-.107-.111-.108-.111-.109-.11-.11-.11-.11-.109-.111-.108-.111-.107-.113-.107-.112-.106-.114-.106-.114-.105-.114-.104-.116-.103-.116-.103-.116-.102-.117-.101-.118-.101-.118-.1-.119-.099-.12-.099-.12-.098-.121-.097-.121-.096-.122-.096-.122-.095-.124-.094-.123-.093-.125-.093-.124-.092-.126-.092-.126-.09-.126-.09-.127-.089-.128-.088-.128-.088-.129-.086-.129-.087-.13-.085-.13-.084-.131-.084-.132-.083-.132-.055-.088-.027-.044-.081-.133-.081-.134-.079-.134-.079-.135-.078-.135-.078-.135-.076-.137-.076-.136-.075-.137-.074-.138-.073-.138-.073-.139-.071-.139-.071-.14-.07-.14-.069-.14-.069-.141-.067-.142-.067-.142-.066-.142-.065-.143-.064-.143-.063-.144-.062-.144-.062-.145-.061-.145-.06-.145-.059-.146-.058-.147-.057-.147-.056-.147-.056-.148-.054-.148-.054-.148-.053-.149-.052-.149-.051-.15-.05-.15-.05-.151-.048-.151-.047-.151-.047-.152-.046-.152-.044-.152-.044-.153-.043-.153-.042-.154-.041-.154-.04-.154-.039-.155-.039-.155-.037-.156-.036-.155-.036-.156-.034-.157-.034-.157-.032-.157-.032-.157-.03-.158-.03-.158-.029-.159-.028-.158-.026-.16-.026-.159-.025-.16-.024-.16-.023-.16-.021-.161-.021-.161-.02-.161-.019-.161-.018-.162-.017-.162-.016-.163-.014-.162-.014-.163-.013-.163-.012-.164-.011-.164-.009-.164-.001-.006-.008-.158-.008-.164-.007-.165-.005-.165-.005-.165-.003-.166-.003-.165-.001-.166-.001-.167.001-.166.001-.166.003-.167.004-.165.005-.166.006-.165.007-.165.007-.165.009-.165.01-.164.011-.164.013-.164.013-.163.014-.163.015-.163.016-.162.017-.163.018-.162.019-.161.02-.161.021-.161.023-.161.023-.16.024-.16.025-.16.026-.159.027-.159.028-.159.029-.158.03-.158.03-.158.032-.157.033-.157.034-.157.034-.156.036-.156.036-.155.038-.155.038-.155.04-.154.04-.154.041-.154.042-.153.043-.153.044-.152.045-.152.046-.152.047-.151.047-.151.049-.15.049-.15.05-.15.052-.149.052-.149.052-.148.054-.148.055-.147.055-.147.057-.147.057-.146.058-.146.059-.145.06-.145.061-.144.061-.144.063-.143.063-.143.064-.143.065-.142.066-.141.066-.141.068-.141.068-.14.069-.14.07-.139.071-.138.071-.138.072-.138.073-.137.074-.137.075-.136.076-.136.076-.135.077-.134.078-.135.078-.133.08-.133.08-.133.081-.132.082-.131.082-.131.083-.13.084-.13.085-.13.086-.128.086-.128.087-.128.088-.127.088-.127.089-.126.09-.125.091-.125.091-.124.092-.124.093-.123.094-.122.094-.122.095-.122.096-.12.096-.12.097-.12.098-.119.098-.118.099-.118.1-.117.101-.116.101-.116.102-.116.102-.114.104-.114.104-.114.104-.112.105-.113.106-.111.107-.111.107-.11.108-.11.108-.108.109-.109.11-.107.11-.107.111-.107.112-.105.112-.105.113-.104.114-.104.114-.103.115-.102.115-.102.116-.1.116-.101.118-.099.117-.099.119-.098.119-.097.119-.097.12-.096.121-.095.121-.095.122-.094.122-.093.123-.092.124-.092.124-.091.125-.09.125-.089.126-.089.126-.088.127-.087.127-.087.128-.085.129-.085.129-.085.129-.083.13-.083.131-.082.131-.081.132-.08.132-.08.133-.079.133-.078.133-.077.134-.076.135-.076.135-.075.136-.074.136-.073.137-.073.137-.072.137-.071.138-.07.139-.069.139-.068.139-.068.14-.067.141-.066.14-.065.142-.064.142-.063.142-.063.142-.062.143-.061.144-.06.144-.059.144-.058.145-.058.145-.057.146-.055.146-.055.146-.054.147-.054.147-.052.148-.051.148-.051.149-.049.149-.049.149-.048.149-.047.15-.046.151-.045.151-.044.151-.044.151-.042.152-.042.153-.04.152-.04.153-.039.154-.038.153-.037.154-.036.155-.035.154-.034.155-.033.156-.032.156-.031.156-.031.156-.029.157-.029.157-.027.157-.027.158-.025.158-.025.158-.023.159-.023.159-.022.159-.02.159-.02.16-.019.16-.017.16-.017.161-.016.161-.014.161-.014.161-.013.162-.011.162-.011.162-.01.163-.008.162-.008.163-.007.164-.005.163-.005.164-.003.164-.003.164-.001.164-.001.165.001.165-.001h.164z"/></g><path fill="#957f29" d="M83.026 36.916c19.639-8.073 33.794-9.859 36.806-4.642 4.495 7.785-16.873 28.55-47.69 46.342-30.816 17.792-59.484 25.915-63.979 18.13-3.011-5.217 5.613-16.583 22.424-29.554a31.37 31.37 0 001.447 4.526c-8.768 7.78-12.94 14.304-11.03 17.614 3.462 5.995 25.537-.261 49.265-13.96 23.728-13.7 40.183-29.69 36.722-35.685-1.91-3.309-9.647-2.958-20.769.745a31.37 31.37 0 00-3.196-3.516z"/><path fill="#cfa747" d="M112.299 28.614l.25.005.247.007.244.009.242.012.237.014.235.018.231.02.229.022.226.025.221.028.217.03.11.017.108.017.106.018.106.019.106.019.104.02.103.019.103.022.102.021.1.023.1.023.1.024.1.025.097.025.096.026.098.027.094.027.095.028.094.029.093.03.091.03.092.031.09.032.09.033.089.033.088.034.087.034.086.037.085.036.085.038.084.037.082.039.083.04.081.04.08.04.079.043.078.042.078.044.078.044.076.045.074.046.074.046.074.048.072.049.07.05.071.049.07.052.068.05.067.053.067.053.065.055.065.056.063.055.063.057.062.057.06.06.059.058.058.061.058.062.055.06.056.064.054.063.053.064.052.066.05.066.05.067.048.067.048.069.046.07.045.07.044.07.043.073.06.107.058.11.056.11.052.112.05.113.048.115.044.116.04.116.04.119.037.119.033.12.03.122.028.122.025.124.022.124.02.126.017.125.014.128.012.127.009.129.006.129.004.13.002.131v.132l-.004.133-.006.133-.009.135-.01.135-.014.135-.015.136-.018.137-.02.139-.023.138-.025.14-.027.139-.03.14-.031.142-.035.142-.035.143-.039.143-.04.144-.043.146-.044.145-.048.147-.049.148-.05.147-.054.15-.056.148-.058.15-.06.15-.061.152-.064.152-.066.153-.068.154-.07.154-.072.156-.074.154-.075.158-.078.157-.081.157-.082.16-.084.159-.086.159-.088.161-.09.162-.093.162-.094.163-.095.164-.097.164-.1.164-.103.167-.103.166-.105.167-.109.168-.108.167-.112.17-.113.17-.115.17-.116.172-.12.17-.12.174-.123.173-.022.031-.103.142-.126.174-.13.175-.13.176-.132.175-.134.177-.136.178-.138.177-.14.179-.142.179-.142.18-.146.18-.147.181-.148.182-.15.181-.153.183-.154.184-.155.184-.158.184-.16.186-.16.185-.163.186-.164.187-.166.187-.168.188-.17.189-.172.188-.172.19-.176.19-.176.19-.178.19-.18.194-.182.19-.182.193-.186.193-.186.194-.189.195-.19.194-.191.195-.193.196-.195.195-.197.197-.198.196-.2.198-.2.198-.203.197-.205.2-.206.2-.208.198-.209.2-.21.2-.214.201-.213.202-.216.2-.217.203-.219.202-.22.203-.222.204-.223.203-.225.204-.077.07-.377.338-.461.41-.466.412-.473.413-.478.413-.485.416-.49.417-.497.418-.5.419-.508.419-.513.42-.519.422-.523.423-.53.425-.536.424-.54.424-.546.427-.551.426-.556.428-.562.427-.567.43-.573.428-.576.43-.582.43-.588.431-.592.43-.597.431-.601.432-.607.43-.611.434-.617.431-.62.431-.517.357-.11.076-.629.432-.635.432-.638.432-.644.431-.648.432-.652.43-.657.433-.661.43-.665.43-.669.43-.673.43-.678.428-.682.429-.684.427-.69.428-.693.426-.697.425-.701.426-.704.424-.708.423-.712.423-.716.42-.719.421-.723.42-.723.417-.724.413-.722.41-.721.406-.035.02-.686.383-.717.4-.719.396-.716.391-.716.389-.714.384-.712.381-.71.377-.71.374-.709.37-.706.365-.704.362-.702.359-.702.354-.7.351-.696.346-.695.343-.694.339-.69.335-.689.33-.35.167-.336.16-.683.325-.682.32-.678.317-.676.311-.674.31-.672.302-.667.3-.665.297-.663.29-.66.288-.657.283-.653.28-.652.274-.647.27-.644.267-.642.263-.638.257-.635.253-.63.25-.627.245-.625.24-.62.236-.617.233-.613.227-.61.222-.605.22-.602.213-.533.187-.065.023-.592.205-.589.202-.586.196-.58.191-.29.095-.287.093-.286.092-.286.09-.285.09-.284.089-.282.087-.28.086-.281.085-.28.084-.277.083-.276.081-.276.08-.274.08-.273.078-.272.076-.27.077-.27.073-.27.074-.267.072-.265.071-.265.07-.264.068-.262.067-.262.066-.26.066-.257.063-.258.063-.256.061-.254.06-.254.059-.252.058-.25.056-.25.055-.249.054-.246.053-.246.051-.245.05-.243.05-.242.047-.24.048-.238.045-.238.044-.236.043-.236.041-.233.04-.232.04-.23.038-.23.036-.227.036-.227.034-.226.033-.223.031-.222.03-.22.03-.22.027-.219.027-.215.025-.215.024-.214.023-.213.02-.21.02-.209.02-.208.017-.206.017-.205.014-.204.013-.2.013-.2.01-.2.009-.197.008-.195.007-.194.005-.193.004-.191.003-.19.001h-.188l-.186-.001-.185-.002-.183-.005-.183-.006-.18-.006-.178-.008-.177-.01-.176-.011-.173-.013-.173-.014-.17-.015-.17-.017-.167-.02-.166-.019-.165-.02-.163-.023-.162-.025-.16-.026-.158-.028-.156-.028-.155-.031-.154-.031-.15-.034-.15-.036-.15-.036-.146-.04-.146-.04-.066-.018-.077-.022-.142-.044-.14-.044-.138-.047-.138-.049-.135-.05-.133-.051-.132-.054-.13-.056-.129-.057-.126-.06-.125-.06-.123-.063-.122-.065-.118-.067-.118-.068-.116-.072-.114-.072-.112-.074-.11-.076-.108-.08-.105-.08-.104-.083-.101-.084-.1-.087-.096-.088-.096-.09-.092-.095-.091-.094-.088-.097-.085-.1-.083-.1-.08-.104-.078-.104-.076-.107-.072-.109-.071-.11-.065-.111-.045-.078-.042-.078-.041-.078-.04-.078-.038-.08-.037-.079-.035-.08-.035-.082-.033-.081-.031-.083-.03-.082-.03-.083-.026-.084-.027-.085-.024-.085-.024-.086-.021-.085-.021-.087-.02-.086-.018-.087-.017-.088-.016-.088-.014-.088-.012-.09-.013-.089-.01-.09-.009-.09-.008-.09-.007-.09-.005-.092-.005-.092-.003-.091-.001-.093v-.185l.001-.092.003-.094.004-.094.006-.094.006-.094.008-.095.008-.095.01-.096.01-.095.013-.096.014-.096.014-.096.015-.098.016-.096.018-.098.02-.097.018-.099.021-.098.022-.098.023-.1.024-.1.024-.098.027-.101.026-.1.029-.1.029-.1.03-.103.03-.1.033-.103.033-.102.034-.102.036-.102.036-.104.037-.103.038-.104.039-.104.041-.105.083-.208.087-.212.09-.212.096-.213.098-.216.103-.215.106-.219.11-.218.115-.22.117-.223.121-.222.126-.225.129-.225.132-.227.137-.228.14-.23.143-.23.149-.233.15-.234.155-.234.159-.238.161-.237.167-.24.169-.24.172-.24.177-.244.18-.244.183-.245.189-.247.19-.248.194-.25.198-.25.202-.251.205-.253.209-.255.212-.256.215-.255.219-.26.223-.258.225-.26.23-.262.232-.262.237-.264.24-.265.243-.266.247-.268.25-.268.253-.27.257-.27.26-.272.263-.273.005-.004.263-.27.271-.274.274-.275.277-.277.28-.278.285-.278.288-.28.29-.28.293-.282.297-.282.301-.284.304-.284.307-.287.31-.285.313-.287.317-.288.32-.29.323-.29.326-.29.33-.292.333-.292.334-.293.34-.294.342-.295.345-.296.35-.296.35-.297.355-.298.358-.299.36-.298.365-.301.367-.3.37-.302.372-.302.377-.302.38-.304.382-.304.385-.305.388-.305.392-.306.393-.306.157-.102.171-.074.182-.045.187-.015.187.016.182.047.171.077.156.104.137.128.113.149.088.165.06.178.068.28.07.275.038.142.035.134.074.275.077.274.08.275.083.272.085.274.088.274.09.271.094.272.096.271.099.27.101.272.105.27.109.274.05.164.027.17v.172l-.027.17-.052.164-.076.153-.1.14-.119.125-.203.18-.202.18-.2.178-.197.178-.196.178-.193.177-.193.177-.19.175-.19.177-.186.174-.186.175-.183.174-.182.173-.18.173-.178.173-.177.17-.175.173-.173.17-.17.17-.17.169-.168.168-.165.168-.164.168-.163.167-.16.165-.159.166-.157.165-.155.164-.153.164-.15.163-.15.162-.148.16-.146.161-.144.16-.142.16-.14.159-.138.157-.136.157-.063.073-.073.084-.132.155-.132.155-.128.154-.128.153-.125.152-.123.151-.122.152-.12.15-.117.15-.116.147-.114.148-.112.147-.11.146-.107.145-.106.144-.104.143-.103.142-.1.141-.098.141-.096.14-.095.138-.092.138-.09.138-.088.135-.087.135-.084.134-.082.132-.08.132-.079.132-.076.13-.074.129-.072.127-.07.127-.07.125-.066.125-.063.122-.063.124-.06.12-.058.12-.056.12-.053.117-.053.116-.05.115-.047.114-.046.113-.044.111-.042.11-.04.11-.038.107-.035.105-.034.106-.032.103-.03.102-.028.1-.026.1-.023.098-.022.096-.021.095-.018.093-.017.091-.014.09-.013.089-.01.088-.01.085-.006.084-.006.082-.003.08-.002.08v.154l.003.075.005.073.005.071.009.07.009.069.01.066.012.066.014.064.014.063.017.062.017.06.02.059.02.058.021.056.024.056.024.055.025.054.028.052.029.053.028.047.028.046.03.046.031.044.033.044.032.044.035.043.037.043.037.04.04.042.04.041.042.041.042.04.045.04.047.04.047.038.05.038.05.038.054.037.054.038.056.036.059.036.06.035.06.035.064.034.064.034.067.032.069.034.07.032.072.031.074.03.075.03.077.03.08.028.08.028.084.028.083.026.087.026.088.024.09.024.091.025.093.022.095.02.097.022.1.02.1.02.1.017.103.018.106.016.106.016.109.016.11.014.11.013.114.012.115.01.116.01.118.01.12.01.12.007.124.006.124.005.125.005.128.004.128.003.13.002.131.002.134-.002h.134l.136-.001.138-.004.138-.003.141-.005.141-.006.143-.007.145-.007.145-.008.147-.01.15-.01.148-.012.152-.013.153-.012.153-.015.156-.015.155-.016.16-.017.158-.019.16-.018.161-.02.163-.021.165-.023.165-.022.166-.025.168-.024.169-.026.17-.026.172-.028.173-.029.172-.03.352-.061.357-.066.36-.068.365-.074.37-.077.373-.08.378-.084.383-.089.386-.091.391-.095.396-.1.398-.102.404-.106.407-.11.411-.113.415-.117.42-.122.422-.124.426-.128.43-.13.433-.135.436-.139.441-.142.444-.145.447-.15.45-.151.455-.156.456-.159.462-.163.462-.165.467-.17.47-.172.472-.177.476-.18.477-.182.481-.186.484-.19.486-.192.49-.197.491-.2.495-.202.496-.206.5-.209.501-.212.504-.215.506-.22.509-.221.51-.226.513-.227.276-.124.24-.108.516-.234.52-.238.521-.24.523-.244.525-.247.527-.25.528-.252.53-.257.532-.259.534-.261.534-.265.537-.268.538-.271.539-.273.54-.278.543-.28.543-.282.544-.285.546-.289.547-.291.547-.294.549-.297.55-.3.55-.302.553-.305.552-.308.554-.31.553-.314.555-.316.554-.318.55-.32.548-.319.545-.32.544-.321.54-.322.536-.322.535-.323.53-.324.529-.324.525-.325.522-.324.518-.326.516-.326.513-.325.51-.327.506-.327.503-.327.5-.327.496-.328.493-.328.489-.326.486-.329.483-.327.478-.328.476-.327.472-.328.468-.327.464-.328.46-.327.458-.327.453-.327.45-.327.446-.325.442-.325.437-.326.433-.324.43-.326.426-.323.422-.324.417-.322.413-.323.409-.32.405-.322.4-.32.396-.319.393-.32.387-.316.383-.318.379-.316.374-.315.37-.314.364-.313.36-.311.356-.312.352-.31.346-.308.341-.307.338-.307.33-.305.328-.304.323-.301.317-.301.312-.3.307-.298.303-.296.296-.295.292-.294.287-.29.282-.292.276-.287.271-.288.266-.284.26-.283.255-.281.25-.28.244-.278.238-.274.233-.275.115-.135.113-.135.11-.135.111-.134.108-.134.108-.134.106-.132.104-.132.103-.132.101-.131.101-.13.099-.13.097-.13.095-.128.095-.128.092-.127.092-.127.09-.127.088-.125.086-.125.086-.124.084-.125.083-.122.08-.122.08-.122.077-.122.077-.12.075-.12.073-.118.071-.118.07-.118.07-.117.067-.116.066-.116.064-.114.062-.114.062-.113.058-.113.058-.112.056-.11.054-.11.054-.11.05-.108.05-.108.05-.107.047-.106.045-.106.043-.104.043-.103.04-.103.038-.101.037-.101.036-.1.034-.1.032-.097.031-.098.03-.096.026-.095.027-.094.024-.093.023-.093.02-.091.021-.09.019-.09.015-.089.015-.087.013-.087.013-.084.01-.085.01-.084.006-.08.005-.083.005-.08.003-.078.001-.078v-.077l-.001-.075-.004-.075-.005-.074-.006-.073-.008-.072-.008-.07-.01-.069-.013-.068-.012-.068-.014-.067-.016-.065-.018-.064-.018-.064-.02-.063-.022-.062-.023-.06-.023-.061-.026-.06-.028-.058-.027-.057-.03-.057-.031-.057-.037-.061-.038-.06-.04-.06-.04-.057-.043-.057-.045-.057-.046-.055-.05-.055-.05-.054-.052-.053-.054-.051-.056-.051-.058-.05-.06-.051-.063-.048-.064-.048-.066-.046-.068-.047-.07-.045-.074-.045-.074-.043-.077-.043-.08-.042-.08-.04-.083-.042-.086-.037-.088-.039-.09-.037-.092-.035-.093-.036-.097-.034-.098-.032-.101-.032-.102-.031-.105-.03-.107-.029-.11-.027-.11-.026-.113-.026-.115-.024-.117-.022-.119-.022-.122-.02-.124-.02-.124-.019-.128-.016-.129-.016-.132-.015-.133-.013-.135-.012-.138-.011-.138-.01-.142-.01-.143-.007-.144-.005-.148-.006-.148-.003-.15-.004h-.307l-.156.001-.158.002-.159.005-.162.004-.163.007-.166.007-.167.009-.169.01-.17.01-.171.014-.175.013-.175.015-.178.017-.178.017-.182.019-.181.02-.185.02-.185.023-.188.024-.19.025-.19.027-.192.028-.194.029-.196.03-.196.03-.2.033-.2.033-.202.035-.203.037-.206.037-.206.04-.209.04-.21.04-.21.044-.214.043-.215.045-.214.047-.218.047-.22.05-.22.05-.221.05-.224.053-.224.054-.226.055-.229.056-.229.058-.23.058-.232.06-.234.062-.235.063-.235.063-.239.065-.238.066-.24.068-.243.068-.242.07-.244.071-.246.072-.247.074-.248.075-.25.076-.252.078-.252.078-.254.08-.255.08-.256.082-.257.085-.26.084-.086.023-.09.007-.087-.006-.087-.018-.083-.033-.077-.044-.07-.056-.06-.064-.183-.235-.183-.231-.186-.228-.187-.226-.19-.224-.19-.222-.193-.22-.195-.218-.196-.215-.199-.213-.199-.211-.202-.21-.203-.206-.205-.205-.208-.202-.21-.203-.061-.069-.05-.08-.036-.086-.02-.09-.003-.044-.004-.05.01-.093.025-.09.039-.084.053-.077.065-.067.075-.057.083-.042.19.465-.19-.465.459-.19.458-.189.161-.066.295-.12.453-.185.452-.18.45-.18.447-.178.446-.174.444-.172.441-.17.44-.168.436-.166.435-.162.433-.161.43-.158.428-.157.426-.153.424-.152.421-.15.42-.145.416-.145.415-.142.413-.139.41-.137.407-.135.406-.133.403-.13.4-.127.398-.126.396-.123.393-.12.39-.12.39-.115.385-.113.382-.112.382-.11.378-.105.376-.104.373-.101.371-.1.367-.096.366-.095.363-.091.36-.09.357-.087.354-.085.353-.083.35-.08.346-.077.344-.076.342-.072.338-.07.335-.068.334-.066.33-.062.327-.061.325-.058.321-.056.065-.01.254-.043.316-.05.313-.049.31-.045.309-.044.304-.04.302-.039.298-.035.296-.034.292-.03.29-.03.288-.026.284-.022.28-.022.278-.018.275-.016.27-.013.27-.011.266-.008.262-.006.26-.004.256-.001.254.002zm-.751 1.416l-.25.002-.252.006-.256.009-.26.01-.263.013-.267.015-.269.019-.274.02-.276.022-.279.026-.283.026-.286.03-.29.033-.292.035-.296.037-.299.038-.302.042-.305.045-.308.046-.249.04-.062.01-.314.05-.318.054-.32.056-.324.058-.327.061-.33.063-.331.067-.336.067-.337.07-.34.073-.345.075-.347.078-.35.08-.352.082-.355.084-.358.087-.36.09-.364.092-.366.093-.37.097-.37.1-.375.1-.376.104-.38.106-.382.108-.385.111-.387.113-.39.115-.392.118-.395.12-.397.123-.4.125-.403.127-.405.13-.406.13-.41.135-.413.138-.414.138-.417.14-.42.145-.42.146-.425.148-.426.15-.428.153-.43.155-.434.158-.435.16-.437.162-.44.164-.442.167-.444.169-.446.171-.449.174-.45.176-.452.179-.295.116-.161.064-.112.046.018.015.212.214.21.216.21.217.207.22.205.22.204.225.201.227.2.228.198.231.196.234.194.235.126.155.135-.046.26-.085.257-.084.257-.083.255-.082.253-.08.253-.08.252-.076.25-.077.248-.075.248-.075.246-.072.245-.072.243-.07.243-.07.24-.068.24-.066.238-.065.237-.064.236-.064.235-.06.233-.061.23-.06.23-.058.23-.056.227-.055.227-.054.224-.053.223-.05.222-.052.22-.048.22-.048.217-.047.217-.045.213-.045.215-.042.21-.041.212-.04.208-.04.208-.038.205-.035.205-.036.202-.033.203-.033.2-.03.198-.03.197-.03.196-.027.194-.026.193-.025.19-.023.19-.023.188-.02.186-.02.185-.018.183-.018.182-.015.18-.015.18-.013.176-.012.176-.011.174-.009.172-.007.171-.007.17-.005.167-.005.166-.002h.165l.162-.001.162.001.159.003.158.005.156.005.156.007.153.008.152.01.15.01.148.013.146.013.146.015.143.016.142.02.14.019.139.02.136.022.136.024.134.025.132.027.13.028.13.029.126.03.125.033.124.035.122.036.12.036.119.039.116.04.117.042.112.043.112.046.11.046.108.048.108.05.104.052.103.053.1.056.1.057.098.06.095.059.095.062.09.064.091.066.087.068.087.07.083.07.082.074.079.076.077.076.075.08.073.08.07.081.068.085.066.086.063.087.06.09.06.09.054.093.049.085.045.086.044.089.042.088.038.088.038.09.035.093.033.091.03.094.028.093.026.096.025.095.021.095.02.097.017.098.016.098.013.099.011.1.009.101.007.1.006.101.002.104V41.64l-.002.103-.005.105-.007.105-.007.105-.01.106-.013.107-.014.107-.016.106-.018.108-.02.11-.02.108-.023.109-.025.11-.026.112-.028.11-.03.112-.032.112-.034.113-.034.113-.038.114-.037.114-.04.115-.042.115-.042.116-.045.116-.046.117-.049.117-.05.118-.05.12-.053.117-.055.12-.055.12-.058.121-.058.121-.062.121-.061.123-.063.123-.067.123-.065.123-.068.124-.07.126-.071.125-.073.126-.075.126-.075.127-.078.128-.079.128-.08.129-.081.13-.083.128-.085.13-.085.13-.088.132-.09.132-.09.132-.092.133-.092.132-.095.134-.096.134-.098.135-.099.135-.1.136-.103.136-.103.137-.105.136-.105.138-.107.138-.11.139-.11.14-.112.138-.113.14-.114.14-.116.141-.117.142-.238.283-.244.287-.248.286-.255.29-.26.291-.265.292-.27.294-.275.296-.28.297-.286.3-.29.3-.297.302-.3.303-.308.304-.31.306-.316.308-.32.309-.326.31-.33.312-.336.312-.34.314-.345.315-.35.316-.354.317-.358.319-.363.32-.368.32-.372.32-.377.323-.382.322-.385.325-.39.324-.395.326-.399.326-.402.327-.408.329-.411.328-.416.329-.42.329-.423.33-.429.331-.43.332-.437.33-.44.333-.444.333-.447.333-.452.333-.455.334-.46.334-.462.334-.467.333-.47.334-.474.335-.477.334-.482.335-.485.334-.487.335-.492.333-.494.335-.5.334-.5.334-.505.334-.51.333-.51.333-.515.334-.519.333-.52.331-.524.333-.528.33-.53.332-.533.33-.537.33-.538.33-.543.327-.544.329-.549.327-.55.326-.554.326-.555.325-.557.323-.556.321-.555.318-.556.315-.555.311-.553.31-.552.307-.552.303-.55.301-.55.298-.549.295-.547.292-.547.29-.544.286-.545.283-.542.281-.54.277-.54.276-.539.271-.537.268-.535.266-.534.263-.531.26-.53.256-.53.253-.527.25-.524.248-.524.244-.522.242-.24.11-.278.128-.517.234-.516.232-.512.229-.511.225-.509.222-.507.22-.504.215-.502.213-.498.21-.498.205-.495.203-.491.199-.49.196-.487.192-.485.19-.48.186-.48.183-.474.18-.473.175-.47.173-.468.169-.464.166-.46.163-.459.158-.455.156-.451.151-.45.149-.444.144-.442.142-.439.137-.435.134-.431.131-.429.127-.425.124-.42.12-.419.115-.414.113-.41.108-.406.106-.403.102-.399.098-.394.093-.392.091-.388.087-.383.083-.379.078-.374.075-.372.072-.366.067-.183.033-.18.031-.181.03-.179.03-.177.028-.178.028-.175.026-.175.026-.172.025-.174.023-.171.023-.17.02-.17.021-.167.02-.167.019-.166.017-.165.017-.163.015-.162.015-.163.014-.16.012-.16.012-.157.01-.157.01-.156.008-.154.008-.154.006-.153.006-.151.003-.15.004-.15.003h-.293l-.147-.001-.143-.002-.144-.003-.142-.005-.141-.004-.14-.007-.107-.006-.032-.001-.137-.01-.137-.01-.136-.01-.133-.012-.134-.014-.13-.015-.132-.015-.13-.017-.128-.018-.127-.019-.125-.02-.126-.023-.123-.022-.122-.024-.121-.026-.12-.026-.12-.028-.117-.029-.117-.03-.116-.032-.114-.033-.113-.034-.11-.037-.112-.038-.11-.038-.107-.04-.107-.042-.106-.042-.104-.045-.103-.047-.102-.047-.1-.049-.1-.05-.098-.053-.096-.054-.095-.056-.094-.056-.092-.059-.09-.061-.09-.062-.088-.063-.087-.067-.083-.067-.084-.07-.08-.07-.08-.073-.078-.074-.076-.076-.074-.078-.072-.08-.07-.081-.07-.083-.065-.084-.064-.088-.062-.088-.06-.089-.057-.09-.056-.094-.058-.103-.056-.106-.052-.107-.05-.109-.047-.11-.042-.11-.041-.112-.037-.114-.035-.114-.031-.116-.029-.116-.026-.118-.022-.119-.02-.118-.016-.12-.014-.12-.01-.12-.01-.122-.006-.122-.003-.124v-.124l.002-.123.006-.124.006-.125.01-.125.012-.127.016-.127.017-.126.019-.127.022-.128.025-.129.026-.128.029-.13.03-.13.034-.13.035-.131.037-.133.04-.132.042-.132.044-.133.046-.135.048-.134.05-.135.052-.135.055-.137.056-.135.059-.138.06-.138.063-.138.064-.14.066-.14.07-.14.07-.14.072-.142.074-.143.078-.143.077-.143.08-.144.082-.145.086-.146.085-.147.088-.145.09-.148.092-.148.093-.149.096-.15.098-.15.1-.15.1-.152.105-.152.104-.153.107-.153.109-.154.112-.155.111-.155.115-.157.117-.156.118-.157.12-.158.123-.158.123-.16.125-.159.128-.16.13-.162.13-.161.134-.163.135-.163.135-.164.14-.163.075-.089.065-.077.142-.165.145-.165.145-.167.147-.167.15-.166.152-.17.153-.168.155-.17.157-.169.158-.17.16-.171.162-.172.164-.172.166-.173.166-.173.17-.174.17-.174.174-.175.173-.176.177-.176.178-.176.179-.177.181-.178.184-.177.184-.179.186-.18.188-.178.19-.18.192-.181.193-.18.196-.182.196-.182.198-.182.2-.183.202-.184.03-.027-.05-.13-.108-.29-.104-.292-.1-.291-.1-.293-.096-.292-.092-.294-.09-.294-.029-.095-.2.157-.379.298-.375.299-.373.296-.37.297-.365.295-.363.295-.36.295-.357.293-.354.292-.35.293-.348.29-.344.291-.342.29-.337.287-.335.288-.331.288-.33.286-.324.285-.322.285-.319.283-.315.283-.313.28-.308.282-.305.279-.302.279-.3.277-.294.277-.293.275-.289.275-.285.273-.282.273-.28.27-.275.272-.272.268-.268.268-.265.267-.259.261-.003.004-.259.264-.254.264-.253.26-.247.262-.245.259-.242.258-.238.256-.234.257-.23.254-.228.252-.224.251-.22.25-.215.25-.213.247-.21.246-.205.245-.202.242-.198.243-.196.24-.191.238-.188.238-.183.235-.18.235-.177.232-.173.231-.168.23-.167.227-.161.228-.158.223-.154.223-.15.221-.148.22-.143.217-.138.217-.135.214-.132.213-.128.21-.123.208-.12.207-.117.205-.112.202-.108.201-.105.2-.1.196-.097.195-.094.193-.088.19-.086.19-.08.185-.078.185-.075.183-.035.089-.034.09-.033.088-.032.089-.032.088-.03.086-.03.087-.029.087-.027.085-.027.084-.025.085-.025.083-.023.083-.024.083-.021.082-.022.08-.019.082-.02.08-.018.079-.016.077-.016.078-.016.077-.015.078-.013.076-.012.075-.012.074-.01.074-.01.073-.01.073-.007.071-.007.073-.006.07-.005.069-.004.069-.004.07-.002.066-.002.067v.262l.004.063.003.064.004.062.005.061.006.061.007.06.007.06.009.059.009.058.01.058.01.057.011.056.012.056.013.055.014.054.014.055.016.052.016.053.015.053.019.052.018.05.018.05.02.05.02.05.021.05.022.048.024.048.023.047.024.048.026.046.024.046.042.07.042.068.045.066.045.066.047.064.049.064.05.062.053.062.054.06.057.06.059.06.06.059.062.057.064.057.067.055.068.056.07.055.073.053.074.053.077.052.08.052.08.05.084.049.085.048.089.048.09.047.092.046.094.045.097.044.099.043.101.041.104.041.105.041.108.039.111.038.112.037.114.036.118.034.118.034.12.032.124.032.125.03.128.03.13.027.132.027.134.026.136.024.138.024.14.022.143.021.143.02.147.018.148.018.15.015.154.015.153.014.156.013.16.01.16.01.161.01.164.007.167.006.168.005.17.004.17.001.174.002h.176l.177-.001.178-.002.181-.004.183-.005.184-.006.186-.008.19-.009.189-.01.191-.012.193-.012.195-.013.196-.016.2-.016.199-.017.202-.02.204-.02.204-.021.206-.022.21-.024.21-.025.21-.027.214-.028.214-.028.217-.03.218-.032.219-.032.22-.034.224-.034.224-.036.225-.039.228-.038.229-.04.23-.04.232-.043.232-.044.235-.045.236-.046.238-.047.239-.048.24-.05.242-.05.244-.054.245-.052.245-.055.248-.055.248-.057.25-.059.252-.06.253-.06.255-.06.255-.064.258-.064.257-.065.26-.067.26-.067.263-.069.263-.07.265-.072.266-.072.267-.072.269-.075.27-.076.27-.078.273-.078.273-.08.275-.08.276-.081.277-.083.278-.084.279-.085.28-.086.283-.087.282-.089.284-.09.285-.091.574-.184.578-.19.582-.194.586-.199.063-.022.528-.18.595-.209.6-.212.602-.217.607-.222.612-.224.613-.23.62-.235.621-.238.626-.243.63-.248.632-.25.635-.256.64-.26.643-.265.646-.269.65-.273.652-.276.656-.28.658-.286.662-.29.664-.293.666-.297.67-.301.673-.307.675-.31.678-.312.679-.318.334-.158.348-.164.684-.327.687-.33.688-.335.69-.34.693-.341.695-.347.697-.35.699-.354.7-.358.703-.362.702-.365.706-.37.707-.373.708-.376.71-.38.713-.385.711-.387.714-.392.716-.396.681-.379.034-.02.718-.402.717-.405.72-.41.72-.414.718-.416.715-.417.71-.418.709-.419.704-.418.701-.421.696-.422.692-.422.69-.423.685-.423.681-.424.678-.425.673-.425.67-.425.664-.427.662-.425.657-.428.652-.427.648-.427.644-.428.639-.427.636-.429.63-.428.626-.427.108-.075.513-.353.617-.428.612-.427.607-.428.602-.428.599-.427.592-.427.588-.426.582-.427.578-.426.573-.425.567-.424.563-.424.558-.424.551-.423.546-.422.543-.42.535-.42.532-.421.524-.42.52-.417.514-.417.507-.415.503-.414.497-.414.49-.413.485-.411.48-.41.473-.408.468-.407.461-.407.455-.403.373-.335.077-.068.222-.2.22-.201.22-.2.217-.2.216-.198.215-.199.214-.198.21-.197.21-.198.209-.196.207-.197.204-.196.203-.195.202-.196.2-.194.198-.194.197-.194.195-.193.194-.192.192-.192.19-.192.19-.19.185-.191.186-.19.184-.19.18-.188.18-.189.18-.187.177-.187.175-.187.172-.186.171-.186.17-.184.168-.185.167-.183.164-.184.164-.182.16-.181.159-.182.158-.18.155-.18.154-.18.152-.178.15-.178.148-.178.147-.176.145-.176.143-.175.14-.175.14-.173.137-.173.135-.173.134-.172.132-.17.13-.17.129-.17.125-.168.125-.168.122-.167.099-.137.021-.03.12-.165.116-.164.115-.164.113-.162.112-.163.11-.16.107-.16.106-.16.103-.16.102-.157.099-.156.098-.156.095-.155.094-.155.092-.152.09-.154.087-.15.086-.151.084-.15.082-.149.08-.147.077-.147.076-.146.072-.145.073-.144.069-.142.067-.142.065-.141.063-.14.06-.139.06-.138.058-.136.054-.135.054-.134.05-.133.049-.133.047-.13.045-.13.042-.129.041-.127.038-.127.037-.125.033-.124.033-.122.03-.123.027-.119.027-.119.023-.118.023-.117.02-.114.017-.114.015-.112.015-.112.012-.11.008-.109.008-.108.006-.105.004-.105.001-.104v-.101l-.003-.1-.004-.1-.005-.098-.01-.097-.009-.095-.012-.094-.013-.093-.016-.09-.017-.091-.02-.09-.02-.087-.023-.087-.026-.084-.027-.085-.028-.083-.03-.082-.032-.08-.035-.08-.037-.079-.037-.077-.04-.078-.043-.077-.028-.048-.03-.05-.031-.049-.032-.049-.032-.048-.033-.047-.034-.047-.036-.046-.035-.047-.038-.045-.038-.045-.038-.045-.04-.044-.04-.044-.04-.044-.043-.043-.044-.042-.045-.043-.044-.041-.046-.042-.048-.04-.047-.041-.049-.04-.05-.04-.05-.039-.053-.04-.053-.038-.053-.037-.056-.038-.056-.036-.056-.038-.059-.036-.059-.036-.06-.035-.06-.035-.062-.034-.063-.034-.064-.033-.065-.034-.067-.031-.067-.033-.067-.031-.07-.032-.07-.03-.07-.03-.073-.029-.072-.03-.075-.028-.074-.028-.078-.028-.077-.027-.078-.027-.079-.026-.08-.025-.081-.025-.083-.024-.082-.024-.085-.024-.085-.023-.087-.022-.086-.021-.089-.022-.089-.02-.09-.02-.091-.02-.093-.02-.092-.017-.095-.018-.094-.017-.096-.018-.097-.015-.096-.016-.201-.03-.203-.027-.206-.024-.21-.023-.212-.02-.218-.019-.221-.015-.225-.013-.228-.011-.232-.009-.235-.005-.238-.004-.243-.001h-.247z"/><path fill="#dae03e" d="M64.04 33.964l-.124.27-.129.272-.13.27-.134.27-.136.268-.137.267-.14.265-.142.264-.144.262-.146.26-.149.26-.15.258-.153.257-.154.255-.157.253-.159.252-.16.25-.163.25-.165.247-.167.246-.169.245-.17.242-.174.242-.175.24-.177.238-.179.237-.18.235-.183.234-.185.232-.187.23-.188.229-.19.227-.193.226-.014.016-.179.209-.196.223-.197.22-.199.22-.2.219-.204.216-.204.215-.207.214-.208.21-.21.21-.057.057-.156.15-.215.205-.217.202-.219.2-.22.2-.222.198-.125.109-.1.083-.232.187-.232.185-.233.183-.235.18-.042.033-.205.132-.25.159-.253.157-.253.154-.254.153-.255.15-.163.095-.094.052-.26.14-.263.14-.263.136-.263.135-.265.132-.265.13-.266.129-.268.126-.089.042-.179.08-.27.123-.27.118-.27.117-.273.115-.272.113-.274.11-.274.109-.275.106-.035.014-.24.093-.275.105-.276.104-.276.1-.277.1-.278.097-.25.085-.029.01-.275.103-.277.1-.277.099-.278.097-.279.094-.122.04-.157.054-.279.094-.28.09-.28.09-.283.088-.282.085-.283.083-.284.082-.044.012-.24.067-.285.077-.286.075-.287.074-.287.07-.287.07-.289.068-.218.049-.07.015-.29.06-.292.058-.292.056-.292.054-.286.05h-.006l-.296.033-.297.03-.297.028-.297.025-.297.024-.297.022-.297.019-.298.018-.298.015-.298.01-.299.007-.298.006-.299.003-.298.002-.299-.001-.298-.003-.18-.003-.115-.002-1.217-1.03 1.03-1.217.11-.021.171-.032.278-.055.276-.057.276-.058.275-.061.274-.062.273-.064.271-.065h.001l.272-.064.271-.065.27-.068.27-.07.268-.07.268-.072.266-.075.266-.076.265-.078.006-.002.261-.06.267-.064.267-.066.265-.067.265-.07.065-.016.2-.051.264-.07.263-.071.263-.073.261-.074.262-.077.26-.078.22-.068.04-.012.258-.082.258-.083.258-.086.256-.087.256-.09.254-.09.254-.092.143-.052.11-.043.251-.098.25-.101.25-.102.247-.103.248-.106.025-.011.217-.105.242-.118.24-.12.24-.122.237-.123.236-.125.206-.111.03-.016.232-.132.232-.132.23-.135.23-.136.227-.137.227-.14.225-.14.224-.142.148-.096.074-.047.222-.145.221-.146.22-.147.217-.15.216-.15.215-.152.214-.153.212-.155.076-.057.137-.096.213-.153.212-.154.21-.156.21-.157.207-.16.17-.13.04-.026.217-.143.217-.145.216-.147.215-.15.095-.065.122-.08.218-.146.217-.146.216-.15.215-.15.214-.152.156-.113.058-.041.213-.154.213-.156.212-.157.21-.16.21-.161.208-.163.207-.165.206-.167.205-.17.19-.157.013-.013.202-.173.201-.175.2-.177.198-.178.197-.181.195-.183.195-.184.193-.186.192-.19.19-.19.19-.191.188-.194.186-.196.185-.198.184-.2.183-.201.181-.203.18-.206.177-.207.177-.21.176-.211.173-.213.173-.215.171-.217.17-.22.167-.22.166-.222.165-.225.163-.227.162-.228.16-.231.158-.232.16-.24 1.544-.454.424 1.553z"/><path fill="#dee43f" d="M76.176 37.035l-.077.206-.082.212-.084.21-.088.209-.089.207-.093.206-.094.205-.097.203-.1.202-.102.2-.104.199-.106.198-.108.196-.11.195-.113.194-.115.192-.116.19-.118.19-.12.189-.123.187-.124.186-.125.184-.127.184-.129.182-.13.18-.132.18-.134.179-.135.177-.136.176-.137.175-.139.173-.14.173-.14.17-.144.172-.143.169-.145.168-.145.167-.147.166-.147.165-.148.164-.149.163-.15.16-.15.162-.152.16-.152.159-.153.158-.153.157-.153.156-.155.156-.154.154-.155.153-.155.153-.156.152-.156.15-.31.3-.314.296-.312.292-.213.198-.099.092-.313.29-.238.216-.24.214-.24.212-.244.209-.243.206-.244.203-.245.2-.246.199-.247.195-.248.193-.249.19-.044.034-.206.152-.252.183-.252.18-.253.18-.254.176-.254.174-.255.172-.256.17-.098.064-.16.1-.26.16-.262.158-.262.155-.262.154-.262.152-.124.07-.144.072-.27.134-.273.13-.272.13-.272.129-.273.126-.273.125-.273.124-.273.122-.276.116-.276.115-.277.114-.276.112-.277.11-.277.11-.277.11-.278.109-.278.107-.278.107-.278.105-.126.048-.154.057-.557.206-.56.204-.56.203-.562.2-.564.2-.248.089-.878.319-1.136.413-.442.16-.065.026-.507.197-.509.196-.51.194-.43.162-.082.03-.512.195-.514.192-.515.19-.517.189-.518.185-.189.067-.33.117-.52.18-.523.179-.523.175-.524.173-.263.086-.164.053-.099.03-.264.082-.264.08-.265.082-.264.079-.265.079-.265.078-.266.077-.039.01-.229.056-.269.063-.27.063-.269.06-.27.062-.27.06-.27.059-.27.058-.27.058-.27.056-.27.055-.27.055-.27.053-.067.013-.204.038-.27.049-.272.048-.27.046-.272.046-.27.045-.27.044-.272.043-.27.042-.272.04-.27.04-.115.016-.154.02-1.34-.86.86-1.341.147-.044.11-.033.252-.076.253-.078.253-.08.252-.08.253-.08.252-.081.252-.083.252-.084.252-.085.251-.085.19-.066.062-.02.252-.085.252-.086.251-.087.252-.088.251-.09.251-.088.25-.09.251-.092.25-.092.251-.092.25-.094.25-.095.212-.081.037-.012.253-.084.253-.085.253-.086.253-.086.252-.087.252-.088.252-.09.094-.032.158-.054.252-.088.505-.178.503-.18.503-.183.501-.185.318-.12.182-.068.5-.19.498-.193.498-.194.496-.197.495-.198.078-.032.414-.172.491-.206.49-.208.487-.21.064-.027.42-.196 1.093-.51.846-.394.237-.114.534-.255.53-.255.526-.255.523-.255.52-.257.141-.07.115-.057.257-.128.256-.13.255-.127.254-.13.253-.13.251-.13.251-.13.25-.132.248-.132.248-.133.246-.134.247-.13.247-.131.245-.132.244-.133.244-.134.242-.135.241-.136.24-.138.127-.074.116-.058.246-.125.245-.126.245-.128.243-.13.243-.131.15-.082.094-.048.244-.13.244-.13.244-.132.242-.134.242-.136.242-.138.24-.141.197-.117.044-.025.241-.143.24-.145.24-.147.24-.15.238-.152.238-.155.237-.157.238-.16.236-.162.237-.166.237-.17.33-.238.104-.077.225-.166.33-.244.326-.245.326-.25.161-.123.161-.125.161-.125.161-.126.16-.127.158-.127.16-.128.156-.13.157-.128.156-.13.155-.13.155-.131.153-.132.152-.132.152-.134.151-.134.15-.134.148-.136.147-.136.146-.137.145-.138.144-.14.143-.14.141-.14.14-.141.14-.142.137-.143.136-.145.134-.145.133-.146.132-.147.13-.148.13-.15.126-.15.126-.151.123-.152.123-.154.12-.154.12-.156.116-.157.115-.158.114-.16.111-.16.11-.162.108-.163.106-.164.104-.166.101-.167.1-.168.098-.17.096-.171.094-.173.091-.174.093-.182 1.487-.597.581 1.494z"/><path fill="#f0f46e" d="M83.106 40.045l-.21.426-.217.429-.219.43-.224.43-.226.43-.115.218-.116.215-.116.216-.118.216-.118.215-.119.216-.12.216-.12.215-.123.216-.123.216-.124.215-.124.215-.126.216-.126.215-.127.215-.129.215-.129.215-.13.215-.13.214-.132.214-.133.215-.133.214-.135.213-.135.214-.136.213-.137.213-.138.213-.139.212-.14.212-.14.212-.142.21-.142.212-.144.21-.144.21-.145.21-.146.21-.147.21-.148.209-.148.208-.15.208-.15.208-.152.207-.152.206-.153.206-.154.206-.155.205-.156.204-.157.204-.157.204-.159.202-.159.202-.16.202-.13.16-.032.04-.162.202-.162.2-.164.199-.164.198-.166.198-.166.198-.168.196-.168.196-.169.195-.17.195-.17.193-.173.193-.172.192-.174.19-.175.192-.175.189-.176.189-.178.188-.098.103-.08.083-.18.185-.182.184-.182.183-.183.183-.184.18-.185.18-.186.18-.187.179-.188.177-.188.176-.19.175-.032.03-.16.142-.195.169-.196.168-.196.167-.197.167-.198.164-.199.164-.2.163-.153.123-.049.036-.209.15-.21.149-.21.148-.21.147-.213.145-.213.144-.214.142-.214.14-.215.14-.216.139-.216.137-.193.119-.025.015-.22.13-.22.13-.222.129-.222.126-.223.125-.223.123-.225.122-.225.12-.225.118-.226.117-.227.115-.228.114-.229.112-.228.109-.205.097-.205.096-.139.064-.067.03-.206.094-.206.092-.207.09-.207.09-.208.089-.207.088-.208.087-.209.086-.208.085-.209.083-.21.083-.209.082-.21.08-.21.08-.21.079-.21.078-.212.077-.212.076-.064.023-.147.053-.21.076-.212.075-.212.073-.212.073-.212.072-.213.07-.213.072-.212.069-.214.069-.213.067-.214.067-.213.066-.214.066-.14.04-.074.026-.213.068-.213.068-.213.066-.214.066-.214.066-.215.065-.427.126-.429.124-.298.084-.132.038-.43.12-.43.119-.432.116-.43.113-.434.11-.432.108-.434.106-.377.09-.056.013-.435.1-.434.1-.435.096-.435.094-.435.093-.436.09-.435.089-.412.08-.024.006-.436.08-.437.08-.436.079-.436.077-.436.074-.228.039-.21.027-.438.055-.439.053-.438.053-.437.05-.438.05-.436.049-.436.048-.436.046-.435.046-.107.01-.328.03-.434.042-.434.039-.865.076-.862.074-.674.056-.183.015-1.279-.951.951-1.28.18-.037.66-.14.84-.18.843-.182.42-.092.421-.093.318-.071.104-.022.422-.092.422-.092.422-.093.422-.094.421-.096.422-.097.421-.097.421-.1.42-.1.201-.048.221-.045.423-.086.422-.088.422-.09.422-.09.421-.093.023-.005.398-.086.42-.093.42-.094.42-.096.417-.1.418-.1.417-.101.416-.104.053-.013.362-.093.414-.108.413-.11.412-.112.411-.115.41-.117.408-.12.408-.121.125-.038.281-.088.404-.13.404-.132.2-.066.2-.068.2-.068.2-.07.2-.07.198-.07.07-.024.128-.05.196-.075.196-.077.196-.078.195-.078.195-.08.194-.08.194-.08.194-.08.193-.082.192-.082.192-.084.192-.084.191-.084.132-.06.058-.026.19-.088.188-.088.19-.09.186-.09.188-.09.186-.091.187-.092.185-.093.185-.094.185-.095.184-.095.183-.096.183-.097.182-.098.181-.098.181-.1.181-.1.18-.101.058-.033.121-.07.18-.101.176-.103.194-.114.194-.115.192-.117.192-.12.191-.118.191-.122.19-.122.19-.125.188-.125.188-.127.187-.128.187-.13.186-.131.186-.132.021-.015.165-.116.187-.132.185-.134.185-.135.184-.136.184-.137.183-.14.183-.14.181-.14.182-.142.18-.144.18-.145.042-.034.143-.105.186-.138.186-.14.185-.14.185-.14.184-.143.184-.144.183-.145.152-.122.031-.024.185-.144.185-.145.184-.146.183-.148.183-.148.183-.15.182-.151.181-.152.181-.153.18-.154.18-.156.081-.07.1-.085.18-.157.178-.157.178-.158.18-.16.176-.16.177-.161.176-.163.176-.163.175-.164.175-.165.174-.167.173-.167.173-.168.172-.17.172-.168.171-.171.17-.171.17-.173.033-.034.136-.14.168-.173.167-.175.167-.176.166-.177.166-.177.164-.178.165-.18.163-.178.163-.181.162-.18.162-.182.16-.182.16-.183.16-.183.16-.185.157-.184.157-.186.156-.185.156-.187.155-.187.155-.187.154-.188.153-.19.152-.188.151-.19.151-.19.15-.19.15-.191.148-.191.148-.192.147-.192.146-.192.146-.193.145-.193.144-.194.143-.194.142-.194.142-.194.141-.195.14-.195.14-.195.138-.196.138-.195.137-.196.136-.196.135-.197.135-.196.134-.197.133-.197.132-.197.131-.197.13-.196.26-.396.254-.395.252-.395.25-.395.246-.397 1.543-.458.427 1.552z"/><g><path fill="#f0f46e" d="M89.674 51.309l-.14.285-.146.287-.147.285-.148.285-.15.282-.154.28-.154.279-.157.277-.159.275-.16.274-.161.272-.165.271-.166.27-.167.266-.169.266-.172.264-.173.263-.174.261-.176.259-.178.258-.18.256-.181.255-.183.253-.185.251-.186.251-.187.248-.19.247-.19.245-.193.244-.194.243-.195.24-.197.24-.198.238-.2.236-.201.236-.203.234-.203.231-.206.23-.207.23-.207.228-.21.226-.21.226-.212.223-.213.223-.214.22-.216.22-.217.218-.218.217-.22.216-.219.214-.15.145-.072.068-.222.211-.223.212-.224.209-.225.207-.227.208-.227.205-.23.204-.229.203-.23.202-.232.2-.232.2-.233.197-.234.198-.235.196-.236.194-.084.069-.154.123-.238.191-.24.19-.24.187-.24.188-.243.186-.242.185-.243.183-.244.183-.244.182h-.003l-.246.175-.249.175-.25.173-.25.173-.25.17-.252.171-.252.17-.028.019-.23.137-.261.155-.261.153-.262.153-.26.152-.263.15-.262.15-.262.148-.263.148-.264.146-.015.01-.25.132-.266.141-.265.14-.266.138-.266.139-.267.138-.266.135-.267.136-.266.134-.267.135-.268.133-.533.262-.142.07-.393.19-.534.255-.535.253-.535.25-.534.247-.534.244-.533.242-.081.036-.45.206-.53.241-.53.238-.53.237-.284.125-.287.124-.27.114-.021.01-.292.127-.293.126-.297.126-.299.123-.303.121-.304.12-.307.12-.31.116-.017.007-.293.112-.313.115-.316.114-.317.114-.32.11-.321.11-.323.107-.325.106-.326.105-.329.103-.287.087-.042.013-.33.099-.333.097-.334.095-.335.093-.336.091-.337.09-.337.086-.339.086-.34.083-.34.08-.09.022-.251.057-.34.074-.344.072-.342.07-.343.068-.342.066-.343.063-.142.025-.202.028-.346.046-.344.044-.344.04-.344.039-.343.036-.342.035-.342.03-.34.03-.34.026-.339.023-.337.021-.336.018-.024.001-.312.012-.334.012-.332.007-.33.005-.33.003-.327-.001-.324-.003-.324-.006-.321-.008-.32-.013-.316-.015-.123-.007-.186-.01-1.132-1.121 1.12-1.133.18-.013.119-.008.294-.024.296-.026.298-.03.3-.033.302-.034.303-.038.305-.042.307-.043.307-.047.31-.048.288-.049.022-.003.311-.052.313-.054.314-.057.314-.06.315-.062.316-.064.317-.067.317-.07.317-.071.317-.074.318-.076.318-.079.186-.046.133-.029.32-.07.32-.071.32-.075.321-.076.32-.079.32-.08.233-.06.085-.022.32-.082.317-.083.318-.085.317-.088.316-.09.315-.09.313-.093.312-.096.312-.096.31-.098.038-.013.27-.087.305-.1.306-.103.303-.105.3-.105.3-.108.297-.109.294-.11.293-.111.29-.114.27-.107.017-.006.284-.117.282-.118.278-.12.276-.121.272-.122.27-.122.267-.124.263-.125.019-.009.238-.122.253-.133.25-.133.5-.27.5-.271.502-.274.425-.234.076-.042.498-.281.498-.284.497-.286.497-.287.496-.29.494-.294.362-.216.131-.078.495-.297.244-.149.246-.15.244-.15.245-.15.244-.153.244-.152.243-.153.243-.154.243-.154.241-.156.227-.147.015-.009.242-.153.243-.153.242-.155.24-.156.24-.156.242-.156.238-.158.24-.159.238-.16.21-.141.028-.017.245-.149.244-.149.243-.15.244-.152.241-.152.242-.153.239-.153.003-.001.243-.15.243-.152.242-.152.242-.154.24-.154.241-.155.24-.157.238-.157.238-.159.153-.103.085-.055.237-.16.237-.16.236-.162.235-.163.235-.164.234-.164.232-.166.232-.167.231-.169.23-.17.23-.17.229-.173.227-.173.227-.175.226-.176.07-.056.154-.122.224-.179.222-.18.22-.18.222-.184.22-.184.218-.186.217-.187.217-.188.214-.19.215-.191.213-.192.212-.195.211-.195.21-.197.209-.198.207-.2.206-.202.206-.203.203-.204.203-.206.202-.208.2-.208.2-.211.197-.213.197-.213.194-.216.194-.217.193-.219.191-.22.19-.222.19-.224.187-.225.185-.228.185-.229.183-.23.182-.233.18-.234.18-.236.177-.239.175-.24.175-.24.173-.244.171-.244.17-.248.17-.249.165-.25.165-.254.165-.255.162-.256.162-.262 1.54-.453.432 1.545z"/></g></svg>