<svg xmlns="http://www.w3.org/2000/svg" fill-rule="evenodd" stroke-linecap="round" stroke-linejoin="round" stroke-miterlimit="1.5" clip-rule="evenodd" viewBox="0 0 128 128"><path fill="none" stroke="#865e40" stroke-width="9.997731799999999" d="M54.233 15.322c4.418 6.676 9.407 12.884 13.349 19.881 7.31 12.982 12.971 26.933 20.54 39.747 7.273 12.31 15.79 23.814 22.76 36.328"/><path fill="#5d5d5d" d="M52.326 17.34c-6.189.837-16.653 2.376-25.458 5.015-2.466.738-6.745 1.444-8.55 3.418-1.947 2.13-.09 6.997.654 9.25 2.437 7.366 7.34 13.714 11.852 19.908 1.151 1.58 3.306 5.642 5.162 6.167.25.07 1.557-1.167 1.784-1.35 2.023-1.63 3.603-3.552 5.24-5.553 6.302-7.698 15.81-17.606 20.223-22.342 1.224-1.314 3.324-3.326 4.75-4.67a2.43 2.43 0 00.333-3.13l-5.017-7.362a2.431 2.431 0 00-2.535-1.004c-2.184.49-6.096 1.335-8.438 1.652z"/><path fill="#fff" fill-opacity=".655" d="M40.574 54.803a1.902 1.902 0 01-.133 2.414 24.94 24.94 0 01-2.67 2.531c-.229.182-1.535 1.42-1.786 1.35-1.857-.525-4.01-4.587-5.161-6.168-4.512-6.194-9.414-12.54-11.851-19.907-.746-2.253-2.602-7.12-.656-9.25.594-.649 1.454-1.161 2.43-1.581a1.876 1.876 0 012.546 1.043c.286.688.558 1.382.833 2.074 3.1 7.793 7.062 14.63 11.964 21.405 1.48 2.043 2.989 4.06 4.484 6.089z"/></svg>