<svg xmlns="http://www.w3.org/2000/svg" viewBox="0 0 128 128"><path fill="#64878e" d="M128 87.1c0 3.5-2.84 6.34-6.34 6.34H8.75c-3.5 0-6.34-2.84-6.34-6.34V39.83c0-3.5 2.84-6.34 6.34-6.34h112.9c3.5 0 6.34 2.84 6.34 6.34V87.1z"/><path fill="#78a3ad" d="M125.46 84.67c0 3.5-2.84 6.34-6.34 6.34H6.21c-3.5 0-6.34-2.84-6.34-6.34V37.4c0-3.5 2.84-6.34 6.34-6.34h112.9c3.5 0 6.34 2.84 6.34 6.34v47.27z"/><path fill="#7c7d7d" d="M16.72 55.88c0 1.08-.88 1.96-1.96 1.96H8.89c-1.08 0-1.96-.88-1.96-1.96v-5.87c0-1.08.88-1.96 1.96-1.96h5.87c1.08 0 1.96.88 1.96 1.96v5.87zm12.91 0c0 1.08-.88 1.96-1.96 1.96H21.8c-1.08 0-1.96-.88-1.96-1.96v-5.87c0-1.08.88-1.96 1.96-1.96h5.87c1.08 0 1.96.88 1.96 1.96v5.87zm12.9 0c0 1.08-.88 1.96-1.96 1.96H34.7c-1.08 0-1.96-.88-1.96-1.96v-5.87c0-1.08.88-1.96 1.96-1.96h5.87c1.08 0 1.96.88 1.96 1.96v5.87zm12.9 0c0 1.08-.88 1.96-1.96 1.96H47.6c-1.08 0-1.96-.88-1.96-1.96v-5.87c0-1.08.88-1.96 1.96-1.96h5.87c1.08 0 1.96.88 1.96 1.96v5.87zm12.91 0c0 1.08-.88 1.96-1.96 1.96h-5.87c-1.08 0-1.96-.88-1.96-1.96v-5.87c0-1.08.88-1.96 1.96-1.96h5.87c1.08 0 1.96.88 1.96 1.96v5.87zm12.9 0c0 1.08-.88 1.96-1.96 1.96h-5.87c-1.08 0-1.96-.88-1.96-1.96v-5.87c0-1.08.88-1.96 1.96-1.96h5.87c1.08 0 1.96.88 1.96 1.96v5.87zm12.91 0c0 1.08-.88 1.96-1.96 1.96h-5.87c-1.08 0-1.96-.88-1.96-1.96v-5.87c0-1.08.88-1.96 1.96-1.96h5.87c1.08 0 1.96.88 1.96 1.96v5.87zm12.9 0c0 1.08-.88 1.96-1.96 1.96h-5.87c-1.08 0-1.96-.88-1.96-1.96v-5.87c0-1.08.88-1.96 1.96-1.96h5.87c1.08 0 1.96.88 1.96 1.96v5.87zm12.9 0c0 1.08-.88 1.96-1.96 1.96h-5.87c-1.08 0-1.96-.88-1.96-1.96v-5.87c0-1.08.88-1.96 1.96-1.96H118c1.08 0 1.96.88 1.96 1.96v5.87zM16.72 69.65c0 1.08-.88 1.96-1.96 1.96H8.89c-1.08 0-1.96-.88-1.96-1.96v-5.87c0-1.08.88-1.96 1.96-1.96h5.87c1.08 0 1.96.88 1.96 1.96v5.87zm12.91 0c0 1.08-.88 1.96-1.96 1.96H21.8c-1.08 0-1.96-.88-1.96-1.96v-5.87c0-1.08.88-1.96 1.96-1.96h5.87c1.08 0 1.96.88 1.96 1.96v5.87zm12.9 0c0 1.08-.88 1.96-1.96 1.96H34.7c-1.08 0-1.96-.88-1.96-1.96v-5.87c0-1.08.88-1.96 1.96-1.96h5.87c1.08 0 1.96.88 1.96 1.96v5.87zm12.9 0c0 1.08-.88 1.96-1.96 1.96H47.6c-1.08 0-1.96-.88-1.96-1.96v-5.87c0-1.08.88-1.96 1.96-1.96h5.87c1.08 0 1.96.88 1.96 1.96v5.87zm12.91 0c0 1.08-.88 1.96-1.96 1.96h-5.87c-1.08 0-1.96-.88-1.96-1.96v-5.87c0-1.08.88-1.96 1.96-1.96h5.87c1.08 0 1.96.88 1.96 1.96v5.87zm12.9 0c0 1.08-.88 1.96-1.96 1.96h-5.87c-1.08 0-1.96-.88-1.96-1.96v-5.87c0-1.08.88-1.96 1.96-1.96h5.87c1.08 0 1.96.88 1.96 1.96v5.87zm12.91 0c0 1.08-.88 1.96-1.96 1.96h-5.87c-1.08 0-1.96-.88-1.96-1.96v-5.87c0-1.08.88-1.96 1.96-1.96h5.87c1.08 0 1.96.88 1.96 1.96v5.87zm25.8 0c0 1.08-.88 1.96-1.96 1.96H99.22c-1.08 0-1.96-.88-1.96-1.96v-5.87c0-1.08.88-1.96 1.96-1.96H118c1.08 0 1.96.88 1.96 1.96v5.87zM16.72 83.43c0 1.08-.88 1.96-1.96 1.96H8.89c-1.08 0-1.96-.88-1.96-1.96v-5.87c0-1.08.88-1.96 1.96-1.96h5.87c1.08 0 1.96.88 1.96 1.96v5.87zm12.91 0c0 1.08-.88 1.96-1.96 1.96H21.8c-1.08 0-1.96-.88-1.96-1.96v-5.87c0-1.08.88-1.96 1.96-1.96h5.87c1.08 0 1.96.88 1.96 1.96v5.87zm64.52 0c0 1.08-.88 1.96-1.96 1.96H34.7c-1.08 0-1.96-.88-1.96-1.96v-5.87c0-1.08.88-1.96 1.96-1.96h57.49c1.08 0 1.96.88 1.96 1.96v5.87zm12.9 0c0 1.08-.88 1.96-1.96 1.96h-5.87c-1.08 0-1.96-.88-1.96-1.96v-5.87c0-1.08.88-1.96 1.96-1.96h5.87c1.08 0 1.96.88 1.96 1.96v5.87zm12.9 0c0 1.08-.88 1.96-1.96 1.96h-5.87c-1.08 0-1.96-.88-1.96-1.96v-5.87c0-1.08.88-1.96 1.96-1.96H118c1.08 0 1.96.88 1.96 1.96v5.87zM16.72 42.17c0 1.08-.88 1.96-1.96 1.96H8.89c-1.08 0-1.96-.88-1.96-1.96v-1.96c0-1.08.88-1.96 1.96-1.96h5.87c1.08 0 1.96.88 1.96 1.96v1.96zm12.91 0c0 1.08-.88 1.96-1.96 1.96H21.8c-1.08 0-1.96-.88-1.96-1.96v-1.96c0-1.08.88-1.96 1.96-1.96h5.87c1.08 0 1.96.88 1.96 1.96v1.96zm12.9 0c0 1.08-.88 1.96-1.96 1.96H34.7c-1.08 0-1.96-.88-1.96-1.96v-1.96c0-1.08.88-1.96 1.96-1.96h5.87c1.08 0 1.96.88 1.96 1.96v1.96zm12.9 0c0 1.08-.88 1.96-1.96 1.96H47.6c-1.08 0-1.96-.88-1.96-1.96v-1.96c0-1.08.88-1.96 1.96-1.96h5.87c1.08 0 1.96.88 1.96 1.96v1.96zm12.91 0c0 1.08-.88 1.96-1.96 1.96h-5.87c-1.08 0-1.96-.88-1.96-1.96v-1.96c0-1.08.88-1.96 1.96-1.96h5.87c1.08 0 1.96.88 1.96 1.96v1.96zm12.9 0c0 1.08-.88 1.96-1.96 1.96h-5.87c-1.08 0-1.96-.88-1.96-1.96v-1.96c0-1.08.88-1.96 1.96-1.96h5.87c1.08 0 1.96.88 1.96 1.96v1.96zm12.91 0c0 1.08-.88 1.96-1.96 1.96h-5.87c-1.08 0-1.96-.88-1.96-1.96v-1.96c0-1.08.88-1.96 1.96-1.96h5.87c1.08 0 1.96.88 1.96 1.96v1.96zm12.9 0c0 1.08-.88 1.96-1.96 1.96h-5.87c-1.08 0-1.96-.88-1.96-1.96v-1.96c0-1.08.88-1.96 1.96-1.96h5.87c1.08 0 1.96.88 1.96 1.96v1.96zm12.9 0c0 1.08-.88 1.96-1.96 1.96h-5.87c-1.08 0-1.96-.88-1.96-1.96v-1.96c0-1.08.88-1.96 1.96-1.96H118c1.08 0 1.96.88 1.96 1.96v1.96z"/><path fill="#fff" d="M15.94 55.1c0 1.08-.88 1.96-1.96 1.96H8.11c-1.08 0-1.96-.88-1.96-1.96v-5.87c0-1.08.88-1.96 1.96-1.96h5.87c1.08 0 1.96.88 1.96 1.96v5.87zm12.9 0c0 1.08-.88 1.96-1.96 1.96h-5.87c-1.08 0-1.96-.88-1.96-1.96v-5.87c0-1.08.88-1.96 1.96-1.96h5.87c1.08 0 1.96.88 1.96 1.96v5.87zm12.91 0c0 1.08-.88 1.96-1.96 1.96h-5.87c-1.08 0-1.96-.88-1.96-1.96v-5.87c0-1.08.88-1.96 1.96-1.96h5.87c1.08 0 1.96.88 1.96 1.96v5.87zm12.9 0c0 1.08-.88 1.96-1.96 1.96h-5.87c-1.08 0-1.96-.88-1.96-1.96v-5.87c0-1.08.88-1.96 1.96-1.96h5.87c1.08 0 1.96.88 1.96 1.96v5.87zm12.91 0c0 1.08-.88 1.96-1.96 1.96h-5.87c-1.08 0-1.96-.88-1.96-1.96v-5.87c0-1.08.88-1.96 1.96-1.96h5.87c1.08 0 1.96.88 1.96 1.96v5.87zm12.9 0c0 1.08-.88 1.96-1.96 1.96h-5.87c-1.08 0-1.96-.88-1.96-1.96v-5.87c0-1.08.88-1.96 1.96-1.96h5.87c1.08 0 1.96.88 1.96 1.96v5.87zm12.9 0c0 1.08-.88 1.96-1.96 1.96h-5.87c-1.08 0-1.96-.88-1.96-1.96v-5.87c0-1.08.88-1.96 1.96-1.96h5.87c1.08 0 1.96.88 1.96 1.96v5.87zm12.91 0c0 1.08-.88 1.96-1.96 1.96h-5.87c-1.08 0-1.96-.88-1.96-1.96v-5.87c0-1.08.88-1.96 1.96-1.96h5.87c1.08 0 1.96.88 1.96 1.96v5.87zm12.9 0c0 1.08-.88 1.96-1.96 1.96h-5.87c-1.08 0-1.96-.88-1.96-1.96v-5.87c0-1.08.88-1.96 1.96-1.96h5.87c1.08 0 1.96.88 1.96 1.96v5.87zM15.94 68.87c0 1.08-.88 1.96-1.96 1.96H8.11c-1.08 0-1.96-.88-1.96-1.96V63c0-1.08.88-1.96 1.96-1.96h5.87c1.08 0 1.96.88 1.96 1.96v5.87zm12.9 0c0 1.08-.88 1.96-1.96 1.96h-5.87c-1.08 0-1.96-.88-1.96-1.96V63c0-1.08.88-1.96 1.96-1.96h5.87c1.08 0 1.96.88 1.96 1.96v5.87zm12.91 0c0 1.08-.88 1.96-1.96 1.96h-5.87c-1.08 0-1.96-.88-1.96-1.96V63c0-1.08.88-1.96 1.96-1.96h5.87c1.08 0 1.96.88 1.96 1.96v5.87zm12.9 0c0 1.08-.88 1.96-1.96 1.96h-5.87c-1.08 0-1.96-.88-1.96-1.96V63c0-1.08.88-1.96 1.96-1.96h5.87c1.08 0 1.96.88 1.96 1.96v5.87zm12.91 0c0 1.08-.88 1.96-1.96 1.96h-5.87c-1.08 0-1.96-.88-1.96-1.96V63c0-1.08.88-1.96 1.96-1.96h5.87c1.08 0 1.96.88 1.96 1.96v5.87zm12.9 0c0 1.08-.88 1.96-1.96 1.96h-5.87c-1.08 0-1.96-.88-1.96-1.96V63c0-1.08.88-1.96 1.96-1.96h5.87c1.08 0 1.96.88 1.96 1.96v5.87zm12.9 0c0 1.08-.88 1.96-1.96 1.96h-5.87c-1.08 0-1.96-.88-1.96-1.96V63c0-1.08.88-1.96 1.96-1.96h5.87c1.08 0 1.96.88 1.96 1.96v5.87zm25.81 0c0 1.08-.88 1.96-1.96 1.96H98.44c-1.08 0-1.96-.88-1.96-1.96V63c0-1.08.88-1.96 1.96-1.96h18.78c1.08 0 1.96.88 1.96 1.96v5.87zM15.94 82.65c0 1.08-.88 1.96-1.96 1.96H8.11c-1.08 0-1.96-.88-1.96-1.96v-5.87c0-1.08.88-1.96 1.96-1.96h5.87c1.08 0 1.96.88 1.96 1.96v5.87zm12.9 0c0 1.08-.88 1.96-1.96 1.96h-5.87c-1.08 0-1.96-.88-1.96-1.96v-5.87c0-1.08.88-1.96 1.96-1.96h5.87c1.08 0 1.96.88 1.96 1.96v5.87zm64.52 0c0 1.08-.88 1.96-1.96 1.96H33.92c-1.08 0-1.96-.88-1.96-1.96v-5.87c0-1.08.88-1.96 1.96-1.96h57.49c1.08 0 1.96.88 1.96 1.96v5.87zm12.91 0c0 1.08-.88 1.96-1.96 1.96h-5.87c-1.08 0-1.96-.88-1.96-1.96v-5.87c0-1.08.88-1.96 1.96-1.96h5.87c1.08 0 1.96.88 1.96 1.96v5.87zm12.9 0c0 1.08-.88 1.96-1.96 1.96h-5.87c-1.08 0-1.96-.88-1.96-1.96v-5.87c0-1.08.88-1.96 1.96-1.96h5.87c1.08 0 1.96.88 1.96 1.96v5.87zM15.94 41.39c0 1.08-.88 1.96-1.96 1.96H8.11c-1.08 0-1.96-.88-1.96-1.96v-1.96c0-1.08.88-1.96 1.96-1.96h5.87c1.08 0 1.96.88 1.96 1.96v1.96zm12.9 0c0 1.08-.88 1.96-1.96 1.96h-5.87c-1.08 0-1.96-.88-1.96-1.96v-1.96c0-1.08.88-1.96 1.96-1.96h5.87c1.08 0 1.96.88 1.96 1.96v1.96zm12.91 0c0 1.08-.88 1.96-1.96 1.96h-5.87c-1.08 0-1.96-.88-1.96-1.96v-1.96c0-1.08.88-1.96 1.96-1.96h5.87c1.08 0 1.96.88 1.96 1.96v1.96zm12.9 0c0 1.08-.88 1.96-1.96 1.96h-5.87c-1.08 0-1.96-.88-1.96-1.96v-1.96c0-1.08.88-1.96 1.96-1.96h5.87c1.08 0 1.96.88 1.96 1.96v1.96zm12.91 0c0 1.08-.88 1.96-1.96 1.96h-5.87c-1.08 0-1.96-.88-1.96-1.96v-1.96c0-1.08.88-1.96 1.96-1.96h5.87c1.08 0 1.96.88 1.96 1.96v1.96zm12.9 0c0 1.08-.88 1.96-1.96 1.96h-5.87c-1.08 0-1.96-.88-1.96-1.96v-1.96c0-1.08.88-1.96 1.96-1.96h5.87c1.08 0 1.96.88 1.96 1.96v1.96zm12.9 0c0 1.08-.88 1.96-1.96 1.96h-5.87c-1.08 0-1.96-.88-1.96-1.96v-1.96c0-1.08.88-1.96 1.96-1.96h5.87c1.08 0 1.96.88 1.96 1.96v1.96zm12.91 0c0 1.08-.88 1.96-1.96 1.96h-5.87c-1.08 0-1.96-.88-1.96-1.96v-1.96c0-1.08.88-1.96 1.96-1.96h5.87c1.08 0 1.96.88 1.96 1.96v1.96zm12.9 0c0 1.08-.88 1.96-1.96 1.96h-5.87c-1.08 0-1.96-.88-1.96-1.96v-1.96c0-1.08.88-1.96 1.96-1.96h5.87c1.08 0 1.96.88 1.96 1.96v1.96z"/></svg>