<svg xmlns="http://www.w3.org/2000/svg" viewBox="0 0 128 128"><path fill="#fcc21b" d="M9.6 114.26 64 20.03l54.41 94.23z"/><path fill="#2f2f2f" d="M127.07 115.93 66.89 11.7c-.6-1.03-1.7-1.67-2.89-1.67-1.19 0-2.29.64-2.88 1.67L.93 115.93c-.6 1.03-.6 2.3 0 3.34.6 1.03 1.7 1.66 2.89 1.66h120.36c1.19 0 2.29-.63 2.89-1.66.59-1.04.59-2.31 0-3.34zM9.6 114.26 64 20.03l54.41 94.23H9.6z"/><text x="53.662" y="110.97" fill="#2f2f2f" stroke-width="5.566" font-family="Comic Neue" font-size="103.904" font-weight="400" letter-spacing="0" style="line-height:1.25;-inkscape-font-specification:'Comic Neue';font-variant-ligatures:normal;font-variant-caps:normal;font-variant-numeric:normal;font-feature-settings:normal;text-align:start" word-spacing="0"><tspan x="53.662" y="110.97" font-weight="700" style="-inkscape-font-specification:'Comic Neue Bold'">!</tspan></text></svg>