<svg xmlns="http://www.w3.org/2000/svg" xmlns:xlink="http://www.w3.org/1999/xlink" viewBox="0 0 128 128"><path fill="#c2c2c2" stroke="#c2c2c2" stroke-miterlimit="10" stroke-width="5" d="M62.53 83.85 34.09 123c-5.51-4.01-6.74-11.72-2.73-17.24l25.38-34.93m15.24-20.98c5.51 4.01 6.74 11.72 2.73 17.24l-3.8 5.23-5.8-13.02L85 32"/><defs><path id="a" d="M72 46c7.06 5.13 10.13 14.94 5 22l-4.86 6.69-8.93-16.59L72 46z"/></defs><clipPath id="b"><use overflow="visible" xlink:href="#a"/></clipPath><path fill="none" stroke="#999" stroke-miterlimit="10" stroke-width="4" d="M76.06 71.81 62.53 53.44" clip-path="url(#b)"/><path fill="#c2c2c2" stroke="#c2c2c2" stroke-miterlimit="10" stroke-width="5" d="m41 36 13 17m1.02-3.15c-5.51 4.01-6.74 11.72-2.73 17.24L92.91 123c5.51-4.01 6.74-11.72 2.73-17.24L42.96 34.13"/><circle cx="63.26" cy="71.26" r="2.74" fill="#2f2f2f"/><path fill="#c2c2c2" stroke="#c2c2c2" stroke-miterlimit="10" stroke-width="5" d="M83 38 70 55"/><path fill="#dd5322" d="m88 40-6.38 7.17a2 2 0 0 1-3.09-.13l-3.84-5.11L80 33l8 7zm-49.62 0 6.34 7.13a2 2 0 0 0 3.12-.16l3.79-5.28L46.38 33l-8 7z"/><path fill="#dd5322" d="M32.54 43.25c-7.22 0-14.25-3.74-18.11-10.43-5.76-9.97-2.33-22.77 7.63-28.52 9.97-5.76 22.76-2.33 28.51 7.64 5.75 9.97 2.33 22.76-7.64 28.51-3.27 1.9-6.86 2.8-10.39 2.8zm-.06-32.75c-2.01 0-4.05.51-5.92 1.59-5.67 3.27-7.62 10.55-4.35 16.22 3.27 5.67 10.55 7.62 16.22 4.35 5.67-3.27 7.62-10.55 4.35-16.22-2.19-3.81-6.19-5.94-10.3-5.94zm62.98 32.75c-3.54 0-7.12-.9-10.4-2.79-9.97-5.75-13.4-18.55-7.64-28.51 5.75-9.97 18.55-13.4 28.51-7.64 9.97 5.75 13.4 18.55 7.64 28.51-3.85 6.68-10.89 10.43-18.11 10.43zm.06-32.75c-4.11 0-8.11 2.13-10.3 5.93-3.27 5.67-1.32 12.95 4.35 16.22 5.67 3.27 12.95 1.32 16.22-4.35 3.27-5.67 1.32-12.95-4.35-16.22a11.999 11.999 0 0 0-5.92-1.58z"/></svg>