<svg xmlns="http://www.w3.org/2000/svg" xmlns:xlink="http://www.w3.org/1999/xlink" viewBox="0 0 1000 666.667"><path d="M0 0h1000v666.667H0z" style="fill:#002868"/><path d="M0 0h1000v333.333H0z" style="fill:#bf0a30"/><use width="1000" height="666.667" transform="matrix(-1 0 0 1 1000 0)" xlink:href="#a"/><use width="1000" height="666.667" transform="matrix(-1 0 0 1 1000 0)" xlink:href="#b"/><use width="1000" height="666.667" transform="matrix(-1 0 0 1 1000 0)" xlink:href="#c"/><path d="m0 217.033 500 116.3L0 78.134z" style="fill:#f0f;stroke:none"/><path id="a" d="m0 217.033 500 116.3L0 78.134z" style="fill:#fed700;fill-opacity:1;stroke:none"/><path id="b" d="M114.6 0 500 333.333 258.7 0z" style="fill:#fed700;fill-opacity:1;stroke:none"/><path id="c" d="M369.8 0 500 333.333 453.1 0z" style="fill:#fed700;fill-opacity:1;stroke:none"/><path d="M500 166.477 608.368 500 324.657 293.871h350.687L391.632 500z" style="fill:#ce5c17"/></svg>