<svg xmlns="http://www.w3.org/2000/svg" viewBox="0 0 72 72"><g fill="none" stroke="#000" stroke-linejoin="round" stroke-width="2"><path d="M59.035 60.137h-46.07a.968.968 0 0 1-.965-.965v-46.07a.968.968 0 0 1 .965-.965h46.07a.968.968 0 0 1 .965.965v46.07a.968.968 0 0 1-.965.965z"/><path stroke-linecap="round" d="m33.287 43.637-6.429-15-6.428 15m2.142-3.591h8.572m15.511-3.909h-5.72v-7.472h5.72a3.736 3.736 0 0 1 3.736 3.736h0a3.736 3.736 0 0 1-3.736 3.736zm0 7.473h-5.72v-7.473h5.72a3.736 3.736 0 0 1 3.736 3.736h0a3.736 3.736 0 0 1-3.736 3.736z"/></g><path fill="#d22f27" d="M59.035 60.137h-46.07a.968.968 0 0 1-.965-.965v-46.07a.968.968 0 0 1 .965-.965h46.07a.968.968 0 0 1 .965.965v46.07a.968.968 0 0 1-.965.965z"/><g fill="none" stroke="#fff" stroke-linejoin="round" stroke-width="2"><path d="M59.035 60.137h-46.07a.968.968 0 0 1-.965-.965v-46.07a.968.968 0 0 1 .965-.965h46.07a.968.968 0 0 1 .965.965v46.07a.968.968 0 0 1-.965.965z"/><path stroke-linecap="round" d="m33.287 43.637-6.429-15-6.428 15m2.142-3.591h8.572m15.511-3.909h-5.72v-7.472h5.72a3.736 3.736 0 0 1 3.736 3.736h0a3.736 3.736 0 0 1-3.736 3.736zm0 7.473h-5.72v-7.473h5.72a3.736 3.736 0 0 1 3.736 3.736h0a3.736 3.736 0 0 1-3.736 3.736z"/></g></svg>