<svg xmlns="http://www.w3.org/2000/svg" viewBox="0 0 72 72"><path fill="#d0cfce" d="M59.035 60h-46.07a.968.968 0 0 1-.965-.965v-46.07c0-.53.434-.965.965-.965h46.07c.53 0 .965.434.965.965v46.07c0 .53-.434.965-.965.965z"/><g fill="none" stroke="#000" stroke-miterlimit="10" stroke-width="2"><path d="M59.035 60h-46.07a.968.968 0 0 1-.965-.965v-46.07c0-.53.434-.965.965-.965h46.07c.53 0 .965.434.965.965v46.07c0 .53-.434.965-.965.965z"/><path stroke-linecap="round" stroke-linejoin="round" d="M47.946 32.027v8h3.429m-19.42 0h0a2.857 2.857 0 0 1-2.857-2.857v-2.286a2.857 2.857 0 0 1 2.857-2.857h0a2.857 2.857 0 0 1 2.857 2.857v2.286a2.857 2.857 0 0 1-2.857 2.857zm9.13 0h0a2.857 2.857 0 0 1-2.857-2.857v-2.286a2.857 2.857 0 0 1 2.857-2.857h0a2.857 2.857 0 0 1 2.857 2.857v2.286a2.857 2.857 0 0 1-2.857 2.857zm-14.707-.719a2.847 2.847 0 0 1-1.896.719h0a2.857 2.857 0 0 1-2.857-2.857v-2.286 2.286-2.286a2.857 2.857 0 0 1 2.857-2.857h0c.728 0 1.391.271 1.896.719"/></g></svg>