<svg xmlns="http://www.w3.org/2000/svg" viewBox="0 0 72 72"><path fill="#5c9e31" d="M5 17h62v38H5z"/><path fill="#d22f27" d="M5 17h62v13H5z"/><path d="M5 30h62v12H5z"/><path fill="#fff" stroke="#fff" stroke-linecap="round" stroke-linejoin="round" d="M32.136 36.125a4.053 4.053 0 0 1 3.378-3.924 4.395 4.395 0 0 0-.81-.076 4.004 4.004 0 1 0 0 8 4.395 4.395 0 0 0 .81-.076 4.053 4.053 0 0 1-3.378-3.924zm6.057 1.041 1.328-4 1.145 3.939-3.18-2.373 4-.099-3.293 2.533z"/><path fill="none" stroke="#000" stroke-linecap="round" stroke-linejoin="round" stroke-width="2" d="M5 17h62v38H5z"/></svg>