<svg xmlns="http://www.w3.org/2000/svg" viewBox="0 0 72 72"><path fill="#d0cfce" d="M59.035 60h-46.07a.968.968 0 0 1-.965-.965v-46.07c0-.53.434-.965.965-.965h46.07c.53 0 .965.434.965.965v46.07c0 .53-.434.965-.965.965z"/><path fill="none" stroke="#000" stroke-miterlimit="10" stroke-width="2" d="M59.035 60h-46.07a.968.968 0 0 1-.965-.965v-46.07c0-.53.434-.965.965-.965h46.07c.53 0 .965.434.965.965v46.07c0 .53-.434.965-.965.965z"/><path d="M49.14 29.85h-5.48v-4.782a.499.499 0 0 0-.499-.499h-1.73a.499.499 0 0 0-.5.499v4.782h-9.162v-4.782a.499.499 0 0 0-.498-.499h-1.73a.499.499 0 0 0-.5.499v4.782h-6.18a.499.499 0 0 0-.499.499v1.73c0 .276.223.499.498.499h6.182v7.58c0 .275.223.498.498.498h1.731a.499.499 0 0 0 .498-.498v-7.58h9.163v4.91c0 2.956-1.112 5.764-3.05 7.703-1.29 1.289-2.702 2.003-4.206 2.126a.5.5 0 0 0-.473.491v1.736c0 .284.237.521.52.505 2.23-.132 4.275-1.116 6.088-2.93 2.446-2.446 3.849-5.956 3.849-9.632v-4.909h5.482a.499.499 0 0 0 .498-.498v-1.731a.499.499 0 0 0-.498-.499z"/></svg>