<svg xmlns="http://www.w3.org/2000/svg" viewBox="0 0 72 72"><path fill="#d0cfce" d="M59.035 60h-46.07a.968.968 0 01-.965-.965v-46.07a.968.968 0 01.965-.965h46.07a.968.968 0 01.965.965v46.07a.968.968 0 01-.965.965z"/><g stroke="#000" stroke-width="2"><path stroke-linecap="round" stroke-linejoin="round" d="M25 37h22M21.5 41.5h29"/><path fill="none" stroke-linecap="round" stroke-linejoin="round" d="M36.5 43v7.5h-5M29 44s-3 5-7 6M43 44s3 5 7 6"/><path stroke-linecap="round" stroke-linejoin="round" d="M28 22v10M21 24.574h12.5M21.5 32.5s6-4 6-8M28.852 24.5s1.648 5 4.648 6M43.5 22v10M50.5 24.574H38M50 32.5s-6-4-6-8M42.648 24.5S40.645 30.75 37 32"/><path fill="none" stroke-miterlimit="10" d="M59.035 60h-46.07a.968.968 0 01-.965-.965v-46.07a.968.968 0 01.965-.965h46.07a.968.968 0 01.965.965v46.07a.968.968 0 01-.965.965z"/></g></svg>