<svg xmlns="http://www.w3.org/2000/svg" viewBox="0 0 72 72"><path fill="#e27022" d="M4 4h64.09v64H4z"/><path fill="#f4aa41" d="M4 31.112l21.09 5.515-.443 4.98L4 41.035M68.09 31.112L47 36.627l.443 4.98 20.647-.572M68.09 11.879l-17 20-4-3L59.927 4.008 68.09 4M4 4l.001 9.364 2.108 1.991 18.531 18.59 3.75-3.307L12.1 4M32.502 4l1.936 22.255 4.983.411L42.692 4"/><circle cx="37.09" cy="35.879" r="15" fill="#fcea2b"/><path fill="#9b9b9a" d="M10.013 45.981v-17h10v17M34.013 32.981h13V68h-13z"/><path fill="#d0cfce" d="M51.013 68V36.981h16V68M5.013 68V45.981h34V68"/><path fill="#fcea2b" d="M9.013 48.985h2.991v5.997H9.013zM15.013 48.985h2.991v5.997h-2.991zM27.013 48.985h2.991v5.997h-2.991zM33.013 48.985h2.991v5.997h-2.991zM55.013 39.985h2.991v5.997h-2.991zM61.013 49.985h2.991v5.997h-2.991zM61.013 59.985h2.991v5.997h-2.991zM55.013 59.985h2.991v5.997h-2.991zM33.013 58.985h2.991v5.997h-2.991zM21.013 58.985h2.991v5.997h-2.991zM9.013 58.985h2.991v5.997H9.013z"/><g fill="none" stroke="#000" stroke-linecap="round" stroke-width="2"><path stroke-linejoin="round" d="M51.013 66.981v-30h16v30M5.013 66.981v-21h34v21"/><path stroke-linejoin="round" d="M35.013 42.981v-10h12v34M11.013 42.981v-14h8v14M57.013 45.981h-2v-5M63.013 55.981h-2v-5M29.013 54.981h-2v-5M35.013 54.981h-2v-5M35.013 64.981h-2v-5M17.013 54.981h-2v-5M11.013 54.981h-2v-5M11.013 64.981h-2v-5M23.013 64.981h-2v-5M57.013 65.981h-2v-5M63.013 65.981h-2v-5M15.013 31.981v11M39.013 35.981v7M43.013 35.981v31"/><path stroke-miterlimit="10" d="M23.875 42.982a15.002 15.002 0 1128.091-9.037"/></g></svg>