<svg xmlns="http://www.w3.org/2000/svg" viewBox="0 0 72 72"><g stroke-linecap="round" stroke-linejoin="round" stroke-miterlimit="10" stroke-width="2"><circle cx="36" cy="36" r="28" fill="#92D3F5"/><path fill="#B1CC33" d="M49.44 11.43c-.539.906-1.645 2.143-2.44 2.57-1.245.67-1.904.267-3 1-1.269.848-1.21 1.938-2 2-.802.063-.688-1.993-1-3-.452-1.458-.23-1.527-1-2-1.083-.666-3.212-1.05-5 0-.71.417-.75.682-3 4-1.71 2.522-2.188 3.11-2 4 .199.942.043 1.747 1 2 1.187.313 1.366-.272 2-1 1.328-1.525 2.358-3.783 3-4 .571-.193 2.066 1.35 2 3-.046 1.165-.852 1.922-2 3-.742.697-2.875 1.5-6 2-1.719.275-1.408.852-2.063 1.594-.842.955-.461 2.169-1.28 3.312-1.026 1.43-3.473 1.792-3.657 2.72-.157.79 1.96 1.358 3 1.374.85.013 1.064-.772 3-2 .74-.47 1.75-1.281 2.688-1.25.504.017 1.828.285 2.343.719.594.5-.156 1.844-.406 3.156s-2.897 1.865-3.854 2.02c-1.574.258-4.144-.522-5.604.938-1 1-1.116 1.766-1.167 3.417-.013.417.937 3.032 2 4 1.144 1.042 2.294-.836 4 0 1.746.855 2.493 2.729 3 4 .508 1.273.176 1.168 1 5 .415 1.927.32 1.12 1 4 .563 2.383.589 2.768 1 3 1.173.663 3.9-.816 5-3 .69-1.368.211-1.962 1-5 .393-1.512.59-2.268 1-3 1.733-3.086 4.883-3.126 5-5 .08-1.282-1.357-1.851-1-3 .342-1.1 1.81-1.06 2-2 .258-1.275-2.25-2.316-2-3 .282-.775 4.07-1.01 6 1 .64.666.498.978 2 4 1.384 2.785 1.764 3.043 2 3 .429-.078.322-1.135 1-3 .324-.892 1.093-3.006 2-3 .625.004.739 1.01 2 2 .71.558 1.79.88 2.347 1.038.428-1.945.653-3.965.653-6.038 0-10.632-5.925-19.88-14.653-24.62"/></g><g fill="none" stroke="#000" stroke-linecap="round" stroke-linejoin="round" stroke-miterlimit="10" stroke-width="2"><circle cx="36" cy="36" r="28"/><path d="M49.44 11.43c-.539.906-1.645 2.143-2.44 2.57-1.245.67-1.904.267-3 1-1.269.848-1.21 1.938-2 2-.802.063-.688-1.993-1-3-.452-1.458-.23-1.527-1-2-1.083-.666-3.212-1.05-5 0-.71.417-.75.682-3 4-1.71 2.522-2.188 3.11-2 4 .199.942.043 1.747 1 2 1.187.313 1.366-.272 2-1 1.328-1.525 2.358-3.783 3-4 .571-.193 2.066 1.35 2 3-.046 1.165-.852 1.922-2 3-.742.697-2.875 1.5-6 2-1.719.275-1.408.852-2.063 1.594-.842.955-.461 2.169-1.28 3.312-1.026 1.43-3.473 1.792-3.657 2.72-.157.79 1.96 1.358 3 1.374.85.013 1.064-.772 3-2 .74-.47 1.75-1.281 2.688-1.25.504.017 1.828.285 2.343.719.594.5-.156 1.844-.406 3.156s-2.897 1.865-3.854 2.02c-1.574.258-4.144-.522-5.604.938-1 1-1.116 1.766-1.167 3.417-.013.417.937 3.032 2 4 1.144 1.042 2.294-.836 4 0 1.746.855 2.493 2.729 3 4 .508 1.273.176 1.168 1 5 .415 1.927.32 1.12 1 4 .563 2.383.589 2.768 1 3 1.173.663 3.9-.816 5-3 .69-1.368.211-1.962 1-5 .393-1.512.59-2.268 1-3 1.733-3.086 4.883-3.126 5-5 .08-1.282-1.357-1.851-1-3 .342-1.1 1.81-1.06 2-2 .258-1.275-2.25-2.316-2-3 .282-.775 4.07-1.01 6 1 .64.666.498.978 2 4 1.384 2.785 1.764 3.043 2 3 .429-.078.322-1.135 1-3 .324-.892 1.093-3.006 2-3 .625.004.739 1.01 2 2 .71.558 1.79.88 2.347 1.038.428-1.945.653-3.965.653-6.038 0-10.632-5.925-19.88-14.653-24.62"/></g></svg>