<svg xmlns="http://www.w3.org/2000/svg" viewBox="0 0 72 72"><g stroke="#000"><g fill="none" stroke-linecap="round" stroke-miterlimit="10" stroke-width="2"><path d="M41.773 19.473a7.218 7.218 0 0 1-5.695 9.864"/><path d="M41.773 19.473a6.054 6.054 0 0 1-5.695 9.864"/></g><path stroke-linejoin="round" stroke-width="2" d="m22 22.381 1.854 1.325-.688-2.173L25 20.18l-2.279-.107L22 18l-.721 2.162L19 20.18l1.834 1.353-.688 2.173L22 22.381z"/><path stroke-linejoin="round" stroke-width=".75" d="m27 32.46.618.442-.229-.724.611-.451-.76-.006L27 31l-.24.721-.76.006.611.361-.229.814.618-.442z"/><path stroke-linejoin="round" d="m51.5 26.337.927.663-.344-1.087.917-.676-1.14-.099-.36-.991-.36 1.081-1.14.009.917.676L50.573 27l.927-.663z"/></g><rect width="48" height="48" x="12" y="12" fill="#1e50a0" rx="1"/><g stroke="#f1b31c"><g fill="none" stroke-linecap="round" stroke-miterlimit="10" stroke-width="2"><path d="M41.773 19.473a7.218 7.218 0 0 1-5.695 9.864"/><path d="M41.773 19.473a6.054 6.054 0 0 1-5.695 9.864"/></g><path fill="#f1b31c" stroke-linejoin="round" stroke-width="2" d="m22 22.381 1.854 1.325-.688-2.173L25 20.18l-2.279-.107L22 18l-.721 2.162L19 20.18l1.834 1.353-.688 2.173L22 22.381z"/><path fill="#f1b31c" stroke-linejoin="round" stroke-width=".75" d="m27 32.46.618.442-.229-.724.611-.451-.76-.006L27 31l-.24.721-.76.006.611.361-.229.814.618-.442z"/><path fill="#f1b31c" stroke-linejoin="round" d="m51.5 26.337.927.663-.344-1.087.917-.676-1.14-.099-.36-.991-.36 1.081-1.14.009.917.676L50.573 27l.927-.663z"/></g><g fill="none" stroke="#000" stroke-width="2"><path stroke-linecap="round" stroke-miterlimit="10" d="M12.923 48.038h46.154M24 36.962 12 48.038"/><path stroke-miterlimit="10" d="M24 36.962v23.076m24 0V36.962m-24 4.26-7.385 6.816M24 45.482l-2.769 2.556"/><path stroke-linecap="round" stroke-miterlimit="10" d="M48 36.962 36 48.038"/><path stroke-miterlimit="10" d="m48 41.222-7.385 6.816M48 45.482l-2.769 2.556"/><path stroke-linecap="round" stroke-miterlimit="10" d="m24 36.962 12 11.076"/><path stroke-miterlimit="10" d="m24 41.222 7.385 6.816M24 45.482l2.769 2.556"/><path stroke-linecap="round" stroke-miterlimit="10" d="m48 36.962 12 11.076"/><path stroke-miterlimit="10" d="m48 41.222 7.385 6.816M48 45.482l2.769 2.556"/><rect width="48" height="48" x="12" y="12" stroke-linejoin="round" rx="1"/></g></svg>