<svg xmlns="http://www.w3.org/2000/svg" viewBox="0 0 72 72"><path fill="#8967aa" d="m54.75 64.05-9.824-39.03c-12.55 2.717-15 5.801-19.45 11.19z"/><path fill="#b399c8" d="m29.18 31.43 25.57 32.62-21.28-36.38zm9.64-5.54 15.93 38.16-9.824-39.03c-1.715 1.145-3.645 1.719-6.111.862z"/><g fill="none" stroke="#000" stroke-linecap="round" stroke-linejoin="round" stroke-width="2"><path d="M25.48 36.21c2.03-.5 3.683-3.204 3.7-4.783 1.717-.292 3.768-1.743 4.293-3.76 1.858.703 4.348-.05 5.344-1.785 1.475 1.057 4.452.992 6.111-.862l9.824 39.03z"/><path d="M33.47 27.67 22.86 9.52c-2.058-3.519-7.198-.525-5.144 2.988"/></g></svg>