<svg xmlns="http://www.w3.org/2000/svg" viewBox="0 0 72 72"><path fill="#FCEA2B" d="M44.042 51.455c.433 4.393 3.042 9.358 10.892 14.313.782.494.535 1.673-.378 1.818-1.702.27-3.447.414-5.227.414-18.077 0-32.73-14.327-32.73-32 0-17.673 14.653-32 32.73-32 1.78 0 3.524.143 5.226.413.826.131 1.139 1.162.524 1.728-4.037 3.716-7.234 7.963-9.486 12.893a10.04 10.04 0 0 0-.406 7.37c.833 2.478 2.323 5.741 4.918 8.596 4.375 4.812-3.563 5.375-3.563 5.375s-3.146.583-.5 3.437c1.161 1.253.791 1.964-.173 2.703 3.264 2.861-1.827 4.94-1.827 4.94"/><path fill="#F1B31C" d="M54.038 4.322C52.27 4.02 50.785 4 48.928 4c-17.673 0-32 14.327-32 32s14.327 32 32 32c1.72 0 3.407-.136 5.052-.397 0 0 .688-.31.78-1.174 0 0-3.039.342-4.603.342-16.994 0-30.77-13.777-30.77-30.77S33.162 5.228 50.156 5.228c1.673 0 3.314.133 4.915.39"/><circle cx="36" cy="27.25" r="3"/><path fill="none" stroke="#000" stroke-linecap="round" stroke-linejoin="round" stroke-miterlimit="10" stroke-width="2" d="M44.344 51.455c.412 4.182 2.797 8.882 9.797 13.6 1.155.778.678 2.567-.706 2.726a33.24 33.24 0 0 1-3.804.219C31.554 68 16.9 53.673 16.9 36c0-17.673 14.654-32 32.73-32 1.405 0 2.787.09 4.143.26 1.271.159 1.778 1.702.855 2.59-3.685 3.547-6.627 7.57-8.737 12.192a10.023 10.023 0 0 0-.405 7.353c.832 2.479 2.323 5.747 4.92 8.605 4.376 4.813-3.562 5.375-3.562 5.375s-3.146.583-.5 3.438c1.161 1.252.276 2.42-.688 3.159-1.043.799-2.333 1.194-3.646 1.244-1.631.061-3.955-.27-5.706-2.216m8.04 5.455s5.091-2.079 1.827-4.94"/><path fill="none" stroke="#000" stroke-linecap="round" stroke-linejoin="round" stroke-miterlimit="10" stroke-width="2" d="M40.781 19.875s-4.781-3-9.562 1.906"/></svg>