<svg xmlns="http://www.w3.org/2000/svg" viewBox="0 0 72 72"><path fill="#FCEA2B" d="m36 10-4.552-5.678-2.777 6.724-5.97-4.16-.758 7.237-6.9-2.306 1.306 7.158-7.271-.279 3.264 6.502-7.053 1.785 4.973 5.312L4 36l6.262 3.705-4.973 5.312 7.054 1.786-3.264 6.502 7.27-.279-1.305 7.158 6.9-2.306.759 7.236 5.968-4.16 2.777 6.724L36 62l4.552 5.678 2.777-6.724 5.97 4.16.758-7.237 6.9 2.306-1.306-7.158 7.271.279-3.264-6.502 7.053-1.785-4.973-5.312L68 36l-6.262-3.705 4.973-5.312-7.054-1.786 3.264-6.502-7.27.279 1.305-7.158-6.9 2.306-.759-7.236-5.968 4.16-2.777-6.724z"/><path fill="none" stroke="#000" stroke-linecap="round" stroke-linejoin="round" stroke-miterlimit="10" stroke-width="2" d="m36 10-4.552-5.678-2.777 6.724-5.97-4.16-.758 7.237-6.9-2.306 1.306 7.158-7.271-.279 3.264 6.502-7.053 1.785 4.973 5.312L4 36l6.262 3.705-4.973 5.312 7.054 1.786-3.264 6.502 7.27-.279-1.305 7.158 6.9-2.306.759 7.236 5.968-4.16 2.777 6.724L36 62l4.552 5.678 2.777-6.724 5.97 4.16.758-7.237 6.9 2.306-1.306-7.158 7.271.279-3.264-6.502 7.053-1.785-4.973-5.312L68 36l-6.262-3.705 4.973-5.312-7.054-1.786 3.264-6.502-7.27.279 1.305-7.158-6.9 2.306-.759-7.236-5.968 4.16-2.777-6.724z"/><circle cx="27.846" cy="33.789" r="3"/><circle cx="44.154" cy="33.789" r="3"/><path fill="none" stroke="#000" stroke-linecap="round" stroke-linejoin="round" stroke-miterlimit="10" stroke-width="2" d="M43.676 46.382A12.906 12.906 0 0 1 36 48.933c-2.902 0-5.527-.928-7.676-2.552m3.451-23.377s-4.775-2.6-9.55 1.652m18-1.652s4.775-2.6 9.55 1.652"/></svg>