<svg xmlns="http://www.w3.org/2000/svg" viewBox="0 0 72 72"><rect width="48" height="48" x="12" y="12" fill="#d0cfce" rx="1"/><g fill="none" stroke="#000" stroke-linecap="round" stroke-miterlimit="10" stroke-width="2"><rect width="48" height="48" x="12" y="12" rx="1"/><path d="M38 54.938 21 55s-5 0-5-5 6-5 6-5m1-3.062s1-9 9-9a7.5 7.5 0 0 1 6 3m1 3s4.163-4.613 9-3a6.83 6.83 0 0 1 4 4m-2 3s7-1 7 5-8 7-15 7m-9.985-36.514C34.17 15.534 40.265 13.85 43 19m-7 10.064S40 29 45 29a3.508 3.508 0 1 0 0-7m-25-2s2-3 5-3 4 3 4 3m20.644-2.187A6.05 6.05 0 0 1 54.814 24M27.696 47.365s3.696-5.598 7.929-2.268M20 23c-5 1-3 6 0 6h11"/></g></svg>