<svg xmlns="http://www.w3.org/2000/svg" viewBox="0 0 72 72"><path fill="#d0cfce" d="M14.597 29.907a.968.968 0 0 1-.86.868C8.233 31.365 4 36.783 4 43.379c0 6.99 4.848 13.372 10.827 13.372h41.278c1.4-.037 2.559-.158 3.722-.551C63.026 54.629 68 49.407 68 42.66c0-7.078-4.891-12.873-11.08-13.343a1.03 1.03 0 0 1-.949-.832c-1.382-7.1-7.761-12.436-15.303-12.436-4.9 0-9.267 2.219-12.102 5.749-.277.345-.742.503-1.15.331-1.092-.457-2.244-.679-3.533-.679-4.872 0-8.871 3.718-9.286 8.457z"/><g fill="none" stroke="#000" stroke-linecap="round" stroke-linejoin="round" stroke-width="2"><path stroke-miterlimit="10" d="M59.444 55.46C64.388 53.835 68 48.701 68 42.617c0-7.079-4.891-12.873-11.08-13.344a1.03 1.03 0 0 1-.949-.831c-1.382-7.1-7.761-12.436-15.303-12.436-4.9 0-9.267 2.219-12.102 5.748-.277.345-.742.503-1.15.332-1.092-.458-2.244-.68-3.533-.68-4.872 0-8.871 3.719-9.286 8.458a.968.968 0 0 1-.86.868C8.233 31.322 4 36.74 4 43.337c0 6.99 4.848 12.656 10.827 12.656h36.219"/><path d="M31.686 32.062a6.3 6.3 0 0 1-4.312 1.438 6.3 6.3 0 0 1-4.313-1.437m25.878-.001a6.3 6.3 0 0 1-4.312 1.438 6.3 6.3 0 0 1-4.313-1.437"/><path stroke-miterlimit="10" d="M39.611 45.333c1.657 0 3-1.138 3-2.541 0-1.053-.755-1.956-1.832-2.342a3.462 3.462 0 0 0-1.168-.2m-.427 10.156c.94 0 2.016-.57 2.331-1.472.504-1.442-.355-3.054-1.919-3.6m22.768.225c2.154-3.308 2.011-7.934-1.992-9.798-1.79-.834-3.868-.61-4.945 1.044a1.787 1.787 0 0 0 .522 2.473M46.09 46.55c4.76 2.767 12.005 5.352 16.274-.991m-6.409 14.267c-.217 1.933-1.959 3.369-3.892 3.152a3.524 3.524 0 0 1-3.095-2.99"/><path stroke-miterlimit="10" d="M46.09 46.55s10.703 5.718 9.865 13.276"/></g></svg>