<svg xmlns="http://www.w3.org/2000/svg" viewBox="0 0 72 72"><path fill="#5c9e31" d="M36.22 29.316c-2.304-4.288-8.34-5.524-13.48-2.762s-6.74 8.181-4.435 12.47l1.194-1.28c1.811-1.923 2.625-2.303 4.848-3.745 0 0 6.095-4.534 11.874-4.683z"/><path fill="#b1cc33" d="M37.285 28.249c-2.34-.881-4.95-.161-6.923 1.646a9.49 9.49 0 0 0-2.446 3.66c-1.61 4.275-.025 8.827 3.54 10.17.214-5.592 2.3-11.133 5.829-15.476z"/><path fill="#5c9e31" d="M56.61 19.958c-1.767-4.536-7.608-6.497-13.046-4.379-3.445 1.342-5.903 3.999-6.792 6.92-.514 1.688-.504 3.466.144 5.128 0 0 8.625-8.458 19.693-7.669z"/><path fill="#b1cc33" d="M61.703 34.872c1.499-5.694-2.82-11.767-9.646-13.564a15.227 15.227 0 0 0-3.148-.487c-5.644-.27-10.66 2.73-11.926 7.542 8.631-.558 17.482 1.773 24.72 6.509z"/><path fill="#5c9e31" d="M12.279 23.744s12.538-.949 23.347 2.623l.78.442s2.241-6.849-3.302-9.732c-4.65-2.417-16.394-4.517-20.825 6.666z"/><g fill="none" stroke="#000" stroke-linecap="round" stroke-linejoin="round" stroke-width="2"><path d="M39.977 32.442c2.427 6.867 4.277 16.83 2.94 30.322M36.22 28.316h0c-2.304-4.288-8.34-5.524-13.48-2.762s-7.44 8.479-5.135 12.767h0a33.184 33.184 0 0 1 6.087-5.067M56.43 19.031h0c-2.064-4.408-8.022-5.975-13.307-3.5-3.349 1.568-5.623 4.383-6.316 7.357-.4 1.72-.272 3.492.485 5.107"/><path d="M37.285 28.249c-2.34-.881-4.95-.161-6.923 1.646a9.49 9.49 0 0 0-2.446 3.66c-1.61 4.275-.025 8.827 3.54 10.17v0c.214-5.592 2.3-11.133 5.829-15.476h0z"/><path d="M61.703 34.872c1.499-5.694-2.82-11.767-9.646-13.564a15.227 15.227 0 0 0-3.148-.487c-5.644-.27-10.66 2.73-11.926 7.542h0c8.631-.558 17.482 1.773 24.72 6.509h0zM34.187 19.01a13.25 13.25 0 0 0-.269-.252c-1.776-1.624-4.16-2.947-6.882-3.619-6.852-1.692-13.504 1.944-14.757 7.697h0a39.803 39.803 0 0 1 6.913-.137m37.239-3.668L55 18.906"/></g></svg>