<svg xmlns="http://www.w3.org/2000/svg" viewBox="0 0 72 72"><path fill="#b1cc33" d="M28.919 27.91c8.152-6.829 20.773-4.925 20.773-4.925s-.6 12.836-8.624 19.455-20.774 4.925-20.774 4.925.473-12.627 8.625-19.455z"/><g fill="none" stroke="#000" stroke-linecap="round" stroke-linejoin="round" stroke-width="2"><path d="M29.63 27.91c8.152-6.829 20.773-4.925 20.773-4.925s-.599 12.836-8.624 19.455-20.774 4.925-20.774 4.925.473-12.627 8.625-19.455zM54.086 38.543a10.246 10.246 0 01-1.58 4.74 11.317 11.317 0 01-7.901 4.741M58.826 41.703a10.245 10.245 0 01-1.58 4.74 11.317 11.317 0 01-7.901 4.741M17.74 30.642a10.245 10.245 0 011.58-4.741 11.317 11.317 0 017.902-4.741M13 27.481a10.245 10.245 0 011.58-4.74A11.317 11.317 0 0122.481 18M18 50l2.901-2.976"/></g></svg>