<svg xmlns="http://www.w3.org/2000/svg" viewBox="0 0 72 72"><path fill="#EA5A47" stroke="#EA5A47" stroke-linecap="round" stroke-linejoin="round" stroke-miterlimit="10" stroke-width="2" d="M34.4 46.5c.9-1.7 2.3-3.1 4.2-4 4.9-2.5 10.8-.5 13.3 4.4s.5 10.8-4.4 13.3-10.8.5-13.3-4.4"/><path fill="#D22F27" d="M47.5 60.2c-1.3.7-2.7 1-4 1 11.3-9.3 1.8-18.3.1-19.7 3.4.2 6.6 2.2 8.3 5.4 2.4 4.9.4 10.8-4.4 13.3z"/><circle cx="28.5" cy="51.4" r="9.9" fill="#EA5A47"/><path fill="#B1CC33" d="M35.2 15.7c4.5 4 5.7 11.6 5.7 11.6s-7.7-.4-12.1-4.4c-4.5-4-5.7-11.6-5.7-11.6s7.7.4 12.1 4.4z"/><path fill="#D22F27" d="M33.1 60.2c-1.3.7-2.7 1-4 1 11.3-9.3 1.8-18.3.1-19.7 3.4.2 6.6 2.2 8.3 5.4 2.4 4.9.5 10.8-4.4 13.3z"/><g fill="none" stroke="#000" stroke-linecap="round" stroke-linejoin="round" stroke-miterlimit="10" stroke-width="2"><path d="M39.1 42.3c1.2-.5 2.5-.8 3.9-.8 5.5 0 9.9 4.4 9.9 9.9s-4.4 9.9-9.9 9.9M19.5 10.7v1c.1 17.1 3.2 27.7 4.3 31"/><path d="M43 61.2c-1.5 0-2.9-.3-4.2-.9"/><circle cx="28.5" cy="51.4" r="9.9"/><path d="M35.2 15.7c4.5 4 5.7 11.6 5.7 11.6s-7.7-.4-12.1-4.4c-4.5-4-5.7-11.6-5.7-11.6s7.7.4 12.1 4.4z"/><circle cx="28.5" cy="51.4" r="9.9"/><path d="M39 42.3S19.5 32.2 19.5 10.7"/></g></svg>