<svg xmlns="http://www.w3.org/2000/svg" viewBox="0 0 72 72"><path fill="#ea5a47" d="M52.396 38c1-8-6.716-13-15-13s-15.973 7.78-17 16c-1 8 7.716 16 16 16s14.972-10.78 16-19z"/><path fill="#ea5a47" d="M36.396 25c10-1 14 5 14 5m2 3c4.87 16.561-11.615 30.123-16 31-5 1-13-11-15-16"/><path fill="#d22f27" d="M45.396 42.5a19.482 19.482 0 0 0-9.91-16.967 7.39 7.39 0 0 1 2.91-.533c8.284 0 15 5 14 13-1.123 8.986-3 22-16 26-1.888.58-4.23-1.672-5.005-2.799A19.498 19.498 0 0 0 45.396 42.5z"/><path fill="#ea5a47" d="M20.396 45s-8.024-19.649 16-20"/><circle cx="25.396" cy="35" r="2" fill="#d22f27"/><circle cx="33.396" cy="35" r="2" fill="#d22f27"/><circle cx="40.396" cy="35" r="2" fill="#d22f27"/><circle cx="47.396" cy="35" r="2" fill="#d22f27"/><circle cx="44.396" cy="43" r="2" fill="#d22f27"/><circle cx="36.396" cy="43" r="2" fill="#d22f27"/><circle cx="28.396" cy="43" r="2" fill="#d22f27"/><circle cx="32.396" cy="52" r="2" fill="#d22f27"/><circle cx="40.396" cy="52" r="2" fill="#d22f27"/><path fill="#186648" d="M32.397 10.658q.097-.244.203-.488A14 14 0 0 1 34.527 7a14.02 14.02 0 0 1 2.92 15.473c-.509 1.168-5.514-.344-6.728-.28"/><path fill="#b1cc33" d="M35.051 20.933a14.001 14.001 0 0 1-.14 3.707 13.956 13.956 0 0 1-9.941-15.8 14.02 14.02 0 0 1 10.082 12.094zm10.961-10.267a14.62 14.62 0 0 0-.193-1.827 13.956 13.956 0 0 0-9.942 15.801A14.02 14.02 0 0 0 45.96 12.546"/><path fill="#5c9e31" d="M43.965 10.896a12.992 12.992 0 0 0-.071-1.345 13.997 13.997 0 0 1 1.925-.712 14.657 14.657 0 0 1 .193 1.827l-.053 1.88A14.02 14.02 0 0 1 35.877 24.64a14.696 14.696 0 0 1-.186-1.744 12.85 12.85 0 0 0 8.274-12z"/><g fill="none"><path d="M52.396 38c1-8-6.716-13-15-13s-15.973 7.78-17 16c-1 8 7.716 16 16 16s14.972-10.78 16-19z"/><path stroke="#000" stroke-linecap="round" stroke-linejoin="round" stroke-width="2" d="M36.396 25c10-1 14 5 14 5"/><path d="M45.396 42.5a19.482 19.482 0 0 0-9.91-16.967 7.39 7.39 0 0 1 2.91-.533c8.284 0 15 5 14 13-1.123 8.986-3 22-16 26-1.888.58-4.23-1.672-5.005-2.799A19.498 19.498 0 0 0 45.396 42.5z"/><path stroke="#000" stroke-linecap="round" stroke-linejoin="round" stroke-width="2" d="M20.396 45s-8.024-19.649 16-20"/><circle cx="25.396" cy="35" r="2"/><circle cx="33.396" cy="35" r="2"/><circle cx="40.396" cy="35" r="2"/><circle cx="47.396" cy="35" r="2"/><circle cx="44.396" cy="43" r="2"/><circle cx="36.396" cy="43" r="2"/><circle cx="28.396" cy="43" r="2"/><circle cx="32.396" cy="52" r="2"/><circle cx="40.396" cy="52" r="2"/><path stroke="#000" stroke-linecap="round" stroke-linejoin="round" stroke-width="2" d="M25.192 35.5v-2.016m8 2.016v-2.016m7 2.016v-2.016m7 2.016v-2.016m-3 10.016v-2.016m-8 2.016v-2.016m-8 2.016v-2.016m4 11.016v-2.016m8 2.016v-2.016M52.396 33c4.87 16.561-11.615 30.123-16 31-5 1-13-11-15-16m15-23c10-1 14 5 14 5"/><path stroke="#000" stroke-linecap="round" stroke-linejoin="round" stroke-width="1.558" d="M32.397 10.658q.097-.244.203-.488A14 14 0 0 1 34.527 7a14.09 14.09 0 0 1 3.762 6.919"/><path stroke="#000" stroke-linejoin="round" stroke-width="1.558" d="M35.051 20.933a14.001 14.001 0 0 1-.14 3.707 13.956 13.956 0 0 1-9.941-15.8 14.02 14.02 0 0 1 10.082 12.094z"/><path stroke="#000" stroke-linecap="round" stroke-linejoin="round" stroke-width="1.558" d="M46.012 10.666a14.62 14.62 0 0 0-.193-1.827 13.956 13.956 0 0 0-9.942 15.801A14.02 14.02 0 0 0 45.96 12.546"/><path d="M43.965 10.896a12.992 12.992 0 0 0-.071-1.345 13.997 13.997 0 0 1 1.925-.712 14.657 14.657 0 0 1 .193 1.827l-.053 1.88A14.02 14.02 0 0 1 35.877 24.64a14.696 14.696 0 0 1-.186-1.744 12.85 12.85 0 0 0 8.274-12z"/><path stroke="#000" stroke-linecap="round" stroke-linejoin="round" stroke-width="1.558" d="M46.012 10.666a14.62 14.62 0 0 0-.193-1.827 13.956 13.956 0 0 0-9.942 15.801A14.02 14.02 0 0 0 45.96 12.546"/><path stroke="#000" stroke-linecap="round" stroke-linejoin="round" stroke-width="2" d="M25.192 35.5v-2.016m8 2.016v-2.016m7 2.016v-2.016m7 2.016v-2.016m-3 10.016v-2.016m-8 2.016v-2.016m-8 2.016v-2.016m4 11.016v-2.016m8 2.016v-2.016M52.396 33c4.87 16.561-11.615 30.123-16 31-5 1-13-11-15-16m15-23c10-1 14 5 14 5"/></g></svg>