<svg xmlns="http://www.w3.org/2000/svg" viewBox="0 0 72 72"><path fill="#fcea2b" d="M27 48.842V9.523h-1V7h-4v4.523h-1V48m22-2V9.523h-1V5h-4v3.577l-1-.054V47m-2-5V8.523l-1-.526V5h-4v4.523h-1V41m22-1V11.523h-1V7h-4v2.523h-1V40"/><path fill="#fcea2b" d="M23 41.42v-7.79h-1V15.106h-4V33.63h-1v3.475m30 7.42v-10h-1V13h-4v21.58l-1-.056v12.001m-2-1v-10h-1V12h-4v23.58l-1-.056v12.001m-2-1v-12l-1-.526V13h-4v21.524h-1v10M55 37v-4.371h-1V15.106h-4V33.63h-1v9"/><path fill="#ea5a47" d="M19 59.197c10 7.737 23 7.737 34 0L55 37l-19 3-19-3 2 22.197z"/><path fill="none" stroke="#000" stroke-linecap="round" stroke-linejoin="round" stroke-miterlimit="10" stroke-width="2" d="M42 10V5h-4v4m-4 0V5h-4v5m20 2V7h-4v3m-20 0V7h-4v5m-3 47.264C29 67 42 67 53 59.264L55 37l-19 3-19-3 2 22.264zm35-25.79V15.106h-4v18.998m-20 1.264V13h-4v21.736m-4-.631v-19h-4v18.369m28 1.262V13h-4v22.368M38 36V12h-4v24"/></svg>