<svg xmlns="http://www.w3.org/2000/svg" viewBox="0 0 72 72"><path fill="#B1CC33" stroke="#B1CC33" stroke-miterlimit="10" stroke-width="2" d="M56.599 32.87c6.343 6.343 6.336 16.624 0 22.96-6.343 6.343-16.617 6.343-22.96 0-.178-.178-.34-.356-.51-.54a16.056 16.056 0 0 1-3.361-5.64c-.659-1.548-1.251-3.191-1.843-4.849-1.599-4.456-3.19-8.993-6.24-12.043a8.372 8.372 0 0 1 0-11.842c3.264-3.264 8.571-3.272 11.843 0 3.05 3.05 7.587 4.64 12.042 6.24 1.658.591 3.302 1.184 4.849 1.842 2.117.918 4.07 1.97 5.64 3.36.185.171.362.334.54.511z"/><path fill="#5C9E31" d="M56.599 55.83c-4.746 4.757-11.387 4.66-11.387 4.66 22.206-13.198 5.208-31.496 5.208-31.496s4.067 1.973 5.635 3.366c.193.166.369.332.544.507 6.344 6.345 6.328 16.62 0 22.963z"/><path fill="none" stroke="#000" stroke-linecap="round" stroke-linejoin="round" stroke-miterlimit="10" stroke-width="2" d="M21.738 21.593s-5.271-5.163-10.488.054m13.63-2.728a8.378 8.378 0 0 1 8.648 1.997c3.05 3.05 7.587 4.64 12.043 6.24 1.658.592 3.3 1.184 4.848 1.842 2.117.918 4.07 1.97 5.64 3.36.185.17.363.334.54.511 6.344 6.344 6.336 16.625 0 22.96-6.343 6.344-16.617 6.344-22.96 0-.177-.177-.34-.355-.51-.54a16.056 16.056 0 0 1-3.361-5.64c-.659-1.547-1.25-3.19-1.843-4.848-1.599-4.456-3.19-8.993-6.24-12.043a8.368 8.368 0 0 1-2.205-7.95"/></svg>