<svg xmlns="http://www.w3.org/2000/svg" viewBox="0 0 72 72"><path fill="#d22f27" d="M62.92 35.003A1.879 1.879 0 0061.046 33H11.053a1.973 1.973 0 00-1.97 2.131c.857 9.729 7.53 17.985 16.794 21.724v5.487A1.72 1.72 0 0027.645 64h16.71a1.72 1.72 0 001.767-1.658v-4.843c9.712-3.378 16.072-12.109 16.798-22.496z"/><g fill="none" stroke="#000" stroke-linecap="round" stroke-linejoin="round"><path stroke-width="2" d="M61.434 21h-44M61.434 13h-44"/><path stroke-width="1.841" d="M34.277 10.813L34.434 33M28.277 10.813L28.434 33M21.277 10.813L21.434 33"/><path stroke-width="2" d="M62.92 35.003A1.879 1.879 0 0061.046 33H11.053a1.973 1.973 0 00-1.97 2.131c.857 9.729 7.53 17.985 16.794 21.724v5.487A1.72 1.72 0 0027.645 64h16.71a1.72 1.72 0 001.767-1.658v-4.843c9.712-3.378 16.072-12.109 16.798-22.496z"/></g><g fill="none" stroke="#f1b31c" stroke-linecap="round" stroke-linejoin="round" stroke-width="1.841"><path d="M34.277 10.813L34.434 33M28.277 10.813L28.434 33M21.277 10.813L21.434 33"/></g></svg>