<svg xmlns="http://www.w3.org/2000/svg" viewBox="0 0 72 72"><path fill="#fcea2b" d="M36 7C19.983 7 7 19.984 7 36s12.983 29 29 29 29-12.984 29-29S52.017 7 36 7zm0 39c-5.522 0-10-4.478-10-10s4.478-10 10-10 10 4.478 10 10-4.477 10-10 10z"/><path fill="none" d="M36 46c5.522 0 10-4.478 10-10s-4.478-10-10-10-10 4.478-10 10a9.962 9.962 0 0 0 2.865 7h.479-.479A9.963 9.963 0 0 0 36 46z"/><path fill="none" d="M46 36c0-5.522-4.478-10-10-10s-10 4.478-10 10a9.962 9.962 0 0 0 2.865 7A9.963 9.963 0 0 0 36 46c5.523 0 10-4.477 10-10z"/><path fill="#f1b31c" d="M36 7C19.983 7 7 19.984 7 36c0 1.706.156 3.375.439 5H10a5 5 0 0 1 5 5 5 5 0 0 0 10 0 3 3 0 0 1 3-3h.865A9.962 9.962 0 0 1 26 36c0-5.522 4.478-10 10-10s10 4.478 10 10-4.478 10-10 10a5 5 0 0 1 5 5 5 5 0 0 0 10 0 3 3 0 0 1 6 0c0 1.222.842 2.321 1.895 2.79A28.866 28.866 0 0 0 65 36C65 19.984 52.017 7 36 7z"/><circle cx="14" cy="31" r="2" fill="#FFF"/><circle cx="20" cy="39" r="2" fill="#FFF"/><circle cx="52" cy="40" r="2" fill="#FFF"/><circle cx="58" cy="32" r="2" fill="#FFF"/><circle cx="50" cy="25" r="2" fill="#FFF"/><circle cx="42" cy="14" r="2" fill="#FFF"/><circle cx="33" cy="20" r="2" fill="#FFF"/><circle cx="21" cy="20" r="2" fill="#FFF"/><g fill="none" stroke="#000" stroke-linecap="round" stroke-linejoin="round" stroke-miterlimit="10" stroke-width="2"><circle cx="14" cy="31" r="2"/><circle cx="20" cy="39" r="2"/><circle cx="52" cy="40" r="2"/><circle cx="58" cy="32" r="2"/><circle cx="50" cy="25" r="2"/><circle cx="42" cy="14" r="2"/><circle cx="33" cy="20" r="2"/><circle cx="21" cy="20" r="2"/><circle cx="36" cy="36" r="29"/><circle cx="36" cy="36" r="10"/><path d="M8 41h2a5 5 0 0 1 5 5 5 5 0 0 0 10 0 3 3 0 0 1 3-3h.667m30.158 10.76A3 3 0 0 1 57 51a3 3 0 0 0-6 0 5 5 0 0 1-10 0 5 5 0 0 0-5-5"/></g></svg>