<svg xmlns="http://www.w3.org/2000/svg" viewBox="0 0 72 72"><path fill="#f4aa41" d="M55 17v-6H17v6M45 60c8.284 0 15-6.716 15-15V22a5 5 0 00-5-5H17a5 5 0 00-5 5v23c0 8.284 6.716 15 15 15h18z"/><path fill="#fcea2b" d="M35 17v14a5 5 0 0010 0v11a3 3 0 006 0V23a3 3 0 106 0v-5.578A4.979 4.979 0 0055 17H33v-6h22v6"/><g fill="none" stroke="#000" stroke-linecap="round" stroke-linejoin="round" stroke-miterlimit="10" stroke-width="2"><path d="M55 17v-6H17v6M51 42a3 3 0 01-6 0M51 23a3 3 0 106 0v-5M45 31a5 5 0 11-10 0M45 42V31M51 42V23M35 31V17M33 17v-6"/><path d="M45 60c8.284 0 15-6.716 15-15V22a5 5 0 00-5-5H17a5 5 0 00-5 5v23c0 8.284 6.716 15 15 15h18z"/></g></svg>