<svg xmlns="http://www.w3.org/2000/svg" viewBox="0 0 72 72"><path fill="#FFF" d="M65.657 47.12c.217-.32.91-1.272.91-1.687l-2-3.433S55.514 32.931 36 32.931 7.433 42 7.433 42l-2.312 3.716c0 .415 1.005 1.084 1.222 1.403A1.996 1.996 0 0 0 7 51c.1 0 .196-.016.294-.03A1.976 1.976 0 0 0 7 52a2 2 0 0 0 3.12 1.657C10.393 54.437 11.127 55 12 55s1.607-.563 1.88-1.343a1.997 1.997 0 0 0 2.24 0C16.393 54.437 17.127 55 18 55s1.607-.563 1.88-1.343a1.997 1.997 0 0 0 2.24 0C22.393 54.437 23.127 55 24 55s1.607-.563 1.88-1.343a1.997 1.997 0 0 0 2.24 0C28.393 54.437 29.127 55 30 55s1.607-.563 1.88-1.343a1.997 1.997 0 0 0 2.24 0C34.393 54.437 35.127 55 36 55s1.607-.563 1.88-1.343a1.997 1.997 0 0 0 2.24 0C40.393 54.437 41.127 55 42 55s1.607-.563 1.88-1.343a1.997 1.997 0 0 0 2.24 0C46.393 54.437 47.127 55 48 55s1.607-.563 1.88-1.343a1.997 1.997 0 0 0 2.24 0C52.393 54.437 53.127 55 54 55s1.607-.563 1.88-1.343a1.997 1.997 0 0 0 2.24 0C58.393 54.437 59.127 55 60 55s1.607-.563 1.88-1.343A2 2 0 0 0 65 52c0-.378-.111-.729-.294-1.03.098.014.193.03.294.03a1.996 1.996 0 0 0 .657-3.88z"/><path fill="#ea5a47" d="M7 42s16-4 29-4 29 4 29 4v-6C48.983 18.665 23.018 18.668 7 36v6z"/><path fill="none" stroke="#000" stroke-linecap="round" stroke-linejoin="round" stroke-miterlimit="10" stroke-width="2" d="M6 46c0 .415.126.8.343 1.12A1.996 1.996 0 0 0 7 51c.1 0 .196-.016.294-.03A1.976 1.976 0 0 0 7 52a2 2 0 0 0 3.12 1.657C10.393 54.437 11.127 55 12 55s1.607-.563 1.88-1.343a1.997 1.997 0 0 0 2.24 0C16.393 54.437 17.127 55 18 55s1.607-.563 1.88-1.343a1.997 1.997 0 0 0 2.24 0C22.393 54.437 23.127 55 24 55s1.607-.563 1.88-1.343a1.997 1.997 0 0 0 2.24 0C28.393 54.437 29.127 55 30 55s1.607-.563 1.88-1.343a1.997 1.997 0 0 0 2.24 0C34.393 54.437 35.127 55 36 55s1.607-.563 1.88-1.343a1.997 1.997 0 0 0 2.24 0C40.393 54.437 41.127 55 42 55s1.607-.563 1.88-1.343a1.997 1.997 0 0 0 2.24 0C46.393 54.437 47.127 55 48 55s1.607-.563 1.88-1.343a1.997 1.997 0 0 0 2.24 0C52.393 54.437 53.127 55 54 55s1.607-.563 1.88-1.343a1.997 1.997 0 0 0 2.24 0C58.393 54.437 59.127 55 60 55s1.607-.563 1.88-1.343A2 2 0 0 0 65 52c0-.378-.111-.729-.294-1.03.098.014.193.03.294.03a1.996 1.996 0 0 0 .657-3.88c.217-.32.343-.705.343-1.12M7 42s16-4 29-4 29 4 29 4v-6C48.983 18.665 23.018 18.668 7 36v6z"/></svg>