<svg xmlns="http://www.w3.org/2000/svg" viewBox="0 0 72 72"><g stroke="#000"><circle cx="36" cy="21" r="9" fill="none" stroke-miterlimit="10" stroke-width="2"/><path fill="none" stroke-linecap="round" stroke-miterlimit="10" stroke-width="2" d="M15.006 43.04a9.816 9.816 0 0 1 6.623 2.957m-6.095-5.986a10.281 10.281 0 0 1 6.56 2.453m-5.819-5.458a10.585 10.585 0 0 1 6.445 2.138m-5.296-5.135a10.599 10.599 0 0 1 6.161 2.026m1.261-2.783a9.97 9.97 0 0 0-5.27-2.155m3.5-2.419a8.757 8.757 0 0 1 3.575 2.342m-6.645 21.02a9.816 9.816 0 0 1 6.623 2.957m-6.095-5.986a10.281 10.281 0 0 1 6.56 2.453m-5.819-5.458a10.585 10.585 0 0 1 6.445 2.138m-5.296-5.135a10.599 10.599 0 0 1 6.161 2.026m1.261-2.783a9.97 9.97 0 0 0-5.27-2.155m3.5-2.419a8.757 8.757 0 0 1 3.575 2.342"/><path fill="none" stroke-linecap="round" stroke-miterlimit="10" stroke-width="2" d="M25 28a12.06 12.06 0 0 0-7 5c-2.88 4.32-3.686 14.857-3.912 20.421M30 37a12.06 12.06 0 0 0-7 5c-2.292 3.438-3.27 10.81-3.687 16.484"/><path stroke-linejoin="round" stroke-width=".75" d="m52 22.46.618.442-.229-.724.611-.451-.76-.006L52 21l-.24.721-.76.006.611.361-.229.814.618-.442z"/><path stroke-linejoin="round" stroke-width="1.5" d="m54.897 32.071 1.3.929-.482-1.523L57 30.528l-1.598-.012L54.897 29l-.505 1.426-1.598.102 1.286.949L53.597 33l1.3-.929z"/><path stroke-linejoin="round" d="m18.5 24.337.927.663-.344-1.087.917-.676-1.14-.099-.36-.991-.36 1.081-1.14.009.917.676L17.573 25l.927-.663z"/><circle cx="53.75" cy="47.75" r="2.25" fill="none" stroke-linecap="round" stroke-miterlimit="10" stroke-width="2"/><circle cx="47" cy="47.75" r="2.25" fill="none" stroke-linecap="round" stroke-miterlimit="10" stroke-width="2"/><circle cx="40.25" cy="47.75" r="2.25" fill="none" stroke-linecap="round" stroke-miterlimit="10" stroke-width="2"/><circle cx="43.625" cy="41.75" r="2.25" fill="none" stroke-linecap="round" stroke-miterlimit="10" stroke-width="2"/><circle cx="50.375" cy="41.75" r="2.25" fill="none" stroke-linecap="round" stroke-miterlimit="10" stroke-width="2"/><circle cx="47" cy="35.75" r="2.25" fill="none" stroke-linecap="round" stroke-miterlimit="10" stroke-width="2"/></g><circle cx="36" cy="36" r="28" fill="#1e50a0"/><circle cx="36" cy="21" r="9" fill="#f1b31c" stroke="#f1b31c" stroke-miterlimit="10" stroke-width="2"/><circle cx="53.75" cy="47.75" r="2.25" fill="#d0cfce" stroke="#d0cfce" stroke-linecap="round" stroke-miterlimit="10" stroke-width="2"/><circle cx="47" cy="47.75" r="2.25" fill="#d0cfce" stroke="#d0cfce" stroke-linecap="round" stroke-miterlimit="10" stroke-width="2"/><circle cx="40.25" cy="47.75" r="2.25" fill="#d0cfce" stroke="#d0cfce" stroke-linecap="round" stroke-miterlimit="10" stroke-width="2"/><circle cx="43.625" cy="41.75" r="2.25" fill="#d0cfce" stroke="#d0cfce" stroke-linecap="round" stroke-miterlimit="10" stroke-width="2"/><circle cx="50.375" cy="41.75" r="2.25" fill="#d0cfce" stroke="#d0cfce" stroke-linecap="round" stroke-miterlimit="10" stroke-width="2"/><circle cx="47" cy="35.75" r="2.25" fill="#d0cfce" stroke="#d0cfce" stroke-linecap="round" stroke-miterlimit="10" stroke-width="2"/><path fill="none" stroke="#f4aa41" stroke-linecap="round" stroke-miterlimit="10" stroke-width="2" d="M15.006 43.04a9.816 9.816 0 0 1 6.623 2.957m-6.095-5.986a10.281 10.281 0 0 1 6.56 2.453m-5.819-5.458a10.585 10.585 0 0 1 6.445 2.138m-5.296-5.135a10.599 10.599 0 0 1 6.161 2.026m1.261-2.783a9.97 9.97 0 0 0-5.27-2.155m3.5-2.419a8.757 8.757 0 0 1 3.575 2.342m-6.645 21.02a9.816 9.816 0 0 1 6.623 2.957m-6.095-5.986a10.281 10.281 0 0 1 6.56 2.453m-5.819-5.458a10.585 10.585 0 0 1 6.445 2.138m-5.296-5.135a10.599 10.599 0 0 1 6.161 2.026m1.261-2.783a9.97 9.97 0 0 0-5.27-2.155m3.5-2.419a8.757 8.757 0 0 1 3.575 2.342"/><path fill="none" stroke="#5c9e31" stroke-linecap="round" stroke-miterlimit="10" stroke-width="2" d="M25 28a12.06 12.06 0 0 0-7 5c-2.88 4.32-3.686 14.857-3.912 20.421M30 37a12.06 12.06 0 0 0-7 5c-2.292 3.438-3.27 10.81-3.687 16.484"/><path fill="#f1b31c" stroke="#f1b31c" stroke-linejoin="round" stroke-width=".75" d="m52 22.46.618.442-.229-.724.611-.451-.76-.006L52 21l-.24.721-.76.006.611.361-.229.814.618-.442z"/><path fill="#f1b31c" stroke="#f1b31c" stroke-linejoin="round" stroke-width="1.5" d="m54.897 32.071 1.3.929-.482-1.523L57 30.528l-1.598-.012L54.897 29l-.505 1.426-1.598.102 1.286.949L53.597 33l1.3-.929z"/><path fill="#f1b31c" stroke="#f1b31c" stroke-linejoin="round" d="m18.5 24.337.927.663-.344-1.087.917-.676-1.14-.099-.36-.991-.36 1.081-1.14.009.917.676L17.573 25l.927-.663z"/><path fill="#a57939" stroke="#a57939" stroke-linecap="round" stroke-linejoin="round" stroke-width="2" d="M36 64a27.89 27.89 0 0 0 18.617-7.092q.496-.443.971-.908H40zm22.243-11H34v3h21.588l2.655-3z"/><g fill="none" stroke="#000" stroke-width="2"><path stroke-linecap="round" stroke-miterlimit="10" d="M55.341 49.341a2.25 2.25 0 0 1-3.182-3.182m-3.568 3.182a2.25 2.25 0 0 1-3.182-3.182m-3.568 3.182a2.25 2.25 0 0 1-3.182-3.182m6.557-2.818a2.25 2.25 0 0 1-3.182-3.182m9.932 3.182a2.25 2.25 0 0 1-3.182-3.182m-.193-2.818a2.25 2.25 0 0 1-3.182-3.182"/><path stroke-linecap="round" stroke-linejoin="round" d="M58.243 53H34v3"/><path stroke-linecap="round" stroke-miterlimit="10" d="M42.364 27.364a9 9 0 0 1-12.728-12.728"/><path stroke-linecap="round" stroke-linejoin="round" d="m40 56-4 8"/><circle cx="36" cy="36" r="28" stroke-linejoin="round"/></g></svg>