<svg xmlns="http://www.w3.org/2000/svg" viewBox="0 0 72 72"><path fill="#9B9B9A" d="m27.447 62.537-.402-22.913c-1.72 1.054-6.131 5.563-6.591 11.82-.48 6.516 5.053 10.2 6.993 11.093zM44.716 39.53l-.16 22.912c1.01-.46 2.988-.817 4.603-2.856 1.502-1.895 2.69-5.37 2.496-8.49-.17-2.719-.822-5.428-2.058-7.295-1.596-2.411-3.92-3.662-4.881-4.272z"/><path fill="#D0CFCE" d="m44.556 61.574.16-21.498c.002-.313-.378-1.462-.26-1.494v-.035l-3.812 1.077c-.002.007.005.025.005.035.402-.087-.45 1.429-.921 1.718-.6.367-.307 1.094-.315 1.791l-.173 15.504c-.006.606 1.7 3.763 1.641 3.752a3.09 3.09 0 0 1-.007.018l3.581 1.018v-.036c-.192-.02.099-1.547.1-1.85zm-13.026-.917c.73-.318 1.085-2.135 1.085-2.929l-.12-14.866c0-.19-.174-1.074-.224-1.25-.091-.322-1.327-2.031-.894-1.935.003-.016.013-.04.013-.053l-3.584-.986v.038c.12.034-.604 1.755-.605 2.068l.055 20.605c-.001.303.674 2.055.6 2.089l3.445-.901.004-.026c-.1.032-.28-1.632.226-1.854z"/><path fill="#D0CFCE" d="M60.833 48.3c1.427-3.18 2.21-15.108 2.21-15.117 0-9.194-7.443-17.625-7.443-17.625s-2.055-2.901-5.841-4.765C44.736 8.32 37.627 6.709 37.625 6.709c-8.934.012-19.1 4.877-24.348 12.485-1.582 2.294-3.04 8.773-3.893 10.837-1.04 2.512.016 11.05.026 11.115.07.454.776 4.146.869 4.452.122.403 3.15 7.33 3.476 7.845.248.39 1.25.704.953 1.029l.008.037s1.543-1.97.034-4.445c-1.509-2.476-3.165-8.947-3.165-14.445 0-14.735 10.503-25.853 24.43-25.862 13.928.009 24.43 11.127 24.43 25.862 0 5.5-2.025 13.03-3.258 15.093-1.232 2.061-.024 3.606-.024 3.606l.015-.048c-.162-.307 2.228-2.791 3.655-5.97z"/><g fill="none" stroke="#000" stroke-linecap="round" stroke-linejoin="round" stroke-miterlimit="10" stroke-width="2"><path d="M31.161 40.634a3.026 3.026 0 0 1 1.643 2.688v15.504c0 1.23-.74 2.285-1.8 2.748m-3.462-21.95s-6.354 1.785-7.068 11.489 6.973 11.424 6.973 11.424l.095-22.913zm13.317 1.002a3.022 3.022 0 0 0-1.446 2.542l-.173 15.504a2.997 2.997 0 0 0 1.816 2.788m3.66-21.93s6.334 1.855 6.939 11.566c.605 9.71-7.1 11.346-7.1 11.346l.161-22.913z"/><path d="M58.047 53.808c3.21-5.058 5.09-11.17 5.09-18.189 0-15.759-11.353-28.536-27.106-28.552v0H36v0C20.247 7.083 8.895 19.86 8.895 35.619c0 7.019 1.88 13.13 5.088 18.19"/><path d="M50.214 20.194c-3.133-4.444-8.167-7.312-14.189-7.318v-.001h-.02v0c-5.996.007-11.013 2.85-14.148 7.262"/></g></svg>