<svg xmlns="http://www.w3.org/2000/svg" viewBox="0 0 72 72"><path fill="#3F3F3F" d="M33.6 29.04c-.28-2.33-1.42-9.24-1.42-9.24-.29-2.37-3.84-4.66-6.16-4.03 0 0-6.15 1.97-7.9 2.44-1.76.47-8.08 1.84-8.08 1.84-2.31.62-4.25 4.37-3.31 6.57 0 0 2.47 6.55 3.39 8.71.69 1.63 3.13 4.58 4.05 6.18 1.95 3.4 6.01 7.46 9.8 6.45l3.95-1.06c3.79-1.02 5.28-6.56 5.26-10.48 0-1.85.63-5.62.42-7.38zm-17.34 2.35c-1.07.28-2.11-.13-2.32-.93-.22-.8.47-1.68 1.54-1.97 1.07-.29 2.11.13 2.32.93.22.8-.48 1.68-1.54 1.97zm9.85-2.64c-1.06.28-2.1-.13-2.32-.93-.21-.8.48-1.69 1.55-1.97 1.06-.29 2.1.13 2.32.93.21.8-.48 1.68-1.55 1.97zm-2.57 9.69c-2.4.65-3.24 5.31-3.88 2.91-.65-2.4.78-4.87 3.18-5.51 2.4-.65 4.87.78 5.51 3.18.64 2.4-2.41-1.22-4.81-.58z"/><path fill="#3F3F3F" d="M21.67 23.436c2.135-.765 4.022-1.181 5.1-.914 1.252.31 2.224 1.03 3.124 2.106l-8.225-1.192zm-4.216 1.129c-2.232.405-4.074.989-4.873 1.759-.93.896-1.412 2.005-1.654 3.386l6.527-5.145z"/><path fill="#FFF" d="M61.96 28.05s-6.32-1.37-8.07-1.84c-1.76-.47-7.91-2.45-7.91-2.45-2.32-.62-5.87 1.67-6.16 4.04 0 0-1.14 6.91-1.42 9.24-.21 1.76.42 5.53.42 7.38-.02 3.92 1.47 9.46 5.26 10.48l3.95 1.06c3.79 1.01 7.85-3.05 9.8-6.45.92-1.6 3.36-4.55 4.05-6.18.92-2.16 3.39-8.71 3.39-8.71.94-2.2-1-5.95-3.31-6.57zm-17.82 6.68c.22-.8 1.26-1.22 2.32-.93 1.07.28 1.76 1.16 1.55 1.96-.22.8-1.26 1.22-2.32.93-1.07-.28-1.76-1.16-1.55-1.96zm9.17 11.02c-.65 2.4-3.11 3.83-5.51 3.18a4.505 4.505 0 0 1-3.19-5.51c.65-2.4 1.48 2.26 3.88 2.9 2.41.65 5.46-2.97 4.82-.57zm4.55-7.35c-.21.8-1.25 1.22-2.32.94-1.06-.29-1.76-1.17-1.54-1.97.21-.8 1.25-1.22 2.32-.93 1.07.28 1.76 1.16 1.54 1.96z"/><g fill="none" stroke="#000" stroke-linecap="round" stroke-linejoin="round" stroke-miterlimit="10" stroke-width="2"><path d="m27.92 46.898-3.951 1.058c-3.786 1.015-7.852-3.043-9.798-6.445-.918-1.604-3.357-4.551-4.054-6.182-.92-2.156-3.383-8.707-3.383-8.707-.941-2.204.995-5.955 3.31-6.575 0 0 6.315-1.369 8.071-1.84 1.756-.47 7.91-2.442 7.91-2.442 2.314-.62 5.866 1.66 6.153 4.04 0 0 1.143 6.905 1.424 9.233.212 1.76-.427 5.532-.42 7.38.016 3.918-1.477 9.466-5.262 10.48z"/><path d="M28.35 39.018c.643 2.4-2.412-1.217-4.813-.574-2.4.643-3.237 5.304-3.88 2.903a4.5 4.5 0 1 1 8.693-2.329z"/><ellipse cx="25.726" cy="27.298" rx="2" ry="1.5" transform="rotate(-14.999 25.727 27.298)"/><path d="M21.67 23.436c2.135-.765 4.022-1.181 5.1-.914 1.252.31 2.224 1.03 3.124 2.106"/><ellipse cx="15.87" cy="29.938" rx="2" ry="1.5" transform="rotate(-14.999 15.87 29.939)"/><path d="M17.454 24.565c-2.232.405-4.074.989-4.873 1.759-.93.896-1.412 2.005-1.654 3.386m37.104 26.246-3.95-1.058c-3.786-1.015-5.28-6.562-5.263-10.48.007-1.849-.632-5.621-.42-7.382.28-2.328 1.424-9.232 1.424-9.232.287-2.379 3.839-4.66 6.153-4.04 0 0 6.154 1.973 7.91 2.443 1.756.471 8.072 1.84 8.072 1.84 2.314.62 4.25 4.371 3.309 6.575 0 0-2.463 6.552-3.384 8.709-.696 1.63-3.136 4.576-4.053 6.18-1.946 3.402-6.013 7.46-9.798 6.445z"/><ellipse cx="55.93" cy="37.887" rx="1.5" ry="2" transform="rotate(-75.001 55.932 37.888)"/><path d="M54.35 32.512c2.231.406 4.073.99 4.872 1.76.93.895 1.412 2.004 1.654 3.385"/><ellipse cx="46.074" cy="35.245" rx="1.5" ry="2" transform="rotate(-75.001 46.075 35.246)"/><path d="M50.134 31.383c-2.136-.765-4.023-1.181-5.1-.914-1.253.311-2.225 1.03-3.125 2.106m2.705 10.845c.643-2.4 1.48 2.26 3.88 2.904 2.402.643 5.457-2.975 4.813-.574a4.5 4.5 0 1 1-8.693-2.33z"/></g></svg>