<svg xmlns="http://www.w3.org/2000/svg" viewBox="0 0 72 72"><circle cx="15.799" cy="30.967" r="1.511" fill="#FFF"/><path fill="#3F3F3F" d="M16.588 37.397V54.97c0 1.103 1.897 3 3 3l33.637.232c1.103 0 2.276-2.13 2.276-3.232V37.397H16.588zM41.374 12.91l7.151 3.688 2.55-.98-7.152-3.688zm-1.412 7.219-7.687-3.971-2.74 1.05 7.692 3.972zm-17.877-.062-3.446 1.648 6.687 4.004 4.384-1.646zm7.173 11.248h-3.595l-5.11 5.735h3.596zm11.967-.348h-2.91l-5.728 6.43h2.91zm3.362 6.43h2.91l5.728-6.43h-2.91z"/><path fill="#FFF" d="m43.33 36.913 4.868-5.462H42.48l-4.867 5.462zm6.362.077h5.367v-6.024z"/><circle cx="15.799" cy="30.967" r="2.512" fill="#3F3F3F"/><path fill="#FFF" d="M16.527 33.89v3.345h3.292l5.44-6.106h-6.583a4.829 4.829 0 0 1-2.149 2.762zm14.803 3.016 4.853-5.447h-5.701l-4.853 5.447zm14.6-25.711 3.647 1.88-1.1-2.859zm-5.917 2.201-6.28 2.413 7.2 3.72 6.289-2.417zm-11.514 4.556-5.434 2.089 6.835 3.59 5.502-2.114zM17.536 22.21l-4.956 1.906 1.545 4.019c.331-.08.672-.134 1.028-.134a4.36 4.36 0 0 1 1.838.415c.052-.03.092-.073.15-.095l6.944-2.669-6.549-3.441z"/><g fill="none" stroke="#000" stroke-linecap="round" stroke-linejoin="round" stroke-miterlimit="10" stroke-width="2"><path d="m17.74 28.643 33.348-12.815-2.307-6.003-36.324 13.96 1.738 4.52m2.393 9.092V54.97a3 3 0 0 0 3 3H52.5a3 3 0 0 0 3-3V37.397H16.588zm2.309-6.431H55.5v6.431m-38.912-.347v-3.092"/><path d="M19.7 37.397h4.683l5.729-6.43h-4.683zm12 0h4.683l5.729-6.43h-4.683zm12 0h4.683l5.729-6.43h-4.683z"/><circle cx="15.799" cy="30.966" r="2.511"/><path d="m47.879 17.084-7.655-3.947 4.37-1.68 6.003 3.094m-9.826 5.26L36.4 21.49l-7.653-3.953 4.373-1.677zM29.71 24.073l-4.384 1.646-7.625-4.006 4.384-1.646z"/></g></svg>