<svg xmlns="http://www.w3.org/2000/svg" viewBox="0 0 72 72"><g stroke-linecap="round" stroke-linejoin="round" stroke-miterlimit="10" stroke-width="2"><path fill="#FFF" d="M11.5 39h49v16h-49zM36 25 11.5 39h49z"/><path fill="#EA5A47" d="M36 25 20.5 39h31z"/><path fill="#FFF" d="m36 25-5.5 14h11z"/><path fill="#EA5A47" d="M21 39h30v16H21z"/><path fill="#FFF" d="M30.5 39h11v16h-11z"/><path fill="#3F3F3F" d="m36 44-3 11h6z"/></g><g fill="none" stroke="#000" stroke-linecap="round" stroke-linejoin="round" stroke-miterlimit="10" stroke-width="2"><path d="M11.5 39h49v16h-49zM36 25 11.5 39h49z"/><path d="M36 25 20.5 39h31z"/><path d="m36 25-5.5 14h11zM21 39h30v16H21z"/><path d="M30.5 39h11v16h-11z"/><path d="m36 44-3 11h6z"/></g></svg>