<svg xmlns="http://www.w3.org/2000/svg" viewBox="0 0 72 72"><path fill="#fff" d="m27.24 55.13-8.387-4.806 3.7-8.325-3.323-2.89-2.677-14.11-8.538 1.199-1.462-2.199 8-6c-.208.03-.22-4.11.634-5.177 2.221-2.211 2.474.644 3.721 2.273l8.351 8.243 2.293 1.66 17.76-2.195 9.237 2.195 1.787 7.042-4.147 6.785 2.36 5.173-6.2 6-3.794-4.482 1.994-6.518-2.37-.267-17.63 4.267-5 6 4.912 3.681z"/><path fill="#f4aa41" d="m37.55 22.71-5 .89L32.49 4h5.06zm-5 22.86 4.94-1.07.06 23.5h-5z"/><path fill="#fcea2b" d="m34.96 45.05 2.19-.55.02 23.5h-2.21zm2.28-22.29-2.21.4V4.028h2.21z"/><path fill="#d0cfce" d="M48.548 39s-2.1 6.8-3 9a68.387 68.387 0 0 0-2 8l4.2-1.2 2.4-4.9-1.2-.2v-2.6l2.9-3m4.7-19.1h2c3 0 7 3 6 7-.7 2.9-4.1 5.6.9 10.6 0 0 .7 2.8-2 2a6.358 6.358 0 0 1-3.4-4.1c-1.8-5.5 1.7-8.2 1-10.2-.4-1.2-2.3-1.1-2.3-1.1M21.849 42.1l-1.1 2.9c-.6.2-4.4 1.5-4.3 2.7.2 1.9-.9 7.3-.9 7.3l-2 1s-2-8-2-9a3.881 3.881 0 0 1 1-3 61.25 61.25 0 0 1 6-4"/><path fill="#e67a94" d="M42.55 28c.073 3.48.114 5.413-1 6-1.409.743-3.943-1.052-5-2-1.134-1.017-1.013-1.458-2-2-1.68-.922-2.924-.136-4-1-.501-.402-1.023-1.208-1-3"/><path fill="#ffa7c0" d="m30.54 24.81 11.32-1.409a.582.582 0 0 1 .666.576l.023 4.028-13-2z"/><g fill="none" stroke="#000" stroke-linecap="round" stroke-width="2"><path stroke-miterlimit="10" d="M32.55 5v18.16m5-18.16v17"/><path stroke-linejoin="round" d="M26.55 24c-1-1-2.5-3.5-5-6a14.39 14.39 0 0 0-3-2l-2-3m30 17s-1 3 0 5c1.2 2.4 5.8 8 5.8 9l-2.8 3s-1.1.7-1.1 1.4a1.563 1.563 0 0 0 1.9 1.6s6.4-5.6 6.2-6c-.5-1.3-1.4-3.7-2-5-1-2 4-5 4-8 0-1.6-1-6-5-7a19.32 19.32 0 0 0-6-.3m-23 30.3a19.44 19.44 0 0 1-5-3 3.054 3.054 0 0 1 0-3l3-6a7.812 7.812 0 0 1-3-2c-1-1-.9-5-1-7-.1-1.8-2-8-2-8a37.46 37.46 0 0 0-8 1c-.7.2-2.6-1.6-2-2a79.74 79.74 0 0 1 8-6m12 33a11.35 11.35 0 0 1 1.2 1.2 1.758 1.758 0 0 1-2.2 2.7c-.6-.5-1-.9-1-.9"/><path stroke-linejoin="round" d="M47.55 38s-7.4 3.4-10 4a79.17 79.17 0 0 1-9 1c-4 4-5 6-5 6a20.04 20.04 0 0 0 3 2m21.998-12s-2.1 6.8-3 9c-.5 1.2-.6 1.9-1.5 4-.8 1.8-.9 2.1-.9 2.1a1.85 1.85 0 0 0 1 2.4 2.158 2.158 0 0 0 2.4-1.3l1-2.1M15.55 52v2c0 1.1-.7 2-1.5 2a1.56 1.56 0 0 1-1.5-1.6V52m6-12a61.25 61.25 0 0 0-6 4 3.881 3.881 0 0 0-1 3 46.19 46.19 0 0 0 1 5m44-27h2c3 0 7 3 6 7-.7 2.9-5 6 0 11"/><path stroke-miterlimit="10" d="M32.55 46v21m5-22v22"/><path stroke-linejoin="round" d="M29.55 25c-.2 2.269.385 3.392 1 4 1.432 1.416 3.389.387 5 2 1.149 1.15.813 2.332 2 3a3.718 3.718 0 0 0 3 0m-25 14v4"/></g></svg>