<svg xmlns="http://www.w3.org/2000/svg" viewBox="0 0 72 72"><path fill="#fff" fill-rule="evenodd" d="M12.08 19.86h44.95v32.27H12.08z"/><path fill="none" stroke="#9b9b9a" stroke-linecap="round" stroke-linejoin="round" stroke-width="2.305" d="M13.23 22.52h42.64M13.23 49.72h42.64"/><circle cx="63.48" cy="30.73" r="2.593" fill="#ea5a47"/><path fill="#d22f27" d="M64.51 28.18a2.59 2.59 0 01-3.579 3.579 2.592 2.592 0 103.579-3.579z"/><g stroke="#000"><path stroke-linecap="round" stroke-linejoin="round" stroke-width="2.305" d="M13.23 19.86h42.64"/><path fill="none" stroke-linecap="round" stroke-linejoin="round" stroke-width="2" d="M12.08 52.14V19.86"/><path fill="none" stroke-linecap="round" stroke-linejoin="round" stroke-width="4.007" d="M55.95 52.14h-42.8M13.15 19.86h42.8"/><path fill="none" stroke-linecap="round" stroke-linejoin="round" stroke-width="2" d="M27.06 19.86v32.28M42.04 19.86v32.28M57.02 47.42h6.14M63.16 47.42V34"/><circle cx="63.16" cy="30.73" r="2.593" fill="none" stroke-miterlimit="10" stroke-width="1.297"/><path fill="none" stroke-linecap="round" stroke-linejoin="round" stroke-width="2" d="M17.3 35.69V33.7h4.54l-2.81 8.07M32.28 31.23v-1.99h4.54l-2.8 8.06M47.26 35.69V33.7h4.54L49 41.77M57.02 19.86v32.28"/></g><g fill="none" stroke="#d22f27" stroke-linecap="round" stroke-linejoin="round" stroke-width="2"><path d="M17.3 35.69V33.7h4.54l-2.81 8.07M32.28 31.23v-1.99h4.54l-2.8 8.06M47.26 35.69V33.7h4.54L49 41.77"/></g></svg>