<svg xmlns="http://www.w3.org/2000/svg" viewBox="0 0 72 72"><path fill="#fcea2b" d="M58.336 42.579c-2.777-2.126-8.52-5.834-10.28-6.991.83 5.172 1.766 16.615.47 18.857-.383.66-.368 1.645-.647 1.645-1.156 0-4.112-14.804-4.112-14.804.017-.017-5.123-25.04-5.816-27.61-.41-1.526-2.233-2.765-2.644-2.938-1.21-.51-7.491-.802-10.163-1.116 1.55.377 6.855 2.579 7.755 3.172 2.198 1.449 2.858 7.636 4.934 26.083.356 3.158 1.178 10.88 1.528 13.747.749 6.121 1.133 7.528 2.467 10.34 1.429 3.011 6.051 4.464 6.051 4.464 4.7-.41 7.343-4.353 7.343-7.754-.045-1.01-.435-9.591.412-12.454.521-1.763 1.943-3.9 2.702-4.641z"/><path fill="#3f3f3f" d="M19.563 8.338c-.008.081-.454 1.348-.465 1.423.231.025 1.085.03 1.313.055 1.114.12 3.046.405 4.352.575-.11-.166-.37-1.735-.442-1.886-.535-.027-1.685-.016-2.322-.058-.81-.053-1.797-.085-2.436-.11z"/><path fill="none" stroke="#000" stroke-linecap="round" stroke-linejoin="round" stroke-miterlimit="10" stroke-width="2" d="m39.674 30.278 1.534-.946m-.921 5.444 1.863-1.064m-1.23 5.602 1.827-1.355m-1.067 6.293 1.75-1.747m4.549 24.669-.247.013c-1.948.097-4.529-.647-6.052-3.858-1.383-2.915-1.945-6.796-2.723-13.161-1.786-14.617-3.558-35.488-6.106-37.167-3.658-2.41-16.42-2.705-15.94-3.24.103-.113.442-.215 1.615-.257.46-.017.036-1.48.61-1.484 1.164-.007 3.797.229 5.24.28.246.008.5 1.058.751 1.069 4.39.185 8.964.855 11.033 1.726.575.243 1.292.562 1.824 2.54 2.067 7.67 8.153 43.217 9.847 43.217 1.693 0 1.324-18.904.105-21.022-1.219-2.118 10.448 6.92 10.448 6.92s-2.068 1.25-2.892 4.036c-.824 2.785-.38 12.909-.38 12.909a7.5 7.5 0 0 1-7.332 7.498"/></svg>