<svg xmlns="http://www.w3.org/2000/svg" viewBox="0 0 72 72"><path fill="#EA5A47" d="M33.075 48.333c2.337-.913 4.824-2.23 5.13-2.588.118-.14.454-2.376.512-2.494-.74.031-3.743-.821-4.616-1.026-1.688-.394-4.842-5.836-4.173-7.74.515-1.469 3.683-7.064 3.683-7.064s-.717-.571-1.853-.381c-.723.121-1.979.943-2.157 1.15-1.145 1.338-3.227 6.8-4.103 8.16-.938 1.454-2.162 2.38-3.823 2.611-1.443.2-3.895.935-6.272 2.728-2.798 2.11-5.111 8.307-1.632 13.032.821 1.115 6.042 4.69 10.235 3.754 3.613-.807 6.831-3.404 7.157-6.458.009-.08-.075-2.907 1.912-3.684z"/><ellipse cx="22.752" cy="47.779" fill="#FFF" rx="5.47" ry="5.47" transform="rotate(-.81 22.793 47.676)"/><path fill="#a57939" d="M58.008 14.394c-.063.003-5.607 2.746-6.67 3.39-1.54 1.031-2.504 3.779-2.642 3.915L25.77 43.417c.438.462 1.674 1.63 1.955 2.187l23.886-22.65c-.087-.093 1.955-.357 3.315-1.967.305-.362 1.146-1.582 2.22-2.551 1.073-.97 2.38-1.69 2.75-2.419.756-1.497-1.386-1.656-1.89-1.623z"/><path fill="#EA5A47" d="M32.36 41.094a.981.981 0 0 1 .002.002l-.003-.002zm-4.274 3.042-.1-.14.1.14z"/><g fill="none" stroke="#000" stroke-linecap="round" stroke-linejoin="round" stroke-miterlimit="10" stroke-width="2"><path d="m20.899 46.91 2.363 2.29m29.077-26.936s1.342-.018 2.236-.58c.894-.562 1.071-1.066 1.063-1.542s.736-2.326 2.307-2.73c1.57-.402 2.487-1.299 2.128-2.25-.36-.95-2.115-.696-2.554-.69-.44.007-3.188 1.672-3.188 1.672s-3.51 2.347-3.967 2.92c-.455.573-.52 1.02-.52 1.02l-23.64 23.07"/><ellipse cx="22.752" cy="47.779" rx="5.47" ry="5.47" transform="rotate(-.81 22.793 47.676)"/><path d="M30.167 38.34a7.47 7.47 0 0 1-.076-5.179c.844-2.405 3.214-5.47 3.206-5.529-.036-.256-2.465-.665-4.076 1.216-1.61 1.881-1.974 3.572-2.492 4.795-.517 1.223-.64 1.487-1.47 2.775-.781 1.212-2.348 2.224-3.71 2.414-1.363.19-3.567.627-6.243 2.645-3.2 2.413-5.34 8.513-1.546 13.664 1.734 2.355 6.314 5.256 11.43 3.318 3.765-1.427 5.095-3.635 5.512-4.644.57-1.378.89-3.167.955-3.636.11-.78-.048-1.655 1.755-2.36 1.803-.705 3.987-1.71 4.57-2.395.657-.773.72-1.514.47-2.173-.137.021-1.168.37-3.165-.097-1.996-.467-2.068-1.123-2.312-1.287"/></g></svg>