<svg xmlns="http://www.w3.org/2000/svg" viewBox="0 0 72 72"><path fill="#d0cfce" d="M24.239 20h-7.21a7.154 7.154 0 0 1 .024 2h7.154a7.18 7.18 0 0 1 .032-2zm2.717-8.694a6.495 6.495 0 0 0-6.322-6.322 6.322 6.322 0 0 0-6.322 6.322l-.004-.026c.05 2.257 1.403 4.404 2.212 6.72h8.232c.81-2.306 2.154-4.445 2.204-6.694zm.336 16.164A11.747 11.747 0 0 1 24.78 24h-8.309a11.774 11.774 0 0 1-2.5 3.444c-9.258 9.258-5.827 25.063 1.117 39.53L15 67h11.176c6.943-14.467 10.374-30.272 1.116-39.53z"/><path fill="#ea5a47" d="M24.207 22h-7.154a7.175 7.175 0 0 1-.582 2h8.309a7.156 7.156 0 0 1-.573-2zm.546-4H16.52a10.76 10.76 0 0 1 .508 2h7.211a10.848 10.848 0 0 1 .514-2z"/><path fill="#9b9b9a" d="M22.162 22h2.044a7.176 7.176 0 0 1 .032-2h-2.065c-.031.648-.04 1.312-.01 2zm.895-10.694A63.054 63.054 0 0 1 22.34 18h2.412c.81-2.306 2.153-4.446 2.203-6.694a6.511 6.511 0 0 0-5.778-6.292c1.055.307 1.901 3.297 1.88 6.292zm4.234 16.164A11.745 11.745 0 0 1 24.779 24h-2.43a20.844 20.844 0 0 0 .817 3.47c3.013 9.258 1.896 25.063-.363 39.53l3.348-.328c6.944-14.467 10.398-29.944 1.14-39.202z"/><path fill="#d22f27" d="M22.349 24h2.43a7.159 7.159 0 0 1-.573-2h-2.044a19.744 19.744 0 0 0 .187 2zm-.176-4h2.065a10.84 10.84 0 0 1 .514-2H22.34a30.448 30.448 0 0 0-.167 2z"/><path fill="#d0cfce" d="M21 4.984v.02c.058.004.118.004.177.01a.636.636 0 0 0-.177-.03zM41.239 20h-7.21a7.154 7.154 0 0 1 .024 2h7.154a7.18 7.18 0 0 1 .032-2zm2.717-8.694a6.495 6.495 0 0 0-6.322-6.322 6.322 6.322 0 0 0-6.322 6.322l-.004-.026c.05 2.257 1.403 4.404 2.212 6.72h8.232c.81-2.306 2.154-4.445 2.204-6.694zm.336 16.164A11.747 11.747 0 0 1 41.78 24h-8.309a11.774 11.774 0 0 1-2.5 3.444c-9.258 9.258-5.913 25.104 1.03 39.57L32 67h11.176c6.943-14.467 10.374-30.272 1.116-39.53z"/><path fill="#ea5a47" d="M41.207 22h-7.154a7.175 7.175 0 0 1-.582 2h8.309a7.156 7.156 0 0 1-.573-2zm.545-4H33.52a10.76 10.76 0 0 1 .508 2h7.211a10.848 10.848 0 0 1 .514-2z"/><path fill="#9b9b9a" d="M39.162 22h2.044a7.176 7.176 0 0 1 .032-2h-2.065c-.031.648-.04 1.312-.01 2zm.895-10.694A63.054 63.054 0 0 1 39.34 18h2.412c.81-2.306 2.153-4.446 2.203-6.694a6.511 6.511 0 0 0-5.778-6.292c1.055.307 1.901 3.297 1.88 6.292zm4.234 16.164A11.745 11.745 0 0 1 41.779 24h-2.43a20.844 20.844 0 0 0 .817 3.47c3.013 9.258 1.896 25.063-.363 39.53h3.372c6.944-14.467 10.374-30.272 1.116-39.53z"/><path fill="#d22f27" d="M39.349 24h2.43a7.159 7.159 0 0 1-.573-2h-2.044a19.744 19.744 0 0 0 .187 2zm-.176-4h2.065a10.84 10.84 0 0 1 .514-2H39.34a30.448 30.448 0 0 0-.167 2z"/><path fill="#d0cfce" d="M38 4.984v.02c.058.004.118.004.177.01a.636.636 0 0 0-.177-.03z"/><circle cx="19.998" cy="52.092" r="15" fill="#9b9b9a"/><path fill="#3F3F3F" d="M27.602 39.16a15.003 15.003 0 0 1-18.57 23.173 15.004 15.004 0 0 0 25.966-10.241 14.886 14.886 0 0 0-7.396-12.931z"/><path fill="#d0cfce" d="M58.239 20h-7.21a7.154 7.154 0 0 1 .024 2h7.154a7.18 7.18 0 0 1 .032-2zm2.717-8.694a6.495 6.495 0 0 0-6.322-6.322 6.322 6.322 0 0 0-6.322 6.322l-.004-.026c.05 2.257 1.403 4.404 2.212 6.72h8.232c.81-2.306 2.154-4.445 2.204-6.694zm.336 16.164A11.747 11.747 0 0 1 58.78 24h-8.309a11.774 11.774 0 0 1-2.5 3.444C38.713 36.702 42.056 52.533 49 67h11.176c6.943-14.467 10.374-30.272 1.116-39.53z"/><path fill="#ea5a47" d="M58.207 22h-7.154a7.175 7.175 0 0 1-.582 2h8.309a7.156 7.156 0 0 1-.573-2zm.545-4H50.52a10.76 10.76 0 0 1 .508 2h7.211a10.848 10.848 0 0 1 .514-2z"/><path fill="#9b9b9a" d="M56.162 22h2.044a7.176 7.176 0 0 1 .032-2h-2.065c-.031.648-.04 1.312-.01 2zm.895-10.694A63.054 63.054 0 0 1 56.34 18h2.412c.81-2.306 2.153-4.446 2.203-6.694a6.511 6.511 0 0 0-5.778-6.292c1.055.307 1.901 3.297 1.88 6.292zm4.234 16.164A11.745 11.745 0 0 1 58.779 24h-2.43a20.844 20.844 0 0 0 .817 3.47c3.013 9.258 1.896 25.063-.363 39.53h3.372c6.944-14.467 10.374-30.272 1.116-39.53z"/><path fill="#d22f27" d="M56.349 24h2.43a7.159 7.159 0 0 1-.573-2h-2.044a19.744 19.744 0 0 0 .187 2zm-.176-4h2.065a10.84 10.84 0 0 1 .514-2H56.34a30.448 30.448 0 0 0-.167 2z"/><path fill="#d0cfce" d="M55 4.984v.02c.058.004.118.004.177.01a.636.636 0 0 0-.177-.03z"/><circle cx="19.998" cy="52.092" r="15" fill="none" stroke="#000" stroke-linecap="round" stroke-linejoin="round" stroke-width="2"/><circle cx="16.197" cy="47.652" r="2"/><circle cx="19.777" cy="51.652" r="2"/><circle cx="12.457" cy="53.652" r="2"/><path fill="none" stroke="#000" stroke-linecap="round" stroke-linejoin="round" stroke-width="2.303" d="M8.703 37.842a19.06 19.06 0 0 1 5.269-10.398c6.823-6.823.444-11.226.335-16.164l.005.026a6.322 6.322 0 0 1 6.322-6.322 6.495 6.495 0 0 1 6.322 6.322c-.106 4.775-6.074 9.05-.297 15.497m-.259 8.204a18.48 18.48 0 0 1 4.572-7.563c6.823-6.823.444-11.226.335-16.164l.005.026a6.322 6.322 0 0 1 6.322-6.322 6.495 6.495 0 0 1 6.322 6.322c-.106 4.767-6.054 9.035-.326 15.464M49 67c-6.944-14.467-10.287-30.298-1.028-39.556 6.823-6.823.444-11.226.335-16.164l.005.026a6.322 6.322 0 0 1 6.322-6.322 6.495 6.495 0 0 1 6.322 6.322c-.11 4.938-6.488 9.34.336 16.164 9.258 9.258 5.827 25.063-1.116 39.53z"/><path fill="none" stroke="#000" stroke-linecap="round" stroke-linejoin="round" stroke-width="2.097" d="m32.321 65.557.382 1.345h9.844l1.237-3.573"/></svg>