<svg xmlns="http://www.w3.org/2000/svg" viewBox="0 0 72 72"><g fill="#FFF"><path d="M22.358 17.268h6.002v6.002h-6.002zM28.36 33.893l-6.002 1.38v-6.002h6.002zM28.36 23.27h6.002v6.002H28.36zM34.361 17.268h6.002v6.002h-6.002zM28.36 14.987h6.002v2.281H28.36zM40.363 35.273l-6.002-1.451v-4.55h6.002zM40.363 23.27h6.002v6.002h-6.002zM46.365 20.269h6.002v3.001h-6.002zM46.365 29.271h6.002v6.002h-6.002z"/><path d="M52.367 23.27h1.744v6.002h-1.744zM40.363 35.273h6.002v1.931h-6.002zM52.367 35.273h2.113v2.404h-2.113z"/></g><path d="M22.358 23.27h6.002v6.002h-6.002zM28.36 17.268h6.002v6.002H28.36zM28.36 29.271h6.002v5.14H28.36zM28.36 17.268h-6.002l.684-.621 5.317-.62zM40.363 17.268h-6.002v-1.62l6.002.973z"/><path d="M34.361 23.27h6.002v6.002h-6.002zM46.365 23.27h-6.002v-4.624l6.002 1.321zM40.363 29.271h6.002v6.002h-6.002zM46.365 23.27h6.002v6.002h-6.002zM52.367 20.309h1.744v2.96h-1.744z"/><path d="M52.367 29.271h1.909v6.002h-1.909zM46.365 35.273h6.002v3.474h-6.002z"/><path fill="none" stroke="#000" stroke-linecap="round" stroke-linejoin="round" stroke-miterlimit="10" stroke-width="2" d="M23.084 17.488C25.97 15.69 31.506 13.255 37.5 16c3.689 1.69 5.634 4.698 15.04 4.114.79-.049 1.46.597 1.46 1.41V36.65c0 .623-.423 1.077-.965 1.354C51.088 39 45.764 38.94 37.5 35c-3.365-1.604-8.57-2.568-14.458 1.442"/><path fill="none" stroke="#000" stroke-linecap="round" stroke-miterlimit="10" stroke-width="2" d="M19.327 12.875v46.96"/></svg>