<svg xmlns="http://www.w3.org/2000/svg" viewBox="0 0 72 72"><path fill="#A57939" d="M54 49c-1-2 4-5 4-8 0-1.601-1-6-5-7-1.725-.432-3.981-1.442-6.166-1.314-9.522.564-15.21 2.938-18.83 2.001-.969-.25-8.812-8-9.375-8.688l-3.5-3.406-.46 3.698c-3.168 2.125-3.665 3.708-8.665 7.708-.553.442 1.314 2.172 2 2 4-1 8-1 8-1s1.898 6.183 2 8c.113 1.997 0 6 1 7 1.581 1.581 3 2 3 2l-3 6c-.633 1.265-.353 2.646 0 3 2 2 8 4 8 4l1-3s-5-2-5-3c0-1.129 4-4 5-6 0 0 6.56-.402 9-1 1.69-.414 7.038-2.797 10.61-4.432 1.781 2.58 4.178 5.71 4.178 6.432l-4 5 2 1s5-4 6-5c.354-.354.192-1.538 0-2-.54-1.307-1.158-2.735-1.79-4z"/><path fill="#6A462F" d="M48 49s-2.143 6.789-3 9c-.89 2.296-2 8-2 8l4.167-1.167 2.417-4.917-1.25-.166v-2.584l2.916-3.041M56 35h2s7 3 6 7c-.728 2.91-4.126 5.583.874 10.58 0 0 .709 2.834-2.041 2.042 0 0-2.379-.927-3.375-4.083-1.75-5.542 1.651-8.183 1-10.21-.375-1.166-2.334-1.125-2.334-1.125M21.28 52.12l-1.094 2.938c-.625.219-4.422 1.535-4.281 2.719.219 1.844-.906 7.219-.906 7.219l-2 1s-2-8-2-9c0-.79 0-2 1-3s6-4 6-4"/><g fill="#fadcbc"><circle cx="21.66" cy="21.52" r="2.969"/><path d="m33.22 24.95 6.506 1.069-8.31 4.808-.206 2.032.291 9.369 3.5-.727.1-7.254c6.801-2.592 12.3-5.421 10.5-9.565l-2.193-3.898-14.98.159-1.437 2.535 3.02 4.31-5.513.44c-.475.852.059 2.702 1.09 2.748 1.926.119 3.801.113 5.257-.242 1.92-.577 2.773-1.593 2.971-3.333-.601-2.452-.316-1.728-.601-2.452z"/></g><g fill="none" stroke="#000" stroke-miterlimit="10" stroke-width="2"><circle cx="21.6" cy="20.81" r="2.969"/><path stroke-linecap="round" stroke-linejoin="round" d="M25.37 28.59c3.052-.03 6.105.485 4.513-1.838-2.223-2.713-2.706-1.703-2.425-4.755.423-1.015 1.382-2.002 2.482-2.016 4.442-.107 8.627.786 12.82 1.604.81.261 1.704.644 2.312 1.698.542.958.802 1.671.709 2.766 0 0-.107 1.838-.74 2.659-2.226 2.886-8.516 4.081-9.837 5.261l-.248 4.9c-.073 1.487-.202 3.366-1.573 3.496-1.683.16-2.163-1.292-2.203-2.852 0 0-.173-5.068-.177-5.869-.005-.801.785-2.355 1.535-3.049s.215-.412 1.889-1.168l4.747-2.148c1.495-1.187.913-1.546.075-1.779-.838-.232-5.126-.647-5.126-.647M27 35c-1-1-3.451-4.45-6-7-1-1-3-2-3-2l-2-3m30 17s-1 3 0 5c1.188 2.377 5.791 8 5.791 9L49 57s-1.138.748-1.124 1.376C47.917 60.293 49.791 60 49.791 60s6.378-5.564 6.209-6c-.51-1.319-1.367-3.735-2-5-1-2 4-5 4-8 0-1.601-1-6-5-7-1.725-.432-3.773-.491-5.958-.349M24 64c-1.8-.76-3.957-1.957-5-3-.353-.353-.633-1.735 0-3l3-6s-1.419-.419-3-2c-1-1-.887-5.003-1-7-.102-1.817-2-8-2-8s-4 0-8 1c-.685.172-2.553-1.558-2-2 5-4 5-4 8-6m12 33 1.23 1.166a1.69 1.69 0 0 1 .042 2.396c-.654.676-1.656.825-2.23.333L24 64"/><path stroke-linecap="round" stroke-linejoin="round" d="M47 48s-7.385 3.359-10 4c-2.44.598-9 1-9 1-4 4-5 6-5 6s1.629 1.342 3 2m22-12s-2.143 6.789-3 9c-.47 1.213-.618 1.922-1.542 3.958-.824 1.816-.91 2.118-.91 2.118-.302 1.059.127 2.148.952 2.424s1.9-.307 2.389-1.292l1.049-2.114M15 62v2c0 1.1-.675 2-1.5 2s-1.5-.7-1.5-1.557v-2.401M18 50s-5 3-6 4-1 2.21-1 3c0 .518.483 2.854 1 5.042M55.68 35.03l2.32-.032s7 3 6 7c-.728 2.91-5 6 0 11M15 58v4"/></g></svg>