<svg xmlns="http://www.w3.org/2000/svg" viewBox="0 0 72 72"><path fill="#9B9B9A" d="M10 34V17h10v17M34 21h13v35H34z"/><path fill="#D0CFCE" stroke-miterlimit="10" d="M51 56V25h16v31M5 56V34h34v22"/><g fill="none" stroke="#000" stroke-miterlimit="10"><path d="M51 56V25h16v31M5 56V34h34v22"/><path stroke-linecap="round" stroke-linejoin="round" stroke-width="2" d="M51 55V25h16v30M5 55V34h34v21"/><path stroke-linecap="round" stroke-linejoin="round" stroke-width="2" d="M35 31V21h12v34M11 31V17h8v14M57 34h-2v-5M63 34h-2v-5M57 44h-2v-5M63 44h-2v-5M29 43h-2v-5M35 43h-2v-5M29 53h-2v-5M35 53h-2v-5M17 43h-2v-5M23 43h-2v-5M17 53h-2v-5M11 43H9v-5M11 53H9v-5M23 53h-2v-5M57 54h-2v-5M63 54h-2v-5M15 20v11M39 24v7M43 24v31"/></g></svg>