<svg xmlns="http://www.w3.org/2000/svg" viewBox="0 0 72 72"><path fill="#3F3F3F" d="M53 46s-.8-10.9-1.1-11.5-1-2.1-1.3-2.5l-1.8-3-5.5-4.1-3.9 4.9-.8 2.2 3.4 2"/><path fill="#9B9B9A" d="M22.2 29.8h8.5L41 32.5l9 6.5 3.4 9.1L60 56H12l4-7 2-12c.5-3 4.2-7.2 4.2-7.2z"/><path fill="#FFF" d="M29 31s-.8.7-1.3.9C26 33 25.8 34.8 25 35c-1.3.4-.9-2.7-3-3-2-.3-2.1 1.5-3 1-1.2-.7-.2-4.4 0-5 .3-1.1 1.2-2.7 3-6 1.6-2.8 1.7-3.1 2-4 .4-1.6.3-1.6 1-2 .9-.5 2.3.3 3 1 1 1 .4.7 2 2 1.3 1 1.5.8 3 2 .3.2 1.1.9 2 2 .6.7 1.4 1.6 2 3 .7 1.5.4 1.7 1 3 .9 1.9 2.2 2.6 2 3-.3.5-2.7-1-4 0-.4.3-.3.6-1 2-.8 1.7-1.2 3.6-2 4-1.2.6-3-.9-4-2-1.6-1.8 0-5 0-5zm15-8c.8-.8 1.9 1.3 3 3 .9 1.4 2.4 3.2 2 4-.5 1-3 .4-4 0-.3-.2-.4-.3-1-1-1.3-1.5-1.7-1.4-2-2-.6-1.3 1-3 2-4z"/><g fill="none" stroke="#000" stroke-linecap="round" stroke-linejoin="round" stroke-miterlimit="10" stroke-width="2"><path d="m60 55-6.6-6.9L50 39m-30.6-5.9L18 37l-2 12-4 6m28-23 10 7-1 6 1 5-2 2-3 3m3.7-24.7L51 35m-9.8-6 1.2-1.5"/><path d="M29 31s-.8.7-1.3.9C26 33 25.8 34.8 25 35c-1.3.4-.9-2.7-3-3-2-.3-2.1 1.5-3 1-1.2-.7-.2-4.4 0-5 .3-1.1 1.2-2.7 3-6 1.6-2.8 1.7-3.1 2-4 .4-1.6.3-1.6 1-2 .9-.5 2.3.3 3 1 1 1 .4.7 2 2 1.3 1 1.5.8 3 2 .3.2 1.1.9 2 2 .6.7 1.4 1.6 2 3 .7 1.5.4 1.7 1 3 .9 1.9 2.2 2.6 2 3-.3.5-2.7-1-4 0-.4.3-.3.6-1 2-.8 1.7-1.2 3.6-2 4-1.2.6-3-.9-4-2-1.6-1.8 0-5 0-5zm15-8c.8-.8 1.9 1.3 3 3 .9 1.4 2.4 3.2 2 4-.5 1-3 .4-4 0-.3-.2-.4-.3-1-1-1.3-1.5-1.7-1.4-2-2-.6-1.3 1-3 2-4z"/></g></svg>