<svg xmlns="http://www.w3.org/2000/svg" viewBox="0 0 72 72"><g stroke-linecap="round" stroke-linejoin="round" stroke-miterlimit="10" stroke-width="2"><path fill="#F1B31C" stroke="#F1B31C" d="M65 39s-3 0-6 1c-.865.288-2 0-2 0-8.417 0-12-1.583-12-1.583s-5.833-3.5-7.917-4.417C35 33.083 33 29 33 29c-1-3-3.28-5.989-5-6-4.208-.028-6.254 5.836-11 9-3 2-3.39 2.814-6 4-2.272 1.033-3.474 2.98-4 4 0 0-2.98 1.938-3.063 5.688C3.854 49.438 7 52 7 52s5 6.75 13.75 3.875c9.187-3.019 10.204-1.485 13.65-.765 4.604.962 15.725-.297 19.183 1.223C59.895 59.11 64.363 53.877 65 53c1.188-1.633.79-4.122 1.833-5.542 3-4.083 2.042-5.083-1.833-8.458z"/><path fill="#5c9e31" stroke="#5c9e31" d="M48 49V26a3 3 0 0 0-3-3h0a3 3 0 0 0-3 3v23h6z"/><path fill="#5C9E31" d="M41 35a2 2 0 0 1-2-2v-2a2 2 0 1 0-4 0v2a6 6 0 0 0 6 6m8 0a2 2 0 0 0 2-2v-5a2 2 0 1 1 4 0v5a6 6 0 0 1-6 6"/></g><path fill="none" stroke="#000" stroke-linecap="round" stroke-linejoin="round" stroke-miterlimit="10" stroke-width="2" d="M48 49V26a3 3 0 0 0-3-3h0a3 3 0 0 0-3 3v23m-1-14a2 2 0 0 1-2-2v-2a2 2 0 0 0-2-2h0a2 2 0 0 0-2 2v2a6 6 0 0 0 6 6m8 0a2 2 0 0 0 2-2v-5a2 2 0 0 1 2-2h0a2 2 0 0 1 2 2v5a6 6 0 0 1-6 6m16 10c-1 0-5.177-.836-6-1-5-1-9.15-1.194-15 1-8 3-8.943 2.26-10 2-2.158-.53-5.197-3.87-9-5-4.706-1.399-6.102-1.111-9-1-1.848.07-5.126.523-9 3m0-12c.526-1.02 1.728-2.967 4-4 2.61-1.186 3-2 6-4 4.746-3.164 6.792-9.028 11-9 1.72.011 4 3 5 6m32 10s-3 0-6 1c-.865.288-2 0-2 0"/></svg>