<svg xmlns="http://www.w3.org/2000/svg" viewBox="0 0 72 72"><rect width="32.737" height="52.264" x="19.125" y="9.871" fill="#ea5a47" rx="11"/><g fill="#d22f27"><path d="M46.414 10.743l-6.186-.872c7.652 1.92 6.678 13.537 6.786 15.785 1.757 36.601-12.681 36.636-13.41 36.678L43.012 62h.06A9.113 9.113 0 0052 52.987V19.473s-.615-5.82-5.586-8.73zM33.604 62.41l-.05.001s.018 0 .05-.001z"/></g><rect width="12.286" height="35.618" x="29.35" y="18.332" fill="#fff" rx="2"/><path fill="#3f3f3f" d="M26.84 8.018V4.972h17.306v3.046M44.146 64.184v2.866H26.84v-2.866"/><g fill="none" stroke="#000" stroke-linecap="round" stroke-linejoin="round"><path stroke-width="2" d="M26.84 7.481V4.972h17.306v2.509M44.146 64.657v2.393H26.84v-2.393"/><rect width="32.737" height="52.264" x="19.125" y="9.871" stroke-width="2" rx="11"/><g stroke-width="1.5"><path d="M31.34 31.689h8.307v8.934H31.34zM31.34 42.539h8.307v8.934H31.34zM31.34 20.84h8.307v8.934H31.34z"/></g></g></svg>