<svg xmlns="http://www.w3.org/2000/svg" viewBox="0 0 72 72"><rect width="32.737" height="52.264" x="19.125" y="9.871" fill="#ea5a47" rx="11"/><path fill="#d22f27" d="m46.414 10.743-6.186-.872c7.652 1.92 6.678 13.537 6.786 15.785 1.757 36.601-12.681 36.636-13.41 36.678L43.012 62h.06A9.113 9.113 0 0 0 52 52.987V19.473s-.615-5.82-5.586-8.73zM33.604 62.41l-.05.001.05-.001z"/><rect width="12.286" height="35.618" x="29.35" y="18.332" fill="#fff" rx="2"/><path fill="#3f3f3f" d="M26.84 8.018V4.972h17.306v3.046m0 56.166v2.866H26.84v-2.866"/><g fill="none" stroke="#000" stroke-linecap="round" stroke-linejoin="round"><path stroke-width="2" d="M26.84 7.481V4.972h17.306v2.509m0 57.176v2.393H26.84v-2.393"/><rect width="32.737" height="52.264" x="19.125" y="9.871" stroke-width="2" rx="11"/><path stroke-width="1.5" d="M31.34 31.689h8.307v8.934H31.34zm0 10.85h8.307v8.934H31.34zm0-21.699h8.307v8.934H31.34z"/></g></svg>