<svg xmlns="http://www.w3.org/2000/svg" viewBox="0 0 72 72"><path fill="#FFF" d="M37.075 36.053h26.884v18.114H37.075z"/><path fill="#EA5A47" stroke="#EA5A47" stroke-linecap="round" stroke-linejoin="round" stroke-miterlimit="10" stroke-width="2" d="M50.235 23.2 38.1 36h25.4z"/><path fill="#EA5A47" d="m47.3 26-6.4 6.06v-8.574c0-.931.755-1.416 1.686-1.416h3.028c.931 0 1.686.485 1.686 1.416V26z"/><path fill="#A57939" d="M43 42h6v12h-6z"/><path fill="#92D3F5" d="M54 42h6v5h-6z"/><path fill="#B1CC33" d="M41.006 28.34c0-3.313-3.445-6.003-7.694-6.003a9.91 9.91 0 0 0-1.062.066c-1.8-3.455-5.707-5.855-10.25-5.855-6.248 0-11.312 4.528-11.312 10.114.001.37.025.738.07 1.104C7.966 28.666 6 30.81 6 33.314c0 3.312 3.445 6.002 7.694 6.002a9.136 9.136 0 0 0 4.613-1.207c1.818 1.477 4.727 2.439 8.016 2.439 5.51 0 9.977-2.688 9.977-6.003 0-.219-.021-.438-.06-.653 2.796-.902 4.766-3.047 4.766-5.553z"/><g fill="none" stroke="#000" stroke-linecap="round" stroke-width="2"><path stroke-linejoin="round" stroke-miterlimit="10" d="m46 27 4.235-4L64 35.098V54H38V41.548"/><path stroke-linejoin="round" stroke-miterlimit="10" d="M43 42h6v12h-6zm11 0h6v5h-6zM43.5 23h3v3"/><path stroke-linejoin="round" d="M22.5 54v-7.173L17.5 42m5.541 4.727 2.844-2.961"/><path stroke-miterlimit="10" d="M41.006 28.34c0-3.313-3.445-6.003-7.694-6.003a9.91 9.91 0 0 0-1.062.066c-1.8-3.455-5.707-5.855-10.25-5.855-6.248 0-11.312 4.528-11.312 10.114.001.37.025.738.07 1.104C7.966 28.666 6 30.81 6 33.314c0 3.312 3.445 6.002 7.694 6.002a9.136 9.136 0 0 0 4.613-1.207c1.818 1.477 4.727 2.439 8.016 2.439 5.51 0 9.977-2.688 9.977-6.003 0-.219-.021-.438-.06-.653 2.796-.902 4.766-3.047 4.766-5.553z"/><path stroke-linejoin="round" stroke-miterlimit="10" d="M63.5 36h-21"/></g></svg>