<svg xmlns="http://www.w3.org/2000/svg" viewBox="0 0 72 72"><g stroke-linecap="round" stroke-linejoin="round" stroke-miterlimit="10" stroke-width="2"><path fill="#D0CFCE" d="M16 12h40v48H16z"/><path fill="#92D3F5" d="M20 50h8v10h-8zM44 50h8v10h-8zM32 50h8v10h-8zM16 36h10v10H16zM26 36h10v10H26zM36 36h10v10H36zM46 36h10v10H46zM16 26h10v10H16zM26 26h10v10H26zM36 26h10v10H36zM46 26h10v10H46zM16 16h10v10H16zM26 16h10v10H26zM36 16h10v10H36zM46 16h10v10H46z"/></g><g fill="none" stroke="#000" stroke-linecap="round" stroke-linejoin="round" stroke-miterlimit="10" stroke-width="2"><path d="M16 12h40v48H16z"/><path d="M20 50h8v10h-8zM44 50h8v10h-8zM32 50h8v10h-8zM16 36h10v10H16zM26 36h10v10H26zM36 36h10v10H36zM46 36h10v10H46zM16 26h10v10H16zM26 26h10v10H26zM36 26h10v10H36zM46 26h10v10H46zM16 16h10v10H16zM26 16h10v10H26zM36 16h10v10H36zM46 16h10v10H46z"/></g></svg>