<svg xmlns="http://www.w3.org/2000/svg" viewBox="0 0 72 72"><path fill="#E27022" d="M9 38h53v17H9z"/><path fill="#92D3F5" d="M14 45h10v10H14zm14 0h10v10H28zm10 0h10v10H38zm10 0h10v10H48z"/><ellipse cx="19" cy="37" fill="#FFF" rx="7" ry="5"/><g fill="none" stroke="#000" stroke-miterlimit="10"><path stroke-linecap="round" stroke-linejoin="round" stroke-width="2" d="M26 38h36v17H9V38h3"/><path stroke-linecap="round" stroke-linejoin="round" stroke-width="2" d="M14 45h10v10H14zm5 10V45m9 0h10v10H28zm10 0h10v10H38zm10 0h10v10H48z"/><ellipse cx="19" cy="37" stroke-width="2" rx="7" ry="5"/><path stroke-linecap="round" stroke-linejoin="round" stroke-width=".857" d="M16.577 35.99a.922.922 0 0 1 .903-.737h0a.92.92 0 0 1 .651.27c.26.26.236.69-.008.965l-1.565 1.765h1.843m2.377-3-1.115 2.52h1.755m-.289-.928v1.408"/></g></svg>