<svg xmlns="http://www.w3.org/2000/svg" viewBox="0 0 72 72"><path fill="#1E50A0" d="M67 17H5.32v37.804H67V17z"/><path fill="#fff" fill-rule="evenodd" d="M33 31a1 1 0 0 1-1 1 1 1 0 0 1 1 1 1 1 0 0 1 1-1 1 1 0 0 1-1-1z" clip-rule="evenodd"/><path fill="#fff" d="M32 31.75a.25.25 0 1 0 0 .5v-.5zm1.25-.75a.25.25 0 1 0-.5 0h.5zm-.5 2a.25.25 0 1 0 .5 0h-.5zm1.25-.75a.25.25 0 1 0 0-.5v.5zm-2 0c.69 0 1.25-.56 1.25-1.25h-.5a.75.75 0 0 1-.75.75v.5zm1.25.75c0-.69-.56-1.25-1.25-1.25v.5a.75.75 0 0 1 .75.75h.5zm.75-1.25c-.69 0-1.25.56-1.25 1.25h.5a.75.75 0 0 1 .75-.75v-.5zM32.75 31c0 .69.56 1.25 1.25 1.25v-.5a.75.75 0 0 1-.75-.75h-.5z"/><path fill="#fff" fill-rule="evenodd" d="M38 33a1 1 0 0 1-1 1 1 1 0 0 1 1 1 1 1 0 0 1 1-1 1 1 0 0 1-1-1z" clip-rule="evenodd"/><path fill="#fff" d="M37 33.75a.25.25 0 1 0 0 .5v-.5zm1.25-.75a.25.25 0 1 0-.5 0h.5zm-.5 2a.25.25 0 1 0 .5 0h-.5zm1.25-.75a.25.25 0 1 0 0-.5v.5zm-2 0c.69 0 1.25-.56 1.25-1.25h-.5a.75.75 0 0 1-.75.75v.5zm1.25.75c0-.69-.56-1.25-1.25-1.25v.5a.75.75 0 0 1 .75.75h.5zm.75-1.25c-.69 0-1.25.56-1.25 1.25h.5a.75.75 0 0 1 .75-.75v-.5zM37.75 33c0 .69.56 1.25 1.25 1.25v-.5a.75.75 0 0 1-.75-.75h-.5z"/><path fill="#fff" fill-rule="evenodd" d="M37 29a1 1 0 0 1-1 1 1 1 0 0 1 1 1 1 1 0 0 1 1-1 1 1 0 0 1-1-1z" clip-rule="evenodd"/><path fill="#fff" d="M36 29.75a.25.25 0 1 0 0 .5v-.5zm1.25-.75a.25.25 0 1 0-.5 0h.5zm-.5 2a.25.25 0 1 0 .5 0h-.5zm1.25-.75a.25.25 0 1 0 0-.5v.5zm-2 0c.69 0 1.25-.56 1.25-1.25h-.5a.75.75 0 0 1-.75.75v.5zm1.25.75c0-.69-.56-1.25-1.25-1.25v.5a.75.75 0 0 1 .75.75h.5zm.75-1.25c-.69 0-1.25.56-1.25 1.25h.5a.75.75 0 0 1 .75-.75v-.5zM36.75 29c0 .69.56 1.25 1.25 1.25v-.5a.75.75 0 0 1-.75-.75h-.5z"/><circle cx="41.5" cy="33.5" r=".5" fill="#fff"/><circle cx="43.5" cy="32.5" r=".5" fill="#fff"/><circle cx="37.5" cy="38.5" r=".5" fill="#fff"/><circle cx="35.5" cy="35.5" r=".5" fill="#fff"/><circle cx="35.5" cy="32.5" r=".5" fill="#fff"/><circle cx="33.5" cy="29.5" r=".5" fill="#fff"/><circle cx="30.5" cy="35.5" r=".5" fill="#fff"/><circle cx="33.5" cy="36.5" r=".5" fill="#fff"/><circle cx="41.5" cy="27.5" r=".5" fill="#fff"/><circle cx="33.5" cy="26.5" r=".5" fill="#fff"/><circle cx="37.5" cy="25.5" r=".5" fill="#fff"/><circle cx="29.5" cy="31.5" r=".5" fill="#fff"/><circle cx="39.5" cy="31.5" r=".5" fill="#fff"/><path fill="none" stroke="#fff" stroke-linecap="round" stroke-linejoin="round" d="m27.488 23.428-.427.855L28.77 23m-2.993 1.711a4.28 4.28 0 0 0-.427 1.711l.855-.428m-2.995 2.994c.286.999 1.027 2.652 1.712 1.284m-.856-3.85c0 .998.257 2.738 1.284 1.711m-2.567 3.422c.285.998 1.112 2.652 2.139 1.283m-2.567.856c.428.998 1.54 2.652 2.567 1.283m-1.712 1.711c.856 1.283 2.567 1.283 2.995 0m-.855 2.566c.57.428 2.138 1.198 2.138-.855m-.428 2.994c.428.143 1.37.342 1.712 0 .342-.342.285-.998 0-1.283m3.849 3.85s1.02.69 2.139-.428c.342-.342-.428-.713-.855-.856-.856 0-3.166-.085-3.85-.427m15.056-18.821.428.855L43.83 23m2.992 1.711a4.28 4.28 0 0 1 .428 1.711l-.855-.428m2.994 2.994c-.285.999-1.027 2.652-1.711 1.284m.855-3.85c0 .998-.256 2.738-1.283 1.711m2.566 3.422c-.285.998-1.112 2.652-2.138 1.283m2.566.856c-.428.998-1.54 2.652-2.566 1.283m1.711 1.711c-.856 1.283-2.567 1.283-2.994 0m.855 2.566c-.57.428-2.139 1.198-2.139-.855m.429 2.994c-.429.143-1.37.342-1.712 0-.342-.342-.285-.998 0-1.283m-3.85 3.85s-1.02.69-2.138-.428c-.343-.342.427-.713.855-.856.856 0 3.165-.085 3.85-.427"/><circle cx="36" cy="32" r="9" fill="none" stroke="#fff" stroke-width="1.15"/><path fill="none" stroke="#fff" stroke-linecap="round" stroke-width="3" d="M11.5 48.5h49"/><path fill="none" stroke="#000" stroke-linecap="round" stroke-linejoin="round" stroke-width="2" d="M67 17H5v38h62V17z"/></svg>