<svg xmlns="http://www.w3.org/2000/svg" viewBox="0 0 72 72"><path fill="#B1CC33" stroke="#B1CC33" stroke-linecap="round" stroke-linejoin="round" stroke-miterlimit="10" stroke-width="2" d="M46 24c-1.083-.583-4-1-5.917-.917C38.167 23.167 37 21 37 21c-.9 1.35-.315 2.768.6 3.918 1.152 1.447 2.823 2.399 4.63 2.792C47.726 28.907 48 30 48 30l-.195 2.858c3.892 1.55 4.61 4.458 4.89 5.45l-4.358.008c3.47 2.442 4.326 7.368 4.326 7.368L50 46c-.167 3-3.5 7.917-8 11s-2.25 7.75-2.25 7.75S34 58 42 51s.583-15 .583-15c1.584 12-4.416 14.583-4.416 14.583-7.834 1.584-8.417-3.333-8.417-3.333l3.75 1.417c8.5.666.167-11.084.167-11.084-9.334-5.416-13.667 2.417-14.084 1-.416-1.416 1.584-4.75 1.584-4.75-1.834-1.166-10.834 3.084-10.834 3.084-.666-1.084 7.25-5.917 7.25-5.917C16.167 29 10 29 10 29s4-6 14.167-2.833L37 34s-6.737-6.876-8-12c-1.28-5.192 2.618-8.493 2-8l-3.33-4.332c1.943-.522 3.566.78 4.132 1.213L30.224 5.76c2.502.121 3.79 2.118 4.247 2.79L36 5l3.917 3.5s2.083-1.5 3 .25C43.833 10.5 46 14 49.083 14.583c3.084.584 1.5 3.917 1.5 3.917S46 17 44 17s-2.75 1.583-2.75 1.583S41 18 45 20s1 4 1 4"/><path fill="#EA5A47" d="M50 21s4 2 3 4c0 0 3.333 0 4.167 2.5C58 30 63 28 63 28l-4.333-2.167s0-2.833-1.334-2.833C56 23 53 20 50 21z"/><g fill="none" stroke="#000" stroke-linecap="round" stroke-linejoin="round" stroke-miterlimit="10" stroke-width="2"><path d="M52.663 45.684s-.856-4.926-4.326-7.368m4.357-.007c-.28-.993-.997-3.9-4.889-5.45M48 30s-.273-1.093-5.77-2.29c-1.807-.393-3.478-1.345-4.63-2.792-.915-1.15-1.5-2.568-.6-3.918 0 0 1.167 2.167 3.083 2.083C42 23 44.917 23.417 46 24m0 0s3-2-1-4-3.75-1.417-3.75-1.417S42 17 44 17s6.583 1.5 6.583 1.5 1.584-3.333-1.5-3.917C46 14 43.833 10.5 42.917 8.75c-.917-1.75-3-.25-3-.25L36 5M24.167 26.167C14 23 10 29 10 29s6.167 0 7.583 2c0 0-7.916 4.833-7.25 5.917 0 0 9-4.25 10.834-3.084 0 0-2 3.334-1.584 4.75.417 1.417 4.75-6.416 14.084-1 0 0 8.333 11.75-.167 11.084l-3.75-1.417s.583 4.917 8.417 3.333c0 0 6-2.583 4.416-14.583 0 0 7.417 8-.583 15s-2.25 13.75-2.25 13.75S37.5 60.083 42 57s7.833-8 8-11"/><path d="M31 14c.618-.493-3.28 2.808-2 8 1.263 5.124 8 12 8 12M34.47 8.55c-.457-.673-1.744-2.67-4.246-2.79m1.578 5.121c-.566-.432-2.19-1.735-4.133-1.213M50 21s4 2 3 4c0 0 3.333 0 4.167 2.5C58 30 63 28 63 28l-4.333-2.167s0-2.833-1.334-2.833C56 23 53 20 50 21z"/></g></svg>