<svg xmlns="http://www.w3.org/2000/svg" viewBox="0 0 72 72"><path fill="#e27022" d="m47.25 44.38 2.658 2.696 5.591 1.245-1.291 4.058.75 3.218 2.208-.714 2.625-4.979 1.699-5.4c-3.714-2.637-4.903-6.142-6.384-9.809z"/><path fill="#E27022" d="m30.95 43.79-1.819 2.842-1.583 7.534-1.602 1.754-2.94-1.088-.333-5.25s.5-4.511 1-6.547c.5-2.036 5.333-2.366 5.333-2.366l1.944 3.121z"/><path fill="#F4AA41" d="M50.8 29.28zm.95 1.23-.284-.367.284.367zm-.28-.37-.67-.864.67.864z"/><path fill="#f4aa41" d="m67.14 16.53-2.516-.313-4.29 1.557a704.275 704.275 0 0 0-1.209 8.033l-4.066 3.823-6.591.903-5.66-2.434-15.53-1.146-6.442 1.238-6.324-2.754-4.26-2.829-3.623.74 1.75 3.416-3.318 5.1.941 4.237s4.63.01 6.91.55l3.396-1.197c-.547 2.351.686 4.811 1.548 6.94-2.867 1.41-4.38 2.61-5.217 4.64-.384.931-.625 3.265-.79 4.647l2.799 2.062s3.938-.312 2.344-4.577l2.799-2.733c1.502-.794 4.45-2.175 4.45-2.175l14.5.728 2.743 3.189-1.33 7.442 2.557-.27 4.885-6.5v-3.49s4.94-5.533 6.02-8.887l.013.017s5.806-3.004 8.03-7.525c3.597-5.054-.678-9.975 4.438-8.312 1.289.419 2.883-2.184 1.32-3.81l-.283-.311z"/><g fill="none" stroke="#000" stroke-linecap="round" stroke-linejoin="round" stroke-miterlimit="10" stroke-width="2"><path d="M12.46 35.74c-2.333 1-4.917.833-4.917.833-1.677.146-3.115-4.01-2.485-4.733l3.318-5.1-1.75-3.417s5.008-1.415 7.883 2.09c.344.42.794.743 1.279.987l.091.046c2.593 1.289 5.546 1.571 8.385.998 7.222-1.458 14.07-1.37 21.7 2.212 7.625 3.583 14.53-2.25 13.64-7.5-.793-4.647 3.562-7.583 6.75-5M16.05 48.82c.6-2.206 8.491-3.648 8.491-3.648s3.228-1.201 1.426-4.504"/><path d="M18.3 33.24c-1.543 1.834-3.893 4.803-.44 9.158 0 0-6.756 2.853-6.006 8.033 0 0 .362 2.476 2.402 2.402M23.5 50.03c-1.156 7.254 2.386 6.055 3.017 5.661 1.148-.717 1.848-9.854 3.952-11.31 1.592-1.104 8.167-.302 8.167-.302m-.196-2.749c.091 1.742.753 3.402 1.734 4.845.662.973 1.803 2.32 1.453 2.985-4.479 8.5.622 7.022 1.083 6.167 3.188-5.917 6.125-4.104 4.647-10.52 0 0 5.27-1.81 5.52-7.977"/><path d="M48.15 45.59s2.367 3.204 7.758 2.693c0 0-3.326 6.762 0 7.62 1.917.494 4.722-11.16 4.722-11.16s-1.839-.794-3.951-4.182"/></g></svg>