<svg xmlns="http://www.w3.org/2000/svg" viewBox="0 0 72 72"><g fill="#3f3f3f"><path d="m47.25 44.38 2.658 2.696 5.591 1.245-1.291 4.058.75 3.218 2.208-.714 2.625-4.979 1.208-5.154c-1.059-1.656-2.403-3.314-3.157-4.998-1.79-1.403-2.502-3.67-3.718-5.915zm-16.3-.59-1.819 2.842-1.583 7.534-1.602 1.754-2.94-1.088-.471-4.959s.822-4.787 1.322-6.823c.5-2.036 5.149-2.382 5.149-2.382z"/><path d="m67.59 16.75-2.667-.557-4.29 1.557-.73 4.406-.374 3.14-3.25 3.823-2.645 1.549-1.76.005c-.041-.054-.076-.11-.118-.164h-3.29l-5.322-2.035-5.971-2.086-9.892.541-6.442 1.238-6.324-2.754-4.26-2.829-3.623.74 1.75 3.416-3.318 5.1.941 4.237 5.09.119 1.82.431 3.396-1.197-.263 3.238 1.11 2.738-1.11 1.983-3.71 2.95-.485 4.092 2.798 3.29s3.938-.313 2.344-4.578l2.799-2.733 4.747-1.234 1.973-1.217 4.436.789h8.409l2.13 3.404-1.424 4.683.095 2.759 2.556-.27 2.948-3.93 1.937-2.57v-3.49l3.64-3.572 2.348-4.939s.02-.138.033-.376l.012.017s6.106-3.004 8.33-7.525c3.597-5.054-.677-9.975 4.438-8.312 1.29.419 2.75-2.25 1.187-3.875z"/></g><g fill="none" stroke="#000" stroke-linecap="round" stroke-linejoin="round" stroke-miterlimit="10" stroke-width="2"><path d="M12.46 35.74c-2.333 1-4.917.833-4.917.833-1.677.146-3.115-4.01-2.485-4.733l3.318-5.1-1.75-3.417s5.008-1.415 7.883 2.09c.344.42.794.743 1.279.987l.091.046c2.593 1.289 5.546 1.571 8.385.998 7.222-1.458 14.07-1.37 21.7 2.212 7.625 3.583 14.83-2.25 13.94-7.5-.793-4.647 3.562-7.583 6.75-5M16.05 48.82c.6-2.206 8.491-3.648 8.491-3.648s3.228-1.201 1.426-4.504"/><path d="M18.3 33.24c-1.543 1.834-3.893 4.803-.44 9.158 0 0-6.756 2.853-6.006 8.033 0 0 .362 2.476 2.402 2.402M23.5 50.03c-1.156 7.254 2.386 6.055 3.017 5.661 1.148-.717 1.848-9.854 3.952-11.31 1.592-1.104 8.167-.302 8.167-.302m-.196-2.749c.091 1.742.753 3.402 1.734 4.845.662.973 1.803 2.32 1.453 2.985-4.479 8.5.622 7.022 1.083 6.167 3.188-5.917 6.125-4.104 4.647-10.52 0 0 5.27-1.81 5.52-7.977"/><path d="M48.15 45.59s2.367 3.204 7.758 2.693c0 0-3.326 6.762 0 7.62 1.917.494 4.722-11.16 4.722-11.16s-2.667-2.45-3.583-4.366"/></g></svg>