<svg xmlns="http://www.w3.org/2000/svg" viewBox="0 0 72 72"><path fill="#FFF" d="m18.171 25.167-.207-.117-2.668-1.512-3.298.992s-3.263 4.344-3.331 4.452c-.069.108-2.496 4.277-2.496 4.277l.767 2.685s4.733 1.736 9.816 0c0 0 4.563 3.006 4.198 7.281 0 0 5.469-.943 5.469 3.275 0 .208-.338 7.483-.338 7.483l.63 2.918h2.875l2.541-12.088 3.619.687 12.506-.687 3.542-1.48 1.5 3.167-1.794 7.815 2.252 2.227 3.042-2.959s-.84 3.584 2.308 3.153c2.708-.37 2.805-1.694 2.805-1.694l.304-6.542-.304-2.677-2.821-3.031 1.5-9.533s-1-8.35-2.875-9.72l-25.132-.602-8.702 1.021-5.708 1.209z"/><path fill="#A57939" d="m23.282 22.937-6.045 2.06s-5.455 1.815-5.465 6.866 3.566 4.97 3.566 4.97h2.896s2.252 2.464 2.553 5.607c.3 3.143 4.028 3.383 4.028 3.383l1.68 1.761-.242 5.548-.509 2.552 1.594.858 2.492-.705 2.751-11.455.59-4.642s-1.167-7.566-1.25-8.194c-.083-.63-.84-6.192-1.92-8.327l-6.72-.282zm16.806 0s5 4.146 4.916 12.48c-.083 8.333 6.915 8.19 6.915 8.19l.963 3.845-1.34 5.759 1.103 2.473 2.393-.454 3.51-9.407s1.982-6.294 1.556-6.513c-.427-.219.484-6.393.484-6.393s.005-7.137-3.414-9.36l-17.086-.62z"/><g fill="none" stroke="#000" stroke-linecap="round" stroke-linejoin="round" stroke-miterlimit="10" stroke-width="2"><path d="M59.853 33.259c.548 2.178.198 5.686-1.043 8.387l-.814 5.16-2.506 7.667c-.267.815-1.008 1.364-1.842 1.364h-.258c-1.322 0-2.258-1.33-1.848-2.627l1.626-6.987s-4.133-7.661-2.999-11.212M31.05 31.863l1.531 8.158-2.536 15.127c-.124.984-.927 1.726-1.888 1.746l-.307.006c-1.333.028-2.298-1.297-1.892-2.607.826-2.664.982-6.971-.241-9.911-1.398-3.358-.753-4.959-.753-4.959"/><path d="M35.748 44.501s12.096 1.311 15.378-1.44M65.2 44.382s-2.168-3.667-1.24-9.248c1.72-10.327-6.446-11.446-6.446-11.446l-.34-.131-24.593-.62-9.3 1.014m35.475 18.036 3.153 3.836-.065 8.347c0 .921-.723 1.667-1.616 1.667h-1.68M7.79 22.27c1.99 2.537 3.982 2.537 3.982 2.537"/><path d="M18.975 20.695c1.418 2.843-1.738 4.302-1.738 4.302s-2.717-3.778-5.465-.19l-2.061 2.5s-2.111 3.47-3.59 5.462c-.411.554.33 2.425.686 3.018.66 1.106 5.352 1.787 9.723.213 0 0 3.645.327 4.33 7.06.131 1.281 2.738 3.017 4.884 2.732"/><path d="M18.654 31.505c4.756 1.553 4.995-2.458 4.995-2.458v-.258c-2.314-2.76-4.456-.777-4.456-.777"/></g></svg>