<svg xmlns="http://www.w3.org/2000/svg" viewBox="0 0 72 72"><path fill="#92d3f5" d="M38.552 28.068a7.128 7.128 0 0 0-1.37 1.26l-.02.02a.142.142 0 0 1-.06-.02c-.56-.23-1.11-.55-1.74-.79-5.29-2.31-13.82-5.62-20.37-6.37-.5-2.19-.39-3.73.12-4.64.66-1.13 1.88-1.42 3.52-1.12 5.44.89 15.08 7.9 19.92 11.66z"/><path fill="#fcea2b" d="M57.69 31.945a7.796 7.796 0 0 1-1.98 5.227l-.08.08-.08.078a6.31 6.31 0 0 1-1.345 1.188 6.9 6.9 0 0 1-3.326 1.346 6.81 6.81 0 0 1-1.267.08 2.441 2.441 0 0 1-.792-.08l-.238.238a9.802 9.802 0 0 1-1.425 1.109c-.158.079-.238.158-.396.237a7.262 7.262 0 0 1-1.821.713c-.159 0-.396.079-.555.079a5.992 5.992 0 0 1-1.188.08 3.248 3.248 0 0 1-.87-.08h-.713a2.414 2.414 0 0 0-1.267.634l-.159.158c-.079.08-.079.158-.158.238a8.457 8.457 0 0 1-3.01 2.534c-.158.158-.316.237-.475.396-.079 0-.079.079-.158.079-.713.554-1.425 1.108-2.138 1.584a24.27 24.27 0 0 1-3.009 1.742 28.406 28.406 0 0 1-10.374 3.088 1.968 1.968 0 0 1-.633.08 3.921 3.921 0 0 1-3.96-3.96 2.693 2.693 0 0 1 .08-.792v-.08a23.4 23.4 0 0 1 6.81-11.799A15.736 15.736 0 0 1 25.3 34.4a5.328 5.328 0 0 1 .871-.554.411.411 0 0 1 .317-.159 22.57 22.57 0 0 1 2.375-1.267 7.794 7.794 0 0 1 4.752-1.584h.633a4.61 4.61 0 0 0 1.505-.237 2.588 2.588 0 0 0 1.188-.871 1.39 1.39 0 0 1 .317-.396 7.87 7.87 0 0 1 2.375-1.9 8.173 8.173 0 0 1 3.089-.872h1.346a7.954 7.954 0 0 1 5.86-2.613 5.993 5.993 0 0 1 1.188.08 8.087 8.087 0 0 1 6.572 7.918z"/><path fill="#3f3f3f" d="M36.467 46.358c-.08 0-.08.08-.159.08-.712.553-1.425 1.108-2.138 1.583a24.297 24.297 0 0 1-3.009 1.742 16.04 16.04 0 0 1-1.425-1.03 16.398 16.398 0 0 1-6.177-12.036c-.158-.08-.317-.08-.475-.159l.475-.475a23.903 23.903 0 0 1 2.534-2.138 12.94 12.94 0 0 1 2.692-1.504l.713-.238a5.535 5.535 0 0 1 .792.634c.475.395 1.03.87 1.425 1.267a17.018 17.018 0 0 1 4.752 12.274z"/><path fill="#92d3f5" d="M37.1 29.332c-.554-.237-1.109-.554-1.742-.792-6.335-2.771-17.343-6.968-23.994-6.493-3.01.237-5.148 1.425-5.544 4.118-.791 5.701 6.098 8.394 13.304 9.582 1.267.237 2.613.396 3.88.554a94.618 94.618 0 0 0 11.324.475l6.098-5.86s-.684-.342-1.824-.896c-.436-.198-.936-.427-1.502-.688z"/><g fill="none" stroke="#000" stroke-linecap="round" stroke-linejoin="round" stroke-width="2"><path d="M15.002 22.168c-.5-2.27-.41-3.76.11-4.66.65-1.06 1.87-1.35 3.52-1.12 5.45.88 15.1 7.92 19.94 11.67M57.67 30.66l.89-.14a7.237 7.237 0 0 1 2.93-.08l2.3.32 2.45.39M38.367 42.794l.95 3.089a3.974 3.974 0 0 1 .159.95v2.455a3.475 3.475 0 0 1-.713 2.138L37.1 53.564m11.087-13.462.633 1.821a4.355 4.355 0 0 1 .158 1.742l-.395 2.693M35.516 43.27l.159 5.147a1.743 1.743 0 0 1-.08.634l-.554 3.326a3.256 3.256 0 0 1-1.346 2.138l-1.584 1.188m12.512-14.967.95 2.058a3.523 3.523 0 0 1 0 3.089l-.713 1.504m7.92-17.58 1.109-1.108a9.588 9.588 0 0 1 4.91-2.772l6.335-1.425M23 36.3a23.47 23.47 0 0 0-6.81 11.8v.08a2.688 2.688 0 0 0-.08.79 3.925 3.925 0 0 0 3.96 3.96 1.988 1.988 0 0 0 .64-.08 22.065 22.065 0 0 0 2.29-.31"/><path d="M54.28 38.52a6.273 6.273 0 0 0 1.35-1.19l.08-.08.08-.08v-.08a7.655 7.655 0 0 0 1.98-5.22 6.894 6.894 0 0 0-.1-1.21 7.734 7.734 0 0 0-1.6-3.69c-.07-.1-.16-.2-.24-.3a7.835 7.835 0 0 0-4.79-2.64 6.005 6.005 0 0 0-1.19-.08 7.926 7.926 0 0 0-5.86 2.61h-1.35a7.886 7.886 0 0 0-4.07 1.5m1.852 2.778s-1.24-.55-3.26-1.49a.142.142 0 0 1-.06-.02c-.56-.23-1.11-.55-1.74-.79-5.29-2.31-13.82-5.62-20.37-6.37a19.7 19.7 0 0 0-3.63-.12c-3.01.24-5.15 1.42-5.54 4.12-.79 5.7 6.1 8.39 13.3 9.58 1.27.24 2.62.39 3.88.55a93.757 93.757 0 0 0 11.33.48"/></g></svg>