<svg xmlns="http://www.w3.org/2000/svg" viewBox="0 0 72 72"><path fill="#B1CC33" d="M24.893 49v-7.227s-10.76-4.065-8.608-11.924S28 22 30.902 23.887c6.499 4.226 4.753 17.616 4.753 17.616L36 43.97"/><path fill="#5C9E31" d="M32 59c-3.095-3.248-6.473-11.187-6.473-11.187l10.642-5.328S40.02 47.788 42 49L32 59zM47 59s9-1 10-5-7-4-8-4"/><path fill="#B1CC33" d="M32 57l8.631-8.05s7.373.172 9.369.05l-3 10-15-2z"/><g fill="none" stroke="#000" stroke-linecap="round" stroke-linejoin="round" stroke-miterlimit="10" stroke-width="2"><path d="M22.025 22.608L21 19M26.519 22.187L28 18M58.354 51.146l-.708.708M25 46v-4.75s-10-3.75-8-11 7.167-8.75 13.583-5.5S35 41 35 41M25.486 48.255s1.123 4.531 4.278 7.31L29 57M36.238 43.157s.897 3.033 2.862 4.1M25.526 48.796l-1.519.949M27.168 52.687l-1.299 1.123M41.63 48.889s3.055.814 5.05.692M32.03 59.496l.895-2.059s1.42.592 4.011 1c1.86.294 4.325.493 7.301.31l.123 1.997M41.247 59.933l.061.998M38.134 59.122l.122 1.996M35.321 58.292l-.178 2.015M48 59s8-1 9-5-6-4-7-4M49.102 59.014l.136 1.247M52.989 58.037l.362 1.201M55.797 56.133l.747 1.008"/></g></svg>