<svg xmlns="http://www.w3.org/2000/svg" viewBox="0 0 72 72"><path fill="#A57939" d="M14.905 16.569s-4.026-2.169-5.14-.42l1.606 2.522-4.022 3.973-.737 2.281.976 1.785 2.866-.175 1.108 1.202-.568 4.66s4.594.25 2.719-6.648h2.232l.196 2.149.642 3.454s.892 3.887 1.548 3.796c.656-.09 3.132 2.4 3.132 2.4l.684 3.978 3.16 3.44s3.437 11.657 2.468 14.566c-.969 2.91-.757 3.372-.757 3.372l2.57.681 2.16-4.443-.89-14.896s6.951 5.957 15.247 1.304c0 0 .532 5.408 2.414 6.347l-1.15 6.872-1.99 3.504 1.396.987 1.812-.35 3.032-6.036 1.103-10.963 1.178-2.577 5.375-7.153s.27-2.576-1.309-4.042c-1.58-1.467-6.584-3.856-6.584-3.856l-12.67-.635-11.374 1.5-6.375-10.25-2.632-2.125s-2.796-.596-3.426-.204z"/><path fill="#6A462F" d="M59.275 36.181s-1.763 7.488-2.312 10.34c-.334 1.731-.696 3.818-.696 3.818l1.147 1.996-4.25 11.688s-3.826.527-4.389-.763l3.106-4.675.457-5.562.437-7.688 1.125-2.001 5.375-7.153zM14.588 17.96l3.346-3.963 5.248-.532 4.28 3.745s-6.75-4.375-9.131 1.438l-3.743-.688zM26.4 48.586l4.625.687.813 8.438-1.996 5.352H26.4l1.75-4.727z"/><path fill="#6A462F" d="m52.338 53.023-3.938.5-1.484 6.044-1.537 2.706.414.79 2.357.523 2.75-4.527zm12.625-26.521s1.958 10.343-5.813 10.213c0 0-.056-3.106-1.184-4.576l2.468-2.565s1.752-2.252 1.861-2.323 2.668-.749 2.668-.749z"/><g fill="none" stroke="#000" stroke-linecap="round" stroke-linejoin="round" stroke-miterlimit="10" stroke-width="2"><path d="M10.952 31.352c2.177-4.129-.826-4.955-.826-4.955-1.726.826-2.777-.3-2.777-.3-1.802-1.727 0-3.453 0-3.453 4.054-2.853 4.022-3.973 4.022-3.973L9.643 15.96s2.435-2.325 4.913 1.054c0 0 5.93-8.409 12.463-.6"/><path d="M13.956 25.736s3.903.436 3.978-3.768m.396-4.258s2.293.311 3.876 3.874c.789 1.776 4.416 7.5 4.813 7.73 0 0 25.525-5.62 30.556 2.79 0 0 1.726.525 2.777-2.328 1.051-2.853 3.604-3.228 3.604-3.228"/><path d="M46.401 45.394c-8.934 4.88-15.554-1.354-15.554-1.354l.484 8.897.5 6.022-1.672 3.712a1 1 0 0 1-.912.589h-1.464a1 1 0 0 1-.901-1.434l1.163-2.987s-.05-1.735-.501-5.414-2.327-8.709-2.327-8.709c-4.505-2.553-3.754-7.168-3.754-7.168-5.706-4.151-5.316-12.316-5.316-12.316"/><path d="M48.678 39.198s-5.058 6.448-.16 12.699c0 0 .102 5.416-1.812 8.062l-1.159 1.748a1 1 0 0 0 .834 1.553h1.445c.294 0 .57-.127.761-.35.917-1.071 3.494-4.551 3.494-9.826 0-5.24 1.045-9.044 1.045-9.044 5.068-4.448 5.257-7.859 5.257-7.859M56.04 46.52s-1.066 3.233 1.374 5.335l-4.25 11.208"/></g></svg>