<svg xmlns="http://www.w3.org/2000/svg" viewBox="0 0 72 72"><path fill="#6A462F" d="M51 35c0 11.046-8.954 20-20 20s-20-8.954-20-20 8.954-20 20-20c3.243 0 6.305.772 9.014 2.142C46.53 20.438 51 27.197 51 35z"/><path fill="#6A462F" d="M39.583 16.333S48 14 49 14s.167 5.333-1.917 8.167M49.28 29.567s10.248-7.37 12.35-6.234-.177 20.028-4.697 22.749c0 0-4.13.722-8.34-3.542M46.498 48.182l1.951 7.362-7.624-3.14"/><path fill="#A57939" d="M12 40.926S15 54.24 31.5 54.98C48 55.72 52 35.996 50 35.996s-5 6.903-7 3.944c-2.48-3.67-3-4.93-5-3.944-1.265.623-3 7.889-5 3.944-1.844-3.637-3-3.944-3-3.944-4 0-3 4.93-6 4.93s-2-3.944-5-4.93-7 4.93-7 4.93"/><g><path fill="none" stroke="#000" stroke-linecap="round" stroke-linejoin="round" stroke-miterlimit="10" stroke-width="3" d="M10.526 33.46l-3.052-1.92M10.293 36.428l-2.586 1.144"/><path fill="none" stroke="#000" stroke-linecap="round" stroke-linejoin="round" stroke-miterlimit="10" stroke-width="2" d="M14 46l-2 1M18 51l-1 1M37.179 54.87l.642 1.26M48.114 45.819l1.772 1.362M48.706 25.572l2.164-1.235M33.906 14.996l.188-1.992M26.563 15.181l-.368-2.118M20.148 17.911l-1.296-1.822M15 23l-2-2M30.614 55.802l-.228 1.396M23.889 54.91l-.778 1.18M39.583 16.333S48 14 49 14s.167 5.333-1.917 8.167M50.296 29.631s9.486-7.417 11.42-6.293c1.932 1.124-.263 20.023-4.444 22.765 0 0-3.813.743-7.674-3.5M46.498 48.182l1.951 7.362-7.624-3.14"/><path fill="none" stroke="#000" stroke-linecap="round" stroke-linejoin="round" stroke-miterlimit="10" stroke-width="2" d="M12 41s4-6 7-5 2 5 5 5 2-5 6-5c0 0 1.156.312 3 4 2 4 3.735-3.368 5-4 2-1 2.52.279 5 4 2 3 5-4 7-4"/><path fill="none" stroke="#000" stroke-linecap="round" stroke-linejoin="round" stroke-miterlimit="10" stroke-width="2" d="M51 35c0 11.046-8.954 20-20 20s-20-8.954-20-20 8.954-20 20-20c3.243 0 6.305.772 9.014 2.142C46.53 20.438 51 27.197 51 35z"/><circle cx="34" cy="50" r="2"/><circle cx="40" cy="44" r="2"/><circle cx="22" cy="46" r="2"/><circle cx="30" cy="44" r="1"/><circle cx="17" cy="42" r="1"/><circle cx="27" cy="50" r="1"/><circle cx="40" cy="49" r="1"/></g></svg>