<svg xmlns="http://www.w3.org/2000/svg" viewBox="0 0 72 72"><path fill="#FFA7C0" d="M34.254 15.252c-.833.333-7.333 3-8.166 3-.834 0-11 8-11 8l-4.334 7.333-.833 11.667 1.167 5.333 4.666 4.5 6.5 1 13.5-5 5.5 1.167 8.5 3.167 7.667.167 4.833-4 1.667-4.334-.167-8.333-.833-5.667-2.167-5.667-8.333-6.5-8.667-4.5-9.5-1.333z"/><path fill="#E67A94" d="m24.338 33.419-4.084 2.083-3.166 5.5.416 5 2.917 2.583 4.417-2.333 2.416-5s.417-3.667.334-3.917c-.084-.25-1.334-3.916-3.25-3.916zm25.344 0 4.083 2.083 3.167 5.5-.417 5-2.916 2.583-4.417-2.333-2.417-5s-.416-3.667-.333-3.917 1.333-3.916 3.25-3.916z"/><g fill="none" stroke="#000" stroke-linecap="round" stroke-linejoin="round" stroke-miterlimit="10" stroke-width="2"><path d="m50.405 55.377-11.742-4.412a4.727 4.727 0 0 0-3.326 0l-11.742 4.412c-6.498 2.441-13.433-2.361-13.433-9.303v-7.273a17.994 17.994 0 0 1 8.522-15.3l7.03-4.352a21.438 21.438 0 0 1 22.571 0l7.031 4.353A17.994 17.994 0 0 1 63.838 38.8v7.274c0 6.94-6.935 11.743-13.433 9.302z"/><ellipse cx="22.328" cy="41.021" rx="7.964" ry="4.9" transform="rotate(-70.567 22.33 41.023)"/><ellipse cx="51.672" cy="41.021" rx="4.9" ry="7.964" transform="rotate(-19.433 51.667 41.018)"/></g></svg>