<svg xmlns="http://www.w3.org/2000/svg" viewBox="0 0 72 72"><path fill="#FFF" d="M30.921 28.002s3.8-4.523 10.109.405l-.61 11.51 3.918 6.085s4.583 5.503 4.833 6.252 1.75 7.915 1.583 8.248c-.166.333-4.666 6.583-4.666 6.583l-20.167-.363-3.167-5.703.584-11.1 5.583-5.167 2.833-7-.833-9.75z"/><path fill="#3F3F3F" d="M39.754 27.752s-4.833 14.833 4.667 21.667c0 0 8.333 7.667.167 17l6-1 3.666-2.667 2.5-6.167-.833-5.333-5.167-7.333-.833-1s-2.833-2.833.167-5.5l6.333-7.333 4.5-8 2.667-7 .5-8.334-4-1-5.667 1-5.833 5-4 6.167-2.667 6.333-2.167 3.5zm-7.646 0s4.833 14.833-4.667 21.667c0 0-8.333 7.667-.166 17l-6-1-3.667-2.667-2.5-6.167.833-5.333 5.167-7.333.833-1s2.834-2.833-.166-5.5l-6.334-7.333-4.5-8-2.666-7-.5-8.334 4-1 5.666 1 5.834 5 4 6.167 2.666 6.333 2.167 3.5z"/><path fill="none" stroke="#000" stroke-linecap="round" stroke-linejoin="round" stroke-miterlimit="10" stroke-width="2" d="M60.57 9.813s-12.5-.305-16.786 19.858M41.03 50.553l-5.19 3.401-5.276-3.401m.813 10.467 4.42-2.033 4.623 2.032m-4.58-7.065-.043 5.033"/><ellipse cx="45.121" cy="39.918" rx="1.646" ry="2.812"/><path fill="none" stroke="#000" stroke-linecap="round" stroke-linejoin="round" stroke-miterlimit="10" stroke-width="2" d="M22.333 36.734C5.67 23.727 7.904 6.282 7.904 6.282 23.96.726 31.377 27.995 31.377 27.995s4.413-3.56 9.043 0c0 0 7.418-27.27 23.473-21.713 0 0 2.235 17.445-14.43 30.452"/><path fill="none" stroke="#000" stroke-linecap="round" stroke-linejoin="round" stroke-miterlimit="10" stroke-width="2" d="M11.227 9.813s12.499-.305 16.784 19.858m-5.678 14.074s-10.872 8.23-4.776 17.985c0 0 2.846 5.284 13.21 4.98H41.03c10.364.304 13.21-4.98 13.21-4.98 6.096-9.754-4.777-17.985-4.777-17.985"/><ellipse cx="26.879" cy="39.918" rx="1.646" ry="2.812"/></svg>