<svg xmlns="http://www.w3.org/2000/svg" viewBox="0 0 72 72"><path fill="#9B9B9A" d="m53.213 6.21-6.25 6s-5.875-3.125-12-3.125-10.75 3-10.75 3l-6.75-6-3.25-.375-3 3.75-1.5 7.5s-.125 9.75 2.5 11.625-2 13.25-2 13.25l3.375 6.75 8 5.625 2.75 1.875s3.333 7.584 10.994 5.596c0 0 5.756 3.488 10.38-5.47l2.5-1.5 6.376-3.626 6-8.125s-3.25-10.75-2.5-14.25 2.875-9.5 2.625-11.25-2-8.625-2-8.625-1.875-4.75-5.5-2.625z"/><path fill="#3F3F3F" d="M12.421 45.502s4.083-10.25 10.167-10l7.583-.417 2.25 3.167s.986 5.682-.67 9.502c-.319.735.25 1.53 1.044 1.42 1.11-.154 2.54-.207 4.133.08.754.135 1.382-.574 1.13-1.297-.685-1.967-1.446-5.432-.554-9.788l2.75-2.917 3.75.167 3.5.583s9.5-2 9.917 10.25l2.667-3.917-2.5-12.25 1-2.583 2-7.5-1.084-8.917-2.75-5.166-4.083.083-4.417 5.167-1.666.667-5.25-1.834-9.25-.666-8.417 2.833-6-6.833-3.583-.167-3.5 5.667-.834 6.916 1.25 6.917 1.584 3.667-.75 6.833-2 6.5 2.583 3.833zm17.068 7.533s4.438-2.563 11.188.125l.062.812-2.25 1.5-.937 1.625s-1.313 1.25-2 1c-.688-.25-3-1.125-3-1.125l-.75-1.562-2.625-1.438.062-.875"/><path fill="#9B9B9A" d="M55.275 8.71s5.25 8.563.75 17.5c0 0-4.437-6.5-7.937-6.375 0 0 7.062-4.25 7.187-11.125zm-40.552 0s-5.25 8.563-.75 17.5c0 0 4.437-6.5 7.937-6.375 0 0-7.062-4.25-7.187-11.125zm14.454 53.366c.116 2.442.875 4.204 2.676 4.858h6.584c2.111-.714 2.538-2.477 2.302-4.652l-11.562-.206"/><circle cx="26.25" cy="40.275" r="2"/><circle cx="44.294" cy="40.511" r="2"/><path fill="none" stroke="#000" stroke-linecap="round" stroke-linejoin="round" stroke-miterlimit="10" stroke-width="2" d="m29.312 53.975 2.375 1.396s.49 2.966 3.27 2.748v3.562s-3.468 1.76-6.343-.53c-2.237-1.784-3.594-4.688-3.594-4.688m-3.281-3.125c-3.83-1.078-6.303-3.08-7.846-5.504L9.87 42.326c2.774-7.05 2.576-14.134 2.576-14.134-4.708-8.667-1.625-17.459-1.625-17.459 2.542-8.291 6.792-5.041 6.792-5.041 3.042 5.166 9.875 8.916 9.875 8.916"/><path fill="none" stroke="#000" stroke-linecap="round" stroke-linejoin="round" stroke-miterlimit="10" stroke-width="2" d="M15.614 9.213s.375 7.5 7.313 10.375c0 0-6.699 1.679-7.782 6.345m39.711-16.72s-.375 7.5-7.313 10.375c0 0 6.698 1.679 7.782 6.345M30.947 40.51s2.711-4.38-1.25-5.668c-2.791-.908-6.208 1.058-6.208 1.058m11.843 25.781s3.469 1.76 6.344-.53c2.237-1.784 3.594-4.688 3.594-4.688m-4.583-2.488-2.791 1.396s-.157 2.966-2.938 2.748"/><path fill="none" stroke="#000" stroke-linecap="round" stroke-linejoin="round" stroke-miterlimit="10" stroke-width="2" d="M42.8 14.95s6.834-3.75 9.876-8.916c0 0 4.25-3.25 6.792 5.041 0 0 3.083 8.792-1.626 17.459 0 0-.067 7.318 2.63 13.792l-4.697 6.736c-1.56 2.022-3.872 3.674-7.224 4.617"/><path fill="none" stroke="#000" stroke-linecap="round" stroke-linejoin="round" stroke-miterlimit="10" stroke-width="2" d="M39.343 40.852s-2.711-4.38 1.25-5.668c2.791-.908 6.208 1.058 6.208 1.058M24.688 11.451s7.953-5.577 21.352 0M31.353 65.869c2.72 1.485 5.29 1.353 7.75 0"/></svg>