<svg xmlns="http://www.w3.org/2000/svg" viewBox="0 0 72 72"><path fill="#ea5a47" d="M64.05 34.59c-4.56-2.963-9.963-9.286-15.69-14.31-1.328-1.169-2.925-2.567-5.85-1.169l-3.851 2.05c-.888.514-1.191.69-2.663.69s-1.775-.176-2.663-.69l-3.851-2.05c-2.925-1.399-4.522 0-5.85 1.169-5.722 5.02-11.13 11.34-15.69 14.31l15.02 14.36c2.529 2.452 5.827 4.522 13.03 4.522s10.5-2.069 13.03-4.522z"/><path fill="#fff" d="M36 39.06c-7.667 0-9.791-4.905-13.87-4.292 6.763-5.096 10.48-.613 13.87-.613s7.108-4.483 13.87.613c-4.081-.613-6.204 4.292-13.87 4.292z"/><path fill="#fff" d="M36 39.06c-7.667 0-9.791-4.905-13.87-4.292 6.763-5.096 10.48-.613 13.87-.613s7.108-4.483 13.87.613c-4.081-.613-6.204 4.292-13.87 4.292z"/><g fill="none" stroke="#000" stroke-linecap="round" stroke-linejoin="round" stroke-miterlimit="10" stroke-width="2.434"><path d="M8.167 34.6c4.981 1.66 6.255 1.889 14.07.177M63.83 34.6c-4.981 1.66-6.255 1.889-14.07.177"/><path d="M8.167 34.6c4.981 1.66 6.255 1.889 14.07.177"/><path d="m8.167 34.6 14.91 14.25c2.51 2.434 5.782 4.487 12.93 4.487s10.42-2.053 12.93-4.487l14.91-14.25m-55.68 0c4.525-2.941 9.886-9.214 15.56-14.2 1.318-1.16 2.902-2.548 5.805-1.16l3.821 2.034c.881.51 1.182.684 2.643.684s1.761-.174 2.643-.684l3.821-2.034c2.902-1.388 4.487 0 5.805 1.16 5.678 4.981 11.04 11.25 15.56 14.2"/><path d="M63.83 34.6c-4.981 1.66-6.255 1.889-14.07.177M36 39.03c-7.608 0-9.715-4.867-13.76-4.259 6.711-5.057 10.4-.608 13.76-.608s7.053-4.45 13.76.608c-4.049-.608-6.156 4.259-13.76 4.259z"/></g></svg>