<svg xmlns="http://www.w3.org/2000/svg" viewBox="0 0 72 72"><g fill="#fcea2b"><path d="M45.697 55.288c11.975 0 18.39-7.161 18.39-16.25s-6.275-19.272-31.152-16.616M46.758 55.495h-12M34.465 48.502a3.5 3.5 0 10.293 6.994M34.232 41.505a3.5 3.5 0 10.294 6.994M34.098 41.51a3.5 3.5 0 10.562 6.977M33.754 34.468a3.5 3.5 0 00.448 6.985"/><path d="M43.058 22.954c-7.62-5.867-10.687-6.745-12.03-5.354-1.342 1.39.784 5.694 2.175 7.037M11.382 27.468a3.5 3.5 0 100 7M33.717 34.468H11.382M11.382 27.468h27.79M33.328 24.507l-2.214-1.958M38.297 19.282c2.144 1.952 5.168 3.373 9.522 3.3M35.978 17.514l2.38 1.821"/><path d="M38.797 34.578l-1.967-7.063H11.047v6.953z"/><path d="M45.943 34.577v20.921H33.717v-20.92zM36.938 27.468l-.995-2.656-3.186.51 2.93 2.163z"/></g><g fill="none" stroke="#000" stroke-linecap="round" stroke-linejoin="round" stroke-miterlimit="10" stroke-width="2"><path d="M47.632 55.495c9.088 0 16.456-7.368 16.456-16.456S56.72 22.583 47.632 22.583M46.758 55.495h-12M34.465 48.502a3.5 3.5 0 10.293 6.994M34.232 41.505a3.5 3.5 0 10.294 6.994M34.098 41.51a3.5 3.5 0 10.562 6.977M33.754 34.468a3.5 3.5 0 00.448 6.985M35.978 17.514a3.5 3.5 0 10-4.863 5.035M11.382 27.468a3.5 3.5 0 100 7M33.717 34.468H11.382M11.382 27.468h27.79M33.328 24.507l-2.214-1.958M38.297 19.282c2.144 1.952 5.168 3.373 9.522 3.3M35.978 17.514l2.38 1.821"/><path d="M47.647 55.48c9.089 0 16.456-7.368 16.456-16.457s-7.367-16.455-16.456-16.455M46.774 55.479h-12M34.48 48.487a3.5 3.5 0 10.294 6.994M34.248 41.49a3.5 3.5 0 10.293 6.994M34.114 41.494a3.5 3.5 0 10.56 6.977M33.77 34.452a3.5 3.5 0 00.447 6.986M35.993 17.499a3.5 3.5 0 10-4.863 5.035M11.397 27.452a3.5 3.5 0 100 7M33.732 34.452H11.397M11.397 27.452h27.791M33.343 24.492l-2.213-1.958M38.313 19.266c2.143 1.953 5.167 3.374 9.521 3.302M35.993 17.499l2.38 1.821"/></g></svg>