<svg xmlns="http://www.w3.org/2000/svg" viewBox="0 0 72 72"><path fill="#debb90" d="M55.36 33.73a3.5 3.5 0 00-3.23-2.6 3.477 3.477 0 00-3.52 2.6h-.19c0 .02.01.05.01.08-.01-.03-.01-.06-.02-.08v-.01-.01a3.462 3.462 0 00-.9-1.73c-.17-.18-.35-.34-.56-.47-.07-.05-.14-.1-.21-.14-.17-.1-.34-.18-.52-.25-.1-.04-.2-.07-.3-.09a2.34 2.34 0 00-.38-.09l-.24-.03h-.06c-.09-.01-.17-.01-.26-.01-.12 0-.23 0-.34.02-.23.02-.44.06-.65.12a3.514 3.514 0 00-1.42.83c-.09.07-.16.15-.23.24-.07.08-.14.16-.2.25s-.12.18-.18.28c-.11.19-.2.39-.28.6-.05.16-.1.32-.12.49h-.13a3.478 3.478 0 00-3.26-3.23 3.494 3.494 0 00-3.63 2.7v.58l-.09-.01V11.4c0-.11-.01-.23-.02-.34a3.483 3.483 0 00-3.48-3.16c-1.93 0-3.5 1.56-3.5 3.5v24.27l.02.03-.02 1.25v-1.28l-.79-1.07-1.35-1.83-.69.45a4.74 4.74 0 00-.87-.71l-.01-.01c-1.8-1.28-5-2.58-6.16-1.46-1.35 1.31-.56 4.23 4.86 11.37.99 20.84 8.68 19.56 16.58 21.69 7.66.71 16.13-6.31 16.25-18.14h.21V34.62c0-.31-.04-.6-.12-.89zm-13.86.38h-.01c.01-.07.01-.14.03-.21-.01.07-.02.14-.02.21z"/><g fill="none" stroke="#000" stroke-linecap="round" stroke-linejoin="round" stroke-miterlimit="10" stroke-width="2"><path d="M55.48 47.647c0 9.089-7.368 16.456-16.457 16.456s-16.455-7.367-16.455-16.456M55.479 46.774v-12M48.487 34.48a3.5 3.5 0 116.994.294M41.49 34.248a3.5 3.5 0 116.994.293M41.494 34.114a3.5 3.5 0 116.977.56M34.452 33.77a3.5 3.5 0 016.986.447M17.499 35.993a3.5 3.5 0 115.035-4.863M27.452 11.397a3.5 3.5 0 117 0M34.452 33.732V11.397M27.452 11.397v27.791M24.492 33.343l-1.958-2.213M19.266 38.313c1.953 2.143 3.374 5.167 3.302 9.521M17.499 35.993l1.821 2.38"/></g></svg>