<svg xmlns="http://www.w3.org/2000/svg" viewBox="0 0 72 72"><path fill="#92D3F5" d="M6 61v-3.3C6 54 9.7 51 13.4 51c4.4 3.7 8.8 3.7 13.3 0 3.7 0 7.4 3 7.4 6.7V61m3.9 0v-3.3c0-3.7 3.7-6.7 7.4-6.7 4.4 3.7 8.8 3.7 13.3 0 3.7 0 7.4 3 7.4 6.7V61"/><path fill="#EA5A47" d="M36 11.7c1.1-2.4 4-3.4 6.3-2.2s3.3 4 2.2 6.4c-.1.3-.3.5-.4.7L36 27l-8.1-10.4c-.2-.2-.3-.5-.4-.7-1.1-2.4-.1-5.2 2.2-6.4s5.2-.2 6.3 2.2z"/><path fill="#A57939" d="M43.2 25.2c0 .3 13.2-6.8 15.7 1.4 0 0 3.5 1.7 2.8 7.5-.1 1-.1 3.3-1.1 4.3l-2.8-7.1s-7.4 2.8-12.4-.6l-2.3 7.5s-.9-1.3-1-3c0 0-.4-4 .4-5.4.2 0 1.7-2.6.7-4.6zm-34.1 6c.6-8.7 7.2-8.8 10.5-8.3.3.1 1.2 0 1.5 0 6-.8 9 6 9 9 0 1.1 0 3.8-1.5 5.3 0 0-3.4-4.2-3.6-6.6 0 0-11.4 4.3-12.2.6 0 0-.8 3-1.5 3.8v3s-2.5-3-2.2-6.8z"/><path fill="#debb90" d="M57.8 31.3s-7.4 2.8-12.4-.6l-2.1 6.8C43.6 43.3 47.4 48 52 48c4.4 0 8-4.2 8.6-9.6l-2.8-7.1z"/><path fill="#c19a65" d="M25 30.8s-11.4 4.3-12.2.6c0 0-.8 3-1.5 3.8v3c.6 5.5 4.2 9.8 8.6 9.8 4.6 0 8.4-4.7 8.7-10.6-.3-.4-3.4-4.3-3.6-6.6z"/><path fill="none" stroke="#000" stroke-miterlimit="10" stroke-width="2" d="M60.6 35.6v1.2c0 6.2-3.9 11.3-8.7 11.3s-8.7-5.1-8.7-11.3v-.7"/><path fill="none" stroke="#000" stroke-linejoin="round" stroke-miterlimit="10" stroke-width="2" d="M43.2 25.2c0 .3 13.2-6.8 15.7 1.4 0 0 3.5 1.7 2.8 7.5-.1 1-.1 3.3-1.1 4.3l-2.8-7.1s-7.4 2.8-12.4-.6l-2.3 7.5s-.9-1.3-1-3c0 0-.4-4 .4-5.4.2 0 1.7-2.6.7-4.6z"/><path fill="none" stroke="#000" stroke-linecap="round" stroke-linejoin="round" stroke-width="2" d="M36 11.7c1.1-2.4 4-3.4 6.3-2.2s3.3 4 2.2 6.4c-.1.3-.3.5-.4.7L36 27l-8.1-10.4c-.2-.2-.3-.5-.4-.7-1.1-2.4-.1-5.2 2.2-6.4s5.2-.2 6.3 2.2h0z"/><path fill="none" stroke="#000" stroke-miterlimit="10" stroke-width="2" d="M28.6 36.1v.7c0 6.2-3.9 11.3-8.7 11.3s-8.7-5.1-8.7-11.3v-.7"/><path fill="none" stroke="#000" stroke-linecap="round" stroke-linejoin="round" stroke-width="2" d="M9.1 31.4c.6-8.7 7.2-8.8 10.5-8.3.3.1 1.2 0 1.5 0 6-.8 9 6 9 9 0 1.1 0 3.8-1.5 5.3 0 0-3.4-4.2-3.6-6.6 0 0-11.4 4.3-12.2.6 0 0-.8 3-1.5 3.8v3s-2.5-3-2.2-6.8zM6 60v-2.3C6 54 9.7 51 13.4 51c4.4 3.7 8.8 3.7 13.3 0 3.7 0 7.4 3 7.4 6.7V60"/><path d="M24.2 37.4c0 .8-.6 1.4-1.4 1.4s-1.4-.6-1.4-1.4c0-.8.6-1.4 1.4-1.4s1.4.7 1.4 1.4m-5.6 0c0 .8-.6 1.4-1.4 1.4s-1.4-.6-1.4-1.4c0-.8.6-1.4 1.4-1.4s1.4.7 1.4 1.4"/><path fill="none" stroke="#000" stroke-linecap="round" stroke-linejoin="round" stroke-width="2" d="M17.9 43.2c1.3.7 2.9.7 4.2 0"/><path d="M56.2 37.7c0 .8-.6 1.4-1.4 1.4-.8 0-1.4-.6-1.4-1.4 0-.8.6-1.4 1.4-1.4.8 0 1.4.6 1.4 1.4m-5.6 0c0 .8-.6 1.4-1.4 1.4s-1.4-.6-1.4-1.4c0-.8.6-1.4 1.4-1.4s1.4.6 1.4 1.4"/><path fill="none" stroke="#000" stroke-linecap="round" stroke-linejoin="round" stroke-width="2" d="M49.9 43.4c1.3.7 2.9.7 4.2 0M38 60v-2.3c0-3.7 3.7-6.7 7.4-6.7 4.4 3.7 8.8 3.7 13.3 0 3.7 0 7.4 3 7.4 6.7V60"/></svg>