<svg xmlns="http://www.w3.org/2000/svg" viewBox="0 0 72 72"><path fill="#5C9E31" d="M13.886 52.097H10.83V16.914h49.936v35.183H56.68"/><path fill="#6A462F" d="M53.88 59s2.7-14.138-9.3-14.138c-3.192 2.119-5.927 3.584-9 3.577h.124c-3.073.007-5.808-1.458-9-3.577-12 0-10 14.137-10 14.137"/><path fill="#3F3F3F" d="m44.58 45.364 2.57 9.04-5.62-.24.09 4.79-5.88-1.6.09-.03-.09-.13z"/><path fill="#D0CFCE" d="m44.48 45.215.1.15-8.84 11.83-8.85-11.83.16-.24c3.08 2.05 5.75 3.46 8.72 3.49h.12c2.93-.03 5.56-1.4 8.59-3.4z"/><path fill="#3F3F3F" d="m35.74 57.194-.1.13.1.03-5.89 1.6.09-4.79-5.62.24 2.57-9.04z"/><path fill="#fcea2b" d="M50.5 21.314c-.59-2.45-2.64-5.38-7.52-8.6-5.48-3.95-13.73-2.8-16 .09a3.4 3.4 0 0 0-.64 2.03l-.46.01c-6.5 6.89-2.09 15.71-1.36 13.91l.09-.09c2.85-2.78 3.56-9.58 3.56-9.58l.1-.1c2.05 2.16 6.58 4.15 17.81 3.15v.01c.38.95.68 1.96.89 3.03s.32 2.2.32 3.36v.21l.43.01s3.89-2.89 2.78-7.44zM26.83 16.74z"/><path fill="#debb90" d="M47.169 28.537c0-2.284-.432-4.441-1.2-6.351-7.45.689-15.838-.044-18.13-3.705-.16 3.435-1.046 6.473-3.347 10.056 0 7.827 5.076 14.173 11.338 14.173s11.34-6.346 11.34-14.173z"/><path d="M27.57 15.91c.24.61.54 1.31 1.09 2h-2.38c-.26-.48-.44-.93-.59-1.3-.33.43-.61.87-.85 1.3H11.83V50.2h2.06c.55 0 1 .44 1 1 0 .55-.45 1-1 1h-3.06c-.55 0-1-.45-1-1V16.91c0-.55.45-1 1-1h16.74zm34.2 1V51.2c0 .55-.45 1-1 1h-2.59c-.55 0-1-.45-1-1 0-.56.45-1 1-1h1.59V17.91H47.55c-.55-.67-1.21-1.33-1.98-2h15.2c.55 0 1 .45 1 1zM41.953 27.171a2 2 0 1 1-4.001-.001 2 2 0 0 1 4.001.001m-8 0a2 2 0 1 1-4.001-.001 2 2 0 0 1 4.001.001m2 10.002c-1.152 0-2.304-.286-3.447-.858a1 1 0 1 1 .894-1.789c1.718.86 3.388.86 5.106 0a1 1 0 0 1 .894 1.79c-1.143.571-2.295.857-3.447.857z"/><path d="M48.15 26.3c0 .56-.45 1-1 1h-1.96v1.24c0 2.11-1.71 3.82-3.81 3.82h-2.01c-1.55 0-2.88-.93-3.48-2.25a3.839 3.839 0 0 1-3.48 2.25H30.4a3.82 3.82 0 0 1-3.82-3.82V27.3h-.69a.99.99 0 0 1-.95-.71c.23-.38.44-.8.62-1.23.1-.04.21-.06.33-.06h1.69a1 1 0 0 1 1 1v2.24c0 1 .82 1.82 1.82 1.82h2.01c1 0 1.81-.82 1.81-1.82v-1.1c0-.55.45-1 1-1h1.33c.56 0 1 .45 1 1v1.1c0 1 .82 1.82 1.82 1.82h2.01c1 0 1.81-.82 1.81-1.82V26.3c0-.55.45-1 1-1h2.96c.55 0 1 .45 1 1z"/><path fill="none" stroke="#000" stroke-linecap="round" stroke-linejoin="round" stroke-miterlimit="10" stroke-width="2" d="M24.61 28.535v.13c.06 7.76 5.11 14.04 11.34 14.04 6.2 0 11.25-6.24 11.34-13.96v-.21c0-1.16-.11-2.29-.32-3.36s-.51-2.08-.89-3.03"/><path d="M48.32 29.56c-.18.13-.39.19-.6.19-.3 0-.61-.13-.8-.4-.33-.44-.24-1.07.2-1.4.12-.09 2.58-1.98 2.58-5.01 0-.44-.05-.91-.17-1.39-.28-1.2-.95-2.42-1.98-3.64-.55-.67-1.21-1.33-1.98-2-.9-.79-1.95-1.58-3.14-2.36-5.04-3.63-12.69-2.64-14.66-.13-.28.39-.44.89-.43 1.4 0 .31.06.64.17.92.02.06.04.11.06.17.24.61.54 1.31 1.09 2 .1.13.21.25.33.38 2.53 2.67 8.26 3.63 17 2.85.42-.04.84-.08 1.28-.12l.23-.02c.53-.05 1.03.35 1.09.9a1 1 0 0 1-.9 1.09l-.23.02c-.44.05-.88.09-1.3.12-8.23.74-13.89-.01-17.23-2.3a7.853 7.853 0 0 1-2.65-2.92c-.26-.48-.44-.93-.59-1.3-.01-.05-.03-.09-.05-.14-.07-.18-.12-.37-.16-.56-.1-.36-.14-.72-.14-1.08 0-.29.02-.58.08-.86.11-.62.36-1.22.75-1.75 2.56-3.26 11.35-4.67 17.4-.32 1.99 1.31 3.62 2.65 4.88 4.01.62.66 1.15 1.33 1.59 2 .7 1.05 1.18 2.11 1.43 3.17 1.25 5.13-2.97 8.34-3.15 8.48z"/><path d="M28.27 18.09a.978.978 0 0 0-1.09.89c0 .01-.01.09-.03.25-.11.84-.55 3.73-1.59 6.13-.18.43-.39.85-.62 1.23-.21.36-.44.7-.69 1-.33-.65-.74-1.84-.84-3.41-.11-1.67.1-3.94 1.43-6.27a10.668 10.668 0 0 1 1.43-2c.11-.13.22-.25.34-.38.38-.4.36-1.03-.04-1.41a.987.987 0 0 0-1.15-.15.83.83 0 0 0-.27.19c-.54.57-1.01 1.16-1.42 1.75-.46.66-.84 1.33-1.14 2-1.9 4.07-1.24 8.08-.31 10.18.55 1.26 1.21 1.9 1.97 1.9h.02c.44 0 .83-.24 1.07-.64.47-.46.88-1.01 1.24-1.62.46-.75.83-1.58 1.15-2.42.61-1.63.98-3.3 1.2-4.48.16-.93.23-1.56.24-1.64.05-.55-.35-1.04-.9-1.1z"/><path fill="none" stroke="#000" stroke-linecap="round" stroke-linejoin="round" stroke-miterlimit="10" stroke-width="2" d="M16.89 58.025s-2-13 10-13c.05.04.11.07.16.1 3.08 2.05 5.75 3.46 8.72 3.49h.12c2.93-.03 5.56-1.4 8.59-3.4.1-.06.19-.12.29-.19 3.99 0 6.43 1.44 7.92 3.36l.78 1.26"/><path fill="none" stroke="#000" stroke-linecap="round" stroke-linejoin="round" stroke-miterlimit="10" stroke-width="2" d="m35.74 57.194.09.13-.09.03-5.89 1.6.09-4.79-5.62.24 2.57-9.04z"/><path fill="none" stroke="#000" stroke-linecap="round" stroke-linejoin="round" stroke-miterlimit="10" stroke-width="2" d="m35.74 57.194-.1.13.1.03 5.88 1.6-.09-4.79 5.62.24-2.57-9.04z"/><path d="M53.044 58.752a.842.842 0 0 1-.834-.954l3.371-26.503-1.413 26.672c-.03.442-.68.785-1.124.785z"/><path d="M53.044 59.503a1.59 1.59 0 0 1-1.577-1.805l3.37-26.498a.74.74 0 0 1 .811-.652.75.75 0 0 1 .682.787l-1.413 26.672c-.066.968-1.15 1.496-1.873 1.496zm.71-7.9-.8 6.29.09.11a.71.71 0 0 0 .379-.157l.33-6.243z"/></svg>