<svg xmlns="http://www.w3.org/2000/svg" viewBox="0 0 72 72"><path fill="#d0cfce" d="M31.958 59.482a12.319 12.319 0 0 0 12.478-12.159 12.32 12.32 0 1 0-12.478 12.16"/><path fill="#9b9b9a" d="M32.19 41.621a5.543 5.543 0 1 0 5.47 5.615 5.543 5.543 0 0 0-5.47-5.615z"/><g fill="#6a462f"><path d="M28.098 31.564a.488.488 0 0 1 .05-.216l1.065-2.153a.644.644 0 0 1 .488-.295c.167 0 .277.157.277.351v1.961a.487.487 0 0 0 .487.488h1.422a14.076 14.076 0 0 1 6.59 1.578.487.487 0 0 0 .719-.49l-.462-3.282-.599-3.922a2.965 2.965 0 0 0-2.46-2.66l-4.225-.532c-1.662-.2-2.758.05-3.258.997l-2.377 4.41a6.758 6.758 0 0 0-1.025 4.178v6.678c0 1.523.728 2.179 1.69 2.179.998 0 1.618-.938 1.618-2.276z"/><circle cx="34.254" cy="15.736" r="3.556"/><path d="M50.682 56.124c1.207 0 2.01-1.182 2.01-2.957 0 0-.554-10.219-.744-12.668s-2.342-3.947-5.733-3.947m-.001 0 2.295 17.235c.244 1.63 1.028 2.337 2.173 2.337"/></g><g fill="none" stroke="#000" stroke-linecap="round" stroke-linejoin="round" stroke-width="2.007"><path d="M48.509 53.786c.244 1.631 1.028 2.338 2.173 2.338m0 0c1.207 0 2.01-1.182 2.01-2.957 0 0-.554-10.219-.744-12.668s-2.342-3.947-5.733-3.947m-19.64 10.541a5.544 5.544 0 1 0 5.614-5.472h0M30.283 31.7h1.604a14.075 14.075 0 0 1 7.446 2.06l-.598-4.254-.599-3.922a2.965 2.965 0 0 0-2.46-2.66l-4.226-.532c-1.662-.2-2.788.05-3.258.997l-3.295 7.455a1.246 1.246 0 0 0-.107.503v7.309c0 1.522.728 2.178 1.69 2.178"/><circle cx="34.254" cy="15.736" r="3.556"/><path d="M22.497 39.537a12.285 12.285 0 1 0 7.494-4.382"/></g></svg>