<svg xmlns="http://www.w3.org/2000/svg" viewBox="0 0 72 72"><path fill="#92D3F5" d="M11 61V44.955C11 41.665 14.292 39 17.584 39c3.915 3.29 7.83 3.29 11.833 0h13.167c3.914 3.29 7.83 3.29 11.833 0C57.708 39 61 41.667 61 44.956V61"/><path fill="#B1CC33" d="M17 61v-2.533C17 56 19.502 54 22.004 54c2.975 2.467 5.95 2.467 8.992 0C33.498 54 36 56 36 58.467V61m0 0v-2.533C36 56 38.502 54 41.004 54c2.975 2.467 5.95 2.467 8.993 0C52.499 54 55 56 55 58.467V61"/><path fill="#A57939" d="M13.929 21.39c.533-7.734 6.4-7.823 9.335-7.379.266.09 1.067 0 1.333 0 5.334-.711 8.002 5.334 8.002 8.002 0 .978.225 3.365-1.108 4.699 0 0-3.249-3.721-3.427-5.855 0 0-10.135 3.823-10.846.533 0 0-.711 2.667-1.334 3.379 0 0-.328 2.044-.328 2.667 0 0-1.894-2.667-1.627-6.046zM45.5 40.704c3.864 1.37 5.567 5.827 5.695 9.63 1.422.308 2.882-.39 3.805-1.46a7.198 7.198 0 0 1-2.15-3.136c.738-5.725-2.03-9.58-7.35-8.486-5.32-1.093-8.087 2.76-7.35 8.486A7.198 7.198 0 0 1 36 48.873c.923 1.072 2.384 1.77 3.806 1.461.127-3.803 1.83-8.26 5.694-9.63zm-21.364 1.568c.469 3.363 4.487-.871 4.487-.871.549 1.574 4.425 3.867 4.425 3.867 1.032-.955.526-2.852.372-3.513a5.12 5.12 0 0 0-5.808-4.115 6.447 6.447 0 0 1-1.032 0c-2.271-.337-6.03-.148-7.12 4.644-.532 2.338.624 2.984.624 2.984s3.764-5.059 4.052-2.996zm32.308-14.836c0-.623-.328-2.667-.328-2.667-.623-.712-1.334-3.379-1.334-3.379-.711 3.29-10.846-.533-10.846-.533-.178 2.134-3.426 5.855-3.426 5.855-1.334-1.334-1.109-3.721-1.109-4.7 0-2.667 2.668-8.712 8.002-8 .267 0 1.067.088 1.333 0 2.934-.445 8.802-.356 9.335 7.378.267 3.379-1.627 6.046-1.627 6.046z"/><path fill="#FCEA2B" d="M28.045 20.857S17.91 24.68 17.2 21.39c0 0-.711 2.667-1.334 3.379 0 0-.318 1.983-.327 2.635.459 5.148 3.841 9.2 7.943 9.2 4.286 0 7.782-4.427 7.98-9.903-.104-.12-3.24-3.746-3.416-5.844zm.577 20.544s-4.017 4.234-4.487.87c-.257-1.846-3.293 2.005-3.928 2.835-.074.335-.123.566-.123.588a6.776 6.776 0 0 0 6.489 7.031 6.776 6.776 0 0 0 6.488-7.03c0-.03-.06-.227-.15-.51-.679-.414-3.8-2.383-4.289-3.784zm22.381 7.116c-.013-.054-.017-.11-.032-.165-.55-3.175-2.237-6.54-5.471-7.648-3.234 1.109-4.921 4.473-5.471 7.648-.015.054-.019.11-.032.165.84 2.754 2.994 4.312 5.503 4.312s4.664-1.558 5.503-4.312zM40.538 26.7c.2 5.477 3.695 9.903 7.981 9.903 4.102 0 7.484-4.051 7.943-9.2-.009-.65-.327-2.634-.327-2.634-.623-.711-1.334-3.379-1.334-3.379-.711 3.29-10.846-.533-10.846-.533-.175 2.098-3.312 5.723-3.417 5.844z"/><path fill="none" stroke="#000" stroke-miterlimit="10" stroke-width="2" d="M31.5 25.569v.644c0 5.7-3.586 10.39-8 10.39s-8-4.69-8-10.39v-.644"/><path fill="none" stroke="#000" stroke-linecap="round" stroke-linejoin="round" stroke-width="2" d="M13.929 21.39c.533-7.734 6.4-7.823 9.335-7.379.266.09 1.067 0 1.333 0 5.334-.711 8.002 5.334 8.002 8.002 0 .978.225 3.365-1.108 4.699 0 0-3.249-3.721-3.427-5.855 0 0-10.135 3.823-10.846.533 0 0-.711 2.667-1.334 3.379 0 0-.328 2.044-.328 2.667 0 0-1.894-2.667-1.627-6.046zM11 60V44.955C11 41.665 14.292 39 17.584 39c.54.454 1.082.846 1.623 1.175m33.438.067A13.496 13.496 0 0 0 54.417 39C57.708 39 61 41.667 61 44.956V60"/><path d="M22.25 26.5c0 .714-.536 1.25-1.25 1.25s-1.25-.536-1.25-1.25.536-1.25 1.25-1.25 1.25.536 1.25 1.25m5 0c0 .714-.536 1.25-1.25 1.25s-1.25-.536-1.25-1.25.536-1.25 1.25-1.25 1.25.536 1.25 1.25"/><path fill="none" stroke="#000" stroke-linecap="round" stroke-linejoin="round" stroke-width="2" d="M21.633 31.533a3.968 3.968 0 0 0 3.734 0"/><path d="M48.098 45.702a.9.9 0 1 1-.898-.84.87.87 0 0 1 .898.84z"/><path fill="none" stroke="#000" stroke-linecap="round" stroke-linejoin="round" stroke-width="1.6" d="M44.164 49.186a2.093 2.093 0 0 0 2.672 0"/><path fill="none" stroke="#000" stroke-miterlimit="10" stroke-width="1.6" d="M51.044 48.407c-.814 2.827-3 4.422-5.544 4.422-2.544 0-4.73-1.595-5.544-4.422"/><path d="M43.8 44.862a.9.9 0 1 1-.898.84.87.87 0 0 1 .898-.84z"/><path fill="none" stroke="#000" stroke-linecap="round" stroke-linejoin="round" stroke-width="1.6" d="M17 60.2v-1.733C17 56 19.502 54 22.004 54c2.975 2.467 5.95 2.467 8.992 0C33.498 54 36 56 36 58.467V60.2m0 0v-1.733C36 56 38.502 54 41.004 54c2.975 2.467 5.95 2.467 8.993 0C52.499 54 55 56 55 58.467V60.2"/><path d="M29.298 45.702a.9.9 0 1 1-.898-.84.87.87 0 0 1 .898.84z"/><path fill="none" stroke="#000" stroke-linecap="round" stroke-linejoin="round" stroke-width="1.6" d="M25.164 49.186a2.093 2.093 0 0 0 2.672 0"/><path d="M24.6 44.862a.9.9 0 1 1-.898.84.87.87 0 0 1 .898-.84z"/><path fill="none" stroke="#000" stroke-linecap="round" stroke-linejoin="round" stroke-width="1.6" d="M45.5 40.704c3.864 1.37 5.567 5.827 5.695 9.63 1.422.308 2.882-.39 3.805-1.46a7.198 7.198 0 0 1-2.15-3.136c.738-5.725-2.03-9.58-7.35-8.486-5.32-1.093-8.087 2.76-7.35 8.486A7.198 7.198 0 0 1 36 48.873c.923 1.072 2.384 1.77 3.806 1.461.127-3.803 1.83-8.26 5.694-9.63z"/><path fill="none" stroke="#000" stroke-miterlimit="10" stroke-width="1.6" d="M33.05 45.268c.007.141.011.283.011.426a6.776 6.776 0 0 1-6.488 7.031 6.776 6.776 0 0 1-6.489-7.03c0-.096.002-.19.005-.285"/><path fill="none" stroke="#000" stroke-linecap="round" stroke-linejoin="round" stroke-width="1.6" d="M24.136 42.272c.469 3.363 4.487-.871 4.487-.871.549 1.574 4.425 3.867 4.425 3.867 1.032-.955.526-2.852.372-3.513a5.12 5.12 0 0 0-5.808-4.115 6.447 6.447 0 0 1-1.032 0c-2.271-.337-6.03-.148-7.12 4.644-.532 2.338.624 2.984.624 2.984s3.764-5.059 4.052-2.996z"/><path fill="none" stroke="#000" stroke-linecap="round" stroke-linejoin="round" stroke-width="2" d="M46.633 31.533a3.968 3.968 0 0 0 3.734 0"/><path fill="none" stroke="#000" stroke-miterlimit="10" stroke-width="2" d="M56.5 25.569v.644c0 5.7-3.586 10.39-8 10.39s-8-4.69-8-10.39v-.644"/><path fill="none" stroke="#000" stroke-linecap="round" stroke-linejoin="round" stroke-width="2" d="M56.444 27.436c0-.623-.328-2.667-.328-2.667-.623-.712-1.334-3.379-1.334-3.379-.711 3.29-10.846-.533-10.846-.533-.178 2.134-3.426 5.855-3.426 5.855-1.334-1.334-1.109-3.721-1.109-4.7 0-2.667 2.668-8.712 8.002-8 .267 0 1.067.088 1.333 0 2.934-.445 8.802-.356 9.335 7.378.267 3.379-1.627 6.046-1.627 6.046z"/><path d="M49.75 26.5c0-.714.536-1.25 1.25-1.25s1.25.536 1.25 1.25-.536 1.25-1.25 1.25-1.25-.536-1.25-1.25m-5 0c0-.714.536-1.25 1.25-1.25s1.25.536 1.25 1.25-.536 1.25-1.25 1.25-1.25-.536-1.25-1.25"/></svg>