<svg xmlns="http://www.w3.org/2000/svg" viewBox="0 0 72 72"><path fill="#92D3F5" d="M11 61V44.955C11 41.665 14.292 39 17.584 39c3.915 3.29 7.83 3.29 11.833 0h13.167c3.914 3.29 7.83 3.29 11.833 0C57.708 39 61 41.667 61 44.956V61"/><path fill="#B1CC33" d="M17 61v-2.533C17 56 19.502 54 22.004 54c2.975 2.467 5.95 2.467 8.992 0C33.498 54 36 56 36 58.467V61m0 0v-2.533C36 56 38.502 54 41.004 54c2.975 2.467 5.95 2.467 8.993 0C52.499 54 55 56 55 58.467V61"/><g fill="#A57939"><path d="m37.932 40.062-1.548-2.045c-2.667-4 .203-7.47 1.448-10.67 1.067-2.845-.178-4.356.889-8.09.978-3.645 4.89-5.957 9.157-5.957 3.645 0 5.334 2.045 5.334 2.045 2.756.267 4.89 2.578 4.979 5.334.267 4.801.711 4.801 2.311 8.535 1.156 2.756 1.535 6.438-.421 8.66l-1.701 2.038M13.929 21.39c.533-7.734 6.4-7.823 9.335-7.379.266.09 1.067 0 1.333 0 5.334-.711 8.002 5.334 8.002 8.002 0 .978.225 3.365-1.108 4.699 0 0-3.249-3.721-3.427-5.855 0 0-10.135 3.823-10.846.533 0 0-.711 2.667-1.334 3.379 0 0-.328 2.044-.328 2.667 0 0-1.894-2.667-1.627-6.046zM26.5 40.704c3.864 1.37 5.567 5.827 5.694 9.63 1.423.308 2.883-.39 3.806-1.46a7.198 7.198 0 0 1-2.15-3.136c.737-5.725-2.03-9.58-7.35-8.486-5.32-1.093-8.088 2.76-7.35 8.486A7.198 7.198 0 0 1 17 48.873c.923 1.072 2.383 1.77 3.806 1.461.127-3.803 1.83-8.26 5.694-9.63z"/><path d="M45.5 40.704c3.864 1.37 5.567 5.827 5.695 9.63 1.422.308 2.882-.39 3.805-1.46a7.198 7.198 0 0 1-2.15-3.136c.738-5.725-2.03-9.58-7.35-8.486-5.32-1.093-8.087 2.76-7.35 8.486A7.198 7.198 0 0 1 36 48.873c.923 1.072 2.384 1.77 3.806 1.461.127-3.803 1.83-8.26 5.694-9.63z"/></g><path fill="#FCEA2B" d="M41.12 26.814c0 5.334 3.38 9.335 7.38 9.335s7.38-4.001 7.38-9.336c0-3.378-1.335-5.334-4.002-8-2.667 2.666-10.668 6.045-10.668 7.378l-.09.623zm-13.075-5.957S17.91 24.68 17.2 21.39c0 0-.711 2.667-1.334 3.379 0 0-.318 1.983-.327 2.635.459 5.148 3.841 9.2 7.943 9.2 4.286 0 7.782-4.427 7.98-9.903-.104-.12-3.24-3.746-3.416-5.844zm3.958 27.66c-.013-.054-.017-.11-.032-.165-.55-3.175-2.237-6.54-5.471-7.648-3.234 1.109-4.921 4.473-5.471 7.648-.015.054-.019.11-.032.165.84 2.754 2.994 4.312 5.503 4.312s4.664-1.558 5.503-4.312zm19 0c-.013-.054-.017-.11-.032-.165-.55-3.175-2.237-6.54-5.471-7.648-3.234 1.109-4.921 4.473-5.471 7.648-.015.054-.019.11-.032.165.84 2.754 2.994 4.312 5.503 4.312s4.664-1.558 5.503-4.312z"/><path fill="none" stroke="#000" stroke-miterlimit="10" stroke-width="2" d="M31.5 25.569v.644c0 5.7-3.586 10.39-8 10.39s-8-4.69-8-10.39v-.644"/><path fill="none" stroke="#000" stroke-linecap="round" stroke-linejoin="round" stroke-width="2" d="M13.929 21.39c.533-7.734 6.4-7.823 9.335-7.379.266.09 1.067 0 1.333 0 5.334-.711 8.002 5.334 8.002 8.002 0 .978.225 3.365-1.108 4.699 0 0-3.249-3.721-3.427-5.855 0 0-10.135 3.823-10.846.533 0 0-.711 2.667-1.334 3.379 0 0-.328 2.044-.328 2.667 0 0-1.894-2.667-1.627-6.046zm22.795 15.356c-2.04-3.666-.069-6.374 1.108-9.399 1.067-2.845-.178-4.356.889-8.09.978-3.645 4.89-5.957 9.157-5.957 3.645 0 5.334 2.045 5.334 2.045 2.756.267 4.89 2.578 4.979 5.334.267 4.801.711 4.801 2.311 8.535 1.062 2.533.773 5.366-.799 7.533"/><path fill="none" stroke="#000" stroke-linejoin="round" stroke-miterlimit="10" stroke-width="2" d="M41.12 26.814c0 5.334 3.38 9.335 7.38 9.335s7.38-4.001 7.38-9.336c0-3.378-1.335-5.334-4.002-8-2.667 2.666-10.668 6.045-10.668 7.378l-.09.623z"/><path fill="none" stroke="#000" stroke-linecap="round" stroke-linejoin="round" stroke-width="2" d="M11 60V44.955C11 41.665 14.292 39 17.584 39c.54.454 1.082.846 1.623 1.175m33.438.067A13.496 13.496 0 0 0 54.417 39C57.708 39 61 41.667 61 44.956V60"/><path d="M47.25 26.5c0 .714-.536 1.25-1.25 1.25s-1.25-.536-1.25-1.25.536-1.25 1.25-1.25 1.25.536 1.25 1.25m5 0c0 .714-.536 1.25-1.25 1.25s-1.25-.536-1.25-1.25.536-1.25 1.25-1.25 1.25.536 1.25 1.25"/><path fill="none" stroke="#000" stroke-linecap="round" stroke-linejoin="round" stroke-width="2" d="M46.633 31.533a3.968 3.968 0 0 0 3.734 0"/><path d="M22.25 26.5c0 .714-.536 1.25-1.25 1.25s-1.25-.536-1.25-1.25.536-1.25 1.25-1.25 1.25.536 1.25 1.25m5 0c0 .714-.536 1.25-1.25 1.25s-1.25-.536-1.25-1.25.536-1.25 1.25-1.25 1.25.536 1.25 1.25"/><path fill="none" stroke="#000" stroke-linecap="round" stroke-linejoin="round" stroke-width="2" d="M21.633 31.533a3.968 3.968 0 0 0 3.734 0"/><path d="M48.098 45.702a.9.9 0 1 1-.898-.84.87.87 0 0 1 .898.84z"/><path fill="none" stroke="#000" stroke-linecap="round" stroke-linejoin="round" stroke-width="1.6" d="M44.164 49.186a2.093 2.093 0 0 0 2.672 0"/><path fill="none" stroke="#000" stroke-miterlimit="10" stroke-width="1.6" d="M51.044 48.407c-.814 2.827-3 4.422-5.544 4.422-2.544 0-4.73-1.595-5.544-4.422"/><path d="M43.8 44.862a.9.9 0 1 1-.898.84.87.87 0 0 1 .898-.84z"/><path fill="none" stroke="#000" stroke-linecap="round" stroke-linejoin="round" stroke-width="1.6" d="M17 60.2v-1.733C17 56 19.502 54 22.004 54c2.975 2.467 5.95 2.467 8.992 0C33.498 54 36 56 36 58.467V60.2m0 0v-1.733C36 56 38.502 54 41.004 54c2.975 2.467 5.95 2.467 8.993 0C52.499 54 55 56 55 58.467V60.2"/><path d="M29.098 45.702a.9.9 0 1 1-.898-.84.87.87 0 0 1 .898.84z"/><path fill="none" stroke="#000" stroke-linecap="round" stroke-linejoin="round" stroke-width="1.6" d="M25.164 49.186a2.093 2.093 0 0 0 2.672 0"/><path fill="none" stroke="#000" stroke-miterlimit="10" stroke-width="1.6" d="M32.044 48.407c-.814 2.827-3 4.422-5.544 4.422-2.544 0-4.73-1.595-5.544-4.422"/><path d="M24.8 44.862a.9.9 0 1 1-.898.84.87.87 0 0 1 .898-.84z"/><path fill="none" stroke="#000" stroke-linecap="round" stroke-linejoin="round" stroke-width="1.6" d="M26.5 40.704c3.864 1.37 5.567 5.827 5.694 9.63 1.423.308 2.883-.39 3.806-1.46a7.198 7.198 0 0 1-2.15-3.136c.737-5.725-2.03-9.58-7.35-8.486-5.32-1.093-8.088 2.76-7.35 8.486A7.198 7.198 0 0 1 17 48.873c.923 1.072 2.383 1.77 3.806 1.461.127-3.803 1.83-8.26 5.694-9.63zm19 0c3.864 1.37 5.567 5.827 5.695 9.63 1.422.308 2.882-.39 3.805-1.46a7.198 7.198 0 0 1-2.15-3.136c.738-5.725-2.03-9.58-7.35-8.486-5.32-1.093-8.087 2.76-7.35 8.486A7.198 7.198 0 0 1 36 48.873c.923 1.072 2.384 1.77 3.806 1.461.127-3.803 1.83-8.26 5.694-9.63z"/></svg>