<svg xmlns="http://www.w3.org/2000/svg" viewBox="0 0 72 72"><path fill="#92D3F5" d="M36 38.999h-6.583c-4.004 3.29-7.919 3.29-11.833 0-3.292 0-6.584 2.667-6.584 5.956V61h25V38.999z"/><path fill="#B1CC33" d="M23 61v-2.533C23 56 25.502 54 28.004 54c2.975 2.467 5.95 2.467 8.992 0C39.498 54 42 56 42 58.467V61m0 0v-2.533C42 56 44.502 54 47.004 54c2.975 2.467 5.95 2.467 8.993 0C58.499 54 61 56 61 58.467V61"/><path fill="#A57939" d="M13.929 21.39c.533-7.734 6.4-7.823 9.335-7.379.266.09 1.067 0 1.333 0 5.334-.711 8.002 5.334 8.002 8.002 0 .978.225 3.365-1.108 4.699 0 0-3.249-3.721-3.427-5.855 0 0-10.135 3.823-10.846.533 0 0-.711 2.667-1.334 3.379 0 0-.328 2.044-.328 2.667 0 0-1.894-2.667-1.627-6.046zm16.207 20.882c.469 3.363 4.487-.871 4.487-.871.549 1.574 4.425 3.867 4.425 3.867 1.032-.955.526-2.852.372-3.513a5.12 5.12 0 0 0-5.808-4.115 6.447 6.447 0 0 1-1.032 0c-2.271-.337-6.03-.148-7.12 4.644-.532 2.338.624 2.984.624 2.984s3.764-5.059 4.052-2.996zm27.853 2.996s1.156-.646.624-2.984c-1.09-4.792-4.85-4.98-7.12-4.644a6.447 6.447 0 0 1-1.033 0 5.12 5.12 0 0 0-5.808 4.115c-.153.66-.66 2.558.373 3.513 0 0 3.876-2.293 4.425-3.867 0 0 4.018 4.234 4.487.87.288-2.062 4.052 2.997 4.052 2.997z"/><path fill="#FCEA2B" d="M28.045 20.857S17.91 24.68 17.2 21.39c0 0-.711 2.667-1.334 3.379 0 0-.318 1.983-.327 2.635.459 5.148 3.841 9.2 7.943 9.2 4.286 0 7.782-4.427 7.98-9.903-.104-.12-3.24-3.746-3.416-5.844zm6.578 20.544s-4.018 4.234-4.487.87c-.258-1.846-3.294 2.005-3.929 2.835-.074.335-.123.566-.123.588a6.776 6.776 0 0 0 6.489 7.031 6.776 6.776 0 0 0 6.488-7.03c0-.03-.06-.227-.15-.51-.679-.414-3.8-2.383-4.288-3.784zm10.539 3.784c-.09.283-.15.48-.15.51a6.776 6.776 0 0 0 6.488 7.03 6.776 6.776 0 0 0 6.489-7.03c0-.023-.05-.254-.123-.59-.635-.829-3.671-4.68-3.929-2.833-.469 3.363-4.487-.871-4.487-.871-.489 1.401-3.61 3.37-4.288 3.784z"/><path fill="none" stroke="#000" stroke-miterlimit="10" stroke-width="2" d="M31.5 25.569v.644c0 5.7-3.586 10.39-8 10.39s-8-4.69-8-10.39v-.644"/><path fill="none" stroke="#000" stroke-linecap="round" stroke-linejoin="round" stroke-width="2" d="M13.929 21.39c.533-7.734 6.4-7.823 9.335-7.379.266.09 1.067 0 1.333 0 5.334-.711 8.002 5.334 8.002 8.002 0 .978.225 3.365-1.108 4.699 0 0-3.249-3.721-3.427-5.855 0 0-10.135 3.823-10.846.533 0 0-.711 2.667-1.334 3.379 0 0-.328 2.044-.328 2.667 0 0-1.894-2.667-1.627-6.046z"/><path d="M22.25 26.5c0 .714-.536 1.25-1.25 1.25s-1.25-.536-1.25-1.25.536-1.25 1.25-1.25 1.25.536 1.25 1.25m5 0c0 .714-.536 1.25-1.25 1.25s-1.25-.536-1.25-1.25.536-1.25 1.25-1.25 1.25.536 1.25 1.25"/><path fill="none" stroke="#000" stroke-linecap="round" stroke-linejoin="round" stroke-width="2" d="M21.633 31.533a3.968 3.968 0 0 0 3.734 0"/><path fill="none" stroke="#000" stroke-linecap="round" stroke-linejoin="round" stroke-width="1.6" d="M50.164 49.186a2.093 2.093 0 0 0 2.672 0M23 60.2v-1.733C23 56 25.502 54 28.004 54c2.975 2.467 5.95 2.467 8.992 0C39.498 54 42 56 42 58.467V60.2m0 0v-1.733C42 56 44.502 54 47.004 54c2.975 2.467 5.95 2.467 8.993 0C58.499 54 61 56 61 58.467V60.2"/><path d="M35.298 45.702a.9.9 0 1 1-.898-.84.87.87 0 0 1 .898.84z"/><path fill="none" stroke="#000" stroke-linecap="round" stroke-linejoin="round" stroke-width="1.6" d="M31.164 49.186a2.093 2.093 0 0 0 2.672 0"/><path d="M30.6 44.862a.9.9 0 1 1-.898.84.87.87 0 0 1 .898-.84zm23.698.84a.9.9 0 1 1-.897-.84.87.87 0 0 1 .897.84zm-4.698-.84a.9.9 0 1 1-.898.84.87.87 0 0 1 .898-.84z"/><path fill="none" stroke="#000" stroke-miterlimit="10" stroke-width="1.6" d="M39.05 45.268c.007.141.011.283.011.426a6.776 6.776 0 0 1-6.488 7.031 6.776 6.776 0 0 1-6.489-7.03c0-.096.002-.19.005-.285"/><path fill="none" stroke="#000" stroke-linecap="round" stroke-linejoin="round" stroke-width="1.6" d="M30.136 42.272c.469 3.363 4.487-.871 4.487-.871.549 1.574 4.425 3.867 4.425 3.867 1.032-.955.526-2.852.372-3.513a5.12 5.12 0 0 0-5.808-4.115 6.447 6.447 0 0 1-1.032 0c-2.271-.337-6.03-.148-7.12 4.644-.532 2.338.624 2.984.624 2.984s3.764-5.059 4.052-2.996z"/><path fill="none" stroke="#000" stroke-miterlimit="10" stroke-width="1.6" d="M57.983 45.41c.004.095.006.19.006.284a6.776 6.776 0 0 1-6.489 7.031 6.776 6.776 0 0 1-6.489-7.03c0-.144.004-.286.012-.427"/><path fill="none" stroke="#000" stroke-linecap="round" stroke-linejoin="round" stroke-width="1.6" d="M57.989 45.268s1.156-.646.624-2.984c-1.09-4.792-4.85-4.98-7.12-4.644a6.447 6.447 0 0 1-1.033 0 5.12 5.12 0 0 0-5.808 4.115c-.153.66-.66 2.558.373 3.513 0 0 3.876-2.293 4.425-3.867 0 0 4.018 4.234 4.487.87.288-2.062 4.052 2.997 4.052 2.997z"/><path fill="none" stroke="#000" stroke-linecap="round" stroke-linejoin="round" stroke-miterlimit="10" stroke-width="2" d="M11 60V44.955C11 41.665 14.292 39 17.584 39c1.491 1.253 2.983 2.029 4.479 2.327"/></svg>