<svg xmlns="http://www.w3.org/2000/svg" viewBox="0 0 72 72"><ellipse cx="35.8" cy="31" fill="#c19a65" rx="11" ry="14"/><path fill="#92D3F5" d="M17 61v-4c0-5 5-9 10-9 6 5 12 5 18 0 5 0 10 4 10 9v4"/><path fill="none" stroke="#000" stroke-linecap="round" stroke-linejoin="round" stroke-width="2" d="M17 59.9v-3c0-5 5-9 10-9 6 5 12 5 18 0 5 0 10 4 10 9v3"/><path d="M41.8 29.9c0 1.1-.9 2-2 2s-2-.9-2-2 .9-2 2-2 2 .9 2 2m-8 0c0 1.1-.9 2-2 2s-2-.9-2-2 .9-2 2-2c1.2 0 2 .9 2 2"/><path fill="none" stroke="#000" stroke-linecap="round" stroke-linejoin="round" stroke-width="2" d="M32.8 38.1c1.9 1 4.1 1 6 0"/><path fill="none" stroke="#000" stroke-linejoin="round" stroke-width="2" d="M36 45c-5.9 0-11-6-11-14 0-3.3 1-7.4 3-10 .3-.3.5-.6.8-.9 2-1.8 4.5-2.8 7.2-2.8s5.2 1 7.2 2.8c.3.3.6.6.8.9 2 2.6 3 6.7 3 10 0 8-5.1 14-11 14"/></svg>