<svg xmlns="http://www.w3.org/2000/svg" viewBox="0 0 72 72"><path fill="#FFF" d="M26.275 20.904h19.271v-6.057a4 4 0 0 0 0-8c-.876 0-1.679.29-2.338.766a3.956 3.956 0 0 0 .526-1.946 4 4 0 0 0-4-4c-1.82 0-3.34 1.224-3.824 2.888-.484-1.664-2.003-2.887-3.823-2.887a4 4 0 0 0-4 4c0 .71.2 1.367.525 1.945a3.968 3.968 0 0 0-2.337-.766 4 4 0 1 0 0 8M54.848 57.79s2-12.802-10-12.802c-3.192 2.128-5.926 3.599-9 3.592h.125c-3.074.007-5.808-1.464-9-3.592-12 0-10 12.802-10 12.802"/><path fill="#D0CFCE" d="M47.768 7.081c-.987-.674-4.059.378-4.059.378 1.498-3.758-1.934-5.637-1.934-5.637s.8 3.729-1.567 5.748c-.254.217-.433.506-.433.84v12.303h.636l.313.036h5.323v-6.056a4 4 0 0 0 1.72-7.612l-.017.397M44.254 45.14c-3.17 2.113-9.076 6.272-17.344 0 .385 5.535 9.673 10.639 19.312 5.894l.42 6.737h8.18s1.432-12.632-10.568-12.632z"/><path fill="#A57939" d="M45.425 20.867a16.314 16.314 0 0 1 1.394 4.443l-.064-.36s-3.29.619-8.457-3.763m-12.106-.32A16.314 16.314 0 0 0 24.8 25.31l.064-.36s3.29.619 8.457-3.763"/><path fill="#FCEA2B" d="M24.892 24.829a17.605 17.605 0 0 0-.32 3.36c0 7.827 5.076 14.172 11.338 14.172s11.34-6.345 11.34-14.173c0-1.042-.09-2.057-.26-3.035-3.47-.228-6.29-1.82-8.69-4.286h-4.39c-2.588 2.06-5.544 3.468-9.019 3.962z"/><path fill="none" stroke="#000" stroke-linecap="round" stroke-linejoin="round" stroke-miterlimit="10" stroke-width="2" d="M26.2 20.867c-1.034 2.137-1.628 4.642-1.628 7.321 0 7.828 5.076 14.173 11.338 14.173s11.34-6.345 11.34-14.173c0-2.679-.595-5.184-1.628-7.32"/><path d="M54.91 57.827a1 1 0 0 1-1-1v-3c0-4.451-4.496-7.81-8.651-7.992-6.205 5.012-12.492 5.012-18.697 0-4.155.182-8.652 3.54-8.652 7.992v3a1 1 0 0 1-2 0v-3c0-5.324 5.14-9.997 11-10a1 1 0 0 1 .64.232c5.625 4.688 11.095 4.688 16.72 0a1 1 0 0 1 .64-.232c5.86.003 11 4.676 11 10v3a1 1 0 0 1-1 1zm-13-31a2 2 0 1 1-4.001-.001 2 2 0 0 1 4.002.001m-8.001 0a2 2 0 1 1-4.001-.001 2 2 0 0 1 4.002.001M35.91 36.83c-1.151 0-2.303-.286-3.447-.858a1 1 0 1 1 .895-1.79c1.717.86 3.387.86 5.105 0a1 1 0 0 1 .895 1.79c-1.144.572-2.296.858-3.448.858z"/><path fill="none" stroke="#000" stroke-linecap="round" stroke-linejoin="round" stroke-miterlimit="10" stroke-width="2" d="M26.562 45.835s3.665 10.858 20.167 5.097v5.875"/><circle cx="28.41" cy="55.827" r="1.5"/><circle cx="43.41" cy="55.827" r="1.5"/><path fill="none" stroke="#000" stroke-linecap="round" stroke-linejoin="round" stroke-miterlimit="10" stroke-width="2" d="M26.192 20.867A16.314 16.314 0 0 0 24.8 25.31l.064-.36s3.29.619 8.457-3.763m12.104-.32a16.314 16.314 0 0 1 1.394 4.443l-.064-.36s-3.29.619-8.457-3.763m-12.023-6.34v6.057"/><path fill="none" stroke="#000" stroke-linecap="round" stroke-linejoin="round" stroke-miterlimit="10" stroke-width="2" d="M26.275 20.904h19.271v-6.057a4 4 0 0 0 0-8c-.876 0-1.679.29-2.338.766a3.956 3.956 0 0 0 .526-1.946 4 4 0 0 0-4-4c-1.82 0-3.34 1.224-3.824 2.888-.484-1.664-2.003-2.887-3.823-2.887a4 4 0 0 0-4 4c0 .71.2 1.367.525 1.945a3.968 3.968 0 0 0-2.337-.766 4 4 0 1 0 0 8"/></svg>