<svg xmlns="http://www.w3.org/2000/svg" viewBox="0 0 72 72"><path fill="#D22F27" d="M51.6 21.74c-1.242-1.028-3.175-1.285-5.036-1.157a12.22 12.22 0 0 0-5.512 1.773 10.345 10.345 0 0 1-5.273 1.524 10.344 10.344 0 0 1-5.272-1.524 12.22 12.22 0 0 0-5.512-1.773c-1.862-.128-3.795.129-5.037 1.156 0 0-4.485 3.444.62 7.412 10.134 4.227 20.268 4.227 30.403 0 5.105-3.968.62-7.412.62-7.412z"/><path fill="#EA5A47" d="M35.56 7.656c.07 0 .14.005.21.006.07 0 .14-.006.21-.006h-.42zm.21.006c-5.428.062-11.719 1.977-11.803 11.948l-.28.899a11.616 11.616 0 0 1 1.829-.021c1.872.122 3.703.684 5.327 1.623a10.411 10.411 0 0 0 5.096 1.396 10.411 10.411 0 0 0 5.095-1.396 12.273 12.273 0 0 1 5.328-1.623 12.058 12.058 0 0 1 1.518-.004l-.306-.875C47.489 9.64 41.198 7.725 35.77 7.663z"/><path fill="#A57939" d="M16.725 58.881s-2-13.5 10-13.5c3.192 2.128 5.926 3.599 9 3.592H35.6c3.074.007 5.708-2.564 8.9-4.692 10.068-.586 11.802 7.48 11.449 10.887-.196 1.894-1.118 3.683-1.05 3.713"/><path fill="#3F3F3F" d="m39.7 52.703-3.89 5.87-3.83-5.87z"/><path fill="#9B9B9A" d="m63.661 38.592 1.43 1.72c-2.29 1.78-6.58 7.24-6.58 7.24l-3.03-3.65s5.93-3.25 8.18-5.31zm-10.993 7.643 2.808-2.331 3.03 3.65-2.808 2.332z"/><path fill="#3F3F3F" d="m52.671 46.232 3.03 3.65s-6.98 5.92-6.65 9.01h-5.21c-.97-6.13 8.83-12.66 8.83-12.66z"/><path fill="#FCEA2B" d="M31.47 17.743V13.06l4.117-5.223 4.48 5.3v4.605c-2.536 1.867-6.377 1.181-8.597 0z"/><path fill="#a57939" d="M26.759 19.765c-1.782 2.22-2.036 4.207-1.935 5.485l-.172.465c2.147-.333 5.509-1.996 7.624-3.562m8.598-.7c2.6 2.2 5.829 4.458 7.155 3.433.216-2.38-1.299-4.76-1.299-4.76m-21.751 5.685s-10.634 2.527-7.913 15.73c0 0 5.363.14 7.536-2.43 0 0 2.487-2.242 3.519-8.186s-3.25-5.137-3.25-5.137"/><path fill="#fadcbc" d="M35.715 23.416c4.017-2.561 11.818.909 11.184 4.919 0 7.827-5.076 14.173-11.338 14.173s-11.339-6.346-11.339-14.173c-.404-2.017 6.616-7.985 11.493-4.919zm8.945 21.628.06.09-5.02 7.57h-7.72l-5.06-7.75c3.15 2.1 5.86 3.56 8.88 3.59h.12c2.98-.03 5.65-1.45 8.74-3.5z"/><path d="M41.884 26.88a2 2 0 1 1-4.001-.002 2 2 0 0 1 4.001.002m-8 0a2 2 0 1 1-4.001-.002 2 2 0 0 1 4.001.002m2 10.002c-1.152 0-2.304-.286-3.447-.858a1 1 0 1 1 .894-1.789c1.718.86 3.388.86 5.106 0a1 1 0 0 1 .894 1.79c-1.143.571-2.295.857-3.447.857z"/><path d="M35.884 43.414c-6.804 0-12.34-6.807-12.34-15.173 0-.925.07-1.854.204-2.761l1.979.294c-.12.81-.182 1.64-.182 2.467 0 7.264 4.638 13.173 10.339 13.173s10.339-5.91 10.339-13.173c0-1.073-.102-2.14-.303-3.17l1.963-.383c.225 1.157.34 2.352.34 3.553 0 8.366-5.535 15.173-12.34 15.173zm.254-23.507c-1.85 0-3.708-.52-5.138-1.282a1 1 0 0 1-.53-.882V13.06c0-.225.075-.443.215-.62l4.117-5.222a1 1 0 0 1 .768-.381h.017a1 1 0 0 1 .764.354l4.48 5.301c.151.18.235.41.235.646v4.604a1 1 0 0 1-.407.805c-1.313.967-2.915 1.36-4.521 1.36zm-3.668-2.79c1.994.875 4.731 1.147 6.596.085v-3.698L35.614 9.42l-3.144 3.988v3.71z"/><path d="M36.238 19.907c-1.85 0-3.707-.52-5.136-1.282a1 1 0 0 1-.53-.882V13.06c0-.225.075-.443.214-.62l4.117-5.222a1 1 0 0 1 .769-.381h.017a1 1 0 0 1 .763.354l4.479 5.301c.152.18.236.41.236.646v4.604a1 1 0 0 1-.407.805c-1.314.967-2.915 1.36-4.522 1.36zm-3.667-2.79c1.99.875 4.729 1.148 6.596.085v-3.698L35.715 9.42l-3.144 3.988v3.71z"/><path d="M47.519 20.61a1 1 0 0 1-1-.992c-.062-7.306-3.596-10.893-10.803-10.96-7.208.067-10.742 3.654-10.804 10.96a1 1 0 0 1-1 .991h-.009a1 1 0 0 1-.99-1.008c.068-8.29 4.383-12.754 12.483-12.939a1 1 0 0 1 .11-.006h.419a1 1 0 0 1 .11.006c8.1.185 12.414 4.65 12.484 12.94a1 1 0 0 1-.992 1.007h-.008z"/><path d="M47.015 27.16c-1.538 0-3.463-1.619-5.475-3.311-.398-.334-.793-.667-1.177-.979a1 1 0 0 1 1.262-1.552c.393.32.796.659 1.202 1 1.031.868 2.81 2.363 3.75 2.749-.129-1.547-.847-3.42-1.118-3.908a1 1 0 1 1 1.748-.971c.419.753 1.566 3.661 1.366 5.872-.025.277-.165.53-.384.701a1.864 1.864 0 0 1-1.174.399zm.562-1.19h.01-.01z"/><path d="M50.576 29.335a1 1 0 0 1-.594-1.806c1.3-.956 1.956-1.91 1.953-2.838-.003-1.32-1.335-2.326-1.348-2.336-.88-.689-2.37-.991-4.215-.87a11.317 11.317 0 0 0-4.892 1.492 11.448 11.448 0 0 1-5.584 1.53 11.473 11.473 0 0 1-5.609-1.53 11.294 11.294 0 0 0-4.892-1.491c-1.846-.121-3.333.18-4.184.848-.098.072-1.8 1.36-1.276 2.999a1 1 0 1 1-1.905.61c-.969-3.021 1.855-5.117 1.976-5.205 1.559-1.224 3.869-1.355 5.52-1.248 2.011.132 4.003.739 5.763 1.756a9.439 9.439 0 0 0 4.606 1.26 9.42 9.42 0 0 0 4.583-1.26 13.331 13.331 0 0 1 5.763-1.756c1.654-.11 3.961.024 5.55 1.27.06.042 2.138 1.58 2.144 3.926.004 1.6-.926 3.098-2.767 4.454a.992.992 0 0 1-.592.195z"/><path d="M24.804 26.637a1 1 0 0 1-.104-1.994c1.533-.162 3.657-1.2 6.142-3a1 1 0 0 1 1.174 1.62c-2.807 2.034-5.199 3.168-7.107 3.369a1.23 1.23 0 0 1-.105.005z"/><path d="M17.636 41.92a1 1 0 0 1-.98-.798c-2.079-10.088 4.24-13.855 6.729-14.926-.254-1.275-.315-3.596 1.505-6.251a1 1 0 0 1 1.65 1.13c-2.03 2.961-1.07 5.224-1.027 5.32a1.006 1.006 0 0 1-.653 1.38c-.333.09-7.963 2.294-6.405 12.07 1.404-.18 3.634-.712 4.7-1.973a1.002 1.002 0 0 1 1.527 1.293c-2.176 2.571-6.818 2.748-7.014 2.754h-.032zm-.716 16.951a.999.999 0 0 1-.985-.847c-.041-.27-.973-6.632 2.58-10.775 1.923-2.241 4.752-3.377 8.408-3.377.197 0 .39.059.555.168 3.153 2.102 5.66 3.41 8.382 3.424 2.724-.014 5.23-1.321 8.383-3.424a.997.997 0 0 1 .555-.168c1.275 0 2.464.14 3.533.418a1 1 0 0 1-.502 1.936 11.905 11.905 0 0 0-2.734-.351c-3.309 2.185-6.026 3.545-9.126 3.588h-.131a.294.294 0 0 0-.042 0h-.044c-3.099-.043-5.817-1.403-9.126-3.588-2.897.057-5.11.954-6.586 2.669-2.956 3.437-2.138 9.12-2.129 9.178a1 1 0 0 1-.99 1.15z"/><path d="M47.5 45.07v6.6c-1.57 1.72-2.79 3.76-2.56 5.84-.15.04-.3.04-.45 0-.45-.11-.77-.51-.77-.97v-8.3l-7.08 10.21c-.19.27-.5.43-.83.43s-.64-.16-.82-.44l-7.07-10.33v9.81c0 .55-.44 1-1 1h-1.78c-.55 0-1-.45-1-1V45.05c0-.55.45-1 1-1a1 1 0 0 1 .85.46 1.006 1.006 0 0 1 1.76-.2l8.07 11.81 8.08-11.64c.25-.36.7-.52 1.12-.39.26.09.48.27.59.51a1.003 1.003 0 0 1 1.89.47z"/><path d="M39.702 53.222h-7.719a1 1 0 1 1 0-2h7.72a1 1 0 1 1 0 2zm16.128-2.337a.995.995 0 0 1-.77-.362l-3.029-3.655a.998.998 0 0 1 .132-1.407l1.6-1.326-6.003-2.837a1.001 1.001 0 0 1 .855-1.809l6.958 3.29c1.403-.789 5.757-3.288 7.548-4.923.202-.184.47-.274.743-.26a1 1 0 0 1 .7.361l1.422 1.716a.998.998 0 0 1-.155 1.427c-2.104 1.638-6.14 6.738-6.393 7.06a1.077 1.077 0 0 1-.131.14l-.001.002-.033.028-2.806 2.324a.99.99 0 0 1-.637.23zm-1.621-4.523 1.752 2.115 1.27-1.052-1.753-2.114-1.269 1.051zm2.936-2.175 1.481 1.787c1.176-1.449 3.451-4.173 5.194-5.782l-.154-.186c-1.915 1.496-4.93 3.274-6.52 4.181z"/><path d="M53.29 47.1c-.06.03-3.34 1.91-5.79 4.57-1.57 1.72-2.79 3.76-2.56 5.84 0 .07.01.15.02.22a.998.998 0 0 1-.83 1.15c-.05.01-.1.01-.16.01-.48 0-.9-.35-.98-.84-.24-1.52.08-3 .73-4.36.86-1.83 2.31-3.47 3.78-4.81 2.28-2.08 4.61-3.41 4.81-3.52a1 1 0 0 1 .98 1.74zm-4.108 11.819a1 1 0 0 1-.993-.894c-.374-3.495 5.817-8.074 7.062-8.956a.999.999 0 1 1 1.156 1.63c-2.698 1.916-6.415 5.388-6.23 7.113a1 1 0 0 1-.995 1.107zm5.716-.048a1 1 0 0 1-.99-1.15c0-.004.073-.485.1-1.239l.01-.3a17.12 17.12 0 0 0-.008-.977l.012-.695c.01-.553.47-.957 1.019-.98a1 1 0 0 1 .98 1.019l-.012.639c.014.337.015.704.009 1.034l-.011.336a14.038 14.038 0 0 1-.122 1.466 1 1 0 0 1-.987.847z"/></svg>