<svg xmlns="http://www.w3.org/2000/svg" viewBox="0 0 72 72"><path fill="#3F3F3F" d="M16.963 58.999s-2.167-14.84 9.833-14.84c3.192 2.128 5.726 3.698 8.8 3.692h-.125c3.074.006 6.208-1.964 9.4-4.092 12.338 0 10.109 15.14 10.34 15.24"/><path fill="#FFF" d="M44.785 44.608 40.9 50.58l-2.593 4.498c-1.207 2.094-4.228 2.096-5.438.004l-2.6-4.496-3.457-5.98c6.141 5.293 12.133 5.293 17.974 0z"/><path fill="#A57939" d="M64.233 41.39c1.53.73 2.17 2.57 1.43 4.09l-1.63 3.39a3.086 3.086 0 0 1-4.1 1.43l-2.05-1.74.36-.43 3.41-7.05.04-.2 2.54.51z"/><path fill="#F1B31C" d="m61.693 40.88-.04.2-3.41 7.05-.36.43-.53-.44-.02-.02-3.65-1.76h-.02l-.96-.21.13-.61 3.41-7.05.17-.2.84.69 3.64 1.76z"/><path fill="#A57939" d="m57.333 48.1.02.02-.06.07-5.5 11.38c-.44.91-1.47 1.45-2.43 1.17a2.021 2.021 0 0 1-1.26-2.83l5.54-11.48.02-.09h.02l3.65 1.76zm-2.85-11.42 1.93 1.59-.17.2-3.41 7.05-.13.61-2.52-.54a3.066 3.066 0 0 1-1.43-4.1l1.64-3.38a3.054 3.054 0 0 1 4.09-1.43z"/><path fill="#fcea2b" d="M42.89 12.818c-5.48-3.95-13.73-2.805-16 .093-.691.944-.82 2.189-.403 3.283l.043.116-.739-1.366c-6.496 6.891-2.085 15.718-1.356 13.913 2.675-2.503 3.509-8.525 3.63-9.518 1.849 2.154 6.166 4.022 18.043 2.76l1.52 6.759s9.219-6.838-4.738-16.04z"/><path fill="#debb90" d="M46.48 23.752a16.115 16.115 0 0 0-.577-1.634c-11.716 1.217-16-.638-17.838-2.78-.12.982-.938 6.862-3.536 9.42.025 7.8 5.09 14.115 11.337 14.115 6.262 0 11.338-6.346 11.338-14.173 0-.9-.074-1.776-.202-2.63l-.522-2.319z"/><path d="M41.945 27.132a2 2 0 1 1-4.001-.002 2 2 0 0 1 4.001.002m-8 0a2 2 0 1 1-4.001-.002 2 2 0 0 1 4.001.002m2 10.002c-1.152 0-2.304-.286-3.447-.858a1 1 0 1 1 .894-1.789c1.718.86 3.388.86 5.106 0a1 1 0 0 1 .894 1.79c-1.143.571-2.295.857-3.447.857zM16.908 58.983a.999.999 0 0 1-.986-.846c-.041-.27-.973-6.633 2.58-10.776 1.882-2.191 4.628-3.326 8.167-3.375a.997.997 0 0 1 1.016.312c3.05 2.017 5.505 3.266 8.163 3.278 2.722-.012 5.23-1.321 8.383-3.424a1 1 0 0 1 1.413 1.345c-1.653 2.77-7.234 11.865-9.64 12.563-1.954.57-5.201-3.495-9.662-12.065-2.764.107-4.886 1-6.315 2.661-2.956 3.437-2.137 9.12-2.129 9.178a1 1 0 0 1-.99 1.15zm12.694-11.187c2.364 4.17 4.903 7.923 5.926 8.31.992-.488 3.646-4.113 6.23-8.136-1.95.999-3.797 1.578-5.804 1.605l-.066.001h-.148c-2.12-.03-4.063-.676-6.139-1.78z"/><path fill="none" stroke="#000" stroke-linecap="round" stroke-linejoin="round" stroke-miterlimit="10" stroke-width="2" d="m57.293 48.19-5.5 11.38c-.44.91-1.47 1.45-2.43 1.17a2.021 2.021 0 0 1-1.26-2.83l5.54-11.48"/><path fill="none" stroke="#000" stroke-linecap="round" stroke-linejoin="round" stroke-miterlimit="10" stroke-width="2" d="m56.413 38.27-1.93-1.59c-1.52-.74-3.36-.1-4.09 1.43l-1.64 3.38c-.74 1.53-.1 3.36 1.43 4.1l2.52.54.96.21h.02l3.65 1.76.02.02.53.44 2.05 1.74c1.52.73 3.36.09 4.1-1.43l1.63-3.39c.74-1.52.1-3.36-1.43-4.09l-2.54-.51-.8-.16-3.64-1.76-.84-.69zm5.24 2.81-3.41 7.05m-5.41-2.61 3.41-7.05"/><path d="M32.024 54.62a1 1 0 0 1-.8-1.598l3.76-5.043a1 1 0 0 1 1.617.019l3.378 4.759a1 1 0 0 1-1.631 1.158l-2.582-3.639-2.939 3.942a.997.997 0 0 1-.803.402z"/><path fill="none" stroke="#000" stroke-linecap="round" stroke-linejoin="round" stroke-miterlimit="10" stroke-width="2" d="M24.524 28.755v.13c.06 7.77 5.11 14.04 11.34 14.04 6.2 0 11.25-6.23 11.34-13.96v-.21a17.16 17.16 0 0 0-1.21-6.39"/><path fill="none" stroke="#000" stroke-linecap="round" stroke-linejoin="round" stroke-miterlimit="10" stroke-width="2" d="M47.624 28.975s3.9-2.89 2.79-7.44c-.59-2.45-2.64-5.38-7.52-8.6-5.48-3.95-13.73-2.8-16 .09a3.477 3.477 0 0 0-.41 3.29c.31.81.73 1.88 1.7 2.9 2.07 2.16 6.6 4.14 17.81 3.14.49-.04.99-.09 1.51-.14"/><path fill="none" stroke="#000" stroke-linecap="round" stroke-linejoin="round" stroke-miterlimit="10" stroke-width="2" d="M25.794 15.065c-6.5 6.89-2.09 15.72-1.36 13.91l.09-.09c2.85-2.78 3.56-9.58 3.56-9.58"/></svg>