<svg xmlns="http://www.w3.org/2000/svg" viewBox="0 0 72 72"><path fill="#92D3F5" d="M55 61v-4c0-5-5-9-10-9-6 5-12 5-18 0-5 0-10 4-10 9v4h38z"/><path fill="#D0CFCE" d="M42 42.2c8-6 9-7.2 9-14.2s-2.5-12-5.5-13c0 0-1-1-3.1-1.9-1.5-.6.7-7.6-5.9-7.1-8.2.6-4.7 6.2-6.4 6.6-3.9.9-6.2 2.9-7.6 6.4-1.2 2.9-1.2 7.1-2 11-1 5 4.4 7.4 11.4 13.4L42 42.2z"/><path fill="#FCEA2B" d="M25 31c0 8 4 14 10.9 14C43 45 47 39 47 31c0-5-1.4-7.7-2-9-1-2-2-3-2-3-5 3-14 0-15 1s-3 5-3 11z"/><path fill="none" stroke="#000" stroke-linecap="round" stroke-linejoin="round" stroke-width="2" d="M17 60v-3c0-5 5-9 10-9 6 5 12 5 18 0 5 0 10 4 10 9v3M38 38c-1.2.8-2.6.8-4 0m-3-2c0 1-1 2-1 2m11-2c0 1 1 2 1 2"/><path d="M41.9 29c0 1.1-.9 2-2 2s-2-.9-2-2 .9-2 2-2 2 .9 2 2m-8 0c0 1.1-.9 2-2 2s-2-.9-2-2 .9-2 2-2 2 .9 2 2"/><path fill="none" stroke="#000" stroke-linejoin="round" stroke-width="2" d="M25 31c0 8 4 14 10.9 14C43 45 47 39 47 31c0-5-1.4-7.7-2-9-1-2-2-3-2-3-5 3-14 0-15 1s-3 5-3 11z"/><path fill="none" stroke="#000" stroke-linecap="round" stroke-linejoin="round" stroke-width="2" d="M26 38c-2 0-5-3-5-8 0-4 0-6 1-9 1.8-5.5 6-9 14-9 6 0 9 3 9 3 3 1 6 4.9 6 12 0 7-2 12-5 12"/><path fill="none" stroke="#000" stroke-linecap="round" stroke-linejoin="round" stroke-width="2" d="M42 13c1-2 0-4-1-5-2-2-8.3-2-10.3 1-.8 1.2-.7 2.3-.4 3"/></svg>