<svg xmlns="http://www.w3.org/2000/svg" viewBox="0 0 72 72"><path fill="#b1cc33" d="M54.864 59.107s2-13.797-10-13.797c-3.192 2.12-5.926 3.584-9 3.578h.125c-3.073.006-5.808-1.459-9-3.578-12 0-10 13.797-10 13.797"/><path fill="#5c9e31" d="M45.257 44.163c-3.112 2.075-4.983 3.24-8.972 3.819 12.826.404 12.826 7.179 13.575 11.107h5.02s2.16-14.926-9.623-14.926z"/><path fill="#fff" d="M40.018 9.203c10.25 3.13 10.37 9.6 9.18 13.76h-.34a49.712 49.712 0 0 1-9.3-10.11l-2.92-.41a6.892 6.892 0 0 0-.53-3.75l.06-.03a13.217 13.217 0 0 1 3.85.54z"/><path fill="#fff" d="M40.428 20.633a21.353 21.353 0 0 1-4.13-6.19l-.13-.05a9.079 9.079 0 0 0 .47-1.95l2.92.41a49.712 49.712 0 0 0 9.3 10.11h.34a15.582 15.582 0 0 1-1.69 3.87l-.1-.07a46.092 46.092 0 0 1-6.98-6.13z"/><path fill="#fff" d="M40.428 20.633c-3.74 3.57-8.33 0-8.33 0a18.72 18.72 0 0 0 4.07-6.24l.13.05a21.353 21.353 0 0 0 4.13 6.19z"/><path fill="#fff" d="M36.108 8.693a6.892 6.892 0 0 1 .53 3.75 9.079 9.079 0 0 1-.47 1.95 18.72 18.72 0 0 1-4.07 6.24 39.454 39.454 0 0 1-4.08 3.79 43.798 43.798 0 0 1-3.17 2.35l-.09.06s-8.34-12.79 7.5-17.63a13.103 13.103 0 0 1 3.84-.54c0 .01.01.02.01.03z"/><path fill="#d0cfce" d="M40.951 9.512s5.481 8.946 1.145 12.828l5.415 4.493s8.312-12.222-6.56-17.321z"/><path fill="#fcea2b" d="M45.828 35.883a17.201 17.201 0 0 1-9.17 8.38 1.45 1.45 0 0 1-1.12.01 17.597 17.597 0 0 1-9.52-9.15 18.572 18.572 0 0 1 6.73-3.72c3.8-1.09 8.67-.82 13.08 4.48zm-6.29.52a1 1 0 0 0-.89-1.79 5.383 5.383 0 0 1-5.11 0 .994.994 0 0 0-1.34.45 1.01 1.01 0 0 0 .45 1.34 7.33 7.33 0 0 0 6.89 0z"/><g fill="#debb90"><path d="M47.348 26.852a17.142 17.142 0 0 1 .09 1.76 16.804 16.804 0 0 1-1.61 7.27c-4.41-5.3-9.28-5.57-13.08-4.48l-.65-2.15a2 2 0 1 0-1.55-3.27l-2.53-1.56a39.454 39.454 0 0 0 4.08-3.79s4.59 3.57 8.33 0a46.092 46.092 0 0 0 6.98 6.13zm-5.25.4a2 2 0 1 0-2 2 2.006 2.006 0 0 0 2-2z"/><path d="m32.098 29.253.65 2.15a18.572 18.572 0 0 0-6.73 3.72 16.973 16.973 0 0 1-1.26-6.51c0-.62.03-1.23.09-1.84.33-.22 1.59-1.07 3.17-2.35l2.53 1.56a2.026 2.026 0 0 0-.45 1.27 1.993 1.993 0 0 0 2 2z"/></g><path d="M40.098 25.253a2 2 0 1 1-2 2 2.006 2.006 0 0 1 2-2zm-.11 9.81a.994.994 0 0 1-.45 1.34 7.33 7.33 0 0 1-6.89 0 1.01 1.01 0 0 1-.45-1.34.994.994 0 0 1 1.34-.45 5.383 5.383 0 0 0 5.11 0 .994.994 0 0 1 1.34.45zm-7.89-9.81a2 2 0 1 1-2 2 2.026 2.026 0 0 1 .45-1.27 2 2 0 0 1 1.55-.73z"/><path fill="none" stroke="#000" stroke-miterlimit="10" d="M26.018 35.123a18.572 18.572 0 0 1 6.73-3.72c3.8-1.09 8.67-.82 13.08 4.48"/><path d="M40.098 25.253a2 2 0 1 1-2 2 2.006 2.006 0 0 1 2-2zm-.11 9.81a.994.994 0 0 1-.45 1.34 7.33 7.33 0 0 1-6.89 0 1.01 1.01 0 0 1-.45-1.34.994.994 0 0 1 1.34-.45 5.383 5.383 0 0 0 5.11 0 .994.994 0 0 1 1.34.45zm-7.89-9.81a2 2 0 1 1-2 2 2.026 2.026 0 0 1 .45-1.27 2 2 0 0 1 1.55-.73z"/><path fill="none" stroke="#000" stroke-linecap="round" stroke-linejoin="round" stroke-width="2" d="M24.848 26.773c-.06.61-.09 1.22-.09 1.84a16.973 16.973 0 0 0 1.26 6.51 17.597 17.597 0 0 0 9.52 9.15 1.45 1.45 0 0 0 1.12-.01 17.201 17.201 0 0 0 9.17-8.38 16.804 16.804 0 0 0 1.61-7.27 17.142 17.142 0 0 0-.09-1.76m-2.44 18.259c12 0 10 13 10 13m-13.44-10.93a35.334 35.334 0 0 0 3.33-2m-27.76 12.93s-2-13 10-13c3.14 2.09 5.84 3.55 8.87 3.59h.13a12.202 12.202 0 0 0 5.42-1.51m-5.35-38.499c0-.01-.01-.02-.01-.03a13.103 13.103 0 0 0-3.84.54c-15.84 4.84-7.5 17.63-7.5 17.63l.09-.06c.33-.22 1.59-1.07 3.17-2.35a39.454 39.454 0 0 0 4.08-3.79 18.72 18.72 0 0 0 4.07-6.24 9.079 9.079 0 0 0 .47-1.95 6.892 6.892 0 0 0-.53-3.75z"/><path fill="none" stroke="#000" stroke-linecap="round" stroke-linejoin="round" stroke-width="2" d="M23.408 22.962a40.62 40.62 0 0 0 9.66-10.11m3.1-4.19a13.217 13.217 0 0 1 3.85.54c10.25 3.13 10.37 9.6 9.18 13.76a15.582 15.582 0 0 1-1.69 3.87l-.1-.07a46.092 46.092 0 0 1-6.98-6.13 21.353 21.353 0 0 1-4.13-6.19"/><path fill="none" stroke="#000" stroke-linecap="round" stroke-linejoin="round" stroke-width="2" d="M48.858 22.962a49.712 49.712 0 0 1-9.3-10.11m-7.46 7.781s4.59 3.57 8.33 0h.01m-14.42 14.49a18.572 18.572 0 0 1 6.73-3.72c3.8-1.09 8.67-.82 13.08 4.48m-.92 9.229a.932.932 0 0 0-.11.07c-.37.21-1.64.96-3.33 2a.01.01 0 0 1-.01.01c-5.09 3.14-14.05 8.95-14.05 10.92"/></svg>