<svg xmlns="http://www.w3.org/2000/svg" viewBox="0 0 72 72"><path fill="#EA5A47" d="M51.76 19.365a5.048 5.048 0 0 1-1.965.378c-4.329.002-8.078 1.828-12.338 2.136-5.023.362-9.373-1.716-14.265-2.062a5.338 5.338 0 0 1-1.655-.378 5.348 5.348 0 0 1-1.254.265c-8.815 8.788-8.837 23.058-.05 31.872s23.059 8.837 31.874.05 8.836-23.059.048-31.874c-.13-.13-.262-.26-.396-.387z"/><path fill="#6A462F" d="M57.743 27.453a7.355 7.355 0 0 1 5.985.813s.958-6.604-8.62-11.32l5.6-1.354-6.43-4.287c-1.816-.429-3.71-.545-5.942-.424V16s-4 0-5-1l.97-4.457c-5.817-1.865-11.14-2.199-15.856.057l-.114 3.4c0 1-4 2-4 2l-1.956-5.894c-2.578 0-4.18.658-4.18.658l-5.922 4.828c1.977-.988 6.433.41 6.433.41s-8.62.944-10.536 13.207c0 0 3.831-2.83 6.705-2.83 0 0-10.536 3.774-6.705 20.754 0 0 1.916-4.717 4.789-5.66 0 0-3.831 8.49 5.747 17.924 0 0 1.505-4.314 2.463-5.258 0 0 1.338 8.088 7.085 9.031 0 0-.927-1.887.988-4.717A13.75 13.75 0 0 0 39.783 66s-1.654-6.964 3.135-7.907c0 0 1.654.36 1.654 4.134 0 0 5.264-4.314 5.264-8.088a5.69 5.69 0 0 1 4.314 4.314s4.551-4.854 3.594-16.174c0 0 4.069-1.75 6.942 3.91 0 .001 2.636-10.246-6.943-18.736zM58.337 40c-3 10-11 18-20 18s-23-5-24-15-2-14 5-23c0 0 13 1 18 2 0 0 13-4 16-2 0 0 8 10 5 20z"/><path fill="#D22F27" d="M28.989 12.211C26.585 10.61 25.784 8.205 26.586 5c-5.609 1.603-4.808 8.012-2.404 12.018 4.247.802 4.807-4.807 4.807-4.807zm18.167 4.807C49.559 13.012 50.36 6.602 44.752 5c.801 3.205 0 5.609-2.404 7.211-3.605 2.404.56 5.609 4.808 4.807z"/><path fill="none" stroke="#000" stroke-linecap="round" stroke-linejoin="round" stroke-width="2" d="m49.211 24.646-7.644 2.253m-23.359-15.26c-4.942 1.976-6.202 4.363-6.202 4.363s3.831-.943 6.704 0c0 0-8.62.944-10.536 13.207 0 0 3.832-2.83 6.705-2.83 0 0-10.536 3.774-6.705 20.754 0 0 1.916-4.717 4.79-5.66 0 0-3.832 8.49 5.746 17.924 0 0 1.505-4.314 2.463-5.258 0 0 1.338 8.088 7.085 9.031 0 0-.927-1.887.989-4.717A13.75 13.75 0 0 0 39.783 66s-1.654-6.964 3.135-7.907c0 0 1.654.36 1.654 4.134 0 0 5.264-4.314 5.264-8.088a5.69 5.69 0 0 1 4.314 4.314s4.551-4.854 3.594-16.174c0 0 4.069-1.75 6.942 3.91 0 0 2.636-10.246-6.943-18.736a7.356 7.356 0 0 1 5.986.813s.957-6.604-8.62-11.32c0 0 3.83-1.887 5.747-.944 0 0-4.732-3.328-6.887-3.846"/><path fill="none" stroke="#000" stroke-linecap="round" stroke-miterlimit="2" stroke-width="2" d="m31.303 43.223-.49 3.482m9.884-3.482.49 3.482"/><path fill="none" stroke="#000" stroke-linecap="round" stroke-linejoin="round" stroke-width="2" d="m30.431 26.899-7.643-2.253m8.944-14.216a13.336 13.336 0 0 1 8.22 0M27.599 42.279h16.802"/><path fill="none" stroke="#000" stroke-linecap="round" stroke-miterlimit="10" stroke-width="2" d="M53.38 20.805c8.092 9.6 6.871 23.941-2.728 32.034s-23.94 6.872-32.033-2.727c-7.242-8.59-7.123-21.181.28-29.633"/><path fill="none" stroke="#000" stroke-linecap="round" stroke-linejoin="round" stroke-width="2" d="M18.903 20.483s4.978-1.294 9.189.051a22.343 22.343 0 0 0 7.86 1.134"/><path fill="none" stroke="#000" stroke-linecap="round" stroke-linejoin="round" stroke-width="2" d="M52.754 20.483s-4.977-1.294-9.188.051a22.343 22.343 0 0 1-7.86 1.134m-6.717-9.457C26.585 10.61 25.784 8.205 26.586 5c-5.609 1.603-4.808 8.012-2.404 12.018 4.247.802 4.807-4.807 4.807-4.807zm18.167 4.807C49.559 13.012 50.36 6.602 44.752 5c.801 3.205 0 5.609-2.404 7.211-3.605 2.404.56 5.609 4.808 4.807z"/><path d="M30 32a3.001 3.001 0 0 1-6 0c0-1.655 1.345-3 3-3s3 1.345 3 3m18 0a3.001 3.001 0 0 1-6 0c0-1.655 1.345-3 3-3s3 1.345 3 3"/></svg>