<svg xmlns="http://www.w3.org/2000/svg" viewBox="0 0 72 72"><path fill="#92d3f5" d="M55.008 58.874s1.994-13.752-9.967-13.752c-3.181 2.112-5.907 3.572-8.97 3.566h.124c-3.063.006-5.789-1.454-8.97-3.566-11.96 0-9.967 13.752-9.967 13.752"/><path fill="#61b2e4" d="M44.1 49.125c5.447 2.26 5.588 6.807 6.149 9.753h5.02s2.16-14.925-9.623-14.925"/><path fill="#e27022" d="M50.08 58.886V45.833l-4.09-.726a115.935 115.935 0 01-6.825 13.78zM34.723 58.886a115.941 115.941 0 01-6.825-13.779l-4.318.726v13.053z"/><path fill="#fcea2b" d="M45.41 58.938l3.483-13.205-1.933-.502-3.782 13.704 2.232.003zM28.185 58.938l-3.483-13.205 1.932-.502 3.783 13.704-2.232.003z"/><path fill="#f1b31c" d="M47.927 20.282l-.04.1q-.57-.195-1.23-.39a30.417 30.417 0 00-8.56-1.16v-2.57h2.89l.06-5.96c6.84 1.21 6.88 9.98 6.88 9.98zM38.097 16.262v2.57c-.34 0-.68.01-1.03.02h-.16c-.03 0-.06-.01-.08 0a31.162 31.162 0 00-9.5 1.13v.01c-.59.17-1.12.35-1.59.53l-.09-.24s.05-9.2 7.4-10.06l-.06 6.04z"/><path fill="#fcea2b" d="M41.047 10.302l-.06 5.96h-8l.06-6.04c1.59-2.81 7.37-2.07 8 0z"/><g><g fill="#a57939"><path d="M24 23v7l-1 3-1 3 1 3h4l1.132-1.441L28 36l-2.185-5.168-.114-3.8 1.026-4.652L27 21l-3 2zM50.132 23v7l1 3 1 3-1 3h-4L46 37.559 46.132 36l2.186-5.168.113-3.8-1.026-4.652-.273-1.38 3 2z"/><path d="M24 23v3l5-2 2-1 2-2v-1h-3l-3.431 1.287L24 22v1zM49 23v3l-5-2-2-1-2-2v-1h3l3.431 1.287L49 22v1z"/></g></g><g><path fill="#fadcbc" d="M48.007 25.032a17.644 17.644 0 01.32 3.36c0 7.83-5.08 14.18-11.34 14.18s-11.34-6.35-11.34-14.18A10.441 10.441 0 0126 25h1c1.457-.226 8.178-5.835 9.947-5.038-.516.239 8.401 3.779 9.053 5.038l3 1c.08.32-1.053-1.298-.993-.968zm-5.02 2a2 2 0 10-2 2 2 2 0 002-2zm-2.55 9.15a1.01 1.01 0 00.45-1.34.994.994 0 00-1.34-.45 5.383 5.383 0 01-5.11 0 1 1 0 00-.89 1.79 7.33 7.33 0 006.89 0zm-5.45-9.15a2 2 0 10-2 2 2 2 0 002-2z"/></g><g><path d="M55.807 58.888a.996.996 0 01-.99-1.15c.008-.057.827-5.74-2.13-9.177-1.475-1.715-3.69-2.613-6.585-2.67-3.31 2.185-6.028 3.546-9.126 3.589H36.759c-3.1-.043-5.817-1.404-9.126-3.588-2.897.056-5.11.954-6.586 2.669-2.956 3.436-2.138 9.12-2.129 9.177a1 1 0 01-1.976.303c-.041-.27-.973-6.633 2.58-10.775 1.923-2.242 4.752-3.377 8.408-3.377a1.002 1.002 0 01.555.168c3.152 2.101 5.659 3.409 8.382 3.424 2.723-.014 5.23-1.322 8.383-3.424a1.002 1.002 0 01.555-.168c3.656 0 6.484 1.135 8.407 3.377 3.554 4.142 2.622 10.506 2.581 10.775a1 1 0 01-.986.847z"/><path d="M34.766 58.889a.998.998 0 01-.848-.47 97.57 97.57 0 01-6.907-13.136 1 1 0 011.838-.789 95.718 95.718 0 006.762 12.863 1 1 0 01-.845 1.532zM39.213 58.889a1 1 0 01-.846-1.532 95.694 95.694 0 006.763-12.863 1 1 0 111.838.79A97.57 97.57 0 0140.06 58.42a.998.998 0 01-.847.469zM23.605 58.889a1 1 0 01-1-1V45.615a1 1 0 012 0V57.89a1 1 0 01-1 1zM50.145 58.889a1 1 0 01-1-1V45.615a1 1 0 012 0V57.89a1 1 0 01-1 1zM40.987 25.032a2 2 0 11-2 2 2 2 0 012-2zM40.887 34.842a1.01 1.01 0 01-.45 1.34 7.33 7.33 0 01-6.89 0 1 1 0 01.89-1.79 5.383 5.383 0 005.11 0 .994.994 0 011.34.45zM32.987 25.032a2 2 0 11-2 2 2 2 0 012-2z"/><path fill="none" stroke="#000" stroke-miterlimit="10" stroke-width="2" d="M25.96 25.1a17.255 17.255 0 00-.313 3.292c0 7.83 5.08 14.18 11.34 14.18s11.34-6.35 11.34-14.18a17.644 17.644 0 00-.32-3.36"/><path fill="none" stroke="#000" stroke-linecap="round" stroke-linejoin="round" stroke-width="2" d="M27.327 20.992c-.59.17-1.12.35-1.59.53a15.057 15.057 0 00-2.65 1.22"/><path fill="none" stroke="#000" stroke-miterlimit="10" stroke-width="2" d="M27.327 20.982v.01"/><path fill="none" stroke="#000" stroke-linecap="round" stroke-linejoin="round" stroke-width="2" d="M50.887 22.742a15.991 15.991 0 00-3-1.36q-.57-.195-1.23-.39a30.417 30.417 0 00-8.56-1.16c-.34 0-.68.01-1.03.02h-.16c-.03 0-.06-.01-.08 0a31.162 31.162 0 00-9.5 1.13M41.047 11.302v-.08c-.63-2.07-6.41-2.81-8 0l-.06 6.04h8z"/><path fill="none" stroke="#000" stroke-miterlimit="10" stroke-width="2" d="M25.647 21.282s.05-9.2 7.4-10.06M47.927 21.282s-.04-8.77-6.88-9.98c-.16-.03-.34-.06-.51-.08"/><g fill="none" stroke="#000" stroke-linecap="round" stroke-width="2"><path stroke-linejoin="round" d="M28.132 37.972c-2.806 1.713-4.747.796-5.888-.289a1.53 1.53 0 01-.15-2.07c1.956-2.298 2.099-12.87 2.099-12.87M49.698 22.742s.143 10.572 2.099 12.87a1.53 1.53 0 01-.15 2.07c-1.14 1.085-3.082 2.003-5.888.29"/><path stroke-miterlimit="10" d="M33.873 19.895C32.48 23.034 25 26 25 26M39 19.895C40.55 23.034 48.873 26 48.873 26"/></g></g></svg>