<svg xmlns="http://www.w3.org/2000/svg" viewBox="0 0 72 72"><path fill="#92d3f5" d="M17.004 60.958v-3.247c0-5.406 5.008-9.742 10-9.742q9 8.118 18 0c4.994 0 10 4.336 10 9.742v3.247"/><g fill="#fadcbc"><path d="M44.706 23.33a13.318 13.318 0 0 0 .882 5.7 13.603 13.603 0 0 1 1.416 4.939c0 5-5.127 11-11.064 11-6.063 0-11-6-11-11a7.638 7.638 0 0 1 1.064-4c1-2 1.385-5.271 1.708-6.334l3.138-2.27a12.01 12.01 0 0 1 3.027-1.625c2.2-1.228 2.61-1.3 4.17-.361a30.41 30.41 0 0 1 3.515 2.061z"/><path d="M55.004 4.969c0 3-1 11-1 11v12c-1 4-4 4-4 4 0-6-3-12-3-12a14.652 14.652 0 0 0-3.34 4.171c-1.487 2.407-3.66.829-2.66-1.171.838-1.676 3.047-5.62 4-7a7.495 7.495 0 0 1 4-3v-8m-32 0c0 3 1 11 1 11v12c1 4 4 4 4 4 0-6 3-12 3-12a14.652 14.652 0 0 1 3.34 4.171c1.487 2.407 3.66.829 2.66-1.171-.838-1.676-3.047-5.62-4-7a7.495 7.495 0 0 0-4-3v-8"/></g><path fill="#a57939" d="m46.712 33.392-1.509-5.465a17.91 17.91 0 0 0-1.556-3.7l-2.897-.118v-3.035c.227-.089-3.616-2.24-4.777-2.105s-4.467 2.016-4.467 2.016l.371 2.24-3.642 1.12c-1.118 1.338-1.65 4.775-1.65 4.775l-1.247 7.41c-1.197-.634-3.036-.72-3.333-4.56a30.241 30.241 0 0 1 2-10l.327-1.575c4.557 4.557 6.325 2.982 6.325 2.982 1.408-.055-4.34-9.24-4.34-9.24 3.166-2.813 5.804-2.709 9.656-2.709s5.824-.375 9.887 2.77c0 0-6.367 9.319-4.282 9.63s6.532-3.297 6.563-3.365.363 2.865.363 2.865a33.36 33.36 0 0 1 1.5 8.641c-1.038 2.865-2.127 3.69-3.939 4.301z"/><path d="M41.877 29.969a2 2 0 1 1-2-2 2 2 0 0 1 2 2m-8 0a2 2 0 1 1-2-2 2 2 0 0 1 2 2"/><path fill="none" stroke="#000" stroke-linecap="round" stroke-linejoin="round" stroke-width="2" d="M29.163 13.368a15.8 15.8 0 0 1 6.84-1.4 15.971 15.971 0 0 1 6.594 1.285M17.004 59.969v-3c0-4.994 5.008-9 10-9q9 7.5 18 0c4.994 0 10 4.006 10 9v3"/><path d="M41.877 29.969a2 2 0 1 1-2-2 2 2 0 0 1 2 2m-8 0a2 2 0 1 1-2-2 2 2 0 0 1 2 2"/><path fill="none" stroke="#000" stroke-linecap="round" stroke-linejoin="round" stroke-width="2" d="M36.004 17.968a10.618 10.618 0 0 0-2.457.86m-7.543 8.248a40.313 40.313 0 0 0-1.064 6.893c0 5 4.936 11 11 11 5.936 0 11.063-6 11.063-11a35.913 35.913 0 0 0-1-6.892"/><path fill="none" stroke="#000" stroke-linecap="round" stroke-linejoin="round" stroke-width="2" d="M33.004 37.969a6.553 6.553 0 0 0 6 0m-22-32c0 3 1 10 1 10v12c1 4 4 4 4 4 0-6 3-12 3-12l4 4c1 1 3 0 2-2a66.766 66.766 0 0 0-4-6 7.495 7.495 0 0 0-4-3v-7m32.273 0c0 3-1 10-1 10v12c-1 4-4 4-4 4 0-6-3-12-3-12l-4 4c-1 1-3 0-2-2a66.766 66.766 0 0 1 4-6 7.495 7.495 0 0 1 4-3v-7M36.004 17.968a7.288 7.288 0 0 1 2.334.667"/><path fill="none" stroke="#000" stroke-linecap="round" stroke-linejoin="round" stroke-width="2" d="M25.337 36.529c-1.78-1.348-2.78-1.512-3.267-5.94m28.105.039c-.487 4.427-1.488 4.592-3.267 5.94"/></svg>