<svg xmlns="http://www.w3.org/2000/svg" viewBox="0 0 72 72"><path fill="#92d3f5" d="M7.93 60.941v-3.958c0-4.994 5.009-9 10-9q9 7.5 18 0c4.995 0 10 4.006 10 9v3.958"/><path fill="#9b9b9a" d="M57.824 39.934a5 5 0 1 1-8.144-.202l-.5-.749.688-.562-2.75-3.063-1.5-3.625-.194-4.328 2.573 1.203 9.684 9.875s1.062.936 1 1.25"/><path fill="#d0cfce" d="M53.68 31.733a5.035 5.035 0 0 0 .101 1l-15.85.25s.75 3.75 3.75 3.75h17a5 5 0 1 0-5-5z"/><path fill="#debb90" d="M15.867 30.983c.629 8.978 4.937 14 11 14 5.937 0 11.064-5 11.064-14a12.133 12.133 0 0 0-1-5 49.876 49.876 0 0 0-5.069-6.903 125.571 125.571 0 0 1-15.47 10.111c-.482.88-.835-2.641-.525 1.792z"/><path fill="#fcea2b" d="M51.282 47.121c-2.786.511-2.101-8.138-2.101-8.138l.687-.562-1.434-1.672a29.296 29.296 0 0 0-6.324-.328c-3.178.23-3.506-3.342-3.506-3.342l6.586-.36c-1.472-3.27-1.01-3.922-1.336-9.953.027-3.693-6.876-8.4-10.556-8.709a1.001 1.001 0 0 1-.689-.343c-.093-.1-2.408-2.655-7.243-2.655-6.2 0-11.441 3.382-12.743 8.226a18.518 18.518 0 0 0-.565 6.176 13.317 13.317 0 0 1-.76 5.96 6.8 6.8 0 0 1-1.12 2.089c-3.772 4.42-.974 14.303-1.167 14.01a24.058 24.058 0 0 0 3.634 2.719 10.464 10.464 0 0 1 5.36-2.09c6.21 5.013 12.496 5.013 18.7 0a8.343 8.343 0 0 1 4.21 1.513s4.695 3.059 5.602 5.93c0 0 5.776.164 7.407-7.017zM27.604 45.08c-11.68.52-11.724-15.1-11.724-15.1 1.369-2.43 16.151-10.287 16.151-10.287a14.508 14.508 0 0 1 5.56 8.29s1.693 16.577-9.987 17.097z"/><circle cx="58.681" cy="31.733" r="2"/><path fill="none" stroke="#000" stroke-linecap="round" stroke-linejoin="round" stroke-width="2" d="M7.93 59.983v-3c0-4.994 5.009-9 10-9q9 7.5 18 0c4.995 0 10 4.006 10 9v3"/><path d="M32.804 29.983a2 2 0 1 1-2-2 2 2 0 0 1 2 2m-8 0a2 2 0 1 1-2-2 2 2 0 0 1 2 2"/><path fill="none" stroke="#000" stroke-linecap="round" stroke-linejoin="round" stroke-width="2" d="M23.93 37.983a6.553 6.553 0 0 0 6 0m23.75-6.25a5.035 5.035 0 0 0 .101 1l-15.85.25s.75 3.75 3.75 3.75h17a5 5 0 1 0-5-5zm4.144 8.201a5 5 0 1 1-8.144-.202"/><path fill="none" stroke="#000" stroke-linecap="round" stroke-linejoin="round" stroke-width="2" d="M44.41 26.724a3.064 3.064 0 0 1 .748.443 3.218 3.218 0 0 1 .266.238l2.573 2.574"/><circle cx="53.681" cy="42.733" r="2"/><path fill="none" stroke="#000" stroke-linecap="round" stroke-linejoin="round" stroke-width="2" d="M9.682 46.805c-3.722-5.857-.628-10.08 1.18-14.725 1.636-4.2-.209-6.451 1.291-12.034 1.48-5.5 7.278-8.966 13.71-8.966 5.4 0 8 3 8 3 4.168.374 9.027 3.703 9.991 8.686.4 2.235.133 6.176 1.57 9.597"/><path fill="none" stroke="#000" stroke-linejoin="round" stroke-width="2" d="M15.862 31.08c0 8 5 14 11 14s11-6 11-14c0-5-2-8-6-12-4 4-16 9-16 11z"/><path fill="none" stroke="#000" stroke-linecap="round" stroke-linejoin="round" stroke-width="2" d="M53.303 47.983a11.582 11.582 0 0 1-2.02 4.13"/></svg>