<svg xmlns="http://www.w3.org/2000/svg" viewBox="0 0 72 72"><path fill="#B399C8" d="M11 11h50v50H11z"/><path fill="#FFF" d="M52 30.64a8.51 8.51 0 0 0-16-4.045 8.51 8.51 0 0 0-16 4.044 8.47 8.47 0 0 0 1.886 5.337l-.003.003L36 53.475l14.117-17.496-.003-.003A8.47 8.47 0 0 0 52 30.64z"/><g fill="none" stroke="#000" stroke-linejoin="round" stroke-miterlimit="10" stroke-width="2"><path stroke-linecap="round" d="M11 11h50v50H11z"/><path d="M52 30.64a8.51 8.51 0 0 0-16-4.045 8.51 8.51 0 0 0-16 4.044 8.47 8.47 0 0 0 1.886 5.337l-.003.003L36 53.475l14.117-17.496-.003-.003A8.47 8.47 0 0 0 52 30.64z"/></g></svg>