<svg xmlns="http://www.w3.org/2000/svg" viewBox="0 0 72 72"><g fill="#FFA7C0"><path d="M43 36.164a8.51 8.51 0 00-16-4.044 8.51 8.51 0 00-16 4.044 8.47 8.47 0 001.886 5.337l-.003.003L27 59l14.117-17.496-.003-.002A8.47 8.47 0 0043 36.163zM61 17.521a4.521 4.521 0 00-8.5-2.148 4.521 4.521 0 10-7.498 4.984H45l7.5 9.296 7.5-9.295-.002-.001A4.5 4.5 0 0061 17.52z"/></g><path fill="none" stroke="#000" stroke-linejoin="round" stroke-miterlimit="10" stroke-width="2" d="M43 36.164a8.51 8.51 0 00-16-4.044 8.51 8.51 0 00-16 4.044 8.47 8.47 0 001.886 5.337l-.003.003L27 59l14.117-17.496-.003-.002A8.47 8.47 0 0043 36.163zM61 17.521a4.521 4.521 0 00-8.5-2.148 4.521 4.521 0 10-7.498 4.984H45l7.5 9.296 7.5-9.295-.002-.001A4.5 4.5 0 0061 17.52z"/></svg>