<svg xmlns="http://www.w3.org/2000/svg" viewBox="0 0 72 72"><path fill="#A57939" d="M50.109 10.959h-28.51c-1.688.293-4.779.993-4.779.993l.326 52.02c0 1.103 1.571 3.001 2.674 3.001h32.85c1.102 0 2-2.277 2-3.38V11.952l-4.561-.993z"/><path fill="#d0cfce" d="M32.957 11.21l-4.084.148c-1.625 0-3.312 2.401-3.782 3.872l21.471.338c-.47-1.47-1.832-4.359-3.457-4.359l-3.802-.333c-.37 0-.185-3.836-3.344-3.688-3.159.15-2.632 4.021-3.002 4.021z"/><path fill="#FFF" d="M51.78 54.94v-.174c-.002.024-.01.045-.014.069.005.035.013.07.014.105zM47.138 14.853c.008.119-2.327.591-2.88.591 0 0-20.14-.449-20.131-.568h-3.074c.236.038-.153 46.547-.153 46.547h22.536s7.361-6.437 7.361-6.463l-.152-2.856.152-36.259c0-.054-.022-.992-.022-.992h-3.637z"/><path fill="#FFF" d="M42.74 57.104c.018.018.043.027.063.043-.02-.016-.045-.026-.064-.043zM43.04 57.301z"/><path fill="#d0cfce" d="M50.514 55.207l-4.684-.354-2.142-.087-1.256 1.684v3.973l1.004 1z"/><path fill="none" stroke="#6A462F" stroke-linecap="round" stroke-linejoin="round" stroke-miterlimit="10" stroke-width="2" d="M50.645 55.927l-7.416 6.477H20.914"/><g fill="none" stroke="#000" stroke-linecap="round" stroke-linejoin="round" stroke-miterlimit="10" stroke-width="2"><path d="M49.686 11.952h4.983v52.021a3 3 0 01-3 3H19.82a3 3 0 01-3-3V11.952h4.615M50.797 15.845V54.96"/><path d="M43.417 56.377v-1.413l7.379-.004-7.36 6.462H20.9V15.846M24.581 22.615h12.766M24.581 26.615h16.982M24.581 30.615h20.2M24.581 34.615h13.552M24.581 38.615h16.411M24.581 42.615h7.122M42.276 10.944H38.48a2.725 2.725 0 10-5.042 0h-4.061a4.286 4.286 0 00-4.286 4.286h21.471a4.286 4.286 0 00-4.286-4.286z"/></g></svg>