<svg xmlns="http://www.w3.org/2000/svg" viewBox="0 0 72 72"><path fill="#D0CFCE" d="M17.16 15.955l.252 39.437L56.03 15.955H17.16zm5.25 16.436V22.163c0-.208.087-.408.242-.555a.833.833 0 01.584-.23l10.425.007c.083 0 .163.012.24.034.23.067.422.227.519.445a.753.753 0 01-.168.852l-10.424 10.22a.857.857 0 01-.903.18.802.802 0 01-.478-.494.747.747 0 01-.037-.231z"/><path fill="#9B9B9A" d="M55.561 16.215l-6.776.167-31.537 32.43-.074 6.946z"/><path fill="#d0cfce" stroke-linecap="round" stroke-linejoin="round" stroke-miterlimit="10" stroke-width="2" d="M23.855 43.289l-1.289-1.243M29.408 37.53l-1.289-1.243M32.184 34.651l-1.289-1.243M34.96 31.771l-1.289-1.243M37.737 28.892l-1.289-1.243M43.29 23.133l-1.289-1.243M26.719 40.494l-2.2-2.121M40.601 26.097l-2.2-2.121"/><g fill="none" stroke="#000" stroke-linecap="round" stroke-linejoin="round" stroke-miterlimit="10" stroke-width="2"><path d="M17.065 56.08V16.057l38.78.025z"/><path d="M22.542 34.373v-13.04l12.633.009zM23.855 43.289l-1.289-1.243M29.408 37.53l-1.289-1.243M32.184 34.651l-1.289-1.243M34.96 31.771l-1.289-1.243M37.737 28.892l-1.289-1.243M43.29 23.133l-1.289-1.243M26.719 40.494l-2.2-2.121M40.601 26.097l-2.2-2.121"/></g></svg>