<svg xmlns="http://www.w3.org/2000/svg" viewBox="0 0 72 72"><path fill="#92d3f5" d="M18 12h42v47.5H18z"/><path fill="#61b2e4" d="M12 12h6.992v47.5H12z"/><path fill="none" stroke="#000" stroke-linecap="round" stroke-linejoin="round" stroke-width="2" d="M18 13v46m44.909-4.185A1.986 1.986 0 0 0 64 53.047V9.083A2.083 2.083 0 0 0 61.917 7H16.459a4.771 4.771 0 0 0-3.973 2.13h0a1.889 1.889 0 0 0 1.573 2.935h3.808L20 12.047h39.917v48H14.058a1.89 1.89 0 0 1-1.891-1.85V10.575"/><path fill="none" stroke="#000" stroke-linecap="round" stroke-linejoin="round" stroke-width="2" d="M39.533 27.219v7h3m-8.825 0h0a2.5 2.5 0 0 1-2.5-2.5v-2a2.5 2.5 0 0 1 2.5-2.5h0a2.5 2.5 0 0 1 2.5 2.5v2a2.5 2.5 0 0 1-2.5 2.5z"/><circle cx="45.533" cy="34.219" r="1"/><path fill="none" stroke="#000" stroke-linecap="round" stroke-linejoin="round" stroke-width="2" d="m28.416 27.29-1.518 7h-1.361l-1.537-7m25.563 5.531a1.932 1.932 0 0 0 1.934 1.398h0a1.763 1.763 0 1 0 0-3.5 1.763 1.763 0 1 0 0-3.5h0a1.932 1.932 0 0 0-1.934 1.397"/></svg>