<svg xmlns="http://www.w3.org/2000/svg" viewBox="0 0 72 72"><path fill="#FFF" d="M16.405 11.378H55.97v49.066H16.405z"/><path fill="#f4aa41" d="M39.931 40.222l11.294-11.294 7.376 7.376-11.198 11.198"/><path fill="#a57939" d="M37.941 46.819l1.961-5.649 6.454 6.454-5.648 1.96"/><path fill="#EA5A47" d="M54.609 25.052l3.978-3.979 7.859 7.859-3.945 3.945"/><path fill="#d0cfce" d="M50.494 29.66l4.608-4.608 7.375 7.375-4.568 4.569"/><g><path d="M38.07 47.191l2.386 2.386-3.464 1.28z"/><path fill="none" stroke="#000" stroke-linecap="round" stroke-linejoin="round" stroke-miterlimit="10" stroke-width="2" d="M22.322 19.875h27M22.322 27.875h25.6M22.322 35.875h17.109M22.322 43.875h12.206M22.322 51.875h10.146"/><path d="M38.07 47.191l2.386 2.386-3.464 1.28z"/><path fill="none" stroke="#000" stroke-linecap="round" stroke-linejoin="round" stroke-miterlimit="10" stroke-width="2" d="M40.692 49.591l5.664-1.967 15.59-15.59-6.454-6.454-15.59 15.59-1.974 5.671zM58.086 22.986l1.555-1.555 6.454 6.454-1.632 1.632M40.279 40.793l6.454 6.454"/><path fill="none" stroke="#000" stroke-linecap="round" stroke-linejoin="round" stroke-miterlimit="10" stroke-width="2" d="M37.932 46.828l-1.383 4.149 4.159-1.392M51.302 30.157l6.202 6.202"/><path fill="none" stroke="#000" stroke-linecap="round" stroke-linejoin="round" stroke-miterlimit="10" stroke-width="2.021" d="M55.322 44.228v15.647h-39v-48h39v8.456"/></g></svg>