<svg xmlns="http://www.w3.org/2000/svg" viewBox="0 0 72 72"><g stroke-miterlimit="10"><path fill="#FFF" stroke="#FFF" stroke-linecap="round" stroke-linejoin="round" stroke-width="1.8" d="M29.992 54.879v14h11v-14"/><path fill="#EA5A47" d="M53.774 13.502v39.62a2.704 2.704 0 0 1-2.701 2.702H20.456a2.698 2.698 0 0 1-2.701-2.701V13.502a2.698 2.698 0 0 1 2.701-2.702h30.617a2.704 2.704 0 0 1 2.701 2.701z"/><path fill="#D22F27" stroke="#D22F27" stroke-linejoin="round" stroke-width="2" d="M47.491 11.084h4.646c.673 0 1.224 1.206 1.224 2.701v39.621c-.644 2.878-5.832 2.05-5.832 2.05"/><path fill="#3F3F3F" stroke="#3F3F3F" stroke-linecap="round" stroke-width="2" d="M50.065 22.225v6.08c0 .747-.672 1.35-1.505 1.35H22.77c-.833 0-1.505-.603-1.505-1.35v-6.08h28.8z"/><path fill="#D0CFCE" stroke="#D0CFCE" stroke-linecap="round" stroke-linejoin="round" stroke-width="2" d="M42.345 42.8h-13.41c-.44 0-.84-.1-1.15-.28-.39-.21-.64-.54-.64-.9V18.76c0-.35.24-.67.62-.89.31-.18.72-.29 1.17-.29h13.38l-7.41 8.04-2.09 2.26c-.11.12-.21.24-.29.36-.91 1.23-.91 2.66.01 3.88.08.12.18.24.28.35l2.1 2.27 7.43 8.06zm.181-24.896.02-.032"/><path fill="#D0CFCE" stroke="#D0CFCE" stroke-linecap="round" stroke-linejoin="round" stroke-width="2" d="M42.905 18.47v23.47c0 .29-.18.58-.46.79l-.1.07-7.43-8.06-2.1-2.27c-.1-.11-.2-.23-.28-.35-.92-1.22-.92-2.65-.01-3.88.08-.12.18-.24.29-.36l2.09-2.26 7.41-8.04c.03.02.07.05.11.07.3.22.48.5.48.82z"/><path fill="#EA5A47" d="M50.064 19.14v4.043h-28.8v-4.042c0-.895.673-1.617 1.506-1.617h25.79c.832 0 1.504.722 1.504 1.617z"/><path fill="#D22F27" stroke="#D22F27" stroke-linejoin="round" stroke-width="2" d="M43.315 23.25v-.07m6.75-4.04v4.04h-4.04v-5.66h3.136c.503 0 .904.73.904 1.62z"/><path fill="#FFF" d="M30 60.25V69h11v-8.938"/></g><g fill="none" stroke="#000" stroke-linecap="round" stroke-miterlimit="10" stroke-width="2"><path d="M53.774 13.502v39.62a2.704 2.704 0 0 1-2.701 2.702H20.456a2.698 2.698 0 0 1-2.701-2.701V13.502a2.698 2.698 0 0 1 2.701-2.702h30.617a2.704 2.704 0 0 1 2.701 2.701z"/><path d="M53.774 13.502v39.62a2.704 2.704 0 0 1-2.701 2.702H20.456a2.698 2.698 0 0 1-2.701-2.701V13.502a2.698 2.698 0 0 1 2.701-2.702h30.617a2.704 2.704 0 0 1 2.701 2.701z"/><path d="M22.658 29.653c-.79-.042-1.413-.629-1.413-1.349v-6.079h28.8v6.08c0 .747-.673 1.35-1.505 1.35"/><path d="M50.064 19.14v4.043h-28.8v-4.042c0-.895.673-1.617 1.506-1.617h25.79c.832 0 1.504.722 1.504 1.617z"/><path d="M50.064 19.14v4.043h-28.8v-4.042c0-.895.673-1.617 1.506-1.617h25.79c.832 0 1.504.722 1.504 1.617z"/><path stroke-linejoin="round" d="M30 60.25V69h11v-8.938M34.93 26.73l-2.081 2.226c-.11.12-.211.24-.292.358-.915 1.224-.915 2.647.01 3.86.08.12.181.24.282.349l2.113 2.258 7.475 8.019H28.946c-.443 0-.845-.1-1.157-.279-.393-.209-.644-.537-.644-.895L27 26.594"/><path stroke-linejoin="round" d="M43 26.837v16.107c0 .289-.181.577-.463.786l-.1.07-7.475-8.019-2.113-2.258c-.1-.11-.201-.23-.282-.349-.925-1.213-.925-2.636-.01-3.86.08-.12.181-.238.292-.358l2.103-2.248.041-.045"/></g></svg>