<svg xmlns="http://www.w3.org/2000/svg" viewBox="0 0 72 72"><path fill="#9B9B9A" d="M58.904 56h2.442C63.034 56 64 54.993 64 53.337V10.958H13.04v13.278"/><path fill="#9B9B9A" d="M59 56h2.396C63.053 56 64 54.993 64 53.337V10.958H14v16.154"/><path fill="#9B9B9A" stroke-linecap="round" stroke-linejoin="round" stroke-miterlimit="10" stroke-width="2" d="M59 56h2.396C63.053 56 64 54.993 64 53.337V10.958H14"/><path fill="#D0CFCE" stroke-linecap="round" stroke-linejoin="round" stroke-miterlimit="10" stroke-width="2" d="M9 16h50v40H9z"/><g fill="none" stroke="#000" stroke-linecap="round" stroke-linejoin="round" stroke-miterlimit="10" stroke-width="2"><path d="M59 56h2.396C63.053 56 64 54.993 64 53.337V10.958H14"/><path d="M9 16h50v40H9z"/><path d="M14 27.112h20.004v20.004H14zM14 21.999h40M39.568 28.112H54M39.568 34.479H54M39.568 40.846H54M39.568 47.213H54"/></g></svg>