<svg xmlns="http://www.w3.org/2000/svg" viewBox="0 0 72 72"><g stroke-linecap="round" stroke-linejoin="round" stroke-miterlimit="10" stroke-width="2"><path fill="#9b9b9a" d="M49.79 60H22.21a.836.836 0 0 1-.835-.836v-46.8c0-.461.374-.835.836-.835h27.578c.462 0 .836.374.836.836v46.8a.836.836 0 0 1-.836.835z"/><path fill="#d0cfce" d="M46.057 51.84H25.943a.807.807 0 0 1-.807-.808V17.547c0-.446.361-.807.807-.807h20.114c.446 0 .807.361.807.807v33.485a.807.807 0 0 1-.807.808z"/><path fill="#FFF" d="M31.821 14.233h8.358-8.358z"/></g><path fill="none" stroke="#000" stroke-linecap="round" stroke-linejoin="round" stroke-miterlimit="10" stroke-width="2" d="m60.998 12-5.999 8 5.999 8-5.999 8 .007-.002L61 44l-6.003 7.996L60.991 60M11 60l5.998-8-5.999-8 5.999-8-.007.002L10.997 28 17 20.004 11.006 12M49.79 60H22.21a.836.836 0 0 1-.835-.836v-46.8c0-.461.374-.835.836-.835h27.578c.462 0 .836.374.836.836v46.8a.836.836 0 0 1-.836.835z"/><path fill="none" stroke="#000" stroke-linecap="round" stroke-linejoin="round" stroke-miterlimit="10" stroke-width="2" d="M46.057 51.84H25.943a.807.807 0 0 1-.807-.808V17.547c0-.446.361-.807.807-.807h20.114c.446 0 .807.361.807.807v33.485a.807.807 0 0 1-.807.808z"/><circle cx="36" cy="56.018" r="1.671"/><path fill="none" stroke="#000" stroke-linecap="round" stroke-linejoin="round" stroke-miterlimit="10" stroke-width="2" d="M31.821 14.233h8.358-8.358z"/></svg>