<svg xmlns="http://www.w3.org/2000/svg" viewBox="0 0 72 72"><circle cx="33.852" cy="37.591" r="5" fill="#D0CFCE"/><path fill="#3F3F3F" d="M33.852 27.59c-2.102 0-5.015 1.465-6.55 2.677 0 0 .967 1.295.642 1.623-.327.327-1.325.369-1.325.369-1.105 1.494-2.43 3.335-2.43 5.332 0 4.963 4.998 10.298 9.961 10.298s9.702-5.335 9.702-10.298-5.037-10-10-10zm0 16c-3.308 0-6-2.69-6-6s2.692-6 6-6 6 2.692 6 6c0 3.31-2.69 6-6 6z"/><path fill="#FFF" d="M11.518 21.918h-.383v2.294l1.314-1.529zm46.142 0h-.73c.28 0 .552.029.816.08l-.085-.08z"/><path fill="#9B9B9A" d="M12.126 32.197h-.256l.06.04c.065-.014.126-.04.196-.04z"/><path fill="#FFF" d="m27.532 31.642-6.13-3.693-2.652 4.758c2.371 2.232 7.42-.465 7.856-.414l.926-.651zm18.971 2.319c.173.14.384.236.623.236h.026a.986.986 0 0 1-.649-.253v.017zm-17.649-1.667v-.002zm.613-10.376H24.76l-2.279 1.344 4.337 6.975.566.742c1.134-.897 4.641-2.405 4.212-2.258-.519.176 2.61-1.007 3.83-1.007 4.144 0 6.385 3.43 6.385 3.43-.005-.01 1.187 1.729 1.183 1.718 0 0 3.68-.57 3.508-.429v.018c.176-.153 1.505.411 1.756.411l12.089-.271-.978-8.538c0-1.137-30.456-2.135-29.903-2.135zm-.543 9.822c-.005-.033-.009-.065-.017-.098.008.032.012.065.017.098zm.009.19c-.001.037 0 .075-.007.113.006-.038.006-.075.007-.114zm-16.807.267zm.642.248c-.04-.035-.087-.056-.13-.084.043.027.09.05.13.084z"/><path fill="#FFF" d="m16.561 32.672-.772-5.477-4.654 1.803v4.128h.005c.033-.448.459.681.887.591l2.679-.59s.54-.456 1.855-.455z"/><path fill="#FFF" d="m13.126 33.04-.037-.025c-.004-.024-.018-.044-.024-.067.015.06.042.115.047.178h.014v-.087zm-.15-.333c-.015-.026-.035-.046-.052-.071.017.024.037.045.052.071z"/><path fill="#9B9B9A" d="M59.074 51.738c.031-.015 1.004-1.113 1-4.398-.005-5.078 0-15.017 0-15.017s-13.5-.126-12.948-.126h-3.69l.014.035c.22.391-.769.579-.598.998 0 0 1.25 2.394 1 5.566-.25 3.172-2.892 6.752-5.564 8.102-2.441 1.232-2.19.99-4.931.693-2.742-.297-4.784-.847-6.214-2.277-.08-.081-1.204-2.117-1.766-3.015-1.272-2.033-1.228-3.62-1.188-4.708.046-1.239.796-1.784 1.06-2.802.309-1.198 1.307-2.424 1.37-2.53.074-.128-2.918-.04-6.104-.053l-5.188-.01-2.201.001h-1c.129 0-.278 18.333 0 18.365.287.033 2.462 1.832 3.987 1.85 10.155.119 42.928-.659 42.961-.674z"/><path fill="#F1B31C" d="M17.142 37.59s3.591-9.343 3.874-9.445c.285-.104 5.875 2.432 5.875 2.432s-4.522-7.403-4.456-7.664c.065-.261 7.738-4.89 7.738-4.89l-8.744 2.071c-.283.077-.738-.097-.766-.39l-1.709-8.196-2.69 8.07c-.084.27-7.934-2.136-7.934-2.136l5.544 5.118c.208.17-6.17 7.67-6.17 7.67l7.556-3.036c.148-.08 1.882 10.397 1.882 10.397z"/><g fill="none" stroke="#000" stroke-linecap="round" stroke-linejoin="round" stroke-miterlimit="10" stroke-width="2"><path d="M12.126 33.197v16.004c0 1.691 1.407 3.063 3.144 3.063h41.66c1.737 0 3.144-1.372 3.144-3.063V25.98c0-1.691-1.407-3.062-3.144-3.062H29.467m17.685 10.279h12.466"/><path d="M30.614 28.127a9.987 9.987 0 0 1 3.238-.536c5.523 0 10 4.477 10 10 0 5.522-4.477 10-10 10-5.522 0-10-4.478-10-10 0-1.029.156-2.021.444-2.955"/><circle cx="33.852" cy="37.591" r="5"/><path d="m13.874 22.56-8.263 9.613 10.124-5.476 1.34 12.332 3.945-11.31 6.924 4.17-5.51-8.976L31.89 17.4l-11.613 3.18-1.042-10.673-3.127 10.179-10.496-4.312z"/></g></svg>