<svg xmlns="http://www.w3.org/2000/svg" viewBox="0 0 72 72"><path fill="#fcea2b" d="M37.48 34.315v17.694H10.561V34.315H37.48"/><path fill="#f1b31c" d="M37.48 34.365 23.879 51.878h13.672l-.071-17.513z"/><path fill="none" stroke="#9b9b9a" stroke-linejoin="round" stroke-width="3.625" d="M14.907 33.812c0-6.652 2.187-13.686 8.936-13.686 6.872 0 9.074 5.558 9.349 13.686"/><path fill="#d0cfce" stroke="#d0cfce" stroke-linecap="round" stroke-linejoin="round" stroke-width="1.563" d="m42.923 41.776-2.881 4.84-5.341 1.257-.581-4.984 3.977-4.15"/><path fill="#9b9b9a" d="m61.44 17.03-2.188-1.35-2.16-1.386s-7.148 5.727-11.397 11.742a109.015 109.015 0 0 0-7.93 12.493l2.828 1.78 2.659 1.674a138.853 138.853 0 0 0 10.09-11.135 63.418 63.418 0 0 0 8.097-13.817z"/><path fill="#3f3f3f" d="M43.3 29.772a60.702 60.702 0 0 0-5.627 8.7l2.828 1.78 2.659 1.673a63.87 63.87 0 0 0 7.176-7.724z"/><g fill="none" stroke="#000" stroke-linejoin="round" stroke-width="2"><path d="M13.697 34.307c0-7.532 2.924-15.258 10.12-15.258 6.898 0 10.274 6.055 10.585 15.258"/><path stroke-linecap="round" d="M37.48 50.39v1.554H10.561V34.3H37.48"/><path stroke-linecap="round" d="m41.799 44.313-1.686 2.293-5.412 1.267-.595-5.048 1.757-2.303m1.225 4.18-1.686 2.293M61.44 17.03l-2.188-1.35-2.16-1.386s-7.148 5.727-11.397 11.742a109.015 109.015 0 0 0-7.93 12.493l2.828 1.78 2.659 1.674a138.853 138.853 0 0 0 10.09-11.135 63.418 63.418 0 0 0 8.097-13.817z"/><path d="m43.208 29.643 7.405 4.658"/></g></svg>