<svg xmlns="http://www.w3.org/2000/svg" viewBox="0 0 72 72"><path fill="#D0CFCE" stroke="#D0CFCE" stroke-linecap="round" stroke-linejoin="round" stroke-miterlimit="10" stroke-width="2" d="M14.196 35.652c-.2-7.666 5.579-16.384 12.452-16.6 6.93-.219 14.414 10.252 12.41 17.173h-3.183s.79-7.133-2.234-10.144c-1.542-1.536-4.55-4.3-7.48-3.869-1.977.291-6.392 2.807-7.31 4.581-1.028 1.984-1.17 8.859-1.17 8.859h-3.485z"/><path fill="#FCEA2B" d="M41.698 36.361h1.63v23.372H10.283V36.36h1.63z"/><path fill="#F1B31C" d="M42.941 36.532 26.62 59.578h16.79z"/><path fill="#F4AA41" d="M55.94 32.583c3.583-1.818 6.069-5.786 6.069-10.389 0-6.321-4.69-11.446-10.473-11.446s-10.474 5.125-10.474 11.446c0 5.112 3.1 10.046 7.358 10.62"/><path fill="#F4AA41" stroke="#F4AA41" stroke-linecap="round" stroke-linejoin="round" stroke-miterlimit="10" stroke-width="2" d="m56.027 32.35-.011 3.076.156 20.725-4.502 4.501-4.66-4.66 2.883-2.883-3.157-3.157 3.641-3.642-3.14-3.14.014-2.976 2.71-2.71-1.242-1.241v-3.894"/><path fill="#E27022" d="m53.544 57.09 1.2-1.202-.219-19.827-1.214.013z"/><ellipse cx="51.535" cy="18.109" fill="#E27022" rx="3.521" ry="3.521" transform="rotate(-45.001 51.535 18.11)"/><g fill="none" stroke="#000" stroke-linecap="round" stroke-linejoin="round" stroke-miterlimit="10" stroke-width="2"><path d="M39.467 33.42c.581-8.034-5.889-14.587-12.82-14.369-6.872.217-12.45 7.083-12.45 14.37m27.501 2.899h1.63v23.372H10.283V36.32h1.63z"/><path d="M17.825 33.42c0-5.509 3.979-10.7 8.88-10.864 4.944-.165 9.559 4.79 9.144 10.864m20.176 2.606.257 20.446-4.561 4.56-4.766-4.765 2.921-2.921-3.228-3.228 3.69-3.69-3.212-3.211v-3.03l2.745-2.745-1.27-1.27"/><ellipse cx="51.535" cy="18.109" rx="3.521" ry="3.521" transform="rotate(-45.001 51.535 18.11)"/><path d="M56.017 31.636c3.57-1.769 6.027-5.59 5.993-10-.046-6.057-4.772-10.932-10.556-10.888-5.784.044-10.435 4.99-10.39 11.047.038 4.898 3.134 9.022 7.376 10.399"/></g></svg>