<svg xmlns="http://www.w3.org/2000/svg" viewBox="0 0 72 72"><path fill="#FCEA2B" d="M53 32.297h1.875v26.875h-38V32.297h1.875z"/><path fill="#F1B31C" d="M54.43 32.493 35.66 58.994h19.308z"/><path fill="#D0CFCE" stroke="#D0CFCE" stroke-linejoin="round" stroke-miterlimit="10" stroke-width="2" d="m46.064 31.817.21-2.902c.477-6.985-4.83-12.683-10.514-12.494-4.672.156-8.616 4.285-9.828 9.301l-4.05-.902c1.661-6.692 7.218-12.221 13.811-12.428 7.97-.251 15.41 7.284 14.742 16.523l-.243 2.902"/><path fill="none" stroke="#000" stroke-linecap="round" stroke-linejoin="round" stroke-miterlimit="10" stroke-width="2" d="M53 32.25h1.875v26.875h-38V32.25h1.875zm-6.726-3.335c.477-6.986-4.83-12.683-10.514-12.494-4.672.156-8.616 4.285-9.828 9.301l-4.05-.902c1.661-6.692 7.218-12.221 13.811-12.428 7.97-.251 15.41 7.284 14.742 16.523"/></svg>