<svg xmlns="http://www.w3.org/2000/svg" viewBox="0 0 72 72"><path fill="#d0cfce" stroke-linejoin="round" stroke-miterlimit="10" stroke-width="2" d="M59.035 60h-46.07a.968.968 0 01-.965-.965v-46.07c0-.53.434-.965.965-.965h46.07c.53 0 .965.434.965.965v46.07c0 .53-.434.965-.965.965z"/><g fill="none" stroke="#000" stroke-linejoin="round" stroke-miterlimit="10" stroke-width="2"><path d="M59.035 60h-46.07a.968.968 0 01-.965-.965v-46.07c0-.53.434-.965.965-.965h46.07c.53 0 .965.434.965.965v46.07c0 .53-.434.965-.965.965z"/><path stroke-linecap="round" d="M32.91 48.606a2.49 2.49 0 01-1.658.629h0a2.5 2.5 0 01-2.5-2.5v-2 2-2a2.5 2.5 0 012.5-2.5h0a2.49 2.49 0 011.659.63M42.474 49.235h0a2.5 2.5 0 01-2.5-2.5v-2a2.5 2.5 0 012.5-2.5h0a2.5 2.5 0 012.5 2.5v2a2.5 2.5 0 01-2.5 2.5zM44.974 46.265v-9M42.474 32.485h0a2.5 2.5 0 002.5-2.5v-2a2.5 2.5 0 00-2.5-2.5h0a2.5 2.5 0 00-2.5 2.5v2a2.5 2.5 0 002.5 2.5zM39.974 29.515v-9M28.026 30.693h0c0 .99.852 1.792 1.903 1.792h1.523c1.051 0 1.904-.802 1.904-1.792h0c0-.99-.852-1.791-1.904-1.791H29.93c-1.051 0-1.903.802-1.903 1.791z"/><path stroke-linecap="round" d="M28.429 26.256c.418-.563 1.162-.938 2.01-.938h.83c1.308 0 2.368.892 2.368 1.991h0v5.176"/></g></svg>