<svg xmlns="http://www.w3.org/2000/svg" viewBox="0 0 72 72"><path fill="#D0CFCE" d="M41 64.905v-28.41l1.367-.523c4.079-1.561 7.001-5.246 7.633-9.623.601-4.269-.45-7.56-3-10.146 0 0-1.393-1.413-3.597-2.47-.653-.314-1.403.196-1.403.928v7.63l-2 3.044h-7l-2-3.044v-7.63c0-.732-.75-1.242-1.403-.928C27.393 14.79 26 16.203 26 16.203c-2.55 2.587-3.601 5.877-3 10.146l.015.107c.65 4.392 3.72 8.024 7.815 9.592l1.17.447v28.41"/><path fill="none" stroke="#000" stroke-linecap="round" stroke-linejoin="round" stroke-miterlimit="10" stroke-width="2" d="M41 63.906v-28l1.367-.515A11.995 11.995 0 0 0 50 25.906v0c.601-4.207-.45-7.45-3-10 0 0-1.393-1.392-3.597-2.435-.653-.308-1.403.194-1.403.916v7.52l-2 3h-7l-2-3v-7.52c0-.722-.75-1.224-1.403-.916C27.393 14.514 26 15.906 26 15.906c-2.55 2.55-3.601 5.793-3 10l.015.106c.65 4.328 3.72 7.908 7.815 9.453l1.17.441v28"/></svg>