<svg xmlns="http://www.w3.org/2000/svg" viewBox="0 0 72 72"><path fill="#a57939" d="M37.877 21.43l-.029 22.122 1.202 3.623-.025 15.706-1.208.002-3.624.006-1.209.002.025-15.706 1.214-3.627.029-22.122 3.625-.006z"/><path fill="#9b9b9a" d="M29.703 11.6v9.9h12.728v-5.658s8.486 0 11.314 2.829A15.144 15.144 0 0042.431 11.6a60.523 60.523 0 00-12.727 0z"/><path fill="#d0cfce" d="M25.89 12.479l-.032 8.02a3.336 3.336 0 01-3.701.014l.032-8.02a2.617 2.617 0 013.701-.014z"/><g fill="none" stroke="#000" stroke-linecap="round" stroke-linejoin="round" stroke-width="2"><path d="M37.877 21.5l-.029 22.052 1.202 3.623-.025 15.706-1.208.002-3.624.006-1.209.002.025-15.706 1.214-3.627.029-22.058h3.625zM29.703 11.6v9.9h12.728v-5.658s8.486 0 11.314 2.829A15.144 15.144 0 0042.431 11.6a60.523 60.523 0 00-12.727 0zM25.89 12.479l-.032 8.02h0a3.336 3.336 0 01-3.701.014h0l.032-8.02h0a2.617 2.617 0 013.701-.014z"/></g></svg>