<svg xmlns="http://www.w3.org/2000/svg" viewBox="0 0 72 72"><path fill="#9b9b9a" d="M36.804 28.439l7.127 7.058 3.03-3.03-7.092-7.093-3.065 3.065z"/><path fill="#d0cfce" d="M42.743 11.987L59.677 28.92l-8.13 8.13-16.935-16.933zM32.174 33.07l7.695-7.696 7.092 7.093-27.546 27.546-7.093-7.092L32.174 33.07"/><path fill="#9b9b9a" d="M33.007 32.236l7.092 7.093-1.36 1.36-7.093-7.092zM23.484 41.758l7.093 7.092-1.36 1.36-7.093-7.091zM21.444 43.8l7.092 7.092-1.36 1.36-7.093-7.092zM19.403 45.84l7.093 7.092-1.36 1.36-7.093-7.092z"/><path fill="#d0cfce" d="M26.723 31.428l14.185 14.185-5.32 5.32-14.185-14.185z"/><g><g fill="none" stroke="#000" stroke-linecap="round" stroke-linejoin="round" stroke-width="2"><path d="M42.743 11.987L59.677 28.92l-8.13 8.13-16.935-16.933zM32.755 32.488l7.114-7.114 7.092 7.093-7.078 7.079M29.642 49.786l-9.086 9.087-2.029.253-5.352-5.352-.001-1.705 9.201-9.201M26.723 31.428l14.185 14.185-5.32 5.32-14.185-14.185z"/></g></g></svg>