<svg xmlns="http://www.w3.org/2000/svg" viewBox="0 0 72 72"><path fill="#3F3F3F" d="m50.1 55.5-2.8-2.8c-.2-.2-.5-.3-.8-.3l-23.4-1.9c-.3 0-1.5 1.3-1.7 1.5l-2.5 2.4"/><path fill="#3F3F3F" d="m19.9 53.4-5.7 5.3c-.7.7.5 2.6 1.5 2.6h39.5c1 0 1.5-1.2.8-1.9l-8.6-8.2"/><circle cx="36" cy="32.8" r="22.2" fill="#B399C8"/><path fill="#8967AA" d="M58.2 33c0 12.3-9.7 22.1-22 22.1 11.6-8 14.8-16.8 14.4-24.5 0-.3 0-.5-.1-.8-.2-1.7-.5-3.4-1.1-5-.1-.2-.1-.4-.2-.6-.7-2-1.7-3.8-2.7-5.4-.2-.3-.3-.5-.5-.7-.6-.9-1.3-1.8-2.1-2.5-.2-.2-.3-.4-.5-.5l-.6-.6c-.2-.2-.4-.3-.6-.5l-.3-.3c-.2-.2-.4-.3-.5-.4-.8-.6-1.7-1.2-2.5-1.6-.1-.1-.3-.1-.4-.2-.3-.1-.7-.3-1-.4-.2-.1-.4-.1-.5-.1h-.6.1c12.1.1 21.7 9.9 21.7 22z"/><path fill="none" stroke="#FFF" stroke-linecap="round" stroke-linejoin="round" stroke-miterlimit="10" stroke-width="2" d="M19.4 30.7c.1-.5.2-1.1.3-1.6m1.7-4.5c1.5-2.7 3.6-4.9 6.2-6.4"/><path d="M48.7 50.8c.1 0 .2.1.3.2l2.8 2.8 2.1 2.1 2.8 2.8c.7.7-.5 2.6-1.5 2.6h-13v-7.2"/><g fill="none" stroke="#000" stroke-linecap="round" stroke-miterlimit="10" stroke-width="2"><circle cx="36" cy="32.8" r="22.2" stroke-linejoin="round"/><circle cx="36" cy="32.8" r="22.2" stroke-linejoin="round"/><path d="m18 56.6-3 2.8c-.7.7-.3 1.9.8 1.9h39.5c1 0 1.5-1.2.8-1.9l-2.8-2.8"/><path stroke-linejoin="round" d="m53.2 56.6 2.8 2.8c.7.7.2 1.9-.8 1.9"/></g></svg>