<svg xmlns="http://www.w3.org/2000/svg" viewBox="0 0 72 72"><g stroke-miterlimit="10" stroke-width="2"><path fill="#F4AA41" d="M52 33.78V60H18V33.78a1 1 0 01.408-.805L34.38 21.23a.946.946 0 011.238 0l15.973 11.744a1 1 0 01.408.806z"/><path fill="#F4AA41" stroke-linecap="round" stroke-linejoin="round" d="M8 39h10v21H8zM52 39h10v21H52z"/><path fill="#A57939" stroke-linecap="round" stroke-linejoin="round" d="M39 60h-8v-6a3 3 0 013-3h2a3 3 0 013 3v6z"/><path fill="#3F3F3F" stroke-linecap="round" stroke-linejoin="round" d="M57 30l-5 9h10zM13 30l-5 9h10z"/><path fill="#FFF" stroke-linecap="round" stroke-linejoin="round" d="M35 27l-8.66 15h17.32z"/><path fill="#D0CFCE" stroke-linecap="round" stroke-linejoin="round" d="M35 47l8.66-15H26.34z"/><path fill="#D0CFCE" stroke-linecap="round" stroke-linejoin="round" d="M35 27l-8.66 15h17.32z"/></g><g fill="none" stroke="#000" stroke-miterlimit="10" stroke-width="2"><path d="M52 33.78V60H18V33.78a1 1 0 01.408-.805L34.38 21.23a.946.946 0 011.238 0l15.973 11.744a1 1 0 01.408.806z"/><path stroke-linecap="round" stroke-linejoin="round" d="M8 39h10v21H8zM52 39h10v21H52zM39 60h-8v-6a3 3 0 013-3h2a3 3 0 013 3v6z"/><path stroke-linecap="round" stroke-linejoin="round" d="M14 47h-2v-3a1 1 0 011-1h0M58 47h-2v-3a1 1 0 011-1h0M35 60v-9M57 30l-5 9h10zM13 30l-5 9h10zM35 27l-8.66 15h17.32z"/><path stroke-linecap="round" stroke-linejoin="round" d="M35 47l8.66-15H26.34z"/><path stroke-linecap="round" stroke-linejoin="round" d="M35 27l-8.66 15h17.32z"/><path stroke-linecap="round" stroke-linejoin="round" d="M35 47l8.66-15H26.34z"/></g></svg>