<svg xmlns="http://www.w3.org/2000/svg" viewBox="0 0 72 72"><path fill="#6a462f" d="M12.503 37.557a6 6 0 0 0 .676 4.714 1.68 1.68 0 0 0 2.882 0c1.125-2.505 1.843-6.517-1.65-7.526a1.71 1.71 0 0 0-1.884.767c-1.423 2.156-1.351 6.047 1.233 7.154a1.74 1.74 0 0 0 2.284-.6c1.448-1.997 1.638-7.486-1.88-7.576-3.268-.084-3.53 5.601-2.084 7.536a1.728 1.728 0 0 0 1.885.767c6.469-2.086-4.074-14.646-4.55-3.23l3.279-.443q-.462-3.156-.977-6.302l-2.451 1.885c3.191 1.502 5.018-.157 8.069-1.216a1.67 1.67 0 0 0-.888-3.219l-5.112 1.15 1.286 3.05a16.445 16.445 0 0 1 5.313-2.025l-2.112-1.609a20.298 20.298 0 0 0 .942 8.511l3.05-1.286-2.313-4.245a1.683 1.683 0 0 0-3.11.842c-.198 5.034 2.562 5.67 5.022 9.47l2.882-1.685-1.622-2.387-1.441 2.512c1.788.138 3.648 3.582 5.175 4.564 2.085 1.34 4.887 1.224 6.842 2.747l1.18-2.85c-4.253-.164-10.123.552-13.53-2.547l-1.18 2.85a37.647 37.647 0 0 1 4.438.788c1.466.318 3.038-1.672 1.624-2.79a20.958 20.958 0 0 0-7.33-3.86c-1.3-.388-2.771 1.25-1.885 2.452a10.018 10.018 0 0 0 4.386 3.621c1.4.61 3.262-.727 2.283-2.283a10.302 10.302 0 0 0-5.041-4.418 1.694 1.694 0 0 0-2.511 1.441 4.645 4.645 0 0 0 2.687 4.667 1.687 1.687 0 0 0 2.452-.997 7.475 7.475 0 0 0-1.116-6.392c-.696-1.063-2.829-1.134-3.05.398a14.198 14.198 0 0 0 .155 5.415c.33 1.53 2.99 1.653 3.22 0a12.782 12.782 0 0 0-1.036-7.627 1.693 1.693 0 0 0-2.284-.6c-2.253 1.168-2.411 4.085-2.775 6.362h3.219c-.938-2.809-1.475-5.686-3.557-7.84a1.682 1.682 0 0 0-2.79.736c-1.069 4.873 1.393 10.62-.403 15.188a1.677 1.677 0 0 0 1.61 2.113 34.23 34.23 0 0 1 9.791.793 1.677 1.677 0 0 0 1.286-3.05 118.226 118.226 0 0 1-7.514-4.732l-.843 3.11a35.624 35.624 0 0 0 4.68.304 1.685 1.685 0 0 0 1.441-2.511c-1.14-1.998-4.155-4.552-6.264-2.284-1.86 2-.089 5.594 1.952 6.75a1.722 1.722 0 0 0 2.023-.26c2.853-2.506-1.024-6.174-3.192-7.598a1.684 1.684 0 0 0-2.452.997c-.815 2.813-.316 7.05 3.214 7.419a1.672 1.672 0 0 0 1.44-.827c1.512-2.16-.421-5.297-1.53-7.224l-2.283 2.284c4.372 2.758 8.597 5.083 13.852 5.34 1.896.092 2.244-2.796.444-3.279a43.518 43.518 0 0 0-9.331-1.447c-1.845-.088-2.321 2.975-.444 3.279a129.37 129.37 0 0 0 28.295 1.487v-3.338l-22.284 2.089a1.67 1.67 0 0 0 0 3.338c6.69.717 13.44 1.442 20.168.804 3.053-.29 6.062-.987 9.145-.856 3.463.147 6.743.877 10.23.594a1.7 1.7 0 0 0 1.61-2.112 49.385 49.385 0 0 1-1.023-10.988c.061-2.4 1.498-6.209.824-8.465-1.076-3.602-6.188-1.166-8.477-3.319l-1.18 2.85c1.211.157 1.119-1.166.312.184-.191.32-.855.9-1.097 1.229-1.31 1.784-1.788 4.075-2.897 5.972-3.484 5.964-9.884 8.474-16.57 7.698v3.338l13.497 1.285c2.877.274 5.34 1.071 7.688-.75 1.11-.862.27-2.382-.736-2.79l-2.9-1.176.398 3.05 1.26-.655c1.624-.843.644-2.931-.842-3.11a8.03 8.03 0 0 0-5.386 1.088c-1.9 1.022-.222 3.852 1.685 2.882a5.84 5.84 0 0 0 2.723-2.649 1.69 1.69 0 0 0-1.885-2.451l-.947.171 1.624 2.79a77.715 77.715 0 0 0 4.913-4.148l-2.621-2.023-.857 1.802 3.05 1.287c1.116-3.943 2.274-7.637 5.364-10.507l-2.85-1.18c.152 4.227.768 8.764.466 12.99-.33 4.612-.786-.983-.765-1.589a54.897 54.897 0 0 1 1.206-7.377l-3.278-.444.329 12.661 3.11-.842a4.62 4.62 0 0 0-4.972-2.648l1.18 2.849 2.142-2.08c.96-.933.302-3.011-1.18-2.85a19.612 19.612 0 0 0-3.725.669c-2.075.548-1.195 3.769.888 3.219l2.837-.55-1.18-2.849-2.141 2.08c-.96.932-.303 3.015 1.18 2.85l2.089.994a1.682 1.682 0 0 0 3.11-.842l-.329-12.661c-.046-1.799-2.938-2.369-3.278-.444-.608 3.44-3.899 15.354 2.936 15.338a3.184 3.184 0 0 0 3.124-2.512c.652-2.284-.026-5.258-.11-7.612l-.3-8.35a1.69 1.69 0 0 0-2.85-1.18c-3.5 3.252-4.95 7.481-6.22 11.98-.502 1.77 2.22 3.031 3.05 1.285l.856-1.802a1.677 1.677 0 0 0-2.621-2.023 77.632 77.632 0 0 1-4.913 4.149c-1.457 1.13.19 3.05 1.624 2.79l.947-.172-1.885-2.452-1.526 1.451 1.685 2.882 3.7-.631-.842-3.11-1.26.655c-1.408.731-.82 2.557.398 3.05l2.901 1.176-.736-2.79c-1.446 1.12-7.166-.403-8.928-.57l-9.897-.943c-2.152-.205-2.099 3.094 0 3.338a19.574 19.574 0 0 0 20.444-11.304 26.65 26.65 0 0 1 3.31-5.17 3.362 3.362 0 0 0 1.006-1.78c.238-2.463-2.667-3.265-4.508-3.504-1.469-.19-2.156 1.931-1.18 2.85a7.462 7.462 0 0 0 4.296 2.022c2.606.581 3.016.107 2.688 2.985a52.346 52.346 0 0 0 .833 16.29l1.61-2.113c-3.19.259-6.205-.29-9.375-.522-3.439-.251-6.588.45-10 .784-6.722.656-13.485-.087-20.168-.804v3.338l22.283-2.089c2.105-.197 2.17-3.464 0-3.338a125.277 125.277 0 0 1-27.407-1.368l-.444 3.279a39.476 39.476 0 0 1 8.443 1.327l.444-3.278c-4.633-.226-8.357-2.48-12.167-4.884a1.682 1.682 0 0 0-2.283 2.284q.806 2.974 2.977-.166l-2.452.997a31.708 31.708 0 0 1 2.516 2.355l2.023-.26-.255.1 1.441-2.512a35.607 35.607 0 0 1-4.68-.304c-1.796-.234-2.049 2.286-.842 3.11a118.24 118.24 0 0 0 7.514 4.732l1.286-3.051a37.333 37.333 0 0 0-10.679-.913l1.61 2.113c1.862-4.735-.689-10.211.403-15.188l-2.79.736c1.573 1.629 2.004 4.29 2.698 6.368.472 1.412 2.939 1.754 3.219 0 .126-.788.403-3.932 1.24-4.366l-2.283-.599.7 5.055h3.218l-.155-3.64-3.05.399.778 3.82 2.452-.998-1.034-1.785-2.512 1.441a6.405 6.405 0 0 1 3.844 3.221l2.284-2.284a5.986 5.986 0 0 1-3.188-2.423l-1.885 2.453a16.791 16.791 0 0 1 5.857 3l1.624-2.79a64.22 64.22 0 0 0-5.325-.907c-1.453-.19-2.18 1.941-1.18 2.85 4.302 3.912 10.449 3.313 15.89 3.524 1.34.052 2.343-1.943 1.18-2.849-2.66-2.07-6.184-1.932-8.643-4.241-1.967-1.848-2.885-3.826-5.735-4.047a1.679 1.679 0 0 0-1.441 2.511l1.622 2.387c1.197 1.76 4.06.133 2.882-1.685-1.717-2.653-4.708-4.175-4.566-7.785l-3.11.843 2.313 4.245a1.676 1.676 0 0 0 3.051-1.286 18.177 18.177 0 0 1-.823-7.624c.11-1.155-1.149-1.804-2.113-1.61a18.684 18.684 0 0 0-6.11 2.362 1.677 1.677 0 0 0 1.286 3.05l5.112-1.15-.887-3.219c-1.431.497-4.113 2.205-5.497 1.553a1.694 1.694 0 0 0-2.452 1.885q.515 3.147.976 6.302c.282 1.931 3.204 1.349 3.278-.444l.324.01 1.885.768-1.8.04 2.283-.598-.036-2.587-1.885.767-.345 2.623h2.882l-.34-2.143c.435-2.096-2.782-2.992-3.218-.887z"/><path fill="#6a462f" d="M45.476 46.81a2.366 2.366 0 0 0-1.561 1.837 1.7 1.7 0 0 0 .767 1.885c2.052 1.136 4.644-.603 6.3-1.787l-2.023-2.621a3.283 3.283 0 0 0 1.013 5.503c3.297 1.496 7.874-.951 10.803 1.246l.842-3.11c1.428-.08.731-9.547.73-10.973l-3.278.443a19.952 19.952 0 0 1 1.092 8.765c-.196 2.138 3.144 2.125 3.338 0a22.292 22.292 0 0 0-1.211-9.652c-.607-1.715-3.28-1.525-3.279.444.002 3.767-.342 7.733.007 11.485.146 1.576.823 2.925 2.601 2.826a1.685 1.685 0 0 0 .843-3.11 6.98 6.98 0 0 0-4.261-1.282c-.945-.034-1.896.055-2.84.076-.47.01-3.974-.358-4.039-.3 1.397-1.24-.47-3.733-2.023-2.622-.271.194-2.664 1.935-2.93 1.787l.767 1.885.028.158c1.942-.916.25-3.795-1.685-2.882zm6.413-14.045a39.881 39.881 0 0 1-.06 4.052 1.67 1.67 0 0 0 3.338 0 39.882 39.882 0 0 0 .06-4.052c-.077-2.141-3.416-2.152-3.338 0z"/><path fill="none" stroke="#6a462f" stroke-linejoin="round" stroke-width="2.456" d="M5 53h61"/><path fill="#d0cfce" stroke="#9b9b9a" stroke-linecap="round" stroke-linejoin="round" stroke-width="2.346" d="M35.845 32.064h8.901"/><path fill="none" stroke="#000" stroke-linecap="round" stroke-linejoin="round" stroke-width="2.225" d="M63.662 32.064v22.253H8.027V32.064m0 0s9.135-2.571 11.127-4.451m33.381 0c2.119 2.118 11.127 4.45 11.127 4.45"/><path fill="none" stroke="#000" stroke-linecap="round" stroke-linejoin="round" stroke-width="2.346" d="M35.845 30.951v-7.789m0 7.789h8.901"/><path fill="none" stroke="#fff" stroke-miterlimit="10" stroke-width="4.451" d="m21.38 22.049 13.352 24.48"/><g fill="none" stroke="#000" stroke-linecap="round" stroke-linejoin="round"><circle cx="35.845" cy="30.951" r="16.69" stroke-width="2.302"/><circle cx="35.845" cy="30.951" r="16.69" stroke-width="2.302"/><path stroke-width="2.092" d="M6 50.867h60v4.451H6z"/></g></svg>