<svg xmlns="http://www.w3.org/2000/svg" viewBox="0 0 72 72"><path fill="#d0cfce" d="M22.08 21.58s8.815-1.028 13.74-5.069c0 0 11.09 6.391 13.88 5.289 0 0 2.792 13.74 5.73 13.96 0 0-5.436 13-4.775 13.66 0 0-13.44 2.424-14.62 6.244 0 0-8.228-7.934-14.1-5.583 0 0-3.232-13.08-5.73-13.59 0 0 7.199-12.86 5.877-14.91z"/><g fill="none" stroke="#000" stroke-linecap="round" stroke-linejoin="round" stroke-miterlimit="10" stroke-width="2"><path d="M8.112 36H63.89M36 8.112V63.89m19.72-47.61L16.28 55.72m39.44 0L16.28 16.28m19.86 39.6s-6.289-6.553-14.69-5.373c0 0 .191-9.123-5.838-14.25 0 0 6.442-6.65 5.997-14.67 0 0 9.38-.112 14.32-6.1 0 0 6.289 6.553 14.31 6.108 0 0 .112 9.38 6.214 14.68 0 0-6.44 6.649-5.995 14.09 0 0-9.38-.469-14.32 5.519z"/><path d="M49.25 35.48s-3.624 4.594-3.49 9.856c0 0-6.702.507-10.04 3.803 0 0-3.846-3.97-9.214-3.803 0 0-.909-6.074-4.256-9.612 0 0 4.338-4.547 4.091-9.856 0 0 6.501-.124 10.12-4.052 0 0 3.352 4.093 9.297 4.052 0 0 .142 6.365 3.49 9.612z"/></g></svg>