<svg xmlns="http://www.w3.org/2000/svg" viewBox="0 0 72 72"><path fill="#a57939" d="M53.063 58.5s3.62-12.218-9.972-13c-3.031 1.85-5.628 3.127-8.547 3.122h.119c-2.92.005-5.516-1.273-8.547-3.122-11.397 0-9.497 13-9.497 13"/><path fill="#d0cfce" d="M37.662 58.919h-6.053v-7.514l-3-3.435h11.513l-2.46 3.383v7.566z"/><path fill="#6a462f" d="m43.771 44.48-5.89 7.35c5.97-4.93 6.33 4.28 6.33 4.28l8.93-7.08c-1.24-2.76-3.81-5.19-9-5.19-.19.12-.37.24-.55.36zm-17.925.06 5.89 7.35c-5.97-4.93-6.33 3.48-6.33 3.48L17.216 49h-.01c1.36-2.45 3.92-4.46 8.64-4.46z"/><circle cx="53.765" cy="45.505" r="5" fill="#d0cfce"/><path fill="#fff" d="m53.796 40.204 3.682 6.585a2.794 2.794 0 0 1-1.075 3.802l-.18.101-5.046-9.023"/><path fill="#a57939" d="M24.886 22.07c-.55-.18-.84-.82-1.17-1.25a9.055 9.055 0 0 1 2.54-2.31c.02-.01.05-.03.07-.04a15.182 15.182 0 0 1 8.41-1.89 15.182 15.182 0 0 1 8.41 1.89c.02.01.05.03.07.04a9.055 9.055 0 0 1 2.54 2.31c-.35.46-.65 1.15-1.27 1.28a44.808 44.808 0 0 1-9.51.9h-.48a44.87 44.87 0 0 1-9.51-.9c-.04-.01-.07-.02-.1-.03z"/><path fill="#a57939" d="m43.276 18.406-.06.09c-.02-.01-.05-.03-.07-.04a15.182 15.182 0 0 0-8.41-1.89 15.182 15.182 0 0 0-8.41 1.89c-.02.01-.05.03-.07.04l-.06-.09c1.76-4.76 6.05-9.05 8.54-9.71 2.49.66 6.78 4.95 8.54 9.71z"/><path fill="#6a462f" d="M34.736 8.47c13.63 1.52 13.4 11 11.15 15.53h-.01a16.826 16.826 0 0 0-.59-1.94l-.8-.2c.62-.13.92-.82 1.27-1.28a9.055 9.055 0 0 0-2.54-2.31l.06-.09c-1.76-4.76-6.05-9.05-8.54-9.71zm0 0c-2.49.66-6.78 4.95-8.54 9.71l.06.09a9.055 9.055 0 0 0-2.54 2.31c.33.43.62 1.07 1.17 1.25a16.047 16.047 0 0 0-.86 2.93c-2.61-4.13-3.73-14.68 10.71-16.29z"/><path fill="#6a462f" d="M23 25v7l-1 3-1 3 1 3h4l1.132-1.441L27 38l-2.185-5.168-.114-3.8 1.026-4.652L26 23l-3 2zm24 0v7l1 3 1 3-1 3h-4l-1.132-1.441L43 38l2.185-5.168.114-3.8-1.026-4.652L44 23l3 2z"/><path fill="#c19a65" d="M46.03 25.01a17.644 17.644 0 0 1 .32 3.36c0 7.83-5.08 14.18-11.34 14.18S23.67 36.2 23.67 28.37a16.795 16.795 0 0 1 .33-3.36V25a16.047 16.047 0 0 1 .86-2.93c.03.01.06.02.1.03a44.87 44.87 0 0 0 9.51.9h.48a44.808 44.808 0 0 0 9.51-.9l.8.2a16.826 16.826 0 0 1 .59 1.94c.07.25.13.51.18.77zm-5.02 2a2 2 0 1 0-2 2 2.006 2.006 0 0 0 2-2zm-2.55 9.15a.998.998 0 0 0 .44-1.34.988.988 0 0 0-1.34-.45 5.363 5.363 0 0 1-5.1 0 .988.988 0 0 0-1.34.45.998.998 0 0 0 .44 1.34 7.35 7.35 0 0 0 6.9 0zm-5.45-9.15a2 2 0 1 0-2 2 2.006 2.006 0 0 0 2-2z"/><path d="M53.727 58.852a.996.996 0 0 1-.99-1.15 15.384 15.384 0 0 0 .082-2.898 1 1 0 1 1 1.997-.123 17.108 17.108 0 0 1-.102 3.323 1 1 0 0 1-.986.848zm-5.112 1.118a1 1 0 0 1-.933-1.357l3.364-8.798a1 1 0 0 1 1.867.714l-3.364 8.8a.998.998 0 0 1-.934.642zm-9.579-34.974a2 2 0 1 1-2 2 2.006 2.006 0 0 1 2-2zm-.11 9.81a.998.998 0 0 1-.44 1.34 7.35 7.35 0 0 1-6.9 0 .998.998 0 0 1-.44-1.34.988.988 0 0 1 1.34-.45 5.363 5.363 0 0 0 5.1 0 .988.988 0 0 1 1.34.45zm-7.89-9.81a2 2 0 1 1-2 2 2.006 2.006 0 0 1 2-2z"/><path fill="none" stroke="#000" stroke-linecap="round" stroke-linejoin="round" stroke-width="2" d="M24.026 24.986a16.047 16.047 0 0 1 .86-2.93v-.01m20.4.24a16.826 16.826 0 0 1 .59 1.94c.07.25.13.51.18.77a17.644 17.644 0 0 1 .32 3.36c0 7.83-5.08 14.18-11.34 14.18s-11.34-6.35-11.34-14.18a16.795 16.795 0 0 1 .33-3.36"/><path fill="none" stroke="#000" stroke-linecap="round" stroke-linejoin="round" stroke-width="2" d="M34.736 16.566a15.182 15.182 0 0 0-8.41 1.89c-.02.01-.05.03-.07.04a9.055 9.055 0 0 0-2.54 2.31c.33.43.62 1.07 1.17 1.25.03.01.06.02.1.03a44.87 44.87 0 0 0 9.51.9"/><path fill="none" stroke="#000" stroke-linecap="round" stroke-linejoin="round" stroke-width="2" d="M26.196 18.406c1.76-4.76 6.05-9.05 8.54-9.71-14.44 1.61-13.32 12.16-10.71 16.29v.01m10.71-8.43a15.182 15.182 0 0 1 8.41 1.89c.02.01.05.03.07.04a9.055 9.055 0 0 1 2.54 2.31c-.35.46-.65 1.15-1.27 1.28a44.808 44.808 0 0 1-9.51.9"/><path fill="none" stroke="#000" stroke-linecap="round" stroke-linejoin="round" stroke-width="2" d="M43.276 18.406c-1.76-4.76-6.05-9.05-8.54-9.71 13.63 1.52 13.4 11 11.15 15.53m-11.15-15.53v-1.42"/><path d="M37.599 58.97a1 1 0 0 1-1-1v-5.767a1 1 0 0 1 .363-.771c1.991-1.643 3.732-2.15 5.177-1.508 1.542.685 2.233 2.497 2.543 3.907l2.353-1.828a1 1 0 0 1 1.227 1.578l-3.719 2.89a1 1 0 0 1-1.612-.743c-.05-1.088-.51-3.49-1.606-3.977-.611-.269-1.568.06-2.726.935v5.285a1 1 0 0 1-1 1z"/><path fill="none" stroke="#000" stroke-linecap="round" stroke-linejoin="round" stroke-width="2" d="M45.436 45.026a8.117 8.117 0 0 0-1.71-.17c-3.15 2.09-5.86 3.55-8.88 3.59h-.12c-3.02-.04-5.72-1.5-8.88-3.59-4.72 0-7.28 2.01-8.64 4.46-2.1 3.76-1.36 8.54-1.36 8.54"/><path fill="none" stroke="#000" stroke-linecap="round" stroke-linejoin="round" stroke-width="2" d="M31.736 57.966v-5.76c-5.97-4.93-6.33 3.48-6.33 3.48l-8.19-6.37m14.52 2.89-5.89-7.35"/><path d="M37.598 53.203a1 1 0 0 1-.768-1.64l6.127-7.351a1 1 0 0 1 1.537 1.281l-6.127 7.35a.999.999 0 0 1-.77.36zm16.161-1.701a6 6 0 1 1 5.61-3.857 5.958 5.958 0 0 1-5.61 3.857zm.004-10.002a4.01 4.01 0 1 0 1.43.266 4.002 4.002 0 0 0-1.43-.266z"/><path fill="none" stroke="#000" stroke-linecap="round" stroke-linejoin="round" stroke-width="2" d="M27.132 40.046c-2.806 1.58-4.747.733-5.888-.267a1.333 1.333 0 0 1-.15-1.909C23.05 35.75 24 24 24 24m18.759 16.046c2.806 1.58 4.747.733 5.888-.267a1.333 1.333 0 0 0 .15-1.909C46.84 35.75 45.89 24 45.89 24"/></svg>