<svg xmlns="http://www.w3.org/2000/svg" viewBox="0 0 72 72"><path fill="#a57939" d="M55.183 58.854s3.811-14.001-10.5-14.897c-3.191 2.12-5.926 3.584-9 3.577h.125c-3.073.007-5.808-1.458-9-3.577-12 0-10 14.897-10 14.897"/><path fill="#d0cfce" d="M38.662 58.92h-6.053v-7.514l-3-3.436h11.513l-2.46 3.383z"/><path fill="#6a462f" d="M44.771 44.797l-5.89 7.35c5.97-4.93 6.33 4.28 6.33 4.28l8.93-7.08c-1.24-2.76-3.81-5.19-9-5.19-.19.12-.37.24-.55.36l.18.28z"/><circle cx="54.765" cy="45.502" r="5" fill="#d0cfce" transform="rotate(-69.071 54.77 45.503)"/><path fill="#6a462f" d="M35.736 8.696c13.63 1.52 13.4 11 11.15 15.53h-.01c-.16-.67-.36-1.32-.59-1.94l-.8-.2c.62-.13.92-.82 1.27-1.28-.68-.93-1.55-1.69-2.54-2.31l.06-.09c-1.76-4.76-6.05-9.05-8.54-9.71z"/><path fill="#a57939" d="M25.886 22.056c-.55-.18-.84-.82-1.17-1.25.68-.93 1.55-1.69 2.54-2.31.02-.01.05-.03.07-.04 2.36-1.44 5.4-2.01 8.41-1.89 3.01-.12 6.05.45 8.41 1.89.02.01.05.03.07.04.99.62 1.86 1.38 2.54 2.31-.35.46-.65 1.15-1.27 1.28-2.96.62-6.3.94-9.51.9h-.48c-3.2.04-6.55-.28-9.51-.9-.04-.01-.07-.02-.1-.03z"/><path fill="#a57939" d="M44.276 18.406l-.06.09c-.02-.01-.05-.03-.07-.04-2.36-1.44-5.4-2.01-8.41-1.89-3.01-.12-6.05.45-8.41 1.89-.02.01-.05.03-.07.04l-.06-.09c1.76-4.76 6.05-9.05 8.54-9.71 2.49.66 6.78 4.95 8.54 9.71z"/><path fill="#6a462f" d="M35.736 8.696c-2.49.66-6.78 4.95-8.54 9.71l.06.09c-.99.62-1.86 1.38-2.54 2.31.33.43.62 1.07 1.17 1.25-.37.92-.66 1.9-.86 2.93-2.61-4.13-3.73-14.68 10.71-16.29zM26.846 44.856l5.89 7.35c-5.97-4.93-6.33 3.48-6.33 3.48l-8.19-6.37h-.01c1.36-2.45 3.92-4.46 8.64-4.46z"/><path fill="#FFF" d="M54.796 40.204l3.682 6.585a2.794 2.794 0 01-1.075 3.802l-.18.101-5.046-9.023"/><g><path fill="#debb90" stroke="#debb90" d="M47.056 24.996c.21 1.08.32 2.21.32 3.36 0 7.83-5.08 14.18-11.34 14.18s-11.34-6.35-11.34-14.18c0-1.16.11-2.28.33-3.36v-.01c.2-1.03.49-2.01.86-2.93.03.01.06.02.1.03 2.96.62 6.31.94 9.51.9h.48c3.21.04 6.55-.28 9.51-.9l.8.2c.23.62.43 1.27.59 1.94.07.25.13.51.18.77zm-5.02 2c0-1.1-.9-2-2-2s-2 .9-2 2a2 2 0 104 0zm-2.55 9.15c.49-.25.69-.85.44-1.34-.24-.5-.84-.7-1.34-.45-1.72.86-3.39.86-5.1 0a.988.988 0 00-1.34.45.998.998 0 00.44 1.34c1.15.57 2.3.86 3.45.86 1.15 0 2.3-.29 3.45-.86zm-5.45-9.15c0-1.1-.9-2-2-2s-2 .9-2 2a2 2 0 104 0z"/></g><g><path d="M54.727 58.852a1 1 0 01-.99-1.15c.002-.013.184-1.246.082-2.898a1 1 0 011.996-.123c.116 1.88-.092 3.265-.101 3.323a1 1 0 01-.986.848zM49.615 59.97a1.002 1.002 0 01-.933-1.357l3.364-8.798a.999.999 0 111.867.714l-3.364 8.8a.998.998 0 01-.934.642zM40.036 24.996a2 2 0 11.001 4.001 2 2 0 01-.001-4.001zM39.926 34.806c.25.49.05 1.09-.44 1.34-1.15.57-2.3.86-3.45.86-1.15 0-2.3-.29-3.45-.86a.998.998 0 01-.44-1.34c.24-.5.84-.7 1.34-.45 1.71.86 3.38.86 5.1 0 .5-.25 1.1-.05 1.34.45zM32.036 24.996a2 2 0 11.001 4.001 2 2 0 01-.001-4.001z"/><path fill="none" stroke="#000" stroke-linecap="round" stroke-linejoin="round" stroke-miterlimit="10" stroke-width="2" d="M25.026 24.986c.2-1.03.49-2.01.86-2.93v-.01M46.286 22.286c.23.62.43 1.27.59 1.94.07.25.13.51.18.77.21 1.08.32 2.21.32 3.36 0 7.83-5.08 14.18-11.34 14.18s-11.34-6.35-11.34-14.18c0-1.16.11-2.28.33-3.36"/><path fill="none" stroke="#000" stroke-linecap="round" stroke-linejoin="round" stroke-miterlimit="10" stroke-width="2" d="M35.736 16.566c-3.01-.12-6.05.45-8.41 1.89-.02.01-.05.03-.07.04-.99.62-1.86 1.38-2.54 2.31.33.43.62 1.07 1.17 1.25.03.01.06.02.1.03 2.96.62 6.31.94 9.51.9"/><path fill="none" stroke="#000" stroke-linecap="round" stroke-linejoin="round" stroke-miterlimit="10" stroke-width="2" d="M27.196 18.406c1.76-4.76 6.05-9.05 8.54-9.71-14.44 1.61-13.32 12.16-10.71 16.29v.01M35.736 16.566c3.01-.12 6.05.45 8.41 1.89.02.01.05.03.07.04.99.62 1.86 1.38 2.54 2.31-.35.46-.65 1.15-1.27 1.28-2.96.62-6.3.94-9.51.9"/><path fill="none" stroke="#000" stroke-linecap="round" stroke-linejoin="round" stroke-miterlimit="10" stroke-width="2" d="M44.276 18.406c-1.76-4.76-6.05-9.05-8.54-9.71 13.63 1.52 13.4 11 11.15 15.53M35.736 8.696v-1.42"/><path d="M38.599 58.97a1 1 0 01-1-1v-5.767a1 1 0 01.363-.771c1.991-1.643 3.732-2.15 5.177-1.508 1.542.685 2.233 2.497 2.543 3.907l2.353-1.828a.997.997 0 011.403.176.998.998 0 01-.176 1.402l-3.719 2.89a1 1 0 01-1.612-.744c-.05-1.087-.51-3.49-1.606-3.976-.611-.269-1.568.06-2.726.935v5.285a1 1 0 01-1 1z"/><path fill="none" stroke="#000" stroke-linecap="round" stroke-linejoin="round" stroke-miterlimit="10" stroke-width="2" d="M46.436 45.026c-.7-.11-.89-.17-1.71-.17-3.15 2.09-5.86 3.55-8.88 3.59h-.12c-3.02-.04-5.72-1.5-8.88-3.59-4.72 0-7.28 2.01-8.64 4.46-2.1 3.76-1.36 8.54-1.36 8.54"/><path fill="none" stroke="#000" stroke-linecap="round" stroke-linejoin="round" stroke-miterlimit="10" stroke-width="2" d="M32.736 57.966v-5.76c-5.97-4.93-6.33 3.48-6.33 3.48l-8.19-6.37M32.736 52.206l-5.89-7.35"/><path d="M38.598 53.203a1 1 0 01-.768-1.64l6.127-7.351a1.001 1.001 0 011.537 1.281l-6.127 7.35a.999.999 0 01-.77.36zM54.759 51.502c-.711 0-1.434-.127-2.137-.397a5.962 5.962 0 01-3.335-3.156 5.956 5.956 0 01-.126-4.59 5.962 5.962 0 013.156-3.336 5.969 5.969 0 014.591-.125 5.959 5.959 0 013.335 3.157c.655 1.464.7 3.093.126 4.59a6.009 6.009 0 01-5.61 3.857zm.004-10.002c-.555 0-1.108.117-1.63.35a3.98 3.98 0 00-2.105 2.223 3.973 3.973 0 00.085 3.06 3.975 3.975 0 002.224 2.105c.998.38 2.084.35 3.06-.084a3.98 3.98 0 002.105-2.223 3.977 3.977 0 00-.084-3.06 4.014 4.014 0 00-3.655-2.371z"/></g></svg>