<svg xmlns="http://www.w3.org/2000/svg" viewBox="0 0 72 72"><path fill="#d0cfce" stroke="#d0cfce" stroke-linecap="round" stroke-linejoin="round" stroke-miterlimit="10" stroke-width="2.067" d="m25.76 52.868-6.064 6.064-7.69.646.646-7.69 6.064-6.064"/><path fill="#9b9b9a" d="M44.401 39.754C53.49 31.352 60.544 21.48 60.544 21.48l-.288-.289-9.862-9.862s-9.873 7.056-18.276 16.143C20.563 39.968 18.011 45.12 18.011 45.12l7.749 7.748.993.993S31.904 51.31 44.4 39.754"/><path fill="#3F3F3F" d="m18.764 45.619 7.743 7.996s12.182-7.647 14.49-10.813l-.792-1.96-10.967-10.133-11.184 14.454.71.456z"/><path fill="none" stroke="#000" stroke-linecap="round" stroke-linejoin="round" stroke-miterlimit="10" stroke-width="2.082" d="m22.837 55.79-3.078 3.078-7.754.71.71-7.754 3.078-3.078m.445 6.6-3.078 3.078m31.241-18.67C53.49 31.352 60.544 21.48 60.544 21.48l-10.15-10.15s-.095.067-.274.198c-1.646 1.203-10.422 7.747-18.002 15.944C20.563 39.968 18.011 45.12 18.011 45.12l7.749 7.748.993.993S31.904 51.31 44.4 39.754m-3.365 1.77L29.712 30.201"/></svg>