<svg xmlns="http://www.w3.org/2000/svg" viewBox="0 0 72 72"><path fill="#FFF" d="M11.973 28.204l.123 31.806 31.6-.082L59.928 47.55l.123-19.469-48.077.123z"/><path fill="#ea5a47" d="M12.142 28.14h47.71V12.252h-47.71V28.14zm37.855-11.38h.03a3.127 3.127 0 012.218.943c.59.6.91 1.394.9 2.235a3.152 3.152 0 01-3.147 3.119h-.03a3.153 3.153 0 01-3.119-3.179 3.152 3.152 0 013.148-3.119zm-30.27.848a3.223 3.223 0 012.27-.928h.031a3.246 3.246 0 013.21 3.272 3.245 3.245 0 01-3.24 3.21h-.032a3.246 3.246 0 01-3.21-3.272 3.219 3.219 0 01.97-2.282z"/><path fill="#d0cfce" d="M56.956 49.038H44.139v4.48a1 1 0 01-1 1 .987.987 0 01-.972-.857v5.425h1.16l13.629-10.048z"/><g><circle cx="21.997" cy="19.941" r="3" fill="none" fill-rule="evenodd" stroke="#000" stroke-linecap="round" stroke-linejoin="round" stroke-miterlimit="10" stroke-width="2" clip-rule="evenodd" transform="matrix(.0096 -1 1 .0096 1.847 41.746)"/><path fill="none" stroke="#000" stroke-linecap="round" stroke-linejoin="round" stroke-miterlimit="10" stroke-width="2" d="M11.997 12.214h48v16h-48z"/><circle cx="49.998" cy="19.941" r="3" fill="none" fill-rule="evenodd" stroke="#000" stroke-linecap="round" stroke-linejoin="round" stroke-miterlimit="10" stroke-width="2" clip-rule="evenodd" transform="matrix(.0096 -1 1 .0096 29.58 69.745)"/><path fill="none" stroke="#000" stroke-linecap="round" stroke-linejoin="round" stroke-miterlimit="10" stroke-width="2" d="M11.997 28.092v32l31.66-.006 16.34-12.048V28.092"/><circle cx="18.217" cy="33.673" r="2" transform="rotate(-89.45 18.217 33.671)"/><circle cx="24.217" cy="33.673" r="2" transform="matrix(.0096 -1 1 .0096 -9.686 57.566)"/><circle cx="30.217" cy="33.673" r="2" transform="matrix(.0096 -1 1 .0096 -3.743 63.566)"/><circle cx="36.217" cy="33.673" r="2" transform="matrix(.0096 -1 1 .0096 2.2 69.566)"/><circle cx="18.217" cy="39.673" r="2" transform="matrix(.0096 -1 1 .0096 -21.628 57.51)"/><circle cx="24.217" cy="39.673" r="2" transform="matrix(.0096 -1 1 .0096 -15.685 63.51)"/><circle cx="30.217" cy="39.673" r="2" transform="matrix(.0096 -1 1 .0096 -9.743 69.509)"/><circle cx="36.217" cy="39.673" r="2" transform="matrix(.0096 -1 1 .0096 -3.8 75.509)"/><circle cx="18.217" cy="45.673" r="2" transform="rotate(-89.45 18.217 45.671)"/><path fill="none" stroke="#000" stroke-linecap="round" stroke-linejoin="round" stroke-miterlimit="10" stroke-width="2" d="M59.87 48.038H43.137v5.48"/></g></svg>