<svg xmlns="http://www.w3.org/2000/svg" viewBox="0 0 72 72"><path fill="#FFF" d="M60.069 17.015l-5.918-.932H17.21l-5.272.968.036 43.218 31.633-.036 16.498-12.05-.036-31.168z"/><path fill="#d0cfce" d="M56.956 49.038H44.139v4.48a1 1 0 01-1 1 .987.987 0 01-.972-.857v5.425h1.16l13.629-10.048z"/><path fill="#FFF" stroke-linecap="round" stroke-linejoin="round" stroke-miterlimit="10" stroke-width="2" d="M45.481 13.955v5.636M40.72 13.955v5.636M35.96 13.955v5.636M50.241 13.955v5.636M31.2 13.955v5.636M26.439 13.955v5.636M21.679 13.955v5.636"/><g fill="none" stroke="#000" stroke-linecap="round" stroke-linejoin="round" stroke-miterlimit="10" stroke-width="2"><path d="M45.481 13.955v5.636M40.72 13.955v5.636M35.96 13.955v5.636M50.241 13.955v5.636M31.2 13.955v5.636M26.439 13.955v5.636M21.679 13.955v5.636M16.99 29.352h37.797M16.99 39.825h37.797M16.99 50.298h22.125M25.946 24.443v31.106M54.325 16.973h5.635l.037 31.065-16.34 12.048-31.66.006-.037-43.119h5.64"/><path d="M59.746 48.038H43.138v5.48"/></g></svg>