<svg xmlns="http://www.w3.org/2000/svg" viewBox="0 0 72 72"><path fill="#3f3f3f" d="m43.908 30.51-2.73-2.73a1 1 0 0 1-.05-1.36l9.996-11.602a4.054 4.054 0 1 1 5.785 5.682L45.27 30.559a1 1 0 0 1-1.36-.05z"/><path fill="#9b9b9a" d="M50.916 35.782a2.996 2.996 0 0 0-2.739-.81 24.309 24.309 0 0 0-11.489-11.428 2.998 2.998 0 1 0-2.285 2.262c2.338 1.006 8.678 4.328 11.468 11.455a2.997 2.997 0 1 0 5.045-1.48z"/><path fill="#d0cfce" d="M37.636 27.538 18.304 46.871a.985.985 0 0 0-.138.172c-3.504 5.536-4.678 8.946-3.489 10.135.439.438 1.603 1.602 9.953-3.67a.982.982 0 0 0 .173-.138L44.19 33.984a21.602 21.602 0 0 0-6.553-6.446z"/><path fill="#9b9b9a" d="M14.677 57.178c.439.438 1.603 1.602 9.953-3.67a.986.986 0 0 0 .173-.138L44.19 33.985a20.287 20.287 0 0 0-2.926-3.574z"/><g fill="none" stroke="#000" stroke-linecap="round" stroke-linejoin="round" stroke-width="2"><path d="M38.806 27.783 19.01 47.578s-4.853 7.666-3.626 8.893c1.037 1.037 8.711-3.808 8.711-3.808l19.711-19.711"/><path d="M35.772 22.88a2 2 0 1 0-2.563 1.919l.026.007c.57.192 10.292 3.597 13.636 13.644l.004.015a2 2 0 1 0 1.697-2.55m-5.645-10.074 8.955-10.369a3.064 3.064 0 0 1 4.32 0h0a3.064 3.064 0 0 1 0 4.32l-10.369 8.955"/></g></svg>