<svg xmlns="http://www.w3.org/2000/svg" viewBox="0 0 72 72"><path fill="#FFF" d="M54.88 49.128A22.887 22.887 0 0 0 59 36c0-12.703-10.297-23-23-23S13 23.297 13 36s10.297 23 23 23c3.758 0 7.302-.907 10.435-2.505l4.814 2.052 5.728 2.443-1.084-6.132-1.012-5.73z"/><path fill="none" stroke="#000" stroke-linecap="round" stroke-linejoin="round" stroke-miterlimit="10" stroke-width="2" d="M54.88 49.128A22.887 22.887 0 0 0 59 36c0-12.703-10.297-23-23-23S13 23.297 13 36s10.297 23 23 23c3.758 0 7.302-.907 10.435-2.505l4.814 2.052 5.728 2.443-1.084-6.132-1.012-5.73z"/></svg>