<svg xmlns="http://www.w3.org/2000/svg" viewBox="0 0 72 72"><g fill="#fff"><path d="m22.65 48.79-.011-.066-3.831 1.074-4.238.438c1.496-3.562 2.558-4.463 3.443-6.804L16.49 42.16l-4.23-.757 4.537-6.072-1.174-.516-5.692-3.404 5.74-2.934-1.58-6.87L22.2 24.53l-.687-1.77-1.229-7.02 8.244 3.134.013-.05 2.21-8.463 4.83 7.048.866 1.447 1.58-2.69 3.689-6.183 2.125 7.784 1.057 1.714 7.88-3.814.165 8.7 2.16.181 6.17.682-3.451 4.889-1.506 1.763 5.328 4.767-5.831 3.767-.642-.096 3.936 6.957-7.99-.493c-.2 3.132-.094 6.04.42 9.12-1.57-2.327-3.84-3.338-6.284-4.676l-4.062 6.643c-1.371-2.13-2.831-4.205-4.135-6.378l-4.363 6.338c-1.141-2.316-2.048-4.207-3.545-6.32l-5.791 5.706-.71-8.43"/><path stroke="#fff" stroke-linecap="round" stroke-linejoin="round" stroke-width="2" d="m11.09 62.06 7.029-12.09c4.176-2.567 3.681-.37 4.1 4.022z"/></g><g fill="none" stroke="#000" stroke-linecap="round" stroke-linejoin="round"><path stroke-miterlimit="10" stroke-width="2.089" d="M22.64 48.72s-4.916.913-8.068 1.512c1.144-1.453 3.571-7.636 3.571-7.636l-6.667-1.413 5.324-5.855-7.653-4.136 6.529-2.717-2.367-7.087 8.895 3.14-2.702-9.007 8.244 3.134.013-.05 2.209-8.464c2.055 3.016 6.484 8.713 6.484 8.713s3.875-5.8 5.269-8.873c1.048 3.227 3.182 9.498 3.182 9.498l7.881-3.814.164 8.701 8.332.862-4.958 6.652 6.533 5.093-7.678 3.345s2.35 4.196 3.936 6.957l-8.778-.71s.694 6.256 1.208 9.337a573.504 573.504 0 0 0-7.071-4.892l-3.275 6.861-4.135-6.378-4.363 6.338c-1.141-2.316-3.545-6.32-3.545-6.32l-5.791 5.706z"/><path stroke-width="2" d="m20.38 55.31-9.292 6.75 5.309-9.102"/></g></svg>