<svg xmlns="http://www.w3.org/2000/svg" viewBox="0 0 72 72"><circle cx="36" cy="36" r="23" fill="#FCEA2B"/><path fill="#EA5A47" d="m38.254 51.023 3.023-1.346 1.169-1.443.318-1.61-3.699.045h-9.968l1.314 3.008 3.159 1.346z"/><path fill="none" stroke="#000" stroke-linecap="round" stroke-linejoin="round" stroke-width="2" d="M20.648 30.028a6.283 6.283 0 0 1 2.66-3.643 6.28 6.28 0 0 1 4.32-1.375m23.376 6.077a7.163 7.163 0 0 0-8.51-1.17m.289 15.852c0 2.937-2.308 5.272-6.934 5.272s-6.964-2.342-6.964-5.272"/><path fill="none" stroke="#000" stroke-linecap="round" stroke-linejoin="round" stroke-width="2" d="M28.94 45.769s7.047 2.52 13.75.054m4.313-9.963a5.902 5.902 0 0 0-2.87-.922 7.476 7.476 0 0 0-3.18.775"/><circle cx="28.079" cy="35.309" r="3"/><circle cx="36" cy="36" r="23" fill="none" stroke="#000" stroke-linecap="round" stroke-linejoin="round" stroke-width="2"/></svg>