<svg xmlns="http://www.w3.org/2000/svg" viewBox="0 0 72 72"><path fill="#FCEA2B" d="M36 13c-12.682 0-23 10.318-23 23s10.318 23 23 23 23-10.318 23-23-10.318-23-23-23z"/><circle cx="36" cy="36" r="23" fill="none" stroke="#000" stroke-width="2"/><path fill="none" stroke="#000" stroke-linecap="round" stroke-linejoin="round" stroke-miterlimit="10" stroke-width="2" d="M29.94 46.66c8.505.703 16.67.427 16.98-4.128M41.93 26.77c.467-.25 2.52-1.1 5.042-.574 2.118.392 2.421.828 3.73 1.725M22.29 28.7c.327-.427 1.792-2.245 4.424-2.685 2.135-.357 3.794.402 4.352.688"/><path d="M32 33a3.001 3.001 0 0 1-6 0c0-1.655 1.345-3 3-3s3 1.345 3 3m18 0a3.001 3.001 0 0 1-6 0c0-1.655 1.345-3 3-3s3 1.345 3 3"/></svg>