<svg xmlns="http://www.w3.org/2000/svg" viewBox="0 0 72 72"><path fill="#FCEA2B" d="M36 13c-12.682 0-23 10.318-23 23s10.318 23 23 23 23-10.318 23-23-10.318-23-23-23z"/><path fill="#FFF" d="M41.668 46.593c2.018-1.09 3.628-2.752 4.497-4.775-1.985.985-6.158 1.593-10.574 1.543-4.055-.047-7.712-.641-9.518-1.543h-.238c.939 2.165 2.718 3.899 4.917 4.973"/><path fill="#EA5A47" d="M41.577 42.818c0 6.075-2.532 11-5.656 11-3.124 0-5.656-4.925-5.656-11"/><g fill="none" stroke="#000" stroke-miterlimit="10" stroke-width="2"><circle cx="36" cy="36" r="23"/><path stroke-linecap="round" stroke-linejoin="round" d="m24 27 7 4-7 4m24-8-7 4 7 4M30.752 46.79c-2.2-1.073-3.978-2.807-4.917-4.972m20.33 0c-.87 2.023-2.479 3.685-4.497 4.775m-15.595-4.775c1.806.902 5.463 1.496 9.517 1.543 4.417.05 8.59-.558 10.575-1.543"/><path stroke-linejoin="round" d="M41.66 42.818c0 6.075-2.533 11-5.656 11s-5.657-4.925-5.657-11"/></g></svg>