<svg xmlns="http://www.w3.org/2000/svg" viewBox="0 0 72 72"><path fill="#FCEA2B" d="M36 12c-13.255 0-24 10.745-24 24s10.745 24 24 24 24-10.745 24-24-10.745-24-24-24z"/><path fill="#D0CFCE" d="m41.54 37.497 13.747 6.313s3.811-4.378 7.394-.753a4.475 4.475 0 0 1 .208 6.325 4.851 4.851 0 0 1-.067.07c-.034.035 3.46 3.322.303 6.48a4.418 4.418 0 0 1-6.029.313S54.574 60 51.01 56.03s.81-7.42.81-7.42L41.54 37.497zm-11.08 0L16.713 43.81s-3.811-4.378-7.394-.753a4.475 4.475 0 0 0-.141 6.395c.034.035-3.46 3.322-.303 6.48a4.418 4.418 0 0 0 6.029.313S17.426 60 20.99 56.03s-.81-7.42-.81-7.42l10.28-11.113z"/><g fill="none" stroke="#000" stroke-linecap="round" stroke-linejoin="round" stroke-width="2"><path d="M46.717 56.356a23.04 23.04 0 0 1-21.538-.056"/><path d="M47.451 55.951c-.242.14-.487.275-.735.405M13.122 38.388A23.276 23.276 0 0 1 13 36c0-12.703 10.297-23 23-23s23 10.297 23 23c0 .504-.016 1.005-.048 1.501M23 24l7 4m19-4-7 4"/><path d="M30 43a17.625 17.625 0 0 1 6.842-.998A16.363 16.363 0 0 1 43 43m-20.5-9.922a7.174 7.174 0 0 0 4.91 1.636 7.078 7.078 0 0 0 4.09-1.636m9 0a7.174 7.174 0 0 0 4.91 1.636 7.078 7.078 0 0 0 4.09-1.636m-19.04 4.419L16.713 43.81s-3.811-4.378-7.394-.753a4.475 4.475 0 0 0-.141 6.395c.034.035-3.46 3.322-.303 6.48a4.418 4.418 0 0 0 6.029.313S17.426 60 20.99 56.03s-.81-7.42-.81-7.42l10.28-11.113zm11.08 0 13.747 6.313s3.811-4.378 7.394-.753a4.475 4.475 0 0 1 .208 6.325s0 0 0 0a4.851 4.851 0 0 1-.067.07c-.034.035 3.46 3.322.303 6.48a4.418 4.418 0 0 1-6.029.313S54.574 60 51.01 56.03s.81-7.42.81-7.42L41.54 37.497z"/></g></svg>