<svg xmlns="http://www.w3.org/2000/svg" viewBox="0 0 72 72"><path fill="#FCEA2B" d="M36 12c-13.255 0-24 10.745-24 24s10.745 24 24 24 24-10.745 24-24-10.745-24-24-24z"/><path fill="#D0CFCE" d="M41.54 37.497l13.747 6.313s3.811-4.378 7.394-.753a4.475 4.475 0 01.208 6.325 4.851 4.851 0 01-.067.07c-.034.035 3.46 3.322.303 6.48a4.418 4.418 0 01-6.029.313S54.574 60 51.01 56.03s.81-7.42.81-7.42L41.54 37.497zM30.46 37.497L16.713 43.81s-3.811-4.378-7.394-.753a4.475 4.475 0 00-.141 6.395c.034.035-3.46 3.322-.303 6.48a4.418 4.418 0 006.029.313S17.426 60 20.99 56.03s-.81-7.42-.81-7.42l10.28-11.113z"/><g fill="none" stroke="#000" stroke-linecap="round" stroke-linejoin="round" stroke-width="2"><path d="M46.717 56.356a23.04 23.04 0 01-21.538-.056M47.451 55.951c-.242.14-.487.275-.735.405M13.122 38.388A23.276 23.276 0 0113 36c0-12.703 10.297-23 23-23s23 10.297 23 23c0 .504-.016 1.005-.048 1.501M23 24l7 4M49 24l-7 4M30 43a17.625 17.625 0 016.842-.998A16.363 16.363 0 0143 43"/><path d="M22.5 33.078a7.174 7.174 0 004.91 1.636 7.078 7.078 0 004.09-1.636M40.5 33.078a7.174 7.174 0 004.91 1.636 7.078 7.078 0 004.09-1.636M30.46 37.497L16.713 43.81s-3.811-4.378-7.394-.753a4.475 4.475 0 00-.141 6.395c.034.035-3.46 3.322-.303 6.48a4.418 4.418 0 006.029.313S17.426 60 20.99 56.03s-.81-7.42-.81-7.42l10.28-11.113zM41.54 37.497l13.747 6.313s3.811-4.378 7.394-.753a4.475 4.475 0 01.208 6.325s0 0 0 0a4.851 4.851 0 01-.067.07c-.034.035 3.46 3.322.303 6.48a4.418 4.418 0 01-6.029.313S54.574 60 51.01 56.03s.81-7.42.81-7.42L41.54 37.497z"/></g></svg>