<svg xmlns="http://www.w3.org/2000/svg" viewBox="0 0 72 72"><path d="M42.847 45.658c0-2.592-3.834-4.694-6.869-4.694s-6.869 2.101-6.869 4.694 3.66.925 6.694.925 7.044 1.667 7.044-.925z"/><path fill="#fcea2b" d="M35.977 12.958a23 23 0 1023 23 23.026 23.026 0 00-23-23z"/><path fill="#92d3f5" d="M35.977 24.769a23.04 23.04 0 0122.228 17.095 23 23 0 10-44.456 0 23.039 23.039 0 0122.228-17.095z"/><path d="M42.847 45.658c0-2.592-3.834-4.694-6.869-4.694s-6.869 2.101-6.869 4.694 3.66.925 6.694.925 7.044 1.667 7.044-.925z"/><g><path fill="none" stroke="#000" stroke-linecap="round" stroke-linejoin="round" stroke-width="2" d="M29.356 22.669a8.44 8.44 0 00-9.066 4.498M51.664 27.167a8.44 8.44 0 00-9.066-4.498"/><circle cx="35.977" cy="35.958" r="23" fill="none" stroke="#000" stroke-miterlimit="10" stroke-width="2"/><path fill="none" stroke="#000" stroke-miterlimit="10" stroke-width="2" d="M42.847 45.658c0-2.592-3.834-4.694-6.869-4.694s-6.869 2.101-6.869 4.694 3.66.925 6.694.925 7.044 1.667 7.044-.925z"/><path d="M29.977 32.958a3 3 0 11-3-3 3.001 3.001 0 013 3M47.977 32.958a3 3 0 11-3-3 3.001 3.001 0 013 3"/></g></svg>