<svg xmlns="http://www.w3.org/2000/svg" viewBox="0 0 72 72"><circle cx="36" cy="36" r="23" fill="#FCEA2B"/><path fill="#FFF" d="M43.18 51.87H28.81c0-4 2.39-7.18 7.18-7.18 4.79 0 7.21 3.19 7.21 7.18"/><path fill="none" stroke="#000" stroke-linecap="round" stroke-linejoin="round" stroke-miterlimit="10" stroke-width="2" d="M43.18 51.87H28.81c0-4 2.39-7.18 7.18-7.18 4.79 0 7.21 3.19 7.21 7.18M20.28 27.2a6.306 6.306 0 0 1 3.39-3 6.304 6.304 0 0 1 4.53-.42m22.69 3.42a7.19 7.19 0 0 0-7.91-3.43"/><circle cx="36" cy="36" r="23" fill="none" stroke="#000" stroke-linecap="round" stroke-linejoin="round" stroke-miterlimit="10" stroke-width="2"/><path d="M30 34a3.001 3.001 0 0 1-6 0c0-1.655 1.345-3 3-3s3 1.345 3 3m18 0a3.001 3.001 0 0 1-6 0c0-1.655 1.345-3 3-3s3 1.345 3 3"/><path fill="none" stroke="#000" stroke-linecap="round" stroke-linejoin="round" stroke-miterlimit="10" stroke-width="2" d="M20.695 27.2a6.306 6.306 0 0 1 3.39-3 6.304 6.304 0 0 1 4.53-.42m22.69 3.42a7.19 7.19 0 0 0-7.909-3.43"/></svg>