<svg xmlns="http://www.w3.org/2000/svg" viewBox="0 0 72 72"><circle cx="36" cy="36" r="24" fill="#FCEA2B"/><path fill="#92D3F5" d="M9.246 27.724a3.984 3.984 0 0 1 .47-3.034c1.832-3.014 6.434-4.165 6.629-4.213a.755.755 0 0 1 .912.555c.047.195 1.143 4.81-.689 7.825a4.015 4.015 0 0 1-5.51 1.342 3.977 3.977 0 0 1-1.812-2.475z"/><path d="M30 31a3.001 3.001 0 0 1-6 0c0-1.655 1.345-3 3-3s3 1.345 3 3m18 0a3.001 3.001 0 0 1-6 0c0-1.655 1.345-3 3-3s3 1.345 3 3"/><path fill="none" stroke="#000" stroke-linecap="round" stroke-linejoin="round" stroke-miterlimit="10" stroke-width="2" d="M26.5 48c1.877-3.833 5.824-6.197 10-6 3.834.18 7.293 2.493 9 6M23.148 24.25c.487.228 2.628 1.16 5.164.333 2.058-.672 3.177-2.112 3.54-2.624m17 2.291c-.487.228-2.628 1.16-5.164.333-2.058-.672-3.177-2.112-3.54-2.624"/><path fill="none" stroke="#000" stroke-miterlimit="10" stroke-width="2" d="M9.246 27.724a3.984 3.984 0 0 1 .47-3.034c1.832-3.014 6.434-4.165 6.629-4.213a.755.755 0 0 1 .912.555c.047.195 1.143 4.81-.689 7.825a4.015 4.015 0 0 1-5.51 1.342 3.977 3.977 0 0 1-1.812-2.475z"/><path fill="none" stroke="#000" stroke-linecap="round" stroke-miterlimit="10" stroke-width="2" d="M21.997 17.745A22.906 22.906 0 0 1 36 12.994c12.706 0 23.006 10.3 23.006 23.006S48.706 59.006 36 59.006 12.994 48.706 12.994 36c0-.396.01-.79.03-1.18"/></svg>