<svg xmlns="http://www.w3.org/2000/svg" viewBox="0 0 72 72"><path fill="#92d3f5" d="M17.008 60.958v-4c0-4.994 5.008-9 10-9q9 7.5 18 0c4.994 0 10 4.006 10 9v4"/><path fill="#6a462f" d="M25.608 29.474v.957c0 7.65 4.61 13.643 10.494 13.643S46.597 38.08 46.597 30.43c0-4.653-1.779-7.515-5.285-11.134a64.146 64.146 0 0 1-8.988 5.772c-2.646 1.514-6.255 3.57-6.716 4.405z"/><path d="M53.455 34.156a23.723 23.723 0 0 1-1.157-2.633c-1.473-3.27-2.024-4.493-2.349-10.524.028-3.693-3.794-6.784-7.474-7.093a1.002 1.002 0 0 1-.689-.343c-.093-.1-2.408-2.655-7.243-2.655-6.2 0-11.441 3.382-12.743 8.226a18.517 18.517 0 0 0-.565 6.176 13.318 13.318 0 0 1-.76 5.961 6.805 6.805 0 0 1-1.12 2.088c-3.772 4.42-.974 14.303-1.166 14.01a24.053 24.053 0 0 0 3.633 2.72 10.466 10.466 0 0 1 5.36-2.09c6.21 5.012 12.496 5.012 18.7 0a8.343 8.343 0 0 1 4.21 1.513 22.793 22.793 0 0 0 2.971-2.33c1.189-.715 3.125-8.283.392-13.026zM41.01 42.99c-3.378 2.545-9.608 1.083-9.608 1.083s-8.646-7.408-5.793-14.6c0 0 15.27-9.21 15.401-10.789 0 0 13.851 13.873 0 24.306z"/><path fill="none" stroke="#000" stroke-linecap="round" stroke-linejoin="round" stroke-width="2" d="M17.008 59.958v-3c0-4.994 5.008-9 10-9q9 7.5 18 0c4.994 0 10 4.006 10 9v3"/><path d="M42.008 30.958c0 1.105-.895 1-2 1s-2 .105-2-1a3.118 3.118 0 0 1 1-2c1.105 0 3 .896 3 2m-8 0c0 1.105-.895 1-2 1s-2 .105-2-1c0-1 2.023-2 3.127-2a3.263 3.263 0 0 1 .873 2"/><path fill="none" stroke="#000" stroke-linecap="round" stroke-linejoin="round" stroke-width="2" d="M38.008 38.708a3.042 3.042 0 0 0-4 0"/><path fill="none" stroke="#000" stroke-linecap="round" stroke-linejoin="round" stroke-width="2" d="M18.855 46.658c-3.723-5.857-.628-10.08 1.18-14.725 1.635-4.2-.21-6.45 1.29-12.034 1.48-5.5 7.278-8.966 13.71-8.966 5.4 0 8 3 8 3a8.132 8.132 0 0 1 7.404 8.037c.387 7.18 1.025 7.152 3.43 12.822a11.599 11.599 0 0 1-1.447 11.663"/><path fill="none" stroke="#000" stroke-linejoin="round" stroke-width="2" d="M25.034 30.933c0 8 5 14 11 14s11-6 11-14c0-5-2-8-6-12-4 4-16 9-16 11z"/></svg>