<svg xmlns="http://www.w3.org/2000/svg" viewBox="0 0 72 72"><path fill="#92d3f5" d="M56.492 60.926l4-17-10.938-4.375-.154-.624c-2.408 3.031-2.754 1.345-4.334 2.397-6.657 8.603-13.824 6.134-19.074.05-1.818-1.363-1.657.584-2.504-1.448h-.996l-10 3 4 18"/><g fill="#fadcbc"><path d="M25.492 34.123c.176 5.624 4.373 12.835 10.436 12.835 5.937 0 11.064-5 11.064-14a12.137 12.137 0 00-1-5 42.425 42.425 0 00-5.033-7.174c-4 3-10.713 7.45-15.75 10.5a11.316 11.316 0 01.283 2.839z"/><path d="M19.16 39.781c-1.092-4.1.336-8.547 1.832-10.073-.643-3.34 5-12.75 5-12.75h2c3 0 5-2 11-2a.831.831 0 00.942-.548l-10.985-2.868a25.434 25.434 0 00-3.957.416 11.464 11.464 0 00-4 2s-7 11-7 15v13"/><path d="M52.832 41.186c.922-3.7-.576-9.712-1.84-12.228.667-3.334-5-12-5-12a3.491 3.491 0 00-2-1c-3 0-4-2-6-3a53.843 53.843 0 00-8-1 .98.98 0 01-1-1s.04-1.083 1.04-1.083c2.58 0 7.228.083 10.96.083a32.879 32.879 0 018 2 11.067 11.067 0 012 2s7 11 7 15c0 3.25.04 13.56.04 13.56"/></g><path fill="#a57939" d="M39.796 14.531l-13.557 2.795s-7.792 12.604-8.027 17.578c-.503 10.664 8.35 10.463 9.91 7.998 0 0-5.748-8.986-1.289-12.494s13.617-7.79 14.33-9.395c0 0 9.944 8.54 2.913 21.347.22.788 15.63 6.698 7.317-15.181L45.027 16.06l-5.231-1.529"/><path d="M41.865 31.958a2 2 0 11-2-2 2 2 0 012 2M33.865 31.958a2 2 0 11-2-2 2 2 0 012 2"/><path fill="none" stroke="#000" stroke-linecap="round" stroke-linejoin="round" stroke-width="2" d="M38.992 39.458c-1 2-5 2-6 0M50.492 25.677a48.822 48.822 0 00-4.5-8.719 3.491 3.491 0 00-2-1c-3 0-4-2-6-3a52.19 52.19 0 00-7.555-.993 1.327 1.327 0 01-1.403-1.324s-.042-1.479 2.079-1.445a49.99 49.99 0 019.879.762c.98.197 6.024 1.051 8 2a11.067 11.067 0 012 2s7 11 7 15v13.968"/><path fill="none" stroke="#000" stroke-linecap="round" stroke-linejoin="round" stroke-width="2" d="M39.933 14.41a.831.831 0 01-.941.548c-6 0-8 2-11 2h-2a60.788 60.788 0 00-4.236 8.61"/><path fill="none" stroke="#000" stroke-linecap="round" stroke-linejoin="round" stroke-width="2" d="M13.992 41.958v-13c0-4 7-15 7-15a11.464 11.464 0 014-2 13.369 13.369 0 014.736-.187M19.159 40.888l-7.167 2.07 4 17M52.832 41.186l7.16 2.772-4 16"/><path fill="none" stroke="#000" stroke-linejoin="round" stroke-width="2" d="M24.945 32.976c0 8 5 14 11 14s11-6 11-14c0-5-2-8-6-12-4 4-16 9-16 11z"/><path fill="none" stroke="#000" stroke-linecap="round" stroke-linejoin="round" stroke-width="2" d="M48.675 42.696c9.678-.496 2.793-14.08 1.726-17.293M21.762 25.557c-1.202 3.33-7.645 14.15 1.33 17.496"/></svg>