<svg xmlns="http://www.w3.org/2000/svg" viewBox="0 0 72 72"><path fill="none" stroke="#000" stroke-linecap="round" stroke-linejoin="round" stroke-miterlimit="10" stroke-width="2" d="M19.745 30.37c.735-1.436 1.847-2.672 3.236-3.51 4.232-2.552 10.528-1.089 13.49 3.837 3.038-4.917 9.314-6.349 13.491-3.837 1.456.875 2.553 2.166 3.252 3.65"/><path fill="#6A462F" d="M52.157 19.332c.33 0 7.022-2.183 10.306 3.921 3.158 5.87 1.158 11.87-3.485 14.312"/><path fill="#6A462F" d="M60.051 35.49c0 13.536-10.745 24.51-24 24.51s-24-10.974-24-24.51S22.797 12 36.051 12s24 9.953 24 23.49z"/><path fill="#6A462F" d="M19.917 18.907c-.346 0-7.502-2.36-10.827 4.119-2.937 5.72-.469 12.098 3.662 13.984"/><path fill="#A57939" d="M26.042 57.02c-1.017-3.303-1.424-8.784-.067-14.783-.355-.07-5.265-1.123-7.027-5.573-1.569-3.963.169-8.578 3.654-10.68 4.232-2.552 10.528-1.09 13.491 3.837 3.037-4.917 9.313-6.35 13.49-3.837 3.578 2.15 4.99 6.817 3.655 10.68-1.576 4.558-6.278 5.986-6.746 6.12.722 2.183 2.424 8.347-.562 14.237-.59 1.165-.995 0-4.995 2"/><path fill="#FFF" d="M41.914 49.017c-.203.268-.752 6.022-6.338 6.025-4.952.002-5.442-5.677-5.705-6.025h12.043z"/><path fill="#A57939" d="M12.139 51.983c1.884-3.928-.188.875 1.696-3.053a29.355 29.355 0 0 1-1.539-7.009c-.425-4.565.124-10.46 1.539-10.662.555-.08 1.473.684 3.032 4.72 2.6-3.093 8.365-6.27 9-5.5.622.757-.091 2.538-.01 3.503 2.655-1.207 3.95-1.404 4.266-1.05.318.355-.083 1.694-1.772 4.349 3.116-.743 4.104.118 3.942.805-.607 2.586-2.7 5.93-6.436 9.606-2.097 2.063-4.741 2.573-6.4 2.914-.609 5.022-.479 2.36-1.088 7.381m40.892-5.714-1.603-3.343a29.355 29.355 0 0 0 1.538-7.009c.425-4.565-.123-10.46-1.538-10.662-.555-.08-1.474.684-3.033 4.72-2.6-3.093-8.365-6.27-8.999-5.5-.623.757.09 2.538.01 3.503-2.655-1.207-3.95-1.404-4.266-1.05-.319.355.082 1.694 1.772 4.349-3.116-.743-4.104.118-3.943.805.608 2.586 2.7 5.93 6.437 9.606 2.096 2.063 4.74 2.573 6.399 2.914.61 5.022.347 2.868.956 7.89"/><path fill="#6A462F" d="M58.174 48.915c-.014-.028-.007-.014 0 0zm.008.016L52.035 50.7s.459 2.778 1.293 8.73l6.651-6.515c-1.53-3.397-1.732-3.851-1.797-3.983zm-.008-.016.008.016-.008-.016zm-44.442.025s-.009-.581-2.005 3.79l5.993 6.392c.1.118.292.053.31-.1.65-5.33 1.659-8.217 1.659-8.217l-5.957-1.866z"/><path fill="none" stroke="#000" stroke-linecap="round" stroke-linejoin="round" stroke-miterlimit="10" stroke-width="2" d="M52.264 19.654c.33 0 7.141-2.245 10.306 3.921 1.705 3.321 1.276 6.241-.076 8.808M19.736 19.654c-.33 0-7.141-2.245-10.306 3.921-1.612 3.14-1.317 5.92-.138 8.382m32.645 17.06c-.204.268-.753 6.022-6.339 6.025-4.952.002-5.441-5.677-5.705-6.025h12.044z"/><circle cx="34.056" cy="44.558" r="1"/><circle cx="37.696" cy="44.558" r="1"/><path fill="none" stroke="#000" stroke-linecap="round" stroke-linejoin="round" stroke-miterlimit="10" stroke-width="2" d="M48.849 55.022A22.893 22.893 0 0 1 35.915 59a22.893 22.893 0 0 1-12.86-3.928m-8.063-28.638C18.622 18.507 26.627 13 35.915 13c9.22 0 17.172 5.424 20.84 13.255m2.529 26.018L57.68 48.93a29.355 29.355 0 0 0 1.538-7.009c.425-4.565-.123-10.46-1.538-10.662-.555-.08-1.473.684-3.032 4.72-2.601-3.093-8.366-6.27-9-5.5-.622.757.09 2.538.01 3.503-2.655-1.207-3.95-1.404-4.266-1.05-.319.355.082 1.694 1.772 4.349-3.116-.743-4.104.118-3.943.805.608 2.586 2.7 5.93 6.437 9.606 2.097 2.063 4.741 2.573 6.4 2.914.609 5.022.346 2.868.956 7.89m-40.621-6.513 1.464-3.053a29.355 29.355 0 0 1-1.538-7.009c-.425-4.565.123-10.46 1.538-10.662.555-.08 1.473.684 3.032 4.72 2.601-3.093 8.366-6.27 9-5.5.622.757-.09 2.538-.01 3.503 2.655-1.207 3.95-1.404 4.266-1.05.319.355-.082 1.694-1.772 4.349 3.116-.743 4.104.118 3.943.805-.608 2.586-2.7 5.93-6.437 9.606-2.097 2.063-4.741 2.573-6.4 2.914l-.957 7.89"/></svg>