<svg xmlns="http://www.w3.org/2000/svg" viewBox="0 0 72 72"><path fill="#92d3f5" d="m22.494 65-.218-2.813a23.426 23.426 0 0 1-4.336-3.518L21.917 48.6c1.023-2.591 1.635-3.56 3.023-2.591 3.007 2.099 6.346 2.922 7.625 3.85 4.328 3.692 12.34 4.625 19.34 1.46 3 0 9.57 3.821 9.57 9.09v4.546z"/><path fill="#6a462f" d="M31.402 33.985c0 9 4.937 14 11 14 5.937 0 11.064-5 11.064-14a12.137 12.137 0 0 0-1-5c-3-3-7-8-7-8-4 3-7 6-13 7 0 0-1.064 1-1.064 6zM18.63 55.99c-2.624-3.249-5.712-4.458-6.212-6.458-.543-2.169-3.193-15.63-2.192-19.88.4-2.535.484-5.111.25-7.666-.06-.998.844-4.688.844-6.688a15.052 15.052 0 0 1 .375-3.938c1.188-1.725 2.872-.732 2.898.498l1.039-4.342c.187-1.28 3.698-2.219 3.188 1.25l.45-2.48c.681-1.426 2.38-1.16 2.758-.693.622.809.303 1.542.256 2.536 0 0 2.254-.019 1.67 3.002-.19.982-1.632 10.23-1.632 10.23.458-.458 1.54-4.699 3.124-4.699 2.119 0 1.904 1.65 1.904 1.65s-.603 1.433-1.281 2.673c-1.012 1.851-2.281 5.5-3.281 6.5a45.64 45.64 0 0 1-5.222 3l2.91 12.25s.167.538 2.496 2.256"/><path d="M52.583 29.077c-2.661-.856-7.367-7.937-7.367-7.937-2.661 3.232-12.737 6.986-12.737 6.986-2.994 2.994-.045 13.859-.045 13.859-4 0-4-6-4-13s4-14 14-14 14 7 14 14 0 13-4 13c1.325-2.253.149-12.908.149-12.908z"/><path fill="none" stroke="#000" stroke-linecap="round" stroke-linejoin="round" stroke-width="2" d="M32.466 41.985c-4 0-4-6-4-13s4-14 14-14 14 7 14 14 0 13-4 13"/><path d="M48.339 32.985a2 2 0 1 1-2-2 2 2 0 0 1 2 2m-8 0a2 2 0 1 1-2-2 2 2 0 0 1 2 2"/><path fill="none" stroke="#000" stroke-linejoin="round" stroke-width="2" d="M31.402 33.985c0 9 4.937 14 11 14 5.937 0 11.064-5 11.064-14a12.137 12.137 0 0 0-1-5c-3-3-7-8-7-8-4 3-7 6-13 7 0 0-1.064 1-1.064 6z"/><path fill="none" stroke="#000" stroke-linecap="round" stroke-linejoin="round" stroke-width="2" d="M39.466 40.985a6.553 6.553 0 0 0 6 0M22.474 63.99a2.982 2.982 0 0 0-.842-2.698c-3.158-2.446-4.158-3.302-4.158-3.302l5-12M20.183 6.782c-.71 3.924-1.125 6.631-1.71 11.208m3.069 3.375c.293-2.162 1.098-6.75 1.557-11.375"/><path fill="none" stroke="#000" stroke-linecap="round" stroke-linejoin="round" stroke-width="2" d="M61.474 63.99s.09-2.25.09-3c0-7-9.09-10-9.09-10-7 2-11 2-16 1-3.276-.655-10.027-4.59-15-8 0 0-3.91-9.5-3.91-13.5 0-.583 5.552-1.994 7-6.5.782-2.431 1.811-5.674 1.811-5.674m-11.901-.326c.86-5.076 1.564-8.621 2-10m2.154 47.231c-5-4-6.588-5.12-7.154-8.231-2-11-1-14.582-1-18 0-1 .015 0 .015-6 .001-.812.508-4.394.985-7a25.278 25.278 0 0 1 1-4"/></svg>