<svg xmlns="http://www.w3.org/2000/svg" viewBox="0 0 72 72"><path fill="#fcea2b" stroke-linecap="round" stroke-linejoin="round" stroke-miterlimit="10" stroke-width="2" d="M20.566 35.241l.003-16.016"/><g fill="#fadcbc" stroke="#fadcbc"><path d="M57.573 35.953l-.175-18.673v.767c0-3.522 6.497-4.47 6.498.832l.06 6.434.115 12.239-.132-14.073c0-3.173 5.652-3.28 5.653.811l.004 24.38c0 8.805-7.063 15.827-15.869 15.828s-15.945-7.136-15.946-15.942c.046-3.071-.28-8.294-.281-15.38 2.174-2.174 5.652.805 6.852 3.647v4.89l-.003-23.065c0-3.665 6.63-3.938 6.63.577v-2.922c0-3.945 6.418-5.32 6.419 1.744M13.975 35.953l.175-18.673v.767c0-3.522-6.497-4.47-6.498.832l-.06 6.434-.115 12.239.132-14.073c0-3.174-5.653-3.28-5.653.811l-.004 24.38c-.001 8.805 7.063 15.827 15.869 15.828s15.945-7.136 15.946-15.942c-.046-3.071.28-8.294.28-15.38-2.173-2.174-5.651.805-6.851 3.647v4.89l.002-23.065c.001-3.665-6.63-3.938-6.63.577v-2.922c.001-3.945-6.417-5.32-6.418 1.744"/></g><g fill="none" stroke="#000" stroke-linecap="round" stroke-linejoin="round" stroke-miterlimit="10" stroke-width="2"><path d="M20.566 35.241l.003-16.016M50.982 37.552l-.003-18.327M57.573 35.953l-.175-18.673v.767c0-3.522 6.497-4.47 6.498.832l.06 6.434.115 12.239-.132-14.073c0-3.173 5.652-3.28 5.653.811l.004 24.38c0 8.805-7.063 15.827-15.869 15.828s-15.945-7.136-15.946-15.942c.046-3.071-.28-8.294-.281-15.38 2.174-2.174 5.652.805 6.852 3.647v4.89l-.003-23.065c0-3.665 6.63-3.938 6.63.577v-2.922c0-3.945 6.418-5.32 6.419 1.744M50.982 37.552l-.003-18.327M20.566 37.552l.003-18.327M13.975 35.953l.175-18.673v.767c0-3.522-6.497-4.47-6.498.832l-.06 6.434-.115 12.239.132-14.073c0-3.174-5.653-3.28-5.653.811l-.004 24.38c-.001 8.805 7.063 15.827 15.869 15.828s15.945-7.136 15.946-15.942c-.046-3.071.28-8.294.28-15.38-2.173-2.174-5.651.805-6.851 3.647v4.89l.002-23.065c.001-3.665-6.63-3.938-6.63.577v-2.922c.001-3.945-6.417-5.32-6.418 1.744"/></g></svg>