<svg xmlns="http://www.w3.org/2000/svg" viewBox="0 0 72 72"><path fill="#ea5a47" d="m22.647 27.358 4.808-2.504 17.533-.042 5.222 4.049 2.612 9.184 2.031 1.753-.456 12.356-37.013.377v-13.48l1.03-.54 4.233-11.153z"/><path fill="#92d3f5" d="m23.192 37.462 25.564-.019-2.91-9.288H26.314l-3.122 9.307z"/><path fill="#fcea2b" d="M19.978 41.33h5v3.51h-5zm26 0h5v3.51h-5z"/><rect width="37.242" height="4.236" x="17.641" y="47.844" fill="#3f3f3f" rx="2.118" ry="2.118"/><path fill="none" stroke="#000" stroke-linecap="round" stroke-linejoin="round" stroke-width="2" d="M24.095 37.443h24.661l-2.878-8.591"/><path fill="none" stroke="#000" stroke-linecap="round" stroke-miterlimit="10" stroke-width="2" d="M32 42.161h9m-9 2.632h9"/><path fill="none" stroke="#000" stroke-linecap="round" stroke-linejoin="round" stroke-width="2" d="M21 44.793h4v-2.632m22 2.632h4v-2.632"/><rect width="6" height="3.51" x="18" y="52.49" rx="1.755" ry="1.755"/><rect width="6" height="3.51" x="48" y="52.49" rx="1.755" ry="1.755"/><rect width="4.965" height="3.274" x="52.478" y="35.502" rx="1.637" ry="1.637"/><rect width="4.965" height="3.274" x="14.504" y="35.686" rx="1.637" ry="1.637"/><path fill="none" stroke="#000" stroke-linecap="round" stroke-linejoin="round" stroke-width="2" d="m19.598 38.337 2.05-6.963c1.128-3.83 4.819-6.964 8.202-6.964H36m16.402 13.927-2.05-6.963c-1.129-3.83-4.819-6.964-8.202-6.964H36m.262 28.08H19.913a2.946 2.946 0 0 1-2.926-2.947v-7.038c0-1.596.89-4.075 2.492-4.075"/><path fill="none" stroke="#000" stroke-linecap="round" stroke-linejoin="round" stroke-width="2" d="M35.685 52.49h16.35a2.946 2.946 0 0 0 2.926-2.947v-7.038c0-1.596-.89-4.075-2.493-4.075"/></svg>