<svg xmlns="http://www.w3.org/2000/svg" viewBox="0 0 72 72"><g stroke-linejoin="round"><path fill="#fcea2b" stroke="#fcea2b" d="M13.5 28.5h43v24h-43z"/><path fill="none" stroke="#61b2e4" stroke-width="2" d="M14 47.5h42"/><path fill="#d0cfce" stroke="#d0cfce" stroke-linecap="round" stroke-width="2" d="M16.5 32.5h13v10h-13zM40.5 32.5h13v10h-13z"/><path fill="#9b9b9a" stroke="#9b9b9a" stroke-linecap="round" d="M30.5 32.5h4v10h-4zM35.5 32.5h4v10h-4z"/></g><g stroke="#000" stroke-linecap="round" stroke-linejoin="round"><path fill="none" stroke-width="2.032" d="M14.146 29h41.708A1.146 1.146 0 0157 30.146V52h0-44 0V30.146A1.146 1.146 0 0114.146 29z"/><path stroke-width="2" d="M5 17h62v3H5z"/><path fill="none" stroke-width="2" d="M16 19l3 6M25 19l-2 6M43 19l3 6M52 19l-2 6M19 25h4M46 25h4M48 25v3M21 25v3"/><path fill="none" stroke-width="1.988" d="M16 43h38M16 32v11M54 32v11M16 32h38M40 33v9M30 33v9"/><path fill="none" stroke-width="2" d="M40 32h14v11H40zM16 32h14v11H16z"/><path fill="none" stroke-width="1.988" d="M35 32v11"/><path fill="none" stroke-width="2" d="M30 32h5v11h-5z"/><path fill="none" d="M35 32h5v11h-5z"/><path fill="none" stroke-width="2" d="M30 43v8M40 43v8"/></g></svg>