<svg xmlns="http://www.w3.org/2000/svg" viewBox="0 0 72 72"><path fill="#b1cc33" d="M22.087 36.099h45.278v12.025H22.087z"/><rect width="6.341" height="10.646" x="34.919" y="32.77" fill="#92d3f5" rx="1.058" ry="1.058"/><rect width="6.341" height="10.646" x="21.963" y="32.77" fill="#92d3f5" rx="1.058" ry="1.058"/><rect width="6.341" height="10.646" x="47.929" y="32.77" fill="#92d3f5" rx="1.058" ry="1.058"/><rect width="6.341" height="10.646" x="60.939" y="32.77" fill="#92d3f5" rx="1.058" ry="1.058"/><path fill="#d0cfce" d="M34.31 51.646a4.245 4.245 0 1 1-8.489 0m37.456 0a4.245 4.245 0 0 1-8.49 0"/><path fill="#92d3f5" d="m16 22 5-5 5 5-2 1-2-2-2 2-2-1-3 2-1-1 2-1zm26.167-6.571L50.083 9 58 15.429l-3.167 1.285-3.166-2.571-3.167 2.571-3.167-1.285L40.583 18 39 16.714l3.167-1.285z"/><path fill="#3f3f3f" d="M22.757 47.584h43.938v4.063H22.757z"/><g stroke="#000" stroke-linecap="round"><path stroke-linejoin="round" stroke-width="2" d="M4 56h64"/><path fill="none" stroke-linejoin="round" stroke-width="2" d="M68 22 50 9 29 24l-8-8L4 32"/><path fill="none" stroke-miterlimit="10" stroke-width="2.074" d="M23.71 50.646h-.82a.89.89 0 0 1-.888-.888V28.824a1.902 1.902 0 0 1 1.896-1.897h41.485a1.902 1.902 0 0 1 1.897 1.897v20.934a.89.89 0 0 1-.888.888h-.83m-13.03 0H36.406m-2.096 1.252a4.245 4.245 0 1 1-8.489 0m37.456-.252a4.245 4.245 0 0 1-8.49 0"/><rect width="6.341" height="10.646" x="34.919" y="32.78" fill="none" stroke-miterlimit="10" stroke-width="2.074" rx="1.058" ry="1.058"/><rect width="6.341" height="10.646" x="21.963" y="32.78" fill="none" stroke-miterlimit="10" stroke-width="2.074" rx="1.058" ry="1.058"/><rect width="6.341" height="10.646" x="47.757" y="32.859" fill="none" stroke-miterlimit="10" stroke-width="2.074" rx="1.058" ry="1.058"/><rect width="6.341" height="10.646" x="60.939" y="32.859" fill="none" stroke-miterlimit="10" stroke-width="2.074" rx="1.058" ry="1.058"/><path fill="none" stroke-miterlimit="10" stroke-width="1.97" d="M20.945 47.566h47.368"/></g></svg>