<svg xmlns="http://www.w3.org/2000/svg" viewBox="0 0 72 72"><path fill="#61b2e4" d="M59.92 61h-48a1 1 0 0 1-1-1V12a1 1 0 0 1 1-1h48a1 1 0 0 1 1 1v48a1 1 0 0 1-1 1z"/><path fill="#fff" d="m52.9 40.76-.64-15.31c-.093-1.839-1.37-3.742-3.17-3.759l-6.159-.108c-1.8.017-3.688 1.917-3.78 3.756l-.651 15.42c-.005.104.426.804.384.9l2.713-2.116-.745 17.69c-.026.252.211.522.365.72.03.04.074.065.122.072.17 0 .525-.342.588-.9l2.034-18.03 3.271.027 2.32 18c.063.559.416.9.587.9a.194.194 0 0 0 .122-.072.986.986 0 0 0 .2-.703l-.57-17.71 2.481 2.026c-.058-.108.534-.688.529-.811z"/><circle cx="45.68" cy="16.01" r="2.375" fill="#fff"/><path fill="#fff" d="m33.5 40.76-.66-15.5c-.091-1.839-1.11-3.489-2.91-3.507l-6.537-.16c-1.8.017-3.51 1.616-3.601 3.455l-.69 15.71c-.006.105.354.744.312.839l1.976-.832-.2 16.52c-.026.252.477.465.63.663a.19.19 0 0 0 .122.072c.171 0 .526-.342.589-.9l2.033-18.03h3.555l1.648 18.14c.063.559.802.786.973.786a.193.193 0 0 0 .122-.072c.153-.199.831-.462.805-.714l-.195-16.52 1.684.92c-.057-.108.35-.757.345-.88z"/><circle cx="26.35" cy="16.01" r="2.375" fill="#fff"/><g fill="none" stroke="#000" stroke-width="2"><path stroke-linecap="round" stroke-linejoin="round" stroke-miterlimit="10" d="M59.92 61h-48a1 1 0 0 1-1-1V12a1 1 0 0 1 1-1h48a1 1 0 0 1 1 1v48a1 1 0 0 1-1 1z"/><circle cx="45.68" cy="16.01" r="2.375" stroke-miterlimit="10"/><path stroke-linecap="round" stroke-linejoin="round" d="m49.7 26.36 1.52 30.4c.044.88-.46 1.6-1.12 1.6a1.66 1.66 0 0 1-1.383-1.59l-2.031-17.62c-.1-.874-.543-1.59-.983-1.59s-.88.715-.983 1.59l-2.034 17.62a1.661 1.661 0 0 1-1.383 1.59c-.66 0-1.164-.72-1.12-1.6l1.52-30.4"/><circle cx="26.36" cy="16.01" r="2.375" stroke-miterlimit="10"/><path stroke-linecap="round" stroke-linejoin="round" d="M30.33 26.67c-1.882 2.826-.542 4.886-.025 6.4.367 1.076.604 3.36.718 4.491.48 4.781.802 19.2.802 19.2.044.88-.46 1.6-1.12 1.6a1.66 1.66 0 0 1-1.383-1.59l-2.031-17.62c-.101-.874-.544-1.59-.984-1.59s-.88.715-.983 1.59l-2.034 17.62a1.661 1.661 0 0 1-1.383 1.59c-.66 0-1.164-.72-1.12-1.6 0 0 .418-14.27.859-19.01.11-1.178.296-3.559.661-4.684.494-1.522 1.933-3.791.023-6.4M38.5 40.76l.634-15.2a4.22 4.22 0 0 1 4.166-4h4.8a4.218 4.218 0 0 1 4.166 4l.633 15.2"/><path stroke-linecap="round" stroke-linejoin="round" d="m19.1 40.76.634-15.2a4.22 4.22 0 0 1 4.166-4h4.8a4.218 4.218 0 0 1 4.166 4l.633 15.2"/></g></svg>