<svg xmlns="http://www.w3.org/2000/svg" viewBox="0 0 72 72"><path fill="#92d3f5" d="M16.274 61.9s-1.8-13.9 10.2-13.9c3.2 2.1 5.9 3.6 9 3.6h-.1c3.1 0 6.3-1.6 9.5-3.7 11.6 0 9.6 13.9 9.8 14"/><path fill="#61b2e4" d="M44.844 47.285a18.274 18.274 0 0 1-8.87 3.514c13.1.4 13.1 7.1 13.8 11.1h5.1s1.97-14.614-10.03-14.614z"/><path fill="#92d3f5" d="M50.074 19.5c1.2.3.4 2.5-.4 3.5l-2.2 2.7h-.1a8.625 8.625 0 0 0-1.9-2l-.6-.4a15.38 15.38 0 0 0 1.3-1.2h-21.1a9.832 9.832 0 0 0 1.5 1.2l-.8.5a8.292 8.292 0 0 0-1.8 1.8l-.1-.1-2-2.4c-.8-1-1.6-3.2-.4-3.5 5.7-1.5 6-7.9 14.3-7.9s8.6 6.3 14.3 7.8zm-14.2.4c2.1 0 2.5-3.9 2.5-3.9a4.31 4.31 0 0 0-5-.1c-.1 0 .3 4 2.5 4z"/><path fill="#fcea2b" d="M35.874 19.9c-2.1 0-2.5-3.9-2.5-3.9a4.01 4.01 0 0 1 5 .1c0-.1-.4 3.8-2.5 3.8z"/><path fill="#61b2e4" d="M42.674 13.8s.9 8.2-2.6 8.2l5.3.3 1.7 3s3.7-1.9 3.6-5.2c.1 0-7.2-4.2-8-6.3z"/><path fill="#3f3f3f" d="M33.774 25.6a16.173 16.173 0 0 1-7.2-2.4c-.6-.4-1-.8-1.5-1.2h21.1a4.894 4.894 0 0 1-1.3 1.2 11.584 11.584 0 0 1-3.7 1.8 18.327 18.327 0 0 1-7.4.6z"/><path fill="#92d3f5" d="m44.474 48.1-3.7 8.8-2.6-2.7-2.5-2.6h.1c2.9-.1 5.6-1.5 8.7-3.5zm-8.9 3.5-2.6 2.7-2.6 2.6-3.6-8.9c3.1 2.1 5.8 3.5 8.8 3.6z"/><path fill="#fcea2b" d="M47.03 48.169 41.547 62h5.477l5.169-11.645s-2.768-2.698-5.163-2.186"/><path fill="#d0cfce" d="M11.822 39.203h10.557v14.976H11.822z"/><path fill="#fcea2b" d="m46.874 33.3.1-.1c-.7 7-5.5 12.5-11.3 12.5-5.9 0-10.6-5.5-11.3-12.6a12.562 12.562 0 0 1 9.3-7.4 18.327 18.327 0 0 0 7.4-.6c3.1.3 5.8 8.2 5.8 8.2zm-5.1-3.2a2 2 0 1 0-2 2 2.006 2.006 0 0 0 2-2zm-8 0a2 2 0 1 0-2 2 2.006 2.006 0 0 0 2-2z"/><path fill="#f4aa41" d="m46.974 33.2-.1.1s-2.7-8-5.8-8.2a10.643 10.643 0 0 0 3.7-1.8l.7.5a8.625 8.625 0 0 1 1.9 2c1.2 1.7 2 4.3-.4 7.4zm-22.5-.2a.774.774 0 0 0-.1.3c-2.6-3.3-1.6-6-.3-7.7a8.641 8.641 0 0 1 1.8-1.8l.8-.6a16.173 16.173 0 0 0 7.2 2.4 12.573 12.573 0 0 0-9.4 7.4z"/><path fill="none" stroke="#000" stroke-linecap="round" stroke-linejoin="round" stroke-width="2" d="m46.99 48.521-5.216 12.45m9.837-10.29-4.549 10.316"/><g fill="none" stroke="#000" stroke-linecap="round" stroke-linejoin="round" stroke-width="2"><path d="M22.378 48.744a11.998 11.998 0 0 1 4.396-.745c3.2 2.1 5.9 3.5 8.9 3.6h.1c3 0 5.6-1.4 8.7-3.5.1 0 .1-.1.2-.1 12 0 10 13 10 13m-37.9.001a16.229 16.229 0 0 1 .603-6.819"/><path d="m26.774 47.999 3.7 8.9 2.6-2.7 2.5-2.6m2.6 2.6-2.6-2.6m8.9-3.6v.1l-3.7 8.8-2.6-2.7"/></g><path d="M26.774 60.4h-5.8a1 1 0 1 1 0-2h5.8a.945.945 0 0 1 1 1 1.002 1.002 0 0 1-1 1zm9-20.3a6.921 6.921 0 0 1-3.4-.9.962.962 0 0 1 .9-1.7 5.154 5.154 0 0 0 5.1 0 .962.962 0 1 1 .9 1.7 7.594 7.594 0 0 1-3.5.9zm6-10a2 2 0 1 1-2-2 2.006 2.006 0 0 1 2 2zm-8 0a2 2 0 1 1-2-2 2.006 2.006 0 0 1 2 2z"/><path d="M35.774 46.7c-6.4 0-11.7-5.9-12.3-13.8l2-.2c.5 6.7 5 11.9 10.3 11.9s9.7-5 10.3-11.7c0-.5.1-1 .1-1.5h2a9.702 9.702 0 0 1-.1 1.7c-.7 7.8-6 13.6-12.3 13.6z"/><path d="M24.374 34.3a.91.91 0 0 1-.8-.4 7.231 7.231 0 0 1-1.8-5.7 8.31 8.31 0 0 1 3.4-5.2l.7-.5a1 1 0 0 1 1.2 1.6l-.8.6a6.163 6.163 0 0 0-2.6 3.9 4.367 4.367 0 0 0 .5 2.7 13.119 13.119 0 0 1 9.5-6.6.903.903 0 0 1 1.1.9.945.945 0 0 1-.9 1.1 10.854 10.854 0 0 0-8.7 7 .871.871 0 0 1-.8.6z"/><path d="M36.074 26.8c-4.7 0-9.2-1.5-11.7-4a.913.913 0 0 1-.2-1.1.961.961 0 0 1 .9-.6h21.1a.961.961 0 0 1 .9.6 1.073 1.073 0 0 1-.1 1.1c-2 2.4-5.7 3.9-10 4zm-7.8-3.7a17.89 17.89 0 0 0 8.6 1.7 13.836 13.836 0 0 0 6.5-1.7z"/><path d="M47.474 26.8a1.421 1.421 0 0 1-.6-.2.972.972 0 0 1-.1-1.4l2.2-2.7a4.061 4.061 0 0 0 .8-1.9c-2.6-.7-4.1-2.3-5.6-3.8-2-2-3.9-4-8.3-4-4.5 0-6.3 1.9-8.3 4-1.5 1.5-3 3.1-5.6 3.8a3.701 3.701 0 0 0 .8 1.9l2 2.4a.993.993 0 0 1-1.5 1.3l-2-2.4c-.7-.8-1.6-2.6-1.2-3.9a1.764 1.764 0 0 1 1.3-1.2 10.908 10.908 0 0 0 4.8-3.3c2.1-2.1 4.4-4.6 9.7-4.6s7.7 2.4 9.7 4.6c1.4 1.4 2.7 2.8 4.8 3.3a1.952 1.952 0 0 1 1.3 1.2c.4 1.3-.5 3.1-1.2 3.9l-2.2 2.7a1.91 1.91 0 0 1-.8.3z"/><path d="M46.974 34.3h-.2a.969.969 0 0 1-.8-.7c-1-3-3.3-7.4-4.9-7.5a.903.903 0 0 1-.9-1.1.955.955 0 0 1 1.1-.9c2.7.2 4.8 4.3 5.9 7a4.418 4.418 0 0 0 .4-2.5 6.163 6.163 0 0 0-2.6-3.9l-.7-.6a.993.993 0 0 1 1.3-1.5l.7.5a7.947 7.947 0 0 1 3.3 5.2 7.231 7.231 0 0 1-1.8 5.7 1.135 1.135 0 0 1-.8.3zm-11.1-13.4c-2.9 0-3.5-4.3-3.5-4.8a1.086 1.086 0 0 1 .4-.9c2-1.5 5-1.2 6.3.1a1.135 1.135 0 0 1 .3.8c-.1.5-.6 4.8-3.5 4.8zm0-2c.8 0 1.2-1.5 1.4-2.4a3.397 3.397 0 0 0-2.8 0c.2 1 .7 2.4 1.4 2.4zm3.9 9.2a2 2 0 1 1-2 2 2.006 2.006 0 0 1 2-2zm-8 0a2 2 0 1 1-2 2 2.006 2.006 0 0 1 2-2z"/><path fill="none" stroke="#000" stroke-linecap="round" stroke-linejoin="round" stroke-width="2" d="M22.379 48.744v-9.541H11.822v14.976h5.549"/><path fill="none" stroke="#000" stroke-linecap="round" stroke-linejoin="round" stroke-width="2" d="M17.371 54.179h5.008v-5.435"/></svg>