<svg xmlns="http://www.w3.org/2000/svg" viewBox="0 0 72 72"><path fill="#a57939" d="M56.973 55.428a3.335 3.335 0 01-1.818 3.266c-2.605 1.315-8.037 2.944-19.12 3.234q-1.175.031-2.268.03c-10.459 0-15.255-2.013-17.23-3.27a3.283 3.283 0 01-1.511-3.093v-16.89h41.96z"/><path fill="#6a462f" d="M37.457 42.197a80.275 80.275 0 01-28.383-5.248 1.032 1.032 0 01-.476-1.483c9.423-15.568 26.328-25.016 27.044-25.41a1.033 1.033 0 01.994-.003c.768.421 18.9 10.475 27.027 25.412a1.032 1.032 0 01.072.82 1 1 0 01-.552.613c-8.745 3.674-17.477 4.814-25.726 5.299zM33.883 61.966c-2.335 0-3.792-.093-3.905-.1a1 1 0 01-.933-.998V45.269a1 1 0 011-1h12.148a1 1 0 011 1v15.317a1 1 0 01-.908.996 92.864 92.864 0 01-8.402.384zm8.31-1.38z"/><path fill="#fcea2b" d="M36.994 11.444a1.16 1.16 0 00.136-.537.982.982 0 00-.034-.177.96.96 0 00-.063-.2c-.009-.017-.008-.037-.018-.055a.922.922 0 00-.09-.106.937.937 0 00-.078-.118c-.014-.014-.034-.019-.05-.032a.96.96 0 00-.17-.113 1.157 1.157 0 00-.538-.137.996.996 0 00-.178.034.963.963 0 00-.196.061c-.019.01-.04.008-.058.018-.715.395-17.612 9.84-27.031 25.4a.999.999 0 00.457 1.435 39.77 39.77 0 006.054 2.074 1.01 1.01 0 00.198.02l.008.001h.007a.993.993 0 00.294-.052.949.949 0 00.088-.035.987.987 0 00.185-.103.954.954 0 00.08-.06.986.986 0 00.15-.168c.017-.024.037-.043.052-.069l.01-.013a114.889 114.889 0 0120.638-26.846c.015-.015.02-.035.033-.05a.956.956 0 00.114-.171z"/><path fill="none" stroke="#000" stroke-linecap="round" stroke-linejoin="round" stroke-width="2" d="M53.74 33.087a127.35 127.35 0 013.057 5.087"/><g fill="none" stroke="#000" stroke-linecap="round" stroke-linejoin="round" stroke-width="2"><path d="M55.986 41.23l-.012 14.248a2.315 2.315 0 01-1.27 2.323c-2.187 1.105-7.373 2.831-18.694 3.127-11.758.307-16.898-1.786-18.935-3.082a2.3 2.3 0 01-1.049-2.199V41.231"/><path d="M30.044 57.816V45.269h12.149v12.547M62.757 35.958c-8.074-14.842-26.616-25-26.616-25S18.87 20.49 9.48 36M25.404 33.132a60.26 60.26 0 00-2.022 6.744M32.045 41.012s.284-3.383.97-8.026M46.918 33.197a60.281 60.281 0 012.022 6.744M40.192 41.049s-.283-3.383-.97-8.025M18.4 32.927q-1.535 2.425-3.056 5.086M53.74 33.087a127.35 127.35 0 013.057 5.087"/></g></svg>