<svg xmlns="http://www.w3.org/2000/svg" viewBox="0 0 72 72"><path fill="#d0cfce" d="M43.137 33.535L55 37.66c1.205.419 2.329 1.043 3.315 1.854 2.806 2.31 8.067 7.07 4.57 7.67-4.644.798-27.55-6.019-34.245-8.128-6.696-2.109-13.908-6.09-18.41-9.464-3.941-2.952 2.243-1.917 2.243-1.917s7.116 1.048 10.041 1.8l3.277.083"/><path fill="#9b9b9a" d="M22.938 29.423L14.69 16.11l-4.345-1.645 1.374 13.492M43.792 39.95L26.105 22.62l-2.57-.11 9.908 15.605"/><g><path fill="none" stroke="#000" stroke-linecap="round" stroke-linejoin="round" stroke-miterlimit="10" stroke-width="1.56" d="M20.382 26.398l-6.288-10.464-3.078-1.04 1.13 10.144M44.245 39.37l-18.14-16.75-2.57-.11 9.535 15.018"/><circle cx="32.453" cy="44.192" r="2" transform="rotate(-71.324 32.455 44.195)"/><circle cx="37.772" cy="45.77" r="2" transform="rotate(-71.324 37.775 45.773)"/><path fill="none" stroke="#000" stroke-linecap="round" stroke-linejoin="round" stroke-miterlimit="10" stroke-width="1.56" d="M43.26 34.33l11.434 3.285a10.836 10.836 0 013.955 2.093c2.86 2.385 7.653 6.845 4.274 7.425-4.643.798-27.549-6.019-34.245-8.128-6.695-2.109-13.907-6.09-18.41-9.464-3.94-2.953 2.244-1.917 2.244-1.917s7.116 1.048 10.042 1.8l2.941.755"/></g></svg>