<svg xmlns="http://www.w3.org/2000/svg" viewBox="0 0 72 72"><path fill="#61b2e4" d="M42.915 32.98a1 1 0 0 1 .817 1.578l-5.814 8.213h20.519a1 1 0 0 0 .979-.798 9.838 9.838 0 0 0-1.6-7.329c-1.673-2.21-4.41-3.466-8.138-3.734-14.53-1.044-14.308-15.82-14.291-16.45a1 1 0 0 0-1-1.026H17.665a1 1 0 0 0-.999.964c-.005.13-.485 13.11-2.27 17.305a21.437 21.437 0 0 0-1.49 6.886v3.182a1 1 0 0 0 1 1h8.302l6.63-9.369a1 1 0 0 1 .817-.422h4.505a1 1 0 0 1 .816 1.579l-5.812 8.213H31l6.631-9.37a1 1 0 0 1 .817-.422z"/><path fill="#b399c8" d="M58.443 46.426H14.357a2.827 2.827 0 0 1 0-5.654h44.086a2.827 2.827 0 0 1 0 5.654z"/><path fill="#d0cfce" d="m18.11 51.919-4.546-6.526h42.205l-4.42 6.526-8.434-.048-2.575-1.687H29.418l-2.359 1.735H18.11z"/><path fill="#3f3f3f" d="m57.416 45.393-4.044 5.891a1.098 1.098 0 0 0 .272 1.255l2.734 2.235 4.855-6.416z"/><path fill="#fcea2b" d="M22.416 60.709a6 6 0 1 1 6-6 6.007 6.007 0 0 1-6 6zm24.253 0a6 6 0 1 1 6-6 6.007 6.007 0 0 1-6 6z"/><g fill="none" stroke="#000" stroke-linecap="round" stroke-linejoin="round" stroke-width="2"><path d="M58.424 38.588c-.468-2.702-2.34-6.215-8.818-6.68-15.689-1.128-15.22-17.475-15.22-17.475h-16.72s-.47 13.247-2.349 17.662a20.204 20.204 0 0 0-1.41 6.494m20.888-20.136h-2.422m3.426 3.676h-2.422m4.286 3.504h-2.422m4.894 2.933h-2.421M24.097 41.772l5.559-7.792m-1.054 7.792 5.559-7.792m-1.272 7.792 5.559-7.792m-1.092 7.792 5.559-7.792M21.22 41.772h37.224a1.832 1.832 0 0 1 1.827 1.827h0a1.832 1.832 0 0 1-1.827 1.827H14.357a1.833 1.833 0 0 1-1.827-1.827h0a1.833 1.833 0 0 1 1.827-1.827h2.059m12.673 7.416H40.34m16.529-3.762 4.364 3.102-4.116 5.563-2.842-2.343"/><circle cx="22.416" cy="54.709" r="5"/><circle cx="46.669" cy="54.709" r="5"/><path d="m16.486 47.82.714 1.049m35.717-1.049-.713 1.049"/></g></svg>