<svg xmlns="http://www.w3.org/2000/svg" viewBox="0 0 72 72"><path fill="#6a462f" d="M18 25.438 16 14.25c-.875-4.498-7.688-3.625-7.188 1.75 0 0 3.89 21.948 4.448 29.348v-.256c.54 10.572 9.862 17.338 20.43 16.798a24.955 24.955 0 0 0 16.192-7.196c3.712-3.932 12.83-14.674 12.83-14.674 1.861-2.746.418-6.99-1.019-5.944l-12.562 5.916.319-.107c-2.398.847-3.04-1.532-2.825-3.245l2.111-27.884c.527-6.768-7.258-6.585-7.258-.962L40.312 23.5l-9.678.84-.595.602-.676-.491L18 25.437z"/><g fill="none" stroke="#000" stroke-linecap="round" stroke-linejoin="round" stroke-width="2"><path d="M18 25.438 16 14.25c-.875-4.498-7.688-3.625-7.188 1.75 0 0 3.89 21.948 4.448 29.348v-.256c.54 10.572 9.862 17.338 20.43 16.798a24.955 24.955 0 0 0 16.192-7.196c3.712-3.932 12.83-14.674 12.83-14.674 1.861-2.746.418-6.99-1.019-5.944l-12.562 5.916.319-.107c-2.398.847-3.04-1.532-2.825-3.245l2.111-27.884c.527-6.768-7.258-6.585-7.258-.962L40.312 23.5"/><path d="M30.04 27.604c.237-2.152 1.76-3.41 3.807-3.455 1.914-.043 3.94.957 3.96 3.277 0 0 .196 6.96.158 7.305a3.92 3.92 0 0 1-4.325 3.467c-2.152-.237-3.382-2.198-3.467-4.325l-.134-6.269zm-7.931 0c.237-2.152 1.76-3.41 3.807-3.455 1.914-.043 3.941.957 3.96 3.277 0 0 .196 6.96.158 7.305a3.92 3.92 0 0 1-4.325 3.467c-2.152-.237-3.382-2.198-3.467-4.325l-.133-6.269z"/></g></svg>