<svg xmlns="http://www.w3.org/2000/svg" viewBox="0 0 72 72"><path fill="#fcea2b" d="M36 59.959a24.034 24.034 0 0 1-15.34-5.542A24.001 24.001 0 1 1 36 59.959z"/><circle cx="25.112" cy="39.318" r="5.178" fill="#ffa7c0"/><circle cx="46.888" cy="39.318" r="5.178" fill="#ffa7c0"/><path fill="#fcea2b" d="M35.16 66.938a.937.937 0 0 1-.072-.003l-9.7-.7a1 1 0 0 1-.909-1.193c.537-2.68.994-4.723 1.229-5.778-.153-.313-.306-.638-.459-.963a59.111 59.111 0 0 0-.583-1.216c-.208-.416-.642-1.283-1.302-8.658-.203-2.03-.151-3.503.738-4.54a2.51 2.51 0 0 1 1.958-.949 2.556 2.556 0 0 1 2.339 1.41 39.274 39.274 0 0 1 2.606-5.13 3.434 3.434 0 0 1 2.705-1.987 2.562 2.562 0 0 1 1.443.392c1.243-1.573 2.659-1.674 3.668-1.163a3.391 3.391 0 0 1 1.729 2.757 2.606 2.606 0 0 1 .804.202 2.367 2.367 0 0 1 1.506 2.319 5.881 5.881 0 0 1-.59 2.491 2.634 2.634 0 0 1 .584.763 4.072 4.072 0 0 1-.12 3.732l-.85 1.608a26.147 26.147 0 0 0-.533 1.957l-.12.492a21.708 21.708 0 0 1-2.395 6.539 5.85 5.85 0 0 1-1.636 1.992c-.067.066-.133.127-.193.185a2.225 2.225 0 0 0-.277.286l-.07.432A36.559 36.559 0 0 0 36.158 66a1 1 0 0 1-.998.938z"/><path fill="none" stroke="#000" stroke-linecap="round" stroke-linejoin="round" stroke-width="2" d="M25.46 65.238c.6-3 1.1-5.2 1.3-6.1-.4-.8-.8-1.7-1.2-2.5-.2-.4-.6-1.6-1.2-8.3-.2-2-.1-3.1.5-3.8a1.563 1.563 0 0 1 1.2-.6c1.3 0 1.7 1.2 2 2.4l.1.3.2.6a39.478 39.478 0 0 1 3.5-7.5c1.8-3 3.5-.6 3.5-.6 2.2-4.1 5-.8 4 1.3a1.981 1.981 0 0 1 1.6-.1 1.416 1.416 0 0 1 .9 1.4 5.285 5.285 0 0 1-.9 2.8 2.189 2.189 0 0 1 1 .9 3.078 3.078 0 0 1-.1 2.8l-.9 1.7c-.3.9-.5 1.8-.7 2.6a20.784 20.784 0 0 1-2.3 6.3 4.744 4.744 0 0 1-1.4 1.7c-.4.4-.7.6-.8 1a42.776 42.776 0 0 0-.6 4.4"/><g fill="none" stroke="#000" stroke-linecap="round" stroke-width="2"><path stroke-linejoin="round" d="M21.4 53.648a22.996 22.996 0 1 1 21.539 4.276"/><path stroke-miterlimit="10" d="M31.635 31.735a4.615 4.615 0 0 0-6.2-2.4 4.685 4.685 0 0 0-2.4 2.4m25.8 0a4.615 4.615 0 0 0-6.2-2.4 4.685 4.685 0 0 0-2.4 2.4"/><path stroke-linejoin="round" d="M25.46 65.238c.6-3 1.1-5.2 1.3-6.1-.4-.8-.8-1.7-1.2-2.5-.2-.4-.6-1.6-1.2-8.3-.2-2-.1-3.1.5-3.8a1.563 1.563 0 0 1 1.2-.6c1.3 0 1.7 1.2 2 2.4l.1.3.2.6a39.478 39.478 0 0 1 3.5-7.5c1.8-3 3.5-.6 3.5-.6 2.2-4.1 5-.8 4 1.3a1.981 1.981 0 0 1 1.6-.1 1.416 1.416 0 0 1 .9 1.4 5.285 5.285 0 0 1-.9 2.8 2.189 2.189 0 0 1 1 .9 3.078 3.078 0 0 1-.1 2.8l-.9 1.7c-.3.9-.5 1.8-.7 2.6a20.784 20.784 0 0 1-2.3 6.3 4.744 4.744 0 0 1-1.4 1.7c-.4.4-.7.6-.8 1a42.776 42.776 0 0 0-.6 4.4"/></g></svg>