<svg xmlns="http://www.w3.org/2000/svg" viewBox="0 0 72 72"><path d="M36.285 57.943c2.897 0 5.245-2.927 5.245-6.538s-2.348-6.539-5.245-6.539-5.245 2.928-5.245 6.539 2.348 6.538 5.245 6.538z"/><path fill="#f1b31c" d="M17.285 26.192a10.697 10.697 0 0 0 5.137 1.433c.312.013.566.13.626.295.918 2.513 5.15 4.402 10.15 4.402a14.942 14.942 0 0 0 8.031-2.036 1.048 1.048 0 0 1 .758-.117 10.616 10.616 0 0 0 2.348.241c3.232 0 5.885-1.316 6.16-2.994.027-.16.27-.29.569-.307a9.624 9.624 0 0 0 3.962-1.045 46.123 46.123 0 0 0-37.74.128z"/><path fill="#fcea2b" d="M36.285 62.013a23.004 23.004 0 0 0 18.936-36.06 9.473 9.473 0 0 1-4.168 1.16c-.3.017-.542.146-.568.306-.276 1.678-2.93 2.994-6.161 2.994a10.616 10.616 0 0 1-2.348-.24 1.048 1.048 0 0 0-.758.116 14.942 14.942 0 0 1-8.03 2.036c-5.004 0-9.236-1.889-10.15-4.402-.06-.164-.315-.282-.627-.294a10.648 10.648 0 0 1-5.2-1.472 23 23 0 0 0 19.076 35.85z"/><path d="M36.285 57.943c2.897 0 5.245-2.927 5.245-6.538s-2.348-6.539-5.245-6.539-5.245 2.928-5.245 6.539 2.348 6.538 5.245 6.538z"/><path fill="#fff" d="M23.265 15.383c-.024.14-.246.253-.521.268-3.348.182-5.924 1.861-5.924 3.904 0 2.165 2.948 3.92 6.585 3.92h.492a8.324 8.324 0 0 1 1.942 2.698 21.438 21.438 0 0 1 1.197 4.668l.077.442a17.256 17.256 0 0 0 6.07 1.038 14.942 14.942 0 0 0 8.032-2.036 1.049 1.049 0 0 1 .757-.117 10.617 10.617 0 0 0 2.348.241 11.532 11.532 0 0 0 1.294-.072 19.402 19.402 0 0 1 1.11-4.164 8.331 8.331 0 0 1 1.942-2.698h-.152c3.993-.002 7.229-1.856 7.229-4.142 0-2.193-2.976-3.988-6.741-4.133-.287-.011-.52-.114-.575-.258-.84-2.199-4.72-3.852-9.307-3.852a14.198 14.198 0 0 0-7.362 1.782 1 1 0 0 1-.694.103 10.177 10.177 0 0 0-2.152-.211c-2.963 0-5.395 1.152-5.648 2.619z"/><path d="M48.285 38.013a3 3 0 1 1-3-3 3.001 3.001 0 0 1 3 3zm-18 0a3 3 0 1 1-3-3 3.001 3.001 0 0 1 3 3z"/><path fill="none" stroke="#000" stroke-linecap="round" stroke-linejoin="round" stroke-width="2" d="M36.285 62.013a23.004 23.004 0 0 0 18.936-36.06 9.475 9.475 0 0 1-4.168 1.16c-.3.017-.542.146-.568.306-.276 1.678-2.93 2.994-6.161 2.994a10.616 10.616 0 0 1-2.348-.24 1.048 1.048 0 0 0-.758.116 14.942 14.942 0 0 1-8.03 2.036c-5.004 0-9.236-1.889-10.15-4.402-.06-.164-.315-.282-.627-.294a10.648 10.648 0 0 1-5.2-1.472 23 23 0 0 0 19.076 35.85z"/><path fill="none" stroke="#000" stroke-linecap="round" stroke-linejoin="round" stroke-width="2" d="M36.285 57.943c2.897 0 5.245-2.927 5.245-6.538s-2.348-6.539-5.245-6.539-5.245 2.928-5.245 6.539 2.348 6.538 5.245 6.538zm-13.02-42.56c-.024.14-.246.253-.521.268-3.348.182-5.924 1.861-5.924 3.904 0 2.165 2.948 3.92 6.585 3.92h.492a8.324 8.324 0 0 1 1.942 2.698 21.438 21.438 0 0 1 1.197 4.668l.077.442a17.256 17.256 0 0 0 6.07 1.038 14.942 14.942 0 0 0 8.032-2.036 1.049 1.049 0 0 1 .757-.117 10.617 10.617 0 0 0 2.348.241 11.532 11.532 0 0 0 1.294-.072 19.402 19.402 0 0 1 1.11-4.164 8.331 8.331 0 0 1 1.942-2.698h-.152c3.993-.002 7.229-1.856 7.229-4.142 0-2.193-2.976-3.988-6.741-4.133-.287-.011-.52-.114-.575-.258-.84-2.199-4.72-3.852-9.307-3.852a14.198 14.198 0 0 0-7.362 1.782 1 1 0 0 1-.694.103 10.177 10.177 0 0 0-2.152-.211c-2.963 0-5.395 1.152-5.648 2.619z"/><path fill="none" stroke="#000" stroke-width="2" d="M23.785 23.593a17.658 17.658 0 0 0-6.5 2.5m31-2.5a19.339 19.339 0 0 1 7 2.5"/><path fill="none" stroke="#000" stroke-linejoin="round" stroke-width="2" d="M23.905 23.483c2.064.59 6.546 1.062 7.962-1.77 2.123 2.124 7.077 1.475 8.846 0 .884 1.77 4.423 3.186 7.962 1.77"/></svg>