<svg xmlns="http://www.w3.org/2000/svg" viewBox="0 0 72 72"><circle cx="36" cy="35.999" r="24" fill="#fcea2b"/><path fill="#fff" d="M51.58 34.554a11.555 11.555 0 0 1 1.22 4.408c-9.837 8.272-22.622 11.622-24.676 12.118a11.434 11.434 0 0 1-2.684-3.535l.098-.049s14.852-3.372 25.903-12.795z"/><path fill="#ea5a47" d="M52.799 38.962c.297 4.62-2.469 9.3-9.042 12.567-6.636 3.298-12.121 2.641-15.633-.449 2.053-.496 14.839-3.846 24.675-12.118z"/><path fill="#92d3f5" d="M67.693 32.909a4.242 4.242 0 0 1-5.374 2.672c-3.984-1.339-6.68-6.687-6.707-6.74.213-.092 5.447-2.637 9.41-1.306a4.241 4.241 0 0 1 2.67 5.374zM14.395 59.398a4.242 4.242 0 0 1-2.672-5.374c1.339-3.984 6.687-6.68 6.74-6.707.091.213 2.637 5.447 1.305 9.41a4.241 4.241 0 0 1-5.373 2.671z"/><g fill="none" stroke="#000" stroke-linejoin="round" stroke-width="2"><path stroke-linecap="round" d="m55.277 23.449-.093-.141a23.003 23.003 0 0 0-40.969 20.078l.14.4M25.037 56.22a23.531 23.531 0 0 0 21.199.376 23.343 23.343 0 0 0 12.486-17.023m-7.142-5.019a11.555 11.555 0 0 1 1.22 4.408c-9.837 8.272-22.622 11.622-24.676 12.118a11.434 11.434 0 0 1-2.684-3.535l.098-.049s14.852-3.372 25.903-12.795z"/><path stroke-linecap="round" d="M52.799 38.962c.297 4.62-2.469 9.3-9.042 12.567-6.636 3.298-12.121 2.641-15.633-.449 2.053-.496 14.838-3.846 24.675-12.118z"/><path d="M67.693 32.909a4.242 4.242 0 0 1-5.374 2.672c-3.984-1.339-6.68-6.687-6.707-6.74.213-.092 5.447-2.637 9.41-1.306a4.241 4.241 0 0 1 2.67 5.374zM14.395 59.398a4.242 4.242 0 0 1-2.672-5.374c1.339-3.984 6.687-6.68 6.74-6.707.091.213 2.637 5.447 1.305 9.41a4.241 4.241 0 0 1-5.373 2.671z"/><path stroke-linecap="round" d="m22.478 33.13 7.685.663-4.235 6.279m15.95-16.584-4.112 6.526 7.562.416"/></g></svg>