<svg xmlns="http://www.w3.org/2000/svg" viewBox="0 0 72 72"><path fill="#3f3f3f" d="M55.87 60.958H16.13a1 1 0 01-.987-.847c-.043-.282-1.017-6.937 2.697-11.266 2.008-2.339 4.963-3.525 8.783-3.525a1 1 0 01.555.168c3.316 2.21 5.954 3.587 8.822 3.6 2.868-.014 5.505-1.39 8.822-3.6a1 1 0 01.555-.168c3.821 0 6.776 1.186 8.783 3.526 3.714 4.33 2.74 10.983 2.698 11.265a1 1 0 01-.989.847z"/><path fill="#fff" d="M46.358 46.513l.002-.014a.919.919 0 00-.002-.108.712.712 0 00-.1-.506.954.954 0 00-.049-.12l-.006-.006a1.001 1.001 0 00-.219-.218c-.021-.017-.036-.043-.058-.057-.009-.006-.02-.007-.03-.012a.994.994 0 00-.333-.133l-.007-.003a.935.935 0 00-.136.002.7.7 0 00-.498.109.935.935 0 00-.1.04c-3.317 2.211-5.954 3.587-8.822 3.6-2.862-.013-5.495-1.384-8.801-3.586l-.013-.009-.008-.005c-.018-.011-.038-.012-.056-.022a.766.766 0 00-.542-.127.948.948 0 00-.136-.002l-.007.003a.984.984 0 00-.47.25 1.002 1.002 0 00-.168.168l-.008.007a.963.963 0 00-.062.152.724.724 0 00-.087.517c.003.022-.005.043-.001.065l.001.008.004.017c.247 1.35 2.46 12.304 6.585 14.296a.997.997 0 00.434.1h6.64a.997.997 0 00.435-.1c4.13-1.995 6.375-12.974 6.618-14.302z"/><path d="M40.259 59.467l-2.067-3.153a4.654 4.654 0 00.374-.376c1.646-2.008.923-5.912.835-6.35-.001-.007-.006-.011-.007-.018s.001-.012 0-.019a.936.936 0 00-.068-.144 1.002 1.002 0 00-.094-.202.965.965 0 00-.1-.1 1.21 1.21 0 00-.531-.3 901.051 901.051 0 00-.375-.002c-.01.002-.018.009-.027.01-.004.002-.008 0-.013 0a8.905 8.905 0 01-4.372 0h-.013c-.01-.002-.017-.008-.027-.01a.982.982 0 00-.222.001 1.003 1.003 0 00-.15 0 4.706 4.706 0 00-.353.137.992.992 0 00-.193.176.943.943 0 00-.086.086.986.986 0 00-.104.222.925.925 0 00-.058.126c-.002.005 0 .01-.001.016-.002.007-.007.012-.008.02-.088.439-.81 4.342.835 6.35a4.69 4.69 0 00.38.373l-2.073 3.14a.919.919 0 00-.048.98.999.999 0 00.88.528h6.853a.998.998 0 00.88-.527.89.89 0 00-.047-.964z"/><path fill="#debb90" d="M36.322 44.284c-.068 0-.138 0-.206-.002-6.96-.145-12.465-7.763-12.274-16.982a23.622 23.622 0 011.247-7.603 1 1 0 01.586-.551.99.99 0 01.803.058 25.356 25.356 0 0020.476-.036 1 1 0 011.377.736 43.874 43.874 0 01.755 7.934 19.764 19.764 0 01-3.844 11.622 11.316 11.316 0 01-8.92 4.824z"/><g><path fill="#fcea2b" d="M53.325 15.336a5.971 5.971 0 00-5.045-3.564 7.449 7.449 0 00-4.333 1.054c-1.389-1.552-5.031-5.044-9.91-5.3-3.695-.196-7.273 1.515-10.645 5.136a7.294 7.294 0 01-6.642 2.412 1 1 0 00-1.16 1.157c.07.398.638 3.329 2.508 4.697a5.824 5.824 0 00-1.196 3.048 5.514 5.514 0 001.586 4.103c.638 1.512 4.087 9.223 8.405 10.074a.961.961 0 00.085.022c.018.004.035.012.053.015a.995.995 0 00.138.01c.007 0 .014.003.022.003a.994.994 0 00.31-.056c.03-.01.058-.023.087-.035a.948.948 0 00.094-.038c.023-.014.036-.037.059-.052a.977.977 0 00.178-.154.962.962 0 00.088-.105.982.982 0 00.103-.206.962.962 0 00.046-.132c.006-.022.019-.04.023-.062a131.672 131.672 0 01-.013-.327 215.659 215.659 0 00-.106-.325 18.542 18.542 0 01-2.218-9.391 25.05 25.05 0 01.746-5.866 27.24 27.24 0 0019.98.027 36.13 36.13 0 01.52 6.277c0 .005.002.009.001.014l-.002.013a19.292 19.292 0 01-1.475 7.084c-.006.014-.003.028-.009.042a.993.993 0 00-.045.22.584.584 0 00.017.352.98.98 0 00.054.189c.007.016.005.032.013.047a.941.941 0 00.09.113 1.912 1.912 0 00.408.348c.014.006.03.004.044.01a.982.982 0 00.209.042 1.06 1.06 0 00.138.028c.016 0 .03-.006.046-.006.03-.002.058-.009.088-.013a.987.987 0 00.268-.076c.018-.008.038-.007.056-.016 11.501-5.94 6.395-20.646 6.336-20.813z"/></g><g><path fill="none" stroke="#000" stroke-linecap="round" stroke-linejoin="round" stroke-width="2" d="M48.086 27.805a43.376 43.376 0 00-.738-7.718h0a26.09 26.09 0 01-21.338 0 22.928 22.928 0 00-1.168 7.233c-.18 8.682 4.876 15.828 11.294 15.962s11.769-6.795 11.95-15.477"/><path fill="none" stroke="#000" stroke-linecap="round" stroke-linejoin="round" stroke-width="2" d="M46.53 35.26c10.856-5.606 5.86-19.568 5.86-19.568a4.98 4.98 0 00-4.198-2.924 6.72 6.72 0 00-4.434 1.389S34.646 2.055 24.17 13.29a8.345 8.345 0 01-7.597 2.768s.714 4.088 3.187 4.528c0 0-3.916 3.204-.417 6.947 0 0 3.687 8.996 7.848 9.669"/><path d="M42.169 29.773a2 2 0 11-2-2 2 2 0 012 2M34.169 29.773a2 2 0 11-2-2 2 2 0 012 2M36.168 39.775a7.652 7.652 0 01-3.447-.858 1 1 0 01.895-1.789 5.377 5.377 0 005.105 0 1 1 0 11.895 1.79 7.653 7.653 0 01-3.448.857z"/><path fill="none" stroke="#000" stroke-linecap="round" stroke-linejoin="round" stroke-width="2" d="M33.58 49.785s-1.266 6.317 2.42 6.317 2.42-6.317 2.42-6.317"/><path fill="none" stroke="#000" stroke-linecap="round" stroke-linejoin="round" stroke-width="2" d="M35.108 56.153l-2.534 3.836c-3.808-1.85-5.95-13.67-5.95-13.67l-5.356 7.313 3.12 1.943-1.048 3.283 9.305 1.13M36.892 56.153l2.534 3.836c3.808-1.85 5.95-13.67 5.95-13.67l5.356 7.313-3.12 1.943 1.048 3.283-9.305 1.13"/><path fill="none" stroke="#000" stroke-linecap="round" stroke-linejoin="round" stroke-width="2" d="M16.131 59.959s-2.098-13.64 10.492-13.64c3.349 2.233 6.218 3.776 9.443 3.769h-.132c3.225.007 6.094-1.536 9.443-3.769 12.59 0 10.492 13.64 10.492 13.64"/></g></svg>