<svg xmlns="http://www.w3.org/2000/svg" viewBox="0 0 72 72"><path fill="#D0CFCE" d="M46.98 21.405s15 22.85 0 22.85h-22c-15 0 0-22.85 0-22.85"/><path fill="#EA5A47" d="M25.434 19.994c0-5.825 4.722-10.546 10.546-10.546s10.546 4.721 10.546 10.546m8.329 40.996s2-13.985-10-13.985c-3.192 2.128-5.926 3.599-9 3.592h.125c-3.074.007-5.808-1.464-9-3.592-12 0-10 13.985-10 13.985"/><path fill="#D22F27" d="M44.855 47.005c-3.17 2.113-4.875 3-8.938 3.589 13.063.411 13.063 6.41 13.825 10.41h5.113s2-13.999-10-13.999z"/><path fill="#FFF" d="M39.6 55.047c5.188-.486 8.954-2.906 10.354-6.977-1.33-.66-2.995-1.065-5.1-1.065-3.169 2.113-5.889 3.575-8.937 3.589-3.048-.014-5.767-1.476-8.937-3.589-2.048 0-3.68.385-4.991 1.012 2.363 3.94 5.82 6.164 10.356 6.871.416.065.834.09 1.254.096.935.012 2.804.04 4.762.094.412.011.83.008 1.24-.03zM28.98 31.405a3 3 0 1 0 6 0h2a3 3 0 1 0 6 0m2.119-13.86c-.88 0-1.674.342-2.28.887a3.394 3.394 0 0 0-2.28-.887 3.4 3.4 0 0 0-2.28.887c-.605-.545-1.4-.887-2.28-.887s-1.673.342-2.279.887a3.394 3.394 0 0 0-2.28-.887 3.4 3.4 0 0 0-2.28.887 3.394 3.394 0 0 0-2.28-.887 3.42 3.42 0 0 0 0 6.84c.88 0 1.675-.342 2.28-.888.607.546 1.4.887 2.28.887.88 0 1.674-.341 2.28-.887.606.546 1.4.887 2.28.887s1.674-.341 2.28-.887c.606.546 1.4.887 2.28.887.88 0 1.673-.341 2.28-.887a3.39 3.39 0 0 0 2.279.887 3.42 3.42 0 1 0 0-6.839z"/><path fill="#FCEA2B" d="m46.997 27.041-.017.003c-5 .64-13-3.704-13-3.704s-4 4.343-9 3.704l-.017-.003a17.602 17.602 0 0 0-.322 3.364c0 7.828 5.077 14.173 11.339 14.173s11.339-6.345 11.339-14.173a17.6 17.6 0 0 0-.322-3.364zM31.98 34.405a3 3 0 0 1-3-3h6a3 3 0 0 1-3 3zm8 0a3 3 0 0 1-3-3h6a3 3 0 0 1-3 3z"/><path fill="none" stroke="#000" stroke-linecap="round" stroke-linejoin="round" stroke-miterlimit="10" stroke-width="2" d="M25.66 17.77c1.03-4.76 5.26-8.32 10.32-8.32s9.29 3.56 10.32 8.32m8.555 42.235s2-13-10-13c-3.192 2.128-5.926 3.599-9 3.592h.125c-3.074.007-5.808-1.464-9-3.592-12 0-10 13-10 13"/><path fill="none" stroke="#000" stroke-linecap="round" stroke-linejoin="round" stroke-miterlimit="10" stroke-width="2" d="M39.6 55.047c5.188-.486 8.954-2.906 10.354-6.977-1.33-.66-2.995-1.065-5.1-1.065-3.169 2.113-5.889 3.575-8.937 3.589-3.048-.014-5.767-1.476-8.937-3.589-2.048 0-3.68.385-4.991 1.012 2.363 3.94 5.82 6.164 10.356 6.871.416.065.834.09 1.254.096.935.012 2.804.04 4.762.094.412.011.83.008 1.24-.03zM23.94 23.03c-3.122 5.09-11.463 20.375 1.04 20.375m22 0c12.483 0 4.189-15.237 1.054-20.35M47 27.04c.21 1.08.32 2.21.32 3.37 0 7.82-5.08 14.17-11.34 14.17s-11.34-6.35-11.34-14.17c0-1.16.11-2.29.32-3.37h.02c2.95.38 5.55-1.3 7.19-2.75"/><path fill="none" stroke="#000" stroke-linecap="round" stroke-linejoin="round" stroke-miterlimit="10" stroke-width="2" d="M37.06 24.19c2.78 1.47 6.9 3.24 9.92 2.85"/><path d="M41.98 29.044a2 2 0 1 1-4.001-.001 2 2 0 0 1 4.001.001m-8 0a2 2 0 1 1-4.001-.001 2 2 0 0 1 4.001.001m2 10.003c-1.152 0-2.304-.286-3.447-.858a1 1 0 1 1 .894-1.79c1.718.86 3.388.86 5.106 0a1 1 0 0 1 .894 1.79c-1.143.572-2.295.858-3.447.858z"/><path fill="none" stroke="#000" stroke-linecap="round" stroke-linejoin="round" stroke-miterlimit="10" stroke-width="2" d="M28.98 31.405a3 3 0 1 0 6 0h2a3 3 0 1 0 6 0m2.119-13.86c-.88 0-1.674.342-2.28.887a3.394 3.394 0 0 0-2.28-.887 3.4 3.4 0 0 0-2.28.887c-.605-.545-1.4-.887-2.28-.887s-1.673.342-2.279.887a3.394 3.394 0 0 0-2.28-.887 3.4 3.4 0 0 0-2.28.887 3.394 3.394 0 0 0-2.28-.887 3.42 3.42 0 0 0 0 6.84c.88 0 1.675-.342 2.28-.888.607.546 1.4.887 2.28.887.88 0 1.674-.341 2.28-.887.606.546 1.4.887 2.28.887s1.674-.341 2.28-.887c.606.546 1.4.887 2.28.887.88 0 1.673-.341 2.28-.887a3.39 3.39 0 0 0 2.279.887 3.42 3.42 0 1 0 0-6.839z"/></svg>