<svg xmlns="http://www.w3.org/2000/svg" viewBox="0 0 72 72"><path fill="none" stroke="#000" stroke-linecap="round" stroke-linejoin="round" stroke-width="2" d="M62 55.5V17H10v38.5m52 0-9.096-9.096M20 46h33m-43 9.5 9.096-9.096M10 17l9.32 28.583m-8.568-27.5h51m-12.732 0h12.582m-44.716 21h38.866m-6.732 0h6.913m-41.181-7h42m-7.732 0h8.33M35.77 17.5v28m-7-28v28m-7-28v28m-7-28v32.949m28-32.366v27.5m7-28.067v28.067m7-27.5v31.999M42.77 21v15.167M12.768 25.083h46.984m-10.984 0h11.417M57.35 32l4.508 4.508m-2.106-11.425 2.151 2.155m-6.801 11.845 6.898 6.5m-47.313-13.5-4.424 4.424m2.505-10.727-2.608 2.607m7.011 10.433-6.834 6.439M53 46l9-28"/><g fill="none" stroke-width="2"><path stroke="#d0cfce" stroke-miterlimit="10" d="M10.752 18.083h51"/><path stroke="#9b9b9a" stroke-miterlimit="10" d="M49.02 18.083h12.582"/><path stroke="#d0cfce" stroke-miterlimit="10" d="M16.886 39.083h38.866"/><path stroke="#9b9b9a" stroke-miterlimit="10" d="M49.02 39.083h6.913"/><path stroke="#d0cfce" stroke-miterlimit="10" d="M14.752 32.083h42"/><path stroke="#9b9b9a" stroke-miterlimit="10" d="M49.02 32.083h8.33"/><path stroke="#d0cfce" stroke-miterlimit="10" d="M35.77 17.5v28m-7-28v28m-7-28v28m-7-28v33.858m28-33.275v27.5"/><path stroke="#9b9b9a" stroke-miterlimit="10" d="M49.77 17.516v28.067m7-27.5v32.374"/><path stroke="#d0cfce" stroke-miterlimit="10" d="M42.77 21v15.167M12.768 25.083h46.984"/><path stroke="#9b9b9a" stroke-miterlimit="10" d="M48.768 25.083h11.417M57.35 32l4.795 4.795m-2.393-11.712 2.393 2.398m-7.043 11.602 6.898 6.5"/><path stroke="#d0cfce" stroke-miterlimit="10" d="m14.687 32.083-4.931 4.931m3.727-11.95-3.727 3.727m7.415 10.029-7.41 6.983"/><path stroke="#000" stroke-linecap="round" stroke-linejoin="round" d="m53 46 9-28m0 37.5V17H10v38.5m52 0-9.096-9.096M20 46h33m-43 9.5 9.096-9.096M10 17l9.32 28.583M53 46l9-28"/></g></svg>