<svg xmlns="http://www.w3.org/2000/svg" viewBox="0 0 72 72"><ellipse cx="36" cy="30.5" fill="#92d3f5" rx="11.533" ry="27.882" transform="rotate(-70 36 30.5)"/><path fill="#61b2e4" d="M62.2 40.036c-2.179 5.986-15.675 6.568-30.145 1.302s-17.22-8.31-14.093-12.54c.958-1.295 5.245 4.31 21.983 10.094C54.499 43.92 64.379 34.05 62.2 40.036z"/><g fill="none" stroke="#000" stroke-linecap="round" stroke-linejoin="round" stroke-width="2"><ellipse cx="36" cy="30.5" rx="6.799" ry="21.979" transform="rotate(-69.796 36 30.5)"/><ellipse cx="36" cy="30.5" rx="11.533" ry="27.882" transform="rotate(-70 36 30.5)"/><path d="M39.802 52.363c2.887 1.593 21.926 6.78 23.98 1.8m-26.004-5.318c2.358 1.41 18.063 6.284 19.919 2.197"/></g></svg>