<svg xmlns="http://www.w3.org/2000/svg" viewBox="0 0 72 72"><path fill="#d0cfce" d="M45.993 66H26.254a2.663 2.663 0 01-2.659-2.66v-2.43a1 1 0 011-1h.002l23.058.043a1 1 0 01.998 1v2.388A2.663 2.663 0 0145.993 66zM51.297 28.832c5.059 0 9.159-2.61 9.159-5.832s-4.1-5.832-9.159-5.832c-4.698 0-8.566 1.355-9.093 4.257l-28.413-.811a2 2 0 000 4l28.418-.029c.535 2.897 4.396 4.247 9.088 4.247z"/><path fill="#fff" d="M47.332 61.953h-.023l-22.716-.043a12.095 12.095 0 01-7.65-2.74A29.916 29.916 0 016 36a1 1 0 011-1h58a1 1 0 011 1 29.903 29.903 0 01-11.026 23.238 12.1 12.1 0 01-7.642 2.715z"/><path fill="#d0cfce" d="M65 35H53.595a1 1 0 011 1 29.903 29.903 0 01-11.026 23.238 12.087 12.087 0 01-7.164 2.695l10.904.02h.023a12.1 12.1 0 007.642-2.715A29.903 29.903 0 0066 36a1 1 0 00-1-1z"/><g fill="none" stroke="#000" stroke-linecap="round" stroke-linejoin="round" stroke-width="2"><path d="M24.595 60.91a11.069 11.069 0 01-7.016-2.511A28.941 28.941 0 017 36h58a28.943 28.943 0 01-10.658 22.464 11.074 11.074 0 01-7.031 2.49l-17.569-.034"/><path d="M24.595 60.91v2.431A1.659 1.659 0 0026.254 65h19.74a1.659 1.659 0 001.658-1.659v-2.388M51.297 28.832c5.059 0 9.159-2.61 9.159-5.832s-4.1-5.832-9.159-5.832c-4.698 0-8.566 1.355-9.093 4.257h0l-28.413-.811a2 2 0 000 4l28.418-.029h0c.535 2.897 4.396 4.247 9.088 4.247z"/></g></svg>