<svg xmlns="http://www.w3.org/2000/svg" viewBox="0 0 72 72"><path fill="#FFF" d="M66.747 49.062s-1.896 3.051-2.025 4.1c-.207 1.685-.376 3.075-2.075 3.075H9.353c-1.699 0-2.868-1.39-3.075-3.075-.13-1.049-1.167-4.1-1.167-4.1l-.119-6.858c2.36-3.433 10.59-5.44 31.008-5.44 20.172 0 31.612.101 30.923 4.236l-.176 8.062z"/><path fill="#fcea2b" d="M63.73 36.326c-.357-1.523-.937-3.326-.937-3.326-2.84-6.856-8.297-12.63-15.695-15.694-14.475-5.995-31.02.595-37.474 14.735 0 0-.78 1.865-1.15 4.222C6.464 36.91 5 38.774 5 41a5 5 0 0 0 5 5c1.866 0 3.474-1.034 4.333-2.549.86 1.515 2.468 2.549 4.334 2.549 1.865 0 3.475-1.035 4.333-2.55.858 1.515 2.468 2.55 4.333 2.55 1.866 0 3.475-1.034 4.334-2.549C32.527 44.966 34.134 46 36 46s3.474-1.034 4.333-2.549c.86 1.515 2.468 2.549 4.334 2.549 1.865 0 3.475-1.035 4.333-2.55.858 1.515 2.468 2.55 4.333 2.55 1.866 0 3.475-1.034 4.334-2.549C58.527 44.966 60.134 46 62 46a5 5 0 0 0 5-5c0-2.15-1.366-3.969-3.27-4.674z"/><path fill="none" stroke="#000" stroke-linecap="round" stroke-linejoin="round" stroke-miterlimit="10" stroke-width="2" d="M66 49s-.874 2.977-1 4c-.202 1.645-1.343 3-3 3H10c-1.657 0-2.798-1.355-3-3-.126-1.023-1-4-1-4m57.73-12.674c-.357-1.523-.937-3.326-.937-3.326-2.84-6.856-8.297-12.63-15.695-15.694-14.475-5.995-31.02.595-37.474 14.735 0 0-.78 1.865-1.15 4.222C6.464 36.91 5 38.774 5 41a5 5 0 0 0 5 5c1.866 0 3.474-1.034 4.333-2.549.86 1.515 2.468 2.549 4.334 2.549 1.865 0 3.475-1.035 4.333-2.55.858 1.515 2.468 2.55 4.333 2.55 1.866 0 3.475-1.034 4.334-2.549C32.527 44.966 34.134 46 36 46s3.474-1.034 4.333-2.549c.86 1.515 2.468 2.549 4.334 2.549 1.865 0 3.475-1.035 4.333-2.55.858 1.515 2.468 2.55 4.333 2.55 1.866 0 3.475-1.034 4.334-2.549C58.527 44.966 60.134 46 62 46a5 5 0 0 0 5-5c0-2.15-1.366-3.969-3.27-4.674zM36 32v-6m-13.556 3.557 4.778-4.779m22.335 4.779-4.779-4.779"/></svg>