<svg xmlns="http://www.w3.org/2000/svg" viewBox="0 0 72 72"><path fill="#d22f27" d="M51 27h4v2h-4zm-34 0h4v2h-4zm3 22h32v2H20z"/><g fill="none" stroke="#000" stroke-linecap="round" stroke-linejoin="round" stroke-width="2"><path d="m17.712 29.958 2.85 24.542h30.875l2.85-24.542"/><path d="M54.269 29.956 51.437 54.5H20.562L17 23.625m38 0-.73 6.331M15 22 8 37m49-15 7 15M20 22h32m-32 0 2 15m30-15-2 15m-28 0h28M21 51h30m-31-3h31M18 26h2m-2 3h2m32-3h2m-2 3h2m-12-7 12.709-11.276a.961.961 0 0 0-1.359-1.36L42 22m-4 0L49.32 6.549a.955.955 0 0 0-.29-1.359.997.997 0 0 0-1.36.291L38 22"/></g></svg>