<svg xmlns="http://www.w3.org/2000/svg" viewBox="0 0 72 72"><path fill="#E27022" d="m17.123 5.306-3.324 4.042-2.11 12.895 2.5 11.917-2.5 5.035.482 11.388 2.234 4.5S21.338 51.75 23.171 59l12.902 3.833 13.216-4.25.715-2.439 3.575-2.278 3.523.548 2.573-6.13.637-6.284-1.722-6.575-.777-1.264 1.447-4.767.217-8.943-.963-9.823-1.704-3.87-2.639-2.091-5.185 6.578-5.482 6.707h-1.333l-5.16-1.41-9.173.58-4.75-5.039-3.275-5.166-2.69-1.611"/><path fill="#FFF" d="M11.338 45.083c6.042-.655 11.99 4.542 15.991 10.003l6.009 2.247 2.656.761 3.052-.844 5.709-2.084s5.083-11.25 15.916-10.139l-2.083 8.254L56.9 55l-3.187-.844-3.063 1.387-1.517 3.09s-3.545 4.456-12.869 4.45c-5.828-.003-12.26-1.375-13.473-4.484-.86-2.207-3.828-5.037-3.828-5.037l-4.493.357-3.132-8.836z"/><path fill="#d0cfce" d="M28.796 60.958S28.426 64.5 30.174 66c1.747 1.5 6.414 1.708 6.414 1.708l5.958-1.791s1.708-1.667.875-5l-2.75.791-6.497.209-5.378-.959z"/><path fill="#FFF" d="m57.671 7.375-3.042 2.042-4.458 5.958-1.542 7.125.209 1.958s5 8.375 11.25.292l-.584-8.583-.916-7.25-.917-1.542zm-43.4 0 3.042 2.042 4.458 5.958 1.542 7.125-.208 1.958s-5 8.375-11.25.292l.583-8.583.917-7.25.916-1.542z"/><path d="M29.045 41.681s-3.039 1.6-4.509 1.017c-1.47-.583-2.231-2.14-1.7-3.478.53-1.339 2.152-1.952 3.622-1.37 1.47.583 2.587 3.831 2.587 3.831z"/><path fill="none" stroke="#000" stroke-linecap="round" stroke-linejoin="round" stroke-miterlimit="10" stroke-width="2" d="M35.994 56.93c-1.513-.235-2.735-.913-3.64-2.076v-.698M16.916 10.288s7.751 5.915 5.324 13.667"/><path fill="none" stroke="#000" stroke-linecap="round" stroke-linejoin="round" stroke-miterlimit="10" stroke-width="2" d="M23.607 58.094c-1.488-3.289-4.481-4.385-5.186-4.228l-3.523.548c-2.663-2.662-3.132-10.18-3.132-10.18-.434-4.77 1.03-8.075 2.422-10.075l-.387-.73c-2.505-6.185-1.017-15.66-.47-21.689.398-4.372 2.607-5.916 3.792-6.434a.995.995 0 0 1 1.179.294c1.295 1.621 5.316 6.574 9.124 10.447 1.682 1.71 2.45 3.222 2.748 4.452"/><path d="M42.955 41.681s3.039 1.6 4.509 1.017c1.47-.583 2.231-2.14 1.7-3.478s-2.152-1.952-3.622-1.37c-1.47.583-2.587 3.831-2.587 3.831z"/><path fill="none" stroke="#000" stroke-linecap="round" stroke-linejoin="round" stroke-miterlimit="10" stroke-width="2" d="M36.073 61.708V56.93c1.513-.234 2.736-.912 3.641-2.075v-.698"/><path fill="none" stroke="#000" stroke-linecap="round" stroke-linejoin="round" stroke-miterlimit="10" stroke-width="2" d="m43.747 50.156 1.174 5.837s0 6.655-7.438 6.107h-2.898c-7.438.548-7.438-6.107-7.438-6.107l1.174-5.837m26.763-39.868s-7.751 5.915-5.324 13.667"/><path fill="none" stroke="#000" stroke-linecap="round" stroke-linejoin="round" stroke-miterlimit="10" stroke-width="2" d="M48.393 58.094c1.488-3.289 4.481-4.385 5.186-4.228l3.523.548c2.662-2.662 3.132-10.18 3.132-10.18.434-4.768-1.03-8.073-2.421-10.073l.385-.732c2.506-6.185 1.018-15.66.47-21.689-.397-4.372-2.607-5.916-3.79-6.434a.995.995 0 0 0-1.18.294c-1.295 1.621-5.316 6.574-9.124 10.447-1.732 1.762-2.496 3.312-2.773 4.56m-.134 44.843c-3.804 2.05-7.418 2.088-10.805 0m-1.844-47.498s6.055-3.184 13.78-.104"/></svg>