<svg xmlns="http://www.w3.org/2000/svg" viewBox="0 0 72 72"><path fill="#9B9B9A" stroke="#9B9B9A" stroke-linecap="round" stroke-linejoin="round" stroke-miterlimit="10" stroke-width="1.8" d="m30 29-3 2c-9.5 4.375-2 30-2 30s8.75-9.25 15.875-10.125S51.75 36.75 50 32l-2-4"/><path fill="#9B9B9A" d="M30 30s-6.5-5.5-.25-14.75c0 0-.75-3.25-2.75-3.25s5-3 6 1c0 0 7-3 11 0 0 0 5.25-3.5 7.125-1.75C51.125 11.25 47 14 49 16s4 10-1 14"/><path fill="#A57939" d="M40 30s-10 0-10-7.875c0-8.734 8.19-4.736 9-3.125 0 0 7-6 9.125 1.5C50.183 27.765 40 30 40 30zM25.02 59s-.879-7 1.902-9S40 40 37 35"/><g fill="none" stroke="#000" stroke-linecap="round" stroke-linejoin="round" stroke-miterlimit="10"><path stroke-width="1.5" d="M37 22s.5-1.5-3-2m7 2s-.5-1.5 3-2m-6.375 5.43 1.75 1.57 2-1.656"/><path stroke-width="2" d="M38 60s1-4-5-3v-2.375m10 2.75s1-4-5-3V52m-8-22s-6.5-5.5-.25-14.75c0 0-.75-3.25-2.75-3.25s5-3 6 1c0 0 7-3 11 0 0 0 5.25-3.5 7.125-1.75C51.125 11.25 47 14 49 16s4 10-1 14"/><path stroke-width="2" d="M40 30s-10 0-10-7.875c0-8.734 8.19-4.736 9-3.125 0 0 7-6 9.125 1.5C50.183 27.765 40 30 40 30zm-13 1c-9.5 4.375-2 30-2 30s8.75-9.25 15.875-10.125S51.75 36.75 50 32"/><path stroke-width="2" d="M25 59s-.75-7 1.625-9S37 41 36 35"/></g></svg>