<svg xmlns="http://www.w3.org/2000/svg" viewBox="0 0 72 72"><path fill="#9b9b9a" d="M35 29.035C22.3 29.736 36 51 36 51s16-23.017-1-21.965z"/><ellipse cx="36" cy="26" fill="#9b9b9a" rx="4" ry="3"/><path fill="#d0cfce" d="M31.672 29.886s-22.81 8.422-13.038 14.3 8.31-2.752 12.545-2.418 3.26-3.575 3.26-3.575l3.704.002s-.97 3.907 3.265 3.58 2.785 8.301 12.548 2.438-13.059-14.32-13.059-14.32"/><g fill="none" stroke="#000" stroke-linecap="round" stroke-linejoin="round" stroke-width="2"><path d="M41 29c3.1-.135 4.406-1.074 5-2 1.534-2.392-.872-5.965 1-8a3.492 3.492 0 012-1M32 29c-3.1-.135-4.406-1.074-5-2-1.534-2.392.872-5.965-1-8a3.492 3.492 0 00-2-1M37.605 37.932s-.925 3.928 3.287 3.642 2.858 8.396 12.516 2.587S39 29 39 29M33 29S9.05 38.421 18.523 44.119s8.179-2.874 12.32-2.61 3.248-3.613 3.248-3.613"/><ellipse cx="36" cy="26" rx="4" ry="3"/><path d="M31.082 41.802A62.32 62.32 0 0036 52a59.843 59.843 0 005.167-9.905M36 22v-6"/><path d="M32.268 41.282c-3.1.168-4.406 1.34-5 2.495-1.534 2.982.871 7.438-1 9.976a3.283 3.283 0 01-2 1.247M39.268 41.282a9.849 9.849 0 012.005.299 4.381 4.381 0 012.995 2.196c1.533 2.982-.872 7.438 1 9.976a3.283 3.283 0 002 1.247M33 29h6"/></g></svg>