<svg xmlns="http://www.w3.org/2000/svg" viewBox="0 0 72 72"><path fill="#3f3f3f" d="M18.939 41.85a11.056 11.056 0 0 0 2.667 6.863h.011c2.823-.122 3.066 1.737 3.044 2.479a1.677 1.677 0 0 1-.022.299h-4.948l-.011-.011h-.011c-3.398-1.328-5.076-4.168-5.884-7.732zm27.383 9.12h-4.573c-1.653-2.18-.516-9.57-.516-9.57a2.156 2.156 0 0 1 1.114 1.25c.328 4.12 1.712 6.81 3.974 8.32z"/><path fill="#9b9b9a" d="m66.492 46.63-2.23-6.04c2.28-1.11 1.44-1.76 1.44-1.76-2.88-2.04-.84-3.74-.84-3.74a4.277 4.277 0 0 1-.47.09 2.842 2.842 0 0 1-1.92-.45l-2.57-1.67a4.985 4.985 0 0 1-1.3-1.25 23.06 23.06 0 0 0-7.04-6.33 28.048 28.048 0 0 0-3.93-1.93c-.38-.14-.77-.28-1.16-.4a19.419 19.419 0 0 0-5.87-1 2.646 2.646 0 0 0-.28-.01c-.22-.01-.43-.01-.65-.01a23.148 23.148 0 0 0-2.51.14c-8.64.69-12.81-1.44-17.2-1.73-6.66-.44-12.02 3.74-14.27 10.36a4.081 4.081 0 0 0-.43 1.65s.16 1.54 1.61.41a8.28 8.28 0 0 0-.04.86 9.167 9.167 0 0 0 2.74 6.54 10.023 10.023 0 0 0-.9 4.14 9.829 9.829 0 0 0 2.05 6.04h5.02s0-1.84-1.48-2.1a1.646 1.646 0 0 1-1.42-1.57v-.63a4.107 4.107 0 0 1 1.2-2.79 5.095 5.095 0 0 1 .62-.61c.01 0 .01-.01.02-.02a5.436 5.436 0 0 1 4.81-.99 5.112 5.112 0 0 1 .63.2 22.61 22.61 0 0 0 8.08 1.64c.16.01.31.01.47.01a22.758 22.758 0 0 0 7.46-1.24 22.976 22.976 0 0 0 3.41-1.48 2.792 2.792 0 0 1 1.49-.34 2.389 2.389 0 0 1 1.13.35 2.08 2.08 0 0 1 .95 1.25c.28 4.12 1.46 6.81 3.39 8.32h4.96a.7.7 0 0 0 .32-1.32c-1.63-.86-3.28-2.14-3.39-3.79-.21-3.3.99-4.08.99-4.08l3.34 3.44a1.41 1.41 0 0 0 .63.38l.92.27a1.375 1.375 0 0 1 .67.41l2.81 3.11a7.19 7.19 0 0 0 4.96 2.47 3.94 3.94 0 0 0 2.95-.9 3.563 3.563 0 0 0 .83-3.9z"/><g fill="none" stroke="#000" stroke-linecap="round" stroke-linejoin="round" stroke-width="2"><path d="M47.631 23.55c-.38-.14-.77-.28-1.16-.4m-26.98 18.68a9.989 9.989 0 0 0 2.41 6.2h.01c2.55-.11 2.77 1.57 2.75 2.24a1.52 1.52 0 0 1-.02.27m21.86 0c-1.93-1.51-3.11-4.2-3.39-8.32a2.08 2.08 0 0 0-.95-1.25 2.449 2.449 0 0 0-1.13-.35"/><path d="M42.601 50.54h8.86a.7.7 0 0 0 .32-1.32c-.18-.09-.35-.19-.53-.3-1.44-.84-2.76-2.02-2.86-3.49-.21-3.3.99-4.08.99-4.08l1.39 1.43 1.95 2.01a1.409 1.409 0 0 0 .63.38l.92.27a1.376 1.376 0 0 1 .67.41l2.81 3.11a7.19 7.19 0 0 0 4.96 2.47 3.94 3.94 0 0 0 2.95-.9 3.563 3.563 0 0 0 .83-3.9l-2.23-6.04c2.28-1.11 1.44-1.76 1.44-1.76-2.88-2.04-.84-3.74-.84-3.74a4.299 4.299 0 0 1-.47.09 2.842 2.842 0 0 1-1.92-.45l-2.57-1.67a4.985 4.985 0 0 1-1.3-1.25 23.058 23.058 0 0 0-7.04-6.33 28.048 28.048 0 0 0-3.93-1.93c-.38-.14-.77-.28-1.16-.4a19.419 19.419 0 0 0-5.87-1 2.62 2.62 0 0 0-.28-.01c-.22-.01-.43-.01-.65-.01a23.172 23.172 0 0 0-2.51.14c-8.64.69-12.81-1.44-17.2-1.73-6.66-.44-12.02 3.74-14.27 10.36a4.08 4.08 0 0 0-.43 1.65s.16 1.54 1.61.41a8.25 8.25 0 0 0-.04.86 9.167 9.167 0 0 0 2.74 6.54 10.021 10.021 0 0 0-.9 4.14 9.829 9.829 0 0 0 2.05 6.04h5.02s0-1.84-1.48-2.1a1.646 1.646 0 0 1-1.42-1.57v-.63a4.108 4.108 0 0 1 1.2-2.79 5.11 5.11 0 0 1 .62-.61c.01 0 .01-.01.02-.02a5.436 5.436 0 0 1 4.81-.99 5.098 5.098 0 0 1 .63.2 22.503 22.503 0 0 0 7.72 1.63c.12 0 .24.01.36.01.16.01.31.01.47.01a22.76 22.76 0 0 0 7.46-1.24 1.458 1.458 0 0 0 .19-.07 21.966 21.966 0 0 0 3.22-1.41 2.794 2.794 0 0 1 1.49-.34 2.48 2.48 0 0 1 1.13.35"/></g></svg>