<svg xmlns="http://www.w3.org/2000/svg" viewBox="0 0 72 72"><path fill="#d0cfce" d="M56.785 37.15c-5.202-6.59-19.921-8.181-20.46-8.233a2.543 2.543 0 0 1-1.623-1.076 5.111 5.111 0 0 1 1.455-7.121l1.076-.701a4.765 4.765 0 0 0 2.014-5.173 2.45 2.45 0 0 0-2.586-1.843l-.754.062a4.82 4.82 0 0 1-3.405-.987 8.784 8.784 0 0 0-7.973-1.432c-.361.107-8.89 2.76-11.158 15.346-.05.333-1.178 8.228 3.32 13.789 2.521 3.117 6.282 4.85 11.18 5.149a.964.964 0 0 0 .128-.02 14.337 14.337 0 0 0 8.927 3.366 15.227 15.227 0 0 0 7.36-2.043 2.797 2.797 0 0 0 1.118-1.174c4.442-.815 5.827.308 5.971.787a.977.977 0 0 0 .056.196 1.08 1.08 0 0 1-.066.882c-.138.176-.78.73-3.277.388-6.342-.853-8.379 2.477-8.463 2.62a1 1 0 0 0 .996 1.496 5.76 5.76 0 0 1 4.358 1.743 4.704 4.704 0 0 0 4.756.912q.243-.09.471-.17a2.48 2.48 0 0 1-.05.053 3.057 3.057 0 0 0-.374 3.764 4.368 4.368 0 0 1 .333 2.969 1 1 0 0 0 .966 1.259.983.983 0 0 0 .308-.05c5.896-1.903 6.869-8.005 6.553-11.26a12.197 12.197 0 0 0-1.157-13.499z"/><path fill="#9b9b9a" d="M14.144 47.89a6.423 6.423 0 0 1-2.157-.331 1.53 1.53 0 0 1-.032-2.874 6.113 6.113 0 0 0 3.94-6.217 1.001 1.001 0 0 1 1.83-.651c.026.039 2.573 3.855 5.617 4.299a.862.862 0 0 1 .098.02l1.228.306a1 1 0 0 1 .233 1.85c-5.148 2.78-8.544 3.598-10.757 3.598z"/><path fill="#9b9b9a" d="M28.763 45.291c-.064 0-.724-.342-.79-.356a16.806 16.806 0 0 1-7.766-2.157c-4.996-2.965-6.943-7.85-6.96-12.846-.037-10.934 6.146-16.056 6.398-16.247a1 1 0 0 1 1.573 1.042 30.898 30.898 0 0 0 4.604 25.147c.017.02.032.042.047.064a21.693 21.693 0 0 0 3.521 3.574 1 1 0 0 1-.627 1.779z"/><g fill="none" stroke="#000" stroke-linecap="round" stroke-linejoin="round" stroke-width="2"><path d="M24.426 43.411c-12.21-3.036-10.066-17.27-10.066-17.27 2.18-12.094 10.452-14.536 10.452-14.536a7.785 7.785 0 0 1 7.08 1.265h0A5.84 5.84 0 0 0 36 14.06h0l.743-.06a1.46 1.46 0 0 1 1.535 1.095h0a3.767 3.767 0 0 1-1.592 4.087l-1.075.701a6.11 6.11 0 0 0-1.74 8.514h0a3.524 3.524 0 0 0 2.267 1.502S51 31.436 56 37.77a11.152 11.152 0 0 1 .911 12.667s1.102 8.282-5.83 10.522a5.348 5.348 0 0 0-.448-3.753 2.048 2.048 0 0 1 .235-2.539 4.43 4.43 0 0 0 1.493-2.452 28.069 28.069 0 0 0-2.973.931 3.708 3.708 0 0 1-3.745-.722 6.717 6.717 0 0 0-5.155-1.987s1.707-2.914 7.465-2.132 4.408-2.63 4.408-2.63-.366-2.104-4.733-1.896"/><path d="M23.905 38.832s7.542 13.288 19.883 6.535c0 0 2.55-1.471-1.476-2.676a11.048 11.048 0 0 1-5.522-4.516s-1.415-3.434-4.715-3.704M16.89 38.367a7.146 7.146 0 0 1-4.577 7.252.529.529 0 0 0 .01.997c1.51.537 4.945.661 12.103-3.205"/></g></svg>