<svg xmlns="http://www.w3.org/2000/svg" viewBox="0 0 72 72"><path fill="#a57939" d="M31.677 26.7a2.074 2.074 0 0 1-1.484-.846 7.274 7.274 0 0 0-1.237-1.257 4.723 4.723 0 0 0 .277-3.952 2.297 2.297 0 0 0-1.974-1.392 2.34 2.34 0 0 0-2.137 1.132l-1.24 2.105a18.045 18.045 0 0 0-2.94-.228 8.088 8.088 0 0 0-6.966 4.465c-.496 1.01-.847 1.173-1.128 1.305a1.704 1.704 0 0 0-.996 2.1 6.965 6.965 0 0 0 6.746 6.376c.32.102 1.835.711 1.835 3.14 0 4.495 2.339 12.888 11.04 13.241a6.628 6.628 0 0 0 .709.844 8.574 8.574 0 0 0 5.617 2.229h.025l3.32-.051c.01 0 .018-.006.029-.007a.96.96 0 0 0 .228-.031c8.442-2.405 8.539-14.196 8.539-14.696.011-12.197-13.976-14.165-18.263-14.478z"/><path fill="#6a462f" d="M61.76 23.523a5.005 5.005 0 0 0-3.951-1.805c-8.137 0-10.969 13.339-11.085 13.906a.978.978 0 0 0 .095.632c.01.026.01.053.022.079a10.774 10.774 0 0 1 1.1 4.93c0 .107-.099 10.784-7.085 12.773-.02.006-.034.021-.054.028a.963.963 0 0 0-.186.096.854.854 0 0 0-.434.577.965.965 0 0 0-.04.202c-.002.02-.013.038-.013.06a1.137 1.137 0 0 1 .039.273c.006.023.021.04.03.063a1.194 1.194 0 0 0 .184.31.883.883 0 0 0 .286.226.949.949 0 0 0 .106.056.988.988 0 0 0 .354.071c20.389 0 22.653-16.927 22.67-17.068.067-.454 1.627-11.153-2.038-15.409zM35.165 56H24.891a1.001 1.001 0 0 1-.99-.85 4.676 4.676 0 0 1 .924-3.51 4.111 4.111 0 0 1 3.283-1.317.995.995 0 0 1 .466.115 7.883 7.883 0 0 0 3.305.584.987.987 0 0 1 .985.68c.391 1.152 2.082 2.11 2.702 2.382a1 1 0 0 1-.4 1.916z"/><g fill="none" stroke="#000" stroke-linecap="round" stroke-linejoin="round" stroke-width="2"><path d="M21.77 42.808c.83 4.001 3.426 9.203 10.258 9.203"/><path d="M41.129 55c7.812-2.224 7.812-13.735 7.812-13.735.01-11.222-12.814-13.149-17.337-13.48a3.056 3.056 0 0 1-2.207-1.236c-.977-1.294-3.292-3.198-8.453-3.198a7.127 7.127 0 0 0-6.07 3.906c-1.266 2.581-2.25 1.158-2.03 2.833a5.979 5.979 0 0 0 5.913 5.514s2.677.597 2.677 4.133q0 .165.005.345h-1.437a1.598 1.598 0 0 0-1.598 1.598h0m-5.559-12.338v6.114"/><path d="M38.682 40.592s-7.6.667-7.6 7.6 6.727 6.858 6.727 6.858h-9.7m-3.639-31.5 1.515-2.568a1.31 1.31 0 0 1 2.33.146 4.068 4.068 0 0 1-.534 3.666m21.159 6.898c1.438-3.841 4.229-8.974 8.869-8.974 7.415 0 5 16.065 5 16.065S60.865 55 41.129 55m-16.238 0s-.556-3.677 3.218-3.677"/></g></svg>