<svg xmlns="http://www.w3.org/2000/svg" viewBox="0 0 72 72"><path fill="#8967aa" d="M50.66 54.505C63 41.615 63 29 63 29a5.003 5.003 0 0 0-7.02-4.575l.004-.005a6.628 6.628 0 1 0-11.107-6.945l.003-.001A9.008 9.008 0 0 0 36 7h-2a9.008 9.008 0 0 0-8.88 10.474l.003.001a6.628 6.628 0 1 0-11.107 6.945l.004.005A5.003 5.003 0 0 0 7 29s0 12.615 12.34 25.505"/><circle cx="34.5" cy="49.5" r="7.5" fill="#fff"/><path fill="#d0cfce" d="M35.304 42.044A7.495 7.495 0 0 1 31.5 56a7.57 7.57 0 0 1-.804-.044 7.497 7.497 0 1 0 4.608-13.912z"/><path fill="#b399c8" d="M10 55h50s-8 9-25 9"/><path fill="#8967aa" d="M48.805 55.051H59.5s-8 9-25 9c0 0 9.94-2.525 14.305-9z"/><path fill="#b399c8" d="M35 64c-17 0-25-9-25-9"/><g fill="none" stroke="#000" stroke-linecap="round" stroke-linejoin="round" stroke-width="2"><path d="M28.758 54.325a7.5 7.5 0 1 1 11.327.18M10 55h50s-8 9-25 9"/><path d="M35 64c-17 0-25-9-25-9m40.66-.495C63 41.615 63 29 63 29a5.003 5.003 0 0 0-7.02-4.575l.004-.005a6.628 6.628 0 1 0-11.107-6.945l.003-.001A9.008 9.008 0 0 0 36 7h-2a9.008 9.008 0 0 0-8.88 10.474l.003.001a6.628 6.628 0 1 0-11.107 6.945l.004.005A5.003 5.003 0 0 0 7 29s0 12.615 12.34 25.505"/></g></svg>