<svg xmlns="http://www.w3.org/2000/svg" viewBox="0 0 72 72"><path fill="#92d3f5" d="M44.223 28.533c-.188.002-4.915-.08-8.212 2.021-2.311 1.471-4.369-.783-4.458-.88a4.392 4.392 0 0 1-.9-2.75 4.184 4.184 0 0 1 .955-2.72 5.507 5.507 0 0 0 1.511-3.408 8.14 8.14 0 0 0-2.165-5.662 7.657 7.657 0 0 0-6.05-1.917 6.33 6.33 0 0 0-5.508 3.02 5.158 5.158 0 0 0-2.375 2.725 1.073 1.073 0 0 0-.039.097 2.978 2.978 0 0 1-2.276 2.131.964.964 0 0 0-.254.103 2.794 2.794 0 0 0-.725 4.65 2.589 2.589 0 0 0 .996 2.778 3.401 3.401 0 0 0 4.585-.17c.126-.124.365-.363.572-.591a2.198 2.198 0 0 1 1.608.524c.668.603 1.378 2.056.968 5.552-.433 3.697.08 6.397 1.529 8.025a4.32 4.32 0 0 0 2.05 1.315c.812 3.314 4.904 7.642 9.382 7.781.695 1.181 2.533 3.723 5.59 3.94.1.007.202.01.304.01 3.225 0 6.104-3.566 7.038-4.855 3.157-.334 8.372-2.5 8.37-8.894-.012-.125-1.149-12.473-12.496-12.825z"/><path fill="#f1b31c" d="M11.678 30.648a.928.928 0 0 1-.21-.023c-2.105-.478-2.667-3.003-2.667-4.42a5.165 5.165 0 0 1 1.742-4.347c1.902-1.467 4.577-.666 4.69-.63a1.011 1.011 0 0 1 .076 1.889c-.257.109-.657.4-.683.605-.019.147.153.557.918 1.162a1.016 1.016 0 0 1 .368.95l-.226 1.473a.977.977 0 0 1-.955.844c-1.595 0-2.122 1.765-2.126 1.782a.973.973 0 0 1-.927.715z"/><path fill="#d0cfce" d="M17.04 29.538a3.726 3.726 0 0 1-2.36-.849 2.599 2.599 0 0 1-.916-2.712 2.811 2.811 0 0 1 .72-4.663.901.901 0 0 1 .244-.1 2.99 2.99 0 0 0 2.293-2.14 1.073 1.073 0 0 1 .04-.1 5.353 5.353 0 0 1 6.296-3.266 5.51 5.51 0 0 1 4.51 5.64 5.769 5.769 0 0 1-5.227 5.777c-2.054.003-2.422.336-3.286 1.39a1.038 1.038 0 0 1-.102.107 2.984 2.984 0 0 1-2.213.916z"/><path fill="#f1b31c" d="M48.81 61.958H30.837a.984.984 0 0 1-.968-1c0-2.17 1.444-3.466 3.863-3.466a30.817 30.817 0 0 0 5.327-.626 26.203 26.203 0 0 1-.551-3.032 1.014 1.014 0 0 1 .414-.941.94.94 0 0 1 .998-.06 3.103 3.103 0 0 0 2.297.144.945.945 0 0 1 .882.124 1.008 1.008 0 0 1 .411.817v2.906a.393.393 0 0 0 .2.347 8.027 8.027 0 0 0 3.16.38 2.721 2.721 0 0 1 2.125.893 3.74 3.74 0 0 1 .778 2.604.981.981 0 0 1-.963.91z"/><path fill="#d0cfce" d="M63.499 44.28a5.565 5.565 0 0 0-1.308-2.51 5.462 5.462 0 0 0-.923-4.589c-1.92-2.362-5.726-2.272-6.98-2.242l-.183.004c-.01 0-.017.005-.026.005a3.726 3.726 0 0 0-.385.092c-.009.004-.018.003-.027.007a.957.957 0 0 0-.127.099.99.99 0 0 0-.156.121 2.828 2.828 0 0 0-.2.322.992.992 0 0 0-.049.252.921.921 0 0 0-.021.11c0 .007.004.012.004.02a3.532 3.532 0 0 0 .09.386c.004.01.003.02.008.03a16.233 16.233 0 0 1 1.504 5.026 6.271 6.271 0 0 1-1.77 4.659l-.008.012a.972.972 0 0 0-.145.214.466.466 0 0 0-.113.316 1.004 1.004 0 0 0-.031.17 1.016 1.016 0 0 0 .028.153.974.974 0 0 0 .049.23l.003.015.042.097c.27.64 1.066 2.535 2.904 2.535.08 0 .162-.004.247-.012a2.737 2.737 0 0 0 1.911-.96 2.922 2.922 0 0 0 .43-.702 3.723 3.723 0 0 0 1.904.466 3.533 3.533 0 0 0 2.714-1.654 3.421 3.421 0 0 0 .614-2.671zm-25.382 3.084a3.728 3.728 0 0 1-.979-.13 6.016 6.016 0 0 1-3.256-2.724.904.904 0 0 1-.047-.095 7.692 7.692 0 0 0-1.367-1.667 4.154 4.154 0 0 1-.965-4.033c.064-.24.8-2.808 2.798-3.523a4.74 4.74 0 0 1 4.39.737l.004.003a4.047 4.047 0 0 1 .838 5.366 4.263 4.263 0 0 1 1.047 5.1 1.002 1.002 0 0 1-.362.365 4.153 4.153 0 0 1-2.101.601z"/><g fill="none" stroke="#000" stroke-linecap="round" stroke-linejoin="round" stroke-width="2"><path d="M14.95 22.16s-5.188-1.601-5.188 4.019c0 0 0 3.01 1.908 3.443 0 0 .718-2.498 3.054-2.498M27.83 45.04c1.548 2.594 4.795 5.32 8.18 5.109h0s1.704 3.712 5.066 3.95 6.724-4.807 6.724-4.807 7.921-.381 7.921-7.853c0 0-.945-11.578-11.52-11.905 0 0-4.572-.1-7.653 1.864s-5.742-1.06-5.742-1.06a5.377 5.377 0 0 1-1.154-3.413 5.188 5.188 0 0 1 1.234-3.413 4.633 4.633 0 0 0 1.233-2.756s.279-6.99-7.202-6.538a5.34 5.34 0 0 0-4.793 2.754"/><path d="M26.892 21.306c.16-5.141-7.189-6.616-8.964-1.917l-.002-.003a3.98 3.98 0 0 1-2.976 2.774l.004.006a1.807 1.807 0 0 0 .053 3.4c-1.553 2.165 2.123 3.982 3.6 2.272a10.386 10.386 0 0 0 .757-.816s5.066-1.24 4.086 7.13 3.445 8.37 3.445 8.37m27.219-6.552c1.089-.01 8.551-.521 7.004 6.123M39.462 53.691a24.477 24.477 0 0 0 .524 2.865 1.015 1.015 0 0 1-.727 1.26 31.67 31.67 0 0 1-5.533.65c-2.607 0-2.896 1.603-2.896 2.466h17.973s.213-2.406-1.94-2.406a8.601 8.601 0 0 1-3.622-.502 1.4 1.4 0 0 1-.705-1.226M38.06 36.703c2.418 1.999.161 4.772.161 4.772 2.8 2.155 1.495 4.425 1.495 4.425-2.94 1.72-4.96-1.88-4.96-1.88a7.646 7.646 0 0 0-1.58-1.98 3.149 3.149 0 0 1-.72-3.019"/><path d="M59.532 40.739s4.478 2.965 2.541 5.656c-2.016 2.802-4.498-.015-4.498-.015s.21 2.28-1.736 2.453c-1.374.123-1.969-1.52-2.188-2.022"/></g></svg>