<svg xmlns="http://www.w3.org/2000/svg" viewBox="0 0 72 72"><path fill="#fff" d="M57.63 16.277c-.748-.674-2.153-.592-3.69-.307l.003-.003c-3.038.383-3.745-4.61-5.322-6.388a5.599 5.599 0 0 0-4.794-1.804c-3.358.503-4.686 4.667-4.863 5.22a8.98 8.98 0 0 0-.016 5.23 7.259 7.259 0 0 1-.287 4.875 57.348 57.348 0 0 1-16.708 21.366 10.228 10.228 0 0 0-6.025 1.645c-1.167.767-3.44 2.262-3.525 4.742a5.377 5.377 0 0 0 1.966 3.957c.751.676 2.16.592 3.7.306l-.012.005c3.038-.383 3.745 4.61 5.322 6.387a5.599 5.599 0 0 0 4.794 1.804c3.358-.503 4.686-4.667 4.863-5.22a8.98 8.98 0 0 0 .016-5.23 5.54 5.54 0 0 1 .01-3.365l.37-.136 8.643-14.046.337-.55a55.5 55.5 0 0 1 7.56-8.187 10.317 10.317 0 0 0 6.1-1.601c1.167-.768 3.44-2.262 3.525-4.742a5.377 5.377 0 0 0-1.966-3.958z"/><path fill="#d0cfce" d="M22.424 59.176c-.946 1.5 2.186 6.58 8.553 2.83 1.41-.83 1.85-3.965 2.785-5.836.482-.963-1.34-5.505-.841-6.535C37.798 39.57 45.739 30.428 49.973 26.82a10.317 10.317 0 0 0 6.099-1.602c1.167-.767 3.44-2.262 3.525-4.742a5.378 5.378 0 0 0-1.966-3.957c-2.074-1.867-3.869-.995-4.032-.692 0 0 1.128 2.183-1.861 5.292-7.091 7.374-18.971 22.716-24.727 34.453-2.62 5.34-4.587 3.603-4.587 3.603z"/><g fill="none" stroke="#000" stroke-linecap="round" stroke-linejoin="round" stroke-width="2"><path d="M47.39 16.635c1.097 1.92 8.167-1.983 10.24-.116a5.378 5.378 0 0 1 1.967 3.958c-.086 2.48-2.358 3.975-3.525 4.742a10.317 10.317 0 0 1-6.1 1.602c-7.278 6.2-13.998 17.304-16.54 21.914a5.9 5.9 0 0 0-.38 4.37 8.98 8.98 0 0 1-.016 5.23c-.177.553-1.505 4.717-4.863 5.22a5.599 5.599 0 0 1-4.794-1.805c-1.577-1.777-2.284-6.77-5.322-6.387"/><path d="M24.61 54.937c-1.097-1.92-8.168 1.983-10.24.116a5.378 5.378 0 0 1-1.967-3.958c.085-2.48 2.358-3.975 3.525-4.742a10.228 10.228 0 0 1 6.025-1.645A57.348 57.348 0 0 0 38.66 23.342a7.26 7.26 0 0 0 .287-4.875 8.98 8.98 0 0 1 .016-5.23c.177-.552 1.505-4.717 4.863-5.22a5.599 5.599 0 0 1 4.794 1.805c1.577 1.777 2.284 6.77 5.322 6.387"/></g></svg>