<svg xmlns="http://www.w3.org/2000/svg" viewBox="0 0 72 72"><g fill="#debb90"><path d="M53.07 8.942c-3 7-12.539 11.949-12.5 14.5.041 2.823 1.293 8.539 1.5 11.5a121.39 121.39 0 0 1 0 20c-.146 1.994 4.651 5.67 0 9-1.223.874-6-2-14 0a24.134 24.134 0 0 1-7.59.29 1.8 1.8 0 0 1-.517-3.41c2.228-1.037 5.186-1.96 7.106-2.88 2.951-1.417 4.787-2.834 5.825-4.671a1.794 1.794 0 0 0 .218-.696c.851-8.01-2.58-20.217-5.043-25.634a8.077 8.077 0 0 1-1-4c0-2 1-3 2-5 2.243-4.485 2.847-7.175 3.928-9.432a2.007 2.007 0 0 1 1.722-1 52.719 52.719 0 0 1 14.655.681z"/><path stroke="#debb90" stroke-linecap="round" stroke-linejoin="round" stroke-width="2" d="M53.07 8.942c-3 7-12.539 11.949-12.5 14.5.041 2.823 1.293 8.539 1.5 11.5a121.39 121.39 0 0 1 0 20c-.146 1.994 4.651 5.67 0 9-1.223.874-6-2-14 0a24.134 24.134 0 0 1-7.59.29 1.8 1.8 0 0 1-.517-3.41c2.228-1.037 5.186-1.96 7.106-2.88 2.951-1.417 4.787-2.834 5.825-4.671a1.794 1.794 0 0 0 .218-.696c.851-8.01-2.58-20.217-5.043-25.634a8.077 8.077 0 0 1-1-4c0-2 1-3 2-5 2.243-4.485 2.847-7.175 3.928-9.432a2.007 2.007 0 0 1 1.722-1 52.719 52.719 0 0 1 14.655.681z"/></g><g fill="none" stroke="#000" stroke-linecap="round" stroke-linejoin="round" stroke-width="2"><path d="M53.07 8.942c-3 7-12.539 11.949-12.5 14.5.041 2.823 1.293 8.539 1.5 11.5a121.39 121.39 0 0 1 0 20c-.146 1.994 4.456 6.341 0 9-1.677 1-6-2-14 0a24.134 24.134 0 0 1-7.59.29 1.8 1.8 0 0 1-.517-3.41c2.228-1.037 5.186-1.96 7.106-2.88 2.951-1.417 4.787-2.834 5.825-4.671a1.794 1.794 0 0 0 .218-.696c.851-8.01-2.58-20.217-5.043-25.634a8.077 8.077 0 0 1-1-4c0-2 1-3 2-5 2.243-4.485 2.847-7.175 3.928-9.432a2.007 2.007 0 0 1 1.722-1 52.719 52.719 0 0 1 14.655.681"/><path d="M33.07 19.942c-1.372 1.69-1.78 3.669-1 5a2.906 2.906 0 0 0 1 1"/></g></svg>