<svg xmlns="http://www.w3.org/2000/svg" viewBox="0 0 72 72"><path fill="#fff" d="m47.005 23.68-.034-.248c-.638-4.42-3.061-8.253-7.464-9.633-4.603-1.443-10.3.326-12.82 4.572-1.69 2.847-1.544 6.097-1.756 9.276-.139 2.092-.253 4.186-.38 6.28l-.91 15.01c-.031.513-.465 9.063-.55 9.063h26c-.65-10.728-1.223-21.46-1.887-32.173a30.257 30.257 0 0 0-.199-2.146z"/><path fill="#d0cfce" d="M47.204 25.827a30.834 30.834 0 0 0-.199-2.146q-.016-.125-.034-.249c-.638-4.42-3.061-8.253-7.464-9.633a11.462 11.462 0 0 0-5.43-.304 10.62 10.62 0 0 1 1.27.304c4.403 1.38 6.826 5.214 7.464 9.633q.018.124.034.249c.095.712.155 1.429.199 2.146.664 10.713 1.237 21.445 1.888 32.173h4.16c-.65-10.728-1.224-21.46-1.888-32.173z"/><path fill="none" stroke="#000" stroke-linecap="round" stroke-linejoin="round" stroke-width="2" d="m47.005 23.68-.034-.248c-.638-4.42-3.061-8.253-7.464-9.633-4.603-1.443-10.3.326-12.82 4.572-1.69 2.847-1.544 6.097-1.756 9.276-.139 2.092-.253 4.186-.38 6.28l-.91 15.01c-.031.513-.465 9.063-.55 9.063h26c-.65-10.728-1.223-21.46-1.887-32.173a30.257 30.257 0 0 0-.199-2.146z"/><circle cx="36.611" cy="17.576" r="1.47"/><circle cx="39.731" cy="19.656" r="1.47"/><circle cx="33.492" cy="19.656" r="1.47"/></svg>