<svg xmlns="http://www.w3.org/2000/svg" viewBox="0 0 72 72"><path fill="#92d3f5" d="M17.1 61l1-4a14.007 14.007 0 016.6-8.8 9.921 9.921 0 015.6-1.1c.2 0-1.3.3-1.1.4 8 4.6 12.1 4.9 17 1.9a6.376 6.376 0 016-.4c3.3 1.5 5.9 4.5 5.9 8.1v4"/><path d="M29.1 38c-3 0-4-7-4-14 0-6 5-12 14-12s14 6 14 12c0 7-1 14-4 14"/><g fill="#6a462f"><path d="M18.8 61L22 50.8a8.627 8.627 0 003.5-1.6 3.034 3.034 0 001.2-2.5v-.8l-1-.9c3-3-2.9-5.1-2.9-5.1l3.2-3.3a2.814 2.814 0 00.9-2.3c-.2-1.5-2.1-.5-2.1-.5l-5.6 5.7a1.612 1.612 0 00-.4.7l-1.3 5a5.643 5.643 0 00.1 3.4l.2.7L13.2 61zM28 30.5c-.1 8 4.1 14 11 14 7.1 0 11.1-6 11.1-14 0-5-3-10-3-10-8 0-10 3-16 1a17.092 17.092 0 00-3.1 9z"/></g><path fill="none" stroke="#000" stroke-linecap="round" stroke-linejoin="round" stroke-width="2" d="M58.1 60v-3c0-5-5-9-10-9q-9 7.5-18 0"/><path fill="none" stroke="#000" stroke-linecap="round" stroke-miterlimit="10" stroke-width="2" d="M19.9 29.3a4.359 4.359 0 01-.1 5.4M15.7 27.5s2.6 4.9-.7 9.4"/><g fill="none" stroke="#000" stroke-linecap="round" stroke-linejoin="round" stroke-width="2"><path d="M26.1 45.1c3-3-2.9-5.1-2.9-5.1l3.2-3.3a2.814 2.814 0 00.9-2.3c-.1-1.4-2.1-.4-2.1-.4l-5.6 5.7a1.612 1.612 0 00-.4.7l-1.3 5a5.643 5.643 0 00.1 3.4l.2.7L13.6 60M27.1 46v.8a3.034 3.034 0 01-1.2 2.5 7.61 7.61 0 01-3.4 1.6M22.4 50.9L19.2 60"/></g><path fill="none" stroke="#000" stroke-linecap="round" stroke-linejoin="round" stroke-width="2" d="M25.8 33.1A49.69 49.69 0 0125 24c0-6 5-12 14-12s14 6 14 12c0 7-1 14-4 14M29.1 38c-.9 0-1.5-.4-2.1-1.5"/><path fill="none" stroke="#000" stroke-linejoin="round" stroke-width="2" d="M28 31c-.1 8 4.9 14 11 14 5.9 0 11.1-6 11.1-14 0-5-3-11-3-11-8 0-10 3-16 1 0 0-3 5-3.1 10z"/><path fill="none" stroke="#000" stroke-linecap="round" stroke-linejoin="round" stroke-width="2" d="M36.1 37.7a6.375 6.375 0 016 0v.3a6.375 6.375 0 01-6 0z"/><path d="M37 30a2 2 0 11-2-2 2.006 2.006 0 012 2M45 30a2 2 0 11-2-2 2.006 2.006 0 012 2"/></svg>