<svg xmlns="http://www.w3.org/2000/svg" viewBox="0 0 72 72"><g fill="#fcea2b"><path d="M42.533 22.288a4.3 4.3 0 0 0-4.209-4.131h-6a4.3 4.3 0 0 0-4.209 4.131l-.792 19.44a1.017 1.017 0 0 1-.12.436l1.395-.996.824 21.035a1.232 1.232 0 0 0 .25.88.241.241 0 0 0 .152.09c.214 0 .656-.427.735-1.126l2.899-22.504a4.925 4.925 0 0 1 .402-1.192l.725-.805h1.625l.984.623a4.926 4.926 0 0 1 .352 1.341l2.542 22.535c.079.698.522 1.125.736 1.125a.242.242 0 0 0 .152-.09c.192-.248.49-.585.457-.9l-.076-21.516L44 42.5"/><circle cx="35.404" cy="10.651" r="2.969"/></g><g fill="none" stroke="#000" stroke-width="2"><circle cx="35.404" cy="10.651" r="2.969" stroke-miterlimit="10"/><path stroke-linecap="round" stroke-linejoin="round" d="M30.47 23.999c2.352 3.533.677 6.107.032 8a33.37 33.37 0 0 0-.898 5.613c-.6 5.976-1.002 24.005-1.002 24.005-.055 1.1.575 2 1.4 2a2.076 2.076 0 0 0 1.729-1.987l2.539-22.031c.126-1.093.679-1.987 1.229-1.987s1.1.894 1.229 1.987L39.27 61.63a2.076 2.076 0 0 0 1.729 1.987c.825 0 1.455-.9 1.4-2 0 0-.523-17.841-1.073-23.763A35.873 35.873 0 0 0 40.499 32c-.617-1.902-2.416-4.74-.029-8"/><path stroke-linecap="round" stroke-linejoin="round" d="m26.373 41.59.792-19a5.274 5.274 0 0 1 5.208-5H38.3a5.274 5.274 0 0 1 5.208 5l.792 19M39.128 7.711s.579-.27.926.018c.408.337.685 1.599 1.168 2.145a3.26 3.26 0 0 0 1.812 1.072"/></g></svg>