<svg xmlns="http://www.w3.org/2000/svg" viewBox="0 0 72 72"><circle cx="36" cy="36" r="24" fill="#FCEA2B"/><path fill="none" stroke="#000" stroke-linecap="round" stroke-linejoin="round" stroke-miterlimit="10" stroke-width="2" d="M28.823 44.288c2.369-.667 11.864.535 14.045 2.063M22.301 23.34a6.3 6.3 0 0 1 4.394-1.073 6.297 6.297 0 0 1 4.2 1.738m18.149 3.313c-2.415-1.724-5.351 0-8.233-.26"/><path d="M30 31a3.001 3.001 0 0 1-6 0c0-1.655 1.345-3 3-3s3 1.345 3 3m17 2a3.001 3.001 0 0 1-6 0c0-1.655 1.345-3 3-3s3 1.345 3 3"/><path fill="none" stroke="#000" stroke-linecap="round" stroke-linejoin="round" stroke-miterlimit="10" stroke-width="2" d="M55.644 47.97A22.893 22.893 0 0 0 59 36.054C59.03 23.35 48.756 13.03 36.054 13 23.35 12.97 13.03 23.243 13 35.946 12.97 48.648 23.243 58.97 35.946 59a22.898 22.898 0 0 0 13.88-4.619"/><circle cx="43.929" cy="30.81" r="9.421" fill="none" stroke="#000" stroke-linecap="round" stroke-linejoin="round" stroke-miterlimit="10" stroke-width="2"/><path fill="none" stroke="#000" stroke-linecap="round" stroke-linejoin="round" stroke-miterlimit="10" stroke-width="2" d="M53.688 30.957s2.212.55 1.923 4.013-3.569 7.962-3.569 7.962-2.02 2.362-1.46 4.322c.716 2.506 4.314 6.436 4.18 8.61"/></svg>