<svg xmlns="http://www.w3.org/2000/svg" viewBox="0 0 72 72"><g fill="#92d3f5"><path d="M29 58.2s-.9-3.6-.9-4.2v-6.3c0-4.3-3.4-4.7-3.4-4.7l-3.4 2.9-.7 8.4.1 3.9zM39.7 58.2s.9-3.6.9-4.2v-6.3c0-4.3 3.4-4.7 3.4-4.7l3.4 2.9.7 8.4-.1 3.9z"/></g><g fill="#debb90"><path d="M20.6 58.2l-.6-9.9c-2 1.6-3.5 3.8-3.5 6.1v2.9a1.907 1.907 0 01-.4 1M23.3 29.3c-.1 7.7 4.1 13.4 11 13.4 7.1 0 11.1-5.8 11.1-13.4 0-4.8-7.2-12.5-7.2-12.5-3.6 1.5-8.6 4.9-13.7 7.2-1.9 2.5-1.1 2.2-1.2 5.3zM28.9 58.2l-.8-10.7s7.4 3.2 12.1-.2l-.3 10.9zM48 58.2l.1-9.9 3.8 3.3.4 6.6H48z"/></g><path fill="#fcea2b" d="M44.1 37.2c1.9-3.3.6-9.9.2-11.8S37.8 16 37.8 16c-2.3 4.1-9 5.1-12.8 7.9s-.2 13.9-.2 13.9c-4 0-4-6-4-13s4-14 14-14 14 7 14 14 0 13-4 13l-.7-.6"/><path fill="none" stroke="#000" stroke-linecap="round" stroke-linejoin="round" stroke-width="2" d="M20.6 57.2l-.1-8.3c0-1 .1-2.6.7-3.2a7.494 7.494 0 011.6-.5c.9-.3 1.4-2.8 2.1-2.9.6-.1 2.9 2.8 3.1 2.9a5.367 5.367 0 01.1 2.2 24.776 24.776 0 00-.2 6.1c.1.9.8 3.7.8 3.7M48 57.2l.1-8.3c0-1-.1-2.6-.7-3.2a7.494 7.494 0 00-1.6-.5c-.9-.3-1.4-2.8-2.1-2.9-.6-.1-2.9 2.8-3.1 2.9a5.367 5.367 0 00-.1 2.2 24.776 24.776 0 01.2 6.1c-.1.9-.8 3.7-.8 3.7"/><path fill="none" stroke="#000" stroke-linecap="round" stroke-linejoin="round" stroke-width="2" d="M28.2 47.5a11.305 11.305 0 007.8 1.7h0a11.948 11.948 0 004-1.4M16.3 57.2v-2.9a6.264 6.264 0 01.6-2.7c.4-1.3 1.1-2.3 3.2-3.6M52.5 57.2v-2.9a6.264 6.264 0 00-.6-2.7c-.4-1.3-1.1-2.3-3.2-3.6M24.5 37.5c-4 0-4-6-4-13s4-14 14-14 14 7 14 14 0 13-4 13"/><path d="M40.4 28.5a2 2 0 11-2-2 2.006 2.006 0 012 2M32.4 28.5a2 2 0 11-2-2 2.006 2.006 0 012 2"/><path fill="none" stroke="#000" stroke-linejoin="round" stroke-width="2" d="M23.4 29.5c0 9 4.9 14 11 14 5.9 0 11.1-5 11.1-14a12.133 12.133 0 00-1-5c-3-3-7-8-7-8-4 3-7 6-13 7 0 0-1.1 1-1.1 6z"/><path fill="none" stroke="#000" stroke-linecap="round" stroke-linejoin="round" stroke-width="2" d="M31.5 36.5a6.671 6.671 0 006 0"/></svg>