<svg xmlns="http://www.w3.org/2000/svg" viewBox="0 0 72 72"><path fill="#92D3F5" d="m58 25.7-11.9-4.8c-.2-4.3-1.9-11.3-10.6-11.6-12 0-14.6 11-14.6 11l-1 2-.6 1.2-5.3 2.2"/><path fill="#61B2E4" d="M19.086 25.7 16.8 31.4a2.54 2.54 0 0 0-.2 1.9L19.5 44a.365.365 0 0 0 .7 0l.2-7.7.6-.6 1-1.3 8-8.8"/><path fill="#92D3F5" d="M17 60.949v-4c0-4.994 4.641-9.335 9.633-9.335 6 5 12.998 4.917 18.998-.083 4.994 0 9.369 4.424 9.369 9.418v4"/><path fill="#61B2E4" d="M45.662 60.949v-4.012c-.14-2.631-1.648-5.362-3.702-7.013.995-.554 2.676-1.563 3.67-2.393 4.995 0 9.37 4.424 9.37 9.418v4m-1.632-20.41a5 5 0 1 1 4.287-.188"/><path fill="#92D3F5" d="M55.315 32.472a4.382 4.382 0 0 0-2.34 1.15 10.65 10.65 0 0 1 4.68 0 4.382 4.382 0 0 0-2.34-1.15z"/><path fill="#A57939" d="M57.314 61V40.539h-4V61"/><path d="M35.758 54.396c13.421-9.693 13.094-22.147 11.7-27.582h-1.7S47.338 34.71 36 34.71s-9.496-7.897-9.496-7.897h-1.746c-1.602 4.745-2.397 15.674 11 27.582z"/><path fill="#a57939" d="M45.758 25.814S47.338 34.71 36 34.71s-9.496-8.897-9.496-8.897"/><path fill="none" stroke="#000" stroke-linecap="round" stroke-linejoin="round" stroke-width="2" d="M19.086 25.8 16.9 31.4a2.54 2.54 0 0 0-.2 1.9L19.5 44a.365.365 0 0 0 .7 0l.2-7.7c.01-.473.077-.943.2-1.4m6.3-17.4a15.942 15.942 0 0 0-.9 3.4h0l-12 4.9h44l-11.9-4.9c-.2-4.3-2.2-11.3-10.9-11.6-13 0-15.2 13.5-15.2 13.5m33.368 17.79a5 5 0 1 1 4.287-.188m-.341 19.649V40.605h-4v19.446"/><path fill="none" stroke="#000" stroke-linecap="round" stroke-linejoin="round" stroke-width="2" d="M46.44 48.109c2.707.407 5.272 1.925 6.876 4.06M17 60v-3c0-4.582 4.216-8.333 8.768-8.92"/><path d="M42 29.9c0 1.1-.9 2-2 2s-2-.9-2-2 .9-2 2-2 2 .9 2 2m-8 0c0 1.1-.9 2-2 2s-2-.9-2-2 .9-2 2-2 2 .9 2 2"/><path fill="none" stroke="#000" stroke-linecap="round" stroke-linejoin="round" stroke-width="2" d="M33 38.1c1.9 1 4.1 1 6 0"/><path fill="none" stroke="#000" stroke-linecap="round" stroke-linejoin="round" stroke-width="2" d="M35.758 54.396c13.421-9.693 13.094-22.147 11.7-27.582h-1.7S47.338 34.71 36 34.71s-9.496-7.897-9.496-7.897h-1.746c-1.602 4.745-2.397 15.674 11 27.582z"/></svg>