<svg xmlns="http://www.w3.org/2000/svg" viewBox="0 0 72 72"><path fill="#ea5a47" d="M25.604 19.372c.505-6.644 5.896-11.02 10.896-11.02 6 0 9.002 1.39 10.882 2.38 10.492 5.524 8.78 17.345 7.972 22.64.05-.004.095-.02.146-.02a1.992 1.992 0 011.727 1.009 1.983 1.983 0 011.727 2.991 1.983 1.983 0 01-1.727 2.992 1.984 1.984 0 01-3.454 0 1.983 1.983 0 01-1.727-2.992 1.991 1.991 0 01-.01-2 1.917 1.917 0 01.193-.25l-1.031-.482z"/><path fill="#d22f27" d="M25.972 19.72l19.528-.368s4-3-1-10c14 4 11.073 22.8 11.084 22.937-.02-.025-.077.085-.23 1.083.05-.003.095-.02.146-.02l-3.465 2a1.917 1.917 0 01.194-.25l-1.06.566z"/><path fill="#fff" d="M51.5 37.352a4 4 0 104-4c-2 1-2 1-3.296 1.733a3.981 3.981 0 00-.704 2.267zM47.322 19.352H25.678a1.077 1.077 0 00-1.178.933v3.135a1.077 1.077 0 001.178.932h21.644a1.077 1.077 0 001.178-.932v-3.135a1.077 1.077 0 00-1.178-.933z"/><path fill="#ea5a47" d="M55.48 60.958h-39.5a1 1 0 01-.938-.652c-.781-2.106-.108-7.711 2.69-11.357a9.693 9.693 0 018.981-3.82 1.011 1.011 0 01.544.224 14.17 14.17 0 008.077 3.37l.934-.008a14.17 14.17 0 007.934-3.362 1.011 1.011 0 01.544-.225 9.686 9.686 0 018.981 3.82c2.798 3.647 3.472 9.251 2.69 11.358a1 1 0 01-.937.652z"/><path fill="#d22f27" d="M53.727 48.947a9.686 9.686 0 00-8.981-3.82 1.01 1.01 0 00-.544.225 15.27 15.27 0 01-4.754 2.701 9.554 9.554 0 017.825 3.863 16.137 16.137 0 012.99 9.042h5.217a1 1 0 00.938-.653c.781-2.107.107-7.711-2.69-11.358z"/><path fill="#fff" d="M50.802 46.338a9.973 9.973 0 00-6.057-1.21 1.011 1.011 0 00-.543.225 14.17 14.17 0 01-7.934 3.362l-.933.008a14.17 14.17 0 01-8.077-3.37 1.011 1.011 0 00-.543-.225 9.988 9.988 0 00-6.056 1.21.986.986 0 00-.414 1.218c.003.01 0 .022.004.033 1.568 4.544 5.78 7.45 11.63 8.064v4.305a1 1 0 001 1h5.703a1 1 0 001-1v-4.305c5.85-.615 10.062-3.52 11.63-8.064.004-.011.001-.022.004-.034a.987.987 0 00-.414-1.217z"/><g><path fill="#a57939" d="M48.027 24.164a28.816 28.816 0 01.252 4.451 18.802 18.802 0 01-3.656 11.056 10.766 10.766 0 01-8.486 4.589l-.196-.002c-6.621-.138-11.858-7.385-11.675-16.155a28.076 28.076 0 01.349-4.121H47.94z"/></g><g><path d="M29.771 39.082l-.007-.013a16.429 16.429 0 01-3.542-10.975 27.476 27.476 0 01.261-3.406.94.94 0 00-.419-1.174l-.035-.024a.967.967 0 00-.256-.093.905.905 0 00-.101-.037c-.024-.004-.045.005-.068.003-.018-.001-.034-.01-.053-.01a.41.41 0 01-.184-.04l-.002-.007c0-.006-.005-.012-.005-.019a.986.986 0 00-.114-.346l-.004-.013c-.013-.024-.036-.037-.051-.059a.987.987 0 00-.186-.215.946.946 0 00-.118-.073 1.637 1.637 0 00-.514-.162c-.021 0-.04.011-.06.012a1.75 1.75 0 00-.381.102c-.017.008-.035.007-.051.016a13.562 13.562 0 01-4.9 1.308.999.999 0 00-.877 1.236c.088.35.85 3.229 2.654 4.567.187 2.311 1.356 11.116 8.297 11.116a.997.997 0 00.716-1.694zM42.699 39.776a1 1 0 001 1c6.94 0 8.11-8.805 8.297-11.116 1.803-1.338 2.565-4.216 2.653-4.567a.999.999 0 00-.877-1.236 13.563 13.563 0 01-4.9-1.308c-.015-.009-.034-.008-.05-.016a1.754 1.754 0 00-.381-.102c-.021 0-.04-.012-.06-.012a.96.96 0 00-.155.03.978.978 0 00-.153.028.966.966 0 00-.207.104.945.945 0 00-.117.073.988.988 0 00-.186.215c-.015.022-.038.035-.051.06l-.005.012a.986.986 0 00-.113.347c0 .006-.005.012-.005.018l-.002.007a.41.41 0 01-.184.04c-.02 0-.035.01-.054.01-.023.002-.044-.007-.067-.003a.905.905 0 00-.101.037.966.966 0 00-.256.093l-.036.024a.94.94 0 00-.418 1.174 27.488 27.488 0 01.261 3.406A16.43 16.43 0 0142.99 39.07l-.008.013a.994.994 0 00-.283.694z"/></g><g><path fill="none" stroke="#000" stroke-linecap="round" stroke-linejoin="round" stroke-width="2" d="M25.52 24.348a27.753 27.753 0 00-.298 3.747c-.172 8.26 4.639 15.06 10.746 15.188s11.197-6.466 11.37-14.727M47.338 28.556a27.46 27.46 0 00-.235-4.208"/><path d="M42 29.773a2 2 0 11-2-2 2 2 0 012 2M34 29.773a2 2 0 11-2-2 2 2 0 012 2M36 39.775a7.652 7.652 0 01-3.447-.858 1 1 0 01.894-1.789 5.377 5.377 0 005.106 0 1 1 0 11.894 1.79 7.653 7.653 0 01-3.447.857z"/><path fill="none" stroke="#000" stroke-linecap="round" stroke-linejoin="round" stroke-width="2" d="M47.27 19.372a23.783 23.783 0 00-.36-2.75M47.195 19.352H25.55a1.077 1.077 0 00-1.178.933v3.135a1.077 1.077 0 001.178.932h21.644a1.077 1.077 0 001.178-.932v-3.135a1.077 1.077 0 00-1.178-.933z"/><path fill="none" stroke="#000" stroke-linecap="round" stroke-linejoin="round" stroke-width="2" d="M25.476 19.372c.506-6.644 5.897-11.02 10.897-11.02 6 0 9.002 1.39 10.881 2.38 10.493 5.524 8.78 17.345 7.973 22.64.05-.004.095-.02.146-.02a1.992 1.992 0 011.727 1.009 1.983 1.983 0 011.727 2.991 1.983 1.983 0 01-1.727 2.992 1.984 1.984 0 01-3.455 0 1.983 1.983 0 01-1.727-2.992 1.991 1.991 0 01-.01-2 1.917 1.917 0 01.194-.25l-1.031-.482"/><path fill="none" stroke="#000" stroke-linecap="round" stroke-linejoin="round" stroke-width="2" d="M25.476 19.372c.506-6.644 5.897-11.02 10.897-11.02 6 0 9.002 1.39 10.881 2.38 10.493 5.524 8.78 17.345 7.973 22.64.05-.004.095-.02.146-.02a1.992 1.992 0 011.727 1.009 1.983 1.983 0 011.727 2.991 1.983 1.983 0 01-1.727 2.992 1.984 1.984 0 01-3.455 0 1.983 1.983 0 01-1.727-2.992 1.991 1.991 0 01-.01-2 1.917 1.917 0 01.194-.25l-1.031-.482M38.582 59.958v-5.225c5.863-.362 10.13-2.969 11.684-7.47"/><path fill="none" stroke="#000" stroke-linecap="round" stroke-linejoin="round" stroke-width="2" d="M55.48 59.958c.993-2.674-.775-14.758-10.64-13.834a15.132 15.132 0 01-8.565 3.591l-1.004.006a15.112 15.112 0 01-8.65-3.597c-9.866-.924-11.633 11.16-10.641 13.834"/><path fill="none" stroke="#000" stroke-linecap="round" stroke-linejoin="round" stroke-width="2" d="M21.194 47.263c1.554 4.501 5.82 7.108 11.684 7.47v5.225M24.373 23.42a14.258 14.258 0 01-5.298 1.433s.818 3.288 2.649 4.236c0 0 .386 10.687 7.33 10.687M48.381 23.42a14.258 14.258 0 005.298 1.433s-.818 3.288-2.65 4.236c0 0-.385 10.687-7.33 10.687"/></g></svg>