<svg xmlns="http://www.w3.org/2000/svg" viewBox="0 0 72 72"><path fill="#92D3F5" d="M17 61v-4c0-4.994 5.008-9 10-9 6 5 12 5 18 0 4.994 0 10 4.006 10 9v4"/><path fill="#E27022" d="M26 39c-4 0-4-6-4-13s4-14 14-14 14 7 14 14 0 13-4 13"/><path fill="#a57939" d="M24.936 31c0 9 4.937 14 11 14C41.873 45 47 40 47 31c0-3-1-5-1-5-3-3-7-8-7-8-4 3-7 6-13 7 0 0-1.064 1-1.064 6z"/><path fill="none" stroke="#000" stroke-linecap="round" stroke-linejoin="round" stroke-width="2" d="M26 39c-4 0-4-6-4-13s4-14 14-14 14 7 14 14 0 13-4 13M17 60v-3c0-4.994 5.008-9 10-9 6 5 12 5 18 0 4.994 0 10 4.006 10 9v3"/><path d="M41.873 30a2 2 0 1 1-4 0 2 2 0 0 1 4 0m-8 0a2 2 0 1 1-4 0 2 2 0 0 1 4 0"/><path fill="none" stroke="#000" stroke-linejoin="round" stroke-width="2" d="M24.936 31c0 9 4.937 14 11 14C41.873 45 47 40 47 31c0-3-1-5-1-5-3-3-7-8-7-8-4 3-7 6-13 7 0 0-1.064 1-1.064 6z"/><path fill="none" stroke="#000" stroke-linecap="round" stroke-linejoin="round" stroke-width="2" d="M33 38c1.938.939 4 1 6 0"/></svg>