<svg xmlns="http://www.w3.org/2000/svg" viewBox="0 0 72 72"><path fill="#3F3F3F" d="M54.862 58.804s2-14-10-14c-3.192 2.128-5.926 3.598-9 3.592h.125c-3.074.006-5.808-1.464-9-3.592-12 0-10 14-10 14"/><path fill="#9B9B9A" d="m45.131 12.155-9.31.91-9.07-.88-5.44-.53 13.88-2.53 15.13 2.53z"/><path fill="#3F3F3F" d="M45.131 12.155v7.97s-6.72-.26-9.19 2.64c-2.47-2.9-9.19-2.64-9.19-2.64v-7.94l9.07.88 9.31-.91z"/><path fill="#FFF" d="M35.969 51.38h-.109c-3.198-.031-5.986-1.464-9.428-3.76a1 1 0 1 1 1.109-1.664c3.153 2.103 5.66 3.41 8.383 3.425 2.722-.014 5.228-1.322 8.383-3.425a1 1 0 1 1 1.109 1.664c-3.443 2.296-6.231 3.729-9.428 3.76h-.02z"/><path d="M26.578 20.098a15.773 15.773 0 0 0-1.588 4l-.028.069s3.98.784 7.961-3.079l.036-.102c-2.869-.996-6.333-.86-6.333-.86m18.386-.001s-3.408-.201-6.325.905l.028.058c3.98 3.863 7.96 3.079 7.96 3.079l-.01.002a15.785 15.785 0 0 0-1.605-4.071"/><path fill="#6a462f" d="M46.541 24.187c-.704.094-4.26.362-7.826-3.099l-.028-.058.022-.008c-1.09.39-2.09.947-2.768 1.743-2.069-2.43-7.104-2.64-8.687-2.645 1.127.011 3.578.127 5.705.866l-.036.102c-3.565 3.46-7.122 3.193-7.826 3.099a17.253 17.253 0 0 0-.616 4.593c0 7.827 5.076 14.173 11.338 14.173s11.339-6.346 11.339-14.173c0-1.61-.22-3.153-.617-4.593z"/><path d="M41.942 26.951a2 2 0 1 1-4.002-.001 2 2 0 0 1 4.002.001m-8 0a2 2 0 1 1-4.002-.001 2 2 0 0 1 4.002.001m1.999 10.003c-1.151 0-2.303-.286-3.447-.858a1 1 0 1 1 .895-1.79c1.717.86 3.387.86 5.105 0a1 1 0 0 1 .895 1.79c-1.144.572-2.296.858-3.448.858z"/><path d="M46.13 19.77c-.57-1.03-1.24-1.97-2-2.79v2.15c-.22 0-.48.01-.76.03.46.6.87 1.26 1.23 1.96 1.06 2.07 1.68 4.54 1.68 7.19 0 7.27-4.64 13.18-10.34 13.18S25.6 35.58 25.6 28.31c0-2.66.62-5.13 1.69-7.2.36-.7.77-1.35 1.22-1.95-.28-.02-.54-.03-.76-.03v-2.15c-.75.82-1.43 1.76-2 2.79-1.36 2.43-2.15 5.37-2.15 8.54 0 8.37 5.54 15.18 12.34 15.18 6.81 0 12.34-6.81 12.34-15.18 0-3.17-.79-6.11-2.15-8.54z"/><path fill="none" stroke="#000" stroke-linecap="round" stroke-linejoin="round" stroke-miterlimit="10" stroke-width="2" d="m21.311 11.655 5.44.53 9.07.88 9.31-.91 5.19-.5"/><path d="M36.74 23.37c-.02.01-.03.03-.04.04-.13.16-.29.26-.47.31-.04.02-.08.03-.12.03-.06.02-.11.02-.17.02s-.12 0-.17-.02c-.04 0-.08-.01-.12-.03a.897.897 0 0 1-.36-.19.752.752 0 0 1-.15-.16c-1.65-1.86-5.85-2.25-7.85-2.26-.19 0-.36.01-.5.01a.978.978 0 0 1-.73-.27.992.992 0 0 1-.31-.72v-8.47c0-.56.45-1 1-1s1 .44 1 1v7.47c.22 0 .48.01.76.03 2.04.12 5.36.57 7.43 2.24.28.21.53.45.76.72.31.36.32.88.04 1.25z"/><path d="M46.13 11.66v8.47c0 .27-.11.53-.3.72-.2.18-.44.28-.74.28-.14-.01-.31-.01-.49-.01-2.01 0-6.22.38-7.86 2.25-.02.01-.03.03-.04.04-.13.16-.29.26-.47.31-.04.02-.08.03-.12.03-.06.02-.11.02-.17.02s-.12 0-.17-.02c-.04 0-.08-.01-.12-.03a.897.897 0 0 1-.36-.19.752.752 0 0 1-.15-.16.994.994 0 0 1 .04-1.25c.23-.27.48-.51.76-.72 2.07-1.67 5.39-2.12 7.43-2.24.28-.02.54-.03.76-.03v-7.47c0-.56.45-1 1-1s1 .44 1 1z"/><path fill="none" stroke="#000" stroke-linecap="round" stroke-linejoin="round" stroke-miterlimit="10" stroke-width="2" d="m50.321 11.655-15.13-2.53-13.88 2.53"/><path d="M21.313 21a1 1 0 0 1-1-1v-8.12a1 1 0 1 1 2 0V20a1 1 0 0 1-1 1z"/><path d="M19.285 23.58a.999.999 0 0 1-.785-1.618l2.026-2.58a1 1 0 0 1 1.573 1.236l-2.027 2.58a.998.998 0 0 1-.787.382z"/><path d="M21.313 25.101a1 1 0 0 1-1-1v-4.1a1 1 0 1 1 2 0v4.1a1 1 0 0 1-1 1zm24.581.131c-1.594 0-4.688-.45-7.753-3.426a1 1 0 1 1 1.392-1.436c3.522 3.419 6.936 2.842 7.078 2.815a1.004 1.004 0 0 1 1.165.796.996.996 0 0 1-.785 1.167 6.16 6.16 0 0 1-1.097.084zm-19.904 0a6.034 6.034 0 0 1-1.098-.084 1 1 0 0 1 .38-1.963c.162.03 3.567.594 7.078-2.815a1 1 0 0 1 1.392 1.436c-3.065 2.975-6.159 3.426-7.753 3.426zm28.769 33.571a1 1 0 0 1-.99-1.15c.008-.057.827-5.74-2.13-9.177-1.475-1.715-3.689-2.613-6.585-2.67-3.31 2.186-6.029 3.547-9.126 3.59h-.218c-3.1-.043-5.816-1.404-9.126-3.59-2.897.057-5.11.955-6.586 2.67-2.956 3.436-2.138 9.12-2.129 9.177a1 1 0 0 1-1.976.303c-.042-.27-.973-6.633 2.58-10.775 1.923-2.241 4.752-3.377 8.408-3.377a1 1 0 0 1 .554.168c3.154 2.102 5.66 3.41 8.383 3.424 2.722-.013 5.229-1.322 8.383-3.424a.997.997 0 0 1 .555-.168c3.656 0 6.484 1.135 8.407 3.377 3.554 4.142 2.622 10.506 2.581 10.775a.999.999 0 0 1-.986.847z"/></svg>