<svg xmlns="http://www.w3.org/2000/svg" viewBox="0 0 72 72"><path fill="#92D3F5" d="M18 61v-4.1c0-5 3.8-9 8.8-9 6 5 12 5 18 0 5 0 9.2 4 9.2 9V61"/><path d="M26 40c-6 0-5-16-2-20 6-8 18-8 24 0 3 4 4 20-2 20"/><path fill="#6a462f" d="M25 34c0 8 4.8 11.9 10.8 11.9S47 42 47 34c0-5.9-2.2-9.2-2.2-9.2-2 0-5.8-3.5-5.8-3.5s-8.2 5.5-12.8 5.5c0 0-1.2 1.2-1.2 7.2z"/><path fill="none" stroke="#000" stroke-linecap="round" stroke-linejoin="round" stroke-width="2" d="M26 40c-6 0-5-16-2-20 6-8 18-8 24 0 3 4 4 20-2 20M18 60v-3.1c0-5 3.8-9 8.8-9 6 5 12 5 18 0 5 0 9.2 4 9.2 9V60"/><path d="M42 33c0 1.1-.9 2-2 2s-2-.9-2-2 .9-2 2-2 2 .9 2 2m-8 0c0 1.1-.9 2-2 2s-2-.9-2-2 .9-2 2-2 2 .9 2 2"/><path fill="none" stroke="#000" stroke-linejoin="round" stroke-width="2" d="M25 34c0 8 4.8 11.9 10.8 11.9S47 42 47 34c0-5.9-2.2-9.2-2.2-9.2-2 0-5.8-3.5-5.8-3.5s-8.2 5.5-12.8 5.5c0 0-1.2 1.2-1.2 7.2z"/><path fill="none" stroke="#000" stroke-linecap="round" stroke-linejoin="round" stroke-width="2" d="M32.8 39.2c1.9 1 4.1 1 6 0"/></svg>