<svg xmlns="http://www.w3.org/2000/svg" viewBox="0 0 72 72"><path fill="#92D3F5" d="m51.112 33.188 3.05 1.017L52.898 38l-3.05-1.017"/><path fill="#D0CFCE" d="M40 7v1l-2 8s-1 3-3 6-4 4-4 4l-3 2-2 2-5 11 1 2v1l1 1-3 4-3.266 7.688L11 62l-7.041 1L4 9l16-5h16l4 3z"/><g fill="#fadcbc"><circle cx="51.969" cy="15.094" r="3"/><path d="m48 21 4.969 2.375-2.762 13.235-1.072 1.53L47 50l3 12-3 1-5-13V40l-9-5-9 9-2-2 10-12 9.602 2.88S44.626 26.25 46 24c0 0-4.917-.75-11.826-2.91-1.544-.484-3.018-1.559-2.018-3.559"/></g><g fill="none" stroke="#000" stroke-miterlimit="10" stroke-width="2"><circle cx="51.969" cy="15.094" r="3"/><path stroke-linecap="round" stroke-linejoin="round" d="m42 33-8.084-2.426c-1.054-.315-2.492.117-3.196.962l-7.44 8.928c-.704.845-.83 1.986-.28 2.536s1.637.363 2.414-.414l6.172-6.172c.777-.777 2.201-.976 3.162-.442l5.504 3.056c.96.535 2.648.972 3.748.972h1c1.1 0 2.618-.653 3.375-1.453l.457-.483c.757-.8 1.554-2.266 1.772-3.26L51 33"/><path stroke-linecap="round" stroke-linejoin="round" d="m49.135 38.14-1.78 9.891c-.196 1.083-.136 2.842.13 3.91l2.03 8.119c.266 1.067-.19 2.165-1.015 2.44s-1.823-.34-2.218-1.366l-3.564-9.268C42.323 50.84 42 49.1 42 48v-7m9-8 1.85-6.168c.632-2.108-.2-4.282-1.85-4.832s-4.786-1.223-6.969-1.496l-.062-.008c-2.183-.273-5.544-.925-7.469-1.45l-3.5-.952M16 56l7-11-2-4 6-13 5-3 2-3m9 8 8 3m1.265.572 1.897.633L52.898 38 51 37.367M37 16l2-8m7 17-1 2"/></g></svg>