<svg xmlns="http://www.w3.org/2000/svg" viewBox="0 0 72 72"><path fill="#d22f27" d="M44.75 28.12V64H26.47V28.12a8.983 8.983 0 015.93-8.707 6.368 6.368 0 01.65-.176h.01a7.487 7.487 0 011.66-.187h1.78c4.56 0 8.25 4.056 8.25 9.07z"/><path fill="#ea5a47" d="M38.33 26.723V64H26.47V28.12a8.983 8.983 0 015.93-8.707 6.368 6.368 0 01.65-.176h.01a7.487 7.487 0 011.66-.187h.15a9.844 9.844 0 013.46 7.673zM33.518 9.977h4.186v8.704h-4.186z"/><path fill="#d0cfce" d="M44.75 12.717v3.187h-7.046v-3.187zM33.52 12.717h-4.64a4.51 4.51 0 00-3.746 1.997l-5.504 8.2a1.594 1.594 0 00.675 2.34 1.653 1.653 0 002.023-.641l4.475-6.704a4.51 4.51 0 013.751-2.006h2.966zM44.751 12.412v3.833l12.093 2.619V9.793l-12.093 2.619z"/><path fill="#fff" d="M30.913 29.284h9.395v5.674h-9.395z"/><g fill="none" stroke="#000" stroke-linecap="round" stroke-linejoin="round" stroke-width="2"><path d="M35.611 19.052h0a9.14 9.14 0 019.14 9.14v34.913a.89.89 0 01-.89.891H27.361a.89.89 0 01-.89-.89V28.191a9.14 9.14 0 019.139-9.14zM33.518 9.977h4.186v8.704h-4.186zM44.75 12.717v3.187h-7.046v-3.187z"/><path d="M33.52 12.717h-4.64a4.51 4.51 0 00-3.746 1.997l-5.504 8.2a1.594 1.594 0 00.675 2.34 1.653 1.653 0 002.023-.641l4.475-6.704a4.51 4.51 0 013.751-2.006h2.966zM44.751 12.412v3.833l12.093 2.619V9.793l-12.093 2.619zM30.913 29.284h9.395v5.674h-9.395z"/></g></svg>