<svg xmlns="http://www.w3.org/2000/svg" viewBox="0 0 72 72"><rect width="3.155" height="18.929" x="11.357" y="26.537" fill="#92d3f5" rx="1.5" ry="1.5"/><rect width="3.155" height="13.671" x="21.873" y="29.166" fill="#b1cc33" rx="1.5" ry="1.5"/><rect width="3.155" height="18.929" x="57.492" y="26.538" fill="#92d3f5" rx="1.5" ry="1.5"/><rect width="3.155" height="13.671" x="46.975" y="29.166" fill="#b1cc33" rx="1.5" ry="1.5"/><path fill="none" stroke="#000" stroke-linecap="round" stroke-miterlimit="10" stroke-width="2" d="M9.71 20.228s22.12 3.16 26.3 15.804c5.063 12.664 26.28 15.742 26.28 15.742M38.404 32.009c7.19-10.565 23.886-11.783 23.886-11.783"/><path d="M13.012 26.537a1.5 1.5 0 0 1 1.5 1.5v15.929a1.5 1.5 0 0 1-1.5 1.5h-.155a1.5 1.5 0 0 1-1.5-1.5v-15.93a1.5 1.5 0 0 1 1.5-1.5h.155m0-2h-.155a3.504 3.504 0 0 0-3.5 3.5v15.93a3.504 3.504 0 0 0 3.5 3.5h.155a3.504 3.504 0 0 0 3.5-3.5v-15.93a3.504 3.504 0 0 0-3.5-3.5zm10.516 4.63a1.5 1.5 0 0 1 1.5 1.5v10.67a1.5 1.5 0 0 1-1.5 1.5h-.155a1.5 1.5 0 0 1-1.5-1.5v-10.67a1.5 1.5 0 0 1 1.5-1.5h.155m0-2h-.155a3.504 3.504 0 0 0-3.5 3.5v10.67a3.504 3.504 0 0 0 3.5 3.5h.155a3.504 3.504 0 0 0 3.5-3.5v-10.67a3.504 3.504 0 0 0-3.5-3.5zm35.618-.628a1.5 1.5 0 0 1 1.5 1.5v15.929a1.5 1.5 0 0 1-1.5 1.5h-.155a1.5 1.5 0 0 1-1.5-1.5v-15.93a1.5 1.5 0 0 1 1.5-1.5h.155m0-2h-.155a3.504 3.504 0 0 0-3.5 3.5v15.93a3.504 3.504 0 0 0 3.5 3.5h.155a3.504 3.504 0 0 0 3.5-3.5v-15.93a3.504 3.504 0 0 0-3.5-3.5zM48.63 29.166a1.5 1.5 0 0 1 1.5 1.5v10.671a1.5 1.5 0 0 1-1.5 1.5h-.155a1.5 1.5 0 0 1-1.5-1.5v-10.67a1.5 1.5 0 0 1 1.5-1.5h.155m0-2h-.155a3.504 3.504 0 0 0-3.5 3.5v10.67a3.504 3.504 0 0 0 3.5 3.5h.155a3.504 3.504 0 0 0 3.5-3.5v-10.67a3.504 3.504 0 0 0-3.5-3.5z"/><path fill="none" stroke="#000" stroke-linecap="round" stroke-miterlimit="10" stroke-width="2" d="M33.596 39.991C26.406 50.556 9.71 51.774 9.71 51.774"/></svg>