<svg xmlns="http://www.w3.org/2000/svg" viewBox="0 0 72 72"><rect width="41.633" height="26.487" x="15.605" y="25.672" fill="#ffa7c0" rx="10.965" ry="10.965"/><path fill="#61b2e4" d="M18.943 34.353a4.162 4.162 0 0 1-4.164 4.163 3.91 3.91 0 0 1-1.561-.312 4.15 4.15 0 0 1 0-7.702 3.909 3.909 0 0 1 1.561-.313 4.162 4.162 0 0 1 4.164 4.164z"/><ellipse cx="14.259" cy="34.353" fill="#92d3f5" rx="2.602" ry="3.851"/><ellipse cx="19.675" cy="23.708" fill="#92d3f5" rx="3.802" ry="4.684" transform="rotate(-25.363 19.675 23.708)"/><path fill="#61b2e4" d="M31.644 23.279a5.206 5.206 0 0 1-1.803 7.135 5.552 5.552 0 0 1-1.458.603 5.219 5.219 0 0 1-5.098-8.545 5.551 5.551 0 0 1 1.224-.997 5.206 5.206 0 0 1 7.135 1.804z"/><ellipse cx="25.853" cy="26.851" fill="#92d3f5" rx="3.691" ry="5.154" transform="rotate(-50.384 25.853 26.851)"/><g fill="none" stroke="#000" stroke-width="2"><path stroke-miterlimit="10" d="M21.236 27.257a11.392 11.392 0 0 0-3.903 3.81m14.166-5.392h14.322a11.44 11.44 0 0 1 11.418 11.408v3.664A11.44 11.44 0 0 1 45.82 52.154H27.023a11.44 11.44 0 0 1-11.418-11.408v-2.31"/><path stroke-linecap="round" stroke-linejoin="round" d="M24.948 35.896h22.948m-22.948 6.039h22.948"/><circle cx="14.779" cy="34.353" r="4.163" stroke-miterlimit="10"/><path stroke-linecap="round" stroke-linejoin="round" d="M23.675 21.87a5.135 5.135 0 0 0-.49.364 4.108 4.108 0 0 0-.178-.498 4.163 4.163 0 1 0-1.98 5.545c.067-.031.122-.077.186-.111a5.199 5.199 0 1 0 2.462-5.3z"/></g></svg>