<svg xmlns="http://www.w3.org/2000/svg" viewBox="0 0 72 72"><path fill="#d0cfce" d="M48.031 57.253V14.658H23.729v42.595h24.302z"/><g fill="none" stroke="#000" stroke-linecap="round" stroke-linejoin="round" stroke-width="2"><path d="M23.729 15.428V56.32M48.031 56.32V15.428M23.729 15.428l3.237-1.703 2.027 1.836 3.674-1.599 3.083 1.629 3.547-1.541 2.956 1.363 2.999-1.451 2.724 1.398M48.031 56.32l-3.524 1.866-2.028-1.837-3.674 1.6-3.083-1.629-3.547 1.54-2.956-1.362-2.999 1.451-2.444-1.515M27.275 28.213h8.327M40.729 28.215h3.587M27.275 33.747h7.707M40.729 33.752h3.587M27.275 39.261h6.732M40.729 39.288h3.587M40.729 45.822h3.587"/></g></svg>