<svg xmlns="http://www.w3.org/2000/svg" viewBox="0 0 72 72"><path fill="#e67a94" d="m21.504 37.56 15.557-15.556L50.496 35.44 34.939 50.996z"/><path fill="#ffa7c0" d="m13.928 45.137 7.677-7.677L35.04 50.895l-7.677 7.677z"/><rect width="19" height="19" x="12.105" y="41.395" fill="#ffa7c0" rx="8.821" ry="8.821" transform="rotate(-45 21.605 50.895)"/><path fill="#ffa7c0" d="m58.072 27.863-7.677 7.677L36.96 22.105l7.677-7.677z"/><rect width="19" height="19" x="40.895" y="12.605" fill="#ffa7c0" rx="9.5" ry="9.5" transform="rotate(135 50.395 22.105)"/><circle cx="19.974" cy="44.465" r=".679" fill="#e67a94"/><circle cx="22.661" cy="47.152" r=".679" fill="#e67a94"/><circle cx="25.348" cy="49.839" r=".679" fill="#e67a94"/><circle cx="28.035" cy="52.526" r=".679" fill="#e67a94"/><circle cx="17.095" cy="47.344" r=".679" fill="#e67a94"/><circle cx="19.782" cy="50.031" r=".679" fill="#e67a94"/><circle cx="22.469" cy="52.718" r=".679" fill="#e67a94"/><circle cx="25.156" cy="55.405" r=".679" fill="#e67a94"/><circle cx="46.844" cy="17.595" r=".679" fill="#e67a94"/><circle cx="49.531" cy="20.282" r=".679" fill="#e67a94"/><circle cx="52.218" cy="22.969" r=".679" fill="#e67a94"/><circle cx="54.905" cy="25.656" r=".679" fill="#e67a94"/><circle cx="43.965" cy="20.474" r=".679" fill="#e67a94"/><circle cx="46.652" cy="23.161" r=".679" fill="#e67a94"/><circle cx="49.339" cy="25.848" r=".679" fill="#e67a94"/><circle cx="52.026" cy="28.535" r=".679" fill="#e67a94"/><path stroke="#000" stroke-miterlimit="10" stroke-width="2" d="M43.677 15.388 14.888 44.177"/><path fill="none" stroke="#000" stroke-miterlimit="10" stroke-width="2" d="M21.605 37.46 35.04 50.895m22.072-22.072a9.5 9.5 0 0 0-13.435-13.435M28.323 57.612a9.5 9.5 0 0 1-13.435-13.435M36.96 22.105 50.395 35.54M28.323 57.612l28.789-28.789"/><circle cx="19.974" cy="44.465" r=".679"/><circle cx="22.661" cy="47.152" r=".679"/><circle cx="25.348" cy="49.839" r=".679"/><circle cx="28.035" cy="52.526" r=".679"/><circle cx="17.095" cy="47.344" r=".679"/><circle cx="19.782" cy="50.031" r=".679"/><circle cx="22.469" cy="52.718" r=".679"/><circle cx="25.156" cy="55.405" r=".679"/><circle cx="46.844" cy="17.595" r=".679"/><circle cx="49.531" cy="20.282" r=".679"/><circle cx="52.218" cy="22.969" r=".679"/><circle cx="54.905" cy="25.656" r=".679"/><circle cx="43.965" cy="20.474" r=".679"/><circle cx="46.652" cy="23.161" r=".679"/><circle cx="49.339" cy="25.848" r=".679"/><circle cx="52.026" cy="28.535" r=".679"/></svg>