<svg xmlns="http://www.w3.org/2000/svg" viewBox="0 0 72 72"><path fill="#a57939" d="M56.257 56.508a3.644 3.644 0 0 1-1.825-.12 4.12 4.12 0 0 1-2.537-2.547c-.174-.47-.845-2.395-1.736-4.955-2.053-5.896-5.874-16.872-6.462-18.065a7.623 7.623 0 0 0-7.373-4.382c-5.237-.023-20.353.076-22.846.104a4.277 4.277 0 0 1-3.397-1.452 3.818 3.818 0 0 1-.747-3.265 4.155 4.155 0 0 1 .357-.963c.047-.097.093-.194.134-.291l.096-.178a4.241 4.241 0 0 1 2.98-1.72c1.904-.327 4.414-.763 7.179-1.243 12.1-2.1 22.222-3.847 23.523-3.934a10.077 10.077 0 0 1 10.719 8.48 11634.2 11634.2 0 0 1 5.14 29.724 3.971 3.971 0 0 1-1.737 4.2 4.034 4.034 0 0 1-1.468.607z"/><path fill="#fcea2b" d="m18.108 25.507-2.684-5.736 4.075-.729 2.883 6.163-4.274.302z"/><path fill="#d22f27" d="m24.964 26.476-3.532-7.599 4.08-.718 3.853 8.288-4.401.029z"/><path fill="#fcea2b" d="m51.167 50.764 6.232 1.128-.337-4.125-6.695-1.212.8 4.209z"/><path fill="#d22f27" d="m48.589 44.382 8.139 1.473-.349-4.127-9.311-1.685 1.521 4.339z"/><g fill="none" stroke="#000" stroke-width="2"><path stroke-linecap="round" stroke-miterlimit="10" d="M48.402 40.823c-1.738-4.951-3.41-9.635-3.807-10.444a8.604 8.604 0 0 0-8.267-4.94c-1.779-.008-4.653-.002-7.78.01"/><path stroke-miterlimit="10" d="M25.621 25.463c-5.443.027-10.87.066-12.154.08-2.155.024-3.562-1.52-3.154-3.516a6.14 6.14 0 0 1 .436-1.072 3.226 3.226 0 0 1 2.322-1.295c8.461-1.453 28.85-5.047 30.6-5.165a9.022 9.022 0 0 1 9.665 7.654c1.446 8.264 4.865 28.077 5.14 29.717a2.986 2.986 0 0 1-1.301 3.2 2.85 2.85 0 0 1-4.343-1.574c-.277-.745-1.81-5.18-3.488-9.98"/><path stroke-linecap="round" stroke-linejoin="round" d="m19.203 25.5-1.611-3.444m8.029 3.418L24.01 22.03m27.523 27.8 3.743.666m-5.929-6.984 3.744.666"/></g></svg>