<svg xmlns="http://www.w3.org/2000/svg" viewBox="0 0 72 72"><circle cx="56.882" cy="44.306" r="1"/><circle cx="60.702" cy="38.72" r="1"/><circle cx="59.772" cy="42.927" r="1"/><circle cx="57.873" cy="40.056" r="1"/><circle cx="61.661" cy="34.395" r="1"/><circle cx="58.855" cy="35.607" r="1"/><circle cx="59.827" cy="31.322" r="1"/><circle cx="19.912" cy="45.562" r="1"/><circle cx="18.062" cy="41.609" r="1"/><circle cx="16.082" cy="37.506" r="1"/><circle cx="14.194" cy="33.538" r="1"/><g><path fill="#781e32" d="M19.799 54.97a1.001 1.001 0 01-.906-.573L6.822 28.817a1 1 0 01.478-1.332l5.774-2.724a.999.999 0 011.332.477l12.07 25.581A1 1 0 0126 52.15l-5.775 2.725a.99.99 0 01-.425.096zM60.461 53.361a.992.992 0 01-.4-.005l-7.412-1.628a1 1 0 01-.763-1.192l6.07-27.627a1.001 1.001 0 011.19-.762l7.412 1.628a1 1 0 01.763 1.191l-6.07 27.627a1 1 0 01-.79.768z"/><path fill="#fff" d="M15.925 53.028a3.646 3.646 0 01-3.288-2.084L5.765 36.383a3.632 3.632 0 011.736-4.835l2.101-.992a1 1 0 011.331.477l9.118 19.323a1 1 0 01-.477 1.331l-2.102.992a3.617 3.617 0 01-1.548.35z"/><path fill="#d0cfce" d="M28.962 46.828L17.965 22.982l2.926-1.727 8.071 25.573zM34.792 44.759l-7.087-26.826 3.341-.048 3.746 26.874zM41.294 45.068l-2.958-28.122 2.873.845.085 27.277zM48.025 46.637l1.167-27.092 1.927 2.434-3.094 24.658z"/><circle cx="56.882" cy="44.306" r="1" fill="#fff"/><circle cx="60.702" cy="38.72" r="1" fill="#fff"/><circle cx="59.772" cy="42.927" r="1" fill="#fff"/><circle cx="57.873" cy="40.056" r="1" fill="#fff"/><circle cx="61.661" cy="34.395" r="1" fill="#fff"/><circle cx="58.855" cy="35.607" r="1" fill="#fff"/><circle cx="59.827" cy="31.322" r="1" fill="#fff"/><circle cx="19.912" cy="45.562" r="1" fill="#fff"/><circle cx="18.062" cy="41.609" r="1" fill="#fff"/><circle cx="16.082" cy="37.506" r="1" fill="#fff"/><circle cx="14.194" cy="33.538" r="1" fill="#fff"/></g><g fill="none" stroke="#000" stroke-linecap="round" stroke-linejoin="round" stroke-width="2"><path d="M43.915 21.386l4.503-1.213-1.421 26.61-3.882-2.412M53.664 25.174l4.889-.469-5.494 24.762-2.882-3.244M33.866 19.708l4.246-1.784 2.213 27.459-3.952-1.687M23.952 21.272l3.882-2.337 6.146 26.987-4.007-1.033M14.73 27.043l3.734-3.204L28.35 47.44h-4.513M9.331 31.789L7.727 28.39l5.773-2.725 12.072 25.581-5.774 2.724-1.349-2.858"/><path d="M19.147 50.783l-3.678 1.735a.89.89 0 01-1.184-.425L5.926 34.38a.89.89 0 01.425-1.184l3.678-1.736M58.932 23.123l7.411 1.628-6.069 27.628-7.411-1.629zM9.886 35.642l-2.774 1.294M11.461 38.734l-2.774 1.294M13.054 41.861l-2.774 1.293M14.557 45.032l-2.773 1.293M16.117 48.197l-2.774 1.294"/></g></svg>