<svg xmlns="http://www.w3.org/2000/svg" viewBox="0 0 72 72"><ellipse cx="34.153" cy="34.635" fill="#fcea2b" rx="29.033" ry="22.118" transform="rotate(-51.131 34.153 34.635)"/><path fill="#fff" d="M52.139 12.03a18.698 18.698 0 0 0-13.3-3.86 17.98 17.98 0 0 1 10.077 3.86c9.51 7.666 9.064 24-.998 36.484-6.14 7.618-14.44 12.034-22.14 12.584 8.53.639 18.353-3.889 25.362-12.584 10.062-12.484 10.51-28.819.999-36.484z"/><path fill="#f1b31c" d="M55.349 13.082a20.374 20.374 0 0 0-1.558-1.138.928.928 0 0 0-.11-.045 1.03 1.03 0 0 0-.556-.102.923.923 0 0 0-.527.235.943.943 0 0 0-.094.069c-.019.02-.025.047-.042.068s-.041.034-.057.057a.945.945 0 0 0-.044.11 1.027 1.027 0 0 0-.102.562.978.978 0 0 0 .043.183.834.834 0 0 0 .19.336.941.941 0 0 0 .07.097c8.278 7.636 7.415 22.736-1.965 34.375-9.702 12.035-24.97 15.88-34.034 8.573a.96.96 0 0 0-.187-.097l-.055-.029a.97.97 0 0 0-.3-.074c-.027-.002-.053-.006-.08-.007a.916.916 0 0 0-.59.196.94.94 0 0 0-.098.058c-.02.017-.027.041-.044.06-.016.017-.038.025-.053.043a.935.935 0 0 0-.047.091.96.96 0 0 0-.117.226.934.934 0 0 0-.024.097.972.972 0 0 0-.026.297c.002.02.006.038.009.058a.965.965 0 0 0 .096.312c.008.016.018.03.027.045a.953.953 0 0 0 .109.183 20.069 20.069 0 0 0 2.286 2.158 21.13 21.13 0 0 0 13.441 4.555c8.59 0 17.89-4.48 24.528-12.715 10.444-12.957 10.403-30.38-.09-38.837z"/><path fill="#f1b31c" d="M20.652 44.72c.073-.232.61-2.214.681-2.446 5.918.106 6.21-.091 7.089-3.008 1.66-5.508 2.144-6.494 3.805-12.002.583-1.932.48-2.354-2.29-2.882l-1.687-.311c.063-.204.441-2.075.504-2.278a94.249 94.249 0 0 0 12.214-.789l-5.499 19c-.858 2.966-.752 3.204 4.93 4.302-.066.234-.6 2.218-.665 2.453z"/><g fill="none" stroke="#000" stroke-width="2"><path stroke-miterlimit="10" d="M53.237 12.777q.762.501 1.483 1.082c10.08 8.124 10.052 24.883-.061 37.43S28.175 67.424 18.095 59.3a19.09 19.09 0 0 1-2.172-2.05"/><ellipse cx="34.153" cy="34.635" stroke-miterlimit="10" rx="29.033" ry="22.118" transform="rotate(-51.131 34.153 34.635)"/><path stroke-miterlimit="10" d="m51.373 48.515 3.286 2.775m-6.743.97 2.896 3.113m-6.555-.069 2.378 3.322m-6.392-.644 1.872 3.344m11.921-16.551 3.489 2.414"/><path stroke-linecap="round" stroke-linejoin="round" d="M20.652 44.72c.073-.232.61-2.214.681-2.446 5.918.106 6.21-.091 7.089-3.008 1.66-5.508 2.144-6.494 3.805-12.002.583-1.932.48-2.354-2.29-2.882l-1.687-.311c.063-.204.441-2.075.504-2.278a94.249 94.249 0 0 0 12.214-.789l-5.499 19c-.858 2.966-.752 3.204 4.93 4.302-.066.234-.6 2.218-.665 2.453z"/></g></svg>