<svg xmlns="http://www.w3.org/2000/svg" viewBox="0 0 72 72"><path d="M29.625 35.945a1 1 0 0 1-.84-1.54l4.552-7.1-3.295-4.081a1 1 0 0 1 1.557-1.256l3.747 4.641a1 1 0 0 1 .063 1.168l-4.941 7.708a.999.999 0 0 1-.843.46zm-4.01-.105a1 1 0 0 1-.758-.348l-5.053-5.869a1.001 1.001 0 0 1-.023-1.278l5.178-6.455a1 1 0 0 1 1.56 1.252l-4.658 5.807 4.512 5.239a1 1 0 0 1-.758 1.652zm3.182 18.617a1 1 0 0 1-.984-.828l-2.628-15.102a1 1 0 1 1 1.97-.343l2.628 15.101a1 1 0 0 1-.813 1.157 1.057 1.057 0 0 1-.173.015z"/><path d="M30.53 54.457a1 1 0 0 1-.997-.919l-1.237-15.165a1 1 0 0 1 1.994-.162l1.237 15.165a1 1 0 0 1-.916 1.078 1.123 1.123 0 0 1-.082.003zm8.98-18.512a.999.999 0 0 1-.843-.46l-4.941-7.708a1 1 0 0 1 .063-1.168l3.747-4.641a1 1 0 0 1 1.557 1.256l-3.295 4.08 4.553 7.101a1 1 0 0 1-.841 1.54zm4.01-.105a1 1 0 0 1-.757-1.652l4.51-5.24-4.658-5.806a1 1 0 0 1 1.56-1.252l5.178 6.455a1 1 0 0 1-.022 1.278l-5.053 5.87a.998.998 0 0 1-.758.347zm-3.181 18.617a1.036 1.036 0 0 1-.172-.015 1 1 0 0 1-.815-1.156l2.628-15.101a1 1 0 1 1 1.97.341l-2.626 15.102a1 1 0 0 1-.985.829z"/><path d="M38.605 54.457c-.027 0-.054 0-.082-.003a1 1 0 0 1-.916-1.078l1.238-15.165a1.011 1.011 0 0 1 1.078-.916 1 1 0 0 1 .916 1.078l-1.237 15.165a1 1 0 0 1-.996.919z"/><path fill="#d22f27" d="M43.356 57.378C52.84 30.25 47.284 15.58 45.43 11.831a1.758 1.758 0 0 0-1.583-.974H25.45a1.758 1.758 0 0 0-1.583.974c-1.853 3.75-7.41 18.42 2.075 45.547a5.237 5.237 0 0 0 4.941 3.497h7.532a5.237 5.237 0 0 0 4.94-3.497z"/><path fill="#f1b31c" d="m21.725 18.112-.772 4.399 27.39.085-.77-4.486-25.848.002zm3.146 35.345h19.643l-.863 3.067h-17.67l-1.11-3.067z"/><rect width="6" height="3" x="24.701" y="35.181" fill="#a57939" rx="1.29"/><rect width="6" height="3" x="38.434" y="35.181" fill="#a57939" rx="1.29" transform="rotate(180 41.434 36.681)"/><path fill="#a57939" d="M25.038 10.857h18.81l1.583.974.909 2.127H22.957l.91-2.127 1.171-.974z"/><path fill="#f1b31c" d="M29.625 35.945a1 1 0 0 1-.84-1.54l4.552-7.1-3.295-4.081a1 1 0 0 1 1.557-1.256l3.747 4.641a1 1 0 0 1 .063 1.168l-4.941 7.708a.999.999 0 0 1-.843.46zm-4.01-.105a1 1 0 0 1-.758-.348l-5.053-5.869a1.001 1.001 0 0 1-.023-1.278l5.178-6.455a1 1 0 0 1 1.56 1.252l-4.658 5.807 4.512 5.239a1 1 0 0 1-.758 1.652zm3.182 18.617a1 1 0 0 1-.984-.828l-2.628-15.102a1 1 0 1 1 1.97-.343l2.628 15.101a1 1 0 0 1-.813 1.157 1.057 1.057 0 0 1-.173.015z"/><path fill="#f1b31c" d="M30.53 54.457a1 1 0 0 1-.997-.919l-1.237-15.165a1 1 0 0 1 1.994-.162l1.237 15.165a1 1 0 0 1-.916 1.078 1.123 1.123 0 0 1-.082.003zm8.98-18.512a.999.999 0 0 1-.843-.46l-4.941-7.708a1 1 0 0 1 .063-1.168l3.747-4.641a1 1 0 0 1 1.557 1.256l-3.295 4.08 4.553 7.101a1 1 0 0 1-.841 1.54zm4.01-.105a1 1 0 0 1-.757-1.652l4.51-5.24-4.658-5.806a1 1 0 0 1 1.56-1.252l5.178 6.455a1 1 0 0 1-.022 1.278l-5.053 5.87a.998.998 0 0 1-.758.347zm-3.181 18.617a1.036 1.036 0 0 1-.172-.015 1 1 0 0 1-.815-1.156l2.628-15.101a1 1 0 1 1 1.97.341l-2.626 15.102a1 1 0 0 1-.985.829z"/><path fill="#f1b31c" d="M38.605 54.457c-.027 0-.054 0-.082-.003a1 1 0 0 1-.916-1.078l1.238-15.165a1.011 1.011 0 0 1 1.078-.916 1 1 0 0 1 .916 1.078l-1.237 15.165a1 1 0 0 1-.996.919z"/><g fill="none" stroke="#000" stroke-miterlimit="10" stroke-width="2"><path d="M43.356 57.378C52.84 30.25 47.284 15.58 45.43 11.831a1.758 1.758 0 0 0-1.583-.974H25.45a1.758 1.758 0 0 0-1.583.974c-1.853 3.75-7.41 18.42 2.075 45.547a5.237 5.237 0 0 0 4.941 3.497h7.532a5.237 5.237 0 0 0 4.94-3.497z"/><path stroke-linecap="round" d="M21.725 18.119h25.848m-24.302-4.161H46.34m-25.387 8.557h27.39"/><rect width="6" height="3" x="24.701" y="35.181" rx="1.328"/><path stroke-linecap="round" d="M24.648 53.457H44.61m-18.629 3.066h17.356"/><rect width="6" height="3" x="38.434" y="35.181" rx="1.328" transform="rotate(-180 41.434 36.681)"/></g></svg>