<svg xmlns="http://www.w3.org/2000/svg" viewBox="0 0 72 72"><circle cx="56.882" cy="44.306" r="1"/><circle cx="60.702" cy="38.72" r="1"/><circle cx="59.772" cy="42.927" r="1"/><circle cx="57.873" cy="40.056" r="1"/><circle cx="61.661" cy="34.395" r="1"/><circle cx="58.855" cy="35.607" r="1"/><circle cx="59.827" cy="31.322" r="1"/><circle cx="19.912" cy="45.562" r="1"/><circle cx="18.062" cy="41.609" r="1"/><circle cx="16.082" cy="37.506" r="1"/><circle cx="14.194" cy="33.538" r="1"/><path fill="#781e32" d="M19.799 54.97a1.001 1.001 0 0 1-.906-.573L6.822 28.817a1 1 0 0 1 .478-1.332l5.774-2.724a.999.999 0 0 1 1.332.477l12.07 25.581A1 1 0 0 1 26 52.15l-5.775 2.725a.99.99 0 0 1-.425.096zm40.662-1.609a.992.992 0 0 1-.4-.005l-7.412-1.628a1 1 0 0 1-.763-1.192l6.07-27.627a1.001 1.001 0 0 1 1.19-.762l7.412 1.628a1 1 0 0 1 .763 1.191l-6.07 27.627a1 1 0 0 1-.79.768z"/><path fill="#fff" d="M15.925 53.028a3.646 3.646 0 0 1-3.288-2.084L5.765 36.383a3.632 3.632 0 0 1 1.736-4.835l2.101-.992a1 1 0 0 1 1.331.477l9.118 19.323a1 1 0 0 1-.477 1.331l-2.102.992a3.617 3.617 0 0 1-1.548.35z"/><path fill="#d0cfce" d="M28.962 46.828 17.965 22.982l2.926-1.727 8.071 25.573zm5.83-2.069-7.087-26.826 3.341-.048 3.746 26.874zm6.502.309-2.958-28.122 2.873.845.085 27.277zm6.731 1.569 1.167-27.092 1.927 2.434-3.094 24.658z"/><circle cx="56.882" cy="44.306" r="1" fill="#fff"/><circle cx="60.702" cy="38.72" r="1" fill="#fff"/><circle cx="59.772" cy="42.927" r="1" fill="#fff"/><circle cx="57.873" cy="40.056" r="1" fill="#fff"/><circle cx="61.661" cy="34.395" r="1" fill="#fff"/><circle cx="58.855" cy="35.607" r="1" fill="#fff"/><circle cx="59.827" cy="31.322" r="1" fill="#fff"/><circle cx="19.912" cy="45.562" r="1" fill="#fff"/><circle cx="18.062" cy="41.609" r="1" fill="#fff"/><circle cx="16.082" cy="37.506" r="1" fill="#fff"/><circle cx="14.194" cy="33.538" r="1" fill="#fff"/><g fill="none" stroke="#000" stroke-linecap="round" stroke-linejoin="round" stroke-width="2"><path d="m43.915 21.386 4.503-1.213-1.421 26.61-3.882-2.412m10.549-19.197 4.889-.469-5.494 24.762-2.882-3.244M33.866 19.708l4.246-1.784 2.213 27.459-3.952-1.687M23.952 21.272l3.882-2.337 6.146 26.987-4.007-1.033M14.73 27.043l3.734-3.204L28.35 47.44h-4.513M9.331 31.789 7.727 28.39l5.773-2.725 12.072 25.581-5.774 2.724-1.349-2.858"/><path d="m19.147 50.783-3.678 1.735a.89.89 0 0 1-1.184-.425L5.926 34.38a.89.89 0 0 1 .425-1.184l3.678-1.736m48.903-8.337 7.411 1.629-6.07 27.627-7.41-1.629zM9.886 35.642l-2.774 1.294m4.349 1.798-2.774 1.294m4.367 1.833-2.774 1.293m4.277 1.878-2.773 1.293m4.333 1.872-2.774 1.294"/></g></svg>