<svg xmlns="http://www.w3.org/2000/svg" viewBox="0 0 72 72"><path fill="none" stroke="#000" stroke-linecap="round" stroke-linejoin="round" stroke-width="2" d="M18.299 47.037s.17 2.168 4.537 2.876m2.198-14.429a5.464 5.464 0 0 1 4.523.516m-2.699-7.766a7.516 7.516 0 0 1 5.227-.694m.185-8.419s3.074.374 2.608 4.286m13.268 11.586s4.736 1 5.626-3.318m-12.376 8.97a6 6 0 0 0 6.679 1.471m-14.477 3.095s4.343-.38 5.458 1.594M23.789 56.957s2.577-2.81 6.076-1.884m14.227-40.464s2.336 2.296 1.168 7.143m-6.204-1.118s.718 2.958-1.898 6.687M21.367 32.03s-.429 5.567 3.185 6.183m-2.623 6.969s3.76 1.077 4.49-2.313M31 52.545s6.314-.912 5.559-4.233m7.907-17.967s.781 4.948 3.069 5.655m.957-13.018s-.508 3.986 1.657 6.151"/><path fill="#5c9e31" d="M24.523 49.686a13.118 13.118 0 0 1-5.87 3.657 1 1 0 0 1-1.248-.663L15.94 47.9a1 1 0 0 1 .663-1.25 7.352 7.352 0 0 0 3.57-2.436zm-.93-10.57c-.38-1.925.85-5.322.85-5.322.202-.79.395-1.593.586-2.4.98-4.096 1.99-8.33 4.54-11.201a11.653 11.653 0 0 1 10.948-3.836 15.272 15.272 0 0 1 3.143 1.019 25.476 25.476 0 0 1-7.348 6.28 5.281 5.281 0 0 0-1.507 1.183c-1.9 2.14-2.974 6.315-4.011 10.352a52.2 52.2 0 0 1-3.41 10.27s-3.412-4.422-3.791-6.346zm22.632-10.741a14.534 14.534 0 0 0-5.175-4.484l1.04-.71a17.333 17.333 0 0 0 4.276-4.31q.753.502 1.478 1.086a21.683 21.683 0 0 1 2.688 2.584 10.072 10.072 0 0 0-3.637 4.27zM31.801 53.86a13.796 13.796 0 0 0-2.552 6.045 1 1 0 0 1-1.157.813l-4.926-.857a1 1 0 0 1-.813-1.157 18.053 18.053 0 0 1 3.468-7.985zm-2.44-6.805a57.642 57.642 0 0 1 8.866-5.755 43.44 43.44 0 0 0 7.806-5.122 5.172 5.172 0 0 0 1.774-3.428 14.397 14.397 0 0 1 4.567-7.796q.417.63.79 1.287a12.212 12.212 0 0 1-2.407 15.102 26.682 26.682 0 0 1-6.527 3.925c-1.128.541-2.192 1.053-3.192 1.618a34.431 34.431 0 0 1-5.146 2.326c-2.14.657-6.53-2.157-6.53-2.157z"/><path fill="#92d3f5" d="M35.173 22.01a23.474 23.474 0 0 0 6.051-4.747 10.195 10.195 0 0 0 2.577-5.251 1.001 1.001 0 0 1 1.157-.814l4.926.858a1 1 0 0 1 .813 1.157c-1.612 9.27-8.913 12.924-15.354 16.149-1.538.77-3.03 1.518-4.4 2.313zm12.902 18.92c-.867 3.438-2.037 6.736-4.337 9.328a11.657 11.657 0 0 1-10.948 3.836 17.406 17.406 0 0 1-7.327-3.601 22.178 22.178 0 0 1-5.32-6.284 12.212 12.212 0 0 1 2.406-15.1 26.281 26.281 0 0 1 6.07-3.84s-.98 3.487-1.714 6.607c-.807 3.426-1.292 5.462-1.292 5.462a5.239 5.239 0 0 0 .621 3.421c1.827 3.222 5.113 5.898 7.956 6.477a3.966 3.966 0 0 0 1.505.009s1.043-.066 4.824-2.036c4.482-2.335 7.556-4.278 7.556-4.278zm-7.172-.286c.434-1.483.79-3.11 1.155-4.777 1.406-6.424 3.155-14.415 11.288-16.907a1.001 1.001 0 0 1 1.249.663l1.465 4.78a1 1 0 0 1-.663 1.25c-3.185.976-4.753 3.776-5.777 8.018z"/><path fill="#b1cc33" d="M22.837 50.913a1.012 1.012 0 0 1-.161-.013c-4.998-.81-5.35-3.483-5.374-3.784a1 1 0 0 1 1.99-.197c.02.091.393 1.47 3.704 2.006a1 1 0 0 1-.16 1.988zM29.556 37a.994.994 0 0 1-.506-.137 4.442 4.442 0 0 0-3.651-.447 1 1 0 0 1-.737-1.86 6.477 6.477 0 0 1 5.402.583A1 1 0 0 1 29.556 37zm-2.695-7.767a1 1 0 0 1-.5-1.866 8.5 8.5 0 0 1 5.995-.79 1 1 0 1 1-.541 1.926 6.534 6.534 0 0 0-4.461.6.998.998 0 0 1-.492.13zm8.019-4.826a.984.984 0 0 1-.12-.007 1 1 0 0 1-.875-1.111c.324-2.73-1.4-3.124-1.748-3.176a1.006 1.006 0 0 1-.852-1.124.99.99 0 0 1 1.106-.86c1.405.171 3.941 1.519 3.48 5.396a1 1 0 0 1-.992.882zm14.41 11.684a7.119 7.119 0 0 1-1.35-.12 1 1 0 0 1-.772-1.185.99.99 0 0 1 1.182-.772c.39.08 3.78.67 4.442-2.542a1 1 0 1 1 1.959.405 4.989 4.989 0 0 1-2.134 3.32 6.103 6.103 0 0 1-3.327.894zm-3.592 7.444a6.74 6.74 0 0 1-5.084-2.266 1 1 0 0 1 1.559-1.254 5.017 5.017 0 0 0 5.58 1.155 1 1 0 0 1 .644 1.893 8.343 8.343 0 0 1-2.699.472zm-6.641 4.27a1 1 0 0 1-.872-.509c-.599-1.06-3.29-1.19-4.501-1.089a1 1 0 0 1-.173-1.992c.512-.045 5.024-.366 6.416 2.099a1 1 0 0 1-.87 1.491zM23.79 57.956a1 1 0 0 1-.738-1.674c.122-.133 3.035-3.244 7.07-2.175a1 1 0 0 1-.513 1.933 5.503 5.503 0 0 0-5.085 1.596 1.001 1.001 0 0 1-.735.32z"/><path fill="#61b2e4" d="M45.26 22.752a1.022 1.022 0 0 1-.234-.028 1.001 1.001 0 0 1-.739-1.207c1.007-4.174-.826-6.122-.904-6.203a1 1 0 0 1 1.41-1.418c.111.11 2.725 2.754 1.44 8.09a1.002 1.002 0 0 1-.972.765zm-8.104 5.568a1 1 0 0 1-.817-1.573c2.292-3.269 1.767-5.78 1.743-5.885a1 1 0 0 1 1.945-.464c.035.139.793 3.443-2.051 7.497a.997.997 0 0 1-.82.426zM24.553 39.212a1.001 1.001 0 0 1-.169-.014c-4.461-.761-4.035-6.98-4.015-7.244a1 1 0 0 1 1.994.151c-.003.047-.311 4.667 2.357 5.122a1 1 0 0 1-.167 1.985zm-1.323 7.136a6.057 6.057 0 0 1-1.577-.205 1 1 0 0 1 .547-1.924 3.471 3.471 0 0 0 2.378-.191 1.975 1.975 0 0 0 .862-1.37 1 1 0 0 1 1.955.42 3.961 3.961 0 0 1-1.795 2.669 4.597 4.597 0 0 1-2.37.601zM31 53.544a1 1 0 0 1-.143-1.989c.91-.134 3.698-.79 4.54-2.018a1.182 1.182 0 0 0 .187-1.003 1 1 0 0 1 1.95-.444 3.196 3.196 0 0 1-.489 2.58c-1.491 2.17-5.455 2.8-5.902 2.864a.896.896 0 0 1-.144.01zM47.534 37a1 1 0 0 1-.295-.044c-2.801-.867-3.67-5.886-3.76-6.455a1 1 0 1 1 1.974-.313c.287 1.8 1.215 4.498 2.376 4.857A1 1 0 0 1 47.534 37zm2.616-6.867a.997.997 0 0 1-.707-.293c-2.484-2.483-1.966-6.802-1.942-6.985a1 1 0 0 1 1.984.252c-.004.035-.414 3.534 1.372 5.32a1 1 0 0 1-.707 1.706z"/><g fill="none" stroke="#000" stroke-linecap="round" stroke-width="2"><path stroke-miterlimit="10" d="M41.964 17.936a11.175 11.175 0 0 0 2.822-5.753M35.49 22.982a24.811 24.811 0 0 0 6.474-5.046m4.473 25.124a17.736 17.736 0 0 1-3.447 6.535 10.652 10.652 0 0 1-9.998 3.52 16.406 16.406 0 0 1-6.901-3.4 21.166 21.166 0 0 1-5.077-5.999 11.217 11.217 0 0 1 2.21-13.87 20.331 20.331 0 0 1 3.948-2.702m27.932-2.447c-3.772 1.156-5.47 4.594-6.488 8.873m-6.564 6.684c.36-1.325.669-2.735.984-4.175 1.42-6.488 3.03-13.842 10.603-16.162M24.692 36.82a6.234 6.234 0 0 0 .672 4.431 16.179 16.179 0 0 0 3.885 4.577 11.38 11.38 0 0 0 4.742 2.387 5.297 5.297 0 0 0 3.676-.649M49.712 13.04c-1.526 8.773-8.587 12.308-14.817 15.427-1.327.664-2.622 1.313-3.843 1.994"/><path stroke-linejoin="round" d="M46.579 20.244q.324.24.641.496M24.657 36.813q.387-1.311.759-2.767c1.214-4.727 2.041-9.96 4.905-13.186a10.649 10.649 0 0 1 9.999-3.52 13.648 13.648 0 0 1 1.746.481M16.9 47.61a8.483 8.483 0 0 0 4.467-3.295m3.08 3.917a12.253 12.253 0 0 1-6.082 4.158m17.487-29.616a6.274 6.274 0 0 0-1.791 1.405c-2.06 2.32-3.164 6.614-4.232 10.766a59.69 59.69 0 0 1-2.741 8.77m18.916-17.23a15.99 15.99 0 0 0-1.942-1.86q-.56-.45-1.134-.827m-11.927 23.24a64.014 64.014 0 0 1 7.723-4.864 44.08 44.08 0 0 0 7.988-5.254 6.285 6.285 0 0 0 1.92-3.346M23.342 58.88a17.154 17.154 0 0 1 3.86-8.258m4.26 2.079a14.91 14.91 0 0 0-3.194 7.037m23.847-33.314q.093.157.182.315a11.217 11.217 0 0 1-2.21 13.87c-2.547 2.33-6.405 3.642-9.537 5.41a47.024 47.024 0 0 0-2.87 1.573m9.54-26.85h0a20.45 20.45 0 0 1 1.853 1.692"/></g></svg>