<svg xmlns="http://www.w3.org/2000/svg" viewBox="0 0 72 72"><path fill="#d0cfce" d="M55.785 34.99a1 1 0 0 1 .105 1.041l-3.894 8.063a1.002 1.002 0 0 1-.706.546l-10.798 2.138a1.007 1.007 0 0 1-.794-.18L16.214 29.02a1 1 0 0 1-.176-1.432l2.438-2.997a.998.998 0 0 1 .326-.262l18.305-9.222a1.015 1.015 0 0 1 .658-.085l3.819.807a.997.997 0 0 1 .637.442l2.673 4.144 1.62 2.49z"/><path fill="#3f3f3f" d="M26.692 56h20.096l-6.471-10.181-23.374-17.6-1.129 4.827L26.692 56z"/><path fill="#9b9b9a" d="m54.78 36.031 1.348 11.513L54.469 56h-7.681l-6.471-10.181 10.622-1.879 3.841-7.909z"/><g fill="none" stroke="#000" stroke-linecap="round" stroke-linejoin="round" stroke-width="2"><path d="m45.797 23.608 9.193 11.989 1.138 11.642L54.469 56H26.692L16 32.86l.813-4.641 2.439-2.997L37.558 16l3.819.807 2.643 4.11-5.012 3.353"/><path d="m47.359 56-7.061-10.203-23.485-17.578m38.177 7.378-3.895 8.062-10.797 2.138"/></g></svg>