<svg xmlns="http://www.w3.org/2000/svg" viewBox="0 0 72 72"><path fill="#f4aa41" d="M42.269 60.958H28.675a.83.83 0 0 1-.819-.696l-2.448-15.05a.83.83 0 0 1 .686-.952c.452-.073 18.306-.074 18.757 0a.83.83 0 0 1 .685.952l-2.448 15.05a.83.83 0 0 1-.82.696z"/><path fill="#ea5a47" d="M47.763 45.908H23.181a.829.829 0 0 1-.83-.83v-5.147a.829.829 0 0 1 .83-.829h24.582a.829.829 0 0 1 .83.83v5.147a.829.829 0 0 1-.83.829z"/><path fill="#5c9e31" d="M35.272 32.352a1 1 0 0 1-.945-.673c-1.258-3.652-13.175-11.21-17.66-13.815a1 1 0 0 1-.005-1.728 12.09 12.09 0 0 1 10.422-.705l.018.01c8.829 4.133 9.16 15.412 9.17 15.89a1 1 0 0 1-.824 1.006.984.984 0 0 1-.176.015z"/><path fill="#b1cc33" d="M50.095 12.842a1.001 1.001 0 0 0-.049-1.695 9.852 9.852 0 0 0-12.253 2.467c-4.851 5.46-3.739 14.053-3.418 15.964-2.325-1.718-7.053-4.32-12.395-2.175a.523.523 0 0 0-.037.016c-.172.076-4.204 1.935-4.26 6.342a1 1 0 0 0 1 1.013 1.016 1.016 0 0 0 .263-.035c.108-.03 10.837-2.931 16.073-2.196l.016.002.012.002a.977.977 0 0 0 .177-.003.947.947 0 0 0 .122 0l.01-.001.01-.002c4.87-.758 13.426 1.557 13.513 1.58a1.016 1.016 0 0 0 .264.035 1 1 0 0 0 .973-1.226 7.554 7.554 0 0 0-6.243-5.474 10.91 10.91 0 0 0-7.44 1.907c.173-7.421 13.525-16.43 13.662-16.521z"/><path fill="#5c9e31" d="M35.194 31.323a1 1 0 0 1-.947-1.321c.123-.362 3.082-8.858 10.213-11.319 7.412-2.56 11.094 3.147 11.131 3.204a1 1 0 0 1-.756 1.528c-4.326.4-16.129 2.507-18.76 7.383a1 1 0 0 1-.882.525zm9.592-11.694z"/><path fill="#a57939" d="M31.19 39.102v-1.32a4.005 4.005 0 0 1 1.297-2.934 2.96 2.96 0 0 1-.297-1.291 3 3 0 0 1 6 0 2.96 2.96 0 0 1-.297 1.29 4.003 4.003 0 0 1 1.297 2.935v1.32z"/><g fill="none" stroke="#000" stroke-linecap="round" stroke-linejoin="round" stroke-width="2"><path d="M23.181 39.931h24.583v5.147H23.181zm3.497 7.922 1.997 12.276h13.594l1.997-12.276M38.138 37.22a3.004 3.004 0 0 0-1.666-2.14 2 2 0 1 0-2.563 0 3.004 3.004 0 0 0-1.667 2.15"/><path d="M41.886 31.709a61.916 61.916 0 0 1 7.279 1.451 6.595 6.595 0 0 0-5.427-4.713c-4.499-.714-8.525 3.113-8.525 3.113m.045-.213s-.227-11.089-8.594-15.007a11.15 11.15 0 0 0-9.51.653 132.235 132.235 0 0 1 11.617 7.678"/><path d="M35.195 31.556s-5.96-5.984-12.838-3.225c0 0-3.622 1.624-3.67 5.443a84.036 84.036 0 0 1 10.71-2.11m5.815-1.341c3.466-6.421 19.55-7.904 19.55-7.904s-3.207-5.12-9.957-2.79"/><path d="M35.42 29.772c-.305-8.14 14.112-17.762 14.112-17.762a8.785 8.785 0 0 0-10.998 2.268 12.964 12.964 0 0 0-2.637 4.84"/></g></svg>