<svg xmlns="http://www.w3.org/2000/svg" viewBox="0 0 72 72"><path fill="#ffa7c0" d="M57.702 31.043c-5.052-.304-7.943 3.96-8.085 4.175-4.23 6.956-8.278 8.292-8.777 8.435-1.685.078-2.81-.31-3.355-1.17-1.55-2.446.99-8.246 2.121-10.315.152-.31 3.671-7.631-.276-10.769-3.825-3.042-8.288-.774-8.44-.693-7.553 3.556-11.248 3.004-13.019 1.917a5.011 5.011 0 0 1-2.228-3.899V18.7a2.22 2.22 0 0 0-.696-1.648 1.62 1.62 0 0 0-1.141-.408 1.768 1.768 0 0 0-1.312.632 4.209 4.209 0 0 0-.604 2.883c.556 6.166 5.235 10.127 12.835 10.868a9.932 9.932 0 0 0 7.464-2.173 5.048 5.048 0 0 1-.77 1.543c-4.74 5.799-4.244 10.764-4.154 11.411.326 5.675 4.447 9.437 11.315 10.325a11.183 11.183 0 0 0 1.436.093c4.334 0 8.235-2.613 11.613-7.786 2.855-4.372 4.582-4.443 4.566-4.445a.886.886 0 0 1 .72.36 3.358 3.358 0 0 1 .138 2.208c-.095.316-.9 3.142.36 5.153a3.903 3.903 0 0 0 2.805 1.755 3.467 3.467 0 0 0 2.842-.75c2.21-1.825 2.41-6.189 2.425-6.678.18-5.216-2.436-10.67-7.783-11z"/><path fill="#e67a94" d="M38.35 34.633a2.399 2.399 0 0 0-1.508-1.313 14.689 14.689 0 0 0-6.041-.311 4.366 4.366 0 0 0-3.622 3.286 14.309 14.309 0 0 0-.368 4.02 4.447 4.447 0 0 0 3.979 4.198c.426.041.832.059 1.22.059a11.432 11.432 0 0 0 3.77-.615 2.559 2.559 0 0 0 1.676-2.74 8.846 8.846 0 0 1 .884-4.634 2.338 2.338 0 0 0 .01-1.95z"/><g fill="none" stroke="#000" stroke-miterlimit="10" stroke-width="2"><path stroke-linecap="round" d="M36.31 42.283c.534 1.519 1.905 2.528 4.7 2.362 0 0 4.645-.954 9.482-8.909 0 0 2.633-3.978 7.17-3.697s7.013 5.068 6.844 9.967c0 0-.225 7.096-4.11 6.476s-2.366-5.631-2.366-5.631.948-3.578-1.713-3.854c0 0-2.11-.305-5.505 4.894s-7.347 7.86-12.083 7.248c-3.553-.459-7.46-1.941-9.337-5.35m2.822-14.761a6.216 6.216 0 0 0 1.196-3.031c.208-1.795-1.194-.53-1.194-.53a8.727 8.727 0 0 1-7.373 2.563c-4.837-.472-11.28-2.69-11.936-9.963 0 0-.286-2.38.955-2.425 0 0 .746-.072.802 1.103 0 0 .19 10.628 16.673 2.864 0 0 4.029-2.1 7.392.573s0 9.545 0 9.545a29.138 29.138 0 0 0-1.408 3.083"/><path d="M30.961 33.997a13.628 13.628 0 0 1 5.617.28 1.37 1.37 0 0 1 .876 1.882 9.866 9.866 0 0 0-.97 5.171 1.565 1.565 0 0 1-1.013 1.682 10.725 10.725 0 0 1-4.566.505 3.425 3.425 0 0 1-3.075-3.254 13.338 13.338 0 0 1 .342-3.739 3.352 3.352 0 0 1 2.789-2.527z"/></g></svg>