<svg xmlns="http://www.w3.org/2000/svg" viewBox="0 0 72 72"><path fill="#a57939" d="M35.665 60.771a31.363 31.363 0 0 1-9.832-1.452.959.959 0 0 1-.653-.908v-.392a.876.876 0 0 1 .006-.11 5.694 5.694 0 0 0-.885-3.881.987.987 0 0 1-.175-.38l-.043-.195a11.265 11.265 0 0 0 .049 3.458.958.958 0 0 1-1.43 1.009c-2.698-1.603-3.264-3.347-3.264-4.528V18.385a.958.958 0 0 1 .894-.956.97.97 0 0 1 1.013.83c.007.041-.502 5.59 14.32 5.59 14.772 0 14.312-5.55 14.323-5.607a.99.99 0 0 1 1.024-.803.952.952 0 0 1 .88.946v9.006a3.1 3.1 0 0 0 1.555-1 .968.968 0 0 1 .994-.369c2.667.628 3.276 5.623 3.37 6.619a.956.956 0 0 1-.378.856c-2.23 1.672-4.693 7.15-5.541 9.333v10.56c0 4.208-6.976 7.38-16.227 7.38z"/><path fill="#6a462f" d="M26.138 59.368a.607.607 0 0 1-.194-.02 11.095 11.095 0 0 1-3.364-1.515.958.958 0 0 1-.327-.55 11.977 11.977 0 0 1 .345-5.737 1.62 1.62 0 0 1 1.49-1.333c1.013.04 1.49 1.158 1.87 2.843a7.756 7.756 0 0 1 1.137 5.017v.337a.957.957 0 0 1-.957.958z"/><path fill="#fcea2b" d="M35.665 25.765c-9.252 0-16.227-3.172-16.227-7.38s6.976-7.38 16.227-7.38 16.227 3.172 16.227 7.38-6.976 7.38-16.227 7.38z"/><g fill="none" stroke="#000" stroke-linecap="round" stroke-linejoin="round" stroke-width="2"><path d="M50.934 42.652s2.91-7.66 5.924-9.92c0 0-.502-5.275-2.637-5.778a4.156 4.156 0 0 1-3.287 1.525V18.385m0 27.649v7.358c0 2.968-4.789 5.466-11.294 6.202l-.018-.048a11.432 11.432 0 0 1-.693-3.652 6.274 6.274 0 0 1 .301-2.267c.216-.604.566-1.155.774-1.762a8.118 8.118 0 0 0 .288-2.656l-.021-10.073M20.396 18.385v35.007c0 1.38 1.034 2.658 2.796 3.705a11.088 11.088 0 0 1 .303-5.218s.715-2.375 1.567 1.568a6.666 6.666 0 0 1 1.075 4.572v.391a30.562 30.562 0 0 0 9.528 1.404q.233 0 .464-.003M38.068 19.7c7.117-2.436-9.894-4.019-8.711.246 2.379 2.714 15.213 2.556 16.414-1.442 1.158-5.425-22.204-4.754-19.922.91"/><path d="M31.35 48.364a75.095 75.095 0 0 1-.504-9.564 4.668 4.668 0 0 0-.272-2.036 8.182 8.182 0 0 0-.993-1.363 8.105 8.105 0 0 1-1.164-5.593 53.879 53.879 0 0 0 .542-5.44l-.006-.213a33.523 33.523 0 0 0 6.712.652c8.433 0 15.269-2.875 15.269-6.422s-6.836-6.422-15.27-6.422-15.268 2.875-15.268 6.422c0 1.944 2.052 3.686 5.296 4.863"/></g></svg>