<svg xmlns="http://www.w3.org/2000/svg" viewBox="0 0 72 72"><path fill="#6a462f" d="M36.005 29.976a5.03 5.03 0 1 1 5.154-5.029 5.097 5.097 0 0 1-5.154 5.029z"/><path fill="#781e32" d="M36.006 61.26c-4.306 0-7.68-7.758-7.68-17.66 0-6.71 1.56-12.728 4.069-15.703a.863.863 0 0 1 .98-.244 7.903 7.903 0 0 0 5.263 0 .862.862 0 0 1 .98.244c2.51 2.975 4.069 8.992 4.069 15.702 0 9.903-3.374 17.661-7.68 17.661z"/><path fill="#a57939" d="M41.465 31.267a12.582 12.582 0 0 0-1.847-3.106c-.008-.01-.02-.013-.028-.023a.832.832 0 0 0-.138-.109.687.687 0 0 0-.592-.152.834.834 0 0 0-.189.034c-.01.004-.022.002-.033.006a7.902 7.902 0 0 1-5.263 0 .863.863 0 0 0-.98.244 13.69 13.69 0 0 0-1.725 2.834 62.09 62.09 0 0 1 6.305 11.772 53.327 53.327 0 0 1 5.102-9.883z"/><g fill="none" stroke="#000" stroke-linecap="round" stroke-linejoin="round" stroke-width="2"><path d="M26.198 8.966s7.37 5.93 7.37 12.174m-1.571 8.836c-.971-.271-1.374-1.461-2.272-1.917a6.225 6.225 0 0 0-2.383-.244 20.604 20.604 0 0 1-2.824-.716 12.5 12.5 0 0 0-4.06.003m9.752 7.503c-1.64.232-2.821-1.814-4.477-1.868-1.582-.052-2.554 1.644-3.889 2.482-2.156 1.354-5.205.38-7.393 1.683m14.751 4.517a9.824 9.824 0 0 0-3.517-.11c-1.153.245-2.357.624-2.655 1.748a6.825 6.825 0 0 0 .249 2.735 37.667 37.667 0 0 1 .151 15.453m16.573-31.269c.971-.271 1.374-1.461 2.272-1.917a6.225 6.225 0 0 1 2.383-.244 20.604 20.604 0 0 0 2.824-.716 12.5 12.5 0 0 1 4.06.003m-9.752 7.503c1.64.232 2.821-1.814 4.477-1.868 1.582-.052 2.554 1.644 3.889 2.482 2.156 1.354 5.205.38 7.393 1.683m-14.751 4.517a9.824 9.824 0 0 1 3.517-.11c1.153.245 2.357.624 2.655 1.748a6.825 6.825 0 0 1-.249 2.735 37.667 37.667 0 0 0-.15 15.453M45.773 8.966s-7.37 5.93-7.37 12.174"/><path d="M31.947 25.794a3.884 3.884 0 0 1-.098-.868 4.16 4.16 0 0 1 8.315 0 3.888 3.888 0 0 1-.085.808m-1.12 2.719c2.287 2.711 3.865 8.475 3.865 15.146 0 9.278-3.052 16.799-6.818 16.799s-6.818-7.521-6.818-16.799c0-6.672 1.579-12.435 3.866-15.146a8.705 8.705 0 0 0 5.905 0"/><path d="M30.884 32.517a64.055 64.055 0 0 1 7.904 18.201m2.328-18.201a55.188 55.188 0 0 0-3.55 6.38"/></g></svg>