<svg xmlns="http://www.w3.org/2000/svg" viewBox="0 0 72 72"><path fill="#ea5a47" d="M32.24 32.645c-.16-.661-.27-1.294-.472-1.895a18.1 18.1 0 0 0-.924-2.357 3.204 3.204 0 0 0-4.43-1.628 9.748 9.748 0 0 0-2.647 1.683 26.67 26.67 0 0 0-5.973 7.645 21.851 21.851 0 0 0-2.231 5.582 14.915 14.915 0 0 0-.416 2.843c-.074 2.303-.073 4.608-.062 6.912a10.923 10.923 0 0 0 .487 3.405 3.235 3.235 0 0 0 3.14 2.455 1.635 1.635 0 0 1 .29.065h.152c.337-.04.676-.07 1.01-.122a15.89 15.89 0 0 0 6.629-2.851 15.632 15.632 0 0 0 4.808-5.14 9.095 9.095 0 0 0 1.241-4.747q-.092-3.889-.175-7.778a23.371 23.371 0 0 0-.426-4.072zm5.255-.319c.05-.224.089-.38.122-.536a11.836 11.836 0 0 1 1.278-3.632 3.228 3.228 0 0 1 2.653-1.841 4.326 4.326 0 0 1 2.22.553 14.593 14.593 0 0 1 4.247 3.511 29.367 29.367 0 0 1 5.124 8.203 16.216 16.216 0 0 1 1.432 6.624c-.012.528.039 1.058.061 1.588v4.861c-.025.198-.041.397-.078.592a23.776 23.776 0 0 1-.532 2.665 2.984 2.984 0 0 1-2.322 2.162 6.52 6.52 0 0 1-3.189-.163 17.333 17.333 0 0 1-10.115-7.276 8.913 8.913 0 0 1-1.55-5.152c.049-2.644.118-5.287.175-7.93a23.711 23.711 0 0 1 .474-4.229z"/><g fill="none" stroke="#000" stroke-linecap="round" stroke-linejoin="round" stroke-width="2"><path d="M32.24 32.645c-.16-.661-.27-1.294-.472-1.895a18.1 18.1 0 0 0-.924-2.357 3.204 3.204 0 0 0-4.43-1.628 9.748 9.748 0 0 0-2.647 1.683 26.67 26.67 0 0 0-5.973 7.645 21.851 21.851 0 0 0-2.231 5.582 14.915 14.915 0 0 0-.416 2.843c-.074 2.303-.073 4.608-.062 6.912a10.923 10.923 0 0 0 .487 3.405 3.235 3.235 0 0 0 3.14 2.455 1.635 1.635 0 0 1 .29.065h.152c.337-.04.676-.07 1.01-.122a15.89 15.89 0 0 0 6.629-2.851 15.632 15.632 0 0 0 4.808-5.14 9.095 9.095 0 0 0 1.241-4.747q-.092-3.889-.175-7.778a23.371 23.371 0 0 0-.426-4.072zm5.255-.319c.05-.224.089-.38.122-.536a11.836 11.836 0 0 1 1.278-3.632 3.228 3.228 0 0 1 2.653-1.841 4.326 4.326 0 0 1 2.22.553 14.593 14.593 0 0 1 4.247 3.511 29.367 29.367 0 0 1 5.124 8.203 16.216 16.216 0 0 1 1.432 6.624c-.012.528.039 1.058.061 1.588v4.861c-.025.198-.041.397-.078.592a23.776 23.776 0 0 1-.532 2.665 2.984 2.984 0 0 1-2.322 2.162 6.52 6.52 0 0 1-3.189-.163 17.333 17.333 0 0 1-10.115-7.276 8.913 8.913 0 0 1-1.55-5.152c.049-2.644.118-5.287.175-7.93a23.711 23.711 0 0 1 .474-4.229z"/><path d="M34.604 14.562v15.173a7.037 7.037 0 0 1-2.55 5.457 25.564 25.564 0 0 1-6.83 3.774s-4.39 1.839-6.053 8.358"/><path d="M25.091 45.129s-.436-4.92 1.08-6.552M21.3 36.82s1.966 2.145 6.039 1.236m7.265-23.494v15.173a7.038 7.038 0 0 0 2.55 5.457 25.566 25.566 0 0 0 6.83 3.774s4.391 1.839 6.054 8.358"/><path d="M44.117 45.129s.437-4.92-1.079-6.552m4.872-1.757s-1.967 2.145-6.04 1.236"/></g></svg>