<svg xmlns="http://www.w3.org/2000/svg" viewBox="0 0 72 72"><path fill="#9B9B9A" d="M40.214 31.105c.004-.002.007-.002.01-.002.006-.001.01-.003.014-.005C45.893 29.613 48 23.308 48 19.682V18H24v1.682c0 3.626 2.107 9.931 7.762 11.416l.013.006a.02.02 0 0 1 .011.002c1.792.486 3.1 1.536 3.75 2.894h.929c.65-1.358 1.957-2.408 3.749-2.895zM47 55c-6.074 0-11-4.926-11-11 0 6.074-4.926 11-11 11h-1v4h24v-4h-1z"/><path fill="#a57939" d="M55 11c0 1.1-.9 2-2 2H19c-1.1 0-2-.9-2-2v-1c0-1.1.9-2 2-2h34c1.1 0 2 .9 2 2v1zm0 51c0 1.1-.9 2-2 2H19c-1.1 0-2-.9-2-2v-1c0-1.1.9-2 2-2h34c1.1 0 2 .9 2 2v1z"/><path fill="#FFF" d="M36 39v5"/><path fill="none" stroke="#000" stroke-linecap="round" stroke-linejoin="round" stroke-miterlimit="10" stroke-width="2" d="M31 34c-7.272-1.91-10-9.545-10-14.318V13m0 46v-6.682C21 47.546 23.727 39.91 31 38m0 0c1-.272 2-.894 2-2 0-1.105-1-1.728-2-2m10 0c7.272-1.91 10-9.545 10-14.318V13m0 46v-6.682C51 47.546 48.273 39.91 41 38m0 0c-1-.272-2-.894-2-2 0-1.105 1-1.728 2-2M25 55c6.074 0 11-4.926 11-11 0 6.074 4.926 11 11 11m8-44c0 1.1-.9 2-2 2H19c-1.1 0-2-.9-2-2v-1c0-1.1.9-2 2-2h34c1.1 0 2 .9 2 2v1zm-8 7H25m30 44c0 1.1-.9 2-2 2H19c-1.1 0-2-.9-2-2v-1c0-1.1.9-2 2-2h34c1.1 0 2 .9 2 2v1zM36 39v5"/></svg>