<svg xmlns="http://www.w3.org/2000/svg" viewBox="0 0 72 72"><path fill="#B399C8" d="M46.97 36.97a.95.95 0 0 1-.79.05c-8.98-3.39-19.17-.56-21.16.05-.23.07-.47.04-.68-.08-5.65-3-11.21-.87-12.92-.08-.31.15-.66.12-.93-.09-2.61-2.03-6.49.36-6.49.36C4 20.16 18.11 6.36 35.51 6.36c0 0 7.53 3.01 11.46 30.61zm13-.03c-.05-.01-.09-.01-.14-.03-.04-.02-.08-.04-.13-.06.11.04.2.07.27.09zm8.02.05v.05c0 .01 0 .02-.01.03.01-.05.01-.08.01-.08z"/><path fill="#8967AA" d="M67.99 36.99s0 .03-.01.08c0 .02 0 .03-.01.05 0 .02-.01.05-.02.07-.02.04-.04.08-.07.11-.03.03-.06.05-.1.06a.25.25 0 0 1-.13.03c-.05 0-.09-.01-.14-.03-.11-.05-.23-.1-.36-.16-.06-.03-.14-.06-.22-.09-1.54-.54-6.14-.31-6.14-.31-.14.11-.29.17-.45.19h-.06c-.03 0-.09-.01-.17-.02h-.04c-.01-.01-.02-.01-.03-.01 0 0-.01 0-.01-.01-.02 0-.03-.01-.05-.01h-.01c-.07-.02-.16-.05-.27-.09-.02 0-.04-.01-.06-.02-.06-.03-.12-.06-.19-.08-.07-.04-.15-.07-.23-.11-.04-.02-.08-.03-.14-.05-1.72-.49-12.11.38-12.11.38C43.04 9.37 35.51 6.36 35.51 6.36c10.08 0 19.49 4.31 25.56 11.52.09.1.18.2.26.31.26.32.51.64.76.96 6.48 8.44 5.9 17.84 5.9 17.84z"/><path fill="#8967AA" d="M60.04 36.96c-.02 0-.04-.01-.06-.02.02 0 .03.01.05.01 0 .01.01.01.01.01zm7.47.4a1.216 1.216 0 0 1-.36-.16c.13.06.25.11.36.16z"/><g fill="none" stroke="#000" stroke-linecap="round" stroke-linejoin="round" stroke-miterlimit="10" stroke-width="2"><path d="M66.666 32.453C64.401 17.628 51.314 6.358 35.506 6.358 18.107 6.358 4 20.157 4 37.178c0 0 3.878-2.387 6.482-.366a.907.907 0 0 0 .944.099c1.711-.797 7.271-2.914 12.907.08a.904.904 0 0 0 .694.075c2.001-.616 12.183-3.434 21.155-.043a.951.951 0 0 0 .782-.053c5.616-2.96 11.15-.86 12.866-.063a.92.92 0 0 0 .96-.105c2.581-2.019 6.223.235 6.223.235"/><path d="M45.352 62.54c0 3.015-2.204 5.46-4.923 5.46s-4.923-2.445-4.923-5.46V35.393m.001-29.035V4M10.925 36.992C16.586 4.655 35.507 6.358 35.507 6.358s-9.594.93-10.825 30.741m35.656-.109C54.677 4.653 35.507 6.358 35.507 6.358s9.841.912 11.072 30.723"/></g></svg>