<svg xmlns="http://www.w3.org/2000/svg" viewBox="0 0 72 72"><path fill="#FFF" d="M40.526 16.92a14.934 14.934 0 0 0-4.336-.645h-.03a15.731 15.731 0 0 0-3.121.324 15.412 15.412 0 0 0-9.095 5.832 17.022 17.022 0 0 0-3.267 7.59 17.404 17.404 0 0 0 4.02 14.42l.112.126c.884.996 2.094 2.362 2.094 3.814l-.019 4.178a.838.838 0 0 1-.837.837 25.063 25.063 0 0 0 5.873 2.124c3.192.72 6.514.629 9.662-.263 2.693-12.712 1.982-25.99-1.056-38.337z"/><path fill="#D0CFCE" d="M46.98 20.812a15.5 15.5 0 0 0-6.454-3.893c3.038 12.348 3.75 25.626 1.054 38.332a22.514 22.514 0 0 0 4.69-1.902.846.846 0 0 1-.85-.825l-.057-4.14c0-1.383 1.173-2.673 2.028-3.616.121-.134.237-.26.34-.38 5.907-6.861 5.583-17.1-.746-23.575h-.005z"/><path fill="#3F3F3F" d="M29.37 35.24a4 4 0 1 0 0 8 4 4 0 0 0 0-8zm13.692 0a4 4 0 1 0 0 8 4 4 0 0 0 0-8z"/><path fill="#FFF" d="M53.015 20.665a460.015 460.015 0 0 1 2.416-2.39s1.943 1.84 3.27 1.443c1.373-.41 2.156-1.808 2.035-2.954-.167-1.588-2.11-3.04-4.438-2.556.406-1.513.068-3.062-.933-3.995-1.654-1.54-4.078-.479-4.99.918-1.22 1.869 1.574 3.663 1.574 3.663a410.45 410.45 0 0 0-2.177 2.151M19.678 46.908a522.38 522.38 0 0 1-2.92 2.89c-.655-1.302-2.132-1.943-3.458-1.546-1.374.411-2.157 1.808-2.036 2.954.168 1.589 2.11 3.04 4.438 2.556-.405 1.513-.068 3.062.933 3.995 1.654 1.54 4.33.614 4.99-.918.47-1.088.193-2.297-1.438-3.505.26-.252 1.005-.99 2.11-2.087m-3.184-30.455a489.893 489.893 0 0 0-2.543-2.516s-1.944 1.839-3.27 1.442c-1.374-.411-2.157-1.808-2.036-2.954.168-1.589 2.11-3.04 4.438-2.556-.405-1.513-.068-3.062.933-3.995 1.654-1.54 4.078-.479 4.99.918 1.22 1.869-1.573 3.663-1.573 3.663.286.277 1.157 1.14 2.447 2.421m29.998 29.867a535.186 535.186 0 0 0 2.744 2.716c.655-1.302 2.133-1.943 3.459-1.546 1.374.411 2.157 1.808 2.036 2.954-.168 1.589-2.11 3.04-4.438 2.556.405 1.513.068 3.062-.933 3.995-1.654 1.54-4.33.614-4.99-.918-.47-1.088-.193-2.297 1.438-3.505-.258-.25-.991-.975-2.078-2.055"/><g fill="none" stroke="#000" stroke-width="2"><path stroke-linecap="round" stroke-linejoin="round" d="m46.255 52.473-.058-4.14c0-1.215 1.381-2.543 2.161-3.435A18.046 18.046 0 0 0 52.79 32.97c0-9.716-7.45-17.594-16.63-17.575a16.518 16.518 0 0 0-3.288.341c-6.608 1.355-11.874 7.083-13.022 14.106a18.22 18.22 0 0 0 4.224 15.11c.768.87 1.995 2.195 1.995 3.385l-.018 4.173m3.32-1.429v4.004m4.786-3.112v4.005m8.906-4.897v4.004m-4.343-3.112v4.005"/><path stroke-linecap="round" stroke-linejoin="round" d="m33.702 48.742 2.456-4.899 2.936 4.899"/><circle cx="29.371" cy="39.2" r="4.188" stroke-miterlimit="10"/><circle cx="43.063" cy="39.2" r="4.188" stroke-miterlimit="10"/><path stroke-linecap="round" stroke-linejoin="round" d="M53.015 20.665a460.015 460.015 0 0 1 2.416-2.39s1.943 1.84 3.27 1.443c1.373-.41 2.156-1.808 2.035-2.954-.167-1.588-2.11-3.04-4.438-2.556.406-1.513.068-3.062-.933-3.995-1.654-1.54-4.078-.479-4.99.918-1.22 1.869 1.574 3.663 1.574 3.663a410.45 410.45 0 0 0-2.177 2.151M19.678 46.908a522.38 522.38 0 0 1-2.92 2.89c-.655-1.302-2.132-1.943-3.458-1.546-1.374.411-2.157 1.808-2.036 2.954.168 1.589 2.11 3.04 4.438 2.556-.405 1.513-.068 3.062.933 3.995 1.654 1.54 4.33.614 4.99-.918.47-1.088.193-2.297-1.438-3.505.26-.252 1.005-.99 2.11-2.087m-3.184-30.455a489.893 489.893 0 0 0-2.543-2.516s-1.944 1.839-3.27 1.442c-1.374-.411-2.157-1.808-2.036-2.954.168-1.589 2.11-3.04 4.438-2.556-.405-1.513-.068-3.062.933-3.995 1.654-1.54 4.078-.479 4.99.918 1.22 1.869-1.573 3.663-1.573 3.663.286.277 1.157 1.14 2.447 2.421m29.998 29.867a535.186 535.186 0 0 0 2.744 2.716c.655-1.302 2.133-1.943 3.459-1.546 1.374.411 2.157 1.808 2.036 2.954-.168 1.589-2.11 3.04-4.438 2.556.405 1.513.068 3.062-.933 3.995-1.654 1.54-4.33.614-4.99-.918-.47-1.088-.193-2.297 1.438-3.505-.258-.25-.991-.975-2.078-2.055"/></g></svg>