<svg xmlns="http://www.w3.org/2000/svg" viewBox="0 0 72 72"><circle cx="36" cy="36" r="23" fill="#f4aa41"/><g stroke="#000"><ellipse cx="35.96" cy="35.89" stroke-miterlimit="10" stroke-width="1.25" rx="3.281" ry="3.281"/><path stroke-miterlimit="10" stroke-width="1.254" d="M23.09 43.42a14.76 14.76 0 0 0 3.496 4.097l5.791-6.957a5.733 5.733 0 0 1-2.167-3.753l-8.921 1.537a14.76 14.76 0 0 0 1.8 5.076zm25.82 0a14.76 14.76 0 0 0 1.8-5.076l-8.921-1.537a5.733 5.733 0 0 1-2.167 3.753l5.791 6.957a14.76 14.76 0 0 0 3.496-4.097zM36 21.13a14.76 14.76 0 0 0-5.296.98l3.129 8.493a5.733 5.733 0 0 1 4.333 0l3.129-8.494a14.76 14.76 0 0 0-5.296-.979z"/><circle cx="36" cy="36" r="23" fill="none" stroke-linecap="round" stroke-linejoin="round" stroke-width="2"/></g></svg>