<svg xmlns="http://www.w3.org/2000/svg" viewBox="0 0 72 72"><g fill="#B399C8" stroke-linecap="round" stroke-linejoin="round" stroke-miterlimit="10" stroke-width="2"><path d="M45 57c1.975 0 3.9-.275 5.713-.8A24.787 24.787 0 0 1 36 61c-13.812 0-25-11.188-25-25s11.188-25 25-25c5.5 0 10.588 1.775 14.713 4.8A20.544 20.544 0 0 0 45 15c-11.6 0-21 9.4-21 21s9.4 21 21 21z"/><path d="m50.652 27.896 2.372 4.807 5.306.771-3.84 3.742.907 5.284-4.745-2.495-4.745 2.495.906-5.284-3.84-3.742 5.306-.77z"/></g><g fill="none" stroke="#000" stroke-linecap="round" stroke-linejoin="round" stroke-miterlimit="10" stroke-width="2"><path d="M45 57c1.975 0 3.9-.275 5.713-.8A24.787 24.787 0 0 1 36 61c-13.812 0-25-11.188-25-25s11.188-25 25-25c5.5 0 10.588 1.775 14.713 4.8A20.544 20.544 0 0 0 45 15c-11.6 0-21 9.4-21 21s9.4 21 21 21z"/><path d="m50.652 27.896 2.372 4.807 5.306.771-3.84 3.742.907 5.284-4.745-2.495-4.745 2.495.906-5.284-3.84-3.742 5.306-.77z"/></g></svg>