<svg xmlns="http://www.w3.org/2000/svg" viewBox="0 0 72 72"><path fill="#b399c8" d="M12 12h48v47.83H12z"/><g fill="none" stroke="#000" stroke-linecap="round" stroke-linejoin="round"><path stroke-width="3" d="M51.01 35.99a15 15 0 1 1-15-15 15 15 0 0 1 15 15z"/><path stroke-width="3" d="M41 36a5 5 0 1 1-5-5.001A5.001 5.001 0 0 1 41 36zm-5-5V19m0 34V41"/><path stroke-width="2" d="M12 12h48v48H12z"/><path stroke-width="3" d="M41 36h12m-34 0h12m8.54-3.54 8.48-8.48M23.98 48.02l8.48-8.48m0-7.08-8.48-8.48m24.04 24.04-8.48-8.48"/></g></svg>