<svg xmlns="http://www.w3.org/2000/svg" viewBox="0 0 72 72"><g stroke-miterlimit="10"><path fill="#61b2e4" d="M60 61H12a1 1 0 0 1-1-1V12a1 1 0 0 1 1-1h48a1 1 0 0 1 1 1v48a1 1 0 0 1-1 1z"/><path fill="#fff" d="m39.01 36.8 5.888.983c.937.157 2.057.515 2.8 1.107.589.47 1.112 1.1 1.112 1.848 0 1.567-.736 11.44-1.112 12-1.116 1.661-2.582.668-2.839-.241-.33-1.165.144-10.27.144-10.27l-10.27.568s-1.633-.002-1.712-1.712c-.08-1.707-2.534-10.12 2.28-14.55 2.568-4.28 5.992-.856 4.28 2.568s-.568 7.704-.568 7.704z"/><circle cx="41.69" cy="19.51" r="3" fill="#fff"/><path fill="none" stroke="#fff" stroke-linecap="round" stroke-linejoin="round" stroke-width="2" d="M35.62 27.41c-8.597 1.765-5.715-.849-7.291 8.242"/></g><g fill="none" stroke="#000" stroke-linecap="round" stroke-linejoin="round" stroke-miterlimit="10" stroke-width="2"><path d="M60 61H12a1 1 0 0 1-1-1V12a1 1 0 0 1 1-1h48a1 1 0 0 1 1 1v48a1 1 0 0 1-1 1z"/><circle cx="41.69" cy="19.51" r="3"/><path d="M42.19 45.49c0 5.617-4.631 10.15-10.28 9.996-5.218-.145-9.568-4.495-9.712-9.713a9.984 9.984 0 0 1 4.063-8.333"/><path d="m28.33 35.65-.857-7.322c-.1-.414.071-.846.43-1.078l8.203-1.978c3.123-1.161 4.688.995 3.47 3.821-1.712 3.424-.568 7.704-.568 7.704l5.888.983c.937.157 2.057.515 2.8 1.107.589.47 1.112 1.1 1.112 1.848 0 1.567-.736 11.44-1.112 12-1.116 1.661-2.582.668-2.84-.241-.328-1.165.145-10.27.145-10.27-3.056.3-11.3 3.138-11.98-2.011-.02-1.266-.554-6.648 1.117-10.78"/></g></svg>