<svg xmlns="http://www.w3.org/2000/svg" viewBox="0 0 72 72"><path fill="#9b9b9a" d="M29.869 49.888s3.877-.191 1.57-2.935a27.351 27.351 0 0 1-9.979-5.337s-3.604 1.092-.983 3.249a44.52 44.52 0 0 1 9.392 5.023z"/><path fill="#d0cfce" d="M43.91 13.21a25.773 25.773 0 0 1-2.705 9.576l-11.29 21.817a22.406 22.406 0 0 1-4.52-2.417l11.877-21.504a25.775 25.775 0 0 1 6.462-7.565"/><path fill="#9b9b9a" d="M18.326 55.944a1.997 1.997 0 1 0 3.522 1.884 88.168 88.168 0 0 0 3.85-10.02l-1.175-.628a88.164 88.164 0 0 0-6.197 8.764zm33.197-11.079c2.621-2.157-.983-3.249-.983-3.249a27.351 27.351 0 0 1-9.979 5.337c-2.307 2.744 1.57 2.935 1.57 2.935a44.52 44.52 0 0 1 9.392-5.023z"/><path fill="#d0cfce" d="M29.266 14.117a25.775 25.775 0 0 1 6.462 7.565l11.877 21.504a22.406 22.406 0 0 1-4.52 2.417l-11.29-21.817a25.773 25.773 0 0 1-2.705-9.575"/><path fill="#9b9b9a" d="M53.674 55.944a1.997 1.997 0 1 1-3.522 1.884 88.168 88.168 0 0 1-3.85-10.02l1.175-.628a88.164 88.164 0 0 1 6.197 8.764z"/><g fill="none" stroke="#000" stroke-linecap="round" stroke-linejoin="round" stroke-width="2"><path d="M40.342 46.542h0a1.997 1.997 0 0 0 1.883 3.522m9.392-5.023a1.997 1.997 0 0 0-1.883-3.522h0"/><path d="M51.617 45.041a22.173 22.173 0 0 0-9.392 5.023m-1.883-3.522a22.172 22.172 0 0 0 9.392-5.023"/><path d="M53.674 55.944a1.997 1.997 0 1 1-3.522 1.884 88.168 88.168 0 0 1-3.85-10.02l1.175-.628a88.164 88.164 0 0 1 6.197 8.764zM28.266 13.117a25.775 25.775 0 0 1 6.462 7.565l12.191 22.09A22.404 22.404 0 0 1 42.4 45.19L30.795 22.786a25.773 25.773 0 0 1-2.705-9.575m1.685 36.853a1.997 1.997 0 0 0 1.883-3.522h0m-9.392-5.022h0a1.997 1.997 0 1 0-1.883 3.521"/><path d="M29.775 50.064a22.173 22.173 0 0 0-9.392-5.023m1.883-3.521a22.172 22.172 0 0 0 9.392 5.022m6.047-26.587a30.83 30.83 0 0 1 6.03-6.838m-9.392 22.917L29.6 45.19a22.404 22.404 0 0 1-4.52-2.417l6.36-11.524M43.91 13.21a25.773 25.773 0 0 1-2.705 9.576l-.913 1.757"/><path d="M18.326 55.944a1.997 1.997 0 1 0 3.522 1.884 88.168 88.168 0 0 0 3.85-10.02l-1.175-.628a88.164 88.164 0 0 0-6.197 8.764z"/></g></svg>