<svg xmlns="http://www.w3.org/2000/svg" viewBox="0 0 72 72"><path fill="#92D3F5" d="M24.026 59.255c-.752 1.164-2.134 1.604-3.09.986-.956-.618-1.122-2.061-.37-3.225 0 0 .894-1.425 4.006-3.038 0 0 .617-.354.573.32-.192 3.5-1.12 4.957-1.12 4.957"/><path fill="#61B2E4" d="M24.485 54.12c.544 1.65-.723 4.95-.723 4.95-.958 1.369-2.133 1.502-3.141.796 0 0 2.72-.971 3.864-5.746"/><path fill="#92D3F5" d="M17.726 51.684c-.752 1.164-2.135 1.603-3.09.986-.956-.618-1.122-2.062-.37-3.225 0 0 .894-1.425 4.006-3.038 0 0 .617-.354.573.32-.192 3.5-1.12 4.957-1.12 4.957"/><path fill="#61B2E4" d="M18.185 46.549c.544 1.65-.723 4.95-.723 4.95-.958 1.368-2.133 1.502-3.142.796 0 0 2.72-.971 3.865-5.746"/><path fill="#92D3F5" d="M56.428 51.684c-.751 1.164-2.134 1.603-3.09.986-.956-.618-1.122-2.062-.37-3.225 0 0 .894-1.425 4.007-3.038 0 0 .616-.354.572.32-.191 3.5-1.119 4.957-1.119 4.957"/><path fill="#61B2E4" d="M56.888 46.549c.544 1.65-.723 4.95-.723 4.95-.959 1.368-2.134 1.502-3.142.796 0 0 2.72-.971 3.864-5.746"/><path fill="#92D3F5" d="M48.002 59.255c-.752 1.164-2.134 1.604-3.09.986-.956-.618-1.122-2.061-.37-3.225 0 0 .894-1.425 4.006-3.038 0 0 .617-.354.573.32-.192 3.5-1.119 4.957-1.119 4.957"/><path fill="#61B2E4" d="M48.461 54.12c.544 1.65-.722 4.95-.722 4.95-.959 1.369-2.134 1.502-3.142.796 0 0 2.72-.971 3.864-5.746"/><path fill="#d0cfce" d="M19.279 22.307a.756.756 0 0 1-.672.677c-4.3.46-7.607 4.694-7.607 9.847 0 5.461 3.787 9.888 8.459 9.888h32.248C56.839 42.72 61 38.041 61 32.27c0-5.53-3.821-10.057-8.657-10.425a.805.805 0 0 1-.74-.65c-1.08-5.547-6.064-9.715-11.956-9.715-3.829 0-7.24 1.733-9.455 4.49-.216.27-.58.394-.899.26-.852-.358-1.752-.53-2.76-.53-3.806 0-6.93 2.904-7.254 6.607z"/><path fill="#FCEA2B" d="m31.083 42.72-3.79 6.753c-.273.287-.051.735.363.735H36.1l-5.845 9.214c-.317.5.344 1.04.77.627l13.669-13.226c.291-.283.073-.748-.35-.748H36.17l1.539-3.356h-6.626z"/><g fill="none" stroke="#000" stroke-linecap="round" stroke-linejoin="round" stroke-miterlimit="10"><path stroke-width="1.8" d="M24.026 59.255c-.752 1.164-2.134 1.604-3.09.986-.956-.618-1.122-2.061-.37-3.225 0 0 .876-1.507 4.006-3.038 0 0 .617-.354.573.32-.192 3.5-1.12 4.957-1.12 4.957m-6.299-7.571c-.752 1.164-2.135 1.603-3.09.986-.956-.618-1.122-2.062-.37-3.225 0 0 .876-1.508 4.006-3.038 0 0 .617-.354.573.32-.192 3.5-1.12 4.957-1.12 4.957m38.703 0c-.751 1.164-2.134 1.603-3.09.986-.956-.618-1.122-2.062-.37-3.225 0 0 .876-1.508 4.007-3.038 0 0 .616-.354.572.32-.191 3.5-1.119 4.957-1.119 4.957m-8.426 7.571c-.752 1.164-2.134 1.604-3.09.986-.956-.618-1.122-2.061-.37-3.225 0 0 .876-1.507 4.006-3.038 0 0 .617-.354.573.32-.192 3.5-1.119 4.957-1.119 4.957"/><path stroke-width="2" d="M19.279 22.307a.756.756 0 0 1-.672.677c-4.3.46-7.607 4.694-7.607 9.847 0 5.461 3.787 9.888 8.459 9.888h32.248C56.839 42.72 61 38.041 61 32.27c0-5.53-3.821-10.057-8.657-10.425a.805.805 0 0 1-.74-.65c-1.08-5.547-6.064-9.715-11.956-9.715-3.829 0-7.24 1.733-9.455 4.49-.216.27-.58.394-.899.26-.852-.358-1.752-.53-2.76-.53-3.806 0-6.93 2.904-7.254 6.607z"/><path stroke-width="1.8" d="m31.083 42.72-3.79 6.753c-.273.287-.051.735.363.735H36.1l-5.845 9.214c-.317.5.344 1.04.77.627l13.669-13.226c.291-.283.073-.748-.35-.748H36.17l1.539-3.356h-6.626z"/></g></svg>