<svg xmlns="http://www.w3.org/2000/svg" viewBox="0 0 72 72"><g stroke-linecap="round" stroke-linejoin="round" stroke-miterlimit="10" stroke-width="2"><path fill="#ea5a47" d="M36 11c-13.807 0-25 11.193-25 25s11.193 25 25 25c13.806 0 25-11.193 25-25S49.806 11 36 11z"/><path fill="#FFF" d="M55.52 39.43c.198-1.127.308-2.283.308-3.466a19.97 19.97 0 0 0-.302-3.43H16.474a20.023 20.023 0 0 0-.302 3.43c0 1.183.11 2.34.308 3.466h39.04z"/></g><g fill="none" stroke="#000" stroke-linecap="round" stroke-linejoin="round" stroke-miterlimit="10" stroke-width="2"><path d="M36 11c-13.807 0-25 11.193-25 25s11.193 25 25 25c13.806 0 25-11.193 25-25S49.806 11 36 11z"/><path d="M55.52 39.43c.198-1.127.308-2.283.308-3.466a19.97 19.97 0 0 0-.302-3.43H16.474a20.023 20.023 0 0 0-.302 3.43c0 1.183.11 2.34.308 3.466h39.04z"/></g></svg>