<svg xmlns="http://www.w3.org/2000/svg" viewBox="0 0 72 72"><path fill="#3F3F3F" d="M52 42.2s-.2-6.2-.3-6.8-.7-1.6-1-2.1L48.2 29 42 24.5l-7.2 5.4 2.6 4.5 4.9-.4 10.2 13.3-.5-5.1z"/><path fill="#9B9B9A" d="m50 39 3.4 9.1L60 56H12l4-7 2-12 7-19 4 4 4 3 4 8h5l8 6"/><g fill="none" stroke="#000" stroke-linecap="round" stroke-linejoin="round" stroke-miterlimit="10" stroke-width="2"><path d="m60 55-6.6-6.9L50 39m-13-6-4-8-4-3-4-4-7 19-2 12-4 6"/><path d="m31 24 1 9h10l8 6-1 6 1 5-2 2-3 3m-6-27 4-3 4 4 3 5"/></g></svg>