<svg xmlns="http://www.w3.org/2000/svg" viewBox="0 0 72 72"><path fill="#ea5a47" d="M15.08 27.127c1.158-2.514 6.616-4.943 9.057-6.163 4.021-2.01 7.881-2.626 12.354-2.927l-.399-2.946a44.743 44.743 0 0 0-12.712 5.598 40.885 40.885 0 0 0-4.75 3.81 5.13 5.13 0 0 1-1.119.886c-1.661.667.166.744-2.006-.27v2.59l5.653-2.733c1.737-.84.218-3.428-1.515-2.59l-5.652 2.734a1.508 1.508 0 0 0 0 2.59c3.712 1.732 4.005 1.349 7.098-1.246a39.574 39.574 0 0 1 15.8-8.477c1.614-.394 1.312-3.06-.399-2.946-5.255.353-9.192 1.002-13.868 3.336-3.045 1.52-8.633 3.984-10.133 7.24-.803 1.741 1.782 3.267 2.59 1.514zm30.015-8.117a45.475 45.475 0 0 0-17.523 14.601c-.71 1.047.272 2.13 1.295 2.257 3.156.392 10.022 3.125 10.896 6.87a1.512 1.512 0 0 0 2.893 0c.406-1.462 1.36-2.518 1.898-3.9a47.71 47.71 0 0 0 1.328-5.663c.95-3.784 2.015-7.3 1.779-11.237a1.521 1.521 0 0 0-2.561-1.06c-2.196 1.808-4.406 3.601-6.587 5.428-1.904 1.593-4.25 4.88-6.646 5.521a1.507 1.507 0 0 0 .399 2.946c4.299.046 11.375-1.754 12.232-6.809a1.52 1.52 0 0 0-1.845-1.845c-2.29.654-12.207 8.632-7.613 11.05 3.589 1.89 9.403-8.682 9.237-11.352a1.507 1.507 0 0 0-2.947-.399c-.982 3.24-3.673 8.55-2.71 11.947a1.516 1.516 0 0 0 2.506.662c3.114-2.96 4.271-8.202 5.033-12.26a1.501 1.501 0 0 0-2.893-.797c-1.403 4.58-2.18 9.34-4.214 13.707l2.741.358a11.368 11.368 0 0 1 .244-5.647c.306-1.344-1.483-2.687-2.507-1.46l-1.38 1.18a1.501 1.501 0 0 0 1.514 2.59 4.902 4.902 0 0 0 1.988-1.648l-2.507-1.46a14.626 14.626 0 0 0-.245 7.243 1.516 1.516 0 0 0 2.742.358c2.152-4.619 3.033-9.578 4.517-14.423l-2.893-.797c-.658 3.505-1.59 8.396-4.26 10.935l2.506.661c-.65-2.292 2.042-8.144 2.711-10.351l-2.946-.399c.07 1.123-1.477 3.273-2.072 4.2-.665 1.034-2.727 2.713-2.736 3.656q-1.007.65.152.798 1.488.983 2.11-1.564c1.236-1.391 2.925-3.382 4.72-3.895l-1.846-1.845c-.622 3.67-6.44 4.637-9.34 4.606l.4 2.947c2.63-.704 3.947-2.685 5.876-4.481 2.75-2.56 5.78-4.852 8.68-7.24l-2.56-1.06c.254 4.243-1.141 7.933-2.061 11.985-.652 2.873-2.066 5.24-2.837 8.016h2.893c-1.224-5.246-9.053-8.484-13.789-9.072l1.295 2.257c3.856-5.68 10.326-10.612 16.447-13.524 1.743-.829.222-3.416-1.514-2.59z"/><path fill="#ea5a47" d="M39.944 34.559a11.165 11.165 0 0 1-2.05-3.949c-.365-1.286-.233-2.804-.896-3.974a1.533 1.533 0 0 0-1.694-.689c-1.254.308-1.52 1.486-1.935 2.567a95.818 95.818 0 0 0-1.7 4.84c-.595 1.842 2.3 2.63 2.893.798.61-1.885 1.108-4.266 2.186-5.94l-.896.69.25-.062-1.694-.69a10.013 10.013 0 0 1 .405 2.492 13.354 13.354 0 0 0 .711 2.251 15.21 15.21 0 0 0 2.298 3.787c1.21 1.505 3.32-.63 2.122-2.121zm10.552-11.153c.914 3.356 3.232 5.954 3.684 9.503a21.138 21.138 0 0 1-1.278 10.087c-1.645 4.006-2.2 4.603.658 8.05a1.515 1.515 0 0 0 2.507-.662c1.881-5.393 3.76-12.54 1.365-18.013-.772-1.764-3.358-.239-2.59 1.514 1.97 4.503-.126 11.284-1.667 15.702l2.507-.662c-1.734-2.092-.103-4.043.594-6.212a24.709 24.709 0 0 0 .913-6.58 19.356 19.356 0 0 0-.479-5.978c-.755-2.685-2.583-4.837-3.32-7.546a1.501 1.501 0 0 0-2.893.797z"/><path fill="#fcea2b" d="m22.28 30.367.42-.404a1.506 1.506 0 0 0-1.817-2.356l-.37.202 1.514 2.59c3.254-2.172 5.782-4.743 9.398-6.375 3.55-1.601 6.543-3.236 10.448-3.955l-.797-2.893c-3.652.858-7.01 2.55-10.651 3.445l1.156 2.741a18.444 18.444 0 0 1 3.777-1.672l-1.46-2.507a50.216 50.216 0 0 0-4.52 4.274 1.506 1.506 0 0 0 1.818 2.356l4.85-2.863-1.816-2.355a97.697 97.697 0 0 0-8.963 11.544l2.356-.303a9.342 9.342 0 0 0-5.212-2.697l.896 2.203c1.529-2.096 4.823-3.36 7.072-4.463l-1.818-2.356a53.031 53.031 0 0 0-3.443 3.855c-1.204 1.487.906 3.623 2.121 2.121a52.988 52.988 0 0 1 3.443-3.854 1.507 1.507 0 0 0-1.818-2.356c-2.922 1.432-6.192 2.858-8.147 5.54a1.506 1.506 0 0 0 .897 2.203 6.703 6.703 0 0 1 3.888 1.925 1.522 1.522 0 0 0 2.355-.303 92.608 92.608 0 0 1 8.494-10.937 1.507 1.507 0 0 0-1.817-2.356l-4.85 2.862L31.5 25.58a50.22 50.22 0 0 1 4.52-4.274c1.163-.971-.083-2.94-1.46-2.507a21.842 21.842 0 0 0-4.494 1.974 1.507 1.507 0 0 0 1.156 2.742c3.64-.895 7-2.587 10.65-3.445 1.9-.446 1.079-3.238-.797-2.893-4.346.801-7.475 2.653-11.455 4.335-3.549 1.5-5.944 4.186-9.107 6.298a1.501 1.501 0 0 0 1.514 2.59l.37-.201-1.818-2.356-.42.404c-1.396 1.34.727 3.46 2.12 2.121z"/><path fill="#fcea2b" d="M36.26 23.466a1.5 1.5 0 0 0 0-3 1.5 1.5 0 0 0 0 3zm11.406-.71c-.466 2.945 1.266 5.61.741 8.524-.34 1.888 2.551 2.698 2.893.798a11.024 11.024 0 0 0 .043-3.928c-.26-1.505-1.03-3.045-.784-4.597.298-1.889-2.592-2.702-2.893-.798z"/><path fill="#fcea2b" d="M48.337 31.911a5.849 5.849 0 0 1-.72 3.618l2.796.757.573-4.716c.217-1.785-2.405-1.872-2.946-.399-1.312 3.573-.363 8.31-3.324 11.082l2.507 1.46a35.607 35.607 0 0 1 2.055-5.475c.68-1.431-1.161-3.196-2.355-1.818-1.62 1.869-3.591 5.146-3.805 7.65a1.46 1.46 0 0 0 .743 1.295c1.492.746 4.415.236 5.258 1.951l.896-2.203-.939.354 1.846 1.845c.609-2.667 2.054-5.164 1.859-7.965-.245-3.502-.717-6.903-.777-10.445l-2.795.757a18.031 18.031 0 0 1 1.137 7.063 18.724 18.724 0 0 0-.026 2.335c.553 3.731.967 1.47 1.532.202.643-1.441-1.108-3.173-2.356-1.818a10.773 10.773 0 0 0-2.351 3.94c-.638 1.827 2.26 2.612 2.893.798a5.626 5.626 0 0 1 1.58-2.617l-2.356-1.817c-.699 1.566-2.426 4.02-1.419 5.798a2.388 2.388 0 0 0 3.53.569c1.952-1.362 1.982-4.735 1.98-6.807a22.374 22.374 0 0 0-1.554-9.16c-.61-1.408-2.818-.639-2.795.757A61.54 61.54 0 0 0 49.33 37a12.606 12.606 0 0 1 .025 5.322c-.366 1.423-.995 2.748-1.325 4.192-.233 1.019.71 2.273 1.845 1.845l.94-.354a1.53 1.53 0 0 0 .896-2.203c-1.393-2.835-3.935-1.829-6.335-3.028l.743 1.296c.13-1.512 1.984-4.441 2.926-5.528l-2.356-1.818a40.237 40.237 0 0 0-2.357 6.191 1.512 1.512 0 0 0 2.507 1.46c3.594-3.366 2.532-8.15 4.095-12.406l-2.946-.399-.574 4.716c-.192 1.576 2.073 1.9 2.795.757a8.572 8.572 0 0 0 1.13-5.132c-.04-1.928-3.04-1.934-3 0z"/><ellipse cx="39.5" cy="59.5" fill="#d0cfce" stroke="#d0cfce" stroke-linecap="round" stroke-linejoin="round" stroke-width="1.961" opacity=".5" rx="17.5" ry="4.5"/><g fill="none" stroke="#000" stroke-width="2"><path stroke-linecap="round" stroke-linejoin="round" d="M11.573 26.675s12.653-19.233 34.283-8.642 9.68 38.397 8.642 34.283-4.293-2.564-4.293-2.564-2.408-3.769-8.584-5.128"/><path stroke-miterlimit="10" d="M17.582 30.265a11.97 11.97 0 0 1 9.444 5.64c10.123 2.553 14.595 8.719 14.595 8.719"/><path stroke-linecap="round" stroke-linejoin="round" d="M27.026 35.906a33.14 33.14 0 0 1 18.76-17.85c.026-.009.018-.044-.007-.055C33.065 12.77 18.312 29.43 17.61 30.235c-.01.012-.024.001-.024-.014.083-2.204-6.012-3.546-6.012-3.546M41.62 44.624c10.197-15.867 5.053-25.274 4.32-26.464a.022.022 0 0 1 .033-.027c1.367 1.213 14.11 13.237 4.233 31.618"/><path stroke-linecap="round" stroke-miterlimit="10" d="m22.099 59.754 12.479-20.89M47.74 16.829l-1.026 1.717"/></g></svg>