<svg xmlns="http://www.w3.org/2000/svg" viewBox="0 0 72 72"><g fill="#6a462f" stroke="#6a462f"><path d="M21.241 36.167a3.786 3.786 0 0 1-3.5-4v-7a3.531 3.531 0 1 1 7 0v7a3.786 3.786 0 0 1-3.5 4zm20.516 2.769a3.786 3.786 0 0 1-3.5-4v-15a3.531 3.531 0 1 1 7 0v15a3.786 3.786 0 0 1-3.5 4z"/><path d="M35.206 38.936a3.786 3.786 0 0 1-3.5-4v-15a3.531 3.531 0 1 1 7 0v15a3.786 3.786 0 0 1-3.5 4zm-7.653 1.231a3.786 3.786 0 0 1-3.5-4v-15a3.531 3.531 0 1 1 7 0v15a3.786 3.786 0 0 1-3.5 4zm-7.516 1.003a3.786 3.786 0 0 1-3.5-4v-15a3.531 3.531 0 1 1 7 0v15a3.786 3.786 0 0 1-3.5 4z"/><path d="M31.982 16.333c-.258-1.933 2.758-.184 6.218.457 2.333.431 4.58-3.02 4.838-1.087-.237.869 3.733-2.537 3.151 7.803m-1.977-3.453-.034.642"/><path d="M15.75 36.167c1.142 8.856 10.78 19.584 19.455 19.453 9.667 0 19.357-8.719 19.357-19.062l-.928-10.535c0-5.152-14.1-4.138-16.3-4.092L16 29.427"/></g><g fill="none" stroke="#000" stroke-linecap="round" stroke-width="2"><path stroke-linejoin="round" d="M43.741 34.99v-2.334c0-1.1-1.789-2.2-3.976-2.44l-1.049-.118c-2.187-.242-3.976-1.85-3.976-3.774s1.8-3.334 4-3.334h10a4.164 4.164 0 0 1 4.235 3.826l.657 11.213m-15.669.026c1.63-1.48 3.624-2.5 5.777-2.958"/><path stroke-miterlimit="10" d="M16.776 39.479c1.199 9.03 8.965 15.732 18.073 15.598 10.149 0 18.785-7.174 18.785-17.72"/><path stroke-linejoin="round" d="M16.776 39.479v-3.521m3.532-2.993a3.786 3.786 0 0 1-3.5-4v-7a3.531 3.531 0 1 1 7 0v7a3.786 3.786 0 0 1-3.5 4z"/><path stroke-linejoin="round" d="M28.744 31.827c-3.322 1.227-4.997-1.934-4.874-4v-7a3.531 3.531 0 1 1 7 0"/><path stroke-linejoin="round" d="M30.932 24.466v-5.318a3.531 3.531 0 1 1 7 0"/><path stroke-linejoin="round" d="M37.995 19.148a3.531 3.531 0 1 1 7 0"/></g></svg>