<svg xmlns="http://www.w3.org/2000/svg" viewBox="0 0 72 72"><path fill="#D0CFCE" d="m29.4 36.162-2.844-2.84-8.136-8.136 6.275-6.275 8.14 8.14 2.699 2.695.146.146 2.844-2.84 8.14-8.141 6.276 6.275-8.136 8.136-2.845 2.84.1.1 2.044 2.042 8.837 8.837-6.275 6.275-8.839-8.839-2.148-2.145-.06.063-2.085 2.082-8.838 8.839-6.275-6.275 8.836-8.837 2.113-2.11z"/><path fill="none" stroke="#000" stroke-linecap="round" stroke-linejoin="round" stroke-miterlimit="10" stroke-width="2" d="m29.4 36.162-2.844-2.84-8.136-8.136 6.275-6.275 8.14 8.14 2.699 2.695.146.146 2.844-2.84 8.14-8.141 6.276 6.275-8.136 8.136-2.845 2.84.1.1 2.044 2.042 8.837 8.837-6.275 6.275-8.839-8.839-2.148-2.145-.06.063-2.085 2.082-8.838 8.839-6.275-6.275 8.836-8.837 2.113-2.11z"/></svg>