<svg xmlns="http://www.w3.org/2000/svg" viewBox="0 0 72 72"><path fill="#FFA7C0" d="M52 20.65a8.51 8.51 0 00-16-4.044 8.51 8.51 0 00-16 4.044 8.47 8.47 0 001.886 5.337l-.003.002L36 43.486l14.117-17.497-.003-.002A8.47 8.47 0 0052 20.65z"/><circle cx="36.022" cy="55.007" r="5" fill="#FFA7C0"/><g><circle cx="36.022" cy="55.007" r="5" fill="none" stroke="#000" stroke-miterlimit="10" stroke-width="2"/><path fill="none" stroke="#000" stroke-linejoin="round" stroke-miterlimit="10" stroke-width="2" d="M52 20.65a8.51 8.51 0 00-16-4.044 8.51 8.51 0 00-16 4.044 8.47 8.47 0 001.886 5.337l-.003.002L36 43.486l14.117-17.497-.003-.002A8.47 8.47 0 0052 20.65z"/></g></svg>