<svg xmlns="http://www.w3.org/2000/svg" viewBox="0 0 72 72"><path fill="#FFF" d="M35 7.577a2.001 2.001 0 0 1 2 0l23.115 13.346c.619.357 1 1.017 1 1.732v26.69c0 .715-.381 1.375-1 1.732L37 64.423a2.001 2.001 0 0 1-2 0L11.885 51.077a1.999 1.999 0 0 1-1-1.732v-26.69c0-.715.381-1.375 1-1.732L35 7.577z"/><path fill="none" stroke="#000" stroke-width="2" d="M35 7.577a2.001 2.001 0 0 1 2 0l23.115 13.346c.619.357 1 1.017 1 1.732v26.69c0 .715-.381 1.375-1 1.732L37 64.423a2.001 2.001 0 0 1-2 0L11.885 51.077a1.999 1.999 0 0 1-1-1.732v-26.69c0-.715.381-1.375 1-1.732L35 7.577z"/></svg>