<svg xmlns="http://www.w3.org/2000/svg" viewBox="0 0 72 72"><path fill="#3f3f3f" d="m50.166 50.524 9.6-10.4 4.1 3.8-16.5 17.8-16.5-17.8 4.1-3.8 9.6 9.98-.004-14.694c0-9.805-3.999-15.24-14.522-15.24-10.708 0-14.21 6.761-14.21 15.24v22.799h-5.38V35.38c0-12.4 6.315-20.59 19.59-20.59 13.5 0 20.125 8.09 20.125 20.59z"/><path fill="none" stroke="#000" stroke-linecap="round" stroke-linejoin="round" stroke-width="2" d="m50.166 50.524 9.6-10.4 4.1 3.8-16.5 17.8-16.5-17.8 4.1-3.8 9.6 9.98-.004-14.694c0-9.805-3.999-15.24-14.522-15.24-10.708 0-14.21 6.761-14.21 15.24v22.799h-5.38V35.38c0-12.4 6.315-20.59 19.59-20.59 13.5 0 20.125 8.09 20.125 20.59z"/></svg>