<svg xmlns="http://www.w3.org/2000/svg" viewBox="0 0 72 72"><path fill="#ea5a47" stroke="#ea5a47" stroke-width="2" d="M21.42 31.02c-.267 5.057-3.616 18.77 14.35 18.61 10.36-4.145 11.6-1.538 15.68-9.703.44-10.15-4.093-14.12-10.66-14.56l-5.197-2.198c-6.765-1.758-11.17 1.914-14.17 7.847z"/><path fill="#5c9e31" stroke="#5c9e31" stroke-linejoin="round" stroke-width="1.6" d="M42.96 24.05c2.172-2.347 2.995-3.441 2.136-5.973 3.185 1.3 4.454-1.296 4.415-3.267 2.214.496 4.496-.7 6.159-1.887-.815 1.831-.974 4.673-.33 6.426-1.037-.118-3.592 1.275-2.439 4.51-2.239-.35-3.918-.206-5.902 1.992z"/><ellipse cx="17.99" cy="47.92" rx="3.383" ry="3.384" transform="rotate(-24.119)"/><path stroke="#000" stroke-linecap="round" stroke-linejoin="round" stroke-width="2" d="M36 53.88v10.11"/><path fill="none" stroke="#000" stroke-linecap="round" stroke-linejoin="round" stroke-width="1.6" d="M44.48 22.27c1.163-1.679.693-2.78.616-4.199 3.166.363 4.261-1.02 4.414-3.267 2.437.383 6.16-1.887 6.16-1.887s-.836 4.279-.331 6.426c-2.67.526-2.788 2.225-2.438 4.51-1.756-.02-2.938.007-4.015.513"/><path fill="none" stroke="#000" stroke-linecap="round" stroke-linejoin="round" stroke-miterlimit="10" stroke-width="2" d="M35.11 23.08c-8.409-3.817-18.04 6.391-15.28 17.42 2.729 10.89 11.99 10.59 15.47 9.446m3.54-24.516c6.852-3.328 15.7 4.769 13.45 14.38-2.224 9.497-9.767 9.231-12.61 8.241"/></svg>