<svg xmlns="http://www.w3.org/2000/svg" viewBox="0 0 72 72"><path fill="#9b9b9a" fill-rule="evenodd" d="M17.154 41.67c-4.097 4.402-2.587 7.43-2.336 10.281.24 2.707 3.745 1.568 5.707 1.08 2.9-.747 1.527-2.274 1.144-5.792"/><path fill="#d0cfce" d="M8.765 31.025c.82-.567 2.144-1 3.965-1.238 2.185-1.654 5.033-2.95 7.713-2.264 2.35.675 4.139 3.576 6.661 5.402 13.747 2.725 12.211 10.81 21.843 9.102 3.937-.698.855-4.641 3.09-6.683.819-.747 3.475-2.576 4.078-2.176.04.027.072.064.093.11.077.176.013.5-.248 1.021-.691 2.474 2.273 4.48 1.902 6.755-.15.915-.71 1.562-1.135 2.036.855.165 2.503.187 3.21 1.038 1.174 1.515 2 4.148 5.705 4.122-2.965 2.42-6.16 3.105-10.613.06-1.495-.884-2.964-1.358-4.258-.933-8.148 3.164-28.134 7.516-36.241-5.196-4.714-2.292-4.764-6.448-5.766-11.155z"/><path fill="#d0cfce" fill-rule="evenodd" d="M22.114 47.287c-3.506 5.005-.487 6.574 2.452 9.96 1.782 2.051 3.076.283 4.027-.394 2.017-2.214 1.354-5.4-.893-8.135"/><g fill="none" stroke="#000" stroke-linecap="round" stroke-linejoin="round" stroke-width="2"><path d="M9.575 32.081c4.712 1.593 4.097 5.346 9.47 5.44"/><path stroke-miterlimit="10" d="M21.39 48.322c-2.775-1.34-5.026-3.266-6.859-6.142-4.714-2.292-4.764-6.448-5.766-11.155.82-.567 2.144-1 3.965-1.238 2.185-1.654 5.033-2.95 7.713-2.264 2.35.675 4.139 3.576 6.661 5.402 13.747 2.725 12.211 10.81 21.843 9.102 3.937-.698.855-4.641 3.09-6.683.819-.747 3.475-2.576 4.078-2.176.04.027.072.064.093.11.077.176.013.5-.248 1.021-.691 2.474 2.273 4.48 1.902 6.755-.15.915-.71 1.562-1.135 2.036.855.165 2.503.187 3.21 1.038 1.174 1.515 2 4.148 5.705 4.122-2.965 2.42-6.16 3.105-10.613.06-1.495-.885-2.964-1.36-4.257-.935-4.828 1.875-13.601 4.167-21.807 3.08"/><path d="M22.114 47.287c-3.506 5.005-.487 6.574 2.452 9.96 1.782 2.051 3.076.283 4.027-.394 2.017-2.214 1.354-5.4-.893-8.135"/><path d="M15.6 43.667c-2.095 3.362-.993 5.886-.782 8.285.24 2.707 3.745 1.568 5.707 1.08.185-.047.18-.098.332-.152"/></g></svg>