<svg xmlns="http://www.w3.org/2000/svg" viewBox="0 0 72 72"><path fill="#fcea2b" d="M31.7 20.78a7.313 7.313 0 0 1-3.046-5.896 7.563 7.563 0 0 1 7.695-7.424 7.734 7.734 0 0 1 7.689 7.114c.177 3.132-.76 6.319-.669 9.455l.05 1.705c1.5 1.79 4.644 5.406 6.544 15.99.4 2.226 4.176 19.17 4.482 22.96-.79.38-1.495 1.904-2.284 2.284-1.615-3.704-5-14.09-7.808-15.65-2.744-1.455-5.133-3.324-8.991-5.195-4.576 0-7.83-8.397-7.83-15.02 0-5.159 1.01-8.631 4.169-10.32z"/><path fill="#9b9b9a" d="m27.82 16.86-.003-.015 1.737 2.22a3.469 3.469 0 0 1-5.339-.75z"/><path fill="#92d3f5" d="M31.91 31c-.011-3.585-.492-5.533 3.071-6.999a7.195 7.195 0 0 1 5.507-.004c2.973 1.276 4.603 4.463 5.713 7.502a66.708 66.708 0 0 1 2.61 9.38c.264 1.276.436 2.577.645 3.863.16.981 1.122 3.675.745 4.594-.55 1.342-3.68-2.06-4.855-2.525a25.477 25.477 0 0 1-6.906-4.2 19.448 19.448 0 0 1-5.6-7.051 11.77 11.77 0 0 1-.93-4.561z"/><path fill="#9b9b9a" d="M28.72 10.92a7.3 7.3 0 0 0-.876 5.945l-4.768 1.915c-.051-.344.088-1.022.086-1.37-.123-3.405 2.184-6.02 5.559-6.49z"/><path fill="#fff" d="M31 10c-.125-.018-.273-.02-.408-.031-2.98 3.195-2.46 8.286 1.105 10.81-.087.047-.171.103-.257.154A8.13 8.13 0 0 0 37 17.998c.444-.605 1.369-3.276 1.587-3.994-.377-.782-3.251-3.376-7.587-4.006z"/><path fill="#92d3f5" d="M31 10c2.574 1.207 5.972 2.061 6.516 4.138l15.57 44.42.64-5.275-5.674-17.59c-4.849-7.338-4.754-14.03-4.995-22.48-2.645-5.391-6.649-8.372-12.06-3.217z"/><g fill="none" stroke="#000" stroke-linecap="round" stroke-linejoin="round" stroke-width="2"><path stroke-miterlimit="10" d="M34.98 24.01a7.195 7.195 0 0 1 5.507-.004c5.245 2.136 10.97 20.55 9.796 26.09-3.318-.235-8.878-4.857-11.38-6.965a19.448 19.448 0 0 1-5.599-7.051c-1.473-4.584-1.456-10.68 1.68-12.07z"/><path d="m27.85 16.86-4.768 1.915a7.48 7.48 0 0 1-.08-1.038 6.646 6.646 0 0 1 5.725-6.822M52.77 53.42c.435 1.401 1.492 9.806 1.673 11.26.053 1.684-.774 3.102-2.284 2.284-1.291-3.902-3.765-14.54-7.046-16.26M29.56 19.07a3.469 3.469 0 0 1-5.339-.749M34.82 45.62l-.124 6.378M57.09 52H61m-48 .17h29.99"/><path d="M34.82 45.62c-4.047-3.036-6.24-5.806-7.062-11.87-.694-5.112.702-11.28 3.749-12.97-5.671-4.292-2.626-13.33 4.486-13.32a7.576 7.576 0 0 1 7.418 7.114c.12 2.217.073 4.46.035 6.694-.015.923-.03 1.844-.03 2.761v1.705"/><path d="M31.7 20.78c-.087.047-.171.103-.258.154 4.347-.828 5.867-2.954 7.147-6.93-.376-.782-3.25-3.376-7.586-4.006-.125-.018-.274-.02-.408-.03M40.7 48v4"/></g></svg>