<svg xmlns="http://www.w3.org/2000/svg" viewBox="0 0 72 72"><path fill="#B1CC33" fill-rule="evenodd" d="M20.653 28.06C11.303 33.396 5 43.462 5 55c0 .335.005.668.016 1h61.968c.01-.332.016-.665.016-1 0-11.537-6.303-21.603-15.653-26.94l4.853-8.406a2 2 0 0 0-3.464-2L47.743 26.3A30.912 30.912 0 0 0 36 24a30.91 30.91 0 0 0-11.743 2.301l-4.993-8.647a2 2 0 1 0-3.464 2l4.853 8.405z" clip-rule="evenodd"/><path d="m20.653 27.06.496.868a1 1 0 0 0 .37-1.369l-.866.5zM5.016 55l-1 .032a1 1 0 0 0 1 .968v-1zm61.968 0v1a1 1 0 0 0 1-.968l-1-.032zM51.347 27.06l-.866-.5a1 1 0 0 0 .37 1.368l.496-.869zm4.853-8.406.866.5-.866-.5zm-.732-2.732.5-.867-.5.867zm-2.732.732-.866-.5.866.5zM47.743 25.3l-.379.926a1 1 0 0 0 1.245-.426l-.866-.5zm-23.486 0-.866.5a1 1 0 0 0 1.245.426l-.379-.926zm-4.993-8.647-.866.5.866-.5zm-2.732-.732-.5-.867.5.867zm-.732 2.732-.866.5.866-.5zM6 54c0-11.164 6.098-20.905 15.149-26.072l-.992-1.737C10.508 31.7 4 42.089 4 54h2zm.015.968C6.005 54.647 6 54.324 6 54H4c0 .345.005.69.016 1.032l2-.064zM66.985 54H5.014v2h61.97v-2zM66 54c0 .324-.005.647-.015.968l1.999.064c.01-.343.016-.687.016-1.032h-2zM50.851 27.928C59.902 33.095 66 42.836 66 54h2c0-11.91-6.508-22.3-16.157-27.81l-.992 1.738zm4.483-9.774-4.853 8.405 1.732 1 4.853-8.405-1.732-1zm-.366-1.366a1 1 0 0 1 .366 1.366l1.732 1a3 3 0 0 0-1.098-4.098l-1 1.732zm-1.366.366a1 1 0 0 1 1.366-.366l1-1.732a3 3 0 0 0-4.098 1.098l1.732 1zM48.609 25.8l4.993-8.647-1.732-1-4.993 8.647 1.732 1zM36 24c4.024 0 7.86.792 11.364 2.227l.758-1.85A31.91 31.91 0 0 0 36 22v2zm-11.364 2.227A29.911 29.911 0 0 1 36 24v-2a31.91 31.91 0 0 0-12.122 2.376l.758 1.85zm.487-1.426-4.993-8.647-1.732 1 4.993 8.647 1.732-1zm-4.993-8.647a3 3 0 0 0-4.098-1.098l1 1.732a1 1 0 0 1 1.366.366l1.732-1zm-4.098-1.098a3 3 0 0 0-1.098 4.098l1.732-1a1 1 0 0 1 .366-1.366l-1-1.732zm-1.098 4.098 4.853 8.405 1.732-1-4.853-8.405-1.732 1z"/><circle cx="22.5" cy="42.5" r="2.5"/><circle cx="49.5" cy="42.5" r="2.5"/></svg>