<svg xmlns="http://www.w3.org/2000/svg" viewBox="0 0 72 72"><path d="M8 20h3.027v32H8zm4.541 0h6.054v32h-6.054zm7.567 0h6.054v32h-6.054zm16.649 0h6.054v32h-6.054zm12.108 0h6.054v32h-6.054zm-21.189 0h3.027v32h-3.027zm4.54 0h3.027v32h-3.027zm12.108 0h3.027v32h-3.027zm12.108 0h3.027v32h-3.027zm4.541 0H64v32h-3.027z"/><path fill="#fff" d="M5 17h62v38H5z"/><path fill="#D22F27" d="M8 20h3.027v32H8zm4.541 0h6.054v32h-6.054zm7.567 0h6.054v32h-6.054z"/><path fill="#61B2E4" d="M36.757 20h6.054v32h-6.054zm12.108 0h6.054v32h-6.054z"/><path fill="#5C9E31" d="M27.676 20h3.027v32h-3.027zm4.54 0h3.027v32h-3.027z"/><path fill="#61B2E4" d="M44.324 20h3.027v32h-3.027z"/><path fill="#5C9E31" d="M56.432 20h3.027v32h-3.027zm4.541 0H64v32h-3.027z"/><path fill="none" stroke="#000" stroke-linejoin="round" stroke-width="2" d="M5 17h62v38H5z"/></svg>