<svg xmlns="http://www.w3.org/2000/svg" viewBox="0 0 72 72"><circle cx="36" cy="36" r="28" fill="#92D3F5"/><path fill="#61B2E4" d="m15.012 55.586 39.574-39.574c.242.227.482.458.72.695 10.934 10.935 10.934 28.663 0 39.598-10.936 10.935-28.664 10.935-39.599 0a28.46 28.46 0 0 1-.695-.72z"/><path fill="#fff" d="M33.2 33.2 24 48l14.8-9.2"/><path fill="#EA5A47" d="M33.2 33.2 48 24l-9.2 14.8"/><path fill="none" stroke="#fff" stroke-linecap="round" stroke-linejoin="round" stroke-width="2" d="M36 14v-3m0 50v-3m22-22h3m-50 0h3m37.556-15.556 2.122-2.122M18.322 53.678l2.122-2.122m31.112 0 2.122 2.122M18.322 18.322l2.122 2.122M47 16.947l1.5-2.598m-25 43.301 1.5-2.597M55.053 47l2.598 1.5m-43.301-25 2.597 1.5m40.303 5.306 2.898-.777M11.852 42.47l2.898-.776M41.694 57.25l.776 2.898M29.53 11.852l.776 2.898M55.053 25l2.598-1.5m-43.301 25 2.597-1.5M47 55.053l1.5 2.598m-25-43.301 1.5 2.597m32.25 24.747 2.898.776M11.852 29.53l2.898.776M30.306 57.25l-.777 2.898M42.47 11.852l-.776 2.898"/><g fill="none" stroke="#000" stroke-linecap="round" stroke-linejoin="round" stroke-width="2"><path d="M36 64c15.464 0 28-12.536 28-28S51.464 8 36 8 8 20.536 8 36s12.536 28 28 28z"/><path d="M33.2 33.2 24 48l14.8-9.2"/><path d="M33.2 33.2 48 24l-9.2 14.8"/></g></svg>