<svg xmlns="http://www.w3.org/2000/svg" viewBox="0 0 72 72"><circle cx="36" cy="36" r="28" fill="#92D3F5"/><path fill="#92D3F5" fill-rule="evenodd" d="m34.312 27.158.008.047a9 9 0 0 1 9.327 13.369L30.386 63.541c11.442 2.28 23.557-2.801 29.714-13.467 4.21-7.291 4.767-15.688 2.24-23.074H36a9.02 9.02 0 0 0-1.688.158z" clip-rule="evenodd"/><path fill="#61B2E4" fill-rule="evenodd" d="M27 43.5 8.202 32.617C9.872 18.748 21.681 8 36 8c12.316 0 22.774 7.951 26.522 19H36a9 9 0 0 0-6.914 14.762L27 43.5z" clip-rule="evenodd"/><circle cx="36" cy="36" r="9" fill="#61B2E4"/><g fill="none" stroke="#000" stroke-width="2"><circle cx="36" cy="36" r="10" transform="rotate(-90 36 36)"/><path stroke-linecap="round" d="m44.66 41-11.5 19.919M11.081 33.16 31 44.66M36 26h23"/><circle cx="36" cy="36" r="28"/></g></svg>