<svg xmlns="http://www.w3.org/2000/svg" viewBox="0 0 72 72"><path fill="#92d3f5" d="m44.045 53.365-.015-.049a6.574 6.574 0 0 1-1.093.102 2.607 2.607 0 0 1-2.812-2.558c0-1.54.82-2.206 2.324-2.867l-.04-.138c-.655-1.887-2.285-2.78-5.046-2.78h-5.375a4.229 4.229 0 0 0-3.114 1.34v.003c.117.06.234.118.346.167 1.534.668 2.368 1.332 2.368 2.887a2.637 2.637 0 0 1-2.813 2.558 8.392 8.392 0 0 1-1.19-.11l-1.041 6.347h18.464z"/><g fill="#fcea2b"><path d="M42.46 47.988c-1.533.668-2.335 1.316-2.335 2.872a2.607 2.607 0 0 0 2.812 2.558c5.155 0 11.443-6.468 11.443-15.14 0-8.219-5.345-11.02-8.096-11.02h-6.34l-3.015.594a5.193 5.193 0 0 0-4.487-2.655h-7.014c-2.75 0-8.095 2.889-8.095 11.693 0 8.672 6.287 15.14 11.442 15.14a2.637 2.637 0 0 0 2.813-2.559c-.036-1.24-.371-2.084-2.714-3.056.128-.439 1.447-1.34 3.451-1.34 0 0 4.78-.013 5.378 0 4.332.095 4.758 2.913 4.758 2.913z"/><circle cx="29.515" cy="18.195" r="3.543"/><circle cx="42.738" cy="20.054" r="3.543"/></g><g fill="none" stroke="#000" stroke-linecap="round" stroke-linejoin="round" stroke-width="2"><path d="m44.045 53.365.963 4.242m-17.501-5.251-.963 5.251m17.501-4.242.963 4.242m-17.501-5.251-.963 5.251m15.864-9.752h0m-10.42-2.78h5.375c2.76 0 4.39.893 5.045 2.78"/><path d="M23.942 35.904v1.7a9.54 9.54 0 0 0 5.278 8.98c1.534.668 2.368 1.332 2.368 2.887a2.637 2.637 0 0 1-2.813 2.559c-5.155 0-11.442-6.468-11.442-15.14 0-8.804 5.344-11.692 8.095-11.692h7.014a5.173 5.173 0 0 1 5.147 4.991v1.423m10.181 6.69v.69a9.539 9.539 0 0 1-5.278 8.98c-1.533.668-2.367 1.332-2.367 2.887a2.607 2.607 0 0 0 2.812 2.558c5.155 0 11.443-6.467 11.443-15.14 0-8.218-5.345-11.019-8.096-11.019H40.28"/><circle cx="29.515" cy="18.195" r="3.543"/><circle cx="35.254" cy="38.648" r="3.543"/><circle cx="42.738" cy="20.054" r="3.543"/></g></svg>