<svg xmlns="http://www.w3.org/2000/svg" viewBox="0 0 72 72"><path fill="#d0cfce" d="M42.598 36.648A12.276 12.276 0 1054.714 49.08a12.29 12.29 0 00-12.116-12.433z"/><path fill="#9b9b9a" d="M42.511 43.399a5.524 5.524 0 105.452 5.595 5.53 5.53 0 00-5.452-5.595z"/><g fill="#fcea2b"><path d="M26.676 23.943c-.278-2.109-1.37-3.487-3.34-3.487-1.754 0-3.478.8-4.29 4.05 0 0-2.371 7.617-2.371 10.302a10.096 10.096 0 00.773 3.644l6.275 20.884a2.365 2.365 0 002.143 1.84 1.685 1.685 0 001.564-1.84L24.247 36.06M38.434 33.263l1.111-2.247a.642.642 0 01.487-.294c.166 0 .276.156.276.35v2.44h1.902a14.026 14.026 0 017.42 2.054l-.597-4.24-.596-3.909a2.955 2.955 0 00-2.451-2.65l-4.212-.53c-1.656-.198-2.748.05-3.246.994l-2.369 4.394a6.734 6.734 0 00-1.02 4.164v6.654c0 1.518.725 2.171 1.683 2.171.995 0 1.613-.934 1.613-2.268z"/><circle cx="26.925" cy="13.975" r="3.543"/><circle cx="44.569" cy="17.605" r="3.543"/><path d="M17.611 48.098l-1.231 3.516s-3.57 6.712-4.15 7.632a2.354 2.354 0 01-3.186.963c-.886-.588-.755-2.135.03-3.547.505-.91 4.094-9.193 4.094-9.193l2.182-7.535M57.773 46.55l1 8.971c.243 1.625 1.025 2.33 2.166 2.33 1.203 0 2.002-1.178 2.002-2.948 0 0-.552-10.182-.74-12.623s-2.335-3.933-5.714-3.933"/></g><g fill="none" stroke="#000" stroke-linecap="round" stroke-linejoin="round" stroke-width="2"><path d="M26.676 23.943c-.278-2.109-1.43-3.487-3.34-3.487-1.754 0-3.478.8-4.29 4.05 0 0-2.371 7.617-2.371 10.302a10.096 10.096 0 00.773 3.644l6.275 20.884a2.365 2.365 0 002.143 1.84 1.685 1.685 0 001.564-1.84L24.247 36.06"/><path d="M35.185 32.627h-6.743a2.528 2.528 0 01-2.604-1.748l-2.806-6.513M17.611 47.795l-1.231 3.819s-3.57 6.712-4.15 7.632a2.354 2.354 0 01-3.186.963c-.886-.588-.755-2.135.03-3.547.505-.91 4.094-9.193 4.094-9.193l1.879-7.231M57.773 46.55l1 8.971c.243 1.625 1.025 2.33 2.166 2.33 1.203 0 2.002-1.178 2.002-2.948 0 0-.552-10.182-.74-12.623s-2.335-3.933-5.714-3.933M32.915 41.185a12.242 12.242 0 107.467-4.366M36.916 48.85a5.524 5.524 0 105.595-5.451"/><path d="M35.138 35.61v4.833c0 1.518.726 2.171 1.684 2.171.994 0 1.612-.934 1.612-2.268v-.668M40.611 33.512h1.599a14.026 14.026 0 017.42 2.054l-.597-4.24-.596-3.909a2.955 2.955 0 00-2.451-2.65l-4.212-.53c-1.656-.198-2.778.05-3.246.994l-2.435 4.498"/><circle cx="26.925" cy="13.975" r="3.543"/><circle cx="44.569" cy="17.605" r="3.543"/></g></svg>