<svg xmlns="http://www.w3.org/2000/svg" viewBox="0 0 72 72"><path fill="#9b9b9a" d="M18.494 46.107h11.203v5.621h11.435v5.621h11.239v5.504H18.494V46.107z"/><g fill="#fcea2b"><path d="m30.246 35.175-.897 3.11a5.464 5.464 0 0 1-1.397 2.287l-4.058 3.68a1.874 1.874 0 0 1-2.451-.041 2.049 2.049 0 0 1 .298-2.323l4.164-4.672.319-2.083z"/><path d="M26.616 19.425a6.262 6.262 0 0 1 3.576-1.616c2.309 0 2.898 1.433 3.084 3.031l.031 2.492v7.1l3.487 4.964a8.585 8.585 0 0 1 .195 2.844l-.375 9.277a1.61 1.61 0 0 1-1.51 1.586 1.579 1.579 0 0 1-1.621-1.6l-.239-9.97-5.695-5.66a4.727 4.727 0 0 1-.933-2.838v-9.61z"/><circle cx="34.124" cy="12.467" r="3.266"/></g><g fill="none" stroke="#000" stroke-linecap="round" stroke-linejoin="round" stroke-width="2"><path d="m30.246 35.175-.897 3.11a5.464 5.464 0 0 1-1.397 2.287l-4.058 3.68a1.874 1.874 0 0 1-2.451-.041 2.049 2.049 0 0 1 .298-2.323l4.164-4.672.319-2.083m-7.4 10.974h10.873v5.621h11.435v5.621h11.239v4.844"/><path d="M33.307 27.677v2.755l3.487 4.964a8.585 8.585 0 0 1 .195 2.844l-.375 9.277a1.61 1.61 0 0 1-1.51 1.586 1.579 1.579 0 0 1-1.621-1.6l-.239-9.97-5.695-5.66a4.727 4.727 0 0 1-.933-2.838V23.64m14.307 8.577 14.685 6.573"/><path d="m40.263 28.258-6.956-3.936-.031-3.482c-.186-1.598-.775-3.031-3.084-3.031-3.269 0-7.318 4.1-7.318 5.884v6.194m7.984-17.42a3.266 3.266 0 1 1 3.266 3.265"/></g></svg>