<svg xmlns="http://www.w3.org/2000/svg" viewBox="0 0 72 72"><path fill="#fcea2b" d="M8.965 37.094a30.58 30.58 0 0 1 3.55-13.741c.424 6.652 3.562 9.33 5.12 9.33 1.164 0 2.234-1.185 2.234-3.12.08-2.497.461-6.772 3.8-12.952a1.91 1.91 0 0 0 .936.26c1.308 0 3.415-1.415 1.686-12.02 0 0 12.848 8.659 12.364 22.996A1.76 1.76 0 0 0 40.55 29.7a4.68 4.68 0 0 0 3.625-2.435 18.867 18.867 0 0 1 1.968 8.828c0 10.977-6.813 19.566-18.445 19.566-10.36 0-18.732-8.728-18.732-18.264"/><path fill="#f1b31c" d="M27.836 23.47c-.349 1.343-1.512 3.58-4.886 7.43-.117.09-.117.178-.233.268-.35.626-1.88 1.776-1.88 4.314a4.636 4.636 0 0 0 .6 2.04 4.417 4.417 0 0 1-2.77 1.36c-.68 0-2.102-.648-2.212-1.658a4.308 4.308 0 0 0-1.549 3.342c0 3.995 1.877 8.143 7.23 11.365 0 0 1.512.984 1.628 1.79 0 0 0 .09.116.09h6.167c.233 0 .233 0 .233-.09 0-.18.465-1.164 3.723-3.401a12.845 12.845 0 0 0 4.304-4.743.785.785 0 0 0-.698-1.074 1.835 1.835 0 0 1-1.163-1.074s-.233-.716.698-2.327a4.296 4.296 0 0 0 .766-2.148 1.099 1.099 0 0 0-1.513-.627 2.607 2.607 0 0 1-3.325-.984s-.815-1.432-.116-4.923c.465-2.684-1.164-7.07-3.258-9.307-.582-.537-1.745-.358-1.862.358z"/><path fill="#3f3f3f" d="m40.767 48.03-4.26 5.78-6.197 5.15 2.522 1.998 4.48-3.618a7.548 7.548 0 0 0 2.482-1.724l4.212-4.578z"/><path fill="#3f3f3f" d="M46.484 44.32v1.815l3.66 4.368a4.346 4.346 0 0 1 .668 2.388l.396 8.66c.048 1.81-.991 2.4-1.797 2.4-.789 0-1.44-.599-1.704-2.196l-.748-8.105-6.018-5.45a2.955 2.955 0 0 1-.923-2.174 3.966 3.966 0 0 1 .615-2.192l2.907-5.249c1.043-1.947 2.034-2.623 3.406-2.623a3.103 3.103 0 0 1 2.65 2.667z"/><circle cx="51.875" cy="33.151" r="3.135" fill="#3f3f3f"/><path fill="#f1b31c" d="m41.514 48.551-.794-.738-4.057 5.969-6.801 4.793.557.47 7.134-4.715zm.426-.351a2.955 2.955 0 0 1-.922-2.174 3.966 3.966 0 0 1 .615-2.192l2.907-5.249c1.043-1.947 2.034-2.623 3.406-2.623a2.132 2.132 0 0 1 1.061.322zm7.637 16.203c-.79 0-1.606-1.051-1.87-2.649l-.748-8.104-.6-.542 2.218.295zm.016-29.103a3.135 3.135 0 0 1 4.247-4.591 9.217 9.217 0 0 0-4.248 4.592z"/><g fill="none" stroke="#000" stroke-linecap="round" stroke-linejoin="round"><path stroke-width="2" d="M55.667 43.758h-5.403l-3.811-4.246m.097-3.533s-5.382.91-6.532 1.733c-1.469 1.052-4.134 6.245-4.134 6.245m2.265 6.267-2.642 3.585-2.072 1.344"/><path stroke-width="2" d="M46.484 43.99v2.145l3.66 4.368a4.346 4.346 0 0 1 .668 2.388l.396 8.66c.048 1.81-.991 2.4-1.797 2.4-.789 0-1.44-.599-1.704-2.196l-.748-8.105-6.018-5.45a2.955 2.955 0 0 1-.923-2.174 3.966 3.966 0 0 1 .615-2.192l2.907-5.249c1.043-1.947 2.034-2.623 3.406-2.623a2.454 2.454 0 0 1 2.32 2.337"/><path stroke-width="1.821" d="M26.543 55.543A18.805 18.805 0 0 1 9.876 37.094a30.58 30.58 0 0 1 3.55-13.741c.424 6.652 3.562 9.33 5.12 9.33 1.163 0 2.233-1.185 2.233-3.12.08-2.497.462-6.772 3.801-12.952m1.71-11.76s12.85 8.659 12.366 22.997A1.76 1.76 0 0 0 40.55 29.7a4.68 4.68 0 0 0 3.625-2.435 13.841 13.841 0 0 1 1.28 3.377"/><path stroke-width="2" d="m42.375 52.447-2.642 3.585-6.744 4.375M48.74 33.151a3.135 3.135 0 1 1 3.135 3.135"/></g></svg>