<svg xmlns="http://www.w3.org/2000/svg" viewBox="0 0 72 72"><path fill="#fcea2b" d="M32.674 13.965a3.892 3.892 0 0 1 6.706 0l20.45 40.142a4.462 4.462 0 0 1 .574 1.916 3.891 3.891 0 0 1-3.832 3.888H15.578a3.81 3.81 0 0 1-3.832-3.792 3.454 3.454 0 0 1 .575-1.916l20.353-40.238"/><path fill="#9b9b9a" d="m54.652 43.778.19.38m.001-.001 4.986 9.95a4.462 4.462 0 0 1 .575 1.916 3.891 3.891 0 0 1-3.832 3.888H15.578a3.81 3.81 0 0 1-3.832-3.792 3.454 3.454 0 0 1 .575-1.916L24.437 30.25a27.303 27.303 0 0 1 5.824-1.055c6.27 0 11.27 3.468 11.27 9.025a7.234 7.234 0 0 1-.27 1.807c-1.144 4.376-5.875 6.353-7.876 4.385a5.485 5.485 0 0 0 .345-1.682 1.618 1.618 0 0 0-1.806-1.858c-2.077 0-3.045 1.803-3.045 3.466 0 2.247.987 5.034 5.937 5.034s12.75-5.8 17.72-5.792a11.377 11.377 0 0 1 2.18.376"/><path fill="#3f3f3f" d="M60.404 56.023a4.462 4.462 0 0 0-.575-1.916l-1.547-3.087a6.37 6.37 0 0 0-3.866-1.242c-8.21 0-19.891 8.25-41.91 8.604a3.919 3.919 0 0 0 2.962 1.529h41.104a3.892 3.892 0 0 0 3.832-3.888zm-29.011-7.289a6.677 6.677 0 0 1-5.61-6.998c0-3.696 2.217-5.88 5.339-5.88 2.74 0 4.655 2.011 4.655 3.96a3.79 3.79 0 0 1-2.095 3.452 3.885 3.885 0 0 0 .027-.532 1.618 1.618 0 0 0-1.805-1.858c-2.077 0-3.046 1.803-3.046 3.467a4.584 4.584 0 0 0 2.535 4.39z"/><g fill="none" stroke="#000" stroke-linecap="round" stroke-linejoin="round" stroke-width="2"><path d="m54.717 43.955 5.112 10.152a4.462 4.462 0 0 1 .575 1.916 3.891 3.891 0 0 1-3.832 3.888H15.578a3.81 3.81 0 0 1-3.832-3.792 3.454 3.454 0 0 1 .575-1.916l12.116-23.954a27.572 27.572 0 0 1 5.824-1.055c6.27 0 11.27 3.468 11.27 9.024a7.234 7.234 0 0 1-.27 1.808c-1.144 4.375-5.875 6.352-7.876 4.384a5.485 5.485 0 0 0 .345-1.681 1.618 1.618 0 0 0-1.806-1.858c-2.077 0-3.045 1.802-3.045 3.466 0 2.247.987 5.034 5.937 5.034s12.75-5.8 17.72-5.793a9.32 9.32 0 0 1 2.18.377z"/><path d="M32.674 13.965a3.892 3.892 0 0 1 6.706 0l20.45 40.142a4.462 4.462 0 0 1 .574 1.916 3.891 3.891 0 0 1-3.832 3.888H15.578a3.81 3.81 0 0 1-3.832-3.792 3.454 3.454 0 0 1 .575-1.916l20.353-40.238"/></g></svg>