<svg xmlns="http://www.w3.org/2000/svg" viewBox="0 0 72 72"><path fill="#92d3f5" d="M13.046 40.779h45.606v20.653H13.046z"/><path fill="#a57939" d="M18.355 46.012h12.273v15.42H18.355z"/><path fill="#fff" d="M35.927 44.87h6.467v12.562h-6.467zM47.013 44.87h6.467v12.562h-6.467z"/><path fill="#d0cfce" d="M27.917 18.74a13.522 13.522 0 016.933-1.817c4.542 0 8.438 6.247 14.334 6.247.869 0 1.304-.392 2.181-.392.728 0 1.018.52 1.018 1.439v1.565c0 .717-.783 1.531-3.081 1.531-6.91 0-10.806-3.908-14.815-3.908a11.739 11.739 0 00-6.649 2.219v-4.267zM8.831 61.432h54.036v3.419H8.831z"/><g fill="none" stroke="#000" stroke-linecap="round" stroke-width="2"><path stroke-linejoin="round" d="M13.046 61.432V45.399M8.831 64.852h54.036M62.867 61.432H8.831M19.991 33.303h-7.53l-3.63 7.476h54.036l-3.629-7.476h-30.41M58.652 61.432V45.399M26.452 55.114V52.33M22.534 55.114V52.33M18.356 46.012h12.273v15.42H18.356zM27.917 9.34a13.416 13.416 0 016.933-2.148c4.542 0 8.438 3.937 14.334 3.937.869 0 1.304-.39 2.181-.39.728 0 1.018.52 1.018 1.438v13.605c0 .717-.783 1.531-3.081 1.531-6.91 0-10.806-3.908-14.815-3.908a11.739 11.739 0 00-6.649 2.219v-4.267"/><path stroke-miterlimit="10" d="M24.579 7.347v33.432"/><path stroke-linejoin="round" d="M35.927 44.87h6.467v12.562h-6.467zM47.013 44.87h6.467v12.562h-6.467z"/></g></svg>