<svg xmlns="http://www.w3.org/2000/svg" viewBox="0 0 72 72"><path fill="#92d3f5" d="M11.462 25.611 35.795 9.177l24.268 16.364v36.473h-5.867V32.787L35.788 20.368 17.329 32.857v29.157h-5.867V25.611z"/><g fill="#fcea2b"><path d="m44.694 51.12 2.823.198a45.981 45.981 0 0 1-1.097-4.89c-.1-1.147.05-4.64.05-4.64a2.891 2.891 0 0 0-2.911-2.494h-5.131c-1.397 0-1.62-.021-3.459-.021h-7.48a2.424 2.424 0 0 0-2.405 2.475s-.05 3.466-.149 4.605c-.099 1.238-.742 5-.742 5l2.748.31-.606 9.233c-.004.612.698 1.47 1.094 1.47.582 0 1.344-.48 1.392-.99l1.238-11.21c.05-.544.823-.82 1.362-.82a1.335 1.335 0 0 1 1.095 1.502l-.486 5.532 2.056.947.317 5.896c0 .54.202.673.775.673h1.087c.445 0 .7-.097.731-.86l.497-5.709 2.055-.947-.502-5.44c-.051-.663.423-1.567 1.151-1.567.668 0 1.293.18 1.396.915l1.165 10.39c.097.686.581 1.683 1.392 1.683a1.256 1.256 0 0 0 1.185-1.168s-.342-7.08-.641-10.073z"/><circle cx="31.206" cy="33.873" r="2.717"/><circle cx="40.702" cy="33.873" r="2.717"/></g><g fill="none" stroke="#000" stroke-linecap="round" stroke-linejoin="round" stroke-width="2"><path d="M60.063 61.464V20.129M35.794 9.247 63.8 28.098M11.462 61.464V20.129m5.867 41.335V32.857l18.408-12.419h.051l18.408 12.419v28.607M35.73 9.247 7.725 28.098"/><path d="m30.058 50.166-1.238 11.21c-.048.51-.81.99-1.391.99a1.268 1.268 0 0 1-1.12-1.093l1.26-18.86"/><path d="M23.876 51.354s.643-3.763.742-5c.1-1.14.149-4.605.149-4.605a2.424 2.424 0 0 1 2.405-2.476h7.224m9.674 3.015a5.986 5.986 0 0 0-.891 3.224c0 1.562 1.34 3.482 1.34 4.51.299 2.994.815 11.17.815 11.17a1.256 1.256 0 0 1-1.184 1.168 1.369 1.369 0 0 1-1.335-1.167L41.569 50.07"/><path d="M36.637 41.459a2.328 2.328 0 0 1 2.594-2.165h4.644a2.891 2.891 0 0 1 2.911 2.495s-.15 3.492-.05 4.64a46 46 0 0 0 1.098 4.889M34.268 62.987l.24-6.293m2.457 0 .238 6.364m-.171-13.513h.31a1.502 1.502 0 0 1 1.669 1.63l.484 5.205m-5.129-6.835h-.236a1.502 1.502 0 0 0-1.669 1.63l-.484 5.205m2.031-9.274a1.671 1.671 0 0 1-.39-1.173 2.025 2.025 0 1 1 3.676 1.173"/><circle cx="31.206" cy="33.873" r="2.717"/><circle cx="40.702" cy="33.873" r="2.717"/></g></svg>