<svg xmlns="http://www.w3.org/2000/svg" viewBox="0 0 72 72"><path fill="#b1cc33" d="M58.695 60.08h-46a1.002 1.002 0 01-1-1v-46a1.002 1.002 0 011-1h46a1.002 1.002 0 011 1v46a.945.945 0 01-1 1z"/><path fill="none" stroke="#000" stroke-miterlimit="10" stroke-width="2" d="M58.695 60.08h-46a1.002 1.002 0 01-1-1v-46a1.002 1.002 0 011-1h46a1.002 1.002 0 011 1v46a.945.945 0 01-1 1z"/><path d="M38.795 41.68a1 1 0 01-1-1v-9.4a1 1 0 012 0v9.4a1 1 0 01-1 1zM46.02 40.036l-3.715-4.411 3.204-3.689A1 1 0 0044 30.624l-2.913 3.352v3.308l3.403 4.041a1 1 0 001.53-1.29zM29.559 39.585a2.363 2.363 0 01-1.754-2.305v-2.7a2.362 2.362 0 011.754-2.304v-2.032a4.333 4.333 0 00-3.754 4.336v2.7a4.333 4.333 0 003.754 4.337zM30.851 30.244v2.032a2.362 2.362 0 011.754 2.304v2.7a2.363 2.363 0 01-1.754 2.305v2.032a4.333 4.333 0 003.754-4.337v-2.7a4.333 4.333 0 00-3.754-4.336z"/></svg>