<svg xmlns="http://www.w3.org/2000/svg" viewBox="0 0 72 72"><path fill="#9b9b9a" d="m23.456 55.852-19.43.301V16H68v39.991L48.304 56V19.958H23.223l.233 22.677"/><path fill="#fcea2b" d="m27 43.29-1.822 2.755-5.177 2.51a1.16 1.16 0 0 0-.684 1.423 1.01 1.01 0 0 0 1.31.669l4.934-1.513a4.392 4.392 0 0 0 1.789-1.138l4.18-4.231z"/><path fill="#fcea2b" d="M34.483 37.934v1.81l3.402 4.19a5.414 5.414 0 0 1 .618 2.212l.332 7.482c.07 1.456-.674 2.224-1.42 2.224-.793 0-1.406-.746-1.54-2.152l-.86-7.08-5.656-4.819a2.63 2.63 0 0 1-.91-1.934 4.43 4.43 0 0 1 .626-2.11l2.693-4.863c.932-1.865 1.844-2.528 3.076-2.528a2.22 2.22 0 0 1 2.192 2.263z"/><circle cx="39.109" cy="27.212" r="2.67" fill="#fcea2b"/><path fill="#f1b31c" d="M19.317 49.978a1.01 1.01 0 0 0 1.31.669l4.934-1.513a4.393 4.393 0 0 0 1.789-1.138l4.18-4.231-4.168-.476-1.373 2.68a3.826 3.826 0 0 1-1.691 1.027l-3.032 1.398zm22.087-24.531s-3.52 1.224-3.962 3.835c0 0-2.291-1.997.293-4.353s3.67.518 3.67.518z"/><path fill="#f1b31c" d="M36.439 45.49a73.881 73.881 0 0 0-5.786-5.348c.995-3.434 5.227-9.206 5.227-9.206l-2.236-.57-2.019 2.784-3.08 7.743.951.47-.137.438 5.918 4.832.736 8.91h1.562c0-.16-.42-9.032-1.136-10.054z"/><path fill="#9b9b9a" d="m36.064 56-10.842 8.772a.421.421 0 0 0 .274.748l1.583-.035a2.077 2.077 0 0 0 1.282-.48l10.843-9.023z"/><g fill="none" stroke="#000" stroke-linecap="round" stroke-linejoin="round"><path stroke-width="2" d="M48.304 56V21.078H23.456v8.09M4.951 55.814h14.603l3.902.038v-2.581m43.593-37.085H4.951m40.502 40.428h21.596"/><path stroke-width="1.635" d="M42.728 38.041h-4.332l-3.799-4.36m-.202-3.267s-4.73 1.107-5.795 1.87c-1.361.974-4.64 5.856-4.64 5.856m-4.548 11.838a1.01 1.01 0 0 0 1.31.669l4.934-1.513a4.391 4.391 0 0 0 1.789-1.138l4.18-4.231m-4.53-.475-1.822 2.755-5.177 2.51a1.16 1.16 0 0 0-.684 1.423"/><path stroke-width="1.635" d="M34.578 37.934v1.81l3.402 4.19a5.415 5.415 0 0 1 .618 2.212l.332 7.482c.07 1.456-.674 2.224-1.42 2.224-.793 0-1.406-.746-1.54-2.152l-.86-7.08-5.655-4.819a2.63 2.63 0 0 1-.91-1.934 4.43 4.43 0 0 1 .625-2.11l2.693-4.863c.933-1.865 1.844-2.528 3.076-2.528a2.22 2.22 0 0 1 2.191 2.263m-.596-5.417a2.67 2.67 0 1 1 2.67 2.67"/></g></svg>