<svg xmlns="http://www.w3.org/2000/svg" viewBox="0 0 72 72"><path fill="#f1b31c" d="M53.17 33.336a23.75 23.75 0 0 1-1.156-2.633c-1.473-3.27-2.024-4.493-2.349-10.524.027-3.693-3.794-6.784-7.475-7.093a1.002 1.002 0 0 1-.688-.343c-.093-.1-2.408-2.655-7.243-2.655-6.2 0-11.442 3.382-12.743 8.226a18.521 18.521 0 0 0-.565 6.176 13.317 13.317 0 0 1-.76 5.96 38.879 38.879 0 0 1-3.12 4.735l.19 4.452a11.072 11.072 0 0 0 8.78 10.446 3.858 3.858 0 0 0 .858.094c4.953 1.29 10.895 2.916 18.7 0a8.343 8.343 0 0 1 4.209 1.514c1.053-.693 2.047-4.473 2.972-5.33 1.187-.715 3.124-8.282.39-13.025zm-18.193 12.3c-10.587 0-10.587-17.36-10.587-17.36 2.313-2.539 15.978-9.8 15.978-9.8 6.08 2.075 6.383 11.64 6.383 11.64s-2.178 15.069-11.774 15.52z"/><path fill="#fcea2b" d="M24.39 29.123v1.042c0 8.328 4.85 14.854 11.044 14.854s11.044-6.526 11.044-14.854c0-5.067-1.872-8.183-5.561-12.123a67.278 67.278 0 0 1-9.46 6.284c-2.785 1.649-6.582 3.887-7.067 4.797z"/><path fill="#92d3f5" d="M47.181 46.469c-4.947 7.428-9.769 5.835-14.06 3.547l-6.713-10.814-8.41 4.992-.525 2.19-.434-.08-.211 2.77-.58 2.417.4-.057-.246 3.24a12.764 12.764 0 0 0-.153 2.005v4.28h38v-4.28c0-5.344-3.749-8.647-7.068-10.21z"/><path fill="#fcea2b" d="m26.408 39.202 5.672 10.167L54.249 37.09l4.159-3.565 3.481 1.859 2.253-1.327.811-2.928-6.398-4.093H56.16l-2.511.633-2.086 2.367-1.419 2.488-23.736 6.678z"/><g fill="none" stroke="#000" stroke-linecap="round" stroke-width="2"><path stroke-linejoin="round" d="M47.181 46.985c3.85 1.178 7.068 4.547 7.068 8.55v5.423"/><path stroke-miterlimit="10" d="m54.16 37.036-14.432 9.011a58.459 58.459 0 0 1-11.938 5.69c-2.438.84-4.646 1.597-4.646 1.597"/><path stroke-miterlimit="10" d="m58.73 33.622 1.815 1.107a2.737 2.737 0 0 0 3.21-.263h0a2.732 2.732 0 0 0 .339-3.807 12.152 12.152 0 0 0-5.365-3.535 6.147 6.147 0 0 0-4.935.377h0a3.387 3.387 0 0 0-.698.498l-.503.464a3.385 3.385 0 0 0-.73.972l-.583 1.167a4.7 4.7 0 0 1-1.97 2.033h0a80.915 80.915 0 0 0-13.934 4.055l-13.512 5.054a8.123 8.123 0 0 0-5.237 6.62 91.684 91.684 0 0 0-.467 11.672m12.92-30.539s2.53 1.51 4.042 0m4.29-.227s2.53 1.51 4.042 0"/><path stroke-miterlimit="10" d="M29.08 42.51s-.006 2.554 2.02 3.447"/><path stroke-linejoin="round" d="M36.188 51.083q5.266.735 10.53-3.653m7.625-7.645a11.589 11.589 0 0 1-2.253 5.234m-34.829-5.382c-.389-3.637 1.748-7.359 2.442-9.14 1.636-4.2-.21-6.451 1.29-12.034 1.48-5.5 7.278-8.966 13.71-8.966 5.4 0 8 3 8 3a8.132 8.132 0 0 1 7.405 8.037 32.04 32.04 0 0 0 .747 6.244"/><path stroke-linejoin="round" d="M45.949 30.489q.017-.402.017-.81c0-5-2-8-6-12-4 4-16 9-16 11v1a17.9 17.9 0 0 0 .574 4.55"/></g></svg>