<svg xmlns="http://www.w3.org/2000/svg" viewBox="0 0 72 72"><path fill="#3f3f3f" d="m40.999 32.238-1.604 1.778 3.989 3.729h-15.74l3.989-3.729-1.604-1.778-7.242 6.851 7.242 6.851 1.604-1.778-3.989-3.729h15.74l-3.989 3.729 1.604 1.778 7.242-6.851-7.242-6.851z"/><g fill="#fcea2b"><path d="M18.322 26.672a3.005 3.005 0 0 0-2.942-2.888h-4.193a3.005 3.005 0 0 0-2.942 2.888l-.553 13.585a.71.71 0 0 1-.085.306l2.05-1.464-.498 15.469a.861.861 0 0 0 .175.614.169.169 0 0 0 .106.063c.15 0 .458-.298.514-.787l2.025-15.727a3.45 3.45 0 0 1 .282-.833l.506-.563h1.136l.688.436a3.443 3.443 0 0 1 .246.937l1.776 15.749c.055.487.365.786.514.786a.169.169 0 0 0 .107-.063c.134-.173.342-.408.319-.629L16.901 39.1l2.446 1.698"/><circle cx="13.339" cy="18.539" r="2.075"/></g><g fill="#fcea2b"><path d="M63.765 27.136a3.005 3.005 0 0 0-2.942-2.888H56.63a3.005 3.005 0 0 0-2.942 2.888l-.553 13.585a.71.71 0 0 1-.085.306l2.05-1.464-.498 15.469a.86.86 0 0 0 .174.614.168.168 0 0 0 .107.063c.15 0 .458-.299.513-.787l2.026-15.727a3.45 3.45 0 0 1 .282-.833l.506-.563h1.136l.688.436a3.443 3.443 0 0 1 .246.937l1.776 15.749c.056.487.365.786.515.786a.169.169 0 0 0 .106-.063c.134-.173.342-.409.32-.629l-.652-15.452 2.445 1.698"/><circle cx="58.783" cy="19.003" r="2.075"/></g><g fill="none" stroke="#000" stroke-width="2"><circle cx="13.339" cy="18.539" r="2.075" stroke-miterlimit="10"/><path stroke-linecap="round" stroke-linejoin="round" d="m16.81 27.58 1.328 26.558c.038.77-.402 1.398-.979 1.398a1.45 1.45 0 0 1-1.208-1.388L14.175 38.75c-.09-.764-.475-1.389-.86-1.389s-.77.625-.858 1.389l-1.775 15.398a1.45 1.45 0 0 1-1.208 1.388c-.577 0-1.017-.629-.978-1.398l1.327-26.557"/><path stroke-linecap="round" stroke-linejoin="round" d="m7.028 40.16.553-13.278a3.686 3.686 0 0 1 3.64-3.494h4.194"/><path stroke-linecap="round" stroke-linejoin="round" d="M15.364 23.388a3.686 3.686 0 0 1 3.64 3.494l.553 13.279"/></g><g fill="none" stroke="#000" stroke-width="2"><circle cx="58.783" cy="19.003" r="2.075" stroke-miterlimit="10"/><path stroke-linecap="round" stroke-linejoin="round" d="m62.253 28.045 1.328 26.557c.039.769-.402 1.398-.978 1.398a1.45 1.45 0 0 1-1.208-1.389l-1.777-15.397c-.09-.764-.475-1.388-.859-1.388s-.77.624-.859 1.388l-1.774 15.397A1.45 1.45 0 0 1 54.917 56c-.576 0-1.017-.629-.978-1.398l1.328-26.557"/><path stroke-linecap="round" stroke-linejoin="round" d="m52.471 40.625.554-13.28a3.686 3.686 0 0 1 3.64-3.493h4.193"/><path stroke-linecap="round" stroke-linejoin="round" d="M60.807 23.851a3.686 3.686 0 0 1 3.64 3.495L65 40.625"/></g><path d="m40.999 32.238-1.604 1.778 3.989 3.729h-15.74l3.989-3.729-1.604-1.778-7.242 6.851 7.242 6.851 1.604-1.778-3.989-3.729h15.74l-3.989 3.729 1.604 1.778 7.242-6.851-7.242-6.851z"/></svg>