<svg xmlns="http://www.w3.org/2000/svg" viewBox="0 0 72 72"><path fill="#D0CFCE" d="M37.297 16.773h-2.472c-5.876 0-10.684 4.808-10.684 10.684V44.39c0 5.876 4.808 10.684 10.684 10.684h2.472c5.876 0 10.684-4.808 10.684-10.684V27.457c0-5.876-4.808-10.684-10.684-10.684z"/><path fill="#3F3F3F" d="M36.061 22.112a2.08 2.08 0 0 0-2.074 2.074v5.834a2.08 2.08 0 0 0 2.074 2.073 2.08 2.08 0 0 0 2.074-2.073v-5.834a2.08 2.08 0 0 0-2.074-2.074z"/><path fill="#9B9B9A" d="M35.136 18.177c3.027 1.299 5.904 3.163 6.239 7.873.388 5.455-1.63 15.669-2.28 20.857-.453 3.627-2.247 5.307-4.63 7.21-1.2.961 5.267.844 7.93-.713 2.286-1.336 4.5-3.629 4.527-2.904l.323-25.805s-.937-6.937-8.566-6.94c0 0-7.652-.393-3.543.422z"/><g fill="none" stroke="#000" stroke-linecap="round" stroke-linejoin="round" stroke-miterlimit="10" stroke-width="2"><path d="M38.83 54.501h-5.537c-4.97 0-9.035-4.065-9.035-9.034V26.38c0-4.969 4.066-9.034 9.035-9.034h5.536c4.97 0 9.035 4.065 9.035 9.034v19.087c0 4.969-4.066 9.034-9.035 9.034z"/><path d="M36.145 32.155h-.168a2.035 2.035 0 0 1-2.03-2.03V24.08c0-1.116.914-2.029 2.03-2.029h.168c1.116 0 2.03.913 2.03 2.03v6.046c0 1.116-.914 2.03-2.03 2.03zm-21.113 2.036-5.215-5.216m5.215-5.258-5.215 5.216m47.339-5.216 5.216 5.216m-5.216 5.258 5.216-5.216"/></g></svg>