<svg xmlns="http://www.w3.org/2000/svg" viewBox="0 0 72 72"><path fill="#9B9B9A" d="M45.5 25.1h-3.75c0-3.18-2.57-5.75-5.75-5.75s-5.75 2.57-5.75 5.75H26.5c0-5.25 4.25-9.5 9.5-9.5s9.5 4.25 9.5 9.5z"/><path fill="#D0CFCE" d="M10.83 25.1H61V56H10.83z"/><path fill="#EA5A47" d="M38.92 36.76h4.874v6.584H38.92l.042-.042v4.875h-6.583v-4.876"/><path fill="#EA5A47" d="M32.336 43.344h-4.792V36.76h4.792l.042-.041v-4.792h6.583v4.792"/><g fill="none" stroke="#000" stroke-linecap="round" stroke-linejoin="round" stroke-miterlimit="10" stroke-width="2"><path d="M45.5 25.1h-3.75c0-3.18-2.57-5.75-5.75-5.75s-5.75 2.57-5.75 5.75H26.5c0-5.25 4.25-9.5 9.5-9.5s9.5 4.25 9.5 9.5z"/><path d="M30.25 25.1c0-3.18 2.57-5.75 5.75-5.75s5.75 2.57 5.75 5.75m-30.92 0H61V56H10.83z"/><path d="M38.92 36.76h4.874v6.584H38.92l.042-.042v4.875h-6.583v-4.876"/><path d="M32.336 43.344h-4.792V36.76h4.792l.042-.041v-4.792h6.583v4.792"/></g></svg>