<svg xmlns="http://www.w3.org/2000/svg" viewBox="0 0 72 72"><path fill="#FFF" d="M57.041 61.067H14.866a3.912 3.912 0 01-3.913-3.913V14.98a3.912 3.912 0 013.913-3.912H57.04a3.912 3.912 0 013.912 3.912v42.175a3.912 3.912 0 01-3.912 3.913z"/><path fill="#D0CFCE" d="M12.102 59.906A3.738 3.738 0 0014.75 61h42.5A3.75 3.75 0 0061 57.25v-42.5c0-1.036-.42-1.975-1.1-2.654l-47.798 47.81z"/><path fill="#D0CFCE" d="M25.401 46.615A14.953 14.953 0 0121 36c0-8.284 6.716-15 15-15 4.141 0 7.89 1.678 10.605 4.391L25.4 46.615z"/><path fill="#D0CFCE" stroke-linecap="round" stroke-linejoin="round" stroke-miterlimit="10" stroke-width="2" d="M46.605 25.391A14.953 14.953 0 0151 36c0 8.284-6.716 15-15 15a14.953 14.953 0 01-10.599-4.385"/><g><path fill="none" stroke="#000" stroke-linecap="round" stroke-linejoin="round" stroke-miterlimit="10" stroke-width="2" d="M58 61H14a3 3 0 01-3-3V14a3 3 0 013-3h44a3 3 0 013 3v44a3 3 0 01-3 3z"/><path fill="none" stroke="#000" stroke-linecap="round" stroke-linejoin="round" stroke-miterlimit="10" stroke-width="2" d="M46.605 25.391A14.953 14.953 0 0151 36v0c0 8.284-6.716 15-15 15h0a14.953 14.953 0 01-10.599-4.385"/><circle cx="29.75" cy="36" r="3.75"/><circle cx="42.25" cy="36" r="3.75"/><circle cx="36" cy="36" r="15" fill="none" stroke="#000" stroke-linecap="round" stroke-linejoin="round" stroke-miterlimit="10" stroke-width="2"/></g></svg>