<svg xmlns="http://www.w3.org/2000/svg" viewBox="0 0 72 72"><path fill="#f1b31c" d="M20.64 60.065c1.288-1.377 3.555-3.578 4.806-4.914-1.443.88-4.176 3.344-5.572 4.23a45.647 45.647 0 0 1-5.45-4.735 23.46 23.46 0 0 0 8.98-4.119 29.55 29.55 0 0 1-10.006 2.882A47.579 47.579 0 0 1 9.998 48c7.097 1.93 14.815-.912 19.579-5.875a89.68 89.68 0 0 0 4.104 2.23 3.18 3.18 0 0 1 1.605 1.895c1.733 4.63.723 8.712-2.413 12.38-1.312 1.535-3.269 3.883-4.997 4.923a33.7 33.7 0 0 1-7.236-3.488z"/><path fill="#a57939" d="m36.257 39.36-2.572-1.489c.679-1.184 1.336-2.339 2-3.489q7.2-12.471 14.402-24.941c.098-.17.193-.343.3-.507a1.486 1.486 0 0 1 2.565 1.502c-.803 1.44-1.64 2.86-2.465 4.29L37.855 36.607c-.519.899-1.042 1.795-1.598 2.752z"/><path fill="#92d3f5" d="m35.026 44.42-5.081-2.936c.53-.911 1.014-1.806 1.564-2.658a.924.924 0 0 1 1.3-.316q1.7.937 3.361 1.942a.931.931 0 0 1 .374 1.287c-.462.903-.996 1.768-1.517 2.68z"/><path fill="#d0cfce" d="M10 18.463h18.227v8.332H10z"/><path fill="none" stroke="#000" stroke-linecap="round" stroke-linejoin="round" stroke-width="2" d="M20.64 60.065c1.288-1.377 3.555-3.578 4.806-4.914-1.443.88-4.176 3.344-5.572 4.23a45.647 45.647 0 0 1-5.45-4.735 23.46 23.46 0 0 0 8.98-4.119 29.55 29.55 0 0 1-10.006 2.882A47.579 47.579 0 0 1 9.998 48c7.097 1.93 14.815-.912 19.579-5.875a89.68 89.68 0 0 0 4.104 2.23 3.18 3.18 0 0 1 1.605 1.895c1.733 4.63.723 8.712-2.413 12.38-1.312 1.535-3.269 3.883-4.997 4.923a33.7 33.7 0 0 1-7.236-3.488z"/><path fill="none" stroke="#000" stroke-miterlimit="10" stroke-width="2" d="m36.257 39.36-2.572-1.489c.679-1.184 1.336-2.339 2-3.489q7.2-12.471 14.402-24.941c.098-.17.193-.343.3-.507a1.486 1.486 0 0 1 2.565 1.502c-.803 1.44-1.64 2.86-2.465 4.29L37.855 36.607c-.519.899-1.042 1.795-1.598 2.752zm-1.231 5.06-5.081-2.936c.53-.911 1.014-1.806 1.564-2.658a.924.924 0 0 1 1.3-.316q1.7.937 3.361 1.942a.931.931 0 0 1 .374 1.287c-.462.903-.996 1.768-1.517 2.68z"/><circle cx="32.93" cy="63.413" r="1.397"/><circle cx="36.147" cy="59.381" r="1.176"/><circle cx="36.147" cy="62.357" r=".934"/><path fill="none" stroke="#000" stroke-linecap="round" stroke-linejoin="round" stroke-width="2" d="M10 18.463h18.227v8.332H10zm1.785 0 7.309-7.64 7.278 7.64"/><circle cx="19.113" cy="13.969" r="1.047"/></svg>