<svg xmlns="http://www.w3.org/2000/svg" viewBox="0 0 72 72"><path fill="#fff" d="M15.23 56.02h-1.636c-.63 0-1.139-.656-1.139-1.465v-39.53c0-.81.51-1.465 1.139-1.465h1.636c.63 0 1.139.656 1.139 1.465v39.53c0 .81-.51 1.465-1.139 1.465zm43.54 0h-1.636c-.63 0-1.139-.656-1.139-1.465v-39.53c0-.81.51-1.465 1.139-1.465h1.636c.63 0 1.139.656 1.139 1.465v39.53c0 .81-.51 1.465-1.139 1.465z"/><path fill="#fff" d="M7.621 27.67h56.76v7.124H7.621z"/><path fill="#ea5a47" d="M7.621 27.67h11.35v7.124H7.621z"/><path fill="#fff" d="M18.97 27.67h11.35v7.124H18.97z"/><path fill="#ea5a47" d="M30.28 27.67h11.35v7.124H30.28z"/><path fill="#fff" d="M41.63 27.67h11.35v7.124H41.63z"/><path fill="#ea5a47" d="M52.98 27.67h11.35v7.124H52.98z"/><path fill="#fff" d="M7.621 41.67h56.76v7.124H7.621z"/><path fill="#ea5a47" d="M7.621 41.67h11.35v7.124H7.621z"/><path fill="#fff" d="M18.97 41.67h11.35v7.124H18.97z"/><path fill="#ea5a47" d="M30.28 41.67h11.35v7.124H30.28z"/><path fill="#fff" d="M41.63 41.67h11.35v7.124H41.63z"/><path fill="#ea5a47" d="M52.98 41.67h11.35v7.124H52.98z"/><g fill="none" stroke="#000" stroke-linecap="round" stroke-linejoin="round" stroke-miterlimit="10" stroke-width="2"><path d="M12.06 41.13v-5.941m3.91 13.601v6.091c0 .63-.51 1.139-1.139 1.139h-1.636c-.63 0-1.139-.51-1.139-1.139v-5.682M15.97 35.19v5.941M12.06 27.59V14.81c0-.63.51-1.139 1.139-1.139h1.636c.63 0 1.139.51 1.139 1.139V27.5M56 41.67v-6.477M59.91 49.2v5.682c0 .63-.51 1.139-1.139 1.139h-1.636c-.63 0-1.139-.51-1.139-1.139V49.2m3.914-14.01v5.586M56 27.38V14.8c0-.63.51-1.139 1.139-1.139h1.636c.63 0 1.139.51 1.139 1.139v12.49m-52.293.38h56.76v7.124H7.621z"/><path d="M7.621 27.67h11.35v7.124H7.621z"/><path d="M18.97 27.67h11.35v7.124H18.97z"/><path d="M30.28 27.67h11.35v7.124H30.28zm11.35 0h11.35v7.124H41.63z"/><path d="M52.98 27.67h11.35v7.124H52.98zm-45.359 14h56.76v7.124H7.621z"/><path d="M7.621 41.67h11.35v7.124H7.621z"/><path d="M18.97 41.67h11.35v7.124H18.97z"/><path d="M30.28 41.67h11.35v7.124H30.28zm11.35 0h11.35v7.124H41.63z"/><path d="M59.91 41.67h4.42v7.12H52.98v-7.12h6.93"/></g></svg>