<svg xmlns="http://www.w3.org/2000/svg" viewBox="0 0 72 72"><path fill="#A57939" d="M19.093 39.105s.625 1 1 2v3l4.125 6 2.875-2-2.801-5.855s-.926-1.031-1.459-1.27c-1.209-.542-2.001-.501-2.042-.542-.744-.745-.823-.896-1.073-1.271s-.281-1.125-.969-.469"/><g fill="#FCEA2B"><path d="M33.188 25.188 28.3 67h3.3l6.3-27h2.2l-.315 12.8L37.4 67h3.3l4.316-14 1.26-13.125-.526-12.813s3.438 15.188 4.688 16.375 2.874.47 2.874.47L48 21.436l-2.563-5.25-3.874-1.437-10.688 2.313-7 11.812-6.563 7.688s.16.835 2.563.75c1.75-.063 4.792-4.141 5.375-4.896 1.594-2.063 6.406-11.23 8.063-11.292.288-.01 0 3.5-.126 4.063z"/><circle cx="36.969" cy="8.094" r="3"/></g><g fill="none" stroke="#000" stroke-miterlimit="10" stroke-width="2"><circle cx="36.969" cy="8.094" r="3"/><path stroke-linecap="round" stroke-linejoin="round" d="m44 21 2.036 16.89c.132 1.091.153 2.88.048 3.976l-.877 9.143c-.105 1.096-.456 2.851-.78 3.902L41.289 65.09c-.324 1.049-1.331 1.91-2.238 1.91-.908 0-1.5-.888-1.315-1.972l1.713-10.056c.185-1.084.359-2.871.386-3.971l.215-8.602c.027-1.1-.445-1.999-1.05-1.999s-1.307.876-1.56 1.947l-5.38 22.707C31.808 66.124 30.858 67 29.95 67c-.908 0-1.547-.894-1.42-1.986L33.5 22"/><path stroke-linecap="round" stroke-linejoin="round" d="m18 36 1.5-1c.825-.55 2.64-2.94 4.035-5.31l4.93-8.38C29.859 18.94 32.8 16.55 35 16s5.8-1 8-1 4.318 2.228 4.707 4.95l.586 4.1c.389 2.722 1.325 7.113 2.081 9.758L53 43m-34-4s.625 1 1 2v3l4.125 6L27 48l-3.333-4.999"/></g></svg>