<svg xmlns="http://www.w3.org/2000/svg" viewBox="0 0 72 72"><path fill="#FCEA2B" d="M32.6 43c6.075 0 11-6.268 11-14s-4.925-14-11-14-11 6.268-11 14 4.925 14 11 14z"/><g fill="#6A462F"><path d="M33 20c-5.6 0-9.333 2.667-10.5 4 .833-2.833 4.2-8.5 11-8.5s9.167 5 9.5 7.5c-1-1-4.4-3-10-3z"/><ellipse cx="33" cy="13.5" rx="4" ry="2.5"/></g><path fill="#3F3F3F" d="M14 59.1v-4c0-5 5-9 10-9 6 5 12 5 18 0 5 0 10 4 10 9v4"/><path fill="#6A462F" fill-rule="evenodd" d="M23.048 46.148a10.49 10.49 0 0 0-3.048.788V59.1h26V46.936c-.826-.35-1.695-.6-2.58-.73l-.92.394-.5 7.5H24l-.5-7.5-.452-.452z" clip-rule="evenodd"/><path fill="#fff" d="M41 57.1h20l-2 3H43l-2-3z"/><g fill="#fff"><path fill-rule="evenodd" d="M51 58.1c3.314 0 6-4.477 6-10H45c0 5.523 2.686 10 6 10z" clip-rule="evenodd"/><path d="M57 48.1h1a1 1 0 0 0-1-1v1zm-12 0v-1a1 1 0 0 0-1 1h1zm11 0c0 2.611-.637 4.927-1.615 6.556-.99 1.65-2.217 2.444-3.385 2.444v2c2.146 0 3.918-1.445 5.1-3.415 1.194-1.99 1.9-4.674 1.9-7.585h-2zm-11 1h12v-2H45v2zm6 8c-1.168 0-2.395-.794-3.385-2.444C46.637 53.028 46 50.712 46 48.1h-2c0 2.911.706 5.596 1.9 7.585 1.182 1.97 2.954 3.415 5.1 3.415v-2z"/></g><path fill="none" stroke="#000" stroke-linejoin="round" stroke-width="2" d="M32.968 15.3c-6.063 0-11 5-11 14 0 6.646 3.397 14.1 11 14.1 7.556 0 11.064-7.483 11.064-14.1 0-9-5.127-14-11.064-14z"/><path d="M39 27.9c0 1.1-.9 2-2 2s-2-.9-2-2 .9-2 2-2 2 .9 2 2zm-8 0c0 1.1-.9 2-2 2s-2-.9-2-2 .9-2 2-2 2 .9 2 2z"/><path fill="none" stroke="#000" stroke-linecap="round" stroke-linejoin="round" stroke-width="2" d="M30 36.1c1.9 1 4.1 1 6 0"/><path fill="none" stroke="#000" stroke-width="2" d="M30.5 15.452c-.915-.459-1.5-1.162-1.5-1.952 0-1.38 1.79-2.5 4-2.5s4 1.12 4 2.5c0 .79-.586 1.493-1.5 1.952"/><path fill="none" stroke="#000" stroke-linecap="round" stroke-linejoin="round" stroke-width="2" d="M22 28.5c0-7.5 7-10.5 11-8 4-2.5 11 .5 11 8"/><g fill="none" stroke="#000" stroke-width="2"><path stroke-linecap="round" stroke-linejoin="round" d="M14 58v-3c0-5 5-9 10-9 6 5 12 5 18 0 .502 0 1.003.04 1.5.118"/><path stroke-linejoin="round" d="m23.5 46.6.5 7.5h18l.5-7.5"/><path stroke-linecap="round" d="M20 47.1v11"/><path stroke-linecap="round" stroke-linejoin="round" d="M46.2 54.1c-.754-1.671-1.2-3.749-1.2-6h12c0 2.251-.446 4.329-1.2 6"/><path stroke-linejoin="round" d="M41 57.1h20l-2 3H43l-2-3z"/></g></svg>