<svg xmlns="http://www.w3.org/2000/svg" viewBox="0 0 72 72"><ellipse cx="33" cy="29.5" fill="#FCEA2B" rx="12" ry="14.5"/><g fill="#6A462F"><path d="M42.8 15.1c3 5.8 1.3 11.9 1.3 11.9v-.4c-1.8-7.2-3.8-8.6-5-8.7v-.4c1-.5 2.4-1.4 3.5-2.6l.2.2z"/><path d="M43.9 9.7c.8 2.2.1 3.9-1.2 5.3-1.1 1.2-2.5 2-3.5 2.5-.7.4-1.2.5-1.2.5-5.8 2.2-6.1 1.9-10.6 0 0 0-3.4-2.5-6.2 8.6v.4s-2.2-6.8 2-13.2c3.2-4.9 12.9-2.4 12.9-2.4L39.2 9l1.1 3.1 3.6-2.4z"/></g><path fill="#3F3F3F" d="M14 59.1v-4c0-5 5-9 10-9 6 5 12 5 18 0 5 0 10 4 10 9v4"/><path fill="#6A462F" fill-rule="evenodd" d="M23.048 46.148a10.49 10.49 0 0 0-3.048.788V59.1h26V46.936c-.826-.35-1.695-.6-2.58-.73l-.92.394-.5 7.5H24l-.5-7.5-.452-.452z" clip-rule="evenodd"/><path fill="#fff" d="M41 57.1h20l-2 3H43l-2-3z"/><g fill="#fff"><path fill-rule="evenodd" d="M51 58.1c3.314 0 6-4.477 6-10H45c0 5.523 2.686 10 6 10z" clip-rule="evenodd"/><path d="M57 48.1h1a1 1 0 0 0-1-1v1zm-12 0v-1a1 1 0 0 0-1 1h1zm11 0c0 2.611-.637 4.927-1.615 6.556-.99 1.65-2.217 2.444-3.385 2.444v2c2.146 0 3.918-1.445 5.1-3.415 1.194-1.99 1.9-4.674 1.9-7.585h-2zm-11 1h12v-2H45v2zm6 8c-1.168 0-2.395-.794-3.385-2.444C46.637 53.028 46 50.712 46 48.1h-2c0 2.911.706 5.596 1.9 7.585 1.182 1.97 2.954 3.415 5.1 3.415v-2z"/></g><path d="M37 24.7c1.1 0 2 .9 2 2s-.9 2-2 2-2-.9-2-2 .9-2 2-2zm-.1 9.8c.2.5 0 1.1-.5 1.3-1.1.6-2.3.8-3.5.8-1.2 0-2.3-.3-3.4-.8-.5-.2-.7-.8-.5-1.3.2-.5.8-.7 1.3-.4 1.7.9 3.4.9 5.1 0 .6-.3 1.2-.1 1.5.4z"/><path fill="none" stroke="#000" stroke-linecap="round" stroke-linejoin="round" stroke-width="1.6" d="M33 32s1.2-2 3.6 0c.372.379.86.62 1.387.688m-5-.688s-1.2-2-3.6 0c-.372.379-.86.62-1.387.688"/><path d="M29 24.7c1.1 0 2 .9 2 2s-.9 2-2 2-2-.9-2-2 .9-2 2-2z"/><path fill="none" stroke="#000" stroke-linecap="round" stroke-linejoin="round" stroke-miterlimit="10" stroke-width="2" d="M21.3 27c0 .4 0 1.4-.1 2.4-.2 3.1.4 6.2 1.9 8.9.6 1 1.3 2 2.1 2.7 2.8 2.4 5.6 2.5 7.4 2.5M44.2 27c0 .4.1 1.4.1 2.4.2 3.1-.4 6.2-1.9 8.9-.6 1-1.2 2-2.1 2.7-2.8 2.4-5.5 2.5-7.4 2.5h-.3M21.3 27s-2.2-6.8 2-13.2c3.2-4.9 12.9-2.4 12.9-2.4L39.3 9l1.1 3.1 3.4-2.5c.8 2.2.1 3.9-1.2 5.3-1.1 1.2-2.5 2-3.5 2.5-.7.4-1.2.5-1.2.5-5.8 2.2-6.1 1.9-10.6 0 0 0-3.4-2.5-6.2 8.6M39 17.9h.2c1.2.1 3.2 1.5 5 8.7"/><path fill="none" stroke="#000" stroke-linecap="round" stroke-linejoin="round" stroke-miterlimit="10" stroke-width="2" d="M42.8 15.1c3 5.8 1.3 11.9 1.3 11.9"/><g fill="none" stroke="#000" stroke-width="2"><path stroke-linecap="round" stroke-linejoin="round" d="M14 58v-3c0-5 5-9 10-9 6 5 12 5 18 0 .502 0 1.003.04 1.5.118"/><path stroke-linejoin="round" d="m23.5 46.6.5 7.5h18l.5-7.5"/><path stroke-linecap="round" d="M20 47.1v11"/><path stroke-linecap="round" stroke-linejoin="round" d="M46.2 54.1c-.754-1.671-1.2-3.749-1.2-6h12c0 2.251-.446 4.329-1.2 6"/><path stroke-linejoin="round" d="M41 57.1h20l-2 3H43l-2-3z"/></g></svg>