<svg xmlns="http://www.w3.org/2000/svg" viewBox="0 0 72 72"><path fill="#EA5A47" d="M19.95 25.538s-2.58 1.549-3.155 4.096 0 5.336 0 5.336-4.046 1.669-4.046 6.918 3.413 6.733 3.413 6.733.04 6.195 3.859 9.536c3.819 3.341 7.826 3.357 7.826 3.357s2.084 4.408 8.215 4.408 8.216-4.408 8.216-4.408 4.15-.606 7.826-3.357c3.676-2.75 3.575-9.536 3.575-9.536s3.697-1.483 3.697-6.733-4.047-6.917-4.047-6.917.577-2.79 0-5.337-3.155-4.096-3.155-4.096"/><path fill="#EA5A47" d="M55.448 33.428c0-10.719-8.69-13.738-19.408-13.738s-19.408 3.02-19.408 13.738 8.69 19.408 19.408 19.408 19.408-8.69 19.408-19.408z"/><path fill="#D22F27" d="M36.657 65.908s5.248-3.67 4.905-12.111c2.257-2.348 2.957-5.503.907-9.337 3.463-4.936 3.103-10.276-1.04-14.324 1.707-2.464.814-4.598-1.116-6.201 0 0 5.555 2.724 9.81-1.171 0 0 8.943 6.43 5.206 12.207 0 0 9.874 6.673.35 13.65 0 0 1.391 10.635-11.16 12.85 0 0-3.304 3.74-7.862 4.437z"/><path fill="#B1CC33" d="M55.78 11.262c-4.27 19.927-17.375 13.133-19.156 9.629-1.78-3.505-.06-17.458 19.156-9.63z"/><path fill="#B1CC33" d="M16.344 11.262c4.27 19.927 17.375 13.133 19.156 9.629 1.78-3.505.06-17.458-19.156-9.63z"/><g fill="none" stroke="#000" stroke-linecap="round" stroke-linejoin="round" stroke-miterlimit="10" stroke-width="2"><path d="M55.78 11.262c-4.27 19.927-17.375 13.133-19.156 9.629-1.78-3.505-.06-17.458 19.156-9.63z"/><path d="M45.572 15.294c-3.13 1.202-7.139 3.135-8.915 5.655m-20.313-9.687c4.27 19.927 17.375 13.133 19.156 9.629 1.78-3.505.06-17.458-19.156-9.63z"/><path d="M26.552 15.294c3.131 1.202 7.139 3.135 8.915 5.655M19.95 25.538s-2.58 1.549-3.155 4.096 0 5.336 0 5.336-4.046 1.669-4.046 6.918 3.413 6.733 3.413 6.733.04 6.195 3.859 9.536c3.819 3.341 7.826 3.357 7.826 3.357s2.084 4.408 8.215 4.408 8.216-4.408 8.216-4.408 4.15-.606 7.826-3.357c3.676-2.75 3.575-9.536 3.575-9.536s3.697-1.483 3.697-6.733-4.047-6.917-4.047-6.917.577-2.79 0-5.337-3.155-4.096-3.155-4.096"/><path d="M42.243 29.475s-2.616 2.767-5.844 2.767m-6.067-2.767s2.616 2.767 5.844 2.767m13.886 7.282c0 2.892-2.482 5.236-5.543 5.236m-5.756-5.236c0 2.892 2.482 5.236 5.543 5.236m-10.423-5.236c0 2.892-2.482 5.236-5.544 5.236m-5.756-5.236c0 2.892 2.482 5.236 5.544 5.236m13.778 9.102c-1.044 1.389-3.16 2.339-5.601 2.339m-5.963-2.509c.995 1.48 3.183 2.509 5.722 2.509M30.29 54.05c0 1.24-.769 2.359-1.998 3.144m13.673-3.144c0 1.353.913 2.56 2.341 3.348"/><path d="M23.411 42.672c0 2.366-1.661 4.365-3.942 5.014m5.543-18.246c0 3.095-2.482 5.605-5.544 5.605m26.905-5.605c0 3.095 2.482 5.605 5.544 5.605m-2.666 7.627c0 2.26 1.516 4.185 3.64 4.92"/></g></svg>