<svg xmlns="http://www.w3.org/2000/svg" viewBox="0 0 72 72"><g fill="#9B9B9A"><path d="M36.022 12.932c-12.696 0-22.988 10.291-22.988 22.987s10.292 22.988 22.988 22.988 22.987-10.292 22.987-22.988-10.292-22.987-22.987-22.987zm0 37.951c-8.265 0-14.965-6.7-14.965-14.964s6.7-14.964 14.965-14.964 14.964 6.7 14.964 14.964-6.7 14.964-14.964 14.964z"/><path d="M31.529 7.661h8.982v11.19h-8.982zm0 45.408h8.982v11.19h-8.982zm-12.66-21.658v8.982H7.679v-8.982zm45.44 0v8.982h-11.19v-8.982z"/></g><g fill="none" stroke="#000" stroke-linecap="round" stroke-linejoin="round" stroke-miterlimit="10" stroke-width="2"><path d="M58.874 31.433c-1.784-9.063-9.333-16.482-18.373-18.332m.001 45.715c9.127-1.79 16.577-9.298 18.373-18.423m-45.755 0c1.783 9.116 9.316 16.61 18.422 18.423m0-45.715c-9.07 1.805-16.604 9.267-18.422 18.332"/><circle cx="36.022" cy="35.919" r="15"/><path d="M31.542 13.101V8.66m8.96 4.441V8.66m-8.96 54.598v-4.442m8.96 4.442v-4.442m18.372-27.383h4.442m-4.442 8.96h4.442m-54.637-8.96h4.441m-4.441 8.96h4.441"/></g></svg>