<svg xmlns="http://www.w3.org/2000/svg" viewBox="0 0 72 72"><g fill="#FCEA2B"><circle cx="51.905" cy="16.914" r="4.002"/><path d="m52.26 26.163-3.344 9.37-1.277 1.832 3.664 6.219.94.85 1.911 4.255.421 16.927s-.496 3.126-4.338 2.11l-1.503-15.444-6.508-6.73-6.89 6.254-13.651 6.762-1.841-2.032 6.063-4.508 5.302-3.651 4.096-6.445 4.603-10 4.73-8.953 3.715-.953 2.794 2.096 1.112 2.041z"/></g><g fill="none" stroke="#000" stroke-linecap="round" stroke-linejoin="round" stroke-miterlimit="10" stroke-width="2"><path d="M51.563 13.93a3.002 3.002 0 0 0-2.661 2.981 3.002 3.002 0 0 0 2.575 2.97m-.78 46.936-1.585-13.014c-.133-1.092-.878-2.622-1.656-3.4l-3.171-3.171a53.387 53.387 0 0 0-2.95-2.695l-2.928-2.44c-.845-.704-1.536-2.18-1.536-3.28h0c0-1.1.43-2.79.957-3.756l5.043-9.244m5.152 9.36-.576 1.32c-.317.726-.093 2.08.497 3.008l3.42 5.372"/><path d="m36.87 39.818-5.852 8.361c-.631.901-1.922 2.096-2.87 2.655L21.426 54.8c-.947.559-1.497 1.691-1.222 2.516.275.825 1.332 1.158 2.35.74l8.467-3.48c1.017-.417 2.522-1.357 3.344-2.088l7.506-6.672m.999-19.999c2-4 4.36-4.232 6.032-3.583 1.638.637 2.415 2.238 2.369 3.834m-3.52.848 3.666 5.485m3.561-27.535V66.84M14.225 20.9h19.373m-4.514-4.824 4.816 4.815m-4.816 4.854L33.9 20.93"/></g></svg>