<svg xmlns="http://www.w3.org/2000/svg" viewBox="0 0 72 72"><path fill="#9B9B9A" d="M16.05 54.946a3.008 3.008 0 0 1-3.008-3.009v-8.862l-.002-3.407c0-.211.247-.326.408-.19l3.78 3.3a.752.752 0 0 0 .484.177h23.28A3.008 3.008 0 0 1 44 45.963v5.974a3.008 3.008 0 0 1-3.008 3.008H16.05z"/><path fill="#D0CFCE" d="M58.647 32.468a.25.25 0 0 0 .41-.191V20.018a3.024 3.024 0 0 0-3.024-3.024H31.122a3.024 3.024 0 0 0-3.024 3.024v6.006a3.024 3.024 0 0 0 3.024 3.024h23.33c.178 0 .35.063.487.178l3.708 3.242z"/><g fill="#FCEA2B"><circle cx="13.02" cy="20.122" r="3"/><circle cx="59.08" cy="42.036" r="3"/><path d="m7.456 30.226 3.082-2.714 4.834-.198 2.968 2.828.685 3.98-12.081-.008zM53.58 52.143l3.081-2.714 4.834-.198 2.969 2.827.684 3.98-12.081-.008z"/></g><g fill="none" stroke="#000" stroke-miterlimit="10" stroke-width="2"><circle cx="13.02" cy="20.122" r="3"/><path stroke-linecap="round" stroke-linejoin="round" d="M7.02 33.122s1-4.31 3-5.31 4-1 6 0 3 5.31 3 5.31"/><circle cx="59.08" cy="42.036" r="3"/><path stroke-linecap="round" stroke-linejoin="round" d="M53.08 55.036s1-4.31 3-5.31 4-1 6 0 3 5.31 3 5.31"/><path d="M16.05 54.946a3.008 3.008 0 0 1-3.008-3.009v-8.862l-.002-3.407c0-.211.247-.326.408-.19l3.78 3.3a.752.752 0 0 0 .484.177h23.28A3.008 3.008 0 0 1 44 45.963v5.974a3.008 3.008 0 0 1-3.008 3.008H16.05zm42.597-22.478a.25.25 0 0 0 .41-.191V20.018a3.024 3.024 0 0 0-3.024-3.024H31.122a3.024 3.024 0 0 0-3.024 3.024v6.006a3.024 3.024 0 0 0 3.024 3.024h23.33c.178 0 .35.063.487.178l3.708 3.242z"/></g></svg>