<svg xmlns="http://www.w3.org/2000/svg" viewBox="0 0 72 72"><path fill="#fff" d="m67 19.671-4.361-.75-3.601-.854-5.899.354-15.625-2.375-12.583 3.459v16.5l2.667-2.25 1 5.375 2 1.875 1.125 2.666v4.542l3.541 2.917.417 5.541L67 57"/><path fill="#92d3f5" d="M4 57h64v11H4z"/><g fill="none" stroke="#000" stroke-linecap="round" stroke-linejoin="round" stroke-width="2"><path d="m37.889 22.838 1.5 5.958-1.5 5.219 1.5 2.906 1 6.25M67 34.432l-10.111-1.427-5.25 1.666v4.875l1.5 4.75-.25 4.125-1.25 5.375 1.25 2.875M5 57h62"/><path d="m60.264 39.296 1.125 4.75-.945 5.011m-24.763 7.614-.417-5.541-3.541-2.917v-4.542l-1.125-2.666-2-1.875-1-5.375-2.667 2.25v-16.5l12.583-3.459 15.625 2.375 5.899-.354 3.601.854 4.361.75"/></g></svg>