<svg xmlns="http://www.w3.org/2000/svg" viewBox="0 0 72 72"><path fill="#FFF" d="m27.002 33.653-1.17.637-3.292 1.792c-4.936 2.67-6.773 8.836-4.103 13.772s8.836 6.773 13.772 4.103l.048-.026 18.486-10.064c6.693-3.634 9.173-12.006 5.54-18.699-3.635-6.693-12.006-9.173-18.7-5.539a13.79 13.79 0 0 0-6.874 9.097 7.358 7.358 0 0 1-3.707 4.927z"/><path fill="#EA5A47" d="M33.63 29.53c.986-3.042 2.393-5.747 5.314-7.337 6.275-3.437 14.45-.049 15.987 7.67.91 4.578-1.426 9.195-5.525 11.426l-.05.028L30.868 51.38c-4.198 2.302-9.676.02-10.672-5.169-.583-3.033.978-6.082 3.691-7.559l.04-.021-.319-.833 5.803-3.213a5.37 5.37 0 0 0 1.525-1.262l2.692-3.794z"/><circle cx="44.15" cy="31.755" r="3.629" fill="#FFF"/><path fill="#D0CFCE" d="M32.68 45.164s-2.218-2.102-4.269-4.153c-1.538-1.538-2.036-2.97-1.757-4.024L11.877 22.24a1.47 1.47 0 1 1 2.077-2.078l14.338 15.18c1.053-.284 2.49.214 4.032 1.756 2.05 2.05 4.153 4.268 4.153 4.268"/><g fill="none" stroke="#000" stroke-linecap="round" stroke-linejoin="round"><g stroke-width="2"><path d="M31.779 33.897a10.439 10.439 0 0 0 1.576-3.477c1.003-3.399 2.386-6.483 5.59-8.227 5.273-2.89 11.89-.956 14.779 4.317 2.889 5.273.956 11.89-4.317 14.779l-.051.028L30.869 51.38a7.258 7.258 0 1 1-6.98-12.728l.039-.021"/><path d="M22.54 36.082c-4.936 2.67-6.773 8.836-4.103 13.772s8.836 6.773 13.772 4.103l.048-.026 18.486-10.064c6.693-3.634 9.173-12.006 5.54-18.699-3.635-6.693-12.006-9.173-18.7-5.539a13.79 13.79 0 0 0-6.874 9.097 7.255 7.255 0 0 1-2.161 3.811"/><circle cx="44.15" cy="31.755" r="3.629"/></g><path stroke-width="1.8" d="M11.777 22.34a1.47 1.47 0 1 1 2.077-2.078h0l14.338 15.18h0c1.053-.284 2.49.214 4.032 1.756 2.05 2.05 4.153 4.268 4.153 4.268m-9.823-4.379L11.777 22.34M32.58 45.264s-2.218-2.102-4.269-4.153c-1.538-1.538-2.036-2.97-1.757-4.023m7.924 6.277-4.979-4.979"/></g></svg>