<svg xmlns="http://www.w3.org/2000/svg" viewBox="0 0 72 72"><path fill="#61B2E4" d="M68 44.774c-8 0-11.113 3-16.113 3s-10-3-16-3-10 3-16 3-12.887-3-15.887-3V68h64V44.774z"/><g fill="none" stroke="#000" stroke-linecap="round" stroke-width="2"><path stroke-linejoin="round" d="M4.887 44.774c3 0 9 3 15 3s10-3 16-3 11 3 16 3 7-3 15-3"/><path stroke-miterlimit="10" d="M18.922 39.556V26.493M13.921 31.107l4.879-5.181a.105.105 0 01.154 0l4.968 5.444M51.538 39.556V26.493M46.538 31.107l4.879-5.181a.105.105 0 01.153 0l4.968 5.444"/></g></svg>