<svg xmlns="http://www.w3.org/2000/svg" viewBox="0 0 72 72"><ellipse cx="35.593" cy="28.277" fill="#f4aa41" rx="11.281" ry="14.358"/><path fill="#f4aa41" d="M55.786 58.975a1.026 1.026 0 0 1-1.026-1.025v-3.077c0-4.565-4.615-9.036-8.872-9.222-6.364 5.141-12.81 5.141-19.178 0-4.262.188-9.899 4.657-9.899 9.222v3.077a1.025 1.025 0 0 1-1.024 1.026h-.001"/><path fill="#d0cfce" d="M43.887 19.363H27.689l-2.958 4.972.907 9.35h20.3l.958-9.066-3.009-5.256z"/><circle cx="35.593" cy="40.578" r="5.128" fill="#3f3f3f"/><circle cx="35.593" cy="40.578" r="1.538" fill="#d0cfce"/><path fill="#fff" d="m33.889 33.75 5.111.088 4.27-14.811-5.11-.088-4.271 14.811z"/><ellipse cx="44.545" cy="38.517" fill="#d22f27" rx="3.086" ry="2.061" transform="rotate(-50 44.545 38.517)"/><ellipse cx="26.558" cy="38.517" fill="#d22f27" rx="2.061" ry="3.086" transform="rotate(-40 26.558 38.517)"/><path fill="none" stroke="#000" stroke-linecap="round" stroke-linejoin="round" stroke-width="2" d="M16.302 57.892v-3.077c0-5.122 5.136-9.23 10.256-9.23q9.23 7.692 18.46 0c5.121 0 10.255 4.108 10.255 9.23v3.077M27.689 18.338h16.197M25.638 33.685h20.3m-19.38 11.9V57.95"/><circle cx="35.593" cy="40.578" r="5.128" fill="none" stroke="#000" stroke-linecap="round" stroke-linejoin="round" stroke-width="2"/><ellipse cx="44.545" cy="38.517" fill="none" stroke="#000" stroke-linecap="round" stroke-linejoin="round" stroke-width="2" rx="3.086" ry="2.061" transform="rotate(-50 44.545 38.517)"/><ellipse cx="26.558" cy="38.517" fill="none" stroke="#000" stroke-linecap="round" stroke-linejoin="round" stroke-width="2" rx="2.061" ry="3.086" transform="rotate(-40 26.558 38.517)"/><path fill="none" stroke="#000" stroke-linecap="round" stroke-linejoin="round" stroke-width="2" d="M26.037 35.664a17.243 17.243 0 0 1-1.597-7.387c0-3.369.975-7.565 3.077-10.255a9.755 9.755 0 0 1 .861-.968 10.887 10.887 0 0 1 7.343-2.878h.065a10.887 10.887 0 0 1 7.343 2.878 9.755 9.755 0 0 1 .861.968c2.102 2.69 3.077 6.886 3.077 10.255a17.245 17.245 0 0 1-1.593 7.38"/><circle cx="47.067" cy="51.558" r="2.1"/></svg>