<svg xmlns="http://www.w3.org/2000/svg" viewBox="0 0 72 72"><path fill="#9b9b9a" d="M39 30l5-5v-3H28v3l5 5h6z"/><path fill="#d0cfce" d="M33 20h6v10h-6z"/><path fill="#9b9b9a" d="M39 30l7 8v19a10 10 0 01-20 0V38l7-8z"/><path fill="#d0cfce" d="M36 67a10 10 0 01-10-10V38l7-8h6l3 8v19c0 5.523-2.686 10-6 10"/><g stroke="#000" stroke-linecap="round" stroke-linejoin="round"><path fill="none" stroke-width="2" d="M46 57a10 10 0 01-20 0M46 57V38H26v19M33 20h6v10h-6zM26 38l7-8-5-5v-3h4.972M46 38l-7-8 5-5v-3h-4.73M36 15V5M30 7v11M42 7v11"/><path d="M37.006 51.875a.76.76 0 11-.38-.658.76.76 0 01.38.658zM33.206 51.875a3.039 3.039 0 011.52-2.633l-1.52-2.633a6.078 6.078 0 00-3.04 5.266zM37.767 54.508a3.044 3.044 0 01-3.041 0l-1.52 2.633a6.088 6.088 0 006.081 0zM37.767 49.242a3.039 3.039 0 011.52 2.633h3.04a6.078 6.078 0 00-3.04-5.266z"/></g></svg>