<svg xmlns="http://www.w3.org/2000/svg" viewBox="0 0 72 72"><path fill="#EA5A47" d="M15.5 21.903h7.29v3.894H15.5z"/><path fill="#FCEA2B" d="M25.107 21.903h7.29v3.894h-7.29z"/><path fill="#B1CC33" d="M34.714 21.903h7.29v3.894h-7.29z"/><path fill="#D0CFCE" d="M15.5 25.797H56v24.3H15.5z"/><path fill="none" d="M16.4 21.903h5.49a.9.9 0 0 1 .9.9v2.994H15.5v-2.993a.9.9 0 0 1 .9-.901zm9.608 0h5.488a.9.9 0 0 1 .901.9v2.994h-7.29v-2.993a.9.9 0 0 1 .9-.901zm9.607 0h5.488a.9.9 0 0 1 .901.9v2.994h-7.29v-2.993a.9.9 0 0 1 .9-.901zM15.5 25.797H56v24.3H15.5z"/><path fill="#D22F27" d="M30.656 39.273h3.768v3.768h2.652v-3.768h3.768V36.62h-3.768v-3.767h-2.652v3.767h-3.768z"/><path fill="none" d="M15.5 21.903h7.29v3.894H15.5zm9.607 0h7.29v3.894h-7.29zm9.607 0h7.29v3.894h-7.29zM15.5 25.797H56v24.3H15.5z"/><path fill="none" stroke="#000" stroke-linecap="round" stroke-linejoin="round" stroke-width="2" d="M16.4 21.903h5.49a.9.9 0 0 1 .9.9v2.994h0-7.29 0v-2.993a.9.9 0 0 1 .9-.901zm9.608 0h5.488a.9.9 0 0 1 .901.9v2.994h0-7.29 0v-2.993a.9.9 0 0 1 .9-.901zm9.607 0h5.488a.9.9 0 0 1 .901.9v2.994h0-7.29 0v-2.993a.9.9 0 0 1 .9-.901zM15.5 25.797H56v24.3H15.5z"/><path d="M37.076 32.853v3.768h3.767v2.652h-3.767v3.768h-2.652v-3.768h-3.768v-2.652h3.768v-3.768h2.652m0-2h-2.652a2 2 0 0 0-2 2v1.768h-1.768a2 2 0 0 0-2 2v2.652a2 2 0 0 0 2 2h1.768v1.768a2 2 0 0 0 2 2h2.652a2 2 0 0 0 2-2v-1.768h1.767a2 2 0 0 0 2-2v-2.652a2 2 0 0 0-2-2h-1.767v-1.768a2 2 0 0 0-2-2z"/></svg>