<svg xmlns="http://www.w3.org/2000/svg" viewBox="0 0 72 72"><path fill="#fff" d="M46.355 25.522a78.453 78.453 0 0 0-20.71 0 19.993 19.993 0 0 0 0-13.463 81.964 81.964 0 0 0 20.71 0 34.84 34.84 0 0 0 0 13.463z"/><path fill="#d0cfce" d="M46.355 25.522a4.3 4.3 0 0 0-4.66 0 28.096 28.096 0 0 0 0-13.463 4.463 4.463 0 0 0 4.66 0q-.295 6.732 0 13.463z"/><path fill="#fff" d="M50.306 61.536a65.535 65.535 0 0 0-28.611 0 75.3 75.3 0 0 0 0-31.001 68.423 68.423 0 0 0 28.61 0 132.91 132.91 0 0 0 0 31.001z"/><path fill="#d0cfce" d="M50.306 61.536q-3.093-3.16-6.44 0a106.836 106.836 0 0 0 0-31.001c2.076 2.061 4.226 1.97 6.44 0q-.409 15.5 0 31.001z"/><path fill="none" stroke="#000" stroke-linecap="round" stroke-linejoin="round" stroke-width="2" d="M46.355 25.522a78.453 78.453 0 0 0-20.71 0 19.993 19.993 0 0 0 0-13.463 81.964 81.964 0 0 0 20.71 0 34.84 34.84 0 0 0 0 13.463zm3.951 36.014a65.535 65.535 0 0 0-28.611 0 75.3 75.3 0 0 0 0-31.001 68.423 68.423 0 0 0 28.61 0 132.91 132.91 0 0 0 0 31.001z"/></svg>