<svg xmlns="http://www.w3.org/2000/svg" viewBox="0 0 72 72"><circle cx="36.144" cy="39.651" r="8.896" fill="#a57939"/><ellipse cx="36" cy="39.921" fill="none" stroke="#000" stroke-linecap="round" stroke-linejoin="round" stroke-width="2" rx="20" ry="11.737"/><circle cx="36.144" cy="39.651" r="4.85"/><circle cx="36.144" cy="39.651" r="4.85" fill="none"/><circle cx="36.144" cy="39.651" r="8.896" fill="none" stroke="#000" stroke-linecap="round" stroke-linejoin="round" stroke-width="2"/><path fill="none" stroke="#000" stroke-linecap="round" stroke-linejoin="round" stroke-width="2" d="m43.135 24.35 1.983-4.037 2.026 2.152 2.491-5.072m-25.319-1.134 2.333 3.845-2.904.549 2.93 4.83m9.805-2.801-.19-4.494-2.721 1.154-.238-5.646"/><path fill="none" stroke="#d22f27" stroke-linecap="round" stroke-linejoin="round" stroke-width="2" d="m43.135 24.35 1.983-4.037 2.026 2.152 2.491-5.072m-25.319-1.134 2.333 3.845-2.904.549 2.93 4.83m9.805-2.801-.19-4.494-2.721 1.154-.238-5.646"/></svg>