<svg xmlns="http://www.w3.org/2000/svg" viewBox="0 0 72 72"><path fill="#b1cc33" d="M54.775 61.298s2-14.02-10-14.02c-3.192 2.128-5.927 3.599-9 3.593h.125c-3.074.006-5.808-1.465-9-3.593-12 0-10 14.02-10 14.02"/><path fill="#61b2e4" d="M21.967 47.318h4.288v14.027h-4.288zm22.469 0h4.288v14.027h-4.288z"/><path fill="#61b2e4" d="M21.967 59.66h27.491v1.734H21.967z"/><path fill="#ffa7c0" stroke="#ffa7c0" stroke-miterlimit="10" d="m54.185 42.561.103 2.882a1.681 1.681 0 0 0 2.356 2.36 1.941 1.941 0 0 0 3.881-.133h.001a1.681 1.681 0 0 0 2.359-2.358 1.942 1.942 0 1 0 .135-3.88 1.681 1.681 0 0 0-2.354-2.361h-.005a1.94 1.94 0 0 0-3.879.115l-.015.014c-1.51-1.118-3.772.652-2.618 2.364v.002a1.941 1.941 0 0 0 .136 3.88"/><path fill="#5c9e31" d="M49.85 45.887c1.695 2.075 1.19 5.294 1.19 5.294s-3.253-.148-4.95-2.223-1.19-5.294-1.19-5.294 3.253.15 4.95 2.223z"/><circle cx="58.555" cy="43.024" r="1.89" fill="#d22f27"/><circle cx="58.555" cy="43.024" r="1.89" fill="#d22f27"/><path fill="#a57939" d="M9.579 48.725c6.352-.394 4.558-5.675 4.558-5.675s-5.545-.612-4.558 5.675z"/><path fill="#fcea2b" d="M42.035 22.014c1.45 2.38 4.545 5.566 4.545 8.79 0 7.828-4.418 14.154-10.68 14.154s-10.675-6.146-10.675-13.974c0-1.44 3.561-2.51 6.252-4.936 3.07-2.766 3.279-8.895 10.558-4.034z"/><path fill="#a57939" d="M53.125 41.111c-.69 1.28-1.99 1.3-3.29.66-1.95-.96-1.08-3.55-1.08-3.55-3.6 6.11-7.12 4.82-7.15 4.81 4.58-1.82 4.659-7.965 4.659-14.295 0-2.94-1.84-4.093-3.07-6.353l-1.58-1.372-1.28-.5-.79.16-.67-.42-1.73-.15-.78-.02-1.76.23-.662 2.76-4.609 4.253s-3.53 1.038-3.724 1.412c-2.913 5.62.436 12.805 5.006 14.635-.03.01-3.86.96-7.46-5.15 0 0 .88 2.59-1.08 3.55-1.3.64-2.6.62-3.28-.66a2.57 2.57 0 1 1-2.57-2.57c-1.23-.77-1.22-2.11-.45-3.33.78-1.22 1.91-1.69 3.14-.91-4.67-9.1 7.33-17.85 7.33-17.85l7.79-2.66 2.15.16 1.29.24h1.33l6.86 2.26h.39l-.07.24c1.87 1.48 11.22 9.4 7.02 17.61 1.22-.78 2.35-.31 3.13.91.77 1.22.293 2.069-.937 2.839"/><path d="M41.837 29.424a2 2 0 1 1-2-2 2 2 0 0 1 2 2m-8 0a2 2 0 1 1-2-2 2 2 0 0 1 2 2m2 10.002a7.653 7.653 0 0 1-3.447-.858 1 1 0 1 1 .894-1.789 5.378 5.378 0 0 0 5.106 0 1 1 0 0 1 .894 1.79 7.653 7.653 0 0 1-3.447.857z"/><path fill="none" stroke="#000" stroke-linecap="round" stroke-linejoin="round" stroke-width="2" d="M16.895 60.281s-2-13 10-13c3.16 2.09 5.86 3.56 8.88 3.59h.12c3.02-.03 5.73-1.5 8.88-3.59.15 0 .29 0 .43.01m5.85 1.76c4.9 3.55 3.72 11.23 3.72 11.23M21.967 48.23v12.204m27.491-9.518v9.518"/><path fill="none" stroke="#000" stroke-linecap="round" stroke-linejoin="round" stroke-width="2" d="M27.105 47.533v12.901l17.449-.014V47.513M16.223 38.88c-1.223-.775-1.218-2.11-.443-3.333s1.908-1.688 3.131-.913"/><path fill="none" stroke="#000" stroke-linecap="round" stroke-linejoin="round" stroke-width="2" d="M18.791 41.447a2.568 2.568 0 1 1-2.568-2.568M9.579 49.06c6.352-.394 4.558-5.676 4.558-5.676s-5.545-.612-4.558 5.676zm13.578-10.502s.873 2.585-1.079 3.547c-1.298.64-2.605.62-3.287-.658m.12-6.813c-4.662-9.1 7.338-17.851 7.338-17.851s9.708-7.337 19.983.446c2.392 1.811 10.81 9.517 6.768 17.405m0 0a2.498 2.498 0 0 1 3.765 1.936m-5.111 5.598a2.33 2.33 0 0 1-1.82-.062c-1.952-.963-1.08-3.548-1.08-3.548"/><path fill="none" stroke="#000" stroke-linecap="round" stroke-linejoin="round" stroke-width="2" d="M35.715 19.791c5.82 0 10.55 5.63 10.55 12.58s-4.73 12.59-10.55 12.59c-5.83 0-10.55-5.64-10.55-12.59a14.982 14.982 0 0 1 .29-2.95M49.85 45.887c1.695 2.075 1.19 5.294 1.19 5.294s-3.253-.148-4.95-2.223-1.19-5.294-1.19-5.294 3.253.15 4.95 2.223zm4.001 4.502c-1.46 1.507-2.36 5.579-1.575 10.034m4.305-22.189a2.124 2.124 0 1 1 4.245-.147m2.433 6.825a2.124 2.124 0 1 0 .147-4.245m0 0a1.84 1.84 0 0 0-2.58-2.58m-.148 9.404a1.84 1.84 0 0 0 2.58-2.58m-2.581 2.579a2.124 2.124 0 0 1-4.245.147"/><path fill="none" stroke="#000" stroke-linecap="round" stroke-linejoin="round" stroke-width="2" d="M53.855 45.055a1.84 1.84 0 0 0 2.58 2.58m.146-9.401c-1.653-1.244-4.144.7-2.879 2.578m.149 4.247a2.124 2.124 0 0 1-.147-4.246"/><circle cx="58.555" cy="43.024" r="1.89" fill="none" stroke="#000" stroke-miterlimit="10" stroke-width="1.5"/><path fill="none" stroke="#000" stroke-linecap="round" stroke-linejoin="round" stroke-width="2" d="M25.452 29.424s5.13-2.638 10.26-9.636h0"/></svg>