<svg xmlns="http://www.w3.org/2000/svg" viewBox="0 0 72 72"><g stroke-width=".626"><path fill="#a57939" d="M40.622 11.475l.055-3.526-9.073.027-.03 3.398 1.437 1.903a3.286 3.286 0 01.64 1.98l-.065 27.668h4.654l.26-27.492a3.233 3.233 0 01.833-2.167z"/><path fill="#d0cfce" d="M35.995 43.467V63.49c-2.305-.02-4.794-1.084-7.365-2.609l-.247-17.418z"/><path fill="#9b9b9a" d="M43.605 43.467V61l-7.613 2.831V43.467z"/></g><g fill="none"><path stroke="#000" stroke-linecap="round" stroke-linejoin="round" stroke-width="2" d="M40.8 11.51l.057-3.538-9.34.027-.03 3.41 1.478 1.91a3.383 3.297 0 01.66 1.985l-.068 27.75h4.792l.268-27.58a3.328 3.243 0 01.857-2.174z"/><path d="M36.16 43.43l-.004 20.27s-6.522-.663-7.042-1.74c-.52-1.077-.583-18.33-.583-18.33z"/><path d="M43.45 43.82l.077 17.61s-6.788 3.69-7.303 2.612c-.02-1.633-.483-20.46-.483-20.46z"/><path stroke="#000" stroke-linecap="round" stroke-linejoin="round" stroke-width="2" d="M43.61 61.02V43.48l-15.23.001.247 17.42.506.466c3.928 3.495 9.924 3.555 13.92.138z"/><path stroke="#000" stroke-linecap="round" stroke-linejoin="round" stroke-width="2" d="M31.84 43.48l2.733 6.094c.653.965 2.095.998 2.793.063l2.801-6.157"/></g></svg>