<svg xmlns="http://www.w3.org/2000/svg" viewBox="0 0 72 72"><path fill="#9b9b9a" d="m7.95 17.47 18.13-4.237s.217 2.51.541 4.237a19.196 19.196 0 0 0 3.561 6.474c.756.54-7.482 11.88-10.24 12.42-4.92.954-13.4-18.33-11.99-18.89z"/><path fill="#a57939" d="M36.41 23.25c-1.189.792-2.352.923-1.771 2.228a7.128 7.128 0 0 1 .434 1.297c.501 2.172 1.503 3.675 5.345 5.847 3.412 1.929 10.38 15.58 11.9 18.61a2.94 2.94 0 0 1 .31 1.257l.13 5.842a2.963 2.963 0 0 0 .663 1.803l1.863 2.293a2.963 2.963 0 0 0 4.132.46l3.502-2.757a2.963 2.963 0 0 0 .703-3.86l-21.27-35.2c-.873-1.445-.81-1.416-2.215-.48z"/><rect width="13.63" height="13.53" x="14.18" y="24.84" fill="#d0cfce" rx="2.359" ry="2.359" transform="rotate(-30)"/><g fill="none"><path d="m8.252 17.56 18.03-4.217s.216 2.499.539 4.217a19.09 19.1 0 0 0 3.542 6.444c.75.537-7.393 12.25-10.18 12.36-2.79.107-11.93-18.8-11.93-18.8z"/><path stroke="#000" stroke-linecap="round" stroke-linejoin="round" stroke-width="2" d="M34.66 24.76c-.04.204-.002.45.138.767a7.1 7.1 0 0 1 .432 1.29c.499 2.163 1.495 3.659 5.317 5.82 3.394 1.919 10.32 15.51 11.83 18.53.195.388.3.816.31 1.25l.128 5.815a2.95 2.95 0 0 0 .66 1.794l1.852 2.283a2.946 2.946 0 0 0 4.11.457l3.483-2.744a2.95 2.95 0 0 0 .7-3.842L42.48 21.44c-.315-.52-.525-.808-.732-.918"/><rect width="13.56" height="13.46" x="14.32" y="25.04" stroke="#000" stroke-linecap="round" stroke-linejoin="round" stroke-width="2" rx="2.359" ry="2.359" transform="rotate(-30.014) skewX(-.028)"/><path stroke="#000" stroke-linecap="round" stroke-linejoin="round" stroke-width="2" d="m31.02 24.98-9.465 11.24c-3.463 4.049-17.14-17.64-12.65-19.27l17.34-3.026"/></g></svg>