<svg xmlns="http://www.w3.org/2000/svg" viewBox="0 0 72 72"><path fill="#d0cfce" d="m36.618 53.888.693-4.599-4.691-.17 1.823-3.654-5.032.007 1.892-4.349-4.17.01 2.292-3.745-4.311.495 2.283-4.371-4.133-.141 1.698-4.163-4.32.423 1.974-4.607-4.745.742 2.577-4.469-5.03 1.028 2.428-4.61-5.156.403 2.276-4.428-3.894-.99 6.17-4.767 32.365 31.711-4.1 8.404-8.35 6.28"/><path fill="#a57939" d="m37.66 55.14 8.843-6.969 10.24-.829 3.836 3.994c.81.779.003 2.209-.902 2.875l-12.89 9.488a1.783 1.783 0 0 1-2.447-.32l-6.676-8.24"/><g stroke="#000" stroke-linecap="round" stroke-linejoin="round" stroke-width="2"><path fill="none" d="m37.66 55.14.145-5.113-4.704-.174 2.129-4.509-5.047.016 2.164-4.04-4.638.23 2.033-4.019-4.323.492 1.982-4.506-4.735.267 2.296-4.566-4.853.63 2.17-4.637-4.747.67 2.442-4.36-4.543.814 2.332-4.353-5.063.143 2.273-4.419-5.385-.06 7.644-5.7 32.42 31.72 7.138 7.683"/><path fill="none" d="m37.66 55.14 8.158-6.568 10.97-1.225 3.843 3.993c.81.78.003 2.209-.904 2.875l-12.91 9.489a1.79 1.79 0 0 1-2.452-.319l-5.554-6.892z"/><path stroke-miterlimit="10" d="m49.62 39.67-3.798 8.911 10.92-1.229s-3.572-4.236-7.124-7.682zm1.288 8.282c-2.51.28-4.118-2.596-2.561-4.581 1.557-1.985 4.75-1.119 5.07 1.382.201 1.574-.931 3.007-2.509 3.199z"/></g></svg>