<?xml version="1.0" encoding="utf-8"?><svg viewBox="0 0 36 36" xmlns="http://www.w3.org/2000/svg" xmlns:xlink="http://www.w3.org/1999/xlink"><style>:root>svg{display:none}:root>svg:target{display:block}</style><svg viewBox="0 0 36 36" id="1F503" xmlns="http://www.w3.org/2000/svg"><path fill="#3B88C3" d="M4 36a4 4 0 0 1-4-4V4a4 4 0 0 1 4-4h28a4 4 0 0 1 4 4v28a4 4 0 0 1-4 4H4z"/><path fill="#FFF" d="m26 30.2 6-7.2h-4v-8c0-5.523-4.477-10-10-10a9.949 9.949 0 0 0-3.977.827l2.75 3.3A5.999 5.999 0 0 1 24 15v8h-4l6 7.2zm-4.023-.026-2.749-3.301A6 6 0 0 1 12 21v-8h4l-6-7.2L4 13h4v8c0 5.522 4.477 10 10 10a9.965 9.965 0 0 0 3.977-.826z"/></svg><svg viewBox="0 0 36 36" id="1F504" xmlns="http://www.w3.org/2000/svg"><path fill="#3B88C3" d="M36 32a4 4 0 0 1-4 4H4a4 4 0 0 1-4-4V4a4 4 0 0 1 4-4h28a4 4 0 0 1 4 4v28z"/><path fill="#FFF" d="m22.242 22.242 2.829 2.829c-3.905 3.905-10.237 3.904-14.143-.001a9.968 9.968 0 0 1-2.854-8.225l-4.037.367c-.215 3.84 1.128 7.752 4.062 10.687 5.467 5.467 14.333 5.468 19.799 0l2.828 2.828.849-9.334-9.333.849zM27.899 8.1C22.431 2.633 13.568 2.633 8.1 8.1L5.272 5.272l-.849 9.334 9.334-.849-2.829-2.829c3.906-3.905 10.236-3.905 14.142 0a9.975 9.975 0 0 1 2.856 8.226l4.036-.366c.216-3.841-1.128-7.753-4.063-10.688z"/></svg><svg viewBox="0 0 36 36" id="1F519" xmlns="http://www.w3.org/2000/svg"><path fill="#31373D" d="M34 3H12.475V1.128c0-1.046-.74-1.435-1.645-.865L.69 6.652c-.905.57-.922 1.527-.038 2.127l10.215 6.931c.884.602 1.607.235 1.607-.811V13H34a2 2 0 0 0 2-2V5a2 2 0 0 0-2-2zM.024 26.184c0-.727.5-1.137 1.197-1.137H4.13c1.576 0 2.849 1.061 2.849 2.667 0 1.061-.439 1.772-1.409 2.227v.03c1.288.183 2.303 1.258 2.303 2.576 0 2.137-1.424 3.288-3.516 3.288h-3.12c-.697 0-1.212-.439-1.212-1.151v-8.5zm2.273 3.135h1.182c.742 0 1.227-.439 1.227-1.196 0-.713-.561-1.076-1.227-1.076H2.297v2.272zm0 4.516h1.788c.818 0 1.424-.47 1.424-1.318 0-.712-.545-1.197-1.606-1.197H2.297v2.515zm9.217-7.713c.258-.696.85-1.257 1.621-1.257.805 0 1.365.53 1.621 1.257l2.971 8.243c.092.242.121.454.121.561 0 .591-.484 1-1.045 1-.637 0-.955-.333-1.107-.788l-.453-1.424H11.03l-.455 1.409c-.15.47-.469.803-1.09.803-.607 0-1.122-.454-1.122-1.061 0-.242.076-.424.106-.5l3.045-8.243zm.168 5.501h2.879l-1.41-4.395h-.029l-1.44 4.395zm11.378-6.758c1.106 0 3.258.363 3.258 1.696 0 .546-.379 1.016-.94 1.016-.621 0-1.046-.53-2.318-.53-1.879 0-2.849 1.591-2.849 3.439 0 1.803.985 3.349 2.849 3.349 1.272 0 1.788-.637 2.409-.637.682 0 1 .682 1 1.03 0 1.455-2.288 1.788-3.409 1.788-3.076 0-5.212-2.439-5.212-5.576 0-3.151 2.121-5.575 5.212-5.575zm4.471 1.212c0-.621.455-1.121 1.137-1.121.651 0 1.137.424 1.137 1.121v3.273l3.727-3.97c.167-.182.455-.424.879-.424.576 0 1.121.439 1.121 1.091 0 .393-.242.712-.742 1.212l-2.863 2.818 3.5 3.651c.363.364.637.697.637 1.152 0 .712-.562 1.045-1.183 1.045-.44 0-.727-.258-1.151-.712l-3.924-4.243v3.864c0 .591-.455 1.091-1.137 1.091-.651 0-1.137-.424-1.137-1.091v-8.757z"/></svg><svg viewBox="0 0 36 36" id="1F51A" xmlns="http://www.w3.org/2000/svg"><path fill="#31373D" d="M34 3H12.475V1.128c0-1.046-.74-1.434-1.644-.865L.69 6.652c-.905.57-.922 1.527-.038 2.127l10.215 6.931c.884.602 1.607.235 1.607-.811V13H34a2 2 0 0 0 2-2V5a2 2 0 0 0-2-2zM.088 22.915c0-1.03.515-1.791 1.606-1.791h5.108c.989 0 1.462.7 1.462 1.421 0 .7-.495 1.421-1.462 1.421H3.178v3.008h3.378c1.009 0 1.503.699 1.503 1.421 0 .699-.515 1.42-1.503 1.42H3.178v3.131h3.811c.988 0 1.462.701 1.462 1.421 0 .701-.495 1.422-1.462 1.422H1.675c-.906 0-1.586-.617-1.586-1.544v-11.33zm9.419-.309c0-1.029.659-1.606 1.545-1.606.392 0 1.03.31 1.298.68l6.529 8.712h.041v-7.785c0-1.029.659-1.606 1.545-1.606.886 0 1.545.577 1.545 1.606v11.699c0 1.03-.659 1.606-1.545 1.606-.391 0-1.009-.309-1.297-.681l-6.53-8.608h-.041v7.683c0 1.03-.659 1.606-1.544 1.606s-1.545-.576-1.545-1.606v-11.7zm14.239.104c0-.948.659-1.586 1.586-1.586h3.419c4.612 0 7.249 2.965 7.249 7.537 0 4.326-2.801 7.127-7.043 7.127h-3.584c-.68 0-1.627-.37-1.627-1.544V22.71zm3.09 10.235h2.08c2.656 0 3.872-1.957 3.872-4.429 0-2.637-1.235-4.551-4.078-4.551h-1.874v8.98z"/></svg><svg viewBox="0 0 36 36" id="1F51B" xmlns="http://www.w3.org/2000/svg"><path fill="#31373D" d="M35.311 6.652 25.17.263c-.904-.569-1.645-.181-1.645.865V3h-11.05V1.128c0-1.046-.74-1.434-1.644-.865L.689 6.652c-.904.57-.922 1.527-.037 2.127l10.215 6.932c.885.602 1.607.234 1.607-.812V13h11.051v1.899c0 1.046.723 1.413 1.607.811l10.215-6.931c.885-.6.868-1.557-.036-2.127zM.204 27.986c0-4.529 3.048-8.014 7.49-8.014 4.377 0 7.491 3.594 7.491 8.014 0 4.506-3.027 8.014-7.491 8.014-4.42 0-7.49-3.508-7.49-8.014zm11.584 0c0-2.635-1.372-5.01-4.094-5.01-2.721 0-4.094 2.375-4.094 5.01 0 2.656 1.33 5.008 4.094 5.008 2.765 0 4.094-2.351 4.094-5.008zm4.625-6.184c0-1.089.696-1.699 1.632-1.699.415 0 1.089.327 1.373.72l6.902 9.211h.045v-8.231c0-1.089.694-1.699 1.633-1.699.937 0 1.633.61 1.633 1.699V34.17c0 1.088-.696 1.697-1.633 1.697-.415 0-1.067-.326-1.372-.717l-6.903-9.102h-.044v8.121c0 1.088-.697 1.697-1.633 1.697s-1.632-.609-1.632-1.697V21.802zm16.013 12.499c0-.936.762-1.699 1.698-1.699.936 0 1.698.764 1.698 1.699 0 .936-.763 1.699-1.698 1.699a1.702 1.702 0 0 1-1.698-1.699zm.131-12.848c0-.914.673-1.48 1.567-1.48.87 0 1.567.588 1.567 1.48v8.384c0 .894-.697 1.479-1.567 1.479-.895 0-1.567-.564-1.567-1.479v-8.384z"/></svg><svg viewBox="0 0 36 36" id="1F51C" xmlns="http://www.w3.org/2000/svg"><path fill="#31373D" d="M35.311 6.652 25.17.263c-.904-.569-1.645-.181-1.645.865V3H2a2 2 0 0 0-2 2v6a2 2 0 0 0 2 2h21.525v1.899c0 1.046.723 1.413 1.607.811l10.215-6.931c.885-.6.868-1.557-.036-2.127zM6.303 27.263c0 .537-.357 1.018-.921 1.018-.563 0-1.002-.412-1.826-.412-.591 0-1.126.316-1.126.893 0 1.414 4.587.509 4.587 4.052C7.017 34.776 5.396 36 3.501 36c-1.058 0-3.337-.248-3.337-1.539 0-.535.356-.976.92-.976.645 0 1.415.536 2.308.536.907 0 1.401-.509 1.401-1.182 0-1.62-4.588-.645-4.588-3.832 0-1.923 1.58-3.118 3.407-3.118.768.001 2.691.289 2.691 1.374zm1.213 3.681c0-2.855 1.922-5.055 4.725-5.055 2.761 0 4.725 2.268 4.725 5.055 0 2.844-1.91 5.056-4.725 5.056-2.788 0-4.725-2.212-4.725-5.056zm7.307 0c0-1.661-.866-3.159-2.583-3.159s-2.582 1.498-2.582 3.159c0 1.676.838 3.159 2.582 3.159 1.745.001 2.583-1.483 2.583-3.159zm2.615 0c0-2.855 1.923-5.055 4.725-5.055 2.76 0 4.725 2.268 4.725 5.055 0 2.844-1.909 5.056-4.725 5.056-2.789 0-4.725-2.212-4.725-5.056zm7.306 0c0-1.661-.864-3.159-2.581-3.159-1.718 0-2.582 1.498-2.582 3.159 0 1.676.838 3.159 2.582 3.159 1.743.001 2.581-1.483 2.581-3.159zm2.918-3.9c0-.688.44-1.072 1.03-1.072.261 0 .687.206.865.454l4.353 5.81h.028v-5.191c0-.688.439-1.072 1.031-1.072.589 0 1.029.385 1.029 1.072v7.802c0 .688-.44 1.072-1.029 1.072-.263 0-.675-.206-.866-.454l-4.354-5.741h-.027v5.123c0 .688-.44 1.072-1.03 1.072s-1.03-.385-1.03-1.072v-7.803z"/></svg><svg viewBox="0 0 36 36" id="1F51D" xmlns="http://www.w3.org/2000/svg"><path fill="#31373D" d="M25.711 10.867 18.779.652c-.602-.885-1.558-.867-2.127.037l-6.39 10.141c-.569.904-.181 1.644.865 1.644H13V16a2 2 0 0 0 2 2h6a2 2 0 0 0 2-2v-3.525h1.898c1.047 0 1.414-.723.813-1.608zM3.651 23.575H1.438c-.975 0-1.381-.712-1.381-1.401 0-.71.508-1.399 1.381-1.399h7.469c.874 0 1.381.689 1.381 1.399 0 .69-.406 1.401-1.381 1.401H6.696v10.189c0 1.016-.649 1.584-1.522 1.584s-1.522-.568-1.522-1.584V23.575zM10.396 28c0-4.222 2.841-7.471 6.982-7.471 4.079 0 6.983 3.351 6.983 7.471 0 4.201-2.821 7.471-6.983 7.471-4.121 0-6.982-3.27-6.982-7.471zm10.798 0c0-2.456-1.279-4.67-3.816-4.67s-3.816 2.214-3.816 4.67c0 2.476 1.239 4.668 3.816 4.668 2.578 0 3.816-2.192 3.816-4.668zm4.433-5.644c0-.954.569-1.582 1.585-1.582h3.591c2.985 0 5.197 1.947 5.197 4.851 0 2.963-2.293 4.811-5.074 4.811h-2.253v3.329c0 1.016-.649 1.584-1.521 1.584-.874 0-1.524-.568-1.524-1.584V22.356zm3.046 5.4h2.071c1.277 0 2.089-.934 2.089-2.151 0-1.219-.812-2.152-2.089-2.152h-2.071v4.303z"/></svg><svg viewBox="0 0 36 36" id="2194" xmlns="http://www.w3.org/2000/svg"><path fill="#3B88C3" d="M36 32a4 4 0 0 1-4 4H4a4 4 0 0 1-4-4V4a4 4 0 0 1 4-4h28a4 4 0 0 1 4 4v28z"/><path fill="#FFF" d="M13 9 3 18l10 9zm20 9L23 9v18z"/><path fill="#FFF" d="M12 14h12v8H12z"/></svg><svg viewBox="0 0 36 36" id="2195" xmlns="http://www.w3.org/2000/svg"><path fill="#3B88C3" d="M36 32a4 4 0 0 1-4 4H4a4 4 0 0 1-4-4V4a4 4 0 0 1 4-4h28a4 4 0 0 1 4 4v28z"/><path fill="#FFF" d="M27 13 18 3 9 13zm-9 20 9-10H9z"/><path fill="#FFF" d="M14 12h8v12h-8z"/></svg><svg viewBox="0 0 36 36" id="2196" xmlns="http://www.w3.org/2000/svg"><path fill="#3B88C3" d="M36 32a4 4 0 0 1-4 4H4a4 4 0 0 1-4-4V4a4 4 0 0 1 4-4h28a4 4 0 0 1 4 4v28z"/><path fill="#FFF" d="M9 25V9h16z"/><path fill="#FFF" d="m10.028 15.686 5.657-5.657L29 23.343 23.342 29z"/></svg><svg viewBox="0 0 36 36" id="2197" xmlns="http://www.w3.org/2000/svg"><path fill="#3B88C3" d="M0 32a4 4 0 0 0 4 4h28a4 4 0 0 0 4-4V4a4 4 0 0 0-4-4H4a4 4 0 0 0-4 4v28z"/><path fill="#FFF" d="M27 25V9H11z"/><path fill="#FFF" d="M7 23.343 19.816 10.53l5.656 5.657L12.657 29z"/></svg><svg viewBox="0 0 36 36" id="2198" xmlns="http://www.w3.org/2000/svg"><path fill="#3B88C3" d="M0 4a4 4 0 0 1 4-4h28a4 4 0 0 1 4 4v28a4 4 0 0 1-4 4H4a4 4 0 0 1-4-4V4z"/><path fill="#FFF" d="M27 11v16H11z"/><path fill="#FFF" d="M7 12.657 12.658 7l13.814 13.814-5.656 5.657z"/></svg><svg viewBox="0 0 36 36" id="2199" xmlns="http://www.w3.org/2000/svg"><path fill="#3B88C3" d="M36 4a4 4 0 0 0-4-4H4a4 4 0 0 0-4 4v28a4 4 0 0 0 4 4h28a4 4 0 0 0 4-4V4z"/><path fill="#FFF" d="M9 11v16h16z"/><path fill="#FFF" d="M9.53 20.814 23.343 7 29 12.657 15.186 26.471z"/></svg><svg viewBox="0 0 36 36" id="21A9" xmlns="http://www.w3.org/2000/svg"><path fill="#3B88C3" d="M36 32a4 4 0 0 1-4 4H4a4 4 0 0 1-4-4V4a4 4 0 0 1 4-4h28a4 4 0 0 1 4 4v28z"/><path fill="#FFF" d="M18 5h-8v4h8.01A7 7 0 0 1 18 23h-4v-4l-7.2 6 7.2 6v-4h4c6.074 0 11-4.926 11-11 0-6.075-4.926-11-11-11z"/></svg><svg viewBox="0 0 36 36" id="21AA" xmlns="http://www.w3.org/2000/svg"><path fill="#3B88C3" d="M0 32a4 4 0 0 0 4 4h28a4 4 0 0 0 4-4V4a4 4 0 0 0-4-4H4a4 4 0 0 0-4 4v28z"/><path fill="#FFF" d="M29.2 25 22 19v4h-4a7 7 0 0 1 0-14h8V5h-8C11.926 5 7 9.925 7 16c0 6.074 4.926 11 11 11h4v4l7.2-6z"/></svg><svg viewBox="0 0 36 36" id="27A1" xmlns="http://www.w3.org/2000/svg"><path fill="#3B88C3" d="M36 32a4 4 0 0 1-4 4H4a4 4 0 0 1-4-4V4a4 4 0 0 1 4-4h28a4 4 0 0 1 4 4v28z"/><path fill="#FFF" d="M7 14h9V7l13 11-13 11v-7H7z"/></svg><svg viewBox="0 0 36 36" id="2934" xmlns="http://www.w3.org/2000/svg"><path fill="#3B88C3" d="M36 32a4 4 0 0 1-4 4H4a4 4 0 0 1-4-4V4a4 4 0 0 1 4-4h28a4 4 0 0 1 4 4v28z"/><path fill="#FFF" d="m20.589 5.8 6 7.2H23v7.2c0 5.523-4.683 10-10.206 10-1.414 0-2.861-.298-4.081-.827l2.699-3.3c.396.083.987.127 1.408.127 3.314 0 6.18-2.686 6.18-6V13h-4.411l6-7.2z"/></svg><svg viewBox="0 0 36 36" id="2935" xmlns="http://www.w3.org/2000/svg"><path fill="#3B88C3" d="M36 32a4 4 0 0 1-4 4H4a4 4 0 0 1-4-4V4a4 4 0 0 1 4-4h28a4 4 0 0 1 4 4v28z"/><path fill="#FFF" d="m20.589 30.2 6-7.2H23v-7.611c0-5.523-4.683-10-10.206-10-1.414 0-2.861.297-4.081.827l2.699 3.3a7.861 7.861 0 0 1 1.408-.127c3.314 0 6.18 2.686 6.18 6V23h-4.411l6 7.2z"/></svg><svg viewBox="0 0 36 36" id="2B05" xmlns="http://www.w3.org/2000/svg"><path fill="#3B88C3" d="M36 32a4 4 0 0 1-4 4H4a4 4 0 0 1-4-4V4a4 4 0 0 1 4-4h28a4 4 0 0 1 4 4v28z"/><path fill="#FFF" d="M29 14h-9V7L7 18l13 11v-7h9z"/></svg><svg viewBox="0 0 36 36" id="2B06" xmlns="http://www.w3.org/2000/svg"><path fill="#3B88C3" d="M36 32a4 4 0 0 1-4 4H4a4 4 0 0 1-4-4V4a4 4 0 0 1 4-4h28a4 4 0 0 1 4 4v28z"/><path fill="#FFF" d="M22 29v-9h7L18 7 7 20h7v9z"/></svg><svg viewBox="0 0 36 36" id="2B07" xmlns="http://www.w3.org/2000/svg"><path fill="#3B88C3" d="M36 32a4 4 0 0 1-4 4H4a4 4 0 0 1-4-4V4a4 4 0 0 1 4-4h28a4 4 0 0 1 4 4v28z"/><path fill="#FFF" d="M22 7v9h7L18 29 7 16h7V7z"/></svg></svg>