<?xml version="1.0" encoding="utf-8"?><svg viewBox="0 0 36 36" xmlns="http://www.w3.org/2000/svg" xmlns:xlink="http://www.w3.org/1999/xlink"><style>:root>svg{display:none}:root>svg:target{display:block}</style><svg viewBox="0 0 36 36" id="1F440" xmlns="http://www.w3.org/2000/svg"><ellipse cx="8.828" cy="18" fill="#F5F8FA" rx="7.953" ry="13.281"/><path fill="#E1E8ED" d="M8.828 32.031C3.948 32.031.125 25.868.125 18S3.948 3.969 8.828 3.969 17.531 10.132 17.531 18s-3.823 14.031-8.703 14.031zm0-26.562C4.856 5.469 1.625 11.09 1.625 18s3.231 12.531 7.203 12.531S16.031 24.91 16.031 18 12.8 5.469 8.828 5.469z"/><circle cx="6.594" cy="18" r="4.96" fill="#8899A6"/><circle cx="6.594" cy="18" r="3.565" fill="#292F33"/><circle cx="7.911" cy="15.443" r="1.426" fill="#F5F8FA"/><ellipse cx="27.234" cy="18" fill="#F5F8FA" rx="7.953" ry="13.281"/><path fill="#E1E8ED" d="M27.234 32.031c-4.88 0-8.703-6.163-8.703-14.031s3.823-14.031 8.703-14.031S35.938 10.132 35.938 18s-3.824 14.031-8.704 14.031zm0-26.562c-3.972 0-7.203 5.622-7.203 12.531 0 6.91 3.231 12.531 7.203 12.531S34.438 24.91 34.438 18 31.206 5.469 27.234 5.469z"/><circle cx="25" cy="18" r="4.96" fill="#8899A6"/><circle cx="25" cy="18" r="3.565" fill="#292F33"/><circle cx="26.317" cy="15.443" r="1.426" fill="#F5F8FA"/></svg><svg viewBox="0 0 36 36" id="1F441" xmlns="http://www.w3.org/2000/svg"><path fill="#E1E8ED" d="M35.059 18c0 3.304-7.642 11-17.067 11C8.566 29 .925 22.249.925 18c0-3.314 34.134-3.314 34.134 0z"/><path fill="#292F33" d="M35.059 18H.925c0-3.313 7.642-11 17.067-11s17.067 7.686 17.067 11z"/><path fill="#F5F8FA" d="M33.817 18c0 2.904-7.087 9.667-15.826 9.667-8.74 0-15.825-5.935-15.825-9.667 0-2.912 7.085-9.666 15.825-9.666C26.73 8.333 33.817 15.088 33.817 18z"/><circle cx="18" cy="18" r="8.458" fill="#8B5E3C"/><circle cx="18" cy="18" r="4.708" fill="#292F33"/><circle cx="14.983" cy="15" r="2" fill="#F5F8FA"/></svg><svg viewBox="0 0 36 36" id="1F442" xmlns="http://www.w3.org/2000/svg"><path fill="#FFDC5D" d="M31 14c-1 6-5 8-6 13-1.606 8.034-6.267 9-11 9-7.75 0-3.856-7.568-7-17-3-9-2.716-15.899 7-18 9.25-2 18.634 3.194 17 13z"/><path fill="#EF9645" d="M23.999 22a1 1 0 01-.831-1.555c.491-.737.968-1.34 1.429-1.923C25.992 16.756 27 15.481 27 12c0-2.21-.782-3.975-2.323-5.246-2.193-1.806-5.827-2.486-9.485-1.773-1.861.363-3.194 1.215-4.074 2.604-2.061 3.253-.827 8.243-.814 8.293a1 1 0 11-1.938.492c-.061-.238-1.454-5.883 1.063-9.856 1.174-1.853 2.984-3.029 5.381-3.497 4.227-.825 8.496.015 11.14 2.192C27.944 6.855 29 9.203 29 12c0 4.175-1.377 5.917-2.835 7.763-.436.552-.887 1.122-1.333 1.792a.998.998 0 01-.833.445z"/><path fill="#EF9645" d="M11.585 26.917a1 1 0 01-.896-.553c-.551-1.103-.367-1.995-.116-2.549.545-1.202 1.916-1.935 2.924-2.199 1.997-.668 2.975-3.34 2.442-5.181-.572-1.974-2.651-2.673-5.701-1.922a1 1 0 01-.479-1.941c4.914-1.214 7.407.914 8.1 3.308.798 2.755-.564 6.577-3.794 7.653-.588.156-1.434.585-1.672 1.109-.068.149-.132.396.083.828a1 1 0 01-.891 1.447z"/></svg><svg viewBox="0 0 36 36" id="1F442-1F3FB" xmlns="http://www.w3.org/2000/svg"><path fill="#F7DECE" d="M31 14c-1 6-5 8-6 13-1.606 8.034-6.267 9-11 9-7.75 0-3.856-7.568-7-17-3-9-2.716-15.899 7-18 9.25-2 18.634 3.194 17 13z"/><path fill="#E0AA94" d="M23.999 22a1 1 0 01-.831-1.555c.491-.737.968-1.34 1.429-1.923C25.992 16.756 27 15.481 27 12c0-2.21-.782-3.975-2.323-5.246-2.193-1.806-5.827-2.486-9.485-1.773-1.861.363-3.194 1.215-4.074 2.604-2.061 3.253-.827 8.243-.814 8.293a1 1 0 11-1.938.492c-.061-.238-1.454-5.883 1.063-9.856 1.174-1.853 2.984-3.029 5.381-3.497 4.227-.825 8.496.015 11.14 2.192C27.944 6.855 29 9.203 29 12c0 4.175-1.377 5.917-2.835 7.763-.436.552-.887 1.122-1.333 1.792a.998.998 0 01-.833.445z"/><path fill="#E0AA94" d="M11.585 26.917a1 1 0 01-.896-.553c-.551-1.103-.367-1.995-.116-2.549.545-1.202 1.916-1.935 2.924-2.199 1.997-.668 2.975-3.34 2.442-5.181-.572-1.974-2.651-2.673-5.701-1.922a1 1 0 01-.479-1.941c4.914-1.214 7.407.914 8.1 3.308.798 2.755-.564 6.577-3.794 7.653-.588.156-1.434.585-1.672 1.109-.068.149-.132.396.083.828a1 1 0 01-.891 1.447z"/></svg><svg viewBox="0 0 36 36" id="1F442-1F3FC" xmlns="http://www.w3.org/2000/svg"><path fill="#F3D2A2" d="M31 14c-1 6-5 8-6 13-1.606 8.034-6.267 9-11 9-7.75 0-3.856-7.568-7-17-3-9-2.716-15.899 7-18 9.25-2 18.634 3.194 17 13z"/><path fill="#D2A077" d="M23.999 22a1 1 0 01-.831-1.555c.491-.737.968-1.34 1.429-1.923C25.992 16.756 27 15.481 27 12c0-2.21-.782-3.975-2.323-5.246-2.193-1.806-5.827-2.486-9.485-1.773-1.861.363-3.194 1.215-4.074 2.604-2.061 3.253-.827 8.243-.814 8.293a1 1 0 11-1.938.492c-.061-.238-1.454-5.883 1.063-9.856 1.174-1.853 2.984-3.029 5.381-3.497 4.227-.825 8.496.015 11.14 2.192C27.944 6.855 29 9.203 29 12c0 4.175-1.377 5.917-2.835 7.763-.436.552-.887 1.122-1.333 1.792a.998.998 0 01-.833.445z"/><path fill="#D2A077" d="M11.585 26.917a1 1 0 01-.896-.553c-.551-1.103-.367-1.995-.116-2.549.545-1.202 1.916-1.935 2.924-2.199 1.997-.668 2.975-3.34 2.442-5.181-.572-1.974-2.651-2.673-5.701-1.922a1 1 0 01-.479-1.941c4.914-1.214 7.407.914 8.1 3.308.798 2.755-.564 6.577-3.794 7.653-.588.156-1.434.585-1.672 1.109-.068.149-.132.396.083.828a1 1 0 01-.891 1.447z"/></svg><svg viewBox="0 0 36 36" id="1F442-1F3FD" xmlns="http://www.w3.org/2000/svg"><path fill="#D5AB88" d="M31 14c-1 6-5 8-6 13-1.606 8.034-6.267 9-11 9-7.75 0-3.856-7.568-7-17-3-9-2.716-15.899 7-18 9.25-2 18.634 3.194 17 13z"/><path fill="#B78B60" d="M23.999 22a1 1 0 01-.831-1.555c.491-.737.968-1.34 1.429-1.923C25.992 16.756 27 15.481 27 12c0-2.21-.782-3.975-2.323-5.246-2.193-1.806-5.827-2.486-9.485-1.773-1.861.363-3.194 1.215-4.074 2.604-2.061 3.253-.827 8.243-.814 8.293a1 1 0 11-1.938.492c-.061-.238-1.454-5.883 1.063-9.856 1.174-1.853 2.984-3.029 5.381-3.497 4.227-.825 8.496.015 11.14 2.192C27.944 6.855 29 9.203 29 12c0 4.175-1.377 5.917-2.835 7.763-.436.552-.887 1.122-1.333 1.792a.998.998 0 01-.833.445z"/><path fill="#B78B60" d="M11.585 26.917a1 1 0 01-.896-.553c-.551-1.103-.367-1.995-.116-2.549.545-1.202 1.916-1.935 2.924-2.199 1.997-.668 2.975-3.34 2.442-5.181-.572-1.974-2.651-2.673-5.701-1.922a1 1 0 01-.479-1.941c4.914-1.214 7.407.914 8.1 3.308.798 2.755-.564 6.577-3.794 7.653-.588.156-1.434.585-1.672 1.109-.068.149-.132.396.083.828a1 1 0 01-.891 1.447z"/></svg><svg viewBox="0 0 36 36" id="1F442-1F3FE" xmlns="http://www.w3.org/2000/svg"><path fill="#AF7E57" d="M31 14c-1 6-5 8-6 13-1.606 8.034-6.267 9-11 9-7.75 0-3.856-7.568-7-17-3-9-2.716-15.899 7-18 9.25-2 18.634 3.194 17 13z"/><path fill="#90603E" d="M23.999 22a1 1 0 01-.831-1.555c.491-.737.968-1.34 1.429-1.923C25.992 16.756 27 15.481 27 12c0-2.21-.782-3.975-2.323-5.246-2.193-1.806-5.827-2.486-9.485-1.773-1.861.363-3.194 1.215-4.074 2.604-2.061 3.253-.827 8.243-.814 8.293a1 1 0 11-1.938.492c-.061-.238-1.454-5.883 1.063-9.856 1.174-1.853 2.984-3.029 5.381-3.497 4.227-.825 8.496.015 11.14 2.192C27.944 6.855 29 9.203 29 12c0 4.175-1.377 5.917-2.835 7.763-.436.552-.887 1.122-1.333 1.792a.998.998 0 01-.833.445z"/><path fill="#90603E" d="M11.585 26.917a1 1 0 01-.896-.553c-.551-1.103-.367-1.995-.116-2.549.545-1.202 1.916-1.935 2.924-2.199 1.997-.668 2.975-3.34 2.442-5.181-.572-1.974-2.651-2.673-5.701-1.922a1 1 0 01-.479-1.941c4.914-1.214 7.407.914 8.1 3.308.798 2.755-.564 6.577-3.794 7.653-.588.156-1.434.585-1.672 1.109-.068.149-.132.396.083.828a1 1 0 01-.891 1.447z"/></svg><svg viewBox="0 0 36 36" id="1F442-1F3FF" xmlns="http://www.w3.org/2000/svg"><path fill="#7C533E" d="M31 14c-1 6-5 8-6 13-1.606 8.034-6.267 9-11 9-7.75 0-3.856-7.568-7-17-3-9-2.716-15.899 7-18 9.25-2 18.634 3.194 17 13z"/><path fill="#583529" d="M23.999 22a1 1 0 01-.831-1.555c.491-.737.968-1.34 1.429-1.923C25.992 16.756 27 15.481 27 12c0-2.21-.782-3.975-2.323-5.246-2.193-1.806-5.827-2.486-9.485-1.773-1.861.363-3.194 1.215-4.074 2.604-2.061 3.253-.827 8.243-.814 8.293a1 1 0 11-1.938.492c-.061-.238-1.454-5.883 1.063-9.856 1.174-1.853 2.984-3.029 5.381-3.497 4.227-.825 8.496.015 11.14 2.192C27.944 6.855 29 9.203 29 12c0 4.175-1.377 5.917-2.835 7.763-.436.552-.887 1.122-1.333 1.792a.998.998 0 01-.833.445z"/><path fill="#583529" d="M11.585 26.917a1 1 0 01-.896-.553c-.551-1.103-.367-1.995-.116-2.549.545-1.202 1.916-1.935 2.924-2.199 1.997-.668 2.975-3.34 2.442-5.181-.572-1.974-2.651-2.673-5.701-1.922a1 1 0 01-.479-1.941c4.914-1.214 7.407.914 8.1 3.308.798 2.755-.564 6.577-3.794 7.653-.588.156-1.434.585-1.672 1.109-.068.149-.132.396.083.828a1 1 0 01-.891 1.447z"/></svg><svg viewBox="0 0 36 36" id="1F443" xmlns="http://www.w3.org/2000/svg"><path fill="#FFDC5D" d="M33 29.5c0-2.485-3.134-6.5-7-6.5l-.059.003C25.441 13.749 21.722 0 18 0c-3.657 0-7.311 13.691-7.912 23.004-.028 0-.06-.004-.088-.004-3.866 0-7 4.015-7 6.5 0 2.326 5.257 3.364 9.21 5.128C13.472 35.724 15.342 36 18 36c2.253 0 3.941-.267 5.173-1.081C27.17 32.974 33 31.95 33 29.5z"/><path fill="#EF9645" d="M26 30c.544-.099 2.104-2.421 2.104-4.077 0-2.061-.55-2.667-1.224-2.846A5.579 5.579 0 0026 23c0 1 .137 2 .137 3.278 0 2.722-.681 3.82-.137 3.722zM7.789 25.923c0 1.656 1.561 3.979 2.104 4.077.544.098-.137-1-.137-3.722 0-1.275.136-2.274.137-3.271-.349.007-.691.05-1.026.118-.606.229-1.078.889-1.078 2.798z"/><path fill="#662113" d="M9.008 31.377c-1.562-.455-3.049-.216-3.741.503 1.804.892 4.381 1.648 6.618 2.609l.001-.002c.337-1.155-.951-2.549-2.878-3.11zm17.984 0c-1.927.561-3.215 1.955-2.878 3.11l.002.004c2.237-.961 4.814-1.718 6.617-2.611-.691-.719-2.179-.958-3.741-.503z"/></svg><svg viewBox="0 0 36 36" id="1F443-1F3FB" xmlns="http://www.w3.org/2000/svg"><path fill="#F7DECE" d="M33 29.5c0-2.485-3.134-6.5-7-6.5l-.059.003C25.441 13.749 21.722 0 18 0c-3.657 0-7.311 13.691-7.912 23.004-.028 0-.06-.004-.088-.004-3.866 0-7 4.015-7 6.5 0 2.326 5.257 3.364 9.21 5.128C13.472 35.724 15.342 36 18 36c2.253 0 3.941-.267 5.173-1.081C27.17 32.974 33 31.95 33 29.5z"/><path fill="#D89882" d="M26 30c.544-.099 2.104-2.421 2.104-4.077 0-2.061-.55-2.667-1.224-2.846A5.579 5.579 0 0026 23c0 1 .137 2 .137 3.278 0 2.722-.681 3.82-.137 3.722zM7.789 25.923c0 1.656 1.561 3.979 2.104 4.077.544.098-.137-1-.137-3.722 0-1.275.136-2.274.137-3.271-.349.007-.691.05-1.026.118-.606.229-1.078.889-1.078 2.798z"/><path fill="#662113" d="M9.008 31.377c-1.562-.455-3.049-.216-3.741.503 1.804.892 4.381 1.648 6.618 2.609l.001-.002c.337-1.155-.951-2.549-2.878-3.11zm17.984 0c-1.927.561-3.215 1.955-2.878 3.11l.002.004c2.237-.961 4.814-1.718 6.617-2.611-.691-.719-2.179-.958-3.741-.503z"/></svg><svg viewBox="0 0 36 36" id="1F443-1F3FC" xmlns="http://www.w3.org/2000/svg"><path fill="#F3D2A2" d="M33 29.5c0-2.485-3.134-6.5-7-6.5l-.059.003C25.441 13.749 21.722 0 18 0c-3.657 0-7.311 13.691-7.912 23.004-.028 0-.06-.004-.088-.004-3.866 0-7 4.015-7 6.5 0 2.326 5.257 3.364 9.21 5.128C13.472 35.724 15.342 36 18 36c2.253 0 3.941-.267 5.173-1.081C27.17 32.974 33 31.95 33 29.5z"/><path fill="#C68F6A" d="M26 30c.544-.099 2.104-2.421 2.104-4.077 0-2.061-.55-2.667-1.224-2.846A5.579 5.579 0 0026 23c0 1 .137 2 .137 3.278 0 2.722-.681 3.82-.137 3.722zM7.789 25.923c0 1.656 1.561 3.979 2.104 4.077.544.098-.137-1-.137-3.722 0-1.275.136-2.274.137-3.271-.349.007-.691.05-1.026.118-.606.229-1.078.889-1.078 2.798z"/><path fill="#662113" d="M9.008 31.377c-1.562-.455-3.049-.216-3.741.503 1.804.892 4.381 1.648 6.618 2.609l.001-.002c.337-1.155-.951-2.549-2.878-3.11zm17.984 0c-1.927.561-3.215 1.955-2.878 3.11l.002.004c2.237-.961 4.814-1.718 6.617-2.611-.691-.719-2.179-.958-3.741-.503z"/></svg><svg viewBox="0 0 36 36" id="1F443-1F3FD" xmlns="http://www.w3.org/2000/svg"><path fill="#D5AB88" d="M33 29.5c0-2.485-3.134-6.5-7-6.5l-.059.003C25.441 13.749 21.722 0 18 0c-3.657 0-7.311 13.691-7.912 23.004-.028 0-.06-.004-.088-.004-3.866 0-7 4.015-7 6.5 0 2.326 5.257 3.364 9.21 5.128C13.472 35.724 15.342 36 18 36c2.253 0 3.941-.267 5.173-1.081C27.17 32.974 33 31.95 33 29.5z"/><path fill="#AA8052" d="M26 30c.544-.099 2.104-2.421 2.104-4.077 0-2.061-.55-2.667-1.224-2.846A5.579 5.579 0 0026 23c0 1 .137 2 .137 3.278 0 2.722-.681 3.82-.137 3.722zM7.789 25.923c0 1.656 1.561 3.979 2.104 4.077.544.098-.137-1-.137-3.722 0-1.275.136-2.274.137-3.271-.349.007-.691.05-1.026.118-.606.229-1.078.889-1.078 2.798z"/><path fill="#662113" d="M9.008 31.377c-1.562-.455-3.049-.216-3.741.503 1.804.892 4.381 1.648 6.618 2.609l.001-.002c.337-1.155-.951-2.549-2.878-3.11zm17.984 0c-1.927.561-3.215 1.955-2.878 3.11l.002.004c2.237-.961 4.814-1.718 6.617-2.611-.691-.719-2.179-.958-3.741-.503z"/></svg><svg viewBox="0 0 36 36" id="1F443-1F3FE" xmlns="http://www.w3.org/2000/svg"><path fill="#AF7E57" d="M33 29.5c0-2.485-3.134-6.5-7-6.5l-.059.003C25.441 13.749 21.722 0 18 0c-3.657 0-7.311 13.691-7.912 23.004-.028 0-.06-.004-.088-.004-3.866 0-7 4.015-7 6.5 0 2.326 5.257 3.364 9.21 5.128C13.472 35.724 15.342 36 18 36c2.253 0 3.941-.267 5.173-1.081C27.17 32.974 33 31.95 33 29.5z"/><path fill="#845636" d="M26 30c.544-.099 2.104-2.421 2.104-4.077 0-2.061-.55-2.667-1.224-2.846A5.579 5.579 0 0026 23c0 1 .137 2 .137 3.278 0 2.722-.681 3.82-.137 3.722zM7.789 25.923c0 1.656 1.561 3.979 2.104 4.077.544.098-.137-1-.137-3.722 0-1.275.136-2.274.137-3.271-.349.007-.691.05-1.026.118-.606.229-1.078.889-1.078 2.798z"/><path fill="#60352A" d="M9.008 31.377c-1.562-.455-3.049-.216-3.741.503 1.804.892 4.381 1.648 6.618 2.609l.001-.002c.337-1.155-.951-2.549-2.878-3.11zm17.984 0c-1.927.561-3.215 1.955-2.878 3.11l.002.004c2.237-.961 4.814-1.718 6.617-2.611-.691-.719-2.179-.958-3.741-.503z"/></svg><svg viewBox="0 0 36 36" id="1F443-1F3FF" xmlns="http://www.w3.org/2000/svg"><path fill="#7C533E" d="M33 29.5c0-2.485-3.134-6.5-7-6.5l-.059.003C25.441 13.749 21.722 0 18 0c-3.657 0-7.311 13.691-7.912 23.004-.028 0-.06-.004-.088-.004-3.866 0-7 4.015-7 6.5 0 2.326 5.257 3.364 9.21 5.128C13.472 35.724 15.342 36 18 36c2.253 0 3.941-.267 5.173-1.081C27.17 32.974 33 31.95 33 29.5z"/><path fill="#543226" d="M26 30c.544-.099 2.104-2.421 2.104-4.077 0-2.061-.55-2.667-1.224-2.846A5.579 5.579 0 0026 23c0 1 .137 2 .137 3.278 0 2.722-.681 3.82-.137 3.722zM7.789 25.923c0 1.656 1.561 3.979 2.104 4.077.544.098-.137-1-.137-3.722 0-1.275.136-2.274.137-3.271-.349.007-.691.05-1.026.118-.606.229-1.078.889-1.078 2.798z"/><path d="M9.008 31.377c-1.562-.455-3.049-.216-3.741.503 1.804.892 4.381 1.648 6.618 2.609l.001-.002c.337-1.155-.951-2.549-2.878-3.11zm17.984 0c-1.927.561-3.215 1.955-2.878 3.11l.002.004c2.237-.961 4.814-1.718 6.617-2.611-.691-.719-2.179-.958-3.741-.503z"/></svg><svg viewBox="0 0 36 36" id="1F444" xmlns="http://www.w3.org/2000/svg"><path fill="#E75A70" d="M29 12c-4.688-3.515-6-6-8-6s-2 1-3 1-1-1-3-1-3.313 2.485-8 6c-4 3-7 3-7 5s5 6 8 9c2 2 5 4 10 4s8-2 10-4c3-3 8-7 8-9s-3-2-7-5z"/><path fill="#662113" d="M28.389 15.5C23.963 14.035 21 13.417 18 13.417s-5.962.618-10.389 2.083C3.833 16.75 1 16.167 1 17c0 .834 9 5 17 5s17-4.166 17-5c0-.833-2.834-.25-6.611-1.5z"/><path fill="#FFF" d="M28.389 15.5C23.963 14.035 21 13.417 18 13.417s-5.962.618-10.389 2.083c-3.624 1.199-6.371.715-6.59 1.408 2.454.385 9.119-.644 16.979-.644s14.524 1.029 16.979.644c-.219-.693-2.967-.209-6.59-1.408z"/></svg><svg viewBox="0 0 36 36" id="1F445" xmlns="http://www.w3.org/2000/svg"><path fill="#662113" d="M36 7.5C36 12 27.941 19 18 19S0 12 0 7.5C0 6 3 9 18 9s18-3 18-1.5z"/><path fill="#EA596E" d="M18 11c-6 0-11-1-11-1v12c0 6.075 4.925 11 11 11s11-4.925 11-11V10s-5 1-11 1z"/><path fill="#DD2E44" d="M19 29a1 1 0 11-2 0V13a1 1 0 012 0v16z"/></svg><svg viewBox="0 0 36 36" id="1F4AA" xmlns="http://www.w3.org/2000/svg"><path fill="#EF9645" d="M15.977 9.36h3.789a.777.777 0 00.058-.673l-3.846-4.705V9.36z"/><path fill="#FFDC5D" d="M12.804 22.277a9.192 9.192 0 00-.206-.973c-.62-2.223-1.14-3.164-.918-5.494.29-1.584.273-4.763 4.483-4.268 1.112.131 2.843.927 3.834.91.567-.01.98-1.157 1.017-1.539.051-.526-.865-1.42-1.248-1.554a94.35 94.35 0 00-2.681-.824c-1.039-.301-.985-1.705-1.051-2.205a.597.597 0 01.294-.591c.21-.124.375-.008.579.125l.885.648c.497.426-.874 1.24-.503 1.376 0 0 1.755.659 2.507.796.412.075 1.834-1.529 1.917-2.47.065-.74-3.398-4.083-5.867-5.381-.868-.456-1.377-.721-1.949-.694-.683.032-.898.302-1.748 1.03C8.302 4.46 4.568 11.577 4.02 13.152c-2.246 6.461-2.597 9.865-2.677 11.788a21.26 21.26 0 00-.076 1.758c.065 0-1 5 0 6s5.326 1 5.326 1c10 3.989 28.57 2.948 28.57-7.233 0-12.172-18.813-10.557-22.359-4.188z"/><path fill="#EF9645" d="M20.63 32.078c-3.16-.332-5.628-1.881-5.767-1.97a1 1 0 011.075-1.687c.04.025 4.003 2.492 7.846 1.467 2.125-.566 3.867-2.115 5.177-4.601a1 1 0 011.77.932c-1.585 3.006-3.754 4.893-6.447 5.606-1.257.332-2.502.374-3.654.253z"/></svg><svg viewBox="0 0 36 36" id="1F4AA-1F3FB" xmlns="http://www.w3.org/2000/svg"><path fill="#E0AA94" d="M15.977 9.36h3.789a.777.777 0 00.058-.673l-3.846-4.705V9.36z"/><path fill="#F7DECE" d="M12.804 22.277a9.192 9.192 0 00-.206-.973c-.62-2.223-1.14-3.164-.918-5.494.29-1.584.273-4.763 4.483-4.268 1.112.131 2.843.927 3.834.91.567-.01.98-1.157 1.017-1.539.051-.526-.865-1.42-1.248-1.554a94.35 94.35 0 00-2.681-.824c-1.039-.301-.985-1.705-1.051-2.205a.597.597 0 01.294-.591c.21-.124.375-.008.579.125l.885.648c.497.426-.874 1.24-.503 1.376 0 0 1.755.659 2.507.796.412.075 1.834-1.529 1.917-2.47.065-.74-3.398-4.083-5.867-5.381-.868-.456-1.377-.721-1.949-.694-.683.032-.898.302-1.748 1.03C8.302 4.46 4.568 11.577 4.02 13.152c-2.246 6.461-2.597 9.865-2.677 11.788a21.26 21.26 0 00-.076 1.758c.065 0-1 5 0 6s5.326 1 5.326 1c10 3.989 28.57 2.948 28.57-7.233 0-12.172-18.813-10.557-22.359-4.188z"/><path fill="#E0AA94" d="M20.63 32.078c-3.16-.332-5.628-1.881-5.767-1.97a1 1 0 011.075-1.687c.04.025 4.003 2.492 7.846 1.467 2.125-.566 3.867-2.115 5.177-4.601a1 1 0 011.77.932c-1.585 3.006-3.754 4.893-6.447 5.606-1.257.332-2.502.374-3.654.253z"/></svg><svg viewBox="0 0 36 36" id="1F4AA-1F3FC" xmlns="http://www.w3.org/2000/svg"><path fill="#D2A077" d="M15.977 9.36h3.789a.777.777 0 00.058-.673l-3.846-4.705V9.36z"/><path fill="#F3D2A2" d="M12.804 22.277a9.192 9.192 0 00-.206-.973c-.62-2.223-1.14-3.164-.918-5.494.29-1.584.273-4.763 4.483-4.268 1.112.131 2.843.927 3.834.91.567-.01.98-1.157 1.017-1.539.051-.526-.865-1.42-1.248-1.554a94.35 94.35 0 00-2.681-.824c-1.039-.301-.985-1.705-1.051-2.205a.597.597 0 01.294-.591c.21-.124.375-.008.579.125l.885.648c.497.426-.874 1.24-.503 1.376 0 0 1.755.659 2.507.796.412.075 1.834-1.529 1.917-2.47.065-.74-3.398-4.083-5.867-5.381-.868-.456-1.377-.721-1.949-.694-.683.032-.898.302-1.748 1.03C8.302 4.46 4.568 11.577 4.02 13.152c-2.246 6.461-2.597 9.865-2.677 11.788a21.26 21.26 0 00-.076 1.758c.065 0-1 5 0 6s5.326 1 5.326 1c10 3.989 28.57 2.948 28.57-7.233 0-12.172-18.813-10.557-22.359-4.188z"/><path fill="#D2A077" d="M20.63 32.078c-3.16-.332-5.628-1.881-5.767-1.97a1 1 0 011.075-1.687c.04.025 4.003 2.492 7.846 1.467 2.125-.566 3.867-2.115 5.177-4.601a1 1 0 011.77.932c-1.585 3.006-3.754 4.893-6.447 5.606-1.257.332-2.502.374-3.654.253z"/></svg><svg viewBox="0 0 36 36" id="1F4AA-1F3FD" xmlns="http://www.w3.org/2000/svg"><path fill="#B78B60" d="M15.977 9.36h3.789a.777.777 0 00.058-.673l-3.846-4.705V9.36z"/><path fill="#D4AB88" d="M12.804 22.277a9.192 9.192 0 00-.206-.973c-.62-2.223-1.14-3.164-.918-5.494.29-1.584.273-4.763 4.483-4.268 1.112.131 2.843.927 3.834.91.567-.01.98-1.157 1.017-1.539.051-.526-.865-1.42-1.248-1.554a94.35 94.35 0 00-2.681-.824c-1.039-.301-.985-1.705-1.051-2.205a.597.597 0 01.294-.591c.21-.124.375-.008.579.125l.885.648c.497.426-.874 1.24-.503 1.376 0 0 1.755.659 2.507.796.412.075 1.834-1.529 1.917-2.47.065-.74-3.398-4.083-5.867-5.381-.868-.456-1.377-.721-1.949-.694-.683.032-.898.302-1.748 1.03C8.302 4.46 4.568 11.577 4.02 13.152c-2.246 6.461-2.597 9.865-2.677 11.788a21.26 21.26 0 00-.076 1.758c.065 0-1 5 0 6s5.326 1 5.326 1c10 3.989 28.57 2.948 28.57-7.233 0-12.172-18.813-10.557-22.359-4.188z"/><path fill="#B78B60" d="M20.63 32.078c-3.16-.332-5.628-1.881-5.767-1.97a1 1 0 011.075-1.687c.04.025 4.003 2.492 7.846 1.467 2.125-.566 3.867-2.115 5.177-4.601a1 1 0 011.77.932c-1.585 3.006-3.754 4.893-6.447 5.606-1.257.332-2.502.374-3.654.253z"/></svg><svg viewBox="0 0 36 36" id="1F4AA-1F3FE" xmlns="http://www.w3.org/2000/svg"><path fill="#90603E" d="M15.977 9.36h3.789a.777.777 0 00.058-.673l-3.846-4.705V9.36z"/><path fill="#AF7E57" d="M12.804 22.277a9.192 9.192 0 00-.206-.973c-.62-2.223-1.14-3.164-.918-5.494.29-1.584.273-4.763 4.483-4.268 1.112.131 2.843.927 3.834.91.567-.01.98-1.157 1.017-1.539.051-.526-.865-1.42-1.248-1.554a94.35 94.35 0 00-2.681-.824c-1.039-.301-.985-1.705-1.051-2.205a.597.597 0 01.294-.591c.21-.124.375-.008.579.125l.885.648c.497.426-.874 1.24-.503 1.376 0 0 1.755.659 2.507.796.412.075 1.834-1.529 1.917-2.47.065-.74-3.398-4.083-5.867-5.381-.868-.456-1.377-.721-1.949-.694-.683.032-.898.302-1.748 1.03C8.302 4.46 4.568 11.577 4.02 13.152c-2.246 6.461-2.597 9.865-2.677 11.788a21.26 21.26 0 00-.076 1.758c.065 0-1 5 0 6s5.326 1 5.326 1c10 3.989 28.57 2.948 28.57-7.233 0-12.172-18.813-10.557-22.359-4.188z"/><path fill="#90603E" d="M20.63 32.078c-3.16-.332-5.628-1.881-5.767-1.97a1 1 0 011.075-1.687c.04.025 4.003 2.492 7.846 1.467 2.125-.566 3.867-2.115 5.177-4.601a1 1 0 011.77.932c-1.585 3.006-3.754 4.893-6.447 5.606-1.257.332-2.502.374-3.654.253z"/></svg><svg viewBox="0 0 36 36" id="1F4AA-1F3FF" xmlns="http://www.w3.org/2000/svg"><path fill="#583529" d="M15.977 9.36h3.789a.777.777 0 00.058-.673l-3.846-4.705V9.36z"/><path fill="#7C533E" d="M12.804 22.277a9.192 9.192 0 00-.206-.973c-.62-2.223-1.14-3.164-.918-5.494.29-1.584.273-4.763 4.483-4.268 1.112.131 2.843.927 3.834.91.567-.01.98-1.157 1.017-1.539.051-.526-.865-1.42-1.248-1.554a94.35 94.35 0 00-2.681-.824c-1.039-.301-.985-1.705-1.051-2.205a.597.597 0 01.294-.591c.21-.124.375-.008.579.125l.885.648c.497.426-.874 1.24-.503 1.376 0 0 1.755.659 2.507.796.412.075 1.834-1.529 1.917-2.47.065-.74-3.398-4.083-5.867-5.381-.868-.456-1.377-.721-1.949-.694-.683.032-.898.302-1.748 1.03C8.302 4.46 4.568 11.577 4.02 13.152c-2.246 6.461-2.597 9.865-2.677 11.788a21.26 21.26 0 00-.076 1.758c.065 0-1 5 0 6s5.326 1 5.326 1c10 3.989 28.57 2.948 28.57-7.233 0-12.172-18.813-10.557-22.359-4.188z"/><path fill="#583529" d="M20.63 32.078c-3.16-.332-5.628-1.881-5.767-1.97a1 1 0 011.075-1.687c.04.025 4.003 2.492 7.846 1.467 2.125-.566 3.867-2.115 5.177-4.601a1 1 0 011.77.932c-1.585 3.006-3.754 4.893-6.447 5.606-1.257.332-2.502.374-3.654.253z"/></svg><svg viewBox="0 0 36 36" id="1F9B4" xmlns="http://www.w3.org/2000/svg"><path fill="#FFE8B6" d="M34.345 24.615c-1.582-.977-4.292.715-5.675-.668-.877-.877-7.984-8.516-11.111-11.493S10.937 6.8 10.12 6.065c-.477-.429 1.076-3.55-.238-4.864C8.488-.192 6.566-.348 5.173 1.045c-.856.855-.461 2.285-1.062 2.683s-2.212.59-3.066 1.445c-1.393 1.392-1.191 3.683.396 4.85 1.621 1.192 4.053-.095 5.007.191 1.301.39 4.734 4.223 9.347 8.822 4.303 4.29 7.882 9.171 8.25 9.585.763.858-1.478 3.767.668 6.152 1.318 1.464 3.71 1.489 5.103.095.856-.854.806-3.721 1.574-4.292s2.53-.051 3.386-.906c1.391-1.392 1.19-4.053-.431-5.055z"/><path fill="#F2C994" d="M5.113 3.013C5.208 1.868 6.544.295 8.022.438c1.478.143 2.003 1.669 1.86 2.48-.144.81-.382 1.573-.478 2.193-.095.62-.143 1.097 1.097 2.003s11.397 10.157 13.734 12.971c2.337 2.814 3.72 4.578 4.673 4.816.954.238 1.812.143 2.718 0 .847-.134 2.847-.575 3.729.885-.227-.475-.557-.891-1.01-1.171-1.582-.977-4.292.715-5.675-.668-.877-.877-7.984-8.516-11.111-11.493-3.127-2.977-6.622-5.655-7.439-6.39-.477-.429 1.076-3.55-.238-4.864C8.488-.192 6.566-.348 5.173 1.045c-.856.855-.461 2.285-1.062 2.683-.14.093-.34.175-.568.257.953-.055 1.494-.06 1.57-.972z"/><path fill="#D99E82" d="M35.537 27.953c-.143 1.24-2.48 2.146-3.958 1.669-.873-.282-1.717-.143-1.621.763.095.906.238 2.241-.286 3.29-.477.954-2.48 1.431-3.767.525-1.186-.835-1.383-2.957-.858-3.958.525-1.001.572-1.669-.668-3.195-.628-.773-4.109-4.765-8.011-8.87-3.801-3.998-7.593-7.828-8.393-8.393-1.623-1.144-2.466-.662-3.625-.381-1.574.381-3.1-.715-3.386-1.431-.255-.639-.228-2.13.243-2.933-.054.045-.113.085-.162.134-1.393 1.392-1.191 3.683.396 4.85 1.621 1.192 4.053-.095 5.007.191 1.301.39 4.734 4.223 9.347 8.822 4.303 4.29 7.882 9.171 8.25 9.585.763.858-1.478 3.767.668 6.152 1.318 1.464 3.71 1.489 5.103.095.855-.854.806-3.721 1.574-4.292.767-.571 2.53-.051 3.386-.906.558-.557.848-1.317.906-2.093-.065.026-.118.142-.145.376z"/></svg><svg viewBox="0 0 36 36" id="1F9B5" xmlns="http://www.w3.org/2000/svg"><path fill="#FFDC5D" d="M24.854.731c3.633 1.239 4.935 8.505.991 10.297-1.586.72-4.049 1.511-6.185 1.032-2.737-.613-4.721-.238-4.721-.238s4.797 2.19 6.339 6.323c1.542 4.133 1.072 7.171 3.235 9.163 1.708 1.573 2.79 3.7 1.639 4.994-1.545 1.738-3.929-.028-6.1 2.48-1.522 1.758-4.81 1.182-7.088.142-2.879-1.314.807-2.191 1.842-2.297 1.15-.117 5.29-2.348 3.33-5.544-4.196-6.841-8.501-10.544-11.313-12.61-2.514-1.846-2.772-5.313-.147-8.465 1.662-1.996 5.229-3.554 9.253-4.733 2.8-.821 5.973-1.551 8.925-.544z"/><path fill="#EF9645" d="M8.267 13.047l-.042-.02a.78.78 0 01-.324-1.054c1.154-2.179.472-3.999.443-4.076a.783.783 0 01.44-1.01.777.777 0 011.009.432c.041.102.993 2.541-.513 5.383a.78.78 0 01-1.013.345z"/></svg><svg viewBox="0 0 36 36" id="1F9B5-1F3FB" xmlns="http://www.w3.org/2000/svg"><path fill="#F7DECE" d="M24.854.731c3.633 1.239 4.935 8.505.991 10.297-1.586.72-4.049 1.511-6.185 1.032-2.737-.613-4.721-.238-4.721-.238s4.797 2.19 6.339 6.323c1.542 4.133 1.072 7.171 3.235 9.163 1.708 1.573 2.79 3.7 1.639 4.994-1.545 1.738-3.929-.028-6.1 2.48-1.522 1.758-4.81 1.182-7.088.142-2.879-1.314.807-2.191 1.842-2.297 1.15-.117 5.29-2.348 3.33-5.544-4.196-6.841-8.501-10.544-11.313-12.61-2.514-1.846-2.772-5.313-.147-8.465 1.662-1.996 5.229-3.554 9.253-4.733 2.8-.821 5.973-1.551 8.925-.544z"/><path fill="#E0AA94" d="M8.267 13.047l-.042-.02a.78.78 0 01-.324-1.054c1.154-2.179.472-3.999.443-4.076a.783.783 0 01.44-1.01.777.777 0 011.009.432c.041.102.993 2.541-.513 5.383a.78.78 0 01-1.013.345z"/></svg><svg viewBox="0 0 36 36" id="1F9B5-1F3FC" xmlns="http://www.w3.org/2000/svg"><path fill="#F3D2A2" d="M24.854.731c3.633 1.239 4.935 8.505.991 10.297-1.586.72-4.049 1.511-6.185 1.032-2.737-.613-4.721-.238-4.721-.238s4.797 2.19 6.339 6.323c1.542 4.133 1.072 7.171 3.235 9.163 1.708 1.573 2.79 3.7 1.639 4.994-1.545 1.738-3.929-.028-6.1 2.48-1.522 1.758-4.81 1.182-7.088.142-2.879-1.314.807-2.191 1.842-2.297 1.15-.117 5.29-2.348 3.33-5.544-4.196-6.841-8.501-10.544-11.313-12.61-2.514-1.846-2.772-5.313-.147-8.465 1.662-1.996 5.229-3.554 9.253-4.733 2.8-.821 5.973-1.551 8.925-.544z"/><path fill="#D2A077" d="M8.267 13.047l-.042-.02a.78.78 0 01-.324-1.054c1.154-2.179.472-3.999.443-4.076a.783.783 0 01.44-1.01.777.777 0 011.009.432c.041.102.993 2.541-.513 5.383a.78.78 0 01-1.013.345z"/></svg><svg viewBox="0 0 36 36" id="1F9B5-1F3FD" xmlns="http://www.w3.org/2000/svg"><path fill="#D5AB88" d="M24.854.731c3.633 1.239 4.935 8.505.991 10.297-1.586.72-4.049 1.511-6.185 1.032-2.737-.613-4.721-.238-4.721-.238s4.797 2.19 6.339 6.323c1.542 4.133 1.072 7.171 3.235 9.163 1.708 1.573 2.79 3.7 1.639 4.994-1.545 1.738-3.929-.028-6.1 2.48-1.522 1.758-4.81 1.182-7.088.142-2.879-1.314.807-2.191 1.842-2.297 1.15-.117 5.29-2.348 3.33-5.544-4.196-6.841-8.501-10.544-11.313-12.61-2.514-1.846-2.772-5.313-.147-8.465 1.662-1.996 5.229-3.554 9.253-4.733 2.8-.821 5.973-1.551 8.925-.544z"/><path fill="#B78B60" d="M8.267 13.047l-.042-.02a.78.78 0 01-.324-1.054c1.154-2.179.472-3.999.443-4.076a.783.783 0 01.44-1.01.777.777 0 011.009.432c.041.102.993 2.541-.513 5.383a.78.78 0 01-1.013.345z"/></svg><svg viewBox="0 0 36 36" id="1F9B5-1F3FE" xmlns="http://www.w3.org/2000/svg"><path fill="#AF7E57" d="M24.854.731c3.633 1.239 4.935 8.505.991 10.297-1.586.72-4.049 1.511-6.185 1.032-2.737-.613-4.721-.238-4.721-.238s4.797 2.19 6.339 6.323c1.542 4.133 1.072 7.171 3.235 9.163 1.708 1.573 2.79 3.7 1.639 4.994-1.545 1.738-3.929-.028-6.1 2.48-1.522 1.758-4.81 1.182-7.088.142-2.879-1.314.807-2.191 1.842-2.297 1.15-.117 5.29-2.348 3.33-5.544-4.196-6.841-8.501-10.544-11.313-12.61-2.514-1.846-2.772-5.313-.147-8.465 1.662-1.996 5.229-3.554 9.253-4.733 2.8-.821 5.973-1.551 8.925-.544z"/><path fill="#90603E" d="M8.267 13.047l-.042-.02a.78.78 0 01-.324-1.054c1.154-2.179.472-3.999.443-4.076a.783.783 0 01.44-1.01.777.777 0 011.009.432c.041.102.993 2.541-.513 5.383a.78.78 0 01-1.013.345z"/></svg><svg viewBox="0 0 36 36" id="1F9B5-1F3FF" xmlns="http://www.w3.org/2000/svg"><path fill="#7C533E" d="M24.854.731c3.633 1.239 4.935 8.505.991 10.297-1.586.72-4.049 1.511-6.185 1.032-2.737-.613-4.721-.238-4.721-.238s4.797 2.19 6.339 6.323c1.542 4.133 1.072 7.171 3.235 9.163 1.708 1.573 2.79 3.7 1.639 4.994-1.545 1.738-3.929-.028-6.1 2.48-1.522 1.758-4.81 1.182-7.088.142-2.879-1.314.807-2.191 1.842-2.297 1.15-.117 5.29-2.348 3.33-5.544-4.196-6.841-8.501-10.544-11.313-12.61-2.514-1.846-2.772-5.313-.147-8.465 1.662-1.996 5.229-3.554 9.253-4.733 2.8-.821 5.973-1.551 8.925-.544z"/><path fill="#583529" d="M8.267 13.047l-.042-.02a.78.78 0 01-.324-1.054c1.154-2.179.472-3.999.443-4.076a.783.783 0 01.44-1.01.777.777 0 011.009.432c.041.102.993 2.541-.513 5.383a.78.78 0 01-1.013.345z"/></svg><svg viewBox="0 0 36 36" id="1F9B6" xmlns="http://www.w3.org/2000/svg"><path fill="#FFDC5D" d="M34.624 11.009c.322-2.495-10.793-4.379-10.996-2.002-.203 2.377-.247 4.06-1.02 6.958C21.358 20.65 15.954 23 10.583 23H8.895a1.5 1.5 0 00-1.411 1.012c-1.024 0-1.646.58-1.646 1.262-.531 0-1.713.508-1.713 1.725 0 0-2.5-.106-2.5 2.5l.002.015c-2.145.606-1.53 4.091.93 4.419 2.334.311 2.428-.369 4.428-.369 1.968 0 2.255.435 4.64.435 4.913 0 4.79-.968 9.447-1.681 5.138-.787 6.406 1.124 9.406 1.124s5.207-2.339 5.207-5.412c0-5-2.059-5.03-2.059-9.03s.676-5.497.998-7.991z"/><path fill="#EF9645" d="M27.894 23.077a.5.5 0 01-.033-.999c.991-.066 1.563-.676 1.869-1.177.514-.842.655-2.045.329-2.799a.501.501 0 01.918-.398c.458 1.059.296 2.587-.394 3.718-.605.992-1.549 1.579-2.656 1.653-.011.002-.022.002-.033.002zM6.766 28H4.069c-.825 0-1.927.476-1.927 1.301 0 .005.627-.249 1.886-.249l2.738.001a.526.526 0 000-1.053zm.897-1.839H5.858c-.544 0-1.006.352-1.18.839h2.985a.42.42 0 000-.839zm.884-1.445H7.133a.837.837 0 00-.785.558h2.199a.28.28 0 00.279-.279.28.28 0 00-.279-.279zm.732-1.034h-.797a.497.497 0 00-.465.33h1.262a.165.165 0 000-.33z"/></svg><svg viewBox="0 0 36 36" id="1F9B6-1F3FB" xmlns="http://www.w3.org/2000/svg"><path fill="#F7DECE" d="M34.624 11.009c.322-2.495-10.793-4.379-10.996-2.002-.203 2.377-.247 4.06-1.02 6.958C21.358 20.65 15.954 23 10.583 23H8.895a1.5 1.5 0 00-1.411 1.012c-1.024 0-1.646.58-1.646 1.262-.531 0-1.713.508-1.713 1.725 0 0-2.5-.106-2.5 2.5l.002.015c-2.145.606-1.53 4.091.93 4.419 2.334.311 2.428-.369 4.428-.369 1.968 0 2.255.435 4.64.435 4.913 0 4.79-.968 9.447-1.681 5.138-.787 6.406 1.124 9.406 1.124s5.207-2.339 5.207-5.412c0-5-2.059-5.03-2.059-9.03s.676-5.497.998-7.991z"/><path fill="#E0AA94" d="M27.894 23.077a.5.5 0 01-.033-.999c.991-.066 1.563-.676 1.869-1.177.514-.842.655-2.045.329-2.799a.501.501 0 01.918-.398c.458 1.059.296 2.587-.394 3.718-.605.992-1.549 1.579-2.656 1.653-.011.002-.022.002-.033.002zM6.766 28H4.069c-.825 0-1.927.476-1.927 1.301 0 .005.627-.249 1.886-.249l2.738.001a.526.526 0 000-1.053zm.897-1.839H5.858c-.544 0-1.006.352-1.18.839h2.985a.42.42 0 000-.839zm.884-1.445H7.133a.837.837 0 00-.785.558h2.199a.28.28 0 00.279-.279.28.28 0 00-.279-.279zm.732-1.034h-.797a.497.497 0 00-.465.33h1.262a.165.165 0 000-.33z"/></svg><svg viewBox="0 0 36 36" id="1F9B6-1F3FC" xmlns="http://www.w3.org/2000/svg"><path fill="#F3D2A2" d="M34.624 11.009c.322-2.495-10.793-4.379-10.996-2.002-.203 2.377-.247 4.06-1.02 6.958C21.358 20.65 15.954 23 10.583 23H8.895a1.5 1.5 0 00-1.411 1.012c-1.024 0-1.646.58-1.646 1.262-.531 0-1.713.508-1.713 1.725 0 0-2.5-.106-2.5 2.5l.002.015c-2.145.606-1.53 4.091.93 4.419 2.334.311 2.428-.369 4.428-.369 1.968 0 2.255.435 4.64.435 4.913 0 4.79-.968 9.447-1.681 5.138-.787 6.406 1.124 9.406 1.124s5.207-2.339 5.207-5.412c0-5-2.059-5.03-2.059-9.03s.676-5.497.998-7.991z"/><path fill="#D2A077" d="M27.894 23.077a.5.5 0 01-.033-.999c.991-.066 1.563-.676 1.869-1.177.514-.842.655-2.045.329-2.799a.501.501 0 01.918-.398c.458 1.059.296 2.587-.394 3.718-.605.992-1.549 1.579-2.656 1.653-.011.002-.022.002-.033.002zM6.766 28H4.069c-.825 0-1.927.476-1.927 1.301 0 .005.627-.249 1.886-.249l2.738.001a.526.526 0 000-1.053zm.897-1.839H5.858c-.544 0-1.006.352-1.18.839h2.985a.42.42 0 000-.839zm.884-1.445H7.133a.837.837 0 00-.785.558h2.199a.28.28 0 00.279-.279.28.28 0 00-.279-.279zm.732-1.034h-.797a.497.497 0 00-.465.33h1.262a.165.165 0 000-.33z"/></svg><svg viewBox="0 0 36 36" id="1F9B6-1F3FD" xmlns="http://www.w3.org/2000/svg"><path fill="#D5AB88" d="M34.624 11.009c.322-2.495-10.793-4.379-10.996-2.002-.203 2.377-.247 4.06-1.02 6.958C21.358 20.65 15.954 23 10.583 23H8.895a1.5 1.5 0 00-1.411 1.012c-1.024 0-1.646.58-1.646 1.262-.531 0-1.713.508-1.713 1.725 0 0-2.5-.106-2.5 2.5l.002.015c-2.145.606-1.53 4.091.93 4.419 2.334.311 2.428-.369 4.428-.369 1.968 0 2.255.435 4.64.435 4.913 0 4.79-.968 9.447-1.681 5.138-.787 6.406 1.124 9.406 1.124s5.207-2.339 5.207-5.412c0-5-2.059-5.03-2.059-9.03s.676-5.497.998-7.991z"/><path fill="#B78B60" d="M27.894 23.077a.5.5 0 01-.033-.999c.991-.066 1.563-.676 1.869-1.177.514-.842.655-2.045.329-2.799a.501.501 0 01.918-.398c.458 1.059.296 2.587-.394 3.718-.605.992-1.549 1.579-2.656 1.653-.011.002-.022.002-.033.002zM6.766 28H4.069c-.825 0-1.927.476-1.927 1.301 0 .005.627-.249 1.886-.249l2.738.001a.526.526 0 000-1.053zm.897-1.839H5.858c-.544 0-1.006.352-1.18.839h2.985a.42.42 0 000-.839zm.884-1.445H7.133a.837.837 0 00-.785.558h2.199a.28.28 0 00.279-.279.28.28 0 00-.279-.279zm.732-1.034h-.797a.497.497 0 00-.465.33h1.262a.165.165 0 000-.33z"/></svg><svg viewBox="0 0 36 36" id="1F9B6-1F3FE" xmlns="http://www.w3.org/2000/svg"><path fill="#AF7E57" d="M34.624 11.009c.322-2.495-10.793-4.379-10.996-2.002-.203 2.377-.247 4.06-1.02 6.958C21.358 20.65 15.954 23 10.583 23H8.895a1.5 1.5 0 00-1.411 1.012c-1.024 0-1.646.58-1.646 1.262-.531 0-1.713.508-1.713 1.725 0 0-2.5-.106-2.5 2.5l.002.015c-2.145.606-1.53 4.091.93 4.419 2.334.311 2.428-.369 4.428-.369 1.968 0 2.255.435 4.64.435 4.913 0 4.79-.968 9.447-1.681 5.138-.787 6.406 1.124 9.406 1.124s5.207-2.339 5.207-5.412c0-5-2.059-5.03-2.059-9.03s.676-5.497.998-7.991z"/><path fill="#90603E" d="M27.894 23.077a.5.5 0 01-.033-.999c.991-.066 1.563-.676 1.869-1.177.514-.842.655-2.045.329-2.799a.501.501 0 01.918-.398c.458 1.059.296 2.587-.394 3.718-.605.992-1.549 1.579-2.656 1.653-.011.002-.022.002-.033.002zM6.766 28H4.069c-.825 0-1.927.476-1.927 1.301 0 .005.627-.249 1.886-.249l2.738.001a.526.526 0 000-1.053zm.897-1.839H5.858c-.544 0-1.006.352-1.18.839h2.985a.42.42 0 000-.839zm.884-1.445H7.133a.837.837 0 00-.785.558h2.199a.28.28 0 00.279-.279.28.28 0 00-.279-.279zm.732-1.034h-.797a.497.497 0 00-.465.33h1.262a.165.165 0 000-.33z"/></svg><svg viewBox="0 0 36 36" id="1F9B6-1F3FF" xmlns="http://www.w3.org/2000/svg"><path fill="#7C533E" d="M34.624 11.009c.322-2.495-10.793-4.379-10.996-2.002-.203 2.377-.247 4.06-1.02 6.958C21.358 20.65 15.954 23 10.583 23H8.895a1.5 1.5 0 00-1.411 1.012c-1.024 0-1.646.58-1.646 1.262-.531 0-1.713.508-1.713 1.725 0 0-2.5-.106-2.5 2.5l.002.015c-2.145.606-1.53 4.091.93 4.419 2.334.311 2.428-.369 4.428-.369 1.968 0 2.255.435 4.64.435 4.913 0 4.79-.968 9.447-1.681 5.138-.787 6.406 1.124 9.406 1.124s5.207-2.339 5.207-5.412c0-5-2.059-5.03-2.059-9.03s.676-5.497.998-7.991z"/><path fill="#583529" d="M27.894 23.077a.5.5 0 01-.033-.999c.991-.066 1.563-.676 1.869-1.177.514-.842.655-2.045.329-2.799a.501.501 0 01.918-.398c.458 1.059.296 2.587-.394 3.718-.605.992-1.549 1.579-2.656 1.653-.011.002-.022.002-.033.002zM6.766 28H4.069c-.825 0-1.927.476-1.927 1.301 0 .005.627-.249 1.886-.249l2.738.001a.526.526 0 000-1.053zm.897-1.839H5.858c-.544 0-1.006.352-1.18.839h2.985a.42.42 0 000-.839zm.884-1.445H7.133a.837.837 0 00-.785.558h2.199a.28.28 0 00.279-.279.28.28 0 00-.279-.279zm.732-1.034h-.797a.497.497 0 00-.465.33h1.262a.165.165 0 000-.33z"/></svg><svg viewBox="0 0 36 36" id="1F9B7" xmlns="http://www.w3.org/2000/svg"><path fill="#E1E8ED" d="M18 2C13 2 11.11-1.276 7.002.7 3 2.625 7 17.002 9 20c-.444 2.537-.59 8.787-.171 10.91.576 2.921 1.561 5.09 2.748 5.09 2 0 2.423-13.002 6.423-13V2zm0 0c5 0 6.89-3.276 10.998-1.3C33 2.625 29 17.002 27 20c.444 2.537.59 8.787.171 10.91-.575 2.921-1.561 5.09-2.748 5.09-2 0-2.423-13.002-6.423-13V2z"/><path fill="#9AAAB4" d="M18 7.259c-2.278 0-4.419-.81-5.444-1.563a.75.75 0 11.887-1.209c.84.617 2.722 1.273 4.556 1.273 1.97 0 3.942-.709 4.489-1.217a.75.75 0 011.021 1.099c-.958.891-3.431 1.617-5.509 1.617z"/></svg><svg viewBox="0 0 36 36" id="1F9BB" xmlns="http://www.w3.org/2000/svg"><path fill="#66757F" d="M30.405 23.361a1.003 1.003 0 01-.237-1.394l1.736-2.447a1.003 1.003 0 011.394-.237c.449.318.555.946.237 1.394l-1.736 2.447a1.003 1.003 0 01-1.394.237z"/><path fill="#99AAB5" d="M18 0c7 0 17 2 17 12 0 7-8 17-14 17S18 0 18 0z"/><path fill="#FFDC5D" d="M29 15c-1 6-4.599 8.097-6 13-2 7-7 8-11 8-7 0-3.856-6.568-7-16-3-9-2.716-15.899 7-18 9.25-2 18.634 3.194 17 13z"/><path fill="#EF9645" d="M23.948 6.211c-2.643-2.178-6.912-3.018-11.14-2.192-2.396.467-4.207 1.644-5.381 3.497-2.517 3.973-1.124 9.618-1.063 9.856a1 1 0 001.938-.492 13.422 13.422 0 01-.24-1.358c.059-.004.117.007.177-.008 3.049-.751 5.129-.051 5.701 1.922.533 1.841-.446 4.513-2.442 5.181-1.008.264-2.379.997-2.924 2.199-.251.554-.435 1.446.116 2.549a.998.998 0 001.341.447 1 1 0 00.447-1.342c-.216-.432-.151-.679-.084-.828.238-.524 1.084-.953 1.672-1.109 3.23-1.076 4.592-4.898 3.794-7.653-.685-2.366-3.133-4.466-7.932-3.343-.008-1.584.238-3.45 1.189-4.95.88-1.389 2.213-2.241 4.074-2.604 3.659-.713 7.292-.033 9.485 1.773C24.218 9.025 25 10.79 25 13c0 3.48-1.008 4.756-2.403 6.522-.461.583-.938 1.186-1.429 1.923a1 1 0 101.664 1.11c.446-.67.898-1.24 1.333-1.792C25.623 18.917 27 17.175 27 13c0-2.797-1.056-5.145-3.052-6.789z"/><circle cx="11" cy="18" r="5" fill="#66757F"/><circle cx="11" cy="18" r="3" fill="#99AAB5"/><path fill="#CCD6DD" d="M11.001 19c-.072 0-.145-.008-.218-.024-4.18-.929-6.665-4.504-6.183-8.897C5.134 5.225 9.554 0 18 0a1 1 0 010 2C10.747 2 7.042 6.167 6.589 10.297c-.282 2.566.761 5.868 4.628 6.727A1 1 0 0111.001 19z"/></svg><svg viewBox="0 0 36 36" id="1F9BB-1F3FB" xmlns="http://www.w3.org/2000/svg"><path fill="#66757F" d="M30.405 23.361a1.003 1.003 0 01-.237-1.394l1.736-2.447a1.003 1.003 0 011.394-.237c.449.318.555.946.237 1.394l-1.736 2.447a1.003 1.003 0 01-1.394.237z"/><path fill="#99AAB5" d="M18 0c7 0 17 2 17 12 0 7-8 17-14 17S18 0 18 0z"/><path fill="#F7DECE" d="M29 15c-1 6-4.599 8.097-6 13-2 7-7 8-11 8-7 0-3.856-6.568-7-16-3-9-2.716-15.899 7-18 9.25-2 18.634 3.194 17 13z"/><path fill="#E0AA94" d="M23.948 6.211c-2.643-2.178-6.912-3.018-11.14-2.192-2.396.467-4.207 1.644-5.381 3.497-2.517 3.973-1.124 9.618-1.063 9.856a1 1 0 001.938-.492 13.422 13.422 0 01-.24-1.358c.059-.004.117.007.177-.008 3.049-.751 5.129-.051 5.701 1.922.533 1.841-.446 4.513-2.442 5.181-1.008.264-2.379.997-2.924 2.199-.251.554-.435 1.446.116 2.549a.998.998 0 001.341.447 1 1 0 00.447-1.342c-.216-.432-.151-.679-.084-.828.238-.524 1.084-.953 1.672-1.109 3.23-1.076 4.592-4.898 3.794-7.653-.685-2.366-3.133-4.466-7.932-3.343-.008-1.584.238-3.45 1.189-4.95.88-1.389 2.213-2.241 4.074-2.604 3.659-.713 7.292-.033 9.485 1.773C24.218 9.025 25 10.79 25 13c0 3.48-1.008 4.756-2.403 6.522-.461.583-.938 1.186-1.429 1.923a1 1 0 101.664 1.11c.446-.67.898-1.24 1.333-1.792C25.623 18.917 27 17.175 27 13c0-2.797-1.056-5.145-3.052-6.789z"/><circle cx="11" cy="18" r="5" fill="#66757F"/><circle cx="11" cy="18" r="3" fill="#99AAB5"/><path fill="#CCD6DD" d="M11.001 19c-.072 0-.145-.008-.218-.024-4.18-.929-6.665-4.504-6.183-8.897C5.134 5.225 9.554 0 18 0a1 1 0 010 2C10.747 2 7.042 6.167 6.589 10.297c-.282 2.566.761 5.868 4.628 6.727A1 1 0 0111.001 19z"/></svg><svg viewBox="0 0 36 36" id="1F9BB-1F3FC" xmlns="http://www.w3.org/2000/svg"><path fill="#66757F" d="M30.405 23.361a1.003 1.003 0 01-.237-1.394l1.736-2.447a1.003 1.003 0 011.394-.237c.449.318.555.946.237 1.394l-1.736 2.447a1.003 1.003 0 01-1.394.237z"/><path fill="#99AAB5" d="M18 0c7 0 17 2 17 12 0 7-8 17-14 17S18 0 18 0z"/><path fill="#F3D2A2" d="M29 15c-1 6-4.599 8.097-6 13-2 7-7 8-11 8-7 0-3.856-6.568-7-16-3-9-2.716-15.899 7-18 9.25-2 18.634 3.194 17 13z"/><path fill="#D2A077" d="M23.948 6.211c-2.643-2.178-6.912-3.018-11.14-2.192-2.396.467-4.207 1.644-5.381 3.497-2.517 3.973-1.124 9.618-1.063 9.856a1 1 0 001.938-.492 13.422 13.422 0 01-.24-1.358c.059-.004.117.007.177-.008 3.049-.751 5.129-.051 5.701 1.922.533 1.841-.446 4.513-2.442 5.181-1.008.264-2.379.997-2.924 2.199-.251.554-.435 1.446.116 2.549a.998.998 0 001.341.447 1 1 0 00.447-1.342c-.216-.432-.151-.679-.084-.828.238-.524 1.084-.953 1.672-1.109 3.23-1.076 4.592-4.898 3.794-7.653-.685-2.366-3.133-4.466-7.932-3.343-.008-1.584.238-3.45 1.189-4.95.88-1.389 2.213-2.241 4.074-2.604 3.659-.713 7.292-.033 9.485 1.773C24.218 9.025 25 10.79 25 13c0 3.48-1.008 4.756-2.403 6.522-.461.583-.938 1.186-1.429 1.923a1 1 0 101.664 1.11c.446-.67.898-1.24 1.333-1.792C25.623 18.917 27 17.175 27 13c0-2.797-1.056-5.145-3.052-6.789z"/><circle cx="11" cy="18" r="5" fill="#66757F"/><circle cx="11" cy="18" r="3" fill="#99AAB5"/><path fill="#CCD6DD" d="M11.001 19c-.072 0-.145-.008-.218-.024-4.18-.929-6.665-4.504-6.183-8.897C5.134 5.225 9.554 0 18 0a1 1 0 010 2C10.747 2 7.042 6.167 6.589 10.297c-.282 2.566.761 5.868 4.628 6.727A1 1 0 0111.001 19z"/></svg><svg viewBox="0 0 36 36" id="1F9BB-1F3FD" xmlns="http://www.w3.org/2000/svg"><path fill="#66757F" d="M30.405 23.361a1.003 1.003 0 01-.237-1.394l1.736-2.447a1.003 1.003 0 011.394-.237c.449.318.555.946.237 1.394l-1.736 2.447a1.003 1.003 0 01-1.394.237z"/><path fill="#99AAB5" d="M18 0c7 0 17 2 17 12 0 7-8 17-14 17S18 0 18 0z"/><path fill="#D4AB88" d="M29 15c-1 6-4.599 8.097-6 13-2 7-7 8-11 8-7 0-3.856-6.568-7-16-3-9-2.716-15.899 7-18 9.25-2 18.634 3.194 17 13z"/><path fill="#B78B60" d="M23.948 6.211c-2.643-2.178-6.912-3.018-11.14-2.192-2.396.467-4.207 1.644-5.381 3.497-2.517 3.973-1.124 9.618-1.063 9.856a1 1 0 001.938-.492 13.422 13.422 0 01-.24-1.358c.059-.004.117.007.177-.008 3.049-.751 5.129-.051 5.701 1.922.533 1.841-.446 4.513-2.442 5.181-1.008.264-2.379.997-2.924 2.199-.251.554-.435 1.446.116 2.549a.998.998 0 001.341.447 1 1 0 00.447-1.342c-.216-.432-.151-.679-.084-.828.238-.524 1.084-.953 1.672-1.109 3.23-1.076 4.592-4.898 3.794-7.653-.685-2.366-3.133-4.466-7.932-3.343-.008-1.584.238-3.45 1.189-4.95.88-1.389 2.213-2.241 4.074-2.604 3.659-.713 7.292-.033 9.485 1.773C24.218 9.025 25 10.79 25 13c0 3.48-1.008 4.756-2.403 6.522-.461.583-.938 1.186-1.429 1.923a1 1 0 101.664 1.11c.446-.67.898-1.24 1.333-1.792C25.623 18.917 27 17.175 27 13c0-2.797-1.056-5.145-3.052-6.789z"/><circle cx="11" cy="18" r="5" fill="#66757F"/><circle cx="11" cy="18" r="3" fill="#99AAB5"/><path fill="#CCD6DD" d="M11.001 19c-.072 0-.145-.008-.218-.024-4.18-.929-6.665-4.504-6.183-8.897C5.134 5.225 9.554 0 18 0a1 1 0 010 2C10.747 2 7.042 6.167 6.589 10.297c-.282 2.566.761 5.868 4.628 6.727A1 1 0 0111.001 19z"/></svg><svg viewBox="0 0 36 36" id="1F9BB-1F3FE" xmlns="http://www.w3.org/2000/svg"><path fill="#66757F" d="M30.405 23.361a1.003 1.003 0 01-.237-1.394l1.736-2.447a1.003 1.003 0 011.394-.237c.449.318.555.946.237 1.394l-1.736 2.447a1.003 1.003 0 01-1.394.237z"/><path fill="#99AAB5" d="M18 0c7 0 17 2 17 12 0 7-8 17-14 17S18 0 18 0z"/><path fill="#AF7E57" d="M29 15c-1 6-4.599 8.097-6 13-2 7-7 8-11 8-7 0-3.856-6.568-7-16-3-9-2.716-15.899 7-18 9.25-2 18.634 3.194 17 13z"/><path fill="#90603E" d="M23.948 6.211c-2.643-2.178-6.912-3.018-11.14-2.192-2.396.467-4.207 1.644-5.381 3.497-2.517 3.973-1.124 9.618-1.063 9.856a1 1 0 001.938-.492 13.422 13.422 0 01-.24-1.358c.059-.004.117.007.177-.008 3.049-.751 5.129-.051 5.701 1.922.533 1.841-.446 4.513-2.442 5.181-1.008.264-2.379.997-2.924 2.199-.251.554-.435 1.446.116 2.549a.998.998 0 001.341.447 1 1 0 00.447-1.342c-.216-.432-.151-.679-.084-.828.238-.524 1.084-.953 1.672-1.109 3.23-1.076 4.592-4.898 3.794-7.653-.685-2.366-3.133-4.466-7.932-3.343-.008-1.584.238-3.45 1.189-4.95.88-1.389 2.213-2.241 4.074-2.604 3.659-.713 7.292-.033 9.485 1.773C24.218 9.025 25 10.79 25 13c0 3.48-1.008 4.756-2.403 6.522-.461.583-.938 1.186-1.429 1.923a1 1 0 101.664 1.11c.446-.67.898-1.24 1.333-1.792C25.623 18.917 27 17.175 27 13c0-2.797-1.056-5.145-3.052-6.789z"/><circle cx="11" cy="18" r="5" fill="#66757F"/><circle cx="11" cy="18" r="3" fill="#99AAB5"/><path fill="#CCD6DD" d="M11.001 19c-.072 0-.145-.008-.218-.024-4.18-.929-6.665-4.504-6.183-8.897C5.134 5.225 9.554 0 18 0a1 1 0 010 2C10.747 2 7.042 6.167 6.589 10.297c-.282 2.566.761 5.868 4.628 6.727A1 1 0 0111.001 19z"/></svg><svg viewBox="0 0 36 36" id="1F9BB-1F3FF" xmlns="http://www.w3.org/2000/svg"><path fill="#66757F" d="M30.405 23.361a1.003 1.003 0 01-.237-1.394l1.736-2.447a1.003 1.003 0 011.394-.237c.449.318.555.946.237 1.394l-1.736 2.447a1.003 1.003 0 01-1.394.237z"/><path fill="#99AAB5" d="M18 0c7 0 17 2 17 12 0 7-8 17-14 17S18 0 18 0z"/><path fill="#7C533E" d="M29 15c-1 6-4.599 8.097-6 13-2 7-7 8-11 8-7 0-3.856-6.568-7-16-3-9-2.716-15.899 7-18 9.25-2 18.634 3.194 17 13z"/><path fill="#583529" d="M23.948 6.211c-2.643-2.178-6.912-3.018-11.14-2.192-2.396.467-4.207 1.644-5.381 3.497-2.517 3.973-1.124 9.618-1.063 9.856a1 1 0 001.938-.492 13.422 13.422 0 01-.24-1.358c.059-.004.117.007.177-.008 3.049-.751 5.129-.051 5.701 1.922.533 1.841-.446 4.513-2.442 5.181-1.008.264-2.379.997-2.924 2.199-.251.554-.435 1.446.116 2.549a.998.998 0 001.341.447 1 1 0 00.447-1.342c-.216-.432-.151-.679-.084-.828.238-.524 1.084-.953 1.672-1.109 3.23-1.076 4.592-4.898 3.794-7.653-.685-2.366-3.133-4.466-7.932-3.343-.008-1.584.238-3.45 1.189-4.95.88-1.389 2.213-2.241 4.074-2.604 3.659-.713 7.292-.033 9.485 1.773C24.218 9.025 25 10.79 25 13c0 3.48-1.008 4.756-2.403 6.522-.461.583-.938 1.186-1.429 1.923a1 1 0 101.664 1.11c.446-.67.898-1.24 1.333-1.792C25.623 18.917 27 17.175 27 13c0-2.797-1.056-5.145-3.052-6.789z"/><circle cx="11" cy="18" r="5" fill="#66757F"/><circle cx="11" cy="18" r="3" fill="#99AAB5"/><path fill="#CCD6DD" d="M11.001 19c-.072 0-.145-.008-.218-.024-4.18-.929-6.665-4.504-6.183-8.897C5.134 5.225 9.554 0 18 0a1 1 0 010 2C10.747 2 7.042 6.167 6.589 10.297c-.282 2.566.761 5.868 4.628 6.727A1 1 0 0111.001 19z"/></svg><svg viewBox="0 0 36 36" id="1F9BE" xmlns="http://www.w3.org/2000/svg"><circle cx="8.553" cy="29.973" r="4.478" fill="#66757F"/><path fill="#CCD6DD" d="M10.482 34.451c5.29 2 17 1 20-1s5.658-4.054 5-8c-1-6-9-7-14-6-4.903.981-9 4-10 6-.632 1.265 0 3 0 5 0 3-1.936 3.646-1 4z"/><path fill="#99AAB5" d="M30.482 33.451c3-2 5.658-4.054 5-8l-.005-.02c-2.609 1.493-6.824 3.435-12.309 4.37-4.599.784-8.938.861-11.692.798-.064 2.869-1.913 3.505-.994 3.852 5.29 2 17 1 20-1z"/><circle cx="8.489" cy="9.789" r="2.42" fill="#66757F"/><path fill="#99AAB5" d="M2.495 31.311c-3.926-5.609-1.447-12.69.586-17.247 1.559-3.495 3.025-4.696 3.025-4.696l4.557 2.033s-1.724 4.645-1.192 8.237c.561 3.786 1.227 6.976-.596 10.341s-5.399 2.734-6.38 1.332z"/><path fill="#CCD6DD" d="M7.952 10.192l2.711 1.21s-1.724 4.645-1.192 8.237c.561 3.786 1.227 6.976-.596 10.341-.754 1.392-1.808 2.1-2.855 2.353-4.436-9.786 1.932-22.141 1.932-22.141z"/><path fill="#99AAB5" d="M6.316 8.176C6.737 5.792 10.172.254 11.364.464s6.94 2.454 7.922 3.856-1.052 5.959-2.244 5.749c-1.192-.21-.771-2.594-.771-2.594s.21-1.192-1.192-.21l-2.804 1.963c-1.402.982-5.959-1.052-5.959-1.052z"/><path fill="#99AAB5" d="M6.316 8.176c-.981-1.402-.35-4.978-.14-6.169.21-1.192 2.594-.771 2.173 1.613-.42 2.383.771 2.594.771 2.594L6.316 8.176z"/><path fill="#CCD6DD" d="M6.316 8.176C6.737 5.792 10.172.254 11.364.464s6.94 2.454 7.922 3.856c-5.749-2.244-7.782 2.313-8.192 5.174-1.886-.027-4.778-1.318-4.778-1.318z"/></svg><svg viewBox="0 0 36 36" id="1F9BF" xmlns="http://www.w3.org/2000/svg"><circle cx="17.221" cy="29.784" r="2.5" fill="#66757F"/><circle cx="10.517" cy="9.871" r="4.592" fill="#66757F"/><path fill="#CCD6DD" d="M9.914 4.746c3.03-2.02 12.594-4.04 14.733-4.218s4.517.295 5.347 1.069c.891.832 2.131 2.311 1.96 4.693-.178 2.495-1.485 4.634-4.218 5.049-2.733.416-8.554-.832-11.168.238-1.583.648-1.901.178-2.317-.95-.416-1.129-1.423-2.677-2.203-3.62-1.183-1.429-3.4-1.417-2.134-2.261z"/><path fill="#99AAB5" d="M27.736 11.34c2.733-.416 4.04-2.554 4.218-5.049.03-.415.004-.793-.042-1.155-5.661-.212-14.809 1.095-18.741 3.45.446.697.854 1.427 1.081 2.042.416 1.129.734 1.598 2.317.951 2.613-1.071 8.434.177 11.167-.239zm-20.955.698c-1.1 2.201-.505 6.034 3.301 11.003 2.287 2.986 3.658 4.841 4.758 5.941s5.501 0 4.401-2.201c-3.301-6.602.744-10.343-6.552-15.049-3.161-2.039-5.156-1.198-5.908.306z"/><path fill="#CCD6DD" d="M17.289 29.293c1.358-.315 2.595-1.225 1.952-2.511-3.301-6.602.744-10.343-6.552-15.049-1.373-.886-2.526-1.228-3.453-1.209 6.347 5.916 3.403 9.656 8.053 18.769z"/><path fill="#8899A6" d="M13.726 29.713c.278.253 1.134.43 1.677.6a13.227 13.227 0 01-.735-1.257c-.051-.108-.187-.15-.298-.094l-.677.426c-.131.064-.073.229.033.325zm-6.869 5.581c1.108.427 2.151.629 3.153.652.076.002 2.741 0 4.072-.007.974-.005 1.809-.01 2.091-.008l.174.001.263.002c1.844.011 3.116.105 3.668-.382.081-.072.112-.18.116-.3.006-.166-.008-.341-.008-.341-.035.125-5.57.481-7.417.58-6.101.326-7.589-1.435-7.656-1.586 0-.001.142.848 1.544 1.389z"/><path fill="#BE1931" d="M9.667 34.83c2.065.131 10.352-.655 10.352-.655l.214-.305c.215-.305.178-.785.181-1.198.003-.413-.119-1.959-.302-2.359-.183-.4-.555-.856-.899-.711-.432.181-1.221 1.125-1.89 1.12-.968-.006-3.215-1.482-3.533-1.485-.477-.003-.592.519-1.64.914-.49.185-2.727 1.049-2.727 1.049-.572.21-.608.322-.914.44-.628.242-1.996.653-2.528.863-.532.21-.729.622-.745.928-.016.306.076.473.076.473s.833.702 4.355.926z"/><path fill="#A0041E" d="M17.318 31.102c.81.005 1.764-1.19 2.297-1.433-.13-.088-.268-.124-.402-.068-.431.181-1.221 1.125-1.89 1.12-.969-.006-3.215-1.482-3.533-1.485a.602.602 0 00-.341.107c.789.491 2.893 1.753 3.869 1.759z"/><path fill="#DD2E44" d="M20.079 34.068s.067-.022.145-.125c.217-.285.204-.733.207-1.121.002-.294-.043-1.205-.156-1.791-.38.068-2.38.431-3.1.773-.768.365-1.411 1.457-1.603 1.984-.008.021 4.507.28 4.507.28z"/><path fill="#CCD6DD" d="M12.974 30.691l-.379-.604a.292.292 0 01.112-.412.33.33 0 01.436.105l.379.604a.292.292 0 01-.112.412.333.333 0 01-.358-.021.33.33 0 01-.078-.084zm-1.139.529l-.296-.687a.296.296 0 01.175-.392.324.324 0 01.415.165l.296.687a.296.296 0 01-.175.392.334.334 0 01-.316-.041.296.296 0 01-.099-.124zm-1.2.343l-.19-.652a.299.299 0 01.223-.369.32.32 0 01.391.21l.19.653a.299.299 0 01-.223.369.33.33 0 01-.28-.053.304.304 0 01-.111-.158zm-1.187.284l-.125-.522a.3.3 0 01.241-.359.32.32 0 01.381.227l.125.522a.3.3 0 01-.241.359.333.333 0 01-.266-.056.302.302 0 01-.115-.171zM20.4 35.008c-.001.119-.139.316-.802.511-.466.138-2.68.115-3.423.111-.743-.005-5.333.033-6.156.015-.822-.018-1.731-.145-2.955-.545-1.28-.419-1.692-1.054-1.752-1.196.344.2.822.357 1.399.456.447.077 1.171.165 1.979.236.809.071 1.886-.005 2.576-.08.691-.075 2.731-.586 3.873-.724 1.142-.138 2.79-.101 3.228-.099.438.003 1.031.059 1.282.192.251.133.596.109.596.109.253.003.158.724.155 1.014z"/><path fill="#DD2E44" d="M5.436 32.906c.378.267 1.401.317 2.282.054 1.099-.328 1.244-.825 1.083-1.303a.746.746 0 00-.062-.123c-.251.102-.665.239-.749.28-.628.242-1.476.48-2.008.69a1.21 1.21 0 00-.546.402z"/></svg><svg viewBox="0 0 36 36" id="1F9E0" xmlns="http://www.w3.org/2000/svg"><path fill="#EA596E" d="M29.896 26.667c.003.283-.07.653-.146.958-.531 2.145-2.889 4.552-6.208 4.333-3.008-.198-5.458-1.642-5.458-3.667s2.444-3.667 5.458-3.667 6.335.018 6.354 2.043z"/><path fill="#DD2E44" d="M23.542 24.964c-1.619 0-5.314.448-6.162.448-1.498 0-2.713.94-2.713 2.1 0 .558.286 1.062.744 1.438 0 0 1.006 1.009 2.818.525.793-.212 2.083-1.786 4.354-2.036 1.131-.125 3.25.75 6.974.771.16-.344.193-.583.193-.583 0-2.027-3.194-2.663-6.208-2.663z"/><path fill="#F4ABBA" d="M29.75 27.625s2.184-.443 3.542-2.229c1.583-2.083 1.375-4.312 1.375-4.312 1.604-3-.5-5.813-.5-5.813C33.958 12.104 32 10.792 32 10.792c-1.271-3.021-4.083-3.833-4.083-3.833-2.208-2.583-6.125-2.5-6.125-2.5s-3.67-1.345-8.708.167c-.833.25-3.625.833-5.667 2.083C.981 10.649.494 16.793.584 17.792 1.083 23.375 5 24.375 7.5 24.958c.583 1.583 2.729 4.5 6.583 3.417 4.75-.833 6.75-2.25 7.917-2.25s4.417 1.25 7.75 1.5z"/><g fill="#EA596E"><path d="M17.737 18.648c2.328-1.255 3.59-1.138 4.704-1.037.354.032.689.057 1.028.055 1.984-.045 3.591-.881 4.302-1.69a.501.501 0 00-.752-.661c-.548.624-1.899 1.313-3.573 1.351-.3.009-.601-.021-.913-.05-1.195-.111-2.679-.247-5.271 1.152-.665.359-1.577.492-2.565.592-2.197-3.171-.875-5.933-.497-6.591.037.002.073.014.111.014.4 0 .802-.098 1.166-.304a.5.5 0 00-.492-.87 1.426 1.426 0 01-1.88-.467.5.5 0 00-.841.539c.237.371.571.65.948.837-.521 1.058-1.51 3.84.372 6.951-1.324.13-2.65.317-3.688.986a7.182 7.182 0 00-1.878 1.791c-.629-.108-2.932-.675-3.334-3.231.25-.194.452-.45.577-.766a.5.5 0 10-.93-.368.772.772 0 01-.454.461.777.777 0 01-.643-.07.5.5 0 00-.486.874c.284.158.588.238.89.238.037 0 .072-.017.109-.019.476 2.413 2.383 3.473 3.732 3.794a3.69 3.69 0 00-.331 1.192.5.5 0 00.454.542l.045.002a.5.5 0 00.498-.456c.108-1.213 1.265-2.48 2.293-3.145.964-.621 2.375-.752 3.741-.879 1.325-.121 2.577-.237 3.558-.767zm12.866-1.504a.5.5 0 00.878.48c.019-.034 1.842-3.449-1.571-5.744a.5.5 0 00-.558.83c2.644 1.778 1.309 4.326 1.251 4.434zM9.876 9.07a.497.497 0 00.406-.208c1.45-2.017 3.458-1.327 3.543-1.295a.5.5 0 00.345-.938c-.96-.356-3.177-.468-4.7 1.65a.5.5 0 00.406.791zm13.072-1.888c2.225-.181 3.237 1.432 3.283 1.508a.5.5 0 00.863-.507c-.054-.091-1.34-2.218-4.224-1.998a.5.5 0 00.078.997zm9.15 14.611c-.246-.014-.517.181-.539.457-.002.018-.161 1.719-1.91 2.294a.499.499 0 00.157.975.499.499 0 00.156-.025c2.372-.778 2.586-3.064 2.594-3.161a.502.502 0 00-.458-.54z"/><path d="M7.347 16.934a.5.5 0 10.965.26 1.423 1.423 0 011.652-1.014.5.5 0 00.205-.979 2.354 2.354 0 00-1.248.086c-1.166-1.994-.939-3.96-.936-3.981a.502.502 0 00-.429-.562.503.503 0 00-.562.427c-.013.097-.28 2.316 1.063 4.614a2.376 2.376 0 00-.71 1.149zm11.179-2.47a1.069 1.069 0 011.455.015.502.502 0 00.707-.011.5.5 0 00-.01-.707 2.004 2.004 0 00-.797-.465c.296-1.016.179-1.467-.096-2.312a20.6 20.6 0 01-.157-.498l-.03-.1c-.364-1.208-.605-2.005.087-3.13a.5.5 0 00-.852-.524c-.928 1.508-.587 2.637-.192 3.944l.03.1c.059.194.113.364.163.517.247.761.322 1.016.02 1.936a2.022 2.022 0 00-1.01.504.5.5 0 00.682.731zm6.365-2.985a2 2 0 00.859-.191.5.5 0 00-.426-.905 1.072 1.072 0 01-1.384-.457.5.5 0 10-.881.472c.18.336.448.601.76.785-.537 1.305-.232 2.691.017 3.426a.5.5 0 10.947-.319c-.168-.498-.494-1.756-.002-2.826.038.002.073.015.11.015zm4.797 9.429a.497.497 0 00-.531-.467 1.825 1.825 0 01-1.947-1.703.509.509 0 00-.533-.465.502.502 0 00-.465.533c.041.59.266 1.122.608 1.555-.804.946-1.857 1.215-2.444 1.284-.519.062-.973.009-1.498-.053-.481-.055-1.025-.118-1.698-.098l-.005.001c-.02-.286-.088-.703-.305-1.05a.501.501 0 00-.847.531c.134.215.159.558.159.725-.504.181-.94.447-1.334.704-.704.458-1.259.82-2.094.632-.756-.173-1.513-.208-2.155-.118-.1-.251-.258-.551-.502-.782a.5.5 0 00-.687.727c.086.081.154.199.209.317-1.103.454-1.656 1.213-1.682 1.25a.499.499 0 00.407.788.502.502 0 00.406-.205c.005-.008.554-.743 1.637-1.04.56-.154 1.363-.141 2.146.037.219.05.422.067.619.07.093.218.129.477.134.573a.501.501 0 00.499.472l.027-.001a.5.5 0 00.473-.523 3.023 3.023 0 00-.13-.686c.461-.167.862-.428 1.239-.673.572-.373 1.113-.726 1.82-.749.592-.021 1.08.036 1.551.091.474.055.94.091 1.454.061.091.253.084.591.07.704a.503.503 0 00.497.563.5.5 0 00.495-.435 2.883 2.883 0 00-.059-.981 4.67 4.67 0 002.345-1.471 2.807 2.807 0 001.656.413.499.499 0 00.465-.531z"/></g></svg><svg viewBox="0 0 36 36" id="1FAC0" xmlns="http://www.w3.org/2000/svg"><path fill="#F4ABBA" d="M11.885 12.863c.117-2.127.233-2.966.1-4.537-.147-1.44-.397-2.495-.75-3.522s-3.313-.626-2.959 1.138c.353 1.764.593 6.809.451 8.45 1.548-.984 3.158-1.529 3.158-1.529z"/><path fill="#BE1931" d="M10.275 13.408c-2.139 1.07-4.278 3.209-4.278 6.417 0 8.735 7.83 10.749 14.248 12.888 6.417 2.139 7.181 1.578 9.283-.053 1.07-2.139.414-13.672-2.795-17.95-2.314-3.085-11.58-3.741-16.458-1.302z"/><path fill="#A0041E" d="M10.275 13.408c-2.139 1.07-4.278 3.209-4.278 6.417 0 8.735 9.83 13.581 13.353 14.415 6.275 1.486 9.108.559 10.177-1.58-1.783 1.113-9.316-.614-13.309-4.172-4.187-3.732-6.074-10.238-3.383-13.552.071-1.036-.118-1.587-.118-2.416-.886.228-1.713.523-2.442.888z"/><path fill="#EA596E" d="M12.836 14.936c-1.413-2.139-2.156-6.05.648-9.015 2.65-2.802 7.77-2.842 10.224.973 2.086 3.243.471 9.722.471 9.722s-4.804-4.98-6.248-2.649c-1.442 2.332-4.872 1.306-5.095.969z"/><path fill="#F4ABBA" d="M23.951 17.58c1.156-1.632 1.156-4.168 1.156-4.168s.323-1.489 3.701-.538c.33.093 1.339-1.479.707-1.718-2.296-.869-3.93-.309-3.93-.309s1.129-.835 2.772-1.033c.652-.079.123-1.37-.525-1.357-.7.014-1.337.184-2.092.514-.353.154-.72-.109-.852-.24-1.988-1.975-4.223-1.689-5.587-1.083-1.455.647-2.06 2.478-1.165 3.718s.013 2.178-.543 3.169c-.9 1.602 4.831 5.201 6.358 3.045z"/><path fill="#EA596E" d="M15.252 6.673c-.744-1.708-1.59-2.473-2.694-3.533s.751-2.384 1.943-1.236 2.296 3.312 2.473 3.842-1.278 1.945-1.722.927z"/><path fill="#EA596E" d="M16.219 4.228c1.134-.593 1.506-2.235 1.594-2.765.088-.53 1.722-.574 1.545.574s.013 1.919.013 1.919.87-1.483 1.753-2.234 1.896.443 1.41 1.142-.579 1.98-.35 2.433c.229.453-2.242 1.022-3.815.713-1.571-.308-2.15-1.782-2.15-1.782z"/><path fill="#F4ABBA" d="M12.718 10.765l-.031-.001a.5.5 0 01-.468-.53c.17-2.752 1.996-4.955 4.651-5.611 3.382-.833 5.454 1.144 5.54 1.229a.5.5 0 01-.697.716c-.071-.068-1.778-1.671-4.603-.974-2.256.558-3.748 2.359-3.893 4.702a.5.5 0 01-.499.469zm2.524-6.131a.5.5 0 01-.434-.25c-.006-.011-.649-1.11-1.576-1.705a.5.5 0 11.54-.841c1.135.729 1.872 1.994 1.902 2.047a.499.499 0 01-.432.749zm2.877-.71a.5.5 0 01-.477-.652c.001-.005.174-.555.278-1.513a.5.5 0 11.994.108c-.116 1.07-.312 1.686-.32 1.711a.498.498 0 01-.475.346zm2.443.177a.5.5 0 01-.423-.765 5.948 5.948 0 011.407-1.481.501.501 0 01.588.809 4.951 4.951 0 00-1.148 1.205.502.502 0 01-.424.232z"/><path fill="#F7DAE2" d="M24.106 14.346a.501.501 0 01-.494-.584l.046-.263c.355-2.029.662-3.782-2.016-4.932a.5.5 0 01.394-.919c3.404 1.461 2.962 3.991 2.606 6.023l-.045.259a.498.498 0 01-.491.416zm1.698-4.322a.375.375 0 01-.16-.714c.049-.023 1.217-.571 2.091-.594.208.029.379.159.385.365a.376.376 0 01-.365.385c-.715.019-1.779.517-1.79.522a.392.392 0 01-.161.036zm2.94 2.171a.473.473 0 01-.161-.027c-1.156-.395-2.344-.11-2.355-.107a.5.5 0 01-.241-.97c.06-.015 1.477-.361 2.919.131a.5.5 0 01-.162.973zm-17.843.417a.5.5 0 01-.5-.5c0-.043-.009-4.348-.731-6.565a.5.5 0 11.95-.309c.771 2.369.78 6.691.78 6.875a.498.498 0 01-.499.499z"/><g fill="#D84864"><path d="M7.85 25.525a.5.5 0 01-.488-.394c-.023-.106-.556-2.621.183-4.262.661-1.469 1.637-2.033 2.497-2.53 1.024-.592 1.764-1.019 1.911-2.855a.5.5 0 11.997.081c-.189 2.359-1.317 3.011-2.407 3.641-.801.463-1.557.899-2.085 2.074-.603 1.34-.122 3.616-.117 3.64a.5.5 0 01-.491.605zm12.412 3.253a.5.5 0 01-.249-.935c.02-.011 1.878-1.084 2.481-2.424.627-1.394.331-2.007-.116-2.935-.413-.856-.927-1.923-.776-3.8a.5.5 0 11.996.081c-.128 1.607.283 2.46.681 3.286.486 1.009.946 1.961.128 3.779-.738 1.64-2.811 2.833-2.898 2.883a.507.507 0 01-.247.065z"/><path d="M19.15 24.175a.501.501 0 01-.384-.18c-.39-.467-.476-1.242-.211-1.887.246-.598.736-.973 1.348-1.031.838-.08 1.566-.865 1.598-1.335a.498.498 0 01.532-.466.501.501 0 01.466.532c-.069 1.047-1.285 2.147-2.501 2.265-.239.022-.413.162-.518.415-.137.332-.078.708.054.866a.5.5 0 01-.384.821zm7.7 4.1a.5.5 0 01-.487-.613c.038-.162-.042-.503-.262-.816-.191-.271-.438-.449-.659-.475-1.191-.141-2.52-2.244-2.73-3.243a.5.5 0 11.979-.207c.186.879 1.338 2.395 1.869 2.456.514.061.997.378 1.359.894.368.522.528 1.142.419 1.616a.503.503 0 01-.488.388zm-2.95 4.95a.501.501 0 01-.364-.844c.68-.719.27-1.806-.399-2.512-.617-.651-1.721-2.397-1.198-3.639a.5.5 0 01.922.388c-.268.635.414 1.942 1.002 2.562 1.201 1.267 1.366 2.864.4 3.887a.494.494 0 01-.363.158zm-10.35-8.5a.5.5 0 01-.47-.669c.249-.69-.172-1.192-1.665-1.989-.839-.447-1.369-1.213-1.455-2.099-.074-.767.204-1.507.725-1.931a.499.499 0 11.631.775c-.261.212-.402.628-.36 1.059.031.322.193.92.93 1.312.965.516 2.761 1.474 2.135 3.21a.502.502 0 01-.471.332zm-1.05 4.55a.51.51 0 01-.122-.015c-1.124-.281-1.816-1.544-1.513-2.757.167-.666-1.047-2-1.555-2.149-1.384-.402-2.112-1.866-1.9-2.927a.5.5 0 11.98.195c-.094.47.236 1.491 1.2 1.771.922.27 2.576 2.028 2.245 3.352-.187.747.265 1.414.787 1.544a.5.5 0 01-.122.986zm1.24-10.438c-.556 0-1.116-.291-1.534-.807-.468-.579-.631-1.28-.425-1.831a.5.5 0 11.937.351c-.078.207.034.565.265.851.194.239.513.477.842.43a.5.5 0 01.149.989 1.674 1.674 0 01-.234.017z"/><path d="M12.003 22.208c-.191 0-.385-.04-.577-.136a.5.5 0 01.447-.895c.22.114.631-.112 1.029-.329.584-.317 1.247-.68 1.941-.385a.5.5 0 01-.388.922c-.25-.107-.67.122-1.077.343-.405.22-.883.48-1.375.48zm14.847 9.817a.499.499 0 01-.371-.835c.063-.071.095-.28.025-.528-.082-.29-.308-.642-.697-.759-.339-.102-.684-.013-1.049.08-.452.116-.963.249-1.481-.011a.5.5 0 01.447-.895c.173.085.41.033.785-.063.436-.111.98-.253 1.585-.068.661.198 1.174.738 1.373 1.446.159.57.067 1.119-.246 1.468a.497.497 0 01-.371.165zm1.15-12.5a.498.498 0 01-.462-.31c-.337-.817-.807-1.357-1.225-1.408-.34-.037-.623.257-.811.513-.753 1.027-2.606 1.037-3.481.898a.5.5 0 01.156-.988c.925.146 2.154-.004 2.519-.502.626-.853 1.281-.968 1.738-.914.8.097 1.539.833 2.027 2.02a.5.5 0 01-.461.691z"/></g></svg><svg viewBox="0 0 36 36" id="1FAC1" xmlns="http://www.w3.org/2000/svg"><path fill="#F4ABBA" d="M24.625 19.219L20 14.32V3a2 2 0 00-4 0v11.32l-4.625 4.9a1 1 0 101.249 1.561C12.625 20.781 16 17 18 17s5.375 3.781 5.375 3.781a1.001 1.001 0 001.25-1.562z"/><path fill="#EA596E" d="M24.781 19.625a1.001 1.001 0 01-1.406.156S20 16 18 16s-5.375 3.781-5.375 3.781A.995.995 0 0112 20a.996.996 0 01-.781-.375c-.033-.042-.044-.091-.07-.136A.993.993 0 0012 21c.219 0 .44-.071.624-.219C12.625 20.781 16 17 18 17s5.375 3.781 5.375 3.781a1.001 1.001 0 001.406-.156.997.997 0 00.07-1.136c-.026.045-.037.095-.07.136z"/><path fill="#DD2E44" d="M13.36 9.023c-.811-2.656-3.881-3.427-8.079 2.139-1.842 2.442-3.555 6.594-3.499 10.737.054 3.996-1.431 6.788-.065 10.59.633 1.762 6.119 2.911 10.158.416 1.691-1.044 2.792-2.257 2.495-3.98-.487-2.826-.495-4.843-.119-8.554.475-4.694.072-8.192-.891-11.348z"/><path fill="#EA596E" d="M13.36 9.023c-.811-2.656-3.881-3.427-8.079 2.139-1.842 2.442-3.555 6.594-3.499 10.737.054 3.996-1.431 6.788-.065 10.59 1.545-2.436 6 .178 10.04-2.317 1.691-1.044 2.28-3.56 2.242-4.693-.049-1.464.041-3.017.253-5.109.474-4.693.071-8.191-.892-11.347z"/><path fill="#DD2E44" d="M22 9.075c.04-2.777 3.003-3.141 7.459.958 2.483 2.284 4.044 6.757 4.871 11.584.832 4.856.387 10.182-.119 11.525-.614 1.628-5.371 2.294-8.673.119-2.128-1.401-3.455-3.863-3.03-6.772 1.129-7.723-.653-7.248-.508-17.414z"/><path fill="#EA596E" d="M22 9.075c.04-2.777 3.003-3.141 7.459.958 2.483 2.284 4.044 6.757 4.871 11.584.832 4.856.387 10.182-.119 11.525-.297-3.089-3.683-1.426-7.307-3.03-1.089-.482-1.515-.926-1.426-3.327.119-3.208-2.598-2.198-2.598-4.34.001-3.97-.994-5.397-.88-13.37zm-2.25-5.559a.467.467 0 01-.348-.155c-.012-.013-.444-.451-1.402-.451s-1.389.437-1.407.456a.47.47 0 01-.658.022.464.464 0 01-.032-.652c.07-.078.723-.761 2.097-.761s2.027.683 2.098.76a.468.468 0 01-.348.781zm0 3a.467.467 0 01-.348-.155c-.012-.013-.444-.451-1.402-.451s-1.389.437-1.407.456c-.177.185-.471.196-.658.022s-.203-.462-.032-.652c.07-.078.723-.761 2.097-.761s2.027.683 2.098.76a.468.468 0 01-.348.781zm0 3a.467.467 0 01-.348-.155c-.012-.013-.444-.451-1.402-.451s-1.389.437-1.407.456a.47.47 0 01-.658.022.464.464 0 01-.032-.652c.07-.078.723-.761 2.097-.761s2.027.683 2.098.76a.468.468 0 01-.348.781zm0 3a.467.467 0 01-.348-.155c-.012-.013-.444-.451-1.402-.451s-1.389.437-1.407.456c-.177.185-.471.196-.658.022s-.203-.462-.032-.652c.07-.078.723-.761 2.097-.761s2.027.683 2.098.76a.468.468 0 01-.348.781z"/></svg></svg>