<?xml version="1.0" encoding="utf-8"?><svg viewBox="0 0 36 36" xmlns="http://www.w3.org/2000/svg" xmlns:xlink="http://www.w3.org/1999/xlink"><style>:root>svg{display:none}:root>svg:target{display:block}</style><svg viewBox="0 0 36 36" id="1F374" xmlns="http://www.w3.org/2000/svg"><path fill="#99AAB5" d="M19 1.5a1.5 1.5 0 10-3 0V11a1 1 0 01-2 0V1.5a1.5 1.5 0 10-3 0V11a1 1 0 01-2 0V1.5a1.5 1.5 0 10-3 0v9c0 .127.021.249.051.367-.03.207-.051.417-.051.633 0 2.316 1.75 5.957 4 6.442V33.5a2.5 2.5 0 105 0V17.942c2.25-.485 4-4.126 4-6.442 0-.216-.021-.426-.051-.633.03-.118.051-.24.051-.367v-9zM27.5 0c-.104 0-.204.019-.306.031C27.13.021 27.067 0 27 0c-2.209 0-5 5.477-5 11 0 4.658 1.275 8.56 3 9.672V33.5a2.5 2.5 0 105 0v-31A2.5 2.5 0 0027.5 0z"/></svg><svg viewBox="0 0 36 36" id="1F37D" xmlns="http://www.w3.org/2000/svg"><path fill="#E1E8ED" d="M36 18c0 9.941-8.059 18-18 18S0 27.941 0 18 8.059 0 18 0s18 8.059 18 18z"/><path fill="#CCD6DD" d="M30 18c0 6.628-5.372 12-12 12S6 24.628 6 18 11.372 6 18 6s12 5.372 12 12z"/><path fill="#E1E8ED" d="M29 18c0 6.075-4.925 11-11 11-6.076 0-11-4.925-11-11 0-6.076 4.925-11 11-11s11 4.924 11 11z"/><g fill="#99AAB5"><circle cx="1" cy="1" r="1"/><path d="M0 1h2v7H0z"/><circle cx="5" cy="1" r="1"/><path d="M4 1h2v7H4z"/><circle cx="9" cy="1" r="1"/><path d="M8 1h2v7H8zM3 14h4v20H3z"/><circle cx="5" cy="34" r="2"/><path d="M8 8a1 1 0 01-2 0H4a1 1 0 01-2 0H0c0 3.866 1 7 5 7s5-3.134 5-7H8z"/><circle cx="1" cy="8" r="1"/><circle cx="5" cy="8" r="1"/><circle cx="9" cy="8" r="1"/></g><g fill="#99AAB5"><path d="M30 14h4v20h-4z"/><circle cx="32" cy="34" r="2"/><path d="M32 0c1 0 2 1 2 3v16s-7 2-7-8c0-6 3-11 5-11z"/></g></svg><svg viewBox="0 0 36 36" id="1F3FA" xmlns="http://www.w3.org/2000/svg"><path fill="#C1694F" d="M27.843 11.9c.205-.371.39-.766.548-1.183 1.209-3.187.467-6.423-1.658-7.229-1.588-.602-3.499.326-4.868 2.164-.397-1.141-.548-2.209-.092-2.652h-8.228c.455.443.304 1.511-.093 2.652-1.369-1.838-3.28-2.766-4.868-2.164-2.125.806-2.868 4.042-1.659 7.229.158.418.344.812.548 1.183-1.184 1.166-2.157 2.879-2.157 5.563 0 6.17 8.227 13.39 9.256 15.447-.126.045 6.297.045 6.171 0C21.773 30.852 30 23.633 30 17.462c0-2.683-.973-4.396-2.157-5.562zM11.488 9.214c-.382.382-1.333.768-2.377 1.418a4.641 4.641 0 01-.299-.631c-.617-1.624-.237-3.272.845-3.683.931-.354 2.076.329 2.772 1.559-.335.585-.673 1.069-.941 1.337zm15.017.787a4.712 4.712 0 01-.299.632c-1.044-.65-1.995-1.036-2.377-1.418-.268-.268-.606-.753-.94-1.337.695-1.23 1.841-1.913 2.772-1.559 1.081.41 1.461 2.058.844 3.682z"/><path fill="#272B2B" d="M18.546 31.747H16.63c-2.057 0-5.142.971-5.142 3.027 0 1.029 3.942 1.143 6.085 1.143h.032c2.143 0 6.084-.113 6.084-1.143-.001-2.056-3.085-3.027-5.143-3.027zM30 17.462c0-2.611-.923-4.299-2.063-5.462H7.38c-1.14 1.163-2.063 2.852-2.063 5.462 0 1.481.481 3.022 1.216 4.538h22.251C29.519 20.484 30 18.943 30 17.462zM23.688 1.373c0-1.011-3.808-1.159-5.972-1.164H17.6c-2.164.005-5.972.152-5.972 1.164 0 2.013 3.796 2.942 5.887 2.982h.285c2.093-.041 5.888-.97 5.888-2.982z"/><path fill="#C1694F" d="M13.031 20H10.46c-.284 0-.514-.216-.514-.5s.23-.5.514-.5H13v-4H9v1h2.488c.284 0 .514.216.514.5s-.23.5-.514.5H9.062C8.521 17 8 16.854 8 16.229v-1.315c0-.726.604-.914.888-.914h4.143c.698 0 .969.479.969.915v4.114c0 .617-.458.971-.969.971zm14 0h-2.572c-.283 0-.514-.216-.514-.5s.231-.5.514-.5H27v-4h-4v1h2.488c.283 0 .514.216.514.5s-.231.5-.514.5h-2.426c-.541 0-1.062-.146-1.062-.771v-1.315c0-.726.604-.914.889-.914h4.143c.697 0 .968.479.968.915v4.114c0 .617-.458.971-.969.971zm-7 0h-2.572c-.283 0-.514-.216-.514-.5s.231-.5.514-.5H20v-4h-4v1h2.488c.283 0 .514.216.514.5s-.231.5-.514.5h-2.426c-.541 0-1.062-.146-1.062-.771v-1.315c0-.726.604-.914.889-.914h4.143c.697 0 .968.479.968.915v4.114c0 .617-.458.971-.969.971z"/></svg><svg viewBox="0 0 36 36" id="1F52A" xmlns="http://www.w3.org/2000/svg"><path fill="#CCD6DD" d="M35.875 34.604L19.796 15.113s-5.637 3.692-7.689 9.676c0 0 4.667 5.292 9.79 8.225 6.368 3.646 11.642 2.855 13.703 2.391a.496.496 0 00.275-.801z"/><path fill="#AAB8C2" d="M18.071 13.005l-4.035 3.559c.066.028.316.45.174 1.107-.402 1.865-2.346 4.288-2.974 5.098-.194.25-.224.691.026 1.007l.845 1.013c1.821-3.964 6.556-8.694 7.689-9.676l-1.725-2.108z"/><path fill="#31373D" d="M18.071 13.005s-3.32-4.216-5.763-6.986S8.208 1.658 6.625.64C5.01-.398 3.285.205 1.981 1.354S-.722 5.082.787 6.793c.826.937 2.785.078 3.791 1.219.683.774 1.031 1.365 3.464 3.859 3.759 3.854 5.994 4.692 5.994 4.692s1.251-1.042 1.932-1.648a222.19 222.19 0 002.103-1.91z"/><circle cx="11.618" cy="10.543" r="1.365" fill="#F5F8FA"/><circle cx="5.903" cy="4.653" r="1.365" fill="#F5F8FA"/></svg><svg viewBox="0 0 36 36" id="1F944" xmlns="http://www.w3.org/2000/svg"><path fill="#99AAB5" d="M24 10c0-4.971-2.91-10-6.5-10S11 5.029 11 10c0 3.744 1.651 6.385 4 7.461V33.5a2.5 2.5 0 105 0V17.461c2.349-1.076 4-3.717 4-7.461z"/></svg><svg viewBox="0 0 36 36" id="1F962" xmlns="http://www.w3.org/2000/svg"><path fill="#C1694F" d="M2.38 33.16c-.512-.324 1.13-3.04 1.453-3.577L20.039 1.78C20.972.231 21.976.229 22.886.806c.91.577 1.336 1.485.334 2.99L5.083 30.25c-.347.521-2.191 3.234-2.703 2.91z"/><path fill="#662113" d="M22.885.805c-.91-.577-1.913-.575-2.846.974l-3.356 5.758c.335.921 1.924 1.75 2.901 1.562l3.636-5.304c1.002-1.505.575-2.413-.335-2.99z"/><path fill="#C1694F" d="M5.584 35.198c-.414-.443 1.885-2.593 2.333-3.031l22.649-22.9c1.293-1.265 2.265-1.014 3-.227.736.787.92 1.773-.429 2.978L8.542 33.33c-.468.417-2.545 2.311-2.958 1.868z"/><path fill="#662113" d="M33.566 9.04c-.736-.787-1.707-1.037-3 .227l-4.576 4.627c.057.93 1.498 2.183 2.376 2.259l4.772-4.135c1.348-1.205 1.164-2.191.428-2.978z"/></svg></svg>