<?xml version="1.0" encoding="utf-8"?><svg viewBox="0 0 36 36" xmlns="http://www.w3.org/2000/svg" xmlns:xlink="http://www.w3.org/1999/xlink"><style>:root>svg{display:none}:root>svg:target{display:block}</style><svg viewBox="0 0 36 36" id="1F60E" xmlns="http://www.w3.org/2000/svg"><path fill="#FFCC4D" d="M36 18c0 9.941-8.059 18-18 18S0 27.941 0 18 8.059 0 18 0s18 8.059 18 18"/><path fill="#292F33" fill-rule="evenodd" d="M1.24 11.018c.24.239 1.438.957 1.677 1.675.24.717.72 4.784 2.158 5.981 1.483 1.232 7.077.774 8.148.24 2.397-1.195 2.691-4.531 3.115-6.221.239-.957 1.677-.957 1.677-.957s1.438 0 1.678.956c.424 1.691.72 5.027 3.115 6.221 1.072.535 6.666.994 8.151-.238 1.436-1.197 1.915-5.264 2.155-5.982.238-.717 1.438-1.435 1.677-1.674.241-.239.241-1.196 0-1.436-.479-.478-6.134-.904-12.223-.239-1.215.133-1.677.478-4.554.478-2.875 0-3.339-.346-4.553-.478-6.085-.666-11.741-.24-12.221.238-.239.239-.239 1.197 0 1.436z" clip-rule="evenodd"/><path fill="#664500" d="M27.335 23.629a.501.501 0 00-.635-.029c-.039.029-3.922 2.9-8.7 2.9-4.766 0-8.662-2.871-8.7-2.9a.5.5 0 00-.729.657C8.7 24.472 11.788 29.5 18 29.5s9.301-5.028 9.429-5.243a.499.499 0 00-.094-.628z"/></svg><svg viewBox="0 0 36 36" id="1F913" xmlns="http://www.w3.org/2000/svg"><circle cx="18" cy="18" r="18" fill="#FFCC4D"/><path fill="#664500" d="M27.335 23.629a.501.501 0 00-.635-.029c-.039.029-3.922 2.9-8.7 2.9-4.766 0-8.662-2.871-8.7-2.9a.5.5 0 00-.729.657C8.7 24.472 11.788 29.5 18 29.5s9.301-5.028 9.429-5.243a.499.499 0 00-.094-.628z"/><path fill="#65471B" d="M18 26.591c-.148 0-.291-.011-.438-.016v4.516h.875v-4.517c-.145.005-.289.017-.437.017z"/><path fill="#FFF" d="M22 26c.016-.004-1.45.378-2.446.486-.366.042-.737.076-1.117.089v4.517H20c1.1 0 2-.9 2-2V26zm-8 0c-.016-.004 1.45.378 2.446.486.366.042.737.076 1.117.089v4.517H16c-1.1 0-2-.9-2-2V26z"/><path fill="#65471B" d="M27.335 23.629a.501.501 0 00-.635-.029c-.03.022-2.259 1.668-5.411 2.47-.443.113-1.864.43-3.286.431-1.424 0-2.849-.318-3.292-.431-3.152-.802-5.381-2.448-5.411-2.47a.501.501 0 00-.729.657c.097.162 1.885 3.067 5.429 4.481v-1.829c-.016-.004 1.45.378 2.446.486.366.042.737.076 1.117.089.146.005.289.016.437.016.148 0 .291-.011.438-.016.38-.013.751-.046 1.117-.089.996-.108 2.462-.49 2.446-.486v1.829c3.544-1.414 5.332-4.319 5.429-4.481a.5.5 0 00-.095-.628zm-.711-9.605c0 1.714-.938 3.104-2.096 3.104-1.157 0-2.096-1.39-2.096-3.104s.938-3.104 2.096-3.104c1.158 0 2.096 1.39 2.096 3.104zm-17.167 0c0 1.714.938 3.104 2.096 3.104 1.157 0 2.096-1.39 2.096-3.104s-.938-3.104-2.096-3.104c-1.158 0-2.096 1.39-2.096 3.104z"/><path fill="#292F33" d="M34.808 9.627c-.171-.166-1.267.274-2.376-.291-2.288-1.166-8.07-2.291-11.834.376-.403.285-2.087.333-2.558.313-.471.021-2.155-.027-2.558-.313-3.763-2.667-9.545-1.542-11.833-.376-1.109.565-2.205.125-2.376.291-.247.239-.247 1.196.001 1.436.246.239 1.477.515 1.722 1.232.247.718.249 4.958 2.213 6.424 1.839 1.372 6.129 1.785 8.848.238 2.372-1.349 2.289-4.189 2.724-5.881.155-.603.592-.907 1.26-.907s1.105.304 1.26.907c.435 1.691.351 4.532 2.724 5.881 2.719 1.546 7.009 1.133 8.847-.238 1.965-1.465 1.967-5.706 2.213-6.424.245-.717 1.476-.994 1.722-1.232.248-.24.249-1.197.001-1.436zm-20.194 3.65c-.077 1.105-.274 3.227-1.597 3.98-.811.462-1.868.743-2.974.743h-.001c-1.225 0-2.923-.347-3.587-.842-.83-.619-1.146-3.167-1.265-4.12-.076-.607-.28-2.09.388-2.318 1.06-.361 2.539-.643 4.052-.643.693 0 3.021.043 4.155.741 1.005.617.872 1.851.829 2.459zm16.278-.253c-.119.954-.435 3.515-1.265 4.134-.664.495-2.362.842-3.587.842h-.001c-1.107 0-2.163-.281-2.975-.743-1.323-.752-1.52-2.861-1.597-3.966-.042-.608-.176-1.851.829-2.468 1.135-.698 3.462-.746 4.155-.746 1.513 0 2.991.277 4.052.638.668.228.465 1.702.389 2.309z"/></svg><svg viewBox="0 0 36 36" id="1F9D0" xmlns="http://www.w3.org/2000/svg"><path fill="#FFCB4C" d="M36 18c0 9.941-8.059 18-18 18-9.94 0-18-8.059-18-18C0 8.06 8.06 0 18 0c9.941 0 18 8.06 18 18"/><ellipse cx="12.176" cy="14.71" fill="#65471B" rx="2.647" ry="3.706"/><circle cx="24.882" cy="14.294" r="6.882" fill="#F4F7F9"/><path fill="#65471B" d="M14.825 9.946c-.322 0-.64-.146-.848-.423-.991-1.321-2.028-2.029-3.083-2.104-1.39-.095-2.523.947-2.734 1.158A1.057 1.057 0 116.663 7.08c.457-.457 2.129-1.936 4.381-1.773 1.695.12 3.251 1.111 4.627 2.945a1.059 1.059 0 01-.846 1.694z"/><path fill="#292F33" d="M32.824 36a1.059 1.059 0 01-1.059-1.059V14.824a1.059 1.059 0 112.118 0v20.118A1.06 1.06 0 0132.824 36z"/><path fill="#67757F" d="M32.824 12.706c-.054 0-.105.012-.158.016-.732-3.628-3.943-6.369-7.784-6.369-4.379 0-7.941 3.562-7.941 7.941s3.562 7.941 7.941 7.941c3.468 0 6.416-2.238 7.496-5.343a2.118 2.118 0 10.446-4.186zm-7.942 7.412c-3.211 0-5.823-2.612-5.823-5.824s2.613-5.824 5.823-5.824c3.211 0 5.824 2.612 5.824 5.824s-2.613 5.824-5.824 5.824z"/><path fill="#65471B" d="M21.175 28.588c-.159 0-.321-.036-.473-.112-1.819-.91-3.587-.91-5.406 0a1.059 1.059 0 11-.947-1.895c2.421-1.21 4.877-1.21 7.3 0a1.06 1.06 0 01-.474 2.007z"/><path fill="#BDDDF4" d="M28.049 9.411a5.788 5.788 0 00-3.167-.94 5.824 5.824 0 00-5.824 5.824c0 1.169.348 2.255.94 3.167l8.051-8.051zm-5.652 10.144a5.794 5.794 0 002.485.563 5.824 5.824 0 005.824-5.824c0-.89-.206-1.731-.563-2.485l-7.746 7.746z"/></svg></svg>