<?xml version="1.0" encoding="utf-8"?><svg viewBox="0 0 36 36" xmlns="http://www.w3.org/2000/svg" xmlns:xlink="http://www.w3.org/1999/xlink"><style>:root>svg{display:none}:root>svg:target{display:block}</style><svg viewBox="0 0 36 36" id="1F60C" xmlns="http://www.w3.org/2000/svg"><path fill="#FFCC4D" d="M36 18c0 9.941-8.059 18-18 18S0 27.941 0 18 8.059 0 18 0s18 8.059 18 18"/><path fill="#664500" d="M28.312 15.612a.503.503 0 00-.61-.014c-.012.009-1.261.902-3.702.902-2.44 0-3.69-.893-3.7-.9a.5.5 0 00-.757.603c.06.135 1.5 3.297 4.457 3.297 2.958 0 4.397-3.162 4.457-3.297a.498.498 0 00-.145-.591zm-12.61-.014c-.012.009-1.26.902-3.702.902-2.441 0-3.69-.893-3.7-.9a.5.5 0 00-.757.603c.06.135 1.5 3.297 4.457 3.297 2.958 0 4.397-3.162 4.457-3.297a.501.501 0 00-.755-.605zM29.001 13a.998.998 0 01-.801-.4c-2.592-3.456-6.961-2.628-7.004-2.62a.998.998 0 01-1.177-.784 1.001 1.001 0 01.784-1.177c.231-.047 5.657-1.072 8.996 3.38A1 1 0 0129.001 13zM6.999 13a1 1 0 01-.799-1.6c3.339-4.454 8.766-3.426 8.996-3.38a1.001 1.001 0 01-.39 1.962C14.62 9.947 10.37 9.174 7.8 12.6a.998.998 0 01-.801.4zm16.255 10.577a.513.513 0 00-.597.06c-.01.008-1.013.863-4.657.863-3.641 0-4.646-.854-4.646-.854a.5.5 0 00-.838.475c.01.044 1.144 4.379 5.484 4.379s5.474-4.335 5.485-4.379a.497.497 0 00-.231-.544z"/></svg><svg viewBox="0 0 36 36" id="1F614" xmlns="http://www.w3.org/2000/svg"><path fill="#FFCC4D" d="M36 18c0 9.941-8.059 18-18 18-9.94 0-18-8.059-18-18C0 8.06 8.06 0 18 0c9.941 0 18 8.06 18 18"/><path fill="#664500" d="M17.312 17.612a.501.501 0 00-.61-.014c-.012.009-1.26.902-3.702.902-2.441 0-3.69-.893-3.7-.9a.5.5 0 00-.757.603c.06.135 1.5 3.297 4.457 3.297 2.958 0 4.397-3.162 4.457-3.297a.498.498 0 00-.145-.591zm10 0a.5.5 0 00-.61-.014c-.012.009-1.261.902-3.702.902-2.44 0-3.69-.893-3.7-.9a.5.5 0 00-.757.603c.06.135 1.5 3.297 4.457 3.297 2.958 0 4.397-3.162 4.457-3.297a.498.498 0 00-.145-.591zM22 28h-8a1 1 0 110-2h8a1 1 0 110 2zM6 14a1 1 0 01-.004-2c.156-.002 3.569-.086 6.205-3.6a1 1 0 011.6 1.2C10.538 13.95 6.184 14 6 14zm24 0c-.184 0-4.537-.05-7.8-4.4a1 1 0 111.599-1.2c2.641 3.521 6.061 3.599 6.206 3.6.55.006.994.456.991 1.005A.996.996 0 0130 14z"/></svg><svg viewBox="0 0 36 36" id="1F62A" xmlns="http://www.w3.org/2000/svg"><path fill="#FFCC4D" d="M36 18c0 9.941-8.059 18-18 18S0 27.941 0 18 8.059 0 18 0s18 8.059 18 18"/><path fill="#664500" d="M23.485 28.879C23.474 28.835 22.34 24.5 18 24.5s-5.474 4.335-5.485 4.379a.496.496 0 00.232.544.51.51 0 00.596-.06c.009-.008 1.013-.863 4.657-.863 3.59 0 4.617.83 4.656.863a.5.5 0 00.829-.484zm-7.782-11.281c-.013.009-1.262.902-3.703.902-2.442 0-3.69-.893-3.7-.9a.499.499 0 00-.716.678c.061.09 1.515 2.222 4.416 2.222 2.9 0 4.355-2.132 4.416-2.223a.5.5 0 00-.713-.679zm12.642.042a.5.5 0 00-.643-.042c-.012.009-1.262.902-3.702.902-2.441 0-3.69-.893-3.7-.9a.499.499 0 00-.716.678c.061.09 1.515 2.222 4.416 2.222 2.9 0 4.355-2.132 4.416-2.223a.498.498 0 00-.071-.637zM31.001 16a.998.998 0 01-.801-.4c-2.641-3.521-6.061-3.599-6.206-3.6a1.002 1.002 0 01-.991-1.005A.997.997 0 0124 10c.184 0 4.537.05 7.8 4.4a1 1 0 01-.799 1.6zM4.999 16a1 1 0 01-.799-1.6C7.462 10.05 11.816 10 12 10a1 1 0 01.004 2c-.156.002-3.569.086-6.205 3.6a.995.995 0 01-.8.4z"/><path fill="#5DADEC" d="M23 23c6.211 0 13 4 13 9 0 4-3 4-3 4-8 0-1-9-10-13z"/></svg><svg viewBox="0 0 36 36" id="1F634" xmlns="http://www.w3.org/2000/svg"><circle cx="18" cy="18" r="18" fill="#FFCC4D"/><circle cx="18" cy="26" r="3" fill="#664500"/><path fill="#664500" d="M17.312 16.612a.501.501 0 00-.61-.014c-.012.009-1.26.902-3.702.902-2.441 0-3.69-.893-3.7-.9a.5.5 0 00-.757.603c.06.135 1.5 3.297 4.457 3.297 2.958 0 4.397-3.162 4.457-3.297a.498.498 0 00-.145-.591zm10 0a.5.5 0 00-.61-.014c-.012.009-1.261.902-3.702.902-2.44 0-3.69-.893-3.7-.9a.5.5 0 00-.757.603c.06.135 1.5 3.297 4.457 3.297 2.958 0 4.397-3.162 4.457-3.297a.498.498 0 00-.145-.591z"/><path fill="#FFAC33" d="M34.43 12.534c.004-.044.023-.077.023-.123 0-.754-.548-1.188-1.225-1.188h-3.582l4.279-5.993c.206-.283.282-.453.282-.811 0-.735-.64-.849-.885-.849h-5.349l-.032-.688s-1.409.831-1.503.888-.505.372-.505.987c0 .754.546 1.187 1.225 1.187h3.149l-4.261 5.993c-.094.151-.244.433-.244.735 0 .622.508.924 1.111.924h6.315c.258 0 .515-.076.681-.176l1.503-.888h-.982z"/><path fill="#2A6797" d="M31.771 5.084h-3.149c-.679 0-1.225-.433-1.225-1.187s.546-1.188 1.225-1.188h6.164c.245 0 .885.113.885.848 0 .358-.076.528-.282.811l-4.279 5.993h3.582c.677 0 1.225.433 1.225 1.187s-.548 1.187-1.225 1.187h-6.315c-.603 0-1.111-.302-1.111-.924 0-.302.15-.584.244-.735l4.261-5.992z"/><path fill="#FFAC33" d="M24.886 7.48c.003-.033.018-.058.018-.092 0-.564-.41-.889-.917-.889h-2.682l3.203-4.487c.156-.212.212-.339.212-.606 0-.55-.479-.635-.663-.635h-4.004l-.024-.515s-1.055.622-1.125.665a.882.882 0 00-.378.739c0 .564.409.889.917.889H21.8l-3.19 4.487c-.07.113-.183.324-.183.55 0 .466.38.691.832.691h4.728c.193 0 .385-.057.51-.132l1.125-.665h-.736z"/><path fill="#2A6797" d="M22.896 1.903h-2.357c-.508 0-.917-.324-.917-.889 0-.564.409-.889.917-.889h4.615c.184 0 .663.085.663.635 0 .268-.057.395-.211.607l-3.203 4.487h2.682c.505 0 .915.324.915.889s-.41.889-.917.889h-4.728c-.452 0-.832-.226-.832-.691 0-.226.113-.437.183-.55l3.19-4.488z"/><path fill="#FFAC33" d="M17.741 10.425c.003-.028.015-.049.015-.079 0-.483-.351-.761-.785-.761h-2.295l2.742-3.84c.132-.181.181-.29.181-.519 0-.471-.41-.544-.567-.544h-3.427l-.021-.441-.963.569a.754.754 0 00-.324.633c0 .483.35.761.785.761h2.017l-2.73 3.84c-.06.097-.157.278-.157.471 0 .399.326.592.712.592h4.047c.165 0 .33-.049.436-.113l.963-.569h-.629z"/><path fill="#2A6797" d="M16.037 5.652H14.02c-.435 0-.785-.278-.785-.761s.35-.761.785-.761h3.95c.157 0 .567.073.567.544 0 .229-.048.338-.181.519l-2.742 3.84h2.295c.434 0 .785.278.785.761s-.351.761-.785.761h-4.047c-.386 0-.712-.193-.712-.592 0-.193.096-.374.157-.471l2.73-3.84z"/></svg><svg viewBox="0 0 36 36" id="1F924" xmlns="http://www.w3.org/2000/svg"><circle cx="18" cy="18" r="18" fill="#FFCC4D"/><path fill="#664500" d="M22.5 25H18c-5.6 0-7-1-7-1s1.267 3.594 6.179 3.963c.104.023.211.037.321.037H22c.825 0 2-1.175 2-2s-.675-1-1.5-1zm-6.687-7.112a.501.501 0 01-.61.014C15.19 17.892 13.942 17 11.5 17c-2.441 0-3.69.893-3.7.9a.5.5 0 01-.757-.603C7.103 17.162 8.543 14 11.5 14c2.958 0 4.397 3.162 4.457 3.297a.499.499 0 01-.144.591zm12.999 0a.5.5 0 01-.61.014C28.19 17.892 26.941 17 24.5 17c-2.44 0-3.69.893-3.7.9a.5.5 0 01-.757-.603c.059-.135 1.5-3.297 4.457-3.297 2.958 0 4.398 3.162 4.457 3.297a.498.498 0 01-.145.591zM13.114 6.002A1 1 0 0113.041 8c-.156-.004-3.57-.052-6.339 3.357a1 1 0 01-1.552-1.262c3.428-4.219 7.78-4.1 7.964-4.093zm9.403 1.672c.181-.033 4.473-.763 8.461 2.933a.997.997 0 01.053 1.413.998.998 0 01-1.413.054c-3.228-2.992-6.608-2.456-6.75-2.432a.999.999 0 01-.351-1.968z"/><path fill="#88C9F9" d="M23 26h-3c-.55 0-1 .45-1 1v4c0 .55.45 1 1 1s1-.45 1-1v3.5c0 .825.675 1.5 1.5 1.5s1.5-.675 1.5-1.5V27c0-.55-.45-1-1-1z"/></svg></svg>