<?xml version="1.0" encoding="utf-8"?><svg viewBox="0 0 36 36" xmlns="http://www.w3.org/2000/svg" xmlns:xlink="http://www.w3.org/1999/xlink"><style>:root>svg{display:none}:root>svg:target{display:block}</style><svg viewBox="0 0 36 36" id="1F358" xmlns="http://www.w3.org/2000/svg"><circle cx="18" cy="18" r="17" fill="#C1694F"/><path fill="#E29386" d="M27.258 27.642a1.012 1.012 0 01-1.144-1.669l1.67-1.144a1.01 1.01 0 011.142 1.668l-1.668 1.145zm2.438-7.095a.998.998 0 01-.549-1.303 1.002 1.002 0 011.304-.549l1.852.755a1 1 0 11-.755 1.852l-1.852-.755zm-4.494-5.256a1.008 1.008 0 01-.555-1.318 1.01 1.01 0 011.316-.556l1.875.764a1.012 1.012 0 01-.764 1.873l-1.872-.763zm-21.001 7a1.012 1.012 0 01.763-1.874l1.873.764a1.012 1.012 0 01-.762 1.874l-1.874-.764zm3.557-6.149a1.011 1.011 0 01-1.144-1.669l1.67-1.144a1.01 1.01 0 111.142 1.669l-1.668 1.144zm9.028 3.739a1.5 1.5 0 111.132-2.779l2.778 1.134a1.499 1.499 0 11-1.132 2.777l-2.778-1.132zm-6.184 6.052a1.011 1.011 0 11.718 1.889l-1.892.721a1.008 1.008 0 01-1.302-.586c-.2-.524.062-1.107.585-1.307l1.891-.717z"/><path fill="#292F33" d="M24 19H12a2 2 0 00-2 2v11.998A16.914 16.914 0 0018 35c2.893 0 5.615-.727 8-2.002V21a2 2 0 00-2-2z"/></svg><svg viewBox="0 0 36 36" id="1F359" xmlns="http://www.w3.org/2000/svg"><path fill="#EEE" d="M35 26c0 9.389-7.609 9-17 9s-17 .389-17-9C1 18 9 7 14 3c2.75-2 5.129-2.051 8 0 7 5 13 18 13 23z"/><path fill="#CCD6DD" d="M27.258 29.642a1.012 1.012 0 01-1.144-1.669l1.67-1.144a1.01 1.01 0 011.142 1.668l-1.668 1.145zm2.438-7.095a1 1 0 11.755-1.852l1.852.755a1 1 0 11-.755 1.852l-1.852-.755zm-4.494-5.256a1.008 1.008 0 01-.555-1.318 1.01 1.01 0 011.316-.556l1.875.764a1.012 1.012 0 01-.764 1.873l-1.872-.763zm-21.001 7a1.012 1.012 0 01.763-1.874l1.873.764a1.012 1.012 0 01-.762 1.874l-1.874-.764zm3.557-6.149a1.011 1.011 0 01-1.144-1.669l1.67-1.144a1.01 1.01 0 111.142 1.669l-1.668 1.144zm9.028 3.739a1.5 1.5 0 111.132-2.779l2.778 1.134a1.499 1.499 0 11-1.132 2.777l-2.778-1.132zm-6.184 6.052a1.011 1.011 0 11.718 1.889l-1.892.721a1.008 1.008 0 01-1.302-.586c-.2-.524.062-1.107.585-1.307l1.891-.717z"/><path fill="#292F33" d="M24 21H12a2 2 0 00-2 2v11.812c2.384.224 5.107.188 8 .188s5.616.036 8-.188V23a2 2 0 00-2-2z"/></svg><svg viewBox="0 0 36 36" id="1F35A" xmlns="http://www.w3.org/2000/svg"><path fill="#DD2E44" d="M18 36C3.042 36 1 21 1 17h34c0 2-1.958 19-17 19z"/><ellipse cx="18" cy="17.056" fill="#A0041E" rx="17" ry="9.444"/><path fill="#E6E9EA" d="M18 25c-6 0-16-3-16-8C2 11 8.125 4 18 4s16 8 16 13-9 8-16 8z"/><path fill="#CCD6DD" d="M15.41 19.892a1 1 0 11-1.302 1.518l-1.519-1.302a1 1 0 111.302-1.518l1.519 1.302zm-8.127-1.507a1.001 1.001 0 01-1.669-1.103l1.103-1.669a1 1 0 011.669 1.103l-1.103 1.669zm23 0a1 1 0 11-1.669-1.103l1.103-1.669a1 1 0 011.669 1.103l-1.103 1.669zm-6.103-3.606a1.001 1.001 0 01-1.96.4l-.399-1.96a.999.999 0 111.959-.399l.4 1.959zm-7.54-3.958a.674.674 0 11.508-1.249l1.249.509a.673.673 0 11-.509 1.248l-1.248-.508zm-9.296 1.567a.674.674 0 11-.763-1.112l1.113-.762a.675.675 0 01.762 1.113l-1.112.761zm13.593 8.545a1.001 1.001 0 01.129-1.997l1.997.131a1 1 0 01-.129 1.995l-1.997-.129zm-9.241-6.386a1 1 0 11.755-1.853l1.853.755a1 1 0 11-.755 1.852l-1.853-.754zm15.945-2.726a.675.675 0 01.508-1.249l1.25.509a.673.673 0 11-.51 1.248l-1.248-.508z"/></svg><svg viewBox="0 0 36 36" id="1F35B" xmlns="http://www.w3.org/2000/svg"><ellipse cx="18" cy="23" fill="#939598" rx="18" ry="10"/><ellipse cx="18" cy="21" fill="#F1F2F2" rx="18" ry="10"/><ellipse cx="18" cy="20.611" fill="#F4900C" rx="14.8" ry="7.611"/><path fill="#EEE" d="M13 24c-3.75 0-10-2.062-10-5.5 0-4.125 3.828-8.938 10-8.938 6.172 0 10 5.5 10 8.938S17.375 24 13 24z"/><path fill="#CCD6DD" d="M4.64 18.821a.674.674 0 11.508-1.249l1.249.509a.673.673 0 11-.509 1.249l-1.248-.509zm3.704-3.433a.674.674 0 11-.763-1.112l1.113-.762a.675.675 0 01.762 1.113l-1.112.761zm9 5a.674.674 0 11-.763-1.113l1.113-.762a.674.674 0 11.762 1.112l-1.112.763zm-5.648-1.841a1 1 0 11.755-1.853l1.853.755a1 1 0 11-.755 1.852l-1.853-.754zm4.945-3.726a.675.675 0 01.508-1.249l1.25.509a.673.673 0 11-.51 1.248l-1.248-.508zm-5.734 5.761a.675.675 0 11.479 1.259l-1.261.481a.672.672 0 01-.868-.391.673.673 0 01.39-.871l1.26-.478z"/><path fill="#FFD983" d="M30 19a2 2 0 01-2 2h-1a2 2 0 010-4h1a2 2 0 012 2zm-3 4.5a1.5 1.5 0 01-1.5 1.5h-1a1.5 1.5 0 010-3h1a1.5 1.5 0 011.5 1.5zM21 26a1 1 0 01-1 1h-1a1 1 0 110-2h1a1 1 0 011 1z"/></svg><svg viewBox="0 0 36 36" id="1F35C" xmlns="http://www.w3.org/2000/svg"><path fill="#CCD6DD" d="M18 36C3.042 36 1 22 1 18h34c0 2-1.958 18-17 18z"/><path fill="#99AAB5" d="M35 17.056c0 5.216-7.611 9.444-17 9.444S1 22.271 1 17.056c0-5.216 7.611-8.444 17-8.444 9.389-.001 17 3.228 17 8.444z"/><path fill="#EA596E" d="M19.5 33H17a.5.5 0 010-1h2v-3h-4v1h3a.5.5 0 010 1h-3.5a.5.5 0 01-.5-.5v-2a.5.5 0 01.5-.5h5a.5.5 0 01.5.5v4a.5.5 0 01-.5.5zm5.5-1a.5.5 0 01-.186-.964l2.176-.871-.065-2.249-3.925.975v.949a246.08 246.08 0 002.858-.819.5.5 0 11.283.959 316.827 316.827 0 01-3.507 1.002.503.503 0 01-.438-.083A.506.506 0 0122 30.5v-2a.5.5 0 01.38-.485l4.906-1.219a.502.502 0 01.62.471L28 30.485a.5.5 0 01-.315.479l-2.5 1A.499.499 0 0125 32zm4.573-2.712a.57.57 0 01-.288-.078.62.62 0 01-.285-.491v-2.562a.5.5 0 01.266-.441c.59-.313 1.279-.726 1.838-1.06.39-.233.718-.43.911-.533a.499.499 0 01.734.403c.034.438-.113 1.545-.144 1.763a.5.5 0 01-.247.366l-1.203.688a.506.506 0 01-.683-.186.501.501 0 01.186-.683l.987-.564c.018-.14.035-.293.052-.444l-.08.048c-.49.293-1.078.646-1.617.942v1.625c.173-.094.407-.229.724-.427l.339.379.19.471c-.949.587-1.392.784-1.68.784zm-17.698 2.993a.529.529 0 01-.152-.023l-3.219-1.031a.501.501 0 01-.324-.629.503.503 0 01.628-.324l2.585.828.065-2.356-2.856-.836-.026.735 1.585.537a.5.5 0 01-.321.947l-1.938-.656a.5.5 0 01-.339-.491l.062-1.75a.5.5 0 01.64-.462l3.844 1.125a.5.5 0 01.359.493l-.094 3.406a.502.502 0 01-.499.487zM5.844 29.5a.495.495 0 01-.262-.074l-1.375-.844a.501.501 0 01-.165-.688.498.498 0 01.688-.164l.608.373-.008-1.623L4 25.73v.425l.743.448a.5.5 0 01-.517.856l-.984-.594A.5.5 0 013 26.438v-1.562a.5.5 0 01.746-.436l2.328 1.312a.5.5 0 01.254.433l.016 2.812a.5.5 0 01-.5.503z"/><ellipse cx="18" cy="18" fill="#FFAC33" rx="15" ry="7"/><path fill="#FFD983" d="M22 24c-1.18 0-2.122-.196-2.801-.584-.767-.438-1.208-1.143-1.208-1.933C17.992 19.628 20.332 18 23 18a1 1 0 110 2c-1.872 0-3.008 1.03-3.008 1.483 0 .076.152.169.199.196.21.12.724.321 1.809.321 2.404 0 5-1.529 5-4 0-.721-.94-1.183-1.343-1.348-2.02-.826-5.291-.579-6.944 1.104-1.441 1.467-3.792 1.956-6.29 1.301-1.538-.402-3.319-1.338-3.705-2.761-.196-.725.008-1.436.575-2.004C11.586 12 15.871 12 19 12a1 1 0 110 2c-2.779 0-6.586 0-8.293 1.707a.293.293 0 00-.064.082c.023.157.571.764 1.807 1.189 1.571.541 3.676.559 4.837-.623 2.319-2.361 6.461-2.644 9.128-1.554C28.058 15.473 29 16.639 29 18c0 3.706-3.634 6-7 6zm-7 0c-7.605 0-10-5.456-10-7a1 1 0 012-.005C7.036 17.658 8.701 22 15 22a1 1 0 110 2z"/><path fill="#AA695B" d="M35.092 3.053l-23.005.886a1 1 0 11-.179-1.992L34.824.066a1 1 0 011.086.906c.048.549-.267 2.031-.818 2.081zM35 8L12 7a1 1 0 010-2h23c.553 0 1 .448 1 1s-.447 2-1 2z"/><path fill="#FFD983" d="M14 15a1 1 0 01-1-1V2a1 1 0 012 0v12a1 1 0 01-1 1zm4 2a1 1 0 01-1-1V1a1 1 0 012 0v15a1 1 0 01-1 1z"/></svg><svg viewBox="0 0 36 36" id="1F35D" xmlns="http://www.w3.org/2000/svg"><ellipse cx="18" cy="24" fill="#939598" rx="18" ry="10"/><ellipse cx="18" cy="22" fill="#F1F2F2" rx="18" ry="10"/><ellipse cx="18" cy="21.611" fill="#FFCC4D" rx="14.8" ry="7.611"/><path fill="#FFE8B6" d="M11 27a1 1 0 110-2c1.898 0 3.082-1.085 3.174-1.835.091-.736-.96-1.081-1.417-1.195-.906-.225-1.58.033-2.358.335-1.068.414-2.531.978-4.106-.598-.689-.688-.868-1.604-.492-2.513C6.534 17.425 9.245 16 11 16a1 1 0 010 2c-1.115 0-2.995 1.099-3.351 1.96-.074.178-.044.23.058.333.629.628.928.548 1.971.147.862-.334 2.042-.79 3.564-.409 2.384.596 3.07 2.136 2.917 3.379C15.942 25.174 13.953 27 11 27zm6 1a1 1 0 110-2c5.697 0 9.833-1.247 12.293-3.707a.999.999 0 111.414 1.414C27.858 26.556 23.247 28 17 28z"/><path fill="#FFE8B6" d="M21.349 24.16c-.537 0-1.069-.06-1.591-.191-.543-.135-2.194-.548-2.246-1.883-.038-1 .661-2.172 5.938-3.957C22.875 17.66 21.492 17 20 17c-2.513 0-3.797.211-4.293.707a.999.999 0 11-1.414-1.414C15.248 15.338 16.741 15 20 15c2.396 0 5.396 1.333 5.676 3.053.107.662-.193 1.506-1.359 1.895-2.583.861-3.921 1.549-4.501 1.957.112.039.253.081.427.125 3.231.804 7.322-2.366 7.768-3.18A1 1 0 0130 19c0 .706-.635 1.56-1.887 2.537-1.743 1.361-4.289 2.622-6.764 2.623z"/><path fill="#DD2E44" d="M27 20.5c0 2.485-2.029 5.5-7 5.5s-4-2-12-5c-3.376-1.266 5.029-5 10-5s9 2.015 9 4.5z"/><path fill="#EA596E" d="M16 24a.999.999 0 01-.707-1.707c.281-.305.112-.474 0-.586-.558-.558-2.238-.616-3.846.188a1 1 0 11-.895-1.789c1.977-.988 4.726-1.242 6.154.188 1.252 1.252.686 2.728 0 3.414A.996.996 0 0116 24zm4-4c-2.414 0-3.685-1.271-4.707-2.293a.999.999 0 111.414-1.414C17.661 17.247 18.414 18 20 18c.773 0 2.586 0 3.293-.707a.999.999 0 111.414 1.414C23.414 20 21.108 20 20 20zm0 4a1 1 0 110-2c1.847 0 4.548-.962 5.293-1.707a.999.999 0 111.414 1.414C25.416 22.998 22.041 24 20 24z"/><path fill="#FFAC33" d="M17.001 20a1 1 0 01-.896-.553c-.999-1.997-3.077-6.153-4.098-14.323a1 1 0 111.984-.248c.979 7.83 2.953 11.779 3.902 13.677A1 1 0 0117.001 20z"/><path fill="#99AAB5" d="M35.125 11.042l-15.24-4.503C16.534 1.23 12.319 2.084 10 2c-.25-.009-.819.22-.833.625-.015.392 1.026.337 1.186.343 1.705.062 3.945.176 6.132 2.486C13.827 4.528 9.744 3.933 9 4c-.458.042-.5.375.042.625.445.206 4.572 1.647 6.84 2.34-1.419.489-3.286.715-6.434-.86C8.951 5.857 8.247 5.506 8 6c-.247.494.506.753 1 1 2.16 1.08 3.43 2.332 4.823 2.332 1.656 0 2.854-.505 3.792-.899.333-.14.634-.263.903-.343.016.01.028.024.044.033l14.805 6.592c.485.265 1.572-.791 1.837-1.275.265-.486.28-2.175-.079-2.398z"/><path fill="#FFAC33" d="M13 19a.997.997 0 01-.707-.293c-1.315-1.315-4.446-8.867-.074-14.332a.999.999 0 111.561 1.249c-3.648 4.561-.778 10.963-.074 11.668A.999.999 0 0113 19z"/></svg><svg viewBox="0 0 36 36" id="1F360" xmlns="http://www.w3.org/2000/svg"><path fill="#B90053" d="M9.441 14.595c.458-1.372 7.41-7.525 13.286-10.22 1.528-.701 6.602-2.834 8.35-3.271C34.681.203 36.167.09 35.666 3.75c-.708 5.171-4.619 12.596-8.707 19.751-2.68 4.213-4.232 6.423-10.365 3.356-6.13-3.064-9.196-6.13-7.153-12.262z"/><path fill="#FFCC4D" d="M22.491 14.76c3.816 3.768 4.498 9.263 1.524 12.276-2.974 3.014-8.477 2.4-12.294-1.365-3.816-3.768-4.499-9.264-1.525-12.276 2.975-3.013 8.479-2.401 12.295 1.365z"/><path fill="#8E0042" d="M26.96 6.377c1.14.57 2.703 3.605 2.703 4.506 0 .901-.901-.901-2.703-2.704-1.803-1.802-1.803-2.703 0-1.802zm.181 8.03c.607.578 1.009 2.787.836 3.354-.173.567-.395-.74-1.183-2.22-.789-1.48-.615-2.047.347-1.134z"/><path fill="#B90053" d="M21 32c0 2.209-4.477 4-10 4S1 34 1 32c0-.371-.203-2.6.084-2.958C2.34 27.469 6.502 28 11 28c4.908 0 9.133-.865 9.979 1 .107.233.021 2.754.021 3z"/><ellipse cx="11" cy="29" fill="#FFD671" rx="10" ry="4"/></svg><svg viewBox="0 0 36 36" id="1F361" xmlns="http://www.w3.org/2000/svg"><path fill="#D99E82" d="M33.875 35.228c-.314 0-.628-.12-.868-.359L2.366 4.227a1.228 1.228 0 011.736-1.736l30.641 30.641a1.228 1.228 0 01-.868 2.096z"/><path fill="#FCB1E3" d="M15.254 8.627a6.752 6.752 0 11-13.504 0 6.752 6.752 0 0113.504 0z"/><circle cx="15.869" cy="15.994" r="6.752" fill="#FFD983" transform="rotate(-76.714 15.87 15.994)"/><path fill="#A6D388" d="M29.987 23.359a6.754 6.754 0 01-13.505 0 6.752 6.752 0 0113.505 0z"/><path fill="#D99E82" d="M33.875 35.228c-.314 0-.628-.12-.868-.359l-7.52-7.52a1.226 1.226 0 111.736-1.736l7.52 7.52a1.228 1.228 0 01-.868 2.095z"/></svg><svg viewBox="0 0 36 36" id="1F362" xmlns="http://www.w3.org/2000/svg"><path fill="#D99E82" d="M33.884 35.229c-.314 0-.629-.12-.869-.36L2.33 4.185a1.229 1.229 0 111.738-1.738l30.685 30.685a1.229 1.229 0 01-.869 2.097z"/><path fill="#66757F" d="M6.729 3.046C4.077 2.51 2.467 4.213 3.151 6.83l1.843 7.055c.684 2.617 2.808 3.193 4.72 1.28l6.103-6.102c1.913-1.913 1.309-3.916-1.343-4.452L6.729 3.046z"/><path fill="#D99E82" d="M22.614 15.968a6.762 6.762 0 11-13.524-.002 6.762 6.762 0 0113.524.002z"/><path fill="#CCD6DD" d="M22.052 30.707c-.96.96-2.518.96-3.477 0l-3.478-3.478a2.46 2.46 0 010-3.477l8.693-8.693a2.46 2.46 0 013.478 0l3.478 3.477a2.46 2.46 0 010 3.478l-8.694 8.693z"/><path fill="#D99E82" d="M33.884 35.229c-.314 0-.629-.12-.869-.36l-9.118-9.118a1.229 1.229 0 111.738-1.738l9.118 9.118a1.229 1.229 0 01-.869 2.098z"/></svg><svg viewBox="0 0 36 36" id="1F363" xmlns="http://www.w3.org/2000/svg"><path fill="#EEE" d="M29.462 7.969c-.395-.23-.914-.337-1.633-.337-5.581 0-24.582 7.088-25.388 7.39a.994.994 0 00-.446.332C.755 16.988 1 23 3 26c2.755 4.133 6.821 5.304 8.778 5.495.032.003.108.007.14.007 2.458 0 18.332-10.761 19.524-13.234 1.371-2.843 1.281-8.4-1.98-10.299z"/><path fill="#CCD6DD" d="M26 10c-4 3-13 9-13 9-.714 2.141-1.923 8.343-.748 12.454 3.29-.745 18.042-10.805 19.19-13.186 1.035-2.145 1.235-5.834-.13-8.332C29.564 8.904 27.693 8.73 26 10z"/><path fill="#A0041E" d="M32.018 6.521a.995.995 0 00-.846-.257L1.796 11.097a1 1 0 00-.837 1.013c.026 1.01.019 1.746.01 2.573-.005.46-.01.948-.01 1.525 0 .297.132.58.361.77 2.033 1.687 8.714 6.157 10.233 6.917a1.008 1.008 0 001.057-.102c2.556-1.967 16.483-9.93 18.663-10.875a1 1 0 00.598-.827c.125-1.372.458-4.741.458-4.741a1 1 0 00-.311-.829z"/><path fill="#DD2E44" d="M32.085 6.589c-2.02-2.295-9.627-5.574-10.917-5.63a.949.949 0 00-.238.018C10.824 2.991 4.211 8.783 1.721 10.964l-.416.362a1.003 1.003 0 00.07 1.57c.339.243 8.316 5.96 10.257 7.058a1.007 1.007 0 001.159-.125c3.915-3.499 17.1-10.961 18.899-11.644a1 1 0 00.395-1.596z"/><path fill="#EA596E" d="M9.166 17.417a1 1 0 01-.984-.83l-.046-.267c-.398-2.308-.849-4.925-1.669-7.425a1 1 0 011.9-.623c.866 2.639 1.33 5.332 1.739 7.708l.046.266a.999.999 0 01-.986 1.171zm6.042-.25a1 1 0 01-.998-.95c-.077-1.54-1.186-7.973-2.19-10.705a1 1 0 011.877-.691c1.064 2.895 2.217 9.435 2.31 11.295a.999.999 0 01-.999 1.051zm5.625-3.792a1 1 0 01-.988-.852l-.113-.787c-.293-2.061-.839-5.897-1.68-8.42a1 1 0 111.897-.633c.898 2.695 1.461 6.647 1.763 8.771l.112.772a1 1 0 01-.991 1.149zm5.666-3.417a1 1 0 01-.994-.901c-.186-1.863-.473-3.22-.989-4.684a1 1 0 111.886-.665c.565 1.604.893 3.144 1.093 5.15a1 1 0 01-.996 1.1z"/><path fill="#292F33" d="M32.136 23c-1.714-1.235-4.055-2-6.636-2s-4.922.765-6.636 2H16v5c0 3.859 4.262 7 9.5 7s9.5-3.141 9.5-7v-5h-2.864z"/><ellipse cx="25.5" cy="23" fill="#292F33" rx="9.5" ry="7"/><g fill="#E1E8ED"><path d="M32.583 23c0 2.762-3.171 5-7.083 5s-7.083-2.238-7.083-5 3.171-5 7.083-5 7.083 2.238 7.083 5z"/><path d="M25.5 28.833c-4.365 0-7.917-2.616-7.917-5.833s3.552-5.833 7.917-5.833 7.916 2.617 7.916 5.833-3.551 5.833-7.916 5.833zm0-10c-3.446 0-6.25 1.869-6.25 4.167s2.804 4.167 6.25 4.167 6.25-1.869 6.25-4.167-2.804-4.167-6.25-4.167z"/></g><g fill="#77B255"><path d="M21.209 22.542c0-.422 1.806-.335 4.291-.335s4.209-.546 4.209-.124c0 1.775-1.724 3.552-4.209 3.552s-4.291-1.318-4.291-3.093z"/><path d="M25.5 26.135c-2.776 0-4.791-1.511-4.791-3.593 0-.172.069-.336.195-.461.378-.377 1.197-.393 3.503-.378l1.093.004c1.094 0 2.054-.11 2.756-.191.993-.113 1.443-.165 1.746.104l.168.149.039.313c0 1.949-1.801 4.053-4.709 4.053zm-3.777-3.358c.157 1.38 1.697 2.357 3.777 2.357 2.046 0 3.474-1.343 3.683-2.707-.22.013-.528.049-.812.081-.726.084-1.719.198-2.87.198l-1.099-.004c-1.05-.006-2.219-.011-2.679.075z"/></g><g fill="#F4900C"><path d="M30 22s-2-1-5 0c-2.357.786-4 2.56-4 .785s2.015-3.213 4.5-3.213S30 21 30 22z"/><path d="M21.446 24.05a.884.884 0 01-.468-.127c-.478-.288-.478-.928-.478-1.138 0-2.047 2.243-3.713 5-3.713 2.77 0 5 1.602 5 2.928 0 .173-.09.334-.237.426a.502.502 0 01-.484.022c-.033-.017-1.887-.886-4.62.026-.757.252-1.435.61-2.032.927-.682.361-1.225.649-1.681.649zm4.054-3.978c-2.206 0-4 1.217-4 2.713 0 .127.01.208.021.257.232-.045.749-.318 1.138-.524.601-.317 1.349-.714 2.184-.992 1.696-.565 3.097-.529 4.043-.366-.676-.543-1.87-1.088-3.386-1.088z"/></g></svg><svg viewBox="0 0 36 36" id="1F364" xmlns="http://www.w3.org/2000/svg"><path fill="#FFAC33" d="M30.414 9.28c-2.266-3.135-6.545-6.934-14.066-7.232l-.372-.015-.126.35c-.063.176-.302.519-.532.851-.679.979-1.609 2.319-1.212 3.52.221.669.814 1.17 1.764 1.491 1.893.639 5.829 3.862 6.602 7.745a6.322 6.322 0 01-.144 3.105c-1.624-3.031-4.566-4.938-8.158-4.938-5.814 0-9.527 4.787-9.527 10.67 0 5.082 3.713 10.671 9.527 10.671.029 0 .058-.004.086-.004l.091.006c.602.043 1.608.113 2.826.113 6.086 0 13.838-1.729 16.201-9.968 1.554-5.419.421-11.69-2.96-16.365z"/><path fill="#F4900C" d="M18.911 30.798c-.17.636 2.905 1.47 5.61-1.461 3.049-3.303 3.239-11.623-3.789-17.297-.071-.021-.133-.033-.2-.049.909 1.172 1.648 2.539 1.938 3.999a6.306 6.306 0 01-.12 3.004c1.932 3.715 2.909 9.93-3.439 11.804zm11.962-6.542c.759-.091 1.894-.461 2.991-.937.104-.723.164-1.455.182-2.19-.908.835-1.941 1.532-2.793 1.92-1.397.636-1.968 1.397-.38 1.207zm-.89-8.257c-2.223 2.032.101 1.333 1.398.508.761-.484 1.315-1.189 1.687-1.972a19.375 19.375 0 00-1.693-3.769c.118 2.073-.098 4.051-1.392 5.233z"/><path fill="#FF839B" d="M20.896 3.385a1.014 1.014 0 00-.782-.889C18.519 2.128 7.344.435 4.96.435l-.195.003c-1.421.065-2.507.79-2.768 1.848-.123.498-.209 1.771 1.624 2.84.551.322.887.661.899.908.01.235-.261.712-1.062 1.283-.794.567-1.119 1.442-.85 2.284.331 1.033 1.467 1.728 2.828 1.728.744 0 1.513-.196 2.285-.582 1.996-.999 4.682-1.643 6.844-1.643 1.066 0 1.971.15 2.689.445.362.149.717.225 1.053.225.619 0 1.965-.2 1.6-.722-2.647-3.787 1.059-4.98.989-5.667z"/><path fill="#EA596E" d="M2.533 4.243c.252.297.597.597 1.088.883.551.322.887.661.899.908.01.235-.261.712-1.062 1.283-.604.431-.932 1.041-.938 1.679 10.696-3.803 3.099-2.197.013-4.753z"/></svg><svg viewBox="0 0 36 36" id="1F365" xmlns="http://www.w3.org/2000/svg"><path fill="#E1E8ED" d="M22.235 35.662c-.418 0-.83-.123-1.182-.361l-2.96-2.007-2.959 2.007a2.12 2.12 0 01-1.73.289 2.1 2.1 0 01-1.351-1.113l-1.721-2.393-3.405-.568a2.111 2.111 0 01-2.256-2.254l.256-3.567-3.215-1.56a2.106 2.106 0 01-1.116-1.353 2.106 2.106 0 01.291-1.729l1.152-2.928-1.152-2.991a2.108 2.108 0 01.825-3.08l3.215-1.561-.254-3.564a2.106 2.106 0 01.614-1.642 2.104 2.104 0 011.642-.614l3.28-.506 1.846-2.452a2.107 2.107 0 013.081-.826l2.959 2.005 2.96-2.005a2.103 2.103 0 011.727-.29 2.109 2.109 0 011.354 1.116L26 4.042l3.262.631c.048-.004.1-.004.149-.004a2.108 2.108 0 012.105 2.26l-.26 3.565 3.221 1.561c.551.267.957.761 1.113 1.351a2.107 2.107 0 01-.289 1.729l-.926 2.908.926 3.011c.344.508.447 1.138.289 1.729a2.096 2.096 0 01-1.113 1.353l-3.221 1.56.26 3.567a2.123 2.123 0 01-.612 1.642 2.119 2.119 0 01-1.642.612l-3.22.526-1.908 2.435a2.095 2.095 0 01-1.899 1.184z"/><path fill="#D372B8" d="M18.5 28.709c-3.708.041-8.167-2.875-7.792-8.37.133-1.959.903-3.779 2.341-5.116a6.308 6.308 0 018.903.324 5.39 5.39 0 011.447 3.891 5.38 5.38 0 01-1.727 3.774 4.635 4.635 0 01-3.365 1.253 4.663 4.663 0 01-3.266-1.495c-.785-.844-1.059-2.045-.733-3.214.331-1.188 1.219-2.095 2.375-2.425.532-.151 1.123-.236 1.275.294.152.531-.38.757-1.083 1.25-.833.584-1.292 1.667-.368 2.733.471.544 1.155.831 1.874.857a2.681 2.681 0 001.931-.719 3.402 3.402 0 001.09-2.383 3.406 3.406 0 00-.914-2.456 4.305 4.305 0 00-6.077-.221 5.317 5.317 0 00-1.704 3.724 5.315 5.315 0 001.428 3.838 6.563 6.563 0 004.6 2.104 6.537 6.537 0 004.74-1.765 8.064 8.064 0 002.585-5.649 8.064 8.064 0 00-2.167-5.822c-3.725-4.008-8.601-4.952-13.643-1.91-.763.463-1.401 1.139-1.833.794-.208-.167-.314-.481.09-.857 4.815-4.478 12.376-4.201 16.851.614 1.84 1.979 2.919 4.562 2.7 7.257-.683 8.403-6.558 9.861-9.558 9.695z"/></svg><svg viewBox="0 0 36 36" id="1F371" xmlns="http://www.w3.org/2000/svg"><path fill="#292F33" d="M31 0H5a4 4 0 00-4 4v28a4 4 0 004 4h26a4 4 0 004-4V4a4 4 0 00-4-4z"/><path fill="#292F33" d="M14 11a4 4 0 01-4 4H9a4 4 0 01-4-4V9a4 4 0 014-4h1a4 4 0 014 4v2z"/><path fill="#BE1931" d="M22 27a2 2 0 01-2 2H5a2 2 0 01-2-2v-8a2 2 0 012-2h15a2 2 0 012 2v8zm11-8a2 2 0 00-2-2h-5a2 2 0 00-2 2v8a2 2 0 002 2h5a2 2 0 002-2v-8zM16 4a2 2 0 012-2h13a2 2 0 012 2v9a2 2 0 01-2 2H18a2 2 0 01-2-2V4zm-2 9a2 2 0 01-2 2H5a2 2 0 01-2-2V4a2 2 0 012-2h7a2 2 0 012 2v9z"/><path fill="#DD2E44" d="M14 13a2 2 0 01-2 2H5a2 2 0 01-2-2V7a2 2 0 012-2h7a2 2 0 012 2v6zm19 0a2 2 0 01-2 2H18a2 2 0 01-2-2V7a2 2 0 012-2h13a2 2 0 012 2v6z"/><path fill="#E1E8ED" d="M22 27a2 2 0 01-2 2H5a2 2 0 01-2-2v-5a2 2 0 012-2h15a2 2 0 012 2v5z"/><path fill="#DD2E44" d="M33 27a2 2 0 01-2 2h-5a2 2 0 01-2-2v-5a2 2 0 012-2h5a2 2 0 012 2v5z"/><path fill="#FFAC33" d="M27.015 9.24c1.315 1.478 1.908 3.098 1.322 3.619l-1.059.941c-.585.522-2.126-.255-3.44-1.733l-3.571-4.013c-1.314-1.479-1.907-3.099-1.321-3.62l1.059-.941c.586-.521 2.124.255 3.438 1.733l3.572 4.014z"/><path fill="#FFD983" d="M22.28 11.076c-.598 1.539-1.477 2.633-1.961 2.444l-.877-.341c-.485-.188-.393-1.588.205-3.126l1.625-4.178c.599-1.538 1.477-2.632 1.962-2.444l.876.341c.485.188.394 1.588-.205 3.126l-1.625 4.178z"/><path fill="#FFD983" d="M23.113 11.536c-1.562.535-2.965.568-3.133.076l-.305-.891c-.169-.492.962-1.324 2.522-1.858l4.242-1.45c1.562-.534 2.964-.567 3.133-.075l.304.89c.169.493-.961 1.325-2.523 1.858l-4.24 1.45z"/><path fill="#5C913B" d="M6.442 7.873c.373-4.106 4.907-.961 7.135 1.049-1.34 1.485-7.586 3.93-7.135-1.049z"/><path fill="#5C913B" d="M6.584 7.784c3.739-1.737 3.293 3.763 2.672 6.698-1.956-.414-7.206-4.59-2.672-6.698z"/><path fill="#77B255" d="M5 8c-1.2-1.6 1-5 6-5 1 1-3 9-6 5z"/><path fill="#B2C2CC" d="M6 27a.999.999 0 01-.707-1.707l1-1a.999.999 0 111.414 1.414l-1 1A.997.997 0 016 27zm12.417.499a.997.997 0 01-.707-.293l-1-1a1 1 0 111.415-1.414l1 1a.999.999 0 01-.708 1.707zm-6.167-4.291c-.255 0-.511-.098-.707-.292l-.459-.458a1 1 0 111.413-1.416l.459.458a1 1 0 01-.706 1.708z"/><path fill="#B26304" d="M32.149 23.412a1.999 1.999 0 01-.257 2.816l-2.305 1.921a1.999 1.999 0 01-2.816-.257l-1.921-2.305a1.999 1.999 0 01.257-2.816l2.305-1.921a1.999 1.999 0 012.816.257l1.921 2.305z"/><path fill="#F4900C" d="M32.149 21.412a1.999 1.999 0 01-.257 2.816l-2.305 1.921a1.999 1.999 0 01-2.816-.257l-1.921-2.305a1.999 1.999 0 01.257-2.816l2.305-1.921a1.999 1.999 0 012.816.257l1.921 2.305z"/><circle cx="12" cy="26" r="1" fill="#CCD6DD"/><circle cx="20" cy="22" r="1" fill="#CCD6DD"/></svg><svg viewBox="0 0 36 36" id="1F95F" xmlns="http://www.w3.org/2000/svg"><path fill="#FFD983" d="M1.443 13.658c1.03-.715 2.03-1.58 2.285-2.54s3.186-2.313 3.679-1.971c.493.344 1.075.014 1.371-.743.296-.757 3.476-2.541 4.244-2.093.768.448 2.095.028 2.558-.458.463-.486 3.891-.542 4.29.19s1.061.596 1.857.268c.797-.329 3.266-.289 3.587.391.321.681 1.161 1.12 1.772.941.611-.179 2.967.435 2.721 1.324-.245.889.317 1.531 1.146 1.486.828-.044 2.3 1.661 2.156 2.085-.144.424.418.945.987 1.197.569.252.71 2.529-.863 3.112-1.573.583-26.976 2.845-28.954.634-1.978-2.212-2.836-3.823-2.836-3.823z"/><path fill="#FFD983" d="M20.89 12.836c-.48 4.459-3.09 7.96-4.838 7.752-1.749-.208-2.777-3.991-2.297-8.45.48-4.457 1.589-7.388 3.909-7.388 2.552 0 3.705 3.629 3.226 8.086z"/><path fill="#FFD983" d="M25.97 13.193c-.48 4.459-3.09 7.96-4.838 7.752-1.749-.208-2.777-3.991-2.297-8.45.48-4.457 1.824-5.906 4.036-6.642 2.872-.954 3.579 2.883 3.099 7.34z"/><path fill="#FFD983" d="M28.212 15.827c-1.624 4.15-4.101 7.009-5.535 6.388-1.433-.621-.905-4.346.343-8.636 1.67-5.745 4.58-6.606 6.014-5.985 1.432.62.802 4.084-.822 8.233z"/><path fill="#FFD983" d="M29.335 18.306c-2.794 3.391-6.008 5.272-7.179 4.203-1.171-1.068.143-4.683 2.936-8.073 2.793-3.39 6.043-4.557 7.434-3.837 1.924.995-.398 4.317-3.191 7.707z"/><path fill="#FFD983" d="M29.232 20.85c-4.118 1.167-7.832.649-8.294-1.159-.462-1.806 2.499-4.219 6.617-5.386 4.117-1.168 7.544-1.327 8.294 1.159.539 1.783-2.499 4.219-6.617 5.386zm-12.31-8.807c-1.384-4.245-3.912-6.918-6.156-6.013-2.436.982-2.903 4.693-1.519 8.937 1.382 4.244 5.062 6.961 6.529 6.431 1.466-.53 2.53-5.112 1.146-9.355z"/><path fill="#FFD983" d="M11.697 13.646c-2.715-3.461-5.176-6.257-7.081-4.385-1.889 1.857-1.068 5.908 1.647 9.368 2.713 3.461 6.988 4.2 8.184 3.161 1.195-1.037-.035-4.684-2.75-8.144z"/><path fill="#FFD983" d="M8.414 14.828c-6.326-2.947-7.706-1.047-8.257.478-.552 1.524 2.3 5.035 6.285 6.633 3.984 1.6 7.663 1.658 8.215.134.552-1.523-2.344-5.428-6.243-7.245z"/><path fill="#FFD983" d="M35.65 24.036c0 5.312-7.752 7.214-17.315 7.214-9.563 0-18.036-3.105-18.036-8.417 0-5.312 8.473-14.429 18.036-14.429 9.562 0 17.315 10.319 17.315 15.632z"/><path fill="#FFAC33" d="M19.537 16.631c0 2.989-.538 5.411-1.202 5.411-.664 0-1.202-2.422-1.202-5.411 0-2.988.538-5.41 1.202-5.41.663 0 1.202 2.422 1.202 5.41zm4.684-.23c.513 2.533.446 4.683-.148 4.804-.595.12-1.492-1.834-2.006-4.368-.513-2.532-.447-4.683.148-4.803.595-.121 1.492 1.834 2.006 4.367zm3.853.223c.945 1.944 1.269 3.734.724 4-.546.265-1.754-1.095-2.7-3.04-.945-1.944-1.269-3.734-.724-4 .546-.265 1.754 1.097 2.7 3.04zm-13.493-.113c-.646 2.701-1.63 4.78-2.201 4.644-.571-.137-.51-2.436.134-5.137.645-2.701 1.738-4.304 2.309-4.167.572.136.403 1.96-.242 4.66zm-4.323.374c-.868 1.94-2.018 3.312-2.573 3.064-.554-.248-.3-2.02.567-3.961.867-1.94 2.086-2.915 2.64-2.667.554.249.233 1.625-.634 3.564z"/><path fill="#FFCC4D" d="M12.865 7.319c.514.603.618 1.387.233 1.751-.386.364-1.115.169-1.629-.434s-.618-1.387-.233-1.751c.385-.363 1.115-.169 1.629.434zm-6.392 3.462c.263.762.082 1.53-.405 1.716-.487.186-1.095-.28-1.358-1.042-.263-.762-.082-1.53.405-1.716.487-.185 1.095.281 1.358 1.042zm-3.492 4.904c.663.572.935 1.378.607 1.799-.328.421-1.132.299-1.796-.273-.663-.572-.935-1.378-.607-1.799.329-.422 1.133-.299 1.796.273zm15.691-9.214c.514.603.618 1.387.233 1.751-.386.364-1.115.169-1.629-.434s-.618-1.387-.233-1.751c.385-.364 1.115-.17 1.629.434z"/><ellipse cx="23.913" cy="7.978" fill="#FFCC4D" rx="1.118" ry="1.668" transform="rotate(-3.242 23.923 7.975)"/><path fill="#FFCC4D" d="M29.092 9.926c.147.795-.147 1.524-.655 1.628-.508.104-1.039-.457-1.186-1.252-.147-.795.147-1.524.655-1.628.508-.104 1.039.457 1.186 1.252zm3.167 3.436c-.333.684-.976 1.038-1.437.79s-.565-1.004-.233-1.688c.333-.684.976-1.038 1.437-.79.462.248.566 1.003.233 1.688zm2.285 3.81c-.414.532-1.118.646-1.572.255-.454-.391-.485-1.14-.071-1.671.415-.532 1.118-.646 1.572-.255.453.391.485 1.139.071 1.671z"/></svg><svg viewBox="0 0 36 36" id="1F960" xmlns="http://www.w3.org/2000/svg"><path fill="#FCAB40" d="M15 22s-1.15 2.749-2.15 4.749-1.666 5.227.325 6.245c3.033 1.553 8.578.574 11.825-.994 2.724-1.316 5.179-3.085 7-6 1.746-2.794 3-6 3-8s-.147-3.591-.862-5.71c-.53-1.57-1.392-3.463-2.94-5.077-1.819-1.896-2.635-3.805-3.582-5.158C26.806.896 26 0 24 0s-7 3-10 4-7 2-10 6-3 8-3 10 .062 4.885 2 6c2.305 1.327 5.575-1.634 8.045-2.356C13.392 22.958 15 22 15 22z"/><path fill="#F4900C" d="M33.717 21.334s-2.613 3.554-4.048 4.478c-.774.498-1.62 1.01-2.703 1.515-.694.324-3.792 1.55-4.621 1.805-1.408.433-3.285.83-4.26.866-.975.036-1.805-.004-3.223.179-.872.112-2.156.615-2.192 1.193-.036.578 1.011 1.625 3.105 1.733 2.094.108 5.997-.177 8.375-1.227 3.321-1.467 5.307-3.285 6.282-4.44.974-1.156 2.707-4.008 3.285-6.102z"/><path fill="#BF6952" d="M33.717 21.334s-1.733 2.166-3.149 3.353c-.936.785-2.937 2.181-4.396 2.893-1.48.722-4.315 1.651-6.318 1.949-1.697.253-4.345.526-5.235.722-.859.189-1.287.458-1.047.758.362.452 1.236.34 2.563.172 3.114-.394 5.932-.988 8.337-1.977 2.457-1.011 4.876-2.274 5.851-3.43s2.35-2.455 3.394-4.44z"/><path fill="#F4900C" d="M22.85 3.969c-.681 1.36-2.713 4.517-3.85 6.426-1.353 2.271-3.117 5.018-4.074 7.605-.295.798-.935 3.768-.819 4.466.56-.271.893-.466.893-.466s1.172-2.255 2.182-3.807c1.011-1.552 4.404-7.473 5.668-9.567 1.264-2.094 1.763-4.16 1.588-5.218-.252-1.535-1.086-.441-1.588.561z"/><path fill="#BF6952" d="M22.886 5.738c-.714 1.489-2.711 4.657-3.637 6.426-.926 1.769-3.42 6.148-4.413 8.664-.177.449-.359.977-.43 1.489C14.819 22.11 15 22 15 22s1.172-2.255 2.182-3.807c1.011-1.552 4.404-7.473 5.668-9.567.974-1.614 1.489-3.206 1.596-4.337-.287-1.312-1.089.467-1.56 1.449z"/><path fill="#CCD6DD" d="M29.069 25.815c-.927.647-2.011 1.332-2.898 1.764-1 .488-2.615 1.065-4.177 1.484l.001.003s2.491 5.527 5.969 6.769l6.068-5.855s-3.857-2.652-4.963-4.165z"/><path fill="#9AAAB4" d="M25.454 27.9a21.505 21.505 0 01-.841.33 31.476 31.476 0 01-.822.291l-.145.048a29.75 29.75 0 01-1.652.495l.001.003s.151.334.428.853c.71-.214 1.397-.448 2.049-.716 1.993-.82 3.946-1.805 5.139-2.765a6.037 6.037 0 01-.542-.624l-.002.002c-.212.148-.432.297-.657.446l-.155.101c-.176.115-.352.227-.53.338l-.208.129c-.167.101-.33.197-.493.291l-.205.118c-.223.124-.441.241-.647.341a13.28 13.28 0 01-.538.244l-.18.075z"/></svg><svg viewBox="0 0 36 36" id="1F961" xmlns="http://www.w3.org/2000/svg"><path fill="#E1E8ED" d="M34 7H2l3 29h26z"/><path fill="#99AAB5" d="M14 7H2l3 29h10z"/><path fill="#66757F" d="M34.901.567A.999.999 0 0034 0H16a1 1 0 00-.781.375L9.439 7H12l4.48-5h15.438l-6.7 8.375a1 1 0 001.563 1.25l8-10c.24-.3.286-.712.12-1.058z"/><path fill="#DD2E44" d="M30.495 32h-14l2.159-3h10zm-3.073-4h-7.429l.768-1h6zm1.392-2h-10l2.159-3h6zm-1.787-4h-6l1.053-1h4zm.106-2h-6l2.159-3h2zm-1.787-4h-2l1.159-3z"/><path fill="#BE1931" d="M14.008 32H5.169l.944-3h6.314zm-2.499-4h-4.69l.345-1h3.788zm.599-2H5.795l.944-3h3.789zm-1.686-4H6.633l.526-1h2.525zm-.213-2H6.421l.945-3h1.262zm-1.687-4H7.26l.313-3z"/></svg><svg viewBox="0 0 36 36" id="1F96E" xmlns="http://www.w3.org/2000/svg"><path fill="#FFAC33" d="M35.15 20.01c-.115-3.396-.216-7.078-.216-7.078 0-4.97-7.545-8.929-16.934-8.929-9.389 0-17 4.03-17 9 0 0-.1 4.364-.1 7.438s.162 5.154.162 5.154c.108 1.187.511 2.056 1.533 3.21.41.464 1.115.891 1.596 1.051.48.16 1.89-.479 1.89-.479L18 25.004l4.554 6.831s.506.894 1.269 1.257c.763.364 1.724-.015 2.602-.281 5.12-1.549 8.131-3.98 8.617-6.461.118-.603.216-3.158.108-6.34z"/><path fill="#F4900C" d="M18 4.003c-9.389 0-17 4.03-17 9 0 1.905 1.125 3.669 3.033 5.124L18 13.003l5.653 8.48C30.259 20.248 35 16.922 35 13.003c0-4.97-7.611-9-17-9z"/><path fill="#994500" d="M18 4.003c-8.837 0-16 3.806-16 8.5 0 1.942 1.24 3.727 3.304 5.158L18 13.003l5.042 7.563C29.405 19.443 34 16.26 34 12.503c0-4.694-7.163-8.5-16-8.5z"/><path fill="#662113" d="M18 4.003c-8.317 0-15.059 3.582-15.059 8 0 1.985 1.369 3.797 3.622 5.196L18 13.003l4.431 6.647c6.154-1.006 10.628-4.049 10.628-7.647 0-4.418-6.742-8-15.059-8z"/><path fill="#662113" d="M23.23 22.875c-.642-1.016-5.23-8.368-5.23-8.368S7.21 18.518 5.107 19.273c-.993.356-.758 3.185-.701 5.297.108 4.045.485 3.98 1.564 3.5C8.397 26.992 18 23.513 18 23.513s3.881 5.852 4.96 7.362c.394.552.737 1.247.809-2.421.042-2.112.108-4.554-.539-5.579z"/><path fill="#FFAC33" d="M18.112 16.114s-3.889.813-3.889 4.423c0 3.741 3.776 2.211 3.776 2.211s2.247 2.843 2.839-.356c.572-3.095-2.726-6.278-2.726-6.278z"/><path fill="#F4900C" d="M17.998 18.434s-1.78.265-1.78 1.942c0 1.737 1.726 1.133 1.726 1.133s1.189 1.292 1.402-.324c.212-1.602-1.348-2.751-1.348-2.751zm8.576 13.432a.5.5 0 01-.472-.663c.476-1.381.169-7.087-.179-8.772a.498.498 0 01.388-.591.495.495 0 01.591.388c.299 1.445.744 7.565.146 9.302a.503.503 0 01-.474.336zM2.517 27.659a.5.5 0 01-.493-.417c-.328-1.961-.179-7.172.167-8.844a.5.5 0 11.979.203c-.324 1.565-.468 6.638-.16 8.475a.501.501 0 01-.493.583zm28.156 2.373a.501.501 0 01-.473-.663c.477-1.381.17-7.087-.178-8.772a.498.498 0 01.388-.591.498.498 0 01.591.388c.299 1.446.744 7.567.145 9.302a.502.502 0 01-.473.336zm3.183-2.804a.5.5 0 01-.492-.599c.352-1.758.269-6.905-.053-8.46a.498.498 0 01.388-.591.504.504 0 01.591.389c.345 1.667.432 6.975.055 8.859a.5.5 0 01-.489.402z"/><path fill="#994500" d="M6.375 16a.504.504 0 01-.312-.109c-1.808-1.444-2.625-2.966-2.429-4.524.387-3.079 4.646-5.033 4.827-5.114a.5.5 0 11.411.911c-.04.018-3.931 1.806-4.247 4.329-.149 1.188.545 2.405 2.061 3.616a.5.5 0 01-.311.891zm20.167 1.667a.501.501 0 01-.136-.982c.045-.012 4.469-1.294 5.104-4.289.617-2.905-3.962-5.002-4.008-5.023a.5.5 0 11.41-.912c.22.099 5.358 2.458 4.576 6.144-.763 3.588-5.607 4.986-5.812 5.044a.509.509 0 01-.134.018zm-10.44-5.795l.066.003a.75.75 0 00.064-1.497l-1.87-.162.747-2.672c1.775-.417 2.438-1.216 2.535-1.346a.74.74 0 00-.143-1.027.763.763 0 00-1.047.114c-.01.012-1.084 1.238-4.735.973a.75.75 0 00-.108 1.496c.394.029.764.042 1.112.042.27 0 .522-.01.765-.025l-.647 2.313-1.9-.165a.74.74 0 00-.812.682.75.75 0 00.682.812l.968.084-3.492 2.747a.747.747 0 00-.126 1.054.749.749 0 001.053.125l2.735-2.151-.608 2.175 1.735-.637.509-1.819.737 1.363 1.423-.522-1.129-2.087 1.486.127zm7.624 6.623a.747.747 0 001.06-.013.75.75 0 00-.012-1.061c-1.564-1.526-1.815-4.857-1.818-4.891a.746.746 0 00-.108-.325c1.071-2.898 1.251-5.646 1.263-5.848a.75.75 0 00-.706-.792.743.743 0 00-.792.705c-.003.067-.37 5.63-3.138 8.945l.862 1.294a11.233 11.233 0 001.428-1.978c.298 1.272.87 2.899 1.961 3.964z"/><path fill="#994500" d="M26.671 9.842a.75.75 0 00-1.037-.221l-1.542 1a.75.75 0 00.816 1.258l1.542-1a.75.75 0 00.221-1.037zm-6.752 1.388a.75.75 0 101.078-1.043l-1.291-1.333a.75.75 0 00-1.079 1.043l1.292 1.333z"/></svg></svg>