<?xml version="1.0" encoding="utf-8"?><svg viewBox="0 0 36 36" xmlns="http://www.w3.org/2000/svg" xmlns:xlink="http://www.w3.org/1999/xlink"><style>:root>svg{display:none}:root>svg:target{display:block}</style><svg viewBox="0 0 36 36" id="1F345" xmlns="http://www.w3.org/2000/svg"><path fill="#DD2E44" d="M22.494 5.344c-.687 0-1.352.066-1.991.177-.819-.104-2.74-.231-3.591-.231-8.473 0-15.886 3.177-15.886 14.298 0 9.036 7.049 16.361 16.976 16.361s17.974-7.325 17.974-16.361C35.975 8.339 26.59 5.344 22.494 5.344z"/><path fill="#77B255" d="M8.439.091c1.637 1.636 2.77 2.266 3.274 4.91.298 1.564 2.266 1.51 2.266 1.51s-3.903 1.763-5.54 3.4c0 0 4.91-1.637 6.547-1.637 0 0 3.273 1.637 3.273 3.273 0 0 0-3.273-1.636-3.273 0 0 4.909 0 4.909 3.273 0 0 0-4.91-1.637-4.91 0 0 4.911-1.636 6.548 0 0 0-1.686-1.72-4.911-1.636 0 0 1.638-1.637 4.911-1.637 0 0-5.288-1.511-6.925 1.763 0 0-1.385-1.385 1.385-4.155 0 0-4.28.755-4.28 4.029 0 0-1.552-.04-2.644-1.259C11.838 1.35 8.439.091 8.439.091z"/></svg><svg viewBox="0 0 36 36" id="1F347" xmlns="http://www.w3.org/2000/svg"><path fill="#77B255" d="M9.999 12a.99.99 0 01-.446-.106c-4.38-2.19-7.484-7.526-8.501-10.578A.999.999 0 112.949.683c.877 2.632 3.688 7.517 7.499 9.422A1 1 0 019.999 12z"/><circle cx="19" cy="29" r="7" fill="#553788"/><circle cx="10" cy="15" r="7" fill="#9266CC"/><circle cx="19" cy="12" r="7" fill="#AA8DD8"/><circle cx="27" cy="18" r="7" fill="#744EAA"/><circle cx="9" cy="26" r="7" fill="#744EAA"/><circle cx="18" cy="21" r="7" fill="#9266CC"/><circle cx="29" cy="29" r="7" fill="#9266CC"/></svg><svg viewBox="0 0 36 36" id="1F348" xmlns="http://www.w3.org/2000/svg"><path fill="#A6D388" d="M31.924 10.982c4.418 7.652 1.99 17.326-5.424 21.607-7.414 4.28-16.505 2.413-20.924-5.241C.577 18.688 3.086 9.156 10.5 4.876c7.414-4.28 17.924.044 21.424 6.106z"/><path fill="#77B255" d="M24 6c3 1 6 4 8 7 .836 1.254.729-.078-.294-2.348C28.02 4.768 17.777.675 10.5 4.876a14.837 14.837 0 00-6.413 7.408C4.808 11.471 5.52 11 6 11c1 0-1.896 3.279 1 11 3 8 3 4 3 4s-2-9-1-12 2-5 3-4 5 9 7 14c2.259 5.647 2-1-1-8-2.841-6.628-3-8-2-8s3.465 1.464 7 5c2 2 3 5 4 6s1-1 0-4c-.707-2.121-3-6-6-8-2.496-1.664 0-2 3-1z"/><path fill="#5C913B" d="M11.934 6.358a1.001 1.001 0 01-1.367-.366c-1.104-1.914-1.26-4.303-1.266-4.404a1.002 1.002 0 011.998-.122c.001.021.137 2.027 1.001 3.525a1.002 1.002 0 01-.366 1.367z"/><path fill="#77B255" d="M11.961 30.533C11 30 10.234 28.557 9.552 27.308c-.682-1.249.276-1.276.886-.159.681 1.249 1.204 1.612 1.886 2.861.682 1.249.194.832-.363.523zm9.543.373c-.874-2.059-.812-3.057-1.686-5.114-.874-2.059-.749-4.055.124-1.997.874 2.059 1.748 4.118 1.687 5.115-.064.999-.125 1.996-.125 1.996zM27 19c1 3 0 2 1 5s1 5 1 0c0-3.162-1-6-2-7-1.581-1.581 0 2 0 2z"/></svg><svg viewBox="0 0 36 36" id="1F349" xmlns="http://www.w3.org/2000/svg"><path fill="#5C913B" d="M2.472 6.572A17.018 17.018 0 001 13.5C1 23.165 9.059 31 19 31c7.746 0 14.33-4.767 16.868-11.44L2.472 6.572z"/><path fill="#FFE8B6" d="M4.332 7.295A15.116 15.116 0 003 13.5c0 8.591 7.164 15.556 16 15.556 6.904 0 12.77-4.26 15.013-10.218L4.332 7.295z"/><path fill="#DD2E44" d="M6.191 8.019A13.226 13.226 0 005 13.5c0 7.518 6.268 13.611 14 13.611 6.062 0 11.21-3.753 13.156-8.995L6.191 8.019z"/><path d="M9.916 14.277c-.307.46-.741.708-.971.555-.23-.153-.168-.649.139-1.109.307-.46.741-.708.971-.555.23.153.168.649-.139 1.109zm6 1c-.307.46-.741.708-.971.555-.23-.153-.168-.649.139-1.109.307-.46.741-.708.971-.555.23.153.168.649-.139 1.109zm5.082 4.678c.05.551-.132 1.016-.406 1.041-.275.025-.538-.4-.588-.951-.051-.551.132-1.016.406-1.04.275-.026.538.398.588.95zm-9-2c.05.551-.132 1.016-.406 1.041-.275.025-.538-.4-.588-.951-.05-.551.132-1.016.406-1.04.276-.026.538.398.588.95zm3.901 5.346c-.333.441-.78.663-1 .497-.221-.166-.129-.658.205-1.099.333-.441.781-.663 1-.497.221.166.13.657-.205 1.099zm8.036.454c.273.481.299.979.06 1.115-.241.137-.656-.143-.929-.624-.273-.48-.299-.979-.059-1.115.241-.138.655.141.928.624zm-7.017-5.028c.303.463.362.958.131 1.109-.231.152-.663-.1-.966-.562-.303-.462-.361-.958-.131-1.108.231-.154.663.097.966.561zm8.981 1.574c-.333.441-.78.663-1.001.497-.221-.166-.129-.658.205-1.099.333-.442.78-.663 1-.497.222.166.131.657-.204 1.099z"/></svg><svg viewBox="0 0 36 36" id="1F34A" xmlns="http://www.w3.org/2000/svg"><path fill="#F4900C" d="M3 19.5C3 10.388 10.387 3 19.499 3c9.113 0 16.5 7.387 16.5 16.5S28.612 36 19.499 36C10.387 36 3 28.613 3 19.5z"/><path fill="#662113" d="M11.414 7.585c-.267-.267-.797-.197-1.355.12-3.3-2.732-8.653-3.652-8.895-3.692a1 1 0 00-.329 1.972c.053.009 4.934.854 7.821 3.16-.275.525-.324 1.015-.07 1.268.39.391 1.34.074 2.121-.707.781-.78 1.097-1.73.707-2.121z"/><path fill="#5C913B" d="M21 1s-3.106 4.318-7.021 5.273C11 7 7.041 7.07 6.646 6.15c-.394-.919 1.572-3.937 4.969-5.393C15.012-.698 21 1 21 1z"/></svg><svg viewBox="0 0 36 36" id="1F34B" xmlns="http://www.w3.org/2000/svg"><path fill="#5C913B" d="M11.405 3.339c6.48-1.275 8.453 1.265 11.655.084 3.202-1.181.093 2.82-.745 3.508-.84.688-8.141 4.809-11.307 3.298-3.166-1.511-3.182-6.186.397-6.89z"/><path fill="#77B255" d="M15.001 16a.998.998 0 01-.801-.4c-.687-.916-1.308-1.955-1.965-3.056C9.967 8.749 7.396 4.446.783 2.976a1 1 0 11.434-1.952C8.671 2.68 11.599 7.581 13.952 11.519c.63 1.054 1.224 2.049 1.848 2.881a1 1 0 01-.799 1.6z"/><path fill="#FFCC4D" d="M34.3 31.534c.002-.017-.003-.028-.003-.043 2.774-5.335 2.647-15.113-3.346-21.107-5.801-5.8-13.68-5.821-18.767-4.067-1.579.614-2.917.066-3.815.965-.881.881-.351 2.719-.714 3.819-3.169 5.202-3.405 13.025 2.688 19.117 4.962 4.962 10.438 6.842 19.98 4.853.002-.002.005-.001.008-.002 1.148-.218 2.95.523 3.566-.094 1.085-1.085.309-2.358.403-3.441z"/><path fill="#77B255" d="M8.208 6.583s-4.27-.59-6.857 4.599c-2.587 5.188.582 9.125.29 12.653-.293 3.53 1.566 1.265 2.621-.445s4.23-4.895 4.938-9.269c.707-4.376-.07-6.458-.992-7.538z"/></svg><svg viewBox="0 0 36 36" id="1F34C" xmlns="http://www.w3.org/2000/svg"><path fill="#FFE8B6" d="M28 2c2.684-1.342 5 4 3 13-1.106 4.977-5 9-9 12s-11-1-7-5 8-7 10-13c1.304-3.912 1-6 3-7z"/><path fill="#FFD983" d="M31 8c0 3-1 9-4 13s-7 5-4 1 5-7 6-11 2-7 2-3z"/><path fill="#FFCC4D" d="M22 20c-.296.592 1.167-3.833-3-6-1.984-1.032-10 1-4 1 3 0 4 2 2 4a2.918 2.918 0 00-.622.912c-.417.346-.873.709-1.378 1.088-2.263 1.697-5.84 4.227-10 7-3 2-4 3-4 4 0 3 9 3 14 1s10-7 10-7l4-4c-3-4-7-2-7-2z"/><path fill="#FFE8B6" d="M22 20s1.792-4.729-3-7c-4.042-1.916-8-1-11 1s-2 4-3 5 1 2 3 0 8.316-4.895 11-4c3 1 2 2.999 3 5z"/><path fill="#A6D388" d="M26 35h-4c-2 0-3 1-4 1s-2-2 0-2 4 0 5-1 5 2 3 2z"/><circle cx="18" cy="35" r="1" fill="#3E721D"/><path fill="#FFCC4D" d="M32.208 28S28 35 26 35h-4c-2 0 0-1 1-2s5 0 5-6c0-3 4.208 1 4.208 1z"/><path fill="#FFE8B6" d="M26 19c3 0 8 3 7 9s-5 7-7 7h-2c-2 0-1-1 0-2s4 0 4-6c0-3-4-7-6-7 0 0 2-1 4-1z"/><path fill="#FFD983" d="M17 21c3 0 5 1 3 3-1.581 1.581-6 5-10 6s-8 1-5-1 9.764-8 12-8z"/><path fill="#C1694F" d="M2 31c1 0 1 0 1 .667C3 32.333 3 33 2 33s-1-1.333-1-1.333S1 31 2 31z"/></svg><svg viewBox="0 0 36 36" id="1F34D" xmlns="http://www.w3.org/2000/svg"><path fill="#5C913B" d="M18.241 9.633c-.277-3.307 2.17-4.72 2.17-4.72-3.199.113-4.894 2.826-4.894 2.826-.752-1.3.946-4.012 2.169-4.719-3.198.113-3.67 2.12-3.67 2.12-1.503-2.601-1.03-4.607-1.03-4.607-1.121.647-1.767 2.113-2.141 3.512l-2.318-2.67c-.23 1.044.157 3.174.573 4.959-3.055-1.79-5.903-.15-5.903-.15 3.95 1.188 5.45 3.788 5.45 3.788s-3.948-1.187-5.646 1.526c2.597-.092 4.5.499 5.856 1.23-1.163.289-3.145-.236-4.355 1.371 0 0 3.198-.113 3.851 1.055-2.172.614-3.575 2.251-3.575 2.251 4.422-.818 9.123 1.669 9.123 1.669l6.119-3.532c-1.029-4.607 2.642-6.727 2.642-6.727-2.724-1.895-4.421.818-4.421.818z"/><path fill="#FFAC33" d="M29.56 22.88c2.488 4.309 1.218 9.7-2.837 12.041-4.055 2.341-9.359.746-11.846-3.562l-1.589-2.753c-2.488-4.31-1.217-9.699 2.837-12.04 4.055-2.341 9.359-.747 11.846 3.562l1.589 2.752z"/><path fill="#FFCC4D" d="M30.562 25.364a9.5 9.5 0 00-1.002-2.484l-.186-.323v.001l-1.951-.828.624-1.471-.075-.131c-2.025-3.51-5.92-5.217-9.486-4.466l-.818 1.926-1.884-.8c-3.28 2.122-4.567 6.319-3.262 10.128l1.006.427-.401.946c.055.105.102.212.163.315l1.589 2.753a9.417 9.417 0 002.618 2.909l.229-.538 1.951.828-.324.764a8.785 8.785 0 002.061.572l.215-.507 1.403.595a8.014 8.014 0 003.343-.883l-.017-.007.828-1.951 1.189.504a8.218 8.218 0 001.334-1.736l-1.693-.72.828-1.951 1.667.707c.191-.7.301-1.427.316-2.167l-1.155-.49.828-1.951.062.029zm-6.212-7.243l1.95.829-.828 1.95-1.951-.828.829-1.951zm.294 4.731l-.828 1.95-1.951-.827.828-1.951 1.951.828zm-4.197-6.387l1.951.828-.829 1.952-1.951-.828.829-1.952zm-1.656 3.902l1.951.828-.828 1.951-1.95-.828.827-1.951zm-3.902-1.655l1.95.828-.828 1.949-1.95-.828.828-1.949zm-2.484 5.853l.828-1.952 1.951.828-.829 1.952-1.95-.828zm4.196 6.385l-1.951-.827.828-1.951 1.951.828-.828 1.95zm-.295-4.73l.829-1.951 1.951.827-.829 1.952-1.951-.828zm4.196 6.386l-1.95-.828.828-1.95 1.95.829-.828 1.949zm-.294-4.73l.828-1.952 1.951.829-.828 1.952-1.951-.829zm4.197 6.388l-1.951-.828.828-1.951 1.951.828-.828 1.951zm1.657-3.904l-1.95-.827.828-1.952 1.95.828-.828 1.951zm1.656-3.901l-1.951-.828.828-1.95 1.951.827-.828 1.951z"/></svg><svg viewBox="0 0 36 36" id="1F34E" xmlns="http://www.w3.org/2000/svg"><path fill="#DD2E44" d="M24 7c-3 0-3 1-6 1s-3-1-6-1c-4 0-9 2-9 9 0 11 6 20 10 20 3 0 3-1 5-1s2 1 5 1c4 0 10-9 10-20 0-7.001-5-9-9-9z"/><path fill="#77B255" d="M19 7s3-4 8-4c4 0 6 2 6 2s-4 3-7 3-7-1-7-1z"/><path fill="#662113" d="M18 10a1 1 0 01-1-1c0-3.441 1.2-6.615 3.293-8.707a.999.999 0 111.414 1.414C19.986 3.427 19 6.085 19 9a1 1 0 01-1 1z"/></svg><svg viewBox="0 0 36 36" id="1F34F" xmlns="http://www.w3.org/2000/svg"><path fill="#77B255" d="M24 7c-3 0-3 1-6 1s-3-1-6-1c-4 0-9 2-9 9 0 11 6 20 10 20 3 0 3-1 5-1s2 1 5 1c4 0 10-9 10-20 0-7.001-5-9-9-9z"/><path fill="#3E721D" d="M17.311 7.88s-1.775-4.674-6.58-6.06c-3.843-1.108-6.318.26-6.318.26s3.012 3.991 5.895 4.822c2.882.83 7.003.978 7.003.978z"/><path fill="#662113" d="M18 10a1 1 0 01-1-1c0-3.441 1.2-6.615 3.293-8.707a.999.999 0 111.414 1.414C19.986 3.427 19 6.085 19 9a1 1 0 01-1 1z"/></svg><svg viewBox="0 0 36 36" id="1F350" xmlns="http://www.w3.org/2000/svg"><path fill="#A6D388" d="M7.681 9.097c1.587-3.151 7.698-1.916 11.958 2.171 2.697 2.586 8.056 1.498 11.498 4.804 3.493 3.354 3.259 9.361-3.053 15.767C23 37 16 37 11.835 33.384c-4.388-3.811-2.476-8.61-4.412-13.585C5.487 14.823 3.1 9.375 7.681 9.097z"/><path fill="#662113" d="M8.178 9.534c-.43.448-1.114.489-1.527.093-3.208-3.079-3.918-7.544-3.946-7.776-.074-.586.348-1.157.939-1.278.592-.121 1.131.257 1.205.842.006.05.657 3.997 3.359 6.59.413.397.4 1.081-.03 1.529z"/></svg><svg viewBox="0 0 36 36" id="1F351" xmlns="http://www.w3.org/2000/svg"><path fill="#5C913B" d="M1.062 5.125s4.875-5 10-5C17.188.125 19 5.062 19 5.062s.625-4 5-4 6.938 3.125 6.938 3.125-3.562 2.125-4.625 2.562c-2.801 1.153-11.375 3.562-15.375 2.562S1.062 5.125 1.062 5.125z"/><path fill="#FF886C" d="M18 6s1.042-.896 6-.896c6.542 0 12 4.812 12 12.927 0 11.531-14.958 17.881-14.958 17.881S1 34.833 1 17.977C1 8.018 7.75 5 12 5c4.958 0 6 1 6 1z"/><path fill="#77B255" d="M1.062 5.125s4.875-5 10-5C17.188.125 19 5.062 19 5.062s-4.062 5.25-8.062 4.25-9.876-4.187-9.876-4.187z"/><path fill="#DD2E44" d="M22.999 30a1 1 0 01-.831-1.555C22.183 28.423 24 25.538 24 19c0-6.445-4.578-10.182-4.625-10.219a1 1 0 111.25-1.561C20.844 7.395 26 11.604 26 19c0 7.22-2.079 10.422-2.168 10.555a.998.998 0 01-.833.445z"/></svg><svg viewBox="0 0 36 36" id="1F352" xmlns="http://www.w3.org/2000/svg"><path fill="#77B255" d="M25.999 24a.996.996 0 01-.572-.181C18.884 19.239 13.261 11.453 10.03 6.38c1.699 10.528.997 16.458.962 16.744a1 1 0 01-1.984-.247c.009-.079.936-8.033-1.986-21.668a1 1 0 011.86-.68c.079.148 8.007 14.873 17.691 21.652A1 1 0 0125.999 24z"/><path fill="#5C913B" d="M26.547 8.818c-3.476.96-5.051 2.546-10.749.667-4.72-1.557-7.037-4.207-6.345-6.305.692-2.098 3.18-3.163 7.9-1.606 4.749 1.567 4.123 3.466 9.194 7.244z"/><circle cx="26" cy="28" r="8" fill="#BE1931"/><circle cx="11" cy="28" r="8" fill="#BE1931"/></svg><svg viewBox="0 0 36 36" id="1F353" xmlns="http://www.w3.org/2000/svg"><path fill="#BE1931" d="M22.614 34.845c3.462-1.154 6.117-3.034 6.12-9.373C28.736 21.461 33 17 32.999 12.921 32.998 9 28.384 2.537 17.899 3.635 7.122 4.764 3 8 2.999 15.073c0 4.927 5.304 8.381 8.127 13.518C13 32 18.551 38.187 22.614 34.845z"/><path fill="#77B255" d="M26.252 3.572c-1.278-1.044-3.28-1.55-5.35-1.677.273-.037.542-.076.82-.094.973-.063 3.614-1.232 1.4-1.087-.969.063-1.901.259-2.837.423.237-.154.479-.306.74-.442C21 0 17 0 14.981 1.688 14.469 1.576 14 1 11 1c-2 0-4.685.926-3 1 .917.041 2 0 1.858.365C9.203 2.425 6 3 6 4c0 .353 2.76-.173 3 0-1.722.644-3 2-3 3 0 .423 2.211-.825 3-1-1 1-1.4 1.701-1.342 2.427.038.475 2.388-.09 2.632-.169.822-.27 3.71-1.258 4.6-2.724.117.285 2.963 1.341 4.11 1.466.529.058 2.62.274 2.141-.711C21 6 20 5 19.695 4.025c.446-.019 8.305.975 6.557-.453z"/><path fill="#F4ABBA" d="M9.339 17.306c-.136-1.46-2.54-3.252-2.331-1 .136 1.46 2.54 3.252 2.331 1zm7.458.553c-.069-.622-.282-1.191-.687-1.671-.466-.55-1.075-.362-1.234.316-.187.799.082 1.752.606 2.372l.041.048c-.213-.525-.427-1.05-.642-1.574l.006.047c.071.64.397 1.73 1.136 1.906.754.182.826-.988.774-1.444zm5.752-4.841c.476-.955.17-3.962-.831-1.954-.476.954-.171 3.962.831 1.954zm7.211-1.457c-.03-.357-.073-.78-.391-1.01-1.189-.858-2.381 2.359-1.385 3.08.02.012.036.025.055.039l-.331-.919a.44.44 0 00.003.052c.049.564.376 1.377 1.084.948.667-.406 1.028-1.444.965-2.19zm-1.345 8.567c1.016-1.569-.545-3.451-1.78-1.542-1.016 1.568.546 3.45 1.78 1.542zm-5.748 2.894c.173-1.938-2.309-2.752-2.51-.496-.173 1.938 2.309 2.752 2.51.496zm-9.896-1.212l-.049.004 1.362.715c-.006-.004-.011-.011-.018-.017-.306-.28-1.353-1.083-1.788-.592-.44.497.498 1.421.804 1.703.342.314.928.763 1.429.73 1.437-.093-.783-2.605-1.74-2.543zm13.227 5.907c.969-1.066.725-4.05-.798-2.376-.969 1.066-.724 4.05.798 2.376zM12.599 13.753c.093-.005.187-.012.28-.019.703-.046 1.004-1.454 1.042-1.952.044-.571-.043-1.456-.785-1.407l-.281.019c-.702.047-1.004 1.454-1.042 1.952-.044.571.044 1.457.786 1.407zm7.846 15.257c.395.764.252 1.623-.32 1.919s-1.357-.081-1.753-.844c-.395-.764-.252-1.623.32-1.919.573-.296 1.357.081 1.753.844z"/></svg><svg viewBox="0 0 36 36" id="1F95D" xmlns="http://www.w3.org/2000/svg"><path fill="#C1694F" d="M25.94 15.188c2.045 8.239-1.642 16.246-8.235 17.881-6.592 1.636-13.593-3.719-15.638-11.958-2.044-8.24 1.642-16.246 8.236-17.882 6.59-1.636 13.593 3.718 15.637 11.959z"/><path fill="#C1694F" d="M34.146 13.151c2.391 9.635-6.295 17.402-14.948 19.548-8.653 2.146-14.34-3.532-16.385-11.773-2.044-8.24.328-15.92 8.98-18.066 8.652-2.148 19.801.005 22.353 10.291z"/><path fill="#77B255" d="M24.448 15.558c1.789 7.211-1.438 14.215-7.205 15.646-5.768 1.434-11.895-3.253-13.685-10.463-1.788-7.21 1.438-14.215 7.207-15.647 5.766-1.43 11.893 3.254 13.683 10.464z"/><path fill="#A6D388" d="M12.871 5.837c4.713 0 9.174 4.19 10.607 9.962.811 3.267.56 6.581-.707 9.331-1.231 2.674-3.28 4.486-5.768 5.103a7.729 7.729 0 01-1.868.228c-4.712 0-9.172-4.19-10.605-9.962-1.654-6.662 1.252-13.138 6.476-14.434a7.754 7.754 0 011.865-.228m0-1c-.702 0-1.406.084-2.106.257-5.769 1.432-8.995 8.437-7.206 15.647 1.572 6.335 6.492 10.721 11.575 10.721.702 0 1.409-.084 2.109-.258 5.766-1.431 8.994-8.435 7.205-15.646-1.573-6.335-6.494-10.721-11.577-10.721z"/><g fill="#A6D388"><path d="M18.974 18.518l-2.799 1.311 1.656 4.152-2.955-2.326-.697 4.171-1.378-4.098-2.651 1.745 1.006-3.976-3.043-1.701 2.8-1.315-1.657-4.149 2.957 2.115.697-4.172 1.379 4.31 2.645-1.745-1.001 3.973z"/><path d="M14.178 26.826a.998.998 0 01-.947-.682l-.964-2.868-1.567 1.032a1 1 0 01-1.519-1.081l.817-3.232-2.373-1.326a1.001 1.001 0 01.062-1.778l1.947-.914-1.308-3.274a.999.999 0 011.511-1.184l1.653 1.183.432-2.59a1 1 0 01.914-.833c.472-.022.885.253 1.025.693l.977 3.053 1.544-1.019a1 1 0 011.52 1.079l-.813 3.231 2.373 1.33a1 1 0 01-.064 1.778l-1.945.912 1.307 3.276a1 1 0 01-1.547 1.156l-1.628-1.282-.419 2.506a1 1 0 01-.907.832l-.081.002zm-1.377-6.098a1.004 1.004 0 01.948.682l.103.306.038-.225a1 1 0 011.604-.622l.027.021-.275-.691a1 1 0 01.504-1.275l1.036-.485-1.342-.752a1.001 1.001 0 01-.481-1.117l.372-1.477-.496.327a1.001 1.001 0 01-1.503-.53l-.12-.375-.016.097a1 1 0 01-1.568.649l-.181-.129.391.979a1 1 0 01-.503 1.276l-1.038.487 1.343.75c.395.221.593.68.481 1.118l-.374 1.479.5-.329a1 1 0 01.55-.164z"/></g><g fill="#C6E5B3"><path d="M16.788 18.019l-1.709.812 1.076 2.538-1.846-1.288-.378 2.556-.91-2.634-1.606 1.077.566-2.437-1.902-1.034 1.706-.813-1.078-2.539 1.852 1.286.373-2.556.911 2.637 1.61-1.079-.567 2.438z"/><path d="M13.931 23.137a.5.5 0 01-.472-.337l-.698-2.021-1.066.716a.499.499 0 01-.766-.528l.48-2.066-1.569-.852a.501.501 0 01.024-.891l1.274-.607-.891-2.099a.5.5 0 01.746-.605l1.188.826.256-1.757a.498.498 0 01.448-.425.495.495 0 01.52.334l.7 2.024 1.071-.718a.5.5 0 01.765.529l-.48 2.067 1.568.854a.501.501 0 01-.024.891l-1.277.607.89 2.097a.5.5 0 01-.747.605l-1.184-.826-.26 1.757a.501.501 0 01-.448.425h-.048zm-.91-3.634a.497.497 0 01.472.337l.243.701.079-.533a.502.502 0 01.78-.337l.421.294-.398-.938a.5.5 0 01.246-.646l.823-.392-1.04-.566a.5.5 0 01-.248-.552l.28-1.205-.558.374a.497.497 0 01-.751-.252l-.241-.697-.077.525a.5.5 0 01-.779.338l-.429-.298.401.945a.5.5 0 01-.245.646l-.821.391 1.041.565a.501.501 0 01.248.553l-.279 1.203.553-.371a.498.498 0 01.279-.085z"/></g><path fill="#292F33" d="M9.306 14.957c.229.497.147 1.024-.185 1.178-.332.153-.786-.127-1.016-.624-.229-.497-.147-1.024.185-1.177.331-.154.786.126 1.016.623zm6.698-2.936c-.129.532-.521.894-.876.809-.356-.087-.538-.589-.409-1.121.129-.532.521-.894.877-.807.354.085.537.586.408 1.119zm-2.644 9.914c-.129.532-.52.894-.875.809-.357-.087-.539-.588-.41-1.12.129-.531.521-.895.877-.808.354.086.537.587.408 1.119zm3.216 2.178c.229.497.147 1.023-.185 1.179-.331.151-.786-.128-1.016-.625-.228-.496-.148-1.023.185-1.178.332-.152.787.127 1.016.624zm1.121-7.683c-.304.292-.68.391-.843.225-.161-.17-.045-.542.258-.835.303-.292.681-.393.843-.224.162.169.047.542-.258.834zm-5.274-2.365c.181.38.158.768-.053.871-.212.098-.53-.129-.71-.509-.18-.38-.156-.77.056-.871.21-.101.528.128.707.509zm-3.98 7.094c-.304.292-.679.392-.843.225-.16-.169-.045-.542.258-.834.303-.291.68-.393.843-.225.162.169.047.542-.258.834zm10.622-.928c.329.356.382.842.116 1.093-.267.246-.752.159-1.082-.195-.33-.356-.384-.843-.116-1.094.267-.248.751-.16 1.082.196z"/></svg><svg viewBox="0 0 36 36" id="1F965" xmlns="http://www.w3.org/2000/svg"><path fill="#8B5E3C" d="M5.506 30.167c-7.03-7.029-6.397-19.059 1.414-26.87l25.456 25.456c-7.811 7.811-19.841 8.443-26.87 1.414z"/><path fill="#603913" d="M6.92 3.297c-3.905 3.905-1.373 12.77 5.656 19.8 7.031 7.029 15.895 9.561 19.799 5.656 3.905-3.904 1.374-12.769-5.657-19.799C19.69 1.924 10.825-.607 6.92 3.297z"/><path fill="#F5F8FA" d="M31.591 24.217a1 1 0 001.677-.469c.067-.269 1.575-6.67-3.013-11.258-1.12-1.12-2.783-3.774-3.256-4.544-.4-.415-.733-.27-1.498-1.035-.35-.35-1.405-2.248-4.439.629a.989.989 0 00-.116 1.275l10.528 15.263c.036.05.075.097.117.139z"/><path fill="#603913" d="M24.271 7.562c.707.707 1.458 1.417 1.458 1.417s2.404 2.804 3.819 4.218c4.242 4.243 2.75 10.313 2.75 10.313L20.646 7.833s2.792-1.042 3.625-.271zm1.271-1.354c-1.833-1.438-4.777-.315-5.5.396-.683.683-.467 1.984.081 2.778l10.528 15.263a1.999 1.999 0 003.588-.658c.072-.293 1.705-7.223-3.277-12.205-.892-.892-1.938-1.738-2.909-2.913a28.933 28.933 0 00-2.074-2.328l-.437-.333z"/><path fill="#F5F8FA" d="M8.334 4.711c-3.124 3.124-.592 10.722 5.657 16.97 6.247 6.248 13.846 8.781 16.97 5.657 3.124-3.124.591-10.723-5.657-16.971-6.248-6.247-13.846-8.78-16.97-5.656z"/><path fill="#99AAB5" d="M10.411 6.877c-2.318 2.318-.083 8.314 4.994 13.391 5.078 5.078 11.072 7.312 13.391 4.994 2.318-2.318.083-8.313-4.994-13.391-5.076-5.078-11.072-7.313-13.391-4.994z"/><path fill="#99AAB5" d="M20.199 9.939l1.176-.335c.562-.312 1.354-.333 1.896.167l1.211 1.273c.573.69 1.919 2.137 2.995 3.213 3.807 3.807 2.319 8.722 2.253 8.93a.5.5 0 01-.888.135l-8.797-12.669a.502.502 0 01.154-.714z"/><path fill="#F5F8FA" d="M23.76 26.056s-3.209-2.085-3.771-3.771c-.628-1.885-4.662-2.252-5.29-4.138-.627-1.885-1.676-4.765-2.253-5.918-.576-1.153-1.258-.001-1.886-1.886-.628-1.887-1.885-3.144-1.885-3.144s0 8.801 1.885 10.686c1.886 1.886 9.429 9.429 10.058 8.799.628-.628 3.142-.628 3.142-.628z"/><path fill="#603913" d="M22.838 27.73s-3.73-2.537-4.316-4.294c-.655-1.964-5.29-2.619-5.944-4.583-.655-1.964-1.596-5.486-1.913-5.892-.916-1.18-1.309-.001-1.964-1.964-.655-1.965-1.964-3.274-1.964-3.274s0 9.166 1.964 11.13c1.964 1.965 9.82 9.821 10.476 9.166.655-.654 3.661-.289 3.661-.289z"/><path fill="#8B5E3C" d="M21.769 29.46s-3.61-2.345-4.242-4.242c-.707-2.121-6.365-3.536-7.072-5.657-.707-2.122-.707-4.95-1.414-5.657-.707-.708-1.414 0-2.121-2.122-.707-2.121-2.121-3.535-2.121-3.535s0 9.9 2.121 12.021 10.606 10.606 11.313 9.899c.708-.707 3.536-.707 3.536-.707z"/><path fill="#A97C50" d="M10.811 32.853c.091-.285.836-.061 1.113.001 6.934 1.526 11.66-1.385 11.712-1.409.272-.136.579-.034.685.224.106.258-.026.577-.296.712-.225.112-4.808 2.55-12.125.939-.091-.021-.721-.131-.781-.191-.123-.123-.37-.084-.308-.276zm-8.364-9.968c.115.114.108.212.29.165.288-.073.299-.517.255-.798-.492-3.192.36-6.504 1.841-10.352.107-.281-.027-.575-.294-.652-.272-.08-.579.084-.687.364-1.555 4.034-2.057 7.636-1.536 11.013a.475.475 0 00.131.26zm10.357 9.178a.47.47 0 00.279.132c3.769.426 6.893-1.137 7.024-1.204.269-.137.4-.456.291-.714-.108-.259-.417-.356-.688-.218-.029.015-2.743 1.843-6.181 1.453-.285-.032-.826-.016-.889.275-.036.177.053.166.164.276z"/></svg><svg viewBox="0 0 36 36" id="1F96D" xmlns="http://www.w3.org/2000/svg"><path fill="#77B255" d="M26.38 3.539c.483-.039 1.259-.655 1.664-.595.405.06 1.573 1.078 1.67 1.283.097.205-.637 1.178-.746 1.48-.109.302-.64.239-1.51-.543-.869-.782-1.078-1.625-1.078-1.625z"/><path fill="#EA564B" d="M12.3 3.139c4.545-2.66 11.267-2.611 13.685-.58 1.617 1.358 2.942 2.401 4.474 3.011 2.022.804 3.692 3.154 4.415 5.384.981 3.023 1.68 12.579-8.029 18.516-6.233 3.812-17.656 5.363-18.961 4.723-.984-.483-4.621-2.09-6.675-6.453S-1.324 11.111 12.3 3.139z"/><path fill="#F97253" d="M17.329 2.607C22.578 1.125 26.5 4.743 24.078 5c-4.359.463-9.015 4.969-12.625 8.375-6.625 6.25-8.125 13.75-9 12.5-1.424-2.034-1.468-9.148 3.561-15.386 5.029-6.238 9.104-7.257 11.315-7.882z"/><path fill="#77B255" d="M28.271 4.278c2.174.697 4.987 4.564 4.944 7.811-.114 8.655-4.132 11.992-4.132 11.992s-2.551-9.325-2.171-12.719c.278-2.478 1.646-3.166 1.891-4.569.229-1.305-.532-2.515-.532-2.515z"/></svg><svg viewBox="0 0 36 36" id="1FAD0" xmlns="http://www.w3.org/2000/svg"><path fill="#5C913B" d="M8.089 1s5.858.616 8.54 4.06c3.206 4.117.891 7.962.891 7.962s-4.825-.425-7.03-3.157C7.287 5.896 8.089 1 8.089 1z"/><path fill="#77B255" d="M21.901 1s.913 4.617-1.006 7.47c-2.293 3.41-5.676 2.54-5.676 2.54s-.813-3.784.691-6.106C18.096 1.53 21.901 1 21.901 1z"/><ellipse cx="23.737" cy="11.536" fill="#5864B7" rx="6.916" ry="6.027"/><path fill="#334372" d="M19.34 16.996c0-.851-.124-1.64-.34-2.373a12.608 12.608 0 013.983-.641c2.263 0 4.355.55 6.073 1.562C27.818 17.147 25.7 18 23.292 18c-1.476 0-2.834-.331-3.955-.949 0-.019.003-.036.003-.055z"/><path fill="#334372" d="M21.761 16.558c0 .27-.017.531-.04.789-2.836-.632-4.901-2.641-4.901-5.811 0-.778.129-1.483.359-2.119 2.732 1.246 4.582 3.739 4.582 7.141z"/><ellipse cx="10.892" cy="16.558" fill="#5864B7" rx="8.892" ry="8.035"/><path fill="#334372" d="M10.892 24.091c0-5.278 3.75-8.713 8.687-9.406.132.589.206 1.213.206 1.872 0 4.984-3.968 8.024-8.867 8.034-.008-.166-.026-.329-.026-.5z"/><ellipse cx="17.507" cy="21.519" fill="#AA8DD8" rx="2.525" ry="2.5" transform="rotate(-60 17.507 21.52)"/><ellipse cx="22.44" cy="25.095" fill="#5864B7" rx="10.56" ry="9.542"/><path fill="#334372" d="M17.043 19.746c.702-1.228 1.699-.59 2.881-1.366.95-.624 1.079-1.574 2.079-1.574s1.604.832 2.168 1.04c1.327.489 2.119-.228 3.119.772s-.772 1.901-.921 2.673c-.189.982 1.04 1.693.178 2.168-1.237.683-1.549-.556-3.547-.459-1.502.073-2.096 1.528-3.403 1.082-1.339-.456.475-1.752-.327-2.584-.981-1.018-2.702-.92-2.227-1.752zm-10.871-7.99c.445-1.036 1.065-.439 1.932-1.161.696-.581.712-1.345 1.504-1.436.792-.091 1.346.514 1.812.627 1.096.267 1.88-.08 2.541.329.959.594-.138 1.312-.186 1.937-.061.795.676 1.511.036 1.966-.919.654-1.492-.174-3.066.083-1.183.194-1.271 1.037-2.347.802-1.102-.24-.151-1.315-.861-1.901-.869-.716-1.667-.544-1.365-1.246zM24.39 6.679c.831-.296.818.377 1.693.49.703.091 1.15-.307 1.624.1.473.406.421 1.045.604 1.373.429.77 1.046 1.036 1.162 1.632.17.866-.826.618-1.21.924-.488.388-.508 1.191-1.108 1.066-.864-.18-.693-.948-1.678-1.714-.74-.576-1.27-.177-1.708-.919-.448-.76.674-.785.632-1.505-.051-.881-.573-1.247-.011-1.447z"/><ellipse cx="22.667" cy="20.182" fill="#253356" rx="3.758" ry="2.387"/><ellipse cx="10.455" cy="11.945" fill="#253356" rx="2.818" ry="1.791"/><ellipse cx="26.7" cy="9.278" fill="#253356" rx="1.293" ry="2.035" transform="rotate(-40.137 26.699 9.278)"/></svg><svg viewBox="0 0 36 36" id="1FAD2" xmlns="http://www.w3.org/2000/svg"><path fill="#909B50" d="M13.241 23.993c1.274-1.617 4.455-.891 6.416.535s3.089 4.337 1.901 5.941-4.158 1.96-6.416.416c-2.258-1.545-3.446-4.931-1.901-6.892zm4.455-20.792c2.802.342 3.208 2.97 2.792 5.703-.416 2.733-2.436 5.347-4.693 5.228-2.257-.119-3.149-3.446-2.792-6.238s2.258-4.99 4.693-4.693z"/><path fill="#C1694F" d="M1.3 32.876a.624.624 0 01-.576-.865c2.393-5.756 6.062-8.645 8.72-10.055 1.57-.833 2.938-2.249 4.036-3.387.663-.687 1.236-1.28 1.767-1.672 1.357-1.003 6.335-4.495 6.547-4.643a.624.624 0 11.717 1.024c-.051.036-5.177 3.631-6.521 4.625-.447.331-.986.889-1.61 1.536-1.16 1.201-2.604 2.696-4.35 3.622-2.476 1.314-5.9 4.018-8.151 9.432a.631.631 0 01-.579.383z"/><path fill="#C1694F" d="M7.538 24.5a.624.624 0 01-.622-.571c-.01-.113-.241-2.802-.12-4.437a.62.62 0 01.669-.578.627.627 0 01.578.669c-.114 1.536.116 4.21.118 4.237a.626.626 0 01-.568.677l-.055.003zm6 .356a.613.613 0 01-.339-.101l-.231-.15c-.837-.545-2.399-1.55-3.163-1.477a.62.62 0 01-.69-.553.624.624 0 01.552-.689c1.129-.117 2.525.721 3.983 1.672l.228.148a.624.624 0 01-.34 1.15zm2.051-6.85a.585.585 0 01-.521-.307c-.534-.979.188-4.022.385-4.512a.624.624 0 111.16.464c-.262.654-.631 3.017-.444 3.456.131.307.009.686-.292.831a.65.65 0 01-.288.068z"/><path fill="#C1694F" d="M19.774 20.163a.627.627 0 01-.367-.119c-1.576-1.148-2.984-1.563-4.306-1.263a.626.626 0 01-.276-1.22c1.689-.382 3.431.099 5.317 1.471.278.203.34.595.138.874a.623.623 0 01-.506.257zm3.625-3.624a.603.603 0 01-.208-.036c-1.02-.36-3.124-.883-4.528-.573a.626.626 0 01-.271-1.221c2.074-.457 4.901.503 5.215.615a.626.626 0 01-.208 1.215z"/><path fill="#3E721D" d="M34.449 2.845c2.5 1.136-1.426 5.406-3.624 6.653-2.198 1.248-10.455 5.406-10.99 5.049s3.089-6.772 6.713-9.148 6.594-3.148 7.901-2.554zM18.944 18.587c1.344-.504 6.772 1.366 9.386 3.149 2.614 1.782 4.04 4.634 2.911 5.584s-5.822.238-8.792-2.436-4.456-5.94-3.505-6.297zM9.617 2.964c2.225-.384 2.851 4.218 2.139 7.782S7.954 21.38 7.419 21.498c-.535.119-2.911-5.822-2.495-10.158.416-4.337 2.97-8.079 4.693-8.376z"/><path fill="#909B50" d="M32.341 19.492c-.8 2.707-3.459 2.674-6.086 1.812s-4.871-3.285-4.381-5.492c.49-2.207 3.918-2.536 6.613-1.724 2.695.813 4.549 3.051 3.854 5.404z"/><path fill="#C7CC62" d="M27.109 14.505c1.928.463 3.149 1.248 3.505 1.842.356.594-.059 1.248-.95.594-.891-.653-3.03-1.485-4.099-1.663-1.07-.179.059-1.13 1.544-.773zM16 4.228c1.399-.646 2.673 0 2.614.416-.059.416-1.842 0-2.673.891s-1.96 1.307-1.723.653 1.01-1.604 1.782-1.96zm1.544 20.019c1.432.102 2.97 2.198 2.436 2.614s-1.663-1.663-2.733-1.901c-1.069-.237-1.366-.831.297-.713z"/></svg></svg>