<?xml version="1.0" encoding="utf-8"?><svg viewBox="0 0 36 36" xmlns="http://www.w3.org/2000/svg" xmlns:xlink="http://www.w3.org/1999/xlink"><style>:root>svg{display:none}:root>svg:target{display:block}</style><svg viewBox="0 0 36 36" id="1F980" xmlns="http://www.w3.org/2000/svg"><path fill="#A0041E" d="M6.96 20.637c.068.639-.543 1.228-1.368 1.315-.824.089-1.547-.357-1.615-.995-.068-.639.544-1.227 1.368-1.314.824-.089 1.547.356 1.615.994zm2.087 2.717c.125.818-1.756 2.544-2.576 2.669a1.499 1.499 0 0 1-1.708-1.257c-.125-.818.58-1.14 1.398-1.265.819-.124 2.761-.965 2.886-.147zm1.783 2.104c.173.81-1.628 3.927-2.438 4.1-.811.173-1.645.146-1.817-.665-.173-.81.306-1.688 1.116-1.861.81-.174 2.966-2.384 3.139-1.574zm3.853.858c.165.811-1.338 4.354-2.15 4.519-.812.165-1.439.451-1.604-.36-.165-.812.261-1.975 1.006-2.58.644-.523 2.584-2.39 2.748-1.579z"/><path fill="#A0041E" d="M3.925 18.869c.607.715 1.18 1.23.464 1.835-.716.606-1.747.162-2.354-.554-.605-.715-2.239-3.42-1.524-4.025.717-.606 2.809 2.029 3.414 2.744zm.33 4.88c.892.295 1.857.801 1.563 1.691-.294.891-1.328.991-2.219.698-.889-.295-3.772-1.691-3.478-2.581.295-.89 3.244-.102 4.134.192zm1.214 4.532c.905-.253 1.907-.283 2.159.619.252.903-.282 1.535-1.186 1.787-.902.251-4.342.727-4.594-.176-.251-.905 2.718-1.98 3.621-2.23zm4.348 3.188c.084-.937.644-1.669 1.577-1.585.934.085 1.258 1.025 1.173 1.96-.085.934.147 3.562-1.715 4.016-.912.221-1.121-3.46-1.035-4.391zM29.04 20.637c-.068.639.543 1.228 1.367 1.315.824.089 1.547-.357 1.615-.995.068-.639-.544-1.227-1.367-1.314-.824-.089-1.547.356-1.615.994zm-2.087 2.717c-.125.818 1.757 2.544 2.575 2.669.819.125 1.584-.438 1.709-1.257s-.58-1.14-1.398-1.265c-.819-.124-2.761-.965-2.886-.147zm-1.783 2.104c-.173.81 1.628 3.927 2.438 4.1.81.173 1.644.146 1.816-.665.174-.81-.305-1.688-1.115-1.861-.81-.174-2.966-2.384-3.139-1.574zm-3.853.858c-.166.811 1.338 4.354 2.149 4.519.812.165 1.438.451 1.604-.36.164-.812-.262-1.975-1.007-2.58-.642-.523-2.582-2.39-2.746-1.579z"/><path fill="#A0041E" d="M32.075 18.869c-.607.715-1.18 1.23-.465 1.835.716.606 1.747.162 2.354-.554.605-.715 2.239-3.42 1.523-4.025-.715-.606-2.807 2.029-3.412 2.744zm-.33 4.88c-.892.295-1.857.801-1.562 1.691.293.891 1.328.991 2.219.698.889-.295 3.771-1.691 3.477-2.581-.294-.89-3.244-.102-4.134.192zm-1.215 4.532c-.904-.253-1.906-.283-2.158.619-.252.903.282 1.535 1.185 1.787.902.251 4.343.727 4.594-.177.252-.904-2.717-1.979-3.621-2.229zm-4.347 3.188c-.084-.937-.645-1.669-1.577-1.585-.935.085-1.258 1.025-1.173 1.96.084.934-.147 3.562 1.715 4.016.912.221 1.121-3.46 1.035-4.391zM3.148 13.878a1.696 1.696 0 1 1 3.1-1.384c.381.855 2.651 5.612 1.795 5.994-.855.382-4.513-3.755-4.895-4.61z"/><path fill="#A0041E" d="M3.994 12.034c1.221 2.956 8.341-3.341 8.803-6.281.462-2.939-.308-4.201-.694-4.5-.386-.299.144 1.435-1.187 3.306-1.053 1.482-7.766 5.434-6.922 7.475zm28.858 1.844a1.699 1.699 0 0 0-3.101-1.384c-.381.855-2.65 5.612-1.794 5.994.855.382 4.513-3.755 4.895-4.61z"/><path fill="#A0041E" d="M32.007 12.034c-1.222 2.956-8.341-3.341-8.804-6.281-.461-2.939.309-4.201.694-4.5.386-.299-.144 1.435 1.187 3.306 1.054 1.482 7.766 5.434 6.923 7.475z"/><path fill="#BE1931" d="M6 22c0-2 2-10 12-10s12 8 12 10c-5 3-5.373 7-12 7s-6-4-12-7zm-1.677-9.777c-3.153.543-.358-8.141 1.883-10.099C8.446.166 10.863.207 11.321.374s-1.174 2.595-1.75 4.178c-.293.803-3.072 7.296-5.248 7.671zm27.354 0c3.152.543.358-8.141-1.882-10.099C27.555.166 25.139.207 24.68.374c-.459.167 1.174 2.595 1.75 4.178.293.803 3.071 7.296 5.247 7.671z"/><path fill="#A0041E" d="M17.032 12.136c.335 1.339-.045 1.588-.849 1.789-.804.201-1.727.278-2.061-1.061-.335-1.339.045-2.588.849-2.789.803-.201 1.726.721 2.061 2.061zm4.846.728c-.335 1.34-1.258 1.262-2.061 1.061-.804-.201-1.184-.45-.849-1.789.335-1.34 1.258-2.262 2.062-2.061.803.2 1.183 1.449.848 2.789z"/><circle cx="14.5" cy="9.5" r="1.5" fill="#292F33"/><circle cx="21.5" cy="9.5" r="1.5" fill="#292F33"/><path fill="#DD2E44" d="M9.053 21.529c-.14.236-3.053.732-2.303-.731s2.443.497 2.303.731z"/><path fill="#DD2E44" d="M9.891 20.124c-.218.225-3.188.391-1.922-1.404 1.265-1.793 2.234 1.082 1.922 1.404z"/><path fill="#DD2E44" d="M11.657 18.66c-.378.231-3.471-.501-1.407-1.932 1.872-1.296 1.906 1.626 1.407 1.932z"/><path fill="#DD2E44" d="M14.102 17.427c-1.008.299-3.378-1.302-.881-2.141 2.498-.839 1.889 1.842.881 2.141zm12.754 4.102c.141.235 3.053.731 2.303-.731-.75-1.463-2.443.497-2.303.731z"/><path fill="#DD2E44" d="M26.019 20.124c.218.225 3.188.391 1.922-1.404-1.266-1.793-2.235 1.082-1.922 1.404z"/><path fill="#DD2E44" d="M24.253 18.66c.378.231 3.471-.501 1.406-1.932-1.872-1.296-1.906 1.626-1.406 1.932z"/><path fill="#DD2E44" d="M21.808 17.427c1.008.299 3.378-1.302.881-2.141-2.499-.839-1.89 1.842-.881 2.141z"/><path fill="#A0041E" d="M26.849 16.25c0 .414-2.189-2.25-8.849-2.25-6.661 0-8.848 2.664-8.848 2.25 0-.414 2.754-3.75 8.848-3.75 6.094 0 8.849 3.336 8.849 3.75z"/><path fill="#DD2E44" d="M10.793 24.433c0-.414 1.782 2.25 7.207 2.25s7.208-2.664 7.208-2.25c0 .414-2.244 3.75-7.208 3.75s-7.207-3.336-7.207-3.75z"/></svg><svg viewBox="0 0 36 36" id="1F990" xmlns="http://www.w3.org/2000/svg"><path fill="#BE1931" d="M4.458 7.429c-4.53.32-4.775-5.511 3.801-4.738 8.576.773 17.964 3.4 20.218 1.789 1.789-1.279 1.416-3.608.966-4.078-.45-.469-1.132-.045-.787.682.344.728-.062 2.678-2.262 2.875-2.199.197-10.4-1.352-15.575-2.081C5.534 1.136 1.287 1.504.364 4.46c-.919 2.947 1.944 3.873 3.458 4.017 1.514.143.636-1.048.636-1.048z"/><path fill="#DD2E44" d="M6.083 6.708c-4.542 0-4.375-5.833 4.125-4.458S27.887 6.907 30.25 5.458c1.875-1.15 1.666-3.5 1.25-4s-1.125-.125-.833.625-.25 2.667-2.458 2.708c-2.208.043-10.279-2.08-15.39-3.171C7.6.506 3.337.575 2.208 3.458c-1.125 2.875 1.667 4 3.167 4.25s.708-1 .708-1z"/><path fill="#DD2E44" d="M33.378 13.246c-2.541-3.928-6.765-6.629-11.255-7.484C14.806 4.369 4.812 4.938 2 9c-.562.812-.478 4.671 3 6 1.763.674 6.542-.162 9.841-.462l-.22 1.737a1 1 0 0 0 1.984.252l.264-2.082c.796.02 1.572.1 2.336.232l-.599 1.959a1 1 0 0 0 1.912.585l.638-2.088c.742.223 1.479.5 2.219.826l-1.043 1.695a1 1 0 0 0 1.703 1.048l1.14-1.854c.088.047.174.089.262.138 2.808 1.558 4.526 5.937 4.454 7.555-.036.812.169 1.406.608 1.771.792.652 2.078.343 3.018.117.318-.077.647-.156.799-.153l.302-.992.098-.285c1.981-5.772.366-9.121-1.338-11.753z"/><path fill="#BE1931" d="M22.193 8.503c-.609 1.144.135.936 1.025.066.596-.583 1.541-1.218 2.541-1.671a17.51 17.51 0 0 0-1.714-.641c-.785.756-1.522 1.628-1.852 2.246zm5.981 3.096c1.271-.63 2.827-.215 4.356.481a16.74 16.74 0 0 0-2.296-2.389c-.717.044-1.431.26-2.034.703-1.005.737-2.215 2.288-.026 1.205zm3.863 3.908c-1.196.349-2.864 1.392-.438 1.124 1.411-.156 2.731.768 3.93 1.947a10.78 10.78 0 0 0-.782-2.82c-.832-.37-1.791-.519-2.71-.251zm2.44 8.633c-.402-.205-2.004 1.771-3.686-.738-.003-.005-.008-.005-.011-.01-.076-1.172-.625-6.221-5.888-8.991a13.55 13.55 0 0 0-1.837-.8 17.274 17.274 0 0 0-2.827-.713 21.437 21.437 0 0 0-1.686-.221c-.103-.009-.209-.011-.313-.019a23.302 23.302 0 0 0-3.025-.003c-.665.039-1.333.097-1.998.168-3.97.423-7.844 1.242-10.491.452.506.706 1.24 1.336 2.285 1.735 1.491.569 5.137.06 8.222-.292l.002.228a1 1 0 0 0 2-.018l-.004-.411a16.19 16.19 0 0 1 1.589-.066c.33.007.656.028.98.055l-.097.406a1 1 0 1 0 1.946.463l.137-.577c.788.165 1.566.386 2.342.667l-.265.525a1.003 1.003 0 0 0 .441 1.344 1.003 1.003 0 0 0 1.345-.441l.327-.648c.488.232.977.477 1.472.752 2.792 1.55 4.506 5.887 4.453 7.526a2.095 2.095 0 0 0-.03.387c.01.508-.112 1.094-.365 1.743-.511 1.316-1.538 2.8-2.619 3.779-.416.379-.718.801-.895 1.254-.32.829-.167 1.685.385 2.131.107.087.224.151.346.197 3.333-3.019 2.071-1.367 2.898 1.117.332.61.822.757 1.065.789.706.091 1.403-.398 1.779-1.249l.049-.118c.564-1.452 2.175-8.657 2.328-9.716a.66.66 0 0 0-.354-.687z"/><path fill="#292F33" d="M26.714 34.003c.39.147.839.092 1.244-.174.538-.353.893-.405 1.033-.343.147.064.274.35.339.762.059.367.16.649.282.872-.828-2.484 1.947-6.731-2.898-1.117z"/><circle cx="7" cy="9" r="1" fill="#292F33"/></svg><svg viewBox="0 0 36 36" id="1F991" xmlns="http://www.w3.org/2000/svg"><path fill="#EA596E" d="M31 11C31 5 18 0 18 0v25s13-8 13-14z"/><path fill="#EA596E" d="M5.002 11c0-6 13-11 13-11v25c.001 0-13-8-13-14z"/><path fill="#F4ABBA" d="M27 11c0 3.833-9 12-9 12s-9-8.167-9-12c0-5 9-11 9-11s9 6 9 11z"/><path fill="#BE1931" d="M13 15.867c2.552 4.254-1.806 9.096-4.357 8.245-2.552-.851-3.403 1.701-.851 2.552s8.052-.396 11.059-3.402c.851-.851 1.701-.851 1.701-.851L13 15.867z"/><path fill="#BE1931" d="M23 15.867c-2.552 4.254 1.806 9.096 4.357 8.245 2.553-.851 3.403 1.701.851 2.552s-8.052-.396-11.059-3.402c-.851-.851-1.702-.851-1.702-.851L23 15.867z"/><path fill="#EA596E" d="M9 17c2.552 4.254-1.369 11.366-3.921 10.515-2.552-.851-3.403 1.702-.851 2.553s8.052-.396 11.059-3.403c.851-.851 1.701-.851 1.701-.851L9 17zm17.989 0c-2.553 4.254 1.368 11.366 3.921 10.515 2.552-.851 3.402 1.702.851 2.553-2.553.851-8.052-.396-11.059-3.403-.851-.852-1.702-.852-1.702-.852L26.989 17z"/><path fill="#F4ABBA" d="M30.921 32.35C28.599 33.124 24 27 25 21c2-5-4-7.482-4-9.983 0-6.108-2.031-9.735-3.031-9.735S15 4.909 15 11.017C15 13.518 9 16 11 21c1 6-3.599 12.124-5.921 11.35-2.552-.851-3.403 2.552-.851 3.402 2.552.851 7.069-.533 10.208-3.402C16.299 30.647 18 30.647 18 30.647s1.701 0 3.563 1.702c3.139 2.869 7.656 4.253 10.208 3.402 2.552-.85 1.702-4.252-.85-3.401z"/><circle cx="14.5" cy="23.5" r="2.5" fill="#292F33"/><circle cx="21.5" cy="23.5" r="2.5" fill="#292F33"/></svg><svg viewBox="0 0 36 36" id="1F99E" xmlns="http://www.w3.org/2000/svg"><g fill="#BE1931"><path d="M14.847 22.402h-.064c-2.117-.069-4.919-1.006-6.246-5.077a.793.793 0 0 1 .503-.999.783.783 0 0 1 .992.499l.003.011c.312.959 1.263 3.876 4.8 3.991a.788.788 0 0 1 .012 1.575zm-5.348 5.637a.787.787 0 0 1 .698-.342c3.034.181 4.578-1.938 5.086-2.634a.787.787 0 0 1 1.1-.173c.352.256.414.747.173 1.1-1.698 2.33-3.869 3.434-6.453 3.28a.789.789 0 0 1-.604-1.231z"/><path d="M14.362 23.967a13.22 13.22 0 0 0 1.022-.2l.179-.04a.787.787 0 1 0-.334-1.54l-.193.043c-1.087.245-3.635.824-6.463-1.149a.788.788 0 0 0-.901 1.291c2.665 1.86 5.165 1.826 6.69 1.595z"/><path d="M15.403 25.298a22.727 22.727 0 0 0 1.053-.624.788.788 0 1 0-.825-1.343l-.168.105c-.944.591-3.156 1.981-6.479 1.057a.788.788 0 0 0-.422 1.518c3.131.87 5.479.009 6.841-.713z"/></g><g fill="#BE1931"><path d="M21.833 22.402h.064c2.117-.069 4.919-1.006 6.246-5.077a.793.793 0 0 0-.503-.999.783.783 0 0 0-.992.499l-.003.011c-.312.959-1.263 3.876-4.8 3.991a.788.788 0 0 0-.012 1.575zm5.348 5.637a.787.787 0 0 0-.698-.342c-3.034.181-4.578-1.938-5.086-2.634a.787.787 0 0 0-1.1-.173c-.352.256-.414.747-.173 1.1 1.698 2.33 3.869 3.434 6.453 3.28a.789.789 0 0 0 .604-1.231z"/><path d="M22.318 23.967a13.22 13.22 0 0 1-1.022-.2l-.179-.04a.787.787 0 1 1 .334-1.54l.193.043c1.087.245 3.635.824 6.463-1.149a.788.788 0 0 1 .901 1.291c-2.664 1.86-5.165 1.826-6.69 1.595z"/><path d="M21.277 25.298a22.727 22.727 0 0 1-1.053-.624.788.788 0 1 1 .825-1.343l.168.105c.944.591 3.156 1.981 6.479 1.057a.788.788 0 0 1 .422 1.518c-3.131.87-5.479.009-6.841-.713z"/></g><path fill="#BE1931" d="M8.983 6.922c.752-.779 2.316-2.461 1.59-3.954.949.077 6.757 6.159-.06 9.073-1.072-.137-1.53-5.119-1.53-5.119zm8.772 23.394c-.726.329-4.25 2.171-4.354 5.46.069.789 2.73-1.25 5.01-1.25v-3.454l-.656-.756z"/><path fill="#BE1931" d="M19.035 30.316c.726.329 4.25 2.171 4.354 5.46-.069.789-2.73-1.25-5.01-1.25v-3.454l.656-.756zm-11.4-18.303c.133 1.429 2.975 2.889 5.023 3.227.262-.57-1.354-2.237-2.227-3.246-.488-.564-.701-1.904-2.185-1.321s-.611 1.34-.611 1.34z"/><path fill="#BE1931" d="M11.742 13.793c-.655 0-.83 1.754 2.489 2.544s1.56-.878 1.048-1.667c-.656-1.009-3.537-.877-3.537-.877z"/><path fill="#89021F" d="M15.465 25.382c-.187.987-.075 6.217 2.961 6.612v-7.006l-2.961.394z"/><path fill="#BE1931" d="M27.629 6.922c-.752-.779-2.316-2.461-1.59-3.954-.949.077-6.757 6.159.06 9.073 1.072-.137 1.53-5.119 1.53-5.119z"/><path fill="#BE1931" d="M28.976 12.013c-.133 1.429-2.975 2.889-5.023 3.227-.262-.57 1.354-2.237 2.227-3.246.488-.564.701-1.904 2.185-1.321s.611 1.34.611 1.34z"/><path fill="#BE1931" d="M24.87 13.793c.655 0 .83 1.754-2.489 2.544s-1.56-.878-1.048-1.667c.655-1.009 3.537-.877 3.537-.877z"/><path fill="#DD2E44" d="M28.391.042c2.633.67 4.675 5.092 4.174 7.847-.782 4.302-2.992 5.787-5.428 6.164-.748-.058-3.293-3.474-.576-6.272s2.505-5.856 1.83-7.739z"/><path fill="#BE1931" d="M17.541 12.5a.5.5 0 0 1-.498-.461c-.498-6.35-2.635-10.064-6.018-10.459a.499.499 0 1 1 .117-.993c2.264.264 6.17 2.093 6.898 11.374a.501.501 0 0 1-.459.538l-.04.001zm1.418 0-.04-.001a.5.5 0 0 1-.459-.538C19.188 2.68 23.095.851 25.359.587a.499.499 0 1 1 .116.993c-3.383.395-5.52 4.109-6.018 10.459a.5.5 0 0 1-.498.461z"/><path fill="#A0041E" d="M18.381 23.04c0 1 .019 3.326.019 4.876-.576 0-1.491-.016-2.438-.3-1.497-.45-1.113-3.901-.614-4.701l3.033.125z"/><path fill="#BE1931" d="M18.335 19.239c0 1.113.022 3.702.022 5.428-.655 0-1.696-.017-2.773-.334-1.703-.501-1.266-4.342-.699-5.233l3.45.139z"/><path fill="#DD2E44" d="M18.335 11.731c0 2.169.279 8.822.279 9.497-1.397 0-5.301.337-5.082-3.134.218-3.47 2.358-6.363 4.803-6.363z"/><path fill="#89021F" d="M21.152 25.382c.187.987.075 6.217-2.961 6.612v-7.006l2.961.394z"/><path fill="#A0041E" d="M18.235 23.04c0 1-.152 3.326-.152 4.876.576 0 1.624-.016 2.57-.3 1.497-.45 1.113-3.901.614-4.701l-3.032.125z"/><path fill="#BE1931" d="M18.282 19.239c0 1.113-.165 3.702-.165 5.428.655 0 1.84-.017 2.916-.334 1.703-.501 1.266-4.342.699-5.233l-3.45.139z"/><path fill="#DD2E44" d="M18.282 11.731c0 2.169-.21 8.822-.21 9.497 1.397 0 5.231.337 5.013-3.134s-2.358-6.363-4.803-6.363zM8.22.042c-2.633.67-4.675 5.092-4.174 7.847.782 4.302 2.992 5.787 5.428 6.164.748-.058 3.293-3.474.576-6.272S7.546 1.925 8.22.042z"/><ellipse cx="16.578" cy="12.94" fill="#BE1931" rx="1.015" ry="1.435" transform="rotate(-10.068 16.574 12.941)"/><ellipse cx="19.875" cy="12.896" fill="#BE1931" rx="1.435" ry="1.015" transform="rotate(-79.939 19.875 12.896)"/><ellipse cx="16.453" cy="12.232" fill="#292F33" rx="1.015" ry="1.435" transform="rotate(-10.068 16.45 12.233)"/><ellipse cx="19.99" cy="12.232" fill="#292F33" rx="1.435" ry="1.015" transform="rotate(-79.939 19.99 12.232)"/><path fill="#EA596E" d="M14.375 18.906c.281.844.844 1.75 3.844 1.75 2.094 0 4.156-.375 4.094-1.906-.781.656-1.75.938-4.094.938-2.5 0-3.844-.782-3.844-.782z"/><path fill="#DD2E44" d="M15.272 22.923c.218.595.653 1.234 2.975 1.234 1.62 0 3.217-.264 3.168-1.344-.605.463-1.354.661-3.168.661-1.935-.001-2.975-.551-2.975-.551z"/><path fill="#BE1931" d="M15.376 26.089c.205.595.615 1.234 2.803 1.234 1.527 0 3.031-.264 2.986-1.344-.57.463-1.276.661-2.986.661-1.823 0-2.803-.551-2.803-.551z"/><path fill="#EA596E" d="M8.812 12.781a.74.74 0 0 1-.316-.07c-2.026-.944-3.157-2.62-3.361-4.98-.036-.412.265-.812.677-.848.413-.036.773.231.81.643l.006.076c.064.737.233 2.693 2.501 3.75a.75.75 0 0 1-.317 1.429zm18.938 0a.75.75 0 0 1-.317-1.43c2.268-1.057 2.437-3.013 2.5-3.75l.754-.008.741.137c-.205 2.36-1.336 4.036-3.362 4.98a.727.727 0 0 1-.316.071z"/></svg><svg viewBox="0 0 36 36" id="1F9AA" xmlns="http://www.w3.org/2000/svg"><path fill="#662113" d="M33.495 16.378C33.268 11.612.614 12.279.614 12.279c0 3 1.524 4.057 1.396 5.465-.119 1.307 1.96 1.782 1.96 1.782s1.644.753 1.644 2.753c0 1.311 1.151 2.763 2.162 6.17.297 3.149 3.773 3.988 5.347 3.535 1.699-.49 3.072-.207 3.564.267 1.172 1.128 3.189.715 4.396.208.784-.33 1.285-1.398 3.089-.535 1.366.653 2.355.151 3.568-.898l-.007.026c.043-.064.111-.108.166-.163l.208-.19c.972-.633 2.905-.467 3.369-1.548.552-1.288 2.589-1.876 2.796-2.246.832-1.485-.582-2.043-.479-2.685.598-.404 1.4-.701 1.905-1.682 1.11-2.157-2.113-4.25-2.203-6.16z"/><path fill="#C1694F" d="M.613 8.279c1-3 5-4 8-4s13 1 16 3 9 7 9 8 2 4 2 5-1 3-2 3 1 1 0 3c-.447.894-4 3-5 3s-2 2-3 2-3-1-4 0-3 1-5 0-3 0-4 0-4-2-4-3-1-6-2-7-2-4-4-5-3-5-2-8z"/><path fill="#CCD6DD" d="M3.127 8.141c1.817-2.312 4.486-2.862 7.486-2.862s12 1 15 3c1.543 1.029 3.615 2.851 5.264 4.515 1.557 1.571 2.736 3 2.736 3.485 0 1 2 3 2 4s-1 2-2 2-.608 1.799-1 4c-.222 1.246-2.846 2.24-4 2-.979-.204-2 2-3 2s-3-1-4 0-2 2-4 1-3-1-4-1-4-1-4-2-1-6-2-7-2-4-4-5-2.44-5.651-.486-8.138z"/><path fill="#E1E8ED" d="M4.201 9.05c1.985-2.462 5.422-2.394 8.422-2.394s9.633.394 12.633 2.394 7.358 6.229 7.358 7.229 2.303 3.578 2.303 4.578-1.303.422-2.303.422.495 2.945-.505 4.945c-.447.894-2.495 1.055-3.495 1.055s-1.945 2.495-2.945 2.495-3.055-1.495-4.055-.495-1.541 2.734-3.541 1.734-3.582-2.216-4.459-1.734c-1.651.908-3-1-3-2s-1.697-6.578-2.697-7.578-1.303-3.872-3.303-4.872-1.634-4.266-.413-5.779z"/><path fill="#FFAC33" d="M3.486 8.392c1.232-2.293 5.088-2.356 7.216-2.265s8.418.997 10.083 2.99 3.885 3.625 5.273 4.259c1.388.634 5.458 2.084 5.365 4.078-.093 1.994-1.573 2.809-1.573 2.809s2.128 1.994 1.11 3.534c-1.018 1.54-4.903 2.084-6.568 1.087s-3.238 1.087-5.92.634c-2.683-.453-4.995-1.54-6.846-4.803s-4.81-5.346-6.383-6.705-2.682-3.896-1.757-5.618z"/><path fill="#FFD983" d="M26.894 23.627c-.58 0-1.096-.122-1.451-.342a3.299 3.299 0 0 0-1.784-.527c-.643 0-1.214.181-1.764.356-.569.18-1.106.35-1.766.35a4.1 4.1 0 0 1-.707-.063c-2.894-.506-4.914-1.975-6.357-4.619-1.521-2.785-3.505-4.196-5.099-5.33-.553-.393-1.03-.733-1.414-1.077-1.2-1.077-2.088-2.871-1.499-4.01.492-.951 1.611-1.375 3.627-1.375.511 0 1.011.025 1.472.047l.407.019c4.172.185 7.588 1.072 8.501 2.207 1.848 2.296 4.961 4.531 6.5 5.261.262.124.595.262.968.414.906.37 3.314 1.355 3.28 2.14-.051 1.128-1.015 1.537-1.125 1.579l-2.397.937 2.125 1.462c.57.394 1.31 1.22 1.137 1.49-.393.617-1.534 1.081-2.654 1.081z"/><ellipse cx="16.867" cy="15.184" fill="#FFAC33" rx="3.587" ry="2.143"/><circle cx="16.867" cy="12.403" r="3.5" fill="#E1E8ED"/><ellipse cx="16.867" cy="11.229" fill="#FFF" rx="2.166" ry="1.832"/></svg></svg>