<?xml version="1.0" encoding="utf-8"?><svg viewBox="0 0 36 36" xmlns="http://www.w3.org/2000/svg" xmlns:xlink="http://www.w3.org/1999/xlink"><style>:root>svg{display:none}:root>svg:target{display:block}</style><svg viewBox="0 0 36 36" id="1F4A0" xmlns="http://www.w3.org/2000/svg"><path fill="#55ACEE" d="M16.867 15.734c.625.626 1.64.626 2.266 0l6.232-6.231a1.604 1.604 0 000-2.266l-6.232-6.231a1.602 1.602 0 00-2.266 0l-6.232 6.231a1.602 1.602 0 000 2.266l6.232 6.231zm9.631 9.63c.625.626 1.64.626 2.266 0l6.232-6.231a1.604 1.604 0 000-2.266l-6.232-6.231a1.602 1.602 0 00-2.266 0l-6.232 6.231a1.602 1.602 0 000 2.266l6.232 6.231zm-1.134 1.134l-6.231-6.232a1.602 1.602 0 00-2.266 0l-6.231 6.232a1.6 1.6 0 000 2.265l6.231 6.232c.626.625 1.64.625 2.266 0l6.231-6.232a1.6 1.6 0 000-2.265zm-9.63-9.63l-6.231-6.232a1.602 1.602 0 00-2.266 0l-6.231 6.232a1.6 1.6 0 000 2.265l6.231 6.232c.626.625 1.64.625 2.266 0l6.231-6.232a1.6 1.6 0 000-2.265z"/><path fill="#3B88C3" d="M15.734 16.868l-3.214-3.215A6.965 6.965 0 0011 18c0 1.644.571 3.153 1.52 4.347l3.214-3.214a1.6 1.6 0 000-2.265zm6.614 6.612l-3.215-3.215a1.605 1.605 0 00-2.266 0l-3.215 3.215A6.967 6.967 0 0018 25a6.967 6.967 0 004.348-1.52zm-2.082-4.347l3.215 3.215A6.973 6.973 0 0025 18a6.962 6.962 0 00-1.52-4.347l-3.215 3.215a1.603 1.603 0 00.001 2.265zm-1.133-3.399l3.215-3.214A6.967 6.967 0 0018 11a6.962 6.962 0 00-4.347 1.52l3.215 3.214a1.6 1.6 0 002.265 0z"/><circle cx="18" cy="18" r="5" fill="#BBDDF5"/></svg><svg viewBox="0 0 36 36" id="1F518" xmlns="http://www.w3.org/2000/svg"><circle cx="18" cy="18" r="18" fill="#269"/><circle cx="18" cy="18" r="8" fill="#BBDDF5"/></svg><svg viewBox="0 0 36 36" id="1F532" xmlns="http://www.w3.org/2000/svg"><path fill="#31373D" d="M36 32a4 4 0 01-4 4H4a4 4 0 01-4-4V4a4 4 0 014-4h28a4 4 0 014 4v28z"/><path fill="#E6E7E8" d="M30 28a2 2 0 01-2 2H8a2 2 0 01-2-2V8a2 2 0 012-2h20a2 2 0 012 2v20z"/></svg><svg viewBox="0 0 36 36" id="1F533" xmlns="http://www.w3.org/2000/svg"><path fill="#E6E7E8" d="M36 32a4 4 0 01-4 4H4a4 4 0 01-4-4V4a4 4 0 014-4h28a4 4 0 014 4v28z"/><path fill="#31373D" d="M30 28a2 2 0 01-2 2H8a2 2 0 01-2-2V8a2 2 0 012-2h20a2 2 0 012 2v20z"/></svg><svg viewBox="0 0 36 36" id="1F534" xmlns="http://www.w3.org/2000/svg"><circle cx="18" cy="18" r="18" fill="#DD2E44"/></svg><svg viewBox="0 0 36 36" id="1F535" xmlns="http://www.w3.org/2000/svg"><circle cx="18" cy="18" r="18" fill="#55ACEE"/></svg><svg viewBox="0 0 36 36" id="1F536" xmlns="http://www.w3.org/2000/svg"><path fill="#F4900C" d="M1.061 19.062a1.506 1.506 0 010-2.122L16.94 1.061a1.506 1.506 0 012.122 0L34.94 16.94a1.505 1.505 0 010 2.121L19.062 34.939a1.506 1.506 0 01-2.122 0L1.061 19.062z"/></svg><svg viewBox="0 0 36 36" id="1F537" xmlns="http://www.w3.org/2000/svg"><path fill="#55ACEE" d="M1.061 19.062a1.506 1.506 0 010-2.122L16.94 1.061a1.506 1.506 0 012.122 0L34.94 16.94a1.505 1.505 0 010 2.121L19.062 34.939a1.506 1.506 0 01-2.122 0L1.061 19.062z"/></svg><svg viewBox="0 0 36 36" id="1F538" xmlns="http://www.w3.org/2000/svg"><path fill="#F4900C" d="M7.707 18.708a1.003 1.003 0 010-1.414l9.585-9.586a1.003 1.003 0 011.414 0l9.587 9.587a1.003 1.003 0 010 1.414l-9.587 9.585a1.003 1.003 0 01-1.414 0l-9.585-9.586z"/></svg><svg viewBox="0 0 36 36" id="1F539" xmlns="http://www.w3.org/2000/svg"><path fill="#55ACEE" d="M7.707 18.708a1.003 1.003 0 010-1.414l9.585-9.586a1.003 1.003 0 011.414 0l9.587 9.587a1.003 1.003 0 010 1.414l-9.587 9.585a1.003 1.003 0 01-1.414 0l-9.585-9.586z"/></svg><svg viewBox="0 0 36 36" id="1F53A" xmlns="http://www.w3.org/2000/svg"><path fill="#E75A70" d="M19.146 7.639c-.63-.901-1.637-.884-2.236.038L6.09 24.323C5.491 25.245 5.9 26 7 26h23c1.1 0 1.483-.737.854-1.639L19.146 7.639z"/></svg><svg viewBox="0 0 36 36" id="1F53B" xmlns="http://www.w3.org/2000/svg"><path fill="#E75A70" d="M19.146 26.361c-.63.901-1.637.884-2.236-.038L6.09 9.677C5.491 8.754 5.9 8 7 8h23c1.1 0 1.483.737.854 1.639L19.146 26.361z"/></svg><svg viewBox="0 0 36 36" id="1F7E0" xmlns="http://www.w3.org/2000/svg"><circle cx="18" cy="18" r="18" fill="#F4900C"/></svg><svg viewBox="0 0 36 36" id="1F7E1" xmlns="http://www.w3.org/2000/svg"><circle cx="18" cy="18" r="18" fill="#FDCB58"/></svg><svg viewBox="0 0 36 36" id="1F7E2" xmlns="http://www.w3.org/2000/svg"><circle cx="18" cy="18" r="18" fill="#78B159"/></svg><svg viewBox="0 0 36 36" id="1F7E3" xmlns="http://www.w3.org/2000/svg"><circle cx="18" cy="18" r="18" fill="#AA8ED6"/></svg><svg viewBox="0 0 36 36" id="1F7E4" xmlns="http://www.w3.org/2000/svg"><circle cx="18" cy="18" r="18" fill="#C1694F"/></svg><svg viewBox="0 0 36 36" id="1F7E5" xmlns="http://www.w3.org/2000/svg"><path fill="#DD2E44" d="M36 32a4 4 0 01-4 4H4a4 4 0 01-4-4V4a4 4 0 014-4h28a4 4 0 014 4v28z"/></svg><svg viewBox="0 0 36 36" id="1F7E6" xmlns="http://www.w3.org/2000/svg"><path fill="#55ACEE" d="M36 32a4 4 0 01-4 4H4a4 4 0 01-4-4V4a4 4 0 014-4h28a4 4 0 014 4v28z"/></svg><svg viewBox="0 0 36 36" id="1F7E7" xmlns="http://www.w3.org/2000/svg"><path fill="#F4900C" d="M36 32a4 4 0 01-4 4H4a4 4 0 01-4-4V4a4 4 0 014-4h28a4 4 0 014 4v28z"/></svg><svg viewBox="0 0 36 36" id="1F7E8" xmlns="http://www.w3.org/2000/svg"><path fill="#FDCB58" d="M36 32a4 4 0 01-4 4H4a4 4 0 01-4-4V4a4 4 0 014-4h28a4 4 0 014 4v28z"/></svg><svg viewBox="0 0 36 36" id="1F7E9" xmlns="http://www.w3.org/2000/svg"><path fill="#78B159" d="M36 32a4 4 0 01-4 4H4a4 4 0 01-4-4V4a4 4 0 014-4h28a4 4 0 014 4v28z"/></svg><svg viewBox="0 0 36 36" id="1F7EA" xmlns="http://www.w3.org/2000/svg"><path fill="#AA8ED6" d="M36 32a4 4 0 01-4 4H4a4 4 0 01-4-4V4a4 4 0 014-4h28a4 4 0 014 4v28z"/></svg><svg viewBox="0 0 36 36" id="1F7EB" xmlns="http://www.w3.org/2000/svg"><path fill="#C1694F" d="M36 32a4 4 0 01-4 4H4a4 4 0 01-4-4V4a4 4 0 014-4h28a4 4 0 014 4v28z"/></svg><svg viewBox="0 0 36 36" id="25AA" xmlns="http://www.w3.org/2000/svg"><path fill="#31373D" d="M25 24a1 1 0 01-1 1H12a1 1 0 01-1-1V12a1 1 0 011-1h12a1 1 0 011 1v12z"/></svg><svg viewBox="0 0 36 36" id="25AB" xmlns="http://www.w3.org/2000/svg"><path fill="#E6E7E8" d="M25 24a1 1 0 01-1 1H12a1 1 0 01-1-1V12a1 1 0 011-1h12a1 1 0 011 1v12z"/></svg><svg viewBox="0 0 36 36" id="25FB" xmlns="http://www.w3.org/2000/svg"><path fill="#E6E7E8" d="M33 30a3 3 0 01-3 3H6a3 3 0 01-3-3V6a3 3 0 013-3h24a3 3 0 013 3v24z"/></svg><svg viewBox="0 0 36 36" id="25FC" xmlns="http://www.w3.org/2000/svg"><path fill="#31373D" d="M33 30a3 3 0 01-3 3H6a3 3 0 01-3-3V6a3 3 0 013-3h24a3 3 0 013 3v24z"/></svg><svg viewBox="0 0 36 36" id="25FD" xmlns="http://www.w3.org/2000/svg"><path fill="#E6E7E8" d="M29 27a2 2 0 01-2 2H9a2 2 0 01-2-2V9a2 2 0 012-2h18a2 2 0 012 2v18z"/></svg><svg viewBox="0 0 36 36" id="25FE" xmlns="http://www.w3.org/2000/svg"><path fill="#31373D" d="M29 27a2 2 0 01-2 2H9a2 2 0 01-2-2V9a2 2 0 012-2h18a2 2 0 012 2v18z"/></svg><svg viewBox="0 0 36 36" id="26AA" xmlns="http://www.w3.org/2000/svg"><circle cx="18" cy="18" r="18" fill="#E6E7E8"/></svg><svg viewBox="0 0 36 36" id="26AB" xmlns="http://www.w3.org/2000/svg"><circle cx="18" cy="18" r="18" fill="#31373D"/></svg><svg viewBox="0 0 36 36" id="2B1B" xmlns="http://www.w3.org/2000/svg"><path fill="#31373D" d="M36 32a4 4 0 01-4 4H4a4 4 0 01-4-4V4a4 4 0 014-4h28a4 4 0 014 4v28z"/></svg><svg viewBox="0 0 36 36" id="2B1C" xmlns="http://www.w3.org/2000/svg"><path fill="#E6E7E8" d="M36 32a4 4 0 01-4 4H4a4 4 0 01-4-4V4a4 4 0 014-4h28a4 4 0 014 4v28z"/></svg></svg>