<?xml version="1.0" encoding="utf-8"?><svg viewBox="0 0 36 36" xmlns="http://www.w3.org/2000/svg" xmlns:xlink="http://www.w3.org/1999/xlink"><style>:root>svg{display:none}:root>svg:target{display:block}</style><svg viewBox="0 0 36 36" id="1F446" xmlns="http://www.w3.org/2000/svg"><path fill="#FFDC5D" d="M30 20.145s.094-2.362-1.791-3.068c-1.667-.625-2.309.622-2.309.622s.059-1.913-1.941-2.622c-1.885-.667-2.75.959-2.75.959s-.307-1.872-2.292-2.417C17.246 13.159 16 14.785 16 14.785V2.576C16 1.618 15.458.001 13.458 0S11 1.66 11 2.576v20.5c0 1-1 1-1 0V20.41c0-3.792-2.037-6.142-2.75-6.792-.713-.65-1.667-.98-2.82-.734-1.956.416-1.529 1.92-.974 3.197 1.336 3.078 2.253 7.464 2.533 9.538.79 5.858 5.808 10.375 11.883 10.381 6.626.004 12.123-5.298 12.128-11.924v-3.931z"/></svg><svg viewBox="0 0 36 36" id="1F446-1F3FB" xmlns="http://www.w3.org/2000/svg"><path fill="#F7DECE" d="M30 20.145s.094-2.362-1.791-3.068c-1.667-.625-2.309.622-2.309.622s.059-1.913-1.941-2.622c-1.885-.667-2.75.959-2.75.959s-.307-1.872-2.292-2.417C17.246 13.159 16 14.785 16 14.785V2.576C16 1.618 15.458.001 13.458 0S11 1.66 11 2.576v20.5c0 1-1 1-1 0V20.41c0-3.792-2.037-6.142-2.75-6.792-.713-.65-1.667-.98-2.82-.734-1.956.416-1.529 1.92-.974 3.197 1.336 3.078 2.253 7.464 2.533 9.538.79 5.858 5.808 10.375 11.883 10.381 6.626.004 12.123-5.298 12.128-11.924v-3.931z"/></svg><svg viewBox="0 0 36 36" id="1F446-1F3FC" xmlns="http://www.w3.org/2000/svg"><path fill="#F3D2A2" d="M30 20.145s.094-2.362-1.791-3.068c-1.667-.625-2.309.622-2.309.622s.059-1.913-1.941-2.622c-1.885-.667-2.75.959-2.75.959s-.307-1.872-2.292-2.417C17.246 13.159 16 14.785 16 14.785V2.576C16 1.618 15.458.001 13.458 0S11 1.66 11 2.576v20.5c0 1-1 1-1 0V20.41c0-3.792-2.037-6.142-2.75-6.792-.713-.65-1.667-.98-2.82-.734-1.956.416-1.529 1.92-.974 3.197 1.336 3.078 2.253 7.464 2.533 9.538.79 5.858 5.808 10.375 11.883 10.381 6.626.004 12.123-5.298 12.128-11.924v-3.931z"/></svg><svg viewBox="0 0 36 36" id="1F446-1F3FD" xmlns="http://www.w3.org/2000/svg"><path fill="#D5AB88" d="M30 20.145s.094-2.362-1.791-3.068c-1.667-.625-2.309.622-2.309.622s.059-1.913-1.941-2.622c-1.885-.667-2.75.959-2.75.959s-.307-1.872-2.292-2.417C17.246 13.159 16 14.785 16 14.785V2.576C16 1.618 15.458.001 13.458 0S11 1.66 11 2.576v20.5c0 1-1 1-1 0V20.41c0-3.792-2.037-6.142-2.75-6.792-.713-.65-1.667-.98-2.82-.734-1.956.416-1.529 1.92-.974 3.197 1.336 3.078 2.253 7.464 2.533 9.538.79 5.858 5.808 10.375 11.883 10.381 6.626.004 12.123-5.298 12.128-11.924v-3.931z"/></svg><svg viewBox="0 0 36 36" id="1F446-1F3FE" xmlns="http://www.w3.org/2000/svg"><path fill="#AF7E57" d="M30 20.145s.094-2.362-1.791-3.068c-1.667-.625-2.309.622-2.309.622s.059-1.913-1.941-2.622c-1.885-.667-2.75.959-2.75.959s-.307-1.872-2.292-2.417C17.246 13.159 16 14.785 16 14.785V2.576C16 1.618 15.458.001 13.458 0S11 1.66 11 2.576v20.5c0 1-1 1-1 0V20.41c0-3.792-2.037-6.142-2.75-6.792-.713-.65-1.667-.98-2.82-.734-1.956.416-1.529 1.92-.974 3.197 1.336 3.078 2.253 7.464 2.533 9.538.79 5.858 5.808 10.375 11.883 10.381 6.626.004 12.123-5.298 12.128-11.924v-3.931z"/></svg><svg viewBox="0 0 36 36" id="1F446-1F3FF" xmlns="http://www.w3.org/2000/svg"><path fill="#7C533E" d="M30 20.145s.094-2.362-1.791-3.068c-1.667-.625-2.309.622-2.309.622s.059-1.913-1.941-2.622c-1.885-.667-2.75.959-2.75.959s-.307-1.872-2.292-2.417C17.246 13.159 16 14.785 16 14.785V2.576C16 1.618 15.458.001 13.458 0S11 1.66 11 2.576v20.5c0 1-1 1-1 0V20.41c0-3.792-2.037-6.142-2.75-6.792-.713-.65-1.667-.98-2.82-.734-1.956.416-1.529 1.92-.974 3.197 1.336 3.078 2.253 7.464 2.533 9.538.79 5.858 5.808 10.375 11.883 10.381 6.626.004 12.123-5.298 12.128-11.924v-3.931z"/></svg><svg viewBox="0 0 36 36" id="1F447" xmlns="http://www.w3.org/2000/svg"><path fill="#FFDC5D" d="M4 15.894s-.093 2.362 1.792 3.068c1.667.625 2.309-.622 2.309-.622s-.059 1.914 1.941 2.622c1.885.668 2.75-.958 2.75-.958s.307 1.871 2.292 2.417C16.755 22.88 18 21.254 18 21.254v12.208c0 .959.542 2.575 2.543 2.576 2 .002 2.457-1.659 2.457-2.576v-20.5c0-1 1-1 1 0v2.666c0 3.792 2.038 6.143 2.751 6.792.713.65 1.667.979 2.82.734 1.956-.415 1.529-1.92.975-3.197-1.337-3.078-2.254-7.464-2.533-9.538C27.222 4.562 22.204.044 16.129.038 9.503.034 4.005 5.336 4 11.962v3.932z"/></svg><svg viewBox="0 0 36 36" id="1F447-1F3FB" xmlns="http://www.w3.org/2000/svg"><path fill="#F7DECE" d="M4 15.894s-.093 2.362 1.792 3.068c1.667.625 2.309-.622 2.309-.622s-.059 1.914 1.941 2.622c1.885.668 2.75-.958 2.75-.958s.307 1.871 2.292 2.417C16.755 22.88 18 21.254 18 21.254v12.208c0 .959.542 2.575 2.543 2.576 2 .002 2.457-1.659 2.457-2.576v-20.5c0-1 1-1 1 0v2.666c0 3.792 2.038 6.143 2.751 6.792.713.65 1.667.979 2.82.734 1.956-.415 1.529-1.92.975-3.197-1.337-3.078-2.254-7.464-2.533-9.538C27.222 4.562 22.204.044 16.129.038 9.503.034 4.005 5.336 4 11.962v3.932z"/></svg><svg viewBox="0 0 36 36" id="1F447-1F3FC" xmlns="http://www.w3.org/2000/svg"><path fill="#F3D2A2" d="M4 15.894s-.093 2.362 1.792 3.068c1.667.625 2.309-.622 2.309-.622s-.059 1.914 1.941 2.622c1.885.668 2.75-.958 2.75-.958s.307 1.871 2.292 2.417C16.755 22.88 18 21.254 18 21.254v12.208c0 .959.542 2.575 2.543 2.576 2 .002 2.457-1.659 2.457-2.576v-20.5c0-1 1-1 1 0v2.666c0 3.792 2.038 6.143 2.751 6.792.713.65 1.667.979 2.82.734 1.956-.415 1.529-1.92.975-3.197-1.337-3.078-2.254-7.464-2.533-9.538C27.222 4.562 22.204.044 16.129.038 9.503.034 4.005 5.336 4 11.962v3.932z"/></svg><svg viewBox="0 0 36 36" id="1F447-1F3FD" xmlns="http://www.w3.org/2000/svg"><path fill="#D5AB88" d="M4.005 15.861s-.099 2.362 1.784 3.073c1.666.629 2.31-.617 2.31-.617s-.063 1.914 1.936 2.626c1.883.673 2.752-.951 2.752-.951s.302 1.872 2.286 2.423c1.67.463 2.919-1.16 2.919-1.16l-.029 12.208c-.002.959.537 2.576 2.537 2.582 2 .007 2.461-1.653 2.463-2.57l.04-16.5.009-4c.003-1 1.003-.997 1 .003l-.006 2.666c-.009 3.792 2.023 6.148 2.734 6.798.712.652 1.665.983 2.818.741 1.957-.41 1.534-1.916.982-3.194-1.329-3.082-2.235-7.47-2.51-9.545C27.254 4.584 22.247.055 16.172.035 9.546.015 4.035 5.303 4.015 11.929l-.01 3.932z"/></svg><svg viewBox="0 0 36 36" id="1F447-1F3FE" xmlns="http://www.w3.org/2000/svg"><path fill="#AF7E57" d="M4 15.894s-.093 2.362 1.792 3.068c1.667.625 2.309-.622 2.309-.622s-.059 1.914 1.941 2.622c1.885.668 2.75-.958 2.75-.958s.307 1.871 2.292 2.417C16.755 22.88 18 21.254 18 21.254v12.208c0 .959.542 2.575 2.543 2.576 2 .002 2.457-1.659 2.457-2.576v-20.5c0-1 1-1 1 0v2.666c0 3.792 2.038 6.143 2.751 6.792.713.65 1.667.979 2.82.734 1.956-.415 1.529-1.92.975-3.197-1.337-3.078-2.254-7.464-2.533-9.538C27.222 4.562 22.204.044 16.129.038 9.503.034 4.005 5.336 4 11.962v3.932z"/></svg><svg viewBox="0 0 36 36" id="1F447-1F3FF" xmlns="http://www.w3.org/2000/svg"><path fill="#7C533E" d="M4 15.894s-.093 2.362 1.792 3.068c1.667.625 2.309-.622 2.309-.622s-.059 1.914 1.941 2.622c1.885.668 2.75-.958 2.75-.958s.307 1.871 2.292 2.417C16.755 22.88 18 21.254 18 21.254v12.208c0 .959.542 2.575 2.543 2.576 2 .002 2.457-1.659 2.457-2.576v-20.5c0-1 1-1 1 0v2.666c0 3.792 2.038 6.143 2.751 6.792.713.65 1.667.979 2.82.734 1.956-.415 1.529-1.92.975-3.197-1.337-3.078-2.254-7.464-2.533-9.538C27.222 4.562 22.204.044 16.129.038 9.503.034 4.005 5.336 4 11.962v3.932z"/></svg><svg viewBox="0 0 36 36" id="1F448" xmlns="http://www.w3.org/2000/svg"><path fill="#FFDC5D" d="M20.145 31s-2.436-.167-3.068-1.792c-.646-1.659.622-2.309.622-2.309s-1.914.059-2.622-1.941c-.668-1.885.958-2.75.958-2.75s-1.871-.307-2.417-2.292C13.158 18.245 14.784 17 14.784 17H2.576C1.617 17 .001 16.458 0 14.457-.002 12.457 1.659 12 2.576 12h20.5c1 0 1-1 0-1H20.41c-3.792 0-6.143-2.038-6.792-2.751-.65-.713-.98-1.667-.734-2.82.415-1.956 1.92-1.529 3.197-.975 3.078 1.337 7.464 2.254 9.538 2.533 5.858.791 10.375 5.809 10.381 11.884.004 6.626-5.298 12.124-11.924 12.129h-3.931z"/></svg><svg viewBox="0 0 36 36" id="1F448-1F3FB" xmlns="http://www.w3.org/2000/svg"><path fill="#F7DECE" d="M20.145 31s-2.436-.167-3.068-1.792c-.646-1.659.622-2.309.622-2.309s-1.914.059-2.622-1.941c-.668-1.885.958-2.75.958-2.75s-1.871-.307-2.417-2.292C13.158 18.245 14.784 17 14.784 17H2.576C1.617 17 .001 16.458 0 14.457-.002 12.457 1.659 12 2.576 12h20.5c1 0 1-1 0-1H20.41c-3.792 0-6.143-2.038-6.792-2.751-.65-.713-.98-1.667-.734-2.82.415-1.956 1.92-1.529 3.197-.975 3.078 1.337 7.464 2.254 9.538 2.533 5.858.791 10.375 5.809 10.381 11.884.004 6.626-5.298 12.124-11.924 12.129h-3.931z"/></svg><svg viewBox="0 0 36 36" id="1F448-1F3FC" xmlns="http://www.w3.org/2000/svg"><path fill="#F3D2A2" d="M20.145 31s-2.436-.167-3.068-1.792c-.646-1.659.622-2.309.622-2.309s-1.914.059-2.622-1.941c-.668-1.885.958-2.75.958-2.75s-1.871-.307-2.417-2.292C13.158 18.245 14.784 17 14.784 17H2.576C1.617 17 .001 16.458 0 14.457-.002 12.457 1.659 12 2.576 12h20.5c1 0 1-1 0-1H20.41c-3.792 0-6.143-2.038-6.792-2.751-.65-.713-.98-1.667-.734-2.82.415-1.956 1.92-1.529 3.197-.975 3.078 1.337 7.464 2.254 9.538 2.533 5.858.791 10.375 5.809 10.381 11.884.004 6.626-5.298 12.124-11.924 12.129h-3.931z"/></svg><svg viewBox="0 0 36 36" id="1F448-1F3FD" xmlns="http://www.w3.org/2000/svg"><path fill="#D5AB88" d="M20.145 31s-2.436-.167-3.068-1.792c-.646-1.659.622-2.309.622-2.309s-1.914.059-2.622-1.941c-.668-1.885.958-2.75.958-2.75s-1.871-.307-2.417-2.292C13.158 18.245 14.784 17 14.784 17H2.576C1.617 17 .001 16.458 0 14.457-.002 12.457 1.659 12 2.576 12h20.5c1 0 1-1 0-1H20.41c-3.792 0-6.143-2.038-6.792-2.751-.65-.713-.98-1.667-.734-2.82.415-1.956 1.92-1.529 3.197-.975 3.078 1.337 7.464 2.254 9.538 2.533 5.858.791 10.375 5.809 10.381 11.884.004 6.626-5.298 12.124-11.924 12.129h-3.931z"/></svg><svg viewBox="0 0 36 36" id="1F448-1F3FE" xmlns="http://www.w3.org/2000/svg"><path fill="#AF7E57" d="M20.145 31s-2.436-.167-3.068-1.792c-.646-1.659.622-2.309.622-2.309s-1.914.059-2.622-1.941c-.668-1.885.958-2.75.958-2.75s-1.871-.307-2.417-2.292C13.158 18.245 14.784 17 14.784 17H2.576C1.617 17 .001 16.458 0 14.457-.002 12.457 1.659 12 2.576 12h20.5c1 0 1-1 0-1H20.41c-3.792 0-6.143-2.038-6.792-2.751-.65-.713-.98-1.667-.734-2.82.415-1.956 1.92-1.529 3.197-.975 3.078 1.337 7.464 2.254 9.538 2.533 5.858.791 10.375 5.809 10.381 11.884.004 6.626-5.298 12.124-11.924 12.129h-3.931z"/></svg><svg viewBox="0 0 36 36" id="1F448-1F3FF" xmlns="http://www.w3.org/2000/svg"><path fill="#7C533E" d="M20.145 31s-2.436-.167-3.068-1.792c-.646-1.659.622-2.309.622-2.309s-1.914.059-2.622-1.941c-.668-1.885.958-2.75.958-2.75s-1.871-.307-2.417-2.292C13.158 18.245 14.784 17 14.784 17H2.576C1.617 17 .001 16.458 0 14.457-.002 12.457 1.659 12 2.576 12h20.5c1 0 1-1 0-1H20.41c-3.792 0-6.143-2.038-6.792-2.751-.65-.713-.98-1.667-.734-2.82.415-1.956 1.92-1.529 3.197-.975 3.078 1.337 7.464 2.254 9.538 2.533 5.858.791 10.375 5.809 10.381 11.884.004 6.626-5.298 12.124-11.924 12.129h-3.931z"/></svg><svg viewBox="0 0 36 36" id="1F449" xmlns="http://www.w3.org/2000/svg"><path fill="#FFDC5D" d="M15.856 31s2.394-.208 3.068-1.792c.697-1.639-.622-2.309-.622-2.309s1.914.059 2.622-1.941c.668-1.885-.958-2.75-.958-2.75s1.871-.307 2.417-2.292C22.842 18.245 21.216 17 21.216 17h12.208c.959 0 2.575-.542 2.576-2.543.002-2-1.659-2.457-2.576-2.457h-20.5c-1 0-1-1 0-1h2.666c3.792 0 6.143-2.038 6.792-2.751.65-.713.979-1.667.734-2.82-.415-1.956-1.92-1.529-3.197-.975-3.078 1.337-7.464 2.254-9.538 2.533C4.523 7.778.006 12.796 0 18.871-.004 25.497 5.298 30.995 11.924 31h3.932z"/></svg><svg viewBox="0 0 36 36" id="1F449-1F3FB" xmlns="http://www.w3.org/2000/svg"><path fill="#F7DECE" d="M15.856 31s2.394-.208 3.068-1.792c.697-1.639-.622-2.309-.622-2.309s1.914.059 2.622-1.941c.668-1.885-.958-2.75-.958-2.75s1.871-.307 2.417-2.292C22.842 18.245 21.216 17 21.216 17h12.208c.959 0 2.575-.542 2.576-2.543.002-2-1.659-2.457-2.576-2.457h-20.5c-1 0-1-1 0-1h2.666c3.792 0 6.143-2.038 6.792-2.751.65-.713.979-1.667.734-2.82-.415-1.956-1.92-1.529-3.197-.975-3.078 1.337-7.464 2.254-9.538 2.533C4.523 7.778.006 12.796 0 18.871-.004 25.497 5.298 30.995 11.924 31h3.932z"/></svg><svg viewBox="0 0 36 36" id="1F449-1F3FC" xmlns="http://www.w3.org/2000/svg"><path fill="#F3D2A2" d="M15.856 31s2.394-.208 3.068-1.792c.697-1.639-.622-2.309-.622-2.309s1.914.059 2.622-1.941c.668-1.885-.958-2.75-.958-2.75s1.871-.307 2.417-2.292C22.842 18.245 21.216 17 21.216 17h12.208c.959 0 2.575-.542 2.576-2.543.002-2-1.659-2.457-2.576-2.457h-20.5c-1 0-1-1 0-1h2.666c3.792 0 6.143-2.038 6.792-2.751.65-.713.979-1.667.734-2.82-.415-1.956-1.92-1.529-3.197-.975-3.078 1.337-7.464 2.254-9.538 2.533C4.523 7.778.006 12.796 0 18.871-.004 25.497 5.298 30.995 11.924 31h3.932z"/></svg><svg viewBox="0 0 36 36" id="1F449-1F3FD" xmlns="http://www.w3.org/2000/svg"><path fill="#D5AB88" d="M15.856 31s2.394-.208 3.068-1.792c.697-1.639-.622-2.309-.622-2.309s1.914.059 2.622-1.941c.668-1.885-.958-2.75-.958-2.75s1.871-.307 2.417-2.292C22.842 18.245 21.216 17 21.216 17h12.208c.959 0 2.575-.542 2.576-2.543.002-2-1.659-2.457-2.576-2.457h-20.5c-1 0-1-1 0-1h2.666c3.792 0 6.143-2.038 6.792-2.751.65-.713.979-1.667.734-2.82-.415-1.956-1.92-1.529-3.197-.975-3.078 1.337-7.464 2.254-9.538 2.533C4.523 7.778.006 12.796 0 18.871-.004 25.497 5.298 30.995 11.924 31h3.932z"/></svg><svg viewBox="0 0 36 36" id="1F449-1F3FE" xmlns="http://www.w3.org/2000/svg"><path fill="#AF7E57" d="M15.856 31s2.394-.208 3.068-1.792c.697-1.639-.622-2.309-.622-2.309s1.914.059 2.622-1.941c.668-1.885-.958-2.75-.958-2.75s1.871-.307 2.417-2.292C22.842 18.245 21.216 17 21.216 17h12.208c.959 0 2.575-.542 2.576-2.543.002-2-1.659-2.457-2.576-2.457h-20.5c-1 0-1-1 0-1h2.666c3.792 0 6.143-2.038 6.792-2.751.65-.713.979-1.667.734-2.82-.415-1.956-1.92-1.529-3.197-.975-3.078 1.337-7.464 2.254-9.538 2.533C4.523 7.778.006 12.796 0 18.871-.004 25.497 5.298 30.995 11.924 31h3.932z"/></svg><svg viewBox="0 0 36 36" id="1F449-1F3FF" xmlns="http://www.w3.org/2000/svg"><path fill="#7C533E" d="M15.856 31s2.394-.208 3.068-1.792c.697-1.639-.622-2.309-.622-2.309s1.914.059 2.622-1.941c.668-1.885-.958-2.75-.958-2.75s1.871-.307 2.417-2.292C22.842 18.245 21.216 17 21.216 17h12.208c.959 0 2.575-.542 2.576-2.543.002-2-1.659-2.457-2.576-2.457h-20.5c-1 0-1-1 0-1h2.666c3.792 0 6.143-2.038 6.792-2.751.65-.713.979-1.667.734-2.82-.415-1.956-1.92-1.529-3.197-.975-3.078 1.337-7.464 2.254-9.538 2.533C4.523 7.778.006 12.796 0 18.871-.004 25.497 5.298 30.995 11.924 31h3.932z"/></svg><svg viewBox="0 0 36 36" id="1F595" xmlns="http://www.w3.org/2000/svg"><path fill="#FFDC5D" d="M30.011 20.183s.093-2.362-1.792-3.068c-1.667-.625-2.309.622-2.309.622s.059-1.914-1.941-2.622c-1.885-.668-2.984.773-2.984.773s-.072-1.687-2.058-2.232c-1.671-.459-2.916 1.167-2.916 1.167v-.822c0-.959-.542-2.575-2.543-2.576-2-.002-2.457 1.659-2.457 2.576v1.614c0 1.323-.948.198-1.636.823-1.57 1.427-2.269 6.431-1.188 10.5 1.312 4.938 4.062 9.101 9.694 9.101 8.132 0 12.124-5.298 12.129-11.924l.001-3.932z"/><path fill="#FFDC5D" d="M21 18.5a2.5 2.5 0 1 1-5 0v-16a2.5 2.5 0 1 1 5 0v16zM12.25 16l-2.312.003c-1.625 0-2.141.465-2.812 3.122-.438 1.729-.984 2.547-.984 4.391 0 2.906 4.594 12.348 11.359 12.391L12.25 16z"/><path fill="#EF9645" d="M10 25.521c0 .251.204.479.456.479h.088a.456.456 0 0 0 .456-.456V16h-.969L10 25.521z"/></svg><svg viewBox="0 0 36 36" id="1F595-1F3FB" xmlns="http://www.w3.org/2000/svg"><path fill="#F7DECE" d="M30.011 20.183s.093-2.362-1.792-3.068c-1.667-.625-2.309.622-2.309.622s.059-1.914-1.941-2.622c-1.885-.668-2.984.773-2.984.773s-.072-1.687-2.058-2.232c-1.671-.459-2.916 1.167-2.916 1.167v-.822c0-.959-.542-2.575-2.543-2.576-2-.002-2.457 1.659-2.457 2.576v1.614c0 1.323-.948.198-1.636.823-1.57 1.427-2.269 6.431-1.188 10.5 1.312 4.938 4.062 9.101 9.694 9.101 8.132 0 12.124-5.298 12.129-11.924l.001-3.932z"/><path fill="#F7DECE" d="M21 18.5a2.5 2.5 0 1 1-5 0v-16a2.5 2.5 0 1 1 5 0v16zM12.25 16l-2.312.003c-1.625 0-2.141.465-2.812 3.122-.438 1.729-.984 2.547-.984 4.391 0 2.906 4.594 12.348 11.359 12.391L12.25 16z"/><path fill="#D89882" d="M10 25.521c0 .251.204.479.456.479h.088a.456.456 0 0 0 .456-.456V16h-.969L10 25.521z"/></svg><svg viewBox="0 0 36 36" id="1F595-1F3FC" xmlns="http://www.w3.org/2000/svg"><path fill="#F3D2A2" d="M30.011 20.183s.093-2.362-1.792-3.068c-1.667-.625-2.309.622-2.309.622s.059-1.914-1.941-2.622c-1.885-.668-2.984.773-2.984.773s-.072-1.687-2.058-2.232c-1.671-.459-2.916 1.167-2.916 1.167v-.822c0-.959-.542-2.575-2.543-2.576-2-.002-2.457 1.659-2.457 2.576v1.614c0 1.323-.948.198-1.636.823-1.57 1.427-2.269 6.431-1.188 10.5 1.312 4.938 4.062 9.101 9.694 9.101 8.132 0 12.124-5.298 12.129-11.924l.001-3.932z"/><path fill="#F3D2A2" d="M21 18.5a2.5 2.5 0 1 1-5 0v-16a2.5 2.5 0 1 1 5 0v16zM12.25 16l-2.312.003c-1.625 0-2.141.465-2.812 3.122-.438 1.729-.984 2.547-.984 4.391 0 2.906 4.594 12.348 11.359 12.391L12.25 16z"/><path fill="#C68F6A" d="M10 25.521c0 .251.204.479.456.479h.088a.456.456 0 0 0 .456-.456V16h-.969L10 25.521z"/></svg><svg viewBox="0 0 36 36" id="1F595-1F3FD" xmlns="http://www.w3.org/2000/svg"><path fill="#D5AB88" d="M30.011 20.183s.093-2.362-1.792-3.068c-1.667-.625-2.309.622-2.309.622s.059-1.914-1.941-2.622c-1.885-.668-2.984.773-2.984.773s-.072-1.687-2.058-2.232c-1.671-.459-2.916 1.167-2.916 1.167v-.822c0-.959-.542-2.575-2.543-2.576-2-.002-2.457 1.659-2.457 2.576v1.614c0 1.323-.948.198-1.636.823-1.57 1.427-2.269 6.431-1.188 10.5 1.312 4.938 4.062 9.101 9.694 9.101 8.132 0 12.124-5.298 12.129-11.924l.001-3.932z"/><path fill="#D5AB88" d="M21 18.5a2.5 2.5 0 1 1-5 0v-16a2.5 2.5 0 1 1 5 0v16zM12.25 16l-2.312.003c-1.625 0-2.141.465-2.812 3.122-.438 1.729-.984 2.547-.984 4.391 0 2.906 4.594 12.348 11.359 12.391L12.25 16z"/><path fill="#AA8052" d="M10 25.521c0 .251.204.479.456.479h.088a.456.456 0 0 0 .456-.456V16h-.969L10 25.521z"/></svg><svg viewBox="0 0 36 36" id="1F595-1F3FE" xmlns="http://www.w3.org/2000/svg"><path fill="#AF7E57" d="M30.011 20.183s.093-2.362-1.792-3.068c-1.667-.625-2.309.622-2.309.622s.059-1.914-1.941-2.622c-1.885-.668-2.984.773-2.984.773s-.072-1.687-2.058-2.232c-1.671-.459-2.916 1.167-2.916 1.167v-.822c0-.959-.542-2.575-2.543-2.576-2-.002-2.457 1.659-2.457 2.576v1.614c0 1.323-.948.198-1.636.823-1.57 1.427-2.269 6.431-1.188 10.5 1.312 4.938 4.062 9.101 9.694 9.101 8.132 0 12.124-5.298 12.129-11.924l.001-3.932z"/><path fill="#AF7E57" d="M21 18.5a2.5 2.5 0 1 1-5 0v-16a2.5 2.5 0 1 1 5 0v16zM12.25 16l-2.312.003c-1.625 0-2.141.465-2.812 3.122-.438 1.729-.984 2.547-.984 4.391 0 2.906 4.594 12.348 11.359 12.391L12.25 16z"/><path fill="#845636" d="M10 25.521c0 .251.204.479.456.479h.088a.456.456 0 0 0 .456-.456V16h-.969L10 25.521z"/></svg><svg viewBox="0 0 36 36" id="1F595-1F3FF" xmlns="http://www.w3.org/2000/svg"><path fill="#7C533E" d="M30.011 20.183s.093-2.362-1.792-3.068c-1.667-.625-2.309.622-2.309.622s.059-1.914-1.941-2.622c-1.885-.668-2.984.773-2.984.773s-.072-1.687-2.058-2.232c-1.671-.459-2.916 1.167-2.916 1.167v-.822c0-.959-.542-2.575-2.543-2.576-2-.002-2.457 1.659-2.457 2.576v1.614c0 1.323-.948.198-1.636.823-1.57 1.427-2.269 6.431-1.188 10.5 1.312 4.938 4.062 9.101 9.694 9.101 8.132 0 12.124-5.298 12.129-11.924l.001-3.932z"/><path fill="#7C533E" d="M21 18.5a2.5 2.5 0 1 1-5 0v-16a2.5 2.5 0 1 1 5 0v16zM12.25 16l-2.312.003c-1.625 0-2.141.465-2.812 3.122-.438 1.729-.984 2.547-.984 4.391 0 2.906 4.594 12.348 11.359 12.391L12.25 16z"/><path fill="#543226" d="M10 25.521c0 .251.204.479.456.479h.088a.456.456 0 0 0 .456-.456V16h-.969L10 25.521z"/></svg><svg viewBox="0 0 36 36" id="261D" xmlns="http://www.w3.org/2000/svg"><path fill="#EF9645" d="M26.992 19.016c-.255-.255-.799-.611-1.44-.962l-1.911-2-2.113 2h-.58l-2.509-3.634a2.504 2.504 0 0 0-2.487 2.515l-3.556-2.112a2.335 2.335 0 0 0-1.389 2.133v.96l-4 4.168.016 2.185 9.984 10.729S27.525 19.71 27.55 19.74c-.129-.223-.513-.702-.558-.724z"/><g fill="#FFDC5D"><path d="M25.552 5.81a2.02 2.02 0 0 0-2.013-2.013 2.02 2.02 0 0 0-2.013 2.013v12.245h4.025V5.81zm-4.605 12.244V16.01a1.998 1.998 0 0 0-3.995.029l.012 2.016h3.983zM8.916 16h.168c1.059 0 1.916.858 1.916 1.917v4.166A1.916 1.916 0 0 1 9.084 24h-.168A1.916 1.916 0 0 1 7 22.083v-4.166C7 16.858 7.857 16 8.916 16zm6.918 2.96-.056.062A2.95 2.95 0 0 0 15 21c0 .063.013.123.018.185.044.678.308 1.292.728 1.774a2.041 2.041 0 0 1-.259.353A1.97 1.97 0 0 1 14 24a2 2 0 0 1-2-2v-6c0-.441.147-.845.389-1.176A1.993 1.993 0 0 1 14 14a2 2 0 0 1 2 2v2.778c-.061.055-.109.123-.166.182z"/><path d="M9.062 25a2.93 2.93 0 0 0 2.45-1.322c.123.183.271.346.431.497 1.185 1.115 3.034 1.044 4.167-.086.152-.152.303-.305.419-.488l-.003-.003C16.727 23.713 17 24 18 24h2.537a6.35 6.35 0 0 0-1.024 1c-1.228 1.467-2.013 3.606-2.013 6a.5.5 0 0 0 1 0c0-2.548.956-4.775 2.377-6 .732-.631 1.584-1 2.498-1 .713.079.847-1 .125-1H18a2 2 0 0 1 0-4h8c.858 0 1.66.596 1.913 1.415L29 24c.103.335.479 1.871.411 2.191C29.411 31 24.715 36 19 36c-6.537 0-11.844-5.231-11.986-11.734l.014.01a2.909 2.909 0 0 0 1.91.724h.124z"/></g></svg><svg viewBox="0 0 36 36" id="261D-1F3FB" xmlns="http://www.w3.org/2000/svg"><path fill="#E0AA94" d="M26.992 19.016c-.255-.255-.799-.611-1.44-.962l-1.911-2-2.113 2h-.58l-2.509-3.634a2.504 2.504 0 0 0-2.487 2.515l-3.556-2.112a2.335 2.335 0 0 0-1.389 2.133v.96l-4 4.168.016 2.185 9.984 10.729S27.525 19.71 27.55 19.74c-.129-.223-.513-.702-.558-.724z"/><g fill="#F7DECE"><path d="M25.552 5.81a2.02 2.02 0 0 0-2.013-2.013 2.02 2.02 0 0 0-2.013 2.013v12.245h4.025V5.81zm-4.605 12.244V16.01a1.998 1.998 0 0 0-3.995.029l.012 2.016h3.983zM8.916 16h.168c1.059 0 1.916.858 1.916 1.917v4.166A1.916 1.916 0 0 1 9.084 24h-.168A1.916 1.916 0 0 1 7 22.083v-4.166C7 16.858 7.857 16 8.916 16zm6.918 2.96-.056.062A2.95 2.95 0 0 0 15 21c0 .063.013.123.018.185.044.678.308 1.292.728 1.774a2.041 2.041 0 0 1-.259.353A1.97 1.97 0 0 1 14 24a2 2 0 0 1-2-2v-6c0-.441.147-.845.389-1.176A1.993 1.993 0 0 1 14 14a2 2 0 0 1 2 2v2.778c-.061.055-.109.123-.166.182z"/><path d="M9.062 25a2.93 2.93 0 0 0 2.45-1.322c.123.183.271.346.431.497 1.185 1.115 3.034 1.044 4.167-.086.152-.152.303-.305.419-.488l-.003-.003C16.727 23.713 17 24 18 24h2.537a6.35 6.35 0 0 0-1.024 1c-1.228 1.467-2.013 3.606-2.013 6a.5.5 0 0 0 1 0c0-2.548.956-4.775 2.377-6 .732-.631 1.584-1 2.498-1 .713.079.847-1 .125-1H18a2 2 0 0 1 0-4h8c.858 0 1.66.596 1.913 1.415L29 24c.103.335.479 1.871.411 2.191C29.411 31 24.715 36 19 36c-6.537 0-11.844-5.231-11.986-11.734l.014.01a2.909 2.909 0 0 0 1.91.724h.124z"/></g></svg><svg viewBox="0 0 36 36" id="261D-1F3FC" xmlns="http://www.w3.org/2000/svg"><path fill="#D2A077" d="M26.992 19.016c-.255-.255-.799-.611-1.44-.962l-1.911-2-2.113 2h-.58l-2.509-3.634a2.504 2.504 0 0 0-2.487 2.515l-3.556-2.112a2.335 2.335 0 0 0-1.389 2.133v.96l-4 4.168.016 2.185 9.984 10.729S27.525 19.71 27.55 19.74c-.129-.223-.513-.702-.558-.724z"/><g fill="#F3D2A2"><path d="M25.552 5.81a2.02 2.02 0 0 0-2.013-2.013 2.02 2.02 0 0 0-2.013 2.013v12.245h4.025V5.81zm-4.605 12.244V16.01a1.998 1.998 0 0 0-3.995.029l.012 2.016h3.983zM8.916 16h.168c1.059 0 1.916.858 1.916 1.917v4.166A1.916 1.916 0 0 1 9.084 24h-.168A1.916 1.916 0 0 1 7 22.083v-4.166C7 16.858 7.857 16 8.916 16zm6.918 2.96-.056.062A2.95 2.95 0 0 0 15 21c0 .063.013.123.018.185.044.678.308 1.292.728 1.774a2.041 2.041 0 0 1-.259.353A1.97 1.97 0 0 1 14 24a2 2 0 0 1-2-2v-6c0-.441.147-.845.389-1.176A1.993 1.993 0 0 1 14 14a2 2 0 0 1 2 2v2.778c-.061.055-.109.123-.166.182z"/><path d="M9.062 25a2.93 2.93 0 0 0 2.45-1.322c.123.183.271.346.431.497 1.185 1.115 3.034 1.044 4.167-.086.152-.152.303-.305.419-.488l-.003-.003C16.727 23.713 17 24 18 24h2.537a6.35 6.35 0 0 0-1.024 1c-1.228 1.467-2.013 3.606-2.013 6a.5.5 0 0 0 1 0c0-2.548.956-4.775 2.377-6 .732-.631 1.584-1 2.498-1 .713.079.847-1 .125-1H18a2 2 0 0 1 0-4h8c.858 0 1.66.596 1.913 1.415L29 24c.103.335.479 1.871.411 2.191C29.411 31 24.715 36 19 36c-6.537 0-11.844-5.231-11.986-11.734l.014.01a2.909 2.909 0 0 0 1.91.724h.124z"/></g></svg><svg viewBox="0 0 36 36" id="261D-1F3FD" xmlns="http://www.w3.org/2000/svg"><path fill="#B78B60" d="M26.992 19.016c-.255-.255-.799-.611-1.44-.962l-1.911-2-2.113 2h-.58l-2.509-3.634a2.504 2.504 0 0 0-2.487 2.515l-3.556-2.112a2.335 2.335 0 0 0-1.389 2.133v.96l-4 4.168.016 2.185 9.984 10.729S27.525 19.71 27.55 19.74c-.129-.223-.513-.702-.558-.724z"/><g fill="#D4AB88"><path d="M25.552 5.81a2.02 2.02 0 0 0-2.013-2.013 2.02 2.02 0 0 0-2.013 2.013v12.245h4.025V5.81zm-4.605 12.244V16.01a1.998 1.998 0 0 0-3.995.029l.012 2.016h3.983zM8.916 16h.168c1.059 0 1.916.858 1.916 1.917v4.166A1.916 1.916 0 0 1 9.084 24h-.168A1.916 1.916 0 0 1 7 22.083v-4.166C7 16.858 7.857 16 8.916 16zm6.918 2.96-.056.062A2.95 2.95 0 0 0 15 21c0 .063.013.123.018.185.044.678.308 1.292.728 1.774a2.041 2.041 0 0 1-.259.353A1.97 1.97 0 0 1 14 24a2 2 0 0 1-2-2v-6c0-.441.147-.845.389-1.176A1.993 1.993 0 0 1 14 14a2 2 0 0 1 2 2v2.778c-.061.055-.109.123-.166.182z"/><path d="M9.062 25a2.93 2.93 0 0 0 2.45-1.322c.123.183.271.346.431.497 1.185 1.115 3.034 1.044 4.167-.086.152-.152.303-.305.419-.488l-.003-.003C16.727 23.713 17 24 18 24h2.537a6.35 6.35 0 0 0-1.024 1c-1.228 1.467-2.013 3.606-2.013 6a.5.5 0 0 0 1 0c0-2.548.956-4.775 2.377-6 .732-.631 1.584-1 2.498-1 .713.079.847-1 .125-1H18a2 2 0 0 1 0-4h8c.858 0 1.66.596 1.913 1.415L29 24c.103.335.479 1.871.411 2.191C29.411 31 24.715 36 19 36c-6.537 0-11.844-5.231-11.986-11.734l.014.01a2.909 2.909 0 0 0 1.91.724h.124z"/></g></svg><svg viewBox="0 0 36 36" id="261D-1F3FE" xmlns="http://www.w3.org/2000/svg"><path fill="#90603E" d="M26.992 19.016c-.255-.255-.799-.611-1.44-.962l-1.911-2-2.113 2h-.58l-2.509-3.634a2.504 2.504 0 0 0-2.487 2.515l-3.556-2.112a2.335 2.335 0 0 0-1.389 2.133v.96l-4 4.168.016 2.185 9.984 10.729S27.525 19.71 27.55 19.74c-.129-.223-.513-.702-.558-.724z"/><g fill="#AF7E57"><path d="M25.552 5.81a2.02 2.02 0 0 0-2.013-2.013 2.02 2.02 0 0 0-2.013 2.013v12.245h4.025V5.81zm-4.605 12.244V16.01a1.998 1.998 0 0 0-3.995.029l.012 2.016h3.983zM8.916 16h.168c1.059 0 1.916.858 1.916 1.917v4.166A1.916 1.916 0 0 1 9.084 24h-.168A1.916 1.916 0 0 1 7 22.083v-4.166C7 16.858 7.857 16 8.916 16zm6.918 2.96-.056.062A2.95 2.95 0 0 0 15 21c0 .063.013.123.018.185.044.678.308 1.292.728 1.774a2.041 2.041 0 0 1-.259.353A1.97 1.97 0 0 1 14 24a2 2 0 0 1-2-2v-6c0-.441.147-.845.389-1.176A1.993 1.993 0 0 1 14 14a2 2 0 0 1 2 2v2.778c-.061.055-.109.123-.166.182z"/><path d="M9.062 25a2.93 2.93 0 0 0 2.45-1.322c.123.183.271.346.431.497 1.185 1.115 3.034 1.044 4.167-.086.152-.152.303-.305.419-.488l-.003-.003C16.727 23.713 17 24 18 24h2.537a6.35 6.35 0 0 0-1.024 1c-1.228 1.467-2.013 3.606-2.013 6a.5.5 0 0 0 1 0c0-2.548.956-4.775 2.377-6 .732-.631 1.584-1 2.498-1 .713.079.847-1 .125-1H18a2 2 0 0 1 0-4h8c.858 0 1.66.596 1.913 1.415L29 24c.103.335.479 1.871.411 2.191C29.411 31 24.715 36 19 36c-6.537 0-11.844-5.231-11.986-11.734l.014.01a2.909 2.909 0 0 0 1.91.724h.124z"/></g></svg><svg viewBox="0 0 36 36" id="261D-1F3FF" xmlns="http://www.w3.org/2000/svg"><path fill="#583529" d="M26.992 19.016c-.255-.255-.799-.611-1.44-.962l-1.911-2-2.113 2h-.58l-2.509-3.634a2.504 2.504 0 0 0-2.487 2.515l-3.556-2.112a2.335 2.335 0 0 0-1.389 2.133v.96l-4 4.168.016 2.185 9.984 10.729S27.525 19.71 27.55 19.74c-.129-.223-.513-.702-.558-.724z"/><g fill="#7C533E"><path d="M25.552 5.81a2.02 2.02 0 0 0-2.013-2.013 2.02 2.02 0 0 0-2.013 2.013v12.245h4.025V5.81zm-4.605 12.244V16.01a1.998 1.998 0 0 0-3.995.029l.012 2.016h3.983zM8.916 16h.168c1.059 0 1.916.858 1.916 1.917v4.166A1.916 1.916 0 0 1 9.084 24h-.168A1.916 1.916 0 0 1 7 22.083v-4.166C7 16.858 7.857 16 8.916 16zm6.918 2.96-.056.062A2.95 2.95 0 0 0 15 21c0 .063.013.123.018.185.044.678.308 1.292.728 1.774a2.041 2.041 0 0 1-.259.353A1.97 1.97 0 0 1 14 24a2 2 0 0 1-2-2v-6c0-.441.147-.845.389-1.176A1.993 1.993 0 0 1 14 14a2 2 0 0 1 2 2v2.778c-.061.055-.109.123-.166.182z"/><path d="M9.062 25a2.93 2.93 0 0 0 2.45-1.322c.123.183.271.346.431.497 1.185 1.115 3.034 1.044 4.167-.086.152-.152.303-.305.419-.488l-.003-.003C16.727 23.713 17 24 18 24h2.537a6.35 6.35 0 0 0-1.024 1c-1.228 1.467-2.013 3.606-2.013 6a.5.5 0 0 0 1 0c0-2.548.956-4.775 2.377-6 .732-.631 1.584-1 2.498-1 .713.079.847-1 .125-1H18a2 2 0 0 1 0-4h8c.858 0 1.66.596 1.913 1.415L29 24c.103.335.479 1.871.411 2.191C29.411 31 24.715 36 19 36c-6.537 0-11.844-5.231-11.986-11.734l.014.01a2.909 2.909 0 0 0 1.91.724h.124z"/></g></svg></svg>