<?xml version="1.0" encoding="utf-8"?><svg viewBox="0 0 36 36" xmlns="http://www.w3.org/2000/svg" xmlns:xlink="http://www.w3.org/1999/xlink"><style>:root>svg{display:none}:root>svg:target{display:block}</style><svg viewBox="0 0 36 36" id="1F6CE" xmlns="http://www.w3.org/2000/svg"><path fill="#F4900C" d="M15 26h6v4h-6z"/><path fill="#FFAC33" d="M30 18c0 7 3 4 3 7 0 0 0 2-2 2H5c-2 0-2-2-2-2 0-3 3 0 3-7 0-5.523 6.477-8 12-8s12 2.477 12 8z"/><circle cx="18" cy="10" r="3" fill="#FFAC33"/><path fill="#C1694F" d="M35 33a2 2 0 0 1-2 2H3a2 2 0 0 1 0-4h30a2 2 0 0 1 2 2z"/><path fill="#C1694F" d="M33 31a2 2 0 0 1-2 2H5a2 2 0 0 1 0-4h26a2 2 0 0 1 2 2z"/></svg><svg viewBox="0 0 36 36" id="1F9F3" xmlns="http://www.w3.org/2000/svg"><path fill="#292F33" d="M22 2h-8c-.55 0-1-.45-1-1s.45-1 1-1h8c.55 0 1 .45 1 1s-.45 1-1 1z"/><path fill="#292F33" d="M13 1h2v2h-2zm8 0h2v2h-2z"/><path fill="#CCD6DD" d="M13 3h2v6h-2zm8 0h2v6h-2z"/><path fill="#292F33" d="M7 25c-.55 0-1-.45-1-1v-6c0-.55.45-1 1-1s1 .45 1 1v6c0 .55-.45 1-1 1zm3 9.2H9c-.55 0-1-.45-1-1v-1c0-.55.45-1 1-1h1c.55 0 1 .45 1 1v1c0 .55-.45 1-1 1zm17 0h-1c-.55 0-1-.45-1-1v-1c0-.55.45-1 1-1h1c.55 0 1 .45 1 1v1c0 .55-.45 1-1 1z"/><path fill="#4289C1" d="M27 33H9c-1.1 0-2-.9-2-2V10c0-1.1.9-2 2-2h18c1.1 0 2 .9 2 2v21c0 1.1-.9 2-2 2z"/><path fill="#5DADEC" d="M26 18H10c-.55 0-1-.45-1-1v-6c0-.55.45-1 1-1h16c.55 0 1 .45 1 1v6c0 .55-.45 1-1 1zm0 13H10c-.55 0-1-.45-1-1V20c0-.55.45-1 1-1h16c.55 0 1 .45 1 1v10c0 .55-.45 1-1 1z"/><circle cx="9" cy="35" r="1" fill="#292F33"/><circle cx="27" cy="35" r="1" fill="#292F33"/><path fill="#2A6797" d="M25.5 12h-15c-.275 0-.5-.225-.5-.5s.225-.5.5-.5h15c.275 0 .5.225.5.5s-.225.5-.5.5zm0 9h-15c-.275 0-.5-.225-.5-.5s.225-.5.5-.5h15c.275 0 .5.225.5.5s-.225.5-.5.5z"/><path fill="#F5F8FA" d="M11.5 12h-1c-.275 0-.5-.225-.5-.5s.225-.5.5-.5h1c.275 0 .5.225.5.5s-.225.5-.5.5zm0 9h-1c-.275 0-.5-.225-.5-.5s.225-.5.5-.5h1c.275 0 .5.225.5.5s-.225.5-.5.5z"/></svg></svg>