<?xml version="1.0" encoding="utf-8"?><svg viewBox="0 0 36 36" xmlns="http://www.w3.org/2000/svg" xmlns:xlink="http://www.w3.org/1999/xlink"><style>:root>svg{display:none}:root>svg:target{display:block}</style><svg viewBox="0 0 36 36" id="1F39E" xmlns="http://www.w3.org/2000/svg"><path fill="#BBDDF5" d="M29 11h6v14h-6zM1 11h6v14H1zm8 0h18v14H9z"/><path fill="#231F20" d="M35 11V6H1v5h6v14H1v5h34v-5h-6V11h6zm-8 14H9V11h18v14z"/><path fill="#F5F8FA" d="M31 7h2v3h-2zm-4 0h2v3h-2zm-4 0h2v3h-2zm-4 0h2v3h-2zm-4 0h2v3h-2zm-4 0h2v3h-2zM7 7h2v3H7zM3 7h2v3H3zm28 19h2v3h-2zm-4 0h2v3h-2zm-4 0h2v3h-2zm-4 0h2v3h-2zm-4 0h2v3h-2zm-4 0h2v3h-2zm-4 0h2v3H7zm-4 0h2v3H3z"/><path fill="#88C9F9" d="M29 25V11h1v14zM9 25V11h1v14z"/></svg><svg viewBox="0 0 36 36" id="1F3A5" xmlns="http://www.w3.org/2000/svg"><path fill="#31373D" d="M32 21v1h-2v-1c0-.446-.09-.867-.225-1.268a6 6 0 00-1.776-11.733 5.972 5.972 0 00-4.131 1.656A7 7 0 0010 11a6.987 6.987 0 003.409 6H13a4 4 0 00-4 4H8l-6-4H1v14h1l6-4h1v2a4 4 0 004 4h13a4 4 0 004-4v-3h2v1h3v-6h-3z"/><path fill="#66757F" d="M22 11a5 5 0 11-10.001-.001A5 5 0 0122 11z"/><circle cx="17" cy="11" r="2" fill="#CCD6DD"/><circle cx="27.999" cy="14" r="4" fill="#66757F"/><circle cx="27.999" cy="14" r="2" fill="#CCD6DD"/><path fill="#8899A6" d="M17 20h10v10H17z"/><path fill="#31373D" d="M19 22h6v6h-6z"/><circle cx="12.999" cy="28" r="2" fill="#8899A6"/></svg><svg viewBox="0 0 36 36" id="1F3AC" xmlns="http://www.w3.org/2000/svg"><path fill="#3F7123" d="M35.845 32c0 2.2-1.8 4-4 4h-26c-2.2 0-4-1.8-4-4V19c0-2.2 1.8-4 4-4h26c2.2 0 4 1.8 4 4v13z"/><path fill="#3F7123" d="M1.845 15h34v6h-34z"/><path fill="#CCD6DD" d="M1.845 15h34v7h-34z"/><path fill="#292F33" d="M1.845 15h4l-4 7v-7zm11 0l-4 7h7l4-7h-7zm14 0l-4 7h7l4-7h-7z"/><path fill="#CCD6DD" d="M.155 8.207L33.148 0l1.69 6.792L1.845 15z"/><path fill="#292F33" d="M.155 8.207l5.572 5.827L1.845 15 .155 8.207zm19.158 2.448l-5.572-5.828-6.793 1.69 5.572 5.828 6.793-1.69zm13.586-3.38l-5.572-5.828-6.793 1.69 5.572 5.827 6.793-1.689z"/></svg><svg viewBox="0 0 36 36" id="1F3EE" xmlns="http://www.w3.org/2000/svg"><path fill="#292F33" d="M29 34a2 2 0 01-2 2H9a2 2 0 01-2-2V2a2 2 0 012-2h18a2 2 0 012 2v32z"/><path fill="#BE1931" d="M6.699 32h22.602C33.383 28.7 35 23.658 35 18c0-5.658-1.616-10.7-5.698-14H6.698C2.615 7.3 1 12.342 1 18c0 5.658 1.616 10.7 5.699 14z"/><path fill="#DD2E44" d="M1.301 22c.108.682.245 1.35.415 2h32.568c.17-.65.307-1.318.415-2H1.301zm-.229-2h33.855c.049-.657.073-1.324.073-2H1c0 .676.024 1.343.072 2zm31.605 8c.363-.64.684-1.306.956-2H2.367c.272.694.593 1.36.956 2h29.354zM2.366 10a17.77 17.77 0 00-.651 2h32.569a17.77 17.77 0 00-.651-2H2.366zm-1.065 4a23.92 23.92 0 00-.229 2h33.855a23.507 23.507 0 00-.229-2H1.301zm30.014 16H4.685c.591.721 1.26 1.391 2.014 2h22.602a13.904 13.904 0 002.014-2zM4.685 6a14.166 14.166 0 00-1.363 2h29.356a14.244 14.244 0 00-1.362-2H4.685z"/></svg><svg viewBox="0 0 36 36" id="1F4A1" xmlns="http://www.w3.org/2000/svg"><path fill="#FFD983" d="M29 11.06c0 6.439-5 7.439-5 13.44 0 3.098-3.123 3.359-5.5 3.359-2.053 0-6.586-.779-6.586-3.361C11.914 18.5 7 17.5 7 11.06 7 5.029 12.285.14 18.083.14 23.883.14 29 5.029 29 11.06z"/><path fill="#CCD6DD" d="M22.167 32.5c0 .828-2.234 2.5-4.167 2.5-1.933 0-4.167-1.672-4.167-2.5 0-.828 2.233-.5 4.167-.5 1.933 0 4.167-.328 4.167.5z"/><path fill="#FFCC4D" d="M22.707 10.293a.999.999 0 00-1.414 0L18 13.586l-3.293-3.293a.999.999 0 10-1.414 1.414L17 15.414V26a1 1 0 102 0V15.414l3.707-3.707a.999.999 0 000-1.414z"/><path fill="#99AAB5" d="M24 31a2 2 0 01-2 2h-8a2 2 0 01-2-2v-6h12v6z"/><path fill="#CCD6DD" d="M11.999 32a1 1 0 01-.163-1.986l12-2a.994.994 0 011.15.822.999.999 0 01-.822 1.15l-12 2a.927.927 0 01-.165.014zm0-4a1 1 0 01-.163-1.986l12-2a.995.995 0 011.15.822.999.999 0 01-.822 1.15l-12 2a.927.927 0 01-.165.014z"/></svg><svg viewBox="0 0 36 36" id="1F4F7" xmlns="http://www.w3.org/2000/svg"><path fill="#66757F" d="M4 5s0-1 1-1h6s1 0 1 1v2H4V5z"/><path fill="#31373D" d="M0 10s0-4 4-4h28s4 0 4 4v18s0 4-4 4H4s-4 0-4-4V10z"/><circle cx="21" cy="19" r="10" fill="#CCD6DD"/><circle cx="21" cy="19" r="8" fill="#31373D"/><circle cx="21" cy="19" r="5" fill="#3B88C3"/><circle cx="32.5" cy="9.5" r="1.5" fill="#FFF"/><path fill="#F5F8FA" d="M12 9.5a1.5 1.5 0 01-1.5 1.5h-5a1.5 1.5 0 110-3h5A1.5 1.5 0 0112 9.5z"/></svg><svg viewBox="0 0 36 36" id="1F4F8" xmlns="http://www.w3.org/2000/svg"><path fill="#31373D" d="M0 10s0-4 4-4h28s4 0 4 4v18s0 4-4 4H4s-4 0-4-4V10z"/><circle cx="21" cy="19" r="10" fill="#CCD6DD"/><circle cx="21" cy="19" r="8" fill="#31373D"/><circle cx="21" cy="19" r="5" fill="#3B88C3"/><circle cx="32.5" cy="9.5" r="1.5" fill="#FFF"/><path fill="#FFAC33" d="M16 9l3-6-6 2-4-5-2 5-6-1 4 6-5 4h6l-2 6 6-3 6 5-1-8 6-1z"/><path fill="#FFF" d="M10 14l-3 2 1-3-3-1 3-2-3-3h4l1-3 2 3 3-1-2 3 3 3-3 1 1 4z"/></svg><svg viewBox="0 0 36 36" id="1F4F9" xmlns="http://www.w3.org/2000/svg"><path fill="#31373D" d="M29 18H16c-3.668 0-5-2.99-5-5v-2H7c-3 0-3 3-3 3s-2-1-3-1-1 1-1 1v10s0 1 1 1 3-1 3-1v7c0 4 4 4 4 4h18c4 0 4-4 4-4V17.894A5.174 5.174 0 0129 18z"/><path fill="#66757F" d="M35 6c-.559 0-2.05.934-3.26 1.76C31.413 6.934 30.674 6 29 6H18s-5 0-5 5v2s0 3 3 3h13s2.075-.006 2.771-1.739C32.976 15.082 34.446 16 35 16c1 0 1-1 1-1V7s0-1-1-1zM9 35v-9s0-3 2.75-3H22s3 0 3 3v9h-2v-9s0-1-1-1H12s-1 0-1 1v9H9z"/></svg><svg viewBox="0 0 36 36" id="1F4FA" xmlns="http://www.w3.org/2000/svg"><path fill="#31373D" d="M35 31s0 4-4 4H5c-4 0-4-4-4-4V12c0-4 4-4 4-4h26s4 0 4 4v19z"/><path fill="#31373D" d="M21.303 10.389a.999.999 0 11-1.414 1.414l-9.192-9.192a.999.999 0 111.414-1.414l9.192 9.192z"/><path fill="#31373D" d="M14.697 10.389a.999.999 0 101.414 1.414l9.192-9.192a.999.999 0 10-1.414-1.414l-9.192 9.192z"/><path fill="#55ACEE" d="M18 11c8 0 10 1 11 2s2 3 2 8-1 7-2 8-3 2-11 2-10-1-11-2-2-3-2-8 1-7 2-8 3-2 11-2z"/><circle cx="31.5" cy="31.5" r="1.5" fill="#66757F"/><circle cx="4.5" cy="31.5" r="1.5" fill="#66757F"/></svg><svg viewBox="0 0 36 36" id="1F4FC" xmlns="http://www.w3.org/2000/svg"><path fill="#31373D" d="M36 25s0 4-4 4H4s-4 0-4-4V10c0-4 4-4 4-4h28s4 0 4 4v15z"/><path fill="#CCD6DD" d="M32 12h-6s-1 0-1 1v8s0 1 1 1h6c1 0 2-2 2-5s-1-5-2-5z"/><path d="M29.894 12H26s-1 0-1 1v1a3 3 0 010 6v1s0 1 1 1h3.895A6.973 6.973 0 0032 17a6.978 6.978 0 00-2.106-5z"/><path fill="#66757F" d="M28 17a3 3 0 00-3-3v6a3 3 0 003-3z"/><path fill="#CCD6DD" d="M4 12h6s1 0 1 1v8s0 1-1 1H4c-1 0-2-2-2-5s1-5 2-5z"/><path d="M11 20a3 3 0 110-6v-1c0-1-1-1-1-1H6.106C4.808 13.271 4 15.04 4 17s.808 3.729 2.106 5H10c1 0 1-1 1-1v-1z"/><path fill="#66757F" d="M8 17a3 3 0 003 3v-6a3 3 0 00-3 3z"/><path fill="#88C9F9" d="M13 14s0-1 1-1h8s1 0 1 1v6s0 1-1 1h-8s-1 0-1-1v-6z"/><path d="M34 26a1 1 0 01-1 1H3a1 1 0 110-2h30a1 1 0 011 1z"/></svg><svg viewBox="0 0 36 36" id="1F4FD" xmlns="http://www.w3.org/2000/svg"><path fill="#31373D" d="M34.074 18l-4.832 3H28v-4c0-.088-.02-.169-.026-.256C31.436 15.864 34 12.735 34 9a8 8 0 00-16.001 0c0 1.463.412 2.822 1.099 4H14.92c.047-.328.08-.66.08-1a7 7 0 10-14 0 6.995 6.995 0 004 6.317V29a4 4 0 004 4h15a4 4 0 004-4v-3h1.242l4.832 3H35V18h-.926zM28.727 3.977a5.713 5.713 0 012.984 4.961L28.18 8.35a2.276 2.276 0 00-.583-.982l1.13-3.391zm-.9 6.342l3.552.592a5.713 5.713 0 01-4.214 3.669 3.985 3.985 0 00-1.392-1.148l.625-2.19a2.425 2.425 0 001.429-.923zM26 3.285c.282 0 .557.027.828.067l-1.131 3.392c-.404.054-.772.21-1.081.446L21.42 5.592A5.703 5.703 0 0126 3.285zM20.285 9c0-.563.085-1.106.236-1.62l3.194 1.597-.002.023c0 .657.313 1.245.771 1.662L23.816 13h-1.871a5.665 5.665 0 01-1.66-4zm-9.088-.385A4.64 4.64 0 0112.667 12c0 .344-.043.677-.113 1H10.1c.145-.304.233-.641.233-1a2.32 2.32 0 00-.392-1.292l1.256-2.093zM8 7.333c.519 0 1.01.105 1.476.261L8.22 9.688c-.073-.007-.145-.022-.22-.022a2.32 2.32 0 00-1.292.392L4.615 8.803A4.64 4.64 0 018 7.333zM3.333 12c0-.519.105-1.01.261-1.477l2.095 1.257c-.007.073-.022.144-.022.22 0 .75.36 1.41.91 1.837a3.987 3.987 0 00-1.353 1.895C4.083 14.881 3.333 13.533 3.333 12z"/><circle cx="24" cy="19" r="2" fill="#8899A6"/><circle cx="9" cy="19" r="2" fill="#8899A6"/><path fill="#8899A6" d="M24 27a2 2 0 00-2-2H11a2 2 0 00-2 2v6a2 2 0 002 2h11a2 2 0 002-2v-6z"/></svg><svg viewBox="0 0 36 36" id="1F50D" xmlns="http://www.w3.org/2000/svg"><path fill="#9AAAB4" d="M27.388 24.642L24.56 27.47l-4.95-4.95 2.828-2.828z"/><path fill="#66757F" d="M34.683 29.11l-5.879-5.879a2 2 0 00-2.828 0l-2.828 2.828a2 2 0 000 2.828l5.879 5.879a4 4 0 105.656-5.656z"/><circle cx="13.586" cy="13.669" r="13.5" fill="#8899A6"/><circle cx="13.586" cy="13.669" r="9.5" fill="#BBDDF5"/></svg><svg viewBox="0 0 36 36" id="1F50E" xmlns="http://www.w3.org/2000/svg"><path fill="#9AAAB4" d="M13.503 19.693l2.828 2.828-4.95 4.95-2.828-2.829z"/><path fill="#66757F" d="M1.257 29.11l5.88-5.879a2 2 0 012.828 0l2.828 2.828a2 2 0 010 2.828l-5.879 5.879a4 4 0 11-5.657-5.656z"/><circle cx="22.355" cy="13.669" r="13.5" fill="#8899A6"/><circle cx="22.355" cy="13.669" r="9.5" fill="#BBDDF5"/></svg><svg viewBox="0 0 36 36" id="1F526" xmlns="http://www.w3.org/2000/svg"><path fill="#66757F" d="M23 17l1-1s1-1 2 0l2 2s1 1 0 2l-1 1-4-4z"/><path fill="#8899A6" d="M34.879 27.879a3.01 3.01 0 010 4.242l-2.758 2.758a3.01 3.01 0 01-4.242 0L9.121 16.121a3.008 3.008 0 010-4.242l2.758-2.758a3.008 3.008 0 014.242 0l18.758 18.758z"/><path fill="#66757F" d="M20.879 10.879a3.01 3.01 0 010 4.242l-5.758 5.758a3.01 3.01 0 01-4.242 0L6 16s-1-1 0-2l8-8c1-1 2 0 2 0l4.879 4.879z"/><path fill="#8899A6" d="M7 17L17 7l2 2L9 19z"/><path fill="#FFCC4D" d="M11.001 6a1 1 0 01-.896-.553l-2-4a1.001 1.001 0 011.79-.895l2 4A1 1 0 0111.001 6zm-6.002 6a.99.99 0 01-.446-.106l-4-2a1 1 0 11.894-1.788l4 2A1 1 0 014.999 12zM8 9a.997.997 0 01-.707-.293l-4-4a.999.999 0 111.414-1.414l4 4A.999.999 0 018 9z"/></svg><svg viewBox="0 0 36 36" id="1F56F" xmlns="http://www.w3.org/2000/svg"><path fill="#67757F" d="M20 21.5a1.5 1.5 0 01-3 0v-3a1.5 1.5 0 113 0v3z"/><path fill="#E1E8ED" d="M27.138 33.817C27.183 35.022 26.206 36 25 36H12.183A2.183 2.183 0 0110 33.817V21c0-1.205.115-2.183 2.183-2.183S15 23 25 21c1.091 0 2.183.978 2.138 2.183v10.634z"/><path fill="#FCAB40" d="M18.687 18.538c-2.595 0-6.962-1.934-6.962-5.898 0-3.988 4.351-5.414 7.005-11.401.751-1.693.999-1.107 1.86-.076 2.06 2.463 5.058 7.483 5.058 11.574-.001 4.641-4.64 5.801-6.961 5.801z"/><path fill="#FDCB58" d="M18.687 17.447c-4.184 0-3.482-5.802 0-9.283 2.321 1.16 5.801 9.283 0 9.283z"/><path fill="#CCD6DD" d="M11 29a1 1 0 11-2 0v-7a1 1 0 112 0v7zm4 3a1 1 0 11-2 0v-7a1 1 0 112 0v7zm0-11a1 1 0 11-2 0v-1a1 1 0 112 0v1z"/></svg><svg viewBox="0 0 36 36" id="1FA94" xmlns="http://www.w3.org/2000/svg"><path fill="#BE1931" d="M33.139 21.464c.719.341.364 1.157 0 1.865-1.755 3.412-11.661 12.123-19.776 12.123C6.259 35.452.5 29.806.5 23.329c0-6.477 7.91-3.098 13.056-6.528 1.715 0 1.865-3.73 19.583 4.663z"/><path fill="#7F031E" d="M31.274 21.464c3.129 2.014-11.033 7.027-18.138 7.027C6.032 28.491.5 25.982.5 22.352c0-3.63 5.759-6.573 12.863-6.573 7.105 0 12.316 2.085 17.911 5.685z"/><path fill="#FFAC33" d="M29.409 22.396c2.655 1.8-8.492 6.201-16.046 6.201-7.03 0-11.35-2.432-11.35-5.432 0-3 5.082-5.432 11.35-5.432s12.316 2.134 16.046 4.663z"/><path d="M24.745 24.262a.932.932 0 01-.225-1.837c3.698-.925 5.061-1.766 5.849-4.917a.934.934 0 011.81.452c-1.107 4.428-3.685 5.393-7.207 6.274a.934.934 0 01-.227.028z"/><path fill="#F4900C" d="M26.75 12.119c0 4.296 2.496 5.833 4.375 5.833s4.375-1.538 4.375-5.833c0-4.296-1.944-8.651-4.375-11.567-2.431 2.916-4.375 7.271-4.375 11.567z"/><ellipse cx="31.125" cy="13.577" fill="#FFCC4D" rx="2.431" ry="4.375"/><ellipse cx="12.167" cy="22.813" fill="#FFCC4D" rx="6.806" ry="2.917"/></svg></svg>