<?xml version="1.0" encoding="utf-8"?><svg viewBox="0 0 36 36" xmlns="http://www.w3.org/2000/svg" xmlns:xlink="http://www.w3.org/1999/xlink"><style>:root>svg{display:none}:root>svg:target{display:block}</style><svg viewBox="0 0 36 36" id="1F4B0" xmlns="http://www.w3.org/2000/svg"><path fill="#FDD888" d="M31.898 23.938C31.3 17.32 28 14 28 14l-6-8h-8l-6 8s-1.419 1.433-2.567 4.275C3.444 18.935 2 20.789 2 23a4.97 4.97 0 0 0 1.609 3.655A4.943 4.943 0 0 0 3 29c0 1.958 1.136 3.636 2.775 4.456C7.058 35.378 8.772 36 10 36h16c1.379 0 3.373-.779 4.678-3.31C32.609 31.999 34 30.17 34 28a4.988 4.988 0 0 0-2.102-4.062zM18 6c.55 0 1.058-.158 1.5-.416.443.258.951.416 1.5.416 1.657 0 4-2.344 4-4 0 0 0-2-2-2-.788 0-1 1-2 1s-1-1-3-1-2 1-3 1-1.211-1-2-1c-2 0-2 2-2 2 0 1.656 2.344 4 4 4 .549 0 1.057-.158 1.5-.416.443.258.951.416 1.5.416z"/><path fill="#BF6952" d="M24 6a1 1 0 0 1-1 1H13a1 1 0 0 1 0-2h10a1 1 0 0 1 1 1z"/><path fill="#67757F" d="M23.901 24.542c0-4.477-8.581-4.185-8.581-6.886 0-1.308 1.301-1.947 2.811-1.947 2.538 0 2.99 1.569 4.139 1.569.813 0 1.205-.493 1.205-1.046 0-1.284-2.024-2.256-3.965-2.592V12.4c0-.773-.65-1.4-1.454-1.4-.805 0-1.456.627-1.456 1.4v1.283c-2.116.463-3.937 1.875-3.937 4.176 0 4.299 8.579 4.125 8.579 7.145 0 1.047-1.178 2.093-3.111 2.093-2.901 0-3.867-1.889-5.045-1.889-.574 0-1.087.464-1.087 1.164 0 1.113 1.938 2.451 4.603 2.824l-.001.01v1.398c0 .772.652 1.4 1.456 1.4.804 0 1.455-.628 1.455-1.4v-1.398c0-.017-.008-.03-.009-.045 2.398-.43 4.398-1.932 4.398-4.619z"/></svg><svg viewBox="0 0 36 36" id="1F4B3" xmlns="http://www.w3.org/2000/svg"><path fill="#FFAC33" d="M4 5a4 4 0 0 0-4 4v18a4 4 0 0 0 4 4h28a4 4 0 0 0 4-4V9s0-4-4-4H4z"/><path fill="#292F33" d="M0 10h36v5H0z"/><path fill="#F4F7F9" d="M4 19h28v6H4z"/><path fill="#8899A6" d="M19 24c-1.703 0-2.341-1.21-2.469-1.801-.547.041-1.08.303-1.805.764C13.961 23.449 13.094 24 12 24c-1.197 0-1.924-.675-2-2-.003-.056.038-.188.021-.188-1.858 0-3.202 1.761-3.215 1.779a.997.997 0 0 1-1.397.215 1 1 0 0 1-.215-1.398C5.271 22.303 7.11 20 10 20c1.937 0 2.048 1.375 2.078 1.888l.007.109c.486-.034.991-.354 1.57-.723.961-.61 2.153-1.371 3.75-.962.871.223 1.007 1.031 1.059 1.336.013.076.032.19.049.226.007 0 .146.091.577.13.82.075 1.721-.279 2.675-.653.988-.388 2.01-.788 3.111-.788 3.389 0 4.767 1.635 4.913 1.821a1 1 0 1 1-1.575 1.232c-.024-.027-.93-1.054-3.337-1.054-.723 0-1.528.315-2.381.649-1.009.396-2.434.789-3.496.789z"/></svg><svg viewBox="0 0 36 36" id="1F4B4" xmlns="http://www.w3.org/2000/svg"><path fill="#E5A157" d="M2 11c-2 0-2 2-2 2v21s0 2 2 2h32c2 0 2-2 2-2V13s0-2-2-2H2z"/><path fill="#FFD983" d="M2 6C0 6 0 8 0 8v20s0 2 2 2h32c2 0 2-2 2-2V8s0-2-2-2H2z"/><circle cx="25" cy="18" r="6.5" fill="#EDB980"/><path fill="#E5A157" d="M33 28.5H3c-.827 0-1.5-.673-1.5-1.5V9c0-.827.673-1.5 1.5-1.5h30c.827 0 1.5.673 1.5 1.5v18c0 .827-.673 1.5-1.5 1.5zM3 8.5a.5.5 0 0 0-.5.5v18c0 .275.225.5.5.5h30c.275 0 .5-.225.5-.5V9a.5.5 0 0 0-.5-.5H3z"/><path fill="#FFE8B6" d="M14 6h8v24.062h-8z"/><path fill="#FFAC33" d="M14 30h8v6h-8z"/><path fill="#E5A157" d="M7.238 18.415H4.864c-.398 0-.709-.19-.709-.57 0-.383.312-.573.709-.573h1.664l-2.772-4.28c-.173-.259-.26-.449-.26-.691 0-.33.33-.573.607-.573.278 0 .554.122.797.485L8 16.874l3.102-4.662c.243-.364.52-.485.797-.485.276 0 .605.243.605.573 0 .243-.086.432-.259.691l-2.772 4.28h1.664c.399 0 .711.191.711.573 0 .381-.312.57-.711.57H8.764v1.229h2.373c.399 0 .711.192.711.573 0 .381-.312.571-.711.571H8.764v2.668c0 .502-.312.815-.763.815s-.762-.313-.762-.815v-2.668H4.864c-.398 0-.709-.19-.709-.571 0-.381.312-.573.709-.573h2.375v-1.228z"/></svg><svg viewBox="0 0 36 36" id="1F4B5" xmlns="http://www.w3.org/2000/svg"><path fill="#5C913B" d="M2 11c-2 0-2 2-2 2v21s0 2 2 2h32c2 0 2-2 2-2V13s0-2-2-2H2z"/><path fill="#A7D28B" d="M2 6C0 6 0 8 0 8v20s0 2 2 2h32c2 0 2-2 2-2V8s0-2-2-2H2z"/><circle cx="25" cy="18" r="6.5" fill="#77B255"/><path fill="#5C913B" d="M33 28.5H3c-.827 0-1.5-.673-1.5-1.5V9c0-.827.673-1.5 1.5-1.5h30c.827 0 1.5.673 1.5 1.5v18c0 .827-.673 1.5-1.5 1.5zM3 8.5a.5.5 0 0 0-.5.5v18c0 .275.225.5.5.5h30c.275 0 .5-.225.5-.5V9a.5.5 0 0 0-.5-.5H3z"/><path fill="#FFE8B6" d="M14 6h8v24.062h-8z"/><path fill="#FFAC33" d="M14 30h8v6h-8z"/><path fill="#5C913B" d="M11.81 20.023c0-2.979-5.493-2.785-5.493-4.584 0-.871.833-1.296 1.799-1.296 1.625 0 1.914 1.044 2.65 1.044.521 0 .772-.328.772-.696 0-.856-1.296-1.502-2.539-1.726v-.825a.932.932 0 1 0-1.864 0v.853c-1.354.31-2.521 1.25-2.521 2.781 0 2.862 5.493 2.746 5.493 4.758 0 .695-.754 1.391-1.992 1.391-1.857 0-2.476-1.257-3.229-1.257-.368 0-.696.309-.696.775 0 .741 1.24 1.631 2.947 1.881l-.001.004v.934a.933.933 0 0 0 1.864 0v-.934c0-.01-.005-.019-.006-.028 1.535-.287 2.816-1.286 2.816-3.075z"/></svg><svg viewBox="0 0 36 36" id="1F4B6" xmlns="http://www.w3.org/2000/svg"><path fill="#2A6797" d="M2 11c-2 0-2 2-2 2v21s0 2 2 2h32c2 0 2-2 2-2V13s0-2-2-2H2z"/><path fill="#5DADEC" d="M2 6C0 6 0 8 0 8v20s0 2 2 2h32c2 0 2-2 2-2V8s0-2-2-2H2z"/><circle cx="25" cy="18" r="6.5" fill="#4289C1"/><path fill="#2A6797" d="M33 28.5H3c-.827 0-1.5-.673-1.5-1.5V9c0-.827.673-1.5 1.5-1.5h30c.827 0 1.5.673 1.5 1.5v18c0 .827-.673 1.5-1.5 1.5zM3 8.5a.5.5 0 0 0-.5.5v18c0 .275.225.5.5.5h30c.275 0 .5-.225.5-.5V9a.5.5 0 0 0-.5-.5H3z"/><path fill="#FFE8B6" d="M14 6h8v24.062h-8z"/><path fill="#FFAC33" d="M14 30h8v6h-8z"/><path fill="#2A6797" d="M12.764 21.84c0 .658-1.474 1.447-3.301 1.447-2.42 0-3.877-1.681-4.361-3.742H3.808a.57.57 0 1 1 0-1.139h1.129c-.008-.136-.029-.27-.029-.406 0-.3.026-.597.063-.89H3.808a.57.57 0 1 1 0-1.14h1.416c.593-1.835 2.03-3.257 4.313-3.257 1.84 0 3.008.993 3.008 1.519 0 .336-.205.612-.526.612-.584 0-.876-1.022-2.482-1.022-1.51 0-2.428.942-2.891 2.147h3.327a.57.57 0 1 1 0 1.14H6.351a6.246 6.246 0 0 0-.072.891c0 .134.016.27.025.405h3.668a.57.57 0 1 1 0 1.139H6.485c.389 1.43 1.346 2.631 2.978 2.631 1.563 0 2.25-.934 2.79-.934.307.001.511.235.511.599z"/></svg><svg viewBox="0 0 36 36" id="1F4B7" xmlns="http://www.w3.org/2000/svg"><path fill="#9266CC" d="M2 11c-2 0-2 2-2 2v21s0 2 2 2h32c2 0 2-2 2-2V13s0-2-2-2H2z"/><path fill="#CBB8E9" d="M2 6C0 6 0 8 0 8v20s0 2 2 2h32c2 0 2-2 2-2V8s0-2-2-2H2z"/><circle cx="25" cy="18" r="6.5" fill="#AA8DD8"/><path fill="#9266CC" d="M33 28.5H3c-.827 0-1.5-.673-1.5-1.5V9c0-.827.673-1.5 1.5-1.5h30c.827 0 1.5.673 1.5 1.5v18c0 .827-.673 1.5-1.5 1.5zM3 8.5a.5.5 0 0 0-.5.5v18c0 .275.225.5.5.5h30c.275 0 .5-.225.5-.5V9a.5.5 0 0 0-.5-.5H3z"/><path fill="#FFE8B6" d="M14 6h8v24.062h-8z"/><path fill="#FFAC33" d="M14 30h8v6h-8z"/><path fill="#9266CC" d="M9.308 17.315c.439 0 .755.228.755.72s-.316.72-.755.72H7.393c.053.299.123.632.123 1.159 0 .826-.544 2.09-1.51 2.951h5.919c.44 0 .756.228.756.72s-.316.721-.756.721H4.9c-.491 0-.931-.123-.931-.738 0-.754 2.002-1.58 2.002-3.67 0-.316-.018-.755-.123-1.142H4.074c-.439 0-.755-.228-.755-.72s.316-.72.755-.72h1.353c-.421-.755-.86-1.581-.86-2.511 0-1.845 1.809-3.109 3.793-3.109 2.09 0 4.022 1.722 4.022 3.109 0 .474-.298.755-.737.755-1.177 0-.562-2.424-3.268-2.424-1.142 0-2.266.615-2.266 1.774 0 .931.527 1.633.931 2.406h2.266z"/></svg><svg viewBox="0 0 36 36" id="1F4B8" xmlns="http://www.w3.org/2000/svg"><path fill="#5C913B" d="M35.602 16.28c-2.582-3.761-7.92 1.774-17.662 2.899-3.607.416-6.857 3.428-11.047 3.141-1.718-.118-4.117-5.061-5.913-4.273-.924.406-1.348 1.761-.398 2.779L11.13 33.412s.536.618 2.342.19c.445.131 7.135-2.55 11.003-7.917.926-1.285 2.03-2.355 3.173-3.249 3.711-2.744 7.745-3.7 7.745-3.7.516-.426.637-.879.609-1.272.034-.656-.4-1.184-.4-1.184z"/><path fill="#A7D28B" d="M11.476 10.274c-3.783 5.25-10.408 7.737-10.408 7.737-1.236 1.047-.192 2.281-.192 2.281l10.438 12.359s.522.617 2.28.189c0 0 6.625-2.482 10.407-7.732 3.899-5.41 10.93-7.118 10.93-7.118 1.235-1.047.192-2.283.192-2.283L24.685 3.35s-.522-.618-2.28-.192c0 0-7.03 1.704-10.929 7.116z"/><circle cx="22" cy="14" r="5.5" fill="#77B255"/><path fill="#5C913B" d="M12.873 31.929c-.881 0-1.204-.328-1.248-.378L2.216 20.568c-.018-.021-.495-.567-.437-1.261.035-.421.253-.796.647-1.115l.063-.038c.061-.024 6.163-2.532 9.583-7.065l.2.15-.2-.15c3.618-4.796 9.859-6.854 9.921-6.874 1.745-.406 2.316.174 2.377.242l9.285 11.044c.017.018.493.566.435 1.261-.035.42-.253.795-.647 1.114l-.099.049c-.061.015-6.129 1.523-9.644 6.181-3.499 4.64-9.607 7.642-9.668 7.671-.464.11-.846.152-1.159.152zm-.871-.707c.001 0 .452.416 1.865.088.008-.011 6.009-2.962 9.436-7.504 3.437-4.555 9.225-6.182 9.867-6.351.257-.221.399-.466.422-.729.042-.48-.312-.893-.315-.897L23.992 4.784c-.002 0-.45-.415-1.864-.087-.041.014-6.135 2.026-9.656 6.693-3.366 4.461-9.239 6.995-9.758 7.213-.268.225-.414.476-.437.745-.04.476.312.887.315.891l9.41 10.983z"/><path fill="#FFAC33" d="m21.276 22.166-.006 5.94.497.59c.969-.884 1.9-1.878 2.705-2.996a15.844 15.844 0 0 1 2.828-2.986l-.483-.575-5.541.027z"/><path fill="#FFE8B6" d="M26.798 22.118 14.292 7.305c-1.016.836-1.992 1.811-2.822 2.964-.811 1.126-1.755 2.117-2.735 2.991l1.462 1.731-.001.001 11.075 13.114a18.71 18.71 0 0 0 2.725-3.003c.83-1.152 1.805-2.126 2.82-2.962l-.019-.023h.001z"/><path fill="#5C913B" d="M14.479 22.555c-1.557-1.844-4.853 1.148-5.793.035-.455-.539-.162-1.238.436-1.742 1.005-.85 1.73-.355 2.185-.74.323-.272.306-.605.114-.834-.446-.527-1.586-.252-2.472.26l-.431-.51a.754.754 0 0 0-1.152.972l.446.529c-.677.898-.907 2.09-.106 3.037 1.496 1.77 4.833-1.172 5.883.072.364.432.262 1.256-.504 1.902-1.148.971-2.188.516-2.655.91-.228.191-.269.555-.026.844.387.457 1.62.359 2.805-.379.002.002.002.004.002.006l.487.576a.755.755 0 1 0 1.153-.974l-.487-.576c-.005-.006-.013-.01-.019-.016.799-.978 1.069-2.267.134-3.372z"/><path fill="#E1E8ED" d="M32.456 32.588c.009-.008.019-.014.028-.021.068-.068.121-.146.181-.221.042-.052.089-.102.128-.155.035-.05.064-.101.096-.152 1.42-2.187.49-5.895-2.321-8.707-2.812-2.812-6.521-3.742-8.707-2.321-.052.031-.103.06-.153.096-.053.039-.104.086-.154.127-.074.061-.152.113-.221.182-.009.009-.015.019-.022.028-.011.011-.024.018-.036.03l.006.005c-1 1.062-1.012 2.705-.006 3.712 1.008 1.008 2.65.994 3.713-.006l.011.012c-.021.02-.044.033-.064.053-1.059 1.059-1.084 2.748-.059 3.775 1.026 1.025 2.717 1 3.775-.059.02-.02.033-.043.053-.064l.011.012c-1 1.062-1.013 2.705-.005 3.713 1.007 1.006 2.649.994 3.711-.006l.006.006c.01-.014.018-.027.029-.039z"/><path fill="#CCD6DD" d="M21.277 25.231c.906.905 2.321.979 3.37.261.439-.75.565-1.463.565-1.686-2.207 1.646-4.177.009-4.618-.97-.183.846.039 1.75.683 2.395zm7.299 3.84c.298-.419.529-.824.637-1.098-1.405 1.288-4.091.345-4.905-1.698-.358.95-.175 2.044.571 2.79 1.002 1.002 2.634.994 3.697.006zm3.854 3.595.029-.036c.01-.008.02-.014.028-.022.069-.068.122-.146.181-.22.043-.053.089-.102.128-.156.036-.049.065-.101.097-.152.065-.1.1-.218.155-.324-2.528 1.131-4.415-.788-4.944-1.745-.295.917-.103 1.944.609 2.657 1.006 1.007 2.648.995 3.711-.006l.006.004z"/><path fill="#E1E8ED" d="m13.956 12.498.028-.022c.069-.068.122-.146.181-.22.042-.052.088-.101.127-.155.036-.05.065-.101.097-.152 1.42-2.187.489-5.896-2.322-8.707C9.255.43 5.547-.501 3.36.919c-.051.032-.103.061-.153.097-.054.039-.103.085-.155.127-.074.06-.152.112-.22.181-.009.009-.015.02-.022.028-.011.01-.025.019-.036.03l.005.005c-1 1.062-1.012 2.705-.005 3.712 1.007 1.007 2.65.995 3.712-.005l.011.011c-.021.019-.044.033-.064.053-1.059 1.059-1.084 2.748-.058 3.775 1.026 1.027 2.716 1.001 3.775-.058.02-.02.033-.043.053-.064l.011.011c-1 1.062-1.013 2.705-.005 3.712 1.007 1.007 2.649.995 3.711-.006l.005.006c.011-.011.02-.024.031-.036z"/><path fill="#CCD6DD" d="M2.773 5.1c.906.906 2.321.98 3.37.26.439-.75.564-1.462.564-1.685-2.206 1.645-4.177.007-4.617-.972-.183.847.039 1.752.683 2.397zm7.301 3.838c.297-.419.528-.822.635-1.096-1.406 1.288-4.092.344-4.905-1.699-.358.95-.175 2.044.57 2.79 1.004 1.003 2.637.994 3.7.005zm3.851 3.597c.011-.011.02-.024.03-.036l.028-.022c.069-.068.122-.146.181-.22.042-.052.088-.101.127-.155.036-.05.065-.101.097-.152.065-.1.1-.219.155-.325-2.528 1.131-4.415-.787-4.944-1.744-.295.917-.103 1.944.609 2.656 1.007 1.007 2.649.995 3.711-.006l.006.004z"/></svg><svg viewBox="0 0 36 36" id="1F4B9" xmlns="http://www.w3.org/2000/svg"><path fill="#77B255" d="M36.042 32a4 4 0 0 1-4 4h-28a4 4 0 0 1-4-4V4a4 4 0 0 1 4-4h28a4 4 0 0 1 4 4v28z"/><path fill="#FFF" d="M9.896 14.875H5.792c-.688 0-1.227-.327-1.227-.985 0-.661.539-.99 1.227-.99h2.876L3.876 5.501c-.298-.449-.449-.776-.449-1.195 0-.571.57-.99 1.049-.99.48 0 .958.21 1.378.839l5.36 8.058 5.362-8.058c.419-.629.897-.839 1.378-.839.478 0 1.046.42 1.046.99 0 .419-.148.746-.448 1.195L13.76 12.9h2.875c.689 0 1.229.329 1.229.99 0 .658-.539.985-1.229.985h-4.102v2.126h4.102c.689 0 1.229.332 1.229.99 0 .658-.539.987-1.229.987h-4.102v4.611c0 .868-.539 1.41-1.319 1.41-.778 0-1.317-.542-1.317-1.41v-4.611H5.792c-.688 0-1.227-.329-1.227-.987 0-.658.539-.99 1.227-.99h4.105v-2.126z"/><path fill="#FFF" d="M4.002 34a2 2 0 0 1-1.031-3.715l5-3a2.007 2.007 0 0 1 1.661-.183l4.677 1.56 3.129-3.911a2.003 2.003 0 0 1 2.305-.608l3.03 1.213 2.329-6.988c.099-.295.264-.562.483-.782l5-5a2 2 0 1 1 2.828 2.828l-4.666 4.666-2.851 8.553a2.004 2.004 0 0 1-2.641 1.225l-3.622-1.449-3.073 3.841a2.002 2.002 0 0 1-2.194.648l-5.126-1.71-4.211 2.526A1.985 1.985 0 0 1 4.002 34z"/></svg><svg viewBox="0 0 36 36" id="1F9FE" xmlns="http://www.w3.org/2000/svg"><path fill="#CCD6DD" d="m32 36-2-2-2 2-2-2-2 2-2-2-2 2-2-2-2 2-2-2-2 2-2-2-2 2-2-2-2 2V0l2 2 1.958-2L10 2l2.042-2L14 2l2.042-2L18 2l2.083-2L22 2l2.125-2L26 2l1.958-2L30 2l2-2z"/><path fill="#99AAB5" d="M19 17H9c-.55 0-1-.45-1-1s.45-1 1-1h10c.55 0 1 .45 1 1s-.45 1-1 1zm8 0h-4c-.55 0-1-.45-1-1s.45-1 1-1h4c.55 0 1 .45 1 1s-.45 1-1 1zm-8 4H9c-.55 0-1-.45-1-1s.45-1 1-1h10c.55 0 1 .45 1 1s-.45 1-1 1zm8 0h-4c-.55 0-1-.45-1-1s.45-1 1-1h4c.55 0 1 .45 1 1s-.45 1-1 1zm0 6H9c-.55 0-1-.45-1-1s.45-1 1-1h18c.55 0 1 .45 1 1s-.45 1-1 1zm0 4h-4c-.55 0-1-.45-1-1s.45-1 1-1h4c.55 0 1 .45 1 1s-.45 1-1 1z"/><circle cx="18" cy="8" r="4" fill="#99AAB5"/></svg><svg viewBox="0 0 36 36" id="1FA99" xmlns="http://www.w3.org/2000/svg"><circle cx="18" cy="19" r="17" fill="#F4900C"/><circle cx="18" cy="17" r="17" fill="#FFCC4D"/><circle cx="18" cy="18" r="14" fill="#FFE8B6"/><circle cx="18" cy="17" r="14" fill="#FFAC33"/><path fill="#FFE8B6" d="M9.543 10.856c0-.545.535-.763.535-.763l7.878-3.7 7.953 3.7s.548.122.548.767v.641H9.543v-.645z"/><path fill="#F4900C" d="M25.929 12.836c0-.584-.505-1.057-1.127-1.057H11.129c-.623 0-1.057.473-1.057 1.057 0 .397.204.739.529.92v.666h2.114v-.529h2.114v.529h2.114v-.529h2.114v.529h2.114v-.529h2.114v.529H25.4v-.693c.317-.188.529-.517.529-.893zM27.514 24a.793.793 0 0 1-.793.793H9.279a.793.793 0 1 1 0-1.586h17.443c.437 0 .792.355.792.793z"/><path fill="#F4900C" d="M26.457 12.2a.529.529 0 0 1-.529.529H10.071a.53.53 0 0 1 0-1.058l15.857.003a.527.527 0 0 1 .529.526zm-14.271.614h11.629V14H12.186z"/><path fill="#FFD983" d="M12.714 20.829c0 .584-.316 1.057-.705 1.057h-.705c-.389 0-.705-.473-.705-1.057v-8.014c0-.584.316-1.057.705-1.057h.705c.389 0 .705.473.705 1.057v8.014zm12.686 0c0 .584-.315 1.057-.705 1.057h-.705c-.389 0-.705-.473-.705-1.057v-8.014c0-.584.315-1.057.705-1.057h.705c.389 0 .705.473.705 1.057v8.014zm-8.457 0c0 .584-.316 1.057-.705 1.057h-.705c-.389 0-.705-.473-.705-1.057v-8.014c0-.584.316-1.057.705-1.057h.705c.389 0 .705.473.705 1.057v8.014zm4.228 0c0 .584-.316 1.057-.705 1.057h-.704c-.389 0-.705-.473-.705-1.057v-8.014c0-.584.316-1.057.705-1.057h.704c.389 0 .705.473.705 1.057v8.014z"/><path fill="#FFCC4D" d="M25.929 21.357c0 .584-.473 1.057-1.057 1.057H11.129a1.057 1.057 0 1 1 0-2.114h13.743c.583 0 1.057.473 1.057 1.057z"/><path fill="#FFD983" d="M26.986 22.414c0 .584-.473 1.057-1.057 1.057H10.071a1.057 1.057 0 1 1 0-2.114h15.857c.584 0 1.058.473 1.058 1.057z"/><path fill="#FFD983" d="M27.514 23.207a.793.793 0 0 1-.793.793H9.279a.793.793 0 1 1 0-1.586h17.443c.437 0 .792.355.792.793z"/><path fill="#FFCC4D" d="M25.929 12.286c0-.584-.505-1.057-1.127-1.057H11.129c-.623 0-1.057.473-1.057 1.057 0 .397.204.739.529.92v.666h2.114v-.529h2.114v.529h2.114v-.529h2.114v.529h2.114v-.529h2.114v.529H25.4v-.693c.317-.188.529-.517.529-.893z"/><path fill="#FFD983" d="M9.543 11.463c0-.545.535-.763.535-.763L17.956 7l7.953 3.7s.548.122.548.767v.291H9.543v-.295z"/><path fill="#FFAC33" d="M18 8.343s-5.455 2.571-5.999 2.803c-.545.231-.363.611.001.611h11.97c.562 0 .429-.429-.017-.661C23.509 10.865 18 8.343 18 8.343z"/><path fill="#FFD983" d="M26.457 11.757a.529.529 0 0 1-.529.529H10.071a.53.53 0 0 1 0-1.058l15.857.003a.527.527 0 0 1 .529.526z"/></svg></svg>