<?xml version="1.0" encoding="utf-8"?><svg viewBox="0 0 36 36" xmlns="http://www.w3.org/2000/svg" xmlns:xlink="http://www.w3.org/1999/xlink"><style>:root>svg{display:none}:root>svg:target{display:block}</style><svg viewBox="0 0 36 36" id="1F30D" xmlns="http://www.w3.org/2000/svg"><circle cx="18" cy="18" r="18" fill="#88C9F9"/><path fill="#5C913B" d="M25.716 1.756c-1.022.568-1.872 1.528-3.028 1.181-1.875-.562-4.375-1.812-6-.25s-2 3 0 2.938 3.375-2.438 4.375-1.438.749 1.813-1.625 2.125S14.5 7 13.125 7s-1.688.812-.75 1.688-.563.937-2.125 1.812.375 1.25 1.688 2 2.312-.188 2.875-1.438 2.981-2.75 3.99-2.562c1.01.188 1.01.688.822 1.562s.75.625.812-.375 1.188-1.75 2.062-1.812 1.625 1.188.625 1.812-2 1.125-.75 1.438 2.125 1.938.688 2.625-3.937 1.125-5.062.562-3.688-1.375-4.375-.938-1.062.89-1.875 1.195c-.812.305-4.125 1.805-4.188 3.743S7.438 22.438 8.75 22.5s4.5-.812 5.5-1.625 2.375-.625 2.812.312.125 1.5-.312 3 .286 2.25.987 3.562c.701 1.312 1.263 2.062 1.263 3s1 1.875 2.5.312 2.875-4.625 3.5-5.75 1.125-3.625 1.875-4.125 1.938-1.688 1.062-1.5-2.625-.062-3.062-1.312-2.312-3.625-1.438-3.875 1.875 1.39 2.25 2.164c.375.774.875 1.711 1.625 1.961s2.375-1.673 2.875-1.961c.5-.289.125-1.476-.875-1.351s-2.312 0-2.312-.624 1.25-1.438 2.25-1.25 1.75.5 2.375 1.25 1.875 2.125 2.375 3 .875 1 1.125-.562c.166-1.038.387-1.609.59-2.222-1.013-5.829-4.82-10.683-9.999-13.148z"/></svg><svg viewBox="0 0 36 36" id="1F30E" xmlns="http://www.w3.org/2000/svg"><circle cx="18" cy="18" r="18" fill="#88C9F9"/><path fill="#5C913B" d="M30.13 23.748c-1.017-.39-.836-.248-1.463-1.581-.627-1.332-1.007-1.761-2.417-1.917-1.411-.155-1.358-.045-1.75-.75-.392-.706-1.982.191-3 .584-1.021.392-.769 1.246-1.083 1.166a4.831 4.831 0 01-1.893-.907c-.784-.628.583-1.118.976-1.509.393-.393-.74-.179-1.133-.416-.393-.234-1.096.471-1.723-.158-.628-.627-.235-1.568-.313-2.352-.079-.785 1.018-.941 1.724-1.098.705-.156 1.253.001 1.253.941 0 .941.863 1.255.628.156s.235-1.411.55-1.96c.313-.549.862-1.334 1.567-2.51.706-1.176 1.177-.628 2.039-.544.863.085 1.098-.083 1.725-.004.625.079 0-.784.236-1.646.234-.862 1.097-.706 1.961-.47.862.235-.864-1.099-1.177-1.804-.315-.706-1.177 0-1.724-1.176-.553-1.176-1.324-1.937-2.03-2.042-.706-.106.225 1.494-.324 2.356-.551.862-1.395.727-2.26.727-.861 0-1.661-.727-1.033-1.825.626-1.097 1.823-.984 2.45-1.925.628-.94-2.23-.854-3.25-1.167-1.02-.314-2.244-.311-3.263.473-1.02.783-3.201 1.028-4.064 1.341-.862.313-1.017-.52-1.173-1.148-.07-.279-.388-.367-.836-.357a18.08 18.08 0 00-5.666 4.921c.237.807 1.385-.189 1.61-.414.235-.235 1.411.079 1.567.941.157.862.079 1.805-.234 2.589-.314.783.784 1.881 1.411 2.979.628 1.099 1.333 1.098 1.647 1.098.313 0 2.117.706 2.038 1.568-.078.863 1.647 1.646 2.353 2.195.706.551 1.152 1.092 2.068 1.25.917.158 1.989 1.657 2.459 1.815.361.12.972.697 1.341.876-.485.614-1.424 1.875-1.424 2.456 0 .786 1.025 2.021 1.417 2.334.391.312 1.517.55 1.75 1.333.236.784-.164 3.423-.868 4.128-.708.705-.965 2.372-.965 2.372s.249.541 1.083 0C21.839 34.07 23.383 32.37 24 32a20.768 20.768 0 003.417-2.583c1.098-1.019.7-1.733 1.25-2.75.549-1.019 1.259-.973 2.199-1.833.942-.864.284-.693-.736-1.086z"/></svg><svg viewBox="0 0 36 36" id="1F30F" xmlns="http://www.w3.org/2000/svg"><circle cx="18" cy="18" r="18" fill="#88C9F9"/><path fill="#5C913B" d="M2.812 25.375c-.062-1-.062-1.187-.062-2.375s.562-1 1.125-1.562.438-.625 1.375-1.241.438-1.321.375-1.696-.625-.063-1.563.061-.624-.312-1.187-.562-.812-.625-1.188-1.75-.438-1.438-.312-2.375.563-.063.625.937.938.625.938 1.25 1.25 1.312 1.562 1.5 1.188-.938 1.5-1.25.688-.75.812-1 1.688-.438 2-.438 1.062.938 1.062 1.375.375 1.625.688 2.312 1 .812 1.625 1.312.938.062.938.062-.25-1.062-.25-1.938.75-1.625.75-1.625 1.188.875 1.25 1.125 1 1.125 1.062 1.562.562 1 1.483 1.125.267-1.062.579-1.875.75-.938 1.312-1.062 1-.625 1.375-1.125 1.062-1.188 1-1.75-.25-.938-.5-1.625.75-.938 1.188-1.75 0 0 1-.25.562-.25.75-.625.312-.75.125-1.438-.875 0-1.562 0S22.938 7.75 23 7s.938-.562 1.562-.625.812.812 1 1 2.125-1.25 2.625-1.938-.437-.499-.187-.789-1.5-.349-2.188-.46-2.437-.188-3.124-.612-3.312-.104-4 .237-1.125-.029-1.438-.5-1.625-.235-2-.5-.75.437-1.25.625-.688.25-1.312-.125.187-.813-.688-1.125c-.586-.209-1.288-.087-2.38-.111C3.902 5.092 0 11.087 0 18c0 3.42.971 6.605 2.627 9.327.308-.518.231-1.217.185-1.952zm14.5-1.187c.438.062 1.688 0 .688-.812s-1.562-.188-1.438-1.125-.625-.938-.625-.938c0 .688-.5 1.438 0 2.125s.938.687 1.375.75z"/><path fill="#5C913B" d="M23.688 13.75c-1-.812-.25-.562-.125-1.5s-.625-.938-.625-.938c0 .688-.5 1.438 0 2.125s-1 1.25-.562 1.312 2.312-.187 1.312-.999zm-3.88 9.75c.62.688.38 0 1.192-.312s-.688-1-1.188-1.375-.997-.389-1.434.438c-.496.937.81.561 1.43 1.249zm7.317 1.25c-.312-.375-1-.562-1.75-.545-.75.018-.688-.83-1.438-.768s-1.286-.504-1.625-.679c-.737-.38-.25.491 0 1.446s1.188.232 2.062.732.938-.188 1.75.062 1.125.812 1.904.75-.59-.623-.903-.998zM25.5 27.5c-.312-.625-1.226-1.188-1.601-1.505s-.962-.424-1.462-.24-.812 0-1.062-.495-.688-.322-1.062-.26-1.875.688-2.75 1.125-1.273.817-1.847 1.375c-.898.874-.403.312 0 .875.403.562-.442 2.312-.504 3.312s1.602-.312 2.227-.438.441-.5.941-.875.825-.463 1.374.037c.549.5 1.268.963 1.268 1.525s1.979 1.5 2.729 1.125 1.188-1.125 1.875-1.75.438-1.812.625-2.562-.439-.624-.751-1.249z"/></svg><svg viewBox="0 0 36 36" id="1F310" xmlns="http://www.w3.org/2000/svg"><path fill="#3B88C3" d="M18 0C8.059 0 0 8.059 0 18s8.059 18 18 18 18-8.059 18-18S27.941 0 18 0zM2.05 19h3.983c.092 2.506.522 4.871 1.229 7H4.158a15.885 15.885 0 01-2.108-7zM19 8V2.081c2.747.436 5.162 2.655 6.799 5.919H19zm7.651 2c.754 2.083 1.219 4.46 1.317 7H19v-7h7.651zM17 2.081V8h-6.799C11.837 4.736 14.253 2.517 17 2.081zM17 10v7H8.032c.098-2.54.563-4.917 1.317-7H17zM6.034 17H2.05a15.9 15.9 0 012.107-7h3.104c-.705 2.129-1.135 4.495-1.227 7zm1.998 2H17v7H9.349c-.754-2.083-1.219-4.459-1.317-7zM17 28v5.919c-2.747-.437-5.163-2.655-6.799-5.919H17zm2 5.919V28h6.8c-1.637 3.264-4.053 5.482-6.8 5.919zM19 26v-7h8.969c-.099 2.541-.563 4.917-1.317 7H19zm10.967-7h3.982a15.87 15.87 0 01-2.107 7h-3.104c.706-2.129 1.136-4.494 1.229-7zm0-2c-.093-2.505-.523-4.871-1.229-7h3.104a15.875 15.875 0 012.107 7h-3.982zm.512-9h-2.503c-.717-1.604-1.606-3.015-2.619-4.199A16.034 16.034 0 0130.479 8zM10.643 3.801C9.629 4.985 8.74 6.396 8.023 8H5.521a16.047 16.047 0 015.122-4.199zM5.521 28h2.503c.716 1.604 1.605 3.015 2.619 4.198A16.031 16.031 0 015.521 28zm19.836 4.198c1.014-1.184 1.902-2.594 2.619-4.198h2.503a16.031 16.031 0 01-5.122 4.198z"/></svg><svg viewBox="0 0 36 36" id="1F5FA" xmlns="http://www.w3.org/2000/svg"><path fill="#CCD6DD" d="M12 7.607L3 5.196c-1.657-.444-3 .539-3 2.197v20c0 1.656 1.343 3.359 3 3.804l9 2.411V7.607zm12 22.786l9 2.411c1.656.443 3-.54 3-2.196v-20c0-1.657-1.344-3.36-3-3.804l-9-2.411v26z"/><path fill="#E1E8ED" d="M24 30.392l-12 3.215v-26l12-3.215z"/><path fill="#55ACEE" d="M12 9.607L4 7.463c-1.104-.296-2 .36-2 1.464v18c0 1.104.896 2.24 2 2.535l8 2.145v-22zm20-1.072l-8-2.144v22l8 2.144c1.104.296 2-.359 2-1.465v-18c0-1.103-.896-2.239-2-2.535z"/><path fill="#88C9F9" d="M24 28.392l-12 3.215v-22l12-3.215z"/><path fill="#5C913B" d="M12 21.506c-.268.006-.595.104-.845.145-.436.073-.329.517-.463.443a2.844 2.844 0 01-.812-.658c-.337-.394.25-.477.418-.622.168-.145-.316-.172-.485-.332-.169-.159-.471.104-.739-.276-.27-.376-.101-.79-.133-1.18-.034-.39.436-.341.739-.334.303.003.538.144.538.602 0 .456.37.708.269.146-.101-.561.101-.657.235-.89.134-.23.37-.55.672-1.04.221-.358.389-.283.606-.164v-3.345c-.055-.044-.11-.09-.165-.113-.303-.132.096.753-.139 1.109-.237.356-.598.193-.97.094-.369-.099-.713-.545-.443-1.007.268-.462.782-.268 1.051-.653.269-.385-.957-.672-1.394-.941-.438-.271-.963-.409-1.4-.146-.437.264-1.373.133-1.743.186-.37.054-.436-.369-.503-.693-.067-.322-.653-.329-1.257-.338-.606-.01-1.741.281-1.547 1.759.068.514.605.124.707.036.101-.088.605.2.671.637.068.439.035.887-.099 1.232-.137.345.336 1.006.604 1.612.269.605.573.686.707.723.135.036.908.587.875.996-.033.411.706.991 1.009 1.34.303.35.494.662.887.846.393.183.852 1.035 1.054 1.165.155.1.418.451.576.58-.208.242-.612.748-.612 1.029 0 .383.44 1.103.608 1.3.167.196.65.442.751.85.101.407-.07 1.646-.372 1.907-.304.262-.414 1.043-.414 1.043s.107.293.465.124c.309-.144.776-.566 1.094-.801v-6.371z"/><path fill="#77B255" d="M12.268 17.413c-.1.016-.187.012-.268.011v-3.345c.254.065.512.317.707.736.234.509.604.066.739.374.134.308.875.758.505.742-.371-.015-.741.008-.841.454-.102.448.168.794-.102.828-.27.033-.37.142-.74.2zm2.59 5.558c-.436-.074-.359-.023-.628-.599-.268-.577-.431-.743-1.036-.656-.605.087-.583.136-.751-.163-.072-.128-.241-.082-.443.031v6.37c.09-.114.17-.211.228-.267a13.37 13.37 0 001.466-1.646c.47-.621.3-.924.535-1.481.236-.558.541-.617.944-1.145.405-.53.122-.368-.315-.444zM24 15.731V9.417c-.04.004-.068.012-.11.015-.209.011-.482.135-.779.32-.024-.005-.046-.016-.07-.021-.896-.175-1.312 1.205-2.039 1.152-.729-.053-1.7-.344-2.332.514-.631.857-.777 1.53 0 1.294s1.312-1.425 1.7-1.089c.388.336.29.721-.632 1.105-.922.385-1.918.817-2.452.96-.534.143-.655.534-.292.822.364.288-.219.471-.826 1.02-.607.547.146.512.656.705.51.193.898-.323 1.117-.932.217-.608 1.158-1.521 1.55-1.544.392-.023.392.197.318.602-.013.071.001.103.011.138-.17.54-.31 1.03-.365 1.306a3.332 3.332 0 00-.027.595c-.086.004-.183.021-.248.001-.438-.129-1.434-.22-1.701.043-.267.265-.412.502-.728.723-.317.219-1.603 1.224-1.627 2.084-.025.859-.049 1.83.461 1.721.51-.109 1.749-.826 2.137-1.288.387-.463.921-.522 1.092-.156.17.369.048.649-.12 1.354-.171.708.11.963.381 1.468.273.504.491.775.491 1.189 0 .412.389.723.97-.123a7.14 7.14 0 00.536-.957c.409-.469.768-.923.758-1.096a13.53 13.53 0 01-.024-.624l.091-.22c.127-.293.241-.746.362-1.155a.17.17 0 01.02-.024c.237-.337.185-.353.58-.756.264-.27.254-.512.214-.678.105-.175.134-.28-.033-.235l-.016.004c-.002 0-.005.019-.006.014-.023-.149-.206.003-.501.148-.284.008-.566-.066-.668-.368-.133-.396-.602-.996-.639-1.336.003-.041.005-.077.01-.124a.165.165 0 01.069-.088.29.29 0 01.112-.035c.041.111.075.279.086.464.026.477.394.196.394.498 0 .303.53.492.661.548.037.016.094-.027.159-.098.031.011.06.033.093.037.292.031.922-.984 1.117-1.164.102-.095.104-.269.033-.394l.056-.025z"/><path fill="#5C913B" d="M27.634 20.221c-.053.44.184.201.606.705.423.508-.104.394-.289.316-.185-.08-.37-.131-.579-.518-.213-.391 0-.695 0-1.027 0 0 .316.084.262.524zm.362-.901c.389.166.114-.482.244-.841.132-.356.316-.368.555-.363.236.002.422-.191.581-.389.157-.199.448-.454.422-.733-.026-.279-.104-.482-.212-.843-.105-.36.316-.368.502-.711.184-.343 0 0 .421-.008.422-.008.238-.058.316-.218.08-.159.133-.327.054-.68-.078-.353-.37-.1-.66-.177-.289-.077.106-.425.132-.78.026-.356.397-.165.661-.125.263.039.342.484.421.597.081.112.895-.365 1.108-.641.211-.275-.186-.291-.079-.403.106-.111-.632-.337-.925-.469-.289-.133-1.028-.367-1.318-.649-.289-.283-1.396-.426-1.688-.337-.291.086-.476-.143-.606-.406-.131-.262-.686-.297-.844-.467-.158-.17-.316.127-.529.16-.21.035-.289.043-.554-.209-.263-.252.08-.371-.288-.621-.355-.238-.813-.182-1.71-.591v6.314c.157.014.309.036.364.051.131.035.448.573.448.784 0 .211.158.828.291 1.195.131.366.42.506.686.818.264.312.394.137.394.137s-.105-.544-.105-.965c0-.424.316-.701.316-.701s.5.558.528.685c.026.128.421.656.449.876.026.219.237.546.625.71zm2.092-2.068c.184.08.976.171.554-.334-.423-.506-.106-.299-.053-.738.053-.44-.264-.524-.264-.524 0 .332-.211.638 0 1.026.21.39-.423.49-.237.57zm2.004 5.371c-.131-.217-.421-.385-.738-.461-.315-.076-.29-.48-.606-.533-.316-.055-.544-.389-.686-.512-.312-.266-.106.209 0 .699.106.488.501.246.869.586.369.34.397.016.74.229.342.211.475.52.804.578.329.059-.25-.369-.383-.586zm-3.088-1.432c.262.402.159.043.504-.016.343-.059-.291-.561-.502-.799-.211-.238-.42-.301-.605.049-.21.399.342.364.603.766zm2.403 2.579c-.133-.338-.518-.713-.675-.91-.159-.193-.407-.312-.618-.279-.212.031-.343-.092-.448-.361-.106-.266-.29-.233-.449-.244-.157-.012-.791.119-1.161.23-.368.113-.537.252-.778.457-.382.32-.17.105 0 .424.168.318-.187 1.066-.213 1.543-.027.477.676.031.939.039.264.012.186-.189.396-.314.212-.125.349-.129.579.172.233.305.537.611.537.883 0 .27.834.947 1.151.852.316-.098.501-.408.791-.635.291-.225.186-.824.264-1.168.081-.344-.185-.354-.315-.689z"/></svg><svg viewBox="0 0 36 36" id="1F5FE" xmlns="http://www.w3.org/2000/svg"><path fill="#88C9F9" d="M36 32s0 4-4 4H4s-4 0-4-4V4c0-4 4-4 4-4h28c4 0 4 4 4 4v28z"/><g fill="#3E721D"><path d="M24 2c1 0 2 3 3 3s3 0 3 1-3 1-3 2-1 1-2 1-3 0-3-1 2 0 2-1-1-5 0-5zm-3 8c0-1 2-1 2-1s1 2 0 2-2-1-2-1zm2 2c-1 0-1 2-1 3s0 3-1 3-2 1-2 2-1 2-2 2-2 2-2 2-4 1-5 1-3 0-3 1-3 2-1 2 2-1 3-1h2s3-1 3 0 0 2 1 2 2-1 2-2 1-1 2-1 2 0 2-1 1-2 2-2 1-2 1-3 0-3 1-3 2-3 1-3-2 0-2-1-1-1-1-1z"/><path d="M8 30c0-1 0-2 1-2h3c1 0 1 0 0 1s-1 0-2 0 0 2-1 2-1-1-1-1zm-4 3c0-1 1-1 1-2s-1 0-1-1 1-1 2-1 1 1 1 2-1 1-1 2-1 1-1 1-1 0-1-1z"/></g></svg><svg viewBox="0 0 36 36" id="1F9ED" xmlns="http://www.w3.org/2000/svg"><circle cx="18" cy="18" r="18" fill="#F4900C"/><circle cx="18" cy="18" r="14.5" fill="#FFD983"/><circle cx="18" cy="18" r="13" fill="#F5F8FA"/><path fill="#CCD6DD" d="M18 8l1.531 6.304 5.54-3.375-3.375 5.54L28 18l-6.304 1.531 3.375 5.54-5.54-3.375L18 28l-1.531-6.304-5.54 3.375 3.375-5.54L8 18l6.304-1.531-3.375-5.54 5.54 3.375z"/><path fill="#292F33" d="M17.343 20.748l8.777 5.381-5.379-8.778z"/><path fill="#DD2E44" d="M18.657 15.267L9.879 9.886l5.38 8.779z"/><circle cx="18" cy="18.008" r="3.055" fill="#8899A6"/><circle cx="18" cy="18.008" r="1.648" fill="#F5F8FA"/></svg></svg>