<?xml version="1.0" encoding="utf-8"?><svg viewBox="0 0 36 36" xmlns="http://www.w3.org/2000/svg" xmlns:xlink="http://www.w3.org/1999/xlink"><style>:root>svg{display:none}:root>svg:target{display:block}</style><svg viewBox="0 0 36 36" id="1F54B" xmlns="http://www.w3.org/2000/svg"><path d="M18 0 0 5v29l18 2 18-2V5z"/><path fill="#292F33" d="m18 36 18-2V5L18 0z"/><path fill="#FFD983" d="M22.454 14.507v3.407l4.229.612V15.22zm7 1.181v3.239l3.299.478v-3.161zM18 13.756v3.513l1.683.244V14.04zm18 3.036-.539-.091v3.096l.539.078z"/><path fill="#FFAC33" d="M0 16.792v3.083l.539-.078v-3.096zm16.317-2.752v3.473L18 17.269v-3.513zm-13.07 2.204v3.161l3.299-.478v-3.239zm6.07-1.024v3.306l4.229-.612v-3.407z"/><path fill="#FFD983" d="M21.389 15.131v-.042c0-.421-.143-.763-.32-.763-.177 0-.32.342-.32.763v.042c-.208.217-.355.621-.355 1.103 0 .513.162.949.393 1.152.064.195.163.33.282.33s.218-.135.282-.33c.231-.203.393-.639.393-1.152-.001-.482-.147-.886-.355-1.103zm6.999 1.069v-.042c0-.421-.143-.763-.32-.763-.177 0-.32.342-.32.763v.042c-.208.217-.355.621-.355 1.103 0 .513.162.949.393 1.152.064.195.163.33.282.33s.218-.135.282-.33c.231-.203.393-.639.393-1.152 0-.481-.147-.885-.355-1.103zm6.017 1.03v-.039c0-.393-.134-.712-.299-.712-.165 0-.299.319-.299.712v.039c-.194.203-.331.58-.331 1.03 0 .479.151.886.367 1.076.059.182.152.308.263.308s.203-.126.263-.308c.215-.189.367-.597.367-1.076 0-.45-.136-.827-.331-1.03z"/><path fill="#FFAC33" d="M14.611 15.131v-.042c0-.421.143-.763.32-.763s.32.342.32.763v.042c.208.217.355.621.355 1.103 0 .513-.162.949-.393 1.152-.064.195-.163.33-.282.33s-.218-.135-.282-.33c-.231-.203-.393-.639-.393-1.152.001-.482.147-.886.355-1.103zM7.612 16.2v-.042c0-.421.143-.763.32-.763s.32.342.32.763v.042c.208.217.355.621.355 1.103 0 .513-.162.949-.393 1.152-.064.195-.163.33-.282.33s-.218-.135-.282-.33c-.231-.203-.393-.639-.393-1.152 0-.481.147-.885.355-1.103zm-6.017 1.03v-.039c0-.393.134-.712.299-.712s.299.319.299.712v.039c.194.203.331.58.331 1.03 0 .479-.151.886-.367 1.076-.059.182-.152.308-.263.308s-.204-.127-.264-.308c-.215-.189-.367-.597-.367-1.076.001-.45.137-.827.332-1.03zM0 11.146v3.5l18-3.268V7.614z"/><path fill="#FFD983" d="M18 7.614v3.764l18 3.268v-3.5z"/></svg><svg viewBox="0 0 36 36" id="1F54C" xmlns="http://www.w3.org/2000/svg"><path fill="#F4900C" d="M23 4.326c0 4.368-9.837 6.652-9.837 13.206 0 2.184 1.085 4.468 2.177 4.468h15.291c1.093 0 2.192-2.284 2.192-4.468C32.823 10.977 23 8.694 23 4.326z"/><path fill="#FFD983" d="M35 33.815C35 35.022 34.711 36 32.815 36h-19.66C11.26 36 11 35.022 11 33.815V22.894c0-1.206.26-1.894 2.156-1.894h19.66c1.895 0 2.184.688 2.184 1.894v10.921z"/><path fill="#FFD983" d="M23 34a2 2 0 0 1-2 2H3a2 2 0 0 1-2-2v-1a2 2 0 0 1 2-2h18a2 2 0 0 1 2 2v1z"/><path fill="#662113" d="M26 29c0-3-1.896-5-3-5s-3 2-3 5v7h6v-7zm-8 2.333c0-2-1.264-3.333-2-3.333s-2 1.333-2 3.333V36h4v-4.667zm14 0c0-2-1.264-3.333-2-3.333s-2 1.333-2 3.333V36h4v-4.667z"/><path fill="#FFD983" d="M9 34a2 2 0 0 1-2 2H5a2 2 0 0 1-2-2V8a2 2 0 0 1 2-2h2a2 2 0 0 1 2 2v26z"/><path fill="#F4900C" d="M5.995.326c0 1.837-2.832 2.918-2.832 5.675 0 .919.312 2 .627 2h4.402c.314 0 .631-1.081.631-2 0-2.757-2.828-3.838-2.828-5.675z"/><path fill="#FFAC33" d="M10 12a1 1 0 0 1-1 1H3a1 1 0 0 1 0-2h6a1 1 0 0 1 1 1zm0-4a1 1 0 0 1-1 1H3a1 1 0 0 1 0-2h6a1 1 0 0 1 1 1z"/></svg><svg viewBox="0 0 36 36" id="1F54D" xmlns="http://www.w3.org/2000/svg"><path fill="#A7A9AC" d="m26 9-8-8-8 8v27h16z"/><path fill="#292F33" d="M26 10a.997.997 0 0 1-.707-.293L18 2.414l-7.293 7.293a.999.999 0 1 1-1.414-1.414l8-8a.999.999 0 0 1 1.414 0l8 8A.999.999 0 0 1 26 10z"/><path fill="#D1D3D4" d="M11 36H4a2 2 0 0 1-2-2V20a2 2 0 0 1 2-2h5a2 2 0 0 1 2 2v16z"/><path fill="#67757F" d="M12 19.785a1.993 1.993 0 0 0-.514-1.914L7.95 14.336a2 2 0 0 0-2.828 0l-3.536 3.536a1.987 1.987 0 0 0-.514 1.914H12z"/><path fill="#D1D3D4" d="M2 20h9v1H2zm23 16h7a2 2 0 0 0 2-2V20a2 2 0 0 0-2-2h-5a2 2 0 0 0-2 2v16z"/><path fill="#67757F" d="M34.936 19.785a1.99 1.99 0 0 0-.515-1.914l-3.536-3.536a2 2 0 0 0-2.828 0l-3.535 3.536a1.99 1.99 0 0 0-.514 1.914h10.928z"/><path fill="#D1D3D4" d="M25 20h9v1h-9z"/><path fill="#292F33" d="M12 19.785a1 1 0 0 1-1 1H2a1 1 0 1 1 0-2h9a1 1 0 0 1 1 1zm23 0a1 1 0 0 1-1 1h-9a1 1 0 1 1 0-2h9a1 1 0 0 1 1 1z"/><path fill="#67757F" d="M17.799 20c-.693 0-1.33-.388-1.703-1.038l-.672-1.173h-1.581c-.714 0-1.34-.346-1.676-.926-.345-.597-.326-1.344.05-1.999l.765-1.335-.766-1.336c-.377-.657-.395-1.404-.049-2 .336-.579.962-.924 1.675-.924h1.581l.671-1.172c.375-.651 1.011-1.039 1.704-1.039.67 0 1.295.368 1.674.984l.757 1.227h1.855c.726 0 1.356.353 1.685.945.337.603.3 1.354-.102 2.006l-.809 1.31.808 1.309c.401.651.439 1.401.102 2.007-.329.591-.958.944-1.684.944H20.23l-.76 1.23c-.375.613-1.001.98-1.671.98z"/><path fill="#FFCC4D" d="M17.799 19c-.336 0-.64-.195-.836-.536l-3.878-6.768c-.2-.348-.219-.714-.052-1 .157-.271.453-.427.811-.427h8.242c.363 0 .658.157.811.431.161.288.133.651-.079.996l-4.196 6.799c-.199.32-.499.505-.823.505zm-3.812-7.735 3.814 6.658 4.108-6.656-7.922-.002z"/><path fill="#FFCC4D" d="M22.086 16.789h-8.242c-.358 0-.653-.155-.811-.427-.167-.288-.148-.652.052-1l3.878-6.769c.196-.34.5-.536.836-.536.323 0 .624.185.822.507l4.196 6.798c.212.344.24.706.079.995-.152.275-.447.432-.81.432zm-8.098-.998 7.922.002-4.108-6.658-3.814 6.656z"/><path fill="#67757F" d="M15 27.531h6V34h-6z"/><ellipse cx="18" cy="27.5" fill="#67757F" rx="3" ry="2.5"/><path fill="#D1D3D4" d="M10 34h16v2H10z"/><path fill="#67757F" d="M8 28.785c0 .828-.671-1-1.5-1s-1.5 1.828-1.5 1v-4.5a1.5 1.5 0 1 1 3 0v4.5zm23 0c0 .828-.672-1-1.5-1s-1.5 1.828-1.5 1v-4.5a1.5 1.5 0 0 1 3 0v4.5z"/></svg><svg viewBox="0 0 36 36" id="1F6D5" xmlns="http://www.w3.org/2000/svg"><path fill="#FF8044" d="M25 2.875 18 2v5.25l7-.875-2.8-1.75z"/><path fill="#C7521E" d="M0 36h36l-2-2H2z"/><path fill="#662113" d="M17.5 3c0-2 1-2 1 0 0 5 1 9 1 9h-3s1-4 1-9z"/><path fill="#C7521E" d="M28 29v-2l-4-1.938V21l-2-2h-.123s.732-3.967-1.377-5.449V12l-1-1h-3l-1 1v1.551C13.391 15.033 14.123 19 14.123 19H14l-2 2v4.062L8 27v2l-4 2v4l28 .037V31l-4-2z"/><path fill="#662113" d="M19.846 19h-3.692s-.615-5 .615-5h2.462c1.231 0 .615 5 .615 5z"/><path fill="#C7521E" d="M11.784 23.477v-.521l-.292-.292h-.063a12.441 12.441 0 0 1-.229-2.337c0-.584-.292-.584-.292 0 0 1.023-.143 1.902-.229 2.337h-.063l-.292.292v.521c-.465.474-.293 1.523-.293 1.523h2.045s.172-1.049-.292-1.523zm13.906 0v-.521l-.292-.292h-.063a12.441 12.441 0 0 1-.229-2.337c0-.584-.292-.584-.292 0 0 1.023-.143 1.902-.229 2.337h-.063l-.292.292v.521c-.465.474-.292 1.523-.292 1.523h2.045c-.001 0 .171-1.049-.293-1.523zm4 4v-.521l-.292-.292h-.063a12.441 12.441 0 0 1-.229-2.337c0-.584-.292-.584-.292 0 0 1.023-.143 1.902-.229 2.337h-.063l-.292.292v.521c-.465.474-.292 1.523-.292 1.523h2.045c-.001 0 .171-1.049-.293-1.523zm4 5v-.521l-.292-.292h-.063a12.441 12.441 0 0 1-.229-2.337c0-.584-.292-.584-.292 0 0 1.023-.143 1.902-.229 2.337h-.063l-.292.292v.521c-.465.474-.292 1.523-.292 1.523h2.045c-.001 0 .171-1.049-.293-1.523zm-25.906-5v-.521l-.292-.292h-.063a12.461 12.461 0 0 1-.229-2.337c0-.584-.292-.584-.292 0 0 1.023-.143 1.902-.229 2.337h-.064l-.292.292v.521C5.859 27.951 6.031 29 6.031 29h2.045s.172-1.049-.292-1.523zm-4 5v-.521l-.292-.292h-.063a12.461 12.461 0 0 1-.229-2.337c0-.584-.292-.584-.292 0 0 1.023-.143 1.902-.229 2.337h-.064l-.292.292v.521C1.859 32.951 2.031 34 2.031 34h2.045s.172-1.049-.292-1.523z"/><path fill="#FF8044" d="m15.5 12 1-1h3l1 1zM12 21l2-2h8l2 2zm-4 6 2-2h16l2 2zm-4 4 2-2h24l2 2zm-4 5 2-2h32l2 2z"/><path fill="#662113" d="M21 25h-6s0-4 1.5-4h3c1.5 0 1.5 4 1.5 4zm1 4h-8s0-2 2-2h4c2 0 2 2 2 2z"/><path fill="#292F33" d="M24 34H12s0-3 3-3h6c3 0 3 3 3 3z"/><path fill="#FFA06C" d="M21 27h-6a1 1 0 0 1 0-2h6a1 1 0 0 1 0 2zm1 4h-8a1 1 0 0 1 0-2h8a1 1 0 0 1 0 2zm2 5H12a1 1 0 0 1 0-2h12a1 1 0 0 1 0 2z"/><path fill="#FF8044" d="M21 31h1v3h-1zm-7 0h1v3h-1z"/></svg><svg viewBox="0 0 36 36" id="26E9" xmlns="http://www.w3.org/2000/svg"><path fill="#DD2E44" d="M9 9a2 2 0 0 0-4 0v24a2 2 0 0 0 4 0V9zm22 0a2 2 0 0 0-4 0v24a2 2 0 0 0 4 0V9z"/><path fill="#DD2E44" d="M36 16a2 2 0 0 1-2 2H2a2 2 0 0 1 0-4h32a2 2 0 0 1 2 2zm-1-9c0 1.104-.781 1.719-2 2 0 0-3 1-15 1S3 9 3 9c-1.266-.266-2-.896-2-2s.896-2 2-2h30a2 2 0 0 1 2 2z"/><path fill="#292F33" d="M35.906 4c0 1.104-.659 1.797-1.908 2 0 0-4 1-15.999 1C6.001 7 2.002 6 2.002 6 .831 5.812.109 5.114.109 4.01.109 2.905-.102 1 1.002 1c0 0 3.999 2 16.997 2s16.998-2 16.998-2c1.105 0 .909 1.895.909 3z"/><path fill="#DD2E44" d="M20 15a2 2 0 0 1-4 0V9a2 2 0 0 1 4 0v6z"/><path fill="#292F33" d="M11 34a2 2 0 0 1-2 2H5a2 2 0 0 1 0-4h4a2 2 0 0 1 2 2zm22 0a2 2 0 0 1-2 2h-4a2 2 0 0 1 0-4h4a2 2 0 0 1 2 2z"/></svg><svg viewBox="0 0 36 36" id="26EA" xmlns="http://www.w3.org/2000/svg"><path fill="#BCBEC0" d="M20 2h-1V1a1 1 0 1 0-2 0v1h-1a1 1 0 1 0 0 2h1v6a1 1 0 1 0 2 0V4h1a1 1 0 1 0 0-2z"/><path fill="#FFD983" d="m18 9-5.143 4H13v9h10v-9h.143z"/><path fill="#662113" d="M19.999 15A2 2 0 0 0 16 15v7h4l-.001-7z"/><path fill="#FFD983" d="M17.999 18 4 26v9a1 1 0 0 0 1 1h26a1 1 0 0 0 1-1v-9l-14.001-8z"/><path fill="#DD2E44" d="M31.998 27a.988.988 0 0 1-.495-.132l-13.504-7.717-13.504 7.717a.999.999 0 1 1-.992-1.736l14-8a.998.998 0 0 1 .992 0l14 8A.998.998 0 0 1 31.998 27zm-8.999-13a1 1 0 0 1-.624-.219l-4.376-3.5-4.374 3.5a1 1 0 0 1-1.25-1.562l4.999-4a1.001 1.001 0 0 1 1.25 0l5.001 4A1 1 0 0 1 22.999 14z"/><path fill="#662113" d="M12.999 31A2 2 0 1 0 9 31v5h4v-5h-.001zm7-2A2 2 0 0 0 16 29v7h4l-.001-7zm7 2A2 2 0 0 0 23 31v5h4l-.001-5z"/></svg></svg>