<?xml version="1.0" encoding="utf-8"?><svg viewBox="0 0 36 36" xmlns="http://www.w3.org/2000/svg" xmlns:xlink="http://www.w3.org/1999/xlink"><style>:root>svg{display:none}:root>svg:target{display:block}</style><svg viewBox="0 0 36 36" id="1F331" xmlns="http://www.w3.org/2000/svg"><path fill="#77B255" d="M22.911 14.398a17.496 17.496 0 00-2.88 2.422c-.127-4.245-1.147-9.735-6.772-12.423C12.146-1.658-.833 1.418.328 2.006c2.314 1.17 3.545 4.148 5.034 5.715 2.653 2.792 5.603 2.964 7.071.778 3.468 2.254 3.696 6.529 3.59 11.099-.012.505-.023.975-.023 1.402v14c0 1.104 4 1.104 4 0V23.51c.542-.954 2.122-3.505 4.43-5.294 1.586 1.393 4.142.948 6.463-1.495 1.489-1.567 2.293-4.544 4.607-5.715 1.221-.618-12.801-3.994-12.589 3.392z"/></svg><svg viewBox="0 0 36 36" id="1F332" xmlns="http://www.w3.org/2000/svg"><path fill="#662113" d="M22 33c0 2.209-1.791 3-4 3s-4-.791-4-3l1-9c0-2.209.791-2 3-2s3-.209 3 2l1 9z"/><path fill="#5C913B" d="M31.406 27.297C24.443 21.332 21.623 12.791 18 12.791c-3.623 0-6.443 8.541-13.405 14.506-2.926 2.507-1.532 3.957 2.479 3.667 3.576-.258 6.919-1.069 10.926-1.069s7.352.812 10.926 1.069c4.012.29 5.405-1.16 2.48-3.667z"/><path fill="#3E721D" d="M29.145 24.934C23.794 20.027 20.787 13 18 13c-2.785 0-5.793 7.027-11.144 11.934-4.252 3.898 5.572 4.773 11.144 0 5.569 4.773 15.396 3.898 11.145 0z"/><path fill="#5C913B" d="M29.145 20.959C23.794 16.375 20.787 9.811 18 9.811c-2.785 0-5.793 6.564-11.144 11.148-4.252 3.642 5.572 4.459 11.144 0 5.569 4.459 15.396 3.642 11.145 0z"/><path fill="#3E721D" d="M26.7 17.703C22.523 14.125 20.176 9 18 9c-2.174 0-4.523 5.125-8.7 8.703-3.319 2.844 4.35 3.482 8.7 0 4.349 3.482 12.02 2.844 8.7 0z"/><path fill="#5C913B" d="M26.7 14.726c-4.177-3.579-6.524-8.703-8.7-8.703-2.174 0-4.523 5.125-8.7 8.703-3.319 2.844 4.35 3.481 8.7 0 4.349 3.481 12.02 2.843 8.7 0z"/><path fill="#3E721D" d="M25.021 12.081C21.65 9.193 19.756 5.057 18 5.057c-1.755 0-3.65 4.136-7.021 7.024-2.679 2.295 3.511 2.809 7.021 0 3.51 2.81 9.701 2.295 7.021 0z"/><path fill="#5C913B" d="M25.021 9.839C21.65 6.951 19.756 2.815 18 2.815c-1.755 0-3.65 4.136-7.021 7.024-2.679 2.295 3.511 2.809 7.021 0 3.51 2.81 9.701 2.295 7.021 0z"/><path fill="#3E721D" d="M23.343 6.54C20.778 4.342 19.336 1.195 18 1.195c-1.335 0-2.778 3.148-5.343 5.345-2.038 1.747 2.671 2.138 5.343 0 2.671 2.138 7.382 1.746 5.343 0z"/><path fill="#5C913B" d="M23.343 5.345C20.778 3.148 19.336 0 18 0c-1.335 0-2.778 3.148-5.343 5.345-2.038 1.747 2.671 2.138 5.343 0 2.671 2.138 7.382 1.746 5.343 0z"/></svg><svg viewBox="0 0 36 36" id="1F333" xmlns="http://www.w3.org/2000/svg"><path fill="#662113" d="M22 33c0 2.209-1.791 3-4 3s-4-.791-4-3l1-9c0-2.209.791-2 3-2s3-.209 3 2l1 9z"/><path fill="#5C913B" d="M34 17c0 8.837-7.163 12-16 12-8.836 0-16-3.163-16-12C2 8.164 11 0 18 0s16 8.164 16 17z"/><g fill="#3E721D"><ellipse cx="6" cy="21" rx="2" ry="1"/><ellipse cx="30" cy="21" rx="2" ry="1"/><ellipse cx="10" cy="25" rx="2" ry="1"/><ellipse cx="14" cy="22" rx="2" ry="1"/><ellipse cx="10" cy="16" rx="2" ry="1"/><ellipse cx="7" cy="12" rx="2" ry="1"/><ellipse cx="29" cy="12" rx="2" ry="1"/><ellipse cx="14" cy="10" rx="2" ry="1"/><ellipse cx="22" cy="10" rx="2" ry="1"/><ellipse cx="26" cy="16" rx="2" ry="1"/><ellipse cx="18" cy="17" rx="2" ry="1"/><ellipse cx="22" cy="22" rx="2" ry="1"/><ellipse cx="18" cy="26" rx="2" ry="1"/><ellipse cx="26" cy="25" rx="2" ry="1"/></g></svg><svg viewBox="0 0 36 36" id="1F334" xmlns="http://www.w3.org/2000/svg"><path fill="#C1694F" d="M21.978 20.424a29.331 29.331 0 00-.247-2.325 30.78 30.78 0 00-1.885-6.93c-.527-1.299-.943-2.043-.943-2.043l-3.613.466s.417.87.868 2.575c.183.692.371 1.524.54 2.495.086.49.166 1.012.238 1.573.1.781.183 1.632.242 2.549.034.518.058 1.058.074 1.619.006.204.015.401.018.611a14.52 14.52 0 01-.118 1.989c-.074.6-.182 1.197-.311 1.789a26.225 26.225 0 01-.67 2.475 34.793 34.793 0 01-.655 1.84c-.344.891-.69 1.692-.989 2.359-.502 1.119-.871 1.863-.871 2.018 0 .49.35 1.408 2.797 2.02 3.827.956 4.196-.621 4.196-.621s.243-.738.526-2.192c.14-.718.289-1.605.424-2.678.081-.642.156-1.348.222-2.116a61.85 61.85 0 00.22-4.864c.002-.246.008-.484.008-.737 0-.64-.03-1.261-.071-1.872z"/><path fill="#D99E82" d="M18.306 30.068c-1.403-.244-2.298-.653-2.789-.959-.344.891-.69 1.692-.989 2.359.916.499 2.079.895 3.341 1.114.729.127 1.452.191 2.131.191.414 0 .803-.033 1.176-.08.14-.718.289-1.605.424-2.678-.444.157-1.548.357-3.294.053zm1.06-4.673c-1.093-.108-1.934-.348-2.525-.602a26.225 26.225 0 01-.67 2.475c.864.326 1.881.561 2.945.666.429.042.855.064 1.27.064.502 0 .978-.039 1.435-.099.068-.8.125-1.667.165-2.605-.628.135-1.509.21-2.62.101zm.309-2.133c.822 0 1.63-.083 2.366-.228.002-.246.008-.484.008-.737 0-.641-.029-1.262-.071-1.873-.529.138-1.285.272-2.352.286-1.084-.005-1.847-.155-2.374-.306.006.204.015.401.018.611a14.52 14.52 0 01-.118 1.989c.763.161 1.605.253 2.461.257l.062.001zm-.249-4.577a12.08 12.08 0 002.304-.585 30.343 30.343 0 00-.485-2.513c-.496.204-1.199.431-2.181.572a9.03 9.03 0 01-2.129.077c.1.781.183 1.632.242 2.549.152.006.29.029.446.029.588.001 1.2-.043 1.803-.129zm1.271-5.116a30.223 30.223 0 00-.852-2.4 9.452 9.452 0 01-1.737.659 9.23 9.23 0 01-1.951.339c.183.692.371 1.524.54 2.495a12.42 12.42 0 002.094-.376c.679-.188 1.31-.44 1.906-.717z"/><path fill="#3E721D" d="M32.61 4.305c-.044-.061-4.48-5.994-10.234-3.39-2.581 1.167-4.247 3.074-4.851 5.535-1.125-1.568-2.835-2.565-5.093-2.968C6.233 2.376 2.507 9.25 2.47 9.32c-.054.102-.031.229.056.305s.217.081.311.015c.028-.02 2.846-1.993 7.543-1.157 4.801.854 8.167 1.694 8.201 1.702a.254.254 0 00.245-.073c.032-.035 3.22-3.46 6.153-4.787 4.339-1.961 7.298-.659 7.326-.646a.252.252 0 00.298-.07.246.246 0 00.007-.304z"/><path fill="#5C913B" d="M27.884 7.63c-4.405-2.328-7.849-1.193-9.995.22-2.575-.487-7.334-.459-11.364 4.707-4.983 6.387-.618 14.342-.573 14.422a.376.376 0 00.689-.086c.015-.054 1.527-5.52 5.35-10.118 2.074-2.496 4.55-4.806 6.308-6.34 1.762.298 4.327.947 6.846 2.354 4.958 2.773 7.234 7.466 7.257 7.513a.372.372 0 00.379.212.377.377 0 00.325-.287c.02-.088 1.968-8.8-5.222-12.597z"/></svg><svg viewBox="0 0 36 36" id="1F335" xmlns="http://www.w3.org/2000/svg"><path fill="#77B255" d="M30 4a4 4 0 00-4 4v9.125c0 1.086-.887 1.96-2 2.448V6a6 6 0 00-12 0v17.629c-1.122-.475-2-1.371-2-2.504V16a4 4 0 00-8 0v7c0 2.209 1.75 3.875 3.375 4.812 1.244.718 4.731 1.6 6.625 1.651V33c0 3.313 12 3.313 12 0v-7.549c1.981-.119 5.291-.953 6.479-1.639C32.104 22.875 34 21.209 34 19V8a4 4 0 00-4-4z"/><g fill="#3E721D"><circle cx="12" cy="6" r="1"/><circle cx="23" cy="3" r="1"/><circle cx="21" cy="9" r="1"/><circle cx="14" cy="16" r="1"/><circle cx="20" cy="20" r="1"/><circle cx="13" cy="26" r="1"/><circle cx="5" cy="27" r="1"/><circle cx="9" cy="20" r="1"/><circle cx="2" cy="18" r="1"/><circle cx="34" cy="8" r="1"/><circle cx="28" cy="11" r="1"/><circle cx="32" cy="16" r="1"/><circle cx="29" cy="24" r="1"/><circle cx="22" cy="30" r="1"/></g></svg><svg viewBox="0 0 36 36" id="1F33E" xmlns="http://www.w3.org/2000/svg"><path fill="#FFCC4D" d="M21.388.62c-1.852 0-4.235 1.849-6.22 4.826-2.322 3.483-1.069 5.989-.062 8.002.155.31.459.517.805.549.029.001.059.003.089.003a1 1 0 00.8-.4c2.394-3.193 6.211-8.196 6.907-8.893A.997.997 0 0024 4C24 1.508 22.65.62 21.388.62zm2.378 8.995c-1.21 0-2.575 1.132-4.565 3.785-2.124 2.831-2.461 5.313-1.095 8.047a1 1 0 001.663.194c1.719-2.063 5.173-6.168 5.938-6.934A1 1 0 0026 14c0-1.085 0-4.385-2.234-4.385z"/><path fill="#77B255" d="M29.874 11.517a.998.998 0 00-1.359-.385c-7.171 3.983-13.783 14.15-16.367 19.609.838-10.195 5.569-20.044 13.559-28.034a.999.999 0 10-1.414-1.414C16.33 9.256 11.466 19.01 10.288 29.174c-.674-5.697-.978-13.91 1.625-19.768a1 1 0 10-1.827-.813c-1.326 2.983-1.945 6.501-2.162 10.009C7.04 16.718 6.001 15 4.472 15h-.046c-.91 0-1.691.466-2.321 1.726-.247.494-.047.922.447 1.169a1 1 0 001.342-.447c.311-.622.525-.77.521-.792.636.196 1.744 2.696 2.162 3.642.196.443.374.842.527 1.15a.987.987 0 00.728.529c.026 4.957.698 9.53 1.163 12.091l.02.11a1.002 1.002 0 001.163.806.982.982 0 00.331-.132c.147.086.308.148.491.148s.344-.062.492-.147a.939.939 0 00.482.147H12c.53 0 .971-.448 1-.98.057-1.037 2.494-6.014 6.143-11.043a.973.973 0 00.305-.082c.244-.122.517-.272.808-.433.934-.517 2.494-1.38 3.106-1.02.149.088.638.535.638 2.558a1 1 0 102 0c0-2.236-.53-3.636-1.622-4.28-.783-.461-1.668-.424-2.54-.174 2.32-2.714 4.938-5.165 7.647-6.67a.998.998 0 00.389-1.359z"/></svg><svg viewBox="0 0 36 36" id="1F33F" xmlns="http://www.w3.org/2000/svg"><path fill="#77B255" d="M20.917 22.502c-2.706-.331-3.895-1.852-6.273-4.889 3.039-2.376 4.559-3.565 7.266-3.235 2.71.332 5.25 2.016 6.273 4.889-1.683 2.543-4.557 3.563-7.266 3.235zm-5.959 8.814c-2.549-.187-3.733-1.553-6.098-4.288 2.735-2.364 4.102-3.547 6.652-3.364 2.551.185 5.009 1.644 6.098 4.287-1.459 2.458-4.1 3.548-6.652 3.365zm-6.22-15.707c1.338 1.631 1.191 3.117.898 6.088-2.97-.294-4.456-.44-5.795-2.071-1.339-1.634-1.861-3.935-.898-6.088 2.301-.524 4.456.439 5.795 2.071zm21.116-5.448c-2.435 1.02-4.16.314-7.613-1.097 1.411-3.453 2.118-5.18 4.549-6.203 2.434-1.021 5.378-.826 7.612 1.096-.194 2.944-2.117 5.181-4.548 6.204zM17.103 6.608c.874 2.869-.124 4.742-2.119 8.488-3.745-1.996-5.619-2.994-6.494-5.864-.876-2.872-.315-6.18 2.118-8.49 3.308.561 5.619 2.993 6.495 5.866z"/><path fill="#A6D388" d="M8.49 9.232c.862 2.828 2.702 3.843 6.338 5.781v-.005c-.07-2.521-2.733-10.876-4.267-14.214C8.172 3.102 7.62 6.381 8.49 9.232zm-5.592 4.429c-.89 2.118-.371 4.362.943 5.965 1.34 1.632 2.826 1.777 5.795 2.071-.997-1.937-4.911-6.388-6.738-8.036z"/><path fill="#5C913B" d="M21.91 14.378c-2.563-.312-4.077.75-6.808 2.879 1.746.105 8.786.745 13.06 2.037.006-.01.015-.017.021-.027-1.023-2.873-3.563-4.557-6.273-4.889zm-.304 13.565c-1.091-2.637-3.545-4.094-6.094-4.279-2.5-.179-3.87.961-6.498 3.232 2.767-.305 7.905-.87 12.592 1.047z"/><path fill="#A6D388" d="M22.421 9.137c3.327 1.359 5.043 2.024 7.432 1.024 2.419-1.018 4.332-3.239 4.542-6.16-3.922.761-10.391 4.15-11.974 5.136z"/><path fill="#A06253" d="M4.751 35.061c-.584-.091-1.363-.831-1.273-1.416.546-3.562 2.858-12.168 18.298-24.755.458-.375.976-.659 1.364-.212.391.447-.052.95-.498 1.339C9.354 21.587 7.128 30.751 6.619 34.082c-.091.585-1.283 1.067-1.868.979z"/></svg><svg viewBox="0 0 36 36" id="1F340" xmlns="http://www.w3.org/2000/svg"><path fill="#77B255" d="M32.551 18.852c-2.093-1.848-6.686-3.264-10.178-3.84 3.492-.577 8.085-1.993 10.178-3.839 2.014-1.776 2.963-2.948 2.141-4.722-.566-1.219-2.854-1.333-4.166-2.491C29.214 2.802 29.083.783 27.7.285c-2.01-.726-3.336.114-5.347 1.889-2.094 1.847-3.698 5.899-4.353 8.98-.653-3.082-2.258-7.134-4.351-8.981C11.634.397 10.308-.441 8.297.285c-1.383.5-1.512 2.518-2.823 3.675S1.872 5.234 1.308 6.454c-.823 1.774.129 2.943 2.14 4.718 2.094 1.847 6.688 3.263 10.181 3.84-3.493.577-8.087 1.993-10.181 3.84-2.013 1.775-2.963 2.945-2.139 4.721.565 1.219 2.854 1.334 4.166 2.49 1.311 1.158 1.444 3.178 2.827 3.676 2.009.727 3.336-.115 5.348-1.889 1.651-1.457 2.997-4.288 3.814-6.933-.262 4.535.528 10.591 3.852 14.262 1.344 1.483 2.407.551 2.822.187.416-.365 1.605-1.414.186-2.822-3.91-3.883-5.266-7.917-5.628-11.14.827 2.498 2.107 5.077 3.657 6.446 2.012 1.775 3.339 2.615 5.351 1.889 1.382-.5 1.512-2.52 2.822-3.676 1.312-1.158 3.602-1.273 4.166-2.494.822-1.774-.13-2.944-2.141-4.717z"/></svg><svg viewBox="0 0 36 36" id="1F341" xmlns="http://www.w3.org/2000/svg"><path fill="#DD2E44" d="M36 20.917c0-.688-2.895-.5-3.125-1s3.208-4.584 2.708-5.5-5.086 1.167-5.375.708c-.288-.458.292-3.5-.208-3.875s-5.25 4.916-5.917 4.292c-.666-.625 1.542-10.5 1.086-10.698-.456-.198-3.419 1.365-3.793 1.282C21.002 6.042 18.682 0 18 0s-3.002 6.042-3.376 6.125c-.374.083-3.337-1.48-3.793-1.282-.456.198 1.752 10.073 1.085 10.698C11.25 16.166 6.5 10.875 6 11.25s.08 3.417-.208 3.875c-.289.458-4.875-1.625-5.375-.708s2.939 5 2.708 5.5-3.125.312-3.125 1 8.438 5.235 9 5.771c.562.535-2.914 2.802-2.417 3.229.576.496 3.839-.83 10.417-.957V35a1 1 0 102 0v-6.04c6.577.127 9.841 1.453 10.417.957.496-.428-2.979-2.694-2.417-3.229.562-.536 9-5.084 9-5.771z"/></svg><svg viewBox="0 0 36 36" id="1F342" xmlns="http://www.w3.org/2000/svg"><path fill="#D99E82" d="M14 20c0 4.418-2 12.562-13.062 13C3.562 29.125 0 24.418 0 20c0-4.418 2.582-8 7-8s7 3.582 7 8z"/><path fill="#C1694F" d="M7.997 21.582c0-.028.003-.053.003-.082V18h.542c2.93 0 5.449 2.5 5.449 2.5 0-.553-2.157-4.5-5.741-4.5H8V9a1 1 0 00-2 0v7h-.541C1.876 16 .015 19.947.015 20.5c0 0 2.223-2.5 5.152-2.5H6v2.042c0 .393-.02.749-.032 1.12l-.431-.009C1.954 21.083 1.011 24.52 1 25.072c0 0 1.277-1.983 4.206-1.925l.634.013a22.981 22.981 0 01-.453 2.837c-1.737.379-3.27 1.81-3.36 2.197 0 0 1.87-.487 2.864-.423C3.401 32.095.938 33 .938 33c.371 0 3.43-.973 5.398-4.45l.379.179c.82.489 1.745 2.217 1.745 2.217.186-.396.138-2.914-1.294-4.241.321-.905.565-1.931.702-3.094 2.711.79 4.223 3.659 4.223 3.659.128-.53-.741-4.749-4.094-5.688z"/><path fill="#D99E82" d="M15.675 17.283c0 6.339 2.87 18.027 18.745 18.655-3.767-5.56 1.346-12.315 1.346-18.655 0-6.341-3.706-11.48-10.045-11.48-6.341-.001-10.046 5.139-10.046 11.48z"/><path fill="#C1694F" d="M28.296 21.8c4.201-.084 6.034 2.762 6.034 2.762-.017-.793-1.367-5.725-6.511-5.624l-.792.016A52.437 52.437 0 0127 17.343V15h1.349c4.205 0 7.394 3.023 7.394 3.023 0-.793-2.668-6.023-7.811-6.023H27V1.498c0-.792-.708-1.435-1.5-1.435-.793 0-1.5.643-1.5 1.435V12h-.073c-5.144 0-8.238 5.229-8.238 6.023 0 0 3.616-3.023 7.821-3.023H24v4.435c0 .072.004.14.005.211-4.573 1.502-5.77 7.325-5.589 8.068 0 0 2.062-3.917 5.771-5.163.209 1.724.586 3.239 1.077 4.566-1.843 1.948-1.896 5.322-1.638 5.872 0 0 1.324-2.479 2.503-3.181l.323-.152c2.846 4.915 7.217 6.281 7.746 6.281 0 0-3.507-1.288-5.625-7.495 1.37-.165 4.282.598 4.282.598-.131-.567-2.44-2.723-5.012-3.2a33.693 33.693 0 01-.632-4.02l1.085-.02z"/></svg><svg viewBox="0 0 36 36" id="1F343" xmlns="http://www.w3.org/2000/svg"><path fill="#A6D388" d="M6.401 28.55c5.006 5.006 16.502 11.969 29.533-.07-7.366-1.417-8.662-10.789-13.669-15.794-5.006-5.007-11.991-6.139-16.998-1.133-5.006 5.006-3.873 11.99 1.134 16.997z"/><path fill="#77B255" d="M24.684 29.81c6.128 1.634 10.658-.738 11.076-1.156 0 0-3.786 1.751-10.359-1.476.952-1.212 3.854-2.909 3.854-2.909-.553-.346-4.078-.225-6.485 1.429a37.028 37.028 0 01-3.673-2.675l.84-.871c3.25-3.384 6.944-2.584 6.944-2.584-.638-.613-5.599-3.441-9.583.7l-.613.638a54.727 54.727 0 01-1.294-1.25l-1.85-1.85 1.064-1.065c3.321-3.32 8.226-3.451 8.226-3.451-.626-.627-6.863-2.649-10.924 1.412l-.736.735-8.292-8.294c-.626-.627-1.692-.575-2.317.05-.626.626-.677 1.691-.051 2.317l8.293 8.293-.059.059C4.684 21.924 6.37 28.496 6.997 29.123c0 0 .468-5.242 3.789-8.562l.387-.388 3.501 3.502c.057.057.113.106.17.163-2.425 4.797 1.229 10.34 1.958 10.784 0 0-1.465-4.723.48-8.635 1.526 1.195 3.02 2.095 4.457 2.755.083 2.993 2.707 5.7 3.344 5.931 0 0-.911-3.003-.534-4.487l.135-.376z"/><path fill="#5DADEC" d="M22.083 10a1.001 1.001 0 01-.375-1.927c.166-.068 4.016-1.698 4.416-6.163a1 1 0 111.992.178c-.512 5.711-5.451 7.755-5.661 7.839a.978.978 0 01-.372.073zm5 4a1 1 0 01-.334-1.942c.188-.068 4.525-1.711 5.38-8.188a.99.99 0 011.122-.86.998.998 0 01.86 1.122c-1.021 7.75-6.468 9.733-6.699 9.813-.109.037-.22.055-.329.055zm3.001 6a1.001 1.001 0 01-.483-1.876c.027-.015 2.751-1.536 3.601-3.518a1 1 0 011.837.788c-1.123 2.62-4.339 4.408-4.475 4.483a1.003 1.003 0 01-.48.123z"/></svg><svg viewBox="0 0 36 36" id="1FAB4" xmlns="http://www.w3.org/2000/svg"><path fill="#C1694F" d="M17.094 24.242H7.56s1.653 6.469 4.254 9.581c1.771 2.118 4.75 2.282 5.81 2.282 2.118 0 4.818-.174 6.589-2.294 3.087-3.691 4.534-9.569 4.534-9.569H17.094z"/><path fill="#A04E3C" d="M27.628 27.666c.458-1.18.771-2.184.947-2.795a2.457 2.457 0 00-.432-.629H8.164a2.452 2.452 0 00-.432.628c.174.608.479 1.608.892 2.753 1.535 1.364 4.723 2.458 9.529 2.458 4.754 0 7.922-1.072 9.475-2.415z"/><ellipse cx="18" cy="19.716" fill="#A04E3C" rx="11.768" ry="2.716"/><path fill="#662113" d="M7.819 21.073c2.036.811 5.828 1.358 10.181 1.358s8.145-.547 10.181-1.358c-2.036-.811-5.828-1.358-10.181-1.358s-8.145.548-10.181 1.358z"/><g fill="#3E721D"><path d="M18.733 23.524a.532.532 0 01-.525-.452c-1.074-7.082.905-17.425 5.465-20.944a.533.533 0 01.651.843c-4.145 3.198-6.091 13.166-5.064 19.941a.53.53 0 01-.527.612z"/><path d="M18.745 15.719c.061.401 1.265.552 2.69.335 1.424-.216 2.53-.717 2.469-1.118-.061-.401-1.265-.552-2.69-.335-1.425.215-2.53.716-2.469 1.118zm.095 1.739c.061.401 1.358.537 2.897.304 1.539-.234 2.737-.748 2.676-1.15-.061-.401-1.358-.537-2.897-.304-1.539.234-2.737.748-2.676 1.15z"/><ellipse cx="21.824" cy="18.734" rx="3.083" ry=".735" transform="rotate(-8.632 21.821 18.732)"/><path d="M19.095 14.226c.103.393 1.236.435 2.531.095 1.294-.34 2.26-.935 2.157-1.327-.103-.393-1.236-.435-2.531-.095-1.294.341-2.26.935-2.157 1.327zm.178-1.765c.121.388 1.149.411 2.298.053 1.148-.358 1.98-.963 1.859-1.35-.121-.388-1.149-.411-2.298-.053-1.148.358-1.98.963-1.859 1.35zm.105-1.584c.127.325 1.068.263 2.102-.14 1.034-.403 1.77-.993 1.643-1.318-.127-.325-1.068-.263-2.102.14-1.034.402-1.769.992-1.643 1.318zm.802-1.738c.113.291.898.258 1.752-.075.854-.332 1.455-.838 1.342-1.129-.113-.291-.898-.258-1.752.075-.855.333-1.456.838-1.342 1.129zm.652-1.918c.05.308.718.456 1.493.331.774-.126 1.361-.478 1.311-.786-.05-.308-.718-.456-1.493-.331-.774.125-1.361.477-1.311.786zm.786-1.276c.052.322.787.47 1.641.331.854-.139 1.504-.512 1.452-.834-.052-.322-.787-.47-1.641-.331-.854.139-1.504.512-1.452.834zm1.152-1.441c.047.287.714.417 1.491.291.777-.126 1.369-.461 1.322-.748-.047-.287-.714-.417-1.491-.291-.776.127-1.368.462-1.322.748zm.949-1.358c.041.251.603.369 1.256.263.653-.106 1.149-.396 1.108-.647-.041-.251-.603-.369-1.256-.263s-1.149.396-1.108.647z"/><path d="M24.431 2.351c.129.219.696.124 1.266-.212.57-.336.927-.786.798-1.005-.129-.219-.696-.124-1.266.212-.57.335-.927.786-.798 1.005z"/><path d="M24.066 2.291c.244.073.596-.381.786-1.014.19-.634.147-1.206-.096-1.28-.244-.073-.596.381-.786 1.014-.19.634-.147 1.207.096 1.28zm-10.796 13.2c0 .406 1.168.735 2.609.735s2.609-.329 2.609-.735c0-.406-1.168-.735-2.609-.735s-2.609.329-2.609.735zm-.336 1.458c-.039.404 1.092.844 2.526.981 1.434.138 2.628-.078 2.667-.482.039-.404-1.092-.844-2.526-.981-1.434-.138-2.628.078-2.667.482zm-.537 1.653c-.039.404 1.22.856 2.811 1.009 1.591.153 2.913-.051 2.952-.455.039-.404-1.22-.856-2.811-1.009-1.592-.153-2.913.051-2.952.455zm1.64-4.934c-.034.405.968.818 2.237.924 1.269.106 2.325-.137 2.359-.541.034-.405-.968-.818-2.237-.924s-2.325.136-2.359.541zm.778-1.404c-.018.406.907.776 2.065.828 1.159.051 2.113-.236 2.131-.641.018-.406-.907-.776-2.065-.828-1.159-.052-2.113.235-2.131.641z"/><path d="M15.825 10.677c-.068.352.654.788 1.612.973.958.185 1.79.049 1.858-.303.068-.352-.654-.788-1.612-.973-.958-.185-1.79-.049-1.858.303zm.464-1.802c-.135.333.489.9 1.393 1.267.904.367 1.747.395 1.882.063.135-.333-.488-.9-1.393-1.267-.905-.367-1.747-.395-1.882-.063zm.381-2.029c-.189.275.338.966 1.178 1.543.84.577 1.673.821 1.863.546.189-.275-.338-.966-1.178-1.543s-1.674-.821-1.863-.546zm1.131-.878c-.189.275.251.906.983 1.409s1.479.687 1.668.412c.189-.275-.251-.906-.983-1.409s-1.479-.687-1.668-.412zm.7-1.543c-.233.239.094.936.731 1.555.637.619 1.341.927 1.574.688.233-.239-.094-.936-.731-1.555-.636-.619-1.341-.927-1.574-.688zm.914-1.103c-.233.239.054.896.64 1.466s1.25.839 1.483.599c.233-.239-.054-.896-.64-1.466s-1.25-.838-1.483-.599zm.94-.972c-.229.235.018.848.553 1.367s1.153.75 1.382.515c.229-.235-.018-.848-.553-1.367s-1.153-.751-1.382-.515z"/><ellipse cx="22.186" cy="2.439" rx=".595" ry="1.349" transform="rotate(-32.542 22.187 2.44)"/><path d="M22.804.537c-.261.09-.305.65-.097 1.251.208.6.588 1.014.849.923s.305-.65.097-1.251c-.208-.6-.588-1.013-.849-.923z"/></g><path fill="#3E721D" d="M16.885 23.63a.534.534 0 01-.453-.576c.753-8.173-2.365-13.97-8.781-16.321a.53.53 0 01-.316-.682.529.529 0 01.683-.317c6.912 2.532 10.277 8.718 9.475 17.418a.532.532 0 01-.608.478z"/><path fill="#3E721D" d="M16.664 16.81c-.008.406-1.181.713-2.622.686s-2.602-.378-2.595-.784c.008-.406 1.182-.713 2.622-.687 1.441.028 2.602.379 2.595.785zm-.002 1.758c-.008.406-1.181.713-2.622.687s-2.912-.478-2.904-.884c.007-.406 1.491-.613 2.932-.586 1.44.026 2.601.377 2.594.783z"/><path fill="#5C913B" d="M17.077 20.098c-.008.406-1.181.713-2.622.687-1.44-.027-2.912-.478-2.904-.884.008-.406 1.491-.613 2.932-.586s2.601.378 2.594.783z"/><path fill="#3E721D" d="M16.499 15.517c-.054.402-1.173.584-2.5.405-1.326-.179-2.358-.65-2.304-1.052.054-.402 1.174-.584 2.5-.405 1.327.179 2.358.65 2.304 1.052zm-.744-1.769c-.054.402-1.064.599-2.256.438-1.192-.16-2.114-.617-2.06-1.019s1.064-.599 2.256-.438c1.192.161 2.114.617 2.06 1.019z"/><path fill="#3E721D" d="M15.314 12.1c.004.349-.893.642-2.002.654-1.11.012-2.012-.261-2.016-.61-.004-.349.893-.642 2.002-.654 1.109-.012 2.012.261 2.016.61zm-1.392-1.313c.003.312-.737.574-1.653.584-.917.01-1.662-.235-1.666-.547-.003-.312.737-.574 1.653-.584.917-.011 1.663.234 1.666.547zM12.601 9.25c.068.305-.496.691-1.262.863-.765.172-1.441.064-1.51-.24-.068-.305.496-.691 1.262-.863.766-.172 1.442-.065 1.51.24zm-1.204-.891c.071.318-.555.73-1.399.919-.844.19-1.587.086-1.658-.232s.555-.73 1.399-.919c.844-.19 1.586-.086 1.658.232zM9.79 7.452c.064.283-.507.653-1.275.826-.767.172-1.441.082-1.505-.201-.064-.284.507-.653 1.275-.826.768-.172 1.442-.082 1.505.201zm-1.387-.907c.056.248-.422.567-1.068.712-.645.145-1.214.062-1.269-.187-.056-.248.422-.567 1.067-.712.646-.145 1.214-.061 1.27.187z"/><path fill="#3E721D" d="M7.446 6.073c-.038.251-.6.375-1.254.275s-1.153-.384-1.114-.636c.038-.251.6-.375 1.254-.275.653.1 1.152.385 1.114.636z"/><path fill="#5C913B" d="M7.762 5.882c-.198.159-.694-.131-1.107-.648-.413-.517-.587-1.065-.388-1.223.199-.159.695.131 1.108.648.412.517.586 1.064.387 1.223zm14.18 9.727c.065.401-1.036.912-2.458 1.141-1.422.229-2.628.09-2.692-.311-.065-.401 1.036-.912 2.458-1.141 1.422-.229 2.628-.09 2.692.311zm.884 1.279c.065.401-1.478 1.199-2.901 1.429-1.422.229-2.628.09-2.693-.311-.065-.401 1.036-.912 2.458-1.141 1.424-.229 3.071-.378 3.136.023zm.553 1.679c.065.401-1.877 1.301-3.299 1.53-1.422.229-2.628.09-2.692-.311-.065-.401 1.036-.912 2.458-1.141 1.422-.229 3.468-.479 3.533-.078zm-2.585-4.869c.124.387-.758 1.016-1.97 1.405-1.212.39-2.296.392-2.42.005-.124-.387.758-1.016 1.97-1.405s2.296-.391 2.42-.005zm-.799-1.416c.124.387-.67.988-1.774 1.342s-2.1.329-2.224-.057c-.124-.387.67-.988 1.774-1.342 1.104-.355 2.099-.33 2.224.057zm-1.459-1.692c.194.302-.313.975-1.133 1.504-.82.529-1.643.713-1.837.411-.194-.302.313-.975 1.133-1.504.82-.528 1.642-.712 1.837-.411zm-1.102-1.499c.249.258-.118 1.017-.82 1.695-.702.678-1.473 1.018-1.723.76-.249-.258.118-1.017.82-1.695.702-.678 1.474-1.018 1.723-.76zm-1.11-1.741c.278.185.047 1.022-.517 1.871-.564.848-1.247 1.386-1.525 1.201-.278-.185-.047-1.022.517-1.871.564-.848 1.247-1.386 1.525-1.201zm-1.377-.393c.278.185.105.934-.387 1.674-.492.74-1.116 1.189-1.394 1.004-.278-.185-.105-.934.387-1.674.491-.739 1.115-1.189 1.394-1.004zm-1.225-1.17c.305.135.261.903-.099 1.715s-.899 1.36-1.204 1.225c-.305-.135-.261-.903.099-1.715.359-.812.899-1.361 1.204-1.225zm-1.259-.683c.305.135.284.851-.047 1.599s-.848 1.245-1.153 1.109-.284-.851.047-1.599.847-1.244 1.153-1.109zm-1.235-.552c.3.133.299.793-.003 1.475-.302.681-.79 1.126-1.09.993-.3-.133-.299-.793.003-1.475.302-.681.79-1.126 1.09-.993z"/><path fill="#5C913B" d="M9.812 3.992c.323.061.473.704.335 1.436-.138.732-.511 1.277-.834 1.216-.323-.061-.473-.704-.335-1.436.138-.733.511-1.277.834-1.216zM8.28 3.784c.276-.014.525.49.556 1.124.031.635-.167 1.16-.443 1.173-.276.014-.525-.49-.556-1.124-.032-.634.167-1.16.443-1.173zm10.596 21.305a.532.532 0 01-.528-.603C19.829 13.45 26.63 8.516 30.569 7.998a.534.534 0 01.597.458.53.53 0 01-.458.597c-3.627.477-9.903 5.127-11.305 15.574a.532.532 0 01-.527.462z"/><path fill="#5C913B" d="M20.889 18.194c-.032.405 1.106.825 2.542.939 1.436.114 2.626-.122 2.659-.527.032-.405-1.106-.825-2.542-.939-1.437-.113-2.627.122-2.659.527z"/><ellipse cx="23.601" cy="16.836" fill="#5C913B" rx="2.423" ry=".735" transform="rotate(-2.063 23.613 16.845)"/><path fill="#5C913B" d="M22.093 15.236c.015.406 1.001.7 2.202.656 1.202-.043 2.164-.407 2.149-.813-.015-.406-1.001-.7-2.202-.656-1.202.043-2.164.407-2.149.813z"/><path fill="#5C913B" d="M22.693 13.638c-.038.347.826.726 1.929.847 1.103.121 2.028-.063 2.066-.41.038-.347-.826-.726-1.929-.847-1.103-.12-2.029.063-2.066.41zm1.512-1.171c-.034.311.677.643 1.588.742.911.099 1.677-.072 1.711-.382.034-.311-.677-.643-1.588-.742s-1.677.072-1.711.382zm1.465-1.4c-.098.297.427.736 1.172.982s1.428.205 1.526-.092c.098-.297-.427-.736-1.172-.982s-1.428-.205-1.526.092zm1.286-.769c-.102.31.481.78 1.303 1.052.822.271 1.571.24 1.673-.069.102-.31-.481-.78-1.303-1.052s-1.571-.241-1.673.069zm1.687-.746c-.091.276.441.699 1.188.946.747.247 1.427.223 1.518-.053.091-.276-.441-.7-1.188-.946-.747-.247-1.427-.223-1.518.053zm1.469-.767c-.08.242.365.605.993.813.628.207 1.202.18 1.282-.062.08-.242-.365-.605-.993-.813-.628-.208-1.202-.18-1.282.062z"/><path fill="#5C913B" d="M31.111 8.408c.014.254.56.431 1.221.396.661-.035 1.185-.27 1.172-.524-.014-.254-.56-.431-1.221-.396-.661.036-1.186.27-1.172.524z"/><path fill="#77B255" d="M30.815 8.187c.182.177.704-.063 1.166-.537.461-.474.688-1.002.506-1.18-.182-.177-.704.063-1.166.537-.462.475-.688 1.003-.506 1.18zm-15.062 8.296c-.103.393.942 1.008 2.335 1.375s2.607.346 2.71-.046c.104-.393-.942-1.008-2.335-1.375s-2.607-.347-2.71.046zm1.329-1.789c-.161.373.655 1.085 1.824 1.591s2.247.614 2.408.242c.161-.373-.655-1.085-1.824-1.591-1.168-.507-2.246-.615-2.408-.242zm.934-1.332c-.161.373.571 1.048 1.635 1.509 1.064.461 2.058.533 2.219.16.161-.373-.571-1.048-1.635-1.509-1.064-.461-2.058-.532-2.219-.16zm1.617-1.541c-.223.281.216 1.001.981 1.607.765.606 1.565.87 1.788.589.223-.281-.216-1.001-.981-1.607-.764-.606-1.565-.87-1.788-.589zm1.243-1.384c-.273.233.018 1.024.65 1.767.633.743 1.367 1.157 1.64.924.273-.233-.018-1.024-.65-1.767-.632-.743-1.367-1.157-1.64-.924zm1.275-1.625c-.295.157-.146 1.013.332 1.912s1.105 1.501 1.4 1.344c.295-.157.146-1.013-.332-1.912s-1.105-1.501-1.4-1.344zm1.409-.256c-.295.157-.196.92.221 1.704.417.784.994 1.293 1.289 1.136.295-.157.196-.92-.221-1.704-.417-.785-.994-1.293-1.289-1.136zm1.333-1.046c-.317.105-.348.873-.069 1.717.279.843.762 1.442 1.079 1.337.317-.105.348-.873.069-1.717-.279-.843-.762-1.441-1.079-1.337zm1.32-.556c-.317.105-.366.819-.109 1.596.257.777.722 1.321 1.039 1.216.317-.105.366-.819.109-1.596-.257-.776-.722-1.32-1.039-1.216zm1.282-.429c-.312.103-.375.76-.141 1.468s.676 1.198.988 1.095c.312-.103.375-.76.141-1.468-.233-.708-.676-1.198-.988-1.095z"/><path fill="#77B255" d="M28.96 6.106c-.327.029-.539.654-.474 1.397.066.742.384 1.321.711 1.292.327-.029.539-.654.474-1.397s-.384-1.321-.711-1.292zm1.545-.058c-.274-.04-.57.436-.663 1.065-.093.628.053 1.171.327 1.211.274.04.571-.436.663-1.065.092-.628-.054-1.17-.327-1.211z"/><path fill="#5C913B" d="M16.947 23.468a.532.532 0 01-.481-.41c-.071-.304-1.857-7.429-12.713-7.742-.266.012-.525-.252-.517-.547a.532.532 0 01.547-.517c11.696.33 13.702 8.485 13.72 8.568a.532.532 0 01-.556.648z"/><path fill="#77B255" d="M16.196 21.209c.153.376-.805 1.121-2.14 1.663s-2.541.677-2.693.301c-.153-.376.805-1.121 2.14-1.663 1.334-.543 2.54-.677 2.693-.301zm-.66-1.124c.109.391-.849.998-2.139 1.356-1.29.358-2.423.331-2.532-.06-.109-.391.849-.998 2.139-1.356s2.423-.331 2.532.06zm-1.38-1.333c.109.391-.743.969-1.902 1.291-1.159.322-2.186.265-2.295-.126-.109-.391.743-.969 1.901-1.291 1.16-.322 2.187-.265 2.296.126z"/><path fill="#77B255" d="M13.101 17.41c.141.319-.568.942-1.583 1.389-1.015.448-1.953.552-2.094.233-.141-.319.568-.942 1.583-1.389 1.016-.448 1.953-.552 2.094-.233zm-1.795-.659c.126.286-.452.817-1.29 1.187-.839.37-1.621.438-1.747.152-.126-.286.452-.817 1.29-1.187.838-.37 1.62-.438 1.747-.152zm-1.82-.893c.183.253-.184.831-.82 1.29-.636.459-1.3.626-1.483.373-.183-.253.184-.831.82-1.29.636-.459 1.3-.627 1.483-.373zm-1.458-.345c.191.264-.223.889-.925 1.396-.702.507-1.425.703-1.616.439-.191-.264.223-.889.925-1.396.702-.507 1.425-.703 1.616-.439zm-1.834-.202c.17.235-.209.8-.847 1.261-.638.461-1.293.643-1.463.408-.17-.235.209-.8.847-1.261.638-.461 1.293-.643 1.463-.408zm-1.632-.287c.149.206-.165.687-.701 1.075-.536.387-1.092.534-1.241.328-.149-.206.165-.687.701-1.075.537-.388 1.092-.535 1.241-.328z"/><path fill="#77B255" d="M3.496 14.966c.064.246-.404.58-1.044.746-.64.166-1.211.101-1.275-.146-.064-.246.404-.58 1.044-.746.641-.165 1.212-.1 1.275.146z"/><path fill="#5C913B" d="M3.712 14.666c-.12.224-.69.153-1.273-.16-.583-.312-.958-.748-.838-.972.12-.224.69-.153 1.273.16s.958.748.838.972zm16.864 3.361c.217.343-.594 1.246-1.811 2.016s-2.38 1.117-2.597.774c-.217-.343.594-1.246 1.811-2.016s2.38-1.117 2.597-.774zm-1.808-1.304c.266.306-.297 1.232-1.258 2.067s-1.956 1.264-2.223.958c-.266-.307.297-1.232 1.258-2.067.962-.836 1.957-1.265 2.223-.958zm-1.292-.988c.266.306-.227 1.172-1.103 1.932-.875.761-1.801 1.129-2.067.823-.266-.307.227-1.172 1.103-1.932.875-.761 1.801-1.129 2.067-.823zm-2.007-.981c.298.201.096 1.019-.45 1.828-.546.809-1.23 1.302-1.527 1.101-.298-.201-.096-1.019.45-1.828.546-.809 1.23-1.302 1.527-1.101zm-1.603-.944c.331.139.292.981-.087 1.881-.379.899-.954 1.516-1.285 1.376-.331-.139-.292-.981.087-1.881.379-.899.954-1.516 1.285-1.376zm-1.705-1.164c.329.061.445.922.261 1.923-.185 1.002-.601 1.765-.929 1.704-.328-.061-.445-.922-.261-1.923.184-1.002.6-1.765.929-1.704zm-1.421.181c.328.061.464.818.303 1.691-.161.873-.558 1.532-.886 1.472-.329-.061-.464-.818-.303-1.691.161-.874.557-1.533.886-1.472zm-1.587-.594c.334.004.596.727.585 1.615-.011.888-.291 1.604-.625 1.6-.334-.004-.596-.727-.585-1.615.012-.888.291-1.604.625-1.6zm-1.426-.132c.334.004.596.671.586 1.489-.01.818-.289 1.478-.623 1.473-.334-.004-.596-.671-.586-1.489.01-.817.289-1.477.623-1.473zm-1.352-.022c.328.004.587.612.578 1.357-.009.745-.283 1.346-.612 1.342-.328-.004-.587-.612-.578-1.357.01-.745.284-1.346.612-1.342z"/><path fill="#5C913B" d="M4.852 12.122c.321-.071.712.461.873 1.188s.033 1.375-.288 1.446c-.321.071-.712-.461-.873-1.188-.161-.728-.032-1.375.288-1.446zm-1.49.411c.248-.121.676.244.954.815.278.571.303 1.132.054 1.253-.248.121-.676-.244-.954-.815-.278-.57-.302-1.131-.054-1.253z"/><path fill="#77B255" d="M18.447 24.397h-.024a.533.533 0 01-.508-.556c.051-1.16-.052-7.065-7.123-9.303a.532.532 0 11.321-1.015c7.812 2.473 7.922 9.068 7.865 10.365a.532.532 0 01-.531.509z"/><path fill="#A6D388" d="M18.441 23.459c-.057.402-1.178.575-2.503.386-1.325-.189-2.353-.668-2.295-1.07.057-.402 1.178-.575 2.503-.386 1.324.189 2.352.668 2.295 1.07z"/><path fill="#C6E5B3" d="M18.374 21.969c-.057.402-1.069.59-2.259.421-1.191-.17-2.109-.633-2.052-1.035.057-.402 1.069-.59 2.259-.421s2.109.633 2.052 1.035zm-.681-1.873c.001.349-.898.635-2.007.639-1.11.003-2.01-.277-2.012-.626-.001-.349.898-.635 2.007-.639 1.11-.003 2.011.277 2.012.626zm-.78-1.229c.001.312-.741.568-1.658.571-.917.003-1.66-.248-1.661-.56-.001-.312.741-.568 1.658-.571.916-.003 1.66.248 1.661.56zm-1.31-1.547c.066.305-.502.687-1.269.853-.767.166-1.442.053-1.508-.252-.066-.305.502-.687 1.269-.853.767-.166 1.442-.053 1.508.252zm-1.197-.9c.069.319-.561.725-1.406.909-.846.183-1.587.073-1.656-.245-.069-.319.561-.725 1.406-.909.845-.183 1.587-.074 1.656.245zm-1.094-.983c.062.284-.512.649-1.281.816-.769.167-1.442.071-1.504-.213-.061-.284.512-.649 1.281-.816.77-.166 1.443-.071 1.504.213zm-1.696-.791c.054.249-.427.564-1.073.704-.647.14-1.214.052-1.268-.196-.054-.249.427-.564 1.073-.704.646-.141 1.214-.053 1.268.196zm-1.143-.543c-.04.251-.602.37-1.256.265-.653-.105-1.15-.393-1.11-.644.04-.251.602-.37 1.256-.265.653.105 1.15.393 1.11.644z"/><path fill="#A6D388" d="M10.791 13.915c-.2.157-.694-.137-1.103-.657-.409-.52-.578-1.069-.379-1.226.2-.157.694.137 1.103.657.409.519.579 1.068.379 1.226zm12.338 8.043c.121.387-.766 1.01-1.981 1.39-1.215.38-2.299.374-2.42-.013-.121-.388.766-1.01 1.981-1.39 1.215-.38 2.299-.374 2.42.013zm-.693-1.359c.121.387-.678.982-1.785 1.328-1.107.346-2.102.313-2.224-.075s.678-.982 1.785-1.329c1.107-.345 2.102-.312 2.224.076zm-1.098-1.893c.192.303-.32.972-1.144 1.495-.824.522-1.648.7-1.84.397-.192-.303.32-.973 1.145-1.495.823-.522 1.647-.7 1.839-.397zm-.901-1.507c.247.26-.126 1.016-.833 1.688-.707.672-1.481 1.007-1.729.746-.247-.26.126-1.016.833-1.688.708-.672 1.482-1.007 1.729-.746zm-1.096-1.75c.277.187.039 1.023-.532 1.867-.57.844-1.257 1.376-1.534 1.189-.277-.187-.039-1.023.532-1.867.57-.844 1.257-1.376 1.534-1.189zm-1.374-.404c.277.187.098.935-.399 1.671s-1.125 1.181-1.402.993c-.277-.187-.098-.935.399-1.671.497-.735 1.125-1.18 1.402-.993zm-1.216-1.18c.304.138.254.905-.112 1.714-.366.809-.91 1.354-1.214 1.216-.304-.138-.254-.905.112-1.714.366-.809.91-1.353 1.214-1.216zm-1.254-.692c.304.138.278.854-.059 1.599s-.857 1.238-1.162 1.1c-.304-.138-.278-.854.059-1.599.338-.745.858-1.237 1.162-1.1zm-1.23-.561c.299.135.293.796-.014 1.475s-.799 1.12-1.098.984c-.299-.135-.293-.795.014-1.475.307-.679.799-1.12 1.098-.984z"/><path fill="#A6D388" d="M12.855 12.04c.322.063.467.707.324 1.439-.143.731-.521 1.273-.843 1.21s-.467-.707-.324-1.439c.143-.732.521-1.273.843-1.21zm-1.53-.22c.276-.012.521.494.548 1.129.026.635-.176 1.158-.453 1.17-.276.011-.521-.494-.548-1.129-.026-.634.176-1.158.453-1.17zm8.879 12.32l-.042-.001a.534.534 0 01-.491-.572c.222-2.938 2.831-7.78 8.884-8.269a.531.531 0 11.085 1.061c-6.041.487-7.776 5.553-7.907 7.289a.531.531 0 01-.529.492z"/><path fill="#A6D388" d="M19.959 22.482c-.008.406.959.756 2.161.781 1.202.025 2.184-.283 2.192-.689.008-.406-.959-.755-2.162-.781-1.201-.026-2.182.283-2.191.689zm.976-1.739c-.058.344.783.772 1.878.955 1.094.183 2.029.053 2.086-.292.058-.344-.783-.772-1.878-.955-1.094-.183-2.028-.052-2.086.292zm.969-1.086c-.052.308.639.681 1.544.832.904.151 1.679.024 1.73-.284.051-.308-.64-.681-1.544-.832-.904-.151-1.679-.024-1.73.284zm1.542-1.315c-.115.291.384.76 1.114 1.048.73.288 1.414.286 1.529-.005.115-.291-.384-.76-1.114-1.048-.729-.288-1.414-.285-1.529.005zm1.169-.915c-.12.303.436.807 1.241 1.124s1.555.33 1.674.026c.12-.303-.436-.806-1.241-1.124-.804-.318-1.554-.33-1.674-.026z"/><path fill="#A6D388" d="M26.012 16.855c-.107.27.4.724 1.132 1.012.732.289 1.412.304 1.518.034.107-.27-.4-.723-1.132-1.012-.732-.289-1.412-.304-1.518-.034zm1.802-.506c-.093.237.33.625.945.868s1.19.248 1.283.011c.093-.237-.33-.625-.945-.868s-1.19-.248-1.283-.011z"/><path fill="#C6E5B3" d="M29.03 15.998c-.001.254.535.463 1.196.465.661.002 1.199-.202 1.199-.456.001-.254-.535-.462-1.196-.465-.661-.002-1.198.202-1.199.456z"/><path fill="#C6E5B3" d="M28.747 15.761c.172.188.707-.023 1.194-.47.488-.447.744-.961.572-1.149-.172-.188-.707.023-1.194.47-.488.447-.744.961-.572 1.149zM16.49 20.63c-.182.363.51 1.079 1.546 1.6 1.036.521 2.024.649 2.206.286.182-.363-.51-1.079-1.546-1.6-1.036-.521-2.024-.649-2.206-.286z"/><path fill="#C6E5B3" d="M17.879 19.161c-.239.268.159 1.011.887 1.66s1.513.958 1.752.69c.239-.268-.159-1.012-.887-1.661s-1.513-.957-1.752-.689zm.817-1.721c-.286.217-.041 1.023.549 1.801.589.778 1.299 1.233 1.585 1.016.286-.217.04-1.023-.549-1.801-.59-.778-1.299-1.233-1.585-1.016zm1.365-1.549c-.303.14-.204 1.003.223 1.928.426.925 1.018 1.562 1.321 1.422.303-.14.204-1.003-.223-1.928-.426-.925-1.018-1.562-1.321-1.422zm1.421-.176c-.303.14-.248.907.124 1.714.372.807.919 1.347 1.222 1.207.303-.14.248-.907-.124-1.713-.371-.807-.918-1.348-1.222-1.208zm1.391-.968c-.323.087-.398.852-.167 1.71.23.858.678 1.483 1.001 1.396.323-.087.398-.852.167-1.71-.23-.857-.679-1.482-1.001-1.396zm1.349-.479c-.323.087-.412.797-.2 1.587.212.79.646 1.36.968 1.274.323-.087.412-.797.2-1.587-.211-.791-.645-1.361-.968-1.274zm1.305-.356c-.317.085-.418.738-.225 1.457s.607 1.234.924 1.149c.317-.085.418-.738.225-1.457-.193-.719-.607-1.234-.924-1.149z"/><path fill="#C6E5B3" d="M27.013 13.577c-.328.01-.576.622-.553 1.367.023.745.308 1.34.636 1.33.328-.01.576-.622.552-1.367s-.307-1.34-.635-1.33zm1.546.031c-.271-.056-.594.403-.723 1.025s-.014 1.172.257 1.228c.271.056.594-.403.723-1.025s.014-1.172-.257-1.228z"/><path fill="#C1694F" d="M18 22.431c-6.499 0-11.768-1.216-11.768-2.716v4.031c0 2.099 5.333 3.8 11.768 3.8 6.436 0 11.768-1.702 11.768-3.8v-4.031c0 1.501-5.269 2.716-11.768 2.716z"/></svg><svg viewBox="0 0 36 36" id="2618" xmlns="http://www.w3.org/2000/svg"><path fill="#77B255" d="M32.34 19.208c.198-1.475 2.669-2.208 2.669-4.542C35.009 12.333 29.25 8.25 21 16c3.812-5.312 6.542-14.509 2.203-14.509-1.47 0-2.579 1.342-4.328 1.342C16.5 2.833 16.208 0 14 0c-2.583 0-5 6.25 1 15-1.5-1.625-11.083-6.625-13.002-1.269-.628 1.753 1.731 2.781 1.544 4.519-.178 1.654-2.597 2.037-2.597 4.372 0 3.293 8.048 4.834 16.044-1.613-.245 4.524.557 10.515 3.857 14.158 1.344 1.483 2.407.551 2.822.187.416-.365 1.604-1.414.185-2.822-3.834-3.807-5.225-8.174-5.619-11.381 2.043 2.215 12.357 8.742 15.517 2.767.881-1.668-1.643-2.977-1.411-4.71z"/></svg></svg>