<?xml version="1.0" encoding="utf-8"?><svg viewBox="0 0 36 36" xmlns="http://www.w3.org/2000/svg" xmlns:xlink="http://www.w3.org/1999/xlink"><style>:root>svg{display:none}:root>svg:target{display:block}</style><svg viewBox="0 0 36 36" id="1F3FB" xmlns="http://www.w3.org/2000/svg"><path fill="#F7DECE" d="M33 30a3 3 0 0 1-3 3H6a3 3 0 0 1-3-3V6a3 3 0 0 1 3-3h24a3 3 0 0 1 3 3v24z"/></svg><svg viewBox="0 0 36 36" id="1F3FC" xmlns="http://www.w3.org/2000/svg"><path fill="#F3D2A2" d="M33 30a3 3 0 0 1-3 3H6a3 3 0 0 1-3-3V6a3 3 0 0 1 3-3h24a3 3 0 0 1 3 3v24z"/></svg><svg viewBox="0 0 36 36" id="1F3FD" xmlns="http://www.w3.org/2000/svg"><path fill="#D5AB88" d="M33 30a3 3 0 0 1-3 3H6a3 3 0 0 1-3-3V6a3 3 0 0 1 3-3h24a3 3 0 0 1 3 3v24z"/></svg><svg viewBox="0 0 36 36" id="1F3FE" xmlns="http://www.w3.org/2000/svg"><path fill="#AF7E57" d="M33 30a3 3 0 0 1-3 3H6a3 3 0 0 1-3-3V6a3 3 0 0 1 3-3h24a3 3 0 0 1 3 3v24z"/></svg><svg viewBox="0 0 36 36" id="1F3FF" xmlns="http://www.w3.org/2000/svg"><path fill="#7C533E" d="M33 30a3 3 0 0 1-3 3H6a3 3 0 0 1-3-3V6a3 3 0 0 1 3-3h24a3 3 0 0 1 3 3v24z"/></svg></svg>