<?xml version="1.0" encoding="utf-8"?><svg viewBox="0 0 36 36" xmlns="http://www.w3.org/2000/svg" xmlns:xlink="http://www.w3.org/1999/xlink"><style>:root>svg{display:none}:root>svg:target{display:block}</style><svg viewBox="0 0 36 36" id="1F550" xmlns="http://www.w3.org/2000/svg"><circle cx="18" cy="18" r="18" fill="#99AAB5"/><circle cx="18" cy="18" r="14" fill="#E1E8ED"/><path fill="#66757F" d="M19 18a1 1 0 1 1-2 0V7a1 1 0 0 1 2 0v11z"/><path fill="#66757F" d="M23.25 9.237a1 1 0 0 1 .367 1.366l-4.5 7.795a1 1 0 0 1-1.732-1l4.5-7.795a1 1 0 0 1 1.365-.366z"/></svg><svg viewBox="0 0 36 36" id="1F551" xmlns="http://www.w3.org/2000/svg"><circle cx="18" cy="18" r="18" fill="#99AAB5"/><circle cx="18" cy="18" r="14" fill="#E1E8ED"/><path fill="#66757F" d="M19 18a1 1 0 1 1-2 0V7a1 1 0 0 1 2 0v11z"/><path fill="#66757F" d="M26.661 13a1 1 0 0 1-.366 1.366l-7.795 4.5a1 1 0 0 1-1-1.732l7.795-4.5a1 1 0 0 1 1.366.366z"/></svg><svg viewBox="0 0 36 36" id="1F552" xmlns="http://www.w3.org/2000/svg"><circle cx="18" cy="18" r="18" fill="#99AAB5"/><circle cx="18" cy="18" r="14" fill="#E1E8ED"/><path fill="#66757F" d="M19 18a1 1 0 1 1-2 0V7a1 1 0 0 1 2 0v11z"/><path fill="#66757F" d="M28 18a1 1 0 0 1-1 1h-9a1 1 0 0 1 0-2h9a1 1 0 0 1 1 1z"/></svg><svg viewBox="0 0 36 36" id="1F553" xmlns="http://www.w3.org/2000/svg"><circle cx="18" cy="18" r="18" fill="#99AAB5"/><circle cx="18" cy="18" r="14" fill="#E1E8ED"/><path fill="#66757F" d="M19 18a1 1 0 1 1-2 0V7a1 1 0 0 1 2 0v11z"/><path fill="#66757F" d="M26.66 23a.998.998 0 0 1-1.365.367l-7.795-4.5a.999.999 0 1 1 1-1.732l7.795 4.5A.998.998 0 0 1 26.66 23z"/></svg><svg viewBox="0 0 36 36" id="1F554" xmlns="http://www.w3.org/2000/svg"><circle cx="18" cy="18" r="18" fill="#99AAB5"/><circle cx="18" cy="18" r="14" fill="#E1E8ED"/><path fill="#66757F" d="M19 18a1 1 0 1 1-2 0V7a1 1 0 0 1 2 0v11z"/><path fill="#66757F" d="M23 26.661a1.002 1.002 0 0 1-1.367-.366l-4.5-7.795a1 1 0 0 1 1.732-1l4.5 7.795A1 1 0 0 1 23 26.661z"/></svg><svg viewBox="0 0 36 36" id="1F555" xmlns="http://www.w3.org/2000/svg"><circle cx="18" cy="18" r="18" fill="#99AAB5"/><circle cx="18" cy="18" r="14" fill="#E1E8ED"/><path fill="#66757F" d="M19 18a1 1 0 1 1-2 0V7a1 1 0 0 1 2 0v11z"/><path fill="#66757F" d="M19 27a1 1 0 1 1-2 0v-9a1 1 0 0 1 2 0v9z"/></svg><svg viewBox="0 0 36 36" id="1F556" xmlns="http://www.w3.org/2000/svg"><circle cx="18" cy="18" r="18" fill="#99AAB5"/><circle cx="18" cy="18" r="14" fill="#E1E8ED"/><path fill="#66757F" d="M17 18a1 1 0 1 0 2 0V7a1 1 0 1 0-2 0v11z"/><path fill="#66757F" d="M13 26.661c.479.276 1.09.112 1.367-.366l4.5-7.795a1 1 0 0 0-1.732-1l-4.5 7.795A1 1 0 0 0 13 26.661z"/></svg><svg viewBox="0 0 36 36" id="1F557" xmlns="http://www.w3.org/2000/svg"><circle cx="18" cy="18" r="18" fill="#99AAB5"/><circle cx="18" cy="18" r="14" fill="#E1E8ED"/><path fill="#66757F" d="M17 18a1 1 0 1 0 2 0V7a1 1 0 1 0-2 0v11z"/><path fill="#66757F" d="M9.34 23a.998.998 0 0 0 1.365.367l7.795-4.5a1 1 0 1 0-1-1.732l-7.795 4.5A.998.998 0 0 0 9.34 23z"/></svg><svg viewBox="0 0 36 36" id="1F558" xmlns="http://www.w3.org/2000/svg"><circle cx="18" cy="18" r="18" fill="#99AAB5"/><circle cx="18" cy="18" r="14" fill="#E1E8ED"/><path fill="#66757F" d="M17 18a1 1 0 1 0 2 0V7a1 1 0 1 0-2 0v11z"/><path fill="#66757F" d="M8 18a1 1 0 0 0 1 1h9a1 1 0 1 0 0-2H9a1 1 0 0 0-1 1z"/></svg><svg viewBox="0 0 36 36" id="1F559" xmlns="http://www.w3.org/2000/svg"><circle cx="18" cy="18" r="18" fill="#99AAB5"/><circle cx="18" cy="18" r="14" fill="#E1E8ED"/><path fill="#66757F" d="M17 18a1 1 0 1 0 2 0V7a1 1 0 1 0-2 0v11z"/><path fill="#66757F" d="M9.339 13a1 1 0 0 0 .366 1.366l7.795 4.5a1 1 0 0 0 1-1.732l-7.795-4.5A1 1 0 0 0 9.339 13z"/></svg><svg viewBox="0 0 36 36" id="1F55A" xmlns="http://www.w3.org/2000/svg"><circle cx="18" cy="18" r="18" fill="#99AAB5"/><circle cx="18" cy="18" r="14" fill="#E1E8ED"/><path fill="#67757F" d="M18 19a1 1 0 0 1-1-1V6a1 1 0 0 1 2 0v12a1 1 0 0 1-1 1z"/><path fill="#67757F" d="M18.001 19a1 1 0 0 1-.896-.553l-4-8a1 1 0 0 1 1.789-.895l4 8A1 1 0 0 1 18.001 19z"/></svg><svg viewBox="0 0 36 36" id="1F55B" xmlns="http://www.w3.org/2000/svg"><circle cx="18" cy="18" r="18" fill="#99AAB5"/><circle cx="18" cy="18" r="14" fill="#E1E8ED"/><path fill="#67757F" d="M18 19a1 1 0 0 1-1-1V6a1 1 0 0 1 2 0v12a1 1 0 0 1-1 1z"/><path fill="#67757F" d="M18 19a1 1 0 0 1-1-1V9a1 1 0 0 1 2 0v9a1 1 0 0 1-1 1z"/></svg><svg viewBox="0 0 36 36" id="1F55C" xmlns="http://www.w3.org/2000/svg"><circle cx="18" cy="18" r="18" fill="#99AAB5"/><circle cx="18" cy="18" r="14" fill="#E1E8ED"/><path fill="#67757F" d="M18 31a1 1 0 0 1-1-1V18a1 1 0 0 1 2 0v12a1 1 0 0 1-1 1z"/><path fill="#67757F" d="M17.999 19a1 1 0 0 1-.893-1.447l4-8a1.001 1.001 0 0 1 1.789.895l-4 8c-.176.35-.529.552-.896.552z"/></svg><svg viewBox="0 0 36 36" id="1F55D" xmlns="http://www.w3.org/2000/svg"><circle cx="18" cy="18" r="18" fill="#99AAB5"/><circle cx="18" cy="18" r="14" fill="#E1E8ED"/><path fill="#67757F" d="M18 31a1 1 0 0 1-1-1V18a1 1 0 0 1 2 0v12a1 1 0 0 1-1 1z"/><path fill="#67757F" d="M18.001 19a1 1 0 0 1-.582-1.814l7-5a1 1 0 0 1 1.163 1.628l-7 4.999a.992.992 0 0 1-.581.187z"/></svg><svg viewBox="0 0 36 36" id="1F55E" xmlns="http://www.w3.org/2000/svg"><circle cx="18" cy="18" r="18" fill="#99AAB5"/><circle cx="18" cy="18" r="14" fill="#E1E8ED"/><path fill="#67757F" d="M18 31a1 1 0 0 1-1-1V18a1 1 0 0 1 2 0v12a1 1 0 0 1-1 1z"/><path fill="#67757F" d="M27 19h-9a1 1 0 1 1 0-2h9a1 1 0 1 1 0 2z"/></svg><svg viewBox="0 0 36 36" id="1F55F" xmlns="http://www.w3.org/2000/svg"><circle cx="18" cy="18" r="18" fill="#99AAB5"/><circle cx="18" cy="18" r="14" fill="#E1E8ED"/><path fill="#67757F" d="M18 31a1 1 0 0 1-1-1V18a1 1 0 0 1 2 0v12a1 1 0 0 1-1 1z"/><path fill="#67757F" d="M24.999 24a.987.987 0 0 1-.58-.187l-7-5a1 1 0 1 1 1.162-1.628l7 5A1 1 0 0 1 24.999 24z"/></svg><svg viewBox="0 0 36 36" id="1F560" xmlns="http://www.w3.org/2000/svg"><circle cx="18" cy="18" r="18" fill="#99AAB5"/><circle cx="18" cy="18" r="14" fill="#E1E8ED"/><path fill="#66757F" d="M17 29a1 1 0 1 0 2 0V18a1 1 0 1 0-2 0v11z"/><path fill="#66757F" d="M23 26.661a1.002 1.002 0 0 1-1.367-.366l-4.5-7.795a1 1 0 0 1 1.732-1l4.5 7.795A1 1 0 0 1 23 26.661z"/></svg><svg viewBox="0 0 36 36" id="1F561" xmlns="http://www.w3.org/2000/svg"><circle cx="18" cy="18" r="18" fill="#99AAB5"/><circle cx="18" cy="18" r="14" fill="#E1E8ED"/><path fill="#66757F" d="M17 29a1 1 0 1 0 2 0V18a1 1 0 1 0-2 0v11z"/></svg><svg viewBox="0 0 36 36" id="1F562" xmlns="http://www.w3.org/2000/svg"><circle cx="18" cy="18" r="18" fill="#99AAB5"/><circle cx="18" cy="18" r="14" fill="#E1E8ED"/><path fill="#66757F" d="M17 29a1 1 0 1 0 2 0V18a1 1 0 1 0-2 0v11z"/><path fill="#66757F" d="M13 26.661c.479.276 1.09.112 1.367-.366l4.5-7.795a1 1 0 0 0-1.732-1l-4.5 7.795A1 1 0 0 0 13 26.661z"/></svg><svg viewBox="0 0 36 36" id="1F563" xmlns="http://www.w3.org/2000/svg"><circle cx="18" cy="18" r="18" fill="#99AAB5"/><circle cx="18" cy="18" r="14" fill="#E1E8ED"/><path fill="#66757F" d="M17 29a1 1 0 1 0 2 0V18a1 1 0 1 0-2 0v11z"/><path fill="#66757F" d="M9.34 23a.998.998 0 0 0 1.365.367l7.795-4.5a1 1 0 1 0-1-1.732l-7.795 4.5A.998.998 0 0 0 9.34 23z"/></svg><svg viewBox="0 0 36 36" id="1F564" xmlns="http://www.w3.org/2000/svg"><circle cx="18" cy="18" r="18" fill="#99AAB5"/><circle cx="18" cy="18" r="14" fill="#E1E8ED"/><path fill="#66757F" d="M17 29a1 1 0 1 0 2 0V18a1 1 0 1 0-2 0v11z"/><path fill="#66757F" d="M8 18a1 1 0 0 0 1 1h9a1 1 0 1 0 0-2H9a1 1 0 0 0-1 1z"/></svg><svg viewBox="0 0 36 36" id="1F565" xmlns="http://www.w3.org/2000/svg"><circle cx="18" cy="18" r="18" fill="#99AAB5"/><circle cx="18" cy="18" r="14" fill="#E1E8ED"/><path fill="#66757F" d="M17 29a1 1 0 1 0 2 0V18a1 1 0 1 0-2 0v11z"/><path fill="#66757F" d="M9.339 13a1 1 0 0 0 .366 1.366l7.795 4.5a1 1 0 0 0 1-1.732l-7.795-4.5A1 1 0 0 0 9.339 13z"/></svg><svg viewBox="0 0 36 36" id="1F566" xmlns="http://www.w3.org/2000/svg"><circle cx="18" cy="18" r="18" fill="#99AAB5"/><circle cx="18" cy="18" r="14" fill="#E1E8ED"/><path fill="#66757F" d="M17 29a1 1 0 1 0 2 0V18a1 1 0 1 0-2 0v11z"/><path fill="#66757F" d="M13 9.34a1 1 0 0 0-.366 1.367l4.5 7.793a1 1 0 1 0 1.732-1l-4.5-7.793A1 1 0 0 0 13 9.34z"/></svg><svg viewBox="0 0 36 36" id="1F567" xmlns="http://www.w3.org/2000/svg"><circle cx="18" cy="18" r="18" fill="#99AAB5"/><circle cx="18" cy="18" r="14" fill="#E1E8ED"/><path fill="#66757F" d="M17 18a1 1 0 1 1 2 0v11a1 1 0 0 1-2 0V18z"/><path fill="#66757F" d="M19 18a1 1 0 0 1-2 0V9a1 1 0 0 1 2 0v9z"/></svg><svg viewBox="0 0 36 36" id="1F570" xmlns="http://www.w3.org/2000/svg"><path fill="#662113" d="m2 29-1 6h8s1-2 3-2h6v-4H2zm32 0 1 6h-8s-1-2-3-2h-6v-4h16zM6 20c0 1 0 8-4 8l8 1-4-9zm24 0c0 1 0 8 4 8l-8 1 4-9z"/><path fill="#662113" d="M30 20c0 6.628-5.373 12-12 12S6 26.628 6 20c0-6.627 5.373-12 12-12s12 5.373 12 12z"/><path fill="#A0041E" d="M10 35a1 1 0 0 1-1 1H1a1 1 0 1 1 0-2h8a1 1 0 0 1 1 1zm26 0a1 1 0 0 1-1 1h-8a1 1 0 1 1 0-2h8a1 1 0 0 1 1 1zm-1-6a1 1 0 0 1-1 1H2a1 1 0 1 1 0-2h32a1 1 0 0 1 1 1z"/><path fill="#FFAC33" d="M27 20a9 9 0 1 1-18 0 9 9 0 0 1 18 0z"/><path fill="#F5F8FA" d="M26 20a8 8 0 1 1-16 0 8 8 0 0 1 16 0z"/><path fill="#C1694F" d="M18 20s-.119 1-1.5 1-3.5-1-3.5-1 2.119-1 3.5-1 1.5 1 1.5 1z"/><path fill="#C1694F" d="M19 16.5c0 1.933-.448 3.5-1 3.5s-1-1.566-1-3.5 1-3.499 1-3.499c0-.001 1 1.566 1 3.499z"/><circle cx="18" cy="20" r=".586" fill="#662113"/></svg><svg viewBox="0 0 36 36" id="231A" xmlns="http://www.w3.org/2000/svg"><path fill="#31373D" d="M25 32a4 4 0 0 1-4 4h-6a4 4 0 0 1-4-4V4a4 4 0 0 1 4-4h6a4 4 0 0 1 4 4v28z"/><path fill="#99AAB5" d="M32 18a2 2 0 0 0-2-2h-1a2 2 0 0 0 0 4h1a2 2 0 0 0 2-2z"/><path fill="#CCD6DD" d="M6 18c0-6.627 5.373-12 12-12 6.628 0 12 5.373 12 12s-5.372 12-12 12c-6.627 0-12-5.373-12-12z"/><path fill="#F5F8FA" d="M10 18a8 8 0 1 1 16 0 8 8 0 0 1-16 0z"/><path fill="#66757F" d="M23 22a.994.994 0 0 1-.514-.143l-5-3A.998.998 0 0 1 17 18v-7a1 1 0 0 1 2 0v6.434l4.516 2.708A1 1 0 0 1 23 22z"/></svg><svg viewBox="0 0 36 36" id="231B" xmlns="http://www.w3.org/2000/svg"><path fill="#FFE8B6" d="M21 18c0-2.001 3.246-3.369 5-6 2-3 2-10 2-10H8s0 7 2 10c1.754 2.631 5 3.999 5 6s-3.246 3.369-5 6c-2 3-2 10-2 10h20s0-7-2-10c-1.754-2.631-5-3.999-5-6z"/><path fill="#FFAC33" d="M20.999 24c-.999 0-2.057-1-2.057-2C19 20.287 19 19.154 19 18c0-3.22 3.034-4.561 4.9-7H12.1c1.865 2.439 4.9 3.78 4.9 7 0 1.155 0 2.289.058 4 0 1-1.058 2-2.058 2-2 0-3.595 1.784-4 3-1 3-1 7-1 7h16s0-4-1-7c-.405-1.216-2.001-3-4.001-3z"/><path fill="#3B88C3" d="M30 34a2 2 0 0 1-2 2H8a2 2 0 0 1 0-4h20a2 2 0 0 1 2 2zm0-32a2 2 0 0 1-2 2H8a2 2 0 0 1 0-4h20a2 2 0 0 1 2 2z"/></svg><svg viewBox="0 0 36 36" id="23F0" xmlns="http://www.w3.org/2000/svg"><path fill="#FFCC4D" d="M20 6.042c0 1.112-.903 2.014-2 2.014s-2-.902-2-2.014V2.014C16 .901 16.903 0 18 0s2 .901 2 2.014v4.028z"/><path fill="#FFAC33" d="M9.18 36c-.224 0-.452-.052-.666-.159a1.521 1.521 0 0 1-.667-2.027l8.94-18.127c.252-.512.768-.835 1.333-.835s1.081.323 1.333.835l8.941 18.127a1.52 1.52 0 0 1-.666 2.027 1.482 1.482 0 0 1-1.999-.676L18.121 19.74l-7.607 15.425A1.49 1.49 0 0 1 9.18 36z"/><path fill="#58595B" d="M18.121 20.392a.985.985 0 0 1-.702-.295L3.512 5.998c-.388-.394-.388-1.031 0-1.424s1.017-.393 1.404 0L18.121 17.96 31.324 4.573a.985.985 0 0 1 1.405 0 1.017 1.017 0 0 1 0 1.424l-13.905 14.1a.992.992 0 0 1-.703.295z"/><path fill="#DD2E44" d="M34.015 19.385c0 8.898-7.115 16.111-15.894 16.111-8.777 0-15.893-7.213-15.893-16.111 0-8.9 7.116-16.113 15.893-16.113 8.778-.001 15.894 7.213 15.894 16.113z"/><path fill="#E6E7E8" d="M30.041 19.385c0 6.674-5.335 12.084-11.92 12.084-6.583 0-11.919-5.41-11.919-12.084C6.202 12.71 11.538 7.3 18.121 7.3c6.585-.001 11.92 5.41 11.92 12.085z"/><path fill="#FFCC4D" d="M30.04 1.257a5.899 5.899 0 0 0-4.214 1.77l8.429 8.544A6.064 6.064 0 0 0 36 7.299c0-3.336-2.669-6.042-5.96-6.042zm-24.08 0a5.9 5.9 0 0 1 4.214 1.77l-8.429 8.544A6.064 6.064 0 0 1 0 7.299c0-3.336 2.668-6.042 5.96-6.042z"/><path fill="#414042" d="M23 20h-5a1 1 0 0 1-1-1v-9a1 1 0 0 1 2 0v8h4a1 1 0 1 1 0 2z"/></svg><svg viewBox="0 0 36 36" id="23F1" xmlns="http://www.w3.org/2000/svg"><path fill="#292F33" d="M16 5h4v3h-4z"/><path fill="#8899A6" d="M22 1h-8c-1.1 0-2 .9-2 2s.9 2 2 2h8c1.1 0 2-.9 2-2s-.9-2-2-2zm6.184 10.507-1.504-1.318a2.006 2.006 0 0 1-.186-2.822 2.006 2.006 0 0 1 2.822-.186l1.504 1.318c.827.725.911 1.995.186 2.822a2.006 2.006 0 0 1-2.822.186z"/><circle cx="18" cy="21" r="11" fill="#F5F8FA"/><path fill="#66757F" d="M18 7C10.268 7 4 13.268 4 21s6.268 14 14 14 14-6.268 14-14S25.732 7 18 7zm0 25c-6.065 0-11-4.935-11-11s4.935-11 11-11 11 4.935 11 11-4.935 11-11 11z"/><path fill="#292F33" d="M27 22H17a1 1 0 1 1 0-2h10a1 1 0 1 1 0 2z"/><circle cx="18" cy="12" r="1" fill="#292F33"/><circle cx="18" cy="30" r="1" fill="#292F33"/><circle cx="12" cy="15" r="1" fill="#292F33"/><circle cx="24" cy="27" r="1" fill="#292F33"/><circle cx="9" cy="21" r="1" fill="#292F33"/><circle cx="24" cy="15" r="1" fill="#292F33"/><path fill="#DD2E44" d="M12 28a.999.999 0 0 1-.707-1.707l7-7a.999.999 0 1 1 1.414 1.414l-7 7A.997.997 0 0 1 12 28z"/></svg><svg viewBox="0 0 36 36" id="23F2" xmlns="http://www.w3.org/2000/svg"><path fill="#AAB8C2" d="M18 0C8.611 0 1 7.611 1 17h.029v17c0 1.1.9 2 2 2H33c1.1 0 2-.9 2-2V17c0-9.389-7.611-17-17-17z"/><circle cx="18" cy="17" r="14" fill="#FFF"/><path fill="#66757F" d="M18 4c7.18 0 13 5.82 13 13s-5.82 13-13 13S5 24.18 5 17 10.82 4 18 4m0-2C9.729 2 3 8.729 3 17s6.729 15 15 15 15-6.729 15-15S26.271 2 18 2z"/><path fill="#292F33" d="M19 6a1 1 0 0 0-2 0v1a1 1 0 0 0 2 0V6zm0 21a1 1 0 0 0-2 0v1a1 1 0 0 0 2 0v-1zM8 16H7a1 1 0 0 0 0 2h1a1 1 0 0 0 0-2zm21 0h-1a1 1 0 0 0 0 2h1a1 1 0 0 0 0-2zm-2.293 8.293L26 23.586A.999.999 0 1 0 24.586 25l.707.707a.999.999 0 1 0 1.414-1.414zM10 23.586l-.707.707a.999.999 0 1 0 1.414 1.414l.707-.707A.999.999 0 1 0 10 23.586zM9.293 9.707l.707.707A.999.999 0 1 0 11.414 9l-.707-.707a.999.999 0 1 0-1.414 1.414zM26 10.414l.707-.707a.999.999 0 1 0-1.414-1.414L24.586 9A.999.999 0 1 0 26 10.414z"/><path fill="#DD2E44" d="M8.915 13.839a1 1 0 0 1 1.325-1.288l8.154 3.51a1 1 0 0 1-.791 1.837l-8.154-3.51a1 1 0 0 1-.534-.549z"/></svg><svg viewBox="0 0 36 36" id="23F3" xmlns="http://www.w3.org/2000/svg"><path fill="#FFE8B6" d="M21 18c0-2.001 3.246-3.369 5-6 2-3 2-10 2-10H8s0 7 2 10c1.754 2.631 5 3.999 5 6s-3.246 3.369-5 6c-2 3-2 10-2 10h20s0-7-2-10c-1.754-2.631-5-3.999-5-6z"/><path fill="#FFAC33" d="M18 2h-8s0 4 1 7c1.304 3.912 6 4.999 6 9s0 13 1 13 1-9 1-13 4.697-5.088 6-9c1-3 1-7 1-7h-8z"/><path fill="#3B88C3" d="M30 34a2 2 0 0 1-2 2H8a2 2 0 0 1 0-4h20a2 2 0 0 1 2 2zm0-32a2 2 0 0 1-2 2H8a2 2 0 0 1 0-4h20a2 2 0 0 1 2 2z"/></svg></svg>