<?xml version="1.0" encoding="utf-8"?><svg viewBox="0 0 36 36" xmlns="http://www.w3.org/2000/svg" xmlns:xlink="http://www.w3.org/1999/xlink"><style>:root>svg{display:none}:root>svg:target{display:block}</style><svg viewBox="0 0 36 36" id="1F3F9" xmlns="http://www.w3.org/2000/svg"><path fill="#C1694F" d="M21.279 4.28c-9 0-10.5 1.5-13 4s-4 4-4 13c0 11.181-2 14-1 14s3-2 3-4-2-13 5-20h-.001c7-6.999 18-5 20-5s4-2 4-3-2.818 1-13.999 1z"/><path fill="#D99E82" d="M29.5 29.779a.5.5 0 0 1-.5.5H3.78a.5.5 0 0 1 0-1H29a.5.5 0 0 1 .5.5zm.279-.279a.5.5 0 0 1-.5-.5V3.779a.5.5 0 1 1 1 0V29a.5.5 0 0 1-.5.5z"/><path fill="#99AAB5" d="m0 0 2.793 8.52L4.93 4.955l3.52-2.092z"/><path fill="#DD2E44" d="M26.087 27.393c.364 1.897 0 3.564-.812 3.719-.814.156-1.77-1.256-2.133-3.154-.364-1.898-.001-3.564.812-3.721.814-.157 1.769 1.257 2.133 3.156z"/><path fill="#F4900C" d="M26.568 28.465c.365 1.899 0 3.565-.812 3.721-.813.156-1.769-1.258-2.132-3.154-.365-1.9-.001-3.566.811-3.721.814-.157 1.77 1.255 2.133 3.154z"/><path fill="#A0041E" d="M27.958 29.854c.364 1.899 0 3.564-.812 3.721-.813.156-1.77-1.256-2.133-3.154-.364-1.898 0-3.564.812-3.721.814-.157 1.77 1.255 2.133 3.154z"/><path fill="#DD2E44" d="M29.372 31.268c.365 1.898 0 3.566-.812 3.721-.814.156-1.77-1.256-2.133-3.154-.364-1.899 0-3.564.812-3.721.814-.157 1.77 1.257 2.133 3.154zm-1.979-5.181c1.897.364 3.564 0 3.719-.812.156-.814-1.256-1.77-3.154-2.133-1.898-.364-3.564-.001-3.721.812-.157.814 1.257 1.769 3.156 2.133z"/><path fill="#F4900C" d="M28.465 26.568c1.899.365 3.565 0 3.721-.812.156-.813-1.258-1.769-3.154-2.132-1.9-.365-3.566-.001-3.721.811-.157.814 1.255 1.77 3.154 2.133z"/><path fill="#A0041E" d="M29.854 27.958c1.899.364 3.564 0 3.721-.812.156-.813-1.256-1.77-3.154-2.133-1.898-.364-3.564 0-3.721.812-.157.814 1.255 1.77 3.154 2.133z"/><path fill="#DD2E44" d="M31.268 29.372c1.898.365 3.566 0 3.721-.812.156-.814-1.256-1.77-3.154-2.133-1.899-.364-3.564 0-3.721.812-.157.814 1.257 1.77 3.154 2.133z"/><path fill="#CCD6DD" d="M30.385 29A.98.98 0 0 1 29 30.385L4.136 5.52A.979.979 0 0 1 5.52 4.136L30.385 29z"/></svg><svg viewBox="0 0 36 36" id="1F517" xmlns="http://www.w3.org/2000/svg"><path fill="#8899A6" d="m15 9 6-6s6-6 12 0 0 12 0 12l-8 8s-6 6-12 0c-1.125-1.125-1.822-2.62-1.822-2.62l3.353-3.348S14.396 18.396 16 20c0 0 3 3 6 0l8-8s3-3 0-6-6 0-6 0l-3.729 3.729s-1.854-1.521-5.646-.354L15 9z"/><path fill="#8899A6" d="m20.845 27-6 6s-6 6-12 0 0-12 0-12l8-8s6-6 12 0c1.125 1.125 1.822 2.62 1.822 2.62l-3.354 3.349s.135-1.365-1.469-2.969c0 0-3-3-6 0l-8 8s-3 3 0 6 6 0 6 0l3.729-3.729s1.854 1.521 5.646.354l-.374.375z"/></svg><svg viewBox="0 0 36 36" id="1F527" xmlns="http://www.w3.org/2000/svg"><path fill="#8899A6" d="M27.989 19.977c-.622 0-1.225.078-1.806.213L15.811 9.818a8.02 8.02 0 0 0 .212-1.806A8.012 8.012 0 0 0 8.012 0C7.11 0 5.91.916 6.909 1.915l2.997 2.997s.999 1.998-.999 3.995-3.996.998-3.996.998L1.915 6.909C.916 5.91 0 7.105 0 8.012a8.012 8.012 0 0 0 8.012 8.012 8.02 8.02 0 0 0 1.806-.212l10.371 10.371a7.963 7.963 0 0 0-.213 1.806A8.012 8.012 0 0 0 27.988 36c.901 0 2.101-.916 1.102-1.915l-2.997-2.997s-.999-1.998.999-3.995 3.995-.999 3.995-.999l2.997 2.997c1 .999 1.916-.196 1.916-1.102a8.012 8.012 0 0 0-8.011-8.012z"/></svg><svg viewBox="0 0 36 36" id="1F528" xmlns="http://www.w3.org/2000/svg"><path fill="#F4900C" d="M29.879 33.879C31.045 35.045 32.9 35.1 34 34s1.045-2.955-.121-4.121L12.121 8.121C10.955 6.955 9.1 6.9 8 8s-1.045 2.955.121 4.121l21.758 21.758z"/><path fill="#66757F" d="M22 3s-6-3-11 2l-7 7s-1-1-2 0l-1 1s-1 1 0 2l4 4s1 1 2 0l1-1s1-1 0-2l-.078-.078c.77-.743 1.923-1.5 3.078-.922l4-4s-1-3 1-5 3-2 5-2 1-1 1-1z"/></svg><svg viewBox="0 0 36 36" id="1F529" xmlns="http://www.w3.org/2000/svg"><path fill="#8899A6" d="M35.354 30.646 10 5.293 5.293 10l25.354 25.354c.061.061.613.591 1.391.591.475 0 .93-.204 1.316-.591l2-2c.543-.544.993-1.714 0-2.708z"/><path fill="#66757F" d="M30 35a1 1 0 0 1-.948-1.317l2-6a1 1 0 1 1 1.897.633l-2 6c-.14.419-.53.684-.949.684zm-3-3a1 1 0 0 1-.948-1.317l2-6a1 1 0 1 1 1.897.633l-2 6c-.14.419-.53.684-.949.684zm-3-3a1 1 0 0 1-.948-1.317l2-6a1 1 0 1 1 1.897.633l-2 6c-.14.419-.53.684-.949.684zm-3-3a1 1 0 0 1-.948-1.317l2-6a1 1 0 0 1 1.897.633l-2 6c-.14.419-.53.684-.949.684zm-5-5a1 1 0 0 1-.948-1.317l2-6a1 1 0 1 1 1.897.633l-2 6c-.14.419-.53.684-.949.684zm-3-3a1 1 0 0 1-.948-1.317l2-6a1 1 0 1 1 1.897.633l-2 6c-.14.419-.53.684-.949.684zm-3-3a1 1 0 0 1-.948-1.317l2-6a1 1 0 1 1 1.897.633l-2 6c-.14.419-.53.684-.949.684z"/><path fill="#CCD6DD" d="M13 25s-1-1 0-2l10-10s1-1 2 0l3 3s1 1 0 2L18 28s-1 1-2 0l-3-3z"/><path fill="#8899A6" d="M13 23c-1 1 0 2 0 2l3 3c1 1 2 0 2 0l2-2-5-5-2 2z"/><path fill="#E1E8ED" d="M28 18c1-1 0-2 0-2l-3-3c-1-1-2 0-2 0l-2 2 5 5 2-2z"/><path fill="#CCD6DD" d="M1 13s-1-1 0-2L11 1s1-1 2 0l3 3s1 1 0 2L6 16s-1 1-2 0l-3-3z"/><path fill="#8899A6" d="M1 11c-1 1 0 2 0 2l3 3c1 1 2 0 2 0l2-2-5-5-2 2z"/><path fill="#E1E8ED" d="M16 6c1-1 0-2 0-2l-3-3c-1-1-2 0-2 0L9 3l5 5 2-2z"/></svg><svg viewBox="0 0 36 36" id="1F52B" xmlns="http://www.w3.org/2000/svg"><path fill="#FFAC33" d="M16.61 17.589h5.278v1.056H16.61z"/><path fill="#FFAC33" d="M15.555 15.478a.526.526 0 0 0-.373.901c.845.844.845 2.631 0 3.476a.528.528 0 0 0 .746.746c1.254-1.253 1.254-3.715 0-4.968a.526.526 0 0 0-.373-.155z"/><path fill="#77B255" d="M23.888 23.486h-8.575c-1.873 0-3.261-.974-3.809-2.671l-2.405-6.601 2.114-.771 2.419 6.641c.255.788.8 1.151 1.681 1.151h8.575v2.251z"/><path fill="#3E721D" d="m35.205 11.222-1.962.609-1.306-4.21 1.962-.609a1.115 1.115 0 0 1 1.392.733l.647 2.084a1.116 1.116 0 0 1-.733 1.393z"/><path fill="#E95F28" d="M1.687 6.947h1.761v5.024H1.686c-.87 0-1.582-.712-1.582-1.582v-1.86c0-.87.712-1.582 1.583-1.582z"/><path fill="#3E721D" d="M6.694 4.89c0 .923.748 1.671 1.671 1.671s2.727-.748 2.727-1.671-1.804-1.671-2.727-1.671-1.671.748-1.671 1.671z"/><path fill="#5C913B" d="M4.869 12.905c0 1.166.945 2.111 2.659 2.111H22v-2.111H4.869z"/><path fill="#77B255" d="M35.279 29.382s-1.975-6.154-2.731-8.768-1.006-4.614 1.077-6.147c1.135-.835 1.431-1.844 1.204-2.899-.377-1.752-1.284-4.076-1.72-4.925-.189-.369-.486-.758-1.073-.928 0 0-3.915-1.737-15.24-1.737-6.333 0-14.215.957-14.215 3.265v3.612c0 1.23.997 2.227 2.227 2.227H18.51c.727 0 1.37.473 1.587 1.168l4.352 13.79v.001c.429 1.402-.915 1.633-.915 2.787a1.3 1.3 0 0 0 1.297 1.297h8.433a2.112 2.112 0 0 0 2.015-2.743z"/><path fill="#A6D388" d="M27.499 21.008a1 1 0 0 1-.967-.749c-1.357-5.237-4.091-8.438-8.354-9.786-6.075-1.921-13.393-.323-13.466-.308a1 1 0 0 1-.438-1.952c.32-.072 7.909-1.733 14.506.352 4.905 1.55 8.165 5.316 9.688 11.191a1 1 0 0 1-.969 1.252z"/><circle cx="29.185" cy="10.67" r="3.305" fill="#F5F8FA"/><circle cx="29.185" cy="10.67" r="2.292" fill="#FFCC4D"/></svg><svg viewBox="0 0 36 36" id="1F5DC" xmlns="http://www.w3.org/2000/svg"><circle cx="13" cy="33" r="3" fill="#67757F"/><circle cx="32" cy="33" r="3" fill="#67757F"/><path fill="#67757F" d="M13 32h19v2H13z"/><path fill="#9AAAB4" d="M20 15.502c0-1.381 1.119-1.5 2.5-1.5s2.5.119 2.5 1.5V33.5a2.5 2.5 0 1 1-5 0V15.502z"/><path fill="#67757F" d="M27 15.002a2 2 0 0 1-2 2h-5a2 2 0 0 1-2-2c0-1.105.896-1 2-1h5c1.104 0 2-.104 2 1z"/><path fill="#DA2F47" d="M28 27a2 2 0 0 1-2 2h-7a2 2 0 0 1-2-2v-5a2 2 0 0 1 2-2h7a2 2 0 0 1 2 2v5zm0-22a2 2 0 0 1-2 2h-7a2 2 0 0 1-2-2V4a2 2 0 0 1 2-2h7a2 2 0 0 1 2 2v1z"/><path fill="#DA2F47" d="M13 22a2 2 0 0 1-2-2V7a2 2 0 0 1 2-2h15V4a4 4 0 0 0-4-4H7a4 4 0 0 0-4 4v19a4 4 0 0 0 4 4h14a4 4 0 0 0 4-4v-1H13z"/><path fill="#E75A70" d="M9 20a2 2 0 0 1-4 0V7a2 2 0 0 1 4 0v13z"/></svg><svg viewBox="0 0 36 36" id="1F5E1" xmlns="http://www.w3.org/2000/svg"><path fill="#9AAAB4" d="M23.378 19.029C22.67 19.736 16.305 31.757.75 36c1.414-1.415 19.54-21.691 19.54-21.691l3.088 4.72z"/><path fill="#CCD6DD" d="M17.72 13.371C17.013 14.078 4.992 20.444.75 36l21.213-21.214-4.243-1.415z"/><path fill="#D99E82" d="M20.549 11.957c-.781.781-.655 2.174.283 3.112l.848.849c.938.937 2.33 1.063 3.112.282l7.778-7.778c.781-.781.654-2.174-.283-3.111l-.848-.848c-.938-.938-2.331-1.064-3.111-.283l-7.779 7.777z"/><path fill="#BF6952" d="m28.892 12.1-7.071-1.414-1.271 1.271c-.133.133-.23.288-.311.452l6.954 1.391 1.699-1.7zm-7.212 3.818c.938.938 2.331 1.063 3.112.282l.826-.826-5.328-1.065c.131.27.312.529.543.76l.847.849zm8.911-5.518 1.7-1.699-7.071-1.414-1.7 1.699zm2.423-3.793a2.704 2.704 0 0 0-.727-1.297l-.848-.848a2.87 2.87 0 0 0-.325-.275l-2.11-.422c-.252.084-.483.22-.676.414l-1.242 1.242 5.928 1.186z"/><circle cx="31.858" cy="4.896" r="4" fill="#8A4633"/><path fill="#FFAC33" d="M16.306 9.836a1.5 1.5 0 0 1 2.121 0l8.839 8.839a1.5 1.5 0 1 1-2.121 2.121l-8.839-8.839a1.5 1.5 0 0 1 0-2.121z"/><circle cx="27.266" cy="20.796" r="2.5" fill="#FFAC33"/><circle cx="16.306" cy="9.836" r="2.5" fill="#FFAC33"/><circle cx="27.266" cy="20.796" r="1.5" fill="#FFCC4D"/><circle cx="16.306" cy="9.836" r="1.5" fill="#FFCC4D"/><path fill="#FFAC33" d="M26.566 3.803a1.066 1.066 0 0 1 1.509 0l4.865 4.866a1.066 1.066 0 1 1-1.509 1.509l-4.865-4.866a1.066 1.066 0 0 1 0-1.509z"/></svg><svg viewBox="0 0 36 36" id="1F6E0" xmlns="http://www.w3.org/2000/svg"><path fill="#8899A6" d="m34.247 6.324-2.742 2.743s-1.829.914-3.657-.915c-1.829-1.828-.915-3.657-.915-3.657l2.743-2.743C30.591.838 29.492 0 28.667 0a7.333 7.333 0 0 0-7.334 7.333c0 .569.072 1.121.194 1.653l-6.199 6.199 5.485 5.485 6.199-6.198a7.39 7.39 0 0 0 1.654.194 7.333 7.333 0 0 0 7.333-7.333c.001-.83-.838-1.923-1.752-1.009zm-19.027 9.04L3.031 27.552a3.832 3.832 0 0 0 0 5.417 3.832 3.832 0 0 0 5.417 0l12.187-12.188-5.415-5.417zM5.763 31.838a1.482 1.482 0 1 1 0-2.964 1.482 1.482 0 0 1 0 2.964z"/><path fill="#F4900C" d="M30.83 33.279c1.166 1.166 3.022 1.221 4.121.121 1.1-1.1 1.045-2.955-.121-4.121L11.565 6.014c-1.167-1.167-3.021-1.221-4.121-.121-1.1 1.1-1.045 2.955.121 4.121L30.83 33.279z"/><path fill="#66757F" d="M21.444.893s-6-3-11 2l-7 7s-1-1-2 0l-1 1s-1 1 0 2l4 4s1 1 2 0l1-1s1-1 0-2l-.078-.078c.77-.743 1.923-1.5 3.078-.922l4-4s-1-3 1-5 3-2 5-2 1-1 1-1z"/></svg><svg viewBox="0 0 36 36" id="1F6E1" xmlns="http://www.w3.org/2000/svg"><path fill="#CCD6DD" d="M33 3c-7-3-15-3-15-3S10 0 3 3C0 18 3 31 18 36c15-5 18-18 15-33z"/><path fill="#55ACEE" d="M18 33.884C6.412 29.729 1.961 19.831 4.76 4.444 11.063 2.029 17.928 2 18 2c.071 0 6.958.04 13.24 2.444 2.799 15.387-1.652 25.285-13.24 29.44z"/><path fill="#269" d="M31.24 4.444C24.958 2.04 18.071 2 18 2v31.884c11.588-4.155 16.039-14.053 13.24-29.44z"/></svg><svg viewBox="0 0 36 36" id="1F9AF" xmlns="http://www.w3.org/2000/svg"><path fill="#CCD6DD" d="m25.45 6.842 1.274 1.274L7.6 27.241l-1.275-1.275zM.587 32.979a.904.904 0 0 1 0-1.275l3.825-3.825a.904.904 0 0 1 1.275 0 .904.904 0 0 1 0 1.275l-3.825 3.825a.905.905 0 0 1-1.275 0z"/><path fill="#DD2E44" d="m7.599 24.691 1.275 1.275-5.1 5.1L2.5 29.79z"/><path fill="#292F33" d="M24.812 8.754a.904.904 0 0 1 0-1.275l3.825-3.825a.904.904 0 0 1 1.275 0 .904.904 0 0 1 0 1.275l-3.825 3.825a.904.904 0 0 1-1.275 0z"/><path fill="#292F33" d="M25.606 9.548 24.018 7.96a.502.502 0 0 1 0-.707l.568-.568a.502.502 0 0 1 .707 0l1.588 1.588a.502.502 0 0 1 0 .707l-.568.568a.502.502 0 0 1-.707 0zm6.924-3.259c-1.527-.215-3.042-1.485-3.114-1.545l-.328-.278.261-.34c1.04-1.354 3.855-1.973 5.366-1.189 1.138.591 1.179 1.318 1.103 1.698-.175.872-1.263 1.561-2.648 1.677-.21.016-.425.007-.64-.023zM30.382 4.35c.664.474 1.815 1.134 2.713 1.062 1.002-.084 1.76-.562 1.839-.955.064-.321-.423-.612-.635-.721-1.021-.534-2.947-.189-3.917.614z"/></svg><svg viewBox="0 0 36 36" id="1F9F0" xmlns="http://www.w3.org/2000/svg"><path fill="#292F33" d="M26 .5H10C8.07.5 6.5 2.07 6.5 4v4h3V4c0-.271.229-.5.5-.5h16c.271 0 .5.229.5.5v4h3V4c0-1.93-1.57-3.5-3.5-3.5z"/><path fill="#DD2E44" d="M36 31.765S36 36 31.765 36H4.235C0 36 0 31.765 0 31.765V11.647c0-4.235 4.235-4.235 4.235-4.235h27.529s4.235 0 4.235 4.235v20.118z"/><path fill="#CCD6DD" d="M4 22h28v2H4z"/><path fill="#BE1931" d="M0 15h36v2H0zm4 9h28v2H4zm0 6h28v2H4z"/><path fill="#CCD6DD" d="M4 28h28v2H4z"/><path fill="#AAB8C2" d="M10 19H8a1 1 0 0 1-1-1v-4a1 1 0 0 1 1-1h2a1 1 0 0 1 1 1v4a1 1 0 0 1-1 1zm18 0h-2a1 1 0 0 1-1-1v-4a1 1 0 0 1 1-1h2a1 1 0 0 1 1 1v4a1 1 0 0 1-1 1z"/><path fill="#292F33" d="M25 17v1a1 1 0 0 0 1 1h2a1 1 0 0 0 1-1v-1h-4zM7 17v1a1 1 0 0 0 1 1h2a1 1 0 0 0 1-1v-1H7z"/><path fill="#292F33" d="M26 15h2v3h-2zM8 15h2v3H8z"/></svg><svg viewBox="0 0 36 36" id="1F9F2" xmlns="http://www.w3.org/2000/svg"><path fill="#CCD6DD" d="m19.469 8.319-3.854-4.671a1.01 1.01 0 0 0-1.421-.136l-3.376 2.785 5.138 6.228 3.376-2.785c.431-.355.492-.991.137-1.421z"/><path fill="#BE1931" d="m29.543 25.021-6.228-5.138s-2.395 3.132-5.006 6.152c-1.986 2.298-6.093 2.215-8.406-.098s-2.395-6.42-.098-8.406c3.02-2.611 6.152-5.006 6.152-5.006l-5.138-6.228s-5.122 3.928-6.613 5.43c-5.468 5.508-5.487 14.418.001 19.906s14.398 5.468 19.906.001c1.502-1.491 5.43-6.613 5.43-6.613z"/><path fill="#CCD6DD" d="m27.521 16.371 4.671 3.854c.43.355.491.991.136 1.421l-2.785 3.376-6.228-5.138 2.785-3.376a1.009 1.009 0 0 1 1.421-.137z"/><path fill="#FFAC33" d="M23.717 4.223 21.96 2.43 23.896.535c.006-.006.004-.015.009-.021.016-.019.021-.039.027-.063.007-.024.013-.044.01-.068-.001-.008.005-.015.004-.023-.004-.017-.02-.024-.028-.038-.008-.016-.005-.035-.018-.048-.006-.006-.015-.004-.022-.009-.02-.016-.042-.021-.067-.028-.022-.006-.041-.012-.063-.01-.008.001-.016-.006-.024-.004L18.588 1.48a.188.188 0 0 0-.134.129.186.186 0 0 0 .046.18l1.757 1.794-1.935 1.896c-.006.006-.004.015-.009.021-.016.019-.021.04-.028.064-.007.024-.013.043-.01.067.001.008-.006.015-.004.024.006.025.023.043.038.062.005.007.003.016.009.023l.011.011c.042.036.095.044.147.036.007-.001.011.006.018.004l5.134-1.257a.188.188 0 0 0 .089-.311zm-2.155-1.661.005-.005-.005.005zm14.266 12.543-2.055-1.443 1.557-2.217c.005-.007.001-.015.005-.022.012-.022.013-.042.015-.067s.005-.045-.002-.069c-.002-.008.003-.015-.001-.023-.007-.016-.024-.02-.034-.033-.011-.014-.012-.032-.027-.043-.007-.005-.016-.001-.023-.005-.023-.012-.045-.013-.071-.015-.023-.002-.043-.004-.064.002-.008.002-.016-.003-.024.001l-4.819 2.173a.187.187 0 0 0-.108.151.19.19 0 0 0 .078.169l2.055 1.443-1.556 2.217c-.005.007-.001.015-.005.022-.012.022-.013.043-.015.068-.002.024-.005.045.002.068.002.008-.003.016.001.024.011.023.031.038.049.054.006.006.006.015.013.02l.013.008a.174.174 0 0 0 .151.008c.006-.002.012.004.018.001l4.818-2.174a.187.187 0 0 0 .108-.151.193.193 0 0 0-.079-.167zm-2.422-1.24.004-.006-.004.006z"/></svg><svg viewBox="0 0 36 36" id="1FA83" xmlns="http://www.w3.org/2000/svg"><path fill="#CCD6DD" d="M31.497 6.06s.244-4.293-6.702-3.83c-8.617.574-18.599 9.155-18.95 17.159-.267 6.089 8.109 1.203 11.139-1.96-.045-.045 3.282 1.426 4.752 4.545-3.267 2.733-8.047 4.803-11.644 5.109-6.282.535-8.546-2.727-7.557-9.15C3.758 10 13.588.858 24.604.795c8.377-.048 6.893 5.265 6.893 5.265z"/><path fill="#662113" d="M32.19 32.317c.351-1.768-.27-19.086-4.411-22.615S5.541 7.73 3.881 8.435c-2.24.95-1.352 3.835.184 3.93 5.43.339 16.02.786 18.774 3.133s4.875 12.732 6.07 18.04c.337 1.501 2.643 1.99 3.281-1.221z"/><path fill="#C1694F" d="M32.19 32.317c.432-1.75-.057-20.063-4.197-23.592s-22.3-1.109-23.96-.405c-2.24.95-1.291 2.972.245 3.068 5.43.339 16.02.786 18.774 3.133s4.875 12.732 6.07 18.04c.338 1.501 2.484 2.118 3.068-.244z"/><path fill="#FFCC4D" d="M6.747 11.537c1.459.089 3.08.196 4.731.339l-.013-4.686a82.092 82.092 0 0 0-3.749.426l-.969 3.921zm21.836 18.61c-.319-1.426-.682-3.01-1.084-4.618l4.629-.73c.094 1.376.149 2.659.174 3.769l-3.719 1.579z"/></svg><svg viewBox="0 0 36 36" id="1FA93" xmlns="http://www.w3.org/2000/svg"><path fill="#F4900C" d="m35.22 30.741-.024.024c-.97.97-2.542.97-3.511 0L7.835 6.915a1.49 1.49 0 0 1 0-2.107l1.429-1.429a1.49 1.49 0 0 1 2.107 0l23.85 23.85c.969.97.969 2.542-.001 3.512z"/><path fill="#66757F" d="M17.765 6.946 14.229 3.41a1.5 1.5 0 0 0-2.121 0L8.573 6.946c-2.128 2.092-3.85 3.015-6.055 3.056-.171 1.573.665 5.193 1.967 6.652 1.692 1.896 4.545 2.495 7.223 2.454-.134-2.363.437-4.422 2.521-6.506l3.535-3.536a1.497 1.497 0 0 0 .001-2.12z"/><path fill="#CCD6DD" d="M2.518 10.002C1.767 10.016.962 9.93.064 9.75c-.707 4.95 7.071 12.728 12.021 12.021-.193-.937-.328-1.819-.376-2.663-4.418-1.409-8.107-5.072-9.191-9.106z"/></svg><svg viewBox="0 0 36 36" id="1FA9A" xmlns="http://www.w3.org/2000/svg"><path fill="#CCD6DD" d="M27.933 18.545 3.799 2.68.468 6.55l.028 1.475 1.767.267.016 1.554 1.677.088.019 1.644 1.577-.095.006 1.712 1.831.07-.187 1.609 1.933.085-.056 1.832 1.9-.042-.097 1.882 1.958-.078-.099 1.977 2.115-.02-.249 1.926 2.037-.192-.196 2.072 2.04-.283-.236 2.125 2.404-.432-.307 2.239 2.189-.208 2.884-6.251z"/><path fill="#99AAB5" d="m.468 6.55.028 1.475 1.767.267.016 1.554 1.677.088.019 1.644 1.577-.095.006 1.712 1.831.07-.187 1.609 1.933.085-.056 1.832 1.9-.042-.097 1.882 1.958-.078-.099 1.977 2.115-.02-.249 1.926 2.037-.192-.196 2.072 2.04-.283-.236 2.125 2.404-.432-.307 2.239 2.19-.208 1.59-3.447L1.043 5.882z"/><path fill="#C1694F" d="M34.419 22.33c-.8-.421-1.779-.862-2.35-1.125-.571-.263-.658-1.141-1.888-1.975-1.059-.719-1.405-.351-2.063-.79-.468-.312-.702-.966-1.054-1.229-.351-.263-3.819-2.37-3.819-2.37-.79-.527-1.229 0-1.668.746-.439.746-.399 1.165.132 1.536.878.615.922 1.185.439 2.371-.351.861-.439 2.414-.132 3.292.307.878.114 1.241-.088 2.107-.307 1.317-.219 1.844.395 2.458.615.615 4.19 3.181 4.565 3.556 1.01 1.01 1.349 2.104 2.153 2.667.686.48 1.285-.152 1.262-.757-.021-.577-.299-1.514-.036-2.085.527-1.141 1.141-.834 1.888-2.019.746-1.185.878-2.239 1.01-2.809s.598-.793 1.536-1.01c.741-.171 1.156-.334 1.216-.973.058-.605-.569-1.102-1.498-1.591zm-4.048 2.266c-.333 1.425-1.361 2.987-2.325 3.536-.964.549-2.539.139-2.329-.898a19.46 19.46 0 0 1 .623-2.366c.311-.952.444-1.426.678-2.741.208-1.171 1.337-1.517 2.322-1.134.868.338 1.571 1.29 1.031 3.603z"/><path fill="#A0041E" d="M26.845 21.136c-.305.427-.317 1.414-.431 2.501-.07.666-.189 1.364-.317 2.028.071-.247.149-.506.243-.797.311-.952.444-1.426.678-2.741.208-1.171 1.337-1.517 2.322-1.134.868.337 1.571 1.29 1.031 3.602a5.66 5.66 0 0 1-.141.486c.146-.297.28-.628.347-.961.219-1.097.397-1.895-.219-2.853-.766-1.189-2.635-1.36-3.513-.131z"/><circle cx="24.5" cy="18" r="1" fill="#FFCC4D"/><circle cx="24" cy="22" r="1" fill="#FFCC4D"/><circle cx="24" cy="26" r="1" fill="#FFCC4D"/></svg><svg viewBox="0 0 36 36" id="1FA9B" xmlns="http://www.w3.org/2000/svg"><path fill="#99AAB5" d="m5.597 7.805 11.647 11.646 2.207-2.207L7.805 5.597 7 3 3 1 1 3l2 4z"/><path fill="#E1E8ED" d="M17.289 17.333 8.035 8.079c-.458-.457-.637-1.026-.399-1.264.239-.238.807-.059 1.264.398l9.254 9.254c.457.457.636 1.026.398 1.264-.237.238-.806.059-1.263-.398z"/><path fill="#DD2E44" d="m16.33 20.744 4.414-4.414a1.834 1.834 0 0 1 2.586 0l10.964 10.964a1.834 1.834 0 0 1 0 2.586l-4.414 4.414a1.834 1.834 0 0 1-2.586 0L16.33 23.33a1.834 1.834 0 0 1 0-2.586zm-2.263-1.616 5.061-5.061a1.376 1.376 0 0 1 1.939 0 1.376 1.376 0 0 1 0 1.939l-5.061 5.061a1.376 1.376 0 0 1-1.939 0 1.376 1.376 0 0 1 0-1.939z"/><path fill="#EA596E" d="m15.832 17.947 3.338-3.338c.457-.457 1.026-.636 1.264-.398s.059.807-.398 1.264l-3.338 3.338c-.457.457-1.026.636-1.264.398-.239-.238-.059-.807.398-1.264z"/><path fill="#A0041E" d="M22.037 17.623a.916.916 0 0 1 1.293 0l9.672 9.672a.916.916 0 0 1 0 1.293.916.916 0 0 1-1.293 0l-9.672-9.672a.916.916 0 0 1 0-1.293zm-4.414 4.414a.916.916 0 0 1 1.293 0l9.672 9.672a.916.916 0 0 1 0 1.293.916.916 0 0 1-1.293 0l-9.672-9.672a.916.916 0 0 1 0-1.293zm1.639-2.932c.356-.356.97-.323 1.364.072l10.632 10.632c.395.395.427 1.009.072 1.364-.356.356-.97.323-1.364-.072L19.333 20.469c-.395-.395-.427-1.009-.071-1.364z"/><path fill="#66757F" d="M3.155 1.078h-.233l-1.87 1.87.004.166.324.646 2.38-2.38-.605-.302z"/><path fill="#E1E8ED" d="m2.147 3.573 1.648-1.649L6.558 3.35 4.33 5.518z"/></svg><svg viewBox="0 0 36 36" id="1FA9C" xmlns="http://www.w3.org/2000/svg"><path fill="#D99E82" d="M26 21H10a1 1 0 0 0-1 1v1a1 1 0 0 0 1 1h16a1 1 0 0 0 1-1v-1a1 1 0 0 0-1-1z"/><path fill="#662113" d="M10 22.5h16V24H10z"/><path fill="#D99E82" d="M26 13H10a1 1 0 0 0-1 1v1a1 1 0 0 0 1 1h16a1 1 0 0 0 1-1v-1a1 1 0 0 0-1-1z"/><path fill="#662113" d="M10 14.5h16V16H10z"/><path fill="#D99E82" d="M26 5H10a1 1 0 0 0-1 1v1a1 1 0 0 0 1 1h16a1 1 0 0 0 1-1V6a1 1 0 0 0-1-1zm0 24H10a1 1 0 0 0-1 1v1a1 1 0 0 0 1 1h16a1 1 0 0 0 1-1v-1a1 1 0 0 0-1-1z"/><path fill="#662113" d="M10 6.5h16V8H10zm0 24h16V32H10z"/><path fill="#D99E82" d="M8 35h2c.55 0 1-.45 1-1V2c0-.55-.45-1-1-1H8c-.55 0-1 .45-1 1v32c0 .55.45 1 1 1z"/><path fill="#662113" d="M10 35c.55 0 1-.45 1-1V2c0-.55-.45-1-1-1s-1 .45-1 1v32c0 .55.45 1 1 1z"/><path fill="#BF6952" d="M26.043 35h2c.55 0 1-.45 1-1V2c0-.55-.45-1-1-1h-2c-.55 0-1 .45-1 1v32c0 .55.45 1 1 1z"/><path fill="#662113" d="M28.043 35c.55 0 1-.45 1-1V2c0-.55-.45-1-1-1s-1 .45-1 1v32c0 .55.45 1 1 1z"/></svg><svg viewBox="0 0 36 36" id="1FA9D" xmlns="http://www.w3.org/2000/svg"><path fill="#FFCC4D" d="M19.657 9.885c-2.648 1.447-6.515 9.628-6.355 13.029.159 3.364 1.779 5.653 3.855 6.365s9.767 1.339 8.897-7.516c-.2-2.031 1.398-3.536 1.965-3.404 1.438.336-.767 1.486-.153 3.173.506 1.391 1.126 5.323-1.041 9.135C25.364 33.236 21.855 35 17.262 35c-3.832 0-7.731-2.207-9.128-5.82-1.596-4.127-.697-7.833.396-9.523 1.503-2.323 6.482-8.747 4.325-10.233 3 1 6.802.461 6.802.461z"/><path fill="#FFCC4D" d="M16.5 3.5C17.878 3.5 19 4.622 19 6s-1.122 2.5-2.5 2.5S14 7.378 14 6s1.122-2.5 2.5-2.5m0-2.5a5 5 0 1 0 .001 10.001A5 5 0 0 0 16.5 1z"/><path fill="#FFAC33" d="M14.728 10.39s1.339.545 2.628.248c0 0-2.181 2.677-3.272 5.206s-2.417 5.392-1.785 8.726c.545 2.876 2.181 5.9 6.296 6.098s6.594-1.438 7.238-2.677c.645-1.239 1.041-1.19.595.545-.168.653-1.807 4.537-8.153 4.933-4.661.291-8.043-2.335-9.134-6.549s1.412-7.999 2.584-9.757c2.976-4.463 3.003-6.773 3.003-6.773z"/><path fill="#F4900C" d="M15.579 10.629c-.506-.099-.851-.239-.851-.239s-.007.424-.244 1.254c-.208.727-.596 1.768-1.312 3.114a70.276 70.276 0 0 0 1.804-2.978c.411.1.867.174 1.364.212a28.18 28.18 0 0 1 1.016-1.354c-.637.146-1.283.087-1.777-.009zm3.305 20.731c4.336.129 6.525-1.434 7.698-4.131-.09-.228-.375.041-.749.761-.645 1.239-3.123 2.876-7.238 2.677-3.712-.179-5.404-2.658-6.1-5.253l-.026.005c.534 1.961 1.425 5.792 6.415 5.941z"/><path fill="#C1694F" d="M16.5 3.5c1.228 0 2.246.892 2.456 2.06.017.019.036.038.05.058-.019-1.38-.853-2.759-2.601-2.625-1.495.115-2.26 1.351-2.388 2.474.019-.03.046-.056.07-.083A2.495 2.495 0 0 1 16.5 3.5z"/><path fill="#FFD983" d="M19 6c0 1.378-1.122 2.5-2.5 2.5S14 7.378 14 6a2.824 2.824 0 0 1 .016-.533.658.658 0 0 0-.107.288c-.145 1.493.986 3.355 2.896 3.208 1.738-.134 2.408-1.85 2.317-3.074a.541.541 0 0 0-.116-.271c.002.128.006.256-.006.382z"/><path fill="#FFD983" d="M14.086 5.384c-.024.028-.051.054-.07.083A2.824 2.824 0 0 0 14 6c0-.214.035-.418.086-.616zM19 6c.012-.126.008-.254.006-.382-.015-.02-.033-.039-.05-.058.025.144.044.289.044.44z"/><path fill="#FFE8B6" d="M16.36 1.523c1.424-.069 3.202.881 3.698 1.782.49.891-.582.447-.891 0-.401-.579-2.094-.891-2.941-.802s-2.293.704-2.718 1.426c-.446.757-1.184.935-.802 0 .401-.98 1.827-2.317 3.654-2.406z"/><path fill="#C1694F" d="M17.34 34.508c-6.076-.188-8.634-4.288-9.437-5.983.071.217.146.435.231.655C9.532 32.793 13.431 35 17.262 35c4.592 0 8.102-1.764 9.563-4.333.172-.303.321-.606.459-.909-1.262 1.757-3.777 4.941-9.944 4.75z"/><path fill="#FFE8B6" d="M26.726 19.716c.63-.63 1.426-.95.95-.238-.475.713-.772 1.188-.713 1.96.059.772-.594.178-.594-.238.001-.415-.059-1.068.357-1.484z"/></svg><svg viewBox="0 0 36 36" id="2692" xmlns="http://www.w3.org/2000/svg"><path fill="#D67909" d="M6.814 33.279c-1.166 1.166-3.021 1.221-4.121.121-1.1-1.1-1.045-2.955.121-4.121L26.079 6.014c1.167-1.167 3.021-1.221 4.121-.121 1.101 1.1 1.046 2.955-.121 4.121L6.814 33.279z"/><path fill="#D67909" d="M32.585 7.657a2 2 0 0 0 0-2.829l-1.414-1.414a2 2 0 0 0-2.828 2.829l1.414 1.414a2 2 0 0 0 2.828 0z"/><path fill="#D67909" d="M32.585 7.657a2 2 0 0 0 0-2.829l-1.414-1.414a2 2 0 0 0-2.828 2.829l1.414 1.414a2 2 0 0 0 2.828 0z"/><path fill="#66757F" d="M35.789 13.424c-.252-1.765-.375-4.354-3.204-7.182l-.707-.708-4.949-4.95a2 2 0 0 0-2.828 0L20.565 4.12a2 2 0 0 0 0 2.829l6.364 6.364 2.121 2.121 1.414 1.414c1.027 1.027 3.314 3.315 4.718 1.911.773-.772.961-2.86.607-5.335z"/><path fill="#F4900C" d="M29.185 33.279c1.166 1.166 3.022 1.221 4.121.121 1.1-1.1 1.045-2.955-.121-4.121L9.921 6.014C8.754 4.847 6.899 4.792 5.8 5.893c-1.101 1.1-1.046 2.955.121 4.121l23.264 23.265z"/><path fill="#F4900C" d="M3.415 7.657a2 2 0 0 1 0-2.829l1.414-1.414a2 2 0 0 1 2.828 2.829L6.243 7.657a2 2 0 0 1-2.828 0z"/><path fill="#66757F" d="M4.122 15.436c.78.78 2.047.78 2.828 0l8.485-8.485a2 2 0 0 0 0-2.829L11.899.587a2 2 0 0 0-2.828 0L.586 9.071a2 2 0 0 0 0 2.828l3.536 3.537z"/></svg><svg viewBox="0 0 36 36" id="2694" xmlns="http://www.w3.org/2000/svg"><path fill="#CCD6DD" d="m24 29 5-5L6 1H1v5z"/><path fill="#9AAAB4" d="M1 1v5l23 23 2.5-2.5z"/><path fill="#D99E82" d="M33.424 32.808c.284-.284.458-.626.531-.968l-5.242-6.195-.701-.702c-.564-.564-1.57-.473-2.248.205l-.614.612c-.677.677-.768 1.683-.204 2.247l.741.741 6.15 5.205c.345-.072.688-.247.974-.532l.613-.613z"/><path fill="#BF6952" d="M33.424 32.808c.284-.284.458-.626.531-.968l-1.342-1.586-.737 3.684c.331-.077.661-.243.935-.518l.613-.612zm-3.31-5.506-.888 4.441 1.26 1.066.82-4.1zm-1.401-1.657-.701-.702a1.2 1.2 0 0 0-.326-.224l-.978 4.892 1.26 1.066.957-4.783-.212-.249zm-2.401-.888a2.02 2.02 0 0 0-.548.392l-.614.611a1.981 1.981 0 0 0-.511.86c-.142.51-.046 1.035.307 1.387l.596.596.77-3.846c0-.001 0-.001 0 0z"/><circle cx="33.25" cy="33.25" r="2.75" fill="#8A4633"/><path fill="#FFAC33" d="M29.626 22.324a1.033 1.033 0 0 1 0 1.462l-6.092 6.092a1.033 1.033 0 1 1-1.462-1.462l6.092-6.092a1.033 1.033 0 0 1 1.462 0z"/><circle cx="22.072" cy="29.877" r="1.75" fill="#FFAC33"/><circle cx="29.626" cy="22.323" r="1.75" fill="#FFAC33"/><circle cx="22.072" cy="29.877" r="1" fill="#FFCC4D"/><circle cx="29.626" cy="22.323" r="1" fill="#FFCC4D"/><path fill="#FFAC33" d="M33.903 29.342a.762.762 0 0 1 0 1.078l-3.476 3.475a.762.762 0 1 1-1.078-1.078l3.476-3.475a.762.762 0 0 1 1.078 0z"/><path fill="#CCD6DD" d="m12 29-5-5L30 1h5v5z"/><path fill="#9AAAB4" d="M35 1v5L12 29l-2.5-2.5z"/><path fill="#D99E82" d="M2.576 32.808a1.946 1.946 0 0 1-.531-.968l5.242-6.195.701-.702c.564-.564 1.57-.473 2.248.205l.613.612c.677.677.768 1.683.204 2.247l-.741.741-6.15 5.205a1.946 1.946 0 0 1-.974-.532l-.612-.613z"/><path fill="#BF6952" d="M2.576 32.808a1.946 1.946 0 0 1-.531-.968l1.342-1.586.737 3.684a1.932 1.932 0 0 1-.935-.518l-.613-.612zm3.31-5.506.888 4.441-1.26 1.066-.82-4.1zm1.401-1.657.701-.702a1.2 1.2 0 0 1 .326-.224l.978 4.892-1.26 1.066-.957-4.783.212-.249zm2.401-.888c.195.095.382.225.548.392l.613.612c.254.254.425.554.511.86.142.51.046 1.035-.307 1.387l-.596.596-.769-3.847c0-.001 0-.001 0 0z"/><circle cx="2.75" cy="33.25" r="2.75" fill="#8A4633"/><path fill="#FFAC33" d="M6.374 22.324a1.033 1.033 0 0 0 0 1.462l6.092 6.092a1.033 1.033 0 1 0 1.462-1.462l-6.092-6.092a1.033 1.033 0 0 0-1.462 0z"/><circle cx="13.928" cy="29.877" r="1.75" fill="#FFAC33"/><circle cx="6.374" cy="22.323" r="1.75" fill="#FFAC33"/><circle cx="13.928" cy="29.877" r="1" fill="#FFCC4D"/><circle cx="6.374" cy="22.323" r="1" fill="#FFCC4D"/><path fill="#FFAC33" d="M2.097 29.342a.762.762 0 0 0 0 1.078l3.476 3.475a.762.762 0 1 0 1.078-1.078l-3.476-3.475a.762.762 0 0 0-1.078 0z"/></svg><svg viewBox="0 0 36 36" id="2696" xmlns="http://www.w3.org/2000/svg"><path fill="#66757F" d="M3.923 22.923a1 1 0 1 1-1.847-.769L6.693 9.616a1 1 0 1 1 1.846.769L3.923 22.923z"/><path fill="#66757F" d="M13.923 22.154a1 1 0 0 1-1.847.769L7.461 10.385a1 1 0 0 1 1.847-.769l4.615 12.538zm10.001.769a1.001 1.001 0 0 1-1.847-.769l4.616-12.539a1 1 0 0 1 1.846.77l-4.615 12.538z"/><path fill="#66757F" d="M33.923 22.154a1 1 0 1 1-1.847.769l-4.615-12.538a1 1 0 1 1 1.846-.769l4.616 12.538z"/><path fill="#FFAC33" d="M14.857 22H1.143C.512 22 0 22.511 0 23.143c0 2.524 3.582 4.571 8 4.571s8-2.047 8-4.571c0-.632-.512-1.143-1.143-1.143zM24 34H12a1 1 0 0 1-1-1c0-2.209 3.134-4 7-4s7 1.791 7 4a1 1 0 0 1-1 1zm10.857-12H21.143c-.632 0-1.143.511-1.143 1.143 0 2.524 3.581 4.571 8 4.571s8-2.047 8-4.571c0-.632-.511-1.143-1.143-1.143z"/><path fill="#FFAC33" d="M19 3a1 1 0 1 0-2 0v27a1 1 0 1 0 2 0V3z"/><circle cx="18" cy="4" r="2" fill="#FFAC33"/><circle cx="8" cy="10" r="2" fill="#FFAC33"/><circle cx="28" cy="10" r="2" fill="#FFAC33"/><path fill="#FFAC33" d="M28 10c0 1.104 0 0-10 0S8 11.104 8 10s3-4 10-4 10 2.896 10 4z"/></svg><svg viewBox="0 0 36 36" id="2699" xmlns="http://www.w3.org/2000/svg"><path fill="#66757F" d="M34 15h-3.362a12.915 12.915 0 0 0-1.582-3.814l2.379-2.379a2 2 0 0 0 0-2.829l-1.414-1.414a2 2 0 0 0-2.828 0l-2.379 2.379A12.924 12.924 0 0 0 21 5.362V2a2 2 0 0 0-2-2h-2a2 2 0 0 0-2 2v3.362a12.915 12.915 0 0 0-3.814 1.582L8.808 4.565a2 2 0 0 0-2.828 0L4.565 5.979a2.002 2.002 0 0 0-.001 2.829l2.379 2.379A12.918 12.918 0 0 0 5.362 15H2a2 2 0 0 0-2 2v2a2 2 0 0 0 2 2h3.362a12.92 12.92 0 0 0 1.582 3.813l-2.379 2.379c-.78.78-.78 2.048.001 2.829l1.414 1.414c.78.78 2.047.78 2.828 0l2.379-2.379a12.889 12.889 0 0 0 3.814 1.582V34a2 2 0 0 0 2 2h2a2 2 0 0 0 2-2v-3.362a12.92 12.92 0 0 0 3.813-1.582l2.379 2.379a2 2 0 0 0 2.828 0l1.414-1.414a2 2 0 0 0 0-2.829l-2.379-2.379a12.889 12.889 0 0 0 1.582-3.814H34a2 2 0 0 0 2-2v-2A2 2 0 0 0 34 15zM18 26a8 8 0 1 1 0-16 8 8 0 0 1 0 16z"/></svg><svg viewBox="0 0 36 36" id="26CF" xmlns="http://www.w3.org/2000/svg"><g fill="#F4900C"><path d="M29.185 33.279c1.166 1.166 3.022 1.221 4.121.121 1.1-1.1 1.045-2.955-.121-4.121L9.921 6.014C8.754 4.847 6.899 4.792 5.8 5.893c-1.101 1.1-1.046 2.955.121 4.121l23.264 23.265z"/><path d="M3.415 7.657a2 2 0 0 1 0-2.829l1.414-1.414a2 2 0 0 1 2.828 2.829L6.243 7.657a2 2 0 0 1-2.828 0z"/></g><path fill="#66757F" d="M23 1C21.143.257 12-2 5 5S.257 21.143 1 23c2 5 1.671-1.063 2-3 1.015-5.971 3.822-9.178 5.822-11.178S14.051 4.029 20 3c1.921-.332 8 0 3-2z"/></svg><svg viewBox="0 0 36 36" id="26D3" xmlns="http://www.w3.org/2000/svg"><path fill="#C6D5DB" d="M33 34v2h-3.021v-2c0-1.657-1.353-3-3.021-3v-3C30.295 28 33 30.687 33 34z"/><path fill="#E1E8ED" d="M27.545 30c-.172 0-.337.026-.503.051v.957c1.628.045 2.937 1.363 2.937 2.992v2h1.091v-2.5c0-1.933-1.578-3.5-3.525-3.5zM21 34v2h3.021v-2c0-1.657 1.353-3 3.021-3v-3C23.705 28 21 30.687 21 34z"/><path fill="#C6D5DB" d="M26.538 30c.172 0 .337.026.503.051v.957c-1.628.045-2.937 1.363-2.937 2.992v2h-1.091v-2.5c.001-1.933 1.579-3.5 3.525-3.5zM33 2V0h-3.021v2c0 1.657-1.353 3-3.021 3v3C30.294 8 33 5.313 33 2z"/><path fill="#E1E8ED" d="M27.545 6c-.172 0-.337-.026-.503-.051v-.957C28.67 4.946 29.979 3.629 29.979 2V0h1.091v2.5c0 1.933-1.579 3.5-3.525 3.5zM21 2V0h3.021v2c0 1.657 1.353 3 3.021 3v3C23.705 8 21 5.313 21 2z"/><path fill="#C6D5DB" d="M26.538 6c.172 0 .337-.026.503-.051v-.957C25.414 4.946 24.105 3.629 24.105 2V0h-1.091v2.5c0 1.933 1.578 3.5 3.524 3.5zm.42 4v3c1.668 0 3.021 1.343 3.021 3v4c0 1.657-1.353 3-3.021 3v3C30.295 26 33 23.313 33 20v-4c0-3.313-2.705-6-6.042-6z"/><path fill="#E1E8ED" d="M27.545 12c-.172 0-.337.026-.504.051v.957c1.628.045 2.937 1.363 2.937 2.992v4c0 1.629-1.309 2.946-2.937 2.992v.957c.167.025.332.051.504.051 1.946 0 3.524-1.567 3.524-3.5v-5c.001-1.933-1.577-3.5-3.524-3.5z"/><path fill="#E1E8ED" d="M24.021 16c0-1.657 1.353-3 3.021-3v-3C23.705 10 21 12.687 21 16v4c0 3.313 2.705 6 6.042 6v-3c-1.668 0-3.021-1.343-3.021-3v-4z"/><path fill="#C6D5DB" d="M26.538 12c-1.946 0-3.524 1.567-3.524 3.5v5c0 1.933 1.578 3.5 3.524 3.5.172 0 .337-.026.503-.051v-.957c-1.628-.045-2.937-1.363-2.937-2.992v-4c0-1.629 1.309-2.946 2.937-2.992v-.957c-.165-.025-.33-.051-.503-.051zm-17.58 7v3c1.668 0 3.021 1.343 3.021 3v4c0 1.657-1.353 3-3.021 3v3C12.295 35 15 32.313 15 29v-4c0-3.313-2.705-6-6.042-6z"/><path fill="#E1E8ED" d="M9.545 21c-.172 0-.337.026-.504.051v.957c1.628.045 2.937 1.363 2.937 2.992v4c0 1.629-1.309 2.946-2.937 2.992v.957c.167.025.332.051.504.051 1.946 0 3.524-1.567 3.524-3.5v-5c.001-1.933-1.577-3.5-3.524-3.5z"/><path fill="#E1E8ED" d="M6.021 25c0-1.657 1.353-3 3.021-3v-3C5.705 19 3 21.687 3 25v4c0 3.313 2.705 6 6.042 6v-3c-1.668 0-3.021-1.343-3.021-3v-4z"/><path fill="#C6D5DB" d="M8.538 21c-1.946 0-3.524 1.567-3.524 3.5v5c0 1.933 1.578 3.5 3.524 3.5.172 0 .337-.026.503-.051v-.957C7.414 31.946 6.105 30.629 6.105 29v-4c0-1.629 1.309-2.946 2.937-2.992v-.957c-.166-.025-.331-.051-.504-.051zm.42-20v3c1.668 0 3.021 1.343 3.021 3v4c0 1.657-1.353 3-3.021 3v3C12.295 17 15 14.313 15 11V7c0-3.313-2.705-6-6.042-6z"/><path fill="#E1E8ED" d="M9.545 3c-.172 0-.337.026-.503.051v.957c1.628.046 2.937 1.363 2.937 2.992v4c0 1.629-1.309 2.946-2.937 2.992v.957c.166.025.331.051.503.051 1.946 0 3.524-1.567 3.524-3.5v-5C13.07 4.567 11.492 3 9.545 3zM6.021 7c0-1.657 1.353-3 3.021-3V1C5.705 1 3 3.687 3 7v4c0 3.313 2.705 6 6.042 6v-3c-1.668 0-3.021-1.343-3.021-3V7z"/><path fill="#C6D5DB" d="M8.538 3C6.592 3 5.014 4.567 5.014 6.5v5c0 1.933 1.578 3.5 3.524 3.5.172 0 .337-.026.503-.051v-.957C7.414 13.946 6.105 12.629 6.105 11V7c0-1.629 1.309-2.946 2.937-2.992v-.957C8.876 3.026 8.711 3 8.538 3zM29 33a2 2 0 0 1-4 0V21a2 2 0 0 1 4 0v12z"/><path fill="#EDF1F4" d="M25 21v12a2 2 0 0 0 2 2V19a2 2 0 0 0-2 2z"/><path fill="#C6D5DB" d="M29 15a2 2 0 0 1-4 0V3a2 2 0 0 1 4 0v12z"/><path fill="#EDF1F4" d="M25 3v12a2 2 0 0 0 2 2V1a2 2 0 0 0-2 2z"/><path fill="#C6D5DB" d="M11 36H7v-6a2 2 0 0 1 4 0v6z"/><path fill="#EDF1F4" d="M9 28a2 2 0 0 0-2 2v6h2v-8z"/><path fill="#C6D5DB" d="M11 24a2 2 0 0 1-4 0V12a2 2 0 0 1 4 0v12z"/><path fill="#EDF1F4" d="M7 12v12a2 2 0 0 0 2 2V10a2 2 0 0 0-2 2z"/><path fill="#C6D5DB" d="M11 0H7v6a2 2 0 0 0 4 0V0z"/><path fill="#EDF1F4" d="M9 8a2 2 0 0 1-2-2V0h2v8z"/></svg></svg>