<?xml version="1.0" encoding="utf-8"?><svg viewBox="0 0 36 36" xmlns="http://www.w3.org/2000/svg" xmlns:xlink="http://www.w3.org/1999/xlink"><style>:root>svg{display:none}:root>svg:target{display:block}</style><svg viewBox="0 0 36 36" id="1F4DD" xmlns="http://www.w3.org/2000/svg"><path fill="#CCD6DD" d="M31 32a4 4 0 01-4 4H5a4 4 0 01-4-4V4a4 4 0 014-4h22a4 4 0 014 4v28z"/><path fill="#99AAB5" d="M27 24a1 1 0 01-1 1H6a1 1 0 110-2h20a1 1 0 011 1zm-16 4a1 1 0 01-1 1H6a1 1 0 110-2h4a1 1 0 011 1zM27 8a1 1 0 01-1 1H6a1 1 0 010-2h20a1 1 0 011 1zm0 4a1 1 0 01-1 1H6a1 1 0 110-2h20a1 1 0 011 1zm0 4a1 1 0 01-1 1H6a1 1 0 110-2h20a1 1 0 011 1zm0 4a1 1 0 01-1 1H6a1 1 0 110-2h20a1 1 0 011 1z"/><path fill="#66757F" d="M31 6.272c-.827-.535-1.837-.579-2.521-.023l-.792.646-1.484 1.211-.1.08-2.376 1.938-11.878 9.686c-.437.357-.793 1.219-1.173 2.074-.378.85-.969 2.852-1.443 4.391-.148.25-1.065 1.846-.551 2.453.52.615 2.326.01 2.568-.076 1.626-.174 3.731-.373 4.648-.58.924-.211 1.854-.395 2.291-.752.008-.006.01-.018.017-.023l11.858-9.666.792-.646.144-.118V6.272z"/><path fill="#D99E82" d="M18.145 22.526s-1.274-1.881-2.117-2.553c-.672-.843-2.549-2.116-2.549-2.116-.448-.446-1.191-.48-1.629-.043-.437.438-.793 1.366-1.173 2.291-.472 1.146-1.276 4.154-1.768 5.752-.083.272.517-.45.503-.21-.01.187.027.394.074.581l-.146.159.208.067c.025.082.05.154.068.21l.159-.146c.187.047.394.084.58.074.24-.014-.483.587-.21.503 1.598-.493 4.607-1.296 5.752-1.768.924-.381 1.854-.736 2.291-1.174.439-.435.406-1.178-.043-1.627z"/><path fill="#EA596E" d="M25.312 4.351a2.238 2.238 0 000 3.168l3.167 3.168a2.242 2.242 0 003.168 0l3.169-3.168a2.242 2.242 0 000-3.168l-3.169-3.168a2.24 2.24 0 00-3.168 0l-3.167 3.168z"/><path fill="#FFCC4D" d="M11.849 17.815l3.17 3.17 3.165 3.166 11.881-11.879-6.337-6.336-11.879 11.879z"/><path fill="#292F33" d="M11.298 26.742s-2.06 1.133-2.616.576c-.557-.558.581-2.611.581-2.611s1.951.036 2.035 2.035z"/><path fill="#CCD6DD" d="M23.728 5.935l3.96-3.96 6.336 6.337-3.96 3.96z"/><path fill="#99AAB5" d="M26.103 3.558l.792-.792 6.336 6.335-.792.792zM24.52 5.142l.791-.791 6.336 6.335-.792.792z"/></svg><svg viewBox="0 0 36 36" id="1F58A" xmlns="http://www.w3.org/2000/svg"><path fill="#C1694F" d="M3.968 33.446C2.211 35.204.47 36.312.079 35.921c-.391-.391.718-2.132 2.475-3.889 1.757-1.758 3.498-2.866 3.889-2.475.39.391-.718 2.131-2.475 3.889z"/><path fill="#FFCC4D" d="M6.443 29.558l-2.122-2.122s-1.083 1.393-2.284 3.63C1.137 32.742.786 33.8.786 33.8l.707.707.707.707s1.059-.352 2.734-1.251c2.237-1.201 3.629-2.284 3.629-2.284l-2.12-2.121z"/><path fill="#31373D" d="M34.02 1.98c-3.535-3.536-18.164 10.297-18.871 11.004-.707.707-1.304 1.348-.928 1.724L12.1 16.829c-2.122 2.122-8.486 9.899-7.779 10.606l2.122 2.122 2.121 2.121c.707.707 8.485-5.657 10.607-7.778l2.121-2.121c.376.376 1.017-.222 1.724-.929.707-.706 14.54-15.334 11.004-18.87z"/><path fill="#FFCC4D" d="M23.016 20.851c.085-.084.362-.375.774-.817l-7.823-7.822c-.442.411-.732.689-.817.774-.707.707-1.304 1.348-.928 1.724l3.535 3.536 3.536 3.535c.375.374 1.016-.223 1.723-.93z"/><path fill="#FFAC33" d="M31.212 2.001C30.285 1.074 29.048.102 27.28.986c-1.768.884-7.313 4.441-9.878 7.005-1.322 1.322-1.247 2.102-.751 2.165.821.106 1.37.088 2.122-.663.75-.751.883-2.033.883-2.033s3.05-2.342 5.458-3.778c2.409-1.437 3.268-1.682 4.11-.84.842.842 1.988-.841 1.988-.841z"/><path fill="#FFAC33" d="M28.87 2.487l4.643 4.643a12.78 12.78 0 00.818-2.011l-3.45-3.45c-.627.188-1.301.466-2.011.818z"/></svg><svg viewBox="0 0 36 36" id="1F58B" xmlns="http://www.w3.org/2000/svg"><path fill="#99AAB5" d="M4.167 32.729c.292.167.626.271.987.271a2 2 0 10-2-2c0 .361.103.695.27.987L.278 35.133 1.154 28l9-7 5 5-7 9-7.134.876 3.147-3.147z"/><path fill="#66757F" d="M22.511 5.308a2.946 2.946 0 000 4.167l4.167 4.168a2.948 2.948 0 004.167 0l4.167-4.168a2.948 2.948 0 000-4.167l-4.167-4.167a2.946 2.946 0 00-4.167 0l-4.167 4.167z"/><path fill="#31373D" d="M9.511 18.309L26.713 1.105l8.333 8.335-17.201 17.203a2.949 2.949 0 01-4.168 0l-4.166-4.168a2.945 2.945 0 010-4.166z"/><path fill="#66757F" d="M17.469 10.35l2.125-2.125 8.334 8.334-2.125 2.125z"/></svg><svg viewBox="0 0 36 36" id="1F58C" xmlns="http://www.w3.org/2000/svg"><path fill="#3B88C3" d="M14.57 27.673c2.814-1.692 6.635-3.807 9.899-7.071 7.03-7.029 12.729-16.97 11.314-18.385C34.369.803 24.428 6.502 17.398 13.531c-3.265 3.265-5.379 7.085-7.071 9.899l4.243 4.243z"/><path fill="#C1694F" d="M.428 34.744s7.071 1.414 12.021-3.536c2.121-2.121 2.121-4.949 2.121-4.949l-2.829-2.829s-3.535.708-4.95 2.122c-1.414 1.414-2.518 4.232-2.888 5.598-.676 2.502-3.475 3.594-3.475 3.594z"/><path fill="#CCD6DD" d="M17.882 25.328l-5.168-5.168c-.391-.391-.958-.326-1.27.145l-1.123 1.705c-.311.471-.271 1.142.087 1.501l4.122 4.123c.358.358 1.03.397 1.501.087l1.705-1.124c.472-.311.536-.878.146-1.269z"/><path fill="#A0041E" d="M11.229 32.26c-1.191.769-1.826.128-1.609-.609.221-.751-.12-1.648-1.237-1.414-1.117.233-1.856-.354-1.503-1.767.348-1.393-1.085-1.863-1.754-.435-.582 1.16-1.017 2.359-1.222 3.115-.677 2.503-3.476 3.595-3.476 3.595s5.988 1.184 10.801-2.485z"/></svg><svg viewBox="0 0 36 36" id="1F58D" xmlns="http://www.w3.org/2000/svg"><path fill="#DD2E44" d="M35.702 7.477L28.522.298a1.015 1.015 0 00-1.436 0L3.395 23.989a1.016 1.016 0 000 1.437c.72.719-3.14 7.959-3.395 8.496L2.068 36c.536-.255 7.785-4.115 8.506-3.395a1.015 1.015 0 001.436 0L35.702 8.913a1.015 1.015 0 000-1.436z"/><path fill="#EA596E" d="M4.139 23.24L26.407.972l8.62 8.62L12.759 31.86z"/><path fill="#292F33" d="M23.534 3.846l1.437-1.436 8.62 8.62-1.437 1.436zM5.576 21.803l1.436-1.437 8.62 8.62-1.437 1.437z"/><path fill="#BE1931" d="M26.886 9.353c-1.521-1.521-5.982.476-9.967 4.459-3.983 3.984-5.979 8.446-4.459 9.967 1.52 1.521 5.983-.476 9.967-4.459 3.983-3.984 5.979-8.447 4.459-9.967z"/></svg><svg viewBox="0 0 36 36" id="270F" xmlns="http://www.w3.org/2000/svg"><path fill="#D99E82" d="M35.222 33.598c-.647-2.101-1.705-6.059-2.325-7.566-.501-1.216-.969-2.438-1.544-3.014-.575-.575-1.553-.53-2.143.058 0 0-2.469 1.675-3.354 2.783-1.108.882-2.785 3.357-2.785 3.357-.59.59-.635 1.567-.06 2.143.576.575 1.798 1.043 3.015 1.544 1.506.62 5.465 1.676 7.566 2.325.359.11 1.74-1.271 1.63-1.63z"/><path fill="#EA596E" d="M13.643 5.308a2.946 2.946 0 010 4.167l-4.167 4.168a2.948 2.948 0 01-4.167 0L1.141 9.475a2.948 2.948 0 010-4.167l4.167-4.167a2.946 2.946 0 014.167 0l4.168 4.167z"/><path fill="#FFCC4D" d="M31.353 23.018l-4.17 4.17-4.163 4.165L7.392 15.726l8.335-8.334 15.626 15.626z"/><path fill="#292F33" d="M32.078 34.763s2.709 1.489 3.441.757c.732-.732-.765-3.435-.765-3.435s-2.566.048-2.676 2.678z"/><path fill="#CCD6DD" d="M2.183 10.517l8.335-8.335 5.208 5.209-8.334 8.335z"/><path fill="#99AAB5" d="M3.225 11.558l8.334-8.334 1.042 1.042L4.267 12.6zm2.083 2.086l8.335-8.335 1.042 1.042-8.335 8.334z"/></svg><svg viewBox="0 0 36 36" id="2712" xmlns="http://www.w3.org/2000/svg"><path fill="#99AAB5" d="M31.986 32.729a1.98 1.98 0 01-.987.271 2 2 0 112-2c0 .361-.104.695-.271.987l3.146 3.146L34.999 28l-9-7-5 5 7 9 7.134.876-3.147-3.147z"/><path fill="#66757F" d="M13.643 5.308a2.946 2.946 0 010 4.167l-4.167 4.168a2.948 2.948 0 01-4.167 0L1.141 9.475a2.948 2.948 0 010-4.167l4.167-4.167a2.946 2.946 0 014.167 0l4.168 4.167z"/><path fill="#31373D" d="M26.643 18.309L9.44 1.105 1.107 9.44l17.202 17.202a2.949 2.949 0 004.168 0l4.166-4.168a2.945 2.945 0 000-4.165z"/><path fill="#66757F" d="M8.225 16.56l8.334-8.335 2.124 2.125-8.333 8.334z"/></svg></svg>