<?xml version="1.0" encoding="utf-8"?><svg viewBox="0 0 128 128" xmlns="http://www.w3.org/2000/svg" xmlns:xlink="http://www.w3.org/1999/xlink"><style>:root>svg{display:none}:root>svg:target{display:block}</style><svg viewBox="0 0 128 128" id="1F409" xmlns="http://www.w3.org/2000/svg"><path fill="#bdce44" d="M103.13 54.42s3.5-.66 6.57-2.96c2.75-2.06 6.77-5.88 5.4-7.32-1.48-1.55-3.87 2.53-4.43 1.55-.37-.65 2.32-2.89 3.52-6.34 1.07-3.07-.15-6.11-2.89-2.75-.85 1.04-1.49 2.17-1.9 1.76-.44-.44.61-3 1.38-5.39 1.29-4.04-.68-6.72-4.05-1.83-1.44 2.08-2.09 4.82-3.17 4.62-.77-.14-.38-1.7-.51-3.25-.27-3.23-3.36-2.87-4.42 2.83-.47 2.52-.06 5.43-.63 5.63-.99.35-.77-3.94-2.39-3.52-1.18.31-1.62 3.24-1.55 6.34s2.04 8.09 2.04 8.09l2.75 5 4.28-2.46z"/><path fill="#6d8038" d="M95.46 52.19s-2.21 5.16.82 11.8c2.21 4.85 5.37 8.27 3.5 10.21-2.77 2.86-12.53-3.33-22.15-.49-7.49 2.21-11.06 6.47-13.24 14.29-1.63 5.85-3.24 8.12-5.96 8.92-2.12.62-5.44.16-7.2-1.45-3.72-3.42-3.63-7.37-2.23-10.69 1.31-3.11 5.64-6.15 7.65-7.19 5.56-2.89 19.22-7.11 23.09-14.5 3.45-6.59 4.36-14.15 2.25-19.08-2.11-4.93-5.49-3.17-5.49-3.17l.77 11.68L63.83 66.6 44.47 79.83 41.8 93.91l6.76 11.4 13.94-1.06 14.22-21.4 13.73-.99 13.02-.7 4.93-13.8-12.94-15.17z"/><path fill="#00aa48" d="M105.59 40.13c-2.32-1.57-10.23 5.63-10.3 13.73-.07 8.09 4.81 13.8 5.8 15.42s4.11 7.3.07 9.85c-3.24 2.06-18.37-4.58-26.19.42-7.81 5-5.16 13.59-12.34 20.53-2.69 2.61-17.15 5.02-18.35-9.34s16.19-15.06 24.78-21.33c8.59-6.26 11.33-11.54 11.05-18.93-.28-7.39-2.46-9.71-2.46-9.71l-13.8 5.63-6.34 10.28s-8.27 3.03-15.58 7.95c-8.61 5.8-10.14 10-10.14 10s-2.02-.63-2.02-1.13 7.09-8.57 6.48-12.11c-.75-4.34-3.14-5.51-4.55-5.65-1.41-.14-2.21 1.08-1.17 2.67 1.03 1.6 1.55 3 1.36 3.61-.19.61-.81 1.25-.94.19-.14-1.17-.99-3.17-1.6-3.99-.5-.67-2.06-2.63-3.99-2.3s-2.06 2.16-.47 3.66c1.6 1.5 3.14 3.61 2.35 4.55-.8.94-2.11-2.09-2.96-3.21-.84-1.13-2.93-1.56-4.18-1.81-1.31-.26-3.47 1.19-2.21 3.28.94 1.55 2.21.8 3.75 2.44s1.6 2.25 1.55 2.67c-.05.42-2.96 2.58-3.28 4.55-.33 1.97.23 3.19-.52 3.89-.75.7-3.94.56-4.97.89-1.03.33-2.16 2.96-.19 3.8 1.97.84 5.58.99 7.27.47 1.23-.38 1.6-.94 2.11-.84.52.09 4.6 3.1 4.6 3.1s-.58 4.34-.49 8.02c.12 4.79 1.55 8.54 1.55 8.54s1.43 2.04.82 2.02c-1.74-.07-6.48-4.79-8.82-5.3-2.35-.52-4.22-.37-5.12.66-.82.94-1.12 3.01.52 3.14 1.79.14 2.63-.23 2.63.42 0 .43-.58.78-1.74 1.17-1.67.56-2.14 1.89-1.74 3.52.38 1.53 2.49 1.08 3.1.61s.84-.94 1.17-.52c.33.42-1.11 1.5-1.55 2.49-.89 1.99.36 2.85 1.69 2.96 1.83.14 2.11-2.21 2.96-3.1.84-.89 1.92-1.6 2.3-1.55.38.05.23 1.55 1.92 3.38 1.69 1.83 3.99.8 4.36 1.13s-.28 2.77 1.17 4.08 3.8.75 3.8-1.27.19-2.86.19-2.86 2.84 2.49 6.55 3.8c3.71 1.31 8.78 2.42 8.78 2.42s-.51.91-.4 2.7c.05.73.21 2.96 2.37 2.91 1.55-.03 1.62-3 2.18-3.1.56-.09-.54 3.87 2.32 4.06 2.86.19 1.95-3.54 2.46-3.64.52-.09.53 4.84 4.27 3.14 1.97-.89-.66-5.24-.47-5.63.12-.23 1.97-.52 3.19-1.31.81-.53 1.31-1.69 1.31-1.69s5.91-1.67 8.35-6.08c3.33-6.02 2.77-13.16 5.4-15.46 2.63-2.3 7.7-.47 10.14-.19 2.44.28 2.67.19 2.82.28.14.09.42 1.22.19 1.55-.23.33-6.9 2.72-8.49 5.4-1.6 2.67-1.37 4.58-1.22 5.3.33 1.55 1.85 1.76 2.53.47.67-1.27 1.03-2.39 1.6-2.21.56.19-.54 2.29-.09 3.28.66 1.45 2.3 1.22 2.96.7.66-.52.82-2.58 1.29-2.35.47.23 0 1.13.87 2.65.77 1.35 3.31.12 2.93-1.88-.23-1.22-1.24-2.14.21-3.31s2.63-1.13 4.13-2.06c1.5-.94 1.36-2.3 3.05-1.69 1.69.61 1.74 2.14 3 1.27 1.9-1.31.99-3.94-.61-5.21s-3.94-1.41-4.27-1.55c-.33-.14-.47-1.92-.47-1.92s9.48-3.71 10.56-13.05S104.7 59.07 104 53.02c-.68-6.01 3.62-11.52 1.59-12.89z"/><path fill="#7bd989" d="M40.64 113.46c1.28.69 2.64 1.29 3.97 1.73 3.82 1.26 7.7 1.97 7.7 1.97s.8-1.64 3.47-2.86c1.51-.69 4.79-1.22 4.79-1.22s-4.83-.14-9.71-.94c-2.1-.34-4.73-1.24-7.12-2.82l-3.1 4.14zM51.75 66.25c3.05-1.62 5.98-3 8.26-3.99l-2.72-5.43c-2.17.75-5 1.91-8.44 3.71l2.9 5.71zM36.34 80.43c1.34-2.89 3.25-5.47 5.41-7.57l-3.76-5.36c-3.48 2.91-5.93 6.02-7.56 9.32l5.91 3.61zM29.75 78.3c-1.68 4.04-2.17 7.32-2.08 12.2l6.66-.38c-.14-2.87.39-5.64 1.37-8.21l-5.95-3.61zM32.26 105.7c1.19 1.64 2.55 3.12 4 4.61.77.79 1.79 1.59 2.95 2.32l3.24-4.23c-.83-.66-1.6-1.41-2.3-2.26-.96-1.17-1.9-2.41-2.75-3.9l-5.14 3.46zM31.38 104.41c-1.97-3.11-3.34-6.88-3.65-12.36l6.69-.61c.33 4.15 1.19 7.13 2.32 9.5l-5.36 3.47zM42.91 71.8c.93-.8 1.9-1.52 2.88-2.13 1.49-.93 3.03-1.83 4.57-2.67l-2.82-5.76c-1.48.81-3.32 1.83-5.01 2.89-1.33.84-2.53 1.69-3.42 2.47l3.8 5.2zM61.24 61.73c.46-.19.88-.36 1.25-.51 3.38-1.31 4.41-3.33 3.75-4.88-.66-1.55-3.24-1.17-3.85-.94-.25.09-1.54.29-3.79.99l2.64 5.34z"/><linearGradient id="aaa" x1="88.642" x2="46.971" y1="32.751" y2="33.877" gradientUnits="userSpaceOnUse"><stop offset="0" stop-color="#01ab46"/><stop offset=".396" stop-color="#128a3c"/><stop offset="1" stop-color="#2f502a"/></linearGradient><path fill="url(#aaa)" d="M34.43 24.11s-.42-5.3 3.14-8.12c3.57-2.82 9.2-.94 12.29-.38s7.13.47 10.04-.19c2.91-.66 4.04-1.22 5.82-1.31s4.36-.28 6.62-.47c1.91-.16 5.73-.66 6.34 1.13.46 1.33-.84 2.67-2.91 3.19-2.06.52-2.67.75-2.25 1.69s3.85.33 4.6.09c.75-.23 5.12-1.13 5.12 1.41s-3.57 3.28-5.87 3.85c-2.3.56-3.7.23-3.61 1.41.14 1.88 6.01.09 7.79-.14 1.78-.23 4.04-.56 4.27 1.13s-1.55 3.52-4.93 4.08-5.58 1.13-5.54 2.02 4.2-.02 5.4-.23c1.55-.28 3.75-.32 3.99 1.27.56 3.75-6.1 3.1-6.24 4.6-.13 1.34 5.3-.09 5.96 2.11.66 2.21-1.41 4.13-4.69 4.41-2.28.2-10.09-1.36-11.31-.05s2.96 1.61 4.36 1.92c1.88.42 5.02.66 3.61 3.52-.92 1.88-4.36 1.36-6.87 1.48s-6.97.4-6.97.4l-10.04.47-8.4-.99-5.3-1.97-4.04-1.69-1.27-1.36 11.68-14.41-10.79-8.87z"/><path fill="#bece44" d="M66.88 50.8c0 3.25-2.22 6.86-6.83 6.9-4.61.04-6.97-2.78-7.71-2.99s-.99 2.67-3.55 2.82c-2.57.14-6.37-3.2-6.86-3.31-.49-.11-.63 2.53-3.41 2.53-1.94 0-4.19-3.03-5.67-4.4s-4.12-3.38-4.12-3.38h7.46s2.5-.28 5.63 0c3.04.27 5.53 2.67 10.56 2.57 2.82-.06 4.15-.32 4.15-.32s1.02-3.68 5.67-3.91c4.33-.21 4.68 2.75 4.68 3.49z"/><path fill="#ffba02" d="M51.49 20.75s4.86-1.85 5.47-3.17c.61-1.31 2.53-6.24 5.02-7.13 2.49-.89 3.94 1.6 2.21 3.52s-4.27 3.52-2.86 4.41 4.5-3.47 5.3-4.5 2.63-3.71 4.69-3.66c2.06.05 3.34 3.58-.61 6.85-4.08 3.38-6.1 4.18-10.79 4.5-4.69.33-6.95.63-6.95.63l-1.48-1.45z"/><path fill="#7cdb8b" d="M27.48 20.96s-2.35-7.79 1.78-11.17 9.53-1.27 12.81.75c3.01 1.85 8.9 1.54 8.68-1.88-.19-2.96-3.44-2.13-3.71-.8-.23 1.17-.73 1.92-1.17 1.78-.5-.15-.81-1.16-.75-1.78.23-2.67 2.49-3.47 4.27-3.28 1.4.15 3.75 1.17 3.52 4.93s-4.15 4.81-7.93 4.18c-2.99-.5-5.68-2.58-8.39-3.31-1.66-.44-4-.08-5.43.96-1.67 1.22-2.11 3.15-2.1 4.74.01 1.01.2 1.94.29 2.63.21 1.57 1.97 6.34 1.97 6.34l-3.84-4.09zM54.61 26.5s2.39.52 2.49 3.28-.33 3-.09 3.1 2.16-1.03 3.19.28c1.3 1.66-1.03 4.36-2.35 5.26-1.31.89-2.11 1.03-2.3 1.45-.19.42-1.96 5.87-4.36 6.85-2.77 1.13-10.75.66-11.83.66s-2.16 1.06-3.17 1.58-1.99.86-3.17.57c-1.17-.28-2.96-1.6-2.96-1.6L54.61 26.5z"/><path fill="#d43330" d="M38.61 38.79l2.86.14 1.45-5.12s-3.99-1.36-5.4-1.08-4.46 1.45-5.44 1.97c-.99.52-1.78 1.83-3.66 1.55-1.88-.28-5.91-1.03-8.31 1.69-2.07 2.36-1.69 4.36.09 5.21 1.78.84 4.04-1.83 5.49-2.06 1.45-.23 3.66.8 3.66.8l9.26-3.1z"/><path fill="#fff" d="M28.05 32.88s.89 4.08 1.97 4.08 1.08-1.31 1.08-1.31 4.13-1.08 4.93-1.55c.8-.47 1.78-2.39 1.78-2.39l-7.32-.52-2.44 1.69zM27.95 44s-.84-1.83-.52-2.63c.33-.8.61-2.25 1.55-2.16 1.03.1 1.17 1.69 1.17 1.69s2.72-2.49 4.83-3.33c1.13-.45 3.05-.61 3.19.28.14.89-.52 3.43-.52 3.43L27.95 44z"/><path fill="#02ab47" d="M24.86 40.62c-.35.64-.66 3-.09 4.69.56 1.69 2.44 4.32 5.35 4.5s8.31-6.01 8.63-6.19c.33-.19 9.48 1.03 12.06-2.63s1.23-10.1 2.53-12.11c1.41-2.16 3.47-.75 3.47-.75s-.23-1.5-1.27-2.53c-1.03-1.03-2.49-.84-2.06-2.06.42-1.22 3.61-.09 3.8-.99.19-.89-1.09-1.79-2.55-2.06-.69-.13-2.43.19-2.52-.23-.09-.42 1.36-.47 1.41-1.45.05-.99-3.71-.61-5.26-.42-1.55.19-3.57 1.08-3.71.7-.14-.38 2.53-1.78 2.44-2.25s-2.21-.89-5.35.8c-3.14 1.69-7.23 5.82-7.23 5.82l-3.1-.23s-4.32-5.11-7.09-4.46c-2.92.69-3.89 3.52-3.85 7.51s1.74 6.19 6.05 6.99c2.44.45 8.78-.22 10.09-.28 3.43-.16 4.08 1.36 4.27 2.67s-2.35 2.77-3.57 3.05-2.86.56-4.18 1.45c-1.31.89-2.82 3.38-3.71 3.33-.89-.05-1.08-1.6-1.55-2.53-.43-.95-2.17-1.88-3.01-.34z"/><path fill="#79da89" d="M48.61 23.45c-.04.39-1.09 3.94-3.8 5.49-2.71 1.55-5.46 1.09-6.19-1.16-.82-2.51.56-5.1 3.84-4.65 2.96.42 6.36-1.55 6.15.32z"/><ellipse cx="41.61" cy="26.21" fill="#2f2e2f" rx="2.24" ry="1.94" transform="rotate(-51.325 41.611 26.215)"/><path fill="#2f2e2f" d="M24.74 21.69c-.62.56.42 1.98.49 2.79s-.31 2.28.75 2.21c1.06-.07 1.38-1.31 1.16-2.75-.3-1.94-1.31-3.24-2.4-2.25z"/></svg><svg viewBox="0 0 128 128" id="1F40A" xmlns="http://www.w3.org/2000/svg"><path fill="#5a6415" d="M58.5 13.64l-18.96 10.7-11.07 10.7-9.03 1.75s3.52 3.94 13.76.6c10.14-3.31 15.86-16.91 26.92-15.7 10.63 1.16 8.62 11.51 8.62 11.51l14.54-16.55-24.78-3.01zM55.27 42.28s-3.37.99-5.3 6.23c-1.5 4.07-.52 8.02-.09 9.57.42 1.55 1.49 3.66 1.56 4.5.07.84-2.41 2.49-2.29 4.05.07.92 1.77 2.28 3.87 2.53 4.08.49 5-.56 5-.56l5.49-18.9-8.24-7.42zM57.27 75.19s-7.07-4.08-14.32-3.66-9.29 3.8-10.14 6.69c-.56 1.92-1.86 5.23-2.89 6.9-.95 1.55-2.96 2.87-4.22 3.15-1.81.4-4.05 1.16-3.33 3.94.59 2.28 2.25 3.71 4.29 5.05 2.01 1.31 4.38 2.82 4.38 2.82l25.97-17.21.26-7.68zM82.08 88.21l-5.91 7.81s2.32 4.65 8.09 5.98c5.77 1.34 8.76 1.69 9.54 3.55 1.05 2.54-.14 5.91-.56 6.62-.42.7-2.62 3-1.02 4.58 1.94 1.9 7.18.77 9.01.14s4.13-1.11 4.94-3.78c.55-1.83 1.66-8.42 1.5-12.51-.18-4.75-1.06-7.92-2.53-9.26-1.48-1.34-11.16-3.13-11.16-3.13s1.67-3.88 3.59-8.94c.95-2.5 1.51-5.17 1.97-5.35.73-.28 1.94 1.69 2.22 2.46.28.77.14 8.47 1.19 9.62.89.98 3.83 1.62 6.52-.18 2.36-1.58 4.85-4.51 4.72-7.53-.18-3.91-3.77-6.76-3.91-8.31-.14-1.55.56-5.46 0-8.48-.56-3.03-15.03-12-15.03-12L82.08 88.21z"/><path fill="#f26a35" d="M56.04 101.72l-33.37 9.01-4.5 1.06.14 4.57 8.52 5.63 19.71-5.84 12.6-6.75-3.52-8.17"/><path fill="#fffdfd" d="M19.51 117.63s.28-4.15 2.11-3.8c1.49.29 2.18 5.21 2.18 5.21l2.53 2.11 2.53-2.39s1.27-4.93 2.75-5.07c1.69-.16 2.82 4.43 2.82 4.43l-8.09 4.43-6.83-4.92zM39.5 107.07s1.75 3.48 3.8 3.31c2.46-.21 2.89-6.19 2.89-6.19l-6.69 2.88z"/><path fill="#70853c" d="M35.13 92.36c-.32 1.93-4.3 4.33-5.96 5.42-2.06 1.36-4.46 3.17-6.01 3.24s-3.85.23-6.05.38c-2.11.14-3.61.59-4.6 2.63-.73 1.51-.89 5.02.8 6.71 1.69 1.69 5.42 3.17 10.42 2.53 5-.63 6.55-1.48 8.17-2.18 1.62-.7 9.15-3.73 12.67-4.65 3.52-.92 10.14-2.82 11.26-1.83 1.13.99-3.38 4.01-6.9 5.35-3.52 1.34-13.97 7.32-18.11 8.45-2.95.8-9.22.36-10.75-1.06-1.16-1.07-1.55-1.81-1.58-2.78-.04-.97-1.11-1.32-2.08-.32-1.2 1.23.11 4.5 2.53 6.48 2.41 1.95 6.47 3.09 12.48 2.67 8.17-.56 15.65-5.84 17.41-5.91 1.76-.07 7.5.85 12.95-1.31 5.6-2.22 8.35-6.43 8.35-6.43s4.88-2.35 7.98-4.46c3.1-2.11 5.07-3.57 5.07-3.57s-2.72-1.6-2.79-5.49c-.04-2.32.77-5.49 2.82-5.14 2.04.35-1.48 5.49 2.32 7.32s10.35 3.87 13.87 1.83c3.52-2.04 7.15-7.31 5.96-9.07-1.2-1.76-4.03-2.41-6.76-2.96-2.56-.51-5.82-.71-5.82-.71s3.45-8.66 3.87-13.51c.22-2.53.12-4.94-.21-6.97-.42-2.6-1.09-5.83-1.06-8.24.04-2.6.28-6.19 1.62-5.91 1.34.28.73 3.94.99 7.39.28 3.87 1.97 9.36 6.34 9.08 4.36-.28 6.69-3.31 6.05-9.08-.63-5.77-1.3-9.43-3.7-12.39-2.39-2.96-5.03-3.55-5.03-3.55s-.35-10.94-3.59-17.7C94.51 19.19 86.55 9.09 74.31 5.57S53 5.46 46.68 9.3c-8.69 5.28-12.49 19.6-17.84 22.21s-9.68 2.5-9.75 3.98c-.07 1.48.49 1.97 3.94 1.9 3.45-.07 6.99-.63 11.54-3.87 5.38-3.84 12.74-12.74 18.3-14.78s11.54-1.41 14.36 1.62 3.66 6.43 2.99 9.15c-1.11 4.52-4.4 7.39-4.4 7.39s-10.49 2.82-13.51 7.46-2.15 6.72.14 8.59c3.67 2.99 8.59 1.48 8.59 1.48s-2.43 8.94-2.99 11.68c-.56 2.75-2.36 11.76-2.92 13.16-.56 1.41-1.27 4.5-3.17 4.43-1.9-.07-5.28-3.59-11.05-1.34-5.23 2.04-5.35 7.47-5.78 10z"/><path fill="#fffdfd" d="M52.13 103.69c-2.15.6-2.29 5.88-2.29 5.88s1.31-.51 2.71-1.3c1.37-.77 1.99-1.43 1.99-1.43s-1.08-3.52-2.41-3.15z"/><path fill="#70853c" d="M97.26 113.42c-1.48-.11-2.11 1.31-2.44 2.76-.18.77-.25 1.51-.25 1.51s.84.18 1.83.11 1.9-.21 1.9-.21 1.01-4.02-1.04-4.17zM99.62 117.31s-.21-1.71.53-3.11c.74-1.41 2.78-1.4 2.89.53.05.97-.07 1.6-.07 1.6s-.7.35-1.39.55c-.81.22-1.96.43-1.96.43z"/><path fill="#71873b" d="M105.45 82.93c-1.72.01-1.82 3.55-1.82 3.55s.61.5 1.71.53c.98.03 1.76-.18 1.76-.18s.26-3.91-1.65-3.9zM108.59 86.32s-1.63-3.92.5-4.46c1.46-.37 1.97 2.66 1.97 2.66s-.46.58-1.06.99c-.64.43-1.41.81-1.41.81z"/><path fill="#70853c" d="M49.67 67.65s1.36-3.22 2.73-2.52c1.44.74-.39 3.82-.39 3.82s-.77-.25-1.41-.6c-.44-.24-.93-.7-.93-.7zM55.12 66c1.51.07.99 3.26.99 3.26s-.65.07-1.34.05c-.64-.02-1.39-.09-1.39-.09s.4-3.28 1.74-3.22zM22.25 91.34s3.63-.95 4.36.67c.74 1.62-2.97 2.71-2.97 2.71s-.76-.96-1-1.62c-.51-1.36-.39-1.76-.39-1.76zM24.86 95.93c-.04-.11 2.25-2.29 3.55-1.34s-.81 3.24-.81 3.24-.88-.48-1.44-.88c-.68-.48-1.3-1.02-1.3-1.02z"/><path fill="#2e2c33" d="M61.83 95.01c.14 1.64-.33 3.57-2.82 4.18-2.26.56-4.55-.89-4.6-3.33-.05-2.35 1.79-4.04 3.8-4.04s3.45 1.18 3.62 3.19zM26.99 107.61c-.09 1.17-1.1 1.49-1.83 1.41-1.03-.12-1.71-1.13-1.42-2.09.27-.93 1.21-1.36 2.01-1.11.79.24 1.32.79 1.24 1.79zM18.85 105.34c.42.94-.38 1.87-.99 2.11-.82.33-1.91-.04-2.18-1.01-.26-.93.31-1.79 1.12-2s1.64-.02 2.05.9z"/><path fill="#97a927" d="M59.54 77.32c-.68 2.26.08 3.65.41 4.38.66 1.45 1.7 1.4 2.55.74.84-.66-.38-3 .05-4.08.61-1.55 2.77-1.6 2.58-3.47-.14-1.4-2.01-1.7-3.33-.56-.97.81-1.81 1.46-2.26 2.99zM64.03 63.47c-.95 2.35-.35 4.24-.07 4.93.46 1.13 2.57 1.48 2.78-.39.14-1.26-.46-2.08.11-3.52.55-1.41 1.69-1.06 2.75-2.01.56-.51.63-2.39-1.44-2.36-1.1.02-3.01.57-4.13 3.35zM81.52 68.74c-.42 2.15-.07 3.52.35 4.26.42.74 2.18 1.26 2.67-.35.28-.92-.39-1.65.11-3.55.25-.97.92-1.44 1.55-2.11.99-1.06-.33-2.76-1.94-2.11-1.12.45-2.22 1.24-2.74 3.86zM75.15 81.98c-.88 1.58-.72 3.36-.56 4.4.32 2.15 2.46 2.11 2.71.88s-.04-2.75.39-3.77 1.76-1.26 2.6-1.69c1.16-.6.84-3.06-1.34-2.6-2.18.46-3.1 1.52-3.8 2.78zM85.5 52.73c-.53 1.79-.38 3.01-.25 3.66.32 1.51 2.43 1.58 2.64.25.21-1.34.14-2.08.39-2.92.41-1.39.76-1.63 1.37-2.29 1.09-1.16-.25-2.99-1.9-2.01-.95.57-1.85 1.95-2.25 3.31zM68.42 47.64c-.91 1.76-.69 3.66-.55 4.59.15.92.62 1.78 1.64 1.7 1.02-.07 1.39-.85 1.28-1.7-.06-.44-.29-1.89.18-2.89s1.41-1.6 2.15-1.89c1.83-.7.75-3.34-1.35-2.63-1.53.53-2.62 1.41-3.35 2.82zM75.19 33.94c-1.32 1.42-1.39 3.14-1.3 4.36.18 2.43 2.43 2.04 2.71.67.19-.92.39-2.18.67-2.82.56-1.27 1.51-2.04.77-2.82-.67-.69-1.97-.34-2.85.61zM87.79 37.19c-.12 2.11.23 2.97.76 3.94.76 1.39 2.71 1.04 2.82-.6.08-1.19-.48-.91-.36-3.22.08-1.46.87-2.86-.2-3.38-1.06-.52-2.82-.24-3.02 3.26zM84.51 20.95c.6 1.02 1.37 1.9 1.65 3.31.39 1.94 2.93 1.48 2.96-.28.04-2.36-.7-3.41-1.55-4.47-.82-1.02-2.15-1.06-2.71-.67s-.86 1.24-.35 2.11zM74.84 21.81c-.64.54-.87 1.62-.23 2.42.84 1.04 1.31 1.89 1.26 2.76-.08 1.39 1.17 1.9 1.97 1.32 1.07-.78 1.44-2.24.42-4.53-.96-2.14-2.69-2.6-3.42-1.97zM72.09 9.52c-.31.98.73 1.34 1.77 1.52 1.04.18 2.24.96 2.59 1.73.49 1.08 2.03 1.67 2.36-.02.29-1.45-1.56-2.95-2.7-3.61-.93-.55-3.48-1.32-4.02.38zM69.8 13.81c-1.58-.89-4.32-.81-4.65.7-.35 1.65 1.16 1.6 1.83 1.65.88.07 1.72.32 2.25.95.53.63.92 1.34 2.01 1.02 1.09-.31 1.31-2.78-1.44-4.32zM64.38 8.6c.46-.58.32-2.29-2.78-2.43-2.59-.12-3.26 1.12-2.85 1.9.53 1.02 1.82.31 2.89.42 1.3.14 2.18.81 2.74.11zM57.87 11.66c-1.79-.21-3.78.87-3.38 2.43.32 1.23 1.79-.1 2.96-.07 1.41.04 2.65.9 3.06.07.6-1.2-.18-2.14-2.64-2.43zM51.51 9.55c-.03 1.2-1.15.85-2.53 1.37-.84.32-1.63 1.83-2.42 1.17-1.06-.89-.09-2.31 1.5-3.13 1.15-.61 3.49-.68 3.45.59zM46.66 14.87c-2.35 1.15-2.96 4.01-1.79 4.52 1.42.62 1.39-1.5 2.61-2.28.97-.61 3.23-.29 3.21-1.67-.02-1.38-2.61-1.26-4.03-.57zM42.28 22.6c.26-.91-1.55-2.15-3.7-.7s-2.3 3.57-.92 3.87c.99.21 1.06-1.29 1.9-1.94 1.2-.91 2.37.01 2.72-1.23z"/></svg><svg viewBox="0 0 128 128" id="1F40D" xmlns="http://www.w3.org/2000/svg"><path fill="#96a820" d="M48.65 76.52s8.99-6.82 22.43-6.57c19.9.38 24.12 9.85 24.12 9.85l3.19 15.02s6.01 1.78 7.88 1.97c1.88.19 5.54 1.17 9.95-1.92 4.41-3.1 3.28-6.52 5.44-6.43 2.82.12.84 9.57-1.6 12.58-2.44 3-13.33 8.73-17.93 9.95s-6.01 3.14-10.79 3.24c-4.79.09-16.8-3.14-16.8-3.14l-25.9-12.2V76.52z"/><path fill="#70853b" d="M58.13 96.23s3.94-7.04 10.98-6.48 9.57 5.54 9.57 5.54l-15.58 5.07-4.97-4.13zM94.26 105.34c4.97 1.6 6.85 1.41 6.85 1.41s2.91-3.1 4.13-5.73c1.22-2.63 1.36-4.13 1.36-4.13s-1.92-.47-3.71-1.03c-1.78-.56-5.35-2.63-5.35-2.63l-4.13 11.36.85.75z"/><path fill="#bed04a" d="M50.62 5.71c14.64.7 27.28 13.75 22.95 30.83-3.24 12.76-14.51 29.64-17.32 33.97-5.16 7.98-10.7 23.46 4.83 25.11 22.21 2.35 5.81-9.83 16.67-17.34 5.7-3.94 12.19-2.7 16.37.3 5.45 3.92 20.62 46.06-34.91 43.13-11.54-.61-20.71-6.97-25.76-11.83-14.95-14.36-3.48-38.3-2.53-40.4C32.18 66.67 44 51.32 43.16 46.4c-.84-4.93-4.93-3.66-10.56-5.63-5.63-1.97-11.88-8.2-10.14-16.75 1.62-7.96 7.76-19.29 28.16-18.31z"/><path fill="#e4dda2" d="M92.15 114.46s2.72-2.46 3.66-3.21 5.3-4.5 5.3-4.5 6.93-.25 11.73-2.25c5.96-2.49 9.43-8.73 9.9-10.93.25-1.19-.61 10.7-9.15 16.47-8.25 5.57-21.44 4.42-21.44 4.42zM22.53 86.87c-.33 12.53 9.91 25.73 18.79 29.28 4.93 1.97-15.77-7.67-14.08-28.23 1.34-16.35 17.81-30.27 18.16-39.56.21-5.63-6.76-6.12-6.76-6.12s2.16 1.62 2.25 3.73c.14 3.38-8.59 15.77-10.42 18.3-1.81 2.54-7.65 11.9-7.94 22.6z"/><path fill="#ee6d33" d="M25 30.07l4.32 4.69c.21-.29-4.72 4.71-9.29 8.07-3.06 2.25-12.48 7.07-12.98 6.59-.63-.61 2.28-2.53 3.87-3.94 1.21-1.07 4.22-3.78 4.22-3.78s-3.71.4-5.49.4-6.33.14-5.91-.7c.33-.66 6.88-1.7 9.34-2.7 7.41-3 11.92-8.63 11.92-8.63z"/><path fill="#323234" d="M42.88 15.21c-2.57 1.79-5.07 1.34-5.88-.16-.6-1.12-.77-3.24 1.6-5.03 2.09-1.58 4.77-1.1 5.75.26.82 1.15.48 3.58-1.47 4.93zM54.91 26.87c-3.07 1.8-5.56.87-6.62-.76-.86-1.33-.66-4.53 1.83-5.97 2.58-1.5 5.44-.96 6.54.83.92 1.5.59 4.53-1.75 5.9z"/><path fill="#e4dda2" d="M66.67 43.49c-1.83 4.25 1.83 6.22 1.83 6.22s1.43-3.05 2.04-4.43c.75-1.71 1.48-3.84 1.48-3.84s-3.89-1.35-5.35 2.05zM64.84 56.46s-2.53-.28-4.79-1.06c-2.05-.71-5.5-3.6-7.6.14-1.94 3.45 1.31 5.35 3.87 6.41 2.39.99 4.54 1.34 4.54 1.34s1.64-2.75 2.11-3.52 1.87-3.31 1.87-3.31zM56.25 70.52s-3.38-.19-5.56-.75c-1.91-.49-5.4-2.82-7.32.21-1.71 2.7.77 4.84 4.08 5.7 3.66.95 5.77.67 5.77.67s.88-1.79 1.23-2.78c.37-1.01 1.8-3.05 1.8-3.05zM51.02 83.37s-4.08.56-6.05.56c-2.04 0-7.2-.48-7.09 4.27.09 4.08 5.62 3.74 7.04 3.71 2.02-.05 7.29-1 7.29-1s-.9-1.6-1.16-3.84c-.2-1.64-.03-3.7-.03-3.7zM55.12 93.84s-.66 2.97-1.62 5.14c-1.06 2.39-3.52 6.48 1.48 8.38 4.62 1.76 6.48-1.55 7.32-5.28.78-3.47.84-6.3.84-6.3s-2.44-.11-4.46-.57c-1.62-.39-3.56-1.37-3.56-1.37zM70.82 95.27s3.31 2.89 4.36 4.36c1.06 1.48 3.47 5.94 7.32 4.01 3.38-1.69.65-6.85-.99-8.73-1.37-1.57-3.45-3.28-5.42-4.41-1.32-.75-2.44-.94-2.44-.94s.23 2.06-.38 3.52c-.64 1.57-2.45 2.19-2.45 2.19zM75.19 85.53c.34 1.16 1.35 1.21 3.59.28 2.39-.99 5.63-1.48 8.31-1.48 3.17 0 6.26 2.11 7.39 3.03s2.49 1.24 2.7-.52c.21-1.76-1.06-3.73-3.52-5.49-1.5-1.07-4.18-2.72-7.34-2.79-3.37-.07-6.48 1.13-8.45 2.39-1.22.79-3.25 2.68-2.68 4.58z"/></svg><svg viewBox="0 0 128 128" id="1F422" xmlns="http://www.w3.org/2000/svg"><path fill="#bdcf47" d="M112.7 59.21s3.94-2.21 4.93-2.77c.99-.56 4.6-2.82 5.91-.84.77 1.16-.7 4.44-3.05 7.86-2.14 3.13-7.12 9.56-7.4 10.83-.28 1.27 1.11 6.36 1.53 8.33.42 1.97 1.74 6.71 1.17 8.54s-3.43 6.85-10.75 6.76c-5.82-.07-7.51-1.78-7.7-2.82-.14-.75-.56-3.24-.56-3.24s-4.79 2.96-7.04 4.08-8.31 4.22-8.31 4.22 1.17 5.35 1.36 7.51c.19 2.16.86 5.25-.28 7.32-1.03 1.88-4.25 5.02-11.83 4.97-5.92-.04-7.41-1.88-8.35-3-.94-1.13-1.13-6.48-1.13-7.6s-.19-5.07-.19-5.07-8.02-.4-12.86-.75c-4.38-.32-10.16-.99-10.16-.99s.21 2.33.42 4.01c.19 1.5.23 4.64-1.34 6.17-2.11 2.06-7.56 2.21-10.56 1.92-3-.28-7.18-1.83-8.4-4.55-1.22-2.72.38-6.29 1.03-8.35.58-1.81 1.6-4.41 1.22-5.16-.38-.75-4.04-1.69-9.29-6.95-5.26-5.26-12.13-23.52 3.28-36.23 15.49-12.76 43.81 1.1 45.31 2.04 1.54.96 53.04 3.76 53.04 3.76z"/><path fill="#6e823a" d="M66.25 25.28c-13.93.62-24.38 7.52-29.57 15.06-3.1 4.5-4.65 7.74-4.65 7.74s4.81.14 9.15 2.46c5 2.67 10.8 5.56 14.61 18.13 2.87 9.5 3.98 18.53 11.44 20.52 8.45 2.25 28.16 1.13 37.59-8.02s11.26-16.05 8.87-25.06-13.17-25.05-28.16-29.28C79.06 25 72.58 25 66.25 25.28z"/><path fill="#484e23" d="M111.93 51.32c-.42-.99-1.3-2.5-1.3-2.5s-.07 2.05-.25 3.13c-.28 1.76-1.25 5.42-1.81 4.88-1-.97-5.73-6.92-7.98-10.23-1.71-2.52-7.6-9.11-7.74-11.26-.07-1.06 1.27-4.65 1.27-4.65s-1.22-.7-2.35-1.34c-.88-.49-2.16-1.03-2.16-1.03s-.77 4.9-1.62 5.82c-.75.81-5.32 2.6-8.87 3.94-4.29 1.62-8.45 3.73-10 4.01-1.36.25-9.09-1.41-12-1.97-3.66-.7-9.18-2.26-10.45-3.17-1.48-1.06-3.07-3.78-3.07-3.78s-.89.61-1.78 1.31c-.88.69-2.02 2.06-2.02 2.06s2.31 2.32 2.44 3.18c.18 1.2-1.27 2.83-2.46 4.38-.72.93-2.75 4.85-2.75 4.85s.97.09 2.15.63c1.23.57 2.38 1.16 2.38 1.16s2.97-6.9 4.9-7.53c1.65-.54 6.3.99 9.68 1.69 4.79.99 9.64 1.87 10.66 3.17 1.06 1.34 2.06 6.68 3.03 11.19C70.89 64.2 73.64 77.02 73 78c-.63.99-5.7.63-8.59.28-2.45-.3-6.41-1.76-6.41-1.76s.58 2.11.77 2.67c.28.81 1.16 3.06 1.16 3.06s5.67 2.5 22.42.95 25.03-12.96 27.38-18.02c3.14-6.78 3.54-10.39 3.54-10.39s-.92-2.48-1.34-3.47zM96.65 73.21c-4.24 2.67-15.2 5.49-17.18 4.43-1.58-.85-3.94-13.94-5.07-19.78-.72-3.74-2.45-9.42-1.41-11.19.7-1.2 4.79-2.99 7.81-4.4 2.87-1.33 6.97-3.13 8.17-2.99 1.7.2 5.35 6.12 9.01 11.19 3.66 5.07 7.67 10.35 7.74 12.18.09 1.84-4.7 7.82-9.07 10.56z"/><path fill="#2a2b28" d="M41.18 65.86c.5 2.83-.95 5.75-4.07 6.02-2.56.22-4.59-1.57-5.09-4.4s1.14-5.49 3.68-5.94c2.52-.45 4.98 1.48 5.48 4.32zM22.82 66.11c.07 2.84-2.42 5.69-5.5 5.11-2.53-.48-3.99-2.73-3.71-5.55.29-2.82 2.59-4.9 5.15-4.65s3.99 2.13 4.06 5.09zM30.77 76.59c1.16-.79 3.1-2.67 4.36-1.06 1.27 1.62-.92 3.1-2.18 4.01-1.27.92-4.08 3.17-6.12 3.17-1.9 0-4.79-2.32-6.62-3.87-1.49-1.26-2.18-2.89-1.34-3.87s2.14-.62 3.24.35c1.27 1.13 3.72 3.38 4.72 3.38.98.01 2.39-1.05 3.94-2.11z"/></svg><svg viewBox="0 0 128 128" id="1F432" xmlns="http://www.w3.org/2000/svg"><path fill="#78de89" d="M16.74 29.97c7.41-9.85 18.72-4 21.87-1.78 3.19 2.25 10.42 5.16 14.27 4.04 3.85-1.13 5.64-6.96 3.2-8.74-3.08-2.25-5.46.04-5.36 2.08.04.84.66 2.63-.75 3-.73.19-1.6-.75-1.88-1.97-.28-1.22-.26-2.8.94-4.79 2.51-4.16 10.52-3.14 11.77 2.66 1.2 5.62-2.49 9.51-6.14 10.85-5.38 1.98-12.9-.32-16.42-3-4.45-3.39-12.95-5.47-17.55-.09-6.66 7.79 6.76 22.71 6.76 22.71l-5.26 4.13s-1.5-2.91-4.6-9.48c-2.92-6.18-5.21-13.83-.85-19.62z"/><path fill="#d43330" d="M38.04 65.17l-12.2 1.69s.75 2.44 1.03 4.22c.28 1.78.58 5.59-.66 6.38-2.35 1.5-4.97-1.97-11.83-1.13-3.78.47-9.29 2.53-9.76 7.6-.5 5.45 5.34-.64 9.76-1.03 3.19-.28 4.22 3.38 4.22 3.38s7.88 6.66 8.35 5.73c.47-.94 22.52-17.74 22.52-17.74l-11.43-9.1z"/><path fill="#fffafe" d="M22.75 67.42s-.56 5.63 1.22 6.1c1.78.47 2.82-2.82 2.82-2.82s1.6-.28 4.6-.28c1.79 0 4.32.66 4.32.66s-.6 2.43 1.03 3.28c1.97 1.03 5.91-6.38 5.91-6.38l-14.08-2.44-5.82 1.88z"/><path fill="#fffafe" d="M19.37 88.16s.94-4.22 1.22-5.16.84-3 1.78-3.19 2.25 1.6 2.25 1.6 3.47-2.53 4.32-3 3.38-1.5 3.38-1.5-.09-2.41 1.31-2.63c2.44-.38 3.1 4.5 3.1 4.5l-10.7 11.17-6.66-1.79z"/><path fill="#bcce46" d="M23.03 96.37s.99 4.93 9.01 9.71 12.95 5.63 15.91 5.91c2.96.28 5.91.28 5.91-1.13 0-1.02-2.11-2.25-4.79-2.82-2.67-.56-3.8-1.27-3.1-2.39 1.27-2.02 7.74 2.11 13.09 2.96 5.35.84 16.05 3.52 17.03-.7s-7.04-1.27-7.46-4.22c-.42-2.96 7.88-2.67 13.09-.99 5.21 1.69 9.71 6.34 11.68 6.62 1.97.28 3.4-1.26 2.82-3.52-.66-2.53-2.25-4.79-5.07-6.62S75.24 92 75.24 92l-28.7-2.1-10.56.28-12.95 6.19z"/><linearGradient id="aea" x1="131.416" x2="63.091" y1="52.368" y2="69.637" gradientUnits="userSpaceOnUse"><stop offset=".171" stop-color="#01ab46"/><stop offset=".499" stop-color="#128a3c"/><stop offset="1" stop-color="#2f502a"/></linearGradient><path fill="url(#aea)" d="M32.18 51.6s-1.27-8.59 2.96-12.11 8.59-2.53 11.26-2.39c2.67.14 9.43 2.39 18.86 1.55 10.02-.9 18.72-5.21 27.45-6.34s15.77.99 15.49 4.08c-.28 3.1-13.09 1.69-12.11 4.93.99 3.24 18.44-2.53 19.71 2.67 1.33 5.47-9.06 1.98-8.87 5.07.28 4.65 14.78-1.69 16.61 3.8 2.11 6.34-15.49 7.04-13.23 10.84 2.25 3.8 12.39-1.13 13.09 2.96.61 3.54-2.3 5.82-6.48 6.9-2.89.75-12.47 1.11-12.39 3.66.14 4.36 7.88.42 9.71 2.67 1.83 2.25-2.96 6.9-11.26 7.32-5.64.29-10.28-1.83-10.42.28-.14 2.11 5.44 2.34 7.6 3.38 3.52 1.69 4.79 3.38 3.24 6.19-1.55 2.82-4.92-.67-7.32-.84-3.8-.28-8.31 1.13-11.97 1.13s-10.56-2.11-10.56-2.11 1.27 1.41 0 2.53-4.65.99-8.87-1.27c-4.22-2.25-7.32-2.96-8.59-2.96s-7.58.13-8.68-.61c-8.73-5.91 3.89-36.56 3.89-36.56L32.18 51.6z"/><path fill="#feb30b" d="M54.94 46.58s9.1-3.47 13.7-9.2c2.94-3.66 4.88-11.36 9.85-9.1 6.2 2.81-5.12 11.77-3.85 12.11 1.78.47 7.04-4.13 10.32-7.7 3.28-3.57 7.3-5.13 9.48-2.44 2.44 3-1.6 8.07-7.51 11.83-5.91 3.75-11.39 5.76-15.02 6.38-3.85.66-11.17.75-11.17.75l-7.13-.19 1.33-2.44z"/><path fill="#01ab46" d="M67.51 63.71s3.73 1.9 8.59-2.11c3.02-2.49 6.69-4.58 11.83-5.91 5.42-1.41 7.53-.63 10.21-1.48 2.67-.84 5.9-1.83 7.67-2.32 2.53-.7 4.95 2.87.7 5.21-2.82 1.55-6.41 2.46-8.87 2.75-1.41.16-5.29 1.15-6.66 1.67-2.82 1.06-5.58 3.61-5.58 3.61s7.05-2.65 11.12-2.96c4.93-.38 10.35-.14 11.9-.99 1.55-.84 5.98-3.03 7.53-.28 1.53 2.71-2.67 6.12-7.04 7.11s-9.36.42-14.01 1.34c-2.85.56-8.09 2.67-13.73 6.19-5.63 3.52-11.26 4.79-13.94 4.5-2.67-.28-7.6 6.76-7.6 6.76L43.3 88.91l-11.4 3.94s-3.8 7.32-11.26 4.79c-7.46-2.53-5.91-11.83-3.52-12.39 2.39-.56 3.52 2.39 5.77 1.69 2.25-.7 6.61-6.86 10.56-8.31 3.66-1.34 8.24-.99 8.24-6.19s-11.19-4.36-13.73-4.08c-2.53.28-12.11 3.52-17.46-.7s-6.78-19.52.28-21.54c5.91-1.69 11.26 6.05 17.03 6.05 4.65 0 5.84-3.94 10.63-8.02 3.53-3.01 7.53-4.29 10.35-2.96 2.34 1.11-5.21 3.38-3.8 3.94 0 0 5.07-1.97 9.01-2.11s4.72.38 5.21 1.27c.7 1.27-3.8 1.27-2.67 2.39 1.13 1.13 5.91-.7 9.01-.14 3.1.56 3.1 2.11 2.39 2.67-.7.56-5.56 1.55-5.63 2.96-.05.98 3.04 1.21 4.58 2.96 1.55 1.76 1.27 4.22 1.13 5.49-.16 1.26-.51 3.09-.51 3.09z"/><path fill="#78de8a" d="M46.26 52.03c-3.02.34-8.52-4.43-11.47 2.67-2.39 5.76 5.8 10 10.84 6.12 2.3-1.76 3.59-4.01 5.35-5.77 1.16-1.16 2.67-1.99 3.03-3.1.62-1.96-4.59-.27-7.75.08zM31.97 93.49s1.06-5.98 6.48-7.88 15.27-.28 17.46-.99c2.18-.7 5.23-1.87 5.84-7.6.49-4.65-.99-5.07-1.27-11.05-.33-6.97 4.22-8.67 5.77-8.59 1.27.07 2.25.92 2.32 1.9.1 1.42-.14 2.25-.14 2.25s2.5.5 3.03 4.5c.77 5.91-3.66 8.52-4.01 11.68-.35 3.17 0 8.73-5 11.54s-5.44 1.24-9.08 2.46c-1.43.48-3.87 1.9-6.69 1.48-2.82-.42-3.59-1.55-7.25-1.55-2.83.02-7.46 1.85-7.46 1.85z"/><path fill="#2a2c33" d="M42.6 58.24c-1.22 1.48-3.64 1.82-5.12.87-1.53-.98-1.35-3.63.09-5.35 1.45-1.72 3.81-2.02 5.21-.84 1.4 1.17 1.25 3.59-.18 5.32z"/><path fill="#44484a" d="M12 51.23c-1.07 1.19-.05 2.63.33 2.96s1.36.99 1.17 1.78c-.19.8-1.41 2.39-.52 3.14.89.75 3.19-.66 3.47-3.33.28-2.67-.89-3.85-1.5-4.41-.6-.56-2.06-1.13-2.95-.14z"/></svg><svg viewBox="0 0 128 128" id="1F98E" xmlns="http://www.w3.org/2000/svg"><path fill="#02ab47" d="M63.38 40.76s.86-3.6.61-3.91c-.46-.58-.9-1.34-1.2-1.79-.46-.7-2.01-2.22-2.01-2.22s-1.22.76-3.09-.43c-1.7-1.09-1.44-4.59.9-5.13 3.06-.7 3.59 2.5 3.59 2.5l1.3.77-.18-2.71s-2.14-.53-2.38-2.71c-.25-2.18 1.01-3.05 1.97-3.28 1.74-.42 3.57.56 3.61 2.91.04 1.76-.74 2.45-.74 2.45l.84 1.65.99-2.67s-1.2-1.48-.7-3.03 2.43-2.39 4.01-1.44c1.58.95 1.37 2.48.99 3.38-.51 1.2-1.87 1.51-1.87 1.51l-.6 2.85 1.06-.88s.01-1.29 1.14-2.23c.99-.83 2.18-.83 3.1.05.92.88 1.06 2.69-.28 3.57-1.34.88-2.44.75-2.44.75s-.62 1.23-1.88 3.05c-.62.9-.94 1.78-.94 1.78s.18.52.47 1.6c.49 1.82.66 5.35.66 5.35l-6.93-1.74zM37.21 65.86l-1.27-.25s-.2-.19-.48-.4c-.28-.21-2.05-2.38-2.05-2.38s-.32-2.36-.53-3.24c-.21-.88-1.45-4.47-1.45-4.47s1.41-2.21.47-3.31c-1.19-1.4-3.37-.95-3.94.56-.7 1.87.95 3.24.95 3.24l.5 2.65s-2.4-2.58-2.37-2.69c.04-.11.21-1.79-.7-2.57s-2.29-.74-3.06-.07c-.77.67-1.06 2.29-.11 3.2s1.72.92 1.72.92l2.26 2.99-2.58-.39s-.77-2.5-3.06-1.87-1.94 4.58.28 4.82c1.62.18 2.39-.74 2.39-.74l2.29 1.09-1.72.63s-1.72-.77-2.82.67c-1.09 1.44-.07 3.8 2.08 3.87S26.33 66 26.33 66s.49-.11 1.44-.11h1.48s.93 1.41 2.08 3.34c1.23 2.08 2.49 4.28 4.65 4.56 1.34.19 1.23-7.93 1.23-7.93zM58.78 85.53l-1.37.46s1.27 1.06.88 1.65c-.39.6-1.16.77-2.89.99-1.72.21-2.92.32-2.92.32s-1.16-1.83-2.82-1.44c-1.65.39-2.53 1.83-2.25 3.45.28 1.62 1.97 2.6 3.31 2.36 1.34-.25 1.69-1.2 1.69-1.2l4.08-.35-4.26 2.75s-1-.85-2.82.32c-1.9 1.22-.67 5.73 2.75 4.61 1.72-.56 1.83-2.22 1.83-2.22l4.86-3.17-2.82 4.96s-2.22.6-2.39 2.6c-.18 2.01 2 3.75 4.29 2.25 1.62-1.06.84-3.52.84-3.52l2.36-4.15-.07 4.22s-1.2.81-1.23 1.87c-.04 1.06.32 2.53 2.18 2.53s2.53-1.69 2.36-2.78c-.1-.63-.7-1.34-.7-1.34s0-5.6.32-5.84c.32-.25 6.65-1.44 6.93-4.19.35-3.37-7.74-7.11-7.74-7.11l-4.4 1.97zM90.27 53.39s4.06.36 4.2.12-2.01-2.67-2.01-2.67-1.79.45-3.17-1.02c-1.58-1.69-.06-5.85 3.24-4.68 3.11 1.11 1.9 3.84 1.9 3.84l2.01 2.29-.07-5.21s-3.55-1.03-1.74-4.2c1.5-2.63 5.35-1.04 5.11 1.31-.18 1.79-1.06 2.32-1.06 2.32l.49 2.89 1.37-2.75s-1.61-2.1.36-4.11 5.62.41 4.18 3.19c-.99 1.91-2.46 1.58-2.46 1.58l-1.55 4.58 2.32-1.9s-.49-2.22 1.72-3.27c2.56-1.22 5.62 2.11 2.69 4.79-1.2 1.09-2.58.46-2.58.46s-3.34 3.18-3.66 3.81c-.32.63.59 2.77-1.45 4.18s-4.53.92-6.22 1.06c-1.69.14-5.35.14-5.35.14l1.73-6.75z"/><path fill="#00821d" d="M79.9 59.44s-.75-3.75 1.41-5.58 6.71-.77 7.98-.66c5.26.47 4.46 1.88 4.65 3.66.15 1.45.24 2.96-2.53 3.14-1.2.08-3.32.3-3.85.7-1.17.89-1.13 8.26-1.13 8.26l-8.12-8.49 1.59-1.03zM56.72 44.14s3.38-1.31 5.16-2.53 2.06-3.54 2.11-4.75c.05-1.21 2.23-2.75 4.5.72 1.88 2.86 1.92 4.97 1.74 5.73-.28 1.17-1.88 2.16-3.66 3.24s-6.29 2.86-6.29 2.86l-3.56-5.27zM40.58 58.83s-3.71 4.69-4.55 5.54c-.84.84-1.96 3.14-2.16 4.6-.23 1.74-.47 4.46 1.92 4.79 2.39.33 7.84-5.58 7.84-5.58l2.67-3.14-5.72-6.21zM60.9 76.34s-2.39 1.64-3.75 2.44c-1.36.8-2.49 1.97-2.49 3.1 0 1.13 1.95 3.5 2.76 4.12.81.62 1.75 2.92 5.17 1.94s1.22-3.38 1.5-3.8c.28-.42 2.35-.38 4.08-.56s3.05-.75 3.38-1.13c.33-.38-10.23-6.38-10.23-6.38l-.42.27z"/><defs><path id="afa" d="M22.28 30.82c-1.41-8.63 1.69-14.45 4.6-18.86s4.45-6.86 7.41-7.32c3-.47 6.19 3.57 8.82 6.76 1.89 2.29 6.83 7.63 7.6 14.92.75 7.13-.75 12.13.19 13.61 2.44 3.85 12.2 5.35 20.84 11.54s16.99 16.42 20.27 27.31c3.28 10.89 2.91 18.58 3.28 21.87.38 3.28 1.88 13.98 9.2 13.7 6.11-.23 5.68-8.35 1.03-8.35-1.5 0-4.26.44-3.47-1.5 1.03-2.53 5.73-4.04 9.67-1.88 4.32 2.37 5.48 7.01 4.13 12.01-1.6 5.91-8.73 9.76-15.3 8.26-20.02-4.58-18.21-30.03-28.63-38.86-10.57-8.95-14.95-6.36-23.18-13.89-12.1-11.07-11.92-19.05-13.42-20.74s-11.36-8.24-13.04-18.58z"/></defs><clipPath id="afb"><use overflow="visible" xlink:href="#afa"/></clipPath><g clip-path="url(#afb)"><defs><path id="afc" d="M16.93-.41h104.45v128.62H16.93z"/></defs><clipPath id="afd"><use overflow="visible" xlink:href="#afc"/></clipPath><g clip-path="url(#afd)"><defs><path id="afe" d="M16.93-.41h104.45v128.62H16.93z"/></defs><clipPath id="aff"><use overflow="visible" xlink:href="#afe"/></clipPath></g></g><path fill="#ea7032" d="M41.23 39.64c0 .93-1.16 1.97-2.51 1.97s-2.37-1.04-2.37-1.97 1.02-1.9 2.37-1.9 2.51.97 2.51 1.9zM77.72 70.19c-.88.31-2.25-.44-2.7-1.71-.45-1.27.19-2.58 1.07-2.89.88-.31 2.13.33 2.58 1.6.46 1.27-.07 2.69-.95 3zM67.45 70.72c-1.13-.74-1.31-2.25-.64-3.42.84-1.48 2.25-1.29 3.03-.77.77.52 1.34 2.05.59 3.17-.76 1.11-2.2 1.53-2.98 1.02z"/><ellipse cx="47.53" cy="48.83" fill="#ef6c32" rx="2.53" ry="2.09" transform="rotate(-35.035 47.532 48.825)"/><path fill="#ef6c32" d="M57.35 55.4c.66.94.27 2.36-.88 3.16-1.15.8-2.38.53-3.04-.41-.66-.94-.51-2.5.63-3.31 1.15-.8 2.63-.39 3.29.56zM60.9 62.94c.66.94.58 3.07-.56 3.87-1.15.8-2.65.8-3.31-.14s-.44-3 .7-3.8 2.5-.88 3.17.07zM67.46 57.15c1.06.45 2.13 2.28 1.59 3.57-.54 1.29-1.88 1.95-2.95 1.5-1.06-.45-1.89-2.09-1.55-3.45.43-1.67 1.85-2.06 2.91-1.62z"/><ellipse cx="81.42" cy="77.23" fill="#ea7032" rx="2.36" ry="2.11"/><ellipse cx="84.58" cy="87.33" fill="#ea7032" rx="1.94" ry="1.59" transform="rotate(-45.001 84.582 87.327)"/><path fill="#0c090c" d="M32.25 24.86c0 1.96-1.2 3.66-3.59 3.66-1.9 0-3.45-1.59-3.45-3.55s1.54-3.55 3.45-3.55c1.9-.01 3.59 1.47 3.59 3.44zM46.82 23.41c-.42 1.92-1.92 3.33-4.19 2.83-1.8-.4-2.93-2.27-2.51-4.19s2.22-3.15 4.03-2.75c1.81.39 3.09 2.19 2.67 4.11z"/></svg><svg viewBox="0 0 128 128" id="1F995" xmlns="http://www.w3.org/2000/svg"><path fill="#04841f" d="M34.99 79.34l-5.49 3.1s.56 13.09-.99 18.16-3.8 8.73-4.79 10.14-3.8 2.5-2.67 6.05c.67 2.1 3.8 2.82 8.87 2.67 5.07-.14 14.36-6.9 14.36-6.9l2.96-14.64 17.6 6.76s-.42 2.25-.7 3.1c-.28.84-1.97 3.24-1.83 4.5.14 1.27 1.8 2.01 9.71 1.83 7.78-.18 9.15-9.57 9.15-9.57l-6.48-14.22-39.7-10.98z"/><path fill="#02ab47" d="M20.3 11.48c1.84-.77 3.33-7.65 10.42-6.57 7.23 1.1 6.01 7.27 6.76 8.02s6.39 2.77 6.21 7.13c-.19 4.34-1.79 8.21-6.68 9.06s-10.42-.94-12.86-.28c-2.44.66-4.69 3.33-4.22 7.6.27 2.43 2.84 15.4 11.17 22.24 9.48 7.79 14.83 7.41 26.84 7.98 12.01.56 19.85 2.49 26.94 8.82 5.05 4.51 9.21 17.15 22.15 14.55 11.92-2.39 5.82-14.73-2.16-16.52-4.6-1.03-9.01-.94-9.1-2.63-.09-1.69 3.34-3.41 9.34-3.14 7.32.33 18.25 6.01 18.07 16.94-.18 10.63-10.23 14.83-10.23 14.83l-12.29 3.47-12.68 2.11s.18 2.12 1.58 4.75 3.1 7.88 1.65 10.63c-.94 1.78-3.27 2.43-9.68 2.5-5.22.06-9.94-.67-10.1-2.64-.19-2.35.83-3.18 2.25-4.15 1.5-1.03 1.28-1.61 1.48-3.17.2-1.56-.1-4.44-.53-5.81-.42-1.34-1.65-3.31-1.65-3.31l-22.63.21s-.38.84-.56 4.5c-.19 3.66.55 8.77-.09 10.23-.89 2.02-3.57 3.94-10.14 4.04-6.57.09-10.61-1.5-10.32-5.07.28-3.57 3-4.13 3.94-5.73.94-1.6 3.24-7.27 3.47-9.71.2-2.07-.19-4.93-.09-6.52S33.07 84.5 33.07 84.5s-7.51-9.48-10.79-12.86c-3.07-3.16-9.1-10.7-9.1-10.7S4.73 47.05 5.76 33.91 13.55 14.3 20.3 11.48z"/><path fill="#bdce46" d="M12.33 32.25c3.07-7.3 8.66-9.43 11.26-10.28s7.88-1.55 10.14-1.9 9.92-.84 9.92-.84.24.59.14 1.79c-.11 1.34-.56 2.01-.56 2.01s-8.45 1.2-8.45 2.75 2.46 1.41 3.45 1.41 2.96-.07 2.96-.07-.46 1.34-2.99 2.04c-2.51.7-6.3.63-9.47.77s-5.21.7-6.12 1.9c-.92 1.2-4.36 3.8-2.46 17.46s11.3 28.88 13.55 33.08c.81 1.51 3.55 4.96 3.7 6.23.06.58-.59 1.91-.81 3.73-.26 2.17-.11 4.82-.11 4.82s-3.04-3.97-4.36-6.41c-2.11-3.87-2.6-7-2.6-7s-11.19-10.8-16.26-21.72-3.89-22.73-.93-29.77z"/><path fill="#303030" d="M35.2 18.38c.03 1.61-1.67 2.84-3.55 2.39-1.2-.28-1.93-1.29-1.69-2.89.24-1.59 1.11-2.65 2.57-2.82 1.51-.16 2.64 1.17 2.67 3.32z"/><path fill="#bdce46" d="M49.88 106.86s-.21-3.31 1.06-4.96c.65-.85 1.13-1.34 1.13-1.34s6.86.51 9.96.6c3.8.11 10.84-.14 10.84-.14l.6 2.57c.42 1.83 1.16 3.66 1.16 3.66s-6.12.66-12.53.56c-7.01-.1-12.22-.95-12.22-.95zM87.12 101.76s.32.81.46 1.62c.13.72.32 1.79.32 1.79s11.09.28 19.32-1.97c8.24-2.25 12.92-8.35 13.87-10.21.99-1.94 1.57-3.84.53-2.43-2.04 2.78-5.53 7.5-14.39 9.75s-20.11 1.45-20.11 1.45z"/><circle cx="50.51" cy="77.55" r="2.33" fill="#7cdb8a" transform="rotate(-81.749 50.512 77.559)"/><ellipse cx="60.57" cy="75.81" fill="#7cdb8a" rx="2.01" ry="1.86" transform="rotate(-77.45 60.572 75.814)"/><ellipse cx="72.55" cy="82.33" fill="#7cdb8a" rx="2.22" ry="2.29"/><ellipse cx="69.19" cy="74.83" fill="#7cdb8a" rx="1.68" ry="1.76"/><ellipse cx="62.38" cy="83.1" fill="#7cdb8a" rx="1.76" ry="1.87"/><ellipse cx="80.1" cy="76.93" fill="#7cdb8a" rx="1.64" ry="1.84"/><ellipse cx="82.52" cy="86.08" fill="#7cdb8a" rx="1.48" ry="1.45" transform="rotate(-4.537 82.5 86.062)"/><ellipse cx="41.82" cy="69.48" fill="#7cdb8a" rx="1.76" ry="1.55" transform="rotate(-77.814 41.82 69.482)"/><ellipse cx="54.34" cy="69.37" fill="#7cdb8a" rx="1.62" ry="1.48" transform="rotate(-77.954 54.345 69.367)"/></svg><svg viewBox="0 0 128 128" id="1F996" xmlns="http://www.w3.org/2000/svg"><path fill="#e8dd9e" d="M5.48 31.52l8.45 1.27 7.27 5.23s-1.71 2.75-3.78 2.09c-2.18-.69-1.83-3.59-1.83-3.59s-1.48 2.37-2.98 1.71c-1.9-.83-1.78-3.47-1.78-3.47s-1.42 1.8-3.1 1.22c-2.72-.94-2.25-4.46-2.25-4.46z"/><path fill="#ff631a" d="M34.57 31l-22.24-4.88-5.82.75S4.35 30.34 4.54 31c.19.66.56 1.31 1.78 1.69 1.22.38 5.91 1.31 7.7 2.25 1.78.94 7.13 4.97 7.13 4.97s-1.64 2.77-3.97 4.97c-1.11 1.05-7.11 5.07-7.11 5.07l8.92 1.88 15.86-9.48L34.57 31z"/><path fill="#596514" d="M43.49 56.91s-5.26-1.69-7.41 2.82c-2.16 4.5.39 6.01-1.78 8.35-1.22 1.31-2.44-.47-5.16 1.31-2.04 1.33-3.1 4.41-2.72 7.04.38 2.63 1.88 6.01 3.57 5.73 1.69-.28 1.13-3.94 1.13-3.94s1.29 3.47 2.91 3.47c2.35 0 1.03-5.35 1.69-5.73.66-.38 4.06.58 6.38-.66 2.82-1.5 5.26-10.89 5.26-10.89l-3.87-7.5zM60.29 53.25S43.42 72 43.02 80.84c-.34 7.6 3.38 12.01 7.23 14.27 3.85 2.25 8.54 3.47 8.54 8.07s-5.35 5.63-7.6 5.82c-2.25.19-5.54.73-8.28 2.18-2.76 1.46-4.2 5.18-2.7 6.08.94.56 4.79-1.67 4.79-1.67s-1.33 3.33.38 3.64c2.86.52 7.79-2.53 7.79-2.53s-1.71 2.25-.49 2.77c1.94.82 4.53-.7 5.65-1.36 1.13-.66 4.04-2.91 5.82-3 1.78-.09 5.35.47 5.44-.38.09-.84-2.82-4.08-2.91-7.09-.09-3 2.06-6.24 2.06-9.15s-6.48-4.79-6.1-9.85c.14-1.95 12.12-17.04 11.92-23.56-.33-10.43-14.27-11.83-14.27-11.83zM102.8 50.71s8.07-3.19 7.7-5.91-7.32-4.13-9.2-4.32c-1.88-.19-5.35-1.03-7.13-2.82-1.78-1.78-2.44-4.13-1.41-4.6 1.03-.47 5.35 1.6 5.35 1.6s11.36.47 12.95.75 12.11 5.82 8.35 11.07c-3.75 5.27-16.61 4.23-16.61 4.23z"/><path fill="#fff" d="M8.03 27.81s.99 4.22 3.03 4.36c2.04.14 2.53-3.8 2.53-3.8l1.13-.99s-1.41 5 1.27 6.05c2.67 1.06 2.18-4.93 2.18-4.93l1.06.99s.07 6.9 2.53 6.76c2.46-.14 2.46-5.07 2.46-5.07l-6.97-7.04-9.22 3.67z"/><path fill="#e3d9a8" d="M48.18 82.67s-.63 4.22 1.27 4.65 1.69-3.66 1.69-3.66l-2.96-.99zM53.44 85.39s.28 4.08 2.11 3.73c1.83-.35.63-5.07.63-5.07l-2.74 1.34z"/><path fill="#fff" d="M27.11 46.33s-.19-4.76-2.32-4.29c-1.17.26-1.9 1.83-2.04 3.94-.07.98-.49 3.24-.49 3.24h-.84s-.35-4.15-2.32-3.73c-1.97.42-2.11 5.07-2.11 5.07l5.21 1.06 4.91-5.29z"/><path fill="#e3e0aa" d="M15.33 49.54s-.14-4.72-2.04-4.43-1.9 3.24-1.9 3.24-1.13-2.26-2.39-1.77-1.03 2.32-.12 4.15c.87 1.76 6.45-1.19 6.45-1.19z"/><path fill="#fff" d="M13.59 50.97s.42-4.65-.49-4.79c-.92-.14-.92 1.27-.92 1.97s.14 3.03.14 3.03l1.27-.21z"/><path fill="#96a820" d="M39.26 24.18s-.73-3.94-3.68-4.86c-5.44-1.69-8.7 2.98-8.7 2.98s-4.11-.23-6.66-1.22-7.11-3.51-10.49-2.14c-2.77 1.13-4.15 3.82-4.9 6.92s-.28 5.16-.28 5.16 3.19-3.1 6.85-2.82c3.66.28 9.29 3.19 10.79 3.94s9.95 3.19 9.95 3.19-1.69 5.35-2.91 6.85c-1.22 1.5-3.85 3.57-7.98 5.35-4.13 1.78-12.2 3.1-12.2 3.1s.56 6.57 2.82 7.6c2.25 1.03 6.29 1.88 9.29.56s13.8-2.25 13.8-2.25 1.69.75 3.1 2.35 3.28 3.57 4.13 5.91c.84 2.35 1.69 4.97 2.44 6.48.75 1.5 2.53 5.16 2.53 5.16s1.41-2.82 3.38-3.47c1.97-.66 4.6-.19 4.6-.19s-.31-10.4 1.97-14.08c2.25-3.64 4.97-4.41 8.07-4.22 3.1.19 3.66 2.16 1.22 2.16s-6.08.87-7.39 3.78-1.53 4.86-1.9 7.58c-.38 2.72-.38 6.1-.38 6.1s-3.47-.47-5.54.38c-2.06.84-3.38 3.57-3.57 5.44-.19 1.88.38 4.41 2.06 4.5 1.69.09 2.16-1.78 2.16-1.78s.28 3.75 3.28 3.28c3-.47 2.11-2.75 3.61-4.53s4.58-2.11 7.86-6.52c3.28-4.41 3.21-6.9 3.21-7.65s-.16-2.86.87-2.96c1.03-.09 1.15 2.04 1.15 2.98s-.84 5.8-3.75 9.1c-2.32 2.64-6.38 4.69-7.6 6.48s-1.15 4.06-1.13 4.13c.21.64 3.47 1.78 6.95 2.06 3.47.28 6.57-1.22 6.57-1.22s0 3.94.38 7.04 2.63 5.91 2.25 9.39c-.38 3.47-2.25 6.29-3.57 7.04-1.31.75-7.22 3.04-6.59 5.4.45 1.69 3.69 1.34 5.19 1.08 1.62-.28 2.53-.49 4.04-.31 1.5.19.56 4.41 3.47 4.22 2.91-.19 5.35-4.18 7.04-4.11 2.3.09 6.6 3.29 9.06 1.22 1.95-1.64-1.74-4.5-3.99-6.76s-4.5-5.54-4.32-11.26c0 0 .38-9.01.47-11.64.09-2.63.09-7.32.09-7.32s4.41-3.28 6.48-5.54c2.06-2.25 2.35-3.85 5.91-6.95 3.57-3.1 12.29-2.56 21.3-10.79 4.45-4.07 6.1-13.7.19-20.46-5.91-6.76-17.08-4.04-19.43-4.32-2.35-.28-5.91-2.25-7.46-1.43-1.23.65-1.13 1.69-1.13 1.69s4.38 2.32 7.46 2.84c6.03 1.01 16.61-1.5 16.8 5.91s-19.71 7.98-21.59 7.79c-1.88-.19-12.37-6.24-16.21-7.23-3.41-.87-8.35-1.73-11.94-1.5-3.75.23-6.5.94-9.2 2.16-1.31.59-2.18 1.29-2.18 1.29s-6.54-13.76-10.39-17.62c-3.01-2.97-5.73-3.44-5.73-3.44z"/><path fill="#5a6610" d="M33.44 34.15c-.56-.77-5.98-.21-8.8-1.76-2.82-1.55-9.92-5.77-14.01-5.49-4.08.28-6.08 3.21-6.1 4.11-.02.89.68.89 1.53-.02s2.67-2.6 6.41-1.97c3.73.63 10.91 5.14 13.73 6.26 2.82 1.13 5.14.42 5.14.42s-.07 1.64-1.06 3.4-4.01 5.77-2.42 4.69c1.83-1.24 4.01-4.17 4.55-5.42.71-1.62 1.03-4.22 1.03-4.22z"/><ellipse cx="32.75" cy="24.89" fill="#31312f" rx="2.61" ry="2.5" transform="rotate(-33.816 32.749 24.893)"/><path fill="#586214" d="M46.18 38.16c1.21-1.21 3.91 4.67 1.71 11.57-1.13 3.54-4.46 6.73-10.23 7.93s-7.81.21-11.12.63-7.25 3.24-12.6 1.62-5.28-6.34-5.56-7.6c-.28-1.27-.09-1.76.66-1.69s.92 4.16 1.99 5.65c.96 1.34 3.73 2.77 6.15 2.51 3.24-.35 3.8-1.76 9.43-2.75s12.32-.14 16.4-6.19c4.49-6.65 2.12-10.62 3.17-11.68z"/><path fill="#586415" d="M70.54 48.02c.4 3.08-.03 5.7-.92 7.25-.77 1.36-3.07 1.36-3.07 1.36s-.87-.87-2.42-1.15c-1.55-.28-1.48-1.55-1.55-3.45s-.97-3.36-1.79-4.86c-.99-1.79-2.67-3.45-2.67-3.45s1.17-.79 4.66-1.53c2.54-.54 4.81-.45 4.81-.45s2.53 3.04 2.95 6.28zM73.14 42.21S76 44.56 76.17 49c.18 4.79-.87 10.05 2.25 10.98 3.24.96 5.84-1.69 6.26-5.84.42-4.15-.6-8.62-.6-8.62s-2.96-1.44-5.38-2.22c-1.36-.44-5.56-1.09-5.56-1.09zM92.64 59.32c2.71.81 4.15-1.24 4.79-4.55s.68-4.27.68-4.27-2.04.14-3.28-.05c-.76-.12-4.18-1.67-4.18-1.67s.02 3.09.02 4.15c0 2.69-.61 5.62 1.97 6.39z"/><path fill="#596514" d="M80.11 79.13c-.86 1.45-1.93 2.31-2.8 1.96-.87-.34-1.1-1.82-.65-3.44.57-2.09 2.03-2.58 2.9-2.24.87.34 1.57 2 .55 3.72z"/><ellipse cx="82.66" cy="95.19" fill="#596514" rx="1.73" ry="1.11" transform="rotate(-83.275 82.658 95.194)"/><ellipse cx="82.33" cy="88.28" fill="#596514" rx="1.3" ry="1.9"/></svg></svg>