<?xml version="1.0" encoding="utf-8"?><svg viewBox="0 0 128 128" xmlns="http://www.w3.org/2000/svg" xmlns:xlink="http://www.w3.org/1999/xlink"><style>:root>svg{display:none}:root>svg:target{display:block}</style><svg viewBox="0 0 128 128" style="enable-background:new 0 0 128 128" id="1F60D" xmlns="http://www.w3.org/2000/svg"><radialGradient id="aaa" cx="63.6" cy="512.9" r="56.96" gradientTransform="translate(0 -450)" gradientUnits="userSpaceOnUse"><stop offset=".5" style="stop-color:#fde030"/><stop offset=".92" style="stop-color:#f7c02b"/><stop offset="1" style="stop-color:#f4a223"/></radialGradient><path style="fill:url(#aaa)" d="M63.6 118.8c-27.9 0-58-17.5-58-55.9S35.7 7 63.6 7c15.5 0 29.8 5.1 40.4 14.4 11.5 10.2 17.6 24.6 17.6 41.5s-6.1 31.2-17.6 41.4c-10.6 9.3-25 14.5-40.4 14.5z"/><path style="fill:#eb8f00" d="M111.49 29.67c5.33 8.6 8.11 18.84 8.11 30.23 0 16.9-6.1 31.2-17.6 41.4-10.6 9.3-25 14.5-40.4 14.5-18.06 0-37-7.35-48.18-22.94 10.76 17.66 31 25.94 50.18 25.94 15.4 0 29.8-5.2 40.4-14.5 11.5-10.2 17.6-24.5 17.6-41.4 0-12.74-3.47-24.06-10.11-33.23z"/><path style="fill:#422b0d" d="M64.4 83.3c-3.58 0-7.13-.6-10.5-1.8-4.15-1.43-8.66.78-10.09 4.92-.81 2.34-.48 4.92.89 6.98 4.3 6.6 11.1 10.2 19.7 10.2s15.4-3.6 19.7-10.2c2.43-3.65 1.43-8.58-2.22-11.01a7.921 7.921 0 00-6.98-.89c-3.37 1.2-6.92 1.8-10.5 1.8z"/><radialGradient id="aab" cx="66.245" cy="-1690.454" r="19.461" gradientTransform="matrix(.98 0 0 .88 -30.72 1552.71)" gradientUnits="userSpaceOnUse"><stop offset="0" style="stop-color:#ed7770"/><stop offset=".9" style="stop-color:#ed7770;stop-opacity:0"/></radialGradient><ellipse style="opacity:.8;fill:url(#aab);enable-background:new" cx="34.2" cy="72.7" rx="17.5" ry="16.5"/><radialGradient id="aac" cx="123.12" cy="-2397.59" r="19.46" gradientTransform="matrix(1 0 0 -1 0 130)" gradientUnits="userSpaceOnUse"><stop offset="0" style="stop-color:#ed7770"/><stop offset=".9" style="stop-color:#ed7770;stop-opacity:0"/></radialGradient><ellipse style="opacity:.8;fill:url(#aac);enable-background:new" cx="94.6" cy="72.7" rx="17.5" ry="16.5"/><path style="fill:#f44336" d="M107.59 34.37c-8.21-2.31-14.24 4.4-14.24 4.4s-.7-7.61-7.72-10c-8.42-2.89-17.31 1.71-17.84 13.64-.6 13.59 17.38 31.43 17.38 31.43s22.32-6 29.63-18.72c5.95-10.35-1-19.01-7.21-20.75z"/><path style="fill:#c62828" d="M107.59 34.37a11.13 11.13 0 00-3.09-.37 18.91 18.91 0 016.72 7.94c1.41 3.39 1.78 7.77-.9 13-5.81 11.37-23.7 18.41-25 18.9 1.63-.46 22.49-6.46 29.52-18.69 5.91-10.38-1.04-19.04-7.25-20.78zM93.34 40c-.06-1.04-.22-2.08-.46-3.1a10.43 10.43 0 00-5-7c-1.78-1.04-3.75-1.7-5.79-1.95 0 0 3 .91 5.14 5.06 1.09 2.18 1.74 4.56 1.9 6.99-.01.89.15 1.76.47 2.59.36.83 1.24 1.32 2.14 1.18 1.37-.35 1.67-2.06 1.6-3.77z"/><path style="fill:#ff847a" d="M73.9 35.23c1.87-2.32 4.94-4.53 7.88-2.49 1.56 1.09 1.58 4.18-.33 5.57-3.22 2.36-3.37 3.91-3.73 5.21-.44 1.55-.72 3.4-2.13 4.18s-2.65 0-3.39-2.23c-1.26-3.48-.62-7.36 1.7-10.24z"/><path style="fill:#f44336" d="M40.72 28.57c-8.11 2.63-9.41 11.56-9.41 11.56s-4.8-6-12-4.06C10.72 38.33 5.87 47.09 12 57.3 19.1 69 43.94 73.85 43.94 73.85s15.25-17.36 14.29-32c-.79-11.92-11.38-15.27-17.51-13.28z"/><path style="fill:#c62828" d="M40.72 28.57c-.99.32-1.94.78-2.81 1.36 3.54.01 7 1.01 10 2.89 3.06 2 5.79 5.48 6.47 11.33C55.85 56.84 44.85 72.61 44 73.76c1.11-1.28 15.14-17.84 14.22-31.92-.78-11.91-11.37-15.26-17.5-13.27zM32 41.18c-.62-.85-1.32-1.63-2.1-2.33-2.1-2.14-5.01-3.28-8-3.12-2.05.12-4.06.65-5.9 1.58 0 0 3-.91 7.08 1.37 2.13 1.23 3.98 2.88 5.46 4.84.48.75 1.1 1.39 1.83 1.9.76.49 1.76.4 2.43-.21.89-1.08.2-2.66-.8-4.03z"/><path style="fill:#ff847a" d="M13.2 48c.04-.84.19-1.67.44-2.47.41-1.68 1.6-3.07 3.19-3.74 1.53-.48 3.65-.14 4.47 1.39.73 1.36.2 3-.2 4.5-.36 1.72-.56 3.48-.6 5.24a2.61 2.61 0 01-2.58 2.63c-1.36 0-2.42-1.18-3.18-2.31A8.735 8.735 0 0113.2 48z"/></svg><svg viewBox="0 0 128 128" style="enable-background:new 0 0 128 128" id="1F617" xmlns="http://www.w3.org/2000/svg"><radialGradient id="aba" cx="63.6" cy="512.9" r="56.96" gradientTransform="translate(0 -450)" gradientUnits="userSpaceOnUse"><stop offset=".5" style="stop-color:#fde030"/><stop offset=".92" style="stop-color:#f7c02b"/><stop offset="1" style="stop-color:#f4a223"/></radialGradient><path style="fill:url(#aba)" d="M63.6 118.8c-27.9 0-58-17.5-58-55.9S35.7 7 63.6 7c15.5 0 29.8 5.1 40.4 14.4 11.5 10.2 17.6 24.6 17.6 41.5s-6.1 31.2-17.6 41.4c-10.6 9.3-25 14.5-40.4 14.5z"/><g><path style="fill:#422b0d" d="M72.86 84.93a8.974 8.974 0 003-5.87c.19-3.6-.73-4.84-1.91-6.41-2.71-3.65-10.4-2.78-10.4-2.78-2 .08-4.44 1.06-4.15 3.44A3.861 3.861 0 0062.27 76c3 .73 7.37 0 7.49 3.09.14 3.46-5.18 2-5.6 5.7s5.6 3.19 5.6 5.71c0 1.93-2 2.26-4.07 2.7-1.79.37-5.23.93-5.51 3s.91 4.57 5.75 3.84c7.61-1.15 10.17-5.32 10.17-7.88a9.328 9.328 0 00-3.24-7.23zM44 40.94c-4.19 0-8 3.54-8 9.42s3.81 9.41 8 9.41c4.2 0 8-3.54 8-9.41s-3.76-9.42-8-9.42z"/><path style="fill:#896024" d="M43.65 44.87a2.874 2.874 0 00-3.82 1.34c-.53 1.11-.29 2.44.6 3.3 1.42.68 3.13.08 3.82-1.34.53-1.11.29-2.44-.6-3.3z"/><path style="fill:#422b0d" d="M82.4 40.94c-4.19 0-8 3.54-8 9.42s3.81 9.41 8 9.41c4.19 0 8-3.54 8-9.41s-3.81-9.42-8-9.42z"/><path style="fill:#896024" d="M82 44.87a2.874 2.874 0 00-3.82 1.34c-.53 1.11-.29 2.44.6 3.3 1.42.68 3.13.08 3.82-1.34.53-1.11.29-2.44-.6-3.3z"/><path style="fill:#eb8f00" d="M111.49 29.67c5.33 8.6 8.11 18.84 8.11 30.23 0 16.9-6.1 31.2-17.6 41.4-10.6 9.3-25 14.5-40.4 14.5-18.06 0-37-7.35-48.18-22.94 10.76 17.66 31 25.94 50.18 25.94 15.4 0 29.8-5.2 40.4-14.5 11.5-10.2 17.6-24.5 17.6-41.4 0-12.74-3.47-24.06-10.11-33.23z"/></g></svg><svg viewBox="0 0 128 128" style="enable-background:new 0 0 128 128" id="1F618" xmlns="http://www.w3.org/2000/svg"><radialGradient id="aca" cx="63.6" cy="512.9" r="56.96" gradientTransform="translate(0 -450)" gradientUnits="userSpaceOnUse"><stop offset=".5" style="stop-color:#fde030"/><stop offset=".92" style="stop-color:#f7c02b"/><stop offset="1" style="stop-color:#f4a223"/></radialGradient><path style="fill:url(#aca)" d="M63.6 118.8c-27.9 0-58-17.5-58-55.9S35.7 7 63.6 7c15.5 0 29.8 5.1 40.4 14.4 11.5 10.2 17.6 24.6 17.6 41.5s-6.1 31.2-17.6 41.4c-10.6 9.3-25 14.5-40.4 14.5z"/><path style="fill:#eb8f00" d="M111.49 29.67c5.33 8.6 8.11 18.84 8.11 30.23 0 16.9-6.1 31.2-17.6 41.4-10.6 9.3-25 14.5-40.4 14.5-18.06 0-37-7.35-48.18-22.94 10.76 17.66 31 25.94 50.18 25.94 15.4 0 29.8-5.2 40.4-14.5 11.5-10.2 17.6-24.5 17.6-41.4 0-12.74-3.47-24.06-10.11-33.23z"/><path style="fill:#e53935" d="M120.39 82.08c-1.11-5.52-6.49-9.1-12.02-7.98-.82.17-1.62.43-2.37.79.35-5.61-3.91-10.45-9.52-10.8-3.57-.22-6.99 1.44-9.02 4.38-3.65 5.46-2.68 13.24-1 19.36 1 3.61-.23 7.48-3.13 9.85 20.28 3.89 30.23.1 35.55-8a10.06 10.06 0 001.51-7.6z"/><path style="fill:#c62828" d="M98.09 100.78c-1.14 0-10.91-.91-14.84-3.11.15-.23 6-.06 14.61.08 2.93.06 5.85-.25 8.69-.94 4-1 7.76-3 10-6.53 1.3-2 2.65-4.74 2.4-7.15-.46-3.11-1.91-5.99-4.13-8.21a10.2 10.2 0 014.47 2.78c3.28 3.94 2.8 9.58-.23 14.22-3.81 5.92-10.74 8.86-20.97 8.86z"/><path style="fill:#ef5350" d="M90.56 67.63a7.613 7.613 0 014.24-1.89c1.62-.12 3.5.69 3.84 2.28.13 1.1-.23 2.2-1 3-.73.85-1.63 1.52-2.32 2.39-1.87 2.34-1.94 5.63-3.35 8.27-.5.93-1.51 1.87-2.47 1.44-.3-.15-.55-.37-.74-.64-3.38-4.12-2.16-11.48 1.8-14.85z"/><path style="fill:#c62828" d="M104.73 79.1c-.37.26-.82.37-1.27.31-.46-.1-.84-.43-1-.87-.17-.48-.04-1.01.33-1.35.36-.45.61-.97.75-1.52.3-1.15.38-2.34.25-3.52-.15-1.89-1.52-4.65-2.3-6.38 1.76 1.09 3.17 2.67 4.06 4.54.62 1.56.91 3.22.87 4.9.08 1.43-.48 2.82-1.53 3.8l-.16.09z"/><path style="fill:#422b0d" d="M97.43 55.43l-.19-.27c-.18-.26-.38-.51-.59-.75-.71-.82-1.53-1.55-2.42-2.17-1.2-.84-2.5-1.53-3.87-2.05-.75-.29-1.52-.54-2.3-.73-.39-.1-.82-.2-1.25-.28l-.6-.11c.19-.11.38-.22.58-.32l1.75-.92c1.14-.58 2.2-1.08 3.1-1.49s1.64-.69 2.14-.88l.76-.28.22-.08a2.753 2.753 0 001.64-3.54 2.768 2.768 0 00-2.49-1.81c-.42-.02-.83-.02-1.25 0-1.01.09-2.02.26-3 .51-1.34.33-2.65.77-3.93 1.3-.68.29-1.4.58-2.09.93s-1.44.74-2.06 1.08-1.37.81-2 1.24-1.28.88-1.88 1.32c-1.11.82-2.15 1.73-3.13 2.7-.73.72-1.4 1.5-2 2.34-.21.26-.41.54-.57.83l-.14.23c-.37.65-.46 1.42-.25 2.14.03.24.09.47.17.69.57 1.41 2.18 2.1 3.6 1.53l.25-.1.29-.12.24-.05.8-.2c.32-.08.71-.14 1.13-.21.99-.14 2-.22 3-.22 1.19 0 2.37.09 3.55.25.2 0 .73.1.94.15l.84.17c.59.13 1.16.25 1.69.42.96.26 1.91.6 2.82 1 .61.27 1.19.59 1.76.94.4.24.6.38.6.38l.28.21a2.731 2.731 0 003.84-3.79l.02.01zM72.86 84.93a8.974 8.974 0 003-5.87c.19-3.6-.73-4.84-1.91-6.41-2.71-3.65-10.4-2.78-10.4-2.78-2 .08-4.44 1.06-4.15 3.44A3.861 3.861 0 0062.27 76c3 .73 7.37 0 7.49 3.09.14 3.46-5.18 2-5.6 5.7s5.6 3.19 5.6 5.71c0 1.93-2 2.26-4.07 2.7-1.79.37-5.23.93-5.51 3s.91 4.57 5.75 3.84c7.61-1.15 10.17-5.32 10.17-7.88a9.328 9.328 0 00-3.24-7.23zM43.4 31.06c2.21-.67 1.89-3.89-.6-3.64-1.94.23-3.83.76-5.6 1.58-4.84 2.16-8.66 6.1-10.68 11-.9 2.3 2.14 3.45 3.33 1.57 3.21-4.92 7.98-8.63 13.55-10.51zM43.67 40.94c-4.19 0-8 3.54-8 9.42s3.81 9.41 8 9.41c4.19 0 8-3.54 8-9.41s-3.81-9.42-8-9.42z"/><path style="fill:#896024" d="M43.28 44.87a2.874 2.874 0 00-3.82 1.34c-.53 1.11-.29 2.44.6 3.3 1.42.68 3.13.08 3.82-1.34.53-1.11.29-2.44-.6-3.3z"/></svg><svg viewBox="0 0 128 128" style="enable-background:new 0 0 128 128" id="1F619" xmlns="http://www.w3.org/2000/svg"><radialGradient id="ada" cx="63.6" cy="512.9" r="56.96" gradientTransform="translate(0 -450)" gradientUnits="userSpaceOnUse"><stop offset=".5" style="stop-color:#fde030"/><stop offset=".92" style="stop-color:#f7c02b"/><stop offset="1" style="stop-color:#f4a223"/></radialGradient><path style="fill:url(#ada)" d="M63.6 118.8c-27.9 0-58-17.5-58-55.9S35.7 7 63.6 7c15.5 0 29.8 5.1 40.4 14.4 11.5 10.2 17.6 24.6 17.6 41.5s-6.1 31.2-17.6 41.4c-10.6 9.3-25 14.5-40.4 14.5z"/><g><path style="fill:#422b0d" d="M72.86 84.93a8.974 8.974 0 003-5.87c.19-3.6-.73-4.84-1.91-6.41-2.71-3.65-10.4-2.78-10.4-2.78-2 .08-4.44 1.06-4.15 3.44A3.861 3.861 0 0062.27 76c3 .73 7.37 0 7.49 3.09.14 3.46-5.18 2-5.6 5.7s5.6 3.19 5.6 5.71c0 1.93-2 2.26-4.07 2.7-1.79.37-5.23.93-5.51 3s.91 4.57 5.75 3.84c7.61-1.15 10.17-5.32 10.17-7.88a9.328 9.328 0 00-3.24-7.23zM49 56.89l-.15-.2-.43-.55-.53-.57c-.22-.25-.48-.49-.73-.75s-.56-.51-.84-.72c-.26-.2-.54-.39-.84-.54-.2-.11-.42-.2-.65-.25a.739.739 0 00-.21 0H44.45h.27-.55c-.15 0-.05 0 0 0h.08c.08 0 0 0 0 0h-.11c-.23.05-.45.13-.66.25-.29.16-.58.34-.84.54-.29.22-.57.46-.83.72-.53.51-1 1-1.3 1.39l-.52.6-.23.27a4.231 4.231 0 01-5.62.61 3.54 3.54 0 01-1.47-3.48s.07-.4.26-1.11c.3-1.01.72-1.99 1.25-2.91.85-1.5 2-2.81 3.38-3.85.91-.7 1.92-1.26 3-1.65.3-.12.61-.21.92-.29.33-.1.66-.17 1-.23l.61-.09.51-.06h1.85c.34 0 .67.09 1 .14.64.11 1.28.28 1.89.51 1.08.39 2.09.95 3 1.65 1.38 1.04 2.53 2.35 3.38 3.85.31.52.58 1.07.8 1.63.19.45.35.9.48 1.37.07.24.13.48.16.72v.25c.3 2.04-1.12 3.94-3.16 4.24-.05.01-.1.01-.15.02-1.46.21-2.92-.37-3.85-1.51zM88.46 56.89l-.16-.2-.43-.55-.53-.57c-.22-.25-.48-.49-.73-.75s-.56-.51-.84-.72c-.26-.2-.54-.39-.84-.54-.2-.11-.42-.2-.65-.25a.739.739 0 00-.21 0H83.9h.27-.55c-.15 0-.05 0 0 0h.08c.08 0 0 0 0 0h-.11c-.23.05-.45.13-.66.25-.29.15-.57.34-.83.54-.3.22-.58.46-.84.72-.53.51-1 1-1.3 1.39l-.52.6-.22.27a4.244 4.244 0 01-5.63.61 3.54 3.54 0 01-1.47-3.48s.07-.4.27-1.11c.3-1.02.71-2 1.25-2.91.85-1.5 1.99-2.81 3.37-3.85.91-.7 1.92-1.26 3-1.65.3-.12.61-.21.92-.29.33-.1.66-.17 1-.23l.62-.09.5-.06h1.85c.34 0 .67.09 1 .14.65.11 1.28.28 1.89.51 1.08.39 2.09.95 3 1.65 1.38 1.04 2.53 2.35 3.38 3.85.31.52.58 1.07.8 1.63.19.44.35.89.48 1.35.07.24.13.48.16.72v.25a3.74 3.74 0 01-3.12 4.27c-.03 0-.06.01-.09.01-1.49.25-3-.33-3.94-1.51z"/><path style="fill:#eb8f00" d="M111.49 29.67c5.33 8.6 8.11 18.84 8.11 30.23 0 16.9-6.1 31.2-17.6 41.4-10.6 9.3-25 14.5-40.4 14.5-18.06 0-37-7.35-48.18-22.94 10.76 17.66 31 25.94 50.18 25.94 15.4 0 29.8-5.2 40.4-14.5 11.5-10.2 17.6-24.5 17.6-41.4 0-12.74-3.47-24.06-10.11-33.23z"/></g></svg><svg viewBox="0 0 128 128" style="enable-background:new 0 0 128 128" id="1F61A" xmlns="http://www.w3.org/2000/svg"><radialGradient id="aea" cx="63.6" cy="512.9" r="56.96" gradientTransform="translate(0 -450)" gradientUnits="userSpaceOnUse"><stop offset=".5" style="stop-color:#fde030"/><stop offset=".92" style="stop-color:#f7c02b"/><stop offset="1" style="stop-color:#f4a223"/></radialGradient><path style="fill:url(#aea)" d="M63.6 118.8c-27.9 0-58-17.5-58-55.9S35.7 7 63.6 7c15.5 0 29.8 5.1 40.4 14.4 11.5 10.2 17.6 24.6 17.6 41.5s-6.1 31.2-17.6 41.4c-10.6 9.3-25 14.5-40.4 14.5z"/><radialGradient id="aeb" cx="24.276" cy="-274.454" r="19.452" gradientTransform="matrix(.98 0 0 -.93 3.46 -181.12)" gradientUnits="userSpaceOnUse"><stop offset="0" style="stop-color:#ed7770"/><stop offset=".08" style="stop-color:#ed7770;stop-opacity:.96"/><stop offset=".22" style="stop-color:#ed7770;stop-opacity:.85"/><stop offset=".39" style="stop-color:#ed7770;stop-opacity:.68"/><stop offset=".59" style="stop-color:#ed7770;stop-opacity:.43"/><stop offset=".81" style="stop-color:#ed7770;stop-opacity:.13"/><stop offset=".9" style="stop-color:#ed7770;stop-opacity:0"/></radialGradient><circle style="opacity:.8;fill:url(#aeb);enable-background:new" cx="27.25" cy="74.16" r="17.5"/><path style="fill:#422b0d" d="M50.15 59.1l-.15-.22-.21-.27c-.08-.11-.16-.2-.26-.29l-.62-.62c-.25-.25-.55-.52-.86-.79-.66-.57-1.4-1.03-2.2-1.39-.78-.35-1.63-.52-2.48-.52H43a.708.708 0 00-.29 0c-.18.02-.36.05-.54.09-.42.1-.82.23-1.22.39-.8.36-1.54.82-2.2 1.39-.54.46-1.04.95-1.51 1.47l-.57.64-.3.34a3.328 3.328 0 01-4.69.39 3.341 3.341 0 01-.97-3.71l.11-.32c.1-.31.22-.61.35-.91.48-1.09 1.09-2.11 1.83-3.04 1.75-2.31 4.21-3.99 7-4.79.57-.15 1.15-.26 1.74-.34.3 0 .74-.09.87-.09h.76c1.14.02 2.27.18 3.37.47 1.05.29 2.06.71 3 1.25 1.55.9 2.91 2.11 4 3.54.42.54.8 1.1 1.13 1.7.27.47.51.95.72 1.44.08.16.15.33.2.5 0 .13.08.24.11.33l.1.26c.57 1.77-.4 3.67-2.17 4.24-1.34.42-2.81-.04-3.68-1.14zM93.48 59.1l-.18-.22-.21-.27c-.08-.11-.16-.2-.26-.29l-.62-.62c-.25-.25-.55-.52-.86-.79-.66-.57-1.4-1.03-2.2-1.39-.77-.34-1.61-.52-2.45-.52h-.41a.708.708 0 00-.29 0c-.18.02-.36.05-.54.09-.42.1-.82.23-1.22.39-.81.37-1.57.85-2.24 1.43-.54.46-1.04.95-1.52 1.47L80 59l-.3.34a3.319 3.319 0 01-4.67.6A3.317 3.317 0 0174 56l.11-.32c.1-.31.22-.61.35-.91.47-1.1 1.09-2.13 1.82-3.08 1.75-2.31 4.21-3.99 7-4.79.57-.15 1.15-.26 1.74-.34.3 0 .73-.09.87-.09h.76c1.14.02 2.27.18 3.37.47 1.05.29 2.06.71 3 1.25 1.55.9 2.91 2.11 4 3.54.42.54.8 1.1 1.13 1.7.27.47.51.95.72 1.44.08.16.15.33.2.5l.11.33.09.27c.57 1.77-.4 3.66-2.17 4.23-1.33.43-2.78-.01-3.65-1.1h.03zM72.86 84.93a8.974 8.974 0 003-5.87c.19-3.6-.73-4.84-1.91-6.41-2.71-3.65-10.4-2.78-10.4-2.78-2 .08-4.44 1.06-4.15 3.44A3.861 3.861 0 0062.27 76c3 .73 7.37 0 7.49 3.09.14 3.46-5.18 2-5.6 5.7s5.6 3.19 5.6 5.71c0 1.93-2 2.26-4.07 2.7-1.79.37-5.23.93-5.51 3s.91 4.57 5.75 3.84c7.61-1.15 10.17-5.32 10.17-7.88a9.328 9.328 0 00-3.24-7.23zM47.18 32.61c2.31 0 3-3.13.53-3.65-1.92-.36-3.89-.42-5.83-.17-5.25.59-10.08 3.17-13.5 7.21-1.57 1.92 1 3.94 2.69 2.51a26.307 26.307 0 0116.11-5.9z"/><g><path style="fill:#422b0d" d="M80 33.29c-2.29.26-3.27-2.82-.89-3.58 1.89-.54 3.86-.78 5.83-.71 5.29.07 10.35 2.17 14.14 5.86 1.75 1.76-.6 4-2.43 2.76A26.259 26.259 0 0080 33.29z"/></g><path style="fill:#eb8f00" d="M111.49 29.67c5.33 8.6 8.11 18.84 8.11 30.23 0 16.9-6.1 31.2-17.6 41.4-10.6 9.3-25 14.5-40.4 14.5-18.06 0-37-7.35-48.18-22.94 10.76 17.66 31 25.94 50.18 25.94 15.4 0 29.8-5.2 40.4-14.5 11.5-10.2 17.6-24.5 17.6-41.4 0-12.74-3.47-24.06-10.11-33.23z"/><radialGradient id="aec" cx="99.158" cy="-274.454" r="19.452" gradientTransform="matrix(.98 0 0 -.93 3.46 -181.12)" gradientUnits="userSpaceOnUse"><stop offset="0" style="stop-color:#ed7770"/><stop offset=".08" style="stop-color:#ed7770;stop-opacity:.96"/><stop offset=".22" style="stop-color:#ed7770;stop-opacity:.85"/><stop offset=".39" style="stop-color:#ed7770;stop-opacity:.68"/><stop offset=".59" style="stop-color:#ed7770;stop-opacity:.43"/><stop offset=".81" style="stop-color:#ed7770;stop-opacity:.13"/><stop offset=".9" style="stop-color:#ed7770;stop-opacity:0"/></radialGradient><circle style="opacity:.8;fill:url(#aec);enable-background:new" cx="100.63" cy="74.16" r="17.5"/></svg><svg viewBox="0 0 128 128" style="enable-background:new 0 0 128 128" id="1F929" xmlns="http://www.w3.org/2000/svg"><radialGradient id="afa" cx="63.6" cy="512.9" r="56.96" gradientTransform="translate(0 -450)" gradientUnits="userSpaceOnUse"><stop offset=".5" style="stop-color:#fde030"/><stop offset=".92" style="stop-color:#f7c02b"/><stop offset="1" style="stop-color:#f4a223"/></radialGradient><path style="fill:url(#afa)" d="M63.6 118.8c-27.9 0-58-17.5-58-55.9S35.7 7 63.6 7c15.5 0 29.8 5.1 40.4 14.4 11.5 10.2 17.6 24.6 17.6 41.5s-6.1 31.2-17.6 41.4c-10.6 9.3-25 14.5-40.4 14.5z"/><path style="fill:#eb8f00" d="M111.49 29.67c5.33 8.6 8.11 18.84 8.11 30.23 0 16.9-6.1 31.2-17.6 41.4-10.6 9.3-25 14.5-40.4 14.5-18.06 0-37-7.35-48.18-22.94 10.76 17.66 31 25.94 50.18 25.94 15.4 0 29.8-5.2 40.4-14.5 11.5-10.2 17.6-24.5 17.6-41.4 0-12.74-3.47-24.06-10.11-33.23z"/><g><radialGradient id="afb" cx="94.52" cy="89.652" r="23.911" fx="85.857" fy="82.64" gradientTransform="matrix(1 0 0 -1 0 130)" gradientUnits="userSpaceOnUse"><stop offset=".2" style="stop-color:#ff4081"/><stop offset=".88" style="stop-color:#cc1775"/></radialGradient><path style="fill:url(#afb)" d="M95.92 17.13l-8.06 10.7c-.4.52-1.02.82-1.68.79l-13.38-.57c-1.1-.05-2.04.81-2.09 1.91-.02.44.11.87.36 1.23l7.69 11c.37.53.46 1.2.24 1.81l-4.68 12.56c-.38 1.04.15 2.19 1.18 2.57.41.15.85.16 1.27.04l12.81-3.92c.63-.19 1.31-.06 1.83.35l10.49 8.33c.87.68 2.12.54 2.81-.33.27-.35.42-.77.43-1.21l.23-13.39c.01-.66.35-1.27.9-1.63L117.43 40a2 2 0 00-.45-3.56l-12.67-4.36c-.64-.21-1.13-.73-1.31-1.38l-3.56-12.91a2.005 2.005 0 00-2.47-1.38c-.42.12-.79.37-1.05.72z"/><path style="fill:#f44336" d="M99.81 16.89l3 13.92a2.983 2.983 0 002.07 2.24l13.38 4c1 .36 1.52 1.46 1.16 2.46-.14.4-.41.73-.77.96l-12 6.52a3.008 3.008 0 00-1.65 2.68l.12 14.59a1.911 1.911 0 01-1.97 1.85c-.42-.01-.83-.16-1.15-.43l-10.48-9.41a2.99 2.99 0 00-3-.61l-13.3 4.53c-1.02.29-2.08-.3-2.38-1.32-.12-.4-.1-.83.06-1.22l5.86-13.37c.44-1.02.29-2.19-.4-3.06l-8.51-10.73c-.59-.89-.35-2.08.53-2.68.34-.23.75-.34 1.17-.32l13.89 1.58c1.09.12 2.15-.36 2.78-1.25l8.22-11.62c.65-.84 1.86-.99 2.69-.33.34.26.57.61.68 1.02z"/><path style="fill:#ff847a" d="M96.63 30.34l1-9.6c.07-.53.15-1.45 1-1.28.67.14.74 1.59.74 1.59l1.3 8.14c.48 3.09-.16 4-1.32 4.36-1.35.45-3-.46-2.72-3.21z"/><path style="fill:#c62828" d="M105.65 46l9.47-4.69c.47-.26 1.31-.65.86-1.38-.37-.57-1.76-.14-1.76-.14l-7.71 1.33c-2.28.3-3.92 1.1-4.33 2.45-.53 1.74.82 3.49 3.47 2.43z"/><path style="fill:#f44336" d="M32.5 14.5l8 11.74c.62.9 1.67 1.39 2.76 1.29l13.92-1.37a1.922 1.922 0 011.65 3L50.2 39.79c-.7.86-.87 2.03-.44 3.05l5.65 13.45a1.92 1.92 0 01-2.36 2.51l-13.27-4.73a3.005 3.005 0 00-3 .56L26.2 63.88c-.82.66-2.02.53-2.69-.29-.27-.33-.42-.75-.42-1.17l.33-14.59c.03-1.11-.56-2.13-1.52-2.68L10 38.45c-.9-.54-1.2-1.72-.65-2.62.23-.39.6-.69 1.03-.83l13.45-3.82a3.009 3.009 0 002.1-2.18l3.19-13.87a1.923 1.923 0 013.38-.63z"/><path style="fill:#ff847a" d="M34.66 28.15l-2.74-9.26c-.13-.52-.41-1.4.43-1.56.67-.13 1.3 1.19 1.3 1.19l4.28 7c1.63 2.68 1.37 3.75.44 4.53s-2.93.75-3.71-1.9z"/><path style="fill:#c62828" d="M48.94 39.16l7-7.94c.34-.41 1-1.09.26-1.59-.55-.4-1.67.53-1.67.53l-6.63 4.16c-2 1.14-3.21 2.5-3.07 3.91.17 1.86 2.07 2.96 4.11.93z"/><path style="fill:#422b0d" d="M102.07 71.62A5.809 5.809 0 0094.93 69a111.05 111.05 0 01-31.59 4.43A111.05 111.05 0 0131.75 69a5.802 5.802 0 00-7.13 2.6c-1.36 2.51-.38 5.42.77 7.93 6.42 14.1 20.57 22.54 37.87 22.59h.16c17.3 0 31.45-8.49 37.88-22.59 1.14-2.53 2.13-5.4.77-7.91z"/><path style="fill:#ed7770" d="M79.35 98.14c-.37-.34-.75-.65-1.13-1a21.736 21.736 0 00-14.8-5.41C57.82 91.64 52.37 93.5 48 97c-.38.31-.78.61-1.15 1s-.57.67-.81 1c5.5 2.15 11.36 3.25 17.27 3.22h.16c5.66 0 11.27-1.01 16.57-3-.2-.38-.43-.74-.69-1.08z"/><path style="fill:#fff" d="M94.93 69a111.05 111.05 0 01-31.59 4.43A111.05 111.05 0 0131.75 69a5.802 5.802 0 00-7.13 2.6c-.2.38-.36.78-.46 1.19.33.17.71.34 1.16.52a84.433 84.433 0 0038.81 8.93c12.91.15 25.67-2.66 37.33-8.2.47-.2.86-.39 1.21-.57-.08-.65-.29-1.29-.6-1.87a5.8 5.8 0 00-7.14-2.6z"/><path style="fill:#eb8f00" d="M102.11 71.63A5.877 5.877 0 0094.92 69c-10.26 2.99-20.9 4.48-31.58 4.43A111.05 111.05 0 0131.75 69a5.802 5.802 0 00-7.13 2.6c-1.36 2.51-.38 5.42.77 7.93.51 1.13 1.08 2.24 1.71 3.31 0 0-2.1-7.78-.28-10.04a3.55 3.55 0 012.8-1.62c.47 0 .93.08 1.38.22 10.44 3.07 21.27 4.62 32.16 4.6h.35c10.89.02 21.72-1.53 32.16-4.6.45-.14.91-.22 1.38-.22 1.14.06 2.19.66 2.81 1.62 1.85 2.26-.28 10.07-.28 10.07.62-1.07 1.24-2.17 1.76-3.31 1.14-2.51 2.13-5.41.77-7.93z"/></g></svg><svg viewBox="0 0 128 128" style="enable-background:new 0 0 128 128" id="1F970" xmlns="http://www.w3.org/2000/svg"><radialGradient id="aga" cx="63.6" cy="-2088.9" r="56.96" gradientTransform="matrix(1 0 0 -1 0 -2026)" gradientUnits="userSpaceOnUse"><stop offset=".5" style="stop-color:#fde030"/><stop offset=".919" style="stop-color:#f7c02b"/><stop offset="1" style="stop-color:#f4a223"/></radialGradient><path style="fill:url(#aga)" d="M63.6 118.8c-27.9 0-58-17.5-58-55.9S35.7 7 63.6 7c15.5 0 29.8 5.1 40.4 14.4 11.5 10.2 17.6 24.6 17.6 41.5s-6.1 31.2-17.6 41.4c-10.6 9.3-25 14.5-40.4 14.5z"/><path style="fill:#eb8f00" d="M111.49 29.67c5.33 8.6 8.11 18.84 8.11 30.23 0 16.9-6.1 31.2-17.6 41.4-10.6 9.3-25 14.5-40.4 14.5-18.06 0-37.04-7.35-48.18-22.94 10.76 17.66 30.99 25.94 50.18 25.94 15.4 0 29.8-5.2 40.4-14.5 11.5-10.2 17.6-24.5 17.6-41.4 0-12.74-3.47-24.06-10.11-33.23z"/><radialGradient id="agb" cx="25.701" cy="61.378" r="19.444" gradientTransform="matrix(.9791 0 0 .9301 2.087 5.741)" gradientUnits="userSpaceOnUse"><stop offset="0" style="stop-color:#ed7770"/><stop offset=".9" style="stop-color:#ed7770;stop-opacity:0"/></radialGradient><circle style="opacity:.8;fill:url(#agb)" cx="27.25" cy="62.83" r="17.5"/><radialGradient id="agc" cx="100.771" cy="61.378" r="19.444" gradientTransform="matrix(.9791 0 0 .9301 2.087 5.741)" gradientUnits="userSpaceOnUse"><stop offset="0" style="stop-color:#ed7770"/><stop offset=".9" style="stop-color:#ed7770;stop-opacity:0"/></radialGradient><circle style="opacity:.8;fill:url(#agc)" cx="100.75" cy="62.83" r="17.5"/><path style="fill:#422b0d" d="M100.69 65.04C90.42 71 77.74 74.53 64 74.53c-13.74 0-26.42-3.53-36.69-9.49-1.89-1.09-3.87 1.27-2.46 2.92 9.3 10.87 23.38 17.8 39.15 17.8s29.85-6.93 39.15-17.8c1.42-1.66-.57-4.02-2.46-2.92z"/><g><path style="fill:#422b0d" d="M49.56 44.12s-.05-.07-.16-.2l-.42-.54c-.15-.16-.33-.35-.54-.57-.21-.24-.47-.49-.73-.75-.27-.25-.55-.51-.84-.72-.28-.23-.59-.4-.84-.54-.26-.16-.5-.2-.65-.25-.08-.03-.15-.03-.21-.04-.03.01-.06-.01-.09 0l-.04.01h-.03c.12 0-.27.01.27-.01l-.55.02c-.14 0-.05.01-.04.01.03 0 .05 0 .07-.01.08-.03 0 0-.02 0a.26.26 0 00-.11.03c-.16.05-.4.09-.65.25-.25.14-.56.31-.84.54-.28.22-.57.47-.84.72-.52.51-.98 1.02-1.3 1.39-.33.38-.51.6-.51.6l-.23.27c-1.37 1.6-3.89 1.87-5.62.61-1.18-.86-1.69-2.2-1.47-3.48 0 0 .07-.41.27-1.12.21-.71.56-1.72 1.25-2.91.69-1.18 1.69-2.57 3.38-3.84.83-.62 1.84-1.24 3.04-1.66.29-.11.6-.21.92-.29.33-.08.59-.17 1.04-.23l.62-.09c.19-.02.47-.05.51-.05l.55-.04.31-.01h.09l.13.01.26.01.51.03c.34.03.67.09 1 .14.65.12 1.3.29 1.89.51a11.1 11.1 0 013.04 1.66c1.69 1.27 2.69 2.66 3.38 3.84.35.59.61 1.15.8 1.64.21.47.36.97.48 1.34.11.36.11.55.16.72.03.16.04.25.04.25.37 2.02-1.12 3.93-3.31 4.26-1.59.25-3.1-.39-3.97-1.51zM87.06 44.12s-.05-.07-.16-.2l-.42-.54c-.15-.16-.33-.35-.54-.57-.21-.24-.47-.49-.73-.75-.27-.25-.55-.51-.84-.72-.28-.23-.59-.4-.84-.54-.26-.16-.5-.2-.65-.25-.08-.03-.15-.03-.21-.04-.03.01-.06-.01-.09 0l-.04.01h-.04c.12 0-.27.01.27-.01l-.55.02c-.14 0-.05.01-.04.01.03 0 .05 0 .07-.01.08-.03 0 0-.02 0a.26.26 0 00-.11.03c-.16.05-.4.09-.65.25-.25.14-.56.31-.84.54-.28.22-.57.47-.84.72-.52.51-.98 1.02-1.3 1.39-.33.38-.51.6-.51.6l-.23.27c-1.37 1.6-3.89 1.87-5.62.61-1.18-.86-1.69-2.2-1.47-3.48 0 0 .07-.41.27-1.12.21-.71.56-1.72 1.25-2.91.69-1.18 1.69-2.57 3.38-3.84.83-.62 1.84-1.24 3.04-1.66.29-.11.6-.21.92-.29.33-.08.59-.17 1.04-.23l.62-.09c.19-.02.47-.05.51-.05l.55-.04.31-.01h.09l.13.01.26.01.51.03c.34.03.67.09 1 .14.65.12 1.3.29 1.89.51a11.1 11.1 0 013.04 1.66c1.69 1.27 2.69 2.66 3.38 3.84.35.59.61 1.15.8 1.64.21.47.36.97.48 1.34.11.36.11.55.16.72.03.16.04.25.04.25.37 2.02-1.12 3.93-3.31 4.26-1.59.25-3.1-.39-3.96-1.51z"/></g><g><path style="fill:#f44336" d="M110.78 1.22c-7.06 2.83-7.68 10.86-7.68 10.86s-4.63-5.01-10.9-2.9c-7.53 2.54-11.32 10.62-5.22 19.34 6.98 9.97 29.38 12.81 29.38 12.81s12.53-16.37 10.79-29.35c-1.41-10.55-11.03-12.9-16.37-10.76z"/><path style="fill:#c62828" d="M110.78 1.22s-1.73.71-2.41 1.38c0 0 4.76-.49 9.07 1.97 2.84 1.62 5.48 4.52 6.44 9.69 2.07 11.2-6.77 25.9-7.45 26.98.91-1.21 12.4-16.79 10.73-29.26-1.42-10.55-11.04-12.9-16.38-10.76zM103.77 12.96c-.69-.83-1.51-1.55-2.01-1.95-2.52-2.01-4.62-2.53-7.34-2.28-2.72.24-5.15 1.76-5.15 1.76s2.64-1 6.39.79c1.97.94 3.7 2.34 5.15 3.98.52.59 1.04 1.23 1.74 1.58s1.68.3 2.16-.33c.75-1.02.03-2.39-.94-3.55z"/><path style="fill:#ff847a" d="M87.42 20.13c.06-2.65 1.03-5.89 4.22-6.04 1.7-.08 3.39 2.1 2.8 4.12-1 3.42-.26 4.6.19 5.71.53 1.34 1.34 2.8.77 4.12-.57 1.32-1.9 1.41-3.61.27-.38-.24-4.49-2.76-4.37-8.18z"/></g><g><path style="fill:#f44336" d="M116.31 96.26c-6.38-4.14-13.3-.02-13.3-.02s1.43-6.67-3.91-10.58c-6.41-4.7-15.2-3.13-18.81 6.88-4.13 11.45 6.46 31.39 6.46 31.39s20.6.81 30.2-8.09c7.81-7.23 4.18-16.45-.64-19.58z"/><path style="fill:#c62828" d="M116.31 96.26s-1.58-1-2.52-1.18c0 0 3.14 3.61 3.62 8.55.31 3.26-.54 7.09-4.21 10.85-7.96 8.15-25.07 9.4-26.34 9.46 1.51.05 20.87.46 30.1-8.09 7.8-7.24 4.17-16.46-.65-19.59zM102.67 97.3c.28-1.04.4-2.12.44-2.76.19-3.22-.6-5.24-2.36-7.32-1.77-2.08-4.41-3.2-4.41-3.2s2.33 1.58 3.03 5.68c.37 2.15.22 4.37-.29 6.5-.18.77-.41 1.55-.28 2.33s.72 1.55 1.51 1.57c1.27.04 1.97-1.34 2.36-2.8z"/><path style="fill:#ff847a" d="M87.39 88.07c2.2-1.48 5.4-2.56 7.37-.04 1.04 1.34.24 3.97-1.75 4.66-3.37 1.15-3.91 2.44-4.56 3.44-.78 1.21-1.52 2.71-2.93 3-1.41.29-2.24-.74-2.3-2.8-.01-.42-.33-5.23 4.17-8.26z"/></g><g><path style="fill:#f44336" d="M27.99 59.77c-7.12 2.67-7.92 10.68-7.92 10.68s-4.52-5.11-10.83-3.14C1.65 69.68-2.31 77.68 3.6 86.53c6.76 10.12 29.09 13.45 29.09 13.45s12.89-16.09 11.44-29.1C42.95 60.3 33.38 57.75 27.99 59.77z"/><path style="fill:#c62828" d="M27.99 59.77s-1.74.68-2.44 1.33c0 0 4.77-.38 9.03 2.17 2.8 1.68 5.38 4.64 6.22 9.83 1.82 11.25-7.34 25.75-8.04 26.81.93-1.19 12.77-16.52 11.37-29.02-1.18-10.59-10.75-13.14-16.14-11.12zM20.73 71.36c-.67-.84-1.47-1.58-1.97-1.99-2.48-2.07-4.57-2.63-7.29-2.45-2.73.18-5.19 1.65-5.19 1.65s2.66-.94 6.37.93c1.95.98 3.65 2.42 5.06 4.09.51.6 1.01 1.25 1.71 1.61s1.68.34 2.16-.28c.78-1 .09-2.39-.85-3.56z"/><path style="fill:#ff847a" d="M4.22 78.16c.12-2.65 1.15-5.87 4.35-5.95 1.7-.04 3.34 2.17 2.7 4.18-1.07 3.4-.36 4.59.06 5.71.51 1.35 1.28 2.83.68 4.14-.6 1.31-1.93 1.37-3.62.19-.35-.25-4.4-2.85-4.17-8.27z"/></g></svg><svg viewBox="0 0 128 128" style="enable-background:new 0 0 128 128" id="1F972" xmlns="http://www.w3.org/2000/svg"><radialGradient id="aha" cx="63.6" cy="-62.06" r="56.96" gradientTransform="translate(0 124.96)" gradientUnits="userSpaceOnUse"><stop offset=".5" style="stop-color:#fde030"/><stop offset=".92" style="stop-color:#f7c02b"/><stop offset="1" style="stop-color:#f4a223"/></radialGradient><path style="fill:url(#aha)" d="M63.6 118.8c-27.9 0-58-17.5-58-55.9S35.7 7 63.6 7c15.5 0 29.8 5.1 40.4 14.4 11.5 10.2 17.6 24.6 17.6 41.5s-6.1 31.2-17.6 41.4c-10.6 9.3-25 14.5-40.4 14.5z"/><path style="fill:#422b0d" d="M63 91.61c-9.07.07-17.73-3.74-23.8-10.48-.46-.53-.57-1.28-.28-1.92.29-.65.93-1.07 1.64-1.08.32 0 .64.09.92.25 4.82 2.77 12.88 6.21 21.52 6.21h.14c8.63 0 16.7-3.44 21.51-6.21.28-.16.6-.25.92-.25.71.01 1.35.43 1.64 1.08.3.64.19 1.39-.28 1.92a31.695 31.695 0 01-23.82 10.48M44 40.94c-4.19 0-8 3.54-8 9.42s3.81 9.41 8 9.41c4.2 0 8-3.54 8-9.41s-3.76-9.42-8-9.42z"/><path style="fill:#896024" d="M43.65 44.87a2.874 2.874 0 00-3.82 1.34c-.53 1.11-.29 2.44.6 3.3 1.42.68 3.13.08 3.82-1.34.53-1.11.29-2.44-.6-3.3z"/><path style="fill:#422b0d" d="M82.4 40.94c-4.19 0-8 3.54-8 9.42s3.81 9.41 8 9.41c4.19 0 8-3.54 8-9.41s-3.81-9.42-8-9.42z"/><path style="fill:#896024" d="M82 44.87a2.874 2.874 0 00-3.82 1.34c-.53 1.11-.29 2.44.6 3.3 1.42.68 3.13.08 3.82-1.34.53-1.11.29-2.44-.6-3.3z"/><radialGradient id="ahb" cx="37.82" cy="-769.175" r="26.42" gradientTransform="matrix(1 0 0 -1.54 0 -1115.13)" gradientUnits="userSpaceOnUse"><stop offset=".46" style="stop-color:#29b6f6"/><stop offset="1" style="stop-color:#1e88e5"/></radialGradient><path style="fill:url(#ahb)" d="M37 104.5c-6.5 0-11.5-6.3-11.5-11.7 0-3.8 1.7-8.2 4.1-14.3.3-.9.7-1.8 1.1-2.8 1.4-3.62 3-7.16 4.8-10.6.36-.69 1.18-.99 1.9-.7.3.15.55.4.7.7 1.5 3.1 3.2 6.9 4.9 10.8 4.2 9.4 5.4 13.2 5.4 17 .1 5.3-5 11.6-11.4 11.6z"/><path style="fill:#81d4fa" d="M44 97.29c-1.47 2.27-4.8 1.84-4.8-1.93 0-2.41.49-14.79 2.56-13.06 3.4 2.82 4.36 11.78 2.24 14.99z"/><path style="fill:#eb8f00" d="M111.49 29.67c5.33 8.6 8.11 18.84 8.11 30.23 0 16.9-6.1 31.2-17.6 41.4-10.6 9.3-25 14.5-40.4 14.5-18.06 0-37-7.35-48.18-22.94 10.76 17.66 31 25.94 50.18 25.94 15.4 0 29.8-5.2 40.4-14.5 11.5-10.2 17.6-24.5 17.6-41.4 0-12.74-3.47-24.06-10.11-33.23z"/></svg><svg viewBox="0 0 128 128" style="enable-background:new 0 0 128 128" id="263A" xmlns="http://www.w3.org/2000/svg"><radialGradient id="aia" cx="63.6" cy="-2088.9" r="56.96" gradientTransform="matrix(1 0 0 -1 0 -2026)" gradientUnits="userSpaceOnUse"><stop offset=".5" style="stop-color:#fde030"/><stop offset=".919" style="stop-color:#f7c02b"/><stop offset="1" style="stop-color:#f4a223"/></radialGradient><path style="fill:url(#aia)" d="M63.6 118.8c-27.9 0-58-17.5-58-55.9S35.7 7 63.6 7c15.5 0 29.8 5.1 40.4 14.4 11.5 10.2 17.6 24.6 17.6 41.5s-6.1 31.2-17.6 41.4c-10.6 9.3-25 14.5-40.4 14.5z"/><path style="fill:#eb8f00" d="M111.49 29.67c5.33 8.6 8.11 18.84 8.11 30.23 0 16.9-6.1 31.2-17.6 41.4-10.6 9.3-25 14.5-40.4 14.5-18.06 0-37.04-7.35-48.18-22.94 10.76 17.66 30.99 25.94 50.18 25.94 15.4 0 29.8-5.2 40.4-14.5 11.5-10.2 17.6-24.5 17.6-41.4 0-12.74-3.47-24.06-10.11-33.23z"/><radialGradient id="aib" cx="25.701" cy="66.546" r="19.444" gradientTransform="matrix(.9791 0 0 .9301 2.087 7.934)" gradientUnits="userSpaceOnUse"><stop offset="0" style="stop-color:#ed7770"/><stop offset=".9" style="stop-color:#ed7770;stop-opacity:0"/></radialGradient><circle style="opacity:.8;fill:url(#aib)" cx="27.25" cy="69.83" r="17.5"/><radialGradient id="aic" cx="100.771" cy="66.546" r="19.444" gradientTransform="matrix(.9791 0 0 .9301 2.087 7.934)" gradientUnits="userSpaceOnUse"><stop offset="0" style="stop-color:#ed7770"/><stop offset=".9" style="stop-color:#ed7770;stop-opacity:0"/></radialGradient><circle style="opacity:.8;fill:url(#aic)" cx="100.75" cy="69.83" r="17.5"/><path style="fill:#422b0d" d="M47.18 35.61c2.31.03 2.98-3.13.53-3.65-1.83-.37-3.84-.42-5.83-.17-5.57.61-10.37 3.48-13.5 7.22-1.56 1.92.99 3.94 2.69 2.51 4.35-3.53 10.09-5.86 16.11-5.91zM80.04 36.29c-2.29.26-3.27-2.82-.89-3.58 1.79-.54 3.78-.79 5.78-.74 5.6.06 10.66 2.44 14.15 5.86 1.74 1.76-.6 4.02-2.43 2.76-4.68-3.09-10.62-4.84-16.61-4.3zM64 96.2c10.8 0 17.8-7.9 19.7-11.6.7-1.4.7-2.6.1-3.1-.5-.4-1.2-.4-2.1 0-.3.1-.6.3-.9.5-4.8 3.4-10.7 5.5-16.8 5.5s-12-2.1-16.8-5.4c-.3-.2-.6-.4-.9-.5-.9-.4-1.6-.4-2.1 0-.6.6-.6 1.7.1 3.1 1.9 3.6 8.9 11.5 19.7 11.5zM51.6 61.43l-.2-.2-.5-.5c-.2-.2-.4-.3-.7-.6-.3-.2-.6-.5-1-.7s-.8-.5-1.2-.7-.9-.4-1.4-.6-1-.3-1.5-.4-1-.1-1.6-.1h.1-1c-.2 0-.5.1-.7.1-.5.1-1 .2-1.5.4s-1 .3-1.4.6c-.4.2-.8.4-1.2.7-.7.5-1.3 1-1.7 1.3l-.6.6-.2.2c-1.2 1.2-3.2 1.2-4.6.2-1-.8-1.3-2.2-.8-3.2l.1-.3c.1-.2.2-.5.4-.8.4-.7 1.1-1.7 2.2-2.8.5-.5 1.2-1.1 1.9-1.6s1.6-1 2.5-1.4 2-.8 3-1c.5-.1 1.1-.2 1.7-.3.3 0 .7-.1.8-.1h.8c1.1 0 2.2.1 3.3.3 1.1.2 2.1.6 3 1s1.8.9 2.5 1.4c.8.5 1.4 1 1.9 1.6.5.5 1 1 1.3 1.5.2.2.3.5.5.7.1.2.3.4.4.6.3.4.3.6.4.8l.1.2c.7 1.5-.1 3.2-1.8 3.8-.9.5-2.4.2-3.3-.7zM92.51 61.07l-.2-.2c-.11-.11-.36-.39-.51-.5-.19-.16-.42-.35-.69-.57-.29-.22-.62-.46-.98-.71a13.5 13.5 0 00-1.2-.68c-.42-.23-.9-.39-1.38-.57-.48-.17-.99-.26-1.5-.37-.51-.08-1.04-.12-1.57-.12h.14H84.31l-.31.01c-.26 0-.3.02-.4.03-.16 0-.45.05-.7.09-.51.11-1.02.2-1.5.37-.47.18-.95.34-1.37.57-.43.22-.83.45-1.2.68-.72.48-1.31.96-1.7 1.32-.4.36-.63.58-.63.58l-.25.25c-1.21 1.17-3.25 1.24-4.57.17-1.04-.85-1.3-2.16-.78-3.25l.15-.3c.1-.19.22-.49.44-.84.41-.71 1.09-1.71 2.17-2.76.54-.52 1.17-1.07 1.92-1.57.73-.52 1.58-.99 2.52-1.4.94-.4 1.96-.75 3.04-.97.55-.1 1.06-.2 1.73-.26.31-.03.68-.06.84-.07l.77-.03c1.13.02 2.25.14 3.34.35 1.08.22 2.1.57 3.04.97.93.41 1.79.88 2.52 1.4.75.5 1.37 1.04 1.91 1.57.54.52.97 1.04 1.33 1.51.17.24.33.46.48.67.14.23.28.44.39.63.27.42.29.58.39.77l.11.25c.67 1.49-.14 3.18-1.81 3.78-1.31.47-2.78.11-3.67-.8z"/></svg></svg>