<?xml version="1.0" encoding="utf-8"?><svg viewBox="0 0 128 128" xmlns="http://www.w3.org/2000/svg" xmlns:xlink="http://www.w3.org/1999/xlink"><style>:root>svg{display:none}:root>svg:target{display:block}</style><svg viewBox="0 0 128 128" style="enable-background:new 0 0 128 128" id="1F479" xmlns="http://www.w3.org/2000/svg"><linearGradient id="aaa" x1="64" x2="64" y1="29.167" y2="93.733" gradientUnits="userSpaceOnUse"><stop offset=".369" style="stop-color:#374c57"/><stop offset=".546" style="stop-color:#263238"/></linearGradient><path style="fill:url(#aaa)" d="M100.82 98.25s17.91-2.78 22.86-34.1c1.63-10.32 1.14-25.1.72-28.82a.64.64 0 00-.9-.51s-6.82 3.71-9.39 3.22c-1.68-.32 12.52-5.65 9.57-29.09-.19-1.53-.91-1.41-1.13-1.15-1.72 1.96-6.95 7.7-9.9 8.47 0 0 1.94-5.97.21-11.94-.1-.35-.51-.52-.85-.38-12.84 5.58-13.83-2.45-29 5.98-3.41 1.9-6.08 6.38-6.08 6.38S73.57 9.79 65.99 5.38C60.59 2.23 53 3.44 50.09 4.07c-.43.09-.54.65-.18.91 1.89 1.36 3.94 7.59 2.54 13.04C47.2 9.69 42.4 3.32 28.35 4.95c-5.05.58-10.64 3.3-18.49.9-.59-.18-.96.19-.82.79 1.74 7.5 9.86 10.3 10.12 16.59.03.71-.84 1.08-1.33.57-2.05-2.13-6.56-6.18-12.09-7.1-.49-.08-.95.44-.69.86 1.99 3.12 6.88 8.23 8.05 15.86.15 1 .32 2.1-1.05 1.4-1.37-.7-3.35-2.09-5.16-4.6-.24-.33-1.6-1.6-2.11 1.76-.9 5.88-5.05 35.99 5.19 50.92 11.83 17.26 17.37 16.26 17.37 16.26l73.48-.91z"/><path style="fill:#c33" d="M112.52 44.05c.73-.75 1.49-1.45 2.23-1.94 2.14-1.42 3.07.75 2.82 2.83-.9 7.56 1.96 15.13 1.59 22.74-.35 7.22-4.09 14.54-10.38 17.54-.36.17-.79.33-1.15.14-.39-.21-.5-.73-.56-1.18-.69-4.76-.05-10.34-1.01-15.03-.91-4.45-1.43-7.69-.69-12.36.69-4.31 2.25-7.24 5-10.36.65-.74 1.39-1.59 2.15-2.38zM15.26 44.05c-.73-.75-1.49-1.45-2.23-1.94-2.14-1.42-3.07.75-2.82 2.83.9 7.56-1.96 15.13-1.59 22.74.35 7.22 4.09 14.54 10.38 17.54.36.17.79.33 1.15.14.39-.21.5-.73.56-1.18.69-4.76.05-10.34 1.01-15.03.91-4.45 1.43-7.69.69-12.36-.69-4.31-2.25-7.24-5-10.36-.65-.74-1.38-1.59-2.15-2.38z"/><path style="fill:#374c57" d="M102.97 47.46s13.68 21.05 13.71 42.01c.03 15.33-15.25 32.23-15.25 32.23s-1.7-19.89-3.22-31.22 4.76-43.02 4.76-43.02z"/><linearGradient id="aab" x1="102.968" x2="102.968" y1="118.992" y2="70.374" gradientUnits="userSpaceOnUse"><stop offset=".105" style="stop-color:#374c57"/><stop offset=".546" style="stop-color:#263238"/></linearGradient><path style="fill:url(#aab)" d="M103.76 65.09s3.64 11.41 4.47 20.12c1.43 15.09-6.89 37.48-6.89 37.48l-3.79-26.21 4.19-19.5 2.02-11.89z"/><path style="fill:#374c57" d="M26.47 45.78S11.14 68.51 11.1 89.47c-.03 15.33 15.25 32.23 15.25 32.23s1.7-19.89 3.22-31.22-3.1-44.7-3.1-44.7z"/><linearGradient id="aac" x1="24.943" x2="24.943" y1="118.992" y2="70.374" gradientTransform="matrix(-1 0 0 1 49.762 0)" gradientUnits="userSpaceOnUse"><stop offset=".105" style="stop-color:#374c57"/><stop offset=".546" style="stop-color:#263238"/></linearGradient><path style="fill:url(#aac)" d="M24.03 65.09s-3.64 11.41-4.47 20.12c-1.43 15.09 6.89 37.48 6.89 37.48l3.79-26.21-4.19-19.5-2.02-11.89z"/><path style="fill:#f04e3e" d="M85.27 30.74c-9.58 0-14.14 3.55-21.29 3.58-7.15-.03-11.71-3.58-21.29-3.58C24.81 30.74 21.3 74 21.3 75.73c0 32.34 21.45 48.96 42.67 48.96s42.67-16.62 42.67-48.96c.02-1.73-3.48-44.99-21.37-44.99z"/><path style="fill:#a81919" d="M98.25 62.33c.57 6.73-3.98 13.15-11.81 14.58-7.83 1.43-14.88-2.87-16.54-9.41-2.75-10.88 3.91-13.61 11.81-14.58 8.32-1.02 15.95 2.42 16.54 9.41z"/><ellipse transform="rotate(-14.863 83.536 66.956)" style="fill:#ffecb3" cx="83.52" cy="66.95" rx="9.81" ry="8.92"/><ellipse transform="rotate(-4.088 83.212 67.43)" style="fill:#212121" cx="83.25" cy="67.46" rx="4.06" ry="4.3"/><path style="fill:#a81919" d="M30.44 62.33c-.57 6.73 3.98 13.15 11.81 14.58 7.83 1.43 14.88-2.87 16.54-9.41 2.75-10.88-3.91-13.61-11.81-14.58-8.32-1.02-15.94 2.42-16.54 9.41z"/><ellipse transform="rotate(-75.137 45.174 66.95)" style="fill:#ffecb3" cx="45.17" cy="66.95" rx="8.92" ry="9.81"/><ellipse transform="rotate(-85.912 45.45 67.454)" style="fill:#212121" cx="45.45" cy="67.46" rx="4.3" ry="4.06"/><path style="fill:#281010" d="M92.39 89.75a3 3 0 00-.92.15c-5.27 1.71-15.63 4.51-27.58 4.51s-22.31-2.79-27.58-4.51a3 3 0 00-.92-.15c-1.75 0-3.28.79-2.83 2.59.99 3.96 3.8 11.15 6.62 14.88 4.92 6.52 7.64 8.59 11.61 8.69.18 0 .35.01.52.01 4.99 0 5.91-1.8 12.59-1.8s7.6 1.8 12.59 1.8c.17 0 .34 0 .52-.01 3.97-.09 6.68-2.16 11.61-8.69 2.82-3.73 5.82-10.65 6.62-14.94.44-1.79-1.09-2.53-2.85-2.53z"/><g><path style="fill:#fff8e1" d="M60.65 101.1v-3.85h6.38v3.85c0 1.76-1.43 2.53-3.19 2.53s-3.19-.77-3.19-2.53zM51.83 99.98c.2-1.08.69-3.79.69-3.79s5.62 1.02 6.27 1.14c0 0-.37 2.06-.69 3.79-.31 1.73-1.86 2.23-3.59 1.92-1.73-.32-3-1.33-2.68-3.06zM75.96 99.98c-.2-1.08-.69-3.79-.69-3.79s-5.62 1.02-6.27 1.14c0 0 .37 2.06.69 3.79.31 1.73 1.86 2.23 3.59 1.92 1.73-.32 2.99-1.33 2.68-3.06z"/></g><g><path style="fill:#fff8e1" d="M67.08 107.5v3.85H60.7v-3.85c0-1.76 1.43-2.53 3.19-2.53s3.19.77 3.19 2.53zM76.48 107.53v3.85H70.1v-3.85c0-1.76 1.43-2.53 3.19-2.53s3.19.77 3.19 2.53zM57.69 107.5v3.85h-6.38v-3.85c0-1.76 1.43-2.53 3.19-2.53s3.19.77 3.19 2.53z"/></g><g><path style="fill:#fff8e1" d="M84.68 94.49c-.53 2.37-.49 4.06.91 7.09.33.72.67 1.58.18 2.21-.55.71-1.58.66-2.55.33-3.18-1.09-5.71-3.91-6.45-7.19M43.11 94.49c.53 2.37.49 4.06-.91 7.09-.33.72-.67 1.58-.18 2.21.55.71 1.58.66 2.55.33 3.18-1.09 5.71-3.91 6.45-7.19"/></g><path style="fill:#b31b1b" d="M35.94 93.89s1.23.29 1.94.62c3.52 1.67 12 4.79 26.01 4.79s22.48-3.13 26.01-4.79c.71-.33 1.93-.35 1.93-.35-1.24 3.36-3.79 8.59-5.59 11.05-4.3 6.16-9.13 6.16-13.72 4.94-1.95-.54-4.82-1.21-8.62-1.21-3.95 0-6.68.67-8.62 1.21-4.95 1.21-9.42.63-13.72-4.94-1.81-2.46-4.43-7.83-5.62-11.32zm57.44-5c-.31 0-.63.05-.95.16-5.45 1.83-16.17 4.82-28.54 4.82s-23.08-2.99-28.54-4.82c-.32-.11-.64-.16-.95-.16-1.81 0-3.4.85-2.93 2.77 1.02 4.23 3.93 11.93 6.85 15.92 5.09 6.98 7.9 9.19 12.01 9.29.18 0 .36.01.53.01 5.16 0 6.12-1.93 13.03-1.93 6.91 0 7.87 1.93 13.03 1.93.17 0 .35 0 .53-.01 4.1-.1 6.92-2.31 12.01-9.29 2.91-3.99 6.03-11.39 6.85-15.98.47-1.92-1.12-2.71-2.93-2.71z"/><path style="fill:#cc2d2d" d="M92.43 89.05c-5.47 1.79-16.17 4.82-28.54 4.82s-23.04-3.12-28.54-4.82c-1.57-.49-3.81-.73-3.89 1.29-.08 2.01 5.5 3.95 5.84 4.08 3.89 1.56 12.58 4.88 26.59 4.88s22.46-3.01 26.1-4.4c1.92-.73 6.43-2.55 6.32-4.6-.08-1.72-2.04-1.85-3.88-1.25z"/><g><path style="fill:#ff8a66" d="M79.08 80.67c-.94-1.95-3.94-3.09-6.46-1-.8.66-1.95.08-2.72-1.03-1.73-2.48-2.91-8.88-6.01-8.88s-4.28 6.4-6.01 8.88c-.78 1.11-2.14 1.51-2.72 1.03-2.52-2.08-5.52-.94-6.46 1-1.11 2.31-.31 4.33 1.43 5.48 1.47.98 3.25.81 4.49.2 1.21-.6 1.76.12 2.83.92 2.35 1.75 4.7 2.59 6.43 2.59 1.73 0 4.08-.83 6.43-2.59 1.07-.8 1.62-1.52 2.83-.92 1.24.61 3.02.78 4.49-.2 1.77-1.15 2.57-3.17 1.45-5.48z"/><path style="fill:#cc2d2d" d="M56.31 84.45c-.41-.39-.87-.74-1.41-.9-.54-.16-1.29-.05-1.74.51-.48.59-.46 1.56.13 2.04.76.63 1.67.37 2.37.07 1.35 1.38 3.77 2.36 3.77 2.36s-2.56-3.55-3.12-4.08zM71.48 84.45c.41-.39.87-.74 1.41-.9.54-.16 1.29-.05 1.74.51.48.59.46 1.56-.13 2.04-.76.63-1.67.37-2.37.07-1.35 1.38-3.65 2.3-3.65 2.3s2.44-3.49 3-4.02z"/></g><g><path style="fill:#ff8a66" d="M88.31 78.43c-3.01 2.96-2.23 6.76.55 7.51 2.1.57 4.39.42 6.49-.16 1.89-.52 3.73-1.28 5.11-2.49 2.74-2.41 2.67-7.17-1.82-8.15-3.48-.76-8.29 1.29-10.33 3.29zM39.47 78.43c3.01 2.96 2.23 6.76-.55 7.51-2.1.57-4.39.42-6.49-.16-1.89-.52-3.73-1.28-5.11-2.49-2.74-2.41-2.67-7.17 1.82-8.15 3.48-.76 8.29 1.29 10.33 3.29z"/></g><g><path style="fill:#f2a600" d="M95.96 42.65c4.93-9.08 6.03-21.23 4.24-29.32-.38-1.72-2.16-6.47-5.06-6.1-3.08.4-1.86 4.45-2.35 8.08-1.63 12.07-7.57 15.23-9.84 17.57-1.44 1.48-2.05 4.88 2.53 8.83 4.58 3.97 9.42 2.88 10.48.94z"/><path style="fill:#ffca28" d="M97.6 30.36c-1.25 2.86-5.79 8.87-10.57 6.43-1.56-.8-2.36-3.32-1.4-4.78 1.37-2.11 2.42-3.8 3.24-5.32 1.65-2.41 3.18-5.9 3.92-11.39.49-3.63-.73-7.67 2.35-8.08 6.37.02 5.2 16.87 2.46 23.14z"/><g><path style="fill:#f2a600" d="M32.4 42.72c-4.93-9.08-6.6-21.3-4.81-29.39.38-1.72 2.16-6.47 5.06-6.1 3.08.4 1.86 4.45 2.35 8.08 1.63 12.07 7.64 15.35 9.91 17.69 1.44 1.48 1.98 4.76-2.6 8.72s-8.86 2.94-9.91 1z"/><path style="fill:#ffca28" d="M30.19 30.36c1.25 2.86 5.79 8.87 10.57 6.43 1.56-.8 2.36-3.32 1.4-4.78-1.37-2.11-2.42-3.8-3.24-5.32-1.65-2.41-3.18-5.9-3.92-11.39-.49-3.63.73-7.67-2.35-8.08-6.37.02-5.2 16.87-2.46 23.14z"/></g></g></svg><svg viewBox="0 0 128 128" style="enable-background:new 0 0 128 128" id="1F47A" xmlns="http://www.w3.org/2000/svg"><path style="fill:#f04e3e" d="M9.04 75.5c0-9.6-2.91-54.6 4.71-63.46C26.61-2.92 41.97 7.58 59.06 7.58s29.33-9.15 38.27 4.17c7.51 11.19 4.58 52.57 4.58 63.75 0 31.31-20.79 48.5-46.43 48.5S9.04 107.46 9.04 75.5z"/><path style="fill:#fff8e1" d="M66.69 99.64c11.7 0 17.16 6.89 19.55 9.46.89.96 1.81.58 1.81.58 0-5.66-6.77-21.25-21.36-21.25-16.56 0-26.78 9.48-29.64 21.25-.78 3.22 14.13-10.04 29.64-10.04z"/><path style="fill:#b71c1c" d="M94.64 31.44c-7.94-2.95-14.61 3.33-17.19 5.93-3.22 3.25-10.15 8.49-12.57 1.41-.72-2.12-.07-4.54-1.15-6.5-.23-.41-.53-.81-.95-1.01s-.99-.17-1.3.18c-.32.37-.28.92-.22 1.4.32 2.49.26 4.47-1.26 6.61-1.68 2.35-4.81 3.72-7.58 2.89-2.14-.65-3.2-2.2-4.54-3.8-1.48-1.76-3.76-3.39-5.61-4.76-5.17-3.82-8.63-4.96-18.16-2.08-5.86 1.77-8.85-1.29-8.68-6.18.17-4.98 1.53-10.26 3.8-14.12 1.65-2.82 5.99-6.05 9.01-7.26-6.77.32-10.75 1.93-15.19 8.85-6.31 9.83-4.01 54.9-4.01 64.5 0 31.97 20.79 46.5 46.43 46.5 5.82 0 11.71-.71 18.56-3.36-.89.02-40.84 6-49.54-17.95-2.62-7.22-2.59-15.16-3.06-22.69-5.11-3.16-8.48-19.56-.68-23.55 3.89-1.99 8.23-2.05 12.99 2.18 6.49 5.78 12.8 4.14 17.63 2.36 2.99-1.1 5.2-3.08 6.77-3.84 2.54-1.24 4.6-.45 5.5.34 1.49 1.32 2.74 8.11 22.46 7.21 10.41-.47 16.44-7.32 16.44-7.32.22-9.15.41-22.86-7.9-25.94zm-17.51 8.04l.98.49-.03.53c-.32-.44-.64-.82-.95-1.02z"/><path style="fill:#ffecb3" d="M27.37 41.56c-.7-3.37 1.94-6.53 5.38-6.39 3.63.15 8.41.79 12.94 2.76 5.59 2.44 10.08 8.69 8.3 15.27-1.12 4.13-3.75 7.43-11.83 6.64-7.15-.69-12.88-9.11-14.79-18.28z"/><path style="fill:#281010" d="M90.89 72.49c.01 1.19-.1 2.73-.52 4.58 0 0 4.59 1.39 9.14-10.54.17-.46.52-.81.9-.77.75.08 1.2 1.21 1.42 2.2 1.87 8.23-.54 17.89-5.71 22.92-1.23 1.2-5.26 2.81-9.04 1.5-1.87-.65-16.22-9.03-19.94-9.47-2.51-.3.33-3.41 1.25-4.3 2.57-2.5 9.63-.83 14.54-3.45 2.63-1.41 4.67-2.99 5.97-4.12.86-.75 1.97.07 1.99 1.45z"/><path style="fill:#ffecb3" d="M95.22 41.56c.7-3.37-1.94-6.53-5.38-6.39-3.63.15-8.41.79-12.94 2.76-5.59 2.44-10.08 8.69-8.3 15.27 1.12 4.13 5.55 7.76 11.83 6.64 9.52-1.69 12.88-9.11 14.79-18.28z"/><ellipse style="fill:#212121" cx="42.98" cy="50.05" rx="5.74" ry="6"/><ellipse style="fill:#212121" cx="80.35" cy="50.05" rx="5.74" ry="6"/><path style="fill:#281010" d="M28.58 72.49c-.02 1.19.14 2.73.7 4.58 0 0-6.19 1.39-12.34-10.54-.24-.46-.7-.81-1.22-.77-1.02.08-1.61 1.21-1.92 2.2-2.53 8.23.72 17.89 7.7 22.92 1.67 1.2 7.1 2.81 12.2 1.5 2.53-.65 21.9-9.03 26.92-9.47 3.39-.3-.45-3.41-1.68-4.3-3.47-2.5-13-.83-19.63-3.45-3.56-1.41-6.31-2.99-8.05-4.12-1.15-.75-2.65.07-2.68 1.45z"/><path style="fill:#394d57" d="M22.47 80.74c3.29 2.13 7.41 2.95 11.27 2.24 0 0-3.02-2.33-4.56-6.32.04.14.06.26.11.4 0 0-6.19 1.39-12.34-10.54-.19-.36-.52-.65-.9-.74-.39 7.05 3.13 12.83 6.42 14.96zM58.95 78.61c-3.47-2.5-13-.83-19.63-3.45-3.56-1.41-6.31-2.99-8.05-4.12-.3-.2-.63-.28-.95-.28 2.89 1.35 5.44 8.55 13.27 8.57 3.36.01 6.72-.46 10.08-.35 2.86.09 5.83.73 8.11 2.38-.58-1.02-2.13-2.25-2.83-2.75z"/><path style="fill:#f44336" d="M101.29 56.52c-11.39 6.52-19.52 9.52-30.02 6.04-5.51-1.83-7.54-5.03-7.54-5.03s-7.31 4.59-7.31 9.93 2.81 8.56 6.81 10.26c4.97 2.11 19.86 5.5 39.23 1.94 14.99-2.76 27.65-12.1 20.59-23.06-3.94-6.14-12.69-5.27-21.76-.08z"/><path style="fill:#b31b1b" d="M66.1 97.91c-13.88-.55-25.88 10.84-26.62 10.63a.93.93 0 01-.67-.83c-.01-.2-1.14.11-1.29.23-1.56 1.24-1.65 2.38-1.53 2.5.46.46 1.03 1.44 4.44.12.68-.26 14.5-8.25 26.47-7.34 10.13.77 17.15 5.73 18.29 6.54.53.38.83.58 1.2.69.37.11 1.65.07 1.77-.75.06-.4-8.88-11.27-22.06-11.79z"/><path style="fill:#cc2d2d" d="M41.22 104.48c2.03-3.43 9.77-14.08 23.99-13.87 12.15.18 18.74 13.15 19.89 15.38.34.66 2.21 5.4 3.07 3.89.26-.46.22-1.03.12-1.55-1.13-5.63-8.45-21.98-23.29-21.98-11.98 0-21.15 5.91-27.08 17.08-.9 1.69-1.91 3.87-2.15 5.77-.13 1.02.34 1.64.97 1.64 1.23-.01 3.57-4.82 4.48-6.36z"/><path style="fill:#ff8a66" d="M57.22 112.36c.6-2.65 3.63-5.3 8.92-5.3 4.05 0 6.59 3.78 6.59 5.79 0 1.89-1.29 1.94-2.57 1.22-1.37-.77-2.55-1.54-4.43-1.54-2.93 0-3.88 1.63-6.16 2-1.56.24-2.66-.84-2.35-2.17z"/><path style="fill:#281010" d="M41.4 36.92c2.44 2.14 5.24 3.92 8.3 5 1.85.65 4.13.93 5.59-.38 2.21-1.98.94-8.5.34-11.05-.77-3.3-2.21-6.46-4.23-9.18-.53-.71-1.64-.52-1.92.32l-1.55 4.73c-3.85-8.3-8.17-11.79-10.59-13.18-.77-.44-1.69.22-1.51 1.08.26 1.27.58 2.88.74 3.93-4.3-3.33-9.73-5.2-15.18-5.21.65.01 3.43 9.42 20.01 23.94z"/><path style="fill:#394d57" d="M38.63 24.84l-.84-5.79s4.6 2.58 10.93 12.7l.93-5.72c3.77 3.63 6.16 10.67 5.49 15.62.01 0 0 0 .01.01 2.4-1.84 1.09-8.56.48-11.17-.77-3.3-2.21-6.44-4.22-9.16-.53-.72-1.66-.52-1.94.33l-1.54 4.71c-3.85-8.29-8.15-11.77-10.58-13.17-.77-.44-1.7.22-1.52 1.09.26 1.27.58 2.87.74 3.92-4.3-3.33-9.73-5.2-15.18-5.21 0-.01 6.81.96 17.24 11.84z"/><g><path style="fill:#281010" d="M80.47 37.21c-2.09 2.03-4.49 3.71-7.11 4.74-1.59.62-3.54.88-4.79-.36-1.89-1.88-.8-8.05-.29-10.47.66-3.13 1.89-6.11 3.63-8.7.45-.67 1.4-.49 1.64.31l1.33 4.48c3.3-7.86 6.99-11.16 9.07-12.48.66-.42 1.45.21 1.3 1.03-.22 1.2-.5 2.73-.63 3.73 3.69-3.16 8.33-4.92 13-4.93-.57-.02-2.95 8.9-17.15 22.65z"/><path style="fill:#394d57" d="M82.85 25.77l.72-5.49s-3.94 2.45-9.36 12.03l-.8-5.42c-3.23 3.44-5.28 10.11-4.7 14.79-.01 0 0 0-.01.01-2.06-1.74-.93-8.11-.41-10.58.66-3.12 1.89-6.1 3.61-8.68.45-.68 1.42-.49 1.66.31l1.32 4.46c3.29-7.85 6.98-11.15 9.06-12.48.66-.42 1.46.21 1.3 1.03-.22 1.2-.49 2.72-.63 3.71 3.69-3.16 8.33-4.92 13-4.93 0 .01-5.84.94-14.76 11.24z"/></g><path style="fill:#ff8a66" d="M106.13 57.49c5.1-2.88 8.7-2.1 9.54-.45 1.42 2.79-1.8 5.44-5.28 6.31-4.77 1.19-10.48 2.55-11.11.37-.64-2.18 3.44-4.31 6.85-6.23z"/><path style="fill:#b71c1c" d="M125.07 62.76c0-3.04-2.01-6.16-2.01-6.16s.78 4.12-2.57 9.15c-2.8 4.2-9.49 8.28-18.75 9.98-5.37.99-10.78 1.49-16.08 1.49-10.58 0-18.09-1.99-20.86-3.17-2.39-1.02-5.47-2.21-8.35-6.05.18 5.02 2.93 8.08 6.79 9.73 3.4 1.45 11.46 3.49 22.43 3.49 5.04 0 10.7-.43 16.81-1.56 12.05-2.22 22.6-8.69 22.6-16.85-.01-.01-.01-.03-.01-.05z"/></svg><svg viewBox="0 0 128 128" style="enable-background:new 0 0 128 128" id="1F47B" xmlns="http://www.w3.org/2000/svg"><path style="fill:none" d="M103.13 28c2.27 8.6.12 47.26-17.67 65.57-13.88 14.28-43 19.77-47.33 17.13"/><path style="fill:#e0e0e0" d="M111.29 109.36a4.397 4.397 0 00-4.82-2.41l-1 .11h-.26c-3.78 0-5.44-1-6.59-3.81-1.75-4.27-.31-10.54 1.15-15.52 3-10.24 7.1-24.25 7-38-.01-2.55-.16-5.09-.47-7.62-.49-4.03-1.44-8-2.82-11.82.37 19.2-3.25 43.71-19.78 60.71-13.2 13.58-35.7 21.49-44.77 20a50.026 50.026 0 0040.87 15.64c13.58-1.1 29.43-6.61 31.69-12.81a5.78 5.78 0 00-.2-4.47zM27.63 43.86c-5.81-.68-11.83-3.43-14-8.93-1.71-4.27-3.17-10.64-8.16-9.88-6.2.95-4.75 13.44-3.3 18.26C8.06 62.91 27.25 66 27.56 65.53s1.51-21.69.07-21.67z"/><path style="fill:#ccc" d="M27.63 43.86c-3.16-.33-6.2-1.35-8.91-3 .67 2.58.39 5.31-.8 7.7-2.21 5-8.32 7.68-8.32 7.68 7.78 8.13 17.74 9.64 18 9.3.4-.54 1.47-21.7.03-21.68z"/><path style="fill:#e0e0e0" d="M100.37 43.86c5.81-.68 11.83-3.43 14-8.93 1.71-4.27 3.17-10.64 8.16-9.88 6.17.94 4.72 13.44 3.27 18.26-5.89 19.6-25.08 22.7-25.39 22.22s-1.48-21.69-.04-21.67z"/><path style="fill:#ccc" d="M120.11 48.06c-3.78 4.17-12.44 8.15-20.38 8.73.03 2.92.25 5.84.64 8.74.32.47 19.5-2.62 25.39-22.22 1.02-3.65 1.42-7.44 1.17-11.22-.57 5.9-2.96 11.48-6.82 15.97z"/><path style="fill:#e0e0e0" d="M106.82 49.7c-.01-2.55-.16-5.09-.47-7.62-2-16.35-11.24-30.55-24.12-37.08A33.946 33.946 0 0063.3 1.35a43.594 43.594 0 00-32.73 20.82c-17.74 29.67-6.38 65.56-3.38 71.66 15.34 31.17 40.12 33.83 52.62 32.82 13.58-1.1 29.43-6.61 31.69-12.81.53-1.46.46-3.07-.2-4.48a4.397 4.397 0 00-4.82-2.41l-1 .11h-.26c-3.78 0-5.44-1-6.59-3.81-1.75-4.27-.31-10.54 1.15-15.52 3-10.22 7.11-24.23 7.04-38.03z"/><path style="fill:none" d="M103.13 28c2.27 8.6.12 47.26-17.67 65.57-13.88 14.28-43 19.77-47.33 17.13"/><path style="fill:#ccc" d="M111.29 109.36a4.397 4.397 0 00-4.82-2.41l-1 .11h-.26c-3.78 0-5.44-1-6.59-3.81-1.75-4.27-.31-10.54 1.15-15.52 3-10.24 7.1-24.25 7-38-.01-2.55-.16-5.09-.47-7.62-.49-4.03-1.44-8-2.82-11.82.37 19.2-3.25 43.71-19.78 60.71-13.2 13.58-35.7 21.49-44.77 20a50.026 50.026 0 0040.87 15.64c13.58-1.1 29.43-6.61 31.69-12.81a5.78 5.78 0 00-.2-4.47z"/><g><defs><path id="aca" d="M61.67 53.88c-8.51.05-17.01-.67-25.39-2.14a2.597 2.597 0 00-3 3C35.7 66.58 47.35 76.3 61.7 76.3c15.69 0 26.26-10 28.45-21.6a2.587 2.587 0 00-3-3c-8.41 1.49-16.94 2.22-25.48 2.18z"/></defs><clipPath id="acb"><use xlink:href="#aca" style="overflow:visible"/></clipPath><g style="clip-path:url(#acb)"><linearGradient id="acc" x1="61.716" x2="61.716" y1="53.65" y2="78.289" gradientTransform="matrix(1 0 0 -1 0 130)" gradientUnits="userSpaceOnUse"><stop offset="0" style="stop-color:#404040"/><stop offset=".12" style="stop-color:#3e3a35"/><stop offset=".44" style="stop-color:#392d1e"/><stop offset=".74" style="stop-color:#362510"/><stop offset="1" style="stop-color:#35220b"/></linearGradient><path style="fill:url(#acc)" d="M61.67 53.88c-8.51.05-17.01-.67-25.39-2.14a2.597 2.597 0 00-3 3C35.7 66.58 47.35 76.3 61.7 76.3c15.69 0 26.26-10 28.45-21.6a2.587 2.587 0 00-3-3c-8.41 1.49-16.94 2.22-25.48 2.18z"/></g><linearGradient id="acd" x1="62.22" x2="62.22" y1="42.38" y2="73.37" gradientTransform="matrix(1 0 0 -1 0 130)" gradientUnits="userSpaceOnUse"><stop offset="0" style="stop-color:#ff4081"/><stop offset=".28" style="stop-color:#fb3d80"/><stop offset=".55" style="stop-color:#ef337d"/><stop offset=".82" style="stop-color:#db2378"/><stop offset="1" style="stop-color:#ca1573"/></linearGradient><path style="fill:url(#acd)" d="M63.68 57.26h-2.93c-4.25 0-8.42-.21-12.44-.54v18.2c.01 7.01 5.68 12.69 12.69 12.7h2.42c7.02 0 12.7-5.68 12.71-12.7V56.63c-4.02.37-8.2.58-12.45.63z"/><path style="opacity:.3;fill:#ab3f2e;enable-background:new" d="M62.2 73c.81.01 1.47-.65 1.48-1.46V57.26h-2.93v14.25c-.01.81.64 1.48 1.45 1.49z"/><g><circle style="fill:#fff" cx="75.18" cy="33.95" r="11.65"/><ellipse style="fill:#422b0d" cx="75.68" cy="33.95" rx="5" ry="5.08"/><path style="fill:#422b0d" d="M55.13 36l-.1-.16c-.11-.18-.23-.36-.36-.53-.44-.58-.92-1.13-1.44-1.64-.7-.67-1.45-1.3-2.23-1.87-.43-.31-.88-.64-1.35-.94s-.94-.58-1.46-.89-1-.53-1.48-.78-1-.46-1.5-.68c-.91-.4-1.84-.73-2.8-1-.7-.19-1.42-.32-2.14-.4h-.87c-.91-.03-1.66.68-1.7 1.58-.03.73.44 1.39 1.14 1.62l.18.06.58.19c.38.13.93.33 1.61.62s1.46.65 2.3 1.06l1.29.67c.44.23.86.46 1.34.74l.27.16-.9.09c-.35.06-.51.08-.84.15s-.61.12-.88.19c-.56.14-1.1.32-1.64.52-.97.36-1.89.84-2.74 1.42-.35.24-.68.51-1 .79-.25.22-.49.46-.71.71-.19.21-.32.39-.42.51l-.14.19c-.54.73-.39 1.75.34 2.29.58.43 1.38.43 1.96 0l.18-.13.12-.09.33-.24c.42-.28.86-.54 1.32-.76.68-.32 1.39-.59 2.11-.81.4-.12.83-.22 1.27-.32.22-.06.43-.09.63-.13s.54-.08.71-.11c.88-.12 1.77-.18 2.66-.18.75.01 1.51.08 2.25.21.32.06.61.11.85.18.21.05.41.11.61.18l.2.05.21.09.17.08c.68.29 1.47.1 1.94-.47.23-.28.36-.64.36-1 .08-.42 0-.86-.23-1.22z"/></g></g></svg><svg viewBox="0 0 128 128" style="enable-background:new 0 0 128 128" id="1F47D" xmlns="http://www.w3.org/2000/svg"><path style="fill:#adbcc3" d="M64 4.5C36.2 4.5 8 28.1 8 55.8s44.3 67.7 56.2 67.7c13.2 0 55.8-39.9 55.8-67.7S91.8 4.5 64 4.5z"/><path style="fill:#422b0d" d="M64 102.35c-9.37 0-16.06-5.52-18.07-8.58-.76-.98-.92-2.31-.41-3.44.39-.74 1.17-1.18 2-1.15.3 0 .6.05.88.15C53.1 90.8 57.23 93 64 93s10.92-2.16 15.63-3.63c.28-.1.58-.15.88-.15.83-.03 1.61.41 2 1.15.51 1.13.35 2.46-.41 3.44-2.04 3.02-8.73 8.54-18.1 8.54zM54.05 81.56c-3 3.88-17.71 3.89-28.85-6.36-10.09-9.28-9.46-25.64-6.13-28.94s19.19-3.38 28.85 6.36 9.8 25.3 6.13 28.94zM80.08 52.58c9.66-9.7 25.52-9.62 28.85-6.33s3.53 19.11-6.13 28.8S77.64 85 73.94 81.38s-3.52-19.1 6.14-28.8z"/><path style="fill:#adbcc3" d="M64 4.5c14.52 0 29.13 6.42 39.8 16.5C93 9.46 77.17 2 61.47 2c-27.8 0-56 23.6-56 51.3 0 15.6 14.06 35.11 28.47 49.18C20.46 88.64 8 70.49 8 55.8 8 28.1 36.2 4.5 64 4.5z"/></svg><svg viewBox="0 0 128 128" style="enable-background:new 0 0 128 128" id="1F47E" xmlns="http://www.w3.org/2000/svg"><linearGradient id="aea" x1="29.2" x2="40.8" y1="830.09" y2="830.09" gradientTransform="translate(0 -713.89)" gradientUnits="userSpaceOnUse"><stop offset="0" style="stop-color:#40c0e7"/><stop offset="1" style="stop-color:#40c0e7"/></linearGradient><path style="fill:url(#aea)" d="M29.2 110.4h11.6V122H29.2z"/><linearGradient id="aeb" x1="29.2" x2="40.8" y1="725.69" y2="725.69" gradientTransform="translate(0 -713.89)" gradientUnits="userSpaceOnUse"><stop offset="0" style="stop-color:#f0f"/><stop offset="1" style="stop-color:#f0f"/></linearGradient><path style="fill:url(#aeb)" d="M29.2 6h11.6v11.6H29.2z"/><linearGradient id="aec" x1="87.2" x2="98.8" y1="830.09" y2="830.09" gradientTransform="translate(0 -713.89)" gradientUnits="userSpaceOnUse"><stop offset="0" style="stop-color:#40c0e7"/><stop offset="1" style="stop-color:#40c0e7"/></linearGradient><path style="fill:url(#aec)" d="M87.2 110.4h11.6V122H87.2z"/><linearGradient id="aed" x1="64" x2="64" y1="824.29" y2="731.49" gradientTransform="translate(0 -713.89)" gradientUnits="userSpaceOnUse"><stop offset=".072" style="stop-color:#792d85"/><stop offset=".305" style="stop-color:#ac1cb3"/><stop offset=".542" style="stop-color:#d90ddc"/><stop offset=".725" style="stop-color:#f503f6"/><stop offset=".831" style="stop-color:#f0f"/></linearGradient><path style="fill:url(#aed)" d="M110.4 52.4V40.8H98.8V29.2H87.2V17.6H75.6v11.6H52.4V17.6H40.8v11.6H29.2v11.6H17.6v11.6H6v46.4h11.6V64h11.6v34.8h11.6v11.6h11.6V91.1H40.8V79.5h46.4v11.6H75.6v19.3h11.6V98.8h11.6V64h11.6v34.8H122V52.4h-11.6zM40.8 40.8h11.6v11.6H40.8V40.8zm46.4 11.6H75.6V40.8h11.6v11.6z"/><linearGradient id="aee" x1="87.2" x2="98.8" y1="725.69" y2="725.69" gradientTransform="translate(0 -713.89)" gradientUnits="userSpaceOnUse"><stop offset="0" style="stop-color:#f0f"/><stop offset="1" style="stop-color:#f0f"/></linearGradient><path style="fill:url(#aee)" d="M87.2 6h11.6v11.6H87.2z"/><path style="fill:#792d85;stroke:#6f21a1;stroke-width:4;stroke-miterlimit:10" d="M29.2 110.4h11.6V122H29.2z"/><path style="fill:none;stroke:#6f21a1;stroke-width:4;stroke-miterlimit:10" d="M29.2 6h11.6v11.6H29.2z"/><path style="fill:#792d85;stroke:#6f21a1;stroke-width:4;stroke-miterlimit:10" d="M87.2 110.4h11.6V122H87.2z"/><path style="fill:none;stroke:#6f21a1;stroke-width:4;stroke-miterlimit:10" d="M110.4 52.4V40.8H98.8V29.2H87.2V17.6H75.6v11.6H52.4V17.6H40.8v11.6H29.2v11.6H17.6v11.6H6v46.4h11.6V64h11.6v34.8h11.6v11.6h11.6V91.1H40.8V79.5h46.4v11.6H75.6v19.3h11.6V98.8h11.6V64h11.6v34.8H122V52.4h-11.6zM40.8 40.8h11.6v11.6H40.8V40.8zm46.4 11.6H75.6V40.8h11.6v11.6zM87.2 6h11.6v11.6H87.2z"/></svg><svg viewBox="0 0 128 128" style="enable-background:new 0 0 128 128" id="1F4A9" xmlns="http://www.w3.org/2000/svg"><path style="fill:#885742" d="M118.89 75.13a15.693 15.693 0 00-7-7.33 22.627 22.627 0 00-6-2.63c1.53-5.6-.64-10.06-3.69-13.39-4.51-4.88-9.2-5.59-9.2-5.59 1.62-3.07 2.11-6.61 1.36-10-.77-3.69-3.08-6.86-6.36-8.72-3.1-1.83-6.92-2.73-10.84-3.47-1.88-.34-9.81-1.45-13.1-6-2.65-3.69-2.73-10.33-3.45-12.32s-3.38-1.15-6.23.76C51.05 8.7 44.15 15.83 41.49 23a24.6 24.6 0 00-1.28 13.89c-2.14.35-4.23.97-6.21 1.85-.16 0-.32.1-.49.17-3 1.24-9.43 7-10 15.85-.21 3.13.19 6.26 1.17 9.24-2.19.57-4.3 1.43-6.26 2.57-2.29.98-4.38 2.38-6.15 4.13-1.95 2.41-3.37 5.2-4.15 8.2a27.594 27.594 0 002 19.77c1.8 3.47 4.06 6.67 6.74 9.52 8.55 8.79 23.31 12.11 35 14 14.19 2.34 29.05 1.52 42.33-4 19.92-8.22 25.22-21.44 26-25.17 1.73-8.25-.39-16.02-1.3-17.89z"/><path style="fill:#35220b" d="M87.45 92.89c-1.57.8-3.17 1.52-4.78 2.16-1.08.43-2.17.82-3.27 1.17-1.1.36-2.21.67-3.33 1-2.24.56-4.52.97-6.82 1.21-1.74.19-3.5.28-5.25.28-4.62 0-9.22-.65-13.67-1.91l-1.46-.44a55.12 55.12 0 01-7.15-2.84l-1.39-.69a22.722 22.722 0 0012.72 15.31c3.43 1.59 7.17 2.4 10.95 2.38 3.82.03 7.6-.75 11.09-2.31a21.868 21.868 0 0012.58-15.44l-.22.12z"/><path style="fill:#fff" d="M85.19 90c-7 1.23-14.09 1.82-21.19 1.77-7.1.04-14.19-.55-21.19-1.77a2.16 2.16 0 00-2.53 2.54v.25A51.578 51.578 0 0064 98.66c1.75 0 3.51-.09 5.25-.28 2.3-.24 4.58-.65 6.82-1.21 1.12-.28 2.23-.59 3.33-1s2.19-.74 3.27-1.17c1.62-.67 3.21-1.39 4.78-2.16l.22-.12.06-.27c.17-1.19-.66-2.29-1.86-2.46a2.22 2.22 0 00-.68.01z"/><g><circle style="fill:#fff" cx="80.13" cy="69.49" r="12.4"/><ellipse style="fill:#35220b" cx="80.13" cy="69.49" rx="5.73" ry="5.82"/><circle style="fill:#fff" cx="47.87" cy="69.49" r="12.4"/><ellipse style="fill:#35220b" cx="47.87" cy="69.49" rx="5.73" ry="5.82"/></g></svg><svg viewBox="0 0 128 128" style="enable-background:new 0 0 128 128" id="1F916" xmlns="http://www.w3.org/2000/svg"><path style="fill:#c62828" d="M12.53 53.05c-4.57.01-8.28 3.72-8.28 8.29v38.38a8.297 8.297 0 008.28 8.28h5.55V53l-5.55.05zM115.72 53.05c4.57.01 8.28 3.72 8.28 8.29v38.38c-.01 4.57-3.71 8.28-8.28 8.29h-5.55v-55l5.55.04z"/><path style="fill:#90a4ae" d="M113.17 54.41l-.12-10c-.03-4.3-3.53-7.77-7.83-7.75H67.05V23.25c5.11-1.69 7.89-7.2 6.2-12.31-1.69-5.11-7.2-7.89-12.31-6.2s-7.89 7.2-6.2 12.31a9.743 9.743 0 006.2 6.2v13.46H22.78c-4.28.01-7.75 3.47-7.78 7.75v71.78c.03 4.28 3.5 7.74 7.78 7.76h82.44c4.3.01 7.8-3.46 7.83-7.76v-7.37h.12V54.41z"/><path style="fill:#c62828" d="M64 18c-2.21 0-4-1.79-4-4s1.79-4 4-4 4 1.79 4 4-1.79 4-4 4z"/><g><linearGradient id="aga" x1="64.005" x2="64.005" y1="22.44" y2="35.55" gradientTransform="matrix(1 0 0 -1 0 130)" gradientUnits="userSpaceOnUse"><stop offset=".12" style="stop-color:#e0e0e0"/><stop offset=".52" style="stop-color:#fff"/><stop offset="1" style="stop-color:#eaeaea"/></linearGradient><path style="fill:url(#aga)" d="M44.15 94.45h39.71c3.46 0 6.27 2.81 6.27 6.27v.57c0 3.46-2.81 6.27-6.27 6.27H44.15c-3.46 0-6.27-2.81-6.27-6.27v-.57c0-3.46 2.81-6.27 6.27-6.27z"/><linearGradient id="agb" x1="54.85" x2="54.85" y1="22.44" y2="35.53" gradientTransform="matrix(1 0 0 -1 0 130)" gradientUnits="userSpaceOnUse"><stop offset="0" style="stop-color:#333"/><stop offset=".55" style="stop-color:#666"/><stop offset="1" style="stop-color:#333"/></linearGradient><path style="fill:url(#agb)" d="M53.67 94.47h2.36v13.09h-2.36z"/><linearGradient id="agc" x1="64.06" x2="64.06" y1="22.44" y2="35.53" gradientTransform="matrix(1 0 0 -1 0 130)" gradientUnits="userSpaceOnUse"><stop offset="0" style="stop-color:#333"/><stop offset=".55" style="stop-color:#666"/><stop offset="1" style="stop-color:#333"/></linearGradient><path style="fill:url(#agc)" d="M62.88 94.47h2.36v13.09h-2.36z"/><linearGradient id="agd" x1="73.15" x2="73.15" y1="22.44" y2="35.53" gradientTransform="matrix(1 0 0 -1 0 130)" gradientUnits="userSpaceOnUse"><stop offset="0" style="stop-color:#333"/><stop offset=".55" style="stop-color:#666"/><stop offset="1" style="stop-color:#333"/></linearGradient><path style="fill:url(#agd)" d="M71.97 94.47h2.36v13.09h-2.36z"/><linearGradient id="age" x1="82.8" x2="82.8" y1="22.44" y2="35.53" gradientTransform="matrix(1 0 0 -1 0 130)" gradientUnits="userSpaceOnUse"><stop offset="0" style="stop-color:#333"/><stop offset=".55" style="stop-color:#666"/><stop offset="1" style="stop-color:#333"/></linearGradient><path style="fill:url(#age)" d="M81.62 94.47h2.36v13.09h-2.36z"/><linearGradient id="agf" x1="45.2" x2="45.2" y1="22.46" y2="35.55" gradientTransform="matrix(1 0 0 -1 0 130)" gradientUnits="userSpaceOnUse"><stop offset="0" style="stop-color:#333"/><stop offset=".55" style="stop-color:#666"/><stop offset="1" style="stop-color:#333"/></linearGradient><path style="fill:url(#agf)" d="M44.02 94.45h2.36v13.09h-2.36z"/><g><path style="fill:#c62828" d="M64 85.33h-5.33c-.55 0-1-.45-1-1 0-.16.04-.31.11-.45l2.74-5.41 2.59-4.78a.996.996 0 011.76 0l2.61 5 2.71 5.19c.25.49.06 1.09-.43 1.35-.14.07-.29.11-.45.11L64 85.33z"/></g><g><radialGradient id="agg" cx="42.64" cy="63.19" r="11.5" gradientTransform="matrix(1 0 0 -1 0 130)" gradientUnits="userSpaceOnUse"><stop offset=".48" style="stop-color:#fff"/><stop offset=".77" style="stop-color:#fdfdfd"/><stop offset=".88" style="stop-color:#f6f6f6"/><stop offset=".96" style="stop-color:#ebebeb"/><stop offset="1" style="stop-color:#e0e0e0"/></radialGradient><circle style="fill:url(#agg)" cx="42.64" cy="66.81" r="11.5"/><linearGradient id="agh" x1="30.14" x2="55.14" y1="63.19" y2="63.19" gradientTransform="matrix(1 0 0 -1 0 130)" gradientUnits="userSpaceOnUse"><stop offset="0" style="stop-color:#333"/><stop offset=".55" style="stop-color:#666"/><stop offset="1" style="stop-color:#333"/></linearGradient><circle style="fill:none;stroke:url(#agh);stroke-width:2;stroke-miterlimit:10" cx="42.64" cy="66.81" r="11.5"/><radialGradient id="agi" cx="84.95" cy="63.22" r="11.5" gradientTransform="matrix(1 0 0 -1 0 130)" gradientUnits="userSpaceOnUse"><stop offset=".48" style="stop-color:#fff"/><stop offset=".77" style="stop-color:#fdfdfd"/><stop offset=".88" style="stop-color:#f6f6f6"/><stop offset=".96" style="stop-color:#ebebeb"/><stop offset="1" style="stop-color:#e0e0e0"/></radialGradient><path style="fill:url(#agi)" d="M85 55.28c-6.35 0-11.5 5.15-11.5 11.5s5.15 11.5 11.5 11.5 11.5-5.15 11.5-11.5c-.01-6.35-5.15-11.49-11.5-11.5z"/><linearGradient id="agj" x1="72.45" x2="97.45" y1="63.22" y2="63.22" gradientTransform="matrix(1 0 0 -1 0 130)" gradientUnits="userSpaceOnUse"><stop offset="0" style="stop-color:#333"/><stop offset=".55" style="stop-color:#666"/><stop offset="1" style="stop-color:#333"/></linearGradient><path style="fill:none;stroke:url(#agj);stroke-width:2;stroke-miterlimit:10" d="M85 55.28c-6.35 0-11.5 5.15-11.5 11.5s5.15 11.5 11.5 11.5 11.5-5.15 11.5-11.5c-.01-6.35-5.15-11.49-11.5-11.5z"/></g></g></svg><svg viewBox="0 0 128 128" style="enable-background:new 0 0 128 128" id="1F921" xmlns="http://www.w3.org/2000/svg"><radialGradient id="aha" cx="63.52" cy="2521.55" r="56.95" gradientTransform="translate(0 -2458.67)" gradientUnits="userSpaceOnUse"><stop offset=".5" style="stop-color:#fff"/><stop offset=".76" style="stop-color:#fdfdfd"/><stop offset=".87" style="stop-color:#f6f6f6"/><stop offset=".96" style="stop-color:#e9e9e9"/><stop offset="1" style="stop-color:#e0e0e0"/></radialGradient><path style="fill:url(#aha)" d="M63.52 7c-30.09 0-58 20-58 55.83 0 36.09 27.87 55.93 58 55.93s58-19.35 58-55.93c-.13-36.24-28-55.83-58-55.83z"/><radialGradient id="ahb" cx="99.468" cy="-62.305" r="20.97" gradientTransform="matrix(1 0 0 -.73 0 26.24)" gradientUnits="userSpaceOnUse"><stop offset="0" style="stop-color:#ed7770"/><stop offset=".08" style="stop-color:#ed7770;stop-opacity:.97"/><stop offset=".21" style="stop-color:#ed7770;stop-opacity:.88"/><stop offset=".35" style="stop-color:#ed7770;stop-opacity:.74"/><stop offset=".52" style="stop-color:#ed7770;stop-opacity:.55"/><stop offset=".71" style="stop-color:#ed7770;stop-opacity:.29"/><stop offset=".9" style="stop-color:#ed7770;stop-opacity:0"/></radialGradient><ellipse style="fill:url(#ahb)" cx="99.47" cy="71.77" rx="19.27" ry="14.77"/><g><radialGradient id="ahc" cx="29.22" cy="-62.305" r="20.97" gradientTransform="matrix(1 0 0 -.73 0 26.24)" gradientUnits="userSpaceOnUse"><stop offset="0" style="stop-color:#ed7770"/><stop offset=".08" style="stop-color:#ed7770;stop-opacity:.97"/><stop offset=".21" style="stop-color:#ed7770;stop-opacity:.88"/><stop offset=".35" style="stop-color:#ed7770;stop-opacity:.74"/><stop offset=".52" style="stop-color:#ed7770;stop-opacity:.55"/><stop offset=".71" style="stop-color:#ed7770;stop-opacity:.29"/><stop offset=".9" style="stop-color:#ed7770;stop-opacity:0"/></radialGradient><ellipse style="fill:url(#ahc)" cx="29.22" cy="71.77" rx="19.27" ry="14.77"/><radialGradient id="ahd" cx="65.94" cy="68.87" r="20" gradientTransform="matrix(1 0 0 -1 0 130)" gradientUnits="userSpaceOnUse"><stop offset="0" style="stop-color:#ff4900"/><stop offset=".38" style="stop-color:#fe4700"/><stop offset=".59" style="stop-color:#fa3f00"/><stop offset=".76" style="stop-color:#f43100"/><stop offset=".9" style="stop-color:#eb1e00"/><stop offset="1" style="stop-color:#e30c00"/></radialGradient><circle style="fill:url(#ahd)" cx="64" cy="66.94" r="14.62"/><linearGradient id="ahe" x1="25.134" x2="25.134" y1="126.28" y2="86.18" gradientTransform="matrix(1 0 0 -1 0 130)" gradientUnits="userSpaceOnUse"><stop offset="0" style="stop-color:#ff4900"/><stop offset="1" style="stop-color:#e30c00"/></linearGradient><path style="fill:url(#ahe)" d="M38.63 5.24a8.272 8.272 0 00-8 6c-6.4-4.76-15.44-3.43-20.2 2.96-1.86 2.5-2.86 5.54-2.86 8.67 0 1.96.39 3.89 1.16 5.69-4.9 2.54-6.82 8.58-4.28 13.48s8.58 6.82 13.48 4.28c3.31-1.72 5.4-5.14 5.4-8.87v-.18c7.45-.67 13.16-6.92 13.16-14.4 0-.45 0-.9-.07-1.34.72.21 1.47.31 2.22.31 4.58 0 8.3-3.72 8.3-8.3s-3.72-8.3-8.3-8.3h-.01z"/><path style="fill:#adbcc3" d="M111.49 29.67c5.33 8.6 8.11 18.84 8.11 30.23 0 16.9-6.1 31.2-17.6 41.4-10.6 9.3-25 14.5-40.4 14.5-18.06 0-37-7.35-48.18-22.94 10.76 17.66 31 25.94 50.18 25.94 15.4 0 29.8-5.2 40.4-14.5 11.5-10.2 17.6-24.5 17.6-41.4 0-12.74-3.47-24.06-10.11-33.23z"/><linearGradient id="ahf" x1="103.341" x2="103.341" y1="126.28" y2="86.18" gradientTransform="matrix(1 0 0 -1 0 130)" gradientUnits="userSpaceOnUse"><stop offset="0" style="stop-color:#ff4900"/><stop offset="1" style="stop-color:#e30c00"/></linearGradient><path style="fill:url(#ahf)" d="M119.71 28.56c3.14-7.34-.27-15.84-7.62-18.98-1.8-.77-3.73-1.16-5.68-1.16-3.11 0-6.13 1-8.62 2.87-1.25-4.41-5.83-6.96-10.24-5.72s-6.96 5.83-5.72 10.24a8.286 8.286 0 007.95 6.03c.75 0 1.49-.11 2.21-.31-.03.45-.03.89 0 1.34 0 7.48 5.71 13.73 13.16 14.4v.18c.01 5.52 4.49 10 10.01 9.99 5.52-.01 10-4.49 9.99-10.01 0-3.73-2.09-7.15-5.4-8.87h-.04z"/><path style="fill:#422b0d" d="M44 40.94c-4.19 0-8 3.54-8 9.42s3.81 9.41 8 9.41c4.2 0 8-3.54 8-9.41s-3.76-9.42-8-9.42z"/><g><path style="fill:#896024" d="M43.65 44.87a2.874 2.874 0 00-3.82 1.34c-.53 1.11-.29 2.44.6 3.3 1.42.68 3.13.08 3.82-1.34.53-1.11.29-2.44-.6-3.3z"/></g><path style="fill:#422b0d" d="M85.37 40.94c-4.19 0-8 3.54-8 9.42s3.81 9.41 8 9.41c4.19 0 8-3.54 8-9.41s-3.81-9.42-8-9.42z"/><g><path style="fill:#896024" d="M85 44.87a2.874 2.874 0 00-3.82 1.34c-.53 1.11-.29 2.44.6 3.3 1.42.68 3.13.08 3.82-1.34.53-1.11.29-2.44-.6-3.3z"/></g><linearGradient id="ahg" x1="36.742" x2="91.758" y1="37.06" y2="37.06" gradientTransform="matrix(1 0 0 -1 0 130)" gradientUnits="userSpaceOnUse"><stop offset="0" style="stop-color:#ff4900"/><stop offset="1" style="stop-color:#e30c00"/></linearGradient><path style="fill:#422b0d;stroke:url(#ahg);stroke-width:4;stroke-miterlimit:10" d="M64.25 101.44c-12.74 0-21.82-6.61-24.55-10.77a4.58 4.58 0 01-.56-4.67c.53-.97 1.56-1.57 2.67-1.56.41 0 .82.07 1.21.2a72.32 72.32 0 0021.28 3.07c7.17.04 14.31-1 21.18-3.07.39-.13.8-.19 1.21-.2 1.11-.01 2.14.59 2.67 1.56a4.58 4.58 0 01-.56 4.67c-2.73 4.16-11.8 10.77-24.55 10.77z"/></g></svg></svg>