<?xml version="1.0" encoding="utf-8"?><svg viewBox="0 0 128 128" xmlns="http://www.w3.org/2000/svg" xmlns:xlink="http://www.w3.org/1999/xlink"><style>:root>svg{display:none}:root>svg:target{display:block}</style><svg viewBox="0 0 128 128" id="1F47F" xmlns="http://www.w3.org/2000/svg"><path fill="#792d85" d="M119.07 7.63C109.84 17 97.71 24.6 86.18 24.3c-1.1-.03-2.02.84-2.05 1.94-.01.32.06.63.19.92 5.07 10.41 16.22 20.81 26.4 19.39.47-.07.91-.31 1.21-.68 6.63-7.94 11.29-23.81 10.55-37a1.99 1.99 0 00-2.16-1.82c-.47.04-.92.24-1.25.58zM8.88 7.38c9.23 9.39 21.36 17 32.89 16.67 1.1-.03 2.02.84 2.05 1.94.01.32-.06.63-.19.92-5.07 10.41-16.22 20.81-26.4 19.39-.48-.06-.92-.31-1.23-.68-6.64-7.94-11.3-23.81-10.55-37 .08-1.1 1.05-1.93 2.15-1.84.48.04.94.25 1.28.6z"/><radialGradient id="aaa" cx="63.6" cy="2590.225" r="51.531" gradientTransform="translate(0 -2522)" gradientUnits="userSpaceOnUse"><stop offset="0" stop-color="#fc01fc"/><stop offset="0" stop-color="#f0f"/><stop offset=".86" stop-color="#df0be2"/><stop offset="1" stop-color="#8e2698"/><stop offset="1" stop-color="#792d85"/></radialGradient><path fill="url(#aaa)" d="M63.6 118.8c-25.24 0-52.47-15.83-52.47-50.57S38.36 17.65 63.6 17.65c14 0 27 4.62 36.55 13 10.4 9.23 15.92 22.26 15.92 37.55s-5.52 28.22-15.92 37.45c-9.59 8.45-22.62 13.15-36.55 13.15z"/><path fill="#792d85" d="M107.22 38.33a51.202 51.202 0 017.32 27.29c0 15.26-5.51 28.17-15.89 37.38-9.57 8.4-22.57 13.09-36.48 13.09-16.3 0-33.43-6.63-43.49-20.71 9.71 16 28 23.42 45.3 23.42 13.9 0 26.9-4.69 36.47-13.09 10.39-9.21 15.89-22.12 15.89-37.38 0-11.5-3.13-21.72-9.12-30z"/><g><path fill="#422b0d" d="M46.7 102.4c-1.21.02-2.33-.64-2.9-1.7-.67-1.51-.48-3.27.5-4.6 2.2-3.4 9.5-8.7 19.7-8.7s17.5 5.3 19.7 8.7c.99 1.33 1.18 3.09.5 4.6a3.236 3.236 0 01-2.9 1.7 4.86 4.86 0 01-1.2-.2A54.847 54.847 0 0064 99.9c-5.42-.03-10.81.75-16 2.3-.43.11-.86.18-1.3.2z"/><g fill="#422b0d"><path d="M58.14 68.82C55.9 66 46.67 60.58 43.34 59c-1.24-.57-2.53-1.03-3.85-1.37-.24-.07-.5-.1-.75-.1A2.87 2.87 0 0036 59.82a2.92 2.92 0 001.67 3.32c1.57.77 4.31 2.23 7.15 3.84A7.83 7.83 0 0041 73.71v1.46c0 4.14 3.36 7.5 7.5 7.5s7.5-3.36 7.5-7.5v-1.46-.17c1.07-.07 2.03-.71 2.5-1.67.49-1 .35-2.19-.36-3.05zM93.52 59.82a2.867 2.867 0 00-2.79-2.27c-.25 0-.51.03-.75.1-1.32.33-2.61.79-3.85 1.35-3.33 1.56-12.56 7-14.8 9.8a2.84 2.84 0 00-.33 3.07c.48.97 1.43 1.6 2.51 1.67v1.63c0 4.14 3.36 7.5 7.5 7.5s7.5-3.36 7.5-7.5v-1.46c0-2.75-1.45-5.3-3.81-6.71 2.84-1.61 5.58-3.07 7.15-3.84 1.29-.56 2-1.97 1.67-3.34z"/></g><path fill="#896024" d="M48.12 68.45a2.874 2.874 0 00-3.82 1.34c-.53 1.11-.29 2.44.6 3.3 1.42.68 3.13.08 3.82-1.34.53-1.11.29-2.44-.6-3.3zM80.63 68.45a2.874 2.874 0 00-3.82 1.34c-.53 1.11-.29 2.44.6 3.3 1.42.68 3.13.08 3.82-1.34.53-1.11.29-2.44-.6-3.3z"/></g></svg><svg viewBox="0 0 128 128" id="1F480" xmlns="http://www.w3.org/2000/svg"><radialGradient id="aba" cx="63.887" cy="74.925" r="64.936" gradientTransform="matrix(1 0 0 1.0839 0 -6.29)" gradientUnits="userSpaceOnUse"><stop offset=".396" stop-color="#e1e7ea"/><stop offset=".993" stop-color="#d6e1e6"/></radialGradient><path fill="url(#aba)" d="M111.79 67.58c.57-3.41 2.93-15.55.78-27.47-1.37-7.59-6.11-17.5-11.4-22.51C90.96 7.93 76.74 4 63.66 4s-26.59 3.93-36.8 13.6c-5.29 5.01-10.03 14.93-11.4 22.51-2.15 11.92.21 24.06.78 27.47.77 4.65-1.27 9.79-1.67 14.42-.43 5.04 1.95 8.95 6.21 11.72 3.55 2.31 7.69 3.53 11.53 5.32 4.57 2.13.42 9.82 2.11 13.7.85 1.96 2.71 3.31 4.63 4.26 2.44 1.22 5.25 1.98 7.9 1.31-.4.1.76 2.43 2.29 3.38 1.4.86 3.13 1.74 4.74 2.09 3.2.7 6.37-.48 8.35-1.5a3.67 3.67 0 013.41 0c1.98 1.02 5.15 2.2 8.35 1.5 2.41-.53 4.56-1.96 6.1-3.83.72-.88 1.84-1.36 2.97-1.28 3.36.22 8.5-1.15 10.73-6.22 1.25-2.82-.01-6.14.82-9.09 1.41-5 6.33-6.24 10.29-8.57 5.25-3.08 8.35-6.53 8.49-11.39.14-5.16-2.36-11.83-1.7-15.82z"/><ellipse cx="39.83" cy="64.15" fill="#424242" rx="13.74" ry="12.49" transform="rotate(-75.001 39.832 64.151)"/><ellipse cx="88.2" cy="64.15" fill="#424242" rx="12.49" ry="13.74" transform="rotate(-14.999 88.202 64.154)"/><path fill="#424242" d="M55.98 86.71c0-4.43 3.59-15.41 8.03-15.41s8.03 10.97 8.03 15.41c0 9.01-8.03 2.87-8.03 2.87s-8.03 6.66-8.03-2.87z"/><path fill="#8abfd1" d="M42.63 118.43c-1.2-.23-2.34-.6-3.36-1.35.85-.2 1.7-.42 2.48-.8 1.94-.97 1.89-2.53 2.32-4.45.37-1.68.73-3.36 1.16-5.03.29-1.12 1.03-2.19 2.18-2.03 1.44.2 1.58 1.22 1.34 2.77-.23 1.44-1.97 10.93-1.97 10.94-.08.43-2.97.14-3.25.1-.3-.04-.6-.09-.9-.15zM86.04 118.43c1.2-.23 2.34-.6 3.36-1.35-.85-.2-1.7-.42-2.48-.8-1.94-.97-1.89-2.53-2.32-4.45-.37-1.68-.73-3.36-1.16-5.03-.29-1.12-1.03-2.19-2.18-2.03-1.44.2-1.58 1.22-1.34 2.77.23 1.44 1.97 10.93 1.97 10.94.08.43 2.97.14 3.25.1.3-.04.6-.09.9-.15zM59.47 123.45s2.27-3.06 2.35-5.15c.15-3.73.36-8.77.36-11.69 0-1.16.7-2.05 1.87-2.05 1.16 0 1.81.78 1.81 1.94 0 .05.27 6.83.27 11.55 0 2.18 2.44 5.39 2.44 5.39-1-.45-2.75-1.32-4.55-1.24-2.28.11-4.55 1.25-4.55 1.25z"/></svg><svg viewBox="0 0 128 128" id="1F608" xmlns="http://www.w3.org/2000/svg"><path fill="#792d85" d="M8.88 7.38c9.23 9.39 21.36 17 32.89 16.67 1.1-.03 2.02.84 2.05 1.94.01.32-.06.63-.19.92-5.07 10.41-16.22 20.81-26.4 19.39-.48-.06-.92-.31-1.23-.68-6.64-7.94-11.3-23.81-10.55-37 .08-1.1 1.05-1.93 2.15-1.84.48.04.94.25 1.28.6zM119.07 7.63C109.84 17 97.71 24.6 86.18 24.3c-1.1-.03-2.02.84-2.05 1.94-.01.32.06.63.19.92 5.07 10.41 16.22 20.81 26.4 19.39.47-.07.91-.31 1.21-.68 6.63-7.94 11.29-23.81 10.55-37a1.99 1.99 0 00-2.16-1.82c-.47.04-.92.24-1.25.58z"/><radialGradient id="aca" cx="63.6" cy="2590.225" r="51.531" gradientTransform="translate(0 -2522)" gradientUnits="userSpaceOnUse"><stop offset="0" stop-color="#fc01fc"/><stop offset="0" stop-color="#f0f"/><stop offset=".86" stop-color="#df0be2"/><stop offset="1" stop-color="#8e2698"/><stop offset="1" stop-color="#792d85"/></radialGradient><path fill="url(#aca)" d="M63.6 118.8c-25.24 0-52.47-15.83-52.47-50.57S38.36 17.65 63.6 17.65c14 0 27 4.62 36.55 13 10.4 9.23 15.92 22.26 15.92 37.55s-5.52 28.22-15.92 37.45c-9.59 8.45-22.62 13.15-36.55 13.15z"/><path fill="#792d85" d="M107.22 38.33a51.202 51.202 0 017.32 27.29c0 15.26-5.51 28.17-15.89 37.38-9.57 8.4-22.57 13.09-36.48 13.09-16.3 0-33.43-6.63-43.49-20.71 9.71 16 28 23.42 45.3 23.42 13.9 0 26.9-4.69 36.47-13.09 10.39-9.21 15.89-22.12 15.89-37.38 0-11.5-3.13-21.72-9.12-30z"/><g><path fill="#422b0d" d="M81.27 87.54c1.21-.02 2.32.64 2.9 1.7.7 1.5.52 3.26-.47 4.58-2.22 3.37-9.52 8.72-19.7 8.72s-17.48-5.35-19.69-8.72a4.46 4.46 0 01-.47-4.57 3.226 3.226 0 012.9-1.71c.41 0 .82.06 1.21.19 5.2 1.57 10.61 2.35 16.05 2.32 5.42.03 10.81-.75 16-2.32.39-.13.8-.19 1.21-.19h.06z"/><g fill="#422b0d"><path d="M58.14 68.82C55.9 66 46.67 60.58 43.34 59c-1.24-.57-2.53-1.03-3.85-1.37-.24-.07-.5-.1-.75-.1A2.87 2.87 0 0036 59.82a2.92 2.92 0 001.67 3.32c1.57.77 4.31 2.23 7.15 3.84A7.83 7.83 0 0041 73.71v1.46c0 4.14 3.36 7.5 7.5 7.5s7.5-3.36 7.5-7.5v-1.46-.17c1.07-.07 2.03-.71 2.5-1.67.49-1 .35-2.19-.36-3.05zM93.52 59.82a2.867 2.867 0 00-2.79-2.27c-.25 0-.51.03-.75.1-1.32.33-2.61.79-3.85 1.35-3.33 1.56-12.56 7-14.8 9.8a2.84 2.84 0 00-.33 3.07c.48.97 1.43 1.6 2.51 1.67v1.63c0 4.14 3.36 7.5 7.5 7.5s7.5-3.36 7.5-7.5v-1.46c0-2.75-1.45-5.3-3.81-6.71 2.84-1.61 5.58-3.07 7.15-3.84 1.29-.56 2-1.97 1.67-3.34z"/></g><path fill="#896024" d="M48.12 68.45a2.874 2.874 0 00-3.82 1.34c-.53 1.11-.29 2.44.6 3.3 1.42.68 3.13.08 3.82-1.34.53-1.11.29-2.44-.6-3.3zM80.63 68.45a2.874 2.874 0 00-3.82 1.34c-.53 1.11-.29 2.44.6 3.3 1.42.68 3.13.08 3.82-1.34.53-1.11.29-2.44-.6-3.3z"/></g></svg><svg viewBox="0 0 128 128" id="1F620" xmlns="http://www.w3.org/2000/svg"><radialGradient id="ada" cx="63.6" cy="2584.9" r="56.96" gradientTransform="translate(0 -2522)" gradientUnits="userSpaceOnUse"><stop offset=".5" stop-color="#fde030"/><stop offset=".92" stop-color="#f7c02b"/><stop offset="1" stop-color="#f4a223"/></radialGradient><path fill="url(#ada)" d="M63.6 118.8c-27.9 0-58-17.5-58-55.9S35.7 7 63.6 7c15.5 0 29.8 5.1 40.4 14.4 11.5 10.2 17.6 24.6 17.6 41.5s-6.1 31.2-17.6 41.4c-10.6 9.3-25 14.5-40.4 14.5z"/><path fill="#eb8f00" d="M111.49 29.67c5.33 8.6 8.11 18.84 8.11 30.23 0 16.9-6.1 31.2-17.6 41.4-10.6 9.3-25 14.5-40.4 14.5-18.06 0-37-7.35-48.18-22.94 10.76 17.66 31 25.94 50.18 25.94 15.4 0 29.8-5.2 40.4-14.5 11.5-10.2 17.6-24.5 17.6-41.4 0-12.74-3.47-24.06-10.11-33.23z"/><g><g fill="#422b0d"><path d="M83.94 103.14a2.21 2.21 0 01-.89-.62c-9.73-10.11-25.82-10.42-35.93-.69-.23.23-.47.46-.69.69-.24.28-.55.49-.89.62-.75.28-1.6.12-2.2-.41-.59-.52-.79-1.35-.49-2.08C45.83 93 54.69 87 64.74 87s18.91 6 21.89 13.64c.3.73.1 1.56-.49 2.08-.6.53-1.45.69-2.2.42zM58.14 68.82C55.9 66 46.67 60.58 43.34 59c-1.24-.57-2.53-1.03-3.85-1.37-.24-.07-.5-.1-.75-.1A2.87 2.87 0 0036 59.82a2.92 2.92 0 001.67 3.32c1.57.77 4.31 2.23 7.15 3.84A7.83 7.83 0 0041 73.71v1.46c0 4.14 3.36 7.5 7.5 7.5s7.5-3.36 7.5-7.5v-1.46-.17c1.07-.07 2.03-.71 2.5-1.67.49-1 .35-2.19-.36-3.05zM93.52 59.82a2.867 2.867 0 00-2.79-2.27c-.25 0-.51.03-.75.1-1.32.33-2.61.79-3.85 1.35-3.33 1.56-12.56 7-14.8 9.8a2.84 2.84 0 00-.33 3.07c.48.97 1.43 1.6 2.51 1.67v1.63c0 4.14 3.36 7.5 7.5 7.5s7.5-3.36 7.5-7.5v-1.46c0-2.75-1.45-5.3-3.81-6.71 2.84-1.61 5.58-3.07 7.15-3.84 1.29-.56 2-1.97 1.67-3.34z"/></g><path fill="#896024" d="M48.12 68.45a2.874 2.874 0 00-3.82 1.34c-.53 1.11-.29 2.44.6 3.3 1.42.68 3.13.08 3.82-1.34.53-1.11.29-2.44-.6-3.3zM80.63 68.45a2.874 2.874 0 00-3.82 1.34c-.53 1.11-.29 2.44.6 3.3 1.42.68 3.13.08 3.82-1.34.53-1.11.29-2.44-.6-3.3z"/></g></svg><svg viewBox="0 0 128 128" id="1F621" xmlns="http://www.w3.org/2000/svg"><radialGradient id="aea" cx="63.6" cy="2584.9" r="56.96" gradientTransform="translate(0 -2522)" gradientUnits="userSpaceOnUse"><stop offset=".12" stop-color="#fac742"/><stop offset=".32" stop-color="#fac440"/><stop offset=".48" stop-color="#fbba3b"/><stop offset=".62" stop-color="#fba931"/><stop offset=".76" stop-color="#fc9224"/><stop offset=".88" stop-color="#fe7413"/><stop offset="1" stop-color="#ff5100"/></radialGradient><path fill="url(#aea)" d="M63.6 118.8c-27.9 0-58-17.5-58-55.9S35.7 7 63.6 7c15.5 0 29.8 5.1 40.4 14.4 11.5 10.2 17.6 24.6 17.6 41.5s-6.1 31.2-17.6 41.4c-10.6 9.3-25 14.5-40.4 14.5z"/><path fill="#d84213" d="M111.49 29.67c5.33 8.6 8.11 18.84 8.11 30.23 0 16.9-6.1 31.2-17.6 41.4-10.6 9.3-25 14.5-40.4 14.5-18.06 0-37-7.35-48.18-22.94 10.76 17.66 31 25.94 50.18 25.94 15.4 0 29.8-5.2 40.4-14.5 11.5-10.2 17.6-24.5 17.6-41.4 0-12.74-3.47-24.06-10.11-33.23z"/><g><g fill="#422b0d"><path d="M83.94 103.14a2.21 2.21 0 01-.89-.62c-9.73-10.11-25.82-10.42-35.93-.69-.23.23-.47.46-.69.69-.24.28-.55.49-.89.62-.75.28-1.6.12-2.2-.41-.59-.52-.79-1.35-.49-2.08C45.83 93 54.69 87 64.74 87s18.91 6 21.89 13.64c.3.73.1 1.56-.49 2.08-.6.53-1.45.69-2.2.42zM58.14 68.82C55.9 66 46.67 60.58 43.34 59c-1.24-.57-2.53-1.03-3.85-1.37-.24-.07-.5-.1-.75-.1A2.87 2.87 0 0036 59.82a2.92 2.92 0 001.67 3.32c1.57.77 4.31 2.23 7.15 3.84A7.83 7.83 0 0041 73.71v1.46c0 4.14 3.36 7.5 7.5 7.5s7.5-3.36 7.5-7.5v-1.46-.17c1.07-.07 2.03-.71 2.5-1.67.49-1 .35-2.19-.36-3.05zM93.52 59.82a2.867 2.867 0 00-2.79-2.27c-.25 0-.51.03-.75.1-1.32.33-2.61.79-3.85 1.35-3.33 1.56-12.56 7-14.8 9.8a2.84 2.84 0 00-.33 3.07c.48.97 1.43 1.6 2.51 1.67v1.63c0 4.14 3.36 7.5 7.5 7.5s7.5-3.36 7.5-7.5v-1.46c0-2.75-1.45-5.3-3.81-6.71 2.84-1.61 5.58-3.07 7.15-3.84 1.29-.56 2-1.97 1.67-3.34z"/></g><path fill="#896024" d="M48.12 68.45a2.874 2.874 0 00-3.82 1.34c-.53 1.11-.29 2.44.6 3.3 1.42.68 3.13.08 3.82-1.34.53-1.11.29-2.44-.6-3.3zM80.63 68.45a2.874 2.874 0 00-3.82 1.34c-.53 1.11-.29 2.44.6 3.3 1.42.68 3.13.08 3.82-1.34.53-1.11.29-2.44-.6-3.3z"/></g></svg><svg viewBox="0 0 128 128" id="1F624" xmlns="http://www.w3.org/2000/svg"><radialGradient id="afa" cx="63.6" cy="2584.9" r="56.96" gradientTransform="translate(0 -2522)" gradientUnits="userSpaceOnUse"><stop offset=".5" stop-color="#fde030"/><stop offset=".92" stop-color="#f7c02b"/><stop offset="1" stop-color="#f4a223"/></radialGradient><path fill="url(#afa)" d="M63.6 118.8c-27.9 0-58-17.5-58-55.9S35.7 7 63.6 7c15.5 0 29.8 5.1 40.4 14.4 11.5 10.2 17.6 24.6 17.6 41.5s-6.1 31.2-17.6 41.4c-10.6 9.3-25 14.5-40.4 14.5z"/><path fill="#eb8f00" d="M111.49 29.67c5.33 8.6 8.11 18.84 8.11 30.23 0 16.9-6.1 31.2-17.6 41.4-10.6 9.3-25 14.5-40.4 14.5-18.06 0-37-7.35-48.18-22.94 10.76 17.66 31 25.94 50.18 25.94 15.4 0 29.8-5.2 40.4-14.5 11.5-10.2 17.6-24.5 17.6-41.4 0-12.74-3.47-24.06-10.11-33.23z"/><path fill="#35220b" d="M83.9 90.7c-.39-.01-.76-.11-1.1-.3A37.058 37.058 0 0064 85.6c-6.58-.05-13.05 1.6-18.8 4.8-.3.19-.65.29-1 .3-.8-.03-1.53-.49-1.9-1.2-.31-.73-.19-1.58.3-2.2 10.36-11.82 28.34-13 40.16-2.64.94.82 1.82 1.7 2.64 2.64.74.88.62 2.18-.25 2.92-.35.29-.79.46-1.25.48z"/><g fill="#35220b"><path d="M73.9 50.1c.08.01.15.04.2.1.11.01.19.09.2.2.1 0 .1 0 .2.1.23.12.46.22.7.3l.9.3c.82.27 1.65.47 2.5.6.5.1 1 .1 1.5.2.53.08 1.06.12 1.6.1h1.6a7.52 7.52 0 001.5-.2c1-.2 1.8-.4 2.5-.6s1.2-.5 1.6-.6c.22-.05.43-.15.6-.3l.5-.2a3 3 0 014 1.2 3.01 3.01 0 01-.3 3.3c-.08.09-.15.19-.2.3-.17.26-.37.5-.6.7-.76.76-1.6 1.43-2.5 2-1.24.53-2.51 1-3.8 1.4-.76.21-1.52.38-2.3.5-.4 0-.8.1-1.3.1h-1.2c-.8-.02-1.6-.08-2.4-.2-.78-.11-1.55-.28-2.3-.5-1.38-.36-2.69-.94-3.9-1.7-.6-.3-1-.7-1.5-1-.39-.31-.76-.64-1.1-1l-.4-.4c-.1-.1-.1-.2-.2-.2l-.2-.2c-.99-1.33-.73-3.21.6-4.2 1.06-.68 2.41-.72 3.5-.1zM37.1 50.1c.08.01.15.04.2.1.11.01.19.09.2.2.1 0 .1 0 .2.1.23.12.46.22.7.3l.9.3c.82.27 1.65.47 2.5.6.5.1 1 .1 1.5.2.53.09 1.06.12 1.6.1h1.6a7.52 7.52 0 001.5-.2c1-.2 1.8-.4 2.5-.6s1.2-.5 1.6-.6c.22-.05.43-.15.6-.3l.5-.2a3 3 0 014 1.2 3.01 3.01 0 01-.3 3.3c-.08.09-.15.19-.2.3-.17.26-.37.5-.6.7-.74.78-1.58 1.45-2.5 2-1.24.76-2.59 1.34-4 1.7-.76.21-1.52.38-2.3.5-.4 0-.8.1-1.3.1h-1.2c-.8-.02-1.6-.08-2.4-.2-.78-.11-1.55-.28-2.3-.5-1.4-.38-2.75-.95-4-1.7-.5-.3-1-.7-1.5-1-.39-.31-.76-.64-1.1-1l-.4-.4c-.1-.1-.1-.2-.2-.2l-.2-.2c-.99-1.33-.73-3.21.6-4.2 1.06-.9 2.57-1.06 3.8-.4z"/></g><g fill="#422b0d"><path d="M75.52 37.89l-.1.12c-1.46 2-4.78.52-3.63-2 .97-2.01 2.24-3.86 3.76-5.49 4.07-4.42 9.68-7.11 15.67-7.52 1.14-.1 2.15.76 2.25 1.9a2.08 2.08 0 01-1.77 2.23 29.524 29.524 0 00-16.18 10.76zM54.42 38.89l.09.12c1.47 2 4.79.52 3.64-2a22.24 22.24 0 00-3.77-5.49A23.46 23.46 0 0038.72 24c-1.14-.11-2.16.73-2.27 1.87-.11 1.11.68 2.1 1.78 2.26a29.549 29.549 0 0116.19 10.76z"/></g><path fill="#fff" d="M5.77 92c.8-.96.92-2.31.3-3.4A10.163 10.163 0 015 80.9c1.07-4.45 4.93-7.66 9.5-7.9h.6c1.71.01 3.39.44 4.9 1.25 1.6.92 3.02 2.15 4.16 3.6 3.52-1.46 18.5-7 22.37-8.43h.06L36.33 91.17c4.64 3.43 5.62 9.98 2.19 14.62a10.428 10.428 0 01-7.75 4.21h-.61c-2.44.02-4.81-.83-6.69-2.4-.56-.46-1.27-.71-2-.7-.6.01-1.19.18-1.7.5a10.81 10.81 0 01-5.91 1.8c-.81 0-1.61-.1-2.39-.3-4.51-1.02-7.8-4.89-8.11-9.5-.2-2.69.67-5.35 2.41-7.4z"/><path fill="#92cbeb" d="M46.56 69.4L31.18 89.69l5.15 1.48z"/><path fill="#92cbeb" d="M31.65 89.34c-.38.02-.67.33-.65.71.01.25.16.47.38.58 2.06.9 3.55 2.74 4 4.94.42 2.32-.2 5.32-2 7s-4.78 2-7.07 1.4-5-3-6.77-4.79a.8.8 0 00-1.12-.02c-.13.12-.21.28-.23.46-.1.96-.02 1.93.26 2.85.14.91-4.51 4.41-9.78 1.59C1.18 100 7.11 91.5 6.26 91.17c-.12.3-.28.58-.49.83a10.266 10.266 0 00-2.41 7.4c.31 4.61 3.6 8.48 8.11 9.5.78.2 1.58.3 2.39.3 2.1-.01 4.16-.64 5.91-1.8.51-.32 1.1-.49 1.7-.5.73-.01 1.44.24 2 .7 1.88 1.57 4.25 2.42 6.69 2.4h.61c5.76-.36 10.14-5.32 9.77-11.08-.19-3.08-1.74-5.91-4.21-7.75l.61-1.31c-1.72-.5-3.51-.67-5.29-.52zM5 80.9c-.67 2.61-.27 5.38 1.1 7.7.42.79.49 1.72.19 2.56a6.213 6.213 0 002.39-3.88c.1-1.69-.09-3.38-.58-5-.45-1.37-.37-2.85.23-4.16 1.09-2.61 4.35-4.13 4.63-4.24.68-.28.82-.59.79-.8A10.31 10.31 0 005 80.9z"/><path fill="#fff" d="M122.23 92a2.99 2.99 0 01-.3-3.4c1.37-2.32 1.77-5.09 1.1-7.7a10.321 10.321 0 00-9.5-7.9h-.6c-1.72 0-3.42.43-4.93 1.25-1.6.92-3.02 2.15-4.16 3.6-3.52-1.46-18.5-7-22.37-8.43h-.06l10.26 21.75c-4.64 3.43-5.62 9.98-2.19 14.62 1.83 2.48 4.67 4.02 7.75 4.21h.61c2.44.02 4.81-.83 6.69-2.4.56-.46 1.27-.71 2-.7.6.01 1.19.18 1.7.5a10.81 10.81 0 005.91 1.8c.81 0 1.61-.1 2.39-.3 4.51-1.02 7.8-4.89 8.11-9.5.2-2.69-.67-5.35-2.41-7.4z"/><path fill="#92cbeb" d="M81.44 69.4l15.37 20.29-5.14 1.48z"/><path fill="#92cbeb" d="M96.35 89.34c.38.02.67.33.65.71-.01.25-.16.47-.38.58-2.06.9-3.55 2.74-4 4.94-.42 2.32.2 5.32 2 7s4.78 2 7.07 1.4 5-3 6.77-4.79a.8.8 0 011.12-.02c.13.12.21.28.23.46.1.96.02 1.93-.26 2.85-.14.91 4.51 4.41 9.78 1.59 7.51-4 1.58-12.51 2.43-12.84.12.3.28.58.49.83 1.74 2.05 2.61 4.71 2.41 7.4-.31 4.61-3.6 8.48-8.11 9.5-.78.2-1.58.3-2.39.3-2.1-.01-4.16-.64-5.91-1.8-.51-.32-1.1-.49-1.7-.5-.73-.01-1.44.24-2 .7a10.305 10.305 0 01-6.69 2.4h-.61c-5.76-.36-10.14-5.32-9.77-11.08.19-3.08 1.74-5.91 4.21-7.75l-.61-1.31c1.71-.51 3.49-.7 5.27-.57zM123 80.9c.67 2.61.27 5.38-1.1 7.7-.42.79-.49 1.72-.19 2.56a6.213 6.213 0 01-2.39-3.88c-.1-1.69.09-3.38.58-5 .45-1.37.37-2.85-.23-4.16-1.09-2.61-4.35-4.13-4.63-4.24-.68-.28-.82-.59-.79-.8 4.26.53 7.75 3.65 8.75 7.82z"/></svg><svg viewBox="0 0 128 128" id="1F92C" xmlns="http://www.w3.org/2000/svg"><radialGradient id="aga" cx="63.6" cy="2584.9" r="56.96" gradientTransform="translate(0 -2522)" gradientUnits="userSpaceOnUse"><stop offset=".12" stop-color="#fac742"/><stop offset=".32" stop-color="#fac440"/><stop offset=".48" stop-color="#fbba3b"/><stop offset=".62" stop-color="#fba931"/><stop offset=".76" stop-color="#fc9224"/><stop offset=".88" stop-color="#fe7413"/><stop offset="1" stop-color="#ff5100"/></radialGradient><path fill="url(#aga)" d="M63.6 118.8c-27.9 0-58-17.5-58-55.9S35.7 7 63.6 7c15.5 0 29.8 5.1 40.4 14.4 11.5 10.2 17.6 24.6 17.6 41.5s-6.1 31.2-17.6 41.4c-10.6 9.3-25 14.5-40.4 14.5z"/><path fill="#d84213" d="M111.49 29.67c5.33 8.6 8.11 18.84 8.11 30.23 0 16.9-6.1 31.2-17.6 41.4-10.6 9.3-25 14.5-40.4 14.5-18.06 0-37-7.35-48.18-22.94 10.76 17.66 31 25.94 50.18 25.94 15.4 0 29.8-5.2 40.4-14.5 11.5-10.2 17.6-24.5 17.6-41.4 0-12.74-3.47-24.06-10.11-33.23z"/><g><path d="M21.032 106.208l3.534-33.564 78.993 8.316-3.534 33.565z"/><path fill="#fff" d="M38.73 94.29l-2.1-.2-1.39 5.26-2.6-.25L34 93.84l-2.89-.28.23-2.39 3.29.32.9-3.39-2.88-.28.23-2.38 3.27.32 1.43-5.34 2.58.25L38.78 86l2.1.2 1.42-5.34 2.59.25-1.42 5.34 3 .29-.23 2.39-3.4-.33-.91 3.38 3 .29-.23 2.39-3.38-.33-1.39 5.27-2.59-.25 1.39-5.26zm-1.48-2.55l2.1.2.9-3.38-2.1-.21-.9 3.39zM57 96.5c.07-.53-.05-1.06-.35-1.5-.4-.48-.9-.86-1.47-1.12-.72-.38-1.38-.75-2-1.12-.56-.35-1.08-.77-1.53-1.25-.4-.44-.7-.95-.89-1.51-.2-.65-.26-1.33-.18-2 .1-1.18.68-2.26 1.61-3a5.666 5.666 0 013.62-1.12l.19-2.44 1.81.18-.23 2.45c1.25.25 2.36.97 3.11 2 .72 1.08 1.03 2.4.85 3.69l-3.86-.37c.1-.64 0-1.29-.28-1.87-.48-.77-1.5-1.01-2.27-.53-.06.04-.12.08-.18.13-.33.34-.53.79-.55 1.26-.07.49.05.99.35 1.39.41.46.9.83 1.45 1.1.68.37 1.32.74 1.92 1.13.56.35 1.07.78 1.52 1.26.41.45.72.97.93 1.54.21.64.28 1.33.2 2-.07 1.19-.63 2.3-1.55 3.07-.99.77-2.22 1.17-3.47 1.13l-.23 2.29-1.81-.17.22-2.31a5.822 5.822 0 01-3.65-2.07 5.43 5.43 0 01-1-3.94l3.84.37c-.11.69.03 1.4.39 2 .37.5.95.81 1.57.84.45.07.91-.06 1.27-.35s.59-.7.65-1.16zM65.75 101.68c.04-.59.34-1.12.82-1.46 1.06-.71 2.46-.57 3.37.32a2.1 2.1 0 01-.17 2.96c-.04.04-.08.07-.13.11-.51.36-1.13.51-1.74.43-.62-.04-1.2-.31-1.62-.76a2 2 0 01-.53-1.6zm4.49-3.51l-3.44-.33.67-12.59 4.52.44-1.75 12.48zM96.26 96.18a8.28 8.28 0 01-2 4.73 4.515 4.515 0 01-3.93 1.46c-.59-.05-1.17-.25-1.66-.58-.45-.33-.8-.77-1-1.29-.8.93-2.02 1.4-3.24 1.25-.72-.06-1.39-.36-1.91-.86a3.74 3.74 0 01-1-2c-.19-.92-.19-1.88 0-2.8a8.668 8.668 0 012.35-4.53 4.833 4.833 0 013.94-1.43c1.05.08 2.06.46 2.9 1.09l.69.57-1.27 6.83c-.23 1.08.09 1.66 1 1.74.77.02 1.47-.42 1.8-1.11.59-.97.95-2.06 1.06-3.19.49-2.12.13-4.35-1-6.21a6.681 6.681 0 00-5.14-2.66 7.19 7.19 0 00-4.1.76 7.77 7.77 0 00-3.07 3 12.1 12.1 0 00-1.61 4.66c-.39 2.73-.06 4.88 1 6.45a6.856 6.856 0 005.29 2.71c.7.07 1.41.07 2.11 0 .63-.05 1.25-.18 1.85-.36l.25 2c-.63.3-1.31.5-2 .57-.85.12-1.72.12-2.57.02-1.89-.12-3.71-.72-5.3-1.75a7.638 7.638 0 01-3-4 13.22 13.22 0 01-.39-5.93c.25-2.02.95-3.95 2.05-5.66 1-1.57 2.42-2.82 4.1-3.61 3.4-1.5 7.32-1.19 10.44.83 1.34.94 2.36 2.29 2.89 3.84.6 1.75.76 3.63.47 5.46zm-11.87.2a4.6 4.6 0 000 2.33c.15.5.59.86 1.11.9.4.02.79-.12 1.07-.4.39-.37.7-.83.9-1.33l1-5.32c-.23-.08-.47-.14-.72-.16-.8-.11-1.61.2-2.12.83-.66.93-1.09 2.02-1.24 3.15z"/><g fill="#422b0d"><path d="M82.77 51.36c4.19 0 8 3.54 8 9.42s-3.81 9.41-8 9.41c-4.19 0-8-3.54-8-9.41s3.81-9.42 8-9.42zM45.23 51.36c-4.19 0-8 3.54-8 9.42s3.81 9.41 8 9.41c4.19 0 8-3.54 8-9.41s-3.81-9.42-8-9.42z"/><g><path d="M36.58 43.73l-.11-.09c-1.67-1.49-4.3.92-2.81 3 1.21 1.6 2.67 2.99 4.34 4.11 4.45 3.01 9.98 3.94 15.17 2.54 2.45-.71 1.89-4.25-.35-4.08-5.92.35-11.74-1.62-16.24-5.48zM91.42 43.73l.11-.09c1.67-1.49 4.3.92 2.81 3-1.21 1.6-2.67 2.99-4.34 4.11a18.474 18.474 0 01-15.17 2.54c-2.45-.71-1.89-4.25.35-4.08 5.92.35 11.74-1.62 16.24-5.48z"/></g></g><g><path fill="#896024" d="M44.28 54.87a2.874 2.874 0 00-3.82 1.34c-.53 1.11-.29 2.44.6 3.3 1.42.68 3.13.08 3.82-1.34.53-1.11.29-2.44-.6-3.3z"/></g><g><path fill="#896024" d="M82.63 54.87a2.874 2.874 0 00-3.82 1.34c-.53 1.11-.29 2.44.6 3.3 1.42.68 3.13.08 3.82-1.34.53-1.11.29-2.44-.6-3.3z"/></g></g></svg><svg viewBox="0 0 128 128" id="2620" xmlns="http://www.w3.org/2000/svg"><path fill="#c8dee9" d="M15.56 120.59c-.23-.41-.47-.81-.63-1.23-.8-2.03-.88-3.53-2.9-4.37-1.02-.43-3.26-1.08-4.32-1.4-1.89-.56-3.45-2.14-3.97-4.05s.02-4.06 1.37-5.5c2.08-2.22 5.44-2.46 8.46-2.8 8.25-.95 14.29-9.69 19.8-15.2l10.98-10.98 8.64 8.64-10.62 10.62c-5.5 5.5-15.01 11.69-14.73 20.3.05 1.61.39 3.27-.12 4.8-.69 2.08-2.79 3.37-4.86 4.1-1.08.38-2.25.66-3.37.42-1.69-.37-2.85-1.79-3.73-3.35z"/><path fill="#8abfd1" d="M14.44 110.53c2.17.23 2.32 2.93 1.78 5.36-.19.85-.64 1.76-1.37 2.08-.67.29-.75-1.57-2.2-2.61-.47-.34-4.15-1.04-6.35-2.39-.62-.38-.48-1.31.24-1.46 2.42-.5 6.93-1.09 7.9-.98zM25.85 94.04s0 .01 0 0c.24-.24 2.95-.08 4.09 1.94.74 1.31 1.1 2.85.92 4.32-.25 2.01-1.14 3.87-1.95 5.71-1.67 3.79-1.15 6.16-1.11 6.31 1.26-7.44 9.58-13.01 14.58-18.01L53 83.69l-9.4-8.81c-1.36 1.37-16.32 17.74-17.75 19.16z"/><path fill="#a5c7d3" d="M27.42 90.67c-.05.05-.1.11-.15.16l-.04.13c.06-.1.13-.19.19-.29z"/><path fill="#c8dee9" d="M112.44 120.59c.23-.41.44-.82.63-1.23.94-1.98 1.97-4.17 3.99-5.02 1.02-.43 2.17-.43 3.23-.75 1.89-.56 3.45-2.14 3.97-4.05s-.02-4.06-1.37-5.5c-2.08-2.22-5.44-2.46-8.46-2.8-8.25-.95-14.29-9.69-19.8-15.2L83.65 75.06l-8.64 8.64 10.62 10.62c5.5 5.5 15.01 11.69 14.73 20.3-.05 1.61-.39 3.27.12 4.8.69 2.08 2.79 3.37 4.86 4.1 1.08.38 2.25.66 3.37.42 1.69-.37 2.85-1.79 3.73-3.35z"/><path fill="#8abfd1" d="M102.15 94.04s0 .01 0 0c-.24-.24-2.95-.08-4.09 1.94-.74 1.31-1.1 2.85-.92 4.32.25 2.01 1.14 3.87 1.95 5.71 1.67 3.79 1.15 6.16 1.11 6.31-1.26-7.44-9.58-13.01-14.58-18.01-.6-.59-10.61-10.61-10.61-10.61l9.4-8.81c1.35 1.36 16.31 17.73 17.74 19.15z"/><path fill="#a5c7d3" d="M100.58 90.67c.05.05.1.11.15.16l.04.13c-.06-.1-.13-.19-.19-.29z"/><path fill="#8abfd1" d="M113.72 110.53c-2.17.23-2.32 2.93-1.78 5.36.19.85.64 1.76 1.37 2.08.67.29.75-1.57 2.2-2.61.47-.34 4.15-1.04 6.35-2.39.62-.38.48-1.31-.24-1.46-2.42-.5-6.93-1.09-7.9-.98z"/><g><path fill="#c8dee9" d="M15.56 7.41c-.23.41-.44.82-.63 1.23-.94 1.98-1.97 4.17-3.99 5.02-1.02.43-2.17.43-3.23.75-1.89.56-3.45 2.14-3.97 4.05-.52 1.9.02 4.06 1.37 5.5 2.08 2.22 5.44 2.46 8.46 2.8 8.25.95 14.29 9.69 19.8 15.2l10.98 10.98 8.64-8.64-10.62-10.62c-5.5-5.5-15.01-11.69-14.73-20.3.05-1.61.39-3.27-.12-4.8-.69-2.08-2.79-3.37-4.86-4.1-1.08-.38-2.25-.66-3.37-.42-1.69.37-2.85 1.79-3.73 3.35z"/><path fill="#a5c7d3" d="M27.42 37.33c-.05-.05-.1-.11-.15-.16l-.04-.13c.06.1.13.19.19.29z"/><path fill="#8abfd1" d="M7.89 22.54c4.93.1 6.15-.75 7.42-1.21 4.08-1.46 5.17 1.25 4.03 3.41-1.4 2.66-7.05 2.52-11.22 1.02-.89-.32-3.2-1.35-3.48-2.44-.44-1.71 2.54-.8 3.25-.78zM52.99 44.3S38.9 31.07 35.9 27.85c-6.07.61-9.36 4.44-9.87 6.36 3.22 2.99 14.66 15.07 18.32 18.73l8.64-8.64z"/></g><g><path fill="#c8dee9" d="M112.44 7.41c.23.41.44.82.63 1.23.94 1.98 1.97 4.17 3.99 5.02 1.02.43 2.17.43 3.23.75 1.89.56 3.45 2.14 3.97 4.05.52 1.9-.02 4.06-1.37 5.5-2.08 2.22-5.44 2.46-8.46 2.8-8.25.95-14.29 9.69-19.8 15.2L83.65 52.94l-8.64-8.64 10.62-10.62c5.5-5.5 15.01-11.69 14.73-20.3-.05-1.61-.39-3.27.12-4.8.69-2.08 2.79-3.37 4.86-4.1 1.08-.38 2.25-.66 3.37-.42 1.69.37 2.85 1.79 3.73 3.35z"/><path fill="#a5c7d3" d="M100.58 37.33c.05-.05.1-.11.15-.16l.04-.13c-.06.1-.13.19-.19.29z"/><path fill="#8abfd1" d="M120.11 22.43c-4.93.1-6.15-.75-7.42-1.21-4.08-1.46-5.17 1.25-4.03 3.41 1.4 2.66 7.05 2.52 11.22 1.02.89-.32 3.2-1.35 3.48-2.44.44-1.7-2.54-.79-3.25-.78zM75.01 44.3s15.35-14.36 18.35-17.58c8.01 1.74 9.4 6.63 9.4 6.63s-15.44 15.92-19.1 19.58c-.01.01-8.65-8.63-8.65-8.63z"/></g><g><path fill="#e1e7ea" d="M99.71 68.48c.42-2.53 2.17-13.78.58-22.62-1.02-5.63-3.78-9.99-7.71-13.71-7.57-7.17-17.88-10.53-27.73-10.82-.05-.01-.11-.01-.16-.01s-.11-.01-.16-.01c-.09 0-.18.01-.26.01-.09 0-.18-.01-.26-.01-.05 0-.11.01-.16.01s-.11-.01-.16.01c-9.85.29-20.16 3.65-27.73 10.82-3.92 3.72-6.69 8.08-7.71 13.71-1.6 8.84.16 20.09.58 22.62.57 3.45-.94 7.26-1.24 10.7-.32 3.74 1.44 6.64 4.6 8.69 2.64 1.71 5.7 2.62 8.55 3.95 3.39 1.58.31 7.28 1.56 10.16.63 1.46 2.01 2.45 3.43 3.16 1.81.9 3.9 1.47 5.86.97-.3.08.56 1.8 1.7 2.5 1.03.64 2.32 1.29 3.51 1.55 2.38.52 4.73-.35 6.19-1.11.8-.41 1.74-.41 2.53 0 1.47.76 3.82 1.64 6.19 1.11 1.79-.39 3.38-1.45 4.52-2.84.53-.65 1.36-1.01 2.2-.95 2.49.16 6.3-.85 7.96-4.61.92-2.09-.01-4.55.61-6.74 1.04-3.71 4.69-4.63 7.63-6.35 3.89-2.29 6.19-4.84 6.3-8.45.15-3.84-1.71-8.78-1.22-11.74z"/><ellipse cx="46.45" cy="66.1" fill="#424242" rx="10.13" ry="9.21" transform="rotate(-75.001 46.45 66.098)"/><ellipse cx="82.1" cy="66.1" fill="#424242" rx="9.21" ry="10.13" transform="rotate(-14.999 82.109 66.101)"/><path fill="#424242" d="M58.36 82.72c0-3.27 2.65-11.36 5.92-11.36s5.92 8.09 5.92 11.36c0 6.64-5.92 2.12-5.92 2.12s-5.92 4.91-5.92-2.12z"/><g><path fill="#8abfd1" d="M49.91 106.3c-.08-.67.09-7.49.09-8.7 0-.86.69-1.55 1.55-1.55.86 0 1.55.7 1.55 1.55 0 1.07-.42 8.73-.42 8.73s-1.4.36-2.77-.03zM62.74 109.27s.01-1.05.01-1.59V97.6c0-.86.69-1.55 1.55-1.55.86 0 1.55.7 1.55 1.55v5.46c0 1.11-.06 6.21-.06 6.21-2.4-.9-3.05 0-3.05 0zM75.7 107.18s-.15-8.28-.15-9.58c0-.86.7-1.55 1.55-1.55.86 0 1.55.7 1.55 1.55 0 1.39-.01 8.78-.01 8.78s-.82-.04-1.45.07c-.27.03-1.49.73-1.49.73z"/></g><path fill="#8abfd1" d="M64.27 105.37c-.76.06-1.52.15-1.53.24-.23 2.63-4.05 2.8-6 2.38-1.13-.25-2.4-.63-3.09-1.6-.65-.9-.94-2.04-.93-3.14 0-.06-2.82-.36-2.82-.36s-.19 1.55-2.1 1.4c-3.14-.25-3.76-1.26-4.43-2.37-.84-1.4-1.14-4.5-1.14-4.5-1.32 5.58 1.48 7.64 2.87 8.4 2.6 1.42 5.88.67 5.88.67s1.31 2.09 2.44 2.79c1.03.64 2.12.96 3.31 1.22 2.38.52 4.73-.35 6.19-1.11.42-.22.88-.31 1.33-.3v-3.72zM64.27 105.37c.76.06 1.52.15 1.53.24.23 2.63 4.05 2.8 6 2.38 1.13-.25 2.4-.63 3.09-1.6.65-.9.94-2.04.93-3.14 0-.06 2.82-.36 2.82-.36s.19 1.55 2.1 1.4c3.14-.25 3.76-1.26 4.43-2.37.84-1.4 1.64-4.5 1.64-4.5.94 5.69-1.98 7.64-3.37 8.4-2.6 1.42-5.88.67-5.88.67s-1.31 2.09-2.44 2.79c-1.03.64-2.12.96-3.31 1.22-2.38.52-4.73-.35-6.19-1.11-.42-.22-.88-.31-1.33-.3v-3.72z"/></g></svg></svg>