<?xml version="1.0" encoding="utf-8"?><svg viewBox="0 0 128 128" xmlns="http://www.w3.org/2000/svg" xmlns:xlink="http://www.w3.org/1999/xlink"><style>:root>svg{display:none}:root>svg:target{display:block}</style><svg style="enable-background:new 0 0 128 128" viewBox="0 0 128 128" xml:space="preserve" id="1F635" xmlns="http://www.w3.org/2000/svg"><radialGradient id="aaa" cx="63.6" cy="1992.9" r="56.96" gradientTransform="translate(0 -1930)" gradientUnits="userSpaceOnUse"><stop offset=".5" style="stop-color:#fde030"/><stop offset=".92" style="stop-color:#f7c02b"/><stop offset="1" style="stop-color:#f4a223"/></radialGradient><path d="M63.6 118.8c-27.9 0-58-17.5-58-55.9S35.7 7 63.6 7c15.5 0 29.8 5.1 40.4 14.4 11.5 10.2 17.6 24.6 17.6 41.5s-6.1 31.2-17.6 41.4c-10.6 9.3-25 14.5-40.4 14.5z" style="fill:url(#aaa)"/><path d="M111.49 29.67c5.33 8.6 8.11 18.84 8.11 30.23 0 16.9-6.1 31.2-17.6 41.4-10.6 9.3-25 14.5-40.4 14.5-18.06 0-37-7.35-48.18-22.94 10.76 17.66 31 25.94 50.18 25.94 15.4 0 29.8-5.2 40.4-14.5 11.5-10.2 17.6-24.5 17.6-41.4 0-12.74-3.47-24.06-10.11-33.23z" style="fill:#eb8f00"/><path d="M82.56 92.85c0 7.58-8.31 12-18.56 12s-18.56-4.45-18.56-12S53.75 77 64 77s18.56 8.27 18.56 15.85zM46.27 56.6l8.46-7.87c1.2-1.49 1.38-3.5.17-4.7-1.59-1.6-4.41-1.21-5.94.61-.08.15-.14.19-.22.34l-6 8.72-8.12-7.57c-.12-.13-.19-.15-.3-.28-1.89-1.44-4.73-1.2-5.92.71-.93 1.44-.31 3.35 1.19 4.55L40 57.28l-8.82 8.25C30 67 29.78 69 31 70.23c1.58 1.61 4.4 1.24 5.94-.57.08-.15.14-.19.23-.34l6.32-9.14 7.68 7.24c.12.13.19.16.3.29 1.88 1.45 4.72 1.23 5.93-.67.93-1.44.32-3.36-1.17-4.56l-9.96-5.88zm38.48 0-8.46-7.87c-1.2-1.49-1.38-3.5-.16-4.7 1.59-1.6 4.4-1.21 5.93.61.08.15.15.19.23.34l6 8.72 8.13-7.57c.11-.13.18-.15.29-.28 1.9-1.44 4.73-1.2 5.93.71.92 1.44.3 3.35-1.2 4.55L91 57.28l8.82 8.25c1.21 1.49 1.41 3.49.19 4.7-1.57 1.61-4.39 1.24-5.93-.57-.09-.15-.15-.19-.23-.34l-6.32-9.14-7.69 7.24c-.11.13-.18.16-.3.29-1.88 1.45-4.71 1.23-5.92-.67-.94-1.44-.33-3.36 1.16-4.56l9.97-5.88zM45.6 28.9c2.3.2 3.2-2.9.8-3.6-1.89-.51-3.85-.71-5.8-.6-5.29.2-10.3 2.42-14 6.2-1.7 1.8.7 4 2.5 2.7a26.231 26.231 0 0 1 16.5-4.7zm36.6 0c5.9-.34 11.75 1.31 16.6 4.7 1.8 1.3 4.2-.9 2.5-2.7a20.906 20.906 0 0 0-14-6.2c-1.95-.11-3.91.09-5.8.6-.98.28-1.55 1.29-1.27 2.27.24.87 1.08 1.43 1.97 1.33" style="fill:#422b0d"/></svg><svg style="enable-background:new 0 0 128 128" viewBox="0 0 128 128" xml:space="preserve" id="1F635-200D-1F4AB" xmlns="http://www.w3.org/2000/svg"><radialGradient id="aba" cx="64" cy="-2088.9" r="56.96" gradientTransform="matrix(1 0 0 -1 0 -2026)" gradientUnits="userSpaceOnUse"><stop offset=".5" style="stop-color:#fde030"/><stop offset=".919" style="stop-color:#f7c02b"/><stop offset="1" style="stop-color:#f4a223"/></radialGradient><path d="M64 118.8c-27.9 0-58-17.5-58-55.9S36.1 7 64 7c15.5 0 29.8 5.1 40.4 14.4C115.9 31.6 122 46 122 62.9s-6.1 31.2-17.6 41.4c-10.6 9.3-25 14.5-40.4 14.5z" style="fill:url(#aba)"/><path d="M111.89 29.67c5.33 8.6 8.11 18.84 8.11 30.23 0 16.9-6.1 31.2-17.6 41.4-10.6 9.3-25 14.5-40.4 14.5-18.06 0-37.04-7.35-48.18-22.94C24.58 110.52 44.81 118.8 64 118.8c15.4 0 29.8-5.2 40.4-14.5C115.9 94.1 122 79.8 122 62.9c0-12.74-3.47-24.06-10.11-33.23z" style="fill:#eb8f00"/><radialGradient id="abb" cx="64" cy="-2088.9" r="56.96" gradientTransform="matrix(1 0 0 -1 0 -2026)" gradientUnits="userSpaceOnUse"><stop offset=".5" style="stop-color:#fde030"/><stop offset=".919" style="stop-color:#f7c02b"/><stop offset="1" style="stop-color:#f4a223"/></radialGradient><path d="M64 118.8c-27.9 0-58-17.5-58-55.9S36.1 7 64 7c15.5 0 29.8 5.1 40.4 14.4C115.9 31.6 122 46 122 62.9s-6.1 31.2-17.6 41.4c-10.6 9.3-25 14.5-40.4 14.5z" style="fill:url(#abb)"/><path d="M111.89 29.67c5.33 8.6 8.11 18.84 8.11 30.23 0 16.9-6.1 31.2-17.6 41.4-10.6 9.3-25 14.5-40.4 14.5-18.06 0-37.04-7.35-48.18-22.94C24.58 110.52 44.81 118.8 64 118.8c15.4 0 29.8-5.2 40.4-14.5C115.9 94.1 122 79.8 122 62.9c0-12.74-3.47-24.06-10.11-33.23z" style="fill:#eb8f00"/><path d="M38.53 48c.05 0 .02 0 0 0zm57.33 0c.04 0 .02 0 0 0zm-59.33 0c.05 0 .02 0 0 0zm57.33 0c.04 0 .02 0 0 0z" style="fill:#5f7aff"/><path d="M82.1 34.68c-8.45 2.31-13.06 9.49-11.62 18.67.88 5.66 6.55 16.63 21.59 13.31 8.97-1.98 13.51-8.51 13.34-17.06-.01-.53-.35-.84-.45-.86 0 0-.21.2-.55 1.47-1.72 6.39-6.21 12.36-14.24 13.25C80.12 64.58 75 57.6 74.22 52.6c-1.03-6.65 2.35-12.47 8.89-14.26 3.87-1.06 7.63.04 10.32 3.02 1.26 1.4 2.62 3.99 2.16 6.55-1.27 6.99-7.76 6.89-9.99 5.23-1.7-1.28-2.3-3.94 1.25-4.81 1.29-.31 2.4-.61 2.75-2.32.23-1.09-.67-2.2-1.64-2.69-2.14-1.09-4.85-.08-6.46 1.32-1.73 1.5-2.45 3.85-1.99 6.44.36 2.02 2 4.66 4.83 6.07 3.49 1.74 12.69 1.53 14.85-7.49.99-4.15-.82-8.44-2.76-10.65-5.47-6.19-12.95-4.71-14.33-4.33zM45.9 66.85c8.45-2.31 13.06-9.49 11.62-18.67-.88-5.66-6.55-16.63-21.59-13.31-8.97 1.98-13.51 8.51-13.34 17.06.01.53.35.84.45.86 0 0 .21-.2.55-1.47 1.72-6.39 6.21-12.36 14.24-13.25C47.88 36.95 53 43.93 53.78 48.93c1.03 6.65-2.35 12.47-8.89 14.26-3.87 1.06-7.63-.04-10.32-3.02-1.26-1.4-2.62-3.99-2.16-6.55 1.27-6.99 7.76-6.89 9.99-5.23 1.7 1.28 2.3 3.94-1.25 4.81-1.29.31-2.4.61-2.75 2.32-.23 1.09.67 2.2 1.64 2.69 2.14 1.09 4.85.08 6.46-1.32 1.73-1.5 2.45-3.85 1.99-6.44-.36-2.02-2-4.66-4.83-6.07-3.49-1.74-12.69-1.53-14.85 7.49-.99 4.15.82 8.44 2.76 10.65 5.47 6.18 12.95 4.71 14.33 4.33zm53.59 20.41c-1.49-1.72-6.05-4.81-14.33-.76-1.84.9-2.81 1.92-6.14 1.68-2.19-.15-3.83-1.21-5.71-2.42-2.39-1.54-5.1-3.26-9.3-3.43-4.2.17-6.91 1.89-9.3 3.43-1.89 1.22-3.52 2.27-5.71 2.42-3.33.24-4.39-.62-6.23-1.52-8.28-4.05-12.75-1.12-14.24.6-1.33 1.54-.43 3.18 2.02 1.43 1.51-1.08 4.22-2.45 10.35 1.01 1.97 1.11 3.83 2.79 8.38 2.47 3.22-.23 5.45-1.66 7.6-3.05 2.1-1.36 4.11-2.63 7.13-2.79 3.03.16 5.03 1.43 7.13 2.79 2.15 1.39 4.38 2.83 7.6 3.05 4.55.32 6.32-1.52 8.29-2.63 6.13-3.46 8.93-1.93 10.44-.85 2.44 1.75 3.35.11 2.02-1.43z" style="fill:#422b0d"/></svg><svg style="enable-background:new 0 0 128 128" viewBox="0 0 128 128" xml:space="preserve" id="1F637" xmlns="http://www.w3.org/2000/svg"><radialGradient id="aca" cx="63.6" cy="2288.9" r="56.96" gradientTransform="translate(0 -2226)" gradientUnits="userSpaceOnUse"><stop offset=".5" style="stop-color:#fde030"/><stop offset=".92" style="stop-color:#f7c02b"/><stop offset="1" style="stop-color:#f4a223"/></radialGradient><path d="M63.6 118.8c-27.9 0-58-17.5-58-55.9S35.7 7 63.6 7c15.5 0 29.8 5.1 40.4 14.4 11.5 10.2 17.6 24.6 17.6 41.5s-6.1 31.2-17.6 41.4c-10.6 9.3-25 14.5-40.4 14.5z" style="fill:url(#aca)"/><path d="M111.49 29.67c5.33 8.6 8.11 18.84 8.11 30.23 0 16.9-6.1 31.2-17.6 41.4-10.6 9.3-25 14.5-40.4 14.5-18.06 0-37-7.35-48.18-22.94 10.76 17.66 31 25.94 50.18 25.94 15.4 0 29.8-5.2 40.4-14.5 11.5-10.2 17.6-24.5 17.6-41.4 0-12.74-3.47-24.06-10.11-33.23z" style="fill:#eb8f00"/><path d="M28.19 91.17c-4.3 2.17-9.08 3.22-13.9 3.06 1.58 2.85 3.64 5.41 6.09 7.56 2.83.09 5.65-.47 8.23-1.64 4.52-1.98 6.93-12.61-.42-8.98zm.31-21.95c-8.4-.66-16.39-3.95-22.82-9.4-.27 3.23-.19 6.48.23 9.69 0 0 6.52 8.11 22.33 9 12.05.69 11.76-8.51.26-9.29zm70.43 21.95c4.3 2.17 9.08 3.22 13.9 3.06-1.59 2.84-3.65 5.4-6.09 7.56-2.83.09-5.65-.47-8.23-1.64-4.51-1.98-6.93-12.61.42-8.98zm-.31-21.95c8.4-.66 16.39-3.95 22.82-9.4.27 3.23.19 6.48-.23 9.69 0 0-6.52 8.11-22.33 9-12.05.69-11.75-8.51-.26-9.29z" style="fill:#eee"/><path d="M101 96.87V70.63c-.08-1.73-1.16-2.31-3.39-3.13-5-1.81-20.14-6.33-33.58-6.33-13.44 0-28.58 4.52-33.58 6.33-2.23.82-3.31 1.4-3.39 3.13v26.24a4.994 4.994 0 0 0 3.16 4.9c3.69 1.78 18.76 7.35 33.83 7.35s30.15-5.57 33.83-7.35c1.98-.8 3.23-2.77 3.12-4.9z" style="fill:#f5f5f5"/><path d="M30.4 67.5c-.72.12-1.38.47-1.88 1-.42.5-.66 1.12-.69 1.77-.03.71-.02 1.43.05 2.14l.12 2.24c.19 3 .31 6.06.34 9.1s0 6.08-.2 9.12c0 .77-.07 1.52-.15 2.31-.1.72-.15 1.45-.16 2.18-.17 1.45.36 2.9 1.43 3.9a3.47 3.47 0 0 1-1.93-1.43 6.89 6.89 0 0 1-1-2.29c-.16-.78-.27-1.57-.33-2.37-.08-.73-.14-1.51-.22-2.26-.28-3-.42-6.08-.46-9.13s0-6.1.32-9.16c.1-1.59.34-3.17.73-4.71.29-.86.86-1.6 1.63-2.08a3.2 3.2 0 0 1 2.4-.33zm67 0c.81-.21 1.67-.09 2.39.33.76.49 1.33 1.22 1.61 2.08.39 1.54.63 3.12.73 4.71.28 3.06.34 6.11.32 9.16s-.18 6.09-.46 9.13c-.08.75-.13 1.53-.22 2.26-.07.8-.18 1.59-.34 2.37-.2.82-.54 1.59-1 2.29a3.47 3.47 0 0 1-1.93 1.43c1.07-1 1.6-2.45 1.43-3.9-.01-.73-.06-1.46-.16-2.18-.07-.79-.1-1.54-.15-2.31-.19-3-.23-6.08-.2-9.12s.15-6.08.34-9.1l.14-2.26c.04-.71.04-1.43 0-2.14-.03-.65-.27-1.27-.69-1.77-.48-.51-1.12-.86-1.81-.98z" style="fill:gray"/><path d="M74.4 45.7a3.34 3.34 0 0 0-.18 4.73c.2.22.43.41.68.57 2.92 2.17 6.2 3.8 9.7 4.8 3.53.88 7.18 1.15 10.8.8a3.415 3.415 0 0 0 3.32-3.5c-.01-.27-.05-.54-.12-.8a4.009 4.009 0 0 0-4.1-2.7c-2.68.26-5.38.1-8-.5-2.58-.79-5.02-2.01-7.2-3.6a3.914 3.914 0 0 0-4.9.2zm-20.8 0a3.34 3.34 0 0 1 .18 4.73c-.2.22-.43.41-.68.57-2.92 2.17-6.2 3.8-9.7 4.8a31.93 31.93 0 0 1-10.8.8 3.308 3.308 0 0 1-3.1-4.3 4.009 4.009 0 0 1 4.1-2.7c2.68.26 5.38.1 8-.5 2.58-.79 5.02-2.01 7.2-3.6a3.773 3.773 0 0 1 4.8.2z" style="fill:#422b0d"/></svg><svg style="enable-background:new 0 0 128 128" viewBox="0 0 128 128" xml:space="preserve" id="1F912" xmlns="http://www.w3.org/2000/svg"><radialGradient id="ada" cx="63.6" cy="2288.9" r="56.96" gradientTransform="translate(0 -2226)" gradientUnits="userSpaceOnUse"><stop offset=".5" style="stop-color:#fde030"/><stop offset=".92" style="stop-color:#f7c02b"/><stop offset="1" style="stop-color:#f4a223"/></radialGradient><path d="M63.6 118.8c-27.9 0-58-17.5-58-55.9S35.7 7 63.6 7c15.5 0 29.8 5.1 40.4 14.4 11.5 10.2 17.6 24.6 17.6 41.5s-6.1 31.2-17.6 41.4c-10.6 9.3-25 14.5-40.4 14.5z" style="fill:url(#ada)"/><path d="M111.49 29.67c5.33 8.6 8.11 18.84 8.11 30.23 0 16.9-6.1 31.2-17.6 41.4-10.6 9.3-25 14.5-40.4 14.5-18.06 0-37-7.35-48.18-22.94 10.76 17.66 31 25.94 50.18 25.94 15.4 0 29.8-5.2 40.4-14.5 11.5-10.2 17.6-24.5 17.6-41.4 0-12.74-3.47-24.06-10.11-33.23z" style="fill:#eb8f00"/><g style="opacity:.9"><radialGradient id="adb" cx="246.237" cy="-50.369" r="21.31" gradientTransform="matrix(.89 0 0 -.78 -117.55 32.61)" gradientUnits="userSpaceOnUse"><stop offset="0" style="stop-color:#ed7770"/><stop offset=".08" style="stop-color:#ed7770;stop-opacity:.97"/><stop offset=".21" style="stop-color:#ed7770;stop-opacity:.88"/><stop offset=".35" style="stop-color:#ed7770;stop-opacity:.74"/><stop offset=".52" style="stop-color:#ed7770;stop-opacity:.55"/><stop offset=".71" style="stop-color:#ed7770;stop-opacity:.29"/><stop offset=".9" style="stop-color:#ed7770;stop-opacity:0"/></radialGradient><ellipse cx="101.65" cy="71.75" rx="17.44" ry="16" style="fill:url(#adb)"/></g><path d="M122.24 44c-1.9-1.9-4.97-1.9-6.87 0L80.76 78.56l-4.93 4.94c3.75.55 7.43 1.46 11 2.73l3.47-3.48L111 62.31l1.24-1.1 10-10.38a4.878 4.878 0 0 0 0-6.83z" style="fill:#e6e6e6"/><path d="M109.05 58a3.223 3.223 0 0 0-4.56 0L78.1 83.89c2.37.43 4.7 1.01 7 1.73l24-23a3.238 3.238 0 0 0-.05-4.62z" style="fill:red"/><path d="M64.11 75.93A46.923 46.923 0 0 0 41 81.8c-2.63 1.39-.86 4.92 1.35 4.14A63.199 63.199 0 0 1 64 82.61c3.96-.01 7.92.29 11.83.89l4.93-4.94a54.12 54.12 0 0 0-16.65-2.63zm26.79 10.4c.87-.89.85-2.31-.03-3.18-.13-.13-.28-.24-.45-.34l-.1-.06-3.47 3.48c.61.22 1.13.43 1.55.61.86.36 1.85.16 2.5-.51z" style="fill:#422b0d"/><path d="m86.84 86.23 3.48-3.48-3.48 3.48z" style="fill:#e6e6e6"/><path d="m118.69 54.52-2.75-2.74a.87.87 0 1 1 1.23-1.23l2.72 2.72-1.2 1.25zm-5.07 5.27-1.52-1.53a.888.888 0 0 1 0-1.23.87.87 0 0 1 1.23 0l1.49 1.5-1.2 1.26zm-9.76 9.66L102.37 68a.87.87 0 1 1 1.23-1.23l1.5 1.46-1.24 1.22zM94 79.13l-1.38-1.39a.87.87 0 1 1 1.23-1.23l1.39 1.4L94 79.13zm15-14.71-2.71-2.76a.87.87 0 1 1 1.23-1.23l2.72 2.77-1.24 1.22zM99.23 74l-2.77-2.74a.87.87 0 1 1 1.23-1.23l2.78 2.75L99.23 74zm-9.84 9.68L86.72 81a.87.87 0 1 1 1.23-1.23l2.68 2.68-1.24 1.23z" style="fill:#404040"/><path d="M46 38.59a1.832 1.832 0 0 0 .14-3.66c-1.94-.25-3.91-.17-5.82.24-5.2.97-9.84 3.86-13 8.1-1.42 2.06 1.25 3.83 2.9 2.31 4.29-4.1 9.88-6.57 15.8-7m35.9.21c-1.01.04-1.86-.75-1.89-1.77-.04-1.01.75-1.86 1.76-1.89 1.94-.24 3.91-.16 5.82.25 5.2.97 9.84 3.87 13 8.11 1.42 2.06-1.25 3.82-2.9 2.31-4.29-4.1-9.87-6.57-15.79-7M44 45.94c-4.19 0-8 3.54-8 9.42s3.81 9.41 8 9.41c4.2 0 8-3.54 8-9.41s-3.76-9.42-8-9.42z" style="fill:#422b0d"/><path d="M43.65 49.87a2.874 2.874 0 0 0-3.82 1.34c-.53 1.11-.29 2.44.6 3.3 1.42.68 3.13.08 3.82-1.34.53-1.11.29-2.44-.6-3.3z" style="fill:#896024"/><path d="M82.4 45.94c-4.19 0-8 3.54-8 9.42s3.81 9.41 8 9.41c4.19 0 8-3.54 8-9.41s-3.81-9.42-8-9.42z" style="fill:#422b0d"/><path d="M82 49.87a2.874 2.874 0 0 0-3.82 1.34c-.53 1.11-.29 2.44.6 3.3 1.42.68 3.13.08 3.82-1.34.53-1.11.29-2.44-.6-3.3z" style="fill:#896024"/><g style="opacity:.9"><radialGradient id="adc" cx="162.921" cy="-52.749" r="21.297" gradientTransform="matrix(.89 0 0 -.78 -117.55 33.44)" gradientUnits="userSpaceOnUse"><stop offset="0" style="stop-color:#ed7770"/><stop offset=".08" style="stop-color:#ed7770;stop-opacity:.97"/><stop offset=".21" style="stop-color:#ed7770;stop-opacity:.88"/><stop offset=".35" style="stop-color:#ed7770;stop-opacity:.74"/><stop offset=".52" style="stop-color:#ed7770;stop-opacity:.55"/><stop offset=".71" style="stop-color:#ed7770;stop-opacity:.29"/><stop offset=".9" style="stop-color:#ed7770;stop-opacity:0"/></radialGradient><ellipse cx="27.45" cy="74.44" rx="17.44" ry="16" style="fill:url(#adc)"/></g></svg><svg style="enable-background:new 0 0 128 128" viewBox="0 0 128 128" xml:space="preserve" id="1F915" xmlns="http://www.w3.org/2000/svg"><radialGradient id="aea" cx="63.6" cy="-2088.9" r="56.96" gradientTransform="matrix(1 0 0 -1 0 -2026)" gradientUnits="userSpaceOnUse"><stop offset=".5" style="stop-color:#fde030"/><stop offset=".919" style="stop-color:#f7c02b"/><stop offset="1" style="stop-color:#f4a223"/></radialGradient><path d="M63.6 118.8c-27.9 0-58-17.5-58-55.9S35.7 7 63.6 7c15.5 0 29.8 5.1 40.4 14.4 11.5 10.2 17.6 24.6 17.6 41.5s-6.1 31.2-17.6 41.4c-10.6 9.3-25 14.5-40.4 14.5z" style="fill:url(#aea)"/><path d="M111.49 29.67c5.33 8.6 8.11 18.84 8.11 30.23 0 16.9-6.1 31.2-17.6 41.4-10.6 9.3-25 14.5-40.4 14.5-18.06 0-37.04-7.35-48.18-22.94 10.76 17.66 30.99 25.94 50.18 25.94 15.4 0 29.8-5.2 40.4-14.5 11.5-10.2 17.6-24.5 17.6-41.4 0-12.74-3.47-24.06-10.11-33.23z" style="fill:#eb8f00"/><path d="M86.11 100.49c-.32-.06-.62-.21-.87-.43-4.26-3.68-9.59-6.3-15.51-7.63-5.91-1.33-11.85-1.26-17.28.24-.32.09-.66.09-.97.01-.69-.18-1.23-.75-1.36-1.46-.13-.69.16-1.38.75-1.79 5.92-4.08 13.28-5.47 20.4-3.86 7.12 1.6 13.18 6.01 16.77 12.24.36.62.33 1.37-.09 1.94-.41.59-1.14.87-1.84.74zM44.04 54.94c-4.19 0-8 3.54-8 9.42 0 5.87 3.81 9.42 8 9.42 4.19 0 8-3.54 8-9.42s-3.8-9.42-8-9.42z" style="fill:#422b0d"/><path d="M43.65 58.87c-1.03-.72-2.58-.49-3.58.95-1 1.45-.67 2.97.36 3.69 1.03.72 2.58.49 3.58-.95s.68-2.97-.36-3.69z" style="fill:#896024"/><path d="M82.4 54.94c-4.19 0-8 3.54-8 9.42 0 5.87 3.81 9.42 8 9.42 4.19 0 8-3.54 8-9.42s-3.81-9.42-8-9.42z" style="fill:#422b0d"/><path d="M82.01 58.87c-1.03-.72-2.58-.49-3.58.95-1 1.45-.67 2.97.36 3.69 1.03.72 2.58.49 3.58-.95 1.01-1.45.67-2.97-.36-3.69z" style="fill:#896024"/><path d="M104 21.4c-5.5-4.83-12.01-8.51-19.16-10.95l-1.89 1.04-23.98 11.43-40.51 5.51-2.1.23C9.74 37.32 5.6 48.67 5.6 62.9c0 5.42.62 10.41 1.73 15l59.63-33.03 50.26-4.97c-2.96-7.09-7.4-13.33-13.22-18.5z" style="fill:#f5f5f5"/><path d="m7.69 79.4-.56-2.18s31.83-24.86 63.76-34.46l5.6.85C44.37 53.8 8.02 79.16 7.69 79.4z" style="fill:gray"/><linearGradient id="aeb" x1="59.569" x2="58.389" y1="24.57" y2="14.954" gradientUnits="userSpaceOnUse"><stop offset=".065" style="stop-color:#b3b3b3"/><stop offset=".266" style="stop-color:#bdbdbd;stop-opacity:.7505"/><stop offset=".611" style="stop-color:#d9d9d9;stop-opacity:.3227"/><stop offset=".871" style="stop-color:#f2f2f2;stop-opacity:0"/></linearGradient><path d="m62.24 21.36-5.79 2.76 5.79-2.76z" style="fill:url(#aeb)"/><path d="M84.84 10.45c3.52 1.05 6.94 2.46 10.22 4.15 3.28 1.69 6.44 3.67 9.29 6.12 2.8 2.47 5.3 5.29 7.46 8.34 1.08 1.53 2.08 3.11 3 4.74.92 1.64 1.76 3.28 2.51 5.08l.62 1.51-1.68.17c-9.13.95-18.27 1.87-27.41 2.7-4.57.44-9.14.84-13.71 1.23s-9.15.81-13.72 1.15c-9.13.69-18.26 1.49-27.39 2.37l-13.69 1.38c-4.56.48-9.12 1.02-13.68 1.56 4.48-1.01 9.01-1.82 13.53-2.63 4.52-.81 9.06-1.53 13.61-2.19 9.1-1.32 18.23-2.39 27.38-3.26l13.7-1.32c4.57-.43 9.13-.86 13.71-1.24 9.14-.82 18.28-1.54 27.43-2.25l-1.06 1.68c-1.23-3.26-2.94-6.53-4.88-9.53-1.93-3.03-4.18-5.88-6.75-8.4-2.57-2.51-5.54-4.65-8.67-6.51a67.74 67.74 0 0 0-4.82-2.6c-1.63-.81-3.29-1.58-5-2.25z" style="fill:gray"/><path d="M104 21.45c-5.2.31-10.35.45-15.51.64-2.58.12-5.16.08-7.74.22l-7.75.41c-5.16.27-10.33.64-15.48 1.09-5.16.4-10.31.91-15.47 1.46l-.02-.1c10.26-1.48 20.57-2.53 30.9-3.27 5.17-.35 10.34-.65 15.52-.77 5.18-.1 10.37-.1 15.54.23l.01.09zm-87.64 7.2c-2.02 3.99-3.86 7.99-5.4 12.07-.75 2.04-1.45 4.09-1.97 6.18-.58 2.08-.94 4.15-1.16 6.29-.47 4.36-.85 8.72-.97 13.09-.05 2.18-.08 4.37.05 6.56.1 2.19.28 4.38.77 6.56-1.12-1.96-1.72-4.17-2.23-6.37-.48-2.21-.77-4.45-.93-6.7-.32-4.5-.18-9.01.33-13.47.5-4.59 1.96-9.03 3.97-13.06 2.02-4.06 4.5-7.85 7.54-11.15z" style="fill:gray"/></svg><svg style="enable-background:new 0 0 128 128" viewBox="0 0 128 128" xml:space="preserve" id="1F922" xmlns="http://www.w3.org/2000/svg"><radialGradient id="afa" cx="63.6" cy="2288.9" r="56.96" gradientTransform="translate(0 -2226)" gradientUnits="userSpaceOnUse"><stop offset="0" style="stop-color:#fde030"/><stop offset=".19" style="stop-color:#f1de37"/><stop offset=".53" style="stop-color:#d1d748"/><stop offset=".99" style="stop-color:#9dcc64"/><stop offset="1" style="stop-color:#9ccc65"/></radialGradient><path d="M63.6 118.8c-27.9 0-58-17.5-58-55.9S35.7 7 63.6 7c15.5 0 29.8 5.1 40.4 14.4 11.5 10.2 17.6 24.6 17.6 41.5s-6.1 31.2-17.6 41.4c-10.6 9.3-25 14.5-40.4 14.5z" style="fill:url(#afa)"/><path d="M111.49 29.67c5.33 8.6 8.11 18.84 8.11 30.23 0 16.9-6.1 31.2-17.6 41.4-10.6 9.3-25 14.5-40.4 14.5-18.06 0-37-7.35-48.18-22.94 10.76 17.66 31 25.94 50.18 25.94 15.4 0 29.8-5.2 40.4-14.5 11.5-10.2 17.6-24.5 17.6-41.4 0-12.74-3.47-24.06-10.11-33.23z" style="fill:#789e46"/><g style="opacity:.65"><radialGradient id="afb" cx="144.306" cy="-71.919" r="15.84" gradientTransform="matrix(.89 0 0 -.78 -36.33 40.18)" gradientUnits="userSpaceOnUse"><stop offset="0" style="stop-color:#ed7770"/><stop offset=".08" style="stop-color:#ed7770;stop-opacity:.97"/><stop offset=".21" style="stop-color:#ed7770;stop-opacity:.88"/><stop offset=".35" style="stop-color:#ed7770;stop-opacity:.74"/><stop offset=".52" style="stop-color:#ed7770;stop-opacity:.55"/><stop offset=".71" style="stop-color:#ed7770;stop-opacity:.29"/><stop offset=".9" style="stop-color:#ed7770;stop-opacity:0"/></radialGradient><ellipse cx="92.13" cy="96.1" rx="12.97" ry="11.89" style="fill:url(#afb)"/></g><g style="opacity:.65"><radialGradient id="afc" cx="82.371" cy="-73.689" r="15.833" gradientTransform="matrix(.89 0 0 -.78 -36.33 40.8)" gradientUnits="userSpaceOnUse"><stop offset="0" style="stop-color:#ed7770"/><stop offset=".08" style="stop-color:#ed7770;stop-opacity:.97"/><stop offset=".21" style="stop-color:#ed7770;stop-opacity:.88"/><stop offset=".35" style="stop-color:#ed7770;stop-opacity:.74"/><stop offset=".52" style="stop-color:#ed7770;stop-opacity:.55"/><stop offset=".71" style="stop-color:#ed7770;stop-opacity:.29"/><stop offset=".9" style="stop-color:#ed7770;stop-opacity:0"/></radialGradient><ellipse cx="36.98" cy="98.1" rx="12.97" ry="11.89" style="fill:url(#afc)"/></g><path d="M42.73 87.14c2.65 1.27 5.69 4.86 6.8 7.58.86 2.16 1.09 4.53.64 6.82M84.5 86.41c-2.65 1.26-5.71 4.83-6.82 7.55-.56 1.36-.86 2.82-.89 4.29m-27.34-4.07s1.72-4.81 14.19-5c11.31-.18 14 3.45 14 3.45" style="fill:none;stroke:#35220b;stroke-width:5.26;stroke-linecap:round;stroke-linejoin:round"/><path d="M27.4 51.8c-2.2.4-2.3 3.6.1 3.7 5.3.07 10.42-1.9 14.3-5.5 1.48-1.28 2.73-2.8 3.7-4.5.58-.83.38-1.97-.45-2.55s-1.97-.38-2.55.45l-.1.1a26.03 26.03 0 0 1-15 8.3zm57.1-15.4a1.83 1.83 0 0 0-2.55-.45 1.83 1.83 0 0 0-.45 2.55c.97 1.7 2.22 3.22 3.7 4.5 3.9 3.57 9.01 5.54 14.3 5.5 2.5-.1 2.3-3.3.1-3.7a25.539 25.539 0 0 1-15.1-8.4M37.75 62.65a3.545 3.545 0 0 0-1.91 4c1 4.31 4.36 6.81 7.95 6.81 4.34 0 8.28-3.67 8.28-9.75.01-1.09-.13-2.17-.41-3.22a3.474 3.474 0 0 0-4.88-2.15l-9.03 4.31z" style="fill:#422b0d"/><path d="M47.38 61.78c-.55-.83-1.94-1-3.41 0s-1.85 2.32-1.3 3.15c.56.84 1.94 1 3.41 0s1.85-2.31 1.3-3.15z" style="fill:#896024"/><path d="M89.84 62.65c1.5.72 2.3 2.38 1.92 4-1.05 4.31-4.37 6.81-8 6.81-4.34 0-8.29-3.67-8.29-9.75 0-1.09.13-2.17.41-3.22a3.491 3.491 0 0 1 4.89-2.15l9.07 4.31z" style="fill:#422b0d"/><path d="M80.21 61.78c.56-.83 2-1 3.42 0s1.85 2.32 1.29 3.15c-.55.84-1.94 1-3.41 0s-1.85-2.31-1.3-3.15z" style="fill:#896024"/></svg><svg style="enable-background:new 0 0 128 128" viewBox="0 0 128 128" xml:space="preserve" id="1F927" xmlns="http://www.w3.org/2000/svg"><radialGradient id="aga" cx="63.6" cy="2288.9" r="56.96" gradientTransform="translate(0 -2226)" gradientUnits="userSpaceOnUse"><stop offset=".5" style="stop-color:#fde030"/><stop offset=".92" style="stop-color:#f7c02b"/><stop offset="1" style="stop-color:#f4a223"/></radialGradient><path d="M63.6 118.8c-27.9 0-58-17.5-58-55.9S35.7 7 63.6 7c15.5 0 29.8 5.1 40.4 14.4 11.5 10.2 17.6 24.6 17.6 41.5s-6.1 31.2-17.6 41.4c-10.6 9.3-25 14.5-40.4 14.5z" style="fill:url(#aga)"/><path d="M111.49 29.67c5.33 8.6 8.11 18.84 8.11 30.23 0 16.9-6.1 31.2-17.6 41.4-10.6 9.3-25 14.5-40.4 14.5-18.06 0-37-7.35-48.18-22.94 10.76 17.66 31 25.94 50.18 25.94 15.4 0 29.8-5.2 40.4-14.5 11.5-10.2 17.6-24.5 17.6-41.4 0-12.74-3.47-24.06-10.11-33.23z" style="fill:#eb8f00"/><path d="m104.75 79.63-11.6-3a3.996 3.996 0 0 0-5 3.58l-.56 7.45L81 83.9a4.007 4.007 0 0 0-5.46 1.49c-.09.16-.17.33-.24.51l-2.66 6.84-5.22-6.13a4.009 4.009 0 0 0-3.13-1.41h-.55c-1.2-.02-2.35.49-3.13 1.41l-5.22 6.13-2.69-6.82a3.993 3.993 0 0 0-5.19-2.24c-.17.07-.34.15-.51.24l-6.63 3.76-.56-7.45a4.005 4.005 0 0 0-4.28-3.7c-.24.02-.48.06-.72.12l-11.6 3a4 4 0 1 0 1.7 7.82c.1-.02.2-.05.29-.08l7-1.8.67 9c.15 2.2 2.06 3.87 4.27 3.71.61-.04 1.2-.22 1.73-.53l8.1-4.59 3.41 8.76a3.985 3.985 0 0 0 3.06 2.49c.22.04.45.06.67.06 1.16-.01 2.25-.53 3-1.41l7.08-8.28.3.79 6.37 7.41c.75.88 1.84 1.4 3 1.41.22 0 .45-.02.67-.06a3.985 3.985 0 0 0 3.06-2.49L81 93.1l8.1 4.59a4.003 4.003 0 0 0 6-3.18l.67-9 7 1.8c2.12.63 4.35-.57 4.98-2.68.63-2.12-.57-4.35-2.68-4.98-.1-.03-.2-.05-.29-.08l-.03.06zM34 57.4 46.21 55l-12.55-5.17-.42-.23a4.185 4.185 0 0 1-1.75-5.66c.26-.49.61-.92 1.03-1.27a5.99 5.99 0 0 1 6.88-.3l21.27 13c.52.19.78.77.59 1.28-.13.35-.44.6-.81.65l-22.91 8.6c-.15.06-.32.11-.48.16-3 .84-6.33-.89-6.79-3.78-.36-2.17 1.34-4.21 3.73-4.88zm62.65-.25-12.17-2.36L97 49.58l.41-.23a4.188 4.188 0 0 0 .73-6.93 5.99 5.99 0 0 0-6.88-.3L70 55.16a.998.998 0 0 0 .21 1.93l22.91 8.6.49.16c3 .84 6.32-.89 6.79-3.78.38-2.21-1.33-4.25-3.75-4.92z" style="fill:#422b0d"/><path d="M57.67 64.62C41 75.25 20.43 77.64 6.17 80.55c-1.88.38-3 3.12-1.56 7.26 2.73 7.9 7.93 7.77 6.53 11.44-4.14 10.87 4.3 15.55 11.59 15.68 9.86.19 8.91 3.48 13 6.69 3.91 3.06 8.66.94 8.66.94 18.33-11.11 25.4-36.44 25.39-48.7-.01-9.41-7.05-12.47-12.11-9.24z" style="fill:#f5f5f5"/><path d="M6.17 80.55c-.7.23-1.26.76-1.52 1.45-.26.63-.38 1.32-.35 2 .05 1.4.39 2.78 1 4.05.55 1.29 1.27 2.51 2.13 3.62.91 1.09 1.91 2.09 3 3 .67.54 1.24 1.18 1.69 1.91.12.24.22.49.3.74.07.27.11.54.12.82 0 .26-.02.53-.06.79l-.18.71-.54 2c-.12.66-.2 1.33-.25 2-.1 1.25.07 2.51.49 3.7a7.64 7.64 0 0 0 2.08 2.91c.95.83 2.05 1.47 3.23 1.9 1.21.48 2.49.78 3.79.89.33.05.67.07 1 .07h1c.77 0 1.53 0 2.32.1 1.66.09 3.29.45 4.84 1.06.85.36 1.64.83 2.36 1.41.64.55 1.23 1.15 1.77 1.8.79 1.03 1.71 1.95 2.75 2.74.88.62 1.92.99 3 1.07.58.04 1.16.01 1.74-.08.29 0 .59-.11.87-.18s.61-.19.76-.24l-.22.11c3.86-2.4 7.34-5.38 10.3-8.83.38-.44.77-.85 1.13-1.3l1-1.38 1-1.37c.34-.47.63-1 1-1.44.64-1 1.31-1.9 1.87-2.92s1.21-2 1.71-3c2.18-4.14 3.99-8.46 5.41-12.92 1.48-4.49 2.49-9.13 3-13.83.25 4.8-.16 9.6-1.22 14.29-.24 1.18-.55 2.34-.84 3.51s-.7 2.31-1 3.47-.81 2.27-1.21 3.41-1 2.23-1.42 3.35-1.07 2.18-1.6 3.28-1.17 2.13-1.79 3.19c-.31.52-.62 1-.95 1.56l-1.06 1.51-1 1.5c-.37.49-.78 1-1.16 1.44-3.08 3.89-6.8 7.22-11 9.87l-.11.06h-.11c-.43.18-.87.33-1.32.46-.42.11-.84.21-1.27.28-.87.15-1.75.2-2.63.15-.91-.06-1.81-.23-2.67-.52-.87-.31-1.69-.74-2.44-1.28-1.31-.99-2.49-2.14-3.49-3.44-.38-.48-.81-.93-1.26-1.34-.42-.34-.89-.63-1.39-.84-1.18-.45-2.43-.74-3.69-.84-.66-.09-1.36-.12-2.06-.16l-1.15-.08c-.4 0-.8-.06-1.2-.13-1.61-.22-3.18-.65-4.67-1.29a12.96 12.96 0 0 1-4.17-2.72 10.828 10.828 0 0 1-2.7-4.33c-.48-1.62-.61-3.32-.39-5 .11-.77.27-1.52.48-2.27.25-.73.54-1.49.79-2.18.2-.36.24-.8.09-1.19A5.94 5.94 0 0 0 9 96.15a21.195 21.195 0 0 1-2.87-3.53 16.76 16.76 0 0 1-1.9-4.15c-.5-1.44-.7-2.96-.59-4.47.07-.77.32-1.51.72-2.17.38-.68 1.05-1.14 1.81-1.28z" style="fill:#bdbdbd"/><path d="M30.5 90.78c-2.85.71-5.75 1.22-8.67 1.51a2.677 2.677 0 0 1-2.76-2.58c-.04-1.33.9-2.49 2.22-2.72 12.76-1.3 19-3.91 29.38-10.76 2.88-1.86 5.56-4 8-6.41a35.884 35.884 0 0 1-10.76 13.07C42.88 86.7 37.48 89 30.5 90.78zm11.71 13.09a2.55 2.55 0 0 1-2.92-1.1c-.79-1.22-.47-2.85.71-3.69a51.45 51.45 0 0 0 14.72-14.16c1.92-2.85 4.77-8 4.77-8-.34 2.92-.93 5.8-1.78 8.61-3.49 10.97-13.04 17.56-15.5 18.34z" style="fill:#b3b3b3"/></svg><svg style="enable-background:new 0 0 128 128" viewBox="0 0 128 128" xml:space="preserve" id="1F92E" xmlns="http://www.w3.org/2000/svg"><radialGradient id="aha" cx="63.6" cy="2288.9" r="56.96" gradientTransform="translate(0 -2226)" gradientUnits="userSpaceOnUse"><stop offset=".5" style="stop-color:#fde030"/><stop offset=".92" style="stop-color:#f7c02b"/><stop offset="1" style="stop-color:#f4a223"/></radialGradient><path d="M63.6 118.8c-27.9 0-58-17.5-58-55.9S35.7 7 63.6 7c15.5 0 29.8 5.1 40.4 14.4 11.5 10.2 17.6 24.6 17.6 41.5s-6.1 31.2-17.6 41.4c-10.6 9.3-25 14.5-40.4 14.5z" style="fill:url(#aha)"/><path d="M111.49 29.67c5.33 8.6 8.11 18.84 8.11 30.23 0 16.9-6.1 31.2-17.6 41.4-10.6 9.3-25 14.5-40.4 14.5-18.06 0-37-7.35-48.18-22.94 10.76 17.66 31 25.94 50.18 25.94 15.4 0 29.8-5.2 40.4-14.5 11.5-10.2 17.6-24.5 17.6-41.4 0-12.74-3.47-24.06-10.11-33.23z" style="fill:#eb8f00"/><defs><path id="ahb" d="M64 68.82c-17 0-35.33 14.18-35.33 31.67 0 4.89 5.61 7.74 10.62 5.75A69.736 69.736 0 0 1 64 101.32c8.47.13 16.84 1.79 24.71 4.92 5 2 10.62-.86 10.62-5.75C99.33 83 79.66 68.82 64 68.82z"/></defs><clipPath id="ahc"><use style="overflow:visible" xlink:href="#ahb"/></clipPath><g style="clip-path:url(#ahc)"><path d="M93.7 84.59C84 82.11 74.01 80.9 64 81a114.55 114.55 0 0 0-30.06 3.67 27.45 27.45 0 0 0-5.27 15.8c0 4.89 5.61 7.74 10.62 5.75a69.715 69.715 0 0 1 24.71-4.9c8.47.13 16.84 1.79 24.71 4.92 5 2 10.62-.86 10.62-5.75a26.733 26.733 0 0 0-5.63-15.9z" style="fill:#422b0d"/><path d="M93.7 84.59c-7-9.43-19.23-15.77-29.7-15.77-11.37 0-23.38 6.39-30.06 15.87A114.99 114.99 0 0 1 64 81c10.01-.1 20 1.11 29.7 3.59z" style="fill:#fff"/></g><linearGradient id="ahd" x1="64.94" x2="64.94" y1="48.64" y2="4.54" gradientTransform="matrix(1 0 0 -1 0 130)" gradientUnits="userSpaceOnUse"><stop offset="0" style="stop-color:#469643"/><stop offset=".02" style="stop-color:#489743"/><stop offset=".44" style="stop-color:#6db141"/><stop offset=".78" style="stop-color:#84c03f"/><stop offset="1" style="stop-color:#8cc63f"/></linearGradient><path d="M96.7 119.17c4.86-1.47 6.65-3.17 6.42-4.39-.3-1.58-7.12-1.82-15.12-.67V83.5s-8.11-2.42-24.5-2.42C45.31 81.08 39 83.5 39 83.5v27.86c-5-.29-8.79.33-9 1.68-.14 1.07 3 2.36 6.92 3.46-7.58.78-12.13 2-12.13 3.37 0 2.35 14.44 4.25 32.05 4.25 6.92.04 13.84-.29 20.72-1 3.82.55 7.67.8 11.53.77 8.84 0 16-1.12 16-2.5.05-.97-3.36-1.8-8.39-2.22z" style="fill:url(#ahd)"/><ellipse cx="110.1" cy="112.62" rx="2.65" ry="1.56" style="fill:#368231" transform="rotate(-8.467 110.097 112.613)"/><ellipse cx="22.13" cy="110.88" rx="2.16" ry="3.67" style="fill:#368231" transform="rotate(-72.71 22.126 110.885)"/><ellipse cx="58.25" cy="110.54" rx="2.42" ry="4.71" style="fill:#368231"/><ellipse cx="62.75" cy="93.92" rx="2.25" ry="4.08" style="fill:#368231"/><ellipse cx="76.38" cy="103.83" rx="3.96" ry="7.25" style="fill:#368231"/><ellipse cx="48.21" cy="98.31" rx="1.88" ry="3.27" style="fill:#368231"/><path d="m33.19 60.55 12.18-2.36L32.82 53l-.42-.23a4.185 4.185 0 0 1-1.75-5.66c.26-.49.61-.92 1.03-1.27 2-1.53 4.74-1.65 6.87-.3l21.28 13c.52.19.78.77.59 1.28-.13.35-.44.6-.81.65L36.7 69.09a4.5 4.5 0 0 1-.48.16c-3 .84-6.33-.89-6.8-3.78-.35-2.2 1.35-4.25 3.77-4.92zm62.62-.25-12.18-2.36 12.55-5.21.42-.23a4.185 4.185 0 0 0 1.75-5.66c-.26-.49-.61-.92-1.03-1.27-2-1.53-4.74-1.65-6.87-.3l-21.28 13c-.52.19-.78.77-.59 1.28.13.35.44.6.81.65l22.91 8.6c.16.06.32.12.48.16 3 .84 6.33-.89 6.8-3.78.35-2.18-1.35-4.18-3.77-4.88zM31.4 34.8c-2.2.4-2.3 3.6.1 3.7 5.3.07 10.42-1.9 14.3-5.5 1.48-1.28 2.73-2.8 3.7-4.5.58-.83.38-1.97-.45-2.55a1.83 1.83 0 0 0-2.55.45l-.1.1a26.03 26.03 0 0 1-15 8.3zm49.1-8.4a1.83 1.83 0 0 0-2.55-.45 1.83 1.83 0 0 0-.45 2.55c.97 1.7 2.22 3.22 3.7 4.5 3.9 3.57 9.01 5.54 14.3 5.5 2.5-.1 2.3-3.3.1-3.7a25.539 25.539 0 0 1-15.1-8.4" style="fill:#422b0d"/></svg><svg style="enable-background:new 0 0 128 128" viewBox="0 0 128 128" xml:space="preserve" id="1F92F" xmlns="http://www.w3.org/2000/svg"><path d="M103.06 60.5c7.19-3.2 21.36-9.27 21.36-9.27s-13.29-5.46-20.26-8.47c3.03-2.47 17.55-9.52 17.55-9.52l-22.15 1.83 12.22-29.53S92.54 20.15 85.07 22.02c.03-3.43.1-12.51.1-12.51s-6.81 7.46-10.19 9.97C71.05 13.65 63.54 4.72 63.54 4.72s-6.71 8.21-10.41 13.87C50.09 16.13 41.94 4.58 41.94 4.58s1.88 14.07 1.72 17.74c-7.8-1.87-22.21-8.37-22.21-8.37S27.69 25.79 30 31.86c-4.23-.03-18.39-.8-23.45-1.11 4.09 3.1 21.17 15.44 21.17 15.44L3.58 50.87s17.17 4.15 24.14 7.16c-1.7 1.38-6.13 4.93-9.69 7.77h91.4c-2.31-1.83-4.44-3.59-6.37-5.3z" style="fill:#f15a24"/><linearGradient id="aia" x1="64.117" x2="64.117" y1="60.706" y2="67.834" gradientUnits="userSpaceOnUse"><stop offset="0" style="stop-color:#78c0e8"/><stop offset="1" style="stop-color:#31a0d6"/></linearGradient><path d="M48.28 45.33h31.67v20.48H48.28z" style="fill:url(#aia)"/><path d="M120.13 54.86c.19-.5.3-1.03.3-1.59 0-2.5-2.03-4.53-4.53-4.53-2.07 0-3.8 1.4-4.34 3.3a4.51 4.51 0 0 0-2.99 4.24c0 2.5 2.03 4.53 4.53 4.53.29 0 .57-.03.85-.09.62.32 1.31.52 2.06.52 2.5 0 4.53-2.03 4.53-4.53 0-.65-.16-1.28-.41-1.85z" style="fill:#ffea5c"/><path d="M103.31 6.31a4.197 4.197 0 0 0-2.44 5.42c.49 1.29 1.54 2.18 2.77 2.54A4.203 4.203 0 0 0 109 16.6a4.197 4.197 0 0 0 2.44-5.42c-.49-1.29-1.54-2.18-2.77-2.54-.87-2.09-3.23-3.14-5.36-2.33z" style="fill:#5c5cff"/><path d="M19.42 49.18a3.45 3.45 0 1 0-6.84-.65c0 .52.12 1 .32 1.44-2 .1-3.64 1.69-3.76 3.74a3.98 3.98 0 0 0 3.74 4.2c1.35.08 2.58-.53 3.36-1.52.53.32 1.15.52 1.81.56a3.98 3.98 0 0 0 4.2-3.74c.11-1.87-1.1-3.52-2.83-4.03z" style="fill:#45f9ff"/><ellipse cx="14.87" cy="17" rx="5" ry="4.5" style="fill:#4bff17"/><ellipse cx="113.28" cy="24.83" rx="5" ry="4.5" style="fill:#ff17c8"/><path d="M99.74 31.65c-.86-.48-1.11-1.62-.76-2.54.53-1.38.86-2.85.94-4.37.46-8.78-7.23-15.98-17.13-15.88-3.49.03-6.74.99-9.49 2.59-2.29-4.48-7.2-7.56-12.89-7.5-5.9.07-10.88 3.5-12.94 8.28-1.49-.48-3.07-.74-4.7-.73-8.02.07-13.82 4.78-13.24 13.57.1 1.49 1.28 4.3 1.28 4.3s-2.41.59-4.39 3.93c-1.61 2.71-1.78 7.08-.38 9.96 2.19 4.51 8.27 6.63 12.79 4.46.64-.31 1.37-.7 2.03-.43.33.14 1.71 5.2 14.13 7.78 7.16 1.49 15.56-3.76 16.03-3.77.54-.01 1.02.32 1.47.62 0 0 3.32 3.81 10.75 2.03 7.01-1.67 7.69-6.43 8.29-6.62.48-.15 8.7 2.43 12.17-5.44 1.52-3.52-1.07-8.63-3.96-10.24z" style="fill:#d2edf7"/><path d="M29.45 24.11c.06 1.25.35 4.6 1.88 5.54 1.03.63 1.95.93 2.76 1.03 1.57.19 2.52-1.75 1.46-2.92-1.16-1.27-2.41-3.45-2.89-7.1-.69-5.15 3.36-7.74 3.36-7.74s-6.96 2.82-6.57 11.19z" style="fill:#92cbeb"/><path d="M103.66 41.91c1-2.26.66-5.45-1.16-7.49 0 0 1.11 2.89-.29 5.76-1.42 2.91-4.43 5.63-7.57 4.88-1.96-.47-.04-3.69-2.8-8.43.14 4.47.05 14.6-13.07 15.44-2.4.15-8.15-1.92-8.49-5.4-.76-7.58 6.44-6.53 7.47-6.37 2.47.37 5.17-.7 5.58-2.65.37-1.77-.49-2.47-1.3-3.17-2.32-1.98-5.97-1.61-8.55.03-3.92 2.5-5.73 9.12-8.84 12.33-3.63 3.74-9.51 4.64-14.52 3.2-8.58-2.47-11.26-13.41-11.26-13.41-1.12 2.86-.13 6.62.56 8.3-8.55 1.77-12.82-2.68-14.14-3.98.14.8.37 1.59.73 2.33 2.19 4.51 8.27 6.63 12.79 4.46.64-.31 1.37-.7 2.03-.43.33.14 1.71 5.2 14.13 7.78 7.16 1.49 15.56-3.76 16.03-3.77.54-.01 1.02.32 1.47.62 0 0 3.32 3.81 10.75 2.03 7.01-1.67 7.69-6.43 8.29-6.62.48-.16 8.7 2.42 12.16-5.44z" style="fill:#78c0e8"/><path d="M67.06 5.42s1.33 1.9 1.6 2.89c1.05 3.87-.93 6.44-1.5 7.49-.3.56-.57 1.21-.36 1.8.23.64.93.98 1.59 1.08 1.78.29 3.63-.69 4.62-2.19.97-1.5 2.74-7.52-5.95-11.07zm31.92 23.69c.53-1.38.86-2.85.94-4.37.18-3.38-.86-6.51-2.76-9.1.95 1.73 1.19 3.88.79 5.84-.55 2.67-2.26 5-4.24 6.87-2.41 2.27-.7 3.32.69 3.32 3.35-.01 4.39-2.07 4.58-2.56z" style="fill:#92cbeb"/><path d="M70.5 65.8v-6.72c0-1.26-1.12-2.28-2.5-2.28s-2.5 1.02-2.5 2.28v6.72h5zm-9.88 0V55.56c0-.83-.67-1.5-1.5-1.5s-1.5.67-1.5 1.5V65.8h3z" style="fill:#039be5"/><radialGradient id="aib" cx="63.72" cy="-2088.9" r="56.957" gradientTransform="matrix(1 0 0 -1 0 -2026)" gradientUnits="userSpaceOnUse"><stop offset=".5" style="stop-color:#fde030"/><stop offset=".919" style="stop-color:#f7c02b"/><stop offset="1" style="stop-color:#f4a223"/></radialGradient><path d="M63.72 118.8c15.4 0 29.8-5.2 40.4-14.5 10.83-9.61 16.87-22.86 17.53-38.5H5.79c1.48 36.38 30.74 53 57.93 53z" style="fill:url(#aib)"/><path d="M13.54 92.86c.15.25.33.48.49.73-.1-.17-.21-.34-.31-.5-.06-.08-.13-.15-.18-.23z" style="fill:#eb8f00"/><path d="M119.45 65.8c-1.27 14.33-7.2 26.51-17.34 35.5-10.6 9.3-25 14.5-40.4 14.5-17.97 0-36.84-7.28-48-22.71.1.17.2.34.31.5.35.55.7 1.08 1.07 1.61.27.39.53.78.81 1.16.59.8 1.2 1.58 1.83 2.34.3.36.61.7.91 1.05.43.49.87.97 1.31 1.44a45.755 45.755 0 0 0 2.92 2.84c.33.3.67.58 1 .87.57.48 1.14.95 1.72 1.41.34.27.69.53 1.04.79.59.44 1.2.86 1.81 1.28.28.19.56.39.84.58.85.55 1.71 1.08 2.59 1.58.33.19.67.37 1 .55.65.36 1.31.7 1.97 1.04.32.16.65.33.97.48.93.45 1.87.87 2.83 1.27.25.1.5.19.74.29.77.31 1.55.6 2.34.88.33.12.67.23 1 .35.87.29 1.75.57 2.63.82.16.05.32.1.47.14 1.03.29 2.06.54 3.1.78.31.07.61.13.92.2.83.18 1.66.33 2.49.48.27.05.53.1.79.14 1.06.17 2.12.31 3.18.43.23.03.46.04.68.07.87.09 1.74.16 2.61.21.3.02.6.04.89.05 1.07.05 2.15.09 3.22.09 15.4 0 29.8-5.2 40.4-14.5.7-.62 1.38-1.26 2.03-1.9.22-.22.44-.45.66-.68.42-.43.85-.87 1.26-1.31.26-.28.5-.57.75-.86.35-.4.7-.8 1.04-1.22.26-.32.51-.65.76-.97.31-.39.61-.78.91-1.19.25-.35.5-.71.74-1.06.27-.39.54-.78.8-1.18.24-.38.48-.76.71-1.14.24-.39.48-.78.71-1.18.23-.4.45-.81.67-1.21.21-.39.42-.78.62-1.18.22-.42.42-.85.63-1.29.18-.39.36-.78.54-1.18.2-.45.39-.9.58-1.36.16-.39.31-.78.46-1.17.18-.47.36-.95.52-1.43.13-.38.26-.77.39-1.16.16-.5.32-1 .47-1.51.11-.38.21-.76.32-1.15.14-.53.28-1.06.41-1.59.09-.37.17-.74.25-1.12.12-.56.24-1.12.35-1.69.07-.35.12-.71.18-1.06.1-.6.2-1.2.28-1.81.04-.32.08-.64.11-.97.08-.65.16-1.3.22-1.96.02-.25.03-.5.05-.75.06-.74.1-1.49.14-2.24h-2.21z" style="fill:#eb8f00"/><path d="M119.45 65.8c-1.27 14.33-7.2 26.51-17.34 35.5-10.6 9.3-25 14.5-40.4 14.5-17.97 0-36.84-7.28-48-22.71.1.17.2.34.31.5.35.55.7 1.08 1.07 1.61.27.39.53.78.81 1.16.59.8 1.2 1.58 1.83 2.34.3.36.61.7.91 1.05.43.49.87.97 1.31 1.44a45.755 45.755 0 0 0 2.92 2.84c.33.3.67.58 1 .87.57.48 1.14.95 1.72 1.41.34.27.69.53 1.04.79.59.44 1.2.86 1.81 1.28.28.19.56.39.84.58.85.55 1.71 1.08 2.59 1.58.33.19.67.37 1 .55.65.36 1.31.7 1.97 1.04.32.16.65.33.97.48.93.45 1.87.87 2.83 1.27.25.1.5.19.74.29.77.31 1.55.6 2.34.88.33.12.67.23 1 .35.87.29 1.75.57 2.63.82.16.05.32.1.47.14 1.03.29 2.06.54 3.1.78.31.07.61.13.92.2.83.18 1.66.33 2.49.48.27.05.53.1.79.14 1.06.17 2.12.31 3.18.43.23.03.46.04.68.07.87.09 1.74.16 2.61.21.3.02.6.04.89.05 1.07.05 2.15.09 3.22.09 15.4 0 29.8-5.2 40.4-14.5.7-.62 1.38-1.26 2.03-1.9.22-.22.44-.45.66-.68.42-.43.85-.87 1.26-1.31.26-.28.5-.57.75-.86.35-.4.7-.8 1.04-1.22.26-.32.51-.65.76-.97.31-.39.61-.78.91-1.19.25-.35.5-.71.74-1.06.27-.39.54-.78.8-1.18.24-.38.48-.76.71-1.14.24-.39.48-.78.71-1.18.23-.4.45-.81.67-1.21.21-.39.42-.78.62-1.18.22-.42.42-.85.63-1.29.18-.39.36-.78.54-1.18.2-.45.39-.9.58-1.36.16-.39.31-.78.46-1.17.18-.47.36-.95.52-1.43.13-.38.26-.77.39-1.16.16-.5.32-1 .47-1.51.11-.38.21-.76.32-1.15.14-.53.28-1.06.41-1.59.09-.37.17-.74.25-1.12.12-.56.24-1.12.35-1.69.07-.35.12-.71.18-1.06.1-.6.2-1.2.28-1.81.04-.32.08-.64.11-.97.08-.65.16-1.3.22-1.96.02-.25.03-.5.05-.75.06-.74.1-1.49.14-2.24h-2.21z" style="fill:#eb8f00"/><path d="M121.51 68.04c.06-.74.11-1.49.14-2.24h-.01c-.03.75-.08 1.5-.13 2.24z" style="fill:#eb8f00"/><radialGradient id="aic" cx="63.72" cy="-2088.9" r="56.957" gradientTransform="matrix(1 0 0 -1 0 -2026)" gradientUnits="userSpaceOnUse"><stop offset=".5" style="stop-color:#fde030"/><stop offset=".919" style="stop-color:#f7c02b"/><stop offset="1" style="stop-color:#f4a223"/></radialGradient><path d="M121.51 68.04c.06-.74.11-1.49.14-2.24h-.01c-.03.75-.08 1.5-.13 2.24z" style="fill:url(#aic)"/><path d="M77.93 104.94c0 5.6-6.19 8.89-13.82 8.89s-13.82-3.29-13.82-8.89 6.19-11.69 13.82-11.69 13.82 6.09 13.82 11.69z" style="fill:#422b0d"/><circle cx="41.6" cy="75.13" r="15.51" style="fill:#fff"/><ellipse cx="41.6" cy="75.13" rx="6.67" ry="6.77" style="fill:#422b0d"/><circle cx="86.6" cy="75.13" r="15.51" style="fill:#fff"/><ellipse cx="86.62" cy="75.21" rx="6.67" ry="6.77" style="fill:#422b0d"/></svg><svg style="enable-background:new 0 0 128 128" viewBox="0 0 128 128" xml:space="preserve" id="1F974" xmlns="http://www.w3.org/2000/svg"><radialGradient id="aja" cx="63.6" cy="-2088.9" r="56.96" gradientTransform="matrix(1 0 0 -1 0 -2026)" gradientUnits="userSpaceOnUse"><stop offset=".5" style="stop-color:#fde030"/><stop offset=".919" style="stop-color:#f7c02b"/><stop offset="1" style="stop-color:#f4a223"/></radialGradient><path d="M63.6 118.8c-27.9 0-58-17.5-58-55.9S35.7 7 63.6 7c15.5 0 29.8 5.1 40.4 14.4 11.5 10.2 17.6 24.6 17.6 41.5s-6.1 31.2-17.6 41.4c-10.6 9.3-25 14.5-40.4 14.5z" style="fill:url(#aja)"/><path d="M79.4 45.94c-4.19 0-8 3.54-8 9.42s3.81 9.42 8 9.42c4.19 0 8-3.54 8-9.42s-3.81-9.42-8-9.42z" style="fill:#422b0d"/><path d="M79.01 49.87c-1.03-.72-2.58-.49-3.58.95-1 1.45-.67 2.97.36 3.69 1.03.72 2.58.49 3.58-.95 1.01-1.45.67-2.97-.36-3.69z" style="fill:#896024"/><path d="M111.49 29.67c5.33 8.6 8.11 18.84 8.11 30.23 0 16.9-6.1 31.2-17.6 41.4-10.6 9.3-25 14.5-40.4 14.5-18.06 0-37.04-7.35-48.18-22.94 10.76 17.66 30.99 25.94 50.18 25.94 15.4 0 29.8-5.2 40.4-14.5 11.5-10.2 17.6-24.5 17.6-41.4 0-12.74-3.47-24.06-10.11-33.23z" style="fill:#eb8f00"/><g style="opacity:.9"><radialGradient id="ajb" cx="198.203" cy="53.048" r="21.314" gradientTransform="matrix(.8902 0 0 .7784 -74.799 30.46)" gradientUnits="userSpaceOnUse"><stop offset="0" style="stop-color:#ed7770"/><stop offset=".9" style="stop-color:#ed7770;stop-opacity:0"/></radialGradient><ellipse cx="101.65" cy="71.75" rx="17.44" ry="16" style="fill:url(#ajb)"/></g><g style="opacity:.9"><radialGradient id="ajc" cx="114.859" cy="55.43" r="21.314" gradientTransform="matrix(.8902 0 0 .7784 -74.799 31.296)" gradientUnits="userSpaceOnUse"><stop offset="0" style="stop-color:#ed7770"/><stop offset=".9" style="stop-color:#ed7770;stop-opacity:0"/></radialGradient><ellipse cx="27.45" cy="74.44" rx="17.44" ry="16" style="fill:url(#ajc)"/></g><path d="M45.38 37.4c1.35-1.74 4.2-.21 3.06 2.02a17.45 17.45 0 0 1-3.58 4.6c-3.9 3.81-9.25 5.85-14.15 5.88-2.5-.03-2.39-3.24-.2-3.7 5.57-1.05 10.99-4.1 14.87-8.8m35.48 1.35c-2.11-.62-1.74-3.82.75-3.58 1.82.2 3.81.77 5.59 1.64 4.97 2.23 8.84 6.45 10.67 10.99.89 2.34-2.13 3.41-3.36 1.54-3.02-4.8-7.85-8.72-13.65-10.59M37.67 53.64c-1.51.72-2.31 2.4-1.91 4.02 1.04 4.3 4.36 6.8 7.95 6.8 4.34 0 8.29-3.67 8.29-9.75 0-1.16-.15-2.24-.41-3.21-.56-2.08-2.94-3.08-4.89-2.16l-9.03 4.3z" style="fill:#422b0d"/><path d="M47.3 52.77c-.55-.84-1.94-1.01-3.41-.03s-1.85 2.32-1.3 3.16c.55.84 1.94 1.01 3.41.03 1.47-.98 1.86-2.33 1.3-3.16z" style="fill:#896024"/><path d="M36.1 80.62c-3.23-.72-6.73-.16-9.58 1.52m5.14.59c-.5 3.31 1.07 6.85 3.86 8.71 2.79 1.86 6.66 1.94 9.52.21 1.2-.72 2.21-1.72 3.4-2.45 4.18-2.57 9.65-1.41 14.11.63s8.66 4.91 13.51 5.69c8.26 1.33 17.03-4.69 18.74-12.88" style="fill:none;stroke:#35220b;stroke-width:4.4377;stroke-linecap:round;stroke-linejoin:round;stroke-miterlimit:10"/><path d="M99.15 86.51c-1.15-2.45-5.04-4.87-7.75-4.73" style="fill:none;stroke:#35220b;stroke-width:4.4377;stroke-linecap:round;stroke-linejoin:round;stroke-miterlimit:10"/></svg><svg style="enable-background:new 0 0 128 128" viewBox="0 0 128 128" xml:space="preserve" id="1F975" xmlns="http://www.w3.org/2000/svg"><radialGradient id="aka" cx="63.6" cy="-2088.9" r="56.96" gradientTransform="matrix(1 0 0 -1 0 -2026)" gradientUnits="userSpaceOnUse"><stop offset=".5" style="stop-color:#fde030"/><stop offset=".919" style="stop-color:#f7c02b"/><stop offset="1" style="stop-color:#f4a223"/></radialGradient><path d="M63.6 118.8c-27.9 0-58-17.5-58-55.9S35.7 7 63.6 7c15.5 0 29.8 5.1 40.4 14.4 11.5 10.2 17.6 24.6 17.6 41.5s-6.1 31.2-17.6 41.4c-10.6 9.3-25 14.5-40.4 14.5z" style="fill:url(#aka)"/><radialGradient id="akb" cx="63.6" cy="-2088.9" r="56.96" gradientTransform="matrix(1 0 0 -1 0 -2026)" gradientUnits="userSpaceOnUse"><stop offset=".123" style="stop-color:#f4a223"/><stop offset=".356" style="stop-color:#f49f22"/><stop offset=".539" style="stop-color:#f6951d"/><stop offset=".705" style="stop-color:#f88416"/><stop offset=".861" style="stop-color:#fb6d0c"/><stop offset="1" style="stop-color:#ff5100"/></radialGradient><path d="M63.6 118.8c-27.9 0-58-17.5-58-55.9S35.7 7 63.6 7c15.5 0 29.8 5.1 40.4 14.4 11.5 10.2 17.6 24.6 17.6 41.5s-6.1 31.2-17.6 41.4c-10.6 9.3-25 14.5-40.4 14.5z" style="fill:url(#akb)"/><linearGradient id="akc" x1="63.6" x2="63.6" y1="-2144.8" y2="-2033" gradientTransform="matrix(1 0 0 -1 0 -2026)" gradientUnits="userSpaceOnUse"><stop offset="0" style="stop-color:#f4a223"/><stop offset=".083" style="stop-color:#f4a223;stop-opacity:.9051"/><stop offset=".877" style="stop-color:#f4a223;stop-opacity:0"/></linearGradient><path d="M63.6 118.8c-27.9 0-58-17.5-58-55.9S35.7 7 63.6 7c15.5 0 29.8 5.1 40.4 14.4 11.5 10.2 17.6 24.6 17.6 41.5s-6.1 31.2-17.6 41.4c-10.6 9.3-25 14.5-40.4 14.5z" style="fill:url(#akc)"/><path d="M111.49 29.67c5.33 8.6 8.11 18.84 8.11 30.23 0 16.9-6.1 31.2-17.6 41.4-10.6 9.3-25 14.5-40.4 14.5-18.06 0-37.04-7.35-48.18-22.94 10.76 17.66 30.99 25.94 50.18 25.94 15.4 0 29.8-5.2 40.4-14.5 11.5-10.2 17.6-24.5 17.6-41.4 0-12.74-3.47-24.06-10.11-33.23z" style="fill:#d84213"/><radialGradient id="akd" cx="25.701" cy="63.101" r="19.444" gradientTransform="matrix(.9791 0 0 .9301 2.087 6.472)" gradientUnits="userSpaceOnUse"><stop offset=".005" style="stop-color:#ed0e00"/><stop offset=".145" style="stop-color:#ed1709;stop-opacity:.8431"/><stop offset=".379" style="stop-color:#ed2f23;stop-opacity:.582"/><stop offset=".675" style="stop-color:#ed554c;stop-opacity:.2513"/><stop offset=".9" style="stop-color:#ed7770;stop-opacity:0"/></radialGradient><circle cx="27.25" cy="65.16" r="17.5" style="fill:url(#akd)"/><radialGradient id="ake" cx="100.771" cy="63.101" r="19.444" gradientTransform="matrix(.9791 0 0 .9301 2.087 6.472)" gradientUnits="userSpaceOnUse"><stop offset=".005" style="stop-color:#ed0e00"/><stop offset=".145" style="stop-color:#ed1709;stop-opacity:.8431"/><stop offset=".379" style="stop-color:#ed2f23;stop-opacity:.582"/><stop offset=".675" style="stop-color:#ed554c;stop-opacity:.2513"/><stop offset=".9" style="stop-color:#ed7770;stop-opacity:0"/></radialGradient><circle cx="100.75" cy="65.16" r="17.5" style="fill:url(#ake)"/><ellipse cx="64" cy="91.15" rx="28.47" ry="11.85" style="fill:#422b0d"/><path d="M65.1 98.32c1.1 0 2-.9 2-2V82.6c-1.33-.03-2.67-.04-4-.02v13.74c0 1.1.9 2 2 2z" style="fill:#f04"/><path d="M65.1 98.32c1.1 0 2-.9 2-2V82.6c-1.33-.03-2.67-.04-4-.02v13.74c0 1.1.9 2 2 2z" style="opacity:.3;fill:#1f0b08"/><radialGradient id="akf" cx="20.59" cy="495.072" r="33.401" gradientTransform="matrix(1 0 0 1.54 0 -699.47)" gradientUnits="userSpaceOnUse"><stop offset=".46" style="stop-color:#4fc3f7"/><stop offset="1" style="stop-color:#1e88e5"/></radialGradient><path d="M19.52 107.04c-8.46 0-14.97-8.2-14.97-15.23 0-4.95 2.21-10.68 5.34-18.62.39-1.17.91-2.34 1.43-3.65 1.49-3.72 2.81-7.75 4.81-11.24 1.36-2.38 4.83-2.38 6.14.03 1.86 3.43 3.14 7.14 5.07 11.47 5.47 12.24 7.03 17.18 7.03 22.13.12 6.9-6.52 15.11-14.85 15.11z" style="fill:url(#akf)"/><path d="M28.67 97.65c-1.91 2.96-6.25 2.4-6.25-2.51 0-3.14.64-19.25 3.33-17 4.39 3.67 5.64 15.33 2.92 19.51z" style="fill:#81d4fa"/><path d="M27.39 39.77c-2.2.39-2.31 3.59.09 3.7 4.9.12 10.21-1.66 14.32-5.45 1.5-1.29 2.81-2.89 3.72-4.49 1.21-2.2-1.59-3.71-2.99-2.11l-.1.1c-4.03 4.49-9.54 7.37-15.04 8.25zm58.73-8.25-.1-.1c-1.41-1.59-4.2-.08-2.99 2.11.91 1.6 2.21 3.19 3.72 4.49 4.11 3.78 9.42 5.57 14.32 5.45 2.4-.11 2.29-3.31.09-3.7-5.51-.88-11.02-3.76-15.04-8.25z" style="fill:#422b0d"/><path d="M63.1 85.87v10.45c0 1.1.9 2 2 2s2-.9 2-2V85.86a75.97 75.97 0 0 0-4 .01z" style="fill:none"/><path d="M67.1 85.86v10.46c0 1.1-.9 2-2 2s-2-.9-2-2V85.87c-7.45.22-13.41 1.52-16.85 2.48v12.59c0 9.51 7.71 17.21 17.21 17.21h3.28c9.51 0 17.21-7.71 17.21-17.21V88.35a69.508 69.508 0 0 0-16.85-2.49z" style="fill:#ff4081"/><path d="M67.1 82.6v3.26c5.16.13 10.87.82 16.85 2.48V86.6c-3.4-2.1-11-3.85-16.85-4z" style="fill:#ff4081"/><path d="M67.1 82.6v3.26c5.16.13 10.87.82 16.85 2.48V86.6c-3.4-2.1-11-3.85-16.85-4z" style="opacity:.3;fill:#ab3f2e"/><path d="M63.1 82.58c-5.88.1-12.17.99-16.85 3.97v1.8c3.45-.96 9.41-2.26 16.85-2.48v-3.29z" style="fill:#ff4081"/><path d="M63.1 82.58c-5.88.1-12.17.99-16.85 3.97v1.8c3.45-.96 9.41-2.26 16.85-2.48v-3.29z" style="opacity:.3;fill:#ab3f2e"/><radialGradient id="akg" cx="113.569" cy="467.559" r="29.532" gradientTransform="matrix(1 0 0 1.54 0 -699.47)" gradientUnits="userSpaceOnUse"><stop offset=".46" style="stop-color:#4fc3f7"/><stop offset="1" style="stop-color:#1e88e5"/></radialGradient><path d="M112.62 59.56c-7.48 0-13.24-7.25-13.24-13.47 0-4.37 1.96-9.44 4.72-16.46.35-1.04.81-2.07 1.27-3.22 1.32-3.29 2.48-6.86 4.25-9.94 1.21-2.11 4.27-2.1 5.43.03 1.65 3.03 2.77 6.31 4.48 10.14 4.83 10.82 6.22 15.19 6.22 19.57.11 6.1-5.76 13.35-13.13 13.35z" style="fill:url(#akg)"/><path d="M120.72 51.26c-1.69 2.61-5.53 2.12-5.53-2.22 0-2.77.56-17.02 2.95-15.03 3.88 3.24 4.98 13.56 2.58 17.25z" style="fill:#81d4fa"/><path d="M44.04 45.94c-4.19 0-8 3.54-8 9.42s3.81 9.42 8 9.42c4.19 0 8-3.54 8-9.42s-3.8-9.42-8-9.42z" style="fill:#422b0d"/><path d="M43.65 49.87c-1.03-.72-2.58-.49-3.58.95-1 1.45-.67 2.97.36 3.69 1.03.72 2.58.49 3.58-.95s.68-2.97-.36-3.69z" style="fill:#896024"/><path d="M82.4 45.94c-4.19 0-8 3.54-8 9.42s3.81 9.42 8 9.42c4.19 0 8-3.54 8-9.42s-3.81-9.42-8-9.42z" style="fill:#422b0d"/><path d="M82.01 49.87c-1.03-.72-2.58-.49-3.58.95-1 1.45-.67 2.97.36 3.69 1.03.72 2.58.49 3.58-.95 1.01-1.45.67-2.97-.36-3.69z" style="fill:#896024"/></svg><svg style="enable-background:new 0 0 128 128" viewBox="0 0 128 128" xml:space="preserve" id="1F976" xmlns="http://www.w3.org/2000/svg"><radialGradient id="ala" cx="63.6" cy="2288.9" r="56.96" gradientTransform="translate(0 -2226)" gradientUnits="userSpaceOnUse"><stop offset=".5" style="stop-color:#fde030"/><stop offset=".92" style="stop-color:#f7c02b"/><stop offset="1" style="stop-color:#f4a223"/></radialGradient><path d="M63.6 118.8c-27.9 0-58-17.5-58-55.9S35.7 7 63.6 7c15.5 0 29.8 5.1 40.4 14.4 11.5 10.2 17.6 24.6 17.6 41.5s-6.1 31.2-17.6 41.4c-10.6 9.3-25 14.5-40.4 14.5z" style="fill:url(#ala)"/><radialGradient id="alb" cx="63.6" cy="2288.9" r="56.96" gradientTransform="translate(0 -2226)" gradientUnits="userSpaceOnUse"><stop offset=".16" style="stop-color:#40e3e7"/><stop offset=".51" style="stop-color:#3fe1e7"/><stop offset=".65" style="stop-color:#39dae7"/><stop offset=".77" style="stop-color:#30cde6"/><stop offset=".86" style="stop-color:#23bce5"/><stop offset=".94" style="stop-color:#13a5e4"/><stop offset="1" style="stop-color:#018ce3"/></radialGradient><path d="M63.6 118.8c-27.9 0-58-17.5-58-55.9S35.7 7 63.6 7c15.5 0 29.8 5.1 40.4 14.4 11.5 10.2 17.6 24.6 17.6 41.5s-6.1 31.2-17.6 41.4c-10.6 9.3-25 14.5-40.4 14.5z" style="fill:url(#alb)"/><path d="M111.49 29.67c5.33 8.6 8.11 18.84 8.11 30.23 0 16.9-6.1 31.2-17.6 41.4-10.6 9.3-25 14.5-40.4 14.5-18.06 0-37-7.35-48.18-22.94 10.76 17.66 31 25.94 50.18 25.94 15.4 0 29.8-5.2 40.4-14.5 11.5-10.2 17.6-24.5 17.6-41.4 0-12.74-3.47-24.06-10.11-33.23z" style="fill:#018ce3"/><linearGradient id="alc" x1="38.099" x2="44.599" y1="122.739" y2="106.489" gradientTransform="matrix(1 0 0 -1 0 130)" gradientUnits="userSpaceOnUse"><stop offset="0" style="stop-color:#fff"/><stop offset=".21" style="stop-color:#f6fcff"/><stop offset=".56" style="stop-color:#def3ff"/><stop offset="1" style="stop-color:#b7e4ff"/></linearGradient><path d="M70.18 19.19c6.52.81 17.93 2.44 15.48-7.33S66.93 5.34 60.41 4.53s-17.11-3.26-23.63.81-11.4 13.85-16.29 15.48-7.33 1.63-10.18 6.11C7.76 30.94 5.23 38.57 7 44s8.75.75 19.25-10.75" style="fill:url(#alc)"/><path d="M30.94 66.3a.874.874 0 0 0-1.06-.62h-.01l-2.17.58c-.54.12-1.11.04-1.61-.21l-3.8-2.19a.471.471 0 0 1-.28-.6c.05-.13.15-.23.28-.28l3.8-2.2c.5-.25 1.06-.32 1.61-.21l2.17.59a.89.89 0 0 0 1.12-.58c0-.01.01-.03.01-.04l.34-1.26a.879.879 0 0 0-.62-1.08l-1.32-.35a.874.874 0 0 1-.62-1.06v-.01l.35-1.31a.887.887 0 0 0-.62-1.08L27.19 54a.879.879 0 0 0-1.08.62l-.57 2.18c-.17.53-.53.99-1 1.29l-3.8 2.19c-.41.25-.75 0-.75-.43v-4.33c.03-.56.24-1.08.61-1.5l1.6-1.59c.34-.34.34-.9 0-1.24l-.94-.94a.87.87 0 0 0-1.23 0l-1 1c-.34.34-.9.34-1.24 0l-1-1a.87.87 0 0 0-1.23 0l-.94.93c-.34.34-.34.9 0 1.24L16.3 54c.37.41.59.94.62 1.5v4.39c0 .48-.34.68-.76.44l-3.79-2.2a2.44 2.44 0 0 1-1-1.32l-.59-2.17A.881.881 0 0 0 9.72 54l-1.27.34c-.47.13-.75.61-.62 1.08l.35 1.32c.12.47-.16.94-.62 1.07l-1.32.35c-.47.13-.75.61-.63 1.08L6 60.55c.13.43.56.69 1 .61l2.19-.59a2.49 2.49 0 0 1 1.61.22L14.65 63c.24.09.37.36.28.6-.05.13-.15.23-.28.28l-3.8 2.2c-.5.25-1.06.32-1.61.21l-2.19-.59a.882.882 0 0 0-1.05.6l-.34 1.27c-.13.47.15.95.62 1.08l1.29.35c.46.11.74.58.63 1.04 0 .01 0 .02-.01.03l-.35 1.32c-.13.46.15.94.61 1.07h.01l1.27.34c.47.12.95-.15 1.08-.62l.57-2.18c.17-.53.53-.98 1-1.28l3.79-2.2c.42-.24.76 0 .76.44v4.39c-.03.56-.25 1.08-.62 1.5l-1.59 1.59c-.34.34-.34.9 0 1.24l.94.91c.34.34.89.34 1.23 0l1-1c.34-.34.9-.34 1.24 0l1 1c.34.34.89.34 1.23 0l.94-.94c.34-.34.34-.9 0-1.24l-1.6-1.59c-.37-.42-.58-.94-.61-1.5v-4.39c0-.48.34-.68.75-.43l3.8 2.19c.47.31.83.77 1 1.31l.58 2.17c.13.47.61.75 1.08.62l1.27-.34c.46-.11.74-.58.63-1.04 0-.01 0-.02-.01-.03l-.35-1.32c-.12-.43.1-.89.52-1.06l1.32-.35c.46-.11.74-.58.63-1.04 0-.01 0-.02-.01-.03l-.36-1.28zm90.59-17.66a.997.997 0 0 0-.66-1.25c-.01 0-.02-.01-.04-.01l-2.52-.7c-.62-.2-1.14-.61-1.49-1.16l-2.5-4.44a.536.536 0 0 1 .05-.75l.01-.01c.13-.11.3-.15.46-.12h5.09c.65.04 1.26.3 1.74.73l1.83 1.87c.38.4 1.02.41 1.41.03l.03-.03 1.06-1c.4-.38.42-1.01.04-1.41l-.04-.04-1.11-1.13a.996.996 0 0 1-.03-1.41l.03-.03 1.13-1.11c.4-.38.42-1.01.04-1.41l-.04-.04-1.02-1.09a.996.996 0 0 0-1.41-.03l-.03.03-1.84 1.87c-.49.42-1.1.67-1.75.7l-5.1-.05c-.56 0-.78-.4-.5-.88l2.63-4.4c.36-.54.89-.94 1.5-1.13l2.54-.65c.54-.13.87-.67.74-1.21 0-.01-.01-.02-.01-.03l-.38-1.5c-.13-.54-.67-.87-1.21-.74-.01 0-.02.01-.03.01l-1.53.39a.994.994 0 0 1-1.22-.71c0-.01 0-.01-.01-.02l-.4-1.52c-.13-.54-.67-.87-1.21-.74-.01 0-.02.01-.03.01l-1.48.38a1 1 0 0 0-.75 1.2c0 .01.01.03.01.04l.66 2.54c.12.64.03 1.29-.27 1.87L111.28 34c-.29.48-.75.48-1 0l-2.51-4.44c-.29-.59-.36-1.26-.21-1.9l.7-2.52c.16-.53-.14-1.09-.67-1.25-.01 0-.03-.01-.04-.01l-1.47-.4a.997.997 0 0 0-1.25.66c0 .01-.01.02-.01.04l-.43 1.52c-.14.54-.68.86-1.22.72-.01 0-.03-.01-.04-.01l-1.52-.43c-.53-.16-1.09.14-1.25.67 0 .01-.01.03-.01.04l-.41 1.47c-.16.53.14 1.09.67 1.25.02.01.03.01.05.01l2.54.71c.62.21 1.14.62 1.49 1.17l2.5 4.44c.19.23.17.57-.06.76-.13.11-.3.15-.46.12h-5.09c-.65-.04-1.26-.3-1.74-.74L98 33.89a.996.996 0 0 0-1.41-.03l-.03.03L95.44 35a.996.996 0 0 0-.03 1.41l.03.03 1.11 1.13c.4.38.41 1.02.03 1.41l-.03.03-1.15 1.07a.996.996 0 0 0-.03 1.41l.03.03 1.07 1.09c.38.4 1.02.41 1.41.03l.03-.03 1.86-1.85c.49-.42 1.1-.67 1.75-.7l5.1.05c.56 0 .78.4.5.88l-2.59 4.4c-.36.55-.9.95-1.53 1.15l-2.54.65c-.54.13-.87.67-.74 1.21 0 .01.01.02.01.03l.4 1.47c.13.54.67.87 1.21.74.01 0 .02-.01.03-.01l1.53-.4c.53-.14 1.08.18 1.22.71 0 .01.01.02.01.03l.4 1.52c.13.54.67.87 1.21.74.01 0 .02-.01.03-.01l1.48-.38c.54-.12.88-.65.76-1.19 0-.02-.01-.03-.01-.05l-.66-2.54c-.12-.63-.03-1.29.27-1.86l2.59-4.4c.29-.48.75-.48 1 0l2.5 4.44c.29.59.37 1.26.22 1.9l-.7 2.52c-.16.53.15 1.09.68 1.24.01 0 .02.01.03.01l1.47.4a.997.997 0 0 0 1.25-.66c0-.01.01-.02.01-.04l.43-1.52c.14-.54.68-.86 1.22-.72.01 0 .03.01.04.01l1.52.43c.53.16 1.09-.14 1.25-.67 0-.01.01-.03.01-.04l.4-1.46zM56.89 116.1a.61.61 0 0 0-.84-.18l-1.29.86c-.33.2-.72.27-1.1.22l-3-.6c-.18-.01-.32-.15-.31-.33 0-.09.05-.18.12-.24l2-2.27c.27-.27.62-.45 1-.49l1.55-.1c.33-.02.58-.29.56-.62v-.92a.602.602 0 0 0-.63-.57h-.01l-.94.06a.603.603 0 0 1-.64-.56l-.06-.94a.603.603 0 0 0-.64-.56h-.9c-.33.02-.58.31-.56.64l.1 1.55c.01.38-.12.76-.36 1.06l-2 2.27c-.09.15-.29.2-.44.11a.309.309 0 0 1-.15-.23l-1-2.85c-.1-.37-.07-.76.08-1.11l.69-1.39c.15-.3.03-.66-.26-.81h-.01l-.82-.41a.622.622 0 0 0-.81.27l-.41.84c-.15.3-.51.42-.8.27H45l-.83-.41a.606.606 0 0 0-.81.26v.01l-.41.81c-.14.3-.02.66.28.81l1.39.69c.33.19.59.49.73.85l1 2.86c.11.32-.07.52-.4.45l-3-.6c-.37-.1-.7-.33-.93-.64l-.86-1.29a.607.607 0 0 0-.83-.17l-.75.51c-.28.18-.35.55-.17.83l.52.79c.18.28.11.65-.17.84l-.78.51a.61.61 0 0 0-.18.84l.5.76c.19.27.56.34.84.16l1.31-.86c.33-.19.71-.27 1.09-.21l3 .6c.18 0 .32.14.32.32 0 .1-.05.19-.12.25l-2 2.27c-.27.27-.62.44-1 .49l-1.57.1c-.33.02-.58.31-.56.64v.9c.02.34.31.59.65.57l.93-.06c.33-.02.62.23.65.56l.06.94c.02.33.31.58.64.56h.9c.33-.02.59-.3.57-.63v-.01l-.11-1.55c0-.38.13-.76.36-1.06l2-2.27c.09-.15.29-.2.44-.11.08.05.14.13.15.23l1 2.87c.1.37.07.76-.08 1.11l-.69 1.41c-.15.3-.03.66.26.81h.01l.81.39c.3.14.65.02.81-.27l.41-.84c.15-.3.51-.42.8-.27h.01l.84.41c.29.15.65.03.79-.26 0 0 0-.01.01-.01l.41-.81c.15-.3.03-.66-.26-.81h-.01l-1.39-.69c-.33-.19-.59-.49-.73-.84l-1-2.87c-.1-.31.08-.52.4-.45l3 .6c.38.09.71.32.93.64L55 121c.18.28.56.36.84.18l.75-.51c.27-.18.36-.54.18-.81 0-.01-.01-.01-.01-.02l-.52-.78a.62.62 0 0 1 .17-.84l.78-.52c.28-.18.35-.55.17-.83l-.47-.77z" style="fill:#b7e4ff"/><path d="M44 45.94c-4.19 0-8 3.54-8 9.42s3.81 9.41 8 9.41c4.2 0 8-3.54 8-9.41s-3.76-9.42-8-9.42z" style="fill:#422b0d"/><path d="M43.65 49.87a2.874 2.874 0 0 0-3.82 1.34c-.53 1.11-.29 2.44.6 3.3 1.42.68 3.13.08 3.82-1.34.53-1.11.29-2.44-.6-3.3z" style="fill:#896024"/><path d="M82.4 45.94c-4.19 0-8 3.54-8 9.42s3.81 9.41 8 9.41c4.19 0 8-3.54 8-9.41s-3.81-9.42-8-9.42z" style="fill:#422b0d"/><path d="M82 49.87a2.874 2.874 0 0 0-3.82 1.34c-.53 1.11-.29 2.44.6 3.3 1.42.68 3.13.08 3.82-1.34.53-1.11.29-2.44-.6-3.3z" style="fill:#896024"/><path d="M39.37 74.1h50.09c6.32 0 11.44 5.12 11.44 11.44v.01c0 6.32-5.12 11.44-11.44 11.44H39.37c-6.32 0-11.44-5.12-11.44-11.44v-.01c0-6.32 5.12-11.44 11.44-11.44z" style="fill:#fff"/><path d="M100.74 83.67H28.1a10.76 10.76 0 0 0 0 4h72.6c.25-1.32.25-2.68 0-4h.04z" style="fill:#b3b3b3"/><path d="M89.46 74.1h-.55V97h.55c.89 0 1.78-.11 2.65-.32V74.42c-.87-.21-1.76-.32-2.65-.32zm-26.88 0h3.2v22.89h-3.2zm-23.2 0c-1.06 0-2.12.15-3.14.45v22c1.02.3 2.08.45 3.14.45h.06V74.1h-.06zm10.03 0h3.2v22.89h-3.2zm26.33 0h3.2v22.89h-3.2z" style="fill:#b3b3b3"/><path d="M100.91 85.55c-.29-3.52-2.19-6.7-5.13-8.65-1.39-.92-2.98-1.49-4.64-1.67a50.3 50.3 0 0 0-5.21 0c-3.59.14-7.17.17-10.75.25l-10.76.08-10.75-.08c-3.59-.08-7.17-.11-10.76-.25a50.3 50.3 0 0 0-5.21 0c-1.66.17-3.25.75-4.63 1.68a11.498 11.498 0 0 0-5.14 8.64c-.29-3.78 1.31-7.46 4.27-9.83 1.51-1.22 3.29-2.05 5.19-2.43l.72-.14.73-.06c.5 0 .94-.06 1.39-.07l2.68-.09c3.59-.14 7.17-.17 10.76-.25l10.75-.08 10.76.09c3.58.08 7.16.11 10.75.25l2.69.08c.45 0 .88 0 1.39.07l.72.07.72.14c1.9.37 3.68 1.2 5.19 2.42 2.96 2.37 4.56 6.05 4.27 9.83z" style="fill:#018ce3"/></svg></svg>