<?xml version="1.0" encoding="utf-8"?><svg viewBox="0 0 128 128" xmlns="http://www.w3.org/2000/svg" xmlns:xlink="http://www.w3.org/1999/xlink"><style>:root>svg{display:none}:root>svg:target{display:block}</style><svg viewBox="0 0 128 128" id="267E" xmlns="http://www.w3.org/2000/svg"><linearGradient id="aaa" x1="64" x2="64" y1="4.25" y2="124.41" gradientUnits="userSpaceOnUse"><stop offset="0" stop-color="#B388FF"/><stop offset=".377" stop-color="#A175FF"/><stop offset="1" stop-color="#7C4DFF"/></linearGradient><path fill="url(#aaa)" d="M116 124H12c-4.42 0-8-3.58-8-8V12c0-4.42 3.58-8 8-8h104c4.42 0 8 3.58 8 8v104c0 4.42-3.58 8-8 8z"/><path fill="#424242" d="M116 7c2.76 0 5 2.24 5 5v104c0 2.76-2.24 5-5 5H12c-2.76 0-5-2.24-5-5V12c0-2.76 2.24-5 5-5h104m0-3H12c-4.42 0-8 3.58-8 8v104c0 4.42 3.58 8 8 8h104c4.42 0 8-3.58 8-8V12c0-4.42-3.58-8-8-8z" opacity=".2"/><path fill="#424242" d="M89.29 44.46c11.97 0 21.71 9.66 21.71 21.53s-9.74 21.53-21.71 21.53c-10.7 0-18.28-7.44-25.29-15.57-7.07 8.18-14.63 15.57-25.29 15.57C26.74 87.52 17 77.86 17 65.99s9.74-21.53 21.71-21.53c10.7 0 18.51 7.59 25.29 15.41 6.78-7.81 14.6-15.41 25.29-15.41M38.71 79.68c7.71 0 13.87-6.41 20.16-13.78-6.25-7.29-12.38-13.61-20.16-13.61-7.65 0-13.87 6.15-13.87 13.7-.01 7.55 6.22 13.69 13.87 13.69m50.58.01c7.65 0 13.87-6.14 13.87-13.7 0-7.55-6.22-13.7-13.87-13.7h-.01c-7.78 0-13.91 6.32-20.15 13.61 6.35 7.44 12.49 13.79 20.16 13.79m0-38.23c-10.51 0-18.42 6.4-25.29 13.9-6.87-7.5-14.78-13.9-25.29-13.9-13.62 0-24.71 11-24.71 24.53s11.08 24.53 24.71 24.53c10.89 0 18.78-6.85 25.29-14.04 6.5 7.19 14.38 14.04 25.3 14.04 13.62 0 24.71-11 24.71-24.53s-11.09-24.53-24.72-24.53zM38.71 76.68c-6 0-10.87-4.8-10.87-10.7s4.88-10.7 10.87-10.7c5.92 0 11.08 4.82 16.19 10.62-5.16 5.89-10.35 10.78-16.19 10.78zM73.1 65.91c5.1-5.79 10.25-10.61 16.18-10.61 6 0 10.88 4.8 10.88 10.7s-4.88 10.7-10.87 10.7c-5.82-.01-11.02-4.91-16.19-10.79z" opacity=".2"/><path fill="#fff" d="M89.29 87.52c-10.7 0-18.28-7.44-25.29-15.57-7.07 8.18-14.63 15.57-25.29 15.57C26.74 87.52 17 77.86 17 65.99s9.74-21.53 21.71-21.53c10.7 0 18.51 7.59 25.29 15.41 6.78-7.81 14.6-15.41 25.29-15.41 11.97 0 21.71 9.66 21.71 21.53s-9.74 21.53-21.71 21.53zM69.13 65.91c6.35 7.43 12.49 13.78 20.16 13.78 7.65 0 13.87-6.14 13.87-13.7 0-7.55-6.22-13.7-13.87-13.7-7.78 0-13.92 6.32-20.16 13.62zM38.71 52.29c-7.65 0-13.87 6.15-13.87 13.7 0 7.56 6.22 13.7 13.87 13.7 7.71 0 13.87-6.41 20.16-13.78-6.25-7.3-12.38-13.62-20.16-13.62z"/></svg><svg viewBox="0 0 128 128" style="enable-background:new 0 0 128 128" id="2716" xmlns="http://www.w3.org/2000/svg"><linearGradient id="aba" x1="64" x2="64" y1="4.146" y2="122.866" gradientUnits="userSpaceOnUse"><stop offset="0" style="stop-color:#757575"/><stop offset=".515" style="stop-color:#504f4f"/></linearGradient><path style="fill:url(#aba)" d="M62.6 82.4c.8-.8 2-.8 2.8 0l40.5 40.5c1.6 1.6 4.1 1.6 5.7 0l11.3-11.3c.6-.6 1-1.3 1.1-2.1.3-1.3-.1-2.7-1.1-3.6L82.4 65.5c-.8-.8-.8-2.1 0-2.8l40.5-40.5c1.6-1.6 1.6-4.1 0-5.7L111.6 5.1c-.6-.6-1.3-1-2.1-1.1-1.3-.3-2.7.1-3.6 1.1L65.4 45.6c-.8.8-2.1.8-2.8 0L22.1 5.1c-1.6-1.6-4.1-1.6-5.7 0L5.1 16.4c-.6.6-1 1.3-1.1 2.1-.3 1.3.1 2.7 1.1 3.6l40.5 40.5c.8.8.8 2.1 0 2.8L5.1 105.9c-1.6 1.6-1.6 4.1 0 5.7l11.3 11.3c.6.6 1.3 1 2.1 1.1 1.3.3 2.7-.1 3.6-1.1l40.5-40.5z"/></svg><svg viewBox="0 0 128 128" style="enable-background:new 0 0 128 128" id="2795" xmlns="http://www.w3.org/2000/svg"><linearGradient id="aca" x1="64" x2="64" y1="6.038" y2="121.878" gradientUnits="userSpaceOnUse"><stop offset="0" style="stop-color:#757575"/><stop offset=".393" style="stop-color:#504f4f"/></linearGradient><path style="fill:url(#aca)" d="M124 56v16c0 2.2-1.8 4-4 4H78c-1.1 0-2 .9-2 2v42c0 2.2-1.8 4-4 4H56c-2.2 0-4-1.8-4-4V78c0-1.1-.9-2-2-2H8c-2.2 0-4-1.8-4-4V56c0-2.2 1.8-4 4-4h42c1.1 0 2-.9 2-2V8c0-2.2 1.8-4 4-4h16c2.2 0 4 1.8 4 4v42c0 1.1.9 2 2 2h42c2.2 0 4 1.8 4 4z"/></svg><svg viewBox="0 0 128 128" style="enable-background:new 0 0 128 128" id="2796" xmlns="http://www.w3.org/2000/svg"><linearGradient id="ada" x1="4" x2="124" y1="-4058.11" y2="-4058.11" gradientTransform="matrix(1 0 0 -1 0 -3994.11)" gradientUnits="userSpaceOnUse"><stop offset="0" style="stop-color:#757575"/><stop offset=".515" style="stop-color:#504f4f"/></linearGradient><path style="fill:url(#ada)" d="M120 52H8c-2.2 0-4 1.8-4 4v16c0 2.2 1.8 4 4 4h112c2.2 0 4-1.8 4-4V56c0-2.2-1.8-4-4-4z"/></svg><svg viewBox="0 0 128 128" style="enable-background:new 0 0 128 128" id="2797" xmlns="http://www.w3.org/2000/svg"><linearGradient id="aea" x1="64" x2="64" y1="123.68" y2="3.68" gradientUnits="userSpaceOnUse"><stop offset=".485" style="stop-color:#504f4f"/><stop offset="1" style="stop-color:#757575"/></linearGradient><circle style="fill:url(#aea)" cx="64" cy="106" r="18"/><linearGradient id="aeb" x1="64" x2="64" y1="123.68" y2="3.68" gradientUnits="userSpaceOnUse"><stop offset=".485" style="stop-color:#504f4f"/><stop offset="1" style="stop-color:#757575"/></linearGradient><circle style="fill:url(#aeb)" cx="64" cy="22" r="18"/><linearGradient id="aec" x1="64" x2="64" y1="123.68" y2="3.68" gradientUnits="userSpaceOnUse"><stop offset=".485" style="stop-color:#504f4f"/><stop offset="1" style="stop-color:#757575"/></linearGradient><path style="fill:url(#aec)" d="M120 52H8c-2.2 0-4 1.8-4 4v16c0 2.2 1.8 4 4 4h112c2.2 0 4-1.8 4-4V56c0-2.2-1.8-4-4-4z"/></svg></svg>