<?xml version="1.0" encoding="utf-8"?><svg viewBox="0 0 128 128" xmlns="http://www.w3.org/2000/svg" xmlns:xlink="http://www.w3.org/1999/xlink"><style>:root>svg{display:none}:root>svg:target{display:block}</style><svg viewBox="0 0 128 128" id="1F489" xmlns="http://www.w3.org/2000/svg"><linearGradient id="aaa" x1="14.353" x2="14.353" y1="3.25" y2="36.159" gradientTransform="matrix(-1 0 0 1 128 0)" gradientUnits="userSpaceOnUse"><stop offset="0" stop-color="#E1F5FE"/><stop offset="1" stop-color="#81D4FA"/></linearGradient><path fill="url(#aaa)" d="m103.29 20.9 13.93-14.1c.09-.09.19-.16.29-.21l4.84-2.45c1.15-.58 2.21.92 1.31 1.84L106.1 23.75l-2.81-2.85z"/><path fill="#424242" d="M121.05 6.47 106.1 21.61l-.7-.71 12.84-13.01 2.81-1.42M122.87 4c-.17 0-.34.04-.52.13l-4.84 2.45c-.11.06-.21.13-.29.21L103.29 20.9l2.81 2.85 17.55-17.78c.78-.78.13-1.97-.78-1.97z" opacity=".2"/><linearGradient id="aab" x1="105.18" x2="105.18" y1="81" y2="107.84" gradientTransform="matrix(-1 0 0 1 128 0)" gradientUnits="userSpaceOnUse"><stop offset="0" stop-color="#E1F5FE"/><stop offset="1" stop-color="#81D4FA"/></linearGradient><path fill="url(#aab)" d="m35.13 99.92-7.02-7.12-17.6 17.83 7.03 7.11z"/><linearGradient id="aac" x1="20.856" x2="20.856" y1="-5.997" y2="21.728" gradientTransform="matrix(-1 0 0 1 120.15 21.251)" gradientUnits="userSpaceOnUse"><stop offset="0" stop-color="#E1F5FE"/><stop offset="1" stop-color="#81D4FA"/></linearGradient><path fill="url(#aac)" d="m109.62 21.61-4.22-4.27c-.78-.79-2.03-.79-2.81 0L88.38 31.68l7.03 7.12 14.21-14.33c.77-.79.77-2.07 0-2.86z"/><path fill="#424242" d="m103.99 20.19 2.81 2.84-11.39 11.49-2.81-2.84 11.39-11.49m.01-3.44c-.51 0-1.02.2-1.41.59L88.38 31.68l7.03 7.12 14.21-14.33c.78-.79.78-2.06 0-2.85l-4.22-4.27c-.39-.4-.9-.6-1.4-.6zM33.95 91.16 36.76 94l-19.23 19.47-2.81-2.85 19.23-19.46m0-4.28-23.44 23.74 7.03 7.12L40.98 94l-7.03-7.12z" opacity=".2"/><linearGradient id="aad" x1="82.048" x2="82.048" y1="51.25" y2="121.83" gradientTransform="matrix(-1 0 0 1 128 0)" gradientUnits="userSpaceOnUse"><stop offset="0" stop-color="#E1F5FE"/><stop offset="1" stop-color="#81D4FA"/></linearGradient><path fill="url(#aad)" d="M42.75 104.74c-.79.8-2.05.81-2.83.02L23.05 87.68c-.78-.79-.77-2.07.02-2.87l26.68-27.03 19.67 19.93-26.67 27.03z"/><linearGradient id="aae" x1="49.243" x2="49.243" y1="36" y2="62.922" gradientTransform="matrix(-1 0 0 1 128 0)" gradientUnits="userSpaceOnUse"><stop offset=".005" stop-color="#EF5350"/><stop offset="1" stop-color="#E53935"/></linearGradient><path fill="url(#aae)" d="m49.75 57.78 37.74-38.23c.79-.8 2.05-.81 2.83-.02l16.86 17.08c.78.79.77 2.07-.02 2.87L69.43 77.71 49.75 57.78z"/><linearGradient id="aaf" x1="111.32" x2="111.32" y1="100.25" y2="127.5" gradientTransform="matrix(-1 0 0 1 128 0)" gradientUnits="userSpaceOnUse"><stop offset="0" stop-color="#81D4FA"/><stop offset="1" stop-color="#29B6F6"/></linearGradient><path fill="url(#aaf)" d="M28.87 116.16 11.74 98.8c-.78-.79-2.21-.61-3.19.39l-3.68 3.72c-.99 1-1.16 2.45-.38 3.23l17.14 17.37c.78.79 2.21.61 3.19-.39l3.68-3.72c.98-1 1.15-2.45.37-3.24z"/><path fill="#C5CAE9" d="m60.43 74.29-25.3 25.63-7.02-7.12L53.4 67.17l-6.46-6.54 2.81-2.85 19.68 19.93-2.81 2.85z" opacity=".3"/><path fill="#424242" d="m10.33 101.65 15.73 15.94-3.04 3.07L7.3 104.72l3.03-3.07m.16-3.35c-.65 0-1.37.3-1.94.88l-3.68 3.72c-.99 1-1.16 2.45-.38 3.23l17.14 17.37c.33.33.77.49 1.25.49.65 0 1.37-.3 1.94-.88l3.68-3.72c.99-1 1.16-2.45.38-3.23L11.74 98.8c-.33-.34-.77-.5-1.25-.5z" opacity=".2"/><path fill="#eee" d="m66.51 60.73-9.85-9.98-1.41 1.43 9.86 9.97zm-1.4-9.96-4.23-4.29-1.41 1.42 4.23 4.29zm9.85 1.42-9.86-9.98-1.4 1.42 9.85 9.98zm-1.41-9.97-4.23-4.28-1.4 1.42 4.23 4.29zm9.85 1.43-9.86-9.98-1.4 1.42L82 45.07zm-1.41-9.97-4.23-4.28-1.4 1.42 4.23 4.28zm9.85 1.42-9.86-9.97-1.4 1.42 9.86 9.98zm-1.4-9.96-4.23-4.28-1.41 1.42 4.23 4.28z" opacity=".7"/><path fill="#424242" d="m88.91 22.38 15.46 15.66L67.29 75.6l-25.97 26.31-15.46-15.66 26.03-26.37 37.02-37.5m.01-3.43c-.52 0-1.04.2-1.43.6L49.75 57.78 23.07 84.81c-.79.8-.8 2.08-.02 2.87l16.86 17.08c.38.39.89.58 1.4.58.52 0 1.04-.2 1.43-.6l26.68-27.03 37.74-38.23c.79-.8.8-2.08.02-2.87L90.32 19.53c-.38-.39-.89-.58-1.4-.58z" opacity=".2"/><linearGradient id="aag" x1="96.155" x2="96.155" y1="73.5" y2="109.53" gradientTransform="matrix(-1 0 0 1 128 0)" gradientUnits="userSpaceOnUse"><stop offset="0" stop-color="#E1F5FE"/><stop offset="1" stop-color="#81D4FA"/></linearGradient><path fill="url(#aag)" d="M46.42 103.04 24.7 81.06c-1.77-1.79-6.06-.37-7.83 1.42a1.46 1.46 0 0 0 0 2.05l26.12 26.43c.56.56 1.46.56 2.02 0 1.78-1.79 3.18-6.13 1.41-7.92z"/><path fill="#424242" d="M22.34 83.23c.16 0 .26.02.31.03l21.55 21.81c.13.43-.06 1.46-.46 2.39L20.31 83.75c.66-.3 1.41-.52 2.03-.52m0-3c-1.94 0-4.27 1.04-5.47 2.25a1.46 1.46 0 0 0 0 2.05l26.12 26.43c.28.28.65.42 1.01.42s.73-.14 1.01-.42c1.77-1.79 3.18-6.13 1.41-7.92L24.7 81.06c-.58-.58-1.42-.83-2.36-.83z" opacity=".2"/></svg><svg viewBox="0 0 128 128" id="1F48A" xmlns="http://www.w3.org/2000/svg"><radialGradient id="aba" cx="68" cy="64.667" r="68.55" gradientTransform="matrix(.6516 .7586 -.5017 .4309 56.134 -14.783)" gradientUnits="userSpaceOnUse"><stop offset="0" stop-color="#EF5350"/><stop offset=".626" stop-color="#D83534"/><stop offset=".736" stop-color="#D32F2F"/><stop offset="1" stop-color="#D32F2F"/></radialGradient><path fill="url(#aba)" d="M74.06 115.46c11.38 11.38 30.01 11.38 41.4 0 11.38-11.38 11.38-30.01 0-41.4L84.7 43.3 43.3 84.7l30.76 30.76z"/><radialGradient id="abb" cx="16.667" cy="15.667" r="66.946" gradientTransform="matrix(.7071 .70712 -.5565 .55648 13.6 -4.837)" gradientUnits="userSpaceOnUse"><stop offset="0" stop-color="#FFEB3B"/><stop offset=".349" stop-color="#FEE439"/><stop offset=".67" stop-color="#FDD835"/><stop offset=".995" stop-color="#FBC02D"/></radialGradient><path fill="url(#abb)" d="M84.7 43.3 53.94 12.54c-11.38-11.38-30.01-11.38-41.4 0-11.38 11.38-11.38 30.01 0 41.4L43.3 84.7l41.4-41.4z"/><path fill="#424242" d="M33.24 7c7.04 0 13.64 2.72 18.58 7.66l61.52 61.52c4.94 4.94 7.66 11.54 7.66 18.58s-2.72 13.64-7.66 18.58S101.8 121 94.76 121s-13.64-2.72-18.58-7.66L14.66 51.82C9.72 46.88 7 40.28 7 33.24s2.72-13.64 7.66-18.58S26.2 7 33.24 7m0-3c-7.5 0-15.01 2.85-20.7 8.54-11.38 11.38-11.38 30.01 0 41.4l61.52 61.52c5.69 5.69 13.2 8.54 20.7 8.54s15.01-2.85 20.7-8.54c11.38-11.38 11.38-30.01 0-41.4L53.94 12.54C48.25 6.85 40.74 4 33.24 4z" opacity=".2"/><path fill="#424242" d="m86.817 45.423-41.4 41.402-2.121-2.121 41.4-41.402z" opacity=".2"/></svg><svg style="enable-background:new 0 0 128 128" viewBox="0 0 128 128" xml:space="preserve" id="1FA78" xmlns="http://www.w3.org/2000/svg"><path d="M88.04 44.26C75.44 28.81 69.87 15.67 66.68 7.83c-1.01-2.47-4.36-2.47-5.36 0-3.19 7.84-8.76 20.98-21.36 36.43-7.89 9.68-15.67 23.85-15.67 37.81 0 23.82 17.19 39.95 39.71 39.95s39.71-16.14 39.71-39.95c0-14.51-7.78-28.13-15.67-37.81z" style="fill:#e5322e"/><path d="M74.98 79.84c6.35-12.08 5.45-23.9 10.47-21.77 6.82 2.91 14.37 17.86 11.54 31.41-2.02 9.66-8.54 15.51-16.85 12.72-6.71-2.25-10.88-11.48-5.16-22.36z" style="fill:#ff6050"/></svg><svg viewBox="0 0 128 128" id="1FA79" xmlns="http://www.w3.org/2000/svg"><linearGradient id="ada" x1="595.49" x2="595.79" y1="2071.6" y2="2283" gradientTransform="scale(1 -1) rotate(-45 -2378.95 1699.8)" gradientUnits="userSpaceOnUse"><stop offset="0" stop-color="#A1775D"/><stop offset=".11" stop-color="#B98865"/><stop offset=".22" stop-color="#CC956B"/><stop offset=".34" stop-color="#D79C6F"/><stop offset=".47" stop-color="#DB9F70"/><stop offset=".63" stop-color="#D89D6F"/><stop offset=".76" stop-color="#CE966C"/><stop offset=".87" stop-color="#BD8B66"/><stop offset=".98" stop-color="#A67B5F"/><stop offset="1" stop-color="#A1775D"/></linearGradient><path fill="url(#ada)" d="m114.74 11.34.52.52c10.2 10.2 10.2 26.73 0 36.93l-67.89 67.89c-9.42 9.42-24.68 9.42-34.1 0l-.52-.52c-10.2-10.19-10.21-26.72-.01-36.93l67.89-67.89c9.41-9.42 24.68-9.43 34.1-.01l.01.01z"/><circle cx="31.03" cy="87.97" r="2.65" fill="#825A41"/><circle cx="40.01" cy="96.97" r="2.65" fill="#825A41"/><circle cx="18.55" cy="100.45" r="2.65" fill="#825A41"/><circle cx="27.53" cy="109.45" r="2.65" fill="#825A41"/><circle cx="32.68" cy="77.15" r="2.65" fill="#825A41"/><circle cx="50.85" cy="95.32" r="2.65" fill="#825A41"/><circle cx="42.07" cy="86.54" r="2.65" fill="#825A41"/><circle cx="20.2" cy="89.63" r="2.65" fill="#825A41"/><circle cx="38.36" cy="107.8" r="2.65" fill="#825A41"/><circle cx="29.6" cy="99.03" r="2.65" fill="#825A41"/><circle cx="96.97" cy="40.02" r="2.65" fill="#825A41"/><circle cx="87.98" cy="31.02" r="2.65" fill="#825A41"/><circle cx="109.45" cy="27.54" r="2.65" fill="#825A41"/><circle cx="100.46" cy="18.54" r="2.65" fill="#825A41"/><circle cx="95.32" cy="50.85" r="2.65" fill="#825A41"/><circle cx="77.15" cy="32.68" r="2.65" fill="#825A41"/><circle cx="85.94" cy="41.46" r="2.65" fill="#825A41"/><circle cx="107.8" cy="38.37" r="2.65" fill="#825A41"/><circle cx="89.63" cy="20.2" r="2.65" fill="#825A41"/><circle cx="98.41" cy="28.97" r="2.65" fill="#825A41"/><path fill="#212121" d="M97.69 7.27c5.6-.01 10.98 2.21 14.93 6.18l.51.51c9.01 9.03 9.01 23.66 0 32.69l-67.89 67.89c-8.24 8.25-21.61 8.25-29.85.01l-.52-.52c-9.03-9.02-9.03-23.66-.01-32.68l.01-.01 67.89-67.88a21 21 0 0 1 14.93-6.19m0-3c-6.4-.01-12.53 2.53-17.05 7.06L12.75 79.22c-10.2 10.2-10.2 26.73 0 36.93l.51.51c9.41 9.42 24.68 9.42 34.1 0l67.88-67.88c10.2-10.2 10.2-26.73 0-36.93l-.51-.51a24.05 24.05 0 0 0-17.04-7.07z" opacity=".2"/><linearGradient id="adb" x1="595.49" x2="595.79" y1="2071.6" y2="2283" gradientTransform="scale(1 -1) rotate(-45 -2378.95 1699.8)" gradientUnits="userSpaceOnUse"><stop offset="0" stop-color="#A1775D"/><stop offset=".11" stop-color="#B98865"/><stop offset=".22" stop-color="#CC956B"/><stop offset=".339" stop-color="#D79C6F"/><stop offset=".475" stop-color="#DB9F70"/><stop offset=".63" stop-color="#D89D6F"/><stop offset=".76" stop-color="#CE966C"/><stop offset=".87" stop-color="#BD8B66"/><stop offset=".98" stop-color="#A67B5F"/><stop offset="1" stop-color="#A1775D"/></linearGradient><path fill="url(#adb)" d="m114.74 11.34.52.52c10.2 10.2 10.2 26.73 0 36.93l-67.89 67.89c-9.42 9.42-24.68 9.42-34.1 0l-.52-.52c-10.2-10.19-10.21-26.72-.01-36.93l67.89-67.89c9.41-9.42 24.68-9.43 34.1-.01l.01.01z"/><circle cx="31.03" cy="87.97" r="2.65" fill="#825A41"/><circle cx="40.01" cy="96.97" r="2.65" fill="#825A41"/><circle cx="18.55" cy="100.45" r="2.65" fill="#825A41"/><circle cx="27.53" cy="109.45" r="2.65" fill="#825A41"/><circle cx="32.68" cy="77.15" r="2.65" fill="#825A41"/><circle cx="50.85" cy="95.32" r="2.65" fill="#825A41"/><circle cx="42.07" cy="86.54" r="2.65" fill="#825A41"/><circle cx="20.2" cy="89.63" r="2.65" fill="#825A41"/><circle cx="38.36" cy="107.8" r="2.65" fill="#825A41"/><circle cx="29.6" cy="99.03" r="2.65" fill="#825A41"/><circle cx="96.97" cy="40.02" r="2.65" fill="#825A41"/><circle cx="87.98" cy="31.02" r="2.65" fill="#825A41"/><circle cx="109.45" cy="27.54" r="2.65" fill="#825A41"/><circle cx="100.46" cy="18.54" r="2.65" fill="#825A41"/><circle cx="95.32" cy="50.85" r="2.65" fill="#825A41"/><circle cx="77.15" cy="32.68" r="2.65" fill="#825A41"/><circle cx="85.94" cy="41.46" r="2.65" fill="#825A41"/><circle cx="107.8" cy="38.37" r="2.65" fill="#825A41"/><circle cx="89.63" cy="20.2" r="2.65" fill="#825A41"/><circle cx="98.41" cy="28.97" r="2.65" fill="#825A41"/><path fill="#212121" d="M97.69 7.27c5.6-.01 10.98 2.21 14.93 6.18l.51.51c9.01 9.03 9.01 23.66 0 32.69l-67.89 67.89c-8.24 8.25-21.61 8.25-29.85.01l-.52-.52c-9.03-9.02-9.03-23.66-.01-32.68l.01-.01 67.89-67.88a21 21 0 0 1 14.93-6.19m0-3c-6.4-.01-12.53 2.53-17.05 7.06L12.75 79.22c-10.2 10.2-10.2 26.73 0 36.93l.51.51c9.41 9.42 24.68 9.42 34.1 0l67.88-67.88c10.2-10.2 10.2-26.73 0-36.93l-.51-.51a24.05 24.05 0 0 0-17.04-7.07z" opacity=".2"/><linearGradient id="adc" x1="64" x2="64" y1="40.918" y2="93.082" gradientUnits="userSpaceOnUse"><stop offset=".241" stop-color="#FFD0AB"/><stop offset=".291" stop-color="#FBCBA5"/><stop offset=".357" stop-color="#F1BD94"/><stop offset=".433" stop-color="#E0A678"/><stop offset=".452" stop-color="#DB9F70"/><stop offset=".493" stop-color="#BF8961"/><stop offset=".541" stop-color="#A47453"/><stop offset=".591" stop-color="#916649"/><stop offset=".642" stop-color="#865D43"/><stop offset=".697" stop-color="#825A41"/></linearGradient><path fill="url(#adc)" d="M81.72 64.98 64.98 81.72a3.21 3.21 0 0 1-4.55 0L46.28 67.57a3.21 3.21 0 0 1 0-4.55l16.74-16.74a3.21 3.21 0 0 1 4.55 0l14.16 14.16a3.208 3.208 0 0 1-.01 4.54zM39.19 68.4 59.6 88.81a4.327 4.327 0 0 0 6.12 0l23.09-23.09a4.327 4.327 0 0 0 0-6.12L68.4 39.19a4.327 4.327 0 0 0-6.12 0L39.19 62.28a4.327 4.327 0 0 0 0 6.12z"/></svg><svg style="enable-background:new 0 0 128 128" viewBox="0 0 128 128" xml:space="preserve" id="1FA7A" xmlns="http://www.w3.org/2000/svg"><path d="M60.55 98.3c-16.79 4.83-26.01-18.83-29.53-27.27C24 54.17 5.69 42.41 7.04 30s16.6-11.17 16.6-11.17" style="fill:none;stroke:#bdbdbd;stroke-width:6;stroke-linejoin:round;stroke-miterlimit:10"/><path d="M59.5 98.3c16.89-4.48 11.39-28.91 10.07-37.96-2.63-18.08 7.04-37.57-.49-47.52S49.1 11.76 49.1 11.76" style="fill:none;stroke:#bdbdbd;stroke-width:6;stroke-linejoin:round;stroke-miterlimit:10"/><circle cx="101.84" cy="32.23" r="15.25" style="fill:#878787"/><circle cx="102.38" cy="31.13" r="13.41" style="fill:#bdbdbd"/><path d="M69.39 58.93c-.89 6.74 10.14 31.36-6.97 38.1-19.16 7.56-26.31-20.55-31.39-26" style="fill:none;stroke:#03a9f4;stroke-width:8;stroke-miterlimit:10"/><path d="M32.63 73.54s10.77 11.36 23.4 6.15C68 74.75 69.86 61.64 69.86 61.64" style="fill:none;stroke:#03a9f4;stroke-width:5;stroke-miterlimit:10"/><path d="M100.96 21.43c-5.24 1.22-8.49 6.45-7.28 11.69.18.78.46 1.54.83 2.26l.68 1.34c-1.92 2.51-3.48 3.47-4.01 6.38 1.36 1.33 2.95 2.39 4.69 3.13 0-.01.01-.02.01-.03 0 .01.01.02.01.04 2.87 1.22 6.14 1.59 9.42.83.37-.09.72-.2 1.07-.31l-.31-2.8s.4-3.55.49-3.74c.23-.45 1.16-.69 1.64-.97 1.16-.7 2.17-1.65 2.95-2.76a9.802 9.802 0 0 0 1.5-7.78c-1.22-5.24-6.46-8.5-11.69-7.28z" style="opacity:.22;fill:#212121"/><path d="M60.42 96.03c9.59 21.97 24.29 25.08 35.15 23.19 9.54-1.67 22.17-10.22 22.14-25.72-.04-18.68-12.5-17.5-19.25-29.47-8.41-14.92 3.05-28.62 3.05-28.62" style="fill:none;stroke:#03a9f4;stroke-width:8;stroke-miterlimit:10"/><path d="M94.74 38.77s1.9-.97 3.72.07c2.88 1.64 3.16 3.98 3.16 3.98s1.74-3.46 2.67-4.4c.92-.95-5.57-5.66-7.04-3.85s-2.51 4.2-2.51 4.2z" style="opacity:.22;fill:#212121"/><path d="M27.83 14.04c-1.5.01-2.82.73-3.69 1.82l-1.24-.98c-1.13-.89-2.79-.08-2.78 1.36l.04 5.19c.01 1.44 1.68 2.23 2.79 1.32l1.21-.98c.88 1.09 2.22 1.8 3.73 1.79 2.63-.02 4.75-2.17 4.73-4.8s-2.16-4.74-4.79-4.72zm25.3-1.82-2.65-4.46c-.74-1.24-2.58-1.07-3.08.27l-.55 1.48c-1.31-.49-2.81-.42-4.1.35a4.76 4.76 0 0 0-1.66 6.53 4.76 4.76 0 0 0 6.53 1.66c1.3-.77 2.08-2.07 2.27-3.46l1.54.21c1.42.19 2.44-1.34 1.7-2.58z" style="fill:#616161"/><circle cx="104.19" cy="29.3" r="9.12" style="fill:#424242"/><circle cx="104.65" cy="28.59" r="7.08" style="fill:#d1d1d1"/><path d="M42.37 15.11c-.83-1.19-.67-3.41.76-4.42s3.59-.57 4.42.76c.93 1.48-1.5.15-2.93 1.16s-1.25 3.94-2.25 2.5zm-17.36 2.14c.36-1.41 2.13-2.74 3.83-2.32s2.78 2.33 2.32 3.83c-.51 1.67-1.1-1.04-2.8-1.45-1.69-.42-3.78 1.64-3.35-.06z" style="fill:#757575"/></svg></svg>