<?xml version="1.0" encoding="utf-8"?><svg viewBox="0 0 128 128" xmlns="http://www.w3.org/2000/svg" xmlns:xlink="http://www.w3.org/1999/xlink"><style>:root>svg{display:none}:root>svg:target{display:block}</style><svg viewBox="0 0 128 128" id="1F4B0" xmlns="http://www.w3.org/2000/svg"><linearGradient id="aaa" x1="63.888" x2="63.888" y1="123.97" y2="4.018" gradientUnits="userSpaceOnUse"><stop offset="0" stop-color="#FFB74D"/><stop offset="1" stop-color="#FFE0B2"/></linearGradient><path fill="url(#aaa)" d="M107.8 75.85c-1.58-2.84-3.49-5.53-5.48-8.11-2.92-3.8-6.04-7.45-8.71-11.42-2.67-3.96-4.69-8.13-8.1-11.6-3.07-3.22-6.95-5.39-11.04-6.33-1.54-.55-2.96-1.48-3.98-2.47H71v-3.99h-.76c.01-1 .12-1.32.35-1.89 1.55-4.45 2.97-8.86 4.52-13.31.36-1.08.71-2.09 1.43-2.93.83-1.08 2.14-1.83 3.09-2.91s1.31-2.9.12-3.86c-2.02-.36-4.16-.13-6.07.72.59-1.08-.12-2.53-1.19-3.13s-2.38-.6-3.57-.6c-2.86 0-5.83.12-8.68.12-1.31 0-2.86.12-3.69 1.08-.48.48-.59 1.08-1.07 1.56-1.31 1.44-3.57.96-5.47.6s-4.4-.12-5 1.8c-.12.72 0 1.32.12 2.04 1.55 6.25 4.37 13.22 8.17 18.38.61 1.01.66 1.32 1.03 2.32H54v3.54c0 .54-2.15 1.48-2.55 1.7-4.71 2.57-8.98 6.85-12.75 10.61a99.101 99.101 0 00-10.89 12.87C22.43 68.21 16.73 77.1 16.1 86.57c-.34 5.03.76 10.3 3.31 14.67 2.93 5.02 7.48 9.22 11.94 12.89 4.45 3.66 9.65 6.43 15.18 8.06.06.02.11.03.17.05 11.8 3.45 25.38 1.33 36.69-3.03 7.62-2.94 14.37-7.4 20.24-13.07 2.98-2.88 5.55-6.26 6.97-10.15 2.48-6.89.66-13.93-2.8-20.14z"/><path fill="#424242" d="M68.92 7.02c.62 0 1.36 0 1.82.12-.19.93.06 1.92.73 2.64.58.63 1.39.97 2.21.97.41 0 .82-.08 1.21-.26.37-.16.76-.29 1.15-.39-.61.5-1.27 1.08-1.84 1.81-1.01 1.22-1.5 2.53-1.93 3.83-.78 2.24-1.54 4.5-2.27 6.69-.72 2.15-1.47 4.38-2.23 6.56-.35.89-.52 1.57-.53 2.9-.01.75.26 1.48.76 2.03v.31a3.01 3.01 0 00.39 3.83c1.39 1.36 3.19 2.48 5.07 3.15.11.04.23.07.34.1 3.62.83 6.92 2.72 9.57 5.5 2.15 2.19 3.73 4.77 5.41 7.49.74 1.21 1.51 2.45 2.34 3.69 1.91 2.83 4.03 5.51 6.08 8.09.91 1.14 1.84 2.32 2.74 3.49 2.28 2.97 3.95 5.43 5.24 7.74 3.61 6.49 4.48 12.43 2.58 17.66-1.12 3.07-3.21 6.11-6.23 9.02-5.74 5.54-12.21 9.72-19.24 12.43-7.71 2.97-15.63 4.55-22.9 4.55-4.24 0-8.23-.54-11.86-1.6l-.16-.05c-5.1-1.5-9.99-4.09-14.13-7.5-3.99-3.28-8.45-7.29-11.25-12.08-2.18-3.74-3.21-8.34-2.9-12.96.56-8.42 5.7-16.7 11.16-24.4A97.61 97.61 0 0140.81 49.9l.08-.08c3.61-3.6 7.7-7.68 11.99-10.02.05-.03.13-.07.23-.11 1.73-.85 3.89-1.91 3.89-4.22V33.3c.38-.74.44-1.61.15-2.4-.06-.18-.12-.33-.17-.47-.28-.8-.49-1.34-1.12-2.37-.05-.08-.1-.15-.15-.22-3.23-4.38-6.01-10.65-7.65-17.21l-.01-.04c-.02-.11-.04-.21-.05-.3.14-.02.31-.04.52-.04.29 0 .61.03.92.09l.17.03c.98.19 2.09.4 3.25.4 2 0 3.61-.64 4.79-1.91.5-.52.79-1.05.98-1.4.03-.05.06-.11.09-.16.15-.05.54-.15 1.51-.15 1.46 0 2.96-.03 4.4-.06 1.43-.04 2.89-.07 4.29-.07m0-3c-2.86 0-5.83.12-8.68.12-1.31 0-2.86.12-3.69 1.08-.48.48-.59 1.08-1.07 1.56-.68.75-1.61.98-2.61.98-.94 0-1.94-.2-2.86-.38a7.88 7.88 0 00-1.47-.14c-1.54 0-3.07.49-3.52 1.94-.12.72 0 1.32.12 2.04 1.55 6.25 4.37 13.22 8.17 18.38.61 1.01.66 1.32 1.03 2.32H54v3.54c0 .54-2.15 1.48-2.55 1.7-4.71 2.57-8.98 6.85-12.75 10.61a99.101 99.101 0 00-10.89 12.87c-5.38 7.57-11.08 16.47-11.71 25.93-.34 5.03.76 10.3 3.31 14.67 2.93 5.02 7.48 9.22 11.94 12.89 4.45 3.66 9.65 6.43 15.18 8.06.06.02.11.03.17.05 4.08 1.19 8.37 1.72 12.71 1.72 8.21 0 16.58-1.89 23.98-4.75 7.62-2.94 14.37-7.4 20.24-13.07 2.98-2.88 5.55-6.26 6.97-10.15 2.51-6.9.68-13.94-2.78-20.15-1.58-2.84-3.49-5.53-5.48-8.11-2.92-3.8-6.04-7.45-8.71-11.42-2.67-3.96-4.69-8.13-8.1-11.6-3.07-3.22-6.95-5.39-11.04-6.33-1.54-.55-2.96-1.48-3.98-2.47H71v-3.99h-.76c.01-1 .12-1.32.35-1.89 1.55-4.45 2.97-8.86 4.52-13.31.36-1.08.71-2.09 1.43-2.93.83-1.08 2.14-1.83 3.09-2.91s1.31-2.9.12-3.86c-.61-.11-1.23-.16-1.86-.16-1.44 0-2.88.29-4.21.88.59-1.08-.12-2.53-1.19-3.13-1.07-.59-2.38-.59-3.57-.59z" opacity=".2"/><path fill="#212121" d="M65.17 35.14c-3.04-3.76-.85-4.21-1.94-7.55-.96-2.95-2.85-5.84-5.7-8.6-.07.31.36 1.62.4 1.93.72 3.03-.56 5.99.74 9.06 1.05 2.47 3.43 3.7 6.13 6.06.14-.3.65-.55.37-.9z" opacity=".2"/><path fill="#6D4C41" d="M71.26 36.7H53.57c-1.48 0-2.69-1.21-2.69-2.69s1.21-2.69 2.69-2.69h17.69c1.48 0 2.69 1.21 2.69 2.69s-1.21 2.69-2.69 2.69z"/><path fill="#424242" d="M71.26 32.32c.93 0 1.69.76 1.69 1.69s-.76 1.69-1.69 1.69H53.57c-.93 0-1.69-.76-1.69-1.69s.76-1.69 1.69-1.69h17.69m0-1H53.57c-1.48 0-2.69 1.21-2.69 2.69s1.21 2.69 2.69 2.69h17.69c1.48 0 2.69-1.21 2.69-2.69s-1.21-2.69-2.69-2.69z" opacity=".2"/><linearGradient id="aab" x1="62.417" x2="62.417" y1="112" y2="50" gradientUnits="userSpaceOnUse"><stop offset=".002" stop-color="#5D4037"/><stop offset="1" stop-color="#795548"/></linearGradient><path fill="url(#aab)" d="M77.39 92.77c0-2.28-.44-4.26-1.3-5.96-.87-1.7-2.22-3.18-4.06-4.46-1.66-1.15-3.91-2.22-6.74-3.2l.19-16.28c1.35.41 2.48 1.19 3.41 2.34 1.23 1.53 1.94 3.3 2.11 5.75.05.7.6 1.04 1.31 1.04h3.32c.74 0 1.35-.39 1.31-1.12-.19-3.77-.95-6.68-2.75-8.95C72.18 59.4 69 58 66 57.51v-5.59c0-.83-1.13-1.91-1.96-1.91h-1.81C61.41 50 61 51.09 61 51.91v4.1l-.15 1.46c-3.58.43-6.46 1.77-8.5 4.02-2.05 2.25-3.11 5.14-3.11 8.66 0 3.46 1.03 6.31 3.12 8.55 1.79 1.92 4.48 3.52 8.08 4.82l-.19 16.7c-1.87-.31-3.38-1.06-4.54-2.24-1.36-1.39-2.13-3.35-2.31-5.77-.05-.67-.63-1.22-1.3-1.22h-3.35c-.74 0-1.35.66-1.31 1.4.22 3.62 1.24 6.56 3.26 8.77 2.27 2.48 5.29 3.92 9.29 4.29v4.66c0 .83.86 1.89 1.69 1.89h1.78c.83 0 1.54-1.06 1.54-1.89v-4.65c3.92-.41 6.96-1.72 9.14-3.93 2.17-2.21 3.25-5.13 3.25-8.76zM57.31 75.29c-1.43-1.3-2.14-3.05-2.14-5.24 0-2.37.68-4.21 2.03-5.53.89-.87 2.05-1.45 3.47-1.75l-.17 14.55c-1.34-.64-2.41-1.32-3.19-2.03zm11.71 23.08c-1.06.89-2.39 1.49-3.98 1.79l.18-14.89c1.81.8 3.2 1.66 4.14 2.57 1.38 1.35 2.08 3.02 2.08 4.99-.01 2.34-.81 4.19-2.42 5.54z"/></svg><svg viewBox="0 0 128 128" style="enable-background:new 0 0 128 128" id="1F4B3" xmlns="http://www.w3.org/2000/svg"><linearGradient id="aba" x1="63.935" x2="63.935" y1="23.85" y2="100.183" gradientTransform="matrix(1 0 0 -1 0 128)" gradientUnits="userSpaceOnUse"><stop offset="0" style="stop-color:#ffca28"/><stop offset="1" style="stop-color:#ffe082"/></linearGradient><path style="fill:url(#aba)" d="M116.27 103.84H11.6c-4.2 0-7.63-3.43-7.63-7.63V35.57c0-4.2 3.43-7.63 7.63-7.63h104.67c4.2 0 7.63 3.43 7.63 7.63v60.64c.01 4.2-3.43 7.63-7.63 7.63z"/><path style="fill:#504f4f" d="M3.96 43.77h119.95v16.07H3.96z"/><path style="fill:#fff" d="M114.13 80.03H13.81c-.98 0-1.79-.8-1.79-1.79v-8.41c0-.98.8-1.79 1.79-1.79h100.32c.98 0 1.79.8 1.79 1.79v8.41c0 .98-.81 1.79-1.79 1.79z"/><path style="fill:none;stroke:#424242;stroke-width:2;stroke-linecap:round;stroke-linejoin:round;stroke-miterlimit:10" d="M26.25 72.01c-1.02.32-1.38 1.7-.93 2.67.46.96 1.48 1.54 2.49 1.86 2.14.66 4.54.42 6.5-.65 2.15-1.18 3.74-3.28 6.02-4.2 3.31-1.33 7.02.17 10.21 1.77s6.69 3.36 10.15 2.51c3.55-.87 6.47-4.4 10.09-3.82 2.13.34 3.74 2.04 5.63 3.09 3.98 2.22 8.95 1.41 13.27-.03 4.32-1.45 8.58-3.48 13.14-3.57"/></svg><svg viewBox="0 0 128 128" id="1F4B4" xmlns="http://www.w3.org/2000/svg"><path fill="#9E7E54" d="M119.53 108.05H8.22c-2.4 0-4.35-1.95-4.35-4.35V36.24c0-2.41 1.95-4.37 4.37-4.37h111.27c2.41 0 4.37 1.95 4.37 4.37v67.46c0 2.41-1.95 4.35-4.35 4.35z"/><path fill="#F4C77F" d="M119.65 95.88H8.1a4.22 4.22 0 01-4.22-4.22V36.24c0-2.41 1.95-4.37 4.37-4.37h111.27c2.41 0 4.37 1.95 4.37 4.37v55.41a4.24 4.24 0 01-4.24 4.23z"/><linearGradient id="aca" x1="63.875" x2="63.875" y1="94.375" y2="31.979" gradientUnits="userSpaceOnUse"><stop offset=".001" stop-color="#757575"/><stop offset=".999" stop-color="#BDBDBD"/></linearGradient><path fill="url(#aca)" d="M119.65 95.88H8.1a4.22 4.22 0 01-4.22-4.22V36.24c0-2.41 1.95-4.37 4.37-4.37h111.27c2.41 0 4.37 1.95 4.37 4.37v55.41a4.24 4.24 0 01-4.24 4.23z" opacity=".3"/><circle cx="84.65" cy="63.88" r="18.5" fill="#9E7E54" opacity=".5"/><path fill="#9E7E54" d="M106.33 39.06c.86 5.4 5.14 9.68 10.54 10.54v28.54c-5.4.86-9.68 5.14-10.54 10.54H21.3c-1.1-5.11-5.26-9.05-10.42-9.87V50.27c5.63-.89 10.03-5.49 10.63-11.21h84.82m1.84-2H19.56c.01.22.02.44.02.67 0 5.91-4.79 10.7-10.7 10.7v32.23c5.68 0 10.33 4.43 10.68 10.03h88.61c0-5.91 4.79-10.7 10.7-10.7V47.76c-5.91 0-10.7-4.79-10.7-10.7z"/><path fill="#FFECB3" d="M52.87 31.88h22.01v76.18H52.87z"/><path fill="#424242" d="M119.51 32.88c1.86 0 3.37 1.51 3.37 3.37v67.46c0 1.85-1.5 3.35-3.35 3.35H8.22a3.35 3.35 0 01-3.35-3.35V36.24c0-1.86 1.51-3.37 3.37-3.37h111.27m0-.99H8.24c-2.41 0-4.37 1.95-4.37 4.37v67.46c0 2.4 1.95 4.35 4.35 4.35h111.3c2.4 0 4.35-1.95 4.35-4.35V36.24c.01-2.41-1.95-4.36-4.36-4.36z" opacity=".2"/><path fill="#fff" d="M36.39 61.43l6.16-13.25c.17-.37.55-.61.96-.61h3.05c.48 0 .78.5.57.93l-7.3 14.31c-.21.41.09.89.55.89h4.13c.4 0 .72.32.72.72v1.36c0 .4-.32.72-.72.72h-5.92c-.34 0-.62.28-.62.62v2.45c0 .34.28.62.62.62h5.92c.4 0 .72.32.72.72v1.34c0 .4-.32.72-.72.72h-5.92c-.34 0-.62.28-.62.62v5.79c0 .44-.36.8-.8.8h-2.72c-.44 0-.8-.36-.8-.8v-5.79c0-.34-.28-.62-.62-.62h-5.79c-.4 0-.72-.32-.72-.72v-1.34c0-.4.32-.72.72-.72h5.79c.34 0 .62-.28.62-.62v-2.45c0-.34-.28-.62-.62-.62h-5.79c-.4 0-.72-.32-.72-.72v-1.36c0-.4.32-.72.72-.72h4.17c.46 0 .75-.48.55-.89l-7.3-14.31c-.22-.42.09-.93.57-.93h3.12c.41 0 .79.24.96.61l6.16 13.25c.19.39.74.39.92 0z"/><path fill="#FFB74D" d="M52.87 95.88h22.01v12.18H52.87z" opacity=".5"/></svg><svg viewBox="0 0 128 128" id="1F4B5" xmlns="http://www.w3.org/2000/svg"><path fill="#2E7D32" d="M119.53 108.05H8.22c-2.4 0-4.35-1.95-4.35-4.35V36.24c0-2.41 1.95-4.37 4.37-4.37h111.27c2.41 0 4.37 1.95 4.37 4.37v67.46c0 2.41-1.95 4.35-4.35 4.35z"/><linearGradient id="ada" x1="63.875" x2="63.875" y1="95.875" y2="32.179" gradientUnits="userSpaceOnUse"><stop offset="0" stop-color="#43A047"/><stop offset=".999" stop-color="#66BB6A"/></linearGradient><path fill="url(#ada)" d="M119.65 95.88H8.1a4.22 4.22 0 01-4.22-4.22V36.24c0-2.41 1.95-4.37 4.37-4.37h111.27c2.41 0 4.37 1.95 4.37 4.37v55.41a4.24 4.24 0 01-4.24 4.23z"/><g fill="#fff"><path d="M39.55 71.34c0-1.23-.43-2.27-1.29-3.11s-2.32-1.61-4.37-2.29c-2.85-.87-4.93-2-6.23-3.4-1.31-1.4-1.96-3.18-1.96-5.33 0-2.2.64-4 1.92-5.4 1.28-1.41 3.04-2.24 5.27-2.51v-3.47c0-.51.42-.93.93-.93h1.13c.51 0 .93.42.93.93v3.49c2.25.31 4 1.25 5.25 2.83 1.12 1.42 1.74 3.3 1.86 5.65.02.46-.36.84-.82.84H40.1c-.44 0-.78-.35-.82-.79-.11-1.53-.55-2.77-1.32-3.72-.9-1.11-2.11-1.67-3.63-1.67-1.59 0-2.81.41-3.65 1.24-.84.82-1.27 1.98-1.27 3.45 0 1.37.45 2.46 1.34 3.27s2.36 1.55 4.4 2.21 3.63 1.39 4.78 2.19c1.14.8 1.99 1.72 2.53 2.78s.81 2.3.81 3.72c0 2.26-.68 4.08-2.04 5.46s-3.26 2.2-5.71 2.45v2.9c0 .51-.42.93-.93.93h-1.11c-.51 0-.93-.42-.93-.93v-2.9c-2.49-.23-4.44-1.11-5.85-2.66-1.26-1.38-1.96-3.2-2.09-5.45-.03-.46.36-.84.82-.84h2.09c.42 0 .78.31.81.73.11 1.51.59 2.7 1.44 3.57.98 1 2.36 1.51 4.16 1.51 1.75 0 3.13-.42 4.14-1.27.98-.87 1.48-2.03 1.48-3.48z"/><path d="M35.52 80.06l-2.97-.85.34-29.83v-1l2.99.93-.36 29.87z"/></g><circle cx="84.65" cy="63.88" r="18.5" fill="#2E7D32" opacity=".5"/><path fill="#2E7D32" d="M106.33 39.06c.86 5.4 5.14 9.68 10.54 10.54v28.54c-5.4.86-9.68 5.14-10.54 10.54H21.3c-1.1-5.11-5.26-9.05-10.42-9.87V50.27c5.63-.89 10.03-5.49 10.63-11.21h84.82m1.84-2H19.56c.01.22.02.44.02.67 0 5.91-4.79 10.7-10.7 10.7v32.23c5.68 0 10.33 4.43 10.68 10.03h88.61c0-5.91 4.79-10.7 10.7-10.7V47.76c-5.91 0-10.7-4.79-10.7-10.7z"/><path fill="#FFECB3" d="M52.87 31.88h22.01v76.18H52.87z"/><path fill="#FFB74D" d="M52.87 95.88h22.01v12.18H52.87z" opacity=".5"/><path fill="#424242" d="M119.51 32.88c1.86 0 3.37 1.51 3.37 3.37v67.46c0 1.85-1.5 3.35-3.35 3.35H8.22a3.35 3.35 0 01-3.35-3.35V36.24c0-1.86 1.51-3.37 3.37-3.37h111.27m0-.99H8.24c-2.41 0-4.37 1.95-4.37 4.37v67.46c0 2.4 1.95 4.35 4.35 4.35h111.3c2.4 0 4.35-1.95 4.35-4.35V36.24c.01-2.41-1.95-4.36-4.36-4.36z" opacity=".2"/></svg><svg viewBox="0 0 128 128" id="1F4B6" xmlns="http://www.w3.org/2000/svg"><path fill="#1565C0" d="M119.53 108.05H8.22c-2.4 0-4.35-1.95-4.35-4.35V36.24c0-2.41 1.95-4.37 4.37-4.37h111.27c2.41 0 4.37 1.95 4.37 4.37v67.46c0 2.41-1.95 4.35-4.35 4.35z"/><linearGradient id="aea" x1="63.875" x2="63.875" y1="95.962" y2="31.723" gradientUnits="userSpaceOnUse"><stop offset="0" stop-color="#1E88E5"/><stop offset="1" stop-color="#42A5F5"/></linearGradient><path fill="url(#aea)" d="M119.65 95.88H8.1a4.22 4.22 0 01-4.22-4.22V36.24c0-2.41 1.95-4.37 4.37-4.37h111.27c2.41 0 4.37 1.95 4.37 4.37v55.41a4.24 4.24 0 01-4.24 4.23z"/><circle cx="84.65" cy="63.88" r="18.5" fill="#1565C0" opacity=".5"/><path fill="#1565C0" d="M106.33 39.06c.86 5.4 5.14 9.68 10.54 10.54v28.54c-5.4.86-9.68 5.14-10.54 10.54H21.3c-1.1-5.11-5.26-9.05-10.42-9.87V50.27c5.63-.89 10.03-5.49 10.63-11.21h84.82m1.84-2H19.56c.01.22.02.44.02.67 0 5.91-4.79 10.7-10.7 10.7v32.23c5.68 0 10.33 4.43 10.68 10.03h88.61c0-5.91 4.79-10.7 10.7-10.7V47.76c-5.91 0-10.7-4.79-10.7-10.7z"/><path fill="#FFECB3" d="M52.87 31.88h22.01v76.18H52.87z"/><path fill="#FFB74D" d="M52.87 95.88h22.01v12.18H52.87z" opacity=".5"/><path fill="#424242" d="M119.51 32.88c1.86 0 3.37 1.51 3.37 3.37v67.46c0 1.85-1.5 3.35-3.35 3.35H8.22a3.35 3.35 0 01-3.35-3.35V36.24c0-1.86 1.51-3.37 3.37-3.37h111.27m0-.99H8.24c-2.41 0-4.37 1.95-4.37 4.37v67.46c0 2.4 1.95 4.35 4.35 4.35h111.3c2.4 0 4.35-1.95 4.35-4.35V36.24c.01-2.41-1.95-4.36-4.36-4.36z" opacity=".2"/><path fill="#fff" d="M41.88 68.38h-7.99c-.27 0-.5.24-.49.51.13 2.81.87 5 2.2 6.56 1.42 1.65 3.42 2.47 6.02 2.47 1.45 0 2.83-.17 4.14-.51.54-.14 1.07.25 1.14.8l.23 1.85c.06.48-.25.94-.73 1.04-1.61.35-3.22.52-4.83.52-3.9 0-6.98-1.15-9.22-3.46-2.16-2.22-3.32-5.33-3.49-9.32a.476.476 0 00-.48-.46h-3.17a.58.58 0 01-.58-.58v-1.78c0-.32.26-.58.58-.58h3.15c.27 0 .48-.22.48-.48V62.7a.48.48 0 00-.48-.48h-3.15a.58.58 0 01-.58-.58v-1.8c0-.32.26-.58.58-.58h3.17c.25 0 .46-.2.47-.46.23-3.9 1.42-6.94 3.58-9.12 2.24-2.26 5.28-3.39 9.1-3.39 1.44 0 3.06.18 4.84.54.48.1.8.56.74 1.04l-.23 1.83c-.07.57-.62.97-1.17.82a16.79 16.79 0 00-4.14-.53c-2.58 0-4.57.8-5.96 2.4-1.31 1.51-2.05 3.62-2.21 6.34-.02.28.21.52.49.52h7.96c.32 0 .58.26.58.58v1.8c0 .32-.26.58-.58.58h-8.01a.48.48 0 00-.48.48v2.27c0 .27.22.48.48.48h8.01c.32 0 .58.26.58.58v1.78c.02.32-.23.58-.55.58z"/></svg><svg viewBox="0 0 128 128" id="1F4B7" xmlns="http://www.w3.org/2000/svg"><path fill="#4527A0" d="M119.53 108.05H8.22c-2.4 0-4.35-1.95-4.35-4.35V36.24c0-2.41 1.95-4.37 4.37-4.37h111.27c2.41 0 4.37 1.95 4.37 4.37v67.46c0 2.41-1.95 4.35-4.35 4.35z"/><linearGradient id="afa" x1="63.875" x2="63.875" y1="95.712" y2="31.911" gradientUnits="userSpaceOnUse"><stop offset="0" stop-color="#6944B8"/><stop offset="1" stop-color="#7E57C2"/></linearGradient><path fill="url(#afa)" d="M119.65 95.88H8.1a4.22 4.22 0 01-4.22-4.22V36.24c0-2.41 1.95-4.37 4.37-4.37h111.27c2.41 0 4.37 1.95 4.37 4.37v55.41a4.24 4.24 0 01-4.24 4.23z"/><path fill="#4527A0" d="M106.33 39.06c.86 5.4 5.14 9.68 10.54 10.54v28.54c-5.4.86-9.68 5.14-10.54 10.54H21.3c-1.1-5.11-5.26-9.05-10.42-9.87V50.27c5.63-.89 10.03-5.49 10.63-11.21h84.82m1.84-2H19.56c.01.22.02.44.02.67 0 5.91-4.79 10.7-10.7 10.7v32.23c5.68 0 10.33 4.43 10.68 10.03h88.61c0-5.91 4.79-10.7 10.7-10.7V47.76c-5.91 0-10.7-4.79-10.7-10.7z"/><circle cx="84.65" cy="63.88" r="18.5" fill="#4527A0" opacity=".5"/><path fill="#FFECB3" d="M52.87 31.88h22.01v76.18H52.87z"/><path fill="#FFB74D" d="M52.87 95.88h22.01v12.18H52.87z" opacity=".5"/><path fill="#424242" d="M119.51 32.88c1.86 0 3.37 1.51 3.37 3.37v67.46c0 1.85-1.5 3.35-3.35 3.35H8.22a3.35 3.35 0 01-3.35-3.35V36.24c0-1.86 1.51-3.37 3.37-3.37h111.27m0-.99H8.24c-2.41 0-4.37 1.95-4.37 4.37v67.46c0 2.4 1.95 4.35 4.35 4.35h111.3c2.4 0 4.35-1.95 4.35-4.35V36.24c.01-2.41-1.95-4.36-4.36-4.36z" opacity=".2"/><path fill="#fff" d="M32.15 66.3c-.47 0-.85.39-.83.86l.17 4.68c0 1.96-.3 3.62-.9 4.97-.25.56.13 1.2.75 1.2h16.21c.46 0 .83.38.83.84l-.01 2.29c0 .46-.37.83-.83.83H23.21c-.46 0-.83-.37-.83-.83v-2.29c0-.46.37-.83.83-.83h.96c.09 0 .19-.01.28-.04.61-.2 1.11-.81 1.5-1.84.42-1.1.65-2.45.68-4.07v-.2l-.17-4.76a.828.828 0 00-.83-.8h-2.52c-.46 0-.83-.37-.83-.83v-2.29c0-.46.37-.83.83-.83h2.34c.47 0 .85-.39.83-.86l-.2-5.69c0-3.34 1.03-6.01 3.08-8.01 2.06-2 4.76-3 8.12-3 3.19 0 5.72.89 7.58 2.67 1.68 1.6 2.6 3.69 2.77 6.26.03.47-.36.86-.83.86h-3.12c-.43 0-.82-.32-.86-.75-.13-1.45-.65-2.63-1.57-3.52-1.07-1.04-2.53-1.57-4.39-1.57-1.76 0-3.19.65-4.28 1.94-1.09 1.3-1.64 2.99-1.64 5.1l.2 5.76c.02.45.38.8.83.8h6.4c.46 0 .83.37.83.83v2.29c0 .46-.37.83-.83.83h-6.22z"/></svg><svg viewBox="0 0 128 128" id="1F4B8" xmlns="http://www.w3.org/2000/svg"><path fill="#CFD8DC" d="M12.7 31.78c-2.69-.28-7.75-2.06-8.69 1.89-.64 3.5 5 7.67 8.82 8.09-1.92.78-3.01 3.65-2.07 5.73 1.99 4.7 8.4 5.45 12.49 3.88-3.17 3.43.64 8.04 4.26 9.02s8.32-2.17 10.65-4.48c0 0 7.33-7.41.81-9.57-11.2-3.71-13.53-16.01-19.19-23.18-2.22-2.84-9.14-7.17-12.54-3.05-2.93 3.89 2.96 9.2 5.46 11.67z"/><path fill="#424242" d="M10.96 20.4c2.56 0 5.94 2.32 7.25 3.98 1.64 2.08 3.01 4.68 4.47 7.44 3.36 6.37 7.17 13.59 15.66 16.4.77.26 1.21.57 1.3.95.3 1.24-1.49 3.89-2.89 5.31-2.04 2.03-5.37 4.09-7.79 4.09-.33 0-.64-.04-.92-.11-1.7-.46-3.43-2.05-3.86-3.55-.24-.83-.06-1.52.55-2.19.63-.68.71-1.71.18-2.48a2.01 2.01 0 00-2.38-.75c-1.02.39-2.26.61-3.49.61-1.17 0-5.11-.25-6.44-3.4-.01-.02-.01-.03-.02-.05-.23-.52-.22-1.25.04-1.91.22-.55.59-.99.96-1.14a2.01 2.01 0 001.23-2.13c-.13-.91-.85-1.61-1.77-1.71-2.06-.22-4.97-1.97-6.35-3.82-.53-.72-.8-1.4-.73-1.88.11-.47.29-.93 1.8-.93.92 0 2.01.19 2.97.36.62.11 1.21.21 1.76.27.07.01.14.01.21.01.77 0 1.47-.44 1.81-1.15.36-.77.2-1.68-.4-2.28l-.49-.48c-2.09-2.04-6.43-6.27-4.8-8.53.54-.63 1.22-.93 2.14-.93m0-2c-1.4 0-2.71.48-3.72 1.7-2.93 3.9 2.95 9.2 5.46 11.67-1.33-.14-3.23-.64-4.94-.64-1.75 0-3.28.53-3.76 2.53-.64 3.5 5 7.67 8.82 8.09-1.92.78-3.01 3.65-2.07 5.73 1.38 3.26 4.9 4.62 8.29 4.62 1.49 0 2.95-.26 4.2-.74-3.17 3.43.64 8.04 4.26 9.02.47.13.95.18 1.45.18 3.35 0 7.17-2.65 9.2-4.67 0 0 7.33-7.41.81-9.57-11.2-3.71-13.53-16.01-19.19-23.18-1.56-1.99-5.46-4.74-8.81-4.74z" opacity=".2"/><linearGradient id="aga" x1="41.675" x2="41.675" y1="37.183" y2="37.183" gradientTransform="rotate(24.405 100.691 63.238)" gradientUnits="userSpaceOnUse"><stop offset="0" stop-color="#43A047"/><stop offset=".999" stop-color="#66BB6A"/></linearGradient><path fill="url(#aga)" d="M57.68 15.11l.07.03"/><linearGradient id="agb" x1="56.665" x2="56.665" y1="125.3" y2="37.567" gradientTransform="rotate(24.405 100.691 63.238)" gradientUnits="userSpaceOnUse"><stop offset="0" stop-color="#43A047"/><stop offset=".999" stop-color="#66BB6A"/></linearGradient><path fill="url(#agb)" d="M70.82 75.78C81.5 62.35 94.03 49.94 92.9 31.05l-.08-.04-40.32-18.3c-1.17-.53-2.52.31-2.53 1.6-.07 12.82-6.82 22.98-14.42 32.54C25.09 60 12.9 72.31 13.46 90.55c-.04.71.35 1.41 1.04 1.73h.01a170853.99 170853.99 0 0041.9 19.01l.01.01c-.88-14.41 6.25-25.27 14.4-35.52z"/><path fill="#2E7D32" d="M63.3 23.2l19.09 8.66a9.358 9.358 0 004.02 10.36c-2.95 9.85-9.75 18.17-16.33 26.22l-.07.08c-1.27 1.56-2.59 3.17-3.86 4.77-5.27 6.62-10.47 13.91-13.07 22.42-.59-.12-1.18-.17-1.79-.17-3.16 0-6.08 1.6-7.79 4.19l-19.09-8.66c.67-2.44.32-5.07-1.01-7.28-.06-.09-.12-.19-.18-.28l-.05-.08-.21-.3c-.08-.11-.17-.22-.25-.33-.08-.1-.17-.21-.29-.34-.08-.09-.15-.18-.23-.26-.15-.16-.31-.31-.47-.46-.08-.07-.16-.14-.28-.24-.14-.12-.28-.23-.42-.34-.09-.07-.18-.13-.28-.2-.14-.1-.29-.2-.48-.31-.08-.05-.16-.1-.24-.14-.01-.01-.03-.01-.04-.02 2.96-9.82 9.74-18.12 16.31-26.16l.07-.08c1.27-1.56 2.59-3.17 3.86-4.77 5.24-6.59 10.42-13.84 13.03-22.35.74.19 1.5.28 2.27.28 3.16-.04 6.08-1.64 7.78-4.21m-.62-1.9a7.843 7.843 0 01-7.15 4.61c-.92 0-1.86-.16-2.77-.51v.01c-.16-.06-.32-.12-.48-.19l-.01.02c-2.33 8.73-7.51 16.17-13.19 23.3-1.29 1.62-2.6 3.23-3.92 4.83-7.05 8.62-14.08 17.25-16.91 27.82l-.03.05c.01 0 .01 0 .02.01.14.06.29.12.44.18.03.01.05.03.08.04.19.09.37.18.55.28.08.04.15.09.23.14.13.08.25.16.37.24.08.05.16.11.23.17.12.09.24.19.36.29.08.07.16.13.24.2.14.13.27.26.4.39.08.08.15.16.22.25s.15.17.22.26.14.19.21.28l.18.27c.06.1.13.19.19.29a7.836 7.836 0 01.43 7.3l21.56 9.78A7.858 7.858 0 0151.31 97c.93 0 1.87.17 2.79.51l.03-.04v-.01c2.34-8.71 7.52-16.13 13.19-23.26 1.29-1.62 2.6-3.23 3.92-4.83 7.05-8.62 14.08-17.25 16.91-27.82.01-.02.01-.04.02-.06-3.95-1.79-5.7-6.45-3.91-10.4L62.68 21.3z"/><g fill="#fff"><path d="M46.01 77.77c-.82-.37-1.65-.4-2.48-.08s-1.78 1.06-2.86 2.23c-1.45 1.64-2.84 2.69-4.17 3.14s-2.72.35-4.16-.31c-1.47-.67-2.48-1.64-3.03-2.92s-.58-2.71-.08-4.29l-2.32-1.05a.688.688 0 01-.34-.91l.34-.76c.16-.34.56-.5.91-.34l2.33 1.06c.89-1.41 2.05-2.3 3.49-2.65 1.29-.32 2.73-.16 4.34.47.31.12.45.49.31.8l-.63 1.38a.61.61 0 01-.77.31c-1.06-.39-2.02-.47-2.89-.25-1.02.26-1.76.9-2.22 1.92-.48 1.07-.58 2.01-.28 2.82s.94 1.45 1.92 1.89c.92.42 1.78.45 2.59.1s1.75-1.11 2.82-2.27c1.06-1.16 2.04-2.01 2.92-2.53s1.76-.81 2.63-.85 1.78.15 2.73.58c1.51.69 2.53 1.69 3.04 3.02s.48 2.85-.1 4.57l1.94.88c.34.16.5.56.34.91l-.34.74c-.16.34-.56.5-.91.34l-1.94-.88c-.91 1.6-2.09 2.63-3.56 3.11-1.3.42-2.73.34-4.28-.25-.32-.12-.45-.49-.32-.8l.63-1.4c.13-.28.45-.43.73-.32 1.04.38 1.99.42 2.82.12.97-.35 1.72-1.12 2.27-2.32.53-1.17.67-2.22.41-3.15-.24-.93-.86-1.62-1.83-2.06z"/><path d="M50.61 83.11l-1.47 1.74-19.85-9.28-.67-.31 1.53-1.72 19.88 9.31z"/></g><circle cx="61.79" cy="48.55" r="13.59" fill="#2E7D32" opacity=".5"/><path fill="#2E7D32" d="M35.54 46.86c4.28-5.38 8.29-10.95 10.99-17.07-2.7 6.11-6.7 11.66-10.97 17.04-6.68 8.4-14.07 16.46-18.4 25.93 4.32-9.47 11.71-17.51 18.38-25.9zM92.76 31.02L56.21 14.44l36.46 16.54zM77.28 78.63C87.72 65.5 99.9 53.42 99.39 35.24c.04-.71-.35-1.41-1.04-1.72-.01 0-.02 0-.02-.01l-5.42-2.46c1.13 18.88-11.4 31.3-22.08 44.73-8.15 10.24-15.28 21.11-14.42 35.52 1.51.68 2.82 1.28 3.85 1.75 1.17.53 2.52-.3 2.53-1.59.13-13.06 6.87-23.25 14.49-32.83z"/><path fill="#FFECB3" d="M36.88 45.16c-.46.6-.9 1.15-1.36 1.73-3 3.77-6.26 7.72-9.1 11.28l42.93 19.48c.48-.62.97-1.25 1.47-1.87 2.97-3.73 6.08-7.39 9-11.13L36.88 45.16z"/><path fill="#FFECB3" d="M79.84 64.64c-2.93 3.74-6.04 7.4-9.01 11.14-.49.62-.98 1.24-1.46 1.87l4.93 4.85c.97-1.3 1.97-2.59 2.99-3.87 2.45-3.08 5-6.11 7.46-9.17l-4.91-4.82z"/><path fill="#FFB74D" d="M79.84 64.64c-2.93 3.74-6.04 7.4-9.01 11.14-.49.62-.98 1.24-1.46 1.87l4.93 4.85c.97-1.3 1.97-2.59 2.99-3.87 2.45-3.08 5-6.11 7.46-9.17l-4.91-4.82z" opacity=".5"/><path fill="#424242" d="M51.96 14.67l40.06 18.18h.01c.01.01.03.01.04.02l5.31 2.41v.01c.43 15.1-8.33 25.76-17.59 37.05-1.35 1.64-2.74 3.34-4.09 5.03-7.09 8.91-14.65 19.58-14.92 33.71l-3.57-1.62-1.46-.66-1.1-.5-39.2-17.78v-.02c-.47-15.28 8.4-26.13 17.79-37.62 1.27-1.56 2.59-3.17 3.87-4.77 7.08-8.92 14.65-19.58 14.85-33.44m-.21-2.11c-.94 0-1.78.74-1.79 1.76-.07 12.82-6.82 22.98-14.42 32.54-10.46 13.15-22.65 25.46-22.09 43.7-.04.71.35 1.41 1.04 1.73h.01a170853.99 170853.99 0 0041.9 19.01l.01.01c1.51.68 2.82 1.28 3.85 1.75.24.11.5.16.74.16.93 0 1.78-.73 1.79-1.75.14-13.06 6.87-23.25 14.49-32.83C87.72 65.5 99.9 53.42 99.39 35.24c.04-.71-.35-1.41-1.04-1.72-.01 0-.02 0-.02-.01l-5.42-2.46-.08-.04-40.32-18.3c-.26-.1-.51-.15-.76-.15z" opacity=".2"/><path fill="#CFD8DC" d="M123.92 74.09c.87-5.28-6.95-7.63-10.55-7.43-9.12.47-19.91 6.81-30.08.83-5.92-3.48-6.67 6.91-6.67 6.91-.21 3.28.51 8.89 3.64 10.97 3.12 2.08 9.1 1.9 9.59-2.74 1.51 4.11 6.3 8.44 11.15 6.84 2.18-.66 3.62-3.37 2.94-5.33 2.83 2.61 9.69 4.1 11.9 1.31 2.35-3.3-2.32-5.94-4.3-7.78 3.51.26 11.38 1.19 12.38-3.58z"/><path fill="#424242" d="M113.81 68.65c2.42 0 5.97 1.1 7.48 2.89.58.68.79 1.37.67 2.18-.34 1.46-2.31 2.2-5.86 2.2-1.34 0-2.66-.11-3.72-.19l-.68-.05c-.05 0-.1-.01-.15-.01-.79 0-1.51.47-1.83 1.2-.34.78-.15 1.69.47 2.27.4.37.87.75 1.36 1.14 2.95 2.37 3.24 3.16 2.71 3.97-.38.44-1.29.7-2.44.7-2.26 0-5.12-1-6.51-2.28-.38-.35-.87-.53-1.35-.53a2.012 2.012 0 00-1.89 2.66c.13.38.04.94-.23 1.47-.32.63-.86 1.12-1.4 1.29-.02 0-.03.01-.05.02-.48.16-.98.24-1.48.24-3.09 0-6.13-3.05-7.16-5.87a2.008 2.008 0 00-1.88-1.31c-.08 0-.16 0-.25.02-.92.11-1.64.85-1.74 1.77-.2 1.84-1.84 2.22-3.17 2.22-1.2 0-2.44-.35-3.32-.94-2.08-1.38-2.97-5.76-2.75-9.15.18-2.41 1.19-5.77 2.43-5.77.22 0 .61.08 1.23.44 3.24 1.91 6.77 2.83 10.8 2.83 4.09 0 8.04-.94 11.86-1.85 3.03-.72 5.9-1.4 8.55-1.54.08-.02.18-.02.3-.02m0-2c-.15 0-.29 0-.43.01-6.23.32-13.24 3.38-20.3 3.38-3.27 0-6.56-.66-9.78-2.56-.85-.5-1.59-.71-2.24-.71-3.88 0-4.43 7.63-4.43 7.63-.21 3.28.51 8.89 3.64 10.97 1.21.8 2.85 1.27 4.43 1.27 2.5 0 4.86-1.17 5.16-4.01 1.29 3.51 4.98 7.18 9.04 7.18.69 0 1.4-.11 2.11-.34 2.18-.66 3.62-3.37 2.94-5.33 1.76 1.62 5.08 2.81 7.86 2.81 1.7 0 3.2-.44 4.03-1.5 2.35-3.3-2.32-5.94-4.3-7.78 1.17.09 2.82.25 4.55.25 3.44 0 7.16-.65 7.83-3.83.84-5.08-6.36-7.44-10.11-7.44z" opacity=".2"/></svg><svg viewBox="0 0 128 128" id="1F4B9" xmlns="http://www.w3.org/2000/svg"><linearGradient id="aha" x1="64" x2="64" y1="4.25" y2="124.41" gradientUnits="userSpaceOnUse"><stop offset="0" stop-color="#81C784"/><stop offset=".414" stop-color="#6EBE71"/><stop offset="1" stop-color="#4CAF50"/></linearGradient><path fill="url(#aha)" d="M116 124H12c-4.42 0-8-3.58-8-8V12c0-4.42 3.58-8 8-8h104c4.42 0 8 3.58 8 8v104c0 4.42-3.58 8-8 8z"/><path fill="#424242" d="M116 7c2.76 0 5 2.24 5 5v104c0 2.76-2.24 5-5 5H12c-2.76 0-5-2.24-5-5V12c0-2.76 2.24-5 5-5h104m0-3H12c-4.42 0-8 3.58-8 8v104c0 4.42 3.58 8 8 8h104c4.42 0 8-3.58 8-8V12c0-4.42-3.58-8-8-8z" opacity=".2"/><path fill="none" stroke="#EFEBE9" stroke-linecap="round" stroke-linejoin="round" stroke-miterlimit="10" stroke-width="5" d="M14.15 110.88L26.1 96.12l12.02 8.38 7.9-16.5 12-8 12.08 20 10-28 11.75 18 14.09-25.92 7.91-40.16"/><path fill="#EFEBE9" d="M40.85 39.39l10.33-22.23c.29-.63.92-1.03 1.62-1.03h5.12c.8 0 1.32.84.95 1.55L46.63 41.69c-.35.68.15 1.49.92 1.49h6.93c.66 0 1.2.54 1.2 1.2v2.29c0 .66-.54 1.2-1.2 1.2h-9.93c-.58 0-1.04.47-1.04 1.04v4.12c0 .58.47 1.04 1.04 1.04h9.93c.66 0 1.2.54 1.2 1.2v2.25c0 .66-.54 1.2-1.2 1.2h-9.93c-.58 0-1.04.47-1.04 1.04v9.72c0 .74-.6 1.34-1.34 1.34H37.6c-.74 0-1.34-.6-1.34-1.34v-9.72c0-.58-.47-1.04-1.04-1.04H25.5c-.66 0-1.2-.54-1.2-1.2v-2.25c0-.66.54-1.2 1.2-1.2h9.71c.58 0 1.04-.47 1.04-1.04v-4.12c0-.58-.47-1.04-1.04-1.04H25.5c-.66 0-1.2-.54-1.2-1.2v-2.29c0-.66.54-1.2 1.2-1.2h7c.77 0 1.26-.81.92-1.49L21.18 17.68c-.36-.71.15-1.55.95-1.55h5.24c.69 0 1.32.4 1.62 1.03l10.33 22.23c.29.65 1.22.65 1.53 0z"/></svg><svg viewBox="0 0 128 128" id="1F9FE" xmlns="http://www.w3.org/2000/svg"><linearGradient id="aia" x1="55.628" x2="55.628" y1="9.007" y2="122.6" gradientTransform="rotate(180 64.005 64)" gradientUnits="userSpaceOnUse"><stop offset="0" stop-color="#D1D1D1"/><stop offset=".068" stop-color="#DADADA"/><stop offset=".214" stop-color="#E5E5E5"/><stop offset=".421" stop-color="#ECECEC"/><stop offset=".995" stop-color="#eee"/></linearGradient><path fill="url(#aia)" d="M106.76 8.14L102.71 4l-4.05 4.14L94.62 4l-4.05 4.14L86.53 4l-4.05 4.14L78.43 4l-4.05 4.14L70.34 4l-4.05 4.14L62.24 4 58.2 8.14 54.15 4 50.1 8.14 46.05 4 42 8.14 37.96 4l-4.05 4.14-4.05-3.11.11 118.85 72.66.12c13.96 0 11.99-30.34 12.26-35.18L114.91 4l-8.15 4.14z"/><path fill="#424242" d="M78.43 8.29l1.9 1.95c.56.58 1.34.9 2.15.9s1.58-.33 2.15-.9l1.9-1.95 1.9 1.95c.56.58 1.34.9 2.15.9s1.58-.33 2.15-.9l1.9-1.95 1.9 1.95c.56.58 1.34.9 2.15.9s1.58-.33 2.15-.9l1.9-1.95 1.9 1.95a2.997 2.997 0 003.51.57l3.79-1.93-.01 79.85c-.03.67-.03 1.61-.03 2.89 0 4.28.01 12.26-1.45 18.91-1.52 6.94-4.14 10.46-7.78 10.46l-69.67-.11-.1-109.93c.34.12.69.19 1.04.19.78 0 1.56-.31 2.15-.9l1.9-1.95 1.9 1.95c.56.58 1.34.9 2.15.9s1.58-.33 2.15-.9l1.9-1.95 1.9 1.95c.56.58 1.34.9 2.15.9s1.58-.33 2.15-.9l1.9-1.95 1.9 1.95c.56.58 1.34.9 2.15.9s1.58-.33 2.15-.9l1.9-1.95 1.9 1.95c.56.58 1.34.9 2.15.9s1.58-.33 2.15-.9l1.9-1.95 1.9 1.95c.56.58 1.34.9 2.15.9s1.58-.33 2.15-.9l1.85-1.95M114.91 4zm0 0l-8.15 4.14L102.71 4l-4.05 4.14L94.62 4l-4.05 4.14L86.53 4l-4.05 4.14L78.43 4l-4.05 4.14L70.34 4l-4.05 4.14L62.24 4 58.2 8.14 54.15 4 50.1 8.14 46.05 4 42 8.14 37.96 4l-4.05 4.14-4.05-3.11.11 118.85 72.66.12c13.96 0 11.99-30.34 12.26-35.18L114.91 4z" opacity=".2"/><path fill="none" stroke="#8C8C8C" stroke-miterlimit="10" stroke-width="2.126" d="M102.97 23.98H37.93"/><g fill="#757575"><path d="M83.71 37.68h6.64v2.33h-6.64zM65.13 37.68h16.11v2.33H65.13zM92.83 37.68h10.14v2.33H92.83z"/></g><path fill="#757575" d="M37.93 37.68h11.7v2.33h-11.7z"/><g fill="#757575"><path d="M97.9 45.51h5.07v2.13H97.9zM65.13 45.51H89v2.13H65.13z"/></g><path fill="#757575" d="M37.93 45.51h7.43v2.13h-7.43z"/><g fill="#757575"><path d="M65.26 52.3h26.79v2.51H65.26zM95.54 52.3h7.43v2.51h-7.43z"/></g><path fill="#757575" d="M37.93 53.11h12.72v1.64H37.93z"/><g fill="#757575"><path d="M65.13 59.96h38.19v2.28H65.13zM37.93 59.96h7.43v2.28h-7.43z"/></g><g fill="#757575"><path d="M90.81 67.96h12.16v2.27H90.81zM78.98 67.96h4.49v2.27h-4.49zM65.13 67.96h6.88v2.27h-6.88z"/></g><path fill="#757575" d="M37.93 67.96h11.36v2.27H37.93z"/><g fill="#757575"><path d="M98.35 76.12h4.62v2.09h-4.62zM90.07 76.12h5.8v2.09h-5.8zM65.13 76.12h17.61v2.09H65.13z"/></g><path fill="#757575" d="M37.93 76.12h8.98v2.09h-8.98z"/><g fill="#757575"><path d="M65.13 84.09h10.19v2.54H65.13zM81.99 84.09H89v2.54h-7.01zM95.67 84.09h7.3v2.54h-7.3z"/></g><path fill="#757575" d="M37.93 84.09h7.43v2.54h-7.43z"/><path fill="#9EACB4" d="M83.66 104.48v-4.03c0-1.89.31-3.71.85-5.44H13.94c-.54 1.73-.85 3.55-.85 5.44v4.03c0 10.7 9.36 19.45 20.8 19.45h66.2c.74 0 1.47-.04 2.18-.11-10.42-1.03-18.61-9.34-18.61-19.34z"/><path fill="#424242" d="M80.8 98c-.1.81-.15 1.63-.15 2.44v4.03c0 6.47 2.89 12.34 7.58 16.45H33.89c-9.82 0-17.8-7.38-17.8-16.45v-4.03c0-.81.07-1.63.21-2.44h64.5m3.71-3zm0 0H13.94c-.54 1.73-.85 3.55-.85 5.44v4.03c0 10.7 9.36 19.45 20.8 19.45h66.2c.74 0 1.47-.04 2.18-.11-10.42-1.03-18.62-9.33-18.62-19.34v-4.03c.01-1.88.31-3.7.86-5.44z" opacity=".2"/><path fill="#424242" d="M133.5 165.5c1.93 0 1.93-3 0-3s-1.93 3 0 3z"/></svg><svg viewBox="0 0 128 128" style="enable-background:new 0 0 128 128" id="1FA99" xmlns="http://www.w3.org/2000/svg"><circle style="fill:#d68f30" cx="64" cy="66.58" r="57.36"/><path style="fill:#bc6f00" d="M10.54 81.48v5.86c.6 1.55 1.27 3.08 2 4.56V81.48h-2zM17.08 92.51v7.04c.8 1.13 1.63 2.24 2.5 3.31V92.51h-2.5zM25.74 101.71v7.59c.97.87 1.97 1.7 3 2.5v-10.09h-3zM36.4 108.7v8.16c.98.54 1.98 1.05 3 1.54v-9.7h-3zM48.49 113.15v8.64c.99.28 1.99.53 3 .76v-9.4h-3zM62.64 114.69v9.21c.45.01.9.03 1.36.03.55 0 1.1-.03 1.64-.04v-9.2h-3zM76.79 113.08v9.4c1.01-.23 2.01-.49 3-.77v-8.63h-3zM88.85 108.57v9.71c1.02-.49 2.02-1.02 3-1.57v-8.14h-3zM99.48 101.52v10.1a55.52 55.52 0 003-2.52v-7.58h-3zM111.09 92.29h-2.5v10.35c.87-1.08 1.71-2.19 2.5-3.33v-7.02zM117.59 81.22h-2v10.44c.73-1.51 1.4-3.06 2-4.63v-5.81z"/><circle style="fill:#fff176" cx="64" cy="61.42" r="57.36"/><circle style="fill:#f2bc1a" cx="64" cy="61.42" r="52.25"/><path style="fill:#e08f00" d="M11.65 63.42c-.37-6.88.82-13.86 3.22-20.4 2.5-6.52 6.33-12.55 11.16-17.67C35.73 15.09 49.81 9.14 64 9.07c14.19.08 28.28 6.02 37.96 16.29 4.84 5.11 8.66 11.15 11.16 17.66 2.41 6.55 3.6 13.52 3.22 20.4h-.2a52.756 52.756 0 00-4-20 52.834 52.834 0 00-11.29-16.97 52.255 52.255 0 00-16.9-11.38 51.805 51.805 0 00-39.92 0 52.255 52.255 0 00-16.9 11.38 52.671 52.671 0 00-11.29 16.97 52.756 52.756 0 00-4 20h-.19z"/><path style="fill:#fff176" d="M64 4.07c-31.68 0-57.36 25.68-57.36 57.36S32.32 118.79 64 118.79s57.36-25.68 57.36-57.36S95.68 4.07 64 4.07zm0 109.61c-28.86 0-52.25-23.39-52.25-52.25C11.75 32.56 35.14 9.17 64 9.17s52.25 23.39 52.25 52.25S92.86 113.68 64 113.68z"/><path style="fill:#d38200" d="M37.99 21.35l1.27 3.93 4.14-1.58v1.58l-3.35 2.43 1.28 2.34v1.59l-3.34-2.43-3.35 2.43v-1.59l1.28-2.34-3.34-2.43V23.7l4.13 1.58zM22.01 43.91l1.28 3.93 4.13-1.58v1.58l-3.34 2.43 1.28 2.35v1.58l-3.35-2.43-3.34 2.43v-1.58l1.28-2.35-3.35-2.43v-1.58l4.14 1.58zM21.54 71.72l1.28 3.93 4.13-1.58v1.58l-3.34 2.43 1.28 2.35v1.58l-3.35-2.43-3.34 2.43v-1.58l1.28-2.35-3.35-2.43v-1.58l4.14 1.58zM38.6 93.8l1.28 3.93 4.13-1.58v1.58l-3.34 2.43 1.28 2.34v1.59l-3.35-2.43-3.34 2.43v-1.59l1.28-2.34-3.35-2.43v-1.58l4.14 1.58zM90.01 21.35l-1.27 3.93-4.14-1.58v1.58l3.35 2.43-1.28 2.34v1.59l3.34-2.43 3.35 2.43v-1.59l-1.28-2.34 3.34-2.43V23.7l-4.13 1.58zM105.99 43.91l-1.28 3.93-4.13-1.58v1.58l3.34 2.43-1.28 2.35v1.58l3.35-2.43 3.34 2.43v-1.58l-1.28-2.35 3.35-2.43v-1.58l-4.14 1.58zM106.46 71.72l-1.28 3.93-4.13-1.58v1.58l3.34 2.43-1.28 2.35v1.58l3.35-2.43 3.34 2.43v-1.58l-1.28-2.35 3.35-2.43v-1.58l-4.14 1.58zM89.4 93.8l-1.28 3.93-4.13-1.58v1.58l3.34 2.43-1.28 2.34v1.59l3.35-2.43 3.34 2.43v-1.59l-1.28-2.34 3.35-2.43v-1.58l-4.14 1.58z"/><g><path style="fill:#fff176" d="M89.4 92.21l1.27 3.93h4.14l-3.35 2.43 1.28 3.93-3.34-2.43-3.35 2.43 1.28-3.93-3.34-2.43h4.13zM106.46 70.14l1.27 3.93h4.14l-3.35 2.43 1.28 3.93-3.34-2.43-3.35 2.43 1.28-3.93-3.34-2.43h4.13zM105.99 42.33l1.27 3.93h4.14l-3.35 2.43 1.28 3.93-3.34-2.43-3.35 2.43 1.28-3.93-3.34-2.43h4.13zM90.01 19.76l1.28 3.93h4.13l-3.34 2.43 1.28 3.93-3.35-2.43-3.34 2.43 1.28-3.93-3.35-2.43h4.14z"/></g><g><path style="fill:#d38200" d="M64.05 102.5l1.28 3.93 4.13-1.58v1.58l-3.34 2.43 1.28 2.35v1.58l-3.35-2.43-3.34 2.43v-1.58l1.28-2.35-3.35-2.43v-1.58l4.14 1.58z"/><path style="fill:#fff176" d="M64.05 100.4l1.28 3.93h4.13l-3.34 2.43 1.28 3.93-3.35-2.43-3.34 2.43 1.28-3.93-3.35-2.43h4.14z"/><path style="fill:#d38200" d="M64.05 12.89l1.28 3.93 4.13-1.58v1.58l-3.34 2.43 1.28 2.35v1.58l-3.35-2.43-3.34 2.43V21.6l1.28-2.35-3.35-2.43v-1.58l4.14 1.58z"/><path style="fill:#fff176" d="M64.05 11.31l1.28 3.93h4.13l-3.34 2.43 1.28 3.93-3.35-2.43-3.34 2.43 1.28-3.93-3.35-2.43h4.14z"/></g><g><path style="fill:#fff176" d="M38.6 92.21l-1.27 3.93h-4.14l3.35 2.43-1.28 3.93 3.34-2.43 3.35 2.43-1.28-3.93 3.34-2.43h-4.13zM21.54 70.14l-1.27 3.93h-4.14l3.35 2.43-1.28 3.93L21.54 78l3.35 2.43-1.28-3.93 3.34-2.43h-4.13zM22.01 42.33l-1.27 3.93H16.6l3.35 2.43-1.28 3.93 3.34-2.43 3.35 2.43-1.28-3.93 3.34-2.43h-4.13zM37.99 19.76l-1.28 3.93h-4.13l3.34 2.43-1.28 3.93 3.35-2.43 3.34 2.43-1.28-3.93 3.35-2.43h-4.14z"/></g><path style="fill:#d38200" d="M95.22 48.2c0-.35-62.38 0-62.38 0l-.56 1.68v2.87c0 .52.42.94.94.94h61.56c.52 0 .94-.42.94-.94v-2.79l-.5-1.76zM95.31 85.5H33.1l-4.16 2.09.05 2.69c.01.29.25.53.55.53h68.93c.29 0 .54-.23.55-.53l.05-2.64-3.76-2.14z"/><g><path style="fill:#d38200" d="M43.13 77.32h-3.58c-.59 0-1.07-1.86-1.07-2.45l5.71-.18c0 .59-.48 2.63-1.06 2.63zM44.35 58.01h-6.03c-.45 0-.84-.3-.97-.73l-.47-3.93h8.83l-.4 3.93c-.12.43-.51.73-.96.73zM38.32 78.51h6.03c.45 0 1.34.28 1.46.71 0 0-.03 1.87-.03 2.61s-.3 1.28-.97 1.28h-6.95c-.67 0-.97-.6-.97-1.28s-.03-2.59-.03-2.59c.13-.43 1.01-.73 1.46-.73z"/></g><g><path style="fill:#d38200" d="M89.63 77.32h-3.58c-.59 0-1.07-1.86-1.07-2.45l5.71-.18c0 .59-.47 2.63-1.06 2.63zM90.85 58.01h-6.03c-.45 0-.84-.3-.97-.73l-.47-3.93h8.83l-.4 3.93c-.12.43-.51.73-.96.73zM84.82 78.51h6.03c.45 0 1.34.28 1.46.71 0 0-.03 1.87-.03 2.61s-.3 1.28-.97 1.28h-6.95c-.67 0-.97-.6-.97-1.28s-.03-2.59-.03-2.59c.13-.43 1.01-.73 1.46-.73z"/></g><g><path style="fill:#d38200" d="M74.13 77.32h-3.58c-.59 0-1.07-1.86-1.07-2.45l5.71-.18c0 .59-.47 2.63-1.06 2.63zM75.35 58.01h-6.03c-.45 0-.84-.3-.97-.73l-.47-3.93h8.83l-.4 3.93c-.12.43-.51.73-.96.73zM69.32 78.51h6.03c.45 0 1.34.28 1.46.71 0 0-.03 1.87-.03 2.61s-.3 1.28-.97 1.28h-6.95c-.67 0-.97-.6-.97-1.28s-.03-2.59-.03-2.59c.13-.43 1.01-.73 1.46-.73z"/></g><g><path style="fill:#d38200" d="M58.63 77.32h-3.58c-.59 0-1.07-1.86-1.07-2.45l5.71-.18c0 .59-.47 2.63-1.06 2.63zM59.85 58.01h-6.03c-.45 0-.84-.3-.97-.73l-.47-3.93h8.83l-.4 3.93c-.12.43-.51.73-.96.73zM53.82 78.51h6.03c.45 0 1.34.28 1.46.71 0 0-.03 1.87-.03 2.61s-.3 1.28-.97 1.28h-6.95c-.67 0-.97-.6-.97-1.28s-.03-2.59-.03-2.59c.13-.43 1.01-.73 1.46-.73z"/></g><path style="fill:#fff176" d="M95.67 45.52c0-.35-.18-.68-.45-.84l-31.18-17.7-31.22 17.68c-.3.18-.49.51-.49.86l-.05 4.37c0 .55.45 1 1 1h61.43c.55 0 1-.45 1-1l-.04-4.37z"/><path style="fill:#f2bc1a" d="M87.84 44.33L64 30.8 40.16 44.33z"/><path style="fill:#fff176" d="M79.07 42.68L64 34.12l-15.07 8.56zM93.39 82.02H34.61c-.58 0-1.13.25-1.52.68l-4.04 4.51c-.28.31-.06.8.36.8h69.18c.41 0 .63-.49.36-.8L94.9 82.7c-.38-.43-.94-.68-1.51-.68z"/><g><path style="fill:#fff176" d="M89.63 75.51h-3.58c-.59 0-1.07-.48-1.07-1.07V58.46c0-.59.48-1.07 1.07-1.07h3.58c.59 0 1.07.48 1.07 1.07v15.99c0 .59-.48 1.06-1.07 1.06zM90.86 56.2h-6.03c-.45 0-.84-.3-.97-.73l-.46-1.59c-.19-.64.3-1.28.97-1.28h6.95c.67 0 1.15.64.97 1.28l-.46 1.59c-.13.43-.53.73-.97.73zM84.82 76.71h6.03c.45 0 .84.3.97.73l.46 1.59c.19.64-.3 1.28-.97 1.28h-6.95c-.67 0-1.15-.64-.97-1.28l.46-1.59c.13-.44.53-.73.97-.73zM43.13 75.51h-3.58c-.59 0-1.07-.48-1.07-1.07V58.46c0-.59.48-1.07 1.07-1.07h3.58c.59 0 1.07.48 1.07 1.07v15.99c-.01.59-.49 1.06-1.07 1.06zM44.35 56.2h-6.03c-.45 0-.84-.3-.97-.73l-.46-1.59c-.19-.64.3-1.28.97-1.28h6.95c.67 0 1.15.64.97 1.28l-.46 1.59c-.13.43-.52.73-.97.73zM38.32 76.71h6.03c.45 0 .84.3.97.73l.46 1.59c.19.64-.3 1.28-.97 1.28h-6.95c-.67 0-1.15-.64-.97-1.28l.46-1.59c.13-.44.52-.73.97-.73z"/><g><path style="fill:#fff176" d="M58.63 75.51h-3.58c-.59 0-1.07-.48-1.07-1.07V58.46c0-.59.48-1.07 1.07-1.07h3.58c.59 0 1.07.48 1.07 1.07v15.99a1.07 1.07 0 01-1.07 1.06zM59.85 56.2h-6.03c-.45 0-.84-.3-.97-.73l-.46-1.59c-.19-.64.3-1.28.97-1.28h6.95c.67 0 1.15.64.97 1.28l-.46 1.59c-.13.43-.52.73-.97.73zM53.82 76.71h6.03c.45 0 .84.3.97.73l.46 1.59c.19.64-.3 1.28-.97 1.28h-6.95c-.67 0-1.15-.64-.97-1.28l.46-1.59c.13-.44.52-.73.97-.73z"/></g><g><path style="fill:#fff176" d="M74.13 75.51h-3.58c-.59 0-1.07-.48-1.07-1.07V58.46c0-.59.48-1.07 1.07-1.07h3.58c.59 0 1.07.48 1.07 1.07v15.99a1.07 1.07 0 01-1.07 1.06zM75.35 56.2h-6.03c-.45 0-.84-.3-.97-.73l-.46-1.59c-.19-.64.3-1.28.97-1.28h6.95c.67 0 1.15.64.97 1.28l-.46 1.59c-.13.43-.52.73-.97.73zM69.32 76.71h6.03c.45 0 .84.3.97.73l.46 1.59c.19.64-.3 1.28-.97 1.28h-6.95c-.67 0-1.15-.64-.97-1.28l.46-1.59c.13-.44.53-.73.97-.73z"/></g></g></svg></svg>