<?xml version="1.0" encoding="utf-8"?><svg viewBox="0 0 128 128" xmlns="http://www.w3.org/2000/svg" xmlns:xlink="http://www.w3.org/1999/xlink"><style>:root>svg{display:none}:root>svg:target{display:block}</style><svg style="enable-background:new 0 0 128 128" viewBox="0 0 128 128" xml:space="preserve" id="1F3B7" xmlns="http://www.w3.org/2000/svg"><radialGradient id="aaa" cx="40" cy="86" r="81.904" gradientTransform="matrix(-.1861 .9825 .7651 .1449 -18.353 -9.76)" gradientUnits="userSpaceOnUse"><stop offset="0" style="stop-color:#ffd740"/><stop offset=".173" style="stop-color:#ffd435"/><stop offset=".478" style="stop-color:#ffcb17"/><stop offset=".68" style="stop-color:#ffc400"/><stop offset="1" style="stop-color:#ffab00"/></radialGradient><path d="M110.86 23.9s-1.17-2.34-3.53-3.7c-3.21-1.85-4.4-7.69-6.9-11-3.02-3.99-7.85-5.18-10.11-5.2-4.44-.04-7.56 1.47-10.67 6.64-.87 1.45-24.91 52.96-33.88 72.21-.31.67-.83.27-1.13-.41-2.51-5.69 2.17-17.1 3.71-21.03 1.14-2.91 4.95-7.16 4.95-9.31 0-6.99-11.11-8.02-25.4-8.02C5.68 44.09 4 47.94 4 51.86c0 4.07 6.61 5.17 7.54 12.26.39 2.95-1.87 12.96-3.01 18.52-3.99 19.28 2.77 34.96 16.3 39.58 13.75 4.69 29.8.4 37.08-16.47 5.05-11.71 19.01-63.46 21.46-70.01 2.19-5.86 5.43-17.64 8.15-17.93 1.68-.17 3.64 6.98 11.07 9.24 5.21 1.59 12.45 1.6 12.45 1.6l-4.18-4.75z" style="fill:url(#aaa)"/><linearGradient id="aab" x1="110.665" x2="114.624" y1="110.376" y2="95.413" gradientTransform="scale(1 -1) rotate(-5.043 -1347.038 44.564)" gradientUnits="userSpaceOnUse"><stop offset="0" style="stop-color:#999898"/><stop offset=".995" style="stop-color:#504f4f"/></linearGradient><path d="M121.49 29.41c-.65-.52-.98-1.06-1.26-1.86-.36-1.01-.72-1.97-1.32-2.87-1.09-1.64-2.82-2.7-4.82-3.93-1.05-.65-2.14-1.3-3.24-2.13-1.34-.98-3.89-.79-4.65.83.44.45.87.76 1.04 1.05.84 1.51.28 3.23-.34 4.48-.73 1.47-3.09 2.53-5.12 1.89-.13.37-.22.94-.26 1.34-.05.44.09.94.25 1.33a3.26 3.26 0 0 0 1.98 1.83c1.96.64 3.95 1.32 5.93 2 2.47.84 4.98 1.59 7.43 2.49 1.06.39 4.34 1.4 5.04 1.35 3.64-.29 3.52-4.47-.66-7.8z" style="fill:url(#aab)"/><path d="M67.54 32.43c-.46 1-.02 2.19.98 2.65l3.63 1.67c1 .46 2.19.02 2.65-.98s.02-2.19-.98-2.65l-3.63-1.67c-1-.46-2.18-.02-2.65.98z" style="fill:#f4511e"/><ellipse cx="68.95" cy="33.13" rx="6" ry="4" style="fill:#ff7043" transform="rotate(-65.29 68.958 33.128)"/><path d="M60.86 46.97c-.46 1-.02 2.19.98 2.65l3.63 1.67c1 .46 2.19.02 2.65-.98s.02-2.19-.98-2.65l-3.63-1.67a1.981 1.981 0 0 0-2.65.98z" style="fill:#f4511e"/><ellipse cx="62.26" cy="47.66" rx="6" ry="4" style="fill:#ff7043" transform="rotate(-65.29 62.263 47.66)"/><path d="M54.17 61.5c-.46 1-.02 2.19.98 2.65l3.63 1.67c1 .46 2.19.02 2.65-.98s.02-2.19-.98-2.65l-3.63-1.67c-1-.46-2.19-.02-2.65.98z" style="fill:#f4511e"/><ellipse cx="55.58" cy="62.2" rx="6" ry="4" style="fill:#ff7043" transform="rotate(-65.29 55.578 62.2)"/></svg><svg style="enable-background:new 0 0 128 128" viewBox="0 0 128 128" xml:space="preserve" id="1F3B8" xmlns="http://www.w3.org/2000/svg"><path d="M60.46 60.5s-3.84-4.37-7.75-2.61c-5.23 2.35-1.65 8.22-8.64 10.64-7.63 2.64-13.04 7.67-10.43 13.78 2.8 6.55 13.97 6.92 14.5 23.73.25 8.05 6 7.85 8.54 5.2 4.46-4.65 4.02-19.05 8.63-24.18s16.04-3.82 20.18-13.38c0 0-7.1 7.13-16.12.1-4.27-3.34-4.22-8.9-4.22-8.9l-4.69-4.38z" style="fill:#fffde7"/><radialGradient id="aba" cx="74.032" cy="71.385" r="45.443" gradientTransform="scale(1 -1) rotate(1.805 4813.76 -825.36)" gradientUnits="userSpaceOnUse"><stop offset="0" style="stop-color:#ff1744"/><stop offset=".256" style="stop-color:#fd1641"/><stop offset=".425" style="stop-color:#f81338"/><stop offset=".57" style="stop-color:#ef0e29"/><stop offset=".7" style="stop-color:#e10714"/><stop offset=".793" style="stop-color:#d50000"/><stop offset="1" style="stop-color:#d50000"/></radialGradient><path d="M69.28 49.96s.47.48-.89-.69c-2.9-2.49-8.87 5.5-13.36 1.04-4.17-4.15 1.14-11.36 5.58-15.69 3.22-3.13.89-6.12-1.73-5.97-2.94.17-10.43 1.82-15.46 9.29-7.64 11.34-4.02 17.36-11.98 23.43-7.95 6.05-25.52 8.19-26.73 23.55-.69 8.81 3.4 13.83 8.64 20.27 3.63 4.46 12.34 12.17 18.83 15.41s13.68 5.04 20.32.61c14.69-9.79 12.06-20.92 14.54-27.36 2.85-7.38 11.83-5 19.08-11.92 4.79-4.57 5.21-8.51 4.88-11.76-.23-2.33-1.12-3.26-2.34-3.83-1.06-.5-2.85.19-3.75 2.02-2.28 4.63-5.94 7.34-10.78 3.52-3.91-3.09-.76-9.16-.76-9.16l-4.09-12.76z" style="fill:url(#aba)"/><path d="M58.29 58.87c-.8-.6-5.06-3.31-8.76.1-3.99 3.67-.74 8.68-7.05 9.65-7.98 1.23-12.72 6.55-10.11 12.66 2.8 6.55 15.24 7.94 15.77 24.75.25 8.05 5.88 7.72 8.54 5.2 6.16-5.83 2.6-18.71 8.63-24.18 5.2-4.72 13.09-2.14 16.87-8.75.67-1.17.71-2.19-.89-1.53-2.95 1.23-6.63 1.85-10.64-2.08-3.28-3.22-2.3-7.09-2.3-7.09s-9.3-8.16-10.06-8.73z" style="fill:#fffde7"/><circle cx="54.19" cy="106.24" r="2.64" style="fill:#424242"/><ellipse cx="55.14" cy="96.61" rx="3.37" ry="3.33" style="fill:#424242" transform="rotate(-46.804 55.137 96.615)"/><linearGradient id="abb" x1="67.328" x2="66.636" y1="155.438" y2="90.821" gradientTransform="matrix(.7363 .6767 .5637 -.6134 -37.279 74.294)" gradientUnits="userSpaceOnUse"><stop offset="0" style="stop-color:#6d6c6b"/><stop offset="1" style="stop-color:#504f4f"/></linearGradient><path d="m109.77 21.43-4.34-3.94-4.29-3.99-43.92 44.35c-.45.44-.28 1.3.38 1.93l4.78 4.56 4.95 4.38c.68.6 1.56.7 1.95.21l40.49-47.5z" style="fill:url(#abb)"/><linearGradient id="abc" x1="145.632" x2="125.712" y1="141.267" y2="121.346" gradientTransform="scale(1 -1) rotate(2.419 3604.594 -619.56)" gradientUnits="userSpaceOnUse"><stop offset="0" style="stop-color:#ff1744"/><stop offset=".256" style="stop-color:#fd1641"/><stop offset=".425" style="stop-color:#f81338"/><stop offset=".57" style="stop-color:#ef0e29"/><stop offset=".7" style="stop-color:#e10714"/><stop offset=".793" style="stop-color:#d50000"/><stop offset="1" style="stop-color:#d50000"/></linearGradient><path d="M96.26 19.31a5037.29 5037.29 0 0 1 8.18 7.5s6.37 1.48 8.44-3.84l3.66-9.39s.99.92 2.63 1.06c2.51.22 5.07-2.76 4.23-5.45-1.05-3.36-2.68-4.72-8.78-3.05-2.19.6-13.68 3.73-13.68 3.73-6.23 1.98-5.77 8.45-4.68 9.44z" style="fill:url(#abc)"/><path d="M21.97 88.96c-.29.31-.36.71-.16.9l18.32 17.2c.2.19.6.09.89-.22l3.36-3.57c.29-.31.36-.71.16-.9l-18.32-17.2c-.2-.19-.6-.09-.89.22l-3.36 3.57z" style="fill:#424242"/></svg><svg style="enable-background:new 0 0 128 128" viewBox="0 0 128 128" xml:space="preserve" id="1F3B9" xmlns="http://www.w3.org/2000/svg"><radialGradient id="aca" cx="63.333" cy="124.556" r="120.14" gradientTransform="matrix(1 0 0 -1 0 127.89)" gradientUnits="userSpaceOnUse"><stop offset="0" style="stop-color:#eee"/><stop offset=".317" style="stop-color:#ebebeb"/><stop offset=".578" style="stop-color:#e1e1e1"/><stop offset=".819" style="stop-color:#cfcfcf"/><stop offset="1" style="stop-color:#bdbdbd"/></radialGradient><path d="M4 4h120v120H4z" style="fill:url(#aca)"/><radialGradient id="acb" cx="63.572" cy="130.038" r="105.76" gradientTransform="matrix(1 0 0 -1 0 127.89)" gradientUnits="userSpaceOnUse"><stop offset="0" style="stop-color:#616161"/><stop offset=".22" style="stop-color:#5e5e5e"/><stop offset=".407" style="stop-color:#535353"/><stop offset=".582" style="stop-color:#424242"/><stop offset=".749" style="stop-color:#292929"/><stop offset=".794" style="stop-color:#212121"/><stop offset="1" style="stop-color:#212121"/></radialGradient><path d="M4 4v24h16v60c0 2.21 1.79 4 4 4h12c2.21 0 4-1.79 4-4V28h14v60c0 2.21 1.79 4 4 4h12c2.21 0 4-1.79 4-4V28h14v60c0 2.21 1.79 4 4 4h12c2.21 0 4-1.79 4-4V28h16V4H4z" style="fill:url(#acb)"/><path d="M40 28h14v56H40zm34 0h14v56H74z" style="fill:none"/><path d="M4 20h120v8H4z" style="fill:#424242"/><path d="M28 92h4v32h-4zm34.06 0h4v32h-4zM96 92h4v32h-4z" style="fill:#504f4f"/></svg><svg viewBox="0 0 128 128" id="1F3BA" xmlns="http://www.w3.org/2000/svg"><path fill="#E0E0E0" d="m110.764 12.918 4.328 4.328-2.999 2.998-4.327-4.328z"/><path fill="#FFA000" d="m121.39 15.26-8.65-8.65c-.6-.6-.6-1.56 0-2.16s1.56-.6 2.16 0l8.65 8.65c.6.6.6 1.56 0 2.16-.59.59-1.56.59-2.16 0z"/><linearGradient id="ada" x1="45.554" x2="49.961" y1="-26.325" y2="-18.23" gradientTransform="rotate(45.001 39.854 77.805)" gradientUnits="userSpaceOnUse"><stop offset="0" stop-color="#FFD740"/><stop offset="1" stop-color="#FFAB00"/></linearGradient><path fill="url(#ada)" d="m121.38 15.25-8.63-8.63s-2.08 2.24-2.16 6.49l4.31 4.31c4.5.08 6.48-2.17 6.48-2.17z"/><path fill="#BDBDBD" d="m55.92 48.91-2.83 2.83-1.15-1.15a.996.996 0 0 1 0-1.41l1.41-1.41a.996.996 0 0 1 1.41 0l1.16 1.14z"/><path fill="#BDBDBD" d="m53.089 50.326 1.414-1.414 5.6 5.6-1.414 1.414z"/><linearGradient id="adb" x1="60.071" x2="91.238" y1="55.818" y2="87.068" gradientUnits="userSpaceOnUse"><stop offset="0" stop-color="#FFC400"/><stop offset="1" stop-color="#FFAB00"/></linearGradient><path fill="url(#adb)" d="m61.99 53.57 31.54 31.46-4.25 4.25-31.53-31.46z"/><path fill="#E0E0E0" d="m95.96 87.46-4.24 4.24a.996.996 0 0 1-1.41 0l-1.41-1.41 5.66-5.66 1.41 1.41c.38.4.38 1.03-.01 1.42z"/><path fill="#BDBDBD" d="m94.55 84.64-5.66 5.66v-1.41l4.25-4.25z"/><path fill="#E0E0E0" d="m62.01 53.59-4.24 4.24a.996.996 0 0 1-1.41 0l-1.41-1.41 5.66-5.66 1.41 1.41c.38.4.38 1.03-.01 1.42z"/><path fill="#eee" d="m60.6 50.77-5.66 5.66v-.59c0-.53.21-1.04.59-1.41l3.07-3.07c.38-.38.88-.59 1.41-.59h.59z"/><path fill="#E0E0E0" d="m55.99 48.99-2.83 2.83a.996.996 0 1 1-1.41-1.41l2.83-2.83a.996.996 0 1 1 1.41 1.41z"/><path fill="#BDBDBD" d="m63.79 41.04-2.83 2.83-1.15-1.15a.996.996 0 0 1 0-1.41l1.41-1.41a.996.996 0 0 1 1.41 0l1.16 1.14z"/><path fill="#BDBDBD" d="m60.963 42.458 1.414-1.414 5.6 5.6-1.413 1.415z"/><linearGradient id="adc" x1="67.946" x2="99.113" y1="47.943" y2="79.193" gradientUnits="userSpaceOnUse"><stop offset="0" stop-color="#FFC400"/><stop offset="1" stop-color="#FFAB00"/></linearGradient><path fill="url(#adc)" d="m69.87 45.7 31.53 31.46-4.24 4.24-31.54-31.46z"/><path fill="#E0E0E0" d="m103.83 79.59-4.24 4.24a.996.996 0 0 1-1.41 0l-1.41-1.41 5.66-5.66 1.41 1.41c.38.4.38 1.03-.01 1.42z"/><path fill="#BDBDBD" d="m102.43 76.77-5.66 5.66v-1.42l4.24-4.24z"/><path fill="#E0E0E0" d="m69.88 45.71-4.24 4.24a.996.996 0 0 1-1.41 0l-1.41-1.41 5.66-5.66 1.41 1.41c.38.4.38 1.03-.01 1.42z"/><path fill="#eee" d="m68.47 42.89-5.66 5.66v-.59c0-.53.21-1.04.59-1.41l3.07-3.07c.38-.38.88-.59 1.41-.59h.59z"/><path fill="#E0E0E0" d="m63.87 41.11-2.83 2.83a.996.996 0 1 1-1.41-1.41l2.83-2.83a.996.996 0 1 1 1.41 1.41z"/><path fill="#BDBDBD" d="m71.67 33.16-2.83 2.83-1.15-1.15a.996.996 0 0 1 0-1.41l1.41-1.41a.996.996 0 0 1 1.41 0l1.16 1.14z"/><path fill="#BDBDBD" d="m68.839 34.577 1.414-1.414 5.6 5.6-1.414 1.414z"/><linearGradient id="add" x1="75.821" x2="106.99" y1="40.068" y2="71.318" gradientUnits="userSpaceOnUse"><stop offset="0" stop-color="#FFC400"/><stop offset="1" stop-color="#FFAB00"/></linearGradient><path fill="url(#add)" d="m77.74 37.82 31.54 31.46-4.25 4.25L73.5 42.07z"/><path fill="#E0E0E0" d="m111.71 71.71-4.24 4.24a.996.996 0 0 1-1.41 0l-1.41-1.41 5.66-5.66 1.41 1.41c.38.4.38 1.03-.01 1.42z"/><path fill="#BDBDBD" d="m110.3 68.89-5.66 5.66v-1.41l4.25-4.25z"/><path fill="#E0E0E0" d="m77.76 37.84-4.24 4.24a.996.996 0 0 1-1.41 0l-1.41-1.41 5.66-5.66 1.41 1.41c.38.4.38 1.03-.01 1.42z"/><path fill="#eee" d="m76.35 35.02-5.66 5.66v-.59c0-.53.21-1.04.59-1.41l3.07-3.07c.38-.38.88-.59 1.41-.59h.59z"/><path fill="#E0E0E0" d="m71.74 33.24-2.83 2.83a.996.996 0 1 1-1.41-1.41l2.83-2.83a.996.996 0 1 1 1.41 1.41z"/><path fill="#424242" d="m113.82 5.5.02.01 8.64 8.64-.04.04-1.11-1.08-1.06 1.13c-.06.07-1.6 1.67-5.11 1.67h-.22l-.64-.01-2.22 2.22-2.2-2.2 2.19-2.19.01-.6c.07-3.55 1.7-5.42 1.76-5.49l.98-1.11-1.02-1.02c.01-.01.01-.01.02-.01m0-1.5c-.39 0-.78.15-1.08.45-.6.6-.6 1.56 0 2.16l.01.01s-2.08 2.24-2.16 6.48l-2.82 2.82 4.32 4.32 2.83-2.83h.25c4.32 0 6.22-2.16 6.22-2.16l.01.01a1.523 1.523 0 0 0 2.16 0c.6-.6.6-1.56 0-2.16l-8.65-8.65c-.3-.3-.69-.45-1.09-.45z" opacity=".2"/><linearGradient id="ade" x1="59.041" x2="59.041" y1="18" y2="125.32" gradientUnits="userSpaceOnUse"><stop offset="0" stop-color="#FFC400"/><stop offset=".594" stop-color="#FFC200"/><stop offset=".808" stop-color="#fb0"/><stop offset=".96" stop-color="#FFB000"/><stop offset="1" stop-color="#FFAB00"/></linearGradient><path fill="url(#ade)" d="M44.95 102.68c1.82-11.16 3.64-17.89 11.64-25.89l56.05-55.31c.59-.58.6-1.54.01-2.13l-4.02-4.02c-.58-.58-1.53-.59-2.11-.01L50.46 70.66c-7.99 7.99-14.73 9.81-25.89 11.64C18.24 83.33 5.33 80.54 5 80.57l22.39 22.39L47.42 123c.16.29-3.51-14-2.47-20.32z"/><path fill="#FFA000" d="M48.13 123.71 4.29 79.87a.996.996 0 0 1 0-1.41c.78-.78 2.05-.78 2.83 0l42.43 42.43c.78.78.78 2.05 0 2.83-.39.38-1.03.38-1.42-.01z"/><linearGradient id="adf" x1="64.004" x2="91.014" y1="59.761" y2="86.843" gradientTransform="matrix(.7778 -.2222 -.2222 .7778 31.684 31.684)" gradientUnits="userSpaceOnUse"><stop offset="0" stop-color="#FF8F00"/><stop offset=".377" stop-color="#FF8F00" stop-opacity="0"/><stop offset=".514" stop-color="#FF8F00" stop-opacity="0"/><stop offset=".634" stop-color="#FF8F00" stop-opacity="0"/><stop offset="1" stop-color="#FF8F00"/></linearGradient><path fill="url(#adf)" d="m67.99 59.57 17.54 17.46-4.25 4.25-17.53-17.46z"/><linearGradient id="adg" x1="67.946" x2="99.113" y1="47.943" y2="79.193" gradientTransform="matrix(.746 -.254 -.254 .746 37.353 37.353)" gradientUnits="userSpaceOnUse"><stop offset="0" stop-color="#FF8F00"/><stop offset=".377" stop-color="#FF8F00" stop-opacity="0"/><stop offset=".514" stop-color="#FF8F00" stop-opacity="0"/><stop offset=".634" stop-color="#FF8F00" stop-opacity="0"/><stop offset="1" stop-color="#FF8F00"/></linearGradient><path fill="url(#adg)" d="M77.87 53.7 93.4 69.16l-4.24 4.24-15.54-15.46z"/><linearGradient id="adh" x1="98.668" x2="83.481" y1="62.956" y2="47.769" gradientUnits="userSpaceOnUse"><stop offset="0" stop-color="#FF8F00"/><stop offset=".377" stop-color="#FF8F00" stop-opacity="0"/><stop offset=".514" stop-color="#FF8F00" stop-opacity="0"/><stop offset=".634" stop-color="#FF8F00" stop-opacity="0"/><stop offset="1" stop-color="#FF8F00"/></linearGradient><path fill="url(#adh)" d="m85.74 45.82 15.54 15.46-4.25 4.25L81.5 50.07z"/><path fill="#424242" d="m59.98 52.27.61.61-.71.71 1.06 1.06L92.07 85.7l.44.44h1.41l.61.61-3.54 3.54-.61-.61v-1.41l-.44-.44-31.12-31.06-1.06-1.06-.71.71-.61-.61c.01-.12.06-.23.15-.32l3.07-3.07c.09-.09.2-.14.32-.15m-4.69-4.99c-.26 0-.51.1-.71.29l-.04.04a1.01 1.01 0 0 0-.5-.13c-.25 0-.49.09-.68.28l-1.41 1.41c-.32.32-.36.8-.15 1.18l-.04.04a.996.996 0 0 0 .71 1.7c.26 0 .51-.1.71-.29l.71-.71 2.49 2.49-.83.83c-.38.38-.59.88-.59 1.41v.57l-.01.01 1.41 1.41c.2.2.45.29.71.29s.51-.1.71-.29l31.13 31.05v1.4l-.01.01 1.41 1.41c.2.2.45.29.71.29s.51-.1.71-.29l4.24-4.24a.996.996 0 0 0 0-1.41l-1.41-1.41-.01.01h-1.4L62.01 53.59a.996.996 0 0 0 0-1.41l-1.41-1.41-.01.01h-.57c-.53 0-1.04.21-1.41.59l-.83.83-2.49-2.49L56 49a.996.996 0 0 0 0-1.41.98.98 0 0 0-.71-.31zm12.56-2.89.61.61-.71.71 1.06 1.06 31.13 31.05.44.44h1.41l.61.61-3.54 3.54-.61-.61v-1.41l-.44-.44L66.7 48.9l-1.06-1.06-.71.71-.61-.61c.01-.12.06-.23.15-.32l3.07-3.07c.08-.1.19-.15.31-.16m-4.69-4.98c-.26 0-.51.1-.71.29l-.04.04a1.01 1.01 0 0 0-.5-.13c-.25 0-.49.09-.68.28l-1.41 1.41c-.32.32-.36.8-.15 1.18l-.04.04a.996.996 0 0 0 .71 1.7c.26 0 .51-.1.71-.29l.71-.71 2.49 2.49-.83.83c-.38.38-.59.88-.59 1.41v.57l-.01.01 1.41 1.41c.2.2.45.29.71.29s.51-.1.71-.29l31.13 31.05v1.4l-.01.01 1.41 1.41c.2.2.45.29.71.29s.51-.1.71-.29l4.24-4.24a.996.996 0 0 0 0-1.41l-1.41-1.41-.01.01h-1.4L69.88 45.71a.996.996 0 0 0 0-1.41l-1.41-1.41-.01.01h-.57c-.53 0-1.04.21-1.41.59l-.83.83-2.49-2.49.71-.71a.996.996 0 0 0 0-1.41c-.2-.2-.45-.3-.71-.3zm12.57-2.89.61.61-.71.71 1.06 1.06 31.13 31.05.44.44h1.41l.61.61-3.54 3.54-.61-.61v-1.41l-.44-.44-31.12-31.06-1.06-1.06-.71.71-.61-.61c.01-.12.06-.23.15-.32l3.07-3.07c.09-.09.2-.14.32-.15m-4.69-4.99c-.26 0-.51.1-.71.29l-.04.04a1.01 1.01 0 0 0-.5-.13c-.25 0-.49.09-.68.28l-1.41 1.41c-.32.32-.36.8-.15 1.18l-.04.04a.996.996 0 0 0 .71 1.7c.26 0 .51-.1.71-.29l.71-.71 2.49 2.49-.83.83c-.38.38-.59.88-.59 1.41v.57l-.01.01 1.41 1.41c.2.2.45.29.71.29s.51-.1.71-.29l31.13 31.05v1.4l-.01.01 1.41 1.41c.2.2.45.29.71.29s.51-.1.71-.29l4.24-4.24a.996.996 0 0 0 0-1.41l-1.41-1.41-.01.01h-1.4L77.76 37.84a.996.996 0 0 0 0-1.41l-1.41-1.41-.01.01h-.57c-.53 0-1.04.21-1.41.59l-.83.83-2.49-2.49.71-.71a.996.996 0 0 0 0-1.41.98.98 0 0 0-.71-.31z" opacity=".2"/><linearGradient id="adi" x1="34.917" x2="105.44" y1="93.083" y2="22.562" gradientUnits="userSpaceOnUse"><stop offset="0" stop-color="#FF8F00" stop-opacity="0"/><stop offset=".265" stop-color="#FF8F00"/><stop offset=".871" stop-color="#FF8F00"/><stop offset="1" stop-color="#FF8F00" stop-opacity="0"/></linearGradient><path fill="url(#adi)" d="M44.95 102.68c1.82-11.16 3.64-17.89 11.64-25.89l56.05-55.31c.59-.58.6-1.54.01-2.13l-4.02-4.02c-.58-.58-1.53-.59-2.11-.01L50.46 70.66c-7.99 7.99-14.73 9.81-25.89 11.64C18.24 83.33 5.33 80.54 5 80.57l22.39 22.39L47.42 123c.16.29-3.51-14-2.47-20.32z" opacity=".7"/><path fill="#424242" d="m107.57 18.51 1.89 1.89-55 54.27c-8.87 8.87-10.7 16.66-12.48 27.53-.43 2.62-.23 6.55.59 11.72L13.65 84.98c2.92.36 5.44.55 7.54.55 1.47 0 2.77-.09 3.86-.27 10.87-1.78 18.65-3.6 27.51-12.46l55.01-54.29m.01-3.61c-.38 0-.76.14-1.05.43L50.46 70.66c-7.99 7.99-14.73 9.81-25.89 11.64-.99.16-2.14.23-3.38.23-3.55 0-7.81-.56-11.08-1.08l-2.99-2.99c-.39-.39-.9-.59-1.41-.59s-1.02.2-1.41.59-.39 1.02 0 1.41l43.84 43.84c.2.2.45.29.71.29s.51-.1.71-.29c.78-.78.78-2.05 0-2.83l-3.26-3.26c-.92-4.65-1.96-11.2-1.34-14.95 1.82-11.16 3.64-17.89 11.64-25.89l56.05-55.31c.59-.58.6-1.54.01-2.13L111 17.7l-2.37-2.37c-.28-.29-.67-.43-1.05-.43z" opacity=".2"/><linearGradient id="adj" x1="82.743" x2="82.743" y1="34.833" y2="112.85" gradientUnits="userSpaceOnUse"><stop offset="0" stop-color="#FFD740"/><stop offset="1" stop-color="#FFAB00"/></linearGradient><path fill="url(#adj)" d="M114.96 31.27c-3.29-3.34-7.69-5.2-12.41-5.24s-9.15 1.75-12.5 5.03L50.73 69.85c-3.34 3.29-5.2 7.69-5.24 12.41s1.75 9.15 5.03 12.5c3.29 3.34 7.69 5.2 12.41 5.24s9.15-1.75 12.5-5.03l39.33-38.79c3.34-3.29 5.2-7.69 5.24-12.41s-1.75-9.16-5.04-12.5zM107.7 49 68.37 87.79c-1.43 1.41-3.34 2.18-5.36 2.16s-3.91-.82-5.32-2.25c-2.92-2.97-2.88-7.76.09-10.67l39.33-38.79c1.43-1.41 3.34-2.18 5.36-2.16s3.91.82 5.32 2.25A7.548 7.548 0 0 1 107.7 49z"/><path fill="#424242" d="M102.4 29.03h.13c3.92.03 7.57 1.58 10.3 4.35 2.72 2.77 4.21 6.45 4.17 10.37a14.51 14.51 0 0 1-4.35 10.3L73.32 92.83C70.59 95.52 66.95 97 63.08 97h-.13a14.51 14.51 0 0 1-10.3-4.35 14.489 14.489 0 0 1-4.17-10.37 14.51 14.51 0 0 1 4.35-10.3L92.16 33.2c2.74-2.69 6.38-4.17 10.24-4.17M63.08 92.95c2.79 0 5.41-1.07 7.4-3.03l39.33-38.78c2.01-1.97 3.12-4.61 3.15-7.43.02-2.82-1.05-5.48-3.02-7.48-1.97-2.01-4.61-3.12-7.43-3.15h-.09c-2.79 0-5.41 1.07-7.4 3.03L55.68 74.89c-2.01 1.97-3.12 4.61-3.15 7.43-.02 2.82 1.05 5.48 3.02 7.48 1.97 2.01 4.61 3.12 7.43 3.15h.1m39.32-66.92c-4.66 0-9.04 1.78-12.34 5.04L50.73 69.85c-3.34 3.29-5.2 7.69-5.24 12.41s1.75 9.15 5.03 12.5c3.29 3.34 7.69 5.2 12.41 5.24h.15c4.66 0 9.04-1.78 12.34-5.04l39.33-38.79c3.34-3.29 5.2-7.69 5.24-12.41s-1.75-9.15-5.03-12.5c-3.29-3.34-7.69-5.2-12.41-5.24-.05.01-.1.01-.15.01zM63.08 89.95h-.07a7.528 7.528 0 0 1-5.32-2.25c-2.92-2.97-2.88-7.76.09-10.67l39.33-38.79c1.42-1.4 3.3-2.16 5.29-2.16h.07c2.02.02 3.91.82 5.32 2.25 2.92 2.97 2.88 7.76-.09 10.67L68.37 87.79a7.508 7.508 0 0 1-5.29 2.16z" opacity=".2"/></svg><svg style="enable-background:new 0 0 128 128" viewBox="0 0 128 128" xml:space="preserve" id="1F3BB" xmlns="http://www.w3.org/2000/svg"><path d="m69.45 113.85-1.81-1.16 46.5-72.43 1.81 1.16z" style="fill:#ffa000"/><path d="M114.14 40.26c.01 0 4.89 3.11 4.89 3.11l-47.6 74.71 3 3.27 47.86-75.11c2.15-3.63.92-5.19-.51-6.05-1.21-.72-2.15-.51-1.55-1.07.5-.47 1.32-1.13 1.02-1.68-.31-.57-.86-1.27-3.09-.12-2.44 1.27-4.13 2.87-4.02 2.94z" style="fill:#bf360c"/><path d="m70.87 123.39-.29-.18c-.9-.56-1.23-1.64-.75-2.41l2.75-4.34 3.55 2.22-2.75 4.34c-.49.77-1.61.93-2.51.37z" style="fill:#504f4f"/><path d="M77.74 116.03c-1.2-.75-3.86-1.92-4.85-.28l-.06.1c-.35.56-.49.81-1.02.49l-2.16-1.3c-.38-.24-.55-.63-.2-1.19l.22-.35c.43-.67-.03-1.72-1.03-2.34l-.01-.06-2.8 4.42c-.39.61.05 1.63.95 2.19l7.21 4.36 3.75-6.04z" style="fill:#504f4f"/><path d="M59.12 105.92c.5-1.79 1.45-2.2 2.61-2.68 1.14-.46 1.81-1.21 1.77-2.33-.04-1.18-.61-1.6-1.46-2.33-.38-.32-5.12-3.87.48-11.64 2.83-3.93 7-4.35 9.33-2.97 2.18 1.29 2.82 1.62 3.98 1.16 1.08-.43 1.37-1.55 1.47-2.14.18-1.01-.94-4.4 2.31-5.42 7.49-2.36 21.94-15.04 2.48-34.32s-32-4.72-34.29 2.8c-1 3.26-4.39 2.17-5.4 2.36-.59.11-1.7.41-2.13 1.49-.46 1.17-.12 1.8 1.19 3.97 1.4 2.32 1.02 6.49-2.88 9.35-7.71 5.68-11.31.96-11.63.59-.74-.85-1.15-1.41-2.34-1.44-1.11-.03-1.86.65-2.31 1.79-.46 1.17-.87 2.12-2.65 2.64-2.34.68-14.27 5.53-15.05 17.77-.76 11.97 8.53 19.75 12.8 23.98S29.53 122 41.5 121.13c12.23-.89 16.96-12.87 17.62-15.21z" style="fill:#f4511e"/><path d="M50.5 83.22s-2-1.33-4.37-3.75-3.52-4.15-3.52-4.15c-.35-.51-.15-1.04.28-1.39.3-.3.86-.47 1.26-.16 0 0 2.39 1.49 4.31 3.46s3.59 4.44 3.59 4.44c.28.48.14.97-.25 1.35-.31.31-.92.5-1.3.2zm12.88-7.28c-.05-.05-.1-.11-.16-.17a1.408 1.408 0 0 0-2.54.84c0 .78.63 1.41 1.41 1.41.17 0 .34-.04.49-.09-.14.41-.33.79-.59 1.11-.59.7-1.46 1.33-2.33 1.96-.89.62-1.78 1.29-2.68 1.97-1.73 1.41-3.53 3.06-4.44 5.38-.49 1.1-.66 2.62 0 3.84.26.49.67.96 1.23 1.08-.01-.02-.02-.05-.03-.07.14.04.28.07.43.07.78 0 1.41-.63 1.41-1.41 0-.78-.63-1.41-1.41-1.41-.27 0-.51.08-.72.21.01-.08.01-.16.02-.24.09-.46.3-.87.55-1.32 1.02-1.72 2.62-3.1 4.31-4.43.83-.69 1.73-1.33 2.58-2.07.85-.75 1.74-1.51 2.41-2.64.68-1.07 1.08-2.87.06-4.02zM51.11 64.17c-.09-.56-.54-1-1.01-1.29-1.18-.73-2.71-.64-3.83-.21-2.37.78-4.11 2.49-5.61 4.14-.73.86-1.44 1.72-2.11 2.56-.67.83-1.36 1.67-2.08 2.22-.34.24-.73.41-1.14.53a1.408 1.408 0 0 0-1.3-1.96c-.78 0-1.41.63-1.41 1.41 0 .43.19.8.49 1.06.06.07.12.13.18.19 1.09 1.08 2.92.78 4.02.16 1.17-.61 1.97-1.46 2.76-2.26.79-.81 1.47-1.67 2.21-2.46 1.42-1.61 2.89-3.13 4.66-4.06.46-.23.89-.41 1.34-.48.08-.01.16 0 .24-.01-.15.23-.24.5-.24.79 0 .78.63 1.41 1.41 1.41s1.41-.63 1.41-1.41c0-.13-.02-.24-.05-.36l.06.03z" style="fill:#424242"/><linearGradient id="aea" x1="61.036" x2="103.641" y1="64.767" y2="20.86" gradientUnits="userSpaceOnUse"><stop offset="0" style="stop-color:#504f4f"/><stop offset="1" style="stop-color:#6d6c6b"/></linearGradient><path d="m117.56 12.12-3.81-3.81-57.87 52.33c-.43.4-.35 1.17.18 1.7l7.42 7.42c.53.53 1.29.61 1.7.18l52.38-57.82z" style="fill:url(#aea)"/><path d="M99.89 12.03c.66-.66.58-1.77-.19-2.31-1.21-.86-2.74-1.37-4.21.09-1.46 1.46-.95 3-.09 4.21.54.77 1.65.85 2.31.19l.47-.47 3.42 3.42 1.23-1.23-3.42-3.42.48-.48zm-5.81 5.82c.66-.66.58-1.77-.19-2.31-1.21-.87-2.75-1.37-4.21.09-1.46 1.46-.95 3-.09 4.21.54.77 1.65.85 2.31.19l.48-.48 3.41 3.41 1.23-1.23-3.41-3.41.47-.47zm17.41 10.36-.48.48-3.4-3.4-1.23 1.23 3.4 3.4-.47.47c-.66.66-.58 1.77.19 2.31 1.21.87 2.75 1.38 4.21-.09 1.46-1.46.95-3 .09-4.21-.54-.77-1.65-.85-2.31-.19zm8.13-5.62c-.54-.77-1.65-.85-2.31-.19l-.48.48-3.41-3.41-1.23 1.23 3.41 3.41-.47.47c-.66.66-.58 1.77.19 2.31 1.21.86 2.74 1.37 4.21-.09 1.46-1.46.95-3 .09-4.21z" style="fill:#504f4f"/><defs><path id="aeb" d="m104.37 33.05 13.13-14.68-5.03-5.03-5.02-5.02-14.69 13.12z"/></defs><clipPath id="aec"><use style="overflow:visible" xlink:href="#aeb"/></clipPath><g style="clip-path:url(#aec)"><path d="m106.77 14.46 4.6 4.6-10.62 11.53-5.5-5.5 11.52-10.63m.05-2.78L92.35 25.02l8.44 8.44 13.34-14.47-7.31-7.31z" style="fill:#bf360c"/></g><path d="m107.36 16.09-4.01-4.01a.712.712 0 0 1 0-1.01l7.04-7.04c.28-.28.73-.28 1.01 0l4.01 4.01c.28.28.28.73 0 1.01l-7.04 7.04c-.28.28-.73.28-1.01 0zm3 3 3.34 3.34c.3.3.78.3 1.08 0l6.97-6.97c.3-.3.3-.78 0-1.08l-3.34-3.34a.76.76 0 0 0-1.08 0l-6.97 6.97c-.3.3-.3.78 0 1.08z" style="fill:#bf360c"/><path d="m112.54 20.83 7.54-11.62c.44-.68.47-1.41.08-1.8l-1.76-1.76c-.39-.39-1.12-.36-1.8.08l-11.62 7.54c-1.14.72-2.04 1.89-2.35 3.07-.26.97-.1 1.84.45 2.38l4.02 4.02c.54.54 1.41.71 2.38.45 1.17-.32 2.34-1.22 3.06-2.36z" style="fill:#f4511e"/><radialGradient id="aed" cx="29.314" cy="88.959" r="22.304" gradientUnits="userSpaceOnUse"><stop offset="0" style="stop-color:#6d6c6b"/><stop offset="1" style="stop-color:#504f4f"/></radialGradient><path d="m42.19 89.95-6.32-6.32a.931.931 0 0 0-1.42.11c-.87 1.2-2.4 3.48-3.46 5.94-1.54 3.6-3.47 6.3-5.85 8.68-1.66 1.66-3.39 3.25-5.09 4.87l-.96.93c-.03-.03-.06-.06-.09-.1-1.91-2.2-1.46-6.04-.39-9 1.2-3.31 2.57-8.23-1.03-12.69-2.89-3.58-7.07-4.65-9.29-4.91-1.04-.12-1.98.15-2.4 1.11-1.27 2.88-2.86 7.32-.53 14.29 3.04 9.17 14.18 18.45 17.02 20.73.65.52 1.06-.69 1.26-1.5.23-.98.33-2.26-.28-3.39-.5-.92-.95-1.49-1.43-1.95 2.22-2.29 4.99-5.53 5.54-6.07 2.38-2.38 5.08-4.31 8.68-5.85 2.45-1.06 4.73-2.6 5.93-3.46.47-.34.52-1.01.11-1.42z" style="fill:url(#aed)"/></svg><svg viewBox="0 0 128 128" id="1F941" xmlns="http://www.w3.org/2000/svg"><linearGradient id="afa" x1="64" x2="64" y1="60.761" y2="118.4" gradientUnits="userSpaceOnUse"><stop offset="0" stop-color="#448AFF"/><stop offset=".475" stop-color="#3979FF"/><stop offset=".995" stop-color="#2962FF"/></linearGradient><path fill="url(#afa)" d="M8 60h112v60H8z"/><radialGradient id="afb" cx="26.25" cy="63.75" r="56.392" gradientUnits="userSpaceOnUse"><stop offset="0" stop-color="#2196F3"/><stop offset=".558" stop-color="#1D86E2"/><stop offset=".995" stop-color="#1976D2"/></radialGradient><path fill="url(#afb)" d="M8 64h36v60H8z"/><radialGradient id="afc" cx="102.75" cy="64" r="53.515" gradientUnits="userSpaceOnUse"><stop offset="0" stop-color="#2196F3"/><stop offset=".558" stop-color="#1D86E2"/><stop offset=".995" stop-color="#1976D2"/></radialGradient><path fill="url(#afc)" d="M84 64h36v60H84z"/><radialGradient id="afd" cx="64.25" cy="62.25" r="66.114" gradientUnits="userSpaceOnUse"><stop offset="0" stop-color="#42A5F5"/><stop offset=".244" stop-color="#3FA2F4"/><stop offset=".443" stop-color="#359AEF"/><stop offset=".625" stop-color="#248DE8"/><stop offset=".672" stop-color="#1E88E5"/><stop offset=".995" stop-color="#1E88E5"/></radialGradient><path fill="url(#afd)" d="M44 64h40v60H44z"/><path fill="#0D47A1" d="M25 64h2v52h-2z"/><linearGradient id="afe" x1="26" x2="26" y1="82.75" y2="98.665" gradientUnits="userSpaceOnUse"><stop offset="0" stop-color="#ff0"/><stop offset="1" stop-color="#FFD600"/></linearGradient><ellipse cx="26" cy="90" fill="url(#afe)" rx="4" ry="7"/><path fill="#0D47A1" d="M63 64h2v52h-2z"/><linearGradient id="aff" x1="64" x2="64" y1="82.75" y2="98.665" gradientUnits="userSpaceOnUse"><stop offset="0" stop-color="#ff0"/><stop offset="1" stop-color="#FFD600"/></linearGradient><ellipse cx="64" cy="90" fill="url(#aff)" rx="4" ry="7"/><path fill="#0D47A1" d="M101 64h2v52h-2z"/><linearGradient id="afg" x1="102" x2="102" y1="82.75" y2="98.665" gradientUnits="userSpaceOnUse"><stop offset="0" stop-color="#ff0"/><stop offset="1" stop-color="#FFD600"/></linearGradient><ellipse cx="102" cy="90" fill="url(#afg)" rx="4" ry="7"/><path fill="#BDBDBD" d="M122.37 124H5.63c-.9 0-1.63-.73-1.63-1.63v-4.73c0-.9.73-1.63 1.63-1.63h116.73c.9 0 1.63.73 1.63 1.63v4.73c.01.9-.72 1.63-1.62 1.63zm0-60H5.63C4.73 64 4 63.27 4 62.37v-4.73c0-.91.73-1.64 1.63-1.64h116.73c.9 0 1.63.73 1.63 1.63v4.73c.01.91-.72 1.64-1.62 1.64z"/><path fill="#FF9800" d="M115.78 7.17c-1.19-3.24-7.04-3.74-10.05-2.65-.13.05-.27.1-.39.16l-74.1 33.65c-2.02-1.09-4.98-1.17-7.85 0-4.31 1.76-6.8 5.66-5.56 8.71 1.24 3.06 5.75 4.11 10.06 2.36 2.87-1.17 4.93-3.29 5.62-5.49l76.53-27.66c3.02-1.09 6.93-5.84 5.74-9.08z"/><path d="M26 83c2.21 0 4 3.13 4 7s-1.79 7-4 7-4-3.13-4-7 1.79-7 4-7m0-3c-3.99 0-7 4.3-7 10s3.01 10 7 10 7-4.3 7-10-3.01-10-7-10zm38 3c2.21 0 4 3.13 4 7s-1.79 7-4 7-4-3.13-4-7 1.79-7 4-7m0-3c-3.99 0-7 4.3-7 10s3.01 10 7 10 7-4.3 7-10-3.01-10-7-10zm38 3c2.21 0 4 3.13 4 7s-1.79 7-4 7-4-3.13-4-7 1.79-7 4-7m0-3c-3.99 0-7 4.3-7 10s3.01 10 7 10 7-4.3 7-10-3.01-10-7-10z" opacity=".2"/><linearGradient id="afh" x1="54.72" x2="42.595" y1="23.146" y2="36.021" gradientUnits="userSpaceOnUse"><stop offset="0" stop-color="#F57C00"/><stop offset="1" stop-color="#F57C00" stop-opacity="0"/></linearGradient><path fill="url(#afh)" d="M31.24 38.33c-2.02-1.09-4.98-1.17-7.85 0-4.31 1.76-6.8 5.66-5.56 8.71 1.24 3.06 5.75 4.11 10.06 2.36 2.87-1.17 4.93-3.29 5.62-5.49L64 32.89l-11.57-4.18-21.19 9.62z"/><linearGradient id="afi" x1="61.686" x2="83.186" y1="22.868" y2="18.202" gradientUnits="userSpaceOnUse"><stop offset="0" stop-color="#F57C00"/><stop offset="1" stop-color="#F57C00" stop-opacity="0"/></linearGradient><path fill="url(#afi)" d="M115.78 7.17c-1.19-3.24-7.04-3.74-10.05-2.65-.13.05-.27.1-.39.16L64 23.45l11.57 5.26 34.47-12.46c3.02-1.09 6.93-5.84 5.74-9.08z"/><path d="M109.1 7c2.2 0 3.68.71 3.86 1.21.09.24.02.8-.32 1.53-.8 1.71-2.51 3.29-3.62 3.68L32.49 41.09l-.4.14.38-.17 74.09-33.64c.06-.03.13-.05.19-.08.6-.22 1.46-.34 2.35-.34M27.56 40.48c.87 0 1.68.17 2.26.49l1.26.68-.43 1.37c-.44 1.41-1.97 2.82-3.89 3.61-1.01.41-2.06.63-3.05.63-1.53 0-2.78-.54-3.1-1.34-.31-.77.21-1.73.44-2.1.71-1.11 1.97-2.1 3.46-2.7 1.01-.43 2.06-.64 3.05-.64M109.1 4c-1.25 0-2.44.18-3.37.52-.13.05-.27.1-.39.16l-74.1 33.65c-1.03-.55-2.3-.85-3.69-.85-1.33 0-2.76.27-4.17.85-4.31 1.76-6.8 5.66-5.56 8.71.84 2.06 3.15 3.21 5.88 3.21 1.33 0 2.77-.27 4.18-.85 2.87-1.17 4.93-3.29 5.62-5.49l76.53-27.66c3.01-1.09 6.92-5.84 5.73-9.08-.8-2.24-3.86-3.17-6.66-3.17zM121 59v2h-1c-1.66 0-3 1.34-3 3v52c0 1.66 1.34 3 3 3h1v2H7v-2h1c1.66 0 3-1.34 3-3V64c0-1.66-1.34-3-3-3H7v-2h114m1.37-3H5.63c-.9 0-1.63.73-1.63 1.63v4.73c0 .91.73 1.64 1.63 1.64H8v52H5.63c-.9 0-1.63.73-1.63 1.63v4.73c0 .9.73 1.63 1.63 1.63h116.73c.9 0 1.63-.73 1.63-1.63v-4.73c0-.9-.73-1.63-1.63-1.63H120V64h2.37c.9 0 1.63-.73 1.63-1.63v-4.73c0-.91-.73-1.64-1.63-1.64z" opacity=".2"/><path fill="#FFA726" d="M12.22 7.17c1.19-3.24 7.04-3.74 10.05-2.65.13.05.27.1.39.16l74.1 33.65c2.02-1.09 4.98-1.17 7.85 0 4.31 1.76 6.8 5.66 5.56 8.71-1.24 3.06-5.75 4.11-10.06 2.36-2.87-1.17-4.93-3.29-5.62-5.49L17.95 16.25c-3.01-1.09-6.92-5.84-5.73-9.08z"/><path d="M18.9 7c.89 0 1.75.12 2.35.34.06.02.13.05.18.07l74.1 33.65.38.17-.4-.14-76.54-27.67c-1.11-.4-2.82-1.98-3.62-3.68-.34-.73-.41-1.3-.32-1.53C15.22 7.71 16.7 7 18.9 7m81.54 33.48c.98 0 2.03.22 3.04.62 1.49.61 2.76 1.59 3.46 2.7.24.37.76 1.33.44 2.1-.33.8-1.57 1.34-3.1 1.34-.99 0-2.04-.22-3.05-.63-1.92-.78-3.44-2.2-3.89-3.61l-.43-1.37 1.26-.68c.6-.3 1.4-.47 2.27-.47M18.9 4c-2.8 0-5.85.93-6.68 3.17-1.19 3.24 2.73 7.99 5.73 9.08l76.53 27.66c.69 2.19 2.74 4.32 5.62 5.49 1.41.58 2.85.85 4.18.85 2.74 0 5.05-1.15 5.88-3.21 1.24-3.06-1.24-6.96-5.56-8.71-1.41-.57-2.84-.85-4.17-.85-1.38 0-2.65.29-3.69.85L22.66 4.68c-.12-.06-.26-.11-.39-.16-.93-.34-2.13-.52-3.37-.52z" opacity=".2"/></svg><svg style="enable-background:new 0 0 128 128" viewBox="0 0 128 128" xml:space="preserve" id="1FA95" xmlns="http://www.w3.org/2000/svg"><circle cx="38.1" cy="89.92" r="34.07" style="fill:#553a30"/><linearGradient id="aga" x1="61.038" x2="20.886" y1="56.916" y2="16.767" gradientTransform="matrix(1 0 0 -1 -4.02 127.922)" gradientUnits="userSpaceOnUse"><stop offset="0" style="stop-color:#fff"/><stop offset="1" style="stop-color:#fff8e1"/></linearGradient><path d="M38.1 118.87c-15.96 0-28.95-12.99-28.95-28.95s13-28.95 28.95-28.95 28.95 12.99 28.95 28.95-12.99 28.95-28.95 28.95z" style="fill:url(#aga)"/><path d="M38.1 62.04c15.37 0 27.88 12.5 27.88 27.88S53.47 117.8 38.1 117.8s-27.88-12.5-27.88-27.88S22.74 62.04 38.1 62.04m0-2.15c-16.59 0-30.03 13.44-30.03 30.03s13.44 30.03 30.03 30.03 30.03-13.44 30.03-30.03S54.69 59.89 38.1 59.89z" style="fill:#bdbdbd"/><circle cx="38.1" cy="89.92" r="31.65" style="fill:none;stroke:#bdbdbd;stroke-width:5;stroke-miterlimit:10;stroke-dasharray:7.5,8.5"/><path d="M29.2 88.31 39.69 98.8" style="fill:none;stroke:#6d4c41;stroke-width:4;stroke-linecap:round;stroke-miterlimit:10"/><path d="m22.95 110.44-5.39-5.4 8.12-10.54 7.82 7.82z" style="fill:#9e9e9e"/><path d="M5.16 98.63c1.1-.12 10.46-.52 10.02-9.65-.31-6.62 2.07-9.63 6.33-13.79 5.28-5.16-.75-12.86-1.55-14.12-2.47 1.56-5.01 3.63-7.16 6.02-7.99 8.88-10.43 20.78-7.64 31.54z" style="fill:#6d4c41"/><linearGradient id="agb" x1="61.233" x2="124.153" y1="57.051" y2="119.969" gradientTransform="matrix(1 0 0 -1 -4.02 127.922)" gradientUnits="userSpaceOnUse"><stop offset=".22" style="stop-color:#6d4c41"/><stop offset=".357" style="stop-color:#725044"/><stop offset=".51" style="stop-color:#7f5a4e"/><stop offset=".67" style="stop-color:#956c5e"/><stop offset=".835" style="stop-color:#b48574"/><stop offset="1" style="stop-color:#dba48f"/></linearGradient><path d="m62.6 78.39 46-51.75c1.61-1.61 2.43-5.21.24-7.5-2.35-2.47-6.18-1.56-7.79.04L49.71 65.47s4.68 4.1 6.74 6.16c2.13 2.12 6.15 6.76 6.15 6.76z" style="fill:url(#agb)"/><path d="M120.51 7.45c-3.47-3.5-9.29-4.81-12.4-1.68-1.43 1.45-1.94 3.16-2.23 5.44-.18 1.45-.8 2.09-2.18 2.47a5.904 5.904 0 0 0-3.25 2.24c-1 1.36-1.36 3.06-1.09 4.79l7.56 7.63c2 .32 4.43.17 5.87-1.29a6.07 6.07 0 0 0 1.54-2.7c.37-1.38 1.02-1.99 2.44-2.18 2.26-.29 3.97-.8 5.4-2.24 3.11-3.13 1.81-8.98-1.66-12.48z" style="fill:#553a30"/></svg><svg style="enable-background:new 0 0 128 128" viewBox="0 0 128 128" xml:space="preserve" id="1FA97" xmlns="http://www.w3.org/2000/svg"><path d="M110.65 19.14c-.29-.13.43-1.31-10.57-1.61-.96-.03-4.13 1.66-7.75 1.71-3.75.05-6.1-1.51-7.36-2.72-.56-.54-1.45-.4-1.85.26-.71 1.19-2.06 2.73-4.54 3.62-2.87 1.03-5.46-.09-6.92-1-.61-.38-1.43-.11-1.7.56-.64 1.59-2.09 4.05-5.22 5.23-2.85 1.08-5.14.18-6.55-.74a1.17 1.17 0 0 0-1.79.77c-.39 2.09-1.33 5.18-3.61 6.41-2.72 1.46-5.33.52-6.98-.46-.76-.46-1.74.02-1.81.91-.16 2.39-.82 6.11-3.18 8.2-2.55 2.26-6.4 1.65-8.53 1.07-.75-.2-1.47.36-1.48 1.14-.02 1.89-.33 4.96-1.93 6.67-2.15 2.29-5.65 2.88-5.65 2.88L73.31 101c1.17-1.25 7.92-10.42 26.08-13.62 1.73-.31 9.52-1.32 10.27-1.82 1.02-.69.02-7.39.07-9.03l.39-14.2c.25-9.26.51-18.52.76-27.78.09-3.22.18-6.45.26-9.67.03-1.16.21-2.41.1-3.57-.12-1.46.06-1.88-.59-2.17z" style="fill:#fce8b2"/><path d="M31.26 41.57c-.26.21-.44.54-.45.92-.02 1.89-.33 4.96-1.93 6.67-.06.06-.12.11-.17.17l48.47 47.72-45.92-55.48zM44.71 31.1c-.38.16-.67.51-.71.98-.16 2.39-.82 6.11-3.18 8.2l-.15.12c11.92 15.48 40.57 53.09 40.57 53.09L44.71 31.1zm11.69-5.88c-.39 2.09-1.33 5.18-3.61 6.41-.08.04-.15.06-.23.1C60.07 46.04 77.3 78.45 84.6 92.16l.6-.3L57.01 24.4c-.3.16-.54.45-.61.82zm13.56-5.26c-.62 1.56-2.04 3.94-5.03 5.15 5.39 14.95 18.61 50.29 24.14 65.06.22-.08.45-.16.67-.25L71.02 19.24c-.45.01-.88.27-1.06.72zm13.16-3.18c-.71 1.19-2.06 2.73-4.54 3.62-.15.05-.3.08-.45.12l14.31 68.5c.44-.13.89-.27 1.35-.39l-9.97-72.39c-.29.08-.54.26-.7.54zm16.41.84c-1.33.34-4.1 1.58-7.2 1.62-.38.01-.74-.02-1.1-.04 1.15 17.13 3.54 52.75 4.91 68.83.25-.06.51-.11.77-.17.12-3.94.17-9.04.17-9.04l2.45-61.2z" style="fill:#ffbd66"/><path d="M78.41 97.6c-.46 0-.91-.19-1.23-.56L30.52 42.87c-.58-.68-.51-1.7.17-2.28.68-.58 1.7-.51 2.28.17l46.67 54.17a1.616 1.616 0 0 1-1.23 2.67zm3.92-2.58c-.55 0-1.08-.28-1.38-.78L43.03 31.82a1.62 1.62 0 0 1 .54-2.22 1.62 1.62 0 0 1 2.22.54l37.92 62.42a1.62 1.62 0 0 1-1.38 2.46zm2.45-2.9L55.77 25.35c-.35-.82.02-1.77.84-2.13.82-.35 1.77.02 2.13.84l29.01 66.77s.42 1.34-.91 1.98c-1.37.67-2.06-.69-2.06-.69zm5.73-.56c-.71 0-1.36-.47-1.56-1.18l-19.6-70.12c-.24-.86.26-1.75 1.12-1.99.86-.24 1.75.26 1.99 1.12l19.6 70.12a1.613 1.613 0 0 1-1.55 2.05zm3.73-1.12c-.79 0-1.49-.59-1.6-1.4l-10-72.17c-.12-.89.5-1.7 1.38-1.82.88-.13 1.7.5 1.82 1.38l10 72.17c.12.88-.5 1.7-1.38 1.82-.07.01-.14.02-.22.02z" style="fill:#6d4c41"/><path d="M96.48 87.37c-.03 1.33.99 2.44 2.32 2.51l15.38.59a8.38 8.38 0 0 0 8.6-8.16l1.46-55.94a8.38 8.38 0 0 0-8.16-8.6l-15.11-.57a2.585 2.585 0 0 0-2.72 2.51l-1.77 67.66zm-29.57 22.19-9.75 10.07a4.395 4.395 0 0 1-6.22.1L5.1 75.34a4.395 4.395 0 0 1-.1-6.22l9.75-10.07a4.395 4.395 0 0 1 6.22-.1l45.83 44.39c1.75 1.69 1.8 4.47.11 6.22z" style="fill:#cf381a"/><path d="M9.83 69.85a3.999 3.999 0 0 0 .09 5.66 3.98 3.98 0 0 0 3.35 1.07c-.13 1.19.25 2.42 1.18 3.31a3.98 3.98 0 0 0 3.35 1.07c-.13 1.19.25 2.42 1.18 3.31a3.98 3.98 0 0 0 3.35 1.07c-.13 1.19.25 2.42 1.18 3.31a3.98 3.98 0 0 0 3.35 1.07c-.13 1.19.25 2.42 1.18 3.31s2.16 1.24 3.35 1.07c-.13 1.19.25 2.42 1.18 3.31a3.98 3.98 0 0 0 3.35 1.07c-.13 1.19.25 2.42 1.18 3.31s2.16 1.24 3.35 1.07c-.13 1.19.25 2.42 1.18 3.31s2.16 1.24 3.35 1.07c-.13 1.19.25 2.42 1.18 3.31s2.16 1.24 3.35 1.07c-.13 1.19.25 2.42 1.18 3.31a3.999 3.999 0 0 0 5.66-.09l9.8-10.12-46.46-45-9.86 10.13z" style="fill:#822322"/><path d="M10.64 69.01a3.999 3.999 0 0 0 .09 5.66 3.98 3.98 0 0 0 3.35 1.07c-.13 1.19.25 2.42 1.18 3.31a3.98 3.98 0 0 0 3.35 1.07c-.13 1.19.25 2.42 1.18 3.31a3.98 3.98 0 0 0 3.35 1.07c-.13 1.19.25 2.42 1.18 3.31a3.98 3.98 0 0 0 3.35 1.07c-.13 1.19.25 2.42 1.18 3.31a3.98 3.98 0 0 0 3.35 1.07c-.13 1.19.25 2.42 1.18 3.31s2.16 1.24 3.35 1.07c-.13 1.19.25 2.42 1.18 3.31a3.98 3.98 0 0 0 3.35 1.07c-.13 1.19.25 2.42 1.18 3.31s2.16 1.24 3.35 1.07c-.13 1.19.25 2.42 1.18 3.31a3.98 3.98 0 0 0 3.35 1.07c-.13 1.19.25 2.42 1.18 3.31a3.999 3.999 0 0 0 5.66-.09l9.8-10.12-46.46-45-9.86 10.13z" style="fill:#fff3e0"/><path d="m13.38 66.11 46.45 44.99 7.06-7.22-46.46-45z" style="fill:#ffcc80"/><path d="m24.06 66.79-7.11 7.34c-.31.32-.83.33-1.15.02l-1.13-1.1a.818.818 0 0 1-.02-1.15l7.11-7.34c.31-.32.83-.33 1.15-.02l1.13 1.1c.32.31.33.83.02 1.15zm3.09 3-7.11 7.34c-.31.32-.83.33-1.15.02l-1.13-1.1a.818.818 0 0 1-.02-1.15l7.11-7.34c.31-.32.83-.33 1.15-.02l1.13 1.1c.32.31.33.82.02 1.15zm6.18 5.99-7.11 7.34c-.31.32-.83.33-1.15.02l-1.13-1.1a.818.818 0 0 1-.02-1.15l7.11-7.34c.31-.32.83-.33 1.15-.02l1.13 1.1a.8.8 0 0 1 .02 1.15zm3.1 2.99-7.11 7.34c-.31.32-.83.33-1.15.02l-1.13-1.1a.818.818 0 0 1-.02-1.15l7.11-7.34c.31-.32.83-.33 1.15-.02l1.13 1.1c.32.32.33.83.02 1.15zm3.09 3-7.11 7.34c-.31.32-.83.33-1.15.02l-1.13-1.1a.818.818 0 0 1-.02-1.15l7.11-7.34c.31-.32.83-.33 1.15-.02l1.13 1.1c.32.31.33.83.02 1.15zm6.18 5.99-7.1 7.34c-.31.32-.83.33-1.15.02l-1.13-1.1a.818.818 0 0 1-.02-1.15l7.11-7.34c.31-.32.83-.33 1.15-.02l1.13 1.1c.32.31.33.83.01 1.15zm3.1 2.99-7.11 7.34c-.31.32-.83.33-1.15.02l-1.13-1.1a.818.818 0 0 1-.02-1.15l7.11-7.34c.31-.32.83-.33 1.15-.02l1.13 1.1c.32.32.33.83.02 1.15zm6.18 6-7.11 7.34c-.31.32-.83.33-1.15.02l-1.13-1.1a.818.818 0 0 1-.02-1.15l7.11-7.34c.31-.32.83-.33 1.15-.02l1.13 1.1a.8.8 0 0 1 .02 1.15zm3.1 2.99-7.11 7.34c-.31.32-.83.33-1.15.02l-1.13-1.1a.818.818 0 0 1-.02-1.15l7.11-7.34c.31-.32.83-.33 1.15-.02l1.13 1.1c.32.31.33.83.02 1.15zm3.09 3-7.11 7.34c-.31.32-.83.33-1.15.02l-1.13-1.1a.818.818 0 0 1-.02-1.15l7.11-7.34c.31-.32.83-.33 1.15-.02l1.13 1.1c.32.31.33.82.02 1.15z" style="fill:#6d4238"/><path d="m74.47 101.75-8.25 8.52a3 3 0 0 1-4.24.07L14.14 63.99a3 3 0 0 1-.07-4.24l8.25-8.52a3 3 0 0 1 4.24-.07L74.41 97.5a3.003 3.003 0 0 1 .06 4.25z" style="fill:#cf381a"/><path d="m69.98 100.06-5.52 5.7a3 3 0 0 1-4.24.07L16.7 63.68a3 3 0 0 1-.07-4.24l5.52-5.7a3 3 0 0 1 4.24-.07L69.9 95.82a2.973 2.973 0 0 1 .08 4.24zm41.28-13.21-6.8-.15a6.162 6.162 0 0 1-6.02-6.29l1.24-56.1c.08-3.4 2.89-6.09 6.29-6.02l6.8.15c3.4.08 6.09 2.89 6.02 6.29l-1.24 56.1a6.162 6.162 0 0 1-6.29 6.02z" style="fill:#ff5722"/><circle cx="104.18" cy="44.61" r="2.18" style="fill:#6d4238"/><circle cx="103.95" cy="53.93" r="2.18" style="fill:#6d4238"/><circle cx="103.72" cy="63.25" r="2.18" style="fill:#6d4238"/><circle cx="103.49" cy="72.56" r="2.18" style="fill:#6d4238"/><circle cx="114.38" cy="35.18" r="2.18" style="fill:#6d4238"/><circle cx="114.15" cy="44.5" r="2.18" style="fill:#6d4238"/><circle cx="113.92" cy="53.81" r="2.18" style="fill:#6d4238"/><circle cx="113.68" cy="63.13" r="2.18" style="fill:#6d4238"/><circle cx="109.28" cy="39.9" r="2.18" style="fill:#6d4238"/><circle cx="109.05" cy="49.21" r="2.18" style="fill:#6d4238"/><circle cx="108.82" cy="58.53" r="2.18" style="fill:#6d4238"/><circle cx="108.59" cy="67.85" r="2.18" style="fill:#6d4238"/></svg><svg style="enable-background:new 0 0 128 128" viewBox="0 0 128 128" xml:space="preserve" id="1FA98" xmlns="http://www.w3.org/2000/svg"><path d="M50.26 115.48c1.31-6.35 4.55-16.81 12.45-26.55C72.39 77 59.9 68.95 59.9 68.95S49.44 58.4 39.76 70.34c-7.89 9.74-17.45 15.07-23.39 17.67-4.69 2.05-7.37 7.08-6.3 12.08.97 4.54 3.89 9.98 10.94 15.69.2.16.38.29.58.44.19.16.35.32.55.48 7.05 5.71 12.97 7.44 17.61 7.45 5.11.01 9.47-3.66 10.51-8.67z" style="fill:#ef8720"/><path d="M114.73 61.7 85.19 37.75 55.64 13.8 38.71 55.56c-1.5 4.52-3.41 14.56 10.3 25.68s24.27 8.08 28.38 5.67l.04.04 37.3-25.25z" style="fill:#ef8720"/><path d="M55.6 30.49c-.19 1.34.25 2.71.89 3.9 1.08 2 2.74 3.69 4.74 4.78m2.84 1.56c-.11.95.33 1.87.83 2.69 1.84 3.01 4.76 5.58 8.26 6.02m2.67 1.93c.66 2.14 2.04 4.05 3.86 5.34s4.09 1.96 6.32 1.86m2.97 1.51c-.09.53.1 1.06.35 1.53 1.22 2.25 3.81 3.39 6.31 3.93.89.19 1.88.31 2.68-.14m2.18.49c.86 1.42 2.51 2.16 4.14 2.51.67.14 1.48.18 1.92-.34M51.95 22.53c-.43.27-.54.85-.55 1.37a6.12 6.12 0 0 0 2.39 4.84" style="fill:none;stroke:#424242;stroke-width:1.2121;stroke-linecap:round;stroke-miterlimit:10"/><ellipse cx="84.7" cy="38.6" rx="14.87" ry="40.95" style="fill:#ffcc80" transform="rotate(-50.974 84.702 38.598)"/><path d="m89.33 52.57-.14.26-3.55 6.46s1.76 1.13 1.99.54c.23-.6 4.28-4.93 4.28-4.93M56.75 16.42c-.49 1.15-1.69 1.8-2.52 3.27s-.37 1.92-.98 2.79c-.97 1.38-1.72 1-2.07.72-.82-.66-.7-2.64 1.29-5.2.38-.49 1.62-2.09 1.86-2.41" style="fill:#424242"/><path d="M51.98 21.71S40.53 47.49 37.76 56.56c-1.79 5.87.83 13.37.83 13.37" style="fill:none;stroke:#424242;stroke-width:1.8182;stroke-linecap:round;stroke-miterlimit:10"/><path d="m60.16 24.16.72 1.98s-.46.65-1.34 1.25c-.32.22-.65.44-.93.63-.51.34-.9.84-1.07 1.43-.13.46-.32.98-.58 1.22-.5.47-1.78 1.39-1.9 1.22s-1.11-1.73-1.11-1.73l2.49-3.34 2.3-3.11 1.42.45zm51.62 36.86c-1.03.72-1.41 2.02-2.68 3.14-1.27 1.12-1.8.75-2.53 1.54-1.15 1.24-.62 1.89-.27 2.17.82.66 2.72.14 4.82-2.34.4-.47 1.71-2.02 1.97-2.32" style="fill:#424242"/><path d="M107.52 66.73S84.68 83.29 76.36 87.86c-6.26 3.43-15.28 1.27-15.28 1.27" style="fill:none;stroke:#424242;stroke-width:1.8182;stroke-linecap:round;stroke-miterlimit:10"/><path d="m67.35 35.16 1.91 1.55-4.75 4.83-1.06-2.08zm35.24 24c-.79-.11-1.58.28-1.93.99-.06.13-.13.27-.19.41-.19.46-.38.93-.52 1.3-.17.43-.48.78-.9.99-.46.23-1.04.57-1.25.91-.36.59-1 2.03-.8 2.11.07.03.36.14.7.26.73.28 1.56.07 2.08-.52l1.9-2.15 2.57-2.89-.28-.49c-.3-.5-.81-.84-1.38-.92z" style="fill:#424242"/><path d="M57.76 7.93c5.51-6.79 20.09-5.89 41.63 11.57s26.15 32.12 20.65 38.91c-5.51 6.79-23.36 1.44-40.76-12.65S52.25 14.72 57.76 7.93z" style="fill:#ffcc80"/><path d="M119.43 59.17c-5.51 6.79-23.36 1.44-40.76-12.65S51.64 15.48 57.15 8.69" style="fill:none;stroke:#e64a19;stroke-width:2.4243;stroke-linecap:round;stroke-miterlimit:10"/><ellipse cx="91.07" cy="30.49" rx="12.58" ry="34.65" style="fill:#fef6e0" transform="rotate(-50.974 91.068 30.491)"/><path d="M69.35 50.83a4.174 4.174 0 0 1 5.87-.61 4.174 4.174 0 0 1 .61 5.87c-1.26 1.55-19.85 19.53-25.51 25.17-.18.18-.46-.05-.32-.26 4.35-6.7 18.1-28.62 19.35-30.17z" style="fill:none;stroke:#424242;stroke-width:2.4243;stroke-linecap:round;stroke-miterlimit:10"/><path d="M77.5 50.22c.22-.81.76-1.49 1.51-1.87.67-.34 1.43-.79 1.75-1.2.46-.57.37-1.4-.19-1.86L78.97 44c-.57-.46-1.29-.51-1.86.19-.39.48-.67 1.28-.84 1.97-.21.8-.76 1.48-1.49 1.86-.66.34-1.16.48-1.49.9-.46.57-.61 1.44-.05 2.15.56.72 1.05 1.02 1.59 1.29.71.35 1.59.13 2.1-.49.34-.42.38-.94.57-1.65z" style="fill:#424242"/><path d="M86.78 65.62c3.57-2.8 2.86-4.94 1.07-6.39-1.79-1.45-4.13-.9-5.87.61-3.47 3.03-20.1 21.79-24.78 27.09-.16.18.08.44.27.29 5.96-4.37 27.75-20.37 29.31-21.6zm8.56 6.05c7.28-4.66 6.35-5.99 4.26-6.95-2.59-1.19-9.13 4.48-9.13 4.48l-28.1 20.97c2.64 1.12 31.02-17.26 32.97-18.5z" style="fill:none;stroke:#424242;stroke-width:1.8182;stroke-linecap:round;stroke-miterlimit:10"/><path d="M103.05 63.63c1.3-1.43 2.09-.53 3.08-2.32.69-1.24.03-2.07-.74-2.54s-2.58-1.37-3.65-.01c0 0 1.16.59.61 1.79-.31.67-1.85 1.56-2.34 2.42-1.01 1.76-1.64 2.3-2.24 2.64-.35.19-.81.24-.48.66.45.58 1.27.94 1.96 1.15 1.05.32 2.2-.24 2.93-1.46.39-.65.03-1.41.87-2.33zM90.8 59.29c.16-.82.05-1.21.76-1.65.64-.39 1.49-.72 2.18-1.66.75-1.02-.44-2.18-1.39-2.8-.95-.62-1.77-1.15-3.02-.61 0 0 .81.75.32 2.14-.52 1.48-1.68 2.53-2.51 3.1-.94.64-1.5 1.48-1.5 1.48s.1.59.8 1.18c1.08.92 1.66.96 2.22 1 1.3.09 1.99-1.38 2.14-2.18zm25.7 3.26c.52-1.82-.19-2.8-1.85-3.04-1.81-.26-2.84 1.38-2.84 1.38s1.67.11.94 1.51c-.48.92-2.91 2.13-3.42 3.06-.81 1.48-2.73 2.99-2.75 3.12 0 0 2.67.45 4.45-1.22.92-.86.62-1.8 2.22-2.55 1.21-.57 2.99-1.33 3.25-2.26z" style="fill:#424242"/><path d="M57.43 41.83c2-4.07 4.24-3.82 6.03-2.37s1.74 3.85.61 5.87c-2.25 4.03-17.16 24.18-21.38 29.85-.14.19-.44.02-.34-.2 3.05-6.74 14.2-31.37 15.08-33.15zm-7.7-7.12c3.05-8.09 4.55-7.45 5.92-5.6 1.7 2.29-2.49 9.86-2.49 9.86l-14.7 31.82c-1.63-2.34 10.46-33.92 11.27-36.08z" style="fill:none;stroke:#424242;stroke-width:1.8182;stroke-linecap:round;stroke-miterlimit:10"/><path d="M56.01 25.5c1.13-1.57.08-2.15 1.63-3.49 1.07-.93 2.01-.46 2.64.2s1.87 2.24.76 3.56c0 0-.82-1.02-1.88-.22-.59.44-1.15 2.13-1.89 2.79-1.52 1.35-1.91 2.08-2.12 2.74-.12.38-.06.84-.55.61-.66-.32-1.19-1.05-1.53-1.68-.53-.97-.22-2.2.82-3.17.57-.52 1.39-.33 2.12-1.34zm6.76 11.1c.77-.33 1.19-.32 1.47-1.11.25-.71.39-1.61 1.17-2.48.84-.94 2.22-.02 3.03.78.8.81 1.49 1.49 1.22 2.83 0 0-.9-.63-2.16.13-1.34.82-2.12 2.16-2.51 3.1-.43 1.05-1.14 1.78-1.14 1.78s-.6.02-1.32-.54c-1.12-.87-1.33-1.49-1.4-2.01-.21-1.55.97-2.19 1.64-2.48zm-8.49-24.49c1.67-.89 2.78-.4 3.36 1.18.63 1.72-.47 3-.47 3s-.75-1.55-1.96-.55c-.8.66-1.48 3.29-2.29 3.98-1.28 1.09-2.36 3.29-2.48 3.34 0 0-.99-2.51.27-4.6.66-1.08 1.63-.98 2.03-2.7.31-1.29.68-3.19 1.54-3.65zm-9.26 73.98c-9.19-7.45-9.89-11.74-9.94-12.2-.09-.85.53-1.61 1.38-1.71.84-.09 1.59.5 1.7 1.33.03.16.87 3.73 8.82 10.17 8.36 6.78 13.51 7.28 13.56 7.29.85.07 1.49.81 1.42 1.66-.06.85-.79 1.49-1.64 1.43-.25-.02-6.06-.49-15.3-7.97z" style="fill:#424242"/><path d="M47.04 84.2C37.92 76.8 35.87 71.22 35.79 71c-.3-.8.1-1.69.9-2 .8-.3 1.69.1 1.99.89.04.1 1.94 4.66 10.25 11.4 8.37 6.78 14.11 7.61 14.17 7.62.85.11 1.45.89 1.34 1.73-.11.85-.87 1.45-1.72 1.34-.26-.02-6.54-.37-15.68-7.78z" style="fill:#424242"/></svg></svg>