<?xml version="1.0" encoding="utf-8"?><svg viewBox="0 0 128 128" xmlns="http://www.w3.org/2000/svg" xmlns:xlink="http://www.w3.org/1999/xlink"><style>:root>svg{display:none}:root>svg:target{display:block}</style><svg viewBox="0 0 128 128" id="1F4BC" xmlns="http://www.w3.org/2000/svg"><linearGradient id="aaa" x1="64" x2="64" y1="11.356" y2="38.041" gradientUnits="userSpaceOnUse"><stop offset=".001" stop-color="#A1887F"/><stop offset=".238" stop-color="#927971"/><stop offset=".693" stop-color="#6C524B"/><stop offset="1" stop-color="#4E342E"/></linearGradient><path fill="url(#aaa)" d="M79.46 20.88V33.2H48.54V20.88h30.92m4.18-9.42H44.36c-2.89 0-5.23 2.34-5.23 5.23v20.69c0 2.89 2.34 5.23 5.23 5.23h39.28c2.89 0 5.23-2.34 5.23-5.23V16.69c0-2.89-2.34-5.23-5.23-5.23z"/><linearGradient id="aab" x1="64" x2="64" y1="34.378" y2="116.06" gradientUnits="userSpaceOnUse"><stop offset="0" stop-color="#4E342E"/><stop offset=".424" stop-color="#503630"/><stop offset=".618" stop-color="#583D36"/><stop offset=".765" stop-color="#644941"/><stop offset=".888" stop-color="#765950"/><stop offset=".993" stop-color="#8D6E63"/></linearGradient><path fill="url(#aab)" d="M14.22 33.44h99.57a8.03 8.03 0 018.03 8.03v67.16a8.03 8.03 0 01-8.03 8.03H14.22a8.03 8.03 0 01-8.03-8.03V41.47a8.03 8.03 0 018.03-8.03z"/><linearGradient id="aac" x1="64" x2="64" y1="29.93" y2="80.463" gradientUnits="userSpaceOnUse"><stop offset=".007" stop-color="#BCAAA4"/><stop offset="1" stop-color="#6D4C41"/></linearGradient><path fill="url(#aac)" d="M116.88 29.78H11.12c-3.77 0-6.82 3.05-6.82 6.82v27.27c0 1.08.54 2.07 1.44 2.68C19 75.54 41.67 80.44 64 80.89c22.33-.45 45-5.35 58.26-14.34.89-.6 1.44-1.6 1.44-2.68V36.6c0-3.76-3.05-6.82-6.82-6.82z"/><path fill="#FFCA28" d="M72.45 79.94v8.71c0 .49-.73.89-1.63.89H57.18c-.9 0-1.63-.4-1.63-.89v-8.71c0-.49.73-.89 1.63-.89h13.64c.9 0 1.63.39 1.63.89z"/><path fill="#F9A825" d="M74.49 77.2v1.96c0 .9-.73 1.63-1.63 1.63H55.14c-.9 0-1.63-.73-1.63-1.63V77.2c0-.9.73-1.63 1.63-1.63h17.71c.91 0 1.64.73 1.64 1.63z"/><path fill="#424242" d="M83.64 14.46c1.23 0 2.23 1 2.23 2.23v13.09c0 1.66 1.34 3 3 3h28.01a3.82 3.82 0 013.82 3.82v27.27c0 .07-.04.14-.12.19-.04.03-.08.05-.13.08-.1.06-.2.12-.3.19-.84.56-1.35 1.5-1.35 2.5v41.8a5.04 5.04 0 01-5.03 5.03H14.22a5.04 5.04 0 01-5.03-5.03v-41.8c0-1.01-.51-1.95-1.35-2.5-.1-.06-.2-.13-.3-.19-.04-.03-.09-.05-.13-.08-.07-.05-.12-.12-.12-.19V36.6a3.82 3.82 0 013.82-3.82h28.01c1.66 0 3-1.34 3-3V16.69c0-1.23 1-2.23 2.23-2.23h39.29m-35.1 18.32h30.92c1.66 0 3-1.34 3-3v-8.9c0-1.66-1.34-3-3-3H48.54c-1.66 0-3 1.34-3 3v8.9c0 1.66 1.35 3 3 3m35.1-21.32H44.36c-2.89 0-5.23 2.34-5.23 5.23v13.09H11.12c-3.77 0-6.82 3.05-6.82 6.82v27.27c0 1.08.54 2.07 1.44 2.68.14.1.3.19.45.28v41.8c0 4.44 3.6 8.03 8.03 8.03h99.57a8.03 8.03 0 008.03-8.03v-41.8c.15-.1.31-.19.45-.28.89-.6 1.44-1.6 1.44-2.68V36.6c0-3.77-3.05-6.82-6.82-6.82H88.87V16.69c0-2.89-2.34-5.23-5.23-5.23zm-35.1 18.32v-8.9h30.91v8.9H48.54z" opacity=".2"/></svg><svg viewBox="0 0 128 128" id="1F4C1" xmlns="http://www.w3.org/2000/svg"><path fill="#946134" d="M90.1 34.4H63.2c-2 0-3.9-1.6-4.3-3.5l-1.4-6.7c-.4-2 .8-3.5 2.8-3.5h26.9c2 0 3.9 1.6 4.3 3.5l1.4 6.7c.5 1.9-.8 3.5-2.8 3.5z"/><path fill="#ff8f00" d="M66 34.4H39.1c-2 0-3.9-1.6-4.3-3.5l-1.4-6.7c-.4-2 .8-3.5 2.8-3.5h26.9c2 0 3.9 1.6 4.3 3.5l1.4 6.7c.4 1.9-.8 3.5-2.8 3.5z"/><linearGradient id="aba" x1="64.05" x2="64.05" y1="734.607" y2="837.79" gradientTransform="translate(0 -713.89)" gradientUnits="userSpaceOnUse"><stop offset="0" stop-color="#ffc107"/><stop offset=".189" stop-color="#f1af06"/><stop offset=".569" stop-color="#cd7f02"/><stop offset=".723" stop-color="#bd6a00"/></linearGradient><path fill="url(#aba)" d="M7.4 20.6c-1.5.2-2.7 1.6-2.7 3-.1 39.6-.1 54.8-.1 97.5 0 1.6 1.4 3.1 3.1 3.1l114.6-1.5s1.2-80.9 1.2-85.4c0-3.5-2.9-6.4-6.4-6.4H45.6c-1.4 0-2.7-.9-3.2-2.3-.6-1.7-1.5-4.1-2.2-6.3-.6-1.6-3-1.6-3.7-1.6-10.2-.1-19-.1-29.1-.1z"/><linearGradient id="abb" x1="68.35" x2="68.35" y1="754.065" y2="837.97" gradientTransform="translate(0 -713.89)" gradientUnits="userSpaceOnUse"><stop offset="0" stop-color="#ffee58"/><stop offset=".285" stop-color="#ffea54"/><stop offset=".596" stop-color="#fddc48"/><stop offset=".918" stop-color="#fcc733"/><stop offset="1" stop-color="#fbc02d"/></linearGradient><path fill="url(#abb)" d="M119.4 124.2H17.3c-2.2 0-4-1.8-4-4V44.5c0-2.2 1.8-4 4-4h102.1c2.2 0 4 1.8 4 4v75.7c0 2.2-1.7 4-4 4z"/><path fill="#424242" d="M87.2 23.6c.5 0 1.2.6 1.4 1.2l1.4 6.6c.3 1.4 1.5 2.4 2.9 2.4H117c1.9 0 3.4 1.5 3.4 3.4 0 .7 0 3.1-.1 7.1 0 .2 0 .4.1.6v74.6c0 .5-.2.9-.5 1.2-.2.2-.6.5-1.2.5H15.5c-.2 0-.4-.1-.6-.1l-7.3.1-.1-.1c0-42.4 0-57.6.1-97.4l.1-.1h79.5m0-3H7.4c-1.5.2-2.7 1.6-2.7 3-.1 39.6-.1 54.8-.1 97.5 0 1.6 1.5 3.1 3 3.1l7.4-.1c.3.1.6.1 1 .1h102.8c1.4 0 2.6-.6 3.5-1.5.8-.8 1.2-1.9 1.2-3.2V45.2c0-.3 0-.6-.1-.8.1-3.9.1-6.5.1-7.2 0-3.5-2.9-6.4-6.4-6.4H92.9l-1.4-6.6c-.4-2-2.3-3.6-4.3-3.6z" opacity=".2"/></svg><svg viewBox="0 0 128 128" id="1F4C2" xmlns="http://www.w3.org/2000/svg"><path fill="#946134" d="M80.71 43.28H56.67c-1.75 0-3.47-1.42-3.84-3.16l-1.27-5.98c-.37-1.75.74-3.16 2.49-3.16h24.04c1.75 0 3.47 1.42 3.84 3.16l1.27 5.98c.37 1.74-.74 3.16-2.49 3.16z"/><path fill="#FF8F00" d="M59.2 43.28H35.16c-1.75 0-3.47-1.42-3.84-3.16l-1.27-5.98c-.37-1.75.74-3.16 2.49-3.16h24.04c1.75 0 3.47 1.42 3.84 3.16l1.27 5.98c.37 1.74-.74 3.16-2.49 3.16z"/><linearGradient id="aca" x1="57.385" x2="57.385" y1="31.062" y2="123.15" gradientUnits="userSpaceOnUse"><stop offset="0" stop-color="#FFC107"/><stop offset=".189" stop-color="#F1AF06"/><stop offset=".569" stop-color="#CD7F02"/><stop offset=".723" stop-color="#BD6A00"/></linearGradient><path fill="url(#aca)" d="M6.83 30.97c-1.32.15-2.43 1.39-2.42 2.72-.08 35.38-.08 48.95-.08 87.03 0 1.42 1.3 2.72 2.72 2.72h95.26c.39 0 .77-.1 1.12-.27.91-.43 1.45-1.39 1.54-2.39l5.46-62.71c.01-.08.01-.16.01-.24.05-4.36.02-7.97 0-12.04-.01-3.16-2.6-5.74-5.76-5.74H40.96c-1.29 0-2.43-.81-2.86-2.02-.54-1.52-1.3-3.66-2-5.6-.53-1.47-2.7-1.47-3.28-1.46H6.83z"/><linearGradient id="acb" x1="64.328" x2="64.328" y1="57.692" y2="123.49" gradientUnits="userSpaceOnUse"><stop offset="0" stop-color="#FFEE58"/><stop offset=".285" stop-color="#FFEA54"/><stop offset=".596" stop-color="#FDDC48"/><stop offset=".918" stop-color="#FCC733"/><stop offset="1" stop-color="#FBC02D"/></linearGradient><path fill="url(#acb)" d="M101.81 123.61H7.56c-2.33 0-3.71-1.72-3.09-3.85L21.5 61.8c.62-2.13 3.02-3.85 5.35-3.85h94.25c2.33 0 3.71 1.72 3.09 3.85l-17.03 57.96c-.63 2.13-3.02 3.85-5.35 3.85z"/><path fill="#424242" d="M78.09 33.97c.31 0 .82.4.9.79l1.26 5.93a2.996 2.996 0 002.93 2.38h21.48c1.49 0 2.75 1.26 2.76 2.75l.01 2.25c.01 3.19.03 6.2-.01 9.7v.06c-.04.82.26 1.62.82 2.21.57.59 1.35.93 2.17.93h10.68c.08 0 .15.01.21.01l-17.02 57.94c-.23.77-1.38 1.69-2.47 1.69H7.56c-.1 0-.18-.01-.23-.02v-.03c0-37.7.01-51.24.08-86.59H78.09m0-3H6.82c-1.32.15-2.43 1.39-2.42 2.72-.08 35.38-.08 48.95-.08 87.03 0 .08.02.17.03.25.11 1.53 1.35 2.64 3.21 2.64h94.25c2.33 0 4.72-1.72 5.35-3.85l17.03-57.96c.62-2.13-.76-3.85-3.09-3.85h-10.68c0-.04.01-.08.01-.12.05-4.36.02-7.97 0-12.04-.01-3.16-2.6-5.74-5.76-5.74H83.19l-1.26-5.93c-.37-1.73-2.09-3.15-3.84-3.15z" opacity=".2"/></svg><svg viewBox="0 0 128 128" id="1F4C5" xmlns="http://www.w3.org/2000/svg"><linearGradient id="ada" x1="64" x2="64" y1="51.633" y2="123.76" gradientUnits="userSpaceOnUse"><stop offset="0" stop-color="#fff"/><stop offset="1" stop-color="#C8C9CA"/></linearGradient><path fill="url(#ada)" d="M113.2 124H14.8c-5.52 0-10-4.48-10-10V28.59c0-5.76 4.67-10.43 10.43-10.43h97.53c5.76 0 10.43 4.67 10.43 10.43V114c.01 5.52-4.47 10-9.99 10z"/><path fill="#1E88E5" d="M123.2 51.88H4.8v-39.8c0-4.42 3.58-8 8-8h102.4c4.42 0 8 3.58 8 8v39.8z"/><path fill="#424242" d="M114.62 7c3.08 0 5.58 2.5 5.58 5.58V113.2c0 4.26-3.46 7.72-7.72 7.72H15.52c-4.26 0-7.72-3.46-7.72-7.72V12.58C7.8 9.5 10.3 7 13.38 7h101.24m0-3H13.38C8.64 4 4.8 7.84 4.8 12.58V113.2c0 5.92 4.8 10.72 10.72 10.72h96.96c5.92 0 10.72-4.8 10.72-10.72V12.58c0-4.74-3.84-8.58-8.58-8.58z" opacity=".2"/><g fill="#9E9E9E"><path d="M84.21 84.81h-2.79c-.64 0-1.17-.52-1.17-1.17v-2.63c0-.64.52-1.17 1.17-1.17h2.79c.64 0 1.17.52 1.17 1.17v2.63c0 .64-.52 1.17-1.17 1.17zM98.17 84.81h-2.79c-.64 0-1.17-.52-1.17-1.17v-2.63c0-.64.52-1.17 1.17-1.17h2.79c.64 0 1.17.52 1.17 1.17v2.63c0 .64-.53 1.17-1.17 1.17zM112.13 84.81h-2.79c-.64 0-1.17-.52-1.17-1.17v-2.63c0-.64.52-1.17 1.17-1.17h2.79c.64 0 1.17.52 1.17 1.17v2.63c-.01.64-.53 1.17-1.17 1.17zM84.21 97.14h-2.79c-.64 0-1.17-.52-1.17-1.17v-2.63c0-.64.52-1.17 1.17-1.17h2.79c.64 0 1.17.52 1.17 1.17v2.63c0 .64-.52 1.17-1.17 1.17zM98.17 97.14h-2.79c-.64 0-1.17-.52-1.17-1.17v-2.63c0-.64.52-1.17 1.17-1.17h2.79c.64 0 1.17.52 1.17 1.17v2.63c0 .64-.53 1.17-1.17 1.17zM112.13 97.14h-2.79c-.64 0-1.17-.52-1.17-1.17v-2.63c0-.64.52-1.17 1.17-1.17h2.79c.64 0 1.17.52 1.17 1.17v2.63c-.01.64-.53 1.17-1.17 1.17zM84.21 109.47h-2.79c-.64 0-1.17-.52-1.17-1.17v-2.63c0-.64.52-1.17 1.17-1.17h2.79c.64 0 1.17.52 1.17 1.17v2.63c0 .64-.52 1.17-1.17 1.17zM98.17 109.47h-2.79c-.64 0-1.17-.52-1.17-1.17v-2.63c0-.64.52-1.17 1.17-1.17h2.79c.64 0 1.17.52 1.17 1.17v2.63c0 .64-.53 1.17-1.17 1.17zM112.13 109.47h-2.79c-.64 0-1.17-.52-1.17-1.17v-2.63c0-.64.52-1.17 1.17-1.17h2.79c.64 0 1.17.52 1.17 1.17v2.63c-.01.64-.53 1.17-1.17 1.17z"/></g><g fill="#fff"><path d="M44.88 17.3h4.13v13.87c0 1.28-.28 2.4-.85 3.38s-1.36 1.73-2.39 2.26-2.19.8-3.48.8c-2.12 0-3.77-.54-4.96-1.62-1.18-1.08-1.78-2.6-1.78-4.58h4.16c0 .98.21 1.71.62 2.17.41.47 1.06.7 1.95.7.79 0 1.42-.27 1.89-.81s.7-1.31.7-2.31V17.3zM61.2 35.83c-.98 1.19-2.34 1.79-4.07 1.79-1.6 0-2.81-.46-3.65-1.38s-1.27-2.26-1.29-4.03v-9.76h3.98v9.63c0 1.55.71 2.33 2.12 2.33 1.35 0 2.28-.47 2.78-1.41V22.45h3.99v14.89h-3.74l-.12-1.51zM72.26 37.34h-3.99V16.2h3.99v21.14zM81.09 31.71l2.75-9.26h4.27l-5.99 17.21-.33.78c-.89 1.95-2.36 2.92-4.4 2.92-.58 0-1.17-.09-1.76-.26v-3.01l.61.01c.75 0 1.31-.12 1.69-.34.37-.23.66-.61.87-1.14l.47-1.23-5.22-14.93h4.28l2.76 9.25z"/></g><g fill="#2F2F2F"><path d="M34.82 110.54h-7.46V81.75l-8.9 2.75v-6.01l15.56-5.57h.8v37.62zM72.57 77.13l-14.53 33.41h-7.87l14.56-31.56H46.04v-6.01h26.53v4.16z"/></g></svg><svg viewBox="0 0 128 128" id="1F4C6" xmlns="http://www.w3.org/2000/svg"><path fill="#BDBDBD" d="M110.85 124.18h-93.7c-5.52 0-10-4.48-10-10V34.82c0-5.76 4.67-10.43 10.43-10.43h92.84c5.76 0 10.43 4.67 10.43 10.43v79.36c0 5.52-4.47 10-10 10z"/><path fill="#949494" d="M111.14 118.38H16.86c-5.37 0-9.72-4.35-9.72-9.72v3.4c0 5.37 4.35 9.72 9.72 9.72h94.27c5.37 0 9.72-4.35 9.72-9.72v-3.4c0 5.37-4.35 9.72-9.71 9.72z"/><path fill="#949494" d="M111.14 112.06H16.86c-5.37 0-9.72-4.35-9.72-9.72v3.4c0 5.37 4.35 9.72 9.72 9.72h94.27c5.37 0 9.72-4.35 9.72-9.72v-3.4c0 5.37-4.35 9.72-9.71 9.72z"/><path fill="#E0E0E0" d="M110.85 109.21h-93.7c-5.52 0-10-4.48-10-10v-70.1c0-5.76 4.67-10.43 10.43-10.43h92.84c5.76 0 10.43 4.67 10.43 10.43v70.1c0 5.52-4.47 10-10 10z"/><linearGradient id="aea" x1="64.041" x2="64.041" y1="49.08" y2="108.93" gradientUnits="userSpaceOnUse"><stop offset="0" stop-color="#fff"/><stop offset="1" stop-color="#C8C9CA"/></linearGradient><path fill="url(#aea)" d="M104.91 108.74H23.17c-7.58 0-13 .26-13-11.32V32.48c0-7.18 5.82-13 13-13h81.74c7.18 0 13 5.82 13 13v63.26c0 12.34-5.82 13-13 13z"/><path fill="#1E88E5" d="M120.85 48.41H7.15V13.68c0-4.42 3.58-8 8-8h97.71c4.42 0 8 3.58 8 8v34.73z"/><linearGradient id="aeb" x1="98.13" x2="108.67" y1="92.026" y2="104.97" gradientUnits="userSpaceOnUse"><stop offset="0" stop-color="#C8C9CA"/><stop offset=".182" stop-color="#C0C0C1"/><stop offset=".475" stop-color="#A9A9AA"/><stop offset=".838" stop-color="#848384"/><stop offset="1" stop-color="#717071"/></linearGradient><path fill="url(#aeb)" d="M113.1 103.24c7.95-8.97 7.75-14.1 7.75-14.1s-2.3 3.1-9.51 3.8c-4.48.44-12.4-2.82-12.4-2.82s.98 4.81-1.41 11.96c-1.94 5.81-8.09 10.03-8.09 10.03s14.77 1.16 23.66-8.87z"/><circle cx="26.2" cy="14.46" r="6.8" fill="#01579B"/><circle cx="101.52" cy="14.46" r="6.8" fill="#01579B"/><g fill="#BDBDBD"><path d="M19.74 3.83v8.03c0 3.65 2.96 6.6 6.6 6.6s6.6-2.96 6.6-6.6V3.83h-13.2zM95.06 3.83v8.03c0 3.65 2.96 6.6 6.6 6.6s6.6-2.96 6.6-6.6V3.83h-13.2z"/></g><path fill="#424242" d="M105.49 6.77a2.99 2.99 0 002.77 1.85h4.14c3 0 5.45 2.44 5.45 5.45v99.49c0 4.17-3.39 7.56-7.56 7.56H17.7c-4.17 0-7.56-3.39-7.56-7.56V14.07c0-3 2.44-5.45 5.45-5.45h4.15c1.25 0 2.32-.77 2.77-1.85h7.66a2.99 2.99 0 002.77 1.85h62.11c1.25 0 2.32-.77 2.77-1.85h7.67m2.77-3h-13.2v1.85H32.94V3.77h-13.2v1.85h-4.15c-4.66 0-8.45 3.78-8.45 8.45v99.49c0 5.83 4.73 10.56 10.56 10.56h92.59c5.83 0 10.56-4.73 10.56-10.56V14.07c0-4.66-3.78-8.45-8.45-8.45h-4.14V3.77z" opacity=".2"/><g fill="#fff"><path d="M47.3 17h4.07v13.66c0 1.26-.28 2.37-.83 3.33s-1.34 1.71-2.35 2.23c-1.02.52-2.16.78-3.44.78-2.09 0-3.71-.53-4.88-1.59s-1.75-2.56-1.75-4.51h4.09c0 .97.2 1.68.61 2.14s1.05.69 1.92.69c.78 0 1.4-.27 1.86-.8s.69-1.29.69-2.28V17zM63.38 35.24c-.97 1.17-2.3 1.76-4.01 1.76-1.57 0-2.77-.45-3.6-1.36-.83-.9-1.25-2.23-1.27-3.97v-9.61h3.92v9.49c0 1.53.7 2.29 2.09 2.29 1.33 0 2.24-.46 2.74-1.38V22.07h3.93v14.67h-3.69l-.11-1.5zM74.26 36.73h-3.93V15.91h3.93v20.82zM82.96 31.19l2.71-9.12h4.2l-5.9 16.94-.33.77c-.88 1.92-2.32 2.87-4.34 2.87-.57 0-1.15-.09-1.73-.26v-2.97l.6.01c.74 0 1.29-.11 1.66-.34s.65-.6.86-1.12l.46-1.21-5.14-14.71h4.22l2.73 9.14z"/></g><g fill="#2F2F2F"><path d="M52.21 102.13H44V70.41l-9.81 3.03v-6.63l17.15-6.14h.88v41.46zM93.81 65.32L77.8 102.13h-8.67l16.04-34.78H64.58v-6.63h29.23v4.6z"/></g></svg><svg viewBox="0 0 128 128" id="1F4C7" xmlns="http://www.w3.org/2000/svg"><linearGradient id="afa" x1="64.069" x2="64.069" y1="41.449" y2="126.53" gradientUnits="userSpaceOnUse"><stop offset="0" stop-color="#757575"/><stop offset="1" stop-color="#424242"/></linearGradient><path fill="url(#afa)" d="M113.04 41.82H15.09c-6.05 0-10.96 4.91-10.96 10.96v13.25c0 6.05 4.91 10.96 10.96 10.96h.37v37.67c0 6.05 4.91 10.96 10.96 10.96h75.3c6.05 0 10.96-4.91 10.96-10.96V76.98h.37c6.05 0 10.96-4.91 10.96-10.96V52.77c-.01-6.05-4.92-10.95-10.97-10.95z"/><linearGradient id="afb" x1="63.931" x2="63.931" y1="4.256" y2="54.994" gradientUnits="userSpaceOnUse"><stop offset="0" stop-color="#fff"/><stop offset="1" stop-color="#C8C9CA"/></linearGradient><path fill="url(#afb)" d="M101.25 56.36H26.61c-1.66 0-3-1.34-3-3V7.07c0-1.66 1.34-3 3-3h74.64c1.66 0 3 1.34 3 3v46.29c0 1.66-1.34 3-3 3z"/><path fill="#757575" d="M101.25 118.23H26.61c-1.66 0-3-1.34-3-3V66.94c0-1.66 1.34-3 3-3h74.64c1.66 0 3 1.34 3 3v48.29c0 1.65-1.34 3-3 3z"/><path fill="#BDBDBD" d="M101.25 114.65H26.61c-1.66 0-3-1.34-3-3V66.94c0-1.66 1.34-3 3-3h74.64c1.66 0 3 1.34 3 3v44.71c0 1.66-1.34 3-3 3z"/><linearGradient id="afc" x1="63.931" x2="63.931" y1="64.845" y2="108.79" gradientUnits="userSpaceOnUse"><stop offset="0" stop-color="#C8C9CA"/><stop offset="1" stop-color="#fff"/></linearGradient><path fill="url(#afc)" d="M101.25 109.57H26.61c-1.66 0-3-1.34-3-3V66.94c0-1.66 1.34-3 3-3h74.64c1.66 0 3 1.34 3 3v39.63c0 1.66-1.34 3-3 3z"/><path fill="#78909C" d="M55.86 47.74H33.71c-1.1 0-2-.9-2-2V15.06c0-1.1.9-2 2-2h22.15c1.1 0 2 .9 2 2v30.68c0 1.11-.89 2-2 2z"/><g fill="#9E9E9F"><path d="M96.94 18.4H66.59c-.68 0-1.23-.77-1.23-1.72s.55-1.72 1.23-1.72h30.35c.68 0 1.23.77 1.23 1.72.01.95-.54 1.72-1.23 1.72zM96.94 28.18H66.59c-.68 0-1.23-.77-1.23-1.72s.55-1.72 1.23-1.72h30.35c.68 0 1.23.77 1.23 1.72s-.54 1.72-1.23 1.72zM96.94 37.96H66.59c-.68 0-1.23-.77-1.23-1.72s.55-1.72 1.23-1.72h30.35c.68 0 1.23.77 1.23 1.72s-.54 1.72-1.23 1.72zM96.94 47.74H66.59c-.68 0-1.23-.77-1.23-1.72s.55-1.72 1.23-1.72h30.35c.68 0 1.23.77 1.23 1.72s-.54 1.72-1.23 1.72z"/></g><g fill="#424242"><path d="M45.91 68.76H43.7c-1.07 0-1.94-.87-1.94-1.94v-13.8c0-1.07.87-1.94 1.94-1.94h2.22c1.07 0 1.94.87 1.94 1.94v13.8a1.957 1.957 0 01-1.95 1.94zM84.44 68.76h-2.22c-1.07 0-1.94-.87-1.94-1.94v-13.8c0-1.07.87-1.94 1.94-1.94h2.22c1.07 0 1.94.87 1.94 1.94v13.8c0 1.07-.87 1.94-1.94 1.94z"/></g><path fill="#424242" d="M100.8 7.07c.17 0 .31.14.31.31v34.43c0 1.66 1.34 3 3 3h8.79c4.39 0 7.96 3.57 7.96 7.96v13.25c0 4.39-3.57 7.96-7.96 7.96h-.37c-1.66 0-3 1.34-3 3v37.67c0 4.39-3.57 7.96-7.96 7.96h-75.3c-4.39 0-7.96-3.57-7.96-7.96V76.98c0-1.66-1.34-3-3-3h-.37c-4.39 0-7.96-3.57-7.96-7.96V52.77c0-4.39 3.57-7.96 7.96-7.96h8.51c1.66 0 3-1.34 3-3V7.39c0-.17.14-.31.31-.31h74.04m0-3.01H26.79c-1.83 0-3.31 1.48-3.31 3.31v34.43h-8.51C8.91 41.82 4 46.72 4 52.77v13.25c0 6.05 4.91 10.96 10.96 10.96h.37v37.67c0 6.05 4.91 10.96 10.96 10.96h75.3c6.05 0 10.96-4.91 10.96-10.96V76.98h.37c6.05 0 10.96-4.91 10.96-10.96V52.77c0-6.05-4.91-10.96-10.96-10.96h-8.79V7.39a3.34 3.34 0 00-3.33-3.32z" opacity=".2"/></svg><svg viewBox="0 0 128 128" id="1F4C8" xmlns="http://www.w3.org/2000/svg"><linearGradient id="aga" x1="64" x2="64" y1="4.378" y2="123.54" gradientUnits="userSpaceOnUse"><stop offset="0" stop-color="#fff"/><stop offset="1" stop-color="#C8C9CA"/></linearGradient><path fill="url(#aga)" d="M4 4h120v120H4z"/><g fill="none" stroke="#575757" stroke-miterlimit="10"><path d="M4 4h120v120H4zM4 104h120M4 84h120M4 64h120M4 44h120M4 24h120M104 4v120M84 4v120M64 4v120M44 4v120M24 4v120"/></g><path fill="none" stroke="#EC4431" stroke-linecap="round" stroke-linejoin="round" stroke-miterlimit="10" stroke-width="4" d="M10.77 113.19l22.7-37.53 14.1 17.86 23.34-32.17 21.9 12.49 23.35-60.34"/><path fill="#424242" d="M121 7v114H7V7h114m3-3H4v120h120V4z" opacity=".2"/></svg><svg viewBox="0 0 128 128" id="1F4C9" xmlns="http://www.w3.org/2000/svg"><linearGradient id="aha" x1="64" x2="64" y1="4.378" y2="123.54" gradientUnits="userSpaceOnUse"><stop offset="0" stop-color="#fff"/><stop offset="1" stop-color="#C8C9CA"/></linearGradient><path fill="url(#aha)" d="M4 4h120v120H4z"/><g fill="none" stroke="#575757" stroke-miterlimit="10"><path d="M4 4h120v120H4zM4 104h120M4 84h120M4 64h120M4 44h120M4 24h120M104 4v120M84 4v120M64 4v120M44 4v120M24 4v120"/></g><path fill="none" stroke="#2CA94F" stroke-linecap="round" stroke-linejoin="round" stroke-miterlimit="10" stroke-width="4" d="M116.16 113.19l-22.7-37.53-15.06 5-18.44-50.15L34.6 49.53 10.77 13.5"/><path fill="#424242" d="M121 7v114H7V7h114m3-3H4v120h120V4z" opacity=".2"/></svg><svg viewBox="0 0 128 128" id="1F4CA" xmlns="http://www.w3.org/2000/svg"><linearGradient id="aia" x1="64" x2="64" y1="4.378" y2="123.54" gradientUnits="userSpaceOnUse"><stop offset="0" stop-color="#fff"/><stop offset="1" stop-color="#C8C9CA"/></linearGradient><path fill="url(#aia)" d="M4 4h120v120H4z"/><g fill="none" stroke="#BDBDBD" stroke-miterlimit="10"><path d="M4 4h120v120H4zM4 104h120M4 84h120M4 64h120M4 44h120M4 24h120M104 4v120M84 4v120M64 4v120M44 4v120M24 4v120"/></g><linearGradient id="aib" x1="24.579" x2="24.579" y1="55.294" y2="123.33" gradientUnits="userSpaceOnUse"><stop offset=".005" stop-color="#4480F7"/><stop offset="1" stop-color="#3462BD"/></linearGradient><path fill="url(#aib)" d="M15.29 54.72h18.58V124H15.29z"/><linearGradient id="aic" x1="50.614" x2="50.614" y1="80.634" y2="124" gradientUnits="userSpaceOnUse"><stop offset=".005" stop-color="#EC4431"/><stop offset=".3" stop-color="#E74330"/><stop offset=".633" stop-color="#DA3F2D"/><stop offset=".983" stop-color="#C33828"/><stop offset="1" stop-color="#C23828"/></linearGradient><path fill="url(#aic)" d="M41.32 80.63H59.9V124H41.32z"/><linearGradient id="aid" x1="76.648" x2="76.648" y1="33.696" y2="124" gradientUnits="userSpaceOnUse"><stop offset=".005" stop-color="#FDD835"/><stop offset=".27" stop-color="#F9D534"/><stop offset=".533" stop-color="#EDCB32"/><stop offset=".794" stop-color="#D9BA2D"/><stop offset="1" stop-color="#C4A829"/></linearGradient><path fill="url(#aid)" d="M67.36 33.7h18.58V124H67.36z"/><linearGradient id="aie" x1="102.68" x2="102.68" y1="99.1" y2="124" gradientUnits="userSpaceOnUse"><stop offset=".008" stop-color="#2CA94F"/><stop offset=".997" stop-color="#207A39"/></linearGradient><path fill="url(#aie)" d="M93.39 99.1h18.58V124H93.39z"/><path fill="#424242" d="M121 7v114H7V7h114m3-3H4v120h120V4z" opacity=".2"/></svg><svg viewBox="0 0 128 128" id="1F4CB" xmlns="http://www.w3.org/2000/svg"><linearGradient id="aja" x1="64.001" x2="64.001" y1="8.49" y2="124.04" gradientUnits="userSpaceOnUse"><stop offset=".007" stop-color="#D1A773"/><stop offset=".999" stop-color="#916843"/></linearGradient><path fill="url(#aja)" d="M108.34 124.04H19.66c-2.21 0-4-1.79-4-4V12.49c0-2.21 1.79-4 4-4h88.67c2.21 0 4 1.79 4 4v107.55c.01 2.21-1.78 4-3.99 4z"/><linearGradient id="ajb" x1="64.001" x2="64.001" y1="19.166" y2="115.59" gradientUnits="userSpaceOnUse"><stop offset="0" stop-color="#fff"/><stop offset="1" stop-color="#C8C9CA"/></linearGradient><path fill="url(#ajb)" d="M98.79 114.97H29.21c-1.34 0-2.43-1.11-2.43-2.48V21.33c0-1.37 1.09-2.48 2.43-2.48h69.57c1.34 0 2.44 1.11 2.44 2.48v91.16c0 1.37-1.09 2.48-2.43 2.48z"/><linearGradient id="ajc" x1="64.001" x2="64.001" y1="4.936" y2="30.477" gradientUnits="userSpaceOnUse"><stop offset="0" stop-color="#fff"/><stop offset=".863" stop-color="#C8C9CA"/><stop offset="1" stop-color="#757575"/></linearGradient><path fill="url(#ajc)" d="M74.74 14.67C74.73 8.76 69.92 3.96 64 3.96S53.28 8.75 53.26 14.67H35.85v16.07h56.3V14.67H74.74zM64 18.32a4.31 4.31 0 110-8.62 4.31 4.31 0 010 8.62z"/><path fill="#424242" d="M64 6.96a7.77 7.77 0 016.31 3.27c.56.79 1.47 1.26 2.44 1.26h35.19c.77 0 1.39.63 1.39 1.39v106.76c0 .77-.63 1.39-1.39 1.39H20.06c-.77 0-1.39-.63-1.39-1.39V12.88c0-.77.63-1.39 1.39-1.39h35.19c.97 0 1.88-.47 2.44-1.26A7.77 7.77 0 0164 6.96m0-3c-3.61 0-6.8 1.79-8.75 4.53H20.06a4.39 4.39 0 00-4.39 4.39v106.76a4.39 4.39 0 004.39 4.39h87.88a4.39 4.39 0 004.39-4.39V12.88a4.39 4.39 0 00-4.39-4.39H72.75A10.693 10.693 0 0064 3.96z" opacity=".2"/><g fill="#757575"><path d="M91.25 48.99h-54.5c-1.22 0-2.22-.99-2.22-2.22 0-1.22.99-2.22 2.22-2.22h54.51c1.22 0 2.22.99 2.22 2.22a2.23 2.23 0 01-2.23 2.22zM91.25 61.16h-54.5c-1.22 0-2.22-.99-2.22-2.22s.99-2.22 2.22-2.22h54.51c1.22 0 2.22.99 2.22 2.22s-1 2.22-2.23 2.22zM91.25 73.33h-54.5c-1.22 0-2.22-.99-2.22-2.22s.99-2.22 2.22-2.22h54.51c1.22 0 2.22.99 2.22 2.22s-1 2.22-2.23 2.22zM91.25 85.5h-54.5c-1.22 0-2.22-.99-2.22-2.22 0-1.22.99-2.22 2.22-2.22h54.51c1.22 0 2.22.99 2.22 2.22a2.23 2.23 0 01-2.23 2.22zM60.06 97.67H36.75c-1.22 0-2.22-.99-2.22-2.22s.99-2.22 2.22-2.22h23.31c1.22 0 2.22.99 2.22 2.22s-1 2.22-2.22 2.22z"/></g></svg><svg viewBox="0 0 128 128" id="1F4CC" xmlns="http://www.w3.org/2000/svg"><linearGradient id="aka" x1="26.276" x2="30.86" y1="99.27" y2="103.86" gradientUnits="userSpaceOnUse"><stop offset="0" stop-color="#F5F5F5"/><stop offset=".145" stop-color="#EFEFEF"/><stop offset=".337" stop-color="#DFDFDF"/><stop offset=".553" stop-color="#C3C3C3"/><stop offset=".787" stop-color="#9E9E9E"/><stop offset="1" stop-color="#757575"/></linearGradient><path fill="url(#aka)" d="M39.2 83.75c.51-.53 1.04-1.05 1.6-1.51 1.63-1.37 5.88-4.55 8.17-3.23 1.36.78 1.16 3.4.66 4.49-1.24 2.69-4.4 4.96-6.34 7.19-1.52 1.77-3.36 3.36-5.02 5.02-2.66 2.66-5.21 5.65-8.08 8.08-.01 0-23.01 19.42-23.01 19.42l-1.79-1.79L24.82 98.4c3.65-3.65 7.29-7.3 10.94-10.94 1.18-1.16 2.28-2.49 3.44-3.71z"/><linearGradient id="akb" x1="45.737" x2="101.24" y1="26.909" y2="82.414" gradientUnits="userSpaceOnUse"><stop offset=".005" stop-color="#F44336"/><stop offset=".194" stop-color="#EC3E33"/><stop offset=".496" stop-color="#D4302C"/><stop offset=".65" stop-color="#C62828"/></linearGradient><path fill="url(#akb)" d="M39.2 83.97c-4.56-4.91-8.61-10.23-11.9-15.74-2.51-4.2-8.32-13.99-3.68-18.65l4.06-4.06c3.81-3.8 13.84-.3 24.98 7.94L77.82 28.3c-6.31-8.37-9.3-15.34-7-17.64l5.13-5.14c3.34-3.34 16.6 4.5 29.62 17.52 13.01 13.01 20.86 26.28 17.51 29.62l-5.13 5.13c-2.31 2.3-9.28-.69-17.64-7L75.16 75.95C83.4 87.1 86.9 97.13 83.1 100.94L79.04 105c-4.8 4.8-15.03-1.45-19.3-4.07-7.37-4.51-14.41-10.36-20.54-16.96z"/><linearGradient id="akc" x1="76.383" x2="123.83" y1="28.376" y2="28.376" gradientUnits="userSpaceOnUse"><stop offset=".002" stop-color="#FF5252"/><stop offset=".074" stop-color="#F34949"/><stop offset=".267" stop-color="#D93535"/><stop offset=".465" stop-color="#C62727"/><stop offset=".669" stop-color="#BB1F1F"/><stop offset=".888" stop-color="#B71C1C"/></linearGradient><path fill="url(#akc)" d="M123.24 51.51c-2.88 2.88-15.58-5.13-28.36-17.91S74.09 8.13 76.97 5.24c2.88-2.88 15.58 5.13 28.36 17.91s20.79 25.48 17.91 28.36z"/><linearGradient id="akd" x1="28.306" x2="83.572" y1="71.41" y2="71.41" gradientTransform="matrix(1.05 -.0221 -.0221 1.05 -.946 -1.193)" gradientUnits="userSpaceOnUse"><stop offset=".002" stop-color="#FF5252"/><stop offset=".187" stop-color="#E13B3B"/><stop offset=".374" stop-color="#CA2A2A"/><stop offset=".55" stop-color="#BC2020"/><stop offset=".703" stop-color="#B71C1C"/></linearGradient><path fill="url(#akd)" d="M83.63 100.27c-3.58 3.58-18.83-5.85-34.05-21.07S24.92 48.73 28.5 45.15s19.46 1.31 36.74 18.86C82 81.02 87.21 96.69 83.63 100.27z"/><linearGradient id="ake" x1="62.324" x2="85.261" y1="42.761" y2="65.697" gradientUnits="userSpaceOnUse"><stop offset=".005" stop-color="#F44336"/><stop offset=".145" stop-color="#EC3E32"/><stop offset=".369" stop-color="#D42F29"/><stop offset=".592" stop-color="#B71C1C"/></linearGradient><path fill="url(#ake)" d="M48.85 56.47L77.82 28.3s5.48 7.25 9.65 11.5 12.86 11 12.86 11L72.21 78.91s-6.14-2.45-13.18-9.49c-8.2-8.19-10.18-12.95-10.18-12.95z"/><path fill="#424242" d="M78.61 7.66c.36 0 2.38.16 7.39 3.36.02.01.04.02.06.04 5.27 3.21 11.42 8.22 17.3 14.1 6.52 6.52 12.02 13.44 15.07 18.96.01.02.02.03.03.05 2.1 3.63 2.27 5.2 2.27 5.59 0 .1.01.19.02.29.03.32.02.51 0 .61l-4.87 4.88c-.05.01-.14.02-.26.02-1.89 0-6.57-1.88-13.58-7.16a2.97 2.97 0 00-1.81-.61 3 3 0 00-2.12.88L73.1 73.69a3.007 3.007 0 00-.31 3.88c4.71 6.52 6.87 11.42 7.86 14.4l.11.33c1.21 3.81.85 5.56.64 5.86-.11.12-.2.25-.29.39-.07.11-.14.2-.22.27l-4.06 4.06c-.38.38-1.06.88-2.59.88-4.24 0-10.39-3.78-13.02-5.39-5.06-3.1-10-6.88-14.68-11.23-.58-.54-1.31-.8-2.04-.8-.76 0-1.52.29-2.11.86-.45.44-.97.97-1.46 1.53-.93 1.08-2.01 2.11-3.15 3.19-.58.55-1.16 1.1-1.72 1.66-.9.9-1.79 1.84-2.65 2.75-1.69 1.79-3.44 3.63-5.24 5.16l.02.03c-.74.59-2.55 2.11-7.37 6.18l6.13-7.26 6.8-6.8 4.04-4.05c.73-.73 1.42-1.49 2.08-2.24.43-.48.87-.97 1.31-1.44a2.99 2.99 0 00.02-4.1c-4.46-4.81-8.3-9.9-11.43-15.13-4.75-7.93-6.13-12.98-4.13-14.99l4.05-4.06c.54-.53 1.53-.65 2.28-.65 1.31 0 3 .35 4.89 1 .02.01.03.01.05.02 2.85.94 7.54 2.98 13.7 7.38a3.002 3.002 0 003.84-.29l25.37-24.66a3.008 3.008 0 00.3-3.96c-6.01-7.97-7.4-12.66-7.15-13.83l4.89-4.89c.03 0 .06-.01.1-.01.2-.02.37-.04.56-.1 0 .03.03.02.09.02m0-3c-.33 0-.63.04-.9.12-.77.06-1.4.3-1.85.75l-5.13 5.14c-2.3 2.3.69 9.27 7 17.64L52.36 52.96c-5.49-3.93-10.47-6.47-14.51-7.8-2.19-.76-4.18-1.16-5.87-1.16-1.86 0-3.36.49-4.4 1.52l-4.06 4.06c-4.64 4.65 1.16 14.44 3.68 18.65 3.27 5.47 7.29 10.76 11.81 15.63-1.12 1.19-2.19 2.47-3.33 3.61-3.64 3.65-7.29 7.3-10.94 10.94L5.31 121.43l1.79 1.79s23-19.42 23.01-19.42c2.88-2.43 5.43-5.42 8.08-8.08 1.66-1.66 3.49-3.24 5.02-5.02.39-.45.83-.9 1.29-1.35 4.74 4.4 9.86 8.34 15.15 11.59 3.15 1.93 9.53 5.83 14.59 5.83 1.81 0 3.45-.5 4.71-1.76l4.06-4.06c.24-.24.45-.51.63-.79 1.27-1.44 1.31-4.54-.03-8.76-.04-.12-.08-.25-.12-.37-1.39-4.19-4.1-9.44-8.27-15.2l25.02-25.02c6.46 4.88 12.09 7.77 15.38 7.77.97 0 1.73-.25 2.25-.77l5.13-5.13c.63-.63.86-1.63.73-2.9-.01-1.66-.96-4.11-2.67-7.08-3.07-5.56-8.57-12.63-15.57-19.63-6.28-6.31-12.61-11.38-17.87-14.57-3.83-2.46-7-3.84-9.01-3.84z" opacity=".2"/></svg><svg viewBox="0 0 128 128" id="1F4CD" xmlns="http://www.w3.org/2000/svg"><linearGradient id="ala" x1="63.934" x2="63.934" y1="58.395" y2="123.98" gradientUnits="userSpaceOnUse"><stop offset="0" stop-color="#757575"/><stop offset=".213" stop-color="#9E9E9E"/><stop offset=".447" stop-color="#C3C3C3"/><stop offset=".663" stop-color="#DFDFDF"/><stop offset=".855" stop-color="#EFEFEF"/><stop offset="1" stop-color="#F5F5F5"/></linearGradient><path fill="url(#ala)" d="M67.23 111.29l-3.29 12.46-3.29-12.46V58.58c.83 0 2.6.14 3.29.14.83 0 2.6 0 3.29-.14v52.71z"/><radialGradient id="alb" cx="54.101" cy="20.788" r="38.832" gradientUnits="userSpaceOnUse"><stop offset=".096" stop-color="#F44336"/><stop offset=".234" stop-color="#EC3E32"/><stop offset=".454" stop-color="#D42F29"/><stop offset=".673" stop-color="#B71C1C"/><stop offset=".967" stop-color="#C62828"/></radialGradient><path fill="url(#alb)" d="M91.77 32.09v1.39c-.83 13.78-11.69 25.05-25.47 26.31-.83.14-1.53.14-2.37.14-.83 0-1.53 0-2.23-.14-13.78-1.25-24.64-12.25-25.47-26.31v-1.39c-.14-15.31 12.39-27.84 27.7-27.84s27.84 12.39 27.84 27.84z"/><path fill="#424242" d="M63.86 7.25c13.7 0 24.84 11.14 24.84 24.84v1.3c-.77 12.01-9.97 21.8-21.92 23.29-1.5.19-2.63 1.46-2.63 2.98v51.24l-.29 1.11-.29-1.11V59.64c0-1.51-1.12-2.78-2.62-2.98-11.89-1.53-21.04-11.32-21.79-23.28v-1.33c-.05-6.55 2.48-12.75 7.14-17.45 4.69-4.74 10.93-7.35 17.56-7.35m0-3c-15.31 0-27.84 12.53-27.7 27.84v1.39c.81 13.69 11.14 24.45 24.41 26.16v51.65l3.29 12.46 3.29-12.46V59.66c13.33-1.67 23.73-12.71 24.54-26.18v-1.39C91.7 16.64 79.17 4.25 63.86 4.25z" opacity=".2"/></svg><svg viewBox="0 0 128 128" id="1F4CE" xmlns="http://www.w3.org/2000/svg"><linearGradient id="ama" x1="12.18" x2="124.04" y1="13.91" y2="125.77" gradientUnits="userSpaceOnUse"><stop offset="0" stop-color="#F5F5F5"/><stop offset=".211" stop-color="#D3D3D3"/><stop offset=".673" stop-color="#7F7F7F"/><stop offset=".985" stop-color="#424242"/><stop offset="1" stop-color="#757575"/></linearGradient><path fill="url(#ama)" d="M38.67 124.23c8.83 0 17.76-3.43 24.59-10.26l58.7-58.69c.1-.1.1-.27 0-.37l-5.58-5.58c-.1-.1-.27-.1-.37 0l-58.7 58.69c-10.11 10.11-26.24 10.43-35.96.72-9.71-9.72-9.39-25.85.73-35.96l55.93-55.94c6.27-6.27 16.48-6.27 22.75 0s6.27 16.48 0 22.75L43.84 96.51c-2.61 2.61-7.14 2.61-9.75 0a6.852 6.852 0 01-2.02-4.88c0-1.84.72-3.57 2.02-4.88l50.85-50.84c.1-.1.1-.27 0-.37l-5.58-5.58c-.1-.1-.27-.1-.37 0L28.47 80.48c-2.62 2.62-4.42 6.03-4.75 9.73-.42 4.62 1.2 9.03 4.42 12.25 3.23 3.23 7.64 4.84 12.25 4.42 3.69-.33 7.1-2.13 9.73-4.75l57.57-57.57-.1-.1c8.57-9.62 8.33-24.36-.88-33.58S82.75 1.43 73.14 10l-.1-.1-.98.98-55.94 55.95c-13.39 13.39-13.71 34.86-.72 47.86 6.37 6.37 14.77 9.54 23.27 9.54z"/><path fill="#424242" d="M89.51 6.77c5.71 0 11.06 2.22 15.08 6.24 8.01 8.01 8.35 20.95.76 29.46-.17.19-.31.4-.42.62L48 100.01c-2.25 2.25-5.04 3.63-7.87 3.88-.39.03-.78.05-1.16.05-3.29 0-6.38-1.28-8.71-3.61-2.63-2.63-3.89-6.13-3.55-9.86.26-2.83 1.63-5.63 3.88-7.88l48.58-48.58 1.71 1.71-48.91 48.92c-1.86 1.87-2.89 4.35-2.89 6.99s1.03 5.13 2.89 7c1.8 1.8 4.35 2.83 7 2.83s5.2-1.03 6.99-2.83l56.92-56.92c7.44-7.44 7.44-19.55 0-27-3.6-3.6-8.39-5.58-13.5-5.58-5.1 0-9.9 1.98-13.5 5.58L19.96 70.66c-11.28 11.28-11.61 29.31-.72 40.2 5.13 5.13 12.03 7.95 19.44 7.95 7.79 0 15.17-3.08 20.76-8.68l56.77-56.76 1.71 1.71-56.76 56.76c-6.05 6.05-14.03 9.39-22.47 9.39-8.05 0-15.56-3.08-21.15-8.66-11.84-11.83-11.52-31.4.71-43.62l55.93-55.94.34-.34c.22-.11.43-.26.62-.43a21.56 21.56 0 0114.37-5.47m0-3c-5.85 0-11.71 2.08-16.37 6.23l-.1-.1-.98.98-55.94 55.95c-13.39 13.39-13.71 34.86-.72 47.86 6.37 6.37 14.77 9.54 23.27 9.54 8.83 0 17.76-3.43 24.59-10.26l58.7-58.69c.1-.1.1-.27 0-.37l-5.58-5.58a.269.269 0 00-.18-.08.25.25 0 00-.18.08l-58.7 58.69c-5.19 5.19-11.96 7.8-18.64 7.8-6.34 0-12.58-2.35-17.31-7.08-9.71-9.72-9.39-25.85.73-35.96l55.93-55.94c3.14-3.14 7.26-4.7 11.37-4.7s8.24 1.57 11.38 4.7c6.27 6.27 6.27 16.48 0 22.75L43.84 96.51c-1.3 1.3-3.09 1.96-4.87 1.96-1.79 0-3.57-.65-4.88-1.96a6.852 6.852 0 01-2.02-4.88c0-1.84.72-3.57 2.02-4.88l50.85-50.84c.1-.1.1-.27 0-.37l-5.58-5.58a.269.269 0 00-.18-.08.25.25 0 00-.18.08L28.47 80.48c-2.62 2.62-4.42 6.03-4.75 9.73-.42 4.62 1.2 9.03 4.42 12.25 2.89 2.9 6.74 4.49 10.83 4.49.47 0 .95-.02 1.43-.06 3.69-.33 7.1-2.13 9.73-4.75l57.57-57.57-.1-.1c8.57-9.62 8.33-24.36-.88-33.58-4.76-4.76-10.98-7.12-17.21-7.12z" opacity=".2"/></svg><svg viewBox="0 0 128 128" id="1F4CF" xmlns="http://www.w3.org/2000/svg"><path fill="#90a4ae" d="M94 4.1L5.2 93.3l29.3 29.4 89.2-89.2z"/><path fill="#424242" d="M94 8.3l25.4 25.1-84.9 84.9-25.1-25L94 8.3m0-4.2L5.2 93.3l29.4 29.4 89.2-89.2C123.7 33.5 94 4.1 94 4.1z" opacity=".2"/><linearGradient id="ana" x1="25.513" x2="78.162" y1="738.702" y2="791.352" gradientTransform="translate(0 -713.89)" gradientUnits="userSpaceOnUse"><stop offset=".003" stop-color="#eee"/><stop offset=".427" stop-color="#ececec"/><stop offset=".644" stop-color="#e4e4e4"/><stop offset=".813" stop-color="#d7d7d7"/><stop offset=".957" stop-color="#c4c4c4"/><stop offset="1" stop-color="#bdbdbd"/></linearGradient><path fill="url(#ana)" d="M13.3 93.3l4.6-4.6 5.3 5.3 4.3-4.3-5.4-5.3 4.3-4.2L37 90.8l4.3-4.2-10.7-10.7 4.3-4.2 5.3 5.3 4.3-4.2-5.4-5.4 4.3-4.2 5.3 5.3 4.2-4.2-5.3-5.3 4.3-4.3 10.6 10.6 3.9-3.9-10.6-10.6 4.2-4.2 5.3 5.3 4.3-4.3-5.3-5.3 4.2-4.2 5.3 5.3 4.3-4.3-5.3-5.3 4.2-4.2 10.6 10.6 4.3-4.2-10.7-10.7 4.3-4.2 5.3 5.3 3.9-3.9-5.3-5.3 4.6-4.6 20.9 20.9-80.4 80.7z"/></svg><svg viewBox="0 0 128 128" id="1F4D0" xmlns="http://www.w3.org/2000/svg"><path fill="#90A4AE" d="M4 4v120h118.46z"/><path fill="#424242" d="M7 11.31L115.29 121H7V11.31M4 4v120h118.46L4 4z" opacity=".2"/><linearGradient id="aoa" x1="60.036" x2="60.036" y1="18.226" y2="118.46" gradientUnits="userSpaceOnUse"><stop offset=".003" stop-color="#eee"/><stop offset=".349" stop-color="#EBEBEB"/><stop offset=".594" stop-color="#E2E2E2"/><stop offset=".806" stop-color="#D3D3D3"/><stop offset="1" stop-color="#BDBDBD"/></linearGradient><path fill="url(#aoa)" d="M8.91 113.37v6.17l102.25-.24L8.91 18.1v21.74h7.12v5.69H8.91v5.69h7.12v5.69H8.91v5.69h14.23v5.22H8.91v5.69h7.12v5.69H8.91v5.69h7.12v5.69H8.91v5.69h14.23v5.69H8.91v5.69h7.12v5.69H8.91zm20.4-55.32l43.06 42.82H29.31V58.05z"/></svg><svg viewBox="0 0 128 128" id="1F587" xmlns="http://www.w3.org/2000/svg"><linearGradient id="apa" x1="52" x2="123.49" y1="88.042" y2="159.53" gradientTransform="scale(1 -1) rotate(-74.478 -65.457 59.482)" gradientUnits="userSpaceOnUse"><stop offset="0" stop-color="#F5F5F5"/><stop offset=".211" stop-color="#D3D3D3"/><stop offset=".673" stop-color="#7F7F7F"/><stop offset=".985" stop-color="#424242"/><stop offset="1" stop-color="#757575"/></linearGradient><path fill="url(#apa)" d="M58.4 59.09L38.22 94.8c-.05.08-.02.18.06.23l4.39 2.48c.08.05.18.02.23-.06L61.13 65.2a42.198 42.198 0 01-2.73-6.11z"/><path fill="#424242" d="M58.11 63.66c.24.51.48 1.01.73 1.51l-16.79 29.7-1.2-.68 17.26-30.53m.29-4.57L38.22 94.8c-.05.08-.02.18.06.23l4.39 2.48c.03.01.05.02.08.02.06 0 .11-.03.15-.08L61.13 65.2a42.198 42.198 0 01-2.73-6.11z" opacity=".2"/><linearGradient id="apb" x1="68.109" x2="112.36" y1="37.866" y2="112.87" gradientUnits="userSpaceOnUse"><stop offset="0" stop-color="#BDBDBD"/><stop offset=".487" stop-color="#9B9B9B"/><stop offset=".985" stop-color="#757575"/></linearGradient><path fill="url(#apb)" d="M58.69 49.31c-1.5 5.39-.91 11.43 2.1 16.75l25.88 45.79c.04.08.15.11.22.06l4.36-2.46c.08-.04.11-.15.06-.22L65.44 63.44c-4.46-7.88-1.92-17.79 5.65-22.07 7.58-4.28 17.37-1.35 21.83 6.54l24.67 43.63c2.77 4.89 1.04 11.12-3.86 13.89-4.89 2.76-11.12 1.03-13.89-3.86l-25.1-44.4c-1.15-2.03-.38-4.8 1.65-5.95 1.02-.57 2.19-.72 3.32-.4 1.12.31 2.06 1.04 2.64 2.06l22.42 39.66c.04.08.15.11.22.06l4.36-2.46c.08-.04.11-.15.06-.22L87.14 50.5c-1.16-2.05-2.93-3.72-5.13-4.55-2.75-1.04-5.72-.8-8.23.62-2.52 1.42-4.25 3.84-4.78 6.73-.42 2.31.09 4.7 1.25 6.74l25.39 44.91.08-.05c4.42 6.86 13.46 9.22 20.65 5.15s9.83-13.03 6.23-20.35l.08-.05-.43-.76-24.69-43.61c-5.91-10.45-18.96-14.29-29.1-8.56-4.96 2.81-8.33 7.4-9.77 12.59z"/><path fill="#424242" d="M78.59 36.06c7.07 0 13.68 3.91 17.23 10.2l24.67 43.63.14.25c.03.16.09.31.16.46 3.16 6.43.78 14.22-5.42 17.72a13.348 13.348 0 01-6.58 1.74c-4.63 0-8.9-2.33-11.41-6.23-.09-.14-.19-.26-.31-.37l-25.1-44.4c-.98-1.73-1.34-3.65-1.02-5.4.42-2.31 1.77-4.21 3.8-5.35 1.16-.66 2.46-1 3.77-1 .94 0 1.87.17 2.77.51 1.66.63 3.12 1.93 4.1 3.66l21.37 37.81-1.16.66-21.51-38.07a6.349 6.349 0 00-5.55-3.23c-1.09 0-2.17.28-3.12.82-1.43.81-2.51 2.21-2.96 3.85-.46 1.64-.25 3.4.55 4.83l25.1 44.4c2.16 3.82 6.24 6.19 10.63 6.19 2.09 0 4.16-.54 5.98-1.58 5.85-3.31 7.92-10.76 4.61-16.62L94.66 46.92c-3.32-5.88-9.47-9.52-16.06-9.52-2.98 0-5.91.77-8.5 2.23-8.53 4.83-11.41 15.95-6.41 24.8l24.98 44.19-1.16.66-24.98-44.2c-2.66-4.7-3.33-10.11-1.91-15.23 1.36-4.89 4.49-8.93 8.83-11.38 2.78-1.58 5.94-2.41 9.14-2.41m0-2c-3.46 0-6.93.86-10.13 2.66-4.97 2.81-8.33 7.4-9.77 12.59-1.5 5.39-.91 11.43 2.1 16.75l25.88 45.79c.03.05.09.08.14.08.03 0 .06-.01.08-.02l4.36-2.46c.08-.04.11-.15.06-.22L65.44 63.44c-4.46-7.88-1.92-17.79 5.65-22.07 2.36-1.34 4.95-1.97 7.51-1.97 5.66 0 11.25 3.08 14.32 8.51l24.67 43.63c2.77 4.89 1.04 11.12-3.86 13.89-1.58.89-3.3 1.32-5 1.32-3.56 0-7.02-1.86-8.89-5.17l-25.1-44.4c-1.15-2.03-.38-4.8 1.65-5.95.66-.37 1.4-.57 2.14-.57.39 0 .79.05 1.18.16 1.12.31 2.06 1.04 2.64 2.06l22.42 39.66c.03.05.09.08.14.08.03 0 .06-.01.08-.02l4.36-2.46c.08-.04.11-.15.06-.23L87.14 50.5c-1.16-2.05-2.93-3.72-5.13-4.55a9.81 9.81 0 00-3.47-.64c-1.65 0-3.28.43-4.76 1.26-2.52 1.42-4.25 3.84-4.78 6.73-.42 2.31.09 4.7 1.25 6.74l25.39 44.91.08-.05c2.95 4.58 7.95 7.15 13.09 7.15 2.57 0 5.17-.64 7.56-1.99 7.19-4.06 9.83-13.03 6.23-20.35l.08-.05-.43-.76-24.69-43.62c-4.04-7.16-11.45-11.22-18.97-11.22z" opacity=".2"/><linearGradient id="apc" x1="12.867" x2="62.034" y1="97.396" y2="23.063" gradientUnits="userSpaceOnUse"><stop offset="0" stop-color="#BDBDBD"/><stop offset=".487" stop-color="#9B9B9B"/><stop offset=".985" stop-color="#757575"/></linearGradient><path fill="url(#apc)" d="M70.06 35.43c-1.45-5.23-4.84-9.86-9.85-12.7-10.23-5.78-23.39-1.91-29.35 8.63L5.97 75.37l-.44.77.08.05c-3.63 7.38-.97 16.42 6.28 20.52s16.37 1.72 20.83-5.2l.08.05 25.61-45.3c1.17-2.06 1.69-4.47 1.26-6.8-.53-2.91-2.28-5.36-4.82-6.79-2.53-1.43-5.53-1.67-8.3-.63-2.22.84-4.01 2.53-5.18 4.59L18.91 76.38c-.05.08-.02.18.06.23l4.39 2.48c.08.05.18.02.23-.06l22.61-40a4.357 4.357 0 012.66-2.07c1.13-.32 2.32-.17 3.35.41 2.05 1.16 2.83 3.95 1.67 6L28.56 88.14c-2.79 4.93-9.08 6.68-14.01 3.89-4.94-2.79-6.68-9.08-3.89-14.01l24.88-44.01c4.5-7.96 14.37-10.91 22.02-6.6 7.47 4.23 10.36 13.64 6.28 21.5.13.29-.58 4.26-1.4 5.56.35 1.68.83 3.8 1.33 4.9l4.17-7.05c3.04-5.37 3.63-11.45 2.12-16.89z"/><path fill="#424242" d="M49.99 22.05c3.23 0 6.42.84 9.23 2.42 4.38 2.47 7.54 6.55 8.91 11.49 1.44 5.17.75 10.64-1.91 15.34l-1.23 2.07c.39-1.26.74-2.77.8-3.92 4.26-8.66 1.13-19.04-7.26-23.79-2.6-1.47-5.56-2.25-8.56-2.25-6.64 0-12.84 3.68-16.18 9.6L8.92 77.03c-3.33 5.89-1.25 13.4 4.65 16.74 1.84 1.04 3.92 1.59 6.02 1.59 4.43 0 8.54-2.39 10.71-6.23l25.31-44.78c.81-1.44 1.02-3.21.56-4.86s-1.54-3.06-2.98-3.87c-.96-.54-2.05-.83-3.14-.83-.58 0-1.16.08-1.72.24a6.356 6.356 0 00-3.86 3.02L22.75 76.44l-1.2-.68 21.57-38.15c.99-1.75 2.46-3.07 4.14-3.7.91-.34 1.85-.52 2.79-.52 1.33 0 2.64.35 3.82 1.01 2.05 1.15 3.41 3.08 3.84 5.41.32 1.77-.04 3.7-1.03 5.46L31.36 90.05c-.12.11-.22.23-.31.37a13.648 13.648 0 01-11.52 6.29c-2.32 0-4.61-.61-6.64-1.75-6.27-3.54-8.67-11.4-5.47-17.9.07-.15.13-.31.16-.46l.14-.25 24.88-44c3.59-6.35 10.25-10.3 17.39-10.3m0-2c-7.59 0-15.05 4.09-19.14 11.31L5.97 75.37l-.44.77.08.05c-3.63 7.38-.97 16.42 6.28 20.52a15.5 15.5 0 007.63 2.01c5.18 0 10.23-2.59 13.2-7.21l.08.05 25.61-45.3c1.17-2.06 1.69-4.47 1.26-6.8-.53-2.91-2.28-5.36-4.82-6.79a9.737 9.737 0 00-4.8-1.27c-1.17 0-2.36.21-3.5.64-2.22.84-4.01 2.53-5.18 4.59L18.91 76.38c-.05.08-.02.18.06.23l4.39 2.48c.03.01.05.02.08.02.06 0 .11-.03.15-.08l22.61-40a4.357 4.357 0 012.66-2.07c.39-.11.79-.16 1.19-.16.75 0 1.49.19 2.16.57 2.05 1.16 2.83 3.95 1.67 6L28.56 88.14a10.295 10.295 0 01-8.97 5.22c-1.71 0-3.45-.43-5.04-1.33-4.94-2.79-6.68-9.08-3.89-14.01l24.88-44.01c3.09-5.47 8.73-8.58 14.44-8.58 2.59 0 5.19.64 7.58 1.99 7.47 4.23 10.36 13.64 6.28 21.5.13.29-.58 4.26-1.4 5.56.35 1.68.83 3.8 1.33 4.9l4.17-7.05c3.04-5.37 3.63-11.46 2.12-16.9-1.45-5.23-4.84-9.86-9.85-12.7a20.846 20.846 0 00-10.22-2.68z" opacity=".2"/></svg><svg viewBox="0 0 128 128" id="1F5C2" xmlns="http://www.w3.org/2000/svg"><path fill="#f9a825" d="M102.1 91.1H26.5c-2.2 0-4-1.8-4-4V25.9c0-2.2 1.8-4 4-4h75.6c2.2 0 4 1.8 4 4v61.2c0 2.2-1.8 4-4 4z"/><path fill="#fdd835" d="M110.8 103.2H17.2c-2.2 0-4-1.8-4-4V39.7c0-2.2 1.8-4 4-4h93.5c2.2 0 4 1.8 4 4v59.5c.1 2.3-1.7 4.1-3.9 4z"/><linearGradient id="aqa" x1="64" x2="64" y1="78.423" y2="4.749" gradientTransform="matrix(1 0 0 -1 0 127.89)" gradientUnits="userSpaceOnUse"><stop offset=".18" stop-color="#fff59d"/><stop offset="1" stop-color="#fbc435"/></linearGradient><path fill="url(#aqa)" d="M7.8 124h112.4c2.1 0 3.8-1.7 3.8-3.8V53.4c0-2.1-1.7-3.8-3.8-3.8H7.8c-2.1 0-3.8 1.7-3.8 3.8v66.8c0 2.1 1.7 3.8 3.8 3.8z"/><path fill="#4480f7" d="M80.5 31.7H56.6c-1.7 0-3-1.3-3-3v-7.3c0-1.7 1.3-3 3-3h23.9c1.7 0 3 1.3 3 3v7.3c0 1.6-1.4 3-3 3z"/><path fill="#2ca94f" d="M37 46.4c-2.5 0-4.5-2-4.5-4.5v-7.3c0-2.5 2-4.5 4.5-4.5h24c2.5 0 4.5 2 4.5 4.5v7.3c0 2.5-2 4.5-4.5 4.5H37z"/><path fill="#fdd835" d="M61 31.6c1.7 0 3 1.3 3 3v7.3c0 1.7-1.3 3-3 3H37c-1.7 0-3-1.3-3-3v-7.3c0-1.7 1.3-3 3-3h24m0-3H37c-3.3 0-6 2.7-6 6v7.3c0 3.3 2.7 6 6 6h24c3.3 0 6-2.7 6-6v-7.3c0-3.3-2.7-6-6-6z"/><path fill="#ec4431" d="M18.8 59.8c-2.2 0-4-1.8-4-4v-7.3c0-2.2 1.8-4 4-4h25c2.2 0 4 1.8 4 4v7.3c0 2.2-1.8 4-4 4h-25z"/><path fill="#fff59d" d="M43.9 45.5c1.7 0 3 1.3 3 3v7.3c0 1.7-1.3 3-3 3h-25c-1.7 0-3-1.3-3-3v-7.3c0-1.7 1.3-3 3-3h25m0-2h-25c-2.8 0-5 2.2-5 5v7.3c0 2.8 2.2 5 5 5h25c2.8 0 5-2.2 5-5v-7.3c0-2.7-2.3-5-5-5z"/><path fill="#424242" d="M80 21.4c.2 0 .5.2.5.5 0 1.7 1.3 3 3 3h18c.9 0 1.6.7 1.6 1.6v9.2c0 1.7 1.3 3 3 3h4.1c.9 0 1.6.7 1.6 1.6v9.2c0 1.7 1.3 3 3 3h4.6c.9 0 1.6.7 1.6 1.6v65.2c0 .9-.7 1.6-1.6 1.6H8.6c-.9 0-1.6-.7-1.6-1.6V54.2c0-.9.7-1.6 1.6-1.6h4.6c1.7 0 3-1.3 3-3v-9.2c0-.9.7-1.6 1.6-1.6h4.6c1.7 0 3-1.3 3-3v-9.2c0-.9.7-1.6 1.6-1.6h26.5c1.7 0 3-1.4 3-3 0-.2.2-.5.5-.5l23-.1m0-3H57c-1.9 0-3.5 1.5-3.5 3.5H27.1c-2.5 0-4.6 2.1-4.6 4.6v9.2h-4.6c-2.6 0-4.6 2.1-4.6 4.6v9.2H8.6C6 49.5 4 51.6 4 54.1v65.2c0 2.6 2.1 4.6 4.6 4.6h110.8c2.6 0 4.6-2.1 4.6-4.6V54.2c0-2.5-2.1-4.6-4.6-4.6h-4.6v-9.2c0-2.5-2.1-4.6-4.6-4.6h-4.1v-9.2c0-2.5-2.1-4.6-4.6-4.6h-18c0-2.1-1.6-3.6-3.5-3.6z" opacity=".2"/></svg><svg viewBox="0 0 128 128" id="1F5C3" xmlns="http://www.w3.org/2000/svg"><path fill="#424242" d="M26.33 16.42h74.57v12.31H26.33z"/><path fill="#424242" d="M20.09 50.7l7.95-25.18v-9.1h-6.8L5.47 50.7zM122.46 50.7l-15.78-34.28h-6.79v9.1l7.95 25.18z"/><path fill="#F9A825" d="M92.59 61.09H35.48c-2.21 0-4-1.79-4-4V11.17c0-2.21 1.79-4 4-4h57.11c2.21 0 4 1.79 4 4v45.92c0 2.21-1.79 4-4 4z"/><path fill="#FDD835" d="M99.37 70.55H28.3c-2.21 0-4-1.79-4-4v-44.6c0-2.21 1.79-4 4-4h71.07c2.21 0 4 1.79 4 4v44.6c0 2.21-1.8 4-4 4z"/><linearGradient id="ara" x1="63.831" x2="63.831" y1="28.499" y2="86.604" gradientUnits="userSpaceOnUse"><stop offset=".008" stop-color="#FFF59D"/><stop offset=".165" stop-color="#FFF297"/><stop offset=".371" stop-color="#FEEB87"/><stop offset=".603" stop-color="#FDDE6C"/><stop offset=".853" stop-color="#FCCC47"/><stop offset="1" stop-color="#FBC02D"/></linearGradient><path fill="url(#ara)" d="M106.55 86.71H21.11c-2.21 0-4-1.79-4-4V32.73c0-2.21 1.79-4 4-4h85.45c2.21 0 4 1.79 4 4V82.7a4.016 4.016 0 01-4.01 4.01z"/><path fill="#4480F7" d="M75.99 14.81H58.71c-1.66 0-3-1.34-3-3V7.45c0-1.66 1.34-3 3-3h17.27c1.66 0 3 1.34 3 3v4.36c.01 1.65-1.34 3-2.99 3z"/><path fill="#2CA94F" d="M43.47 26.59c-2.48 0-4.5-2.02-4.5-4.5v-4.36c0-2.48 2.02-4.5 4.5-4.5h17.36c2.48 0 4.5 2.02 4.5 4.5v4.36c0 2.48-2.02 4.5-4.5 4.5H43.47z"/><path fill="#FDD835" d="M60.83 14.73c1.66 0 3 1.34 3 3v4.36c0 1.66-1.34 3-3 3H43.47c-1.66 0-3-1.34-3-3v-4.36c0-1.66 1.34-3 3-3h17.36m0-3H43.47c-3.31 0-6 2.69-6 6v4.36c0 3.31 2.69 6 6 6h17.36c3.31 0 6-2.69 6-6v-4.36c0-3.31-2.69-6-6-6z"/><path fill="#EC4431" d="M29.33 36.95c-2.21 0-4-1.79-4-4v-4.36c0-2.21 1.79-4 4-4h18.18c2.21 0 4 1.79 4 4v4.36c0 2.21-1.79 4-4 4H29.33z"/><path fill="#FFF59D" d="M47.5 25.59c1.66 0 3 1.34 3 3v4.36c0 1.66-1.34 3-3 3H29.33c-1.66 0-3-1.34-3-3v-4.36c0-1.66 1.34-3 3-3H47.5m0-2H29.33c-2.76 0-5 2.24-5 5v4.36c0 2.76 2.24 5 5 5H47.5c2.76 0 5-2.24 5-5v-4.36c0-2.76-2.24-5-5-5z"/><path d="M108.86 50.59H19.07"/><linearGradient id="arb" x1="63.963" x2="63.963" y1="51.59" y2="122.95" gradientUnits="userSpaceOnUse"><stop offset=".008" stop-color="#757575"/><stop offset="1" stop-color="#424242"/></linearGradient><path fill="url(#arb)" d="M5.47 50.7l6.8 73.27h103.39l6.8-73.27"/><path fill="#eee" d="M75.88 7.73c.11 0 .16.09.17.16a3.002 3.002 0 002.97 2.56h13.4c.69 0 1.25.56 1.25 1.25v5.01c0 1.66 1.34 3 3 3h8.17l14.64 31.8-6.48 69.75H15.07L8.6 51.5l14.64-31.8h8.32c1.66 0 3-1.34 3-3v-5c0-.69.56-1.25 1.25-1.25h20.03c1.49 0 2.75-1.09 2.97-2.56.01-.06.06-.16.17-.16h16.9m0-3h-16.9c-1.6 0-2.91 1.18-3.14 2.72H35.81c-2.35 0-4.25 1.9-4.25 4.25v5.01H21.31L5.54 50.98l6.8 73.28h103.39l6.8-73.28-15.77-34.28H96.67v-5c0-2.35-1.9-4.25-4.25-4.25h-13.4a3.178 3.178 0 00-3.14-2.72z" opacity=".2"/><linearGradient id="arc" x1="63.831" x2="63.831" y1="69.465" y2="90.043" gradientUnits="userSpaceOnUse"><stop offset="0" stop-color="#FAFAFA"/><stop offset=".263" stop-color="#EFEFEF"/><stop offset=".726" stop-color="#D2D2D2"/><stop offset="1" stop-color="#BDBDBD"/></linearGradient><path fill="url(#arc)" stroke="#BDBDBD" stroke-miterlimit="10" stroke-width="3" d="M87.18 90.9h-46.7l-1.06-21.75h48.82z"/></svg><svg viewBox="0 0 128 128" id="1F5C4" xmlns="http://www.w3.org/2000/svg"><path fill="#424242" d="M21.02 4h85.97v120H21.02z"/><path fill="#eee" d="M103.98 7v114H24.02V7h79.96m3-3H21.02v120h85.97V4h-.01z" opacity=".2"/><path fill="none" stroke="#212121" stroke-miterlimit="10" stroke-width="3" d="M24.31 64h79.38"/><linearGradient id="asa" x1="64" x2="64" y1="9.192" y2="58.551" gradientUnits="userSpaceOnUse"><stop offset=".012" stop-color="#BDBDBD"/><stop offset=".273" stop-color="#9F9F9F"/><stop offset=".536" stop-color="#888"/><stop offset=".785" stop-color="#7A7A7A"/><stop offset="1" stop-color="#757575"/></linearGradient><path fill="url(#asa)" d="M27.57 9.3h72.86v50.72H27.57z"/><linearGradient id="asb" x1="64" x2="64" y1="68.102" y2="117.46" gradientUnits="userSpaceOnUse"><stop offset=".012" stop-color="#BDBDBD"/><stop offset=".273" stop-color="#9F9F9F"/><stop offset=".536" stop-color="#888"/><stop offset=".785" stop-color="#7A7A7A"/><stop offset="1" stop-color="#757575"/></linearGradient><path fill="url(#asb)" d="M27.57 68.21h72.86v50.72H27.57z"/><path fill="#fff" stroke="#BDBDBD" stroke-miterlimit="10" stroke-width="2" d="M49.2 21.57h29.61v13.7H49.2z"/><path fill="#BDBDBD" d="M49.2 44.4h29.61v4.79H49.2z"/><path fill="#fff" stroke="#BDBDBD" stroke-miterlimit="10" stroke-width="2" d="M49.2 79.76h29.61v13.7H49.2z"/><path fill="#BDBDBD" d="M49.2 102.59h29.61v4.79H49.2z"/></svg><svg viewBox="0 0 128 128" id="1F5D1" xmlns="http://www.w3.org/2000/svg"><path fill="#424242" d="M64.2 94.2c-15 0-30.2 4.9-30.3 14.3C33.7 118 49 123 64.2 123s30.5-5 30.3-14.5-15.4-14.4-30.3-14.3z"/><linearGradient id="ata" x1="64.8" x2="64.8" y1="722.859" y2="753.458" gradientTransform="translate(0 -713.89)" gradientUnits="userSpaceOnUse"><stop offset=".048" stop-color="#bdbdbd"/><stop offset=".257" stop-color="#c3c3c3" stop-opacity=".78"/><stop offset=".532" stop-color="#d3d3d3" stop-opacity=".491"/><stop offset=".842" stop-color="#eee" stop-opacity=".165"/><stop offset="1" stop-color="#fff" stop-opacity="0"/></linearGradient><path fill="url(#ata)" d="M108.3 22.1l1.8-1.9c-1-.9-2.1-1.7-3.4-2.4l-1.2 1.3-1.1 1.1-4.8-4.8-.6-.6.4-.4c-2.8-1-5.8-1.9-9.2-2.7l.3.3 2.8 2.8-4.8 5-4.9-4.9 3.6-3.7.1-.1c-1-.2-1.9-.4-2.9-.5-.6-.1-1.3-.2-1.9-.3L81 12l-2.2-2.3c-3.4-.4-6.8-.6-10.4-.7l-3.3 3.4L61.8 9c-3.4.1-6.7.3-9.9.6l-2.7 2.7-2.1-2.1c-1.6.2-3.2.5-4.8.8h-.1l4.1 4.2-5.3 5.4-5-5.3 3.7-3.7.1-.1c-3.8.8-7.2 1.8-10.3 3l.4.4.4.4-4.9 4.9-1.7-1.8-.7-.8c-1.3.8-2.5 1.6-3.5 2.4l1.2 1.2 1.8 1.9-2.9 2.9c.1.2.2.5.3.7.2.2.3.5.5.7.4.6 1 1.2 1.6 1.8l3.2-3.3 5.1 5.3-1.9 1.9 3 1.2c.4.1.8.3 1.2.4l.5-.6 1 1.1c3.8 1.2 7.7 2 11.5 2.6l3.2-3.3L53 39c2.1.2 4.1.3 6.1.4h1.1l4.8-5 4.7 4.9c2.2-.1 4.4-.2 6.5-.4l4.5-4.7 3.6 3.7c4.4-.7 8.4-1.7 11.9-2.9l.9-.9.5.5c1.5-.5 2.8-1.1 4-1.8l-1.7-1.7 4.8-5.1 2.6 2.6c.9-1 1.4-1.9 1.6-2.5 0-.1.1-.2.1-.3v-.2l.1-.2v-.3-.4l-1.7-1.7.9-.9zM73.2 9.9l5 5-5.3 5.5-5-5.1 5.3-5.4zm-16.1.1l5.1 5.3-5.1 5.2-5.1-5.3 5.1-5.2zM33.3 28.5l-5.1-5.3 4.9-4.9 5.1 5.3-4.9 4.9zm7.9 8.3l-5.1-5.4 4.9-5 5.1 5.4-4.9 5zm2.7-13.3l5.3-5.4 5.1 5.3-5.3 5.4-5.1-5.3zM56.8 37l-5-5.2 5.3-5.4 5 5.2-5.3 5.4zM60 23.4l5.1-5.2 5 5.1-5.1 5.3-5-5.2zm12.7 13.1l-4.9-5 5.1-5.3 4.9 5-5.1 5.3zm7.9-8.2l-4.9-5 5.3-5.5 4.9 4.9-5.3 5.6zm8.2 8.4l-5.4-5.5 5.3-5.5 5.3 5.4-5.2 5.6zm8.1-8.5l-5.4-5.4 4.8-5.1 5.4 5.4-4.8 5.1z"/><linearGradient id="atb" x1="63.983" x2="63.983" y1="717.533" y2="834.67" gradientTransform="translate(0 -713.89)" gradientUnits="userSpaceOnUse"><stop offset=".146" stop-color="#b0bec5"/><stop offset=".5" stop-color="#8c9fa8"/><stop offset="1" stop-color="#546e7a"/></linearGradient><path fill="url(#atb)" d="M115.1 23.7c0-.3-.1-.7-.2-1.1-.1-.2-.1-.4-.2-.7-.1-.2-.2-.5-.3-.7-.8-2.1-2.7-4.6-5.4-6.7s-6.2-3.8-10.3-5.3c-4.1-1.5-8.8-2.6-13.9-3.5-5.1-.8-10.7-1.4-16.7-1.6-5.9-.2-12.1-.1-18.6.6S36.4 6.6 29.7 8.9c-3.3 1.2-6.7 2.6-9.9 4.8-1.6 1.1-3.1 2.4-4.5 4.2-.4.4-.6.9-.9 1.4-.3.5-.6 1-.8 1.6l-.3.9c-.1.3-.2.7-.3 1l-.1.5v.3l-.1.6v1.1c0 .3 0 .6.1.9s.1.6.2.9l.2.9c.2.6.4 1.1.7 1.7.3.5.5 1 .9 1.5 1.2 1.8 2.7 3.3 4.2 4.5.4.3.8.6 1.1.8 1.7 11.1 3.3 22.3 5.1 33.7l6 38.4c0 1.1.3 2.2.7 3.1.5 1.1 1.1 1.9 1.7 2.7 1.3 1.5 2.7 2.5 4.1 3.3 2.8 1.7 5.7 2.7 8.6 3.5s5.9 1.3 8.8 1.7c1.5.2 3 .3 4.4.4.7 0 1.5.1 2.2.1H64c5.9 0 11.8-.6 17.7-2.2 2.9-.8 5.8-1.9 8.6-3.5 1.4-.9 2.8-1.9 4.1-3.3.6-.7 1.2-1.6 1.7-2.7.4-.9.7-2 .7-3.1l5.7-38.1c1.7-11.5 3.3-22.8 5-34 .8-.5 1.5-1.1 2.2-1.6 2.6-2.2 4.4-4.8 4.9-7 .1-.3.2-.5.2-.8.1-.3.1-.5.1-.8s.1-.5.1-.7v-.4-.8c.2.2.2-.1.1-.7zM97 69.7l-1.2 7.5-3.7-4 5.3-5.9c-.1.9-.3 1.6-.4 2.4zm-48.8 45.4s-.1 0 0 0c-1-.3-2-.6-2.9-.9l-3.7-4.1 5.7-6.2 5.5 6.1c.1 0-4.6 5.2-4.6 5.1zM28.8 46.6L27.4 48c-.2-1.2-.4-2.5-.6-3.7-.1 0 2 2.3 2 2.3zm2.7 3l5.4 5.9-5.7 6-1.9-2.1-1.1-6.4 3.3-3.4zm5.4-5.6c.7.2 1.4.4 2.1.5 1.6.4 3.1.7 4.7 1l1.4 1.5-5.2 5.5-5.4-5.9 2.4-2.6zm27.5 5.8l5.1 5.5-5.6 6-5.1-5.5 5.6-6zm18.9 64.3c-1 .4-1.9.7-3 1l-4.4-4.8 5.6-6.2L87 110l-3.7 4.1zM39.4 70.4L34 64.5l5.7-6 5.4 5.8-5.7 6.1zm8.5-3L53 73l-5.7 6.1-5.2-5.6 5.8-6.1zm-8.6 9.1l5.2 5.6L39 88l-5.1-5.7c-.1.1 5.4-5.8 5.4-5.8zm8 8.8l5.7 6.2-5.5 6-5.6-6.2 5.4-6zm2.9-3.1l5.7-6.1 5.6 6.2-5.6 6.1c0-.1-5.7-6.2-5.7-6.2zm14.2-3.1L58.7 73l5.2-5.6 5.6 6.1c.1 0-5.1 5.6-5.1 5.6zm8-2.5l5.5 6-5.2 5.7-5.5-6 5.2-5.7zm-8 8.7l5.5 6-5.6 6.2-5.5-6c-.1 0 5.6-6.2 5.6-6.2zm8.4 9.2l5.8 6.4-5.6 6.2-5.9-6.4c.1 0 5.7-6.2 5.7-6.2zm8.7 3.2l-5.8-6.3 5.2-5.7 5.8 6.3-5.2 5.7zm-6.2-24.2l5.6-6.1 5.5 5.9-5.6 6.1-5.5-5.9zm8.4-9.2l5.4-5.8 5.5 5.8-5.4 5.9-5.5-5.9zm-2.9-3l-5.6-6 5.4-5.8 5.6 6c-.1-.1-5.4 5.8-5.4 5.8zm-2.8 3l-5.6 6.1-5.6-6.1 5.6-6 5.6 6zm-16.9 0l-5.2 5.6-5.1-5.6 5.2-5.5 5.1 5.5zm-13.2-3l-5.4-5.8 5.2-5.5 5.4 5.8-5.2 5.5zm-16.8 6.3l5.4 5.9-4.1 4.3-1.4-8.4c-.1-.5-.2-1-.2-1.4-.1-.1.3-.4.3-.4zM36 91.3l-1.2 1.2-.5-3.1 1.7 1.9zm-.3 6.5l3.1-3.4 5.6 6.3-5.7 6.2-1.8-2.1-1.2-7zm14.6 2.9l5.6-6.1 5.5 6.1-5.6 6.1-5.5-6.1zm14 3.2l5.9 6.4-5.6 6.2-5.8-6.5c-.1 0 5.5-6.1 5.5-6.1zm8.8 9.6l2.4 2.7c-1.8.3-3.6.5-5.4.7 0-.1 3-3.4 3-3.4zm16.8-6.7l-5.4-5.9 5.2-5.8 2.8 3.1-1.1 7c-.1 0-1.5 1.6-1.5 1.6zM92.4 92l1.2-1.3-.4 2.2-.8-.9zm2.5-9.2l-5.4 6-5.8-6.3 5.6-6.2 5.7 6.1-.1.4zm2.4-21.5l-5.5-5.8 5.6-6.1 2.6 2.7c-.4 2.6-.8 5.2-1.3 7.8 0-.1-1.4 1.4-1.4 1.4zm2.8-14.9l.9-1c-.1.5-.2 1.1-.3 1.6.1 0-.6-.6-.6-.6zm-2.9-3l-1-1.1c1.1-.4 2.1-.8 3.1-1.2 0 .1-2.1 2.3-2.1 2.3zm-5.3.3l2.6 2.7-5.6 6-5.6-6 .9-1c.4-.1.8-.2 1.3-.2 2.2-.4 4.4-.9 6.4-1.5zm-14.3 2.8l-5.3 5.7-4.7-5h.6c3.3-.1 6.4-.3 9.4-.7zm-18.8.7c.8 0 1.5 0 2.2.1l-5 5.4-5.4-5.8.4-.4c2.6.3 5.3.6 7.8.7zm-27.2-3.6L30 41.8c.9.3 1.7.6 2.5.9l-.9.9zm21.5 72.6l2.7-3 3.3 3.7c-1-.1-2-.2-3.1-.3-1-.1-2-.2-2.9-.4zm56-90.8l-.1.1v.2c0 .1-.1.2-.1.3-.3.9-1.2 2.4-3.2 4s-5 3.1-8.7 4.4c-3.7 1.3-8.1 2.4-13 3.1-4.9.8-10.3 1.2-16 1.4-1.4 0-2.9 0-4.3.1h-4.5c-3-.1-6.1-.3-9.2-.7-6.2-.7-12.5-1.9-18.5-4-3-1.1-5.8-2.4-8.2-4.1-1.2-.8-2.2-1.8-2.9-2.8-.2-.2-.3-.5-.5-.7-.1-.2-.3-.5-.3-.7l-.1-.4-.1-.3v-1-.4-.2l.1-.4c.1-.2.2-.5.3-.8.2-.2.3-.5.5-.8.7-1 1.8-2 3-2.9 2.4-1.8 5.3-3.2 8.2-4.4s6.1-2.1 9.2-2.8c3.1-.7 6.2-1.3 9.3-1.7 6.3-.8 12.3-1.1 18-.9s11.1.7 16 1.6c4.9.9 9.3 2.1 13 3.6 3.7 1.4 6.7 3.1 8.7 4.8 2 1.7 3 3.2 3.3 4.2.3.8.2 1.3.3 1.4v.5c-.1.1-.1.2-.2.3z"/><path fill="#424242" d="M63.5 7.2c1.5 0 3.1 0 4.7.1 5.5.2 11 .7 16.2 1.6 5 .9 9.6 2 13.4 3.4 3.9 1.4 7.1 3.1 9.6 4.9 2.5 1.9 3.9 4 4.4 5.3l.2.6.1.5c.1.4.1.5.1.6v.1l.1.8v.8l-.1.5c0 .2-.1.3-.1.5l-.1.2-.1.5c-.4 1.3-1.6 3.5-4 5.5-.6.5-1.2 1-1.9 1.5s-1.1 1.2-1.3 2c-.5 3.2-.9 6.5-1.4 9.7-1.1 7.9-2.3 16.1-3.6 24.3L94 108.7v.3c0 .7-.2 1.4-.5 2-.3.7-.7 1.3-1.2 1.9-1.1 1.2-2.3 2.1-3.4 2.7-2.2 1.3-4.7 2.3-7.9 3.2-5.1 1.4-10.6 2.1-16.9 2.1H62c-.7 0-1.5-.1-2.1-.1-1.7-.1-3-.2-4.3-.4-3-.4-5.7-.9-8.4-1.6-3.2-.9-5.7-1.9-7.9-3.2-1-.7-2.3-1.5-3.4-2.7-.5-.6-.9-1.2-1.2-1.9-.3-.6-.4-1.3-.5-2v-.3l-6-38.4c-.9-8.3-2.2-16.7-3.4-24.7-.5-3-.9-6-1.4-9-.1-.8-.6-1.5-1.2-2-.4-.2-.7-.5-1-.8-1.6-1.2-2.7-2.4-3.6-3.8l-.1-.1c-.1-.2-.3-.4-.4-.7l-.2-.3c0-.1-.1-.2-.1-.3-.1-.3-.3-.6-.3-.8l-.2-.8c0-.1 0-.3-.1-.5v-.2V24.9l.1-.5v-.2l.1-.4c0-.2.1-.5.2-.7l.3-.8c.1-.2.2-.5.4-.8 0-.1.1-.2.2-.3.1-.1.1-.2.2-.3.2-.3.3-.5.5-.7l.1-.1c1-1.3 2.2-2.4 3.8-3.6 3.2-2.2 6.6-3.6 9.1-4.5 5.6-1.9 11.9-3.3 19.1-4.1 4-.5 8.4-.7 13.2-.7m0-3c-4.4 0-9 .2-13.8.7-6.5.7-13.1 1.9-19.8 4.2-3.3 1.2-6.7 2.6-9.9 4.8-1.6 1.1-3.1 2.4-4.5 4.2-.4.4-.6.9-.9 1.4-.3.5-.6 1-.8 1.6l-.3.9c-.1.3-.2.7-.3 1l-.1.5v.3l-.1.8v1.1c0 .3 0 .6.1.9s.1.6.2.9l.2.9c.2.6.4 1.1.7 1.7.3.5.5 1 .9 1.5 1.2 1.8 2.7 3.3 4.3 4.5.4.3.8.6 1.1.8 1.7 11.1 3.3 22.3 5.1 33.7l6 38.4c0 1.1.3 2.2.7 3.1.5 1.1 1.1 1.9 1.7 2.7 1.3 1.5 2.7 2.5 4.1 3.3 2.8 1.7 5.7 2.7 8.6 3.5 2.9.8 5.9 1.3 8.8 1.7 1.5.2 3 .3 4.4.4.7 0 1.5.1 2.2.1h2.2c5.9 0 11.8-.6 17.7-2.2 2.9-.8 5.8-1.9 8.6-3.5 1.4-.9 2.8-1.9 4.1-3.3.6-.7 1.2-1.6 1.7-2.7.4-.9.7-2 .7-3.1l5.7-38.1c1.7-11.5 3.3-22.8 5-34 .8-.5 1.5-1.1 2.2-1.6 2.6-2.2 4.4-4.8 4.9-7 .1-.3.2-.5.2-.8.1-.3.1-.5.1-.8s.1-.5.1-.7v-.4-.8s0-.3-.1-.9c0-.3-.1-.7-.2-1.1-.1-.2-.1-.4-.2-.7-.1-.2-.2-.5-.3-.7-.8-2.1-2.7-4.6-5.4-6.7-2.7-2.1-6.2-3.9-10.3-5.3-4-1.4-8.7-2.6-13.8-3.5-5.1-.8-10.7-1.4-16.7-1.6-1.6-.1-3.2-.1-4.8-.1z" opacity=".2"/></svg><svg viewBox="0 0 128 128" id="1F5D2" xmlns="http://www.w3.org/2000/svg"><linearGradient id="aua" x1="65.316" x2="65.316" y1="15.301" y2="123.52" gradientUnits="userSpaceOnUse"><stop offset="0" stop-color="#888"/><stop offset="1" stop-color="#9E9E9F"/></linearGradient><path fill="url(#aua)" d="M105.23 123.57H25.4c-1.54 0-2.79-1.25-2.79-2.79V17.97c0-1.54 1.25-2.79 2.79-2.79h79.83c1.54 0 2.79 1.25 2.79 2.79v102.81c0 1.54-1.25 2.79-2.79 2.79z"/><linearGradient id="aub" x1="62.684" x2="62.684" y1="12.884" y2="119.52" gradientUnits="userSpaceOnUse"><stop offset="0" stop-color="#fff"/><stop offset="1" stop-color="#C8C9CA"/></linearGradient><path fill="url(#aub)" d="M102.6 118.83H22.77c-1.54 0-2.79-1.23-2.79-2.74V15.28c0-1.51 1.25-2.74 2.79-2.74h79.83c1.54 0 2.79 1.23 2.79 2.74v100.81c0 1.51-1.25 2.74-2.79 2.74z"/><g fill="#616161"><path d="M93.27 45.51H32.1a2.49 2.49 0 010-4.98h61.16c1.37 0 2.49 1.11 2.49 2.49s-1.11 2.49-2.48 2.49zM93.27 59.17H32.1a2.49 2.49 0 010-4.98h61.16c1.37 0 2.49 1.11 2.49 2.49s-1.11 2.49-2.48 2.49zM93.27 72.82H32.1a2.49 2.49 0 010-4.98h61.16c1.37 0 2.49 1.11 2.49 2.49s-1.11 2.49-2.48 2.49zM93.27 86.48H32.1a2.49 2.49 0 010-4.98h61.16c1.37 0 2.49 1.11 2.49 2.49s-1.11 2.49-2.48 2.49zM58.26 100.14H32.1a2.49 2.49 0 010-4.98h26.16a2.49 2.49 0 010 4.98z"/></g><path fill="#BDBDBD" d="M105.39 90.85l-12.26 15.33-15.78 12.62h25.25c1.56 0 2.79-1.21 2.79-2.79V90.85z"/><path fill="#757575" d="M77.35 118.8c.8-4.35 1.07-9.43.36-15.9-.16-1.48.94-2.79 2.42-2.86 3.44-.17 9.35-.6 13.54-1.72 6-1.59 11.73-7.47 11.73-7.47s-3.49 9.28-12.69 18.16c-6.49 6.25-15.36 9.79-15.36 9.79z"/><linearGradient id="auc" x1="38.403" x2="38.403" y1="1.646" y2="21.412" gradientUnits="userSpaceOnUse"><stop offset="0" stop-color="#757575"/><stop offset=".032" stop-color="#BDBDBD"/><stop offset="1" stop-color="#616161"/></linearGradient><path fill="url(#auc)" d="M38.41 17.64c-1.26 0-2.66-1.89-2.66-4.43s1.4-4.43 2.66-4.43c1.19 0 2.51 1.72 2.64 4.07h5.22c-.15-5.23-3.54-9.28-7.85-9.28-4.41 0-7.87 4.23-7.87 9.64 0 5.4 3.46 9.64 7.87 9.64 1.44 0 2.6-1.17 2.6-2.6a2.618 2.618 0 00-2.61-2.61z"/><linearGradient id="aud" x1="62.684" x2="62.684" y1="1.646" y2="21.412" gradientUnits="userSpaceOnUse"><stop offset="0" stop-color="#757575"/><stop offset=".032" stop-color="#BDBDBD"/><stop offset="1" stop-color="#616161"/></linearGradient><path fill="url(#aud)" d="M62.69 17.64c-1.26 0-2.66-1.89-2.66-4.43s1.4-4.43 2.66-4.43c1.19 0 2.51 1.72 2.64 4.07h5.22c-.16-5.23-3.55-9.28-7.86-9.28-4.41 0-7.87 4.23-7.87 9.64 0 5.4 3.46 9.64 7.87 9.64 1.44 0 2.6-1.17 2.6-2.6a2.597 2.597 0 00-2.6-2.61z"/><linearGradient id="aue" x1="87.891" x2="87.891" y1="1.646" y2="21.412" gradientUnits="userSpaceOnUse"><stop offset="0" stop-color="#757575"/><stop offset=".032" stop-color="#BDBDBD"/><stop offset="1" stop-color="#616161"/></linearGradient><path fill="url(#aue)" d="M87.9 17.64c-1.26 0-2.66-1.89-2.66-4.43s1.4-4.43 2.66-4.43c1.19 0 2.51 1.72 2.64 4.07h5.22c-.15-5.23-3.54-9.28-7.85-9.28-4.41 0-7.87 4.23-7.87 9.64 0 5.4 3.46 9.64 7.87 9.64 1.44 0 2.6-1.17 2.6-2.6a2.618 2.618 0 00-2.61-2.61z"/><path fill="#424242" d="M93.11 14.01c.52.92 1.5 1.53 2.62 1.53h6.67a3.005 3.005 0 002.62 2.63v102.41H25.61v-1.76c0-1.52-1.14-2.79-2.63-2.98V15.54h7.59c1.12 0 2.1-.61 2.61-1.53a3.008 3.008 0 002.62 1.53h5.21a3.008 3.008 0 002.62-1.53c.52.92 1.5 1.53 2.62 1.53h8.61c1.12 0 2.1-.61 2.61-1.53a3.008 3.008 0 002.62 1.53h5.21a3.008 3.008 0 002.62-1.53c.52.92 1.5 1.53 2.62 1.53h9.53c1.12 0 2.1-.61 2.61-1.53a3.008 3.008 0 002.62 1.53h5.21c.85 0 1.66-.36 2.23-.99.13-.17.26-.35.37-.54M87.9 3.57c-4.23 0-7.57 3.89-7.84 8.97h-9.53c-.28-5.08-3.61-8.97-7.83-8.97-4.23 0-7.57 3.89-7.84 8.97h-8.61c-.28-5.08-3.61-8.97-7.83-8.97-4.23 0-7.57 3.89-7.84 8.97h-7.8c-1.54 0-2.79 1.23-2.79 2.74v100.81c0 1.46 1.17 2.64 2.63 2.72v1.97c0 1.54 1.25 2.79 2.79 2.79h79.83c1.54 0 2.79-1.25 2.79-2.79V17.97c0-1.49-1.17-2.7-2.64-2.78-.05-1.47-1.27-2.65-2.78-2.65h-6.87c-.28-5.08-3.62-8.97-7.84-8.97zm-2.62 8.97c.22-2.19 1.47-3.76 2.61-3.76s2.38 1.57 2.6 3.76h-5.21zm-25.2 0c.22-2.19 1.47-3.76 2.61-3.76s2.38 1.57 2.6 3.76h-5.21zm-24.28 0c.22-2.19 1.47-3.76 2.61-3.76s2.38 1.57 2.6 3.76H35.8z" opacity=".2"/></svg><svg viewBox="0 0 128 128" id="1F5D3" xmlns="http://www.w3.org/2000/svg"><linearGradient id="ava" x1="64" x2="64" y1="57.727" y2="123.78" gradientUnits="userSpaceOnUse"><stop offset="0" stop-color="#fff"/><stop offset="1" stop-color="#C8C9CA"/></linearGradient><path fill="url(#ava)" d="M108.21 124H19.79c-5.52 0-10-4.48-10-10V37.5c0-5.76 4.67-10.43 10.43-10.43h87.56c5.76 0 10.43 4.67 10.43 10.43V114c0 5.52-4.47 10-10 10z"/><path fill="#1E88E5" d="M118.21 57.95H9.79V22.17c0-4.42 3.58-8 8-8h92.43c4.42 0 8 3.58 8 8v35.78z"/><g fill="#fff"><path d="M45.44 27.31h4.13v13.88c0 1.28-.28 2.4-.85 3.38-.56.98-1.36 1.73-2.39 2.27-1.03.53-2.19.8-3.48.8-2.12 0-3.77-.54-4.96-1.62-1.18-1.08-1.78-2.6-1.78-4.58h4.16c0 .98.21 1.71.62 2.18s1.06.7 1.96.7c.79 0 1.42-.27 1.89-.81s.7-1.31.7-2.31V27.31zM61.78 45.85c-.98 1.19-2.34 1.79-4.08 1.79-1.6 0-2.82-.46-3.66-1.38s-1.27-2.26-1.29-4.04v-9.77h3.98v9.64c0 1.55.71 2.33 2.12 2.33 1.35 0 2.28-.47 2.78-1.41V32.46h3.99v14.9h-3.75l-.09-1.51zM72.84 47.36h-3.99V26.21h3.99v21.15zM81.68 41.73l2.75-9.27h4.27l-5.99 17.22-.33.79c-.89 1.95-2.36 2.92-4.41 2.92-.58 0-1.17-.09-1.76-.26v-3.02l.61.01c.75 0 1.32-.12 1.69-.34.37-.23.66-.61.87-1.14l.47-1.23-5.22-14.94h4.28l2.77 9.26z"/></g><g fill="#2F2F2F"><path d="M35.37 110.69h-7.46V81.88L19 84.63v-6.02l15.57-5.58h.8v37.66zM73.15 77.25l-14.54 33.44h-7.88L65.3 79.11H46.6v-6.02h26.55v4.16z"/></g><g fill="#9E9E9E"><path d="M82.51 88.11h-2.55c-.59 0-1.07-.48-1.07-1.07v-2.41c0-.59.48-1.07 1.07-1.07h2.55c.59 0 1.07.48 1.07 1.07v2.41c0 .59-.48 1.07-1.07 1.07zM95.29 88.11h-2.55c-.59 0-1.07-.48-1.07-1.07v-2.41c0-.59.48-1.07 1.07-1.07h2.55c.59 0 1.07.48 1.07 1.07v2.41c0 .59-.48 1.07-1.07 1.07zM108.07 88.11h-2.55c-.59 0-1.07-.48-1.07-1.07v-2.41c0-.59.48-1.07 1.07-1.07h2.55c.59 0 1.07.48 1.07 1.07v2.41c0 .59-.48 1.07-1.07 1.07zM82.51 99.4h-2.55c-.59 0-1.07-.48-1.07-1.07v-2.41c0-.59.48-1.07 1.07-1.07h2.55c.59 0 1.07.48 1.07 1.07v2.41c0 .59-.48 1.07-1.07 1.07zM95.29 99.4h-2.55c-.59 0-1.07-.48-1.07-1.07v-2.41c0-.59.48-1.07 1.07-1.07h2.55c.59 0 1.07.48 1.07 1.07v2.41c0 .59-.48 1.07-1.07 1.07zM108.07 99.4h-2.55c-.59 0-1.07-.48-1.07-1.07v-2.41c0-.59.48-1.07 1.07-1.07h2.55c.59 0 1.07.48 1.07 1.07v2.41c0 .59-.48 1.07-1.07 1.07zM82.51 110.69h-2.55c-.59 0-1.07-.48-1.07-1.07v-2.41c0-.59.48-1.07 1.07-1.07h2.55c.59 0 1.07.48 1.07 1.07v2.41c0 .59-.48 1.07-1.07 1.07zM95.29 110.69h-2.55c-.59 0-1.07-.48-1.07-1.07v-2.41c0-.59.48-1.07 1.07-1.07h2.55c.59 0 1.07.48 1.07 1.07v2.41c0 .59-.48 1.07-1.07 1.07zM108.07 110.69h-2.55c-.59 0-1.07-.48-1.07-1.07v-2.41c0-.59.48-1.07 1.07-1.07h2.55c.59 0 1.07.48 1.07 1.07v2.41c0 .59-.48 1.07-1.07 1.07z"/></g><linearGradient id="avb" x1="31.917" x2="31.917" y1="1.859" y2="23.798" gradientUnits="userSpaceOnUse"><stop offset=".005" stop-color="#757575"/><stop offset="1" stop-color="#424242"/></linearGradient><path fill="url(#avb)" d="M31.92 19.62c-1.39 0-2.95-2.1-2.95-4.92s1.56-4.92 2.95-4.92c1.32 0 2.78 1.91 2.93 4.52h5.79C40.47 8.49 36.71 4 31.92 4c-4.9 0-8.73 4.7-8.73 10.7s3.84 10.7 8.73 10.7c1.6 0 2.89-1.29 2.89-2.89.01-1.6-1.29-2.89-2.89-2.89z"/><linearGradient id="avc" x1="65.202" x2="65.202" y1="1.859" y2="23.798" gradientUnits="userSpaceOnUse"><stop offset=".005" stop-color="#757575"/><stop offset="1" stop-color="#424242"/></linearGradient><path fill="url(#avc)" d="M65.21 19.62c-1.39 0-2.95-2.1-2.95-4.92s1.56-4.92 2.95-4.92c1.32 0 2.78 1.91 2.93 4.52h5.79C73.76 8.49 70 4 65.21 4c-4.9 0-8.73 4.7-8.73 10.7s3.84 10.7 8.73 10.7c1.6 0 2.89-1.29 2.89-2.89s-1.29-2.89-2.89-2.89z"/><linearGradient id="avd" x1="99.346" x2="99.346" y1="1.859" y2="23.798" gradientUnits="userSpaceOnUse"><stop offset=".005" stop-color="#757575"/><stop offset="1" stop-color="#424242"/></linearGradient><path fill="url(#avd)" d="M99.35 19.62c-1.39 0-2.95-2.1-2.95-4.92s1.56-4.92 2.95-4.92c1.32 0 2.78 1.91 2.93 4.52h5.79C107.9 8.49 104.14 4 99.35 4c-4.9 0-8.73 4.7-8.73 10.7s3.84 10.7 8.73 10.7c1.6 0 2.89-1.29 2.89-2.89s-1.29-2.89-2.89-2.89z"/><path fill="#424242" d="M71.02 14.94a2.995 2.995 0 002.9 2.23h16.72c1.38 0 2.56-.94 2.9-2.22a3.002 3.002 0 002.9 2.23h5.83c.83 0 1.63-.35 2.2-.96.34-.36.58-.8.7-1.27a2.995 2.995 0 002.9 2.23h1.57c3.08 0 5.58 2.5 5.58 5.58v90.52c0 4.26-3.47 7.73-7.73 7.73H20.51c-4.26 0-7.73-3.47-7.73-7.73V22.76c0-3.08 2.5-5.58 5.58-5.58h4.84c1.38 0 2.56-.94 2.9-2.22a3.002 3.002 0 002.9 2.23h5.83c.83 0 1.63-.35 2.2-.96.34-.36.58-.8.7-1.27a2.995 2.995 0 002.9 2.23H56.5c1.38 0 2.56-.94 2.9-2.22a3.002 3.002 0 002.9 2.23h5.83c.83 0 1.63-.35 2.2-.96.32-.39.56-.82.69-1.3M99.35 4c-4.75 0-8.49 4.43-8.71 10.17H73.92C73.7 8.43 69.96 4 65.21 4s-8.49 4.43-8.71 10.17H40.63C40.42 8.43 36.68 4 31.92 4c-4.75 0-8.49 4.43-8.71 10.17h-4.84c-4.74 0-8.58 3.84-8.58 8.58v90.52c0 5.93 4.8 10.73 10.73 10.73h86.97c5.93 0 10.73-4.8 10.73-10.73V22.76c0-4.74-3.84-8.58-8.58-8.58h-1.57C107.84 8.43 104.11 4 99.35 4zm-2.91 10.17c.18-2.54 1.61-4.39 2.92-4.39 1.3 0 2.73 1.85 2.91 4.39h-5.83zm-34.15 0c.18-2.54 1.61-4.39 2.92-4.39 1.3 0 2.73 1.85 2.91 4.39h-5.83zm-33.28 0c.18-2.54 1.61-4.39 2.92-4.39 1.3 0 2.73 1.85 2.91 4.39h-5.83z" opacity=".2"/></svg><svg viewBox="0 0 128 128" id="2702" xmlns="http://www.w3.org/2000/svg"><linearGradient id="awa" x1="-28.578" x2="-72.943" y1="-780.746" y2="-695.033" gradientTransform="scale(1 -1) rotate(9.167 -4058.452 429.311)" gradientUnits="userSpaceOnUse"><stop offset=".281" stop-color="#ededed"/><stop offset=".29" stop-color="#eee"/><stop offset=".42" stop-color="#eaeaea"/><stop offset=".549" stop-color="#dedede"/><stop offset=".678" stop-color="#cbcaca"/><stop offset=".806" stop-color="#afafaf"/><stop offset=".932" stop-color="#8b8b8b"/><stop offset="1" stop-color="#757575"/></linearGradient><path fill="url(#awa)" d="M72.1 48.7l42.4 69.8c.1.1.1.6.2 1 .1.8-.3 1.5-.8 2l-2.3 1.9c-.5.4-1.1.6-1.7.6s-.6 0-1.3-.2-59.5-66.6-59.5-66.6c-.9-1-.8-2.5.2-3.3l4.6-4.7c1.1-.9 2-3.2 3.6-.3 0 0 2.3 3.3 4.7 3 2.3-.3 6.6-4 6.6-4 1.1-.7 2.6-.3 3.3.8z"/><linearGradient id="awb" x1="-31.299" x2="-31.299" y1="-674.102" y2="-619.699" gradientTransform="scale(1 -1) rotate(4.502 -7834.439 472.319)" gradientUnits="userSpaceOnUse"><stop offset=".002" stop-color="#ff5252"/><stop offset=".208" stop-color="#f94d4d"/><stop offset=".497" stop-color="#e63f3f"/><stop offset=".833" stop-color="#c92929"/><stop offset="1" stop-color="#b71c1c"/></linearGradient><path fill="url(#awb)" d="M57.7 49.5L41.7 15c-4-8.6-14-12.9-22.7-9.3C9.7 9.5 5.5 20.2 9.7 29.2c2.6 5.5 7.3 8.2 14.6 10.9 11.8 4.4 23.7 16.3 24 16.4l.1.1c-.1 0 6.2-4.6 9.3-7.1zM30.4 32.2c-5.7 2.7-12.5.2-15.2-5.6s-.2-12.5 5.6-15.1S33.3 11.3 36 17s.2 12.6-5.6 15.2z"/><linearGradient id="awc" x1="-937.28" x2="-981.642" y1="-634.138" y2="-548.424" gradientTransform="scale(-1) rotate(9.167 -3662.244 5371.769)" gradientUnits="userSpaceOnUse"><stop offset=".003" stop-color="#eee"/><stop offset=".349" stop-color="#ebebeb"/><stop offset=".594" stop-color="#e2e2e2"/><stop offset=".806" stop-color="#d3d3d3"/><stop offset="1" stop-color="#bdbdbd"/></linearGradient><path fill="url(#awc)" d="M59.2 47.9s4.3 3.7 6.6 4 4.7-3 4.7-3c1.6-2.9 2.6-.6 3.6.3l4.6 4.7c1 .9 1.1 2.4.2 3.3 0 0-58.7 66.3-59.4 66.6-.7.2-.7.2-1.3.2-.6 0-1.2-.2-1.7-.6l-2.3-1.9c-.6-.5-.9-1.2-.8-2 0-.5.1-.9.2-1L56 48.7c.6-1.1 2-1.5 3.2-.8z"/><linearGradient id="awd" x1="-948.906" x2="-948.906" y1="-601.848" y2="-547.444" gradientTransform="rotate(-175.487 -414.762 -292.404)" gradientUnits="userSpaceOnUse"><stop offset=".002" stop-color="#ff5252"/><stop offset=".208" stop-color="#f94d4d"/><stop offset=".497" stop-color="#e63f3f"/><stop offset=".833" stop-color="#c92929"/><stop offset="1" stop-color="#b71c1c"/></linearGradient><path fill="url(#awd)" d="M79.7 56.6l.1-.1c.3-.1 12.1-12 24-16.4 7.2-2.7 12-5.4 14.6-10.9 4.2-9 0-19.8-9.3-23.6-8.7-3.6-18.7.7-22.7 9.3L70.3 49.5c3.1 2.5 9.4 7.1 9.4 7.1zM92 17c2.7-5.7 9.5-8.2 15.2-5.6s8.2 9.5 5.6 15.2-9.5 8.2-15.2 5.6c-5.8-2.6-8.3-9.4-5.6-15.2z"/><path fill="#424242" d="M89.6 14.9l-.3.6c-1.6 3.5-1.8 7.4-.5 11.1 1.3 3.6 4 6.5 7.5 8.1 1.9.9 4 1.3 6.1 1.3 1.4 0 2.8-.2 4.1-.6-1.1.5-2.4 1-3.9 1.6-4.9 1.8-13.1 6.2-24 16.2h-.1c-.9.3-1.6.9-1.9 1.8l-.9 1c-.9 1-1 2.4-.3 3.5l36.2 59.6-1.6 1.3c-2.1-2.3-10.7-11.8-43.7-48.9-.6-.6-1.4-1-2.2-1-.9 0-1.7.4-2.2 1-32.9 37.1-41.5 46.6-43.7 48.9l-1.6-1.3 36.2-59.6c.7-1.1.5-2.6-.3-3.5l-.9-1c-.3-.8-1-1.5-1.9-1.8h-.1c-11.1-10-19.3-14.3-24.3-16.1-1.5-.5-2.7-1.1-3.9-1.6 1.3.4 2.7.6 4.1.6 2.1 0 4.2-.5 6.1-1.3 3.5-1.6 6.2-4.5 7.5-8.2s1.2-7.6-.5-11.1l-.3-.6c.2.4.4.7.6 1.1l15.3 32.8c.3.7 1 1.3 1.7 1.6.3.1.7.2 1 .2s.6 0 .9-.1c1 .8 3 2.3 4.8 3.2.4.2.9.3 1.3.3.5 0 .9-.1 1.3-.3 1.9-1 3.9-2.5 4.8-3.2.3.1.6.1.9.1s.7-.1 1-.2c.8-.3 1.4-.8 1.7-1.6L89.1 16c.1-.4.3-.7.5-1.1m13-10.7c-6.8 0-13.3 4-16.3 10.5L71.1 47.6c-.3-.2-.7-.2-1-.2-.4 0-.8.1-1.2.3 0 0-2.6 2.2-4.8 3.3-2.2-1.1-4.8-3.3-4.8-3.3-.4-.2-.8-.3-1.2-.3s-.7.1-1 .2L41.7 14.7c-3-6.5-9.5-10.5-16.3-10.5-2.1 0-4.3.4-6.4 1.3C9.7 9.3 5.5 20 9.7 29c2.6 5.5 7.3 8.2 14.6 10.9 11.8 4.4 23.7 16.3 24 16.4l.1.1s.1-.1.3-.2c.1.3.2.5.5.8 0 0 .3.4 1 1.1l-36.5 60.2c-.1.1-.1.6-.2 1-.1.8.3 1.5.8 2l2.3 1.9c.4.4 1 .6 1.5.6h.2c.6 0 .6 0 1.3-.2.5-.1 27.1-30.1 44.5-49.8 17.4 19.7 44.1 49.6 44.5 49.8.7.2.7.2 1.3.2h.2c.6 0 1.1-.2 1.5-.6l2.3-1.9c.6-.5.9-1.2.8-2 0-.5-.1-.9-.2-1L77.9 58.1c.6-.7 1-1.1 1-1.1.2-.2.4-.5.5-.8.2.2.3.2.3.2l.1-.1c.3-.1 12.1-12 23.9-16.4 7.2-2.7 12-5.4 14.6-10.9 4.2-9 0-19.8-9.3-23.6-2.1-.8-4.3-1.2-6.4-1.2zm-.2 28.9c-1.6 0-3.3-.3-4.8-1.1-5.7-2.7-8.2-9.5-5.6-15.2 1.9-4.2 6.1-6.6 10.4-6.6 1.6 0 3.3.3 4.8 1.1 5.7 2.7 8.2 9.5 5.6 15.2-1.9 4.2-6.1 6.6-10.4 6.6zm-76.8 0c-4.3 0-8.5-2.5-10.4-6.6-2.7-5.7-.2-12.5 5.6-15.2 1.6-.7 3.2-1.1 4.8-1.1 4.3 0 8.5 2.5 10.4 6.6 2.7 5.7.2 12.5-5.6 15.2-1.5.8-3.2 1.1-4.8 1.1z" opacity=".2"/><path fill="#231815" d="M65.5 65.1c1.9-.8 2.8-3 1.9-4.9s-3-2.8-4.9-2-2.8 3-2 4.9c.9 1.9 3.1 2.8 5 2z"/></svg></svg>