<?xml version="1.0" encoding="utf-8"?><svg viewBox="0 0 128 128" xmlns="http://www.w3.org/2000/svg" xmlns:xlink="http://www.w3.org/1999/xlink"><style>:root>svg{display:none}:root>svg:target{display:block}</style><svg viewBox="0 0 128 128" id="1F5FF" xmlns="http://www.w3.org/2000/svg"><linearGradient id="aaa" x1="61.844" x2="61.844" y1="3.441" y2="117.65" gradientUnits="userSpaceOnUse"><stop offset="0" stop-color="#9E9E9E"/><stop offset="1" stop-color="#616161"/></linearGradient><path fill="url(#aaa)" d="M96.39 97.77c-.65-.75-1.16-1.61-1.41-2.55-.03-.1-.06-.21-.08-.31-1.39-5.26-1.88-9.51-2.45-12.21V8.61c0-2.56-2.21-4.64-4.92-4.6-.29 0-.61.01-.92.02-11.59.05-37.62 2.83-44.67 26.07 0 0 0 4.31 4.57 8.62 0 0-8.85 8.34-13.49 29.14-.15.67-.27 1.34-.36 2.02-.65 4.68-3.58 24.83-6.89 33.85-.89 2.43.52 5.07 3.12 5.82 4.02 1.17 10.14 2.45 17.63 2.45.1 0 .2 0 .3-.01-1.82 4.45-2.86 7.77-3 8.01-.89 1.62-1.4 5.27 13.89 3.53 2.34-.27 4.66-.7 6.93-1.23 12.7-2.96 23.88-9.37 28.4-12.19 1.65-1.03 3.23-2.93 4.18-4.75.19-.37.37-.74.51-1.1.78-2.06.72-4.13-1.34-6.49z"/><linearGradient id="aab" x1="46.75" x2="73.192" y1="102.81" y2="102.81" gradientUnits="userSpaceOnUse"><stop offset="0" stop-color="#9E9E9E"/><stop offset="1" stop-color="#616161"/></linearGradient><path fill="url(#aab)" d="M74.01 82.46c-3.84 1.52-8.21 3.89-12.76 7.33-10.56 7.96-17.08 29.6-17.43 30.23-.89 1.62-1.4 5.27 13.89 3.53 2.34-.27 4.66-.7 6.93-1.23 2.75-10.54 13.57-27.23 21.21-38.13-3.2-2.53-7.72-3.36-11.84-1.73z"/><path fill="#616161" d="M96.39 97.77c-.65-.75-1.16-1.61-1.41-2.55-.03-.1-.06-.21-.08-.31-3.14-11.9-1.71-18.68-6.85-13.83-.69.97-1.43 2.01-2.2 3.11-7.63 10.9-18.45 27.58-21.21 38.13 12.7-2.96 23.88-9.37 28.4-12.19 1.65-1.03 3.23-2.93 4.18-4.75.19-.37.37-.74.51-1.1.78-2.08.72-4.15-1.34-6.51z"/><radialGradient id="aac" cx="58.352" cy="102.76" r="15.544" gradientTransform="matrix(.2245 .9745 -2.4854 .5725 300.66 -12.927)" gradientUnits="userSpaceOnUse"><stop offset="0" stop-color="#616161"/><stop offset="1" stop-color="#616161" stop-opacity="0"/></radialGradient><path fill="url(#aac)" d="M96.39 97.77c-.65-.75-1.16-1.61-1.41-2.55-.03-.1-.06-.21-.08-.31-3.14-11.9-1.71-18.68-6.85-13.83-.69.97-1.43 2.01-2.2 3.11-3.2-2.53-7.72-3.36-11.84-1.73-3.84 1.52-8.21 3.89-12.76 7.33-10.56 7.96-17.08 29.6-17.43 30.23-.89 1.62-1.4 5.27 13.89 3.53 2.34-.27 4.66-.7 6.93-1.23 12.7-2.96 23.88-9.37 28.4-12.19 1.65-1.03 3.23-2.93 4.18-4.75.19-.37.37-.74.51-1.1.78-2.08.72-4.15-1.34-6.51z" opacity=".7"/><defs><path id="aad" d="M96.39 97.77c-.65-.75-1.16-1.61-1.41-2.55-.03-.1-.06-.21-.08-.31-3.14-11.9-1.71-18.68-6.85-13.83-.69.97-1.43 2.01-2.2 3.11-3.2-2.53-7.72-3.36-11.84-1.73-3.84 1.52-8.21 3.89-12.76 7.33-10.56 7.96-17.08 29.6-17.43 30.23-.89 1.62-1.4 5.27 13.89 3.53 2.34-.27 4.66-.7 6.93-1.23 12.7-2.96 23.88-9.37 28.4-12.19 1.65-1.03 3.23-2.93 4.18-4.75.19-.37.37-.74.51-1.1.78-2.08.72-4.15-1.34-6.51z"/></defs><linearGradient id="aae" x1="58.875" x2="58.875" y1="-7.096" y2="113.48" gradientUnits="userSpaceOnUse"><stop offset="0" stop-color="#E0E0E0"/><stop offset="1" stop-color="#9E9E9E"/></linearGradient><path fill="url(#aae)" d="M86.92 4.02c-11.44.01-37.87 2.63-44.98 26.08 0 0 0 4.31 4.57 8.62 0 0-8.85 8.34-13.49 29.14-.15.67-.27 1.34-.36 2.02-.65 4.68-3.58 24.83-6.89 33.85-.89 2.43.52 5.07 3.12 5.82 4.02 1.17 10.14 2.45 17.63 2.45 13.72 0 45.73-8.62 45.73-21.55V9.05c0-2.78-2.38-5.03-5.33-5.03z"/><path fill="#616161" d="M88.27 4.92s13.72-4.31 13.72 17.24v32.98c0 2.84.18 5.68.43 8.51.43 4.85-.43 14.55-14.15 14.55V4.92z"/><radialGradient id="aaf" cx="90.923" cy="46.508" r="6.255" gradientTransform="matrix(1 0 0 5.4357 0 -206.29)" gradientUnits="userSpaceOnUse"><stop offset="0" stop-color="#616161"/><stop offset="1" stop-color="#616161" stop-opacity="0"/></radialGradient><path fill="url(#aaf)" d="M92.45 14.12s4.9-3.75 4.9 14.99v31.82c0 1.01.03 2.01.09 3.02.23 3.49.44 13.86-4.99 13.86V14.12z" opacity=".7"/><linearGradient id="aag" x1="73.366" x2="73.366" y1="3.5" y2="105.66" gradientUnits="userSpaceOnUse"><stop offset="0" stop-color="#9E9E9E"/><stop offset="1" stop-color="#616161"/></linearGradient><path fill="url(#aag)" d="M84.75 4.11c-2.96 3.31-2.7 11.6.34 20.09 2.08 5.82 2.69 12.02 2.07 18.14-1.87 18.65-8.58 53.87-32.88 69 15.36-2.17 38.17-9.53 38.17-20.46V8.61c0-2.56-2.21-4.64-4.92-4.6-.84 0-1.77.03-2.78.1z"/><linearGradient id="aah" x1="53.952" x2="64.972" y1="13.211" y2="33.235" gradientUnits="userSpaceOnUse"><stop offset="0" stop-color="#9E9E9E"/><stop offset="1" stop-color="#616161"/></linearGradient><path fill="url(#aah)" d="M84.44 28.36s-7.14-6.09-15.09-7.14c-19.25-2.54-27.2 9.3-27.2 9.3s-.23 4.04 4.34 8.35l2.2.37c16.74.61 29.49-4.06 35.46-6.81 1.73-.79 1.9-3.06.29-4.07z"/><path fill="#BDBDBD" d="M40 81.42c-.86.11-1.09-.07-.42-.58 1.98-1.51 14.4-13.34 16.16-14.5 1.19-.79-13.62-5.02-20.64-5.81-.66 2.1-1.37 4.32-1.94 6.76-.25 1.09-.44 2.19-.6 3.29-.22 1.54-2.07 13.14-2.08 13.18-1.97 10.47-3.21 15.44-4.4 19A30.61 30.61 0 0037.5 89.49c.74-1.66 2.48-2.58 4.37-2.83 6.79-.91 11.98-1.06 14.44-2.07.16-.07.18-.29.03-.39-3.51-2.36-8.91-3.75-16.34-2.78z"/><path fill="#424242" d="M86.92 7.02c.4 0 .79.1 1.18.31a2.956 2.956 0 001.81.31c.36-.05.73-.07 1.09-.07 6.61 0 8 7.94 8 14.59v32.98c0 2.59.14 5.37.44 8.77.56 6.33-2.03 10.03-7.69 11.01-1.44.25-2.49 1.5-2.49 2.96v3.93c0 .25.03.5.09.74.23.89.44 2.17.7 3.65.43 2.56.97 5.74 1.96 9.46l.08.31c.35 1.34 1.04 2.6 2.05 3.76 1.24 1.43 1.24 2.29.79 3.46-.08.2-.2.46-.36.78-.76 1.46-2.01 2.9-3.11 3.59-4.14 2.59-15.09 8.93-27.48 11.81-2.37.55-4.52.93-6.59 1.17-2.56.29-4.79.44-6.61.44-2.09 0-3.3-.19-3.96-.36l.22-.63c.47-1.34 1.33-3.83 2.58-6.88.38-.93.27-1.99-.29-2.82a3.015 3.015 0 00-2.48-1.32h-.31c-7.24 0-13.13-1.27-16.79-2.33-.49-.14-.87-.44-1.08-.85-.12-.24-.23-.61-.06-1.06 3.37-9.15 6.25-28.7 7.05-34.47.09-.65.19-1.23.32-1.78.17-.75.36-1.54.59-2.48.34-1.36-.3-2.77-1.55-3.41-1.4-.71-1.77-1.28-1.79-1.42-.03-.22.24-1.11 1.86-2.63.11-.1 2.66-2.52 6.31-6.64.18-.2.33-.43.45-.68 3.47-7.14 6.74-10.33 6.76-10.35.6-.57.94-1.36.94-2.18 0-.83-.34-1.62-.94-2.18-2.81-2.65-3.45-5.17-3.59-6.11C51.78 9.33 76.53 7.03 86.92 7.02m0-3c-11.44.01-37.87 2.63-44.98 26.08 0 0 0 4.31 4.57 8.62 0 0-3.59 3.39-7.4 11.22-3.6 4.07-6.12 6.45-6.12 6.45-4.43 4.17-3.14 7 .63 8.91-.21.83-.42 1.68-.61 2.56-.15.67-.27 1.34-.36 2.02-.65 4.68-3.58 24.83-6.89 33.85-.89 2.43.52 5.07 3.12 5.82 4.02 1.17 10.14 2.45 17.63 2.45.1 0 .2 0 .3-.01-1.82 4.45-2.86 7.77-3 8.01-.73 1.32-1.2 3.99 6.93 3.99 1.84 0 4.13-.14 6.95-.46 2.34-.27 4.66-.7 6.93-1.23 12.7-2.96 23.88-9.37 28.4-12.19 1.65-1.03 3.23-2.93 4.18-4.75.19-.37.37-.74.51-1.1.79-2.07.72-4.14-1.34-6.5-.65-.75-1.16-1.61-1.41-2.55-.03-.1-.06-.21-.08-.31-1.55-5.87-1.98-10.49-2.65-13.09v-3.93c9.9-1.71 10.55-9.9 10.17-14.23-.25-2.83-.43-5.67-.43-8.51V22.17c0-15.4-7-17.59-11-17.59-.57 0-1.08.04-1.5.1-.74-.41-1.61-.66-2.55-.66z" opacity=".2"/><linearGradient id="aai" x1="49.592" x2="49.592" y1="14.995" y2="63.582" gradientUnits="userSpaceOnUse"><stop offset="0" stop-color="#E0E0E0"/><stop offset="1" stop-color="#9E9E9E"/></linearGradient><path fill="url(#aai)" d="M60.65 26.53c3.27.89 7.46 3.47 9.96 10.55 0 0-11.85 5.13-14.3 15.51-.47 1.97-.03 4.03 1.09 5.75 1.16 1.79 2.62 4.81 2.97 9.07.08 1.04-.82 1.91-1.92 1.89-8.08-.2-39.07-3.1-27.19-14.29 0 0 14.31-9.5 23.02-25.9 1.16-2.21 3.88-3.26 6.37-2.58z"/><linearGradient id="aaj" x1="32.899" x2="45.814" y1="52.602" y2="66.109" gradientUnits="userSpaceOnUse"><stop offset="0" stop-color="#9E9E9E"/><stop offset="1" stop-color="#616161"/></linearGradient><path fill="url(#aaj)" d="M28.58 59.88c.94 8.21 23.29 9.26 30.08 9.42.89.02 1.44-.89 1-1.62-4.63-7.63-22.08-8.27-31.08-7.8z"/><path fill="#515151" d="M43.64 62.71c2.29.26 8.25 1.09 10.54 3.1.4.35.29.98-.22 1.16-.89.33-2.55.74-5.3.78-2.3.04-4.53-1.12-5.47-3.1-.16-.35-.29-.72-.37-1.13-.09-.45.33-.86.82-.81zM32.93 60.96s2.44 4.06 4.89 5.71c0 0-2.23-.27-3.96-1.25-1.12-.63-1.74-1.86-1.48-3.08.09-.43.26-.89.55-1.38z"/><g fill="#A1887F"><ellipse cx="56.35" cy="75.04" opacity=".2" rx="2.87" ry="1.28" transform="rotate(-18.386 56.354 75.052)"/><ellipse cx="60.69" cy="83.56" opacity=".2" rx="2.23" ry="1.2" transform="rotate(-59.828 60.688 83.565)"/><ellipse cx="38.51" cy="76.35" opacity=".2" rx="2.23" ry="1.2" transform="rotate(-59.828 38.513 76.346)"/><ellipse cx="66.2" cy="91.33" opacity=".08" rx="3.51" ry="1.49" transform="rotate(-26.073 66.201 91.337)"/><ellipse cx="79.42" cy="20.43" opacity=".08" rx="3.04" ry="1.29" transform="rotate(-26.073 79.42 20.426)"/><ellipse cx="46.54" cy="57.3" opacity=".08" rx="3.04" ry="1.29" transform="rotate(-26.073 46.546 57.303)"/><ellipse cx="35.82" cy="72.36" opacity=".08" rx="3.02" ry="1.28" transform="rotate(-26.073 35.823 72.365)"/><ellipse cx="82.73" cy="94.19" opacity=".08" rx="2.41" ry="1.28" transform="rotate(-25.591 82.727 94.192)"/><ellipse cx="69.69" cy="82" opacity=".08" rx="2.95" ry="1.57" transform="rotate(-25.591 69.685 82)"/><ellipse cx="67.22" cy="24.43" opacity=".08" rx="2.49" ry="1.32" transform="rotate(-25.591 67.218 24.431)"/><ellipse cx="81.93" cy="85.46" opacity=".08" rx="2.41" ry="1.02" transform="rotate(-26.073 81.93 85.469)"/><ellipse cx="45.3" cy="91.62" opacity=".08" rx="2.9" ry="1.23" transform="rotate(-19.118 45.304 91.62)"/><ellipse cx="54.28" cy="18.27" opacity=".08" rx="2.9" ry="1.23" transform="rotate(-19.118 54.286 18.266)"/><ellipse cx="87.38" cy="44.82" opacity=".08" rx="1.26" ry="2.81" transform="rotate(-37.827 87.376 44.816)"/><ellipse cx="77.12" cy="72.69" opacity=".2" rx="3.81" ry="1.66" transform="rotate(-15.377 77.111 72.683)"/><ellipse cx="49.78" cy="98.75" opacity=".2" rx="1.13" ry="2.87" transform="rotate(-88.458 49.783 98.747)"/><ellipse cx="74.31" cy="103.26" opacity=".2" rx="2.88" ry="1.01" transform="rotate(-20.577 74.32 103.265)"/><ellipse cx="68.1" cy="112.84" opacity=".2" rx="2.88" ry="1.01" transform="rotate(-20.577 68.114 112.85)"/><ellipse cx="68.58" cy="70.32" opacity=".2" rx="2.97" ry="1.39" transform="rotate(-45.434 68.586 70.32)"/><ellipse cx="41.67" cy="71.26" opacity=".2" rx="1.36" ry="3.03" transform="rotate(-39.775 41.67 71.254)"/><ellipse cx="40.28" cy="97.77" opacity=".08" rx="2.59" ry="1.34"/><ellipse cx="51.13" cy="106.77" opacity=".2" rx="1.76" ry="4.05" transform="rotate(-79.584 51.136 106.772)"/><ellipse cx="58.13" cy="94.69" opacity=".2" rx="1.2" ry="3.05" transform="rotate(-88.458 58.137 94.697)"/><ellipse cx="54.81" cy="121.76" opacity=".2" rx="1.2" ry="3.05" transform="rotate(-88.458 54.808 121.764)"/><ellipse cx="36.49" cy="105.11" opacity=".2" rx="2.08" ry=".73" transform="rotate(-20.577 36.496 105.12)"/><ellipse cx="82.69" cy="49.83" opacity=".2" rx="1.33" ry="2.76" transform="rotate(-29.223 82.69 49.833)"/><ellipse cx="62.08" cy="51.5" opacity=".2" rx="1.18" ry="2.26" transform="rotate(-44.267 62.089 51.504)"/><ellipse cx="69.84" cy="46.09" opacity=".08" rx="1.56" ry="3.35" transform="rotate(-7.666 69.845 46.089)"/><ellipse cx="78.37" cy="42.05" opacity=".08" rx="1.56" ry="3.35" transform="rotate(-7.666 78.375 42.046)"/><ellipse cx="57.12" cy="32.05" opacity=".08" rx="1.56" ry="3.35" transform="rotate(-7.666 57.126 32.046)"/><ellipse cx="69.55" cy="17.76" opacity=".08" rx="2.32" ry="1.19" transform="rotate(-50.144 69.545 17.756)"/><ellipse cx="47.71" cy="49.42" opacity=".08" rx="1.34" ry="2.3" transform="rotate(-7.862 47.69 49.406)"/><ellipse cx="66.26" cy="60.77" opacity=".08" rx="1.64" ry="2.82" transform="rotate(-7.862 66.24 60.748)"/><ellipse cx="33.01" cy="91.31" opacity=".08" rx="1.05" ry="2.35" transform="rotate(-37.505 33.001 91.31)"/><ellipse cx="51.59" cy="41.77" opacity=".08" rx="1.25" ry="2.85" transform="rotate(-48.292 51.59 41.774)"/><ellipse cx="61.76" cy="36.88" opacity=".2" rx="2.73" ry="1.19" transform="rotate(-65.462 61.76 36.876)"/><ellipse cx="47.25" cy="29.87" opacity=".2" rx="2.07" ry=".87" transform="rotate(-8.11 47.251 29.87)"/><ellipse cx="78.05" cy="63.01" opacity=".2" rx="1.41" ry="2.93" transform="rotate(-29.223 78.046 63.015)"/><ellipse cx="62.83" cy="15.11" opacity=".08" rx="1.42" ry="2.45" transform="rotate(-7.862 62.81 15.108)"/><ellipse cx="77.46" cy="51.35" opacity=".2" rx="2.69" ry="1.44" transform="rotate(-77.367 77.456 51.348)"/><ellipse cx="78.81" cy="112.91" opacity=".2" rx="1.18" ry="2.26" transform="rotate(-44.267 78.815 112.91)"/><ellipse cx="55.38" cy="115.74" opacity=".2" rx="1.86" ry="1.01" transform="rotate(-66.303 55.388 115.736)"/><ellipse cx="85.38" cy="104.75" opacity=".08" rx="1.56" ry="3.35" transform="rotate(-7.666 85.38 104.753)"/><ellipse cx="49.32" cy="116.94" opacity=".08" rx="1.64" ry="2.82" transform="rotate(-7.862 49.298 116.904)"/><ellipse cx="60.83" cy="114.78" opacity=".2" rx="1.41" ry="2.93" transform="rotate(-29.223 60.832 114.777)"/><ellipse cx="92.73" cy="103.13" opacity=".2" rx="2.69" ry="1.44" transform="rotate(-77.367 92.731 103.127)"/><ellipse cx="88.79" cy="62.24" opacity=".08" rx="1.26" ry="2.81" transform="rotate(-37.827 88.783 62.24)"/><ellipse cx="85.81" cy="72.35" opacity=".2" rx="1.33" ry="2.76" transform="rotate(-29.223 85.805 72.349)"/><ellipse cx="73.29" cy="30.03" opacity=".2" rx="1.33" ry="2.76" transform="rotate(-29.223 73.294 30.03)"/><ellipse cx="89.82" cy="10.18" opacity=".08" rx="1.56" ry="3.35" transform="rotate(-7.666 89.82 10.182)"/><ellipse cx="97.37" cy="50.1" opacity=".2" rx="1.41" ry="2.93" transform="rotate(-29.223 97.366 50.098)"/><ellipse cx="96.84" cy="70.51" opacity=".2" rx="1.41" ry="2.93" transform="rotate(-29.223 96.838 70.51)"/><ellipse cx="88.9" cy="19.49" opacity=".2" rx="2.69" ry="1.44" transform="rotate(-77.367 88.899 19.484)"/><ellipse cx="81.35" cy="30.9" opacity=".2" rx="2.01" ry="1.11" transform="rotate(-72.741 81.342 30.9)"/><ellipse cx="40.34" cy="54.05" opacity=".2" rx="2.9" ry="1.27" transform="rotate(-65.462 40.345 54.046)"/><ellipse cx="75.75" cy="11.72" opacity=".2" rx="1.35" ry="3.55" transform="rotate(-27.576 75.753 11.724)"/></g><linearGradient id="aak" x1="43.776" x2="48.151" y1="75.596" y2="90.346" gradientUnits="userSpaceOnUse"><stop offset="0" stop-color="#9E9E9E"/><stop offset="1" stop-color="#616161"/></linearGradient><path fill="url(#aak)" d="M60.7 87.61c-1.86-.75-2.97-2.07-7.11-2.82-6.01-1.09-9.35 1.3-13.51 1.04-4.86-.31-3.8-2.49-2.14-3.29 2.25-1.08 4.96-2.23 17.19 1.46 2.39.72 1.33-.39 1.33-.39-1.17-1.58-7.63-3.77-13.28-3.92-14.75-.39-10.2 9.58-5.36 10.89 7.55 2.04 17.96-1.19 22.76-2.35.37-.08.47-.48.12-.62z"/></svg><svg viewBox="0 0 128 128" id="1F6AC" xmlns="http://www.w3.org/2000/svg"><linearGradient id="aba" x1="106.6" x2="106.6" y1="6.5" y2="75.447" gradientUnits="userSpaceOnUse"><stop offset="0" stop-color="#eee"/><stop offset="1" stop-color="#BDBDBD"/></linearGradient><path fill="url(#aba)" d="M119.45 65.73c1.24.74.18 2.71-1.17 2.18-7.22-2.84-18.42-12.89-16.28-30.15 2.12-17.07 2.79-25.5-8.39-31.97-.73-.42-.39-1.54.45-1.45 7.82.79 26.2 5.55 22.21 26.26-3.25 16.88-4.81 30.36 3.18 35.13z"/><linearGradient id="abb" x1="90.539" x2="90.539" y1="6.5" y2="67.051" gradientUnits="userSpaceOnUse"><stop offset="0" stop-color="#eee"/><stop offset="1" stop-color="#BDBDBD"/></linearGradient><path fill="url(#abb)" d="M100.64 54.69c1.01.63.11 2.23-.99 1.77-5.88-2.43-14.92-10.83-12.91-24.95 1.98-13.96 2.65-20.86-6.42-26.32-.59-.36-.29-1.27.39-1.19 6.4.76 21.4 4.92 17.83 21.85-2.91 13.79-4.38 24.82 2.1 28.84z"/><linearGradient id="abc" x1="76" x2="76" y1="69.468" y2="94.966" gradientUnits="userSpaceOnUse"><stop offset="0" stop-color="#eee"/><stop offset=".267" stop-color="#E9E9E9"/><stop offset=".594" stop-color="#DADADA"/><stop offset=".953" stop-color="#C1C1C1"/><stop offset="1" stop-color="#BDBDBD"/></linearGradient><path fill="url(#abc)" d="M48 72h-8v20h72V72z"/><linearGradient id="abd" x1="117.68" x2="117.68" y1="71.875" y2="92.899" gradientUnits="userSpaceOnUse"><stop offset="0" stop-color="#FF6E40"/><stop offset=".224" stop-color="#FF6A3A"/><stop offset=".519" stop-color="#FF5D2A"/><stop offset=".852" stop-color="#FF480E"/><stop offset="1" stop-color="#FF3D00"/></linearGradient><path fill="url(#abd)" d="M121.95 92h-10.59V72h10.59c1.13 0 2.05.92 2.05 2.05v15.89c0 1.14-.92 2.06-2.05 2.06z"/><linearGradient id="abe" x1="22" x2="22" y1="72.5" y2="90.677" gradientUnits="userSpaceOnUse"><stop offset="0" stop-color="#FFC107"/><stop offset="1" stop-color="#FFA000"/></linearGradient><path fill="url(#abe)" d="M8 72c-2.21 0-4 4.48-4 10s1.79 10 4 10h32V72H8z"/><path fill="#424242" d="M37 72h3v20h-3z" opacity=".2"/><path fill="#eee" d="M40 72h8v20h-8z" opacity=".8"/><g fill="#FFCA28"><path d="M9.5 72.84l-.8.86c-.19.21-.06.56.22.56h1.6c.27 0 .41-.35.22-.56l-.8-.86c-.13-.13-.32-.13-.44 0zM15.77 87.96l1.3-1.14c.31-.28.16-.82-.24-.86l-2.36-.25c-.4-.04-.65.46-.4.8l1.07 1.39c.15.2.44.23.63.06zM10.45 90.05l-.88.97c-.21.23-.06.63.25.62l1.78-.02c.3 0 .45-.4.23-.63l-.9-.94a.312.312 0 00-.48 0zM16.17 77.08l-.8.86c-.19.21-.06.56.22.56h1.6c.27 0 .41-.35.22-.56l-.8-.86a.314.314 0 00-.44 0zM6.82 78.79l.8 1.94c.19.47.82.45.99-.03l1.01-2.8c.17-.48-.28-.94-.72-.73l-1.81.86c-.27.13-.39.47-.27.76zM8.75 85.55l.31.74c.07.18.31.17.38-.01l.39-1.08c.07-.18-.11-.36-.28-.28l-.69.33c-.11.06-.16.19-.11.3zM11.68 79.15l-.62.21c-.15.05-.17.27-.03.35l.82.45c.14.08.3-.06.25-.22l-.2-.66c-.03-.1-.13-.16-.22-.13zM21.25 74.74l-.8.86c-.19.21-.06.56.22.56h1.6c.27 0 .41-.35.22-.56l-.8-.86a.297.297 0 00-.44 0zM27.79 87.95l-1.67-.14c-.4-.03-.65.47-.38.8l1.54 1.94c.26.33.77.16.8-.28l.13-1.8c.01-.27-.17-.5-.42-.52zM27.93 78.99l-.8.86c-.19.21-.06.56.22.56h1.6c.27 0 .41-.35.22-.56l-.8-.86a.297.297 0 00-.44 0zM33.06 75.48l.69.96c.17.23.51.13.55-.16l.2-1.7c.03-.29-.28-.48-.49-.3l-.89.74c-.14.11-.16.32-.06.46zM35.36 77.29l-1.28.65c-.31.16-.29.64.03.76l1.89.73c.32.12.62-.23.48-.57l-.61-1.38a.372.372 0 00-.51-.19zM29.23 84.12l-.8.86c-.19.21-.06.56.22.56h1.6c.27 0 .41-.35.22-.56l-.8-.86a.297.297 0 00-.44 0zM23.97 73.75l.25 1.61c.06.39.53.51.74.19l1.26-1.88c.21-.32-.04-.76-.4-.7l-1.5.26a.45.45 0 00-.35.52zM18.58 80.7l.8 1.94c.19.47.82.45.99-.03l1.01-2.8c.17-.48-.28-.94-.72-.73l-1.81.86c-.27.13-.39.47-.27.76zM20.51 87.45l.31.74c.07.18.31.17.38-.01l.39-1.08c.07-.18-.11-.36-.28-.28l-.69.33c-.11.06-.16.19-.11.3zM23.44 81.06l-.62.21c-.15.05-.17.27-.03.35l.82.45c.14.08.3-.06.25-.22l-.2-.66c-.03-.11-.13-.17-.22-.13zM27.62 76.19l-.08.6c-.02.15.13.24.24.16l.64-.51c.11-.09.07-.27-.07-.29l-.56-.09c-.08-.02-.16.04-.17.13zM32.06 72.36l-.49.3c-.12.07-.09.26.04.3l.77.22c.13.04.24-.12.17-.24l-.28-.52c-.04-.08-.14-.11-.21-.06zM32.74 80.12l-.91.29c-.22.07-.25.39-.05.51l1.18.69c.2.12.44-.08.37-.32l-.27-.98c-.04-.15-.18-.24-.32-.19zM35.23 84.08l.86.79c.21.19.53.02.5-.28l-.13-1.71c-.02-.29-.36-.41-.54-.19l-.73.92c-.1.14-.09.35.04.47zM25.7 83.94l.48.44c.12.11.29.01.28-.15l-.07-.95c-.01-.16-.2-.23-.3-.1l-.41.51c-.06.07-.05.18.02.25zM5.81 83.71l-.94.23c-.22.06-.27.38-.08.51l1.15.78c.2.13.45-.06.39-.3l-.21-1.01a.261.261 0 00-.31-.21zM15.93 81.88l-.62.21c-.15.05-.17.27-.03.35l.82.45c.14.08.3-.06.25-.22l-.2-.67c-.03-.1-.12-.15-.22-.12zM35.7 87.64l-1.51.51c-.36.12-.41.66-.07.85l1.98 1.11c.34.19.72-.16.61-.55l-.48-1.62a.41.41 0 00-.53-.3zM15.64 73.67l-.99.33c-.24.08-.27.43-.04.56l1.3.73c.22.12.47-.1.4-.36L16 73.87c-.05-.16-.21-.25-.36-.2z"/></g><g fill="#E64A19"><path d="M117.35 72.67l-.86.86c-.21.21-.06.56.23.56h1.71c.29 0 .44-.35.23-.56l-.86-.86a.308.308 0 00-.45 0zM120.91 87.87l1.39-1.14c.34-.28.17-.82-.26-.86l-2.54-.25c-.43-.04-.7.46-.43.8l1.14 1.39c.19.2.49.23.7.06zM118.37 89.88l-.94.97c-.23.23-.06.63.27.62l1.91-.02c.33 0 .48-.4.25-.63l-.97-.94a.365.365 0 00-.52 0zM120.01 76.08l-.86.86c-.21.21-.06.56.23.56h1.71c.29 0 .44-.35.23-.56l-.86-.86c-.11-.12-.32-.12-.45 0zM114.48 78.63l.86 1.94c.21.47.88.45 1.06-.03l1.08-2.8c.18-.48-.3-.94-.77-.73l-1.94.86c-.29.13-.42.47-.29.76zM116.55 85.38l.33.75c.08.18.34.17.41-.01l.41-1.08c.07-.18-.12-.36-.3-.28l-.75.33c-.1.05-.15.18-.1.29zM119.69 78.99l-.66.21c-.16.05-.18.27-.03.35l.88.45c.15.08.32-.06.27-.22l-.21-.66c-.05-.11-.15-.16-.25-.13zM113.4 83.55l-1.01.23c-.24.06-.3.38-.09.51l1.24.78c.21.13.48-.06.42-.3l-.23-1.01a.27.27 0 00-.33-.21zM118.09 81.88l-.66.21c-.16.05-.18.27-.03.35l.88.45c.15.08.32-.06.27-.22l-.23-.67a.18.18 0 00-.23-.12zM113.5 75.58l-.66.21c-.16.05-.18.27-.03.35l.88.45c.15.08.32-.06.27-.22l-.21-.66c-.04-.1-.15-.16-.25-.13zM122.02 73.75l-1.06.34c-.26.08-.29.43-.05.56l1.4.73c.24.12.51-.1.43-.36l-.34-1.06a.302.302 0 00-.38-.21zM121.85 82.17l-1.06.34c-.26.08-.29.43-.05.56l1.4.73c.24.12.51-.1.43-.36l-.34-1.06a.302.302 0 00-.38-.21zM114.94 88.25l-1.06.34c-.26.08-.29.43-.05.56l1.4.73c.24.12.51-.1.43-.36l-.34-1.06a.302.302 0 00-.38-.21z"/></g><path fill="#E0E0E0" d="M54.06 72h1v20h-1zM59.31 72h1v20h-1zM64.56 72h1v20h-1zM69.81 72h1v20h-1zM75.06 72h1v20h-1zM80.31 72h1v20h-1zM85.56 72h1v20h-1zM90.81 72h1v20h-1zM96.06 72h1v20h-1zM101.31 72h1v20h-1zM106.56 72h1v20h-1z" opacity=".1"/><path fill="#424242" d="M121 75v14H8.49C7.9 88.21 7 85.68 7 82s.9-6.21 1.49-7H121m.95-3H8c-2.21 0-4 4.48-4 10s1.79 10 4 10h113.95c1.13 0 2.05-.92 2.05-2.05v-15.9c0-1.13-.92-2.05-2.05-2.05zM102.41 9.41c3.08 1.22 6.28 3.13 8.49 6.1 2.75 3.7 3.57 8.58 2.42 14.52-2.18 11.33-3.84 22.1-1.65 29.72-4.32-4.5-7.94-11.61-6.7-21.62 1.55-12.41 2.7-21.64-2.56-28.72m-8.44-5.08c-.77 0-1.06 1.05-.36 1.46 11.18 6.47 10.52 14.9 8.39 31.97-2.14 17.26 9.06 27.31 16.28 30.15.16.06.31.09.45.09 1.11 0 1.81-1.62.71-2.27-7.99-4.77-6.43-18.25-3.18-35.13 3.99-20.72-14.39-25.47-22.21-26.26-.02-.01-.05-.01-.08-.01z" opacity=".2"/><path fill="#424242" d="M88.85 9.52c1.9.99 3.73 2.35 5.06 4.2 2.11 2.94 2.68 6.81 1.69 11.51-1.75 8.32-3.15 16.28-2.21 22.45-2.72-3.65-4.66-8.86-3.68-15.74 1.3-9.15 2.35-16.53-.86-22.42M80.62 4c-.62 0-.87.85-.3 1.19 9.07 5.46 8.41 12.36 6.42 26.32-2 14.11 7.03 22.51 12.91 24.95.13.06.26.08.39.08.9 0 1.49-1.3.6-1.85-6.48-4.02-5.01-15.05-2.11-28.84C102.1 8.93 87.1 4.77 80.7 4.01 80.68 4 80.65 4 80.62 4z" opacity=".2"/></svg><svg viewBox="0 0 128 128" id="1FAA6" xmlns="http://www.w3.org/2000/svg"><linearGradient id="aca" x1="55.935" x2="55.935" y1="29.979" y2="127.593" gradientUnits="userSpaceOnUse"><stop offset=".104" stop-color="#9e9e9e"/><stop offset=".454" stop-color="#849298"/><stop offset=".673" stop-color="#7a8d96"/><stop offset=".948" stop-color="#505e64"/></linearGradient><path fill="url(#aca)" d="M35.35 21.07c3.03-7.58 8.55-13.39 15.26-15.83C52.85 4.44 73.54 4 73.54 4s2.4 6.96 6.44 17.07c1.3 3.26 3.32 5.57 7.61 6.18 1.41.2 2.48 1.46 2.48 3.01v83.81H21.8v-83.7c0-1.62 1.17-2.93 2.65-3.02 7.38-.45 9.52-2.82 10.9-6.28z"/><linearGradient id="acb" x1="42.031" x2="42.031" y1="8.839" y2="29.155" gradientUnits="userSpaceOnUse"><stop offset="0" stop-color="#757575" stop-opacity="0"/><stop offset=".828" stop-color="#757575"/><stop offset=".954" stop-color="#757575" stop-opacity="0"/></linearGradient><path fill="url(#acb)" d="M44.56 8.59c-3.95 3.01-7.15 7.34-9.21 12.48-1.38 3.46-3.52 5.83-10.91 6.27-.68.04-1.28.35-1.74.81h38.67V8.59H44.56z"/><linearGradient id="acc" x1="83.568" x2="52.453" y1="19.537" y2="158.474" gradientUnits="userSpaceOnUse"><stop offset=".153" stop-color="#bdbdbd"/><stop offset="1" stop-color="#6e818a"/></linearGradient><path fill="url(#acc)" d="M51.22 21.07C55.26 10.96 63.74 4 73.54 4c9.81 0 18.28 6.96 22.32 17.07 1.3 3.26 3.32 5.57 7.61 6.18 1.41.2 2.48 1.46 2.48 3.01v83.81H37.67v-83.7c0-1.62 1.17-2.93 2.65-3.02 7.38-.45 9.52-2.82 10.9-6.28z"/><path fill="#bdbdbd" d="M37.67 33.98c.47 6.37.72 12.74.88 19.11.18 6.37.23 12.74.26 19.11-.02 6.37-.06 12.74-.24 19.11-.16 6.37-.41 12.74-.87 19.11-.47-6.37-.72-12.74-.89-19.11-.18-6.37-.23-12.74-.25-19.11.02-6.37.07-12.74.24-19.11.16-6.38.41-12.75.87-19.11z"/><path fill="#e0e0e0" d="M73.54 4c-3.41.87-6.5 2.34-9.28 4.26-2.78 1.9-5.29 4.22-7.4 6.8-.53.65-.97 1.31-1.43 2.04l-1.38 2.19c-.91 1.48-1.83 2.97-2.87 4.42-.28.37-.5.71-.85 1.1-.34.37-.71.69-1.11.96-.79.55-1.64.94-2.52 1.2-1.76.52-3.59.58-5.32.3 1.75-.17 3.45-.54 4.95-1.27.74-.37 1.45-.79 2.03-1.33.6-.53.97-1.12 1.42-1.88.86-1.47 1.67-3.01 2.52-4.53.85-1.52 1.68-3.09 2.82-4.56 2.22-2.89 5.02-5.24 8.15-7.03C66.42 4.92 70 3.82 73.54 4z"/><path fill="#777" d="M92.58 41.37c-1.1.05-2.33-.16-3.24-.2-.91-.04-1.81.16-2.72.17-1.75.01-3.44-.73-5.19-.75-2.28-.03-4.48 1.16-6.76.96-1.26-.11-2.47-.64-3.74-.65-1.24-.01-2.44.48-3.69.55-2.09.12-4.15-.98-6.22-.7-1.06.14-2.05.64-3.09.87-1.87.41-4.27-.64-4.27-2.8 0-1.5 1.22-2.72 2.72-2.72 1.12 0 2.22.1 3.34 0 1.48-.13 2.96-.42 4.45-.27 1.16.12 2.3.5 3.46.37.74-.09 1.44-.38 2.17-.57 1.14-.31 2.36-.35 3.52-.14 1.07.2 2.1.62 3.18.66 1.46.06 2.88-.57 4.34-.56 1.19.01 2.34.45 3.53.5 1.1.05 2.19-.23 3.29-.36 2.31-.28 7.66-.28 7.66 3.1 0 1.96-1.26 2.48-2.74 2.54z" opacity=".55"/><g opacity=".55"><path fill="#777" d="M69.12 66.89c-1.13-.01-2.4-.36-3.5-.21-.67.09-1.32.27-1.98.36-.62.08-1.25.08-1.88.08-2.36 0-7.93.89-7.93-2.89 0-1.1.72-2.21 1.79-2.56 1.22-.4 3.09.27 4.36.45.61.09 1.22.18 1.84.18 2.46.01 10.03-2.85 10.03 1.92 0 1.06-.73 2.31-1.82 2.57-.3.08-.6.11-.91.1zM92.43 66.94c-.86-.01-1.68-.37-2.57-.39-.79-.02-1.53.37-2.3.57-1.94.49-4-.28-5.97.07-1.29.23-1.92.35-2.93-.47-.84-.68-1.52-1.3-1.52-2.47 0-1.26.87-2.35 2.08-2.65 1.6-.41 2.33.38 3.82.7.83.18 1.67-.17 2.49-.38 1.1-.28 2.26-.32 3.38-.11.37.07.74.17 1.12.2 1.32.1 2.35-.83 3.61-.21a2.76 2.76 0 011.52 2.44c0 1.14-.76 2.24-1.86 2.58-.31.09-.59.12-.87.12z"/></g><g opacity=".55"><path fill="#777" d="M86.34 54.15c-1.62.08-3.59-.44-4.76-.49-1.41-.06-2.79.44-4.2.6-2.24.24-4.48-.4-6.74-.4-2.64.01-10.74 2.5-10.74-2.33 0-3.02 2.75-2.39 4.69-2.03 1.93.36 3.89-.61 5.84-.43 1.05.1 2.04.52 3.09.63 1.92.19 3.8-.7 5.72-.66.6.01 1.19.12 1.79.16.95.07 1.9-.02 2.83-.18.8-.13 1.74-.55 2.55-.43 1.39.2 2.63 1.53 2.63 2.93.03 1.98-1.19 2.56-2.7 2.63z"/></g><g fill="#777"><path d="M93.63 61.79c-1.26-.62-2.3.31-3.61.21-.38-.03-.75-.13-1.12-.2a7.866 7.866 0 00-3.38.11c-.82.21-1.66.56-2.49.38-1.49-.32-2.22-1.11-3.82-.7-.9.23-1.61.89-1.92 1.73.28-.2.59-.36.93-.44 1.6-.41 2.33.38 3.82.7.83.18 1.67-.17 2.49-.38 1.1-.28 2.26-.32 3.38-.11.37.07.74.17 1.12.2 1.32.1 2.35-.83 3.61-.21a2.76 2.76 0 011.52 2.44c0 .32-.07.64-.18.94.71-.5 1.17-1.35 1.17-2.23 0-1.03-.6-1.99-1.52-2.44zM61.81 62.31c-.62 0-1.23-.09-1.84-.18-1.27-.18-3.13-.85-4.36-.45-.76.25-1.33.88-1.61 1.61.19-.13.39-.25.62-.32 1.22-.4 3.09.27 4.36.45.61.09 1.22.18 1.84.18 2.46.01 10.03-2.85 10.03 1.92 0 .32-.07.66-.2.99.73-.5 1.19-1.44 1.19-2.28 0-4.77-7.57-1.91-10.03-1.92zM86.43 48.6c-.81-.12-1.76.3-2.55.43-.94.16-1.89.24-2.83.18-.6-.04-1.19-.15-1.79-.16-1.93-.04-3.81.85-5.72.66-1.05-.11-2.04-.53-3.09-.63-1.95-.18-3.92.79-5.84.43-1.74-.33-4.13-.86-4.6 1.21.98-.45 2.44-.14 3.61.08 1.93.36 3.89-.61 5.84-.43 1.05.1 2.04.52 3.09.63 1.92.19 3.8-.7 5.72-.66.6.01 1.19.12 1.79.16.95.07 1.9-.02 2.83-.18.8-.13 1.74-.55 2.55-.43 1.39.2 2.63 1.53 2.63 2.93 0 .36-.05.67-.13.94.68-.37 1.12-1.05 1.12-2.23.01-1.4-1.24-2.73-2.63-2.93zM87.66 35.73c-1.1.13-2.19.41-3.29.36-1.19-.05-2.34-.49-3.53-.5-1.46-.01-2.88.62-4.34.56-1.08-.04-2.12-.46-3.18-.66a7.893 7.893 0 00-3.52.14c-.72.19-1.42.49-2.17.57-1.16.13-2.3-.25-3.46-.37-1.49-.15-2.97.14-4.45.27-1.12.1-2.22 0-3.34 0-1.17 0-2.17.75-2.55 1.79.44-.31.98-.5 1.56-.5 1.12 0 2.22.1 3.34 0 1.48-.13 2.96-.42 4.45-.27 1.16.12 2.3.5 3.46.37.74-.09 1.44-.38 2.17-.57 1.15-.31 2.36-.35 3.52-.14 1.07.2 2.1.62 3.18.66 1.46.06 2.88-.57 4.34-.56 1.19.01 2.34.45 3.53.5 1.1.05 2.19-.23 3.29-.36 2.31-.28 7.66-.28 7.66 3.1 0 .34-.05.61-.12.87.66-.36 1.1-1 1.1-2.16.01-3.38-5.34-3.38-7.65-3.1z"/></g><linearGradient id="acd" x1="55.935" x2="55.935" y1="99.898" y2="136.13" gradientUnits="userSpaceOnUse"><stop offset=".104" stop-color="#9e9e9e"/><stop offset=".454" stop-color="#849298"/><stop offset=".673" stop-color="#7a8d96"/><stop offset=".948" stop-color="#505e64"/></linearGradient><path fill="url(#acd)" d="M93.27 124H18.6c-1.13 0-2.05-.92-2.05-2.05v-13.23c0-1.13.92-2.05 2.05-2.05h74.67c1.13 0 2.05.92 2.05 2.05v13.23c0 1.13-.92 2.05-2.05 2.05z"/><linearGradient id="ace" x1="72.065" x2="72.065" y1="104.24" y2="138.268" gradientUnits="userSpaceOnUse"><stop offset=".153" stop-color="#bdbdbd"/><stop offset="1" stop-color="#6e818a"/></linearGradient><path fill="url(#ace)" d="M109.6 124H34.53c-1.02 0-1.85-.83-1.85-1.85v-13.63c0-1.02.83-1.85 1.85-1.85h75.07c1.02 0 1.85.83 1.85 1.85v13.63c0 1.02-.83 1.85-1.85 1.85z"/><g><path fill="#e0e0e0" d="M32.68 108.76c-.07-.85.45-1.75 1.3-2.11.42-.2.91-.19 1.31-.21l1.27-.07 5.07-.24c3.38-.13 6.76-.25 10.14-.33 6.76-.18 13.52-.23 20.29-.25 6.76.02 13.52.07 20.29.25 3.38.08 6.76.2 10.14.33l5.07.24 1.27.07c.4.03.89.01 1.31.21.85.37 1.37 1.26 1.3 2.11-.05-.86-.67-1.59-1.42-1.8-.37-.13-.76-.07-1.19-.05l-1.27.07-5.07.24c-3.38.13-6.76.25-10.14.33-6.76.18-13.52.23-20.29.25-6.76-.02-13.52-.07-20.29-.25-3.38-.08-6.76-.2-10.14-.33l-5.07-.24-1.27-.07c-.44-.02-.82-.08-1.19.05-.75.21-1.37.94-1.42 1.8z"/></g></svg><svg viewBox="0 0 128 128" id="1FAA7" xmlns="http://www.w3.org/2000/svg"><path fill="#a3673e" d="M76.1 124.17H59.47V4h11.96c.69 0 1.36.29 1.83.8l2.45 2.65c.25.27.39.62.39.99v115.73z"/><path fill="#bf855e" d="M72.53 124.17H55.9V5.36c0-.75.61-1.36 1.36-1.36h13.91c.75 0 1.36.61 1.36 1.36v118.81z"/><linearGradient id="ada" x1="66" x2="66" y1="81.626" y2="96.647" gradientUnits="userSpaceOnUse"><stop offset=".167" stop-color="#424242"/><stop offset=".944" stop-color="#424242" stop-opacity="0"/></linearGradient><path fill="url(#ada)" d="M76.1 83l-20.2.02v15L76.1 98z"/><linearGradient id="adb" x1="66" x2="66" y1=".007" y2="13.477" gradientTransform="rotate(180 66 11.51)" gradientUnits="userSpaceOnUse"><stop offset=".232" stop-color="#424242"/><stop offset=".943" stop-color="#424242" stop-opacity="0"/></linearGradient><path fill="url(#adb)" d="M55.9 22.02L76.1 22V7l-20.2.02z"/><linearGradient id="adc" x1="63.5" x2="63.5" y1="90.335" y2="28.308" gradientUnits="userSpaceOnUse"><stop offset=".373" stop-color="#9e9e9e"/><stop offset="1" stop-color="#bdbdbd"/></linearGradient><path fill="url(#adc)" d="M108.54 89.63H22.25c-.35 0-.69-.09-.99-.26l-3.97-2.23c-.52-.29-.85-.85-.85-1.45v-71.7c0-.54.44-.99.99-.99h89.1c.48 0 .96.16 1.34.45l1.89 1.45c.5.38.79.98.79 1.6v71.1c.01 1.13-.9 2.03-2.01 2.03z"/><path fill="#f5f5f5" d="M106.27 86.67H17.45c-.56 0-1.01-.45-1.01-1.01V14.01c0-.56.45-1.01 1.01-1.01h88.82c.56 0 1.01.45 1.01 1.01v71.65c0 .56-.45 1.01-1.01 1.01z"/><g fill="none" stroke="#616161" stroke-linecap="round" stroke-miterlimit="10" stroke-width="9"><path d="M40.24 38.25h43.04M40.72 60.75h43.04"/></g><linearGradient id="add" x1="61.861" x2="61.861" y1="23.216" y2="-6.021" gradientUnits="userSpaceOnUse"><stop offset=".202" stop-color="#f5f5f5"/><stop offset="1" stop-color="#bdbdbd"/></linearGradient><path fill="url(#add)" d="M106.31 26.56h-88.9a.97.97 0 01-.97-.97V13.97c0-.54.44-.97.97-.97h88.89c.54 0 .97.44.97.97v11.62c.01.54-.43.97-.96.97z"/><linearGradient id="ade" x1="49.861" x2="49.861" y1="34.691" y2="5.454" gradientTransform="rotate(-90 49.86 49.835)" gradientUnits="userSpaceOnUse"><stop offset=".507" stop-color="#bdbdbd" stop-opacity="0"/><stop offset="1" stop-color="#bdbdbd"/></linearGradient><path fill="url(#ade)" d="M30.01 13.99v71.69c0 .55-.44.99-.99.99H17.43c-.55 0-.99-.44-.99-.99V13.99c0-.55.44-.99.99-.99h11.59c.54 0 .99.44.99.99z"/></svg><svg viewBox="0 0 128 128" id="26B0" xmlns="http://www.w3.org/2000/svg"><linearGradient id="aea" x1="-362.052" x2="-445.402" y1="16.516" y2="99.866" gradientTransform="matrix(-1 0 0 1 -341.241 0)" gradientUnits="userSpaceOnUse"><stop offset="0" stop-color="#cf8a59"/><stop offset=".26" stop-color="#cc8756"/><stop offset=".487" stop-color="#c17d4e"/><stop offset=".701" stop-color="#af6d41"/><stop offset=".907" stop-color="#96562e"/><stop offset="1" stop-color="#884924"/></linearGradient><path fill="url(#aea)" d="M4.6 31.02l17.16 31.56 74.4 38.26 27.24-20.2-49.83-56.48-41.73-13.34z"/><linearGradient id="aeb" x1="24.591" x2="101.314" y1="25.534" y2="84.767" gradientUnits="userSpaceOnUse"><stop offset="0" stop-color="#fff3e0"/><stop offset="1" stop-color="#bcaaa4"/></linearGradient><path fill="url(#aeb)" d="M95.48 92.5L26.96 57.27 13.79 33.05l19.36-14.36 36.4 11.64 43.42 49.21L95.48 92.5zM28.79 55.39l66.45 34.17 14.03-10.41-41.15-46.64-34.51-11.04-16.58 12.29 11.76 21.63z"/><path fill="#ab664b" d="M4.6 53.58l17.16 31.57V62.58L4.6 31.02z"/><path fill="#6f3a26" d="M96.16 123.4v-22.56l-74.4-38.26v22.57z"/><path fill="#4f2a25" d="M123.4 80.64v22.56l-27.24 20.2v-22.56z"/><path fill="#937e75" d="M36.2 80.61c.36-1.11-.35-2.66-1.6-3.47s-2.56-.56-2.92.55c-.36 1.11.35 2.66 1.6 3.46 1.25.8 2.55.56 2.92-.54M47.11 85.7c.36-1.11-.35-2.66-1.6-3.47s-2.56-.56-2.92.55c-.36 1.11.35 2.66 1.6 3.46 1.25.81 2.55.57 2.92-.54"/><g><path fill="#7f5242" d="M42.17 90.08c-.53-.01-1.05-.13-1.54-.38l-5.85-2.91a3.598 3.598 0 01-1.99-3.26l.06-4.05c.04-2.45 2.17-.96 2.15.37l-.06 3.71c-.01.55.3 1.06.79 1.3l5.85 2.91c.45.22.95.2 1.38-.06.43-.26.68-.7.69-1.2l.03-2.04c.03-2 2.17-1.24 2.14.7l-.02 1.37a3.545 3.545 0 01-1.72 3c-.59.38-1.25.55-1.91.54z"/></g><g><path fill="#937e75" d="M72.34 98.91c.36-1.11-.35-2.66-1.6-3.47s-2.56-.56-2.92.55c-.36 1.11.35 2.66 1.6 3.46 1.25.81 2.56.57 2.92-.54M83.25 104c.36-1.11-.35-2.66-1.6-3.47s-2.56-.56-2.92.55c-.36 1.11.35 2.66 1.6 3.46 1.25.81 2.56.57 2.92-.54"/><g><path fill="#7f5242" d="M78.31 108.38c-.53-.01-1.05-.13-1.54-.38l-5.85-2.91a3.598 3.598 0 01-1.99-3.26l.07-4.05c.04-2.45 2.17-.96 2.15.37l-.06 3.71c-.01.55.3 1.06.79 1.3l5.85 2.91c.45.22.95.2 1.38-.06.43-.26.68-.7.69-1.2l.03-2.04c.03-2 2.17-1.24 2.14.7l-.02 1.37a3.545 3.545 0 01-1.72 3c-.59.38-1.25.55-1.92.54z"/></g></g></svg><svg viewBox="0 0 128 128" id="26B1" xmlns="http://www.w3.org/2000/svg"><radialGradient id="afa" cx="312.715" cy="-1067.922" r="109.49" gradientTransform="matrix(0 .999 -.4294 0 -394.566 -295.038)" gradientUnits="userSpaceOnUse"><stop offset="0" stop-color="#ff7043"/><stop offset=".32" stop-color="#fe6c3f"/><stop offset=".664" stop-color="#fa6232"/><stop offset=".996" stop-color="#f4511e"/></radialGradient><path fill="url(#afa)" d="M89.8 28.1c-1.8-2.8-1.5-8.8-1.1-11.9.1-1.1-.7-2-1.7-2.1l-23-1.9-23.2 2c-1 .1-1.8 1-1.7 2 .4 3 .8 8.9-1 11.8-2.6 4.2-17.8 21.5-9.8 41.3 7.3 18 15.8 39.9 18.3 48.7.5 1.6 1.6 2.9 3.1 3.5 2.6 1.1 7.3 2.4 14.3 2.4s11.7-1.3 14.3-2.4c1.5-.6 2.7-1.9 3.1-3.5 2.5-8.8 11-30.7 18.3-48.7 8-19.7-7.2-37.1-9.9-41.2z"/><g fill="#d7ccc8"><path d="M83 113.1l-.2.5c-.2.8-.5 1.5-.7 2.1-.1.2-.1.3-.2.5-5.4.9-11.3 1.3-17.7 1.3-6.5 0-12.7-.5-18.2-1.4 0-.2-.1-.3-.2-.5-.2-.7-.5-1.4-.7-2.1l-.1-.5c5.8 1.1 12.4 1.6 19.2 1.6 6.7 0 13.1-.5 18.8-1.5z"/><path d="M64.2 114.1c-7.5 0-14-.6-19.4-1.6.1.2.1.3.2.5l.2.5c5.5 1 11.9 1.6 19.1 1.6 6.9 0 13.1-.5 18.5-1.5l.2-.5c.1-.2.1-.3.2-.5-5.4.9-11.7 1.5-19 1.5zm-18.3 1.6c0 .2.1.3.2.5s.1.4.2.6c5.4.9 11.5 1.3 18 1.3 6.3 0 12.2-.5 17.5-1.3.1-.2.1-.4.2-.6s.1-.3.2-.5c-5.4.9-11.4 1.4-17.8 1.4-6.8 0-13-.5-18.5-1.4z"/></g><g fill="#d7ccc8"><path d="M85.7 105.3c-.1.2-.1.4-.2.5-.3.8-.5 1.5-.8 2.2-.1.2-.1.4-.2.5-6 1.1-12.9 1.8-20.3 1.8-7.6 0-14.7-.7-20.8-1.9-.1-.2-.1-.3-.2-.5-.3-.7-.5-1.4-.8-2.2-.1-.2-.1-.4-.2-.5 6.5 1.4 14 2.2 22 2.2 7.8 0 15.2-.7 21.5-2.1z"/><path d="M64.2 106.9c-8.8 0-16.2-.9-22.2-2.2.1.2.1.3.2.5s.1.4.2.5c6.1 1.3 13.5 2.1 21.8 2.1 8.1 0 15.3-.8 21.2-2 .1-.2.1-.4.2-.5.1-.2.1-.4.2-.5-5.8 1.3-13 2.1-21.6 2.1zM43.3 108c.1.2.1.4.2.5.1.2.2.4.2.6 6 1.1 13 1.8 20.6 1.8 7.4 0 14.2-.6 20.1-1.7.1-.2.1-.4.2-.6s.1-.4.2-.5c-6 1.2-13 1.8-20.5 1.8-7.8 0-14.9-.7-21-1.9z"/></g><g fill="#d7ccc8"><path d="M89.2 26.9H38.8c.4-1.2.6-2.6.7-4h49c.1 1.4.3 2.8.7 4zM100.2 46.8H27.8c.5-1.4 1-2.7 1.5-4h69.4c.6 1.3 1.1 2.6 1.5 4zM96.8 38.8H31.2c1.8-3.3 3.6-6 5-8h55.5c1.5 2 3.4 4.8 5.1 8z"/></g><path fill="#424242" d="M64 15.2L85.6 17c-.5 5.9.1 10.2 1.7 12.7.3.5.7 1.1 1.3 1.8 4.4 6.1 14.8 20.5 8.3 36.7-4.6 11.3-15.5 38.6-18.4 49-.2.7-.7 1.3-1.4 1.5-2.4 1-6.7 2.2-13.1 2.2-6.5 0-10.7-1.2-13.1-2.2-.7-.3-1.2-.8-1.4-1.5-2.9-10.4-13.8-37.8-18.4-49-6.5-16 3.8-30.4 8.2-36.5.6-.9 1.1-1.5 1.5-2.1 2-3.2 2-8.4 1.6-12.5L64 15.2m0-3l-23.2 2c-1 .1-1.8 1-1.7 2 .4 3 .8 8.9-1 11.8-2.6 4.2-17.8 21.5-9.8 41.3 7.3 18 15.8 39.9 18.3 48.7.5 1.6 1.6 2.9 3.1 3.5 2.6 1.1 7.3 2.4 14.3 2.4s11.7-1.3 14.3-2.4c1.5-.6 2.7-1.9 3.1-3.5 2.5-8.8 11-30.7 18.3-48.7 8-19.8-7.1-37.2-9.8-41.3-1.8-2.8-1.5-8.8-1.1-11.9.1-1.1-.7-2-1.7-2.1-.1.1-23.1-1.8-23.1-1.8z" opacity=".2"/><radialGradient id="afb" cx="313.215" cy="-260.685" r="13.558" gradientTransform="matrix(0 .999 -1.7702 0 -396.964 -310.272)" gradientUnits="userSpaceOnUse"><stop offset="0" stop-color="#ff7043"/><stop offset=".32" stop-color="#fe6c3f"/><stop offset=".664" stop-color="#fa6232"/><stop offset=".996" stop-color="#f4511e"/></radialGradient><path fill="url(#afb)" d="M88.9 15.4C85.6 8.8 75.7 4 64 4S42.4 8.8 39.1 15.4c-.3.6 0 1.6.5 1.6h48.6c.7 0 1-.9.7-1.6z"/><path fill="#424242" d="M64 7c8.5 0 16.2 2.8 20.2 7H43.8c4-4.2 11.7-7 20.2-7m0-3C52.3 4 42.4 8.8 39.1 15.4c-.3.6 0 1.6.5 1.6h48.6c.5 0 .9-.9.6-1.6C85.6 8.8 75.7 4 64 4z" opacity=".2"/></svg></svg>