<?xml version="1.0" encoding="utf-8"?><svg viewBox="0 0 128 128" xmlns="http://www.w3.org/2000/svg" xmlns:xlink="http://www.w3.org/1999/xlink"><style>:root>svg{display:none}:root>svg:target{display:block}</style><svg viewBox="0 0 128 128" id="1F1E6" xmlns="http://www.w3.org/2000/svg"><path fill="#40C0E7" d="M115.37 117.77L77.78 17.81a2.242 2.242 0 00-2.1-1.45H52.32c-.94 0-1.77.58-2.1 1.45l-37.59 99.96c-.26.69-.17 1.46.25 2.06s1.1.97 1.84.97h24.64c.96 0 1.82-.62 2.13-1.54l5.7-17.18H80.8l5.71 17.18c.3.92 1.16 1.54 2.13 1.54h24.64a2.236 2.236 0 002.09-3.03zm-61.14-36.9L64 51.45l9.77 29.43H54.23z"/></svg><svg viewBox="0 0 128 128" id="1F1E7" xmlns="http://www.w3.org/2000/svg"><path fill="#40C0E7" d="M93.22 66.17c5.68-5.41 9.19-12.68 9.19-20.7 0-16.63-15.01-30.15-33.46-30.15H31.08c-1.24 0-2.24 1-2.24 2.24v100.96c0 1.24 1 2.24 2.24 2.24H73.7c18.46 0 33.47-13.53 33.47-30.16 0-10.05-5.52-18.95-13.95-24.43zM67.4 56.82H53.41c-.21 0-.36-.14-.44-.33-.03-.06-.08-.12-.08-.19V36c0-.07.05-.13.08-.19.08-.18.23-.33.44-.33H67.4c5.61 0 10.18 4.78 10.18 10.66 0 5.89-4.57 10.68-10.18 10.68zm.85 44.48H53.49c-.04 0-.07-.04-.11-.05-.22-.06-.4-.23-.4-.47V77.14c0-.24.18-.41.4-.47.05-.01.07-.05.11-.05h14.75c.28 0 .56.02.83.05 5.84.47 10.46 5.79 10.46 12.29 0 6.48-4.6 11.8-10.43 12.29-.27.02-.56.05-.85.05z"/></svg><svg viewBox="0 0 128 128" id="1F1E8" xmlns="http://www.w3.org/2000/svg"><path fill="#40C0E7" d="M111.21 107.69L99.92 85.46c-.16-.32-.46-.55-.81-.63s-.71.01-.99.23c-6.32 5.01-17.18 8.79-25.27 8.79-15.63 0-26.55-10.58-26.55-25.73s10.92-25.73 26.55-25.73c8.46 0 17.14 2.72 22.64 7.11.27.22.64.3.98.24.34-.07.64-.29.81-.6l12.52-22.81c.28-.51.15-1.15-.31-1.51-9.47-7.5-21.49-11.15-36.75-11.15-32.5 0-56.08 22.91-56.08 54.46 0 31.56 23.58 54.46 56.08 54.46 14.87 0 27.72-4.52 38.18-13.45.42-.36.54-.96.29-1.45z"/></svg><svg viewBox="0 0 128 128" id="1F1E9" xmlns="http://www.w3.org/2000/svg"><path fill="#40C0E7" d="M65.71 15.31h-43.6c-1.25 0-2.24 1-2.24 2.24v100.96c0 1.24 1 2.24 2.24 2.24H65.7c30.15 0 50.43-21.19 50.43-52.73 0-31.53-20.27-52.71-50.42-52.71zm-1.29 80.8c-.28 0-.54-.07-.79-.16-.06.01-.11.03-.17.03-.08.01-.14.04-.22.04h-14.7c-1.2 0-2.16-.97-2.16-2.16V42.19c0-1.19.96-2.16 2.16-2.16h14.7c.08 0 .14.03.22.04.05 0 .11.02.17.03.25-.09.51-.16.79-.16.43 0 .86.04 1.29.06.75.03 1.5.09 2.24.18 13.11 1.63 21.69 12.39 21.69 27.84s-8.59 26.21-21.69 27.84c-.74.09-1.49.15-2.24.18-.43.03-.86.07-1.29.07z"/></svg><svg viewBox="0 0 128 128" id="1F1EA" xmlns="http://www.w3.org/2000/svg"><path fill="#40C0E7" d="M98.89 36.51c1.23 0 2.24-1 2.24-2.24V17.55c0-1.24-1.01-2.24-2.24-2.24H29.1c-1.24 0-2.24 1-2.24 2.24v100.97c0 1.24 1 2.24 2.24 2.24h69.8c1.23 0 2.24-1 2.24-2.24V101.8c0-1.24-1.01-2.24-2.24-2.24H53.24V77.51h35.12c1.23 0 2.24-1 2.24-2.24V58.55c0-1.24-1.01-2.24-2.24-2.24H53.24v-19.8h45.65z"/></svg><svg viewBox="0 0 128 128" id="1F1EB" xmlns="http://www.w3.org/2000/svg"><path fill="#40C0E7" d="M101.15 15.54H34.86c-1.23 0-2.24 1-2.24 2.24v100.97c0 1.24 1.01 2.24 2.24 2.24h21.89c1.24 0 2.24-1 2.24-2.24v-44H94.1c1.24 0 2.24-1 2.24-2.24V55.79c0-1.24-1-2.24-2.24-2.24H58.99v-16.8h42.16c1.24 0 2.24-1 2.24-2.24V17.78c0-1.24-1-2.24-2.24-2.24z"/></svg><svg viewBox="0 0 128 128" id="1F1EC" xmlns="http://www.w3.org/2000/svg"><path fill="#40C0E7" d="M116.6 62.86H73.98c-.66 0-1.19.53-1.19 1.19v17.83c0 .31.12.62.35.84.22.22.52.35.84.35l13.81-.02C86.74 91.44 77.24 98.3 66.3 98.3 49.43 98.3 39 82.8 39 68.43c0-14.13 10.21-28.75 27.3-28.75 7.41 0 16.95 4.43 21.88 8.71.24.21.55.3.86.29.32-.02.62-.17.82-.41l15.85-18.29a1.2 1.2 0 00-.09-1.66c-10.14-9.4-23.74-14.37-39.32-14.37-32.5 0-56.09 22.91-56.09 54.47 0 31.57 23.59 54.48 56.09 54.48 49.01 0 51.49-49.04 51.49-58.87 0-.64-.53-1.17-1.19-1.17z"/></svg><svg viewBox="0 0 128 128" id="1F1ED" xmlns="http://www.w3.org/2000/svg"><path fill="#40C0E7" d="M109.48 16.34H84.84c-1.28 0-2.33 1.04-2.33 2.33v36.27H45.5V18.68c0-1.29-1.04-2.33-2.34-2.33H18.53a2.34 2.34 0 00-2.34 2.33v99.96c0 1.29 1.05 2.33 2.34 2.33h24.63a2.34 2.34 0 002.34-2.33V76.15h37.02v42.48c0 1.29 1.05 2.33 2.33 2.33h24.64c1.29 0 2.33-1.05 2.33-2.33V18.68a2.35 2.35 0 00-2.34-2.34z"/></svg><svg viewBox="0 0 128 128" id="1F1EE" xmlns="http://www.w3.org/2000/svg"><path fill="#40C0E7" d="M76.32 16.27H51.68c-1.29 0-2.33 1.05-2.33 2.33v99.96c0 1.29 1.04 2.33 2.33 2.33h24.64c1.29 0 2.33-1.04 2.33-2.33V18.6c0-1.28-1.04-2.33-2.33-2.33z"/></svg><svg viewBox="0 0 128 128" id="1F1EF" xmlns="http://www.w3.org/2000/svg"><path fill="#40C0E7" d="M100.08 16.44H75.44c-1.24 0-2.24 1-2.24 2.24v45.53c.31 10.84-.18 23.69-1.52 25.89-.1.13-.2.28-.27.43-1.6 3.33-6.9 6.78-12.99 6.78-6.33 0-13.78-5.46-15.94-11.68a2.24 2.24 0 00-2.79-1.41l-20.47 6.41c-1.06.33-1.7 1.38-1.53 2.48.01.07.03.14.04.2 2.32 17.58 18.94 29.38 41.46 29.38 22.53 0 39.16-11.81 41.48-29.4.02-.1.04-.19.05-.29 1.56-15.02 1.58-28.71 1.58-28.85V18.68c.02-1.23-.98-2.24-2.22-2.24z"/></svg><svg viewBox="0 0 128 128" id="1F1F0" xmlns="http://www.w3.org/2000/svg"><path fill="#40C0E7" d="M110.55 117.41L76.92 63.69l29.73-44.82c.45-.69.5-1.57.1-2.3a2.222 2.222 0 00-1.97-1.18H80.34c-.74 0-1.45.38-1.86 1L51.49 57.08V17.64c0-1.24-1.01-2.24-2.24-2.24h-21.9c-1.24 0-2.24 1-2.24 2.24V118.6c0 1.24 1 2.24 2.24 2.24h21.9c1.23 0 2.24-1 2.24-2.24V70.55l30.82 49.24c.41.65 1.13 1.05 1.9 1.05h24.44c.81 0 1.57-.44 1.96-1.16.39-.71.37-1.58-.06-2.27z"/></svg><svg viewBox="0 0 128 128" id="1F1F1" xmlns="http://www.w3.org/2000/svg"><path fill="#40C0E7" d="M102.89 99.51H57.24v-82c0-1.24-1-2.24-2.24-2.24H33.11c-1.24 0-2.24 1-2.24 2.24v100.96c0 1.24 1 2.24 2.24 2.24h69.79c1.24 0 2.24-1 2.24-2.24v-16.72a2.251 2.251 0 00-2.25-2.24z"/></svg><svg viewBox="0 0 128 128" id="1F1F2" xmlns="http://www.w3.org/2000/svg"><path fill="#40C0E7" d="M111.53 18.49c-.01-.01-.01-.03-.02-.04-.02-.25-.1-.5-.2-.74-.03-.06-.06-.11-.09-.17-.04-.07-.07-.14-.11-.21-.08-.12-.19-.23-.29-.33-.03-.02-.04-.05-.07-.07-.18-.17-.4-.29-.63-.4a1.22 1.22 0 01-.17-.07 2.56 2.56 0 00-.78-.14h-22.3c-.31 0-.59.07-.87.18-.08.03-.14.07-.23.11-.19.11-.37.23-.53.38-.03.04-.09.06-.13.1-.03.03-.04.07-.05.1-.16.19-.28.4-.38.64-.02.04-.05.08-.07.13 0 .01-.01.02-.01.03L64 85.16 43.39 17.99c0-.01-.01-.02-.01-.03-.02-.05-.05-.09-.07-.13a2.38 2.38 0 00-.37-.64c-.03-.03-.04-.07-.06-.1-.04-.04-.1-.06-.13-.1-.16-.15-.33-.28-.52-.38-.08-.04-.15-.08-.23-.11-.28-.11-.56-.18-.87-.18h-22.3c-.27 0-.52.06-.78.14-.05.02-.11.04-.17.07-.24.11-.45.23-.64.4-.03.03-.04.05-.06.07-.11.11-.21.21-.3.33-.05.07-.07.14-.11.21-.03.06-.07.11-.09.17-.1.24-.17.48-.21.74 0 .01-.01.03-.01.04l-8.45 99.96c-.06.66.17 1.31.61 1.8.45.48 1.09.77 1.74.77h20.91c1.22 0 2.23-.92 2.36-2.14l4.19-42.6 16.15 43.2c.01.01.02.02.03.04.07.19.17.38.29.54l.03.03c.02.04.07.07.09.1.12.13.24.24.37.35l.18.12c.13.08.27.14.4.2a2.254 2.254 0 00.83.17H71.8c.22 0 .44-.04.65-.1.06-.02.12-.04.18-.07.15-.05.28-.12.4-.2.06-.04.12-.08.17-.12.14-.1.25-.22.37-.35.03-.04.07-.07.1-.1 0-.01.02-.02.03-.03.12-.17.22-.35.3-.54 0-.01.01-.02.02-.04l16.15-43.2 4.2 42.61a2.366 2.366 0 002.35 2.14h20.9c.66 0 1.3-.28 1.74-.77.45-.49.67-1.14.62-1.8l-8.45-99.97z"/></svg><svg viewBox="0 0 128 128" id="1F1F3" xmlns="http://www.w3.org/2000/svg"><path fill="#40C0E7" d="M108.54 15.2H86.65c-1.31 0-2.36 1.06-2.36 2.36v62.91L43.35 16.29a2.35 2.35 0 00-1.99-1.09h-21.9c-1.3 0-2.36 1.06-2.36 2.36v100.97c0 1.3 1.06 2.36 2.36 2.36h21.9c1.3 0 2.37-1.06 2.37-2.36V55.61l40.93 64.18c.43.68 1.19 1.09 2 1.09h21.89c1.3 0 2.36-1.06 2.36-2.36V17.56a2.38 2.38 0 00-2.37-2.36z"/></svg><svg viewBox="0 0 128 128" id="1F1F4" xmlns="http://www.w3.org/2000/svg"><path fill="#40C0E7" fill-rule="evenodd" d="M64.01 15.06c-34.13 0-55.46 24.1-55.46 53.82 0 29.73 21.33 53.82 55.46 53.82 34.12 0 55.45-24.1 55.45-53.82-.01-29.73-21.33-53.82-55.45-53.82zm0 81.78c-17.73 0-28.82-12.52-28.82-27.96s11.08-27.96 28.82-27.96c17.73 0 28.81 12.52 28.81 27.96-.01 15.44-11.09 27.96-28.81 27.96z" clip-rule="evenodd"/></svg><svg viewBox="0 0 128 128" id="1F1F5" xmlns="http://www.w3.org/2000/svg"><path fill="#40C0E7" d="M72.51 15.42H34.65c-.15 0-.28.06-.42.08h-6.47c-1.24 0-2.24 1-2.24 2.24v100.97c0 1.24 1 2.24 2.24 2.24h21.9c1.24 0 2.24-1 2.24-2.24V86.63h20.61c19.83 0 35.96-15.97 35.96-35.6.01-19.63-16.13-35.61-35.96-35.61zm-1.72 50.22c-.35.03-.7.06-1.06.06H52.28c-.05 0-.09-.04-.14-.06a.513.513 0 01-.24-.1.577.577 0 01-.21-.43V36.94c0-.18.09-.32.21-.43.06-.06.14-.07.22-.09.06-.02.09-.06.15-.06h17.45c.4 0 .8.03 1.19.06 7.25.63 12.97 6.94 12.97 14.61.01 7.71-5.77 14.05-13.09 14.61z"/></svg><svg viewBox="0 0 128 128" id="1F1F6" xmlns="http://www.w3.org/2000/svg"><path fill="#40C0E7" d="M102.61 107.83c10.8-9.85 16.84-24.08 16.84-39.9 0-29.73-21.33-53.82-55.45-53.82S8.55 38.21 8.55 67.93c0 29.73 21.33 53.82 55.45 53.82 7.69 0 14.72-1.23 21.01-3.47l5.97 8.54a2.079 2.079 0 002.28.81l16.51-4.75c.64-.19 1.16-.67 1.39-1.31.22-.63.13-1.33-.26-1.89l-8.29-11.85zM64 95.89c-17.72 0-28.81-12.52-28.81-27.96S46.27 39.97 64 39.97s28.81 12.52 28.81 27.96c0 6.65-2.07 12.76-5.82 17.56l-7.26-10.38a2.086 2.086 0 00-2.28-.81l-16.52 4.75c-.64.19-1.16.67-1.39 1.31-.22.63-.13 1.33.26 1.89l9.27 13.25c-1.62.24-3.3.39-5.07.39z"/></svg><svg viewBox="0 0 128 128" id="1F1F7" xmlns="http://www.w3.org/2000/svg"><path fill="#40C0E7" d="M110.7 117.03L85.59 83.64c13.01-5.37 22.18-18.08 22.18-32.87 0-19.63-16.13-35.61-35.96-35.61H33.95c-.15 0-.28.06-.42.09h-6.46c-1.24 0-2.24 1-2.24 2.24v100.96c0 1.24 1 2.24 2.24 2.24h21.89c1.24 0 2.24-1 2.24-2.24V86.37h8.64l25.2 33.51c.45.59 1.15.94 1.89.94h21.89c.9 0 1.72-.51 2.11-1.31.4-.8.31-1.76-.23-2.48zM70.12 65.38c-.36.03-.72.06-1.08.06H51.57c-.05 0-.09-.04-.14-.06-.09-.02-.18-.04-.24-.1a.577.577 0 01-.21-.43V36.67c0-.17.08-.32.21-.43.06-.05.14-.07.22-.09.06-.02.1-.07.16-.07h17.46c.42 0 .84.03 1.25.07 7.22.66 12.9 6.96 12.9 14.61.01 7.72-5.76 14.04-13.06 14.62z"/></svg><svg viewBox="0 0 128 128" id="1F1F8" xmlns="http://www.w3.org/2000/svg"><path fill="#40C0E7" d="M94.9 71.35c-8.08-7.63-21.82-13.99-30.91-18.2-1.54-.71-2.93-1.35-4.11-1.92-3.43-1.65-8.12-6.22-6.1-11.47 1.36-3.55 4.81-5.34 10.27-5.34 1.75 0 3.67.2 5.72.58 7.12 1.33 12.52 3.99 15.58 5.5.38.19.82.21 1.22.07.39-.15.72-.45.89-.84l7.01-15.81c.31-.69.07-1.51-.57-1.93-4.94-3.28-17.27-8.15-30.97-8.15-1.98 0-3.95.1-5.87.3-10.92 1.12-21.86 4.03-27.92 17.64-3.78 8.47-3.77 18.01.01 24.89 4.04 7.51 10.66 10.87 19.04 15.11l1.08.55c6.05 3.02 13.3 6.38 18.07 8.59 7.05 3.4 9.66 9.44 8.04 13.08-2.61 5.87-8.38 7.16-18.36 4.33-8.81-2.39-16.94-9.14-19.21-11.15-.34-.3-.79-.44-1.25-.38-.45.06-.85.32-1.1.69L24.6 104.14c-.41.63-.32 1.46.22 1.98 5.63 5.43 10.22 8.59 18.17 12.5 5.35 2.63 13.18 4.21 20.95 4.21 8.12 0 27.95-1.88 36.65-19.26 5.55-11.12 3.48-22.84-5.69-32.22z"/></svg><svg viewBox="0 0 128 128" id="1F1F9" xmlns="http://www.w3.org/2000/svg"><path fill="#40C0E7" d="M111.84 15.36H16.16c-1.24 0-2.24 1-2.24 2.24v17.99c0 1.24 1 2.24 2.24 2.24h34.65v80.73c0 1.24 1 2.24 2.24 2.24h21.9c1.24 0 2.24-1 2.24-2.24V37.83h34.65c1.24 0 2.24-1 2.24-2.24V17.6c0-1.24-1-2.24-2.24-2.24z"/></svg><svg viewBox="0 0 128 128" id="1F1FA" xmlns="http://www.w3.org/2000/svg"><path fill="#40C0E7" d="M109.05 16.65H84.42c-1.24 0-2.24 1-2.24 2.24v49.74c0 .07-.1 6.96-.36 11.03C80.24 89.6 74.73 94.04 64 94.04s-16.23-4.43-17.79-14.17c-.29-4.28-.38-11.17-.38-11.21V18.89c0-1.24-1.01-2.24-2.24-2.24H18.95c-1.23 0-2.24 1-2.24 2.24v49.76c0 .32.02 7.82 1.09 16.76 1.64 10.26 7 19.63 11.59 24.37 2.99 3.07 14.3 13.11 34.61 13.11 20.32 0 31.62-10.04 34.61-13.11 4.59-4.73 9.95-14.1 11.6-24.45 1.08-8.87 1.09-16.37 1.09-16.68V18.89a2.251 2.251 0 00-2.25-2.24z"/></svg><svg viewBox="0 0 128 128" id="1F1FB" xmlns="http://www.w3.org/2000/svg"><path fill="#40C0E7" d="M114.75 17.2a2.375 2.375 0 00-1.94-1.01H90.5c-.98 0-1.86.6-2.21 1.51L64 81.01 39.71 17.7a2.365 2.365 0 00-2.21-1.51H15.2a2.364 2.364 0 00-2.22 3.18l36.95 99.96c.01 0 .01 0 .01.01.06.18.16.35.27.51.02.02.04.04.05.06.04.06.1.11.14.16.1.11.2.21.32.31.06.05.12.09.19.13.13.08.26.14.4.2.07.02.13.05.19.07.21.06.43.1.66.1h23.71c.23 0 .45-.04.65-.1.07-.02.13-.05.2-.07.14-.06.27-.12.4-.2.07-.04.13-.08.19-.13.12-.09.22-.19.32-.31.05-.05.1-.1.14-.16.02-.02.04-.03.05-.06.11-.16.2-.33.27-.51v-.01l36.95-99.96c.25-.73.15-1.54-.29-2.17z"/></svg><svg viewBox="0 0 128 128" id="1F1FC" xmlns="http://www.w3.org/2000/svg"><path fill="#40C0E7" d="M127.29 16.43a2.42 2.42 0 00-1.87-.91h-24.79c-1.14 0-2.12.8-2.33 1.92l-9.58 48.68-13.47-48.86c-.08-.29-.22-.54-.39-.77-.01-.01-.01-.04-.03-.05-.03-.04-.08-.05-.11-.09-.17-.2-.37-.36-.6-.49-.08-.04-.15-.09-.23-.12-.29-.13-.6-.22-.94-.22H55.04c-.33 0-.65.09-.94.22-.08.04-.15.08-.23.12-.23.13-.43.29-.6.49-.04.04-.08.05-.11.09-.01.02-.01.04-.03.05-.17.23-.31.49-.39.77L39.29 66.12 29.7 17.44a2.386 2.386 0 00-2.33-1.92H2.59c-.73 0-1.43.34-1.87.91-.46.57-.62 1.33-.45 2.03l24.79 100.45c.01.03.04.06.04.1.06.19.13.36.23.53.03.05.05.1.09.15.02.03.03.06.06.09.12.16.25.29.41.42.02.02.05.03.08.05.16.12.34.22.53.29.05.02.11.04.17.06.22.07.46.12.7.12h19.78c.33 0 .63-.08.92-.21.08-.04.15-.08.23-.12.2-.12.39-.26.55-.44.04-.04.1-.06.14-.1.02-.03.02-.06.04-.09.19-.25.34-.52.42-.83L64 62.33l14.55 56.61c.08.31.23.58.42.83.02.03.02.06.05.09.03.04.09.06.13.1.16.18.34.32.55.44.08.04.15.09.23.12.29.12.59.21.92.21h19.78c.24 0 .47-.05.7-.12.06-.02.11-.04.18-.06.18-.07.36-.17.53-.29.03-.02.05-.03.08-.05.15-.12.29-.26.41-.42.02-.03.03-.06.06-.09.03-.05.05-.1.09-.15.09-.17.17-.34.23-.53.01-.03.04-.06.04-.1l24.79-100.45c.16-.71 0-1.47-.45-2.04z"/></svg><svg viewBox="0 0 128 128" id="1F1FD" xmlns="http://www.w3.org/2000/svg"><path fill="#40C0E7" d="M114.31 117.18L81.14 68.9l33-49.02c.48-.73.54-1.66.12-2.43a2.357 2.357 0 00-2.08-1.25H84.33c-.78 0-1.51.38-1.95 1.03L64 43.97 45.62 17.22a2.373 2.373 0 00-1.95-1.03H15.83c-.87 0-1.68.48-2.08 1.25-.42.77-.36 1.71.12 2.43L46.86 68.9l-33.17 48.28c-.49.72-.55 1.66-.14 2.44.41.77 1.22 1.26 2.09 1.26H44.9c.79 0 1.52-.39 1.96-1.04L64 94.36l17.15 25.48c.44.65 1.17 1.04 1.96 1.04h29.25c.88 0 1.68-.49 2.1-1.26.4-.78.35-1.72-.15-2.44z"/></svg><svg viewBox="0 0 128 128" id="1F1FE" xmlns="http://www.w3.org/2000/svg"><path fill="#40C0E7" d="M114.89 16.69a2.36 2.36 0 00-2.09-1.25H90.5c-.77 0-1.5.38-1.94 1.02L64 51.74 39.43 16.45a2.346 2.346 0 00-1.94-1.02h-22.3c-.87 0-1.67.48-2.08 1.25s-.36 1.71.12 2.43l36.58 54.56v44.58c0 1.29 1.05 2.33 2.34 2.33h23.71c1.29 0 2.34-1.04 2.34-2.33V73.68l36.57-54.56c.48-.72.53-1.66.12-2.43z"/></svg><svg viewBox="0 0 128 128" id="1F1FF" xmlns="http://www.w3.org/2000/svg"><path fill="#40C0E7" d="M108.91 99.71H62.6l48.33-79.77c.44-.73.46-1.64.04-2.39-.42-.74-1.21-1.2-2.06-1.2H81.06c-.25 0-.49.05-.71.13H19.09c-1.24 0-2.24 1-2.24 2.24v16.72c0 1.24 1.01 2.24 2.24 2.24h47.43l-49.44 79.75c-.45.73-.47 1.65-.06 2.4.42.75 1.21 1.21 2.07 1.21h29.25c.25 0 .49-.05.72-.12h59.84c1.23 0 2.24-1 2.24-2.24v-16.72c.01-1.25-1-2.25-2.23-2.25z"/></svg><svg viewBox="0 0 128 128" style="enable-background:new 0 0 128 128" id="1F600" xmlns="http://www.w3.org/2000/svg"><radialGradient id="baa" cx="63.22" cy="216.9" r="56.96" gradientTransform="translate(0 -154)" gradientUnits="userSpaceOnUse"><stop offset=".5" style="stop-color:#fde030"/><stop offset=".92" style="stop-color:#f7c02b"/><stop offset="1" style="stop-color:#f4a223"/></radialGradient><path style="fill:url(#baa)" d="M63.22 118.8c-27.9 0-58-17.5-58-55.9S35.32 7 63.22 7c15.5 0 29.8 5.1 40.4 14.4 11.5 10.2 17.6 24.6 17.6 41.5s-6.1 31.2-17.6 41.4c-10.62 9.3-25 14.5-40.4 14.5z"/><path style="fill:#422b0d" d="M44 40.94c-4.19 0-8 3.54-8 9.42s3.81 9.41 8 9.41c4.2 0 8-3.54 8-9.41s-3.76-9.42-8-9.42z"/><path style="fill:#896024" d="M43.65 44.87a2.874 2.874 0 00-3.82 1.34c-.53 1.11-.29 2.44.6 3.3 1.42.68 3.13.08 3.82-1.34.53-1.11.29-2.44-.6-3.3z"/><path style="fill:#422b0d" d="M82.4 40.94c-4.19 0-8 3.54-8 9.42s3.81 9.41 8 9.41c4.19 0 8-3.54 8-9.41s-3.81-9.42-8-9.42z"/><path style="fill:#896024" d="M82 44.87a2.874 2.874 0 00-3.82 1.34c-.53 1.11-.29 2.44.6 3.3 1.42.68 3.13.08 3.82-1.34.53-1.11.29-2.44-.6-3.3z"/><path style="fill:#eb8f00" d="M111.49 29.67c5.33 8.6 8.11 18.84 8.11 30.23 0 16.9-6.1 31.2-17.6 41.4-10.6 9.3-25 14.5-40.4 14.5-18.06 0-37-7.35-48.18-22.94 10.76 17.66 31 25.94 50.18 25.94 15.4 0 29.8-5.2 40.4-14.5 11.5-10.2 17.6-24.5 17.6-41.4 0-12.74-3.47-24.06-10.11-33.23z"/><path style="fill:#422b0d" d="M102.07 71.62A5.809 5.809 0 0094.93 69a111.05 111.05 0 01-31.59 4.43A111.05 111.05 0 0131.75 69a5.802 5.802 0 00-7.13 2.6c-1.36 2.51-.38 5.42.77 7.93 6.42 14.1 20.57 22.54 37.87 22.59h.16c17.3 0 31.45-8.49 37.88-22.59 1.14-2.53 2.13-5.4.77-7.91z"/><path style="fill:#ed7770" d="M79.35 98.14c-.37-.34-.75-.65-1.13-1a21.736 21.736 0 00-14.8-5.41C57.82 91.64 52.37 93.5 48 97c-.38.31-.78.61-1.15 1s-.57.67-.81 1c5.5 2.15 11.36 3.25 17.27 3.22h.16c5.66 0 11.27-1.01 16.57-3-.2-.38-.43-.74-.69-1.08z"/><path style="fill:#fff" d="M94.93 69a111.05 111.05 0 01-31.59 4.43A111.05 111.05 0 0131.75 69a5.802 5.802 0 00-7.13 2.6c-.2.38-.36.78-.46 1.19.33.17.71.34 1.16.52a84.433 84.433 0 0038.81 8.93c12.91.15 25.67-2.66 37.33-8.2.47-.2.86-.39 1.21-.57-.08-.65-.29-1.29-.6-1.87a5.8 5.8 0 00-7.14-2.6z"/><path style="fill:#eb8f00" d="M102.11 71.63A5.877 5.877 0 0094.92 69c-10.26 2.99-20.9 4.48-31.58 4.43A111.05 111.05 0 0131.75 69a5.802 5.802 0 00-7.13 2.6c-1.36 2.51-.38 5.42.77 7.93.51 1.13 1.08 2.24 1.71 3.31 0 0-2.1-7.78-.28-10.04a3.55 3.55 0 012.8-1.62c.47 0 .93.08 1.38.22 10.44 3.07 21.27 4.62 32.16 4.6h.35c10.89.02 21.72-1.53 32.16-4.6.45-.14.91-.22 1.38-.22 1.14.06 2.19.66 2.81 1.62 1.85 2.26-.28 10.07-.28 10.07.62-1.07 1.24-2.17 1.76-3.31 1.14-2.51 2.13-5.41.77-7.93z"/></svg><svg viewBox="0 0 128 128" style="enable-background:new 0 0 128 128" id="1F601" xmlns="http://www.w3.org/2000/svg"><radialGradient id="bba" cx="63.6" cy="216.9" r="56.96" gradientTransform="translate(0 -154)" gradientUnits="userSpaceOnUse"><stop offset=".5" style="stop-color:#fde030"/><stop offset=".92" style="stop-color:#f7c02b"/><stop offset="1" style="stop-color:#f4a223"/></radialGradient><path style="fill:url(#bba)" d="M63.6 118.8c-27.9 0-58-17.5-58-55.9S35.7 7 63.6 7c15.5 0 29.8 5.1 40.4 14.4 11.5 10.2 17.6 24.6 17.6 41.5s-6.1 31.2-17.6 41.4c-10.6 9.3-25 14.5-40.4 14.5z"/><path style="fill:#eb8f00" d="M111.49 29.67c5.33 8.6 8.11 18.84 8.11 30.23 0 16.9-6.1 31.2-17.6 41.4-10.6 9.3-25 14.5-40.4 14.5-18.06 0-37-7.35-48.18-22.94 10.76 17.66 31 25.94 50.18 25.94 15.4 0 29.8-5.2 40.4-14.5 11.5-10.2 17.6-24.5 17.6-41.4 0-12.74-3.47-24.06-10.11-33.23z"/><path style="fill:#fff" d="M101.7 72.21a5.8 5.8 0 00-7.14-2.6c-9 2.8-20 3.83-31.08 3.84A111.07 111.07 0 0131.89 69a5.8 5.8 0 00-7.14 2.6c-1.36 2.51-.37 5.42.77 7.93C32 93.65 46.1 102.09 63.4 102.14h.16c17.3 0 30.94-7.9 37.37-22 1.14-2.51 2.13-5.42.77-7.93z"/><path style="fill:#422b0d" d="M49 56.89l-.15-.2-.43-.55-.53-.57c-.22-.25-.48-.49-.73-.75s-.56-.51-.84-.72c-.26-.2-.54-.39-.84-.54-.2-.11-.42-.2-.65-.25a.739.739 0 00-.21 0H44.45h.27-.55c-.15 0-.05 0 0 0h.08c.08 0 0 0 0 0h-.11c-.23.05-.45.13-.66.25-.29.16-.58.34-.84.54-.29.22-.57.46-.83.72-.53.51-1 1-1.3 1.39l-.52.6-.23.27a4.231 4.231 0 01-5.62.61 3.54 3.54 0 01-1.47-3.48s.07-.4.26-1.11c.3-1.01.72-1.99 1.25-2.91.85-1.5 2-2.81 3.38-3.85.91-.7 1.92-1.26 3-1.65.3-.12.61-.21.92-.29.33-.1.66-.17 1-.23l.61-.09.51-.06h1.85c.34 0 .67.09 1 .14.64.11 1.28.28 1.89.51 1.08.39 2.09.95 3 1.65 1.38 1.04 2.53 2.35 3.38 3.85.31.52.58 1.07.8 1.63.19.45.35.9.48 1.37.07.24.13.48.16.72v.25c.3 2.04-1.12 3.94-3.16 4.24-.05.01-.1.01-.15.02-1.46.21-2.92-.37-3.85-1.51zM88.46 56.89l-.16-.2-.43-.55-.53-.57c-.22-.25-.48-.49-.73-.75s-.56-.51-.84-.72c-.26-.2-.54-.39-.84-.54-.2-.11-.42-.2-.65-.25a.739.739 0 00-.21 0H83.9h.27-.55c-.15 0-.05 0 0 0h.08c.08 0 0 0 0 0h-.11c-.23.05-.45.13-.66.25-.29.15-.57.34-.83.54-.3.22-.58.46-.84.72-.53.51-1 1-1.3 1.39l-.52.6-.22.27a4.244 4.244 0 01-5.63.61 3.54 3.54 0 01-1.47-3.48s.07-.4.27-1.11c.3-1.02.71-2 1.25-2.91.85-1.5 1.99-2.81 3.37-3.85.91-.7 1.92-1.26 3-1.65.3-.12.61-.21.92-.29.33-.1.66-.17 1-.23l.62-.09.5-.06h1.85c.34 0 .67.09 1 .14.65.11 1.28.28 1.89.51 1.08.39 2.09.95 3 1.65 1.38 1.04 2.53 2.35 3.38 3.85.31.52.58 1.07.8 1.63.19.44.35.89.48 1.35.07.24.13.48.16.72v.25a3.74 3.74 0 01-3.12 4.27c-.03 0-.06.01-.09.01-1.49.25-3-.33-3.94-1.51z"/><path style="fill:#b3b3b3" d="M100.89 75.83c-.09.06-6.2 4.63-17.69 7.59v-11.3c-1.31.2-2.65.37-4 .52v11.68c-4.65.92-9.38 1.43-14.12 1.53V73.43h-4v12.42c.43.01.43.02 0 .02l-.02-.02c-4.63-.08-9.24-.52-13.8-1.33V72.33c-1.36-.18-2.69-.39-4-.62v11.97c-11.82-2.81-17.76-7.3-17.84-7.37a1.96 1.96 0 00-1.16-.42c.28 1.26.7 2.49 1.26 3.66.35.77.73 1.51 1.13 2.25a63.036 63.036 0 0016.61 6v9.86c1.3.63 2.64 1.2 4 1.69V88.6c4.56.76 9.18 1.18 13.8 1.25l.02.02h-.02v12.21c.77 0 1.55.08 2.34.08h1.66V89.85H65h.06c4.74-.09 9.47-.57 14.14-1.43v11.21c1.36-.46 2.7-1 4-1.61V87.57c6.1-1.4 11.97-3.69 17.41-6.79.1-.22.22-.42.32-.64.73-1.48 1.21-3.07 1.4-4.71-.51-.06-1.03.09-1.44.4z"/><path style="fill:#eb8f00" d="M102.11 71.63A5.877 5.877 0 0094.92 69c-10.26 2.99-20.9 4.48-31.58 4.43A111.05 111.05 0 0131.75 69a5.802 5.802 0 00-7.13 2.6c-1.36 2.51-.38 5.42.77 7.93.51 1.13 1.08 2.24 1.71 3.31 0 0-2.1-7.78-.28-10.04a3.55 3.55 0 012.8-1.62c.47 0 .93.08 1.38.22 10.44 3.07 21.27 4.62 32.16 4.6h.35c10.89.02 21.72-1.53 32.16-4.6.45-.14.91-.22 1.38-.22 1.14.06 2.19.66 2.81 1.62 1.85 2.26-.28 10.07-.28 10.07.62-1.07 1.24-2.17 1.76-3.31 1.14-2.51 2.13-5.41.77-7.93z"/></svg><svg viewBox="0 0 128 128" style="enable-background:new 0 0 128 128" id="1F602" xmlns="http://www.w3.org/2000/svg"><radialGradient id="bca" cx="63.6" cy="216.9" r="56.96" gradientTransform="translate(0 -154)" gradientUnits="userSpaceOnUse"><stop offset=".5" style="stop-color:#fde030"/><stop offset=".92" style="stop-color:#f7c02b"/><stop offset="1" style="stop-color:#f4a223"/></radialGradient><path style="fill:url(#bca)" d="M63.6 118.8c-27.9 0-58-17.5-58-55.9S35.7 7 63.6 7c15.5 0 29.8 5.1 40.4 14.4 11.5 10.2 17.6 24.6 17.6 41.5s-6.1 31.2-17.6 41.4c-10.6 9.3-25 14.5-40.4 14.5z"/><path style="fill:#eb8f00" d="M111.49 29.67c5.33 8.6 8.11 18.84 8.11 30.23 0 16.9-6.1 31.2-17.6 41.4-10.6 9.3-25 14.5-40.4 14.5-18.06 0-37-7.35-48.18-22.94 10.76 17.66 31 25.94 50.18 25.94 15.4 0 29.8-5.2 40.4-14.5 11.5-10.2 17.6-24.5 17.6-41.4 0-12.74-3.47-24.06-10.11-33.23z"/><path style="fill:#422b0d" d="M39.44 31.21A2.161 2.161 0 0036.72 30a26.58 26.58 0 00-4.67 2.05 28.749 28.749 0 00-9.89 9c-.7.95-.52 2.28.41 3 .49.41 1.13.61 1.77.53.48-.07.92-.3 1.26-.65 3.84-3.76 8.14-7.02 12.79-9.7l.11-.06a2.23 2.23 0 00.94-2.96zM90.69 30.21c.44-1.06 1.64-1.6 2.72-1.21 1.61.52 3.17 1.19 4.66 2 3.96 2.18 7.35 5.26 9.9 9 .69.95.51 2.27-.41 3-.49.41-1.13.6-1.77.53a2.2 2.2 0 01-1.26-.65 63.877 63.877 0 00-12.79-9.7l-.11-.06a2.229 2.229 0 01-.94-2.91zM102.07 71.62A5.809 5.809 0 0094.93 69a111.05 111.05 0 01-31.59 4.43A111.05 111.05 0 0131.75 69a5.802 5.802 0 00-7.13 2.6c-1.36 2.51-.38 5.42.77 7.93 6.42 14.1 20.57 22.54 37.87 22.59h.16c17.3 0 31.45-8.49 37.88-22.59 1.14-2.53 2.13-5.4.77-7.91z"/><path style="fill:#ed7770" d="M79.35 98.14c-.37-.34-.75-.65-1.13-1a21.736 21.736 0 00-14.8-5.41C57.82 91.64 52.37 93.5 48 97c-.38.31-.78.61-1.15 1s-.57.67-.81 1c5.5 2.15 11.36 3.25 17.27 3.22h.16c5.66 0 11.27-1.01 16.57-3-.2-.38-.43-.74-.69-1.08z"/><path style="fill:#fff" d="M94.93 69a111.05 111.05 0 01-31.59 4.43A111.05 111.05 0 0131.75 69a5.802 5.802 0 00-7.13 2.6c-.2.38-.36.78-.46 1.19.33.17.71.34 1.16.52a84.433 84.433 0 0038.81 8.93c12.91.15 25.67-2.66 37.33-8.2.47-.2.86-.39 1.21-.57-.08-.65-.29-1.29-.6-1.87a5.8 5.8 0 00-7.14-2.6z"/><path style="fill:#eb8f00" d="M102.11 71.63A5.877 5.877 0 0094.92 69c-10.26 2.99-20.9 4.48-31.58 4.43A111.05 111.05 0 0131.75 69a5.802 5.802 0 00-7.13 2.6c-1.36 2.51-.38 5.42.77 7.93.51 1.13 1.08 2.24 1.71 3.31 0 0-2.1-7.78-.28-10.04a3.55 3.55 0 012.8-1.62c.47 0 .93.08 1.38.22 10.44 3.07 21.27 4.62 32.16 4.6h.35c10.89.02 21.72-1.53 32.16-4.6.45-.14.91-.22 1.38-.22 1.14.06 2.19.66 2.81 1.62 1.85 2.26-.28 10.07-.28 10.07.62-1.07 1.24-2.17 1.76-3.31 1.14-2.51 2.13-5.41.77-7.93z"/><path style="fill:#29b6f6" d="M100.69 57.09s17 .47 23.79 13c2.84 5.26 3 14-2.88 17.19-7.11 3.91-13.78-1.64-14.63-7.56-2.29-16.06-6.28-22.63-6.28-22.63z"/><path style="fill:#81d4fa" d="M123.26 81.27a2.757 2.757 0 01-3.43 1.24c-1.15-.61-1.46-2.08-1.64-3.37l-.55-4c-.23-1.59-1.85-6.74-.15-7.58 1.35-.66 3.94 1.16 4.7 2.21 1.67 2.38 2.46 9.16 1.07 11.5z"/><path style="fill:#81d4fa" d="M117.49 67.61c1.35-.66 3.94 1.16 4.7 2.21 1.67 2.33 2.46 9.11 1.07 11.45a2.757 2.757 0 01-3.43 1.24c-1.15-.61-1.46-2.08-1.64-3.37l-.55-4"/><path style="fill:#29b6f6" d="M27.31 57.09s-17 .47-23.79 13C.68 75.3.57 84 6.4 87.23c7.11 3.91 13.78-1.64 14.63-7.56 2.29-16.01 6.28-22.58 6.28-22.58z"/><path style="fill:#81d4fa" d="M4.74 81.27a2.757 2.757 0 003.43 1.24c1.15-.61 1.46-2.08 1.64-3.37l.55-4c.23-1.59 1.85-6.74.15-7.58-1.35-.66-3.94 1.16-4.7 2.21-1.67 2.38-2.46 9.16-1.07 11.5z"/><path style="fill:#422b0d" d="M48.15 55.87l-.15-.22-.21-.27c-.08-.11-.16-.2-.26-.29l-.61-.62c-.26-.26-.55-.52-.87-.79-.66-.57-1.4-1.03-2.2-1.39-.77-.34-1.61-.52-2.45-.52h.17H41c-.1-.01-.19-.01-.29 0-.18.02-.36.05-.54.09-.41.1-.82.23-1.21.39-.8.35-1.54.82-2.2 1.39-.54.45-1.05.94-1.52 1.47l-.57.64-.3.34a3.322 3.322 0 01-4.68.32c-1.03-.9-1.4-2.35-.94-3.64l.11-.32c.09-.21.17-.53.36-.91.46-1.08 1.06-2.11 1.78-3.04 1.75-2.31 4.21-3.99 7-4.79.57-.15 1.15-.26 1.74-.34.3 0 .74-.09.87-.09h.76c1.13.02 2.26.18 3.36.46 1.05.29 2.05.71 3 1.25 1.55.91 2.91 2.11 4 3.54.74.97 1.37 2.02 1.86 3.14.08.16.15.32.19.49.05.13.08.24.11.33l.09.27c.57 1.77-.4 3.67-2.17 4.24-1.33.43-2.8-.01-3.67-1.1l.01-.03zM93.48 55.87l-.18-.22-.21-.27c-.08-.11-.16-.2-.26-.29l-.62-.62c-.27-.28-.56-.54-.86-.79-.66-.57-1.4-1.03-2.2-1.39-.77-.34-1.61-.52-2.45-.52h.17-.58c-.1-.01-.19-.01-.29 0-.18.02-.36.05-.54.09-.41.1-.82.23-1.21.39-.81.37-1.57.85-2.25 1.43-.54.46-1.04.95-1.51 1.47l-.57.64-.3.34a3.322 3.322 0 01-4.68.32c-1.03-.9-1.4-2.35-.94-3.64l.11-.32c.09-.21.17-.53.35-.91.48-1.1 1.09-2.13 1.83-3.08 1.75-2.31 4.21-3.99 7-4.79.57-.15 1.15-.26 1.74-.34.3 0 .74-.09.87-.09h.76c1.13.02 2.26.18 3.36.46 1.04.3 2.04.72 2.98 1.26 1.55.9 2.91 2.11 4 3.54.42.54.79 1.11 1.13 1.7.27.47.51.95.73 1.44.08.16.14.32.19.49 0 .13.08.24.11.33l.09.27c.57 1.77-.4 3.67-2.17 4.24-1.33.43-2.8-.01-3.67-1.1l.07-.04z"/></svg><svg viewBox="0 0 128 128" style="enable-background:new 0 0 128 128" id="1F603" xmlns="http://www.w3.org/2000/svg"><radialGradient id="bda" cx="63.6" cy="216.9" r="56.96" gradientTransform="translate(0 -154)" gradientUnits="userSpaceOnUse"><stop offset=".5" style="stop-color:#fde030"/><stop offset=".92" style="stop-color:#f7c02b"/><stop offset="1" style="stop-color:#f4a223"/></radialGradient><path style="fill:url(#bda)" d="M63.6 118.8c-27.9 0-58-17.5-58-55.9S35.7 7 63.6 7c15.5 0 29.8 5.1 40.4 14.4 11.5 10.2 17.6 24.6 17.6 41.5s-6.1 31.2-17.6 41.4c-10.6 9.3-25 14.5-40.4 14.5z"/><path style="fill:#eb8f00" d="M111.49 29.67c5.33 8.6 8.11 18.84 8.11 30.23 0 16.9-6.1 31.2-17.6 41.4-10.6 9.3-25 14.5-40.4 14.5-18.06 0-37-7.35-48.18-22.94 10.76 17.66 31 25.94 50.18 25.94 15.4 0 29.8-5.2 40.4-14.5 11.5-10.2 17.6-24.5 17.6-41.4 0-12.74-3.47-24.06-10.11-33.23z"/><g><path style="fill:#422b0d" d="M82.65 33.62c3.81 0 7.26 5.65 7.26 15s-3.45 15-7.26 15c-3.8 0-7.25-5.64-7.25-15s3.45-15 7.25-15zM45.27 33.62c-4.05 0-7.74 5.65-7.74 15s3.69 15 7.74 15c4.06 0 7.75-5.64 7.75-15s-3.69-15-7.75-15z"/><path style="fill:#896024" d="M45.05 37.29a2.559 2.559 0 00-3.51.88c-.02.04-.05.08-.07.12-.92 1.07-.81 2.69.26 3.61.03.03.06.05.1.08 1.2.73 2.77.34 3.5-.86.03-.05.05-.09.08-.14.92-1.08.8-2.7-.28-3.62a.5.5 0 00-.08-.07zM83.21 37.29c-1.22-.72-2.8-.32-3.52.9-.02.03-.04.07-.06.1-.91 1.09-.76 2.7.33 3.61.01.01.03.02.04.03 1.2.73 2.77.34 3.5-.86.03-.05.05-.09.08-.14.91-1.09.76-2.7-.33-3.61-.01-.01-.03-.02-.04-.03z"/><path style="fill:#422b0d" d="M102.07 71.62A5.809 5.809 0 0094.93 69a111.05 111.05 0 01-31.59 4.43A111.05 111.05 0 0131.75 69a5.802 5.802 0 00-7.13 2.6c-1.36 2.51-.38 5.42.77 7.93 6.42 14.1 20.57 22.54 37.87 22.59h.16c17.3 0 31.45-8.49 37.88-22.59 1.14-2.53 2.13-5.4.77-7.91z"/><path style="fill:#ed7770" d="M79.35 98.14c-.37-.34-.75-.65-1.13-1a21.736 21.736 0 00-14.8-5.41C57.82 91.64 52.37 93.5 48 97c-.38.31-.78.61-1.15 1s-.57.67-.81 1c5.5 2.15 11.36 3.25 17.27 3.22h.16c5.66 0 11.27-1.01 16.57-3-.2-.38-.43-.74-.69-1.08z"/><path style="fill:#fff" d="M94.93 69a111.05 111.05 0 01-31.59 4.43A111.05 111.05 0 0131.75 69a5.802 5.802 0 00-7.13 2.6c-.2.38-.36.78-.46 1.19.33.17.71.34 1.16.52a84.433 84.433 0 0038.81 8.93c12.91.15 25.67-2.66 37.33-8.2.47-.2.86-.39 1.21-.57-.08-.65-.29-1.29-.6-1.87a5.8 5.8 0 00-7.14-2.6z"/><path style="fill:#eb8f00" d="M102.11 71.63A5.877 5.877 0 0094.92 69c-10.26 2.99-20.9 4.48-31.58 4.43A111.05 111.05 0 0131.75 69a5.802 5.802 0 00-7.13 2.6c-1.36 2.51-.38 5.42.77 7.93.51 1.13 1.08 2.24 1.71 3.31 0 0-2.1-7.78-.28-10.04a3.55 3.55 0 012.8-1.62c.47 0 .93.08 1.38.22 10.44 3.07 21.27 4.62 32.16 4.6h.35c10.89.02 21.72-1.53 32.16-4.6.45-.14.91-.22 1.38-.22 1.14.06 2.19.66 2.81 1.62 1.85 2.26-.28 10.07-.28 10.07.62-1.07 1.24-2.17 1.76-3.31 1.14-2.51 2.13-5.41.77-7.93z"/></g></svg><svg viewBox="0 0 128 128" style="enable-background:new 0 0 128 128" id="1F604" xmlns="http://www.w3.org/2000/svg"><radialGradient id="bea" cx="63.6" cy="216.9" r="56.96" gradientTransform="translate(0 -154)" gradientUnits="userSpaceOnUse"><stop offset=".5" style="stop-color:#fde030"/><stop offset=".92" style="stop-color:#f7c02b"/><stop offset="1" style="stop-color:#f4a223"/></radialGradient><path style="fill:url(#bea)" d="M63.6 118.8c-27.9 0-58-17.5-58-55.9S35.7 7 63.6 7c15.5 0 29.8 5.1 40.4 14.4 11.5 10.2 17.6 24.6 17.6 41.5s-6.1 31.2-17.6 41.4c-10.6 9.3-25 14.5-40.4 14.5z"/><path style="fill:#eb8f00" d="M111.49 29.67c5.33 8.6 8.11 18.84 8.11 30.23 0 16.9-6.1 31.2-17.6 41.4-10.6 9.3-25 14.5-40.4 14.5-18.06 0-37-7.35-48.18-22.94 10.76 17.66 31 25.94 50.18 25.94 15.4 0 29.8-5.2 40.4-14.5 11.5-10.2 17.6-24.5 17.6-41.4 0-12.74-3.47-24.06-10.11-33.23z"/><g><path style="fill:#422b0d" d="M49 56.89l-.15-.2-.43-.55-.53-.57c-.22-.25-.48-.49-.73-.75s-.56-.51-.84-.72c-.26-.2-.54-.39-.84-.54-.2-.11-.42-.2-.65-.25a.739.739 0 00-.21 0H44.45h.27-.55c-.15 0-.05 0 0 0h.08c.08 0 0 0 0 0h-.11c-.23.05-.45.13-.66.25-.29.16-.58.34-.84.54-.29.22-.57.46-.83.72-.53.51-1 1-1.3 1.39l-.52.6-.23.27a4.231 4.231 0 01-5.62.61 3.54 3.54 0 01-1.47-3.48s.07-.4.26-1.11c.3-1.01.72-1.99 1.25-2.91.85-1.5 2-2.81 3.38-3.85.91-.7 1.92-1.26 3-1.65.3-.12.61-.21.92-.29.33-.1.66-.17 1-.23l.61-.09.51-.06h1.85c.34 0 .67.09 1 .14.64.11 1.28.28 1.89.51 1.08.39 2.09.95 3 1.65 1.38 1.04 2.53 2.35 3.38 3.85.31.52.58 1.07.8 1.63.19.45.35.9.48 1.37.07.24.13.48.16.72v.25c.3 2.04-1.12 3.94-3.16 4.24-.05.01-.1.01-.15.02-1.46.21-2.92-.37-3.85-1.51zM88.46 56.89l-.16-.2-.43-.55-.53-.57c-.22-.25-.48-.49-.73-.75s-.56-.51-.84-.72c-.26-.2-.54-.39-.84-.54-.2-.11-.42-.2-.65-.25a.739.739 0 00-.21 0H83.9h.27-.55c-.15 0-.05 0 0 0h.08c.08 0 0 0 0 0h-.11c-.23.05-.45.13-.66.25-.29.15-.57.34-.83.54-.3.22-.58.46-.84.72-.53.51-1 1-1.3 1.39l-.52.6-.22.27a4.244 4.244 0 01-5.63.61 3.54 3.54 0 01-1.47-3.48s.07-.4.27-1.11c.3-1.02.71-2 1.25-2.91.85-1.5 1.99-2.81 3.37-3.85.91-.7 1.92-1.26 3-1.65.3-.12.61-.21.92-.29.33-.1.66-.17 1-.23l.62-.09.5-.06h1.85c.34 0 .67.09 1 .14.65.11 1.28.28 1.89.51 1.08.39 2.09.95 3 1.65 1.38 1.04 2.53 2.35 3.38 3.85.31.52.58 1.07.8 1.63.19.44.35.89.48 1.35.07.24.13.48.16.72v.25a3.74 3.74 0 01-3.12 4.27c-.03 0-.06.01-.09.01-1.49.25-3-.33-3.94-1.51zM102.07 71.62A5.809 5.809 0 0094.93 69a111.05 111.05 0 01-31.59 4.43A111.05 111.05 0 0131.75 69a5.802 5.802 0 00-7.13 2.6c-1.36 2.51-.38 5.42.77 7.93 6.42 14.1 20.57 22.54 37.87 22.59h.16c17.3 0 31.45-8.49 37.88-22.59 1.14-2.53 2.13-5.4.77-7.91z"/><path style="fill:#ed7770" d="M79.35 98.14c-.37-.34-.75-.65-1.13-1a21.736 21.736 0 00-14.8-5.41C57.82 91.64 52.37 93.5 48 97c-.38.31-.78.61-1.15 1s-.57.67-.81 1c5.5 2.15 11.36 3.25 17.27 3.22h.16c5.66 0 11.27-1.01 16.57-3-.2-.38-.43-.74-.69-1.08z"/><path style="fill:#fff" d="M94.93 69a111.05 111.05 0 01-31.59 4.43A111.05 111.05 0 0131.75 69a5.802 5.802 0 00-7.13 2.6c-.2.38-.36.78-.46 1.19.33.17.71.34 1.16.52a84.433 84.433 0 0038.81 8.93c12.91.15 25.67-2.66 37.33-8.2.47-.2.86-.39 1.21-.57-.08-.65-.29-1.29-.6-1.87a5.8 5.8 0 00-7.14-2.6z"/><path style="fill:#eb8f00" d="M102.11 71.63A5.877 5.877 0 0094.92 69c-10.26 2.99-20.9 4.48-31.58 4.43A111.05 111.05 0 0131.75 69a5.802 5.802 0 00-7.13 2.6c-1.36 2.51-.38 5.42.77 7.93.51 1.13 1.08 2.24 1.71 3.31 0 0-2.1-7.78-.28-10.04a3.55 3.55 0 012.8-1.62c.47 0 .93.08 1.38.22 10.44 3.07 21.27 4.62 32.16 4.6h.35c10.89.02 21.72-1.53 32.16-4.6.45-.14.91-.22 1.38-.22 1.14.06 2.19.66 2.81 1.62 1.85 2.26-.28 10.07-.28 10.07.62-1.07 1.24-2.17 1.76-3.31 1.14-2.51 2.13-5.41.77-7.93z"/></g></svg><svg viewBox="0 0 128 128" style="enable-background:new 0 0 128 128" id="1F605" xmlns="http://www.w3.org/2000/svg"><radialGradient id="bfa" cx="63.6" cy="216.9" r="56.96" gradientTransform="translate(0 -154)" gradientUnits="userSpaceOnUse"><stop offset=".5" style="stop-color:#fde030"/><stop offset=".92" style="stop-color:#f7c02b"/><stop offset="1" style="stop-color:#f4a223"/></radialGradient><path style="fill:url(#bfa)" d="M63.6 118.8c-27.9 0-58-17.5-58-55.9S35.7 7 63.6 7c15.5 0 29.8 5.1 40.4 14.4 11.5 10.2 17.6 24.6 17.6 41.5s-6.1 31.2-17.6 41.4c-10.6 9.3-25 14.5-40.4 14.5z"/><path style="fill:#eb8f00" d="M111.49 29.67c5.33 8.6 8.11 18.84 8.11 30.23 0 16.9-6.1 31.2-17.6 41.4-10.6 9.3-25 14.5-40.4 14.5-18.06 0-37-7.35-48.18-22.94 10.76 17.66 31 25.94 50.18 25.94 15.4 0 29.8-5.2 40.4-14.5 11.5-10.2 17.6-24.5 17.6-41.4 0-12.74-3.47-24.06-10.11-33.23z"/><g><radialGradient id="bfb" cx="111.32" cy="-687.375" r="25.66" gradientTransform="matrix(1 0 0 -1.54 0 -1039.81)" gradientUnits="userSpaceOnUse"><stop offset=".46" style="stop-color:#29b6f6"/><stop offset="1" style="stop-color:#1e88e5"/></radialGradient><path style="fill:url(#bfb)" d="M110.5 52.61c-6.5 0-11.5-6.3-11.5-11.7 0-3.8 1.7-8.2 4.1-14.3.3-.9.7-1.8 1.1-2.8 1.03-2.96 2.26-5.84 3.69-8.63a2.702 2.702 0 014.71 0c1.4 2.66 2.4 5.51 3.9 8.82 4.2 9.4 5.4 13.2 5.4 17 .1 5.31-5 11.61-11.4 11.61z"/><path style="fill:#81d4fa" d="M117.53 45.41c-1.47 2.27-4.8 1.84-4.8-1.93 0-2.41.49-14.79 2.56-13.06 3.37 2.82 4.33 11.78 2.24 14.99z"/><path style="fill:#422b0d" d="M49 56.89l-.15-.2-.43-.55-.53-.57c-.22-.25-.48-.49-.73-.75s-.56-.51-.84-.72c-.26-.2-.54-.39-.84-.54-.2-.11-.42-.2-.65-.25a.739.739 0 00-.21 0H44.45h.27-.55c-.15 0-.05 0 0 0h.08c.08 0 0 0 0 0h-.11c-.23.05-.45.13-.66.25-.29.16-.58.34-.84.54-.29.22-.57.46-.83.72-.53.51-1 1-1.3 1.39l-.52.6-.23.27a4.231 4.231 0 01-5.62.61 3.54 3.54 0 01-1.47-3.48s.07-.4.26-1.11c.3-1.01.72-1.99 1.25-2.91.85-1.5 2-2.81 3.38-3.85.91-.7 1.92-1.26 3-1.65.3-.12.61-.21.92-.29.33-.1.66-.17 1-.23l.61-.09.51-.06h1.85c.34 0 .67.09 1 .14.64.11 1.28.28 1.89.51 1.08.39 2.09.95 3 1.65 1.38 1.04 2.53 2.35 3.38 3.85.31.52.58 1.07.8 1.63.19.45.35.9.48 1.37.07.24.13.48.16.72v.25c.3 2.04-1.12 3.94-3.16 4.24-.05.01-.1.01-.15.02-1.46.21-2.92-.37-3.85-1.51zM88.46 56.89l-.16-.2-.43-.55-.53-.57c-.22-.25-.48-.49-.73-.75s-.56-.51-.84-.72c-.26-.2-.54-.39-.84-.54-.2-.11-.42-.2-.65-.25a.739.739 0 00-.21 0H83.9h.27-.55c-.15 0-.05 0 0 0h.08c.08 0 0 0 0 0h-.11c-.23.05-.45.13-.66.25-.29.15-.57.34-.83.54-.3.22-.58.46-.84.72-.53.51-1 1-1.3 1.39l-.52.6-.22.27a4.244 4.244 0 01-5.63.61 3.54 3.54 0 01-1.47-3.48s.07-.4.27-1.11c.3-1.02.71-2 1.25-2.91.85-1.5 1.99-2.81 3.37-3.85.91-.7 1.92-1.26 3-1.65.3-.12.61-.21.92-.29.33-.1.66-.17 1-.23l.62-.09.5-.06h1.85c.34 0 .67.09 1 .14.65.11 1.28.28 1.89.51 1.08.39 2.09.95 3 1.65 1.38 1.04 2.53 2.35 3.38 3.85.31.52.58 1.07.8 1.63.19.44.35.89.48 1.35.07.24.13.48.16.72v.25a3.74 3.74 0 01-3.12 4.27c-.03 0-.06.01-.09.01-1.49.25-3-.33-3.94-1.51zM102.07 71.62A5.809 5.809 0 0094.93 69a111.05 111.05 0 01-31.59 4.43A111.05 111.05 0 0131.75 69a5.802 5.802 0 00-7.13 2.6c-1.36 2.51-.38 5.42.77 7.93 6.42 14.1 20.57 22.54 37.87 22.59h.16c17.3 0 31.45-8.49 37.88-22.59 1.14-2.53 2.13-5.4.77-7.91z"/><path style="fill:#ed7770" d="M79.35 98.14c-.37-.34-.75-.65-1.13-1a21.736 21.736 0 00-14.8-5.41C57.82 91.64 52.37 93.5 48 97c-.38.31-.78.61-1.15 1s-.57.67-.81 1c5.5 2.15 11.36 3.25 17.27 3.22h.16c5.66 0 11.27-1.01 16.57-3-.2-.38-.43-.74-.69-1.08z"/><path style="fill:#fff" d="M94.93 69a111.05 111.05 0 01-31.59 4.43A111.05 111.05 0 0131.75 69a5.802 5.802 0 00-7.13 2.6c-.2.38-.36.78-.46 1.19.33.17.71.34 1.16.52a84.433 84.433 0 0038.81 8.93c12.91.15 25.67-2.66 37.33-8.2.47-.2.86-.39 1.21-.57-.08-.65-.29-1.29-.6-1.87a5.8 5.8 0 00-7.14-2.6z"/><path style="fill:#eb8f00" d="M102.11 71.63A5.877 5.877 0 0094.92 69c-10.26 2.99-20.9 4.48-31.58 4.43A111.05 111.05 0 0131.75 69a5.802 5.802 0 00-7.13 2.6c-1.36 2.51-.38 5.42.77 7.93.51 1.13 1.08 2.24 1.71 3.31 0 0-2.1-7.78-.28-10.04a3.55 3.55 0 012.8-1.62c.47 0 .93.08 1.38.22 10.44 3.07 21.27 4.62 32.16 4.6h.35c10.89.02 21.72-1.53 32.16-4.6.45-.14.91-.22 1.38-.22 1.14.06 2.19.66 2.81 1.62 1.85 2.26-.28 10.07-.28 10.07.62-1.07 1.24-2.17 1.76-3.31 1.14-2.51 2.13-5.41.77-7.93z"/></g></svg><svg viewBox="0 0 128 128" style="enable-background:new 0 0 128 128" id="1F606" xmlns="http://www.w3.org/2000/svg"><radialGradient id="bga" cx="63.6" cy="216.9" r="56.96" gradientTransform="translate(0 -154)" gradientUnits="userSpaceOnUse"><stop offset=".5" style="stop-color:#fde030"/><stop offset=".92" style="stop-color:#f7c02b"/><stop offset="1" style="stop-color:#f4a223"/></radialGradient><path style="fill:url(#bga)" d="M63.6 118.8c-27.9 0-58-17.5-58-55.9S35.7 7 63.6 7c15.5 0 29.8 5.1 40.4 14.4 11.5 10.2 17.6 24.6 17.6 41.5s-6.1 31.2-17.6 41.4c-10.6 9.3-25 14.5-40.4 14.5z"/><path style="fill:#eb8f00" d="M111.49 29.67c5.33 8.6 8.11 18.84 8.11 30.23 0 16.9-6.1 31.2-17.6 41.4-10.6 9.3-25 14.5-40.4 14.5-18.06 0-37-7.35-48.18-22.94 10.76 17.66 31 25.94 50.18 25.94 15.4 0 29.8-5.2 40.4-14.5 11.5-10.2 17.6-24.5 17.6-41.4 0-12.74-3.47-24.06-10.11-33.23z"/><g><path style="fill:#422b0d" d="M31.19 56.05l12.18-2.36-12.55-5.21-.42-.23a4.185 4.185 0 01-1.75-5.66c.26-.49.61-.92 1.03-1.27 2-1.53 4.74-1.65 6.87-.3l21.28 13c.54.11.89.64.78 1.18-.1.47-.52.81-1 .8L34.7 64.59a4.5 4.5 0 01-.48.16c-3 .84-6.33-.89-6.8-3.78-.35-2.2 1.35-4.25 3.77-4.92zM94.81 55.8l-12.18-2.36 12.55-5.21.42-.23a4.185 4.185 0 001.75-5.66c-.26-.49-.61-.92-1.03-1.27-2-1.53-4.74-1.65-6.87-.3l-21.28 13c-.52.19-.78.77-.59 1.28.13.35.44.6.81.65l22.91 8.6c.16.06.32.12.48.16 3 .84 6.33-.89 6.8-3.78.35-2.16-1.35-4.21-3.77-4.88zM102.07 71.62A5.809 5.809 0 0094.93 69a111.05 111.05 0 01-31.59 4.43A111.05 111.05 0 0131.75 69a5.802 5.802 0 00-7.13 2.6c-1.36 2.51-.38 5.42.77 7.93 6.42 14.1 20.57 22.54 37.87 22.59h.16c17.3 0 31.45-8.49 37.88-22.59 1.14-2.53 2.13-5.4.77-7.91z"/><path style="fill:#ed7770" d="M79.35 98.14c-.37-.34-.75-.65-1.13-1a21.736 21.736 0 00-14.8-5.41C57.82 91.64 52.37 93.5 48 97c-.38.31-.78.61-1.15 1s-.57.67-.81 1c5.5 2.15 11.36 3.25 17.27 3.22h.16c5.66 0 11.27-1.01 16.57-3-.2-.38-.43-.74-.69-1.08z"/><path style="fill:#fff" d="M94.93 69a111.05 111.05 0 01-31.59 4.43A111.05 111.05 0 0131.75 69a5.802 5.802 0 00-7.13 2.6c-.2.38-.36.78-.46 1.19.33.17.71.34 1.16.52a84.433 84.433 0 0038.81 8.93c12.91.15 25.67-2.66 37.33-8.2.47-.2.86-.39 1.21-.57-.08-.65-.29-1.29-.6-1.87a5.8 5.8 0 00-7.14-2.6z"/><path style="fill:#eb8f00" d="M102.11 71.63A5.877 5.877 0 0094.92 69c-10.26 2.99-20.9 4.48-31.58 4.43A111.05 111.05 0 0131.75 69a5.802 5.802 0 00-7.13 2.6c-1.36 2.51-.38 5.42.77 7.93.51 1.13 1.08 2.24 1.71 3.31 0 0-2.1-7.78-.28-10.04a3.55 3.55 0 012.8-1.62c.47 0 .93.08 1.38.22 10.44 3.07 21.27 4.62 32.16 4.6h.35c10.89.02 21.72-1.53 32.16-4.6.45-.14.91-.22 1.38-.22 1.14.06 2.19.66 2.81 1.62 1.85 2.26-.28 10.07-.28 10.07.62-1.07 1.24-2.17 1.76-3.31 1.14-2.51 2.13-5.41.77-7.93z"/></g></svg><svg viewBox="0 0 128 128" style="enable-background:new 0 0 128 128" id="1F607" xmlns="http://www.w3.org/2000/svg"><radialGradient id="bha" cx="63.6" cy="2880.9" r="56.96" gradientTransform="translate(0 -2818)" gradientUnits="userSpaceOnUse"><stop offset=".5" style="stop-color:#fde030"/><stop offset=".92" style="stop-color:#f7c02b"/><stop offset="1" style="stop-color:#f4a223"/></radialGradient><path style="fill:url(#bha)" d="M63.6 118.8c-27.9 0-58-17.5-58-55.9S35.7 7 63.6 7c15.5 0 29.8 5.1 40.4 14.4 11.5 10.2 17.6 24.6 17.6 41.5s-6.1 31.2-17.6 41.4c-10.6 9.3-25 14.5-40.4 14.5z"/><path style="fill:#eb8f00" d="M111.49 29.67c5.33 8.6 8.11 18.84 8.11 30.23 0 16.9-6.1 31.2-17.6 41.4-10.6 9.3-25 14.5-40.4 14.5-18.06 0-37-7.35-48.18-22.94 10.76 17.66 31 25.94 50.18 25.94 15.4 0 29.8-5.2 40.4-14.5 11.5-10.2 17.6-24.5 17.6-41.4 0-12.74-3.47-24.06-10.11-33.23z"/><g><path style="fill:#4fc3f7" d="M64 0C31 0 4.2 6.77 4.2 15.12S19.38 32.25 64 32.25c42.16 0 59.75-8.77 59.75-17.13S97 0 64 0zm0 21.44c-25.52 0-46.22-2-46.22-6.92s20.7-10 46.22-10 46.22 5.12 46.22 10.05S89.48 21.44 64 21.44z"/><path style="fill:#422b0d" d="M63 91.61c-9.07.07-17.73-3.74-23.8-10.48-.46-.53-.57-1.28-.28-1.92.29-.65.93-1.07 1.64-1.08.32 0 .64.09.92.25 4.82 2.77 12.88 6.21 21.52 6.21h.14c8.63 0 16.7-3.44 21.51-6.21.28-.16.6-.25.92-.25.71.01 1.35.43 1.64 1.08.3.64.19 1.39-.28 1.92a31.695 31.695 0 01-23.82 10.48M49 56.89l-.15-.2-.43-.55-.53-.57c-.22-.25-.48-.49-.73-.75s-.56-.51-.84-.72c-.26-.2-.54-.39-.84-.54-.2-.11-.42-.2-.65-.25a.739.739 0 00-.21 0H44.45h.27-.55c-.15 0-.05 0 0 0h.08c.08 0 0 0 0 0h-.11c-.23.05-.45.13-.66.25-.29.16-.58.34-.84.54-.29.22-.57.46-.83.72-.53.51-1 1-1.3 1.39l-.52.6-.23.27a4.231 4.231 0 01-5.62.61 3.54 3.54 0 01-1.47-3.48s.07-.4.26-1.11c.3-1.01.72-1.99 1.25-2.91.85-1.5 2-2.81 3.38-3.85.91-.7 1.92-1.26 3-1.65.3-.12.61-.21.92-.29.33-.1.66-.17 1-.23l.61-.09.51-.06h1.85c.34 0 .67.09 1 .14.64.11 1.28.28 1.89.51 1.08.39 2.09.95 3 1.65 1.38 1.04 2.53 2.35 3.38 3.85.31.52.58 1.07.8 1.63.19.45.35.9.48 1.37.07.24.13.48.16.72v.25c.3 2.04-1.12 3.94-3.16 4.24-.05.01-.1.01-.15.02-1.46.21-2.92-.37-3.85-1.51zM88.46 56.89l-.16-.2-.43-.55-.53-.57c-.22-.25-.48-.49-.73-.75s-.56-.51-.84-.72c-.26-.2-.54-.39-.84-.54-.2-.11-.42-.2-.65-.25a.739.739 0 00-.21 0H83.9h.27-.55c-.15 0-.05 0 0 0h.08c.08 0 0 0 0 0h-.11c-.23.05-.45.13-.66.25-.29.15-.57.34-.83.54-.3.22-.58.46-.84.72-.53.51-1 1-1.3 1.39l-.52.6-.22.27a4.244 4.244 0 01-5.63.61 3.54 3.54 0 01-1.47-3.48s.07-.4.27-1.11c.3-1.02.71-2 1.25-2.91.85-1.5 1.99-2.81 3.37-3.85.91-.7 1.92-1.26 3-1.65.3-.12.61-.21.92-.29.33-.1.66-.17 1-.23l.62-.09.5-.06h1.85c.34 0 .67.09 1 .14.65.11 1.28.28 1.89.51 1.08.39 2.09.95 3 1.65 1.38 1.04 2.53 2.35 3.38 3.85.31.52.58 1.07.8 1.63.19.44.35.89.48 1.35.07.24.13.48.16.72v.25a3.74 3.74 0 01-3.12 4.27c-.03 0-.06.01-.09.01-1.49.25-3-.33-3.94-1.51z"/></g></svg><svg viewBox="0 0 128 128" style="enable-background:new 0 0 128 128" id="1F609" xmlns="http://www.w3.org/2000/svg"><radialGradient id="bia" cx="63.6" cy="808.9" r="56.96" gradientTransform="translate(0 -746)" gradientUnits="userSpaceOnUse"><stop offset=".5" style="stop-color:#fde030"/><stop offset=".92" style="stop-color:#f7c02b"/><stop offset="1" style="stop-color:#f4a223"/></radialGradient><path style="fill:url(#bia)" d="M63.6 118.8c-27.9 0-58-17.5-58-55.9S35.7 7 63.6 7c15.5 0 29.8 5.1 40.4 14.4 11.5 10.2 17.6 24.6 17.6 41.5s-6.1 31.2-17.6 41.4c-10.6 9.3-25 14.5-40.4 14.5z"/><path style="fill:#eb8f00" d="M111.49 29.67c5.33 8.6 8.11 18.84 8.11 30.23 0 16.9-6.1 31.2-17.6 41.4-10.6 9.3-25 14.5-40.4 14.5-18.06 0-37-7.35-48.18-22.94 10.76 17.66 31 25.94 50.18 25.94 15.4 0 29.8-5.2 40.4-14.5 11.5-10.2 17.6-24.5 17.6-41.4 0-12.74-3.47-24.06-10.11-33.23z"/><g><path style="fill:#422b0d" d="M64.25 95.44c-12.74 0-21.82-6.61-24.55-10.77a4.58 4.58 0 01-.56-4.67c.53-.97 1.56-1.57 2.67-1.56.41 0 .82.07 1.21.2a72.32 72.32 0 0021.28 3.07c7.17.04 14.31-1 21.18-3.07.39-.13.8-.19 1.21-.2 1.11-.01 2.14.59 2.67 1.56a4.58 4.58 0 01-.56 4.67C86.07 88.83 77 95.44 64.25 95.44zM97.51 62l-.2-.28c-.18-.26-.37-.51-.58-.75-.72-.81-1.53-1.54-2.42-2.16-1.2-.84-2.5-1.53-3.87-2.05-.75-.29-1.52-.54-2.3-.74-.39-.1-.82-.19-1.26-.28l-.6-.11.59-.31 1.75-.92c1.13-.58 2.2-1.08 3.1-1.49s1.64-.7 2.14-.89l.76-.27.22-.09c1.41-.58 2.07-2.2 1.49-3.61-.4-.96-1.3-1.61-2.33-1.69-.41-.02-.83-.02-1.24 0-1.01.09-2.02.27-3 .52-1.34.34-2.65.77-3.93 1.29-.68.3-1.4.58-2.09.94s-1.44.74-2.06 1.07-1.37.82-2 1.25-1.27.88-1.87 1.32a26.83 26.83 0 00-3.13 2.7c-.73.72-1.39 1.5-2 2.33-.18.24-.35.5-.5.76-.08.16-.13.24-.13.24-.37.9-.4 1.9-.08 2.82a2.75 2.75 0 003.57 1.54c.01 0 .02-.01.03-.01l.24-.09L76 63l.24-.06c.17 0 .48-.12.8-.19s.71-.14 1.13-.21c.99-.14 2-.22 3-.22 1.18 0 2.37.08 3.54.25.21 0 .74.1 1 .15s.54.09.84.16c.58.14 1.15.26 1.69.42.96.27 1.9.6 2.82 1 .6.28 1.19.59 1.76.94.4.24.6.39.6.39l.28.21c1.2.91 2.92.67 3.82-.54.74-.98.73-2.33-.01-3.3zM44.67 46.94c-4.19 0-8 3.54-8 9.42s3.81 9.41 8 9.41c4.19 0 8-3.54 8-9.41s-3.81-9.42-8-9.42zM29.84 44.8c-.87.01-1.68-.41-2.19-1.11-.48-.72-.57-1.64-.23-2.44 2.04-5.12 5.98-9.26 11-11.54A20.19 20.19 0 0144.27 28c.13-.01.26-.01.39 0 1.26-.05 2.35.86 2.53 2.11.18 1.33-.61 2.59-1.89 3l-.37-.7.25.74a25.323 25.323 0 00-13 10.32c-.48.82-1.36 1.32-2.31 1.32l-.03.01z"/><g><path style="fill:#896024" d="M44.28 50.87a2.874 2.874 0 00-3.82 1.34c-.53 1.11-.29 2.44.6 3.3 1.42.68 3.13.08 3.82-1.34.53-1.11.29-2.44-.6-3.3z"/></g></g></svg><svg viewBox="0 0 128 128" style="enable-background:new 0 0 128 128" id="1F60A" xmlns="http://www.w3.org/2000/svg"><radialGradient id="bja" cx="63.6" cy="-2088.9" r="56.96" gradientTransform="matrix(1 0 0 -1 0 -2026)" gradientUnits="userSpaceOnUse"><stop offset=".5" style="stop-color:#fde030"/><stop offset=".919" style="stop-color:#f7c02b"/><stop offset="1" style="stop-color:#f4a223"/></radialGradient><path style="fill:url(#bja)" d="M63.6 118.8c-27.9 0-58-17.5-58-55.9S35.7 7 63.6 7c15.5 0 29.8 5.1 40.4 14.4 11.5 10.2 17.6 24.6 17.6 41.5s-6.1 31.2-17.6 41.4c-10.6 9.3-25 14.5-40.4 14.5z"/><path style="fill:#eb8f00" d="M111.49 29.67c5.33 8.6 8.11 18.84 8.11 30.23 0 16.9-6.1 31.2-17.6 41.4-10.6 9.3-25 14.5-40.4 14.5-18.06 0-37.04-7.35-48.18-22.94 10.76 17.66 30.99 25.94 50.18 25.94 15.4 0 29.8-5.2 40.4-14.5 11.5-10.2 17.6-24.5 17.6-41.4 0-12.74-3.47-24.06-10.11-33.23z"/><radialGradient id="bjb" cx="25.701" cy="68.023" r="19.444" gradientTransform="matrix(.9791 0 0 .9301 2.087 8.56)" gradientUnits="userSpaceOnUse"><stop offset="0" style="stop-color:#ed7770"/><stop offset=".9" style="stop-color:#ed7770;stop-opacity:0"/></radialGradient><circle style="opacity:.8;fill:url(#bjb)" cx="27.25" cy="71.83" r="17.5"/><radialGradient id="bjc" cx="100.771" cy="68.023" r="19.444" gradientTransform="matrix(.9791 0 0 .9301 2.087 8.56)" gradientUnits="userSpaceOnUse"><stop offset="0" style="stop-color:#ed7770"/><stop offset=".9" style="stop-color:#ed7770;stop-opacity:0"/></radialGradient><circle style="opacity:.8;fill:url(#bjc)" cx="100.75" cy="71.83" r="17.5"/><path style="display:none;fill:#35220b" d="M64.49 97.55c12.29 0 23.26-7.11 30.51-18.26 1.1-1.7-1.23-4.29-3.23-2.29-7.12 7.12-16.57 11.03-27.28 11.03h-.21c-10.7 0-20.16-3.9-27.28-11.03-2-2-4.33.59-3.23 2.29 7.24 11.15 18.22 18.26 30.51 18.26h.21z"/><g><path style="fill:#422b0d" d="M48.96 56.89s-.05-.07-.16-.2l-.42-.54c-.15-.16-.33-.35-.54-.57-.21-.24-.47-.49-.73-.75-.27-.25-.55-.51-.84-.72-.28-.23-.59-.4-.84-.54-.26-.16-.5-.2-.65-.25-.08-.03-.15-.03-.21-.04-.03.01-.06-.01-.09 0l-.04.01h-.03c.12 0-.27.01.27-.01l-.55.02c-.14 0-.05.01-.04.01.03 0 .05 0 .07-.01.08-.03 0 0-.02 0a.26.26 0 00-.11.03c-.16.05-.4.09-.65.25-.25.14-.56.31-.84.54-.28.22-.57.47-.84.72-.52.51-.98 1.02-1.3 1.39-.33.38-.51.6-.51.6l-.23.27c-1.37 1.6-3.89 1.87-5.62.61-1.18-.86-1.69-2.2-1.47-3.48 0 0 .07-.41.27-1.12.21-.71.56-1.72 1.25-2.91.69-1.18 1.69-2.57 3.38-3.84.83-.62 1.84-1.24 3.04-1.66.29-.11.6-.21.92-.29.33-.08.59-.17 1.04-.23l.62-.09c.19-.02.47-.05.51-.05l.55-.04.31-.01h.09l.13.01h.24l.51.03c.34.03.67.09 1 .14.65.12 1.3.29 1.89.51a11.1 11.1 0 013.04 1.66c1.69 1.27 2.69 2.66 3.38 3.84.35.59.61 1.15.8 1.64.21.47.36.97.48 1.34.11.36.11.55.16.72.03.16.04.25.04.25.37 2.02-1.12 3.93-3.31 4.26-1.57.25-3.08-.38-3.95-1.5zM88.46 56.89s-.05-.07-.16-.2l-.42-.54c-.15-.16-.33-.35-.54-.57-.21-.24-.47-.49-.73-.75-.27-.25-.55-.51-.84-.72-.28-.23-.59-.4-.84-.54-.26-.16-.5-.2-.65-.25-.08-.03-.15-.03-.21-.04-.03.01-.06-.01-.09 0l-.04.01h-.04c.12 0-.27.01.27-.01l-.55.02c-.14 0-.05.01-.04.01.03 0 .05 0 .07-.01.08-.03 0 0-.02 0a.26.26 0 00-.11.03c-.16.05-.4.09-.65.25-.25.14-.56.31-.84.54-.28.22-.57.47-.84.72-.52.51-.98 1.02-1.3 1.39-.33.38-.51.6-.51.6l-.23.27c-1.37 1.6-3.89 1.87-5.62.61-1.18-.86-1.69-2.2-1.47-3.48 0 0 .07-.41.27-1.12.21-.71.56-1.72 1.25-2.91.69-1.18 1.69-2.57 3.38-3.84.83-.62 1.84-1.24 3.04-1.66.29-.11.6-.21.92-.29.33-.08.59-.17 1.04-.23l.62-.09c.19-.02.47-.05.51-.05l.55-.04.31-.01h.09l.13.01h.24l.51.03c.34.03.67.09 1 .14.65.12 1.3.29 1.89.51a11.1 11.1 0 013.04 1.66c1.69 1.27 2.69 2.66 3.38 3.84.35.59.61 1.15.8 1.64.21.47.36.97.48 1.34.11.36.11.55.16.72.03.16.04.25.04.25.37 2.02-1.12 3.93-3.31 4.26-1.57.25-3.08-.38-3.94-1.5z"/></g><path style="fill:#422b0d" d="M64.02 93.99c-12.57 0-22.51-5.95-27.99-12.32-.55-.64-.68-1.5-.33-2.25.35-.77 1.11-1.27 1.93-1.27.37 0 .75.1 1.08.29 5.65 3.26 15.14 7.29 25.28 7.29h.16c10.15 0 19.63-4.04 25.28-7.29.34-.19.71-.3 1.08-.29.82 0 1.58.5 1.93 1.27.34.75.22 1.62-.33 2.25-5.48 6.36-15.43 12.32-27.99 12.32"/></svg><svg viewBox="0 0 128 128" style="enable-background:new 0 0 128 128" id="1F642" xmlns="http://www.w3.org/2000/svg"><radialGradient id="bka" cx="63.6" cy="808.9" r="56.96" gradientTransform="translate(0 -746)" gradientUnits="userSpaceOnUse"><stop offset=".5" style="stop-color:#fde030"/><stop offset=".92" style="stop-color:#f7c02b"/><stop offset="1" style="stop-color:#f4a223"/></radialGradient><path style="fill:url(#bka)" d="M63.6 118.8c-27.9 0-58-17.5-58-55.9S35.7 7 63.6 7c15.5 0 29.8 5.1 40.4 14.4 11.5 10.2 17.6 24.6 17.6 41.5s-6.1 31.2-17.6 41.4c-10.6 9.3-25 14.5-40.4 14.5z"/><g><path style="fill:#422b0d" d="M44 40.94c-4.19 0-8 3.54-8 9.42s3.81 9.41 8 9.41c4.2 0 8-3.54 8-9.41s-3.76-9.42-8-9.42z"/><path style="fill:#896024" d="M43.65 44.87a2.874 2.874 0 00-3.82 1.34c-.53 1.11-.29 2.44.6 3.3 1.42.68 3.13.08 3.82-1.34.53-1.11.29-2.44-.6-3.3z"/><path style="fill:#422b0d" d="M82.4 40.94c-4.19 0-8 3.54-8 9.42s3.81 9.41 8 9.41c4.19 0 8-3.54 8-9.41s-3.81-9.42-8-9.42z"/><path style="fill:#896024" d="M82 44.87a2.874 2.874 0 00-3.82 1.34c-.53 1.11-.29 2.44.6 3.3 1.42.68 3.13.08 3.82-1.34.53-1.11.29-2.44-.6-3.3z"/><path style="fill:#422b0d" d="M63 91.61c-9.07.07-17.73-3.74-23.8-10.48-.46-.53-.57-1.28-.28-1.92.29-.65.93-1.07 1.64-1.08.32 0 .64.09.92.25 4.82 2.77 12.88 6.21 21.52 6.21h.14c8.63 0 16.7-3.44 21.51-6.21.28-.16.6-.25.92-.25.71.01 1.35.43 1.64 1.08.3.64.19 1.39-.28 1.92a31.695 31.695 0 01-23.82 10.48"/><path style="fill:#eb8f00" d="M111.49 29.67c5.33 8.6 8.11 18.84 8.11 30.23 0 16.9-6.1 31.2-17.6 41.4-10.6 9.3-25 14.5-40.4 14.5-18.06 0-37-7.35-48.18-22.94 10.76 17.66 31 25.94 50.18 25.94 15.4 0 29.8-5.2 40.4-14.5 11.5-10.2 17.6-24.5 17.6-41.4 0-12.74-3.47-24.06-10.11-33.23z"/></g></svg><svg viewBox="0 0 128 128" style="enable-background:new 0 0 128 128" id="1F643" xmlns="http://www.w3.org/2000/svg"><radialGradient id="bla" cx="-528.4" cy="-16.9" r="56.96" gradientTransform="matrix(-1 0 0 1 -464.8 79.8)" gradientUnits="userSpaceOnUse"><stop offset=".5" style="stop-color:#fde030"/><stop offset=".919" style="stop-color:#f7c02b"/><stop offset="1" style="stop-color:#f4a223"/></radialGradient><path style="fill:url(#bla)" d="M63.6 7c27.9 0 58 17.5 58 55.9s-30.1 55.9-58 55.9c-15.5 0-29.8-5.1-40.4-14.4C11.7 94.2 5.6 79.8 5.6 62.9s6.1-31.2 17.6-41.4C33.8 12.2 48.2 7 63.6 7z"/><path style="fill:#422b0d" d="M83.16 84.86c4.19 0 8-3.54 8-9.42 0-5.87-3.81-9.42-8-9.42-4.19 0-8 3.54-8 9.42s3.8 9.42 8 9.42z"/><path style="fill:#896024" d="M83.55 80.93c1.03.72 2.58.49 3.58-.95 1-1.45.67-2.97-.36-3.69-1.03-.72-2.58-.49-3.58.95s-.68 2.97.36 3.69z"/><path style="fill:#422b0d" d="M44.8 84.86c4.19 0 8-3.54 8-9.42 0-5.87-3.81-9.42-8-9.42-4.19 0-8 3.54-8 9.42s3.81 9.42 8 9.42z"/><path style="fill:#896024" d="M45.19 80.93c1.03.72 2.58.49 3.58-.95s.67-2.97-.36-3.69c-1.03-.72-2.58-.49-3.58.95s-.67 2.97.36 3.69z"/><path style="fill:#422b0d" d="M64.18 34.19c10.69 0 19.15 5.07 23.82 10.48.47.54.58 1.28.28 1.92-.3.65-.94 1.08-1.65 1.08-.32 0-.63-.09-.92-.25-4.81-2.77-12.88-6.21-21.51-6.21h-.14c-8.63 0-16.7 3.43-21.51 6.21-.29.16-.6.25-.92.25-.7 0-1.35-.43-1.65-1.08a1.8 1.8 0 01.28-1.92c4.67-5.42 13.13-10.48 23.82-10.48"/><path style="fill:#eb8f00" d="M111.49 29.67c5.33 8.6 8.11 18.84 8.11 30.23 0 16.9-6.1 31.2-17.6 41.4-10.6 9.3-25 14.5-40.4 14.5-18.06 0-37.04-7.35-48.18-22.94 10.76 17.66 30.99 25.94 50.18 25.94 15.4 0 29.8-5.2 40.4-14.5 11.5-10.2 17.6-24.5 17.6-41.4 0-12.74-3.47-24.06-10.11-33.23z"/></svg><svg viewBox="0 0 128 128" style="enable-background:new 0 0 128 128" id="1F923" xmlns="http://www.w3.org/2000/svg"><radialGradient id="bma" cx="-240.78" cy="288.717" r="56.96" gradientTransform="matrix(.71 -.71 .71 .71 28.09 -314.89)" gradientUnits="userSpaceOnUse"><stop offset=".5" style="stop-color:#fde030"/><stop offset=".92" style="stop-color:#f7c02b"/><stop offset="1" style="stop-color:#f4a223"/></radialGradient><path style="fill:url(#bma)" d="M103.13 102.43c-19.73 19.73-53.39 28.64-80.54 1.48S4.34 43.1 24.07 23.37C35 12.41 48.75 5.91 62.82 5c15.35-.92 29.84 4.95 41.79 16.9s17.75 26.37 16.83 41.72c-.92 14.06-7.44 27.92-18.31 38.81z"/><path style="fill:#eb8f00" d="M74 5.54c9.84 2.31 19 7.59 27.11 15.64 12 12 17.75 26.38 16.83 41.72-.94 14.1-7.46 27.93-18.35 38.82-12.77 12.77-31.38 21-50.29 17.85 20.1 4.88 40.26-3.57 53.83-17.14 10.87-10.89 17.39-24.75 18.31-38.82.92-15.35-4.88-29.77-16.83-41.72C95.6 12.88 85.14 7.33 74 5.54z"/><path style="fill:#422b0d" d="M96.71 39.56c-2.77-.8-5.71.57-6.88 3.21a111.583 111.583 0 01-19.21 25.47c-7.52 7.59-16.1 14.06-25.47 19.2a5.812 5.812 0 00-3.21 6.88c.82 2.75 3.57 4.1 6.16 5.07 14.51 5.43 30.48 1.39 42.75-10.81l.12-.11c12.19-12.27 16.23-28.24 10.8-42.76-.96-2.58-2.32-5.34-5.06-6.15z"/><path style="fill:#422b0d" d="M90.08 87.58l-.06.06v.06l.06-.12zM71.61 69l-.11.1-.1.11.21-.21z"/><path style="fill:#422b0d" d="M71.61 69l-.11.1-.1.11.21-.21zM90.08 87.58l-.06.06v.06l.06-.12z"/><path style="fill:none" d="M97.92 74.49a35.15 35.15 0 001.51-27.9C98.37 43.74 97.34 42.35 96 42c-1.63-.44-3.33.42-3.95 2-5.23 9.56-11.8 18.31-19.52 26l-.2.21c-7.7 7.7-16.46 14.25-26.02 19.45-.42.21-.81.49-1.14.82-.87.79-1.2 2.01-.84 3.13C44.74 95 46.12 96 49 97.05c8.93 3.3 18.83 2.84 27.41-1.29.64-5.57 3.2-10.75 7.24-14.63 3.76-3.91 8.85-6.28 14.27-6.64z"/><path style="fill:#ed7770" d="M99.4 74.38c-.51 0-1 .07-1.48.11-5.43.35-10.53 2.72-14.3 6.64-4.04 3.88-6.6 9.06-7.24 14.63-.06.49-.12 1-.15 1.48s.08.88.14 1.28a47.158 47.158 0 0014.48-9.94l.12-.11c4.01-3.99 7.27-8.67 9.62-13.81-.39-.12-.79-.21-1.19-.28z"/><path style="fill:#fff" d="M89.83 42.77a111.583 111.583 0 01-19.21 25.47c-7.52 7.59-16.1 14.06-25.47 19.2a5.812 5.812 0 00-3.21 6.88c.13.41.3.8.52 1.17.41-.14.8-.3 1.19-.49a84.436 84.436 0 0033.76-21.08A84.677 84.677 0 0098 41.71c.17-.41.32-.83.45-1.26-.52-.4-1.11-.71-1.74-.89-2.77-.8-5.71.57-6.88 3.21z"/><path style="fill:#eb8f00" d="M71.4 69.74c5.87-5.68 9.71-11.26 14.33-18.06 1.15-1.7 2.24-3.44 3.29-5.23l.76-1.35c.2-.35.42-.69.68-1 .46-.57 1.05-1.01 1.73-1.29 1.58-.58 3.31-.61 4.91-.08 3.25 1.56 6.08 7.12 5.72 6.08 0 0-.59-2.33-.61-2.36-.8-2-1.62-4.26-3.69-6a7.577 7.577 0 00-7.72-.88 7.755 7.755 0 00-3 2.41c-.38.48-.72 1-1 1.55l-.67 1.32c-.93 1.75-1.92 3.48-3 5.17-3.84 6.41-8.37 12.38-13.51 17.8l-.16.16A98.741 98.741 0 0152 81.31c-1.7 1-3.42 2-5.17 3l-1.36.69c-.55.28-1.07.61-1.55 1a7.69 7.69 0 00-2.42 3 7.54 7.54 0 001 7.59c2.69 3.51 8.83 4 8.86 4 1 .36-5.06-2.22-6.62-5.47a7.101 7.101 0 010-4.77c.26-.7.69-1.32 1.26-1.8.31-.26.65-.48 1-.67l1.35-.76c1.78-1 3.52-2.15 5.23-3.3 6.79-4.62 12-8 17.65-13.92"/><g><radialGradient id="bmb" cx="-641.585" cy="-742.502" r="31.6" gradientTransform="matrix(-.13 -.99 -1.53 .21 -1141.95 -448.74)" gradientUnits="userSpaceOnUse"><stop offset=".46" style="stop-color:#29b6f6"/><stop offset="1" style="stop-color:#1e88e5"/></radialGradient><path style="fill:url(#bmb)" d="M115.13 31.34c1.2 7.64-5.82 14.88-12.19 15.74-4.48.6-9.48-.43-17-2.3-1.11-.21-2.24-.54-3.48-.85-4.58-1.27-9.08-2.8-13.49-4.58a1.806 1.806 0 01-1.13-2.13c.13-.38.39-.71.72-.93a58.01 58.01 0 0111.29-9c10.41-6.44 14.37-7.31 18.85-7.91 6.18-1.01 15.13 3.62 16.43 11.96z"/><path style="fill:#81d4fa" d="M105.52 24.19c2.91 1.38 2.93 5.37-1.51 6-2.85.38-17.52 1.76-15.81-.95 2.8-4.45 13.21-7 17.32-5.05z"/><path style="fill:#422b0d" d="M72.65 31.1l-9.23 8.28 3.42-13.15c.03-.16.06-.31.07-.47a4.18 4.18 0 00-3.45-4.81c-.54-.09-1.1-.07-1.64.05a6.003 6.003 0 00-4.39 5.3c-.57 5.81-1.91 19.5-2.43 24.83-.16.53.14 1.09.67 1.25.35.11.73.01.99-.25l20.69-13.08.41-.29c2.5-1.92 3.11-5.58 1.09-7.7-1.54-1.62-4.2-1.49-6.2.04z"/><radialGradient id="bmc" cx="-764.219" cy="-690.255" r="30.26" gradientTransform="matrix(-1 .08 -.13 -1.53 -814.51 -921.26)" gradientUnits="userSpaceOnUse"><stop offset=".46" style="stop-color:#29b6f6"/><stop offset="1" style="stop-color:#1e88e5"/></radialGradient><path style="fill:url(#bmc)" d="M25.9 104c-.36-4.31-.37-8.19 3.52-19.26 1.52-4.38 3.58-8.55 6.13-12.42.14-.36.4-.66.73-.86.79-.4 1.75-.13 2.23.61 2.57 3.76 4.92 7.66 7.06 11.68.54 1.1 1.08 2.08 1.51 3.08 3.3 6.69 5.29 11.16 5.65 15.47.51 6.13-4.82 14.19-12.21 14.65-8.05.46-14.24-6.95-14.62-12.95z"/><path style="fill:#81d4fa" d="M33 92.17c2.17-2.17 3.9 11.83 4.13 14.58.35 4.28-3.39 5.08-5.27 2.65-2.68-3.4-2.43-13.71 1.14-17.23z"/><path style="fill:#422b0d" d="M30.17 78.76l6.66-10.47-12.41 5.54L24 74c-2.19.74-4.57-.43-5.32-2.62-.18-.52-.25-1.07-.21-1.62a5.99 5.99 0 014.51-5.2L47 58.05c.5-.24 1.1-.03 1.34.47.16.33.13.72-.09 1.01l-9.47 22.55c-.06.16-.13.31-.21.46-1.48 2.78-5 4-7.42 2.34-1.85-1.26-2.15-3.88-.98-6.12z"/></g></svg></svg>