<?xml version="1.0" encoding="utf-8"?><svg viewBox="0 0 128 128" xmlns="http://www.w3.org/2000/svg" xmlns:xlink="http://www.w3.org/1999/xlink"><style>:root>svg{display:none}:root>svg:target{display:block}</style><svg viewBox="0 0 128 128" id="1F331" xmlns="http://www.w3.org/2000/svg"><path fill="#558B2F" d="M74.81 47.29s-.17.21-.48.6c-.3.39-.8.97-1.34 1.71-.49.76-1.15 1.59-1.79 2.7-.32.55-.67 1.13-1.03 1.74-.34.62-.67 1.3-1.03 1.99-.37.68-.7 1.43-1.03 2.21-.32.78-.72 1.56-.99 2.41-.3.84-.62 1.71-.94 2.59-.27.9-.54 1.83-.81 2.77-.3.93-.48 1.92-.72 2.9-.23.98-.47 1.97-.62 3-.17 1.02-.36 2.04-.52 3.07l-.39 3.12c-.15 1.03-.2 2.09-.28 3.13-.06 1.04-.18 2.08-.2 3.11-.02 2.07-.15 4.1-.05 6.07.05 1.97.08 3.87.25 5.68.14 1.8.22 3.51.44 5.08.18 1.57.34 3.01.48 4.29.2 1.27.37 2.38.51 3.29l.44 2.87.02.11c.23 1.48-.79 2.87-2.27 3.09-1.48.23-2.87-.79-3.09-2.27 0-.02-.01-.06-.01-.08 0 0-.14-1.08-.37-2.98-.12-.95-.26-2.1-.43-3.42-.11-1.33-.23-2.83-.36-4.46-.16-1.63-.18-3.41-.25-5.29-.1-1.88-.05-3.87-.02-5.92-.02-2.05.2-4.18.3-6.33.06-1.08.22-2.16.33-3.25.13-1.09.22-2.18.42-3.26.18-1.08.36-2.17.53-3.25.22-1.07.48-2.14.71-3.2.22-1.06.51-2.1.81-3.12.31-1.02.55-2.04.92-3.01.34-.98.68-1.93 1.01-2.87.39-.92.76-1.82 1.13-2.69.34-.88.8-1.69 1.18-2.5.39-.8.78-1.57 1.21-2.29.42-.72.8-1.41 1.2-2.06.42-.63.83-1.22 1.21-1.78.74-1.12 1.56-2.04 2.14-2.82.62-.74 1.12-1.25 1.46-1.64.34-.37.52-.57.52-.57.44-.48 1.18-.52 1.66-.08.48.43.53 1.13.14 1.61z"/><linearGradient id="aaa" x1="63.352" x2="63.352" y1="124.29" y2="105.97" gradientUnits="userSpaceOnUse"><stop offset=".002" stop-color="#5D4037"/><stop offset="1" stop-color="#8D6E63"/></linearGradient><path fill="url(#aaa)" d="M36.92 110.9c4.74-4.97 11.23-9.51 17.96-8.12 5.01 1.04 9.62 5.28 14.55 3.92 1.57-.43 2.95-1.41 4.54-1.76 3.72-.83 7.27 1.95 9.66 4.92s4.47 6.48 7.94 8.07c2.14.98 4.56 1.1 6.83 1.73s5.13 4.35 5.13 4.35l-80.36-.41s5.71-4.17 7.03-5.47c2.35-2.32 4.45-4.85 6.72-7.23z"/><path fill="#424242" d="M52.38 105.52c.64 0 1.27.06 1.89.19 1.53.32 3.12 1.04 4.8 1.82 2.61 1.2 5.31 2.43 8.36 2.43.95 0 1.89-.13 2.79-.37.97-.27 1.83-.67 2.59-1.02.66-.31 1.28-.59 1.81-.71.23-.05.46-.08.7-.08 1.75 0 3.98 1.48 5.97 3.95.45.56.9 1.15 1.36 1.77 1.97 2.61 4.21 5.56 7.66 7.15.23.1.45.2.68.29l-59.1-.3c.16-.14.3-.27.41-.38 1.45-1.42 2.8-2.92 4.1-4.37.87-.97 1.77-1.97 2.67-2.91 3.26-3.41 8.2-7.46 13.31-7.46m0-3c-5.82 0-11.31 4.03-15.46 8.38-2.27 2.38-4.37 4.91-6.71 7.22-1.32 1.3-7.03 5.47-7.03 5.47l80.36.41s-2.86-3.71-5.13-4.35c-2.27-.63-4.69-.75-6.83-1.73-3.47-1.59-5.55-5.1-7.94-8.07-2.1-2.61-5.09-5.07-8.31-5.07-.45 0-.9.05-1.35.15-1.59.35-2.97 1.33-4.54 1.76-.67.18-1.33.27-1.99.27-4.2 0-8.23-3.29-12.56-4.19-.85-.16-1.68-.25-2.51-.25z" opacity=".2"/><linearGradient id="aab" x1="9.817" x2="51.348" y1="34.963" y2="69.765" gradientUnits="userSpaceOnUse"><stop offset="0" stop-color="#9CCC65"/><stop offset=".995" stop-color="#689F38"/></linearGradient><path fill="url(#aab)" d="M4.2 32.24s-.82 25.92 20.04 37.82 36.16 3.92 36.16 3.92S64.4 28 4.2 32.24z"/><path fill="#424242" d="M11.79 34.7c16.53 0 28.87 4.31 36.69 12.8 8.31 9.02 9.2 20.47 9.22 24.64-1.9.69-5.59 1.72-10.54 1.72-7.13 0-14.39-2.08-21.57-6.18C10.1 58.85 7.46 41.31 7.02 34.82c1.62-.08 3.22-.12 4.77-.12m0-2.74c-2.41 0-4.93.09-7.59.28 0 0-.82 25.92 20.04 37.82 8.91 5.09 16.81 6.54 22.93 6.54 8.21 0 13.23-2.62 13.23-2.62s3.64-42.02-48.61-42.02z" opacity=".2"/><linearGradient id="aac" x1="67.623" x2="114.11" y1="56.992" y2="14.04" gradientUnits="userSpaceOnUse"><stop offset=".005" stop-color="#689F38"/><stop offset="1" stop-color="#9CCC65"/></linearGradient><path fill="url(#aac)" d="M123.92 7.86S93.78.02 76.31 20.61 64.09 61.7 64.09 61.7s51.7 12.69 59.83-53.84z"/><path fill="#424242" d="M110.48 9.13c4.42 0 8.13.5 10.39.89-2.73 19.04-9.47 32.87-20.07 41.14-9.28 7.24-19.74 8.76-26.89 8.76-3.24 0-5.87-.31-7.47-.57-.73-5.07-1.62-20.99 11.95-36.99 9.3-10.93 22.58-13.23 32.09-13.23m0-2.74c-10.25 0-24.25 2.53-34.17 14.21-17.47 20.59-12.22 41.1-12.22 41.1s3.94.97 9.82.97c15.41 0 44.12-6.65 50-54.81.01 0-5.63-1.47-13.43-1.47z" opacity=".2"/><path fill="#33691E" d="M67.56 55.35s.47-.81 1.3-2.22c.41-.71.91-1.56 1.55-2.54.63-.97 1.3-2.1 2.12-3.25.8-1.17 1.66-2.44 2.64-3.73.94-1.32 2.02-2.65 3.13-4.03.54-.7 1.16-1.36 1.74-2.05.59-.69 1.19-1.39 1.83-2.06.63-.68 1.27-1.36 1.92-2.04.67-.66 1.33-1.33 2-1.99.66-.67 1.38-1.29 2.06-1.93s1.38-1.27 2.09-1.86c1.39-1.22 2.82-2.35 4.2-3.44 1.4-1.06 2.76-2.08 4.09-3 1.33-.91 2.58-1.77 3.78-2.51 1.18-.77 2.28-1.43 3.27-2 .98-.59 1.84-1.09 2.56-1.47 1.43-.79 2.25-1.24 2.25-1.24l-2.19 1.34c-.7.42-1.54.96-2.49 1.59-.96.62-2.03 1.33-3.16 2.14-1.16.79-2.37 1.7-3.64 2.67-1.28.97-2.58 2.04-3.92 3.16-1.32 1.14-2.68 2.32-4 3.59-.68.62-1.33 1.26-1.98 1.93-.64.67-1.32 1.3-1.94 1.99-.63.68-1.26 1.37-1.88 2.05-.6.7-1.2 1.4-1.79 2.1-.6.69-1.16 1.4-1.71 2.11-.54.71-1.12 1.38-1.62 2.09-1.02 1.4-2.02 2.75-2.89 4.09-.91 1.31-1.69 2.59-2.42 3.77-.75 1.17-1.35 2.28-1.91 3.25-.56.96-1.03 1.84-1.41 2.57-.76 1.45-1.2 2.28-1.2 2.28-.35.67-1.18.93-1.85.57s-.93-1.18-.57-1.85l.04-.08zM54.46 68.86s-.43-.81-1.19-2.22c-.19-.35-.4-.74-.63-1.17-.25-.4-.52-.83-.8-1.29-.57-.93-1.2-1.98-2.01-3.07-.39-.55-.8-1.13-1.22-1.72-.46-.57-.93-1.16-1.41-1.76-.94-1.24-2.1-2.4-3.22-3.67-1.22-1.17-2.42-2.46-3.8-3.6-1.32-1.21-2.77-2.29-4.21-3.4-1.49-1.03-2.96-2.11-4.52-2.99-1.51-.96-3.09-1.75-4.6-2.55-.76-.39-1.54-.71-2.28-1.06-.75-.34-1.48-.68-2.22-.94-.73-.28-1.44-.56-2.13-.82-.69-.27-1.38-.45-2.03-.67-.65-.21-1.28-.41-1.88-.59-.61-.16-1.18-.3-1.72-.44-1.08-.29-2.02-.52-2.81-.65-1.57-.31-2.47-.48-2.47-.48s.91.14 2.49.38c.8.1 1.75.3 2.85.54.55.12 1.13.24 1.74.37.61.16 1.24.34 1.91.52.66.19 1.37.35 2.07.59.71.24 1.43.48 2.18.74.76.24 1.51.55 2.28.86.77.32 1.57.61 2.35.97 1.56.74 3.19 1.48 4.77 2.39 1.62.83 3.16 1.87 4.72 2.85 1.51 1.07 3.04 2.12 4.44 3.29 1.46 1.1 2.74 2.37 4.04 3.53 1.2 1.26 2.45 2.4 3.47 3.64.53.6 1.04 1.19 1.53 1.76.46.6.91 1.17 1.33 1.72.88 1.09 1.6 2.16 2.23 3.12.32.48.62.92.9 1.33.25.42.48.8.68 1.14l1.29 2.17c.34.58.15 1.32-.43 1.67s-1.33.15-1.67-.43c0-.03-.01-.05-.02-.06z" opacity=".2"/></svg><svg viewBox="0 0 128 128" id="1F332" xmlns="http://www.w3.org/2000/svg"><linearGradient id="aba" x1="64" x2="64" y1="100.5" y2="124.01" gradientUnits="userSpaceOnUse"><stop offset="0" stop-color="#8D6E63"/><stop offset=".998" stop-color="#5D4037"/></linearGradient><path fill="url(#aba)" d="M67.06 124h-6.11a5.94 5.94 0 01-5.94-5.94V97.82a5.94 5.94 0 015.94-5.94h6.11A5.94 5.94 0 0173 97.82v20.24a5.94 5.94 0 01-5.94 5.94z"/><path fill="#424242" d="M67.06 95.28c1.4 0 2.54 1.14 2.54 2.54v20.24c0 1.4-1.14 2.54-2.54 2.54h-6.11c-1.4 0-2.54-1.14-2.54-2.54V97.82c0-1.4 1.14-2.54 2.54-2.54h6.11m0-3.4h-6.11a5.94 5.94 0 00-5.94 5.94v20.24a5.94 5.94 0 005.94 5.94h6.11a5.94 5.94 0 005.94-5.94V97.82a5.94 5.94 0 00-5.94-5.94z" opacity=".2"/><linearGradient id="abb" x1="64.094" x2="64.094" y1="105.7" y2="8.997" gradientUnits="userSpaceOnUse"><stop offset=".395" stop-color="#558B2F"/><stop offset=".417" stop-color="#588E31"/><stop offset=".807" stop-color="#89BB57"/><stop offset="1" stop-color="#9CCC65"/></linearGradient><path fill="url(#abb)" d="M114.47 100.14c-33.25 7.14-67.65 6.82-100.74-.83-3.01-.75-4.07-3.82-1.75-5.42 15.32-10.87 27.73-25 36.59-37.71.57-.8 1.47-1.29 2.44-1.3 8.68-.09 17.35-.18 26.02-.28.96-.01 1.87.46 2.44 1.27 8.81 12.72 21.26 27.19 36.73 38.7 2.33 1.71 1.29 4.86-1.73 5.57z"/><path fill="#424242" d="M76.98 57.66c7.52 10.86 20.08 26.46 37.3 39.3-.1.07-.26.15-.49.21A228.234 228.234 0 0166 102.23c-17.31 0-34.66-1.98-51.56-5.88a2.02 2.02 0 01-.43-.17C31.08 84 43.57 68.67 51.03 57.93l13.39-.14 12.56-.13m.07-3.05h-.03c-8.66.09-17.34.18-26.02.28-.96.01-1.87.49-2.44 1.3C39.7 68.9 27.3 83.02 11.98 93.89c-2.32 1.6-1.26 4.67 1.75 5.42a232.34 232.34 0 0052.28 5.97c16.24 0 32.49-1.71 48.46-5.14 3.02-.7 4.06-3.86 1.72-5.56-15.48-11.52-27.93-25.98-36.73-38.7-.57-.8-1.46-1.27-2.41-1.27z" opacity=".2"/><linearGradient id="abc" x1="64.073" x2="64.073" y1="107.56" y2="10.299" gradientUnits="userSpaceOnUse"><stop offset=".133" stop-color="#558B2F"/><stop offset=".352" stop-color="#598E32"/><stop offset=".551" stop-color="#64983A"/><stop offset=".743" stop-color="#76A948"/><stop offset=".928" stop-color="#90C15C"/><stop offset="1" stop-color="#9CCC65"/></linearGradient><path fill="url(#abc)" d="M105.8 78.83c-27.55 5.84-56.02 5.59-83.45-.66-3.04-.76-4.03-3.89-1.6-5.48 12.38-8.44 22.37-19.31 29.8-29.13.58-.75 1.45-1.2 2.37-1.21 7.4-.07 14.79-.15 22.17-.22.93-.01 1.8.43 2.37 1.18 7.38 9.83 17.4 20.96 29.9 29.89 2.46 1.69 1.5 4.91-1.56 5.63z"/><path fill="#424242" d="M75.06 45.18c9.33 12.42 19.6 22.68 30.52 30.49-.1.06-.24.14-.45.19A191.395 191.395 0 0165.61 80c-14.28 0-28.59-1.61-42.54-4.78-.16-.04-.29-.1-.39-.15 10.85-7.43 21.04-17.41 30.27-29.66l11.36-.11 10.75-.12m.07-3.05h-.03c-7.38.07-14.77.15-22.17.22-.93.01-1.8.46-2.37 1.21-7.42 9.82-17.42 20.69-29.8 29.13-2.43 1.59-1.45 4.72 1.6 5.48 14.23 3.24 28.74 4.87 43.26 4.87 13.46 0 26.93-1.4 40.19-4.21 3.06-.72 4.02-3.94 1.56-5.63-12.49-8.93-22.52-20.06-29.9-29.89-.57-.74-1.43-1.18-2.34-1.18z" opacity=".2"/><linearGradient id="abd" x1="64.034" x2="64.034" y1="113.53" y2="17.134" gradientUnits="userSpaceOnUse"><stop offset=".124" stop-color="#558B2F"/><stop offset=".31" stop-color="#5D9235"/><stop offset=".601" stop-color="#73A746"/><stop offset=".959" stop-color="#97C861"/><stop offset="1" stop-color="#9CCC65"/></linearGradient><path fill="url(#abd)" d="M93.91 56.98c-19.74 4.02-40.1 3.83-59.75-.5-3.1-.78-4.1-3.89-1.62-5.49 9.39-6.41 16.73-14.49 22.35-21.89.58-.75 1.45-1.2 2.37-1.21 4.42-.05 8.83-.1 13.24-.14.92-.01 1.79.42 2.36 1.16 5.64 7.39 13.05 15.66 22.61 22.43 2.53 1.69 1.57 4.91-1.56 5.64z"/><path fill="#424242" d="M70.48 30.78c7.37 9.64 14.97 17.17 23.24 23.03-.1.06-.25.14-.46.19a140.723 140.723 0 01-58.38-.49c-.17-.04-.3-.1-.4-.15 8.21-5.64 15.69-12.98 22.83-22.43l13.17-.15m.06-3.05h-.03c-4.41.05-8.83.1-13.24.14-.93.01-1.8.46-2.37 1.21-5.62 7.4-12.96 15.48-22.35 21.89-2.48 1.61-1.48 4.72 1.62 5.49 10.23 2.26 20.66 3.39 31.09 3.39 9.6 0 19.2-.96 28.66-2.89 3.13-.72 4.09-3.94 1.57-5.65-9.56-6.77-16.97-15.05-22.61-22.43-.58-.72-1.43-1.15-2.34-1.15z" opacity=".2"/><linearGradient id="abe" x1="63.985" x2="63.985" y1="111.5" y2="18.365" gradientTransform="matrix(1.0407 -.0108 -.0108 1.0532 -2.429 -1.721)" gradientUnits="userSpaceOnUse"><stop offset=".005" stop-color="#689F38"/><stop offset=".79" stop-color="#9CCC65"/></linearGradient><path fill="url(#abe)" d="M66.59 6.05c4.8 6.96 10.86 14.7 19.78 21.15 2.63 1.8 1.41 5.14-2.07 5.89-13.54 2.56-27.43 2.58-40.98-.14-3.47-.8-4.65-4.01-1.99-5.72 9.05-6.15 15.26-13.9 20.2-21.06 1.27-1.81 3.82-1.89 5.06-.12z"/><path fill="#424242" d="M64.1 8.06c4.51 6.51 10.87 14.8 20.26 21.63-.15.1-.38.21-.71.28-6.48 1.22-13.08 1.84-19.6 1.84-6.75 0-13.5-.67-20.07-1.98-.22-.05-.4-.12-.55-.19 9.7-6.66 16.14-15.02 20.67-21.58m.05-3.29c-.98 0-1.97.47-2.62 1.41-4.94 7.15-11.15 14.91-20.2 21.06-2.65 1.7-1.48 4.92 1.99 5.72C50.17 34.33 57.12 35 64.06 35c6.78 0 13.55-.64 20.24-1.91 3.48-.75 4.69-4.09 2.07-5.89-8.92-6.45-14.98-14.19-19.78-21.15a2.961 2.961 0 00-2.44-1.28z" opacity=".2"/></svg><svg viewBox="0 0 128 128" id="1F333" xmlns="http://www.w3.org/2000/svg"><linearGradient id="aca" x1="64" x2="64" y1="121.33" y2="93.416" gradientUnits="userSpaceOnUse"><stop offset=".002" stop-color="#5D4037"/><stop offset="1" stop-color="#8D6E63"/></linearGradient><path fill="url(#aca)" d="M56.57 79.87c-.98.02-1.73.48-1.7 1.03.3 5.38 1.54 31.22-1.99 36.43-1.49 2.2-3.69 3.82-5.55 4.9-1.08.63-.26 1.68 1.3 1.68h30.74c1.63 0 2.4-1.11 1.21-1.73-1.97-1.02-4.19-2.62-6-5.1-3.32-4.54-3.2-30.92-3.14-36.53.01-.57-.84-1.03-1.86-1l-13.01.32z"/><path fill="#424242" d="M67.8 83.22c-.13 25.12 2 33.47 3.86 36 .27.37.55.72.84 1.07H55.2c.24-.3.46-.61.68-.92 3.41-5.04 3.44-21.75 2.75-35.92l9.17-.23m1.86-3.67h-.08l-13.01.33c-.98.02-1.73.48-1.7 1.03.3 5.38 1.54 31.22-1.99 36.43-1.49 2.2-3.69 3.82-5.55 4.9-1.08.63-.26 1.68 1.3 1.68h30.74c1.63 0 2.4-1.11 1.21-1.73-1.97-1.02-4.19-2.62-6-5.1-3.32-4.54-3.2-30.92-3.14-36.53.01-.57-.79-1.01-1.78-1.01z" opacity=".2"/><linearGradient id="acb" x1="55.204" x2="95.9" y1="42.608" y2="97.399" gradientUnits="userSpaceOnUse"><stop offset="0" stop-color="#9CCC65"/><stop offset=".995" stop-color="#689F38"/></linearGradient><path fill="url(#acb)" d="M56.96 100c-9.49 0-17.78-6.08-20.63-15.13a1.5 1.5 0 00-1.43-1.05h-.12c-.6.05-1.13.07-1.61.07-11.39 0-20.66-9.59-20.66-21.38 0-7.32 3.57-14.06 9.55-18.02.57-.38.81-1.1.59-1.74a20.52 20.52 0 01-1.14-6.77c0-11.39 9.27-20.66 20.66-20.66 1.65 0 3.31.2 4.93.6.12.03.24.04.36.04.51 0 1-.26 1.27-.71 3.8-6.12 10.37-9.77 17.56-9.77 9.12 0 17.28 6.11 19.83 14.87.19.65.78 1.08 1.44 1.08.09 0 .19-.01.28-.03 1.29-.24 2.59-.37 3.87-.37 11.39 0 20.66 9.27 20.66 20.66 0 6.2-2.75 12.02-7.54 15.96-.33.27-.53.68-.55 1.11-.01.43.16.85.48 1.14a20.71 20.71 0 016.62 15.15c0 11.39-9.27 20.66-20.66 20.66-5.09 0-9.99-1.87-13.78-5.27-.28-.25-.63-.38-1-.38-.06 0-.12 0-.17.01-.43.05-.81.28-1.06.63a21.619 21.619 0 01-17.75 9.3z"/><path fill="#689F38" d="M66.27 7c8.46 0 16.02 5.67 18.39 13.79a3.003 3.003 0 003.44 2.11c1.19-.23 2.4-.34 3.59-.34 10.57 0 19.16 8.6 19.16 19.16 0 5.75-2.55 11.15-7 14.8a2.97 2.97 0 00-1.09 2.23c-.03.87.32 1.7.96 2.29 3.9 3.62 6.14 8.74 6.14 14.05 0 10.57-8.6 19.16-19.16 19.16-4.72 0-9.26-1.74-12.78-4.89-.55-.5-1.27-.77-2-.77-.11 0-.23.01-.35.02-.85.1-1.62.56-2.11 1.26-3.77 5.4-9.94 8.63-16.51 8.63-8.84 0-16.55-5.66-19.2-14.08a3 3 0 00-3.1-2.09c-.56.04-1.05.07-1.49.07C22.6 82.4 14 73.49 14 62.53c0-6.82 3.32-13.09 8.88-16.77a3 3 0 001.18-3.48C23.36 40.25 23 38.14 23 36c0-10.57 8.6-19.16 19.16-19.16 1.53 0 3.07.19 4.57.55.24.06.48.09.71.09a3 3 0 002.55-1.42C53.52 10.39 59.61 7 66.27 7m0-3c-7.95 0-14.92 4.19-18.83 10.48-1.69-.41-3.46-.64-5.28-.64C29.92 13.84 20 23.76 20 36c0 2.54.43 4.98 1.22 7.26C15.08 47.33 11 54.43 11 62.53c0 12.63 9.92 22.88 22.16 22.88.58 0 1.16-.03 1.73-.08 2.95 9.38 11.71 16.18 22.06 16.18 7.86 0 14.79-3.92 18.97-9.91 3.92 3.51 9.1 5.65 14.78 5.65 12.24 0 22.16-9.92 22.16-22.16 0-6.42-2.74-12.21-7.1-16.25 4.94-4.06 8.09-10.22 8.09-17.12 0-12.24-9.92-22.16-22.16-22.16-1.42 0-2.8.14-4.15.39C84.86 10.73 76.36 4 66.27 4z"/><path fill="none" stroke="#689F38" stroke-linecap="round" stroke-linejoin="round" stroke-miterlimit="10" stroke-width="3" d="M22.5 44.25s7.5-5.62 19.5-5M44.5 26.5s.33-5 4.64-11.79M48.16 78.85s-3.84 3.21-11.73 4.8M66.52 85.83c4.89 2.42 12.37 2.28 17.23-.2M79.62 61.88c5.62 1.12 12.88-3 14.87-8.2M88.46 59.85c5.27 1.72 11.96.63 16.86-2.58M39.67 72.5c3.73 4.84 10.56 7.04 16.66 5.5"/></svg><svg viewBox="0 0 128 128" id="1F334" xmlns="http://www.w3.org/2000/svg"><linearGradient id="ada" x1="68.237" x2="81.487" y1="46.34" y2="121.84" gradientUnits="userSpaceOnUse"><stop offset="0" stop-color="#8D6E63"/><stop offset=".998" stop-color="#5D4037"/></linearGradient><path fill="url(#ada)" d="M58.67 37c19.6 34.92 10.83 84 10.83 84s1.74 2.79 9.17 3.04c6.17.21 9.33-2.69 9.33-2.71C91.95 78.42 76.25 44.16 65.67 35c.04 0-5.76.61-7 2z"/><path fill="#424242" d="M64.67 38.17c9.35 9.33 23.83 40.84 20.47 81.51-1.02.57-2.98 1.38-5.83 1.38-.18 0-.35 0-.54-.01-3.28-.11-5.11-.76-6.04-1.25.59-3.99 1.91-14.45 1.7-27.74-.23-14.72-2.46-35.6-11.56-53.56.5-.11 1.09-.23 1.8-.33m1-3.17zm0 0c-.03.01-5.77.62-7 2 19.6 34.92 10.83 84 10.83 84s1.74 2.79 9.17 3.04c.22.01.43.01.64.01 5.75 0 8.69-2.7 8.7-2.72C91.95 78.42 76.25 44.16 65.67 35z" opacity=".2"/><linearGradient id="adb" x1="18.21" x2="108.08" y1="9.853" y2="89.347" gradientUnits="userSpaceOnUse"><stop offset="0" stop-color="#9CCC65"/><stop offset=".995" stop-color="#689F38"/></linearGradient><path fill="url(#adb)" d="M68.5 29c25.02-21.31 54 4.75 54 4.75 0-5.75-10.38-27.14-32.38-27C70.75 6.88 67.83 17.83 63.67 23c-5-30.5-40.04-14.5-37.17-10.67 2.54 3.39 21.75-1.29 29.25 12.54-5.29-3.85-17.91-8.83-33.25-3.5C6.67 26.88 4.23 47.81 5.67 50.17c0 0 21.02-25.6 48.83-19.17-63.62 9.25-35.75 56.75-35.75 56.75C24.5 62.5 46.38 43.5 58.25 37.12c-28.88 27-15.38 61 7.25 61.38-3.12-10.62-11.25-34.25.5-61 1.25.5 29.25 7.5 50 40.75 0 0 16.5-55.13-47.5-49.25z"/><path fill="#424242" d="M44.12 7.72c9.29 0 14.87 5.31 16.58 15.77a3.011 3.011 0 002.19 2.42A3.01 3.01 0 0066 24.89c.83-1.03 1.57-2.19 2.36-3.42 3.48-5.45 7.43-11.62 21.79-11.72h.2c10.69 0 17.87 5.62 22.02 10.33 1.64 1.87 2.98 3.78 4.03 5.58-6.25-3.8-15.55-8.04-25.91-8.04-8.79 0-16.84 3.06-23.93 9.1-1 .85-1.33 2.24-.82 3.45A3 3 0 0068.5 32c.09 0 .18 0 .28-.01 3.08-.28 6.05-.43 8.83-.43 14.94 0 25.54 4.05 31.5 12.04 6.33 8.48 6.25 19.79 5.34 26.93C97 46.19 76.05 37.5 67.4 34.8c-.15-.05-.27-.08-.34-.11-.35-.13-.71-.19-1.06-.19-1.16 0-2.26.67-2.75 1.79-10.75 24.47-5.47 46.52-1.94 58.66-6.46-1.6-11.85-6.56-14.6-13.7-2.3-5.98-2.53-12.78-.66-19.65 2.15-7.87 7.07-15.57 14.24-22.28a3 3 0 00-2.05-5.19c-.48 0-.97.12-1.42.36-11.88 6.38-30.61 22.93-38.63 44.62-2.28-6.52-4.29-16.47-.03-25.31 4.98-10.33 17.35-17 36.75-19.82 1.43-.21 2.51-1.4 2.57-2.84s-.92-2.72-2.32-3.05c-3.2-.74-6.46-1.11-9.71-1.11-16.34 0-29.39 9.2-36.43 15.52 1.45-6.26 5.37-15.12 14.45-18.27 4.13-1.43 8.32-2.16 12.47-2.16 7.98 0 14.54 2.71 18.03 5.25.53.38 1.15.58 1.77.58.71 0 1.41-.25 1.98-.74 1.06-.92 1.33-2.45.66-3.69-5.8-10.7-17.64-11.78-24.71-12.43-.62-.06-1.32-.12-2-.19 2.76-1.48 7.38-3.13 12.45-3.13m0-3c-9.79 0-19.16 5.56-17.62 7.62 2.54 3.39 21.75-1.29 29.25 12.54-3.63-2.65-10.73-5.83-19.79-5.83-4.13 0-8.66.66-13.46 2.33C6.67 26.88 4.23 47.81 5.67 50.17c0 0 16.59-20.2 39.8-20.2 2.92 0 5.93.32 9.04 1.04-63.62 9.25-35.75 56.75-35.75 56.75C24.5 62.5 46.38 43.5 58.25 37.12c-28.88 27-15.38 61 7.25 61.38-3.12-10.62-11.25-34.25.5-61 1.25.5 29.25 7.5 50 40.75 0 0 14.87-49.69-38.39-49.69-2.84 0-5.87.14-9.11.44 7.26-6.18 14.86-8.38 21.98-8.38 17.42 0 32.02 13.13 32.02 13.13 0-5.73-10.31-27-32.16-27h-.22C70.75 6.88 67.83 17.83 63.67 23 61.35 8.87 52.58 4.72 44.12 4.72z" opacity=".2"/><path fill="none" d="M73 76c.15-.09.27-.08.44-.14.24-.07.47-.25.69-.37.71-.39 1.45-.72 2.21-1 .84-.31 1.73-.44 2.56-.75.18-.07.38-.18.48-.33-.2.11-.35.32-.49.48-.54.63-1.11 1.24-1.64 1.89-.22.22-.4.48-.53.76-.08.15-.15.3-.21.46-.17.2-.29.13-.49.03-.59-.28-1.24-.61-1.87-.76-.27-.06-.96-.19-1.15-.27z"/><path fill="#A1887F" d="M70.09 56.49l6.33-.01-3.78 2.38zM71.86 67.5l7.5-.33-4.37 3zM76.02 78.85l5.96-2.16-2.76 3.53zM73.86 87.28l6.34-.19-3.73 2.49zM78.47 95.8l5.95-2.16-2.75 3.53z"/><path fill="#6D4C41" d="M79.23 106.27l5.96-2.16-2.76 3.53z"/><path fill="#A1887F" d="M73.84 105.36l6.48-.46-3.99 3zM78.5 112.69l6.49-.45-3.99 3z"/></svg><svg viewBox="0 0 128 128" id="1F335" xmlns="http://www.w3.org/2000/svg"><linearGradient id="aea" x1="45.112" x2="113.76" y1="-11.489" y2="95.209" gradientUnits="userSpaceOnUse"><stop offset="0" stop-color="#9CCC65"/><stop offset=".008" stop-color="#9BCB64"/><stop offset=".528" stop-color="#76AB44"/><stop offset=".802" stop-color="#689F38"/></linearGradient><path fill="url(#aea)" d="M95.57 26.8c-6.05 0-10.86 4.42-10.86 9.98v19.71c0 4.08-5.71 9.49-10.12 9.63l.26 18.43c16.37-.14 31.59-12.99 31.59-28.06V36.78c0-5.56-4.82-9.98-10.87-9.98z"/><path fill="#424242" d="M95.57 29.93c4.34 0 7.73 3.01 7.73 6.85v19.71c0 6.3-3.05 12.44-8.58 17.27-4.7 4.11-10.68 6.74-16.79 7.46l-.18-12.58c5.19-1.8 10.09-7.34 10.09-12.16v-19.7c0-3.84 3.4-6.85 7.73-6.85m0-3.13c-6.05 0-10.86 4.42-10.86 9.98v19.71c0 4.08-5.71 9.49-10.12 9.63l.26 18.43c16.37-.14 31.59-12.99 31.59-28.06V36.78c0-5.56-4.82-9.98-10.87-9.98z" opacity=".2"/><path fill="none" stroke="#558B2F" stroke-linecap="round" stroke-linejoin="round" stroke-miterlimit="10" stroke-width="2" d="M93.46 31.57c-2.61.68-1.61 11.29-1.56 14.56.09 5.64-.65 10.86-2.45 15.46S83.11 71.8 78.21 72.44"/><path fill="none" stroke="#558B2F" stroke-linecap="round" stroke-linejoin="round" stroke-miterlimit="10" stroke-width="2" d="M99.02 33.84c1.29 9.17 1.61 11.36.47 18.58-.93 5.87-2.66 11.51-6.2 16.28s-9.6 8.25-15.33 9.82"/><linearGradient id="aeb" x1="27.445" x2="94.251" y1="12.025" y2="115.86" gradientUnits="userSpaceOnUse"><stop offset="0" stop-color="#9CCC65"/><stop offset=".995" stop-color="#689F38"/></linearGradient><path fill="url(#aeb)" d="M63.41 3.92c-8.97 0-16.04 6.99-16.04 15.7L49.35 124h28.94l1.29-104.38c0-8.58-7.2-15.7-16.17-15.7z"/><path fill="#424242" d="M63.41 6.88c7.29 0 13.21 5.72 13.21 12.71l-1.26 101.46H52.25L50.33 19.59c.01-7.13 5.75-12.71 13.08-12.71m0-2.96c-8.97 0-16.04 6.99-16.04 15.7L49.35 124h28.94l1.29-104.38c0-8.58-7.2-15.7-16.17-15.7z" opacity=".2"/><linearGradient id="aec" x1="4.58" x2="80.384" y1="19.738" y2="137.56" gradientUnits="userSpaceOnUse"><stop offset="0" stop-color="#9CCC65"/><stop offset=".995" stop-color="#689F38"/></linearGradient><path fill="url(#aec)" d="M55.34 85.58c-3.89-.31-14.38-1.68-14.38-13.3V42.72c0-5.56-4.42-9.98-9.98-9.98S21 37.16 21 42.72v29.44c0 20.53 15.87 30.63 34.34 30.63V85.58z"/><path fill="#424242" d="M30.97 35.74c3.91 0 6.98 3.07 6.98 6.98v29.56c0 5.21 1.95 13.87 14.38 15.95v11.45c-7.59-.5-14.33-2.88-19.21-6.85-5.97-4.85-9.13-12-9.13-20.68V42.72c0-3.91 3.07-6.98 6.98-6.98m0-3c-5.56 0-9.98 4.42-9.98 9.98v29.44c0 20.53 15.87 30.63 34.34 30.63v-17.2c-3.89-.31-14.38-1.68-14.38-13.3V42.72c0-5.56-4.42-9.98-9.98-9.98z" opacity=".2"/><path fill="none" stroke="#689F38" stroke-linecap="round" stroke-linejoin="round" stroke-miterlimit="10" stroke-width="1.995" d="M57.92 9.65c-5.17 4.13-3.44 20.47-3.36 28.43.28 28.02 2.04 53.77 2.33 81.79M65.29 8.62c.98 3.38.57 4.9.59 8.42.11 19.95.27 39.9.47 59.85.14 14.01 1 30.33.87 43.25M71.73 16.87c-.33 19.95-.61 39.89-.84 59.84-.16 14.01.34 30.34-.07 43.26M27.31 36.53c.22 9.99.14 19.98-.25 29.97-.12 3.11-.27 6.26.41 9.3.47 2.1 1.33 4.1 2.28 6.04 1.1 2.22 2.34 4.39 3.9 6.32 1.98 2.47 4.45 4.55 7.23 6.07 3.17 1.74 6.73 2.76 10.34 2.95"/><path fill="#33691E" d="M44.28 28.73c1.14-.16 2.27-.11 3.38 0l-.35.51c-.5-1.01-.95-2.04-1.21-3.17.76.88 1.32 1.86 1.84 2.86l-.35.51c-1.11-.14-2.22-.32-3.31-.71zM45.34 46.25c1.14-.16 2.27-.11 3.38 0l-.35.51c-.5-1.01-.95-2.04-1.21-3.17.76.88 1.32 1.86 1.84 2.86l-.35.51c-1.12-.15-2.23-.32-3.31-.71zM45.85 70.71c1.14-.16 2.27-.11 3.38 0l-.35.51c-.5-1.01-.95-2.04-1.21-3.17.76.88 1.32 1.86 1.84 2.86l-.35.51c-1.11-.14-2.22-.32-3.31-.71zM18.8 40.74c1.14-.16 2.27-.11 3.38 0l-.35.51c-.5-1.01-.95-2.04-1.21-3.17.76.88 1.32 1.86 1.84 2.86l-.35.51c-1.11-.15-2.22-.33-3.31-.71zM31.64 30.56c.52 1.03.83 2.11 1.09 3.2l-.59-.17c.8-.8 1.63-1.56 2.62-2.16-.59 1-1.34 1.85-2.12 2.65l-.59-.17c-.24-1.09-.43-2.2-.41-3.35zM41.49 37.64c-.25 1.13-.68 2.16-1.16 3.18l-.35-.5c1.12-.12 2.25-.19 3.4-.04-1.09.41-2.2.6-3.32.74l-.35-.5c.49-1.01 1.04-1.99 1.78-2.88zM43.01 62.59c-.63.97-1.41 1.78-2.22 2.55l-.15-.59c1.09.29 2.16.63 3.19 1.17-1.16-.01-2.27-.23-3.36-.5l-.15-.59c.82-.76 1.68-1.48 2.69-2.04zM23.63 49c1.14-.16 2.27-.11 3.38 0l-.35.51c-.5-1.01-.95-2.04-1.21-3.17.76.88 1.32 1.86 1.84 2.86l-.35.51c-1.12-.14-2.22-.32-3.31-.71zM18.13 59.29c1.04-.5 2.13-.79 3.22-1.03l-.18.59c-.78-.81-1.52-1.66-2.12-2.66.99.61 1.82 1.37 2.61 2.17l-.18.59c-1.08.21-2.19.38-3.35.34zM23 65.25c1.14-.16 2.27-.11 3.38 0l-.35.51c-.5-1.01-.95-2.04-1.21-3.17.76.88 1.32 1.86 1.84 2.86l-.35.51c-1.11-.14-2.22-.32-3.31-.71zM18.23 75.83c1.01-.55 2.08-.9 3.16-1.2l-.15.6c-.82-.77-1.61-1.57-2.26-2.54 1.02.56 1.89 1.27 2.73 2.02l-.15.6c-1.07.28-2.17.5-3.33.52zM52.74 73.04c1.14-.16 2.27-.11 3.38 0l-.35.51c-.5-1.01-.95-2.04-1.21-3.17.76.88 1.32 1.86 1.84 2.86l-.35.51c-1.11-.15-2.22-.32-3.31-.71zM53.09 91.99c1.14-.16 2.27-.11 3.38 0l-.35.51c-.5-1.01-.95-2.04-1.21-3.17.76.88 1.32 1.86 1.84 2.86l-.35.51c-1.12-.15-2.22-.32-3.31-.71zM53.69 109.22c1.14-.16 2.27-.11 3.38 0l-.35.51c-.5-1.01-.95-2.04-1.21-3.17.76.88 1.32 1.86 1.84 2.86l-.35.49c-1.11-.13-2.22-.31-3.31-.69zM52.51 46.28c1.14-.18 2.26-.16 3.38-.08l-.34.51c-.52-1-1-2.02-1.28-3.14.78.86 1.36 1.83 1.9 2.81l-.34.51c-1.11-.09-2.22-.24-3.32-.61zM48.78 8.86c1.14-.16 2.27-.11 3.38 0l-.35.51c-.5-1.01-.95-2.04-1.21-3.17.76.88 1.32 1.86 1.84 2.86l-.35.51c-1.11-.14-2.22-.32-3.31-.71zM56.71 1.98c.95.65 1.75 1.45 2.5 2.27l-.6.14c.31-1.08.67-2.15 1.24-3.16-.03 1.16-.27 2.26-.56 3.35l-.6.14c-.73-.85-1.43-1.72-1.98-2.74zM93.87 23.96c.77.86 1.36 1.82 1.9 2.8h-.61c.56-.98 1.16-1.93 1.95-2.78-.31 1.12-.8 2.13-1.34 3.12h-.61c-.53-1.01-1.01-2.03-1.29-3.14zM83.85 29.75c1.14.16 2.21.51 3.26.91l-.47.39c-.21-1.11-.36-2.22-.31-3.38.49 1.05.77 2.14.99 3.25l-.47.39c-1.04-.42-2.06-.9-3-1.56zM70.87 2.47c.35 1.1.48 2.22.57 3.33l-.56-.26c.91-.66 1.86-1.28 2.93-1.72-.74.89-1.61 1.61-2.51 2.29l-.56-.26c-.06-1.12-.07-2.25.13-3.38zM80.92 41.5c-.46 1.06-1.08 1.99-1.75 2.89l-.25-.56c1.12.1 2.24.25 3.34.61-1.14.19-2.27.17-3.39.09l-.25-.56c.68-.88 1.4-1.74 2.3-2.47zM108.31 33.06c-.46 1.06-1.08 1.99-1.75 2.89l-.25-.56c1.12.1 2.24.25 3.34.61-1.14.19-2.27.17-3.39.09l-.26-.56c.69-.88 1.41-1.74 2.31-2.47zM72.48 91.12c-.46 1.06-1.08 1.99-1.75 2.89l-.25-.56c1.12.1 2.24.25 3.34.61-1.14.19-2.27.17-3.39.09l-.25-.56c.67-.89 1.4-1.74 2.3-2.47zM80.4 87.5c-.46 1.06-1.08 1.99-1.75 2.89l-.25-.56c1.12.1 2.24.25 3.34.61-1.14.19-2.27.17-3.39.09l-.25-.56c.68-.88 1.41-1.74 2.3-2.47zM81.05 101.03c-.8.83-1.72 1.48-2.66 2.09l-.04-.61c1.02.49 2.01 1.02 2.91 1.75-1.14-.23-2.18-.65-3.21-1.12l-.04-.61c.96-.6 1.95-1.14 3.04-1.5zM81.05 111.71c-.8.83-1.72 1.48-2.66 2.09l-.04-.61c1.02.49 2.01 1.02 2.91 1.75-1.14-.23-2.18-.65-3.21-1.12l-.04-.61c.96-.59 1.95-1.14 3.04-1.5zM80.92 53.22c-.46 1.06-1.08 1.99-1.75 2.89l-.25-.56c1.12.1 2.24.25 3.34.61-1.14.19-2.27.17-3.39.09l-.25-.56c.68-.89 1.4-1.74 2.3-2.47zM108.98 46.72c-.73.89-1.59 1.62-2.47 2.31l-.09-.61c1.05.4 2.09.85 3.05 1.5-1.15-.13-2.23-.46-3.29-.84l-.09-.61c.9-.67 1.83-1.3 2.89-1.75zM109.04 57.85c-.88.75-1.85 1.31-2.85 1.82l.02-.61c.96.58 1.9 1.21 2.73 2.02-1.11-.34-2.11-.86-3.08-1.42l.02-.61c1.01-.5 2.04-.95 3.16-1.2zM71.95 28.38c.11 1.15.02 2.27-.13 3.38l-.49-.37c1.03-.46 2.08-.87 3.22-1.08-.91.72-1.91 1.24-2.93 1.72l-.49-.37c.16-1.11.39-2.21.82-3.28z"/></svg><svg viewBox="0 0 128 128" id="1F33E" xmlns="http://www.w3.org/2000/svg"><linearGradient id="afa" x1="63.25" x2="103.75" y1="39.59" y2="39.59" gradientTransform="matrix(1 0 0 -1 0 127.89)" gradientUnits="userSpaceOnUse"><stop offset=".005" stop-color="#689f38"/><stop offset="1" stop-color="#9ccc65"/></linearGradient><path fill="url(#afa)" d="M63.2 123.2s7-62 40.5-69.8c0 0-10.9 9.3-21.3 24.9-10 15.2-11.6 24.4-19.2 44.9z"/><path fill="#424242" d="M94.9 59.4c-4 4.3-9.1 10.3-14.1 17.9-2.9 4.3-5.1 8.2-6.9 11.9 4.5-11.7 11.3-23.5 21-29.8m8.9-6c-33.5 7.8-40.5 69.8-40.5 69.8 7.5-20.5 9.1-29.7 19.2-44.9 10.4-15.6 21.3-24.9 21.3-24.9z" opacity=".2"/><linearGradient id="afb" x1="67" x2="123.9" y1="35.091" y2="35.091" gradientTransform="matrix(1 0 0 -1 0 127.89)" gradientUnits="userSpaceOnUse"><stop offset=".005" stop-color="#689f38"/><stop offset="1" stop-color="#9ccc65"/></linearGradient><path fill="url(#afb)" d="M67 123.1S84.5 62 123.9 62.5c0 0-12.2 8-26.1 21-13.6 12.6-21.3 25.8-30.8 39.6z"/><path fill="#424242" d="M116.7 65.2c-4.9 3.7-12.4 9.5-20.3 16.9-8.9 8.2-15.2 16.7-21.2 25.4 7.2-15.9 20.8-38.3 41.5-42.3m6.7-2.7c-39 0-56.4 60.6-56.4 60.6 9.5-13.9 17.2-27.1 30.8-39.6 13.9-13 26.1-21 26.1-21h-.5z" opacity=".2"/><linearGradient id="afc" x1="47.537" x2="103.7" y1="64.99" y2="64.99" gradientTransform="matrix(1 0 0 -1 0 127.89)" gradientUnits="userSpaceOnUse"><stop offset=".005" stop-color="#689f38"/><stop offset="1" stop-color="#9ccc65"/></linearGradient><path fill="url(#afc)" d="M53.3 121.3S22.4 21.5 103.7 4.5c0 0-28.4 16.2-40.6 38.5-13.3 24.2-14.6 53-9.8 78.3z"/><path fill="#424242" d="M91.8 10C82.3 16.9 69 28.3 61.4 42c-6.2 11.2-10.1 24.1-11.8 38 0-14.5 2.4-30.5 10.4-44.1 7.1-12 17.8-20.7 31.8-25.9m12-5.5c-81.3 17-50.4 116.8-50.4 116.8C48.5 96 49.8 67.2 63.1 43c12.3-22.2 40.7-38.5 40.7-38.5z" opacity=".2"/><linearGradient id="afd" x1="12.89" x2="42.902" y1="58.84" y2="58.84" gradientTransform="matrix(1 0 0 -1 0 127.89)" gradientUnits="userSpaceOnUse"><stop offset=".005" stop-color="#689f38"/><stop offset="1" stop-color="#9ccc65"/></linearGradient><path fill="url(#afd)" d="M39.1 122.8c.6.2-17.7-14.3-23.6-39.1-6.8-23.9-1.2-58.1 27.4-68.4.2-.2-18.4 14-21.4 36.6-3.3 27.3 3.2 47.2 17.6 70.9z"/><path fill="#424242" d="M31.9 23.8c-5.2 6.5-10.8 16.1-12.4 28-2.7 22.2 1.3 39.4 9.1 55.9-5.3-7.6-9.1-15.9-11.1-24.4v-.1c-3.5-12.5-3.4-26.4.4-38.1 2.1-6.8 6.2-15.1 14-21.3m11-8.4zm0 0C14.3 25.7 8.7 59.8 15.5 83.8c5.7 23.5 22.5 37.8 23.6 39C24.7 99 18.2 79.2 21.5 52c2.9-22.1 20.7-36.2 21.4-36.6zM39 122.7c0 .1.1.1 0 0 .1.1.1.1 0 0z" opacity=".2"/><path fill="#ffb300" d="M40.2 113.3c-.6 0-1.1-.3-1.1-.7l-1.3-14.4c0-.4.4-.8.9-.8s1.1.3 1.1.7l1.3 14.4c0 .4-.4.7-.9.8zM52 6.5c-2.9-.1-6.8 2.2-8.6 5.5-3.6 6.5-.9 11-.9 10.9 0 0 4.6.5 8.9-7.6.9-1.8 1.6-7.2.6-8.8zM25.2 65.1c-2 3.3-.4 8 1.6 10.9 2.1 3 5.3 5.3 8.9 6.2-.1-.8 0-1.7-.1-2.6s-.2-1.8-.5-2.7c-.4-1.8-1.1-3.4-2-5-1.6-2.9-4.5-6-7.9-6.8zm13.4 4.4c-1.8 3-1.9 7.2-.5 10.4.3.7.6 1.6 1.1 2.2.1.2 2.5-1.6 2.8-1.8 1-.8 1.8-1.8 2.5-2.9 1.9-3.3 2.1-8.5-.2-11.7-2.7.3-4.6 1.8-5.7 3.8zM27.2 80.7c-.4-.1-.8 2.6-.8 2.8 0 1.1.1 2.1.4 3.1.6 2.1 1.6 4 3 5.6 1.4 1.5 3.1 2.7 5 3.5.5.2 1 .4 1.5.5.7.1.5.1.6-.5s0-1.4-.1-2c-.1-1.2-.4-2.3-.8-3.5-1.2-3.7-4.5-8.5-8.8-9.5zm12.3 3.8c-.5.8-.9 1.7-1.1 2.6-.5 2.4-.3 5 .8 7.2.2.4.5 1.1.9 1.1.6 0 1.5-.9 2-1.3.7-.6 1.3-1.2 1.8-1.9 2.1-3 2.6-8 .3-11-1.9.3-3.6 1.6-4.7 3.3zM24.4 48.7c-2.9 3.9-.9 10 2.1 13.2 1.4 1.5 3 2.6 4.9 3.3.4.2 1 .5 1.5.5s.4 0 .5-.6c.1-.7 0-1.4 0-2.1 0-1.3-.1-2.6-.4-3.9-.8-4.1-3.9-9.4-8.6-10.4zm14 5.4c-.7.9-1.4 1.9-1.8 2.8-1.2 2.7-1.4 5.9-.5 8.8.2.7.2 1 .8.8.4-.1.9-.4 1.3-.7 2.5-1.3 4.7-3.3 5.9-6 1.2-2.6 1.9-6.5.5-9.1-2.4.2-4.6 1.6-6.2 3.4zm-9.5-21.6c-3.8 3.1-3.9 9.2-1.7 13 1 1.7 2.4 3.1 4.1 4.1.8.5 1.7 1.3 2.2.2.4-.8.6-1.7.8-2.6.9-3 .9-6.9-.6-9.8-.9-1.8-2.5-4.1-4.8-4.9zm12.8 7c-.7.7-1.4 1.4-2 2.2-2.1 3-2.8 6.5-2.2 10v.1s3-1.2 3.2-1.3c1.2-.6 2.4-1.3 3.4-2.3 2.8-2.6 5.8-7.6 4.4-11.6-2.5.1-4.9 1.2-6.8 2.9zm-5.5-21.1c-3 1.8-4.7 5-5 8.2-.3 3.5 1.2 6.4 4 8.6.1.1 1.6 1.2 1.6 1.2-.1-.1 1.5-2.3 1.6-2.5.7-1.2 1.2-2.4 1.5-3.6 1.2-3.9.9-9.8-3.7-11.9zm11.2 6.3c-2 1.4-3.7 3.3-4.9 5.5-.6 1.1-1.1 2.3-1.3 3.5 0 .2-.4 3.2-.3 3.2.5 0 1.2-.3 1.7-.5.9-.2 1.8-.5 2.7-.9 2.6-1.1 4.9-2.8 6.7-5 1.7-2.1 3.7-5.3 3.2-8.1-3-.2-5.6.7-7.8 2.3z"/><path fill="#424242" d="M50.9 8.1c.2 1.7-.2 5.1-.9 6.4-2.6 4.9-5.2 6.2-6.5 6.6-.5-1.4-.9-4.5 1.3-8.5 1.3-2.3 4-4 6.1-4.5M36.3 20.3c3.2 2.1 2.9 7.1 2.2 9.6-.3 1.1-.8 2.2-1.3 3.2 0 .1-.2.2-.3.5s-.3.4-.4.6c-.1-.1-.2-.1-.2-.1-2.5-2-3.7-4.4-3.4-7.2.2-2.7 1.4-5.1 3.4-6.6M53.5 24c-.2 1.6-1.2 3.5-2.9 5.5-1.6 2-3.7 3.6-6 4.5-.6.3-1.3.5-2 .7 0-.4.1-.7.1-.8.2-1 .6-2.1 1.2-3.1 1-1.9 2.6-3.6 4.5-5 1.6-1 3.3-1.7 5.1-1.8M29.1 34.4c1.6 1 2.7 2.8 3.2 3.9 1.2 2.3 1.3 5.7.5 8.6-.1.2-.1.5-.2.7-.1.3-.2.6-.2.9-.1-.1-.2-.1-.3-.2-1.5-.9-2.8-2.1-3.6-3.6-1.7-2.9-1.8-7.5.6-10.3m18.2 4c.3 3.1-2.1 6.9-4.2 8.8-.9.8-1.9 1.5-3 2-.1 0-.6.2-1.2.5-.1-2.5.6-4.9 2.1-7 .5-.7 1.1-1.4 1.7-2 1.1-.9 2.6-2 4.6-2.3M25.1 50.6c2.5 1.1 5.3 4.1 6.4 9 .2 1.2.4 2.3.3 3.5v.6c-1.6-.7-3-1.7-4.2-2.9-1.4-1.5-2.4-3.6-2.9-5.6-.1-1.3-.3-3 .4-4.6m18.5 1.9c.5 2.1 0 4.8-.9 6.7-1.2 2.7-3.5 4.3-5.2 5.2-.5-2.2-.3-4.7.6-6.9.4-.8.9-1.7 1.5-2.4 1.2-1.3 2.6-2.2 4-2.6M26.1 67.1c2.4 1.1 4.5 3.5 5.7 5.7.8 1.4 1.4 2.9 1.8 4.6.2.8.3 1.6.4 2.5v.1c-2.3-1-4.4-2.7-5.9-4.8-1.5-2.4-2.7-5.6-2-8.1m17.3.4c1.4 2.8 1 6.7-.4 9.1-.5.9-1.2 1.8-2.1 2.5-.2.1-.6.5-1.1.8-.1-.2-.2-.4-.2-.6-1.2-2.8-1-6.4.4-9 .5-1 1.6-2.3 3.4-2.8M28.1 82.7c3 1.4 5.4 5 6.4 8.2.3 1 .6 2.1.7 3.2v.2c-1.6-.7-3.1-1.8-4.3-3.1-1.3-1.4-2.2-3.1-2.7-5-.2-.9-.3-1.7-.3-2.6.1-.1.2-.5.2-.9m15.5.3c1.2 2.6.6 6.2-.9 8.3-.4.6-1 1.2-1.5 1.6l-.2.2c-.1.1-.2.2-.4.3-.9-1.8-1.1-3.9-.6-5.9.2-.7.5-1.5.9-2.1.6-1.1 1.6-2 2.7-2.4m8.3-76.6c-2.9 0-6.7 2.3-8.5 5.5-3.6 6.5-.9 10.9-.9 10.9h.1c.8 0 4.9-.3 8.8-7.6 1-1.9 1.6-7.2.6-8.9 0 .1-.1.1-.1.1zm-15.7 12c-3 1.8-4.7 5-5 8.2-.3 3.5 1.2 6.4 4 8.6.1.1 1.6 1.2 1.6 1.2-.1-.1 1.5-2.3 1.6-2.5.7-1.2 1.2-2.4 1.5-3.6 1.2-3.9.9-9.8-3.7-11.9zm17.9 4c-2.5 0-4.8.9-6.7 2.3-2 1.4-3.7 3.3-4.9 5.5-.6 1.1-1.1 2.3-1.3 3.5 0 .2-.4 3.2-.3 3.2.5 0 1.2-.3 1.7-.5.9-.2 1.8-.5 2.7-.9 2.6-1.1 4.9-2.8 6.7-5 1.7-2.1 3.7-5.3 3.2-8.1h-1.1zM28.8 32.5c-3.8 3.1-3.9 9.2-1.7 13 1 1.7 2.4 3.1 4.1 4.1.5.3 1.1.8 1.5.8.3 0 .5-.1.7-.5.4-.8.6-1.7.8-2.6.9-3 .9-6.9-.6-9.8-.8-1.9-2.4-4.2-4.8-5zm19.7 4.2c-2.5 0-4.9 1.1-6.7 2.8-.7.7-1.4 1.4-2 2.2-2.1 3-2.8 6.5-2.2 10v.1s3-1.2 3.2-1.3c1.2-.6 2.4-1.3 3.4-2.3 2.8-2.6 5.8-7.6 4.4-11.6l-.1.1zm-24.1 12c-2.9 3.9-.9 10 2.1 13.2 1.4 1.5 3 2.6 4.9 3.3.4.2 1 .5 1.4.5.5 0 .4 0 .5-.6.1-.7 0-1.4 0-2.1 0-1.3-.1-2.6-.4-3.9-.7-4.1-3.8-9.4-8.5-10.4zm20.2 2.1c-2.4.2-4.6 1.5-6.2 3.4-.8.8-1.4 1.8-1.8 2.7-1.2 2.7-1.4 5.9-.5 8.8.2.6.2.8.5.8h.3c.4-.1.9-.4 1.3-.7 2.5-1.3 4.7-3.3 5.9-6 1.3-2.5 1.9-6.4.5-9zM25.2 65.1c-2 3.3-.4 8 1.6 10.9 2.1 3 5.3 5.3 8.9 6.2-.1-.8 0-1.7-.1-2.6s-.2-1.8-.5-2.7c-.4-1.8-1.1-3.4-2-5-1.6-2.9-4.5-6-7.9-6.8zm18.9.6c-2.5.4-4.4 1.8-5.5 3.8-1.8 3-1.9 7.2-.5 10.4.3.7.6 1.6 1.1 2.2.3 0 2.5-1.6 2.7-1.8 1-.8 1.8-1.8 2.5-2.9 1.8-3.4 2.1-8.6-.3-11.7zm-16.9 15c-.4 0-.7 2.6-.7 2.8 0 1.1.1 2.1.4 3.1.6 2.1 1.6 4 3 5.6 1.4 1.5 3.1 2.7 5 3.5.5.2 1 .4 1.5.5.2 0 .3.1.4.1.2 0 .1-.1.2-.6.1-.6 0-1.4-.1-2-.1-1.2-.4-2.3-.8-3.5-1.3-3.8-4.6-8.5-8.9-9.5zm17.1.5c-2 .3-3.7 1.6-4.8 3.4-.5.8-.9 1.7-1.1 2.6-.5 2.4-.3 5 .8 7.2.2.4.5 1.1.9 1.1.6 0 1.5-.9 2-1.3.7-.6 1.3-1.2 1.8-1.9 2.2-3.1 2.7-8.1.4-11.1zm-5.5 16.2c-.7 0-1.1.4-1 .8l1.3 14.4c0 .4.5.7 1 .7h.1c.6 0 1-.4.9-.8L39.8 98c-.1-.4-.5-.6-1-.6z" opacity=".2"/><path fill="#ffb300" d="M111.4 31.2c-3.2-1.2-7.3-1.9-11-.6-6.2 2.1-7.2 8.5-7.2 8.5s5.1 3.7 12-.1c3.8-2.1 6.2-6.1 6.2-7.8zM57.8 70c-.5-.3-1.8 2.6-1.9 3-.5 1.4-.7 2.8-.7 4.3-.1 5.6 3 10.7 7.6 13.7.7-2.3 1-4.6.9-7-.1-4.8-1.8-11.1-5.9-14zm11.5 9.3c-1.7 1.4-2.9 3.3-3.4 5.4-.6 2.5-.1 4.7.3 7.2 2.1-.3 4.4-1.4 5.9-2.8 3-2.7 4.9-7.7 3.7-11.6-2.4-.5-4.7.3-6.5 1.8zm-13.9 7.6c-.7-.4-1.7 4.3-1.7 4.6-.1 1.6.1 3.3.5 4.9.6 1.9 1.5 3.7 2.8 5.3.6.8 1.4 1.5 2.2 2.2.2.2 1.9 1.2 1.9 1.5.2-2 .5-3.9.4-5.9-.4-4.4-2.2-10.1-6.1-12.6zm10.5 7.7c-1.2 1.1-2 2.6-2.4 4.1-.5 2.1-.5 5.3.5 7.3.1.1 2.9-1.2 3.2-1.3 1.2-.7 2.2-1.8 2.9-3 .8-1.3 1.2-2.9 1.5-4.4.1-.8.2-1.5.2-2.3 0-.3-.1-2.3-.4-2.3-2.1-.4-4.1.5-5.5 1.9zm-1.1-40.3c-.2 0-.3 0-.6.2-2.3 1.5-3.8 4.6-4.2 7.3-.4 2.8.1 5.7 1.3 8.2.5 1.1 1.3 2.1 2.1 3.1.4.5.8 1 1.3 1.5.1.1 1.9-3.6 2.1-3.9.6-1.4.9-2.9 1.1-4.4.4-3.1.1-6.2-1.2-9-.3-.7-.6-1.3-1.1-1.9-.2-.6-.5-1-.8-1.1zm9.8 10.3c-2.6 1.2-4.5 3.4-5.7 6.1-.7 1.4-.8 5.2-.8 5.2.3-.3 1.7-.2 2.1-.2 1.2-.2 2.4-.3 3.5-.8 4-1.6 8.6-6.2 8.3-10.9 0-.4-2.8-.4-3.1-.4-.9 0-1.9.2-2.8.4-.6.2-1.1.3-1.5.6zm.7-23c-3.3.7-6.1 3.9-7.1 7.1-.7 2.1-.7 4.3-.2 6.4.3 1.1.7 2 1.3 3 .4.7.9 1.3 1.4 2 1-.6 1.9-1.9 2.7-2.8.8-1.1 1.6-2.2 2.2-3.5 1.7-3.6 2.5-8.9-.3-12.2zm8.8 11.2c-.9.2-1.8.6-2.7 1-3.4 1.7-5.5 4.3-6.5 7.9-.1.2-.1.3-.1.5 0-.1 3.1.1 3.3.1 1.5 0 3-.2 4.4-.7 2.1-.6 4-1.7 5.7-3 1.6-1.3 3.4-3.1 3.8-5.2-2.5-1.2-5.3-1.3-7.9-.6zm4.6-21.4c-3.4.1-6.3 1.9-7.7 4.2-4.1 6.7-.6 12-.5 12 0 0 5.1-.9 8.9-8.7.9-1.8.6-5.6-.7-7.5zm5.4 11.3c-8.3 1.9-9.8 7.2-9.8 7.2s5.5 2.8 12.6.2c2.6-1 6.5-3.9 7.4-5.9-2.2-1.3-6.1-2.4-10.2-1.5zm-30.6 79.6c-.6 0-1.2-.3-1.2-.7l-.8-13.7c0-.4.5-.7 1.1-.7s1.2.3 1.2.7l.8 13.7c.1.4-.4.7-1.1.7z"/><path fill="#424242" d="M104.7 31.5c1.6 0 3.2.3 4.8.7-.7 1.5-2.4 3.9-5 5.3-1.8 1-3.7 1.5-5.5 1.5-1.7 0-3.1-.5-4-.8.5-1.6 2-4.9 5.9-6.2 1.2-.3 2.4-.5 3.8-.5m-16.9 1.6c.6 1.6.7 4.1.2 5.2-2.4 4.8-5.2 6.7-6.8 7.5-.7-1.6-1.4-5.1 1.1-9.2.9-1.6 2.8-3.2 5.5-3.5M74.7 43.5c1.6 2.7.9 6.8-.5 9.6-.5 1.1-1.2 2.2-2 3.2l-.3.3c-.3.4-.6.8-.9 1.1-.1-.2-.2-.3-.3-.5-.5-.8-.9-1.7-1.1-2.6-.5-1.8-.4-3.8.1-5.5.7-2.2 2.6-4.7 5-5.6m22.5.5c1.8 0 3.4.4 4.7.8-1.4 1.5-3.8 3.2-5.6 3.9-1.8.7-3.7 1-5.6 1-1.8 0-3.3-.3-4.3-.6.9-1.4 3.2-3.7 7.9-4.8 1-.2 2-.3 2.9-.3m-9.8 9.9c.9 0 1.8.1 2.6.3-.5 1-1.4 2-2.8 3.1-1.5 1.2-3.3 2.2-5.2 2.8-1.3.4-2.6.6-3.8.6H76.9c1-2.5 2.8-4.3 5.2-5.5.8-.4 1.6-.7 2.4-.9 1-.3 1.9-.4 2.9-.4m-22.9 2.3c.3.4.6.9.9 1.5 1.1 2.4 1.4 5.2 1 8.2-.2 1.4-.5 2.8-1 4.1l-.9 1.8c-.7-.8-1.3-1.6-1.7-2.5-1.1-2.3-1.5-4.9-1.2-7.3.3-1.9 1.3-4.4 2.9-5.8m14.6 8.9h1.2c-.4 3.4-3.9 6.9-7.3 8.3-.9.4-1.9.5-3.1.7h-.2c.1-1.1.3-2.3.5-2.8.8-1.8 2.3-4.1 4.9-5.3.4-.2.8-.3 1.2-.5.7-.2 1.6-.3 2.4-.4h.4M58 72.2c2.9 2.9 4.1 8 4.2 11.8 0 1.6-.1 3-.3 4.3-3.2-2.9-5.2-6.9-5.1-11 0-1.3.2-2.6.6-3.8.1-.2.3-.8.6-1.3M74.3 79h.2c.5 3.2-1.3 7.1-3.5 9.1-1 .9-2.3 1.6-3.6 2-.3-1.7-.5-3.3-.1-4.9.4-1.7 1.5-3.4 2.9-4.6.9-.8 2.3-1.6 4.1-1.6M55.8 89.2c2.4 2.4 3.8 6.7 4 10.3.1 1 0 1.9-.1 2.9-.6-.5-1.1-1.1-1.6-1.7-1.1-1.4-2-3-2.5-4.7-.4-1.5-.6-2.9-.5-4.3.1-.4.4-1.5.7-2.5m14.4 4.9c0 .3.1.6.1.9 0 .6 0 1.3-.2 2-.3 1.6-.7 2.8-1.3 3.9-.6 1.1-1.4 1.9-2.3 2.4-.2.1-.9.4-1.5.7-.3-1.5-.3-3.5.1-4.9.3-1.2 1-2.4 2-3.3.8-1 2-1.6 3.1-1.7m34.5-64.2c-1.4 0-2.9.2-4.3.6-6.2 2.1-7.2 8.5-7.2 8.5s2.3 1.6 5.8 1.6c1.8 0 3.9-.4 6.3-1.7 3.8-2.1 6.1-6 6.2-7.7-2.1-.7-4.4-1.3-6.8-1.3zm-16 1.5c-3.4.1-6.3 1.9-7.7 4.2-4.1 6.7-.6 12-.5 12 0 0 5.1-.9 8.9-8.7.9-1.7.6-5.6-.7-7.5zM75.3 41.6c-3.3.7-6.1 3.9-7.1 7.1-.7 2.1-.7 4.3-.2 6.4.3 1.1.7 2 1.3 3 .4.7.9 1.3 1.4 2 1-.6 1.9-1.9 2.7-2.8.8-1.1 1.6-2.2 2.2-3.5 1.7-3.6 2.5-8.9-.3-12.2zm21.9.8c-1 0-2.1.1-3.2.3-8.3 1.9-9.8 7.2-9.8 7.2s2.5 1.3 6.4 1.3c1.8 0 3.9-.3 6.2-1.1 2.6-1 6.5-3.9 7.4-5.9-1.5-.9-4.1-1.8-7-1.8zm-9.8 9.9c-1.1 0-2.2.2-3.2.4-.9.2-1.8.6-2.7 1-3.4 1.7-5.5 4.3-6.5 7.9-.1.2-.1.3-.1.5h.2c.7 0 2.9.1 3.1.1h.1c1.4 0 2.9-.3 4.3-.7 2.1-.6 4-1.7 5.7-3 1.6-1.3 3.4-3.1 3.8-5.2-1.6-.6-3.2-1-4.7-1zm-22.7 2.1c-.2 0-.3.1-.5.2-2.3 1.5-3.8 4.6-4.2 7.3-.4 2.8.1 5.7 1.3 8.2.5 1.1 1.3 2.1 2.1 3.1.4.5.8 1 1.3 1.5.1 0 1.9-3.6 2.1-3.9.6-1.4.9-2.9 1.1-4.4.4-3.1.1-6.2-1.2-9-.3-.7-.6-1.3-1.1-1.9-.2-.7-.5-1.1-.9-1.1.1 0 0 0 0 0zm14.4 9.2h-.3c-.9 0-1.9.2-2.8.4-.5.1-1 .3-1.5.5-2.6 1.2-4.5 3.4-5.7 6.1-.7 1.4-.8 5.2-.8 5.2.3-.3 1.7-.2 2.1-.2 1.2-.2 2.4-.3 3.5-.8 4-1.6 8.6-6.2 8.3-10.9 0-.3-1.9-.3-2.8-.3zM57.7 70c-.5 0-1.7 2.7-1.8 3-.5 1.4-.7 2.8-.7 4.3-.1 5.6 3 10.7 7.6 13.7.7-2.3 1-4.6.9-7-.1-4.8-1.8-11.1-6-14zm16.6 7.4c-1.9 0-3.6.8-5.1 1.9-1.7 1.4-2.9 3.3-3.4 5.4-.6 2.5-.1 4.7.3 7.2 2.1-.3 4.4-1.4 5.9-2.8 3-2.7 4.9-7.7 3.7-11.6-.4-.1-.9-.1-1.4-.1zm-19 9.5c-.7 0-1.6 4.3-1.7 4.7-.1 1.6.1 3.3.5 4.9.6 1.9 1.5 3.7 2.8 5.3.6.8 1.4 1.5 2.2 2.2.2.2 1.9 1.2 1.9 1.5.2-2 .5-3.9.4-5.9-.3-4.5-2.1-10.2-6.1-12.7zm15.2 5.7c-1.8 0-3.4.8-4.6 2-1.2 1.1-2 2.6-2.4 4.1-.5 2.1-.5 5.3.5 7.3.3 0 2.9-1.2 3.2-1.3 1.2-.7 2.2-1.8 2.9-3 .8-1.3 1.2-2.9 1.5-4.4.1-.8.2-1.5.2-2.3 0-.3-.1-2.3-.4-2.3-.3-.1-.6-.1-.9-.1zm-7.9 14.6c-.6 0-1.1.3-1.1.7l.8 13.7c0 .4.6.7 1.2.7s1.1-.3 1.1-.7l-.8-13.7c0-.4-.6-.7-1.2-.7z" opacity=".2"/></svg><svg viewBox="0 0 128 128" id="1F33F" xmlns="http://www.w3.org/2000/svg"><linearGradient id="aga" x1="-404.921" x2="-357.009" y1="762.869" y2="828.159" gradientTransform="matrix(-1 0 0 1 -337.91 -713.89)" gradientUnits="userSpaceOnUse"><stop offset=".011" stop-color="#a1887f"/><stop offset="1" stop-color="#5d4037"/></linearGradient><path fill="url(#aga)" d="M21.6 112.1c0-.1-.1-.3-.1-.4-.1-.5-.2-1.1-.8-2.5-1.2-3.1-2.1-6.4-2.1-6.6l2.1-.5s.8 3.4 2 6.3c.2.4.3.8.4 1.1.1-.2.1-.3.2-.4.9-2.1 3.4-5.8 6.1-10 2.3-3.5 5-7.5 7.1-11.1 2.2-3.7 7.1-11.6 11.8-19-.6-4-1-10.7-.9-11h2s.9 4.3.9 7.8c4.5-7.2 8.4-13.2 8.4-13.3l2.8 1.8c-.1.2-5.8 9.1-11.5 18.2 4.6-.8 8-2.1 8.1-2.1l.8 2c-.2.1-4.6 1.8-10.4 2.6-3.8 6-7.4 11.8-9.1 14.8-2.2 3.7-4.8 7.7-7.2 11.3l-.2.3c1.9.1 5.3.2 7.8.3l-.1 2.2c-3.3-.1-8.4-.4-9.1-.4-2 3-3.6 5.6-4.3 7.1-1.7 3.8-9.1 13.2-9.4 13.6l-2.6-2c1.7-2.2 5.1-6.7 7.3-10.1z"/><linearGradient id="agb" x1="-433.864" x2="-393.662" y1="744.373" y2="744.373" gradientTransform="matrix(-1 0 0 1 -337.91 -713.89)" gradientUnits="userSpaceOnUse"><stop offset=".005" stop-color="#689f38"/><stop offset="1" stop-color="#9ccc65"/></linearGradient><path fill="url(#agb)" d="M95.7 4.1s1.7 13-3.7 25.4c-6.2 14.3-17.1 25.8-30.1 27.3S59.4 34.1 67 23.5C72.9 15.3 83.2 7 95.7 4.1z"/><path fill="#424242" d="M92.6 8.4c.1 4.5-.4 12.3-3.7 19.8-6.3 14.6-16.6 24.1-27.5 25.4h-.7c-1.1 0-1.3-.3-1.4-.5-1.9-3.8 3.4-18 10.3-27.6 5.7-7.9 14.1-14.1 23-17.1m3.1-4.3C83.2 7 72.9 15.3 67 23.5c-7.4 10.4-17.5 33.4-6.2 33.4.3 0 .7 0 1.1-.1 13-1.5 23.9-13 30.1-27.3 5.3-12.3 3.7-25.4 3.7-25.4z" opacity=".2"/><linearGradient id="agc" x1="-393.017" x2="-367.199" y1="745.54" y2="745.54" gradientTransform="matrix(-1 0 0 1 -337.91 -713.89)" gradientUnits="userSpaceOnUse"><stop offset=".005" stop-color="#689f38"/><stop offset="1" stop-color="#9ccc65"/></linearGradient><path fill="url(#agc)" d="M29.6 4s-4.3 55.3 19.1 55.3c9.9 0 11.6-39.1-19.1-55.3z"/><path fill="#424242" d="M32.6 9.6c8.9 6.1 13.6 13.9 16 19.8 3.7 9.1 3.8 17.4 2.6 22.1-.8 3.3-2 4.3-2.5 4.3-2.9 0-5.4-1.1-7.5-3.4-7.8-8.3-9-30.3-8.6-42.8m-3-5.6s-4.3 55.3 19.1 55.3c9.9 0 11.6-39.1-19.1-55.3z" opacity=".2"/><linearGradient id="agd" x1="-461.81" x2="-395.827" y1="780.585" y2="780.585" gradientTransform="matrix(-1 0 0 1 -337.91 -713.89)" gradientUnits="userSpaceOnUse"><stop offset=".005" stop-color="#689f38"/><stop offset="1" stop-color="#9ccc65"/></linearGradient><path fill="url(#agd)" d="M123.9 58.3s-9.8 12.6-19.7 17.2c-14.9 7.1-32.9 9.5-44.1 1.2S82.4 38 123.9 58.3z"/><path fill="#424242" d="M94.7 54.8c7.6 0 16.3 1.6 23.9 4.8-3.5 3.9-9.7 10.2-15.8 13.1-8.4 3.9-17.2 6.1-24.8 6.1-6.5 0-11.9-1.5-16-4.6-.4-.3-1.3-.9-.6-3.1 2.3-6.7 14.7-16.3 33.3-16.3zm1-3.3c-26.9 0-44 19-35.6 25.3C65 80.4 71.3 82 78 82c8.5 0 17.8-2.5 26.2-6.4 9.9-4.7 19.7-17.2 19.7-17.2-10.1-5-19.6-6.9-28.2-6.9z" opacity=".2"/><linearGradient id="age" x1="-533.74" x2="-467.032" y1="751.401" y2="751.401" gradientTransform="scale(-1 1) rotate(-12.339 -3270.123 -1557.943)" gradientUnits="userSpaceOnUse"><stop offset=".005" stop-color="#689f38"/><stop offset="1" stop-color="#9ccc65"/></linearGradient><path fill="url(#age)" d="M105.5 103.9s-12.5 9.4-23 12.5c-17.6 5.2-48.3 3.4-45-13.8 2.2-11.4 43.8-19.1 68 1.3z"/><path fill="#424242" d="M67.2 94.5c7.5 0 21 1.3 32.7 9.3-4.3 2.9-11.8 7.5-18.4 9.5-5.2 1.6-11.8 2.5-18 2.5-10.2 0-18.3-2.3-21.5-6.2-1.4-1.7-1.9-3.8-1.4-6.3.8-3.7 11.2-8.8 26.6-8.8m0-3.3c-15.5 0-28.6 5.1-29.8 11.4C35.2 114.5 49 119 63.6 119c6.6 0 13.4-.9 18.9-2.6 10.5-3.1 23-12.5 23-12.5C94.6 94.7 80 91.2 67.2 91.2z" opacity=".2"/><linearGradient id="agf" x1="-344.718" x2="-317.865" y1="796.742" y2="796.742" gradientTransform="scale(-1 1) rotate(3.767 10900.38 5206.743)" gradientUnits="userSpaceOnUse"><stop offset=".005" stop-color="#689f38"/><stop offset="1" stop-color="#9ccc65"/></linearGradient><path fill="url(#agf)" d="M13.9 33.5S6.5 47.2 5.2 57.7c-2.1 15.8-1.4 36.4 9.3 44 10.6 7.6 20.4-14.2 15.4-36.4-4-17.9-8.6-20.7-16-31.8z"/><path fill="#424242" d="M14.5 41.3l.6.9C20 48.7 23.1 53 26 66.1c1.4 6.2 1.6 12.6.7 18.6-.8 5.2-2.5 9.7-4.6 12.4-.6.8-1.9 2.2-3.3 2.2-.6 0-1.3-.3-2-.8C8 92.3 7 73.6 9.1 58.2c.7-5.5 3.3-12.2 5.4-16.9m-.6-7.8S6.5 47.2 5.2 57.7c-2.1 15.9-1.4 36.4 9.3 44 1.5 1 2.9 1.5 4.3 1.5 8.7 0 15.3-18.8 11.1-37.9-4-17.9-8.6-20.7-16-31.8z" opacity=".2"/><path fill="#689f38" d="M47.9 57.9s-.1-.8-.2-2.2c-.2-1.4-.3-3.4-.7-5.7-.3-2.4-.8-5.1-1.3-8-.2-.7-.3-1.5-.5-2.2-.2-.8-.4-1.5-.5-2.3-.4-1.5-.8-3.1-1.3-4.6l-1.5-4.5c-.5-1.5-1-2.9-1.6-4.3-1.1-2.8-2.3-5.3-3.4-7.5s-2.1-3.9-2.9-5c-.4-.6-.7-1-.9-1.3s-.3-.5-.3-.5v-.1h.1l.4.4c.2.3.6.7 1 1.3.9 1.1 2 2.8 3.2 4.9s2.5 4.6 3.8 7.4c.6 1.4 1.2 2.8 1.8 4.3s1.1 3 1.7 4.5c.5 1.5 1 3.1 1.5 4.6.2.8.4 1.5.6 2.3.2.8.4 1.5.5 2.2.7 3 1.1 5.8 1.4 8.2.2 2.4.3 4.5.3 5.9s-.1 2.2-.1 2.2c0 .3-.3.5-.6.5s-.5-.2-.5-.5zM18.6 99.4v-9.2-4.4-5c0-3.4-.2-7.1-.4-10.8-.2-3.7-.5-7.4-.7-10.8-.2-3.5-.5-6.7-.9-9.4s-.8-5-1.2-6.6c-.3-1.6-.6-2.5-.6-2.5 0-.1 0-.1.1-.1s.1 0 .1.1l.8 2.4c.5 1.6 1.1 3.8 1.6 6.5s1 6 1.4 9.4c.4 3.5.8 7.1 1.1 10.8.3 3.7.6 7.4.8 10.9.1 1.7.1 3.4.1 5v4.5c0 1.4-.1 2.7-.2 3.8-.1 1.1-.2 2.1-.3 2.9-.2 1.6-.3 2.6-.3 2.6-.1.4-.4.6-.8.5-.3 0-.6-.2-.6-.6zM57.7 55.7s.3-.8 1-2.3c.6-1.5 1.6-3.5 2.9-5.9 1.3-2.4 2.8-5.2 4.6-8.1.9-1.5 1.8-2.9 2.8-4.4s2-3 3.1-4.5c2.1-3 4.3-5.8 6.4-8.5 2.2-2.6 4.2-5 6.2-6.9 1.9-1.9 3.6-3.4 4.9-4.4.6-.5 1.1-.9 1.5-1.1.3-.2.5-.4.5-.4h.1v.1s-.7.5-1.9 1.6-2.8 2.6-4.6 4.6c-1.8 2-3.8 4.4-5.8 7.1-1 1.4-2 2.8-3.1 4.2-1 1.4-2.1 2.9-3.1 4.4-1 1.5-2 3-2.9 4.5s-1.8 3-2.7 4.4c-1.7 2.9-3.2 5.6-4.6 8-1.3 2.3-2.4 4.3-3.2 5.7S58.6 56 58.6 56c-.2.3-.5.4-.8.2-.1 0-.2-.3-.1-.5zM59.8 71.2s.8-.5 2.2-1.3c.7-.4 1.6-.9 2.6-1.4s2.2-1.1 3.5-1.6 2.7-1.1 4.2-1.7 3.1-1.1 4.8-1.6c.8-.2 1.7-.5 2.6-.7s1.8-.5 2.7-.6l2.7-.6c.9-.2 1.8-.3 2.8-.5 1.8-.3 3.7-.5 5.5-.8 1.8-.2 3.6-.3 5.4-.5 3.5-.2 6.8-.3 9.6-.2 2.8 0 5.1.2 6.8.2s2.6.1 2.6.1c.1 0 .1 0 .1.1s0 .1-.1.1c0 0-3.7.1-9.3.2-2.8.1-6 .2-9.5.6-1.7.2-3.5.4-5.3.7l-5.4.9c-.9.2-1.8.3-2.7.5l-2.7.6c-.9.2-1.8.4-2.6.7-.9.2-1.7.5-2.5.8-1.7.5-3.2 1.1-4.7 1.6-1.5.6-2.9 1.1-4.2 1.6-2.6 1-4.7 2-6.2 2.6-1.5.7-2.3 1.1-2.3 1.1-.3.1-.6 0-.7-.3-.2-.2-.1-.5.1-.6zM41.2 102.7s.9-.3 2.5-.7c.8-.2 1.8-.4 2.9-.6 1.1-.2 2.4-.5 3.8-.7 1.4-.2 2.9-.4 4.5-.5 1.6-.2 3.3-.3 5-.3s3.5-.1 5.4-.1c1.8 0 3.7.1 5.5.1 3.7.1 7.4.3 10.9.6 1.7.2 3.4.3 5 .5s3.1.4 4.4.7c2.7.5 5 1.1 6.5 1.6.8.3 1.4.5 1.8.7s.6.2.6.2l.1.1-.1.1s-.2-.1-.6-.2-1-.3-1.8-.5c-1.6-.4-3.8-.9-6.5-1.3-2.7-.3-5.9-.6-9.4-.8s-7.1-.2-10.8-.2c-3.7-.1-7.3.1-10.8.3-1.7.1-3.4.3-4.9.4-1.6.2-3 .3-4.4.5-2.7.3-5 .7-6.6.9-1.6.2-2.5.4-2.5.4-.3.1-.6-.2-.6-.5-.4-.4-.2-.7.1-.7z"/></svg><svg viewBox="0 0 128 128" id="1F340" xmlns="http://www.w3.org/2000/svg"><linearGradient id="aha" x1="10.2" x2="107.718" y1="729.886" y2="827.406" gradientTransform="translate(0 -712.614)" gradientUnits="userSpaceOnUse"><stop offset="0" stop-color="#9ccc65"/><stop offset=".008" stop-color="#9bcb64"/><stop offset=".528" stop-color="#76ab44"/><stop offset=".802" stop-color="#689f38"/></linearGradient><path fill="url(#aha)" d="M107.5 32.6c-2.4-.6-4-3-3.7-5.4 1.3-10.1-8-14.2-10.4-15-.3-.1-.7-.2-1-.2-17-2.6-20.7 21.6-21.4 34.2-.2 2.9-2.8 5-5.6 4.6-.4 0-.8-.1-1.2-.2-3-.5-4.7-3.6-3.8-6.5 4-12 9.5-35.8-7.2-39.8-.3-.1-.7-.1-1-.1-2.5-.1-12.6.3-15.2 10.1-.6 2.4-3 4-5.4 3.7-10.1-1.3-14.2 8.1-15 10.4-.1.3-.2.6-.2 1-2.3 16.1 19.2 20.3 32.2 21.3 2.7.2 4.8 2.5 4.6 5.2v.5c-.3 3.1-3.4 5.1-6.4 4.2-12.4-3.9-34.1-8-37.9 7.8-.1.3-.1.7-.1 1-.1 2.5.3 12.7 10.1 15.2 2.4.6 4 3 3.7 5.4-1.3 10.1 8 14.2 10.4 15 .3.1.7.2 1 .2C49.7 107.5 54.1 87 55.2 74c.2-2.2 1.8-3.9 3.8-4.4-.5 5.9-3.1 27.9-18.9 39.4-.7.5-1.4.9-2.1 1.4-.7.4-1.3.8-2 1.2-1.3.8-2.5 1.2-3.6 1.7-1.1.4-2.1.8-2.9 1-1.6.5-2.6.7-2.6.7l-.3.1c-.3.1-.7.2-1 .4-1.4.8-2.5 2.9-2.3 4.5.4 3 3.4 4.1 6.1 3.7 0 0 2.9-.3 4.9-1.1C61.5 113.5 62 77.4 63.5 70c1.6 1.2 2.1 3.9 1.5 5.9-3.8 12.6-7.3 33.2 8.1 36.9.3.1.7.1 1 .1 2.5.1 12.6-.3 15.2-10.1.6-2.4 3-4 5.4-3.7 10.1 1.3 14.2-8 15-10.4.1-.3.2-.7.2-1 2.4-16.6-20.5-20.5-33.4-21.4-3.1-.2-5.3-3.2-4.5-6.3.1-.2.1-.5.2-.7.8-2.6 3.7-4 6.2-3.1 12.2 4 35 8.8 38.9-7.5.1-.3.1-.7.1-1 .3-2.4 0-12.6-9.9-15.1z"/><path fill="#424242" d="M51.8 7.3h.4c.1 0 .3 0 .4.1 3.2.8 5.5 2.5 7 5.2 4.7 8.5.2 24.4-2 30.8-.7 2.2-.5 4.6.7 6.6s3.1 3.4 5.4 3.8c.4.1.9.2 1.3.2.3 0 .7.1 1 .1 4.2 0 7.8-3.3 8-7.5.2-4.7 1.1-13.6 3.9-20.8 2.9-7.3 6.8-10.9 12.1-10.9.6 0 1.3.1 1.9.1.1 0 .3.1.4.1 1 .4 3.4 1.4 5.5 3.4 2.4 2.3 3.4 5.1 2.9 8.4-.5 4 2 7.7 5.9 8.7 7.6 2 7.9 9.8 7.9 12.2 0 .1 0 .3-.1.4-.5 2.2-2.2 9.1-15 9.1-7.1 0-14.8-2-20-3.7-.8-.3-1.6-.4-2.5-.4-3.5 0-6.5 2.2-7.6 5.5-.1.3-.2.5-.2.8-.7 2.3-.2 4.8 1.2 6.7 1.4 2 3.6 3.2 6 3.4 13.9.9 24.2 4.4 28.4 9.5 1.9 2.4 2.6 5.1 2.2 8.4 0 .1-.1.3-.1.4-.7 2-3.7 8.5-10.3 8.5-.5 0-1 0-1.5-.1-.3 0-.7-.1-1-.1-3.6 0-6.8 2.5-7.7 6-.6 2.4-3 7.9-11.8 7.9h-.4c-.1 0-.3 0-.4-.1-3.2-.8-5.5-2.4-6.9-5-4.3-7.5-1.2-20.8 1-28.1.9-2.9.3-7-2.5-9.2-.5-.4-1.2-.6-1.8-.6-.4 0-.7.1-1.1.2-.4.2-.8.4-1.1.7-.1-.2-.3-.4-.5-.5-.5-.5-1.2-.7-1.9-.7-.2 0-.5 0-.7.1-3.3.8-5.7 3.7-6 7.1-.5 5.4-1.6 13.2-4.4 19.4-2.8 6.2-6.6 9.3-11.5 9.3-.6 0-1.3-.1-1.9-.1-.1 0-.3-.1-.4-.1-1-.3-3.4-1.4-5.5-3.4-2.4-2.3-3.4-5.1-2.9-8.4.5-4-2-7.7-5.9-8.7-7.6-1.9-7.9-9.8-7.9-12.2 0-.1 0-.3.1-.4.5-2.2 2.2-9.1 15-9.1 6.7 0 14.1 1.9 19 3.4.8.2 1.6.4 2.4.4 4.1 0 7.5-3.1 7.9-7.1v-.5c.3-4.3-3-8.1-7.4-8.4-7.8-1-21.8-3-27.3-9.9-1.9-2.3-2.6-5.1-2.1-8.4 0-.1 0-.2.1-.4.7-2 3.6-8.5 10.4-8.5.5 0 1 0 1.5.1.3 0 .7.1 1 .1 3.6 0 6.8-2.5 7.7-6 .5-2.3 2.9-7.8 11.7-7.8m4.5 85.3c-3.3 11.1-9.8 22.8-23 27.3h-.1c-1.3.5-3.5.8-4.2.9h-.1c-.2 0-.5.1-.7.1-.8 0-1.9-.2-2-1.2-.1-.4.4-1.3.8-1.5.1-.1.2-.1.3-.1l.3-.1 2.6-.7h.1c.7-.2 1.5-.5 2.4-.8l.6-.2c.1 0 .2-.1.2-.1.3-.1.6-.3.9-.4.9-.4 1.8-.8 2.9-1.4.7-.3 1.4-.8 2.2-1.3.2-.1.3-.2.5-.3.5-.3 1.1-.7 1.7-1.2 7.1-5.2 11.6-12.1 14.6-19M51.8 4.3c-3.1 0-12.3.8-14.7 10.1-.6 2.2-2.6 3.7-4.8 3.7h-.6c-.7-.1-1.3-.1-1.9-.1-8.8 0-12.4 8.3-13.2 10.5-.1.3-.2.6-.2 1C14 45.6 35.6 49.7 48.6 50.7c2.7.2 4.8 2.5 4.6 5.2v.5c-.2 2.6-2.5 4.4-4.9 4.4-.5 0-1-.1-1.5-.2-5.6-1.8-13.1-3.6-20-3.6-8.3 0-15.8 2.7-17.9 11.4-.1.3-.1.7-.1 1-.1 2.5.2 12.7 10.1 15.2 2.4.6 4 3 3.7 5.4-1.3 10.1 8 14.2 10.4 15 .3.1.7.2 1 .2.8.1 1.6.2 2.3.2 13.8 0 17.8-19 18.9-31.4.2-2.2 1.8-3.9 3.8-4.4-.5 5.9-3.1 27.9-18.9 39.5-.7.5-1.4.9-2.1 1.4-.7.4-1.3.8-2 1.2-1.3.8-2.5 1.2-3.6 1.7-1.1.4-2.1.8-2.9 1-1.6.5-2.6.7-2.6.7l-.3.1c-.3.1-.7.2-1 .4-1.4.8-2.5 2.9-2.3 4.5.4 2.6 2.6 3.7 5 3.7.4 0 .8 0 1.1-.1 0 0 2.9-.3 4.9-1.1C61.5 113.5 62 77.4 63.5 70c1.6 1.2 2.1 3.9 1.5 5.9-3.8 12.6-7.3 33.2 8.1 36.9.3.1.7.1 1 .1h.4c3.1 0 12.3-.8 14.7-10.1.6-2.2 2.6-3.7 4.8-3.7h.6c.6.1 1.3.1 1.9.1 8.7 0 12.4-8.3 13.2-10.5.1-.3.2-.7.2-1 2.4-16.6-20.5-20.5-33.4-21.4-3.1-.2-5.3-3.2-4.5-6.3.1-.2.1-.5.2-.7.7-2.1 2.6-3.4 4.7-3.4.5 0 1 .1 1.6.2 5.7 1.8 13.6 3.9 20.9 3.9 8.4 0 15.8-2.7 17.9-11.4.1-.3.1-.7.1-1 .1-2.5-.3-12.6-10.1-15.2-2.4-.6-4-3-3.7-5.4 1.3-10.1-8-14.2-10.4-15-.3-.1-.7-.2-1-.2-.8-.1-1.6-.2-2.3-.2-15 0-18.4 22.5-19.1 34.5-.1 2.7-2.4 4.7-5 4.7h-.6c-.4 0-.8-.1-1.2-.2-3-.5-4.7-3.6-3.8-6.5 4-12 9.5-35.8-7.2-39.8-.3-.1-.7-.1-1-.1.1.1 0 .1-.2.1z" opacity=".2"/></svg><svg viewBox="0 0 128 128" id="1F341" xmlns="http://www.w3.org/2000/svg"><linearGradient id="aia" x1="22.566" x2="111.912" y1="719.657" y2="825.508" gradientTransform="translate(0 -712.614)" gradientUnits="userSpaceOnUse"><stop offset=".006" stop-color="#ffcc80"/><stop offset=".999" stop-color="#f57c00"/></linearGradient><path fill="url(#aia)" d="M117.7 37.3h-.1v-.2l-.1.2c-1.3.3-10.2 3.8-13.5 5l.7-5.5s-6.9 3.3-11.4 7.4c-.7.6-1.3.2-1.2-.6L91 39.3s-1.1-2.6-7.9 14.4c-.8 2-2 3.8-3.5 5.2 0 .2-.1.2-.3.3-1.4 1.1-3.4.2-3.7-1.8-.4-2.7.3-5.6 1.7-7.9 9.4-15.3 7.3-25.6 7.3-25.6l-7.1 4.7c-.4.5-1.1.1-1.1-.5-.1-6.7-2.1-16.2-2.1-16.2l-4.7 4.6C68.1 13 64.3 5.7 63.2 3.8c-1.1 1.9-4.9 9.2-6.5 12.6L52 11.8s-2 9.6-2.1 16.2c0 .6-.7.9-1 .5l-7.1-4.7s-2.1 10.3 7.3 25.6c1.4 2.3 2.1 5.2 1.7 7.9-.3 2-2.2 2.9-3.7 1.8-.1-.2-.3-.2-.3-.3-1.6-1.4-2.8-3.2-3.5-5.2-6.8-17-7.9-14.4-7.9-14.4l-1 4.4c.1.8-.5 1.2-1.2.6-4.5-4.1-11.4-7.4-11.4-7.4l.6 5.5c-3.3-1.2-12.2-4.7-13.5-5l-.1-.2v.2l.1.2c.5 1.4 5 11.1 6.7 14.7l-5.4.6s5.4 7.6 9.8 11.8c.4.5.3 1.1-.3.9l-5.4 1.7s-.8 4.1 14.3 7c2.2.5 4.4 1.8 6.2 3.8 1.3 1.5.7 4.1-1.2 4.6-2.4.8-5.1 1.5-7.9 2 0 0-5.2 1.7-5.9 1.7 6 5.3 12.4 10.1 20.3 9.2 1.4-.1 2.7-.4 4.1-.1.2.1.5.1.6.4.3.5-.2 1.2-.7 1.5-1.1.8-2.2 1.5-3.3 2.2 17.7 3.9 16.9-8 21.3-10 0 1.7-.1 3.4-.1 5.1-.1 9.2.1 18.5 1.4 27.6.1.6 0 1.5.6 1.8.6.4 2.3.1 2.7-.7.3-.7-.1-2-.3-2.8-.2-1.1-.4-2.3-.6-3.4-.7-4.5-1.1-9-1.4-13.6-.3-4.7-.5-9.4-.6-14.1 4.8 1.5 3.4 14.2 21.6 10.2-1.1-.8-2.2-1.5-3.3-2.2-.5-.3-1-.9-.7-1.5.1-.2.4-.3.6-.4 1.3-.3 2.7 0 4.1.1 7.9.8 14.3-3.9 20.3-9.2-.7 0-5.9-1.7-5.9-1.7-2.8-.5-5.5-1.2-7.9-2-1.8-.5-2.5-3-1.2-4.6 1.7-2 3.9-3.3 6.2-3.8 15.1-2.9 14.3-7 14.3-7l-5.4-1.7c-.5.2-.7-.5-.3-.9 4.4-4.2 9.8-11.8 9.8-11.8l-5.4-.6c1.7-3.6 6.2-13.4 6.7-14.7l.4-.3z"/><path fill="#424242" d="M63.2 10.2c1.4 2.6 2.9 5.7 3.8 7.5.4.9 1.2 1.5 2.2 1.7h.6c.8 0 1.5-.3 2.1-.8l.7-.6c.5 3.1 1 7 1.1 10.2 0 2 1.6 3.6 3.6 3.6.8 0 1.7-.3 2.3-.9l2.2-1.5c-.5 4.1-2 10.6-6.9 18.5-1.8 2.9-2.6 6.5-2.1 9.9.4 2.8 2.6 4.9 5.3 4.9 1.1 0 2.2-.4 3.1-1 .1-.1.2-.1.2-.2l.6-.6c1.7-1.6 3-3.6 3.9-5.9 1.6-4 2.8-6.8 3.8-8.8.1.1.1.2.2.2.7.8 1.7 1.3 2.7 1.3s1.9-.4 2.6-1.1c1.7-1.5 3.8-3 5.7-4.2 0 .9.4 1.8 1.1 2.4.5.4 1.2.6 1.9.6.3 0 .7-.1 1-.2 1-.4 2.5-1 4.2-1.6.8-.3 1.8-.7 2.9-1.1-1.4 3-3 6.5-3.9 8.5-.4.9-.4 1.9.1 2.7s1.3 1.4 2.3 1.5h.2c-1.8 2.4-4.2 5.2-6.3 7.3l-.2.2c-1 1.1-1.2 2.7-.7 4 .5 1.1 1.6 1.8 2.8 1.9l.2.1c-1.8.8-4.6 1.8-9.2 2.7-2.9.6-5.7 2.3-7.8 4.8-1.3 1.5-1.8 3.7-1.1 5.7.6 1.8 2 3.2 3.7 3.7 2.9.9 5.6 1.6 8 2 .1 0 .2.1.3.1-4.2 3.2-8 5-12.2 5-.5 0-1 0-1.5-.1-.2 0-.5-.1-.7-.1-.7-.1-1.5-.2-2.3-.2-.7 0-1.4.1-2 .2-1.4.3-2.1 1.1-2.5 1.8-.6.9-.7 2-.3 3-5.4-.2-7-2.9-8.8-5.8-1.2-2-2.5-4.2-5-5-.3-.1-.6-.1-.9-.1-.4 0-.8.1-1.1.2-.2-.1-.4-.1-.7-.1-.4 0-.8.1-1.2.3-2.1.9-3.2 2.8-4.3 4.7-1.7 2.9-3.4 5.7-8.8 5.8.3-1 .2-2.1-.3-3-.4-.6-1.1-1.4-2.5-1.8-.6-.2-1.3-.2-2-.2-.8 0-1.6.1-2.3.2-.2 0-.5.1-.7.1-.5.1-1 .1-1.5.1-4.3 0-8.1-1.8-12.2-5 .1 0 .2-.1.3-.1 2.4-.4 5.1-1.1 8-2 1.8-.5 3.2-1.8 3.7-3.7.6-2 .2-4.2-1.1-5.7-2.1-2.5-4.9-4.2-7.9-4.8-4.6-.9-7.5-1.8-9.2-2.6l.2-.1c1.2-.1 2.3-.8 2.8-1.9.6-1.3.3-2.8-.6-4l-.2-.2c-2.1-2-4.5-4.9-6.4-7.3h.2c1-.1 1.8-.7 2.3-1.5s.5-1.9.1-2.7c-.9-2-2.5-5.4-3.9-8.5 1 .4 2 .8 2.9 1.1 1.7.6 3.2 1.2 4.2 1.6.3.1.7.2 1 .2.7 0 1.3-.2 1.9-.6.7-.6 1.1-1.5 1.1-2.4 1.9 1.2 4 2.6 5.7 4.2.8.7 1.7 1.1 2.7 1.1s2-.5 2.7-1.3c.1-.1.1-.2.2-.2.9 2 2.2 4.8 3.8 8.8.9 2.3 2.3 4.4 4 6l.6.6c.1.1.2.1.2.2.9.7 2 1 3.1 1 2.7 0 4.9-2 5.3-4.8.5-3.4-.3-7-2.1-9.9-4.9-7.9-6.5-14.4-6.9-18.5l2.2 1.5c.7.5 1.5.9 2.3.9 2 0 3.6-1.6 3.6-3.6.1-3.2.6-7.1 1.1-10.2l.7.6c.6.5 1.3.8 2.1.8h.5c1-.2 1.8-.8 2.2-1.7.3-2.2 1.9-5.2 3.2-7.8m0-6.4c-1.1 1.9-4.9 9.2-6.5 12.6L52 11.9s-2 9.6-2.1 16.2c0 .4-.3.7-.6.7-.2 0-.3-.1-.5-.2l-7.1-4.7S39.6 34.2 49 49.5c1.4 2.3 2.1 5.2 1.7 7.9-.2 1.4-1.2 2.3-2.3 2.3-.5 0-.9-.1-1.3-.5-.1-.2-.3-.2-.3-.3-1.6-1.4-2.8-3.2-3.5-5.2-5.2-13-7.1-14.6-7.6-14.6-.2 0-.2.1-.2.1l-1 4.4c.1.5-.2.9-.6.9-.2 0-.4-.1-.6-.3-4.5-4.1-11.4-7.4-11.4-7.4l.6 5.5c-3.3-1.2-12.2-4.7-13.5-5l-.1-.2v.2h-.1l.1.2c.5 1.4 5 11.1 6.7 14.7l-5.4.6s5.4 7.6 9.8 11.8c.4.4.3.9-.1.9h-.1l-5.4 1.7s-.8 4.1 14.3 7c2.2.5 4.4 1.8 6.2 3.8 1.3 1.5.7 4.1-1.2 4.6-2.4.8-5.1 1.5-7.9 2 0 0-5.2 1.7-5.9 1.7 5.6 4.9 11.4 9.3 18.5 9.3.6 0 1.2 0 1.8-.1.9-.1 1.8-.2 2.7-.2.5 0 .9 0 1.3.1.2.1.5.1.6.4.3.5-.2 1.2-.7 1.5-1.1.8-2.2 1.5-3.3 2.2 2.5.5 4.5.8 6.4.8 11.2 0 11.2-9.1 14.9-10.8 0 1.7-.1 3.4-.1 5.1-.1 9.2.1 18.5 1.4 27.6.1.6 0 1.5.6 1.8.2.1.4.2.8.2.7 0 1.7-.3 1.9-.8.3-.7-.1-2-.3-2.8-.2-1.1-.4-2.3-.6-3.4-.7-4.5-1.1-9-1.4-13.6-.3-4.7-.5-9.4-.6-14.1 4.1 1.3 3.7 10.9 15.3 10.9 1.8 0 3.9-.2 6.4-.8-1.1-.8-2.2-1.5-3.3-2.2-.5-.3-1-.9-.7-1.5.1-.2.4-.3.6-.4.4-.1.9-.1 1.3-.1.9 0 1.8.2 2.7.2.6.1 1.2.1 1.8.1 7.1 0 13-4.4 18.5-9.3-.7 0-5.9-1.7-5.9-1.7-2.8-.5-5.5-1.2-7.9-2-1.8-.5-2.5-3-1.2-4.6 1.7-2 3.9-3.3 6.2-3.8 15.1-2.9 14.3-7 14.3-7l-5.4-1.7h-.2c-.4 0-.5-.5-.1-.9 4.4-4.2 9.8-11.8 9.8-11.8l-5.4-.6c1.7-3.6 6.2-13.4 6.7-14.7l.1-.2h-.1v-.2l-.1.2c-1.3.3-10.2 3.8-13.5 5l.7-5.5s-6.9 3.3-11.4 7.4c-.2.2-.4.3-.6.3-.4 0-.7-.4-.6-.9l-.8-4.4s-.1-.1-.2-.1c-.6 0-2.4 1.5-7.6 14.6-.8 2-2 3.8-3.5 5.2 0 .2-.1.2-.3.3-.4.3-.9.5-1.3.5-1.1 0-2.2-.9-2.3-2.3-.4-2.7.3-5.6 1.7-7.9C86.9 34.3 84.8 24 84.8 24l-7.1 4.7c-.1.1-.3.2-.4.2-.3 0-.6-.3-.6-.7-.1-6.7-2.1-16.2-2.1-16.2l-4.7 4.6C68.2 13 64.3 5.8 63.2 3.8z" opacity=".2"/><g fill="#424242" opacity=".3"><path d="M63.2 28.6c1 15.9.9 32 .5 47.9-.1 3.1-.2 6.1-.4 9.2-2-15.8-1.9-32.1-.9-48 .2-3 .8-6.1.8-9.1zM29.8 57.1c4.9 4.8 9.9 9.7 15.2 14.1 5.3 4.5 10.9 8.5 16.5 12.5-6.5-2.7-12.4-6.5-17.8-11-3-2.5-5.8-5.3-8.3-8.2-1.1-1.3-2.2-2.7-3.2-4-.9-1.1-1.5-2.5-2.4-3.4zM66 83.9c5.7-4.3 11.4-8.5 16.6-13.5s9.5-10.6 14-16.1c-3 6.6-7.4 12.5-12.6 17.6-2.9 2.8-6.1 5.4-9.5 7.6-1.5 1-3 1.9-4.6 2.7-.4.1-3.9 1.5-3.9 1.7zM41.2 88.7c3-.7 6.1-1.2 9.1-1.8l5.1-1.2c1.4-.3 2.9-.6 4-1.5-1.3 2.8-5.8 4-8.5 4.6-1.6.3-3.2.5-4.8.5-1 0-1.9-.1-2.9-.2-.2-.1-1.8-.2-2-.4zM67.4 85.1c4.3 1 8.5 2 12.9 2.5 4.2.5 8.4.6 12.6.6-4.3.8-8.7.9-13 .4-2.4-.3-4.8-.8-7.1-1.5-1-.3-2-.6-3-1-.2 0-2.3-1-2.4-1z"/></g></svg><svg viewBox="0 0 128 128" id="1F342" xmlns="http://www.w3.org/2000/svg"><linearGradient id="aja" x1="15.685" x2="55.132" y1="11.726" y2="104.47" gradientUnits="userSpaceOnUse"><stop offset=".006" stop-color="#FFCC80"/><stop offset=".999" stop-color="#F57C00"/></linearGradient><path fill="url(#aja)" d="M12.82 47.83c-11.5 23.8.17 53.92.44 55.3-.35.5 46.25-1.43 56.12-35.07 8.18-30.35-13.93-50.26-17.9-52.99-.05-2.71-.17-5.43-.35-8.15.02-.68-.33-2.66-1.48-2.84-1.07-.17-1.52 1.75-1.54 2.41-.28 2.59-.63 5.16-1.05 7.71-5.65 1.63-24.64 11.38-34.24 33.63z"/><path fill="#424242" d="M49.02 17.68c.21.26.44.49.7.69C52.8 20.51 73.31 38.5 65.61 66.4c-4.69 15.43-18.8 24.51-29.79 28.44-7.8 2.9-15.14 4.04-19.38 4.51-1.06-3.45-2.67-9.34-3.67-16.02-1.42-9.55-1.8-22.17 3.55-34.54 8.87-21.18 27.58-29.62 31.94-30.74.28-.09.53-.21.76-.37m.3-13.6c-.83.22-1.19 1.8-1.21 2.4-.28 2.59-.63 5.16-1.05 7.71-5.65 1.65-24.64 11.4-34.24 33.64-11.5 23.8.17 53.92.44 55.3-.35.5 46.25-1.43 56.12-35.07 8.18-30.35-13.93-50.26-17.9-52.99-.05-2.71-.17-5.43-.35-8.15.02-.68-.33-2.66-1.48-2.84a.53.53 0 00-.33 0z" opacity=".2"/><path fill="#424242" d="M66.77 57.12A335.667 335.667 0 0048.6 27.78c-.91 5.78-2.13 11.45-3.65 16.98 5.52 9.77 10.79 20.3 15.66 31.62a331.024 331.024 0 00-16.1-30.01c-1.74 5.94-3.83 11.71-6.24 17.28 3.67 7.88 7.16 16.22 10.38 25.03a316.41 316.41 0 00-10.92-23.76c-2.55 5.86-5.46 11.5-8.69 16.87 1.53 4.24 3.01 8.6 4.4 13.09-1.53-4.28-3.13-8.43-4.78-12.46-3.39 5.48-7.12 10.67-11.16 15.56 3.88-4.98 7.44-10.25 10.67-15.79-4.68 1.03-9.42 1.93-14.23 2.71 4.94-.97 9.81-2.08 14.6-3.34a146.81 146.81 0 008.23-16.74c-8.26 2.71-16.78 5.03-25.53 6.92 9-2.29 17.72-5.06 26.11-8.3 2.27-5.64 4.22-11.48 5.82-17.48-9.38 4.5-19.23 8.43-29.5 11.75 10.49-3.76 20.49-8.23 29.94-13.35 1.45-5.52 2.6-11.18 3.44-16.95a218.01 218.01 0 01-26.74 14.62c9.66-5.06 18.72-10.82 27.12-17.2.26-2.29.46-4.59.62-6.91.51.05 1.02.11 1.53.17-.16 2.38-.36 4.75-.62 7.1 6.24 9.85 12.23 20.49 17.81 31.93z" opacity=".2"/><linearGradient id="ajb" x1="80.888" x2="133.91" y1="70.914" y2="114.55" gradientTransform="rotate(9.284 97.162 83.731)" gradientUnits="userSpaceOnUse"><stop offset=".006" stop-color="#FFCC80"/><stop offset=".999" stop-color="#F57C00"/></linearGradient><path fill="url(#ajb)" d="M88.01 61.77c-.92-1.2-1.85-2.37-2.78-3.51-.21-.32-1.04-1.06-1.61-.62-.61.47-.24 1.49-.04 1.8.67 1.33 1.33 2.67 1.97 4.03-1.58 3.52-10.61 15.28-5.4 29.34 5.89 15.55 31.74 31.31 31.92 31.53.64 1.04 16.73-25.01 4.59-47.03-10.01-18.25-25.15-15.97-28.65-15.54z"/><path fill="#424242" d="M87.71 64.13c.18.02.37.01.55-.01 2.65-.24 17.18-2.45 26.27 14.43 5.2 9.98 4.48 22.18 2.1 29.84-1.6 5.51-3.97 9.75-5.48 12.05-2.49-1.62-6.73-4.54-11.19-8.14-6.31-5.15-14.18-12.33-17.26-20.23-5.11-13.43 3.47-24.53 4.74-27.39.11-.18.2-.36.27-.55m-3.85-6.61c-.08.02-.16.06-.23.12-.61.47-.24 1.49-.04 1.8.67 1.33 1.33 2.67 1.97 4.03-1.58 3.52-10.61 15.28-5.4 29.34 5.89 15.55 31.74 31.31 31.92 31.53.64 1.04 16.73-25.01 4.59-47.03C106.65 59.06 91.51 61.35 88 61.78c-.92-1.2-1.85-2.37-2.78-3.51-.17-.29-.82-.89-1.36-.75z" opacity=".2"/><path fill="#424242" d="M89.45 68.13c-.68-1.12-1.37-2.22-2.06-3.31.43-.29.86-.59 1.28-.89.56 1.2 1.12 2.42 1.66 3.65a231.1 231.1 0 0120.58 6c-6.77-1.86-13.38-3.4-19.8-4.64 1.72 3.08 3.39 6.26 5.01 9.56a261.86 261.86 0 0120.97 7.53 280.91 280.91 0 00-20.49-6.57c1.73 3.63 3.4 7.4 4.99 11.31 5.64 2.31 11.37 4.89 17.17 7.74-5.66-2.49-11.25-4.75-16.77-6.78 1.63 4.07 3.17 8.29 4.59 12.66 3 1.62 6.01 3.31 9.04 5.1-2.97-1.6-5.93-3.12-8.87-4.58 1.48 4.56 2.84 9.28 4.06 14.17-1.34-4.87-2.82-9.56-4.41-14.08-1.54 2.7-3.19 5.32-4.95 7.84 1.71-2.7 3.31-5.49 4.77-8.36-1.53-4.4-3.16-8.63-4.88-12.7a92.877 92.877 0 01-8.76 14.25c3.22-4.72 6.03-9.79 8.39-15.13-1.67-3.83-3.41-7.51-5.21-11.05a87.473 87.473 0 01-10.01 17.76 89.112 89.112 0 009.53-18.72c-1.65-3.26-3.35-6.4-5.09-9.43a83.736 83.736 0 01-8.48 17.83c3.32-5.93 5.92-12.37 7.74-19.16z" opacity=".2"/></svg><svg viewBox="0 0 128 128" id="1F343" xmlns="http://www.w3.org/2000/svg"><linearGradient id="aka" x1="-171.65" x2="-126.38" y1="-197.81" y2="-91.386" gradientTransform="scale(-1) rotate(-75.12 -61.662 -174.432)" gradientUnits="userSpaceOnUse"><stop offset="0" stop-color="#9CCC65"/><stop offset=".008" stop-color="#9BCB64"/><stop offset=".528" stop-color="#76AB44"/><stop offset=".802" stop-color="#689F38"/></linearGradient><path fill="url(#aka)" d="M62.02 65.89c-11.14-4.96-21.28-5.79-30.65-7.34-9.04-1.24-17.31-3.21-17.22-3.16.6-1.08-16.73 25.78 15.26 48.78 14.44 9.57 31.59 10.82 43.64 8.49 12.39-2.22 19.68-8.04 22.1-10 3.38.13 6.83.14 10.33.03.86.04 3.45-.29 3.75-1.48.28-1.11-2.16-1.57-3-1.6-3.28-.31-6.48-.72-9.59-1.22-1.04-5.82-14.41-24.34-34.62-32.5z"/><path fill="#424242" d="M38.7 62.63c8.3 1.4 15.25 3.06 22.18 6.18 19.54 8.01 30.51 26.13 30.92 30.55.08.26.2.52.37.75-.33.18-.64.39-.92.62-1.68 1.62-13.6 10.66-32.48 9.76-9.55-.44-18.81-3.42-26.36-8.21-15.15-9.73-18.67-23.05-18.61-30.96-.03-5.79 1.43-10.28 2.39-12.79 4.61 1.11 13.53 2.66 22.51 4.1m.79-2.84c-12.35-1.63-25.19-4.27-25.34-4.41.6-1.08-16.73 25.78 15.26 48.78 9.3 6.08 20.01 8.99 29.51 9.45 20.2 1.04 33.27-8.16 36.23-10.96 3.38.13 6.83.14 10.33.03.47.02 1.45-.06 2.3-.34.7-.23 1.31-.6 1.45-1.14.28-1.11-2.16-1.57-3-1.6-3.28-.31-6.48-.72-9.59-1.22-1.03-5.81-14.41-24.33-34.62-32.49-8.16-3.6-15.41-4.97-22.53-6.1z" opacity=".2"/><path fill="#424242" d="M42.22 106.63c13.52-.46 26.32-3.21 37.83-7.84-6.71-1.49-12.98-3.43-18.79-5.71-11.75 2.72-24.55 3.4-37.77 1.62 12.72 1.4 24.94.5 36.08-2.28-6.17-2.56-11.78-5.51-16.83-8.71-8.78.66-18.05.05-27.49-2.03 9.1 1.75 17.98 2.12 26.34 1.31-5.27-3.39-9.91-7.06-13.93-10.86-4.3-.37-8.7-1.1-13.13-2.21 4.29.94 8.53 1.52 12.66 1.77-4.05-3.93-7.44-8-10.22-12.06 2.9 4 6.42 7.99 10.57 11.82.36-3.33.85-6.6 1.48-9.8-.5 3.34-.83 6.76-1 10.24 4.04 3.67 8.67 7.2 13.9 10.44-.79-6.7-1.12-13.3-.99-19.74.16 6.68.9 13.54 2.24 20.52 5.15 3.09 10.86 5.9 17.1 8.31-3.22-8.51-5.67-16.98-7.36-25.34 2.06 8.57 5.06 17.28 9.03 25.99 5.8 2.17 12.06 4 18.75 5.37-5.31-8.24-9.83-16.57-13.56-24.93 4.45 8.61 9.97 17.17 16.58 25.53 2.69.45 5.45.83 8.27 1.13-.12.49-.24.97-.36 1.45-2.91-.32-5.75-.72-8.52-1.2-12.58 4.7-26.42 7.25-40.88 7.21z" opacity=".2"/><linearGradient id="akb" x1="31.532" x2="118.21" y1="7.069" y2="78.345" gradientUnits="userSpaceOnUse"><stop offset=".003" stop-color="#B0BEC5"/><stop offset=".998" stop-color="#78909C"/></linearGradient><path fill="url(#akb)" d="M121.82 54.98c-.08-.67-.09-1.31-.25-2.05l-.21-1.09c-.07-.35-.15-.79-.23-1.04l-.23-.89-.12-.45-.09-.33-.01-.06c.05.13-.09-.24-.08-.23-.91-2.77-2.33-5.52-4.21-8.06s-4.29-4.8-7.06-6.73c-2.7-1.87-5.79-3.39-9.18-4.4-.3-.64-.62-1.28-.97-1.9-.26-.46-.63-1-.95-1.48-.16-.23-.36-.54-.48-.69l-.74-.94-.09-.12-.2-.26-.06-.07-.25-.29c-.34-.38-.67-.76-1.02-1.13-2.81-2.9-6.06-5.12-9.38-6.72-6.65-3.26-13.51-4.16-19.78-4.06-.79.02-1.57.02-2.34.06l-2.29.21c-.76.06-1.5.14-2.24.28-.74.11-1.46.24-2.18.38-1.43.31-2.82.68-4.17 1.04-1.33.45-2.65.82-3.9 1.31-2.5.96-4.84 1.99-6.93 3.19-2.11 1.18-4 2.46-5.71 3.73-3.46 2.5-5.99 5.23-7.94 7.51-.47.58-.92 1.13-1.34 1.65s-.75 1.08-1.09 1.55c-.66.97-1.21 1.78-1.57 2.47-.76 1.37-1.16 2.1-1.16 2.1l.59.46s.51-.65 1.47-1.86c.46-.63 1.1-1.32 1.85-2.13.38-.4.76-.86 1.22-1.3s.95-.91 1.47-1.4c2.11-1.93 4.8-4.16 8.24-6.18 3.42-2.04 7.52-3.95 12.22-5.33 4.69-1.4 10.01-2.16 15.6-1.95 5.58.2 11.51 1.39 16.9 4.2 2.69 1.4 5.19 3.25 7.28 5.53.3.33.59.68.87 1.03l-.75.02H90.12c-.14.01.22-.02-.34.03l-1.11.12c-3.9.51-7.94 1.77-11.66 4.55-.91.72-1.81 1.49-2.62 2.41-.39.4-.87 1.03-1.29 1.61l-.24.34-.34.5-.08.13-.19.33-.06.11a16.274 16.274 0 00-2.07 7.66c-.05 2.61.42 5.27 1.71 7.84.62 1.28 1.49 2.53 2.57 3.65.28.28.56.55.85.81.33.29.77.61 1.17.89l.62.42.31.18.54.3c-.07-.03.8.41.5.25l.14.06.27.12.55.22c.36.15.74.27 1.12.37.76.23 1.51.36 2.28.47 1.52.16 3.01.11 4.4-.13 2.78-.5 5.18-1.61 7.25-3.07.53-.35 1-.78 1.49-1.18.47-.44.9-.83 1.44-1.43.61-.67.76-.89 1.03-1.23l.2-.26.06-.09.13-.19.75-1.14c1.26-2.06 2.15-4.29 2.69-6.53.75-3.31.79-6.6.28-9.72 1.36.56 2.66 1.23 3.87 1.98 4.72 2.92 8.21 7.16 10.03 11.63.91 2.29 1.37 4.51 1.59 6.72.22 2.2.13 4.31-.19 6.26-.56 3.92-1.98 7.14-3.41 9.58-1.46 2.44-2.98 4.1-4.07 5.15-.54.53-1.01.88-1.3 1.15l-.45.39.46.6s.18-.11.53-.32c.34-.22.9-.51 1.55-.98 1.29-.95 3.2-2.44 5.08-4.9 1.86-2.44 3.88-5.78 4.91-10.13.57-2.16.91-4.55.89-7.12-.05-.68-.05-1.33-.14-1.99zM94.95 44.92c-.76 3.02-2.45 5.93-4.98 7.69-1.25.91-2.7 1.56-4.19 1.85-.75.14-1.51.16-2.25.09-.72-.07-1.5-.32-2.09-.58-2.79-1.32-4.17-4.48-4.1-7.5 0-1.52.41-3.02 1.1-4.33.15-.28.41-.68.61-.98.22-.29.42-.59.68-.87.48-.58 1.05-1.09 1.63-1.58 2.38-1.89 5.33-2.98 8.29-3.44 1.64-.23 3.27-.27 4.88-.17.05.16.11.32.15.49.87 3.02 1.01 6.28.27 9.33z"/><path fill="#424242" d="M67.14 14c6.8 0 12.67 1.26 17.99 3.86 3.35 1.62 6.32 3.74 8.8 6.3.24.25.47.51.7.77l.27.3.25.28.02.03.17.22.09.12.37.47.38.48c.06.08.15.22.24.35l.13.19.21.31c.25.37.5.75.68 1.07.29.5.57 1.05.89 1.75.24.52.69.91 1.24 1.07 3.08.92 5.98 2.3 8.6 4.12 2.68 1.87 4.9 3.98 6.59 6.28 1.73 2.33 3.05 4.85 3.92 7.49l.06.18.03.1.06.22.12.45.23.89c.01.02.01.05.02.07.03.09.08.37.11.54l.06.3.11.6.1.5c0 .02.01.03.01.05.09.4.12.77.16 1.21.02.21.04.43.07.67.07.54.07 1.12.06 1.71v.13c-.26-2.62-.82-5-1.73-7.27-2.05-5.06-5.9-9.53-10.83-12.58-1.31-.81-2.71-1.53-4.16-2.13-.25-.1-.51-.15-.76-.15-.44 0-.88.15-1.24.43-.57.45-.85 1.17-.73 1.89.49 3.03.41 6.05-.25 8.94-.51 2.12-1.32 4.12-2.43 5.93l-.47.71-.25.37-.12.18-.03.05-.14.18c-.08.09-.14.18-.21.27-.17.22-.33.43-.76.89-.4.45-.72.75-1.1 1.1l-.17.16-.27.23c-.35.29-.67.57-.99.78-.02.01-.04.02-.05.04-1.98 1.4-4.15 2.32-6.44 2.73-.74.13-1.52.2-2.31.2-.5 0-1-.03-1.5-.08-.63-.09-1.3-.2-1.93-.39-.02-.01-.04-.01-.06-.02-.37-.1-.64-.19-.89-.3l-.52-.21-.26-.11-.13-.06c-.11-.06-.25-.13-.32-.16l-.5-.28-.26-.15-.53-.36c-.42-.3-.76-.55-.99-.75-.26-.24-.52-.49-.74-.71-.91-.94-1.67-2.02-2.22-3.15-1.05-2.08-1.55-4.41-1.5-6.9.05-2.39.66-4.65 1.82-6.73l.05-.09.15-.25.05-.07.17-.25.15-.22.22-.31c.6-.82.94-1.22 1.12-1.4.02-.02.04-.04.06-.07.61-.7 1.34-1.36 2.32-2.13 3.02-2.26 6.53-3.62 10.67-4.17l.73-.08.34-.03.22-.02H90.38l.75-.02c.76-.02 1.43-.47 1.75-1.16s.22-1.49-.25-2.09c-.34-.43-.65-.8-.96-1.14-2.18-2.38-4.82-4.39-7.83-5.95-5.18-2.71-11.16-4.19-17.75-4.43-.63-.02-1.28-.04-1.91-.04-4.92 0-9.75.7-14.33 2.07-2.38.7-4.7 1.56-6.94 2.56.09-.05.18-.1.26-.15 1.79-1.03 3.91-2 6.68-3.07.76-.3 1.57-.56 2.43-.83.43-.14.86-.27 1.3-.42 1.29-.34 2.63-.7 3.98-.99.66-.12 1.37-.25 2.09-.36.02 0 .04-.01.06-.01.6-.11 1.26-.19 2.06-.25l1.56-.14.7-.06c.48-.03.97-.03 1.46-.04.26 0 .53-.01.77-.02.29-.04.59-.04.88-.04m11.08 24.98c-.25.27-.44.54-.61.77l-.16.21c-.02.03-.04.05-.06.08-.2.29-.5.76-.73 1.18-.87 1.65-1.33 3.47-1.33 5.22-.09 4.13 1.97 7.8 5.25 9.36l.06.03c.52.22 1.56.62 2.71.73.33.03.66.04.98.04.62 0 1.23-.05 1.82-.17 1.75-.33 3.47-1.09 4.96-2.17 2.74-1.91 4.85-5.13 5.78-8.87.8-3.33.69-6.91-.29-10.33-.04-.13-.08-.26-.12-.38l-.05-.15c-.24-.8-.96-1.36-1.79-1.41-.57-.04-1.15-.05-1.71-.05-1.2 0-2.4.08-3.6.25-3.57.56-6.76 1.89-9.22 3.85-.01.01-.03.02-.04.04-.62.5-1.27 1.08-1.85 1.77M67.14 12c-.31 0-.62 0-.92.01-.79.02-1.57.02-2.34.06l-2.29.21c-.76.06-1.5.14-2.24.28-.74.11-1.46.24-2.18.38-1.43.31-2.82.68-4.17 1.04-1.33.45-2.65.82-3.9 1.31-2.5.96-4.84 1.99-6.93 3.19-2.11 1.18-4 2.46-5.71 3.73-3.46 2.5-5.99 5.23-7.94 7.51-.47.58-.92 1.13-1.34 1.65s-.75 1.08-1.09 1.55c-.66.97-1.21 1.78-1.57 2.47-.76 1.37-1.16 2.1-1.16 2.1l.59.46s.51-.65 1.47-1.86c.46-.63 1.1-1.32 1.85-2.13.38-.4.76-.86 1.22-1.3s.95-.91 1.47-1.4c2.11-1.93 4.8-4.16 8.24-6.18 3.42-2.04 7.52-3.95 12.22-5.33 4.17-1.25 8.84-1.99 13.76-1.99.61 0 1.22.01 1.84.03 5.58.2 11.51 1.39 16.9 4.2 2.69 1.4 5.19 3.25 7.28 5.53.3.33.59.68.87 1.03l-.75.02h-.25.02c-.01 0-.07.01-.33.03l-1.11.12c-3.9.51-7.94 1.77-11.66 4.55-.91.72-1.81 1.49-2.62 2.41-.39.4-.87 1.03-1.29 1.61l-.24.34-.34.5-.08.13-.19.33-.06.11a16.274 16.274 0 00-2.07 7.66c-.05 2.61.42 5.27 1.71 7.84.62 1.28 1.49 2.53 2.57 3.65.28.28.56.55.85.81.33.29.77.61 1.17.89l.62.42.31.18.54.3.56.29-.06-.03.14.06.27.12.55.22c.36.15.74.27 1.12.37.76.23 1.51.36 2.28.47.59.06 1.17.09 1.75.09.91 0 1.8-.08 2.65-.23 2.78-.5 5.18-1.61 7.25-3.07.53-.35 1-.78 1.49-1.18.47-.44.9-.83 1.44-1.43.61-.67.76-.89 1.03-1.23l.2-.26.06-.09.13-.19.75-1.14c1.26-2.06 2.15-4.29 2.69-6.53.75-3.31.79-6.6.28-9.72 1.36.56 2.66 1.23 3.87 1.98 4.72 2.92 8.21 7.16 10.03 11.63.91 2.29 1.37 4.51 1.59 6.72.22 2.2.13 4.31-.19 6.26-.56 3.92-1.98 7.14-3.41 9.58-1.46 2.44-2.98 4.1-4.07 5.15-.54.53-1.01.88-1.3 1.15l-.45.39.46.6s.18-.11.53-.32c.34-.22.9-.51 1.55-.98 1.29-.95 3.2-2.44 5.08-4.9 1.86-2.44 3.88-5.78 4.91-10.13.57-2.16.91-4.55.89-7.12.01-.64.01-1.3-.08-1.96-.08-.67-.09-1.31-.25-2.05l-.21-1.09c-.07-.35-.15-.79-.23-1.04l-.23-.89-.12-.45-.09-.33-.01-.06c.01.02.01.03.01.03l-.09-.26c-.91-2.77-2.33-5.52-4.21-8.06s-4.29-4.8-7.06-6.73c-2.7-1.87-5.79-3.39-9.18-4.4-.3-.64-.62-1.28-.97-1.9-.26-.46-.63-1-.95-1.48-.16-.23-.36-.54-.48-.69l-.74-.94-.09-.12-.2-.26-.06-.07-.25-.29c-.34-.38-.67-.76-1.02-1.13-2.81-2.9-6.06-5.12-9.38-6.72C79.68 12.97 73.16 12 67.14 12zm17.19 42.59c-.27 0-.54-.01-.8-.04-.72-.07-1.5-.32-2.09-.58-2.79-1.32-4.17-4.48-4.1-7.5 0-1.52.41-3.02 1.1-4.33.15-.28.41-.68.61-.98.22-.29.42-.59.68-.87.48-.58 1.05-1.09 1.63-1.58 2.38-1.89 5.33-2.98 8.29-3.44 1.1-.15 2.2-.22 3.29-.22.53 0 1.06.02 1.59.05.05.16.11.32.15.49.87 3.01 1.01 6.27.27 9.33-.76 3.02-2.45 5.93-4.98 7.69-1.25.91-2.7 1.56-4.19 1.85-.48.09-.97.13-1.45.13z" opacity=".2"/></svg><svg viewBox="0 0 128 128" id="1FAB4" xmlns="http://www.w3.org/2000/svg"><ellipse cx="64" cy="113.9" fill="#d44a28" rx="21.31" ry="9.83"/><path fill="#ed603a" d="M99.53 86.45c0 14.78-15.91 30.86-35.53 30.86s-35.53-16.08-35.53-30.86 71.06-14.78 71.06 0z"/><ellipse cx="64" cy="84.05" fill="#ff8a65" rx="35.13" ry="10.32"/><path fill="#5d4037" d="M93.71 83.35c0 3.27-11.14 6.89-29.71 6.89-18.27 0-29.71-3.62-29.71-6.89 0-3.27 13.3-7.16 29.71-7.16s29.71 3.9 29.71 7.16z"/><path fill="#212121" d="M99.09 84.51c.02-.15.04-.31.04-.46 0-5.7-15.73-10.32-35.13-10.32s-35.13 4.62-35.13 10.32c0 .15.02.31.04.46-.29.62-.44 1.27-.44 1.94 0 6.79 3.13 13.16 7.81 18.35.67.74 9.54-1.36 15.25-4.75 10.95-6.49 19.68-10.02 19.68-10.02s-4.13.19-7.22.19c-18.27 0-29.71-3.62-29.71-6.89 0-3.27 13.3-7.16 29.71-7.16s29.71 3.89 29.71 7.16c0 2.32-5.63 4.82-15.54 6.07.92-.01 2.38.12 4.14.82 5.37 2.12 12.59 11.21 14.53 7.06 1.69-3.63 2.69-6.68 2.69-10.85.01-.66-.15-1.31-.43-1.92z" opacity=".18"/><linearGradient id="ala" x1="65.767" x2="66.506" y1="59.226" y2="25.893" gradientUnits="userSpaceOnUse"><stop offset=".365" stop-color="#1b5e20"/><stop offset=".95" stop-color="#2e7d32"/></linearGradient><path fill="url(#ala)" d="M85.59 46.73c.04-.29.21-1.74-2.02-2.16-2.23-.42-4.01-.25-4.01-.25l-1.27-3.61c.97-3.28 2.58-4.81 1.21-8.19-.32-.78-2.03-1.24-3.44-.84 0 0-1.4-.04-2.61.81-1.04.74-5.42 4.44-6.17 2.27-.31-.9.14-1.44 2.05-2.81 1.71-1.22 3.61-2.25 5.11-3.73 2.57-2.55.95-6.13.95-6.13s-2.04-.77-3.67.47c-1.24.94-2.21 1.48-2.79 1.87-2.83 1.9-3.01-.86-1.21-1.93l3.34-2.25c3.44-2.39 1.9-6.25 1.9-6.25s-.99-.31-2.29.58c-.46.32-.95.75-1.67 1.1-1.06.51-1.78.78-2.19.05-.28-.5.23-1.11 1.21-1.81 1.12-.79 1.73-.92 2.51-2.03 1.21-1.71.89-3.87.57-4.33-.31-.45-2.72 2.21-3.16 1.19-.34-.79.74-2.23-.41-4.27-.86-1.52-2.47-2.21-2.47-2.21-1.23 1.64-1.38 4.41-.35 6.21.63 1.1 1.35 2.09.7 2.69-.46.42-1.05-.16-2.01-.79-1.45-.94-3.36-.2-3.36-.2s-.85 2.46.46 4.09c.95 1.19 1.72 1.64 3.19 2.88 1.57 1.32.64 2.82-1.22 1.83-.65-.35-1.56-1.07-2.57-1.51-1.5-.66-3.66.35-3.66.35s-.81 3.69 1.25 5c.7.45 3.62 2.4 4.61 2.91 2.05 1.06 1.56 3.65-.74 2.56-1.64-.78-3.39-2.09-5.2-2.88-2.4-1.05-4.01.07-4.01.07s-.72 3.22 1.13 5.02c1.22 1.19 4.18 3.13 5.35 3.83 1.13.67 2.89 1.41 2.49 2.24-1.09 2.28-4.6.61-6.17-.28-2.78-1.58-5.71-2.7-7.36-1.41-1.66 1.3-.45 5.26-.51 7-.14 3.86 3.12 4.02 4.26 7.25.22.63.17 1.33.13 2-.27 4.41.09 8.87 1.05 13.18.11.49.25 1.02.63 1.34.37.32.9.38 1.39.42 5.01.44 10.05.66 15.08.66 3.8 0 7.69-.15 11.2-1.6.64-.27 1.31-.61 1.66-1.21.31-.52-2.15-7.32-1.76-7.78 2.29-2.71 4.42-6.38 4.87-9.41z"/><radialGradient id="alb" cx="85.468" cy="71.352" r="27.684" gradientUnits="userSpaceOnUse"><stop offset=".209" stop-color="#1b5e20"/><stop offset=".74" stop-color="#2e7d32"/></radialGradient><path fill="url(#alb)" d="M121 39.51c-.59-.07-.99.04-.7-.6.36-.81.45-1.1.59-1.66.34-1.42-.2-2.37-.2-2.37s-1.92.22-2.8 2c-.46.93-1.12 3.21-2.23 2.41-.46-.34-.05-.9.01-1.82.14-1.95-1.39-2.34-1.39-2.34s-1.89.55-2.39 2.28c-.42 1.47-.52 2.27-.75 3.62-.22 1.3-.07 1.94-1 2.18-.8.21-1.26-.4-1.16-1.38.13-1.4.14-2.61.14-2.61.29-2.17-1.93-2.52-1.93-2.52s-2.32.2-2.94 2.77c-.34 1.43-.43 2.01-.74 3.94-.15.92-.16 2.09-.96 2.79-.85.74-1.84.08-1.81-1.52.02-1.18.15-1.91.07-3.65-.08-1.74-1.95-1.85-1.95-1.85s-2.89 1.24-3 4.22c-.08 2.08-.13 5.49-.07 6.46 0 0 .29 1.8-1.12 2.35-.86.32-1.85-.22-1.9-1.79-.07-2.09-.01-2.3-.13-4.95-.11-2.48-2.13-3.19-2.13-3.19s-3.07.34-3.66 3.3c-.35 1.73-.32 9.3-2.82 9.22-2.9-.1-8.76-6.45-10.76.76-.34 1.21-1.05 2.32-2.07 3.05-1.33.97-3.01 1.27-4.6 1.72-5.25 1.48-9.82 4.94-12.96 9.36-1.66 2.34-7.07 12.35-3.9 14.67 1.13.83 4.84.53 6.37.53 3.39.01 6.77.02 10.16.02 4.94.01 9.87.02 14.81.04.18-1.04.22-2.05.16-3.04l1.33.01 9.58.37s1.95-3.7 3.74-4.5c.24-.11 3.75-2.7 3.64-2.94-1.4-3.1-9.26-6.07-9.26-6.07 1.27-.1 3.13-1.54 6.53.3 4.05 2.19 6.53 1.19 6.53 1.19s.9-1.35-1.74-4.72c-1.38-1.77-7.47-4.89-7.47-4.89-.66-.45-2.41-.9-1.59-2.19.56-.89 2.92-.12 4.99 1.01 1.75.96 1.45 1.07 5.37 3.24 2.44 1.35 5.81 0 5.81 0s.18-3.05-1.95-4.99c-1.8-1.64-5.94-4.12-5.94-4.12-.96-.82-1.11-1.48-.33-1.91 1.13-.61 2.49.24 3.77.89 1.28.65 4.79 2.37 4.79 2.37 1.98 1.08 5.03.74 5.03.74s.68-2.44-.29-3.6c-1.4-1.68-5.43-3.47-5.43-3.47-1.01-.74-1.27-1.19-.7-1.8.57-.6 1.09-.59 2.78.2 1.78.84 3.16 1.52 4.76 2.04s4.54-.47 4.54-.47-.09-2.27-1.59-3.27c-1.16-.77-2.56-1.33-2.56-1.33-.78-.27-1.39-.89-1-1.62.46-.84 2.24-.12 3.37.1 1.65.32 2.55.4 4.26-.22 1.12-.41 1.75-1.56 1.75-1.56s-.14-.84-2.96-1.19z"/><radialGradient id="alc" cx="63.361" cy="80.664" r="33.534" gradientUnits="userSpaceOnUse"><stop offset=".209" stop-color="#1b5e20"/><stop offset=".74" stop-color="#2e7d32"/></radialGradient><path fill="url(#alc)" d="M82.74 62.05c-1.49-1.28-3.51-1.97-5.47-1.75-.98.11-1.96.42-2.95.34-.99-.09-2.04-.76-2.09-1.75-.03-.65.36-1.23.7-1.78.89-1.44 1.54-3.16 1.14-4.8s-2.21-2.99-3.79-2.39c-1.5.57-1.99 2.4-2.5 3.92-.69 2.07-1.78 4.01-3.18 5.69-.61.73-1.51 1.48-2.42 1.19-1.31-.4 1.38-7.85-1.48-13.97-.86-1.83-1.58-3.49-2.28-3.49-1.21 0-1.61 4.11-1.95 5.6-.3 1.33-.98 3.88-2.27 4.06-.86.12-1.91-1.26-2.18-1.8-.9-1.78-2.61-6.24-4.53-7.26-1.47-.77-3.21.28-3.21 2.74 0 .83 1.78 6.34 2.92 9.4.36.97-1.56 1.68-2.51-.13 0 0-2.93-4.89-4.08-6.54-1.72-2.48-4.84-2.03-4.84-2.03s-1.26 2.05-.21 5.04c.87 2.5.78 1.84 1.54 3.79.58 1.47-.12 2.35-1.03 2.4-1.51.05-1.96-1.71-1.96-1.71-.33-.91-1.73-4.02-2.63-5.89-1.29-2.69-4.43-2.68-4.43-2.68s-1.68.84-1.06 2.47c.62 1.63 1.03 2.25 1.52 3.32.67 1.46.02 2.46-1.05 2.12-1-.32-1.48-1.39-1.99-2.18-1.05-1.65-1.36-2.14-2.25-3.31-1.58-2.11-3.8-1.38-3.8-1.38s-1.9 1.21-.77 3.08c0 0 .49 1.1 1.17 2.34.47.86.3 1.6-.52 1.73-.95.15-1.06-.5-1.78-1.6-.75-1.14-1.16-1.84-2.13-3.02-1.15-1.39-3.1-1.14-3.1-1.14s-1.24.96-.34 2.7c.42.82 1.03 1.17.74 1.66-.69 1.18-2.21-.65-3-1.32C7.17 52.44 5.32 53 5.32 53s-.12 1.1.76 2.26c.35.46.55.69 1.2 1.29.52.48.11.53-.4.83-2.45 1.44-2.23 2.26-2.23 2.26s1.03.8 2.22.74c1.82-.1 2.61-.54 4-1.49.95-.65 2.3-2.03 3.05-1.43.65.51.34 1.33-.27 1.89 0 0-1.06 1.07-1.82 2.24-.98 1.51-.16 3.63-.16 3.63s3.1-.28 4.35-1.38c1.26-1.11 2.25-2.29 3.55-3.76 1.24-1.4 1.71-1.62 2.47-1.29.76.32.7.84.07 1.93 0 0-2.99 3.25-3.61 5.35-.43 1.45 1.17 3.42 1.17 3.42s2.93-.9 4.32-2.68c0 0 2.54-2.98 3.45-4.08.92-1.1 1.83-2.43 3.11-2.31.88.08 1.01.75.46 1.88 0 0-2.81 3.92-3.81 6.14-1.18 2.62.19 5.35.19 5.35s3.64-.11 5.33-2.31c2.73-3.56 2.41-3.54 3.64-5.11 1.45-1.86 3.31-3.51 4.17-2.92 1.27.87-.16 1.97-.59 2.65 0 0-4.12 5.36-4.91 7.46-1.17 3.09.13 6.44.13 6.44s3.6-.3 6.45-3.68c.5-.59.93-1.12 1.33-1.6l2.26 1.51c-1.07 1.89-1.86 3.83-2.61 6.19 1.82-.61 10.48 2.46 10.48 2.46l28 .07c.18-1.04.22-2.05.16-3.04l1.33.01 9.58.37s1.95-3.7 3.74-4.5c.24-.11.31-.4.14-.6-1.54-1.74-3.38-3.86-5.47-4.96-1.81-.95-3.71-.63-4.7-2.9-1.04-2.37-.68-4.78-2.58-6.77-.16-.18-.34-.35-.53-.51z"/><path fill="#73b03e" d="M74.95 57.12c-1.08-.59-1.5-1.42-.72-2.04.35-.28 1.73.28 4.27.97 3.28.89 5.24 1.45 7.31 1.36 4.19-.17 4.79-3.8 4.79-3.8s-.51-1.53-4.41-1.8c-1.51-.1-4.21-.66-6.37-1.28-2-.57-3.67-1.65-2.67-2.62.6-.58 1.83-.04 3.2.2 3 .53 5.45 1.12 7.34 1.17 3.98.11 5.34-2.41 5.34-2.41s-.52-2.34-3.59-3.1c-1.64-.41-3.44-.67-6.73-1.37-1.91-.4-1.79-.99-1.22-1.5.77-.69 2.35-.52 3.32-.44 2.34.21 5.27.91 6.88 1.01 2.78.17 4.22-1.91 4.22-1.91s-.1-2.37-2.8-3.22c-2.56-.81-3.17-.47-5.18-1.21-1.28-.47-1.73-1.01-1.22-1.47.47-.42 1.48-.43 3.43-.27 2.61.21 4.64.67 6.62.85 3.41.31 4.39-1.86 4.39-1.86s-.31-1.85-2.73-2.59c-1.16-.36-2.43-.49-4.42-1.07-.8-.23-.93-.67-.6-1.19.33-.51 1.24-.62 2.52-.49 2.22.23 3.01.42 4.57.66 3.1.49 4.65-.87 4.65-.87s.37-1.85-1.4-2.48c-1.63-.58-2.76-.63-3.94-.94s-1.04-.81-.65-1.09c1.34-.97 5.36.55 6.74.7 2.35.26 3.63-1.12 3.63-1.12s.36-1.73-1.34-2.32c-1.36-.47-2.61-.52-1.87-1.2.36-.33 1.61-.44 2.26-.39 1.98.14 2.74.35 3.69.1.89-.23 2.07-1.09 2.73-1.74-1.44-.95-3.1-1.22-4.78-1.48-1.87-.29-2.92 1.84-3.85 1.54-.46-.15.57-1.76-.49-1.65-.63.07-1.99.4-2.52 1.92-.47 1.34-.56 3.32-1.92 3.05-.84-.16-.5-1.11-.38-1.78.33-1.8-.45-2.08-.45-2.08s-2.79-.05-3.73 2.88c-.5 1.55-.78 4.26-2.06 4.22-1.09-.03-.66-1.28-.68-2.37-.03-1.74-1.64-1.95-1.64-1.95s-2.67.53-2.82 2.78c-.06.86-.1 2.49-.1 4.4 0 1.63-.41 2.92-1.03 3.2-1.2.55-1.24-.99-1.34-2.59-.1-1.59-.05-2.5-.3-3.19-.37-1-2.42-.91-2.42-.91s-2.24 1.69-2.15 3.53c.07 1.44.3 3.59.45 4.45.26 1.51.24 3.56-.65 4.36-.87.78-1.49-1.64-2.15-5.24-.59-3.24-3.07-2.83-3.07-2.83s-2.37 1.78-2 4.58c.27 2.08.72 3.59 1.1 4.83.94 3.08 1.09 4.19.8 4.89-1.16 2.8-2.58-1.89-3.84-5.72-.87-2.65-3.21-2.34-3.21-2.34s-2.06 1.95-1.6 4.36c.76 4.01 2.1 6.27 2.97 7.75 1.62 2.78 1.96 4.01 1.66 4.74-.33.79-1.84-.01-3.02-1.96-1.26-2.11-1.82-3.38-2.72-5.97-.77-2.2-1.64-1.92-1.64-1.92s-1.91 2.73-.97 5.79c1.88 6.1 5.62 9.1 5.97 9.44.84.8-.32.86-1.97.09-1.8-.84-4.27-5.41-4.27-5.41s-.75 2.41.67 5.55c1.65 3.64 4.12 4.08 5.65 4.46 1.79.45 2.45.17 3.35 1.27 3.74 4.62 9.17 3.89 10.08 3.89 4.43 0 4.92-3.1 4.92-3.1s-.66-1.4-3.56-1.9c-1.15-.2-2.36-.08-6.08-1.16-1.28-.35-3.02-.98-4.25-1.65zM59.53 36s-2.37.98-2.69 2.9c-.39 1.95-.47 7.71-1.49 9.98-.67 1.48-1.85.55-1.39-1.86.59-3.06 1.3-6.96.83-10.19-.39-2.66-2.65-4.33-2.65-4.33s-2.27.32-2.51 1.72c-.4 2.35-.28 4.42-.42 6-.1 1.1-.09 3.07-1.48 2.7-.89-.23-.64-2.91-.61-3.72.06-1.89.4-2.78.37-6.37-.03-2.89-3.14-4.47-3.14-4.47s-1.79.47-2.07 2.23c-.42 2.68-.14 5.63-1.77 5.12-1.06-.33-.24-4.57-.54-6.79-.3-2.28-2.35-3.62-2.35-3.62s-1.95.05-2.1 2.11c-.13 1.88.15 4.54-1.53 4.6-1.66.06-.8-2.78-1.28-6.05-.35-2.38-3-3.31-3-3.31s-2.09.33-2.07 2.01c.01.64-.11 2.32-1.16 2.1-.95-.2-1.35-1.56-1.58-2.34-.29-.96-.52-1.61-1.28-2.34-.88-.85-3.4-1.64-3.49-1.6-.15.07-.37 2.14-.06 2.96.46 1.24 1.31 1.91 2.06 2.92.95 1.27-.53 1.05-1.55 1.69-1.21.76-1.5 2.13-1.5 2.13s1.4 1.19 2.83 1.29c1.36.1 2.63-.32 3.87-.69 1.6-.49 3.14-.87 3.65-.12.78 1.13-1.88 1.2-3.76 2.74-1.17.96-1.29 2.58-1.29 2.58s2.93 1.92 4.4 1.4c2.85-1.02 3.86-1.87 5.23-2.31 1.57-.51 3.32.3 1.51 1.57-1.3.92-2.9 1.81-3.95 2.87-1.29 1.29-1.18 3-1.18 3s2.11 1.59 3.87 1.19c2.9-.66 4.7-2.06 6.24-2.79 1.85-.87 2.61-.65 3.24-.14.68.56-.62 1.12-2.24 1.95-1.87.96-3.93 2.66-4.7 3.49-1 1.08-.9 4.9-.9 4.9s3.14 1.16 5.76-.05c2.76-1.27 5.66-4.18 6.89-3.74 1.9.67.46 1.74-2.25 3.92-2.06 1.66-3.85 2.86-5.14 4.3-1.21 1.35-1.14 4.81-1.14 4.81s1.58.94 3.92.74c3-.25 6.87-5.35 8.34-6.72.96-.89 1.86.29.22 3.33-2.53 4.7-3.71 4.68-4.98 8.29-.98 2.81.67 5.52.67 5.52s2.59.66 4.35-.58c1.4-.98 2.41-2.89 3.42-5.62.24-.64.72-2.18.67-6.18-.03-2.97-.57-2.18.98-4.84 3.62-6.21 4.69-9.02 4.19-13.72-.29-2.84-2.27-4.57-2.27-4.57z"/><path fill="#a1d65c" d="M74.29 64.64s-5.23 1.54-6.97 3.04c-1.74 1.51-3.68 4.17-5.76 4.92-2.08.75-3.54.57-3.54.57s1.2-4.73 4.42-7.03c3.25-2.33 8.13-3.34 11.85-1.5z"/><linearGradient id="ald" x1="68.998" x2="68.998" y1="83.914" y2="76.796" gradientUnits="userSpaceOnUse"><stop offset="0" stop-color="#5d4037"/><stop offset="1" stop-color="#5d4037" stop-opacity="0"/></linearGradient><path fill="url(#ald)" d="M44.29 76.89h49.42v8.7H44.29z"/><path fill="#a1d65c" d="M112.32 106.08c.23-.82.11-1.91.14-3.56.02-.96.58-.98 2.21.67.72.73 2.05.85 2.05.85.16-3.06-1.16-3.96-3.27-5.15-1.86-1.04-3.67-1.42-2.84-2.58.27-.38 1.52.23 2.16.48 3.77 1.49 4.1.34 4.1.34s-.25-2.92-4.07-4.26c-1.84-.64-4.97-1.1-4.93-2.03.04-1.22 1.78-.76 2.8-.51 5.16 1.24 5.63.45 5.63.45s-1.05-4.23-5.91-5.07c-2.4-.41-6.68-.79-6.89-1.93-.22-1.21 4.44-.52 6.3-.22 2.59.42 3.34-.25 3.34-.25s-1.12-3.95-6.6-4.42c-4.04-.34-6.67.2-7.32-.82-.58-.93 3.15-1.16 6.75-.89 2.83.21 4.36.14 4.36.14s-1.08-4.01-7.01-4.42c-5.9-.41-11.34 1.15-10.66-.01.72-1.22 3.09-1.41 6.09-1.56 1.53-.07 3.42-.02 4.42-.15 2.34-.3 3.06-1.25 3.06-1.25s-2.48-2.33-6.08-2.96c-3.17-.55-5.83-.11-9.56.77-2.05.48-4.51 1.18-5.2.6-.45-.37 1.3-1.45 3.16-1.9 1.54-.37 4.49-.65 6.55-.82 1.3-.1 2.14-.53 2.14-.53s-.54-.44-1.51-.93c-1.8-.91-4.86-1.72-7.83-1.12-1.79.36-3.14.69-4.56 1.78-1.46 1.12-2.29 2.16-4.07 2.1-1.78-.05-2.8-.78-6 .29-1.39.47-4.19 2.49-6.4 5.04-2.3 2.66-1.82 5.14-1.82 5.14s2.42.72 4.86-.64c3.43-1.91 7.53-7.39 9.28-7.19 2.09.24-.8 2.34-2.16 3.8-3.07 3.28-4.5 6.2-4.91 8.66-.37 2.23.51 3.31.51 3.31s3.13-.45 4.47-2.3c1.94-2.69 4.01-5.22 5.36-7.09 1.66-2.3 2.62-3.05 3.46-3.41 1.64-.7 2.95-.22.58 2.49-2.83 3.23-5.25 6.77-5.88 9.26-.61 2.39.57 4.42.57 4.42s2.9-1.01 4.18-2.65c2.56-3.29 3.41-5.18 4.79-7.23 1.08-1.61 2.33-2.9 3.55-2.55 1.31.38-.05 1.96-1.67 4.36-1.38 2.03-2.94 4.97-3.37 7.12-.57 2.88.3 4.28.3 4.28s3.48-.56 4.51-2.14c.89-1.35 2.55-4.78 3.71-6.38.96-1.33 1.81-3.02 2.99-2.32.62.37.01 1.77-1.3 3.9-1.01 1.64-2.16 3.81-2.71 5.63-.57 1.88.24 3.96.24 3.96s2.85.13 4.01-2.08c.97-1.84 1.83-3.4 2.53-4.52 1.5-2.39 2.42-.72 1.3 1.38-1.19 2.23-2.02 3.72-2.6 5.89-.36 1.35.3 3.16.3 3.16s1.79.12 2.81-1.18c1.79-2.28 1.74-3.94 2.79-3 .75.68-.98 3.07-1.92 4.81-.94 1.75-.52 3.77-.52 3.77s2.21.78 3.17-1.15c1.74-3.48 2.55-2.13 2.08-.55-.15.52-.86 2.81-1.01 3.34-.83 2.81.72 4.01.72 4.01s1.71-.58 2.25-2.48zM22.28 109.06c-.28-.55-.91-1.8.03-2.29 1.07-.57 1.47 1.18 2.45 2.21 1.67 1.74 3.17.94 3.17.94s1.12-1.6.18-3.88c-.91-2.2-2.87-3.73-2.08-4.77.44-.58 1.71-1.02 3.42 2.23 1.58 3 4.09 2.44 4.09 2.44s1.74-2.13.49-5.37c-.87-2.24-2.68-4.19-2.29-5.28.47-1.32 1.63-1.27 2.76.69.71 1.22 1.42 2.72 2.32 3.92 1.74 2.34 4.22 2.16 4.22 2.16s1.29-2.2.28-5.41c-.51-1.62-1.04-2.92-2.23-5.2-.59-1.12-1.64-2.66-.84-3.59.77-.89 1.88.23 2.79 1.6 2.17 3.27 2.25 4.23 3.35 5.97 1.61 2.53 5.07 2.43 5.07 2.43s1.31-2.57.8-5.12c-.63-3.1-1.38-5.32-3.17-8.13-.8-1.25-1.71-2.86-.98-3.35.7-.46 1.78.03 3.07 1.99 1.75 2.65 3.11 5.23 4.33 7.43 1.43 2.58 4.92 3 4.92 3s1.4-1.49.17-6.05c-.94-3.48-2.24-5.67-3.09-7.24-1.05-1.92-2.88-3.2-1.71-3.73 1.08-.49 2.5.78 4.05 3.21 1.6 2.51 2 4.42 3.87 7.01 1.53 2.13 5.12 1.8 5.12 1.8s.5-2.04.11-4.03c-.4-2.07-1.67-4.46-3.67-6.75-4.47-5.12-7.32-3-7.6-3.96-.13-.45.12-1.83-.98-3.73-1.58-2.72-5.44-5.28-9.8-5.24-1.75.02-4.88.56-6.28 1.54 0 0 .16 1.53 2.05 2.36 2.23.99 6.7 1.86 8.6 3.62 1.26 1.16 2.05 2.52.7 1.97-.56-.23-2.47-1.58-4.47-2.29-2.09-.74-4.2-1.06-6.71-1.14-3.75-.12-6.67 1.44-6.67 1.44s.2.96 2.41 2.09c1.33.68 5.44 1.29 7.01 2.06 1.29.63 2.44 1.08 1.71 1.81-.46.46-1.18.31-1.78.08-2.78-1.08-7.04-1.63-9.31-1.72-3.15-.12-5.41 1.95-5.41 1.95s-.02 1.71 2.27 2.48c3.32 1.11 8.23.91 9.35 2.17 1.09 1.24-1.63 1.44-4.15.97-2.73-.52-4.14-.68-8.93.04-3.24.48-4.88 2.72-4.88 2.72s.87 1.92 2.62 2.09c3.49.35 10.83-.28 10.29 1.15-.49 1.29-2.02 1.19-3.59 1.08-2.86-.19-5.4-.33-8.13.31-3.28.77-4.43 3.49-4.43 3.49s.82 1.41 2.76 1.44c3.56.06 7.99-1.17 8.89-.36 1.27 1.15-1.62 1.58-3.16 1.65-1.93.09-5.47.35-7.44 1.32-2.61 1.28-2.86 3.3-2.86 3.3s.57 1.04 3.24.84c.71-.05 3.32-.89 4.33-.7 1.6.31.23 1.28-1.54 1.74-.52.13-2.74.64-3.71 1.17-1.01.55-2.64 1.1-3 4.2 0 0 1.09.47 3.12-.15.95-.29 1.79-.95 2.28-.47.48.48-.66 1.88-.79 3.32-.28 2.95 1.44 4.23 1.44 4.23s1.95-1.23 2.28-3.58c.32-2.49-.51-3.69-.73-4.13z"/></svg><svg viewBox="0 0 128 128" id="2618" xmlns="http://www.w3.org/2000/svg"><linearGradient id="ama" x1="15.452" x2="107.2" y1="12.49" y2="125.49" gradientUnits="userSpaceOnUse"><stop offset="0" stop-color="#9CCC65"/><stop offset=".995" stop-color="#689F38"/></linearGradient><path fill="url(#ama)" d="M122.04 65.74l-.06-.3c-4.7-16.55-24.55-13.99-39.37-9.37-.93.29-1.93-.14-2.34-1.02l-.03-.07c-.43-.92-.1-2 .75-2.52 13.26-8.11 28.35-21.38 18.97-35.85-.06-.08-.13-.16-.19-.25-1.21-1.35-12.27-12.99-24.71-2.46-.93.78-2.36.52-2.94-.55-7.84-14.3-22.34-7.4-23.95-6.57-.09.05-.18.11-.26.16-13.95 10.14-4.62 27.96 4.85 40.28.6.78.5 1.89-.21 2.57l-.03.03c-.71.67-1.79.71-2.55.11-12.17-9.6-29.71-19.02-40-5.3l-.17.26c-.85 1.6-7.96 16 6.21 24.05 1.06.6 1.3 2.04.5 2.95-10.72 12.31.75 23.54 2.08 24.77.08.07.16.13.24.19 15.87 10.63 30.73-8.79 38.63-22.59.41-.72.97-1.38 2.05-.95s-1.15 8.35-2.66 12.03c-.78 1.83-1.6 3.71-2.57 5.55-.93 1.86-2 3.66-3.11 5.43-1.15 1.74-2.34 3.44-3.63 4.99-.64.79-1.28 1.55-1.97 2.26-.65.74-1.35 1.41-2.04 2.06a38.204 38.204 0 01-4.18 3.47c-.67.53-1.39.95-2.07 1.39-.66.45-1.34.82-2 1.17-1.28.75-2.55 1.24-3.63 1.74-1.13.41-2.1.78-2.91 1.04-1.65.46-2.59.72-2.59.72l-.3.08c-.34.1-.68.23-1.01.42-1.43.8-2.5 2.89-2.26 4.52.43 2.99 3.43 4.65 6.08 3.65 0 0 1.13-.43 3.11-1.17 30.96-13.17 31.14-48.49 33.96-48.32 1.23.07 1.13.88 1.26 1.7 2.43 15.71 9.33 39.17 27.96 34.94l.3-.09c1.69-.67 16.42-7.04 10.83-22.35-.42-1.14.33-2.39 1.53-2.58 16.13-2.43 14.65-18.42 14.43-20.22z"/><path fill="#424242" d="M57.96 6.49c5.32 0 9.46 2.65 12.33 7.87a4.026 4.026 0 006.12 1.13c3.04-2.57 6.22-3.88 9.45-3.88 6.51 0 11.55 5.24 12.32 6.08l.08.12c2.34 3.64 3.05 7.25 2.19 11.06-2.02 8.88-12.28 16.77-20.54 21.82a4.052 4.052 0 00-1.55 5.19l.03.07a4.045 4.045 0 004.85 2.13c7.19-2.24 13.55-3.37 18.93-3.37 9.79 0 15.62 3.68 17.8 11.24l.02.14c.11.93.43 4.87-.99 8.84-1.81 5.07-5.74 8.09-11.69 8.99-1.19.18-2.23.88-2.85 1.93a3.982 3.982 0 00-.32 3.43c2.06 5.64 1.29 10.54-2.28 14.56-2.81 3.16-6.42 4.75-7.29 5.11l-.14.04c-1.29.29-2.54.43-3.73.43-6.01 0-11.04-3.76-14.95-11.19-3.74-7.12-5.7-16.15-6.67-22.48l-.03-.26c-.24-2.02-1.3-3.09-3.16-3.2h-.14c-2.3 0-2.85 2.17-4.08 6.94-2.66 10.38-8.21 31.97-30.64 41.53l-3.07 1.16c-.28.1-.57.16-.86.16-1.05 0-2.22-.74-2.42-2.15-.11-.76.53-2.02 1.22-2.4.18-.1.36-.18.55-.23l.3-.08 2.59-.72c.03-.01.06-.02.1-.03.69-.23 1.45-.51 2.33-.83l.64-.24c.06-.02.12-.05.17-.07.3-.14.61-.28.94-.42.85-.38 1.82-.8 2.81-1.38.66-.35 1.41-.76 2.12-1.24.17-.11.34-.22.52-.33.51-.32 1.09-.69 1.66-1.14 1.55-1.12 3.02-2.34 4.35-3.61.65-.61 1.42-1.35 2.14-2.17.77-.8 1.47-1.64 2.04-2.34 1.47-1.77 2.79-3.69 3.77-5.18.01-.02.02-.03.03-.05.94-1.51 2.16-3.52 3.18-5.56 1.03-1.96 1.9-3.97 2.65-5.73.04-.1 4.07-10.51 2.84-13.43-.26-.62-.73-1.09-1.33-1.33-.47-.19-.95-.29-1.42-.29-1.32 0-2.4.72-3.22 2.14-5.26 9.19-15.82 24.59-27.43 24.59-2.76 0-5.5-.89-8.16-2.66l-.11-.09c-.68-.64-3.48-3.43-4.97-7.38-1.9-5.04-.86-9.88 3.09-14.41.79-.91 1.13-2.12.93-3.31-.2-1.2-.92-2.23-1.97-2.82-5.23-2.97-7.81-7.2-7.69-12.58.1-4.22 1.82-7.78 2.25-8.61l.08-.12c3.05-4.03 6.87-6 11.68-6 8.62 0 18.52 6.39 25.32 11.74.71.56 1.6.87 2.5.87 1.03 0 2.02-.39 2.8-1.13 1.5-1.42 1.69-3.72.43-5.35-5.9-7.68-12.66-18.72-11.35-27.74.56-3.86 2.52-6.98 6.01-9.53l.12-.07c.84-.48 4.49-2.18 8.77-2.18m0-2.08c-4.88 0-8.98 1.97-9.8 2.38-.09.05-.18.11-.26.16-13.95 10.14-4.62 27.96 4.85 40.28.6.78.5 1.89-.21 2.57l-.03.03c-.38.36-.85.53-1.34.53-.43 0-.86-.14-1.21-.42-7.78-6.13-17.74-12.19-26.61-12.19-5.01 0-9.68 1.94-13.4 6.89l-.17.26c-.85 1.6-7.96 16 6.21 24.05 1.06.6 1.3 2.04.5 2.95-10.7 12.3.77 23.53 2.1 24.76.08.07.16.13.24.19 3.19 2.13 6.33 3.06 9.39 3.06 12.17 0 22.93-14.62 29.24-25.64.32-.56.73-1.09 1.41-1.09.19 0 .4.04.64.14 1.07.43-1.15 8.35-2.66 12.03-.78 1.83-1.6 3.71-2.57 5.55-.93 1.86-2 3.66-3.11 5.43-1.15 1.74-2.34 3.44-3.63 4.99-.64.79-1.28 1.55-1.97 2.26-.65.74-1.35 1.41-2.04 2.06a38.204 38.204 0 01-4.18 3.47c-.67.53-1.39.95-2.07 1.39-.66.45-1.34.82-2 1.17-1.28.75-2.55 1.24-3.63 1.75-1.13.41-2.1.78-2.91 1.04-1.65.46-2.59.72-2.59.72l-.3.08c-.34.1-.68.23-1.01.42-1.43.8-2.5 2.89-2.26 4.52a4.528 4.528 0 006.08 3.65s1.13-.43 3.11-1.17c30.89-13.13 31.14-48.32 33.94-48.32h.02c1.23.07 1.13.88 1.26 1.7 2.23 14.44 8.25 35.44 23.68 35.44 1.35 0 2.77-.16 4.27-.5l.3-.09c1.69-.67 16.42-7.04 10.83-22.35-.42-1.14.33-2.39 1.53-2.58 16.12-2.43 14.64-18.42 14.43-20.22l-.06-.3c-2.76-9.7-10.72-12.84-19.83-12.84-6.42 0-13.41 1.56-19.55 3.47-.19.06-.39.09-.59.09-.73 0-1.43-.41-1.76-1.11l-.03-.07c-.43-.92-.1-2 .75-2.52 13.26-8.11 28.35-21.38 18.97-35.85-.06-.08-.13-.16-.19-.25-.84-.93-6.42-6.83-13.92-6.83-3.31 0-6.99 1.15-10.79 4.37-.36.31-.8.45-1.24.45-.68 0-1.35-.35-1.7-1-3.85-7.07-9.36-8.96-14.13-8.96z" opacity=".2"/></svg></svg>