<?xml version="1.0" encoding="utf-8"?><svg viewBox="0 0 128 128" xmlns="http://www.w3.org/2000/svg" xmlns:xlink="http://www.w3.org/1999/xlink"><style>:root>svg{display:none}:root>svg:target{display:block}</style><svg viewBox="0 0 128 128" id="1F52F" xmlns="http://www.w3.org/2000/svg"><linearGradient id="aaa" x1="64" x2="64" y1="4.25" y2="124.41" gradientUnits="userSpaceOnUse"><stop offset="0" stop-color="#B388FF"/><stop offset=".377" stop-color="#A175FF"/><stop offset="1" stop-color="#7C4DFF"/></linearGradient><path fill="url(#aaa)" d="M116 124H12c-4.42 0-8-3.58-8-8V12c0-4.42 3.58-8 8-8h104c4.42 0 8 3.58 8 8v104c0 4.42-3.58 8-8 8z"/><path fill="#424242" d="M116 7c2.76 0 5 2.24 5 5v104c0 2.76-2.24 5-5 5H12c-2.76 0-5-2.24-5-5V12c0-2.76 2.24-5 5-5h104m0-3H12c-4.42 0-8 3.58-8 8v104c0 4.42 3.58 8 8 8h104c4.42 0 8-3.58 8-8V12c0-4.42-3.58-8-8-8z" opacity=".2"/><path fill="#424242" d="M64 58c3.31 0 6 2.69 6 6s-2.69 6-6 6-6-2.69-6-6 2.69-6 6-6m0-3c-4.96 0-9 4.04-9 9s4.04 9 9 9 9-4.04 9-9-4.04-9-9-9z" opacity=".2"/><circle cx="64" cy="64" r="6" fill="#FAFAFA"/><path fill="#424242" d="M64 16c.33 0 .66.16.85.48L78.67 40h27.55c.78 0 1.26.86.85 1.52L93.33 64l13.74 22.48a.996.996 0 01-.85 1.52H78.67l-13.81 23.52c-.2.32-.53.48-.86.48s-.66-.16-.85-.48L49.33 88H21.78c-.78 0-1.26-.86-.85-1.52L34.67 64 20.93 41.52c-.41-.66.07-1.52.85-1.52h27.55l13.81-23.52c.2-.32.53-.48.86-.48m-7.63 24h15.27L64 26.59 56.37 40m33.45 18.25L97.3 46H82.33l7.49 12.25M52.7 82h22.6l11-18-11-18H52.7l-11 18 11 18M38.18 58.25L45.67 46H30.7l7.48 12.25M82.33 82H97.3l-7.48-12.25L82.33 82M30.7 82h14.97l-7.48-12.25L30.7 82M64 101.41L71.63 88H56.37L64 101.41M64 13c-1.4 0-2.68.72-3.41 1.91l-.02.04L47.62 37H21.78c-1.45 0-2.78.78-3.49 2.04s-.68 2.81.08 4.04L31.15 64 18.37 84.91a4.025 4.025 0 00-.08 4.04A4.003 4.003 0 0021.78 91h25.83l12.94 22.04.02.04c.73 1.2 2.01 1.91 3.41 1.91s2.68-.72 3.41-1.91l.02-.04L80.38 91h25.83c1.45 0 2.78-.78 3.49-2.04s.68-2.81-.08-4.04L96.85 64l12.78-20.91c.75-1.23.78-2.78.08-4.04a4.003 4.003 0 00-3.49-2.05H80.38L67.44 14.96l-.02-.04A4.001 4.001 0 0064 13zm-2.48 24L64 32.65 66.48 37h-4.96zm26.16 12h4.27l-2.13 3.49L87.68 49zm-33.3 0h19.24l9.17 15-9.17 15H54.38l-9.17-15 9.17-15zm-18.33 0h4.27l-2.13 3.49L36.05 49zm51.63 30l2.14-3.49L91.95 79h-4.27zm-51.63 0l2.13-3.49L40.32 79h-4.27zm25.48 12h4.95L64 95.35 61.53 91z" opacity=".2"/><path fill="#FAFAFA" d="M93.33 64l13.74-22.48a.996.996 0 00-.85-1.52H78.67L64.85 16.48c-.39-.64-1.32-.64-1.71 0L49.33 40H21.78c-.78 0-1.26.86-.85 1.52L34.67 64 20.93 86.48c-.41.66.07 1.52.85 1.52h27.55l13.81 23.52c.39.64 1.32.64 1.71 0L78.67 88h27.55c.78 0 1.26-.86.85-1.52L93.33 64zm3.97-18l-7.48 12.25L82.33 46H97.3zm-11 18l-11 18H52.7l-11-18 11-18h22.6l11 18zM64 26.59L71.64 40H56.36L64 26.59zM30.7 46h14.97l-7.48 12.25L30.7 46zm0 36l7.48-12.25L45.67 82H30.7zM64 101.41L56.37 88h15.27L64 101.41zm25.82-31.66L97.3 82H82.33l7.49-12.25z"/></svg><svg viewBox="0 0 128 128" id="1F549" xmlns="http://www.w3.org/2000/svg"><linearGradient id="aba" x1="64" x2="64" y1="4.25" y2="124.41" gradientUnits="userSpaceOnUse"><stop offset="0" stop-color="#B388FF"/><stop offset=".377" stop-color="#A175FF"/><stop offset="1" stop-color="#7C4DFF"/></linearGradient><path fill="url(#aba)" d="M116 124H12c-4.42 0-8-3.58-8-8V12c0-4.42 3.58-8 8-8h104c4.42 0 8 3.58 8 8v104c0 4.42-3.58 8-8 8z"/><path fill="#424242" d="M116 7c2.76 0 5 2.24 5 5v104c0 2.76-2.24 5-5 5H12c-2.76 0-5-2.24-5-5V12c0-2.76 2.24-5 5-5h104m0-3H12c-4.42 0-8 3.58-8 8v104c0 4.42 3.58 8 8 8h104c4.42 0 8-3.58 8-8V12c0-4.42-3.58-8-8-8z" opacity=".2"/><g fill="#424242" opacity=".2"><path d="M46.18 34.15c27.08 0 17.13 22.94 5.75 30.34-5.63 3.66 2.95 7.36 7.74 7.36.28 0 .55-.01.8-.04 19.41-2.03 11.91-22.28 30.44-24.65.82-.11 1.63-.16 2.4-.16 6.5 0 11.43 3.51 14.53 7.99 7.18 10.35 3.32 28.25 1.23 34.28-3.34 9.62-8.61 12.73-16.18 12.73-7.77 0-13.95-6.21-16.39-13.92-.08-.26.13-.48.35-.48.09 0 .17.03.24.11 1.77 1.99 5.15 5.97 12.46 5.97 2.27 0 4.91-.38 8-1.33 6.95-2.12 9.82-11.79 10.25-18.72.74-12.01-2.98-20-7.91-21.53-.86-.27-1.74-.39-2.61-.39-6.47 0-12.86 6.89-15.5 12.69-3.98 8.72-16.64 7.65-19.07 9.99-2.47 2.37 5.89 13.99 2.07 23.7C61.13 107.41 52.05 112 43.49 112c-9.21 0-23.82-3.93-27.48-24.93-.06-.33.2-.55.47-.55.15 0 .3.07.39.24 2.85 4.98 10.48 15.19 25.15 15.19 12.82 0 24.44-14.82 15.04-25.13-3.56-3.91-12.5-.1-16.22-5.86-1.3-2.01-4.93-7.4-2.96-7.5 24.28-1.25 24.7-21.37 10.72-21.37-.49 0-.99.02-1.51.07-5.31.51-13.33 5.08-16.7 7.2-.06.04-.12.06-.2.06-.17 0-.34-.1-.43-.25l-4.29-6.91c-.13-.21-.07-.48.13-.64 3.74-2.79 11.35-7.47 20.38-7.47h.2m0-3h-.22c-9.88 0-18.13 5.06-22.16 8.07a3.47 3.47 0 00-.89 4.62l4.29 6.9a3.538 3.538 0 002.98 1.67c.63 0 1.25-.18 1.79-.52 4.58-2.87 11.35-6.36 15.4-6.75.42-.04.83-.06 1.23-.06 3.75 0 6.22 1.88 6.3 4.8.1 3.89-4.39 9.91-17.17 10.57-1.31.07-2.44.78-3.01 1.91-1.14 2.23.11 4.83 3.35 9.81l.26.4c2.86 4.43 7.81 4.8 11.43 5.07 2.11.16 4.3.32 5.1 1.19 3.56 3.9 2.88 7.95 1.68 10.66-2.42 5.47-8.52 9.45-14.5 9.45-12.81 0-19.62-8.57-22.55-13.68a3.462 3.462 0 00-3-1.75c-1.03 0-2 .45-2.67 1.24-.66.78-.93 1.81-.76 2.82C17.36 112.33 35.77 115 43.49 115c10.86 0 20.32-6.2 24.1-15.81 2.66-6.75.43-13.82-1.19-18.98-.39-1.25-.9-2.86-1.07-3.82.77-.24 2.01-.51 2.98-.72 5.14-1.1 12.91-2.76 16.22-10.03 2.4-5.26 7.96-10.93 12.77-10.93.59 0 1.16.09 1.71.26 3.31 1.03 6.47 7.86 5.81 18.48-.41 6.65-3.13 14.51-8.13 16.04-2.6.79-5 1.2-7.13 1.2-5.81 0-8.39-2.91-10.1-4.83l-.11-.13a3.331 3.331 0 00-2.48-1.12c-1.07 0-2.08.52-2.72 1.39-.63.86-.82 1.98-.49 3 3.03 9.58 10.76 16.01 19.25 16.01 9.48 0 15.52-4.69 19.01-14.75.08-.23 7.91-23.27-1.6-36.98-4.15-5.98-10.19-9.28-17-9.28-.91 0-1.85.06-2.78.18C79.82 45.55 76.45 52.17 73.47 58c-2.84 5.57-5.09 9.97-13.31 10.83-.14.02-.31.02-.49.02-2.22 0-4.96-.98-6.16-1.81.02-.01.04-.02.05-.04 8.08-5.26 14.99-16.75 12.4-25.5-1.4-4.72-5.97-10.35-19.78-10.35z"/><path d="M100.02 26.43c.67 0 1.34.31 1.79.9.54.71 1.24 1.46 2.15 2.16 1.23.95 1.19 2.82-.13 3.65C98.75 36.34 91.28 40 83.55 40h-.09c-11.99-.05-20.2-5.51-22.56-9.53-1.01-1.72-1.13-2.36-.56-2.36 1.73 0 9.9 6.02 19.08 6.02.65 0 1.31-.03 1.98-.1 10.23-1.01 14.56-4.4 17.06-6.93.43-.45 1-.67 1.56-.67m0-3c-1.4 0-2.72.55-3.71 1.55-2.32 2.35-6.15 5.16-15.22 6.06-.55.05-1.11.08-1.68.08-5.7 0-11.24-2.75-14.55-4.39-2.13-1.05-3.3-1.63-4.52-1.63-1.23 0-2.31.61-2.9 1.64-1.09 1.9.09 3.91.87 5.24C61.5 37.42 71.16 42.95 83.44 43h.11c8.48 0 16.58-3.98 21.88-7.32 1.44-.9 2.34-2.45 2.42-4.14.08-1.71-.69-3.36-2.05-4.42a8.255 8.255 0 01-1.59-1.59c-1.01-1.33-2.53-2.1-4.19-2.1z"/><path d="M82.43 16c.51 0 1.02.2 1.41.59l4.17 4.17c.78.78.78 2.05 0 2.83l-4.17 4.17c-.39.39-.9.59-1.41.59s-1.02-.2-1.41-.59l-4.17-4.17c-.78-.78-.78-2.05 0-2.83l4.17-4.17c.38-.39.9-.59 1.41-.59m0-3c-1.34 0-2.59.52-3.54 1.46l-4.17 4.17c-.94.94-1.46 2.2-1.46 3.54s.52 2.59 1.46 3.54l4.17 4.17c.94.94 2.2 1.46 3.54 1.46s2.59-.52 3.54-1.46l4.17-4.17c.94-.94 1.46-2.2 1.46-3.54s-.52-2.59-1.46-3.54l-4.17-4.17A5.01 5.01 0 0082.43 13z"/></g><path fill="#FAFAFA" d="M107.84 55c-3.48-5.02-9.24-8.81-16.94-7.83-18.53 2.36-11.03 22.61-30.44 24.65-4.53.48-14.51-3.45-8.54-7.32 11.41-7.42 21.39-30.46-5.95-30.34-9.02 0-16.64 4.68-20.38 7.47-.21.15-.26.43-.13.64l4.29 6.91c.09.15.26.25.43.25.07 0 .14-.02.2-.06 3.37-2.11 11.39-6.68 16.7-7.2 15.5-1.5 15.92 20-9.2 21.29-1.97.1 1.67 5.49 2.96 7.5 3.72 5.77 12.66 1.95 16.22 5.86 9.39 10.3-2.22 25.13-15.04 25.13-14.67 0-22.3-10.21-25.15-15.19-.26-.45-.95-.2-.86.32 3.66 21 18.27 24.93 27.48 24.93 8.56 0 17.64-4.59 21.31-13.91 3.82-9.71-4.54-21.33-2.07-23.7 2.43-2.33 15.09-1.27 19.07-9.99 3-6.57 10.83-14.56 18.11-12.29 4.93 1.54 8.65 9.52 7.91 21.53-.43 6.93-3.3 16.6-10.25 18.72-13.06 3.99-18.15-2.04-20.46-4.64-.25-.28-.71.01-.59.37 2.44 7.7 8.62 13.92 16.39 13.92 7.57 0 12.84-3.12 16.18-12.73 2.07-6.04 5.93-23.95-1.25-34.29z"/><g fill="#FAFAFA"><path d="M101.81 27.33a2.219 2.219 0 00-3.36-.24c-2.5 2.53-6.83 5.92-17.06 6.93-13 1.29-24.78-10.89-20.49-3.56 2.36 4.02 10.57 9.49 22.56 9.53 7.76.03 15.28-3.65 20.37-6.86 1.32-.83 1.37-2.69.13-3.65-.91-.69-1.61-1.44-2.15-2.15z"/><path d="M83.84 16.59l4.17 4.17c.78.78.78 2.05 0 2.83l-4.17 4.17c-.78.78-2.05.78-2.83 0l-4.17-4.17c-.78-.78-.78-2.05 0-2.83l4.17-4.17c.78-.79 2.05-.79 2.83 0z"/></g></svg><svg viewBox="0 0 128 128" id="1F54E" xmlns="http://www.w3.org/2000/svg"><linearGradient id="aca" x1="64" x2="64" y1="4.25" y2="124.41" gradientUnits="userSpaceOnUse"><stop offset="0" stop-color="#B388FF"/><stop offset=".377" stop-color="#A175FF"/><stop offset="1" stop-color="#7C4DFF"/></linearGradient><path fill="url(#aca)" d="M116 124H12c-4.42 0-8-3.58-8-8V12c0-4.42 3.58-8 8-8h104c4.42 0 8 3.58 8 8v104c0 4.42-3.58 8-8 8z"/><path fill="#424242" d="M116 7c2.76 0 5 2.24 5 5v104c0 2.76-2.24 5-5 5H12c-2.76 0-5-2.24-5-5V12c0-2.76 2.24-5 5-5h104m0-3H12c-4.42 0-8 3.58-8 8v104c0 4.42 3.58 8 8 8h104c4.42 0 8-3.58 8-8V12c0-4.42-3.58-8-8-8z" opacity=".2"/><g fill="#424242" opacity=".2"><path d="M18.98 24c.13 0 .27.07.37.21.82 1.12 2.72 4.04 2.64 6.9v.05c0 2.67-1.34 4.84-2.98 4.84h-.04C17.34 36 16 33.83 16 31.16v-.05c-.08-2.86 1.8-5.77 2.61-6.89.11-.15.24-.22.37-.22m0-3c-1.11 0-2.13.53-2.8 1.45-1.22 1.68-3.23 5.01-3.18 8.6v.1c0 4.31 2.39 7.6 5.63 7.83l.04.02h.64l.05-.01c3.24-.22 5.64-3.51 5.64-7.83V31.01c.03-3.58-2-6.9-3.22-8.57-.68-.92-1.69-1.44-2.8-1.44z"/><path d="M30.23 24c.13 0 .27.07.37.21.82 1.12 2.72 4.04 2.64 6.9v.05c0 2.67-1.34 4.84-2.98 4.84h-.04c-1.65 0-2.98-2.17-2.98-4.84v-.05c-.08-2.86 1.8-5.77 2.61-6.89.12-.15.25-.22.38-.22m0-3c-1.11 0-2.13.53-2.8 1.45-1.22 1.68-3.23 5.01-3.18 8.6v.1c0 4.31 2.39 7.6 5.63 7.83l.04.02h.64l.05-.01c3.24-.22 5.64-3.51 5.64-7.83V31.01c.03-3.58-2-6.9-3.22-8.57-.68-.92-1.69-1.44-2.8-1.44z"/><path d="M41.48 24c.13 0 .27.07.37.21.82 1.12 2.72 4.04 2.64 6.9v.05c0 2.67-1.34 4.84-2.98 4.84h-.04c-1.65 0-2.98-2.17-2.98-4.84v-.05c-.08-2.86 1.8-5.77 2.61-6.89.12-.15.25-.22.38-.22m0-3c-1.11 0-2.13.53-2.8 1.45-1.22 1.68-3.23 5.01-3.18 8.6v.1c0 4.31 2.39 7.6 5.63 7.83l.04.02h.64l.05-.01c3.24-.22 5.64-3.51 5.64-7.83V31.01c.03-3.58-2-6.9-3.22-8.57-.68-.92-1.69-1.44-2.8-1.44z"/><path d="M52.73 24c.13 0 .27.07.37.21.82 1.12 2.72 4.04 2.64 6.9v.05c0 2.67-1.34 4.84-2.98 4.84h-.04c-1.65 0-2.98-2.17-2.98-4.84v-.05c-.08-2.86 1.8-5.77 2.61-6.89.12-.15.25-.22.38-.22m0-3c-1.11 0-2.13.53-2.8 1.45-1.22 1.68-3.23 5.01-3.18 8.6v.1c0 4.31 2.39 7.6 5.63 7.83l.04.02h.64l.05-.01c3.24-.22 5.64-3.51 5.64-7.83V31.01c.03-3.58-2-6.9-3.22-8.57-.68-.92-1.69-1.44-2.8-1.44zM63.98 16c.13 0 .27.07.37.21.82 1.12 2.72 4.04 2.64 6.9v.05c0 2.67-1.34 4.84-2.98 4.84h-.04C62.34 28 61 25.83 61 23.16v-.05c-.08-2.86 1.8-5.77 2.61-6.89.11-.15.24-.22.37-.22m0-3c-1.11 0-2.13.53-2.8 1.45-1.22 1.68-3.23 5.01-3.18 8.6v.1c0 4.31 2.39 7.6 5.63 7.83l.04.02h.64l.05-.01c3.24-.22 5.64-3.51 5.64-7.83V23.01c.03-3.58-2-6.9-3.22-8.57-.68-.92-1.69-1.44-2.8-1.44zM75.23 24c.13 0 .27.07.37.21.82 1.12 2.72 4.04 2.64 6.9v.05c0 2.67-1.34 4.84-2.98 4.84h-.04c-1.65 0-2.98-2.17-2.98-4.84v-.05c-.08-2.86 1.8-5.77 2.61-6.89.12-.15.25-.22.38-.22m0-3c-1.11 0-2.13.53-2.8 1.45-1.22 1.68-3.23 5.01-3.18 8.6v.1c0 4.31 2.39 7.6 5.63 7.83l.04.02h.64l.05-.01c3.24-.22 5.64-3.51 5.64-7.83V31.01c.03-3.58-2-6.9-3.22-8.57-.68-.92-1.69-1.44-2.8-1.44z"/><path d="M86.48 24c.13 0 .27.07.37.21.82 1.12 2.72 4.04 2.64 6.9v.05c0 2.67-1.34 4.84-2.98 4.84h-.04c-1.65 0-2.98-2.17-2.98-4.84v-.05c-.08-2.86 1.8-5.77 2.61-6.89.12-.15.25-.22.38-.22m0-3c-1.11 0-2.13.53-2.8 1.45-1.22 1.68-3.23 5.01-3.18 8.6v.1c0 4.31 2.39 7.6 5.63 7.83l.04.02h.64l.05-.01c3.24-.22 5.64-3.51 5.64-7.83V31.01c.03-3.58-2-6.9-3.22-8.57-.68-.92-1.69-1.44-2.8-1.44z"/><path d="M97.73 24c.13 0 .27.07.37.21.82 1.12 2.72 4.04 2.64 6.9v.05c0 2.67-1.34 4.84-2.98 4.84h-.04c-1.65 0-2.98-2.17-2.98-4.84v-.05c-.08-2.86 1.8-5.77 2.61-6.89.12-.15.25-.22.38-.22m0-3c-1.11 0-2.13.53-2.8 1.45-1.22 1.68-3.23 5.01-3.18 8.6v.1c0 4.31 2.39 7.6 5.63 7.83l.04.02h.64l.05-.01c3.24-.22 5.64-3.51 5.64-7.83V31.01c.03-3.58-2-6.9-3.22-8.57-.68-.92-1.69-1.44-2.8-1.44z"/><path d="M108.98 24c.13 0 .27.07.37.21.82 1.12 2.72 4.04 2.64 6.9v.05c0 2.67-1.34 4.84-2.98 4.84h-.04c-1.65 0-2.98-2.17-2.98-4.84v-.05c-.08-2.86 1.8-5.77 2.61-6.89.12-.15.25-.22.38-.22m0-3c-1.11 0-2.13.53-2.8 1.45-1.22 1.68-3.23 5.01-3.18 8.6v.1c0 4.31 2.39 7.6 5.63 7.83l.04.01h.64l.05-.01c3.24-.22 5.64-3.51 5.64-7.83V31c.03-3.58-2-6.9-3.22-8.57-.68-.91-1.69-1.43-2.8-1.43z"/><path d="M66 32c.55 0 1 .45 1 1v13.91c0 .59.48 1 1.01 1 .17 0 .34-.04.5-.14 2.44-1.42 4.16-3.95 4.45-6.89.05-.5.48-.88 1.36-.88h3.65c.59 0 1.04.5.99 1.09-.47 6.5-5.07 11.85-11.19 13.43-.45.12-.77.5-.77 1.28v2.75c0 .57.47 1 1.01 1 .07 0 .15-.01.22-.02 8.69-1.88 15.31-9.41 15.75-18.55.02-.55.45-.98 1.37-.98h3.63c.56 0 1.02.46 1 1.02-.49 12.58-9.92 22.87-22.12 24.68-.49.08-.86.49-.86.99v3.03c0 .56.45 1.01.99 1.01.04 0 .09 0 .13-.01 14.84-1.98 26.39-14.49 26.86-29.75.02-.53.45-.97 1-.97h4c.56 0 1.02.46 1.01 1.02-.51 18.65-14.82 33.85-33.08 35.76a.99.99 0 00-.9.99v3.01c0 .56.45 1.01 1 1.01h.1c20.92-2.03 37.4-19.47 37.9-40.81.01-.54.45-.98.99-.98h4c.56 0 1.02.46 1.01 1.02-.52 24.72-19.73 44.84-44.07 46.81-.54.04-.94.47-.94.99v12.3c0 .53.42.96.95 1 6.94.42 12.59 1.91 14.91 3.88 1.45 1.23 3.24 2 5.14 2 2.21 0 4 1.79 4 4H36c0-2.21 1.79-4 4-4 1.91 0 3.69-.77 5.14-2 2.32-1.97 7.97-3.46 14.91-3.88a1 1 0 00.95-1v-12.3c0-.52-.4-.95-.92-.99-24.34-1.97-43.55-22.09-44.07-46.81A1.01 1.01 0 0117.02 40h4c.54 0 .98.44.99.98.49 21.33 16.97 38.77 37.9 40.81H60c.54 0 1-.47 1-1.31v-2.72c0-.51-.39-.93-.9-.98-18.27-1.92-32.58-17.11-33.08-35.76a.995.995 0 011-1.02h4c.54 0 .97.44.99.98.48 15.26 12.03 27.77 26.86 29.75.04.01.09.01.13.01.54 0 .99-.47.99-1.31V66.7c0-.5-.37-.91-.86-.98-12.2-1.82-21.63-12.1-22.12-24.68-.01-.58.45-1.04 1.01-1.04h4c.54 0 .97.43 1 .97.44 9.14 7.05 16.67 15.75 18.55.07.02.15.02.22.02.54 0 1.01-.43 1.01-1v-3.06c0-.46-.32-.85-.77-.97-6.12-1.58-10.73-6.93-11.19-13.43-.04-.58.41-1.08 1-1.08h4.02c.51 0 .94.38.99.88.29 2.95 2.01 5.47 4.45 6.89.16.09.34.14.5.14.52 0 1.01-.42 1.01-1V33c0-.55.45-1 1-1H66m0-3h-4c-2.21 0-4 1.79-4 4v7.36A3.976 3.976 0 0054.05 37h-4.02c-1.11 0-2.17.46-2.93 1.27-.23.25-.42.52-.58.81a3.98 3.98 0 00-3.5-2.08h-4c-1.08 0-2.14.45-2.89 1.23-.24.25-.45.53-.61.83a3.97 3.97 0 00-3.5-2.06h-4a4.026 4.026 0 00-3.51 2.07 3.957 3.957 0 00-3.5-2.06h-4A4.008 4.008 0 0013 41.1c.26 12.67 5.21 24.72 13.92 33.94 8.26 8.71 19.23 14.21 31.08 15.6v8.63c-4.24.39-11.28 1.46-14.79 4.44-.7.59-1.82 1.29-3.21 1.29-3.86 0-7 3.14-7 7v3h62v-3c0-3.86-3.14-7-7-7-1.39 0-2.51-.7-3.21-1.29-3.52-2.98-10.56-4.05-14.79-4.44v-8.63c11.85-1.39 22.82-6.89 31.07-15.62a50.886 50.886 0 0013.92-33.94c.02-1.07-.39-2.11-1.14-2.88s-1.8-1.21-2.87-1.21h-4c-1.52 0-2.82.82-3.5 2.06-.17-.31-.38-.59-.63-.85a4.05 4.05 0 00-2.88-1.22h-4c-1.51 0-2.82.83-3.5 2.06-.17-.3-.37-.58-.61-.83-.75-.78-1.8-1.23-2.89-1.23h-3.63c-1.89 0-3.2.91-3.87 2.1-.16-.3-.36-.58-.59-.83A4.032 4.032 0 0077.97 37h-3.65c-2.63 0-4.05 1.7-4.32 3.37V33c0-2.21-1.79-4-4-4z"/></g><g fill="#FAFAFA"><path d="M22 31.11c.08-2.86-1.82-5.77-2.64-6.9-.21-.28-.53-.28-.74 0-.81 1.13-2.69 4.04-2.61 6.89v.05c0 2.67 1.34 4.84 2.98 4.84h.04c1.65 0 2.98-2.17 2.98-4.84-.01-.01-.01-.03-.01-.04zM33.25 31.11c.08-2.86-1.82-5.77-2.64-6.9-.21-.28-.53-.28-.74 0-.81 1.13-2.69 4.04-2.61 6.89v.05c0 2.67 1.34 4.84 2.98 4.84h.04c1.65 0 2.98-2.17 2.98-4.84-.01-.01-.01-.03-.01-.04zM44.5 31.11c.08-2.86-1.82-5.77-2.64-6.9-.21-.28-.53-.28-.74 0-.81 1.13-2.69 4.04-2.61 6.89v.05c0 2.67 1.34 4.84 2.98 4.84h.04c1.65 0 2.98-2.17 2.98-4.84-.01-.01-.01-.03-.01-.04zM55.75 31.11c.08-2.86-1.82-5.77-2.64-6.9-.21-.28-.53-.28-.74 0-.81 1.13-2.69 4.04-2.61 6.89v.05c0 2.67 1.34 4.84 2.98 4.84h.04c1.65 0 2.98-2.17 2.98-4.84-.01-.01-.01-.03-.01-.04zM67 23.11c.08-2.86-1.82-5.77-2.64-6.9-.21-.28-.53-.28-.74 0-.81 1.13-2.69 4.04-2.61 6.89v.05c0 2.67 1.34 4.84 2.98 4.84h.04c1.65 0 2.98-2.17 2.98-4.84-.01-.01-.01-.03-.01-.04zM78.25 31.11c.08-2.86-1.82-5.77-2.64-6.9-.21-.28-.53-.28-.74 0-.81 1.13-2.69 4.04-2.61 6.89v.05c0 2.67 1.34 4.84 2.98 4.84h.04c1.65 0 2.98-2.17 2.98-4.84-.01-.01-.01-.03-.01-.04zM89.5 31.11c.08-2.86-1.82-5.77-2.64-6.9-.21-.28-.53-.28-.74 0-.81 1.13-2.69 4.04-2.61 6.89v.05c0 2.67 1.34 4.84 2.98 4.84h.04c1.65 0 2.98-2.17 2.98-4.84-.01-.01-.01-.03-.01-.04zM100.75 31.11c.08-2.86-1.82-5.77-2.64-6.9-.21-.28-.53-.28-.74 0-.81 1.13-2.69 4.04-2.61 6.89v.05c0 2.67 1.34 4.84 2.98 4.84h.04c1.65 0 2.98-2.17 2.98-4.84-.01-.01-.01-.03-.01-.04zM112 31.11c.08-2.86-1.82-5.77-2.64-6.9-.21-.28-.53-.28-.74 0-.81 1.13-2.69 4.04-2.61 6.89v.05c0 2.67 1.34 4.84 2.98 4.84h.04c1.65 0 2.98-2.17 2.98-4.84-.01-.01-.01-.03-.01-.04z"/><path d="M67.92 87.83c24.34-1.97 43.55-22.09 44.07-46.81a1.01 1.01 0 00-1.01-1.02h-4c-.54 0-.98.44-.99.98-.49 21.33-16.97 38.77-37.9 40.81a.995.995 0 01-1.09-1v-3.01c0-.51.39-.93.9-.99 18.27-1.92 32.58-17.11 33.08-35.76a.997.997 0 00-1-1.03h-4c-.54 0-.97.44-.99.98-.48 15.26-12.03 27.77-26.86 29.75-.59.08-1.12-.4-1.12-1V66.7c0-.5.37-.91.86-.98 12.2-1.82 21.63-12.1 22.12-24.68a.995.995 0 00-1-1.02h-3.63c-.92 0-1.34.43-1.37.97-.44 9.14-7.05 16.67-15.75 18.55-.64.12-1.24-.35-1.24-.99V55.8c0-.77.32-1.16.77-1.28 6.12-1.58 10.73-6.93 11.19-13.43.04-.59-.41-1.09-.99-1.09h-3.65c-.88 0-1.31.38-1.36.88-.29 2.95-2.01 5.47-4.45 6.89-.67.39-1.51-.09-1.51-.86V33c0-.55-.45-1-1-1h-4c-.55 0-1 .45-1 1v13.91c0 .77-.84 1.26-1.51.87-2.44-1.42-4.16-3.95-4.45-6.89a.988.988 0 00-.99-.88h-4.02c-.59 0-1.04.5-1 1.09.47 6.5 5.07 11.85 11.19 13.43.45.12.77.5.77.97v3.06c0 .64-.6 1.11-1.23.98-8.69-1.88-15.31-9.41-15.75-18.55-.01-.56-.44-.99-.98-.99h-4c-.56 0-1.03.46-1 1.02.49 12.58 9.92 22.87 22.12 24.68.49.07.86.48.86.98v2.73c0 .9-.53 1.38-1.12 1.3-14.84-1.98-26.39-14.49-26.86-29.75-.03-.52-.46-.96-1.01-.96h-4c-.56 0-1.02.46-1.01 1.02.51 18.65 14.82 33.85 33.08 35.76.51.05.9.47.9.98v2.72c0 .89-.51 1.36-1.09 1.31C38.98 79.76 22.5 62.32 22 40.98c0-.54-.44-.98-.98-.98h-4c-.56 0-1.02.46-1.01 1.02.52 24.72 19.73 44.84 44.07 46.81.52.04.92.47.92.99v12.3c0 .53-.42.96-.95 1-6.94.42-12.59 1.91-14.91 3.88-1.45 1.23-3.24 2-5.14 2-2.21 0-4 1.79-4 4h56c0-2.21-1.79-4-4-4-1.91 0-3.69-.77-5.14-2-2.32-1.97-7.97-3.46-14.91-3.88a1 1 0 01-.95-1v-12.3c0-.52.4-.95.92-.99z"/></g></svg><svg viewBox="0 0 128 128" id="1F6D0" xmlns="http://www.w3.org/2000/svg"><linearGradient id="ada" x1="64" x2="64" y1="4.25" y2="124.41" gradientUnits="userSpaceOnUse"><stop offset="0" stop-color="#B388FF"/><stop offset=".377" stop-color="#A175FF"/><stop offset="1" stop-color="#7C4DFF"/></linearGradient><path fill="url(#ada)" d="M116 124H12c-4.42 0-8-3.58-8-8V12c0-4.42 3.58-8 8-8h104c4.42 0 8 3.58 8 8v104c0 4.42-3.58 8-8 8z"/><path fill="#424242" d="M116 7c2.76 0 5 2.24 5 5v104c0 2.76-2.24 5-5 5H12c-2.76 0-5-2.24-5-5V12c0-2.76 2.24-5 5-5h104m0-3H12c-4.42 0-8 3.58-8 8v104c0 4.42 3.58 8 8 8h104c4.42 0 8-3.58 8-8V12c0-4.42-3.58-8-8-8z" opacity=".2"/><g fill="#424242" opacity=".2"><path d="M63.21 34a9 9 0 11-.001 18.001A9 9 0 0163.21 34m0-3c-6.62 0-12 5.38-12 12s5.38 12 12 12 12-5.38 12-12-5.38-12-12-12z"/><path d="M70.61 54c3.46 0 6.63 2.29 7.6 5.79l7.8 27.09c1.05 3.81-1.07 7.42-4.47 9.23-.06.03-9.57 5.64-9.57 5.64-.49.3-.28 1.05.29 1.05H87.5c2.4 0 4.55 1.76 4.78 4.15A4.603 4.603 0 0187.7 112H53.73c-.04 0-.07-.01-.11-.01-.16 0-.32-.03-.48-.05-.14-.02-.29-.03-.43-.06s-.26-.08-.4-.12c-.15-.05-.31-.09-.45-.16-.12-.05-.24-.13-.36-.19-.14-.08-.28-.15-.41-.24-.11-.08-.21-.17-.32-.26-.12-.1-.25-.2-.36-.32-.09-.09-.16-.2-.24-.29-.11-.14-.22-.28-.32-.43-.02-.03-.04-.05-.06-.08-.05-.08-.07-.17-.12-.25-.08-.16-.16-.31-.23-.48-.05-.13-.09-.27-.13-.41-.04-.15-.09-.3-.11-.45a3.87 3.87 0 01-.05-.49c-.01-.1-.03-.2-.03-.3 0-.04.01-.07.01-.11 0-.16.03-.32.05-.49.02-.14.03-.29.06-.42.03-.14.08-.27.13-.41.05-.15.09-.29.15-.43.06-.13.13-.25.21-.38.07-.13.14-.26.23-.39.08-.12.19-.23.28-.34.1-.11.19-.23.3-.33.1-.09.21-.18.32-.26.13-.11.26-.21.4-.3.03-.02.06-.05.09-.07L68.49 93.1a3.672 3.672 0 001.63-4.16l-5.68-19.9a.924.924 0 00-.89-.67c-.23 0-.46.08-.64.27l-7.33 7.27c-.17.24-.37.46-.6.66-.67.56-1.48.82-2.29.84h-.27c-.09 0-.18-.01-.27-.03-.81-.09-1.59-.42-2.21-1.04-.22-.22-.39-.46-.54-.71L36.27 60.07a3.679 3.679 0 01.47-5.18c.69-.58 1.53-.86 2.36-.86 1.05 0 2.1.45 2.83 1.32l9.62 11.4a1.842 1.842 0 002.7.12l10.23-10.14c.24-.24.49-.47.75-.68 1.34-1.07 2.29-1.48 3.28-1.76.7-.2 1.4-.29 2.1-.29m0-3c-.98 0-1.95.13-2.9.39-1.57.43-2.87 1.12-4.35 2.3-.32.25-.65.55-1 .9l-9.34 9.26-8.81-10.44a6.66 6.66 0 00-5.12-2.39c-1.56 0-3.08.55-4.28 1.55-1.37 1.14-2.21 2.75-2.37 4.53s.38 3.51 1.53 4.88L46.98 77.4c.26.4.54.75.85 1.06a6.568 6.568 0 003.97 1.89c.15.02.3.03.46.04h.52c1.54-.03 2.97-.57 4.13-1.53.34-.28.65-.6.94-.98l4.68-4.64 4.71 16.52c.08.29-.04.61-.3.77L49.8 100.9c-.11.07-.21.14-.29.19-.21.14-.38.28-.51.38l-.08.06c-.16.13-.32.26-.47.4-.2.19-.35.37-.45.49l-.1.12c-.1.12-.25.29-.41.51s-.27.43-.34.56l-.08.14c-.07.13-.19.32-.29.57-.11.25-.19.49-.24.64l-.04.14c-.07.2-.13.4-.18.61s-.08.41-.1.63l-.01.07c-.03.19-.05.4-.07.64-.01.1-.02.21-.02.35 0 .25.03.45.04.57.01.2.03.46.08.74.05.3.12.55.17.73l.02.07c.06.21.12.42.2.62.11.28.23.52.34.73.05.11.13.28.24.47.07.11.13.2.19.27.16.24.32.43.43.57l.04.05c.12.15.24.3.37.43.21.21.4.37.53.49l.1.1c.16.14.31.27.48.38.24.16.46.29.6.36l.07.04.06.04c.18.1.35.2.54.28.26.12.5.19.66.24l.14.04c.19.07.39.13.59.17.26.06.49.09.63.1l.07.01c.19.03.4.05.63.07.1.01.21.02.35.02H87.7c2.14 0 4.19-.91 5.62-2.49a7.632 7.632 0 001.94-5.85c-.37-3.85-3.78-6.86-7.76-6.86h-6.32c.96-.57 1.64-.97 1.82-1.07 4.9-2.63 7.27-7.7 5.91-12.64L81.1 58.95C79.8 54.29 75.49 51 70.61 51z"/></g><path fill="#424242" d="M64 16c1.22 0 2.45.15 3.64.45l42.09 11.27c1.61.4 2.58 2.03 2.18 3.64a2.998 2.998 0 01-3.64 2.18L66.18 22.27a8.916 8.916 0 00-4.36 0L19.73 33.54a3.007 3.007 0 01-3.64-2.18c-.4-1.61.58-3.24 2.18-3.64l42.09-11.27c1.19-.3 2.42-.45 3.64-.45m0-3c-1.47 0-2.94.18-4.37.54l-.04.02-42.07 11.25c-1.54.39-2.84 1.36-3.66 2.73s-1.06 2.99-.68 4.54a5.99 5.99 0 007.28 4.37l.04-.02 42.09-11.27c.43-.1.92-.16 1.41-.16s.98.06 1.45.18l42.04 11.26.06.02a5.992 5.992 0 007.27-4.36 5.92 5.92 0 00-.68-4.54 5.98 5.98 0 00-3.66-2.73L68.41 13.55l-.04-.02c-1.43-.35-2.9-.53-4.37-.53z" opacity=".2"/><g fill="#FAFAFA"><circle cx="63.21" cy="43" r="9"/><path d="M87.5 102.8H72.26c-.57 0-.78-.75-.29-1.05 0 0 9.51-5.61 9.57-5.64 3.4-1.8 5.53-5.42 4.47-9.23l-7.8-27.09a7.881 7.881 0 00-9.7-5.5c-1 .27-1.94.69-3.28 1.76-.26.21-.51.44-.75.68L54.24 66.86c-.76.76-2.01.7-2.7-.12l-9.62-11.4a3.679 3.679 0 00-5.65 4.71L49.4 75.63c.15.25.32.49.54.71.62.62 1.4.95 2.21 1.04l.27.03h.27c.81-.01 1.62-.28 2.29-.84.23-.2.43-.42.6-.66l7.33-7.27a.92.92 0 011.53.4l5.68 19.9c.46 1.6-.21 3.3-1.63 4.16l-17.14 10.37c-.03.02-.06.05-.09.07-.14.09-.27.2-.4.3-.11.09-.22.17-.32.26-.11.1-.2.22-.3.33s-.2.22-.28.34c-.09.12-.15.26-.23.39-.07.13-.15.25-.21.38-.06.14-.1.29-.15.43-.04.14-.1.27-.13.41s-.04.28-.06.42c-.02.16-.04.32-.05.49 0 .04-.01.07-.01.11 0 .1.02.2.03.3.01.16.02.33.05.49s.07.3.11.45c.04.14.07.27.13.41.06.17.15.32.23.48.04.08.07.17.12.25.02.03.04.05.06.08.1.15.21.29.32.43.08.1.16.2.24.29.11.12.24.21.36.32.11.09.21.18.32.26.13.09.27.16.41.24.12.07.23.14.36.19.14.06.3.11.45.16.13.04.26.09.4.12s.28.04.43.06c.16.02.32.04.48.05.04 0 .07.01.11.01H87.7c2.69 0 4.84-2.31 4.58-5.05-.23-2.38-2.38-4.14-4.78-4.14z"/></g><path fill="#FAFAFA" d="M19 33.63c-1.34 0-2.57-.91-2.91-2.27-.4-1.61.58-3.24 2.18-3.64l42.09-11.27c2.38-.59 4.9-.59 7.28 0l42.09 11.27c1.61.4 2.58 2.03 2.18 3.64s-2.03 2.58-3.64 2.18L66.18 22.27a8.976 8.976 0 00-4.37 0L19.73 33.54c-.25.06-.49.09-.73.09z"/></svg><svg viewBox="0 0 128 128" id="2626" xmlns="http://www.w3.org/2000/svg"><linearGradient id="aea" x1="64" x2="64" y1="4.25" y2="124.41" gradientUnits="userSpaceOnUse"><stop offset="0" stop-color="#B388FF"/><stop offset=".377" stop-color="#A175FF"/><stop offset="1" stop-color="#7C4DFF"/></linearGradient><path fill="url(#aea)" d="M116 124H12c-4.42 0-8-3.58-8-8V12c0-4.42 3.58-8 8-8h104c4.42 0 8 3.58 8 8v104c0 4.42-3.58 8-8 8z"/><path fill="#424242" d="M116 7c2.76 0 5 2.24 5 5v104c0 2.76-2.24 5-5 5H12c-2.76 0-5-2.24-5-5V12c0-2.76 2.24-5 5-5h104m0-3H12c-4.42 0-8 3.58-8 8v104c0 4.42 3.58 8 8 8h104c4.42 0 8-3.58 8-8V12c0-4.42-3.58-8-8-8z" opacity=".2"/><path fill="#424242" d="M64 16c2.76 0 5 2.24 5 5v6h14c2.76 0 5 2.24 5 5s-2.24 5-5 5H69v9h30c2.76 0 5 2.24 5 5s-2.24 5-5 5H69v25.11L81.5 88a5.002 5.002 0 011.83 6.83c-.93 1.6-2.61 2.5-4.33 2.5-.85 0-1.71-.22-2.5-.67l-7.5-4V107c0 2.76-2.24 5-5 5s-5-2.24-5-5V86.89L46.5 80a5.002 5.002 0 01-1.83-6.83c.93-1.6 2.61-2.5 4.33-2.5.85 0 1.71.22 2.5.67l7.5 4V56H29c-2.76 0-5-2.24-5-5s2.24-5 5-5h30v-9H45c-2.76 0-5-2.24-5-5s2.24-5 5-5h14v-6c0-2.76 2.24-5 5-5m0-3c-4.41 0-8 3.59-8 8v3H45c-4.41 0-8 3.59-8 8s3.59 8 8 8h11v3H29c-4.41 0-8 3.59-8 8s3.59 8 8 8h27v11.34l-3.05-1.63A8.048 8.048 0 0049 67.66c-2.85 0-5.51 1.53-6.93 4-2.21 3.82-.89 8.72 2.93 10.93l.03.02.03.01L56 88.66V107c0 4.41 3.59 8 8 8s8-3.59 8-8v-9.34l3.05 1.63c1.2.68 2.57 1.05 3.95 1.05 2.85 0 5.51-1.53 6.93-4 1.07-1.85 1.35-4.01.8-6.07s-1.88-3.79-3.73-4.86l-.03-.02-.03-.01L72 79.34V59h27c4.41 0 8-3.59 8-8s-3.59-8-8-8H72v-3h11c4.41 0 8-3.59 8-8s-3.59-8-8-8H72v-3c0-4.41-3.59-8-8-8z" opacity=".2"/><path fill="#FAFAFA" d="M99 56c2.76 0 5-2.24 5-5s-2.24-5-5-5H69v-9h14c2.76 0 5-2.24 5-5s-2.24-5-5-5H69v-6c0-2.76-2.24-5-5-5s-5 2.24-5 5v6H45c-2.76 0-5 2.24-5 5s2.24 5 5 5h14v9H29c-2.76 0-5 2.24-5 5s2.24 5 5 5h30v19.34l-7.5-4c-2.39-1.38-5.45-.56-6.83 1.83s-.56 5.45 1.83 6.83L59 86.89V107c0 2.76 2.24 5 5 5s5-2.24 5-5V92.66l7.5 4c.79.46 1.65.67 2.5.67 1.73 0 3.41-.9 4.33-2.5 1.38-2.39.56-5.45-1.83-6.83L69 81.11V56h30z"/></svg><svg viewBox="0 0 128 128" id="262A" xmlns="http://www.w3.org/2000/svg"><linearGradient id="afa" x1="64" x2="64" y1="4.25" y2="124.41" gradientUnits="userSpaceOnUse"><stop offset="0" stop-color="#B388FF"/><stop offset=".377" stop-color="#A175FF"/><stop offset="1" stop-color="#7C4DFF"/></linearGradient><path fill="url(#afa)" d="M116 124H12c-4.42 0-8-3.58-8-8V12c0-4.42 3.58-8 8-8h104c4.42 0 8 3.58 8 8v104c0 4.42-3.58 8-8 8z"/><path fill="#424242" d="M116 7c2.76 0 5 2.24 5 5v104c0 2.76-2.24 5-5 5H12c-2.76 0-5-2.24-5-5V12c0-2.76 2.24-5 5-5h104m0-3H12c-4.42 0-8 3.58-8 8v104c0 4.42 3.58 8 8 8h104c4.42 0 8-3.58 8-8V12c0-4.42-3.58-8-8-8z" opacity=".2"/><path fill="#fff" d="M72.05 116h.15v-.01c-.08 0-.17.01-.25.01h.1zM72.2 115.98h-.25c.26 0 .52.02.79.02-.18-.01-.36-.02-.54-.02z"/><path fill="#424242" d="M95.24 48c.52 0 1.03.3 1.22.9l3.01 9.53c.17.53.66.9 1.22.9h.01l9.99-.08h.01c1.24 0 1.76 1.6.74 2.33l-8.13 5.81c-.46.33-.65.92-.47 1.45l3.16 9.48c.3.9-.42 1.69-1.22 1.69-.25 0-.52-.08-.76-.26l-8.04-5.94c-.23-.17-.49-.25-.76-.25s-.54.08-.76.25l-8.04 5.94c-.22.17-.48.25-.73.25-.8 0-1.52-.79-1.22-1.69l3.16-9.48a1.28 1.28 0 00-.47-1.45l-8.13-5.81c-1.02-.73-.5-2.33.74-2.33h.01l9.99.08h.01c.56 0 1.05-.36 1.22-.9l3.01-9.53c.2-.59.72-.89 1.23-.89m0-3c-1.88 0-3.52 1.2-4.08 2.99l-2.63 8.32-8.72-.07c-1.9 0-3.54 1.2-4.11 2.97A4.27 4.27 0 0077.29 64l7.1 5.07-2.76 8.28c-.44 1.32-.23 2.73.58 3.85s2.11 1.79 3.49 1.79c.91 0 1.79-.29 2.54-.84l7.02-5.18 7.02 5.18c.75.55 1.63.84 2.54.84 1.38 0 2.68-.67 3.49-1.79s1.02-2.53.58-3.85l-2.76-8.28 7.1-5.07c1.52-1.09 2.16-3.01 1.59-4.79s-2.21-2.98-4.08-2.98l-8.76.07-2.63-8.32A4.32 4.32 0 0095.24 45z" opacity=".2"/><path fill="#424242" d="M64 16c14.99 0 28.37 6.87 37.17 17.63.56.68-.04 1.53-.72 1.53-.21 0-.42-.08-.62-.26-7.28-6.85-17.14-11.06-27.98-11.06-22.43 0-40.62 17.98-40.62 40.15 0 22.18 18.18 40.15 40.62 40.15 10.86 0 20.72-4.21 28.01-11.08.19-.18.41-.26.62-.26.68 0 1.27.85.71 1.54C92.38 105.12 78.99 112 64 112c-27.13 0-49.01-22.51-47.96-49.88.95-24.82 21.13-45.06 45.95-46.08.67-.03 1.34-.04 2.01-.04m0-3c-.71 0-1.43.01-2.13.04C35.49 14.12 14.05 35.63 13.04 62c-.54 14.01 4.51 27.28 14.21 37.36C36.96 109.45 50.01 115 64 115c15.37 0 29.77-6.83 39.5-18.75a3.9 3.9 0 00.52-4.16c-.66-1.38-2.05-2.27-3.56-2.27-.99 0-1.94.38-2.67 1.08-7.02 6.62-16.24 10.26-25.95 10.26-20.74 0-37.62-16.67-37.62-37.15S51.1 26.85 71.85 26.85c9.7 0 18.91 3.64 25.93 10.24.74.69 1.68 1.07 2.67 1.07 1.51 0 2.91-.89 3.57-2.28.65-1.37.45-2.96-.52-4.15C93.75 19.83 79.36 13 64 13z" opacity=".2"/><path fill="#fff" d="M96.47 48.9l3.01 9.53c.17.54.67.9 1.23.9l9.99-.08c1.25-.01 1.77 1.6.76 2.33l-8.13 5.81c-.46.33-.65.92-.47 1.45l3.16 9.48c.4 1.19-.97 2.18-1.98 1.44L96 73.82a1.29 1.29 0 00-1.52 0l-8.04 5.94c-1.01.74-2.37-.25-1.98-1.44l3.16-9.48a1.28 1.28 0 00-.47-1.45l-8.13-5.81c-1.02-.73-.5-2.34.76-2.33l9.99.08c.56 0 1.06-.36 1.23-.9l3.01-9.53c.39-1.2 2.08-1.2 2.46 0z"/><path fill="#FAFAFA" d="M71.85 104.15c-22.43 0-40.62-17.98-40.62-40.15 0-22.18 18.18-40.15 40.62-40.15 10.85 0 20.7 4.2 27.98 11.06.84.79 2.06-.38 1.34-1.27-9.2-11.25-23.39-18.24-39.18-17.6-24.82 1.01-45 21.26-45.95 46.08C14.99 89.49 36.87 112 64 112c14.99 0 28.38-6.88 37.18-17.65.73-.89-.49-2.07-1.33-1.28-7.28 6.87-17.14 11.08-28 11.08z"/></svg><svg viewBox="0 0 128 128" id="262E" xmlns="http://www.w3.org/2000/svg"><linearGradient id="aga" x1="64" x2="64" y1="4.25" y2="124.41" gradientUnits="userSpaceOnUse"><stop offset="0" stop-color="#B388FF"/><stop offset=".377" stop-color="#A175FF"/><stop offset="1" stop-color="#7C4DFF"/></linearGradient><path fill="url(#aga)" d="M116 124H12c-4.42 0-8-3.58-8-8V12c0-4.42 3.58-8 8-8h104c4.42 0 8 3.58 8 8v104c0 4.42-3.58 8-8 8z"/><path fill="#424242" d="M116 7c2.76 0 5 2.24 5 5v104c0 2.76-2.24 5-5 5H12c-2.76 0-5-2.24-5-5V12c0-2.76 2.24-5 5-5h104m0-3H12c-4.42 0-8 3.58-8 8v104c0 4.42 3.58 8 8 8h104c4.42 0 8-3.58 8-8V12c0-4.42-3.58-8-8-8z" opacity=".2"/><path fill="#fff" d="M72.05 116h.15v-.01c-.08 0-.17.01-.25.01h.1zM72.2 115.98h-.25c.26 0 .52.02.79.02-.18-.01-.36-.02-.54-.02z"/><path fill="#424242" d="M64 16c26.51 0 48 21.49 48 48s-21.49 48-48 48-48-21.49-48-48 21.49-48 48-48m30.96 73.3C100.6 82.4 104 73.59 104 64c0-20.71-15.82-37.79-36-39.8v38.14L94.96 89.3m-61.92 0L60 62.34V24.2C39.82 26.21 24 43.29 24 64c0 9.59 3.4 18.4 9.04 25.3M60 103.8V73.66l-21.3 21.3c5.93 4.85 13.27 8.04 21.3 8.84m8 0c8.03-.8 15.37-3.99 21.3-8.84L68 73.66v30.14M64 13c-28.12 0-51 22.88-51 51s22.88 51 51 51 51-22.88 51-51-22.88-51-51-51zm7 48.1V27.67c7.79 1.5 14.93 5.49 20.35 11.44A36.899 36.899 0 01101 64c0 7.39-2.24 14.63-6.37 20.73L71 61.1zM33.37 84.73A37.044 37.044 0 0127 64c0-9.22 3.43-18.06 9.65-24.89 5.42-5.95 12.56-9.95 20.35-11.44V61.1L33.37 84.73zm9.9 9.9L57 80.9v19.44c-4.92-.95-9.57-2.89-13.73-5.71zm27.73 5.7V80.9l13.73 13.73a36.71 36.71 0 01-13.73 5.7z" opacity=".2"/><path fill="#fff" d="M64 16c-26.51 0-48 21.49-48 48s21.49 48 48 48 48-21.49 48-48-21.49-48-48-48zm40 48c0 9.59-3.4 18.4-9.04 25.3L68 62.34V24.2c20.18 2.01 36 19.09 36 39.8zm-44 39.8c-8.03-.8-15.37-3.99-21.3-8.84L60 73.66v30.14zm8-30.14l21.3 21.3C83.37 99.81 76.03 103 68 103.8V73.66zM60 24.2v38.14L33.04 89.3C27.4 82.4 24 73.59 24 64c0-20.71 15.82-37.79 36-39.8z"/></svg><svg viewBox="0 0 128 128" id="262F" xmlns="http://www.w3.org/2000/svg"><linearGradient id="aha" x1="64" x2="64" y1="4.25" y2="124.41" gradientUnits="userSpaceOnUse"><stop offset="0" stop-color="#B388FF"/><stop offset=".377" stop-color="#A175FF"/><stop offset="1" stop-color="#7C4DFF"/></linearGradient><path fill="url(#aha)" d="M116 124H12c-4.42 0-8-3.58-8-8V12c0-4.42 3.58-8 8-8h104c4.42 0 8 3.58 8 8v104c0 4.42-3.58 8-8 8z"/><path fill="#424242" d="M116 7c2.76 0 5 2.24 5 5v104c0 2.76-2.24 5-5 5H12c-2.76 0-5-2.24-5-5V12c0-2.76 2.24-5 5-5h104m0-3H12c-4.42 0-8 3.58-8 8v104c0 4.42 3.58 8 8 8h104c4.42 0 8-3.58 8-8V12c0-4.42-3.58-8-8-8z" opacity=".2"/><g fill="#424242" opacity=".2"><path d="M64 16c26.51 0 48 21.49 48 48s-21.49 48-48 48-48-21.49-48-48 21.49-48 48-48m19.92 11.06l-.02.02c2.48 3.75 3.93 8.24 3.93 13.07 0 13.02-10.49 23.6-23.51 23.83v.03c-13.02.22-23.51 10.8-23.51 23.83v.18c0 .34.01.68.04 1.01.23 3.7 1.63 7.06 3.84 9.79 2.64 3.27 6.44 5.38 10.55 6.26 2.83.6 5.76.92 8.76.92 1.19 0 2.4-.05 3.62-.15 20.25-1.72 36.56-18.04 38.24-38.3 1.44-17.42-7.82-32.87-21.91-40.51-.02.02-.03.02-.03.02M64 47.5c4.14 0 7.5-3.36 7.5-7.5s-3.36-7.5-7.5-7.5-7.5 3.36-7.5 7.5 3.36 7.5 7.5 7.5M64 13c-28.12 0-51 22.88-51 51s22.88 51 51 51 51-22.88 51-51-22.88-51-51-51zm3.33 53.77c13.21-1.69 23.51-13.06 23.51-26.61 0-1.63-.15-3.25-.44-4.83a39.151 39.151 0 0112.47 31.98c-1.54 18.68-16.8 33.97-35.5 35.55-1.12.09-2.26.14-3.37.14-2.74 0-5.47-.29-8.13-.86-3.62-.77-6.76-2.62-8.84-5.21a14.277 14.277 0 01-3.21-8.95v-.16c0-11.29 9.22-20.63 20.56-20.83l2.95-.05v-.17zM64 44.5c-2.48 0-4.5-2.02-4.5-4.5s2.02-4.5 4.5-4.5 4.5 2.02 4.5 4.5-2.02 4.5-4.5 4.5z"/><path d="M64 79c3.31 0 6 2.69 6 6s-2.69 6-6 6-6-2.69-6-6 2.69-6 6-6m0-3c-4.96 0-9 4.04-9 9s4.04 9 9 9 9-4.04 9-9-4.04-9-9-9z"/></g><g fill="#FAFAFA"><path d="M64 16c-26.51 0-48 21.49-48 48s21.49 48 48 48 48-21.49 48-48-21.49-48-48-48zm0 16.5c4.14 0 7.5 3.36 7.5 7.5s-3.36 7.5-7.5 7.5-7.5-3.36-7.5-7.5 3.36-7.5 7.5-7.5zm3.62 73.35c-4.27.36-8.43.07-12.38-.77-4.11-.88-7.92-2.99-10.55-6.26-2.2-2.74-3.61-6.09-3.84-9.79-.02-.34-.03-.67-.04-1.01v-.18c0-13.02 10.49-23.6 23.51-23.83v-.03c13.02-.22 23.51-10.8 23.51-23.83 0-4.83-1.45-9.32-3.93-13.07.04-.04 0 0 .03-.04 14.09 7.63 23.35 23.09 21.91 40.51-1.66 20.25-17.97 36.58-38.22 38.3z"/><circle cx="64" cy="85" r="6"/></g></svg><svg viewBox="0 0 128 128" id="2638" xmlns="http://www.w3.org/2000/svg"><linearGradient id="aia" x1="64" x2="64" y1="4.25" y2="124.41" gradientUnits="userSpaceOnUse"><stop offset="0" stop-color="#B388FF"/><stop offset=".377" stop-color="#A175FF"/><stop offset="1" stop-color="#7C4DFF"/></linearGradient><path fill="url(#aia)" d="M116 124H12c-4.42 0-8-3.58-8-8V12c0-4.42 3.58-8 8-8h104c4.42 0 8 3.58 8 8v104c0 4.42-3.58 8-8 8z"/><path fill="#424242" d="M116 7c2.76 0 5 2.24 5 5v104c0 2.76-2.24 5-5 5H12c-2.76 0-5-2.24-5-5V12c0-2.76 2.24-5 5-5h104m0-3H12c-4.42 0-8 3.58-8 8v104c0 4.42 3.58 8 8 8h104c4.42 0 8-3.58 8-8V12c0-4.42-3.58-8-8-8z" opacity=".2"/><path fill="#424242" d="M64 16c.87 0 1.83.37 2.72 1.26a1 1 0 01.28.7v5.25c0 .52.39.94.91.99 8.11.79 15.51 3.99 21.47 8.89.19.15.42.23.64.23.25 0 .51-.1.7-.29l2.98-2.98c.59-.59 1.35-.88 2.12-.88 1.57 0 3.15 1.23 3.15 3.69 0 .26-.12.51-.3.69l-3.71 3.71c-.36.36-.39.94-.06 1.34 4.9 5.96 8.11 13.36 8.89 21.47a1 1 0 00.99.91h5.25a1 1 0 01.7.28c2.58 2.6.78 5.72-1.74 5.72h-4.21c-.52 0-.94.39-.99.91a39.821 39.821 0 01-8.89 21.47c-.33.4-.31.98.06 1.34l2.98 2.98c1.79 1.79.85 5.26-2.81 5.28-.26 0-.51-.12-.69-.3l-3.71-3.71a.984.984 0 00-.7-.29c-.23 0-.45.08-.64.23a39.745 39.745 0 01-21.47 8.89 1 1 0 00-.91.99V109c0 1.66-1.34 3-3 3-.87 0-1.83-.37-2.72-1.26a1 1 0 01-.28-.7v-5.25c0-.52-.39-.94-.91-.99a39.821 39.821 0 01-21.47-8.89c-.19-.15-.42-.23-.64-.23-.25 0-.51.1-.7.29l-2.98 2.98c-.59.59-1.35.88-2.12.88-1.57 0-3.15-1.23-3.16-3.69 0-.26.12-.51.3-.7l3.71-3.71c.36-.36.39-.94.06-1.34a39.745 39.745 0 01-8.89-21.47c-.06-.53-.48-.92-1-.92H19c-2.53 0-4.32-3.12-1.74-5.72a1 1 0 01.7-.28h5.25c.52 0 .94-.39.99-.91.79-8.11 3.99-15.51 8.89-21.47.33-.4.31-.98-.06-1.34l-2.98-2.98c-1.79-1.79-.85-5.27 2.82-5.27.26 0 .51.12.69.3l3.71 3.71c.19.19.44.29.7.29.23 0 .45-.08.64-.23 5.96-4.9 13.36-8.11 21.47-8.89a1 1 0 00.91-.99V19c.01-1.66 1.35-3 3.01-3m8.86 34.49c.26 0 .51-.1.7-.29l12.17-12.17a1 1 0 00-.08-1.49 34.794 34.794 0 00-17.55-7.28c-.04 0-.08-.01-.11-.01-.54 0-1 .45-1 1.01V47.5c0 .47.33.86.79.97 1.62.39 3.14 1.03 4.53 1.87.17.09.36.15.55.15m-17.72 0c.19 0 .38-.05.55-.15 1.39-.84 2.91-1.48 4.53-1.87.46-.11.79-.5.79-.97V30.25c0-.56-.45-1.01-1-1.01-.04 0-.08 0-.11.01-6.58.77-12.6 3.37-17.55 7.28a1 1 0 00-.08 1.49L54.44 50.2c.19.19.44.29.7.29M80.51 61h17.24c.59 0 1.07-.52 1-1.11-.77-6.58-3.37-12.6-7.28-17.55a.97.97 0 00-.77-.37c-.26 0-.52.1-.72.3L77.8 54.44c-.33.33-.38.84-.13 1.24.84 1.39 1.48 2.91 1.87 4.53.11.46.5.79.97.79m-50.26 0h17.24c.47 0 .86-.33.97-.79.39-1.62 1.03-3.14 1.87-4.53.24-.4.2-.91-.13-1.24L38.02 42.27c-.2-.2-.46-.3-.72-.3-.29 0-.58.12-.77.37a34.794 34.794 0 00-7.28 17.55c-.07.59.41 1.11 1 1.11M64 75c6.08 0 11-4.92 11-11s-4.92-11-11-11-11 4.92-11 11 4.92 11 11 11m26.69 11.03c.29 0 .58-.12.77-.37a34.794 34.794 0 007.28-17.55c.07-.59-.41-1.11-1-1.11H80.51c-.47 0-.86.33-.97.79-.39 1.62-1.03 3.14-1.87 4.53-.24.4-.2.91.13 1.24l12.17 12.17c.2.2.46.3.72.3m-53.38 0c.26 0 .52-.1.72-.3L50.2 73.56c.33-.33.38-.84.13-1.24-.84-1.39-1.48-2.91-1.87-4.53-.11-.46-.5-.79-.97-.79H30.25c-.59 0-1.07.52-1 1.11.77 6.58 3.37 12.6 7.28 17.55.2.25.49.37.78.37M60 98.76c.54 0 1-.45 1-1.01V80.51c0-.47-.33-.86-.79-.97-1.62-.39-3.14-1.03-4.53-1.87-.17-.1-.36-.15-.55-.15-.26 0-.51.1-.7.29L42.27 89.98a1 1 0 00.08 1.49 34.794 34.794 0 0017.55 7.28c.03 0 .07.01.1.01m8 0c.04 0 .08 0 .11-.01 6.58-.77 12.6-3.37 17.55-7.28a1 1 0 00.08-1.49L73.56 77.8a.984.984 0 00-.7-.29c-.19 0-.38.05-.55.15-1.39.84-2.91 1.48-4.53 1.87-.46.11-.79.5-.79.97v17.24c.01.56.46 1.02 1.01 1.02M64 13c-1.6 0-3.11.62-4.24 1.76A5.928 5.928 0 0058 19v2.43a42.69 42.69 0 00-19.86 8.23l-2.45-2.45a4.003 4.003 0 00-2.81-1.18c-2.87.01-5.26 1.49-6.24 3.86a5.975 5.975 0 001.3 6.53l1.72 1.72A42.69 42.69 0 0021.43 58h-3.47c-1.06 0-2.1.43-2.83 1.17-2.02 2.03-2.66 4.77-1.67 7.14A5.984 5.984 0 0019 70h2.43a42.69 42.69 0 008.23 19.86l-2.45 2.45c-.75.75-1.18 1.78-1.18 2.83.02 4.34 3.18 6.68 6.16 6.68 1.6 0 3.11-.62 4.24-1.76l1.72-1.72a42.69 42.69 0 0019.86 8.23v3.47c0 1.06.43 2.1 1.17 2.83 1.38 1.37 3.1 2.13 4.83 2.13 3.31 0 6-2.69 6-6v-2.43a42.69 42.69 0 0019.86-8.23l2.45 2.45c.75.75 1.77 1.18 2.81 1.18 2.88-.01 5.26-1.49 6.24-3.87.93-2.25.41-4.81-1.31-6.53l-1.72-1.72a42.69 42.69 0 008.23-19.86H109c2.43 0 4.61-1.45 5.54-3.7.99-2.37.35-5.11-1.67-7.14a4.029 4.029 0 00-2.83-1.17h-3.47a42.69 42.69 0 00-8.23-19.86l2.45-2.45c.75-.75 1.18-1.78 1.18-2.82-.01-4.34-3.18-6.69-6.15-6.69-1.6 0-3.11.62-4.24 1.76l-1.72 1.72A42.69 42.69 0 0070 21.41v-3.47c0-1.06-.42-2.09-1.16-2.83C67.46 13.76 65.74 13 64 13zM46.03 37.54c3.62-2.46 7.69-4.15 11.97-4.97v13.4c-.86.28-1.7.63-2.5 1.03l-9.47-9.46zM70 45.98v-13.4c4.28.82 8.36 2.51 11.97 4.97l-9.47 9.47c-.8-.41-1.64-.76-2.5-1.04zm10.99 9.52l9.47-9.47c2.46 3.62 4.15 7.69 4.97 11.97h-13.4c-.29-.86-.64-1.7-1.04-2.5zM32.57 58a31.94 31.94 0 014.97-11.97l9.47 9.47c-.4.81-.75 1.64-1.03 2.5H32.57zM64 72c-4.41 0-8-3.59-8-8s3.59-8 8-8 8 3.59 8 8-3.59 8-8 8zm18.02-2h13.4a31.94 31.94 0 01-4.97 11.97l-9.47-9.47c.41-.8.76-1.64 1.04-2.5zm-49.45 0h13.4c.28.86.63 1.7 1.03 2.5l-9.47 9.47A32.084 32.084 0 0132.57 70zm13.46 20.46l9.47-9.47c.81.4 1.64.75 2.5 1.03v13.4c-4.28-.81-8.36-2.5-11.97-4.96zM70 82.02c.86-.28 1.7-.63 2.5-1.03l9.47 9.47A32.007 32.007 0 0170 95.43V82.02z" opacity=".2"/><path fill="#FAFAFA" d="M110.74 61.28a1 1 0 00-.7-.28h-5.25c-.52 0-.94-.39-.99-.91a39.821 39.821 0 00-8.89-21.47c-.33-.4-.31-.98.06-1.34l3.71-3.71c.18-.18.3-.43.3-.69-.01-3.66-3.49-4.6-5.27-2.82l-2.98 2.98c-.36.36-.94.39-1.34.06a39.745 39.745 0 00-21.47-8.89c-.53-.06-.92-.48-.92-1v-5.25a1 1 0 00-.28-.7C64.12 14.68 61 16.47 61 19v4.21c0 .52-.39.94-.91.99-8.11.79-15.51 3.99-21.47 8.89-.4.33-.98.31-1.34-.06l-3.71-3.71a.995.995 0 00-.69-.3c-3.66.01-4.6 3.49-2.82 5.27l2.98 2.98c.36.36.39.94.06 1.34a39.745 39.745 0 00-8.89 21.47c-.06.53-.48.92-1 .92h-5.25a1 1 0 00-.7.28C14.68 63.88 16.47 67 19 67h4.21c.52 0 .94.39.99.91.79 8.11 3.99 15.51 8.89 21.47.33.4.31.98-.06 1.34l-3.71 3.71c-.18.18-.3.44-.3.7.01 3.66 3.49 4.6 5.28 2.81l2.98-2.98c.36-.36.94-.39 1.34-.06 5.96 4.9 13.36 8.11 21.47 8.89a1 1 0 01.91.99v5.25c0 .26.1.52.28.7 2.6 2.58 5.72.78 5.72-1.74v-4.21c0-.52.39-.94.91-.99 8.11-.79 15.51-3.99 21.47-8.89.4-.33.98-.31 1.34.06l3.71 3.71c.18.18.44.3.7.3 3.66-.01 4.6-3.49 2.81-5.28l-2.98-2.98a.997.997 0 01-.06-1.34c4.9-5.96 8.11-13.36 8.89-21.47a1 1 0 01.99-.91H109c2.53.01 4.32-3.11 1.74-5.71zM67 30.25c0-.59.52-1.07 1.11-1 6.58.77 12.6 3.37 17.55 7.28a1 1 0 01.08 1.49L73.56 50.2c-.33.33-.84.38-1.24.13-1.39-.84-2.91-1.48-4.53-1.87-.46-.11-.79-.5-.79-.97V30.25zm-24.66 6.28a34.794 34.794 0 0117.55-7.28c.59-.07 1.11.41 1.11 1v17.24c0 .47-.33.86-.79.97-1.62.39-3.14 1.03-4.53 1.87-.4.24-.91.2-1.24-.13L42.27 38.02c-.42-.42-.4-1.12.07-1.49zm-5.81 5.81a1 1 0 011.49-.08L50.2 54.44c.33.33.38.84.13 1.24-.84 1.39-1.48 2.91-1.87 4.53-.11.46-.5.79-.97.79H30.25c-.59 0-1.07-.52-1-1.11.77-6.58 3.37-12.6 7.28-17.55zm1.49 43.39a1 1 0 01-1.49-.08 34.794 34.794 0 01-7.28-17.55c-.07-.59.41-1.11 1-1.11h17.24c.47 0 .86.33.97.79.39 1.62 1.03 3.14 1.87 4.53.24.4.2.91-.13 1.24L38.02 85.73zM61 97.75c0 .59-.52 1.07-1.11 1-6.58-.77-12.6-3.37-17.55-7.28a1 1 0 01-.08-1.49L54.44 77.8c.33-.33.84-.38 1.24-.13 1.39.84 2.91 1.48 4.53 1.87.46.11.79.5.79.97v17.24zM64 75c-6.08 0-11-4.92-11-11s4.92-11 11-11 11 4.92 11 11-4.92 11-11 11zm21.66 16.47a34.794 34.794 0 01-17.55 7.28c-.59.07-1.11-.41-1.11-1V80.51c0-.47.33-.86.79-.97 1.62-.39 3.14-1.03 4.53-1.87.4-.24.91-.2 1.24.13l12.17 12.17c.42.43.4 1.13-.07 1.5zm5.81-5.81a1 1 0 01-1.49.08L77.8 73.56a.997.997 0 01-.13-1.24c.84-1.39 1.48-2.91 1.87-4.53.11-.46.5-.79.97-.79h17.24c.59 0 1.07.52 1 1.11-.77 6.58-3.37 12.6-7.28 17.55zM97.75 61H80.51c-.47 0-.86-.33-.97-.79-.39-1.62-1.03-3.14-1.87-4.53-.24-.4-.2-.91.13-1.24l12.17-12.17a1 1 0 011.49.08 34.794 34.794 0 017.28 17.55c.08.58-.4 1.1-.99 1.1z"/></svg><svg viewBox="0 0 128 128" id="269B" xmlns="http://www.w3.org/2000/svg"><linearGradient id="aja" x1="64" x2="64" y1="4.25" y2="124.41" gradientUnits="userSpaceOnUse"><stop offset="0" stop-color="#B388FF"/><stop offset=".377" stop-color="#A175FF"/><stop offset="1" stop-color="#7C4DFF"/></linearGradient><path fill="url(#aja)" d="M116 124H12c-4.42 0-8-3.58-8-8V12c0-4.42 3.58-8 8-8h104c4.42 0 8 3.58 8 8v104c0 4.42-3.58 8-8 8z"/><path fill="#424242" d="M116 7c2.76 0 5 2.24 5 5v104c0 2.76-2.24 5-5 5H12c-2.76 0-5-2.24-5-5V12c0-2.76 2.24-5 5-5h104m0-3H12c-4.42 0-8 3.58-8 8v104c0 4.42 3.58 8 8 8h104c4.42 0 8-3.58 8-8V12c0-4.42-3.58-8-8-8z" opacity=".2"/><g fill="#424242" opacity=".2"><path d="M64 58c3.31 0 6 2.69 6 6s-2.69 6-6 6-6-2.69-6-6 2.69-6 6-6m0-3c-4.96 0-9 4.04-9 9s4.04 9 9 9 9-4.04 9-9-4.04-9-9-9z"/><path d="M64 16c6.67 0 12.58 7.85 16.21 19.92 4.25-1 8.19-1.51 11.68-1.51 6.57 0 11.49 1.82 13.68 5.59 3.34 5.78-.51 14.82-9.14 24 8.63 9.18 12.48 18.22 9.14 24-2.18 3.78-7.1 5.59-13.68 5.59-3.48 0-7.43-.51-11.68-1.51C76.58 104.15 70.67 112 64 112s-12.58-7.85-16.21-19.92c-4.25 1-8.19 1.51-11.68 1.51-6.57 0-11.49-1.82-13.68-5.59-3.34-5.78.51-14.82 9.14-24-8.63-9.18-12.48-18.22-9.14-24 2.18-3.78 7.1-5.59 13.68-5.59 3.48 0 7.43.51 11.68 1.51C51.42 23.85 57.33 16 64 16m0 25.45c.14 0 .28-.03.4-.09 3.1-1.38 6.15-2.57 9.11-3.55.52-.17.81-.73.64-1.26C71.05 27.02 66.76 22 64 22s-7.05 5.02-10.15 14.56c-.17.52.11 1.08.64 1.26 2.96.98 6.01 2.16 9.11 3.55.12.05.26.08.4.08M92.09 59.4c.27 0 .54-.11.74-.33 6.71-7.46 8.92-13.68 7.54-16.07-.89-1.54-3.88-2.58-8.5-2.58-2.58 0-5.68.33-9.19 1.07-.54.11-.88.64-.76 1.17.63 3.05 1.13 6.29 1.48 9.66.03.28.18.53.4.7 2.75 1.99 5.3 4.04 7.63 6.12.19.18.43.26.66.26m-56.18 0c.24 0 .47-.08.66-.25 2.33-2.07 4.88-4.12 7.63-6.12.23-.16.37-.42.4-.7.35-3.38.85-6.61 1.48-9.66a.986.986 0 00-.76-1.17c-3.52-.75-6.61-1.07-9.19-1.07-4.62 0-7.61 1.04-8.5 2.58-1.38 2.39.83 8.61 7.54 16.07.19.21.46.32.74.32m40.97-11c-.27-1.79-.58-3.49-.93-5.1-1.57.51-3.2 1.08-4.88 1.74.98.53 1.96 1.07 2.93 1.63.98.57 1.93 1.15 2.88 1.73m-25.76 0c.95-.58 1.9-1.16 2.88-1.73.98-.56 1.96-1.1 2.93-1.63a78.63 78.63 0 00-4.88-1.74 83.39 83.39 0 00-.93 5.1M64 79.73c.15 0 .3-.03.44-.1 2.13-1.05 4.31-2.21 6.56-3.5 2.24-1.3 4.34-2.61 6.31-3.93a.98.98 0 00.44-.77c.16-2.36.25-4.84.25-7.43s-.09-5.07-.24-7.43c-.02-.31-.18-.59-.44-.77-1.97-1.32-4.07-2.63-6.31-3.93s-4.43-2.46-6.56-3.5c-.14-.07-.29-.1-.44-.1s-.3.03-.44.1c-2.13 1.05-4.31 2.21-6.56 3.5-2.24 1.3-4.34 2.61-6.31 3.93a.98.98 0 00-.44.77C50.09 58.93 50 61.41 50 64s.09 5.07.24 7.43c.02.31.18.59.44.77 1.97 1.32 4.07 2.63 6.31 3.93s4.43 2.46 6.56 3.5c.15.07.3.1.45.1m19.95-12.37c1.41-1.13 2.73-2.25 3.95-3.36a83.076 83.076 0 00-3.95-3.36c.03 1.11.05 2.23.05 3.36s-.02 2.25-.05 3.36m-39.9 0C44.02 66.25 44 65.13 44 64s.02-2.25.05-3.36A83.076 83.076 0 0040.1 64c1.23 1.11 2.54 2.23 3.95 3.36m47.83 20.22c4.62 0 7.61-1.04 8.5-2.58 1.38-2.39-.83-8.61-7.54-16.07a.996.996 0 00-1.4-.08c-2.33 2.07-4.88 4.12-7.63 6.12-.23.16-.37.42-.4.7-.35 3.38-.85 6.61-1.48 9.66-.11.54.23 1.06.76 1.17 3.51.75 6.6 1.08 9.19 1.08m-55.76 0c2.58 0 5.68-.33 9.19-1.07.54-.11.88-.64.76-1.17-.63-3.05-1.13-6.29-1.48-9.66-.03-.28-.18-.53-.4-.7-2.75-1.99-5.3-4.04-7.63-6.12a.996.996 0 00-1.4.08c-6.71 7.46-8.92 13.68-7.54 16.07.89 1.53 3.88 2.57 8.5 2.57m39.83-2.89c.35-1.61.66-3.31.93-5.1-.95.58-1.9 1.16-2.88 1.73-.98.56-1.96 1.1-2.93 1.63 1.68.66 3.31 1.24 4.88 1.74m-23.9 0c1.57-.51 3.2-1.08 4.88-1.74-.98-.53-1.96-1.07-2.93-1.63-.98-.56-1.93-1.14-2.88-1.73.27 1.79.58 3.49.93 5.1M64 106c2.76 0 7.05-5.02 10.15-14.56.17-.52-.11-1.08-.64-1.26-2.96-.98-6.01-2.16-9.11-3.55a.968.968 0 00-.4-.09c-.14 0-.28.03-.4.09-3.1 1.38-6.15 2.57-9.11 3.55-.52.17-.81.73-.64 1.26C56.95 100.98 61.24 106 64 106m0-93c-7.4 0-13.96 7.03-18.24 19.41-3.46-.67-6.7-1.01-9.66-1.01-10.07 0-14.41 3.86-16.27 7.09-3.7 6.41-.89 15.61 7.69 25.5-8.58 9.89-11.39 19.09-7.69 25.5 1.87 3.24 6.21 7.09 16.27 7.09 2.96 0 6.2-.34 9.66-1.01C50.04 107.97 56.6 115 64 115s13.96-7.03 18.24-19.41c3.46.67 6.7 1.01 9.66 1.01 10.07 0 14.41-3.86 16.27-7.09 3.7-6.41.89-15.61-7.69-25.5 8.58-9.89 11.39-19.09 7.69-25.5-1.87-3.24-6.21-7.09-16.27-7.09-2.96 0-6.2.34-9.66 1.01C77.96 20.03 71.4 13 64 13zm-6.65 22.63c2.67-7.3 5.66-10.25 6.65-10.61.99.36 3.98 3.31 6.65 10.61-2.2.78-4.42 1.66-6.65 2.64-2.23-.98-4.46-1.86-6.65-2.64zm27.89 8.42c2.4-.42 4.62-.63 6.63-.63 3.75 0 5.46.75 5.88 1.09.18 1.04-.88 5.1-5.86 11.06-1.77-1.51-3.65-3-5.61-4.44-.26-2.41-.61-4.79-1.04-7.08zm-55 .46c.42-.34 2.14-1.09 5.88-1.09 2.01 0 4.23.21 6.63.63-.42 2.29-.77 4.66-1.04 7.08a98.757 98.757 0 00-5.61 4.44c-4.98-5.95-6.04-10.02-5.86-11.06zm22.94 13.24c1.73-1.14 3.52-2.24 5.32-3.28s3.65-2.04 5.5-2.97c1.85.93 3.7 1.93 5.5 2.97s3.59 2.14 5.32 3.28a108.404 108.404 0 010 12.5c-1.73 1.14-3.52 2.24-5.32 3.28s-3.65 2.04-5.5 2.97c-1.85-.93-3.7-1.93-5.5-2.97s-3.59-2.14-5.32-3.28a108.404 108.404 0 010-12.5zM30.24 83.49c-.18-1.04.88-5.1 5.86-11.06 1.77 1.51 3.65 3 5.61 4.44.27 2.42.62 4.79 1.04 7.08-2.4.42-4.62.63-6.63.63-3.74 0-5.46-.75-5.88-1.09zm56.05-6.62c1.96-1.44 3.84-2.93 5.61-4.44 4.98 5.96 6.05 10.02 5.86 11.06-.42.34-2.14 1.09-5.88 1.09-2.01 0-4.23-.21-6.63-.63.42-2.29.77-4.67 1.04-7.08zm-28.94 15.5c2.2-.78 4.42-1.66 6.65-2.64 2.23.97 4.46 1.86 6.65 2.64-2.67 7.3-5.66 10.25-6.65 10.61-.99-.36-3.98-3.31-6.65-10.61z"/></g><g fill="#FAFAFA"><circle cx="64" cy="64" r="6"/><path d="M105.57 40c-3.34-5.78-13.09-6.97-25.35-4.08C76.58 23.85 70.67 16 64 16s-12.58 7.85-16.21 19.92c-12.26-2.88-22.02-1.7-25.35 4.08s.51 14.82 9.14 24c-8.63 9.18-12.48 18.22-9.14 24s13.09 6.97 25.35 4.08C51.42 104.15 57.33 112 64 112s12.58-7.85 16.21-19.92c12.26 2.88 22.02 1.7 25.35-4.08s-.51-14.82-9.14-24c8.64-9.18 12.49-18.22 9.15-24zm-5.2 3c1.38 2.39-.83 8.61-7.54 16.07-.37.41-1 .44-1.4.08-2.33-2.07-4.88-4.12-7.63-6.12a.973.973 0 01-.4-.7c-.35-3.38-.85-6.61-1.48-9.66a.986.986 0 01.76-1.17c9.82-2.09 16.31-.89 17.69 1.5zM71 76.12c-2.24 1.3-4.43 2.46-6.56 3.5-.28.14-.6.14-.89 0-2.13-1.05-4.31-2.21-6.56-3.5s-4.34-2.61-6.31-3.93a.98.98 0 01-.44-.77C50.09 69.07 50 66.59 50 64s.09-5.07.24-7.43c.02-.31.18-.59.44-.77 1.97-1.32 4.07-2.63 6.31-3.93s4.43-2.46 6.56-3.5c.28-.14.6-.14.89 0 2.13 1.05 4.31 2.21 6.56 3.5s4.34 2.61 6.31 3.93c.26.17.42.45.44.77.16 2.36.25 4.84.25 7.43s-.09 5.07-.24 7.43c-.02.31-.18.59-.44.77-1.98 1.32-4.08 2.63-6.32 3.92zm5.88 3.48c-.27 1.79-.58 3.49-.93 5.1-1.57-.51-3.2-1.08-4.88-1.74.98-.53 1.96-1.07 2.93-1.63s1.93-1.15 2.88-1.73zm-19.95 3.35a78.63 78.63 0 01-4.88 1.74c-.35-1.61-.66-3.31-.93-5.1.95.58 1.9 1.16 2.88 1.73s1.96 1.1 2.93 1.63zM44.05 67.36A83.076 83.076 0 0140.1 64c1.22-1.11 2.54-2.23 3.95-3.36-.03 1.11-.05 2.23-.05 3.36s.02 2.25.05 3.36zm7.07-18.96c.27-1.79.58-3.49.93-5.1 1.57.51 3.2 1.08 4.88 1.74-.98.53-1.96 1.07-2.93 1.63-.98.57-1.93 1.15-2.88 1.73zm19.95-3.35a78.63 78.63 0 014.88-1.74c.35 1.61.66 3.31.93 5.1-.95-.58-1.9-1.16-2.88-1.73s-1.96-1.1-2.93-1.63zm12.88 15.59c1.41 1.13 2.73 2.25 3.95 3.36a83.076 83.076 0 01-3.95 3.36c.03-1.11.05-2.23.05-3.36s-.02-2.25-.05-3.36zM64 22c2.76 0 7.05 5.02 10.15 14.56.17.52-.11 1.08-.64 1.26-2.96.98-6.01 2.16-9.11 3.55-.26.11-.55.11-.81 0-3.1-1.38-6.15-2.57-9.11-3.55-.52-.17-.81-.73-.64-1.26C56.95 27.02 61.24 22 64 22zM27.63 43c1.38-2.39 7.87-3.59 17.69-1.51.54.11.88.64.76 1.17-.63 3.05-1.13 6.29-1.48 9.66-.03.28-.18.53-.4.7-2.75 1.99-5.3 4.04-7.63 6.12a.994.994 0 01-1.4-.08c-6.72-7.45-8.92-13.67-7.54-16.06zm0 42c-1.38-2.39.83-8.61 7.54-16.07.37-.41 1-.44 1.4-.08 2.33 2.07 4.88 4.12 7.63 6.12.23.16.37.42.4.7.35 3.38.85 6.61 1.48 9.66a.986.986 0 01-.76 1.17c-9.82 2.09-16.31.89-17.69-1.5zM64 106c-2.76 0-7.05-5.02-10.15-14.56-.17-.52.11-1.08.64-1.26 2.96-.98 6.01-2.16 9.11-3.55.26-.11.55-.11.81 0 3.1 1.38 6.15 2.57 9.11 3.55.52.17.81.73.64 1.26C71.05 100.98 66.76 106 64 106zm36.37-21c-1.38 2.39-7.87 3.59-17.69 1.51a.976.976 0 01-.76-1.17c.63-3.05 1.13-6.29 1.48-9.66.03-.28.18-.53.4-.7 2.75-1.99 5.3-4.04 7.63-6.12a.994.994 0 011.4.08c6.72 7.45 8.92 13.67 7.54 16.06z"/></g></svg><svg viewBox="0 0 128 128" id="271D" xmlns="http://www.w3.org/2000/svg"><linearGradient id="aka" x1="64" x2="64" y1="4.25" y2="124.41" gradientUnits="userSpaceOnUse"><stop offset="0" stop-color="#B388FF"/><stop offset=".377" stop-color="#A175FF"/><stop offset="1" stop-color="#7C4DFF"/></linearGradient><path fill="url(#aka)" d="M116 124H12c-4.42 0-8-3.58-8-8V12c0-4.42 3.58-8 8-8h104c4.42 0 8 3.58 8 8v104c0 4.42-3.58 8-8 8z"/><path fill="#424242" d="M116 7c2.76 0 5 2.24 5 5v104c0 2.76-2.24 5-5 5H12c-2.76 0-5-2.24-5-5V12c0-2.76 2.24-5 5-5h104m0-3H12c-4.42 0-8 3.58-8 8v104c0 4.42 3.58 8 8 8h104c4.42 0 8-3.58 8-8V12c0-4.42-3.58-8-8-8z" opacity=".2"/><path fill="#424242" d="M64 16c2.76 0 5 2.24 5 5v22h18c2.76 0 5 2.24 5 5s-2.24 5-5 5H69v54c0 2.76-2.24 5-5 5s-5-2.24-5-5V53H41c-2.76 0-5-2.24-5-5s2.24-5 5-5h18V21c0-2.76 2.24-5 5-5m0-3c-4.41 0-8 3.59-8 8v19H41c-4.41 0-8 3.59-8 8s3.59 8 8 8h15v51c0 4.41 3.59 8 8 8s8-3.59 8-8V56h15c4.41 0 8-3.59 8-8s-3.59-8-8-8H72V21c0-4.41-3.59-8-8-8z" opacity=".2"/><path fill="#FAFAFA" d="M87 43H69V21c0-2.76-2.24-5-5-5s-5 2.24-5 5v22H41c-2.76 0-5 2.24-5 5s2.24 5 5 5h18v54c0 2.76 2.24 5 5 5s5-2.24 5-5V53h18c2.76 0 5-2.24 5-5s-2.24-5-5-5z"/></svg><svg viewBox="0 0 128 128" id="2721" xmlns="http://www.w3.org/2000/svg"><linearGradient id="ala" x1="64" x2="64" y1="4.25" y2="124.41" gradientUnits="userSpaceOnUse"><stop offset="0" stop-color="#B388FF"/><stop offset=".377" stop-color="#A175FF"/><stop offset="1" stop-color="#7C4DFF"/></linearGradient><path fill="url(#ala)" d="M116 124H12c-4.42 0-8-3.58-8-8V12c0-4.42 3.58-8 8-8h104c4.42 0 8 3.58 8 8v104c0 4.42-3.58 8-8 8z"/><path fill="#424242" d="M116 7c2.76 0 5 2.24 5 5v104c0 2.76-2.24 5-5 5H12c-2.76 0-5-2.24-5-5V12c0-2.76 2.24-5 5-5h104m0-3H12c-4.42 0-8 3.58-8 8v104c0 4.42 3.58 8 8 8h104c4.42 0 8-3.58 8-8V12c0-4.42-3.58-8-8-8z" opacity=".2"/><path fill="#424242" d="M64 16c.33 0 .66.16.85.48L78.67 40h27.55c.78 0 1.26.86.85 1.52L93.33 64l13.74 22.48a.996.996 0 01-.85 1.52H78.67l-13.81 23.52c-.2.32-.53.48-.86.48s-.66-.16-.85-.48L49.33 88H21.78c-.78 0-1.26-.86-.85-1.52L34.67 64 20.93 41.52c-.41-.66.07-1.52.85-1.52h27.55l13.81-23.52c.2-.32.53-.48.86-.48m-7.63 24h15.27L64 26.59 56.37 40m33.45 18.25L97.3 46H82.33l7.49 12.25M52.7 82h22.6l11-18-11-18H52.7l-11 18 11 18M38.18 58.25L45.67 46H30.7l7.48 12.25M82.33 82H97.3l-7.48-12.25L82.33 82M30.7 82h14.97l-7.48-12.25L30.7 82M64 101.41L71.63 88H56.37L64 101.41M64 13c-1.4 0-2.68.72-3.41 1.91l-.02.04L47.62 37H21.78c-1.45 0-2.78.78-3.49 2.04s-.68 2.81.08 4.04L31.15 64 18.37 84.91a4.025 4.025 0 00-.08 4.04A4.003 4.003 0 0021.78 91h25.83l12.94 22.04.02.04c.73 1.2 2.01 1.91 3.41 1.91s2.68-.72 3.41-1.91l.02-.04L80.38 91h25.83c1.45 0 2.78-.78 3.49-2.04s.68-2.81-.08-4.04L96.85 64l12.78-20.91c.75-1.23.78-2.78.08-4.04a4.003 4.003 0 00-3.49-2.05H80.38L67.44 14.96l-.02-.04A4.001 4.001 0 0064 13zm-2.48 24L64 32.65 66.48 37h-4.96zm26.16 12h4.27l-2.13 3.49L87.68 49zm-33.3 0h19.24l9.17 15-9.17 15H54.38l-9.17-15 9.17-15zm-18.33 0h4.27l-2.13 3.49L36.05 49zm51.63 30l2.14-3.49L91.95 79h-4.27zm-51.63 0l2.13-3.49L40.32 79h-4.27zm25.48 12h4.95L64 95.35 61.53 91z" opacity=".2"/><path fill="#FAFAFA" d="M93.33 64l13.74-22.48a.996.996 0 00-.85-1.52H78.67L64.85 16.48c-.39-.64-1.32-.64-1.71 0L49.33 40H21.78c-.78 0-1.26.86-.85 1.52L34.67 64 20.93 86.48c-.41.66.07 1.52.85 1.52h27.55l13.81 23.52c.39.64 1.32.64 1.71 0L78.67 88h27.55c.78 0 1.26-.86.85-1.52L93.33 64zm3.97-18l-7.48 12.25L82.33 46H97.3zm-11 18l-11 18H52.7l-11-18 11-18h22.6l11 18zM64 26.59L71.64 40H56.36L64 26.59zM30.7 46h14.97l-7.48 12.25L30.7 46zm0 36l7.48-12.25L45.67 82H30.7zM64 101.41L56.37 88h15.27L64 101.41zm25.82-31.66L97.3 82H82.33l7.49-12.25z"/></svg></svg>