<?xml version="1.0" encoding="utf-8"?><svg viewBox="0 0 128 128" xmlns="http://www.w3.org/2000/svg" xmlns:xlink="http://www.w3.org/1999/xlink"><style>:root>svg{display:none}:root>svg:target{display:block}</style><svg viewBox="0 0 128 128" id="1F4E1" xmlns="http://www.w3.org/2000/svg"><radialGradient id="aaa" cx="31.662" cy="78.838" r="25.172" gradientTransform="translate(.533 .525) scale(.9917)" gradientUnits="userSpaceOnUse"><stop offset="0" stop-color="#C5CAE9"/><stop offset="1" stop-color="#7986CB"/></radialGradient><path fill="url(#aaa)" d="M41.34 103.5 24.5 86.66c-.89-.89-.89-2.32 0-3.21l12.21-12.21c.89-.89 2.32-.89 3.21 0l16.84 16.84c.89.89.89 2.32 0 3.21L44.55 103.5c-.89.89-2.33.89-3.21 0z"/><radialGradient id="aab" cx="41.287" cy="69.226" r="23.909" gradientTransform="translate(.533 .525) scale(.9917)" gradientUnits="userSpaceOnUse"><stop offset="0" stop-color="#7986CB"/><stop offset=".24" stop-color="#727FC8"/><stop offset=".594" stop-color="#5E6DC1"/><stop offset="1" stop-color="#3F51B5"/></radialGradient><path fill="url(#aab)" d="m52.12 95.78-19.9-19.9 6.33-19.59 33.16 33.16z"/><radialGradient id="aac" cx="33.662" cy="100.84" r="25.75" gradientTransform="matrix(0 .9917 -1.409 0 175.99 67.145)" gradientUnits="userSpaceOnUse"><stop offset="0" stop-color="#C5CAE9"/><stop offset="1" stop-color="#7986CB"/></radialGradient><path fill="url(#aac)" d="M40.4 100.2H27.1L5.77 114.4c-1.13.65-1.77 1.53-1.77 2.45V124h59.5v-7.15c0-.92-.64-1.8-1.77-2.45L40.4 100.2z"/><linearGradient id="aad" x1="74.163" x2="110.47" y1="53.837" y2="17.529" gradientUnits="userSpaceOnUse"><stop offset="0" stop-color="#5C6BC0"/><stop offset=".225" stop-color="#6E7BC7"/><stop offset=".73" stop-color="#919CD5"/><stop offset="1" stop-color="#9FA8DA"/></linearGradient><path fill="url(#aad)" d="M81.28 59.05 68.95 46.72l44.27-35.92 4.05 4.04z"/><path fill="#424242" d="M39.9 61.88 66.12 88.1l-14.69 4.74-.69.22-7.79 7.79-2.79-2.79-13.02-13 7.79-7.79.22-.69 4.75-14.7m.71 41.32-.44.44 3.05 2.03 16.86 11.23.08.06.09.05c.12.07.2.13.26.17V121H7v-3.82c.06-.05.14-.11.26-.17l.09-.05.08-.06 20.58-13.7h12.6m-2.06-46.91L32.3 75.65l-7.8 7.8c-.89.89-.89 2.32 0 3.21l13.54 13.54H27.1L5.77 114.4c-1.13.65-1.77 1.53-1.77 2.45V124h59.5v-7.15c0-.92-.64-1.8-1.77-2.45l-16.86-11.23 7.47-7.47 19.36-6.25-33.15-33.16zm74.46-41.46.22.22-32.18 39.53-7.63-7.63 39.59-32.12m.21-4.03L68.95 46.72l12.34 12.34 35.99-44.21-4.06-4.05z" opacity=".2"/><radialGradient id="aae" cx="36.996" cy="16.004" r="73.441" gradientTransform="translate(.533 .525) scale(.9917)" gradientUnits="userSpaceOnUse"><stop offset="0" stop-color="#C5CAE9"/><stop offset="1" stop-color="#7986CB"/></radialGradient><path fill="url(#aae)" d="M37.55 7.17c-12.02 23.86-8.53 53.16 10.8 72.49s48.63 22.82 72.49 10.8L37.55 7.17z"/><radialGradient id="aaf" cx="58.662" cy="13.671" r="97.708" gradientTransform="translate(.533 .525) scale(.9917)" gradientUnits="userSpaceOnUse"><stop offset="0" stop-color="#C5CAE9"/><stop offset="1" stop-color="#7986CB"/></radialGradient><path fill="url(#aaf)" d="M115.59 95.22 32.78 12.41a4.702 4.702 0 0 1 0-6.64l.39-.39a1.84 1.84 0 0 1 2.59 0l86.86 86.86c.71.71.71 1.87 0 2.59l-.39.39a4.684 4.684 0 0 1-6.64 0z"/><linearGradient id="aag" x1="33.752" x2="33.752" y1="83.266" y2="125.18" gradientUnits="userSpaceOnUse"><stop offset="0" stop-color="#7986CB"/><stop offset=".24" stop-color="#727FC8"/><stop offset=".594" stop-color="#5E6DC1"/><stop offset="1" stop-color="#3F51B5"/></linearGradient><path fill="url(#aag)" d="M43.67 124H23.83V88.54a4.21 4.21 0 0 1 4.21-4.21h11.42a4.21 4.21 0 0 1 4.21 4.21V124z"/><radialGradient id="aah" cx="33.496" cy="90.588" r="8.933" gradientTransform="translate(.533 .525) scale(.9917)" gradientUnits="userSpaceOnUse"><stop offset="0" stop-color="#C5CAE9"/><stop offset="1" stop-color="#7986CB"/></radialGradient><circle cx="33.75" cy="94.25" r="3.97" fill="url(#aah)"/><radialGradient id="aai" cx="117.25" cy="3.504" r="14.139" gradientTransform="translate(.533 .525) scale(.9917)" gradientUnits="userSpaceOnUse"><stop offset="0" stop-color="#C5CAE9"/><stop offset="1" stop-color="#7986CB"/></radialGradient><circle cx="117.06" cy="10.94" r="6.94" fill="url(#aai)"/><path fill="#424242" d="M33.75 90.28c2.19 0 3.97 1.78 3.97 3.97s-1.78 3.97-3.97 3.97-3.97-1.78-3.97-3.97 1.78-3.97 3.97-3.97m0-2c-3.29 0-5.97 2.68-5.97 5.97s2.68 5.97 5.97 5.97 5.97-2.68 5.97-5.97-2.68-5.97-5.97-5.97zM117.06 7c1.05 0 2.04.41 2.79 1.15.74.74 1.15 1.73 1.15 2.79 0 1.05-.41 2.04-1.15 2.79-.74.74-1.73 1.15-2.79 1.15s-2.04-.41-2.79-1.15a3.917 3.917 0 0 1-1.15-2.79c0-1.05.41-2.04 1.15-2.79.74-.74 1.73-1.15 2.79-1.15m0-3c-1.78 0-3.55.68-4.91 2.03a6.947 6.947 0 0 0 0 9.82c1.36 1.36 3.13 2.03 4.91 2.03s3.55-.68 4.91-2.03a6.947 6.947 0 0 0 0-9.82A6.962 6.962 0 0 0 117.06 4zM34.54 8.41l85.04 85.04a1.696 1.696 0 0 1-1.88-.36L114.61 90l-1.8.66a61.322 61.322 0 0 1-21.15 3.76c-15.68 0-30.31-6-41.2-16.88C42.44 69.52 37 59.36 34.75 48.16c-2.2-10.92-1.3-22.32 2.59-32.97l.66-1.8-3.1-3.1c-.51-.5-.63-1.26-.36-1.88m-.08-3.56c-.47 0-.94.18-1.29.54l-.39.39a4.702 4.702 0 0 0 0 6.64l1.75 1.75c-8.18 22.39-3.65 48.03 13.82 65.5 11.86 11.86 27.5 17.76 43.32 17.76 7.48 0 15-1.32 22.18-3.94l1.75 1.75a4.68 4.68 0 0 0 6.64 0l.39-.39c.71-.71.71-1.87 0-2.59l-1.79-1.79-83.29-83.3-1.79-1.79c-.36-.36-.83-.53-1.3-.53z" opacity=".2"/><path fill="#424242" d="M39.46 87.33c.67 0 1.21.54 1.21 1.21V121H26.83V88.54c0-.67.54-1.21 1.21-1.21h11.42m0-3H28.04a4.21 4.21 0 0 0-4.21 4.21V124h19.83V88.54a4.189 4.189 0 0 0-4.2-4.21z" opacity=".2"/></svg><svg style="enable-background:new 0 0 128 128" viewBox="0 0 128 128" xml:space="preserve" id="1F52C" xmlns="http://www.w3.org/2000/svg"><path d="M49.55 97.96h2v16.03h-2z" style="fill:#504f4f" transform="rotate(-71.119 50.546 105.97)"/><path d="m56.83 112.35-.95-.32c-.52-.18-.8-.75-.62-1.27l1.94-5.69c.18-.52.75-.8 1.27-.62l.95.32-2.59 7.58z" style="fill:#504f4f"/><radialGradient id="aba" cx="79.875" cy="94.25" r="71.223" gradientTransform="matrix(1 0 0 -1 0 128)" gradientUnits="userSpaceOnUse"><stop offset="0" style="stop-color:#ef5350"/><stop offset="1" style="stop-color:#d32f2f"/></radialGradient><path d="m73.93 31.09 10.02 4.72c.89.42 1.35 1.42 1.07 2.37-.46 1.56-.78 3.89.85 5.09 2.4 1.78 18.47 10.43 18.34 37.76-.03 6.43-1.3 12.82-4.11 18.6-4.07 8.37-12.29 17.95-28.42 16.72 0 0-9.04-.33-15.01-2.23-.59-.19-.88-.86-.6-1.41 1.66-3.27 6.04-13.51-1.82-17.25-.36-.17-.6-.52-.6-.92v-6.27s16.03 15.03 24.29 10.85c6.82-3.44 14.43-7.8 14.31-21.21-.06-6.23-1.93-12.33-5.2-17.64-2.12-3.44-4.85-6.84-7.61-7.39 0 0-1.1-.24-2.36 2.15a2.01 2.01 0 0 1-2.27 1.02l-12.14-3.09 11.26-21.87z" style="fill:url(#aba)"/><radialGradient id="abb" cx="78.93" cy="54.226" r="35.078" gradientTransform="matrix(1 0 0 -1 0 128)" gradientUnits="userSpaceOnUse"><stop offset="0" style="stop-color:red"/><stop offset=".51" style="stop-color:#fd0100"/><stop offset=".714" style="stop-color:#f60300"/><stop offset=".863" style="stop-color:#ea0700"/><stop offset=".986" style="stop-color:#d90d00"/><stop offset="1" style="stop-color:#d60e00"/></radialGradient><path d="m73.93 31.09 10.02 4.72c.89.42 1.35 1.42 1.07 2.37-.46 1.56-.78 3.89.85 5.09 2.4 1.78 18.47 10.43 18.34 37.76-.03 6.43-1.3 12.82-4.11 18.6-4.07 8.37-12.29 17.95-28.42 16.72 0 0-9.04-.33-15.01-2.23-.59-.19-.88-.86-.6-1.41 1.66-3.27 6.04-13.51-1.82-17.25-.36-.17-.6-.52-.6-.92v-6.27s16.03 15.03 24.29 10.85c6.82-3.44 14.43-7.8 14.31-21.21-.06-6.23-1.93-12.33-5.2-17.64-2.12-3.44-4.85-6.84-7.61-7.39 0 0-1.1-.24-2.36 2.15a2.01 2.01 0 0 1-2.27 1.02l-12.14-3.09 11.26-21.87z" style="fill:url(#abb)"/><radialGradient id="abc" cx="37.313" cy="32.746" r="17.615" gradientTransform="scale(1 -1) rotate(.217 33860.574 -38.1)" gradientUnits="userSpaceOnUse"><stop offset="0" style="stop-color:#b3e5fc"/><stop offset="1" style="stop-color:#4fc3f7"/></radialGradient><path d="M49.13 105.45c-1.24 3.67-6.71 5.14-12.21 3.28s-8.96-6.34-7.72-10.01 6.71-5.14 12.21-3.28c5.51 1.86 8.96 6.34 7.72 10.01z" style="fill:url(#abc)"/><path d="m47.81 108.14-19.2-6.47c-.98-.33-1.54-1.27-1.26-2.11l.89-2.62c.28-.84 1.3-1.25 2.28-.92l19.2 6.47c.98.33 1.54 1.27 1.26 2.11l-.89 2.62c-.28.84-1.3 1.25-2.28.92z" style="fill:#504f4f"/><linearGradient id="abd" x1="71.047" x2="80.726" y1="84.853" y2="81.424" gradientTransform="matrix(1 0 0 -1 0 128)" gradientUnits="userSpaceOnUse"><stop offset="0" style="stop-color:#8f1616"/><stop offset="1" style="stop-color:#b71c1c;stop-opacity:0"/></linearGradient><path d="M77.08 55.03c1.26-2.39 2.36-2.15 2.36-2.15 2.75.55 5.48 3.95 7.61 7.39.41.67.8 1.35 1.17 2.04-.09-5.82-.62-11.67-.08-17.47-1.05-.76-1.86-1.26-2.27-1.57-1.62-1.21-1.31-3.53-.85-5.09.28-.95-.18-1.95-1.07-2.37l-10.02-4.72-11.27 21.87 12.14 3.09c.91.23 1.85-.2 2.28-1.02z" style="opacity:.6;fill:url(#abd);enable-background:new"/><linearGradient id="abe" x1="71.895" x2="71.895" y1="8.914" y2="25.014" gradientUnits="userSpaceOnUse"><stop offset=".001" style="stop-color:#787676"/><stop offset=".818" style="stop-color:#504f4f"/></linearGradient><path d="m71.91 36.42-9.41-3.43 9.38-25.77 9.41 3.42z" style="fill:url(#abe)"/><path d="m81.29 10.64-9.41-3.43 1.87-2.77c.26-.38.74-.54 1.17-.38l6.06 2.21c.43.16.7.59.65 1.05l-.34 3.32zm-17.41 85.5L31.09 84.41c-.71-.26-1.17-1.04-1.18-2.02l-.03-4.21L67.6 91.67l-3.72 4.47z" style="fill:#504f4f"/><radialGradient id="abf" cx="43.645" cy="60.395" r="5.413" gradientTransform="matrix(1 0 0 -1 0 128)" gradientUnits="userSpaceOnUse"><stop offset="0" style="stop-color:#eee"/><stop offset="1" style="stop-color:#bdbdbd"/></radialGradient><path d="m39.05 71.96-1.7-3.63 10.9-5.08 1.69 3.63z" style="fill:url(#abf)"/><path d="m38.02 71.33-.85-1.82c-.23-.5-.02-1.1.48-1.33l.91-.42 1.69 3.63-.91.42c-.49.24-1.08.02-1.32-.48zm15.2-11.5-10.9 5.08-1.39 1.75 1.69 3.63 2.24.06 10.9-5.08z" style="fill:#504f4f"/><radialGradient id="abg" cx="63.56" cy="53.145" r="5.415" gradientTransform="matrix(1 0 0 -1 0 128)" gradientUnits="userSpaceOnUse"><stop offset="0" style="stop-color:#eee"/><stop offset="1" style="stop-color:#bdbdbd"/></radialGradient><path d="m67.92 79.45-3.64 1.7-5.08-10.9 3.64-1.69z" style="fill:url(#abg)"/><path d="m67.29 80.48-1.82.85c-.5.23-1.1.02-1.33-.48l-.42-.91 3.63-1.69.42.91c.24.49.02 1.08-.48 1.32zm-6.06-17.74-5.45 2.54 5.08 10.9 1.76 1.39 3.63-1.69.06-2.24z" style="fill:#504f4f"/><radialGradient id="abh" cx="53.93" cy="57.665" r="5.275" gradientTransform="matrix(1 0 0 -1 0 128)" gradientUnits="userSpaceOnUse"><stop offset="0" style="stop-color:#eee"/><stop offset="1" style="stop-color:#bdbdbd"/></radialGradient><path d="m53.76 76.67-3.77-1.37L54.1 64l3.77 1.37z" style="fill:url(#abh)"/><path d="m52.59 76.95-1.88-.69a.998.998 0 0 1-.6-1.28l.34-.94 3.77 1.37-.34.94c-.2.52-.77.79-1.29.6zm2.61-18.88-4.12 11.29.26 2.23 3.77 1.37 1.62-1.54 4.11-11.3z" style="fill:#504f4f"/><radialGradient id="abi" cx="63.625" cy="105.25" r="35.011" gradientTransform="matrix(1 0 0 -1 0 128)" gradientUnits="userSpaceOnUse"><stop offset="0" style="stop-color:red"/><stop offset=".51" style="stop-color:#fd0100"/><stop offset=".714" style="stop-color:#f60300"/><stop offset=".863" style="stop-color:#ea0700"/><stop offset=".986" style="stop-color:#d90d00"/><stop offset="1" style="stop-color:#d60e00"/></radialGradient><path d="m76.22 25.85-10.24-3.73c-.86-.31-1.83 0-2.35.76l-1.44 2.13-12.15 33.53 15.06 5.48L77.26 30.5l.27-2.55c.1-.92-.44-1.78-1.31-2.1z" style="fill:url(#abi)"/><radialGradient id="abj" cx="56.25" cy="68.5" r="7.174" gradientTransform="matrix(1 0 0 -1 0 128)" gradientUnits="userSpaceOnUse"><stop offset="0" style="stop-color:red"/><stop offset=".51" style="stop-color:#fd0100"/><stop offset=".714" style="stop-color:#f60300"/><stop offset=".863" style="stop-color:#ea0700"/><stop offset=".986" style="stop-color:#d90d00"/><stop offset="1" style="stop-color:#d60e00"/></radialGradient><path d="M48.67 56.33c-1.14 3.12 2.16 7.18 7.36 9.07s10.33.9 11.47-2.22l-18.83-6.85z" style="fill:url(#abj)"/><radialGradient id="abk" cx="80.593" cy="31.658" r="30.276" gradientTransform="matrix(1 0 0 -1 0 128)" gradientUnits="userSpaceOnUse"><stop offset="0" style="stop-color:red"/><stop offset=".51" style="stop-color:#fd0100"/><stop offset=".714" style="stop-color:#f60300"/><stop offset=".863" style="stop-color:#ea0700"/><stop offset=".986" style="stop-color:#d90d00"/><stop offset="1" style="stop-color:#d60e00"/></radialGradient><path d="M84.16 96c-10.91 0-17.1 8.14-22.21 15.71-.12.18-.33.29-.55.29H32.25c-4.83 0-8.25 9.23-8.25 12h80.11s-5.19-28-19.95-28z" style="fill:url(#abk)"/><path d="m67.75 65.41-20.71-7.54a.998.998 0 0 1-.6-1.28l.69-1.88c.19-.52.76-.79 1.28-.6l20.71 7.54c.52.19.79.76.6 1.28l-.69 1.88c-.18.52-.76.79-1.28.6z" style="fill:#504f4f"/><radialGradient id="abl" cx="24.081" cy="51.603" r="52.514" gradientTransform="matrix(1 0 0 -1 0 128)" gradientUnits="userSpaceOnUse"><stop offset="0" style="stop-color:#b3e5fc"/><stop offset="1" style="stop-color:#4fc3f7"/></radialGradient><path d="M71.37 95.36 24.58 78.63a1.19 1.19 0 0 1-.72-1.53l.13-.38c.22-.62.91-.95 1.53-.72l46.79 16.74c.62.22.95.91.72 1.53l-.13.38c-.22.61-.9.94-1.53.71z" style="fill:url(#abl)"/><circle cx="74.93" cy="42.86" r="6.01" style="fill:#504f4f"/><radialGradient id="abm" cx="74.808" cy="89.475" r="7.753" gradientTransform="matrix(1 0 0 -1 0 128)" gradientUnits="userSpaceOnUse"><stop offset="0" style="stop-color:#eee"/><stop offset="1" style="stop-color:#bdbdbd"/></radialGradient><circle cx="74.93" cy="42.86" r="3.5" style="fill:url(#abm)"/><circle cx="83.59" cy="106.63" r="6.01" style="fill:#504f4f"/><radialGradient id="abn" cx="83.465" cy="25.71" r="7.753" gradientTransform="matrix(1 0 0 -1 0 128)" gradientUnits="userSpaceOnUse"><stop offset="0" style="stop-color:#eee"/><stop offset="1" style="stop-color:#bdbdbd"/></radialGradient><circle cx="83.59" cy="106.63" r="3.5" style="fill:url(#abn)"/></svg><svg viewBox="0 0 128 128" id="1F52D" xmlns="http://www.w3.org/2000/svg"><path fill="#F44336" d="m64.07 104.04-20.7-7.2-1.29 3.7 20.71 7.19zm.75 0 20.71-7.2 1.28 3.7-20.71 7.19z"/><path fill="#424242" d="m43.98 98.12 18.82 6.54-.63 1.81-18.82-6.54.63-1.81m-.61-1.28-1.29 3.69 20.71 7.2 1.29-3.69-20.71-7.2zm41.54 1.28.63 1.8-18.82 6.54-.63-1.81 18.82-6.53m.62-1.28-20.71 7.2 1.29 3.69 20.71-7.2-1.29-3.69z" opacity=".2"/><radialGradient id="aca" cx="63.167" cy="61.971" r="62.247" gradientTransform="matrix(1 0 0 .9995 0 .03)" gradientUnits="userSpaceOnUse"><stop offset="0" stop-color="#E57373"/><stop offset=".384" stop-color="#EF5350"/><stop offset="1" stop-color="#F44336"/></radialGradient><path fill="url(#aca)" d="M64.3 62.38a3.934 3.934 0 0 0-5.37 1.43l-26.9 46.58c-1.08 1.88-.44 4.28 1.43 5.36 1.88 1.08 4.29.44 5.37-1.43l26.91-46.58c1.08-1.88.43-4.28-1.44-5.36z"/><path fill="url(#aca)" d="m95.97 110.53-26.9-46.58a3.934 3.934 0 0 0-5.37-1.43 3.924 3.924 0 0 0-1.44 5.36l26.91 46.58c1.08 1.88 3.48 2.52 5.37 1.44 1.87-1.09 2.52-3.5 1.43-5.37z"/><path fill="#424242" d="M62.33 63.85c.34 0 .67.09.97.26a1.926 1.926 0 0 1 .71 2.63L37.1 113.32c-.34.59-.98.96-1.67.96a1.926 1.926 0 0 1-1.66-2.89l26.9-46.58c.33-.6.97-.96 1.66-.96m0-2c-1.36 0-2.68.7-3.4 1.96l-26.9 46.58c-1.08 1.88-.44 4.28 1.43 5.36.62.36 1.3.53 1.96.53 1.36 0 2.68-.7 3.4-1.96l26.91-46.58a3.92 3.92 0 0 0-1.43-5.36c-.62-.36-1.3-.53-1.97-.53z" opacity=".2"/><path fill="#424242" d="M65.66 63.98c.69 0 1.33.37 1.68.96l26.9 46.59c.26.44.33.96.19 1.45-.13.5-.45.92-.89 1.17-.3.17-.62.26-.97.26-.69 0-1.33-.37-1.68-.96l-26.9-46.58c-.26-.44-.32-.96-.19-1.46s.45-.91.9-1.17c.3-.17.62-.26.96-.26m0-2c-.67 0-1.34.17-1.96.53a3.924 3.924 0 0 0-1.44 5.36l26.91 46.58a3.93 3.93 0 0 0 3.41 1.96c.67 0 1.34-.17 1.96-.52 1.87-1.08 2.52-3.49 1.43-5.36l-26.9-46.58a3.94 3.94 0 0 0-3.41-1.97z" opacity=".2"/><radialGradient id="acb" cx="63.167" cy="61.971" r="62.247" gradientTransform="matrix(1 0 0 .9995 0 .03)" gradientUnits="userSpaceOnUse"><stop offset=".004" stop-color="#E57373"/><stop offset=".56" stop-color="#EF5350"/><stop offset="1" stop-color="#F44336"/></radialGradient><path fill="url(#acb)" d="M63.98 62.36c-2.17 0-3.93 1.75-3.93 3.92v53.79c0 2.16 1.76 3.93 3.93 3.93s3.92-1.76 3.92-3.93V66.29a3.916 3.916 0 0 0-3.92-3.93z"/><path fill="#424242" d="M63.98 64.36c1.06 0 1.92.86 1.92 1.92v53.79c0 1.06-.86 1.93-1.92 1.93s-1.93-.86-1.93-1.93V66.29c.01-1.06.87-1.93 1.93-1.93m0-2c-2.17 0-3.93 1.75-3.93 3.92v53.79c0 2.16 1.76 3.93 3.93 3.93s3.92-1.76 3.92-3.93V66.29a3.916 3.916 0 0 0-3.92-3.93z" opacity=".2"/><path fill="#B0BEC5" d="M78.62 72.52z"/><radialGradient id="acc" cx="16.333" cy="53.804" r="17.264" gradientTransform="matrix(1 0 0 .9995 0 .03)" gradientUnits="userSpaceOnUse"><stop offset="0" stop-color="#E0E0E0"/><stop offset=".527" stop-color="#BDBDBD"/><stop offset="1" stop-color="#9E9E9E"/></radialGradient><path fill="url(#acc)" d="M10.27 76.92 4.36 62.79 46.8 45.07l5.9 14.14z"/><radialGradient id="acd" cx="35.333" cy="44.804" r="22.91" gradientTransform="matrix(1 0 0 .9995 0 .03)" gradientUnits="userSpaceOnUse"><stop offset="0" stop-color="#F5F5F5"/><stop offset=".692" stop-color="#E6E6E6"/><stop offset="1" stop-color="#E0E0E0"/></radialGradient><path fill="url(#acd)" d="m34.09 67.68-6.4-15.33c-.41-.99.01-2.13.98-2.61l33.08-16.3c1.05-.52 2.32-.04 2.78 1.04l8.18 19.57c.45 1.08-.1 2.32-1.21 2.7L36.63 68.82a2.04 2.04 0 0 1-2.54-1.14z"/><radialGradient id="ace" cx="79" cy="18.971" r="38.989" gradientTransform="matrix(1 0 0 .9995 0 .03)" gradientUnits="userSpaceOnUse"><stop offset="0" stop-color="#F5F5F5"/><stop offset=".692" stop-color="#E6E6E6"/><stop offset="1" stop-color="#E0E0E0"/></radialGradient><path fill="url(#ace)" d="m117.12 41.08-12.15-29.07a2.026 2.026 0 0 0-2.74-1.05l-47.2 22.27c-.98.46-1.43 1.62-1.01 2.62l10.32 24.69c.42 1 1.55 1.5 2.57 1.13l49.03-17.9a2.024 2.024 0 0 0 1.18-2.69z"/><radialGradient id="acf" cx="112.84" cy="7.787" r="32.202" gradientTransform="matrix(1 0 0 .9995 0 .03)" gradientUnits="userSpaceOnUse"><stop offset="0" stop-color="#B3E5FC"/><stop offset="1" stop-color="#4FC3F7"/></radialGradient><path fill="url(#acf)" d="M121.02 41.25c-3.91 1.63-10.16-4.43-13.97-13.54s-3.73-17.82.18-19.45 10.16 4.43 13.97 13.54 3.72 17.82-.18 19.45z"/><path fill="#424242" d="M108.59 10c2.65 0 7.51 4.81 10.76 12.58 1.74 4.16 2.68 8.33 2.65 11.74-.03 2.7-.7 4.65-1.75 5.09-.18.07-.37.11-.59.11-2.65 0-7.51-4.81-10.76-12.58-1.74-4.16-2.68-8.33-2.65-11.74.03-2.7.7-4.65 1.75-5.09.18-.08.37-.11.59-.11m0-2c-.48 0-.93.09-1.36.27-3.91 1.63-3.99 10.34-.18 19.45 3.39 8.11 8.72 13.81 12.6 13.81.48 0 .93-.09 1.36-.27 3.91-1.63 3.99-10.34.18-19.45C117.81 13.69 112.48 8 108.59 8z" opacity=".2"/><linearGradient id="acg" x1="36.446" x2="25.071" y1="57.149" y2="62.274" gradientUnits="userSpaceOnUse"><stop offset="0" stop-color="#424242"/><stop offset="1" stop-color="#424242" stop-opacity="0"/></linearGradient><path fill="url(#acg)" d="M27.93 52.97 4.36 62.81l5.91 14.15 23.57-9.85z"/><linearGradient id="ach" x1="68.886" x2="51.071" y1="44.084" y2="51.685" gradientUnits="userSpaceOnUse"><stop offset="0" stop-color="#424242"/><stop offset="1" stop-color="#424242" stop-opacity="0"/></linearGradient><path fill="url(#ach)" d="M54.5 37.03 28.66 49.77c-.96.47-1.39 1.62-.98 2.61l6.4 15.34c.41.99 1.53 1.49 2.54 1.14l27.23-9.42-9.35-22.41z"/><linearGradient id="aci" x1="111.32" x2="97.473" y1="26.346" y2="32.414" gradientUnits="userSpaceOnUse"><stop offset="0" stop-color="#424242"/><stop offset="1" stop-color="#424242" stop-opacity="0"/></linearGradient><path fill="url(#aci)" d="m99.53 12.24-44.5 21.01c-.98.46-1.43 1.62-1.01 2.62l10.32 24.71c.42 1 1.55 1.5 2.57 1.13l46.22-16.88-13.6-32.59z"/><path fill="#424242" d="m117.12 41.08-12.15-29.07a2.038 2.038 0 0 0-1.88-1.25c-.29 0-.59.06-.87.2l-47.2 22.27c-.98.46-1.43 1.62-1.01 2.62l.48 1.15-25.83 12.74c-.96.47-1.39 1.62-.98 2.61l.25.59-23.57 9.85 5.91 14.14 23.58-9.84.25.59c.32.78 1.08 1.25 1.88 1.25.22 0 .45-.04.66-.11l27.23-9.42.48 1.15c.32.78 1.08 1.25 1.88 1.25.23 0 .47-.04.7-.12l49.03-17.9c1.07-.4 1.61-1.63 1.16-2.7zM63.86 59.4l-1.16-2.77-28.86 10.45-1.16-2.77L11.88 73l-3.6-8.61 20.81-8.69-1.15-2.77 27.72-13.17L54.5 37l48.1-22.91 11.37 27.2L63.86 59.4z" opacity=".2"/><radialGradient id="acj" cx="10.833" cy="58.138" r="18.179" gradientTransform="matrix(1 0 0 .9995 0 .03)" gradientUnits="userSpaceOnUse"><stop offset="0" stop-color="#EF9A9A"/><stop offset="1" stop-color="#EF5350"/></radialGradient><path fill="url(#acj)" d="m10.47 77.41-6.31-15.1c-.43-1.04.06-2.23 1.09-2.66l5.68-2.37c1.04-.43 2.23.06 2.66 1.09l6.31 15.1c.43 1.04-.06 2.23-1.09 2.66l-5.68 2.37c-1.04.43-2.23-.06-2.66-1.09z"/><radialGradient id="ack" cx="105.83" cy="3.804" r="41.626" gradientTransform="matrix(1 0 0 .9995 0 .03)" gradientUnits="userSpaceOnUse"><stop offset="0" stop-color="#EF9A9A"/><stop offset="1" stop-color="#EF5350"/></radialGradient><path fill="url(#ack)" d="M114.41 47.85 98.26 9.19c-.43-1.04.06-2.23 1.09-2.66l5.68-2.37c1.04-.43 2.23.06 2.66 1.09l16.16 38.67c.43 1.04-.06 2.23-1.09 2.66l-5.68 2.37c-1.05.43-2.24-.06-2.67-1.1z"/><path fill="#424242" d="m105.81 4 .03 2.02 16.14 38.71-5.72 2.35-16.14-38.71L105.8 6h.01V4m0 0c-.26 0-.53.05-.78.16l-5.68 2.37a2.02 2.02 0 0 0-1.09 2.66l16.16 38.67c.33.78 1.08 1.25 1.88 1.25.26 0 .53-.05.78-.16l5.68-2.37a2.02 2.02 0 0 0 1.09-2.66L107.69 5.25A2.048 2.048 0 0 0 105.81 4zm-94.1 53.12.03 2.02 6.29 15.14-5.72 2.35-6.29-15.14 5.68-2.37h.01v-2m0 0c-.26 0-.53.05-.78.16l-5.68 2.37a2.02 2.02 0 0 0-1.09 2.66l6.31 15.1c.33.78 1.08 1.25 1.88 1.25.26 0 .53-.05.78-.16l5.68-2.37a2.02 2.02 0 0 0 1.09-2.66l-6.31-15.1a2.038 2.038 0 0 0-1.88-1.25z" opacity=".2"/><radialGradient id="acl" cx="54.75" cy="31.221" r="35.67" gradientTransform="matrix(1 0 0 .9995 0 .03)" gradientUnits="userSpaceOnUse"><stop offset="0" stop-color="#EF9A9A"/><stop offset="1" stop-color="#EF5350"/></radialGradient><path fill="url(#acl)" d="M85.94 55a1.999 1.999 0 0 0 1.22-2.55l-.02-.06-5.24-14.78h-.01l-5.83-16.42c-.43-1.22-1.89-1.7-2.98-1.01-4.29 2.72-6.31 8.17-4.55 13.15l4.67 13.15c.11.32.21.64.29.97.02.1.04.19.07.29.05.24.1.48.14.72.02.1.03.19.04.29.04.31.07.62.09.94v.03c.01.33.01.65-.01.98 0 .09-.01.17-.02.26-.02.24-.04.49-.08.73a13.06 13.06 0 0 1-.21 1.13c-.01.03-.01.06-.02.09-.08.31-.17.61-.27.91-.03.09-.07.18-.1.27-.08.21-.16.42-.25.62-.05.1-.09.2-.14.31-.1.21-.21.41-.32.62-.04.08-.08.16-.13.23-.15.25-.31.5-.48.74-.08.11-.17.22-.25.34l-.31.4c-.1.12-.2.24-.31.36-.1.11-.2.21-.31.32-.11.12-.22.23-.34.34h.01c-1.02.96-2.23 1.74-3.61 2.27l-.01.01-.04.01c-1.42.46-2.86.62-4.27.51-.47-.04-.93-.11-1.39-.2-.12-.02-.23-.05-.35-.08-.43-.1-.85-.22-1.26-.37l-.1-.03c-.44-.17-.86-.37-1.27-.58-.1-.05-.2-.11-.3-.17-.4-.23-.78-.47-1.15-.74-.01-.01-.03-.02-.04-.03-.38-.28-.74-.6-1.08-.93l-.24-.24c-.67-.69-1.25-1.47-1.73-2.33-.06-.1-.11-.21-.17-.31-.23-.44-.44-.89-.61-1.37l-1.82-5.15c-1.78-5-6.82-7.96-11.89-7.34-1.26.15-2.03 1.46-1.61 2.66l5.26 14.82 2.96 8.36.02.06a2.007 2.007 0 0 0 2.55 1.22l18.59-6.58.61-.22L85.94 55z"/><path fill="#424242" d="m74.17 19.86.01 2 5.83 16.42c.02.06.04.11.07.17l5.17 14.6.02.06-11.43 4.05.18-.3c.04-.07.08-.14.12-.22l.03-.06c.13-.24.26-.48.38-.72.06-.12.11-.23.16-.36.11-.24.2-.48.3-.73l.03-.07c.03-.08.06-.16.09-.25.13-.38.24-.73.32-1.07.01-.05.02-.1.02-.11.08-.32.15-.66.2-1.01.01-.09.03-.18.04-.27l.01-.05c.04-.29.07-.57.09-.86l.01-.07c.01-.08.01-.16.02-.23.02-.42.02-.79.01-1.16v-.07c-.02-.34-.05-.69-.1-1.07-.01-.09-.03-.18-.04-.28l-.01-.06c-.04-.28-.1-.57-.16-.85l-.02-.07-.06-.27c-.11-.42-.22-.8-.34-1.14l-4.67-13.15c-1.41-3.99.16-8.53 3.74-10.8.01-.01.02-.01.02-.01v-1.99m-33.9 23.32c3.88 0 7.36 2.45 8.66 6.09l1.82 5.16a12.734 12.734 0 0 0 .91 1.99c.56 1 1.24 1.92 2.04 2.75.09.09.18.19.28.28.44.43.86.79 1.27 1.1.02.02.05.04.08.06.39.29.82.56 1.32.85.12.07.24.13.36.2.54.28 1.03.51 1.5.69.05.02.1.04.15.05.07.02.13.05.2.07l-11.44 4.05-.02-.06c-.01-.03-.03-.07-.04-.1l-2.93-8.26-5.28-14.82c.39-.08.76-.1 1.12-.1m33.86-23.32a2 2 0 0 0-1.09.32c-4.29 2.72-6.31 8.17-4.55 13.15l4.67 13.15c.11.32.21.64.29.97.02.1.04.19.07.29.05.24.1.48.14.72.02.1.03.19.04.29.04.31.07.62.09.94v.03c.01.33.01.65-.01.98 0 .09-.01.17-.02.26-.02.24-.04.49-.08.73a13.06 13.06 0 0 1-.21 1.13c-.01.03-.01.06-.02.09-.08.31-.17.61-.27.91-.03.09-.07.18-.1.27-.08.21-.16.42-.25.62-.05.1-.09.2-.14.31-.1.21-.21.41-.32.62-.04.08-.08.16-.13.23-.15.25-.31.5-.48.74-.08.11-.17.22-.25.34l-.31.4c-.1.12-.2.24-.31.36-.1.11-.2.21-.31.32-.11.12-.22.23-.34.34h.01c-1.02.96-2.23 1.74-3.61 2.27l-.01.01-.04.01a11 11 0 0 1-3.42.54c-.28 0-.57-.01-.85-.03-.47-.04-.93-.11-1.39-.2-.12-.02-.23-.05-.35-.08-.43-.1-.85-.22-1.26-.37l-.1-.03c-.44-.17-.86-.37-1.27-.58-.1-.05-.2-.11-.3-.17-.4-.23-.78-.47-1.15-.74-.01-.01-.03-.02-.04-.03-.38-.28-.74-.6-1.08-.93l-.24-.24c-.67-.69-1.25-1.47-1.73-2.33-.06-.1-.11-.21-.17-.31-.23-.44-.44-.89-.61-1.37l-1.82-5.15c-1.62-4.56-5.95-7.42-10.54-7.42-.45 0-.9.03-1.35.08-1.26.15-2.03 1.46-1.61 2.66l5.26 14.82 2.96 8.36.02.06a1.998 1.998 0 0 0 2.56 1.21l18.59-6.58.61-.22L85.94 55a1.999 1.999 0 0 0 1.22-2.55l-.02-.06-5.24-14.78h-.01l-5.83-16.42c-.29-.84-1.07-1.33-1.89-1.33z" opacity=".2"/><radialGradient id="acm" cx="64" cy="55.455" r="17.847" gradientTransform="matrix(1 0 0 .9995 0 .03)" gradientUnits="userSpaceOnUse"><stop offset=".004" stop-color="#FFC107"/><stop offset="1" stop-color="#FFA000"/></radialGradient><ellipse cx="64" cy="63.32" fill="url(#acm)" rx="9" ry="9"/><radialGradient id="acn" cx="63.805" cy="52.806" r="12.013" gradientTransform="matrix(.7376 0 0 .7372 16.793 19.436)" gradientUnits="userSpaceOnUse"><stop offset="0" stop-color="#FFE082"/><stop offset=".991" stop-color="#FFCA28"/></radialGradient><circle cx="64" cy="63.32" r="4" fill="url(#acn)"/><path fill="#424242" d="M64 56.32c3.86 0 7 3.14 7 7s-3.14 7-7 7-7-3.14-7-7 3.14-7 7-7m0-2a9 9 0 1 0 .001 18.001A9 9 0 0 0 64 54.32z" opacity=".2"/></svg><svg style="enable-background:new 0 0 128 128" viewBox="0 0 128 128" xml:space="preserve" id="1F9EA" xmlns="http://www.w3.org/2000/svg"><linearGradient id="ada" x1="91.828" x2="-2.671" y1="89.953" y2="-4.547" gradientTransform="matrix(-1 0 0 1 129.766 0)" gradientUnits="userSpaceOnUse"><stop offset=".234" style="stop-color:#e6e6e6"/><stop offset=".434" style="stop-color:#e2e5e6"/><stop offset=".625" style="stop-color:#d7e0e5"/><stop offset=".812" style="stop-color:#c3d9e4"/><stop offset=".996" style="stop-color:#a9cee3"/><stop offset="1" style="stop-color:#a8cee3"/></linearGradient><path d="m13.25 90.94 74.1-74.1c.12-.12.21-.28.32-.46.79-1.34.87-2.63.74-4.33-.21-2.88.47-4.44 1.86-5.49 1.85-1.38 8.24-1.1 20.2 10.86s12.24 18.34 10.86 20.19c-1.04 1.4-2.6 2.07-5.49 1.86-1.7-.12-2.99-.05-4.33.74-.18.11-.35.2-.46.32l-74.1 74.1c-10.18 10.18-19.9 8.63-26.07 2.46l-.04-.04-.04-.04c-6.18-6.17-7.73-15.89 2.45-26.07z" style="fill:url(#ada)"/><radialGradient id="adb" cx="32.271" cy="32.094" r="36.438" gradientTransform="matrix(-.6958 -.7182 -.2981 .2888 129.518 46.002)" gradientUnits="userSpaceOnUse"><stop offset=".299" style="stop-color:#5cbae6;stop-opacity:0"/><stop offset=".679" style="stop-color:#5cbae6"/><stop offset=".957" style="stop-color:#5cbae6;stop-opacity:0"/></radialGradient><path d="M101.53 26.36c-5.86-5.86-10.37-8.91-13.68-10.34.61-1.22.67-2.43.56-3.97-.06-.88-.04-1.63.06-2.28 3.06-.09 8.98 2.17 18.23 11.43 9.25 9.25 11.51 15.17 11.42 18.23-.66.1-1.4.12-2.28.06-1.55-.11-2.76-.05-3.97.56-1.43-3.32-4.48-7.83-10.34-13.69z" style="opacity:.23;fill:url(#adb)"/><linearGradient id="adc" x1="52.793" x2="84.405" y1="49.165" y2="49.165" gradientTransform="rotate(-134.999 66.666 63.451)" gradientUnits="userSpaceOnUse"><stop offset="0" style="stop-color:#4caf50"/><stop offset=".693" style="stop-color:#a4e849"/><stop offset=".76" style="stop-color:#9cde47"/><stop offset=".873" style="stop-color:#86c441"/><stop offset="1" style="stop-color:#689f38"/></linearGradient><path d="M61.57 44.24 14.8 91.03c-9.88 9.87-8.63 19.1-2.89 24.84 5.74 5.73 14.95 7.01 24.85-2.89l73.11-73.11-48.3 4.37z" style="fill:url(#adc)"/><path d="m14.19 99.35 74.84-74.84a1.611 1.611 0 1 1 2.28 2.28l-74.84 74.84c-.63.63-1.65.63-2.28 0a1.63 1.63 0 0 1 0-2.28z" style="opacity:.55;fill:#fff;enable-background:new"/><circle cx="86.84" cy="51.58" r="4.54" style="opacity:.69;fill:#fff;enable-background:new"/><circle cx="96.32" cy="31.06" r="4.54" style="fill:#9ccc65"/><circle cx="74.08" cy="57.01" r="2.2" style="opacity:.69;fill:#fff;enable-background:new"/><circle cx="111.4" cy="10.52" r="4.44" style="fill:#9ccc65"/><circle cx="121.82" cy="12.89" r="2.07" style="fill:#9ccc65"/><circle cx="60.52" cy="70.95" r="3.81" style="opacity:.69;fill:#fff;enable-background:new"/><circle cx="66.44" cy="60.62" r="1.47" style="opacity:.69;fill:#fff;enable-background:new"/></svg><svg style="enable-background:new 0 0 128 128" viewBox="0 0 128 128" xml:space="preserve" id="1F9EB" xmlns="http://www.w3.org/2000/svg"><linearGradient id="aea" x1="16.5" x2="122" y1="808.94" y2="808.94" gradientTransform="translate(0 -713.89)" gradientUnits="userSpaceOnUse"><stop offset=".005" style="stop-color:#cde5b1"/><stop offset=".646" style="stop-color:#fff"/><stop offset=".702" style="stop-color:#f7fbf2"/><stop offset=".804" style="stop-color:#e1f0d1"/><stop offset=".94" style="stop-color:#bfde9b"/><stop offset="1" style="stop-color:#aed581"/></linearGradient><path d="m9 84.7-.3 19.7h.1c0 10.7 24.6 19.5 54.9 19.5s54.9-8.7 54.9-19.4h.1l-.2-19.1s2-19.2-54.1-19.2C7.5 66.1 8.9 84.8 9 84.7z" style="fill:url(#aea)"/><ellipse cx="63.7" cy="105.3" rx="54.9" ry="18.5" style="fill:#d6eabf"/><ellipse cx="50.4" cy="108.6" rx="12.9" ry="4.8" style="fill:#009245"/><ellipse cx="66.6" cy="95" rx="7.9" ry="3.6" style="fill:#00c853"/><ellipse cx="21" cy="98.2" rx="3.9" ry="1.8" style="fill:#7cb342"/><ellipse cx="18.8" cy="102.1" rx="2.6" ry="1.2" style="fill:#8bc34a"/><ellipse cx="25.1" cy="105.1" rx="2.6" ry="1.2" style="fill:#7cb342"/><ellipse cx="31.4" cy="110.7" rx="4.5" ry="2.1" style="fill:#64dd17"/><ellipse cx="17.1" cy="107.3" rx="2.8" ry="1.3" style="fill:#7cb342"/><ellipse cx="71.7" cy="107.9" rx="5" ry="2.3" style="fill:#009245"/><ellipse cx="85.1" cy="100" rx="7.3" ry="2.7" style="fill:#aed581"/><ellipse cx="98.8" cy="104.1" rx="5" ry="2.3" style="fill:#00c853"/><ellipse cx="103.6" cy="112.2" rx="2.5" ry="1.2" style="fill:#7cb342"/><ellipse cx="94.6" cy="111.4" rx="4.2" ry="1.9" style="fill:#7cb342"/><ellipse cx="86.1" cy="107.4" rx="4.2" ry="1.9" style="fill:#64dd17"/><path d="m100.3 27.2-.4-.4-2.8-2.8-29.6 29.6-.5 3c6.3-3.6 12.6-7 19.2-9.8L103.1 30l-2.8-2.8z" style="fill:#e3f2fd"/><path d="m66.8 58.2-4 4.8 1.3 1.3 4.8-3.9 4.5-.7 12.8-12.8c-6.6 2.7-18 2.5-19.2 9.8l-.2 1.5z" style="fill:#64dd17"/><linearGradient id="aeb" x1="94.21" x2="121.547" y1="746.751" y2="719.12" gradientTransform="translate(0 -713.89)" gradientUnits="userSpaceOnUse"><stop offset="0" style="stop-color:#29abe2"/><stop offset="1" style="stop-color:#0071bc"/></linearGradient><path d="M90.1 24.6c-1.2 1.2.5 5 3.9 8.4s7.2 5.2 8.4 4c.8-.8.4-2.5-.8-4.5l21.1-20c1.6-2 1.5-4.8-.3-6.7s-4.7-1.9-6.7-.3L94.6 25.4c-2-1.2-3.7-1.6-4.5-.8z" style="fill:url(#aeb)"/><g style="opacity:.2"><path d="M118.9 6.2c.8 0 1.5.3 2.1.9 1.1 1.1 1.2 2.8.2 4 0 .1-.1.1-.1.2l-20.7 19.8c-.7.6-.8 1.7-.3 2.5s.7 1.4.8 1.8c-.6-.2-1.4-.5-2.4-1.2-.3-.2-.7-.3-1.1-.3-.5 0-1 .2-1.4.6L72.5 57.7l-3.7.6.2-1.4.4-2.3 23.4-23.4c.7-.7.8-1.7.2-2.5-.7-1.1-1.1-1.9-1.2-2.4.4.1 1 .4 1.8.8.3.2.7.3 1 .3.5 0 1-.2 1.4-.5L116.7 7c.1-.1.2-.1.2-.2.6-.4 1.3-.6 2-.6m0-2c-1.1 0-2.2.4-3.2 1.1l-21.1 20c-1.3-.8-2.5-1.2-3.4-1.2-.5 0-.9.1-1.1.4-.8.9-.3 2.9 1.2 5.2L67.5 53.6l-.5 2.9-.2 1.6-3.9 4.8 1.3 1.3 4.8-3.9 4.5-.7 23.9-23.9c1.6 1 3 1.6 4.1 1.6.5 0 .9-.1 1.1-.4.8-.8.4-2.5-.8-4.5l21.1-20c1.6-2 1.5-4.8-.3-6.7-1.2-1-2.5-1.5-3.7-1.5z" style="fill:#424242"/></g><path d="M53.2 79.5c0 .2-.1.4-.1.7-.3 2.6 0 5.7 2.8 6.7 2.3.9 4.7-.4 5.8-2.4 1.6-2.6.9-5.9.2-8.7-.8-3.2-1.2-6.2-.5-9.5-4.4 2.8-7.4 8-8.2 13.2z" style="fill:#64dd17"/><g style="opacity:.2"><path d="M64.4 68.8c14.3 0 39.6 1.4 48.8 11.1 2.6 2.7 2.7 4.9 2.7 5.2v.3l.2 18.5c0 .2-.1.4-.1.6 0 7.9-21.5 16.8-52.3 16.8s-52.3-8.8-52.3-16.8c0-.2 0-.4-.1-.5l.3-19.1v-.4c0-.4.3-2.3 2.6-4.6 9.5-9.7 35.5-11.1 50.2-11.1m0-2.7C7.6 66.1 8.9 84.7 9 84.7l-.3 19.7h.1c0 10.7 24.6 19.4 54.9 19.4s54.9-8.7 54.9-19.4h.1l-.2-19.1s1.9-19.2-54.1-19.2z" style="fill:#424242"/></g><path d="M47.3 113.8c3.6 1.3 6.8 4.6 10.8 4.7.7 0 1.3 0 1.9-.1V98.7s-6.5-.1-18.3-1.3c-12.2-1.3-15.9-3.8-15.9-3.8 0 .3.1 10.5.2 16.9 5.2 5.6 14.3.8 21.3 3.3zm47.8-1.4c.9 5.6 7.3 2.8 9.7-.3 3-4 1.8-20.4 1.8-20.4l-12.5 3.8c0 5.6.2 11.4 1 16.9z" style="opacity:.45;fill:#fff;enable-background:new"/><g style="opacity:.94"><path d="M63.7 96.9c-25.9 0-45-5.4-51.5-11.6v1.6c0 .5.2.9.6 1.2 9.1 6.2 28.2 11.3 50.9 11.3 22.3 0 41.2-5.4 50.5-11.5.4-.3.6-.7.6-1.2v-1.1c-6.8 6.1-25.7 11.3-51.1 11.3z" style="fill:#fff"/></g><g style="opacity:.2"><path d="M59.2 70.9c.1 1.9.5 3.7.9 5.3.6 2.7 1.1 5.3 0 7.2-.6 1-1.6 1.7-2.6 1.7-.3 0-.5-.1-.8-.2-1.3-.5-1.9-2.1-1.6-4.7 0-.2 0-.4.1-.6.4-3.1 1.9-6.3 4-8.7zm2.3-4.6c-4.5 2.8-7.5 7.9-8.3 13.2 0 .2-.1.4-.1.7-.3 2.6 0 5.7 2.8 6.7.5.2 1 .3 1.5.3 1.8 0 3.4-1.1 4.3-2.7 1.6-2.6.9-5.9.2-8.7-.7-3.2-1.1-6.2-.4-9.5z" style="fill:#424242"/></g></svg><svg viewBox="0 0 128 128" id="1F9EC" xmlns="http://www.w3.org/2000/svg"><path fill="#4FA4FF" d="m97.006 120.57 23.348-23.349.672.672-23.348 23.349z"/><path fill="#FF4000" d="m97.008 120.572 11.37-11.37.672.672-11.37 11.37z"/><path fill="#4FA4FF" d="m95.219 112.36 16.92-16.92.673.67-16.921 16.922z"/><path fill="#FF4000" d="m95.215 112.357 8.16-8.16.672.672-8.16 8.16z"/><path fill="#4FA4FF" d="m92.184 106.983 12.261-12.261.672.671-12.261 12.262z"/><path fill="#FF4000" d="m92.19 106.98 6.987-6.987.671.672-6.986 6.986z"/><path fill="#4FA4FF" d="m67.118 90.68 23.348-23.349.672.672-23.348 23.35z"/><path fill="#FF4000" d="m78.293 79.505 12.17-12.17.671.672-12.169 12.17z"/><path fill="#4FA4FF" d="m65.316 82.463 16.92-16.921.673.672-16.921 16.921z"/><path fill="#FF4000" d="m73.289 74.497 8.952-8.953.671.672-8.951 8.952z"/><path fill="#4FA4FF" d="m64.604 74.776 9.949-9.95.671.672-9.948 9.95z"/><path fill="#FF4000" d="m69.085 70.293 5.904-5.905.672.672-5.904 5.905z"/><path fill="#4FA4FF" d="m71.838 95.4 23.348-23.349.672.672-23.348 23.35z"/><path fill="#FF4000" d="m83.014 84.224 12.169-12.17.672.672-12.17 12.17z"/><path fill="#4FA4FF" d="m80.06 97.197 16.92-16.921.672.671L80.73 97.87z"/><path fill="#FF4000" d="m88.22 89.037 8.76-8.761.672.672-8.761 8.76z"/><path fill="#4FA4FF" d="m87.74 97.912 8.103-8.103.672.671-8.104 8.104z"/><path fill="#FF4000" d="m92.223 93.427 3.295-3.295.672.672-3.295 3.295z"/><path fill="#4FA4FF" d="M6.549 30.11 29.897 6.763l.672.672L7.22 30.783z"/><path fill="#FF4000" d="m17.725 18.934 12.169-12.17.671.672-12.169 12.17z"/><path fill="#4FA4FF" d="m11.27 34.83 23.347-23.35.672.673-23.348 23.349z"/><path fill="#FF4000" d="m22.445 23.654 12.169-12.17.671.672-12.169 12.17z"/><path fill="#4FA4FF" d="m19.49 36.626 16.92-16.921.672.671-16.92 16.922z"/><path fill="#FF4000" d="m27.65 28.466 8.762-8.76.671.671-8.76 8.761z"/><path fill="#4FA4FF" d="m27.17 37.342 8.104-8.104.671.672-8.103 8.104z"/><path fill="#FF4000" d="m31.655 32.857 3.295-3.295.672.672-3.295 3.295z"/><path fill="#4FA4FF" d="m37.462 61.033 23.349-23.349.671.672-23.348 23.35z"/><path fill="#FF4000" d="m37.46 61.031 11.18-11.18.671.672-11.179 11.18z"/><path fill="#4FA4FF" d="m35.669 52.81 16.92-16.92.673.67L36.34 53.483z"/><path fill="#FF4000" d="m35.41 53.072 8.23-8.23.673.671-8.23 8.231z"/><path fill="#4FA4FF" d="m34.956 45.122 9.949-9.949.671.672-9.948 9.95z"/><path fill="#FF4000" d="m34.004 46.063 5.424-5.424.671.672-5.423 5.424z"/><path fill="#4FA4FF" d="m42.182 65.753 23.349-23.349.671.672-23.348 23.35z"/><path fill="#FF4000" d="m42.18 65.751 11.18-11.18.671.672-11.179 11.18z"/><path fill="#4FA4FF" d="m50.397 67.543 16.92-16.921.672.671-16.92 16.922z"/><path fill="#FF4000" d="m50.141 67.804 8.047-8.047.672.672-8.047 8.047z"/><path fill="#4FA4FF" d="m59.932 66.414 8.103-8.104.672.672-8.103 8.103z"/><path fill="#FF4000" d="m58.52 67.835 3.875-3.875.672.672-3.875 3.875z"/><circle cx="7.13" cy="30.16" r="3.13" fill="#4FA4FF"/><circle cx="12.91" cy="35.51" r="3.13" fill="#4FA4FF"/><circle cx="20.63" cy="37.4" r="3.13" fill="#4FA4FF"/><ellipse cx="28.6" cy="37.13" fill="#4FA4FF" rx="1.91" ry="1.91" transform="rotate(-35.755 28.603 37.131)"/><path fill="#4FA4FF" d="M46.39 36.52a1.943 1.943 0 1 1-2.75-2.75 1.943 1.943 0 1 1 2.75 2.75z"/><circle cx="53.52" cy="35.26" r="3.14" fill="#4FA4FF"/><circle cx="61.01" cy="37.74" r="3.13" fill="#4FA4FF"/><circle cx="64.72" cy="43.59" r="3.13" fill="#4FA4FF"/><circle cx="66.39" cy="52.02" r="3.13" fill="#4FA4FF"/><circle cx="66.59" cy="60.41" r="3.13" fill="#4FA4FF"/><circle cx="65.05" cy="67.44" r="3.13" fill="#4FA4FF"/><circle cx="64.63" cy="75.42" r="3.13" fill="#4FA4FF"/><circle cx="65.06" cy="83.39" r="3.13" fill="#4FA4FF"/><circle cx="67.52" cy="90.95" r="3.13" fill="#4FA4FF"/><circle cx="72.5" cy="95.49" r="3.13" fill="#4FA4FF"/><circle cx="80.48" cy="97.65" r="3.13" fill="#4FA4FF"/><circle cx="89" cy="97.92" r="1.91" fill="#4FA4FF"/><circle cx="30.45" cy="7.18" r="3.13" fill="#FF4000"/><circle cx="34.83" cy="13.7" r="3.13" fill="#FF4000"/><circle cx="35.96" cy="21.59" r="3.13" fill="#FF4000"/><circle cx="35.75" cy="29.57" r="3.13" fill="#FF4000"/><circle cx="35.15" cy="37.55" r="3.13" fill="#FF4000"/><circle cx="34.74" cy="45.53" r="3.13" fill="#FF4000"/><circle cx="35.31" cy="53.63" r="3.13" fill="#FF4000"/><circle cx="37.76" cy="61.19" r="3.13" fill="#FF4000"/><circle cx="42.87" cy="65.87" r="3.13" fill="#FF4000"/><circle cx="50.86" cy="68.03" r="3.13" fill="#FF4000"/><circle cx="59.1" cy="68.03" r="1.91" fill="#FF4000"/><ellipse cx="74.84" cy="65.11" fill="#FF4000" rx="1.95" ry="1.95" transform="rotate(-35.755 74.836 65.106)"/><ellipse cx="83.21" cy="65.08" fill="#FF4000" rx="3.14" ry="3.14" transform="rotate(-22.377 83.217 65.089)"/><circle cx="90.7" cy="67.57" r="3.13" fill="#FF4000"/><circle cx="94.41" cy="73.42" r="3.13" fill="#FF4000"/><circle cx="95.95" cy="81.71" r="3.13" fill="#FF4000"/><circle cx="95.47" cy="89.43" r="3.13" fill="#FF4000"/><circle cx="95" cy="97.53" r="3.13" fill="#FF4000"/><circle cx="94.46" cy="105.38" r="3.13" fill="#FF4000"/><circle cx="94.89" cy="113.36" r="3.13" fill="#FF4000"/><circle cx="97.35" cy="120.91" r="3.13" fill="#FF4000"/><ellipse cx="104.73" cy="95" fill="#4FA4FF" rx="1.95" ry="1.95" transform="rotate(-35.755 104.727 94.997)"/><ellipse cx="112.97" cy="94.84" fill="#4FA4FF" rx="3.14" ry="3.14" transform="rotate(-22.377 112.98 94.85)"/><circle cx="120.59" cy="97.46" r="3.13" fill="#4FA4FF"/><g fill="#424242" opacity=".2"><path d="M94.69 72.2c.3 0 .59.12.8.33.44.44.44 1.16 0 1.6a1.126 1.126 0 0 1-1.45.12c-.04-.03-.09-.06-.14-.09-.03-.05-.07-.1-.11-.15-.34-.45-.3-1.09.09-1.48.22-.22.5-.33.81-.33M72.77 94.28c.24 0 .46.07.66.21.04.03.09.06.14.09.03.05.07.1.11.15.34.45.3 1.08-.09 1.48a1.136 1.136 0 0 1-1.6 0 1.136 1.136 0 0 1 0-1.6c.2-.22.48-.33.78-.33M94.69 70.2c-.8 0-1.6.31-2.21.92a3.115 3.115 0 0 0-.26 4.1L74.59 92.85c-.54-.38-1.18-.57-1.81-.57-.8 0-1.59.3-2.2.91a3.138 3.138 0 0 0 0 4.43c.61.61 1.41.92 2.21.92s1.6-.31 2.21-.92c1.12-1.12 1.2-2.88.27-4.1L92.9 75.89c.54.38 1.18.57 1.81.57.8 0 1.59-.3 2.2-.91a3.138 3.138 0 0 0 0-4.43c-.62-.62-1.42-.92-2.22-.92zm1.53 10.29c.3 0 .59.12.8.33.44.44.44 1.16 0 1.6a1.136 1.136 0 0 1-1.41.15c-.04-.03-.08-.05-.13-.08-.04-.06-.08-.11-.12-.16-.38-.45-.35-1.11.06-1.52.22-.2.5-.32.8-.32M80.76 96.43c.23 0 .44.06.63.19.04.03.08.05.12.08.04.06.08.11.12.17a1.122 1.122 0 0 1-.87 1.84c-.3 0-.59-.12-.8-.33s-.33-.5-.33-.8.12-.59.33-.8c.21-.24.5-.35.8-.35m15.46-17.94c-.8 0-1.6.31-2.21.92-1.15 1.15-1.2 2.98-.18 4.21L82.49 94.95a3.12 3.12 0 0 0-3.94.4 3.138 3.138 0 0 0 0 4.43c.61.61 1.41.92 2.22.92.8 0 1.6-.31 2.22-.92 1.14-1.14 1.2-2.95.21-4.18l11.35-11.35c.51.33 1.11.5 1.7.5.8 0 1.6-.3 2.21-.91a3.138 3.138 0 0 0 0-4.43c-.63-.61-1.43-.92-2.24-.92z"/><path d="M95.75 88.21c.3 0 .59.12.8.33.44.44.44 1.16 0 1.6-.26.26-.57.32-.78.32-.11 0-.23-.02-.34-.05-.06-.02-.13-.03-.19-.05-.04-.04-.09-.07-.14-.1-.1-.07-.14-.1-.16-.12-.44-.44-.44-1.16 0-1.6.22-.21.51-.33.81-.33m0-2c-.8 0-1.6.31-2.21.92a3.138 3.138 0 0 0 0 4.43c.13.13.27.24.42.34l-4.12 4.12c-.18-.06-.38-.08-.57-.08-.48 0-.97.18-1.34.55a1.92 1.92 0 0 0 0 2.7 1.909 1.909 0 0 0 2.7 0c.73-.73.74-1.9.04-2.65l4.21-4.21c.3.09.6.13.91.13.79 0 1.59-.3 2.19-.91a3.138 3.138 0 0 0 0-4.43c-.63-.6-1.43-.91-2.23-.91zM36.03 28.35c.3 0 .59.12.8.33.44.44.44 1.16 0 1.6-.21.21-.49.32-.78.32-.25 0-.51-.09-.71-.24-.05-.04-.11-.08-.16-.11-.03-.04-.05-.09-.08-.13-.31-.45-.25-1.05.13-1.44.21-.21.5-.33.8-.33m0-2a3.126 3.126 0 0 0-2.57 4.9l-3.99 3.99c-.19-.06-.4-.09-.6-.09-.48 0-.97.18-1.34.55a1.907 1.907 0 0 0 1.35 3.25 1.9 1.9 0 0 0 1.4-3.19l3.83-3.83c.57.45 1.25.67 1.94.67.79 0 1.59-.3 2.19-.91a3.138 3.138 0 0 0 0-4.43c-.61-.6-1.41-.91-2.21-.91zM65 42.37c.3 0 .59.12.8.33.44.44.44 1.16 0 1.6-.21.21-.49.33-.8.33-.22 0-.43-.06-.61-.18-.04-.03-.09-.05-.13-.08-.04-.05-.08-.11-.12-.16-.38-.45-.36-1.11.05-1.52.22-.2.51-.32.81-.32M43.15 64.65c.23 0 .45.07.64.2.04.03.09.06.13.08.03.05.07.11.11.16.35.45.32 1.09-.08 1.49a1.136 1.136 0 0 1-1.6 0 1.136 1.136 0 0 1 0-1.6c.21-.21.49-.33.8-.33M65 40.37c-.8 0-1.6.31-2.21.92a3.114 3.114 0 0 0-.17 4.22L44.93 63.2c-.53-.37-1.15-.55-1.77-.55-.8 0-1.6.3-2.21.91a3.138 3.138 0 0 0 0 4.43c.61.61 1.41.92 2.21.92a3.12 3.12 0 0 0 2.45-5.05l17.72-17.72c.51.33 1.1.49 1.68.49.8 0 1.6-.3 2.21-.91a3.138 3.138 0 0 0 0-4.43c-.62-.61-1.42-.92-2.22-.92zm1.67 10.42c.3 0 .59.12.8.33s.33.5.33.8-.12.59-.33.8-.5.33-.8.33c-.22 0-.44-.06-.62-.19-.04-.03-.08-.05-.12-.08-.04-.06-.08-.11-.12-.17a1.108 1.108 0 0 1 .86-1.82M51.13 66.8c.22 0 .43.06.62.18.04.03.08.05.13.08.04.06.08.11.12.16a1.123 1.123 0 0 1-.86 1.85c-.3 0-.59-.12-.8-.33-.44-.44-.44-1.16 0-1.61.21-.21.49-.33.79-.33m15.54-18a3.12 3.12 0 0 0-2.42 5.09L52.83 65.3c-.52-.33-1.11-.5-1.7-.5-.8 0-1.6.3-2.21.92a3.138 3.138 0 0 0 0 4.43c.61.61 1.41.92 2.22.92s1.6-.31 2.22-.92a3.122 3.122 0 0 0 .18-4.21l11.41-11.41a3.12 3.12 0 0 0 3.94-.4 3.138 3.138 0 0 0 0-4.43c-.62-.6-1.42-.9-2.22-.9z"/><path d="M66.86 59.18c.3 0 .59.12.8.33.44.44.44 1.16 0 1.6-.21.21-.49.33-.79.33-.24 0-.47-.08-.67-.22-.05-.03-.09-.07-.14-.09-.03-.05-.06-.1-.1-.15-.34-.46-.3-1.07.1-1.47.22-.21.5-.33.8-.33m0-1.99a3.123 3.123 0 0 0-2.5 4.99l-4.09 4.09a1.892 1.892 0 0 0-2.24.32 1.907 1.907 0 0 0 1.35 3.25 1.909 1.909 0 0 0 1.6-2.95l4.06-4.06c.55.4 1.2.6 1.84.6.8 0 1.59-.3 2.2-.91a3.138 3.138 0 0 0 0-4.43c-.61-.6-1.42-.9-2.22-.9zM30.72 5.96c.3 0 .59.12.8.33.44.44.44 1.16 0 1.6-.21.21-.49.32-.78.32-.27 0-.53-.1-.74-.27-.05-.04-.1-.08-.16-.12a.913.913 0 0 0-.08-.13 1.15 1.15 0 0 1 .15-1.41c.23-.21.51-.32.81-.32M7.39 28.94c.25 0 .49.08.69.23.05.04.1.07.15.1.03.05.06.1.09.14.33.45.28 1.06-.11 1.46-.21.22-.5.33-.8.33s-.59-.12-.8-.33c-.44-.44-.44-1.16 0-1.6.21-.21.49-.33.78-.33M30.72 3.96c-.8 0-1.6.31-2.21.92a3.126 3.126 0 0 0-.43 3.89l-18.8 18.8c-.56-.42-1.22-.63-1.88-.63-.8 0-1.59.3-2.2.91a3.138 3.138 0 0 0 0 4.43c.61.61 1.41.92 2.21.92s1.6-.31 2.21-.92c1.1-1.1 1.2-2.81.32-4.03L28.72 9.47c.58.49 1.3.74 2.02.74.79 0 1.59-.3 2.19-.91a3.138 3.138 0 0 0 0-4.43c-.6-.61-1.4-.91-2.21-.91zm4.39 8.51c.3 0 .59.12.8.33.44.44.44 1.16 0 1.6a1.136 1.136 0 0 1-1.6 0 .988.988 0 0 1-.16-.23c-.03-.06-.07-.11-.11-.17-.01-.06-.02-.12-.03-.17-.08-.38.04-.76.3-1.03.21-.21.49-.33.8-.33M13.18 34.29c.09 0 .18.01.27.03.06.01.13.03.19.04.05.04.1.07.15.1.09.05.15.1.2.15.21.21.33.5.33.8s-.12.59-.33.8-.5.33-.8.33-.59-.12-.8-.33-.33-.5-.33-.8.12-.59.33-.8c.28-.27.61-.32.79-.32m21.93-23.81c-.8 0-1.6.31-2.21.92-.77.77-1.05 1.85-.85 2.85L13.91 32.39c-.24-.06-.48-.08-.73-.08-.8 0-1.59.3-2.2.91a3.138 3.138 0 0 0 0 4.43c.61.61 1.41.92 2.21.92s1.6-.31 2.21-.92a3.138 3.138 0 0 0 0-4.43c-.17-.17-.35-.31-.55-.43l17.57-17.57c.13.22.28.43.47.62.61.61 1.41.92 2.21.92s1.6-.31 2.21-.92a3.138 3.138 0 0 0 0-4.43c-.6-.63-1.4-.93-2.2-.93zm1.13 9.88c.3 0 .59.12.8.33.44.44.44 1.16 0 1.6-.21.21-.5.33-.8.33-.28 0-.55-.1-.75-.29-.02-.02-.04-.05-.06-.07-.04-.04-.08-.08-.12-.11-.02-.06-.05-.12-.08-.18-.18-.36-.18-.91.21-1.29.21-.2.5-.32.8-.32M20.89 36.18c.13 0 .26.02.39.07.05.02.11.04.16.05.05.04.09.08.14.12l.12.09c.21.21.33.5.33.8s-.12.59-.33.8-.5.33-.8.33-.59-.12-.8-.33c-.44-.44-.44-1.16 0-1.61.21-.2.49-.32.79-.32m15.35-17.81c-.8 0-1.6.31-2.21.92-.97.97-1.16 2.41-.59 3.58L21.95 34.36c-.34-.12-.69-.18-1.05-.18-.8 0-1.59.3-2.2.91a3.138 3.138 0 0 0 0 4.43c.61.61 1.41.92 2.22.92s1.6-.31 2.22-.92a3.138 3.138 0 0 0 0-4.43c-.1-.1-.21-.17-.31-.26l11.18-11.18c.02.02.03.04.04.05.61.61 1.41.92 2.21.92s1.6-.31 2.21-.92a3.138 3.138 0 0 0 0-4.43c-.63-.6-1.43-.9-2.23-.9z"/><path d="M65.33 66.22c.3 0 .59.12.8.33s.33.5.33.8-.12.59-.33.8-.5.33-.8.33-.59-.12-.8-.33-.33-.5-.33-.8.12-.59.33-.8c.21-.22.49-.33.8-.33m0-2c-.8 0-1.6.31-2.21.92a3.138 3.138 0 0 0 0 4.43c.61.61 1.41.92 2.21.92s1.6-.31 2.21-.92a3.138 3.138 0 0 0 0-4.43 3.08 3.08 0 0 0-2.21-.92z"/><path d="M64.9 74.2c.25 0 .48.08.68.22.05.03.1.07.15.1.03.05.06.1.1.15.33.45.29 1.07-.1 1.46a1.136 1.136 0 0 1-1.6 0 1.136 1.136 0 0 1 0-1.6c.19-.21.47-.33.77-.33m10.22-11.13a1.946 1.946 0 0 0-1.63 3.01l-6.73 6.73c-.55-.41-1.21-.61-1.86-.61-.8 0-1.59.3-2.2.91a3.138 3.138 0 0 0 0 4.43c.61.61 1.41.92 2.21.92s1.6-.31 2.21-.92c1.11-1.11 1.2-2.83.3-4.06l6.77-6.77c.29.16.61.24.94.24.49 0 .99-.19 1.36-.56.76-.76.76-1.99 0-2.75-.38-.38-.87-.57-1.37-.57z"/><path d="M83.49 63.85c.3 0 .59.12.81.33.22.22.33.5.33.81 0 .3-.12.59-.33.81a1.136 1.136 0 0 1-1.44.13c-.04-.03-.08-.06-.13-.08-.04-.06-.07-.11-.12-.16-.36-.45-.33-1.1.08-1.51.2-.21.49-.33.8-.33M65.33 82.18c.25 0 .48.08.68.22.05.03.1.07.15.1.03.05.06.1.1.15.33.45.29 1.07-.1 1.46a1.136 1.136 0 0 1-1.6 0c-.44-.44-.44-1.16 0-1.6.19-.22.47-.33.77-.33m18.16-20.32c-.8 0-1.61.31-2.22.92a3.125 3.125 0 0 0-.23 4.16L67.19 80.79c-.55-.41-1.21-.61-1.86-.61-.8 0-1.59.3-2.2.91a3.138 3.138 0 0 0 0 4.43c.61.61 1.41.92 2.21.92s1.6-.31 2.21-.92c1.11-1.11 1.2-2.83.3-4.06l13.87-13.87a3.12 3.12 0 0 0 3.97-.38 3.132 3.132 0 0 0 0-4.44c-.6-.61-1.4-.91-2.2-.91zm7.49 4.49c.3 0 .59.12.8.33.44.44.44 1.16 0 1.6a1.136 1.136 0 0 1-1.43.14c-.04-.03-.08-.05-.12-.08-.04-.06-.08-.11-.12-.17-.37-.45-.34-1.1.07-1.5.21-.2.49-.32.8-.32M67.79 89.73c.25 0 .48.08.68.22.05.03.1.07.15.1.03.05.06.1.1.15.33.45.29 1.07-.1 1.46a1.136 1.136 0 0 1-1.6 0c-.44-.44-.44-1.16 0-1.6.19-.21.47-.33.77-.33m23.19-25.38a3.12 3.12 0 0 0-2.42 5.09L69.65 88.35c-.55-.41-1.21-.61-1.86-.61-.8 0-1.59.3-2.2.91a3.138 3.138 0 0 0 0 4.43c.61.61 1.41.92 2.21.92s1.6-.31 2.21-.92c1.11-1.11 1.2-2.83.3-4.06l18.93-18.93a3.12 3.12 0 0 0 3.94-.4 3.138 3.138 0 0 0 0-4.43c-.6-.6-1.4-.91-2.2-.91zM35.43 36.32c.3 0 .59.12.8.33.44.44.44 1.16 0 1.6a1.136 1.136 0 0 1-1.6 0c-.44-.44-.44-1.16 0-1.6.22-.21.5-.33.8-.33m0-1.99c-.8 0-1.6.31-2.21.92a3.138 3.138 0 0 0 0 4.43c.61.61 1.41.92 2.21.92s1.6-.31 2.21-.92a3.138 3.138 0 0 0 0-4.43c-.6-.62-1.41-.92-2.21-.92z"/><path d="M35.01 44.31c.29 0 .56.11.77.3.04.04.09.08.13.11.02.05.05.11.08.16a1.119 1.119 0 0 1-.97 1.69c-.3 0-.59-.12-.8-.33-.44-.44-.44-1.16 0-1.6.21-.21.49-.33.79-.33m10.28-11.2a1.946 1.946 0 0 0-1.42 3.28l-6.76 6.76c-.6-.55-1.36-.83-2.12-.83-.8 0-1.59.3-2.2.91a3.138 3.138 0 0 0 0 4.43c.61.61 1.41.92 2.21.92s1.6-.31 2.21-.92a3.125 3.125 0 0 0 .49-3.77l6.98-6.98a1.972 1.972 0 0 0 1.97-.47c.76-.76.76-1.99 0-2.75-.36-.39-.86-.58-1.36-.58z"/><path d="M53.8 34.02c.3 0 .59.12.81.33.45.45.45 1.17 0 1.61-.21.21-.49.33-.8.33-.21 0-.42-.06-.6-.17-.05-.03-.09-.06-.14-.08l-.12-.15a1.14 1.14 0 0 1 .04-1.55c.21-.2.5-.32.81-.32m-18.23 18.4c.26 0 .52.09.72.26.05.04.11.08.17.12.02.04.05.08.08.12.3.45.24 1.05-.14 1.43a1.136 1.136 0 0 1-1.6 0 1.136 1.136 0 0 1 0-1.6c.19-.22.47-.33.77-.33M53.8 32.03c-.8 0-1.61.31-2.22.92-1.18 1.18-1.21 3.04-.13 4.28l-13.9 13.9c-.58-.47-1.28-.7-1.98-.7-.79 0-1.59.3-2.19.91a3.138 3.138 0 0 0 0 4.43c.61.61 1.41.92 2.21.92s1.6-.31 2.21-.92a3.14 3.14 0 0 0 .4-3.94l13.97-13.97c.5.31 1.07.46 1.64.46a3.132 3.132 0 0 0 2.21-5.35 3.06 3.06 0 0 0-2.22-.94zm7.49 4.49c.3 0 .59.12.8.33.44.44.44 1.16 0 1.6-.21.21-.49.33-.79.33-.21 0-.41-.06-.59-.16-.05-.03-.1-.06-.15-.08l-.11-.14c-.4-.45-.38-1.13.04-1.55.21-.21.5-.33.8-.33M38.02 59.98c.26 0 .52.09.72.26.05.04.11.08.17.12.02.04.05.08.08.12.3.45.24 1.05-.14 1.43a1.136 1.136 0 0 1-1.6 0 1.136 1.136 0 0 1 0-1.6c.2-.22.48-.33.77-.33m23.27-25.46c-.8 0-1.6.31-2.21.92a3.117 3.117 0 0 0-.12 4.28L40 58.68c-.58-.47-1.28-.7-1.98-.7-.79 0-1.59.3-2.19.91a3.138 3.138 0 0 0 0 4.43c.61.61 1.41.92 2.21.92s1.6-.31 2.21-.92a3.14 3.14 0 0 0 .4-3.94l19.04-19.04c.49.3 1.05.44 1.61.44.8 0 1.59-.3 2.2-.91a3.138 3.138 0 0 0 0-4.43 3.12 3.12 0 0 0-2.21-.92zm33.99 61.79c.3 0 .59.12.8.33.44.44.44 1.16 0 1.6a1.136 1.136 0 0 1-1.6 0c-.44-.44-.44-1.16 0-1.6.22-.21.5-.33.8-.33m0-1.99c-.8 0-1.6.31-2.21.92a3.138 3.138 0 0 0 0 4.43c.61.61 1.41.92 2.21.92s1.6-.31 2.21-.92a3.138 3.138 0 0 0 0-4.43c-.6-.62-1.41-.92-2.21-.92z"/><path d="M94.72 104.17c.25 0 .48.08.68.22.05.03.1.07.15.1.03.05.06.1.1.15.33.45.29 1.07-.1 1.46a1.136 1.136 0 0 1-1.6 0c-.44-.44-.44-1.16 0-1.6.19-.22.47-.33.77-.33m10.29-11.21a1.946 1.946 0 0 0-1.63 3.01l-6.8 6.8c-.55-.41-1.21-.61-1.86-.61-.8 0-1.59.3-2.2.91a3.138 3.138 0 0 0 0 4.43c.61.61 1.41.92 2.21.92s1.6-.31 2.21-.92c1.11-1.11 1.2-2.83.3-4.06l6.84-6.84c.29.16.61.24.94.24.49 0 .99-.19 1.36-.56.76-.76.76-1.99 0-2.75-.37-.38-.87-.57-1.37-.57z"/><path d="M113.24 93.61c.3 0 .59.12.81.33.22.22.33.5.33.81 0 .3-.12.59-.33.81-.21.21-.49.33-.79.33-.21 0-.41-.06-.59-.16-.05-.03-.1-.06-.15-.08l-.11-.14c-.41-.45-.39-1.14.03-1.56.21-.22.5-.34.8-.34m-18.09 18.53c.25 0 .48.08.68.22.05.03.1.07.15.1.03.05.06.1.1.15.33.45.29 1.07-.1 1.46a1.136 1.136 0 0 1-1.6 0c-.44-.44-.44-1.16 0-1.6.2-.22.47-.33.77-.33m18.09-20.53a3.135 3.135 0 0 0-2.33 5.23l-13.9 13.9c-.55-.41-1.21-.61-1.86-.61-.8 0-1.59.3-2.2.91a3.138 3.138 0 0 0 0 4.43c.61.61 1.41.92 2.21.92s1.6-.31 2.21-.92c1.11-1.11 1.2-2.83.3-4.06l13.97-13.97c.49.29 1.05.44 1.6.44a3.132 3.132 0 0 0 2.2-5.35c-.59-.61-1.39-.92-2.2-.92zm7.63 4.63c.3 0 .59.12.8.33s.33.5.33.8-.12.59-.33.8a1.136 1.136 0 0 1-1.43.14c-.04-.03-.08-.05-.12-.08-.04-.06-.08-.11-.12-.17-.37-.45-.34-1.1.07-1.5.21-.2.5-.32.8-.32M97.61 119.7c.25 0 .48.08.68.22.05.03.1.07.15.1.03.05.06.1.1.15.33.45.29 1.07-.1 1.46a1.136 1.136 0 0 1-1.6 0c-.44-.44-.44-1.16 0-1.6.19-.22.47-.33.77-.33m23.26-25.46a3.12 3.12 0 0 0-2.42 5.09L99.48 118.3c-.55-.41-1.21-.61-1.86-.61-.8 0-1.59.3-2.2.91a3.138 3.138 0 0 0 0 4.43c.61.61 1.41.92 2.21.92s1.6-.31 2.21-.92c1.11-1.11 1.2-2.83.3-4.06l18.99-18.99a3.12 3.12 0 0 0 3.94-.4 3.138 3.138 0 0 0 0-4.43c-.6-.6-1.4-.91-2.2-.91z"/></g></svg><svg style="enable-background:new 0 0 128 128" viewBox="0 0 128 128" xml:space="preserve" id="2697" xmlns="http://www.w3.org/2000/svg"><path d="M120.8 32 65.5 8.1c-5.3-2.4-11.1-3.7-17.3-3.7-23.4 0-42.4 19-42.4 42.4s19 42.4 42.4 42.4 42.4-19 42.4-42.4c0-.8 0-1.7-.1-2.5l24.8 5.8c2.7.6 5.3-1 6-3.6l2.3-8.4c.8-2.5-.4-5.1-2.8-6.1z" style="fill:#e3f2fd"/><g style="opacity:.2"><path d="M48.2 7.5c5.6 0 11 1.1 16.1 3.4l55.3 23.8c1 .4 1.5 1.5 1.2 2.5l-2.3 8.4c-.2.9-1.1 1.5-2 1.5h-.4l-24.8-5.8c-.2 0-.5-.1-.7-.1-.7 0-1.4.2-1.9.7-.7.6-1.1 1.5-1.1 2.5.1.9.1 1.7.1 2.4 0 21.7-17.7 39.4-39.4 39.4S8.8 68.6 8.8 46.8 26.5 7.5 48.2 7.5m0-3c-23.4 0-42.4 19-42.4 42.4s19 42.4 42.4 42.4 42.4-19 42.4-42.4c0-.8 0-1.7-.1-2.5l24.8 5.8c.4.1.7.1 1.1.1 2.2 0 4.3-1.5 4.9-3.8l2.3-8.4c.7-2.5-.6-5.1-3-6.1L65.5 8.1c-5.3-2.3-11.1-3.6-17.3-3.6z" style="fill:#424242"/></g><linearGradient id="aga" x1="48.25" x2="48.25" y1="798.26" y2="766" gradientTransform="translate(0 -714)" gradientUnits="userSpaceOnUse"><stop offset="0" style="stop-color:#673ab7"/><stop offset="1" style="stop-color:#9575cd"/></linearGradient><path d="M11.2 52c2.5 18.2 18.1 32.3 37 32.3s34.5-14 37.1-32.3H11.2z" style="fill:url(#aga)"/><path d="M76.5 72h12.7c2.2 0 3.9-1.8 3.9-4s-1.8-4-3.9-4H8.1c-2.2 0-3.9 1.8-3.9 4s1.8 4 3.9 4h11.7L4.3 121.3c-.4 1.1.1 2.3 1.1 2.8s2.3 0 2.8-1l20.3-51h15.6l1.7 50.2c0 1.2 1 2.1 2.2 2.1s2.1-.9 2.2-2.1L51.8 72h16L88 123c.5 1 1.8 1.5 2.8 1s1.6-1.7 1.1-2.8c.1.1-15.4-49.2-15.4-49.2z" style="fill:#bdbdbd"/><g style="opacity:.2"><path d="M90 123.2c-.4 0-.8-.2-1-.7l-20.3-51c-.2-.4-.5-.6-.9-.6h-16c-.5 0-1 .4-1 1l-1.7 50.2c0 .6-.5 1.1-1.2 1.1s-1.1-.5-1.2-1.1L45.1 72c0-.5-.5-1-1-1H28.5c-.4 0-.8.2-.9.6L7.3 122.7c-.2.3-.6.6-1 .6-.2 0-.3 0-.5-.1-.6-.2-.8-.9-.6-1.5l15.5-49.3c.1-.3 0-.6-.1-.9s-.5-.5-.8-.5H8.1c-1.6 0-2.9-1.4-2.9-3s1.3-3 2.9-3h81.1c1.6 0 2.9 1.4 2.9 3s-1.3 3-2.9 3H76.5c-.3 0-.6.2-.8.4s-.2.6-.1.9L91 121.6c.2.7 0 1.3-.6 1.6H90z" style="fill:#bdbdbd"/><path d="M89.2 66c1.1 0 1.9.9 1.9 2s-.9 2-1.9 2H76.5c-.6 0-1.2.3-1.6.8s-.5 1.2-.3 1.8l15.5 49.3c0 .1 0 .1.1.1 0 .1 0 .2-.1.2H90s-.1 0-.1-.1L69.6 71.3c-.3-.8-1-1.3-1.9-1.3h-16c-1.1 0-2 .9-2 1.9L48 122.1c0 .1-.1.2-.2.2s-.2-.1-.2-.1L45.9 72c0-1.1-.9-1.9-2-1.9H28.5c-.8 0-1.6.5-1.9 1.3L6.4 122.2l-.1.1h-.1c-.1 0-.1-.1-.1-.2 0 0 0-.1.1-.1l15.5-49.3c.2-.6.1-1.3-.3-1.8s-1-.8-1.6-.8H8.1c-1.1 0-1.9-.9-1.9-2s.9-2 1.9-2l81.1-.1m0-2H8.1c-2.2 0-3.9 1.8-3.9 4s1.8 4 3.9 4h11.7L4.3 121.3c-.4 1.1.1 2.3 1.1 2.8.3.1.6.2.9.2.8 0 1.6-.4 1.9-1.2l20.3-51h15.6l1.7 50.2c0 1.2 1 2.1 2.2 2.1s2.1-.9 2.2-2.1L51.8 72h16L88 123c.4.8 1.1 1.2 1.9 1.2.3 0 .6-.1.9-.2 1.1-.5 1.6-1.7 1.1-2.8L76.5 72h12.7c2.2 0 3.9-1.8 3.9-4s-1.7-4-3.9-4z" style="fill:#424242"/></g></svg></svg>