<?xml version="1.0" encoding="utf-8"?><svg viewBox="0 0 128 128" xmlns="http://www.w3.org/2000/svg" xmlns:xlink="http://www.w3.org/1999/xlink"><style>:root>svg{display:none}:root>svg:target{display:block}</style><svg viewBox="0 0 128 128" id="1F4BA" xmlns="http://www.w3.org/2000/svg"><path fill="#546E7A" d="M94.39 123.95H82.66c-1.1 0-2-.9-2-2v-3.29c0-1.1.9-2 2-2h11.73c1.1 0 2 .9 2 2v3.29a2 2 0 01-2 2z"/><path fill="#424242" d="M94.39 118.66v3.29H82.66v-3.29h11.73m0-2H82.66c-1.1 0-2 .9-2 2v3.29c0 1.1.9 2 2 2h11.73c1.1 0 2-.9 2-2v-3.29c0-1.11-.89-2-2-2z" opacity=".2"/><path fill="#546E7A" d="M45.7 123.95h-12c-1.1 0-2-.9-2-2v-3.29c0-1.1.9-2 2-2h12c1.1 0 2 .9 2 2v3.29a2 2 0 01-2 2z"/><path fill="#78909C" d="M85.67 93h9.65v31h-9.65z"/><path fill="#424242" d="M93.32 97.18v19.42h-5.65V97.18h5.65m2-2h-9.65v23.42h9.65V95.18z" opacity=".2"/><linearGradient id="aaa" x1="64.317" x2="64.317" y1="97.356" y2="28.978" gradientUnits="userSpaceOnUse"><stop offset="0" stop-color="#0288D1"/><stop offset=".999" stop-color="#42A5F5"/></linearGradient><path fill="url(#aaa)" d="M92.02 93.65H36.43L31.19 56.7c-1.52-10.73-1.28-21.67.7-32.32l.22-1.2c1.63-8.75 8.81-15.04 17.14-15.04H79.3c8.26 0 15.4 6.19 17.11 14.85l.12.63c2.2 11.14 2.47 22.62.81 33.87l-5.32 36.16z"/><path fill="#0277BD" d="M77.97 87.71l-28.38.39 1.82-13.36c.51-4.1.39-8.25-.37-12.31l-8-42.95c-.7-6.1 4.3-11.42 10.72-11.42h20.88c6.4 0 11.4 5.3 10.72 11.39l-8.04 43.18c-.73 3.93-.87 7.95-.41 11.93l1.06 13.15z"/><path fill="#0277BD" d="M92.03 26.67H36.47c-2.21 0-4-1.79-4-4v-2.56c0-8.84 7.16-16 16-16h31.57c8.84 0 16 7.16 16 16v2.56c-.01 2.21-1.8 4-4.01 4z"/><path fill="#eee" d="M75.08 21.16H52.92c-2.21 0-4-1.79-4-4V4h30.16v13.16c0 2.21-1.79 4-4 4z"/><path fill="#424242" d="M78.85 7c7.84 0 14.14 6.43 14.14 14.33 0 .55.11 1.07.37 1.51.02.11.02.22.04.33l-.03.24c-.02.26-.01.53.04.78 2.12 10.75 2.39 22.15.78 33.03L89.24 91h-50.4l-4.92-34.54c-1.49-10.48-1.27-21.38.63-31.54.02-.09.03-.17.04-.25l.18-1.07c.1-.61.23-1.23.23-1.91v-.41C35 13.54 41.53 7 49.43 7H79m0-3H49.43C39.96 4 32 11.8 32 21.27v.41c0 .49-.11.99-.21 1.5l-.15 1.2c-1.99 10.65-2.19 21.76-.67 32.5L36.24 94h55.59l5.33-36.33c1.66-11.25 1.39-22.92-.81-34.07l.04-.62c-.11-.55-.22-1.08-.22-1.61l-.11-.04C96.07 11.86 88 4 79 4z" opacity=".2"/><path fill="#78909C" d="M33.32 93h9.65v31h-9.65z"/><path fill="#424242" d="M40.97 97.18v19.42h-5.65V97.18h5.65m2-2h-9.65v23.42h9.65V95.18z" opacity=".2"/><path fill="#78909C" d="M30.79 97.8h-2.02c-2.5 0-4.53-2.03-4.53-4.53V73.09c0-2.5 2.03-4.53 4.53-4.53h2.02c2.5 0 4.53 2.03 4.53 4.53v20.18c0 2.5-2.03 4.53-4.53 4.53zM99.24 97.8h-2.02c-2.5 0-4.53-2.03-4.53-4.53V73.09c0-2.5 2.03-4.53 4.53-4.53h2.02c2.5 0 4.53 2.03 4.53 4.53v20.18c0 2.5-2.03 4.53-4.53 4.53z"/><path fill="#424242" d="M30.79 70.56c1.39 0 2.53 1.13 2.53 2.53v20.18c0 1.39-1.13 2.53-2.53 2.53h-2.02c-1.39 0-2.53-1.13-2.53-2.53V73.09c0-1.39 1.13-2.53 2.53-2.53h2.02m0-2h-2.02c-2.5 0-4.53 2.03-4.53 4.53v20.18c0 2.5 2.03 4.53 4.53 4.53h2.02c2.5 0 4.53-2.03 4.53-4.53V73.09c0-2.5-2.03-4.53-4.53-4.53zM99.24 70.56c1.39 0 2.53 1.13 2.53 2.53v20.18c0 1.39-1.13 2.53-2.53 2.53h-2.02c-1.39 0-2.53-1.13-2.53-2.53V73.09c0-1.39 1.13-2.53 2.53-2.53h2.02m0-2h-2.02c-2.5 0-4.53 2.03-4.53 4.53v20.18c0 2.5 2.03 4.53 4.53 4.53h2.02c2.5 0 4.53-2.03 4.53-4.53V73.09c0-2.5-2.03-4.53-4.53-4.53z" opacity=".2"/><linearGradient id="aab" x1="24.322" x2="104.08" y1="93.883" y2="93.883" gradientUnits="userSpaceOnUse"><stop offset="0" stop-color="#0288D1"/><stop offset=".999" stop-color="#42A5F5"/></linearGradient><path fill="url(#aab)" d="M100.08 102.16H28.32c-2.21 0-4-1.79-4-4V89.6c0-2.21 1.79-4 4-4h71.76c2.21 0 4 1.79 4 4v8.56c0 2.21-1.79 4-4 4z"/><path fill="#546E7A" d="M34.79 75.27H24.76c-1.1 0-2-.9-2-2v-9.42c0-1.1.9-2 2-2H34.8c1.1 0 2 .9 2 2v9.42c-.01 1.1-.9 2-2.01 2zM103.24 75.27H93.21c-1.1 0-2-.9-2-2v-9.42c0-1.1.9-2 2-2h10.04c1.1 0 2 .9 2 2v9.42c-.01 1.1-.9 2-2.01 2z"/><path fill="#424242" d="M100.08 88.6c.55 0 1 .45 1 1v8.56c0 .55-.45 1-1 1H28.32c-.55 0-1-.45-1-1V89.6c0-.55.45-1 1-1h71.76m0-3H28.32c-2.21 0-4 1.79-4 4v8.56c0 2.21 1.79 4 4 4h71.76c2.21 0 4-1.79 4-4V89.6c0-2.21-1.79-4-4-4zM34.79 63.85v9.42H24.76v-9.42h10.03m0-2H24.76c-1.1 0-2 .9-2 2v9.42c0 1.1.9 2 2 2H34.8c1.1 0 2-.9 2-2v-9.42c-.01-1.11-.9-2-2.01-2zM103.24 63.85v9.42H93.21v-9.42h10.03m0-2H93.21c-1.1 0-2 .9-2 2v9.42c0 1.1.9 2 2 2h10.04c1.1 0 2-.9 2-2v-9.42c-.01-1.11-.9-2-2.01-2zM45.7 118.66v3.29h-12v-3.29h12m0-2h-12c-1.1 0-2 .9-2 2v3.29c0 1.1.9 2 2 2h12c1.1 0 2-.9 2-2v-3.29c0-1.11-.89-2-2-2z" opacity=".2"/></svg><svg viewBox="0 0 128 128" id="1F680" xmlns="http://www.w3.org/2000/svg"><linearGradient id="aba" x1="82.576" x2="114.92" y1="97.328" y2="97.328" gradientTransform="matrix(-1 0 0 1 128.46 0)" gradientUnits="userSpaceOnUse"><stop offset="0" stop-color="#FF6D00"/><stop offset=".249" stop-color="#FF9B00"/><stop offset=".513" stop-color="#FFC600"/><stop offset=".721" stop-color="#FFE000"/><stop offset=".844" stop-color="#FFEA00"/></linearGradient><path fill="url(#aba)" d="M22.17 90.41c-8.18 8.18-8.62 23.09-8.62 23.09s14.9-.44 23.09-8.62 11.58-18.05 7.58-22.04c-4-4-13.87-.61-22.05 7.57z"/><path fill="#424242" d="M39.55 83.16c1.43 0 2.52.37 3.25 1.09 2.75 2.75.31 11.32-7.58 19.22-5.7 5.7-15.19 7.38-19.49 7.86.48-4.3 2.16-13.79 7.85-19.49 5.27-5.28 11.54-8.68 15.97-8.68m0-2c-4.81 0-11.53 3.4-17.38 9.26-8.18 8.18-8.62 23.09-8.62 23.09s14.9-.44 23.09-8.62 11.58-18.05 7.58-22.04c-1.14-1.16-2.75-1.69-4.67-1.69z" opacity=".2"/><linearGradient id="abb" x1="93.545" x2="110.29" y1="91.956" y2="109.21" gradientTransform="matrix(-1 0 0 1 128.46 0)" gradientUnits="userSpaceOnUse"><stop offset=".004" stop-color="#C62828"/><stop offset=".271" stop-color="#D75327"/><stop offset=".598" stop-color="#E98126"/><stop offset=".85" stop-color="#F59D25"/><stop offset=".995" stop-color="#F9A825"/></linearGradient><path fill="url(#abb)" d="M24.65 93.29c-5.15 5.15-5.43 14.53-5.43 14.53s9.38-.28 14.53-5.43 7.29-11.37 4.77-13.88-8.71-.38-13.87 4.78z"/><path fill="#546E7A" d="M35.21 93.38c4.9 5.23 11.33 4.68 11.86 3.82l4.48-7.28c.27-.44.02-1.14-.17-1.32L39.29 76.51c-.19-.19-.86-.41-1.3-.14l-7.28 4.48c-.85.53-1.81 5.78 4.5 12.53z"/><path fill="#0288D1" d="M68.13 106.68c-1 .81-2.34.63-2.51-.57-.47-3.32-.16-9.99-4.34-14.17-4.08-4.08-10.71-4.68-10.71-4.68l24.96-12.3s4.7 7.25 2.11 17.57c-2.16 8.53-5.85 11.16-9.51 14.15z"/><path fill="#424242" d="M74.12 78.99c.18.49.37 1.05.54 1.67.68 2.48 1.25 6.43.06 11.13-1.51 6.02-3.77 8.6-6.42 10.86-.34-3.82-1.08-9.02-4.91-12.84-1.4-1.4-3.04-2.46-4.65-3.25l15.38-7.57m1.4-4.03l-24.96 12.3s6.64.61 10.71 4.68c4.18 4.18 3.87 10.85 4.34 14.17.1.71.62 1.07 1.23 1.07.42 0 .88-.17 1.28-.5 3.66-2.99 7.35-5.62 9.5-14.15 2.61-10.33-2.1-17.57-2.1-17.57z" opacity=".2"/><path fill="#0288D1" d="M20.67 60.65c-.98.84-.63 2.34.57 2.51 3.32.47 9.99.16 14.17 4.34 4.08 4.08 4.93 9.86 4.93 9.86L52.4 51.83s-6.38-2.99-15.66-.58c-6.4 1.67-12.75 6.54-16.07 9.4z"/><path fill="#424242" d="M43.94 53.31c1.67 0 3.11.18 4.25.4l-7.5 15.9c-.8-1.43-1.83-2.9-3.16-4.22-3.55-3.55-8.27-4.44-11.99-4.82 3.23-2.46 7.62-5.28 11.94-6.41 2.16-.57 4.33-.85 6.46-.85m0-3c-2.11 0-4.54.25-7.2.94-6.4 1.67-12.74 6.54-16.06 9.4-.98.84-.63 2.34.57 2.51 3.32.47 9.99.16 14.17 4.34 4.08 4.08 4.93 9.86 4.93 9.86L52.4 51.83s-3.24-1.52-8.46-1.52z" opacity=".2"/><path fill="#424242" d="M38.27 79.73l9.92 9.92-3.13 5.09c-.1.01-.21.01-.33.01-.97 0-4.35-.25-7.33-3.43-3.77-4.03-4.36-7.18-4.31-8.41l5.18-3.18m.21-3.49c-.17 0-.34.04-.49.12l-7.28 4.48c-.86.53-1.82 5.78 4.49 12.53 3.21 3.43 7.08 4.38 9.52 4.38 1.28 0 2.16-.26 2.34-.56l4.48-7.28c.27-.44.02-1.14-.17-1.32L39.29 76.51c-.12-.12-.46-.27-.81-.27z" opacity=".2"/><radialGradient id="abc" cx="46.5" cy="32.5" r="36.473" gradientTransform="matrix(-1 0 0 1 128.46 0)" gradientUnits="userSpaceOnUse"><stop offset=".011" stop-color="#F5F5F5"/><stop offset="1" stop-color="#BDBDBD"/></radialGradient><path fill="url(#abc)" d="M84.07 18.49c4.05 1.86 9.51 5.06 14.72 10.27 1.84 1.84 3.41 3.72 4.77 5.56 2.63 3.55 4.43 6.94 5.61 9.59-2.63 6.91-7.59 14.95-12.44 19.8-19.81 19.81-41.69 31.12-53.01 23.11-.66-.47-1.31-.9-1.9-1.43-9.71-8.73 1.41-33.72 21.61-53.92 5.07-5.07 13.52-10.25 20.64-12.98z"/><circle cx="78.8" cy="47.18" r="8.9" fill="#455A64"/><path fill="#424242" d="M78.8 40.28c1.84 0 3.58.72 4.88 2.02s2.02 3.04 2.02 4.88-.72 3.58-2.02 4.88-3.04 2.02-4.88 2.02-3.58-.72-4.88-2.02c-2.69-2.69-2.69-7.07 0-9.76 1.3-1.3 3.03-2.02 4.88-2.02m0-2c-2.28 0-4.56.87-6.3 2.61a8.896 8.896 0 000 12.59c1.74 1.74 4.02 2.61 6.3 2.61s4.56-.87 6.3-2.61a8.896 8.896 0 000-12.59 8.882 8.882 0 00-6.3-2.61z" opacity=".2"/><circle cx="60.44" cy="66.67" r="6.44" fill="#455A64"/><path fill="#E53935" d="M84.07 18.49c-1.85 9.13 14.27 27.01 25.1 25.42 3.37-8.71 4.75-14.62 5.67-24.79.47-5.15-1.04-6.62-5.81-6.06-12.65 1.48-17.65 2.44-24.96 5.43z"/><path fill="#424242" d="M110.74 15.95c.6 0 .9.07 1.01.11.08.18.28.88.11 2.79-.89 9.85-2.17 15.45-5.48 23.99-2.54 6.65-7.38 14.36-11.77 18.75C79.3 76.9 63.22 86.42 52.64 86.42c-2.85 0-5.27-.69-7.19-2.05l-.33-.23c-.51-.35-.94-.66-1.3-.98-1.62-1.46-2.48-3.69-2.56-6.63-.28-10.7 9.7-28.36 24.28-42.94 4.57-4.57 12.63-9.63 19.59-12.29l.06-.03c7.07-2.89 11.99-3.8 24.17-5.23.53-.06.99-.09 1.38-.09m0-3c-.52 0-1.08.04-1.71.11-12.65 1.48-17.65 2.44-24.96 5.43-7.12 2.72-15.57 7.9-20.64 12.97-20.2 20.2-31.32 45.19-21.61 53.92.58.52 1.23.96 1.9 1.43 2.5 1.77 5.52 2.6 8.92 2.6 11.98 0 28.66-10.27 44.1-25.7 4.85-4.85 9.81-12.89 12.44-19.8 3.37-8.71 4.75-14.62 5.67-24.79.39-4.47-.69-6.17-4.11-6.17z" opacity=".2"/><path fill="#424242" d="M60.44 62.23c1.19 0 2.3.46 3.14 1.3s1.3 1.95 1.3 3.14-.46 2.3-1.3 3.14-1.95 1.3-3.14 1.3-2.3-.46-3.14-1.3-1.3-1.95-1.3-3.14.46-2.3 1.3-3.14c.85-.84 1.96-1.3 3.14-1.3m0-2c-1.65 0-3.29.63-4.55 1.89a6.44 6.44 0 000 9.1c1.26 1.26 2.9 1.89 4.55 1.89s3.29-.63 4.55-1.89a6.44 6.44 0 000-9.1 6.389 6.389 0 00-4.55-1.89z" opacity=".2"/></svg><svg viewBox="0 0 128 128" style="enable-background:new 0 0 128 128" id="1F681" xmlns="http://www.w3.org/2000/svg"><path style="fill:#4e342e" d="M85.6 97.8H74.5l-5.6-16.3-5.3 1.8 4.9 14.5-43.8.2L30 82.6l-4.9-1.7-5.8 17c-1.7-.3-5.1-.9-7.4-2.2-1.6-.9-3.2-1.8-4.8-1l-.3.3c-2.4 1.2-3 4.4-1.2 6.3 3.4 3.5 11 5 17.7 5l62-.1c4 0 4.2-2.7 4.2-4.9 0-2.3-1.7-3.5-3.9-3.5z"/><g style="opacity:.2"><path style="fill:#eee" d="M26.4 83.4l1.1.4-4.6 13.6c-.2.6-.1 1.2.3 1.8.4.5 1 .8 1.6.8l43.8-.2c.6 0 1.2-.3 1.6-.8s.5-1.2.3-1.8l-4.3-12.6 1.5-.5 4.9 14.5c.3.8 1 1.4 1.9 1.4l11.1-.1c.9 0 1.9.2 1.9 1.3 0 .7 0 2-.5 2.5-.3.3-.9.4-1.8.4l-62 .1c-7.4 0-13.8-1.7-16.3-4.3-.4-.4-.6-1.1-.5-1.7s.5-1.2 1.1-1.4l.5-.2c.2-.1.3-.1.5-.1.6 0 1.5.5 2.4 1l.1.1c2.6 1.4 6.2 2.1 8.1 2.4h.3c.8 0 1.6-.5 1.9-1.4l5.1-15.2m-1.3-2.5l-5.8 17c-1.7-.3-5.1-.9-7.4-2.2-1.2-.6-2.3-1.3-3.5-1.3-.4 0-.9.1-1.3.3l-.4.3c-2.4 1.2-3 4.4-1.2 6.3 3.3 3.5 10.9 5 17.7 5l62-.1c4.1 0 4.2-2.7 4.2-4.9s-1.8-3.4-3.9-3.4l-11.1.1-5.6-16.3-5.3 1.8 5 14.5-43.8.2L30 82.6l-4.9-1.7z"/></g><path style="fill:#6d4c41" d="M61.4 42.1h-4.1V28.9c0-1.1.9-2 2-2s2 .9 2 2l.1 13.2z"/><path style="fill:#78909c" d="M59.8 31.9c.1 2.3-21.9 5.1-36.6 5.7s-18 .5-18.2-3.4 3.2-4.3 17.9-4.9 36.9.3 36.9 2.6z"/><path style="fill:#78909c" d="M59.8 31.9c-.1 2.3 21.9 5.1 36.6 5.7s18.1.5 18.2-3.4c.2-3.9-3.2-4.3-17.9-4.9s-36.8.3-36.9 2.6z"/><g style="opacity:.2"><path style="fill:#424242" d="M87.5 31.1c3.2 0 6.3.1 9.1.2 6.6.3 11.5.5 14.1 1.2 1.9.5 1.9.9 1.9 1.7 0 1-.1 1.8-6.8 1.8-2.4 0-5.5-.1-9.4-.3-11.8-.5-24.5-2.1-31-3.5 4.7-.6 12.6-1.1 22.1-1.1m0-2c-13.3 0-27.6 1-27.7 2.9-.1 2.3 21.9 5.1 36.6 5.7 3.9.2 7 .3 9.5.3 6.8 0 8.7-.8 8.8-3.7.2-3.9-3.2-4.3-17.9-4.9-2.9-.3-6.1-.3-9.3-.3z"/></g><linearGradient id="aca" x1="64.449" x2="64.449" y1="756.75" y2="797.996" gradientTransform="translate(0 -714)" gradientUnits="userSpaceOnUse"><stop offset=".165" style="stop-color:#ffea00"/><stop offset=".373" style="stop-color:#ffe505"/><stop offset=".629" style="stop-color:#fdd714"/><stop offset=".907" style="stop-color:#fbc02d"/></linearGradient><path style="fill:url(#aca)" d="M123 35h-2.7c-1.3 0-2.6.7-3.6 1.5l-2.2 2c-2.1 1.8-5.2 4.5-7.9 4.5H69.2l-5.2-.9c-2.2-.8-4.8-1.2-7.7-1.2-13.7 0-22.3 1.4-28.6 5.8 0 0-18.8 16.9-20 18.3-5.1 6.4-3.4 14 1.7 18.5 3.5 3.1 10.8 4.3 28 4.3 11.9 0 21.6-1.2 29-4v.1c1.9-.8 3.6-1.6 5.1-2.6.3-.2.5-.3.8-.5s.6-.4.8-.6c.6-.4 1.1-.8 1.6-1.3 6.4-5.7 10.1-22.4 18.2-25.1 4.1-1.4 20.4-2.9 23.6-2.9 1.6 0 2.9-1 3.5-2.4l4.2-11.5c.3-1-.3-2-1.2-2z"/><path style="fill:#4fc3f7" d="M29.5 73.3H4.6c0-2.8 1-5.6 3.1-8.3 1.2-1.5 20-18.4 20-18.4 1.2-.9 2.6-1.6 4-2.2 1.2 1 2.5 2.2 3.8 3.7l4.5 6.4c5.7 8 10.3 18.8-10.5 18.8z"/><g style="opacity:.2"><path style="fill:#757575" d="M40.1 54.5L35.5 48c-1.3-1.5-2.5-2.7-3.8-3.7-.7.3-1.4.6-2 1 1.4.9 2.7 2.2 4.2 3.9l4.5 6.3c4.8 6.8 4.8 10.2 4 11.9-1.3 2.5-5.7 3.8-12.9 3.8H4.8c-.1.7-.2 1.4-.2 2h24.9c20.8.1 16.2-10.7 10.6-18.7z"/></g><path style="fill:#4fc3f7" d="M65.2 61.9c-.4 1.8-2.1 3-4 3h-2.9c-2 0-3.9-1.1-4.9-2.8L46.2 50c-1-1.5.2-3.1 2-3.1h13.4c3.3 0 4.7.6 5.6 2.7.6 1.4-1 8.2-2 12.3z"/><g style="opacity:.2"><path style="fill:#424242" d="M120.7 38l-3.4 9.3c-.1.3-.4.5-.7.5-3 0-19.9 1.5-24.5 3-5.8 2-9.3 8.8-12.8 15.5-2.1 4.1-4.2 8.2-6.5 10.2l-.1.1c-.4.3-.8.7-1.3 1.1l-.5.3-.2.2-.1.1c-.2.1-.4.2-.6.4-1.3.8-2.6 1.5-4 2.1-.2 0-.4.1-.6.2-6.7 2.6-15.8 3.8-27.9 3.8-15.6 0-23.2-1-26-3.5-5.3-4.7-4.5-10.6-1.4-14.4 1.1-1.2 12.5-11.6 19.5-17.9 5.4-3.7 12.9-5.1 26.7-5.1 2.4 0 4.7.3 6.7 1 .2.1.5.1.8.2l4.9.9h38c3.9 0 7.5-3.1 9.9-5.2h.1l2.1-1.9c.6-.5 1.2-.8 1.6-.8h.6m2-3.1h-2.7c-1.3 0-2.6.7-3.6 1.5l-2.2 2c-2.1 1.8-5.2 4.5-7.9 4.5H69.2l-5.2-.9c-2.2-.8-4.8-1.2-7.7-1.2-13.7 0-22.3 1.4-28.6 5.8 0 0-18.8 16.9-20 18.3-5.1 6.4-3.4 14 1.7 18.5 3.5 3.1 10.8 4.3 28 4.3 11.9 0 21.6-1.2 29-4v.1c1.9-.8 3.6-1.6 5.1-2.6.3-.2.5-.3.8-.5s.6-.4.8-.6c.6-.4 1.1-.8 1.6-1.3 6.4-5.7 10.1-22.4 18.2-25.1 4.1-1.4 20.4-2.9 23.6-2.9 1.6 0 2.9-1 3.5-2.4l4.2-11.5c.3-1-.3-2-1.2-2z"/></g><g style="opacity:.2"><path style="fill:#424242" d="M61.6 48.8c3 0 3.3.6 3.7 1.4.1.7-.2 3.8-2 11.1-.2.9-1 1.5-2 1.5h-2.9c-1.3 0-2.6-.7-3.2-1.8L48 48.9h.3l13.3-.1m0-2H48.1c-1.8 0-3 1.6-2 3.1L53.3 62c1 1.7 2.9 2.8 4.9 2.8h2.9c1.9 0 3.5-1.2 4-3 1-4 2.6-10.8 2-12.3-.8-2-2.2-2.7-5.5-2.7z"/></g><g style="opacity:.2"><path style="fill:#424242" d="M32 29v2h.1c9.6 0 17.5.5 22.1 1.1-6.5 1.4-19.2 3-31 3.5-3.9.2-7 .3-9.4.3-6.7 0-6.7-.8-6.8-1.8 0-.8-.1-1.2 1.9-1.7 2.6-.6 7.5-.9 14.1-1.2 2.8-.1 5.8-.2 9.1-.2l-.1-2m.1.1c-3.2 0-6.4.1-9.2.2-14.7.6-18 1-17.9 4.9.1 2.9 2 3.7 8.8 3.7 2.5 0 5.6-.1 9.5-.3 14.7-.6 36.6-3.4 36.5-5.7 0-1.8-14.4-2.8-27.7-2.8z"/></g><path style="fill:#546e7a" d="M63.3 34.4h-7.9c-1.1 0-2-.9-2-2v-1c0-1.1.9-2 2-2h7.9c1.1 0 2 .9 2 2v1c0 1.2-.9 2-2 2z"/></svg><svg viewBox="0 0 128 128" id="1F69F" xmlns="http://www.w3.org/2000/svg"><path fill="#455A64" d="M4 12h120v12H4z"/><path fill="#E0E0E0" d="M6.01 16H124v4.05H6.01z"/><path fill="#eee" d="M122 14v8H6v-8h116m2-2H4v12h120V12z" opacity=".2"/><path fill="#90A4AE" d="M60.75 20c3.25 0 5.92-2.75 5.92-6S64 8 60.75 8H40.42c-3.25 0-5.92 2.75-5.92 6s2.66 6 5.92 6H47v12h-2.38l-1.25 4h-4.29c-1.52 0-2.75 1.48-2.75 3s1.23 3 2.75 3h23c1.52 0 2.75-1.48 2.75-3s-1.23-3-2.75-3h-3.95l-1.26-4H55V20h5.75zM112.21 20c3.25 0 5.92-2.75 5.92-6s-2.66-6-5.92-6H91.88c-3.25 0-5.92 2.75-5.92 6s2.66 6 5.92 6H98v12h-1.92l-1.25 4h-4.29c-1.52 0-2.75 1.48-2.75 3s1.23 3 2.75 3h23c1.52 0 2.75-1.48 2.75-3s-1.23-3-2.75-3h-3.95l-1.26-4H106V20h6.21z"/><path fill="#424242" d="M60.88 10c2.12 0 3.85 1.83 3.85 4s-1.86 4-3.98 4H55c-1.1 0-2 .9-2 2v12c0 1.1.9 2 2 2h.41l.82 2.6c.26.83 1.03 1.4 1.91 1.4h3.95c.32 0 .75.49.75 1s-.43 1-.75 1h-23c-.32 0-.75-.49-.75-1s.43-1 .75-1h4.29c.87 0 1.65-.57 1.91-1.4l.81-2.6h.9c1.1 0 2-.9 2-2V20c0-1.1-.9-2-2-2h-6.58c-2.12 0-3.92-1.83-3.92-4s1.79-4 3.92-4H61m-.25-2H40.42c-3.25 0-5.92 2.75-5.92 6s2.66 6 5.92 6H47v12h-2.38l-1.25 4h-4.29c-1.52 0-2.75 1.48-2.75 3s1.23 3 2.75 3h23c1.52 0 2.75-1.48 2.75-3s-1.23-3-2.75-3h-3.95l-1.26-4H55V20h5.75c3.25 0 5.92-2.75 5.92-6S64 8 60.75 8zM112.1 10c2.12 0 3.97 1.83 3.97 4s-1.74 4-3.86 4H106c-1.1 0-2 .9-2 2v12c0 1.1.9 2 2 2h.87l.82 2.6c.26.83 1.03 1.4 1.91 1.4h3.95c.32 0 .75.49.75 1s-.43 1-.75 1h-23c-.32 0-.75-.49-.75-1s.43-1 .75-1h4.29c.87 0 1.65-.57 1.91-1.4l.81-2.6H98c1.1 0 2-.9 2-2V20c0-1.1-.9-2-2-2h-6.12c-2.12 0-3.92-1.83-3.92-4s1.79-4 3.92-4H112m.21-2H91.88c-3.25 0-5.92 2.75-5.92 6s2.66 6 5.92 6H98v12h-1.92l-1.25 4h-4.29c-1.52 0-2.75 1.48-2.75 3s1.23 3 2.75 3h23c1.52 0 2.75-1.48 2.75-3s-1.23-3-2.75-3h-3.95l-1.26-4H106V20h6.21c3.25 0 5.92-2.75 5.92-6s-2.67-6-5.92-6z" opacity=".2"/><linearGradient id="ada" x1="68.242" x2="68.242" y1="42.75" y2="104" gradientUnits="userSpaceOnUse"><stop offset=".114" stop-color="#EF5350"/><stop offset=".627" stop-color="#DB3938"/><stop offset=".945" stop-color="#D32F2F"/></linearGradient><path fill="url(#ada)" d="M124 40H27.97c-4.39 0-7.98 3.6-7.98 8l-7.5 56.33H124V40z"/><path fill="#E0E0E0" d="M124 104.33H12.48l-.48 3.64c0 4.4 3.59 8 7.98 8H124v-11.64z"/><path fill="#424242" d="M124 113H19.98c-2.78 0-4.89-1.96-4.98-4.57l.45-3.64 7.5-56.58c.02-.13.03-.27.03-.4 0-2.69 2.19-4.8 4.98-4.8H124v-3H27.96c-4.39 0-7.98 3.37-7.98 7.8l-7.5 56.58-.48 3.87c0 4.43 3.59 7.74 7.98 7.74H124v-3z" opacity=".2"/><path fill="#4FC3F7" d="M112 92H96.61c-2.2 0-4-1.8-4-4V56c0-2.2 1.8-4 4-4H112c2.2 0 4 1.8 4 4v32c0 2.2-1.8 4-4 4zM80.81 92h-15.4c-2.2 0-4-1.8-4-4V56c0-2.2 1.8-4 4-4H80.8c2.2 0 4 1.8 4 4v32c.01 2.2-1.79 4-3.99 4zM49.37 92h-19.6c-2.07 0-3.54-1.64-3.27-3.64L31 55.64c.27-2 2.19-3.64 4.27-3.64h15.06c2.07 0 3.54 1.64 3.27 3.64l.03 32.73c-.27 1.99-2.19 3.63-4.26 3.63z"/><path fill="none" d="M112 92H96.61c-2.2 0-4-1.8-4-4V56c0-2.2 1.8-4 4-4H112c2.2 0 4 1.8 4 4v32c0 2.2-1.8 4-4 4zM80.81 92h-15.4c-2.2 0-4-1.8-4-4V56c0-2.2 1.8-4 4-4H80.8c2.2 0 4 1.8 4 4v32c.01 2.2-1.79 4-3.99 4zM49.37 92h-19.6c-2.07 0-3.54-1.64-3.27-3.64L31 55.64c.27-2 2.19-3.64 4.27-3.64h15.06c2.07 0 3.54 1.64 3.27 3.64l.03 32.73c-.27 1.99-2.19 3.63-4.26 3.63z"/><path fill="#424242" d="M112 55c.54 0 1 .46 1 1v32c0 .54-.46 1-1 1H96.61c-.54 0-1-.46-1-1V56c0-.54.46-1 1-1H112m0-3H96.61c-2.2 0-4 1.8-4 4v32c0 2.2 1.8 4 4 4H112c2.2 0 4-1.8 4-4V56c0-2.2-1.8-4-4-4zM80.81 55c.54 0 1 .46 1 1v32c0 .54-.46 1-1 1h-15.4c-.54 0-1-.46-1-1V56c0-.54.46-1 1-1h15.4m0-3h-15.4c-2.2 0-4 1.8-4 4v32c0 2.2 1.8 4 4 4H80.8c2.2 0 4-1.8 4-4V56c.01-2.2-1.79-4-3.99-4zM50.33 55c.17 0 .26.05.28.07s.02.08.01.15c-.02.14-.03.27-.03.41l.03 32.44c-.14.44-.7.92-1.27.92H29.77c-.17 0-.26-.05-.28-.07s-.02-.08-.01-.15l4.49-32.73c.06-.47.67-1.04 1.29-1.04h15.07m0-3H35.27c-2.07 0-3.99 1.64-4.27 3.64l-4.49 32.73c-.27 2 1.2 3.64 3.27 3.64h19.59c2.07 0 3.99-1.64 4.27-3.64l-.04-32.73c.27-2-1.2-3.64-3.27-3.64z" opacity=".2"/></svg><svg viewBox="0 0 128 128" id="1F6A0" xmlns="http://www.w3.org/2000/svg"><linearGradient id="aea" x1="64.071" x2="64.071" y1="49" y2="106" gradientUnits="userSpaceOnUse"><stop offset="0" stop-color="#eee"/><stop offset=".29" stop-color="#EAEAEA"/><stop offset=".57" stop-color="#DFDFDF"/><stop offset=".845" stop-color="#CBCBCB"/><stop offset=".998" stop-color="#BDBDBD"/></linearGradient><path fill="url(#aea)" d="M116.15 61.83c0-7.7-6.31-14-14.02-14H26.02c-7.71 0-14.02 6.3-14.02 14l-.01 41.92H116l.15-41.92z"/><path fill="#0277BD" d="M11.99 103.75c1.59 7.19 9.88 12.72 19.82 12.72h64.37c9.94 0 18.23-5.53 19.82-12.72H11.99z"/><path fill="#4FC3F7" d="M56.32 96H44.26c-2.21 0-4-1.79-4-4V63.67c0-2.21 1.79-4 4-4h12.06c2.21 0 4 1.79 4 4V92c0 2.21-1.79 4-4 4zM84.49 96H72.43c-2.21 0-4-1.79-4-4V63.67c0-2.21 1.79-4 4-4h12.06c2.21 0 4 1.79 4 4V92c0 2.21-1.79 4-4 4z"/><path fill="#424242" d="M102.13 51c6.08 0 11.02 4.82 11.02 10.83l-.15 41.56c-1.5 5.86-8.81 10.61-16.82 10.61H31.81c-8.02 0-15.32-4.75-16.82-10.55L15 61.77C15 55.85 19.94 51 26.02 51H102m.13-3H26.02C18.31 48 12 53.98 12 61.64l-.01 42.21C13.58 111 21.87 117 31.81 117h64.37c9.94 0 18.23-6.14 19.82-13.3l.15-41.74c0-7.66-6.31-13.96-14.02-13.96z" opacity=".2"/><path fill="#424242" d="M56.32 62.67c.55 0 1 .45 1 1V92c0 .55-.45 1-1 1H44.26c-.55 0-1-.45-1-1V63.67c0-.55.45-1 1-1h12.06m0-3H44.26c-2.21 0-4 1.79-4 4V92c0 2.21 1.79 4 4 4h12.06c2.21 0 4-1.79 4-4V63.67c0-2.21-1.79-4-4-4zM84.49 62.67c.55 0 1 .45 1 1V92c0 .55-.45 1-1 1H72.43c-.55 0-1-.45-1-1V63.67c0-.55.45-1 1-1h12.06m0-3H72.43c-2.21 0-4 1.79-4 4V92c0 2.21 1.79 4 4 4h12.06c2.21 0 4-1.79 4-4V63.67c0-2.21-1.79-4-4-4z" opacity=".2"/><path fill="#4FC3F7" d="M115.99 96H99.93c-2.21 0-4-1.79-4-4V63.67c0-2.21 1.79-4 4-4h16.06V96zM28.15 96H12.1V59.67h16.06c2.21 0 4 1.79 4 4V92c-.01 2.21-1.8 4-4.01 4z"/><path fill="#424242" d="M112.99 62.67V93H99.93c-.55 0-1-.45-1-1V63.67c0-.55.45-1 1-1h13.06m3-3H99.93c-2.21 0-4 1.79-4 4V92c0 2.21 1.79 4 4 4h16.06V59.67zM28.15 62.67c.55 0 1 .45 1 1V92c0 .55-.45 1-1 1H15.1V62.67h13.05m0-3H12.1V96h16.06c2.21 0 4-1.79 4-4V63.67c-.01-2.21-1.8-4-4.01-4z" opacity=".2"/><g fill="#546E7A"><path d="M80 44.13c0 2.14-1.73 3.87-3.87 3.87H51.87C49.73 48 48 46.27 48 44.13v-.25c0-2.14 1.73-3.87 3.87-3.87h24.25c2.14 0 3.87 1.73 3.87 3.87v.25zM75 18.13c0 2.14-1.73 3.87-3.87 3.87H55.87C53.73 22 52 20.27 52 18.13v-.25c0-2.14 1.73-3.87 3.87-3.87h15.25c2.14 0 3.87 1.73 3.87 3.87v.25z"/><path d="M60 25h8v17h-8z"/></g><path fill="#263238" d="M122.06 23H5.94C4.87 23 4 21.59 4 20s.87-3 1.94-3h116.13c1.07 0 1.94 1.41 1.94 3s-.88 3-1.95 3z"/><path fill="#eee" d="M121.88 19c.1.18.18.53.18 1s-.2.82-.3 1H6.24c-.1-.18-.24-.53-.24-1s.14-.82.24-1H122m.06-2H5.94C4.87 17 4 18.41 4 20s.87 3 1.94 3h116.13c1.07 0 1.94-1.41 1.94-3s-.88-3-1.95-3z" opacity=".2"/><g fill="#90A4AE"><path d="M50 25.5a2.5 2.5 0 01-5 0v-9a2.5 2.5 0 015 0v9zM82 25.5a2.5 2.5 0 01-5 0v-9a2.5 2.5 0 015 0v9z"/><path d="M48 16h32v9H48z"/></g><path fill="#424242" d="M79.5 16c.28 0 .5.22.5.5v9c0 .28-.22.5-.5.5s-.5-.22-.5-.5V25c0-1.1-.9-2-2-2h-9c-1.1 0-2 .9-2 2v15c0 1.1.9 2 2 2h8.12c1.03 0 1.88.84 1.88 1.88v.25c0 1.03-.84 1.88-1.88 1.88H51.88A1.893 1.893 0 0150 44.12v-.25c0-1.03.84-1.88 1.88-1.88H60c1.1 0 2-.9 2-2V25c0-1.1-.9-2-2-2H50c-1.1 0-2 .9-2 2v.5c0 .28-.22.5-.5.5s-.5-.22-.5-.5v-9c0-.28.22-.5.5-.5.27 0 .45.2.49.4.19.93 1.01 1.6 1.96 1.6h2.55c.73 0 1.39-.39 1.75-1.03.34-.61.95-.97 1.63-.97h15.25c.68 0 1.28.36 1.62.97.35.64 1.02 1.03 1.75 1.03h2.55c.95 0 1.77-.67 1.96-1.6.04-.2.22-.4.49-.4m0-2a2.5 2.5 0 00-2.45 2H74.5c-.66-1.19-1.92-2-3.37-2H55.88c-1.46 0-2.71.81-3.37 2h-2.55a2.5 2.5 0 00-4.95.5v9a2.5 2.5 0 005 0V25h10v15h-8.12C49.73 40 48 41.73 48 43.88v.25c0 2.14 1.73 3.88 3.88 3.88h24.25c2.14 0 3.88-1.73 3.88-3.88v-.25c0-2.14-1.73-3.88-3.88-3.88H68V25h9v.5a2.5 2.5 0 005 0v-9a2.5 2.5 0 00-2.5-2.5z" opacity=".2"/></svg><svg viewBox="0 0 128 128" id="1F6A1" xmlns="http://www.w3.org/2000/svg"><path fill="#263238" d="M122.06 23H5.94C4.87 23 4 21.59 4 20s.87-3 1.94-3h116.13c1.07 0 1.94 1.41 1.94 3s-.88 3-1.95 3z"/><path fill="#eee" d="M121.88 19c.1.18.18.53.18 1s-.2.82-.3 1H6.24c-.1-.18-.24-.53-.24-1s.14-.82.24-1H122m.06-2H5.94C4.87 17 4 18.41 4 20s.87 3 1.94 3h116.13c1.07 0 1.94-1.41 1.94-3s-.88-3-1.95-3z" opacity=".2"/><path fill="#546E7A" d="M75.76 56.89l5.48-2.44-15-33.67-2.24 1-2.24-1L54.53 37h-.03l-7.74 17.45 5.48 2.44L55.31 50h17.38l3.07 6.89zM64 30.49L66.9 37h-5.8l2.9-6.51zM57.09 46l2.23-5h9.36l2.23 5H57.09z"/><path fill="#546E7A" d="M75 18.13c0 2.14-1.73 3.87-3.87 3.87H55.87C53.73 22 52 20.27 52 18.13v-.25c0-2.14 1.73-3.87 3.87-3.87h15.25c2.14 0 3.87 1.73 3.87 3.87v.25z"/><g fill="#90A4AE"><path d="M50 25.5a2.5 2.5 0 01-5 0v-9a2.5 2.5 0 015 0v9zM82 25.5a2.5 2.5 0 01-5 0v-9a2.5 2.5 0 015 0v9z"/><path d="M48 16h32v9H48z"/></g><path fill="#424242" d="M79.58 15.92c.28 0 .5.22.5.5v9c0 .28-.22.5-.5.5s-.5-.22-.5-.5v-.5c0-1.1-.9-2-2-2H68.2c-.68 0-1.31.34-1.68.91s-.43 1.28-.15 1.9l12.31 27.62-1.83.81-2.25-5.06a2.008 2.008 0 00-1.83-1.19H55.39c-.79 0-1.51.46-1.83 1.19l-2.25 5.06-1.83-.81 6.8-15.32c.06-.09.12-.19.17-.3l5.35-12c.28-.62.22-1.33-.15-1.9s-1-.91-1.68-.91h-9.88c-1.1 0-2 .9-2 2v.5c0 .28-.22.5-.5.5s-.5-.22-.5-.5v-9c0-.28.22-.5.5-.5.27 0 .45.2.49.4.19.93 1.01 1.6 1.96 1.6h2.55c.73 0 1.39-.39 1.75-1.03.34-.61.95-.97 1.62-.97h15.25c.68 0 1.28.36 1.62.97.35.63 1.02 1.03 1.75 1.03h2.55c.95 0 1.77-.67 1.96-1.6.04-.2.22-.4.49-.4m-18.4 23H59.4c-.79 0-1.51.46-1.83 1.19l-2.23 5c-.28.62-.22 1.33.15 1.9s1 .91 1.68.91h13.82c.68 0 1.31-.34 1.68-.91s.43-1.28.15-1.9l-2.23-5a2.008 2.008 0 00-1.83-1.19h-1.78c.68 0 1.31-.34 1.68-.91s.43-1.28.15-1.9l-2.9-6.51c-.32-.72-1.04-1.19-1.83-1.19s-1.51.46-1.83 1.19l-2.9 6.51c-.28.62-.22 1.33.15 1.9.38.56 1.01.91 1.68.91m18.4-25a2.5 2.5 0 00-2.45 2h-2.55c-.66-1.19-1.92-2-3.37-2H55.96c-1.46 0-2.71.81-3.37 2h-2.55a2.5 2.5 0 00-4.95.5v9a2.5 2.5 0 005 0v-.5h9.88l-5.35 12h-.03l-7.74 17.45 5.48 2.44 3.07-6.89h17.38l3.07 6.89 5.48-2.44L68.2 24.92h8.88v.5a2.5 2.5 0 005 0v-9a2.5 2.5 0 00-2.5-2.5zm-18.4 23l2.9-6.51 2.9 6.51h-5.8zm-4.01 9l2.23-5h9.36l2.23 5H57.17z" opacity=".2"/><linearGradient id="afa" x1="64" x2="64" y1="51.25" y2="108.75" gradientUnits="userSpaceOnUse"><stop offset=".279" stop-color="#F44336"/><stop offset=".526" stop-color="#EE3F35"/><stop offset=".868" stop-color="#DC3431"/><stop offset="1" stop-color="#D32F2F"/></linearGradient><path fill="url(#afa)" d="M96.39 48H31.61C25.04 48 20 53.79 20 61.06v36.49c0 1.06-.06 1.87.09 2.88C21.44 109.36 28.3 116 36.72 116h54.56c8.42 0 15.29-6.64 16.63-15.57.15-1.01.09-1.82.09-2.88V61.06C108 53.79 102.96 48 96.39 48z"/><path fill="#4FC3F7" d="M76.33 96.32H52.16c-2.21 0-4-1.79-4-4V63.98c0-2.21 1.79-4 4-4h24.17c2.21 0 4 1.79 4 4v28.33c0 2.22-1.79 4.01-4 4.01z"/><path fill="#424242" d="M96.2 51c4.83 0 8.8 4.42 8.8 10.06v36.49c0 .27 0 .52.01.76.01.66.02 1.14-.06 1.67-1.14 7.54-6.89 13.02-13.67 13.02H36.72c-6.78 0-12.53-5.47-13.67-13.02-.08-.53-.07-1.01-.06-1.67 0-.24.01-.49.01-.76V61.06C23 55.42 26.78 51 31.61 51H96m.39-3H31.61C25.04 48 20 53.79 20 61.06v36.49c0 1.06-.06 1.87.09 2.88C21.44 109.36 28.3 116 36.72 116h54.56c8.42 0 15.29-6.64 16.63-15.57.15-1.01.09-1.82.09-2.88V61.06C108 53.79 102.96 48 96.39 48z" opacity=".2"/><path fill="#424242" d="M76.33 62.98c.55 0 1 .45 1 1v28.33c0 .55-.45 1-1 1H52.16c-.55 0-1-.45-1-1V63.98c0-.55.45-1 1-1h24.17m0-3H52.16c-2.21 0-4 1.79-4 4v28.33c0 2.21 1.79 4 4 4h24.17c2.21 0 4-1.79 4-4V63.98c0-2.2-1.79-4-4-4z" opacity=".2"/><path fill="#4FC3F7" d="M36.05 96.32H20V59.98h16.05c2.21 0 4 1.79 4 4v28.33c0 2.22-1.79 4.01-4 4.01zM108 96.32H91.69c-2.21 0-4-1.79-4-4V63.98c0-2.21 1.79-4 4-4H108v36.34z"/><path fill="#424242" d="M36.05 62.98c.55 0 1 .45 1 1v28.33c0 .55-.45 1-1 1H23V62.98h13.05m0-3H20v36.33h16.05c2.21 0 4-1.79 4-4V63.98c0-2.2-1.79-4-4-4zM105 62.98v30.33H91.69c-.55 0-1-.45-1-1V63.98c0-.55.45-1 1-1H105m3-3H91.69c-2.21 0-4 1.79-4 4v28.33c0 2.21 1.79 4 4 4H108V59.98z" opacity=".2"/></svg><svg viewBox="0 0 128 128" style="enable-background:new 0 0 128 128" id="1F6E9" xmlns="http://www.w3.org/2000/svg"><path style="fill:#212121" d="M66.432 35.135l3.394-3.394L96.13 58.045l-3.394 3.394z"/><path style="fill:#757575" d="M89.3 64.2l.4.4c.8.8 2 .8 2.8 0l6.7-6.7c.8-.8.8-2 0-2.8l-.4-.4c-.8-.8-2-.8-2.8 0l-6.7 6.7c-.8.7-.8 2 0 2.8zM63.2 38.3l.4.4c.8.8 2 .8 2.8 0l6.7-6.7c.8-.8.8-2 0-2.8l-.4-.4c-.8-.8-2-.8-2.8 0l-6.7 6.7c-.8.8-.8 2 0 2.8z"/><path style="fill:#424242" d="M96.8 26.4l4.7 4.7c1.2 1.2 1.2 3.1 0 4.2l-4.3 4.3-8.9-8.9 4.3-4.3c1.2-1.2 3.1-1.2 4.2 0z"/><linearGradient id="aga" x1="36.886" x2="96.949" y1="803.982" y2="744.936" gradientTransform="translate(0 -713.89)" gradientUnits="userSpaceOnUse"><stop offset="0" style="stop-color:#e0e0e0"/><stop offset="1" style="stop-color:#f5f5f5"/></linearGradient><path style="fill:url(#aga)" d="M26.2 101.6c4.1 4.1 55.7-40 69.2-51.7 2.1-1.8 3.6-4.2 4.2-6.7l.8-3.1c.5-1.9.1-3.8-1.2-5l-6.4-6.4c-1.2-1.2-2.9-1.6-4.8-1.2l-3.2.7c-2.6.6-5.1 2.1-6.9 4.3-11.9 13.8-55.8 65-51.7 69.1z"/><path style="fill:#616161" d="M95.7 28.9l3.2 3.3 8.3-9.5c.9-1 1.2-2.2.7-2.8-.6-.6-1.8-.3-2.8.7.1 0-9.4 8.3-9.4 8.3z"/><path style="fill:#424242" d="M87.5 10.8L103.9 24l13.2 16.4c.8.8 2.1.8 2.9 0l.4-.4c.8-.8.8-2.1 0-2.9L103.9 24 90.7 7.6c-.8-.8-2.1-.8-2.9 0l-.3.4c-.8.8-.8 2 0 2.8z"/><path style="fill:#fb8c00" d="M100.4 40.2l-.8 3.1c-.1.4-.2.8-.4 1.2L83.5 28.7c.4-.2.9-.3 1.3-.4l3.2-.7c1.9-.4 3.6 0 4.8 1.2l6.4 6.4c1.2 1.2 1.7 3.1 1.2 5z"/><g style="opacity:.2"><path style="fill:#eee" d="M89.3 8c.3 0 .5.1.7.3l7.4 9.2-9.2-7.4c-.2-.2-.3-.4-.3-.7s.1-.5.3-.7l.4-.4c.2-.2.4-.3.7-.3m21.1 22.5l9.2 7.4c.2.2.3.4.3.7s-.1.5-.3.7l-.4.4c-.2.2-.5.3-.7.3-.3 0-.5-.1-.7-.3l-7.4-9.2M89.3 7c-.5 0-1 .2-1.4.6l-.4.4c-.8.8-.8 2.1 0 2.9L103.9 24l13.2 16.4c.4.4.9.6 1.4.6s1-.2 1.4-.6l.4-.4c.8-.8.8-2.1 0-2.9L103.9 24 90.7 7.6c-.4-.4-.9-.6-1.4-.6z"/></g><path style="fill:#4fc3f7" d="M76.9 40.3c-.4.9 0 2 .9 2.3 1.4.6 3 2 4.3 3.3 1.2 1.2 2.4 2.6 2.8 3.9.3 1 1.5 1.5 2.4 1l2.9-1.5c1.1-.5 1.3-2.1.4-3.7l-.1-.2c-1.8-3.4-4.8-6.4-8.1-8.2l-.2-.1c-1.7-.9-3.2-.8-3.8.3l-1.5 2.9z"/><g style="opacity:.2"><path style="fill:#424242" d="M80.1 38.5c.1 0 .5 0 1.1.3l.2.1c3 1.6 5.8 4.4 7.3 7.4l.1.2c.3.5.3.9.3 1.1l-2.5 1.2c-.7-1.7-2-3.2-3.2-4.4-1.9-1.9-3.4-3-4.7-3.6l1.4-2.3m0-2c-.8 0-1.4.3-1.7.9l-1.5 2.9c-.4.9 0 2 .9 2.3 1.4.6 3 2 4.3 3.3 1.2 1.2 2.4 2.6 2.8 3.9.2.7.9 1.2 1.6 1.2.2 0 .5 0 .7-.2l2.9-1.5c1.1-.5 1.3-2.1.4-3.7l-.1-.2c-1.8-3.4-4.8-6.4-8.1-8.2l-.2-.1c-.6-.4-1.4-.6-2-.6z"/></g><g style="opacity:.2"><path style="fill:#424242" d="M89.3 29.5c.8 0 1.5.3 2 .8l6.4 6.4c.7.7.9 1.8.6 3.1l-.8 3.1c-.5 2.1-1.8 4.1-3.6 5.6-5.9 5.2-21.4 18.4-36 30.1-19.9 15.9-27.2 20-29.8 21 1-2.6 5.1-9.8 20.8-29.5C60.6 55.5 74 39.9 79.2 33.9c1.6-1.8 3.7-3.1 5.9-3.6l3.2-.7c.4-.1.7-.1 1-.1m0-2c-.4 0-.9 0-1.4.2l-3.2.7c-2.6.6-5.1 2.1-6.9 4.3-11.9 13.7-55.8 64.9-51.6 69 .2.2.5.3.8.3 7.8 0 55.4-40.8 68.3-52 2.1-1.8 3.6-4.2 4.2-6.7l.8-3.1c.5-1.9.1-3.8-1.2-5l-6.4-6.4c-.8-.9-2-1.3-3.4-1.3z"/></g><linearGradient id="agb" x1="56.978" x2="21.413" y1="786.056" y2="820.17" gradientTransform="translate(0 -713.89)" gradientUnits="userSpaceOnUse"><stop offset="0" style="stop-color:#ef6c00"/><stop offset="1" style="stop-color:#fb8c00"/></linearGradient><path style="fill:url(#agb)" d="M8.5 85l18.8 15.6 15.6 18.8c1.3 1.6 3.5 1.6 4.2.2l5.1-8.4c.7-1.5.5-3.5-.7-5.2L39.3 88.3 21.5 76.1c-1.7-1.2-3.7-1.4-5.2-.7l-8 5.5c-1.5.7-1.4 2.8.2 4.1z"/><linearGradient id="agc" x1="33.069" x2="108.839" y1="733.78" y2="828.044" gradientTransform="translate(0 -713.89)" gradientUnits="userSpaceOnUse"><stop offset="0" style="stop-color:#fb8c00"/><stop offset="1" style="stop-color:#ef6c00"/></linearGradient><path style="fill:url(#agc)" d="M17.5 25.3l33.7 39 12.1 12.6 39.3 33.5c1.4 1.3 3.4 1 4-.5l4.6-13c.8-2.2 0-5-2-7L38 18.7c-2-2-4.8-2.8-7-2l-13 4.6c-1.6.6-1.8 2.5-.5 4z"/><g style="opacity:.2"><path style="fill:#424242" d="M32.8 19.4c1 0 2.2.5 3.1 1.4L107 92c1.2 1.2 1.7 2.8 1.3 3.9l-4.2 11.9-38.8-33.1-11.9-12.4-33.3-38.6L32 19.5c.2 0 .5-.1.8-.1m0-3c-.6 0-1.2.1-1.8.3l-13 4.6c-1.5.5-1.8 2.5-.5 4l33.7 39 12.1 12.6 39.3 33.5c.6.6 1.3.8 2 .8.9 0 1.6-.4 1.9-1.3l4.6-13c.8-2.2 0-5-2-7L38 18.7c-1.5-1.5-3.4-2.3-5.2-2.3z"/></g><g style="opacity:.2"><path style="fill:#424242" d="M18.1 77.9c.5 0 1.1.2 1.7.6l17.4 11.9L49 107.7c.6.8.7 1.7.5 2.1l-4.5 7.4-15.4-18.5c-.1-.1-.2-.3-.4-.4L10.6 82.9l7.1-4.9c.1 0 .3 0 .4-.1m0-2.9c-.7 0-1.3.1-1.9.4l-8 5.5c-1.4.7-1.3 2.9.2 4.2l18.8 15.6 15.6 18.8c.7.8 1.6 1.2 2.4 1.2.8 0 1.4-.3 1.8-1l5.1-8.4c.7-1.5.5-3.5-.7-5.2L39.3 88.3 21.5 76.1c-1.1-.8-2.3-1.1-3.4-1.1z"/></g><ellipse transform="rotate(-45.001 32.01 95.322)" style="fill:#616161" cx="32.01" cy="95.32" rx="15" ry="3"/></svg><svg viewBox="0 0 128 128" id="1F6EB" xmlns="http://www.w3.org/2000/svg"><path fill="#616161" d="M4.02 96H124v20H4.02z"/><g fill="#E0E0E0"><path d="M10.35 103.89h11.82v4.22H10.35zM34.17 103.89h11.82v4.22H34.17zM57.99 103.89h11.82v4.22H57.99zM81.81 103.89h11.82v4.22H81.81zM105.63 103.89h11.82v4.22h-11.82z"/></g><path fill="#BDBDBD" d="M60.16 54.03c-.33-1.05-.9-1.72-1.7-2.18-.81-.46-2.05-.53-2.94-.08l-3.92 2c-.32.16-.57.37-.77.62l-2.6 1.4c-.88.47-1.22 1.63-.89 2.66s1.29 1.77 2.27 1.64l2.92-.37c.09-.01.15-.04.23-.06.21.03.43.04.67.01l4.31-.57c1.18-.16 1.97-.51 2.34-1.46.38-.94.49-2.28.08-3.61z"/><ellipse cx="57.7" cy="54.95" fill="#424242" rx="1.85" ry="3.01" transform="rotate(-15.42 57.71 54.942)"/><ellipse cx="97.52" cy="39.68" fill="#757575" rx="2.46" ry="2.42" transform="matrix(.0086 -1 1 .0086 56.996 136.86)"/><path fill="#039BE5" d="M15.81 54.1l12.64-7.59-11.59-8.86c-.03-.02-.06-.05-.1-.07-2.93-2.2-7.22-2.49-10.89-.9l9.94 17.42z"/><path fill="#424242" d="M10.7 37.66c1.85 0 3.58.53 4.87 1.51l.08.06 9.25 7.08-8.36 5.02-7.7-13.49c.62-.12 1.24-.18 1.86-.18m0-2c-1.62 0-3.27.34-4.82 1.01l9.94 17.43 12.64-7.59-11.59-8.86c-.03-.02-.06-.05-.1-.07-1.7-1.28-3.85-1.92-6.07-1.92z" opacity=".2"/><linearGradient id="aha" x1="61.936" x2="67.061" y1="35.192" y2="47.317" gradientUnits="userSpaceOnUse"><stop offset=".006" stop-color="#eee"/><stop offset="1" stop-color="#BDBDBD"/></linearGradient><path fill="url(#aha)" d="M98.2 20.01c4.42-1.59 18.26 1.03 19.71 4.49 1.79 4.28-6.24 9.95-13.5 11.86 0 0-52.91 16.31-64.95 18.14s-22.09 1.79-27.49 2.07c-1.01.05-1.91-.63-2.13-1.62l-.05-.22c-.23-1.02.32-2.05 1.29-2.42 10.59-3.96 67.75-25.33 87.12-32.3z"/><path fill="#4FC3F7" d="M101.09 22.95l1.93 2.37c.59.73 1.58 1.01 2.46.7l10-3.59c.19-.08-8.81-3.67-11.92-2.22l-2.04 1.08c-.67.26-.89 1.1-.43 1.66z"/><path fill="#BDBDBD" d="M4 88h120v8H4zM4 116h120v8H4z"/><path fill="#424242" d="M101.94 21.53c6.17 0 13.42 2.37 14.12 3.73.07.16.26.63-.2 1.58-1.39 2.81-6.75 6.21-11.97 7.58-.03.01-.05.01-.08.02-.53.16-52.9 16.29-64.66 18.08-9.41 1.43-17.76 1.71-23.29 1.9-1.53.05-2.86.1-4.01.16-.03 0-.06-.02-.08-.07l-.05-.22c-.01-.04.01-.08.05-.1 11.16-4.18 67.81-25.36 87.11-32.3.37-.13 1.27-.36 3.06-.36m0-2c-1.52 0-2.83.15-3.74.48-19.37 6.97-76.53 28.34-87.13 32.31-.98.37-1.53 1.4-1.29 2.42l.05.22c.22.95 1.06 1.62 2.02 1.62h.11c5.4-.28 15.45-.24 27.49-2.07s64.95-18.14 64.95-18.14c7.27-1.91 15.29-7.58 13.5-11.86-1.14-2.76-10.1-4.98-15.96-4.98z" opacity=".2"/><path fill="#039BE5" d="M36.33 67.64c1.86.2 4.02-.77 5.77-2.22l24.91-21.67c.28-.42-1.39-1.14-2.51-.83l-11.78 2.97c-.36.1-.59.25-.66.43L36.09 64.3c-.62.73-2.87 3.01.24 3.34zM9.56 60.6c.69.17 2.25.27 3.78-.78l13.68-9.77c.12-.15-.04-.37-.22-.3l-10.65 3.91c-.04.02-.08.04-.1.08l-6.66 5.35c-1.08.81-.5 1.35.17 1.51z"/><path fill="#424242" d="M61.75 45.68l-20.93 18.2c-1.05.87-2.19 1.47-3.19 1.69l15.82-17.81 8.3-2.08m3.35-2.83c-.21 0-.41.02-.6.07l-11.78 2.97c-.36.1-.59.25-.66.43L36.09 64.3c-.62.73-2.87 3.01.24 3.35.16.02.33.03.5.03 1.74 0 3.67-.92 5.27-2.25l24.91-21.67c.23-.36-.88-.91-1.91-.91zM21.51 52.75L12.77 59c-.85.59-1.69.71-2.25.71-.1 0-.2 0-.29-.01l6.42-5.16 4.86-1.79m5.35-3.01c-.02 0-.05 0-.07.01l-10.65 3.91c-.04.02-.08.04-.1.08l-6.66 5.35c-1.08.8-.5 1.35.17 1.51.23.06.56.11.96.11.78 0 1.81-.19 2.82-.89l13.68-9.77c.11-.13 0-.31-.15-.31z" opacity=".2"/><path fill="none" stroke="#757575" stroke-linecap="round" stroke-linejoin="round" stroke-width="3" d="M39.32 49h0"/><path fill="#757575" d="M46.18 46.56c-.28-.78.13-1.64.91-1.92s1.64.13 1.92.91c.27.78-.13 1.64-.91 1.92-.17.06-.34.08-.51.08-.62 0-1.19-.38-1.41-.99zm8.27-2.95c-.27-.78.13-1.64.91-1.92.79-.27 1.64.13 1.92.91a1.5 1.5 0 01-.91 1.92c-.17.06-.34.09-.5.09-.62 0-1.2-.39-1.42-1zm8.28-2.95c-.28-.78.13-1.64.91-1.91.78-.28 1.64.13 1.92.91.27.78-.13 1.64-.91 1.91a1.499 1.499 0 01-1.92-.91zm8.28-2.94c-.28-.78.13-1.64.91-1.92s1.63.13 1.91.91-.13 1.64-.91 1.92c-.16.06-.33.08-.5.08-.62 0-1.19-.38-1.41-.99zm8.27-2.95c-.28-.78.13-1.64.91-1.92.78-.27 1.64.13 1.92.91a1.5 1.5 0 01-.91 1.92c-.17.06-.34.09-.51.09-.61 0-1.19-.39-1.41-1zm8.28-2.95c-.28-.78.13-1.63.91-1.91s1.64.13 1.92.91c.27.78-.13 1.64-.91 1.91a1.49 1.49 0 01-1.92-.91z"/><path fill="none" stroke="#757575" stroke-linecap="round" stroke-linejoin="round" stroke-width="3" d="M97.25 28.38h0"/><path fill="#424242" d="M121 91v30H7V91h114m3-3H4v36h120V88z" opacity=".2"/></svg><svg viewBox="0 0 128 128" id="1F6EC" xmlns="http://www.w3.org/2000/svg"><linearGradient id="aia" x1="42.731" x2="55.945" y1="60.984" y2="60.984" gradientTransform="rotate(29.834 62.033 54.992)" gradientUnits="userSpaceOnUse"><stop offset=".003" stop-color="#eee"/><stop offset="1" stop-color="#BDBDBD"/></linearGradient><path fill="url(#aia)" d="M54.42 55.5c.24-1.07.08-1.94-.39-2.74s-1.51-1.48-2.51-1.53l-4.39-.22c-.35-.02-.68.04-.98.15l-2.95-.08c-.99-.03-1.87.81-2.1 1.87-.22 1.05.24 2.18 1.16 2.56l2.72 1.13c.08.03.15.04.23.07.17.13.36.25.57.34l4.02 1.65c1.1.45 1.96.54 2.76-.1.8-.63 1.56-1.74 1.86-3.1z"/><ellipse cx="51.83" cy="55.07" fill="#424242" rx="3.01" ry="1.85" transform="rotate(-75.594 51.827 55.071)"/><ellipse cx="93.96" cy="61.64" fill="#757575" rx="2.46" ry="2.42" transform="rotate(-59.675 93.956 61.638)"/><path fill="#039BE5" d="M15.92 33.57l14.74-.3-5.64-13.45c-.02-.04-.03-.07-.05-.11-1.45-3.36-5.03-5.75-9-6.2l-.05 20.06z"/><path fill="#424242" d="M17.96 15.92c2.36.82 4.29 2.45 5.17 4.5l.04.09 4.51 10.74-9.76.2.04-15.53m-1.99-2.48l-.05 20.06 14.74-.3-5.64-13.45c-.02-.04-.03-.07-.05-.11-1.45-3.37-5.03-5.76-9-6.2z" opacity=".2"/><linearGradient id="aib" x1="57.459" x2="62.584" y1="40.385" y2="52.51" gradientTransform="rotate(29.834 62.033 54.992)" gradientUnits="userSpaceOnUse"><stop offset=".003" stop-color="#eee"/><stop offset="1" stop-color="#BDBDBD"/></linearGradient><path fill="url(#aib)" d="M104.35 44.91c4.63.82 15.33 9.98 14.86 13.7-.58 4.6-10.36 5.53-17.62 3.57 0 0-54.01-12.17-65.37-16.57s-20.06-9.44-24.88-11.88a2.09 2.09 0 01-1.05-2.46l.07-.22c.3-1 1.29-1.62 2.32-1.45 11.18 1.83 71.39 11.72 91.67 15.31z"/><path fill="#4FC3F7" d="M103.35 47.3l.55 3.36a2.49 2.49 0 001.99 2.04l11.66 2.07c.22.03-7.08-8.3-10.9-8.62l-1.97-.23a1.2 1.2 0 00-1.33 1.38z"/><path fill="#424242" d="M12.35 29.57l.01 2C24.12 33.5 83.81 43.31 104 46.88c1.49.26 4.8 2.13 8.24 5.18 3.8 3.36 5.01 5.74 4.99 6.3-.2 1.59-3.71 2.79-8.17 2.79-2.33 0-4.8-.32-6.95-.9-.03-.01-.05-.01-.08-.02-.54-.12-53.99-12.19-65.08-16.49-8.88-3.44-16.26-7.35-21.15-9.94-1.36-.72-2.53-1.34-3.55-1.86a.095.095 0 01-.04-.1l.07-.22a.07.07 0 01.07-.06v-1.99m0 0c-.9 0-1.72.59-1.99 1.48l-.07.22c-.29.97.14 2.01 1.05 2.46 4.83 2.44 13.53 7.48 24.88 11.88s65.37 16.57 65.37 16.57c2.36.64 4.98.97 7.47.97 5.17 0 9.76-1.43 10.15-4.54.47-3.72-10.24-12.88-14.86-13.7-20.28-3.59-80.49-13.48-91.66-15.31-.11-.02-.23-.03-.34-.03z" opacity=".2"/><path fill="#039BE5" d="M26.97 55.53c1.51 1.1 3.87 1.33 6.11.94l32.39-6.4c.46-.23-.64-1.68-1.76-1.97l-11.7-3.29c-.36-.09-.64-.08-.79.05l-22.79 7.65c-.9.32-3.98 1.19-1.46 3.02z"/><linearGradient id="aic" x1="5.735" x2="17.068" y1="65.126" y2="57.126" gradientTransform="rotate(29.834 62.033 54.992)" gradientUnits="userSpaceOnUse"><stop offset="0" stop-color="#64B5F6"/><stop offset=".194" stop-color="#5EAFF2"/><stop offset=".453" stop-color="#4E9EE7"/><stop offset=".746" stop-color="#3283D4"/><stop offset="1" stop-color="#1565C0"/></linearGradient><path fill="url(#aic)" d="M7.26 36.03c.51.49 1.82 1.35 3.66 1.2l16.72-1.67c.18-.07.15-.34-.04-.37l-11.18-1.91a.2.2 0 00-.13.02l-8.44 1.33c-1.32.17-1.09.93-.59 1.4z"/><path fill="#424242" d="M51.71 46.73l8.25 2.32-27.22 5.38c-.56.1-1.12.15-1.66.15-.73 0-1.4-.09-1.95-.26l22.58-7.59m-.11-2.05c-.16 0-.29.04-.38.11l-22.79 7.65c-.9.32-3.98 1.19-1.46 3.02 1.07.77 2.55 1.12 4.11 1.12.66 0 1.33-.06 2-.18L65.47 50c.46-.23-.64-1.68-1.76-1.97l-11.7-3.29c-.15-.04-.29-.06-.41-.06z" opacity=".2"/><path fill="#039BE5" d="M7.26 36.11c.51.49 1.82 1.35 3.66 1.2l16.72-1.67c.18-.07.15-.34-.04-.37l-11.18-1.91a.2.2 0 00-.13.02l-8.44 1.33c-1.32.16-1.09.92-.59 1.4z"/><path fill="none" stroke="#757575" stroke-linecap="round" stroke-linejoin="round" stroke-width="3" d="M38.18 38.4h0"/><path fill="#757575" d="M89.48 50.65c-.82-.17-1.34-.97-1.17-1.78s.97-1.33 1.78-1.16 1.33.96 1.16 1.77a1.505 1.505 0 01-1.77 1.17zm-8.6-1.8c-.82-.17-1.34-.97-1.17-1.78s.97-1.33 1.78-1.16 1.33.97 1.16 1.78a1.496 1.496 0 01-1.77 1.16zm-8.61-1.8c-.81-.17-1.33-.96-1.16-1.77s.97-1.33 1.78-1.16a1.495 1.495 0 01-.31 2.96c-.1 0-.2-.01-.31-.03zm-8.59-1.79c-.82-.17-1.34-.97-1.17-1.78s.97-1.33 1.78-1.16a1.5 1.5 0 01-.31 2.97c-.1 0-.2-.01-.3-.03zm-8.6-1.8c-.81-.17-1.34-.96-1.17-1.77s.97-1.33 1.78-1.16a1.495 1.495 0 01-.31 2.96c-.1 0-.2-.01-.3-.03zm-8.6-1.79a1.52 1.52 0 01-1.17-1.78c.17-.81.97-1.33 1.78-1.16s1.33.96 1.16 1.77a1.505 1.505 0 01-1.77 1.17z"/><path fill="none" stroke="#757575" stroke-linecap="round" stroke-linejoin="round" stroke-width="3" d="M98.38 50.97h0"/><path fill="#424242" d="M16.42 34.37l5.11.87-10.69 1.07c-.12.01-.24.01-.35.01a3.86 3.86 0 01-2.2-.67l8.13-1.28m-.03-1.02c-.03 0-.07.01-.09.02L7.86 34.7c-1.33.16-1.1.92-.6 1.4.47.45 1.61 1.22 3.23 1.22.14 0 .28-.01.43-.02l16.72-1.67c.18-.07.15-.34-.04-.37l-11.18-1.91h-.03z" opacity=".2"/><path fill="#616161" d="M4.02 96H124v20H4.02z"/><g fill="#E0E0E0"><path d="M10.35 103.89h11.82v4.22H10.35zM34.17 103.89h11.82v4.22H34.17zM57.99 103.89h11.82v4.22H57.99zM81.81 103.89h11.82v4.22H81.81zM105.63 103.89h11.82v4.22h-11.82z"/></g><path fill="#BDBDBD" d="M4 88h120v8H4zM4 116h120v8H4z"/><path fill="#424242" d="M121 91v30H7V91h114m3-3H4v36h120V88z" opacity=".2"/></svg><svg viewBox="0 0 128 128" id="1F6F0" xmlns="http://www.w3.org/2000/svg"><path fill="#616161" d="M50.31 94.65L33.5 77.84c-1.39-1.39-.14-3.03 1.01-3.53l9.85-5.52 15.16 15.16-5.71 9.56c-.52 1.15-2.13 2.52-3.5 1.14zM44.32 48.954l4.865-4.865 34.846 34.846-4.865 4.865z"/><path fill="#eee" d="M49.19 45.5l33.44 33.44-3.45 3.45-33.44-33.44 3.45-3.45m0-1.41l-4.86 4.86L79.18 83.8l4.86-4.86-34.85-34.85z" opacity=".2"/><g fill="#90A4AE"><path d="M94.6 47.81l4.3 1.03 5.88-22.56-4.3-1.03z"/><path d="M80.28 33.48l-1.03-4.3 22.56-5.87 1.03 4.3z"/></g><g fill="#424242" opacity=".2"><path d="M101.2 26.45l2.35.56-5.37 20.62-2.35-.56 5.37-20.62m-.72-1.2L94.6 47.81l4.3 1.03 5.88-22.56-4.3-1.03z"/><path d="M101.07 24.53l.56 2.35-20.62 5.37-.56-2.35 20.62-5.37m.74-1.22l-22.56 5.88 1.03 4.3 22.56-5.88-1.03-4.3z"/></g><path fill="#424242" d="M81.065 53.773l-6.619-6.618 9.857-9.857 6.619 6.618z"/><linearGradient id="aja" x1="89.984" x2="44.117" y1="90.321" y2="42.16" gradientTransform="matrix(-1 0 0 1 128.84 0)" gradientUnits="userSpaceOnUse"><stop offset=".002" stop-color="#90A4AE"/><stop offset=".217" stop-color="#A0B1BA"/><stop offset=".724" stop-color="#C2CDD3"/><stop offset="1" stop-color="#CFD8DC"/></linearGradient><path fill="url(#aja)" d="M40.61 71.93l15.35 15.35a3 3 0 004.24 0L88.38 59.1a3 3 0 000-4.24L73.02 39.52a3 3 0 00-4.24 0L40.61 67.69a2.982 2.982 0 000 4.24z"/><path fill="#0277BD" d="M98.24 122.68l-31.2-31.2a3 3 0 010-4.24l20.2-20.2a3 3 0 014.24 0l31.2 31.2a3 3 0 010 4.24l-20.2 20.2c-1.16 1.17-3.06 1.17-4.24 0z"/><g fill="#81D4FA"><path d="M91.368 115.803l-3.486-3.486 24.437-24.437 3.486 3.486zM77.413 101.854l-3.486-3.486 24.437-24.437 3.486 3.486z"/></g><path fill="#0277BD" d="M36.51 60.95l-31.2-31.2a3 3 0 010-4.24l20.2-20.2a3 3 0 014.24 0l31.2 31.2a3 3 0 010 4.24l-20.2 20.2c-1.16 1.17-3.06 1.17-4.24 0z"/><g fill="#81D4FA"><path d="M29.636 54.07l-3.486-3.486 24.437-24.438 3.486 3.486zM15.684 40.126l-3.486-3.486 24.437-24.438 3.486 3.486z"/></g><path fill="#CFD8DC" d="M101.11 48.54c1 1 .88 2.69-.29 3.49-6.22 4.23-13.81 1.87-20.02-4.34-6.2-6.2-8.91-14.12-4.77-20.41.78-1.19 2.49-1.31 3.5-.31l21.58 21.57z"/><path fill="#0277BD" d="M98.24 122.68l-31.2-31.2a3 3 0 010-4.24l20.2-20.2a3 3 0 014.24 0l31.2 31.2a3 3 0 010 4.24l-20.2 20.2c-1.16 1.17-3.06 1.17-4.24 0z"/><g fill="#03A9F4"><path d="M91.368 115.803l-3.486-3.486 24.437-24.437 3.486 3.486zM77.413 101.854l-3.486-3.486 24.437-24.437 3.486 3.486z"/></g><path fill="#0277BD" d="M36.51 60.95l-31.2-31.2a3 3 0 010-4.24l20.2-20.2a3 3 0 014.24 0l31.2 31.2a3 3 0 010 4.24l-20.2 20.2c-1.16 1.17-3.06 1.17-4.24 0z"/><g fill="#03A9F4"><path d="M29.636 54.07l-3.486-3.486 24.437-24.438 3.486 3.486zM15.684 40.126l-3.486-3.486 24.437-24.438 3.486 3.486z"/></g><path fill="#424242" d="M89.36 69.17l31.2 31.2-20.2 20.2-31.2-31.2 20.2-20.2m0-3c-.77 0-1.54.29-2.12.88l-20.2 20.2a3 3 0 000 4.24l31.2 31.2c.59.59 1.35.88 2.12.88s1.54-.29 2.12-.88l20.2-20.2a3 3 0 000-4.24l-31.2-31.2c-.58-.59-1.35-.88-2.12-.88zM27.63 7.44l31.2 31.2-20.2 20.2-31.2-31.2 20.2-20.2m0-3c-.77 0-1.54.29-2.12.88l-20.2 20.2a3 3 0 000 4.24l31.2 31.2c.59.59 1.35.88 2.12.88s1.54-.29 2.12-.88l20.2-20.2a3 3 0 000-4.24l-31.2-31.2c-.58-.59-1.35-.88-2.12-.88zM70.9 41.2c.38 0 .75.15 1.02.42l14.73 14.73c.56.56.56 1.47 0 2.03L59.09 85.94c-.26.26-.62.41-1 .41-.13 0-.27-.02-.4-.05-.17-.05-.35-.07-.52-.07-.69 0-1.35.36-1.72.97l-3.38 5.66c-.04.07-.08.15-.12.23-.07.16-.21.33-.33.43l-16.7-16.7a1 1 0 01.37-.3l.18-.09 5.67-3.18c.88-.5 1.26-1.58.87-2.51-.22-.54-.1-1.16.31-1.57l27.56-27.56c.28-.26.64-.41 1.02-.41m0-2c-.88 0-1.76.34-2.43 1.01L40.92 67.76a3.437 3.437 0 00-.74 3.75l-5.67 3.18c-1.15.5-2.4 2.14-1.01 3.53l16.81 16.81c.41.41.84.58 1.26.58.98 0 1.87-.91 2.22-1.72l3.38-5.66c.3.08.61.12.92.12.87 0 1.74-.33 2.41-.99L88.06 59.8a3.44 3.44 0 000-4.86L73.33 40.2c-.67-.67-1.55-1-2.43-1z" opacity=".2"/><path fill="#424242" d="M77.9 28.3c.05 0 .15.01.23.09L99.7 49.96c.1.1.1.21.09.26-.01.11-.07.15-.09.16-1.75 1.19-3.66 1.79-5.7 1.79-3.79 0-7.98-2.09-11.78-5.89-4.75-4.75-8.43-11.95-4.51-17.89.04-.06.1-.09.19-.09m0-2c-.72 0-1.43.33-1.86.99-4.14 6.28-1.43 14.21 4.77 20.41 4.06 4.06 8.72 6.48 13.19 6.48 2.36 0 4.68-.67 6.83-2.14 1.17-.8 1.29-2.49.29-3.49L79.54 26.98c-.45-.46-1.05-.68-1.64-.68z" opacity=".2"/><circle cx="103.29" cy="25.17" r="4.58" fill="#616161"/><path fill="#eee" d="M103.29 21.59c.96 0 1.86.37 2.53 1.05.68.68 1.05 1.58 1.05 2.53s-.37 1.86-1.05 2.53c-.68.68-1.58 1.05-2.53 1.05-.96 0-1.86-.37-2.53-1.05-.68-.68-1.05-1.58-1.05-2.53s.37-1.86 1.05-2.53c.68-.68 1.58-1.05 2.53-1.05m0-1a4.581 4.581 0 103.24 7.82 4.581 4.581 0 000-6.48c-.89-.9-2.06-1.34-3.24-1.34z" opacity=".2"/></svg><svg viewBox="0 0 128 128" id="1F6F8" xmlns="http://www.w3.org/2000/svg"><linearGradient id="aka" x1="70.948" x2="45.394" y1="66.12" y2="121.49" gradientTransform="matrix(.8759 -.0643 .068 .9265 -4.035 6.582)" gradientUnits="userSpaceOnUse"><stop offset="0" stop-color="#00ECCC"/><stop offset=".109" stop-color="#0AEECF" stop-opacity=".85"/><stop offset=".29" stop-color="#24F2D5" stop-opacity=".6"/><stop offset=".522" stop-color="#4DF8E1" stop-opacity=".281"/><stop offset=".726" stop-color="#78FFEC" stop-opacity="0"/><stop offset="1" stop-color="#78FFEC" stop-opacity="0"/></linearGradient><path fill="url(#aka)" d="M30.94 52.47L6.38 101.52s77.44 25.32 77.06 24.13 10.23-52.44 10.23-52.44L30.94 52.47z"/><linearGradient id="akb" x1="1.273" x2="125.07" y1="55.48" y2="55.48" gradientTransform="rotate(15.225 63.016 55.052)" gradientUnits="userSpaceOnUse"><stop offset="0" stop-color="#8690BB"/><stop offset=".265" stop-color="#6E76A6"/><stop offset=".665" stop-color="#B0BEE1"/><stop offset=".884" stop-color="#6E76A6"/><stop offset="1" stop-color="#8A90B3"/></linearGradient><path fill="url(#akb)" d="M123.83 67.58c.21-4.72-22.68-24.05-22.68-24.05L36.19 25.84S6.76 30.93 4.54 35.1s0 26.82 53.38 41.35 65.7-4.15 65.91-8.87z"/><path fill="#505C70" d="M102.14 40.44C100.1 22.25 83.41 9.99 65.64 9.3c-11.13-.43-21.62 4.65-28.25 13.51-2.15 2.88-4.97 6.31-2.9 9.97 2.47 4.37 8.36 7.32 12.71 9.43 11.43 5.55 24.14 9.01 36.83 10.03 4.82.38 11.23.78 15.57-1.73 3.64-2.11 2.94-6.5 2.54-10.07z"/><defs><path id="akc" d="M123.83 67.58c.21-4.72-22.68-24.05-22.68-24.05L36.19 25.84S6.76 30.93 4.54 35.1s.73 22.22 54.11 36.75 64.97.45 65.18-4.27z"/></defs><clipPath id="akd"><use xlink:href="#akc"/></clipPath><radialGradient id="ake" cx="39.873" cy="60.84" r="42.895" gradientTransform="matrix(1.0083 .2745 -.2627 .9649 37.508 -8.95)" gradientUnits="userSpaceOnUse"><stop offset=".228" stop-color="#00ECCC"/><stop offset="1" stop-color="#00CCB1"/></radialGradient><path fill="url(#ake)" d="M59.23 69.89C27.07 61.13 3.3 44.91 4.87 33.07c-.14.34-.27.68-.36 1.04-3.24 11.91 21 28.87 54.14 37.9 33.14 9.02 62.64 6.69 65.88-5.22.1-.36.17-.72.21-1.08-4.64 10.99-33.36 12.93-65.51 4.18z" clip-path="url(#akd)"/><radialGradient id="akf" cx="-133.62" cy="-125.32" r="3.642" gradientTransform="matrix(.7567 .6538 -.4888 .5657 56.232 194.16)" gradientUnits="userSpaceOnUse"><stop offset=".065" stop-color="#00ECCC"/><stop offset=".252" stop-color="#00E7C7"/><stop offset=".481" stop-color="#00D8BB"/><stop offset=".732" stop-color="#00BFA5"/><stop offset=".997" stop-color="#009C87"/><stop offset="1" stop-color="#009C87"/></radialGradient><path fill="url(#akf)" d="M19.38 38.17c-.67.93-2.45.79-3.98-.31s-2.22-2.75-1.55-3.68 2.45-.79 3.98.31c1.53 1.11 2.22 2.75 1.55 3.68z"/><radialGradient id="akg" cx="-120.13" cy="-123.57" r="3.642" gradientTransform="matrix(.7567 .6538 -.4888 .5657 56.799 193.66)" gradientUnits="userSpaceOnUse"><stop offset=".065" stop-color="#00ECCC"/><stop offset=".252" stop-color="#00E7C7"/><stop offset=".481" stop-color="#00D8BB"/><stop offset=".732" stop-color="#00BFA5"/><stop offset=".997" stop-color="#009C87"/><stop offset="1" stop-color="#009C87"/></radialGradient><path fill="url(#akg)" d="M29.3 47.48c-.67.93-2.45.79-3.98-.31s-2.22-2.75-1.55-3.68 2.45-.79 3.98.31 2.22 2.75 1.55 3.68z"/><radialGradient id="akh" cx="-23.659" cy="-46.43" r="3.642" gradientTransform="matrix(.8594 .5113 -.3823 .6425 42.906 95.938)" gradientUnits="userSpaceOnUse"><stop offset=".065" stop-color="#00ECCC"/><stop offset=".252" stop-color="#00E7C7"/><stop offset=".481" stop-color="#00D8BB"/><stop offset=".732" stop-color="#00BFA5"/><stop offset=".997" stop-color="#009C87"/><stop offset="1" stop-color="#009C87"/></radialGradient><path fill="url(#akh)" d="M43.67 55.72c-.5 1.03-2.28 1.21-3.97.39-1.7-.82-2.67-2.32-2.17-3.35s2.28-1.21 3.97-.39 2.67 2.31 2.17 3.35z"/><radialGradient id="aki" cx="62.855" cy="43.713" r="3.642" gradientTransform="matrix(.9381 .3465 -.259 .7013 10.954 8.918)" gradientUnits="userSpaceOnUse"><stop offset=".065" stop-color="#00ECCC"/><stop offset=".252" stop-color="#00E7C7"/><stop offset=".481" stop-color="#00D8BB"/><stop offset=".732" stop-color="#00BFA5"/><stop offset=".997" stop-color="#009C87"/><stop offset="1" stop-color="#009C87"/></radialGradient><path fill="url(#aki)" d="M62.2 62.42c-.3 1.11-2.02 1.6-3.84 1.11s-3.05-1.79-2.75-2.9 2.02-1.6 3.84-1.11 3.05 1.8 2.75 2.9z"/><radialGradient id="akj" cx="101.03" cy="77.59" r="3.642" gradientTransform="matrix(.9578 .2876 -.215 .716 -2.595 -18.71)" gradientUnits="userSpaceOnUse"><stop offset=".065" stop-color="#00ECCC"/><stop offset=".252" stop-color="#00E7C7"/><stop offset=".481" stop-color="#00D8BB"/><stop offset=".732" stop-color="#00BFA5"/><stop offset=".997" stop-color="#009C87"/><stop offset="1" stop-color="#009C87"/></radialGradient><path fill="url(#akj)" d="M81.15 66.75c-.23 1.12-1.92 1.72-3.76 1.34-1.85-.38-3.15-1.6-2.92-2.72s1.92-1.72 3.76-1.34c1.85.38 3.16 1.6 2.92 2.72z"/><radialGradient id="akk" cx="144.19" cy="135.63" r="3.642" gradientTransform="matrix(.9824 .1869 -.1397 .7345 -28.593 -59.022)" gradientUnits="userSpaceOnUse"><stop offset=".065" stop-color="#00ECCC"/><stop offset=".252" stop-color="#00E7C7"/><stop offset=".481" stop-color="#00D8BB"/><stop offset=".732" stop-color="#00BFA5"/><stop offset=".997" stop-color="#009C87"/><stop offset="1" stop-color="#009C87"/></radialGradient><path fill="url(#akk)" d="M97.84 68.01c-.11 1.14-1.73 1.91-3.6 1.73-1.87-.19-3.3-1.27-3.19-2.41s1.73-1.91 3.6-1.73 3.3 1.26 3.19 2.41z"/><radialGradient id="akl" cx="203.09" cy="351.7" r="3.642" gradientTransform="matrix(.9856 -.169 .1263 .7369 -132.78 -159.11)" gradientUnits="userSpaceOnUse"><stop offset=".065" stop-color="#00ECCC"/><stop offset=".252" stop-color="#00E7C7"/><stop offset=".481" stop-color="#00D8BB"/><stop offset=".732" stop-color="#00BFA5"/><stop offset=".997" stop-color="#009C87"/><stop offset="1" stop-color="#009C87"/></radialGradient><path fill="url(#akl)" d="M115.48 64.86c.29 1.11-.95 2.4-2.77 2.88s-3.54-.03-3.83-1.14.95-2.4 2.77-2.88c1.83-.48 3.54.03 3.83 1.14z"/><radialGradient id="akm" cx="59.093" cy="42.536" r="35.889" gradientTransform="matrix(.8949 .4462 -.4304 .8633 27.943 -21.146)" gradientUnits="userSpaceOnUse"><stop offset="0" stop-color="#78FFEC"/><stop offset=".094" stop-color="#73FEEB"/><stop offset=".21" stop-color="#64FCE7"/><stop offset=".338" stop-color="#4AF8E0"/><stop offset=".472" stop-color="#28F2D7"/><stop offset=".6" stop-color="#00ECCC"/><stop offset="1" stop-color="#00CCB1"/></radialGradient><path fill="url(#akm)" d="M102.91 38.11C100.67 20.45 83.73 8.38 65.85 7.52c-11.21-.54-21.7 4.28-28.29 12.8-2.14 2.77-4.93 6.07-2.81 9.64 2.53 4.26 8.5 7.19 12.89 9.28 11.56 5.5 24.39 9 37.17 10.12 4.85.42 11.31.88 15.65-1.51 3.64-2 2.89-6.27 2.45-9.74z"/><path fill="#DCFFFA" d="M78.25 15.37c.82.18 1.76.47 2.76.88s2.07.93 3.17 1.57 2.23 1.39 3.34 2.26c1.11.86 2.21 1.84 3.25 2.92s2.03 2.26 2.92 3.53 1.69 2.63 2.36 4.07 1.22 2.95 1.61 4.53c.39 1.57.63 3.21.7 4.89s-.04 3.41-.32 5.18c0 0-.02-.4-.15-1.14s-.36-1.81-.82-3.16-1.14-2.97-2.18-4.8c-1.04-1.82-2.45-3.84-4.37-5.94-.85-.93-1.91-1.94-3.11-2.98a68.82 68.82 0 00-3.97-3.14c-1.41-1.03-2.87-2.04-4.28-2.98s-2.77-1.81-3.94-2.58c-1.18-.77-2.17-1.45-2.85-2.02s-1.04-1.02-.96-1.34c.09-.32.63-.5 1.73-.48s2.78.23 5.11.73z" opacity=".48"/><g fill="#A3B0D6"><path d="M18.66 57.37l2.56 1.9c.44.38 1.32.99 1.37 1.57.19 2.02.01 2.7-.11 4.25-.13 1.69-4.41-2.96-5.32-6.4-.37-1.4.4-2.25 1.5-1.32zM100.44 79.63l-3.17.34c-.57.1-1.64.19-1.98.66-1.18 1.64-1.38 2.32-2.06 3.71-.75 1.53 5.31-.32 7.83-2.82 1.03-1 .8-2.14-.62-1.89zM60.43 75.2c-.33-.66-1.31-1.14-1.85-1.37-1.06-.46-2.35-.5-3.42-.02-.22.1-.39.28-.45.51-.32 1.26.57 4.95 2.19 4.9.74-.02 1.55-.91 2.07-1.37.59-.52 1.3-1.16 1.53-1.95.07-.25.04-.49-.07-.7z"/></g><path fill="#424242" d="M64.33 10.65c.51 0 1.04.01 1.55.04 8.31.4 16.37 3.37 22.68 8.35 6.59 5.2 10.58 11.99 11.55 19.62l.06.48c.23 1.77.49 3.79.05 5.05-.4 1.16-.06 2.45.87 3.25 12.72 11.02 19.17 18.18 19.89 20.31-.19.9-1.27 3.06-4.14 5.25-2.6 1.98-7.47 4.56-15.86 5.59-.72.09-1.38.43-1.86.97-.02.03-.05.05-.07.08-.44.41-1.03.81-1.66 1.15-.04-.09-.09-.18-.14-.26a2.993 2.993 0 00-2.59-1.49h-.06c-.52.01-1.05.02-1.59.02-9.17 0-20-1.62-32.19-4.81-.25-.07-.51-.1-.76-.1-.84 0-1.66.36-2.24 1-.21-1.1-1.02-2-2.11-2.32-12.7-3.68-23.21-8.1-31.26-13.15-.49-.31-1.04-.46-1.59-.46a2.95 2.95 0 00-1.83.63c-.34-.58-.62-1.18-.76-1.72-.06-.85-.47-1.64-1.15-2.17C8.54 47.74 6.69 40.24 7.26 37.07c.02-.11.04-.2.06-.26 1.78-1.52 11.66-4.53 27.52-7.47a2.99 2.99 0 002.39-2.33c.28-1.32 1.51-2.91 2.6-4.32l.28-.36c5.74-7.42 14.56-11.68 24.22-11.68m0-3c-10.57 0-20.34 4.76-26.59 12.85-1.37 1.77-2.99 3.76-3.44 5.89-6.73 1.25-27.72 5.39-29.58 8.89-.18.34-.33.78-.41 1.3-.68 3.78 1.06 12.49 12.95 21.75.01.17.03.35.09.54.78 2.93 4.01 6.76 5.02 6.76.17 0 .28-.11.3-.36.09-1.19.21-1.87.18-3.04 7.49 4.7 17.84 9.39 32.02 13.49.17 1.56.97 3.68 2.18 3.68h.04c.74-.02 1.55-.91 2.07-1.37.3-.26.62-.55.9-.87 13.54 3.55 24.35 4.91 32.95 4.91.56 0 1.11-.01 1.65-.02-.52.86-.76 1.5-1.24 2.48-.19.39.06.56.57.56 1.51 0 5.38-1.5 7.26-3.37.04-.04.07-.08.11-.12 16.63-2.04 22.01-10 22.6-13.36.03-.17.05-.32.05-.47.17-3.93-15.63-17.96-20.95-22.57.72-2.08.32-4.66.03-6.9C100.84 20.62 83.9 8.55 66.02 7.69c-.56-.02-1.13-.04-1.69-.04z" opacity=".2"/></svg><svg viewBox="0 0 128 128" style="enable-background:new 0 0 128 128" id="1FA82" xmlns="http://www.w3.org/2000/svg"><linearGradient id="ala" x1="13.946" x2="31.79" y1="81.375" y2="49.257" gradientTransform="matrix(1 .00494 .00494 -1 -.326 127.714)" gradientUnits="userSpaceOnUse"><stop offset="0" style="stop-color:#78909c"/><stop offset="1" style="stop-color:#b0bec5"/></linearGradient><path style="fill:url(#ala)" d="M32.02 78.99L5.87 34.14l1.75-.96L32.9 78.21z"/><linearGradient id="alb" x1="96.513" x2="49.188" y1="50.514" y2="43.233" gradientTransform="matrix(1 .00494 .00494 -1 -.326 127.714)" gradientUnits="userSpaceOnUse"><stop offset="0" style="stop-color:#78909c"/><stop offset="1" style="stop-color:#b0bec5"/></linearGradient><path style="fill:url(#alb)" d="M45.53 85.21l.42-1.08 47.83-7.02.28 1.98z"/><linearGradient id="alc" x1="37.413" x2="37.175" y1="79.035" y2="69.568" gradientTransform="matrix(1 .00494 .00494 -1 -.326 127.714)" gradientUnits="userSpaceOnUse"><stop offset="0" style="stop-color:#546e7a"/><stop offset="1" style="stop-color:#90a4ae"/></linearGradient><path style="fill:url(#alc)" d="M37.28 76.2l-1-.02 1.62-62.11 1 .02z"/><linearGradient id="ald" x1="72.312" x2="60.187" y1="60.464" y2="54.089" gradientTransform="matrix(1 .00494 .00494 -1 -.326 127.714)" gradientUnits="userSpaceOnUse"><stop offset="0" style="stop-color:#546e7a"/><stop offset="1" style="stop-color:#90a4ae"/></linearGradient><path style="fill:url(#ald)" d="M47.06 81.26l-.47-.89 66.01-34.25.46.89z"/><path style="fill:#b0bec5" d="M15.852 32.426l.93-.366L34.75 77.743l-.931.366zM28.405 38.185l.986-.164 6.385 38.577-.986.163zM46.292 81.29l36.85-11.754.304.953-36.85 11.754zM45.966 82.412l47.217-9.84.204.98L46.17 83.39z"/><path style="fill:#78909c" d="M45.13 84.87c-.37 2.63-1.02 5.18-1.75 7.7-.76 2.52-1.58 5.01-2.71 7.42.36-2.63 1.02-5.18 1.75-7.7.76-2.52 1.59-5.01 2.71-7.42zM32.03 78.69c-.41 2.17-1.11 4.24-1.88 6.28-.8 2.03-1.66 4.03-2.81 5.92.41-2.17 1.11-4.24 1.88-6.28.79-2.03 1.66-4.03 2.81-5.92z"/><path style="fill:#504f4f" d="M41.68 97.97l.07.09c.4.46.34 1.17-.12 1.57l-.09.07c-.46.4-1.17.34-1.57-.12l-.07-.09c-.4-.46-.34-1.17.12-1.57l.09-.07c.47-.4 1.17-.35 1.57.12zM29.15 88.03l.07.09c.4.46.34 1.17-.12 1.57l-.09.07c-.46.4-1.17.34-1.57-.12l-.07-.09c-.4-.46-.34-1.17.12-1.57l.09-.07c.46-.4 1.17-.35 1.57.12z"/><linearGradient id="ale" x1="2047.1" x2="2047.1" y1="-29.678" y2="-29.678" gradientTransform="scale(-1) rotate(28.241 1157.015 -4209.343)" gradientUnits="userSpaceOnUse"><stop offset="0" style="stop-color:#ffb300"/><stop offset=".401" style="stop-color:#ffca28"/></linearGradient><path style="fill:url(#ale)" d="M36.63 106.1c.02-.04.03-.07.03-.07s-.03.08-.03.07z"/><path style="fill:#eda600" d="M36.66 106.03s-.01.03-.03.07c.01 0 .03-.07.03-.07z"/><linearGradient id="alf" x1="56.424" x2="54.531" y1="16.429" y2="20.729" gradientTransform="scale(1 -1) rotate(-49.465 -74.36 -14.984)" gradientUnits="userSpaceOnUse"><stop offset="0" style="stop-color:#1a237e;stop-opacity:.9713"/><stop offset="1" style="stop-color:#4885ed;stop-opacity:.9713"/></linearGradient><circle style="fill:url(#alf)" cx="35.79" cy="91.31" r="3.07"/><g style="opacity:.22"><path style="fill:#212121" d="M35.79 88.74c.68 0 1.32.26 1.8.74 1.01.99 1.02 2.62.02 3.63-.49.49-1.13.76-1.83.76-.68 0-1.32-.26-1.8-.74a2.562 2.562 0 01-.02-3.63c.49-.48 1.14-.76 1.83-.76m0-.5a3.066 3.066 0 00-2.15 5.25c.6.59 1.38.89 2.16.89a3.066 3.066 0 002.15-5.25c-.6-.59-1.38-.89-2.16-.89z"/></g><linearGradient id="alg" x1="40.589" x2="31.652" y1="29.634" y2="18.022" gradientTransform="scale(1 -1) rotate(-10.177 -653.827 -1.03)" gradientUnits="userSpaceOnUse"><stop offset="0" style="stop-color:#a11919"/><stop offset=".496" style="stop-color:#db3236"/></linearGradient><path style="fill:url(#alg)" d="M40.15 98.48c-.8.02-2.46.61-2.46.61s-.17-.55-.23-1.51c-.1-1.54-.23-2.91-1.21-3.83-.5-.47-1.92-1.22-3.12-1.54-.12-.03-.23-.05-.35-.07-1.67-.63-5.17-.09-5.17-.09l1.07-2.32c-.17-.55-1.07-1-1.45-.58-.39.43-.97 1.7-1.56 3.03-.56 1.28.06 2 .8 2.28.74.29 2.03.29 2.03.29-.83 1.25-1.83 3.43-1.85 3.47 0 0-.48.9-.52.98-.02.04-2.42 3.92-2.42 3.92s-2.18 1.25-3.77 2.65c-.86.76 1.19 1.03 1.19 1.03s2.04-.33 3.92-1c1.28-.45 2.78-2.8 3.07-2.83s.46.08.46.08l-1.37 2.72s-1.24 1.07-2.91 2.64c-.68.64 1.31 1.34 1.31 1.34s2.09-.33 3.52-1.73c1.13-1.11 4.11-6.38 4.11-6.38s.28-.43.53-.81l1.19-1.79s.54.89 1.05 1.67c.46.72 1.21.78 1.56.66 1.25-.45 2.67-1.14 3.11-1.38s.27-1.54-.53-1.51z"/><g style="opacity:.22"><path style="fill:#212121" d="M27.63 89.49c.15 0 .37.12.49.26l-.97 2.09-.39.85.92-.14c.01 0 1.38-.21 2.78-.21.93 0 1.67.09 2.14.27l.08.02c.1.02.21.04.32.07 1.18.3 2.51 1.04 2.91 1.42.82.77.96 1.93 1.06 3.5.07 1.01.24 1.6.25 1.62l.15.5.49-.17c.44-.16 1.71-.56 2.31-.58.03 0 .1 0 .17.12.1.17.1.39.07.47-.49.26-1.84.91-3 1.32-.01 0-.07.02-.16.02-.15 0-.53-.05-.81-.48-.5-.77-1.04-1.65-1.04-1.65l-.41-.67-.43.65-1.19 1.79c-.32.47-.47.71-.55.84h-.01c-.82 1.45-3.13 5.4-4.02 6.27-1.11 1.08-2.68 1.48-3.13 1.57-.39-.15-.78-.37-.94-.52 1.61-1.51 2.82-2.55 2.83-2.56l.08-.06.04-.09 1.37-2.72.2-.4-.38-.24c-.06-.04-.28-.17-.64-.17-.04 0-.09 0-.13.01-.31.03-.51.26-1.04.89-.54.64-1.46 1.72-2.16 1.96-1.62.58-3.39.9-3.76.96-.29-.04-.59-.13-.78-.21 1.52-1.33 3.59-2.52 3.61-2.53l.11-.06.07-.11c2.41-3.9 2.43-3.94 2.44-3.96.05-.1.5-.94.51-.95 0-.01.02-.05.06-.12.68-1.44 1.31-2.62 1.77-3.32l.52-.77h-.93c-.33 0-1.31-.05-1.85-.26-.22-.09-.51-.25-.64-.55-.11-.28-.08-.63.11-1.06.35-.8 1.09-2.47 1.47-2.89-.01-.02 0-.02.03-.02m0-.5c-.16 0-.3.05-.41.17-.39.43-.97 1.7-1.56 3.03-.56 1.28.06 2 .8 2.28.74.29 2.03.29 2.03.29-.83 1.25-1.83 3.43-1.85 3.47 0 0-.48.9-.52.98-.02.04-2.42 3.92-2.42 3.92s-2.18 1.25-3.77 2.65c-.86.76 1.19 1.03 1.19 1.03s2.04-.33 3.92-1c1.28-.45 2.78-2.8 3.07-2.83h.09c.24 0 .37.09.37.09l-1.37 2.72s-1.24 1.07-2.91 2.64c-.68.64 1.31 1.34 1.31 1.34s2.09-.33 3.52-1.73c1.13-1.11 4.11-6.38 4.11-6.38s.28-.43.53-.81l1.19-1.79s.54.89 1.05 1.67c.35.54.86.71 1.23.71.13 0 .24-.02.33-.05 1.25-.45 2.67-1.14 3.11-1.38s.27-1.51-.51-1.51h-.02c-.8.02-2.46.61-2.46.61s-.17-.55-.23-1.51c-.1-1.54-.23-2.91-1.21-3.83-.5-.47-1.92-1.22-3.12-1.54-.12-.03-.23-.05-.35-.07-.61-.23-1.47-.3-2.31-.3-1.45 0-2.86.22-2.86.22l1.07-2.32c-.12-.42-.62-.77-1.04-.77z"/></g><path style="fill:#424242" d="M19.18 107.65c.03.83.18 1.19.65 1.28.6.11 1.25-1.42 1.25-1.42.29-.48.59-.55.59-.55l2.41-.69c.12-2.03-1.24-2.52-1.61-2.59 0 0-1.95 1.38-2.39 1.67-.36.24-.49.47-.57.62-.07.14-.36.73-.33 1.68zM22.93 110.74c-.11.82.07 1.17.55 1.24.6.08 1.49-1.41 1.49-1.41.26-.49.56-.57.56-.57l2.41-.97c.03-2.03-1.49-2.45-1.87-2.5 0 0-1.77 1.63-2.2 1.94-.35.25-.47.49-.55.64-.06.12-.27.73-.39 1.63z"/><path style="fill:#4e342e" d="M36.25 94.53l-.26-.37 10.46-12.38-1.92 4.17z"/><path style="fill:#553a30" d="M32.36 92.51L36 76.67l1.39.58-4.76 16.02z"/><g style="opacity:.47"><path style="fill:#2b2d2d" d="M36.66 106.03s-.01.03-.03.07c.01 0 .03-.07.03-.07z"/></g><path style="fill:#795548" d="M31.34 93.22l.37-14.72 2.25.4-1.61 14.46zM36.51 94.38l-.48-.69 7.71-9.57 1.78.67z"/><path style="fill:#553a30" d="M32.19 79.14l1.21.32-1.48 13.33-.07-.01.34-13.64m-.48-.64l-.37 14.72 1.02.14 1.59-14.27-2.24-.59zM43.86 84.33l1.11.95-7.77 7.71 6.66-8.66m-.07-.72L36.04 93.7l.48.69 9.2-9.13-1.93-1.65z"/><path style="fill:#504f4f" d="M28.13 102.97c-.53-.35-1.08-.73-1.47-1.29-.4-.55-.64-1.26-.6-1.97.04-1.37.86-2.74 2.11-3.22-.42.5-.72 1.03-.95 1.57s-.37 1.11-.43 1.68c-.04.56.07 1.12.33 1.65.24.56.64 1.04 1.01 1.58z"/><linearGradient id="alh" x1="37.167" x2="42.249" y1="24.019" y2="36.039" gradientTransform="scale(1 -1) rotate(-10.177 -653.827 -1.03)" gradientUnits="userSpaceOnUse"><stop offset="0" style="stop-color:#616161"/><stop offset=".398" style="stop-color:#2b2d2d"/><stop offset=".951" style="stop-color:#000"/></linearGradient><path style="fill:url(#alh)" d="M32.46 99.12c.82-1.17 2.62-4.41 3.42-4.59.94-.22 1.17.6 1.27 1.19.05.28.13.56.13.56.17-.07.41-.87.46-1.56.08-1.07-.32-1.66-1.08-2.11s-4.1-1.98-4.1-1.98c-1.01-.59-2.2.45-2.62 1.13l-3.26 5c-.42.68-.22 1.57.45 1.99 0 0 1.88 1.27 2.92 1.83 1.18.61 1.59-.29 2.41-1.46z"/><path style="fill:#757575" d="M30.04 91.99c.61-.72 1.15-1.51 2.17-1.02 1.01.48 2.64 1.33 3.83 1.95.94.49 1.59.88 1.69 2 .13-1.53-.49-1.99-1.06-2.33-.76-.45-4.1-1.98-4.1-1.98-.14-.08-.28-.11-.41-.15-.91-.26-1.84.7-2.21 1.28l-3.26 5c-.02.03-.03.06-.04.09.61-.48 3.39-4.84 3.39-4.84z"/><path style="fill:#504f4f" d="M28.58 103.05c-.17-.6-.17-1.28.15-1.91.15-.32.42-.59.73-.79.31-.22.67-.3 1.01-.37h.05c.39-.03.8.02 1.21.18.4.17.8.51.97.94.18.42.17.86.07 1.24-.1.37-.27.75-.6.96.09-.35.05-.7.01-1.01-.05-.31-.14-.59-.28-.79-.26-.39-.76-.55-1.39-.61h.05c-.51.04-.97.19-1.31.59-.33.4-.55.97-.67 1.57z"/><path style="fill:#504f4f" d="M27.13 98.73s1.9 1.24 2.95 1.8c1.18.63 1.68.42 2.49-.75.82-1.17 2.79-4.8 3.59-5.03 1.04-.3 1.02 1.09 1.02 1.09s.52-.77-.16-1.86c-.19-.31-1.24-.79-2.21.41-.59.73-2.72 4.04-3.54 5.3-.18.27-.53.35-.81.18l-4-2.45c-.04.51 0 .89.67 1.31z"/><path d="M36.64 106.08s-.01.01-.01.02c.01-.01.01-.02.01-.02z"/><path style="fill:#504f4f" d="M34.37 99.8s-.47-1.81-1.18-2.48l.92-1.08c.69.77 1.09 2.28 1.06 2.85-.03.41-.8.71-.8.71z"/><ellipse transform="rotate(-79.823 19.934 107.29)" style="fill:#504f4f" cx="19.94" cy="107.29" rx="1.54" ry=".69"/><ellipse transform="rotate(-77.074 23.686 110.313)" style="fill:#504f4f" cx="23.69" cy="110.32" rx="1.54" ry=".77"/><path style="fill:#f4c20d" d="M32.24 78.38l6.44 2.05c.66.04 1.89 1 2.4 1.43l4.36 3.33 3.35-5.27-7.99-.14c-.69-.09-.72-.35-1.3-.72l-2.77-3.75-4.49 3.07z"/><path style="fill:#795548" d="M36.67 75.64l2.42 3.13c.6.78 1.51 1.22 2.46 1.23l6.43.37-2.45 4.45-5.33-3.94c-.53-.43-1.17-.72-1.84-.85l-5.52-1.7 3.83-2.69m.1-.69l-5.06 3.55 6.52 2.01c.6.11 1.17.37 1.65.76l5.81 4.29 3.11-5.65-7.22-.42c-.82 0-1.59-.39-2.09-1.04l-2.72-3.5z"/><linearGradient id="ali" x1="54.497" x2="65.997" y1="68.449" y2="89.699" gradientTransform="scale(1 -1) rotate(1.026 7214.103 18.342)" gradientUnits="userSpaceOnUse"><stop offset=".25" style="stop-color:#ffa000"/><stop offset=".357" style="stop-color:#fda703"/><stop offset=".74" style="stop-color:#f6bb0a"/><stop offset="1" style="stop-color:#f4c20d"/></linearGradient><path style="fill:url(#ali)" d="M45.43 44.64c22.75 9.68 44.83 34.68 44.83 34.68s5.83.85 10.49-1.73c5.6-3.1 16.55-16.12 19.11-18.27 4.59-3.87 2.74-12.65-.2-16.03-2.46-2.84-16.84-16.47-43.84-25.59-22.53-7.61-35.18-6.42-41.78-5.46-6.04.88-8.53 1.31-16.95 5.3C.92 25.2 5.99 35.13 5.99 35.13s12.7-1.87 39.44 9.51z"/><linearGradient id="alj" x1="42.918" x2="24.418" y1="105.994" y2="88.244" gradientTransform="scale(1 -1) rotate(1.026 7214.103 18.342)" gradientUnits="userSpaceOnUse"><stop offset="0" style="stop-color:#db3236"/><stop offset="1" style="stop-color:#b71c1c"/></linearGradient><path style="fill:url(#alj)" d="M65.67 14.66c-7.68-1.98-13.91-2.81-18.94-3.05-.47.15-.95.32-1.45.49-15.3 5.23-24.8 12.1-27.9 15.83-1.27 1.53-2.55 6.19-2.29 7.61 4.69.65 11.21 2.05 19.64 4.97l7.99-2.99L66.95 17.6l-1.28-2.94z"/><linearGradient id="alk" x1="58.736" x2="35.486" y1="105.985" y2="86.235" gradientTransform="scale(1 -1) rotate(1.026 7214.103 18.342)" gradientUnits="userSpaceOnUse"><stop offset="0" style="stop-color:#3cba54"/><stop offset="1" style="stop-color:#388e3c"/></linearGradient><path style="fill:url(#alk)" d="M75.82 17.69c-4.56-1.54-8.71-2.72-12.49-3.61-2.79.84-7.07 2.32-12.32 4.81-9.51 4.5-18.18 10.3-19.72 13.16-1.53 2.86-2.02 6.68-2.02 6.68 4.66 1.4 10.04 3.3 16.15 5.9.71.3 1.43.62 2.14.96L60.6 31.64l17.98-12.99c-.9-.32-1.82-.64-2.76-.96z"/><linearGradient id="all" x1="104.175" x2="71.922" y1="93.444" y2="67.194" gradientTransform="scale(1 -1) rotate(1.026 7214.103 18.342)" gradientUnits="userSpaceOnUse"><stop offset="0" style="stop-color:#db3236"/><stop offset="1" style="stop-color:#b71c1c"/></linearGradient><path style="fill:url(#all)" d="M82.26 71.07s2.19-3.34 4.71-6.39c5.38-6.51 29.13-24.85 29.13-24.85-5.54-4.84-9.37-7.58-17.65-12.18l-28 15.57-7.94 8.52.05 2.79c6.5 4.61 15.03 12.18 19.7 16.54z"/><linearGradient id="alm" x1="85.875" x2="59.625" y1="98.765" y2="76.765" gradientTransform="scale(1 -1) rotate(1.026 7214.103 18.342)" gradientUnits="userSpaceOnUse"><stop offset="0" style="stop-color:#3cba54"/><stop offset="1" style="stop-color:#388e3c"/></linearGradient><path style="fill:url(#alm)" d="M85.27 21.26L56.96 35.9l-6.84 10.95c6.84 3.52 13.99 8.68 19.84 13.38 0 0 .99-4.18 4.25-7.74 3.64-3.98 18.06-17.74 28.58-22.31-4.82-2.95-10.65-6.04-17.52-8.92z"/><linearGradient id="aln" x1="71.647" x2="48.654" y1="102.044" y2="82.052" gradientTransform="scale(1 -1) rotate(1.026 7214.103 18.342)" gradientUnits="userSpaceOnUse"><stop offset="0" style="stop-color:#4885ed"/><stop offset="1" style="stop-color:#1565c0"/></linearGradient><path style="fill:url(#aln)" d="M76.69 17.99c-3.91 1.04-11.73 3.42-17.86 7.13-8.53 5.15-14.63 9.51-16.1 12.39s-1.86 5.26-1.86 5.26l.01.01c1.47.58 2.98 1.2 4.55 1.86 3.91 1.66 7.79 3.79 11.56 6.15 0 0 1.83-3.79 4.32-6.75 3.43-4.07 17.77-16.8 28.96-20.56-4.1-1.92-8.62-3.78-13.58-5.49z"/><radialGradient id="alo" cx="43.402" cy="71.904" r="108.98" gradientTransform="matrix(.9085 .4178 .1611 -.3504 -7.613 63.16)" gradientUnits="userSpaceOnUse"><stop offset=".166" style="stop-color:#212121;stop-opacity:.9566"/><stop offset=".553" style="stop-color:#212121;stop-opacity:0"/></radialGradient><path style="fill:url(#alo)" d="M69.79 27.64c-18.7-9.99-35-12.72-45.29-13.27-2.59.91-5.1 2.04-7.58 3.23-4.08 1.96-8.3 4.69-10.45 8.84-1.1 2.13-1.53 4.58-1.05 6.94.08.39.18 1.3.49 1.6.26.26.76.07 1.18.05 5.18-.24 10.46.73 15.48 1.9 5.89 1.37 11.66 3.27 17.3 5.45 5.71 2.2 11.21 4.75 16.4 8 5.56 3.48 10.82 7.43 15.83 11.67 4.63 3.91 9.16 7.94 13.42 12.26 1.41 1.43 2.8 2.88 4.15 4.36.63.69.74.68 1.72.74 4.43.25 8.52-.89 11.98-3.67 3.34-2.68 6.33-5.82 9.27-8.93.75-.79 1.48-1.59 2.22-2.4-7.5-8.85-23.05-25.01-45.07-36.77z"/><radialGradient id="alp" cx="58.536" cy="87.42" r="99.701" gradientTransform="matrix(.9523 .3052 .0927 -.2892 -5.312 47.998)" gradientUnits="userSpaceOnUse"><stop offset=".657" style="stop-color:#ffecb4;stop-opacity:.0338"/><stop offset="1" style="stop-color:#fff9c4"/></radialGradient><path style="opacity:.8;fill:url(#alp);enable-background:new" d="M69.79 22.83c18.16 8.39 31.07 15.78 40.37 23.29 6.43 5.19 5.93 16.21 5.93 16.21 7.23-4.95 7.05-9.99 6-14.01-.47-1.79-1.21-3.63-2.44-5.04-3.11-3.59-7.15-6.66-11.02-9.39-4.57-3.22-9.5-6-14.48-8.52-10.25-5.2-21.24-9.18-32.47-11.66-5.84-1.29-11.8-2.13-17.78-2.18-4.66-.03-9.31.49-13.89 1.34-4.61.86-13.43 4.91-13.59 4.99 0 0 7.75-2.57 14.9-2.02 15.27 1.16 27.04 1.71 38.47 6.99z"/></svg><svg viewBox="0 0 128 128" id="2708" xmlns="http://www.w3.org/2000/svg"><path fill="#757575" d="M40.76 37.49l-.6-.6c-.91-.91-.91-2.39 0-3.3l7.78-7.78c.91-.91 2.39-.91 3.3 0l.6.6c.91.91.91 2.39 0 3.3l-7.78 7.78c-.9.91-2.39.91-3.3 0zM58.88 39.44l-.6-.6c-.91-.91-.91-2.39 0-3.3l7.78-7.78c.91-.91 2.39-.91 3.3 0l.6.6c.91.91.91 2.39 0 3.3l-7.78 7.78c-.9.91-2.39.91-3.3 0zM90.52 87.45l.6.6c.91.91 2.39.91 3.3 0l7.78-7.78c.91-.91.91-2.39 0-3.3l-.6-.6c-.91-.91-2.39-.91-3.3 0l-7.78 7.78c-.91.91-.91 2.39 0 3.3zM88.57 69.33l.6.6c.91.91 2.39.91 3.3 0l7.78-7.78c.91-.91.91-2.39 0-3.3l-.6-.6c-.91-.91-2.39-.91-3.3 0l-7.78 7.78c-.91.91-.91 2.39 0 3.3z"/><path fill="#039BE5" d="M80.18 35.89s-57.46-6.54-64.36-6.54c-5.72 0-8.99 4.81-8.99 4.81s32.85 7.86 43.39 10.37 16.05 5.25 16.05 5.25l13.91-13.89z"/><path fill="#424242" d="M15.82 31.71c5.56 0 47.5 4.63 61.91 6.24l-9.58 9.73c-2.82-1.12-9.33-3.53-17.38-5.45-8.18-1.95-29.79-7.12-39.06-9.34 1.1-.66 2.49-1.18 4.11-1.18m0-2.36c-5.72 0-8.99 4.81-8.99 4.81s32.85 7.86 43.39 10.37 18.5 5.94 18.5 5.94l14.11-14.32c.01-.01-60.11-6.8-67.01-6.8z" opacity=".2"/><path fill="#039BE5" d="M91.9 47.6s6.54 57.46 6.54 64.36c0 5.72-4.81 8.99-4.81 8.99S85.77 88.1 83.26 77.56s-5.25-16.05-5.25-16.05L91.9 47.6zM46.6 112.21l-2.43 2.95c-.87 1.05-2.45.92-3.15-.27l-8.88-15.1c-.47-.8-.36-1.84.26-2.52l8.1-8.73c1.12-1.21 3.08-.56 3.34 1.11l3.21 20.88c.09.61-.07 1.22-.45 1.68z"/><path fill="#424242" d="M41.62 90.81l3.08 19.99-1.95 2.37-8.48-14.43 7.35-7.93m.27-2.89c-.49 0-1 .2-1.39.62l-8.1 8.73c-.63.68-.74 1.72-.26 2.52l8.88 15.1c.38.64 1.02.98 1.67.98.54 0 1.09-.23 1.48-.71l2.43-2.95c.38-.46.55-1.08.45-1.68l-3.21-20.88c-.17-1.08-1.05-1.73-1.95-1.73z" opacity=".2"/><path fill="#039BE5" d="M16.25 81.6l-2.95 2.43c-1.05.87-.92 2.45.27 3.15l15.1 8.88c.8.47 1.84.36 2.52-.26l8.73-8.1c1.21-1.12.56-3.08-1.11-3.34l-20.88-3.21a2.1 2.1 0 00-1.68.45z"/><path fill="#424242" d="M17.66 83.5l19.99 3.08-7.93 7.36-14.42-8.49 2.36-1.95m-.06-2.38c-.49 0-.97.17-1.35.48l-2.95 2.43c-1.05.87-.92 2.45.27 3.15l15.1 8.88c.33.2.71.29 1.08.29.52 0 1.04-.19 1.44-.56l8.73-8.1c1.21-1.12.56-3.08-1.11-3.34l-20.88-3.21c-.11-.01-.22-.02-.33-.02zM89.62 48.28c1.66 14.84 6.45 58.12 6.45 63.68 0 1.62-.52 3.01-1.18 4.11-2.22-9.27-7.39-30.89-9.34-39.06-1.96-8.21-4.8-15.31-6.08-18.3l10.15-10.43m1.79-5.24L76.67 58.2s4.07 8.82 6.59 19.36c2.51 10.54 10.37 43.39 10.37 43.39s4.81-3.28 4.81-8.99c0-6.9-7.03-68.92-7.03-68.92z" opacity=".2"/><linearGradient id="ama" x1="53.522" x2="110.52" y1="76.748" y2="16.998" gradientUnits="userSpaceOnUse"><stop offset=".006" stop-color="#BDBDBD"/><stop offset=".094" stop-color="#C4C4C4"/><stop offset=".421" stop-color="#DBDBDB"/><stop offset=".731" stop-color="#E9E9E9"/><stop offset="1" stop-color="#eee"/></linearGradient><path fill="url(#ama)" d="M113.96 14.01c-3.55-3.55-11.25-2.89-16.95 2.81-5.77 5.77-58.3 60.83-58.3 60.83s-8.97 9.45-6.77 18.38c8.93 2.21 18.38-6.77 18.38-6.77s55.14-52.61 60.83-58.3c5.7-5.7 6.36-13.39 2.81-16.95z"/><path fill="#4FC3F7" d="M110.36 27.3c1.78-1.98 2.56-5.5-.81-8.87s-6.9-2.59-8.87-.81c-.29.26-1.03.81-.84 1.27.17.43 1.01.49 1.38.53 1.91.21 3.62 1.1 4.92 2.42 1.31 1.3 2.21 3.02 2.42 4.92.04.37.1 1.21.53 1.38.46.19 1.01-.55 1.27-.84z"/><path fill="#424242" d="M108.01 13.82c1.89 0 3.5.57 4.54 1.6 2.67 2.67 2.18 9.13-2.81 14.12-5.61 5.61-60.24 57.75-60.79 58.27-.07.07-7.03 6.57-14.07 6.57-.41 0-.82-.02-1.22-.07-.85-7.4 6.42-15.2 6.5-15.28.53-.55 52.58-55.11 58.27-60.79 2.76-2.77 6.34-4.42 9.58-4.42m0-2c-3.51 0-7.61 1.61-10.99 5-5.77 5.77-58.3 60.83-58.3 60.83s-8.97 9.45-6.77 18.38c.98.24 1.96.35 2.94.35 7.95 0 15.44-7.12 15.44-7.12s55.14-52.61 60.83-58.3c5.7-5.7 6.37-13.39 2.81-16.95-1.45-1.44-3.57-2.19-5.96-2.19z" opacity=".2"/><ellipse cx="38.45" cy="89.73" fill="#616161" rx="15.52" ry="2.66" transform="rotate(-45.001 38.45 89.728)"/></svg></svg>