<?xml version="1.0" encoding="utf-8"?><svg viewBox="0 0 128 128" xmlns="http://www.w3.org/2000/svg" xmlns:xlink="http://www.w3.org/1999/xlink"><style>:root>svg{display:none}:root>svg:target{display:block}</style><svg viewBox="0 0 128 128" id="1F1E6" xmlns="http://www.w3.org/2000/svg"><path fill="#40C0E7" d="M115.37 117.77L77.78 17.81a2.242 2.242 0 00-2.1-1.45H52.32c-.94 0-1.77.58-2.1 1.45l-37.59 99.96c-.26.69-.17 1.46.25 2.06s1.1.97 1.84.97h24.64c.96 0 1.82-.62 2.13-1.54l5.7-17.18H80.8l5.71 17.18c.3.92 1.16 1.54 2.13 1.54h24.64a2.236 2.236 0 002.09-3.03zm-61.14-36.9L64 51.45l9.77 29.43H54.23z"/></svg><svg viewBox="0 0 128 128" id="1F1E7" xmlns="http://www.w3.org/2000/svg"><path fill="#40C0E7" d="M93.22 66.17c5.68-5.41 9.19-12.68 9.19-20.7 0-16.63-15.01-30.15-33.46-30.15H31.08c-1.24 0-2.24 1-2.24 2.24v100.96c0 1.24 1 2.24 2.24 2.24H73.7c18.46 0 33.47-13.53 33.47-30.16 0-10.05-5.52-18.95-13.95-24.43zM67.4 56.82H53.41c-.21 0-.36-.14-.44-.33-.03-.06-.08-.12-.08-.19V36c0-.07.05-.13.08-.19.08-.18.23-.33.44-.33H67.4c5.61 0 10.18 4.78 10.18 10.66 0 5.89-4.57 10.68-10.18 10.68zm.85 44.48H53.49c-.04 0-.07-.04-.11-.05-.22-.06-.4-.23-.4-.47V77.14c0-.24.18-.41.4-.47.05-.01.07-.05.11-.05h14.75c.28 0 .56.02.83.05 5.84.47 10.46 5.79 10.46 12.29 0 6.48-4.6 11.8-10.43 12.29-.27.02-.56.05-.85.05z"/></svg><svg viewBox="0 0 128 128" id="1F1E8" xmlns="http://www.w3.org/2000/svg"><path fill="#40C0E7" d="M111.21 107.69L99.92 85.46c-.16-.32-.46-.55-.81-.63s-.71.01-.99.23c-6.32 5.01-17.18 8.79-25.27 8.79-15.63 0-26.55-10.58-26.55-25.73s10.92-25.73 26.55-25.73c8.46 0 17.14 2.72 22.64 7.11.27.22.64.3.98.24.34-.07.64-.29.81-.6l12.52-22.81c.28-.51.15-1.15-.31-1.51-9.47-7.5-21.49-11.15-36.75-11.15-32.5 0-56.08 22.91-56.08 54.46 0 31.56 23.58 54.46 56.08 54.46 14.87 0 27.72-4.52 38.18-13.45.42-.36.54-.96.29-1.45z"/></svg><svg viewBox="0 0 128 128" id="1F1E9" xmlns="http://www.w3.org/2000/svg"><path fill="#40C0E7" d="M65.71 15.31h-43.6c-1.25 0-2.24 1-2.24 2.24v100.96c0 1.24 1 2.24 2.24 2.24H65.7c30.15 0 50.43-21.19 50.43-52.73 0-31.53-20.27-52.71-50.42-52.71zm-1.29 80.8c-.28 0-.54-.07-.79-.16-.06.01-.11.03-.17.03-.08.01-.14.04-.22.04h-14.7c-1.2 0-2.16-.97-2.16-2.16V42.19c0-1.19.96-2.16 2.16-2.16h14.7c.08 0 .14.03.22.04.05 0 .11.02.17.03.25-.09.51-.16.79-.16.43 0 .86.04 1.29.06.75.03 1.5.09 2.24.18 13.11 1.63 21.69 12.39 21.69 27.84s-8.59 26.21-21.69 27.84c-.74.09-1.49.15-2.24.18-.43.03-.86.07-1.29.07z"/></svg><svg viewBox="0 0 128 128" id="1F1EA" xmlns="http://www.w3.org/2000/svg"><path fill="#40C0E7" d="M98.89 36.51c1.23 0 2.24-1 2.24-2.24V17.55c0-1.24-1.01-2.24-2.24-2.24H29.1c-1.24 0-2.24 1-2.24 2.24v100.97c0 1.24 1 2.24 2.24 2.24h69.8c1.23 0 2.24-1 2.24-2.24V101.8c0-1.24-1.01-2.24-2.24-2.24H53.24V77.51h35.12c1.23 0 2.24-1 2.24-2.24V58.55c0-1.24-1.01-2.24-2.24-2.24H53.24v-19.8h45.65z"/></svg><svg viewBox="0 0 128 128" id="1F1EB" xmlns="http://www.w3.org/2000/svg"><path fill="#40C0E7" d="M101.15 15.54H34.86c-1.23 0-2.24 1-2.24 2.24v100.97c0 1.24 1.01 2.24 2.24 2.24h21.89c1.24 0 2.24-1 2.24-2.24v-44H94.1c1.24 0 2.24-1 2.24-2.24V55.79c0-1.24-1-2.24-2.24-2.24H58.99v-16.8h42.16c1.24 0 2.24-1 2.24-2.24V17.78c0-1.24-1-2.24-2.24-2.24z"/></svg><svg viewBox="0 0 128 128" id="1F1EC" xmlns="http://www.w3.org/2000/svg"><path fill="#40C0E7" d="M116.6 62.86H73.98c-.66 0-1.19.53-1.19 1.19v17.83c0 .31.12.62.35.84.22.22.52.35.84.35l13.81-.02C86.74 91.44 77.24 98.3 66.3 98.3 49.43 98.3 39 82.8 39 68.43c0-14.13 10.21-28.75 27.3-28.75 7.41 0 16.95 4.43 21.88 8.71.24.21.55.3.86.29.32-.02.62-.17.82-.41l15.85-18.29a1.2 1.2 0 00-.09-1.66c-10.14-9.4-23.74-14.37-39.32-14.37-32.5 0-56.09 22.91-56.09 54.47 0 31.57 23.59 54.48 56.09 54.48 49.01 0 51.49-49.04 51.49-58.87 0-.64-.53-1.17-1.19-1.17z"/></svg><svg viewBox="0 0 128 128" id="1F1ED" xmlns="http://www.w3.org/2000/svg"><path fill="#40C0E7" d="M109.48 16.34H84.84c-1.28 0-2.33 1.04-2.33 2.33v36.27H45.5V18.68c0-1.29-1.04-2.33-2.34-2.33H18.53a2.34 2.34 0 00-2.34 2.33v99.96c0 1.29 1.05 2.33 2.34 2.33h24.63a2.34 2.34 0 002.34-2.33V76.15h37.02v42.48c0 1.29 1.05 2.33 2.33 2.33h24.64c1.29 0 2.33-1.05 2.33-2.33V18.68a2.35 2.35 0 00-2.34-2.34z"/></svg><svg viewBox="0 0 128 128" id="1F1EE" xmlns="http://www.w3.org/2000/svg"><path fill="#40C0E7" d="M76.32 16.27H51.68c-1.29 0-2.33 1.05-2.33 2.33v99.96c0 1.29 1.04 2.33 2.33 2.33h24.64c1.29 0 2.33-1.04 2.33-2.33V18.6c0-1.28-1.04-2.33-2.33-2.33z"/></svg><svg viewBox="0 0 128 128" id="1F1EF" xmlns="http://www.w3.org/2000/svg"><path fill="#40C0E7" d="M100.08 16.44H75.44c-1.24 0-2.24 1-2.24 2.24v45.53c.31 10.84-.18 23.69-1.52 25.89-.1.13-.2.28-.27.43-1.6 3.33-6.9 6.78-12.99 6.78-6.33 0-13.78-5.46-15.94-11.68a2.24 2.24 0 00-2.79-1.41l-20.47 6.41c-1.06.33-1.7 1.38-1.53 2.48.01.07.03.14.04.2 2.32 17.58 18.94 29.38 41.46 29.38 22.53 0 39.16-11.81 41.48-29.4.02-.1.04-.19.05-.29 1.56-15.02 1.58-28.71 1.58-28.85V18.68c.02-1.23-.98-2.24-2.22-2.24z"/></svg><svg viewBox="0 0 128 128" id="1F1F0" xmlns="http://www.w3.org/2000/svg"><path fill="#40C0E7" d="M110.55 117.41L76.92 63.69l29.73-44.82c.45-.69.5-1.57.1-2.3a2.222 2.222 0 00-1.97-1.18H80.34c-.74 0-1.45.38-1.86 1L51.49 57.08V17.64c0-1.24-1.01-2.24-2.24-2.24h-21.9c-1.24 0-2.24 1-2.24 2.24V118.6c0 1.24 1 2.24 2.24 2.24h21.9c1.23 0 2.24-1 2.24-2.24V70.55l30.82 49.24c.41.65 1.13 1.05 1.9 1.05h24.44c.81 0 1.57-.44 1.96-1.16.39-.71.37-1.58-.06-2.27z"/></svg><svg viewBox="0 0 128 128" id="1F1F1" xmlns="http://www.w3.org/2000/svg"><path fill="#40C0E7" d="M102.89 99.51H57.24v-82c0-1.24-1-2.24-2.24-2.24H33.11c-1.24 0-2.24 1-2.24 2.24v100.96c0 1.24 1 2.24 2.24 2.24h69.79c1.24 0 2.24-1 2.24-2.24v-16.72a2.251 2.251 0 00-2.25-2.24z"/></svg><svg viewBox="0 0 128 128" id="1F1F2" xmlns="http://www.w3.org/2000/svg"><path fill="#40C0E7" d="M111.53 18.49c-.01-.01-.01-.03-.02-.04-.02-.25-.1-.5-.2-.74-.03-.06-.06-.11-.09-.17-.04-.07-.07-.14-.11-.21-.08-.12-.19-.23-.29-.33-.03-.02-.04-.05-.07-.07-.18-.17-.4-.29-.63-.4a1.22 1.22 0 01-.17-.07 2.56 2.56 0 00-.78-.14h-22.3c-.31 0-.59.07-.87.18-.08.03-.14.07-.23.11-.19.11-.37.23-.53.38-.03.04-.09.06-.13.1-.03.03-.04.07-.05.1-.16.19-.28.4-.38.64-.02.04-.05.08-.07.13 0 .01-.01.02-.01.03L64 85.16 43.39 17.99c0-.01-.01-.02-.01-.03-.02-.05-.05-.09-.07-.13a2.38 2.38 0 00-.37-.64c-.03-.03-.04-.07-.06-.1-.04-.04-.1-.06-.13-.1-.16-.15-.33-.28-.52-.38-.08-.04-.15-.08-.23-.11-.28-.11-.56-.18-.87-.18h-22.3c-.27 0-.52.06-.78.14-.05.02-.11.04-.17.07-.24.11-.45.23-.64.4-.03.03-.04.05-.06.07-.11.11-.21.21-.3.33-.05.07-.07.14-.11.21-.03.06-.07.11-.09.17-.1.24-.17.48-.21.74 0 .01-.01.03-.01.04l-8.45 99.96c-.06.66.17 1.31.61 1.8.45.48 1.09.77 1.74.77h20.91c1.22 0 2.23-.92 2.36-2.14l4.19-42.6 16.15 43.2c.01.01.02.02.03.04.07.19.17.38.29.54l.03.03c.02.04.07.07.09.1.12.13.24.24.37.35l.18.12c.13.08.27.14.4.2a2.254 2.254 0 00.83.17H71.8c.22 0 .44-.04.65-.1.06-.02.12-.04.18-.07.15-.05.28-.12.4-.2.06-.04.12-.08.17-.12.14-.1.25-.22.37-.35.03-.04.07-.07.1-.1 0-.01.02-.02.03-.03.12-.17.22-.35.3-.54 0-.01.01-.02.02-.04l16.15-43.2 4.2 42.61a2.366 2.366 0 002.35 2.14h20.9c.66 0 1.3-.28 1.74-.77.45-.49.67-1.14.62-1.8l-8.45-99.97z"/></svg><svg viewBox="0 0 128 128" id="1F1F3" xmlns="http://www.w3.org/2000/svg"><path fill="#40C0E7" d="M108.54 15.2H86.65c-1.31 0-2.36 1.06-2.36 2.36v62.91L43.35 16.29a2.35 2.35 0 00-1.99-1.09h-21.9c-1.3 0-2.36 1.06-2.36 2.36v100.97c0 1.3 1.06 2.36 2.36 2.36h21.9c1.3 0 2.37-1.06 2.37-2.36V55.61l40.93 64.18c.43.68 1.19 1.09 2 1.09h21.89c1.3 0 2.36-1.06 2.36-2.36V17.56a2.38 2.38 0 00-2.37-2.36z"/></svg><svg viewBox="0 0 128 128" id="1F1F4" xmlns="http://www.w3.org/2000/svg"><path fill="#40C0E7" fill-rule="evenodd" d="M64.01 15.06c-34.13 0-55.46 24.1-55.46 53.82 0 29.73 21.33 53.82 55.46 53.82 34.12 0 55.45-24.1 55.45-53.82-.01-29.73-21.33-53.82-55.45-53.82zm0 81.78c-17.73 0-28.82-12.52-28.82-27.96s11.08-27.96 28.82-27.96c17.73 0 28.81 12.52 28.81 27.96-.01 15.44-11.09 27.96-28.81 27.96z" clip-rule="evenodd"/></svg><svg viewBox="0 0 128 128" id="1F1F5" xmlns="http://www.w3.org/2000/svg"><path fill="#40C0E7" d="M72.51 15.42H34.65c-.15 0-.28.06-.42.08h-6.47c-1.24 0-2.24 1-2.24 2.24v100.97c0 1.24 1 2.24 2.24 2.24h21.9c1.24 0 2.24-1 2.24-2.24V86.63h20.61c19.83 0 35.96-15.97 35.96-35.6.01-19.63-16.13-35.61-35.96-35.61zm-1.72 50.22c-.35.03-.7.06-1.06.06H52.28c-.05 0-.09-.04-.14-.06a.513.513 0 01-.24-.1.577.577 0 01-.21-.43V36.94c0-.18.09-.32.21-.43.06-.06.14-.07.22-.09.06-.02.09-.06.15-.06h17.45c.4 0 .8.03 1.19.06 7.25.63 12.97 6.94 12.97 14.61.01 7.71-5.77 14.05-13.09 14.61z"/></svg><svg viewBox="0 0 128 128" id="1F1F6" xmlns="http://www.w3.org/2000/svg"><path fill="#40C0E7" d="M102.61 107.83c10.8-9.85 16.84-24.08 16.84-39.9 0-29.73-21.33-53.82-55.45-53.82S8.55 38.21 8.55 67.93c0 29.73 21.33 53.82 55.45 53.82 7.69 0 14.72-1.23 21.01-3.47l5.97 8.54a2.079 2.079 0 002.28.81l16.51-4.75c.64-.19 1.16-.67 1.39-1.31.22-.63.13-1.33-.26-1.89l-8.29-11.85zM64 95.89c-17.72 0-28.81-12.52-28.81-27.96S46.27 39.97 64 39.97s28.81 12.52 28.81 27.96c0 6.65-2.07 12.76-5.82 17.56l-7.26-10.38a2.086 2.086 0 00-2.28-.81l-16.52 4.75c-.64.19-1.16.67-1.39 1.31-.22.63-.13 1.33.26 1.89l9.27 13.25c-1.62.24-3.3.39-5.07.39z"/></svg><svg viewBox="0 0 128 128" id="1F1F7" xmlns="http://www.w3.org/2000/svg"><path fill="#40C0E7" d="M110.7 117.03L85.59 83.64c13.01-5.37 22.18-18.08 22.18-32.87 0-19.63-16.13-35.61-35.96-35.61H33.95c-.15 0-.28.06-.42.09h-6.46c-1.24 0-2.24 1-2.24 2.24v100.96c0 1.24 1 2.24 2.24 2.24h21.89c1.24 0 2.24-1 2.24-2.24V86.37h8.64l25.2 33.51c.45.59 1.15.94 1.89.94h21.89c.9 0 1.72-.51 2.11-1.31.4-.8.31-1.76-.23-2.48zM70.12 65.38c-.36.03-.72.06-1.08.06H51.57c-.05 0-.09-.04-.14-.06-.09-.02-.18-.04-.24-.1a.577.577 0 01-.21-.43V36.67c0-.17.08-.32.21-.43.06-.05.14-.07.22-.09.06-.02.1-.07.16-.07h17.46c.42 0 .84.03 1.25.07 7.22.66 12.9 6.96 12.9 14.61.01 7.72-5.76 14.04-13.06 14.62z"/></svg><svg viewBox="0 0 128 128" id="1F1F8" xmlns="http://www.w3.org/2000/svg"><path fill="#40C0E7" d="M94.9 71.35c-8.08-7.63-21.82-13.99-30.91-18.2-1.54-.71-2.93-1.35-4.11-1.92-3.43-1.65-8.12-6.22-6.1-11.47 1.36-3.55 4.81-5.34 10.27-5.34 1.75 0 3.67.2 5.72.58 7.12 1.33 12.52 3.99 15.58 5.5.38.19.82.21 1.22.07.39-.15.72-.45.89-.84l7.01-15.81c.31-.69.07-1.51-.57-1.93-4.94-3.28-17.27-8.15-30.97-8.15-1.98 0-3.95.1-5.87.3-10.92 1.12-21.86 4.03-27.92 17.64-3.78 8.47-3.77 18.01.01 24.89 4.04 7.51 10.66 10.87 19.04 15.11l1.08.55c6.05 3.02 13.3 6.38 18.07 8.59 7.05 3.4 9.66 9.44 8.04 13.08-2.61 5.87-8.38 7.16-18.36 4.33-8.81-2.39-16.94-9.14-19.21-11.15-.34-.3-.79-.44-1.25-.38-.45.06-.85.32-1.1.69L24.6 104.14c-.41.63-.32 1.46.22 1.98 5.63 5.43 10.22 8.59 18.17 12.5 5.35 2.63 13.18 4.21 20.95 4.21 8.12 0 27.95-1.88 36.65-19.26 5.55-11.12 3.48-22.84-5.69-32.22z"/></svg><svg viewBox="0 0 128 128" id="1F1F9" xmlns="http://www.w3.org/2000/svg"><path fill="#40C0E7" d="M111.84 15.36H16.16c-1.24 0-2.24 1-2.24 2.24v17.99c0 1.24 1 2.24 2.24 2.24h34.65v80.73c0 1.24 1 2.24 2.24 2.24h21.9c1.24 0 2.24-1 2.24-2.24V37.83h34.65c1.24 0 2.24-1 2.24-2.24V17.6c0-1.24-1-2.24-2.24-2.24z"/></svg><svg viewBox="0 0 128 128" id="1F1FA" xmlns="http://www.w3.org/2000/svg"><path fill="#40C0E7" d="M109.05 16.65H84.42c-1.24 0-2.24 1-2.24 2.24v49.74c0 .07-.1 6.96-.36 11.03C80.24 89.6 74.73 94.04 64 94.04s-16.23-4.43-17.79-14.17c-.29-4.28-.38-11.17-.38-11.21V18.89c0-1.24-1.01-2.24-2.24-2.24H18.95c-1.23 0-2.24 1-2.24 2.24v49.76c0 .32.02 7.82 1.09 16.76 1.64 10.26 7 19.63 11.59 24.37 2.99 3.07 14.3 13.11 34.61 13.11 20.32 0 31.62-10.04 34.61-13.11 4.59-4.73 9.95-14.1 11.6-24.45 1.08-8.87 1.09-16.37 1.09-16.68V18.89a2.251 2.251 0 00-2.25-2.24z"/></svg><svg viewBox="0 0 128 128" id="1F1FB" xmlns="http://www.w3.org/2000/svg"><path fill="#40C0E7" d="M114.75 17.2a2.375 2.375 0 00-1.94-1.01H90.5c-.98 0-1.86.6-2.21 1.51L64 81.01 39.71 17.7a2.365 2.365 0 00-2.21-1.51H15.2a2.364 2.364 0 00-2.22 3.18l36.95 99.96c.01 0 .01 0 .01.01.06.18.16.35.27.51.02.02.04.04.05.06.04.06.1.11.14.16.1.11.2.21.32.31.06.05.12.09.19.13.13.08.26.14.4.2.07.02.13.05.19.07.21.06.43.1.66.1h23.71c.23 0 .45-.04.65-.1.07-.02.13-.05.2-.07.14-.06.27-.12.4-.2.07-.04.13-.08.19-.13.12-.09.22-.19.32-.31.05-.05.1-.1.14-.16.02-.02.04-.03.05-.06.11-.16.2-.33.27-.51v-.01l36.95-99.96c.25-.73.15-1.54-.29-2.17z"/></svg><svg viewBox="0 0 128 128" id="1F1FC" xmlns="http://www.w3.org/2000/svg"><path fill="#40C0E7" d="M127.29 16.43a2.42 2.42 0 00-1.87-.91h-24.79c-1.14 0-2.12.8-2.33 1.92l-9.58 48.68-13.47-48.86c-.08-.29-.22-.54-.39-.77-.01-.01-.01-.04-.03-.05-.03-.04-.08-.05-.11-.09-.17-.2-.37-.36-.6-.49-.08-.04-.15-.09-.23-.12-.29-.13-.6-.22-.94-.22H55.04c-.33 0-.65.09-.94.22-.08.04-.15.08-.23.12-.23.13-.43.29-.6.49-.04.04-.08.05-.11.09-.01.02-.01.04-.03.05-.17.23-.31.49-.39.77L39.29 66.12 29.7 17.44a2.386 2.386 0 00-2.33-1.92H2.59c-.73 0-1.43.34-1.87.91-.46.57-.62 1.33-.45 2.03l24.79 100.45c.01.03.04.06.04.1.06.19.13.36.23.53.03.05.05.1.09.15.02.03.03.06.06.09.12.16.25.29.41.42.02.02.05.03.08.05.16.12.34.22.53.29.05.02.11.04.17.06.22.07.46.12.7.12h19.78c.33 0 .63-.08.92-.21.08-.04.15-.08.23-.12.2-.12.39-.26.55-.44.04-.04.1-.06.14-.1.02-.03.02-.06.04-.09.19-.25.34-.52.42-.83L64 62.33l14.55 56.61c.08.31.23.58.42.83.02.03.02.06.05.09.03.04.09.06.13.1.16.18.34.32.55.44.08.04.15.09.23.12.29.12.59.21.92.21h19.78c.24 0 .47-.05.7-.12.06-.02.11-.04.18-.06.18-.07.36-.17.53-.29.03-.02.05-.03.08-.05.15-.12.29-.26.41-.42.02-.03.03-.06.06-.09.03-.05.05-.1.09-.15.09-.17.17-.34.23-.53.01-.03.04-.06.04-.1l24.79-100.45c.16-.71 0-1.47-.45-2.04z"/></svg><svg viewBox="0 0 128 128" id="1F1FD" xmlns="http://www.w3.org/2000/svg"><path fill="#40C0E7" d="M114.31 117.18L81.14 68.9l33-49.02c.48-.73.54-1.66.12-2.43a2.357 2.357 0 00-2.08-1.25H84.33c-.78 0-1.51.38-1.95 1.03L64 43.97 45.62 17.22a2.373 2.373 0 00-1.95-1.03H15.83c-.87 0-1.68.48-2.08 1.25-.42.77-.36 1.71.12 2.43L46.86 68.9l-33.17 48.28c-.49.72-.55 1.66-.14 2.44.41.77 1.22 1.26 2.09 1.26H44.9c.79 0 1.52-.39 1.96-1.04L64 94.36l17.15 25.48c.44.65 1.17 1.04 1.96 1.04h29.25c.88 0 1.68-.49 2.1-1.26.4-.78.35-1.72-.15-2.44z"/></svg><svg viewBox="0 0 128 128" id="1F1FE" xmlns="http://www.w3.org/2000/svg"><path fill="#40C0E7" d="M114.89 16.69a2.36 2.36 0 00-2.09-1.25H90.5c-.77 0-1.5.38-1.94 1.02L64 51.74 39.43 16.45a2.346 2.346 0 00-1.94-1.02h-22.3c-.87 0-1.67.48-2.08 1.25s-.36 1.71.12 2.43l36.58 54.56v44.58c0 1.29 1.05 2.33 2.34 2.33h23.71c1.29 0 2.34-1.04 2.34-2.33V73.68l36.57-54.56c.48-.72.53-1.66.12-2.43z"/></svg><svg viewBox="0 0 128 128" id="1F1FF" xmlns="http://www.w3.org/2000/svg"><path fill="#40C0E7" d="M108.91 99.71H62.6l48.33-79.77c.44-.73.46-1.64.04-2.39-.42-.74-1.21-1.2-2.06-1.2H81.06c-.25 0-.49.05-.71.13H19.09c-1.24 0-2.24 1-2.24 2.24v16.72c0 1.24 1.01 2.24 2.24 2.24h47.43l-49.44 79.75c-.45.73-.47 1.65-.06 2.4.42.75 1.21 1.21 2.07 1.21h29.25c.25 0 .49-.05.72-.12h59.84c1.23 0 2.24-1 2.24-2.24v-16.72c.01-1.25-1-2.25-2.23-2.25z"/></svg></svg>