<?xml version="1.0" encoding="utf-8"?>
<!-- Generator: Adobe Illustrator 24.0.3, SVG Export Plug-In . SVG Version: 6.00 Build 0)  -->
<svg version="1.1" id="Layer_1" xmlns="http://www.w3.org/2000/svg" xmlns:xlink="http://www.w3.org/1999/xlink" x="0px" y="0px"
	 viewBox="0 0 128 128" style="enable-background:new 0 0 128 128;" xml:space="preserve">
<linearGradient id="SVGID_1_" gradientUnits="userSpaceOnUse" x1="64.005" y1="102.5" x2="64.005" y2="24.72" gradientTransform="matrix(1 0 0 -1 0 128)">
	<stop  offset="0" style="stop-color:#757575"/>
	<stop  offset="0.5148" style="stop-color:#504F4F"/>
</linearGradient>
<path style="fill:url(#SVGID_1_);" d="M65.02,80.77h-7.74c-0.96,0-1.79,0.69-1.97,1.64l-3.4,18.35c-0.18,0.95-1,1.64-1.97,1.64
	h-4.79c-1.25,0-2.19-1.13-1.97-2.36l3.13-16.89c0.23-1.23-0.72-2.36-1.97-2.36h-7.78c-1.1,0-2-0.9-2-2v-4.33c0-1.1,0.9-2,2-2h10.1
	c0.96,0,1.79-0.69,1.97-1.64l2.32-12.56c0.23-1.23-0.72-2.36-1.97-2.36h-8.41c-1.1,0-2-0.9-2-2v-4.33c0-1.1,0.9-2,2-2h10.74
	c0.96,0,1.79-0.69,1.97-1.63l3.5-18.67c0.18-0.95,1-1.63,1.97-1.63h4.74c1.25,0,2.2,1.14,1.97,2.37l-3.23,17.2
	c-0.23,1.23,0.71,2.37,1.97,2.37H72c0.96,0,1.79-0.69,1.97-1.63l3.5-18.67c0.18-0.95,1-1.63,1.97-1.63h4.74
	c1.25,0,2.2,1.14,1.97,2.37l-3.23,17.2c-0.23,1.23,0.71,2.37,1.97,2.37h6.56c1.1,0,2,0.9,2,2v4.33c0,1.1-0.9,2-2,2h-8.89
	c-0.96,0-1.79,0.69-1.97,1.64l-2.32,12.56c-0.23,1.23,0.72,2.36,1.97,2.36h7.25c1.1,0,2,0.9,2,2v4.33c0,1.1-0.9,2-2,2H77.9
	c-0.96,0-1.79,0.69-1.97,1.64l-3.4,18.35c-0.18,0.95-1,1.64-1.97,1.64h-4.74c-1.25,0-2.19-1.13-1.97-2.36l3.13-16.89
	C67.22,81.9,66.27,80.77,65.02,80.77z M59.6,72.44h7.75c0.96,0,1.79-0.69,1.97-1.64l2.32-12.56c0.23-1.23-0.72-2.36-1.97-2.36h-7.75
	c-0.96,0-1.79,0.69-1.97,1.64l-2.32,12.56C57.41,71.3,58.35,72.44,59.6,72.44z"/>
</svg>
 1.79-0.69 1.97-1.64l2.32-12.56c0.23-1.23-0.72-2.36-1.97-2.36h-8.41c-1.1 0-2-0.9-2-2v-4.33c0-1.1 0.9-2 2-2h10.74c0.96 0 1.79-0.69 1.97-1.63l3.5-18.67c0.18-0.95 1-1.63 1.97-1.63h4.74c1.25 0 2.2 1.14 1.97 2.37l-3.23 17.2c-0.23 1.23 0.71 2.37 1.97 2.37h7.8c0.96 0 1.79-0.69 1.97-1.63l3.5-18.67c0.18-0.95 1-1.63 1.97-1.63h4.73m-24.56 46.77h7.75c0.96 0 1.79-0.69 1.97-1.64l2.32-12.56c0.23-1.23-0.72-2.36-1.97-2.36h-7.75c-0.96 0-1.79 0.69-1.97 1.64l-2.32 12.56c-0.22 1.22 0.72 2.36 1.97 2.36m24.56-49.83h-4.74c-2.4 0-4.47 1.72-4.91 4.08l-3.35 17.86h-5.76l3-16.02c0.27-1.47-0.11-2.97-1.07-4.11-0.95-1.15-2.36-1.81-3.85-1.81h-4.74c-2.4 0-4.47 1.72-4.91 4.08l-3.35 17.86h-9.91c-2.76 0-5 2.24-5 5v4.33c0 2.76 2.24 5 5 5h7.21l-1.95 10.56h-9.27c-2.76 0-5 2.24-5 5v4.33c0 2.76 2.24 5 5 5h6.57l-2.91 15.71c-0.27 1.47 0.12 2.96 1.07 4.11s2.35 1.8 3.84 1.8h4.79c2.41 0 4.48-1.72 4.92-4.09l3.25-17.53h5.71l-2.91 15.71c-0.27 1.47 0.12 2.96 1.07 4.11s2.35 1.8 3.84 1.8h4.74c2.41 0 4.48-1.72 4.92-4.09l3.25-17.53h8.74c2.76 0 5-2.24 5-5v-4.33c0-2.76-2.24-5-5-5h-6.05l1.95-10.56h8.05c2.76 0 5-2.24 5-5v-4.33c0-2.76-2.24-5-5-5h-5.35l3-16.02c0.28-1.47-0.11-2.97-1.07-4.11-0.92-1.15-2.33-1.81-3.82-1.81zm-21.41 36.27h5.71l-1.95 10.56h-5.71l1.95-10.56z" fill="#424242"/></g><path d="m65.02 80.77h-7.74c-0.96 0-1.79 0.69-1.97 1.64l-3.4 18.35c-0.18 0.95-1 1.64-1.97 1.64h-4.79c-1.25 0-2.19-1.13-1.97-2.36l3.13-16.89c0.23-1.23-0.72-2.36-1.97-2.36h-7.78c-1.1 0-2-0.9-2-2v-4.33c0-1.1 0.9-2 2-2h10.1c0.96 0 1.79-0.69 1.97-1.64l2.32-12.56c0.23-1.23-0.72-2.36-1.97-2.36h-8.41c-1.1 0-2-0.9-2-2v-4.33c0-1.1 0.9-2 2-2h10.74c0.96 0 1.79-0.69 1.97-1.63l3.5-18.67c0.18-0.95 1-1.63 1.97-1.63h4.74c1.25 0 2.2 1.14 1.97 2.37l-3.23 17.2c-0.23 1.23 0.71 2.37 1.97 2.37h7.8c0.96 0 1.79-0.69 1.97-1.63l3.5-18.67c0.18-0.95 1-1.63 1.97-1.63h4.74c1.25 0 2.2 1.14 1.97 2.37l-3.23 17.2c-0.23 1.23 0.71 2.37 1.97 2.37h6.56c1.1 0 2 0.9 2 2v4.33c0 1.1-0.9 2-2 2h-8.89c-0.96 0-1.79 0.69-1.97 1.64l-2.32 12.56c-0.23 1.23 0.72 2.36 1.97 2.36h7.25c1.1 0 2 0.9 2 2v4.33c0 1.1-0.9 2-2 2h-9.59c-0.96 0-1.79 0.69-1.97 1.64l-3.4 18.35c-0.18 0.95-1 1.64-1.97 1.64h-4.74c-1.25 0-2.19-1.13-1.97-2.36l3.13-16.89c0.24-1.29-0.71-2.42-1.96-2.42zm-5.42-8.33h7.75c0.96 0 1.79-0.69 1.97-1.64l2.32-12.56c0.23-1.23-0.72-2.36-1.97-2.36h-7.75c-0.96 0-1.79 0.69-1.97 1.64l-2.32 12.56c-0.22 1.22 0.72 2.36 1.97 2.36z" fill="#FAFAFA"/></svg>
