<svg xmlns="http://www.w3.org/2000/svg" viewBox="0 0 128 128"><linearGradient id="a" x1="5.516" x2="118.82" y1="5.28" y2="119.05" gradientUnits="userSpaceOnUse"><stop offset="0" stop-color="#81D4FA"/><stop offset="1" stop-color="#0094D6"/></linearGradient><path fill="url(#a)" d="M116 124H12c-4.42 0-8-3.58-8-8V12c0-4.42 3.58-8 8-8h104c4.42 0 8 3.58 8 8v104c0 4.42-3.58 8-8 8z"/><path fill="#424242" d="M116 7c2.76 0 5 2.24 5 5v104c0 2.76-2.24 5-5 5H12c-2.76 0-5-2.24-5-5V12c0-2.76 2.24-5 5-5h104m0-3H12c-4.42 0-8 3.58-8 8v104c0 4.42 3.58 8 8 8h104c4.42 0 8-3.58 8-8V12c0-4.42-3.58-8-8-8z" opacity=".2"/><linearGradient id="b" x1="21.247" x2="106.25" y1="20.744" y2="106.74" gradientUnits="userSpaceOnUse"><stop offset="0" stop-color="#C2ECFF"/><stop offset=".157" stop-color="#BDEAFE"/><stop offset=".348" stop-color="#AEE3FA"/><stop offset=".558" stop-color="#95D7F5"/><stop offset=".779" stop-color="#73C7ED"/><stop offset="1" stop-color="#49B3E3"/></linearGradient><path fill="url(#b)" d="M101 109H27c-4.42 0-8-3.58-8-8V27c0-4.42 3.58-8 8-8h74c4.42 0 8 3.58 8 8v74c0 4.42-3.58 8-8 8z"/><path fill="#424242" d="M84.16 25.61c1.25 0 2.2 1.14 1.97 2.37l-3.23 17.2a2 2 0 0 0 1.97 2.37h6.56c1.1 0 2 .9 2 2v4.33c0 1.1-.9 2-2 2h-8.89c-.96 0-1.79.69-1.97 1.64l-2.32 12.56c-.23 1.23.72 2.36 1.97 2.36h7.25c1.1 0 2 .9 2 2v4.33c0 1.1-.9 2-2 2H77.9c-.96 0-1.79.69-1.97 1.64l-3.4 18.35c-.18.95-1 1.64-1.97 1.64h-4.74c-1.25 0-2.19-1.13-1.97-2.36l3.13-16.89c.23-1.23-.72-2.36-1.97-2.36h-7.74c-.96 0-1.79.69-1.97 1.64l-3.4 18.35c-.18.95-1 1.64-1.97 1.64h-4.79c-1.25 0-2.19-1.13-1.97-2.36l3.13-16.89c.23-1.23-.72-2.36-1.97-2.36h-7.78c-1.1 0-2-.9-2-2v-4.33c0-1.1.9-2 2-2h10.1c.96 0 1.79-.69 1.97-1.64l2.32-12.56c.23-1.23-.72-2.36-1.97-2.36h-8.41c-1.1 0-2-.9-2-2v-4.33c0-1.1.9-2 2-2H51.3c.96 0 1.79-.69 1.97-1.63l3.5-18.67c.18-.95 1-1.63 1.97-1.63h4.74c1.25 0 2.2 1.14 1.97 2.37l-3.23 17.2a2 2 0 0 0 1.97 2.37h7.8c.96 0 1.79-.69 1.97-1.63l3.5-18.67c.18-.95 1-1.63 1.97-1.63h4.73M59.6 72.44h7.75c.96 0 1.79-.69 1.97-1.64l2.32-12.56c.23-1.23-.72-2.36-1.97-2.36h-7.75c-.96 0-1.79.69-1.97 1.64l-2.32 12.56c-.22 1.22.72 2.36 1.97 2.36m24.56-49.83h-4.74c-2.4 0-4.47 1.72-4.91 4.08l-3.35 17.86H65.4l3-16.02a4.96 4.96 0 0 0-1.07-4.11 4.987 4.987 0 0 0-3.85-1.81h-4.74c-2.4 0-4.47 1.72-4.91 4.08l-3.35 17.86h-9.91c-2.76 0-5 2.24-5 5v4.33c0 2.76 2.24 5 5 5h7.21l-1.95 10.56h-9.27c-2.76 0-5 2.24-5 5v4.33c0 2.76 2.24 5 5 5h6.57l-2.91 15.71c-.27 1.47.12 2.96 1.07 4.11s2.35 1.8 3.84 1.8h4.79c2.41 0 4.48-1.72 4.92-4.09l3.25-17.53h5.71l-2.91 15.71c-.27 1.47.12 2.96 1.07 4.11s2.35 1.8 3.84 1.8h4.74c2.41 0 4.48-1.72 4.92-4.09l3.25-17.53h8.74c2.76 0 5-2.24 5-5v-4.33c0-2.76-2.24-5-5-5H81.4l1.95-10.56h8.05c2.76 0 5-2.24 5-5v-4.33c0-2.76-2.24-5-5-5h-5.35l3-16.02c.28-1.47-.11-2.97-1.07-4.11-.92-1.15-2.33-1.81-3.82-1.81zM62.75 58.88h5.71l-1.95 10.56H60.8l1.95-10.56z" opacity=".2"/><path fill="#FAFAFA" d="M65.02 80.77h-7.74c-.96 0-1.79.69-1.97 1.64l-3.4 18.35c-.18.95-1 1.64-1.97 1.64h-4.79c-1.25 0-2.19-1.13-1.97-2.36l3.13-16.89c.23-1.23-.72-2.36-1.97-2.36h-7.78c-1.1 0-2-.9-2-2v-4.33c0-1.1.9-2 2-2h10.1c.96 0 1.79-.69 1.97-1.64l2.32-12.56c.23-1.23-.72-2.36-1.97-2.36h-8.41c-1.1 0-2-.9-2-2v-4.33c0-1.1.9-2 2-2h10.74c.96 0 1.79-.69 1.97-1.63l3.5-18.67c.18-.95 1-1.63 1.97-1.63h4.74c1.25 0 2.2 1.14 1.97 2.37l-3.23 17.2a2 2 0 0 0 1.97 2.37H72c.96 0 1.79-.69 1.97-1.63l3.5-18.67c.18-.95 1-1.63 1.97-1.63h4.74c1.25 0 2.2 1.14 1.97 2.37l-3.23 17.2a2 2 0 0 0 1.97 2.37h6.56c1.1 0 2 .9 2 2v4.33c0 1.1-.9 2-2 2h-8.89c-.96 0-1.79.69-1.97 1.64l-2.32 12.56c-.23 1.23.72 2.36 1.97 2.36h7.25c1.1 0 2 .9 2 2v4.33c0 1.1-.9 2-2 2H77.9c-.96 0-1.79.69-1.97 1.64l-3.4 18.35c-.18.95-1 1.64-1.97 1.64h-4.74c-1.25 0-2.19-1.13-1.97-2.36l3.13-16.89c.24-1.29-.71-2.42-1.96-2.42zm-5.42-8.33h7.75c.96 0 1.79-.69 1.97-1.64l2.32-12.56c.23-1.23-.72-2.36-1.97-2.36h-7.75c-.96 0-1.79.69-1.97 1.64l-2.32 12.56c-.22 1.22.72 2.36 1.97 2.36z"/></svg>