<svg xmlns="http://www.w3.org/2000/svg" viewBox="0 0 128 128"><linearGradient id="a" x1="64" x2="64" y1="-.333" y2="128.1" gradientUnits="userSpaceOnUse"><stop offset="0" stop-color="#29B6F6"/><stop offset=".537" stop-color="#169FE4"/><stop offset=".995" stop-color="#0288D1"/></linearGradient><path fill="url(#a)" d="M116 124H12c-4.42 0-8-3.58-8-8V12c0-4.42 3.58-8 8-8h104c4.42 0 8 3.58 8 8v104c0 4.42-3.58 8-8 8z"/><path fill="#424242" d="M116 7c2.76 0 5 2.24 5 5v104c0 2.76-2.24 5-5 5H12c-2.76 0-5-2.24-5-5V12c0-2.76 2.24-5 5-5h104m0-3H12c-4.42 0-8 3.58-8 8v104c0 4.42 3.58 8 8 8h104c4.42 0 8-3.58 8-8V12c0-4.42-3.58-8-8-8z" opacity=".2"/><path fill="#424242" d="M64.79 20c9.83 0 17.64 2.56 23.42 7.68s8.67 11.9 8.67 20.33c0 8.63-2.83 15.35-8.49 20.15s-13.59 7.2-23.78 7.2H48.39c-1.09 0-1.98.89-1.98 1.98v28.68c0 1.09-.89 1.98-1.98 1.98H33.1c-1.09 0-1.98-.89-1.98-1.98V21.98c0-1.09.89-1.98 1.98-1.98h31.69m-16.4 43.03h16.4c5.44 0 9.59-1.28 12.45-3.84s4.29-6.26 4.29-11.09c0-4.75-1.45-8.55-4.35-11.39s-6.89-4.3-11.97-4.38H48.39c-1.09 0-1.98.89-1.98 1.98v26.75c0 1.09.89 1.97 1.98 1.97M64.79 17H33.1c-2.74 0-4.98 2.23-4.98 4.98v84.04c0 2.74 2.23 4.98 4.98 4.98h11.34c2.74 0 4.98-2.23 4.98-4.98V78.36H64.6c10.88 0 19.53-2.66 25.72-7.91 6.34-5.38 9.55-12.92 9.55-22.44 0-9.28-3.26-16.88-9.68-22.57-6.32-5.6-14.87-8.44-25.4-8.44zM49.41 35.33h15.8c4.27.07 7.52 1.22 9.87 3.53 2.32 2.27 3.45 5.3 3.45 9.25 0 3.98-1.08 6.87-3.29 8.85-2.28 2.04-5.8 3.07-10.45 3.07H49.41v-24.7z" opacity=".2"/><path fill="#FAFAFA" d="M46.41 77.34v28.68c0 1.09-.89 1.98-1.98 1.98H33.1c-1.09 0-1.98-.89-1.98-1.98V21.98c0-1.09.89-1.98 1.98-1.98h31.69c9.83 0 17.64 2.56 23.42 7.68s8.67 11.9 8.67 20.33c0 8.63-2.83 15.35-8.49 20.15s-13.59 7.2-23.78 7.2H48.39c-1.09 0-1.98.89-1.98 1.98zm0-16.28c0 1.09.89 1.98 1.98 1.98h16.4c5.44 0 9.59-1.28 12.45-3.84s4.29-6.26 4.29-11.09c0-4.75-1.45-8.55-4.35-11.39s-6.89-4.3-11.97-4.38H48.39c-1.09 0-1.98.89-1.98 1.98v26.74z"/></svg>