<svg xmlns="http://www.w3.org/2000/svg" viewBox="0 0 128 128"><linearGradient id="a" x1="64" x2="64" y1="-.333" y2="128.1" gradientUnits="userSpaceOnUse"><stop offset="0" stop-color="#B39DDB"/><stop offset=".371" stop-color="#A286D3"/><stop offset=".995" stop-color="#7E57C2"/></linearGradient><path fill="url(#a)" d="M116 124H12c-4.42 0-8-3.58-8-8V12c0-4.42 3.58-8 8-8h104c4.42 0 8 3.58 8 8v104c0 4.42-3.58 8-8 8z"/><path fill="#424242" d="M116 7c2.76 0 5 2.24 5 5v104c0 2.76-2.24 5-5 5H12c-2.76 0-5-2.24-5-5V12c0-2.76 2.24-5 5-5h104m0-3H12c-4.42 0-8 3.58-8 8v104c0 4.42 3.58 8 8 8h104c4.42 0 8-3.58 8-8V12c0-4.42-3.58-8-8-8z" opacity=".2"/><path fill="#424242" d="M39.98 36c1.1 0 2 .9 2 2v52c0 1.1-.9 2-2 2h-5.69c-1.1 0-2-.9-2-2V38c0-1.1.9-2 2-2h5.69m0-3h-5.69c-2.76 0-5 2.24-5 5v52c0 2.76 2.24 5 5 5h5.69c2.76 0 5-2.24 5-5V38c0-2.76-2.24-5-5-5zm30.5 3c4.95 0 9.34 1.1 13.17 3.31s6.8 5.33 8.9 9.38 3.15 8.69 3.15 13.92v2.81c0 5.31-1.06 9.97-3.17 14-2.12 4.03-5.13 7.13-9.04 9.31-3.9 2.18-8.38 3.27-13.43 3.27H55.94c-1.1 0-2-.9-2-2V38c0-1.1.9-2 2-2h14.54m-4.81 48.15h4.35c5.1 0 9.02-1.59 11.75-4.78s4.12-7.76 4.17-13.72v-3.11c0-6.06-1.32-10.7-3.96-13.9s-6.47-4.8-11.5-4.8h-4.81c-1.1 0-2 .9-2 2v36.31a2 2 0 0 0 2 2M70.48 33H55.94c-2.76 0-5 2.24-5 5v52c0 2.76 2.24 5 5 5h14.11c5.55 0 10.56-1.23 14.9-3.65 4.41-2.46 7.85-6 10.23-10.53 2.33-4.44 3.52-9.62 3.52-15.4v-2.81c0-5.69-1.17-10.84-3.49-15.31-2.36-4.55-5.75-8.12-10.07-10.6-4.27-2.45-9.2-3.7-14.66-3.7zm-3.81 13.85h3.81c4.12 0 7.13 1.21 9.19 3.71 2.17 2.63 3.28 6.67 3.28 11.99v3.11c-.04 5.18-1.21 9.15-3.45 11.77-2.15 2.51-5.25 3.73-9.47 3.73h-3.35V46.85h-.01z" opacity=".2"/><path fill="#FAFAFA" d="M39.98 92h-5.69c-1.1 0-2-.9-2-2V38c0-1.1.9-2 2-2h5.69c1.1 0 2 .9 2 2v52a2 2 0 0 1-2 2zm13.96-2V38c0-1.1.9-2 2-2h14.54c4.95 0 9.34 1.1 13.17 3.31s6.8 5.33 8.9 9.38 3.15 8.69 3.15 13.92v2.81c0 5.31-1.06 9.97-3.17 14-2.12 4.03-5.13 7.13-9.04 9.31-3.9 2.18-8.38 3.27-13.43 3.27H55.94c-1.1 0-2-.9-2-2zm9.73-44.15v36.31c0 1.1.9 2 2 2h4.35c5.1 0 9.02-1.59 11.75-4.78s4.12-7.76 4.17-13.72v-3.11c0-6.06-1.32-10.7-3.96-13.9s-6.47-4.8-11.5-4.8h-4.81a2 2 0 0 0-2 2z"/></svg>