<svg xmlns="http://www.w3.org/2000/svg" viewBox="0 0 128 128"><linearGradient id="a" x1="64" x2="64" y1="2" y2="127.4" gradientUnits="userSpaceOnUse"><stop offset="0" stop-color="#29B6F6"/><stop offset=".537" stop-color="#169FE4"/><stop offset=".995" stop-color="#0288D1"/></linearGradient><path fill="url(#a)" d="M116 124H12c-4.42 0-8-3.58-8-8V12c0-4.42 3.58-8 8-8h104c4.42 0 8 3.58 8 8v104c0 4.42-3.58 8-8 8z"/><path fill="#424242" d="M116 7c2.76 0 5 2.24 5 5v104c0 2.76-2.24 5-5 5H12c-2.76 0-5-2.24-5-5V12c0-2.76 2.24-5 5-5h104m0-3H12c-4.42 0-8 3.58-8 8v104c0 4.42 3.58 8 8 8h104c4.42 0 8-3.58 8-8V12c0-4.42-3.58-8-8-8z" opacity=".2"/><g fill="#424242" opacity=".2"><path d="M34.04 48c1.13 0 2.05.92 2.05 2.05v.39c0 1.13-.92 2.05-2.05 2.05H23.36c-1.13 0-2.05.92-2.05 2.05v5.42c0 1.13.92 2.05 2.05 2.05h8.79c1.13 0 2.05.92 2.05 2.05v.39c0 1.13-.92 2.05-2.05 2.05h-8.79c-1.13 0-2.05.92-2.05 2.05v9.42c0 1.13-.92 2.05-2.05 2.05H17.8c-1.13 0-2.05-.92-2.05-2.05V50.05c0-1.13.92-2.05 2.05-2.05h16.24m0-3H17.8c-2.78 0-5.05 2.26-5.05 5.05v27.91c0 2.78 2.26 5.05 5.05 5.05h1.47c2.78 0 5.05-2.26 5.05-5.05v-8.47h7.83c2.78 0 5.05-2.26 5.05-5.05v-.39c0-2.78-2.26-5.05-5.05-5.05h-7.83v-3.52h9.72c2.78 0 5.05-2.26 5.05-5.05v-.39c0-2.78-2.27-5.04-5.05-5.04z"/><path d="M50.84 48c3.69 0 6.54.83 8.55 2.49s3.01 4.05 3.01 7.19c0 2.14-.52 3.93-1.55 5.38-.7.98-1.58 1.8-2.65 2.47-.9.57-1.19 1.74-.69 2.68l6.21 11.51V80H59c-.76 0-1.46-.42-1.81-1.1l-5.27-10.11c-.35-.68-1.05-1.1-1.81-1.1H47.2c-1.13 0-2.05.92-2.05 2.05v8.22c0 1.13-.92 2.05-2.05 2.05h-1.47c-1.13 0-2.05-.92-2.05-2.05V50.05c0-1.13.92-2.05 2.05-2.05h9.21m-3.65 15.21h3.67c1.88 0 3.34-.47 4.4-1.42 1.05-.95 1.58-2.24 1.58-3.88 0-1.71-.49-3.04-1.46-3.98s-2.43-1.42-4.36-1.45H47.2c-1.13 0-2.05.92-2.05 2.05v6.63c-.01 1.13.91 2.05 2.04 2.05M50.84 45h-9.21c-2.78 0-5.05 2.26-5.05 5.05v27.91c0 2.78 2.26 5.05 5.05 5.05h1.47c2.78 0 5.05-2.26 5.05-5.05V70.7h1.38l5 9.59A5.021 5.021 0 0 0 59 83h7.72v-4.05l-.36-.67-5.79-10.74c1.06-.78 1.98-1.7 2.73-2.74 1.4-1.96 2.11-4.35 2.11-7.12 0-4.06-1.38-7.26-4.1-9.51-2.57-2.1-6.08-3.17-10.47-3.17zm-2.7 10.48h2.87c1.06.02 1.89.23 2.28.61.13.13.54.52.54 1.82 0 .99-.31 1.4-.58 1.64-.48.43-1.29.65-2.39.65h-2.71v-4.72h-.01z"/><path d="M85.49 48c1.13 0 2.05.92 2.05 2.05v.39c0 1.13-.92 2.05-2.05 2.05H74.38c-1.13 0-2.05.92-2.05 2.05v4.74c0 1.13.92 2.05 2.05 2.05h9.05c1.13 0 2.05.92 2.05 2.05v.3c0 1.13-.92 2.05-2.05 2.05h-9.05c-1.13 0-2.05.92-2.05 2.05v5.71c0 1.13.92 2.05 2.05 2.05h11.27c1.13 0 2.05.92 2.05 2.05v.39c0 1.13-.92 2.05-2.05 2.05H68.82c-1.13 0-2.05-.92-2.05-2.05V50.05c0-1.13.92-2.05 2.05-2.05h16.67m0-3H68.82c-2.78 0-5.05 2.26-5.05 5.05v27.91c0 2.78 2.26 5.05 5.05 5.05h16.83c2.78 0 5.05-2.26 5.05-5.05v-.39c0-2.78-2.26-5.05-5.05-5.05H75.33v-3.8h8.1c2.78 0 5.05-2.26 5.05-5.05v-.3c0-2.78-2.26-5.05-5.05-5.05h-8.1v-2.84h10.16c2.78 0 5.05-2.26 5.05-5.05v-.39c0-2.78-2.26-5.04-5.05-5.04z"/><path d="M110.04 48c1.13 0 2.05.92 2.05 2.05v.39c0 1.13-.92 2.05-2.05 2.05H98.93c-1.13 0-2.05.92-2.05 2.05v4.74c0 1.13.92 2.05 2.05 2.05h9.05c1.13 0 2.05.92 2.05 2.05v.3c0 1.13-.92 2.05-2.05 2.05h-9.05c-1.13 0-2.05.92-2.05 2.05v5.71c0 1.13.92 2.05 2.05 2.05h11.27c1.13 0 2.05.92 2.05 2.05v.39c0 1.13-.92 2.05-2.05 2.05H93.37c-1.13 0-2.05-.92-2.05-2.05V50.05c0-1.13.92-2.05 2.05-2.05h16.67m0-3H93.37c-2.78 0-5.05 2.26-5.05 5.05v27.91c0 2.78 2.26 5.05 5.05 5.05h16.83c2.78 0 5.05-2.26 5.05-5.05v-.39c0-2.78-2.26-5.05-5.05-5.05H99.88v-3.8h8.1c2.78 0 5.05-2.26 5.05-5.05v-.3c0-2.78-2.26-5.05-5.05-5.05h-8.1v-2.84h10.16c2.78 0 5.05-2.26 5.05-5.05v-.39c0-2.78-2.26-5.04-5.05-5.04z"/></g><path fill="#FAFAFA" d="M32.15 66.48h-8.79c-1.13 0-2.05.92-2.05 2.05v9.42c0 1.13-.92 2.05-2.05 2.05H17.8c-1.13 0-2.05-.92-2.05-2.05v-27.9c0-1.13.92-2.05 2.05-2.05h16.24c1.13 0 2.05.92 2.05 2.05v.39c0 1.13-.92 2.05-2.05 2.05H23.36c-1.13 0-2.05.92-2.05 2.05v5.42c0 1.13.92 2.05 2.05 2.05h8.79c1.13 0 2.05.92 2.05 2.05v.39c0 1.12-.92 2.03-2.05 2.03zm17.95 1.21h-2.91c-1.13 0-2.05.92-2.05 2.05v8.22c0 1.13-.92 2.05-2.05 2.05h-1.47c-1.13 0-2.05-.92-2.05-2.05V50.05c0-1.13.92-2.05 2.05-2.05h9.21c3.69 0 6.54.83 8.55 2.49s3.01 4.05 3.01 7.19c0 2.14-.52 3.93-1.55 5.38-.7.98-1.58 1.8-2.65 2.47-.9.57-1.19 1.74-.69 2.68l6.21 11.51V80H59c-.76 0-1.46-.42-1.81-1.1l-5.27-10.11c-.36-.67-1.06-1.1-1.82-1.1zm-4.96-6.53c0 1.13.92 2.05 2.05 2.05h3.67c1.88 0 3.34-.47 4.4-1.42 1.05-.95 1.58-2.24 1.58-3.88 0-1.71-.49-3.04-1.46-3.98s-2.43-1.42-4.36-1.45H47.2c-1.13 0-2.05.92-2.05 2.05v6.63zm38.29 4.55h-9.05c-1.13 0-2.05.92-2.05 2.05v5.71c0 1.13.92 2.05 2.05 2.05h11.27c1.13 0 2.05.92 2.05 2.05v.39c0 1.13-.92 2.05-2.05 2.05H68.82c-1.13 0-2.05-.92-2.05-2.05V50.05c0-1.13.92-2.05 2.05-2.05H85.5c1.13 0 2.05.92 2.05 2.05v.39c0 1.13-.92 2.05-2.05 2.05H74.38c-1.13 0-2.05.92-2.05 2.05v4.74c0 1.13.92 2.05 2.05 2.05h9.05c1.13 0 2.05.92 2.05 2.05v.3a2.049 2.049 0 0 1-2.05 2.03zm24.55 0h-9.05c-1.13 0-2.05.92-2.05 2.05v5.71c0 1.13.92 2.05 2.05 2.05h11.27c1.13 0 2.05.92 2.05 2.05v.39c0 1.13-.92 2.05-2.05 2.05H93.37c-1.13 0-2.05-.92-2.05-2.05V50.05c0-1.13.92-2.05 2.05-2.05h16.68c1.13 0 2.05.92 2.05 2.05v.39c0 1.13-.92 2.05-2.05 2.05H98.93c-1.13 0-2.05.92-2.05 2.05v4.74c0 1.13.92 2.05 2.05 2.05h9.05c1.13 0 2.05.92 2.05 2.05v.3a2.049 2.049 0 0 1-2.05 2.03z"/></svg>