<svg xmlns="http://www.w3.org/2000/svg" viewBox="0 0 128 128"><linearGradient id="a" x1="64" x2="64" y1="2" y2="127.4" gradientUnits="userSpaceOnUse"><stop offset="0" stop-color="#29B6F6"/><stop offset=".537" stop-color="#169FE4"/><stop offset=".995" stop-color="#0288D1"/></linearGradient><path fill="url(#a)" d="M116 124H12c-4.42 0-8-3.58-8-8V12c0-4.42 3.58-8 8-8h104c4.42 0 8 3.58 8 8v104c0 4.42-3.58 8-8 8z"/><path fill="#424242" d="M116 7c2.76 0 5 2.24 5 5v104c0 2.76-2.24 5-5 5H12c-2.76 0-5-2.24-5-5V12c0-2.76 2.24-5 5-5h104m0-3H12c-4.42 0-8 3.58-8 8v104c0 4.42 3.58 8 8 8h104c4.42 0 8-3.58 8-8V12c0-4.42-3.58-8-8-8z" opacity=".2"/><g fill="#424242" opacity=".2"><path d="M39.38 48.36c1.1 0 2 .9 2 2v28c0 1.1-.9 2-2 2h-2.46c-.69 0-1.33-.35-1.69-.94l-9.98-15.89c-.41-.65-1.04-.94-1.67-.94-1.02 0-2.02.76-2.02 2v13.76c0 1.1-.9 2-2 2H18c-1.1 0-2-.9-2-2v-28c0-1.1.9-2 2-2h2.45c.69 0 1.33.35 1.69.94l10.03 15.97c.41.65 1.04.94 1.67.94 1.02 0 2.02-.76 2.02-2V50.36c0-1.1.9-2 2-2h1.52m0-3h-1.52c-2.76 0-5 2.24-5 5v10.37L24.69 47.7a4.956 4.956 0 0 0-4.23-2.34H18c-2.76 0-5 2.24-5 5v28c0 2.76 2.24 5 5 5h1.56c2.76 0 5-2.24 5-5V68.07l8.14 12.95c.92 1.47 2.5 2.34 4.23 2.34h2.46c2.76 0 5-2.24 5-5v-28c-.01-2.76-2.25-5-5.01-5zm30.1 3c1.1 0 2 .9 2 2v.48c0 1.1-.9 2-2 2H58.27c-1.1 0-2 .9-2 2v4.84c0 1.1.9 2 2 2h9.14c1.1 0 2 .9 2 2v.4c0 1.1-.9 2-2 2h-9.14c-1.1 0-2 .9-2 2v5.8c0 1.1.9 2 2 2h11.36c1.1 0 2 .9 2 2v.48c0 1.1-.9 2-2 2H52.71c-1.1 0-2-.9-2-2v-28c0-1.1.9-2 2-2h16.77m0-3H52.71c-2.76 0-5 2.24-5 5v28c0 2.76 2.24 5 5 5h16.92c2.76 0 5-2.24 5-5v-.48c0-2.76-2.24-5-5-5H59.27v-3.8h8.14c2.76 0 5-2.24 5-5v-.4c0-2.76-2.24-5-5-5h-8.14v-2.84h10.21c2.76 0 5-2.24 5-5v-.48c0-2.76-2.25-5-5-5z"/><path d="M110 48.36a2 2 0 0 1 1.95 2.45l-6.46 28a2 2 0 0 1-1.95 1.55h-2.18a2 2 0 0 1-1.94-1.5l-3.78-14.52c-.26-1-1.1-1.5-1.94-1.5-.83 0-1.67.49-1.93 1.49L87.9 78.87a2 2 0 0 1-1.93 1.49h-2.21a2 2 0 0 1-1.95-1.55l-6.46-28a2 2 0 0 1 1.95-2.45h1.37c.95 0 1.77.67 1.96 1.6L83.5 63.9c.22 1.06 1.09 1.6 1.96 1.6.84 0 1.68-.5 1.94-1.51l3.59-14.12a2 2 0 0 1 1.94-1.51h1.54c.92 0 1.72.62 1.94 1.51l3.53 14.05c.25 1.01 1.1 1.51 1.94 1.51.87 0 1.75-.54 1.96-1.6l2.84-13.88c.19-.93 1.01-1.6 1.96-1.6H110m0-2.99h-1.37c-2.36 0-4.43 1.68-4.9 4l-1.96 9.57-2.46-9.79a4.986 4.986 0 0 0-4.85-3.78h-1.54c-2.29 0-4.28 1.55-4.85 3.77l-2.52 9.91-2-9.69a5.027 5.027 0 0 0-4.9-3.99h-1.37c-1.53 0-2.96.69-3.91 1.89s-1.3 2.74-.96 4.24l6.46 28a4.985 4.985 0 0 0 4.87 3.88h2.21c2.26 0 4.25-1.53 4.83-3.71l2.89-10.87 2.83 10.85c.57 2.2 2.56 3.74 4.84 3.74h2.18c2.34 0 4.35-1.59 4.87-3.88l6.46-28c.34-1.49 0-3.04-.96-4.24a4.879 4.879 0 0 0-3.89-1.9z"/></g><path fill="#FAFAFA" d="M39.38 80.36h-2.46c-.69 0-1.33-.35-1.69-.94l-9.98-15.89c-1.07-1.7-3.69-.94-3.69 1.06v13.76c0 1.1-.9 2-2 2H18c-1.1 0-2-.9-2-2v-28c0-1.1.9-2 2-2h2.45c.69 0 1.33.35 1.69.94l10.03 15.97c1.07 1.7 3.69.94 3.69-1.06V50.36c0-1.1.9-2 2-2h1.52c1.1 0 2 .9 2 2v28a2 2 0 0 1-2 2zm28.03-14.29h-9.14c-1.1 0-2 .9-2 2v5.8c0 1.1.9 2 2 2h11.36c1.1 0 2 .9 2 2v.48c0 1.1-.9 2-2 2H52.71c-1.1 0-2-.9-2-2v-28c0-1.1.9-2 2-2h16.77c1.1 0 2 .9 2 2v.48c0 1.1-.9 2-2 2H58.27c-1.1 0-2 .9-2 2v4.84c0 1.1.9 2 2 2h9.14c1.1 0 2 .9 2 2v.4a2 2 0 0 1-2 2zm36.42-2.23 2.84-13.88c.19-.93 1.01-1.6 1.96-1.6H110a2 2 0 0 1 1.95 2.45l-6.46 28a2 2 0 0 1-1.95 1.55h-2.18a2 2 0 0 1-1.94-1.5l-3.78-14.52c-.52-1.99-3.34-2-3.87-.01L87.9 78.87a2 2 0 0 1-1.93 1.49h-2.21a2 2 0 0 1-1.95-1.55l-6.46-28a2 2 0 0 1 1.95-2.45h1.37c.95 0 1.77.67 1.96 1.6L83.5 63.9c.43 2.08 3.37 2.15 3.9.09l3.59-14.12a2 2 0 0 1 1.94-1.51h1.54c.92 0 1.72.62 1.94 1.51l3.53 14.05c.51 2.07 3.47 2 3.89-.08z"/></svg>