<svg xmlns="http://www.w3.org/2000/svg" viewBox="0 0 128 128"><linearGradient id="a" x1="64" x2="64" y1="4121.6" y2="4250.1" gradientTransform="translate(0 -4122)" gradientUnits="userSpaceOnUse"><stop offset="0" stop-color="#4FC3F7"/><stop offset=".302" stop-color="#3CBCF6"/><stop offset=".912" stop-color="#0AABF4"/><stop offset=".995" stop-color="#03A9F4"/></linearGradient><path fill="url(#a)" d="M116 124H12c-4.4 0-8-3.6-8-8V12c0-4.4 3.6-8 8-8h104c4.4 0 8 3.6 8 8v104c0 4.4-3.6 8-8 8z"/><path fill="#424242" d="M116 7c2.8 0 5 2.2 5 5v104c0 2.8-2.2 5-5 5H12c-2.8 0-5-2.2-5-5V12c0-2.8 2.2-5 5-5h104m0-3H12c-4.4 0-8 3.6-8 8v104c0 4.4 3.6 8 8 8h104c4.4 0 8-3.6 8-8V12c0-4.4-3.6-8-8-8z" opacity=".2"/><path fill="#424242" d="M18.9 36h.1c2.4.2 5.1.3 7.1.3H53c1.3 0 2.9 0 4.2-.1h.1c1.1 0 2 .9 2 2 0 1.6-.1 3.5-.1 5V87c0 2.1.1 4.8.2 6.9 0 1.1-.8 2.1-2 2.1h-5c-1.1 0-2-.9-2-2v-.5c0-1.1-.9-2-2-2h-23c-2.4 0-5.2.1-7.5.2h.1c-1.1 0-2-.9-2-2v-5.3c0-1.1.9-2 2-2h.1c2.1.1 4.6.3 7.1.3h23.5c1.1 0 2-.9 2-2V46.9c0-1.1-.9-2-2-2H26.2c-2.3 0-5 .1-7.2.2h-.1c-1.1 0-2-.9-2-2V38c0-1.1.9-2 2-2m0-3c-2.7 0-5 2.2-5 5v5.1c0 2.7 2.2 5 5 5h.2c3-.1 5.3-.2 7.1-.2h21.5v31.7H25.2c-2 0-4.2-.1-6.9-.3H18c-2.7 0-5 2.2-5 5v5.3c0 2.7 2.2 5 5 5h.3c2.5-.1 5.2-.2 7.3-.2h22c.1 1.2.6 2.2 1.4 3.1.9 1 2.2 1.5 3.6 1.5h5c1.3 0 2.7-.6 3.6-1.5s1.4-2.3 1.4-3.7c-.1-2.2-.2-4.8-.2-6.7V43.3c0-1.3 0-3.1.1-4.9 0-1.3-.5-2.6-1.4-3.6s-2.2-1.5-3.6-1.5h-.2c-1.4 0-3 .1-4.2.1H26.2c-1.7 0-4.1-.1-6.9-.3-.1-.1-.3-.1-.4-.1zm52.6 3h.2c2.4.2 5.1.3 7.1.3h26.9c1.3 0 2.9 0 4.2-.1h.1c1.1 0 2 .9 2 2-.1 1.6-.1 3.5-.1 5V87c0 2.1.1 4.8.2 6.9.1 1.1-.8 2.1-2 2.1h-4.9c-1.1 0-2-.9-2-2v-.5c0-1.1-.9-2-2-2H78.1c-2.4 0-5.2.1-7.5.2h-.1c-1.1 0-2-.9-2-2v-5.3c0-1.1.9-2 2-2h.1c2.1.1 4.6.3 7.1.3h23.5c1.1 0 2-.9 2-2V46.9c0-1.1-.9-2-2-2H78.7c-2.3 0-5 .1-7.2.2h-.1c-1.1 0-2-.9-2-2V38c.1-1.1 1-2 2.1-2m0-3c-2.7 0-5 2.2-5 5v5.1c0 2.7 2.2 5 5 5h.2c3-.1 5.3-.2 7.1-.2h21.5v31.7H77.8c-2 0-4.2-.1-6.9-.3h-.3c-2.7 0-5 2.2-5 5v5.3c0 2.7 2.2 5 5 5h.3c2.5-.1 5.2-.2 7.3-.2h22c.1 1.2.6 2.2 1.4 3.1.9 1 2.2 1.5 3.6 1.5h4.9c1.3 0 2.7-.6 3.6-1.5s1.4-2.3 1.4-3.7c-.1-2.2-.2-4.8-.2-6.7V43.3c0-1.3 0-3.1.1-4.9 0-1.3-.5-2.6-1.4-3.6s-2.2-1.5-3.6-1.5h-.2c-1.4 0-2.9.1-4.2.1H78.7c-1.7 0-4.2-.1-6.9-.3-.1-.1-.2-.1-.3-.1z" opacity=".2"/><path fill="#FAFAFA" d="M50.5 94v-.5c0-1.1-.9-2-2-2h-23c-2.4 0-5.2.1-7.5.2-1.1.1-2.1-.8-2.1-2v-5.3c0-1.1 1-2 2.1-2 2.1.1 4.6.3 7.1.3h23.5c1.1 0 2-.9 2-2V46.9c0-1.1-.9-2-2-2H26.2c-2.3 0-5 .1-7.2.2-1.1 0-2-.8-2-2V38c0-1.2 1-2 2.1-2 2.4.2 5.1.3 7.1.3H53c1.3 0 2.9 0 4.2-.1 1.1 0 2.1.9 2 2 0 1.6-.1 3.5-.1 5V87c0 2.1.1 4.8.2 6.9 0 1.1-.8 2.1-2 2.1h-5c-.9 0-1.8-.9-1.8-2zm52.6 0v-.5c0-1.1-.9-2-2-2h-23c-2.4 0-5.2.1-7.5.2-1.1.1-2.1-.8-2.1-2v-5.3c0-1.1 1-2 2.1-2 2.1.1 4.6.3 7.1.3h23.5c1.1 0 2-.9 2-2V46.9c0-1.1-.9-2-2-2H78.7c-2.3 0-5 .1-7.2.2-1.1 0-2.1-.8-2.1-2V38c0-1.2 1-2 2.1-2 2.4.2 5.1.3 7.1.3h26.9c1.3 0 2.9 0 4.2-.1 1.1 0 2.1.9 2 2-.1 1.6-.1 3.5-.1 5V87c0 2.1.1 4.8.2 6.9.1 1.1-.8 2.1-2 2.1h-4.9c-.9 0-1.8-.9-1.8-2z"/></svg>