<svg xmlns="http://www.w3.org/2000/svg" viewBox="0 0 128 128"><radialGradient id="a" cx="225.73" cy="594.26" r="48.96" gradientTransform="matrix(1.012 .00624 -.00621 1.0162 -160.75 -547.58)" gradientUnits="userSpaceOnUse"><stop offset=".386" stop-color="#FF8F00"/><stop offset=".818" stop-color="#FFB300"/></radialGradient><path fill="url(#a)" d="M68.49 27.8 83.03 8.68c.92-1.21 2.85-.4 2.63 1.11L82.2 33.6c-.52 3.56 2.5 6.62 6.05 6.15L112 36.56c1.51-.2 2.3 1.74 1.08 2.65L93.85 53.59c-2.87 2.15-2.9 6.46-.05 8.64l19.04 14.61c1.21.93.4 2.86-1.11 2.64L88.02 76c-3.54-.52-6.6 2.51-6.12 6.07l3.17 23.85c.2 1.51-1.73 2.3-2.64 1.08L68.12 87.7c-2.14-2.88-6.43-2.91-8.61-.05l-14.55 19.12c-.92 1.21-2.85.4-2.63-1.11l3.47-23.81c.52-3.56-2.5-6.62-6.05-6.15L16 78.89c-1.51.2-2.3-1.74-1.08-2.65l19.22-14.37c2.87-2.15 2.9-6.46.05-8.64L15.16 38.61c-1.21-.93-.4-2.86 1.11-2.64l23.71 3.48c3.54.52 6.6-2.51 6.12-6.07L42.92 9.53c-.2-1.51 1.73-2.3 2.64-1.08l14.31 19.3c2.15 2.88 6.44 2.9 8.62.05z"/><radialGradient id="b" cx="225.64" cy="594.28" r="48.96" gradientTransform="matrix(.9309 .3986 -.397 .9348 89.863 -587.75)" gradientUnits="userSpaceOnUse"><stop offset=".386" stop-color="#FF8F00"/><stop offset=".818" stop-color="#FFB300"/></radialGradient><path fill="url(#b)" d="m79.66 31.87 20.78-11.98c1.32-.76 2.78.74 2 2.05l-12.37 20.6c-1.85 3.08-.25 7.08 3.21 8.02l23.13 6.28c1.47.4 1.45 2.5-.03 2.87l-23.26 5.8c-3.48.87-5.16 4.83-3.38 7.95l11.93 20.86c.76 1.32-.74 2.79-2.04 2L79.12 83.9c-3.07-1.86-7.05-.25-7.98 3.22l-6.25 23.23c-.4 1.47-2.49 1.45-2.85-.03l-5.77-23.35c-.86-3.49-4.81-5.18-7.92-3.39L27.56 95.57c-1.32.76-2.78-.74-2-2.05l12.36-20.61c1.85-3.08.25-7.08-3.21-8.02l-23.13-6.28c-1.47-.4-1.45-2.5.03-2.87l23.26-5.8c3.48-.87 5.16-4.83 3.38-7.95L26.32 21.14c-.76-1.32.74-2.79 2.04-2l20.53 12.41c3.07 1.86 7.05.25 7.98-3.22L63.12 5.1c.4-1.47 2.49-1.45 2.85.03l5.77 23.35c.87 3.49 4.81 5.18 7.92 3.39z"/><radialGradient id="c" cx="173.49" cy="612.26" r="33.962" gradientTransform="matrix(.896 .3807 -.3791 .8997 140.75 -559.21)" gradientUnits="userSpaceOnUse"><stop offset=".575" stop-color="#FFEB3B"/><stop offset=".84" stop-color="#FBC02D"/></radialGradient><ellipse cx="64.06" cy="57.7" fill="url(#c)" rx="26.78" ry="26.89"/><path fill="#eee" d="M64.1 33.86c3.17 0 6.27.63 9.21 1.88 12.06 5.12 17.71 19.14 12.61 31.25a23.712 23.712 0 0 1-21.89 14.55c-3.17 0-6.27-.63-9.21-1.88-12.06-5.13-17.71-19.15-12.61-31.26 3.73-8.83 12.32-14.54 21.89-14.54m0-3.01c-10.42 0-20.35 6.16-24.66 16.39-5.75 13.63.63 29.42 14.2 35.19 3.39 1.44 6.91 2.12 10.38 2.12 10.42 0 20.35-6.16 24.66-16.39 5.75-13.63-.63-29.42-14.2-35.19a26.482 26.482 0 0 0-10.38-2.12z" opacity=".2"/><path fill="#eee" d="m64.48 11.58 3.43 13.87a3.013 3.013 0 0 0 2.3 2.22 3.017 3.017 0 0 0 3-1.12l8.64-11.35-2.11 14.48c-.17 1.14.33 2.27 1.28 2.91a2.985 2.985 0 0 0 3.18.12l12.64-7.29-7.36 12.28c-.59.99-.57 2.23.07 3.19.56.85 1.51 1.35 2.51 1.35.13 0 .27-.01.4-.03l14.14-1.9-11.72 8.77a2.993 2.993 0 0 0 1.01 5.29l14.1 3.83-13.86 3.46c-1.12.28-1.98 1.17-2.21 2.3s.2 2.29 1.11 2.99l11.35 8.71-14.44-2.12a3.007 3.007 0 0 0-2.92 1.28c-.64.95-.69 2.18-.12 3.18l7.27 12.71-12.2-7.38a3 3 0 0 0-4.52 2.97l1.89 14.18-8.7-11.72a2.998 2.998 0 0 0-2.41-1.21c-.19 0-.37.02-.56.05a3.002 3.002 0 0 0-2.34 2.17l-3.8 14.11-3.43-13.87a3.013 3.013 0 0 0-2.3-2.22 3.017 3.017 0 0 0-3 1.12l-8.64 11.35 2.11-14.48c.17-1.14-.33-2.27-1.28-2.91a2.985 2.985 0 0 0-3.18-.12l-12.64 7.29 7.36-12.28c.59-.99.57-2.23-.07-3.19a3.009 3.009 0 0 0-2.51-1.35c-.13 0-.27.01-.4.03l-14.14 1.9 11.72-8.77a2.993 2.993 0 0 0-1.01-5.29l-14.1-3.83 13.86-3.46c1.12-.28 1.98-1.17 2.21-2.3s-.2-2.29-1.11-2.99L21.63 39.8l14.44 2.12a3.007 3.007 0 0 0 2.92-1.28c.65-.95.7-2.18.13-3.18l-7.27-12.71 12.2 7.38a3 3 0 0 0 4.52-2.97l-1.89-14.18 8.7 11.72c.57.77 1.47 1.21 2.41 1.21.19 0 .37-.02.56-.05a3.002 3.002 0 0 0 2.34-2.17l3.79-14.11M64.54 4c-.61 0-1.23.36-1.42 1.09l-5.34 19.82L45.57 8.45c-.31-.42-.74-.6-1.16-.6-.82 0-1.61.68-1.48 1.68l2.67 20.03-17.25-10.43c-.25-.15-.51-.22-.76-.22-1.03 0-1.88 1.16-1.27 2.23l10.18 17.8-20.23-2.97c-.08-.01-.16-.02-.23-.02-1.35 0-2.02 1.78-.87 2.66l15.99 12.27-19.53 4.87c-1.48.37-1.5 2.47-.03 2.87l19.74 5.36-16.4 12.27c-1.16.87-.5 2.67.86 2.67.07 0 .14 0 .22-.01l19.94-2.68-10.39 17.29c-.64 1.06.21 2.25 1.26 2.25.24 0 .49-.06.74-.21L45.3 85.33l-2.96 20.32c-.15 1 .65 1.7 1.48 1.7.42 0 .84-.18 1.15-.59l12.22-16.05 4.85 19.61c.18.75.81 1.12 1.43 1.12.61 0 1.23-.36 1.42-1.09l5.34-19.82L82.43 107c.31.42.74.6 1.16.6.82 0 1.61-.68 1.48-1.68L82.4 85.89l17.24 10.42c.25.15.51.22.76.22 1.03 0 1.88-1.16 1.27-2.23L91.5 76.51l20.23 2.97c.08.01.16.02.23.02 1.35 0 2.02-1.78.87-2.66L96.85 64.57l19.53-4.87c1.48-.37 1.5-2.47.03-2.87l-19.74-5.36 16.4-12.27c1.16-.87.5-2.67-.86-2.67-.07 0-.14 0-.22.01l-19.94 2.68 10.38-17.31c.64-1.06-.21-2.25-1.26-2.25-.24 0-.49.06-.74.21L82.71 30.11l2.96-20.32c.15-1-.65-1.7-1.48-1.7-.42 0-.84.18-1.15.59L70.82 24.73 65.97 5.12C65.79 4.38 65.16 4 64.54 4z" opacity=".2"/><radialGradient id="d" cx="95.75" cy="51.501" r="40.562" gradientTransform="matrix(1 0 0 1.0042 0 -.269)" gradientUnits="userSpaceOnUse"><stop offset="0" stop-color="#AED581"/><stop offset=".245" stop-color="#AAD37B"/><stop offset=".58" stop-color="#9FCD69"/><stop offset=".964" stop-color="#8DC44D"/><stop offset=".996" stop-color="#8BC34A"/></radialGradient><path fill="url(#d)" d="M39.33 103.92s23.18-40.93 82.19-55.96c1.26-.32 2.48.65 2.48 1.95v54.01H39.33z"/><linearGradient id="e" x1="85.257" x2="79.482" y1="88.589" y2="69.566" gradientUnits="userSpaceOnUse"><stop offset="0" stop-color="#9CCC65"/><stop offset=".996" stop-color="#9CCC65" stop-opacity="0"/></linearGradient><path fill="url(#e)" d="M39.33 103.92s23.18-40.93 82.19-55.96c1.26-.32 2.48.65 2.48 1.95v54.01H39.33z"/><path fill="#424242" d="M121 51.19v49.72H44.93c2.92-4.04 8.03-10.38 15.6-17.31C72.1 73 91.93 58.85 121 51.19m1.01-3.29c-.16 0-.32.02-.49.06-59 15.03-82.19 55.96-82.19 55.96H124V49.91c0-1.13-.92-2.01-1.99-2.01z" opacity=".2"/><radialGradient id="f" cx="39.25" cy="62.751" r="54.766" gradientTransform="matrix(1 0 0 1.0042 0 -.269)" gradientUnits="userSpaceOnUse"><stop offset="0" stop-color="#7CB342"/><stop offset=".306" stop-color="#78AE40"/><stop offset=".646" stop-color="#6AA139"/><stop offset="1" stop-color="#558B2F"/></radialGradient><path fill="url(#f)" d="M6.7 55.76c10.91 2.21 53.86 13.88 111.2 68.2H4V57.99c0-1.43 1.3-2.51 2.7-2.23z"/><linearGradient id="g" x1="51.269" x2="40.059" y1="106.94" y2="87.238" gradientUnits="userSpaceOnUse"><stop offset="0" stop-color="#66BB6A"/><stop offset=".996" stop-color="#66BB6A" stop-opacity="0"/></linearGradient><path fill="url(#g)" d="M6.7 55.76c10.91 2.21 53.86 13.88 111.2 68.2H4V57.99c0-1.43 1.3-2.51 2.7-2.23z"/><path fill="#424242" d="M7 58.89c12.22 2.64 51.09 14.33 103.28 62.07H7V58.89m-.74-3.17C5.04 55.72 4 56.72 4 58v65.97h113.91c-57.34-54.32-100.3-66-111.2-68.2-.16-.04-.31-.05-.45-.05z" opacity=".2"/><radialGradient id="h" cx="68.5" cy="81.501" r="48.253" gradientTransform="matrix(0 1.0042 -1.3356 0 177.35 12.787)" gradientUnits="userSpaceOnUse"><stop offset="0" stop-color="#388E3C"/><stop offset=".339" stop-color="#308235"/><stop offset=".958" stop-color="#1D6121"/><stop offset="1" stop-color="#1B5E20"/></radialGradient><path fill="url(#h)" d="M124 79.65S66.2 80.67 26.3 124l97.7-.2V79.65z"/><path fill="#424242" d="M121 82.82v37.98l-87.56.18c19.1-18.44 41.41-27.81 57.33-32.48 13.74-4.02 25.05-5.29 30.23-5.68m3-3.17S66.2 80.67 26.3 124l97.7-.2V79.65z" opacity=".2"/></svg>