<svg xmlns="http://www.w3.org/2000/svg" style="enable-background:new 0 0 128 128" viewBox="0 0 128 128" xml:space="preserve"><radialGradient id="a" cx="72.336" cy="-394.985" r="69.453" gradientTransform="matrix(1 0 0 -1 0 -338.11)" gradientUnits="userSpaceOnUse"><stop offset="0" style="stop-color:#fff157"/><stop offset=".776" style="stop-color:#eccc3b"/></radialGradient><circle cx="63.98" cy="64.04" r="60.83" style="fill:url(#a)"/><radialGradient id="b" cx="-176.383" cy="1217.456" r="72.859" gradientTransform="matrix(-1.0028 0 0 1 -105.198 -1179.89)" gradientUnits="userSpaceOnUse"><stop offset="0" style="stop-color:#757575"/><stop offset=".202" style="stop-color:#686868"/><stop offset=".706" style="stop-color:#4c4c4c"/><stop offset="1" style="stop-color:#424242"/></radialGradient><path d="m80.56 122.58-4.68-1.01c-1.42-.3-2.74-.81-4.07-1.52l-4.37-2.53-4.88-2.84c-.91-.51-1.83-1.22-2.64-1.93l-4.07-3.85-4.17-3.95a20.58 20.58 0 0 1-1.93-2.23l-3.25-4.76-3.15-4.46c-.71-.91-1.22-1.93-1.63-3.04l-1.93-5.17-2.13-5.58c-.3-.81-.51-1.62-.71-2.43l-.81-4.87c-.1-.71-.2-1.42-.2-2.13l-.1-5.47c0-.51 0-1.01.1-1.52l.61-5.88c0-.41.1-.71.1-1.12l1.22-6.49.81-3.95c.41-2.13 1.42-4.06 2.74-5.68l.71-.91c1.22-1.52 2.13-3.35 2.64-5.27l.41-1.62c.41-1.72 1.22-3.45 2.34-4.87l2.03-2.64c.51-.61 1.02-1.22 1.63-1.72l3.15-3.04c.81-.81 1.73-1.42 2.74-2.03l3.05-1.62c1.22-.71 2.34-1.52 3.35-2.53l1.22-1.22c1.63-1.72 3.66-2.94 5.9-3.65l3.15-1.01c.3-.1.51-.2.81-.3l5.95-2.27C74.76 3.8 68.86 2.96 62.36 3.16 29.83 3.97 3.4 30.63 2.99 63.07c-.51 33.96 26.69 61.8 60.98 61.8 5.7 0 11.39-.7 16.59-2.29z" style="fill:url(#b)"/><g style="opacity:.3;enable-background:new"><radialGradient id="c" cx="314.775" cy="334.675" r="19.39" gradientTransform="scale(1 -1) rotate(-37.655 -419.262 568.275)" gradientUnits="userSpaceOnUse"><stop offset="0" style="stop-color:#202020"/><stop offset=".281" style="stop-color:#232324"/><stop offset=".49" style="stop-color:#2d2d2e"/><stop offset=".676" style="stop-color:#3e3e3e"/><stop offset=".848" style="stop-color:#545454"/><stop offset=".926" style="stop-color:#616262"/></radialGradient><path d="M35.99 83.71c-4.06 7.3-13.69 9.73-21.49 5.37C6.7 84.73 3.76 75.3 7.81 68s13.69-9.73 21.49-5.37c7.71 4.35 10.75 13.78 6.69 21.08z" style="opacity:.3;fill:url(#c);enable-background:new"/><radialGradient id="d" cx="122.718" cy="-313.226" r="13.435" gradientTransform="scale(1 -1) rotate(-6.684 1991.069 566.466)" gradientUnits="userSpaceOnUse"><stop offset="0" style="stop-color:#202020"/><stop offset=".281" style="stop-color:#232324"/><stop offset=".49" style="stop-color:#2d2d2e"/><stop offset=".676" style="stop-color:#3e3e3e"/><stop offset=".848" style="stop-color:#545454"/><stop offset=".926" style="stop-color:#616262"/></radialGradient><path d="M40.15 100.44c-1.22 4.06-5.47 6.29-9.53 4.97-3.95-1.22-6.18-5.47-4.97-9.53 1.22-4.06 5.47-6.29 9.53-4.97 4.06 1.32 6.29 5.47 4.97 9.53z" style="opacity:.3;fill:url(#d);enable-background:new"/></g><radialGradient id="e" cx="-247.968" cy="776.625" r="62.194" gradientTransform="matrix(-1.0015 0 0 1 -150.24 -712.614)" gradientUnits="userSpaceOnUse"><stop offset=".751" style="stop-color:#fff157;stop-opacity:0"/><stop offset="1" style="stop-color:#424242"/></radialGradient><path d="m36.14 72.4.8 4.9c.2.81.55 1.94.86 2.75l2.24 5.87 1.74 4.68c.41 1.12.94 2.08 1.65 2.99l3.13 4.44 3.26 4.77c.61.81 1.29 1.52 2 2.23l4.1 3.89 4.01 3.83c.81.71 1.77 1.45 2.68 1.95l4.87 2.84 4.36 2.53c1.32.71 2.64 1.22 4.06 1.52l4.56 1.01c25.65-7.2 44.51-30.72 44.51-58.6S106.21 12.6 80.46 5.4l-6.08 2.33c-.3.1-.55.2-.85.3l-3.19 1.02c-2.23.71-4.1 1.91-5.72 3.63l-1.25 1.23a15.763 15.763 0 0 1-3.29 2.53l-3.04 1.62c-1.01.61-1.93 1.22-2.74 2.03l-3.14 3.04c-.61.51-1.12 1.12-1.62 1.72l-2.03 2.64a12.55 12.55 0 0 0-2.33 4.87L44.76 34c-.51 1.93-1.42 3.75-2.64 5.27l-.85 1.09c-1.32 1.62-2.19 3.37-2.59 5.5l-.86 4.11-1.18 6.26c0 .41-.08.77-.08 1.18l-.65 5.93c-.1.51-.06.96-.06 1.47l.1 5.47c-.02.71.08 1.41.19 2.12z" style="opacity:.4;fill:url(#e);enable-background:new"/><radialGradient id="f" cx="-243.125" cy="777.137" r="70.617" gradientTransform="matrix(-1 0 0 1 -149.896 -712.614)" gradientUnits="userSpaceOnUse"><stop offset=".826" style="stop-color:#fff157;stop-opacity:.5"/><stop offset="1" style="stop-color:#424242;stop-opacity:0"/></radialGradient><path d="M3.5 71.21v.2c.51 3.95 1.32 7.7 2.53 11.35.1.2.1.51.2.71.2.51.3.91.51 1.42 1.12 2.94 2.33 5.78 3.85 8.41.41.71.81 1.42 1.22 2.23.3.51.61 1.01.91 1.52.71 1.12 1.52 2.23 2.33 3.35 4.66 6.29 10.54 11.56 17.23 15.61 1.22.81 2.53 1.42 3.85 2.13.41.2.91.41 1.32.61.91.41 1.82.81 2.64 1.22.91.41 1.82.71 2.74 1.12.91.3 2.28.81 3.29 1.12 5.68 1.82 11.31 2.63 17.6 2.63.71 0 6.24 0 10.33-.78.61-.1 4.59-.83 6.55-1.51l-.64-.15-4.22-.92c-1.42-.3-2.77-.86-4.09-1.57l-4.34-2.52-4.71-2.75c-.91-.51-1.97-1.32-2.78-2.03l-4.02-3.82-3.95-3.82c-.71-.71-1.52-1.56-2.13-2.37l-3.18-4.69-3.37-4.76c-.71-.91-1-1.63-1.4-2.74l-1.93-5.17-1.77-4.63c-.3-.81-.87-2.56-1.07-3.38l-.81-4.87c-.1-.71-.2-1.42-.2-2.13l-.06-2.97c0-.51-.05-3.52.06-4.03l.58-5.82c0-.41.1-.71.1-1.12l1.22-6.49.81-3.95c.41-2.13 1.42-4.06 2.74-5.68l.71-.91c1.22-1.52 2.13-3.35 2.64-5.27l.41-1.62a12.91 12.91 0 0 1 2.33-4.87l2.03-2.64c.51-.61 1.01-1.22 1.62-1.72l3.14-3.04c.81-.81 1.72-1.42 2.74-2.03l3.04-1.62c1.22-.71 2.33-1.52 3.35-2.53l1.22-1.22c1.62-1.72 3.65-2.94 5.88-3.65l3.14-1.01c.3-.1.51-.2.81-.3l5.98-2.33h.1c-2.94-.81-5.88-1.42-8.92-1.72-.51-.1-1.01-.1-1.52-.2s-1.01-.1-1.52-.1c-.41 0-.91-.1-1.32-.1h-4.86c-6.39.1-12.37 1.22-17.94 3.14-.81.3-1.62.51-2.43.91-.3.1-.61.2-.81.3-.61.2-1.22.51-1.93.81-.81.41-1.62.81-2.43 1.22-.41.2-.81.41-1.32.71-11.05 5.88-20.07 15-25.75 26.05v.1c-.41.81-.81 1.62-1.22 2.53-.1.3-.3.61-.41.91-.3.81-.61 1.52-.91 2.33-.1.3-.3.71-.41 1.01-.3.91-.71 1.93-.91 2.84C4.31 51.44 3.3 56.91 3.2 62.69v4.47c0 .71.1 1.32.1 1.93v.41c.1.39.1 1.1.2 1.71z" style="opacity:.4;fill:url(#f);enable-background:new"/><radialGradient id="g" cx="50.267" cy="96.437" r="15.42" gradientUnits="userSpaceOnUse"><stop offset="0" style="stop-color:#202020"/><stop offset="1" style="stop-color:#616262"/></radialGradient><path d="M59.79 112.64c-.8.01-1.62-.04-2.45-.14-7.19-.82-12.47-5.78-11.86-11.06.12-1.19.52-2.29 1.17-3.28l3.04 4.47c.61.81 1.22 1.52 1.93 2.23l4.15 3.96 4.02 3.82z" style="fill:url(#g)"/><radialGradient id="h" cx="53.915" cy="95.567" r="21.505" gradientUnits="userSpaceOnUse"><stop offset=".006" style="stop-color:#e0a800"/><stop offset=".61" style="stop-color:#e0a800;stop-opacity:.1074"/><stop offset=".682" style="stop-color:#e0a800;stop-opacity:0"/></radialGradient><path d="M71.44 104.46c-.53 4.67-5.51 8.07-11.65 8.15l-4.01-3.81-4.16-3.96c-.71-.71-1.31-1.42-1.92-2.23l-3.05-4.46c2.22-3.41 7.27-5.45 12.93-4.74 7.2.82 12.47 5.78 11.86 11.05z" style="opacity:.5;fill:url(#h)"/><radialGradient id="i" cx="47.827" cy="1312.501" r="11.9" gradientTransform="matrix(.0682 .9977 1.0103 -.069 -1225.115 86.357)" gradientUnits="userSpaceOnUse"><stop offset=".006" style="stop-color:#e0a800"/><stop offset=".61" style="stop-color:#e0a800;stop-opacity:.1074"/><stop offset=".682" style="stop-color:#e0a800;stop-opacity:0"/></radialGradient><path d="M114.77 45.69c-.1 5.58-4.76 9.94-10.44 9.83-5.68-.1-10.14-4.66-10.04-10.24s4.76-9.94 10.44-9.83c5.78.11 10.14 4.67 10.04 10.24z" style="fill:url(#i);enable-background:new"/><radialGradient id="j" cx="157.756" cy="-431.314" r="14.541" fx="156.996" fy="-432.186" gradientTransform="matrix(.9964 .0852 .0775 -.9066 -19.441 -336.807)" gradientUnits="userSpaceOnUse"><stop offset=".006" style="stop-color:#e0a800"/><stop offset=".61" style="stop-color:#e0a800;stop-opacity:.1074"/><stop offset=".682" style="stop-color:#e0a800;stop-opacity:0"/></radialGradient><path d="M119.13 74.08c-.51 5.78-5.58 10.04-11.35 9.53s-10.04-5.58-9.53-11.35 5.58-10.04 11.35-9.53c5.77.5 10.03 5.57 9.53 11.35z" style="fill:url(#j);enable-background:new"/><radialGradient id="k" cx="142.511" cy="-389.298" r="7.573" fx="142.116" fy="-389.751" gradientTransform="matrix(.9964 .0852 .0775 -.9066 -19.124 -340.522)" gradientUnits="userSpaceOnUse"><stop offset=".006" style="stop-color:#e0a800"/><stop offset=".61" style="stop-color:#e0a800;stop-opacity:.1074"/><stop offset=".682" style="stop-color:#e0a800;stop-opacity:0"/></radialGradient><path d="M98.55 25.62a5.329 5.329 0 0 1-5.88 4.97c-2.94-.2-5.17-2.94-4.97-5.88.2-2.94 2.84-5.27 5.88-4.97 3.04.31 5.27 2.84 4.97 5.88z" style="fill:url(#k);enable-background:new"/><radialGradient id="l" cx="152.833" cy="-451.628" r="12.778" fx="152.166" fy="-452.388" gradientTransform="matrix(.9964 .0852 .0775 -.9066 -19.595 -335.01)" gradientUnits="userSpaceOnUse"><stop offset=".006" style="stop-color:#e0a800"/><stop offset=".61" style="stop-color:#e0a800;stop-opacity:.1074"/><stop offset=".682" style="stop-color:#e0a800;stop-opacity:0"/></radialGradient><path d="M110.71 93.14c-.41 5.07-4.87 8.82-9.94 8.41-5.07-.41-8.82-4.87-8.31-9.94s4.87-8.82 9.94-8.41c5.07.41 8.82 4.87 8.31 9.94z" style="fill:url(#l);enable-background:new"/><g style="opacity:.2"><path d="M63.98 7.27c31.33 0 56.77 25.45 56.77 56.77s-25.45 56.77-56.77 56.77S7.2 95.37 7.2 64.04 32.55 7.27 63.98 7.27m0-4.05c-33.56 0-60.83 27.27-60.83 60.83s27.27 60.83 60.83 60.83S124.8 97.6 124.8 64.04 97.53 3.22 63.98 3.22z" style="fill:#424242"/></g></svg>