<svg xmlns="http://www.w3.org/2000/svg" style="enable-background:new 0 0 128 128" viewBox="0 0 128 128" xml:space="preserve"><radialGradient id="a" cx="52.345" cy="-375.777" r="68.508" gradientTransform="matrix(1 0 0 -1 0 -338.11)" gradientUnits="userSpaceOnUse"><stop offset=".282" style="stop-color:#fff157"/><stop offset=".522" style="stop-color:#feee54"/><stop offset=".721" style="stop-color:#fae44a"/><stop offset=".903" style="stop-color:#f4d538"/><stop offset="1" style="stop-color:#f0c92c"/></radialGradient><circle cx="64" cy="63.7" r="60" style="fill:url(#a)"/><radialGradient id="b" cx="315.058" cy="335.346" r="19.126" gradientTransform="scale(1 -1) rotate(-37.655 -419.262 568.275)" gradientUnits="userSpaceOnUse"><stop offset=".006" style="stop-color:#e0a800"/><stop offset=".61" style="stop-color:#e0a800;stop-opacity:.1074"/><stop offset=".682" style="stop-color:#e0a800;stop-opacity:0"/></radialGradient><path d="M36.4 83.1c-4 7.2-13.5 9.6-21.2 5.3-7.7-4.3-10.6-13.6-6.6-20.8s13.5-9.6 21.2-5.3c7.6 4.3 10.6 13.6 6.6 20.8z" style="fill:url(#b)"/><radialGradient id="c" cx="123.08" cy="-312.485" r="13.252" gradientTransform="scale(1 -1) rotate(-6.684 1991.069 566.466)" gradientUnits="userSpaceOnUse"><stop offset=".006" style="stop-color:#e0a800"/><stop offset=".61" style="stop-color:#e0a800;stop-opacity:.1074"/><stop offset=".682" style="stop-color:#e0a800;stop-opacity:0"/></radialGradient><path d="M40.5 99.6c-1.2 4-5.4 6.2-9.4 4.9-3.9-1.2-6.1-5.4-4.9-9.4s5.4-6.2 9.4-4.9 6.2 5.4 4.9 9.4z" style="fill:url(#c)"/><radialGradient id="d" cx="40.937" cy="-466.81" r="17.206" gradientTransform="matrix(1.1053 .1295 .0955 -.815 55.462 -289.29)" gradientUnits="userSpaceOnUse"><stop offset=".006" style="stop-color:#e0a800"/><stop offset=".61" style="stop-color:#e0a800;stop-opacity:.1074"/><stop offset=".682" style="stop-color:#e0a800;stop-opacity:0"/></radialGradient><path d="M59.4 92.7c7.1.8 12.3 5.7 11.7 10.9-.6 5.2-6.8 8.8-13.9 7.9-7.1-.8-12.3-5.7-11.7-10.9.5-5.2 6.7-8.8 13.9-7.9z" style="fill:url(#d)"/><radialGradient id="e" cx="56.352" cy="1217.528" r="71.874" gradientTransform="translate(0 -1179.89)" gradientUnits="userSpaceOnUse"><stop offset="0" style="stop-color:#757575"/><stop offset=".202" style="stop-color:#686868"/><stop offset=".706" style="stop-color:#4c4c4c"/><stop offset="1" style="stop-color:#424242"/></radialGradient><path d="m47.7 121.5 4.6-1c1.4-.3 2.7-.8 4-1.5l4.3-2.5 4.8-2.8c.9-.5 1.8-1.2 2.6-1.9l4-3.8 4.1-3.9c.7-.7 1.3-1.4 1.9-2.2l3.2-4.7 3.1-4.4c.7-.9 1.2-1.9 1.6-3l1.9-5.1 2.1-5.5c.3-.8.5-1.6.7-2.4l.8-4.8c.1-.7.2-1.4.2-2.1l.1-5.4c0-.5 0-1-.1-1.5l-.6-5.8c0-.4-.1-.7-.1-1.1l-1.2-6.4-.8-3.9c-.4-2.1-1.4-4-2.7-5.6l-.7-.9c-1.2-1.5-2.1-3.3-2.6-5.2l-.4-1.6c-.4-1.7-1.2-3.4-2.3-4.8l-2-2.6c-.5-.6-1-1.2-1.6-1.7l-3.1-3c-.8-.8-1.7-1.4-2.7-2l-3-1.6c-1.2-.7-2.3-1.5-3.3-2.5l-1.2-1.2c-1.6-1.7-3.6-2.9-5.8-3.6l-3.1-1c-.3-.1-.5-.2-.8-.3l-6-2.3c5.8-1.6 11.8-2.3 18-2.2 32 .8 58 27.1 58.4 59.1.5 33.5-26.6 60.9-60 60.9-5.6 0-11.1-.8-16.3-2.2z" style="fill:url(#e)"/><radialGradient id="f" cx="29.998" cy="776.314" r="61.346" gradientTransform="matrix(1.0015 0 0 1 .344 -712.614)" gradientUnits="userSpaceOnUse"><stop offset=".751" style="stop-color:#fff157;stop-opacity:0"/><stop offset="1" style="stop-color:#424242"/></radialGradient><path d="m91.4 72-.8 4.8c-.2.8-.4 1.6-.7 2.4l-2.1 5.5-1.9 5.1c-.4 1.1-.9 2.1-1.6 3l-3.1 4.4-3.2 4.7c-.6.8-1.2 1.5-1.9 2.2L72 108l-4 3.8c-.8.7-1.7 1.4-2.6 1.9l-4.8 2.8-4.3 2.5c-1.3.7-2.6 1.2-4 1.5l-4.5 1C22.5 114.4 3.9 91.2 3.9 63.7S22.4 13 47.8 5.9l5.9 2.3c.3.1.5.2.8.3l3.1 1c2.2.7 4.2 1.9 5.8 3.6l1.2 1.2c1 1 2.1 1.8 3.3 2.5l3 1.6c1 .6 1.9 1.2 2.7 2l3.1 3c.6.5 1.1 1.1 1.6 1.7l2 2.6c1.1 1.4 1.9 3.1 2.3 4.8l.4 1.6c.5 1.9 1.4 3.7 2.6 5.2l.7.9c1.3 1.6 2.3 3.5 2.7 5.6l.8 3.9 1.2 6.4c0 .4.1.7.1 1.1l.6 5.8c.1.5.1 1 .1 1.5l-.1 5.4-.3 2.1z" style="opacity:.4;fill:url(#f);enable-background:new"/><radialGradient id="g" cx="31.882" cy="777.236" r="71.872" gradientTransform="translate(0 -712.614)" gradientUnits="userSpaceOnUse"><stop offset=".826" style="stop-color:#fff157;stop-opacity:.5"/><stop offset="1" style="stop-color:#424242;stop-opacity:0"/></radialGradient><path d="M123.4 70.9v.2c-.5 3.9-1.3 7.6-2.5 11.2-.1.2-.1.5-.2.7-.2.5-.3.9-.5 1.4-1.1 2.9-2.3 5.7-3.8 8.3-.4.7-.8 1.4-1.2 2.2l-.9 1.5c-.7 1.1-1.5 2.2-2.3 3.3-4.6 6.2-10.4 11.4-17 15.4-1.2.8-2.5 1.4-3.8 2.1-.4.2-.9.4-1.3.6-.9.4-1.8.8-2.6 1.2-.9.4-1.8.7-2.7 1.1-.9.3-1.8.6-2.8.9-5.6 1.8-11.6 2.7-17.8 2.7h-2.1c-.6 0-1.3-.1-1.9-.1h-.2c-2-.2-4-.4-6-.7-.6-.1-1.2-.2-1.9-.4-1.4-.3-2.8-.6-4.2-1h.1l4.5-1c1.4-.3 2.7-.8 4-1.5l4.3-2.5 4.8-2.8c.9-.5 1.8-1.2 2.6-1.9l4-3.8 4.1-3.9c.7-.7 1.3-1.4 1.9-2.2l3.2-4.7 3.1-4.4c.7-.9 1.2-1.9 1.6-3l1.9-5.1 2.1-5.5c.3-.8.5-1.6.7-2.4l.8-4.8c.1-.7.2-1.4.2-2.1l.1-5.4c0-.5 0-1-.1-1.5l-.8-5.7c0-.4-.1-.7-.1-1.1l-1.2-6.4-.8-3.9c-.4-2.1-1.4-4-2.7-5.6l-.7-.9c-1.2-1.5-2.1-3.3-2.6-5.2l-.4-1.6c-.4-1.7-1.2-3.4-2.3-4.8l-2-2.6c-.5-.6-1-1.2-1.6-1.7l-3.1-3c-.8-.8-1.7-1.4-2.7-2l-3-1.6c-1.2-.7-2.3-1.5-3.3-2.5l-1.2-1.2c-1.6-1.7-3.6-2.9-5.8-3.6l-3.1-1c-.3-.1-.5-.2-.8-.3L47.5 6h-.1c2.9-.8 5.8-1.4 8.8-1.7.5-.1 1-.1 1.5-.2s1-.1 1.5-.1c.4 0 .9-.1 1.3-.1h4.8C71.6 4 77.5 5.1 83 7c.8.3 1.6.5 2.4.9.3.1.6.2.8.3.6.2 1.2.5 1.9.8l2.4 1.2c.4.2.8.4 1.3.7 10.9 5.8 19.8 14.8 25.4 25.7v.1c.4.8.8 1.6 1.2 2.5.1.3.3.6.4.9.3.8.6 1.5.9 2.3.1.3.3.7.4 1 .3.9.7 1.9.9 2.8 1.6 5.2 2.6 10.6 2.7 16.3v4.4c0 .7-.1 1.3-.1 1.9v.4c-.1.4-.1 1.1-.2 1.7z" style="opacity:.4;fill:url(#g);enable-background:new"/><radialGradient id="h" cx="47.727" cy="1311.99" r="11.738" gradientTransform="matrix(.0682 .9977 1.0103 -.069 -1225.115 86.357)" gradientUnits="userSpaceOnUse"><stop offset="0" style="stop-color:#212121"/><stop offset=".281" style="stop-color:#242424"/><stop offset=".49" style="stop-color:#2d2d2d"/><stop offset=".676" style="stop-color:#3e3e3e"/><stop offset=".848" style="stop-color:#545454"/><stop offset=".926" style="stop-color:#616161"/></radialGradient><path d="M114.1 45.6c-.1 5.5-4.7 9.8-10.3 9.7s-10-4.6-9.9-10.1 4.7-9.8 10.3-9.7c5.7.1 10 4.6 9.9 10.1z" style="opacity:.3;fill:url(#h);enable-background:new"/><radialGradient id="i" cx="157.2" cy="-430.933" r="14.343" fx="156.45" fy="-431.793" gradientTransform="matrix(.9964 .0852 .0775 -.9066 -19.441 -336.807)" gradientUnits="userSpaceOnUse"><stop offset="0" style="stop-color:#212121"/><stop offset=".281" style="stop-color:#242424"/><stop offset=".49" style="stop-color:#2d2d2d"/><stop offset=".676" style="stop-color:#3e3e3e"/><stop offset=".848" style="stop-color:#545454"/><stop offset=".926" style="stop-color:#616161"/></radialGradient><path d="M118.4 73.6c-.5 5.7-5.5 9.9-11.2 9.4s-9.9-5.5-9.4-11.2 5.5-9.9 11.2-9.4 9.9 5.5 9.4 11.2z" style="opacity:.3;fill:url(#i);enable-background:new"/><radialGradient id="j" cx="142.162" cy="-389.544" r="7.47" fx="141.772" fy="-389.991" gradientTransform="matrix(.9964 .0852 .0775 -.9066 -19.124 -340.522)" gradientUnits="userSpaceOnUse"><stop offset="0" style="stop-color:#212121"/><stop offset=".281" style="stop-color:#242424"/><stop offset=".49" style="stop-color:#2d2d2d"/><stop offset=".676" style="stop-color:#3e3e3e"/><stop offset=".848" style="stop-color:#545454"/><stop offset=".926" style="stop-color:#616161"/></radialGradient><path d="M98.1 25.8c-.2 3-2.8 5.2-5.8 4.9-2.9-.2-5.1-2.9-4.9-5.8s2.8-5.2 5.8-4.9 5.2 2.8 4.9 5.8z" style="opacity:.3;fill:url(#j);enable-background:new"/><radialGradient id="k" cx="152.344" cy="-450.943" r="12.604" fx="151.686" fy="-451.693" gradientTransform="matrix(.9964 .0852 .0775 -.9066 -19.595 -335.01)" gradientUnits="userSpaceOnUse"><stop offset="0" style="stop-color:#212121"/><stop offset=".281" style="stop-color:#242424"/><stop offset=".49" style="stop-color:#2d2d2d"/><stop offset=".676" style="stop-color:#3e3e3e"/><stop offset=".848" style="stop-color:#545454"/><stop offset=".926" style="stop-color:#616161"/></radialGradient><path d="M110.1 92.4c-.4 5-4.8 8.7-9.8 8.3s-8.7-4.8-8.2-9.8 4.8-8.7 9.8-8.3c5 .4 8.7 4.8 8.2 9.8z" style="opacity:.3;fill:url(#k);enable-background:new"/><g style="opacity:.2"><path d="M64 7.7c30.9 0 56 25.1 56 56s-25.1 56-56 56-56-25.1-56-56 25-56 56-56m0-4c-33.1 0-60 26.9-60 60s26.9 60 60 60 60-26.9 60-60-26.9-60-60-60z" style="fill:#424242"/></g></svg>