<svg xmlns="http://www.w3.org/2000/svg" viewBox="0 0 128 128"><path fill="#F9A825" d="m79.81 13.51 7.52-8.7c.69-.8 2-.45 2.2.59l2.17 11.3c.15.76.93 1.21 1.66.96l10.86-3.77c1-.35 1.96.61 1.61 1.61l-3.77 10.86c-.25.73.2 1.52.96 1.66l11.29 2.17c1.04.2 1.39 1.51.59 2.2l-8.7 7.52c-.58.51-.58 1.41 0 1.92l8.7 7.52c.8.69.45 2-.59 2.2l-11.29 2.17c-.76.15-1.21.93-.96 1.66l3.77 10.86c.35 1-.61 1.96-1.61 1.61l-10.86-3.77c-.73-.25-1.52.2-1.66.96l-2.17 11.29c-.2 1.04-1.51 1.39-2.2.59l-7.52-8.7c-.51-.58-1.41-.58-1.92 0l-7.52 8.7c-.69.8-2 .45-2.2-.59L66 65.05a1.27 1.27 0 0 0-1.66-.96l-10.86 3.77c-1 .35-1.96-.61-1.61-1.61l3.77-10.86c.25-.73-.2-1.52-.96-1.66l-11.29-2.17c-1.04-.2-1.39-1.51-.59-2.2l8.7-7.52c.58-.51.58-1.41 0-1.92l-8.7-7.52c-.8-.69-.45-2 .59-2.2l11.29-2.17c.76-.15 1.21-.93.96-1.66L51.86 15.5c-.35-1 .61-1.96 1.61-1.61l10.86 3.77c.73.25 1.52-.2 1.66-.96l2.17-11.29c.2-1.04 1.51-1.39 2.2-.59l7.52 8.7c.52.58 1.43.58 1.93-.01z"/><path fill="#424242" d="m87.27 9.48 1.49 7.78a4.273 4.273 0 0 0 4.19 3.47c.48 0 .95-.08 1.4-.24l7.49-2.6-2.6 7.49c-.41 1.17-.28 2.46.34 3.53s1.67 1.82 2.89 2.06l7.78 1.49-5.99 5.18a4.264 4.264 0 0 0 0 6.46l5.99 5.18-7.78 1.49a4.23 4.23 0 0 0-2.89 2.06 4.283 4.283 0 0 0-.34 3.53l2.6 7.49-7.49-2.6c-.45-.16-.92-.24-1.4-.24-2.04 0-3.81 1.46-4.19 3.46l-1.49 7.78-5.18-5.99a4.264 4.264 0 0 0-6.46 0l-5.18 5.99-1.49-7.78a4.272 4.272 0 0 0-4.19-3.46c-.48 0-.95.08-1.4.24l-7.49 2.6 2.6-7.49c.41-1.17.28-2.46-.34-3.53s-1.67-1.82-2.89-2.06l-7.78-1.49 5.99-5.18a4.264 4.264 0 0 0 0-6.46l-5.99-5.18 7.78-1.49a4.23 4.23 0 0 0 2.89-2.06c.62-1.07.74-2.36.34-3.53l-2.6-7.49 7.49 2.6c.45.16.92.24 1.4.24 2.04 0 3.81-1.46 4.19-3.46l1.49-7.78 5.18 5.99a4.264 4.264 0 0 0 6.46 0l5.18-6m1.02-5.1c-.34 0-.69.14-.95.44l-7.52 8.7c-.25.29-.61.44-.96.44s-.71-.15-.96-.44l-7.52-8.7c-.26-.3-.61-.44-.95-.44-.57 0-1.13.38-1.25 1.03L66 16.7a1.268 1.268 0 0 1-1.66.96l-10.86-3.77a1.27 1.27 0 0 0-1.61 1.62l3.77 10.86c.25.73-.2 1.52-.96 1.66L43.39 30.2c-1.04.2-1.39 1.51-.59 2.2l8.7 7.52c.58.51.58 1.41 0 1.92l-8.7 7.52c-.8.69-.45 2 .59 2.2l11.29 2.17c.76.15 1.21.93.96 1.66l-3.77 10.86c-.3.86.37 1.69 1.19 1.69.14 0 .28-.02.42-.07l10.86-3.77c.14-.05.28-.07.42-.07.59 0 1.13.41 1.24 1.03l2.17 11.29c.12.65.68 1.03 1.25 1.03.34 0 .69-.14.95-.44l7.52-8.7c.25-.29.61-.44.96-.44s.71.15.96.44l7.52 8.7c.26.3.61.44.95.44.57 0 1.13-.38 1.25-1.03l2.17-11.29a1.268 1.268 0 0 1 1.66-.96l10.86 3.77a1.27 1.27 0 0 0 1.61-1.62l-3.77-10.86c-.25-.73.2-1.52.96-1.66l11.29-2.17c1.04-.2 1.39-1.51.59-2.2l-8.7-7.52c-.58-.51-.58-1.41 0-1.92l8.7-7.52c.8-.69.45-2-.59-2.2l-11.29-2.17a1.27 1.27 0 0 1-.96-1.66l3.77-10.86c.3-.86-.37-1.69-1.19-1.69-.14 0-.28.02-.42.07l-10.86 3.77c-.14.05-.28.07-.42.07-.59 0-1.13-.41-1.24-1.03L89.54 5.41c-.13-.65-.68-1.03-1.25-1.03z" opacity=".2"/><radialGradient id="a" cx="74.388" cy="36.324" r="22.78" gradientUnits="userSpaceOnUse"><stop offset=".217" stop-color="#FFD54F"/><stop offset=".86" stop-color="#FFC107"/></radialGradient><circle cx="78.06" cy="41.82" r="23.23" fill="url(#a)"/><radialGradient id="b" cx="50.878" cy="6.696" r="106.44" gradientUnits="userSpaceOnUse"><stop offset=".264" stop-color="#E3F2FD"/><stop offset=".917" stop-color="#90CAF9"/></radialGradient><path fill="url(#b)" d="M101.6 50.97c-.6 0-1.19.04-1.77.11.46-1.55.71-3.18.71-4.88 0-9.46-7.67-17.12-17.12-17.12-4.03 0-7.72 1.4-10.64 3.72C68.84 25.35 61.02 20.26 52 20.26c-12.97 0-23.48 10.51-23.48 23.48 0 .47.02.93.04 1.39-9.77 1.2-17.34 9.52-17.34 19.62 0 10.8 8.67 19.58 19.43 19.76 3.61 6.26 10.78 10.55 19.08 10.61 8.02.06 15.05-3.85 18.86-9.72 3.07 3.35 7.46 5.47 12.36 5.47 7.02 0 13.02-4.32 15.52-10.44 1.6.58 3.33.91 5.13.91 8.38 0 15.18-6.8 15.18-15.18 0-8.39-6.8-15.19-15.18-15.19z"/><path fill="#424242" d="M52 23.26c7.62 0 14.56 4.19 18.12 10.95.42.79 1.16 1.35 2.04 1.54a3.056 3.056 0 0 0 2.49-.59c2.53-2.01 5.56-3.07 8.77-3.07 7.79 0 14.12 6.34 14.12 14.12 0 1.35-.2 2.7-.59 4.02-.29.97-.07 2.01.58 2.78a3.01 3.01 0 0 0 2.3 1.07c.12 0 .23-.01.35-.02.53-.06 1-.09 1.43-.09 6.72 0 12.18 5.46 12.18 12.18s-5.46 12.18-12.18 12.18a12.2 12.2 0 0 1-4.11-.73c-.33-.12-.68-.18-1.01-.18-1.19 0-2.3.71-2.78 1.87a13.72 13.72 0 0 1-12.75 8.57c-3.84 0-7.55-1.64-10.16-4.5a2.993 2.993 0 0 0-2.47-.97c-.93.08-1.77.52-2.27 1.3-3.34 5.16-9.53 8.3-16.14 8.3h-.16c-6.97 0-13.29-3.49-16.5-9.06a2.96 2.96 0 0 0-2.55-1.47c-9.09-.16-16.48-7.66-16.48-16.74 0-8.45 6.32-15.59 14.71-16.62a2.998 2.998 0 0 0 2.63-3.15c-.03-.46-.04-.86-.04-1.22-.01-11.29 9.18-20.47 20.47-20.47m0-3c-12.97 0-23.48 10.51-23.48 23.48 0 .47.02.94.05 1.4-9.77 1.2-17.34 9.51-17.34 19.61 0 10.8 8.67 19.51 19.43 19.69C34.25 90.7 41.43 95 49.73 95h.18c7.95 0 14.89-3.85 18.66-9.67 3.07 3.36 7.47 5.51 12.37 5.51 7.02 0 13.02-4.3 15.52-10.42 1.6.58 3.33.91 5.13.91 8.38 0 15.18-6.79 15.18-15.18 0-8.38-6.8-15.18-15.18-15.18-.6 0-1.19.05-1.77.11.46-1.55.71-3.18.71-4.88 0-9.46-7.67-17.12-17.12-17.12-4.03 0-7.72 1.4-10.64 3.72C68.84 25.35 61.02 20.26 52 20.26z" opacity=".2"/><path fill="#64B5F6" d="M88.67 119.66a6.834 6.834 0 0 1-9.07 3.36c-3.43-1.57-4.94-5.63-3.36-9.07s11.83-10.25 11.83-10.25 2.17 12.53.6 15.96z"/><path fill="#90CAF9" d="M88.67 119.66a6.834 6.834 0 0 1-9.07 3.36c-3.43-1.57-4.94-5.63-3.36-9.07s11.83-10.25 11.83-10.25 2.17 12.53.6 15.96z"/><path fill="#64B5F6" d="M25.12 99.73c-1.57 3.43-5.63 4.94-9.07 3.36s-4.94-5.63-3.36-9.07 11.83-10.25 11.83-10.25 2.18 12.53.6 15.96z"/><path fill="#424242" d="M23.03 87.25c.67 4.99.94 10.19.27 11.65a4.859 4.859 0 0 1-4.4 2.82c-.7 0-1.37-.15-2.01-.44a4.845 4.845 0 0 1-2.38-6.41c.74-1.62 4.83-4.97 8.52-7.62m1.49-3.47s-10.25 6.81-11.83 10.25a6.849 6.849 0 0 0 3.36 9.07c.92.42 1.89.62 2.85.62 2.59 0 5.07-1.48 6.22-3.99 1.58-3.43-.6-15.95-.6-15.95z" opacity=".2"/><path fill="#90CAF9" d="M37.58 119.66c-1.57 3.43-5.63 4.94-9.07 3.36s-4.94-5.63-3.36-9.07 11.83-10.25 11.83-10.25 2.18 12.53.6 15.96z"/><path fill="#424242" d="M35.5 107.18c.9 6.45.74 10.62.27 11.65a4.859 4.859 0 0 1-4.4 2.82c-.7 0-1.37-.15-2.01-.44-1.17-.54-2.07-1.5-2.52-2.71s-.4-2.53.14-3.7c.73-1.62 4.83-4.97 8.52-7.62m1.48-3.46s-10.25 6.81-11.83 10.25a6.849 6.849 0 0 0 3.36 9.07c.92.42 1.89.62 2.85.62 2.59 0 5.07-1.48 6.22-3.99 1.58-3.44-.6-15.95-.6-15.95z" opacity=".2"/><path fill="#64B5F6" d="M63.75 109.7a6.834 6.834 0 0 1-9.07 3.36 6.834 6.834 0 0 1-3.36-9.07c1.57-3.43 11.83-10.25 11.83-10.25s2.17 12.52.6 15.96z"/><path fill="#424242" d="M61.67 97.21c.9 6.45.74 10.62.27 11.65a4.859 4.859 0 0 1-4.4 2.82c-.7 0-1.37-.15-2.01-.44a4.845 4.845 0 0 1-2.38-6.41c.73-1.61 4.83-4.96 8.52-7.62m1.48-3.46S52.9 100.56 51.32 104a6.849 6.849 0 0 0 3.36 9.07c.92.42 1.89.62 2.85.62 2.59 0 5.07-1.48 6.22-3.99 1.57-3.44-.6-15.95-.6-15.95z" opacity=".2"/><path fill="#64B5F6" d="M104.87 99.73a6.834 6.834 0 0 1-9.07 3.36c-3.43-1.57-4.94-5.63-3.36-9.07s11.83-10.25 11.83-10.25 2.17 12.53.6 15.96z"/><path fill="#424242" d="M102.77 87.25c.67 4.99.94 10.19.27 11.65a4.859 4.859 0 0 1-4.4 2.82c-.7 0-1.37-.15-2.01-.44a4.845 4.845 0 0 1-2.38-6.41c.74-1.62 4.84-4.97 8.52-7.62m1.49-3.47s-10.25 6.81-11.83 10.25a6.849 6.849 0 0 0 3.36 9.07c.92.42 1.89.62 2.85.62 2.59 0 5.07-1.48 6.22-3.99 1.58-3.43-.6-15.95-.6-15.95z" opacity=".2"/><g fill="#424242" opacity=".2"><path d="M86.58 107.18c.67 4.99.94 10.19.27 11.65a4.859 4.859 0 0 1-4.4 2.82c-.7 0-1.37-.15-2.01-.44a4.845 4.845 0 0 1-2.38-6.41c.74-1.61 4.83-4.96 8.52-7.62m1.49-3.46s-10.25 6.81-11.83 10.25a6.849 6.849 0 0 0 3.36 9.07c.92.42 1.89.62 2.85.62 2.59 0 5.07-1.48 6.22-3.99 1.57-3.44-.6-15.95-.6-15.95z"/><path d="M86.58 107.18c.67 4.99.94 10.19.27 11.65a4.859 4.859 0 0 1-4.4 2.82c-.7 0-1.37-.15-2.01-.44a4.845 4.845 0 0 1-2.38-6.41c.74-1.61 4.83-4.96 8.52-7.62m1.49-3.46s-10.25 6.81-11.83 10.25a6.849 6.849 0 0 0 3.36 9.07c.92.42 1.89.62 2.85.62 2.59 0 5.07-1.48 6.22-3.99 1.57-3.44-.6-15.95-.6-15.95z"/></g></svg>