<svg xmlns="http://www.w3.org/2000/svg" xmlns:xlink="http://www.w3.org/1999/xlink" viewBox="0 0 128 128"><linearGradient id="a" x1="21.603" x2="59.97" y1="59.213" y2="21.094" gradientUnits="userSpaceOnUse"><stop offset="0" stop-color="#FBE2BF"/><stop offset=".228" stop-color="#F4DBB8"/><stop offset=".557" stop-color="#E1C9A5"/><stop offset=".944" stop-color="#C2AC86"/><stop offset="1" stop-color="#BDA781"/></linearGradient><path fill="url(#a)" d="M83 47S60.5 17.75 54.67 11.17C44.9.14 28.03 7.51 18.84 13.84 8.67 20.83.78 34.73 8.33 45c2.14 2.91 6.65 7.45 9.17 10.17 7.87 8.49 14.84 14.36 21.13 21.14C46.94 85.27 83 47 83 47z"/><path fill="#C59278" d="M54.67 50.25c.78.63.82 1.95.11 2.64-.72.69-2.02.61-2.66-.15s-.5-2.05.28-2.67 2.04-.49 2.69.28"/><path fill="#C59278" d="M30.14 55.61c.78.63.82 1.95.11 2.64s-2.02.61-2.66-.15-.5-2.05.28-2.67 2.04-.49 2.69.28" opacity=".59"/><path fill="#C59278" d="M64.28 54.75c.78.63.82 1.95.11 2.64-.72.69-2.02.61-2.66-.15s-.5-2.05.28-2.67 2.04-.49 2.69.28m-6.59-20.26c.54 1.36 2.29 2.05 3.64 1.51 1.36-.54 2.14-2.18 1.79-3.59l-.39-.42c-.98-.66-2.16-1.24-3.31-.96-1.42.35-2.27 2.1-1.73 3.46zm1.36-2.18c.78-.62 2.05-.49 2.69.28l-.41-.1c.78.63.82 1.95.11 2.64-.72.69-2.02.61-2.66-.15-.65-.76-.51-2.05.27-2.67z"/><path fill="#C59278" d="M44.45 65.57c.73 1.83 3.09 2.78 4.93 2.04 1.83-.73 2.89-2.94 2.42-4.86l-.53-.56c-1.33-.89-2.92-1.67-4.48-1.29-1.92.46-3.08 2.83-2.34 4.67zm1.83-2.95c1.05-.84 2.76-.66 3.63.37l-.56-.14c1.05.85 1.11 2.64.15 3.57-.97.94-2.73.83-3.6-.2-.86-1.02-.67-2.76.38-3.6z" opacity=".65"/><path fill="#616161" d="m30.17 68 3.66-.83 8 .16L49.67 64l8-.67 4.66-5.83 8.5-7.33L72 37.25l.5-2.75 3 15-15.17 16.17-21.66 7z"/><defs><path id="b" d="M44.83 37.67c2.71-2.72 1.79-5.48 7.17-11.33 3.08-3.35 4.93-4.38 4.31-8.05-1.05-6.2-6.54-11.73-12.64-12.84s-12.12 1.73-18 4.23c-6.52 2.77-10.83 7.13-14.73 13.17-2.8 4.34-4.99 9.6-3.77 14.5C8.54 42.77 11.95 47.08 17 48c6.45 1.17 7.5 3.33 14-2 3.36-2.76 9.51-4 13.83-8.33z"/></defs><use fill="#99543D" xlink:href="#b"/><clipPath id="c"><use xlink:href="#b"/></clipPath><path fill="#59A822" d="M25.66 18.28c-1.03-.43-1.97-.3-2.74.15-.07-.23-.15-.46-.26-.68-1.2-2.42-4.32-3.5-6.99-1.8-1.32.84-2.18 2.09-2.48 3.4-.99.38-1.87 1.14-2.23 2.11-.32.84-.31 1.68-.05 2.39-2.42.8-4.5 2.78-4.9 5.32-.18 1.12.09 2.24.64 3.18-2.3 3-2.82 7.19-.19 9.63-.25.56-.43 1.16-.51 1.81-.36 2.97 1.65 5.85 4.8 5.93 3.54.09 6.21-3.38 6.55-6.53.12-1.11.03-2.15-.23-3.12h.05c2.24-.31 4.4-1.74 5.9-3.55a7.386 7.386 0 0 0 3.03-3.64c.43-1.13.53-2.23.41-3.29.25-.19.49-.39.71-.62 1.28-1.3 1.8-2.83 1.74-4.3 1.34-2.57-.74-5.35-3.25-6.39z" clip-path="url(#c)"/><g clip-path="url(#c)"><path fill="#FFDE3C" d="M31.6 8.12c-3.08-1.93-7.2-1.79-9.83 2.19-.25.38-.46.76-.62 1.14-2.39 1.18-4.26 3.34-4.68 6.32-.19 1.34-.05 2.56.32 3.66-.85 2.01-1 4.28-.16 6.49a8.437 8.437 0 0 0 2.64 4.2c-1.45 1.1-2.48 2.73-2.8 4.54-.6 3.44 1.53 6.56 4.86 7.44 3.45.91 7.05-.65 8.86-3.74 1.39-2.39 1.29-5.32.12-7.69 1.94-.07 3.94-1.11 5.29-3.5 1.35-2.4 1.28-4.99.32-7.29.01-.01.02-.03.02-.04 1.31-.96 2.43-2.14 3.17-3.67 1.44-3.01.87-6.65-1.68-8.77-1.94-1.62-4.04-1.88-5.83-1.28z"/><linearGradient id="d" x1="29.444" x2="39.677" y1="17.765" y2="46.218" gradientUnits="userSpaceOnUse"><stop offset=".153" stop-color="#99543D"/><stop offset=".327" stop-color="#904F3A"/><stop offset=".604" stop-color="#794230"/><stop offset=".948" stop-color="#532D21"/><stop offset="1" stop-color="#4D2A1F"/></linearGradient><path fill="url(#d)" d="M53.72 17.9c-2.73-2.48-8.11-1.84-12.12.85-2.38-.64-5.41-.23-8.24 1.26-4.63 2.45-7.48 7.25-6.56 10.98.04.16.1.3.15.45-4.2 1.66-8.27 3.89-10.75 7.58-2.8 4.15-2.23 9.02 2.06 10.48.65.22 1.34.32 2.06.34-.09.92.17 1.75.89 2.25-.05.62-.02 1.23.13 1.8.85 3.09 4.85 4.55 8.93 2.44 1.11-.58 2.05-1.27 2.79-2.04 2.93-.76 5.86-2.39 7.84-4.68 3.01-3.47 2.93-7.34.77-9.5 2.51-1.33 4.68-3.42 5.86-5.9.2-.42.35-.84.47-1.25 1.06-1.04 2-2.2 2.74-3.39.35-.23.69-.48 1.02-.75 4.05-3.32 4.8-8.34 1.96-10.92z"/><linearGradient id="e" x1="39.566" x2="58.409" y1="12.802" y2="32.901" gradientUnits="userSpaceOnUse"><stop offset="0" stop-color="#D67655"/><stop offset=".627" stop-color="#A15940"/><stop offset="1" stop-color="#874A36"/></linearGradient><path fill="url(#e)" d="M56.85 2.36c-2.98-1.19-7.12.93-9.5 4.3-2.12.19-4.44 1.42-6.25 3.47-2.97 3.35-3.75 8.07-1.84 10.81.08.11.17.21.26.32-2.86 2.59-5.44 5.6-6.29 9.31-.95 4.18 1.04 7.94 4.96 7.84.59-.01 1.18-.14 1.77-.34.21.77.68 1.36 1.43 1.54.15.52.37 1 .67 1.41 1.66 2.24 5.34 2.23 7.97-.69.72-.8 1.25-1.64 1.61-2.47 2.13-1.48 3.98-3.67 4.86-6.11 1.34-3.7.06-6.79-2.37-7.89 1.61-1.82 2.7-4.15 2.87-6.5.03-.4.02-.78-.01-1.15.53-1.16.92-2.37 1.14-3.55.21-.29.4-.59.59-.91 2.21-3.88 1.24-8.15-1.87-9.39z"/></g><g clip-path="url(#c)"><path fill="#FD7127" d="M38.25 20.32c1.15-1.04 2.17-2.63 1.18-4.15-.48-.74-1.39-1.06-2.23-.83-.8.21-1.4.92-1.8 1.61-.43.75-.76 1.69-.5 2.55.25.85 1.06 1.56 1.98 1.53 1.88-.05 2.56-2.47 2.58-3.98.03-1.65-2.53-1.65-2.56 0 0 .24-.02.47-.08.7-.07.26-.25.52-.3.77-.05.23-.49.09.36.13-.11-.01.56.04.51.09.12-.12.22-.52.33-.67.05-.07.11-.14.15-.2.16-.23.11-.02.02-.07-.13-.02-.26-.04-.4-.07-.06-.05-.12-.11-.18-.16-.02 0-.03-.07-.03-.07.06 0-.14.31-.2.39-.18.23-.42.42-.63.61-1.23 1.12.59 2.92 1.8 1.82z"/></g><g clip-path="url(#c)"><path fill="#FD7127" d="M30.69 41.7c1.76-.3 2.1-2.88.66-3.78-1.57-.98-3.4.44-3.68 2.03-.14.82-.06 1.72.41 2.43.52.8 1.44 1.25 2.38.94 1.75-.57 2.13-3.14 1.19-4.51-.39-.57-1.12-.83-1.75-.46-.56.33-.85 1.18-.46 1.75.07.11.14.17.16.3.04.19-.11.37-.08.53 0 .01-.04.03-.03.05l.7-.01c.03-.03-.04-.25-.04-.31 0-.12.08-.3.07-.4-.05-.34.09.11-.02-.07-.11-.17-.44-.17-.48-.46-.01-.06-.03-.11-.01-.17.04-.1.61-.37.29-.31-.68.12-1.06.96-.89 1.57.21.71.9 1 1.58.88z"/></g><g clip-path="url(#c)"><path fill="#FD7127" d="M42.82 28.91c-.24.3-.95-.36-1.23-.23-.01-.03-.03-.06-.04-.1l.03.11c-.01-.04-.02-.07-.02-.11-.01.14-.01.16 0 .07.09-.13-.09.16-.01.02l-.04.05c.03-.01.13-.05.15-.06.09-.05.23.11.02-.02.12.07.16.07.21.21.02.06-.02.12-.03.18.01-.13.08-.11 0-.02-.1.12-.03 0 .03-.02-.09.06-.09.07-.02.02.07-.04.07-.04.01-.01s-.06.03.01.01c.08-.02.07-.02 0 0-.1-.01-.19.03-.29-.03-.2-.25-.39-.51-.59-.76-.01-.04-.03-.24.01-.09.03.09-.05.04.03-.04-1.12 1.21.69 3.02 1.81 1.81.63-.68.99-1.8.49-2.66-.44-.76-1.54-.9-2.3-.63-1.67.58-2.34 2.75-.95 4 1.4 1.25 3.46.4 3.92-1.32.2-.75.07-1.67-.48-2.25-.65-.7-1.92-.71-2.53.07-.43.54-.53 1.28 0 1.81.44.43 1.38.54 1.81-.01z"/></g><g clip-path="url(#c)"><path fill="#7C4535" d="M47.26 15.29c.36-.77.86-1.23 1.73-1.19l-1.28-1.28c-.04.46-.94 1.72-1.4 1.18.12.3.25.6.37.9.04.36 1.07-.83.75-.44.36-.12.46-.34.31-.68-.05-.26-.06-.52-.01-.78.27-.99 1.33-1.12 2.18-1.06-.22-.79-.43-1.59-.65-2.38-.41.21-.62-.03-.96-.02-.21-.25-.35-.15-.41.31-.35.3-.33.54.05.72-.12-.3-.25-.6-.37-.9 0-.05 2.1-.29 1.74.31s-1.2-.19-1.53-.23c-.17.06-.35.12-.52.17.11.07.21.15.32.22.13.27.33.44.41.76.19.8-.32 1.6-.95 2.04-1.35.92-.07 3.14 1.29 2.21 1.59-1.09 2.63-2.96 2.13-4.93-.4-1.56-1.89-3.12-3.63-2.81-1.89.33-2.07 2.56-1.07 3.87 1.06 1.39 3.19 1.85 4.74 1.03 1.54-.82 2-2.78.83-4.13-1.08-1.25-3.54-1.6-4.87-.57-1.68 1.31-.38 3.72 1.44 4 1.93.3 2.97-2 1.44-3.22-1.45-1.17-4.27-.49-3.66 1.78.57 2.13 3.19 2.49 4.87 1.62 1.2-.62.54-2.31-.65-2.38-1.71-.11-3.46.56-4.31 2.12-.77 1.43-.58 3.38.94 4.21 1.32.72 3.32.21 3.79-1.35.5-1.67-1.26-2.82-2.73-2.71-1.61.12-2.88 1.49-2.7 3.13.18 1.62 1.87 2.58 3.32 1.74 1.32-.76 1.67-2.65.42-3.65-1.17-.93-3.13-.64-4.05.51-1.32 1.66.28 3.38 2.1 3.26 2.02-.13 3.41-1.94 3.57-3.83.06-.71-.64-1.25-1.28-1.28-1.71-.08-3.23.91-3.94 2.46-.67 1.46 1.54 2.77 2.23 1.27z"/></g><g clip-path="url(#c)"><path fill="#7C4535" d="M46.92 17.13c-1.35 2.08-2.93 8.12.44 9.4 3.73 1.42 4.09-6.32 3.56-8.33-.16-.61-.94-1.16-1.57-.89-3.12 1.31-3.95 5.91-2.26 8.73 2.28 3.81 5.16.1 5.64-2.74.39-2.3-.42-7.83-3.96-6.7-2.75.88-3.69 5.06-1.8 7.14 2.43 2.67 5.41.14 5.96-2.65.44-2.22-.76-6.89-3.81-4.92-2.1 1.36-2.39 5.65.85 5.44 2.87-.18 4.19-4.75 1.91-6.45-2.6-1.95-5.42 1.15-4.96 3.85.66 3.84 4.75 2.71 6.13.03 1.13-2.19.83-7.62-2.96-6.49-2.97.88-3.38 5.41-.98 7.08 2.42 1.69 5.79-.41 6.16-3.11.48-3.53-3.31-6.24-6.51-4.91-3 1.24-4.37 5.42-1.8 7.78 2.84 2.6 7.05-.13 8.5-2.98 1.64-3.22-.06-8.16-4.34-7.33-3.83.74-5.39 6.57-2.73 9.26 2.74 2.77 7.15 1.08 8.3-2.36 1.05-3.13-1.46-7.02-4.66-4.45-1.28 1.03.54 2.83 1.81 1.81.72.85.75 1.62.09 2.33-.4 1.11-1.31 1.59-2.72 1.44-1.58-.97-2-2.1-1.28-3.4.23-1.9 1.46-1.92 3.69-.05.26 1.06-1.17 2.94-2.02 3.35-1.13 1.11-2.18.49-3.16-1.87 2.23-2.09 3.1-1.97 2.61.36.11 1.82-.12 3.62-.67 5.38-.6.19-1.19.38-1.79.58.07.07.65-4.78 1.57-.95.13.55.03 4.58-1.06 3.69-.93-.75.1-4.1.94-4.45-.52-.3-1.05-.6-1.57-.89.5 1.88.41 4.32-1.28 5.63l1.24-.33c-.61-.2-.44-2.66-.37-3.07.16-1.02.53-1.84 1.09-2.7.88-1.35-1.34-2.63-2.23-1.26z"/></g><g clip-path="url(#c)"><path fill="#7C4535" d="M51.61 28.26c1.75-1.24 2.31-.79 1.68 1.35-.38 1.96-1.47 2.33-3.25 1.11 0-1.08.4-2.02 1.18-2.82 2.94.17 3.91 1.02 2.92 2.54-.75 3.24-3.69 1.28-3.1-1.25.38-1.61 1.14-2.94 2.5-1.74l-.33-1.24c-.55.34-1.1.69-1.65 1.03l.89.89c-.05-.92-.1-1.84-.16-2.76.3-1.63.73-1.94 1.3-.92.75.51.62.88-.41 1.09-.75.63-1.63.83-2.63.58l.89.89c.86-1.57 1.08-1.73.65-.48-1.75 3.7-2.3 4.45-1.64 2.27.02-1.11.66-1.73 1.91-1.86.89-.21 1.73-.13 2.53.24.11-.84.23-1.68.34-2.51-.42-.86-.84-1.72-1.27-2.58-1-1.33-.96-1.99.1-1.96.64-.31 2.49-.39 1 .77l-1.24.33c-.03.01-.06.03-.08.04v-1.29c-.07.16-.14.31-.21.47-.68 1.49 1.53 2.79 2.21 1.29.99-2.18-1.68-4.34-3.1-2.05-1.41 2.26 1.66 4.13 3.42 2.52 1.86-1.7.36-4.95-2.13-4.59-3.21.46-3.63 4.93-.95 6.42 2.43 1.36 6.43-.41 6.11-3.48-.33-3.2-4.63-3.6-6.97-2.52-2.84 1.31-3.76 5.41-1.08 7.4 2.55 1.9 6.03.17 6.93-2.64 1.25-3.87-3.1-5.59-5.58-2.85-2.64 2.91-.8 6.85 2.85 7.29 1.51.18 1.62-2.07.34-2.51-3.45-1.19-9.58 1.16-7.88 5.72 1.4 3.76 7.4 3.62 6.66-.98-.63-3.93-6.64-3.65-5.92.37.67 3.79 6.16 2.11 5.66-1.42-.54-3.8-6.27-2.24-5.09 1.06 1.54 4.3 6.42-2.08 5.92-4.77-.74-3.96-6.77-.85-6.19 2.38.81 4.46 8.14.02 8.63-2.88.82-4.86-5.59-3.8-7.13-.56-.78 1.64-.84 3.72.3 5.21.88 1.15 2.77 2 4.04.88 2.66-2.35-3.35-5.99-4.62-2.41-1.31 3.67 5.55 3.04 5.72-.43.19-3.71-5.93-1.69-5.99 1.56-.03 1.57 1.16 2.85 2.76 2.82 1.89-.03 3.36-1.87 3.87-3.53 1.51-4.95-4.03-5.84-6.38-2.1-1.76 2.8-3.2 10.64 2.6 9.69 4.3-.7 6.65-8.57 2.17-10.62-4.29-1.97-9.2 4.63-6.5 8.3 3.5 4.74 8.61-2.07 7.56-6.05-.47-1.76-1.93-3.89-3.99-3.65-2.79.33-2.94 3.51-2.64 5.63.23 1.61 2.7.92 2.47-.69z"/></g><g clip-path="url(#c)"><path fill="#7C4535" d="M48.13 17.04c-.92.05-1.03-.99-.96-1.72.02-.24.12-.49.14-.73.02-.27.2-.29-.05-.23-.37.09.18.14.25.17.18.08.39.09.57.19.75.39-.32.67-.8.72-.22.02-1.02-.12-1.15-.01s.1.35.24.4c.16.05.58-.01.76.01 1.61.25 2.31-2.22.68-2.47-1.47-.22-3-.15-3.82 1.29-.71 1.25-.06 2.76 1.3 3.18 2.24.69 6.31-.48 5.59-3.52-.54-2.27-4.67-3.53-5.78-1.13-1.14 2.45-.29 6.57 3.04 6.4 1.63-.08 1.64-2.64-.01-2.55z"/></g><path fill="#FD7127" d="M14.56 38.17c.84 1.49 3.05 1.41 3.99.08 1.02-1.44-.09-3.39-1.69-3.74-1.76-.39-3.25 1.13-3.3 2.83-.01.48.08 1.09.44 1.45.35.35.9.44 1.37.47.96.07 1.85-.31 2.56-.94.51-.45.46-1.31 0-1.77-.5-.5-1.26-.45-1.77 0-.29.25-.61.25-.95.14l.87.87c-.05-.19-.02-.42.11-.56.01-.01.2-.16.04-.07-.07.04.03-.01.06 0-.07-.04.2.08.07.04.16.05.04.14.07-.07 0-.03.11-.27 0-.01.01-.01.12-.15.12-.14-.11.06-.13.07-.06.03.06-.03.06-.03-.01-.01-.14.03.2.06-.07 0 .07.02.15.01.2.06-.27-.28.27.43.07.06-.75-1.38-2.91-.12-2.12 1.28zm8.75-15.97c.62 1.08 2.18 1.13 2.99.25 1.04-1.13.13-2.86-1.23-3.13-1.4-.28-2.55.96-2.54 2.3 0 1.95 2.4 1.61 3.43.7.95-.83-.44-2.22-1.39-1.39-.22.19-.48.19-.74.11l.69.69c-.04-.14-.05-.33.08-.44-.04.03.14-.1.08-.06 0 0 .15.06.12.08-.11.09.25-.42.05-.19.05-.06-.01.04-.08-.01.06.04.18 0 .24.1-.63-1.1-2.33-.11-1.7.99z"/><defs><path id="g" d="m120.66 88.67-3.72-6.21-4.74-5.47-3.78-7-6.26-4.96-5.85-5.28-3.66-5.39-3.2-5.85-6.67-2.66-3.02-6.04-2.83-5.17-4.48-.41.42 4.28.13 9.16L71.33 54l-8.83 4.33-5 6.5-7.17.33L42.5 69l-6.15-.55-6.66-.95-1.16 1.11 4.9 5.03 5.73 4.27 4.03 5.91 5.84 4.2 7.26 7.57 4.84 4.41 4.96 4.54 4.66 7.08 6.16 5.5 5.61 6.23 6.82.66 6.07-.93 5.9-1.5 9.35-3.53 6.25-8.51 4.69-4.68 1.82-8.31-2.76-7.88z"/></defs><linearGradient id="f" x1="61.652" x2="107.32" y1="101.33" y2="55.326" gradientUnits="userSpaceOnUse"><stop offset="0" stop-color="#B3B3B3"/><stop offset=".592" stop-color="#B8B8B8"/><stop offset=".712" stop-color="#ACACAC"/><stop offset=".931" stop-color="#8B8B8B"/><stop offset=".995" stop-color="gray"/></linearGradient><use fill="url(#f)" xlink:href="#g"/><path fill="#FFDE3C" d="M21.01 18.65c1.08-1.59 2.87-1.64 4.27-.87.75-.34 1.54-.52 2.29-.45.37-.33.74-.65 1.12-.97 1.74-1.49 3.42-3.31 5.4-4.44 0-1.02-.13-2.1-.41-3.25-.1-.4-.04-.75.11-1.04-.99-.21-1.96-.14-2.85.17-3-1.93-7.01-1.79-9.57 2.19-.24.38-.44.76-.61 1.14-2.33 1.18-4.15 3.34-4.55 6.32-.18 1.34-.05 2.56.31 3.66-.82 2.01-.97 4.28-.15 6.49.17.64.43 1.25.74 1.84.6-.17 1.23-.21 1.86-.17.06-.2.16-.4.31-.6 1.25-1.54 2.15-3.27 3.11-4.98-1.69-1.15-2.76-3.02-1.38-5.04z"/><path fill="#424242" d="M41.61 8.54c4.55 0 8.12 1.52 10.9 4.66 2.55 2.87 8.87 10.78 18.28 22.87.5.64 1.23 1.05 2.04 1.14l1.8.2.57.12 2 3.7 3 5.99c.33.66.89 1.17 1.57 1.44l5.67 2.26 2.68 4.9.15.24 3.66 5.39c.14.2.29.38.47.54l5.85 5.28.15.12 5.77 4.58 3.49 6.46c.1.19.23.37.37.54l4.57 5.27 3.42 5.72 2.37 6.79-1.45 6.62-4.06 4.06c-.11.11-.21.22-.3.35l-5.72 7.79-8.36 3.16-5.6 1.42-5.56.85-5.29-.51-4.83-5.36c-.07-.08-.15-.16-.23-.23l-5.87-5.24-4.44-6.75c-.14-.21-.3-.4-.48-.56l-4.97-4.55-4.76-4.34-7.19-7.5c-.13-.13-.26-.25-.41-.36l-5.41-3.9-3.73-5.48c-.19-.28-.42-.52-.69-.72l-5.54-4.12-3.02-3.1c.39-1.09.13-2.34-.74-3.19l-.3-.29c-3.71-3.56-7.54-7.25-11.65-11.68-.61-.66-1.35-1.43-2.13-2.26-2.36-2.49-5.3-5.59-6.82-7.64-3.32-4.51-2.61-9.48-1.43-12.86 1.58-4.52 4.97-9.13 9.32-12.64.39-.32.7-.73.89-1.2.6-1.48 1.74-2.3 2.59-2.73a3.03 3.03 0 0 0 1.4-1.49c.1-.24.23-.48.38-.71.86-1.34 1.91-2.02 3.12-2.02.7 0 1.43.22 2.13.64.47.28 1 .42 1.54.42.35 0 .7-.06 1.03-.18 3.54-1.25 6.84-1.91 9.8-1.91m0-3c-3.6 0-7.31.85-10.84 2.14-1.13-.68-2.4-1.06-3.67-1.06-2.05 0-4.11 1-5.65 3.4-.24.38-.44.76-.61 1.14-1.76.89-3.22 2.34-4.01 4.28-9.1 7.35-15.45 20.05-8.41 29.6 2.14 2.91 6.65 7.45 9.17 10.17 4.28 4.62 8.29 8.45 12.07 12.09l-1.04 1.35 4.9 5.03 5.73 4.27 4.03 5.91 5.84 4.2 7.26 7.57 4.84 4.41 4.96 4.54 4.66 7.08 6.16 5.5 5.61 6.23 6.82.66 6.07-.93 5.9-1.49 9.35-3.53 6.25-8.51 4.69-4.68 1.82-8.31-2.75-7.88-3.72-6.21-4.74-5.47-3.78-7-6.26-4.96-5.85-5.28-3.66-5.39-3.2-5.85-6.67-2.66-3.02-6.04-2.82-5.21-1.19-.03-.75-.16-1.94-.22c-6.81-8.74-15.17-19.36-18.4-23.01-3.66-4.14-8.3-5.69-13.15-5.69z" opacity=".2"/><path fill="#9C9C9C" d="M90.34 118.56c-1.47-.05-2.94-.26-4.37-.63-.71-.19-1.56-.64-1.47-1.36.1-.78 1.15-.95 1.94-.91 2.93.15 5.87.29 8.8.44.24.01.49.03.7.14.54.3.53 1.15.12 1.61s-1.06.63-1.67.72c-1.87.29-3.8.14-5.61-.41"/><path fill="#B8B8B8" d="M83.6 78.48c-.74.04-1.7.27-1.77 1.01 1.91 1.08 3.95 2.09 6.14 2.18 1.21.05 7.56-2.7 5.14-4.14-.53-.31-2.91.57-3.57.64-1.96.2-3.97.2-5.94.31z"/><path fill="#8C8C8C" d="M88.94 80.52c-.71-.88-1.24-1.8-1.42-2.72 5.7 2.46 11.86 3.85 18.06 4.06-2.68 2.94-9.96 3.98-9.96 3.98s-4.32-2.4-6.68-5.32z"/><path fill="#fff" d="M79.59 74.93c1.87.01 3.79.4 5.34 1.44-1.83.01-3.65-.04-5.47-.15-1.19-.07-3.98.16-4.83-.64 1.5-.53 3.37-.66 4.96-.65z"/><path fill="#B8B8B8" d="M99.33 69.28c-4.27 2.06-8.62 1.76-13.14 2.46 2.17-.52 4.3-1.16 6.5-1.58 1.12-.21 2.25-.39 3.38-.54.9-.12 2.46.04 3.26-.34z"/><path fill="#fff" d="M68.29 75.28c-2.38.37-6.18.53-8.41-.52 1.4-.09 2.85.01 4.25.1 1.26.08 2.94.61 4.16.42z"/><path fill="#E3E3E3" d="M79.1 66.23c1.12-2.88 2.23-5.75 3.35-8.63.19-.49.38-.99.37-1.51-.02-.74-.54-2.12-1.41-1.69-.63.31-.73 3.07-.84 3.7-.49 2.72-.98 5.43-1.47 8.13z"/><path fill="#DBDBDB" d="M73.27 105.11c.17-1.19 5.9-4.33 6.23-5.49-.79 0-5.78.53-6.38 0s-2.33-.17-3.01-.58c-1.02-.62-2.26-.79-3.31-1.37.38 1.38 2.14 2.18 3.13 3.11.74.7 3.5 3.23 3.34 4.33z"/><path fill="#616161" d="M95.64 109.65c.3.77-.24 1.61-.79 2.23-.74.83-3.59 3.59-4.66 2.2 1.09-.54 2.78-.66 3.1-1.84 2.6-9.67 3.81-7.39 2.35-2.59zM94.6 98.84c-1.52-3.59-2.37-8.43-2.37-8.43l-2.21-4.66-2.8 9.55s-6.51 7.31-10.09 10.68c1.42-.76 17.04-8.15 17.47-7.14zm17.58 6.7c.89-1.27 1.37-2.78 1.85-4.26.4 1.49.04 3.1-.66 4.47-.71 1.37-1.75 2.54-2.79 3.67-.13.14-.26.28-.43.34-.19.07-.4.03-.59-.01-2.15-.42-4.25-1.08-6.25-1.95 1.22.53 3.6.35 4.93.21 1.61-.17 3.01-1.14 3.94-2.47z"/><path fill="#E3E3E3" d="M66.25 96.5c2.5-1.03 6.76-.34 8.94-1.94-.45.33-9.49-5.88-10.82-5.93 1.89 1.9 1.52 5.3 1.88 7.87z"/><path fill="#616161" d="M41.23 72.2c8.09 3.15 14.11 7.68 9.4 6.86-1.65-.29-3.66-.29-5.01-1.35-1.71-1.34-3.05-3.81-4.39-5.51zm29.48-13.49c1.97-2.65 3.72-5.45 5.23-8.38.24 2.04-.35 4.08-1.03 6.01-.78 2.17-1.69 4.3-2.75 6.35-.08.16-.18.34-.35.42-.18.08-.38.03-.58-.01-.91-.17-1.84.04-2.75.25-.94.22-1.89.47-2.84.63.71-1.75 3.82-3.55 5.07-5.27z"/><path fill="#969696" d="M62.77 66.32c-2.34 1.71-4.68 3.41-7.02 5.12-2.62.1-5.19.54-7.78.75.14-1.37 5.43-2.3 6.76-2.78 2.4-.86 5.97-1.59 8.04-3.09z"/><path fill="#616161" d="M64.56 83.3c.49 0 1.01.01 1.45-.21.43-.21.74-.6 1.03-.98.93-1.22 1.86-2.45 2.8-3.67-.65 2.36-1.48 4.68-2.48 6.91-.54-.4-1.26-.47-1.93-.53-2.41-.2-5.09-.13-7.43-.68 1.93-.83 4.47-.84 6.56-.84z"/><path fill="#9E9E9E" d="M63.77 67.8c.2-.28.41-.57.72-.72.23-.11.49-.12.75-.13 4.2-.12 8.42.96 12.04 3.08-3.23-.27-6.49-.49-9.71-.16-3 .31-5.91 1.13-8.53 2.65 1.81-1.31 3.41-2.91 4.73-4.72z"/><path fill="#616161" d="M102.3 97.45c-.6 1.04-1.53 2.19-2.71 2 5.79-.51 12 1.49 17.24-1.03-2.9-1.57-6.26-2.3-9.55-2.08-.45.03-.97.06-1.3-.26-.23-.22-.3-.57-.34-.89-.5-4.27 3.68-9.05 1.96-13.05-1.49 5.3-2.48 10.4-5.3 15.31z"/><path fill="#E3E3E3" d="M96.93 112.65c.28-.27.55-.55.73-.9.22-.41.29-.88.37-1.34l.99-6.15c.4 3.2.79 6.4 1.19 9.6-.08-.67-5 .39-5.45.33.75-.47 1.51-.92 2.17-1.54z"/><path fill="#616161" d="M69.91 86.22c-.43.84-.92 1.77-1.8 2.09 1.83.27 6.17 4.2 7.73 5.19-.56-.71-1.54-4.11-1.67-5-.13-.95-1.95-2.64-1.76-3.59.29-1.45 3.58-7.02 4.09-8.41-1.49 1.6-5.58 7.78-6.59 9.72z"/></svg>