<svg xmlns="http://www.w3.org/2000/svg" viewBox="0 0 128 128"><path fill="#E1F5FE" d="M76 80.34V16.29C76 9.77 70.82 4 64.3 4h-1.55C56.24 4 51 9.77 51 16.29v64.04c-7 4.2-11.24 11.68-11.24 20.2 0 13.14 10.64 23.8 23.79 23.8s23.74-10.65 23.74-23.8C87.28 92.01 83 84.54 76 80.34z"/><linearGradient id="a" x1="67.014" x2="63.285" y1="38.588" y2="104.92" gradientUnits="userSpaceOnUse"><stop offset=".597" stop-color="#EF5350"/><stop offset="1" stop-color="#E53935"/></linearGradient><path fill="url(#a)" d="M69.92 85.89V23.82c0-3.53-2.86-6.39-6.39-6.39s-6.39 2.86-6.39 6.39V85.9c-5.82 2.54-9.83 8.44-9.58 15.25.3 8.19 6.99 14.96 15.18 15.36 9.19.44 16.78-6.87 16.78-15.96a16 16 0 0 0-9.6-14.66z"/><path fill="#616161" d="M62.87 39.76H50.95v-6.39h11.92c1.66 0 3 1.34 3 3v.39c0 1.66-1.34 3-3 3zm0 18.56H50.95v-6.39h11.92c1.66 0 3 1.34 3 3v.39c0 1.65-1.34 3-3 3zm0 18.56H50.95v-6.39h11.92c1.66 0 3 1.34 3 3v.39c0 1.65-1.34 3-3 3z"/><path fill="none" d="M69.92 85.89V23.82c0-3.53-2.86-6.39-6.39-6.39s-6.39 2.86-6.39 6.39V85.9c-5.82 2.54-9.83 8.44-9.58 15.25.3 8.19 6.99 14.96 15.18 15.36 9.19.44 16.78-6.87 16.78-15.96a16 16 0 0 0-9.6-14.66z" opacity=".2"/><path fill="#424242" d="M64.15 7C68.87 7 73 11.26 73 16.29v64.04c0 1.05.55 2.03 1.46 2.57 6.15 3.69 9.82 10.28 9.82 17.63 0 11.47-9.3 20.8-20.74 20.8-11.46 0-20.79-9.33-20.79-20.8 0-7.36 3.66-13.95 9.79-17.63A3.01 3.01 0 0 0 54 80.33V16.29C54 11.26 58.01 7 62.76 7H64m.3-3h-1.55C56.24 4 51 9.77 51 16.29v64.04c-7 4.2-11.24 11.68-11.24 20.2 0 13.14 10.64 23.8 23.79 23.8s23.74-10.65 23.74-23.8c0-8.52-4.28-16-11.28-20.2V16.29C76 9.77 70.82 4 64.3 4z" opacity=".2"/></svg>