<svg xmlns="http://www.w3.org/2000/svg" viewBox="0 0 128 128"><radialGradient id="a" cx="67.07" cy="67.368" r="62.259" gradientUnits="userSpaceOnUse"><stop offset=".175" stop-color="#BDBDBD"/><stop offset=".517" stop-color="#E0E0E0"/><stop offset=".853" stop-color="#fff"/></radialGradient><path fill="url(#a)" d="M52.43 53.33c-4.52-3.2-11.39-9.92-16.55-17.73-4.15-6.27-8.4-15.12-5.08-21.62 1.39-2.72 3.28-3.29 4.62-3.29 1.44 0 2.98.64 4.66 1.95.08-2.16.6-3.78 1.56-4.88.9-1.03 2.16-1.57 3.67-1.57.55 0 1.14.07 1.77.22 7.12 1.63 11.16 10.58 13.3 17.8 2.66 8.98 3.39 18.56 2.93 24.08l-.1 1.2-1.19.17c-2.89.4-5.56 1.64-7.72 3.58l-.89.8-.98-.71z"/><path fill="#BDBDBD" d="M45.3 7.69c.43 0 .91.06 1.43.18C58.19 10.5 62.77 36.5 61.8 48.16c-3.16.44-6.13 1.82-8.51 3.95-9.55-6.76-26.51-26.97-21.16-37.44.88-1.71 2-2.47 3.28-2.47 1.86 0 4.08 1.59 6.39 4.15-.71-5.11.1-8.66 3.5-8.66m0-3c-1.95 0-3.61.72-4.8 2.09-.76.88-1.3 1.98-1.61 3.33-1.19-.61-2.35-.91-3.48-.91-1.44 0-4.13.53-5.95 4.1-2.89 5.66-1.1 13.65 5.16 23.13 5.27 7.96 12.3 14.84 16.94 18.12l1.95 1.38 1.78-1.6c1.94-1.74 4.34-2.85 6.93-3.21l2.38-.33.2-2.39c.47-5.66-.27-15.47-2.99-24.63-3.23-10.9-8.21-17.41-14.4-18.83-.74-.17-1.45-.25-2.11-.25z"/><radialGradient id="b" cx="68.242" cy="66.072" r="62.141" gradientUnits="userSpaceOnUse"><stop offset=".175" stop-color="#BDBDBD"/><stop offset=".517" stop-color="#E0E0E0"/><stop offset=".853" stop-color="#fff"/></radialGradient><path fill="url(#b)" d="M39.24 65.31c-11.08 0-30.73-2.78-34.1-13.18-.65-2.02-.49-3.72.47-5.04.98-1.34 2.67-2.16 5.14-2.46-1.65-1.78-2.43-3.45-2.36-5.08.07-1.69 1.05-3.13 2.89-4.29 1.8-1.13 3.98-1.7 6.49-1.7 11.85 0 28.57 12.71 34.6 19.83l.78.92-.73.96c-.87 1.14-1.56 2.42-2.06 3.8-.49 1.35-.78 2.76-.85 4.19l-.06 1.2-1.18.2c-2.53.42-5.65.65-9.03.65z"/><path fill="#BDBDBD" d="M17.77 35.06c10.95 0 27.12 11.83 33.45 19.3-.94 1.24-1.72 2.65-2.28 4.19-.56 1.53-.86 3.08-.94 4.62-2.4.41-5.43.64-8.77.64-12.71 0-29.8-3.28-32.67-12.14-1.33-4.12 1.64-5.68 6.64-5.68.45 0 .91.01 1.39.04-4.65-3.52-6.52-6.98-2.52-9.49 1.64-1.03 3.57-1.48 5.7-1.48m0-3c-2.8 0-5.25.65-7.29 1.92-2.85 1.79-3.53 3.97-3.59 5.49-.06 1.39.34 2.77 1.22 4.18-1.64.53-2.87 1.38-3.72 2.54-.87 1.2-1.69 3.27-.69 6.39C7.1 63.08 24.96 66.8 39.22 66.8c3.47 0 6.68-.23 9.27-.68l2.36-.4.13-2.4c.07-1.28.33-2.54.77-3.76.45-1.24 1.07-2.38 1.85-3.4l1.46-1.92-1.56-1.84c-7.04-8.31-23.82-20.34-35.73-20.34z"/><radialGradient id="c" cx="63.86" cy="67.43" r="63.471" gradientUnits="userSpaceOnUse"><stop offset=".175" stop-color="#BDBDBD"/><stop offset=".517" stop-color="#E0E0E0"/><stop offset=".853" stop-color="#fff"/></radialGradient><path fill="url(#c)" d="M72.77 52.45c-1.15-.87-2.43-1.57-3.8-2.06-1.35-.49-2.76-.78-4.19-.86l-1.2-.06-.2-1.18c-.93-5.46-1.04-15.08.83-24.24 1.5-7.37 4.75-16.63 11.7-18.87.8-.26 1.57-.39 2.27-.39 1.35 0 2.52.49 3.41 1.42.97 1.02 1.58 2.54 1.83 4.59 1.7-1.58 3.32-2.36 4.88-2.36 1.22 0 2.98.5 4.48 2.89 3.88 6.19.41 15.37-3.18 21.99-4.46 8.23-10.73 15.52-14.95 19.1l-.92.78-.96-.75z"/><path fill="#BDBDBD" d="M78.17 6.28c3.08 0 4.09 3.39 3.84 8.35 2.18-2.89 4.35-4.71 6.28-4.71 1.17 0 2.26.67 3.21 2.19 6.24 9.97-8.9 31.58-17.83 39.15-1.24-.94-2.65-1.72-4.19-2.28a15.77 15.77 0 0 0-4.63-.94c-1.97-11.54.32-37.82 11.51-41.43.67-.23 1.27-.33 1.81-.33m0-3c-.86 0-1.78.16-2.73.47-6.04 1.95-10.44 8.87-12.7 20-1.91 9.35-1.79 19.19-.84 24.79l.4 2.36 2.39.13c1.29.07 2.55.33 3.76.77 1.23.45 2.38 1.07 3.41 1.85l1.92 1.45 1.83-1.55c4.33-3.67 10.74-11.13 15.3-19.53 5.42-9.99 6.5-18.12 3.13-23.5-1.86-2.97-4.16-3.6-5.75-3.6-1.3 0-2.6.41-3.92 1.23-.39-1.21-.96-2.21-1.7-2.99-1.18-1.23-2.73-1.88-4.5-1.88z"/><radialGradient id="d" cx="62.514" cy="66.247" r="62.183" gradientUnits="userSpaceOnUse"><stop offset=".175" stop-color="#BDBDBD"/><stop offset=".517" stop-color="#E0E0E0"/><stop offset=".853" stop-color="#fff"/></radialGradient><path fill="url(#d)" d="M83.18 63.46c-1.23 0-2.39-.04-3.44-.13l-1.2-.1-.17-1.19c-.4-2.88-1.64-5.55-3.58-7.72l-.79-.89.69-.98c5.8-8.19 22.14-22.82 34.08-22.82 1.95 0 3.72.4 5.26 1.18 1.94.99 3.03 2.34 3.25 4.02.21 1.61-.42 3.35-1.91 5.26 2.56.1 4.39.82 5.46 2.15.98 1.23 1.24 2.85.79 4.84-2.81 12.26-27.58 16.38-38.44 16.38z"/><path fill="#BDBDBD" d="M108.77 31.14c1.66 0 3.2.32 4.58 1.02 4.21 2.15 2.65 5.76-1.68 9.67 1.12-.16 2.16-.24 3.1-.24 3.95 0 6.24 1.45 5.38 5.17-2.41 10.48-24.33 15.2-36.98 15.2-1.19 0-2.31-.04-3.31-.13-.44-3.16-1.82-6.13-3.95-8.51 5.88-8.3 21.89-22.18 32.86-22.18m0-3c-12.46 0-29.35 15.03-35.31 23.45l-1.38 1.95 1.6 1.78c1.74 1.94 2.85 4.34 3.21 6.92l.33 2.38 2.39.2c1.09.09 2.28.14 3.56.14 11.71 0 36.86-4.28 39.91-17.53.7-3.05-.2-5.01-1.08-6.11-.94-1.19-2.31-1.99-4.09-2.4.75-1.48 1.04-2.9.85-4.28-.2-1.51-1.06-3.63-4.06-5.16-1.74-.89-3.73-1.34-5.93-1.34z"/><radialGradient id="e" cx="66.901" cy="61.644" r="62.132" gradientUnits="userSpaceOnUse"><stop offset=".175" stop-color="#BDBDBD"/><stop offset=".517" stop-color="#E0E0E0"/><stop offset=".853" stop-color="#fff"/></radialGradient><path fill="url(#e)" d="M49.83 123.28c-1.35 0-2.52-.49-3.41-1.42-.97-1.02-1.58-2.54-1.83-4.58-1.7 1.58-3.32 2.36-4.88 2.36-1.22 0-2.98-.5-4.48-2.89-3.88-6.19-.41-15.37 3.18-21.99 4.46-8.23 10.73-15.52 14.95-19.1l.92-.78.96.72a14.59 14.59 0 0 0 7.99 2.93l1.2.07.2 1.18c.93 5.46 1.04 15.08-.83 24.24-1.5 7.37-4.75 16.63-11.7 18.88-.81.24-1.57.38-2.27.38z"/><path fill="#BDBDBD" d="M54.33 76.8c1.24.94 2.65 1.72 4.19 2.28 1.53.56 3.08.86 4.62.94 1.97 11.54-.32 37.82-11.51 41.43-.67.22-1.27.32-1.81.32-3.08 0-4.09-3.39-3.84-8.35-2.18 2.89-4.35 4.71-6.28 4.71-1.17 0-2.26-.67-3.21-2.19-6.24-9.96 8.91-31.58 17.84-39.14m-.11-3.84-1.83 1.55c-4.33 3.67-10.74 11.13-15.3 19.53-5.42 9.99-6.5 18.12-3.13 23.5 1.86 2.97 4.16 3.6 5.75 3.6 1.3 0 2.6-.41 3.92-1.23.39 1.21.96 2.2 1.7 2.99 1.17 1.23 2.73 1.88 4.49 1.88.86 0 1.78-.16 2.73-.47 6.04-1.95 10.43-8.87 12.7-20 1.91-9.35 1.8-19.19.84-24.79l-.4-2.36-2.39-.13c-1.29-.07-2.55-.33-3.76-.77-1.23-.45-2.38-1.07-3.41-1.85l-1.91-1.45z"/><radialGradient id="f" cx="62.451" cy="63.027" r="62.468" gradientUnits="userSpaceOnUse"><stop offset="0" stop-color="#C4C4C4"/><stop offset=".092" stop-color="#CCCDCF"/><stop offset=".362" stop-color="#E0E0E2"/><stop offset=".753" stop-color="#F7F7F7"/><stop offset="1" stop-color="#fff"/></radialGradient><path fill="url(#f)" d="M110.23 94.49c-11.85 0-28.57-12.71-34.6-19.83l-.78-.92.72-.96c.88-1.16 1.57-2.43 2.07-3.8.49-1.35.78-2.76.86-4.19l.06-1.2 1.18-.2c2.51-.43 5.63-.66 9.01-.66 11.08 0 30.73 2.78 34.1 13.18.65 2.02.5 3.72-.47 5.04-.98 1.34-2.67 2.16-5.14 2.46 1.65 1.78 2.43 3.45 2.36 5.08-.07 1.69-1.05 3.13-2.89 4.28-1.79 1.15-3.97 1.72-6.48 1.72z"/><path fill="#BDBDBD" d="M88.76 64.24c12.71 0 29.81 3.28 32.67 12.15 1.34 4.12-1.64 5.69-6.64 5.69-.45 0-.91-.01-1.39-.04 4.65 3.51 6.52 6.98 2.52 9.49-1.63 1.02-3.56 1.47-5.7 1.47-10.95 0-27.12-11.83-33.45-19.3.94-1.24 1.72-2.65 2.28-4.19.56-1.53.86-3.08.94-4.63 2.4-.41 5.43-.64 8.77-.64m0-3c-3.47 0-6.67.23-9.27.68l-2.36.4-.13 2.4a13.111 13.111 0 0 1-2.62 7.17l-1.45 1.92 1.55 1.83C81.53 83.96 98.31 96 110.22 96c2.8 0 5.25-.65 7.29-1.93 2.85-1.78 3.52-3.97 3.59-5.49.06-1.39-.34-2.77-1.22-4.18 1.64-.53 2.87-1.38 3.72-2.54.87-1.2 1.69-3.27.68-6.39-3.39-10.5-21.26-14.23-35.52-14.23z"/><radialGradient id="g" cx="68.177" cy="62.845" r="63.194" gradientUnits="userSpaceOnUse"><stop offset=".175" stop-color="#BDBDBD"/><stop offset=".517" stop-color="#E0E0E0"/><stop offset=".853" stop-color="#fff"/></radialGradient><path fill="url(#g)" d="M19.22 98.42c-1.95 0-3.72-.4-5.26-1.18-1.94-.99-3.03-2.34-3.25-4.02-.21-1.61.42-3.35 1.91-5.26-2.56-.1-4.4-.82-5.46-2.15-.98-1.23-1.24-2.85-.79-4.84C9.19 68.72 33.96 64.6 44.82 64.6c1.24 0 2.39.04 3.44.13l1.2.1.17 1.19c.4 2.88 1.64 5.55 3.58 7.72l.8.89-.69.98c-5.81 8.18-22.15 22.81-34.1 22.81z"/><path fill="#BDBDBD" d="M44.82 66.1c1.19 0 2.31.04 3.31.13.44 3.16 1.82 6.13 3.95 8.51-5.87 8.3-21.89 22.18-32.86 22.18-1.66 0-3.2-.32-4.58-1.02-4.2-2.15-2.65-5.76 1.69-9.67-1.12.16-2.16.24-3.1.24-3.95 0-6.24-1.45-5.39-5.17 2.41-10.48 24.33-15.2 36.98-15.2m0-3c-11.71 0-36.86 4.28-39.91 17.53-.7 3.05.2 5.01 1.07 6.11.94 1.19 2.31 1.99 4.09 2.4-.75 1.48-1.04 2.9-.86 4.27.2 1.51 1.06 3.63 4.05 5.16 1.75.9 3.75 1.35 5.94 1.35 12.46 0 29.35-15.03 35.31-23.45l1.38-1.95-1.6-1.78a13.07 13.07 0 0 1-3.21-6.92l-.33-2.38-2.39-.2c-1.06-.1-2.26-.14-3.54-.14z"/><radialGradient id="h" cx="63.673" cy="61.704" r="62.469" gradientUnits="userSpaceOnUse"><stop offset=".175" stop-color="#BDBDBD"/><stop offset=".517" stop-color="#E0E0E0"/><stop offset=".853" stop-color="#fff"/></radialGradient><path fill="url(#h)" d="M82.7 121.86c-.55 0-1.14-.07-1.76-.21-7.12-1.63-11.16-10.58-13.3-17.8-2.66-8.98-3.39-18.56-2.93-24.08l.1-1.2L66 78.4c2.89-.4 5.56-1.64 7.72-3.58l.89-.8.98.69c4.52 3.2 11.39 9.92 16.55 17.72 4.15 6.28 8.4 15.12 5.08 21.62-1.39 2.72-3.28 3.29-4.62 3.29-1.44 0-2.98-.64-4.66-1.95-.08 2.16-.6 3.77-1.56 4.88-.91 1.05-2.18 1.59-3.68 1.59z"/><path fill="#BDBDBD" d="M74.71 75.94c9.55 6.76 26.51 26.97 21.16 37.44-.88 1.72-2 2.47-3.28 2.47-1.86 0-4.08-1.59-6.39-4.15.72 5.12-.09 8.67-3.5 8.67-.43 0-.91-.06-1.43-.18-11.47-2.63-16.04-28.64-15.08-40.29 3.17-.45 6.14-1.83 8.52-3.96m-.22-3.83-1.78 1.6a13.036 13.036 0 0 1-6.92 3.21l-2.38.33-.2 2.39c-.47 5.66.27 15.47 2.99 24.63 3.23 10.9 8.21 17.41 14.4 18.84.73.17 1.44.25 2.1.25 1.95 0 3.61-.72 4.8-2.09.76-.88 1.3-1.98 1.61-3.33 1.19.61 2.35.91 3.47.91 1.44 0 4.13-.53 5.95-4.11 2.89-5.66 1.1-13.65-5.16-23.13-5.27-7.97-12.3-14.84-16.94-18.12l-1.94-1.38z"/><radialGradient id="i" cx="64" cy="64.026" r="16.724" gradientUnits="userSpaceOnUse"><stop offset=".003" stop-color="#FF8F00"/><stop offset="1" stop-color="#FFB300"/></radialGradient><circle cx="64" cy="64.03" r="16.72" fill="url(#i)" stroke="#A67C52" stroke-miterlimit="10" stroke-width="3"/></svg>