<svg xmlns="http://www.w3.org/2000/svg" viewBox="0 0 128 128"><path fill="#558B2F" d="M2.74 55s3.5 5.35 11 6.01c8.41.74 20.48 6.96 40.86 25.28s20.31 20.78 30.47 25.89 14.86 6.23 20.7.76-20.1-21.93-39.25-32.06-34.17-20.55-42.67-22.39c-9.16-1.98-11.07 1.49-15.09-.5S2.74 55 2.74 55z"/><path fill="#424242" d="M18.59 59.86c1.49.01 3.08.21 4.84.59 5.15 1.11 13.1 5.72 23.17 11.55 5.66 3.28 12.08 7 18.99 10.65 21.97 11.61 38.38 23.48 39.01 28.22.04.32-.02.45-.19.61-2.31 2.16-4.26 3.08-6.54 3.08-3.01 0-6.78-1.59-11.89-4.17-6.34-3.19-8.48-5.25-14.81-11.37-3.41-3.29-8.08-7.81-15.22-14.23C36.6 67.42 25.52 61.74 18.59 59.86M2.74 55s3.5 5.35 11 6.01c8.41.74 20.48 6.96 40.86 25.28s20.31 20.78 30.47 25.89c5.52 2.78 9.44 4.38 12.79 4.38 2.82 0 5.24-1.12 7.91-3.62 5.84-5.47-20.1-21.93-39.25-32.06-19.16-10.13-34.17-20.55-42.67-22.39-2.18-.47-3.95-.63-5.44-.63-3.25 0-5.14.77-6.99.77-.85 0-1.69-.16-2.66-.64-4.02-2-6.02-2.99-6.02-2.99z" opacity=".2"/><linearGradient id="a" x1="66.018" x2="127.02" y1="88.497" y2="187.75" gradientTransform="scale(-1 1) rotate(45 115.822 -88.743)" gradientUnits="userSpaceOnUse"><stop offset="0" stop-color="#FBC02D"/><stop offset="1" stop-color="#F57C00"/></linearGradient><path fill="url(#a)" d="M43.22 74.77C17.1 45.41 6.14 21.58 11.91 14.16c6.68-5.03 31.25 5.2 60.6 31.32 28.23 25.11 38.77 47.55 30.38 59.67-12.85 9.12-34.56-2.15-59.67-30.38z"/><radialGradient id="b" cx="85.133" cy="76.691" r="111.44" gradientTransform="scale(-1 1) rotate(45 115.822 -88.743)" gradientUnits="userSpaceOnUse"><stop offset=".059" stop-color="#FFEE58"/><stop offset=".265" stop-color="#FEE54F"/><stop offset=".603" stop-color="#FCCC38"/><stop offset=".744" stop-color="#FBC02D"/></radialGradient><path fill="url(#b)" d="M33.37 37.39c.64-.68.96-1.02 1.62-1.64.71-.67.26-2.17-.98-3.31-.21-.19-.31-.29-.52-.48-1.23-1.13-2.77-1.56-3.43-.96-.61.56-.91.87-1.48 1.51-.62.69-.19 2.23.95 3.45.19.21.29.31.49.52 1.14 1.22 2.66 1.65 3.35.91z"/><radialGradient id="c" cx="86.507" cy="78.692" r="92.904" gradientTransform="scale(-1 1) rotate(45 115.822 -88.743)" gradientUnits="userSpaceOnUse"><stop offset=".059" stop-color="#FFEE58"/><stop offset=".265" stop-color="#FEE54F"/><stop offset=".603" stop-color="#FCCC38"/><stop offset=".744" stop-color="#FBC02D"/></radialGradient><path fill="url(#c)" d="M28 31.93c.56-.63.86-.94 1.46-1.49.65-.59.25-1.93-.89-2.96l-.48-.43c-1.13-1.02-2.53-1.43-3.13-.91-.56.48-.81.76-1.31 1.35-.53.63-.13 2.04.9 3.16.17.19.26.28.44.47 1.04 1.11 2.4 1.49 3.01.81z"/><radialGradient id="d" cx="88.002" cy="80.073" r="72.946" gradientTransform="scale(-1 1) rotate(45 115.822 -88.743)" gradientUnits="userSpaceOnUse"><stop offset=".059" stop-color="#FFEE58"/><stop offset=".265" stop-color="#FEE54F"/><stop offset=".603" stop-color="#FCCC38"/><stop offset=".744" stop-color="#FBC02D"/></radialGradient><path fill="url(#d)" d="M23.14 26.95c.49-.58.74-.86 1.29-1.33.59-.51.23-1.68-.79-2.59l-.43-.38c-1.01-.9-2.28-1.29-2.81-.87-.49.4-.71.65-1.12 1.17-.44.56-.06 1.84.85 2.84.15.17.23.26.39.43.91 1.01 2.1 1.35 2.62.73z"/><radialGradient id="e" cx="89.591" cy="80.779" r="54.299" gradientTransform="scale(-1 1) rotate(45 115.822 -88.743)" gradientUnits="userSpaceOnUse"><stop offset=".059" stop-color="#FFEE58"/><stop offset=".265" stop-color="#FEE54F"/><stop offset=".603" stop-color="#FCCC38"/><stop offset=".744" stop-color="#FBC02D"/></radialGradient><path fill="url(#e)" d="M18.82 22.48c.4-.52.62-.76 1.1-1.15.52-.42.21-1.41-.7-2.21l-.38-.33c-.9-.78-2.01-1.16-2.47-.82-.43.31-.6.52-.93.98-.35.49.01 1.62.8 2.52.13.15.2.23.34.38.8.89 1.81 1.18 2.24.63z"/><radialGradient id="f" cx="91.247" cy="80.758" r="42.19" gradientTransform="scale(-1 1) rotate(45 115.822 -88.743)" gradientUnits="userSpaceOnUse"><stop offset=".059" stop-color="#FFEE58"/><stop offset=".265" stop-color="#FEE54F"/><stop offset=".603" stop-color="#FCCC38"/><stop offset=".744" stop-color="#FBC02D"/></radialGradient><path fill="url(#f)" d="M15.06 18.53c.31-.45.48-.66.9-.96.45-.32.18-1.14-.6-1.81l-.33-.28c-.77-.66-1.73-1.02-2.12-.78-.36.22-.49.4-.72.79-.25.42.09 1.4.75 2.17l.28.33c.67.78 1.5 1.03 1.84.54z"/><radialGradient id="g" cx="83.906" cy="74.123" r="128" gradientTransform="scale(-1 1) rotate(45 115.822 -88.743)" gradientUnits="userSpaceOnUse"><stop offset=".059" stop-color="#FFEE58"/><stop offset=".265" stop-color="#FEE54F"/><stop offset=".603" stop-color="#FCCC38"/><stop offset=".744" stop-color="#FBC02D"/></radialGradient><path fill="url(#g)" d="M39.22 43.34c.7-.72 1.06-1.09 1.76-1.77.75-.74.25-2.39-1.09-3.64-.23-.21-.34-.32-.56-.53-1.33-1.24-2.99-1.7-3.7-1.02-.66.63-.99.97-1.63 1.66-.69.74-.24 2.4 1.01 3.72.21.22.32.33.53.56 1.26 1.32 2.93 1.79 3.68 1.02z"/><radialGradient id="h" cx="82.851" cy="71.042" r="142.8" gradientTransform="scale(-1 1) rotate(45 115.822 -88.743)" gradientUnits="userSpaceOnUse"><stop offset=".059" stop-color="#FFEE58"/><stop offset=".265" stop-color="#FEE54F"/><stop offset=".603" stop-color="#FCCC38"/><stop offset=".744" stop-color="#FBC02D"/></radialGradient><path fill="url(#h)" d="M45.54 49.73c.76-.76 1.14-1.14 1.87-1.89.79-.8.24-2.59-1.19-3.95-.24-.23-.36-.34-.6-.57-1.42-1.35-3.19-1.83-3.95-1.09-.7.69-1.06 1.06-1.77 1.79-.76.78-.28 2.56 1.08 3.97.23.24.35.36.58.6 1.36 1.43 3.17 1.96 3.98 1.14z"/><radialGradient id="i" cx="81.995" cy="67.381" r="156.45" gradientTransform="scale(-1 1) rotate(45 115.822 -88.743)" gradientUnits="userSpaceOnUse"><stop offset=".059" stop-color="#FFEE58"/><stop offset=".265" stop-color="#FEE54F"/><stop offset=".603" stop-color="#FCCC38"/><stop offset=".744" stop-color="#FBC02D"/></radialGradient><path fill="url(#i)" d="M52.31 56.57c.8-.78 1.21-1.18 1.96-1.97.82-.85.21-2.77-1.31-4.24-.26-.25-.38-.37-.64-.62-1.51-1.46-3.38-1.97-4.17-1.17-.74.75-1.12 1.13-1.88 1.9-.82.82-.31 2.69 1.15 4.2.25.25.37.38.62.64 1.47 1.51 3.4 2.1 4.27 1.26z"/><radialGradient id="j" cx="81.364" cy="64.106" r="167.09" gradientTransform="scale(-1 1) rotate(45 115.822 -88.743)" gradientUnits="userSpaceOnUse"><stop offset=".059" stop-color="#FFEE58"/><stop offset=".265" stop-color="#FEE54F"/><stop offset=".603" stop-color="#FCCC38"/><stop offset=".744" stop-color="#FBC02D"/></radialGradient><path fill="url(#j)" d="M59.42 63.74c.84-.8 1.26-1.21 2.03-2.03.42-.44.48-1.16.23-1.96-.24-.8-.79-1.68-1.59-2.46-.27-.26-.41-.4-.68-.66-1.59-1.56-3.54-2.11-4.36-1.26-.76.79-1.16 1.2-1.97 1.98-.87.84-.33 2.81 1.23 4.4.26.27.4.41.66.67.78.8 1.66 1.34 2.46 1.57.81.25 1.53.18 1.99-.25z"/><radialGradient id="k" cx="81.034" cy="67.774" r="162.07" gradientTransform="scale(-1 1) rotate(45 115.822 -88.743)" gradientUnits="userSpaceOnUse"><stop offset=".059" stop-color="#FFEE58"/><stop offset=".265" stop-color="#FEE54F"/><stop offset=".603" stop-color="#FCCC38"/><stop offset=".744" stop-color="#FBC02D"/></radialGradient><path fill="url(#k)" d="M66.23 70.6c.86-.8 1.29-1.21 2.06-2.06.83-.91.33-2.83-1.16-4.31l-.63-.63c-1.5-1.49-3.44-2.01-4.27-1.12-.77.83-1.19 1.24-2.04 2.04-.91.86-.39 2.82 1.09 4.32.25.25.38.38.62.63 1.48 1.49 3.4 1.98 4.33 1.13z"/><radialGradient id="l" cx="80.663" cy="73.25" r="153.77" gradientTransform="scale(-1 1) rotate(45 115.822 -88.743)" gradientUnits="userSpaceOnUse"><stop offset=".059" stop-color="#FFEE58"/><stop offset=".265" stop-color="#FEE54F"/><stop offset=".603" stop-color="#FCCC38"/><stop offset=".744" stop-color="#FBC02D"/></radialGradient><path fill="url(#l)" d="M72.52 77.07c.87-.78 1.33-1.22 2.09-2.08.81-.92.4-2.8-.97-4.19-.23-.24-.34-.36-.57-.6-1.38-1.4-3.22-1.84-4.05-.93-.77.85-1.27 1.34-2.14 2.13-.93.85-.59 2.79.81 4.19l.59.59c1.37 1.39 3.31 1.73 4.24.89z"/><radialGradient id="m" cx="81.356" cy="79.533" r="143.9" gradientTransform="scale(-1 1) rotate(45 115.822 -88.743)" gradientUnits="userSpaceOnUse"><stop offset=".059" stop-color="#FFEE58"/><stop offset=".265" stop-color="#FEE54F"/><stop offset=".603" stop-color="#FCCC38"/><stop offset=".744" stop-color="#FBC02D"/></radialGradient><path fill="url(#m)" d="M78.51 82.91c.86-.75 1.28-1.14 2-1.98.78-.91.41-2.68-.85-3.99-.21-.22-.32-.33-.53-.55-1.27-1.31-3-1.66-3.81-.75-.75.85-1.18 1.26-2.05 2.03-.93.83-.6 2.58.7 3.86.22.22.33.32.55.54 1.3 1.27 3.07 1.64 3.99.84z"/><radialGradient id="n" cx="81.998" cy="86.678" r="133.36" gradientTransform="scale(-1 1) rotate(45 115.822 -88.743)" gradientUnits="userSpaceOnUse"><stop offset=".059" stop-color="#FFEE58"/><stop offset=".265" stop-color="#FEE54F"/><stop offset=".603" stop-color="#FCCC38"/><stop offset=".744" stop-color="#FBC02D"/></radialGradient><path fill="url(#n)" d="M83.96 88.32c.83-.7 1.24-1.07 1.92-1.89.73-.88.41-2.56-.74-3.77-.19-.2-.29-.31-.48-.51-1.15-1.21-2.75-1.5-3.52-.59-.72.84-1.14 1.23-1.99 1.97-.92.8-.66 2.42.55 3.58.2.2.3.29.51.49 1.18 1.16 2.86 1.47 3.75.72z"/><radialGradient id="o" cx="82.947" cy="94.725" r="122.08" gradientTransform="scale(-1 1) rotate(45 115.822 -88.743)" gradientUnits="userSpaceOnUse"><stop offset=".059" stop-color="#FFEE58"/><stop offset=".265" stop-color="#FEE54F"/><stop offset=".603" stop-color="#FCCC38"/><stop offset=".744" stop-color="#FBC02D"/></radialGradient><path fill="url(#o)" d="M88.93 93.21c.79-.64 1.18-.98 1.8-1.76.66-.84.38-2.4-.64-3.51-.17-.19-.26-.28-.43-.47-1.03-1.11-2.48-1.34-3.21-.46-.67.81-1.08 1.19-1.91 1.88-.89.74-.69 2.22.41 3.26.19.18.28.26.46.44 1.1 1.03 2.67 1.31 3.52.62z"/><radialGradient id="p" cx="84.189" cy="103.71" r="110.16" gradientTransform="scale(-1 1) rotate(45 115.822 -88.743)" gradientUnits="userSpaceOnUse"><stop offset=".059" stop-color="#FFEE58"/><stop offset=".265" stop-color="#FEE54F"/><stop offset=".603" stop-color="#FCCC38"/><stop offset=".744" stop-color="#FBC02D"/></radialGradient><path fill="url(#p)" d="M93.41 97.57c.74-.56 1.1-.87 1.64-1.6.58-.78.33-2.22-.57-3.22-.15-.17-.23-.25-.38-.42-.91-1.01-2.2-1.18-2.86-.35-.61.77-.99 1.12-1.78 1.74-.85.68-.7 1.99.3 2.91.17.16.25.23.42.39.99.9 2.43 1.15 3.23.55z"/><radialGradient id="q" cx="85.708" cy="113.67" r="97.697" gradientTransform="scale(-1 1) rotate(45 115.822 -88.743)" gradientUnits="userSpaceOnUse"><stop offset=".059" stop-color="#FFEE58"/><stop offset=".265" stop-color="#FEE54F"/><stop offset=".603" stop-color="#FCCC38"/><stop offset=".744" stop-color="#FBC02D"/></radialGradient><path fill="url(#q)" d="M97.38 101.36c.67-.47 1-.74 1.45-1.4.49-.71.25-2-.52-2.89l-.33-.38c-.79-.9-1.91-1.03-2.48-.25-.53.72-.89 1.03-1.62 1.58-.79.59-.68 1.73.22 2.52l.38.33c.87.77 2.17 1 2.9.49z"/><radialGradient id="r" cx="87.49" cy="124.63" r="84.745" gradientTransform="scale(-1 1) rotate(45 115.822 -88.743)" gradientUnits="userSpaceOnUse"><stop offset=".059" stop-color="#FFEE58"/><stop offset=".265" stop-color="#FEE54F"/><stop offset=".603" stop-color="#FCCC38"/><stop offset=".744" stop-color="#FBC02D"/></radialGradient><path fill="url(#r)" d="M100.83 104.58c.6-.37.88-.59 1.23-1.16.38-.62.15-1.75-.5-2.53l-.28-.33c-.66-.79-1.59-.88-2.07-.18-.44.65-.76.91-1.43 1.37-.72.49-.64 1.43.15 2.09l.33.28c.79.64 1.93.85 2.57.46z"/><radialGradient id="s" cx="85.112" cy="76.496" r="103.37" gradientTransform="scale(-1 1) rotate(45 115.822 -88.743)" gradientUnits="userSpaceOnUse"><stop offset=".059" stop-color="#FFEE58"/><stop offset=".265" stop-color="#FEE54F"/><stop offset=".603" stop-color="#FCCC38"/><stop offset=".744" stop-color="#FBC02D"/></radialGradient><path fill="url(#s)" d="M29 42.79c.52-.75.79-1.12 1.36-1.85.6-.78.16-2.46-.98-3.7-.19-.21-.29-.31-.48-.52-1.13-1.23-2.47-1.6-2.99-.85-.49.7-.72 1.06-1.16 1.78-.48.78-.06 2.45.95 3.72.17.21.26.32.43.54 1 1.28 2.31 1.68 2.87.88z"/><radialGradient id="t" cx="86.358" cy="78.655" r="86.84" gradientTransform="scale(-1 1) rotate(45 115.822 -88.743)" gradientUnits="userSpaceOnUse"><stop offset=".059" stop-color="#FFEE58"/><stop offset=".265" stop-color="#FEE54F"/><stop offset=".603" stop-color="#FCCC38"/><stop offset=".744" stop-color="#FBC02D"/></radialGradient><path fill="url(#t)" d="M24.24 37.03c.43-.72.66-1.08 1.14-1.78.51-.75.09-2.3-.93-3.44l-.43-.48c-1.01-1.13-2.18-1.46-2.61-.75-.4.66-.58 1-.93 1.7-.38.75.03 2.32.91 3.49.15.2.22.3.37.5.89 1.2 2.02 1.54 2.48.76z"/><radialGradient id="u" cx="87.714" cy="80.419" r="70.074" gradientTransform="scale(-1 1) rotate(45 115.822 -88.743)" gradientUnits="userSpaceOnUse"><stop offset=".059" stop-color="#FFEE58"/><stop offset=".265" stop-color="#FEE54F"/><stop offset=".603" stop-color="#FCCC38"/><stop offset=".744" stop-color="#FBC02D"/></radialGradient><path fill="url(#u)" d="M20.04 31.73c.34-.69.52-1.03.91-1.69.42-.7.01-2.13-.89-3.16l-.38-.43c-.89-1.02-1.88-1.3-2.21-.64-.3.62-.44.93-.69 1.59-.27.71.12 2.16.87 3.24.13.18.19.27.32.46.78 1.08 1.71 1.37 2.07.63z"/><radialGradient id="v" cx="89.147" cy="81.769" r="55.068" gradientTransform="scale(-1 1) rotate(45 115.822 -88.743)" gradientUnits="userSpaceOnUse"><stop offset=".059" stop-color="#FFEE58"/><stop offset=".265" stop-color="#FEE54F"/><stop offset=".603" stop-color="#FCCC38"/><stop offset=".744" stop-color="#FBC02D"/></radialGradient><path fill="url(#v)" d="M16.42 26.89c.24-.66.37-.97.66-1.58.31-.66-.07-1.95-.84-2.86l-.33-.38c-.76-.91-1.57-1.15-1.79-.54-.2.57-.29.86-.43 1.48-.15.66.22 2 .84 2.97.1.16.16.25.26.41.64.97 1.37 1.2 1.63.5z"/><radialGradient id="w" cx="90.622" cy="82.706" r="44.613" gradientTransform="scale(-1 1) rotate(45 115.822 -88.743)" gradientUnits="userSpaceOnUse"><stop offset=".059" stop-color="#FFEE58"/><stop offset=".265" stop-color="#FEE54F"/><stop offset=".603" stop-color="#FCCC38"/><stop offset=".744" stop-color="#FBC02D"/></radialGradient><path fill="url(#w)" d="M13.38 22.54c.13-.61.21-.91.4-1.47.21-.6-.16-1.75-.8-2.55l-.27-.34c-.64-.79-1.25-.98-1.35-.43-.1.51-.13.79-.17 1.36-.04.62.33 1.83.82 2.68.08.14.12.22.21.36.49.88 1.02 1.05 1.16.39z"/><radialGradient id="x" cx="84.005" cy="73.978" r="118.75" gradientTransform="scale(-1 1) rotate(45 115.822 -88.743)" gradientUnits="userSpaceOnUse"><stop offset=".059" stop-color="#FFEE58"/><stop offset=".265" stop-color="#FEE54F"/><stop offset=".603" stop-color="#FCCC38"/><stop offset=".744" stop-color="#FBC02D"/></radialGradient><path fill="url(#x)" d="M34.31 48.96c.6-.77.92-1.15 1.55-1.91.69-.81.21-2.59-1.04-3.93-.21-.23-.32-.34-.52-.56-1.24-1.33-2.74-1.75-3.35-.96-.57.73-.85 1.1-1.38 1.86-.57.81-.13 2.57.99 3.93.19.23.29.34.48.58 1.14 1.35 2.62 1.81 3.27.99z"/><radialGradient id="y" cx="83.064" cy="71.14" r="132.72" gradientTransform="scale(-1 1) rotate(45 115.822 -88.743)" gradientUnits="userSpaceOnUse"><stop offset=".059" stop-color="#FFEE58"/><stop offset=".265" stop-color="#FEE54F"/><stop offset=".603" stop-color="#FCCC38"/><stop offset=".744" stop-color="#FBC02D"/></radialGradient><path fill="url(#y)" d="M40.14 55.52c.68-.78 1.02-1.17 1.73-1.94.76-.83.25-2.71-1.1-4.14-.23-.24-.34-.36-.57-.6-1.35-1.42-3-1.89-3.69-1.08-.65.76-.96 1.14-1.57 1.91-.66.83-.2 2.67 1.05 4.11.21.24.32.37.53.61 1.25 1.44 2.89 1.97 3.62 1.13z"/><radialGradient id="z" cx="82.317" cy="68.028" r="145.34" gradientTransform="scale(-1 1) rotate(45 115.822 -88.743)" gradientUnits="userSpaceOnUse"><stop offset=".059" stop-color="#FFEE58"/><stop offset=".265" stop-color="#FEE54F"/><stop offset=".603" stop-color="#FCCC38"/><stop offset=".744" stop-color="#FBC02D"/></radialGradient><path fill="url(#z)" d="M46.49 62.45c.74-.78 1.12-1.17 1.88-1.95.82-.84.28-2.8-1.18-4.32-.25-.26-.37-.38-.61-.64-1.45-1.51-3.24-2.04-4.01-1.2-.71.77-1.06 1.16-1.75 1.94-.74.84-.25 2.74 1.12 4.26.23.26.35.38.58.64 1.37 1.52 3.18 2.11 3.97 1.27z"/><radialGradient id="A" cx="81.79" cy="65.206" r="155.72" gradientTransform="scale(-1 1) rotate(45 115.822 -88.743)" gradientUnits="userSpaceOnUse"><stop offset=".059" stop-color="#FFEE58"/><stop offset=".265" stop-color="#FEE54F"/><stop offset=".603" stop-color="#FCCC38"/><stop offset=".744" stop-color="#FBC02D"/></radialGradient><path fill="url(#A)" d="M53.27 69.63c.79-.77 1.2-1.16 2.01-1.94.87-.84.36-2.8-1.19-4.39-.26-.27-.39-.41-.66-.68-1.55-1.6-3.47-2.18-4.3-1.34-.77.78-1.15 1.17-1.9 1.95-.8.84-.28 2.8 1.2 4.39.25.27.38.4.63.67 1.48 1.59 3.35 2.17 4.21 1.34z"/><radialGradient id="B" cx="81.575" cy="68.418" r="153.4" gradientTransform="scale(-1 1) rotate(45 115.822 -88.743)" gradientUnits="userSpaceOnUse"><stop offset=".059" stop-color="#FFEE58"/><stop offset=".265" stop-color="#FEE54F"/><stop offset=".603" stop-color="#FCCC38"/><stop offset=".744" stop-color="#FBC02D"/></radialGradient><path fill="url(#B)" d="M59.86 76.39c.83-.75 1.25-1.12 2.09-1.89.91-.82.49-2.68-.98-4.17-.25-.25-.37-.38-.62-.63-1.47-1.5-3.44-2.07-4.32-1.23-.81.78-1.22 1.17-2.02 1.94-.86.83-.36 2.74 1.06 4.21.24.25.36.37.6.62 1.43 1.45 3.29 1.95 4.19 1.15z"/><radialGradient id="C" cx="81.665" cy="72.861" r="148.04" gradientTransform="scale(-1 1) rotate(45 115.822 -88.743)" gradientUnits="userSpaceOnUse"><stop offset=".059" stop-color="#FFEE58"/><stop offset=".265" stop-color="#FEE54F"/><stop offset=".603" stop-color="#FCCC38"/><stop offset=".744" stop-color="#FBC02D"/></radialGradient><path fill="url(#C)" d="M66.12 82.57c.86-.71 1.28-1.06 2.14-1.79.92-.78.59-2.53-.79-3.9l-.58-.58c-1.39-1.39-3.31-1.88-4.22-1.06-.85.76-1.27 1.14-2.1 1.88-.9.8-.49 2.58.87 3.91.23.23.34.34.57.56 1.36 1.31 3.19 1.74 4.11.98z"/><radialGradient id="D" cx="82.017" cy="77.871" r="141.32" gradientTransform="scale(-1 1) rotate(45 115.822 -88.743)" gradientUnits="userSpaceOnUse"><stop offset=".059" stop-color="#FFEE58"/><stop offset=".265" stop-color="#FEE54F"/><stop offset=".603" stop-color="#FCCC38"/><stop offset=".744" stop-color="#FBC02D"/></radialGradient><path fill="url(#D)" d="M72.05 88.15c.86-.65 1.29-.98 2.16-1.66.93-.73.66-2.34-.63-3.6-.22-.21-.33-.32-.55-.53-1.3-1.27-3.15-1.69-4.08-.91-.86.72-1.29 1.08-2.15 1.78-.92.75-.59 2.38.7 3.57.22.2.33.3.54.5 1.29 1.18 3.08 1.55 4.01.85z"/><radialGradient id="E" cx="82.677" cy="83.461" r="133.53" gradientTransform="scale(-1 1) rotate(45 115.822 -88.743)" gradientUnits="userSpaceOnUse"><stop offset=".059" stop-color="#FFEE58"/><stop offset=".265" stop-color="#FEE54F"/><stop offset=".603" stop-color="#FCCC38"/><stop offset=".744" stop-color="#FBC02D"/></radialGradient><path fill="url(#E)" d="M77.61 93.12c.86-.58 1.28-.88 2.13-1.49.91-.66.71-2.12-.49-3.26-.2-.19-.3-.29-.51-.48-1.21-1.15-2.98-1.51-3.91-.79-.86.67-1.29 1-2.15 1.65-.93.69-.66 2.14.56 3.2.21.18.31.27.51.44 1.22 1.03 2.94 1.35 3.86.73z"/><radialGradient id="F" cx="83.626" cy="89.626" r="124.93" gradientTransform="scale(-1 1) rotate(45 115.822 -88.743)" gradientUnits="userSpaceOnUse"><stop offset=".059" stop-color="#FFEE58"/><stop offset=".265" stop-color="#FEE54F"/><stop offset=".603" stop-color="#FCCC38"/><stop offset=".744" stop-color="#FBC02D"/></radialGradient><path fill="url(#F)" d="M82.81 97.45c.83-.49 1.25-.75 2.07-1.29.88-.58.73-1.88-.37-2.89-.19-.17-.28-.26-.47-.43-1.11-1.03-2.79-1.34-3.7-.69-.85.61-1.27.9-2.12 1.47-.92.61-.71 1.88.44 2.79l.48.38c1.13.91 2.77 1.19 3.67.66z"/><radialGradient id="G" cx="84.844" cy="96.339" r="115.74" gradientTransform="scale(-1 1) rotate(45 115.822 -88.743)" gradientUnits="userSpaceOnUse"><stop offset=".059" stop-color="#FFEE58"/><stop offset=".265" stop-color="#FEE54F"/><stop offset=".603" stop-color="#FCCC38"/><stop offset=".744" stop-color="#FBC02D"/></radialGradient><path fill="url(#G)" d="M87.62 101.14c.8-.39 1.19-.6 1.97-1.05.84-.48.73-1.6-.28-2.48-.17-.15-.25-.23-.43-.38-1.01-.9-2.59-1.18-3.46-.61-.82.53-1.23.78-2.06 1.27-.89.52-.73 1.58.33 2.35.18.13.27.19.45.32 1.07.75 2.62 1.01 3.48.58z"/><radialGradient id="H" cx="86.307" cy="103.53" r="106.16" gradientTransform="scale(-1 1) rotate(45 115.822 -88.743)" gradientUnits="userSpaceOnUse"><stop offset=".059" stop-color="#FFEE58"/><stop offset=".265" stop-color="#FEE54F"/><stop offset=".603" stop-color="#FCCC38"/><stop offset=".744" stop-color="#FBC02D"/></radialGradient><path fill="url(#H)" d="M92.02 104.17c.75-.28 1.12-.43 1.84-.78.78-.37.7-1.29-.2-2.04-.15-.13-.23-.19-.38-.32-.91-.77-2.36-1.01-3.19-.54-.77.44-1.17.64-1.96 1.02-.85.41-.73 1.26.25 1.87.17.1.25.15.41.26.98.6 2.43.83 3.23.53z"/><radialGradient id="I" cx="87.978" cy="111.06" r="96.427" gradientTransform="scale(-1 1) rotate(45 115.822 -88.743)" gradientUnits="userSpaceOnUse"><stop offset=".059" stop-color="#FFEE58"/><stop offset=".265" stop-color="#FEE54F"/><stop offset=".603" stop-color="#FCCC38"/><stop offset=".744" stop-color="#FBC02D"/></radialGradient><path fill="url(#I)" d="M96.01 106.52c.69-.15 1.02-.25 1.68-.47.71-.24.65-.95-.15-1.56-.13-.1-.2-.16-.34-.26-.81-.63-2.12-.86-2.89-.5-.72.33-1.08.48-1.83.74-.8.29-.7.9.19 1.36.15.08.23.12.38.19.9.44 2.22.67 2.96.5z"/><radialGradient id="J" cx="85.313" cy="76.434" r="128.15" gradientTransform="scale(-1 1) rotate(45 115.822 -88.743)" gradientUnits="userSpaceOnUse"><stop offset=".059" stop-color="#FFEE58"/><stop offset=".265" stop-color="#FEE54F"/><stop offset=".603" stop-color="#FCCC38"/><stop offset=".744" stop-color="#FBC02D"/></radialGradient><path fill="url(#J)" d="M38.43 32.81c.72-.55 1.08-.82 1.83-1.33.8-.55.39-1.85-.9-2.85-.22-.17-.33-.25-.54-.42-1.28-.99-2.96-1.41-3.74-.94-.72.44-1.08.66-1.77 1.14-.74.51-.34 1.83.9 2.95.21.19.31.28.53.47 1.25 1.12 2.92 1.57 3.69.98z"/><radialGradient id="K" cx="86.628" cy="78.583" r="111.72" gradientTransform="scale(-1 1) rotate(45 115.822 -88.743)" gradientUnits="userSpaceOnUse"><stop offset=".059" stop-color="#FFEE58"/><stop offset=".265" stop-color="#FEE54F"/><stop offset=".603" stop-color="#FCCC38"/><stop offset=".744" stop-color="#FBC02D"/></radialGradient><path fill="url(#K)" d="M32.7 27.88c.68-.47 1.04-.69 1.76-1.12.78-.46.42-1.56-.77-2.45-.2-.15-.3-.22-.5-.37-1.19-.87-2.76-1.27-3.51-.91-.69.34-1.03.52-1.68.91-.7.42-.34 1.57.79 2.57.19.17.29.25.48.42 1.14 1.03 2.69 1.45 3.43.95z"/><radialGradient id="L" cx="88.061" cy="80.347" r="89.876" gradientTransform="scale(-1 1) rotate(45 115.822 -88.743)" gradientUnits="userSpaceOnUse"><stop offset=".059" stop-color="#FFEE58"/><stop offset=".265" stop-color="#FEE54F"/><stop offset=".603" stop-color="#FCCC38"/><stop offset=".744" stop-color="#FBC02D"/></radialGradient><path fill="url(#L)" d="M27.43 23.49c.64-.38.98-.55 1.67-.88.74-.35.45-1.27-.65-2.03-.18-.13-.28-.19-.46-.32-1.08-.74-2.55-1.14-3.26-.88-.66.24-.97.37-1.58.66-.65.31-.34 1.29.69 2.17.17.15.26.22.44.38 1.04.9 2.46 1.31 3.15.9z"/><radialGradient id="M" cx="89.586" cy="81.704" r="61.637" gradientTransform="scale(-1 1) rotate(45 115.822 -88.743)" gradientUnits="userSpaceOnUse"><stop offset=".059" stop-color="#FFEE58"/><stop offset=".265" stop-color="#FEE54F"/><stop offset=".603" stop-color="#FCCC38"/><stop offset=".744" stop-color="#FBC02D"/></radialGradient><path fill="url(#M)" d="M22.65 19.65c.6-.28.91-.41 1.56-.63.7-.24.47-.96-.52-1.59-.17-.11-.25-.16-.41-.26-.98-.62-2.32-1-2.98-.86-.62.13-.91.21-1.46.41-.6.21-.34 1 .58 1.76.15.13.23.19.39.32.91.76 2.2 1.15 2.84.85z"/><radialGradient id="N" cx="91.175" cy="82.654" r="44.304" gradientTransform="scale(-1 1) rotate(45 115.822 -88.743)" gradientUnits="userSpaceOnUse"><stop offset=".059" stop-color="#FFEE58"/><stop offset=".265" stop-color="#FEE54F"/><stop offset=".603" stop-color="#FCCC38"/><stop offset=".744" stop-color="#FBC02D"/></radialGradient><path fill="url(#N)" d="M18.39 16.37c.55-.18.84-.26 1.45-.38.66-.13.49-.65-.38-1.15-.15-.08-.22-.13-.36-.21-.86-.49-2.07-.87-2.68-.85-.57.02-.84.05-1.34.14-.54.1-.33.7.46 1.34.13.11.2.16.34.27.79.66 1.92 1.03 2.51.84z"/><radialGradient id="O" cx="84.144" cy="73.937" r="141.48" gradientTransform="scale(-1 1) rotate(45 115.822 -88.743)" gradientUnits="userSpaceOnUse"><stop offset=".059" stop-color="#FFEE58"/><stop offset=".265" stop-color="#FEE54F"/><stop offset=".603" stop-color="#FCCC38"/><stop offset=".744" stop-color="#FBC02D"/></radialGradient><path fill="url(#O)" d="M44.6 38.26c.74-.63 1.12-.93 1.88-1.53.82-.64.35-2.11-1.03-3.24-.23-.19-.35-.29-.58-.47-1.37-1.12-3.14-1.55-3.94-.98-.75.53-1.12.8-1.84 1.36-.78.6-.33 2.09 1.01 3.31l.57.52c1.35 1.23 3.13 1.71 3.93 1.03z"/><radialGradient id="P" cx="83.145" cy="71.132" r="152.96" gradientTransform="scale(-1 1) rotate(45 115.822 -88.743)" gradientUnits="userSpaceOnUse"><stop offset=".059" stop-color="#FFEE58"/><stop offset=".265" stop-color="#FEE54F"/><stop offset=".603" stop-color="#FCCC38"/><stop offset=".744" stop-color="#FBC02D"/></radialGradient><path fill="url(#P)" d="M51.16 44.23c.76-.7 1.14-1.04 1.92-1.71.83-.72.3-2.36-1.16-3.61-.25-.21-.37-.32-.61-.52-1.45-1.24-3.29-1.69-4.12-1.04-.77.61-1.14.92-1.89 1.55-.8.68-.3 2.32 1.13 3.66.24.23.36.34.61.57 1.44 1.34 3.31 1.85 4.12 1.1z"/><radialGradient id="Q" cx="82.344" cy="68.066" r="163.23" gradientTransform="scale(-1 1) rotate(45 115.822 -88.743)" gradientUnits="userSpaceOnUse"><stop offset=".059" stop-color="#FFEE58"/><stop offset=".265" stop-color="#FEE54F"/><stop offset=".603" stop-color="#FCCC38"/><stop offset=".744" stop-color="#FBC02D"/></radialGradient><path fill="url(#Q)" d="M58.11 50.71c.77-.76 1.15-1.13 1.93-1.87.83-.79.24-2.59-1.29-3.96-.26-.23-.39-.35-.64-.58-1.52-1.36-3.43-1.84-4.26-1.11-.77.68-1.16 1.03-1.92 1.73-.82.76-.27 2.54 1.25 3.98.26.24.38.37.64.61 1.51 1.47 3.46 2.02 4.29 1.2z"/><radialGradient id="R" cx="81.765" cy="65.164" r="171.68" gradientTransform="scale(-1 1) rotate(45 115.822 -88.743)" gradientUnits="userSpaceOnUse"><stop offset=".059" stop-color="#FFEE58"/><stop offset=".265" stop-color="#FEE54F"/><stop offset=".603" stop-color="#FCCC38"/><stop offset=".744" stop-color="#FBC02D"/></radialGradient><path fill="url(#R)" d="M65.31 57.61c.77-.8 1.15-1.2 1.91-2 .82-.85.24-2.73-1.35-4.21-.27-.25-.4-.38-.67-.63-1.59-1.48-3.54-2-4.37-1.2-.77.75-1.16 1.12-1.93 1.88-.83.82-.22 2.73 1.37 4.28.27.26.41.39.68.66 1.6 1.56 3.54 2.08 4.36 1.22z"/><radialGradient id="S" cx="81.488" cy="68.198" r="165.94" gradientTransform="scale(-1 1) rotate(45 115.822 -88.743)" gradientUnits="userSpaceOnUse"><stop offset=".059" stop-color="#FFEE58"/><stop offset=".265" stop-color="#FEE54F"/><stop offset=".603" stop-color="#FCCC38"/><stop offset=".744" stop-color="#FBC02D"/></radialGradient><path fill="url(#S)" d="M72.1 64.31c.75-.84 1.12-1.26 1.86-2.09.79-.89.29-2.77-1.16-4.19-.24-.24-.37-.36-.62-.6C70.72 56 68.81 55.5 68 56.36l-1.91 2.01c-.82.87-.24 2.83 1.26 4.31.25.25.38.37.63.62 1.48 1.48 3.32 1.91 4.12 1.01z"/><radialGradient id="T" cx="81.522" cy="72.576" r="157.71" gradientTransform="scale(-1 1) rotate(45 115.822 -88.743)" gradientUnits="userSpaceOnUse"><stop offset=".059" stop-color="#FFEE58"/><stop offset=".265" stop-color="#FEE54F"/><stop offset=".603" stop-color="#FCCC38"/><stop offset=".744" stop-color="#FBC02D"/></radialGradient><path fill="url(#T)" d="M78.34 70.67c.72-.86 1.07-1.28 1.76-2.14.75-.92.32-2.76-.99-4.13-.22-.23-.33-.35-.56-.58-1.32-1.37-3.09-1.78-3.88-.88-.73.84-1.1 1.25-1.85 2.1-.8.9-.3 2.82 1.08 4.22.23.24.35.35.58.59 1.37 1.38 3.09 1.74 3.86.82z"/><radialGradient id="U" cx="81.87" cy="77.519" r="148.88" gradientTransform="scale(-1 1) rotate(45 115.822 -88.743)" gradientUnits="userSpaceOnUse"><stop offset=".059" stop-color="#FFEE58"/><stop offset=".265" stop-color="#FEE54F"/><stop offset=".603" stop-color="#FCCC38"/><stop offset=".744" stop-color="#FBC02D"/></radialGradient><path fill="url(#U)" d="M84.01 76.66c.67-.86.99-1.29 1.63-2.15.69-.93.32-2.73-.86-4.03l-.5-.55c-1.19-1.3-2.79-1.64-3.54-.72-.69.86-1.04 1.29-1.75 2.14-.76.92-.33 2.78.93 4.09.21.22.32.33.53.55 1.25 1.31 2.84 1.59 3.56.67z"/><radialGradient id="V" cx="82.534" cy="83.038" r="139.59" gradientTransform="scale(-1 1) rotate(45 115.822 -88.743)" gradientUnits="userSpaceOnUse"><stop offset=".059" stop-color="#FFEE58"/><stop offset=".265" stop-color="#FEE54F"/><stop offset=".603" stop-color="#FCCC38"/><stop offset=".744" stop-color="#FBC02D"/></radialGradient><path fill="url(#V)" d="M89.1 82.26c.6-.84.9-1.27 1.46-2.13.61-.92.29-2.66-.75-3.89-.17-.21-.26-.31-.44-.52-1.04-1.23-2.48-1.5-3.16-.58-.63.86-.95 1.29-1.61 2.15-.71.92-.34 2.7.8 3.92.19.21.29.31.48.51 1.13 1.22 2.57 1.45 3.22.54z"/><radialGradient id="W" cx="83.499" cy="89.132" r="129.92" gradientTransform="scale(-1 1) rotate(45 115.822 -88.743)" gradientUnits="userSpaceOnUse"><stop offset=".059" stop-color="#FFEE58"/><stop offset=".265" stop-color="#FEE54F"/><stop offset=".603" stop-color="#FCCC38"/><stop offset=".744" stop-color="#FBC02D"/></radialGradient><path fill="url(#W)" d="M93.6 87.45c.53-.82.78-1.23 1.26-2.07.52-.9.23-2.56-.66-3.71-.15-.19-.23-.29-.38-.49-.9-1.16-2.15-1.37-2.75-.45-.56.86-.85 1.28-1.44 2.12-.64.91-.32 2.59.7 3.71.17.19.26.28.43.47 1 1.13 2.27 1.3 2.84.42z"/><radialGradient id="X" cx="84.75" cy="95.777" r="119.97" gradientTransform="scale(-1 1) rotate(45 115.822 -88.743)" gradientUnits="userSpaceOnUse"><stop offset=".059" stop-color="#FFEE58"/><stop offset=".265" stop-color="#FEE54F"/><stop offset=".603" stop-color="#FCCC38"/><stop offset=".744" stop-color="#FBC02D"/></radialGradient><path fill="url(#X)" d="M97.5 92.2c.44-.78.64-1.17 1.02-1.97.41-.86.15-2.43-.6-3.49-.13-.18-.19-.27-.32-.45-.76-1.08-1.81-1.24-2.31-.35-.47.83-.72 1.24-1.23 2.06-.56.87-.27 2.45.62 3.47.15.17.23.26.37.43.89 1.01 1.98 1.14 2.45.3z"/><radialGradient id="Y" cx="86.27" cy="102.91" r="109.87" gradientTransform="scale(-1 1) rotate(45 115.822 -88.743)" gradientUnits="userSpaceOnUse"><stop offset=".059" stop-color="#FFEE58"/><stop offset=".265" stop-color="#FEE54F"/><stop offset=".603" stop-color="#FCCC38"/><stop offset=".744" stop-color="#FBC02D"/></radialGradient><path fill="url(#Y)" d="M100.8 96.5c.33-.72.48-1.09.75-1.84.29-.81.04-2.26-.56-3.24-.1-.17-.15-.25-.26-.42-.61-.99-1.45-1.11-1.85-.26-.37.8-.57 1.19-.99 1.96-.46.83-.2 2.28.57 3.19.13.15.19.23.32.38.76.92 1.67 1.01 2.02.23z"/><radialGradient id="Z" cx="88.037" cy="110.39" r="99.764" gradientTransform="scale(-1 1) rotate(45 115.822 -88.743)" gradientUnits="userSpaceOnUse"><stop offset=".059" stop-color="#FFEE58"/><stop offset=".265" stop-color="#FEE54F"/><stop offset=".603" stop-color="#FCCC38"/><stop offset=".744" stop-color="#FBC02D"/></radialGradient><path fill="url(#Z)" d="M103.48 100.32c.21-.65.3-.99.44-1.68.15-.74-.09-2.07-.54-2.95-.08-.15-.11-.23-.19-.38-.46-.9-1.07-.99-1.35-.19-.25.74-.4 1.11-.72 1.82-.34.77-.1 2.07.53 2.88l.27.34c.63.8 1.34.87 1.56.16z"/><radialGradient id="aa" cx="85.503" cy="77.858" r="141.43" gradientTransform="scale(-1 1) rotate(45 115.822 -88.743)" gradientUnits="userSpaceOnUse"><stop offset=".059" stop-color="#FFEE58"/><stop offset=".265" stop-color="#FEE54F"/><stop offset=".603" stop-color="#FCCC38"/><stop offset=".744" stop-color="#FBC02D"/></radialGradient><path fill="url(#aa)" d="M44.14 29.07c.8-.44 1.2-.65 2.03-1.06.88-.44.53-1.5-.77-2.33l-.55-.35c-1.29-.82-3.07-1.21-3.95-.87-.82.31-1.22.48-2.01.83-.85.38-.5 1.47.78 2.44.22.16.33.25.54.41 1.3.98 3.07 1.41 3.93.93z"/><radialGradient id="ab" cx="86.824" cy="80.169" r="133.01" gradientTransform="scale(-1 1) rotate(45 115.822 -88.743)" gradientUnits="userSpaceOnUse"><stop offset=".059" stop-color="#FFEE58"/><stop offset=".265" stop-color="#FEE54F"/><stop offset=".603" stop-color="#FCCC38"/><stop offset=".744" stop-color="#FBC02D"/></radialGradient><path fill="url(#ab)" d="M38.25 24.84c.79-.34 1.19-.5 2.01-.8.88-.32.6-1.17-.62-1.87-.21-.12-.31-.18-.51-.29-1.21-.69-2.91-1.07-3.79-.85-.81.2-1.21.31-1.99.55-.83.26-.55 1.16.65 2 .2.14.3.21.51.36 1.2.86 2.89 1.27 3.74.9z"/><radialGradient id="ac" cx="88.264" cy="82.359" r="122.67" gradientTransform="scale(-1 1) rotate(45 115.822 -88.743)" gradientUnits="userSpaceOnUse"><stop offset=".059" stop-color="#FFEE58"/><stop offset=".265" stop-color="#FEE54F"/><stop offset=".603" stop-color="#FCCC38"/><stop offset=".744" stop-color="#FBC02D"/></radialGradient><path fill="url(#ac)" d="M32.77 21.2c.77-.23 1.17-.34 1.98-.52.87-.2.66-.83-.46-1.4-.19-.1-.28-.14-.47-.24-1.12-.55-2.73-.93-3.59-.85-.8.08-1.19.13-1.95.26-.81.14-.58.84.51 1.56.18.12.28.18.46.31 1.1.73 2.69 1.13 3.52.88z"/><radialGradient id="ad" cx="89.798" cy="84.482" r="100.27" gradientTransform="scale(-1 1) rotate(45 115.822 -88.743)" gradientUnits="userSpaceOnUse"><stop offset=".059" stop-color="#FFEE58"/><stop offset=".265" stop-color="#FEE54F"/><stop offset=".603" stop-color="#FCCC38"/><stop offset=".744" stop-color="#FBC02D"/></radialGradient><path fill="url(#ad)" d="M27.74 18.15c.75-.12 1.14-.16 1.94-.23.86-.07.72-.49-.3-.92-.17-.07-.26-.11-.43-.18-1.01-.42-2.53-.8-3.38-.85-.78-.04-1.16-.05-1.89-.04-.78.02-.62.51.36 1.1.17.1.25.15.42.25 1 .6 2.47 1 3.28.87z"/><radialGradient id="ae" cx="91.401" cy="86.656" r="59.603" gradientTransform="scale(-1 1) rotate(45 115.822 -88.743)" gradientUnits="userSpaceOnUse"><stop offset=".059" stop-color="#FFEE58"/><stop offset=".265" stop-color="#FEE54F"/><stop offset=".603" stop-color="#FCCC38"/><stop offset=".744" stop-color="#FBC02D"/></radialGradient><path fill="url(#ae)" d="M23.2 15.69c.73 0 1.1.01 1.89.07.84.06.78-.13-.13-.43-.15-.05-.23-.08-.38-.12-.9-.29-2.31-.68-3.14-.86-.76-.17-1.13-.24-1.83-.35-.75-.11-.66.17.21.63l.37.2c.87.47 2.23.86 3.01.86z"/><radialGradient id="af" cx="84.329" cy="75.408" r="149.24" gradientTransform="scale(-1 1) rotate(45 115.822 -88.743)" gradientUnits="userSpaceOnUse"><stop offset=".059" stop-color="#FFEE58"/><stop offset=".265" stop-color="#FEE54F"/><stop offset=".603" stop-color="#FCCC38"/><stop offset=".744" stop-color="#FBC02D"/></radialGradient><path fill="url(#af)" d="M50.41 33.88c.8-.54 1.2-.8 2.02-1.3.88-.54.46-1.81-.92-2.78-.23-.16-.35-.25-.58-.41-1.37-.96-3.2-1.35-4.08-.9-.82.42-1.23.64-2.03 1.09-.86.49-.45 1.76.92 2.86.23.18.35.28.58.46 1.38 1.1 3.23 1.56 4.09.98z"/><radialGradient id="ag" cx="83.326" cy="72.828" r="156.71" gradientTransform="scale(-1 1) rotate(45 115.822 -88.743)" gradientUnits="userSpaceOnUse"><stop offset=".059" stop-color="#FFEE58"/><stop offset=".265" stop-color="#FEE54F"/><stop offset=".603" stop-color="#FCCC38"/><stop offset=".744" stop-color="#FBC02D"/></radialGradient><path fill="url(#ag)" d="M57.01 39.27c.79-.62 1.19-.93 1.99-1.53.86-.64.37-2.1-1.07-3.21-.24-.19-.36-.28-.61-.46-1.43-1.09-3.31-1.5-4.19-.95-.81.52-1.22.78-2.02 1.33-.86.59-.39 2.04 1.06 3.26.24.21.37.31.61.52 1.47 1.23 3.38 1.71 4.23 1.04z"/><radialGradient id="ah" cx="82.52" cy="70.136" r="163.87" gradientTransform="scale(-1 1) rotate(45 115.822 -88.743)" gradientUnits="userSpaceOnUse"><stop offset=".059" stop-color="#FFEE58"/><stop offset=".265" stop-color="#FEE54F"/><stop offset=".603" stop-color="#FCCC38"/><stop offset=".744" stop-color="#FBC02D"/></radialGradient><path fill="url(#ah)" d="M63.92 45.23c.78-.7 1.17-1.05 1.94-1.73.84-.73.28-2.38-1.22-3.62-.25-.21-.38-.31-.63-.52-1.49-1.23-3.4-1.67-4.26-1.01-.8.61-1.2.92-1.99 1.55-.85.68-.32 2.31 1.2 3.65.26.23.39.34.64.57 1.53 1.35 3.49 1.86 4.32 1.11z"/><radialGradient id="ai" cx="81.938" cy="68.004" r="169.08" gradientTransform="scale(-1 1) rotate(45 115.822 -88.743)" gradientUnits="userSpaceOnUse"><stop offset=".059" stop-color="#FFEE58"/><stop offset=".265" stop-color="#FEE54F"/><stop offset=".603" stop-color="#FCCC38"/><stop offset=".744" stop-color="#FBC02D"/></radialGradient><path fill="url(#ai)" d="M71.01 51.7c.75-.77 1.12-1.15 1.86-1.9.8-.81.25-2.57-1.29-3.94-.26-.23-.39-.35-.65-.58-1.54-1.36-3.46-1.84-4.29-1.09-.77.69-1.16 1.04-1.93 1.75-.83.76-.24 2.55 1.34 4.01l.67.62c1.58 1.46 3.49 1.95 4.29 1.13z"/><radialGradient id="aj" cx="81.652" cy="71.289" r="161.7" gradientTransform="scale(-1 1) rotate(45 115.822 -88.743)" gradientUnits="userSpaceOnUse"><stop offset=".059" stop-color="#FFEE58"/><stop offset=".265" stop-color="#FEE54F"/><stop offset=".603" stop-color="#FCCC38"/><stop offset=".744" stop-color="#FBC02D"/></radialGradient><path fill="url(#aj)" d="M77.58 58.08c.71-.82 1.06-1.23 1.75-2.04.74-.87.28-2.66-1.1-4-.23-.23-.35-.34-.58-.57-1.39-1.34-3.23-1.8-4.02-.98-.74.76-1.11 1.14-1.85 1.92-.8.83-.22 2.7 1.23 4.12.25.24.37.36.61.6 1.44 1.42 3.2 1.83 3.96.95z"/><radialGradient id="ak" cx="81.708" cy="74.802" r="154.26" gradientTransform="scale(-1 1) rotate(45 115.822 -88.743)" gradientUnits="userSpaceOnUse"><stop offset=".059" stop-color="#FFEE58"/><stop offset=".265" stop-color="#FEE54F"/><stop offset=".603" stop-color="#FCCC38"/><stop offset=".744" stop-color="#FBC02D"/></radialGradient><path fill="url(#ak)" d="M83.47 64.24c.65-.85.97-1.28 1.6-2.13.67-.92.28-2.72-.94-4.02-.2-.22-.31-.33-.51-.55-1.23-1.31-2.88-1.68-3.62-.81-.69.82-1.03 1.23-1.73 2.05-.75.88-.26 2.75 1.05 4.11.22.23.33.35.55.57 1.3 1.36 2.91 1.7 3.6.78z"/><radialGradient id="al" cx="82.095" cy="78.586" r="146.68" gradientTransform="scale(-1 1) rotate(45 115.822 -88.743)" gradientUnits="userSpaceOnUse"><stop offset=".059" stop-color="#FFEE58"/><stop offset=".265" stop-color="#FEE54F"/><stop offset=".603" stop-color="#FCCC38"/><stop offset=".744" stop-color="#FBC02D"/></radialGradient><path fill="url(#al)" d="M88.69 70.15c.58-.87.86-1.31 1.4-2.19.59-.94.25-2.74-.8-4-.18-.21-.27-.32-.45-.54-1.06-1.27-2.52-1.57-3.18-.65-.62.85-.93 1.28-1.58 2.14-.69.92-.27 2.76.9 4.06.2.22.3.33.49.55 1.17 1.3 2.6 1.57 3.22.63z"/><radialGradient id="am" cx="82.802" cy="82.586" r="139.04" gradientTransform="scale(-1 1) rotate(45 115.822 -88.743)" gradientUnits="userSpaceOnUse"><stop offset=".059" stop-color="#FFEE58"/><stop offset=".265" stop-color="#FEE54F"/><stop offset=".603" stop-color="#FCCC38"/><stop offset=".744" stop-color="#FBC02D"/></radialGradient><path fill="url(#am)" d="M93.21 75.78c.49-.88.73-1.32 1.18-2.21.49-.95.19-2.72-.69-3.94-.15-.21-.22-.31-.38-.52-.9-1.22-2.14-1.46-2.72-.52-.54.88-.81 1.32-1.38 2.19-.61.94-.24 2.74.78 3.97.17.21.26.31.43.52 1.02 1.24 2.25 1.45 2.78.51z"/><radialGradient id="an" cx="83.814" cy="86.709" r="131.46" gradientTransform="scale(-1 1) rotate(45 115.822 -88.743)" gradientUnits="userSpaceOnUse"><stop offset=".059" stop-color="#FFEE58"/><stop offset=".265" stop-color="#FEE54F"/><stop offset=".603" stop-color="#FCCC38"/><stop offset=".744" stop-color="#FBC02D"/></radialGradient><path fill="url(#an)" d="M97.04 81.1c.39-.87.57-1.31.91-2.19.37-.95.11-2.67-.61-3.84-.12-.2-.18-.3-.31-.49-.73-1.17-1.75-1.36-2.22-.41a51.6 51.6 0 0 1-1.15 2.21c-.52.94-.19 2.69.68 3.85l.37.49c.88 1.15 1.91 1.32 2.33.38z"/><radialGradient id="ao" cx="85.117" cy="90.798" r="124.11" gradientTransform="scale(-1 1) rotate(45 115.822 -88.743)" gradientUnits="userSpaceOnUse"><stop offset=".059" stop-color="#FFEE58"/><stop offset=".265" stop-color="#FEE54F"/><stop offset=".603" stop-color="#FCCC38"/><stop offset=".744" stop-color="#FBC02D"/></radialGradient><path fill="url(#ao)" d="M100.16 86.1c.27-.85.4-1.27.61-2.14.23-.93 0-2.59-.55-3.7-.09-.19-.14-.28-.23-.47-.56-1.11-1.34-1.26-1.69-.31-.33.88-.5 1.32-.88 2.19-.4.93-.12 2.6.61 3.68.12.18.18.27.31.46.72 1.08 1.53 1.2 1.82.29z"/><radialGradient id="ap" cx="86.695" cy="94.595" r="117.23" gradientTransform="scale(-1 1) rotate(45 115.822 -88.743)" gradientUnits="userSpaceOnUse"><stop offset=".059" stop-color="#FFEE58"/><stop offset=".265" stop-color="#FEE54F"/><stop offset=".603" stop-color="#FCCC38"/><stop offset=".744" stop-color="#FBC02D"/></radialGradient><path fill="url(#ap)" d="M102.58 90.75c.14-.81.2-1.22.28-2.05.09-.9-.14-2.48-.52-3.52-.06-.18-.1-.26-.16-.44-.4-1.05-.92-1.16-1.14-.23-.2.86-.32 1.29-.58 2.13-.28.9-.02 2.48.56 3.48.1.17.15.25.24.42.58.99 1.17 1.08 1.32.21z"/><radialGradient id="aq" cx="88.536" cy="97.686" r="111.17" gradientTransform="scale(-1 1) rotate(45 115.822 -88.743)" gradientUnits="userSpaceOnUse"><stop offset=".059" stop-color="#FFEE58"/><stop offset=".265" stop-color="#FEE54F"/><stop offset=".603" stop-color="#FCCC38"/><stop offset=".744" stop-color="#FBC02D"/></radialGradient><path fill="url(#aq)" d="M104.29 95.02c0-.76-.02-1.14-.08-1.93-.07-.85-.3-2.34-.51-3.31-.04-.16-.05-.25-.09-.41-.23-.98-.48-1.06-.55-.16a22.3 22.3 0 0 1-.24 2.04c-.14.86.11 2.33.54 3.24l.18.38c.4.9.74.96.75.15z"/><radialGradient id="ar" cx="85.23" cy="77.949" r="95.808" gradientTransform="scale(-1 1) rotate(45 115.822 -88.743)" gradientUnits="userSpaceOnUse"><stop offset=".059" stop-color="#FFEE58"/><stop offset=".265" stop-color="#FEE54F"/><stop offset=".603" stop-color="#FCCC38"/><stop offset=".744" stop-color="#FBC02D"/></radialGradient><path fill="url(#ar)" d="M25.5 48.66c.41-.81.62-1.21 1.07-2 .48-.85.05-2.61-.95-3.9l-.42-.54c-.98-1.28-2.09-1.62-2.47-.78-.36.78-.53 1.18-.84 1.99-.34.87.05 2.62.89 3.9.14.22.21.33.36.54.84 1.3 1.92 1.66 2.36.79z"/><radialGradient id="as" cx="86.146" cy="80.264" r="82.097" gradientTransform="scale(-1 1) rotate(45 115.822 -88.743)" gradientUnits="userSpaceOnUse"><stop offset=".059" stop-color="#FFEE58"/><stop offset=".265" stop-color="#FEE54F"/><stop offset=".603" stop-color="#FCCC38"/><stop offset=".744" stop-color="#FBC02D"/></radialGradient><path fill="url(#as)" d="M21.47 42.8c.3-.81.47-1.2.81-1.98.37-.84-.04-2.51-.91-3.7-.15-.2-.22-.3-.36-.5-.85-1.18-1.77-1.47-2.04-.64-.25.77-.37 1.16-.57 1.95-.22.86.16 2.53.86 3.73.12.2.18.3.3.51.72 1.2 1.58 1.49 1.91.63z"/><radialGradient id="at" cx="87.136" cy="82.428" r="68.612" gradientTransform="scale(-1 1) rotate(45 115.822 -88.743)" gradientUnits="userSpaceOnUse"><stop offset=".059" stop-color="#FFEE58"/><stop offset=".265" stop-color="#FEE54F"/><stop offset=".603" stop-color="#FCCC38"/><stop offset=".744" stop-color="#FBC02D"/></radialGradient><path fill="url(#at)" d="M18.05 37.33c.19-.8.3-1.19.54-1.95.26-.82-.14-2.4-.88-3.49-.12-.18-.19-.28-.31-.46-.73-1.08-1.44-1.31-1.59-.51-.14.74-.2 1.13-.29 1.91-.09.84.28 2.43.85 3.54.1.19.14.28.24.47.58 1.12 1.24 1.35 1.44.49z"/><radialGradient id="au" cx="88.153" cy="84.49" r="56.656" gradientTransform="scale(-1 1) rotate(45 115.822 -88.743)" gradientUnits="userSpaceOnUse"><stop offset=".059" stop-color="#FFEE58"/><stop offset=".265" stop-color="#FEE54F"/><stop offset=".603" stop-color="#FCCC38"/><stop offset=".744" stop-color="#FBC02D"/></radialGradient><path fill="url(#au)" d="M15.25 32.29c.07-.78.12-1.16.25-1.9.14-.8-.25-2.26-.86-3.25-.1-.17-.15-.25-.25-.42-.59-.98-1.1-1.14-1.12-.37-.02.72-.02 1.09.01 1.85.04.82.41 2.32.84 3.33.07.17.11.26.18.43.44 1.02.87 1.17.95.33z"/><radialGradient id="av" cx="89.138" cy="86.564" r="48.022" gradientTransform="scale(-1 1) rotate(45 115.822 -88.743)" gradientUnits="userSpaceOnUse"><stop offset=".059" stop-color="#FFEE58"/><stop offset=".265" stop-color="#FEE54F"/><stop offset=".603" stop-color="#FCCC38"/><stop offset=".744" stop-color="#FBC02D"/></radialGradient><path fill="url(#av)" d="M13.07 27.72c-.05-.76-.06-1.13-.05-1.85.01-.77-.37-2.12-.84-2.99l-.2-.37c-.46-.87-.75-.97-.65-.23.1.69.16 1.05.32 1.79.17.8.54 2.19.83 3.09.05.15.07.23.12.38.31.92.52 1 .47.18z"/><radialGradient id="aw" cx="84.425" cy="75.468" r="108.99" gradientTransform="scale(-1 1) rotate(45 115.822 -88.743)" gradientUnits="userSpaceOnUse"><stop offset=".059" stop-color="#FFEE58"/><stop offset=".265" stop-color="#FEE54F"/><stop offset=".603" stop-color="#FCCC38"/><stop offset=".744" stop-color="#FBC02D"/></radialGradient><path fill="url(#aw)" d="M30.13 54.88c.51-.81.77-1.21 1.31-2 .58-.85.12-2.69-1-4.06-.19-.23-.28-.35-.47-.58-1.11-1.36-2.4-1.76-2.89-.91-.46.79-.68 1.19-1.1 2-.45.87-.05 2.68.92 4.04.16.23.25.35.41.58.99 1.37 2.27 1.8 2.82.93z"/><radialGradient id="ax" cx="83.764" cy="72.831" r="121.28" gradientTransform="scale(-1 1) rotate(45 115.822 -88.743)" gradientUnits="userSpaceOnUse"><stop offset=".059" stop-color="#FFEE58"/><stop offset=".265" stop-color="#FEE54F"/><stop offset=".603" stop-color="#FCCC38"/><stop offset=".744" stop-color="#FBC02D"/></radialGradient><path fill="url(#ax)" d="M35.35 61.44c.6-.79.9-1.19 1.53-1.98.67-.85.18-2.75-1.05-4.2-.21-.24-.31-.37-.52-.61-1.23-1.44-2.7-1.9-3.29-1.05-.55.79-.82 1.19-1.33 2-.56.87-.13 2.73.97 4.16.19.24.28.36.47.61 1.11 1.42 2.58 1.92 3.22 1.07z"/><radialGradient id="ay" cx="83.277" cy="70.061" r="132.58" gradientTransform="scale(-1 1) rotate(45 115.822 -88.743)" gradientUnits="userSpaceOnUse"><stop offset=".059" stop-color="#FFEE58"/><stop offset=".265" stop-color="#FEE54F"/><stop offset=".603" stop-color="#FCCC38"/><stop offset=".744" stop-color="#FBC02D"/></radialGradient><path fill="url(#ay)" d="M41.16 68.29c.68-.77 1.02-1.16 1.72-1.94.75-.83.23-2.79-1.13-4.31-.23-.26-.34-.39-.57-.64-1.35-1.52-2.98-2.04-3.66-1.19-.63.79-.94 1.18-1.55 1.98-.65.85-.2 2.75 1.04 4.24.21.25.31.38.53.63 1.24 1.49 2.89 2.06 3.62 1.23z"/><radialGradient id="az" cx="82.992" cy="67.953" r="141.55" gradientTransform="scale(-1 1) rotate(45 115.822 -88.743)" gradientUnits="userSpaceOnUse"><stop offset=".059" stop-color="#FFEE58"/><stop offset=".265" stop-color="#FEE54F"/><stop offset=".603" stop-color="#FCCC38"/><stop offset=".744" stop-color="#FBC02D"/></radialGradient><path fill="url(#az)" d="M47.47 75.32c.75-.74 1.12-1.11 1.89-1.86.82-.81.33-2.72-1.14-4.3l-.62-.67c-1.46-1.58-3.26-2.17-4.02-1.34-.71.77-1.06 1.16-1.74 1.93-.74.83-.25 2.75 1.12 4.29.23.26.35.39.58.65 1.37 1.53 3.13 2.09 3.93 1.3z"/><radialGradient id="aA" cx="83.032" cy="71.411" r="140.14" gradientTransform="scale(-1 1) rotate(45 115.822 -88.743)" gradientUnits="userSpaceOnUse"><stop offset=".059" stop-color="#FFEE58"/><stop offset=".265" stop-color="#FEE54F"/><stop offset=".603" stop-color="#FCCC38"/><stop offset=".744" stop-color="#FBC02D"/></radialGradient><path fill="url(#aA)" d="M53.71 81.8c.8-.69 1.21-1.04 2.02-1.75.87-.76.46-2.54-.94-3.98-.24-.24-.36-.37-.6-.61-1.41-1.46-3.28-2.04-4.11-1.23l-1.9 1.85c-.81.79-.35 2.63.99 4.03.23.24.34.35.57.59 1.33 1.37 3.11 1.85 3.97 1.1z"/><radialGradient id="aB" cx="83.204" cy="75.056" r="137.17" gradientTransform="scale(-1 1) rotate(45 115.822 -88.743)" gradientUnits="userSpaceOnUse"><stop offset=".059" stop-color="#FFEE58"/><stop offset=".265" stop-color="#FEE54F"/><stop offset=".603" stop-color="#FCCC38"/><stop offset=".744" stop-color="#FBC02D"/></radialGradient><path fill="url(#aB)" d="M59.74 87.59c.84-.63 1.26-.95 2.11-1.61.91-.7.58-2.32-.77-3.63-.23-.22-.34-.33-.57-.56-1.35-1.32-3.21-1.82-4.09-1.06-.82.71-1.22 1.05-2.03 1.74-.87.74-.49 2.4.81 3.64.22.21.33.31.55.52 1.31 1.23 3.09 1.63 3.99.96z"/><radialGradient id="aC" cx="83.516" cy="78.998" r="132.87" gradientTransform="scale(-1 1) rotate(45 115.822 -88.743)" gradientUnits="userSpaceOnUse"><stop offset=".059" stop-color="#FFEE58"/><stop offset=".265" stop-color="#FEE54F"/><stop offset=".603" stop-color="#FCCC38"/><stop offset=".744" stop-color="#FBC02D"/></radialGradient><path fill="url(#aC)" d="M65.55 92.66c.86-.55 1.3-.83 2.16-1.42.93-.63.66-2.07-.62-3.24-.22-.2-.33-.3-.54-.5-1.29-1.18-3.12-1.61-4.03-.91-.85.65-1.27.97-2.12 1.59-.91.67-.6 2.13.66 3.21.21.18.32.27.53.45 1.26 1.07 3.03 1.41 3.96.82z"/><radialGradient id="aD" cx="84.07" cy="83.187" r="127.54" gradientTransform="scale(-1 1) rotate(45 115.822 -88.743)" gradientUnits="userSpaceOnUse"><stop offset=".059" stop-color="#FFEE58"/><stop offset=".265" stop-color="#FEE54F"/><stop offset=".603" stop-color="#FCCC38"/><stop offset=".744" stop-color="#FBC02D"/></radialGradient><path fill="url(#aD)" d="M71.11 97.01c.87-.46 1.31-.7 2.18-1.19.93-.53.72-1.79-.49-2.81-.21-.17-.31-.26-.51-.43-1.22-1.04-3.01-1.4-3.94-.79-.87.57-1.3.85-2.17 1.4-.93.58-.68 1.84.53 2.75l.51.38c1.21.88 2.95 1.18 3.89.69z"/><radialGradient id="aE" cx="84.837" cy="87.534" r="121.54" gradientTransform="scale(-1 1) rotate(45 115.822 -88.743)" gradientUnits="userSpaceOnUse"><stop offset=".059" stop-color="#FFEE58"/><stop offset=".265" stop-color="#FEE54F"/><stop offset=".603" stop-color="#FCCC38"/><stop offset=".744" stop-color="#FBC02D"/></radialGradient><path fill="url(#aE)" d="M76.4 100.62c.87-.35 1.3-.54 2.16-.93.92-.43.76-1.47-.38-2.35-.19-.15-.29-.22-.48-.37-1.15-.89-2.88-1.21-3.81-.69-.87.49-1.3.72-2.18 1.17-.94.48-.74 1.51.42 2.25.2.13.29.19.49.31 1.15.72 2.85.98 3.78.61z"/><radialGradient id="aF" cx="85.769" cy="91.884" r="115.22" gradientTransform="scale(-1 1) rotate(45 115.822 -88.743)" gradientUnits="userSpaceOnUse"><stop offset=".059" stop-color="#FFEE58"/><stop offset=".265" stop-color="#FEE54F"/><stop offset=".603" stop-color="#FCCC38"/><stop offset=".744" stop-color="#FBC02D"/></radialGradient><path fill="url(#aF)" d="M81.42 103.47c.85-.23 1.27-.35 2.1-.64.9-.3.77-1.13-.29-1.85-.18-.12-.27-.18-.45-.31-1.07-.74-2.72-1.02-3.64-.61-.86.38-1.29.57-2.15.9-.93.36-.78 1.15.32 1.72.19.1.28.14.47.24 1.09.56 2.72.8 3.64.55z"/><radialGradient id="aG" cx="86.796" cy="95.982" r="108.95" gradientTransform="scale(-1 1) rotate(45 115.822 -88.743)" gradientUnits="userSpaceOnUse"><stop offset=".059" stop-color="#FFEE58"/><stop offset=".265" stop-color="#FEE54F"/><stop offset=".603" stop-color="#FCCC38"/><stop offset=".744" stop-color="#FBC02D"/></radialGradient><path fill="url(#aG)" d="M86.13 105.56c.82-.09 1.22-.15 2.02-.31.86-.17.76-.76-.23-1.32-.17-.1-.25-.14-.42-.24-.99-.58-2.55-.84-3.45-.55-.83.27-1.25.39-2.1.6-.91.23-.79.76.25 1.16.18.07.26.1.44.16 1.05.39 2.61.6 3.49.5z"/><radialGradient id="aH" cx="87.797" cy="99.412" r="103.21" gradientTransform="scale(-1 1) rotate(45 115.822 -88.743)" gradientUnits="userSpaceOnUse"><stop offset=".059" stop-color="#FFEE58"/><stop offset=".265" stop-color="#FEE54F"/><stop offset=".603" stop-color="#FCCC38"/><stop offset=".744" stop-color="#FBC02D"/></radialGradient><path fill="url(#aH)" d="M90.52 106.88c.77.06 1.15.07 1.9.06.8-.01.73-.35-.18-.76-.15-.07-.23-.1-.38-.18-.91-.43-2.37-.66-3.22-.51-.79.14-1.19.19-2 .27-.87.08-.78.34.2.57.17.04.25.06.41.09.97.19 2.44.39 3.27.46z"/><linearGradient id="aI" x1="15.198" x2="27.532" y1="110.8" y2="122.13" gradientTransform="matrix(-1 0 0 1 130.4 0)" gradientUnits="userSpaceOnUse"><stop offset=".005" stop-color="#8BC34A"/><stop offset="1" stop-color="#558B2F"/></linearGradient><path fill="url(#aI)" d="M117.38 99.57s.43 2.89 3.28 5.59c2.84 2.69 5.8 5.75-2 12.12s-7.95 8.17-10.82 6.69c-2.86-1.49-6.89-5.64-8.55-7.36-1.66-1.71 7.16-3.62 11.2-8 4.05-4.39 6.89-9.04 6.89-9.04z"/><path fill="#424242" d="M17 13v3h-.2c9.05 0 29.13 9.79 53.82 31.76 25.41 22.6 37.12 44.18 30.14 55.26-2.28 1.49-4.97 2.24-7.95 2.24-11.89 0-28.7-11.54-47.33-32.47C33.2 58.98 23.79 45.88 18.3 34.9c-5.12-10.22-5.38-16.18-4.05-18.53.44-.21.76-.44 2.76-.44V13m-.42-.08c-2 0-3.59.41-4.68 1.24-5.76 7.42 5.2 31.25 31.32 60.6 19.39 21.79 36.74 33.48 49.56 33.48 3.79 0 7.18-1.02 10.11-3.1 8.39-12.11-2.15-34.55-30.38-59.67-24.55-21.82-45.73-32.55-55.93-32.55z" opacity=".2"/><linearGradient id="aJ" x1="10.681" x2="93.348" y1="103.16" y2="36.498" gradientTransform="matrix(-1 0 0 1 130.4 0)" gradientUnits="userSpaceOnUse"><stop offset="0" stop-color="#558B2F"/><stop offset=".995" stop-color="#8BC34A"/></linearGradient><path fill="url(#aJ)" d="M66.21 86.84c8.86-5.03 8.04-6.13 14.09-.86 5.53 4.82 17.72 13.24 23.82 14.72-5.9-7.72-12.64-20.14-17.55-30.47C78.4 53.01 72.15 43.38 71.9 34.5s9.01-12.76 9-12.75c-7.62 6.12-4.88 17.99 11.37 37.22s18.56 19.16 22.87 28.75 5.12 14.03-.32 19.55c-.28.28-.58.47-.91.6-1 2.04-2.82 4.95-5.67 6.72-4.74 2.93-10.93.26-18.54.43-11.16.25-17.4-13.28-22.52-13.96-7.01-.92-12.28-.06-12.28-.06s2.45-9.12 11.31-14.16z"/><linearGradient id="aK" x1="49.214" x2="76.274" y1="82.579" y2="115.62" gradientTransform="matrix(-1 0 0 1 130.4 0)" gradientUnits="userSpaceOnUse"><stop offset=".005" stop-color="#8BC34A"/><stop offset="1" stop-color="#558B2F"/></linearGradient><path fill="url(#aK)" d="M89.08 96.76s-2.95-16.74-20.65-14.71-22.2 10.12-25.36 20.28c-1.48 4.76 1.33 16 1.33 16s1.83-7.5 8.5-14.5c3.76-3.94 17.56-6.47 25.74-4.03 8.19 2.44 9.88 7.67 10.3 3.94.42-3.72.27-6.46.27-6.46"/><linearGradient id="aL" x1="13.976" x2="43.976" y1="103.54" y2="55.203" gradientTransform="matrix(-1 0 0 1 130.4 0)" gradientUnits="userSpaceOnUse"><stop offset="0" stop-color="#558B2F"/><stop offset=".995" stop-color="#8BC34A"/></linearGradient><path fill="url(#aL)" d="M97.1 40.69s-2.76 7.17-1.1 16.23c1.66 9.05 8.88 16.51 10.76 26.76 1.88 10.26 13.84 12.87 7.31 21.15-6.17 7.83-21.13.53-26.11-19.53-4.97-20.05 2.4-37.13 9.14-44.61z"/><path fill="#424242" d="M75.34 37.95c1.93 5.48 5.74 11.82 11.41 19.01a2.99 2.99 0 0 0 2.35 1.14c.17 0 .34-.01.51-.04 1.08-.19 1.98-.95 2.33-2 .21-.62.43-1.23.66-1.83.09 1.05.24 2.13.44 3.23.81 4.43 2.72 8.31 4.95 12.55.11.22.26.42.42.61 1.62 1.81 3.01 3.34 4.23 4.68 5.5 6.03 7.16 7.85 9.77 13.66 2.51 5.58 3.8 9.36 2.97 12.15-.22.74-.15 1.54.21 2.23.76 1.48 1.78 2.83 3.02 4.01 1.14 1.08 2.09 2.04 2.06 2.79-.01.4-.34 1.92-3.9 4.82-2.32 1.9-4 3.41-5.23 4.52-.84.76-1.71 1.54-2.19 1.88-.04-.02-.07-.04-.12-.06-2.06-1.07-5.28-4.23-7.01-5.99-.04-.26-.12-.53-.23-.78a2.995 2.995 0 0 0-2.43-1.76c-.62-.07-1.26-.14-1.91-.22-2.17-.26-4.62-.55-7.25-.55-.26 0-.52 0-.78.01h-.24c-5.46 0-9.71-4.3-13.46-8.1-2.88-2.92-5.37-5.44-8.36-5.83-2.27-.3-4.59-.45-6.91-.45-.64 0-1.28.01-1.91.03-.27.01-.54.06-.8.14-3.3 1.05-5.73 2.38-7.23 3.96a40.28 40.28 0 0 0-4.99 6.44c-.17-2.07-.15-3.89.19-4.98 2.85-9.15 6.34-16.3 22.84-18.19.88-.1 1.73-.15 2.56-.15 5.91 0 10.3 2.61 13.06 7.76.22.41.53.76.9 1.02 1.31.94 2.7 1.89 4.13 2.83a3 3 0 0 0 1.65.49c.71 0 1.42-.25 1.98-.75a3 3 0 0 0 .72-3.56c-1.2-2.47-2.17-5.2-2.89-8.09-1.19-4.82-1.7-9.74-1.49-14.63.02-.49-.08-.97-.29-1.42-1.99-4.19-3.89-7.96-5.56-11.29-4.11-8.2-7.1-14.15-8.18-19.29m5.56-16.2c-.01 0-9.25 3.88-9 12.75.25 8.8 6.4 18.36 14.48 35.33-.2 4.86.23 10.06 1.58 15.48.8 3.23 1.86 6.12 3.1 8.67-1.38-.9-2.73-1.83-4.03-2.76-2.27-4.23-6.83-9.34-15.7-9.34-.92 0-1.88.05-2.9.17-17.7 2.03-22.2 10.12-25.36 20.28-1.48 4.76 1.33 16 1.33 16s1.83-7.5 8.5-14.5c1.17-1.23 3.32-2.32 5.97-3.17.55-.02 1.16-.03 1.8-.03 1.86 0 4.08.1 6.52.42 5.07.67 11.24 13.96 22.21 13.96h.3c.24-.01.48-.01.71-.01 3.21 0 6.15.47 8.84.75-.21.3-.22.58.04.85 1.66 1.71 5.68 5.87 8.55 7.36.62.32 1.12.49 1.59.49 1.7 0 3.12-2.19 9.23-7.18 7.8-6.37 4.84-9.43 2-12.12a12.056 12.056 0 0 1-2.42-3.2c1.1-3.68-.21-7.79-3.1-14.23-3.42-7.62-5.6-9.16-14.5-19.11-2.02-3.84-3.9-7.61-4.65-11.7-1.66-9.05 1.1-16.23 1.1-16.23-2.89 3.21-5.89 8.18-7.99 14.4-13.4-16.94-15.3-27.63-8.2-33.33zM97.1 41z" opacity=".2"/></svg>