<svg xmlns="http://www.w3.org/2000/svg" style="enable-background:new 0 0 128 128" viewBox="0 0 128 128" xml:space="preserve"><radialGradient id="a" cx="47.576" cy="775.168" r="62.384" gradientTransform="translate(0 -712.614)" gradientUnits="userSpaceOnUse"><stop offset=".049" style="stop-color:#ba6959"/><stop offset=".078" style="stop-color:#b76656"/><stop offset=".489" style="stop-color:#8a4133"/><stop offset=".809" style="stop-color:#6f2a1d"/><stop offset=".995" style="stop-color:#652115"/></radialGradient><path d="M119.3 78.7C117.8 42 90.4 37.1 77.8 28.3 70.2 23 66.9 11.8 63.3 12.2c-3.6.3-6.1 13.3-25.1 23.3-17.6 9.3-35.8 22.9-27.7 56.2.8 3.2 1.8 6.1 3.1 8.7 33.9 19.1 72.3 9.3 104.1-7.3 1.2-4.3 1.8-9 1.6-14.4z" style="fill:url(#a)"/><linearGradient id="b" x1="65.7" x2="65.7" y1="815.364" y2="834.864" gradientTransform="translate(0 -712.614)" gradientUnits="userSpaceOnUse"><stop offset="0" style="stop-color:#69452b"/><stop offset=".193" style="stop-color:#7b563c"/><stop offset=".577" style="stop-color:#aa8267"/><stop offset=".906" style="stop-color:#d6ac90"/></linearGradient><path d="M13.6 100.4c11.6 24.3 41.2 23.2 53.7 24 11.8.8 43-5.2 50.5-31.3-15.9 8.3-35.7 2-51.7 13.2-14.7 10.2-35.6-2.5-52.5-5.9z" style="fill:url(#b)"/><g style="opacity:.2"><path d="M63.6 15.5c.8.9 2 2.7 2.9 4.1 2.4 3.6 5.3 8.1 9.6 11.1 2.7 1.9 6.1 3.6 9.6 5.4 13.2 6.8 29.6 15.2 30.7 42.7.2 4.8-.3 9.3-1.5 13.3-6.8 23.9-35.2 29.2-45.5 29.2-.7 0-1.3 0-1.9-.1-1.2-.1-2.6-.1-4-.2-14-.6-37.4-1.7-47.2-22.1-1.2-2.6-2.2-5.3-2.9-8.1C10 76.6 11.2 65.3 17 56.4c5.5-8.3 14.6-13.8 22.7-18.3C52.4 31 58.2 23 61.6 18.2c.6-1 1.4-2 2-2.7m-.1-3.3h-.2c-3.5.3-6.3 12.8-25.1 23.3C20 45.7 2.5 58 10.5 91.7c.8 3.2 1.8 6.1 3.1 8.7 11.6 24.3 41.2 23.2 53.7 24 .6 0 1.3.1 2.1.1 13.1 0 41.3-6.7 48.4-31.4 1.2-4.2 1.8-9 1.6-14.3-1.7-36.8-29-41.7-41.7-50.5-7.3-5.2-10.7-16.1-14.2-16.1z" style="fill:#eee"/></g><g style="opacity:.63"><path d="M91.1 44.9c8.3 2.3 14.9 9.3 18.4 16.9 2.1 4.4 3.3 9.3 3.4 14.2.1 2.5-.2 4.9-.7 7.4-.2.7-1.1 5.2-1.9 5.3-1.1.2-.5-2-.5-2.8 0-2.2-.1-4.4-.4-6.6-.6-4.8-2-9.6-3.9-14.1-3.4-7.8-8.4-14.4-14.8-19.9l.4-.4z" style="fill:#42210b"/></g><g style="opacity:.57"><path d="M74.1 39.3c14.1 4.2 23.1 20.2 23.1 34.3 0 3.4-.5 6.9-1.7 10.1-.1.4-.7 2.5-1.3 2.2-.4-.2 0-3.3-.1-3.9-.1-8-2-15.8-5.4-23-3.6-7.6-8.7-13.9-15-19.4.1-.1.2-.2.4-.3z" style="fill:#42210b"/></g><path d="M46 41.3c-2.5 4-5.2 7.8-7.2 12-2.3 4.9-3.9 10-4.9 15.3-.9 4.7-1.3 9.4-1.4 14.2 0 1.6.9 12.6-.3 13-2.8-9.8-4.1-20.1-1.8-30.2 1.3-5.6 3.5-11 6.9-15.7.8-1.2 7.6-9.6 8.7-8.6zM24.1 88.5c-3.7-5.1-4.5-12.2-3.2-18.2.6-2.9 1.7-5.8 3.3-8.4.7-1.2 3.2-5.2 4.6-4.9-2.8 5.1-4.6 10.5-5.3 16.3-.4 3.1-.4 6.2-.1 9.3.1 1.5 1.3 5.1.7 5.9z" style="fill:#d1a088"/><g style="opacity:.57"><path d="M76.4 60.9c5.5 1.6 9.2 7.1 10.5 12.4.7 3.2.7 6.6-.3 9.7-.3 1-2.3 6.3-3.7 6-.7-.1.1-4.8.1-5.7 0-3-.3-6-1-8.9-.7-2.8-1.6-5.5-2.9-8.1-.7-1.3-1.4-2.6-2.2-3.8-.1-.2-.9-1-.8-1.2 0-.1.3-.4.3-.4z" style="fill:#42210b"/></g></svg>