<svg xmlns="http://www.w3.org/2000/svg" viewBox="0 0 128 128"><radialGradient id="a" cx="51.629" cy="69.764" r="43.539" gradientTransform="matrix(1 0 0 .9654 0 4.28)" gradientUnits="userSpaceOnUse"><stop offset=".008" stop-color="#BD9563"/><stop offset=".319" stop-color="#AA8252"/><stop offset=".949" stop-color="#795028"/><stop offset="1" stop-color="#754C24"/></radialGradient><path fill="url(#a)" d="M39.29 55.42c-6.3 6.86-9.64 16.97-9.64 29.21s3.34 22.35 9.64 29.21c6.02 6.48 14.69 10.09 23.71 9.85 9.02.24 17.69-3.36 23.71-9.85 6.3-6.86 9.64-16.97 9.64-29.21s-3.34-22.35-9.63-29.21c-10.2-11.26-34.71-13.7-47.43 0z"/><path fill="#424242" d="M62.64 49.03c8.79 0 17.17 3.22 21.87 8.41 5.78 6.31 8.84 15.71 8.84 27.19s-3.06 20.88-8.84 27.17c-5.25 5.66-12.78 8.9-20.67 8.9-.25 0-.51 0-.76-.01h-.16c-.25.01-.51.01-.76.01-7.88 0-15.42-3.24-20.66-8.89-5.79-6.31-8.85-15.71-8.85-27.18 0-11.48 3.06-20.88 8.84-27.17 5.04-5.43 12.56-8.43 21.15-8.43m0-3c-8.58 0-17.29 2.86-23.35 9.38-6.3 6.86-9.64 16.97-9.64 29.21s3.34 22.35 9.64 29.21c5.83 6.28 14.15 9.86 22.87 9.86.28 0 .56 0 .84-.01.28.01.56.01.84.01 8.71 0 17.03-3.58 22.87-9.86 6.3-6.86 9.64-16.97 9.64-29.21 0-12.25-3.34-22.35-9.63-29.21-5.35-5.9-14.63-9.38-24.08-9.38z" opacity=".2"/><radialGradient id="b" cx="61.99" cy="73.932" r="12.206" gradientTransform="matrix(1 0 0 .9654 0 4.28)" gradientUnits="userSpaceOnUse"><stop offset="0" stop-color="#FFD03D"/><stop offset="1" stop-color="#FA8100"/></radialGradient><path fill="url(#b)" d="M53.53 76.88c3.34-2.81 6.49-5.81 9.43-8.99 2.95 3.18 6.1 6.19 9.43 8.99a93.526 93.526 0 0 1-9.43 9.02 93.526 93.526 0 0 1-9.43-9.02z"/><radialGradient id="c" cx="62.979" cy="95.052" r="9.271" gradientTransform="matrix(1 0 0 .9654 0 4.28)" gradientUnits="userSpaceOnUse"><stop offset="0" stop-color="#FFD03D"/><stop offset=".214" stop-color="#FFCC3A"/><stop offset=".446" stop-color="#FEBF30"/><stop offset=".686" stop-color="#FDA91F"/><stop offset=".93" stop-color="#FB8B08"/><stop offset="1" stop-color="#FA8100"/></radialGradient><path fill="url(#c)" d="M73.51 96.08c-.97.78-1.95 1.56-2.97 2.32-2.45 1.85-5.01 3.58-7.56 5.18-2.56-1.56-5.11-3.35-7.56-5.18-1.03-.78-2.02-1.56-2.97-2.32 3.68-2.31 7.2-4.84 10.55-7.58 3.33 2.74 6.84 5.27 10.51 7.58z"/><radialGradient id="d" cx="52.296" cy="62.824" r="14.462" gradientTransform="matrix(1 0 0 .9654 0 4.28)" gradientUnits="userSpaceOnUse"><stop offset="0" stop-color="#FFD03D"/><stop offset="1" stop-color="#FA8100"/></radialGradient><path fill="url(#d)" d="M52.24 75.22a57.727 57.727 0 0 1-6.87-9.87c1.29-1.07 2.56-2.18 3.76-3.28 1.19-1.11 2.56-2.44 3.66-3.63.37-.4.71-.79 1.05-1.18l.34-.4.63.16h.1l.56.95c.31.5.64 1.02 1 1.56l.29.4c1.41 2.02 2.92 3.97 4.53 5.84l.35.4c-2.93 3.2-6.07 6.23-9.4 9.05z"/><radialGradient id="e" cx="40.38" cy="71.71" r="10.475" gradientTransform="matrix(1 0 0 .9654 0 4.28)" gradientUnits="userSpaceOnUse"><stop offset="0" stop-color="#FFD03D"/><stop offset="1" stop-color="#FA8100"/></radialGradient><path fill="url(#e)" d="M50.63 76.48c-3.28 2.71-6.73 5.2-10.35 7.47-2.59-3.2-4.51-6.85-5.68-10.76 3.14-2.03 6.16-4.21 9.06-6.54 2 3.49 4.33 6.78 6.97 9.83z"/><radialGradient id="f" cx="50.478" cy="84.232" r="12.711" gradientTransform="matrix(1 0 0 .9654 0 4.28)" gradientUnits="userSpaceOnUse"><stop offset="0" stop-color="#FFD03D"/><stop offset="1" stop-color="#FA8100"/></radialGradient><path fill="url(#f)" d="M51.98 78.04c2.92 3.25 6.06 6.3 9.4 9.14-3.37 2.73-6.92 5.25-10.63 7.53-3.33-2.78-6.4-5.84-9.17-9.14 3.64-2.29 7.13-4.8 10.43-7.52l-.03-.01z"/><radialGradient id="g" cx="50.074" cy="102" r="8.361" gradientTransform="matrix(1 0 0 .9654 0 4.28)" gradientUnits="userSpaceOnUse"><stop offset="0" stop-color="#FFD03D"/><stop offset=".314" stop-color="#FFCF3C"/><stop offset=".515" stop-color="#FFCC3A"/><stop offset=".657" stop-color="#FEC333"/><stop offset=".781" stop-color="#FDB327"/><stop offset=".893" stop-color="#FC9E16"/><stop offset=".998" stop-color="#FA8100"/><stop offset="1" stop-color="#FA8100"/></radialGradient><path fill="url(#g)" d="M54.06 100.02c2.27 1.77 4.63 3.33 6.92 4.79-3.42 2.06-6.98 3.9-10.66 5.49-3.55-2.38-6.9-5.03-10.03-7.91 3.54-1.48 6.96-3.21 10.24-5.18 1.14.95 2.32 1.88 3.55 2.82l-.02-.01z"/><radialGradient id="h" cx="62.946" cy="111.23" r="8.537" gradientTransform="matrix(1 0 0 .9654 0 4.28)" gradientUnits="userSpaceOnUse"><stop offset=".008" stop-color="#FFFDE7"/><stop offset="1" stop-color="#FFC400"/></radialGradient><path fill="url(#h)" d="M62.95 106.04c3.4 2.09 6.93 3.97 10.58 5.62a74.33 74.33 0 0 1-10.58 5.62 74.33 74.33 0 0 1-10.58-5.62c3.65-1.65 7.19-3.52 10.59-5.6l-.01-.02z"/><radialGradient id="i" cx="75.265" cy="103.05" r="8.74" gradientTransform="matrix(1 0 0 .9654 0 4.28)" gradientUnits="userSpaceOnUse"><stop offset="0" stop-color="#FFD03D"/><stop offset=".246" stop-color="#FFCD39"/><stop offset=".512" stop-color="#FFC52C"/><stop offset=".786" stop-color="#FFB816"/><stop offset="1" stop-color="#FFAB00"/></radialGradient><path fill="url(#i)" d="M64.93 104.8c2.32-1.56 4.64-3.11 6.88-4.78 1.24-.93 2.4-1.87 3.55-2.8 3.28 1.97 6.7 3.7 10.24 5.18a84.468 84.468 0 0 1-10.03 7.91c-3.66-1.6-7.2-3.44-10.61-5.49l-.03-.02z"/><radialGradient id="j" cx="74.418" cy="85.047" r="9.297" gradientTransform="matrix(1 0 0 .9654 0 4.28)" gradientUnits="userSpaceOnUse"><stop offset="0" stop-color="#FFD03D"/><stop offset=".265" stop-color="#FFCD3B"/><stop offset=".477" stop-color="#FEC333"/><stop offset=".67" stop-color="#FDB226"/><stop offset=".851" stop-color="#FC9A14"/><stop offset="1" stop-color="#FA8100"/></radialGradient><path fill="url(#j)" d="M75.14 94.71c-3.71-2.28-7.26-4.8-10.63-7.53 3.34-2.84 6.48-5.89 9.4-9.14 3.3 2.73 6.78 5.24 10.42 7.53-2.77 3.3-5.84 6.37-9.17 9.15l-.02-.01z"/><radialGradient id="k" cx="83.254" cy="73.575" r="8.495" gradientTransform="matrix(1 0 0 .9654 0 4.28)" gradientUnits="userSpaceOnUse"><stop offset="0" stop-color="#FFD03D"/><stop offset=".24" stop-color="#FFCB34"/><stop offset=".625" stop-color="#FFBD1D"/><stop offset="1" stop-color="#FFAB00"/></radialGradient><path fill="url(#k)" d="M75.25 76.48c2.63-3.05 4.96-6.34 6.95-9.82 2.9 2.33 5.93 4.51 9.06 6.54-1.16 3.9-3.09 7.55-5.68 10.76-3.6-2.27-7.04-4.76-10.3-7.47l-.03-.01z"/><radialGradient id="l" cx="72.468" cy="63.965" r="8.855" gradientTransform="matrix(1 0 0 .9654 0 4.28)" gradientUnits="userSpaceOnUse"><stop offset="0" stop-color="#FFD03D"/><stop offset="1" stop-color="#FA8100"/></radialGradient><path fill="url(#l)" d="M73.73 75.22c-3.33-2.83-6.47-5.87-9.4-9.09l.35-.4c1.61-1.86 3.12-3.81 4.53-5.82l.29-.42c.33-.5.66-1.02.97-1.56l.58-.95h.19l.56-.14.35.42c.34.39.68.79 1.05 1.2 1.11 1.2 2.37 2.44 3.71 3.67s2.42 2.16 3.68 3.21a57.081 57.081 0 0 1-6.84 9.88h-.02z"/><radialGradient id="m" cx="62.946" cy="58.765" r="4.576" gradientTransform="matrix(1 0 0 .9654 0 4.28)" gradientUnits="userSpaceOnUse"><stop offset="0" stop-color="#FFD03D"/><stop offset=".194" stop-color="#FFC937"/><stop offset=".481" stop-color="#FDB528"/><stop offset=".822" stop-color="#FB950F"/><stop offset="1" stop-color="#FA8100"/></radialGradient><path fill="url(#m)" d="m68.03 57.93-.45.67-.61.87-.56.78a70.878 70.878 0 0 1-3.43 4.3 64.638 64.638 0 0 1-3.43-4.31l-.56-.76-.61-.87-.45-.67-.29-.45 1.36.14 1.61.11h4.78l1.61-.11 1.29-.14-.26.44z"/><radialGradient id="n" cx="46.952" cy="55.008" r="5.638" gradientTransform="matrix(1 0 0 .9654 0 4.28)" gradientUnits="userSpaceOnUse"><stop offset="0" stop-color="#FFD03D"/><stop offset=".206" stop-color="#FEC635"/><stop offset=".555" stop-color="#FDAC21"/><stop offset="1" stop-color="#FA8100"/></radialGradient><path fill="url(#n)" d="M47.56 51.31c-.1.21-.16.44-.16.67.06 1.12.65 2.15 1.61 2.79l.31.22c.78.52 1.64.94 2.53 1.25l-.89.98c-.6.65-1.26 1.32-1.95 1.99-1.45 1.4-3.05 2.85-4.72 4.25a22.105 22.105 0 0 1-2.24-8.02 27.46 27.46 0 0 1 5.51-4.05v-.08z"/><radialGradient id="o" cx="38.317" cy="62.086" r="5.856" gradientTransform="matrix(1 0 0 .9654 0 4.28)" gradientUnits="userSpaceOnUse"><stop offset="0" stop-color="#FFD03D"/><stop offset=".212" stop-color="#FFCB3A"/><stop offset=".446" stop-color="#FEBE2F"/><stop offset=".69" stop-color="#FCA81E"/><stop offset=".939" stop-color="#FB8A07"/><stop offset="1" stop-color="#FA8100"/></radialGradient><path fill="url(#o)" d="M40.18 57.43c.48 2.55 1.33 5.02 2.52 7.35-2.73 2.21-5.57 4.29-8.51 6.23-.08-.59-.12-1.19-.13-1.79 0-.15-.04-.3-.11-.44 1.28-4.14 3.4-7.99 6.23-11.35z"/><radialGradient id="p" cx="35.036" cy="79.895" r="5.732" gradientTransform="matrix(1 0 0 .9654 0 4.28)" gradientUnits="userSpaceOnUse"><stop offset="0" stop-color="#FFD03D"/><stop offset="1" stop-color="#FA8100"/></radialGradient><path fill="url(#p)" d="M31.57 85.03c-.02-3.54.29-7.07.92-10.55l.24-.14c1.27 3.86 3.22 7.48 5.77 10.69-2.2 1.29-4.48 2.45-6.84 3.46-.04-1.12-.09-2.26-.09-3.46z"/><radialGradient id="q" cx="40.349" cy="92.682" r="7.947" gradientTransform="matrix(1 0 0 .9654 0 4.28)" gradientUnits="userSpaceOnUse"><stop offset="0" stop-color="#FFD03D"/><stop offset=".245" stop-color="#FFCC3A"/><stop offset=".462" stop-color="#FEC232"/><stop offset=".669" stop-color="#FDB024"/><stop offset=".868" stop-color="#FB9610"/><stop offset="1" stop-color="#FA8100"/></radialGradient><path fill="url(#q)" d="M31.83 90.67c2.76-1.13 5.42-2.46 7.97-3.98a74.89 74.89 0 0 0 9.08 9.17 76.58 76.58 0 0 1-10.22 4.98c-2.91-2.62-5.21-5.8-6.74-9.34-.03-.26-.05-.59-.08-.81v-.02z"/><radialGradient id="r" cx="34.73" cy="98.994" r="2.24" gradientTransform="matrix(1 0 0 .9654 0 4.28)" gradientUnits="userSpaceOnUse"><stop offset="0" stop-color="#FFD03D"/><stop offset="1" stop-color="#FA8100"/></radialGradient><path fill="url(#r)" d="M32.89 97.36a43.61 43.61 0 0 0 3.68 4.25c-.75.26-1.5.5-2.24.73-.58-1.63-1.06-3.29-1.44-4.98z"/><radialGradient id="s" cx="41.55" cy="107.64" r="5.855" gradientTransform="matrix(1 0 0 .9654 0 4.28)" gradientUnits="userSpaceOnUse"><stop offset="0" stop-color="#FFD03D"/><stop offset=".289" stop-color="#FFCD3B"/><stop offset=".495" stop-color="#FEC434"/><stop offset=".676" stop-color="#FDB427"/><stop offset=".841" stop-color="#FC9E17"/><stop offset=".996" stop-color="#FA8201"/><stop offset="1" stop-color="#FA8100"/></radialGradient><path fill="url(#s)" d="M35.08 104.27c1.03-.31 2.06-.65 3.11-1.04 3.06 2.91 6.35 5.58 9.84 8a30.36 30.36 0 0 1-7.34 1.95 31.289 31.289 0 0 1-5.63-8.89l.02-.02z"/><radialGradient id="t" cx="51.434" cy="116.33" r="6.888" gradientTransform="matrix(1 0 0 .9654 0 4.28)" gradientUnits="userSpaceOnUse"><stop offset=".008" stop-color="#FFFDE7"/><stop offset="1" stop-color="#FFC400"/></radialGradient><path fill="url(#t)" d="M42.57 115.01c2.58-.53 5.09-1.31 7.51-2.32 3.26 2.13 6.67 4.03 10.22 5.67-2.87 1.09-5.87 1.8-8.93 2.12a27.54 27.54 0 0 1-8.8-5.47z"/><path fill="#FDD835" d="M63.01 122.5c-2.37 0-4.73-.24-7.05-.72a46.44 46.44 0 0 0 7-2.26 46.6 46.6 0 0 0 7.01 2.27c-2.28.48-4.62.71-6.96.71z"/><radialGradient id="u" cx="74.588" cy="116.33" r="6.919" gradientTransform="matrix(1 0 0 .9654 0 4.28)" gradientUnits="userSpaceOnUse"><stop offset="0" stop-color="#FFD03D"/><stop offset=".246" stop-color="#FFCD39"/><stop offset=".512" stop-color="#FFC52C"/><stop offset=".786" stop-color="#FFB816"/><stop offset="1" stop-color="#FFAB00"/></radialGradient><path fill="url(#u)" d="M74.64 120.47c-3.07-.31-6.09-1.01-8.96-2.1 3.53-1.65 6.93-3.54 10.17-5.68 2.46 1.04 5.03 1.83 7.66 2.37a27.454 27.454 0 0 1-8.87 5.41z"/><radialGradient id="v" cx="84.432" cy="107.68" r="5.875" gradientTransform="matrix(1 0 0 .9654 0 4.28)" gradientUnits="userSpaceOnUse"><stop offset="0" stop-color="#FFD03D"/><stop offset=".246" stop-color="#FFCD39"/><stop offset=".512" stop-color="#FFC52C"/><stop offset=".786" stop-color="#FFB816"/><stop offset="1" stop-color="#FFAB00"/></radialGradient><path fill="url(#v)" d="M85.34 113.22c-2.55-.33-5.05-.99-7.42-1.96a83.87 83.87 0 0 0 9.79-8.02c1.06.39 2.13.75 3.22 1.07a31.363 31.363 0 0 1-5.61 8.89l.02.02z"/><radialGradient id="w" cx="91.308" cy="98.905" r="2.336" gradientTransform="matrix(1 0 0 .9654 0 4.28)" gradientUnits="userSpaceOnUse"><stop offset="0" stop-color="#FFD03D"/><stop offset="1" stop-color="#FA8100"/></radialGradient><path fill="url(#w)" d="M91.71 102.32c-.76-.23-1.53-.48-2.31-.75 1.36-1.39 2.64-2.87 3.81-4.42-.39 1.77-.9 3.51-1.52 5.21l.02-.04z"/><radialGradient id="x" cx="85.617" cy="92.69" r="7.964" gradientTransform="matrix(1 0 0 .9654 0 4.28)" gradientUnits="userSpaceOnUse"><stop offset="0" stop-color="#fff"/><stop offset=".086" stop-color="#FFFCF7"/><stop offset=".218" stop-color="#FFF5E2"/><stop offset=".378" stop-color="#FFEABF"/><stop offset=".561" stop-color="#FFDA8F"/><stop offset=".764" stop-color="#FFC652"/><stop offset=".979" stop-color="#FFAD07"/><stop offset="1" stop-color="#FFAB00"/></radialGradient><path fill="url(#x)" d="M94.16 91.09c-.68 2.63-3.22 6.12-6.87 9.76a76.58 76.58 0 0 1-10.22-4.98c3.28-2.8 6.3-5.88 9.03-9.18 2.58 1.54 5.27 2.89 8.06 4.03v.37z"/><radialGradient id="y" cx="90.93" cy="79.92" r="5.76" gradientTransform="matrix(1 0 0 .9654 0 4.28)" gradientUnits="userSpaceOnUse"><stop offset="0" stop-color="#FFD03D"/><stop offset="1" stop-color="#FFAB00"/></radialGradient><path fill="url(#y)" d="M93.53 74.54c.62 3.46.92 6.98.9 10.49 0 1.2 0 2.37-.1 3.5a61.46 61.46 0 0 1-6.92-3.5c2.55-3.22 4.5-6.83 5.77-10.69l.35.2z"/><radialGradient id="z" cx="87.656" cy="62.086" r="5.916" gradientTransform="matrix(1 0 0 .9654 0 4.28)" gradientUnits="userSpaceOnUse"><stop offset="0" stop-color="#FFD03D"/><stop offset="1" stop-color="#FA8100"/></radialGradient><path fill="url(#z)" d="M85.76 57.42c2.85 3.35 4.99 7.21 6.3 11.36-.11.15-.17.33-.18.51-.01.6-.05 1.2-.13 1.79-2.94-1.94-5.78-4.02-8.51-6.23 1.2-2.37 2.04-4.9 2.5-7.5l.02.07z"/><radialGradient id="A" cx="78.949" cy="55.024" r="5.607" gradientTransform="matrix(1 0 0 .9654 0 4.28)" gradientUnits="userSpaceOnUse"><stop offset="0" stop-color="#FFD03D"/><stop offset=".058" stop-color="#FFCD38"/><stop offset=".442" stop-color="#FFBA19"/><stop offset=".769" stop-color="#FFAF07"/><stop offset="1" stop-color="#FFAB00"/></radialGradient><path fill="url(#A)" d="M83.84 55.35c-.23 2.8-.99 5.54-2.24 8.08-1.61-1.39-3.22-2.79-4.64-4.17-.71-.68-1.39-1.37-2-2.04l-.9-1.01c.92-.31 1.79-.74 2.6-1.28l.31-.22c.96-.63 1.56-1.66 1.61-2.79 0-.19-.04-.37-.11-.54 1.95 1.1 3.75 2.43 5.37 3.97z"/><linearGradient id="B" x1="63.536" x2="63.536" y1="5.851" y2="25.592" gradientUnits="userSpaceOnUse"><stop offset=".007" stop-color="#AED581"/><stop offset=".332" stop-color="#8EBD60"/><stop offset=".678" stop-color="#73A743"/><stop offset=".876" stop-color="#689F38"/></linearGradient><path fill="url(#B)" d="M63.54 6.06c2.17 1.74 6.3 6.48 6.84 16.98-1.71 1.51-3.27 3.02-4.7 4.63l-4.29.02c-1.43-1.51-2.99-3.02-4.7-4.63.54-10.54 4.74-15.27 6.85-17z"/><linearGradient id="C" x1="55.397" x2="96.427" y1="24.167" y2="24.167" gradientUnits="userSpaceOnUse"><stop offset=".007" stop-color="#AED581"/><stop offset=".332" stop-color="#8EBD60"/><stop offset=".678" stop-color="#73A743"/><stop offset=".876" stop-color="#689F38"/></linearGradient><path fill="url(#C)" d="M96.43 3.84c-9.56 3.78-17.99 8.79-24.87 14.76-.77.64-1.49 1.29-2.17 1.93l.02.02c-.74.71-1.47 1.42-2.14 2.1-.61.67-1.21 1.34-1.81 2.01-.71-.68-1.38-1.19-1.93-1.57-2.5 1.72-7.5 6.39-8.14 16.82 2.03 1.6 3.89 3.09 5.59 4.58l5.1-.01c1.7-1.6 3.55-3.09 5.59-4.58-.14-2.19-.47-4.11-.92-5.82 2.28-1.66 4.74-3.19 7.37-4.57 4.05-9.2 10.23-17.87 18.31-25.67z"/><linearGradient id="D" x1="35.013" x2="62.223" y1="1.7" y2="35.712" gradientUnits="userSpaceOnUse"><stop offset=".136" stop-color="#388E3C"/><stop offset=".27" stop-color="#439542"/><stop offset=".506" stop-color="#60A654"/><stop offset=".815" stop-color="#90C36F"/><stop offset=".993" stop-color="#AED581"/></linearGradient><path fill="url(#D)" d="M30.64 3.84c9.56 3.78 18 8.8 24.87 14.78.74.64 1.46 1.29 2.17 1.93.74.71 1.47 1.4 2.17 2.11.69.71 1.52 1.62 2.17 2.4-.8 1.04-1.52 2.1-2.17 3.19-.52.85-1.02 1.75-1.49 2.73-.24.48-.45.98-.67 1.51s-.52 1.33-.76 2.04c-2.42-1.81-5.07-3.46-7.91-4.95-4.06-9.23-10.27-17.92-18.38-25.74z"/><linearGradient id="E" x1="67.957" x2="94.447" y1="46.944" y2="18.002" gradientUnits="userSpaceOnUse"><stop offset=".136" stop-color="#388E3C"/><stop offset=".27" stop-color="#439542"/><stop offset=".506" stop-color="#60A654"/><stop offset=".815" stop-color="#90C36F"/><stop offset=".993" stop-color="#AED581"/></linearGradient><path fill="url(#E)" d="m76.78 43.49-.26.54c-1.56.42-3.08.93-4.53 1.51l-1.1.46c-.75.32-1.47.65-2.17 1l-.76.39c-.55.29-1.07.59-1.56.91l-.58-.91c-.37-.54-.71-1.04-1.06-1.51l-.26-.35c-.45-.57-.87-1.07-1.26-1.51s-.71-.79-1-1.07l.28-.47a46.62 46.62 0 0 1 3.14-3.68l.82-.85.84-.88L68.47 36l.41-.38c.49-.43 1-.86 1.52-1.28 1.59-1.28 3.3-2.48 5.11-3.61.91-.57 1.86-1.15 2.86-1.69s1.88-1.01 2.86-1.51c5.97-2.87 12.68-4.92 19.75-6.04-7.91 4.18-19.17 11.62-24.24 22h.04z"/><linearGradient id="F" x1="66.928" x2="80.916" y1="52.775" y2="38.706" gradientUnits="userSpaceOnUse"><stop offset=".136" stop-color="#388E3C"/><stop offset=".27" stop-color="#439542"/><stop offset=".506" stop-color="#60A654"/><stop offset=".815" stop-color="#90C36F"/><stop offset=".993" stop-color="#AED581"/></linearGradient><path fill="url(#F)" d="M83.77 41.33c-1.99 1.04-3.78 2.26-5.31 3.62-.57.52-1.09 1.06-1.56 1.62l-.52.65c-1.14 1.52-5.17 6.7-6.58 6.93-.24-1.35-.58-2.68-1.02-4-.17-.51-.35-1-.54-1.51s-.43-1.06-.65-1.51l-.17-.35c.55-.36 1.12-.71 1.71-1.06a31.451 31.451 0 0 1 7.84-3.22c.85-.23 1.58-.39 2.4-.56 1.44-.28 2.9-.49 4.38-.62h.02z"/><linearGradient id="G" x1="33.29" x2="66.99" y1="19.497" y2="55.663" gradientUnits="userSpaceOnUse"><stop offset=".007" stop-color="#AED581"/><stop offset=".332" stop-color="#8EBD60"/><stop offset=".678" stop-color="#73A743"/><stop offset=".876" stop-color="#689F38"/></linearGradient><path fill="url(#G)" d="M63.9 40.95c-1.31-1.35-2.72-2.64-4.17-3.89l-1.15-.98-.41-.38c-.49-.43-1-.86-1.52-1.28-1.59-1.3-3.3-2.53-5.11-3.68-.91-.59-1.86-1.15-2.86-1.69-.91-.52-1.86-1.03-2.86-1.51-5.97-2.87-12.68-4.92-19.75-6.04 7.62 4.03 18.39 11.12 23.7 20.95-.69-.18-1.56-.35-2.3-.49-1.42-.3-2.48-.52-4.48-.68v.06c2 1.04 3.88 2.26 5.39 3.62.57.52 1.16 1.06 1.63 1.62l.56.65c.96 1.27 3.96 5.13 5.73 6.47 0 .05 0 .09-.01.14 1.81 1.2 12.65 1.11 14.45-.01-.34-4.9-3.18-9.11-6.84-12.88z"/><path fill="#424242" d="M63.44 10.63c1.36 1.86 2.9 4.95 3.56 9.87a2.996 2.996 0 0 0 2.98 2.6c.74 0 1.46-.27 2.02-.78.52-.47.96-.86 1.42-1.25 3.24-2.82 6.82-5.4 10.72-7.74-3.48 4.7-6.38 9.62-8.67 14.73a3 3 0 0 0 .7 3.43c.57.52 1.3.79 2.03.79.49 0 .99-.12 1.44-.37l.07-.04c.93-.51 1.78-.96 2.74-1.45.46-.22.92-.43 1.38-.64-4.7 4.28-7.54 8.3-9.26 11.47-.56 1.03-.46 2.29.24 3.22-.11.11-.21.23-.32.36-.02.02-.03.04-.05.05l-.52.65c-.02.03-.04.05-.06.08-1.68 2.24-3.98 4.97-5.1 5.85-.02.01-.03.02-.05.04-.95.19-2.94.39-5.53.39-2.69 0-4.44-.22-5.2-.38-.01-.01-.02-.01-.03-.02-1.22-.93-3.81-4.05-5.18-5.88-.08-.11-.17-.21-.27-.31l-.57-.58c-.02-.02-.04-.05-.06-.07.05-.05.09-.11.14-.16.74-.94.85-2.23.28-3.28-2.33-4.32-5.6-8.12-9.21-11.4.44.2.88.4 1.32.61.93.45 1.83.92 2.67 1.41.02.01.03.01.05.03l.11.06c.45.25.95.37 1.44.37.74 0 1.47-.27 2.04-.8.95-.87 1.23-2.26.7-3.43-2.29-5.1-5.19-10.02-8.67-14.72 3.88 2.33 7.45 4.91 10.68 7.72.42.37.83.74 1.24 1.1l.21.19c.56.5 1.28.77 2.01.77.35 0 .7-.06 1.04-.19a3.016 3.016 0 0 0 1.94-2.42c.64-4.87 2.2-7.99 3.58-9.88m32.87-6.59c-9.56 3.78-17.99 8.79-24.87 14.76-.51.43-1 .87-1.48 1.3-1.11-8.33-4.61-12.29-6.55-13.84-1.88 1.55-5.43 5.51-6.55 13.88-.49-.44-.97-.88-1.47-1.32-6.87-5.98-15.31-11-24.87-14.78 7.97 7.68 14.09 16.22 18.14 25.26-.03-.02-.07-.04-.1-.06-.91-.52-1.86-1.03-2.86-1.51-5.97-2.87-12.68-4.92-19.75-6.04 7.62 4.03 18.39 11.12 23.7 20.95-.69-.18-1.9-.35-2.64-.49-1.42-.3-1.58-.62-3.79-.78 2.21 1.04 3.19 2.42 4.7 3.78.57.52 1.33 1.06 1.8 1.62l.64.65c.96 1.27 4.01 5.13 5.77 6.47 0 .05.02.09.02.14.88.59 3.93.87 7.02.87 3.23 0 6.51-.3 7.44-.88 0-.06-.02-.12-.02-.18 1.78-1.38 4.72-5.16 5.66-6.42l.52-.65c.47-.56.99-.97 1.56-1.49 1.53-1.37 3.31-2.63 5.31-3.5h-.02c-1.48 0-2.94.21-4.38.49-.7.14-1.35.23-2.04.4 5.3-9.81 16.04-16.95 23.66-20.98-7.08 1.12-13.78 3.17-19.75 6.04-.97.5-1.86.97-2.86 1.51l-.06.03c4.07-9.03 10.17-17.55 18.12-25.23zm4.57 17.66z" opacity=".2"/></svg>