<svg xmlns="http://www.w3.org/2000/svg" viewBox="0 0 128 128"><radialGradient id="a" cx="44.829" cy="63.172" r="52.381" gradientTransform="matrix(.9025 .5073 -.5498 .8917 37.393 -15.898)" gradientUnits="userSpaceOnUse"><stop offset=".106" stop-color="#F4877F"/><stop offset=".19" stop-color="#F37B74"/><stop offset=".34" stop-color="#EF5C56"/><stop offset=".538" stop-color="#EA2927"/><stop offset=".665" stop-color="#E60505"/><stop offset=".92" stop-color="#B80404"/><stop offset="1" stop-color="#B71C1C"/></radialGradient><path fill="url(#a)" d="M33.59 33.08c-9.21 3.15-25.7 16.98-20.25 45.55s24.82 41.01 30.81 43.03 7.92-.67 11.44.17 9.33 2.52 11.62 1.68 2.99-2.02 7.04-1.85 11.09-4.37 16.72-11.26 38.14-51.78 1.97-75.98c0 0-5.76-4.52-15.74-4.09-8.46.36-11.18 4.24-19.7 3.56-6.7-.54-12.11-4.84-23.91-.81z"/><path fill="#424242" d="M78.53 33.3c7.91 0 12.54 3.46 12.57 3.48.06.05.12.09.18.13 8.68 5.81 13.77 13.37 15.12 22.47 1.32 8.86-.76 19.13-6.19 30.51-4.96 10.4-10.9 17.8-11.56 18.61-5.13 6.28-11.36 10.17-14.18 10.17h-.1c-.31-.01-.6-.02-.87-.02-3.12 0-4.73.81-6.02 1.46-.45.23-.84.42-1.29.59 0 0-.18.05-.64.05-1.92 0-5.22-.82-7.63-1.42-.58-.15-1.13-.28-1.64-.4-.7-.17-1.4-.25-2.12-.25-1.16 0-2.2.22-3.11.41-.87.18-1.69.36-2.63.36-1.01 0-2.09-.2-3.31-.61-4.75-1.6-23.56-13.21-28.82-40.75-2.26-11.83-.84-21.98 4.23-30.17 4.15-6.71 9.98-10.59 14.04-11.98 3.04-1.04 5.81-1.55 8.47-1.55 3 0 5.43.63 8.01 1.29 1.98.51 4.03 1.04 6.25 1.21.74.06 1.47.09 2.18.09 4.05 0 6.88-.95 9.63-1.87 2.48-.83 4.82-1.62 8.25-1.77.4-.03.79-.04 1.18-.04m0-3c-.43 0-.87.01-1.32.03-7.78.33-10.71 3.64-17.76 3.64-.61 0-1.26-.03-1.94-.08-4.62-.37-8.62-2.51-14.49-2.51-2.68 0-5.74.45-9.44 1.71-9.21 3.15-25.7 16.98-20.25 45.55 5.46 28.58 24.82 41.01 30.81 43.03 1.71.58 3.09.77 4.27.77 2.36 0 3.93-.77 5.74-.77.45 0 .93.05 1.43.17 2.85.68 7.19 1.91 9.96 1.91.65 0 1.22-.07 1.66-.23 2.14-.79 2.89-1.87 6.29-1.87.24 0 .49.01.75.02h.22c4.08 0 10.97-4.5 16.5-11.27 5.63-6.89 38.14-51.78 1.97-75.98.03 0-5.23-4.12-14.4-4.12z" opacity=".2"/><linearGradient id="b" x1="46.874" x2="79.624" y1="44.626" y2="44.626" gradientUnits="userSpaceOnUse"><stop offset="0" stop-color="#E60505" stop-opacity="0"/><stop offset=".55" stop-color="#42210B"/><stop offset="1" stop-color="#E60505" stop-opacity="0"/></linearGradient><path fill="url(#b)" d="M48.3 44.81c-.83-.58-1.4-1.75-.77-2.43.62-.65 4.27-.32 7.13.26.71.18 5.79 1.57 8.7 1.46 1.96-.06 4.29-.61 7.79-1.4 3.7-.87 3.62-1.31 5.3-1.45 1.66-.16 3.3-.13 3.53.72.19.72-.75 1.79-1.75 2.41-3.9 2.43-9.36 3.82-14.85 3.69-6.39-.13-11.62-.83-15.08-3.26z"/><linearGradient id="c" x1="67.983" x2="114.58" y1="18.755" y2="18.755" gradientTransform="rotate(3.859 86.29 20.286)" gradientUnits="userSpaceOnUse"><stop offset=".123" stop-color="#689F38"/><stop offset=".322" stop-color="#73A743"/><stop offset=".668" stop-color="#8EBD60"/><stop offset=".993" stop-color="#AED581"/></linearGradient><path fill="url(#c)" d="M112.51 8.53c-3.04 1.35-6.5-.83-10.01-2.12 0 0-7.26-2.67-15.37-.96-5.65 1.19-9.57 4.19-11.35 5.74-5.86 5.12-7.63 12.02-8.21 14.56.16.16.72 1.07.8 1.31.06-.01.1-.01.16-.02 4.36-.71 12.99 9.18 27.7 5.39s19.19-25.32 19.19-25.32l.12-.08c-.01-.01-2.37 1.21-3.03 1.5z"/><path fill="#424242" d="M92.78 7.87c4.9 0 8.66 1.34 8.69 1.35.68.25 1.37.54 2.11.85 2.18.92 4.44 1.88 6.86 1.88.14 0 .27 0 .41-.01-2.23 6.1-6.94 15.41-15.36 17.58-1.99.51-3.98.77-5.92.77-5.71 0-10.18-2.21-13.77-3.98-1.77-.87-3.29-1.63-4.74-2.02 1.68-5.54 4.51-8.93 6.7-10.86 2.03-1.78 5.42-4.1 9.99-5.06 1.59-.33 3.29-.5 5.03-.5m0-3c-1.77 0-3.68.16-5.65.57-5.65 1.19-9.57 4.19-11.35 5.74-5.86 5.12-7.63 12.02-8.21 14.56.16.16.72 1.07.8 1.31.06-.01.1-.01.16-.02.15-.02.31-.03.47-.03 3.74 0 10.28 6.3 20.56 6.3 2.07 0 4.29-.26 6.67-.87 14.71-3.79 19.19-25.32 19.19-25.32l.12-.08c-.04 0-2.38 1.21-3.03 1.5-.67.3-1.37.42-2.08.42-2.5 0-5.2-1.54-7.93-2.55 0 .01-4.17-1.53-9.72-1.53z" opacity=".2"/><path fill="#558B2F" d="M61.07 38.85s.01-.05.04-.15c.02-.09.05-.21.08-.38.09-.46.23-1.19.44-2.13.44-1.86 1.19-4.57 2.9-7.5.86-1.45 1.98-2.95 3.42-4.28.72-.67 1.51-1.29 2.38-1.84.43-.28.87-.53 1.35-.78l.65-.32.73-.33c1.93-.83 4.06-1.38 6.22-1.55 2.17-.18 4.32-.02 6.39.13 2.08.16 4.1.31 6.07.18 1.96-.13 3.86-.52 5.63-1.18a40.05 40.05 0 0 0 5.08-2.21c1.57-.81 3.03-1.64 4.34-2.47 2.63-1.65 4.71-3.2 6.11-4.34.7-.58 1.23-1.05 1.57-1.39.35-.34.5-.54.5-.54l.11.08s-.15.22-.47.59-.82.89-1.48 1.52c-1.32 1.26-3.32 2.96-5.88 4.78-1.27.92-2.7 1.85-4.26 2.78a40.9 40.9 0 0 1-5.08 2.59c-1.83.83-3.91 1.37-6.02 1.6-2.12.24-4.26.17-6.34.1-2.07-.08-4.1-.11-6.01.19-1.91.27-3.7.87-5.3 1.69l-.58.3-.62.36c-.35.21-.74.44-1.08.69-.7.48-1.33 1.02-1.9 1.6-1.15 1.14-2.02 2.42-2.7 3.67-1.34 2.53-1.89 4.94-2.2 6.63-.15.85-.25 1.53-.32 2.03-.04.25-.07.45-.13.71l-.06.22-3.58-1.05z"/><path fill="#42210B" d="M56.45 13.58c-.69-1.18-1.33-1.96-1.91-2.17-2.83-1.01-6.2 2.43-6.96 3.25 2.83 2.23 6.18.66 8.87-1.08z"/><linearGradient id="d" x1="51.984" x2="63.045" y1="13.165" y2="46.683" gradientUnits="userSpaceOnUse"><stop offset="0" stop-color="#8C6239"/><stop offset=".992" stop-color="#603813"/></linearGradient><path fill="url(#d)" d="M64.57 38.96c-.98-5.9-4.96-19.93-8.12-25.37-2.69 1.74-6.05 3.31-8.87 1.08-.1.11-.16.18-.16.18 6.64 7.79 9.22 10.85 12.02 18.82 2.88 8.18 3.5 11.69 3.33 12.96-.18 1.32 2.1.35 2.1.35s1.02-.14-.3-8.02z"/><path fill="#424242" d="M53.46 13.33c.1 0 .19.01.27.03.12.11.42.44.9 1.28 1.79 3.09 3.98 9.4 5.63 15.24-2.39-5.78-5-9.08-9.97-14.91 1.07-.9 2.28-1.64 3.17-1.64m0-2.1c-2.55 0-5.21 2.71-5.87 3.43-.1.11-.16.18-.16.18 6.64 7.79 9.22 10.85 12.02 18.82 2.88 8.18 3.5 11.69 3.33 12.96-.07.54.26.69.68.69.62 0 1.43-.34 1.43-.34s1.01-.13-.31-8.01c-.98-5.9-4.96-19.93-8.12-25.37-.69-1.18-1.33-1.96-1.91-2.17a3.21 3.21 0 0 0-1.09-.19z" opacity=".2"/></svg>