<svg xmlns="http://www.w3.org/2000/svg" viewBox="0 0 128 128"><radialGradient id="a" cx="41.464" cy="63.847" r="46.973" gradientTransform="matrix(.5584 .831 -1.0834 .7446 89.241 -20.498)" gradientUnits="userSpaceOnUse"><stop offset=".162" stop-color="#FFF176"/><stop offset=".318" stop-color="#FEE762"/><stop offset=".588" stop-color="#FCD745"/><stop offset=".822" stop-color="#FBCE33"/><stop offset=".992" stop-color="#FBCB2D"/></radialGradient><path fill="url(#a)" d="M27.37 49.81C43.48 32.8 66.16 26.22 83.38 33.69l.01-.02c3.87 1.8 7.41 1.49 11.7 5.71 5.06 4.97 3.22 6.43 5.27 10.17l-.02.01c8.57 16.68 2.59 40.62-12.9 58.17-12.08 13.68-37.39 18.08-54.95 14.34l-.01.02c-3.87-1.8-7.21-.97-7.21-.97l-2.75.42c-2.11.48-4.5.01-6.22-1.6s-2.33-3.76-1.95-5.86c.76-2.99 3.35-4.47 1.17-7.87l.01-.01c-7.27-14.1-2.01-41.76 11.84-56.39z"/><path fill="#424242" d="M68.16 30.64v3c5.02 0 9.74.94 14.03 2.8.09.04.17.07.26.1 1.3.58 2.52.94 3.7 1.3 2.48.74 4.44 1.33 6.84 3.69 2.63 2.59 2.89 3.73 3.25 5.31.23 1.01.51 2.25 1.28 3.77.04.11.09.23.15.34 7.78 15.14 2.65 37.68-12.48 54.82-7.83 8.87-23.47 14.6-39.84 14.6-4.28 0-8.33-.39-12.05-1.17a15.55 15.55 0 0 0-6.05-1.24c-1.26 0-2.17.16-2.55.24l-2.65.41c-.07.01-.14.02-.21.04-.3.07-.62.1-.93.1-.99 0-1.9-.34-2.57-.97-1.09-1.02-1.19-2.2-1.07-3.04.16-.55.44-1.08.76-1.69.95-1.79 2.37-4.47.18-8.14l-.03-.06c-6.89-13.4-1.26-39.63 11.37-52.96 10.81-11.42 25.24-18.23 38.61-18.23v-3.02m0 0c-13.99 0-29.11 6.85-40.78 19.17-13.86 14.63-19.12 42.29-11.87 56.4l-.01.01c2.19 3.4-.4 4.88-1.17 7.87-.38 2.11.24 4.26 1.95 5.86 1.29 1.21 2.97 1.78 4.62 1.78.54 0 1.08-.06 1.6-.18l2.75-.42s.77-.19 1.99-.19c1.33 0 3.2.22 5.22 1.16l.01-.02c3.97.85 8.34 1.28 12.86 1.28 15.47 0 32.74-5.03 42.09-15.61 15.5-17.55 21.47-41.49 12.9-58.17l.02-.01c-2.05-3.75-.21-5.2-5.27-10.17-4.29-4.21-7.83-3.91-11.7-5.71 0 0-.01.01-.01.02-4.73-2.08-9.88-3.07-15.2-3.07z" opacity=".2"/><linearGradient id="b" x1="22.393" x2="90.483" y1="21.239" y2="21.239" gradientTransform="rotate(-12.674 63.243 24.069)" gradientUnits="userSpaceOnUse"><stop offset=".123" stop-color="#689F38"/><stop offset=".322" stop-color="#73A743"/><stop offset=".668" stop-color="#8EBD60"/><stop offset=".993" stop-color="#AED581"/></linearGradient><path fill="url(#b)" d="M20.71 21.11s20.52 3.85 29.3 9.04 34.67 10.16 40.14-.94c4.93-9.99-9.57-24.14-29.85-24.25-20.27-.1-25.11 11.28-39.59 16.15z"/><path fill="#424242" d="M60 8h.29c5.86 0 11.54 1.31 16.43 3.73 4.34 2.15 7.8 5.06 9.75 8.22 1.24 2.01 2.42 5.01.98 7.93-2.15 4.35-9.23 5-13.27 5-8.56 0-18.24-2.7-22.66-5.31-5.38-3.18-14.62-5.82-21.49-7.48 2.04-1.19 3.93-2.44 5.8-3.69C42.31 12.07 48.41 8 60.04 8m0-3C39.99 5 35.12 16.28 20.71 21.13c0 0 20.52 3.84 29.3 9.03 4.91 2.9 15.15 5.72 24.19 5.72 7.15 0 13.54-1.75 15.96-6.66C95.09 19.24 80.58 5 60.31 5h-.27z" opacity=".2"/><linearGradient id="c" x1="71.517" x2="102.98" y1="28.185" y2="5.563" gradientUnits="userSpaceOnUse"><stop offset=".151" stop-color="#689F38"/><stop offset=".343" stop-color="#73A743"/><stop offset=".679" stop-color="#8EBD60"/><stop offset=".993" stop-color="#AED581"/></linearGradient><path fill="url(#c)" d="M115.06 27.07c-.86 1-4.09 4.65-6.73 6.7-2.69 2.09-10 2.22-10.25 2.34-.1.05-.19.09-.29.14-.26-.42-.6-.94-1.03-1.53-1.13-1.56-2.92-3.6-5.31-5.73-1.18-1.08-2.53-2.15-4-3.27-1.42-1.03-3.03-2.22-4.8-3.16-3.52-1.95-7.53-3.39-11.6-4.45-8.17-2.1-16.54-2.69-22.78-2.83-6.25-.13-10.4.21-10.4.21s4.17-.13 10.38.31c6.2.45 14.49 1.47 22.34 3.92 3.91 1.23 7.7 2.82 10.9 4.81 1.63.97 2.99 2.1 4.4 3.23 1.31 1.11 2.56 2.2 3.62 3.27 2.15 2.12 3.7 4.08 4.62 5.5.34.52.61.97.8 1.32-1.38 1.55-2.61 3.8-3.91 5.22-2.2 2.39-5.26 2.16-5.26 2.16-.88 2.82 2.47 4.95 3.13 5.17s2.56-3.63 4.76-6.45 6.36-4.77 9.87-4.76c3.5.01 4.38-1.07 6.58-2.37 1.55-.92 5.57-3.13 7.49-5.04-1.27-.69-2.53-1.9-3.54-1.9.75-.79.95-1.58 1.01-2.81z"/><linearGradient id="d" x1="115.68" x2="117.86" y1="29.827" y2="28.257" gradientUnits="userSpaceOnUse"><stop offset=".151" stop-color="#689F38"/><stop offset=".343" stop-color="#73A743"/><stop offset=".679" stop-color="#8EBD60"/><stop offset=".993" stop-color="#AED581"/></linearGradient><path fill="url(#d)" d="M118.54 29.67c-.87-1.96-3.25-2.86-3.25-2.86s-.09.1-.23.26c-.05 1.22-.26 2.01-1.05 2.8 1.02 0 2.28 1.21 3.54 1.9.8-.78 1.24-1.53.99-2.1z"/></svg>