<svg xmlns="http://www.w3.org/2000/svg" viewBox="0 0 128 128"><radialGradient id="a" cx="-237.34" cy="-43.526" r="61.34" gradientTransform="matrix(.5244 .8567 -1.2467 .7972 112.33 287.36)" gradientUnits="userSpaceOnUse"><stop offset="0" stop-color="#FF9E96"/><stop offset=".311" stop-color="#FF574A"/><stop offset=".428" stop-color="#FA4E43"/><stop offset=".613" stop-color="#EB3732"/><stop offset=".769" stop-color="#DB1F1F"/><stop offset=".996" stop-color="#ED2121"/></radialGradient><path fill="url(#a)" d="M107.52 79.66c4.4-16.68-6.51-35.25-24.71-49.4-12.34-9.6-24.93-9.75-31.81-10.04-7.63-.32-15.28 2.02-21.77 6.92-10.15 7.67-14.68 19.88-16.93 42.79-.84 8.56-2.08 17.37-1.21 25.82.81 7.82 4.02 14.5 9.07 19.99 6.33 6.88 16.79 9.38 26.24 7.78 8.94-1.51 17.38-6.37 25.52-10.68l2.43-1.29c20.34-10.77 29.93-19.58 33.17-31.89z"/><path fill="#424242" d="M49.61 23.19c.42 0 .84.01 1.26.03l.81.03c6.8.27 18.17.73 29.29 9.38 18.63 14.49 27.47 31.79 23.65 46.27-2.92 11.07-11.8 19.48-31.68 30.01l-1.73.91-.7.37c-.77.41-1.55.83-2.33 1.24-7.21 3.86-14.67 7.85-22.28 9.13-1.66.28-3.36.42-5.06.42-7.48 0-14.21-2.65-18.47-7.28-4.79-5.2-7.58-11.35-8.29-18.27-.71-6.85.06-14.18.81-21.26.14-1.32.28-2.65.41-3.96 2.2-22.39 6.62-33.8 15.75-40.69 5.48-4.14 11.91-6.33 18.56-6.33m0-3c-7.17 0-14.29 2.35-20.38 6.95-10.15 7.67-14.68 19.88-16.93 42.79-.84 8.56-2.08 17.37-1.21 25.82.81 7.82 4.02 14.5 9.07 19.99 5.11 5.55 12.9 8.25 20.68 8.25 1.87 0 3.73-.16 5.56-.46 8.94-1.51 17.38-6.37 25.52-10.68l2.43-1.29c20.35-10.77 29.93-19.59 33.18-31.89 4.4-16.68-6.51-35.25-24.71-49.4C70.47 20.66 57.88 20.51 51 20.22c-.46-.02-.93-.03-1.39-.03z" opacity=".2"/><g fill="#603813"><ellipse cx="29.96" cy="46.3" rx="3.36" ry="1.97" transform="rotate(-50.469 29.963 46.3)"/><ellipse cx="46.65" cy="53.62" rx="3.36" ry="1.97" transform="rotate(-87.318 46.654 53.62)"/><ellipse cx="70.28" cy="62.64" rx="3.36" ry="1.97" transform="rotate(-63.527 70.276 62.632)"/><ellipse cx="38.7" cy="64.97" rx="3.36" ry="1.97" transform="rotate(-83.806 38.698 64.964)"/><ellipse cx="23.58" cy="70.64" rx="3.36" ry="1.97" transform="rotate(-84.439 23.582 70.635)"/><ellipse cx="35.6" cy="83.87" rx="3.36" ry="1.97" transform="rotate(-63.527 35.6 83.867)"/><ellipse cx="50.65" cy="94.81" rx="3.36" ry="1.97" transform="rotate(-63.527 50.646 94.81)"/><ellipse cx="62.83" cy="105.68" rx="3.36" ry="1.97" transform="rotate(-26.143 62.828 105.68)"/><ellipse cx="65.74" cy="93" rx="3.36" ry="1.97" transform="rotate(-26.143 65.74 92.997)"/><ellipse cx="31.1" cy="106.21" rx="1.97" ry="3.36" transform="rotate(-21.89 31.095 106.199)"/><ellipse cx="43.74" cy="109.86" rx="3.36" ry="1.97" transform="rotate(-30 43.735 109.863)"/><ellipse cx="22.82" cy="88.88" rx="1.97" ry="3.36" transform="rotate(-15.507 22.82 88.884)"/><ellipse cx="51.97" cy="74.82" rx="3.36" ry="1.97" transform="rotate(-63.527 51.971 74.812)"/><ellipse cx="65.17" cy="77.41" rx="3.36" ry="1.97" transform="rotate(-45.001 65.17 77.412)"/><ellipse cx="78.79" cy="87.95" rx="3.36" ry="1.97" transform="rotate(-65.057 78.8 87.955)"/><ellipse cx="88.37" cy="76.62" rx="3.36" ry="1.97" transform="rotate(-53.864 88.376 76.62)"/></g><ellipse cx="88.42" cy="76.78" fill="#FFFDE7" rx="2.41" ry="1.42" transform="rotate(-62.102 88.422 76.776)"/><ellipse cx="78.63" cy="87.48" fill="#FFFDE7" rx="2.41" ry="1.42" transform="rotate(-62.102 78.63 87.476)"/><linearGradient id="b" x1="111.79" x2="78.884" y1="27.665" y2="46.858" gradientUnits="userSpaceOnUse"><stop offset=".007" stop-color="#AED581"/><stop offset=".332" stop-color="#8EBD60"/><stop offset=".678" stop-color="#73A743"/><stop offset=".876" stop-color="#689F38"/></linearGradient><path fill="url(#b)" d="M95.78 49.92c-5.02 2.68-11.69 3.81-16.07.18-3.05-2.52-4.2-6.97-3.15-10.79s4.09-6.93 7.73-8.5c2.16-.93 4.47-1.33 6.79-1.58 2.07-.22 4.13-.04 6.21-.26 3-.31 5.93-1.17 8.63-2.52 2.22-1.11 4.12-2.81 6.34-3.94-.22.11-.27 3.56-.33 4-.2 1.39-.48 2.76-.84 4.11-.74 2.77-1.81 5.44-3.18 7.95-1.29 2.36-2.84 4.84-4.87 6.65-2.15 1.96-4.72 3.34-7.26 4.7z"/><path fill="#424242" d="M108.55 28.44c-.1.48-.22.96-.35 1.44-.67 2.53-1.65 4.99-2.91 7.28-1.03 1.89-2.45 4.25-4.23 5.85-1.93 1.73-4.35 3.02-6.69 4.27-2.57 1.37-5.31 2.13-7.72 2.13-2.04 0-3.73-.54-5.03-1.61-2.05-1.7-2.94-4.85-2.17-7.67.76-2.76 3.07-5.27 6.02-6.54 1.95-.84 4.09-1.15 5.93-1.35.89-.1 1.83-.1 2.82-.11 1.08-.01 2.2-.02 3.38-.14 3.38-.35 6.63-1.3 9.66-2.82.45-.25.87-.49 1.29-.73m3.71-5.92c-2.22 1.13-4.12 2.82-6.34 3.94a25.03 25.03 0 0 1-8.63 2.52c-2.08.22-4.14.04-6.21.26-2.32.25-4.64.65-6.79 1.58-3.64 1.56-6.68 4.68-7.73 8.5s.1 8.26 3.15 10.79c1.97 1.63 4.4 2.3 6.94 2.3 3.11 0 6.37-1 9.13-2.48 2.55-1.36 5.11-2.74 7.27-4.68 2.02-1.81 3.57-4.28 4.87-6.65 1.38-2.51 2.45-5.19 3.18-7.95.36-1.35.64-2.73.84-4.11.06-.46.1-3.9.32-4.02z" opacity=".2"/><linearGradient id="c" x1="77.266" x2="79.322" y1="6.319" y2="43.678" gradientUnits="userSpaceOnUse"><stop offset=".007" stop-color="#AED581"/><stop offset=".332" stop-color="#8EBD60"/><stop offset=".678" stop-color="#73A743"/><stop offset=".876" stop-color="#689F38"/></linearGradient><path fill="url(#c)" d="M69.24 31.47c.75 4.77 3.4 9.86 8.1 10.98 3.27.78 6.87-.72 8.91-3.39 2.05-2.67 2.6-6.32 1.8-9.58-.48-1.94-1.39-3.71-2.41-5.41-.91-1.51-2.09-2.82-3-4.34a21.523 21.523 0 0 1-2.71-7.13c-.38-2.07-.21-4.23-.58-6.31.04.21-2.27 2-2.54 2.27a30.114 30.114 0 0 0-6.12 8.9c-.94 2.09-1.82 4.4-2.01 6.7-.2 2.44.18 4.89.56 7.31z"/><path fill="#424242" d="M76.95 12.91c.01.08.03.15.04.23.53 2.88 1.57 5.62 3.09 8.14.53.88 1.1 1.65 1.66 2.4.5.67.96 1.3 1.34 1.93.79 1.32 1.65 2.89 2.07 4.58.62 2.52.14 5.22-1.26 7.04-1.13 1.47-3 2.42-4.76 2.42-.37 0-.73-.04-1.08-.12-3.44-.82-5.29-5.1-5.83-8.53-.35-2.2-.71-4.47-.53-6.6.16-1.96 1.02-4.08 1.76-5.71.9-2 2.04-3.88 3.38-5.61.03-.06.07-.11.12-.17m2.41-6.62c.04.21-2.27 2-2.54 2.27a30.114 30.114 0 0 0-6.12 8.9c-.94 2.09-1.82 4.4-2.01 6.7-.2 2.46.17 4.9.56 7.32.75 4.77 3.4 9.86 8.1 10.98.58.14 1.18.2 1.77.2 2.73 0 5.46-1.4 7.14-3.59 2.05-2.67 2.6-6.32 1.8-9.58-.48-1.94-1.39-3.71-2.41-5.41-.91-1.51-2.09-2.82-3-4.34a21.523 21.523 0 0 1-2.71-7.13c-.38-2.09-.21-4.25-.58-6.32z" opacity=".2"/><linearGradient id="d" x1="46.413" x2="78.288" y1="14.121" y2="38.627" gradientUnits="userSpaceOnUse"><stop offset=".007" stop-color="#AED581"/><stop offset=".332" stop-color="#8EBD60"/><stop offset=".678" stop-color="#73A743"/><stop offset=".876" stop-color="#689F38"/></linearGradient><path fill="url(#d)" d="M73.43 22.01c3.69 3.8 6.42 9.48 4.31 14.34-1.47 3.38-5.15 5.56-8.84 5.6s-7.26-1.87-9.6-4.73c-1.39-1.69-2.34-3.66-3.17-5.67-.73-1.79-1.1-3.69-1.83-5.49-1.05-2.6-2.58-5.01-4.48-7.07-1.57-1.7-3.58-2.97-5.16-4.66.16.17 3.25-.68 3.67-.74 1.29-.18 2.59-.29 3.9-.31 2.67-.06 5.34.21 7.94.8 2.45.55 5.07 1.3 7.21 2.64 2.27 1.42 4.17 3.36 6.05 5.29z"/><path fill="#424242" d="M52.91 16.26c2.22 0 4.44.25 6.6.73 1.94.43 4.4 1.08 6.27 2.25 2.02 1.27 3.79 3.09 5.51 4.85C74 26.88 76.6 31.45 75 35.14c-.96 2.2-3.48 3.77-6.13 3.8h-.09c-2.58 0-5.32-1.39-7.16-3.63-1.24-1.51-2.06-3.33-2.71-4.9-.31-.76-.56-1.6-.82-2.48-.29-.97-.59-1.97-1.01-3.01-1.2-2.96-2.9-5.64-5.06-7.98-.21-.22-.42-.44-.63-.65.3-.02.6-.03.9-.03h.62m0-3c-.23 0-.46 0-.69.01-1.3.03-2.61.13-3.9.31-.38.05-2.97.76-3.56.76-.06 0-.1-.01-.11-.02 1.58 1.7 3.59 2.96 5.16 4.66 1.9 2.06 3.43 4.47 4.48 7.07.73 1.81 1.1 3.7 1.83 5.49.82 2.01 1.78 3.98 3.17 5.67 2.31 2.82 5.83 4.73 9.48 4.73h.12c3.69-.04 7.37-2.22 8.84-5.6 2.11-4.86-.62-10.54-4.31-14.34-1.87-1.93-3.77-3.87-6.06-5.3-2.14-1.34-4.76-2.09-7.21-2.64-2.37-.53-4.81-.8-7.24-.8z" opacity=".2"/><linearGradient id="e" x1="-207.98" x2="-166.28" y1="-73.922" y2="-73.922" gradientTransform="rotate(26.263 -309.816 605.518)" gradientUnits="userSpaceOnUse"><stop offset=".123" stop-color="#689F38"/><stop offset=".322" stop-color="#73A743"/><stop offset=".668" stop-color="#8EBD60"/><stop offset=".993" stop-color="#AED581"/></linearGradient><path fill="url(#e)" d="M92.22 58.44c-5.46-1.79-10.94-5.86-11.36-11.59-.29-3.99 2.15-7.93 5.66-9.83s7.91-1.86 11.59-.3c2.18.92 4.09 2.33 5.9 3.85 1.61 1.35 2.91 2.98 4.53 4.35 2.32 1.97 5 3.51 7.87 4.53 2.36.84 4.93 1.04 7.3 1.87-.24-.08-2.78 2.29-3.15 2.56-1.15.83-2.35 1.58-3.58 2.27-2.53 1.4-5.23 2.49-8.02 3.24-2.63.71-5.51 1.31-8.25 1.1-2.92-.24-5.72-1.14-8.49-2.05z"/><path fill="#424242" d="M92.48 38.57c1.51 0 3.06.32 4.46.91 1.98.84 3.71 2.18 5.13 3.38.69.58 1.36 1.26 2.06 1.98.76.78 1.55 1.59 2.46 2.36 2.62 2.21 5.58 3.92 8.8 5.07.49.18.99.32 1.47.46a33.007 33.007 0 0 1-8.7 3.76c-1.79.48-4.13 1.04-6.32 1.04-.31 0-.62-.01-.91-.03-2.61-.2-5.24-1.06-7.79-1.9-4.09-1.34-8.97-4.49-9.3-8.96-.2-2.69 1.49-5.56 4.1-6.97 1.32-.72 2.89-1.1 4.54-1.1m0-3c-2.07 0-4.14.46-5.96 1.45-3.52 1.9-5.96 5.84-5.66 9.83.42 5.73 5.9 9.8 11.36 11.59 2.77.91 5.57 1.81 8.49 2.04.38.03.76.04 1.14.04 2.38 0 4.84-.53 7.1-1.14 2.79-.75 5.49-1.84 8.02-3.24 1.24-.68 2.44-1.44 3.58-2.27.36-.26 2.82-2.56 3.13-2.56h.01c-2.37-.83-4.94-1.03-7.3-1.87a25.358 25.358 0 0 1-7.87-4.53c-1.61-1.36-2.92-3-4.53-4.35-1.8-1.52-3.71-2.93-5.9-3.85-1.75-.74-3.68-1.14-5.61-1.14z" opacity=".2"/><linearGradient id="f" x1="75.749" x2="94.844" y1="23.529" y2="23.529" gradientUnits="userSpaceOnUse"><stop offset=".123" stop-color="#689F38"/><stop offset=".322" stop-color="#73A743"/><stop offset=".668" stop-color="#8EBD60"/><stop offset=".993" stop-color="#AED581"/></linearGradient><path fill="url(#f)" d="M87.57 4.3s4.89-1.41 6.61 1.29-.2 16.96-2.97 24.03-7.78 11.25-10.29 13.12-5.18-3.69-5.18-3.69 6.92-6.42 8.91-11.57 2-15.76 1.83-19.21 1.09-3.97 1.09-3.97z"/><path fill="#424242" d="M90.32 6.93c.77 0 1.18.15 1.3.24.26.84.41 3.87-.28 8.94-.63 4.68-1.75 9.44-2.92 12.41-1.7 4.34-4.59 8.13-8.61 11.29-.08-.09-.17-.19-.26-.31 2.36-2.42 6.31-6.87 7.89-10.95 2.62-6.78 2.03-20.3 2.03-20.44-.02-.5-.01-.87.02-1.14.27-.02.55-.04.83-.04m0-3c-1.48 0-2.75.37-2.75.37s-1.26.52-1.09 3.97.16 14.05-1.83 19.21c-1.99 5.15-8.91 11.57-8.91 11.57s1.96 4.07 4.1 4.07c.36 0 .72-.12 1.08-.38 2.51-1.87 7.52-6.05 10.29-13.12S95.9 8.29 94.18 5.59c-.84-1.32-2.44-1.66-3.86-1.66z" opacity=".2"/><linearGradient id="g" x1="33.204" x2="75.703" y1="30.887" y2="42.026" gradientUnits="userSpaceOnUse"><stop offset=".007" stop-color="#AED581"/><stop offset=".332" stop-color="#8EBD60"/><stop offset=".678" stop-color="#73A743"/><stop offset=".876" stop-color="#689F38"/></linearGradient><path fill="url(#g)" d="M60.32 50.89c6.45.67 13.98-1.02 17.04-6.73 2.14-3.98 1.43-9.17-1.33-12.74-2.76-3.58-7.31-5.55-11.82-5.64-2.68-.05-5.29.52-7.85 1.26-2.28.66-4.38 1.74-6.67 2.4-3.3.96-6.77 1.32-10.19 1.06-2.82-.22-5.56-1.19-8.39-1.42.29.02 1.81 3.64 2.07 4.08.8 1.38 1.69 2.71 2.66 3.98a40.29 40.29 0 0 0 6.79 7.02c2.39 1.94 5.09 3.88 8 4.92 3.11 1.12 6.42 1.47 9.69 1.81z"/><path fill="#424242" d="M63.89 28.77h.27c3.79.07 7.43 1.78 9.5 4.47 2.14 2.77 2.57 6.67 1.06 9.49-1.78 3.31-6.17 5.29-11.74 5.29-.78 0-1.57-.04-2.35-.12-3.03-.31-6.17-.64-8.99-1.64-2.63-.94-5.19-2.85-7.12-4.42a37.158 37.158 0 0 1-7.82-8.7c.84.15 1.69.28 2.58.35.8.06 1.61.09 2.41.09 3 0 5.97-.42 8.85-1.26 1.28-.37 2.45-.84 3.59-1.29 1.06-.42 2.06-.82 3.07-1.11 1.85-.54 4.28-1.15 6.69-1.15m0-3c-2.56 0-5.07.56-7.52 1.26-2.28.66-4.38 1.74-6.67 2.4-2.6.76-5.3 1.14-8.01 1.14-.73 0-1.46-.03-2.18-.08-2.82-.22-5.56-1.19-8.39-1.42.29.02 1.81 3.64 2.07 4.08.8 1.38 1.69 2.71 2.66 3.98a40.29 40.29 0 0 0 6.79 7.02c2.39 1.94 5.09 3.88 8 4.92 3.12 1.11 6.42 1.46 9.69 1.8.87.09 1.76.14 2.66.14 5.74 0 11.73-1.93 14.38-6.87 2.14-3.98 1.43-9.17-1.33-12.74-2.76-3.58-7.31-5.55-11.82-5.64-.11.01-.22.01-.33.01z" opacity=".2"/><linearGradient id="h" x1="-215.59" x2="-168.08" y1="-61.211" y2="-61.211" gradientTransform="rotate(36.779 -231.634 426.298)" gradientUnits="userSpaceOnUse"><stop offset=".123" stop-color="#689F38"/><stop offset=".322" stop-color="#73A743"/><stop offset=".668" stop-color="#8EBD60"/><stop offset=".993" stop-color="#AED581"/></linearGradient><path fill="url(#h)" d="M75.53 60.99c-3.1-5.7-4.45-13.29-.36-18.32 2.85-3.5 7.9-4.86 12.27-3.69 4.36 1.16 7.94 4.6 9.76 8.73 1.08 2.45 1.56 5.09 1.86 7.73.27 2.35.08 4.71.35 7.08a28.6 28.6 0 0 0 2.96 9.81c1.29 2.52 3.24 4.68 4.55 7.19-.13-.25-4.06-.27-4.57-.34-1.58-.21-3.15-.52-4.7-.91-3.16-.81-6.22-2.01-9.1-3.55-2.71-1.45-5.54-3.2-7.62-5.48-2.23-2.45-3.83-5.36-5.4-8.25z"/><path fill="#424242" d="M84.28 41.57c.82 0 1.62.1 2.38.31 3.28.87 6.26 3.57 7.79 7.04 1 2.28 1.4 4.87 1.63 6.87.12 1.04.14 2.12.16 3.26.02 1.22.04 2.49.19 3.81.43 3.8 1.53 7.45 3.27 10.84.41.79.86 1.53 1.32 2.24-.88-.16-1.76-.35-2.62-.57-2.93-.75-5.76-1.86-8.43-3.29-2.19-1.18-4.94-2.79-6.82-4.86-2.02-2.22-3.53-4.99-4.99-7.66-2.38-4.37-3.98-10.91-.67-14.99 1.53-1.89 4.06-3 6.79-3m0-3c-3.46 0-6.93 1.42-9.11 4.1-4.09 5.03-2.74 12.63.36 18.32 1.57 2.89 3.17 5.8 5.4 8.25 2.08 2.29 4.92 4.03 7.62 5.48 2.88 1.54 5.94 2.74 9.1 3.55 1.55.4 3.12.7 4.7.91.51.07 4.44.08 4.57.34-1.31-2.52-3.26-4.67-4.55-7.19-1.57-3.06-2.57-6.4-2.96-9.81-.27-2.37-.08-4.72-.35-7.08-.31-2.64-.79-5.28-1.86-7.73-1.82-4.13-5.4-7.57-9.76-8.73-1.03-.28-2.1-.41-3.16-.41z" opacity=".2"/><ellipse cx="29.6" cy="45.91" fill="#FFFDE7" rx="2.41" ry="1.42" transform="rotate(-50.469 29.599 45.908)"/><ellipse cx="23.42" cy="70.31" fill="#FFFDE7" rx="2.23" ry="1.31" transform="rotate(-81.657 23.424 70.313)"/><ellipse cx="46.61" cy="53.2" fill="#FFFDE7" rx="1.42" ry="2.41"/><ellipse cx="38.53" cy="64.72" fill="#FFFDE7" rx="2.26" ry="1.33" transform="rotate(-79.432 38.534 64.726)"/><ellipse cx="35.55" cy="83.87" fill="#FFFDE7" rx="2.41" ry="1.42" transform="rotate(-68.531 35.55 83.867)"/><ellipse cx="51.97" cy="74.67" fill="#FFFDE7" rx="2.41" ry="1.42" transform="rotate(-68.531 51.968 74.674)"/><ellipse cx="50.53" cy="94.9" fill="#FFFDE7" rx="2.41" ry="1.42" transform="rotate(-68.531 50.52 94.899)"/><ellipse cx="43.57" cy="109.87" fill="#FFFDE7" rx="2.41" ry="1.42" transform="rotate(-39.095 43.557 109.866)"/><ellipse cx="62.68" cy="105.61" fill="#FFFDE7" rx="2.41" ry="1.42" transform="rotate(-39.095 62.666 105.6)"/><ellipse cx="65.57" cy="92.73" fill="#FFFDE7" rx="2.41" ry="1.42" transform="rotate(-30 65.56 92.736)"/><ellipse cx="65.17" cy="77.1" fill="#FFFDE7" rx="2.41" ry="1.42" transform="rotate(-45.001 65.17 77.106)"/><ellipse cx="70.16" cy="62.39" fill="#FFFDE7" rx="2.41" ry="1.42" transform="rotate(-62.102 70.163 62.393)"/><ellipse cx="30.83" cy="106.26" fill="#FFFDE7" rx="1.42" ry="2.41" transform="rotate(-13.792 30.82 106.253)"/><ellipse cx="22.77" cy="88.25" fill="#FFFDE7" rx="1.33" ry="2.25" transform="rotate(-20.174 22.766 88.237)"/></svg>