<svg xmlns="http://www.w3.org/2000/svg" style="enable-background:new 0 0 128 128" viewBox="0 0 128 128" xml:space="preserve"><radialGradient id="a" cx="63.352" cy="98.868" r="73.336" gradientTransform="matrix(1 0 0 -1.0729 0 135.208)" gradientUnits="userSpaceOnUse"><stop offset=".459" style="stop-color:#f5f5f5"/><stop offset="1" style="stop-color:#d0d8dc"/></radialGradient><path d="M123.8 99.44c.07-.31.07-7.88-1.51-10.86-.6-1.13-.69-2.49-.28-3.7.29-.86.52-1.76.66-2.68.87-5.51-1.09-10.8-4.85-14.51a4.904 4.904 0 0 1-1.42-4.28v-.03c.64-4.04-.66-7.92-3.24-10.79-2.55-2.84-4.56-6.15-5.58-9.82-1.11-4.01-3.63-8.87-9.27-11.38-1.34-.59-2.35-1.65-2.82-2.99-1.28-3.7-6.6-8.6-10.88-9.22-.52-.08-1.04-.12-1.55-.12-1.39-.01-3.7-.55-4.59-1.57-3.18-3.62-6.44-5.53-14.05-5.79v-.02c-.14 0-.28.01-.42.01s-.28-.01-.42-.01v.02c-7.6.26-10.71 2.17-13.89 5.79-.89 1.02-3.2 1.56-4.59 1.57-.51 0-1.03.04-1.55.12-4.28.63-9.61 5.52-10.88 9.22-.46 1.34-1.47 2.4-2.82 2.99-5.65 2.5-8.16 7.37-9.27 11.38-1.02 3.68-3.03 6.99-5.58 9.82-2.57 2.86-3.88 6.75-3.24 10.79v.03c.25 1.56-.27 3.15-1.42 4.28-3.76 3.7-5.73 9-4.85 14.51.15.93.37 1.82.66 2.68.41 1.21.32 2.57-.28 3.7-1.58 2.98-1.58 10.55-1.51 10.86.14.6-.41 5.44-.11 7.31.91 5.72 4.86 9.89 10.02 12.44 1.63 1.11 3.54 1.84 5.7 2.06.99.24 2 .45 3.03.59 1.97.28 3.68.39 5.19.35 6 .51 16.85 1.05 35.8 1.05 19.03 0 29.86-.55 35.83-1.06 1.55.05 3.31-.06 5.34-.35 1.16-.17 2.3-.4 3.42-.69 1.56-.24 2.98-.74 4.25-1.47 5.68-2.49 10.11-6.83 11.08-12.94.3-1.85-.25-6.69-.11-7.29z" style="fill:url(#a)"/><ellipse cx="26.66" cy="66.71" rx="3" ry="6.86" style="opacity:.5;fill:#b0bec5;enable-background:new" transform="rotate(-80.439 26.659 66.71)"/><linearGradient id="b" x1="64.065" x2="64.065" y1="3.96" y2="55.96" gradientTransform="matrix(1 0 0 -1 0 128)" gradientUnits="userSpaceOnUse"><stop offset="0" style="stop-color:#212e26"/><stop offset=".505" style="stop-color:#334038"/><stop offset=".909" style="stop-color:#48534c"/></linearGradient><path d="M88.25 72.04H39.88c-2.21 0-4 1.79-4 4v45c0 1.1.9 2 2 2 0 0 6.17 1 26.07 1s26.3-1 26.3-1c1.1 0 2-.9 2-2v-45c0-2.21-1.79-4-4-4z" style="fill:url(#b)"/><linearGradient id="c" x1="64.065" x2="64.065" y1="72.04" y2="122.552" gradientUnits="userSpaceOnUse"><stop offset=".609" style="stop-color:#4b564f;stop-opacity:0"/><stop offset="1" style="stop-color:#4b564f"/></linearGradient><path d="M88.25 72.04H39.88c-2.21 0-4 1.79-4 4v45c0 1.1.9 2 2 2 0 0 6.17 1 26.07 1s26.3-1 26.3-1c1.1 0 2-.9 2-2v-45c0-2.21-1.79-4-4-4z" style="fill:url(#c)"/><radialGradient id="d" cx="63.771" cy="95.741" r="82.119" gradientTransform="matrix(.00617 1 -.7256 .00448 132.851 31.543)" gradientUnits="userSpaceOnUse"><stop offset=".744" style="stop-color:#bfbebe;stop-opacity:0"/><stop offset="1" style="stop-color:#bfbebe;stop-opacity:.3"/></radialGradient><path d="M36.05 122.79c-3.27-.15-5.85-.33-7.88-.5-1.51.04-3.22-.07-5.19-.35a30.04 30.04 0 0 1-3.03-.59c-2.16-.22-4.07-.95-5.7-2.06-5.16-2.55-9.11-6.72-10.02-12.44-.3-1.87.25-6.71.11-7.31-.07-.31-.07-7.88 1.51-10.86.6-1.13.69-2.49.28-3.7-.29-.86-.51-1.75-.66-2.68-.88-5.51 1.09-10.81 4.85-14.51a4.904 4.904 0 0 0 1.42-4.28v-.03c-.64-4.04.67-7.93 3.24-10.79 2.55-2.83 4.56-6.14 5.58-9.82 1.11-4.01 3.62-8.88 9.27-11.38 1.35-.59 2.36-1.65 2.82-2.99 1.27-3.7 6.6-8.59 10.88-9.22.52-.08 1.04-.12 1.55-.12 1.39-.01 3.7-.55 4.59-1.57 3.18-3.62 6.29-5.53 13.89-5.79v-.02c.14 0 .28.01.42.01.14 0 .28-.01.42-.01v.02c7.61.26 10.87 2.17 14.05 5.79.89 1.02 3.2 1.56 4.59 1.57.51 0 1.03.04 1.55.12 4.28.62 9.6 5.52 10.88 9.22.47 1.34 1.48 2.4 2.82 2.99 5.64 2.51 8.16 7.37 9.27 11.38 1.02 3.67 3.03 6.98 5.58 9.82 2.58 2.87 3.88 6.75 3.24 10.79v.03c-.25 1.56.27 3.15 1.42 4.28 3.76 3.71 5.72 9 4.85 14.51a15.9 15.9 0 0 1-.66 2.68c-.41 1.21-.32 2.57.28 3.7 1.58 2.98 1.58 10.55 1.51 10.86-.14.6.41 5.44.11 7.29-.97 6.11-5.4 10.45-11.08 12.94-1.27.73-2.69 1.23-4.25 1.47-1.12.29-2.26.52-3.42.69-2.03.29-3.79.4-5.34.35-2.03.18-4.64.35-7.94.51v-1.27c.25-.33.39-.74.39-1.18v-45c0-2.21-1.79-4-4-4H39.88c-2.21 0-4 1.79-4 4v45c0 .28.06.55.17.8v1.65z" style="fill:url(#d)"/><path d="M53.55 78.64c0 .72-.58 1.3-1.3 1.3s-1.3-.58-1.3-1.3.58-3.37 1.3-3.37 1.3 2.66 1.3 3.37z" style="opacity:.5;fill:#47524b;enable-background:new"/><path d="M43.68 83.89c0 .72-.58 1.3-1.3 1.3s-1.3-.58-1.3-1.3.58-3.37 1.3-3.37 1.3 2.66 1.3 3.37zm21.65 0c0 .72-.58 1.3-1.3 1.3s-1.3-.58-1.3-1.3.58-3.37 1.3-3.37c.72 0 1.3 2.66 1.3 3.37zm-11.78 10.1c0 .72-.58 1.3-1.3 1.3s-1.3-.58-1.3-1.3.58-3.37 1.3-3.37 1.3 2.65 1.3 3.37zm33.43-10.1c0 .72-.58 1.3-1.3 1.3s-1.3-.58-1.3-1.3.58-3.37 1.3-3.37 1.3 2.66 1.3 3.37z" style="opacity:.8;fill:#47524b;enable-background:new"/><path d="M43.68 104.92c0 .72-.58 1.3-1.3 1.3s-1.3-.58-1.3-1.3.58-3.37 1.3-3.37 1.3 2.65 1.3 3.37zm21.65 0c0 .72-.58 1.3-1.3 1.3s-1.3-.58-1.3-1.3.58-3.37 1.3-3.37c.72 0 1.3 2.65 1.3 3.37zm-11.78 8.42c0 .72-.58 1.3-1.3 1.3s-1.3-.58-1.3-1.3.58-3.37 1.3-3.37 1.3 2.65 1.3 3.37z" style="opacity:.2;fill:#47524b;enable-background:new"/><path d="M77.41 78.64c0 .72-.58 1.3-1.3 1.3s-1.3-.58-1.3-1.3.58-3.37 1.3-3.37 1.3 2.66 1.3 3.37z" style="opacity:.5;fill:#47524b;enable-background:new"/><path d="M77.41 93.99c0 .72-.58 1.3-1.3 1.3s-1.3-.58-1.3-1.3.58-3.37 1.3-3.37 1.3 2.65 1.3 3.37z" style="opacity:.8;fill:#47524b;enable-background:new"/><path d="M77.41 113.34c0 .72-.58 1.3-1.3 1.3s-1.3-.58-1.3-1.3.58-3.37 1.3-3.37 1.3 2.65 1.3 3.37zm9.57-8.42c0 .72-.58 1.3-1.3 1.3s-1.3-.58-1.3-1.3.58-3.37 1.3-3.37 1.3 2.65 1.3 3.37z" style="opacity:.2;fill:#47524b;enable-background:new"/><ellipse cx="38.3" cy="45.68" rx="3" ry="6.86" style="opacity:.3;fill:#b0bec5;enable-background:new" transform="rotate(-39.347 38.302 45.683)"/><ellipse cx="92.34" cy="45.08" rx="3" ry="6.86" style="opacity:.5;fill:#b0bec5;enable-background:new" transform="rotate(-77.515 92.337 45.073)"/><ellipse cx="68.65" cy="30.52" rx="6.86" ry="3" style="opacity:.3;fill:#b0bec5;enable-background:new" transform="rotate(-29.877 68.646 30.527)"/><ellipse cx="101.42" cy="108.81" rx="6.86" ry="3" style="fill:#b0bec5" transform="rotate(-22.667 101.411 108.802)"/><ellipse cx="108.41" cy="91.51" rx="3" ry="6.86" style="fill:#b0bec5" transform="rotate(-62.115 108.408 91.504)"/><ellipse cx="26.32" cy="108.13" rx="3" ry="6.86" style="fill:#b0bec5" transform="rotate(-62.115 26.325 108.125)"/><ellipse cx="20.19" cy="89.88" rx="6.86" ry="3" style="fill:#b0bec5" transform="rotate(-15.507 20.184 89.88)"/><ellipse cx="63.32" cy="61.14" rx="6.86" ry="3" style="opacity:.5;fill:#b0bec5;enable-background:new" transform="rotate(-37.982 63.32 61.14)"/><ellipse cx="89.07" cy="60.17" rx="3" ry="6.86" style="opacity:.5;fill:#b0bec5;enable-background:new" transform="rotate(-42.974 89.069 60.164)"/><ellipse cx="100.76" cy="76.92" rx="6.86" ry="3" style="fill:#b0bec5" transform="rotate(-41.332 100.762 76.924)"/><path d="M201.66-11.26v-1.65" style="fill:none"/></svg>