<svg xmlns="http://www.w3.org/2000/svg" viewBox="0 0 128 128"><path fill="#558B2F" d="M74.09 15.41c.49.36 1 .81 1.07 1.42.07.6-.31 1.15-.67 1.63-.3.4-.64.82-1.12.92-.51.1-1-.19-1.43-.48-2.03-1.41-3.95-3.31-6.41-3.56-.85-.08-3.22-.24-2.61-1.74.37-.93 2.11-.97 2.91-.97 2.92.01 5.9 1.06 8.26 2.78z"/><linearGradient id="a" x1="67.838" x2="104" y1="11.342" y2="46.521" gradientUnits="userSpaceOnUse"><stop offset=".123" stop-color="#689F38"/><stop offset=".322" stop-color="#73A743"/><stop offset=".668" stop-color="#8EBD60"/><stop offset=".993" stop-color="#AED581"/></linearGradient><path fill="url(#a)" d="M71.07 16.2c5.48-2.66 20.17-3.46 31.1 8.19 8.45 9.01 4.28 24.11 13.69 30.17-2.75-.05-6.6-.28-11.11-1.1-8.43-1.52-18.45-3.34-25.53-10.68-9.19-9.51-8.45-23.12-8.15-26.58z"/><path fill="#424242" d="M79.82 14.55v3c4.41 0 12.89 1.16 20.16 8.9 3.42 3.65 4.45 8.59 5.55 13.83.77 3.71 1.56 7.49 3.28 10.77-1.18-.15-2.35-.33-3.52-.54-8.2-1.48-17.5-3.16-23.91-9.81-6.87-7.12-7.61-17.01-7.43-22.39 1.65-.49 3.72-.76 5.87-.76v-3m0 0c-3.69 0-6.8.71-8.75 1.65-.29 3.46-1.03 17.07 8.15 26.58 7.09 7.34 17.1 9.15 25.53 10.68 4.51.82 8.35 1.05 11.11 1.1-9.41-6.06-5.24-21.16-13.69-30.17-7.05-7.51-15.66-9.84-22.35-9.84z" opacity=".2"/><path fill="#558B2F" d="M75.09 17.8s.71.09 1.88.46c.59.18 1.28.45 2.07.78.77.36 1.65.77 2.54 1.34.91.54 1.84 1.2 2.78 1.97.46.39.93.81 1.4 1.24.44.46.91.91 1.34 1.42.87.99 1.7 2.11 2.43 3.25.73 1.11 1.46 2.31 2.17 3.47.7 1.16 1.39 2.33 2.08 3.47s1.41 2.22 2.12 3.25c.73 1.01 1.48 1.96 2.24 2.82s1.53 1.63 2.28 2.29c.73.69 1.47 1.25 2.12 1.77.67.48 1.26.9 1.75 1.23l1.57 1.02-.01.02s-.62-.28-1.71-.78c-.53-.27-1.17-.62-1.91-1.03-.71-.44-1.53-.93-2.36-1.55-.43-.29-.84-.64-1.28-1-.44-.35-.86-.75-1.3-1.16-.88-.81-1.71-1.76-2.55-2.76-1.65-2.02-3.13-4.35-4.62-6.62-.74-1.15-1.45-2.26-2.22-3.36-.75-1.1-1.5-2.09-2.31-3.03a31.37 31.37 0 0 0-2.48-2.53c-.85-.74-1.66-1.44-2.47-2.01a30.673 30.673 0 0 0-4.07-2.54c-1.04-.54-1.65-.79-1.65-.79l.17-.64z"/><linearGradient id="b" x1="63.444" x2="63.444" y1="6.595" y2="85.465" gradientTransform="rotate(-1.146 63.968 62.536)" gradientUnits="userSpaceOnUse"><stop offset=".003" stop-color="#A67C52"/><stop offset=".214" stop-color="#9F754C"/><stop offset=".523" stop-color="#8B623A"/><stop offset=".892" stop-color="#6B431D"/><stop offset="1" stop-color="#603813"/></linearGradient><path fill="url(#b)" d="m62.41 5.9-9.83 2.31s2.94 4.77 5.08 10.65C51.27 62.53 33.86 83 33.86 83l5.42.98C54.03 63.55 59.09 42.11 62.23 28.9c1.09 6.69 14.82 40.68 28.7 51.5l2.8-1.72c0 .01-18.36-21.28-31.32-72.78z"/><path fill="#424242" d="M60.96 8.29c10.1 39.2 23.11 60.47 28.63 68.25C77.38 64.42 65.24 34.95 64.2 28.58c-.15-.94-.95-1.64-1.9-1.68h-.07c-.92 0-1.73.63-1.94 1.54l-.05.19c-2.99 12.56-7.96 33.44-21.85 53.15l-.98-.18c4.86-6.9 17.05-27.1 22.23-62.45.05-.33.01-.66-.1-.97-1.28-3.52-2.82-6.62-3.9-8.63l5.32-1.26m1.45-2.39-9.83 2.31s2.94 4.77 5.08 10.65C51.27 62.53 33.86 83 33.86 83l5.42.98C54.03 63.55 59.09 42.11 62.23 28.9c1.09 6.69 14.82 40.68 28.7 51.5l2.8-1.72c0 .01-18.36-21.28-31.32-72.78z" opacity=".2"/><radialGradient id="c" cx="82.352" cy="90.475" r="19.968" gradientTransform="rotate(-11.678 92.508 96.398)" gradientUnits="userSpaceOnUse"><stop offset=".007" stop-color="#FF817D"/><stop offset="1" stop-color="#CD0000"/></radialGradient><path fill="url(#c)" d="M96.55 70.19c-4.33.89-6.23 2.4-9.33 3.04s-5.48.02-9.81.91c-9.82 2.03-18.29 12.41-14.88 26.09 2.89 11.6 17.17 22.89 28.15 20.62 2.65-.55 2.88-1.29 5.98-1.93s3.55-.04 6.2-.59c10.98-2.27 19.59-18.29 17.64-30.09-2.28-13.9-14.13-20.08-23.95-18.05z"/><path fill="#424242" d="M100.28 72.89c3.88 0 7.69 1.4 10.73 3.94 3.42 2.86 5.66 6.98 6.48 11.93 1.74 10.59-6.37 24.99-15.23 26.82-.87.18-1.39.43-1.98.43h-.48c-.9 0-2.01-.21-3.76.15-1.92.4-2.99.74-3.85 1.11-.68.29-1.17.45-2.13.64-.74.15-1.52.2-2.33.2-8.88 0-19.89-9.22-22.23-18.6-1.73-6.92.14-11.93 2.01-14.9 2.42-3.85 6.25-6.57 10.51-7.45 2.07-.43 3.66-.47 5.19-.5 1.44-.03 2.93-.07 4.62-.42 1.7-.35 3.07-.91 4.39-1.45 1.41-.57 2.87-1.17 4.93-1.59 1.03-.21 2.08-.31 3.13-.31m0-3.08c-1.26 0-2.51.13-3.73.38-4.33.89-6.23 2.4-9.33 3.04s-5.48.02-9.81.91c-9.82 2.03-18.29 12.41-14.88 26.09 2.64 10.59 14.76 20.92 25.21 20.92 1 0 1.99-.09 2.95-.29 2.65-.55 2.88-1.09 5.98-1.73 1.47-.3 2.34-.13 3.14-.13h.46c.72 0 1.45-.22 2.6-.46 10.98-2.27 19.59-18.39 17.64-30.19-2-12.18-11.34-18.54-20.23-18.54z" opacity=".2"/><radialGradient id="d" cx="26.446" cy="87.138" r="28.724" gradientTransform="rotate(-7.946 40.254 91.189)" gradientUnits="userSpaceOnUse"><stop offset=".007" stop-color="#FF817D"/><stop offset=".393" stop-color="#ED524F"/><stop offset="1" stop-color="#CD0000"/></radialGradient><path fill="url(#d)" d="M51.01 73.69c-4.37-.66-6.67.1-9.8-.37s-5.15-1.88-9.52-2.53C21.77 69.3 10.23 76.12 8.7 90.13c-1.29 11.89 8.2 27.42 19.29 29.08 2.67.4 3.15-.22 6.28.25s3.35 1.19 6.02 1.59c11.09 1.67 24.7-10.4 26.95-22.14 2.67-13.83-6.32-23.73-16.23-25.22z"/><path fill="#424242" d="M28.97 73.66c.76 0 1.52.06 2.26.17 2.09.31 3.59.83 5.04 1.33 1.36.47 2.77.95 4.48 1.21.9.14 1.81.2 2.86.2.58 0 1.16-.02 1.76-.04.57-.02 1.15-.04 1.78-.04 1.19 0 2.27.08 3.4.25 4.29.64 8.25 3.13 10.87 6.83 2.03 2.87 4.17 7.76 2.82 14.78-1.88 9.81-12.9 19.8-21.83 19.8-.56 0-1.12-.04-1.66-.12-.97-.15-1.46-.33-2.13-.58-.87-.32-1.95-.72-3.89-1.02a18.079 18.079 0 0 0-4.03-.18c-.29.02-.58.03-.89.03-.43 0-.85-.03-1.35-.11-8.96-1.35-17.86-15.04-16.69-25.71 1.24-11.54 9.79-16.8 17.2-16.8m0-3.07c-9.2 0-18.88 6.79-20.27 19.54-1.29 11.89 8.2 27.42 19.29 29.08.74.11 1.31.14 1.81.14.76 0 1.38-.08 2.2-.08.6 0 1.31.04 2.28.19 3.13.47 3.35 1.19 6.02 1.59.69.1 1.4.15 2.11.15 10.64 0 22.73-11.29 24.84-22.29C69.91 85.07 60.92 75.17 51 73.68c-1.49-.22-2.73-.28-3.85-.28-1.29 0-2.41.08-3.54.08-.78 0-1.56-.04-2.41-.16-3.13-.47-5.15-1.88-9.52-2.53-.89-.13-1.8-.2-2.71-.2z" opacity=".2"/></svg>