<svg xmlns="http://www.w3.org/2000/svg" viewBox="0 0 128 128"><linearGradient id="a" x1="66.207" x2="66.207" y1="91.48" y2="117.4" gradientUnits="userSpaceOnUse"><stop offset="0" stop-color="#FFC044"/><stop offset=".847" stop-color="#CA4300"/></linearGradient><path fill="url(#a)" d="M15.27 94.4s1.62 24.29 51.1 23.93 50.2-22.67 50.92-26.45-18.53-11.34-54.16-9.72-49.82 2.15-47.86 12.24z"/><radialGradient id="b" cx="65.458" cy="84.615" r="57.048" gradientTransform="matrix(1 0 0 .3802 0 51.423)" gradientUnits="userSpaceOnUse"><stop offset="0" stop-color="#583223"/><stop offset=".101" stop-color="#7B3915"/><stop offset=".225" stop-color="#A04106"/><stop offset=".291" stop-color="#AE4400"/><stop offset=".321" stop-color="#A84302"/><stop offset=".724" stop-color="#623A15"/><stop offset=".946" stop-color="#603813"/></radialGradient><path fill="url(#b)" d="M11.49 74.28s-2.88 3.6-2.52 6.06-1.08 1.14 0 4.55.18 5.31 4.32 6.82 2.16 2.65 6.66 3.98 7.2 1.89 10.44 3.6 4.5 2.65 8.28 2.46 8.28.19 8.28.19l7.02 1.14s1.08.38 6.12.76 6.84-1.33 9.36-1.52 6.3.95 8.46.38 7.02-2.46 7.02-2.46 4.5-3.22 7.02-3.03 6.66-.76 8.64-1.89c1.98-1.14 6.48-1.52 6.48-1.52s3.06-1.33 5.94-2.84c2.88-1.52 4.32-1.52 5.58-2.46 1.26-.95 1.81-1.05 3.06-3.41 1.05-2 .9-4.74 0-7.58s-15.12-10.23-15.12-10.23L22.14 63.3 11.49 74.28z"/><linearGradient id="c" x1="65.618" x2="65.618" y1="65.55" y2="96.368" gradientUnits="userSpaceOnUse"><stop offset=".005" stop-color="#FBC02D"/><stop offset=".081" stop-color="#FCCA30"/><stop offset=".209" stop-color="#FDD534"/><stop offset=".36" stop-color="#FDD835"/><stop offset=".69" stop-color="#FFF59D"/><stop offset="1" stop-color="#FDD835"/></linearGradient><path fill="url(#c)" d="M16.19 68.62s-6.73 3.33-5.83 5.13 1.45 1.58 1.45 1.58 9.04 1.9 25.77 6.16 25.07 7.04 29.26 10.14c5.22 3.87 6.55 5.9 9.97 5.25s5.94-5.24 12.6-10.15 9.21-5.59 18.26-7.66c8.55-1.96 12.87-2.38 13.23-4.67s-.9-7.64-2.52-8.46-81.51-.49-81.51-.49c-16.74-.66-20.68 3.17-20.68 3.17z"/><linearGradient id="d" x1="28.444" x2="110.17" y1="68.947" y2="68.947" gradientTransform="rotate(-1.146 69.791 62.22)" gradientUnits="userSpaceOnUse"><stop offset="0" stop-color="#FF3D2A"/><stop offset=".041" stop-color="#F63424"/><stop offset=".174" stop-color="#DD1D14"/><stop offset=".314" stop-color="#CC0D09"/><stop offset=".464" stop-color="#C10302"/><stop offset=".64" stop-color="#BE0000"/><stop offset=".99" stop-color="#FF1500"/></linearGradient><path fill="url(#d)" d="m22.94 60.59-.93 5.52 1.37 6.48c.23 1.1.9 2.06 1.85 2.64 3.46 2.13 13.29 6.62 34.05 5.92 27.09-.91 36.7-4.83 45.15-8.53 6.74-2.95 7.93-12.68 8.14-16.5-26.58 16.74-61.82 17.5-89.63 4.47z"/><path fill="#972F00" d="M108.22 58.69c.02-.89 0-1.43 0-1.43l-81.98-.38-1.18 8.17c26.15 11.2 58.87 9.62 83.16-6.36z"/><linearGradient id="e" x1="63.443" x2="63.443" y1="61.032" y2="78.598" gradientUnits="userSpaceOnUse"><stop offset="0" stop-color="#518F00"/><stop offset=".197" stop-color="#619E15"/><stop offset=".404" stop-color="#6FAA27"/><stop offset=".424" stop-color="#72AD2B"/><stop offset=".547" stop-color="#80B93C"/><stop offset=".678" stop-color="#88C147"/><stop offset=".833" stop-color="#8BC34A"/><stop offset="1" stop-color="#8CC63F"/></linearGradient><path fill="url(#e)" d="M10.38 54.62c-1.04 1.02-2.7.3-4.07-.14s-3.06.25-2.87 1.72c.13.98.81 1.24 1.68 1.65.87.4 1.73.73 1.13 1.51-.62.81-1.39.09-2.44.97-2 1.68.48 4.73 1.81 4.69 2.03-.06 2.47-1.19 3.58-1.94l.03.16c.19.98 1.33 1.44 2.15.87l.07-.05c.68-.47 1.67-.36 2.1.35.54.9-.17 2.01-.28 3.06-.15 1.5 1.28 2.95 2.72 2.76s2.48-1.95 1.98-3.37c0 1.63 1.31 3.14 2.87 3.31s3.14-1.03 3.46-2.63c.1.71.39 1.38.81 1.95.65.88 2.04.89 2.69.01.35-.48.91-.79 1.47-.64-1.03.74-.4 2.61.78 3.06s2.47-.03 3.64-.51c2.16-.89 4.33-1.78 6.49-2.67 1.49-.61 2.99-1.23 4.54-1.64 3.77-1 6.14.06 9.13 1.79 1.36.79 3.04.77 4.38-.05.5-.31.9-.57.97-.67 1.82-.43 1.95 1.74 1.29 2.84-.44.73-.62 1.62-.26 2.4.79 1.71 3.14 1.04 4.25-.33 1.08-1.32 1.9-2.03 3.52-2.44 1.73-.44 3.36.05 4.93-.49 1.26-.43 2.14-1.49 3.47-1.51 2.28-.04 2.4 3.09 4.79 3.06 2.18-.03 2.5-1.87 4.12-2.42 1.43-.48 2.09.28 2.17 1.83s.42 2.64 1.76 3.34c2.6 1.36 5.56-4.01 7.89-2.2 1.46 1.13.72 4.06 2.34 4.93.97.52 2.16-.12 2.94-.91s2.1-3.35 3.13-3.74c2.24-.86 4.5 2.43 6.56 1.19.98-.59 1.17-1.1 1.6-2.19.42-1.09 1.05-2.26 2.14-2.55.52-.14 1.08.1 1.45.49.85.88 2.24 1.08 3.25.38 2.63-1.82 3.84-5.53 3-9.75-1.06-5.32-7.4-6.79-6.86-9.96-3.49 1.84-4.56 3.47-8.25 2.13-1.77-.64-3.48-1.66-5.36-1.67-3.19-.01-5.67 2.82-8.68 3.91-2.83 1.03-5.98.44-8.78-.69-2.79-1.13-5.36-2.78-8.12-3.99-5.73-2.51-12.26-3.01-18.28-1.41-4.51 1.2-8.97 3.56-13.57 2.82-3.37-.54-6.28-2.69-9.47-3.93-6.92-2.67-13.54 3.83-20.35 4.2-2.27.12-4.46-3.33-6.74-1.42-1.06.89-.91 2.25-.53 3.25.12.26 1.42 1.68 1.83 1.28z"/><linearGradient id="f" x1="32.417" x2="101.99" y1="18.37" y2="70.162" gradientUnits="userSpaceOnUse"><stop offset="0" stop-color="#FFC044"/><stop offset=".847" stop-color="#CA4300"/></linearGradient><path fill="url(#f)" d="M33.09 19.13c-8.9 2.81-19.43 11.52-21.59 21.83s1.68 14.16 13.92 17.51 20.87 3.36 36.95 4.56c16.07 1.2 35.51 1.2 45.11-3.36s16.55-3.84 8.4-23.27-36.7-21.9-50.64-22.79c-18.72-1.2-27.59 4.08-32.15 5.52z"/><path fill="#FADC8B" d="M35.73 25.28c.41 1.05-.14 1.67-.65 1.86-.49.19-1.32.13-1.74-.94-.48-1.25-.39-2.87.18-3.09s1.73.93 2.21 2.17zm16.51 5.7c-1.01.5-1.67 0-1.91-.49-.23-.47-.24-1.31.79-1.82 1.2-.59 2.82-.64 3.09-.09.27.56-.77 1.81-1.97 2.4zm-9.2 2.83c-.12 1.12-.88 1.42-1.43 1.36-.52-.05-1.24-.49-1.12-1.63.14-1.33.96-2.73 1.57-2.67.6.06 1.11 1.61.98 2.94zm13.62-10.82c-.52 1-1.34.99-1.83.74-.46-.24-.97-.91-.44-1.93.62-1.19 1.9-2.19 2.44-1.91.54.29.45 1.91-.17 3.1zm31.6.95c-1.07-.34-1.21-1.15-1.04-1.68.16-.5.73-1.11 1.82-.77 1.27.4 2.48 1.49 2.3 2.07-.19.6-1.8.78-3.08.38zM72.98 21.1c.75.84.45 1.61.04 1.97-.39.35-1.2.58-1.96-.28-.89-1-1.37-2.55-.91-2.96.45-.4 1.94.27 2.83 1.27zm23.18 8.59c-.49-1.01 0-1.67.49-1.91.47-.23 1.31-.24 1.81.79.59 1.2.63 2.83.08 3.09-.54.27-1.79-.77-2.38-1.97zm-5.91 10.69c-1.1.22-1.62-.43-1.72-.96-.1-.51.1-1.33 1.23-1.55 1.31-.26 2.89.11 3.01.71.12.59-1.21 1.54-2.52 1.8zm-11.88-8.65c1.12-.04 1.53.68 1.55 1.22.02.52-.31 1.29-1.46 1.34-1.34.05-2.84-.56-2.86-1.17s1.44-1.33 2.77-1.39zM66.01 36.4c-.36 1.06-1.18 1.19-1.7 1.01-.5-.17-1.1-.75-.73-1.84.43-1.27 1.54-2.45 2.12-2.25.59.19.74 1.81.31 3.08z"/><path fill="#424242" d="M59.88 16.55c1.67 0 3.4.06 5.16.17 11.01.71 40.26 2.58 47.95 20.89 3.14 7.48 4.07 12.1 2.83 14.13-.78 1.28-.54 2.94.57 3.94.28.25.57.51.88.77 1.49 1.29 2.9 2.5 3.24 4.24.56 2.82-.07 5.35-1.61 6.51-.02.01-.05.03-.07.04a3.129 3.129 0 0 0-1.39 3.43c.31 1.21.41 2.23.41 2.82a3.113 3.113 0 0 0 .2 4.53c.39.33.59.55.68.66.63 2.12.69 3.91.14 4.94-.69 1.31-.87 1.44-1.53 1.91-.2.14-.41.29-.64.47-.24.18-.63.32-1.36.58l-.46.16c-1.07.38-1.85 1.32-2.03 2.44s.26 2.26 1.16 2.96c.03.03.06.05.09.07-.39 2.57-1.23 7.81-7.03 12.74-7.84 6.67-21.54 10.13-40.71 10.27H65.3c-13.01 0-30.61-1.87-40.63-10.76-5.74-5.1-6.26-10.09-6.27-10.26-.01-.13-.03-.26-.05-.39-.08-.43-.12-.83-.12-1.19.02-1.1-.54-2.13-1.47-2.71-.66-.41-1.44-.78-2.38-1.12-1.46-.53-1.46-.53-1.78-2.21-.14-.72-.31-1.61-.63-2.62-.12-.37-.18-.62-.22-.79.33-.76.56-1.72.33-3.25-.02-.31.33-1.52 1.55-3.24.64-.9.74-2.05.32-3.03.41-.32 1.04-.75 1.95-1.29.88-.52 1.45-1.44 1.53-2.46a3.13 3.13 0 0 0-.93-2.46c.02-.06.03-.12.05-.18.27-.94.77-2.7-.28-4.46-.81-1.35-2.25-2.16-3.86-2.16-.36 0-.72.04-1.07.12-.26-.24-.57-.44-.91-.57-.32-.13-.65-.21-.98-.23.21-.68.18-1.29.1-1.71 1.47-.13 2.46-.81 3.06-1.39a3.126 3.126 0 0 0 .18-4.27 2.9 2.9 0 0 0 1.02-.68c.86-.86 1.14-2.13.73-3.27-.61-1.67-.59-3.97.05-7.03 1.87-8.94 11.37-16.94 19.48-19.5.88-.28 1.84-.66 2.94-1.09 4.45-1.78 11.23-4.47 22.87-4.47m0-3.12c-15.1 0-22.69 4.4-26.79 5.69-8.9 2.81-19.43 11.52-21.59 21.83-.76 3.63-.76 6.44.07 8.73-.33-.12-.66-.2-1-.2-.49 0-.98.16-1.48.58-1.06.89-.91 2.25-.53 3.25.09.25 1.1 1.37 1.63 1.37.07 0 .14-.02.19-.07-.39.39-.87.53-1.38.53-.86 0-1.83-.38-2.69-.66-.28-.09-.57-.13-.85-.13-1.12 0-2.17.68-2.02 1.85.13.98.81 1.24 1.68 1.65.87.4 1.73.73 1.13 1.51-.62.81-1.39.09-2.44.96C1.83 61.98 4.26 65 5.6 65h.03c2.03 0 2.47-1.19 3.58-1.94l.03.16a1.383 1.383 0 0 0 2.15.87l.07-.05c.27-.19.59-.28.91-.28.47 0 .93.21 1.19.64.54.9-.17 2.01-.27 3.06-.08.86.35 1.69 1 2.21-1.92 1.13-4.52 2.93-3.94 4.09.27.54.5.88.7 1.12-.79 1.12-2.36 3.62-2.09 5.48.36 2.46-1.08 1.14 0 4.55s.18 5.31 4.32 6.82c.8.29 1.37.57 1.81.84-.01.58.05 1.19.17 1.85 0 0 1.6 23.94 50.02 23.94h1.08c49.48-.36 50.2-22.67 50.92-26.45.12-.65-.35-1.41-1.38-2.21 1.1-.4 1.91-.63 2.64-1.18 1.26-.95 1.81-1.05 3.06-3.41 1.05-2 .9-4.74 0-7.58-.16-.49-.72-1.13-1.54-1.84.46-.36.74-.77.82-1.27.17-1.08-.03-2.85-.45-4.5.04-.02.08-.04.11-.06 2.63-1.82 3.84-5.53 3-9.75-.65-3.26-3.27-5.07-5.09-6.71 1.74-2.84 1.35-7.52-2.61-16.96-8.16-19.43-36.68-21.9-50.62-22.79a62.44 62.44 0 0 0-5.34-.22z" opacity=".2"/></svg>