<svg xmlns="http://www.w3.org/2000/svg" style="enable-background:new 0 0 128 128" viewBox="0 0 128 128" xml:space="preserve"><path d="M120.9 61.5c2.1-2.7 1.6-6.7-1.2-8.7l-8.2-5.9c-1.8-1.3-2.7-3.4-2.5-5.5v-.1H19v.1c.2 2.2-.8 4.2-2.5 5.5l-8.2 5.9c-2.8 2-3.4 6-1.2 8.7l6.2 8c1.3 1.7 1.6 4 .9 6l-3.7 9.4c-1.3 3.2.4 6.9 3.7 8l9.5 3.4c2 .7 3.5 2.5 4 4.6l2 9.9c.7 3.4 4 5.6 7.4 4.8l9.8-2.3c2.1-.5 4.3.2 5.8 1.7l7 7.2a6.1 6.1 0 0 0 8.8 0l7-7.2c1.5-1.6 3.7-2.2 5.8-1.7l9.8 2.3c3.4.8 6.7-1.4 7.4-4.8l2-9.9c.4-2.1 1.9-3.8 4-4.6l9.5-3.4c3.3-1.2 4.9-4.8 3.7-8l-3.7-9.4c-.8-2-.5-4.3.9-6l6-8z" style="fill:#b0bec5"/><path d="M5.8 52h3.1v6H5.8zm113.3 0h3.1v6h-3.1zM10 80h3.1v7.5H10zm104.8-.4h3.1v7.8h-3.1z" style="fill:#b0bec5"/><path d="M114.8 69.5c-1.3 1.7-1.6 4-.9 6l3.7 9.4c1.3 3.2-.4 6.9-3.7 8l-9.5 3.4c-2 .7-3.5 2.5-4 4.6l-2 9.9c-.7 3.4-4 5.6-7.4 4.8l-9.8-2.3c-2.1-.5-4.3.1-5.8 1.7l-7 7.2a6.1 6.1 0 0 1-8.8 0l-7-7.2c-.8-.9-1.9-1.4-3-1.7-.9-.2-1.9-.2-2.8 0l-9.8 2.3c-1.2.3-2.4.2-3.4-.2-2-.7-3.5-2.4-4-4.6l-2-9.9c-.4-2.1-1.9-3.8-4-4.6l-9.5-3.4c-3.3-1.2-4.9-4.8-3.7-8l3.7-9.4c.8-2 .5-4.3-.9-6l-6.2-8c-2.1-2.7-1.6-6.7 1.2-8.7l8.2-5.9c1.7-1.3 2.7-3.3 2.5-5.5v-.1h90v.1c-.2 2.1.8 4.2 2.5 5.5l8.2 5.9c2.8 2 3.4 6 1.2 8.7l-6 8z" style="fill:none"/><path d="M49.6 97v16.2c-.9-.2-1.9-.2-2.8 0l-9.8 2.3c-1.2.3-2.4.2-3.4-.2V97h16zM27.8 76v26.1l-.3-1.3c-.4-2.1-1.9-3.8-4-4.6L14 92.8c-3.3-1.2-4.9-4.8-3.7-8l3.5-8.8h14zm50.7 22.6v14.6c-1.2.2-2.2.8-3.1 1.7l-7 7.2c-1 1.1-2.3 1.7-3.7 1.8V98.6h13.8zM121.9 56v3.6c-.2.7-.5 1.4-1 2l-6.1 8c-.6.8-1 1.7-1.2 2.7h-9.2V44.2h5c.4 1 1.1 2 2.1 2.6l8.2 5.9c1.1.9 1.8 2 2.2 3.3z" style="fill:#90a4ae"/><path d="M101.3 83.7v15c-.4.6-.7 1.4-.9 2.2l-2 9.9c-.4 2.1-1.8 3.7-3.6 4.4V83.7h6.5z" style="fill:#78909c"/><path d="m113.9 92.9-9.5 3.4c-1.2.4-2.3 1.3-3 2.3V82.5h15.2l.9 2.4c1.3 3.2-.3 6.8-3.6 8z" style="fill:#90a4ae"/><g style="opacity:.2"><path d="M107.1 43.3c.4 2.1 1.5 4 3.2 5.2l7.6 5.5c.3.2.8.4 1.2.4.3 0 .6-.1.9-.2.1 0 .1 0 .2-.1v3.8c0 .9-.3 1.7-.9 2.4l-6.2 8c-1.7 2.2-2.2 5.3-1.1 7.9l1.6 4.1c.3.8 1 1.3 1.9 1.3h.4v4.9c.3 1.9-.8 3.8-2.7 4.5l-9.5 3.4c-2.7.9-4.7 3.3-5.2 6.1l-2 9.9c-.4 1.9-2.1 3.3-4.1 3.3-.3 0-.6 0-.9-.1l-9.8-2.3c-.6-.1-1.2-.2-1.8-.2-2.2 0-4.3.9-5.8 2.5l-7 7.2c-.8.8-1.8 1.3-3 1.3s-2.2-.4-3-1.3l-7-7.2c-1.5-1.6-3.7-2.5-5.8-2.5-.6 0-1.2.1-1.8.2l-9.8 2.3c-.3.1-.6.1-1 .1-2 0-3.7-1.4-4-3.3l-2-9.9c-.6-2.8-2.6-5.1-5.2-6.1L14.8 91c-1.6-.6-2.6-2-2.7-3.7V82h.3c.8 0 1.6-.5 1.9-1.3l1.8-4.5c1-2.7.6-5.7-1.1-7.9l-6.2-8c-.5-.7-.8-1.5-.9-2.4v-3.8c.1 0 .1.1.2.1.3.2.6.2.9.2.4 0 .8-.1 1.2-.4l7.6-5.5c1.7-1.3 2.9-3.2 3.2-5.2h86.1m1.9-2H19v.1c.2 2.2-.8 4.2-2.5 5.5l-7.6 5.5V52H5.8v6c0 1.2.4 2.5 1.3 3.6l6.2 8c1.3 1.7 1.6 4 .9 6L12.3 80H10v7.5c.1 2.4 1.7 4.6 4.1 5.4l9.5 3.4c2 .7 3.5 2.5 4 4.6l2 9.9c.6 2.9 3.2 4.9 6 4.9.5 0 .9-.1 1.4-.2l9.8-2.3c.5-.1.9-.2 1.4-.2 1.6 0 3.2.7 4.4 1.9l7 7.2c1.2 1.2 2.8 1.9 4.4 1.9s3.2-.6 4.4-1.9l7-7.2c1.2-1.2 2.8-1.9 4.4-1.9.5 0 .9.1 1.4.2l9.8 2.3c.5.1.9.2 1.4.2 2.9 0 5.4-2 6-4.9l2-9.9c.4-2.1 1.9-3.8 4-4.6l9.5-3.4c2.8-1 4.4-3.8 4-6.7v-6.6h-2.4l-1.6-4.1c-.8-2-.5-4.3.9-6l6.2-8c.8-1.1 1.2-2.3 1.3-3.6v-6h-3.1v.4l-7.6-5.5c-1.8-1.3-2.7-3.4-2.5-5.5h-.1z" style="fill:#434343"/></g><linearGradient id="a" x1="29.869" x2="105.116" y1="736.325" y2="811.569" gradientTransform="translate(0 -712.614)" gradientUnits="userSpaceOnUse"><stop offset=".234" style="stop-color:#f5f5f5"/><stop offset=".816" style="stop-color:#e0e0e0"/></linearGradient><path d="m67 9.6 8.8-4.8c3-1.7 6.8-.6 8.5 2.4l4.7 8.6c1 1.9 2.9 3.1 5.1 3.2l10.1.5c3.5.2 6.1 3.1 5.8 6.5l-.9 9.7c-.2 2.1.8 4.1 2.5 5.3l8.2 5.7c2.8 2 3.4 5.8 1.2 8.5l-6.2 7.7c-1.3 1.7-1.7 3.9-.9 5.8l3.7 9.1c1.3 3.1-.4 6.7-3.7 7.8l-9.5 3.3c-2 .7-3.5 2.4-4 4.4l-2 9.6c-.7 3.3-4 5.4-7.4 4.6l-9.8-2.2c-2.1-.5-4.3.2-5.8 1.7l-7 7c-2.4 2.4-6.4 2.4-8.8 0l-7-7c-1.5-1.5-3.7-2.1-5.8-1.7l-9.8 2.2c-3.4.8-6.7-1.3-7.4-4.6l-2-9.6c-.4-2.1-1.9-3.7-4-4.4l-9.5-3.3c-3.3-1.1-4.9-4.7-3.7-7.8l3.7-9.1c.8-1.9.5-4.2-.9-5.8L7 55.2c-2.1-2.7-1.6-6.5 1.2-8.5l8.2-5.7c1.8-1.2 2.7-3.3 2.5-5.3l-.8-9.7c-.3-3.4 2.3-6.3 5.8-6.5L34 19c2.2-.1 4.1-1.3 5.1-3.2l4.7-8.6c1.6-3 5.4-4.1 8.5-2.4L61 9.6c1.9 1 4.2 1 6 0z" style="fill:url(#a)"/><linearGradient id="b" x1="50.619" x2="102.922" y1="754.87" y2="826.32" gradientTransform="translate(0 -712.614)" gradientUnits="userSpaceOnUse"><stop offset=".208" style="stop-color:#f48fb1"/><stop offset="1" style="stop-color:#ec407a"/></linearGradient><path d="M67.9 63.4c-2.3 1.2-5.1 1.4-8.4-1.2-1.4-1.1-2.3-4.3-2-7.2.6-5.6 6.5-12.2 14.2-12.2 9.7 0 17.2 4.6 19.4 13.4 2.1 8.3-1.1 16.7-7.8 22-6.4 5.1-16.7 6.3-25 4.2C51 80.7 46.8 78 41.8 71.6c-7.7-9.9-5.5-29.9 6.4-37.8 6.4-4.2 12.9-6.3 18.2-7.3 1.5-.3 1.3-2.6-.2-2.5-6.2 0-14.1 1.4-22.3 6.3-16.8 9.9-19.3 32.2-8.3 48.1C48 96.3 79.4 96.9 93 79.6c7-8.8 8.6-24.7 1.7-33.8-8.1-10.9-24.6-14.9-35.7-9-10 5.3-13.6 16.5-10.7 24.1 4.4 11.3 13.5 13.3 21.1 12.4 16.4-1.9 17.3-24.2 4.8-22-3 .5-3.9 3.2-3.6 5.2.5 2.7-.4 5.6-2.7 6.9z" style="fill:url(#b)"/><g style="opacity:.2"><path d="M78.8 7c1.2 0 2.3.6 2.8 1.6l4.7 8.7c1.5 2.8 4.4 4.6 7.6 4.7l10.1.5c.9 0 1.7.4 2.2 1.1.5.6.8 1.4.7 2.1l-.9 9.7c-.3 3.1 1.2 6.2 3.8 8.1l8.2 5.7c.7.5 1.1 1.2 1.2 2s-.1 1.5-.6 2.2l-6.2 7.7c-2 2.5-2.5 5.9-1.3 8.8l3.7 9.1c.3.7.3 1.5-.1 2.2-.3.8-1 1.3-1.8 1.6l-9.5 3.3c-3 1-5.3 3.6-5.9 6.7l-2 9.6c-.3 1.4-1.6 2.4-3.1 2.4-.2 0-.5 0-.7-.1l-9.8-2.2c-.7-.2-1.4-.2-2.1-.2-2.4 0-4.8 1-6.5 2.7l-7 7c-.6.6-1.4.9-2.3.9s-1.7-.3-2.3-.9l-7-7c-1.7-1.7-4.1-2.7-6.5-2.7-.7 0-1.4.1-2.1.2l-9.8 2.2c-.2.1-.5.1-.7.1-1.5 0-2.8-1-3.1-2.4l-2-9.6c-.6-3.1-2.9-5.6-5.9-6.7l-9.5-3.3c-.8-.3-1.5-.9-1.8-1.6s-.3-1.5-.1-2.2l3.7-9.1c1.2-2.9.7-6.3-1.3-8.8l-6.2-7.7c-.5-.6-.7-1.4-.6-2.2.1-.8.6-1.5 1.2-2l8.2-5.7c2.6-1.8 4.1-4.9 3.8-8.1l-.9-9.7c-.1-.8.2-1.5.7-2.1.6-.6 1.4-1 2.2-1.1l10.1-.5c3.2-.2 6.1-2 7.6-4.7l4.7-8.6C46.9 7.6 48 7 49.2 7c.6 0 1.1.1 1.6.4l8.8 4.8c1.4.8 2.9 1.1 4.5 1.1s3.1-.4 4.5-1.1l8.8-4.8c.3-.3.9-.4 1.4-.4m0-3c-1 0-2.1.2-3 .8L67 9.6c-.9.5-2 .8-3 .8s-2.1-.3-3-.8l-8.8-4.8c-.9-.5-2-.8-3-.8-2.2 0-4.3 1.2-5.4 3.2l-4.7 8.7c-1 1.9-2.9 3.1-5.1 3.2l-10.1.5c-3.5.2-6.1 3.1-5.8 6.5l.9 9.7c.2 2.1-.8 4.1-2.5 5.3l-8.2 5.7c-2.8 2-3.4 5.8-1.2 8.5l6.2 7.7c1.3 1.7 1.6 3.9.9 5.8L10.4 78c-1.3 3.1.4 6.7 3.7 7.8l9.5 3.3c2 .7 3.5 2.4 4 4.4l2 9.6c.6 2.8 3.2 4.8 6 4.8.5 0 .9-.1 1.4-.2l9.8-2.2c.5-.1.9-.2 1.4-.2 1.6 0 3.2.6 4.4 1.8l7 7c1.2 1.2 2.8 1.8 4.4 1.8s3.2-.6 4.4-1.8l7-7c1.2-1.2 2.8-1.8 4.4-1.8.5 0 .9.1 1.4.2l9.8 2.2c.5.1.9.2 1.4.2 2.9 0 5.4-1.9 6-4.8l2-9.6c.4-2.1 1.9-3.7 4-4.4l9.5-3.3c3.3-1.1 4.9-4.7 3.7-7.8l-3.7-9.1c-.8-1.9-.5-4.2.9-5.8l6.2-7.7c2.1-2.7 1.6-6.5-1.2-8.5l-8.2-5.7c-1.8-1.2-2.7-3.3-2.5-5.3l.9-9.7c.3-3.4-2.3-6.3-5.8-6.5L94 19c-2.2-.1-4.1-1.3-5.1-3.2l-4.7-8.6c-1-2-3.2-3.2-5.4-3.2z" style="fill:#434343"/></g></svg>