<svg xmlns="http://www.w3.org/2000/svg" xmlns:xlink="http://www.w3.org/1999/xlink" style="enable-background:new 0 0 128 128" viewBox="0 0 128 128" xml:space="preserve"><linearGradient id="a" x1="-319.055" x2="-272.138" y1="837.729" y2="837.729" gradientTransform="rotate(-45.001 -1030.742 63.935)" gradientUnits="userSpaceOnUse"><stop offset=".347" style="stop-color:#44b3e6"/><stop offset=".658" style="stop-color:#2c98d4"/></linearGradient><path d="m43.2 118.9 5.3-33.3c.7-4.1-2.9-7.6-7-7L9.1 83.8c-6.2 1-7 9.6-1.1 11.7 2.6 1 4.2 3.5 4 6.3l-.6 6.2c-.4 3.8 2.8 7 6.6 6.7l6.6-.6c2.7-.2 5.2 1.3 6.2 3.8l.8 2.1c2.2 5.9 10.6 5 11.6-1.1z" style="fill:url(#a)"/><defs><path id="b" d="m43.2 118.9 5.3-33.3c.7-4.1-2.9-7.6-7-7L9.1 83.8c-6.2 1-7 9.6-1.1 11.7 2.6 1 4.2 3.5 4 6.3l-.6 6.2c-.4 3.8 2.8 7 6.6 6.7l6.6-.6c2.7-.2 5.2 1.3 6.2 3.8l.8 2.1c2.2 5.9 10.6 5 11.6-1.1z"/></defs><clipPath id="c"><use style="overflow:visible" xlink:href="#b"/></clipPath><path d="m49.8 80.6-3.1-3.1-26.5 14.3c-1.1.6-.3 2.3.8 1.8l15.7-6-13.9 15.7c-.8.9.5 2.2 1.4 1.4L40 90.9 34.7 105c-.4 1.2 1.2 1.9 1.8.8l13.3-25.2z" style="clip-path:url(#c);fill:url(#SVGID_4_)"/><linearGradient id="d" x1="-63.024" x2="-16.107" y1="837.729" y2="837.729" gradientTransform="scale(-1 1) rotate(45 902.08 374.573)" gradientUnits="userSpaceOnUse"><stop offset=".364" style="stop-color:#44b3e6"/><stop offset=".613" style="stop-color:#2c98d4"/></linearGradient><path d="m118.9 43.2-33.3 5.3c-4.1.7-7.6-2.9-7-7l5.2-32.4c1-6.2 9.6-7 11.7-1.1 1 2.6 3.5 4.2 6.3 4l6.2-.6c3.8-.4 7 2.8 6.7 6.6l-.6 6.6c-.2 2.7 1.3 5.2 3.8 6.2l2.1.8c5.9 2.2 5 10.6-1.1 11.6z" style="fill:url(#d)"/><defs><path id="e" d="m118.9 43.2-33.3 5.3c-4.1.7-7.6-2.9-7-7l5.2-32.4c1-6.2 9.6-7 11.7-1.1 1 2.6 3.5 4.2 6.3 4l6.2-.6c3.8-.4 7 2.8 6.7 6.6l-.6 6.6c-.2 2.7 1.3 5.2 3.8 6.2l2.1.8c5.9 2.2 5 10.6-1.1 11.6z"/></defs><clipPath id="f"><use style="overflow:visible" xlink:href="#e"/></clipPath><path d="m80.6 49.8-3.1-3.1 14.3-26.6c.6-1.1 2.3-.3 1.8.8l-6 15.7 15.7-13.9c.9-.8 2.2.5 1.4 1.4L90.9 40l14.1-5.2c1.2-.4 1.9 1.2.8 1.8L80.6 49.8z" style="clip-path:url(#f);fill:url(#SVGID_8_)"/><radialGradient id="g" cx="53.166" cy="57.709" r="34.734" gradientTransform="matrix(1 0 0 -1 0 127.89)" gradientUnits="userSpaceOnUse"><stop offset=".404" style="stop-color:#57a0d7"/><stop offset=".864" style="stop-color:#3d82c4"/></radialGradient><path d="M94.9 77.1c-1.3 3.2-3.1 6.3-5.8 9.3-.4.5-.8.9-1.3 1.3-2 2-4 3.5-6.1 4.8-8.7 5.5-18.2 5.2-26.1 3.2C45.5 93.2 38 87.8 38 87.8s-9.3-10.4-10.3-24c-.5-6.6 1-14 6.4-21.2 1.1-1.5 2.4-3 3.9-4.5.7-.6 1.3-1.3 2-1.8 3.1-2.8 6.3-4.8 9.5-6.1 4.3-1.9 8.5-2.5 12.5-2.5 4.8.1 9.2 1.2 12.9 2.7 7.8 3.1 12.9 7.7 12.9 7.7s3.6 5 6.3 12.4c1.5 4 2.7 8.7 2.9 13.6.2 4.2-.4 8.7-2.1 13z" style="fill:url(#g)"/><radialGradient id="h" cx="54.605" cy="58.126" r="27.18" gradientTransform="matrix(1 0 0 -1 0 127.89)" gradientUnits="userSpaceOnUse"><stop offset=".211" style="stop-color:#ffe081"/><stop offset=".858" style="stop-color:#ffcb28"/></radialGradient><path d="M81.7 92.6C73 98 63.5 97.7 55.6 95.7c-12.7-7-22.7-18.4-28-32-.5-6.6 1-14 6.4-21.2h.1c.1 26.3 21.6 48.7 47.6 50.1z" style="fill:url(#h)"/><radialGradient id="i" cx="67.45" cy="69.64" r="27.853" gradientTransform="matrix(1 0 0 -1 0 127.89)" gradientUnits="userSpaceOnUse"><stop offset=".211" style="stop-color:#ffe081"/><stop offset=".858" style="stop-color:#ffcb28"/></radialGradient><path d="M94.9 77.1c-1.3 3.2-3.1 6.3-5.8 9.3C68.3 80.1 45.4 56.7 40 36.2c3.1-2.8 6.3-4.8 9.5-6.1 2.1 18.1 26.8 43.2 45.4 47z" style="fill:url(#i)"/><radialGradient id="j" cx="79.45" cy="82.09" r="17.893" gradientTransform="matrix(1 0 0 -1 0 127.89)" gradientUnits="userSpaceOnUse"><stop offset=".211" style="stop-color:#ffe081"/><stop offset=".858" style="stop-color:#ffcb28"/></radialGradient><path d="M97 64c-14.4-6.2-29.9-22.2-35.1-36.5 4.8.1 9.2 1.2 12.9 2.7 4.5 7.3 11.9 15 19.2 20.1 1.6 4.1 2.8 8.8 3 13.7z" style="fill:url(#j)"/><g style="opacity:.2"><path d="M89.8 7c.6 0 2.2.2 2.9 2 1.3 3.6 4.7 5.9 8.5 5.9h.9l6.2-.6h.3c.9 0 1.7.4 2.3 1s.9 1.5.8 2.4l-.6 6.6c-.3 4 2 7.8 5.8 9.2l2.1.8c2 .8 2 2.7 1.9 3.2s-.4 2.4-2.6 2.7l-26 4.2c-.9.2-1.7.7-2.2 1.5s-.5 1.8-.1 2.6c8.1 18.8 2.1 30.6-4.5 37.1-5.6 5.6-12.3 8.4-20 8.4-5.4 0-11.1-1.3-17.1-3.9-.4-.2-.8-.2-1.2-.2-.5 0-1 .1-1.4.4-.8.4-1.4 1.2-1.5 2.2l-4.2 26c-.3 1.9-1.8 2.6-3.1 2.6-.6 0-2.2-.2-2.8-2l-.8-2.1c-1.4-3.5-4.7-5.8-8.5-5.8h-.8l-6.6.6h-.3c-.9 0-1.7-.4-2.3-1-.6-.7-.9-1.5-.8-2.4l.6-6.2c.4-4.1-2-8-5.9-9.4-2.1-.8-2.1-2.6-2-3.2s.4-2.4 2.6-2.8L33.2 83c1-.2 1.8-.8 2.2-1.6s.4-1.9-.1-2.8c-5.4-9.9-9-24.7 4.8-38.5 6.3-6.3 13.5-9.6 21.2-9.6 7 0 13.2 2.6 17.2 4.8.4.2.9.4 1.4.4.4 0 .9-.1 1.3-.3.9-.4 1.5-1.3 1.6-2.2l3.8-23.6c.4-1.9 2-2.6 3.2-2.6m0-3c-2.8 0-5.5 1.8-6.1 5.1L80 32.7c-4.8-2.6-11.3-5.2-18.7-5.2C54 27.6 45.8 30.2 38 38c-15.6 15.6-10.5 32.5-5.3 42L9.1 83.8c-6.2 1-7 9.6-1.1 11.7 2.6 1 4.2 3.5 4 6.3l-.6 6.2c-.3 3.6 2.5 6.7 6 6.7h.5l6.6-.6h.5c2.5 0 4.8 1.5 5.7 3.9l.8 2.1c1 2.6 3.3 3.9 5.6 3.9 2.8 0 5.5-1.8 6-5.1l4.2-26c5 2.1 11.4 4.1 18.3 4.1 7.4 0 15.2-2.3 22.2-9.2 13.4-13.4 9.5-30.2 5.1-40.4l26-4.2c6.1-1 7-9.4 1.3-11.7l-2.1-.8c-2.5-1-4.1-3.5-3.8-6.2l.6-6.6c.3-3.6-2.6-6.6-6.1-6.6h-.6l-6.2.6h-.6c-2.5 0-4.8-1.6-5.7-4C94.5 5.3 92.2 4 89.8 4z" style="fill:#434343"/></g></svg>