<svg xmlns="http://www.w3.org/2000/svg" viewBox="0 0 128 128"><linearGradient id="a" x1="108.59" x2="108.59" y1="43.394" y2="108.64" gradientTransform="scale(-1 1) rotate(-6.569 7.867 1467.235)" gradientUnits="userSpaceOnUse"><stop offset=".005" stop-color="#eee"/><stop offset=".282" stop-color="#EAEAEA"/><stop offset=".577" stop-color="#ddd"/><stop offset=".879" stop-color="#C8C8C8"/><stop offset="1" stop-color="#BDBDBD"/></linearGradient><path fill="url(#a)" d="m32.73 38.42 44.58 5.14 3.62.41-7.02 53.18c-1.03 8.96-17.17 10.48-26.76 9.38-9.59-1.11-24.64-6.31-23.61-15.27l5.48-53.27 3.71.43z"/><path fill="#424242" d="m31.01 40.45 1.47.17 22.29 2.57 22.3 2.57 1.38.15-6.73 50.98c-.28 2.45-2.29 4.39-5.97 5.78-3.35 1.26-7.93 1.95-12.89 1.95-1.87 0-3.75-.1-5.45-.3-4.08-.47-10.17-1.89-15-4.45-3.27-1.74-7.09-4.59-6.65-8.39l5.25-51.03m-1.98-2.47-5.48 53.27c-1.03 8.96 14.01 14.16 23.61 15.27 1.73.2 3.67.31 5.7.31 9.22 0 20.21-2.35 21.06-9.69l7.02-53.18-3.62-.41-44.58-5.14-3.71-.43z" opacity=".2"/><linearGradient id="b" x1="108.68" x2="108.68" y1="44.845" y2="104.89" gradientTransform="scale(-1 1) rotate(-6.569 7.867 1467.235)" gradientUnits="userSpaceOnUse"><stop offset="0" stop-color="#FFB300"/><stop offset="1" stop-color="#FFEA00"/></linearGradient><path fill="url(#b)" d="M33.96 40.32 28.8 88.37c0 1.69 1.18 3.45 2.95 4.52 3.16 1.92 9.52 4.18 16.75 5.01 6.9.8 12.94.1 16.51-.95 2.27-.66 4.22-2.3 4.66-3.85l5.73-48.01-41.44-4.77z"/><g fill="#E4A324"><circle cx="58.51" cy="93.79" r="1"/><circle cx="61.01" cy="91.32" r=".69"/><circle cx="56.78" cy="89.54" r="1.21"/><circle cx="61.09" cy="88.79" r="1.24"/><circle cx="57.74" cy="83.05" r="1"/><circle cx="60.29" cy="83.83" r=".89"/><circle cx="64.69" cy="78.59" r=".89"/><circle cx="56.84" cy="72.37" r="1.12"/><circle cx="61.5" cy="81.1" r="1.37"/><circle cx="58.42" cy="76.51" r="1.35"/><circle cx="63.16" cy="75.4" r="1"/></g><linearGradient id="c" x1="143.92" x2="143.92" y1="48.626" y2="93.942" gradientTransform="scale(-1 1) rotate(-6.569 7.867 1467.235)" gradientUnits="userSpaceOnUse"><stop offset=".005" stop-color="#eee"/><stop offset=".282" stop-color="#EAEAEA"/><stop offset=".577" stop-color="#ddd"/><stop offset=".879" stop-color="#C8C8C8"/><stop offset="1" stop-color="#BDBDBD"/></linearGradient><path fill="url(#c)" d="m30.83 43.5-4.31-3.73s-3.24 3.15-9.67 3.52c-5.5.31-10.48 1.45-12 19.44-1.31 15.68.39 19.48 9.2 22.67 7.67 2.77 9.62 4.81 9.62 4.81l2.42-2.2 2.05-19.36 2.69-25.15zm-14.4 31.14c-4.57-.53-4.02-5.37-3.33-11.34s1.25-10.81 5.82-10.28 4.02 5.37 3.33 11.34c-.69 5.96-1.53 10.77-5.82 10.28z"/><path fill="#424242" d="m26.42 42.61 2.09 1.81-2.56 24-1.96 18.52-.45.41c-1.52-.98-4.2-2.39-8.73-4.03-7.32-2.65-9.03-4.99-7.73-20.4C8.51 46 12.82 45.75 17 45.51c4.5-.27 7.65-1.78 9.42-2.9m-9.4 34.28c6.02 0 6.84-7.1 7.43-12.28.36-3.09.69-6 .29-8.34-.7-4.06-3.41-5.21-5.57-5.46-.31-.04-.62-.05-.91-.05-5.95 0-6.67 6.25-7.37 12.29-.36 3.09-.69 6-.29 8.34.7 4.06 3.41 5.21 5.57 5.46.29.02.57.04.85.04m9.51-37.12s-3.24 3.15-9.67 3.52c-5.5.31-10.48 1.45-12 19.44-1.32 15.68.38 19.48 9.19 22.67 7.67 2.77 9.62 4.81 9.62 4.81l2.42-2.2 2.05-19.36 2.69-25.15-4.3-3.73zm-9.51 34.9c-.19 0-.39-.01-.59-.04-4.58-.53-4.02-5.37-3.33-11.34.65-5.67 1.19-10.32 5.16-10.32.21 0 .43.01.66.04 4.57.53 4.02 5.37 3.33 11.34-.66 5.69-1.45 10.32-5.23 10.32z" opacity=".2"/><linearGradient id="d" x1="67.93" x2="130.99" y1="42.269" y2="36.506" gradientTransform="matrix(-1 0 0 1 155.11 0)" gradientUnits="userSpaceOnUse"><stop offset=".005" stop-color="#eee"/><stop offset=".488" stop-color="#F2F2F2"/><stop offset="1" stop-color="#fff"/></linearGradient><path fill="url(#d)" d="M24.96 34.21c.42-.77.53-1.67.33-2.56-.18-.79-.24-1.61-.17-2.45.33-3.87 3.5-6.9 7.4-7.04.49-.02.98.01 1.45.07 1.16.16 2.35-.05 3.27-.73 1.47-1.08 3.34-1.64 5.36-1.46.6.05 1.18.18 1.74.35 2.05-1.32 4.56-2 7.25-1.75 3.11.28 5.88 1.74 7.92 3.88 1.81-.89 3.9-1.31 6.12-1.11 4.73.43 8.68 3.56 10.44 7.71.38-.02.77-.02 1.17.01 4.51.41 8.01 4.38 7.84 8.86-.01.3-.04.6-.09.89 1.57 1.24 2.46 3.3 1.98 5.43-.46 2.04-2.21 3.56-4.31 3.75-.69.06-1.5.03-2.16-.26l-.22-.11a6.503 6.503 0 0 1-4.54 3.2c-.6.2-1.22.34-1.77.63-2.94 1.58-1.48 9.77-8.95 9.08-5-.46-5.96-4.48-6.18-7.12-.12-1.46-.63-2.94-1.23-4.45-.24-.62-1-.85-1.55-.5-2.1 1.34-4.64 1.94-7.2 1.71-3.01-.27-5.71-1.64-7.72-3.67-1.32-1.33-3.29-1.77-4.87-.94-1.55.81-3.41 1.1-5.37.69-3.54-.74-6.36-3.79-6.79-7.36-.23-1.76.12-3.39.85-4.75z"/><path fill="#424242" d="M50.49 21.59c.27 0 .54.01.82.04 2.26.21 4.39 1.26 6.02 2.96a2.991 2.991 0 0 0 3.49.62c1.16-.57 2.41-.86 3.72-.86.27 0 .54.01.81.04 3.45.32 6.57 2.63 7.95 5.89a2.985 2.985 0 0 0 2.76 1.83h.15c.12-.01.24-.01.36-.01.13 0 .25 0 .38.02 2.93.27 5.23 2.85 5.11 5.76-.01.17-.02.36-.06.56-.16 1.07.26 2.14 1.11 2.8.6.47 1.15 1.36.91 2.42-.17.76-.84 1.34-1.64 1.41-.1.01-.21.01-.31.01-.23 0-.35-.03-.38-.03-.04-.02-.09-.04-.13-.07-.42-.2-.86-.29-1.29-.29-1.05 0-2.06.55-2.61 1.52-.52.92-1.41 1.54-2.44 1.72-.15.03-.29.06-.43.11s-.28.09-.41.13c-.52.16-1.17.35-1.83.71-2.09 1.12-2.83 3.28-3.49 5.18-1.06 3.05-1.53 3.58-3.19 3.58-.18 0-.38-.01-.58-.03-1.51-.14-3.15-.6-3.47-4.38-.15-1.86-.77-3.65-1.42-5.3a4.023 4.023 0 0 0-3.77-2.57c-.78 0-1.53.22-2.18.64a8.381 8.381 0 0 1-4.51 1.29c-.27 0-.54-.01-.8-.04-2.19-.2-4.27-1.19-5.87-2.8-1.42-1.43-3.34-2.25-5.27-2.25-1.09 0-2.16.26-3.12.76-.68.36-1.44.54-2.23.54-.37 0-.75-.04-1.13-.12-2.29-.48-4.15-2.49-4.43-4.79-.13-1.06.05-2.09.53-2.96.76-1.39.98-3.04.62-4.64-.11-.51-.15-1.03-.11-1.54.2-2.36 2.14-4.21 4.52-4.3h.2c.24 0 .48.02.72.05.38.05.77.08 1.15.08 1.61 0 3.1-.47 4.31-1.36.81-.6 1.79-.91 2.83-.91a5.073 5.073 0 0 1 1.6.25c.29.09.59.14.89.14.57 0 1.14-.16 1.62-.48 1.33-.87 2.9-1.33 4.52-1.33m0-3c-2.28 0-4.39.66-6.16 1.8-.56-.17-1.14-.3-1.74-.35-.25-.02-.5-.03-.75-.03-1.73 0-3.32.55-4.6 1.49-.73.53-1.62.78-2.54.78-.24 0-.49-.02-.74-.05-.37-.05-.75-.08-1.14-.08-.1 0-.21 0-.31.01-3.9.15-7.07 3.17-7.4 7.04-.07.84-.01 1.66.17 2.45.2.88.09 1.79-.33 2.56-.74 1.36-1.08 2.99-.87 4.75.43 3.57 3.25 6.62 6.79 7.36.59.12 1.18.18 1.75.18 1.31 0 2.54-.31 3.62-.88.55-.28 1.14-.42 1.73-.42 1.13 0 2.28.49 3.14 1.36 2.02 2.03 4.71 3.4 7.72 3.67.36.03.72.05 1.08.05 2.18 0 4.31-.61 6.12-1.76.18-.11.38-.17.57-.17.41 0 .81.24.98.66.59 1.51 1.1 2.99 1.23 4.45.22 2.64 1.19 6.67 6.18 7.12.3.03.58.04.85.04 6.51 0 5.28-7.61 8.1-9.12.55-.29 1.17-.43 1.77-.63 1.95-.34 3.6-1.54 4.54-3.2l.22.11c.48.21 1.05.28 1.59.28.2 0 .39-.01.57-.03a4.84 4.84 0 0 0 4.31-3.75c.47-2.13-.41-4.19-1.98-5.43.04-.29.07-.59.09-.89.18-4.48-3.33-8.45-7.84-8.86-.22-.02-.44-.03-.65-.03-.17 0-.34.01-.51.01-1.75-4.15-5.71-7.28-10.44-7.71-.36-.03-.73-.05-1.08-.05-1.81 0-3.52.42-5.03 1.16-2.04-2.14-4.81-3.59-7.92-3.88-.36.01-.73-.01-1.09-.01z" opacity=".2"/><path fill="#F44336" d="m83.56 13.63 6.6-1.18c.32-.06.62.2.59.53l-.93 13.78c-.04.53-.75.65-.97.17l-5.66-12.6c-.14-.29.05-.64.37-.7zm16.98-.2 5.5 3.83c.27.19.29.58.04.8l-10.41 9.09c-.4.35-.99-.07-.81-.56l4.91-12.92c.12-.31.5-.42.77-.24zm10.76 12.46 1.18 6.6c.06.32-.2.62-.53.59l-13.78-.93c-.53-.04-.65-.75-.17-.97l12.6-5.66c.29-.13.64.05.7.37z"/><linearGradient id="e" x1="76.895" x2="76.895" y1="59.986" y2="121.56" gradientTransform="rotate(-6.569 88.372 64.472)" gradientUnits="userSpaceOnUse"><stop offset=".005" stop-color="#eee"/><stop offset=".282" stop-color="#EAEAEA"/><stop offset=".577" stop-color="#ddd"/><stop offset=".879" stop-color="#C8C8C8"/><stop offset="1" stop-color="#BDBDBD"/></linearGradient><path fill="url(#e)" d="M97.44 58.68 76.4 61.11l-21.04 2.42-3.42.38 6.63 50.19c.97 8.45 16.2 9.89 25.26 8.85s23.25-5.96 22.28-14.41l-5.17-50.27-3.5.41z"/><path fill="#424242" d="m99.06 60.6 4.96 48.19c.41 3.56-3.19 6.26-6.28 7.89-4.56 2.42-10.31 3.75-14.16 4.2-1.6.18-3.38.28-5.14.28-7.82 0-17.18-1.91-17.8-7.33l-6.35-48.08 1.31-.15 42.08-4.84 1.38-.16m1.87-2.32-3.49.41-42.08 4.84-3.42.38 6.63 50.19c.8 6.93 11.17 9.15 19.88 9.15 1.91 0 3.75-.11 5.38-.3 9.05-1.04 23.25-5.96 22.28-14.41l-5.18-50.26z" opacity=".2"/><linearGradient id="f" x1="76.884" x2="76.884" y1="61.446" y2="118.01" gradientTransform="rotate(-6.569 88.372 64.472)" gradientUnits="userSpaceOnUse"><stop offset="0" stop-color="#FFB300"/><stop offset="1" stop-color="#FFEA00"/></linearGradient><path fill="url(#f)" d="m96.18 60.58 4.96 45.25c0 1.59-1.12 3.26-2.79 4.27-2.98 1.81-8.98 3.94-15.81 4.73-6.52.75-12.21.09-15.59-.9-2.14-.63-3.98-2.17-4.4-3.63l-5.5-45.21 39.13-4.51z"/><g fill="#E4A324"><circle cx="73.11" cy="110.94" r=".94"/><circle cx="70.74" cy="108.61" r=".65"/><circle cx="74.74" cy="106.94" r="1.14"/><circle cx="70.68" cy="106.22" r="1.17"/><circle cx="73.84" cy="100.81" r=".94"/><circle cx="71.42" cy="101.54" r=".84"/><circle cx="67.28" cy="96.6" r=".84"/><circle cx="74.69" cy="90.73" r="1.06"/><circle cx="70.28" cy="98.97" r="1.29"/><circle cx="73.19" cy="94.63" r="1.27"/><circle cx="68.72" cy="93.59" r=".94"/></g><linearGradient id="g" x1="110.24" x2="110.24" y1="64.924" y2="107.69" gradientTransform="rotate(-6.569 88.372 64.472)" gradientUnits="userSpaceOnUse"><stop offset=".005" stop-color="#eee"/><stop offset=".282" stop-color="#EAEAEA"/><stop offset=".577" stop-color="#ddd"/><stop offset=".879" stop-color="#C8C8C8"/><stop offset="1" stop-color="#BDBDBD"/></linearGradient><path fill="url(#g)" d="m101.76 87.21 1.94 18.27 2.29 2.08s1.84-1.93 9.08-4.54c8.32-3.01 9.92-6.59 8.67-21.4-1.43-16.97-6.13-18.05-11.32-18.35-6.07-.35-9.12-3.32-9.12-3.32l-4.06 3.52 2.52 23.74zm5.57-4.05c-.65-5.63-1.18-10.2 3.14-10.7s4.84 4.07 5.49 9.7 1.18 10.2-3.14 10.7c-4.05.47-4.84-4.06-5.49-9.7z"/><path fill="#424242" d="M103.39 62.64c1.66 1.06 4.65 2.49 8.9 2.73 3.94.23 8.01.46 9.36 16.43 1.22 14.54-.39 16.76-7.3 19.25-4.28 1.55-6.8 2.88-8.24 3.8l-.42-.38-1.85-17.48-2.42-22.65 1.97-1.7m8.88 32.35c.26 0 .53-.02.8-.05 2.04-.23 4.6-1.32 5.26-5.15.38-2.2.06-4.96-.28-7.87-.66-5.7-1.34-11.59-6.95-11.59-.28 0-.57.02-.86.05-2.04.23-4.6 1.32-5.26 5.15-.38 2.2-.06 4.96.27 7.87.56 4.89 1.34 11.59 7.02 11.59m-8.98-35.03-4.06 3.52 2.54 23.73 1.94 18.27 2.29 2.08s1.84-1.93 9.08-4.54c8.32-3.01 9.92-6.59 8.67-21.4-1.43-16.97-6.13-18.05-11.32-18.35-6.08-.34-9.14-3.31-9.14-3.31zm8.98 32.94c-3.57 0-4.32-4.37-4.94-9.74-.65-5.63-1.18-10.2 3.14-10.7.22-.02.42-.04.62-.04 3.75 0 4.26 4.39 4.87 9.74.65 5.63 1.18 10.2-3.14 10.7-.19.03-.37.04-.55.04z" opacity=".2"/><path fill="#fff" fill-opacity=".72" d="M95.04 104.41c-1.63.41-3.25-.72-3.44-2.39L88.72 77c-.16-1.4.75-2.71 2.13-3.03a2.79 2.79 0 0 1 3.42 2.39l2.88 25.02c.14 1.4-.76 2.7-2.11 3.03zm-8 5c-1.63.41-3.25-.72-3.44-2.39L80.72 82c-.16-1.4.75-2.71 2.13-3.03a2.79 2.79 0 0 1 3.42 2.39l2.88 25.02c.14 1.4-.76 2.7-2.11 3.03z" opacity=".51"/><linearGradient id="h" x1="44.93" x2="107.99" y1="63.269" y2="57.506" gradientUnits="userSpaceOnUse"><stop offset=".005" stop-color="#eee"/><stop offset=".488" stop-color="#F2F2F2"/><stop offset="1" stop-color="#fff"/></linearGradient><path fill="url(#h)" d="M107.15 55.21c-.42-.77-.53-1.67-.33-2.56.18-.79.24-1.61.17-2.45-.33-3.87-3.5-6.9-7.4-7.04a8.7 8.7 0 0 0-1.45.07c-1.16.16-2.35-.05-3.27-.73-1.47-1.08-3.34-1.64-5.36-1.46-.6.05-1.18.18-1.74.35-2.05-1.32-4.56-2-7.25-1.75-3.11.28-5.88 1.74-7.92 3.88-1.81-.89-3.9-1.31-6.12-1.11-4.73.43-8.68 3.56-10.44 7.71-.38-.02-.77-.02-1.17.01-4.51.41-8.01 4.38-7.84 8.86.01.3.04.6.09.89-1.57 1.24-2.46 3.3-1.98 5.43.46 2.04 2.21 3.56 4.31 3.75.69.06 1.5.03 2.16-.26l.22-.11a6.503 6.503 0 0 0 4.54 3.2c.6.2 1.22.34 1.77.63 2.94 1.58 1.48 9.77 8.95 9.08 5-.46 5.96-4.48 6.18-7.12.12-1.46.63-2.94 1.23-4.45.24-.62 1-.85 1.55-.5 2.1 1.34 4.64 1.94 7.2 1.71 3.01-.27 5.71-1.64 7.72-3.67 1.32-1.33 3.29-1.77 4.87-.94 1.55.81 3.41 1.1 5.37.69 3.54-.74 6.36-3.79 6.79-7.36.23-1.76-.11-3.39-.85-4.75z"/><path fill="#424242" d="M81.62 42.59c1.63 0 3.19.46 4.54 1.32.49.32 1.05.48 1.62.48.3 0 .6-.04.89-.14.38-.12.75-.19 1.12-.23.16-.01.32-.02.48-.02 1.04 0 2.02.31 2.83.91 1.21.89 2.7 1.36 4.31 1.36.38 0 .77-.03 1.15-.08.24-.03.48-.05.72-.05h.2c2.38.09 4.32 1.94 4.52 4.3.04.51.01 1.03-.11 1.54-.36 1.6-.14 3.25.62 4.64.47.87.66 1.9.53 2.96-.28 2.29-2.14 4.31-4.43 4.79-.38.08-.76.12-1.13.12-.8 0-1.55-.18-2.23-.54-.95-.5-2.03-.76-3.12-.76-1.93 0-3.85.82-5.27 2.25-1.59 1.6-3.68 2.6-5.87 2.8-.27.02-.54.04-.8.04-1.63 0-3.19-.44-4.5-1.28-.66-.42-1.41-.64-2.19-.64-1.68 0-3.16 1.01-3.77 2.57-.65 1.65-1.27 3.44-1.42 5.3-.31 3.78-1.95 4.24-3.47 4.38-.2.02-.4.03-.58.03-1.66 0-2.13-.54-3.19-3.58-.66-1.91-1.41-4.07-3.49-5.18-.67-.36-1.31-.55-1.83-.71-.14-.04-.28-.08-.41-.13-.14-.05-.29-.08-.43-.11a3.503 3.503 0 0 1-2.44-1.72 2.994 2.994 0 0 0-2.61-1.52c-.43 0-.87.09-1.29.29-.04.02-.08.04-.13.06-.04.01-.17.03-.39.03-.11 0-.21-.01-.31-.01-.79-.07-1.47-.65-1.64-1.41-.24-1.07.32-1.95.91-2.42.85-.67 1.27-1.74 1.11-2.8-.03-.2-.05-.38-.06-.56-.11-2.91 2.18-5.49 5.11-5.76.13-.01.25-.02.38-.02.12 0 .24 0 .36.01h.15a3 3 0 0 0 2.76-1.83c1.38-3.26 4.5-5.58 7.95-5.89a8.359 8.359 0 0 1 4.53.82 2.991 2.991 0 0 0 3.49-.62c1.62-1.7 3.76-2.75 6.02-2.96.27-.01.54-.03.81-.03m0-3c-.36 0-.72.02-1.09.05-3.11.28-5.88 1.74-7.92 3.88a11.441 11.441 0 0 0-6.11-1.11c-4.73.43-8.68 3.56-10.44 7.71-.17-.01-.34-.01-.51-.01-.22 0-.43.01-.65.03-4.51.41-8.01 4.38-7.84 8.86.01.3.04.6.09.89-1.57 1.24-2.46 3.3-1.98 5.43.46 2.04 2.21 3.56 4.31 3.75.18.02.38.03.57.03.54 0 1.1-.07 1.59-.28l.22-.11a6.503 6.503 0 0 0 4.54 3.2c.6.2 1.22.34 1.77.63 2.82 1.51 1.59 9.12 8.1 9.12.27 0 .55-.01.85-.04 5-.46 5.96-4.48 6.18-7.12.12-1.46.63-2.94 1.23-4.45a1.055 1.055 0 0 1 1.55-.49c1.8 1.15 3.94 1.76 6.12 1.76.36 0 .72-.02 1.08-.05 3.01-.27 5.71-1.64 7.72-3.67.87-.87 2.01-1.36 3.14-1.36.59 0 1.18.13 1.73.42 1.08.56 2.31.88 3.62.88.57 0 1.15-.06 1.75-.18 3.54-.74 6.36-3.79 6.79-7.36.21-1.76-.13-3.39-.87-4.75-.42-.77-.53-1.67-.33-2.56.18-.79.24-1.61.17-2.45-.33-3.87-3.5-6.9-7.4-7.04-.1 0-.21-.01-.31-.01-.39 0-.76.03-1.14.08-.24.03-.49.05-.74.05-.92 0-1.81-.25-2.54-.78a7.758 7.758 0 0 0-4.6-1.49c-.25 0-.5.01-.75.03-.6.05-1.18.18-1.74.35-1.77-1.18-3.88-1.83-6.16-1.84z" opacity=".2"/><g fill="#E4A324"><circle cx="41.26" cy="67.08" r=".94"/><circle cx="42.98" cy="69.92" r=".65"/><circle cx="38.69" cy="70.56" r="1.14"/><circle cx="42.46" cy="72.25" r="1.17"/><circle cx="38.06" cy="76.72" r=".94"/><circle cx="40.58" cy="76.6" r=".84"/><circle cx="43.37" cy="82.42" r=".84"/><circle cx="34.74" cy="86.27" r="1.06"/><circle cx="41.04" cy="79.38" r="1.29"/><circle cx="37.15" cy="82.86" r="1.27"/><circle cx="41.23" cy="84.97" r=".94"/></g></svg>