<svg xmlns="http://www.w3.org/2000/svg" viewBox="0 0 128 128"><radialGradient id="a" cx="47.7" cy="64.162" r="43.596" gradientUnits="userSpaceOnUse"><stop offset="0" stop-color="#A8A8A8"/><stop offset=".168" stop-color="#BFBFBF"/><stop offset=".4" stop-color="#D9D9D9"/><stop offset=".61" stop-color="#E9E9E9"/><stop offset=".775" stop-color="#eee"/></radialGradient><path fill="url(#a)" d="M59.21 7.72C59.09 5.16 58.51 4 57.46 4c-1.16 0-1.74 1.16-1.86 3.72l-1.39 20.45c0 1.16-.7 1.98-1.63 1.98-.81 0-1.51-.81-1.51-1.98L49.44 7.72C49.21 5.05 48.75 4 47.7 4s-1.63 1.05-1.74 3.72l-1.63 20.45c-.23 1.16-.93 1.98-1.63 1.98s-1.39-.81-1.63-1.98L39.79 7.72C39.56 5.16 39.1 4 37.94 4s-1.63 1.16-1.86 3.72c-.58 10.11-1.86 20.22-1.86 36.49 0 3.72 1.16 6.74 3.37 8.49l4.19 3.37c1.05.81 1.74 2.21 1.63 4.53l-1.69 57.62c-.05 3.35 2.65 6.1 5.99 6.1 3.35 0 6.05-2.77 5.99-6.12l-1.81-57.6c-.12-2.33.58-3.84 1.63-4.65l4.18-3.25c2.21-1.74 3.49-4.88 3.49-8.49-.01-16.27-1.29-26.38-1.98-36.49z"/><path fill="#424242" d="m37.94 10.05 1.14 18.25c.01.09.02.18.04.27.42 2.11 1.9 3.58 3.59 3.58s3.17-1.47 3.59-3.59c.02-.08.03-.15.03-.23l1.38-17.3 1.37 17.23c.04 2.19 1.57 3.89 3.51 3.89 2.04 0 3.59-1.67 3.63-3.9l1.2-17.66c.12 1.58.26 3.18.39 4.84.65 7.78 1.38 16.6 1.38 28.79 0 2.98-1.02 5.57-2.72 6.91l-4.18 3.25c-1.68 1.31-2.53 3.56-2.4 6.29l1.81 57.57a4 4 0 0 1-1.15 2.89c-.76.77-1.77 1.2-2.84 1.2a3.93 3.93 0 0 1-2.84-1.19 3.94 3.94 0 0 1-1.15-2.85L45.4 60.7c.17-3.46-1.21-5.29-2.37-6.19l-4.2-3.38c-1.68-1.33-2.61-3.79-2.61-6.92 0-11.57.66-20.07 1.23-27.57.18-2.26.34-4.43.49-6.59M57.46 4c-1.16 0-1.74 1.16-1.86 3.72l-1.39 20.45c0 1.16-.7 1.98-1.63 1.98-.81 0-1.51-.81-1.51-1.98L49.44 7.72C49.21 5.05 48.75 4 47.7 4s-1.63 1.05-1.74 3.72l-1.63 20.45c-.23 1.16-.93 1.98-1.63 1.98s-1.39-.81-1.63-1.98L39.79 7.72C39.56 5.16 39.1 4 37.94 4s-1.63 1.16-1.86 3.72c-.58 10.11-1.86 20.22-1.86 36.49 0 3.72 1.16 6.74 3.37 8.49l4.19 3.37c1.05.81 1.74 2.21 1.63 4.53l-1.69 57.62c-.05 3.35 2.65 6.1 5.99 6.1 3.35 0 6.05-2.77 5.99-6.12l-1.81-57.6c-.12-2.33.58-3.84 1.63-4.65l4.18-3.25c2.21-1.74 3.49-4.88 3.49-8.49 0-16.27-1.28-26.38-1.98-36.49-.12-2.56-.7-3.72-1.75-3.72z" opacity=".2"/><radialGradient id="b" cx="84.419" cy="64.456" r="34.168" gradientUnits="userSpaceOnUse"><stop offset=".002" stop-color="#A3A3A3"/><stop offset=".185" stop-color="#B7B7B7"/><stop offset=".516" stop-color="#D5D5D5"/><stop offset=".799" stop-color="#E7E7E7"/><stop offset="1" stop-color="#eee"/></radialGradient><path fill="url(#b)" d="M92 61.45V8.94c0-4.4-1.44-5.6-3.96-3.94-6.45 4.23-12.77 24.87-12.77 50.13 0 9.31 9.17 8.05 9.57 10.83l-2.87 52.56c-.05 3.35 2.67 6.1 6.02 6.1s5.64-2.77 5.58-6.12L92 61.45z"/><path fill="#424242" d="M89.59 6.41c.11.37.41 1.12.41 2.53v52.57l1.57 57.03c.02 1.26-.46 2.41-1.19 3.16-.6.62-1.42.93-2.35.93-1.09 0-2.13-.43-2.9-1.21a3.964 3.964 0 0 1-1.16-2.82l2.84-52.52c.01-.13 0-.26-.02-.39-.3-2.11-2.31-2.91-4.08-3.61C80 61 77.2 59.88 77.2 55.15c0-11.62 1.37-23.13 3.86-32.43 2.2-8.22 5.24-14.21 8.01-16.02.17-.15.4-.23.52-.29m.31-2.12c-.52 0-1.21.24-1.94.71-6.46 4.23-12.73 24.87-12.73 50.13 0 9.31 9.19 8.05 9.59 10.83l-2.86 52.56c-.05 3.35 2.68 6.1 6.03 6.1s5.64-2.77 5.58-6.12L92 61.45V8.94c0-3.15-.81-4.65-2.1-4.65z" opacity=".2"/></svg>