<svg xmlns="http://www.w3.org/2000/svg" style="enable-background:new 0 0 128 128" viewBox="0 0 128 128" xml:space="preserve"><path d="M76.6 3.5s-.1 1.3-.4 3.2c-.2.9-.4 2-.7 3.2-.3 1.2-.8 2.4-1.1 3.6-1.5 4.9-3.1 9.8-3.1 9.8h-.1s1.1-5 2.3-10c.3-1.2.6-2.5.8-3.7.3-1.2.7-2.2 1-3.1.7-1.8 1.3-3 1.3-3z" style="fill:#736357"/><linearGradient id="a" x1="75.964" x2="73.411" y1="717.771" y2="725.926" gradientTransform="translate(0 -712.614)" gradientUnits="userSpaceOnUse"><stop offset="0" style="stop-color:#ff3776"/><stop offset="1" style="stop-color:#ffdee7"/></linearGradient><path d="m76.2 5.2-15 2.2 3.6 2.3 6.3 2.8 5.8 1.7 5.6.9 4.6-.6z" style="fill:url(#a)"/><path d="M60.1 7.4 76 5.2m-11.9 5.4 12-5.4m-5.7 8.5 5.7-8.5m1 10.1-.9-9.9m7.2 10.5L76.2 5.2m11.4 10.3L76.2 5" style="fill:none;stroke:#ff3f7b;stroke-width:.6097;stroke-miterlimit:10"/><g style="opacity:.2"><path d="m76.1 5.9 8.3 7.5.4.3-1.8.3c-.1 0-.2.1-.3.1h-.1l-5.1-.8h-.3c-.1 0-.1-.1-.2-.1l-2.3-.7h-.5c-.1-.1-.3-.2-.4-.3l-1.8-.4c-.1 0-.2.1-.3.1-.1 0-.1-.3-.2-.3l-5.2-2.4c-.3 0-.4-.2-.6-.2-.1 0-.2-.1-.3-.2h-.1l-1.8-1.2 12.6-1.7m.4-2.4s-.3.5-.7 1.4L60 7.1l.1.6 1.3-.2 3.4 2.2.2.1-1.1.5.2.6 1.6-.7 5.2 2.3-.8 1.1.5.3.8-1.3 1.8.6v.1c-1.2 5-2.3 10-2.3 10h.1s1.6-4.9 3.1-9.8v-.1l2.3.7.1 1.2.6-.1-.1-1 5.1.8.7 1 .5-.3-.2-.7 3-.4 1.2 1.1.4-.4-.9-.8h.1L85 12.7l-8.5-7.8c.1-.9.2-1.4.2-1.4h-.2z" style="fill:#424242"/></g><path d="M60.6 11.1 40.3 36s-7.8-10.6 1.1-20.4 19.2-4.5 19.2-4.5z" style="fill:#057a64"/><linearGradient id="b" x1="42.469" x2="50.611" y1="728.448" y2="736.271" gradientTransform="translate(0 -712.614)" gradientUnits="userSpaceOnUse"><stop offset="0" style="stop-color:#93d919"/><stop offset="1" style="stop-color:#f2f45d"/></linearGradient><path d="M60.4 11.4 40.6 35.7s-7-9.4 1.9-19.3 17.9-5 17.9-5z" style="fill:url(#b)"/><path d="M54.8 13.9c.9-1.1 2.5-1.3 3.6-.4l-5.1 6.4s.7-4.9 1.5-6zm-13 16.3c.9-1.1 5.5-2.7 5.5-2.7l-5.2 6.3c-1.1-.9-1.3-2.5-.3-3.6zm1.1-10c-1.1-.9-1.3-2.5-.4-3.6s2.5-1.3 3.6-.4 2.8 5.5 2.8 5.5-4.9-.6-6-1.5zm-.5 1.8c-1.4.2-2.4 1.4-2.2 2.8s1.4 2.4 2.8 2.2c1.4-.2 5.3-3.2 5.3-3.2s-4.5-2-5.9-1.8zm5.3-6.6c-.2-1.4.8-2.7 2.2-2.8s2.7.9 2.8 2.2c.1 1.3-1.9 5.8-1.9 5.8s-3-3.8-3.1-5.2z" style="fill:#f1f41c"/><path d="M42.4 22c-1.4.2-2.4 1.4-2.2 2.8s1.4 2.4 2.8 2.2c1.4-.2 5.3-3.2 5.3-3.2s-4.5-2-5.9-1.8z" style="fill:#f1f41c"/><g style="opacity:.2"><path d="M53.9 11.6c1.3 0 2.5.2 3.4.4L45.7 26.3c-.1.1-.1.2-.2.2l-1.9 2.3-3 3.7c-1.5-3.3-3.2-9.6 2.3-15.6 3.2-3.5 6.9-5.3 11-5.3m0-2c-3.6 0-8.2 1.2-12.4 5.9-9 9.8-1.1 20.4-1.1 20.4l.3-.3 4.5-5.6 2.1-2.6 13.1-16.1.3-.3c-.1.1-2.9-1.4-6.8-1.4z" style="fill:#424242"/></g><linearGradient id="c" x1="63.3" x2="63.3" y1="825.914" y2="836.714" gradientTransform="translate(0 -712.614)" gradientUnits="userSpaceOnUse"><stop offset="0" style="stop-color:#fff"/><stop offset=".132" style="stop-color:#f3f3f3"/><stop offset=".454" style="stop-color:#dbdbdb"/><stop offset=".752" style="stop-color:#ccc"/><stop offset="1" style="stop-color:#c7c7c7"/></linearGradient><path d="M82.9 119.4c0 2.5-8.8 4.5-19.6 4.5s-19.6-2-19.6-4.5 8.8-6.1 19.6-6.1 19.6 3.5 19.6 6.1z" style="fill:url(#c)"/><path d="M80.6 54.2c-2.8-10.2-2.8-26.5-2.8-26.5h-.2c-.5-.9-6.7-1.9-14.2-1.9S49.6 26 49.1 27H49s0 16.6-2.8 26.9c-2.3 8.5-5.3 18.6.2 26.6 3.8 5.5 11.1 9.7 17.9 9.4 3.4-.2 6.8-1.8 9.7-3.5 2.8-1.6 5.2-3.7 6.9-6.5 4.9-7.9 1.9-17.4-.3-25.7z" style="fill:none"/><linearGradient id="d" x1="63.2" x2="63.2" y1="734.789" y2="829.954" gradientTransform="translate(0 -712.614)" gradientUnits="userSpaceOnUse"><stop offset="0" style="stop-color:#f6f9fe"/><stop offset=".995" style="stop-color:#c5cfd0"/></linearGradient><path d="M81.4 52.8c-3.7-13.5-2.2-31-2.2-31s-7.1 1.9-16 1.9c-8.7 0-15.8-.7-16.1-1.9.1 1.1 1.5 18.4-2.1 31.4-3.7 13.5-8 22.9 4.4 33.9s11.5 9.4 11.4 14.6-.9 11.3-1.4 13.1 2.2 2.3 3.8 2.3c1.6 0 4.3-.5 3.8-2.3s-1.3-7.9-1.4-13.1-1-3.8 11.4-14.8 8.1-20.6 4.4-34.1z" style="fill:url(#d)"/><path d="M63.2 19.8c-8.9 0-16.1 1-16.1 2.2v.1c.2 1.2 7.3 2.2 16.1 2.2 8.9 0 16.1-1 16.1-2.2 0-1.3-7.2-2.3-16.1-2.3z" style="opacity:.8;fill:#d0d6d2;enable-background:new"/><g style="opacity:.2"><path d="M63.2 21.8c7.3 0 12.1.7 13.9 1.2-.3 4.4-.9 18.8 2.3 30.4.3 1.2.7 2.4 1 3.6 3.3 11.6 5.5 19.3-4.8 28.5-1.3 1.2-2.5 2.2-3.5 3.1-8.3 7.3-8.8 7.7-8.6 12.3v.9c.1 4.4.7 9.3 1.2 12 .2.9.9 1.6 1.8 1.6 7.8.5 12.7 2.7 14 3.8-1.7 1-7.6 2.6-17.3 2.6s-15.7-1.6-17.3-2.6c1.4-1.1 6.2-3.3 13.9-3.8.9-.1 1.7-.7 1.8-1.7.5-2.6 1-7.5 1.1-12v-.9c.2-4.4-.4-5-7.7-11.3-1.2-1.1-2.7-2.4-4.4-3.9-10.3-9.1-8.1-16.7-4.8-28.2.3-1.2.7-2.4 1-3.7 3.2-11.6 2.6-26.1 2.3-30.8 1.9-.4 6.8-1.1 14.1-1.1m0-2c-8.6 0-15.5.9-16 2.1v-.1.3c.2 2.5 1.3 18.7-2.1 31.1-3.7 13.5-8 22.9 4.4 33.9s11.5 9.4 11.4 14.6c-.1 4.2-.6 9.1-1.1 11.7-9.1.7-16.1 3.7-16.1 5.9 0 2.5 8.8 4.5 19.6 4.5s19.6-2 19.6-4.5c0-2.2-7-5.3-16.2-5.9-.5-2.6-1-7.4-1.1-11.7-.1-5.1-1-3.7 11.4-14.7s8.1-20.6 4.4-34.1C78 40.5 79 24.8 79.2 22.2c.1-.1.1-.2.1-.2 0-1.2-7.2-2.2-16.1-2.2z" style="fill:#424242"/></g><path d="M77 27.8c-.5-1-6.5-1.8-13.8-1.8s-13.2.9-13.7 1.8v.1c0 1 6.2 1.9 13.8 1.9S77 29 77 28v-.2z" style="fill:#fffa99"/><path d="M49.1 27.7v.1c0 1 6.4 1.7 14.3 1.7 1.3 0 2.5 0 3.7-.1 1.4 0 2.8-.1 4-.2 4-.3 6.6-.8 6.6-1.5v-.1c-.3-.5-2.3-.9-5.4-1.2-.2.4-.3.9-.6 1.5-.1.2-.3.4-.5.5-.8.3-1.8.3-2.6.1a.8.8 0 0 1-.6-1.1l.5-1.3c-1.6-.1-3.3-.1-5-.1-7.7.1-13.9.8-14.4 1.7z" style="fill:none"/><path d="M71.6 19.5c-1.3 1.5-1.8 2.9-1.8 2.9l-.7 1.7c1.4-.1 2.7-.2 3.9-.3.3-.7.7-1.2 1.1-1.7-1-.6-2.1-1.4-2.5-2.6zm2.3-1.8c-.4.2-.8.5-1.2.8.6 1.1 1.1 2.3 2.2 2.9.3-.2.6-.4.8-.6-.9-.8-1.5-2-1.8-3.1z" style="fill:#ff6815"/><path d="M73.9 17.7c.3 1.2.9 2.3 1.9 3.1.3-.2.7-.4.9-.5-.8-.8-1.3-2.1-1.4-3.3-.5.2-1 .4-1.4.7zm2.4-1.1c.2 1.3.6 2.3 1.4 3.2.2-.1.3-.1.4-.1h.3c-.7-.9-.8-2.1-1.1-3.3-.3 0-.7.1-1 .2z" style="fill:#c75110"/><linearGradient id="e" x1="79.321" x2="100.399" y1="730.299" y2="727.942" gradientTransform="translate(0 -712.614)" gradientUnits="userSpaceOnUse"><stop offset="0" style="stop-color:#ff6815"/><stop offset=".995" style="stop-color:#ff9147"/></linearGradient><path d="M100.9 16.2s.2-2.7-1.1-2.6c-3.3.4-15.8 1.6-21.7 2.6-.2 0-.5.1-.7.1.3 1.2.4 2.4 1.1 3.3l21.7-2.5c.4 0 .7-.4.7-.9z" style="fill:url(#e)"/><path d="M75.3 17c.2 1.2.6 2.4 1.4 3.3.4-.2.8-.3 1-.4-.8-.9-1.3-1.9-1.4-3.2-.4 0-.7.1-1 .3z" style="fill:#ff6815"/><path d="M72.7 18.4c-.4.4-.8.7-1.2 1.1.5 1.1 1.5 2 2.6 2.5.2-.3.5-.5.8-.7-1.1-.5-1.6-1.8-2.2-2.9z" style="fill:#c75110"/><path d="m69.1 24.1-.8 2.1-.5 1.3c-.2.5.1 1 .6 1.1.8.2 1.8.2 2.6-.1.2-.1.4-.3.5-.5.2-.6.4-1.1.6-1.5.4-1.2.6-1.9.9-2.6v-.1c-1.1.1-2.4.2-3.9.3z" style="fill:#ff9961"/><g style="opacity:.2"><path d="M99.7 14.7c.1.3.2.9.2 1.5l-21.5 2.5h-.2c-.1 0-.2 0-.3.1-.1 0-.2.1-.5.2-.4.1-.7.3-1.1.5s-.7.4-1 .6c-.4.2-.7.4-.9.6-.3.3-.6.5-.9.8-.4.5-.8 1-1.1 1.5-.6.1-1.1.1-1.7.2l.1-.3v-.1s.4-1.2 1.5-2.5l1-1c.3-.2.7-.5 1.1-.7s.8-.4 1.3-.6l.9-.3c.3-.1.6-.2 1-.3.2 0 .4-.1.7-.1 5.6-.9 17.3-2.1 21.1-2.5l.3-.1m.2-1c-3.4.3-15.9 1.5-21.8 2.5-.2 0-.5.1-.7.1-.4.1-.7.2-1.1.3-.3.1-.7.2-1 .4-.5.2-1 .4-1.4.7-.4.2-.8.5-1.2.8-.4.4-.8.7-1.2 1.1-1.3 1.5-1.8 2.9-1.8 2.9l-.7 1.7c1.4-.1 2.7-.2 3.9-.3.3-.7.7-1.2 1.1-1.7.2-.3.5-.5.8-.7s.6-.4.8-.6c.3-.2.7-.4.9-.5.4-.2.8-.3 1-.4s.3-.1.4-.1h.3l21.7-2.5c.4 0 .8-.5.7-.9.3-.3.4-2.8-.7-2.8z" style="fill:#424242"/></g><linearGradient id="f" x1="63.224" x2="63.224" y1="742.623" y2="802.425" gradientTransform="translate(0 -712.614)" gradientUnits="userSpaceOnUse"><stop offset="0" style="stop-color:#ffe12e"/><stop offset=".545" style="stop-color:#ff7300"/><stop offset=".997" style="stop-color:red"/></linearGradient><path d="M71 29.3c-1.2.1-2.5.2-4 .2-1.2 0-2.4.1-3.7.1-7.9 0-13.1-.7-13.8-1.6 0 0 .5 15.2-2.7 26.7-2.4 8.5-6.3 17.8-.6 26.1 3.8 5.5 11.2 9.5 18 9.2 3.4-.2 6.8-1.8 9.7-3.5 2.8-1.6 5.1-3.8 6.8-6.6 4.9-7.9 1.5-17-1-25.2-3.6-12-2.8-26.4-2.9-26.3-.9.4-1.9.6-5.8.9z" style="fill:url(#f)"/><linearGradient id="g" x1="51.447" x2="51.447" y1="736.214" y2="799.014" gradientTransform="translate(0 -712.614)" gradientUnits="userSpaceOnUse"><stop offset="0" style="stop-color:#f6f9fe"/><stop offset=".995" style="stop-color:#fff;stop-opacity:0"/></linearGradient><path d="M51.7 23.6s3.2 15.9.2 24.8-8.6 23.9-4.4 30.6 8.7 7.4 8.7 7.4S52 78.3 54 64.9C56 51.6 58 32 56.2 24l-4.5-.4z" style="fill:url(#g)"/></svg>