<svg xmlns="http://www.w3.org/2000/svg" style="enable-background:new 0 0 128 128" viewBox="0 0 128 128" xml:space="preserve"><linearGradient id="a" x1="63.7" x2="63.7" y1="825.374" y2="836.494" gradientTransform="translate(0 -712.614)" gradientUnits="userSpaceOnUse"><stop offset="0" style="stop-color:#f2f3ed"/><stop offset="1" style="stop-color:#c8c6b9"/></linearGradient><ellipse cx="63.7" cy="118.2" rx="17.2" ry="5.5" style="fill:url(#a)"/><linearGradient id="b" x1="63.95" x2="63.95" y1="719.555" y2="829.574" gradientTransform="translate(0 -712.614)" gradientUnits="userSpaceOnUse"><stop offset="0" style="stop-color:#f2f3ed"/><stop offset=".76" style="stop-color:#c8c6b9"/><stop offset=".995" style="stop-color:#fffcec"/></linearGradient><path d="M103.4 10.5c-.9-2.1-18.1-3.8-39.3-3.8-21.3 0-39 1.7-39.6 3.8v.1c0 .3 33.1 38.8 35.1 45 2.3 6.9 2.5 14 2.3 28.3-.2 14.2-1.2 31.5-1.2 31.5s-.1 2.4 3 2.4c3.3 0 3-2.4 3-2.4s-1-17.3-1.2-31.5 0-21.3 2.3-28.3c2-6.2 35.6-44.7 35.6-45v-.1z" style="fill:url(#b)"/><linearGradient id="c" x1="63.8" x2="63.8" y1="730.746" y2="761.326" gradientTransform="translate(0 -712.614)" gradientUnits="userSpaceOnUse"><stop offset="0" style="stop-color:#e8ffa1"/><stop offset="1" style="stop-color:#9ba269"/></linearGradient><path d="M91.9 21.6c0-2.2-12.5-4-28-4-15.4 0-27.9 1.8-28 4h-.2S55 49.1 63.8 49.1c7.8 0 24.2-22.1 27.5-26.6.4-.3.6-.6.6-.9z" style="fill:url(#c)"/><ellipse cx="64.2" cy="10.6" rx="39.2" ry="5.6" style="fill:#fff"/><path d="M62.8 44.5s1.4-2.5 3.7-6.1c1.1-1.8 2.5-3.9 4-6.1.8-1.1 1.5-2.2 2.3-3.4.8-1.1 1.6-2.3 2.5-3.4.8-1.1 1.7-2.3 2.5-3.4s1.7-2.2 2.5-3.3c1.6-2.1 3.2-4.1 4.5-5.7 2.7-3.3 4.7-5.4 4.7-5.4s-1.4 2.5-3.7 6.1c-1.1 1.8-2.5 3.9-4 6.1-.8 1.1-1.5 2.2-2.3 3.4-.8 1.1-1.6 2.3-2.5 3.4-.8 1.1-1.7 2.3-2.5 3.4s-1.7 2.2-2.5 3.3c-1.6 2.1-3.2 4-4.5 5.7-2.7 3.3-4.6 5.4-4.7 5.4z" style="fill:#8c6239"/><ellipse cx="68.8" cy="33.09" rx="8.3" ry="6.9" style="fill:#81882d" transform="rotate(-12.683 68.802 33.086)"/><ellipse cx="77.31" cy="24.01" rx="6.2" ry="5.2" style="fill:#727724" transform="rotate(-12.683 77.31 24.004)"/><ellipse cx="67.42" cy="32.89" rx="4.2" ry="3.3" style="fill:#85471b" transform="rotate(-45.001 67.42 32.89)"/><ellipse cx="75.5" cy="23.73" rx="2.8" ry="2.3" style="fill:#85471b" transform="rotate(-45.001 75.498 23.735)"/><ellipse cx="63.9" cy="21.6" rx="28" ry="4" style="opacity:.52;fill:#e6eecb;enable-background:new"/><g style="opacity:.2"><path d="M64.2 8c18.7 0 30.5 1.8 34.9 3.2-.6.7-1.3 1.5-2.1 2.4-21.4 25.3-30.7 37.2-32 41.1-.5 1.5-.9 3-1.2 4.6-.3-1.6-.7-3.1-1.2-4.6-1.3-3.9-10.6-15.9-31.9-41.4-.6-.7-1.2-1.4-1.7-2.1C33.1 9.8 45.1 8 64.2 8m-.4 105.7c.4 1.2 1.4 2 2.7 2.1 5.7.3 9.4 1.5 10.9 2.4-1.6 1-6.1 2.5-13.7 2.5s-12.1-1.5-13.7-2.5c1.5-.9 5.3-2.1 11.1-2.4 1.2-.1 2.3-1 2.7-2.1M64.2 5C44.3 5 27.9 7.1 25.3 9.9c-.4.2-.7.4-.8.7v.1c0 .3 33.1 38.8 35.1 45 2.3 6.9 2.5 14 2.3 28.3-.2 10.8-.8 23.4-1.1 28.8-8.2.4-14.5 2.7-14.5 5.4 0 3 7.7 5.5 17.2 5.5s17.2-2.5 17.2-5.5c0-2.7-6.2-5-14.3-5.4-.3-5.4-.9-18-1.1-28.9-.2-14.2 0-21.3 2.3-28.3C69.7 50 97 18.3 102.5 11.8c.6-.4.9-.8.9-1.2v-.1C103.1 7.4 85.6 5 64.2 5z" style="fill:#424242"/></g></svg>