<svg xmlns="http://www.w3.org/2000/svg" viewBox="0 0 128 128"><linearGradient id="a" x1="64" x2="64" y1="-33" y2="74.671" gradientUnits="userSpaceOnUse"><stop offset=".348" stop-color="#1976D2"/><stop offset="1" stop-color="#0D47A1"/></linearGradient><path fill="url(#a)" d="M4 4h120v120H4z"/><radialGradient id="b" cx="65.978" cy="66.775" r="54.152" gradientTransform="matrix(-1.0236 0 0 -1 130.86 128.37)" gradientUnits="userSpaceOnUse"><stop offset=".188" stop-color="#FFF59D"/><stop offset="1" stop-color="#FFEE58"/></radialGradient><path fill="url(#b)" d="m14.6 113.3 35.99-35.41c.68-.69.14-1.84-.84-1.79l-36.59 1.84 38.27-9-40.05-22.05L51.87 61.6c.93.32 1.77-.64 1.32-1.49L30.12 18.65l28.68 37.8c.61.77 1.87.39 1.94-.59l2.34-50.64c.09-1.32 2.08-1.32 2.16 0l2.39 50.63c.06.97 1.32 1.35 1.94.58L98 19 75.19 60.09c-.45.85.4 1.8 1.32 1.49l22.01-7.53c1.4-.48 2.27 1.48.99 2.2L76.96 68.91l38.29 8.93-36.59-1.77c-.98-.05-1.52 1.1-.84 1.79l25.38 25.81-29.8-20.81c-.8-.56-1.88.13-1.7 1.07l7.05 35.02c0 .01-.01.02-.02.01l-14.5-35.62c0-.01-.02-.01-.02 0l-9.47 23.37c-.57 1.42-2.7.78-2.4-.72l4.4-22.05c.19-.94-.9-1.62-1.7-1.06L14.6 113.3z"/><path fill="#FFF9C4" d="M63.05 101.15c.3-2.45 1.92-6.77 1.92-6.77s1.83 4.2 2.18 6.77c.34 2.57-.92 3.85-2.05 3.85s-2.35-1.4-2.05-3.85zm-16.41-4.86c1.56-1.94 5.25-4.79 5.25-4.79s-.68 4.52-1.75 6.88c-1.08 2.36-2.84 2.82-3.8 2.24-.97-.57-1.26-2.39.3-4.33zM34.53 82.9c2.33-.96 6.97-1.7 6.97-1.7s-2.84 3.63-4.96 5.18c-2.12 1.56-3.88 1.12-4.44.15s.1-2.68 2.43-3.63zm-4.5-18.93c2.48.48 6.76 2.39 6.76 2.39s-4.43 1.46-7.07 1.6c-2.65.14-3.86-1.19-3.77-2.29.08-1.1 1.6-2.17 4.08-1.7zm9.08-17.53c1.81 1.72 4.33 5.6 4.33 5.6s-4.53-1.13-6.82-2.42-2.57-3.05-1.89-3.93c.69-.87 2.57-.97 4.38.75zM57 36.04c.43 2.43.13 7.02.13 7.02s-2.98-3.52-4.06-5.88-.24-3.95.84-4.26c1.09-.31 2.66.69 3.09 3.12zm19.95 1.1c-1.07 2.24-3.99 5.84-3.99 5.84s-.4-4.55.1-7.09 2.1-3.38 3.18-3.03c1.07.34 1.78 2.04.71 4.28zm16.34 12.93c-2.1 1.38-6.51 2.98-6.51 2.98s2.07-4.09 3.84-6.02 3.59-1.83 4.33-.99.44 2.65-1.66 4.03zm6.77 17.89c-2.53-.07-7.07-1.26-7.07-1.26s4.12-2.16 6.7-2.73c2.59-.56 4.01.55 4.11 1.65s-1.21 2.4-3.74 2.34zm-6.12 18.05c-2.11-1.36-5.32-4.73-5.32-4.73s4.66.29 7.16 1.15 3.11 2.54 2.59 3.52c-.5.99-2.33 1.42-4.43.06zM80.32 97.89c-.88-2.31-1.45-6.88-1.45-6.88s3.59 2.92 5.1 5.05c1.5 2.13.98 3.84-.02 4.34-1.02.5-2.75-.2-3.63-2.51z"/><circle cx="31" cy="19.33" r="8" fill="#fff"/><circle cx="10" cy="46.33" r="5" fill="#fff"/><circle cx="14" cy="77.33" r="5" fill="#fff"/><circle cx="16" cy="112.33" r="7" fill="#fff"/><circle cx="53" cy="109.33" r="5" fill="#fff"/><circle cx="79" cy="118.33" r="5" fill="#fff"/><circle cx="106.17" cy="105.5" r="8" fill="#fff"/><circle cx="116" cy="78.33" r="5" fill="#fff"/><circle cx="106.67" cy="52.67" r="7.67" fill="#fff"/><circle cx="97" cy="21.33" r="5" fill="#fff"/><path fill="#424242" d="M121 7v114H7V7h114m3-3H4v120h120V4z" opacity=".2"/></svg>