<svg xmlns="http://www.w3.org/2000/svg" viewBox="0 0 128 128"><path fill="#6D4C41" d="M71.43 124.17H56.77c-2.17 0-3.62-2.23-2.75-4.21l4.88-11.09a3.003 3.003 0 0 1 2.75-1.79h4.87c1.19 0 2.26.7 2.74 1.78l4.91 11.09c.88 1.98-.57 4.22-2.74 4.22z"/><path fill="#424242" d="m66.52 110.08 4.91 11.09H56.76l4.88-11.09h4.88m1.95-3h-8.78l-5.67 12.88c-.87 1.98.58 4.21 2.75 4.21h14.67c2.17 0 3.62-2.23 2.74-4.22l-5.71-12.87z" opacity=".2"/><path fill="#2E7D32" d="M64.09 116.01c-54.67 0-52.56-8.29-51.46-9.83a81.072 81.072 0 0 0 19.74-23.66l.53-.96c.44-.62 1.15-.98 1.91-.98l59.52.11c.76 0 1.48.38 1.91 1.01a80.49 80.49 0 0 0 19.66 24.5l.01.01c1.05 1.54 2.85 9.8-51.82 9.8z"/><path fill="#388E3C" d="M64 90.29c-45.1 0-44.84-7.77-43.74-9.31a106.62 106.62 0 0 0 21.81-25.71l3.22-5.32a2.33 2.33 0 0 1 1.88-.98l33.81-.21c.76 0 1.47.36 1.91.97l3.24 5.31c5.94 9.75 13.38 18.5 22.05 25.93 1.09 1.55.92 9.32-44.18 9.32z"/><path fill="#43A047" d="M63.9 65.9c-36.92 0-36.65-6.78-35.27-8.43 8.51-5.54 15.81-12.64 21.5-20.89l1.23-1.78c.49-.59 1.23-.93 2.02-.93h21.6c.78 0 1.52.34 2.02.93l.81 1.2C83.58 44.47 91 51.77 99.66 57.48c1.38 1.64 1.15 8.42-35.76 8.42z"/><path fill="#4CAF50" d="M64.04 44.14c-25.64 0-28.72-5.03-27.33-6.6 9.13-5.71 16.88-12.83 22.82-20.99l2.45-3.36c1.13-1.27 3.39-1.27 4.53 0l1.22 1.7c6.29 8.76 14.49 16.45 24.16 22.65 1.39 1.57-2.21 6.6-27.85 6.6z"/><path fill="#424242" d="M64.24 15.24h.04l1 1.4c5.97 8.32 13.5 15.62 22.41 21.72-1.04.44-2.69.98-5.25 1.46-1.05.2-1.92.94-2.27 1.95a2.99 2.99 0 0 0 .55 2.95 82.209 82.209 0 0 0 15.61 14.14c-.78.49-2.28 1.18-5.09 1.86-.98.24-1.78.95-2.12 1.9s-.18 2.01.42 2.81c4.57 6.1 9.72 11.7 15.35 16.68-.77.57-2.48 1.48-6.1 2.39-.93.23-1.7.9-2.05 1.79-.36.89-.27 1.9.25 2.72a83.635 83.635 0 0 0 15.77 18.47c-1.97 1.47-10.84 5.53-48.68 5.53-37.65 0-46.43-4.04-48.38-5.49a83.61 83.61 0 0 0 16.1-18.3c.53-.82.63-1.84.27-2.75a3 3 0 0 0-2.09-1.81c-3.96-.94-5.76-1.92-6.53-2.5 5.61-4.97 10.76-10.57 15.3-16.66a2.999 2.999 0 0 0-1.72-4.71c-2.89-.68-4.4-1.39-5.17-1.88a80.581 80.581 0 0 0 15.77-14.18c.69-.81.9-1.94.55-2.94a3.005 3.005 0 0 0-2.27-1.95c-2.47-.47-4.06-.98-5.07-1.41 8.38-5.63 15.47-12.38 21.11-20.12l2.24-3.08c.02.01.04.01.05.01m0-3c-.85 0-1.7.32-2.26.95l-2.45 3.36c-5.95 8.16-13.69 15.29-22.82 20.99-.93 1.05.15 3.65 8.65 5.25a78.25 78.25 0 0 1-16.72 14.68c-.87 1.03-1.29 4.11 7.72 6.24-4.71 6.32-10.1 12.12-16.1 17.27-.67.94-1.03 4.2 9.05 6.6-4.56 7.01-10.17 13.3-16.68 18.6-1.09 1.54-3.2 9.83 51.46 9.83 54.67 0 52.87-8.26 51.8-9.81l-.01-.01A80.362 80.362 0 0 1 99.53 87.4c9.5-2.38 9.29-5.51 8.64-6.43a108.7 108.7 0 0 1-16.21-17.35c8.79-2.13 8.56-5.13 7.7-6.15A79.344 79.344 0 0 1 83 42.77c8.52-1.61 9.81-4.18 8.88-5.23-9.67-6.2-17.87-13.89-24.16-22.65l-1.22-1.7c-.56-.64-1.41-.95-2.26-.95z" opacity=".2"/><path fill="#FFEB3B" d="m65.37 5.12 2.21 4.48c.19.39.56.66.99.72l4.95.72c1.08.16 1.51 1.49.73 2.25l-3.58 3.49c-.31.3-.45.74-.38 1.17l.85 4.93c.18 1.08-.95 1.9-1.91 1.39l-4.43-2.33c-.38-.2-.84-.2-1.23 0l-4.43 2.33c-.97.51-2.1-.31-1.91-1.39l.85-4.93c.07-.43-.07-.86-.38-1.17l-3.58-3.49c-.78-.76-.35-2.09.73-2.25l4.95-.72c.43-.06.8-.33.99-.72L63 5.12c.49-.98 1.89-.98 2.37 0z"/><path fill="#424242" d="m64.19 7.24 1.6 3.24c.48.98 1.42 1.66 2.5 1.81l3.58.52-2.59 2.52c-.78.76-1.14 1.86-.95 2.94l.61 3.57-3.2-1.68a3.31 3.31 0 0 0-3.08 0l-3.2 1.68.61-3.57c.18-1.08-.17-2.17-.95-2.94l-2.59-2.52 3.58-.52c1.08-.16 2.01-.84 2.5-1.81l1.58-3.24m0-2.86c-.47 0-.94.24-1.18.73L60.8 9.6a1.3 1.3 0 0 1-.99.72l-4.95.72c-1.08.16-1.51 1.49-.73 2.25l3.58 3.49c.31.3.45.74.38 1.17l-.85 4.93c-.15.85.53 1.54 1.3 1.54.2 0 .41-.05.61-.15l4.43-2.33a1.31 1.31 0 0 1 1.22 0l4.43 2.33a1.321 1.321 0 0 0 1.91-1.39l-.85-4.93c-.07-.43.07-.86.38-1.17l3.58-3.49c.78-.76.35-2.09-.73-2.25l-4.95-.72a1.3 1.3 0 0 1-.99-.72l-2.21-4.48c-.24-.49-.71-.74-1.18-.74z" opacity=".2"/><circle cx="85.42" cy="76.08" r="5" fill="#F44336"/><path fill="#424242" d="M85.42 73.08c1.65 0 3 1.35 3 3s-1.35 3-3 3-3-1.35-3-3 1.34-3 3-3m0-2c-2.76 0-5 2.24-5 5s2.24 5 5 5 5-2.24 5-5-2.24-5-5-5z" opacity=".2"/><circle cx="45.42" cy="76.08" r="5" fill="#F44336"/><path fill="#424242" d="M45.42 73.08c1.65 0 3 1.35 3 3s-1.35 3-3 3-3-1.35-3-3 1.34-3 3-3m0-2c-2.76 0-5 2.24-5 5s2.24 5 5 5 5-2.24 5-5-2.24-5-5-5z" opacity=".2"/><circle cx="53.42" cy="99.08" r="5" fill="#F44336"/><path fill="#424242" d="M53.42 96.08c1.65 0 3 1.35 3 3s-1.35 3-3 3-3-1.35-3-3 1.34-3 3-3m0-2c-2.76 0-5 2.24-5 5s2.24 5 5 5 5-2.24 5-5-2.24-5-5-5z" opacity=".2"/><circle cx="62.42" cy="53.08" r="5" fill="#F44336"/><path fill="#424242" d="M62.42 50.08c1.65 0 3 1.35 3 3s-1.35 3-3 3-3-1.35-3-3 1.34-3 3-3m0-2c-2.76 0-5 2.24-5 5s2.24 5 5 5 5-2.24 5-5-2.24-5-5-5z" opacity=".2"/><circle cx="71.42" cy="35.08" r="4" fill="#F44336"/><path fill="#424242" d="M71.42 33.08c1.1 0 2 .9 2 2s-.9 2-2 2-2-.9-2-2 .89-2 2-2m0-2c-2.21 0-4 1.79-4 4s1.79 4 4 4 4-1.79 4-4-1.79-4-4-4z" opacity=".2"/><circle cx="74.42" cy="105.08" r="4" fill="#F44336"/><path fill="#424242" d="M74.42 103.08c1.1 0 2 .9 2 2s-.9 2-2 2-2-.9-2-2 .89-2 2-2m0-2c-2.21 0-4 1.79-4 4s1.79 4 4 4 4-1.79 4-4-1.79-4-4-4z" opacity=".2"/><circle cx="47.42" cy="58.08" r="4" fill="#FFEE58"/><path fill="#424242" d="M47.42 56.08c1.1 0 2 .9 2 2s-.9 2-2 2-2-.9-2-2 .89-2 2-2m0-2c-2.21 0-4 1.79-4 4s1.79 4 4 4 4-1.79 4-4-1.79-4-4-4z" opacity=".2"/><circle cx="66.42" cy="82.08" r="4" fill="#FFEB3B"/><path fill="#424242" d="M66.42 80.08c1.1 0 2 .9 2 2s-.9 2-2 2-2-.9-2-2 .89-2 2-2m0-2c-2.21 0-4 1.79-4 4s1.79 4 4 4 4-1.79 4-4-1.79-4-4-4z" opacity=".2"/><circle cx="91.42" cy="97.08" r="4" fill="#FFEB3B"/><path fill="#424242" d="M91.42 95.08c1.1 0 2 .9 2 2s-.9 2-2 2-2-.9-2-2 .89-2 2-2m0-2c-2.21 0-4 1.79-4 4s1.79 4 4 4 4-1.79 4-4-1.79-4-4-4z" opacity=".2"/><circle cx="34.42" cy="103.08" r="4" fill="#FFEB3B"/><path fill="#424242" d="M34.42 101.08c1.1 0 2 .9 2 2s-.9 2-2 2-2-.9-2-2 .89-2 2-2m0-2c-2.21 0-4 1.79-4 4s1.79 4 4 4 4-1.79 4-4-1.79-4-4-4z" opacity=".2"/><circle cx="80.42" cy="58.08" r="4" fill="#FFEE58"/><path fill="#424242" d="M80.42 56.08c1.1 0 2 .9 2 2s-.9 2-2 2-2-.9-2-2 .89-2 2-2m0-2c-2.21 0-4 1.79-4 4s1.79 4 4 4 4-1.79 4-4-1.79-4-4-4z" opacity=".2"/><circle cx="56.42" cy="36.08" r="4" fill="#FFEE58"/><path fill="#424242" d="M56.42 34.08c1.1 0 2 .9 2 2s-.9 2-2 2-2-.9-2-2 .89-2 2-2m0-2c-2.21 0-4 1.79-4 4s1.79 4 4 4 4-1.79 4-4-1.79-4-4-4z" opacity=".2"/></svg>