<svg xmlns="http://www.w3.org/2000/svg" viewBox="0 0 128 128"><path fill="#424242" d="M22.03 100H15.1c-.64 0-1.16-.43-1.16-1s.52-1 1.16-1h6.93c.64 0 1.16.43 1.16 1s-.52 1-1.16 1z"/><path fill="#424242" d="M31.72 106.39c-.2 0-.39-.06-.57-.17L20.8 99.28c-.29-.2-.46-.53-.45-.88s.2-.67.51-.85l10.47-6.14c.49-.29 1.11-.12 1.4.36.29.49.12 1.11-.36 1.4l-9.06 5.32 9 6.03c.47.31.59.95.28 1.42-.22.29-.54.45-.87.45zM22.01 51h-7.09c-.65 0-1.18-.43-1.18-1s.53-1 1.18-1h7.09c.65 0 1.18.43 1.18 1s-.53 1-1.18 1z"/><path fill="#424242" d="M31.72 58.34c-.2 0-.39-.06-.57-.17L20.8 51.23c-.29-.2-.46-.53-.45-.88s.2-.67.51-.85l10.47-6.14a1.022 1.022 0 0 1 1.04 1.76l-9.06 5.32 9 6.03c.47.31.59.95.28 1.42-.22.3-.54.45-.87.45z"/><path fill="#1565C0" d="M84.14 29.33c-10.22-2.7-20.6.07-20.6 6.94l35.38 6.17c0 .01-2.65-9.91-14.78-13.11z"/><path fill="none" stroke="#90CAF9" stroke-linecap="round" stroke-linejoin="round" stroke-miterlimit="10" stroke-width="2" d="M70 33v3m6-4v5m8-4v5m6-3v7"/><path fill="#fff" d="m43.28 37.7-14.97 4.36v17.56l20.94 5.73c-4.98-6.99-7.13-17.93-5.97-27.65z"/><path fill="#0288D1" d="m121.64 42.96.99-3.45c.4-1.63-.83-3.11-1.96-2.36l-5.46 3c-4.8 3.18-10.34 3.42-15.29.71-3.94-2.15-12.94-4.5-18.7-5.72-12.27-2.59-26.42 0-26.42 0L43.28 37.7c-1.16 9.72 1 20.66 5.98 27.64l5.08 1.15s13.68 1.62 26.65 0c6.04-.75 15.09-3.05 19-5.28 5.03-2.87 10.7-2.72 15.61.53l4.15 2.76c1.12.75 2.35-.72 2.91-2.35l-1.06-3.79c-1.39-4.96-1.37-10.45.04-15.4z"/><path fill="#fff" d="M61.68 47.69c-.14-3.64-.63-9.39-2.31-13.02-1.47 0-3.6.42-3.6.42 1.22.86 2.55 5.08 2.84 12.74.32 8.64-.67 16.6-2.69 18.82 1.43.17 1.89.17 3.23.17 2.26-5.12 2.73-13.75 2.53-19.13z"/><ellipse cx="50.88" cy="46.4" fill="#fff" rx="4.72" ry="5.79"/><ellipse cx="49.89" cy="46.64" fill="none" stroke="#E53935" stroke-miterlimit="10" rx="2.88" ry="3.54"/><ellipse cx="49.24" cy="47.45" fill="#424242" rx="1.57" ry="1.93"/><path fill="#E3F2FD" d="m65.6 36.84-.6.01v7.71l.6.01c1.74 0 3.15-1.73 3.15-3.86 0-2.14-1.41-3.87-3.15-3.87z"/><path fill="#BBDEFB" d="m67.62 46.1-.62.01v7.71l.62.01c1.74 0 3.15-1.73 3.15-3.86 0-2.14-1.41-3.87-3.15-3.87zm-2.02 9.26-.6.01v7.71l.6.01c1.74 0 3.15-1.73 3.15-3.86 0-2.14-1.41-3.87-3.15-3.87z"/><path fill="#E3F2FD" d="M79.29 46.1c-.05 0-.29.01-.29.01v7.71s.23.01.29.01c1.74 0 3.15-1.73 3.15-3.86 0-2.14-1.41-3.87-3.15-3.87z"/><path fill="#BBDEFB" d="M77.26 55.36c-.05 0-.26.01-.26.01v7.71s.21.01.26.01c1.74 0 3.15-1.73 3.15-3.86 0-2.14-1.41-3.87-3.15-3.87z"/><path fill="#E3F2FD" d="M88.42 41.47c-.05 0-.42.01-.42.01v7.71s.37.01.42.01c1.74 0 3.15-1.73 3.15-3.86 0-2.14-1.41-3.87-3.15-3.87z"/><path fill="#BBDEFB" d="M96.2 47.26c-.05 0-.2.01-.2.01v7.71s.15.01.2.01c1.74 0 3.15-1.73 3.15-3.86 0-2.14-1.41-3.87-3.15-3.87z"/><path fill="#E3F2FD" d="M103.97 47.26c-.05 0 .03.01.03.01v7.71s-.08.01-.03.01c1.74 0 3.15-1.73 3.15-3.86 0-2.14-1.41-3.87-3.15-3.87z"/><path fill="none" stroke="#90CAF9" stroke-linecap="round" stroke-linejoin="round" stroke-miterlimit="10" stroke-width="2" d="m109.38 47.21 7.31-2.8m-7.31 9.51 7.3 2.84M109 51h5"/><path fill="#1976D2" d="M36.02 51.9c-.28-1.4-1.06-2.33-1.86-2.06-.64.21-.94.64-1.13 1.68-.25 1.38 1.18 7.43 5.74 7.91 3.1.33 3.27-5.49 3.27-5.49s-.75 4.43-2.95 3.75c-1.73-.53-2.52-2.99-3.07-5.79z"/><path fill="#424242" d="M76.47 30.31c2.32 0 4.79.33 7.15.95 7.55 1.99 11.04 6.84 12.45 9.55.22.42.57.74 1.01.93.77.32 1.4.61 1.88.88 2.56 1.4 5.27 2.11 8.03 2.11 3.2 0 6.4-.99 9.25-2.87l4.31-2.37-.83 2.91c-1.52 5.31-1.53 11.17-.05 16.5l.87 3.13c-.08.17-.17.32-.25.43l-3.59-2.39c-2.86-1.9-6.08-2.91-9.31-2.91-2.9 0-5.72.78-8.4 2.3-3.64 2.08-12.54 4.32-18.26 5.03-3.74.47-7.92.7-12.43.7-7.13 0-12.83-.6-13.64-.69l-5.09-1.11L30 58.09V43.56l13.62-3.92 11.5-2.53c.38-.07 3.99-.68 8.87-.96.8-.05 1.51-.56 1.78-1.31 1-2.76 5.21-4.53 10.7-4.53m0-2c-6.1 0-11.19 2.06-12.56 5.84-5.33.31-9.1 1-9.1 1L43.12 37.7 28 42.06v17.56l21.1 5.73 5.16 1.15s6.12.72 14.02.72c3.95 0 8.37-.18 12.69-.72 6.04-.75 15.1-3.05 19.01-5.28 2.37-1.36 4.9-2.04 7.41-2.04 2.81 0 5.62.85 8.2 2.57l4.15 2.76c.21.14.42.2.63.2.93 0 1.83-1.22 2.28-2.55l-1.06-3.79c-1.39-4.97-1.37-10.46.04-15.41l.99-3.45c.32-1.33-.44-2.56-1.34-2.56-.2 0-.41.06-.62.2l-5.46 3c-2.59 1.72-5.4 2.58-8.21 2.58-2.4 0-4.8-.62-7.07-1.87-.58-.32-1.29-.64-2.07-.97-1.64-3.16-5.5-8.4-13.71-10.56-2.61-.69-5.22-1.02-7.67-1.02z" opacity=".2"/><path fill="#BDBDBD" d="M10 9h6v115h-6z"/><path fill="#424242" d="M14 11v111h-2V11h2m2-2h-6v115h6V9z" opacity=".2"/><circle cx="13.45" cy="9" r="5" fill="#FDD835"/><path fill="#FDD835" d="M13.14 16.34c-5.05 0-9.14 4.1-9.14 9.14 0 5.05 4.09 9.14 9.14 9.14s9.14-4.09 9.14-9.14c0-5.04-4.09-9.14-9.14-9.14zM20.12 24h-4.83l2.91-3.55c.95.96 1.63 2.18 1.92 3.55zM7.7 30.1A7.097 7.097 0 0 1 6.03 26h5.04L7.7 30.1zm8.9-10.86-3.31 4.04-3.33-4.18a7.073 7.073 0 0 1 6.64.14zm-8.29 1 3 3.76H6.16a7.132 7.132 0 0 1 2.15-3.76zm.88 11.19 4.07-4.97 3.91 4.9a7.114 7.114 0 0 1-4.04 1.26c-1.45 0-2.8-.44-3.94-1.19zm9.47-1.42L15.46 26h4.8c-.11 1.52-.69 2.9-1.6 4.01z"/><path fill="#424242" d="M13.45 6c1.65 0 3 1.35 3 3s-1.35 3-3 3-3-1.35-3-3 1.35-3 3-3m0-2c-2.76 0-5 2.24-5 5s2.24 5 5 5 5-2.24 5-5-2.24-5-5-5z" opacity=".2"/><path fill="#C62828" d="M84.14 77.37c-10.22-2.7-20.6.07-20.6 6.94l35.38 6.17c0 .01-2.65-9.9-14.78-13.11z"/><path fill="none" stroke="#EF9A9A" stroke-linecap="round" stroke-linejoin="round" stroke-miterlimit="10" stroke-width="2" d="M70 81v3m6-4v5m8-4v5m6-3v7"/><path fill="#fff" d="M43.28 85.74 28.31 90.1v17.56l20.94 5.73c-4.98-6.98-7.13-17.93-5.97-27.65z"/><path fill="#E53935" d="m121.64 91 .99-3.45c.4-1.63-.83-3.11-1.96-2.36l-5.46 3c-4.8 3.18-10.34 3.42-15.29.71-3.94-2.15-12.94-4.5-18.7-5.72-12.27-2.59-26.42 0-26.42 0l-11.53 2.55c-1.16 9.72 1 20.66 5.98 27.64l5.08 1.15s13.68 1.62 26.65 0c6.04-.75 15.09-3.05 19-5.28 5.03-2.87 10.7-2.72 15.61.53l4.15 2.76c1.12.75 2.35-.72 2.91-2.35l-1.06-3.79c-1.38-4.94-1.36-10.44.05-15.39z"/><path fill="#fff" d="M61.68 95.74c-.14-3.64-.63-9.39-2.31-13.02-1.47 0-3.6.42-3.6.42 1.22.86 2.55 5.08 2.84 12.74.32 8.64-.67 16.6-2.69 18.82 1.43.17 1.89.17 3.23.17 2.26-5.13 2.73-13.75 2.53-19.13z"/><ellipse cx="50.88" cy="94.45" fill="#fff" rx="4.72" ry="5.79"/><ellipse cx="49.89" cy="94.69" fill="none" stroke="#0288D1" stroke-miterlimit="10" rx="2.88" ry="3.54"/><ellipse cx="49.24" cy="95.49" fill="#424242" rx="1.57" ry="1.93"/><path fill="#FFEBEE" d="m65.6 84.89-.6.01v7.71l.6.01c1.74 0 3.15-1.73 3.15-3.86 0-2.14-1.41-3.87-3.15-3.87z"/><path fill="#FFCDD2" d="m67.62 94.15-.62.01v7.71l.62.01c1.74 0 3.15-1.73 3.15-3.86 0-2.14-1.41-3.87-3.15-3.87zm-2.02 9.26-.6.01v7.71l.6.01c1.74 0 3.15-1.73 3.15-3.86 0-2.14-1.41-3.87-3.15-3.87z"/><path fill="#FFEBEE" d="M79.29 94.15c-.05 0-.29.01-.29.01v7.71s.23.01.29.01c1.74 0 3.15-1.73 3.15-3.86 0-2.14-1.41-3.87-3.15-3.87z"/><path fill="#FFCDD2" d="M77.26 103.41c-.05 0-.26.01-.26.01v7.71s.21.01.26.01c1.74 0 3.15-1.73 3.15-3.86 0-2.14-1.41-3.87-3.15-3.87z"/><path fill="#FFEBEE" d="M88.42 89.52c-.05 0-.42.01-.42.01v7.71s.37.01.42.01c1.74 0 3.15-1.73 3.15-3.86 0-2.14-1.41-3.87-3.15-3.87z"/><path fill="#FFCDD2" d="M96.2 95.3c-.05 0-.2.01-.2.01v7.71s.15.01.2.01c1.74 0 3.15-1.73 3.15-3.86 0-2.14-1.41-3.87-3.15-3.87z"/><path fill="#FFEBEE" d="M103.97 95.3c-.05 0 .03.01.03.01v7.71s-.08.01-.03.01c1.74 0 3.15-1.73 3.15-3.86 0-2.14-1.41-3.87-3.15-3.87z"/><path fill="none" stroke="#EF9A9A" stroke-linecap="round" stroke-linejoin="round" stroke-miterlimit="10" stroke-width="2" d="m109.38 95.26 7.31-2.81m-7.31 9.51 7.3 2.84M109 99h5"/><path fill="#E53935" d="M36.02 99.95c-.28-1.4-1.06-2.33-1.86-2.06-.64.21-.94.64-1.13 1.68-.25 1.38 1.18 7.43 5.74 7.91 3.1.33 3.27-5.49 3.27-5.49s-.75 4.43-2.95 3.75c-1.73-.54-2.52-3-3.07-5.79z"/><path fill="#424242" d="M76.47 78.35c2.32 0 4.79.33 7.15.95 7.55 1.99 11.04 6.84 12.45 9.55.22.42.57.74 1.01.93.77.32 1.4.61 1.88.88 2.56 1.4 5.27 2.11 8.03 2.11 3.2 0 6.4-.99 9.25-2.87l4.31-2.37-.83 2.91c-1.52 5.31-1.53 11.17-.05 16.5l.87 3.13c-.08.17-.17.32-.25.43l-3.59-2.39c-2.86-1.9-6.08-2.91-9.31-2.91-2.9 0-5.72.78-8.4 2.3-3.64 2.08-12.54 4.32-18.26 5.03-3.74.47-7.92.7-12.43.7-7.13 0-12.83-.6-13.64-.69l-5.09-1.11L30 106.14V91.61l13.62-3.92 11.5-2.53c.38-.07 3.99-.68 8.87-.96.8-.05 1.51-.56 1.78-1.31 1-2.76 5.21-4.54 10.7-4.54m0-2c-6.1 0-11.19 2.06-12.56 5.84-5.33.31-9.1 1-9.1 1l-11.69 2.55L28 90.11v17.56l21.1 5.73 5.16 1.15s6.12.72 14.02.72c3.95 0 8.37-.18 12.69-.72 6.04-.75 15.1-3.05 19.01-5.28 2.37-1.36 4.9-2.04 7.41-2.04 2.81 0 5.62.85 8.2 2.57l4.15 2.76c.21.14.42.2.63.2.93 0 1.83-1.22 2.28-2.55l-1.06-3.79c-1.39-4.97-1.37-10.46.04-15.41l.99-3.45c.32-1.33-.44-2.56-1.34-2.56-.2 0-.41.06-.62.2l-5.46 3c-2.59 1.72-5.4 2.58-8.21 2.58-2.4 0-4.8-.62-7.07-1.87-.58-.32-1.29-.64-2.07-.97-1.64-3.16-5.5-8.4-13.71-10.56-2.61-.69-5.22-1.03-7.67-1.03z" opacity=".2"/></svg>