<svg xmlns="http://www.w3.org/2000/svg" viewBox="0 0 128 128"><radialGradient id="a" cx="64.5" cy="11.333" r="130.92" gradientUnits="userSpaceOnUse"><stop offset="0" stop-color="#CFD8DC"/><stop offset=".194" stop-color="#CBD4D9"/><stop offset=".403" stop-color="#BECACF"/><stop offset=".618" stop-color="#A8B8C0"/><stop offset=".8" stop-color="#90A4AE"/><stop offset="1" stop-color="#90A4AE"/></radialGradient><path fill="url(#a)" d="M112 124H16c-6.6 0-12-5.4-12-12V16C4 9.4 9.4 4 16 4h96c6.6 0 12 5.4 12 12v96c0 6.6-5.4 12-12 12z"/><path fill="#424242" d="M112 7c4.96 0 9 4.04 9 9v96c0 4.96-4.04 9-9 9H16c-4.96 0-9-4.04-9-9V16c0-4.96 4.04-9 9-9h96m0-3H16C9.4 4 4 9.4 4 16v96c0 6.6 5.4 12 12 12h96c6.6 0 12-5.4 12-12V16c0-6.6-5.4-12-12-12z" opacity=".2"/><path fill="#ECEFF1" d="M62.09 27.87c.13-.49.06-1-.19-1.43a1.91 1.91 0 0 0-1.17-.89 1.86 1.86 0 0 0-1.44.2l-2.13 1.22c-.44.25-.76.66-.89 1.15s-.06 1 .19 1.44c.34.59.97.95 1.65.95.34 0 .67-.09.95-.25l2.13-1.22c.45-.27.77-.68.9-1.17zm-10.81-12c-.91-.52-2.08-.21-2.6.69l-1.23 2.12c-.52.91-.21 2.07.7 2.59.29.17.62.26.95.26.68 0 1.31-.36 1.65-.95l1.23-2.12c.52-.91.21-2.07-.7-2.59zm-26.4.69c-.25-.44-.66-.76-1.16-.89a1.9 1.9 0 0 0-1.44.19c-.44.25-.76.66-.89 1.15s-.06 1 .19 1.44l1.23 2.12c.34.59.97.95 1.65.95.33 0 .66-.09.95-.25.44-.25.76-.66.89-1.15s.06-1-.19-1.44l-1.23-2.12zm-8.48 10.4-2.14-1.23c-.91-.52-2.08-.21-2.6.7s-.21 2.07.7 2.59l2.13 1.22a1.902 1.902 0 0 0 2.61-.69c.52-.91.21-2.07-.7-2.59zM36.78 12c-1.05 0-1.91.85-1.91 1.9v2.45c0 1.05.86 1.9 1.91 1.9s1.9-.85 1.9-1.9V13.9c.01-1.05-.85-1.9-1.9-1.9z"/><path fill="#CFD8DC" d="M54.61 25.01c-.32 0-.65-.12-.89-.37a1.25 1.25 0 0 1 0-1.77l1.78-1.77c.49-.49 1.29-.49 1.78 0s.49 1.28 0 1.77l-1.78 1.77c-.24.25-.57.37-.89.37zm-11.3-6.49c-.11 0-.22-.02-.33-.04-.67-.18-1.07-.87-.89-1.54l.65-2.42c.18-.67.88-1.05 1.55-.89.67.18 1.07.87.89 1.54l-.65 2.42c-.16.55-.67.93-1.22.93zm-13.06 0c-.56 0-1.07-.37-1.22-.93l-.65-2.42c-.18-.67.22-1.36.89-1.54.68-.17 1.36.22 1.55.89l.65 2.42c.18.67-.22 1.36-.89 1.54-.11.02-.22.04-.33.04zm-11.3 6.49c-.32 0-.65-.12-.89-.37l-1.78-1.77c-.49-.49-.49-1.28 0-1.77s1.29-.49 1.78 0l1.78 1.77c.49.49.49 1.28 0 1.77-.24.25-.57.37-.89.37z"/><path fill="#ECEFF1" d="M116.31 27.87c.13-.49.06-1-.19-1.43a1.91 1.91 0 0 0-1.17-.89 1.86 1.86 0 0 0-1.44.2l-2.13 1.22c-.44.25-.76.66-.89 1.15s-.06 1 .19 1.44c.34.59.97.95 1.65.95.34 0 .67-.09.95-.25l2.13-1.22c.45-.27.77-.68.9-1.17zm-10.81-12c-.91-.52-2.08-.21-2.6.69l-1.23 2.12c-.52.91-.21 2.07.7 2.59.29.17.62.26.95.26.68 0 1.31-.36 1.65-.95l1.23-2.12c.52-.91.21-2.07-.7-2.59zm-26.4.69c-.25-.44-.66-.76-1.16-.89a1.9 1.9 0 0 0-1.44.19c-.44.25-.76.66-.89 1.15s-.06 1 .19 1.44l1.23 2.12c.34.59.97.95 1.65.95.33 0 .66-.09.95-.25.44-.25.76-.66.89-1.15s.06-1-.19-1.44l-1.23-2.12zm-8.48 10.4-2.14-1.23c-.91-.52-2.08-.21-2.6.7s-.21 2.07.7 2.59l2.13 1.22a1.902 1.902 0 0 0 2.61-.69c.52-.91.21-2.07-.7-2.59zM91 12c-1.05 0-1.91.85-1.91 1.9v2.45c0 1.05.86 1.9 1.91 1.9s1.9-.85 1.9-1.9V13.9c.01-1.05-.85-1.9-1.9-1.9z"/><path fill="#CFD8DC" d="M108.83 25.01c-.32 0-.65-.12-.89-.37a1.25 1.25 0 0 1 0-1.77l1.78-1.77c.49-.49 1.29-.49 1.78 0s.49 1.28 0 1.77l-1.78 1.77c-.24.25-.57.37-.89.37zm-11.3-6.49c-.11 0-.22-.02-.33-.04-.67-.18-1.07-.87-.89-1.54l.65-2.42c.18-.67.88-1.05 1.55-.89.67.18 1.07.87.89 1.54l-.65 2.42c-.16.55-.67.93-1.22.93zm-13.06 0c-.56 0-1.07-.37-1.22-.93l-.65-2.42c-.18-.67.22-1.36.89-1.54.68-.17 1.36.22 1.55.89l.65 2.42c.18.67-.22 1.36-.89 1.54-.11.02-.22.04-.33.04zm-11.3 6.49c-.32 0-.65-.12-.89-.37l-1.78-1.77c-.49-.49-.49-1.28 0-1.77s1.29-.49 1.78 0l1.78 1.77c.49.49.49 1.28 0 1.77-.25.25-.57.37-.89.37z"/><path fill="#ECEFF1" d="M62.09 83.31c.13-.49.06-1-.19-1.43a1.91 1.91 0 0 0-1.17-.89 1.86 1.86 0 0 0-1.44.2l-2.13 1.22c-.44.25-.76.66-.89 1.15s-.06 1 .19 1.44c.34.59.97.95 1.65.95.34 0 .67-.09.95-.25l2.13-1.22c.45-.27.77-.68.9-1.17zm-10.81-12c-.91-.52-2.08-.21-2.6.69l-1.23 2.12c-.52.91-.21 2.07.7 2.59.29.17.62.26.95.26.68 0 1.31-.36 1.65-.95l1.23-2.12c.52-.91.21-2.07-.7-2.59zm-26.4.7c-.25-.44-.66-.76-1.16-.89a1.9 1.9 0 0 0-1.44.19c-.44.25-.76.66-.89 1.15s-.06 1 .19 1.44l1.23 2.12c.34.59.97.95 1.65.95.33 0 .66-.09.95-.25.44-.25.76-.66.89-1.15s.06-1-.19-1.44l-1.23-2.12zM16.4 82.4l-2.14-1.23c-.91-.52-2.08-.21-2.6.7s-.21 2.07.7 2.59l2.13 1.22a1.902 1.902 0 0 0 2.61-.69c.52-.9.21-2.06-.7-2.59zm20.38-14.96c-1.05 0-1.91.85-1.91 1.9v2.45c0 1.05.86 1.9 1.91 1.9s1.9-.85 1.9-1.9v-2.45c.01-1.05-.85-1.9-1.9-1.9z"/><path fill="#CFD8DC" d="M54.61 80.45c-.32 0-.65-.12-.89-.37a1.25 1.25 0 0 1 0-1.77l1.78-1.77c.49-.49 1.29-.49 1.78 0s.49 1.28 0 1.77l-1.78 1.77c-.24.25-.57.37-.89.37zm-11.3-6.49c-.11 0-.22-.02-.33-.04-.67-.18-1.07-.87-.89-1.54l.65-2.42c.18-.67.88-1.05 1.55-.89.67.18 1.07.87.89 1.54l-.65 2.42c-.16.56-.67.93-1.22.93zm-13.06 0c-.56 0-1.07-.37-1.22-.93l-.65-2.42c-.18-.67.22-1.36.89-1.54.68-.17 1.36.22 1.55.89l.65 2.42c.18.67-.22 1.36-.89 1.54-.11.02-.22.04-.33.04zm-11.3 6.49c-.32 0-.65-.12-.89-.37l-1.78-1.77c-.49-.49-.49-1.28 0-1.77s1.29-.49 1.78 0l1.78 1.77c.49.49.49 1.28 0 1.77-.24.25-.57.37-.89.37z"/><path fill="#ECEFF1" d="M116.31 83.31c.13-.49.06-1-.19-1.43a1.91 1.91 0 0 0-1.17-.89 1.86 1.86 0 0 0-1.44.2l-2.13 1.22c-.44.25-.76.66-.89 1.15s-.06 1 .19 1.44c.34.59.97.95 1.65.95.34 0 .67-.09.95-.25l2.13-1.22c.45-.27.77-.68.9-1.17zm-10.81-12c-.91-.52-2.08-.21-2.6.69l-1.23 2.12c-.52.91-.21 2.07.7 2.59.29.17.62.26.95.26.68 0 1.31-.36 1.65-.95l1.23-2.12c.52-.91.21-2.07-.7-2.59zm-26.4.7c-.25-.44-.66-.76-1.16-.89a1.9 1.9 0 0 0-1.44.19c-.44.25-.76.66-.89 1.15s-.06 1 .19 1.44l1.23 2.12c.34.59.97.95 1.65.95.33 0 .66-.09.95-.25.44-.25.76-.66.89-1.15s.06-1-.19-1.44l-1.23-2.12zM70.62 82.4l-2.14-1.23c-.91-.52-2.08-.21-2.6.7s-.21 2.07.7 2.59l2.13 1.22a1.902 1.902 0 0 0 2.61-.69c.52-.9.21-2.06-.7-2.59zM91 67.44c-1.05 0-1.91.85-1.91 1.9v2.45c0 1.05.86 1.9 1.91 1.9s1.9-.85 1.9-1.9v-2.45c.01-1.05-.85-1.9-1.9-1.9z"/><path fill="#CFD8DC" d="M108.83 80.45c-.32 0-.65-.12-.89-.37a1.25 1.25 0 0 1 0-1.77l1.78-1.77c.49-.49 1.29-.49 1.78 0s.49 1.28 0 1.77l-1.78 1.77c-.24.25-.57.37-.89.37zm-11.3-6.49c-.11 0-.22-.02-.33-.04-.67-.18-1.07-.87-.89-1.54l.65-2.42c.18-.67.88-1.05 1.55-.89.67.18 1.07.87.89 1.54l-.65 2.42c-.16.56-.67.93-1.22.93zm-13.06 0c-.56 0-1.07-.37-1.22-.93l-.65-2.42c-.18-.67.22-1.36.89-1.54.68-.17 1.36.22 1.55.89l.65 2.42c.18.67-.22 1.36-.89 1.54-.11.02-.22.04-.33.04zm-11.3 6.49c-.32 0-.65-.12-.89-.37l-1.78-1.77c-.49-.49-.49-1.28 0-1.77s1.29-.49 1.78 0l1.78 1.77c.49.49.49 1.28 0 1.77-.25.25-.57.37-.89.37z"/><radialGradient id="b" cx="36.868" cy="21.833" r="40.176" gradientUnits="userSpaceOnUse"><stop offset="0" stop-color="#40C4FF"/><stop offset="1" stop-color="#0091EA"/></radialGradient><path fill="url(#b)" d="m39.39 39.04-1.01-1.01c-.56-.56-.56-1.46 0-2.02l11.03-11.03c-7.85-6.34-19.39-5.87-26.69 1.43-7.81 7.81-7.81 20.47 0 28.29s20.47 7.81 28.29 0c7.3-7.3 7.77-18.83 1.43-26.69L41.41 39.04c-.55.56-1.46.56-2.02 0z"/><path fill="#E1F5FE" d="M49.41 24.98 38.38 36.01c-.56.56-.56 1.46 0 2.02l1.01 1.01c.56.56 1.46.56 2.02 0l11.03-11.03c-.45-.55-.92-1.09-1.43-1.6s-1.05-.98-1.6-1.43z"/><radialGradient id="c" cx="91.086" cy="21.833" r="40.176" gradientTransform="matrix(-1 0 0 1 182.17 0)" gradientUnits="userSpaceOnUse"><stop offset="0" stop-color="#40C4FF"/><stop offset="1" stop-color="#0091EA"/></radialGradient><path fill="url(#c)" d="m88.56 39.04 1.01-1.01c.56-.56.56-1.46 0-2.02L78.54 24.98c7.85-6.34 19.39-5.87 26.69 1.43 7.81 7.81 7.81 20.47 0 28.29s-20.47 7.81-28.29 0c-7.3-7.3-7.77-18.83-1.43-26.69l11.03 11.03c.56.56 1.46.56 2.02 0z"/><path fill="#E1F5FE" d="m78.54 24.98 11.03 11.03c.56.56.56 1.46 0 2.02l-1.01 1.01c-.56.56-1.46.56-2.02 0L75.51 28.01c.45-.55.92-1.09 1.43-1.6s1.05-.98 1.6-1.43z"/><radialGradient id="d" cx="36.868" cy="77.276" r="40.176" gradientUnits="userSpaceOnUse"><stop offset="0" stop-color="#40C4FF"/><stop offset="1" stop-color="#0091EA"/></radialGradient><path fill="url(#d)" d="m39.39 94.48-1.01-1.01c-.56-.56-.56-1.46 0-2.02l11.03-11.03c-7.85-6.34-19.39-5.87-26.69 1.43-7.81 7.81-7.81 20.47 0 28.29s20.47 7.81 28.29 0c7.3-7.3 7.77-18.83 1.43-26.69L41.41 94.48c-.55.56-1.46.56-2.02 0z"/><path fill="#E1F5FE" d="M49.41 80.42 38.38 91.45c-.56.56-.56 1.46 0 2.02l1.01 1.01c.56.56 1.46.56 2.02 0l11.03-11.03c-.45-.55-.92-1.09-1.43-1.6s-1.05-.98-1.6-1.43z"/><radialGradient id="e" cx="91.086" cy="77.276" r="40.176" gradientTransform="matrix(-1 0 0 1 182.17 0)" gradientUnits="userSpaceOnUse"><stop offset="0" stop-color="#40C4FF"/><stop offset="1" stop-color="#0091EA"/></radialGradient><path fill="url(#e)" d="m88.56 94.48 1.01-1.01c.56-.56.56-1.46 0-2.02L78.54 80.42c7.85-6.34 19.39-5.87 26.69 1.43 7.81 7.81 7.81 20.47 0 28.29s-20.47 7.81-28.29 0c-7.3-7.3-7.77-18.83-1.43-26.69l11.03 11.03c.56.56 1.46.56 2.02 0z"/><path fill="#E1F5FE" d="m78.54 80.42 11.03 11.03c.56.56.56 1.46 0 2.02l-1.01 1.01c-.56.56-1.46.56-2.02 0L75.51 83.45c.45-.55.92-1.09 1.43-1.6s1.05-.98 1.6-1.43z"/><path fill="none" stroke="#424242" stroke-miterlimit="10" stroke-width="3" d="M52.44 28.01c-.45-.55-.92-1.09-1.43-1.6s-1.05-.99-1.6-1.43c-7.85-6.34-19.39-5.87-26.69 1.43-7.81 7.81-7.81 20.48 0 28.29s20.48 7.81 28.29 0c7.3-7.3 7.77-18.83 1.43-26.69zm54.22 0c-.45-.55-.92-1.09-1.43-1.6s-1.05-.99-1.6-1.43c-7.85-6.34-19.39-5.87-26.69 1.43-7.81 7.81-7.81 20.48 0 28.29s20.48 7.81 28.29 0c7.3-7.3 7.77-18.83 1.43-26.69zM52.44 83.45c-.45-.55-.92-1.09-1.43-1.6s-1.05-.99-1.6-1.43c-7.85-6.34-19.39-5.87-26.69 1.43-7.81 7.81-7.81 20.48 0 28.29s20.48 7.81 28.29 0c7.3-7.3 7.77-18.83 1.43-26.69zm54.22 0c-.45-.55-.92-1.09-1.43-1.6s-1.05-.99-1.6-1.43c-7.85-6.34-19.39-5.87-26.69 1.43-7.81 7.81-7.81 20.48 0 28.29s20.48 7.81 28.29 0c7.3-7.3 7.77-18.83 1.43-26.69z" opacity=".2"/></svg>