<svg xmlns="http://www.w3.org/2000/svg" style="enable-background:new 0 0 128 128" viewBox="0 0 128 128" xml:space="preserve"><path d="m70.7 10.4-7.4-6.3 5.2-.1 4.8 5.5z" style="fill:#7986cb"/><circle cx="72.2" cy="12.6" r="4.1" style="fill:#5c6bc0"/><radialGradient id="a" cx="59.367" cy="747.939" r="46.414" gradientTransform="translate(0 -712.614)" gradientUnits="userSpaceOnUse"><stop offset=".003" style="stop-color:#b3e5fc"/><stop offset=".998" style="stop-color:#4fc3f7"/></radialGradient><path d="M72.9 12.6C52.6 14.9 38 32.9 40.4 52.8c1 8.7 5.1 16.2 11.2 21.9l56.4-6.6c4.6-7 6.8-15.2 5.8-23.9-2.3-19.9-20.7-34-40.9-31.6z" style="fill:url(#a)"/><path d="M56.6 32.3c-1.3 1.2-2.8 1-2.8 1s-.3-1.7.7-2.9c.9-1.1 2-1.9 2.9-2.2.2-.1-.7 1.7-.7 1.7s1.7-1.2 1.6-.9c-.1.9-.8 2.4-1.7 3.3zm-1.4 4.5c-1.3-.8-1.1-2.7-1.1-2.7s1.7-1.2 2.9-.7c1.1.5 2 1.3 2.3 2.2.1.2-1.7.1-1.7.1s1.2 1.3 1 1.4c-.9.3-2.4.3-3.4-.3zM49.8 33c1.7-.3 2.7 1 2.7 1s-.7 1.9-2.1 2.4c-1.3.5-2.6.5-3.4.2-.2-.1 1.4-1.2 1.4-1.2s-1.9 0-1.7-.3c.6-.8 1.9-1.9 3.1-2.1zm3.7-3.3c.5 1.5-.6 3.1-.6 3.1s-1.9.1-2.5-1.1c-.6-1.1-.8-2.4-.6-3.4.1-.2 1.3.9 1.3.9s-.2-1.9 0-1.9c.9.4 2.1 1.3 2.4 2.4zM51 37.2c.6-1.7 2.3-2.3 2.3-2.3s1.3 1.2 1 2.6c-.3 1.3-.9 2.6-1.7 3.3-.2.2-.3-1.7-.3-1.7s-1 1.8-1.2 1.6c-.3-.8-.6-2.3-.1-3.5z" style="fill:#ffebee"/><path d="M88 62.3c-.3-16.2-5.8-40.5-13.3-50-.4 0-2.1.2-2.4.3 10 13.7 12.9 40.5 13.1 49.4.1 2.9-.7 5-1 8H87c.1-2 1.1-5 1-7.7z" style="fill:#9fa8da"/><path d="M86.3 70.6C84.6 85.4 75.9 101 61.2 105c-.7.2.8 3.8.2 3.9 6.5-1.7 15.4-8.2 19.3-15.7 3.7-7.1 5.8-14.9 6.1-22.7.1 0-.5.1-.5.1z" style="fill:#7986cb"/><path d="M17.9 98.7s8.8 5.4 21.7 5.8 23.5-7.1 23.5-7.1l6.4 14.8S56.2 120.5 44 123c-12 2.4-19.4-1.3-19.4-1.3s-6.8-5-8-8.8c-2.3-7.9 1.3-14.2 1.3-14.2z" style="fill:#e8eaf6"/><path d="M29.6 115.2s-1.4 1.2-4.9 1c-5-.3-7.8-2.4-7.8-2.4s3 4.7 7.1 7.6 8.8 2.4 8.8 2.4-1.7-1.6-2.4-4.2c-.7-2.7-.8-4.4-.8-4.4z" style="fill:#c5cae9"/><path d="M86.1 62.7c-4.4.5-7.4 5-7 8.8l15.8-1.8c-.4-3.8-4.4-7.5-8.8-7z" style="fill:#dce775"/><path d="M87.9 78.5c4.4-.5 7.5-4.1 7-8.8l-15.8 1.9c.6 4.7 4.5 7.4 8.8 6.9z" style="fill:#fff59d"/><path d="m108 68.1-56.4 6.6c-1.7-1.6-3.3-3.4-4.7-5.3-1.6-2.2-3-4.7-4.1-7.3-.4-.8-.7-1.7-.9-2.6-.7-2.2-1.2-4.4-1.5-6.8 0-.5-.1-.9-.1-1.4C38.8 32 53.1 14.8 72.9 12.5c20.3-2.4 38.6 11.7 40.9 31.6 1 8.8-1.3 17-5.8 24z" style="fill:none"/><path d="M53.5 51.3c-.3 3.7-3.3 5.4-3.3 5.4s-3.2-2.1-3.5-5.3c-.2-2.9.4-5.7 1.5-7.3.3-.4 1.5 3.4 1.5 3.4s1.1-4.1 1.4-3.6c1.3 1.7 2.6 4.8 2.4 7.4zm4.9 8.6c-3.7.6-6.3-2.3-6.3-2.3s1-4.1 4-5.1c2.7-1 5.7-1 7.6-.2.5.2-2.8 2.5-2.8 2.5s4.3.1 4 .7c-1.3 1.7-3.9 3.9-6.5 4.4zm-9.1 6.4c-.7 1.2-1.5 2.2-2.4 3-1.6-2.2-3-4.7-4.1-7.3 2.4-2.7 6.2-2.2 6.2-2.2s1.8 3.8.3 6.5zm-1.4-8.8s-3.1 2.8-6.1 2c-.7-2.2-1.2-4.4-1.5-6.8 0-.5-.1-.9-.1-1.4 1.3 0 2.6.2 3.7.7 3.4 1.6 4 5.5 4 5.5zm3.6 9c-1.7-3.3.4-6.7.4-6.7s4.2-.2 6.1 2.3c1.7 2.3 2.6 5.1 2.4 7.2-.1.5-3.2-2-3.2-2s1.1 4.2.5 4c-2.1-.5-5-2.4-6.2-4.8z" style="fill:#ffebee"/><path d="M86.4 13.4c1.2 2.4-.1 4.7-.1 4.7s-3-.1-4.5-2c-.9-1.2-1.5-2.5-1.8-3.7l6.4 1zm7.3 2.7c-.2.3-.4.5-.6.7-2.1 1.9-5.1 1.1-5.1 1.1s-.7-2.2 0-4.1c1.9.6 3.8 1.4 5.7 2.3z" style="fill:#e1bee7"/><path d="M83.7 24.9c.4-2.9 3.2-4.2 3.2-4.2s2.8 1.7 2.9 4.1c.1 2.2-.6 4.4-1.6 5.7-.3.3-1.2-2.7-1.2-2.7s-1.1 3.2-1.4 2.8c-1.1-1.2-2.2-3.7-1.9-5.7zm-3.4-7.2c2.9-.4 4.9 1.9 4.9 1.9s-.9 3.1-3.2 3.9c-2.2.7-4.4.7-5.9 0-.4-.2 2.2-1.9 2.2-1.9s-3.3-.2-3.1-.6c.9-1.4 3-3.1 5.1-3.3z" style="fill:#ffcdd2"/><path d="M91.3 24c-2.5-1.5-2.6-4.6-2.6-4.6s2.7-1.9 5-1c2.1.8 3.9 2.3 4.6 3.7.2.4-2.9 0-2.9 0s2.5 2.3 2 2.4c-1.6.6-4.3.6-6.1-.5zm13.6 8.1c1.1 3.5-1.1 6.3-1.1 6.3s-3.8-.8-5.2-3.6c-1.3-2.6-1.8-5.4-1.3-7.3.1-.5 2.6 2.6 2.6 2.6s-.6-4.2 0-3.9c1.8 1 4.2 3.4 5 5.9zm7.6 6.1c-3.2 2-6.7.3-6.7.3s-.6-4.2 1.8-6.2c.6-.5 1.2-1 1.8-1.4 1.3 2.2 2.4 4.7 3.1 7.3z" style="fill:#e1bee7"/><path d="M98.9 46.2c1.1-3.5 4.9-4.5 4.9-4.5s3.1 2.8 2.7 5.9c-.4 2.9-1.7 5.5-3.3 6.8-.4.3-.9-3.6-.9-3.6s-2.1 3.8-2.4 3.2c-1.1-1.9-1.8-5.3-1-7.8zm-2.7-9.9c3.7.1 5.7 3.5 5.7 3.5s-1.8 3.8-5 4.2c-2.9.4-5.8-.2-7.4-1.4-.4-.3 3.3-1.8 3.3-1.8s-4.2-1-3.8-1.5c1.6-1.4 4.6-3.1 7.2-3z" style="fill:#ffcdd2"/><path d="M114 49.1c-1.8-.2-3.9-.9-5.3-2.2-2.8-2.5-2.2-6.4-2.2-6.4s3.8-1.7 6.5-.1c.1 0 .1.1.2.1.3 1.2.5 2.3.6 3.5.2 1.8.2 3.5.2 5.1z" style="fill:#e1bee7"/><g style="opacity:.2"><path d="m61.7 101.8 4 9.2c-4.2 2.4-13.7 7.4-22.3 9.1-2.5.5-4.9.8-7.3.8-1 0-2 0-2.9-.1-.1 0-.2.1-.3.1-.2 0-.4.2-.6.2-1 0-3.4-.2-5.7-1.6-.1-.1-.2-.2-.3-.2l-.1-.1c-.1-.1-.3-.3-.6-.5l-.1-.1c-.6-.4-1.1-.9-1.7-1.4l-.1-.1c-3.5-3.1-4.1-4.7-4.3-5.1-1.1-3.7-.6-7 0-9.2 3.9 1.8 11 4.4 20 4.7h1.2c9.2.1 17-3.4 21.1-5.7m1.4-4.4s-10 7.2-22.3 7.2h-1.1c-12.9-.4-21.7-5.8-21.7-5.8s-3.6 6.3-1.3 14.2c.6 2.2 3.1 4.7 5.1 6.5.6.6 1.2 1.1 1.9 1.6.5.4.9.7.9.7l.4.2c2.9 1.7 5.9 1.9 7.2 1.9h.7c1 .1 2 .1 3.2.1 2.3 0 5-.2 7.9-.8 12.2-2.5 25.5-10.8 25.5-10.8l-6.4-15z" style="fill:#424242"/></g><g style="opacity:.2"><path d="M86.9 64.6c3.1 0 5.7 2.8 6 5.3.2 1.7-.2 3.3-1.2 4.5s-2.4 1.9-4 2.1c-.3 0-.5.1-.8.1-3.1 0-5.4-2.1-5.8-5.3-.2-1.3.3-2.9 1.3-4.2 1-1.4 2.4-2.2 3.9-2.4.2-.1.4-.1.6-.1m0-2h-.8c-4.4.5-7.4 5-7 8.8.5 4.4 3.9 7.1 7.8 7.1.3 0 .7 0 1-.1 4.4-.5 7.5-4.1 7-8.8-.4-3.5-3.9-7-8-7z" style="fill:#424242"/></g><path d="M62.6 105.2v.1-.1c0 .1 0 .1 0 0zm0 0zm3.8-1.7c-1-.5-2.5-.9-3.6-.4-1.2.6-1.7 2.3-1.5 3.4s.7 1.9 1.1 2.8c.1.3.5.3.7 0 .2-.6.6-1.3 1.5-2 1.1-.8 2.7-.3 3.4.6 0 0-1.5-4.3-1.6-4.4z" style="fill:#5c6bc0"/><g style="opacity:.2"><path d="M77.3 15.3c17.1 0 31.5 12.6 33.5 29.2.8 7.2-.8 14.4-4.6 20.8l-53.6 6.3c-5.2-5.3-8.4-11.9-9.3-19.1-1-8.8 1.5-17.5 7.1-24.4 5.6-7 13.7-11.4 22.8-12.4 1.4-.3 2.8-.4 4.1-.4m0-3c-1.5 0-2.9.1-4.4.3C52.6 14.9 38 32.9 40.4 52.8c1 8.7 5.1 16.2 11.2 21.9l56.4-6.6c4.6-7 6.8-15.2 5.8-23.9-2.2-18.4-18-31.9-36.5-31.9z" style="fill:#424242"/></g></svg>