<svg xmlns="http://www.w3.org/2000/svg" viewBox="0 0 128 128"><radialGradient id="a" cx="64.667" cy="4.667" r="128.1" gradientUnits="userSpaceOnUse"><stop offset="0" stop-color="#757575"/><stop offset="1" stop-color="#424242"/></radialGradient><path fill="url(#a)" d="M4 4v120h120V4H4zm16 110c0 1.1-.9 2-2 2h-4c-1.1 0-2-.9-2-2v-8c0-1.1.9-2 2-2h4c1.1 0 2 .9 2 2v8zm0-92c0 1.1-.9 2-2 2h-4c-1.1 0-2-.9-2-2v-8c0-1.1.9-2 2-2h4c1.1 0 2 .9 2 2v8zm16 92c0 1.1-.9 2-2 2h-4c-1.1 0-2-.9-2-2v-8c0-1.1.9-2 2-2h4c1.1 0 2 .9 2 2v8zm0-92c0 1.1-.9 2-2 2h-4c-1.1 0-2-.9-2-2v-8c0-1.1.9-2 2-2h4c1.1 0 2 .9 2 2v8zm16 92c0 1.1-.9 2-2 2h-4c-1.1 0-2-.9-2-2v-8c0-1.1.9-2 2-2h4c1.1 0 2 .9 2 2v8zm0-92c0 1.1-.9 2-2 2h-4c-1.1 0-2-.9-2-2v-8c0-1.1.9-2 2-2h4c1.1 0 2 .9 2 2v8zm16 92c0 1.1-.9 2-2 2h-4c-1.1 0-2-.9-2-2v-8c0-1.1.9-2 2-2h4c1.1 0 2 .9 2 2v8zm0-92c0 1.1-.9 2-2 2h-4c-1.1 0-2-.9-2-2v-8c0-1.1.9-2 2-2h4c1.1 0 2 .9 2 2v8zm16 92c0 1.1-.9 2-2 2h-4c-1.1 0-2-.9-2-2v-8c0-1.1.9-2 2-2h4c1.1 0 2 .9 2 2v8zm0-92c0 1.1-.9 2-2 2h-4c-1.1 0-2-.9-2-2v-8c0-1.1.9-2 2-2h4c1.1 0 2 .9 2 2v8zm16 92c0 1.1-.9 2-2 2h-4c-1.1 0-2-.9-2-2v-8c0-1.1.9-2 2-2h4c1.1 0 2 .9 2 2v8zm0-92c0 1.1-.9 2-2 2h-4c-1.1 0-2-.9-2-2v-8c0-1.1.9-2 2-2h4c1.1 0 2 .9 2 2v8zm16 92c0 1.1-.9 2-2 2h-4c-1.1 0-2-.9-2-2v-8c0-1.1.9-2 2-2h4c1.1 0 2 .9 2 2v8zm0-92c0 1.1-.9 2-2 2h-4c-1.1 0-2-.9-2-2v-8c0-1.1.9-2 2-2h4c1.1 0 2 .9 2 2v8z"/><path fill="#eee" d="M121 7v114H7V7h114m3-3H4v120h120V4z" opacity=".2"/><radialGradient id="b" cx="64" cy="32.333" r="73.941" gradientUnits="userSpaceOnUse"><stop offset=".004" stop-color="#A1887F"/><stop offset=".26" stop-color="#9B8077"/><stop offset=".663" stop-color="#8A6B60"/><stop offset="1" stop-color="#795548"/></radialGradient><path fill="url(#b)" d="M12 32h104v64H12z"/><g opacity=".2"><path fill="#424242" d="M18 12c1.1 0 2 .9 2 2v8c0 1.1-.9 2-2 2h-4c-1.1 0-2-.9-2-2v-8c0-1.1.9-2 2-2h4m0-2h-4c-2.21 0-4 1.79-4 4v8c0 2.21 1.79 4 4 4h4c2.21 0 4-1.79 4-4v-8c0-2.21-1.79-4-4-4zm16 2c1.1 0 2 .9 2 2v8c0 1.1-.9 2-2 2h-4c-1.1 0-2-.9-2-2v-8c0-1.1.9-2 2-2h4m0-2h-4c-2.21 0-4 1.79-4 4v8c0 2.21 1.79 4 4 4h4c2.21 0 4-1.79 4-4v-8c0-2.21-1.79-4-4-4zm16 2c1.1 0 2 .9 2 2v8c0 1.1-.9 2-2 2h-4c-1.1 0-2-.9-2-2v-8c0-1.1.9-2 2-2h4m0-2h-4c-2.21 0-4 1.79-4 4v8c0 2.21 1.79 4 4 4h4c2.21 0 4-1.79 4-4v-8c0-2.21-1.79-4-4-4zm16 2c1.1 0 2 .9 2 2v8c0 1.1-.9 2-2 2h-4c-1.1 0-2-.9-2-2v-8c0-1.1.9-2 2-2h4m0-2h-4c-2.21 0-4 1.79-4 4v8c0 2.21 1.79 4 4 4h4c2.21 0 4-1.79 4-4v-8c0-2.21-1.79-4-4-4zm16 2c1.1 0 2 .9 2 2v8c0 1.1-.9 2-2 2h-4c-1.1 0-2-.9-2-2v-8c0-1.1.9-2 2-2h4m0-2h-4c-2.21 0-4 1.79-4 4v8c0 2.21 1.79 4 4 4h4c2.21 0 4-1.79 4-4v-8c0-2.21-1.79-4-4-4zm16 2c1.1 0 2 .9 2 2v8c0 1.1-.9 2-2 2h-4c-1.1 0-2-.9-2-2v-8c0-1.1.9-2 2-2h4m0-2h-4c-2.21 0-4 1.79-4 4v8c0 2.21 1.79 4 4 4h4c2.21 0 4-1.79 4-4v-8c0-2.21-1.79-4-4-4zm16 2c1.1 0 2 .9 2 2v8c0 1.1-.9 2-2 2h-4c-1.1 0-2-.9-2-2v-8c0-1.1.9-2 2-2h4m0-2h-4c-2.21 0-4 1.79-4 4v8c0 2.21 1.79 4 4 4h4c2.21 0 4-1.79 4-4v-8c0-2.21-1.79-4-4-4zm-96 94c1.1 0 2 .9 2 2v8c0 1.1-.9 2-2 2h-4c-1.1 0-2-.9-2-2v-8c0-1.1.9-2 2-2h4m0-2h-4c-2.21 0-4 1.79-4 4v8c0 2.21 1.79 4 4 4h4c2.21 0 4-1.79 4-4v-8c0-2.21-1.79-4-4-4zm16 2c1.1 0 2 .9 2 2v8c0 1.1-.9 2-2 2h-4c-1.1 0-2-.9-2-2v-8c0-1.1.9-2 2-2h4m0-2h-4c-2.21 0-4 1.79-4 4v8c0 2.21 1.79 4 4 4h4c2.21 0 4-1.79 4-4v-8c0-2.21-1.79-4-4-4zm16 2c1.1 0 2 .9 2 2v8c0 1.1-.9 2-2 2h-4c-1.1 0-2-.9-2-2v-8c0-1.1.9-2 2-2h4m0-2h-4c-2.21 0-4 1.79-4 4v8c0 2.21 1.79 4 4 4h4c2.21 0 4-1.79 4-4v-8c0-2.21-1.79-4-4-4zm16 2c1.1 0 2 .9 2 2v8c0 1.1-.9 2-2 2h-4c-1.1 0-2-.9-2-2v-8c0-1.1.9-2 2-2h4m0-2h-4c-2.21 0-4 1.79-4 4v8c0 2.21 1.79 4 4 4h4c2.21 0 4-1.79 4-4v-8c0-2.21-1.79-4-4-4zm16 2c1.1 0 2 .9 2 2v8c0 1.1-.9 2-2 2h-4c-1.1 0-2-.9-2-2v-8c0-1.1.9-2 2-2h4m0-2h-4c-2.21 0-4 1.79-4 4v8c0 2.21 1.79 4 4 4h4c2.21 0 4-1.79 4-4v-8c0-2.21-1.79-4-4-4zm16 2c1.1 0 2 .9 2 2v8c0 1.1-.9 2-2 2h-4c-1.1 0-2-.9-2-2v-8c0-1.1.9-2 2-2h4m0-2h-4c-2.21 0-4 1.79-4 4v8c0 2.21 1.79 4 4 4h4c2.21 0 4-1.79 4-4v-8c0-2.21-1.79-4-4-4zm16 2c1.1 0 2 .9 2 2v8c0 1.1-.9 2-2 2h-4c-1.1 0-2-.9-2-2v-8c0-1.1.9-2 2-2h4m0-2h-4c-2.21 0-4 1.79-4 4v8c0 2.21 1.79 4 4 4h4c2.21 0 4-1.79 4-4v-8c0-2.21-1.79-4-4-4z"/><path fill="none" stroke="#424242" stroke-miterlimit="10" stroke-width="4" d="M12 32h104v64H12z"/></g></svg>