<svg xmlns="http://www.w3.org/2000/svg" xmlns:xlink="http://www.w3.org/1999/xlink" style="enable-background:new 0 0 128 128" viewBox="0 0 128 128" xml:space="preserve"><defs><path id="a" d="M4 4h120v120H4z"/></defs><clipPath id="b"><use style="overflow:visible" xlink:href="#a"/></clipPath><path d="M53 21.5c-5.5 5-11 11.9-8.7 19.2 2.7 8.3-5 15-12 14" style="clip-path:url(#b);fill:none;stroke:#607d8b;stroke-width:4;stroke-linecap:round;stroke-linejoin:round;stroke-miterlimit:10"/><defs><path id="c" d="M4 4h120v120H4z"/></defs><clipPath id="d"><use style="overflow:visible" xlink:href="#c"/></clipPath><g style="clip-path:url(#d)"><linearGradient id="e" x1="81.78" x2="90.372" y1="779.163" y2="788.603" gradientTransform="rotate(10.263 3774.77 90.14)" gradientUnits="userSpaceOnUse"><stop offset=".011" style="stop-color:#64b5f6"/><stop offset=".988" style="stop-color:#2196f3"/></linearGradient><path d="m32.7 123.8-4.4-1.9c-3.5-1.5-7.3-2.2-11.1-1.9l-3.4.3c-1.1.1-1.8-1.1-1.2-2.1 2.6-4.1 8.4-12.4 13.2-11.5s7.6 10.7 8.7 15.5c.2 1.1-.8 2.1-1.8 1.6z" style="fill:url(#e)"/><g style="opacity:.2"><path d="M25 108.7h.4c2.3.4 5 5.4 6.9 12.8l-3.2-1.4c-3.2-1.4-6.6-2.1-10.1-2.1-.7 0-1.3 0-2 .1l-2 .2c3.9-6 7.7-9.6 10-9.6m.1-2c-4.6 0-10 7.7-12.4 11.6-.6.9.1 2.1 1.1 2.1h.1l3.4-.3c.6-.1 1.2-.1 1.8-.1 3.2 0 6.4.7 9.3 1.9l4.4 1.9c.2.1.3.1.5.1.8 0 1.5-.8 1.3-1.7-1.1-4.8-4-14.7-8.7-15.5h-.8z" style="fill:#444"/></g><linearGradient id="f" x1="99.799" x2="114.108" y1="733.097" y2="769.746" gradientTransform="rotate(10.263 3774.77 90.14)" gradientUnits="userSpaceOnUse"><stop offset=".003" style="stop-color:#64b5f6"/><stop offset=".713" style="stop-color:#2196f3"/></linearGradient><path d="m38.8 106.4-4.7-.8 17.3-36.2 10.5 6.4c1.2.7 1.7 2.2 1.2 3.6-.9 2.6-2.5 7-4.4 11-2.5 5.4-12 17.4-19.9 16z" style="fill:url(#f)"/><linearGradient id="g" x1="-443.585" x2="-434.988" y1="807.685" y2="829.704" gradientTransform="scale(-1 1) rotate(3.382 12139.02 7658.253)" gradientUnits="userSpaceOnUse"><stop offset=".003" style="stop-color:#64b5f6"/><stop offset=".713" style="stop-color:#2196f3"/></linearGradient><path d="m17.6 100.7 2.9-.2-7.3-22.6L6.4 81c-.8.3-1.2 1.2-1 2.1.3 1.6.9 4.3 1.7 6.8 1 3.5 5.7 11.2 10.5 10.8z" style="fill:url(#g)"/><g style="opacity:.2"><path d="m51.8 70.8 9.5 5.8c.7.4 1.1 1.5.7 2.4-1 2.8-2.6 7.1-4.3 10.9-2.4 5.3-10.8 15.6-17.6 15.6-.4 0-.8 0-1.1-.1l-3.4-.6 16.2-34m-.4-1.5-17.3 36.2 4.7.8c.4.1.9.1 1.3.1 7.6 0 16.2-11 18.5-16.2 1.8-4 3.5-8.4 4.4-11 .5-1.4 0-2.9-1.2-3.6.1.1-10.4-6.3-10.4-6.3z" style="fill:#444"/></g><g style="opacity:.2"><path d="m12.6 79.3 6.5 20.3-1.6.1h-.3c-4.1 0-8.3-7-9.2-10.1-.7-2.4-1.3-5-1.7-6.8-.1-.4.1-.8.4-1l5.9-2.5m.6-1.4L6.4 81c-.8.3-1.2 1.2-1 2.1.3 1.6.9 4.3 1.7 6.8 1 3.3 5.5 10.8 10.1 10.8h.4l2.9-.2-7.3-22.6z" style="fill:#444"/></g><radialGradient id="h" cx="101.889" cy="750.589" r="51.441" gradientTransform="matrix(.9276 .1681 -.1696 .9359 61.97 -655.043)" gradientUnits="userSpaceOnUse"><stop offset=".358" style="stop-color:#bbdefb"/><stop offset=".714" style="stop-color:#64b5f6"/></radialGradient><path d="m41.2 50.8-5.6 2.8-4.1-4.5s-17.8 3.8-21.1 22.2c-4.9 26.9 14.8 40.6 14.8 40.6S51 106.8 56 79.6c3.3-18.8-14.8-28.8-14.8-28.8z" style="fill:url(#h)"/><defs><path id="i" d="m41.2 50.8-5.7 3.1-4-4.8s-17.8 3.8-21.1 22.2c-4.9 26.9 14.8 40.6 14.8 40.6S51 106.8 56 79.6c3.3-18.8-14.8-28.8-14.8-28.8z"/></defs><clipPath id="j"><use style="overflow:visible" xlink:href="#i"/></clipPath><path d="M27.6 113.8c3.4 7.9-36.3-5.2-36.3-5.2l12-66.4 33.4 3.3 12.1 4.3s8.1 15.3-12.6 22c-17.8 5.8-13.2 31.4-8.6 42z" style="clip-path:url(#j);fill:url(#SVGID_11_)"/><ellipse cx="40.34" cy="62.57" rx="3.2" ry="3.3" style="fill:#283593" transform="rotate(-79.729 40.34 62.572)"/><path d="M22.8 65.8s1.5 3.7 10.1 5.3c8.6 1.6 11.6-1.5 11.6-1.5" style="fill:none;stroke:#82b1ff;stroke-width:3;stroke-linecap:round;stroke-linejoin:round;stroke-miterlimit:10"/><linearGradient id="k" x1="84.004" x2="94.855" y1="744.805" y2="744.805" gradientTransform="rotate(10.263 3774.77 90.14)" gradientUnits="userSpaceOnUse"><stop offset=".003" style="stop-color:#64b5f6"/><stop offset=".713" style="stop-color:#2196f3"/></linearGradient><path d="m33.3 84.3-5.7-1c-1.5-.3-2.4-1.9-1.9-3.5 1.2-3.8 3.7-9.8 6.9-9.2 3.2.6 3.7 6.9 3.7 11 .1 1.7-1.4 3-3 2.7z" style="fill:url(#k)"/><g style="opacity:.2"><path d="m30.8 51.3 3.3 3.8c.4.5 1 .7 1.5.7.3 0 .6-.1.9-.2l4.6-2.5c3.4 2.2 15.5 11.2 12.8 26-1.9 10.7-7.4 19.1-16.2 25-5.2 3.5-10.2 5-12.1 5.5-1.5-1.2-5-4.3-8.1-9.2-5.4-8.5-7.1-18.2-5.2-28.8C14.9 57.2 27 52.5 30.8 51.3m.7-2.2s-17.8 3.8-21.1 22.2c-4.9 26.9 14.8 40.6 14.8 40.6S51 106.8 56 79.6c3.4-18.8-14.7-28.7-14.7-28.7l-5.6 3c-.1 0-4.2-4.8-4.2-4.8z" style="fill:#444"/></g></g><defs><path id="l" d="M4 4h120v120H4z"/></defs><clipPath id="m"><use style="overflow:visible" xlink:href="#l"/></clipPath><path d="M61.6 61.3c0 .1.1.1 0 0 3.5 5 11.5 2.8 11.2-3.4v-.5c-.5-3.6-3.2-6.3-6.5-7.7-1.7-.7-3.4-1.3-5.1-1.9-.8-.3-1.7-.6-2.6-.8-.5-.1-1.4.1-1.6.6-.3.8.2 2.4.4 3.2.8 3.8 2 7.4 4.2 10.5z" style="clip-path:url(#m);fill:url(#SVGID_15_)"/><defs><path id="n" d="M4 4h120v120H4z"/></defs><clipPath id="o"><use style="overflow:visible" xlink:href="#n"/></clipPath><g style="opacity:.2;clip-path:url(#o)"><path d="M59.1 49.2c.3.1.7.2 1 .3l.5.2c1.7.5 3.3 1.1 4.9 1.8 3 1.3 5 3.6 5.3 6.1v.4c.1 1.2-.3 2.1-1 2.9-.8.8-1.8 1.2-3 1.2-.8 0-2.3-.2-3.5-1.8 0 0 0-.1-.1-.1-1.8-2.5-3-5.6-3.9-9.7 0-.2-.1-.4-.2-.7.1-.1 0-.4 0-.6m-.8-2.2c-.5 0-1.2.2-1.3.6-.3.8.2 2.4.4 3.2.8 3.7 2 7.3 4.2 10.5 0 0 0 .1.1.1 1.3 1.8 3.2 2.7 5.1 2.7 3.2 0 6.2-2.3 6-6.2v-.5c-.5-3.6-3.2-6.3-6.5-7.7-1.7-.7-3.4-1.3-5.1-1.9-.8-.3-1.7-.6-2.6-.8h-.3z" style="fill:#444"/></g><defs><path id="p" d="M4 4h120v120H4z"/></defs><clipPath id="q"><use style="overflow:visible" xlink:href="#p"/></clipPath><g style="clip-path:url(#q)"><path d="M52.2 25.3c12.5-13.3 25.2-15 37.1-10.9 21 7.2 24.2 26.5 24.6 35.5.3 8-1.1 19.7-2.3 27.7-1.4 8.7-10.2 59.4-13.1 76.1-1.4 8.1 8.1 9.7 9.5 1.6 5.3-30.5 11.1-60.8 15.4-91.5 2.2-15.6-.2-31.1-9.9-42.7C105.3 11.4 94.3 5.2 82 4.6 68.3 3.9 58.3 10.4 49 22c-2.6 3.2 1.5 5.1 3.2 3.3z" style="fill:#5d4037"/><g style="opacity:.2"><path d="M80 6.6c.6 0 1.2 0 1.8.1 11.3.6 22 6.2 30.1 15.8 10.8 12.8 11.1 29.4 9.5 41.1-3.1 22.2-7.1 44.8-11 66.5-1.4 8.1-2.9 16.6-4.4 24.9-.5 2.7-2 3.7-3.2 3.7-.7 0-1.3-.3-1.8-.8-.7-.8-.9-2.2-.7-3.7.7-4.1 1.8-10.1 3-17.1 3.8-22.1 9.1-52.4 10.1-59 .8-5.3 2.7-18.8 2.4-28.1-.3-8.7-3.6-29.6-25.9-37.3-4-1.4-8-2.1-11.8-2.1-9.8 0-19 4.5-27.4 13.4h-.2c-.2 0-.3 0-.3-.1s.1-.3.4-.6C59.8 11.7 68.9 6.6 80 6.6m0-2C67.3 4.6 57.8 11 49 22c-1.9 2.3-.2 4 1.5 4 .6 0 1.3-.2 1.7-.7 8.7-9.2 17.4-12.8 26-12.8 3.8 0 7.5.7 11.2 2 21 7.2 24.2 26.5 24.6 35.5.3 8-1.1 19.7-2.3 27.7-1.4 8.7-10.2 59.4-13.1 76.1-.8 4.4 1.8 6.9 4.4 6.9 2.2 0 4.5-1.7 5.1-5.4 5.3-30.5 11.1-60.8 15.4-91.5 2.2-15.6-.2-31.1-9.9-42.7-8.2-9.7-19.2-15.9-31.5-16.5H80z" style="fill:#eee"/></g><linearGradient id="r" x1="161.293" x2="174.903" y1="750.66" y2="803.388" gradientTransform="rotate(9.294 4230.267 75.04)" gradientUnits="userSpaceOnUse"><stop offset=".167" style="stop-color:#ffa726"/><stop offset=".727" style="stop-color:#fb8c00"/></linearGradient><path d="m108.8 156-10.9-1.8c-1.6-.3-2.7-1.8-2.5-3.4l10.2-62.1c.3-1.6 1.8-2.7 3.4-2.5l10.9 1.8c1.6.3 2.7 1.8 2.5 3.4l-10.2 62.1c-.2 1.6-1.8 2.7-3.4 2.5z" style="fill:url(#r)"/><g style="opacity:.2"><path d="M108.5 88.1h.2l10.9 1.8c.4.1.6.3.7.4s.2.4.2.8l-10.2 62.1c-.1.5-.5.8-1 .8h-.2l-10.9-1.8c-.5-.1-.9-.6-.8-1.1L107.5 89c.1-.5.5-.9 1-.9m0-2c-1.4 0-2.7 1-3 2.5l-10.2 62.1c-.3 1.6.8 3.2 2.5 3.4l10.9 1.8h.5c1.4 0 2.7-1 3-2.5l10.2-62.1c.3-1.6-.8-3.2-2.5-3.4L109 86.2c-.2-.1-.3-.1-.5-.1z" style="fill:#444"/></g><circle cx="96.4" cy="103.5" r="15.7" style="fill:#bdbdbd"/><circle cx="96.4" cy="103.5" r="7.2" style="fill:#757575"/><g style="opacity:.2"><path d="M96.4 89.8c.7 0 1.5.1 2.2.2 7.4 1.2 12.5 8.3 11.3 15.7-1.1 6.7-6.8 11.5-13.5 11.5-.7 0-1.5-.1-2.2-.2-7.4-1.2-12.5-8.3-11.3-15.7 1.1-6.6 6.8-11.5 13.5-11.5m0-2c-7.5 0-14.2 5.5-15.4 13.2-1.4 8.6 4.4 16.6 12.9 18 .9.1 1.7.2 2.6.2 7.5 0 14.2-5.5 15.4-13.2 1.4-8.6-4.4-16.6-12.9-18-.9-.1-1.8-.2-2.6-.2z" style="fill:#444"/><path d="M96.4 98.3c.3 0 .6 0 .8.1 1.4.2 2.6 1 3.4 2.1s1.1 2.5.9 3.9c-.4 2.5-2.6 4.4-5.2 4.4-.3 0-.6 0-.8-.1-2.8-.5-4.8-3.2-4.3-6 .5-2.6 2.6-4.4 5.2-4.4m0-2c-3.5 0-6.6 2.5-7.1 6.1-.7 3.9 2 7.7 6 8.3.4.1.8.1 1.2.1 3.5 0 6.6-2.5 7.1-6.1.7-3.9-2-7.7-6-8.3-.4-.1-.8-.1-1.2-.1z" style="fill:#444"/></g><path d="m95.9 108.9-14.8 10.7c-1.2.9-3 .6-3.9-.6l-.7-.9c-.9-1.2-.6-3 .6-3.9L92 103.5c1.2-.9 3-.6 3.9.6l.7.9c.8 1.3.6 3-.7 3.9z" style="fill:#ffd54f"/><g style="opacity:.2"><path d="M93.6 103.9c.6 0 1.1.3 1.4.7l.7.9c.6.8.4 1.9-.4 2.5l-14.8 10.7c-.3.2-.7.3-1 .3-.6 0-1.1-.3-1.4-.7l-.7-.9c-.6-.8-.4-1.9.4-2.5l14.8-10.7c.3-.1.6-.3 1-.3m0-1c-.6 0-1.1.2-1.6.5l-14.8 10.7c-1.2.9-1.5 2.6-.6 3.9l.7.9c.5.8 1.4 1.2 2.3 1.2.6 0 1.1-.2 1.6-.5L96 108.9c1.2-.9 1.5-2.6.6-3.9l-.7-.9c-.6-.8-1.4-1.2-2.3-1.2z" style="fill:#444"/></g></g></svg>