<svg xmlns="http://www.w3.org/2000/svg" viewBox="0 0 128 128"><radialGradient id="a" cx="64.333" cy="12.667" r="35.358" gradientUnits="userSpaceOnUse"><stop offset="0" stop-color="#757575"/><stop offset=".308" stop-color="#6A6A6A"/><stop offset=".854" stop-color="#4B4B4B"/><stop offset="1" stop-color="#424242"/></radialGradient><path fill="url(#a)" d="M63.99 10c-14.66 0-27.89 6.07-37.34 15.83l4.46 4.46c2.15 2.15 5.58 2.36 7.96.46C45.91 25.28 54.58 22 63.99 22s18.08 3.28 24.92 8.74c2.38 1.9 5.81 1.7 7.96-.46l4.46-4.46C91.88 16.07 78.65 10 63.99 10z"/><path fill="#eee" d="M63.99 13C76.37 13 88 17.54 97.06 25.86l-2.31 2.31c-.57.57-1.32.88-2.12.88-.47 0-1.18-.11-1.84-.64C83.2 22.34 73.69 19 63.99 19c-9.69 0-19.21 3.34-26.79 9.4-.53.42-1.16.64-1.84.64-.8 0-1.56-.31-2.12-.88l-2.31-2.31C39.98 17.54 51.61 13 63.99 13m0-3c-14.66 0-27.89 6.07-37.34 15.83l4.46 4.46a6.005 6.005 0 0 0 4.25 1.76c1.31 0 2.62-.43 3.72-1.3C45.91 25.28 54.58 22 63.99 22c9.42 0 18.08 3.28 24.92 8.74a5.997 5.997 0 0 0 7.97-.46l4.46-4.46C91.88 16.07 78.65 10 63.99 10z" opacity=".2"/><radialGradient id="b" cx="63.833" cy="4" r="74.893" gradientUnits="userSpaceOnUse"><stop offset="0" stop-color="#40C4FF" stop-opacity=".98"/><stop offset="1" stop-color="#0091EA"/></radialGradient><path fill="url(#b)" d="M64 12.32c24.09 0 43.68 19.59 43.68 43.68v27.04H116V56c0-28.67-23.33-52-52-52S12 27.33 12 56v27.04h8.32V56c0-24.09 19.59-43.68 43.68-43.68z"/><path fill="#424242" d="M64 7c27.02 0 49 21.98 49 49v24.04h-2.32V56c0-25.74-20.94-46.68-46.68-46.68S17.32 30.26 17.32 56v24.04H15V56C15 28.98 36.98 7 64 7m0-3C35.33 4 12 27.33 12 56v27.04h8.32V56c0-24.09 19.59-43.68 43.68-43.68S107.68 31.91 107.68 56v27.04H116V56c0-28.67-23.33-52-52-52z" opacity=".2"/><radialGradient id="c" cx="28.667" cy="68.167" r="52.032" gradientUnits="userSpaceOnUse"><stop offset="0" stop-color="#40C4FF"/><stop offset=".685" stop-color="#0091EA"/><stop offset="1" stop-color="#0091EA"/></radialGradient><path fill="url(#c)" d="M29 68C15.75 68 4 79.64 4 94s11.75 26 25 26h12V68H29z"/><path fill="#424242" d="M38 71v46h-9c-11.93 0-22-10.53-22-23s10.07-23 22-23h9m3-3H29C15.75 68 4 79.64 4 94s11.75 26 25 26h12V68z" opacity=".2"/><radialGradient id="d" cx="99.333" cy="67.667" r="52.56" gradientUnits="userSpaceOnUse"><stop offset="0" stop-color="#40C4FF"/><stop offset=".685" stop-color="#0091EA"/><stop offset="1" stop-color="#0091EA"/></radialGradient><path fill="url(#d)" d="M99 68c13.25 0 25 11.64 25 26s-11.75 26-25 26H87V68h12z"/><path fill="#424242" d="M99 71c11.93 0 22 10.53 22 23s-10.07 23-22 23h-9V71h9m0-3H87v52h12c13.25 0 25-11.64 25-26s-11.75-26-25-26z" opacity=".2"/><radialGradient id="e" cx="35.667" cy="64.167" r="59.845" gradientUnits="userSpaceOnUse"><stop offset="0" stop-color="#757575"/><stop offset=".308" stop-color="#6A6A6A"/><stop offset=".854" stop-color="#4B4B4B"/><stop offset="1" stop-color="#424242"/></radialGradient><path fill="url(#e)" d="M37.07 124h-2.14c-3.83 0-6.93-3.1-6.93-6.93V70.93C28 67.1 31.1 64 34.93 64h2.14C40.9 64 44 67.1 44 70.93v46.14c0 3.83-3.1 6.93-6.93 6.93z"/><radialGradient id="f" cx="91.667" cy="64.333" r="59.53" gradientUnits="userSpaceOnUse"><stop offset="0" stop-color="#757575"/><stop offset=".308" stop-color="#6A6A6A"/><stop offset=".854" stop-color="#4B4B4B"/><stop offset="1" stop-color="#424242"/></radialGradient><path fill="url(#f)" d="M90.93 124h2.14c3.83 0 6.93-3.1 6.93-6.93V70.93c0-3.83-3.1-6.93-6.93-6.93h-2.14C87.1 64 84 67.1 84 70.93v46.14c0 3.83 3.1 6.93 6.93 6.93z"/><path fill="#eee" d="M37.07 67A3.93 3.93 0 0 1 41 70.93v46.14a3.93 3.93 0 0 1-3.93 3.93h-2.14a3.93 3.93 0 0 1-3.93-3.93V70.93A3.93 3.93 0 0 1 34.93 67h2.14m0-3h-2.14C31.1 64 28 67.1 28 70.93v46.14c0 3.83 3.1 6.93 6.93 6.93h2.14c3.83 0 6.93-3.1 6.93-6.93V70.93C44 67.1 40.9 64 37.07 64z" opacity=".2"/><path fill="#616161" d="M44 76h-7c-.55 0-1-.45-1-1v-2c0-.55.45-1 1-1h7v4zm0 8h-7c-.55 0-1-.45-1-1v-2c0-.55.45-1 1-1h7v4zm0 8h-7c-.55 0-1-.45-1-1v-2c0-.55.45-1 1-1h7v4zm0 8h-7c-.55 0-1-.45-1-1v-2c0-.55.45-1 1-1h7v4zm0 8h-7c-.55 0-1-.45-1-1v-2c0-.55.45-1 1-1h7v4zm0 8h-7c-.55 0-1-.45-1-1v-2c0-.55.45-1 1-1h7v4zm40-40h7c.55 0 1-.45 1-1v-2c0-.55-.45-1-1-1h-7v4zm0 8h7c.55 0 1-.45 1-1v-2c0-.55-.45-1-1-1h-7v4zm0 8h7c.55 0 1-.45 1-1v-2c0-.55-.45-1-1-1h-7v4zm0 8h7c.55 0 1-.45 1-1v-2c0-.55-.45-1-1-1h-7v4zm0 8h7c.55 0 1-.45 1-1v-2c0-.55-.45-1-1-1h-7v4zm0 8h7c.55 0 1-.45 1-1v-2c0-.55-.45-1-1-1h-7v4z" opacity=".2"/><path fill="#eee" d="M93.07 67A3.93 3.93 0 0 1 97 70.93v46.14a3.93 3.93 0 0 1-3.93 3.93h-2.14a3.93 3.93 0 0 1-3.93-3.93V70.93A3.93 3.93 0 0 1 90.93 67h2.14m0-3h-2.14C87.1 64 84 67.1 84 70.93v46.14c0 3.83 3.1 6.93 6.93 6.93h2.14c3.83 0 6.93-3.1 6.93-6.93V70.93c0-3.83-3.1-6.93-6.93-6.93z" opacity=".2"/></svg>