<svg xmlns="http://www.w3.org/2000/svg" viewBox="0 0 128 128"><radialGradient id="a" cx="23.75" cy="13.875" r="77.71" gradientUnits="userSpaceOnUse"><stop offset="0" stop-color="#40C4FF"/><stop offset=".381" stop-color="#3EC2FE"/><stop offset=".546" stop-color="#37BDFC"/><stop offset=".669" stop-color="#2AB3F8"/><stop offset=".771" stop-color="#18A5F2"/><stop offset=".849" stop-color="#0595EC"/><stop offset="1" stop-color="#0091EA"/></radialGradient><path fill="url(#a)" d="M52 38.86c-.09-13.04-2.26-16.72-16.03-27.07-5.73-4.31-4.6-7.32-6.15-7.74C28.9 3.8 28 4.48 28 5.41v45.81c0 .61-.55 1.09-1.15.98-5.19-.9-11.53 1.29-16.45 6.2-7.07 7.07-8.5 17.1-3.2 22.4s15.33 3.87 22.4-3.2c4.52-4.52 6.72-10.23 6.35-15.16l.02-39.78c0-.73.73-1.13 1.43-.91 2.63.83 11.41 4.29 12.04 17.81.06 1.36 2.58 1.62 2.56-.7z"/><radialGradient id="b" cx="46.125" cy="51.375" r="77.71" gradientUnits="userSpaceOnUse"><stop offset="0" stop-color="#40C4FF"/><stop offset=".381" stop-color="#3EC2FE"/><stop offset=".546" stop-color="#37BDFC"/><stop offset=".669" stop-color="#2AB3F8"/><stop offset=".771" stop-color="#18A5F2"/><stop offset=".849" stop-color="#0595EC"/><stop offset="1" stop-color="#0091EA"/></radialGradient><path fill="url(#b)" d="M72 78.86c-.09-13.04-2.26-16.72-16.03-27.07-5.73-4.31-4.6-7.32-6.15-7.74-.92-.25-1.82.43-1.82 1.36v45.81c0 .61-.55 1.09-1.15.98-5.19-.9-11.53 1.29-16.45 6.2-7.07 7.07-8.5 17.1-3.2 22.4s15.33 3.87 22.4-3.2c4.52-4.52 6.72-10.23 6.35-15.16l.02-39.78c0-.73.73-1.13 1.43-.91 2.63.83 11.41 4.29 12.04 17.81.06 1.36 2.58 1.62 2.56-.7z"/><radialGradient id="c" cx="98.5" cy="14.625" r="77.71" gradientUnits="userSpaceOnUse"><stop offset="0" stop-color="#40C4FF"/><stop offset=".381" stop-color="#3EC2FE"/><stop offset=".546" stop-color="#37BDFC"/><stop offset=".669" stop-color="#2AB3F8"/><stop offset=".771" stop-color="#18A5F2"/><stop offset=".849" stop-color="#0595EC"/><stop offset="1" stop-color="#0091EA"/></radialGradient><path fill="url(#c)" d="M124 38.86c-.09-13.04-2.26-16.72-16.03-27.07-5.73-4.31-4.6-7.32-6.15-7.74-.92-.25-1.82.43-1.82 1.36v45.81c0 .61-.55 1.09-1.15.98-5.19-.9-11.53 1.29-16.45 6.2-7.07 7.07-8.5 17.1-3.2 22.4s15.33 3.87 22.4-3.2c4.52-4.52 6.72-10.23 6.35-15.16l.02-39.78c0-.73.73-1.13 1.43-.91 2.63.83 11.41 4.29 12.04 17.81.06 1.36 2.58 1.62 2.56-.7z"/><path fill="#424242" d="M31 11.33c.8.9 1.83 1.86 3.16 2.86 3.27 2.46 5.83 4.48 7.83 6.31-1.41-.8-2.71-1.3-3.69-1.61-.42-.13-.86-.2-1.3-.2-2.26 0-4.04 1.74-4.04 3.97l-.02 39.78v.11l.01.11c.32 4.27-1.73 9.06-5.48 12.82C24.02 78.94 19.55 81 15.51 81c-1.76 0-4.27-.4-6.19-2.32-1.88-1.88-2.66-4.72-2.19-7.99.51-3.59 2.43-7.2 5.39-10.16C15.98 57.07 20.45 55 24.49 55c.64 0 1.26.05 1.85.15.22.04.45.06.68.06 2.2 0 3.98-1.79 3.98-4V11.33M29.43 4C28.66 4 28 4.62 28 5.41v45.81c0 .56-.45 1-.98 1-.06 0-.11 0-.17-.01-.76-.13-1.55-.2-2.36-.2-4.67 0-9.9 2.21-14.09 6.4-7.07 7.07-8.5 17.1-3.2 22.4 2.16 2.16 5.1 3.2 8.31 3.2 4.67 0 9.9-2.21 14.09-6.4 4.52-4.52 6.72-10.23 6.35-15.16l.02-39.78c0-.6.48-.97 1.04-.97.13 0 .26.02.39.06 2.63.83 11.41 4.29 12.04 17.81.03.64.6 1.03 1.2 1.03.67 0 1.38-.5 1.37-1.74-.09-13.04-2.26-16.72-16.03-27.07-5.73-4.31-4.6-7.32-6.15-7.74-.15-.03-.28-.05-.4-.05z" opacity=".2"/><path fill="#424242" d="M51 51.33c.8.9 1.83 1.86 3.16 2.86 3.27 2.46 5.83 4.48 7.83 6.31-1.41-.8-2.71-1.3-3.69-1.61-.42-.13-.86-.2-1.3-.2-2.26 0-4.04 1.74-4.04 3.97l-.02 39.78v.11l.01.11c.32 4.27-1.73 9.06-5.48 12.82-3.46 3.46-7.93 5.52-11.97 5.52-1.76 0-4.27-.4-6.19-2.32-1.88-1.88-2.66-4.72-2.19-7.99.51-3.59 2.43-7.2 5.39-10.16C35.98 97.07 40.45 95 44.49 95c.64 0 1.26.05 1.85.15.22.04.45.06.68.06 2.2 0 3.98-1.79 3.98-4V51.33M49.43 44c-.77 0-1.43.62-1.43 1.41v45.81c0 .56-.45 1-.98 1-.06 0-.11 0-.17-.01-.76-.13-1.55-.2-2.36-.2-4.67 0-9.9 2.21-14.09 6.4-7.07 7.07-8.5 17.1-3.2 22.4 2.16 2.16 5.1 3.2 8.31 3.2 4.67 0 9.9-2.21 14.09-6.4 4.52-4.52 6.72-10.23 6.35-15.16l.02-39.78c0-.6.48-.97 1.04-.97.13 0 .26.02.39.06 2.63.83 11.41 4.29 12.04 17.81.03.64.6 1.03 1.2 1.03.67 0 1.38-.5 1.37-1.74-.09-13.04-2.26-16.72-16.03-27.07-5.73-4.31-4.6-7.32-6.15-7.74-.15-.03-.28-.05-.4-.05zM103 11.33c.8.9 1.83 1.86 3.16 2.86 3.27 2.46 5.83 4.48 7.83 6.31-1.41-.8-2.71-1.3-3.69-1.61-.42-.13-.86-.2-1.3-.2-2.26 0-4.04 1.74-4.04 3.97l-.02 39.78v.11l.01.11c.32 4.27-1.73 9.06-5.48 12.82C96.02 78.94 91.55 81 87.51 81c-1.76 0-4.27-.4-6.19-2.32-1.88-1.88-2.66-4.72-2.19-7.99.51-3.59 2.43-7.2 5.39-10.16C87.98 57.07 92.45 55 96.49 55c.64 0 1.26.05 1.85.15.22.04.45.06.68.06 2.2 0 3.98-1.79 3.98-4V11.33M101.43 4c-.77 0-1.43.62-1.43 1.41v45.81c0 .56-.45 1-.98 1-.06 0-.11 0-.17-.01-.76-.13-1.55-.2-2.36-.2-4.67 0-9.9 2.21-14.09 6.4-7.07 7.07-8.5 17.1-3.2 22.4 2.16 2.16 5.1 3.2 8.31 3.2 4.67 0 9.9-2.21 14.09-6.4 4.52-4.52 6.72-10.23 6.35-15.16l.02-39.78c0-.6.48-.97 1.04-.97.13 0 .26.02.39.06 2.63.83 11.41 4.29 12.04 17.81.03.64.6 1.03 1.2 1.03.67 0 1.38-.5 1.37-1.74-.09-13.04-2.26-16.72-16.03-27.07-5.73-4.31-4.6-7.32-6.15-7.74-.15-.03-.28-.05-.4-.05z" opacity=".2"/></svg>