<svg xmlns="http://www.w3.org/2000/svg" xmlns:xlink="http://www.w3.org/1999/xlink" viewBox="0 0 128 128"><linearGradient id="a" x1="64" x2="64" y1="13.667" y2="104" gradientUnits="userSpaceOnUse"><stop offset=".135" stop-color="#EF5350"/><stop offset=".842" stop-color="#E53935"/></linearGradient><path fill="url(#a)" d="M100 124H28c-4.42 0-8-3.58-8-8V12c0-4.42 3.58-8 8-8h72c4.42 0 8 3.58 8 8v104c0 4.42-3.58 8-8 8z"/><circle cx="52.17" cy="39.83" r="22.5" fill="#F5F5F5"/><defs><path id="b" d="M100 124H28c-4.42 0-8-3.58-8-8V12c0-4.42 3.58-8 8-8h72c4.42 0 8 3.58 8 8v104c0 4.42-3.58 8-8 8z"/></defs><clipPath id="d"><use xlink:href="#b"/></clipPath><linearGradient id="c" x1="52.957" x2="62.457" y1="53.358" y2="101.36" gradientUnits="userSpaceOnUse"><stop offset="0" stop-color="#757575"/><stop offset="1" stop-color="#424242"/></linearGradient><path fill="url(#c)" d="M108.67 134.67H17.33l-6.67-35.33s49.76-38.28 89.33-18c26.68 13.66 8.8 53.28 8.68 53.33z" clip-path="url(#d)"/><path fill="#424242" d="M100 8c2.21 0 4 1.79 4 4v104c0 2.21-1.79 4-4 4H28c-2.21 0-4-1.79-4-4V12c0-2.21 1.79-4 4-4h72m0-4H28c-4.42 0-8 3.58-8 8v104c0 4.42 3.58 8 8 8h72c4.42 0 8-3.58 8-8V12c0-4.42-3.58-8-8-8z" opacity=".2"/></svg>