<svg xmlns="http://www.w3.org/2000/svg" xmlns:xlink="http://www.w3.org/1999/xlink" style="enable-background:new 0 0 128 128" viewBox="0 0 128 128" xml:space="preserve"><linearGradient id="a" x1="52.622" x2="49.872" y1="737.631" y2="807.131" gradientTransform="translate(0 -713.89)" gradientUnits="userSpaceOnUse"><stop offset=".004" style="stop-color:#5e6bb2"/><stop offset="1" style="stop-color:#3f4da1"/></linearGradient><path d="m38.6 56.3-1.7 11.5c-.9 6-2.4 12.4-5.9 17.3l-2.4 3.4L39 98.9l2.8-2.1c5.3-3.9 12.2-5.6 18.8-6.4L71.5 89s-10.3-3.1-20.1-12.9-12.8-19.8-12.8-19.8zm2.5 30.3c-4.1-4.1 1.7-17.9 1.7-17.9l16 16s-13.6 6-17.7 1.9z" style="fill:url(#a)"/><path d="M102.31 1.86h2.2v46.2h-2.2z" style="fill:#a0a8d5" transform="rotate(-45.001 103.413 24.964)"/><path d="M93.42 1.39h2.2v64.9h-2.2z" style="fill:#a0a8d5" transform="rotate(-45.001 94.517 33.845)"/><path d="M84.52 8.63h2.2v68.2h-2.2z" style="fill:#a0a8d5" transform="rotate(-45.001 85.622 42.727)"/><path d="M75.66 17.4h2.2v68.2h-2.2z" style="fill:#a0a8d5" transform="rotate(-45.001 76.761 51.503)"/><path d="M66.57 29.38h2.2v61.4h-2.2z" style="fill:#a0a8d5" transform="rotate(-45.001 67.667 60.079)"/><path d="M57.63 46.91h2.2v44.1h-2.2z" style="fill:#a0a8d5" transform="rotate(-45.001 58.725 68.965)"/><path d="M56.43 59.07h73.5v2.2h-73.5z" style="fill:#a0a8d5" transform="rotate(-45.001 93.176 60.167)"/><path d="M35.47 46.62h90.4v2.2h-90.4z" style="fill:#a0a8d5" transform="rotate(-45.001 80.673 47.718)"/><path d="M44.96 52.79h83.9v2.2h-83.9z" style="fill:#a0a8d5" transform="rotate(-45.001 86.905 53.893)"/><path d="M29.54 33.93h78.2v2.2h-78.2z" style="fill:#a0a8d5" transform="rotate(-45.001 68.635 35.027)"/><path d="M32.32 40.09h85.1v2.2h-85.1z" style="fill:#a0a8d5" transform="rotate(-45.001 74.87 41.194)"/><path d="M33.73 27.61h57.6v2.2h-57.6z" style="fill:#a0a8d5" transform="rotate(-45.001 62.532 28.713)"/><path d="M73.48 64.79h52.6v2.2h-52.6z" style="fill:#a0a8d5" transform="rotate(-45.001 99.777 65.89)"/><linearGradient id="b" x1="218.7" x2="257.409" y1="450.823" y2="507.101" gradientTransform="rotate(45.001 692.742 70.78)" gradientUnits="userSpaceOnUse"><stop offset=".004" style="stop-color:#5e6bb2"/><stop offset="1" style="stop-color:#3f4da1"/></linearGradient><path d="M109.2 18.5c5.2 5.2 7.4 12.9 6.3 21.7-1.2 9.6-6.2 19.1-14 26.9S84.1 80 74.5 81.2c-8.8 1.2-16.5-1.1-21.7-6.3S45.4 62 46.5 53.2c1.2-9.6 6.2-19.1 14-26.9s17.4-12.8 26.9-14c8.9-1.2 16.6 1.1 21.8 6.2m5.4-5.4c-14.3-14.3-41-10.8-59.5 7.8S33 66.1 47.3 80.4s40.9 10.8 59.5-7.8 22.1-45.2 7.8-59.5z" style="fill:url(#b)"/><g style="opacity:.2"><path d="M91.9 6.3c8.6 0 15.9 2.8 21.3 8.2 13.5 13.5 10 38.9-7.8 56.7-9.8 9.8-22.3 15.6-34.3 16h-.2l-10.7 1.3c-8.5 1.1-14.9 3.3-19.7 6.7l-1.4 1-8-8 1.5-2.1c3.9-5.5 5.3-12.6 6.2-18.1l1.7-11.3v-.2c.4-12 6.2-24.5 16-34.2 10.1-10.2 23-16 35.4-16M70 83.5c1.5 0 3.1-.1 4.7-.3 10-1.3 20-6.5 28.1-14.6s13.3-18.1 14.6-28.1c1.2-9.5-1.2-17.8-6.8-23.4-4.7-4.7-11.1-7.1-18.7-7.1-1.5 0-3.1.1-4.7.3-10 1.3-20 6.5-28.1 14.6S45.8 43 44.5 53c-1.2 9.5 1.2 17.8 6.8 23.4 4.7 4.7 11.2 7.1 18.7 7.1M45.7 90c3.4 0 7.5-1.1 10.2-2.1.8-.3 1.3-1 1.3-1.8s-.4-1.6-1.1-1.9c-2.8-1.3-5.3-3.1-7.5-5.2-2.2-2.2-4-4.8-5.4-7.7-.3-.7-1-1.2-1.8-1.2h-.1c-.8.1-1.5.6-1.8 1.4-2.5 8.2-2.5 13.8.2 16.5 1.4 1.3 3.4 2 6 2M91.9 4.3C79.6 4.3 66 10 55.1 20.9 44.6 31.4 38.9 44.5 38.5 56.5l-1.7 11.3c-.8 6-2.3 12.4-5.8 17.3l-2.4 3.4L39 98.9l2.8-2.1c5.3-3.9 12.2-5.6 18.8-6.4l10.7-1.3c12-.3 25.1-6 35.6-16.5 18.6-18.6 22.1-45.2 7.8-59.5-6-5.9-14.1-8.8-22.8-8.8zM70 81.5c-7 0-13-2.3-17.3-6.6-5.2-5.2-7.4-12.9-6.3-21.7 1.2-9.6 6.2-19.1 14-26.9s17.4-12.8 26.9-14c1.5-.2 3-.3 4.5-.3 6.9 0 13 2.3 17.3 6.6 5.2 5.2 7.4 12.9 6.3 21.7-1.2 9.6-6.2 19.1-14 26.9S84 80 74.5 81.2c-1.6.2-3 .3-4.5.3zM45.7 88c-1.9 0-3.6-.4-4.6-1.4-2.8-2.8-1-10.1.4-14.5 1.4 3.1 3.3 5.8 5.8 8.3 2.4 2.4 5.1 4.2 8 5.6-2.7 1-6.4 2-9.6 2z" style="fill:#434343"/></g><path d="M6.92 95.69h33.8v16.5H6.92z" style="fill:#616262" transform="rotate(-45.001 23.816 103.94)"/><path d="M38.1 100.5 27 89.3c-.8-.8-.8-2.1 0-2.8l.3-.3c.8-.8 2-.8 2.8 0l11.1 11.2c.8.8.8 2.1 0 2.8l-.3.3c-.7.8-2 .8-2.8 0zm-21.9 21.9L5.1 111.2c-.8-.8-.8-2.1 0-2.8l.3-.3c.8-.8 2-.8 2.8 0l11.1 11.2c.8.8.8 2.1 0 2.8l-.3.3c-.7.8-2 .8-2.8 0z" style="fill:#616262"/><g style="opacity:.2"><path d="M28.7 87.7s.1 0 .1.1l10.9 10.9v.1s.1.1 0 .2c0 0 0 .1-.1.1h-.1c-.3-.1-.6-.2-.9-.2-.5 0-1 .2-1.4.6l-19 19c-.6.6-.8 1.5-.4 2.3 0 0 .1.1 0 .2l-.1.1s-.1 0-.1-.1l-11-11.1c-.1-.1-.1-.2 0-.3l.1-.1h.1c.3.2.8.4 1.2.4.5 0 1-.2 1.4-.6l18.8-18.8c.7-.7.8-1.8.2-2.6 0-.1-.1-.2 0-.2h.3m0-2c-.6 0-1.1.2-1.5.6-.8.8-.8 2-.2 2.8L8 108c-.4-.3-.8-.4-1.3-.4-.6 0-1.1.2-1.5.6-.9.9-.9 2.2 0 3.1l10.9 10.9c.4.4 1 .6 1.5.6s1.1-.2 1.5-.6c.7-.7.8-1.7.4-2.5l19-19c.3.1.6.2 1 .2.6 0 1.1-.2 1.5-.6.7-.7.8-1.7.4-2.5l-.1-.1c-.1-.2-.2-.3-.3-.4L30.2 86.4c-.4-.5-1-.7-1.5-.7z" style="fill:#eee"/></g><path d="m30.8 108.6-9.4-13.9 3.8-3.8 9.3 14zm-8.1 8.1-9.3-14 3.8-3.8 9.3 14z" style="fill:#c2ea2f"/><radialGradient id="c" cx="34.589" cy="739.362" r="24.345" gradientTransform="translate(0 -713.89)" gradientUnits="userSpaceOnUse"><stop offset="0" style="stop-color:#faff42"/><stop offset=".695" style="stop-color:#c7e842"/></radialGradient><circle cx="35" cy="35.2" r="23" style="fill:url(#c)"/><defs><circle id="d" cx="35" cy="35.2" r="23"/></defs><clipPath id="e"><use style="overflow:visible" xlink:href="#d"/></clipPath><path d="M13.6 10.5S28 18.7 28 35.4 13.6 59.8 13.6 59.8" style="clip-path:url(#e);fill:none;stroke:#f5f5f5;stroke-width:3;stroke-miterlimit:10"/><defs><circle id="f" cx="35" cy="35.2" r="23"/></defs><clipPath id="g"><use style="overflow:visible" xlink:href="#f"/></clipPath><path d="M56.4 10.5S42 18.7 42 35.4s14.4 24.4 14.4 24.4" style="clip-path:url(#g);fill:none;stroke:#f5f5f5;stroke-width:3;stroke-miterlimit:10"/><g style="opacity:.2"><path d="M35 15.2c11 0 20 9 20 20s-9 20-20 20-20-9-20-20 9-20 20-20m0-3c-12.7 0-23 10.3-23 23s10.3 23 23 23 23-10.3 23-23-10.3-23-23-23z" style="fill:#434343"/></g></svg>