<svg xmlns="http://www.w3.org/2000/svg" style="enable-background:new 0 0 128 128" viewBox="0 0 128 128" xml:space="preserve"><radialGradient id="a" cx="40" cy="86" r="81.904" gradientTransform="matrix(-.1861 .9825 .7651 .1449 -18.353 -9.76)" gradientUnits="userSpaceOnUse"><stop offset="0" style="stop-color:#ffd740"/><stop offset=".173" style="stop-color:#ffd435"/><stop offset=".478" style="stop-color:#ffcb17"/><stop offset=".68" style="stop-color:#ffc400"/><stop offset="1" style="stop-color:#ffab00"/></radialGradient><path d="M110.86 23.9s-1.17-2.34-3.53-3.7c-3.21-1.85-4.4-7.69-6.9-11-3.02-3.99-7.85-5.18-10.11-5.2-4.44-.04-7.56 1.47-10.67 6.64-.87 1.45-24.91 52.96-33.88 72.21-.31.67-.83.27-1.13-.41-2.51-5.69 2.17-17.1 3.71-21.03 1.14-2.91 4.95-7.16 4.95-9.31 0-6.99-11.11-8.02-25.4-8.02C5.68 44.09 4 47.94 4 51.86c0 4.07 6.61 5.17 7.54 12.26.39 2.95-1.87 12.96-3.01 18.52-3.99 19.28 2.77 34.96 16.3 39.58 13.75 4.69 29.8.4 37.08-16.47 5.05-11.71 19.01-63.46 21.46-70.01 2.19-5.86 5.43-17.64 8.15-17.93 1.68-.17 3.64 6.98 11.07 9.24 5.21 1.59 12.45 1.6 12.45 1.6l-4.18-4.75z" style="fill:url(#a)"/><linearGradient id="b" x1="110.665" x2="114.624" y1="110.376" y2="95.413" gradientTransform="scale(1 -1) rotate(-5.043 -1347.038 44.564)" gradientUnits="userSpaceOnUse"><stop offset="0" style="stop-color:#999898"/><stop offset=".995" style="stop-color:#504f4f"/></linearGradient><path d="M121.49 29.41c-.65-.52-.98-1.06-1.26-1.86-.36-1.01-.72-1.97-1.32-2.87-1.09-1.64-2.82-2.7-4.82-3.93-1.05-.65-2.14-1.3-3.24-2.13-1.34-.98-3.89-.79-4.65.83.44.45.87.76 1.04 1.05.84 1.51.28 3.23-.34 4.48-.73 1.47-3.09 2.53-5.12 1.89-.13.37-.22.94-.26 1.34-.05.44.09.94.25 1.33a3.26 3.26 0 0 0 1.98 1.83c1.96.64 3.95 1.32 5.93 2 2.47.84 4.98 1.59 7.43 2.49 1.06.39 4.34 1.4 5.04 1.35 3.64-.29 3.52-4.47-.66-7.8z" style="fill:url(#b)"/><path d="M67.54 32.43c-.46 1-.02 2.19.98 2.65l3.63 1.67c1 .46 2.19.02 2.65-.98s.02-2.19-.98-2.65l-3.63-1.67c-1-.46-2.18-.02-2.65.98z" style="fill:#f4511e"/><ellipse cx="68.95" cy="33.13" rx="6" ry="4" style="fill:#ff7043" transform="rotate(-65.29 68.958 33.128)"/><path d="M60.86 46.97c-.46 1-.02 2.19.98 2.65l3.63 1.67c1 .46 2.19.02 2.65-.98s.02-2.19-.98-2.65l-3.63-1.67a1.981 1.981 0 0 0-2.65.98z" style="fill:#f4511e"/><ellipse cx="62.26" cy="47.66" rx="6" ry="4" style="fill:#ff7043" transform="rotate(-65.29 62.263 47.66)"/><path d="M54.17 61.5c-.46 1-.02 2.19.98 2.65l3.63 1.67c1 .46 2.19.02 2.65-.98s.02-2.19-.98-2.65l-3.63-1.67c-1-.46-2.19-.02-2.65.98z" style="fill:#f4511e"/><ellipse cx="55.58" cy="62.2" rx="6" ry="4" style="fill:#ff7043" transform="rotate(-65.29 55.578 62.2)"/></svg>