<svg xmlns="http://www.w3.org/2000/svg" style="enable-background:new 0 0 128 128" viewBox="0 0 128 128" xml:space="preserve"><path d="M7.71 105.91h26.08v3.33H7.71z" style="fill:#444343" transform="rotate(-35.214 20.746 107.575)"/><path d="M19 94.21h3.33v26.08H19z" style="fill:#444343" transform="rotate(-51.872 20.67 107.253)"/><path d="M90.87 105.54h26.08v3.33H90.87z" style="fill:#444343" transform="rotate(-35.214 103.904 107.209)"/><path d="M102.17 93.84h3.33v26.08h-3.33z" style="fill:#444343" transform="rotate(-51.872 103.842 106.881)"/><path d="M104 89.5c-9.53 0-17.25 7.72-17.25 17.25S94.47 124 104 124s17.25-7.72 17.25-17.25S113.53 89.5 104 89.5zm0 28.6c-6.27 0-11.35-5.08-11.35-11.35S97.73 95.4 104 95.4s11.35 5.08 11.35 11.35-5.08 11.35-11.35 11.35z" style="fill:#444343"/><radialGradient id="a" cx="104" cy="21.25" r="7.02" gradientTransform="matrix(1 0 0 -1 0 128)" gradientUnits="userSpaceOnUse"><stop offset=".009" style="stop-color:#e0e0e0"/><stop offset=".174" style="stop-color:#dbdbdb"/><stop offset=".381" style="stop-color:#cbcbcb"/><stop offset=".61" style="stop-color:#b1b1b1"/><stop offset=".854" style="stop-color:#8e8e8e"/><stop offset="1" style="stop-color:#757575"/></radialGradient><circle cx="104" cy="106.75" r="7.02" style="fill:url(#a)"/><circle cx="104" cy="106.75" r="3.23" style="fill:#666"/><path d="M34.75 76.92c.42-.17.92-1.08 4.33-2.5 3.42-1.42 5.25-1.42 8.17.25s23.83 11.92 26.58 13.5 8.58 7.75 10.42 9.5v15.92l-49.5-36.67z" style="fill:#424242"/><path d="M87.1 80.87c.78-.29 1.68-.57 2.4-.15.51.3.77.87 1 1.41l2.67 6.18c-5.38 2.37-10.89 4.48-16.48 6.3-.63.21-3.24-4.22-3.56-4.78-.91-1.6-1.51-2.87.35-3.88 4.12-2.23 9.23-3.44 13.62-5.08z" style="fill:#999"/><path d="M20.83 89.88c-9.53 0-17.25 7.72-17.25 17.25s7.72 17.25 17.25 17.25 17.25-7.72 17.25-17.25-7.72-17.25-17.25-17.25zm0 28.6c-6.27 0-11.35-5.08-11.35-11.35s5.08-11.35 11.35-11.35 11.35 5.08 11.35 11.35-5.08 11.35-11.35 11.35z" style="fill:#444343"/><radialGradient id="b" cx="20.83" cy="20.88" r="7.02" gradientTransform="matrix(1 0 0 -1 0 128)" gradientUnits="userSpaceOnUse"><stop offset=".009" style="stop-color:#e0e0e0"/><stop offset=".174" style="stop-color:#dbdbdb"/><stop offset=".381" style="stop-color:#cbcbcb"/><stop offset=".61" style="stop-color:#b1b1b1"/><stop offset=".854" style="stop-color:#8e8e8e"/><stop offset="1" style="stop-color:#757575"/></radialGradient><circle cx="20.83" cy="107.12" r="7.02" style="fill:url(#b)"/><circle cx="20.83" cy="107.12" r="3.23" style="fill:#666"/><path d="M99.75 101.25 71 95.62l.12 5.75 27.5 5.5c.47-2.22.59-3.41 1.13-5.62z" style="fill:gray"/><linearGradient id="c" x1="78.57" x2="124.08" y1="27.288" y2="27.288" gradientTransform="matrix(1 0 0 -1 0 128)" gradientUnits="userSpaceOnUse"><stop offset=".009" style="stop-color:#e0e0e0"/><stop offset=".174" style="stop-color:#dbdbdb"/><stop offset=".381" style="stop-color:#cbcbcb"/><stop offset=".61" style="stop-color:#b1b1b1"/><stop offset=".854" style="stop-color:#8e8e8e"/><stop offset="1" style="stop-color:#757575"/></linearGradient><path d="M79.58 108.6c3.87-1.6 11.26-4.55 13.71-5.52.51-.2.88-.65 1-1.19l.16-.76c.11-.53.48-.98.99-1.18l24.83-10.15c.82-.34 1.76.04 2.12.86l1.55 3.49c.37.84-.02 1.82-.86 2.18L98.6 106.74c-.47.2-1.01.17-1.45-.08l-.91-.52c-.43-.25-.96-.28-1.42-.1l-13.98 5.59c-.57.23-1.21.12-1.68-.28-.95-.78-.71-2.28.42-2.75z" style="fill:url(#c)"/><path d="M20.78 107.19c-.71-.17-1.14-.89-.96-1.59l2.43-9.83c.17-.7.88-1.13 1.59-.96.7.17 1.13.88.96 1.59l-2.43 9.83c-.17.7-.88 1.13-1.59.96z" style="fill:#ccc"/><path d="M18.06 73.74c.92.45 2.37 1.47 3.44 2.4.25.55.21 1.33-.11 2.17-.46 1.18-1.6 2.65-3.49 3.54-.75-2.96-.7-5.63.16-8.11m-.6-1.23c-1.75 4.12-1.06 7.97-.23 10.68 4.35-1.41 6.29-5.55 5.07-7.68-.86-.76-3.59-2.92-4.84-3z" style="fill:#bfbebe"/><path d="M33 78.02a1.998 1.998 0 0 1-1.86-2.74l3.1-7.8c.15-.38.55-1.39 1.67-1.82 1.04-.4 2.1.06 2.63.37.05.03.11.07.16.1l4.48 3.21c.9.64 1.11 1.89.46 2.79a1.99 1.99 0 0 1-2.79.46l-3.39-2.42-2.62 6.58c-.3.79-1.05 1.27-1.84 1.27z" style="fill:#504f4f"/><linearGradient id="d" x1="48.361" x2="48.361" y1="70.167" y2="14.329" gradientTransform="matrix(1 0 0 -1 0 128)" gradientUnits="userSpaceOnUse"><stop offset=".009" style="stop-color:#ffeb3b"/><stop offset=".23" style="stop-color:#fdd333"/><stop offset=".514" style="stop-color:#fbbb2b"/><stop offset=".778" style="stop-color:#f9ad27"/><stop offset="1" style="stop-color:#f9a825"/></linearGradient><path d="M76.95 113.58c2.41 0 3.51-3 1.67-4.55-4.39-3.7-9.95-8.66-11.03-10.86-1.83-3.75.25-4.67-9.5-11.58-7.1-5.04-10.14-7.03-11.26-7.73-.36-.23-.77-.36-1.19-.39-1.79-.11-7.06-.52-10.88-1.55-4.67-1.25-11.42-7.17-4.17-11.67s14.25-5.67 8.42-7.33c-4.44-1.27-14.92 5.33-20.08 11.75-.55.69-1.01 1.42-1.39 2.18-.48.98-.09 1.65.89 2.68.02.02.05.03.07.05.36.24.61.6.75 1.01.55 1.61.49 3.97-1.19 5.41-.84.71-1.12 1.92-.66 2.92.95 2.06 2.39 3.61 4.11 4.18 5.08 1.67 6.5 6.58 8.08 7.92 1.58 1.33 7.67 6.17 8.83 9.25.64 1.7.83 4.05.87 5.82a2.56 2.56 0 0 0 2.55 2.51h35.11v-.02z" style="fill:url(#d)"/><linearGradient id="e" x1="93.522" x2="93.522" y1="87.379" y2="72.303" gradientUnits="userSpaceOnUse"><stop offset="0" style="stop-color:#212121"/><stop offset=".589" style="stop-color:#616161"/></linearGradient><path d="M114 71c2-1 2.5-2.74 2.75-4.61-8.09.43-20.45 3.29-21.33 3.95-1.33 1-3.17 4.75-7.5 5.42s-13.17 1.5-13.17 1.5S68.17 85 71 86.58l2.83 1.58 6.75-3.33s4.18-.26 7.18.73C92.88 82.14 97.44 77.42 102 74c2-2 8-1 12-3z" style="fill:url(#e)"/><linearGradient id="f" x1="112.51" x2="122.76" y1="53.942" y2="40.192" gradientTransform="matrix(1 0 0 -1 0 128)" gradientUnits="userSpaceOnUse"><stop offset=".008" style="stop-color:#bdbdbd"/><stop offset=".182" style="stop-color:#b6b6b6"/><stop offset=".442" style="stop-color:#a1a1a1"/><stop offset=".754" style="stop-color:gray"/><stop offset="1" style="stop-color:#616161"/></linearGradient><path d="M121.45 87.38c.75.37 1.76.67 2.35.08.6-.61.27-1.63-.11-2.39-1.33-2.69-2.84-5.3-4.51-7.8-.63-.93-1.33-1.9-2.37-2.33-1.53-.63-3.8.09-4.93 1.27-1.35 1.41.01 2.78.99 4.07 2.27 2.97 5.22 5.43 8.58 7.1z" style="fill:url(#f)"/><linearGradient id="g" x1="112.08" x2="122.08" y1="51.625" y2="51.625" gradientTransform="matrix(1 0 0 -1 0 128)" gradientUnits="userSpaceOnUse"><stop offset=".009" style="stop-color:#e0e0e0"/><stop offset=".174" style="stop-color:#dbdbdb"/><stop offset=".381" style="stop-color:#cbcbcb"/><stop offset=".61" style="stop-color:#b1b1b1"/><stop offset=".854" style="stop-color:#8e8e8e"/><stop offset="1" style="stop-color:#757575"/></linearGradient><path d="m122.08 78.83-10-.08v-4.83l10 .16z" style="fill:url(#g)"/><path d="m122.08 78.83-1.89-.02-.07-4.75 1.96.02z" style="fill:#ff6f00"/><linearGradient id="h" x1="59.835" x2="59.835" y1="61.167" y2="39.811" gradientTransform="matrix(1 0 0 -1 0 128)" gradientUnits="userSpaceOnUse"><stop offset=".009" style="stop-color:#ffeb3b"/><stop offset=".23" style="stop-color:#fdd333"/><stop offset=".514" style="stop-color:#fbbb2b"/><stop offset=".778" style="stop-color:#f9ad27"/><stop offset="1" style="stop-color:#f9a825"/></linearGradient><path d="M43.5 73.42s3.42-7.58 15.75-7 16.42 4.16 16.92 10.08L71 86.58s-1.75 3.33-5.17 1.5C63.28 86.71 43.5 73.42 43.5 73.42z" style="fill:url(#h)"/><linearGradient id="i" x1="105.729" x2="105.729" y1="58.833" y2="42.146" gradientTransform="matrix(1 0 0 -1 0 128)" gradientUnits="userSpaceOnUse"><stop offset=".009" style="stop-color:#ffeb3b"/><stop offset=".23" style="stop-color:#fdd333"/><stop offset=".514" style="stop-color:#fbbb2b"/><stop offset=".778" style="stop-color:#f9ad27"/><stop offset="1" style="stop-color:#f9a825"/></linearGradient><path d="M116.75 66.39C116.5 68.26 116 70 114 71c-4 2-10 1-12 3-4.56 3.42-9.12 8.14-14.23 11.56.77.25 1.46.58 1.98 1.02 2.58 2.17 5.83 2.08 9.33.33s23.58-13.5 24.58-18.58c.35-1.74-2.7-2.17-6.91-1.94z" style="fill:url(#i)"/><path d="M8.83 91.92s6.42-5.5 13.83-4 5.17 9.83.17 10.75-1.5-4.75-5.42-5.17-9.74 2.25-8.58-1.58z" style="fill:#ffb300"/><linearGradient id="j" x1="41.149" x2="41.149" y1="47.125" y2="33.618" gradientTransform="matrix(1 0 0 -1 0 128)" gradientUnits="userSpaceOnUse"><stop offset=".008" style="stop-color:#616161"/><stop offset=".208" style="stop-color:#4c4c4c"/><stop offset=".5" style="stop-color:#343434"/><stop offset=".771" style="stop-color:#262626"/><stop offset="1" style="stop-color:#212121"/></linearGradient><path d="M32.69 82.44c-1.97 1.45 3.67 10.53 13.19 11.25s.23-5.05-4.75-9.75c-3.74-3.53-6.32-3.06-8.44-1.5z" style="fill:url(#j)"/><linearGradient id="k" x1="29.284" x2="29.606" y1="67.714" y2="77.371" gradientUnits="userSpaceOnUse"><stop offset=".008" style="stop-color:#616161"/><stop offset="1" style="stop-color:#212121"/></linearGradient><path d="M26.22 72.96c-.82-2.07.1-4.67 2.03-5.76.53-.3 1.2-.49 1.73-.18.42.25.62.74.8 1.2.63 1.68 1.26 3.35 1.88 5.03.24.63.47 1.32.26 1.96-.42 1.24-2.65.77-3.57.51-1.38-.41-2.6-1.42-3.13-2.76z" style="fill:url(#k)"/><circle cx="66.02" cy="98.69" r="5.69" style="fill:#333"/><path d="M66.02 93.5c2.86 0 5.19 2.33 5.19 5.19s-2.33 5.19-5.19 5.19-5.19-2.33-5.19-5.19 2.33-5.19 5.19-5.19m0-1c-3.42 0-6.19 2.77-6.19 6.19s2.77 6.19 6.19 6.19 6.19-2.77 6.19-6.19-2.77-6.19-6.19-6.19z" style="fill:gray"/><path d="M66.02 100.61a1.92 1.92 0 1 1 .001-3.841 1.92 1.92 0 0 1-.001 3.841z" style="fill:#333"/><path d="M66.02 97.27c.78 0 1.42.64 1.42 1.42s-.64 1.42-1.42 1.42-1.42-.64-1.42-1.42.64-1.42 1.42-1.42m0-1c-1.34 0-2.42 1.08-2.42 2.42s1.08 2.42 2.42 2.42 2.42-1.08 2.42-2.42-1.08-2.42-2.42-2.42z" style="fill:gray"/></svg>