<svg xmlns="http://www.w3.org/2000/svg" xmlns:xlink="http://www.w3.org/1999/xlink" viewBox="0 0 128 128"><radialGradient id="a" cx="51.768" cy="36.232" r="60" gradientUnits="userSpaceOnUse"><stop offset=".367" stop-color="#F5F5F5"/><stop offset=".796" stop-color="#E0E0E0"/></radialGradient><circle cx="64" cy="64" r="60" fill="url(#a)"/><circle cx="64" cy="64" r="60" fill="none" opacity=".2"/><circle cx="64" cy="64" r="60" fill="none" opacity=".2"/><defs><circle id="b" cx="64" cy="64" r="60"/></defs><clipPath id="c"><use xlink:href="#b"/></clipPath><g clip-path="url(#c)"><radialGradient id="d" cx="39.893" cy="28.643" r="78.568" gradientUnits="userSpaceOnUse"><stop offset=".368" stop-color="#BDBDBD"/><stop offset=".785" stop-color="#757576"/></radialGradient><path fill="url(#d)" d="m65.15 66.9-3.09-.87c.17-.62 4.47-15.39 20.96-25.75 16.5-10.36 35.58-6.95 36.38-6.8l-.59 3.16c-.19-.03-18.67-3.31-34.08 6.37-15.4 9.66-19.54 23.75-19.58 23.89z"/></g><g clip-path="url(#c)"><path fill="url(#d)" d="M57.37 66.71c-6.09 0-14.85-1.16-24.29-6.16C15.86 51.42 9.29 33.19 9.02 32.42l3.03-1.07c.06.18 6.45 17.83 22.53 26.35 16.13 8.55 30.34 5.07 30.48 5.03l.79 3.11c-.27.09-3.47.87-8.48.87z"/></g><g clip-path="url(#c)"><path fill="url(#d)" d="M51.22 87.11c-4.53-.21-9.61-.93-15.11-2.49-21-5.96-33.06-22.87-33.57-23.59l2.63-1.85c.12.17 11.95 16.7 31.81 22.34 19.91 5.65 34.4-.41 34.54-.47L72.79 84c-.46.22-8.79 3.7-21.57 3.11z"/></g><g clip-path="url(#c)"><path fill="url(#d)" d="M48.47 107.66c-2.76-.16-5.68-.49-8.75-1.07-21.45-4.05-34.99-19.8-35.56-20.47l2.45-2.08c.13.16 13.4 15.56 33.7 19.38 20.34 3.84 34.22-3.51 34.36-3.58l1.53 2.83c-.51.28-11.19 5.93-27.73 4.99z"/></g><g clip-path="url(#c)"><path fill="url(#d)" d="m44.15 62.96-3.26-.61c.13-.7 3.39-17.21 20.56-31.76s38.58-15.17 39.48-15.19l.07 3.31c-.21 0-21.16.63-37.41 14.4C47.37 46.86 44.18 62.8 44.15 62.96z"/></g><g clip-path="url(#c)"><path fill="url(#d)" d="M21.46 51.59c.09-.68 2.5-16.83 18.46-31.71C55.89 4.99 76.6 3.41 77.48 3.35l.22 3.21c-.2.01-20.47 1.58-35.58 15.67-15.14 14.12-17.45 29.65-17.47 29.8l-3.19-.44z"/></g><g clip-path="url(#c)"><path fill="url(#d)" d="m66 128.6-2.5-2.02c.12-.15 11.77-14.87 10.56-33.03C72.84 75.34 62.4 65.09 62.3 64.99l2.23-2.31c.47.44 11.43 11.22 12.73 30.66S66.51 127.96 66 128.6z"/></g><g clip-path="url(#c)"><path fill="url(#d)" d="m94.76 119.64-2.91-1.39c.09-.19 8.58-19.17 3.63-39.72-4.96-20.59-17.41-30.36-17.54-30.46l1.94-2.64c.55.42 13.49 10.58 18.72 32.3 5.23 21.71-3.47 41.1-3.84 41.91z"/></g><g clip-path="url(#c)"><path fill="url(#d)" d="m113.58 107.31-2.92-1.34c.09-.19 8.42-18.73 3.29-38.74-5.14-20.05-17.67-29.52-17.8-29.61l1.91-2.58c.55.41 13.58 10.25 19 31.4 5.42 21.13-3.11 40.07-3.48 40.87z"/></g><path fill="#434343" d="M64 7c31.43 0 57 25.57 57 57s-25.57 57-57 57S7 95.43 7 64 32.57 7 64 7m0-3C30.86 4 4 30.86 4 64s26.86 60 60 60 60-26.86 60-60S97.14 4 64 4z" opacity=".2"/></svg>