<svg xmlns="http://www.w3.org/2000/svg" viewBox="0 0 128 128"><path fill="none" d="M91.45 101.77c-1.18 1.5-2.52 3.12-4.02 4.85-.8.92-1.59 1.87-2.38 2.8.79-.93 1.58-1.88 2.38-2.8 1.5-1.73 2.84-3.35 4.02-4.85zm7.8-15.62c-.02-.44-.07-.85-.16-1.24.09.39.15.8.16 1.24zm-1.06-3.29zm.87 5.45c.11-.53.17-1.02.19-1.49-.02.47-.09.96-.19 1.49zm-1.21 3.56c.45-.99.79-1.9 1.01-2.74-.23.83-.56 1.74-1.01 2.74zm-6.4 9.9c3.15-4.01 5.2-7.25 6.4-9.9-1.21 2.65-3.25 5.89-6.4 9.9z"/><radialGradient id="a" cx="51" cy="42.167" r="64.722" gradientUnits="userSpaceOnUse"><stop offset="0" stop-color="#78909C"/><stop offset=".427" stop-color="#6C8490"/><stop offset="1" stop-color="#546E7A"/></radialGradient><path fill="url(#a)" d="M85.38 72.63c.03.18.06.36.11.53.09.34.21.66.36.96s.33.58.54.85c.31.4.68.76 1.09 1.1 1.51 1.23 3.62 2.11 5.64 3.08.55.27 1.09.54 1.61.83 1.04.58 2 1.23 2.77 2.03.26.27.49.55.7.85.42.6.73 1.28.9 2.05.09.39.14.8.16 1.24.01.22.01.44 0 .68-.02.47-.09.96-.19 1.49-.05.26-.12.53-.2.81-.23.84-.56 1.75-1.01 2.74-1.2 2.65-3.25 5.89-6.4 9.9-1.18 1.5-2.52 3.12-4.02 4.85-.8.92-1.59 1.87-2.38 2.8-1.84 2.17-3.66 4.37-5.45 6.58H4v-8.72c0-8.23 1.64-16.36 4.79-23.96 4.93-11.89 10.46-24.27 14.99-31.91.02-.04.04-.07.06-.11.19-.31.37-.62.55-.92l.11-.17c.17-.27.33-.53.5-.78l.15-.24c.15-.23.3-.46.45-.68.05-.07.1-.15.15-.23.19-.28.38-.55.57-.81.03-.04.06-.07.09-.11 1.78.08 3.57.01 5.21-.07 4.27-.22 8.66-.24 12.8-1.4 2.43-.69 4.75-1.69 6.95-2.92 1.46-.82 2.95-1.91 4.52-2.76 2.38 3.03 5.47 5.44 7.65 8.63 1.82 2.67 3.09 5.71 5.52 7.93 2.78 2.53 6.49 3.58 9.84 5.12 2.99 1.38 5.56 2.87 8.64 3.68-1.05 1.78-1.71 3.29-2 4.58-.23.93-.27 1.75-.16 2.48z"/><radialGradient id="b" cx="94.5" cy="69" r="34.811" gradientUnits="userSpaceOnUse"><stop offset="0" stop-color="#546E7A"/><stop offset=".37" stop-color="#4C636E"/><stop offset="1" stop-color="#37474F"/></radialGradient><path fill="url(#b)" d="M79.6 116c1.79-2.21 3.6-4.41 5.45-6.58.79-.93 1.58-1.88 2.38-2.8 1.51-1.73 2.84-3.34 4.02-4.85 3.15-4.01 5.2-7.25 6.4-9.9.45-.99.79-1.9 1.01-2.74.08-.28.14-.55.2-.81.11-.53.17-1.02.19-1.49.01-.23.01-.46 0-.68-.02-.44-.07-.85-.16-1.24a6.04 6.04 0 0 0-.9-2.05c-.21-.3-.44-.58-.7-.85-.77-.8-1.72-1.45-2.77-2.03-.52-.29-1.06-.57-1.61-.83-2.01-.98-4.12-1.85-5.64-3.08-.41-.34-.78-.7-1.09-1.1-.21-.27-.39-.55-.54-.85a5.002 5.002 0 0 1-.47-1.49c-.11-.73-.07-1.55.15-2.49.3-1.29.95-2.8 2-4.58.62.16 1.25.3 1.92.4 3.46.5 6.97.32 10.45.31 3.4-.01 8.07.51 11.31-1.24.64.49 1.29.93 1.95 1.33 2.1 1.25 4.07 3.82 5.88 7.18C122.4 79.77 124 86.8 124 93.87V116H79.6z"/><linearGradient id="c" x1="27.284" x2="48.617" y1="52.926" y2="122.26" gradientTransform="matrix(-1 0 0 1 128 0)" gradientUnits="userSpaceOnUse"><stop offset="0" stop-color="#78909C"/><stop offset=".427" stop-color="#6C8490"/><stop offset="1" stop-color="#546E7A"/></linearGradient><path fill="url(#c)" d="M79.6 116c1.79-2.21 3.6-4.41 5.45-6.58A306.38 306.38 0 0 0 79.6 116z"/><linearGradient id="d" x1="52.004" x2="45.004" y1="58.942" y2="118.44" gradientTransform="matrix(-1 0 0 1 128 0)" gradientUnits="userSpaceOnUse"><stop offset="0" stop-color="#546E7A"/><stop offset=".37" stop-color="#4C636E"/><stop offset="1" stop-color="#37474F"/></linearGradient><path fill="url(#d)" d="M79.6 116c1.79-2.21 3.6-4.41 5.45-6.58A306.38 306.38 0 0 0 79.6 116z"/><linearGradient id="e" x1="59.148" x2="59.148" y1="3" y2="74.391" gradientTransform="matrix(-1 0 0 1 128 0)" gradientUnits="userSpaceOnUse"><stop offset="0" stop-color="#E1F5FE"/><stop offset=".351" stop-color="#D5F1FD"/><stop offset=".991" stop-color="#B4E5FC"/><stop offset="1" stop-color="#B3E5FC"/></linearGradient><path fill="url(#e)" d="M23.78 51.4c.02-.04.04-.07.06-.11.19-.31.37-.62.55-.92l.11-.17c.17-.27.33-.53.5-.78l.15-.24c.15-.23.3-.46.45-.68.05-.07.1-.15.15-.23.19-.28.38-.55.57-.81.18-.25.37-.48.56-.71.19-.22.4-.44.6-.64.41-.4.85-.75 1.31-1.05.92-.6 1.91-1 2.94-1.18.66-.11 1.34-.16 2.03-.22 1.57-.12 3.2-.28 4.77-1.25.52-.32 1.04-.74 1.55-1.27 1.77-1.88 7.92-15.98 13.87-26.26.6-1.03 1.19-2.02 1.78-2.95.29-.47.59-.92.87-1.36.58-.88 1.15-1.69 1.71-2.43.84-1.1 1.64-2.03 2.4-2.73 1.04-.91 1.97-1.43 2.78-1.41.43.01.84.14 1.24.37.79.46 1.51 1.32 2.18 2.39.34.54.66 1.13.98 1.76-.17.21-.17.21 0 0 .01.01.01.02.02.03 2.26 4.49 4.05 10.67 6.35 10.67 4.64 0 4.81 17.69 10.08 20.97 1.53-1.84 2.86-3.15 3.93-3.78.48-.29.92-.48 1.29-.48 1.79 0 3.61 2.68 5.44 6.46 4.33 7.44 10.24 19.25 18.17 23.97.43.26.85.57 1.27.93-1.52 3.03-4.15 6.24-8.18 4.92-7-2.3-10.45.11-14.01 4.71-.4.51-.83.89-1.29 1.19-3.63 2.4-8.84-1.37-10.88-2.8-2.26-1.58-10.08-3.49-17.11-.59-.02.01-.25.09-.34.13-7.12 3.1-11.6-6.89-11.14-17.91s-5.4-9.87-9.07-7.12c-2.83 2.12-13.96 2.88-19.14 2.44.16-.29.33-.57.5-.86z"/><linearGradient id="f" x1="64" x2="64" y1="103.17" y2="77.52" gradientUnits="userSpaceOnUse"><stop offset="0" stop-color="#37474F"/><stop offset="1" stop-color="#455A64" stop-opacity="0"/></linearGradient><path fill="url(#f)" d="M124 93.87c0-7.07-1.6-14.1-4.96-20.32-1.44-2.68-2.99-4.84-4.61-6.24v-.01c-.06-.06-.13-.1-.19-.16-.13-.11-.26-.22-.39-.31-.23-.17-.46-.33-.69-.47-.44-.26-.87-.55-1.29-.85-.12-.08-.24-.17-.35-.26-7.1-5.26-12.5-15.94-16.52-22.86-1.83-3.78-3.65-6.46-5.44-6.46-.37 0-.81.19-1.29.48-1.06.63-2.39 1.94-3.93 3.78-5.27-3.29-5.44-20.97-10.08-20.97-2.3 0-4.09-6.19-6.35-10.67-.01-.01-.01-.02-.02-.03-.17.21-.17.21 0 0-.32-.63-.64-1.22-.98-1.76-.67-1.08-1.39-1.93-2.18-2.39-.39-.23-.8-.36-1.24-.37-.82-.02-1.75.5-2.76 1.43-.76.7-1.57 1.62-2.4 2.73-.56.74-1.13 1.55-1.71 2.43-.29.44-.58.89-.87 1.36-.59.93-1.18 1.92-1.78 2.95-5.95 10.28-12.1 24.38-13.87 26.26-.51.54-1.02.95-1.55 1.27-1.57.97-3.21 1.12-4.77 1.25-.7.06-1.38.1-2.03.22-1.03.18-2.02.58-2.94 1.18-.46.3-.9.65-1.31 1.05-.21.2-.41.41-.6.64-.19.22-.38.46-.56.71-.19.26-.38.53-.57.81-.05.07-.1.15-.15.23-.15.22-.3.44-.45.68l-.15.24c-.16.25-.33.52-.5.78l-.11.17c-.18.3-.37.6-.55.92-.02.04-.04.07-.06.11-.17.28-.34.57-.5.86-4.43 7.69-9.74 19.58-14.49 31.05A62.077 62.077 0 0 0 4 107.28V116h70.43a9.918 9.918 0 0 0 6.44 2.38h13.25c2.45 0 4.7-.9 6.44-2.38H124V93.87z"/><path fill="#424242" d="M108.07 75.53c-.91 0-1.83-.15-2.75-.46-1.48-.49-2.8-.73-3.91-.73-2.48 0-4.26 1.16-6.79 4.43a8.42 8.42 0 0 1-2 1.86c-1.28.85-2.75 1.28-4.37 1.28-4.01 0-7.88-2.72-9.75-4.02l-.14-.1c-.69-.49-3.53-1.55-7.43-1.55-2.47 0-4.77.43-6.82 1.28l-.15.06-.16.06c-1.23.53-2.49.81-3.72.81-2.36 0-4.57-1-6.38-2.89-3.53-3.68-5.52-10.85-5.2-18.71.18-4.3-.75-5.5-.94-5.69-.08-.08-.16-.17-.46-.17-.58 0-1.63.33-2.88 1.27-4.09 3.07-16.23 3.16-17.6 3.16-1.36 0-2.57-.04-3.6-.13l-1.33-.11c.54-1.01 1.07-1.97 1.59-2.87.94.08 2.08.12 3.34.12 5.62 0 13.48-.82 15.8-2.56 1.4-1.05 3.11-1.87 4.68-1.87 2.54 0 4.68 2.16 4.39 8.98-.4 9.64 2.97 18.48 8.58 18.48.81 0 1.66-.18 2.55-.57.09-.04.31-.12.34-.13 2.66-1.09 5.43-1.5 7.97-1.5 4.18 0 7.74 1.11 9.15 2.09 1.57 1.1 5.01 3.58 8.17 3.58.95 0 1.88-.22 2.72-.78.46-.3.89-.68 1.29-1.19 2.63-3.39 5.19-5.59 9.16-5.59 1.41 0 3.01.28 4.84.88.64.21 1.25.31 1.82.31 3.02 0 5.08-2.68 6.36-5.22.73.63 1.45 1.43 2.14 2.35-2.77 4.78-6.12 5.84-8.51 5.84z" opacity=".2"/><path fill="#424242" d="M55.27 44.08c.62.68 1.26 1.32 1.88 1.96 1.46 1.49 2.84 2.91 3.91 4.48.53.77 1.01 1.59 1.52 2.46 1.21 2.05 2.46 4.18 4.45 5.99 2.46 2.24 5.33 3.42 8.1 4.56.88.36 1.7.7 2.5 1.07.75.34 1.47.7 2.18 1.04 2.16 1.05 4.39 2.14 6.96 2.81.84.22 1.55.37 2.24.47 2.34.34 4.64.38 6.39.38.83 0 1.66-.01 2.49-.02.67-.01 1.34-.02 2.02-.02h.12c.57 0 1.17.01 1.8.03.72.02 1.47.03 2.23.03 2.01 0 4.48-.12 6.77-.89.26.17.53.34.79.49 1.02.61 2.68 2.15 4.77 6.03 3.01 5.58 4.6 12.11 4.6 18.89V113H7v-5.72c0-7.84 1.53-15.51 4.56-22.81 6.01-14.49 10.98-25.09 14.8-31.53l.15-.25c.15-.25.3-.5.45-.73l.07-.1.04-.06c.16-.25.31-.5.47-.74l.01-.06.11-.17c.1-.15.19-.29.28-.43h.13c1.38 0 2.7-.06 3.7-.11l1.98-.09c3.76-.17 7.65-.34 11.47-1.42 2.54-.72 5.1-1.79 7.6-3.19.75-.42 1.49-.89 2.2-1.35.1-.06.18-.11.25-.16m.62-3.87c-1.57.85-3.06 1.94-4.52 2.76-2.2 1.23-4.52 2.24-6.95 2.92-4.13 1.17-8.53 1.18-12.8 1.4-1.13.06-2.32.11-3.54.11-.55 0-1.11-.01-1.67-.03-.03.04-.06.07-.09.11-.19.26-.38.53-.57.81-.05.07-.1.15-.15.23-.15.22-.3.44-.45.68l-.15.24c-.16.25-.33.52-.5.78l-.11.17c-.18.3-.37.6-.55.92-.02.04-.04.07-.06.11-4.53 7.64-10.06 20.02-14.99 31.91A62.428 62.428 0 0 0 4 107.28V116h120V93.87c0-7.07-1.6-14.1-4.96-20.32-1.82-3.36-3.78-5.94-5.88-7.18-.66-.39-1.31-.84-1.95-1.33-2.04 1.1-4.64 1.3-7.14 1.3-1.42 0-2.8-.06-4.03-.06h-.14c-1.5.01-3 .04-4.49.04-1.99 0-3.98-.06-5.96-.35-.67-.1-1.3-.24-1.92-.4-3.08-.8-5.65-2.3-8.64-3.68-3.34-1.54-7.06-2.59-9.84-5.12-2.43-2.22-3.7-5.26-5.52-7.93-2.17-3.2-5.26-5.61-7.64-8.63z" opacity=".2"/><path fill="#eee" d="M36.15 58.58c.07-.46-.57-.66-.77-.24-2.66 5.64-13.77 22.19-17.77 29.25-.39.69.44 1.42 1.07.95 1.93-1.43 5.72-4.78 5.93-5.78.3-1.43 2.96-5.44 3.81-6.7.17-.24.34-.48.52-.71l3.49-4.39c.68-.86 1.17-1.85 1.42-2.92l2.3-9.46zm8.89-3.6c.16-.34-.24-.67-.54-.45l-3.66 2.62c-.26.27-.45.6-.53.97l-2.87 11.42c0 .45.63.54.76.11l6.84-14.67zm16.67 24.21c.13-.35-.34-.61-.57-.31-3 4.03-14.4 15.33-18.68 20.28-.42.48.12 1.19.7.92 1.75-.82 5.28-2.87 5.6-3.62.46-1.09 3.2-3.82 4.07-4.68.17-.17.34-.32.52-.48l3.45-2.91c.67-.57 1.22-1.28 1.59-2.08l3.32-7.12zm-12.93 5.43c.27-.21.09-.64-.25-.59l-4.1.58c-.33.11-.62.3-.84.57l-7.2 8.09c-.19.36.29.71.57.41l11.82-9.06zm17.79-7.07c.13-.2.37-.1.4.18l.38 4.9c.11.31.11.69-.02.98l-3 6.89.39-4.2c.02-.19-.13-.32-.24-.2l-3.88 4.45c-.19.19-.41-.14-.87-.68l6.84-12.32z" opacity=".2"/><path fill="#424242" d="M110.47 76.33c-.07-.28.17-.28.41-.01l4 4.88c.31.26.59.66.73 1.02l3.23 8.59-2.95-4.53c-.14-.21-.33-.27-.31-.09l.78 6.51c.02.28-.39.05-1.11-.28l-4.78-16.09z" opacity=".2"/><linearGradient id="g" x1="73.862" x2="62.696" y1="58.37" y2="19.203" gradientUnits="userSpaceOnUse"><stop offset="0" stop-color="#81D4FA"/><stop offset=".149" stop-color="#9ADDFB"/><stop offset=".465" stop-color="#CCEEFD"/><stop offset=".648" stop-color="#D5F1FD"/><stop offset="1" stop-color="#E1F5FE"/></linearGradient><path fill="url(#g)" d="M62.88 74.76c1.39-3.86 4.32-14.03.87-23.51-4.22-11.58-8.79-27.23 4.15-42.69 2.26 4.49 4.05 10.67 6.35 10.67 4.64 0 4.81 17.69 10.08 20.97-.19.26-15.52 21.4-21.38 34.53-.02.01-.04.02-.07.03z"/><linearGradient id="h" x1="45.59" x2="45.59" y1="13.25" y2="66.538" gradientUnits="userSpaceOnUse"><stop offset="0" stop-color="#fff"/><stop offset=".494" stop-color="#F3FBFF"/><stop offset="1" stop-color="#E1F5FE"/></linearGradient><path fill="url(#h)" d="M63.75 51.25c3.45 9.47.52 19.64-.87 23.51-.09.04-.18.06-.26.1-7.12 3.1-11.6-6.89-11.14-17.91s-5.4-9.87-9.07-7.12c-2.83 2.12-13.96 2.88-19.14 2.44.17-.29.34-.58.5-.86.02-.04.04-.07.06-.11.19-.31.37-.62.55-.92l.11-.17c.17-.27.33-.53.5-.78l.15-.24c.15-.23.3-.46.45-.68.05-.07.1-.15.15-.23.19-.28.38-.55.57-.81.18-.25.37-.48.56-.71.19-.22.4-.44.6-.64.41-.4.85-.75 1.31-1.05.92-.6 1.91-1 2.94-1.18.66-.11 1.34-.16 2.03-.22 1.57-.12 3.2-.28 4.77-1.25.52-.32 1.04-.74 1.55-1.27 1.77-1.88 7.92-15.98 13.87-26.26.6-1.03 1.19-2.02 1.78-2.95.29-.47.59-.92.87-1.36.58-.88 1.15-1.69 1.71-2.43.84-1.1 1.64-2.03 2.4-2.73 1.05-.92 1.98-1.44 2.79-1.42.43.01.84.14 1.24.37.79.46 1.51 1.32 2.18 2.39.34.54.66 1.13.98 1.76-.17.21-.17.21 0 0 .01.01.01.02.02.03-12.95 15.47-8.38 31.12-4.16 42.7zm-.95 23.42c1.63-4.69 2.4-9.06 2.34-13.39.06 4.33-.71 8.7-2.34 13.39z"/><path fill="#424242" d="M80.82 40.82c-.26-.2-.49-.43-.67-.71-1.85-2.78-2.91-6.77-3.94-10.67-.62-2.34-1.63-6.15-2.45-7.24-3.16-.33-4.8-3.83-6.58-7.97l-.04.05-2.07-4.3c-.11-.23-.22-.54-.27-.91-.14-.26-.28-.5-.42-.72-.44-.7-.76-1.06-.95-1.24-.15.1-.37.26-.65.52-.6.55-1.28 1.33-2.04 2.33-.5.66-1.04 1.43-1.6 2.27-.28.42-.56.85-.84 1.3-.55.87-1.12 1.83-1.72 2.86-2.94 5.08-5.99 11.23-8.44 16.17-3.23 6.5-4.7 9.43-5.84 10.64-.66.7-1.38 1.29-2.15 1.77-2.23 1.38-4.47 1.56-6.11 1.69l-.13.01c-.59.05-1.15.09-1.63.17-.62.11-1.23.35-1.8.73-.3.2-.6.43-.88.71-.49.49-2.47 2.92-2.89 4.1-1.28 0-2.45-.04-3.42-.12.17-.29.34-.58.5-.86.02-.04.04-.07.06-.11.19-.31.37-.62.55-.92l.11-.17c.17-.27.33-.53.5-.78l.15-.24c.15-.23.3-.46.45-.68.05-.07.1-.15.15-.23.19-.28.38-.55.57-.81.18-.25.37-.48.56-.71.19-.22.4-.44.6-.64.41-.4.85-.75 1.31-1.05.92-.6 1.91-1 2.94-1.18.66-.11 1.34-.16 2.03-.22 1.57-.12 3.2-.28 4.77-1.25.52-.32 1.04-.74 1.55-1.27 1.77-1.88 7.92-15.98 13.87-26.26.6-1.03 1.19-2.02 1.78-2.95.29-.47.59-.92.87-1.36.58-.88 1.15-1.69 1.71-2.43.84-1.1 1.64-2.03 2.4-2.73 1-.91 1.91-1.43 2.72-1.43h.04c.43.01.84.14 1.24.37.79.46 1.51 1.32 2.18 2.39.34.54.66 1.13.98 1.76-.08.1-.12.16-.12.16s.04-.05.12-.16c.01.01.01.02.02.03 2.26 4.49 4.05 10.67 6.35 10.67 4.64 0 4.81 17.69 10.08 20.97-.04.05-.59.81-1.49 2.09-.51-.3-1.48-1.03-2.02-1.44z" opacity=".2"/><linearGradient id="i" x1="77.973" x2="77.973" y1="44.5" y2="74.276" gradientUnits="userSpaceOnUse"><stop offset="0" stop-color="#fff"/><stop offset=".494" stop-color="#F3FBFF"/><stop offset="1" stop-color="#E1F5FE"/></linearGradient><path fill="url(#i)" d="M90.08 38.92c.24.38.47.78.69 1.2s.43.86.63 1.32c.3.69.57 1.42.8 2.2.1.36.2.72.28 1.1l.12.51c.06.28.11.56.15.85a19.982 19.982 0 0 1 .24 2.73c.01.64 0 1.29-.05 1.97-.07 1.01-.22 2.07-.45 3.17-.09.44-.2.89-.32 1.34-.08.3-.16.61-.26.92-.23.77-.51 1.57-.82 2.38a37.81 37.81 0 0 1-1.74 3.79c-.46.87-.97 1.76-1.53 2.68-1.23 1.99-1.96 3.66-2.28 5.06-.22.94-.26 1.76-.15 2.49.03.18.06.36.11.53.09.34.21.66.36.96s.33.58.54.85c.31.4.68.76 1.09 1.1.97.79 2.2 1.43 3.48 2.05-3.63 2.4-8.84-1.37-10.88-2.8-2.26-1.58-10.08-3.49-17.11-.59C68.82 61.6 84.14 40.46 84.33 40.2c1.53-1.84 2.86-3.15 3.93-3.78.36.43.73.9 1.09 1.41.25.34.49.7.73 1.09z"/><linearGradient id="j" x1="91.451" x2="98.618" y1="53.741" y2="67.741" gradientUnits="userSpaceOnUse"><stop offset="0" stop-color="#E1F5FE"/><stop offset=".351" stop-color="#D5F1FD"/><stop offset=".991" stop-color="#B4E5FC"/><stop offset="1" stop-color="#B3E5FC"/></linearGradient><path fill="url(#j)" d="M85.53 70.14c.32-1.4 1.05-3.06 2.28-5.06.56-.91 1.07-1.8 1.53-2.68.69-1.31 1.27-2.57 1.74-3.79.32-.81.59-1.61.82-2.38.09-.31.18-.62.26-.92.12-.45.23-.9.32-1.34.23-1.1.37-2.16.45-3.17a21.958 21.958 0 0 0 .01-2.91c-.04-.62-.11-1.21-.2-1.79-.05-.29-.1-.57-.15-.85l-.12-.51c-.09-.37-.18-.74-.28-1.1-.23-.78-.5-1.51-.8-2.2-.2-.46-.41-.9-.63-1.32s-.45-.82-.69-1.2-.48-.74-.72-1.09c-.36-.51-.73-.98-1.09-1.41.48-.29.92-.48 1.29-.48 1.79 0 3.61 2.68 5.44 6.46 4.33 7.44 10.24 19.25 18.17 23.97.43.26.85.57 1.27.93-1.52 3.03-4.15 6.24-8.18 4.92-7-2.3-10.45.11-14.01 4.71-.4.51-.83.89-1.29 1.19-1.28-.62-2.5-1.26-3.48-2.05-.41-.34-.78-.7-1.09-1.1-.21-.27-.39-.55-.54-.85a5.002 5.002 0 0 1-.47-1.49c-.1-.73-.06-1.55.16-2.49z"/><path fill="#424242" d="M84.33 40.2c.01 0 .01 0 0 0 1.53-1.84 2.87-3.15 3.93-3.78.48-.29.92-.48 1.29-.48 1.79 0 3.61 2.68 5.44 6.46 4.33 7.44 10.24 19.25 18.17 23.97.43.26.85.57 1.27.93-.33.65-.7 1.3-1.13 1.92-.39-.15-.94-.35-1.45-.54-1.1-.4-2.14-.98-3.05-1.72-6.16-5-10.82-13.23-14.67-20.02-.6-1.07-1.18-2.08-1.73-3.03l-.06-.1-.05-.1c-1.38-2.86-2.29-4.05-2.76-4.53-.47.34-1.38 1.13-2.85 2.9-1.02 1.41-12.51 16.92-19.37 30.4-.18.36-.32.74-.46 1.12-1.3.24-2.61.61-3.9 1.14C68.82 61.6 84.14 40.46 84.33 40.2z" opacity=".2"/><path fill="#E1F5FE" d="M52.53 29.08c.12-.22.32-.1.34.21l.2 5.36c.09.34.07.75-.05 1.07l-2.81 7.45.45-4.58c.02-.21-.11-.35-.2-.23l-3.52 4.77c-.17.2-.36-.17-.74-.77l6.33-13.28zM87.98 43.3c.12-.2.42-.18.51.04l1.31 3.87c.19.22.25.53.14.8l-2.39 6.38-.27-3.5c-.01-.16-.21-.22-.32-.1l-3.87 4.64c-.19.2-.52-.01-1.16-.32l6.05-11.81zM63.25 31.19c-.01-.29.41-.36.49-.08 1.18 3.71 6.69 14.86 8.58 19.56.18.46-.39.84-.74.5-1.08-1.04-3.14-3.43-3.19-4.06-.07-.91-1.38-3.61-1.8-4.45-.08-.16-.17-.32-.26-.48l-1.79-3c-.35-.59-.57-1.24-.64-1.92l-.65-6.07zm2.1-11.33c-.07-.28.17-.28.41-.01l4.03 4.92c.32.27.6.66.74 1.03l3.26 8.66-2.97-4.57c-.14-.21-.34-.27-.32-.09l.79 6.56c.02.28-.39.05-1.12-.28l-4.82-16.22z"/><linearGradient id="k" x1="64" x2="64" y1="94.667" y2="123.61" gradientUnits="userSpaceOnUse"><stop offset="0" stop-color="#E1F5FE"/><stop offset=".233" stop-color="#DCF3FE"/><stop offset=".492" stop-color="#CFEFFD"/><stop offset=".761" stop-color="#B9E7FC"/><stop offset=".822" stop-color="#B3E5FC"/><stop offset="1" stop-color="#B3E5FC"/></linearGradient><path fill="url(#k)" d="M124 92.57c0-1.9-2-3.16-3.7-2.32-4.06 2-7.41 5.21-9.59 9.17-.59.69-1.07 1.52-1.42 2.51-.02.07-.05.14-.07.21-.17.51-.7.78-1.23.65-.32-.08-.64-.12-.98-.12-1.34 0-2.57.63-3.57 1.7-.71.76-1.91.79-2.73.15a12.53 12.53 0 0 0-7.69-2.64c-2.2 0-4.27.58-6.08 1.58-.87.48-1.95.18-2.54-.62-3.56-4.84-9.18-7.98-15.52-7.98-4.8 0-9.18 1.8-12.58 4.77-.38.34-.94.34-1.33.01-.9-.78-1.95-1.23-3.08-1.23-1.1 0-2.13.43-3.01 1.17-.34.29-.82.3-1.2.06a13.87 13.87 0 0 0-7.54-2.23c-3.9 0-7.42 1.62-9.99 4.23-.39.4-1.02.37-1.43-.02-.95-.92-2.1-1.47-3.34-1.47-1.36 0-2.61.65-3.61 1.74-.39.43-1.06.47-1.45.05-3.57-3.84-8.59-6.24-14.15-6.22C4.96 95.76 4 96.77 4 97.98V124h120V92.57z"/><path fill="#424242" d="M121 93.26V121H7V98.77c4.23.2 8.16 2.04 11.13 5.24.74.8 1.79 1.26 2.88 1.26 1.12 0 2.21-.48 2.97-1.31.32-.35.83-.77 1.4-.77.4 0 .83.21 1.25.62a4.04 4.04 0 0 0 2.82 1.15c1.07 0 2.08-.42 2.83-1.18 2.12-2.15 4.91-3.34 7.85-3.34 2.09 0 4.13.61 5.91 1.75.66.42 1.42.65 2.19.65.94 0 1.84-.33 2.56-.93.37-.31.74-.47 1.08-.47.36 0 .74.17 1.12.5.73.63 1.66.98 2.62.98.97 0 1.91-.35 2.65-1 2.97-2.6 6.74-4.03 10.6-4.03 5.17 0 9.95 2.46 13.1 6.75.96 1.3 2.48 2.08 4.07 2.08.82 0 1.64-.21 2.35-.61 1.44-.8 2.99-1.2 4.62-1.2 2.13 0 4.15.7 5.86 2.01.9.69 2.02 1.07 3.15 1.07 1.37 0 2.69-.57 3.61-1.55.32-.34.82-.75 1.38-.75.09 0 .18.01.27.03.32.08.64.11.96.11 1.73 0 3.26-1.1 3.81-2.73l.06-.18c.21-.6.5-1.12.87-1.55l.2-.24.15-.27a19.17 19.17 0 0 1 7.68-7.6m.42-3.27c-.37 0-.76.08-1.12.27-4.06 2-7.41 5.21-9.59 9.17-.59.69-1.07 1.52-1.42 2.51-.02.07-.05.14-.07.21a1 1 0 0 1-.97.69c-.09 0-.17-.01-.26-.03-.32-.08-.64-.12-.98-.12-1.34 0-2.57.63-3.57 1.7-.38.4-.89.6-1.42.6-.46 0-.93-.15-1.31-.45a12.53 12.53 0 0 0-7.69-2.64c-2.2 0-4.27.58-6.08 1.58-.28.16-.59.23-.9.23-.63 0-1.25-.31-1.65-.85-3.56-4.84-9.18-7.98-15.52-7.98-4.8 0-9.18 1.8-12.58 4.77a.99.99 0 0 1-1.33.01c-.9-.78-1.95-1.23-3.08-1.23-1.1 0-2.13.43-3.01 1.17-.18.15-.4.23-.63.23-.2 0-.39-.06-.57-.17a13.87 13.87 0 0 0-7.54-2.23c-3.9 0-7.42 1.62-9.99 4.23-.19.19-.44.29-.69.29-.26 0-.53-.1-.74-.3-.95-.92-2.1-1.47-3.34-1.47-1.36 0-2.61.65-3.61 1.74-.21.22-.49.34-.77.34-.25 0-.5-.1-.68-.3-3.55-3.83-8.54-6.22-14.08-6.22h-.08C4.96 95.76 4 96.77 4 97.98V124h120V92.57c0-1.49-1.23-2.58-2.58-2.58z" opacity=".2"/><path fill="#E1F5FE" d="M50.2 106.91c3.02.93 4.54 3.57 4.13 6.64-.28 2.14 3.07 2.2 3.35.08.19-1.41.04-2.77-.37-4.01 4.74-.01 8.82 2.53 10.88 6.87.93 1.95 3.87.36 2.95-1.59-2.62-5.52-8.29-8.93-14.39-8.62-.44.02-.79.19-1.06.43a9.616 9.616 0 0 0-4.57-3.02c-2.05-.64-2.98 2.58-.92 3.22zm55.85 4.52c2.1.71 3.11 2.58 2.77 4.72-.24 1.49 2.1 1.59 2.34.12.16-.98.08-1.93-.18-2.81 3.31.08 6.12 1.93 7.48 5 .61 1.38 2.7.32 2.09-1.05-1.73-3.91-5.63-6.4-9.9-6.29-.31.01-.56.12-.75.28a6.692 6.692 0 0 0-3.14-2.19c-1.43-.49-2.14 1.74-.71 2.22zm-82.02-1.65c-4.55.1-8.07 2.94-9.2 7.37-.47 1.84-3.33 1.16-2.87-.68 1.45-5.68 6.11-9.5 11.99-9.63 1.9-.04 1.98 2.9.08 2.94z"/></svg>