<svg xmlns="http://www.w3.org/2000/svg" style="enable-background:new 0 0 128 128" viewBox="0 0 128 128" xml:space="preserve"><path d="M124 8.3v14.9L81.6 80.1 68.8 97.3c-.7 1-2 2.2-3.8 3.5-.4.3-.9.6-1.4.9-1.9 1.2-4.3 2.4-7.2 3.4-.4.1-.7.3-1.1.4-1.1.3-2.2.7-3.5 1h-.2c-.3.1-.5.1-.8.2-1.4.3-2.9.5-4.4.8-.6.1-1.3.1-1.9.2-.5 0-1.1.1-1.6.1s-1.1.1-1.6.1c-.6 0-1.1.1-1.7.1H11.8c-.4 0-.8 0-1.1-.1-.2 0-.4-.1-.5-.1-.4-.1-.7-.2-1.1-.4-.3-.1-.7-.3-1-.5-.2-.1-.3-.2-.5-.3-.3-.2-.6-.5-.9-.7l-.5-.5-.1-.1v-.1c-.2-.2-.3-.4-.5-.6-.1-.2-.2-.3-.3-.5-.2-.3-.4-.7-.5-1-1-4 0-12.5 5-15 1.4-.7 4.3-.6 7.9-.1.5.1 1.1.1 1.6.2s.9.1 1.4.2c.3 0 .7.1 1 .2s.7.1 1 .2c.7.1 1.4.2 2.1.4.8.1 1.7.3 2.5.4 1 .2 2.1.4 3.2.6 1 .2 2 .3 3 .5 1.4.2 2.9.4 4.3.6 1 .1 2 .2 2.9.3.3 0 .6.1.9.1.3 0 .6 0 .9.1h4.9c.3 0 .6 0 .9-.1.3 0 .6-.1.9-.1.7-.1 1.3-.2 1.9-.4.3-.1.6-.1.9-.2l.9-.3c.4-.1.7-.2 1-.4.3-.1.5-.2.8-.3 0 0 .1 0 .1-.1.2-.1.3-.1.4-.2.2-.1.5-.2.7-.4.3-.2.5-.3.8-.5.2-.1.5-.3.7-.5.3-.2.6-.4.9-.7.4-.3.7-.6 1.1-.9.3-.2.6-.5.9-.8l1-1c.4-.4.8-.8 1.2-1.3.2-.2.4-.5.6-.7l2.1-2.4c.5-.7 1.1-1.3 1.7-2 .2-.3.4-.5.7-.8.5-.5.9-1.1 1.4-1.6l2.8-3.4L124 8.3z" style="fill:#dfa262"/><linearGradient id="a" x1="35.15" x2="35.15" y1="44.702" y2="16.61" gradientTransform="matrix(1 0 0 -1 0 127.89)" gradientUnits="userSpaceOnUse"><stop offset=".089" style="stop-color:#a1887f"/><stop offset="1" style="stop-color:#795649"/></linearGradient><path d="m54.8 89.7-.6 3.5-1.8 10-.6 3.2h-.2c-.3.1-.5.1-.8.2-1.4.3-2.9.5-4.4.8-.6.1-1.3.1-1.9.2-.5 0-1.1.1-1.6.1s-1.1.1-1.6.1c-.6 0-1.1.1-1.7.1H15.5l.3-3 1.6-14 .3-3c.5.1 1.1.1 1.6.2s.9.1 1.4.2c.3 0 .7.1 1 .2s.7.1 1 .2c.7.1 1.4.2 2.1.4.8.1 1.7.3 2.5.4 1 .2 2.1.4 3.2.6 1 .2 2 .3 3 .5 1.4.2 2.9.4 4.3.6 1 .1 2 .2 2.9.3.3 0 .6.1.9.1.3 0 .6 0 .9.1h4.9c.3 0 .6 0 .9-.1.3 0 .6-.1.9-.1.7-.1 1.3-.2 1.9-.4.3-.1.6-.1.9-.2l.9-.3c.4-.1.7-.2 1-.4.3-.1.5-.2.8-.3 0-.2.1-.2.1-.2z" style="fill:url(#a)"/><linearGradient id="b" x1="71.8" x2="156.95" y1="83.69" y2="83.69" gradientTransform="matrix(1 0 0 -1 0 127.89)" gradientUnits="userSpaceOnUse"><stop offset=".009" style="stop-color:#e53a35"/><stop offset=".649" style="stop-color:#c62828"/></linearGradient><path d="M124 8.3v14.9L81.6 80.1l-2.4-1.8-5-4-2.4-1.8z" style="fill:url(#b)"/><ellipse cx="90.6" cy="112.3" rx="18.7" ry="7.7" style="fill:#434343"/><path d="M72 103.7h37.2v8.4H72z" style="fill:#434343"/><linearGradient id="c" x1="77.598" x2="102.597" y1="810.406" y2="824.41" gradientTransform="translate(0 -713.89)" gradientUnits="userSpaceOnUse"><stop offset="0" style="stop-color:#9d9d9d"/><stop offset=".841" style="stop-color:#616262"/></linearGradient><ellipse cx="90.6" cy="103.8" rx="18.7" ry="7.7" style="fill:url(#c)"/><g style="opacity:.2"><path d="M124 8.3V13L74.2 74.3l-2.8 3.5v.1c-.9 1-1.7 2-2.5 3-4.3 5.2-8.2 10-14.6 12.3-2.7 1-5.8 1.5-9.5 1.5h-1.5c-4.8-.2-10.9-1.2-16.7-2.3-3.3-.6-6.6-1.2-9.3-1.5-1.7-.2-3.2-.4-4.5-.4-1.4 0-1.8.2-1.8.2-3.2 1.6-4.1 8.2-3.4 11.4.7 1.6 2.4 2.8 4.1 2.8h26c6 0 10.8-.7 14.8-1.7 10.1-2.6 13.8-7.4 14-7.7l12.8-17.2L124 18.2v5.1L81.6 80.1 68.8 97.3c-.7 1-2 2.2-3.8 3.5-.4.3-.9.6-1.4.9-1.9 1.2-4.3 2.4-7.2 3.4-.4.1-.7.3-1.1.4-1.1.4-2.2.7-3.5 1h-.2c-.3.1-.5.1-.8.2-1.4.3-2.9.5-4.4.8-.6.1-1.3.1-1.9.2-.5 0-1.1.1-1.6.1s-1.1.1-1.6.1c-.6 0-1.1.1-1.7.1H11.8c-.4 0-.8 0-1.1-.1-.2 0-.4-.1-.5-.1-.4-.1-.7-.2-1.1-.4-.3-.1-.7-.3-1-.5-.2-.1-.3-.2-.5-.3-.3-.2-.6-.5-.9-.7l-.5-.5-.1-.1v-.1c-.2-.2-.3-.4-.5-.6-.1-.2-.2-.3-.3-.5-.2-.3-.3-.7-.5-1-1-4-.1-12.5 5-15 .7-.3 1.8-.5 3.1-.5s3 .1 4.8.4c.5.1 1.1.1 1.6.2s.9.1 1.4.2c.3 0 .7.1 1 .2s.7.1 1 .2c.7.1 1.4.2 2.1.4.8.1 1.7.3 2.5.4 1 .2 2.1.4 3.2.6 1 .2 2 .3 3 .5 1.4.2 2.9.4 4.3.6 1 .1 2 .2 2.9.3.3 0 .6.1.9.1.3 0 .6 0 .9.1h3.4c.8 0 1.6-.1 2.3-.2.3 0 .6-.1.9-.1.7-.1 1.3-.2 1.9-.4.3-.1.6-.1.9-.2l.9-.3c.4-.1.7-.2 1-.4.3-.1.5-.2.8-.3 0 0 .1 0 .1-.1.2-.1.3-.1.4-.2.2-.1.5-.2.7-.4.3-.2.5-.3.8-.5.2-.1.5-.3.7-.5.3-.2.6-.4.9-.7.4-.3.7-.6 1.1-.9.3-.2.6-.5.9-.8l1-1c.4-.4.8-.8 1.2-1.3.2-.2.4-.5.6-.7l2.1-2.4c.5-.7 1.1-1.3 1.7-2 .2-.3.4-.5.7-.8.4-.5.9-1.1 1.4-1.6l2.8-3.4L124 8.3z" style="fill:#434343"/></g><g style="opacity:.2"><path d="M109.2 104.3c0-.2.1-.3.1-.5 0-4.3-8.4-7.7-18.7-7.7s-18.7 3.5-18.7 7.7v.2c0 .1 0 0 0 0v8.2c0 4.3 8.3 7.7 18.7 7.7s18.7-3.5 18.7-7.7c0-.2 0-.3-.1-.5v-7.4zM90.6 117c-10 0-15.4-3.3-15.6-4.6v-8.7c.3-1.3 5.6-4.6 15.6-4.6s15.4 3.3 15.7 4.6v8.6c-.3 1.3-5.6 4.7-15.7 4.7z" style="fill:#eee"/></g></svg>