<svg xmlns="http://www.w3.org/2000/svg" viewBox="0 0 128 128"><path fill="#004D40" d="M20 36h88v80H20z"/><path fill="#80CBC4" d="M16 48h20v60H16z"/><linearGradient id="a" x1="26" x2="26" y1="51.667" y2="61.263" gradientUnits="userSpaceOnUse"><stop offset="0" stop-color="#009688"/><stop offset="1" stop-color="#009688" stop-opacity="0"/></linearGradient><path fill="url(#a)" d="M16 48h20v20H16z"/><linearGradient id="b" x1="26" x2="26" y1="63.667" y2="76.184" gradientTransform="rotate(180 26 82)" gradientUnits="userSpaceOnUse"><stop offset="0" stop-color="#009688"/><stop offset="1" stop-color="#009688" stop-opacity="0"/></linearGradient><path fill="url(#b)" d="M16 84h20v20H16z"/><path fill="#424242" d="M24.67 48h-3v56h3zm5.66 0h-3v60.75h3zM19 48h-3v56h3zm17 0h-3v56h3z" opacity=".2"/><path fill="#80CBC4" d="M54 48h20v60H54z"/><linearGradient id="c" x1="64" x2="64" y1="51.667" y2="61.263" gradientUnits="userSpaceOnUse"><stop offset="0" stop-color="#009688"/><stop offset="1" stop-color="#009688" stop-opacity="0"/></linearGradient><path fill="url(#c)" d="M54 48h20v20H54z"/><linearGradient id="d" x1="-12" x2="-12" y1="63.667" y2="76.184" gradientTransform="rotate(180 26 82)" gradientUnits="userSpaceOnUse"><stop offset="0" stop-color="#009688"/><stop offset="1" stop-color="#009688" stop-opacity="0"/></linearGradient><path fill="url(#d)" d="M54 84h20v20H54z"/><path fill="#424242" d="M62.67 48h-3v56h3zm5.66 0h-3v60.75h3zM57 48h-3v56h3zm17 0h-3v56h3z" opacity=".2"/><path fill="#80CBC4" d="M92 48h20v60H92z"/><linearGradient id="e" x1="102" x2="102" y1="51.667" y2="61.263" gradientUnits="userSpaceOnUse"><stop offset="0" stop-color="#009688"/><stop offset="1" stop-color="#009688" stop-opacity="0"/></linearGradient><path fill="url(#e)" d="M92 48h20v20H92z"/><linearGradient id="f" x1="-50" x2="-50" y1="63.667" y2="76.184" gradientTransform="rotate(180 26 82)" gradientUnits="userSpaceOnUse"><stop offset="0" stop-color="#009688"/><stop offset="1" stop-color="#009688" stop-opacity="0"/></linearGradient><path fill="url(#f)" d="M92 84h20v20H92z"/><path fill="#424242" d="M100.67 48h-3v56h3zm5.66 0h-3v60.75h3zM95 48h-3v56h3zm17 0h-3v56h3z" opacity=".2"/><linearGradient id="g" x1="26" x2="26" y1="50" y2="41.991" gradientUnits="userSpaceOnUse"><stop offset="0" stop-color="#80CBC4"/><stop offset=".338" stop-color="#65C0B7"/><stop offset=".996" stop-color="#26A69A"/></linearGradient><path fill="url(#g)" d="M12 40v5c0 3.87 3.13 7 7 7h14c3.87 0 7-3.13 7-7v-5H12z"/><path fill="#424242" d="M37 43v2c0 2.21-1.79 4-4 4H19c-2.21 0-4-1.79-4-4v-2h22m3-3H12v5c0 3.87 3.13 7 7 7h14c3.87 0 7-3.13 7-7v-5z" opacity=".2"/><linearGradient id="h" x1="64" x2="64" y1="50" y2="41.991" gradientUnits="userSpaceOnUse"><stop offset="0" stop-color="#80CBC4"/><stop offset=".338" stop-color="#65C0B7"/><stop offset=".996" stop-color="#26A69A"/></linearGradient><path fill="url(#h)" d="M50 40v5c0 3.87 3.13 7 7 7h14c3.87 0 7-3.13 7-7v-5H50z"/><path fill="#424242" d="M75 43v2c0 2.21-1.79 4-4 4H57c-2.21 0-4-1.79-4-4v-2h22m3-3H50v5c0 3.87 3.13 7 7 7h14c3.87 0 7-3.13 7-7v-5z" opacity=".2"/><linearGradient id="i" x1="102" x2="102" y1="50" y2="41.991" gradientUnits="userSpaceOnUse"><stop offset="0" stop-color="#80CBC4"/><stop offset=".338" stop-color="#65C0B7"/><stop offset=".996" stop-color="#26A69A"/></linearGradient><path fill="url(#i)" d="M88 40v5c0 3.87 3.13 7 7 7h14c3.87 0 7-3.13 7-7v-5H88z"/><path fill="#424242" d="M113 43v2c0 2.21-1.79 4-4 4H95c-2.21 0-4-1.79-4-4v-2h22m3-3H88v5c0 3.87 3.13 7 7 7h14c3.87 0 7-3.13 7-7v-5z" opacity=".2"/><linearGradient id="j" x1="26" x2="26" y1="102" y2="93.991" gradientTransform="rotate(180 64 102)" gradientUnits="userSpaceOnUse"><stop offset="0" stop-color="#80CBC4"/><stop offset=".338" stop-color="#65C0B7"/><stop offset=".996" stop-color="#26A69A"/></linearGradient><path fill="url(#j)" d="M116 112v-5c0-3.87-3.13-7-7-7H95c-3.87 0-7 3.13-7 7v5h28z"/><path fill="#424242" d="M109 103c2.21 0 4 1.79 4 4v2H91v-2c0-2.21 1.79-4 4-4h14m0-3H95c-3.87 0-7 3.13-7 7v5h28v-5c0-3.87-3.13-7-7-7z" opacity=".2"/><linearGradient id="k" x1="64" x2="64" y1="102" y2="93.991" gradientTransform="rotate(180 64 102)" gradientUnits="userSpaceOnUse"><stop offset="0" stop-color="#80CBC4"/><stop offset=".338" stop-color="#65C0B7"/><stop offset=".996" stop-color="#26A69A"/></linearGradient><path fill="url(#k)" d="M78 112v-5c0-3.87-3.13-7-7-7H57c-3.87 0-7 3.13-7 7v5h28z"/><path fill="#424242" d="M71 103c2.21 0 4 1.79 4 4v2H53v-2c0-2.21 1.79-4 4-4h14m0-3H57c-3.87 0-7 3.13-7 7v5h28v-5c0-3.87-3.13-7-7-7z" opacity=".2"/><linearGradient id="l" x1="102" x2="102" y1="102" y2="93.991" gradientTransform="rotate(180 64 102)" gradientUnits="userSpaceOnUse"><stop offset="0" stop-color="#80CBC4"/><stop offset=".338" stop-color="#65C0B7"/><stop offset=".996" stop-color="#26A69A"/></linearGradient><path fill="url(#l)" d="M40 112v-5c0-3.87-3.13-7-7-7H19c-3.87 0-7 3.13-7 7v5h28z"/><path fill="#424242" d="M33 103c2.21 0 4 1.79 4 4v2H15v-2c0-2.21 1.79-4 4-4h14m0-3H19c-3.87 0-7 3.13-7 7v5h28v-5c0-3.87-3.13-7-7-7z" opacity=".2"/><linearGradient id="m" x1="64" x2="64" y1="111" y2="118.83" gradientUnits="userSpaceOnUse"><stop offset="0" stop-color="#80CBC4"/><stop offset=".34" stop-color="#65C0B7"/><stop offset="1" stop-color="#26A69A"/></linearGradient><path fill="url(#m)" d="M120 120H8v-8c0-2.21 1.79-4 4-4h104c2.21 0 4 1.79 4 4v8z"/><radialGradient id="n" cx="63.667" cy="4.333" r="53.207" gradientTransform="matrix(0 1 -1.2216 0 68.96 -59.333)" gradientUnits="userSpaceOnUse"><stop offset="0" stop-color="#80CBC4"/><stop offset=".214" stop-color="#7CC9C2"/><stop offset=".424" stop-color="#70C5BD"/><stop offset=".632" stop-color="#5DBCB3"/><stop offset=".839" stop-color="#41B1A7"/><stop offset="1" stop-color="#26A69A"/></radialGradient><path fill="url(#n)" d="M56.42 5.79 6.21 30.89A4.02 4.02 0 0 0 4 34.47V40c0 2.21 1.79 4 4 4h112c2.21 0 4-1.79 4-4v-5.53c0-1.52-.86-2.9-2.21-3.58L71.58 5.79A16.931 16.931 0 0 0 64 4c-2.63 0-5.22.61-7.58 1.79z"/><linearGradient id="o" x1="64" x2="64" y1="3.822" y2="48.385" gradientUnits="userSpaceOnUse"><stop offset="0" stop-color="#B2DFDB"/><stop offset=".306" stop-color="#97D4CE"/><stop offset=".962" stop-color="#51B8AE"/><stop offset="1" stop-color="#4DB6AC"/></linearGradient><path fill="url(#o)" d="M106.53 32.21 68 12.94c-1.24-.62-2.61-.94-4-.94s-2.76.32-4 .94L21.47 32.21c-1.89.94-1.22 3.79.89 3.79h83.28c2.11 0 2.78-2.85.89-3.79z"/><linearGradient id="p" x1="64" x2="64" y1="115" y2="123.69" gradientUnits="userSpaceOnUse"><stop offset="0" stop-color="#80CBC4"/><stop offset=".214" stop-color="#7CC9C2"/><stop offset=".424" stop-color="#70C5BD"/><stop offset=".632" stop-color="#5DBCB3"/><stop offset=".839" stop-color="#41B1A7"/><stop offset="1" stop-color="#26A69A"/></linearGradient><path fill="url(#p)" d="M124 124H4v-4c0-2.21 1.79-4 4-4h112c2.21 0 4 1.79 4 4v4z"/><path fill="#424242" d="M116 111c.55 0 1 .45 1 1v7h3c.55 0 1 .45 1 1v1H7v-1c0-.55.45-1 1-1h3v-7c0-.55.45-1 1-1h104m0-3H12c-2.21 0-4 1.79-4 4v4c-2.21 0-4 1.79-4 4v4h120v-4c0-2.21-1.79-4-4-4v-4c0-2.21-1.79-4-4-4zM64 7c2.15 0 4.31.51 6.24 1.47l50.21 25.11c.34.17.55.51.55.89V40c0 .55-.45 1-1 1H8c-.55 0-1-.45-1-1v-5.53c0-.38.21-.72.55-.89L57.76 8.47C59.69 7.51 61.85 7 64 7m0-3c-2.63 0-5.22.61-7.58 1.79L6.21 30.89A4.02 4.02 0 0 0 4 34.47V40c0 2.21 1.79 4 4 4h112c2.21 0 4-1.79 4-4v-5.53c0-1.52-.86-2.9-2.21-3.58L71.58 5.79A16.931 16.931 0 0 0 64 4z" opacity=".2"/></svg>