<svg xmlns="http://www.w3.org/2000/svg" viewBox="0 0 128 128"><linearGradient id="a" x1="64" x2="64" y1="64.625" y2="120.19" gradientUnits="userSpaceOnUse"><stop offset="0" stop-color="#01579B"/><stop offset="1" stop-color="#00ACC1"/></linearGradient><path fill="url(#a)" d="M124 124H4V72c0-4.42 3.58-8 8-8h104c4.42 0 8 3.58 8 8v52z"/><ellipse cx="63.96" cy="103.17" fill="#00BCD4" opacity=".7" rx="53" ry="8.83"/><ellipse cx="63.96" cy="102.12" fill="#FFECB3" rx="50" ry="6.21"/><linearGradient id="b" x1="63.982" x2="63.982" y1="78.89" y2="110.78" gradientUnits="userSpaceOnUse"><stop offset="0" stop-color="#FFECB3"/><stop offset=".444" stop-color="#FFD965"/><stop offset=".816" stop-color="#FFCA28"/><stop offset="1" stop-color="#FFCA28"/></linearGradient><path fill="url(#b)" d="M112 100.67h-.02C106.75 89.21 87.26 80.71 64 80.71s-42.75 8.51-47.98 19.96H16l.01.01c0 .01-.01.02-.01.02h.03c-1.66 3.21 27.97 4.88 47.97 4.88s48.75-1.92 47.97-4.88h.03c0-.01-.01-.02-.01-.02l.01-.01z"/><path fill="#424242" d="M116 67c2.76 0 5 2.24 5 5v49H7V72c0-2.76 2.24-5 5-5h104m0-3H12c-4.42 0-8 3.58-8 8v52h120V72c0-4.42-3.58-8-8-8z" opacity=".2"/><ellipse cx="30.89" cy="95.76" fill="#FFB300" rx="1.49" ry=".93"/><ellipse cx="37.17" cy="89.43" fill="#FFC107" rx=".94" ry=".59"/><ellipse cx="74" cy="91.89" fill="#FFD54F" rx=".94" ry=".59"/><ellipse cx="85.48" cy="100.75" fill="#FFC107" rx="1.49" ry=".93"/><ellipse cx="56.76" cy="90.86" fill="#FFC107" rx="1.35" ry=".85"/><ellipse cx="50.14" cy="91.36" fill="#FFC107" rx="1.35" ry=".85"/><ellipse cx="63.05" cy="95.59" fill="#FFC107" rx=".94" ry=".59"/><ellipse cx="36.86" cy="100.77" fill="#FFC107" rx="1.25" ry=".79"/><ellipse cx="58.38" cy="94.25" fill="#FFD54F" rx=".94" ry=".59"/><ellipse cx="46.42" cy="102.19" fill="#FFD54F" rx=".94" ry=".59"/><ellipse cx="26.73" cy="97.78" fill="#FFC107" rx=".94" ry=".59"/><ellipse cx="47.18" cy="96.12" fill="#FFC107" rx="1.25" ry=".79"/><ellipse cx="96.58" cy="102.07" fill="#FFC107" rx="1.25" ry=".79"/><ellipse cx="75.05" cy="100.57" fill="#FFD54F" rx=".94" ry=".59"/><ellipse cx="102.76" cy="97.72" fill="#FFC107" rx="1.49" ry=".93"/><path fill="#424242" d="M64 83.71c19.81 0 37.59 6.56 43.94 15.9-6.22 1.47-24.7 2.98-43.94 2.98-21.54 0-38.35-1.5-44.04-2.83C26.23 90.33 44.09 83.71 64 83.71m0-3c-23.26 0-42.75 8.51-47.98 19.96H16l.01.01c0 .01-.01.02-.01.02h.03c-1.66 3.21 27.97 4.88 47.97 4.88s48.75-1.92 47.97-4.88h.03c0-.01-.01-.02-.01-.02l.01-.01h-.02C106.75 89.21 87.26 80.71 64 80.71z" opacity=".2"/><linearGradient id="c" x1="76.057" x2="86.05" y1="35.392" y2="92.333" gradientUnits="userSpaceOnUse"><stop offset="0" stop-color="#8D6E63"/><stop offset=".998" stop-color="#5D4037"/></linearGradient><path fill="url(#c)" d="M68.84 28.35c14.78 26.34 8.17 63.35 8.17 63.35s1.31 2.1 6.91 2.29c4.65.16 7.04-2.03 7.04-2.04 2.98-32.36-8.86-58.2-16.84-65.11.03 0-4.35.46-5.28 1.51z"/><path fill="#424242" d="M73.11 30.02c6.92 7.2 17.35 30.35 14.99 60.22-.75.35-1.97.76-3.7.76-.12 0-.25 0-.38-.01-1.88-.06-3.06-.37-3.77-.65 1.12-7.69 4.3-36.92-7.14-60.32-.01 0-.01 0 0 0m1.01-3.18zm0 0c-.02.01-4.35.47-5.28 1.51 14.78 26.34 8.17 63.35 8.17 63.35s1.31 2.1 6.91 2.29c.17.01.33.01.48.01 4.33 0 6.56-2.03 6.56-2.05 2.98-32.36-8.86-58.2-16.84-65.11z" opacity=".2"/><linearGradient id="d" x1="38.848" x2="105.42" y1="7.427" y2="66.309" gradientUnits="userSpaceOnUse"><stop offset="0" stop-color="#9CCC65"/><stop offset=".995" stop-color="#689F38"/></linearGradient><path fill="url(#d)" d="M76.26 22.31c15.54-13.23 33.1-2.25 38.82 2.05.71.54 1.68-.17 1.41-1.02-1.96-6.13-9.74-17.9-23.92-17.81-14.61.09-16.81 8.36-19.95 12.26-3.77-23-30.2-10.94-28.03-8.04 1.92 2.55 16.4-.97 22.06 9.46-3.99-2.9-13.51-6.66-25.08-2.64-9.65 3.35-12.7 14.31-12.95 19.32-.05.93 1.1 1.42 1.75.75 4.41-4.56 18.16-16.79 35.33-12.82-38.77 5.64-32.49 30.1-28.65 39.29.51 1.22 2.27 1.16 2.67-.1 5.44-17.24 20.43-30.08 28.81-34.58-20.45 19.13-12.73 42.9 2.41 45.97 1.42.29 2.63-1.08 2.22-2.48-2.63-8.93-6.73-25.12 1.21-43.2.9.36 20.4 5.24 35.8 27.81.75 1.1 2.45.75 2.68-.56 1.74-9.89 3.05-37.3-36.59-33.66z"/><path fill="#424242" d="M57.87 7c6.59 0 10.55 3.79 11.78 11.27a3.011 3.011 0 0 0 2.19 2.42c.25.07.51.1.77.1.43 0 .85-.09 1.24-.27a3.005 3.005 0 0 0 2.4 4.8c.09 0 .18 0 .28-.01 2.3-.21 4.52-.32 6.6-.32 10.5 0 18.08 2.69 22.53 7.98 4.7 5.6 5.21 13.16 4.74 18.72-13.12-17.46-28.49-23.76-34.74-25.7-.1-.03-.18-.06-.23-.07a2.996 2.996 0 0 0-3.79 1.6c-.05.12-.1.23-.15.35a2.996 2.996 0 0 0-2.95-2.43c-.1 0-.21.01-.31.02.29-.44.46-.96.48-1.51.03-.78-.24-1.5-.71-2.06a2.992 2.992 0 0 0 1.29-4.11C65.06 10 56.91 8.69 51.37 8.14 53.22 7.5 55.49 7 57.87 7m34.86 1.53c8.3 0 13.94 4.62 17.3 9.09-4.66-2.45-10.64-4.63-17.2-4.63-6.41 0-12.3 2.1-17.54 6.23.51-.69.98-1.42 1.48-2.2 2.52-3.95 5.39-8.43 15.81-8.5l.15.01m-41.02 9.28c4.37 0 8.16 1.11 10.85 2.44-1.22-.14-2.45-.21-3.68-.21-11.18 0-20.39 5.64-26.1 10.31 1.41-4.19 4.31-9.06 9.77-10.96 3.03-1.05 6.11-1.58 9.16-1.58m13.41 9.13c-7.66 4.71-20.4 15.57-26.74 30.96-1.44-4.98-2.22-11.7 1.12-17.59 3.86-6.8 12.47-11.3 25.62-13.37m5.12 4.01c-5.69 15.45-3.48 29.26-.48 40.02-4.6-1.63-8.28-5.79-9.83-11.25-2.64-9.36 1.21-20.09 10.31-28.77M57.87 4c-7.38 0-14.45 4.19-13.29 5.74 1.92 2.55 16.4-.97 22.06 9.46-2.74-2-8.09-4.39-14.93-4.39-3.11 0-6.53.5-10.15 1.75-9.65 3.35-12.7 14.31-12.95 19.32-.03.63.49 1.06 1.02 1.06.25 0 .51-.1.72-.31 3.81-3.94 14.59-13.6 28.52-13.6 2.2 0 4.47.24 6.82.78-38.77 5.64-32.49 30.1-28.65 39.29.25.59.79.88 1.32.88.57 0 1.14-.33 1.34-.98 5.44-17.24 20.43-30.08 28.81-34.58C48.08 47.56 55.8 71.33 70.94 74.4c.13.03.26.04.38.04 1.25 0 2.21-1.25 1.83-2.51-2.63-8.93-6.73-25.12 1.21-43.2.9.36 20.4 5.24 35.8 27.81.3.45.77.65 1.23.65.67 0 1.32-.44 1.45-1.21 1.63-9.29 2.88-34-29.73-34-2.14 0-4.43.11-6.87.33 5.48-4.66 11.21-6.32 16.58-6.32 9.87 0 18.53 5.59 22.24 8.37.17.13.36.19.54.19a.92.92 0 0 0 .87-1.2c-1.95-6.11-9.68-17.81-23.75-17.81h-.16c-14.61.09-16.81 8.36-19.95 12.26C70.86 7.13 64.25 4 57.87 4z" opacity=".2"/><path fill="none" d="M79.65 57.76c.11-.07.2-.06.33-.1.18-.06.35-.19.52-.28.54-.29 1.09-.54 1.66-.75.63-.23 1.3-.34 1.93-.57.13-.05.28-.14.36-.25-.15.08-.26.24-.37.37-.41.48-.84.94-1.24 1.42-.17.17-.3.36-.4.57-.06.11-.11.23-.16.34-.13.15-.22.1-.37.02-.44-.21-.93-.46-1.41-.57-.19-.04-.71-.14-.85-.2z"/><path fill="#A1887F" d="m77.74 42.33 2.71-.01-1.62 1.02zm2.52 8.96 3.28-.15-1.91 1.32zm1.11 7.93 4.49-1.62-2.08 2.66zm.06 5.98 4.77-.13-2.8 1.87zm1.78 7.99 4.49-1.62-2.08 2.65zm-1.37 6.84 4.89-.34-3.01 2.26z"/></svg>