<svg xmlns="http://www.w3.org/2000/svg" xmlns:xlink="http://www.w3.org/1999/xlink" viewBox="0 0 128 128"><linearGradient id="a" x1="100.62" x2="100.62" y1="13.333" y2="122.67" gradientUnits="userSpaceOnUse"><stop offset=".177" stop-color="#BCAAA4"/><stop offset=".366" stop-color="#B9A69F"/><stop offset=".586" stop-color="#AE9991"/><stop offset=".82" stop-color="#9E837A"/><stop offset="1" stop-color="#8D6E63"/></linearGradient><path fill="url(#a)" d="M123.75 124H77.5V15c0-1.66 1.34-3 3-3h40.25c1.66 0 3 1.34 3 3v109z"/><path fill="#6D4C41" d="M97.58 99.08h-6.25c-1.1 0-2-.9-2-2v-6c0-1.1.9-2 2-2h6.25c1.1 0 2 .9 2 2v6c0 1.11-.89 2-2 2zm0-16.66h-6.25c-1.1 0-2-.9-2-2v-6c0-1.1.9-2 2-2h6.25c1.1 0 2 .9 2 2v6a2 2 0 0 1-2 2zm0-16.67h-6.25c-1.1 0-2-.9-2-2v-6c0-1.1.9-2 2-2h6.25c1.1 0 2 .9 2 2v6a2 2 0 0 1-2 2zm0-17.75h-6.25c-1.1 0-2-.9-2-2v-6c0-1.1.9-2 2-2h6.25c1.1 0 2 .9 2 2v6a2 2 0 0 1-2 2zm21 51.08h-9.75c-1.1 0-2-.9-2-2v-6c0-1.1.9-2 2-2h9.75c1.1 0 2 .9 2 2v6c0 1.11-.89 2-2 2zm0-16.66h-9.75c-1.1 0-2-.9-2-2v-6c0-1.1.9-2 2-2h9.75c1.1 0 2 .9 2 2v6a2 2 0 0 1-2 2zm0-16.67h-9.75c-1.1 0-2-.9-2-2v-6c0-1.1.9-2 2-2h9.75c1.1 0 2 .9 2 2v6a2 2 0 0 1-2 2zm0-17.75h-9.75c-1.1 0-2-.9-2-2v-6c0-1.1.9-2 2-2h9.75c1.1 0 2 .9 2 2v6a2 2 0 0 1-2 2z"/><path fill="#C62828" d="M90.25 29.62h8v5h-8zm0 62.38h8v5h-8z"/><linearGradient id="b" x1="48" x2="48" y1="3.75" y2="124.81" gradientUnits="userSpaceOnUse"><stop offset=".177" stop-color="#D7CCC8"/><stop offset=".354" stop-color="#D3C8C3"/><stop offset=".56" stop-color="#C9BAB5"/><stop offset=".78" stop-color="#B8A59E"/><stop offset="1" stop-color="#A1887F"/></linearGradient><path fill="url(#b)" d="M92 124H4V8c0-2.21 1.79-4 4-4h80c2.21 0 4 1.79 4 4v116z"/><path fill="#424242" d="M88 7c.55 0 1 .45 1 1v4c0 1.66 1.34 3 3 3h28.75v106H7V8c0-.55.45-1 1-1h80m0-3H8C5.79 4 4 5.79 4 8v116h119.75V15c0-1.66-1.34-3-3-3H92V8c0-2.21-1.79-4-4-4z" opacity=".2"/><path fill="#6D4C41" d="M25.05 97.08H13.83c-1.1 0-2-.9-2-2V89.3c0-1.1.9-2 2-2h11.22c1.1 0 2 .9 2 2v5.78c0 1.11-.89 2-2 2zm0-16.29H13.83c-1.1 0-2-.9-2-2v-5.78c0-1.1.9-2 2-2h11.22c1.1 0 2 .9 2 2v5.78a2 2 0 0 1-2 2zm0-16.3H13.83c-1.1 0-2-.9-2-2v-5.78c0-1.1.9-2 2-2h11.22c1.1 0 2 .9 2 2v5.78c0 1.11-.89 2-2 2zm0-16.3H13.83c-1.1 0-2-.9-2-2v-5.78c0-1.1.9-2 2-2h11.22c1.1 0 2 .9 2 2v5.78c0 1.11-.89 2-2 2zm28.23 48.89H42.06c-1.1 0-2-.9-2-2V89.3c0-1.1.9-2 2-2h11.22c1.1 0 2 .9 2 2v5.78a2 2 0 0 1-2 2zm0-16.29H42.06c-1.1 0-2-.9-2-2v-5.78c0-1.1.9-2 2-2h11.22c1.1 0 2 .9 2 2v5.78c0 1.1-.9 2-2 2zm0-16.3H42.06c-1.1 0-2-.9-2-2v-5.78c0-1.1.9-2 2-2h11.22c1.1 0 2 .9 2 2v5.78a2 2 0 0 1-2 2zm0-16.3H42.06c-1.1 0-2-.9-2-2v-5.78c0-1.1.9-2 2-2h11.22c1.1 0 2 .9 2 2v5.78a2 2 0 0 1-2 2zM81.5 97.08H70.28c-1.1 0-2-.9-2-2V89.3c0-1.1.9-2 2-2H81.5c1.1 0 2 .9 2 2v5.78a2 2 0 0 1-2 2zm0-16.29H70.28c-1.1 0-2-.9-2-2v-5.78c0-1.1.9-2 2-2H81.5c1.1 0 2 .9 2 2v5.78c0 1.1-.9 2-2 2zm0-16.3H70.28c-1.1 0-2-.9-2-2v-5.78c0-1.1.9-2 2-2H81.5c1.1 0 2 .9 2 2v5.78a2 2 0 0 1-2 2zm0-16.3H70.28c-1.1 0-2-.9-2-2v-5.78c0-1.1.9-2 2-2H81.5c1.1 0 2 .9 2 2v5.78a2 2 0 0 1-2 2zM25.05 31.86H13.83c-1.1 0-2-.9-2-2v-5.78c0-1.1.9-2 2-2h11.22c1.1 0 2 .9 2 2v5.78c0 1.11-.89 2-2 2zm28.23 0H42.06c-1.1 0-2-.9-2-2v-5.78c0-1.1.9-2 2-2h11.22c1.1 0 2 .9 2 2v5.78a2 2 0 0 1-2 2zm28.22 0H70.28c-1.1 0-2-.9-2-2v-5.78c0-1.1.9-2 2-2H81.5c1.1 0 2 .9 2 2v5.78a2 2 0 0 1-2 2zM11 110h22.42v14H11z"/><path fill="#424242" d="M11 110h2.8v14H11zm19.62 0h2.8v14h-2.8z" opacity=".2"/><path fill="#6D4C41" d="M36.79 110h22.42v14H36.79z"/><path fill="#424242" d="M36.79 110h2.8v14h-2.8zm19.62 0h2.8v14h-2.8z" opacity=".2"/><path fill="#6D4C41" d="M62.58 110H85v14H62.58z"/><path fill="#424242" d="M62.58 110h2.8v14h-2.8zm19.62 0H85v14h-2.8z" opacity=".2"/><path fill="#4DB6AC" d="M87.75 112.08H8.67c-1.1 0-2-.9-2-2v-.3h83.08v.3a2 2 0 0 1-2 2z"/><path fill="#00796B" d="M89.75 110.36H6.67v-2.44c0-.55.45-1 1-1h81.08c.55 0 1 .45 1 1v2.44z"/><path fill="#EF5350" d="M100 104.71c-1.63 0-2.96-1.33-2.96-2.96V25c0-1.63 1.33-2.96 2.96-2.96h11.57c1.63 0 2.96 1.33 2.96 2.96v76.75c0 1.63-1.33 2.96-2.96 2.96H100z"/><path fill="#C62828" d="M111.57 23.07c1.06 0 1.93.87 1.93 1.93v76.75c0 1.06-.87 1.93-1.93 1.93H100c-1.06 0-1.93-.87-1.93-1.93V25c0-1.06.87-1.93 1.93-1.93h11.57m0-2.07H100c-2.21 0-4 1.79-4 4v76.75c0 2.21 1.79 4 4 4h11.57c2.21 0 4-1.79 4-4V25c0-2.21-1.79-4-4-4z"/><defs><path id="c" d="M92 124H4V8c0-2.21 1.79-4 4-4h80c2.21 0 4 1.79 4 4v116z"/></defs><clipPath id="d"><use xlink:href="#c"/></clipPath><path fill="#BF360C" d="M-2 4h107.83v7.83H-2z" clip-path="url(#d)"/></svg>