<svg xmlns="http://www.w3.org/2000/svg" viewBox="0 0 128 128"><path fill="#757575" d="M40 5.17 34.34 12h59.31L88 5.17A4.004 4.004 0 0 0 85.17 4H42.83c-1.06 0-2.08.42-2.83 1.17z"/><radialGradient id="a" cx="64.333" cy="20.667" r="94.688" gradientUnits="userSpaceOnUse"><stop offset="0" stop-color="#E0E0E0"/><stop offset=".711" stop-color="#BDBDBD"/><stop offset=".728" stop-color="#bbb"/><stop offset="1" stop-color="#9E9E9E"/></radialGradient><path fill="url(#a)" d="M6 20h116v104H6z"/><path fill="#616161" d="M124 124H4v-22c0-1.1.9-2 2-2h116c1.1 0 2 .9 2 2v22z"/><path fill="#757575" d="M122 24H6c-1.1 0-2-.9-2-2h120c0 1.1-.9 2-2 2z"/><path fill="#616161" d="M9.17 15.17 4 22h120l-5.17-6.83A4.004 4.004 0 0 0 116 14H12c-1.06 0-2.08.42-2.83 1.17z"/><path fill="#4FC3F7" d="M26 48h-8c-1.1 0-2-.9-2-2v-8c0-1.1.9-2 2-2h8c1.1 0 2 .9 2 2v8c0 1.1-.9 2-2 2zm0 20h-8c-1.1 0-2-.9-2-2v-8c0-1.1.9-2 2-2h8c1.1 0 2 .9 2 2v8c0 1.1-.9 2-2 2zm0 20h-8c-1.1 0-2-.9-2-2v-8c0-1.1.9-2 2-2h8c1.1 0 2 .9 2 2v8c0 1.1-.9 2-2 2zm84 0h-8c-1.1 0-2-.9-2-2v-8c0-1.1.9-2 2-2h8c1.1 0 2 .9 2 2v8c0 1.1-.9 2-2 2zm0-40h-8c-1.1 0-2-.9-2-2v-8c0-1.1.9-2 2-2h8c1.1 0 2 .9 2 2v8c0 1.1-.9 2-2 2zm0 20h-8c-1.1 0-2-.9-2-2v-8c0-1.1.9-2 2-2h8c1.1 0 2 .9 2 2v8c0 1.1-.9 2-2 2z"/><path fill="#515151" d="M11.74 120.62H5.5c-.83 0-1.5-.67-1.5-1.5v-1.62c0-.83.67-1.5 1.5-1.5h6.24c.83 0 1.5.67 1.5 1.5v1.62c0 .83-.68 1.5-1.5 1.5zm9.61-8h-6.24c-.83 0-1.5-.67-1.5-1.5v-1.62c0-.83.67-1.5 1.5-1.5h6.24c.83 0 1.5.67 1.5 1.5v1.62c0 .83-.67 1.5-1.5 1.5zM10.5 108H8.88c-.83 0-1.5-.67-1.5-1.5v-1.62c0-.83.67-1.5 1.5-1.5h1.62c.83 0 1.5.67 1.5 1.5v1.62c0 .83-.67 1.5-1.5 1.5zm12-3.38h-1.62c-.83 0-1.5-.67-1.5-1.5v-1.62c0-.83.67-1.5 1.5-1.5h1.62c.83 0 1.5.67 1.5 1.5v1.62c0 .83-.67 1.5-1.5 1.5zm7.71 8h-1.62c-.83 0-1.5-.67-1.5-1.5v-1.62c0-.83.67-1.5 1.5-1.5h1.62c.83 0 1.5.67 1.5 1.5v1.62c0 .83-.67 1.5-1.5 1.5zM26.16 120h-1.62c-.83 0-1.5-.67-1.5-1.5v-1.62c0-.83.67-1.5 1.5-1.5h1.62c.83 0 1.5.67 1.5 1.5v1.62c0 .83-.67 1.5-1.5 1.5zm76.42-11.21h-6.59c-.83 0-1.5-.67-1.5-1.5v-1.79c0-.83.67-1.5 1.5-1.5h6.59c.83 0 1.5.67 1.5 1.5v1.79c0 .83-.68 1.5-1.5 1.5zm-3.25 12h-1.79c-.83 0-1.5-.67-1.5-1.5v-1.79c0-.83.67-1.5 1.5-1.5h1.79c.83 0 1.5.67 1.5 1.5v1.79c0 .83-.68 1.5-1.5 1.5zM110.5 116h-6.59c-.83 0-1.5-.67-1.5-1.5v-1.79c0-.83.67-1.5 1.5-1.5h6.59c.83 0 1.5.67 1.5 1.5v1.79c0 .83-.67 1.5-1.5 1.5zm12-7.21h-6.59c-.83 0-1.5-.67-1.5-1.5v-1.79c0-.83.67-1.5 1.5-1.5h6.59c.83 0 1.5.67 1.5 1.5v1.79c0 .83-.67 1.5-1.5 1.5zm-4 12.1h-1.79c-.83 0-1.5-.67-1.5-1.5v-1.79c0-.83.67-1.5 1.5-1.5h1.79c.83 0 1.5.67 1.5 1.5v1.79c0 .83-.67 1.5-1.5 1.5z"/><linearGradient id="b" x1="36" x2="20.999" y1="62" y2="62" gradientUnits="userSpaceOnUse"><stop offset="0" stop-color="#757575"/><stop offset=".103" stop-color="#757575" stop-opacity=".897"/><stop offset="1" stop-color="#757575" stop-opacity="0"/></linearGradient><path fill="url(#b)" d="M20 24h16v76H20z"/><linearGradient id="c" x1="88.5" x2="73.499" y1="62" y2="62" gradientTransform="matrix(-1 0 0 1 180.5 0)" gradientUnits="userSpaceOnUse"><stop offset="0" stop-color="#757575"/><stop offset=".103" stop-color="#757575" stop-opacity=".897"/><stop offset="1" stop-color="#757575" stop-opacity="0"/></linearGradient><path fill="url(#c)" d="M92 100h16V24H92z"/><linearGradient id="d" x1="32" x2="13.249" y1="112" y2="112" gradientUnits="userSpaceOnUse"><stop offset="0" stop-color="#424242"/><stop offset="1" stop-color="#424242" stop-opacity="0"/></linearGradient><path fill="url(#d)" d="M12 100h20v24H12z"/><linearGradient id="e" x1="108" x2="89.249" y1="112" y2="112" gradientTransform="matrix(-1 0 0 1 204 0)" gradientUnits="userSpaceOnUse"><stop offset="0" stop-color="#424242"/><stop offset="1" stop-color="#424242" stop-opacity="0"/></linearGradient><path fill="url(#e)" d="M116 124H96v-24h20z"/><path fill="#616161" d="M32 96h64v28H32z"/><path fill="#757575" d="M75.35 124H73.5c-.83 0-1.5-.67-1.5-1.5v-1.85c0-.83.67-1.5 1.5-1.5h1.85c.83 0 1.5.67 1.5 1.5v1.85c0 .83-.67 1.5-1.5 1.5zm-26.77 0h-7.32c-.83 0-1.5-.67-1.5-1.5v-2.16c0-.83.67-1.5 1.5-1.5h7.32c.83 0 1.5.67 1.5 1.5v2.16c0 .83-.67 1.5-1.5 1.5z"/><path fill="#616161" d="M116 17c.22 0 .43.07.6.2l3.43 4.53c-.63.55-1.03 1.36-1.03 2.27v76c0 1.31.83 2.42 2 2.83V121H7v-18.17c1.17-.41 2-1.52 2-2.83V24c0-.91-.4-1.72-1.03-2.27l3.43-4.53c.17-.13.38-.2.6-.2h104m0-3H12c-1.06 0-2.08.42-2.83 1.17L4 22c0 1.1.9 2 2 2v76c-1.1 0-2 .9-2 2v22h120v-22c0-1.1-.9-2-2-2V24c1.1 0 2-.9 2-2l-5.17-6.83A4.004 4.004 0 0 0 116 14z" opacity=".2"/><radialGradient id="f" cx="64.167" cy="16.667" r="78.772" gradientTransform="matrix(1 0 0 .6786 0 3.857)" gradientUnits="userSpaceOnUse"><stop offset=".057" stop-color="#eee"/><stop offset=".307" stop-color="#E8E8E8"/><stop offset=".63" stop-color="#D8D8D8"/><stop offset=".991" stop-color="#BEBEBE"/><stop offset="1" stop-color="#BDBDBD"/></radialGradient><path fill="url(#f)" d="M36 12h56v76H36z"/><path fill="#616161" d="M88 5.17A4.004 4.004 0 0 0 85.17 4H42.83c-1.06 0-2.08.42-2.83 1.17L34.34 12c0 1.1.9 2 2 2l5.85-6.77c.18-.15.4-.23.64-.23h42.34c.24 0 .46.08.64.23L91.66 14c1.1 0 2-.9 2-2L88 5.17z" opacity=".2"/><path fill="#9E9E9E" d="M91.66 14H36.34c-1.1 0-2-.9-2-2h59.31c.01 1.1-.89 2-1.99 2z"/><path fill="#757575" d="M82.5 108.81h-1.81c-.83 0-1.5-.67-1.5-1.5v-1.81c0-.83.67-1.5 1.5-1.5h1.81c.83 0 1.5.67 1.5 1.5v1.81c0 .83-.67 1.5-1.5 1.5zm8 8.46h-7.54c-.83 0-1.5-.67-1.5-1.5v-2.27c0-.83.67-1.5 1.5-1.5h7.54c.83 0 1.5.67 1.5 1.5v2.27c0 .83-.67 1.5-1.5 1.5zM55.83 116H49.5c-.83 0-1.5-.67-1.5-1.5v-2.33c0-.83.67-1.5 1.5-1.5h6.33c.83 0 1.5.67 1.5 1.5v2.33c0 .83-.67 1.5-1.5 1.5zm-15.73-4h-2.6c-.83 0-1.5-.67-1.5-1.5v-2.6c0-.83.67-1.5 1.5-1.5h2.6c.83 0 1.5.67 1.5 1.5v2.6c0 .83-.67 1.5-1.5 1.5z"/><linearGradient id="g" x1="64" x2="64" y1="87.667" y2="105.01" gradientUnits="userSpaceOnUse"><stop offset="0" stop-color="#42A5F5"/><stop offset=".32" stop-color="#3DA1F3"/><stop offset=".704" stop-color="#2E95EC"/><stop offset="1" stop-color="#1E88E5"/></linearGradient><path fill="url(#g)" d="m101.25 97.1-6.05-7.54c-.8-1-1.89-1.56-3.02-1.56H35.83c-1.13 0-2.22.56-3.02 1.56l-6.05 7.54c-.8 1-1.25 2.36-1.25 3.77v.46c0 1.47.96 2.67 2.14 2.67h72.72c1.18 0 2.14-1.19 2.14-2.67v-.46c-.01-1.41-.46-2.77-1.26-3.77z"/><radialGradient id="h" cx="62.038" cy="30.353" r="36.312" gradientUnits="userSpaceOnUse"><stop offset="0" stop-color="#42A5F5"/><stop offset=".32" stop-color="#3DA1F3"/><stop offset=".704" stop-color="#2E95EC"/><stop offset="1" stop-color="#1E88E5"/></radialGradient><path fill="url(#h)" d="M72.4 66c-1.86 0-3.37-1.51-3.37-3.37V51.99c0-.1-.08-.18-.18-.18h-9.68c-.1 0-.18.08-.18.18v10.65c0 1.86-1.51 3.37-3.37 3.37h-3.46c-1.86 0-3.37-1.51-3.37-3.37V33.37c0-1.86 1.51-3.37 3.37-3.37h3.46c1.86 0 3.37 1.51 3.37 3.37v9.95c0 .1.08.18.18.18h9.68c.1 0 .18-.08.18-.18v-9.95c0-1.86 1.51-3.37 3.37-3.37h3.44c1.86 0 3.37 1.51 3.37 3.37v29.27c0 1.86-1.51 3.37-3.37 3.37H72.4z"/><path fill="#0F7ED1" d="M75.84 31c1.31 0 2.37 1.06 2.37 2.37v29.27c0 1.31-1.06 2.37-2.37 2.37H72.4c-1.31 0-2.37-1.06-2.37-2.37V51.99c0-.65-.53-1.18-1.18-1.18h-9.68c-.65 0-1.18.53-1.18 1.18v10.65c0 1.31-1.06 2.37-2.37 2.37h-3.46c-1.31 0-2.37-1.06-2.37-2.37V33.37c0-1.31 1.06-2.37 2.37-2.37h3.46c1.31 0 2.37 1.06 2.37 2.37v9.95c0 .65.53 1.18 1.18 1.18h9.68c.65 0 1.18-.53 1.18-1.18v-9.95c0-1.31 1.06-2.37 2.37-2.37h3.44m0-2H72.4c-2.41 0-4.37 1.96-4.37 4.37v9.13h-8.05v-9.13c0-2.41-1.96-4.37-4.37-4.37h-3.46c-2.41 0-4.37 1.96-4.37 4.37v29.27c0 2.41 1.96 4.37 4.37 4.37h3.46c2.41 0 4.37-1.96 4.37-4.37V52.8h8.05v9.83C68.04 65.04 70 67 72.4 67h3.44c2.41 0 4.37-1.96 4.37-4.37V33.37c0-2.41-1.96-4.37-4.37-4.37z"/><path fill="#4FC3F7" d="M56 104h16v20H56z"/><path fill="#424242" d="M56 104h2v20h-2zm14 0h2v20h-2z" opacity=".2"/><path fill="#616161" d="M92.17 91c.21 0 .46.16.68.44l6.05 7.54c.37.46.59 1.17.59 1.89v.13h-71v-.12c0-.72.22-1.43.59-1.89l6.05-7.54c.22-.27.48-.44.68-.44h56.36m0-3.01H35.83c-1.13 0-2.22.56-3.02 1.56l-6.05 7.54c-.8 1-1.25 2.36-1.25 3.77v.46c0 1.47.96 2.67 2.14 2.67h72.72c1.18 0 2.14-1.19 2.14-2.67v-.46c0-1.41-.45-2.77-1.25-3.77l-6.05-7.54c-.81-1-1.9-1.56-3.04-1.56z" opacity=".2"/></svg>