<svg xmlns="http://www.w3.org/2000/svg" style="enable-background:new 0 0 128 128" viewBox="0 0 128 128" xml:space="preserve"><radialGradient id="a" cx="150.899" cy="248.013" r="25.024" gradientTransform="matrix(0 1.1125 -1.9256 0 540.575 -157.085)" gradientUnits="userSpaceOnUse"><stop offset="0" style="stop-color:#eee"/><stop offset=".547" style="stop-color:#eee"/><stop offset=".716" style="stop-color:#dfdfdf"/><stop offset="1" style="stop-color:#bdbdbd"/></radialGradient><path d="m40 12.9-4 22.2h56l-4-22.2z" style="fill:url(#a)"/><path d="M55 28h-2c-.5 0-1-.5-1-1v-6c0-.5.5-1 1-1h2c.5 0 1 .5 1 1v6c0 .5-.5 1-1 1zm11 0h-4c-1.1 0-2-.9-2-2v-4c0-1.1.9-2 2-2h4c1.1 0 2 .9 2 2v4c0 1.1-.9 2-2 2zm9 0h-2c-.6 0-1-.5-1-1v-6c0-.5.4-1 1-1h2c.6 0 1 .5 1 1v6c0 .5-.4 1-1 1z" style="fill:#546e7a"/><g style="opacity:.2"><path d="m85.5 15.9 2.9 16.2H39.6l2.9-16.2h43m2.5-3H40l-4 22.2h56l-4-22.2z" style="fill:#424242"/></g><radialGradient id="b" cx="188" cy="283.666" r="16.668" gradientTransform="matrix(0 1 -2.9978 0 914.374 -183.5)" gradientUnits="userSpaceOnUse"><stop offset="0" style="stop-color:#546e7a"/><stop offset=".35" style="stop-color:#435761"/><stop offset=".659" style="stop-color:#37474f"/><stop offset="1" style="stop-color:#37474f"/></radialGradient><path d="M89.1 12c-.7 0-1.3-.4-1.7-1l-3.8-6.3c-.2-.4-1.2-.7-2.3-.7H46.7c-1.1 0-2.1.3-2.3.8L40.6 11c-.4.6-1 1-1.7 1h-5c-.7 0-1.2.6-1 1.3.5 1.6 2 2.7 3.8 2.7H92c1.8 0 3.2-1.1 3.8-2.7.2-.6-.3-1.3-1-1.3h-5.7z" style="fill:url(#b)"/><g style="opacity:.2"><path d="M81.3 7h.2l3.3 5.6c.1.1.2.3.3.4H42.9c.1-.1.2-.3.3-.4L46.5 7h34.8m0-3H46.7c-1.1 0-2.1.3-2.3.8L40.6 11c-.4.6-1 1-1.7 1h-5c-.7 0-1.2.6-1 1.3.5 1.6 2 2.7 3.8 2.7H92c1.8 0 3.2-1.1 3.8-2.7.2-.6-.3-1.3-1-1.3h-5.7c-.7 0-1.3-.4-1.7-1l-3.8-6.3c-.2-.4-1.2-.7-2.3-.7z" style="fill:#424242"/></g><linearGradient id="c" x1="64" x2="64" y1="747.515" y2="737.366" gradientTransform="translate(0 -713.89)" gradientUnits="userSpaceOnUse"><stop offset="0" style="stop-color:#9e9e9e"/><stop offset="1" style="stop-color:#9e9e9e;stop-opacity:0"/></linearGradient><path d="m40 12.9-4 22.2h56l-4-22.2z" style="fill:url(#c)"/><linearGradient id="d" x1="64" x2="64" y1="751.421" y2="782.364" gradientTransform="translate(0 -713.89)" gradientUnits="userSpaceOnUse"><stop offset="0" style="stop-color:#e0e0e0"/><stop offset=".327" style="stop-color:#d1d1d1"/><stop offset=".662" style="stop-color:#bdbdbd"/><stop offset="1" style="stop-color:#bdbdbd"/></linearGradient><path d="M105 64.8H23l3.7-25.2h74.6z" style="fill:url(#d)"/><linearGradient id="e" x1="64" x2="64" y1="775.961" y2="761.749" gradientTransform="translate(0 -713.89)" gradientUnits="userSpaceOnUse"><stop offset="0" style="stop-color:#9e9e9e"/><stop offset="1" style="stop-color:#9e9e9e;stop-opacity:0"/></linearGradient><path d="M105 64.8H23l3.7-25.2h74.6z" style="fill:url(#e)"/><g style="opacity:.2"><path d="m98.7 42.6 2.8 19.1h-75l2.8-19.1h69.4m2.6-3H26.7L23 64.7h82l-3.7-25.1z" style="fill:#424242"/></g><radialGradient id="f" cx="188.167" cy="323.462" r="19.501" gradientTransform="matrix(0 1 -3.5703 0 1219.024 -156.333)" gradientUnits="userSpaceOnUse"><stop offset="0" style="stop-color:#546e7a"/><stop offset=".225" style="stop-color:#475d67"/><stop offset=".555" style="stop-color:#37474f"/><stop offset="1" style="stop-color:#37474f"/></radialGradient><path d="M105.2 40c-.8 0-1.4-.4-1.8-1.1l-3-6c-.3-.5-1-.9-1.9-.9H29.4c-.9 0-1.6.4-1.9.9l-3 6c-.3.7-1 1.1-1.8 1.1h-5.6c-.7 0-1.2.7-1 1.3.5 1.6 2 2.7 3.8 2.7h88c1.8 0 3.2-1.1 3.8-2.7.2-.6-.3-1.3-1-1.3h-5.5z" style="fill:url(#f)"/><g style="opacity:.2"><path d="m98.2 35 2.6 5.2c.1.3.3.5.5.8H26.8c.2-.2.3-.5.5-.8l2.6-5.2h68.3m.4-3H29.4c-.9 0-1.6.4-1.9.9l-3 6c-.3.7-1 1.1-1.8 1.1h-5.6c-.7 0-1.2.7-1 1.3.5 1.6 2 2.7 3.8 2.7h88c1.8 0 3.2-1.1 3.8-2.7.2-.6-.3-1.3-1-1.3h-5.6c-.8 0-1.4-.4-1.8-1.1l-3-6c-.1-.5-.9-.9-1.7-.9z" style="fill:#424242"/></g><radialGradient id="g" cx="63.329" cy="32.675" r="59.755" gradientTransform="matrix(1 0 0 -1 0 127.89)" gradientUnits="userSpaceOnUse"><stop offset=".005" style="stop-color:#a1887f"/><stop offset="1" style="stop-color:#795548"/></radialGradient><path d="M124 124H4l1.4-4.8.4-1.6.4-1.2.4-1.5 3.5-12.2.4-1.3L12 96h104l2.5 8.6.2 1 1.4 4.7.3 1.1 1.2 4.2.3 1z" style="fill:url(#g)"/><path d="m121.6 115.6-3.7 2.1c-.3.2-.7.2-1.1.1l-2.5-1c-.6-.2-.9-.9-.8-1.5l.5-1.9c.1-.5.5-.8.9-.9l4.6-1.2h.5l.3.1-.3-1.1h-.5l-4.6 1.1c-.5.1-1.1-.1-1.4-.6l-.4-.6c-.3-.5-.2-1.2.3-1.6l3.6-2.8c.2-.2.5-.3.8-.3h.8l-.3-1h-.5c-.5 0-1-.3-1.2-.7l-3.6-7.9h-1.1l.4.8c.4.8-.2 1.8-1.1 1.8l-2 .1c-.6 0-1.1-.4-1.2-.9l-.3-1c-.1-.3-.1-.5 0-.8H105l.9.2c.5.1.8.4 1 .9l.4 1.4c.1.3.1.7-.1.9l-1.7 3.3c-.2.4-.6.7-1.1.7l-3.7.1c-.5 0-1-.3-1.2-.8l-.2-1c-.1-.5-.1-1 0-1.5l.1-1.2c.1-1.1.8-2 1.7-2.4l1-.5h-3.8c.1.2.1.3.1.5l-.1 2.5c0 .6-.5 1.1-1.1 1.2l-7.3 1.1c-.3 0-.7 0-.9-.2l-1.8-1.3c-.3-.2-.5-.5-.5-.9l-.2-1.6c0-.4.1-.9.5-1.1h-1.6l.2 1.9c.1.7-.4 1.3-1.1 1.4l-8.6 1c-.2 0-.4 0-.6-.1l-6.4-2.6c-.6-.2-.9-.9-.8-1.5v-.2h-1l-.1.4c-.1.4-.4.8-.8.9l-8.5 3.2c-.3.1-.5.1-.8 0l-8.3-2.5c-.3-.1-.6-.3-.8-.7l-.6-1.4h-1.1l.8 1.7c.2.3.2.8 0 1.1l-2.1 4.1c-.3.5-.9.8-1.5.6l-5.1-1.7c-.4-.1-.7-.5-.8-.9v-.2c-.1-.4 0-.9.3-1.2L41 96h-1.6l-2.3 2.6c-.4.4-1 .5-1.5.3l-.7-.4c-.4-.2-.7-.6-.7-1.1V96H33v.8c0 .7-.6 1.3-1.3 1.2l-4.4-.3c-.4 0-.8-.2-1-.6l-.8-1.1h-1.4l.6 1.1c.3.6.1 1.3-.4 1.7l-6.4 3.9c-.1.1-.2.1-.3.1l-4.3 1.2c-.5.2-1.1-.1-1.4-.5l-1.4-2.2-.4 1.3.9 1.4c.3.5.2 1.2-.2 1.6L9.5 107c-.4.4-.5 1-.2 1.5l1.4 2.6c.3.6.1 1.3-.5 1.7L6.6 115l-.4 1.4.2-.2 5-3c.3-.2.6-.2.9-.1l.6.1h.1l1.5.5c.5.2.9.7.9 1.3l-.4 5.6c0 .1 0 .3-.1.4l-1.2 3h1.1l.7-1.7c.2-.4.5-.7 1-.8l4.3-.7c.6-.1 1.2.3 1.4.9l.6 2.2h1.1l-.9-3c-.1-.4 0-.8.2-1.2l3.3-4c.3-.4.8-.5 1.2-.4l2.8.6c.4.1.8.4.9.8l.7 2.2c.1.3.1.7-.1 1l-1.9 4.1h1.1l1.3-2.8c.3-.6 1-.9 1.6-.6L38 122c.2.1.5.1.8 0l10.4-2.9c.4-.1.9 0 1.2.3l5 4.6h1.5l-4.6-4.1c-.7-.7-.5-1.9.5-2.1l3.2-1c1.3-.4 10.8.5 10.8.5.6 0 1.1.5 1.2 1.1l.8 5.7h1c-.1-.8.6-1.5 1.4-1.4l8.9.9c.4 0 .7.2.9.5h2.1l2.2-3.8c.1-.2.3-.4.5-.5l1.3-.7c.7-.4 1.6 0 1.8.8L90 124h1l-1.4-5.2c-.2-.6.1-1.2.6-1.5l2.6-1.2c.3-.1.6-.2.9-.1l4 1.1c.3.1.6.3.7.5l.4.6c.2.3.3.6.2 1l-1 4.8h1l1.1-5.1c.1-.3 0-.5-.2-.8l-.1-.2c-.3-.5-.2-1.1.3-1.4l2.6-1.7c.5-.4 1.2-.3 1.6.2l2.8 2.8c.3.3.4.6.3 1l-.4 5.2h1l.5-4.7c0-.5.4-1 .9-1.1l2.9-.8c.3-.1.5-.1.8 0l3.3 1.2c.5.2.8.7.8 1.2v4.2h1v-4.5c0-.5.2-.9.6-1.1l3.1-1.8-.3-1zm-13.4-15.8 4.7-.2c.5 0 1 .3 1.2.7l1.8 4c.2.5.1 1.2-.4 1.5l-3.1 2.4c-.3.2-.8.3-1.2.2l-4.2-1.3c-.5-.2-.8-.6-.9-1.1l-.2-2 2.3-4.2zm-18.4 3.5c0-.6.5-1.1 1.1-1.2l6-.9c.6-.1 1.2.2 1.4.8l.6 1.4c.2.5.1 1-.2 1.3l-3 3.3c-.3.4-.9.5-1.4.3l-3.6-1.3c-.5-.2-.8-.7-.8-1.2l-.1-2.5zm-8.1-2.6 4-.5c.3 0 .6 0 .9.2l1.7 1.2c.3.2.5.7.5 1.1l-.1 3.6c0 .4-.2.8-.6 1l-2.1 1.4c-.6.4-1.4.2-1.8-.4l-3.4-5.8c-.5-.7 0-1.7.9-1.8zm-6.1.8c.2-.1.4-.2.6-.2l1.7-.2c.5-.1 1 .2 1.2.6l4.3 7.2c.3.6.2 1.3-.4 1.7l-.8.5c-.2.1-.5.2-.7.2l-6.2-.2c-.4 0-.7-.2-1-.5l-3.4-4.4c-.5-.6-.3-1.4.3-1.8l4.4-2.9zm-17.7 1c0-.5.3-1 .8-1.1l8.1-3.1c.3-.1.6-.1.9 0l4.6 1.9c.9.4 1.1 1.7.2 2.2l-3.2 2.1c-.1.1-.3.1-.5.2l-9.6 1.6c-.8.1-1.5-.5-1.5-1.3l.2-2.5zm-13.1 3 .2-.8c0-.1 0-.1.1-.2l2.4-4.7c.3-.6.9-.8 1.5-.6l7.1 2.2c.5.2.9.7.9 1.2l-.1 3.8c0 .3-.1.6-.3.8l-2.4 2.6c-.4.4-.9.5-1.4.3l-7.1-3.1c-.8-.2-1.1-.8-.9-1.5zm-6.7-2.6 4.6 1.5c.6.2 1 .9.8 1.5l-1.1 4.1c-.1.5-.5.8-.9.9l-2.6.6c-.5.1-.9-.1-1.2-.4l-3-3.5c-.4-.5-.4-1.1-.1-1.6l2-2.7c.4-.3 1-.5 1.5-.4zm-13.2-3.3 1.1-.7c.2-.1.5-.2.7-.2l6.9.3c.2 0 .4.1.5.2l1.5.8c.3.2.5.5.6.8l.1.6c.1.4 0 .7-.2 1l-2.8 3.8c-.3.4-.7.6-1.2.5l-3.9-.4c-.4 0-.7-.2-.9-.6l-2.9-4.4c-.3-.5-.1-1.3.5-1.7zm-5.3 3.3 2.4-1.3c.6-.3 1.3-.1 1.7.4l2.6 3.9c.3.5.3 1.1-.1 1.5l-1.1 1.2c-.3.3-.7.5-1.1.4l-2.3-.2c-.4 0-.8-.3-1-.7l-1.7-3.5c-.3-.7 0-1.4.6-1.7zm-4.4 9.9-2-.5-.9-.3-1.7-3.3c-.3-.5-.2-1.1.2-1.5l1.7-1.7c.2-.1.3-.2.5-.3l3.6-1.1c.6-.2 1.2.1 1.5.7l2 4.2-.2.2-3.6 3.2c-.3.3-.7.4-1.1.4zm10.6 2.3-3.4 4.1c-.2.2-.5.4-.8.4l-4 .7c-.8.1-1.5-.5-1.5-1.3l.3-4.6c0-.3.2-.6.4-.9l3.8-3.5.1-.1 3 .1c.5 0 .9.3 1.1.8l1.2 3c.2.5.1 1-.2 1.3zm6.5-.1c-.3.2-.6.2-.9.2l-3.4-.8c-.4-.1-.8-.4-.9-.8l-1.3-3.2c-.2-.4-.1-1 .2-1.3l1.2-1.4c.3-.3.7-.4 1.1-.4l4.8.4c.3 0 .6.2.8.4l2.3 2.7c.5.6.4 1.5-.3 1.9l-3.6 2.3zm14.6 3.7-8 2.2c-.3.1-.5.1-.8 0l-4.1-1.6c-.4-.1-.6-.4-.8-.8l-.5-1.5c-.2-.6 0-1.2.5-1.5l4.4-2.7c.1-.1.3-.1.4-.2l3.9-.8c.4-.1.8 0 1.1.3l4.4 4.3c.8.8.5 2-.5 2.3zm7.1-2.4-3.4 1.1c-.4.1-.9 0-1.2-.3l-5.5-5.4c-.3-.3-.5-.8-.3-1.2l.4-1.4c.2-.8 1-1.2 1.7-.8l7.2 3.1c.3.1.5.3.6.6l1.4 2.6c.3.6-.1 1.5-.9 1.7zm7-7.6-.8 6c-.1.7-.7 1.1-1.3 1.1l-1.7-.1c-.4 0-.8-.3-1-.6l-1.7-3c-.3-.5-.2-1.1.2-1.5l2.5-2.6c.2-.2.4-.3.7-.4l1.7-.3c.8-.2 1.6.5 1.4 1.4zm7 7.5-5.6-.3c-.7 0-1.3-.7-1.2-1.4l.9-6.8c.1-.5.5-1 1-1.1l5.1-.9c.5-.1.9.1 1.2.5l3.3 4.2c.4.5.3 1.2-.1 1.7l-3.7 3.7c-.1.3-.5.4-.9.4zm16.2 3.9-1.2 2c-.3.4-.7.7-1.2.6l-11.3-1.1c-.6-.1-1-.5-1.1-1.1l-.3-2.5c-.1-.4.1-.8.4-1.1l4.3-4.3c.2-.2.6-.4.9-.4l6 .2c.5 0 .9.3 1.1.8l2.4 5.8c.3.3.3.7 0 1.1zm9.8-9.5-1.1 3.8c-.1.3-.3.6-.6.8l-5.6 3c-.7.3-1.5.1-1.8-.6l-1.9-4.5c-.2-.6 0-1.2.5-1.5l5.5-3.5c.3-.2.7-.3 1.1-.1l3.2 1.2c.5.1.9.8.7 1.4zm8.2 3.4-2.9 2-4.3-.7c-.7-.2-1.1-.9-.9-1.6l1.1-3.8c.1-.2.2-.4.3-.5l1.1-1c.3-.3.8-.3 1.1-.1l4.2 2.7c.2.2.4.4.5.7l.3.9c.2.5 0 1.1-.5 1.4zm-.7-4.5-2.5-1.7c-.7-.4-.8-1.3-.2-1.9l1-1.1c.2-.2.5-.4.9-.4l3.2-.1c.7 0 1.2.5 1.3 1.2l.1 1.2c0 .4-.1.8-.4 1l-1.8 1.6c-.5.5-1.1.5-1.6.2zm11.7 3.4-.7 2.8c-.1.4-.5.8-.9.9l-2.6.8c-.5.1-.9 0-1.2-.3l-3.3-3.1c-.2-.2-.3-.4-.4-.7l-.5-1.8c-.1-.5 0-1 .4-1.3l2.5-2.2 4.9 1.6c.3.1.6.3.7.6l1.1 1.9v.8zM5.8 117.6l-.4 1.5 2.3 4.8h1.1l-3-6.2c.1.1 0 0 0-.1z" style="fill:#d7ccc8"/><radialGradient id="h" cx="137.201" cy="313.999" r="32" gradientTransform="matrix(0 1.164 -2.032 0 701.53 -91.902)" gradientUnits="userSpaceOnUse"><stop offset="0" style="stop-color:#eee"/><stop offset=".427" style="stop-color:#eee"/><stop offset="1" style="stop-color:#bdbdbd"/></radialGradient><path d="M12 68.1h104V96H12z" style="fill:url(#h)"/><path d="M26 88h-4c-1.1 0-2-.9-2-2v-4c0-1.1.9-2 2-2h4c1.1 0 2 .9 2 2v4c0 1.1-.9 2-2 2zm16 0h-4c-1.1 0-2-.9-2-2v-4c0-1.1.9-2 2-2h4c1.1 0 2 .9 2 2v4c0 1.1-.9 2-2 2zm16 0h-4c-1.1 0-2-.9-2-2v-4c0-1.1.9-2 2-2h4c1.1 0 2 .9 2 2v4c0 1.1-.9 2-2 2zm16 0h-4c-1.1 0-2-.9-2-2v-4c0-1.1.9-2 2-2h4c1.1 0 2 .9 2 2v4c0 1.1-.9 2-2 2zm16 0h-4c-1.1 0-2-.9-2-2v-4c0-1.1.9-2 2-2h4c1.1 0 2 .9 2 2v4c0 1.1-.9 2-2 2zm16 0h-4c-1.1 0-2-.9-2-2v-4c0-1.1.9-2 2-2h4c1.1 0 2 .9 2 2v4c0 1.1-.9 2-2 2z" style="fill:#546e7a"/><g style="opacity:.2"><path d="M113 71.1v25.4l.1.4L120 121H8l6.9-24.2.1-.4V71.1h98m3-3H12V96l-8 28h120l-8-28V68.1z" style="fill:#424242"/></g><radialGradient id="i" cx="187" cy="352.791" r="18.276" gradientTransform="matrix(0 1 -3.7024 0 1369.169 -128.167)" gradientUnits="userSpaceOnUse"><stop offset="0" style="stop-color:#546e7a"/><stop offset=".748" style="stop-color:#37474f"/><stop offset="1" style="stop-color:#37474f"/></radialGradient><path d="m115.4 66.9-2.3-4.7c-.7-1.4-2.1-2.2-3.6-2.2h-91c-1.5 0-2.9.9-3.6 2.2l-2.3 4.7c-.3.7-1 1.1-1.8 1.1H5.2c-.7 0-1.2.7-1 1.3.6 1.6 2 2.7 3.8 2.7h112c1.8 0 3.2-1.1 3.8-2.7.2-.6-.3-1.3-1-1.3h-5.1c-1.2 0-1.9-.4-2.3-1.1z" style="fill:url(#i)"/><g style="opacity:.2"><path d="M109.5 63c.4 0 .7.2.9.5l2.3 4.7c.1.2.3.5.5.8H14.8c.2-.2.3-.5.5-.8l2.3-4.7c.2-.3.5-.5.9-.5h91m0-3h-91c-1.5 0-2.9.9-3.6 2.2l-2.3 4.7c-.3.7-1 1.1-1.8 1.1H5.2c-.7 0-1.2.7-1 1.3.5 1.6 2 2.7 3.8 2.7h112c1.8 0 3.2-1.1 3.8-2.7.2-.6-.3-1.3-1-1.3h-5.1c-1.3 0-1.9-.4-2.3-1.1l-2.3-4.7c-.7-1.3-2.1-2.2-3.6-2.2z" style="fill:#424242"/></g><radialGradient id="j" cx="156.945" cy="315.928" r="16.231" gradientTransform="matrix(0 1.0936 -2.4141 0 826.178 -116.01)" gradientUnits="userSpaceOnUse"><stop offset="0" style="stop-color:#eee"/><stop offset=".547" style="stop-color:#eee"/><stop offset=".716" style="stop-color:#dfdfdf"/><stop offset="1" style="stop-color:#bdbdbd"/></radialGradient><path d="M94.9 69.2H33c-.6 0-1-.5-1-1.1V51.9h64v16.3c0 .6-.5 1-1.1 1z" style="fill:url(#j)"/><g style="opacity:.2"><path d="M93 54.9v11.4H35V54.9h58m3-3H32v16.3c0 .6.5 1.1 1 1.1h62c.6 0 1.1-.5 1.1-1.1L96 51.9z" style="fill:#424242"/></g><radialGradient id="k" cx="101.745" cy="327.355" r="21.476" gradientTransform="matrix(0 1.3194 -3.2878 0 1140.442 -97.596)" gradientUnits="userSpaceOnUse"><stop offset="0" style="stop-color:#546e7a"/><stop offset=".206" style="stop-color:#475d67"/><stop offset=".508" style="stop-color:#37474f"/><stop offset="1" style="stop-color:#37474f"/></radialGradient><path d="M98.8 50.7H94c-1.2 0-2.5-.2-3.7-.7l-24.1-9.4c-1.5-.6-3.1-.6-4.5 0l-24 9.4c-1.2.5-2.4.7-3.7.7h-4.8c-.7 0-1.2.9-1 1.7.5 2.1 2 3.6 3.8 3.6h64c1.8 0 3.2-1.5 3.8-3.6.2-.8-.3-1.7-1-1.7z" style="fill:url(#k)"/><path d="M56 69.2h-4v-7c0-.5.5-1 1-1h2c.5 0 1 .5 1 1v7zm-6 0h-4v-7c0-.5.5-1 1-1h2c.5 0 1 .5 1 1v7zm18 0h-8v-6c0-1.1.9-2 2-2h4c1.1 0 2 .9 2 2v6zm8 0h-4v-7c0-.5.4-1 1-1h2c.6 0 1 .5 1 1v7zm6.2 0h-4v-7c0-.5.4-1 1-1h2c.6 0 1 .5 1 1v7z" style="fill:#546e7a"/><g style="opacity:.2"><path d="M64 43.2c.4 0 .8.1 1.2.2l24.1 9.4c.2.1.3.1.5.2H38.2c.2-.1.3-.1.5-.2l24-9.4c.5-.2.9-.2 1.3-.2m0-3c-.8 0-1.5.2-2.3.4l-24 9.4c-1.2.5-2.4.7-3.7.7h-4.8c-.7 0-1.2.9-1 1.7.5 2.1 2 3.6 3.8 3.6h64c1.8 0 3.2-1.5 3.8-3.6.2-.8-.3-1.7-1-1.7H94c-1.2 0-2.5-.2-3.7-.7l-24.1-9.4c-.7-.3-1.4-.4-2.2-.4z" style="fill:#424242"/></g></svg>