<svg xmlns="http://www.w3.org/2000/svg" style="enable-background:new 0 0 128 128" viewBox="0 0 128 128" xml:space="preserve"><path d="M79.6 118.4c-.4-2.7-6.3-5.9-6.3-5.9.1.1-9.3-.3-9.3-.3s-9.4.4-9.3.3c0 0-5.8 3.2-6.2 5.9s4.7 5.3 15.6 5.3c10.4 0 15.8-2.6 15.5-5.3zm-48-76.6s3.4-7.1 1.8-14.1C31.5 19.3 36.8 15 40.2 14s8.7.4 12.2 4.2-1 9.6-1 9.6-1.7-5.4-4.5-7.4-7.1-2.5-7.9 3.2c-.3 2.3-.1 7.4 1.8 8.8 1.3 1 4 1.1 4 1.1s-7.2 5.7-13.2 8.3z" style="fill:#3e2723"/><g style="opacity:.2"><path d="M42.5 15.6c3 0 6.2 1.5 8.4 3.9.9 1 .9 2.3.6 3.5-.9-1.6-2-3.3-3.4-4.3-1.5-1.1-3.3-1.8-5-1.8-3.3 0-5.6 2.4-6.1 6.3-.2 1.7-.5 8.4 2.6 10.7.2.2.4.3.6.4-1.4 1-3.2 2.2-5.1 3.3.7-2.9 1.1-6.6.3-10.4-1.7-7.6 3.3-10.9 5.3-11.5.6 0 1.1 0 1.8-.1m0-1.9c-.8 0-1.6.1-2.3.3-3.4 1-8.6 5.4-6.7 13.8 1.6 7-1.8 14.1-1.8 14.1 6-2.6 13.1-8.3 13.1-8.3s-2.7 0-4-1.1c-1.9-1.4-2.1-6.5-1.8-8.8.5-3.4 2.2-4.6 4.1-4.6 1.3 0 2.7.6 3.8 1.4 2.7 2 4.5 7.4 4.5 7.4s4.5-5.7 1-9.6c-2.8-3.2-6.7-4.6-9.9-4.6z" style="fill:#eee"/></g><path d="M96 41.8s-3.4-7.1-1.8-14.1c1.9-8.5-3.4-12.8-6.7-13.8s-8.7.4-12.2 4.2 1 9.6 1 9.6 1.7-5.4 4.5-7.4 7.1-2.5 7.9 3.2c.3 2.3.1 7.4-1.8 8.8-1.3 1-4 1.1-4 1.1S90 39.2 96 41.8z" style="fill:#3e2723"/><g style="opacity:.2"><path d="M85.1 15.6c.7 0 1.2.1 1.8.2 1.2.4 3 1.4 4.2 3.3 1.4 2.2 1.8 5 1.1 8.2-.8 3.8-.4 7.6.3 10.4-1.8-1.1-3.6-2.3-5.1-3.3.2-.1.4-.2.6-.4 3-2.3 2.8-9 2.6-10.7-.5-4-2.8-6.3-6.1-6.3-1.7 0-3.4.6-5 1.7-1.4 1-2.6 2.7-3.4 4.3-.3-1.2-.3-2.5.6-3.5 2.2-2.3 5.5-3.9 8.4-3.9m0-2c-3.2 0-7.1 1.5-9.9 4.5-3.5 3.9 1 9.6 1 9.6s1.7-5.4 4.5-7.4c1.1-.8 2.5-1.4 3.8-1.4 1.9 0 3.7 1.2 4.1 4.6.3 2.3.1 7.4-1.8 8.8-1.3 1-4 1.1-4 1.1S90 39.2 96 41.8c0 0-3.4-7.1-1.8-14.1 1.9-8.5-3.4-12.8-6.7-13.8-.7-.2-1.5-.3-2.4-.3z" style="fill:#eee"/></g><radialGradient id="a" cx="48.75" cy="754.39" r="67.711" gradientTransform="translate(0 -713.89)" gradientUnits="userSpaceOnUse"><stop offset="0" style="stop-color:#d6842d"/><stop offset=".205" style="stop-color:#ca7827"/><stop offset=".576" style="stop-color:#ab5917"/><stop offset="1" style="stop-color:#802d00"/></radialGradient><path d="M102.3 55.9s0-10.7-10.2-18-19.4-9.2-14.7-23.8l4.3-8.3-17.6-1.7-17.7 1.6 4.2 8.3c4.7 14.6-4.5 16.4-14.7 23.8s-10.2 18-10.2 18C23.5 78.4 48.6 107.3 52 111s12.1 3.6 12.1 3.6 8.6.1 12-3.6 28.4-32.6 26.2-55.1z" style="fill:url(#a)"/><path d="M83.9 6.4C81 3.9 64.7 3.7 64 3.7c-.7 0-17 .2-19.8 2.7-.5.4.5 2.2 1.6 3.9s3.3 3.2 3.3 3.2 6-1.7 14.9-1.7 15 1.7 15 1.7 2.2-1.5 3.3-3.2c1.1-1.7 2.1-3.4 1.6-3.9zM36 71.9c-.9-.2-1.7-.4-2.6-.6-.8-.2-1.7-.4-2.6-.7-.1-1.3-.1-2.6-.2-3.9 0-1.3-.1-2.6-.1-3.9 0-1.3-.1-2.6-.1-3.9 0-1.3-.1-2.6-.1-3.9-1.3-.3-2.7-.7-4-1-.1 0-.3-.1-.4-.1.1-.9.4-2.1.8-3.5.2.1.4.1.7.2 1.4.4 2.8.7 4.3 1 1.4.3 2.8.7 4.2 1v9.6c0 1.6 0 3.2.1 4.8v4.9z" style="fill:#3e2723"/><path d="M46.5 60.1c-.1 1.6-.1 3.2-.2 4.9 0 1.6-.1 3.2-.1 4.9 0 1.6-.1 3.2-.1 4.9 0 1.6-.1 3.2-.1 4.9-1.4-.3-2.9-.6-4.3-.9s-2.9-.7-4.3-1c-1.5-.3-2.9-.7-4.4-1.1-1.2-.3-2.4-.7-3.6-1-.5-1.3-1-2.7-1.4-4 .6.2 1.2.3 1.8.5 1.2.3 2.5.7 3.7 1s2.5.6 3.7.9 2.5.6 3.7.8V63.2c0-1.3 0-2.6.1-3.9.9.2 1.9.4 2.8.5.8 0 1.8.2 2.7.3zm0-.9c-.9-.2-1.9-.3-2.8-.5s-1.9-.3-2.8-.5c0-1.5.1-3.1.1-4.6 1 .2 1.9.4 2.8.5 1 .2 1.9.3 2.8.5.1 1.5 0 3-.1 4.6zm42.2-6.3c-.1 1.6-.2 3.1-.4 4.7-.9.1-1.9.2-2.8.3s-1.9.2-2.8.3c.1-1.5.2-3.1.3-4.7.9-.1 1.9-.2 2.8-.3 1-.1 2-.2 2.9-.3zm-38.2 1.5c1.5.1 3 .1 4.5.2s3 .1 4.5.1h4.6c1.5 0 3-.1 4.6-.1s3-.1 4.6-.2 3-.2 4.6-.3l-.2 4.9c-.1 1.6-.1 3.3-.2 4.9s-.1 3.3-.2 4.9-.1 3.3-.2 4.9c-.8.1-1.7.1-2.5.2-.9.1-1.7.1-2.6.2 0-1.3.1-2.7.1-4s.1-2.7.1-4 0-2.7.1-4c0-1.3 0-2.7.1-4-1.3.1-2.7.1-4 .2s-2.7.1-4 .1h-8l.2 4s.1 2.7.2 4l.4 8c-.9 0-1.7-.1-2.6-.1s-1.7-.1-2.6-.1c-.1-1.7-.2-3.3-.4-4.9s-.2-3.3-.4-4.9-.2-3.4-.3-5c-.1-1.7-.3-3.3-.4-5z" style="fill:#3e2723"/><path d="M62.1 80.1c0-1.6-.1-3.3-.1-4.9s-.1-3.3-.1-4.9-.1-3.3-.2-4.9-.1-3.3-.2-4.9h2.7c.9 0 1.8 0 2.7-.1v16c1.6-.1 3.3-.1 4.9-.2s3.3-.2 4.9-.3 3.3-.3 4.9-.5l.3-4c.1-1.3.2-2.7.3-4s.2-2.7.2-4l.2-4c.9-.1 1.9-.2 2.8-.3s1.9-.2 2.8-.3c-.1 1.6-.3 3.3-.4 4.9-.1 1.6-.3 3.3-.4 4.9-.2 1.6-.3 3.3-.4 4.9s-.3 3.3-.5 4.9c-1.6.2-3.3.4-4.9.6s-3.3.3-4.9.5-3.2.3-4.9.4-3.2 0-4.8.1c-1.7 0-3.3.1-4.9.1zm30.4-3c.1-1.5.2-3.1.2-4.6.9-.2 1.8-.4 2.6-.6l2.6-.7c-.1 1.5-.2 3.1-.3 4.6-.9.2-1.7.4-2.6.7-.8.2-1.7.4-2.5.6zm9.6-23.3c-1.1.3-2.2.5-3.2.8l-.2 3.9c-.1 1.3-.1 2.6-.2 3.9s-.1 2.6-.2 3.9-.2 2.7-.3 4c-.9.2-1.8.4-2.6.6-.9.2-1.8.4-2.6.6.1-1.6.1-3.2.2-4.9s.1-3.2.2-4.9.1-3.2.1-4.9c0-1.6.1-3.2.1-4.9 1.3-.3 2.7-.6 4.1-.9 1.3-.3 2.6-.6 4-.9.2 1.5.4 2.7.6 3.7zm-2.1-6.6c-1.4.3-2.8.6-4.2.8-1.5.3-3 .5-4.5.8s-3 .5-4.5.7-3 .4-4.5.5c-1.5.2-3 .3-4.4.4-1.5.1-2.9.2-4.4.3s-2.9.2-4.4.2-2.9.1-4.4.1h-4.8c-1.6-.1-3.2-.1-4.8-.2-1.6-.1-3.2-.2-4.7-.3-1.6-.1-3.1-.3-4.7-.5s-3.1-.4-4.6-.6c-1.5-.2-3-.5-4.6-.7-1.5-.3-3-.5-4.5-.8-1.4-.3-2.7-.6-4.1-.9.5-1 1.1-2.1 1.9-3.2h.2c1.6.3 3.1.6 4.7.9 1.6.3 3.2.6 4.8.8s3.2.5 4.8.6 3.2.4 4.9.5c1.6.2 3.3.3 4.9.4 1.7.1 3.3.2 5 .2s3.4.1 5 .1 3.4 0 5.1-.1 3.4-.1 5.1-.2c1.7-.1 3.4-.2 5.2-.4 1.7-.2 3.5-.3 5.2-.5s3.5-.4 5.2-.7 3.5-.5 5.2-.9c.9-.2 1.9-.3 2.8-.5 1 1 1.6 2.1 2.1 3.2zm-3.5 33.6c-.7 1.5-1.4 2.9-2.2 4.3-1.2.3-2.5.5-3.7.7-1.4.3-2.9.5-4.3.7-1.5.2-2.9.4-4.3.6-1.5.2-2.9.3-4.4.5-1.5.1-2.9.2-4.4.3-1.5.1-2.9.1-4.4.2h-4.6c-1.5 0-3.1-.1-4.6-.1-1.5-.1-3.1-.2-4.6-.3-1.5-.1-3.1-.3-4.6-.4l-4.5-.6c-1.5-.2-3-.5-4.5-.7l-4.5-.9c-1.1-.2-2.3-.5-3.4-.8-.8-1.4-1.5-2.9-2.2-4.3.5.1 1 .2 1.5.4 1.5.3 3 .7 4.5 1s3.1.6 4.6.8c1.5.3 3.1.5 4.7.7 1.5.2 3.1.4 4.7.6 1.6.2 3.1.3 4.7.4s3 .1 4.6.1 3.2.1 4.8.1c1.6 0 3.2 0 4.8-.1 1.6 0 3.2-.1 4.8-.2 1.6-.1 3.2-.2 4.7-.4 1.6-.2 3.1-.3 4.7-.5s3.1-.4 4.7-.7c1.5-.3 3.1-.5 4.6-.8.8-.2 1.8-.4 2.8-.6z" style="fill:#3e2723"/><g style="opacity:.2"><path d="M54.4 7.5c7.2-.9 14.4-.9 21.6 0 1.7.2 3.2.4 4.1.6-.1.2-.2.4-.4.6-.3.5-.9 1.1-1.5 1.6h-.5c-1.1 0-2.1.6-2.7 1.6l-.4.8c-.1.1-.1.3-.2.4-4.5 14.1 2.8 18.8 10.6 23.7 1.7 1.1 3.5 2.2 5.3 3.5 8.8 6.3 9 15.2 9 15.6v.3C101 73.6 84.1 97.6 73.8 109c-.3.3-.8.7-1.3 1-.9.5-1.6 1.3-1.7 2.3-.2 1.2.4 2.4 1.5 3 2.2 1.3 3.6 2.5 4.1 3.2-1.1.8-4.5 2.2-12.3 2.2-7.9 0-11.4-1.4-12.4-2.2.5-.7 1.9-1.9 4-3.2.9-.5 1.5-1.4 1.6-2.5.1-1.2-.6-2.3-1.6-2.9-.6-.3-1.1-.7-1.4-1-1.4-1.5-8.5-9.6-14.9-20.1-7.8-12.7-11.5-24.1-10.6-32.7v-.3c0-.4.2-9.3 9-15.6 1.8-1.3 3.6-2.4 5.3-3.5 7.7-4.9 15.1-9.5 10.5-23.6-.1-.2-.1-.3-.2-.5l-.5-.6c-.5-1-1.6-1.6-2.7-1.6h-.4c-.6-.5-1.2-1.1-1.5-1.6-.2-.2-.3-.3-.4-.5l6.5-.8zM44.2 6.4c-.5.4.5 2.2 1.6 4s3.3 3.2 3.3 3.2.4-.1 1.1-.3l.4.8c4.7 14.6-4.5 16.4-14.7 23.8s-10.2 18-10.2 18C23.5 78.4 48.6 107.3 52 111c.6.7 1.4 1.2 2.3 1.7-1.4.8-5.5 3.4-5.8 5.7-.4 2.7 4.7 5.3 15.5 5.3 10.4 0 15.9-2.6 15.5-5.3-.3-2.3-4.4-4.9-5.8-5.7.9-.4 1.7-1 2.3-1.7 3.4-3.7 28.5-32.6 26.2-55.1 0 0 0-10.7-10.2-18s-19.4-9.2-14.7-23.8l.4-.8 1.2.3s2.2-1.5 3.3-3.2 2.1-3.3 1.6-3.8c0-.8-5-2.9-19.9-2.9-12.5 0-19.2 1.9-19.7 2.7z" style="fill:#eee"/></g></svg>