<svg xmlns="http://www.w3.org/2000/svg" xmlns:xlink="http://www.w3.org/1999/xlink" viewBox="0 0 128 128"><radialGradient id="a" cx="64.125" cy="45.054" r="35.837" gradientTransform="matrix(0 .944 -.786 0 99.536 -11.976)" gradientUnits="userSpaceOnUse"><stop offset="0" stop-color="#CFD8DC"/><stop offset=".287" stop-color="#C1CDD2"/><stop offset=".826" stop-color="#9DAFB8"/><stop offset="1" stop-color="#90A4AE"/></radialGradient><path fill="url(#a)" d="M44 39.98h40v67.97H44z"/><linearGradient id="b" x1="64" x2="64" y1="85.875" y2="64.854" gradientUnits="userSpaceOnUse"><stop offset="0" stop-color="#90A4AE"/><stop offset="1" stop-color="#90A4AE" stop-opacity="0"/></linearGradient><path fill="url(#b)" d="M44 39.98h40v67.97H44z" opacity=".5"/><radialGradient id="c" cx="20" cy="44.783" r="34.168" gradientTransform="matrix(0 1.1476 -.6311 0 48.265 17.221)" gradientUnits="userSpaceOnUse"><stop offset="0" stop-color="#CFD8DC"/><stop offset=".575" stop-color="#ACBBC3"/><stop offset="1" stop-color="#90A4AE"/></radialGradient><path fill="url(#c)" d="M8 39.25h24v36.72H8z"/><linearGradient id="d" x1="20" x2="20" y1="78.532" y2="59.835" gradientUnits="userSpaceOnUse"><stop offset="0" stop-color="#90A4AE"/><stop offset="1" stop-color="#90A4AE" stop-opacity="0"/></linearGradient><path fill="url(#d)" d="M8 39.25h24v36.72H8z" opacity=".5"/><radialGradient id="e" cx="108" cy="44.783" r="34.168" gradientTransform="matrix(0 1.1476 -.6311 0 136.26 -83.764)" gradientUnits="userSpaceOnUse"><stop offset="0" stop-color="#CFD8DC"/><stop offset=".575" stop-color="#ACBBC3"/><stop offset="1" stop-color="#90A4AE"/></radialGradient><path fill="url(#e)" d="M96 39.25h24v36.72H96z"/><linearGradient id="f" x1="108" x2="108" y1="78.532" y2="58.94" gradientUnits="userSpaceOnUse"><stop offset="0" stop-color="#90A4AE"/><stop offset="1" stop-color="#90A4AE" stop-opacity="0"/></linearGradient><path fill="url(#f)" d="M96 39.25h24v36.72H96z" opacity=".5"/><path fill="#607D8B" d="M52.93 59.07h-3.99a.96.96 0 0 1-.96-.96v-1.35c0-.53.43-.96.96-.96h3.99c.53 0 .96.43.96.96v1.35c0 .53-.43.96-.96.96z"/><path fill="#90A4AE" d="M81.26 64.01h-4.01c-.84 0-1.53-.68-1.53-1.53v-.85c0-.84.68-1.53 1.53-1.53h4.01c.84 0 1.53.68 1.53 1.53v.85c0 .85-.69 1.53-1.53 1.53zm-6.15 3.37h-3.46a.86.86 0 0 1-.86-.86v-1.14c0-.48.39-.86.86-.86h3.46c.48 0 .86.39.86.86v1.14c.01.48-.38.86-.86.86z"/><path fill="#78909C" d="M82.94 68.97H78c-.59 0-1.06-.48-1.06-1.06v-1.78c0-.59.48-1.06 1.06-1.06h4.94c.59 0 1.06.48 1.06 1.06v1.78c0 .58-.48 1.06-1.06 1.06z"/><path fill="#90A4AE" d="M79.75 73.63h-4.48a.76.76 0 0 1-.76-.76v-1.8c0-.42.34-.76.76-.76h4.48c.42 0 .76.34.76.76v1.8c0 .42-.34.76-.76.76z" opacity=".3"/><path fill="#78909C" d="M104.91 49.14h-4.32c-.51 0-.93-.42-.93-.93v-1.55c0-.51.42-.93.93-.93h4.32c.51 0 .93.42.93.93v1.55c0 .52-.42.93-.93.93z"/><path fill="#90A4AE" d="M100.36 53.3H96.9c-.35 0-.63-.28-.63-.63v-1.64c0-.35.28-.63.63-.63h3.46c.35 0 .63.28.63.63v1.64c0 .35-.29.63-.63.63z"/><path fill="#78909C" d="M51.23 54.81h-6.28a.95.95 0 0 1-.95-.95v-2.62c0-.52.42-.95.95-.95h6.28c.52 0 .95.42.95.95v2.62c0 .53-.42.95-.95.95zM26.68 64.3h-4.79c-.4 0-.72-.32-.72-.72v-2c0-.4.32-.72.72-.72h4.79c.4 0 .72.32.72.72v2a.73.73 0 0 1-.72.72z"/><path fill="#90A4AE" d="M22.98 68.01H18.8c-.35 0-.63-.28-.63-.63v-1.75c0-.35.28-.63.63-.63h4.18c.35 0 .63.28.63.63v1.75a.64.64 0 0 1-.63.63z" opacity=".3"/><path fill="#424242" d="M81 42.98v61.97H47V42.98h34m3-3H44v67.97h40V39.98zm-55 2.27v30.72H11V42.25h18m3-3H8v36.72h24V39.25zm85 3v30.72H99V42.25h18m3-3H96v36.72h24V39.25z" opacity=".2"/><radialGradient id="g" cx="63.714" cy="75.949" r="52.619" gradientTransform="matrix(0 .9995 -.8207 0 126.05 12.258)" gradientUnits="userSpaceOnUse"><stop offset="0" stop-color="#CFD8DC"/><stop offset=".273" stop-color="#C2CED3"/><stop offset=".773" stop-color="#A1B2BB"/><stop offset="1" stop-color="#90A4AE"/></radialGradient><path fill="url(#g)" d="M92.9 75.97c-.49 0-.88.35-.98.83a4 4 0 0 1-3.91 3.17 4 4 0 0 1-3.91-3.17c-.1-.48-.5-.83-.98-.83H80.9c-.49 0-.88.35-.98.83a4 4 0 0 1-3.91 3.17 4 4 0 0 1-3.91-3.17c-.1-.48-.5-.83-.98-.83H68.9c-.49 0-.88.35-.98.83a4 4 0 0 1-3.91 3.17 4 4 0 0 1-3.91-3.17c-.1-.48-.5-.83-.98-.83H56.9c-.49 0-.88.35-.98.83a4 4 0 0 1-3.91 3.17 4 4 0 0 1-3.91-3.17c-.1-.48-.5-.83-.98-.83H44.9c-.49 0-.88.35-.98.83a4 4 0 0 1-3.91 3.17 4 4 0 0 1-3.91-3.17c-.1-.48-.5-.83-.98-.83H32v47.98h64V75.96h-3.1z"/><path fill="#546E7A" d="M24 59.97h-8v-6.66c0-2.21 1.79-4 4-4s4 1.79 4 4v6.66zm88 0h-8v-6.66c0-2.21 1.79-4 4-4s4 1.79 4 4v6.66zm-42 8H58v-9.99c0-3.31 2.69-6 6-6s6 2.69 6 6v9.99z"/><radialGradient id="h" cx="64" cy="3.639" r="44.5" gradientTransform="matrix(1 0 0 .9995 0 .029)" gradientUnits="userSpaceOnUse"><stop offset="0" stop-color="#2196F3"/><stop offset=".36" stop-color="#2093EF"/><stop offset=".686" stop-color="#1D88E4"/><stop offset="1" stop-color="#1976D2"/></radialGradient><path fill="url(#h)" d="m61.43 5.46-21 37.98c-1.2 2 .24 4.54 2.57 4.54h42c2.33 0 3.77-2.54 2.57-4.54l-21-37.98c-1.16-1.95-3.98-1.95-5.14 0z"/><radialGradient id="i" cx="20" cy="15.306" r="28.5" gradientTransform="matrix(1 0 0 .9995 0 .029)" gradientUnits="userSpaceOnUse"><stop offset="0" stop-color="#2196F3"/><stop offset=".339" stop-color="#2092EE"/><stop offset=".718" stop-color="#1D85E1"/><stop offset="1" stop-color="#1976D2"/></radialGradient><path fill="url(#i)" d="M17.4 17.51 4.4 39.5c-1.14 2 .3 4.49 2.6 4.49h26c2.3 0 3.75-2.49 2.6-4.49l-13-21.99c-1.15-2.02-4.05-2.02-5.2 0z"/><radialGradient id="j" cx="108" cy="15.306" r="28.5" gradientTransform="matrix(1 0 0 .9995 0 .029)" gradientUnits="userSpaceOnUse"><stop offset="0" stop-color="#2196F3"/><stop offset=".339" stop-color="#2092EE"/><stop offset=".718" stop-color="#1D85E1"/><stop offset="1" stop-color="#1976D2"/></radialGradient><path fill="url(#j)" d="m105.4 17.51-13 21.99c-1.14 2 .3 4.49 2.6 4.49h26c2.3 0 3.75-2.49 2.6-4.49l-13-21.99c-1.15-2.02-4.05-2.02-5.2 0z"/><path fill="#424242" d="m64 7 20.94 37.89.03.04.03.05H43.01l.06-.1L64 7m0-3c-.99 0-1.99.49-2.57 1.46l-21 37.98c-1.2 2 .24 4.54 2.57 4.54h42c2.33 0 3.77-2.54 2.57-4.54l-21-37.98A2.978 2.978 0 0 0 64 4zM20 18.99l.02.04L33 40.98l-25.99-.01L19.99 19s0-.01.01-.01m0-3c-1.01 0-2.03.5-2.6 1.51l-13 22c-1.14 2 .3 4.49 2.6 4.49h26c2.3 0 3.75-2.49 2.6-4.49l-13-21.99a2.966 2.966 0 0 0-2.6-1.52zm88 3 .02.04L121 40.98l-25.98-.01L107.99 19s0-.01.01-.01m0-3c-1.01 0-2.03.5-2.6 1.51l-13 21.99c-1.14 2 .3 4.49 2.6 4.49h26c2.3 0 3.75-2.49 2.6-4.49l-13-21.99c-.57-1-1.59-1.51-2.6-1.51z" opacity=".2"/><path fill="#78909C" d="M49.9 110.5H39.87c-.32 0-.59-.26-.59-.59v-.98c0-.32.26-.59.59-.59H49.9c.32 0 .59.26.59.59v.98c0 .33-.26.59-.59.59z"/><path fill="#90A4AE" d="M44.62 106.48h-6c-.5 0-.9-.4-.9-.9v-2.51c0-.5.4-.9.9-.9h6c.5 0 .9.4.9.9v2.51c0 .49-.4.9-.9.9z"/><path fill="#78909C" d="M81.4 87.9h-6c-.5 0-.9-.4-.9-.9v-2.51c0-.5.4-.9.9-.9h6c.5 0 .9.4.9.9V87c0 .49-.41.9-.9.9zm6.95.62H84.3c-.5 0-.9-.4-.9-.9v-1.43c0-.5.4-.9.9-.9h4.05c.5 0 .9.4.9.9v1.43c-.01.5-.41.9-.9.9zm-1.87 25.08H76.44c-.32 0-.59-.26-.59-.59v-.98c0-.32.26-.59.59-.59h10.04c.32 0 .59.26.59.59v.98c-.01.33-.27.59-.59.59z"/><path fill="#90A4AE" d="M89.89 96.05h-6c-.5 0-.9-.4-.9-.9v-2.51c0-.5.4-.9.9-.9h6c.5 0 .9.4.9.9v2.51c0 .5-.4.9-.9.9zm-7.81-4.36h-3.17c-.5 0-.9-.4-.9-.9v-.95c0-.5.4-.9.9-.9h3.17c.5 0 .9.4.9.9v.95c0 .49-.4.9-.9.9z"/><path fill="#607D8B" d="M88.55 118.01h-3.97c-.57 0-1.03-.46-1.03-1.03v-1.27c0-.57.46-1.03 1.03-1.03h3.97c.57 0 1.03.46 1.03 1.03v1.27c0 .57-.46 1.03-1.03 1.03z"/><defs><path id="k" d="M91.91 76.8A4 4 0 0 1 88 79.97a4 4 0 0 1-3.91-3.17c-.1-.48-.5-.83-.98-.83H80.9c-.49 0-.88.35-.98.83a4 4 0 0 1-3.91 3.17 4 4 0 0 1-3.91-3.17c-.1-.48-.5-.83-.98-.83H68.9c-.49 0-.88.35-.98.83a4 4 0 0 1-3.91 3.17 4 4 0 0 1-3.91-3.17c-.1-.48-.5-.83-.98-.83H56.9c-.49 0-.88.35-.98.83a4 4 0 0 1-3.91 3.17 4 4 0 0 1-3.91-3.17c-.1-.48-.5-.83-.98-.83H44.9c-.49 0-.88.35-.98.83a4 4 0 0 1-3.91 3.17 4 4 0 0 1-3.91-3.17.849.849 0 0 0-.09-.22v47.37h56V76.57c-.04.08-.08.15-.1.23z"/></defs><clipPath id="m"><use xlink:href="#k"/></clipPath><linearGradient id="l" x1="34.625" x2="44.333" y1="99.956" y2="99.956" gradientUnits="userSpaceOnUse"><stop offset="0" stop-color="#546E7A"/><stop offset="1" stop-color="#546E7A" stop-opacity="0"/></linearGradient><path fill="url(#l)" d="M36 75.97h12v47.98H36z" clip-path="url(#m)" opacity=".7"/><defs><path id="n" d="M91.91 76.8A4 4 0 0 1 88 79.97a4 4 0 0 1-3.91-3.17c-.1-.48-.5-.83-.98-.83H80.9c-.49 0-.88.35-.98.83a4 4 0 0 1-3.91 3.17 4 4 0 0 1-3.91-3.17c-.1-.48-.5-.83-.98-.83H68.9c-.49 0-.88.35-.98.83a4 4 0 0 1-3.91 3.17 4 4 0 0 1-3.91-3.17c-.1-.48-.5-.83-.98-.83H56.9c-.49 0-.88.35-.98.83a4 4 0 0 1-3.91 3.17 4 4 0 0 1-3.91-3.17c-.1-.48-.5-.83-.98-.83H44.9c-.49 0-.88.35-.98.83a4 4 0 0 1-3.91 3.17 4 4 0 0 1-3.91-3.17.849.849 0 0 0-.09-.22v47.37h56V76.57c-.04.08-.08.15-.1.23z"/></defs><clipPath id="p"><use xlink:href="#n"/></clipPath><linearGradient id="o" x1="78.625" x2="88.006" y1="99.956" y2="99.956" gradientTransform="matrix(-1 0 0 1 172 0)" gradientUnits="userSpaceOnUse"><stop offset="0" stop-color="#546E7A"/><stop offset="1" stop-color="#546E7A" stop-opacity="0"/></linearGradient><path fill="url(#o)" d="M80 123.95h12V75.97H80z" clip-path="url(#p)" opacity=".7"/><radialGradient id="q" cx="19.875" cy="67.473" r="56.721" gradientTransform="matrix(0 .9995 -.6611 0 64.484 47.605)" gradientUnits="userSpaceOnUse"><stop offset="0" stop-color="#CFD8DC"/><stop offset=".226" stop-color="#C9D3D8"/><stop offset=".528" stop-color="#B8C5CB"/><stop offset=".873" stop-color="#9CAEB7"/><stop offset="1" stop-color="#90A4AE"/></radialGradient><path fill="url(#q)" d="M35 67.97h-2.01c-.47 0-.85.34-.98.79-.35 1.27-1.52 2.2-2.89 2.2s-2.54-.94-2.89-2.2c-.13-.46-.5-.79-.98-.79h-1.33c-.47 0-.85.34-.98.79-.35 1.27-1.52 2.2-2.89 2.2s-2.54-.94-2.89-2.2c-.13-.46-.5-.79-.98-.79h-1.33c-.47 0-.85.34-.98.79-.35 1.27-1.52 2.2-2.89 2.2s-2.54-.94-2.89-2.2c-.13-.46-.5-.79-.98-.79H5c-.55 0-1 .45-1 1v54.98h32V68.97c0-.55-.45-1-1-1z"/><path fill="#546E7A" d="M26 95.96H14v-9.99c0-3.31 2.69-6 6-6s6 2.69 6 6v9.99z"/><radialGradient id="r" cx="107.88" cy="67.473" r="56.721" gradientTransform="matrix(0 .9995 -.6611 0 152.48 -40.355)" gradientUnits="userSpaceOnUse"><stop offset="0" stop-color="#CFD8DC"/><stop offset=".226" stop-color="#C9D3D8"/><stop offset=".528" stop-color="#B8C5CB"/><stop offset=".873" stop-color="#9CAEB7"/><stop offset="1" stop-color="#90A4AE"/></radialGradient><path fill="url(#r)" d="M123 67.97h-2.01c-.47 0-.85.34-.98.79-.35 1.27-1.52 2.2-2.89 2.2s-2.54-.94-2.89-2.2c-.13-.46-.5-.79-.98-.79h-1.33c-.47 0-.85.34-.98.79-.35 1.27-1.52 2.2-2.89 2.2s-2.54-.94-2.89-2.2c-.13-.46-.5-.79-.98-.79h-1.33c-.47 0-.85.34-.98.79-.35 1.27-1.52 2.2-2.89 2.2s-2.54-.94-2.89-2.2c-.13-.46-.5-.79-.98-.79H93c-.55 0-1 .45-1 1v54.98h32V68.97c0-.55-.45-1-1-1z"/><path fill="#546E7A" d="M114 95.96h-12v-9.99c0-3.31 2.69-6 6-6s6 2.69 6 6v9.99z"/><path fill="#90A4AE" d="M120.83 109.4h-4.01c-.84 0-1.53-.68-1.53-1.53v-.85c0-.84.68-1.53 1.53-1.53h4.01c.84 0 1.53.68 1.53 1.53v.85c0 .85-.68 1.53-1.53 1.53zm-6.15 3.37h-3.46a.86.86 0 0 1-.86-.86v-1.14c0-.48.39-.86.86-.86h3.46c.48 0 .86.39.86.86v1.14c.01.48-.38.86-.86.86z"/><path fill="#78909C" d="M122.51 114.36h-4.94c-.59 0-1.06-.48-1.06-1.06v-1.78c0-.59.48-1.06 1.06-1.06h4.94c.59 0 1.06.48 1.06 1.06v1.78c0 .58-.48 1.06-1.06 1.06z"/><path fill="#90A4AE" d="M119.32 119.02h-4.48a.76.76 0 0 1-.76-.76v-1.8c0-.42.34-.76.76-.76h4.48c.42 0 .76.34.76.76v1.8c0 .42-.34.76-.76.76z"/><path fill="#78909C" d="M30.24 79.59h-5.69c-.68 0-1.22-.55-1.22-1.22v-2.05c0-.68.55-1.22 1.22-1.22h5.69c.68 0 1.22.55 1.22 1.22v2.05c0 .67-.55 1.22-1.22 1.22z"/><path fill="#90A4AE" d="M33.89 83.76h-4.4c-.41 0-.75-.33-.75-.75v-1.76c0-.41.33-.75.75-.75h4.4c.41 0 .75.33.75.75v1.76c-.01.41-.34.75-.75.75z"/><path fill="#78909C" d="M11.25 105.92h-6c-.5 0-.9-.4-.9-.9v-2.51c0-.5.4-.9.9-.9h6c.5 0 .9.4.9.9v2.51c0 .49-.4.9-.9.9z"/><path fill="#90A4AE" d="M13.31 110.73H8.74c-.38 0-.69-.31-.69-.69v-1.92c0-.38.31-.69.69-.69h4.58c.38 0 .69.31.69.69v1.92c-.01.38-.32.69-.7.69z"/><path fill="#424242" d="M112.59 71.9a6.033 6.033 0 0 0 4.53 2.07c1.45 0 2.82-.53 3.88-1.43v48.4H7v-48.5c1.08.96 2.49 1.53 4 1.53 1.78 0 3.42-.79 4.53-2.07a6.033 6.033 0 0 0 4.53 2.07c1.78 0 3.42-.79 4.53-2.07a6.033 6.033 0 0 0 4.53 2.07c1.45 0 2.82-.53 3.88-1.43v4.68l.22.48A7.03 7.03 0 0 0 40 82.97c2.5 0 4.76-1.34 6-3.4 1.24 2.05 3.5 3.4 6 3.4s4.76-1.34 6-3.4c1.24 2.05 3.5 3.4 6 3.4s4.76-1.34 6-3.4c1.24 2.05 3.5 3.4 6 3.4s4.76-1.34 6-3.4c1.24 2.05 3.5 3.4 6 3.4 3.19 0 6-2.2 6.78-5.27l.22-.48v-4.79c1.08.96 2.49 1.53 4 1.53 1.78 0 3.42-.79 4.53-2.07a6.033 6.033 0 0 0 4.53 2.07c1.78.01 3.42-.78 4.53-2.06M123 67.97h-2.01c-.47 0-.85.34-.98.79-.35 1.27-1.52 2.2-2.89 2.2s-2.54-.94-2.89-2.2c-.13-.46-.5-.79-.98-.79h-1.33c-.47 0-.85.34-.98.79-.35 1.27-1.52 2.2-2.89 2.2s-2.54-.94-2.89-2.2c-.13-.46-.5-.79-.98-.79h-1.33c-.47 0-.85.34-.98.79-.35 1.27-1.52 2.2-2.89 2.2s-2.54-.94-2.89-2.2c-.13-.46-.5-.79-.98-.79H93c-.55 0-1 .45-1 1v7.61c-.03.07-.07.14-.09.22A4 4 0 0 1 88 79.97a4 4 0 0 1-3.91-3.17c-.1-.48-.5-.83-.98-.83H80.9c-.49 0-.88.35-.98.83a4 4 0 0 1-3.91 3.17 4 4 0 0 1-3.91-3.17c-.1-.48-.5-.83-.98-.83H68.9c-.49 0-.88.35-.98.83a4 4 0 0 1-3.91 3.17 4 4 0 0 1-3.91-3.17c-.1-.48-.5-.83-.98-.83H56.9c-.49 0-.88.35-.98.83a4 4 0 0 1-3.91 3.17 4 4 0 0 1-3.91-3.17c-.1-.48-.5-.83-.98-.83H44.9c-.49 0-.88.35-.98.83a4 4 0 0 1-3.91 3.17 4 4 0 0 1-3.91-3.17.849.849 0 0 0-.09-.22v-7.61c0-.55-.45-1-1-1H33c-.47 0-.85.34-.98.79-.35 1.27-1.52 2.2-2.89 2.2s-2.54-.94-2.89-2.2c-.13-.46-.5-.79-.98-.79h-1.33c-.47 0-.85.34-.98.79-.35 1.27-1.52 2.2-2.89 2.2s-2.54-.94-2.89-2.2c-.13-.46-.5-.79-.98-.79h-1.33c-.47 0-.85.34-.98.79-.35 1.27-1.52 2.2-2.89 2.2s-2.54-.94-2.89-2.2c-.13-.46-.5-.79-.98-.79H5c-.55 0-1 .45-1 1v54.98h120V68.97c0-.55-.45-1-1-1z" opacity=".2"/><path fill="#455A64" d="M76 123.95H52v-15.99c0-6.63 5.37-12 12-12s12 5.37 12 12v15.99z"/><defs><path id="s" d="M76 123.95H52v-15.99c0-6.63 5.37-12 12-12s12 5.37 12 12v15.99z"/></defs><clipPath id="t"><use xlink:href="#s"/></clipPath><path fill="#37474F" d="M56 93.2v15.99l1.11 2.21a1 1 0 0 0 1.79 0l1.11-2.21V93.2H56zm6 0v15.99l1.11 2.21a1 1 0 0 0 1.79 0l1.11-2.21V93.2H62zm6 0v15.99l1.11 2.21a1 1 0 0 0 1.79 0l1.11-2.21V93.2H68z" clip-path="url(#t)"/><path fill="#37474F" d="M52 102.87h24v4H52z" clip-path="url(#t)"/><path fill="#607D8B" d="M62.14 91.85h2.62c.76 0 1.32.62 1.15 1.26l-.73 2.75c-.12.47-.6.8-1.15.8h-1.37c-.58 0-1.07-.36-1.16-.86l-.53-2.75c-.11-.63.44-1.2 1.17-1.2z"/><path fill="#90A4AE" d="m56.95 93.45 1.96-.73c.6-.22 1.25.15 1.37.77l.48 2.48c.1.5-.18.99-.66 1.16l-1.13.41c-.46.17-.98-.01-1.24-.44l-1.31-2.17c-.33-.54-.08-1.26.53-1.48z"/><path fill="#607D8B" d="m55.48 95.8 1.45 1.68c.35.41.33 1.02-.05 1.41l-1.43 1.43c-.33.33-.83.4-1.23.17l-2.04-1.13c-.6-.34-.71-1.16-.22-1.64l2.02-1.97c.43-.43 1.11-.4 1.5.05z"/><path fill="#90A4AE" d="m53.2 100.74-2.08-.94c-.57-.26-1.24.05-1.42.65l-.69 2.32c-.17.57.18 1.17.76 1.3l2.31.53c.55.13 1.1-.21 1.24-.76l.47-1.91c.1-.49-.14-.99-.59-1.19z"/><path fill="#78909C" d="m51.58 105.13-2.81-.34a1.03 1.03 0 0 0-1.15.91l-.03.27c-.07.6.39 1.13 1 1.15l2.84.07c.62.02 1.11-.51 1.06-1.12-.05-.49-.43-.88-.91-.94z"/><path fill="#90A4AE" d="m51.3 107.7-2.76-.04c-.57-.01-1.04.45-1.05 1.02l-.03 2.32c-.01.57.44 1.03 1.01 1.05l2.94.08c.61.02 1.1-.49 1.06-1.09l-.14-2.36c-.04-.54-.49-.97-1.03-.98z"/><path fill="#78909C" d="m48.19 112.59 3.06.05c.58.01 1.04.44 1.01.95l-.1 1.87c-.03.49-.48.87-1.04.87l-3.01-.02c-.58 0-1.04-.42-1.03-.93l.05-1.91c.02-.49.49-.89 1.06-.88zm.17 4.37 2.91-.04c.56-.01 1.02.43 1.05.99l.09 2.24c.02.58-.44 1.07-1.02 1.07l-3.03.04c-.58.01-1.06-.47-1.05-1.05l.04-2.24c0-.56.45-1.01 1.01-1.01z"/><path fill="#546E7A" d="m47.95 121.92 3.52-.01c.55 0 1 .25 1.04.58l.08.73c.04.34-.4.63-.97.65-1.63.06-4.62.14-4.62-.04 0-.14-.03-.78-.06-1.27-.04-.35.43-.64 1.01-.64z"/><path fill="#78909C" d="m66.35 93.4-.39 2.39c-.08.48.19.95.65 1.13l1.57.6c.47.18 1 0 1.26-.44l1.38-2.32c.35-.59.04-1.35-.62-1.53l-2.56-.67c-.6-.14-1.19.24-1.29.84z"/><path fill="#90A4AE" d="m71.48 94.86-1.27 2.15c-.28.48-.13 1.1.34 1.4l1.53.97c.42.26.96.19 1.3-.16l1.88-1.97c.47-.49.34-1.3-.26-1.62l-2.14-1.15c-.49-.27-1.1-.1-1.38.38z"/><path fill="#78909C" d="m75.28 98.34-1.82 1.46c-.41.33-.49.93-.18 1.35l1.02 1.43c.26.37.74.51 1.17.35l2.23-.86c.6-.23.83-.97.46-1.5l-1.43-2.03c-.34-.47-1-.56-1.45-.2z"/><path fill="#90A4AE" d="M77.49 102.65c-.63.28-1.44.65-2.03.92-.44.2-.66.7-.51 1.16l.54 1.67c.15.45.6.72 1.06.65l2.22-.37c.58-.1.94-.69.75-1.24l-.75-2.22a.932.932 0 0 0-1.28-.57z"/><path fill="#78909C" d="M76.45 107.71c.78-.13 1.94-.32 2.77-.45.57-.09 1.09.38 1.16 1.03l.03.32c.07.69-.38 1.31-.98 1.34l-2.78.13c-.6.03-1.09-.54-1.07-1.23.01-.58.37-1.06.87-1.14z"/><path fill="#90A4AE" d="m76.49 110.56 3.01-.1c.59-.02 1.08.46 1.07 1.05l-.03 2.19c-.01.56-.46 1.01-1.02 1.02l-2.92.04c-.57.01-1.03-.44-1.05-1.01l-.05-2.13c-.03-.57.42-1.04.99-1.06z"/><path fill="#78909C" d="m76.38 115.26 3.03-.1c.59-.02 1.07.45 1.07 1.04l-.02 2.03c0 .56-.45 1.01-1.01 1.02l-3.07.08c-.59.02-1.07-.47-1.06-1.06l.05-2.01c.02-.54.46-.98 1.01-1z"/><path fill="#546E7A" d="m76.31 119.93 3.43-.13c.56-.02 1.03.51 1.06 1.21l.08 1.63c.04.74-.44 1.36-1.03 1.36h-3.61c-.6 0-1.08-.64-1.03-1.39l.1-1.49c.05-.66.48-1.16 1-1.19z"/></svg>