<svg xmlns="http://www.w3.org/2000/svg" xmlns:xlink="http://www.w3.org/1999/xlink" viewBox="0 0 128 128"><path fill="#EDA600" d="M81.56 73.92c.24 3.11-1.7 5.91-4.74 6.68-1.87.47-1.08 3.37.8 2.89 4.25-1.08 7.28-5.18 6.95-9.57-.16-1.92-3.16-1.93-3.01 0z"/><radialGradient id="a" cx="-246.16" cy="-2727.6" r="45.83" gradientTransform="matrix(.2322 -.8128 -.6266 -.2803 -1575.2 -904.07)" gradientUnits="userSpaceOnUse"><stop offset=".3" stop-color="#F9DDBD"/><stop offset=".8" stop-color="#EDC391"/></radialGradient><path fill="url(#a)" d="M69.86 114.71c-7.22-.12-12.37-10.58-11.06-17.22 1.49-7.5 6.4-12.24 15.37-11.14 20.81 2.55 25.39-1.71 27.58-8.14 3.03-8.87 6.07-49.2 6.07-49.2s6.32 9.8 10.4 27.84a453.54 453.54 0 0 1 3.94 19.4c1.87 10.27.26 20.93-4.9 30-2.21 3.89-4.82 7.07-7.64 7.73-8.2 1.92-7.28-2.11-17.86-1.98-9.95.14-16.02 4.26-21.9 2.71z"/><linearGradient id="b" x1="6.952" x2="114.51" y1="57.252" y2="57.252" gradientUnits="userSpaceOnUse"><stop offset=".4" stop-color="#F9DDBD"/><stop offset=".596" stop-color="#F8DBBA"/><stop offset=".762" stop-color="#F5D5AF"/><stop offset=".917" stop-color="#F0CB9E"/><stop offset="1" stop-color="#EDC391"/></linearGradient><path fill="url(#b)" d="M113.17 60.73c-1.57-19.41-1.88-42.43-17.89-42.46-2.6-.01-5.05.7-7.18 1.75-2.3 1.14-5.05.6-6.66-1.4-2.78-3.46-7.1-5.68-11.97-5.68-5.21 0-9.81 2.55-12.55 6.45-1.51 2.15-4.37 2.74-6.63 1.39-1.71-1.02-3.62-1.64-5.66-1.75-4.11-.22-8 1.63-11.03 4.83-.84.89-2.06 1.29-3.25 1.03-11.12-2.47-14.42 5.77-17.3 15.65 0 0-15.72 43.69 3.28 47.36 1.45.28 5.11.87 6.43.73 2.38-.26 4.72.66 6.47 2.29 2.78 2.59 6.2 4.21 9.67 4.4 3.42.19 7-.59 10.13-2.28 2.21-1.19 4.9-.4 6.3 1.69 2.98 4.45 7.68 6.85 13.33 6.85 4.52 0 9.73-1.32 12.85-4.36 3.34-3.26 8.44-3.7 12.32-1.11 2.15 1.43 5.5 2.35 11.17 1.14 11.67-2.52 10.09-12.77 8.17-36.52z"/><path fill="none" stroke="#E6B77E" stroke-linecap="round" stroke-linejoin="round" stroke-miterlimit="10" stroke-width="3" d="M56.16 92.98c1.31 2.8 4.45 6.39 13.51 7.76 8.16 1.24 13.44-4.18 15.17-5.1 6.66-3.53 12.69 3.19 20.15 2.13 11.04-1.58 12.25-11.34 8.83-31.53"/><path fill="#E6B77E" d="M69.47 15.94c3.74 0 7.21 1.62 9.54 4.45 1.67 2.03 4.11 3.19 6.7 3.19 1.3 0 2.55-.29 3.72-.87 1.94-.96 3.9-1.44 5.85-1.44 5.46.01 9.07 3.58 12.08 11.93.49 1.35 1.03 2.75 1.61 4.23 1.92 4.94 4.31 11.09 6.34 20.09 1.39 6.15 2.71 12.64 3.92 19.27 1.77 9.76.16 19.7-4.56 27.98-2.93 5.16-4.98 6.12-5.72 6.29-1.26.3-2.31.44-3.19.44-1.3 0-2.17-.31-3.49-.79-2.14-.76-4.79-1.72-9.98-1.72h-.55c-5 .06-9.15 1.08-12.48 1.9-2.51.62-4.68 1.15-6.57 1.15-.74 0-1.41-.08-2.05-.25-.23-.06-.47-.1-.72-.1-2.03-.03-3.69-1.45-4.72-2.62-2.43-2.78-3.92-7.18-3.53-10.45.12-1.04-.31-2.07-1.13-2.72-1.06-.83-1.96-1.8-2.68-2.87-1.5-2.24-3.97-3.57-6.6-3.57-1.26 0-2.51.32-3.62.92a16.264 16.264 0 0 1-8.54 1.92c-2.69-.15-5.46-1.42-7.79-3.6-2.18-2.03-4.91-3.14-7.71-3.14-.38 0-.76.02-1.13.06-.05 0-.11.01-.17.01-1.21 0-3.91-.41-5.36-.69-2.23-.43-3.81-1.57-4.95-3.57-5.22-9.17 1.06-31.86 3.92-39.82.02-.06.04-.12.06-.17 2.7-9.24 5.09-13.94 10.7-13.94.93 0 1.97.13 3.07.37.21.05.43.07.65.07h.12c1.93 0 4.29-.99 5.73-2.4 2.33-2.27 5.01-3.48 7.75-3.48.17 0 .34 0 .51.01 1.5.08 2.95.53 4.29 1.33a8.02 8.02 0 0 0 4.12 1.14c2.58 0 5.01-1.27 6.5-3.39 2.24-3.22 6.01-5.15 10.06-5.15m0-3c-5.21 0-9.81 2.55-12.55 6.45a4.907 4.907 0 0 1-4.04 2.11c-.88 0-1.77-.23-2.58-.72-1.71-1.02-3.62-1.64-5.66-1.75-.22-.01-.45-.02-.67-.02-3.64 0-7.07 1.62-9.85 4.33-.84.82-2.45 1.54-3.63 1.54h-.12c-1.35-.3-2.59-.44-3.72-.44-8.19 0-11.04 7.41-13.58 16.1 0 0-15.72 43.69 3.28 47.36 1.3.25 4.35.75 5.93.75.19 0 .36-.01.5-.02.27-.03.54-.04.81-.04 2.1 0 4.11.89 5.67 2.34 2.78 2.59 6.2 4.21 9.67 4.4.33.02.67.03 1 .03 3.11 0 6.3-.78 9.12-2.3.7-.38 1.45-.56 2.19-.56 1.6 0 3.16.82 4.11 2.24.94 1.4 2.07 2.58 3.33 3.56-.79 6.65 4.24 16.32 11.18 16.43.93.25 1.86.35 2.82.35 5.08 0 10.71-2.94 19.09-3.05h.52c8.07 0 9.16 2.5 13.47 2.5 1.05 0 2.29-.15 3.87-.52 2.82-.66 5.43-3.84 7.64-7.73 5.16-9.07 6.77-19.73 4.9-30-.98-5.42-2.31-12.17-3.94-19.4-2.7-11.92-5.96-18.87-8.05-24.68-2.8-7.77-6.85-13.9-14.89-13.91h-.03c-2.59 0-5.03.7-7.15 1.75-.76.38-1.58.56-2.39.56-1.65 0-3.28-.75-4.38-2.09-2.79-3.4-7.07-5.57-11.87-5.57z"/><path fill="none" stroke="#E6B77E" stroke-linecap="round" stroke-linejoin="round" stroke-miterlimit="10" stroke-width="3" d="M30.32 49.85a119.915 119.915 0 0 0-3.59 37.21m27.1-38.2c-1.44 10.6-1.5 39.33-.01 42.65M81.84 44.5c2.85 17.29 3.99 31.96 4.23 49.49"/><defs><path id="c" d="M159-136h120v120H159z"/></defs><clipPath id="d"><use xlink:href="#c"/></clipPath><g clip-path="url(#d)"><defs><path id="e" d="M155-140h128v128H155z"/></defs><clipPath id="f"><use xlink:href="#e"/></clipPath><g clip-path="url(#f)"><radialGradient id="g" cx="-90.447" cy="-217.27" r="137.58" gradientTransform="scale(-1 1) rotate(-45 32.5 -15.07)" gradientUnits="userSpaceOnUse"><stop offset=".353" stop-color="#FFCA28"/><stop offset=".872" stop-color="#FFB300"/></radialGradient><path fill="url(#g)" d="M134.73 46.77c-11.49 0-22.52-5.2-32.79-15.47-28.1-28.1-34.45-44.27-26.13-66.52 3.4-9.11 17.58-32.15 18.86-34.21 1.07-1.08 8.9-8.95 15.12-15.83 6.47-7.15 11.55-16.06 12.16-17.14a3.91 3.91 0 0 1 3.06-1.5c.67 0 1.31.18 1.87.53 7 4.32 9.36 9.53 7.23 15.93-1.55 4.66-5.81 9.55-9.24 13.48-3.98 4.57-6.61 7.59-5.63 10.13.16.4.3.83.44 1.24.64 1.88 1.31 3.83 3.11 3.83.75 0 1.46-.39 2.1-1.17 1.06-1.12 34.54-32.64 52.09-49.14 3.27-3.27 6.56-4.98 9.55-4.98 2.15 0 4.14.91 5.93 2.7 2.2 2.2 3.06 4.71 2.56 7.44-.47 2.57-2.13 5.34-4.8 8.01l-36.58 39.81c-.54.58-.53 1.49.03 2.06.29.3.68.46 1.08.46.35 0 .7-.12.98-.37l54.86-47.41c.03-.02.05-.05.08-.07 3.23-3.23 6.53-4.94 9.52-4.94 2.15 0 4.14.91 5.93 2.7 5.75 5.75 1.06 12.15-2.24 15.45l-8.21 7.79c-.59.56-.62 1.5-.07 2.11a1.502 1.502 0 0 0 2.1.1c2.92-2.63 5.87-4.01 8.54-4.01 2.15 0 4.14.91 5.93 2.7 2.2 2.2 3.06 4.71 2.56 7.44-.47 2.57-2.13 5.34-4.8 8.01-.03.03-.05.06-.08.09l-39.28 46.02a1.498 1.498 0 0 0 1.14 2.47c.35 0 .71-.12.99-.37l26.96-23.74c3.3-3.3 6.6-5.01 9.59-5.01 2.15 0 4.14.91 5.93 2.7 3.91 3.91 2.94 8.07-3.35 14.35-.59.56-61.17 58.51-71.75 65.83-5.58 3.87-14.53 8.5-25.35 8.5z"/><path fill="#EDA600" d="M186.53-112.55c1.76 0 3.35.74 4.87 2.26 1.86 1.86 2.56 3.86 2.14 6.11-.42 2.27-1.94 4.77-4.39 7.22l-.09.09-36.52 39.77a2.995 2.995 0 0 0 .06 4.12c.59.6 1.37.91 2.15.91.7 0 1.4-.24 1.96-.73l54.86-47.41c.06-.05.11-.1.16-.15 2.9-2.9 5.91-4.5 8.46-4.5 1.76 0 3.35.74 4.87 2.26 2.53 2.53 4.19 6.88-2.22 13.3l-8.18 7.77c-.37.34-.75.69-1.12 1.06a3.012 3.012 0 0 0-.03 4.22c.59.6 1.37.91 2.15.91.74 0 1.49-.27 2.07-.82l1-.95c2.63-2.36 5.22-3.6 7.51-3.6 1.76 0 3.35.74 4.87 2.26 1.86 1.86 2.56 3.86 2.14 6.11-.42 2.27-1.94 4.77-4.39 7.22-.06.06-.11.11-.16.17l-39.28 46.02a3.01 3.01 0 0 0 .18 4.09c.58.57 1.34.86 2.11.86.71 0 1.41-.25 1.98-.75l26.97-23.74c.05-.04.09-.09.14-.13 2.9-2.9 5.91-4.5 8.46-4.5 1.76 0 3.35.74 4.87 2.26 2.2 2.2 2.08 3.88 1.67 5.24-.58 1.9-2.21 4.18-4.99 6.97-1.5 1.43-61.16 58.48-71.57 65.69-5.43 3.76-14.08 8.23-24.52 8.23-11.08 0-21.75-5.06-31.73-15.03C88.73 15.97 80.64 5.36 76.78-4.17c-3.95-9.75-3.82-19.16.43-30.53 3.29-8.79 16.91-31 18.64-33.8 1.46-1.46 9-9.08 15.05-15.76 6.38-7.06 11.43-15.79 12.29-17.3.45-.54 1.12-.85 1.81-.85a2 2 0 0 1 1.09.31c6.4 3.96 8.5 8.46 6.59 14.18-1.46 4.37-5.61 9.14-8.94 12.97-4.18 4.8-7.21 8.28-5.9 11.66.15.38.29.79.42 1.18.7 2.04 1.65 4.84 4.53 4.84.82 0 2.03-.28 3.18-1.62 1.71-1.73 31.96-30.21 52.04-49.09.02-.02.04-.04.07-.06 2.89-2.91 5.9-4.51 8.45-4.51m0-3c-3.61 0-7.31 2.11-10.58 5.38 0 0-51.53 48.45-52.22 49.27-.36.44-.67.62-.95.62-.95 0-1.44-2.26-2.15-4.11-1.36-3.52 11.71-13.06 14.89-22.6 3.39-10.18-4.46-15.57-7.86-17.68-.83-.51-1.75-.75-2.66-.75a5.4 5.4 0 0 0-4.31 2.18s-5.3 9.54-12.01 16.96-15.19 15.9-15.19 15.9S78.04-45.49 74.4-35.75c-8.92 23.87-.97 40.66 26.48 68.11 11.76 11.76 23.42 15.91 33.85 15.91 10.29 0 19.38-4.03 26.22-8.77 10.81-7.48 71.96-66.01 71.96-66.01 5.47-5.47 8.79-11.03 3.35-16.47-2.19-2.19-4.57-3.14-6.99-3.14-3.61 0-7.31 2.11-10.58 5.38L191.72-17 231-63.01c5.47-5.47 7.69-12.13 2.24-17.57-2.19-2.19-4.57-3.14-6.99-3.14-3.23 0-6.54 1.69-9.55 4.4l-1.03.98c.34-.34.68-.67 1.03-.98l8.24-7.82c5.47-5.47 7.69-12.13 2.24-17.57-2.19-2.19-4.57-3.14-6.99-3.14-3.61 0-7.31 2.11-10.58 5.38l-54.86 47.41 36.53-39.77c5.47-5.47 7.69-12.13 2.24-17.57-2.19-2.19-4.57-3.15-6.99-3.15z"/><linearGradient id="h" x1="211.31" x2="243.34" y1="-89.456" y2="-119.62" gradientUnits="userSpaceOnUse"><stop offset=".079" stop-color="#D32F2F"/><stop offset=".79" stop-color="#F44336"/></linearGradient><path fill="url(#h)" d="M228.95-92.69c-8.49 8.49-11.74 5.57-15.54 1.77s-6.72-7.06 1.77-15.54 18.45-12.28 22.26-8.48c3.79 3.8 0 13.76-8.49 22.25z"/><linearGradient id="i" x1="174.06" x2="203.3" y1="-108.34" y2="-108.34" gradientUnits="userSpaceOnUse"><stop offset="0" stop-color="#D32F2F"/><stop offset=".644" stop-color="#F44336"/></linearGradient><path fill="url(#i)" d="M193.34-99.22c-8.49 8.49-11.74 5.57-15.54 1.77s-6.72-7.06 1.77-15.54c8.49-8.49 18.45-12.28 22.26-8.48 3.79 3.8 0 13.76-8.49 22.25z"/><linearGradient id="j" x1="217.93" x2="247.31" y1="-39.975" y2="-39.975" gradientUnits="userSpaceOnUse"><stop offset="0" stop-color="#D32F2F"/><stop offset=".644" stop-color="#F44336"/></linearGradient><path fill="url(#j)" d="M236.59-30.91c-8.77 7.86-11.8 4.83-15.32.9s-6.21-7.27 2.56-15.13 18.73-11.05 22.25-7.12c3.52 3.92-.73 13.48-9.49 21.35z"/><path fill="#EDA600" d="M165.33-31.17a1.5 1.5 0 0 1-1.02-2.6L213.2-79.6c.61-.56 2.34-.7 2.9-.09s.3 1.94-.3 2.5l-49.44 45.62c-.3.27-.66.4-1.03.4z"/><linearGradient id="k" x1="214.69" x2="242.26" y1="-76.232" y2="-76.232" gradientUnits="userSpaceOnUse"><stop offset="0" stop-color="#D32F2F"/><stop offset=".644" stop-color="#F44336"/></linearGradient><path fill="url(#k)" d="M232.88-67.64c-8 8-11.07 5.25-14.66 1.67-3.59-3.59-6.34-6.66 1.67-14.66 8-8 17.4-11.58 20.99-8 3.58 3.59 0 12.99-8 20.99z"/></g><g clip-path="url(#f)"><path fill="#C62828" d="m263.957-111.678 5.546 2.29-11.45 27.729-5.546-2.29z"/><linearGradient id="l" x1="705.59" x2="705.65" y1="-102.08" y2="-127.42" gradientTransform="matrix(1.142 .4716 -.3817 .9243 -577.66 -350.01)" gradientUnits="userSpaceOnUse"><stop offset=".167" stop-color="#F44336"/><stop offset=".696" stop-color="#D32F2F"/></linearGradient><path fill="url(#l)" d="m275.54-106.01-18.26-7.54a5.767 5.767 0 0 1-3.13-7.54l16.97-41.09a5.767 5.767 0 0 1 7.54-3.13l18.26 7.54a5.767 5.767 0 0 1 3.13 7.54l-16.97 41.09c-1.21 2.95-4.59 4.35-7.54 3.13z"/><radialGradient id="m" cx="740.17" cy="-50.016" r="12.201" gradientTransform="rotate(22.437 528.338 -1302.686)" gradientUnits="userSpaceOnUse"><stop offset="0" stop-color="#EF5350"/><stop offset="1" stop-color="#E53935"/></radialGradient><path fill="url(#m)" d="M235.26-59.67s3.93-1.87 6.32-4.34c3.51-3.64-.29-8.52 4.68-15.87 2.76-4.08 6.42-4.53 6.42-4.53l5.9 2.56s5.65 6.78-3.54 17.62c-8.58 10.11-19.78 4.56-19.78 4.56z"/><linearGradient id="n" x1="705.59" x2="705.65" y1="-102.08" y2="-127.42" gradientTransform="matrix(1.142 .4716 -.3817 .9243 -577.66 -350.01)" gradientUnits="userSpaceOnUse"><stop offset="0" stop-color="#F44336"/><stop offset=".286" stop-color="#E53A33"/><stop offset=".66" stop-color="#D83230"/><stop offset="1" stop-color="#D32F2F"/></linearGradient><path fill="url(#n)" d="m275.54-106.01-18.26-7.54a5.767 5.767 0 0 1-3.13-7.54l16.97-41.09a5.767 5.767 0 0 1 7.54-3.13l18.26 7.54a5.767 5.767 0 0 1 3.13 7.54l-16.97 41.09c-1.21 2.95-4.59 4.35-7.54 3.13z"/><path fill="#424242" d="M276.46-162.75c.36 0 .72.07 1.06.21l18.26 7.54a2.77 2.77 0 0 1 1.5 3.62l-16.97 41.09a2.774 2.774 0 0 1-3.62 1.51l-18.26-7.54a2.77 2.77 0 0 1-1.5-3.62l16.97-41.09a2.754 2.754 0 0 1 2.56-1.72m0-3c-2.27 0-4.42 1.34-5.34 3.57l-16.97 41.09a5.776 5.776 0 0 0 3.13 7.54l18.26 7.54a5.769 5.769 0 0 0 7.54-3.13l16.97-41.09a5.776 5.776 0 0 0-3.13-7.54l-18.26-7.54c-.72-.29-1.47-.44-2.2-.44zm-24.04 84.5 4.13 1.79c.74 1.44 2.26 6.12-3.81 13.29-2.72 3.2-6.02 4.89-9.81 5.01.28-.25.54-.51.8-.77 2.41-2.49 2.51-5.36 2.61-7.88.09-2.52.19-5.12 2.4-8.39 1.3-1.93 2.83-2.73 3.68-3.05m.25-3.16s-3.67.45-6.42 4.53c-4.97 7.35-1.17 12.23-4.68 15.87-2.39 2.47-6.32 4.34-6.32 4.34s3.07 1.52 7.22 1.52c3.78 0 8.47-1.26 12.55-6.08 9.19-10.84 3.54-17.62 3.54-17.62l-5.89-2.56z" opacity=".2"/></g></g><g clip-path="url(#d)" opacity=".2"><path fill="#424242" d="M233.28-113.43c.65 0 1.54.1 2.03.6 1.9 1.9-.52 10.05-8.48 18.01-3.82 3.82-5.96 4.62-7.08 4.62-1.27 0-2.5-1.13-4.22-2.86-1.62-1.62-2.78-2.87-2.85-4.08-.07-1.12.68-3.28 4.62-7.22 6.26-6.26 12.54-9.07 15.98-9.07m-.01-3c-4.8 0-11.85 3.71-18.1 9.96-8.49 8.49-5.57 11.74-1.77 15.54 1.99 1.99 3.83 3.74 6.34 3.74 2.29 0 5.15-1.45 9.2-5.5 8.49-8.49 12.28-18.45 8.48-22.26-1-1-2.43-1.48-4.15-1.48z"/></g><g clip-path="url(#d)" opacity=".2"><path fill="#424242" d="M197.67-119.96c.65 0 1.54.1 2.03.6.9.9.78 3.33-.31 6.18-1.43 3.76-4.41 8.07-8.17 11.83-3.82 3.82-5.96 4.62-7.08 4.62-1.27 0-2.5-1.13-4.22-2.86-1.62-1.62-2.78-2.87-2.85-4.08-.07-1.12.68-3.28 4.62-7.22 6.26-6.26 12.54-9.07 15.98-9.07m0-3c-4.8 0-11.85 3.71-18.1 9.96-8.49 8.49-5.57 11.74-1.77 15.54 1.99 1.99 3.83 3.74 6.34 3.74 2.29 0 5.15-1.45 9.2-5.5 8.49-8.49 12.28-18.45 8.48-22.26-1-1-2.43-1.48-4.15-1.48z"/></g><g clip-path="url(#d)" opacity=".2"><path fill="#424242" d="M241.56-50.95c.76 0 1.77.12 2.28.69.82.91.56 3.26-.64 5.98-1.6 3.6-4.74 7.66-8.62 11.14-3.82 3.42-5.92 4.14-7.01 4.14-1.18 0-2.21-.93-4.08-3.01-1.5-1.67-2.56-2.94-2.56-4.11-.01-1.09.83-3.15 4.89-6.79 5.45-4.88 11.62-8.04 15.74-8.04m0-3c-4.7 0-11.52 3.23-17.74 8.8-8.77 7.86-6.08 11.2-2.56 15.13 1.92 2.14 3.68 4.01 6.31 4.01 2.2 0 5.01-1.32 9.01-4.91 8.77-7.86 13.01-17.42 9.49-21.35-1.02-1.14-2.59-1.68-4.51-1.68z"/></g><g clip-path="url(#d)" opacity=".2"><path fill="#424242" d="M236.96-87.02c.58 0 1.37.09 1.79.51 1.74 1.74-.56 9.31-8 16.75-3.56 3.56-5.53 4.31-6.56 4.31-1.13 0-2.26-1.05-3.86-2.64-1.5-1.5-2.57-2.65-2.64-3.74-.06-1.02.63-3.01 4.31-6.68 5.88-5.88 11.75-8.51 14.96-8.51m0-3c-4.53 0-11.18 3.5-17.07 9.39-8 8-5.25 11.07-1.67 14.66 1.88 1.88 3.61 3.52 5.98 3.52 2.16 0 4.86-1.37 8.68-5.19 8-8 11.58-17.4 8-20.99-.95-.94-2.3-1.39-3.92-1.39z"/></g></svg>