<svg xmlns="http://www.w3.org/2000/svg" xmlns:xlink="http://www.w3.org/1999/xlink" viewBox="0 0 128 128"><linearGradient id="a" x1="63.8" x2="63.8" y1="743.53" y2="717.89" gradientTransform="translate(0 -713.89)" gradientUnits="userSpaceOnUse"><stop offset=".02" stop-color="#1e88e5"/><stop offset="1" stop-color="#42a5f5"/></linearGradient><path fill="url(#a)" d="M81.1 20.6l-17.4 9-17.2-9L47.9 4h32.8z"/><path fill="#424242" d="M77.7 7l.3 11.9-14.3 7.4-14.1-7.4 1-11.9h27.1m3-3H47.9l-1.4 16.6 17.3 9 17.4-9c-.1 0-.5-16.6-.5-16.6z" opacity=".2"/><linearGradient id="b" x1="64" x2="64" y1="837.26" y2="726.56" gradientTransform="translate(0 -713.89)" gradientUnits="userSpaceOnUse"><stop offset="0" stop-color="#42a5f5"/><stop offset="1" stop-color="#90caf9"/></linearGradient><path fill="url(#b)" d="M94.9 55.1l1.9 3.5L114 45.9l-11.3-24.2c-3.8-4.9-20.9-8.9-20.9-8.9L71.3 25.1l-7.2-2.4-7.3 2.4-10.5-12.3s-17.2 4-21 8.9L14 45.9l17.1 12.8 1.9-3.5c-.7 7.6 1.9 15.1.8 22.6-1.5 9.8-8.5 29.3-8.5 29.3-.3 4 22.7 16.2 38.8 16.4 16-.2 38.9-12.4 38.6-16.4 0 0-7.1-19.4-8.5-29.3-1.2-7.6 1.4-15.1.7-22.7z"/><defs><path id="c" d="M96.6 58.7l17.2-12.8-11.3-24.2c-3.8-4.9-20.9-8.9-20.9-8.9L71.3 25l-7-2.3-7.6 2.5-10.5-12.4s-17.2 4-20.9 8.9L14 45.9l17.1 12.8 1.9-3.5c-.7 7.4 2 14.8.9 22.1-1.5 10.1-6.9 20.1-8.8 30-.3 4.6 23.3 16.8 38.9 16.8s39.2-12.2 38.9-16.8c-2-10.3-7.4-20.8-9-31.2-1-6.6 1.8-13.2 1.2-19.9.1-.1 1.5 2.5 1.5 2.5z"/></defs><clipPath id="d"><use overflow="visible" xlink:href="#c"/></clipPath><path fill="#0d47a1" d="M95.5 49.5C91.9 38.6 92.2 35 92.2 35 90.8 51.3 75 55.9 64.3 48.9c-10.7 7-26.5 2.3-27.8-13.9 0 0 .2 3.6-3.3 14.4S28 69.6 28 69.6 37 59 64.3 58.9c27.3 0 36.3 10.7 36.3 10.7s-1.5-9.3-5.1-20.1z" clip-path="url(#d)" opacity=".1"/><path fill="#424242" d="M45.2 16.1l9.3 11c.6.7 1.4 1.1 2.3 1.1.3 0 .6 0 .9-.1l6.4-2.1 6.3 2.1c.3.1.6.1.9.1.9 0 1.7-.4 2.3-1.1l9.3-11c6.4 1.6 15 4.6 17.3 7.1l10.1 21.7-12.4 9.3-.2-.5c-.5-1-1.6-1.6-2.6-1.6-.3 0-.6 0-.9.1-1.4.4-2.2 1.7-2.1 3.1.3 3.2-.1 6.5-.5 10-.5 4.1-1 8.4-.3 12.8 1.3 8.8 6.8 24.5 8.3 28.8-3 3.5-21.2 13.3-35.4 13.4-14.2-.2-32.6-9.9-35.6-13.4 1.5-4.3 7-20 8.3-28.8.7-4.4.2-8.7-.3-12.8-.4-3.5-.8-6.7-.5-10 .1-1.4-.8-2.7-2.1-3.1-.3-.1-.6-.1-.9-.1-1.1 0-2.1.6-2.6 1.6l-.2.5-12.4-9.3L28 23.2c2.1-2.5 10.7-5.4 17.2-7.1m36.6-3.3L71.3 25.1l-7.2-2.4-7.3 2.4-10.5-12.3s-17.2 4-21 8.9L14 45.9l17.1 12.8 1.9-3.5c-.7 7.6 1.9 15.1.8 22.6-1.5 9.8-8.5 29.3-8.5 29.3-.3 4 22.7 16.2 38.8 16.4 16-.2 38.9-12.4 38.6-16.4 0 0-7.1-19.4-8.5-29.3-1.1-7.5 1.5-15 .8-22.6l1.9 3.5L114 45.9l-11.3-24.2c-3.8-5-20.9-8.9-20.9-8.9z" opacity=".2"/><g fill="#3949ab"><circle cx="64" cy="34.3" r="3"/><circle cx="64" cy="53.1" r="3"/><circle cx="64" cy="71.8" r="3"/><circle cx="64" cy="90.6" r="3"/><circle cx="64" cy="109.3" r="3"/></g><path fill="#e1f5fe" d="M64.2 22.6l-5.1 5.1c-2.1 2.1-5.1 1.7-6.8-.9l-9.4-14L47.8 4l16.4 18.6z"/><path fill="#e1f5fe" d="M64.1 22.6l5.1 5.1c2.1 2.1 5.1 1.7 6.8-.9l9.4-14-5-8.8-16.3 18.6z"/><g opacity=".2"><path fill="#424242" d="M48.2 7.4l13.3 15-3.8 3.7c-.5.5-1.1.8-1.7.8-.8 0-1.6-.5-2.1-1.3l-8.7-12.9 3-5.3M47.8 4l-5 8.8 9.4 14c1 1.5 2.4 2.2 3.8 2.2 1.1 0 2.2-.4 3.1-1.3l5.1-5.1L47.8 4z"/></g><g opacity=".2"><path fill="#424242" d="M80.2 7.4l3 5.3-8.7 12.9c-.6.8-1.3 1.3-2.1 1.3-.6 0-1.2-.3-1.7-.8l-3.8-3.7 13.3-15m.3-3.4L64.1 22.6l5.1 5.1c.9.9 2 1.3 3.1 1.3 1.4 0 2.8-.8 3.8-2.2l9.4-14-5-8.8z"/></g></svg>