<svg xmlns="http://www.w3.org/2000/svg" style="enable-background:new 0 0 128 128" viewBox="0 0 128 128" xml:space="preserve"><linearGradient id="a" x1="63.992" x2="63.992" y1="111.671" y2="7.042" gradientTransform="matrix(1 0 0 -1 0 127.89)" gradientUnits="userSpaceOnUse"><stop offset=".214" style="stop-color:#42a5f5"/><stop offset=".334" style="stop-color:#4baaf6"/><stop offset=".531" style="stop-color:#64b6f8"/><stop offset=".628" style="stop-color:#73bdf9"/><stop offset=".749" style="stop-color:#70bbf9"/><stop offset=".845" style="stop-color:#66b7f8"/><stop offset=".931" style="stop-color:#55aff7"/><stop offset="1" style="stop-color:#42a5f5"/></linearGradient><path d="m101 119.2-5.4-56.6v-.2l-3-35.4c.1-.9.1-1.7 0-2.6l-.9-12.5-.4-7.9H36.6l-.3 8-.7 12.3c-.1.6-.1 1.2-.1 1.8l-3.1 36.2v.2L27 119.2c-.2 1.4.9 2.6 2.4 2.8l18.5 2c1.5.1 2.8-.9 2.9-2.3l7-53.5c.2-.6.3-1.3.4-2L62 41.5h3.9l3.8 24.7c.1.7.2 1.3.4 2l7 53.5c.2 1.4 1.5 2.4 2.9 2.3l18.5-2c1.6-.2 2.6-1.4 2.5-2.8z" style="fill:url(#a)"/><path d="M63.9 34.8c-5.4 0-10.2-.8-12.9-3.7 1.8 4.2 6.9 7.2 12.9 7.2s11.2-3 12.9-7.2c-2.7 2.9-7.5 3.7-12.9 3.7zM48.5 4c-.1 4.8-.7 9.8-2.6 14.1-1.8 4.2-6 6.8-10.5 7.5 0-.4.1-.8.1-1.2l.1-1.6c7.7-1.2 9.7-11.1 9.9-18.8h3z" style="fill:#1e88e5"/><path d="M92 15.9H36l.3-3.9v-.2h55.4v.1z" style="fill:#1e88e5"/><path d="M92.7 25.6c-4.6-.6-8.9-3.3-10.7-7.5-1.9-4.3-2.5-9.3-2.6-14.1h3c.2 7.7 2.2 17.7 10 18.8l.1 1.6c.1.4.2.8.2 1.2zm-24 10.9h-.2c-.8 0-1.5-.7-1.5-1.5V14.3c0-.8.7-1.5 1.5-1.5h.2c.8 0 1.5.7 1.5 1.5V35c0 .8-.6 1.5-1.5 1.5zM62.3 4v31.2c0 .8-.7 1.5-1.5 1.5h-.2c-.8 0-1.5-.7-1.5-1.5V4h3.2z" style="fill:#1e88e5"/><ellipse cx="64.7" cy="7.9" rx="3.2" ry="3" style="fill:#fdd835"/><g style="opacity:.2"><path d="m88.4 7 .3 5.1.9 12.5v.2c.1.6.1 1.2 0 1.8v.6l3 35.3v.3L98 119l-17.8 1.9-7-53.2c0-.1 0-.3-.1-.4-.2-.6-.3-1.1-.3-1.6v-.1L68.9 41c-.2-1.5-1.5-2.5-3-2.5H62c-1.5 0-2.7 1.1-3 2.5l-3.8 24.7v.1c-.1.5-.2 1-.3 1.6 0 .1-.1.3-.1.4l-7 53.2-17.8-2 5.3-56.1v-.3l3-36.2V26c0-.5 0-.9.1-1.3v-.2l.7-12.3v-.1l.4-5.1h48.9zm2.9-3H36.6l-.3 8-.7 12.3c-.1.6-.1 1.2-.1 1.9l-3 36.2v.2L27 119.2c-.1 1.4.9 2.6 2.4 2.8l18.5 1.9h.3c1.4 0 2.5-1 2.7-2.3l7-53.5c.2-.6.3-1.3.4-2L62 41.5h3.9l3.8 24.7c.1.7.2 1.3.4 2l7 53.5c.1 1.3 1.3 2.3 2.7 2.3h.3l18.5-1.9c1.5-.1 2.5-1.4 2.4-2.8l-5.4-56.6v-.2l-3-35.3c.1-.9.1-1.8 0-2.6l-.9-12.5c0-.2-.4-8.1-.4-8.1z" style="fill:#424242"/></g></svg>