<svg xmlns="http://www.w3.org/2000/svg" style="enable-background:new 0 0 128 128" viewBox="0 0 128 128" xml:space="preserve"><path d="M93.39 13.48c-2.37-4.24-8-7.71-12.82-7.14-5.4.64-8.46 4.37-9.44 9.23-.36 1.76-.38 3.53-.14 4.8.03.15.28 1.26.28 1.6.14 1.33-2.47 2.52-2.84 3.97-.28 1.08 1.98 1.89 2.15 2.09.85 1.02-1.39 5.33 4.87 6.04 2.18.25 2.35-.07 2.71.12.36.19-1.51 3.54-1.51 3.54l9.83-2.05s1.93-6.33 5.5-9.91c3.17-3.18 2.93-9.56 1.41-12.29z" style="fill:#a56c43"/><path d="M70.82 29.29c.71.11 1.66.1 2.16-.08.93-.35 1.45.34.62.9-.72.48-1.86.56-2.72.5l-.06-1.32z" style="fill:#473530"/><ellipse cx="75.12" cy="22.89" rx="1.77" ry="1.15" style="fill:#42312c" transform="rotate(-89.209 75.124 22.892)"/><path d="M74.35 20.24c-1.15.22-1.34-.55-.91-1.1.32-.41 1.03-.71 2.31-.32 1.21.36 1.64 1.12 1.93 1.59s.21.89-.08.9c-.39 0-1.83-1.34-3.25-1.07z" style="fill:#42312c"/><path d="M94.44 10.46C92.2 7.43 88.4 5.38 84.28 4.97c-3.58-.36-8.54.28-11.72 3.12-1.91 1.7-3.11 4.02-2.94 6.66.1 1.59 1.2 2.37 1.2 2.37l.08-.13s.01-.02.03-.05l.14-.25c.5-.81 2.14-2.88 5.2-1.9 3.78 1.21 5.52.45 5.52.45-1.45 2.99-.06 4.66.9 5.68.55.58 1.05 1.25 1.33 1.64.15.21.28.2.35-.01.18-.49.5-1.36.74-1.77.78-1.37 1.9-.81 1.91-.81 1.53.62 1.92 3.84-.72 5.59-.06.04-.21.14-.16.47.12.81.65 2.82 2.97 3.5.31.09.58.15.83.18 1.32.15 2.08-.36 2.28-1.34.43-2.14.93-2.74 1.65-3.64.83-1.04 1.78-2.22 2.45-5.57.63-3.17-.02-6.18-1.88-8.7z" style="fill:#3c2c23"/><radialGradient id="a" cx="82.369" cy="109.146" r="16.681" gradientTransform="matrix(1 0 0 -1 0 130)" gradientUnits="userSpaceOnUse"><stop offset=".526" style="stop-color:#554138;stop-opacity:0"/><stop offset="1" style="stop-color:#554138"/></radialGradient><path d="M94.44 10.46C92.2 7.43 88.4 5.38 84.28 4.97c-3.58-.36-8.54.28-11.72 3.12-1.91 1.7-3.11 4.02-2.94 6.66.1 1.59 1.2 2.37 1.2 2.37l.08-.13s.01-.02.03-.05l.14-.25c.5-.81 2.14-2.88 5.2-1.9 3.78 1.21 5.52.45 5.52.45-1.45 2.99-.06 4.66.9 5.68.55.58 1.05 1.25 1.33 1.64.15.21.28.2.35-.01.18-.49.5-1.36.74-1.77.78-1.37 1.9-.81 1.91-.81 1.53.62 1.92 3.84-.72 5.59-.06.04-.21.14-.16.47.12.81.65 2.82 2.97 3.5.31.09.58.15.83.18 1.32.15 2.08-.36 2.28-1.34.43-2.14.93-2.74 1.65-3.64.83-1.04 1.78-2.22 2.45-5.57.63-3.17-.02-6.18-1.88-8.7z" style="fill:url(#a)"/><path d="M39.05 107.04c.6.19 1.24-.14 1.43-.73l.85-2.64c.58-1.79-.58-4.42-.58-4.42l-6.57-2.11-6.54.05c-1.61.1-3 1.18-3.51 2.71l-.39 1.19c-.17.52.12 1.08.64 1.25l14.67 4.7z" style="fill:#4568ad"/><path d="M82.26 65.54H63.79L62.61 69l-12.15 2.11c-4.32.8-7.91 1.28-11.08 8.78l-6.81 16.98 9.46 3.94 9.06-17.64s15.1.78 24.63-.51c9.5-1.28 6.54-17.12 6.54-17.12z" style="fill:#7c7c7c"/><linearGradient id="b" x1="66.597" x2="87.009" y1="77.791" y2="77.791" gradientTransform="scale(1 -1) rotate(-12.545 -520.92 17.327)" gradientUnits="userSpaceOnUse"><stop offset="0" style="stop-color:#651fff"/><stop offset=".705" style="stop-color:#5914f2"/><stop offset="1" style="stop-color:#530eeb"/></linearGradient><path d="M61.99 69.01s1.85-13.5 6.8-22.98c2.78-5.32 4.62-7.38 7.1-8.92 2.83-1.76 8.75-2.92 11.1-.12 2.32 2.76 1.66 4.01 1.24 7.04L81.7 73.2c-10.7.95-19.71-4.19-19.71-4.19z" style="fill:url(#b)"/><linearGradient id="c" x1="92.288" x2="92.288" y1="100.665" y2="106.166" gradientTransform="translate(0 .11)" gradientUnits="userSpaceOnUse"><stop offset="0" style="stop-color:#bfbebe"/><stop offset=".4" style="stop-color:#212121;stop-opacity:0"/><stop offset=".6" style="stop-color:#212121;stop-opacity:0"/><stop offset="1" style="stop-color:#bfbebe"/></linearGradient><path d="M85.33 100.78h13.91v5.5H85.33z" style="opacity:.5;fill:url(#c);enable-background:new"/><path d="M42.78 109.74c-.82 0-1.48-.12-1.83-.23l-18.34-6.13c-.43-.14-.78-.44-.99-.84s-.24-.86-.1-1.29c.23-.7.87-1.17 1.61-1.17.18 0 .35.03.52.08l17.7 5.87c.05.02.1.03.16.03.14 0 .28-.06.38-.17l9.62-10.94 1.85 4.77c-1.19 1.41-7.55 8.94-7.75 9.17-.47.53-1.5.85-2.83.85z" style="fill:#504f4f"/><radialGradient id="d" cx="44.128" cy="111.955" r="9.476" gradientTransform="translate(0 .11)" gradientUnits="userSpaceOnUse"><stop offset=".017" style="stop-color:#afb8b6"/><stop offset=".183" style="stop-color:#a4aead"/><stop offset=".475" style="stop-color:#869295"/><stop offset=".857" style="stop-color:#57656f"/><stop offset="1" style="stop-color:#43535f"/></radialGradient><path d="M47.55 123.11c-3.76 0-6.82-3.06-6.82-6.82s3.06-6.82 6.82-6.82 6.82 3.06 6.82 6.82-3.06 6.82-6.82 6.82z" style="fill:url(#d)"/><path d="M47.55 119.21c-1.61 0-2.92-1.31-2.92-2.92s1.31-2.92 2.92-2.92 2.92 1.31 2.92 2.92-1.31 2.92-2.92 2.92z" style="fill:#282323"/><path d="M47.55 113.88c1.33 0 2.42 1.08 2.42 2.42s-1.08 2.42-2.42 2.42-2.42-1.08-2.42-2.42 1.09-2.42 2.42-2.42m0-1c-1.89 0-3.42 1.53-3.42 3.42s1.53 3.42 3.42 3.42 3.42-1.53 3.42-3.42-1.53-3.42-3.42-3.42z" style="fill:#504f4f"/><path d="M47.56 117.5c-.76 0-1.38-.62-1.38-1.38V99.5h2.75v16.63c.01.76-.61 1.37-1.37 1.37z" style="fill:#43535f"/><linearGradient id="e" x1="50.453" x2="50.453" y1="98.596" y2="106.335" gradientTransform="translate(0 .11)" gradientUnits="userSpaceOnUse"><stop offset=".351" style="stop-color:#b80000"/><stop offset=".52" style="stop-color:#ad0000"/><stop offset=".817" style="stop-color:#8f0000"/><stop offset="1" style="stop-color:#7a0000"/></linearGradient><path d="M47.25 106.54c-1.57 0-2.85-1.28-2.85-2.85v-1.4c0-.77.32-1.52.88-2.06l8.5-8.14 2.72 14.44-9.25.01z" style="fill:url(#e)"/><g style="opacity:.2"><radialGradient id="f" cx="53.848" cy="99.2" r="5.445" gradientTransform="translate(0 .11)" gradientUnits="userSpaceOnUse"><stop offset=".15" style="stop-color:#2f2829"/><stop offset=".574" style="stop-color:#241e1f"/><stop offset="1" style="stop-color:#141111"/></radialGradient><path d="m54.09 106.54-2.91-11.96 2.61-2.5 2.72 14.46z" style="fill:url(#f)"/><path d="m53.46 93.08 2.44 12.94h-1.42l-2.75-11.29 1.73-1.65" style="fill:#141111"/></g><radialGradient id="g" cx="96.318" cy="111.955" r="9.476" gradientTransform="translate(0 .11)" gradientUnits="userSpaceOnUse"><stop offset=".017" style="stop-color:#afb8b6"/><stop offset=".183" style="stop-color:#a4aead"/><stop offset=".475" style="stop-color:#869295"/><stop offset=".857" style="stop-color:#57656f"/><stop offset="1" style="stop-color:#43535f"/></radialGradient><circle cx="99.74" cy="116.29" r="6.82" style="fill:url(#g)"/><circle cx="99.74" cy="116.29" r="2.92" style="fill:#282323"/><path d="M99.74 113.88c1.33 0 2.42 1.08 2.42 2.42s-1.08 2.42-2.42 2.42-2.42-1.08-2.42-2.42 1.09-2.42 2.42-2.42m0-1c-1.89 0-3.42 1.53-3.42 3.42s1.53 3.42 3.42 3.42 3.42-1.53 3.42-3.42-1.53-3.42-3.42-3.42z" style="fill:#504f4f"/><linearGradient id="h" x1="85.333" x2="99.243" y1="103.415" y2="103.415" gradientTransform="translate(0 .11)" gradientUnits="userSpaceOnUse"><stop offset=".158" style="stop-color:#655c5a"/><stop offset=".335" style="stop-color:#5a5250"/><stop offset=".646" style="stop-color:#3d3736"/><stop offset="1" style="stop-color:#141111"/></linearGradient><path d="M85.33 100.78h13.91v5.5H85.33z" style="fill:url(#h)"/><linearGradient id="i" x1="69.523" x2="69.523" y1="83.335" y2="66.035" gradientTransform="translate(0 .11)" gradientUnits="userSpaceOnUse"><stop offset="0" style="stop-color:#6d6c6b"/><stop offset="1" style="stop-color:#444343"/></linearGradient><path d="M68.42 85.89c-.73-.96-2.49-3.92-2.49-10.13 0-6.22 1.77-9.18 2.5-10.14l4.47 1.95c-.68 1.05-1.97 3.64-1.97 8.19 0 4.52 1.4 6.96 2.18 7.96l-4.69 2.17z" style="fill:url(#i)"/><linearGradient id="j" x1="71.443" x2="71.443" y1="107.595" y2="90.634" gradientTransform="translate(0 .11)" gradientUnits="userSpaceOnUse"><stop offset="0" style="stop-color:#cb0a05"/><stop offset=".271" style="stop-color:#f31612"/><stop offset=".892" style="stop-color:#f31612"/><stop offset=".956" style="stop-color:#d80e09"/><stop offset="1" style="stop-color:#cb0a05"/></linearGradient><path d="M58.28 109.04c-2.27 0-2.8-1.33-3.14-4.31l-2.15-15.06h36.9l-2.14 15.04c-.34 2.99-.88 4.32-3.14 4.32l-26.33.01z" style="fill:url(#j)"/><g style="opacity:.2"><radialGradient id="k" cx="71.443" cy="90.318" r="13.057" gradientTransform="translate(0 .11)" gradientUnits="userSpaceOnUse"><stop offset=".15" style="stop-color:#2f2829"/><stop offset=".574" style="stop-color:#241e1f"/><stop offset="1" style="stop-color:#141111"/></radialGradient><path d="m53.21 91.18-.22-1.5h36.9l-.22 1.5z" style="fill:url(#k)"/></g><linearGradient id="l" x1="71.499" x2="71.499" y1="83.529" y2="90.295" gradientTransform="translate(0 .11)" gradientUnits="userSpaceOnUse"><stop offset=".358" style="stop-color:#212121;stop-opacity:0"/><stop offset="1" style="stop-color:#bfbebe"/></linearGradient><path d="M53.01 89.94a1.47 1.47 0 0 1-1.46-1.49l.08-4.61c.01-.79.66-1.44 1.46-1.45l38.16-.19.19 5.44c.02.64-.22 1.25-.67 1.72s-1.05.72-1.7.72l-36.06-.14z" style="opacity:.5;fill:url(#l);enable-background:new"/><linearGradient id="m" x1="71.448" x2="71.448" y1="92.965" y2="104.675" gradientTransform="translate(0 .11)" gradientUnits="userSpaceOnUse"><stop offset=".533" style="stop-color:#9f0b00"/><stop offset=".976" style="stop-color:#9f0b00;stop-opacity:0"/></linearGradient><path d="M57.11 104.79h28.67s-.88-11.71-13.93-11.71-14.74 11.71-14.74 11.71z" style="fill:url(#m)"/><radialGradient id="n" cx="66.368" cy="100.105" r="17.005" gradientTransform="translate(0 .11)" gradientUnits="userSpaceOnUse"><stop offset=".017" style="stop-color:#afb8b6"/><stop offset=".183" style="stop-color:#a4aead"/><stop offset=".475" style="stop-color:#869295"/><stop offset=".857" style="stop-color:#57656f"/><stop offset="1" style="stop-color:#43535f"/></radialGradient><path d="M71.44 122.61c-7.07 0-12.82-5.75-12.82-12.82s5.75-12.82 12.82-12.82 12.82 5.75 12.82 12.82-5.75 12.82-12.82 12.82z" style="fill:url(#n)"/><path d="M71.44 115.72c-3.42 0-6.2-2.78-6.2-6.2s2.78-6.2 6.2-6.2 6.2 2.78 6.2 6.2-2.78 6.2-6.2 6.2z" style="fill:#afb8b6"/><path d="M71.44 103.82c3.15 0 5.7 2.56 5.7 5.7 0 3.15-2.56 5.7-5.7 5.7s-5.7-2.56-5.7-5.7 2.56-5.7 5.7-5.7m0-1a6.7 6.7 0 1 0 0 13.4 6.7 6.7 0 0 0 0-13.4z" style="fill:#2f3b4b"/><path d="M71.44 111.5c-1.09 0-1.99-.89-1.99-1.98s.89-1.98 1.99-1.98c1.09 0 1.98.89 1.98 1.98s-.88 1.98-1.98 1.98z" style="fill:#2f2829"/><path d="M71.44 108.04c.82 0 1.48.67 1.48 1.48s-.67 1.48-1.48 1.48-1.48-.67-1.48-1.48.66-1.48 1.48-1.48m0-1a2.48 2.48 0 1 0 2.48 2.48 2.467 2.467 0 0 0-2.48-2.48z" style="fill:#141111"/><path d="M99.74 117.5c-.76 0-1.38-.62-1.38-1.38V99.5h2.75v16.63c.01.76-.61 1.37-1.37 1.37z" style="fill:#43535f"/><path d="m55.34 65.66-.1-.86c-.1-.83-.05-1.94.38-2.66.09-.15.16-.33.21-.52.21-.93-.38-1.84-1.31-2.05s-1.84.38-2.05 1.31c-.12.56.03 1.1.39 1.51.58.66.72 1.31.83 2.18l.09.76c.03.22.49.52.7.56.05.01.1.02.16.01.3-.02.73.03.7-.24z" style="fill:#504f4f"/><path d="m59.22 63.42-1.72 1.79h-6.92l-6.6-3.42c-.37-.19-1.5.39-.53 1.2l7.65 5.43c.45.32 1 .49 1.55.49h2.45c1.54 0 2.35-.84 3.17-2.16.31-.51.94-1.76.94-1.76l.01-1.57z" style="fill:#504f4f"/><radialGradient id="o" cx="38.855" cy="-27.985" r="5.596" gradientTransform="matrix(1.6234 .3557 -.1877 .8569 25.716 42.002)" gradientUnits="userSpaceOnUse"><stop offset=".017" style="stop-color:#afb8b6"/><stop offset=".183" style="stop-color:#a4aead"/><stop offset=".475" style="stop-color:#869295"/><stop offset=".857" style="stop-color:#57656f"/><stop offset="1" style="stop-color:#43535f"/></radialGradient><path d="m90.73 42.38 3.36-15.37 2.99.65-3.37 15.36z" style="fill:url(#o)"/><ellipse cx="99.74" cy="99.5" rx="1.37" ry=".55" style="fill:#504f4f"/><linearGradient id="p" x1="90.741" x2="100.668" y1="24.256" y2="25.779" gradientTransform="translate(0 .11)" gradientUnits="userSpaceOnUse"><stop offset=".406" style="stop-color:#212121;stop-opacity:0"/><stop offset="1" style="stop-color:#bfbebe"/></linearGradient><path d="M96.5 34.13c-.14 0-.28-.01-.42-.03l-3.79-.59c-.72-.11-1.35-.5-1.77-1.08-.43-.59-.6-1.3-.49-2.02l1.89-12.05a2.693 2.693 0 0 1 2.68-2.29c.14 0 .28.01.42.03l3.79.59c1.48.23 2.49 1.62 2.26 3.1l-1.89 12.05a2.734 2.734 0 0 1-2.68 2.29z" style="opacity:.5;fill:url(#p);enable-background:new"/><linearGradient id="q" x1="83.721" x2="94.465" y1="70.758" y2="69.362" gradientTransform="matrix(1 0 0 -1 0 130)" gradientUnits="userSpaceOnUse"><stop offset=".426" style="stop-color:#212121;stop-opacity:0"/><stop offset="1" style="stop-color:#bfbebe"/></linearGradient><path d="M89.49 84c-.12 0-.25-.01-.38-.03-3.71-.62-9.85-2.86-9.34-10.85.7-11.05 4.83-24.6 8.16-32.85.99-2.46 2.67-3.87 4.6-3.87 1.09 0 2.12.47 2.9 1.32.97 1.06 1.43 2.58 1.29 4.28-.6 7.3-3.69 30.43-4.99 40.04A2.28 2.28 0 0 1 89.49 84z" style="opacity:.5;fill:url(#q);enable-background:new"/><linearGradient id="r" x1="59.512" x2="110.352" y1="64.885" y2="64.885" gradientTransform="translate(0 .11)" gradientUnits="userSpaceOnUse"><stop offset="0" style="stop-color:#504f4f"/><stop offset="1" style="stop-color:#141111"/></linearGradient><path d="M62.67 67.54c-3.23-.17-3.72-.7-3.84-2.58-.17-2.58 1.39-2.92 3.77-3.15l.47-.05c1.2-.13 3.13-.19 5.73-.19 5.8 0 13.04.33 13.11.33 1.66 0 2.81.36 3.46 1.07.54.59.77 1.48.67 2.64-.16 1.86-1.96 2.8-5.35 2.8l-18.02-.87z" style="fill:url(#r)"/><linearGradient id="s" x1="101.392" x2="86.88" y1="103.603" y2="106.813" gradientTransform="matrix(1 0 0 -1 0 130)" gradientUnits="userSpaceOnUse"><stop offset="0" style="stop-color:#504f4f"/><stop offset="1" style="stop-color:#141111"/></linearGradient><path d="M96.5 34.13c-.14 0-.28-.01-.42-.03l-3.79-.59c-.72-.11-1.35-.5-1.77-1.08-.43-.59-.6-1.3-.49-2.02l1.89-12.05a2.693 2.693 0 0 1 2.68-2.29c.14 0 .28.01.42.03l3.79.59c1.48.23 2.49 1.62 2.26 3.1l-1.89 12.05a2.734 2.734 0 0 1-2.68 2.29z" style="fill:url(#s)"/><linearGradient id="t" x1="71.499" x2="71.499" y1="79.702" y2="88.74" gradientTransform="translate(0 .11)" gradientUnits="userSpaceOnUse"><stop offset="0" style="stop-color:#504f4f"/><stop offset="1" style="stop-color:#141111"/></linearGradient><path d="M53.01 89.94a1.47 1.47 0 0 1-1.46-1.49l.08-4.61c.01-.79.66-1.44 1.46-1.45l38.16-.19.19 5.44c.02.64-.22 1.25-.67 1.72s-1.05.72-1.7.72l-36.06-.14z" style="fill:url(#t)"/><linearGradient id="u" x1="93.783" x2="79.272" y1="69.199" y2="72.408" gradientTransform="matrix(1 0 0 -1 0 130)" gradientUnits="userSpaceOnUse"><stop offset="0" style="stop-color:#504f4f"/><stop offset="1" style="stop-color:#141111"/></linearGradient><path d="M89.49 84c-.12 0-.25-.01-.38-.03-3.71-.62-9.85-2.86-9.34-10.85.7-11.05 4.83-24.6 8.16-32.85.99-2.46 2.67-3.87 4.6-3.87 1.09 0 2.12.47 2.9 1.32.97 1.06 1.43 2.58 1.29 4.28-.6 7.3-3.69 30.43-4.99 40.04A2.28 2.28 0 0 1 89.49 84z" style="fill:url(#u)"/><radialGradient id="v" cx="59.523" cy="70.311" r="22.787" gradientTransform="matrix(1 0 0 -1 0 130)" gradientUnits="userSpaceOnUse"><stop offset=".5" style="stop-color:#a56c43"/><stop offset="1" style="stop-color:#8d5738"/></radialGradient><path d="M84 49.15c.12-.3.2-.49.2-.49l-1.26-.24c-.35-.21-.64-.38-.64-.38l-7.95-1.49c-.01 0 .58.34.58.35l-2.99 7.38L63 56.46s-1.69.23-2.67.33-5.22-.91-5.22-.91c-.65-.11-1.57.06-2.06.5 0 0-1.94 1.51-4.63 3.35-1.45 1-.4 2.9 1.08 2.28 1.22-.5 3.98-1.83 3.98-1.83l2.15.5s1.03 1.55 3.48 1.67c.52.03 1.32-.18 1.87-.33l12.21-.33c5.31 0 6.05-1.51 7.06-3.54.72-1.45 2.93-6.93 3.68-8.82.21.02.2-.05.07-.18z" style="fill:url(#v)"/><path d="m86.42 44.82-3.63 9.04-.69-.28-8.59-3.45-.89-.36 3.63-9.04a5.475 5.475 0 0 1 5.08-3.44c.69 0 1.38.13 2.05.4a5.479 5.479 0 0 1 3.04 7.13z" style="fill:#3615af"/><path d="m92.19 38.01.15-.21c.07-.1.13-.19.19-.3.05-.08.09-.15.13-.23.06-.1.11-.21.16-.31.04-.08.08-.16.11-.24.05-.11.09-.22.13-.33l.09-.24c.04-.12.07-.23.11-.35l.06-.23c.03-.13.06-.26.08-.4.01-.06.03-.13.04-.19.03-.2.05-.4.07-.59.02-.29.01-.56-.01-.84-.01-.12-.02-.24-.04-.36l-.06-.36c-.36-1.9-1.51-3.38-2.28-4.17 0 0 .02.03.05.07-.53-.57-.94-.89-.94-.89l-.77 1.5c-.2-.13-.32-.03-.32-.03s1.94 3.82-3.19 4.32c-.32.03-.67.04-1.02.04h-1.52c-.16 0-.33.01-.49.02-.05 0-.1.01-.14.01l-.39.03c-.05.01-.1.01-.14.01-.17.02-.34.04-.52.07-.02 0-.05.01-.07.01-.15.03-.3.06-.45.1-.05.01-.11.03-.16.04-.14.04-.27.08-.41.13-.04.01-.09.03-.13.04-.18.06-.35.14-.53.22l-.12.06c-.14.07-.28.15-.42.23-.05.03-.11.06-.16.1-.15.09-.3.2-.45.31l-.09.06c-.18.13-.35.29-.53.45-.05.04-.09.09-.14.13-.14.13-.27.27-.4.42-.05.06-.1.11-.15.17-.18.2-.35.41-.53.65-1.59 2.13-2.38 5.09-2.38 5.09s1.32-1.97 5.76-2.28c.26-.02.51-.03.75-.03h.03c.38 0 .75.03 1.12.06.05.01.1.01.15.01.35.04.7.09 1.05.15.07.01.15.02.22.04.36.06.73.13 1.1.19.39.07.79.14 1.21.2.36.05.71.07 1.05.08.04 0 .08.01.12.01.09 0 .18-.01.26-.01.11 0 .21-.01.32-.02.14-.01.29-.03.43-.05.1-.01.19-.03.29-.04.14-.03.28-.06.42-.1l.25-.06c.16-.05.31-.11.45-.17.06-.02.12-.04.17-.06.2-.09.39-.18.58-.29.04-.02.07-.05.11-.07.15-.09.29-.18.43-.28.06-.04.12-.09.18-.14.11-.08.21-.17.31-.26l.18-.18c.09-.09.18-.17.26-.26.06-.06.11-.13.17-.2.07-.06.14-.16.21-.25z" style="fill:#3c2c23"/><radialGradient id="w" cx="87.885" cy="94.171" r="12.168" gradientTransform="matrix(1 0 0 -1 0 130)" gradientUnits="userSpaceOnUse"><stop offset=".526" style="stop-color:#554138;stop-opacity:0"/><stop offset="1" style="stop-color:#554138"/></radialGradient><path d="m92.19 38.01.15-.21c.07-.1.13-.19.19-.3.05-.08.09-.15.13-.23.06-.1.11-.21.16-.31.04-.08.08-.16.11-.24.05-.11.09-.22.13-.33l.09-.24c.04-.12.07-.23.11-.35l.06-.23c.03-.13.06-.26.08-.4.01-.06.03-.13.04-.19.03-.2.05-.4.07-.59.02-.29.01-.56-.01-.84-.01-.12-.02-.24-.04-.36l-.06-.36c-.36-1.9-1.51-3.38-2.28-4.17 0 0 .02.03.05.07-.53-.57-.94-.89-.94-.89l-.77 1.5c-.2-.13-.32-.03-.32-.03s1.94 3.82-3.19 4.32c-.32.03-.67.04-1.02.04h-1.52c-.16 0-.33.01-.49.02-.05 0-.1.01-.14.01l-.39.03c-.05.01-.1.01-.14.01-.17.02-.34.04-.52.07-.02 0-.05.01-.07.01-.15.03-.3.06-.45.1-.05.01-.11.03-.16.04-.14.04-.27.08-.41.13-.04.01-.09.03-.13.04-.18.06-.35.14-.53.22l-.12.06c-.14.07-.28.15-.42.23-.05.03-.11.06-.16.1-.15.09-.3.2-.45.31l-.09.06c-.18.13-.35.29-.53.45-.05.04-.09.09-.14.13-.14.13-.27.27-.4.42-.05.06-.1.11-.15.17-.18.2-.35.41-.53.65-1.59 2.13-2.38 5.09-2.38 5.09s1.32-1.97 5.76-2.28c.26-.02.51-.03.75-.03h.03c.38 0 .75.03 1.12.06.05.01.1.01.15.01.35.04.7.09 1.05.15.07.01.15.02.22.04.36.06.73.13 1.1.19.39.07.79.14 1.21.2.36.05.71.07 1.05.08.04 0 .08.01.12.01.09 0 .18-.01.26-.01.11 0 .21-.01.32-.02.14-.01.29-.03.43-.05.1-.01.19-.03.29-.04.14-.03.28-.06.42-.1l.25-.06c.16-.05.31-.11.45-.17.06-.02.12-.04.17-.06.2-.09.39-.18.58-.29.04-.02.07-.05.11-.07.15-.09.29-.18.43-.28.06-.04.12-.09.18-.14.11-.08.21-.17.31-.26l.18-.18c.09-.09.18-.17.26-.26.06-.06.11-.13.17-.2.07-.06.14-.16.21-.25z" style="fill:url(#w)"/></svg>