<svg xmlns="http://www.w3.org/2000/svg" xmlns:xlink="http://www.w3.org/1999/xlink" viewBox="0 0 128 128"><defs><path id="a" d="M19.67 0H111v54.67H19.67z"/></defs><clipPath id="b"><use xlink:href="#a"/></clipPath><g clip-path="url(#b)"><path fill="#81D4FA" d="m64.13 69.43 32.21-47.6-.34-.01v-.02L81.57 4h-34.7L31 21.77v.02l.36.04 32.38 47.4.26.24.08-.03L64 69l.13.43z"/><linearGradient id="c" x1="31.752" x2="96.669" y1="36.984" y2="36.984" gradientUnits="userSpaceOnUse"><stop offset=".001" stop-color="#81D4FA"/><stop offset="1" stop-color="#29B6F6"/></linearGradient><path fill="url(#c)" d="M64.1 69.47 31.75 21.83 46.87 4.5h34.7l15.1 17.33z"/><path fill="none" d="m64.21 4.47-.03.03h.06z"/><linearGradient id="d" x1="63.993" x2="63.993" y1="69.446" y2="21.81" gradientUnits="userSpaceOnUse"><stop offset="0" stop-color="#81D4FA"/><stop offset=".221" stop-color="#7DD3FA"/><stop offset=".431" stop-color="#72CFF9"/><stop offset=".638" stop-color="#5EC8F8"/><stop offset=".841" stop-color="#44BFF7"/><stop offset="1" stop-color="#29B6F6"/></linearGradient><path fill="url(#d)" d="m64.09 69.45 12.89-47.64-25.97.02z"/><path fill="#81D4FA" d="M76.98 21.81h.21l-.16-.21z"/><linearGradient id="e" x1="79.776" x2="79.776" y1="69.455" y2="21.808" gradientUnits="userSpaceOnUse"><stop offset="0" stop-color="#039BE5"/><stop offset=".369" stop-color="#0398E2"/><stop offset=".638" stop-color="#0390D9"/><stop offset=".874" stop-color="#0282C9"/><stop offset="1" stop-color="#0277BD"/></linearGradient><path fill="url(#e)" d="m96 21.82-19.38-.01-13.07 47.65L96 21.83z"/><linearGradient id="f" x1="47.92" x2="47.92" y1="69.455" y2="21.791" gradientUnits="userSpaceOnUse"><stop offset="0" stop-color="#29B6F6"/><stop offset=".331" stop-color="#25B3F4"/><stop offset=".646" stop-color="#1AABEF"/><stop offset=".954" stop-color="#079EE7"/><stop offset="1" stop-color="#039BE5"/></linearGradient><path fill="url(#f)" d="m51.13 22.13-.47.63.47-.63-.09-.33-19.26-.01-.03.04 32.34 47.63z"/><linearGradient id="g" x1="45.517" x2="41.329" y1="5.255" y2="22.007" gradientUnits="userSpaceOnUse"><stop offset=".005" stop-color="#B3E5FC"/><stop offset="1" stop-color="#4FC3F7"/></linearGradient><path fill="url(#g)" d="M51.2 21.81 46.87 4.52 31.55 21.83z"/><linearGradient id="h" x1="86.902" x2="86.902" y1="6.123" y2="22.365" gradientUnits="userSpaceOnUse"><stop offset=".009" stop-color="#81D4FA"/><stop offset="1" stop-color="#29B6F6"/></linearGradient><path fill="url(#h)" d="m77.07 21.81 4.34-17.29 15.32 17.31z"/><linearGradient id="i" x1="64.017" x2="64.017" y1="6.14" y2="21.846" gradientUnits="userSpaceOnUse"><stop offset="0" stop-color="#E1F5FE"/><stop offset=".275" stop-color="#D3F0FD"/><stop offset="1" stop-color="#B3E5FC"/></linearGradient><path fill="url(#i)" d="M51.06 22 64.07 4.68 76.98 22z"/><linearGradient id="j" x1="55.467" x2="55.467" y1="4.727" y2="22.535" gradientUnits="userSpaceOnUse"><stop offset=".009" stop-color="#81D4FA"/><stop offset="1" stop-color="#29B6F6"/></linearGradient><path fill="url(#j)" d="M64.21 4.49 51.2 21.83 46.72 4.47z"/><linearGradient id="k" x1="64.067" x2="81.554" y1="13.149" y2="13.149" gradientUnits="userSpaceOnUse"><stop offset=".011" stop-color="#4FC3F7"/><stop offset="1" stop-color="#29B6F6"/></linearGradient><path fill="url(#k)" d="m64.07 4.49 13 17.34 4.48-17.36z"/><path fill="#424242" d="m80.21 7.47 12.72 14.55-28.84 42.12-28.63-42.12L48.23 7.47h31.98m1.36-3h-34.7l-15.18 17.3v.02l.01.04 32.38 47.64L96.7 21.83l.03-.01v-.02L81.57 4.47z" opacity=".2"/></g><linearGradient id="l" x1="63.839" x2="63.839" y1="44.667" y2="118.01" gradientUnits="userSpaceOnUse"><stop offset="0" stop-color="#CFD8DC"/><stop offset=".797" stop-color="#90A4AE"/></linearGradient><path fill="url(#l)" d="M83.12 55.51c0-.08-.12-.16-.12-.25v-.39c0-2.66-1.88-4.87-4.54-4.87H50.23C47.57 50 45 52.22 45 54.87v.25c-11 6.42-18.3 18.39-18.3 32.1 0 20.49 16.71 37.11 37.21 37.11s37.08-16.61 37.08-37.11c-.01-13.43-7.17-25.2-17.87-31.71zM64 113.86c-14.69 0-26.61-11.64-26.61-26s11.91-26 26.61-26 26.61 11.64 26.61 26-11.92 26-26.61 26z"/><path fill="#424242" d="M78.46 53c1.01 0 1.54.94 1.54 1.87v.39c0 .56.15 1.1.44 1.59.25.49.63.92 1.12 1.22 10.28 6.26 16.42 17.16 16.42 29.15 0 18.81-15.29 34.11-34.08 34.11-18.86 0-34.21-15.3-34.21-34.11 0-12.15 6.44-23.45 16.82-29.51.92-.54 1.49-1.52 1.49-2.59v-.25c0-.91 1.15-1.87 2.23-1.87h28.23M64 116.86c16.32 0 29.61-13.01 29.61-29s-13.28-29-29.61-29c-16.32 0-29.61 13.01-29.61 29s13.29 29 29.61 29M78.46 50H50.23C47.57 50 45 52.22 45 54.87v.25c-11 6.42-18.3 18.39-18.3 32.1 0 20.49 16.71 37.11 37.21 37.11s37.08-16.61 37.08-37.11c0-13.44-7.17-25.2-17.86-31.71 0-.08-.12-.16-.12-.25v-.39C83 52.22 81.12 50 78.46 50zM64 113.86c-14.69 0-26.61-11.64-26.61-26s11.91-26 26.61-26c14.69 0 26.61 11.64 26.61 26s-11.92 26-26.61 26z" opacity=".2"/></svg>