<svg xmlns="http://www.w3.org/2000/svg" viewBox="0 0 128 128"><linearGradient id="a" x1="14.353" x2="14.353" y1="3.25" y2="36.159" gradientTransform="matrix(-1 0 0 1 128 0)" gradientUnits="userSpaceOnUse"><stop offset="0" stop-color="#E1F5FE"/><stop offset="1" stop-color="#81D4FA"/></linearGradient><path fill="url(#a)" d="m103.29 20.9 13.93-14.1c.09-.09.19-.16.29-.21l4.84-2.45c1.15-.58 2.21.92 1.31 1.84L106.1 23.75l-2.81-2.85z"/><path fill="#424242" d="M121.05 6.47 106.1 21.61l-.7-.71 12.84-13.01 2.81-1.42M122.87 4c-.17 0-.34.04-.52.13l-4.84 2.45c-.11.06-.21.13-.29.21L103.29 20.9l2.81 2.85 17.55-17.78c.78-.78.13-1.97-.78-1.97z" opacity=".2"/><linearGradient id="b" x1="105.18" x2="105.18" y1="81" y2="107.84" gradientTransform="matrix(-1 0 0 1 128 0)" gradientUnits="userSpaceOnUse"><stop offset="0" stop-color="#E1F5FE"/><stop offset="1" stop-color="#81D4FA"/></linearGradient><path fill="url(#b)" d="m35.13 99.92-7.02-7.12-17.6 17.83 7.03 7.11z"/><linearGradient id="c" x1="20.856" x2="20.856" y1="-5.997" y2="21.728" gradientTransform="matrix(-1 0 0 1 120.15 21.251)" gradientUnits="userSpaceOnUse"><stop offset="0" stop-color="#E1F5FE"/><stop offset="1" stop-color="#81D4FA"/></linearGradient><path fill="url(#c)" d="m109.62 21.61-4.22-4.27c-.78-.79-2.03-.79-2.81 0L88.38 31.68l7.03 7.12 14.21-14.33c.77-.79.77-2.07 0-2.86z"/><path fill="#424242" d="m103.99 20.19 2.81 2.84-11.39 11.49-2.81-2.84 11.39-11.49m.01-3.44c-.51 0-1.02.2-1.41.59L88.38 31.68l7.03 7.12 14.21-14.33c.78-.79.78-2.06 0-2.85l-4.22-4.27c-.39-.4-.9-.6-1.4-.6zM33.95 91.16 36.76 94l-19.23 19.47-2.81-2.85 19.23-19.46m0-4.28-23.44 23.74 7.03 7.12L40.98 94l-7.03-7.12z" opacity=".2"/><linearGradient id="d" x1="82.048" x2="82.048" y1="51.25" y2="121.83" gradientTransform="matrix(-1 0 0 1 128 0)" gradientUnits="userSpaceOnUse"><stop offset="0" stop-color="#E1F5FE"/><stop offset="1" stop-color="#81D4FA"/></linearGradient><path fill="url(#d)" d="M42.75 104.74c-.79.8-2.05.81-2.83.02L23.05 87.68c-.78-.79-.77-2.07.02-2.87l26.68-27.03 19.67 19.93-26.67 27.03z"/><linearGradient id="e" x1="49.243" x2="49.243" y1="36" y2="62.922" gradientTransform="matrix(-1 0 0 1 128 0)" gradientUnits="userSpaceOnUse"><stop offset=".005" stop-color="#EF5350"/><stop offset="1" stop-color="#E53935"/></linearGradient><path fill="url(#e)" d="m49.75 57.78 37.74-38.23c.79-.8 2.05-.81 2.83-.02l16.86 17.08c.78.79.77 2.07-.02 2.87L69.43 77.71 49.75 57.78z"/><linearGradient id="f" x1="111.32" x2="111.32" y1="100.25" y2="127.5" gradientTransform="matrix(-1 0 0 1 128 0)" gradientUnits="userSpaceOnUse"><stop offset="0" stop-color="#81D4FA"/><stop offset="1" stop-color="#29B6F6"/></linearGradient><path fill="url(#f)" d="M28.87 116.16 11.74 98.8c-.78-.79-2.21-.61-3.19.39l-3.68 3.72c-.99 1-1.16 2.45-.38 3.23l17.14 17.37c.78.79 2.21.61 3.19-.39l3.68-3.72c.98-1 1.15-2.45.37-3.24z"/><path fill="#C5CAE9" d="m60.43 74.29-25.3 25.63-7.02-7.12L53.4 67.17l-6.46-6.54 2.81-2.85 19.68 19.93-2.81 2.85z" opacity=".3"/><path fill="#424242" d="m10.33 101.65 15.73 15.94-3.04 3.07L7.3 104.72l3.03-3.07m.16-3.35c-.65 0-1.37.3-1.94.88l-3.68 3.72c-.99 1-1.16 2.45-.38 3.23l17.14 17.37c.33.33.77.49 1.25.49.65 0 1.37-.3 1.94-.88l3.68-3.72c.99-1 1.16-2.45.38-3.23L11.74 98.8c-.33-.34-.77-.5-1.25-.5z" opacity=".2"/><path fill="#eee" d="m66.51 60.73-9.85-9.98-1.41 1.43 9.86 9.97zm-1.4-9.96-4.23-4.29-1.41 1.42 4.23 4.29zm9.85 1.42-9.86-9.98-1.4 1.42 9.85 9.98zm-1.41-9.97-4.23-4.28-1.4 1.42 4.23 4.29zm9.85 1.43-9.86-9.98-1.4 1.42L82 45.07zm-1.41-9.97-4.23-4.28-1.4 1.42 4.23 4.28zm9.85 1.42-9.86-9.97-1.4 1.42 9.86 9.98zm-1.4-9.96-4.23-4.28-1.41 1.42 4.23 4.28z" opacity=".7"/><path fill="#424242" d="m88.91 22.38 15.46 15.66L67.29 75.6l-25.97 26.31-15.46-15.66 26.03-26.37 37.02-37.5m.01-3.43c-.52 0-1.04.2-1.43.6L49.75 57.78 23.07 84.81c-.79.8-.8 2.08-.02 2.87l16.86 17.08c.38.39.89.58 1.4.58.52 0 1.04-.2 1.43-.6l26.68-27.03 37.74-38.23c.79-.8.8-2.08.02-2.87L90.32 19.53c-.38-.39-.89-.58-1.4-.58z" opacity=".2"/><linearGradient id="g" x1="96.155" x2="96.155" y1="73.5" y2="109.53" gradientTransform="matrix(-1 0 0 1 128 0)" gradientUnits="userSpaceOnUse"><stop offset="0" stop-color="#E1F5FE"/><stop offset="1" stop-color="#81D4FA"/></linearGradient><path fill="url(#g)" d="M46.42 103.04 24.7 81.06c-1.77-1.79-6.06-.37-7.83 1.42a1.46 1.46 0 0 0 0 2.05l26.12 26.43c.56.56 1.46.56 2.02 0 1.78-1.79 3.18-6.13 1.41-7.92z"/><path fill="#424242" d="M22.34 83.23c.16 0 .26.02.31.03l21.55 21.81c.13.43-.06 1.46-.46 2.39L20.31 83.75c.66-.3 1.41-.52 2.03-.52m0-3c-1.94 0-4.27 1.04-5.47 2.25a1.46 1.46 0 0 0 0 2.05l26.12 26.43c.28.28.65.42 1.01.42s.73-.14 1.01-.42c1.77-1.79 3.18-6.13 1.41-7.92L24.7 81.06c-.58-.58-1.42-.83-2.36-.83z" opacity=".2"/></svg>