<svg xmlns="http://www.w3.org/2000/svg" style="enable-background:new 0 0 128 128" viewBox="0 0 128 128" xml:space="preserve"><linearGradient id="a" x1="55.428" x2="104.988" y1="84.305" y2="84.305" gradientTransform="matrix(1 0 0 -1 0 128)" gradientUnits="userSpaceOnUse"><stop offset=".178" style="stop-color:#e0e0e0"/><stop offset=".755" style="stop-color:#9e9e9e"/></linearGradient><path d="m55.43 47.28 38.43.24c2.52.02 4.73-1.31 5.97-3.31l5.13.03.03-4.11-4.11-.03-37.94-.24c-4.12-.02-7.49 3.3-7.51 7.42z" style="fill:url(#a)"/><path d="M100.86 40.12h4.11v4.11h-4.11z" style="fill:#dd5322" transform="rotate(-89.639 102.918 42.17)"/><path d="M113.48 32.39c2.78-.08 5.33.93 7.31 2.9 5.59 5.57 2.72 15.48-5.01 17.15-7.67 1.66-14.42-5.97-11.77-13.38 1.4-3.91 5.34-6.55 9.47-6.67zm.29 15.84c3.19-.09 5.74-2.87 5.56-6.05-.17-3.08-2.82-5.49-5.89-5.42-3.13.07-5.66 2.78-5.57 5.9.09 3.13 2.77 5.66 5.9 5.57z" style="fill:#dd5322"/><path d="M100.19 55.25c-2.58 2.25-6.16 3.86-9.43 3.82l-9.04-13.66c4.82-.05 7.8-.07 7.8-.07 2.29 2.32 3.78 3.2 6.31 3.65.14-.78.62-1.5 1.99-1.24 3.87.75 5.18-.25 5.18-.25s.45 4.9-2.81 7.75z" style="fill:#543930"/><path d="M82.15 80.28c-1.25-2.27.34-4.58 3.06-7.44 4.31-4.54 9-15.07 4.64-25.76.03-.06-.86-1.86-.83-1.92l-1.79-.09c-.57-.08-20.26-.12-39.97-.12s-39.4.04-39.97.12c0 0-2.65 1.95-2.63 2.01C.3 57.77 4.99 68.3 9.3 72.84c2.71 2.86 4.3 5.17 3.06 7.44-1.21 2.21-4.81 2.53-4.81 2.53s.83 2.26 2.83 3.48c1.85 1.13 4.13 1.39 5.7 1.43 0 0 6.15 8.51 22.23 8.51h17.9c16.08 0 22.23-8.51 22.23-8.51 1.57-.04 3.85-.3 5.7-1.43 2-1.22 2.83-3.48 2.83-3.48s-3.61-.32-4.82-2.53z" style="fill:#543930"/><radialGradient id="b" cx="116.388" cy="45.415" r="23.419" gradientTransform="matrix(1 0 0 .4912 -54.555 60.277)" gradientUnits="userSpaceOnUse"><stop offset=".728" style="stop-color:#6d4c41;stop-opacity:0"/><stop offset="1" style="stop-color:#6d4c41"/></radialGradient><path d="M47.24 96.23v-9.44l28.57-2.26 2.6 3.2s-6.15 8.51-22.23 8.51l-8.94-.01z" style="fill:url(#b)"/><radialGradient id="c" cx="93.323" cy="48.897" r="6.921" gradientTransform="matrix(-.9057 .4238 -.3144 -.6719 184.798 72.403)" gradientUnits="userSpaceOnUse"><stop offset=".663" style="stop-color:#6d4c41"/><stop offset="1" style="stop-color:#6d4c41;stop-opacity:0"/></radialGradient><path d="M78.35 83.6c-4.28-6.5 5.21-8.93 5.21-8.93l.01.01c-1.65 2.05-2.4 3.84-1.43 5.61 1.21 2.21 4.81 2.53 4.81 2.53s-4.91 4.35-8.6.78z" style="fill:url(#c)"/><radialGradient id="d" cx="111.259" cy="68.476" r="30.399" gradientTransform="matrix(-.0746 -.9972 .8311 -.0622 18.355 174.733)" gradientUnits="userSpaceOnUse"><stop offset=".725" style="stop-color:#6d4c41;stop-opacity:0"/><stop offset="1" style="stop-color:#6d4c41"/></radialGradient><path d="M89.87 47.08c4.25 10.35-.22 21.01-4.41 25.51-.57.62-3.01 3.01-3.57 4.92 0 0-9.54-13.31-12.39-21.13-.57-1.58-1.1-3.2-1.17-4.88-.05-1.26.14-2.76.87-3.83.89-1.31 20.16-1.7 20.16-1.7 0 .02.51 1.11.51 1.11z" style="fill:url(#d)"/><radialGradient id="e" cx="27.56" cy="68.476" r="30.399" gradientTransform="matrix(.0746 -.9972 -.8311 -.0622 82.413 91.267)" gradientUnits="userSpaceOnUse"><stop offset=".725" style="stop-color:#6d4c41;stop-opacity:0"/><stop offset="1" style="stop-color:#6d4c41"/></radialGradient><path d="M4.65 47.08c-4.24 10.36.23 21.01 4.41 25.51.57.62 3.01 3.01 3.57 4.92 0 0 9.54-13.31 12.39-21.13.58-1.58 1.1-3.2 1.17-4.88.05-1.26-.14-2.76-.87-3.83-.89-1.31-1.93-.96-3.44-.96-2.88 0-15.49-.74-16.47-.74.01.02-.76 1.11-.76 1.11z" style="fill:url(#e)"/><radialGradient id="f" cx="32.689" cy="45.415" r="23.419" gradientTransform="matrix(-1 0 0 .4912 65.378 60.277)" gradientUnits="userSpaceOnUse"><stop offset=".728" style="stop-color:#6d4c41;stop-opacity:0"/><stop offset="1" style="stop-color:#6d4c41"/></radialGradient><path d="M47.28 96.23v-9.44l-28.57-2.26-2.6 3.2s6.15 8.51 22.23 8.51l8.94-.01z" style="fill:url(#f)"/><radialGradient id="g" cx="9.624" cy="48.897" r="6.921" gradientTransform="matrix(.9057 .4238 .3144 -.6719 -14.466 107.876)" gradientUnits="userSpaceOnUse"><stop offset=".663" style="stop-color:#6d4c41"/><stop offset="1" style="stop-color:#6d4c41;stop-opacity:0"/></radialGradient><path d="M16.17 83.6c4.28-6.5-5.21-8.93-5.21-8.93l-.01.01c1.65 2.05 2.4 3.84 1.43 5.61-1.21 2.21-4.81 2.53-4.81 2.53s4.91 4.35 8.6.78z" style="fill:url(#g)"/><radialGradient id="h" cx="-255.556" cy="160.968" r="6.921" gradientTransform="matrix(-.5577 1.2336 -1.2538 -.4596 154.995 434.471)" gradientUnits="userSpaceOnUse"><stop offset=".663" style="stop-color:#6d4c41"/><stop offset="1" style="stop-color:#6d4c41;stop-opacity:0"/></radialGradient><path d="M93.5 55.7c-13.65-3.38-5.18-14.13-5.18-14.13h.02c.64 3.64 2.41 5.67 5.53 6.67 3.32 1.06 9.13-.74 9.13-.74s-.35 8.92-9.5 8.2z" style="fill:url(#h)"/><linearGradient id="i" x1="51.567" x2="51.567" y1="32.482" y2=".805" gradientTransform="matrix(1 0 0 -1 0 128)" gradientUnits="userSpaceOnUse"><stop offset="0" style="stop-color:#f78c1f"/><stop offset=".482" style="stop-color:#f47f12"/><stop offset="1" style="stop-color:#ef6c00"/></linearGradient><path d="M47.27 96h-.13c-16.4.02-33.22 3.04-43.13 9.92V124h95.13v-2.94C99.13 104.3 72.87 96 47.27 96z" style="fill:url(#i)"/><path d="M38.05 90.08v9.98c0 4.51 3.72 8.17 9.08 8.17s9.08-3.66 9.08-8.17v-9.98H38.05zm36.53-39.65H19.92c-5.89 0-10.71 5.14-10.71 11.41s4.82 11.41 10.71 11.41h54.65c5.89 0 10.71-5.14 10.71-11.41s-4.81-11.41-10.7-11.41z" style="fill:#99674f"/><path d="M47.25 11.07c-17.4 0-33.52 18.61-33.52 45.4 0 26.64 16.61 39.81 33.52 39.81S80.77 83.1 80.77 56.46c0-26.78-16.12-45.39-33.52-45.39z" style="fill:#ba8d68"/><path d="M55.67 76.14c-3.19 1.89-13.63 1.89-16.81 0-1.83-1.09-3.7.58-2.94 2.24.75 1.63 6.44 5.42 11.37 5.42s10.55-3.79 11.3-5.42c.75-1.66-1.09-3.33-2.92-2.24z" style="fill:#5d4037"/><path d="M51.11 68.06c-.11-.04-.21-.07-.32-.08h-7.08c-.11.01-.22.04-.32.08-.64.26-.99.92-.69 1.63.3.71 1.71 2.69 4.55 2.69s4.25-1.99 4.55-2.69c.3-.71-.05-1.37-.69-1.63z" style="fill:#99674f"/><ellipse cx="30.81" cy="58.81" rx="4.93" ry="5.1" style="fill:#49362e"/><ellipse cx="63.69" cy="58.81" rx="4.93" ry="5.1" style="fill:#49362e"/><path d="M38.24 49.82c-.93-1.23-3.07-3.01-7.23-3.01s-6.31 1.79-7.23 3.01c-.41.54-.31 1.17-.02 1.55.26.35 1.04.68 1.9.39.86-.29 2.54-1.16 5.35-1.18 2.81.02 4.49.89 5.35 1.18.86.29 1.64-.03 1.9-.39.28-.38.38-1.01-.02-1.55zm32.49 0c-.93-1.23-3.07-3.01-7.23-3.01s-6.31 1.79-7.23 3.01c-.41.54-.31 1.17-.02 1.55.26.35 1.04.68 1.9.39s2.54-1.16 5.35-1.18c2.81.02 4.49.89 5.35 1.18.86.29 1.64-.03 1.9-.39.29-.38.39-1.01-.02-1.55z" style="fill:#613e31"/><linearGradient id="j" x1="96.491" x2="96.491" y1="97.205" y2="48.868" gradientTransform="matrix(1 0 0 -1 0 128)" gradientUnits="userSpaceOnUse"><stop offset="0" style="stop-color:#9e9e9e"/><stop offset="1" style="stop-color:#e0e0e0"/></linearGradient><path d="m96.07 30.8.01 5.13c-2 1.23-3.35 3.43-3.34 5.95l.06 38.43c4.12-.01 7.46-3.35 7.45-7.47l-.06-37.94-.01-4.11-4.11.01z" style="fill:url(#j)"/><path d="M96.07 30.8h4.11v4.11h-4.11z" style="fill:#dd5322" transform="translate(-.052 .157)"/><path d="M105.1 15.04c2.02 1.91 3.19 4.6 3.19 7.39 0 8.11-8.94 12.84-15.6 8.63-6.61-4.18-6.11-14.3.93-17.76 3.77-1.85 8.43-1.14 11.48 1.74zM94.18 26.62c3.59 3.39 9.68.75 9.68-4.18 0-4.09-4.35-6.9-8.08-5.23-3.68 1.64-4.53 6.64-1.6 9.41z" style="fill:#dd5322"/><circle cx="96.55" cy="43.04" r="1.65" style="fill:#6e6e6e"/><path d="M87.32 25.55c-2.44-3.69-7.91-8.64-12.82-8.97-.79-4.72-5.84-8.72-10.73-10.27-13.23-4.19-21.84.5-26.46 3.03-.96.52-7.17 3.97-11.51 1.5-2.72-1.55-2.67-5.74-2.67-5.74s-8.52 3.25-5.61 12.3c-2.93.12-6.77 1.36-8.8 5.47-2.42 4.9-1.56 8.99-.86 10.95-2.52 2.14-5.69 6.69-3.52 12.6 1.64 4.45 8.17 6.5 8.17 6.5-.46 8.01 1.03 12.94 1.82 14.94.14.35.63.32.72-.04.99-3.97 4.36-17.8 4.03-20.21 0 0 11.34-2.25 22.17-10.22 2.2-1.62 4.59-3 7.13-4.01 13.59-5.41 16.43 3.82 16.43 3.82s9.42-1.81 12.26 11.27c1.07 4.9 1.79 12.75 2.4 18.24.04.39.57.47.72.11.95-2.18 2.85-6.5 3.3-10.91.16-1.55 4.34-3.6 6.14-10.26 2.41-8.9-.54-17.43-2.31-20.1z" style="fill:#543930"/><radialGradient id="k" cx="65.269" cy="84.511" r="35.633" gradientTransform="matrix(.3076 .9515 .706 -.2282 -14.474 .669)" gradientUnits="userSpaceOnUse"><stop offset=".699" style="stop-color:#6d4c41;stop-opacity:0"/><stop offset="1" style="stop-color:#6d4c41"/></radialGradient><path d="M83.47 55.94c.16-1.55 4.34-3.6 6.14-10.26.19-.71.35-1.43.5-2.15 1.46-8.09-1.16-15.52-2.79-17.98-2.26-3.41-7.1-7.89-11.69-8.81-.4-.05-.79-.1-1.16-.12 0 0 .33 2.15-.54 3.86-1.12 2.22-3.41 2.75-3.41 2.75C82.49 35.2 81.64 45.22 83.47 55.94z" style="fill:url(#k)"/><radialGradient id="l" cx="30.53" cy="123.365" r="9.343" gradientTransform="matrix(.8813 .4726 .5603 -1.045 -65.497 119.124)" gradientUnits="userSpaceOnUse"><stop offset=".58" style="stop-color:#6d4c41"/><stop offset="1" style="stop-color:#6d4c41;stop-opacity:0"/></radialGradient><path d="M40.2 7.83c-1.1.53-2.06 1.06-2.9 1.51-.96.52-7.17 3.97-11.51 1.5-2.67-1.52-2.67-5.58-2.67-5.72-1.23 1.57-4.95 12.78 5.93 13.53 4.69.32 7.58-3.77 9.3-7.23.62-1.27 1.59-3.1 1.85-3.59z" style="fill:url(#l)"/><radialGradient id="m" cx="167.061" cy="48.036" r="28.721" gradientTransform="matrix(-.9378 -.3944 -.2182 .5285 218.563 62.105)" gradientUnits="userSpaceOnUse"><stop offset=".699" style="stop-color:#6d4c41;stop-opacity:0"/><stop offset="1" style="stop-color:#6d4c41"/></radialGradient><path d="M62.41 5.9c7.32 1.98 10.89 5.71 12.08 10.68.35 1.46.77 15.08-25.23-.4-9.67-5.76-7.03-9.36-5.9-9.77 4.42-1.59 10.85-2.73 19.05-.51z" style="fill:url(#m)"/><radialGradient id="n" cx="26.779" cy="114.841" r="8.575" gradientTransform="matrix(1 0 0 -1.2233 0 153.644)" gradientUnits="userSpaceOnUse"><stop offset=".702" style="stop-color:#6d4c41;stop-opacity:0"/><stop offset="1" style="stop-color:#6d4c41"/></radialGradient><path d="M23.09 5.11c-.01.01-.03.01-.06.03-.93.39-8.24 3.78-5.51 12.26l7.78 1.25C18.41 11.66 23.12 5.1 23.12 5.1s-.02.01-.03.01z" style="fill:url(#n)"/><radialGradient id="o" cx="25.599" cy="99.704" r="16.083" gradientTransform="matrix(-.9657 -.2598 -.2432 .9037 74.568 -55.156)" gradientUnits="userSpaceOnUse"><stop offset=".66" style="stop-color:#6d4c41;stop-opacity:0"/><stop offset="1" style="stop-color:#6d4c41"/></radialGradient><path d="m22.32 18.17-4.81-.77c-.19 0-.83.06-1.18.11-2.71.38-5.9 1.78-7.63 5.36-1.86 3.86-1.81 7.17-1.3 9.38.14.74.45 1.58.45 1.58s2.38-2.26 8.05-2.41l6.42-13.25z" style="fill:url(#o)"/><radialGradient id="p" cx="21.783" cy="84.174" r="16.886" gradientTransform="matrix(.9907 .1363 .1915 -1.3921 -15.915 158.035)" gradientUnits="userSpaceOnUse"><stop offset=".598" style="stop-color:#6d4c41;stop-opacity:0"/><stop offset="1" style="stop-color:#6d4c41"/></radialGradient><path d="M7.62 34.01c-2.37 2.1-5.56 6.79-3.21 12.61 1.78 4.39 8.09 6.29 8.09 6.29 0 .02 1.26.4 1.91.4l1.48-21.9c-3.03 0-5.94.91-7.82 2.22.03.04-.46.35-.45.38z" style="fill:url(#p)"/></svg>