<svg xmlns="http://www.w3.org/2000/svg" viewBox="0 0 128 128"><linearGradient id="a" x1="64" x2="64" y1="721.394" y2="797.642" gradientTransform="translate(0 -714)" gradientUnits="userSpaceOnUse"><stop offset=".344" stop-color="#e53935"/><stop offset=".998" stop-color="#c62828"/></linearGradient><path fill="url(#a)" d="M40 104V34c0-13.2 4.8-30 18-30s30 16.8 30 30v70c0 13.2-48 13.2-48 0z"/><linearGradient id="b" x1="50.394" x2="78.484" y1="735.272" y2="761.741" gradientTransform="matrix(.9756 .0193 .0193 .9731 -10.422 -705.229)" gradientUnits="userSpaceOnUse"><stop offset=".198" stop-color="#e57373"/><stop offset=".857" stop-color="#ef5350"/></linearGradient><path fill="url(#b)" d="M81.3 38c-3.7 4-13.2 1.1-21.2-6.4s-11.5-16.8-7.7-20.8 13.2-1.1 21.2 6.3S85.1 34 81.3 38z"/><path fill="#424242" d="M58 7c11.6 0 27 15.4 27 27v70c0 3.3-8.4 6.9-21 6.9s-21-3.6-21-6.9V34c0-7 1.4-13.8 3.7-18.7C49.4 9.8 53.2 7 58 7zm0-3C44.8 4 40 20.7 40 34v70c0 6.6 12 9.9 24 9.9s24-3.3 24-9.9V34C88 20.7 71.2 4 58 4z" opacity=".2"/><linearGradient id="c" x1="36" x2="92" y1="808.5" y2="808.5" gradientTransform="translate(0 -714)" gradientUnits="userSpaceOnUse"><stop offset="0" stop-color="#edc139"/><stop offset=".497" stop-color="#ffe596"/><stop offset="1" stop-color="#edc139"/></linearGradient><path fill="url(#c)" d="M92 108H36V85c0-2.2 1.8-4 4-4h48c2.2 0 4 1.8 4 4v23z"/><path fill="#424242" d="M36 101.2h56v15.7H36z" opacity=".3"/><linearGradient id="d" x1="31.682" x2="95.132" y1="13.292" y2="13.292" gradientTransform="matrix(1 0 0 -1 0 127.89)" gradientUnits="userSpaceOnUse"><stop offset=".09" stop-color="#d9b136"/><stop offset=".456" stop-color="#f7d66a"/><stop offset=".83" stop-color="#d9b136"/></linearGradient><path fill="url(#d)" d="M96.1 109.1V124H31.9v-14.8c0-2.2 1.8-4 4-4h56.2c2.2-.1 4 1.7 4 3.9z"/><path fill="#424242" d="M92.1 105L92 85c0-2.2-1.8-4-4-4H40c-2.2 0-4 1.8-4 4v20h-.1c-2.2 0-3.9 1.9-3.9 4.2V124h3v-14.8c0-.6.4-1.2.9-1.2h.1c1.7 0 3-1.3 3-3V85c0-.6.5-1 1-1h48c.5 0 1 .5 1 1v20c0 1.7 1.3 3 3 3h.1c.5 0 .9.5.9 1.2V124h3v-14.8c0-2.3-1.7-4.2-3.9-4.2z" opacity=".2"/></svg>