<svg xmlns="http://www.w3.org/2000/svg" style="enable-background:new 0 0 128 128" viewBox="0 0 128 128" xml:space="preserve"><linearGradient id="a" x1="63.935" x2="63.935" y1="23.85" y2="100.183" gradientTransform="matrix(1 0 0 -1 0 128)" gradientUnits="userSpaceOnUse"><stop offset="0" style="stop-color:#ffca28"/><stop offset="1" style="stop-color:#ffe082"/></linearGradient><path d="M116.27 103.84H11.6c-4.2 0-7.63-3.43-7.63-7.63V35.57c0-4.2 3.43-7.63 7.63-7.63h104.67c4.2 0 7.63 3.43 7.63 7.63v60.64c.01 4.2-3.43 7.63-7.63 7.63z" style="fill:url(#a)"/><path d="M3.96 43.77h119.95v16.07H3.96z" style="fill:#504f4f"/><path d="M114.13 80.03H13.81c-.98 0-1.79-.8-1.79-1.79v-8.41c0-.98.8-1.79 1.79-1.79h100.32c.98 0 1.79.8 1.79 1.79v8.41c0 .98-.81 1.79-1.79 1.79z" style="fill:#fff"/><path d="M26.25 72.01c-1.02.32-1.38 1.7-.93 2.67.46.96 1.48 1.54 2.49 1.86 2.14.66 4.54.42 6.5-.65 2.15-1.18 3.74-3.28 6.02-4.2 3.31-1.33 7.02.17 10.21 1.77s6.69 3.36 10.15 2.51c3.55-.87 6.47-4.4 10.09-3.82 2.13.34 3.74 2.04 5.63 3.09 3.98 2.22 8.95 1.41 13.27-.03 4.32-1.45 8.58-3.48 13.14-3.57" style="fill:none;stroke:#424242;stroke-width:2;stroke-linecap:round;stroke-linejoin:round;stroke-miterlimit:10"/></svg>