<svg xmlns="http://www.w3.org/2000/svg" viewBox="0 0 128 128"><linearGradient id="a" x1="64" x2="64" y1="51.633" y2="123.76" gradientUnits="userSpaceOnUse"><stop offset="0" stop-color="#fff"/><stop offset="1" stop-color="#C8C9CA"/></linearGradient><path fill="url(#a)" d="M113.2 124H14.8c-5.52 0-10-4.48-10-10V28.59c0-5.76 4.67-10.43 10.43-10.43h97.53c5.76 0 10.43 4.67 10.43 10.43V114c.01 5.52-4.47 10-9.99 10z"/><path fill="#1E88E5" d="M123.2 51.88H4.8v-39.8c0-4.42 3.58-8 8-8h102.4c4.42 0 8 3.58 8 8v39.8z"/><path fill="#424242" d="M114.62 7c3.08 0 5.58 2.5 5.58 5.58V113.2c0 4.26-3.46 7.72-7.72 7.72H15.52c-4.26 0-7.72-3.46-7.72-7.72V12.58C7.8 9.5 10.3 7 13.38 7h101.24m0-3H13.38C8.64 4 4.8 7.84 4.8 12.58V113.2c0 5.92 4.8 10.72 10.72 10.72h96.96c5.92 0 10.72-4.8 10.72-10.72V12.58c0-4.74-3.84-8.58-8.58-8.58z" opacity=".2"/><path fill="#9E9E9E" d="M84.21 84.81h-2.79c-.64 0-1.17-.52-1.17-1.17v-2.63c0-.64.52-1.17 1.17-1.17h2.79c.64 0 1.17.52 1.17 1.17v2.63c0 .64-.52 1.17-1.17 1.17zm13.96 0h-2.79c-.64 0-1.17-.52-1.17-1.17v-2.63c0-.64.52-1.17 1.17-1.17h2.79c.64 0 1.17.52 1.17 1.17v2.63c0 .64-.53 1.17-1.17 1.17zm13.96 0h-2.79c-.64 0-1.17-.52-1.17-1.17v-2.63c0-.64.52-1.17 1.17-1.17h2.79c.64 0 1.17.52 1.17 1.17v2.63c-.01.64-.53 1.17-1.17 1.17zM84.21 97.14h-2.79c-.64 0-1.17-.52-1.17-1.17v-2.63c0-.64.52-1.17 1.17-1.17h2.79c.64 0 1.17.52 1.17 1.17v2.63c0 .64-.52 1.17-1.17 1.17zm13.96 0h-2.79c-.64 0-1.17-.52-1.17-1.17v-2.63c0-.64.52-1.17 1.17-1.17h2.79c.64 0 1.17.52 1.17 1.17v2.63c0 .64-.53 1.17-1.17 1.17zm13.96 0h-2.79c-.64 0-1.17-.52-1.17-1.17v-2.63c0-.64.52-1.17 1.17-1.17h2.79c.64 0 1.17.52 1.17 1.17v2.63c-.01.64-.53 1.17-1.17 1.17zm-27.92 12.33h-2.79c-.64 0-1.17-.52-1.17-1.17v-2.63c0-.64.52-1.17 1.17-1.17h2.79c.64 0 1.17.52 1.17 1.17v2.63c0 .64-.52 1.17-1.17 1.17zm13.96 0h-2.79c-.64 0-1.17-.52-1.17-1.17v-2.63c0-.64.52-1.17 1.17-1.17h2.79c.64 0 1.17.52 1.17 1.17v2.63c0 .64-.53 1.17-1.17 1.17zm13.96 0h-2.79c-.64 0-1.17-.52-1.17-1.17v-2.63c0-.64.52-1.17 1.17-1.17h2.79c.64 0 1.17.52 1.17 1.17v2.63c-.01.64-.53 1.17-1.17 1.17z"/><path fill="#fff" d="M44.88 17.3h4.13v13.87c0 1.28-.28 2.4-.85 3.38s-1.36 1.73-2.39 2.26-2.19.8-3.48.8c-2.12 0-3.77-.54-4.96-1.62-1.18-1.08-1.78-2.6-1.78-4.58h4.16c0 .98.21 1.71.62 2.17.41.47 1.06.7 1.95.7.79 0 1.42-.27 1.89-.81s.7-1.31.7-2.31V17.3zM61.2 35.83c-.98 1.19-2.34 1.79-4.07 1.79-1.6 0-2.81-.46-3.65-1.38s-1.27-2.26-1.29-4.03v-9.76h3.98v9.63c0 1.55.71 2.33 2.12 2.33 1.35 0 2.28-.47 2.78-1.41V22.45h3.99v14.89h-3.74l-.12-1.51zm11.06 1.51h-3.99V16.2h3.99v21.14zm8.83-5.63 2.75-9.26h4.27l-5.99 17.21-.33.78c-.89 1.95-2.36 2.92-4.4 2.92-.58 0-1.17-.09-1.76-.26v-3.01l.61.01c.75 0 1.31-.12 1.69-.34.37-.23.66-.61.87-1.14l.47-1.23-5.22-14.93h4.28l2.76 9.25z"/><path fill="#2F2F2F" d="M34.82 110.54h-7.46V81.75l-8.9 2.75v-6.01l15.56-5.57h.8v37.62zm37.75-33.41-14.53 33.41h-7.87l14.56-31.56H46.04v-6.01h26.53v4.16z"/></svg>