<svg xmlns="http://www.w3.org/2000/svg" style="enable-background:new 0 0 128 128" viewBox="0 0 128 128" xml:space="preserve"><path d="M94 4.1 5.2 93.3l29.3 29.4 89.2-89.2z" style="fill:#90a4ae"/><g style="opacity:.2"><path d="m94 8.3 25.4 25.1-84.9 84.9-25.1-25L94 8.3m0-4.2L5.2 93.3l29.4 29.4 89.2-89.2C123.7 33.5 94 4.1 94 4.1z" style="fill:#424242"/></g><linearGradient id="a" x1="25.513" x2="78.162" y1="738.702" y2="791.352" gradientTransform="translate(0 -713.89)" gradientUnits="userSpaceOnUse"><stop offset=".003" style="stop-color:#eee"/><stop offset=".427" style="stop-color:#ececec"/><stop offset=".644" style="stop-color:#e4e4e4"/><stop offset=".813" style="stop-color:#d7d7d7"/><stop offset=".957" style="stop-color:#c4c4c4"/><stop offset="1" style="stop-color:#bdbdbd"/></linearGradient><path d="m13.3 93.3 4.6-4.6 5.3 5.3 4.3-4.3-5.4-5.3 4.3-4.2L37 90.8l4.3-4.2-10.7-10.7 4.3-4.2 5.3 5.3 4.3-4.2-5.4-5.4 4.3-4.2 5.3 5.3 4.2-4.2-5.3-5.3 4.3-4.3 10.6 10.6 3.9-3.9-10.6-10.6 4.2-4.2 5.3 5.3 4.3-4.3-5.3-5.3 4.2-4.2 5.3 5.3 4.3-4.3-5.3-5.3 4.2-4.2 10.6 10.6 4.3-4.2-10.7-10.7 4.3-4.2 5.3 5.3 3.9-3.9-5.3-5.3 4.6-4.6 20.9 20.9-80.4 80.7z" style="fill:url(#a)"/></svg>