<svg xmlns="http://www.w3.org/2000/svg" viewBox="0 0 128 128"><linearGradient id="a" x1="63.934" x2="63.934" y1="58.395" y2="123.98" gradientUnits="userSpaceOnUse"><stop offset="0" stop-color="#757575"/><stop offset=".213" stop-color="#9E9E9E"/><stop offset=".447" stop-color="#C3C3C3"/><stop offset=".663" stop-color="#DFDFDF"/><stop offset=".855" stop-color="#EFEFEF"/><stop offset="1" stop-color="#F5F5F5"/></linearGradient><path fill="url(#a)" d="m67.23 111.29-3.29 12.46-3.29-12.46V58.58c.83 0 2.6.14 3.29.14.83 0 2.6 0 3.29-.14v52.71z"/><radialGradient id="b" cx="54.101" cy="20.788" r="38.832" gradientUnits="userSpaceOnUse"><stop offset=".096" stop-color="#F44336"/><stop offset=".234" stop-color="#EC3E32"/><stop offset=".454" stop-color="#D42F29"/><stop offset=".673" stop-color="#B71C1C"/><stop offset=".967" stop-color="#C62828"/></radialGradient><path fill="url(#b)" d="M91.77 32.09v1.39c-.83 13.78-11.69 25.05-25.47 26.31-.83.14-1.53.14-2.37.14-.83 0-1.53 0-2.23-.14-13.78-1.25-24.64-12.25-25.47-26.31v-1.39c-.14-15.31 12.39-27.84 27.7-27.84s27.84 12.39 27.84 27.84z"/><path fill="#424242" d="M63.86 7.25c13.7 0 24.84 11.14 24.84 24.84v1.3c-.77 12.01-9.97 21.8-21.92 23.29-1.5.19-2.63 1.46-2.63 2.98v51.24l-.29 1.11-.29-1.11V59.64c0-1.51-1.12-2.78-2.62-2.98-11.89-1.53-21.04-11.32-21.79-23.28v-1.33c-.05-6.55 2.48-12.75 7.14-17.45 4.69-4.74 10.93-7.35 17.56-7.35m0-3c-15.31 0-27.84 12.53-27.7 27.84v1.39c.81 13.69 11.14 24.45 24.41 26.16v51.65l3.29 12.46 3.29-12.46V59.66c13.33-1.67 23.73-12.71 24.54-26.18v-1.39C91.7 16.64 79.17 4.25 63.86 4.25z" opacity=".2"/></svg>