<svg xmlns="http://www.w3.org/2000/svg" xmlns:xlink="http://www.w3.org/1999/xlink" viewBox="0 0 128 128"><path fill="#757575" d="M20.47 20.27h92.66v103.74H20.47z"/><linearGradient id="a" x1="68.398" x2="68.398" y1="4.696" y2="111.44" gradientUnits="userSpaceOnUse"><stop offset=".015" stop-color="#FFC107"/><stop offset="1" stop-color="#FFA000"/></linearGradient><path fill="url(#a)" d="M20.47 4.25h95.85v106.92H20.47z"/><g fill="#FFE082"><path d="M95.17 21.56H49.08c-1.02 0-1.71.7-1.71 1.75v26.24c0 1.05.68 1.75 1.71 1.75h46.09c1.02 0 1.71-.7 1.71-1.75V23.3c-.01-1.05-.69-1.74-1.71-1.74zM93.46 47.8H50.79V25.05h42.67V47.8z"/><path d="M64.44 35.55H79.8c1.02 0 1.71-.7 1.71-1.75s-.68-1.75-1.71-1.75H64.44c-1.02 0-1.71.7-1.71 1.75s.69 1.75 1.71 1.75zm-5.12 7h25.6c1.02 0 1.71-.7 1.71-1.75s-.68-1.75-1.71-1.75h-25.6c-1.02 0-1.71.7-1.71 1.75s.69 1.75 1.71 1.75z"/></g><linearGradient id="b" x1="23.585" x2="108.85" y1="115.99" y2="115.99" gradientUnits="userSpaceOnUse"><stop offset=".009" stop-color="#BDBDBD"/><stop offset="1" stop-color="#fff"/></linearGradient><path fill="url(#b)" d="M23.59 111.17h85.27v9.62H23.59z"/><defs><path id="c" d="M20.47 4.25h95.85v106.92H20.47z"/></defs><clipPath id="d"><use xlink:href="#c"/></clipPath><path fill="#757575" d="M14.76-.03h12.83v128.31H14.76z" clip-path="url(#d)"/><path fill="#757575" d="M29.65 20.27H14.08c-1.26 0-2.29-1.03-2.29-2.29v-.32c0-1.26 1.03-2.29 2.29-2.29h15.57c1.26 0 2.29 1.03 2.29 2.29v.32c0 1.26-1.03 2.29-2.29 2.29zm0 13.75H14.08c-1.26 0-2.29-1.03-2.29-2.29v-.32c0-1.26 1.03-2.29 2.29-2.29h15.57c1.26 0 2.29 1.03 2.29 2.29v.32c0 1.25-1.03 2.29-2.29 2.29zm0 13.74H14.08c-1.26 0-2.29-1.03-2.29-2.29v-.32c0-1.26 1.03-2.29 2.29-2.29h15.57c1.26 0 2.29 1.03 2.29 2.29v.32c0 1.26-1.03 2.29-2.29 2.29zm0 13.75H14.08c-1.26 0-2.29-1.03-2.29-2.29v-.32c0-1.26 1.03-2.29 2.29-2.29h15.57c1.26 0 2.29 1.03 2.29 2.29v.32c0 1.26-1.03 2.29-2.29 2.29zm0 13.74H14.08c-1.26 0-2.29-1.03-2.29-2.29v-.32c0-1.26 1.03-2.29 2.29-2.29h15.57c1.26 0 2.29 1.03 2.29 2.29v.32c0 1.26-1.03 2.29-2.29 2.29zm0 13.75H14.08c-1.26 0-2.29-1.03-2.29-2.29v-.32c0-1.26 1.03-2.29 2.29-2.29h15.57c1.26 0 2.29 1.03 2.29 2.29v.32c0 1.26-1.03 2.29-2.29 2.29zm0 13.75H14.08c-1.26 0-2.29-1.03-2.29-2.29v-.32c0-1.26 1.03-2.29 2.29-2.29h15.57c1.26 0 2.29 1.03 2.29 2.29v.32c0 1.26-1.03 2.29-2.29 2.29z"/><path fill="#424242" d="M113.21 7.25v100.92h-.2c-1.66 0-3 1.34-3 3V121H23.36v-18.26c0-1.01-.5-1.91-1.27-2.45.77-.54 1.27-1.44 1.27-2.45V89c0-1.01-.5-1.91-1.27-2.45.77-.54 1.27-1.44 1.27-2.45v-8.85c0-1.01-.5-1.91-1.27-2.45.77-.54 1.27-1.44 1.27-2.45V61.5c0-1.01-.5-1.91-1.27-2.45.77-.54 1.27-1.44 1.27-2.45v-8.85c0-1.01-.5-1.91-1.27-2.45.77-.54 1.27-1.44 1.27-2.45V34c0-1.01-.5-1.91-1.27-2.45.77-.54 1.27-1.44 1.27-2.45v-8.85c0-1.01-.5-1.91-1.27-2.45.77-.54 1.27-1.44 1.27-2.45v-8.1h89.85m3-3H20.36v11.12h-6.23c-1.35 0-2.45 1.1-2.45 2.45s1.1 2.45 2.45 2.45h6.23v8.85h-6.23c-1.35 0-2.45 1.1-2.45 2.45s1.1 2.45 2.45 2.45h6.23v8.85h-6.23c-1.35 0-2.45 1.1-2.45 2.45s1.1 2.45 2.45 2.45h6.23v8.85h-6.23c-1.35 0-2.45 1.1-2.45 2.45s1.1 2.45 2.45 2.45h6.23v8.85h-6.23c-1.35 0-2.45 1.1-2.45 2.45s1.1 2.45 2.45 2.45h6.23v8.85h-6.23c-1.35 0-2.45 1.1-2.45 2.45S12.78 89 14.12 89h6.23v8.85h-6.23c-1.35 0-2.45 1.1-2.45 2.45s1.1 2.45 2.45 2.45h6.23v21.26h92.66v-12.83h3.2V4.25z" opacity=".2"/></svg>