<svg xmlns="http://www.w3.org/2000/svg" style="enable-background:new 0 0 128 128" viewBox="0 0 128 128" xml:space="preserve"><path d="m104.03 24.06-80.02-.13c-11.05 0-19.97 8.92-19.97 19.97v39.94c0 11.05 8.92 19.97 19.97 19.97l80.02.13c11.05 0 19.97-8.92 19.97-19.97V44.03c0-11.05-8.92-19.97-19.97-19.97z" style="fill:#504f4f"/><path d="M117.34 68.66c0 7.59-6.39 13.71-14.11 13.71H24.94c-7.86 0-14.11-6.12-14.11-13.71v-20.9c0-7.59 6.39-13.71 14.11-13.71h78.29c7.86 0 14.11 6.12 14.11 13.71v20.9z" style="fill:#212121"/><path d="M103.23 38.91c0-1.73-1.41-3.14-3.14-3.14H24.94c-6.92 0-12.52 5.46-12.52 11.98v20.9c0 6.66 5.59 11.98 12.52 11.98h75.15c1.73 0 3.14-1.41 3.14-3.14V38.91zm.6-3.14c1.12.7 1.62 1.59 1.62 3.99v17.58h9.95v-9.59c.01-5.59-5.25-10.65-11.57-11.98zm0 44.87c1.12-.7 1.62-1.59 1.62-3.99V59.07h9.95v9.59c.01 5.59-5.25 10.65-11.57 11.98z" style="fill:#353535"/><path d="m107.91 53.47 1.98-7.41c.15-.55.92-.55 1.07 0l1.98 7.41c.09.35-.17.7-.54.7h-3.97c-.35 0-.61-.35-.52-.7zm.54 8.78h3.97c.36 0 .63.35.54.7l-1.98 7.41c-.15.55-.92.55-1.07 0l-1.98-7.41c-.11-.35.15-.7.52-.7zm-9.37 34.34h-6.17c-2.75 0-4.91-2.16-4.91-4.91s2.16-4.91 4.91-4.91h6.17c2.75 0 4.91 2.16 4.91 4.91-.01 2.55-2.17 4.91-4.91 4.91zm-20.07 0h-6.17c-2.75 0-4.91-2.16-4.91-4.91s2.16-4.91 4.91-4.91h6.17c2.75 0 4.91 2.16 4.91 4.91 0 2.55-2.16 4.91-4.91 4.91zm-19.92 0h-6.17c-2.75 0-4.91-2.16-4.91-4.91s2.16-4.91 4.91-4.91h6.17c2.75 0 4.91 2.16 4.91 4.91 0 2.55-2.16 4.91-4.91 4.91z" style="fill:#fafafa"/><linearGradient id="a" x1="60.755" x2="60.755" y1="55.64" y2="83.94" gradientTransform="matrix(1 0 0 -1 0 128)" gradientUnits="userSpaceOnUse"><stop offset=".003" style="stop-color:#7cb342"/><stop offset="1" style="stop-color:#558b2f"/></linearGradient><path d="M100.7 69.03c0 1.86-1.46 3.33-3.33 3.33H24.14c-1.86 0-3.33-1.46-3.33-3.33V47.39c0-1.86 1.46-3.33 3.33-3.33h73.23c1.86 0 3.33 1.46 3.33 3.33v21.64z" style="fill:url(#a)"/><path d="m30.73 55.84-1.43 1.43c-.22.22-.58.22-.8 0l-1.43-1.43a.56.56 0 0 1-.17-.4v-3.98c0-.15.06-.29.17-.4l1.43-1.43c.22-.22.58-.22.8 0l1.43 1.43c.11.11.17.25.17.4v3.98c-.01.15-.07.29-.17.4z" style="opacity:.1;enable-background:new"/><path d="m41.16 55.84-1.43 1.43c-.22.22-.58.22-.8 0l-1.43-1.43a.56.56 0 0 1-.17-.4v-3.98c0-.15.06-.29.17-.4l1.43-1.43c.22-.22.58-.22.8 0l1.43 1.43c.11.11.17.25.17.4v3.98c0 .15-.06.29-.17.4z" style="opacity:.5;enable-background:new"/><path d="m30.73 65.36-1.43 1.43c-.22.22-.58.22-.8 0l-1.43-1.43a.56.56 0 0 1-.17-.4v-3.98c0-.15.06-.29.17-.4l1.43-1.43c.22-.22.58-.22.8 0l1.43 1.43c.11.11.17.25.17.4v3.98c-.01.15-.07.29-.17.4z" style="opacity:.1;enable-background:new"/><path d="m41.16 65.36-1.43 1.43c-.22.22-.58.22-.8 0l-1.43-1.43a.56.56 0 0 1-.17-.4v-3.98c0-.15.06-.29.17-.4l1.43-1.43c.22-.22.58-.22.8 0l1.43 1.43c.11.11.17.25.17.4v3.98c0 .15-.06.29-.17.4z" style="opacity:.5;enable-background:new"/><path d="m31.73 50.52-1.43-1.43a.567.567 0 0 1 0-.8l1.43-1.43a.56.56 0 0 1 .4-.17h3.99c.15 0 .29.06.4.17l1.43 1.43c.22.22.22.58 0 .8l-1.43 1.43a.56.56 0 0 1-.4.17h-3.99a.634.634 0 0 1-.4-.17zm0 9.52-1.43-1.43a.567.567 0 0 1 0-.8l1.43-1.43a.56.56 0 0 1 .4-.17h3.99c.15 0 .29.06.4.17l1.43 1.43c.22.22.22.58 0 .8l-1.43 1.43a.56.56 0 0 1-.4.17h-3.99a.634.634 0 0 1-.4-.17zm0 9.52-1.43-1.43a.567.567 0 0 1 0-.8l1.43-1.43a.56.56 0 0 1 .4-.17h3.99c.15 0 .29.06.4.17l1.43 1.43c.22.22.22.58 0 .8l-1.43 1.43a.56.56 0 0 1-.4.17h-3.99a.634.634 0 0 1-.4-.17z" style="opacity:.1;enable-background:new"/><path d="m48.49 55.84-1.43 1.43c-.22.22-.58.22-.8 0l-1.43-1.43a.56.56 0 0 1-.17-.4v-3.98c0-.15.06-.29.17-.4l1.43-1.43c.22-.22.58-.22.8 0l1.43 1.43c.11.11.17.25.17.4v3.98c0 .15-.06.29-.17.4zm10.43 0-1.43 1.43c-.22.22-.58.22-.8 0l-1.43-1.43a.56.56 0 0 1-.17-.4v-3.98c0-.15.06-.29.17-.4l1.43-1.43c.22-.22.58-.22.8 0l1.43 1.43c.11.11.17.25.17.4v3.98c0 .15-.06.29-.17.4z" style="opacity:.5;enable-background:new"/><path d="m48.49 65.36-1.43 1.43c-.22.22-.58.22-.8 0l-1.43-1.43a.56.56 0 0 1-.17-.4v-3.98c0-.15.06-.29.17-.4l1.43-1.43c.22-.22.58-.22.8 0l1.43 1.43c.11.11.17.25.17.4v3.98c0 .15-.06.29-.17.4z" style="opacity:.1;enable-background:new"/><path d="m58.92 65.36-1.43 1.43c-.22.22-.58.22-.8 0l-1.43-1.43a.56.56 0 0 1-.17-.4v-3.98c0-.15.06-.29.17-.4l1.43-1.43c.22-.22.58-.22.8 0l1.43 1.43c.11.11.17.25.17.4v3.98c0 .15-.06.29-.17.4zm-9.43-14.84-1.43-1.43a.567.567 0 0 1 0-.8l1.43-1.43a.56.56 0 0 1 .4-.17h3.99c.15 0 .29.06.4.17l1.43 1.43c.22.22.22.58 0 .8l-1.43 1.43a.56.56 0 0 1-.4.17h-3.99a.658.658 0 0 1-.4-.17zm0 9.52-1.43-1.43a.567.567 0 0 1 0-.8l1.43-1.43a.56.56 0 0 1 .4-.17h3.99c.15 0 .29.06.4.17l1.43 1.43c.22.22.22.58 0 .8l-1.43 1.43a.56.56 0 0 1-.4.17h-3.99a.658.658 0 0 1-.4-.17zm0 9.52-1.43-1.43a.567.567 0 0 1 0-.8l1.43-1.43a.56.56 0 0 1 .4-.17h3.99c.15 0 .29.06.4.17l1.43 1.43c.22.22.22.58 0 .8l-1.43 1.43a.56.56 0 0 1-.4.17h-3.99a.658.658 0 0 1-.4-.17zm16.76-13.72-1.43 1.43c-.22.22-.58.22-.8 0l-1.43-1.43a.56.56 0 0 1-.17-.4v-3.98c0-.15.06-.29.17-.4l1.43-1.43c.22-.22.58-.22.8 0l1.43 1.43c.11.11.17.25.17.4v3.98c0 .15-.06.29-.17.4zm10.44 0-1.43 1.43c-.22.22-.58.22-.8 0l-1.43-1.43a.56.56 0 0 1-.17-.4v-3.98c0-.15.06-.29.17-.4l1.43-1.43c.22-.22.58-.22.8 0l1.43 1.43c.11.11.17.25.17.4v3.98c-.01.15-.07.29-.17.4z" style="opacity:.5;enable-background:new"/><path d="m66.25 65.36-1.43 1.43c-.22.22-.58.22-.8 0l-1.43-1.43a.56.56 0 0 1-.17-.4v-3.98c0-.15.06-.29.17-.4l1.43-1.43c.22-.22.58-.22.8 0l1.43 1.43c.11.11.17.25.17.4v3.98c0 .15-.06.29-.17.4z" style="opacity:.1;enable-background:new"/><path d="m76.69 65.36-1.43 1.43c-.22.22-.58.22-.8 0l-1.43-1.43a.56.56 0 0 1-.17-.4v-3.98c0-.15.06-.29.17-.4l1.43-1.43c.22-.22.58-.22.8 0l1.43 1.43c.11.11.17.25.17.4v3.98c-.01.15-.07.29-.17.4zm-9.44-14.84-1.43-1.43a.567.567 0 0 1 0-.8l1.43-1.43a.56.56 0 0 1 .4-.17h3.99c.15 0 .29.06.4.17l1.43 1.43c.22.22.22.58 0 .8l-1.43 1.43a.56.56 0 0 1-.4.17h-3.99a.658.658 0 0 1-.4-.17zm0 9.52-1.43-1.43a.567.567 0 0 1 0-.8l1.43-1.43a.56.56 0 0 1 .4-.17h3.99c.15 0 .29.06.4.17l1.43 1.43c.22.22.22.58 0 .8l-1.43 1.43a.56.56 0 0 1-.4.17h-3.99a.658.658 0 0 1-.4-.17zm0 9.52-1.43-1.43a.567.567 0 0 1 0-.8l1.43-1.43a.56.56 0 0 1 .4-.17h3.99c.15 0 .29.06.4.17l1.43 1.43c.22.22.22.58 0 .8l-1.43 1.43a.56.56 0 0 1-.4.17h-3.99a.658.658 0 0 1-.4-.17zm16.77-13.72-1.43 1.43c-.22.22-.58.22-.8 0l-1.43-1.43a.56.56 0 0 1-.17-.4v-3.98c0-.15.06-.29.17-.4l1.43-1.43c.22-.22.58-.22.8 0l1.43 1.43c.11.11.17.25.17.4v3.98c-.01.15-.07.29-.17.4zm10.43 0-1.43 1.43c-.22.22-.58.22-.8 0l-1.43-1.43a.56.56 0 0 1-.17-.4v-3.98c0-.15.06-.29.17-.4l1.43-1.43c.22-.22.58-.22.8 0l1.43 1.43c.11.11.17.25.17.4v3.98c0 .15-.06.29-.17.4zm-10.43 9.52-1.43 1.43c-.22.22-.58.22-.8 0l-1.43-1.43a.56.56 0 0 1-.17-.4v-3.98c0-.15.06-.29.17-.4l1.43-1.43c.22-.22.58-.22.8 0l1.43 1.43c.11.11.17.25.17.4v3.98c-.01.15-.07.29-.17.4zm10.43 0-1.43 1.43c-.22.22-.58.22-.8 0l-1.43-1.43a.56.56 0 0 1-.17-.4v-3.98c0-.15.06-.29.17-.4l1.43-1.43c.22-.22.58-.22.8 0l1.43 1.43c.11.11.17.25.17.4v3.98c0 .15-.06.29-.17.4zm-9.43-14.84-1.43-1.43a.567.567 0 0 1 0-.8l1.43-1.43a.56.56 0 0 1 .4-.17h3.99c.15 0 .29.06.4.17l1.43 1.43c.22.22.22.58 0 .8l-1.43 1.43a.56.56 0 0 1-.4.17h-3.99a.634.634 0 0 1-.4-.17zm0 9.52-1.43-1.43a.567.567 0 0 1 0-.8l1.43-1.43a.56.56 0 0 1 .4-.17h3.99c.15 0 .29.06.4.17l1.43 1.43c.22.22.22.58 0 .8l-1.43 1.43a.56.56 0 0 1-.4.17h-3.99a.634.634 0 0 1-.4-.17zm0 9.52-1.43-1.43a.567.567 0 0 1 0-.8l1.43-1.43a.56.56 0 0 1 .4-.17h3.99c.15 0 .29.06.4.17l1.43 1.43c.22.22.22.58 0 .8l-1.43 1.43a.56.56 0 0 1-.4.17h-3.99a.634.634 0 0 1-.4-.17z" style="opacity:.5;enable-background:new"/></svg>