<svg xmlns="http://www.w3.org/2000/svg" xmlns:xlink="http://www.w3.org/1999/xlink" viewBox="0 0 128 128"><path fill="#424242" d="M108.82 124H21.97c-3.31 0-6-2.69-6-6V26.05c0-3.31 2.69-6 6-6h86.85V124z"/><path fill="#fff" d="M112.03 111.14H21.97c-3.31 0-6-2.69-6-6V10c0-3.31 2.69-6 6-6h90.05v107.14z"/><path fill="#9E9E9E" d="M112.03 4H22.4c-3.55 0-6.43 2.88-6.43 6.43v107.14c0 3.55 2.88 6.43 6.43 6.43h86.42v-12.86h3.2V4z"/><path fill="#424242" d="M109.03 7v101.14h-.2c-1.66 0-3 1.34-3 3V121H22.4c-1.89 0-3.43-1.54-3.43-3.43V10.43C18.97 8.54 20.51 7 22.4 7h86.63m3-3H22.4c-3.55 0-6.43 2.88-6.43 6.43v107.14c0 3.55 2.88 6.43 6.43 6.43h86.42v-12.86h3.2V4h.01z" opacity=".2"/><path fill="#E3E3E3" d="M83.84 47.64H51.38a5.15 5.15 0 0 1-5.15-5.15V30a5.15 5.15 0 0 1 5.15-5.15h32.46A5.15 5.15 0 0 1 88.99 30v12.49c0 2.84-2.31 5.15-5.15 5.15z"/><defs><path id="a" d="M112.03 4H22.4c-3.55 0-6.43 2.88-6.43 6.43v107.14c0 3.55 2.88 6.43 6.43 6.43h86.42v-12.86h3.2V4z"/></defs><clipPath id="b"><use xlink:href="#a"/></clipPath><path fill="#424242" d="M12.39.43h17.5v132.14h-17.5z" clip-path="url(#b)"/><linearGradient id="c" x1="19.096" x2="104.54" y1="115.96" y2="115.96" gradientUnits="userSpaceOnUse"><stop offset=".009" stop-color="#BDBDBD"/><stop offset="1" stop-color="#fff"/></linearGradient><path fill="url(#c)" d="M104.54 120.79H23.6c-2.47 0-4.5-2.03-4.5-4.5v-.64c0-2.47 2.02-4.5 4.5-4.5h80.94v9.64z"/></svg>