<svg xmlns="http://www.w3.org/2000/svg" viewBox="0 0 128 128"><linearGradient id="a" x1="52" x2="52" y1=".333" y2="122.6" gradientUnits="userSpaceOnUse"><stop offset="0" stop-color="#F5F5F5"/><stop offset="1" stop-color="#E0E0E0"/></linearGradient><path fill="url(#a)" d="M92 124H12c-4.4 0-8-3.6-8-8V12c0-4.4 3.6-8 8-8h80c4.4 0 8 3.6 8 8v104c0 4.4-3.6 8-8 8z"/><path fill="#BDBDBD" d="M12 16h28v4H12zm0 12h76v4H12zm0 12h76v4H12zm0 12h76v4H12zm0 12h76v4H12zm0 12h56v4H12zm0 12h48v4H12zm0 12h20v4H12z"/><path fill="#424242" d="M92 7c2.76 0 5 2.24 5 5v104c0 2.76-2.24 5-5 5H12c-2.76 0-5-2.24-5-5V12c0-2.76 2.24-5 5-5h80m0-3H12c-4.4 0-8 3.6-8 8v104c0 4.4 3.6 8 8 8h80c4.4 0 8-3.6 8-8V12c0-4.4-3.6-8-8-8z" opacity=".2"/><linearGradient id="b" x1="73.419" x2="73.419" y1="29.068" y2="101.72" gradientTransform="matrix(-1 0 0 1 128 0)" gradientUnits="userSpaceOnUse"><stop offset=".007" stop-color="#FFECB3"/><stop offset="1" stop-color="#FFE082"/></linearGradient><path fill="url(#b)" d="m36.15 100.15 4.53-12.09 3.12-8.32c.7-2.15 1.9-4.1 3.5-5.7l7.2-7.2 18.67 18.67-7.2 7.2c-1.6 1.6-3.55 2.8-5.7 3.5l-8.32 3.12-12.09 4.53c-2.29.74-4.46-1.43-3.71-3.71z"/><path fill="none" d="m64.17 91.37.03-.02c-.01.01-.02.02-.03.02zM48.66 75.8l-.15.16c.05-.05.09-.11.14-.17l.01.01z"/><path fill="#424242" d="M54.49 71.08 68.91 85.5l-5.08 5.08a11.405 11.405 0 0 1-4.51 2.77l-.12.04-8.32 3.12-11.83 4.43 4.43-11.83 3.12-8.32.04-.12c.55-1.69 1.51-3.25 2.77-4.51l5.08-5.08m0-4.24-7.2 7.2c-1.6 1.6-2.8 3.55-3.5 5.7l-3.12 8.32-4.53 12.09c-.64 1.97.88 3.85 2.77 3.85.3 0 .61-.05.93-.15l12.09-4.53 8.32-3.12c2.15-.7 4.1-1.9 5.7-3.5l7.2-7.2-18.66-18.66z" opacity=".2"/><linearGradient id="c" x1="84.029" x2="84.029" y1="71.856" y2="103.02" gradientTransform="matrix(-1 0 0 1 128 0)" gradientUnits="userSpaceOnUse"><stop offset="0" stop-color="#757575"/><stop offset="1" stop-color="#424242"/></linearGradient><path fill="url(#c)" d="m36.15 100.15 4.53-12.09a24.73 24.73 0 0 1 6.55 4.71c1.97 1.97 3.53 4.19 4.71 6.55l-12.09 4.53c-2.28.75-4.45-1.42-3.7-3.7z"/><path fill="#424242" d="M42.23 92.46c1.03.72 1.99 1.53 2.88 2.42s1.7 1.85 2.42 2.88l-8.48 3.18 3.18-8.48m-1.55-4.4-4.53 12.09c-.64 1.97.88 3.85 2.77 3.85.3 0 .61-.05.93-.15l12.09-4.53a24.73 24.73 0 0 0-4.71-6.55 24.73 24.73 0 0 0-6.55-4.71z" opacity=".2"/><linearGradient id="d" x1="26.46" x2="26.46" y1="22.05" y2="53.593" gradientTransform="matrix(-1 0 0 1 128 0)" gradientUnits="userSpaceOnUse"><stop offset="0" stop-color="#E0E0E0"/><stop offset="1" stop-color="#9E9E9E"/></linearGradient><path fill="url(#d)" d="m89.09 32.24 18.67 18.67 6.22-6.23-18.66-18.66z"/><path fill="#9E9E9E" d="M109.831 48.84 91.164 30.172l2.072-2.072 18.667 18.668z"/><linearGradient id="e" x1="18.341" x2="18.341" y1="11.722" y2="42.01" gradientTransform="matrix(-1 0 0 1 128 0)" gradientUnits="userSpaceOnUse"><stop offset="0" stop-color="#E57373"/><stop offset="1" stop-color="#F44336"/></linearGradient><path fill="url(#e)" d="m95.32 26.02 18.67 18.67 8.3-8.3a5.873 5.873 0 0 0 0-8.3l-10.37-10.37a5.873 5.873 0 0 0-8.3 0l-8.3 8.3z"/><linearGradient id="f" x1="48.808" x2="48.808" y1="24.922" y2="79.796" gradientTransform="matrix(-1 0 0 1 128 0)" gradientUnits="userSpaceOnUse"><stop offset="0" stop-color="#FFC107"/><stop offset="1" stop-color="#FFA000"/></linearGradient><path fill="url(#f)" d="m102.23 45.37-7.61-7.61-38.4 38.4-.07 1.5c-.14 3.23 2.95 6.32 6.17 6.17l1.5-.07 38.41-38.39z"/><linearGradient id="g" x1="35.026" x2="35.026" y1="39.632" y2="92.066" gradientTransform="scale(-1 1) rotate(-45 -34.002 216.76)" gradientUnits="userSpaceOnUse"><stop offset="0" stop-color="#FFCA28"/><stop offset="1" stop-color="#FFB300"/></linearGradient><path fill="url(#g)" d="M107.76 50.91 67.65 91.02c-2.25-.94-3.99-3.3-3.89-5.74l.07-1.5 38.4-38.4 5.53 5.53z"/><linearGradient id="h" x1="53.604" x2="53.604" y1="39.632" y2="92.066" gradientTransform="scale(-1 1) rotate(-45 -34.002 216.76)" gradientUnits="userSpaceOnUse"><stop offset="0" stop-color="#FFCA28"/><stop offset="1" stop-color="#FFB300"/></linearGradient><path fill="url(#h)" d="m94.63 37.77-38.4 38.4-1.5.07c-2.44.11-4.8-1.64-5.74-3.89L89.1 32.24l5.53 5.53z"/><path fill="#424242" d="M107.76 19c.77 0 1.49.3 2.03.84l10.37 10.37c.54.54.84 1.26.84 2.03s-.3 1.49-.84 2.03L67.35 87.08c-.38-.52-.61-1.12-.59-1.67l.07-1.5.14-3.27-3.27.14-1.5.07h-.08c-.69 0-1.47-.38-2.07-1.01-.59-.61-.92-1.38-.89-2.04l.07-1.5.14-3.27-3.27.14-1.5.07h-.08c-.53 0-1.1-.22-1.59-.59l52.81-52.81c.54-.54 1.26-.84 2.02-.84m0-3c-1.5 0-3 .57-4.15 1.72L48.98 72.35c.92 2.19 3.17 3.89 5.53 3.89h.21l1.5-.07-.06 1.5c-.14 3.16 2.81 6.18 5.96 6.18h.21l1.5-.07-.07 1.5c-.11 2.44 1.64 4.8 3.89 5.74l54.63-54.63a5.873 5.873 0 0 0 0-8.3l-10.37-10.37a5.828 5.828 0 0 0-4.15-1.72z" opacity=".2"/></svg>