<svg xmlns="http://www.w3.org/2000/svg" xmlns:xlink="http://www.w3.org/1999/xlink" viewBox="0 0 128 128"><defs><path id="a" d="M4 4h120v120H4z"/></defs><clipPath id="c"><use xlink:href="#a"/></clipPath><linearGradient id="b" x1="64" x2="64" y1="92.983" y2="128.92" gradientUnits="userSpaceOnUse"><stop offset=".275" stop-color="#757575"/><stop offset=".993" stop-color="#BDBDBD"/></linearGradient><path fill="url(#b)" d="M50.41 84h27.18v44H50.41z" clip-path="url(#c)"/><g clip-path="url(#c)" opacity=".2"><path fill="#444" d="M74.59 87v38H53.41V87h21.18m3-3H50.41v44h27.18V84z"/></g><linearGradient id="d" x1="64" x2="64" y1="5.043" y2="96.972" gradientUnits="userSpaceOnUse"><stop offset=".138" stop-color="#EF5350"/><stop offset=".66" stop-color="#E53935"/></linearGradient><path fill="url(#d)" d="M102 99.96H26c-4.42 0-8-3.58-8-8V12c0-4.42 3.58-8 8-8h76c4.42 0 8 3.58 8 8v79.96c0 4.42-3.58 8-8 8z" clip-path="url(#c)"/><g clip-path="url(#c)" opacity=".2"><path fill="#444" d="M102 7.07c2.72 0 4.93 2.21 4.93 4.93v79.96c0 2.72-2.21 4.93-4.93 4.93H26c-2.72 0-4.93-2.21-4.93-4.93V12c0-2.72 2.21-4.93 4.93-4.93h76M102 4H26c-4.42 0-8 3.58-8 8v79.96c0 4.42 3.58 8 8 8h76c4.42 0 8-3.58 8-8V12c0-4.42-3.58-8-8-8z"/></g><path fill="#444" d="M95 33.95H33c-2.21 0-4-1.79-4-4v-2.01c0-2.21 1.79-4 4-4h62c2.21 0 4 1.79 4 4v2.01c0 2.21-1.79 4-4 4z" clip-path="url(#c)"/><linearGradient id="e" x1="63.667" x2="63.667" y1="35.828" y2="79.469" gradientUnits="userSpaceOnUse"><stop offset=".341" stop-color="#B71C1C"/><stop offset=".88" stop-color="#D32F2F" stop-opacity="0"/></linearGradient><path fill="url(#e)" d="M42.33 35.33H85v45.56H42.33z" opacity=".4"/><defs><path id="f" d="M36.81 25.5h54.38V79H36.81z"/></defs><clipPath id="g"><use xlink:href="#f"/></clipPath><g clip-path="url(#g)"><linearGradient id="h" x1="46.516" x2="77.752" y1="15.536" y2="62.169" gradientUnits="userSpaceOnUse"><stop offset="0" stop-color="#FFC107"/><stop offset="1" stop-color="#FFD54F"/></linearGradient><path fill="url(#h)" d="M84.34 68.15V14.14c0-2.21-1.79-4-4-4H47c-2.21 0-4 1.79-4 4v54.01c0 2.21 1.79 4 4 4h33.34c2.21 0 4-1.79 4-4z"/><linearGradient id="i" x1="54.187" x2="90.664" y1="9.77" y2="53.763" gradientTransform="matrix(0 1 1 0 -43.127 -79.123)" gradientUnits="userSpaceOnUse"><stop offset=".237" stop-color="#FFC107"/><stop offset=".802" stop-color="#FFD54F"/></linearGradient><path fill="url(#i)" d="M43.07 68.61 43 12.9a2.77 2.77 0 0 1 2.77-2.77c.22 0 .42.1.55.27l23.3 30.26c.19.25.19.6 0 .85L46.39 71.87c-.13.18-3.1-3.26-3.32-3.26z"/><defs><path id="j" d="M84.34 68.15V14.14c0-2.21-1.79-4-4-4H47c-2.21 0-4 1.79-4 4v54.01c0 2.21 1.79 4 4 4h33.34c2.21 0 4-1.79 4-4z"/></defs><clipPath id="k"><use xlink:href="#j"/></clipPath><g fill="none" stroke="#FFB300" stroke-miterlimit="10" stroke-width="3.263" clip-path="url(#k)"><path d="M62 30.3 86.37 7.97M61.94 51.94l24.53 22.28"/></g><path fill="none" stroke="#FFB300" stroke-miterlimit="10" stroke-width="3.263" d="m44.95 8.11 24.99 32.98-24.9 33.08" clip-path="url(#k)"/><path fill="#444" d="M80.44 12.31c.95 0 1.72.77 1.72 1.72v54.22c0 .95-.77 1.72-1.72 1.72H46.89c-.95 0-1.72-.77-1.72-1.72V14.03c0-.95.77-1.72 1.72-1.72h33.55m0-2.17H46.89c-2.15 0-3.89 1.74-3.89 3.89v54.22c0 2.15 1.74 3.89 3.89 3.89h33.55c2.15 0 3.89-1.74 3.89-3.89V14.03a3.875 3.875 0 0 0-3.89-3.89z" opacity=".2"/></g><linearGradient id="l" x1="63.613" x2="63.613" y1="67.573" y2="25.058" gradientUnits="userSpaceOnUse"><stop offset=".752" stop-color="#757575" stop-opacity="0"/><stop offset=".903" stop-color="#444"/></linearGradient><path fill="url(#l)" d="M42.87 25.06h41.48v42.52H42.87z" clip-path="url(#g)" opacity=".4"/></svg>