<svg xmlns="http://www.w3.org/2000/svg" viewBox="0 0 128 128"><radialGradient id="a" cx="119.67" cy="41.333" r="24.88" gradientUnits="userSpaceOnUse"><stop offset="0" stop-color="#9E9E9E"/><stop offset=".225" stop-color="#8D8D8D"/><stop offset=".724" stop-color="#6D6D6D"/><stop offset="1" stop-color="#616161"/></radialGradient><path fill="url(#a)" d="M118.86 62c2.83 0 5.14-2.31 5.14-5.14V43.14c0-2.83-2.31-5.14-5.14-5.14s-5.14 2.31-5.14 5.14v13.71c-.01 2.84 2.31 5.15 5.14 5.15z"/><radialGradient id="b" cx="35.5" cy="86.5" r="18.742" gradientUnits="userSpaceOnUse"><stop offset="0" stop-color="#BDBDBD"/><stop offset="1" stop-color="#BDBDBD"/></radialGradient><path fill="url(#b)" d="m22.26 62.25 7.75-2c4.26-1.1 8.65 1.49 9.75 5.75l4 15.49c1.1 4.26-1.49 8.65-5.75 9.75l-7.75 2c-4.26 1.1-8.65-1.49-9.75-5.75l-4-15.49c-1.1-4.26 1.49-8.65 5.75-9.75z"/><path fill="#424242" d="M31.99 63c2.29 0 4.28 1.54 4.85 3.75l4 15.49c.69 2.67-.92 5.4-3.59 6.09l-7.75 2c-.41.1-.82.16-1.24.16-2.29 0-4.28-1.54-4.85-3.75l-4-15.49c-.69-2.67.92-5.4 3.59-6.09l7.75-2c.41-.11.83-.16 1.24-.16m0-3c-.66 0-1.32.08-1.99.25l-7.75 2c-4.26 1.1-6.85 5.48-5.75 9.75l4 15.49c.93 3.6 4.2 6 7.76 6 .66 0 1.32-.08 1.99-.25l7.75-2c4.26-1.1 6.85-5.48 5.75-9.75l-4-15.49c-.93-3.6-4.2-6-7.76-6zm86.87-19c1.18 0 2.14.96 2.14 2.14v13.71c0 1.18-.96 2.14-2.14 2.14s-2.14-.96-2.14-2.14V43.14c-.01-1.18.96-2.14 2.14-2.14m0-3c-2.83 0-5.14 2.31-5.14 5.14v13.71c0 2.83 2.31 5.14 5.14 5.14s5.14-2.31 5.14-5.14V43.14c0-2.83-2.31-5.14-5.14-5.14z" opacity=".2"/><radialGradient id="c" cx="27" cy="66.333" r="52.987" gradientUnits="userSpaceOnUse"><stop offset="0" stop-color="#757575"/><stop offset=".105" stop-color="#6E6E6E"/><stop offset=".682" stop-color="#4E4E4E"/><stop offset="1" stop-color="#424242"/></radialGradient><path fill="url(#c)" d="M32 106.68v-3.75c0-1.64.84-3.08 2.08-3.87 1.2-.76 1.92-2.15 1.92-3.64V93.2c0-1.83-.72-3.22-1.93-3.98C32.84 88.44 32 87 32 85.36v-3.75c0-1.65.84-3.08 2.08-3.87 1.2-.76 1.92-2.14 1.92-3.63v-3.27c0-6.36-4.67-11.35-10.39-11.35h-3.48c-5.71 0-10.39 4.98-10.39 11.07v44.9c0 4.69 3.6 8.53 8 8.53H28c4.4 0 8-3.84 8-8.53v-1.28c0-1.49-.72-2.88-1.93-3.64-1.23-.78-2.07-2.21-2.07-3.86z"/><path fill="#424242" d="M22 84h-8c-1.1 0-2-.9-2-2s.9-2 2-2h8c1.1 0 2 .9 2 2s-.9 2-2 2zm0 12h-8c-1.1 0-2-.9-2-2s.9-2 2-2h8c1.1 0 2 .9 2 2s-.9 2-2 2zm0 12h-8c-1.1 0-2-.9-2-2s.9-2 2-2h8c1.1 0 2 .9 2 2s-.9 2-2 2z" opacity=".2"/><path fill="#eee" d="M25.61 62.5c4.07 0 7.39 3.75 7.39 8.35v3.27c0 .46-.21.89-.52 1.09-2.18 1.37-3.48 3.77-3.48 6.4v3.75c0 2.63 1.3 5.02 3.47 6.4.46.3.53 1.04.53 1.45v2.22c0 .47-.21.9-.53 1.11-2.17 1.38-3.47 3.77-3.47 6.4v3.75c0 2.63 1.3 5.02 3.47 6.4.32.21.53.64.53 1.11v1.28c0 3.05-2.24 5.53-5 5.53h-8.25c-2.76 0-5-2.48-5-5.53v-44.9c0-4.45 3.31-8.07 7.39-8.07h3.47m0-3.01h-3.48c-5.71 0-10.39 4.98-10.39 11.07v44.9c0 4.69 3.6 8.53 8 8.53H28c4.4 0 8-3.84 8-8.53v-1.28c0-1.49-.72-2.88-1.93-3.64-1.24-.79-2.07-2.22-2.07-3.87v-3.75c0-1.64.84-3.08 2.08-3.87 1.2-.76 1.92-2.15 1.92-3.64V93.2c0-1.83-.72-3.22-1.93-3.98C32.84 88.44 32 87 32 85.36v-3.75c0-1.65.84-3.09 2.08-3.87 1.2-.76 1.92-2.14 1.92-3.63v-3.27c0-6.35-4.67-11.34-10.39-11.34z" opacity=".2"/><radialGradient id="d" cx="24.333" cy="31.667" r="42.359" gradientUnits="userSpaceOnUse"><stop offset="0" stop-color="#EF5350"/><stop offset=".324" stop-color="#F0504B"/><stop offset=".715" stop-color="#F3473C"/><stop offset=".837" stop-color="#F44336"/><stop offset="1" stop-color="#F44336"/></radialGradient><path fill="url(#d)" d="m10 30 40-4c3.31 0 6 10.75 6 24s-2.69 24-6 24l-40-4c-3.31 0-6-8.95-6-20s2.69-20 6-20z"/><path fill="#424242" d="M49.55 29.06C50.84 30.74 53 38.06 53 50s-2.16 19.26-3.45 20.94l-39.18-3.92C9.16 65.92 7 59.95 7 50s2.16-15.92 3.36-17.02l39.19-3.92M50 26l-40 4c-3.31 0-6 8.95-6 20s2.69 20 6 20l40 4c3.31 0 6-10.75 6-24s-2.69-24-6-24z" opacity=".2"/><radialGradient id="e" cx="78.167" cy="19.833" r="62.893" gradientUnits="userSpaceOnUse"><stop offset="0" stop-color="#F5F5F5"/><stop offset=".53" stop-color="#E8E8E8"/><stop offset=".784" stop-color="#E0E0E0"/><stop offset="1" stop-color="#E0E0E0"/></radialGradient><path fill="url(#e)" d="M52.88 24.29 116 5.36v89.28L52.88 75.71C48.53 75.71 45 64.2 45 50s3.53-25.71 7.88-25.71z"/><linearGradient id="f" x1="114" x2="114" y1="2.25" y2="98.353" gradientUnits="userSpaceOnUse"><stop offset="0" stop-color="#BDBDBD"/><stop offset="1" stop-color="#BDBDBD"/></linearGradient><path fill="url(#f)" d="M113 96h1c2.21 0 4-1.79 4-4V8c0-2.21-1.79-4-4-4h-1c-1.66 0-3 1.34-3 3v86c0 1.66 1.34 3 3 3z"/><path fill="#424242" d="M114 7c.55 0 1 .45 1 1v84c0 .55-.45 1-1 1h-1v-.16a3 3 0 0 0-2.14-2.87L53.74 72.84c-.25-.07-.5-.12-.76-.12C51.52 71.98 48 64.35 48 50s3.52-21.98 4.98-22.72c.26-.01.51-.05.76-.12l57.12-17.13A3 3 0 0 0 113 7.16V7h1m0-3h-1c-1.66 0-3 1.34-3 3v.16L52.88 24.29C48.53 24.29 45 35.8 45 50s3.53 25.71 7.88 25.71L110 92.84V93c0 1.66 1.34 3 3 3h1c2.21 0 4-1.79 4-4V8c0-2.21-1.79-4-4-4z" opacity=".2"/></svg>