<svg xmlns="http://www.w3.org/2000/svg" xmlns:xlink="http://www.w3.org/1999/xlink" viewBox="0 0 128 128"><linearGradient id="a" x1="74.503" x2="74.503" y1="76.92" y2="27.89" gradientTransform="matrix(1 0 .6741 -1 -41.612 128)" gradientUnits="userSpaceOnUse"><stop offset="0" stop-color="#ffc107"/><stop offset="1" stop-color="#ffd54f"/></linearGradient><path fill="url(#a)" d="M101.37 99.87H21.92c-2.13 0-3.27-1.73-2.56-3.86l16.99-50.4c.72-2.13 3.03-3.86 5.16-3.86h79.46c2.13 0 3.27 1.73 2.56 3.86l-16.99 50.4c-.73 2.13-3.04 3.86-5.17 3.86z"/><linearGradient id="b" x1="72.978" x2="72.978" y1="85.67" y2="40.327" gradientTransform="matrix(1 0 .3371 -1 -20.812 128)" gradientUnits="userSpaceOnUse"><stop offset="0" stop-color="#ffe082"/><stop offset=".993" stop-color="#ffca28"/></linearGradient><path fill="url(#b)" d="M123.31 46.23l.53-1.57c.54-1.6-.32-2.91-1.93-2.91H40.56c-1.6 0-3.34 1.3-3.88 2.91l-.49 1.47 32.22 33.5 54.9-33.4z"/><defs><path id="c" d="M101.37 99.87H21.92c-2.13 0-3.27-1.73-2.56-3.86l16.99-50.4c.72-2.13 3.03-3.86 5.16-3.86h79.46c2.13 0 3.27 1.73 2.56 3.86l-16.99 50.4c-.73 2.13-3.04 3.86-5.17 3.86z"/></defs><clipPath id="d"><use overflow="visible" xlink:href="#c"/></clipPath><g fill="none" stroke="#ffb300" stroke-miterlimit="10" stroke-width="2.179" clip-path="url(#d)"><path d="M56.98 68.46l-42.92 34.27M87.43 68.39l19.7 34.47"/></g><defs><path id="e" d="M101.37 99.87H21.92c-2.13 0-3.27-1.73-2.56-3.86l16.99-50.4c.72-2.13 3.03-3.86 5.16-3.86h79.46c2.13 0 3.27 1.73 2.56 3.86l-16.99 50.4c-.73 2.13-3.04 3.86-5.17 3.86z"/></defs><clipPath id="f"><use overflow="visible" xlink:href="#e"/></clipPath><path fill="none" stroke="#ffb300" stroke-miterlimit="10" stroke-width="2.179" d="M33.88 44.51L68.4 79.63l58.3-35.01" clip-path="url(#f)"/><path fill="none" stroke="#b0bec5" stroke-linecap="round" stroke-linejoin="round" stroke-miterlimit="10" stroke-width="5" d="M5.84 45h24.37M5.84 56.53h17.47M5.84 56.53H20M5.84 67.03h7.08"/></svg>