<svg xmlns="http://www.w3.org/2000/svg" viewBox="0 0 128 128"><radialGradient id="a" cx="31.662" cy="78.838" r="25.172" gradientTransform="translate(.533 .525) scale(.9917)" gradientUnits="userSpaceOnUse"><stop offset="0" stop-color="#C5CAE9"/><stop offset="1" stop-color="#7986CB"/></radialGradient><path fill="url(#a)" d="M41.34 103.5 24.5 86.66c-.89-.89-.89-2.32 0-3.21l12.21-12.21c.89-.89 2.32-.89 3.21 0l16.84 16.84c.89.89.89 2.32 0 3.21L44.55 103.5c-.89.89-2.33.89-3.21 0z"/><radialGradient id="b" cx="41.287" cy="69.226" r="23.909" gradientTransform="translate(.533 .525) scale(.9917)" gradientUnits="userSpaceOnUse"><stop offset="0" stop-color="#7986CB"/><stop offset=".24" stop-color="#727FC8"/><stop offset=".594" stop-color="#5E6DC1"/><stop offset="1" stop-color="#3F51B5"/></radialGradient><path fill="url(#b)" d="m52.12 95.78-19.9-19.9 6.33-19.59 33.16 33.16z"/><radialGradient id="c" cx="33.662" cy="100.84" r="25.75" gradientTransform="matrix(0 .9917 -1.409 0 175.99 67.145)" gradientUnits="userSpaceOnUse"><stop offset="0" stop-color="#C5CAE9"/><stop offset="1" stop-color="#7986CB"/></radialGradient><path fill="url(#c)" d="M40.4 100.2H27.1L5.77 114.4c-1.13.65-1.77 1.53-1.77 2.45V124h59.5v-7.15c0-.92-.64-1.8-1.77-2.45L40.4 100.2z"/><linearGradient id="d" x1="74.163" x2="110.47" y1="53.837" y2="17.529" gradientUnits="userSpaceOnUse"><stop offset="0" stop-color="#5C6BC0"/><stop offset=".225" stop-color="#6E7BC7"/><stop offset=".73" stop-color="#919CD5"/><stop offset="1" stop-color="#9FA8DA"/></linearGradient><path fill="url(#d)" d="M81.28 59.05 68.95 46.72l44.27-35.92 4.05 4.04z"/><path fill="#424242" d="M39.9 61.88 66.12 88.1l-14.69 4.74-.69.22-7.79 7.79-2.79-2.79-13.02-13 7.79-7.79.22-.69 4.75-14.7m.71 41.32-.44.44 3.05 2.03 16.86 11.23.08.06.09.05c.12.07.2.13.26.17V121H7v-3.82c.06-.05.14-.11.26-.17l.09-.05.08-.06 20.58-13.7h12.6m-2.06-46.91L32.3 75.65l-7.8 7.8c-.89.89-.89 2.32 0 3.21l13.54 13.54H27.1L5.77 114.4c-1.13.65-1.77 1.53-1.77 2.45V124h59.5v-7.15c0-.92-.64-1.8-1.77-2.45l-16.86-11.23 7.47-7.47 19.36-6.25-33.15-33.16zm74.46-41.46.22.22-32.18 39.53-7.63-7.63 39.59-32.12m.21-4.03L68.95 46.72l12.34 12.34 35.99-44.21-4.06-4.05z" opacity=".2"/><radialGradient id="e" cx="36.996" cy="16.004" r="73.441" gradientTransform="translate(.533 .525) scale(.9917)" gradientUnits="userSpaceOnUse"><stop offset="0" stop-color="#C5CAE9"/><stop offset="1" stop-color="#7986CB"/></radialGradient><path fill="url(#e)" d="M37.55 7.17c-12.02 23.86-8.53 53.16 10.8 72.49s48.63 22.82 72.49 10.8L37.55 7.17z"/><radialGradient id="f" cx="58.662" cy="13.671" r="97.708" gradientTransform="translate(.533 .525) scale(.9917)" gradientUnits="userSpaceOnUse"><stop offset="0" stop-color="#C5CAE9"/><stop offset="1" stop-color="#7986CB"/></radialGradient><path fill="url(#f)" d="M115.59 95.22 32.78 12.41a4.702 4.702 0 0 1 0-6.64l.39-.39a1.84 1.84 0 0 1 2.59 0l86.86 86.86c.71.71.71 1.87 0 2.59l-.39.39a4.684 4.684 0 0 1-6.64 0z"/><linearGradient id="g" x1="33.752" x2="33.752" y1="83.266" y2="125.18" gradientUnits="userSpaceOnUse"><stop offset="0" stop-color="#7986CB"/><stop offset=".24" stop-color="#727FC8"/><stop offset=".594" stop-color="#5E6DC1"/><stop offset="1" stop-color="#3F51B5"/></linearGradient><path fill="url(#g)" d="M43.67 124H23.83V88.54a4.21 4.21 0 0 1 4.21-4.21h11.42a4.21 4.21 0 0 1 4.21 4.21V124z"/><radialGradient id="h" cx="33.496" cy="90.588" r="8.933" gradientTransform="translate(.533 .525) scale(.9917)" gradientUnits="userSpaceOnUse"><stop offset="0" stop-color="#C5CAE9"/><stop offset="1" stop-color="#7986CB"/></radialGradient><circle cx="33.75" cy="94.25" r="3.97" fill="url(#h)"/><radialGradient id="i" cx="117.25" cy="3.504" r="14.139" gradientTransform="translate(.533 .525) scale(.9917)" gradientUnits="userSpaceOnUse"><stop offset="0" stop-color="#C5CAE9"/><stop offset="1" stop-color="#7986CB"/></radialGradient><circle cx="117.06" cy="10.94" r="6.94" fill="url(#i)"/><path fill="#424242" d="M33.75 90.28c2.19 0 3.97 1.78 3.97 3.97s-1.78 3.97-3.97 3.97-3.97-1.78-3.97-3.97 1.78-3.97 3.97-3.97m0-2c-3.29 0-5.97 2.68-5.97 5.97s2.68 5.97 5.97 5.97 5.97-2.68 5.97-5.97-2.68-5.97-5.97-5.97zM117.06 7c1.05 0 2.04.41 2.79 1.15.74.74 1.15 1.73 1.15 2.79 0 1.05-.41 2.04-1.15 2.79-.74.74-1.73 1.15-2.79 1.15s-2.04-.41-2.79-1.15a3.917 3.917 0 0 1-1.15-2.79c0-1.05.41-2.04 1.15-2.79.74-.74 1.73-1.15 2.79-1.15m0-3c-1.78 0-3.55.68-4.91 2.03a6.947 6.947 0 0 0 0 9.82c1.36 1.36 3.13 2.03 4.91 2.03s3.55-.68 4.91-2.03a6.947 6.947 0 0 0 0-9.82A6.962 6.962 0 0 0 117.06 4zM34.54 8.41l85.04 85.04a1.696 1.696 0 0 1-1.88-.36L114.61 90l-1.8.66a61.322 61.322 0 0 1-21.15 3.76c-15.68 0-30.31-6-41.2-16.88C42.44 69.52 37 59.36 34.75 48.16c-2.2-10.92-1.3-22.32 2.59-32.97l.66-1.8-3.1-3.1c-.51-.5-.63-1.26-.36-1.88m-.08-3.56c-.47 0-.94.18-1.29.54l-.39.39a4.702 4.702 0 0 0 0 6.64l1.75 1.75c-8.18 22.39-3.65 48.03 13.82 65.5 11.86 11.86 27.5 17.76 43.32 17.76 7.48 0 15-1.32 22.18-3.94l1.75 1.75a4.68 4.68 0 0 0 6.64 0l.39-.39c.71-.71.71-1.87 0-2.59l-1.79-1.79-83.29-83.3-1.79-1.79c-.36-.36-.83-.53-1.3-.53z" opacity=".2"/><path fill="#424242" d="M39.46 87.33c.67 0 1.21.54 1.21 1.21V121H26.83V88.54c0-.67.54-1.21 1.21-1.21h11.42m0-3H28.04a4.21 4.21 0 0 0-4.21 4.21V124h19.83V88.54a4.189 4.189 0 0 0-4.2-4.21z" opacity=".2"/></svg>