<svg xmlns="http://www.w3.org/2000/svg" viewBox="0 0 128 128"><linearGradient id="a" x1="63.75" x2="63.75" y1="92.167" y2="124.84" gradientUnits="userSpaceOnUse"><stop offset=".275" stop-color="#757575"/><stop offset=".993" stop-color="#BDBDBD"/></linearGradient><path fill="url(#a)" d="M54.75 84h18v40h-18z"/><path fill="#444" d="M69.75 87v34h-12V87h12m3-3h-18v40h18V84z" opacity=".2"/><linearGradient id="b" x1="76.094" x2="76.094" y1="23.5" y2="90.394" gradientUnits="userSpaceOnUse"><stop offset="0" stop-color="#64B5F6"/><stop offset=".664" stop-color="#2196F3"/></linearGradient><path fill="url(#b)" d="M123.95 95.96H28.24v-72h69.72c14.36 0 26 11.64 26 26v46z"/><linearGradient id="c" x1="7.735" x2="65.266" y1="59.957" y2="59.957" gradientUnits="userSpaceOnUse"><stop offset="0" stop-color="#607D8B"/><stop offset=".422" stop-color="#4C636E"/><stop offset="1" stop-color="#33424A"/></linearGradient><path fill="url(#c)" d="M48.78 95.96H4V46.35c0-12.36 10.02-22.39 22.39-22.39 12.36 0 22.39 10.02 22.39 22.39v49.61z"/><linearGradient id="d" x1="4" x2="48.896" y1="92.957" y2="92.957" gradientUnits="userSpaceOnUse"><stop offset="0" stop-color="#64B5F6"/><stop offset=".664" stop-color="#2196F3"/></linearGradient><path fill="url(#d)" d="M4 89.96h44.9v6H4z"/><linearGradient id="e" x1="76.094" x2="76.094" y1="23.5" y2="90.394" gradientUnits="userSpaceOnUse"><stop offset="0" stop-color="#64B5F6"/><stop offset=".664" stop-color="#2196F3"/></linearGradient><path fill="url(#e)" d="M97.95 23.96H28.24v.08c11.5.94 20.54 10.56 20.54 22.31v43.61h.12v6h75.05v-46c0-14.36-11.64-26-26-26z"/><path fill="#444" d="M97.95 26.96c12.68 0 23 10.32 23 23v43H7V46.35c0-10.69 8.7-19.39 19.39-19.39.49 0 1.01.02 1.6.07.08.01.16.01.24.01.24 0 .47-.03.7-.08h69.02m0-3H28.24v.08a22.5 22.5 0 0 0-1.85-.08C14.02 23.96 4 33.98 4 46.35v49.61h119.95v-46c0-14.36-11.64-26-26-26z" opacity=".2"/><linearGradient id="f" x1="75.361" x2="75.361" y1="15.5" y2="67.502" gradientTransform="rotate(90 66 60)" gradientUnits="userSpaceOnUse"><stop offset=".227" stop-color="#EF5350"/><stop offset=".783" stop-color="#E53935"/></linearGradient><path fill="url(#f)" d="M118.76 78.39V60.33c0-3.31-2.69-6-6-6H109c-.18 0-.36.01-.53.03H65.91a2.49 2.49 0 0 0-2.49 2.49v5.02a2.49 2.49 0 0 0 2.49 2.49H103V78.4c0 3.31 2.69 6 6 6h3.76c3.31-.01 6-2.69 6-6.01z"/><path fill="#444" d="M112.76 56.33c2.21 0 4 1.79 4 4V78.4c0 2.21-1.79 4-4 4H109c-2.21 0-4-1.79-4-4V64.35c0-1.1-.9-2-2-2H65.91a.49.49 0 0 1-.49-.49v-5.02c0-.27.22-.49.49-.49h42.56c.06 0 .12 0 .18-.01.12-.01.24-.02.36-.02h3.75m0-1.99H109c-.18 0-.36.01-.53.03H65.91a2.49 2.49 0 0 0-2.49 2.49v5.02a2.49 2.49 0 0 0 2.49 2.49H103V78.4c0 3.31 2.69 6 6 6h3.76c3.31 0 6-2.69 6-6V60.33c0-3.32-2.69-6-6-6z" opacity=".2"/><radialGradient id="g" cx="63.854" cy="56.168" r="14.929" gradientUnits="userSpaceOnUse"><stop offset="0" stop-color="#ECEFF1"/><stop offset=".672" stop-color="#B0BEC5"/></radialGradient><circle cx="66.85" cy="59.42" r="9" fill="url(#g)"/><path fill="#444" d="M66.85 52.42c3.86 0 7 3.14 7 7s-3.14 7-7 7-7-3.14-7-7 3.14-7 7-7m0-2a9 9 0 1 0 .001 18.001 9 9 0 0 0-.001-18.001z" opacity=".2"/></svg>