<svg xmlns="http://www.w3.org/2000/svg" viewBox="0 0 128 128"><radialGradient id="a" cx="65.25" cy="89" r="26.44" gradientTransform="matrix(.6926 -.3702 .586 1.0965 -77.633 17.062)" gradientUnits="userSpaceOnUse"><stop offset="0" stop-color="#FFC107"/><stop offset=".35" stop-color="#FFBD06"/><stop offset=".694" stop-color="#FFB104"/><stop offset="1" stop-color="#FFA000"/></radialGradient><path fill="url(#a)" d="M59.43 116.06c-3.57 0-7.04-1.92-8.84-5.28L39.84 90.66c-1.26-2.36-1.53-5.06-.75-7.62s2.5-4.66 4.86-5.92l19.89-10.63c4.86-2.6 10.94-.76 13.53 4.11l10.75 20.12c2.6 4.87.76 10.94-4.11 13.53l-19.89 10.63a9.89 9.89 0 0 1-4.69 1.18zm9.12-42.75c-.32 0-.64.08-.94.24L47.72 84.18c-.64.34-.88.89-.97 1.18s-.19.89.15 1.52L57.65 107c.52.97 1.73 1.34 2.71.82l19.89-10.63c.97-.52 1.34-1.73.82-2.71L70.32 74.37a2.021 2.021 0 0 0-1.77-1.06z"/><path fill="#424242" d="M68.54 68.31c2.6 0 4.97 1.42 6.19 3.7l10.75 20.12c1.82 3.41.53 7.66-2.87 9.47l-19.89 10.63c-1.02.55-2.13.82-3.28.82-2.6 0-4.97-1.42-6.19-3.7L42.49 89.24c-.88-1.65-1.07-3.54-.53-5.33s1.75-3.26 3.4-4.14l19.89-10.63c1.03-.55 2.13-.83 3.29-.83m-9.12 42.75c.82 0 1.63-.2 2.35-.59l19.89-10.63c1.18-.63 2.04-1.68 2.43-2.96s.25-2.63-.37-3.81L72.96 72.95a4.987 4.987 0 0 0-4.41-2.64c-.82 0-1.63.2-2.35.59L46.3 81.53c-1.18.63-2.04 1.68-2.43 2.96s-.26 2.63.37 3.81L55 108.42a5.014 5.014 0 0 0 4.42 2.64m9.12-45.75c-1.59 0-3.2.38-4.7 1.18L43.95 77.12c-2.36 1.26-4.08 3.36-4.86 5.92s-.51 5.26.75 7.62l10.75 20.12c1.8 3.37 5.26 5.28 8.84 5.28 1.59 0 3.2-.38 4.7-1.18l19.89-10.63c4.86-2.6 6.71-8.67 4.11-13.53L77.37 70.6c-1.8-3.37-5.26-5.29-8.83-5.29zm-9.12 42.75c-.71 0-1.41-.38-1.77-1.06L46.9 86.88c-.34-.64-.24-1.23-.15-1.52s.33-.84.97-1.18l19.89-10.63a1.99 1.99 0 0 1 2.71.82l10.75 20.12c.52.97.15 2.19-.82 2.71l-19.89 10.63c-.3.15-.62.23-.94.23z" opacity=".2"/><radialGradient id="b" cx="52.5" cy="19.75" r="92.976" gradientUnits="userSpaceOnUse"><stop offset="0" stop-color="#EF5350"/><stop offset=".246" stop-color="#EB4F4C"/><stop offset=".488" stop-color="#E04341"/><stop offset=".727" stop-color="#CD302F"/><stop offset=".8" stop-color="#C62828"/><stop offset="1" stop-color="#C62828"/></radialGradient><path fill="url(#b)" d="M36.96 109.64 18.79 91.47 63.91 5.95a3.926 3.926 0 0 1 6.17-.8l52.77 52.77c1.82 1.82 1.43 4.88-.8 6.17l-85.09 45.55z"/><radialGradient id="c" cx="16.979" cy="92" r="24.165" gradientUnits="userSpaceOnUse"><stop offset="0" stop-color="#E0E0E0"/><stop offset=".311" stop-color="#CFCFCF"/><stop offset=".923" stop-color="#A4A4A4"/><stop offset="1" stop-color="#9E9E9E"/></radialGradient><path fill="url(#c)" d="m29.57 123.42-25-25c-1-1-.65-2.69.66-3.21l13.55-3.75 18.17 18.17-4.17 13.13a1.96 1.96 0 0 1-3.21.66z"/><path fill="#424242" d="M67.31 7c.17 0 .43.05.65.27l52.77 52.77c.28.28.29.61.26.78-.02.16-.1.46-.42.66L35.54 107c-.69.37-1.21.99-1.44 1.74l-3.61 11.37L7.96 97.57l11.62-3.22c.8-.22 1.47-.76 1.85-1.49l45.1-85.43c.24-.39.62-.43.78-.43m0-3c-1.34 0-2.66.67-3.4 1.95L18.79 91.47 5.24 95.22c-1.31.52-1.66 2.22-.66 3.21l25 25c.39.39.89.58 1.38.58.76 0 1.51-.44 1.83-1.24l4.17-13.13 85.09-45.55c2.23-1.3 2.62-4.35.8-6.17L70.08 5.15A3.875 3.875 0 0 0 67.31 4z" opacity=".2"/></svg>