<svg xmlns="http://www.w3.org/2000/svg" viewBox="0 0 128 128"><linearGradient id="a" x1="63.8" x2="63.8" y1="806.057" y2="838.73" gradientTransform="translate(0 -713.89)" gradientUnits="userSpaceOnUse"><stop offset=".275" stop-color="#757575"/><stop offset=".993" stop-color="#bdbdbd"/></linearGradient><path fill="url(#a)" d="M54.8 84h18v40h-18z"/><path fill="#444" d="M69.8 87v34h-12V87h12m3-3h-18v40h18V84z" opacity=".2"/><linearGradient id="b" x1="76.1" x2="76.1" y1="737.39" y2="804.284" gradientTransform="translate(0 -713.89)" gradientUnits="userSpaceOnUse"><stop offset="0" stop-color="#64b5f6"/><stop offset=".664" stop-color="#2196f3"/></linearGradient><path fill="url(#b)" d="M123.9 96H28.2V24H98c14.4 0 26 11.6 26 26l-.1 46z"/><linearGradient id="c" x1="26.4" x2="26.4" y1="737.64" y2="809.89" gradientTransform="translate(0 -713.89)" gradientUnits="userSpaceOnUse"><stop offset=".332" stop-color="#90caf9"/><stop offset="1" stop-color="#42a5f5"/></linearGradient><path fill="url(#c)" d="M48.8 96H4V46.3C4 34 14 24 26.4 24c12.4 0 22.4 10 22.4 22.4V96z"/><path fill="#1e88e5" d="M37.4 51.6h-22c-1.1 0-2-.9-2-2v-4c0-1.1.9-2 2-2h22c1.1 0 2 .9 2 2v4c0 1.1-.9 2-2 2z"/><path fill="#444" d="M97.9 27c12.7 0 23 10.3 23 23v43H7V46.3C7 35.7 15.7 27 26.4 27c.5 0 1 0 1.6.1h.2c.2 0 .5 0 .7-.1h69m0-3H26.4C14 24 4 34 4 46.3V96h119.9V50c0-14.4-11.6-26-26-26z" opacity=".2"/><linearGradient id="d" x1="76.801" x2="76.801" y1="726.39" y2="778.392" gradientTransform="translate(0 -713.89)" gradientUnits="userSpaceOnUse"><stop offset=".227" stop-color="#ef5350"/><stop offset=".783" stop-color="#e53935"/></linearGradient><path fill="url(#d)" d="M85.9 4.2H67.8c-3.3 0-6 2.7-6 6v46.9c0 1.4 1.1 2.5 2.5 2.5h5c1.4 0 2.5-1.1 2.5-2.5V20h14c3.3 0 6-2.7 6-6v-3.8c.1-3.3-2.6-6-5.9-6z"/><path fill="#444" d="M85.9 6.2c2.2 0 4 1.8 4 4V14c0 2.2-1.8 4-4 4h-14c-1.1 0-2 .9-2 2v37.1c0 .3-.2.5-.5.5h-5c-.3 0-.5-.2-.5-.5V14.5v-.2-4.2c0-2.2 1.8-4 4-4l18 .1m0-2H67.8c-3.3 0-6 2.7-6 6v46.9c0 1.4 1.1 2.5 2.5 2.5h5c1.4 0 2.5-1.1 2.5-2.5V20h14c3.3 0 6-2.7 6-6v-3.8c.1-3.3-2.6-6-5.9-6z" opacity=".2"/><radialGradient id="e" cx="63.854" cy="770.058" r="14.929" gradientTransform="translate(0 -713.89)" gradientUnits="userSpaceOnUse"><stop offset="0" stop-color="#eceff1"/><stop offset=".672" stop-color="#b0bec5"/></radialGradient><circle cx="66.8" cy="59.4" r="9" fill="url(#e)"/><path fill="#444" d="M66.8 52.4c3.9 0 7 3.1 7 7s-3.1 7-7 7-7-3.1-7-7 3.2-7 7-7m0-2c-5 0-9 4-9 9s4 9 9 9 9-4 9-9-4-9-9-9z" opacity=".2"/></svg>