<svg xmlns="http://www.w3.org/2000/svg" viewBox="0 0 128 128"><linearGradient id="a" x1="35.998" x2="35.998" y1="76.374" y2="103.66" gradientUnits="userSpaceOnUse"><stop offset="0" stop-color="#29B6F6"/><stop offset=".996" stop-color="#0277BD"/></linearGradient><path fill="url(#a)" d="M20 76h32v28H20z"/><linearGradient id="b" x1="17.999" x2="17.999" y1="61.375" y2="115.13" gradientUnits="userSpaceOnUse"><stop offset="0" stop-color="#29B6F6"/><stop offset=".996" stop-color="#0277BD"/></linearGradient><path fill="url(#b)" d="M10.6 56.96 32 76v28l-21.4 19.04c-2.59 2.22-6.6.37-6.6-3.04V60c0-3.42 4.01-5.26 6.6-3.04z"/><linearGradient id="c" x1="45.864" x2="32.96" y1="89.998" y2="89.998" gradientUnits="userSpaceOnUse"><stop offset="0" stop-color="#0288D1"/><stop offset="1" stop-color="#0288D1" stop-opacity="0"/></linearGradient><path fill="url(#c)" d="M32 76h16v28H32z"/><path fill="#424242" d="M8.02 58.99c.22 0 .42.08.61.24L30 78.24l.86.76H49v22H30.86l-.86.76-21.36 19.01c-.2.16-.4.23-.62.23-.33 0-1.02-.24-1.02-1V60c0-.3.1-.53.29-.71.2-.19.47-.3.73-.3m0-3C5.96 55.99 4 57.61 4 60v60c0 2.39 1.96 4.01 4.02 4.01.89 0 1.8-.3 2.58-.97L32 104h20V76H32L10.6 56.96c-.78-.67-1.69-.97-2.58-.97z" opacity=".2"/><radialGradient id="d" cx="87.442" cy="59.134" r="63.931" gradientTransform="matrix(.9516 0 0 .9668 2.073 3.983)" gradientUnits="userSpaceOnUse"><stop offset="0" stop-color="#81D4FA"/><stop offset="1" stop-color="#039BE5"/></radialGradient><path fill="url(#d)" d="M116 119.94H54.85c-4.42 0-8-3.58-8-8V68c0-4.42 3.58-8 8-8H116c4.42 0 8 3.58 8 8v43.94c0 4.42-3.58 8-8 8z"/><path fill="#0288D1" d="M54.77 108.66h31.79c.79 0 1.44.65 1.44 1.44v.46c0 .79-.65 1.44-1.44 1.44H54.77c-.79 0-1.44-.65-1.44-1.44v-.46c.01-.79.65-1.44 1.44-1.44zm0-6h31.79c.79 0 1.44.65 1.44 1.44v.46c0 .79-.65 1.44-1.44 1.44H54.77c-.79 0-1.44-.65-1.44-1.44v-.46c.01-.79.65-1.44 1.44-1.44zm0-6h31.79c.79 0 1.44.65 1.44 1.44v.46c0 .79-.65 1.44-1.44 1.44H54.77c-.79 0-1.44-.65-1.44-1.44v-.46c.01-.79.65-1.44 1.44-1.44z"/><path fill="#424242" d="M116 63c2.76 0 5 2.24 5 5v43.94c0 2.76-2.24 5-5 5H54.85c-2.76 0-5-2.24-5-5V68c0-2.76 2.24-5 5-5H116m0-3H54.85c-4.42 0-8 3.58-8 8v43.94c0 4.42 3.58 8 8 8H116c4.42 0 8-3.58 8-8V68c0-4.42-3.58-8-8-8z" opacity=".2"/><radialGradient id="e" cx="48.38" cy="5.629" r="61.767" gradientUnits="userSpaceOnUse"><stop offset="0" stop-color="#42A5F5"/><stop offset=".989" stop-color="#1565C0"/></radialGradient><path fill="url(#e)" d="M48 4C30.33 4 16 18.33 16 36s14.33 32 32 32 32-14.33 32-32S65.68 4 48 4zm4.35 18.97 3.14-10.19c.18-.58.8-.9 1.37-.69a25.29 25.29 0 0 1 9.17 5.88c3.07 3.07 5.18 6.72 6.36 10.6.17.56-.17 1.15-.73 1.31l-10.2 2.99a1.05 1.05 0 0 1-1.3-.68c-.59-1.9-1.63-3.7-3.14-5.2-1.21-1.21-2.6-2.11-4.08-2.73-.5-.21-.75-.77-.59-1.29zm-28.02 3.55c1.24-3.11 3.13-6.03 5.65-8.55 2.72-2.72 5.9-4.69 9.28-5.92.57-.21 1.2.13 1.37.71l3 10.24c.15.51-.1 1.06-.59 1.27-1.47.62-2.85 1.52-4.05 2.72a12.751 12.751 0 0 0-2.5 3.54c-.22.47-.77.68-1.26.53l-10.22-3.15c-.58-.18-.91-.82-.68-1.39zm19.91 22.74L41.1 59.43c-.17.57-.78.89-1.34.7a25.429 25.429 0 0 1-9.78-6.1 25.41 25.41 0 0 1-5.83-9.05c-.21-.57.12-1.2.71-1.38l10.23-3c.51-.15 1.07.08 1.28.57.61 1.39 1.48 2.7 2.63 3.84 1.35 1.35 2.94 2.33 4.62 2.95.51.2.78.78.62 1.3zM42.7 41.3a7.502 7.502 0 1 1 10.61-10.61A7.502 7.502 0 1 1 42.7 41.3zm29.64 2.31c-1.19 3.81-3.29 7.4-6.3 10.42-3 3-6.57 5.09-10.36 6.28-.56.18-1.16-.16-1.32-.72l-2.99-10.21c-.16-.54.13-1.12.67-1.3a12.635 12.635 0 0 0 8.12-8.25c.17-.55.77-.85 1.32-.68l10.16 3.14c.54.18.87.77.7 1.32z"/><radialGradient id="f" cx="102.25" cy="20.753" r="43.372" gradientUnits="userSpaceOnUse"><stop offset="0" stop-color="#42A5F5"/><stop offset=".989" stop-color="#1565C0"/></radialGradient><path fill="url(#f)" d="M102 20c-12.15 0-22 9.85-22 22s9.85 22 22 22 22-9.85 22-22-9.85-22-22-22zm2.99 13.04 2.16-7c.12-.4.55-.62.94-.48 2.3.85 4.46 2.19 6.31 4.04 2.11 2.11 3.56 4.62 4.37 7.28a.72.72 0 0 1-.5.9l-7.01 2.06a.724.724 0 0 1-.9-.47 8.708 8.708 0 0 0-2.16-3.58 8.777 8.777 0 0 0-2.81-1.88c-.34-.13-.51-.51-.4-.87zm-19.27 2.44c.86-2.14 2.15-4.14 3.88-5.88 1.87-1.87 4.05-3.22 6.38-4.07.39-.14.82.09.94.49l2.06 7.04c.1.35-.07.73-.4.87a8.624 8.624 0 0 0-2.78 1.87c-.73.73-1.3 1.56-1.72 2.44-.15.32-.53.47-.86.36l-7.03-2.17a.726.726 0 0 1-.47-.95zm13.69 15.64-2.16 6.99c-.12.39-.54.61-.92.48-2.46-.84-4.77-2.24-6.72-4.2a17.432 17.432 0 0 1-4.01-6.22c-.15-.39.08-.83.49-.95l7.04-2.06c.35-.1.73.06.88.39.42.96 1.02 1.86 1.81 2.64.93.93 2.02 1.6 3.18 2.03.34.14.52.54.41.9zm-.94-5.58c-1.95-1.95-1.95-5.12 0-7.07s5.12-1.95 7.07 0 1.95 5.12 0 7.07a5.003 5.003 0 0 1-7.07 0zm20.26 1.69a17.497 17.497 0 0 1-11.45 11.48c-.39.12-.8-.11-.91-.5l-2.06-7.02a.72.72 0 0 1 .46-.89 8.649 8.649 0 0 0 3.43-2.11 8.618 8.618 0 0 0 2.15-3.56c.12-.38.53-.58.9-.47l6.98 2.16c.39.13.62.53.5.91z"/><path fill="#424242" d="M114 100c1.1 0 2 .9 2 2s-.9 2-2 2-2-.9-2-2 .9-2 2-2m0-2c-2.21 0-4 1.79-4 4s1.79 4 4 4 4-1.79 4-4-1.79-4-4-4zm0 10c1.1 0 2 .9 2 2s-.9 2-2 2-2-.9-2-2 .9-2 2-2m0-2c-2.21 0-4 1.79-4 4s1.79 4 4 4 4-1.79 4-4-1.79-4-4-4z" opacity=".2"/><linearGradient id="g" x1="114" x2="114" y1="99.748" y2="103.76" gradientUnits="userSpaceOnUse"><stop offset="0" stop-color="#FF1744"/><stop offset="1" stop-color="#D50000"/></linearGradient><circle cx="114" cy="102" r="2" fill="url(#g)"/><linearGradient id="h" x1="114" x2="114" y1="107.75" y2="111.76" gradientUnits="userSpaceOnUse"><stop offset="0" stop-color="#76FF03"/><stop offset="1" stop-color="#64DD17"/></linearGradient><circle cx="114" cy="110" r="2" fill="url(#h)"/><path fill="#424242" d="M48 7c15.99 0 29 13.01 29 29S63.99 65 48 65 19 51.99 19 36 32.02 7 48 7m0-3C30.33 4 16 18.33 16 36s14.33 32 32 32 32-14.33 32-32S65.68 4 48 4zm54 19c10.48 0 19 8.52 19 19s-8.52 19-19 19-19-8.52-19-19 8.53-19 19-19m0-3c-12.15 0-22 9.85-22 22s9.85 22 22 22 22-9.85 22-22-9.85-22-22-22z" opacity=".2"/><path fill="#424242" d="M39.6 11.99c.46 0 .88.31 1.02.77l3 10.24c.15.51-.1 1.06-.59 1.27a12.668 12.668 0 0 0-6.55 6.27c-.17.37-.55.58-.94.58-.11 0-.21-.02-.32-.05L25 27.92a1.05 1.05 0 0 1-.68-1.39c1.24-3.11 3.13-6.03 5.65-8.55 2.72-2.72 5.9-4.69 9.28-5.92a.91.91 0 0 1 .35-.07m16.91.04c.12 0 .24.02.35.06a25.29 25.29 0 0 1 9.17 5.88c3.07 3.07 5.18 6.72 6.36 10.6.17.56-.17 1.15-.73 1.31l-10.2 2.99c-.1.03-.2.04-.3.04-.45 0-.86-.28-1-.73-.59-1.9-1.63-3.7-3.14-5.2-1.21-1.21-2.6-2.11-4.08-2.73-.5-.21-.74-.77-.59-1.28l3.14-10.19c.15-.45.57-.75 1.02-.75M48 28.5c1.92 0 3.84.73 5.3 2.2a7.502 7.502 0 0 1 0 10.61c-1.46 1.46-3.38 2.2-5.3 2.2s-3.84-.73-5.3-2.2a7.502 7.502 0 0 1 0-10.61 7.475 7.475 0 0 1 5.3-2.2m13.15 10.61c.1 0 .21.02.32.05l10.16 3.14c.56.17.88.76.71 1.32-1.19 3.81-3.29 7.4-6.3 10.42-3 3-6.57 5.09-10.36 6.28-.1.03-.2.05-.31.05-.46 0-.88-.31-1.02-.77l-2.99-10.21c-.16-.54.13-1.12.67-1.3a12.635 12.635 0 0 0 8.12-8.25c.14-.45.56-.73 1-.73m-25.76 1.45c.41 0 .8.23.97.61.61 1.39 1.48 2.7 2.63 3.84 1.35 1.35 2.94 2.33 4.62 2.95.52.19.78.77.62 1.3L41.1 59.43c-.14.46-.56.76-1.01.76-.11 0-.22-.02-.33-.05a25.429 25.429 0 0 1-9.78-6.1 25.41 25.41 0 0 1-5.83-9.05c-.21-.57.12-1.2.71-1.38l10.23-3c.09-.03.2-.05.3-.05m4.21-29.57c-.24 0-.47.04-.69.12a26.36 26.36 0 0 0-9.65 6.15 26.457 26.457 0 0 0-5.87 8.88c-.21.52-.19 1.12.06 1.63.25.52.71.92 1.26 1.09l10.22 3.15c.2.06.41.09.61.09.79 0 1.51-.45 1.84-1.15.58-1.22 1.35-2.31 2.3-3.27a11.54 11.54 0 0 1 3.73-2.5c.96-.4 1.45-1.46 1.16-2.47l-3-10.24c-.24-.87-1.06-1.48-1.97-1.48zm16.91.04c-.89 0-1.7.6-1.97 1.46L51.4 22.68c-.31 1.02.18 2.09 1.16 2.5 1.42.59 2.68 1.44 3.76 2.52 1.35 1.35 2.32 2.96 2.89 4.79.27.85 1.05 1.43 1.96 1.43.2 0 .39-.03.58-.08l10.2-2.99c.53-.15.98-.52 1.24-1.01.26-.48.32-1.04.16-1.56a26.539 26.539 0 0 0-6.61-11.01 26.275 26.275 0 0 0-9.53-6.11c-.23-.09-.46-.13-.7-.13zM48 27.5c-2.27 0-4.4.88-6.01 2.49-3.31 3.31-3.31 8.71 0 12.02 1.61 1.61 3.74 2.49 6.01 2.49s4.4-.88 6.01-2.49c3.31-3.31 3.31-8.71 0-12.02A8.44 8.44 0 0 0 48 27.5zm13.15 10.61c-.9 0-1.69.57-1.95 1.43-.57 1.82-1.54 3.43-2.89 4.77-1.3 1.3-2.84 2.25-4.6 2.83a2.038 2.038 0 0 0-1.31 2.53l2.99 10.21a2.076 2.076 0 0 0 2.59 1.4 26.54 26.54 0 0 0 10.76-6.53 26.44 26.44 0 0 0 6.55-10.83c.16-.52.11-1.07-.15-1.55-.26-.49-.69-.85-1.23-1.02L61.76 38.2c-.19-.06-.4-.09-.61-.09zm-25.76 1.45c-.2 0-.4.03-.59.09l-10.23 3c-.55.16-1.02.55-1.27 1.07-.25.51-.28 1.1-.09 1.62 1.33 3.55 3.37 6.71 6.06 9.4a26.2 26.2 0 0 0 10.17 6.34c.21.07.43.11.65.11.89 0 1.7-.6 1.97-1.46l3.14-10.17c.32-1.05-.22-2.16-1.23-2.53a11.666 11.666 0 0 1-6.68-6.26 2.1 2.1 0 0 0-1.9-1.21zm60.84-14.07c.31 0 .61.21.7.53l2.06 7.04c.1.35-.07.73-.4.87a8.624 8.624 0 0 0-2.78 1.87c-.73.73-1.3 1.56-1.72 2.44a.72.72 0 0 1-.65.4c-.07 0-.15-.01-.22-.03l-7.03-2.17c-.4-.12-.63-.57-.47-.96.86-2.14 2.15-4.14 3.88-5.88 1.87-1.87 4.05-3.22 6.38-4.07.09-.02.17-.04.25-.04m11.62.03c.08 0 .16.01.24.04 2.3.85 4.46 2.19 6.31 4.04 2.11 2.11 3.56 4.62 4.37 7.28a.72.72 0 0 1-.5.9l-7.01 2.06c-.07.02-.14.03-.21.03-.31 0-.59-.19-.69-.5a8.708 8.708 0 0 0-2.16-3.58 8.777 8.777 0 0 0-2.81-1.88.72.72 0 0 1-.4-.88l2.16-7c.1-.3.39-.51.7-.51M102 37c1.28 0 2.56.49 3.54 1.46A5.003 5.003 0 0 1 102 47c-1.28 0-2.56-.49-3.54-1.46A5.003 5.003 0 0 1 102 37m9.04 7.14c.07 0 .14.01.22.03l6.98 2.16c.38.12.61.52.49.91a17.497 17.497 0 0 1-11.45 11.48.735.735 0 0 1-.91-.5l-2.06-7.02a.72.72 0 0 1 .46-.89 8.649 8.649 0 0 0 3.43-2.11 8.618 8.618 0 0 0 2.15-3.56c.1-.31.38-.5.69-.5m-17.71 1c.28 0 .55.16.67.42.42.96 1.02 1.86 1.81 2.64.93.93 2.02 1.6 3.18 2.03.36.13.54.53.43.89l-2.16 6.99c-.1.31-.39.52-.7.52-.07 0-.15-.01-.23-.04-2.46-.84-4.77-2.24-6.72-4.2a17.432 17.432 0 0 1-4.01-6.22c-.15-.39.08-.83.49-.95l7.04-2.06c.06-.01.13-.02.2-.02m2.9-20.65c-.2 0-.39.03-.58.1-2.55.93-4.82 2.38-6.75 4.3a18.372 18.372 0 0 0-4.1 6.21c-.18.44-.16.94.05 1.37.21.44.59.77 1.06.91l7.03 2.17c.17.05.34.08.51.08.66 0 1.27-.38 1.55-.97.38-.8.89-1.53 1.52-2.16.71-.71 1.54-1.26 2.46-1.65.8-.34 1.22-1.23.98-2.07l-2.06-7.04c-.23-.73-.91-1.25-1.67-1.25zm11.62.03c-.75 0-1.43.5-1.65 1.23l-2.16 7c-.26.86.15 1.76.97 2.1.94.39 1.77.95 2.49 1.66.89.89 1.54 1.96 1.91 3.17.22.72.88 1.2 1.64 1.2.17 0 .33-.02.49-.07l7.01-2.06c.44-.13.82-.44 1.04-.84.22-.41.27-.87.13-1.31-.88-2.89-2.48-5.56-4.62-7.7a18.33 18.33 0 0 0-6.67-4.27c-.18-.07-.38-.11-.58-.11zM102 36c-1.6 0-3.11.62-4.24 1.76-2.34 2.34-2.34 6.15 0 8.48C98.89 47.38 100.4 48 102 48s3.11-.62 4.24-1.76c2.34-2.34 2.34-6.15 0-8.48A5.97 5.97 0 0 0 102 36zm9.04 7.14c-.76 0-1.42.48-1.64 1.2a7.691 7.691 0 0 1-1.91 3.15c-.86.86-1.88 1.49-3.04 1.87-.88.29-1.37 1.22-1.1 2.12l2.06 7.02c.22.74.9 1.25 1.66 1.25.17 0 .34-.03.51-.08 2.82-.89 5.43-2.47 7.53-4.57 2.11-2.11 3.7-4.73 4.58-7.57.14-.44.09-.9-.12-1.31-.22-.41-.58-.72-1.03-.85l-6.98-2.16c-.17-.04-.35-.07-.52-.07zm-17.71 1c-.17 0-.33.02-.5.07l-7.04 2.06c-.46.14-.85.46-1.07.89-.21.43-.24.92-.07 1.36.93 2.48 2.36 4.69 4.24 6.58 2.02 2.02 4.42 3.52 7.11 4.43.18.06.36.09.55.09.75 0 1.43-.5 1.65-1.22l2.16-6.99a1.73 1.73 0 0 0-1.04-2.13 7.608 7.608 0 0 1-2.81-1.8 7.726 7.726 0 0 1-1.6-2.34c-.27-.6-.89-1-1.58-1z" opacity=".2"/></svg>