<svg xmlns="http://www.w3.org/2000/svg" viewBox="0 0 128 128"><linearGradient id="a" x1="64" x2="64" y1="3.402" y2="125.11" gradientUnits="userSpaceOnUse"><stop offset="0" stop-color="#616161"/><stop offset="1" stop-color="#212121"/></linearGradient><path fill="url(#a)" d="M92.31 7.31C89.21 6.51 81 4 64 4S37.39 6.81 35.69 7.31C33.59 7.81 32 9.9 32 12v104c0 2.1 1.59 4.19 3.69 4.69C37.39 121.19 47 124 64 124s25.21-2.51 28.31-3.31c2.1-.5 3.69-2.59 3.69-4.69V12c0-2.1-1.59-4.19-3.69-4.69z"/><path fill="#212121" d="M78 16H50c-1.1 0-2-.9-2-2s.9-2 2-2h28c1.1 0 2 .9 2 2s-.9 2-2 2z"/><linearGradient id="b" x1="64" x2="64" y1="37" y2="119.11" gradientUnits="userSpaceOnUse"><stop offset="0" stop-color="#29B6F6"/><stop offset="1" stop-color="#0288D1"/></linearGradient><path fill="url(#b)" d="M86 104H42c-1.1 0-2-.9-2-2V26c0-1.1.9-2 2-2h44c1.1 0 2 .9 2 2v76c0 1.1-.9 2-2 2z"/><circle cx="42" cy="14" r="2" fill="#9E9E9E"/><path fill="#eee" d="M78 13c.55 0 1 .45 1 1s-.45 1-1 1H50c-.55 0-1-.45-1-1s.45-1 1-1h28m0-1H50c-1.1 0-2 .9-2 2s.9 2 2 2h28c1.1 0 2-.9 2-2s-.9-2-2-2z" opacity=".2"/><path fill="#424242" d="M42 13c.55 0 1 .45 1 1s-.45 1-1 1-1-.45-1-1 .45-1 1-1m0-1c-1.1 0-2 .9-2 2s.9 2 2 2 2-.9 2-2-.9-2-2-2zm44 12c1.1 0 2 .9 2 2v76c0 1.1-.9 2-2 2H42c-1.1 0-2-.9-2-2V26c0-1.1.9-2 2-2h44m0-3H42c-2.76 0-5 2.24-5 5v76c0 2.76 2.24 5 5 5h44c2.76 0 5-2.24 5-5V26c0-2.76-2.24-5-5-5z" opacity=".2"/><path fill="#eee" d="M64 7c15.45 0 23.43 2.12 26.84 3.03.27.07.51.14.73.19l.06.02c.7.16 1.37 1.02 1.37 1.76v104c0 .74-.67 1.6-1.38 1.77l-.06.02c-.22.06-.46.12-.73.19-3.4.9-11.38 3.02-26.83 3.02-15 0-24.2-2.23-27.47-3.19l-.16-.04c-.7-.17-1.37-1.03-1.37-1.77V12c0-.74.67-1.6 1.38-1.77l.16-.04C39.8 9.23 49 7 64 7m0-3C47 4 37.39 6.81 35.69 7.31 33.59 7.81 32 9.9 32 12v104c0 2.1 1.59 4.19 3.69 4.69C37.39 121.19 47 124 64 124s25.21-2.51 28.31-3.31c2.1-.5 3.69-2.59 3.69-4.69V12c0-2.1-1.59-4.19-3.69-4.69C89.21 6.51 81 4 64 4z" opacity=".2"/><linearGradient id="c" x1="12" x2="12" y1="16.894" y2="112.89" gradientUnits="userSpaceOnUse"><stop offset="0" stop-color="#FFAB40"/><stop offset=".307" stop-color="#FF9C30"/><stop offset=".904" stop-color="#FF7407"/><stop offset="1" stop-color="#FF6D00"/></linearGradient><path fill="url(#c)" d="M19.47 75.87 13.9 64l5.57-11.87c.71-1.51.71-3.31 0-4.81L13.9 35.46l5.57-11.87c1.16-2.47.33-5.59-1.86-6.94-.69-.42-1.47-.65-2.26-.65-1.74 0-3.32 1.06-4.13 2.78l-6.7 14.27a5.697 5.697 0 0 0 0 4.81l5.57 11.87-5.56 11.86a5.697 5.697 0 0 0 0 4.81l5.57 11.87-5.57 11.87a5.697 5.697 0 0 0 0 4.81l6.7 14.27c.81 1.71 2.39 2.78 4.12 2.78.79 0 1.57-.23 2.26-.65 2.19-1.35 3.02-4.47 1.86-6.94L13.9 92.54l5.57-11.87c.71-1.5.71-3.3 0-4.8z"/><linearGradient id="d" x1="108" x2="108" y1="16.894" y2="112.89" gradientTransform="matrix(-1 0 0 1 224 0)" gradientUnits="userSpaceOnUse"><stop offset="0" stop-color="#FFAB40"/><stop offset=".307" stop-color="#FF9C30"/><stop offset=".904" stop-color="#FF7407"/><stop offset="1" stop-color="#FF6D00"/></linearGradient><path fill="url(#d)" d="M108.53 75.87 114.1 64l-5.57-11.87a5.697 5.697 0 0 1 0-4.81l5.57-11.87-5.57-11.87c-1.16-2.47-.33-5.59 1.86-6.94.69-.43 1.47-.65 2.25-.65 1.74 0 3.32 1.06 4.13 2.78l6.7 14.27c.71 1.51.71 3.31 0 4.81l-5.57 11.87 5.57 11.87c.71 1.51.71 3.31 0 4.81l-5.57 11.87 5.57 11.87c.71 1.51.71 3.31 0 4.81l-6.7 14.27c-.81 1.71-2.39 2.78-4.12 2.78-.79 0-1.57-.23-2.26-.65-2.19-1.35-3.02-4.47-1.86-6.94l5.57-11.87-5.57-11.87c-.71-1.5-.71-3.3 0-4.8z"/><path fill="#424242" d="M15.35 19c.23 0 .46.07.68.2.89.55 1.23 2.03.72 3.11l-5.57 11.87c-.38.81-.38 1.74 0 2.55l5.57 11.87c.33.7.33 1.57 0 2.26l-5.57 11.87c-.38.81-.38 1.74 0 2.55l5.57 11.87c.33.7.33 1.57 0 2.26l-5.57 11.87c-.38.81-.38 1.74 0 2.55l5.57 11.86c.51 1.08.16 2.57-.72 3.11-.21.13-.45.2-.68.2-.56 0-1.1-.4-1.41-1.05l-6.7-14.27c-.33-.7-.33-1.57 0-2.26l5.57-11.87c.38-.81.38-1.74 0-2.55L7.25 65.13c-.33-.7-.33-1.57 0-2.26L12.81 51c.38-.81.38-1.74 0-2.55L7.25 36.59c-.33-.7-.33-1.57 0-2.26l6.7-14.27c.3-.67.83-1.06 1.4-1.06m0-3c-1.74 0-3.32 1.06-4.13 2.78l-6.7 14.27a5.697 5.697 0 0 0 0 4.81l5.57 11.87-5.56 11.86a5.697 5.697 0 0 0 0 4.81l5.57 11.87-5.57 11.87a5.697 5.697 0 0 0 0 4.81l6.7 14.27c.81 1.71 2.39 2.78 4.12 2.78.79 0 1.57-.23 2.26-.65 2.19-1.35 3.02-4.47 1.86-6.94L13.9 92.54l5.57-11.87c.71-1.51.71-3.31 0-4.81L13.9 64l5.57-11.87c.71-1.51.71-3.31 0-4.81L13.9 35.46l5.57-11.87c1.16-2.47.33-5.59-1.86-6.94-.69-.42-1.47-.65-2.26-.65zm97.3 3c.57 0 1.1.39 1.41 1.05l6.7 14.27c.33.7.33 1.57 0 2.26l-5.57 11.87c-.38.81-.38 1.74 0 2.55l5.57 11.86c.33.7.33 1.57 0 2.26L115.19 77c-.38.81-.38 1.74 0 2.55l5.57 11.86c.33.7.33 1.57 0 2.26l-6.7 14.27c-.31.65-.85 1.05-1.41 1.05-.23 0-.46-.07-.68-.2-.89-.55-1.23-2.03-.72-3.11l5.57-11.87c.38-.81.38-1.74 0-2.55l-5.57-11.86c-.33-.7-.33-1.57 0-2.26l5.57-11.87c.38-.81.38-1.74 0-2.55l-5.57-11.87c-.33-.7-.33-1.57 0-2.26l5.57-11.87c.38-.81.38-1.74 0-2.55l-5.57-11.87c-.51-1.08-.16-2.57.73-3.11.21-.12.44-.19.67-.19m0-3c-.79 0-1.57.23-2.25.65-2.19 1.35-3.02 4.46-1.86 6.94l5.57 11.87-5.57 11.87a5.697 5.697 0 0 0 0 4.81L114.1 64l-5.57 11.87a5.697 5.697 0 0 0 0 4.81l5.57 11.87-5.57 11.87c-1.16 2.47-.32 5.59 1.86 6.94.69.43 1.47.65 2.26.65 1.74 0 3.32-1.06 4.12-2.78l6.7-14.27c.71-1.51.71-3.31 0-4.81l-5.57-11.87 5.57-11.87c.71-1.51.71-3.31 0-4.81l-5.57-11.87 5.57-11.87c.71-1.51.71-3.31 0-4.81l-6.7-14.27c-.8-1.72-2.38-2.78-4.12-2.78z" opacity=".2"/></svg>