<svg xmlns="http://www.w3.org/2000/svg" xmlns:xlink="http://www.w3.org/1999/xlink" viewBox="0 0 128 128"><linearGradient id="a" x1="63.986" x2="63.986" y1="3.402" y2="125.11" gradientUnits="userSpaceOnUse"><stop offset="0" stop-color="#616161"/><stop offset="1" stop-color="#212121"/></linearGradient><path fill="url(#a)" d="M92.3 7.31C89.2 6.51 80.99 4 63.99 4S37.37 6.81 35.67 7.31c-2.1.5-3.69 2.59-3.69 4.69v104c0 2.1 1.59 4.19 3.69 4.69 1.7.5 11.31 3.31 28.31 3.31s25.21-2.51 28.31-3.31c2.1-.5 3.69-2.59 3.69-4.69V12c.01-2.1-1.58-4.19-3.68-4.69z"/><path fill="#212121" d="M77.99 116h-28c-1.1 0-2-.9-2-2s.9-2 2-2h28c1.1 0 2 .9 2 2s-.9 2-2 2z"/><radialGradient id="b" cx="63.236" cy="24.5" r="79.857" gradientUnits="userSpaceOnUse"><stop offset="0" stop-color="#757575"/><stop offset="1" stop-color="#424242"/></radialGradient><path fill="url(#b)" d="M85.99 104h-44c-1.1 0-2-.9-2-2V26c0-1.1.9-2 2-2h44c1.1 0 2 .9 2 2v76c0 1.1-.9 2-2 2z"/><path fill="#eee" d="M77.99 113c.55 0 1 .45 1 1s-.45 1-1 1h-28c-.55 0-1-.45-1-1s.45-1 1-1h28m0-1h-28c-1.1 0-2 .9-2 2s.9 2 2 2h28c1.1 0 2-.9 2-2s-.9-2-2-2z" opacity=".2"/><path fill="#424242" d="M85.99 24c1.1 0 2 .9 2 2v76c0 1.1-.9 2-2 2h-44c-1.1 0-2-.9-2-2V26c0-1.1.9-2 2-2h44m0-3h-44c-2.76 0-5 2.24-5 5v76c0 2.76 2.24 5 5 5h44c2.76 0 5-2.24 5-5V26c0-2.76-2.25-5-5-5z" opacity=".2"/><path fill="#eee" d="M63.99 7c15.45 0 23.43 2.12 26.84 3.03.27.07.51.14.73.19l.06.02c.71.17 1.38 1.03 1.38 1.77V116c0 .74-.67 1.6-1.38 1.77l-.06.02c-.22.06-.46.12-.73.19-3.41.91-11.39 3.03-26.84 3.03-15 0-24.2-2.23-27.47-3.19l-.16-.04c-.71-.17-1.38-1.03-1.38-1.77V12c0-.74.67-1.6 1.38-1.77l.16-.04C39.78 9.23 48.99 7 63.99 7m0-3c-17 0-26.61 2.81-28.31 3.31-2.1.5-3.69 2.59-3.69 4.69v104c0 2.1 1.59 4.19 3.69 4.69 1.7.5 11.31 3.31 28.31 3.31s25.21-2.51 28.31-3.31c2.1-.5 3.69-2.59 3.69-4.69V12c0-2.1-1.59-4.19-3.69-4.69C89.2 6.51 80.99 4 63.99 4z" opacity=".2"/><defs><path id="c" d="M92.3 7.31C89.2 6.51 80.99 4 63.99 4S37.37 6.81 35.67 7.31c-2.1.5-3.69 2.59-3.69 4.69v104c0 2.1 1.59 4.19 3.69 4.69 1.7.5 11.31 3.31 28.31 3.31s25.21-2.51 28.31-3.31c2.1-.5 3.69-2.59 3.69-4.69V12c.01-2.1-1.58-4.19-3.68-4.69z"/></defs><clipPath id="d"><use xlink:href="#c"/></clipPath><g fill="#424242" clip-path="url(#d)" opacity=".2"><path d="M25.54 38.71c4.17 0 7.89.99 11.16 2.98 3.27 1.98 5.81 4.81 7.62 8.47s2.73 7.86 2.76 12.6v2.27c0 4.8-.89 9.05-2.67 12.75s-4.31 6.54-7.59 8.54c-3.28 1.99-7.02 2.99-11.21 2.99s-7.91-.96-11.16-2.89-5.78-4.68-7.59-8.27C5.04 74.55 4.09 70.44 4 65.79v-2.77c0-4.82.88-9.08 2.65-12.76 1.77-3.69 4.3-6.53 7.61-8.54 3.3-2.01 7.06-3.01 11.28-3.01m.07 41.32c3 0 5.31-1.27 6.93-3.82s2.45-6.21 2.47-10.99v-2.27c0-4.89-.82-8.61-2.45-11.14-1.63-2.54-3.97-3.8-7.02-3.8-5.95 0-9.1 4.46-9.43 13.39l-.03 3.62c0 4.82.8 8.53 2.4 11.12 1.59 2.59 3.97 3.89 7.13 3.89m-.07-44.32c-4.75 0-9.07 1.16-12.83 3.45-3.79 2.3-6.74 5.6-8.75 9.8C1.99 53.03 1 57.76 1 63.02v2.83c.1 5.08 1.17 9.67 3.18 13.64 2.07 4.08 5.01 7.28 8.74 9.49 3.7 2.2 7.97 3.31 12.69 3.31 4.73 0 9.03-1.15 12.77-3.43 3.77-2.29 6.71-5.59 8.73-9.8 1.97-4.09 2.97-8.82 2.97-14.05v-2.27c-.02-5.19-1.06-9.87-3.07-13.93-2.06-4.16-5.01-7.43-8.76-9.7-3.73-2.25-8-3.4-12.71-3.4zM19.1 61.47c.41-10.46 4.63-10.46 6.43-10.46 2.03 0 3.41.75 4.49 2.43 1.31 2.03 1.97 5.23 1.97 9.52v2.27c-.02 4.17-.69 7.33-2 9.38-1.07 1.68-2.43 2.43-4.4 2.43-2.12 0-3.53-.76-4.58-2.46-1.3-2.1-1.95-5.31-1.95-9.55l.04-3.56zm65.03-22.09c1.1 0 2 .9 2 2v5.16c0 1.1-.9 2-2 2H67.07c-1.1 0-2 .9-2 2v7.33c0 1.1.9 2 2 2H82.2c1.1 0 2 .9 2 2V67c0 1.1-.9 2-2 2H67.07c-1.1 0-2 .9-2 2v15.61c0 1.1-.9 2-2 2H55.2c-1.1 0-2-.9-2-2V41.38c0-1.1.9-2 2-2h28.93m0-3H55.2c-2.76 0-5 2.24-5 5v45.23c0 2.76 2.24 5 5 5h7.87c2.76 0 5-2.24 5-5V72H82.2c2.76 0 5-2.24 5-5v-5.13c0-2.76-2.24-5-5-5H68.07v-5.33h16.06c2.76 0 5-2.24 5-5v-5.16c0-2.75-2.24-5-5-5z"/><path d="M122 39.38c1.1 0 2 .9 2 2v5.16c0 1.1-.9 2-2 2h-17.06c-1.1 0-2 .9-2 2v7.33c0 1.1.9 2 2 2h15.14c1.1 0 2 .9 2 2V67c0 1.1-.9 2-2 2h-15.14c-1.1 0-2 .9-2 2v15.61c0 1.1-.9 2-2 2h-7.87c-1.1 0-2-.9-2-2V41.38c0-1.1.9-2 2-2H122m0-3H93.07c-2.76 0-5 2.24-5 5v45.23c0 2.76 2.24 5 5 5h7.87c2.76 0 5-2.24 5-5V72h14.14c2.76 0 5-2.24 5-5v-5.13c0-2.76-2.24-5-5-5h-14.14v-5.33H122c2.76 0 5-2.24 5-5v-5.16c0-2.75-2.24-5-5-5z"/></g><linearGradient id="e" x1="25.538" x2="25.538" y1="38.805" y2="89.388" gradientUnits="userSpaceOnUse"><stop offset="0" stop-color="#FF9100"/><stop offset=".498" stop-color="#FF8100"/><stop offset="1" stop-color="#FF6D00"/></linearGradient><path fill="url(#e)" d="M47.08 65.01c0 4.8-.89 9.05-2.67 12.75s-4.31 6.54-7.59 8.54c-3.28 1.99-7.02 2.99-11.21 2.99s-7.91-.96-11.16-2.89-5.78-4.68-7.59-8.27C5.04 74.55 4.09 70.44 4 65.79v-2.77c0-4.82.88-9.08 2.65-12.76 1.77-3.69 4.3-6.53 7.61-8.54 3.3-2.01 7.06-3.01 11.28-3.01 4.17 0 7.89.99 11.16 2.98 3.27 1.98 5.81 4.81 7.62 8.47s2.73 7.86 2.76 12.6v2.25zm-12.07-2.06c0-4.89-.82-8.61-2.45-11.14-1.63-2.54-3.97-3.8-7.02-3.8-5.95 0-9.1 4.46-9.43 13.39l-.03 3.62c0 4.82.8 8.53 2.4 11.12s3.98 3.89 7.13 3.89c3 0 5.31-1.27 6.93-3.82s2.45-6.21 2.47-10.99v-2.27z"/><linearGradient id="f" x1="69.663" x2="69.663" y1="38.805" y2="89.42" gradientUnits="userSpaceOnUse"><stop offset="0" stop-color="#FF9100"/><stop offset=".498" stop-color="#FF8100"/><stop offset="1" stop-color="#FF6D00"/></linearGradient><path fill="url(#f)" d="M82.2 69H67.07c-1.1 0-2 .9-2 2v15.61c0 1.1-.9 2-2 2H55.2c-1.1 0-2-.9-2-2V41.38c0-1.1.9-2 2-2h28.93c1.1 0 2 .9 2 2v5.16c0 1.1-.9 2-2 2H67.07c-1.1 0-2 .9-2 2v7.33c0 1.1.9 2 2 2H82.2c1.1 0 2 .9 2 2V67c0 1.11-.89 2-2 2z"/><linearGradient id="g" x1="107.53" x2="107.53" y1="38.805" y2="89.42" gradientUnits="userSpaceOnUse"><stop offset="0" stop-color="#FF9100"/><stop offset=".498" stop-color="#FF8100"/><stop offset="1" stop-color="#FF6D00"/></linearGradient><path fill="url(#g)" d="M120.07 69h-15.14c-1.1 0-2 .9-2 2v15.61c0 1.1-.9 2-2 2h-7.87c-1.1 0-2-.9-2-2V41.38c0-1.1.9-2 2-2H122c1.1 0 2 .9 2 2v5.16c0 1.1-.9 2-2 2h-17.06c-1.1 0-2 .9-2 2v7.33c0 1.1.9 2 2 2h15.14c1.1 0 2 .9 2 2V67c-.01 1.11-.9 2-2.01 2z"/><path fill="#424242" d="M25.54 41.71c3.64 0 6.78.83 9.6 2.54 2.8 1.7 4.92 4.07 6.49 7.24 1.6 3.23 2.42 7.03 2.44 11.26v2.27c0 4.32-.8 8.17-2.37 11.44-1.54 3.19-3.65 5.57-6.45 7.28-2.83 1.72-5.98 2.56-9.65 2.56-3.63 0-6.86-.83-9.63-2.47-2.77-1.65-4.88-3.95-6.45-7.04C7.94 73.62 7.08 69.92 7 65.76v-2.74c0-4.35.79-8.21 2.36-11.47 1.53-3.18 3.64-5.56 6.46-7.27 2.85-1.73 6.03-2.57 9.72-2.57m.07 41.32c4.02 0 7.29-1.8 9.46-5.21 1.95-3.06 2.91-7.18 2.94-12.6v-2.27c0-5.53-.96-9.71-2.93-12.77C32.9 46.79 29.6 45 25.54 45c-10.28 0-12.2 10.2-12.43 16.28v.09l-.03 3.65c0 5.44.93 9.6 2.85 12.7 2.13 3.47 5.48 5.31 9.68 5.31m-.07-44.32c-4.22 0-7.97 1-11.28 3.01-3.3 2.01-5.84 4.85-7.61 8.54C4.88 53.94 4 58.2 4 63.02v2.77c.09 4.64 1.04 8.76 2.86 12.34 1.81 3.58 4.34 6.34 7.59 8.27s6.97 2.89 11.16 2.89 7.93-1 11.21-2.99 5.81-4.84 7.59-8.54 2.67-7.95 2.67-12.75v-2.27c-.02-4.73-.94-8.93-2.76-12.6-1.81-3.66-4.36-6.49-7.62-8.47-3.27-1.97-6.99-2.96-11.16-2.96zm.07 41.32c-3.16 0-5.53-1.3-7.13-3.89s-2.4-6.3-2.4-11.12l.03-3.62c.34-8.93 3.48-13.39 9.43-13.39 3.04 0 5.38 1.27 7.02 3.8 1.63 2.54 2.45 6.25 2.45 11.14v2.27c-.02 4.78-.85 8.44-2.47 10.99-1.63 2.54-3.94 3.82-6.93 3.82zm57.52-37.65v3.16H67.07c-2.76 0-5 2.24-5 5v7.33c0 2.76 2.24 5 5 5H81.2V66H67.07c-2.76 0-5 2.24-5 5v14.61H56.2V42.38h26.93m1-3H55.2c-1.1 0-2 .9-2 2v45.23c0 1.1.9 2 2 2h7.87c1.1 0 2-.9 2-2V71c0-1.1.9-2 2-2H82.2c1.1 0 2-.9 2-2v-5.13c0-1.1-.9-2-2-2H67.07c-1.1 0-2-.9-2-2v-7.33c0-1.1.9-2 2-2h17.06c1.1 0 2-.9 2-2v-5.16c0-1.1-.9-2-2-2zm36.87 3v3.16h-16.06c-2.76 0-5 2.24-5 5v7.33c0 2.76 2.24 5 5 5h14.14V66h-14.14c-2.76 0-5 2.24-5 5v14.61h-5.87V42.38H121m1-3H93.07c-1.1 0-2 .9-2 2v45.23c0 1.1.9 2 2 2h7.87c1.1 0 2-.9 2-2V71c0-1.1.9-2 2-2h15.14c1.1 0 2-.9 2-2v-5.13c0-1.1-.9-2-2-2h-15.14c-1.1 0-2-.9-2-2v-7.33c0-1.1.9-2 2-2H122c1.1 0 2-.9 2-2v-5.16c0-1.1-.9-2-2-2z" opacity=".2"/></svg>