<svg xmlns="http://www.w3.org/2000/svg" viewBox="0 0 128 128"><linearGradient id="a" x1="8" x2="8" y1="35.5" y2="82.715" gradientUnits="userSpaceOnUse"><stop offset="0" stop-color="#BBDEFB"/><stop offset=".991" stop-color="#64B5F6"/></linearGradient><path fill="url(#a)" d="M12 84H9.66C6.53 84 4 81.47 4 78.34V41.66C4 38.53 6.53 36 9.66 36H12v48z"/><linearGradient id="b" x1="120" x2="120" y1="31.5" y2="58.169" gradientUnits="userSpaceOnUse"><stop offset="0" stop-color="#BBDEFB"/><stop offset=".991" stop-color="#64B5F6"/></linearGradient><path fill="url(#b)" d="M121.11 57.22 116 53.5V36.03l5.11-3.72c1.33-.97 2.89.44 2.89 2.61v19.7c0 2.16-1.56 3.57-2.89 2.6z"/><radialGradient id="c" cx="112.5" cy="36.333" r="17.013" gradientUnits="userSpaceOnUse"><stop offset="0" stop-color="#90CAF9"/><stop offset=".989" stop-color="#42A5F5"/></radialGradient><path fill="url(#c)" d="M100 36.03h16v17.48h-16z"/><radialGradient id="d" cx="16" cy="36.333" r="48.448" gradientUnits="userSpaceOnUse"><stop offset="0" stop-color="#90CAF9"/><stop offset=".989" stop-color="#42A5F5"/></radialGradient><path fill="url(#d)" d="M12 36h20v48H12z"/><radialGradient id="e" cx="202" cy="66.333" r="20.652" gradientUnits="userSpaceOnUse"><stop offset="0" stop-color="#90CAF9"/><stop offset=".989" stop-color="#42A5F5"/></radialGradient><path fill="url(#e)" d="M192 68h20v20h-20z"/><path fill="#424242" d="M29 39v42H9.66C8.19 81 7 79.81 7 78.34V41.66C7 40.19 8.19 39 9.66 39H29m3-3H9.66C6.53 36 4 38.53 4 41.66v36.69C4 81.47 6.53 84 9.66 84H32V36zm89 .1v17.33l-3.23-2.35-.79-.57H103V39.03h13.98l.79-.57L121 36.1m1-4.1c-.3 0-.6.1-.89.31L116 36.03h-16V53.5h16l5.11 3.72c.29.21.6.31.89.31 1.05 0 2-1.23 2-2.92v-19.7c0-1.68-.95-2.91-2-2.91zm87 39v14h-14V71h14m3-3h-20v20h20V68z" opacity=".2"/><radialGradient id="f" cx="175.83" cy="65.167" r="59.167" gradientUnits="userSpaceOnUse"><stop offset="0" stop-color="#BBDEFB"/><stop offset=".231" stop-color="#ACD7FA"/><stop offset=".672" stop-color="#85C5F8"/><stop offset="1" stop-color="#64B5F6"/></radialGradient><path fill="url(#f)" d="M194.09 124h-36.18c-3.26 0-5.91-2.65-5.91-5.91V33.91c0-3.26 2.65-5.91 5.91-5.91h36.18c3.26 0 5.91 2.65 5.91 5.91v84.18c0 3.26-2.65 5.91-5.91 5.91z"/><radialGradient id="g" cx="66" cy="28.833" r="109.16" gradientUnits="userSpaceOnUse"><stop offset="0" stop-color="#BBDEFB"/><stop offset=".196" stop-color="#ACD7FA"/><stop offset=".571" stop-color="#85C5F8"/><stop offset=".85" stop-color="#64B5F6"/><stop offset=".996" stop-color="#64B5F6"/></radialGradient><path fill="url(#g)" d="M104 124H28c-4.42 0-8-3.58-8-8V36c0-4.42 3.58-8 8-8h76c4.42 0 8 3.58 8 8v80c0 4.42-3.58 8-8 8z"/><path fill="#424242" d="M194.09 31c1.6 0 2.91 1.3 2.91 2.91v84.18c0 1.6-1.3 2.91-2.91 2.91h-36.18c-1.6 0-2.91-1.3-2.91-2.91V33.91c0-1.6 1.3-2.91 2.91-2.91h36.18m0-3h-36.18c-3.26 0-5.91 2.65-5.91 5.91v84.18c0 3.26 2.65 5.91 5.91 5.91h36.18c3.26 0 5.91-2.65 5.91-5.91V33.91c0-3.26-2.65-5.91-5.91-5.91zM104 31c2.76 0 5 2.24 5 5v80c0 2.76-2.24 5-5 5H28c-2.76 0-5-2.24-5-5V36c0-2.76 2.24-5 5-5h76m0-3H28c-4.42 0-8 3.58-8 8v80c0 4.42 3.58 8 8 8h76c4.42 0 8-3.58 8-8V36c0-4.42-3.58-8-8-8z" opacity=".2"/><path fill="none" d="M96 108H44c-2.21 0-4-1.79-4-4V72c0-2.21 1.79-4 4-4h52c2.21 0 4 1.79 4 4v32c0 2.21-1.79 4-4 4z" opacity=".2"/><path fill="#1565C0" d="M64 52c2.21 0 4 1.79 4 4s-1.79 4-4 4-4-1.79-4-4 1.79-4 4-4m0-1c-2.76 0-5 2.24-5 5s2.24 5 5 5 5-2.24 5-5-2.24-5-5-5zm12 1c2.21 0 4 1.79 4 4s-1.79 4-4 4-4-1.79-4-4 1.79-4 4-4m0-1c-2.76 0-5 2.24-5 5s2.24 5 5 5 5-2.24 5-5-2.24-5-5-5zm20 1c2.2 0 4 1.8 4 4s-1.8 4-4 4h-8c-2.2 0-4-1.8-4-4s1.8-4 4-4h8m0-1h-8c-2.76 0-5 2.24-5 5s2.24 5 5 5h8c2.76 0 5-2.24 5-5s-2.24-5-5-5zm0 16H44c-2.76 0-5 2.24-5 5v2.9c-.3-.19-.66-.3-1.04-.3h-2c-1.1 0-2 .9-2 2v22c0 1.1.9 2 2 2h2c.38 0 .74-.11 1.04-.3v3.7c0 2.76 2.24 5 5 5h52c2.76 0 5-2.24 5-5V72c0-2.76-2.24-5-5-5zM38.96 98.6c0 .55-.45 1-1 1h-2c-.55 0-1-.45-1-1v-22c0-.55.45-1 1-1h2c.55 0 1 .45 1 1v22zM100 104c0 2.21-1.79 4-4 4H44c-2.21 0-4-1.79-4-4V72c0-2.21 1.79-4 4-4h52c2.21 0 4 1.79 4 4v32zm88-4c2.2 0 4 1.8 4 4v8c0 2.2-1.8 4-4 4s-4-1.8-4-4v-8c0-2.2 1.8-4 4-4m0-1c-2.76 0-5 2.24-5 5v8c0 2.76 2.24 5 5 5s5-2.24 5-5v-8c0-2.76-2.24-5-5-5z" opacity=".2"/><radialGradient id="h" cx="69.333" cy="68.667" r="39.953" gradientUnits="userSpaceOnUse"><stop offset="0" stop-color="#64B5F6"/><stop offset="1" stop-color="#42A5F5"/></radialGradient><path fill="url(#h)" d="M96 108H44c-2.21 0-4-1.79-4-4V72c0-2.21 1.79-4 4-4h52c2.21 0 4 1.79 4 4v32c0 2.21-1.79 4-4 4z"/><radialGradient id="i" cx="69.833" cy="73.5" r="39.501" gradientTransform="matrix(0 1 -1.1941 0 157.6 3.667)" gradientUnits="userSpaceOnUse"><stop offset="0" stop-color="#B3E5FC"/><stop offset="1" stop-color="#4FC3F7"/></radialGradient><path fill="url(#i)" d="M92 104H48c-2.21 0-4-1.79-4-4V76c0-2.21 1.79-4 4-4h44c2.21 0 4 1.79 4 4v24c0 2.21-1.79 4-4 4z"/><radialGradient id="j" cx="234" cy="58.833" r="48.007" gradientUnits="userSpaceOnUse"><stop offset="0" stop-color="#BBDEFB"/><stop offset=".196" stop-color="#ACD7FA"/><stop offset=".571" stop-color="#85C5F8"/><stop offset=".85" stop-color="#64B5F6"/><stop offset=".996" stop-color="#64B5F6"/></radialGradient><path fill="url(#j)" d="M260 100h-52c-2.21 0-4-1.79-4-4V64c0-2.21 1.79-4 4-4h52c2.21 0 4 1.79 4 4v32c0 2.21-1.79 4-4 4z"/><radialGradient id="k" cx="233.67" cy="68.167" r="34.167" gradientTransform="matrix(0 1 -1.0853 0 307.65 -165.5)" gradientUnits="userSpaceOnUse"><stop offset="0" stop-color="#B3E5FC"/><stop offset="1" stop-color="#4FC3F7"/></radialGradient><path fill="url(#k)" d="M253.04 92.93h-38.07c-1.1 0-2-.9-2-2v-22c0-1.1.9-2 2-2h38.07c1.1 0 2 .9 2 2v22a2 2 0 0 1-2 2z"/><linearGradient id="l" x1="36.958" x2="36.958" y1="70.333" y2="94.929" gradientUnits="userSpaceOnUse"><stop offset="0" stop-color="#64B5F6"/><stop offset=".214" stop-color="#5EB2F6"/><stop offset=".511" stop-color="#4CAAF5"/><stop offset=".857" stop-color="#2E9CF4"/><stop offset=".987" stop-color="#2196F3"/></linearGradient><path fill="url(#l)" d="M37.96 99.6h-2c-.55 0-1-.45-1-1v-22c0-.55.45-1 1-1h2c.55 0 1 .45 1 1v22c0 .55-.45 1-1 1z"/><linearGradient id="m" x1="64" x2="64" y1="51.333" y2="62.338" gradientUnits="userSpaceOnUse"><stop offset="0" stop-color="#64B5F6"/><stop offset=".214" stop-color="#5EB2F6"/><stop offset=".511" stop-color="#4CAAF5"/><stop offset=".857" stop-color="#2E9CF4"/><stop offset=".987" stop-color="#2196F3"/></linearGradient><circle cx="64" cy="56" r="4" fill="url(#m)"/><linearGradient id="n" x1="76" x2="76" y1="51.333" y2="62.338" gradientUnits="userSpaceOnUse"><stop offset="0" stop-color="#64B5F6"/><stop offset=".214" stop-color="#5EB2F6"/><stop offset=".511" stop-color="#4CAAF5"/><stop offset=".857" stop-color="#2E9CF4"/><stop offset=".987" stop-color="#2196F3"/></linearGradient><circle cx="76" cy="56" r="4" fill="url(#n)"/><linearGradient id="o" x1="92" x2="92" y1="51.333" y2="62.338" gradientUnits="userSpaceOnUse"><stop offset="0" stop-color="#64B5F6"/><stop offset=".214" stop-color="#5EB2F6"/><stop offset=".511" stop-color="#4CAAF5"/><stop offset=".857" stop-color="#2E9CF4"/><stop offset=".987" stop-color="#2196F3"/></linearGradient><path fill="url(#o)" d="M96 60h-8c-2.2 0-4-1.8-4-4s1.8-4 4-4h8c2.2 0 4 1.8 4 4s-1.8 4-4 4z"/><linearGradient id="p" x1="188" x2="188" y1="99.667" y2="116.58" gradientUnits="userSpaceOnUse"><stop offset="0" stop-color="#64B5F6"/><stop offset=".214" stop-color="#5EB2F6"/><stop offset=".511" stop-color="#4CAAF5"/><stop offset=".857" stop-color="#2E9CF4"/><stop offset=".987" stop-color="#2196F3"/></linearGradient><path fill="url(#p)" d="M192 104v8c0 2.2-1.8 4-4 4s-4-1.8-4-4v-8c0-2.2 1.8-4 4-4s4 1.8 4 4z"/><path fill="#1565C0" d="M34 40c1.1 0 2 .9 2 2s-.9 2-2 2-2-.9-2-2 .9-2 2-2m0-2c-2.21 0-4 1.79-4 4s1.79 4 4 4 4-1.79 4-4-1.79-4-4-4zm0 10c1.1 0 2 .9 2 2s-.9 2-2 2-2-.9-2-2 .9-2 2-2m0-2c-2.21 0-4 1.79-4 4s1.79 4 4 4 4-1.79 4-4-1.79-4-4-4z" opacity=".2"/><linearGradient id="q" x1="34" x2="34" y1="39.75" y2="43.768" gradientUnits="userSpaceOnUse"><stop offset="0" stop-color="#FF1744"/><stop offset="1" stop-color="#D50000"/></linearGradient><circle cx="34" cy="42" r="2" fill="url(#q)"/><linearGradient id="r" x1="34" x2="34" y1="47.75" y2="51.768" gradientUnits="userSpaceOnUse"><stop offset="0" stop-color="#76FF03"/><stop offset="1" stop-color="#64DD17"/></linearGradient><circle cx="34" cy="50" r="2" fill="url(#r)"/><path fill="#1565C0" d="M187.83 79.83c1.1 0 2 .9 2 2s-.9 2-2 2-2-.9-2-2 .9-2 2-2m0-2c-2.21 0-4 1.79-4 4s1.79 4 4 4a3.999 3.999 0 1 0 0-8zm0 10c1.1 0 2 .9 2 2s-.9 2-2 2-2-.9-2-2 .9-2 2-2m0-2c-2.21 0-4 1.79-4 4s1.79 4 4 4a3.999 3.999 0 1 0 0-8z" opacity=".2"/><linearGradient id="s" x1="187.83" x2="187.83" y1="79.583" y2="83.601" gradientUnits="userSpaceOnUse"><stop offset="0" stop-color="#FF1744"/><stop offset="1" stop-color="#D50000"/></linearGradient><circle cx="187.83" cy="81.83" r="2" fill="url(#s)"/><linearGradient id="t" x1="187.83" x2="187.83" y1="87.583" y2="91.601" gradientUnits="userSpaceOnUse"><stop offset="0" stop-color="#76FF03"/><stop offset="1" stop-color="#64DD17"/></linearGradient><circle cx="187.83" cy="89.83" r="2" fill="url(#t)"/><radialGradient id="u" cx="175.83" cy="3" r="65.208" gradientTransform="matrix(-.0175 .9998 -1.9997 -.0349 184.9 -172.7)" gradientUnits="userSpaceOnUse"><stop offset="0" stop-color="#BBDEFB"/><stop offset=".996" stop-color="#64B5F6"/></radialGradient><circle cx="176" cy="36" r="32" fill="url(#u)"/><linearGradient id="v" x1="176" x2="176" y1="9.873" y2="61.746" gradientUnits="userSpaceOnUse"><stop offset="0" stop-color="#0288D1"/><stop offset="1" stop-color="#01579B"/></linearGradient><circle cx="176" cy="36" r="26" fill="url(#v)"/><radialGradient id="w" cx="175.83" cy="12.5" r="46.181" gradientUnits="userSpaceOnUse"><stop offset="0" stop-color="#29B6F6"/><stop offset="1" stop-color="#0288D1"/></radialGradient><circle cx="176" cy="36" r="23" fill="url(#w)"/><radialGradient id="x" cx="175.67" cy="25.167" r="21.173" gradientUnits="userSpaceOnUse"><stop offset="0" stop-color="#1E88E5"/><stop offset="1" stop-color="#0D47A1"/></radialGradient><circle cx="176" cy="36" r="10" fill="url(#x)"/><path fill="#eee" d="M176 26c5.52 0 10 4.48 10 10s-4.48 10-10 10-10-4.48-10-10 4.48-10 10-10m0-3c-7.17 0-13 5.83-13 13s5.83 13 13 13 13-5.83 13-13-5.83-13-13-13z" opacity=".2"/><path fill="#424242" d="M176 28c4.41 0 8 3.59 8 8s-3.59 8-8 8-8-3.59-8-8 3.59-8 8-8m0-2c-5.52 0-10 4.48-10 10s4.48 10 10 10 10-4.48 10-10-4.48-10-10-10zm84 37c.55 0 1 .45 1 1v32c0 .55-.45 1-1 1h-52c-.55 0-1-.45-1-1V64c0-.55.45-1 1-1h52m0-3h-52c-2.21 0-4 1.79-4 4v32c0 2.21 1.79 4 4 4h52c2.21 0 4-1.79 4-4V64c0-2.21-1.79-4-4-4z" opacity=".2"/><path fill="#424242" d="M176 7c15.99 0 29 13.01 29 29s-13.01 29-29 29-29-13.01-29-29 13.01-29 29-29m0-3c-17.67 0-32 14.33-32 32s14.33 32 32 32 32-14.33 32-32-14.33-32-32-32z" opacity=".2"/><path fill="none" stroke="#1565C0" stroke-miterlimit="10" stroke-width="2" d="M253.04 92.93h-38.07c-1.1 0-2-.9-2-2v-22c0-1.1.9-2 2-2h38.07c1.1 0 2 .9 2 2v22a2 2 0 0 1-2 2zM92 104H48c-2.21 0-4-1.79-4-4V76c0-2.21 1.79-4 4-4h44c2.21 0 4 1.79 4 4v24c0 2.21-1.79 4-4 4z" opacity=".2"/></svg>