<svg xmlns="http://www.w3.org/2000/svg" viewBox="0 0 128 128"><linearGradient id="a" x1="64" x2="64" y1="3.482" y2="124.52" gradientUnits="userSpaceOnUse"><stop offset="0" stop-color="#FFAB40"/><stop offset="1" stop-color="#FF6D00"/></linearGradient><path fill="url(#a)" d="M64 36c-15.46 0-28 12.54-28 28s12.54 28 28 28 28-12.54 28-28-12.54-28-28-28zm0 44c-8.82 0-16-7.18-16-16s7.18-16 16-16 16 7.18 16 16-7.18 16-16 16zm-4-52h8c1.1 0 2-.9 2-2V6c0-1.1-.9-2-2-2h-8c-1.1 0-2 .9-2 2v20c0 1.1.9 2 2 2zm8 72h-8c-1.1 0-2 .9-2 2v20c0 1.1.9 2 2 2h8c1.1 0 2-.9 2-2v-20c0-1.1-.9-2-2-2z"/><linearGradient id="b" x1="112" x2="112" y1="3.482" y2="124.52" gradientUnits="userSpaceOnUse"><stop offset="0" stop-color="#FFAB40"/><stop offset="1" stop-color="#FF6D00"/></linearGradient><path fill="url(#b)" d="M122 58h-20c-1.1 0-2 .9-2 2v8c0 1.1.9 2 2 2h20c1.1 0 2-.9 2-2v-8c0-1.1-.9-2-2-2z"/><linearGradient id="c" x1="16" x2="16" y1="3.482" y2="124.52" gradientUnits="userSpaceOnUse"><stop offset="0" stop-color="#FFAB40"/><stop offset="1" stop-color="#FF6D00"/></linearGradient><path fill="url(#c)" d="M28 68v-8c0-1.1-.9-2-2-2H6c-1.1 0-2 .9-2 2v8c0 1.1.9 2 2 2h20c1.1 0 2-.9 2-2z"/><linearGradient id="d" x1="98.1" x2="98.1" y1="3.482" y2="124.52" gradientUnits="userSpaceOnUse"><stop offset="0" stop-color="#FFAB40"/><stop offset="1" stop-color="#FF6D00"/></linearGradient><path fill="url(#d)" d="M92.44 41.37c.78.78 2.05.78 2.83 0l14.14-14.14c.78-.78.78-2.05 0-2.83l-5.66-5.66c-.78-.78-2.05-.78-2.83 0L86.79 32.89c-.78.78-.78 2.05 0 2.83l5.65 5.65z"/><linearGradient id="e" x1="30.218" x2="30.218" y1="3.482" y2="124.52" gradientUnits="userSpaceOnUse"><stop offset="0" stop-color="#FFAB40"/><stop offset="1" stop-color="#FF6D00"/></linearGradient><path fill="url(#e)" d="M35.88 86.63c-.78-.78-2.05-.78-2.83 0L18.9 100.77c-.78.78-.78 2.05 0 2.83l5.66 5.66c.78.78 2.05.78 2.83 0l14.14-14.14c.78-.78.78-2.05 0-2.83l-5.65-5.66z"/><path fill="url(#d)" d="M95.27 86.63c-.78-.78-2.05-.78-2.83 0l-5.66 5.66c-.78.78-.78 2.05 0 2.83l14.14 14.14c.78.78 2.05.78 2.83 0l5.66-5.66c.78-.78.78-2.05 0-2.83L95.27 86.63z"/><path fill="url(#e)" d="M33.05 41.37c.78.78 2.05.78 2.83 0l5.66-5.66c.78-.78.78-2.05 0-2.83L27.39 18.75c-.78-.78-2.05-.78-2.83 0L18.9 24.4c-.78.78-.78 2.05 0 2.83l14.15 14.14z"/><path fill="#424242" d="M64 39c13.79 0 25 11.21 25 25S77.79 89 64 89 39 77.79 39 64s11.21-25 25-25m0 44c10.48 0 19-8.52 19-19s-8.52-19-19-19-19 8.52-19 19 8.52 19 19 19m0-47c-15.46 0-28 12.54-28 28s12.54 28 28 28 28-12.54 28-28-12.54-28-28-28zm0 44c-8.82 0-16-7.18-16-16s7.18-16 16-16 16 7.18 16 16-7.18 16-16 16zm3-73v18h-6V7h6m1-3h-8c-1.1 0-2 .9-2 2v20c0 1.1.9 2 2 2h8c1.1 0 2-.9 2-2V6c0-1.1-.9-2-2-2zm-1 99v18h-6v-18h6m1-3h-8c-1.1 0-2 .9-2 2v20c0 1.1.9 2 2 2h8c1.1 0 2-.9 2-2v-20c0-1.1-.9-2-2-2zm53-39v6h-18v-6h18m1-3h-20c-1.1 0-2 .9-2 2v8c0 1.1.9 2 2 2h20c1.1 0 2-.9 2-2v-8c0-1.1-.9-2-2-2zm-97 3v6H7v-6h18m1-3H6c-1.1 0-2 .9-2 2v8c0 1.1.9 2 2 2h20c1.1 0 2-.9 2-2v-8c0-1.1-.9-2-2-2zm76.34-36.43 4.24 4.24-12.72 12.73-4.24-4.24 12.72-12.73m0-3.41c-.51 0-1.02.2-1.41.59L86.79 32.89c-.78.78-.78 2.05 0 2.83l5.66 5.66c.39.39.9.59 1.41.59s1.02-.2 1.41-.59l14.14-14.14c.78-.78.78-2.05 0-2.83l-5.66-5.66c-.38-.4-.9-.59-1.41-.59zm-67.88 71.3 4.24 4.24-12.73 12.73-4.24-4.24 12.73-12.73m0-3.42c-.51 0-1.02.2-1.41.59L18.9 100.77c-.78.78-.78 2.05 0 2.83l5.66 5.66c.39.39.9.59 1.41.59s1.02-.2 1.41-.59l14.14-14.14c.78-.78.78-2.05 0-2.83l-5.66-5.66c-.38-.39-.89-.59-1.4-.59zm59.4 3.42 12.73 12.73-4.24 4.24L89.62 93.7l4.24-4.24m0-3.42c-.51 0-1.02.2-1.41.59l-5.66 5.66c-.78.78-.78 2.05 0 2.83l14.14 14.14c.39.39.9.59 1.41.59s1.02-.2 1.41-.59l5.66-5.66c.78-.78.78-2.05 0-2.83L95.27 86.63c-.39-.39-.9-.59-1.41-.59zM25.98 21.57 38.7 34.3l-4.24 4.24-12.73-12.72 4.25-4.25m0-3.41c-.51 0-1.02.2-1.41.59L18.9 24.4c-.78.78-.78 2.05 0 2.83l14.14 14.14c.39.39.9.59 1.41.59s1.02-.2 1.41-.59l5.66-5.66c.78-.78.78-2.05 0-2.83L27.39 18.75c-.39-.4-.9-.59-1.41-.59z" opacity=".2"/></svg>