<svg xmlns="http://www.w3.org/2000/svg" viewBox="0 0 128 128"><radialGradient id="a" cx="100" cy="15.906" r="106.76" gradientTransform="matrix(1 0 0 1.0016 0 -.1)" gradientUnits="userSpaceOnUse"><stop offset="0" stop-color="#FFB74D"/><stop offset=".221" stop-color="#FEB449"/><stop offset=".453" stop-color="#FDAA3C"/><stop offset=".691" stop-color="#FA9A27"/><stop offset=".93" stop-color="#F6840A"/><stop offset="1" stop-color="#F57C00"/></radialGradient><path fill="url(#a)" d="M116 63.81c0-18.07-12.22-33.34-28.81-37.96-1.27-.35-2.52.62-2.52 1.94v8.41c0 .83.51 1.59 1.28 1.87C96.46 41.88 104 51.98 104 63.81s-7.54 21.93-18.05 25.74c-.78.28-1.28 1.04-1.28 1.87v8.41c0 1.32 1.25 2.29 2.52 1.94C103.78 97.15 116 81.88 116 63.81z"/><path fill="#424242" d="M87.67 29.12C102.65 33.89 113 47.97 113 63.81S102.65 93.72 87.67 98.5v-6.39C99.26 87.58 107 76.3 107 63.81s-7.74-23.77-19.33-28.3v-6.39m-1.01-3.35c-1.07 0-1.99.88-1.99 2.01v8.41c0 .83.51 1.59 1.28 1.87C96.46 41.88 104 51.98 104 63.81s-7.54 21.93-18.05 25.74c-.78.28-1.28 1.04-1.28 1.87v8.41c0 1.13.93 2.01 1.99 2.01.17 0 .35-.02.53-.07C103.78 97.15 116 81.88 116 63.81s-12.22-33.34-28.81-37.96c-.18-.05-.36-.08-.53-.08z" opacity=".2"/><radialGradient id="b" cx="27.167" cy="37.739" r="64.296" gradientTransform="matrix(1 0 0 1.0016 0 -.1)" gradientUnits="userSpaceOnUse"><stop offset="0" stop-color="#64B5F6"/><stop offset=".187" stop-color="#5FB2F5"/><stop offset=".406" stop-color="#51A9F1"/><stop offset=".639" stop-color="#3A9AEC"/><stop offset=".85" stop-color="#1E88E5"/><stop offset="1" stop-color="#1E88E5"/></radialGradient><path fill="url(#b)" d="M44 92.04H16c-2.21 0-4-1.79-4-4.01V39.96c0-2.21 1.79-4.01 4-4.01h28v56.09z"/><path fill="#1E88E5" d="M20 35.95h4v56.09h-4z"/><radialGradient id="c" cx="66" cy="8.656" r="105.05" gradientTransform="matrix(1 0 0 1.0016 0 -.1)" gradientUnits="userSpaceOnUse"><stop offset="0" stop-color="#BBDEFB"/><stop offset=".118" stop-color="#B3DAFB"/><stop offset=".299" stop-color="#9ED0FA"/><stop offset=".519" stop-color="#7BC0F8"/><stop offset=".769" stop-color="#4CAAF5"/><stop offset=".815" stop-color="#42A5F5"/><stop offset="1" stop-color="#2196F3"/></radialGradient><path fill="url(#c)" d="M64.8 6.26C45.02 28.02 32 35.95 32 35.95v56.09s13.11 8.01 32.81 29.71c3.82 4.2 11.19 2.16 11.19-3.29V9.52c0-5.46-7.37-7.47-11.2-3.26z"/><path fill="#424242" d="M69.93 7C70.99 7 73 7.53 73 9.53v108.94c0 1.86-1.85 2.54-3.09 2.54-.65 0-1.88-.16-2.88-1.26-19.76-21.78-32.92-29.93-33.47-30.27l-.72-.44H16c-.55 0-1-.45-1-1.01V39.96c0-.55.45-1.01 1-1.01h16.84l.72-.44c.55-.33 13.61-8.4 33.46-30.24C68.03 7.17 69.28 7 69.93 7m0-3c-1.83 0-3.71.71-5.12 2.26C45.02 28.02 32 35.95 32 35.95H16c-2.21 0-4 1.79-4 4.01v48.08c0 2.21 1.79 4.01 4 4.01h16s13.11 8.01 32.81 29.71a6.851 6.851 0 0 0 5.1 2.25c3.13 0 6.09-2.08 6.09-5.54V9.53C76 6.08 73.06 4 69.93 4z" opacity=".2"/></svg>