<svg xmlns="http://www.w3.org/2000/svg" viewBox="0 0 128 128"><linearGradient id="a" x1="64" x2="64" y1="4.25" y2="124.41" gradientUnits="userSpaceOnUse"><stop offset="0" stop-color="#40C4FF"/><stop offset=".352" stop-color="#2DB5F9"/><stop offset="1" stop-color="#0091EA"/></linearGradient><path fill="url(#a)" d="M116 124H12c-4.42 0-8-3.58-8-8V12c0-4.42 3.58-8 8-8h104c4.42 0 8 3.58 8 8v104c0 4.42-3.58 8-8 8z"/><path fill="#424242" d="M116 7c2.76 0 5 2.24 5 5v104c0 2.76-2.24 5-5 5H12c-2.76 0-5-2.24-5-5V12c0-2.76 2.24-5 5-5h104m0-3H12c-4.42 0-8 3.58-8 8v104c0 4.42 3.58 8 8 8h104c4.42 0 8-3.58 8-8V12c0-4.42-3.58-8-8-8z" opacity=".2"/><g fill="#424242" opacity=".2"><path d="M26.14 84c1.9 0 3.59.35 5.07 1.05s2.65 1.69 3.5 2.99c.64.97 1.04 2.02 1.19 3.15.08.6-.39 1.14-1 1.14h-2.72a1 1 0 0 1-.98-.86c-.15-1.01-.57-1.83-1.28-2.46-.89-.8-2.17-1.2-3.83-1.2-1.55 0-2.75.33-3.6.99s-1.28 1.58-1.28 2.76c0 1 .46 1.82 1.39 2.49.92.66 2.45 1.31 4.57 1.94s3.82 1.34 5.11 2.15c1.28.81 2.23 1.73 2.83 2.77s.9 2.26.9 3.66c0 2.27-.87 4.08-2.61 5.42S29.3 112 26.32 112c-1.97 0-3.78-.36-5.44-1.09-1.65-.73-2.94-1.74-3.86-3.02-.71-1-1.15-2.12-1.31-3.37-.08-.59.4-1.12 1-1.12h2.74c.49 0 .91.36.98.85.16 1.14.65 2.06 1.48 2.74 1.02.85 2.49 1.27 4.4 1.27 1.65 0 2.89-.33 3.72-1s1.24-1.55 1.24-2.65c0-1.2-.42-2.12-1.26-2.77s-2.36-1.3-4.56-1.97c-2.2-.66-3.94-1.4-5.24-2.21-2.48-1.56-3.72-3.59-3.72-6.1 0-2.2.89-4.01 2.69-5.43 1.77-1.42 4.1-2.13 6.96-2.13m0-3c-3.54 0-6.51.94-8.84 2.78-2.5 1.98-3.82 4.67-3.82 7.78 0 2.47.89 5.98 5.13 8.64.1.06.2.12.31.19H16.7a4.008 4.008 0 0 0-3.98 4.5c.22 1.74.84 3.33 1.84 4.73 1.23 1.72 2.94 3.08 5.09 4.02 2.03.9 4.27 1.35 6.65 1.35 3.65 0 6.65-.89 8.92-2.64 2.47-1.91 3.78-4.6 3.78-7.8 0-1.92-.44-3.66-1.3-5.15-.84-1.47-2.13-2.75-3.83-3.82-.15-.09-.29-.18-.45-.27h1.49c1.16 0 2.26-.5 3.02-1.38.76-.87 1.11-2.03.95-3.18-.22-1.57-.78-3.04-1.66-4.39-1.15-1.75-2.74-3.12-4.73-4.05-1.89-.86-4.02-1.31-6.35-1.31zm-1.93 10.51c.01-.24.05-.28.11-.32.14-.11.6-.37 1.77-.37.87 0 1.52.15 1.83.43.13.11.25.27.31.66.08.51.25 1 .5 1.43-.24-.07-.48-.15-.72-.22-2.34-.69-3.3-1.24-3.67-1.5a.948.948 0 0 0-.13-.11zm2.09 13.75c-1.15 0-2.03-.21-2.48-.58-.18-.15-.35-.35-.42-.85-.09-.62-.31-1.19-.65-1.68.58.21 1.19.41 1.83.6 2.57.77 3.4 1.32 3.59 1.47.04.03.09.07.09.39 0 .21-.02.23-.13.31-.03.03-.45.34-1.83.34z"/><path d="M50.96 84c2.22 0 4.19.53 5.9 1.6 1.72 1.07 3.04 2.6 3.98 4.6s1.41 4.33 1.42 6.99v1.52c0 2.67-.46 5.01-1.39 7.03-.92 2.02-2.24 3.56-3.96 4.64-1.7 1.08-3.68 1.62-5.91 1.62-2.21 0-4.18-.54-5.91-1.62s-3.06-2.62-4-4.61c-.94-2-1.42-4.3-1.43-6.91v-1.53c0-2.66.47-5 1.41-7.04.94-2.03 2.27-3.59 3.99-4.67 1.71-1.08 3.68-1.62 5.9-1.62m.04 24.11c2.1 0 3.71-.8 4.84-2.4s1.69-3.93 1.69-7v-1.42c0-3.02-.57-5.34-1.71-6.94-1.14-1.61-2.76-2.41-4.86-2.41-2.05 0-3.65.8-4.8 2.41s-1.74 3.87-1.77 6.8v1.57c0 2.99.58 5.31 1.75 6.94s2.79 2.45 4.86 2.45M50.96 81c-2.78 0-5.31.7-7.5 2.08-2.21 1.39-3.93 3.39-5.11 5.95-1.12 2.42-1.69 5.21-1.69 8.3v1.53c.01 3.05.59 5.8 1.72 8.19 1.19 2.52 2.91 4.49 5.13 5.88 2.2 1.38 4.73 2.07 7.49 2.07 2.8 0 5.33-.7 7.52-2.08 2.21-1.39 3.92-3.39 5.09-5.93 1.1-2.4 1.66-5.18 1.66-8.28V97.2c-.01-3.1-.59-5.87-1.7-8.26-1.18-2.53-2.9-4.51-5.11-5.88-2.2-1.37-4.72-2.06-7.5-2.06zm.04 24.11c-1.11 0-1.81-.35-2.41-1.19-.79-1.11-1.19-2.86-1.19-5.2v-1.57c.02-2.26.42-3.97 1.2-5.05.59-.82 1.28-1.16 2.37-1.16 1.13 0 1.83.33 2.41 1.15.76 1.07 1.16 2.87 1.16 5.21v1.42c0 2.39-.4 4.21-1.14 5.27-.58.79-1.27 1.12-2.4 1.12z"/><path d="M76.08 84c2.22 0 4.19.53 5.91 1.6s3.04 2.6 3.98 4.6 1.41 4.33 1.42 6.99v1.52c0 2.67-.46 5.01-1.38 7.03s-2.24 3.56-3.96 4.64-3.69 1.62-5.92 1.62c-2.21 0-4.18-.54-5.91-1.62s-3.06-2.62-4.01-4.61c-.94-2-1.42-4.3-1.43-6.91v-1.53c0-2.66.47-5 1.41-7.04.94-2.03 2.27-3.59 3.99-4.67 1.71-1.08 3.68-1.62 5.9-1.62m.04 24.11c2.1 0 3.71-.8 4.84-2.4s1.69-3.93 1.69-7v-1.42c0-3.02-.57-5.34-1.71-6.94-1.14-1.61-2.76-2.41-4.86-2.41-2.05 0-3.65.8-4.8 2.41-1.16 1.6-1.74 3.87-1.77 6.8v1.57c0 2.99.58 5.31 1.75 6.94 1.16 1.63 2.78 2.45 4.86 2.45M76.08 81c-2.78 0-5.31.7-7.5 2.08-2.21 1.39-3.93 3.39-5.11 5.95-1.12 2.42-1.69 5.21-1.69 8.3v1.53c.01 3.05.59 5.8 1.72 8.19 1.19 2.52 2.91 4.49 5.13 5.88 2.2 1.38 4.73 2.07 7.49 2.07 2.8 0 5.33-.7 7.52-2.08 2.21-1.39 3.92-3.39 5.09-5.93 1.1-2.4 1.66-5.18 1.66-8.28V97.2c-.01-3.09-.59-5.87-1.7-8.26-1.18-2.53-2.9-4.51-5.11-5.88-2.2-1.37-4.72-2.06-7.5-2.06zm.04 24.11c-1.11 0-1.81-.35-2.42-1.19-.79-1.11-1.19-2.86-1.19-5.2v-1.57c.02-2.26.42-3.97 1.2-5.05.59-.82 1.28-1.16 2.37-1.16 1.13 0 1.83.33 2.41 1.15.76 1.07 1.16 2.87 1.16 5.21v1.42c0 2.39-.4 4.21-1.14 5.27-.57.79-1.26 1.12-2.39 1.12z"/><path d="M111 84.37c.55 0 1 .45 1 1v25.25c0 .55-.45 1-1 1h-3.19c-.34 0-.66-.18-.85-.47l-10-15.92a.972.972 0 0 0-.83-.47c-.51 0-1.01.38-1.01 1v14.87c0 .55-.45 1-1 1h-2.74c-.55 0-1-.45-1-1V85.37c0-.55.45-1 1-1h3.18c.34 0 .66.18.85.47l10.05 16.01c.2.32.52.47.83.47.51 0 1.01-.38 1.01-1V85.37c0-.55.45-1 1-1h2.7m0-3h-2.7c-2.2 0-4 1.79-4 4v7.99l-6.35-10.12c-.74-1.17-2-1.87-3.39-1.87h-3.18c-2.2 0-4 1.79-4 4v25.25c0 2.2 1.79 4 4 4h2.74c2.2 0 4-1.79 4-4v-7.92l6.31 10.05c.74 1.17 2 1.87 3.39 1.87H111c2.2 0 4-1.79 4-4V85.37c0-2.2-1.79-4-4-4z"/></g><path fill="#FAFAFA" d="M31.26 104.61c0-1.2-.42-2.12-1.26-2.77s-2.36-1.3-4.56-1.97c-2.2-.66-3.94-1.4-5.24-2.21-2.48-1.56-3.72-3.59-3.72-6.1 0-2.2.89-4.01 2.69-5.43 1.79-1.42 4.11-2.13 6.97-2.13 1.9 0 3.59.35 5.07 1.05s2.65 1.69 3.5 2.99c.64.97 1.04 2.02 1.19 3.15.08.6-.39 1.14-1 1.14h-2.72a1 1 0 0 1-.98-.86c-.15-1.01-.57-1.83-1.28-2.46-.89-.8-2.17-1.2-3.83-1.2-1.55 0-2.75.33-3.6.99s-1.28 1.58-1.28 2.76c0 1 .46 1.82 1.39 2.49.92.66 2.45 1.31 4.57 1.94s3.82 1.34 5.11 2.15c1.28.81 2.23 1.73 2.83 2.77s.9 2.26.9 3.66c0 2.27-.87 4.08-2.61 5.42S29.3 112 26.32 112c-1.97 0-3.78-.36-5.44-1.09-1.65-.73-2.94-1.74-3.86-3.02-.71-1-1.15-2.12-1.31-3.37-.08-.59.4-1.12 1-1.12h2.74c.49 0 .91.36.98.85.16 1.14.65 2.06 1.48 2.74 1.02.85 2.49 1.27 4.4 1.27 1.65 0 2.89-.33 3.72-1 .82-.67 1.23-1.56 1.23-2.65zm31.01-5.9c0 2.67-.46 5.01-1.39 7.03-.92 2.02-2.24 3.56-3.96 4.64-1.71 1.08-3.69 1.62-5.92 1.62-2.21 0-4.18-.54-5.91-1.62s-3.06-2.62-4-4.61c-.94-2-1.42-4.3-1.43-6.91v-1.53c0-2.66.47-5 1.41-7.04.94-2.03 2.27-3.59 3.99-4.67S48.74 84 50.97 84c2.22 0 4.19.53 5.9 1.6 1.72 1.07 3.04 2.6 3.98 4.6s1.41 4.33 1.42 6.99v1.52zm-4.74-1.42c0-3.02-.57-5.34-1.71-6.94-1.14-1.61-2.76-2.41-4.86-2.41-2.05 0-3.65.8-4.8 2.41s-1.74 3.87-1.77 6.8v1.57c0 2.99.58 5.31 1.75 6.94s2.79 2.45 4.86 2.45c2.1 0 3.71-.8 4.84-2.4s1.69-3.93 1.69-7v-1.42zm29.85 1.42c0 2.67-.46 5.01-1.38 7.03s-2.24 3.56-3.96 4.64-3.69 1.62-5.92 1.62c-2.21 0-4.18-.54-5.91-1.62s-3.06-2.62-4.01-4.61c-.94-2-1.42-4.3-1.43-6.91v-1.53c0-2.66.47-5 1.41-7.04.94-2.03 2.27-3.59 3.99-4.67S73.85 84 76.07 84s4.19.53 5.91 1.6 3.04 2.6 3.98 4.6 1.41 4.33 1.42 6.99v1.52zm-4.73-1.42c0-3.02-.57-5.34-1.71-6.94-1.14-1.61-2.76-2.41-4.86-2.41-2.05 0-3.65.8-4.8 2.41-1.16 1.6-1.74 3.87-1.77 6.8v1.57c0 2.99.58 5.31 1.75 6.94s2.79 2.45 4.86 2.45c2.1 0 3.71-.8 4.84-2.4s1.69-3.93 1.69-7v-1.42zM111 111.63h-3.19c-.34 0-.66-.18-.85-.47l-10-15.93c-.53-.85-1.84-.47-1.84.53v14.87c0 .55-.45 1-1 1h-2.74c-.55 0-1-.45-1-1V85.37c0-.55.45-1 1-1h3.18c.34 0 .66.18.85.47l10.05 16.01c.53.85 1.84.47 1.84-.53V85.37c0-.55.45-1 1-1h2.7c.55 0 1 .45 1 1v25.25c0 .56-.45 1.01-1 1.01z"/><path fill="#424242" d="M78.02 16c.9 0 1.82.31 2.61 1l24 23.99a4.001 4.001 0 0 1 0 6.02L80.63 71c-.79.69-1.71 1-2.61 1-2.06 0-4.02-1.62-4.02-4.01V54c0-1.1-.9-2-2-2H26c-2.21 0-4-1.79-4-4v-8c0-2.21 1.79-4 4-4h46c1.1 0 2-.9 2-2V20.01c0-2.39 1.96-4.01 4.02-4.01m0-3C74.15 13 71 16.14 71 20.01V33H26c-3.86 0-7 3.14-7 7v8c0 3.86 3.14 7 7 7h45v12.99c0 3.86 3.15 7.01 7.02 7.01 1.68 0 3.3-.62 4.59-1.74l.14-.14 23.94-23.93c1.47-1.33 2.31-3.21 2.31-5.19s-.84-3.87-2.31-5.19L82.62 14.74a7.023 7.023 0 0 0-4.6-1.74z" opacity=".2"/><path fill="#FAFAFA" d="m80.63 17 24 23.99a4.001 4.001 0 0 1 0 6.02L80.63 71c-2.58 2.27-6.63.43-6.63-3.01V54c0-1.1-.9-2-2-2H26c-2.21 0-4-1.79-4-4v-8c0-2.21 1.79-4 4-4h46c1.1 0 2-.9 2-2V20.01c0-3.44 4.05-5.28 6.63-3.01z"/></svg>