<svg xmlns="http://www.w3.org/2000/svg" viewBox="0 0 128 128"><radialGradient id="a" cx="64.167" cy="122.33" r="20.667" gradientUnits="userSpaceOnUse"><stop offset="0" stop-color="#FFA000"/><stop offset=".743" stop-color="#FF8F00"/><stop offset="1" stop-color="#FF8F00"/></radialGradient><circle cx="64" cy="112" r="12" fill="url(#a)"/><radialGradient id="b" cx="63.75" cy="-1.5" r="17.653" gradientUnits="userSpaceOnUse"><stop offset="0" stop-color="#FFD740"/><stop offset=".203" stop-color="#FFD43C"/><stop offset=".416" stop-color="#FFCB2F"/><stop offset=".633" stop-color="#FFBD1A"/><stop offset=".834" stop-color="#FFAB00"/><stop offset="1" stop-color="#FFAB00"/></radialGradient><circle cx="64" cy="12" r="8" fill="url(#b)"/><path fill="#424242" d="M64 103c4.96 0 9 4.04 9 9s-4.04 9-9 9-9-4.04-9-9 4.04-9 9-9m0-3c-6.63 0-12 5.37-12 12s5.37 12 12 12 12-5.37 12-12-5.37-12-12-12zm0-93c2.76 0 5 2.24 5 5s-2.24 5-5 5-5-2.24-5-5 2.24-5 5-5m0-3c-4.42 0-8 3.58-8 8s3.58 8 8 8 8-3.58 8-8-3.58-8-8-8z" opacity=".2"/><radialGradient id="c" cx="63.833" cy="11.167" r="103.48" gradientUnits="userSpaceOnUse"><stop offset="0" stop-color="#FFD740"/><stop offset=".203" stop-color="#FFD43C"/><stop offset=".416" stop-color="#FFCB2F"/><stop offset=".633" stop-color="#FFBD1A"/><stop offset=".834" stop-color="#FFAB00"/><stop offset="1" stop-color="#FFAB00"/></radialGradient><path fill="url(#c)" d="M104 44c0-35.62-40-32-40-32S24 8.38 24 44 12 96 12 96h104s-12-16.38-12-52z"/><path fill="#FFD740" d="M118 108H10c-3.3 0-6-2.7-6-6s2.7-6 6-6h108c3.3 0 6 2.7 6 6s-2.7 6-6 6z"/><path fill="#424242" d="M67.03 14.9C77.25 14.9 101 17.73 101 44c0 36.18 12.07 53.07 12.58 53.77l.9 1.23H118c1.65 0 3 1.35 3 3s-1.35 3-3 3H10c-1.65 0-3-1.35-3-3s1.35-3 3-3h3.52l.9-1.23C14.93 97.07 27 80.18 27 44c0-11.5 4.51-19.75 13.4-24.51 7.46-4 16.09-4.59 20.56-4.59 1.71 0 2.76.09 2.76.09l.28.02.27-.02c.01 0 1.05-.09 2.76-.09m0-3c-1.89 0-3.03.1-3.03.1s-1.14-.1-3.03-.1C51.64 11.9 24 14.39 24 44c0 35.62-12 52-12 52h-2c-3.3 0-6 2.7-6 6s2.7 6 6 6h108c3.3 0 6-2.7 6-6s-2.7-6-6-6h-2s-12-16.38-12-52c0-29.6-27.64-32.1-36.97-32.1z" opacity=".2"/><radialGradient id="d" cx="64.5" cy="101.83" r="77.668" gradientUnits="userSpaceOnUse"><stop offset="0" stop-color="#FFD740"/><stop offset=".243" stop-color="#FFD43C"/><stop offset=".499" stop-color="#FFCB2F"/><stop offset=".76" stop-color="#FFBD1A"/><stop offset="1" stop-color="#FFAB00"/></radialGradient><path fill="url(#d)" d="M118 108H10c-3.3 0-6-2.7-6-6s2.7-6 6-6h108c3.3 0 6 2.7 6 6s-2.7 6-6 6z"/><path fill="#424242" d="M118 99c1.65 0 3 1.35 3 3s-1.35 3-3 3H10c-1.65 0-3-1.35-3-3s1.35-3 3-3h108m0-3H10c-3.3 0-6 2.7-6 6s2.7 6 6 6h108c3.3 0 6-2.7 6-6s-2.7-6-6-6z" opacity=".2"/></svg>