<svg xmlns="http://www.w3.org/2000/svg" style="enable-background:new 0 0 128 128" viewBox="0 0 128 128" xml:space="preserve"><path d="M87.8 29.7v26.7H72.3V30c0-5.7-4.6-10.3-10.3-10.3H42.1c-.9 0-1.7.1-2.5.3-.3.1-.7.2-1 .3-.3.1-.6.2-.9.4-.3.1-.6.3-.8.5-1.9 1.1-3.4 2.8-4.2 4.8-.1.2-.1.3-.2.5-.2.4-.3.9-.4 1.3v.2c-.1.6-.2 1.2-.2 1.9v26.5H16.5V30c0-1.3.1-2.5.3-3.7.1-.4.1-.8.2-1.2 0-.2.1-.3.1-.5.2-.7.3-1.5.6-2.2 2.5-8 8.9-14.4 16.9-16.9.7-.2 1.4-.4 2.2-.6.2 0 .3-.1.5-.1.4-.1.8-.1 1.2-.2 1.2-.2 2.5-.3 3.7-.3h20c2.5 0 4.9.4 7.1 1 1.4.4 2.7.9 3.9 1.5.8.4 1.6.8 2.4 1.3.3.2.5.3.8.5.7.4 1.3.9 1.9 1.5.6.5 1.2 1.1 1.8 1.6.6.6 1.1 1.2 1.6 1.8.8 1 1.5 2 2.1 3 .4.7.8 1.4 1.2 2.2.4.7.7 1.5 1 2.3.2.7.5 1.4.7 2.1.7 2.1 1.1 4.3 1.1 6.6z" style="fill:#bdbdbd"/><g style="opacity:.2"><path d="M87.2 24.6c-.1-.5-.2-1.1-.4-1.6-.2-.7-.4-1.4-.7-2.1-.3-.8-.6-1.5-1-2.3-.4-.7-.8-1.5-1.2-2.2l-2.1-3c-.5-.6-1.1-1.2-1.6-1.8-.6-.6-1.2-1.1-1.8-1.6-.6-.5-1.3-1-1.9-1.5-.3-.2-.5-.3-.8-.5-.8-.5-1.6-.9-2.4-1.3-1.2-.6-2.6-1.1-3.9-1.5-.3-.1-.6-.2-.8-.2-2-.5-4.1-.8-6.3-.8h-20c-1 0-1.9 0-2.8.2-.3 0-.6.1-.9.1-.4.1-.8.1-1.2.2-.2 0-.3.1-.5.1-.7.2-1.5.3-2.2.6-8 2.5-14.4 8.9-16.9 16.9-.2.7-.4 1.4-.6 2.2 0 .2-.1.3-.1.5-.1.4-.2.8-.2 1.2 0 .3-.1.6-.1.9-.1.9-.2 1.9-.2 2.8v26.4h3V30c0-12.5 10.2-22.7 22.7-22.7h20c12.4 0 22.5 10.1 22.5 22.5v26.6h3V29.7c-.1-1.7-.2-3.4-.6-5.1zm-25.2-8H42.1c-7.3 0-13.2 5.9-13.2 13.2v26.5h3V29.8c0-.3 0-.7.1-1 0-.3.1-.6.1-.9v-.2c.1-.5.2-.9.4-1.3 0-.2.1-.3.2-.5.8-2 2.3-3.8 4.2-4.9.3-.2.6-.3.8-.5.3-.1.6-.3.9-.4.3-.1.6-.2 1-.3.8-.2 1.7-.3 2.5-.3H62c5.7 0 10.3 4.6 10.3 10.3v26.4h3V30c0-7.4-5.9-13.4-13.3-13.4z" style="fill:#424242"/></g><linearGradient id="a" x1="52.101" x2="52.101" y1="837.21" y2="764.192" gradientTransform="translate(0 -714)" gradientUnits="userSpaceOnUse"><stop offset=".005" style="stop-color:#ffa000"/><stop offset="1" style="stop-color:#ffc107"/></linearGradient><path d="M91 123.5H13.2c-4 0-7.2-3.2-7.2-7.2V57.2c0-4 3.2-7.2 7.2-7.2H91c4 0 7.2 3.2 7.2 7.2v59.1c.1 4-3.2 7.2-7.2 7.2z" style="fill:url(#a)"/><g style="opacity:.2"><path d="M91 52.9c2.3 0 4.2 1.9 4.2 4.2v59.1c0 2.3-1.9 4.2-4.2 4.2H13.2c-2.3 0-4.2-1.9-4.2-4.2v-59c0-2.3 1.9-4.2 4.2-4.2l77.8-.1m0-3H13.2c-4 0-7.2 3.2-7.2 7.2v59.1c0 4 3.2 7.2 7.2 7.2H91c4 0 7.2-3.2 7.2-7.2v-59c.1-4-3.2-7.3-7.2-7.3z" style="fill:#424242"/></g><linearGradient id="b" x1="45.557" x2="45.557" y1="821.352" y2="709.797" gradientTransform="matrix(1.0752 .0092 .0092 1.0752 42.741 -759.106)" gradientUnits="userSpaceOnUse"><stop offset="0" style="stop-color:#e67716"/><stop offset=".998" style="stop-color:#ed9500"/></linearGradient><path d="m102 124.7 10.3-17.2c.2-.4.2-.8 0-1.2l-5.8-8.6c-.3-.4-.2-1 .1-1.4l5.1-5.2c.4-.4.4-1 .1-1.4l-5.6-8c-.3-.4-.3-1.1.1-1.4l5.4-5.4c.3-.3.4-.9.2-1.3l-6.3-12.2-.1-5.9c11.4-3.1 19.5-13.7 18.7-26.3-.9-13.4-12.1-24.2-25.5-24.6-14.4-.7-26.1 10.9-26 25.4.1 11.7 7.5 21.6 18.7 24.9l.5 54.8c0 .2.1.4.2.6l8 14.4c.4.7 1.5.7 1.9 0zm-3.5-91.2c-5.4 0-9.8-4.5-9.9-9.9s4.3-9.7 9.7-9.7 9.8 4.5 9.9 9.9-4.3 9.8-9.7 9.7z" style="fill:url(#b)"/><g style="opacity:.2"><path d="M98.1 6.3h.7c12.4.4 22.8 10.4 23.6 22.8.7 11.3-6.3 21.3-17.2 24.2-.9.2-1.5 1-1.5 2l.1 5.9c0 .3.1.6.2.9l6 11.7-5 5c-1.1 1.1-1.2 2.8-.3 4l5.2 7.4-4.6 4.7c-1 1.1-1.2 2.7-.4 3.9l5.4 8.2-9.3 15.5-7.2-12.9-.4-54.6c0-.9-.6-1.7-1.4-1.9-10.4-3.1-17.2-12.2-17.2-23-.1-6.4 2.3-12.4 6.8-16.8 4.3-4.5 10.2-7 16.5-7m.5 29.2c3.1 0 6.1-1.2 8.2-3.4s3.4-5.1 3.4-8.3c-.1-6.5-5.4-11.8-11.8-11.8h-.1c-3.1 0-6.1 1.2-8.2 3.4s-3.4 5.1-3.3 8.3c-.1 6.4 5.2 11.8 11.8 11.8M98 4.3C83.8 4.3 72.6 15.8 72.7 30c.1 11.7 7.5 21.6 18.7 24.9l.5 54.8c0 .2.1.4.2.6l8 14.4c.2.4.6.6 1 .6s.7-.2.9-.5l10.3-17.2c.2-.4.2-.8 0-1.2l-5.8-8.6c-.3-.4-.2-1 .1-1.4l5.1-5.2c.4-.4.4-1 .1-1.4l-5.6-8c-.3-.4-.3-1.1.1-1.4l5.4-5.4c.3-.3.4-.9.2-1.3l-6.3-12.2-.1-5.9c11.4-3.1 19.5-13.7 18.7-26.3-.9-13.4-12.1-24.2-25.5-24.6-.1-.4-.4-.4-.7-.4zm.6 29.2c-5.5 0-9.9-4.5-9.9-9.9-.1-5.4 4.2-9.7 9.6-9.7h.1c5.4.1 9.8 4.5 9.9 9.9 0 5.4-4.3 9.7-9.7 9.7z" style="fill:#424242"/></g></svg>