<svg xmlns="http://www.w3.org/2000/svg" viewBox="0 0 128 128"><linearGradient id="a" x1="64" x2="64" y1="4.25" y2="124.41" gradientUnits="userSpaceOnUse"><stop offset="0" stop-color="#40C4FF"/><stop offset=".352" stop-color="#2DB5F9"/><stop offset="1" stop-color="#0091EA"/></linearGradient><path fill="url(#a)" d="M116 124H12c-4.42 0-8-3.58-8-8V12c0-4.42 3.58-8 8-8h104c4.42 0 8 3.58 8 8v104c0 4.42-3.58 8-8 8z"/><path fill="#424242" d="M116 7c2.76 0 5 2.24 5 5v104c0 2.76-2.24 5-5 5H12c-2.76 0-5-2.24-5-5V12c0-2.76 2.24-5 5-5h104m0-3H12c-4.42 0-8 3.58-8 8v104c0 4.42 3.58 8 8 8h104c4.42 0 8-3.58 8-8V12c0-4.42-3.58-8-8-8z" opacity=".2"/><path fill="#424242" d="M64 16c1.11 0 2.21.46 3.01 1.37l23.99 24c2.26 2.59.43 6.63-3.01 6.63H74c-1.1 0-2 .9-2 2v22c0 2.21-1.79 4-4 4h-8c-2.21 0-4-1.79-4-4V50c0-1.1-.9-2-2-2H40.01c-3.44 0-5.27-4.05-3.01-6.63l23.99-24c.8-.91 1.9-1.37 3.01-1.37m0-3c-1.98 0-3.87.84-5.19 2.31L34.74 39.38c-1.83 2.09-2.26 4.97-1.11 7.5s3.59 4.11 6.37 4.11h13v21c0 3.86 3.14 7 7 7h8c3.86 0 7-3.14 7-7V51h12.99c2.78 0 5.22-1.57 6.37-4.11 1.15-2.53.73-5.41-1.11-7.5l-.14-.14-23.92-23.94A6.978 6.978 0 0 0 64 13zM44.62 84.37c.55 0 1 .45 1 1v1.82c0 .55-.45 1-1 1h-6.5c-.55 0-1 .45-1 1v21.43c0 .55-.45 1-1 1h-2.7c-.55 0-1-.45-1-1V89.19c0-.55-.45-1-1-1H25c-.55 0-1-.45-1-1v-1.82c0-.55.45-1 1-1h19.62m0-3H25c-2.21 0-4 1.79-4 4v1.82c0 2.21 1.79 4 4 4h4.42v19.43c0 2.21 1.79 4 4 4h2.7c2.21 0 4-1.79 4-4V91.19h4.5c2.21 0 4-1.79 4-4v-1.82c0-2.2-1.8-4-4-4zM64.31 84c2.22 0 4.19.53 5.9 1.6 1.72 1.07 3.04 2.6 3.98 4.6s1.41 4.33 1.42 6.99v1.52c0 2.67-.46 5.01-1.39 7.03-.92 2.02-2.24 3.56-3.96 4.64S66.57 112 64.34 112c-2.21 0-4.18-.54-5.91-1.62s-3.06-2.62-4-4.61c-.94-2-1.42-4.3-1.43-6.91v-1.53c0-2.66.47-5 1.41-7.04.94-2.03 2.27-3.59 3.99-4.67S62.09 84 64.31 84m.04 24.11c2.1 0 3.71-.8 4.84-2.4s1.69-3.93 1.69-7v-1.42c0-3.02-.57-5.34-1.71-6.94-1.14-1.61-2.76-2.41-4.86-2.41-2.05 0-3.65.8-4.8 2.41-1.15 1.6-1.74 3.87-1.77 6.8v1.57c0 2.99.58 5.31 1.75 6.94s2.79 2.45 4.86 2.45M64.31 81c-2.78 0-5.31.7-7.5 2.08-2.21 1.39-3.93 3.39-5.11 5.95-1.12 2.42-1.69 5.21-1.69 8.3v1.53c.01 3.05.59 5.8 1.72 8.19 1.19 2.52 2.91 4.49 5.13 5.88 2.2 1.38 4.73 2.07 7.49 2.07 2.8 0 5.33-.7 7.52-2.08 2.21-1.39 3.92-3.39 5.09-5.93 1.1-2.4 1.66-5.19 1.66-8.28V97.2c-.01-3.1-.59-5.87-1.7-8.26-1.18-2.53-2.9-4.51-5.11-5.88-2.2-1.37-4.72-2.06-7.5-2.06zm.04 24.11c-1.11 0-1.81-.35-2.41-1.19-.79-1.11-1.19-2.86-1.19-5.2v-1.57c.02-2.26.42-3.97 1.2-5.05.59-.82 1.28-1.16 2.37-1.16 1.13 0 1.83.33 2.41 1.15.76 1.07 1.16 2.87 1.16 5.21v1.42c0 2.39-.4 4.21-1.14 5.27-.58.79-1.27 1.12-2.4 1.12zm29.71-20.74c3.04 0 5.46.79 7.25 2.38s2.69 3.69 2.69 6.3c0 2.67-.88 4.75-2.63 6.24s-4.21 2.23-7.36 2.23h-4.63c-.55 0-1 .45-1 1v8.11c0 .55-.45 1-1 1h-2.73c-.55 0-1-.45-1-1V85.37c0-.55.45-1 1-1h9.41M89.37 97.7h4.69c1.68 0 2.97-.4 3.86-1.19s1.33-1.94 1.33-3.44c0-1.47-.45-2.65-1.35-3.53s-2.13-1.33-3.71-1.36h-4.82c-.55 0-1 .45-1 1v7.51c0 .56.45 1.01 1 1.01m4.69-16.33h-9.42c-2.21 0-4 1.79-4 4v25.25c0 2.21 1.79 4 4 4h2.73c2.21 0 4-1.79 4-4v-6.11H94c3.87 0 7-.99 9.3-2.94 2.42-2.05 3.69-5 3.69-8.53 0-3.44-1.28-6.4-3.7-8.54-2.34-2.07-5.44-3.13-9.23-3.13zm-2.69 9.82h2.82c1.11.02 1.48.38 1.61.5.13.13.45.44.45 1.38 0 .6-.11 1-.33 1.2-.3.27-.98.42-1.86.42h-2.69v-3.5z" opacity=".2"/><path fill="#FAFAFA" d="m91 41.37-23.99-24a4.001 4.001 0 0 0-6.02 0L37 41.37c-2.27 2.58-.43 6.63 3.01 6.63H54c1.1 0 2 .9 2 2v22c0 2.21 1.79 4 4 4h8c2.21 0 4-1.79 4-4V50c0-1.1.9-2 2-2h13.99c3.44 0 5.28-4.05 3.01-6.63zM44.62 88.19h-6.5c-.55 0-1 .45-1 1v21.43c0 .55-.45 1-1 1h-2.7c-.55 0-1-.45-1-1V89.19c0-.55-.45-1-1-1H25c-.55 0-1-.45-1-1v-1.82c0-.55.45-1 1-1h19.62c.55 0 1 .45 1 1v1.82c0 .55-.45 1-1 1zm31 10.52c0 2.67-.46 5.01-1.39 7.03-.92 2.02-2.24 3.56-3.96 4.64S66.58 112 64.35 112c-2.21 0-4.18-.54-5.91-1.62s-3.06-2.62-4-4.61c-.94-2-1.42-4.3-1.43-6.91v-1.53c0-2.66.47-5 1.41-7.04.94-2.03 2.27-3.59 3.99-4.67S62.09 84 64.32 84c2.22 0 4.19.53 5.9 1.6 1.72 1.07 3.04 2.6 3.98 4.6s1.41 4.33 1.42 6.99v1.52zm-4.74-1.42c0-3.02-.57-5.34-1.71-6.94-1.14-1.61-2.76-2.41-4.86-2.41-2.05 0-3.65.8-4.8 2.41-1.15 1.6-1.74 3.87-1.77 6.8v1.57c0 2.99.58 5.31 1.75 6.94s2.79 2.45 4.86 2.45c2.1 0 3.71-.8 4.84-2.4s1.69-3.93 1.69-7v-1.42zm17.49 5.23v8.11c0 .55-.45 1-1 1h-2.73c-.55 0-1-.45-1-1V85.37c0-.55.45-1 1-1h9.42c3.04 0 5.46.79 7.25 2.38s2.69 3.69 2.69 6.3c0 2.67-.88 4.75-2.63 6.24s-4.21 2.23-7.36 2.23h-4.63c-.56 0-1.01.45-1.01 1zm0-5.82c0 .55.45 1 1 1h4.69c1.68 0 2.97-.4 3.86-1.19s1.33-1.94 1.33-3.44c0-1.47-.45-2.65-1.35-3.53s-2.13-1.33-3.71-1.36h-4.82c-.55 0-1 .45-1 1v7.52z"/></svg>