<svg xmlns="http://www.w3.org/2000/svg" style="enable-background:new 0 0 128 128" viewBox="0 0 128 128" xml:space="preserve"><path d="M49.55 97.96h2v16.03h-2z" style="fill:#504f4f" transform="rotate(-71.119 50.546 105.97)"/><path d="m56.83 112.35-.95-.32c-.52-.18-.8-.75-.62-1.27l1.94-5.69c.18-.52.75-.8 1.27-.62l.95.32-2.59 7.58z" style="fill:#504f4f"/><radialGradient id="a" cx="79.875" cy="94.25" r="71.223" gradientTransform="matrix(1 0 0 -1 0 128)" gradientUnits="userSpaceOnUse"><stop offset="0" style="stop-color:#ef5350"/><stop offset="1" style="stop-color:#d32f2f"/></radialGradient><path d="m73.93 31.09 10.02 4.72c.89.42 1.35 1.42 1.07 2.37-.46 1.56-.78 3.89.85 5.09 2.4 1.78 18.47 10.43 18.34 37.76-.03 6.43-1.3 12.82-4.11 18.6-4.07 8.37-12.29 17.95-28.42 16.72 0 0-9.04-.33-15.01-2.23-.59-.19-.88-.86-.6-1.41 1.66-3.27 6.04-13.51-1.82-17.25-.36-.17-.6-.52-.6-.92v-6.27s16.03 15.03 24.29 10.85c6.82-3.44 14.43-7.8 14.31-21.21-.06-6.23-1.93-12.33-5.2-17.64-2.12-3.44-4.85-6.84-7.61-7.39 0 0-1.1-.24-2.36 2.15a2.01 2.01 0 0 1-2.27 1.02l-12.14-3.09 11.26-21.87z" style="fill:url(#a)"/><radialGradient id="b" cx="78.93" cy="54.226" r="35.078" gradientTransform="matrix(1 0 0 -1 0 128)" gradientUnits="userSpaceOnUse"><stop offset="0" style="stop-color:red"/><stop offset=".51" style="stop-color:#fd0100"/><stop offset=".714" style="stop-color:#f60300"/><stop offset=".863" style="stop-color:#ea0700"/><stop offset=".986" style="stop-color:#d90d00"/><stop offset="1" style="stop-color:#d60e00"/></radialGradient><path d="m73.93 31.09 10.02 4.72c.89.42 1.35 1.42 1.07 2.37-.46 1.56-.78 3.89.85 5.09 2.4 1.78 18.47 10.43 18.34 37.76-.03 6.43-1.3 12.82-4.11 18.6-4.07 8.37-12.29 17.95-28.42 16.72 0 0-9.04-.33-15.01-2.23-.59-.19-.88-.86-.6-1.41 1.66-3.27 6.04-13.51-1.82-17.25-.36-.17-.6-.52-.6-.92v-6.27s16.03 15.03 24.29 10.85c6.82-3.44 14.43-7.8 14.31-21.21-.06-6.23-1.93-12.33-5.2-17.64-2.12-3.44-4.85-6.84-7.61-7.39 0 0-1.1-.24-2.36 2.15a2.01 2.01 0 0 1-2.27 1.02l-12.14-3.09 11.26-21.87z" style="fill:url(#b)"/><radialGradient id="c" cx="37.313" cy="32.746" r="17.615" gradientTransform="scale(1 -1) rotate(.217 33860.574 -38.1)" gradientUnits="userSpaceOnUse"><stop offset="0" style="stop-color:#b3e5fc"/><stop offset="1" style="stop-color:#4fc3f7"/></radialGradient><path d="M49.13 105.45c-1.24 3.67-6.71 5.14-12.21 3.28s-8.96-6.34-7.72-10.01 6.71-5.14 12.21-3.28c5.51 1.86 8.96 6.34 7.72 10.01z" style="fill:url(#c)"/><path d="m47.81 108.14-19.2-6.47c-.98-.33-1.54-1.27-1.26-2.11l.89-2.62c.28-.84 1.3-1.25 2.28-.92l19.2 6.47c.98.33 1.54 1.27 1.26 2.11l-.89 2.62c-.28.84-1.3 1.25-2.28.92z" style="fill:#504f4f"/><linearGradient id="d" x1="71.047" x2="80.726" y1="84.853" y2="81.424" gradientTransform="matrix(1 0 0 -1 0 128)" gradientUnits="userSpaceOnUse"><stop offset="0" style="stop-color:#8f1616"/><stop offset="1" style="stop-color:#b71c1c;stop-opacity:0"/></linearGradient><path d="M77.08 55.03c1.26-2.39 2.36-2.15 2.36-2.15 2.75.55 5.48 3.95 7.61 7.39.41.67.8 1.35 1.17 2.04-.09-5.82-.62-11.67-.08-17.47-1.05-.76-1.86-1.26-2.27-1.57-1.62-1.21-1.31-3.53-.85-5.09.28-.95-.18-1.95-1.07-2.37l-10.02-4.72-11.27 21.87 12.14 3.09c.91.23 1.85-.2 2.28-1.02z" style="opacity:.6;fill:url(#d);enable-background:new"/><linearGradient id="e" x1="71.895" x2="71.895" y1="8.914" y2="25.014" gradientUnits="userSpaceOnUse"><stop offset=".001" style="stop-color:#787676"/><stop offset=".818" style="stop-color:#504f4f"/></linearGradient><path d="m71.91 36.42-9.41-3.43 9.38-25.77 9.41 3.42z" style="fill:url(#e)"/><path d="m81.29 10.64-9.41-3.43 1.87-2.77c.26-.38.74-.54 1.17-.38l6.06 2.21c.43.16.7.59.65 1.05l-.34 3.32zm-17.41 85.5L31.09 84.41c-.71-.26-1.17-1.04-1.18-2.02l-.03-4.21L67.6 91.67l-3.72 4.47z" style="fill:#504f4f"/><radialGradient id="f" cx="43.645" cy="60.395" r="5.413" gradientTransform="matrix(1 0 0 -1 0 128)" gradientUnits="userSpaceOnUse"><stop offset="0" style="stop-color:#eee"/><stop offset="1" style="stop-color:#bdbdbd"/></radialGradient><path d="m39.05 71.96-1.7-3.63 10.9-5.08 1.69 3.63z" style="fill:url(#f)"/><path d="m38.02 71.33-.85-1.82c-.23-.5-.02-1.1.48-1.33l.91-.42 1.69 3.63-.91.42c-.49.24-1.08.02-1.32-.48zm15.2-11.5-10.9 5.08-1.39 1.75 1.69 3.63 2.24.06 10.9-5.08z" style="fill:#504f4f"/><radialGradient id="g" cx="63.56" cy="53.145" r="5.415" gradientTransform="matrix(1 0 0 -1 0 128)" gradientUnits="userSpaceOnUse"><stop offset="0" style="stop-color:#eee"/><stop offset="1" style="stop-color:#bdbdbd"/></radialGradient><path d="m67.92 79.45-3.64 1.7-5.08-10.9 3.64-1.69z" style="fill:url(#g)"/><path d="m67.29 80.48-1.82.85c-.5.23-1.1.02-1.33-.48l-.42-.91 3.63-1.69.42.91c.24.49.02 1.08-.48 1.32zm-6.06-17.74-5.45 2.54 5.08 10.9 1.76 1.39 3.63-1.69.06-2.24z" style="fill:#504f4f"/><radialGradient id="h" cx="53.93" cy="57.665" r="5.275" gradientTransform="matrix(1 0 0 -1 0 128)" gradientUnits="userSpaceOnUse"><stop offset="0" style="stop-color:#eee"/><stop offset="1" style="stop-color:#bdbdbd"/></radialGradient><path d="m53.76 76.67-3.77-1.37L54.1 64l3.77 1.37z" style="fill:url(#h)"/><path d="m52.59 76.95-1.88-.69a.998.998 0 0 1-.6-1.28l.34-.94 3.77 1.37-.34.94c-.2.52-.77.79-1.29.6zm2.61-18.88-4.12 11.29.26 2.23 3.77 1.37 1.62-1.54 4.11-11.3z" style="fill:#504f4f"/><radialGradient id="i" cx="63.625" cy="105.25" r="35.011" gradientTransform="matrix(1 0 0 -1 0 128)" gradientUnits="userSpaceOnUse"><stop offset="0" style="stop-color:red"/><stop offset=".51" style="stop-color:#fd0100"/><stop offset=".714" style="stop-color:#f60300"/><stop offset=".863" style="stop-color:#ea0700"/><stop offset=".986" style="stop-color:#d90d00"/><stop offset="1" style="stop-color:#d60e00"/></radialGradient><path d="m76.22 25.85-10.24-3.73c-.86-.31-1.83 0-2.35.76l-1.44 2.13-12.15 33.53 15.06 5.48L77.26 30.5l.27-2.55c.1-.92-.44-1.78-1.31-2.1z" style="fill:url(#i)"/><radialGradient id="j" cx="56.25" cy="68.5" r="7.174" gradientTransform="matrix(1 0 0 -1 0 128)" gradientUnits="userSpaceOnUse"><stop offset="0" style="stop-color:red"/><stop offset=".51" style="stop-color:#fd0100"/><stop offset=".714" style="stop-color:#f60300"/><stop offset=".863" style="stop-color:#ea0700"/><stop offset=".986" style="stop-color:#d90d00"/><stop offset="1" style="stop-color:#d60e00"/></radialGradient><path d="M48.67 56.33c-1.14 3.12 2.16 7.18 7.36 9.07s10.33.9 11.47-2.22l-18.83-6.85z" style="fill:url(#j)"/><radialGradient id="k" cx="80.593" cy="31.658" r="30.276" gradientTransform="matrix(1 0 0 -1 0 128)" gradientUnits="userSpaceOnUse"><stop offset="0" style="stop-color:red"/><stop offset=".51" style="stop-color:#fd0100"/><stop offset=".714" style="stop-color:#f60300"/><stop offset=".863" style="stop-color:#ea0700"/><stop offset=".986" style="stop-color:#d90d00"/><stop offset="1" style="stop-color:#d60e00"/></radialGradient><path d="M84.16 96c-10.91 0-17.1 8.14-22.21 15.71-.12.18-.33.29-.55.29H32.25c-4.83 0-8.25 9.23-8.25 12h80.11s-5.19-28-19.95-28z" style="fill:url(#k)"/><path d="m67.75 65.41-20.71-7.54a.998.998 0 0 1-.6-1.28l.69-1.88c.19-.52.76-.79 1.28-.6l20.71 7.54c.52.19.79.76.6 1.28l-.69 1.88c-.18.52-.76.79-1.28.6z" style="fill:#504f4f"/><radialGradient id="l" cx="24.081" cy="51.603" r="52.514" gradientTransform="matrix(1 0 0 -1 0 128)" gradientUnits="userSpaceOnUse"><stop offset="0" style="stop-color:#b3e5fc"/><stop offset="1" style="stop-color:#4fc3f7"/></radialGradient><path d="M71.37 95.36 24.58 78.63a1.19 1.19 0 0 1-.72-1.53l.13-.38c.22-.62.91-.95 1.53-.72l46.79 16.74c.62.22.95.91.72 1.53l-.13.38c-.22.61-.9.94-1.53.71z" style="fill:url(#l)"/><circle cx="74.93" cy="42.86" r="6.01" style="fill:#504f4f"/><radialGradient id="m" cx="74.808" cy="89.475" r="7.753" gradientTransform="matrix(1 0 0 -1 0 128)" gradientUnits="userSpaceOnUse"><stop offset="0" style="stop-color:#eee"/><stop offset="1" style="stop-color:#bdbdbd"/></radialGradient><circle cx="74.93" cy="42.86" r="3.5" style="fill:url(#m)"/><circle cx="83.59" cy="106.63" r="6.01" style="fill:#504f4f"/><radialGradient id="n" cx="83.465" cy="25.71" r="7.753" gradientTransform="matrix(1 0 0 -1 0 128)" gradientUnits="userSpaceOnUse"><stop offset="0" style="stop-color:#eee"/><stop offset="1" style="stop-color:#bdbdbd"/></radialGradient><circle cx="83.59" cy="106.63" r="3.5" style="fill:url(#n)"/></svg>