<svg xmlns="http://www.w3.org/2000/svg" style="enable-background:new 0 0 128 128" viewBox="0 0 128 128" xml:space="preserve"><linearGradient id="a" x1="-93.048" x2="-93.048" y1="201.303" y2="145.181" gradientTransform="matrix(1 0 0 -1 0 127.89)" gradientUnits="userSpaceOnUse"><stop offset=".005" style="stop-color:#eee"/><stop offset=".282" style="stop-color:#eaeaea"/><stop offset=".577" style="stop-color:#ddd"/><stop offset=".879" style="stop-color:#c8c8c8"/><stop offset="1" style="stop-color:#bdbdbd"/></linearGradient><path d="M-42.13-44.72c-.91-4.33-4.3-20.11-5.87-27.41-.47-2.21-2.11-3.82-3.99-3.81-5.36 0-15.39-.05-16.6-.05h-44.08c-.61 0-2.56.06-4.11 1.79-4.7 5.27-12.54 20.52-13.76 22.07-.08.1-6.27 2.31-9.09 4-1.12.67-1.74 2.13-1.9 3.63l-2.46 20.75c-.64 4.1 1.7 5.76 5.37 5.76h91.51c2.8 0 5.11-.68 5.11-5.69v-19.79c0-.43-.05-.85-.13-1.25z" style="fill:url(#a)"/><g style="opacity:.2"><path d="M-51.98-73c.36 0 .87.59 1.05 1.44 1.46 6.78 4.95 23.06 5.86 27.43.04.2.07.44.07.66v19.79c0 2.81-.49 2.69-2.11 2.69h-91.51c-1.3 0-2.02-.23-2.25-.5s-.3-.92-.16-1.77c.01-.04.01-.06.02-.09l2.47-20.83c.08-.8.36-1.28.46-1.36 1.87-1.12 5.83-2.66 7.51-3.31 1.46-.57 1.86-.72 2.39-1.39.5-.63 1.28-2 2.99-5.03 2.85-5.03 7.61-13.53 10.65-16.93.57-.64 1.22-.79 1.87-.79h60.69-.02m.02-3.01s-.01 0 0 0h-60.7c-.63 0-2.55.08-4.08 1.79-4.7 5.27-12.54 20.52-13.76 22.07-.08.1-6.27 2.31-9.09 4-1.12.67-1.74 2.13-1.9 3.63l-2.46 20.75c-.64 4.1 1.7 5.76 5.37 5.76h91.51c2.8 0 5.11-.68 5.11-5.69v-19.79c0-.42-.05-.84-.13-1.24-.91-4.33-4.3-20.17-5.87-27.47-.49-2.21-2.13-3.81-4-3.81z" style="fill:#424242"/></g><linearGradient id="b" x1="46.437" x2="46.437" y1="245.39" y2="189.264" gradientTransform="matrix(1 0 0 -1 0 127.89)" gradientUnits="userSpaceOnUse"><stop offset=".011" style="stop-color:#616161"/><stop offset=".25" style="stop-color:#5d5d5d"/><stop offset=".504" style="stop-color:#505050"/><stop offset=".766" style="stop-color:#3b3b3b"/><stop offset="1" style="stop-color:#212121"/></linearGradient><path d="M97.35-88.93c-.91-4.33-4.3-20.11-5.86-27.41-.47-2.21-2.11-3.75-3.99-3.75-5.36 0-15.39.01-16.6.01H26.82c-.61 0-2.56-.01-4.11 1.73C18-113.07 10.16-97.86 8.95-96.31c-.08.1-6.27 2.3-9.09 3.99-1.12.67-1.74 2.12-1.9 3.62L-4.5-67.9c-.64 4.1 1.7 5.82 5.37 5.82h91.51c2.8 0 5.1-.8 5.1-5.81v-19.79c-.01-.43-.05-.84-.13-1.25z" style="fill:url(#b)"/><g style="opacity:.2"><path d="M87.5-117.08c.36 0 .87.53 1.05 1.38 1.46 6.78 4.94 23.03 5.86 27.4.04.2.06.41.06.63v19.79c0 2.81-.49 2.81-2.1 2.81H.86c-1.3 0-2.02-.29-2.25-.56s-.3-.95-.16-1.8l.02-.1L.94-88.37c.08-.8.36-1.28.46-1.36 1.87-1.12 5.83-2.66 7.51-3.31 1.46-.57 1.86-.72 2.39-1.39.5-.63 1.28-2 2.99-5.03 2.85-5.03 7.61-13.46 10.65-16.87.57-.64 1.22-.72 1.87-.72h44.08c.75 0 4.89 0 9.21-.01l7.4-.02m0-3c-5.36 0-15.39.01-16.6.01H26.8c-.63 0-2.55.01-4.08 1.73C18-113.07 10.16-97.86 8.95-96.31c-.08.1-6.27 2.3-9.09 3.99-1.12.67-1.74 2.12-1.9 3.62L-4.5-67.9c-.64 4.1 1.7 5.82 5.37 5.82h91.51c2.8 0 5.1-.8 5.1-5.81v-19.79c0-.42-.04-.84-.13-1.24-.91-4.33-4.3-20.11-5.86-27.41-.48-2.22-2.12-3.75-3.99-3.75z" style="fill:#eee"/></g><linearGradient id="c" x1="-397.398" x2="-273.145" y1="118.28" y2="118.28" gradientTransform="scale(1 -1) rotate(45 -14.5 343.467)" gradientUnits="userSpaceOnUse"><stop offset="0" style="stop-color:#757575"/><stop offset="1" style="stop-color:#bdbdbd"/></linearGradient><path d="M-30.44 7c-39.11.91-61.4 25.83-61.4 25.83s-24.91 22.29-25.83 61.4c-.04 1.55 2.11 2.02 2.73.6 4.33-9.9 14.61-29.48 35.12-49.99s40.08-30.79 49.99-35.12c1.42-.61.94-2.75-.61-2.72z" style="fill:url(#c)"/><linearGradient id="d" x1="-452.582" x2="-349.039" y1="13.329" y2="116.871" gradientTransform="rotate(180 -168.96 63.928)" gradientUnits="userSpaceOnUse"><stop offset="0" style="stop-color:#757575"/><stop offset="1" style="stop-color:#bdbdbd"/></linearGradient><path d="M10.67 82.04c7.03-7.61 17.48-10.05 26.61-6.71l-.05.03L75.42 36.9c-2.83-8.5-1.08-18.77 5.88-25.72 7.37-7.37 18.41-8.93 27.27-5.27 1.12.47 1.51 2 .65 2.86L92.65 25.35c-.35.35-.56.81-.52 1.3l.61 6.65c.08.8.7 1.42 1.5 1.5l6.83.78c.5.05 1.14.03 1.49-.33l16.63-16.63c.83-.83 2.08-.76 2.57.3 4.14 9.06 2.4 19.37-4.43 26.77-7.03 7.61-17.46 10.07-26.59 6.73L52.61 90.89c2.83 8.5 1.02 18.71-5.94 25.66-7.37 7.37-18.38 8.96-27.24 5.3-1.12-.47-1.48-1.97-.62-2.83l16.58-16.58c.35-.35.5-.87.46-1.36l-.64-6.68c-.08-.8-.71-1.44-1.51-1.51l-6.77-.73c-.5-.05-1.09.03-1.44.38L8.85 109.15c-.83.83-2.14.7-2.63-.36-4.15-9.06-2.39-19.34 4.45-26.75z" style="fill:url(#d)"/><g style="opacity:.2"><path d="M98.9 7.02c2.31 0 4.63.36 6.8 1.05L90.53 23.23c-1.01 1.01-1.51 2.36-1.38 3.7l.61 6.66a4.677 4.677 0 0 0 4.17 4.2l6.8.78c.02 0 .04 0 .06.01.21.02.43.03.65.03 1.67 0 2.69-.67 3.25-1.22l15.16-15.16c2.53 7.41.81 15.46-4.72 21.45-4.24 4.59-10.12 7.22-16.14 7.22-2.47 0-4.89-.43-7.21-1.28-.34-.12-.69-.18-1.03-.18-.79 0-1.56.31-2.13.89L50.48 88.77c-.8.8-1.07 1.99-.72 3.06 2.64 7.92.59 16.79-5.21 22.59-4.07 4.07-9.57 6.31-15.48 6.31-2.28 0-4.56-.35-6.71-1.02l15.15-15.15c.97-.97 1.46-2.35 1.32-3.77l-.64-6.68c-.21-2.23-1.98-4.01-4.18-4.21l-6.82-.74c-.18-.02-.36-.03-.55-.03-1.31 0-2.48.45-3.3 1.27L8.17 105.59c-2.57-7.42-.85-15.5 4.71-21.52 4.23-4.58 10.11-7.21 16.14-7.21 2.3 0 4.56.37 6.73 1.11a2.999 2.999 0 0 0 3.28-.19l.05-.03c.18-.14.35-.29.49-.46l37.99-38.26c.8-.8 1.08-1.99.72-3.06-2.66-7.98-.63-16.87 5.15-22.65 4.05-4.07 9.55-6.3 15.47-6.3m0-3c-6.34 0-12.76 2.34-17.59 7.17-6.96 6.96-8.71 17.22-5.88 25.72L37.27 75.33h.01l-.05.03.04-.04c-2.68-.98-5.47-1.46-8.26-1.46-6.71 0-13.38 2.8-18.34 8.17-6.84 7.41-8.6 17.69-4.45 26.75.27.6.81.9 1.38.9.44 0 .89-.18 1.25-.54l16.63-16.63c.29-.29.75-.39 1.18-.39.09 0 .18 0 .27.01l6.77.73c.8.08 1.44.71 1.51 1.51l.64 6.68c.05.5-.1 1.01-.46 1.36l-16.58 16.58c-.86.86-.51 2.36.62 2.83 3.04 1.26 6.33 1.89 9.63 1.89 6.34 0 12.76-2.35 17.6-7.19 6.96-6.96 8.77-17.16 5.94-25.66l38.13-38.44c2.68.98 5.46 1.46 8.24 1.46 6.71 0 13.38-2.81 18.35-8.19 6.84-7.41 8.58-17.71 4.43-26.77-.27-.58-.77-.87-1.3-.87-.44 0-.9.19-1.27.56l-16.63 16.63c-.27.27-.71.35-1.12.35-.13 0-.25-.01-.37-.02l-6.83-.78c-.8-.08-1.42-.7-1.5-1.5l-.61-6.65c-.05-.5.16-.95.52-1.3l16.58-16.58c.86-.86.48-2.39-.65-2.86a25.696 25.696 0 0 0-9.67-1.88z" style="fill:#424242"/></g><path d="M-60 133.25v89.38c0 6.23 5.27 11.28 11.5 11.28s11.5-5.05 11.5-11.28v-89.38h-23zm11.5 91.13c-1.78 0-3.22-1.44-3.22-3.22s1.44-3.22 3.22-3.22 3.22 1.44 3.22 3.22c0 1.77-1.44 3.22-3.22 3.22z" style="fill:#757575"/><circle cx="-48.98" cy="109.97" r="27.23" style="fill:#757575"/><path d="M-56.48 76.17v39.06l7.5 7.82 7.5-7.82V76.17z" style="fill:#757575"/></svg>