<svg xmlns="http://www.w3.org/2000/svg" viewBox="0 0 128 128"><linearGradient id="a" x1="40" x2="40" y1="4" y2="124.2" gradientUnits="userSpaceOnUse"><stop offset="0" stop-color="#ff0"/><stop offset="1" stop-color="#FFD600"/></linearGradient><path fill="url(#a)" d="m61.5 34-39-29.12C19.88 2.79 16 4.65 16 8.01v82.07c0 1.22.55 2.36 1.5 3.12l44 29.92c.73.58 1.61.88 2.5.88V34.88c-.88 0-1.77-.29-2.5-.88z"/><linearGradient id="b" x1="88" x2="88" y1="4" y2="124.2" gradientUnits="userSpaceOnUse"><stop offset="0" stop-color="#4DB6AC"/><stop offset=".472" stop-color="#2BA296"/><stop offset="1" stop-color="#00897B"/></linearGradient><path fill="url(#b)" d="M105.5 4.88 66.5 34c-.73.58-1.61.88-2.5.88V124c.88 0 1.77-.29 2.5-.88l44-29.92c.95-.76 1.5-1.91 1.5-3.12V8.01c0-3.36-3.88-5.22-6.5-3.13z"/><path fill="#424242" d="M20.02 7c.22 0 .42.07.61.23l.08.06 38.97 29.09a7 7 0 0 0 1.33.82v81.95L19.32 90.81c-.2-.19-.32-.45-.32-.73V8.01c0-.7.6-1.01 1.02-1.01m0-3C17.95 4 16 5.63 16 8.01v82.07c0 1.22.55 2.36 1.5 3.12l44 29.92c.73.58 1.61.88 2.5.88V34.88c-.88 0-1.77-.29-2.5-.88l-39-29.12c-.76-.61-1.63-.88-2.48-.88zm87.96 3c.42 0 1.02.31 1.02 1.01v82.07c0 .28-.11.54-.32.73L67 119.15V37.2a7 7 0 0 0 1.33-.82L107.3 7.29l.08-.06c.19-.16.38-.23.6-.23m0-3c-.85 0-1.72.27-2.48.88L66.5 34c-.73.58-1.61.88-2.5.88V124c.88 0 1.77-.29 2.5-.88l44-29.92c.95-.76 1.5-1.91 1.5-3.12V8.01c0-2.38-1.95-4.01-4.02-4.01z" opacity=".2"/></svg>