<svg xmlns="http://www.w3.org/2000/svg" viewBox="0 0 128 128"><linearGradient id="a" x1="64" x2="64" y1="19.751" y2="111.99" gradientUnits="userSpaceOnUse"><stop offset=".321" stop-color="#ECEFF1"/><stop offset="1" stop-color="#B0BEC5"/></linearGradient><circle cx="64" cy="64" r="60" fill="url(#a)"/><path fill="#424242" d="M63.8 63.98h.4c2.1 0 3.8-1.7 3.8-3.8v-32.4c0-2.1-1.7-3.8-3.8-3.8h-.4c-2.1 0-3.8 1.7-3.8 3.8v32.4c0 2.1 1.7 3.8 3.8 3.8z"/><path fill="#424242" d="m63.97 64.16-.19-.35a3.798 3.798 0 0 0-5.17-1.48L39.74 72.79a3.798 3.798 0 0 0-1.48 5.17l.19.35a3.798 3.798 0 0 0 5.17 1.48L62.5 69.32a3.792 3.792 0 0 0 1.47-5.16z"/><circle cx="64" cy="64" r="7" fill="#424242"/><circle cx="64" cy="64" r="3" fill="#fff"/><g fill="#757575"><circle cx="15.89" cy="64.13" r="4"/><circle cx="63.89" cy="16.13" r="4"/><circle cx="63.89" cy="112.13" r="4"/><circle cx="111.89" cy="64.13" r="4"/></g><path fill="#424242" d="M64 8c30.88 0 56 25.12 56 56s-25.12 56-56 56S8 94.88 8 64 33.12 8 64 8m0-4C30.86 4 4 30.86 4 64s26.86 60 60 60 60-26.86 60-60S97.14 4 64 4z" opacity=".2"/></svg>