<svg xmlns="http://www.w3.org/2000/svg" viewBox="0 0 128 128"><linearGradient id="a" x1="28.49" x2="28.49" y1="149.83" y2="111.84" gradientUnits="userSpaceOnUse"><stop offset="0" stop-color="#D32F2F"/><stop offset=".41" stop-color="#D02D2D"/><stop offset=".731" stop-color="#C62626"/><stop offset="1" stop-color="#B71C1C"/></linearGradient><path fill="url(#a)" d="M33.35 75.02 22.14 86.24 4.29 116.49c-.5.9-.34 2.03.39 2.76l4.08 4.07c.73.73 1.86.89 2.76.39l30.25-17.85 11.22-11.22-19.64-19.62z"/><path fill="#424242" d="m33.35 79.26 15.38 15.38-8.83 8.83-29.4 17.35-3.32-3.32 17.35-29.42 8.82-8.82m0-4.24L22.14 86.24 4.29 116.49c-.5.9-.34 2.03.39 2.76l4.08 4.08a2.309 2.309 0 0 0 2.76.39l30.25-17.85 11.22-11.22-19.64-19.63z" opacity=".2"/><linearGradient id="b" x1="67.435" x2="67.435" y1="10.333" y2="108.53" gradientUnits="userSpaceOnUse"><stop offset="0" stop-color="#EF5350"/><stop offset="1" stop-color="#E53935"/></linearGradient><path fill="url(#b)" d="M19.68 83a3.99 3.99 0 0 0 0 5.63l19.69 19.69a3.99 3.99 0 0 0 5.63 0l71.35-71.35-25.31-25.32"/><path fill="#212121" d="m22.495 80.19 2.815-2.814 25.322 25.32-2.815 2.815z"/><linearGradient id="c" x1="108.92" x2="108.92" y1="4.667" y2="27.241" gradientUnits="userSpaceOnUse"><stop offset="0" stop-color="#D32F2F"/><stop offset="1" stop-color="#B71C1C"/></linearGradient><path fill="url(#c)" d="m93.85 8.83 25.32 25.32 4.25-4.25c.78-.78.78-2.04 0-2.81L100.91 4.58a1.98 1.98 0 0 0-2.81 0"/><path fill="#212121" d="m91.036 11.652 2.814-2.815 25.322 25.321-2.814 2.815z"/><linearGradient id="d" x1="78.104" x2="78.104" y1="31" y2="58.297" gradientUnits="userSpaceOnUse"><stop offset="0" stop-color="#D32F2F"/><stop offset="1" stop-color="#B71C1C"/></linearGradient><path fill="url(#d)" d="M85.87 57.66C74.44 69.09 61.7 74.87 57.41 70.59c-4.29-4.29 1.5-17.03 12.93-28.45s24.17-17.21 28.45-12.93c4.29 4.28-1.5 17.02-12.92 28.45z"/><path fill="#424242" d="m99.51 7.42 21.08 21.08-77.7 77.7c-.25.25-.54.29-.69.29s-.44-.04-.69-.29L21.8 86.5c-.38-.38-.38-1 0-1.38l77.71-77.7m0-3.42c-.51 0-1.02.19-1.41.58L19.68 83a3.99 3.99 0 0 0 0 5.63l19.69 19.69c.78.78 1.79 1.17 2.81 1.17s2.04-.39 2.81-1.17l78.42-78.42c.78-.78.78-2.04 0-2.81l-22.5-22.51c-.39-.39-.9-.58-1.4-.58z" opacity=".2"/></svg>