<svg xmlns="http://www.w3.org/2000/svg" viewBox="0 0 128 128" style="enable-background:new 0 0 128 128"><path style="fill:#bdbdbd" d="M54.7 49h19v46.3h-19z"/><g style="opacity:.2"><path style="fill:#424242" d="M70.1 52.6v39.2H58.2V52.6h11.9m3.6-3.6h-19v46.3h19V49z"/></g><path style="fill:#bdbdbd" d="M42.8 98.6c0-4.4 3.6-8 8-8h26.6c4.4 0 8 3.6 8 8 0 .8-.6 1.4-1.4 1.4H44.2c-.7 0-1.4-.6-1.4-1.4z"/><g style="opacity:.2"><path style="fill:#424242" d="M77.5 92.9c2.8 0 5.1 2 5.6 4.7H45.3c.5-2.7 2.8-4.7 5.6-4.7h26.6m0-2.3H50.9c-4.4 0-8 3.6-8 8 0 .8.6 1.4 1.4 1.4h39.8c.8 0 1.4-.6 1.4-1.4 0-4.4-3.6-8-8-8z"/></g><linearGradient id="a" x1="64.15" x2="64.15" y1="721.917" y2="794.49" gradientTransform="translate(0 -713.89)" gradientUnits="userSpaceOnUse"><stop offset=".004" style="stop-color:#eee"/><stop offset="1" style="stop-color:#bdbdbd"/></linearGradient><path style="fill:url(#a)" d="M112 81.1H16.3c-4.4 0-8-3.6-8-8V15.8c0-4.4 3.6-8 8-8H112c4.4 0 8 3.6 8 8v57.3c-.1 4.4-3.6 8-8 8z"/><g style="opacity:.2"><path style="fill:#424242" d="M112 11.4c2.4 0 4.4 2 4.4 4.4v57.3c0 2.4-2 4.4-4.4 4.4H16.3c-2.4 0-4.4-2-4.4-4.4V15.8c0-2.4 2-4.4 4.4-4.4H112m0-3.6H16.3c-4.4 0-8 3.6-8 8v57.3c0 4.4 3.6 8 8 8H112c4.4 0 8-3.6 8-8V15.8c-.1-4.4-3.6-8-8-8z"/></g><path style="fill:#757575" d="M108.3 68.2H20c-1.6 0-3-1.3-3-3V19.5c0-1.6 1.3-3 3-3h88.3c1.7 0 3 1.3 3 3v45.8c0 1.6-1.3 2.9-3 2.9z"/><linearGradient id="b" x1="64.2" x2="64.2" y1="-27.521" y2="-14.202" gradientTransform="matrix(1 0 0 -1 0 89.233)" gradientUnits="userSpaceOnUse"><stop offset="0" style="stop-color:#9e9e9e"/><stop offset="1" style="stop-color:#e0e0e0"/></linearGradient><path style="fill:url(#b)" d="M97 103.3H31.3c-.9 0-1.8.5-2.3 1.3l-7.1 12.1h84.6l-7.2-12.2c-.5-.7-1.4-1.2-2.3-1.2z"/><g style="opacity:.2"><path style="fill:#424242" d="M97 104.8c.4 0 .8.2 1 .6l5.9 10H24.3l5.9-10c.2-.4.6-.6 1-.6H97m0-1.5H31.3c-.9 0-1.8.5-2.3 1.3l-7.1 12.1h84.6l-7.2-12.2c-.5-.7-1.4-1.2-2.3-1.2z"/></g><path style="fill:#f5f5f5" d="M37.9 107.7h-4.5l.6-1.1h4.5zM45 107.7h-4.5l.5-1.1h4.7zM51.8 107.7h-4.6l.7-1.1h4.5zM58.5 107.7H54l.7-1.1H59zM65.2 107.7h-4.6l.4-1.1h3.8zM71.9 107.7h-4.5l-.5-1.1h4.3zM78.9 107.7h-4.6l-.8-1.1H78zM85.6 107.7H81l-.8-1.1h4.6zM94.7 107.7h-6.9l-.8-1.1h7zM91.2 109.5h4.5l-.8-1.2h-4.6zM83.8 109.5h4.5l-.9-1.2h-4.5zM77 109.5h4.5l-.7-1.2h-4.6zM69.7 109.5h4.5l-.8-1.2h-4.3zM63.2 109.5h4.5l-.5-1.2h-3.8zM56.7 109.5h4.5l.3-1.2h-4.4zM49.6 109.5h4.5l.6-1.2h-4.4zM41.6 109.5h4.6l.7-1.2h-4.6zM32.4 109.5h6.8l.7-1.2H33zM75.4 111.3H80l-.8-1.2h-4.6zM68.2 111.3h4.5l-.6-1.2h-4.3zM59.6 111.3h4.6l-.1-1.2H60zM51.5 111.3h4.6l.4-1.2h-4.4zM43 111.3h4.5l.7-1.2h-4.5zM31.5 111.3h9.1l.7-1.2h-9.1zM83.1 111.3h13.6l-.8-1.2H82.3zM93.4 113.1H98l-.9-1.2h-4.6zM85 113.1h4.5l-.9-1.2h-4.5zM48.7 113.1h30.9l-.7-1.2H49.4zM39 113.1h4.6l.5-1.2h-4.4zM30.4 113.1h4.5l.5-1.2H31z"/><path style="fill:#9e9e9e" d="M105 119.6H23.4c-.8 0-1.5-.7-1.5-1.5v-1.3h84.6v1.3c0 .8-.7 1.5-1.5 1.5z"/><g style="opacity:.2"><path style="fill:#424242" d="M105.8 117.5v.6c0 .4-.4.8-.8.8H23.4c-.4 0-.8-.4-.8-.8v-.6h83.2m.7-.7H21.9v1.3c0 .8.7 1.5 1.5 1.5H105c.8 0 1.5-.7 1.5-1.5v-1.3z"/></g></svg>