<svg xmlns="http://www.w3.org/2000/svg" style="enable-background:new 0 0 128 128" viewBox="0 0 128 128" xml:space="preserve"><path d="M103.4 76.2H24.5c-2.5 0-4.6-2.1-4.6-4.6v-51c0-2.5 2.1-4.6 4.6-4.6h78.9c2.5 0 4.6 2.1 4.6 4.6v51c0 2.6-2.1 4.6-4.6 4.6z" style="fill:#757575"/><g style="opacity:.2"><path d="M103.4 19.1c.8 0 1.6.7 1.6 1.6v51c0 .8-.7 1.6-1.6 1.6H24.5c-.9 0-1.6-.7-1.6-1.6v-51c0-.9.7-1.6 1.6-1.6h78.9m0-3H24.5c-2.5 0-4.6 2.1-4.6 4.6v51c0 2.5 2.1 4.6 4.6 4.6h78.9c2.5 0 4.6-2.1 4.6-4.6v-51c0-2.5-2.1-4.6-4.6-4.6z" style="fill:#424242"/></g><path d="M94.3 48.2H33.7c-2 0-3.6-1.6-3.6-3.6v-37c0-2 1.6-3.6 3.6-3.6h60.7c2 0 3.6 1.6 3.6 3.6v37c-.1 2-1.7 3.6-3.7 3.6z" style="fill:#f5f5f5"/><g style="opacity:.2"><path d="M94.3 7c.3 0 .6.2.6.6v37c0 .3-.2.6-.6.6H33.7c-.3 0-.6-.2-.6-.6v-37c0-.3.2-.6.6-.6h60.6m0-3H33.7c-2 0-3.6 1.6-3.6 3.6v37c0 2 1.6 3.6 3.6 3.6h60.7c2 0 3.6-1.6 3.6-3.6v-37c-.1-2-1.7-3.6-3.7-3.6z" style="fill:#424242"/></g><linearGradient id="a" x1="64" x2="64" y1="817.79" y2="757.59" gradientTransform="translate(0 -713.89)" gradientUnits="userSpaceOnUse"><stop offset="0" style="stop-color:#bdbdbd"/><stop offset=".208" style="stop-color:#cacaca"/><stop offset=".705" style="stop-color:#e4e4e4"/><stop offset="1" style="stop-color:#eee"/></linearGradient><path d="M114.9 103.9H13.1c-4.9 0-8.9-4-8.9-8.9V52.6c0-4.9 4-8.9 8.9-8.9h101.8c4.9 0 8.9 4 8.9 8.9V95c0 4.9-4 8.9-8.9 8.9z" style="fill:url(#a)"/><path d="M20 43.7v7.5c0 2.5 2.2 4.5 4.7 4.5h78.5c2.5 0 4.7-2 4.7-4.5v-7.5H20z" style="fill:#424242"/><g style="opacity:.2"><path d="M114.9 46.7c3.2 0 5.9 2.6 5.9 5.9V95c0 3.2-2.6 5.9-5.9 5.9H13.1c-3.2 0-5.9-2.6-5.9-5.9V52.6c0-3.2 2.6-5.9 5.9-5.9h101.8m0-3H13.1c-4.9 0-8.9 4-8.9 8.9V95c0 4.9 4 8.9 8.9 8.9h101.8c4.9 0 8.9-4 8.9-8.9V52.6c0-4.9-4-8.9-8.9-8.9z" style="fill:#424242"/></g><circle cx="108.7" cy="69.4" r="7.2" style="fill:#757575"/><path d="M103.4 116H24.6c-2.5 0-4.6-2.1-4.6-4.6V87.9h88v23.4c0 2.6-2.1 4.7-4.6 4.7z" style="fill:#424242"/><g style="opacity:.2"><path d="M105 90.9v20.4c0 .8-.7 1.6-1.6 1.6H24.6c-.9 0-1.6-.7-1.6-1.6V90.9h82m3-3H20v23.4c0 2.5 2.1 4.6 4.6 4.6h78.8c2.5 0 4.6-2.1 4.6-4.6V87.9z" style="fill:#424242"/></g><path d="M96 98.3v5.1c0 1.4-1.1 2.5-2.5 2.5h-59c-1.4 0-2.5-1.1-2.5-2.5v-5.1c0-1.3-1-2.3-2.3-2.3h-7.4C21 96 20 97 20 98.3v13.1c0 2.5 2.1 4.6 4.6 4.6h78.8c2.5 0 4.6-2.1 4.6-4.6V98.3c0-1.3-1-2.3-2.3-2.3h-7.3C97 96 96 97 96 98.3z" style="fill:#757575"/><g style="opacity:.2"><path d="M105.7 98c.2 0 .3.2.3.3v13.1c0 1.4-1.2 2.6-2.6 2.6H24.6c-1.4 0-2.6-1.2-2.6-2.6V98.3c0-.2.1-.3.3-.3h7.4c.2 0 .3.2.3.3v5.1c0 2.5 2 4.5 4.5 4.5h58.9c2.5 0 4.5-2 4.5-4.5v-5.1c0-.2.2-.3.3-.3h7.5m0-2h-7.3C97 96 96 97 96 98.3v5.1c0 1.4-1.1 2.5-2.5 2.5h-59c-1.4 0-2.5-1.1-2.5-2.5v-5.1c0-1.3-1-2.3-2.3-2.3h-7.4C21 96 20 97 20 98.3v13.1c0 2.5 2.1 4.6 4.6 4.6h78.8c2.5 0 4.6-2.1 4.6-4.6V98.3c0-1.3-1-2.3-2.3-2.3z" style="fill:#424242"/></g></svg>