<svg xmlns="http://www.w3.org/2000/svg" style="enable-background:new 0 0 128 128" viewBox="0 0 128 128" xml:space="preserve"><path d="M101.7 53.7C101.7 32.9 84.8 16 64 16S26.3 32.9 26.3 53.7v32.6c0 20.8 16.9 37.7 37.7 37.7s37.7-16.9 37.7-37.7V53.7z" style="fill:#e0e0e0"/><path d="M7.4 63.1c-1.2 0-2.2-.7-2.7-1.8-.7-1.5 0-3.3 1.5-4 6.8-3.1 11.1-9 11.1-16.7v-2.7C17.3 17 28.6 4 46.8 4 62.8 4 70 16.9 70 29.7c0 1.7-1.3 3-3 3s-3-1.3-3-3C64 10.9 49.7 10 46.8 10c-21.2 0-23.5 19.5-23.5 27.9v2.8c0 10.1-5.6 18.1-14.6 22.2-.5.1-.9.2-1.3.2z" style="fill:#504f4f"/><linearGradient id="a" x1="64" x2="64" y1="730.04" y2="837.73" gradientTransform="translate(0 -713.89)" gradientUnits="userSpaceOnUse"><stop offset="0" style="stop-color:#e0e0e0"/><stop offset="1" style="stop-color:#9e9e9e"/></linearGradient><path d="M101.7 53.7C101.7 32.9 84.8 16 64 16S26.3 32.9 26.3 53.7v32.6c0 20.8 16.9 37.7 37.7 37.7s37.7-16.9 37.7-37.7V53.7z" style="fill:url(#a)"/><path d="M64.1 16c-3.8 0-7.2.6-10.8 1.6v48.9c0 6 4.8 10.8 10.8 10.8s10.8-4.8 10.8-10.8V17.6c-3.6-1-7.1-1.6-10.8-1.6z" style="opacity:.6;fill:#757575;enable-background:new"/><path d="M64 52.1c-4 0-7.2-3.2-7.2-7.2V34c0-4 3.2-7.2 7.2-7.2s7.2 3.2 7.2 7.2v10.9c0 4-3.2 7.2-7.2 7.2z" style="fill:#504f4f"/></svg>