<svg xmlns="http://www.w3.org/2000/svg" viewBox="0 0 128 128"><radialGradient id="a" cx="61.333" cy="43" r="63.334" gradientUnits="userSpaceOnUse"><stop offset=".685" stop-color="#FAFAFA"/><stop offset="1" stop-color="#E0E0E0"/></radialGradient><path fill="url(#a)" d="M71.63 21.22 83.74 7.28c.71-.7 1.9-.51 2.35.38l5.13 14.32c.33.66 1.11.97 1.81.72l13.06-2.55c1.09-.39 2.17.57 1.93 1.69l-.24 9.41c-.17.81.35 1.59 1.16 1.75l13.54 1.36c1.11.22 1.57 1.55.84 2.4l-11.84 13.13c-.57.66-.44 1.67.28 2.17l9.63 6.65c.93.64.82 2.06-.21 2.54l-8.9 4.19c-.86.41-1.12 1.51-.52 2.25l11.36 13.1c.8 1 .04 2.47-1.24 2.39L107 81.12c-1.12-.07-1.9 1.09-1.41 2.11l7.77 14.33c.57 1.19-.59 2.47-1.83 2.02L91.08 90.4a1.47 1.47 0 0 0-1.92.99l-3.26 9.89c-.26.94-1.34 1.37-2.18.87l-14.09-7.31a1.48 1.48 0 0 0-2.01.48l-7.89 14.99c-.57.91-1.89.93-2.48.03l-9.01-16.37c-.49-.74-1.51-.89-2.19-.31L14.2 120.78c-1.19 1.01-2.92-.27-2.31-1.7L25.06 88.4c.49-1.14-.56-2.33-1.75-2l-14.18 4c-1.33.38-2.4-1.12-1.61-2.25l10.07-14.56c.59-.86.13-2.04-.89-2.27l-6.35-3.39c-1.14-.26-1.54-1.69-.69-2.5l7.83-8.75c.68-.66.58-1.78-.22-2.3L5 46.92c-.93-.61-.88-1.99.1-2.53l14.79-5.04c.73-.4.99-1.32.57-2.03l-8.12-13.98c-.7-1.2.5-2.61 1.79-2.12l18.34 6.9c.88.33 1.83-.23 1.97-1.15l3.02-8.23a1.473 1.473 0 0 1 2.36-.94l8.12 5.73c.71.56 1.75.34 2.19-.45L57.89 9.1a1.48 1.48 0 0 1 2.47-.17l9.05 12.12c.54.72 1.58.8 2.22.17z"/><path fill="#424242" d="M84.21 11.32 88.39 23c.04.12.09.23.15.34.77 1.51 2.3 2.45 3.99 2.45.42 0 .83-.06 1.23-.17l11.22-2.19-.19 7.55c-.14 1.07.1 2.14.7 3.05a4.44 4.44 0 0 0 2.87 1.92c.09.02.18.03.27.04l10.4 1.05-9.79 10.86c-.02.02-.03.04-.05.06-.82.96-1.2 2.23-1.04 3.48s.85 2.39 1.89 3.1l7.45 5.14-6.5 3.06c-1.25.59-2.14 1.7-2.45 3.04s.01 2.73.87 3.81c.02.03.05.06.07.09l8.66 9.98-10.74-1.49c-.08-.01-.16-.02-.24-.02-.09-.01-.18-.01-.27-.01-1.54 0-2.96.78-3.78 2.09s-.92 2.92-.25 4.31c.02.05.04.09.07.13l5.57 10.28-16.21-7.31c-.07-.03-.14-.06-.2-.08-.49-.18-1.01-.27-1.53-.27-1.97 0-3.72 1.31-4.28 3.19l-2.7 8.2-12.51-6.49a4.47 4.47 0 0 0-6 1.53c-.04.06-.07.12-.11.19l-6.52 12.37-7.58-13.78c-.04-.07-.08-.14-.12-.2A4.475 4.475 0 0 0 47 90.28c-1.06 0-2.09.38-2.9 1.07l-26.9 22.9 10.6-24.69c.6-1.39.46-2.96-.37-4.22s-2.23-2.02-3.73-2.02c-.41 0-.82.06-1.23.17L12.4 86.36l7.65-11.07c.85-1.22 1.03-2.78.49-4.17a4.46 4.46 0 0 0-2.69-2.6l-4.7-2.51 6.52-7.28c.92-.94 1.38-2.23 1.25-3.54a4.449 4.449 0 0 0-2.01-3.33c-.03-.02-.05-.03-.08-.05l-9.42-5.73 11.44-3.9c.16-.05.32-.12.46-.2a4.469 4.469 0 0 0 2.17-2.72c.32-1.16.16-2.42-.44-3.45l-5.96-10.27 14.33 5.39c.51.19 1.04.29 1.58.29 2.1 0 3.87-1.42 4.35-3.42l2.35-6.41 6.48 4.57c.77.57 1.72.89 2.68.89 1.63 0 3.13-.88 3.91-2.3l6.61-11.91 7.64 10.22c.84 1.12 2.18 1.8 3.58 1.8 1.18 0 2.3-.46 3.14-1.29.05-.05.11-.11.16-.17l10.32-11.88m.56-4.46c-.37 0-.74.14-1.03.42L71.63 21.22c-.29.29-.66.42-1.03.42-.45 0-.89-.2-1.18-.59L60.36 8.94c-.3-.4-.74-.59-1.18-.59-.51 0-1.01.26-1.29.76l-7.75 13.98c-.27.49-.78.76-1.29.76-.31 0-.63-.1-.9-.31l-8.12-5.73c-.28-.21-.59-.31-.9-.31-.69 0-1.34.48-1.46 1.25l-3.02 8.23c-.11.74-.75 1.25-1.45 1.25-.17 0-.35-.03-.52-.1l-18.34-6.9c-.18-.07-.36-.1-.53-.1-1.06 0-1.86 1.19-1.26 2.22l8.12 13.98c.42.72.16 1.64-.57 2.03L5.1 44.39c-.98.53-1.04 1.92-.1 2.53l12.27 7.46c.79.52.9 1.64.22 2.3l-7.83 8.75c-.85.81-.45 2.24.69 2.5l6.35 3.39c1.02.23 1.48 1.42.89 2.27L7.51 88.15c-.7 1.01.08 2.31 1.2 2.31.13 0 .27-.02.42-.06l14.18-4.01c.14-.04.28-.06.41-.06 1.01 0 1.77 1.05 1.34 2.06l-13.17 30.68c-.46 1.07.4 2.06 1.36 2.06.32 0 .65-.11.94-.36l31.87-27.12c.28-.24.62-.35.95-.35.48 0 .95.23 1.23.66l9.01 16.37c.29.44.76.66 1.23.66.48 0 .96-.23 1.25-.69l7.89-14.99c.28-.45.76-.69 1.25-.69.26 0 .52.07.76.21l14.09 7.31c.24.14.5.21.76.21.63 0 1.24-.41 1.42-1.08l3.26-9.89a1.47 1.47 0 0 1 1.93-.99l20.44 9.21c.17.06.35.09.52.09 1.02 0 1.81-1.09 1.32-2.11l-7.77-14.33c-.47-.98.25-2.11 1.32-2.11h.09l14.89 2.06h.09c1.22 0 1.92-1.42 1.14-2.39l-11.36-13.1c-.6-.74-.34-1.85.52-2.25l8.9-4.19c1.03-.48 1.14-1.9.21-2.54l-9.63-6.65c-.72-.5-.85-1.51-.28-2.17l11.84-13.13c.73-.86.27-2.19-.84-2.4l-13.54-1.36c-.81-.16-1.33-.95-1.16-1.75l.24-9.41c.2-.95-.54-1.78-1.44-1.78-.16 0-.33.03-.5.09l-13.06 2.55c-.16.06-.33.09-.49.09-.54 0-1.06-.3-1.31-.81L86.09 7.67a1.47 1.47 0 0 0-1.32-.81z" opacity=".2"/></svg>