<svg xmlns="http://www.w3.org/2000/svg" viewBox="0 0 128 128"><radialGradient id="a" cx="64" cy="15.5" r="120.51" gradientTransform="matrix(0 1 -.437 0 70.774 -48.5)" gradientUnits="userSpaceOnUse"><stop offset="0" stop-color="#EF5350"/><stop offset=".335" stop-color="#EC4F4C"/><stop offset=".666" stop-color="#E34341"/><stop offset=".994" stop-color="#D32F2F"/><stop offset="1" stop-color="#D32F2F"/></radialGradient><path fill="url(#a)" d="M102 120h-2.78l-.25-.25c-.69-.67-1.35-1.36-2.01-2.06-.07-.07-.14-.15-.21-.22-.67-.73-1.32-1.48-1.96-2.25-.06-.07-.12-.15-.17-.22-.65-.8-1.28-1.61-1.89-2.45-.64-.87-1.26-1.76-1.86-2.68-.03-.04-.05-.08-.08-.12a81.102 81.102 0 0 1-4.49-7.76c-.52-1.02-1.03-2.05-1.52-3.11-.3-.64-.6-1.29-.89-1.94-.14-.31-.28-.64-.41-.95-.29-.66-.57-1.33-.85-2-.81-1.96-1.58-3.96-2.33-6-.24-.66-.48-1.33-.71-2-2.59-7.43-4.8-15.32-6.9-23.38-.45-1.74-.78-3.52-.98-5.31L65.99 5.82c-.22-2.43-3.76-2.43-3.98 0L56.3 57.31c-.2 1.79-.52 3.57-.98 5.31-2.1 8.05-4.31 15.95-6.9 23.38a147.06 147.06 0 0 1-3.04 8.01c-.28.67-.56 1.33-.85 1.99-.14.32-.27.64-.41.95-.29.65-.59 1.3-.89 1.94-.49 1.06-1 2.09-1.53 3.11-.34.67-.69 1.34-1.05 2-1.08 2-2.23 3.92-3.44 5.76-.03.04-.05.08-.08.12a66.243 66.243 0 0 1-3.75 5.12c-.06.07-.12.15-.17.22-.63.77-1.29 1.52-1.96 2.25-.1.11-.2.21-.29.31-.62.67-1.26 1.32-1.91 1.95-.07.07-.14.14-.21.2l-.06.06H26c-1.1 0-2 .9-2 2v2h20v-2c0-1.1-.9-2-2-2h-.1c4.39-7.16 12.61-12 22.06-12s17.67 4.84 22.06 12H86c-1.1 0-2 .9-2 2v2h20v-2c0-1.09-.9-1.99-2-1.99zM76 88h.03c.37 1.05.75 2.08 1.13 3.1.17.46-.4.83-.74.48l-2.57-2.57a.592.592 0 0 1 .42-1.01H76zm-4.87 1.12L75.02 93c.37.37.11 1-.41 1h-7.78c-.52 0-.78-.63-.41-1l3.89-3.89c.22-.22.59-.22.82.01zM65 90.49V88h2.16c.53 0 .79.64.42 1.01l-1.8 1.8c-.29.29-.78.09-.78-.32zM51.97 88h1.78c.53 0 .79.64.42 1.01l-2.59 2.59c-.35.35-.92-.02-.74-.48.38-1.03.76-2.07 1.13-3.12zm5.74 1.12L61.59 93c.37.37.11 1-.41 1h-7.79c-.51 0-.77-.62-.41-.98l3.89-3.89c.24-.24.61-.24.84-.01zm-9.62 8.75c.1-.23.2-.47.31-.71.3-.71.99-1.17 1.76-1.17h3.89c.41 0 .62.5.33.79l-4.85 4.85c-.19.19-.51.19-.7 0-1-.97-1.3-2.47-.74-3.76zm4.76 3.28 4.11-4.11a.47.47 0 0 1 .66 0l4.11 4.11a.5.5 0 0 1-.35.85H53.2a.5.5 0 0 1-.35-.85zm9.14-2.58-1.78-1.78a.462.462 0 0 1 .33-.79h2c.26 0 .47.21.47.47v1.69c-.01.52-.65.79-1.02.41zm.24-7.76-1.8-1.8a.587.587 0 0 1 .41-1.01H63v2.49c0 .41-.49.61-.77.32zM53.3 84c1.84-5.59 3.51-11.39 5.09-17.32A3.596 3.596 0 0 1 61.87 64h4.27c1.63 0 3.05 1.1 3.47 2.68 1.58 5.93 3.25 11.73 5.09 17.32H53.3zm12.17 12h2c.41 0 .62.5.33.79l-1.78 1.78a.596.596 0 0 1-1.02-.42v-1.69c0-.25.21-.46.47-.46zm.79 5.15 4.12-4.12a.47.47 0 0 1 .66 0l4.12 4.12a.5.5 0 0 1-.35.85h-8.19a.5.5 0 0 1-.36-.85zm12.22.49-4.85-4.85a.465.465 0 0 1 .33-.79h4.19c.57 0 1.09.35 1.32.87.14.34.29.67.44 1.01.56 1.28.26 2.77-.72 3.76-.2.2-.51.2-.71 0z"/><path fill="#eee" d="M67.12 16h-6.24l-1.33 12h8.9zm2.66 24H58.22l-1.33 12h14.22z"/><path fill="#424242" d="M64 6v.04l5.71 51.49c.21 1.9.56 3.79 1.03 5.6 1.73 6.65 4.09 15.33 6.95 23.53.24.68.48 1.35.72 2.02a142.708 142.708 0 0 0 3.22 8.11l.14.33c.09.22.19.43.28.64.3.67.6 1.32.9 1.98.48 1.02.98 2.05 1.55 3.17.35.69.71 1.37 1.08 2.04a82.82 82.82 0 0 0 3.52 5.9l.09.12c.64.96 1.28 1.89 1.91 2.75l.04.06c.6.81 1.22 1.62 1.92 2.47l.07.08.11.14c.64.78 1.33 1.57 2.03 2.33l.23.24c.75.8 1.43 1.49 2.07 2.12l.2.2c.03.03.07.06.07.06l.58.55H102 89.59l-1.87-3.04c-4.9-7.99-14-12.96-23.77-12.96s-18.87 4.96-23.77 12.96L38.33 122H42 29.58l.55-.52.07-.06.24-.24c.66-.64 1.33-1.32 1.99-2.03l.11-.11.2-.21c.7-.76 1.38-1.55 2.03-2.33l.11-.14.07-.08c.69-.85 1.32-1.66 1.91-2.47l.04-.06c.63-.87 1.28-1.79 1.91-2.75l.05-.08.03-.05c1.22-1.85 2.4-3.84 3.52-5.9.36-.67.72-1.35 1.07-2.04a101.394 101.394 0 0 0 2.46-5.14c.09-.21.19-.43.28-.64l.14-.33c.29-.67.58-1.34.86-2.02.81-1.96 1.6-4.01 2.36-6.09.24-.67.48-1.34.72-2.02 2.86-8.2 5.22-16.88 6.95-23.53.47-1.81.82-3.69 1.03-5.6L64 6m0-2c-.94 0-1.88.61-1.99 1.82L56.3 57.31c-.2 1.79-.52 3.57-.98 5.31-2.1 8.05-4.31 15.95-6.9 23.38a147.06 147.06 0 0 1-3.04 8.01c-.28.67-.56 1.33-.85 1.99-.14.32-.27.64-.41.95-.29.65-.59 1.3-.89 1.94-.49 1.06-1 2.09-1.53 3.11-.34.67-.69 1.34-1.05 2-1.08 2-2.23 3.92-3.44 5.76-.03.04-.05.08-.08.12a66.243 66.243 0 0 1-3.75 5.12c-.06.07-.12.15-.17.22-.63.77-1.29 1.52-1.96 2.25-.1.11-.2.21-.29.31-.62.67-1.26 1.32-1.91 1.95-.07.07-.14.14-.21.2l-.06.06H26c-1.1 0-2 .9-2 2v2h20v-2c0-1.1-.9-2-2-2h-.1c4.39-7.16 12.61-12 22.06-12s17.67 4.84 22.06 12H86c-1.1 0-2 .9-2 2v2h20v-2c0-1.1-.9-2-2-2h-2.78l-.25-.25c-.69-.67-1.35-1.36-2.01-2.06-.07-.07-.14-.15-.21-.22-.67-.73-1.32-1.48-1.96-2.25-.06-.07-.12-.15-.17-.22-.65-.8-1.28-1.61-1.89-2.45-.64-.87-1.26-1.76-1.86-2.68-.03-.04-.05-.08-.08-.12a81.102 81.102 0 0 1-4.49-7.76c-.52-1.02-1.03-2.05-1.52-3.11-.3-.64-.6-1.29-.89-1.94-.14-.31-.28-.64-.41-.95-.29-.66-.57-1.33-.85-2-.81-1.96-1.58-3.96-2.33-6-.24-.66-.48-1.33-.71-2-2.59-7.43-4.8-15.32-6.9-23.38-.45-1.74-.78-3.52-.98-5.31L65.99 5.82C65.88 4.61 64.94 4 64 4z" opacity=".2"/><path fill="#eee" d="M78 84H50c-1.1 0-2-.9-2-2v-8c0-1.1.9-2 2-2h28c1.1 0 2 .9 2 2v8c0 1.1-.9 2-2 2z"/><path fill="#E0E0E0" d="M54 77.29h-1c-.55 0-1-.45-1-1s.45-1 1-1h1c.55 0 1 .45 1 1s-.45 1-1 1zm5.25 0h-1c-.55 0-1-.45-1-1s.45-1 1-1h1c.55 0 1 .45 1 1s-.45 1-1 1zm5.25 0h-1c-.55 0-1-.45-1-1s.45-1 1-1h1c.55 0 1 .45 1 1s-.45 1-1 1zm5.25 0h-1c-.55 0-1-.45-1-1s.45-1 1-1h1c.55 0 1 .45 1 1s-.45 1-1 1zm5.25 0h-1c-.55 0-1-.45-1-1s.45-1 1-1h1c.55 0 1 .45 1 1s-.45 1-1 1zm-21 3.42h-1c-.55 0-1-.45-1-1s.45-1 1-1h1c.55 0 1 .45 1 1s-.45 1-1 1zm5.25 0h-1c-.55 0-1-.45-1-1s.45-1 1-1h1c.55 0 1 .45 1 1s-.45 1-1 1zm5.25 0h-1c-.55 0-1-.45-1-1s.45-1 1-1h1c.55 0 1 .45 1 1s-.45 1-1 1zm5.25 0h-1c-.55 0-1-.45-1-1s.45-1 1-1h1c.55 0 1 .45 1 1s-.45 1-1 1zm5.25 0h-1c-.55 0-1-.45-1-1s.45-1 1-1h1c.55 0 1 .45 1 1s-.45 1-1 1z"/><path fill="#424242" d="M78 74v8H50v-8h28m0-2H50c-1.1 0-2 .9-2 2v8c0 1.1.9 2 2 2h28c1.1 0 2-.9 2-2v-8c0-1.1-.9-2-2-2z" opacity=".2"/></svg>