<svg xmlns="http://www.w3.org/2000/svg" viewBox="0 0 128 128"><linearGradient id="a" x1="68.684" x2="68.684" y1="33.167" y2="51.673" gradientUnits="userSpaceOnUse"><stop offset="0" stop-color="#80CBC4"/><stop offset=".244" stop-color="#7DC8C1"/><stop offset=".423" stop-color="#74BFB8"/><stop offset=".582" stop-color="#66AFA8"/><stop offset=".728" stop-color="#519892"/><stop offset=".866" stop-color="#367B75"/><stop offset=".996" stop-color="#155852"/><stop offset="1" stop-color="#145751"/></linearGradient><path fill="url(#a)" d="m68.44 33.16-1.76 17.61c-.02.19.12.35.29.35l3.45-.08c.17 0 .29-.16.27-.35L69 33.16c-.03-.37-.52-.37-.56 0z"/><linearGradient id="b" x1="44.828" x2="59.635" y1="48.787" y2="48.787" gradientUnits="userSpaceOnUse"><stop offset="0" stop-color="#80CBC4"/><stop offset=".149" stop-color="#79C4BD"/><stop offset=".375" stop-color="#66AFA8"/><stop offset=".648" stop-color="#468D87"/><stop offset=".956" stop-color="#1B5E58"/><stop offset="1" stop-color="#145751"/></linearGradient><path fill="url(#b)" d="M44.92 42.46 56.89 55.5c.13.14.34.15.45.02l2.24-2.63c.11-.13.07-.33-.08-.44L45.3 42.04c-.31-.22-.63.14-.38.42z"/><linearGradient id="c" x1="37.788" x2="56.008" y1="59.754" y2="59.754" gradientUnits="userSpaceOnUse"><stop offset="0" stop-color="#80CBC4"/><stop offset=".162" stop-color="#7BC6BF"/><stop offset=".357" stop-color="#6DB7B0"/><stop offset=".57" stop-color="#579F98"/><stop offset=".794" stop-color="#377D77"/><stop offset="1" stop-color="#145751"/></linearGradient><path fill="url(#c)" d="m38.03 57.95 17.2 4.15c.18.04.36-.07.38-.24l.39-3.43c.02-.16-.12-.31-.31-.32l-17.58-.71c-.38-.02-.45.47-.08.55z"/><linearGradient id="d" x1="38.127" x2="56.396" y1="66.32" y2="66.32" gradientUnits="userSpaceOnUse"><stop offset="0" stop-color="#80CBC4"/><stop offset=".091" stop-color="#72BCB5"/><stop offset=".376" stop-color="#49908A"/><stop offset=".633" stop-color="#2C716B"/><stop offset=".85" stop-color="#1A5E58"/><stop offset="1" stop-color="#145751"/></linearGradient><path fill="url(#d)" d="m38.41 67 17.64.98c.19.01.35-.11.34-.25l-.16-2.85c-.01-.14-.17-.24-.35-.22L38.4 66.53c-.37.04-.36.44.01.47z"/><linearGradient id="e" x1="77.962" x2="92.768" y1="48.787" y2="48.787" gradientUnits="userSpaceOnUse"><stop offset="0" stop-color="#145751"/><stop offset=".145" stop-color="#2C706A"/><stop offset=".403" stop-color="#509791"/><stop offset=".64" stop-color="#6AB4AD"/><stop offset=".847" stop-color="#7AC5BE"/><stop offset="1" stop-color="#80CBC4"/></linearGradient><path fill="url(#e)" d="M92.68 42.46 80.71 55.49c-.13.14-.34.15-.45.02l-2.24-2.63c-.11-.13-.07-.33.08-.44l14.2-10.41c.31-.21.63.15.38.43z"/><linearGradient id="f" x1="81.588" x2="99.809" y1="59.754" y2="59.754" gradientUnits="userSpaceOnUse"><stop offset="0" stop-color="#145751"/><stop offset=".121" stop-color="#30766F"/><stop offset=".272" stop-color="#4D948E"/><stop offset=".431" stop-color="#64ACA6"/><stop offset=".598" stop-color="#74BEB7"/><stop offset=".779" stop-color="#7DC8C1"/><stop offset="1" stop-color="#80CBC4"/></linearGradient><path fill="url(#f)" d="m99.57 57.95-17.2 4.15c-.18.04-.36-.07-.38-.24l-.39-3.43c-.02-.16.12-.31.31-.32l17.59-.72c.36-.01.43.48.07.56z"/><linearGradient id="g" x1="81.2" x2="99.47" y1="66.32" y2="66.32" gradientUnits="userSpaceOnUse"><stop offset="0" stop-color="#145751"/><stop offset=".15" stop-color="#1A5E58"/><stop offset=".367" stop-color="#2C716B"/><stop offset=".624" stop-color="#49908A"/><stop offset=".909" stop-color="#72BCB5"/><stop offset="1" stop-color="#80CBC4"/></linearGradient><path fill="url(#g)" d="m99.18 67-17.64.98c-.19.01-.35-.11-.34-.25l.16-2.85c.01-.14.17-.24.35-.22l17.48 1.87c.38.04.37.44-.01.47z"/><linearGradient id="h" x1="70.548" x2="70.548" y1="76.692" y2="97.286" gradientUnits="userSpaceOnUse"><stop offset="0" stop-color="#145751"/><stop offset=".15" stop-color="#1A5E58"/><stop offset=".367" stop-color="#2C716B"/><stop offset=".624" stop-color="#49908A"/><stop offset=".909" stop-color="#72BCB5"/><stop offset="1" stop-color="#80CBC4"/></linearGradient><path fill="url(#h)" d="m56.58 88.52-2 2.6 16.05 6.77 15.88-3.73s-4.86-5.03-5.21-9.63 0-7.98 0-7.98H57.62s.95 9.37-1.04 11.97z"/><linearGradient id="i" x1="68.842" x2="68.842" y1="47.188" y2="72.596" gradientUnits="userSpaceOnUse"><stop offset="0" stop-color="#B2DFDB"/><stop offset=".388" stop-color="#8ED0CA"/><stop offset="1" stop-color="#4DB6AC"/></linearGradient><path fill="url(#i)" d="M85.85 64.93c0 9.88-7.55 17.49-16.94 17.49s-17.07-7.61-17.07-17.49 7.61-17.9 17.01-17.9 17 8.01 17 17.9z"/><path fill="#309996" d="M84.17 68.58c-.7 8.36-7.5 14.6-15.24 14.6S54.4 76.94 53.7 68.58c-.77-9.21 6.01-17.4 15.24-17.4s16.01 8.18 15.23 17.4z"/><linearGradient id="j" x1="69.333" x2="69.333" y1="79.931" y2="95.672" gradientUnits="userSpaceOnUse"><stop offset="0" stop-color="#1E8279"/><stop offset=".168" stop-color="#25877E"/><stop offset=".41" stop-color="#38958D"/><stop offset=".698" stop-color="#57ADA5"/><stop offset="1" stop-color="#80CBC4"/></linearGradient><path fill="url(#j)" d="M61.44 82.36s.87 4.6-.43 5.9l-1.3 1.3s5.21 4.16 6.94 4.86 12.32-.09 12.32-.09-3.04-2.52-2.43-10.15 0-5.29 0-5.29l-15.1 3.47z"/><linearGradient id="k" x1="54.632" x2="54.632" y1="73.183" y2="77.934" gradientUnits="userSpaceOnUse"><stop offset="0" stop-color="#BAE8E3"/><stop offset=".237" stop-color="#B4E5E0"/><stop offset=".555" stop-color="#A3DCD7"/><stop offset=".917" stop-color="#87CEC8"/><stop offset=".995" stop-color="#80CBC4"/></linearGradient><path fill="url(#k)" d="M54.07 73.19c-.69-.45-1.63.01-1.64.84-.01.95.28 2.15 1.51 3.01.5.35.93.63 1.3.85.85.52 1.88-.34 1.51-1.27-.13-.33-.31-.69-.54-1.06-.75-1.2-1.4-1.89-2.14-2.37z"/><linearGradient id="l" x1="76.924" x2="76.924" y1="73.183" y2="77.934" gradientUnits="userSpaceOnUse"><stop offset="0" stop-color="#BAE8E3"/><stop offset=".237" stop-color="#B4E5E0"/><stop offset=".555" stop-color="#A3DCD7"/><stop offset=".917" stop-color="#87CEC8"/><stop offset=".995" stop-color="#80CBC4"/></linearGradient><path fill="url(#l)" d="M77.48 73.11c.69-.45 1.63.01 1.64.84.01.95-.28 2.15-1.51 3.01-.5.35-.93.63-1.3.85-.85.52-1.88-.34-1.51-1.27.13-.33.31-.69.54-1.06.76-1.2 1.41-1.89 2.14-2.37z"/><linearGradient id="m" x1="69.27" x2="69.27" y1="60.18" y2="87.083" gradientUnits="userSpaceOnUse"><stop offset="0" stop-color="#BAE8E3"/><stop offset=".237" stop-color="#B4E5E0"/><stop offset=".555" stop-color="#A3DCD7"/><stop offset=".917" stop-color="#87CEC8"/><stop offset=".995" stop-color="#80CBC4"/></linearGradient><path fill="url(#m)" d="m68.9 59.92-11.02 8.3s.78 12.15 2.43 14.4c1.65 2.26 3.04 3.21 3.04 3.21s2.95 1.51 5.86 1.55v.01h.12v-.01c2.91-.04 5.86-1.55 5.86-1.55s1.39-.95 3.04-3.21 2.43-14.4 2.43-14.4l-11.76-8.3z"/><radialGradient id="n" cx="68.562" cy="59.228" r="25.645" gradientUnits="userSpaceOnUse"><stop offset="0" stop-color="#80CBC4"/><stop offset=".263" stop-color="#5FBEB5"/><stop offset=".565" stop-color="#40B1A6"/><stop offset=".822" stop-color="#2DA99D"/><stop offset="1" stop-color="#26A69A"/></radialGradient><path fill="url(#n)" d="M82.8 64.72c-1.06-2.46-6.57-9.34-13.77-8.85h-.02c-7.19-.49-12.71 6.39-13.77 8.85-1.39 3.24-.19 8.02-.19 8.02l3.52 3.31s-.09-2.91.09-6.41 7.4-5.38 9.2-6.94c.69-.6 1.02-1.75 1.17-2.94.14 1.19.47 2.34 1.17 2.94 1.8 1.56 9.02 3.44 9.2 6.94s.5 6.37.5 6.37l3.1-3.27c-.01 0 1.19-4.78-.2-8.02z"/><linearGradient id="o" x1="32.815" x2="32.815" y1="32.58" y2="96.204" gradientUnits="userSpaceOnUse"><stop offset="0" stop-color="#1E8279"/><stop offset=".168" stop-color="#25877E"/><stop offset=".41" stop-color="#38958D"/><stop offset=".698" stop-color="#57ADA5"/><stop offset="1" stop-color="#80CBC4"/></linearGradient><path fill="url(#o)" d="M28.25 51.34c1.41 3.6-.94 16.88-.47 26.42s1.88 17.98 3.28 22.83c1.41 4.85 9.07-10.94 9.07-10.94s1.88-6.1-.47-15.48-5.32-18.29-4.22-22.83c1.09-4.53 2.81-7.5 2.5-12.51-.31-5-2.81-8.6-6.57-9.07s-6.88 5.47-6.57 10.63c.32 5.17 2.04 7.35 3.45 10.95z"/><radialGradient id="p" cx="30.796" cy="12.024" r="11.503" gradientUnits="userSpaceOnUse"><stop offset="0" stop-color="#FFD54F"/><stop offset=".175" stop-color="#FFD245"/><stop offset=".472" stop-color="#FFCB2A"/><stop offset=".785" stop-color="#FFC107"/><stop offset="1" stop-color="#FFC107"/></radialGradient><path fill="url(#p)" stroke="#EDA900" stroke-miterlimit="10" stroke-width="2.285" d="M24.67 18.54c-.07-.04-.14-.09-.2-.14a3.72 3.72 0 0 1-.87-.9c-1.84-2.65-1.01-6.83 1.65-8.56.85-.55 1.82-.87 2.72-1.34.66-.34 1.38-.82 1.78-1.47.12-.2.21-.43.27-.65.19-.68.94-1.08 1.62-.88 1.95.58 3.73 1.75 5.02 3.33 2.25 2.77 3.8 8.44.13 10.77-1.63 1.03-4.2.8-6.02.72-1.92-.09-4.41.2-6.1-.88z"/><linearGradient id="q" x1="20.324" x2="42.178" y1="22.498" y2="22.498" gradientUnits="userSpaceOnUse"><stop offset="0" stop-color="#B2DFDB"/><stop offset=".388" stop-color="#8ED0CA"/><stop offset="1" stop-color="#4DB6AC"/></linearGradient><path fill="url(#q)" d="M38.1 27.45c-1.82-.27-3.34-.39-4.77-.46-1.42-.06-2.75-.06-4.17 0s-2.95.19-4.77.46c-1.46.22-2.85-.63-3.14-1.98l-.9-4.33c-.28-1.35.9-2.75 2.65-3.01 1.64-.24 3.08-.39 4.42-.48a56.26 56.26 0 0 1 7.64 0c1.34.09 2.78.23 4.42.48 1.75.26 2.93 1.66 2.65 3.01l-.9 4.33c-.27 1.35-1.67 2.19-3.13 1.98z"/><ellipse cx="31.26" cy="26.49" fill="#309996" rx="9.11" ry="2.07"/><linearGradient id="r" x1="63.587" x2="63.587" y1="88.634" y2="124.43" gradientUnits="userSpaceOnUse"><stop offset="0" stop-color="#B2DFDB"/><stop offset="1" stop-color="#80CBC4"/></linearGradient><path fill="url(#r)" d="M42.32 61.56s3.75 3.44 4.06 7.35 1.72 9.54 3.91 11.57 2.19 4.85 5.16 6.25 12.51 6.72 19.86 6.1c7.35-.63 13.6.31 15.16.63s9.39 2.5 9.23 5.47-1.25 3.13.31 5.16 2.19 4.53 2.5 7.19-2.03 4.06-.63 6.72-3.01 5.83-3.01 5.83h-63.2s.75-8.22-1.33-13c-1.24-2.85-6.92-4.15-5.67-9s1.25-6.08 1.25-6.08-7.76-2.14-4.48-11.21 4.85-12.98 4.85-12.98 7.5-14.22 12.03-10z"/><path fill="#4DB6AC" d="M71.28 78.63c-.07-.62-.67-1.29-1.27-1.37-.24-.03-.5 0-.77.02-.27-.02-.54-.06-.77-.02-.6.08-1.21.75-1.27 1.37-.01.05-.01.1 0 .15.04.52.63.72 1.07.62.32-.07 1.63-.07 1.95 0 .44.09 1.03-.1 1.07-.62-.01-.05-.01-.1-.01-.15z"/><path fill="#006C77" d="M31.22 25.49c-2.81 0-4.13 1.57-4.08 2.69l1.21 26.53c.03.74.48 1.41 1.16 1.71l1.11.5c.51.23 1.1.23 1.62 0l1.11-.5c.68-.31 1.13-.97 1.16-1.71l1.21-26.53c.04-1.12-1.69-2.69-4.5-2.69z"/><linearGradient id="s" x1="24.348" x2="32.924" y1="39.173" y2="39.173" gradientUnits="userSpaceOnUse"><stop offset="0" stop-color="#BAE8E3"/><stop offset=".237" stop-color="#B4E5E0"/><stop offset=".555" stop-color="#A3DCD7"/><stop offset=".917" stop-color="#87CEC8"/><stop offset=".995" stop-color="#80CBC4"/></linearGradient><path fill="url(#s)" d="M25.51 33.62c.24-.67.81-1.17 1.51-1.34 1.59-.39 4.38-.9 4.73.09.63 1.77-4.59 2.19-3.02 2.4 1.56.21 3.54-.1 4.06.94s-.52 1.88-1.25 1.88h-.73s1.35.73.94 1.35c-.42.63-4.48.63-5.21 3.54-.73 2.92-.73 4.06-.73 4.06s-3.07-5.07-.3-12.92z"/><path fill="#1E8279" d="M37.23 35.68c-.39-1.18-.91-2.31-1.55-3.37-.22-.37-.47-.75-.81-1.02s-.79-.44-1.21-.35c-.68.14-1.09.9-1.07 1.6s.35 1.34.68 1.96c.41.77.82 1.55 1.23 2.32.25.48.52.97.95 1.29.43.33 1.07.43 1.5.1.3-.23.43-.62.48-.99.11-.78-.05-1.6-.46-2.28"/><path fill="#4DB6AC" d="M72.47 97.89c-7.99 2.76-20.17 9.14-29.39 23.7-.88 1.39.88 2.95 2.14 1.88 7.36-6.28 19.87-16.76 28.56-23.06 1.32-.96.24-3.06-1.31-2.52zm-39.66 7.54c-.64-2.14-2.16-4.09-.81-5.76 2.61-3.23 8.81-9.22 10.38-14.58 0 0 1.12 12.08-9.57 20.34zM44.83 85.5s3.45 1.22 3.42 2.95-1.08 10.26-2.58 12.97c.01 0-.13-12.93-.84-15.92zm20.25 38.16c6.69-5.74 13.12-13.24 16-21.72.25-.72-.74-1.21-1.16-.57-3.12 4.81-9.42 13.37-19.09 21.29-.47.39-.21 1.15.4 1.15h3.42c.16 0 .31-.05.43-.15zm25.42-.51c-.29-10.04-1.77-16.43-3.06-20.15-.25-.73-1.35-.48-1.26.29.61 5.26 1.07 13.1 1.43 19.97.02.35.31.62.66.61l1.59-.03c.37-.02.65-.33.64-.69zm4.55-21.08c2.15 1.76 3.98 4 4.81 6.65.21.68.33 1.51-.15 2.04-.47.52-1.33.5-1.93.15s-1.01-.96-1.39-1.54c-1.26-1.91-2.52-3.83-3.78-5.74-.88-1.34-2.92-3.44-3-5.02 1.93.84 3.81 2.12 5.44 3.46zM28.17 88.88c0 .77.05 1.59.5 2.22s1.44.92 2 .4c.37-.34.45-.88.5-1.37.55-4.86 2.15-10.75 1.66-15.57-3.31 3.45-4.66 9.7-4.66 14.32zM64.92 73.5h-4c-1.01 0-1.83-.82-1.83-1.83s.83-1.83 1.83-1.83h4a1.83 1.83 0 0 1 0 3.66zm12.16 0h-4a1.83 1.83 0 0 1 0-3.66h4c1.01 0 1.83.82 1.83 1.83.01 1.01-.82 1.83-1.83 1.83z"/><path fill="#424242" d="M32.09 8.1c.86.45 1.63 1.07 2.23 1.81 1.39 1.7 2.22 4.89 1.17 6.05-.76.83-.98 2.02-.59 3.07.4 1.05 1.35 1.8 2.46 1.93.54.06 1.09.13 1.67.22.01 0 .02 0 .03.01l-.23 1.12-.49 2.35c-.05.03-.1.05-.14.08-.18.11-1.06.44-2.89.67a2.997 2.997 0 0 0-2.62 2.84l-.17 3.78c-.03.76.22 1.5.71 2.08.96 1.13 1.57 2.91 1.7 5 .19 2.97-.47 5.07-1.31 7.73-.38 1.21-.77 2.45-1.12 3.89-.82 3.41.11 8.17 1.25 12.8a3.002 3.002 0 0 0 2.92 2.29c.74 0 1.47-.28 2.03-.79.81-.75 1.37-1.04 1.61-1.12.27.26 1.6 1.6 2.43 3.3.1.2.22.38.35.55.02.2.05.4.11.6.09.32.15.62.17.89.29 3.62 1.64 10.54 4.86 13.53.54.51.92 1.2 1.36 2 .81 1.49 1.93 3.53 4.56 4.77.34.16.77.38 1.28.63l.3.15a2.992 2.992 0 0 0 2.43.1c.79-.31 1.41-.94 1.71-1.73 1.07-2.8 1.05-7.3.85-10.58-.05-.8-.41-1.54-1.01-2.07-.27-.23-.55-.49-.8-.74-.57-.59-1.35-.91-2.15-.91-.1 0-.2.01-.31.02.38-.82.38-1.79-.04-2.62a14.52 14.52 0 0 1-1.4-4.4c-.06-.4-.2-.77-.4-1.1.14-.35.21-.73.21-1.13 0-.07 0-.14-.01-.21 0-.98.1-1.96.29-2.93.1-.54.06-1.07-.11-1.56.41-.32.73-.75.93-1.25.47-1.19 1.12-2.34 1.92-3.41.34-.45.53-.98.58-1.51.52-.1 1.02-.33 1.43-.71 2.15-1.91 4.74-3.08 7.5-3.39.49-.05.95-.23 1.34-.49.4.26.86.43 1.36.47 2.85.26 5.52 1.43 7.71 3.37.42.37.91.6 1.43.7.05.53.25 1.05.58 1.5.81 1.08 1.46 2.24 1.95 3.45.2.5.52.92.93 1.24-.17.48-.21 1.01-.11 1.55.19.97.28 1.96.29 2.95 0 .07-.01.14-.01.22 0 .4.07.78.21 1.13-.2.33-.34.7-.4 1.1-.44 2.9-1.68 5.54-3.59 7.64-.45.49-.72 1.13-.78 1.79-.09 1.13-.26 4.18.03 8.02.29 3.78 2.71 7.49 4.7 9.95.52.64 1.28 1.04 2.1 1.1 2.88.22 4.59.56 4.77.59 2.23.45 5.83 1.87 6.79 2.8-.05.52-.15.9-.23 1.28-.38 1.62-.56 3.15 1.2 5.44 1 1.3 1.59 3.06 1.9 5.71.04.38-.1.77-.37 1.48-.5 1.3-1.33 3.45-.03 6.09-.15.4-.7 1.06-1.32 1.64h-8.32l-1.02.02c-.12-.02-.25-.02-.37-.02H38.8c.03-3.11-.22-7.76-1.72-11.2-.74-1.69-2.15-2.84-3.39-3.84-2.08-1.68-2.39-2.16-2.12-3.21 1.11-4.3 1.32-6.04 1.34-6.69.01-.23-.02-.5-.06-.73a2.97 2.97 0 0 0-2.11-2.3c-.02-.01-1.88-.59-2.7-2.22-.63-1.26-.56-2.97.21-5.08.92-2.54 1.7-4.67 2.35-6.42.14-.38.21-.79.18-1.2l-.01-.17-.01-.16c-.2-4.15.16-9.23.48-13.7.22-2.99.42-5.82.44-8.14.01-.51-.12-1.02-.37-1.47l-.15-3.25a3.24 3.24 0 0 0-.21-.97c-.37-.94-.75-1.76-1.12-2.56-.43-.93-.83-1.81-1.16-2.74-.19-.52-.5-.97-.91-1.3-.47-1.67-.85-4.59.4-8.44.51-.22.95-.58 1.28-1.04.05-.07.1-.13.14-.19l.06-.08c.44-.57.67-1.27.64-1.99l-.16-3.55a2.991 2.991 0 0 0-2.65-2.84c-1.91-.22-2.93-.56-3.2-.71-.05-.03-.1-.06-.16-.08l-.34-1.66-.38-1.82c.01 0 .02 0 .03-.01.32-.05.62-.09.93-.13 1.12-.15 2.07-.92 2.44-1.99s.11-2.26-.68-3.08c-.03-.03-.06-.07-.09-.11-.41-.59-.55-1.47-.38-2.35.17-.87.62-1.61 1.2-1.99.32-.21.76-.4 1.23-.61.38-.17.8-.36 1.23-.58 1.27-.61 2.18-1.35 2.79-2.22m-.82-3.47c-.56 0-1.09.37-1.25.93-.06.23-.15.45-.27.65-.4.65-1.11 1.12-1.78 1.47-.9.47-1.87.79-2.72 1.34-2.66 1.73-3.49 5.92-1.65 8.56.12.17.25.33.4.48-.32.04-.64.08-.98.13-1.75.26-2.93 1.66-2.65 3.01l.9 4.33c.18.85.79 1.5 1.59 1.81.83.46 2.36.84 4.3 1.06l.16 3.55c-.1.13-.21.26-.3.4-.69.17-1.26.66-1.5 1.33-2.77 7.85.29 12.93.29 12.93s0-.25.07-.76c.67 1.88 1.54 3.44 2.32 5.41l.16 3.52c.02.38.14.73.35 1.03-.06 5.71-1.27 14.9-.92 22.02.01.11.01.22.02.33-.66 1.76-1.44 3.89-2.36 6.45-3.25 8.97 4.32 11.16 4.47 11.2 0 .01 0 .02.01.03-.01.2-.1 1.61-1.25 6.05-1.25 4.85 4.43 6.15 5.67 9 2.08 4.78 1.33 13 1.33 13h52.45c.05.01.1.03.16.03h.01l1.29-.03h9.32s4.42-3.18 3.01-5.83c-1.41-2.66.94-4.06.63-6.72s-.94-5.16-2.5-7.19-.47-2.19-.31-5.16-7.67-5.16-9.23-5.47c-.75-.15-2.6-.45-5.13-.64-1.46-1.8-3.8-5.14-4.04-8.28-.28-3.66-.11-6.54-.03-7.57 2.25-2.47 3.8-5.63 4.34-9.21l13.57-.76c.37-.02.38-.42.01-.46l-13.36-1.43c0-.06.01-.12.01-.18 0-1.23-.12-2.43-.34-3.58l14.06-3.39c.36-.09.3-.56-.06-.56h-.02l-14.96.61c-.6-1.5-1.39-2.88-2.33-4.14l10.48-11.42c.2-.22.04-.49-.18-.49-.06 0-.13.02-.19.07l-12.53 9.18c-2.6-2.29-5.85-3.78-9.43-4.11L69 33.24c-.02-.19-.15-.28-.28-.28s-.26.09-.28.28l-1.4 13.97c-3.48.38-6.64 1.88-9.17 4.13l-12.58-9.22a.32.32 0 0 0-.19-.07c-.22 0-.38.27-.18.49l10.53 11.47c-.92 1.24-1.71 2.61-2.29 4.09l-15.05-.62h-.02c-.36 0-.42.47-.06.56l14.15 3.41c-.22 1.15-.34 2.34-.34 3.56 0 .06.01.11.01.17l-6.39.68c-1.21-2.44-3.13-4.22-3.13-4.22-.58-.54-1.22-.78-1.88-.78-1.21 0-2.5.79-3.75 1.94-1.16-4.74-1.87-8.78-1.24-11.38 1.09-4.53 2.81-7.5 2.5-12.51-.17-2.79-1.03-5.14-2.41-6.76l.17-3.78c1.84-.24 3.28-.61 4.04-1.07.75-.33 1.32-.95 1.49-1.76l.9-4.33c.28-1.35-.9-2.75-2.65-3.01-.62-.09-1.2-.16-1.76-.23 2.4-2.64.96-7.47-1.07-9.96a10.32 10.32 0 0 0-5.02-3.33c-.14-.03-.26-.05-.38-.05zm25.82 82.99c-.65-.33-1.21-.61-1.63-.81-2.97-1.41-2.97-4.22-5.16-6.25s-3.6-7.66-3.91-11.57c-.04-.51-.14-1-.28-1.49l5.97.33c.29 1.89.86 3.67 1.69 5.3-.09-.02-.18-.04-.28-.04-.54 0-1.04.41-1.04 1.01-.01.95.28 2.15 1.51 3.01.5.35.93.63 1.3.85.18.11.36.16.54.16.46 0 .87-.31 1-.74.31.32.63.61.96.9.13 2.44.25 6.92-.67 9.34z" opacity=".2"/></svg>