<svg xmlns="http://www.w3.org/2000/svg" viewBox="0 0 128 128"><radialGradient id="a" cx="63.833" cy="22.167" r="102" gradientUnits="userSpaceOnUse"><stop offset="0" stop-color="#ECEFF1"/><stop offset="1" stop-color="#B0BEC5"/></radialGradient><path fill="url(#a)" d="m123.16 75.34-11.9 19.04a24.729 24.729 0 0 1-18.24 11.46c-.9.1-1.81.16-2.73.16H8c-2.21 0-4-1.79-4-4V26c0-2.21 1.79-4 4-4h112c2.21 0 4 1.79 4 4v46.42c0 1.03-.29 2.04-.84 2.92z"/><path fill="#424242" d="M90.29 103c.75 0 1.53-.05 2.4-.14 6.65-.74 12.49-4.41 16.03-10.07l11.9-14.28c.25-.4.38-.86.38-1.33V26c0-.55-.45-1-1-1H8c-.55 0-1 .45-1 1v76c0 .55.45 1 1 1h82.29m0 3H8c-2.21 0-4-1.79-4-4V26c0-2.21 1.79-4 4-4h112c2.21 0 4 1.79 4 4v46.42c0 1.03-.29 2.04-.84 2.92l-11.9 19.04a24.729 24.729 0 0 1-18.24 11.46c-.9.1-1.81.16-2.73.16z" opacity=".2"/><radialGradient id="b" cx="64" cy="28.167" r="74.381" gradientUnits="userSpaceOnUse"><stop offset="0" stop-color="#42A5F5"/><stop offset=".25" stop-color="#3EA1F2"/><stop offset=".516" stop-color="#3394E8"/><stop offset=".79" stop-color="#217FD8"/><stop offset=".879" stop-color="#1976D2"/><stop offset="1" stop-color="#1976D2"/></radialGradient><path fill="url(#b)" d="M9.71 30.59v66.82c0 1.15.93 2.09 2.09 2.09h92.93c.66 0 1.28-.31 1.67-.84l11.49-15.31c.27-.36.42-.8.42-1.25V30.59c0-1.15-.93-2.09-2.09-2.09H11.79c-1.15 0-2.08.93-2.08 2.09z"/><path fill="#424242" d="M116.21 30.5c.05 0 .09.04.09.09V82.1c0 .02-.01.04-.02.05l-11.49 15.31c-.02.02-.04.04-.07.04H11.79a.09.09 0 0 1-.09-.09V30.59c0-.05.04-.09.09-.09h104.42m0-2H11.79c-1.15 0-2.09.93-2.09 2.09v66.82c0 1.15.93 2.09 2.09 2.09h92.93c.66 0 1.28-.31 1.67-.84l11.49-15.31c.27-.36.42-.8.42-1.25V30.59a2.095 2.095 0 0 0-2.09-2.09z" opacity=".2"/><g fill="#424242" opacity=".17"><path d="M107.58 78.87c.68 0 .41 2.28-.23 3.12-.17.23-.32.32-.45.32-.4 0-.62-.9-.87-1.44-.33-.71 1.2-1.86 1.27-1.9.1-.06.2-.1.28-.1m0-2c-.48 0-.94.14-1.37.42-1.07.7-2.88 2.52-1.99 4.42.04.09.09.21.13.32.26.68.88 2.28 2.56 2.28.55 0 1.35-.19 2.04-1.11.89-1.18 1.39-3.63.7-5.01-.41-.81-1.2-1.32-2.07-1.32z"/><path d="M105.27 81.25c.21 0 .46.12.58.32.43.7.72 2.13-2.76 3.32-1.08.37-1.64.53-1.87.53-.77 0 2.69-1.96 3.69-3.97.07-.14.21-.2.36-.2m0-2c-.92 0-1.74.5-2.15 1.31-.39.78-1.64 1.8-2.39 2.42-.95.77-2.02 1.65-1.51 3.08.3.83 1.08 1.37 1.99 1.37.5 0 1.09-.15 2.51-.64 2.3-.79 3.66-1.85 4.17-3.25.36-.99.23-2.06-.35-3.01-.47-.8-1.34-1.28-2.27-1.28zm-77.93-40.2c.23 0 .45.06.66.18l1.54.93a7.439 7.439 0 0 0 5.07.97l4.61-.77c.08-.01.16-.02.23-.02.71 0 1.33.55 1.39 1.29l.15 1.9c.07.88-.54 1.67-1.41 1.83l-.49.09c-1.11.2-2.05.94-2.5 1.97-.19.43-.09.94.24 1.27l2.88 2.92c.13.13.3.2.48.2.03 0 .07 0 .1-.01.3-.05.53-.29.56-.6l.32-3.31c.07-.72.68-1.28 1.41-1.28h.1c.55 0 1.05.32 1.28.81l.65 1.39c.11.24.34.37.58.37.12 0 .24-.03.35-.1s.23-.1.35-.1c.25 0 .48.14.59.39l1.68 3.88c.36.83-.03 1.8-.86 2.15l-1.36.57c-2.31.97-4.36 2.49-5.96 4.42l-.03.04a.49.49 0 0 0-.11.35l.09 1.44c.02.26-.17.49-.43.53-.05.01-.09.01-.14.01-.45 0-.86-.3-1-.74l-.01-.02a1.08 1.08 0 0 0-1.02-.76c-.05 0-.11 0-.16.01l-.92.14c-.69.11-1.28.57-1.55 1.22l-.27.65c-.09.23-.08.49.04.7l.03.05c.15.26.42.4.7.4.19 0 .38-.07.54-.21a.83.83 0 0 1 .54-.21h.05l.57.03c.33.02.55.35.44.67l-.08.23a.7.7 0 0 0 .66.93c.36 0 .66.27.7.62l.09.84c.04.32.29.58.61.62l.08.01c.03 0 .06.01.09.01.24 0 .47-.13.6-.34.36-.59.99-.94 1.67-.94.09 0 .17.01.26.02l1.87.25c1.03.14 2 .53 2.84 1.15l1.33.98c.4.3.7.71.85 1.19.2.62.64 1.13 1.22 1.41l2.61 1.26c.76.37 1.06 1.3.65 2.04l-1.79 3.25c-.2.37-.56.63-.97.73l-1.05.24c-.64.14-1.11.69-1.16 1.34l-.01.16c-.05.66-.33 1.28-.79 1.76l-5.51 5.78c-.65.68-.72 1.74-.16 2.5l.39.54c.29.4 0 .94-.47.94-.03 0-.06 0-.09-.01l-1.02-.16c-.66-.1-1.2-.56-1.42-1.19l-.44-1.29c-.22-.65-.24-1.35-.05-2.01l2.3-8.11c.25-.89-.01-1.85-.67-2.49l-.48-.46c-.56-.54-.94-1.23-1.1-1.98l-.49-2.3a2.85 2.85 0 0 1 .39-2.15l.09-.13a.7.7 0 0 0-.44-1.06l-.17-.04a.747.747 0 0 1-.41-.26l-1.33-1.78a.48.48 0 0 0-.23-.17l-3.24-1.22c-.83-.31-1.52-.9-1.97-1.66l-3.14-5.37c-.43-.73-.67-1.55-.72-2.4l-.08-1.57a5.986 5.986 0 0 0-.97-2.98l-.8-1.23a8.601 8.601 0 0 0-2.81-2.69l-.24-.14c-.4-.24-.86-.36-1.31-.36-.08 0-.17 0-.25.01-.22.02-.44.03-.67.03-.79 0-1.57-.14-2.29-.47l-2.68-1.23c-.21-.1-.3-.37-.15-.55l.68-.81c.25-.29.08-.74-.29-.82a.503.503 0 0 1-.38-.67l.25-.66c.07-.18.24-.31.44-.32.4-.02 7.97-.23 10.03-1.95.29-.25.73-.23 1.07-.39.16-.08.35-.12.55-.12m0-2c-.47 0-.94.1-1.36.3-.03.01-.07.02-.1.02-.34.08-.9.21-1.44.66-.49.41-2.92 1.24-8.67 1.48l-.21.01c-.98.06-1.83.69-2.18 1.6l-.25.66c-.25.67-.21 1.4.11 2.03-.31.52-.4 1.12-.27 1.71.16.72.66 1.33 1.33 1.63l2.68 1.23c.95.44 2 .66 3.12.66.28 0 .57-.01.86-.04h.06c.1 0 .2.03.29.08l.24.14c.86.51 1.61 1.23 2.15 2.06l.8 1.23c.39.59.61 1.28.65 1.99l.08 1.57c.06 1.16.4 2.31.99 3.31l3.14 5.37a5.863 5.863 0 0 0 2.99 2.52l2.83 1.06 1.06 1.43c.09.13.2.24.31.35a4.89 4.89 0 0 0-.13 2.52l.49 2.3c.25 1.15.82 2.19 1.67 3l.48.46c.14.13.19.32.14.5L36.9 87c-.3 1.05-.27 2.16.08 3.2l.44 1.29a3.785 3.785 0 0 0 3.01 2.53l1.02.16c.14.02.27.03.4.03.98 0 1.86-.54 2.3-1.42.44-.87.36-1.91-.22-2.7l-.37-.5 5.49-5.75c.72-.76 1.19-1.74 1.31-2.78l.7-.16c.97-.22 1.8-.84 2.28-1.71l1.79-3.25c.46-.83.56-1.83.27-2.74s-.95-1.66-1.8-2.07l-2.61-1.26a.341.341 0 0 1-.18-.21c-.28-.89-.82-1.64-1.57-2.2l-1.33-.98c-1.1-.81-2.4-1.34-3.76-1.52l-1.87-.25c-.17-.02-.35-.03-.52-.03-.56 0-1.1.12-1.6.34a2.6 2.6 0 0 0-.26-.32 2.512 2.512 0 0 0 2.06-2.62l-.05-.83c1.34-1.49 3-2.67 4.85-3.45l1.36-.57a3.625 3.625 0 0 0 1.92-4.79l-1.68-3.88a2.655 2.655 0 0 0-2.35-1.59l-.19-.4a3.425 3.425 0 0 0-2.89-1.96c.1-.4.14-.81.11-1.24l-.15-1.9c-.14-1.75-1.63-3.12-3.39-3.12-.19 0-.38.02-.56.05l-4.61.77c-.3.05-.6.07-.9.07-.99 0-1.96-.27-2.8-.78l-1.54-.93c-.57-.32-1.16-.48-1.75-.48zm11.39 10.71c.14-.13.3-.23.48-.3l-.03.22-.05.48-.4-.4z"/><path d="M49.66 37.21c.41 0 .81.08 1.11.21l4.55.86c.47.21.63.54.4.84l-5.73 5.61c-.19.24-.63.43-1.16.48l-.8.08c-.12.01-.23.02-.35.02-.88 0-1.63-.35-1.6-.8l.06-.87c.02-.26-.23-.5-.66-.65l-.47-.16c-.55-.19-.79-.54-.59-.85.14-.23.06-.47-.22-.67l-.97-.68c-.35-.25-.38-.57-.08-.83l3.31-2.09c.25-.21.68-.35 1.17-.38l1.81-.12c.07.01.15 0 .22 0m0-2c-.12 0-.24 0-.36.01l-1.81.12c-.85.06-1.62.32-2.18.74l-3.23 2.03c-.08.05-.15.1-.22.16-.62.52-.96 1.26-.92 2.02.04.78.45 1.49 1.15 1.97l.28.19c.02.17.06.35.12.52.25.71.81 1.28 1.59 1.62.02.59.25 1.15.68 1.61.65.7 1.71 1.09 2.93 1.09.18 0 .37-.01.55-.03l.8-.08c1.02-.11 1.87-.5 2.41-1.1l5.67-5.55a2.43 2.43 0 0 0 .64-2.26c-.19-.79-.76-1.44-1.6-1.82-.15-.07-.3-.12-.46-.15l-4.35-.82a5.44 5.44 0 0 0-1.69-.27z"/><path d="M57.05 43.04c.23 0 .46.11.61.3l1.43 1.92c.3.41.35.94.13 1.4-.13.27-.35.49-.63.62l-.74.35c-.07.03-.15.05-.22.05-.26 0-.5-.21-.51-.5a.309.309 0 0 0-.59-.12c-.05.12-.16.18-.28.18-.06 0-.11-.02-.17-.05l-.16-.1c-.46-.3-.62-.9-.37-1.39l.4-.77c.03-.06.04-.13.03-.19l-.08-.5c-.05-.32.08-.63.34-.82l.36-.26c.15-.08.3-.12.45-.12m0-2c-.57 0-1.12.18-1.59.51l-.36.25c-.87.62-1.32 1.66-1.17 2.71l-.14.27a3.044 3.044 0 0 0 1.06 4l.16.1c.36.23.78.36 1.21.37.4.27.89.43 1.41.43.38 0 .74-.08 1.08-.25l.74-.35c.68-.32 1.23-.87 1.56-1.54.56-1.13.44-2.46-.31-3.48l-1.43-1.92a2.79 2.79 0 0 0-2.22-1.1z"/><path d="M90.74 38.29c.26 0 .52.02.78.06l7.09 1.04 12.62 1.54c.55.07 1.02.44 1.21.96l.33.89c.13.35 0 .74-.31.95l-1.84 1.23c-.15.1-.31.16-.49.19l-1.39.2c-.43.06-.73.47-.66.9l.08.49c.01.1-.01.2-.07.27l-1.45 1.8a.506.506 0 0 1-.9-.28l-.06-.73c-.03-.35.08-.7.3-.97l2.26-2.78c.07-.08.01-.2-.1-.2l-.28.01c-.67.02-1.32.26-1.84.67l-.63.5c-.44.35-.98.54-1.54.54h-.07l-.39-.01h-.08c-.74 0-1.45.28-1.99.77l-.99.91a.35.35 0 0 0 .03.54l.52.39c.33.25.47.68.34 1.08L100 52.98c-.04.14-.17.23-.31.24l-1.02.07c-.09.01-.17.05-.23.11l-.83.88c-.08.09-.11.21-.08.33l.32 1.18c.03.12 0 .25-.09.34l-.5.5c-.07.07-.16.1-.24.1-.16 0-.31-.1-.34-.28l-.24-1.16a.38.38 0 0 0-.08-.17l-.54-.6a.327.327 0 0 0-.26-.11c-.08 0-.16.03-.23.09l-.89.78c-.12.1-.15.27-.09.41l.7 1.55c.24.54.24 1.16 0 1.7l-.59 1.31c-.18.39-.57.64-1 .64h-.03l-1.73-.05h-.03c-.26 0-.52.11-.68.32-.32.42-.32.99-.02 1.41l.41.57c.25.35.24.82-.04 1.15l-.57.7c-.07.09-.17.13-.27.13s-.19-.04-.26-.12l-.7-.79a.352.352 0 0 0-.26-.12c-.18 0-.35.13-.35.34-.01.24-.02.43-.03.45-.02.04.75.93 1.19 1.43.19.22.32.48.38.76l.21 1c.16.73.7 1.33 1.41 1.55l2.46.76c.15.05.21.22.12.35l-.01.01c-.04.07-.12.1-.19.1-.02 0-.03 0-.05-.01L91 70.09c-.42-.1-.81-.32-1.1-.65l-2.67-3.02a.233.233 0 0 1 .01-.32l.04-.04c.04-.04.1-.07.16-.07.04 0 .08.01.12.03l.98.58c.04.02.08.03.12.03.16 0 .29-.17.21-.34l-.55-1.09c-.01-.03-.02-.05-.02-.08l-.22-1.78a.397.397 0 0 0-.39-.35c-.05 0-.09.01-.14.03s-.11.03-.17.03c-.17 0-.32-.09-.39-.25l-.82-1.8a.36.36 0 0 0-.32-.21c-.07 0-.14.02-.2.07l-1.47 1.06c-.6.43-.99 1.11-1.07 1.84l-.03.33c-.02.17-.1.33-.24.45l-.34.29c-.13.11-.28.16-.44.16a.68.68 0 0 1-.65-.47l-.63-1.98a3.44 3.44 0 0 0-.66-1.2l-.99-1.17c-.21-.25-.5-.41-.82-.47l-1.9-.31c-.79-.13-1.47-.56-2.07-1.08a.533.533 0 0 0-.36-.13c-.14 0-.28.05-.39.17a.56.56 0 0 0-.09.63l.5 1.11c.06.13.19.21.32.21.07 0 .14-.02.2-.06l.31-.21c.01-.01.03-.01.05-.01.33 0 1.33 1.49.69 1.86l-2.18 1.27c-.23.14-.49.2-.73.2-.53 0-1.04-.28-1.3-.79l-1.7-3.27a.343.343 0 0 0-.31-.19c-.25 0-.42.26-.32.49l1.82 4.04c.27.59.82.9 1.41.9.25 0 .5-.05.74-.16.07-.03.15-.05.22-.05.34 0 .63.34.56.71l-.12.59a2.93 2.93 0 0 1-.9 1.59l-1.12 1.03c-.49.45-.74 1.11-.68 1.77l-.08 1.91c0 .41-.19.79-.49 1.06-.47.43-.81.94-1.13 1.49l-1.42 2.49c-.46.81-1.22 1.39-2.12 1.63l-.43.11a1.2 1.2 0 0 1-1.42-.73l-1.3-3.42c-.31-.8-.39-1.67-.26-2.52l.04-.25c.1-.64.07-1.3-.11-1.93l-.62-2.23c-.19-.67-.8-1.13-1.49-1.13h-.07l-2.51.11h-.1c-.61 0-1.21-.23-1.66-.65l-1.16-1.08a2.73 2.73 0 0 1-.86-2.25l.09-.98c.12-1.26.63-2.45 1.46-3.41l.4-.46a4.74 4.74 0 0 1 2.7-1.56l2.71-.52c.05-.01.09-.01.14-.01.39 0 .72.31.73.71.01.27.1.54.32.7l1.6 1.22c.06.05.14.07.21.07.1 0 .2-.04.27-.13l.66-.82a.368.368 0 0 1 .37-.12l2.91.84c.03.01.06.01.1.01.14 0 .28-.09.33-.23l.4-1.12a.35.35 0 0 0-.3-.47l-1.41-.1a.334.334 0 0 1-.27-.17l-.07-.11a.415.415 0 0 1 0-.43c.19-.31.4-.6.63-.87.08-.1.21-.16.34-.16h.04c.91.09 2.47.23 2.77.23.03 0 .05 0 .05-.01 0-.05.55-1.14.49-1.18-.06-.03-2.32-1.17-3.11-1.56a.293.293 0 0 0-.16-.04c-.11 0-.22.05-.28.15l-.94 1.33a.36.36 0 0 0 .02.43l.11.13c.06.07.08.18.04.27-.1.23-.23.46-.38.67-.05.08-.14.12-.23.12-.03 0-.06 0-.09-.01a.808.808 0 0 0-.27-.05c-.1 0-.19.03-.22.13l-.12.4a.35.35 0 0 1-.34.25c-.09 0-.19-.04-.26-.11l-.59-.65a.352.352 0 0 1-.09-.31c.1-.47-.03-.96-.4-1.27l-.72-.61a.504.504 0 0 0-.3-.11c-.09 0-.18.03-.25.08-.24.17-.21.46-.04.59l.98.76c.3.24.23.78-.32.86-.03.01-.06.01-.1.01-.27 0-.52-.14-.68-.36l-.74-.98c-.23-.31-.6-.48-.97-.48-.15 0-.3.03-.44.08l-.21.08c-.43.17-.8.47-1.05.86l-.56.87c-.28.43-.76.69-1.26.69-.08 0-.15-.01-.23-.02l-.81-.12c-.42-.07-.73-.44-.71-.92l.01-.23c.03-.72.62-1.31 1.33-1.31.05 0 .09 0 .14.01h.08c.51 0 .85-.54.62-1l-.28-.57a.818.818 0 0 1 .42-1.12l1.08-.44c.38-.16.66-.49.73-.9.05-.25.26-.43.51-.43h.15c.35 0 .6-.34.5-.68-.06-.18.01-.37.17-.48.07-.05.15-.07.22-.07.17 0 .33.11.4.28l.14.32c.06.14.19.24.34.25l1.93.21h.04c.14 0 .27-.09.32-.22l.51-1.26c.06-.14.19-.22.32-.22.05 0 .11.01.16.04l.33.17c.03.02.07.03.11.03.08 0 .16-.04.2-.12.05-.09.04-.21-.04-.28l-.23-.22c-.1-.1-.14-.25-.09-.38l.11-.28c.04-.11.15-.2.27-.22l.5-.08c.31-.05.4-.47.13-.64l-.06-.04a.33.33 0 0 0-.19-.06h-.11c-.6 0-1.14-.34-1.4-.89l-.12-.25c-.09-.19 0-.4.19-.48l.03-.01c.1-.04.17-.11.21-.21l.43-1.17a.234.234 0 0 0-.12-.29l-.15-.06a.22.22 0 0 0-.29.1l-1.24 2.24c-.09.17-.05.38.1.51.37.3.45.85.28 1.3l-.52 1.41c-.03.08-.08.15-.16.18-.15.07-.31.11-.46.11-.42 0-.82-.26-.97-.69l-.21-.6a.324.324 0 0 0-.32-.22c-.09 0-.18.03-.27.1l-.46.35a.64.64 0 0 1-.37.13.58.58 0 0 1-.56-.55l-.04-1.07c-.02-.46.18-.9.53-1.2.43-.36.78-.81.94-1.35l.28-.95c.14-.47.47-.86.91-1.08l1.46-.72c.27-.13.56-.2.86-.2.12 0 .25.01.37.04l4.62.89c.26.05.52.08.79.08.13 0 .26-.01.38-.02l8.8.17h.22c.89 0 1.77-.1 2.63-.31l7.33-1.74c.17-.01.36-.02.55-.02M74.51 55.88c.18 0 .33-.14.35-.32.04-.51.11-1.38.05-1.49-.05-.09-.4-.52-.65-.83a.346.346 0 0 1 .11-.53l.3-.16c.14-.08.22-.24.18-.4l-.05-.18a.351.351 0 0 0-.34-.26c-.06 0-.12.01-.17.05l-1.41.8c-.16.09-.23.3-.14.47l.64 1.22c.04.08.05.18.02.27l-.24.73c-.06.2.06.42.27.45l1.01.17c.03 0 .05.01.07.01m16.23-19.59c-.26 0-.52.01-.78.04-.08.01-.17.02-.25.04l-7.33 1.74c-.71.17-1.44.25-2.17.25h-.18l-8.8-.17h-.04c-.06 0-.12 0-.18.01-.07.01-.13.01-.2.01-.14 0-.28-.01-.41-.04l-4.62-.89a4.032 4.032 0 0 0-2.49.33l-1.46.72c-.94.46-1.65 1.3-1.94 2.31l-.28.95c-.03.1-.14.24-.31.38-.82.69-1.29 1.74-1.25 2.82l.04 1.07c.02.57.23 1.09.56 1.51-.29.26-.52.59-.66.97l-.73.3a2.826 2.826 0 0 0-1.74 2.89c-1.03.53-1.75 1.6-1.81 2.85l-.01.23c-.03.69.17 1.34.55 1.86-.01.01-.01.02-.02.02l-.4.46a8.047 8.047 0 0 0-1.94 4.53l-.09.98c-.14 1.45.42 2.91 1.48 3.9l1.16 1.08c.82.77 1.9 1.19 3.02 1.19h.19l2.15-.09.52 1.88c.1.35.12.72.06 1.08l-.04.25c-.19 1.19-.06 2.42.37 3.55l1.3 3.42A3.22 3.22 0 0 0 65 80.78c.27 0 .55-.04.81-.11l.43-.11a5.468 5.468 0 0 0 3.35-2.58l1.42-2.49c.28-.49.49-.78.74-1a3.48 3.48 0 0 0 1.14-2.48l.08-1.88c0-.09 0-.19-.01-.28 0-.04.01-.08.04-.11l1.12-1.03a4.94 4.94 0 0 0 1.5-2.66l.12-.59c.09-.44.06-.89-.07-1.3l.9-.52c.7-.41 1.12-1.12 1.19-1.93l.82.97c.13.15.22.32.28.51l.63 1.98a2.662 2.662 0 0 0 2.55 1.87c.63 0 1.25-.23 1.73-.64l.34-.29c.53-.45.86-1.07.93-1.76l.03-.33c.01-.09.04-.18.09-.26.17.36.43.66.74.89l-.1.1c-.83.83-.87 2.18-.09 3.06l2.67 3.01a4.06 4.06 0 0 0 2.15 1.27l3.38.76c.16.04.33.05.49.05a2.239 2.239 0 0 0 2.11-2.99c-.23-.66-.77-1.18-1.44-1.38l-2.46-.76a.12.12 0 0 1-.05-.05l-.21-1c-.03-.14-.07-.27-.11-.41v-.01l.57-.7c.62-.76.81-1.76.55-2.67h.01c1.21 0 2.32-.71 2.82-1.82l.59-1.31c.15-.33.25-.68.31-1.04.56-.04 1.09-.27 1.49-.67l.5-.5c.6-.59.84-1.47.62-2.28l-.01-.05.08-.01c.96-.07 1.77-.7 2.06-1.61l1.22-3.73c.25-.76.18-1.56-.16-2.24.11-.05.24-.07.36-.07l.37.01c0 .13 0 .26.01.39l.06.73c.1 1.32 1.18 2.31 2.5 2.31.76 0 1.47-.34 1.95-.93l1.45-1.8c.26-.32.43-.7.49-1.1l.29-.04c.47-.07.92-.24 1.31-.5l1.84-1.23a2.794 2.794 0 0 0 1.07-3.3l-.33-.89a3.47 3.47 0 0 0-2.85-2.26L98.85 37.4l-7.04-1.04c-.35-.04-.71-.07-1.07-.07z"/><path d="M101.78 49.85c.33.01.57.3.53.62l-.19 1.35c-.05.33.08.66.34.87.25.2.26.59 0 .8-.29.23-.61.51-.69.61-.09.11-.12.84-.13 1.45-.01.54-.29 1.04-.75 1.33l-2.36 1.48c-.04.02-.08.04-.12.04-.11 0-.22-.09-.23-.21l-.05-.7c-.01-.08.03-.15.09-.2l1.16-.91c.41-.32.74-.74.96-1.22l.84-1.86c.13-.29.21-.6.23-.92l.15-2.3c-.01-.13.1-.23.22-.23m0-2c-1.17 0-2.15.91-2.23 2.08l-.15 2.3c-.01.08-.02.16-.06.23l-.84 1.86c-.08.18-.21.35-.37.47l-1.16.91c-.59.46-.9 1.18-.85 1.92l.05.7a2.244 2.244 0 0 0 2.23 2.07c.42 0 .83-.12 1.19-.34l2.36-1.48a3.632 3.632 0 0 0 1.69-2.99c0-.2.01-.35.01-.48.02-.02.05-.04.07-.06.59-.48.93-1.19.93-1.96 0-.54-.17-1.05-.48-1.48l.12-.85c.1-.72-.11-1.45-.57-2a2.56 2.56 0 0 0-1.87-.9h-.07z"/><path d="M96.2 59.52c.11 0 .2.08.23.18l.09.44c.05.22 0 .45-.13.63a.79.79 0 0 0-.14.56l.03.25h-.25l-.38-.62a.815.815 0 0 1-.03-.8l.28-.52a.22.22 0 0 1 .2-.12h.1m0-2h-.1c-.83 0-1.58.45-1.97 1.18l-.28.52c-.47.88-.43 1.95.09 2.8l.38.62a2 2 0 0 0 1.7.94h.25c.57 0 1.12-.24 1.5-.67.35-.39.53-.9.5-1.42.25-.54.33-1.16.2-1.75l-.09-.44a2.236 2.236 0 0 0-2.18-1.78zm-1.49 8.1a.539.539 0 0 1 .53.53v.63c0 .04-.01.09-.02.13l-.39 1.58c-.06.31-.33.51-.63.51-.05 0-.1-.01-.15-.02l-1.49-.35a.526.526 0 0 1-.37-.31l-.29-.68a.521.521 0 0 1 .23-.67l2.33-1.29c.07-.03.16-.06.25-.06m0-2c-.43 0-.85.11-1.23.32l-2.33 1.29a2.526 2.526 0 0 0-1.1 3.21l.29.68c.32.74.97 1.29 1.75 1.47l1.49.35c.2.05.4.07.61.07 1.23 0 2.29-.83 2.59-2.03l.39-1.58c.05-.2.07-.4.07-.6v-.63c0-1.08-.68-2.04-1.7-2.39-.27-.11-.55-.16-.83-.16z"/><path d="M99.74 67.8c.13 0 .27.03.39.09l2.7 1.26c.29.13.51.38.62.68l.35.99-.07.36-.96-.86a.75.75 0 0 0-1.02.02c-.04.04-.09.06-.14.06l-.8.06h-.09c-.33 0-.64-.14-.86-.39l-1.19-1.37a.486.486 0 0 1 .29-.8l.65-.1h.13m0-2c-.14 0-.29.01-.43.03l-.65.1c-.9.13-1.65.75-1.96 1.6s-.14 1.81.46 2.49l1.19 1.37c.6.68 1.46 1.08 2.37 1.08.08 0 .16 0 .24-.01l.8-.06c.1-.01.19-.02.28-.04l.35.31c.37.33.85.51 1.33.51.22 0 .43-.03.64-.11.68-.23 1.19-.82 1.32-1.52l.07-.36c.06-.35.04-.7-.08-1.04l-.35-.99c-.28-.8-.89-1.46-1.65-1.82l-2.7-1.26c-.37-.19-.8-.28-1.23-.28z"/><path d="M98.18 71.08c.05 0 .1 0 .15.01l1.21.14c.14.02.23.15.2.29l-.19.78c-.03.12.04.25.17.28l.84.22c.05.01.1.02.14.02.32 0 .58-.27.57-.6l-.03-.65c-.01-.13.1-.24.23-.24h.01l.16.01c.09 0 .17.06.2.14l.15.36a7 7 0 0 0 1.46 2.15l1.2 1.2c.27.27.39.66.31 1.04l-.67 3.22c-.06.31-.24.58-.5.75l-.43.3c-.24.17-.53.25-.82.25-.16 0-.32-.03-.47-.08l-.68-.24a1.86 1.86 0 0 1-1.03-.88l-.13-.24a.35.35 0 0 0-.32-.19c-.09 0-.19.04-.26.11s-.17.11-.26.11a.4.4 0 0 1-.23-.08l-.52-.42a1.283 1.283 0 0 0-1.2-.23l-2.01.62c-.17.05-.35.08-.53.08-.39 0-.77-.13-1.09-.37l-.51-.39a.414.414 0 0 1-.09-.57c.07-.09.09-.21.07-.32l-.48-2.57c-.08-.42.16-.83.57-.97l1.35-.46c.3-.1.57-.27.8-.49l1.76-1.71c.23-.25.56-.38.9-.38m0-2c-.87 0-1.7.34-2.32.94l-1.76 1.71c-.01.01-.03.02-.05.03l-1.35.46a2.864 2.864 0 0 0-1.89 3.23l.39 2.09c-.27.93.04 1.97.87 2.59l.51.39a3.812 3.812 0 0 0 3.42.6l1.66-.51.23.19c.38.31.84.49 1.32.52.42.44.94.78 1.53.98l.68.24c.36.13.75.19 1.13.19.7 0 1.37-.21 1.95-.61l.43-.3a3.19 3.19 0 0 0 1.33-1.99l.67-3.22a3.12 3.12 0 0 0-.85-2.86l-1.2-1.2c-.44-.44-.79-.96-1.04-1.53l-.15-.36a2.242 2.242 0 0 0-1.96-1.34l-.16-.01h-.09c-.3 0-.61.06-.88.18-.25-.13-.52-.22-.8-.25l-1.21-.14c-.15-.02-.28-.02-.41-.02zM73.34 71.8c.16 0 .33.1.39.27l.31.84c.07.19.07.39 0 .58l-.69 1.79a.66.66 0 0 1-.62.42h-.07c-.63-.07-1.07-.65-.98-1.27l.13-.83c.07-.43.28-.82.6-1.11l.66-.58c.08-.07.18-.11.27-.11m0-2c-.59 0-1.16.22-1.6.61l-.66.59c-.67.6-1.12 1.41-1.25 2.3l-.13.83c-.13.83.09 1.7.61 2.37.51.67 1.29 1.1 2.13 1.2.1.01.19.02.29.02 1.09 0 2.09-.68 2.48-1.7l.69-1.79c.25-.64.25-1.35.02-1.99l-.31-.84c-.35-.96-1.26-1.6-2.27-1.6zm-31.31-6.45c.22 0 .45.03.67.1.81.24 2.24.66 2.93.86.19.06.28.29.16.45l-.17.25c-.09.13-.24.21-.4.21-.02 0-.05 0-.08-.01l-3.01-.48c-.14-.02-.28-.03-.42-.03-.13 0-.27.01-.4.03l-.55.08c-.07.01-.15.02-.22.02-.4 0-.79-.16-1.08-.45l-.12-.13a.21.21 0 0 1 .1-.35c.5-.12 1.42-.35 2.03-.5.2-.03.38-.05.56-.05m0-2c-.34 0-.68.04-1.02.12-.62.15-1.54.38-2.05.5-.77.19-1.38.78-1.6 1.54s-.01 1.58.54 2.15l.12.13c.66.67 1.57 1.06 2.51 1.06.17 0 .35-.01.52-.04l.55-.08c.03-.01.07-.01.1-.01.04 0 .07 0 .11.01l3.01.48a2.469 2.469 0 0 0 2.45-1.07l.17-.25c.4-.61.5-1.38.25-2.06s-.81-1.22-1.51-1.42l-2.04-.6-.89-.26c-.39-.14-.8-.2-1.22-.2z"/><path d="M47.23 64.69c.03 0 .05 0 .08.01.79.13 2.48 1.07 2.13 1.36-.09.08-.2.12-.31.12-.04 0-.08-.01-.12-.02l-2.44-.65c-.05-.01-.07-.07-.04-.12l.31-.48c.08-.14.23-.22.39-.22m0-2c-.84 0-1.61.42-2.07 1.12l-.31.48c-.36.56-.44 1.26-.2 1.88s.76 1.09 1.4 1.26l2.44.65c.21.06.42.08.64.08.59 0 1.17-.21 1.61-.6.64-.54.89-1.39.66-2.2-.49-1.74-3.28-2.57-3.77-2.66-.13 0-.27-.01-.4-.01z"/></g><g fill="url(#c)"><radialGradient id="c" cx="67.5" cy="34.5" r="75.939" gradientUnits="userSpaceOnUse"><stop offset="0" stop-color="#AEEA00"/><stop offset=".237" stop-color="#ADE903"/><stop offset=".392" stop-color="#A9E40B"/><stop offset=".522" stop-color="#A2DC1A"/><stop offset=".639" stop-color="#98D12F"/><stop offset=".746" stop-color="#8BC34A"/><stop offset="1" stop-color="#8BC34A"/></radialGradient><path d="M107.3 78.98c-.07.04-1.6 1.19-1.27 1.9s.61 2.06 1.32 1.12.96-3.68-.05-3.02zm-2.39 2.47c.17-.34.73-.21.93.12.43.7.72 2.13-2.76 3.32-4.82 1.65.54-.85 1.83-3.44zM48.02 69.08l-1.33-.98a6.223 6.223 0 0 0-2.84-1.15l-1.87-.25c-.77-.1-1.52.26-1.92.92-.14.24-.41.37-.69.33l-.08-.01a.711.711 0 0 1-.61-.62l-.09-.84a.704.704 0 0 0-.7-.62.7.7 0 0 1-.66-.93l.08-.23a.505.505 0 0 0-.44-.67L36.3 64a.789.789 0 0 0-.58.21c-.38.34-.98.25-1.23-.19l-.03-.05a.784.784 0 0 1-.04-.7l.27-.65c.27-.65.86-1.11 1.55-1.22l.92-.14c.52-.08 1.03.24 1.18.74l.01.02c.15.49.63.8 1.14.73.26-.03.45-.27.43-.53l-.09-1.44a.49.49 0 0 1 .11-.35l.03-.04c1.6-1.93 3.65-3.45 5.96-4.42l1.36-.57c.84-.35 1.23-1.32.86-2.15l-1.68-3.88c-.16-.36-.6-.5-.94-.28-.33.21-.76.08-.93-.27l-.65-1.39a1.4 1.4 0 0 0-1.28-.81h-.1c-.73 0-1.34.55-1.41 1.28l-.32 3.31a.68.68 0 0 1-.56.6.69.69 0 0 1-.58-.19l-2.88-2.92c-.33-.34-.43-.84-.24-1.27a3.383 3.383 0 0 1 2.5-1.97l.49-.09c.87-.15 1.48-.94 1.41-1.83l-.15-1.9c-.07-.82-.82-1.4-1.63-1.27l-4.61.77c-1.75.29-3.55-.05-5.06-.97L28 39.23c-.38-.23-.83-.24-1.21-.06-.35.17-.78.15-1.07.39-2.06 1.72-9.63 1.92-10.03 1.95-.2.01-.37.14-.44.32l-.25.66c-.11.29.07.61.38.67.38.07.54.52.29.82l-.68.81c-.15.18-.06.45.15.55l2.68 1.23c.92.42 1.94.54 2.95.44.53-.05 1.08.06 1.56.35l.24.14c1.13.67 2.09 1.59 2.81 2.69l.8 1.23c.58.89.91 1.92.97 2.98l.08 1.57c.04.85.29 1.67.72 2.4l3.14 5.37c.45.76 1.14 1.35 1.97 1.66l3.24 1.22c.09.03.17.09.23.17l1.33 1.78c.1.13.24.23.41.26l.17.04c.47.11.7.65.44 1.06l-.09.13c-.41.64-.55 1.41-.39 2.15l.49 2.3c.16.76.54 1.45 1.1 1.98l.48.46c.67.64.93 1.6.67 2.49l-2.3 8.11c-.19.66-.17 1.36.05 2.01l.44 1.29c.21.63.76 1.09 1.42 1.19l1.02.16c.52.08.88-.51.57-.93l-.39-.54c-.56-.76-.49-1.82.16-2.5l5.51-5.78c.46-.48.73-1.1.79-1.76l.01-.16c.05-.65.52-1.2 1.16-1.34l1.05-.24c.41-.09.76-.36.97-.73l1.79-3.25c.41-.74.11-1.67-.65-2.04l-2.61-1.26c-.58-.28-1.03-.79-1.22-1.41-.19-.47-.49-.89-.89-1.18zm-1.95-24.57.06-.87c.02-.26-.23-.5-.66-.65l-.47-.16c-.55-.19-.79-.54-.59-.85.14-.23.06-.47-.22-.67l-.97-.68c-.35-.25-.38-.57-.08-.83l3.31-2.09c.25-.21.68-.35 1.17-.38l1.81-.12c.49-.03.98.04 1.33.2l4.55.86c.47.21.63.54.4.84l-5.73 5.61c-.19.24-.63.43-1.16.48l-.8.08c-1.02.12-1.98-.26-1.95-.77zm10.46 2.57c.13-.3.58-.21.59.11.01.37.4.6.73.45l.74-.35c.27-.13.49-.35.63-.62.22-.45.17-.99-.13-1.4l-1.43-1.92a.759.759 0 0 0-1.04-.17l-.36.26c-.26.19-.39.5-.34.82l.08.5c.01.07 0 .13-.03.19l-.4.77c-.26.49-.1 1.09.37 1.39l.16.1c.14.1.35.04.43-.13z"/><path d="m112.77 42.77-.33-.89c-.19-.52-.66-.89-1.21-.96l-12.62-1.54-7.09-1.04c-.45-.07-.9-.07-1.35-.03l-7.33 1.74c-.93.22-1.89.32-2.85.31l-8.8-.17c-.39.04-.79.02-1.17-.06l-4.62-.89a2 2 0 0 0-1.23.16l-1.46.72c-.44.22-.77.61-.91 1.08l-.28.95c-.16.54-.51.99-.94 1.35-.35.3-.55.74-.53 1.2l.04 1.07c.01.23.16.44.39.52.18.06.39.01.54-.1l.46-.35c.24-.18.51-.1.59.12l.21.6c.21.58.88.85 1.43.58.07-.04.13-.11.16-.18l.52-1.41c.17-.45.09-1-.28-1.3a.413.413 0 0 1-.1-.51l1.24-2.24c.06-.1.19-.15.3-.1l.15.06c.11.05.17.18.12.29l-.43 1.17c-.03.1-.11.17-.21.21l-.03.01c-.19.07-.28.29-.19.48l.12.25c.27.57.86.92 1.49.89.07 0 .15.02.21.06l.06.04c.27.17.18.59-.13.64l-.5.08c-.12.02-.22.1-.27.22l-.11.28c-.05.13-.02.28.09.38l.23.22c.08.07.1.19.04.28a.23.23 0 0 1-.31.09l-.33-.17c-.18-.1-.41-.01-.49.18l-.51 1.26c-.06.15-.21.23-.36.22l-1.93-.21a.424.424 0 0 1-.34-.25l-.14-.32c-.11-.25-.39-.36-.62-.21-.16.11-.23.3-.17.48.11.34-.14.68-.5.68h-.15c-.25 0-.47.18-.51.43-.08.41-.35.74-.73.9l-1.08.44c-.44.18-.63.69-.42 1.12l.28.57a.696.696 0 0 1-.7 1c-.77-.08-1.43.53-1.47 1.3l-.01.23c-.02.48.28.86.71.92l.81.12a1.5 1.5 0 0 0 1.49-.67l.56-.87c.25-.39.62-.69 1.05-.86l.21-.08c.51-.2 1.08-.03 1.41.4l.74.98c.19.25.49.39.79.35.55-.08.62-.62.32-.86l-.98-.76c-.18-.14-.2-.42.04-.59.17-.12.4-.1.56.03l.72.61c.37.31.5.8.4 1.27-.02.11.01.23.09.31l.63.68c.18.2.52.12.59-.14l.12-.4c.05-.18.31-.14.49-.08.12.04.25 0 .32-.11.15-.21.27-.45.38-.67.04-.09.02-.19-.04-.27l-.11-.12a.333.333 0 0 1-.02-.43l.94-1.33c.1-.14.29-.19.44-.11.79.4 3.05 1.53 3.11 1.56.07.03-.49 1.13-.49 1.18 0 .04-1.81-.13-2.82-.22a.452.452 0 0 0-.38.15c-.23.28-.44.57-.63.87-.08.13-.08.3 0 .43l.07.11c.06.1.16.16.27.17l1.41.1c.23.02.38.25.3.47l-.4 1.12c-.06.17-.25.27-.43.22l-2.91-.84a.354.354 0 0 0-.37.12l-.66.82c-.12.15-.33.17-.48.06l-1.6-1.22c-.22-.17-.32-.43-.32-.7a.727.727 0 0 0-.87-.7l-2.71.52c-1.05.2-2 .75-2.7 1.56l-.4.46c-.83.96-1.34 2.15-1.46 3.41l-.09.98c-.08.84.24 1.67.86 2.25l1.16 1.08c.48.44 1.11.68 1.76.65l2.51-.11c.72-.03 1.36.44 1.55 1.13l.62 2.23c.17.63.21 1.29.11 1.93l-.04.25c-.14.85-.05 1.72.26 2.52l1.3 3.42c.22.57.83.89 1.42.73l.43-.11c.9-.24 1.66-.82 2.12-1.63l1.42-2.49c.32-.56.66-1.06 1.13-1.49.3-.27.48-.65.49-1.06l.08-1.91c-.06-.66.19-1.32.68-1.77l1.12-1.03c.46-.42.77-.98.9-1.59l.12-.59c.09-.45-.36-.85-.78-.66-.84.37-1.78.09-2.16-.74l-1.82-4.04c-.1-.23.06-.49.32-.49.13 0 .25.07.31.19l1.7 3.27c.38.74 1.31 1.01 2.03.59l2.18-1.27c.67-.39-.48-2.03-.74-1.85l-.31.21c-.18.12-.43.05-.52-.15l-.5-1.11a.58.58 0 0 1 .09-.63c.21-.21.53-.22.75-.03.6.52 1.28.95 2.07 1.08l1.9.31c.32.05.61.22.82.47l.99 1.17c.3.35.52.76.66 1.2l.63 1.98c.15.46.71.62 1.08.31l.34-.29c.13-.11.22-.27.24-.45l.03-.33c.08-.74.47-1.41 1.07-1.84l1.47-1.06c.18-.13.44-.06.53.14l.81 1.83c.09.21.34.3.56.22.24-.09.5.07.53.32l.22 1.78c.01.03.02.05.02.08l.55 1.09c.1.21-.13.42-.32.3l-.98-.58c-.09-.05-.21-.04-.28.04l-.04.04c-.09.09-.09.23-.01.32l2.67 3.02c.29.33.67.55 1.1.65l3.38.76c.09.02.19-.02.24-.1l.01-.01c.09-.13.02-.3-.12-.35l-2.46-.76c-.72-.22-1.26-.81-1.41-1.55l-.21-1c-.06-.28-.19-.54-.38-.76-.44-.5-1.21-1.4-1.19-1.43.01-.02.02-.22.03-.45.01-.32.4-.46.61-.22l.7.79c.14.16.4.16.53-.01l.57-.7c.27-.33.29-.8.04-1.15l-.41-.57c-.3-.42-.3-.99.02-1.41.17-.22.44-.33.71-.32l1.73.05c.44.01.85-.24 1.03-.64l.57-1.39c.24-.54.24-1.16 0-1.7l-.7-1.55a.353.353 0 0 1 .09-.41l.89-.78c.14-.13.36-.11.49.03l.54.6c.04.05.07.1.08.17l.24 1.16c.06.27.39.37.59.18l.5-.5c.09-.09.13-.22.09-.34l-.32-1.18c-.03-.12 0-.24.08-.33l.83-.88c.06-.06.14-.1.23-.11l1.02-.07a.37.37 0 0 0 .31-.24l1.22-3.73c.13-.4-.01-.83-.34-1.08l-.52-.39a.35.35 0 0 1-.03-.54l.99-.91c.56-.52 1.31-.79 2.07-.77l.39.01c.58.02 1.15-.17 1.61-.53l.63-.5c.53-.42 1.17-.65 1.84-.67l.28-.01c.11 0 .17.12.1.2l-2.26 2.78c-.22.27-.33.62-.3.97l.06.73c.04.46.61.64.9.28l1.45-1.8a.34.34 0 0 0 .07-.27l-.08-.49a.79.79 0 0 1 .66-.9l1.39-.2c.18-.03.34-.09.49-.19l1.84-1.23c.35-.22.48-.62.35-.97zM74.86 55.56a.35.35 0 0 1-.41.31l-1.01-.17a.345.345 0 0 1-.27-.45l.24-.73a.36.36 0 0 0-.02-.27l-.64-1.22a.346.346 0 0 1 .14-.47l1.41-.8c.2-.11.45-.01.51.22l.05.18a.35.35 0 0 1-.18.4l-.3.16c-.2.1-.25.36-.11.53.25.31.6.73.65.83s-.01.96-.06 1.48z"/><path d="m101.55 50.07-.15 2.3c-.02.32-.1.63-.23.92l-.84 1.86c-.22.48-.54.9-.96 1.22l-1.16.91c-.06.05-.09.12-.09.2l.05.7c.01.17.21.27.35.18l2.36-1.48c.46-.29.74-.79.75-1.33.01-.61.04-1.33.13-1.45.08-.11.4-.38.69-.61a.52.52 0 0 0 0-.8.937.937 0 0 1-.34-.87l.19-1.35c.05-.32-.2-.61-.52-.62-.12 0-.22.1-.23.22zm-5.35 9.45h-.1c-.09 0-.16.05-.2.12l-.28.52c-.13.25-.12.56.03.8l.38.62h.25l-.03-.25c-.02-.2.03-.4.14-.56.13-.18.18-.41.13-.63l-.09-.44a.246.246 0 0 0-.23-.18zm-4.31 8.13.29.68c.07.16.2.27.37.31l1.49.35c.35.08.71-.14.8-.49l.39-1.58c.01-.04.02-.08.02-.13v-.63c0-.23-.14-.43-.36-.5a.501.501 0 0 0-.43.04l-2.33 1.29c-.24.12-.34.41-.24.66zm8.92 2.8.8-.06c.05 0 .1-.03.14-.06.28-.27.73-.28 1.02-.02l.96.86.07-.36-.35-.99c-.11-.3-.33-.54-.62-.68l-2.7-1.26c-.16-.08-.35-.1-.52-.08l-.65.1c-.38.06-.54.51-.29.8l1.19 1.37c.24.27.59.41.95.38zm.83.87-.16-.01a.226.226 0 0 0-.24.24l.03.65c.02.38-.34.68-.71.58l-.84-.22a.237.237 0 0 1-.17-.28l.19-.78a.238.238 0 0 0-.2-.29l-1.21-.14c-.4-.05-.8.09-1.08.37l-1.76 1.71c-.23.22-.5.39-.8.49l-1.35.46c-.4.14-.65.55-.57.97l.48 2.57c.02.11 0 .22-.07.32-.13.18-.09.43.09.57l.51.39c.46.35 1.07.46 1.62.29l2.01-.62c.41-.13.87-.04 1.2.23l.52.42c.15.12.36.11.5-.03.17-.18.47-.14.59.08l.13.24c.22.41.59.72 1.03.88l.68.24c.43.15.91.09 1.29-.17l.43-.3c.26-.18.44-.45.5-.75l.67-3.22c.08-.38-.04-.77-.31-1.04l-1.2-1.2a7 7 0 0 1-1.46-2.15l-.15-.36a.195.195 0 0 0-.19-.14zM71.81 73.6l-.13.83c-.1.63.35 1.2.98 1.27.3.03.58-.14.69-.42l.69-1.79c.07-.19.07-.39 0-.58l-.31-.84c-.1-.27-.45-.36-.66-.17l-.66.58c-.32.3-.54.69-.6 1.12zM41.48 63.42c-.61.15-1.53.37-2.03.5a.21.21 0 0 0-.1.35l.12.13c.34.35.82.51 1.3.44l.55-.08c.27-.04.55-.04.82 0l3.01.48c.19.03.37-.05.47-.21l.17-.25c.11-.17.03-.4-.16-.45-.69-.2-2.12-.62-2.93-.86-.4-.14-.81-.15-1.22-.05zm5.35 1.49-.31.48c-.03.04-.01.1.04.12l2.44.65a.5.5 0 0 0 .44-.1c.34-.29-1.34-1.23-2.13-1.36a.475.475 0 0 0-.48.21z"/></g><linearGradient id="d" x1="103.17" x2="111.63" y1="79.766" y2="98.368" gradientUnits="userSpaceOnUse"><stop offset="0" stop-color="#ECEFF1"/><stop offset="1" stop-color="#B0BEC5"/></linearGradient><path fill="url(#d)" d="M96.99 83.8c-.71.1-1.07.89-.7 1.5l3.21 5.32c4.23 8.21-1.88 12.95-6.48 15.21 7.46-.83 14.21-5.01 18.24-11.46l11.9-19.04c-9.42 5.62-21.91 7.84-26.17 8.47z"/><path fill="#424242" d="m115.26 82.32-6.55 10.47c-1.38 2.2-3.1 4.1-5.08 5.65.67-2.9.18-5.98-1.47-9.18-.03-.06-.06-.12-.1-.18l-1.69-2.79c3.82-.7 9.3-1.92 14.89-3.97m7.9-6.98c-9.42 5.61-21.92 7.84-26.17 8.46-.71.1-1.07.89-.7 1.5l3.21 5.32c4.23 8.21-1.88 12.95-6.48 15.21 7.46-.83 14.21-5.01 18.24-11.46l11.9-19.03z" opacity=".2"/></svg>