<svg xmlns="http://www.w3.org/2000/svg" style="enable-background:new 0 0 128 128" viewBox="0 0 128 128" xml:space="preserve"><path d="M31.7 111.9 16 124h96l-16.5-11.9s-64.1-.5-63.8-.2z" style="fill:#263238"/><path d="M43.6 111.9 32 124h64l-11.6-11.9s-41-.5-40.8-.2z" style="fill:#bdbdbd"/><path d="M31.7 111.9 16 124h96l-16.5-11.9s-64.1-.5-63.8-.2z" style="fill:none"/><path d="M43.6 111.9 32 124h64l-11.6-11.9s-41-.5-40.8-.2z" style="fill:none"/><radialGradient id="a" cx="64.466" cy="784.833" r="39.702" gradientTransform="translate(0 -714)" gradientUnits="userSpaceOnUse"><stop offset=".001" style="stop-color:#f5f5f5"/><stop offset="1" style="stop-color:#e0e0e0"/></radialGradient><path d="M24 36c4.2-18.8 3.5-32 40-32s35.8 13.4 40 32l8 48.2c2.5 15-10.8 28.8-21.5 28.8h-53C26.8 113 14 99.7 16 84.2L24 36z" style="fill:url(#a)"/><path d="M90.5 113h-53C26.8 113 14 99.7 16 84.2l.7-4.1C19.6 91 29.1 99 37.5 99h53.1c8.2 0 17.8-8 20.8-18.5l.6 3.8c2.5 14.9-10.8 28.7-21.5 28.7z" style="fill:#0277bd"/><path d="M90.5 113h-53C26.8 113 14 99.7 16 84.2L24 36c1.4-12.8 2.6-23.2 15.3-28.4C44.9 5.3 52.8 4 64 4c11.3 0 19.2 1.3 24.8 3.6 12.5 5.2 13.5 15.5 15.2 28.4l8 48.2c2.5 15-10.8 28.8-21.5 28.8z" style="fill:none"/><path d="M89.6 46.5C84.8 45.2 76.8 44 64 44s-20.8 1.2-25.6 2.5c-2.9.8-5.6-1.7-5.1-4.7l6-34.2C44.9 5.3 52.8 4 64 4c11.3 0 19.2 1.3 24.8 3.6l5.9 34.2c.6 3-2.2 5.5-5.1 4.7z" style="fill:#4fc3f7"/><path d="M90.5 113h-53C26.8 113 14 99.7 16 84.2L24 36c1.4-12.8 2.6-23.2 15.3-28.4.7-.3 1.4-.6 2.1-.8C46.9 5 54.2 4 64 4c9.9 0 17.2 1 22.7 2.8.8.3 1.5.5 2.2.8 12.5 5.2 13.5 15.5 15.2 28.4l8 48.2c2.4 15-10.9 28.8-21.6 28.8z" style="fill:none"/><g style="opacity:.2"><path d="m94.8 41.8-6-34.2c-.7-.3-1.4-.6-2.2-.8l6.1 35.4c.1.8-.2 1.4-.5 1.7-.4.5-1 .8-1.6.8-.2 0-.4 0-.6-.1-6.4-1.7-15.2-2.6-26-2.6s-19.6.9-26.1 2.6c-.2 0-.4.1-.6.1-.6 0-1.2-.3-1.6-.8-.2-.3-.6-.9-.5-1.7l6.2-35.4c-.7.2-1.4.5-2.1.8l-6 34.2c-.5 2.6 1.6 4.8 4 4.8.3 0 .7 0 1.1-.1C43.2 45.2 51.2 44 64 44s20.8 1.2 25.6 2.5c.4.1.7.1 1.1.1 2.5 0 4.5-2.2 4.1-4.8z" style="fill:#424242"/></g><path d="M32 60h16v16H32c-4.4 0-8-3.6-8-8 0-2.2.9-4.2 2.4-5.7S29.8 60 32 60zm72 8c0 2.2-.9 4.2-2.3 5.7S98.2 76 96 76H80V60h16c4.4 0 8 3.6 8 8z" style="fill:#263238"/><circle cx="33" cy="68" r="6" style="fill:#ffeb3b"/><circle cx="95" cy="68" r="6" style="fill:#ffeb3b"/><path d="M52 60v16m4-16v16m4-16v16m4-16v16m4-16v16m4-16v16m4-16v16" style="fill:none;stroke:#78909c;stroke-width:2;stroke-miterlimit:10"/><g style="opacity:.2"><path d="M64 7c14.6 0 23.7 2.2 28.7 6.8 4.5 4.1 5.7 10.3 7.4 18 .3 1.5.7 3.1 1 4.7l8 48.2c1 6.1-1 12.7-5.4 18-3.8 4.5-8.8 7.3-13.1 7.3H37.5c-4.1 0-8.9-2.6-12.6-6.7-4.6-5.2-6.8-12-5.9-18.6l8-48.1c.4-1.6.7-3.2 1-4.8 1.6-7.8 2.9-14 7.4-18.1C40.3 9.1 49.4 7 64 7m0-3C27.5 4 28.2 17.2 24 36l-8 48.2C14 99.7 26.8 113 37.5 113h53.1c10.7 0 24-13.8 21.5-28.8L104 36c-4.2-18.6-3.5-32-40-32z" style="fill:#424242"/></g></svg>