<svg xmlns="http://www.w3.org/2000/svg" style="enable-background:new 0 0 128 128" viewBox="0 0 128 128" xml:space="preserve"><path d="M60 54h8v70h-8z" style="fill:#424242"/><g style="opacity:.2"><path d="M66 56v66h-4V56h4m2-2h-8v70h8V54z" style="fill:#eee"/></g><path d="M74.1 107.4H53.9c-3.5 0-6.4-2.5-6.4-5.6V71.7c0-3.1 2.9-5.6 6.4-5.6h20.3c3.5 0 6.4 2.5 6.4 5.6v30.1c-.1 3.1-2.9 5.6-6.5 5.6z" style="fill:#689f38"/><path d="M64 4C48.3 4 35.6 16.7 35.6 32.5S48.3 60.9 64 60.9s28.4-12.7 28.4-28.4S79.7 4 64 4zM49.3 45h30.2-30.2z" style="fill:#2196f3"/><path d="M70.3 99.1H57.8c-1.1 0-2-.9-2-2V97c0-1.1.9-2 2-2h12.5c1.1 0 2 .9 2 2v.1c0 1.1-.9 2-2 2z" style="fill:#689f38"/><path d="M76.1 16h-2c-.6 0-1.1 0-1.6-.2l-3-.8c-1.8-.5-9.2-.4-11 .1l-3 .8c-.5.1-1.1.1-1.6.1h-2C50 16 48 17.9 48 19.8v27.5c0 1.8 1.7 3.5 3.6 3.5 1.8 0 3.4-.8 3.4-3.1 0-1.2 1.4-1.6 2.2-1.6h13.7c.8 0 2.1.5 2.1 1.6 0 2.3 1.2 3.1 3 3 1.8 0 3.1-1.6 3.1-3.4V19.8c-.1-1.9-1.1-3.8-3-3.8z" style="fill:#fff"/><circle cx="56.4" cy="39.1" r="3.1" style="fill:#2196f3"/><circle cx="71.9" cy="39.1" r="3.1" style="fill:#2196f3"/><g style="opacity:.2"><path d="M64 7c14 0 25.4 11.4 25.4 25.4S78 57.9 64 57.9 38.6 46.5 38.6 32.5 50 7 64 7m0-3C48.3 4 35.6 16.7 35.6 32.5S48.3 60.9 64 60.9s28.4-12.7 28.4-28.4S79.7 4 64 4z" style="fill:#424242"/></g><path d="M72.6 33.1H55.7c-1.3 0-2.4-1.1-2.4-2.4v-7.9c0-1.3 1.1-2.4 2.4-2.4h16.8c1.3 0 2.4 1.1 2.4 2.4v7.9c.1 1.3-1 2.4-2.3 2.4z" style="fill:#2196f3"/><g style="opacity:.2"><path d="M74.1 68.1c2.4 0 4.4 1.6 4.4 3.6v30.1c0 2-2 3.6-4.4 3.6H53.9c-2.4 0-4.4-1.6-4.4-3.6V71.7c0-2 2-3.6 4.4-3.6h20.2m0-2.1H53.9c-3.5 0-6.4 2.5-6.4 5.6v30.1c0 3.1 2.9 5.6 6.4 5.6h20.3c3.5 0 6.4-2.5 6.4-5.6v-30c-.1-3.1-2.9-5.7-6.5-5.7z" style="fill:#424242"/></g><path d="M70.3 99.1H57.8c-1.1 0-2-.9-2-2V97c0-1.1.9-2 2-2h12.5c1.1 0 2 .9 2 2v.1c0 1.1-.9 2-2 2zm0-10.3H57.8c-1.1 0-2-.9-2-2v-.1c0-1.1.9-2 2-2h12.5c1.1 0 2 .9 2 2v.1c0 1.1-.9 2-2 2zm0-10.3H57.8c-1.1 0-2-.9-2-2v-.1c0-1.1.9-2 2-2h12.5c1.1 0 2 .9 2 2v.1c0 1.1-.9 2-2 2z" style="fill:#c5e1a5"/><path d="M80.5 124H47.4v-5.9c0-1.2 1-2.1 2.1-2.1h28.9c1.2 0 2.1.9 2.1 2.1v5.9z" style="fill:#9e9e9e"/><path d="M84 124H44v-1.9c0-1.2 1-2.1 2.1-2.1h35.8c1.2 0 2.1.9 2.1 2.1v1.9z" style="fill:#bdbdbd"/><g style="opacity:.2"><path d="M64.3 15.7c2.3 0 4.2.1 4.9.3l3 .8c.7.2 1.3.2 1.9.2h2c1.2 0 1.9 1.4 1.9 2.8v27.5c0 1.2-.7 2.4-2.1 2.4h-.1c-1.2 0-1.9-.3-1.9-2s-1.6-2.6-3.1-2.6H57.2c-1.3 0-3.2 1-3.2 2.7 0 1.4-.8 2.3-2.3 2.3h-.1c-1.3 0-2.6-1.5-2.6-2.8V19.8c0-1.3 1.5-2.8 2.9-2.8h2c.7 0 1.4-.1 1.9-.2l3-.8c.7-.2 3-.3 5.5-.3m0-1c-2.4 0-4.9.1-5.8.4l-3 .8c-.5.1-1.1.1-1.6.1h-2C50 16 48 17.9 48 19.8v27.5c0 1.8 1.7 3.5 3.6 3.5h.1c1.8 0 3.3-.9 3.3-3.1 0-1.2 1.4-1.6 2.2-1.6h13.6c.8 0 2.1.6 2.1 1.8 0 2.2 1.1 3.2 2.9 3.2h.2c1.8 0 3.1-2 3.1-3.8V19.8c0-1.9-1-3.8-2.9-3.8h-2c-.6 0-1.1 0-1.6-.2l-3-.8c-1-.2-3.1-.3-5.3-.3z" style="fill:#424242"/></g><g style="opacity:.2"><path d="M78.3 117c.6 0 1.1.5 1.1 1.1v1.9c0 .3.1.5.3.7s.4.3.7.3h1.4c.6 0 1.1.5 1.1 1.1v.9H45v-.9c0-.6.5-1.1 1.1-1.1h1.3c.5 0 1-.4 1-1v-1.9c0-.6.5-1.1 1.1-1.1H78m.3-1H49.5c-1.2 0-2.1.9-2.1 2.1v1.9h-1.3c-1.2 0-2.1.9-2.1 2.1v1.9h40v-1.9c0-1.2-.9-2.1-2.1-2.1h-1.4v-1.9c0-1.2-1-2.1-2.2-2.1z" style="fill:#424242"/></g></svg>