<svg xmlns="http://www.w3.org/2000/svg" style="enable-background:new 0 0 128 128" viewBox="0 0 128 128" xml:space="preserve"><path d="M85.6 97.8H74.5l-5.6-16.3-5.3 1.8 4.9 14.5-43.8.2L30 82.6l-4.9-1.7-5.8 17c-1.7-.3-5.1-.9-7.4-2.2-1.6-.9-3.2-1.8-4.8-1l-.3.3c-2.4 1.2-3 4.4-1.2 6.3 3.4 3.5 11 5 17.7 5l62-.1c4 0 4.2-2.7 4.2-4.9 0-2.3-1.7-3.5-3.9-3.5z" style="fill:#4e342e"/><g style="opacity:.2"><path d="m26.4 83.4 1.1.4-4.6 13.6c-.2.6-.1 1.2.3 1.8.4.5 1 .8 1.6.8l43.8-.2c.6 0 1.2-.3 1.6-.8s.5-1.2.3-1.8l-4.3-12.6 1.5-.5 4.9 14.5c.3.8 1 1.4 1.9 1.4l11.1-.1c.9 0 1.9.2 1.9 1.3 0 .7 0 2-.5 2.5-.3.3-.9.4-1.8.4l-62 .1c-7.4 0-13.8-1.7-16.3-4.3-.4-.4-.6-1.1-.5-1.7s.5-1.2 1.1-1.4l.5-.2c.2-.1.3-.1.5-.1.6 0 1.5.5 2.4 1l.1.1c2.6 1.4 6.2 2.1 8.1 2.4h.3c.8 0 1.6-.5 1.9-1.4l5.1-15.2m-1.3-2.5-5.8 17c-1.7-.3-5.1-.9-7.4-2.2-1.2-.6-2.3-1.3-3.5-1.3-.4 0-.9.1-1.3.3l-.4.3c-2.4 1.2-3 4.4-1.2 6.3 3.3 3.5 10.9 5 17.7 5l62-.1c4.1 0 4.2-2.7 4.2-4.9s-1.8-3.4-3.9-3.4l-11.1.1-5.6-16.3-5.3 1.8 5 14.5-43.8.2L30 82.6l-4.9-1.7z" style="fill:#eee"/></g><path d="M61.4 42.1h-4.1V28.9c0-1.1.9-2 2-2s2 .9 2 2l.1 13.2z" style="fill:#6d4c41"/><path d="M59.8 31.9c.1 2.3-21.9 5.1-36.6 5.7s-18 .5-18.2-3.4 3.2-4.3 17.9-4.9 36.9.3 36.9 2.6z" style="fill:#78909c"/><path d="M59.8 31.9c-.1 2.3 21.9 5.1 36.6 5.7s18.1.5 18.2-3.4c.2-3.9-3.2-4.3-17.9-4.9s-36.8.3-36.9 2.6z" style="fill:#78909c"/><g style="opacity:.2"><path d="M87.5 31.1c3.2 0 6.3.1 9.1.2 6.6.3 11.5.5 14.1 1.2 1.9.5 1.9.9 1.9 1.7 0 1-.1 1.8-6.8 1.8-2.4 0-5.5-.1-9.4-.3-11.8-.5-24.5-2.1-31-3.5 4.7-.6 12.6-1.1 22.1-1.1m0-2c-13.3 0-27.6 1-27.7 2.9-.1 2.3 21.9 5.1 36.6 5.7 3.9.2 7 .3 9.5.3 6.8 0 8.7-.8 8.8-3.7.2-3.9-3.2-4.3-17.9-4.9-2.9-.3-6.1-.3-9.3-.3z" style="fill:#424242"/></g><linearGradient id="a" x1="64.449" x2="64.449" y1="756.75" y2="797.996" gradientTransform="translate(0 -714)" gradientUnits="userSpaceOnUse"><stop offset=".165" style="stop-color:#ffea00"/><stop offset=".373" style="stop-color:#ffe505"/><stop offset=".629" style="stop-color:#fdd714"/><stop offset=".907" style="stop-color:#fbc02d"/></linearGradient><path d="M123 35h-2.7c-1.3 0-2.6.7-3.6 1.5l-2.2 2c-2.1 1.8-5.2 4.5-7.9 4.5H69.2l-5.2-.9c-2.2-.8-4.8-1.2-7.7-1.2-13.7 0-22.3 1.4-28.6 5.8 0 0-18.8 16.9-20 18.3-5.1 6.4-3.4 14 1.7 18.5 3.5 3.1 10.8 4.3 28 4.3 11.9 0 21.6-1.2 29-4v.1c1.9-.8 3.6-1.6 5.1-2.6.3-.2.5-.3.8-.5s.6-.4.8-.6c.6-.4 1.1-.8 1.6-1.3 6.4-5.7 10.1-22.4 18.2-25.1 4.1-1.4 20.4-2.9 23.6-2.9 1.6 0 2.9-1 3.5-2.4l4.2-11.5c.3-1-.3-2-1.2-2z" style="fill:url(#a)"/><path d="M29.5 73.3H4.6c0-2.8 1-5.6 3.1-8.3 1.2-1.5 20-18.4 20-18.4 1.2-.9 2.6-1.6 4-2.2 1.2 1 2.5 2.2 3.8 3.7l4.5 6.4c5.7 8 10.3 18.8-10.5 18.8z" style="fill:#4fc3f7"/><g style="opacity:.2"><path d="M40.1 54.5 35.5 48c-1.3-1.5-2.5-2.7-3.8-3.7-.7.3-1.4.6-2 1 1.4.9 2.7 2.2 4.2 3.9l4.5 6.3c4.8 6.8 4.8 10.2 4 11.9-1.3 2.5-5.7 3.8-12.9 3.8H4.8c-.1.7-.2 1.4-.2 2h24.9c20.8.1 16.2-10.7 10.6-18.7z" style="fill:#757575"/></g><path d="M65.2 61.9c-.4 1.8-2.1 3-4 3h-2.9c-2 0-3.9-1.1-4.9-2.8L46.2 50c-1-1.5.2-3.1 2-3.1h13.4c3.3 0 4.7.6 5.6 2.7.6 1.4-1 8.2-2 12.3z" style="fill:#4fc3f7"/><g style="opacity:.2"><path d="m120.7 38-3.4 9.3c-.1.3-.4.5-.7.5-3 0-19.9 1.5-24.5 3-5.8 2-9.3 8.8-12.8 15.5-2.1 4.1-4.2 8.2-6.5 10.2l-.1.1c-.4.3-.8.7-1.3 1.1l-.5.3-.2.2-.1.1c-.2.1-.4.2-.6.4-1.3.8-2.6 1.5-4 2.1-.2 0-.4.1-.6.2-6.7 2.6-15.8 3.8-27.9 3.8-15.6 0-23.2-1-26-3.5-5.3-4.7-4.5-10.6-1.4-14.4 1.1-1.2 12.5-11.6 19.5-17.9 5.4-3.7 12.9-5.1 26.7-5.1 2.4 0 4.7.3 6.7 1 .2.1.5.1.8.2l4.9.9h38c3.9 0 7.5-3.1 9.9-5.2h.1l2.1-1.9c.6-.5 1.2-.8 1.6-.8h.6m2-3.1h-2.7c-1.3 0-2.6.7-3.6 1.5l-2.2 2c-2.1 1.8-5.2 4.5-7.9 4.5H69.2l-5.2-.9c-2.2-.8-4.8-1.2-7.7-1.2-13.7 0-22.3 1.4-28.6 5.8 0 0-18.8 16.9-20 18.3-5.1 6.4-3.4 14 1.7 18.5 3.5 3.1 10.8 4.3 28 4.3 11.9 0 21.6-1.2 29-4v.1c1.9-.8 3.6-1.6 5.1-2.6.3-.2.5-.3.8-.5s.6-.4.8-.6c.6-.4 1.1-.8 1.6-1.3 6.4-5.7 10.1-22.4 18.2-25.1 4.1-1.4 20.4-2.9 23.6-2.9 1.6 0 2.9-1 3.5-2.4l4.2-11.5c.3-1-.3-2-1.2-2z" style="fill:#424242"/></g><g style="opacity:.2"><path d="M61.6 48.8c3 0 3.3.6 3.7 1.4.1.7-.2 3.8-2 11.1-.2.9-1 1.5-2 1.5h-2.9c-1.3 0-2.6-.7-3.2-1.8L48 48.9h.3l13.3-.1m0-2H48.1c-1.8 0-3 1.6-2 3.1L53.3 62c1 1.7 2.9 2.8 4.9 2.8h2.9c1.9 0 3.5-1.2 4-3 1-4 2.6-10.8 2-12.3-.8-2-2.2-2.7-5.5-2.7z" style="fill:#424242"/></g><g style="opacity:.2"><path d="M32 29v2h.1c9.6 0 17.5.5 22.1 1.1-6.5 1.4-19.2 3-31 3.5-3.9.2-7 .3-9.4.3-6.7 0-6.7-.8-6.8-1.8 0-.8-.1-1.2 1.9-1.7 2.6-.6 7.5-.9 14.1-1.2 2.8-.1 5.8-.2 9.1-.2l-.1-2m.1.1c-3.2 0-6.4.1-9.2.2-14.7.6-18 1-17.9 4.9.1 2.9 2 3.7 8.8 3.7 2.5 0 5.6-.1 9.5-.3 14.7-.6 36.6-3.4 36.5-5.7 0-1.8-14.4-2.8-27.7-2.8z" style="fill:#424242"/></g><path d="M63.3 34.4h-7.9c-1.1 0-2-.9-2-2v-1c0-1.1.9-2 2-2h7.9c1.1 0 2 .9 2 2v1c0 1.2-.9 2-2 2z" style="fill:#546e7a"/></svg>