<svg xmlns="http://www.w3.org/2000/svg" style="enable-background:new 0 0 128 128" viewBox="0 0 128 128" xml:space="preserve"><path d="M35.97 111.92 20 124h88l-15.93-11.93s-56.4-.46-56.1-.15z" style="fill:#504f4f"/><path d="M43.62 111.92 32 124h64l-11.58-11.93s-41.02-.46-40.8-.15z" style="fill:#616161"/><path d="M70 124H58l3-12h6z" style="fill:#504f4f"/><path d="M64.05 29.44 46.44 10.05l1.43-1.3 16.18 17.81L80.46 8.44l1.43 1.3z" style="fill:#546e7a"/><path d="M84.82 8H43.18c-4.79 0-8.68 3.59-8.68 8.08 0 .78.12 1.69.36 2.45.07.21.26.47.48.47h2.12c.17 0 .33-.24.42-.38s.11-.4.04-.55c-.28-.63-.42-1.21-.42-1.88 0-2.91 2.55-5.18 5.68-5.18h41.64c3.13 0 5.68 2.24 5.68 5.15 0 .68-.14 1.28-.42 1.91-.07.15-.05.46.04.6s.25.35.42.35h2.12c.22 0 .41-.3.48-.5.24-.76.36-1.56.36-2.34 0-4.51-3.89-8.18-8.68-8.18z" style="fill:#504f4f"/><path d="M88.23 116H39.87a3.97 3.97 0 0 1-3.96-3.96v-.09a3.97 3.97 0 0 1 3.96-3.96h48.37a3.97 3.97 0 0 1 3.96 3.96v.09c-.01 2.18-1.79 3.96-3.97 3.96z" style="fill:#212121"/><linearGradient id="a" x1="64" x2="64" y1="103.833" y2="16.75" gradientTransform="matrix(1 0 0 -1 0 128)" gradientUnits="userSpaceOnUse"><stop offset=".136" style="stop-color:#ffca28"/><stop offset=".329" style="stop-color:#ffc21b"/><stop offset=".7" style="stop-color:#ffb707"/><stop offset=".953" style="stop-color:#ffb300"/></linearGradient><path d="M91.57 111.96H36.43c-4.63 0-8.43-4.15-8.43-9.23V52c0-32 16-28 36-28s36-4 36 27.88v50.86c0 5.06-3.79 9.22-8.43 9.22z" style="fill:url(#a)"/><path d="M42.5 41.72c0-1.69-1.37-2.96-2.89-2.74-3.21.47-6.2 2.12-6.2 7.57v31.9c0 1.53 1.13 2.76 2.52 2.76h4.06c1.39 0 2.52-1.24 2.52-2.76l-.01-36.73zm42.7 0c0-1.69 1.37-2.96 2.89-2.74 3.21.47 6.2 2.12 6.2 7.57v31.9c0 1.53-1.13 2.76-2.52 2.76h-4.06c-1.39 0-2.52-1.24-2.52-2.76l.01-36.73zM74.81 85.17H53.19c-4.42 0-8-3.58-8-8V40c0-4.42 3.58-8 8-8H74.8c4.42 0 8 3.58 8 8v37.17c.01 4.41-3.58 8-7.99 8z" style="fill:#4fc3f7"/><path d="M48.38 100.08H35.96A3.97 3.97 0 0 1 32 96.12v-.16A3.97 3.97 0 0 1 35.96 92h12.42a3.97 3.97 0 0 1 3.96 3.96v.16c-.01 2.18-1.79 3.96-3.96 3.96zm31.58 0h12.42a3.97 3.97 0 0 0 3.96-3.96v-.2a3.97 3.97 0 0 0-3.96-3.96H79.96A3.97 3.97 0 0 0 76 95.92v.2a3.97 3.97 0 0 0 3.96 3.96z" style="fill:#212121"/><path d="M39.48 98.47h5.38c1.35 0 2.45-1.1 2.45-2.45s-1.1-2.45-2.45-2.45h-5.38c-1.35 0-2.45 1.1-2.45 2.45s1.1 2.45 2.45 2.45zm44 0h5.38c1.35 0 2.45-1.1 2.45-2.45s-1.1-2.45-2.45-2.45h-5.38c-1.35 0-2.45 1.1-2.45 2.45s1.1 2.45 2.45 2.45z" style="fill:#ffee58"/></svg>