<svg xmlns="http://www.w3.org/2000/svg" viewBox="0 0 128 128"><path fill="#FDD835" d="M73.91 41.36H54.09C48.54 41.36 44 36.82 44 31.27s4.54-10.09 10.09-10.09h19.82c5.55 0 10.09 4.54 10.09 10.09s-4.54 10.09-10.09 10.09z"/><path fill="#424242" d="m21.48 70.68.05-3.06C21.53 62.09 8 64.48 8 64.48c-2.29.61-3.96 2.21-3.96 5.57 0 3.88 14.68 3.68 14.68 3.68 1.84 0 3.08-1.37 2.76-3.05z"/><path fill="#eee" d="M14.03 65.97c2.53 0 5.5.43 5.5 1.61l-.05 3.06c0 .14.01.28.04.41.05.27-.04.39-.08.43-.13.16-.4.25-.74.25h-.31c-7.22 0-11.53-1.08-12.34-1.86.05-2.42 1.22-3.11 2.39-3.44.47-.07 2.96-.46 5.59-.46m0-2c-3.12 0-6.03.51-6.03.51-2.29.61-3.96 2.21-3.96 5.57 0 3.52 12.14 3.68 14.34 3.68h.34c1.84 0 3.08-1.38 2.75-3.06l.05-3.06c.01-2.95-3.88-3.64-7.49-3.64z" opacity=".2"/><path fill="#424242" d="m106.56 70.68-.05-3.06c0-5.52 13.53-3.13 13.53-3.13 2.29.61 3.96 2.21 3.96 5.57 0 3.88-14.68 3.68-14.68 3.68-1.84-.01-3.08-1.38-2.76-3.06z"/><path fill="#eee" d="M114.01 63.97v2c2.61 0 5.12.39 5.6.47 1.17.33 2.33 1.02 2.39 3.44-.81.78-5.12 1.86-12.34 1.86h-.34c-.32 0-.58-.09-.71-.25-.03-.04-.13-.16-.08-.43.03-.14.04-.27.04-.41l-.05-3.02c0-1.22 2.96-1.65 5.5-1.65l-.01-2.01m0 0c-3.61 0-7.5.69-7.5 3.65l.05 3.06c-.32 1.68.91 3.06 2.75 3.06h.34c2.2 0 14.34-.16 14.34-3.68 0-3.36-1.67-4.96-3.96-5.57.01-.01-2.9-.52-6.02-.52z" opacity=".2"/><path fill="#4E342E" d="M24.15 124.18h-5.24c-2.89 0-5.25-2.36-5.25-5.25v-7.75c0-2.89 2.36-5.25 5.25-5.25h5.24c2.89 0 5.25 2.36 5.25 5.25v7.75c0 2.89-2.37 5.25-5.25 5.25zm85.11 0h-5.5c-2.89 0-5.25-2.36-5.25-5.25v-7.75c0-2.89 2.36-5.25 5.25-5.25h5.5c2.89 0 5.25 2.36 5.25 5.25v7.75c0 2.89-2.36 5.25-5.25 5.25z"/><path fill="#424242" d="M73.91 23.28c4.33 0 7.85 3.52 7.85 7.85v.14c0 4.33-3.52 7.85-7.85 7.85H54.09c-4.33 0-7.85-3.52-7.85-7.85v-.14c0-4.33 3.52-7.85 7.85-7.85h19.82m0-2.24H54.09C48.54 21.04 44 25.58 44 31.13v.14c0 5.55 4.54 10.09 10.09 10.09h19.82c5.55 0 10.09-4.54 10.09-10.09v-.14c0-5.55-4.54-10.09-10.09-10.09z" opacity=".2"/><radialGradient id="a" cx="64" cy="73.992" r="47.269" gradientUnits="userSpaceOnUse"><stop offset="0" stop-color="#FFEE58"/><stop offset=".349" stop-color="#FFE950"/><stop offset=".887" stop-color="#FDDB3A"/><stop offset="1" stop-color="#FDD835"/></radialGradient><path fill="url(#a)" d="m110.53 73.62-6.57-29.87C101.92 37.5 92 31.98 64 31.98S26.33 37.08 24 44l-6.59 29.56C12.98 75.66 12 80.07 12 87.92v16.67C12 111.5 18.11 116 23.95 116h79.84c5.84 0 12.2-4.5 12.2-11.42V87.92c.01-7.78-1.06-12.18-5.46-14.3z"/><path fill="#424242" d="M64 34.98c10.16 0 34.02.94 37.06 9.57l6.54 29.71.31 1.43 1.32.63c2.45 1.18 3.77 3.37 3.77 11.6v16.67c0 5.03-4.76 8.42-9.2 8.42H23.95c-2.22 0-4.48-.86-6.19-2.37-1.26-1.11-2.77-3.07-2.77-6.05V87.92c0-8.37 1.24-10.49 3.7-11.65l1.33-.63.32-1.43 6.55-29.39c2.36-6.53 14.84-9.84 37.11-9.84m0-3c-28 0-37.67 5.1-40 12.02l-6.59 29.56C12.98 75.66 12 80.07 12 87.92v16.67C12 111.5 18.11 116 23.95 116h79.84c5.84 0 12.2-4.5 12.2-11.42V87.92c0-7.78-1.07-12.18-5.47-14.3l-6.57-29.87C101.92 37.5 92 31.98 64 31.98z" opacity=".2"/><path fill="#37474F" d="M64.02 98.5C43.24 98.5 41 94.91 41 93.36v-2.37c0-3.22 2.89-5.85 6.44-5.85h32.62c3.55 0 6.44 2.62 6.44 5.85v2.37c0 1.55-2.19 5.14-22.48 5.14z"/><path fill="gray" d="M80.06 86.15c2.99 0 5.44 2.18 5.44 4.85v2.37c0 2.78-10.7 4.14-21.48 4.14C53.05 97.5 42 96.1 42 93.36v-2.37c0-2.67 2.45-4.85 5.44-4.85h32.62m0-1.99H47.44c-4.1 0-7.44 3.07-7.44 6.85v2.37c0 3.22 4.58 4.4 8.57 5.07 4.12.69 9.61 1.07 15.45 1.07 5.77 0 11.14-.37 15.12-1.06 3.89-.66 8.36-1.84 8.36-5.08V91c0-3.78-3.34-6.85-7.44-6.85z"/><path fill="none" stroke="#BDBDBD" stroke-linecap="round" stroke-linejoin="round" stroke-miterlimit="10" stroke-width="2" d="M46 90h36m-33 4h31"/><path fill="#6D4C41" d="M53 24.98h3.14v3.14H53zm6.29 0h3.14v3.14h-3.14zm6.28 0h3.14v3.14h-3.14zm6.29 0H75v3.14h-3.14zm-15.72 3.14h3.14v3.14h-3.14zm6.29 0h3.14v3.14h-3.14zm6.28 0h3.14v3.14h-3.14z"/><circle cx="28.75" cy="85.12" r="8.12" fill="#FFEE58"/><circle cx="28.75" cy="85.12" r="9.12" fill="none" stroke="#424242" stroke-miterlimit="10" stroke-width="2" opacity=".2"/><circle cx="98.75" cy="85.12" r="8.12" fill="#FFEE58"/><circle cx="98.75" cy="85.12" r="9.12" fill="none" stroke="#424242" stroke-miterlimit="10" stroke-width="2" opacity=".2"/><path fill="#eee" d="M24.15 107.93c1.79 0 3.25 1.46 3.25 3.25v7.75c0 1.79-1.46 3.25-3.25 3.25h-5.24c-1.79 0-3.25-1.46-3.25-3.25v-7.75c0-1.79 1.46-3.25 3.25-3.25h5.24m0-2h-5.24c-2.89 0-5.25 2.36-5.25 5.25v7.75c0 2.89 2.36 5.25 5.25 5.25h5.24c2.89 0 5.25-2.36 5.25-5.25v-7.75c0-2.88-2.37-5.25-5.25-5.25zm85.11 2c1.79 0 3.25 1.46 3.25 3.25v7.75c0 1.79-1.46 3.25-3.25 3.25h-5.5c-1.79 0-3.25-1.46-3.25-3.25v-7.75c0-1.79 1.46-3.25 3.25-3.25h5.5m0-2h-5.5c-2.89 0-5.25 2.36-5.25 5.25v7.75c0 2.89 2.36 5.25 5.25 5.25h5.5c2.89 0 5.25-2.36 5.25-5.25v-7.75c0-2.88-2.36-5.25-5.25-5.25z" opacity=".2"/><path fill="#546E7A" d="M96.43 69.95c1.89.17 3.4-1.45 3.01-3.22L95.26 47.8c-.81-3.23-7.96-7.81-30.84-7.81s-30.2 4.95-30.93 7.81l-4.18 18.94c-.39 1.77 1.12 3.39 3.01 3.22 4.77-.44 14.52-1.05 32.05-1.05s27.29.6 32.06 1.04z"/><path fill="#424242" d="M64.42 42c22.31 0 28.39 4.5 28.87 6.26l4.17 18.9c.04.17 0 .34-.12.48-.07.09-.27.29-.64.29h-.09c-5.21-.48-15.04-1.06-32.24-1.06s-27.03.58-32.24 1.06h-.09c-.37 0-.57-.2-.64-.29-.12-.15-.16-.31-.12-.48l4.17-18.89c.4-1.36 6.38-6.27 28.97-6.27m0-2.02c-22.87 0-30.2 4.95-30.93 7.81l-4.18 18.94c-.37 1.68.98 3.23 2.73 3.23.09 0 .18 0 .28-.01 4.77-.44 14.52-1.05 32.05-1.05s27.28.61 32.05 1.05c.09.01.19.01.28.01 1.75 0 3.1-1.55 2.73-3.23L95.26 47.8c-.81-3.24-7.96-7.82-30.84-7.82z" opacity=".2"/><path fill="#F9A825" d="M113.87 115.39a993.646 993.646 0 0 1-99.75 0c-2.67-.15-4.72-2.44-4.55-5.07.04-.71.07-1.07.11-1.78a4.82 4.82 0 0 1 5.09-4.49c32.86 1.64 65.59 1.64 98.45 0 2.63-.15 4.92 1.86 5.09 4.49.04.71.07 1.07.11 1.78.17 2.63-1.88 4.92-4.55 5.07z"/><path fill="#FBC02D" d="M26.88 102.25H22c-1.31 0-2.37-1.07-2.37-2.38s1.07-2.38 2.37-2.38h4.88c1.31 0 2.37 1.07 2.37 2.38s-1.07 2.38-2.37 2.38zm79.12 0h-4.88c-1.31 0-2.38-1.07-2.38-2.38s1.07-2.38 2.38-2.38H106c1.31 0 2.38 1.07 2.38 2.38s-1.07 2.38-2.38 2.38z"/><path fill="#424242" d="M113.5 107.03c.94 0 1.76.76 1.82 1.69l.11 1.78c.03.46-.13.91-.45 1.27-.33.37-.79.59-1.26.62-16.52.83-33.25 1.25-49.72 1.25s-33.2-.42-49.7-1.25c-.5-.03-.95-.25-1.28-.62-.32-.36-.48-.81-.45-1.27l.11-1.78c.06-.93.87-1.69 1.82-1.69h.13c16.4.82 33.01 1.24 49.37 1.24s32.97-.42 49.4-1.24h.1m0-3c-.09 0-.18 0-.28.01-16.43.82-32.82 1.23-49.22 1.23-16.39 0-32.79-.41-49.22-1.23-.09-.01-.19-.01-.28-.01-2.51 0-4.65 1.97-4.81 4.5-.04.71-.07 1.07-.11 1.78-.17 2.63 1.88 4.92 4.55 5.07 16.65.83 33.26 1.25 49.87 1.25s33.23-.42 49.87-1.25c2.67-.15 4.72-2.44 4.55-5.07-.04-.71-.07-1.07-.11-1.78-.16-2.54-2.29-4.5-4.81-4.5z" opacity=".2"/></svg>