<svg xmlns="http://www.w3.org/2000/svg" viewBox="0 0 128 128"><linearGradient id="a" x1="64.039" x2="64.039" y1="39" y2="101.26" gradientUnits="userSpaceOnUse"><stop offset=".007" stop-color="#FFF8E1"/><stop offset=".177" stop-color="#FFF6DA"/><stop offset=".416" stop-color="#FFF2C8"/><stop offset=".696" stop-color="#FFEAAA"/><stop offset=".995" stop-color="#FFE082"/></linearGradient><path fill="url(#a)" d="M124.19 53.28c0-5.11-4.18-9.28-9.28-9.28H17.33c-5.11 0-9.28 4.18-9.28 9.28L3.88 91.5h120.31V53.28z"/><path fill="#66BB6A" d="M3.88 91.5v11.22c0 5.11 4.18 9.28 9.28 9.28H114.9c5.11 0 9.28-4.18 9.28-9.28V91.5H3.88z"/><path fill="#424242" d="m18.41 47 97.5.5c3.45 0 5.49 2.12 5.49 5.51L121 91.5v10.79c0 3.84-3.32 6.64-5.1 6.64l-101.74.11c-6.05 0-7.3-3.81-7.3-6.99l.04-10.63 4.13-38.09.02-.1c.37-5.15 4.21-6.23 7.36-6.23m.01-3c-5.62 0-9.92 2.92-10.36 9L3.91 91.25l-.03 10.79c0 5.11 2.82 10 10.32 10l101.69-.11c3.58 0 8.1-4.27 8.1-9.64V91.5l.4-38.47c0-5.11-3.44-8.53-8.54-8.53L18.42 44z" opacity=".2"/><path fill="#546E7A" d="M29.9 75.34H15.31c-1.65 0-2.85-1.31-2.67-2.92l1.75-15.51c.18-1.61 1.67-2.92 3.33-2.92h12.93c1.65 0 2.85 1.31 2.67 2.92l-.1 15.51c-.18 1.62-1.67 2.92-3.32 2.92z"/><linearGradient id="b" x1="80.097" x2="80.097" y1="29.333" y2="90.334" gradientUnits="userSpaceOnUse"><stop offset=".005" stop-color="#BCAAA4"/><stop offset=".392" stop-color="#AC958E"/><stop offset=".999" stop-color="#8D6E63"/></linearGradient><path fill="url(#b)" d="M124.19 91.65H36v-59.3c0-2.21 1.79-4 4-4h80.19c2.21 0 4 1.79 4 4v59.3z"/><path fill="#424242" d="M30.65 56c.24 0 .43.07.55.21.11.12.15.28.13.48-.01.07-.01.14-.01.21l-.1 15.38c-.11.57-.72 1.06-1.33 1.06H15.31c-.24 0-.43-.07-.55-.21-.11-.12-.15-.28-.13-.48l1.75-15.51c.07-.6.71-1.14 1.34-1.14h12.93m0-2H17.72c-1.65 0-3.14 1.31-3.33 2.92l-1.75 15.51c-.18 1.61 1.01 2.92 2.67 2.92H29.9c1.65 0 3.14-1.31 3.33-2.92l.1-15.51c.17-1.61-1.02-2.92-2.68-2.92z" opacity=".2"/><path fill="#6D4C41" d="M76.33 28.35h11.29V52H76.33zm0 40.49h11.29v22.81H76.33z"/><path fill="#424242" d="M120.19 31.35c.55 0 1 .45 1 1v56.3H39v-56.3c0-.55.45-1 1-1h80.19m0-3H40c-2.21 0-4 1.79-4 4v59.3h88.19v-59.3c0-2.21-1.79-4-4-4z" opacity=".2"/><circle cx="30" cy="110" r="14" fill="#4E342E"/><path fill="#eee" d="M30 98c6.62 0 12 5.38 12 12s-5.38 12-12 12-12-5.38-12-12 5.38-12 12-12m0-2c-7.73 0-14 6.27-14 14s6.27 14 14 14 14-6.27 14-14-6.27-14-14-14z" opacity=".2"/><circle cx="30" cy="110" r="6" fill="#BDBDBD"/><circle cx="102" cy="110" r="14" fill="#4E342E"/><path fill="#eee" d="M102 98c6.62 0 12 5.38 12 12s-5.38 12-12 12-12-5.38-12-12 5.38-12 12-12m0-2c-7.73 0-14 6.27-14 14s6.27 14 14 14 14-6.27 14-14-6.27-14-14-14z" opacity=".2"/><circle cx="102" cy="110" r="6" fill="#BDBDBD"/></svg>