<svg xmlns="http://www.w3.org/2000/svg" style="enable-background:new 0 0 128 128" viewBox="0 0 128 128" xml:space="preserve"><linearGradient id="a" x1="64.1" x2="64.1" y1="839.12" y2="786.515" gradientTransform="translate(0 -714)" gradientUnits="userSpaceOnUse"><stop offset=".285" style="stop-color:#bdbdbd"/><stop offset=".496" style="stop-color:#d6d6d6"/><stop offset=".71" style="stop-color:#e8e8e8"/><stop offset=".863" style="stop-color:#eee"/></linearGradient><path d="M124.2 86.8V111c0 2.8-2.5 4.9-7.9 4.9H13.5c-6.1.1-9.5-1.3-9.5-9.6v-2c.1-13.8 8.5-15.9 19.3-18.3 9.9-2.2 14.9-8.4 18.8-11.1 9.8-6.9 17-11.6 37.2-11.6 23.6 0 33.2 17.2 37.8 17.6 5 .5 6.9 2.8 7.1 5.9z" style="fill:url(#a)"/><path d="M107.6 83.5c-4.1-7.7-11.4-14.5-29-14.5s-31 6.6-40 16.1C36.8 87 38.9 90 42 90h61.9c3.4 0 4.9-4.2 3.7-6.5z" style="fill:#546e7a"/><path d="m124.2 96.5-5.2-7.4c-1.4-1.9.8-2.2 1.7-2.2h3.6l-.1 9.6z" style="fill:#f44336"/><path d="M16.2 98.4c-1.1 2-2.5 3.1-7.9 3.1H4.2c.3-2.7.9-4.9 1.9-6.6h6.1c6.7 0 4 3.5 4 3.5z" style="fill:#ffeb3b"/><path d="M107.6 83.5c-4.1-7.7-11.4-14.5-29-14.5s-31 6.6-40 16.1C36.8 87 38.9 90 42 90h61.9c3.4 0 4.9-4.2 3.7-6.5zm-66.4 3.3C47.8 79.9 59.6 72 78.6 72c2.3 0 4.5.1 6.4.4V87H42c-.4 0-.6-.1-.8-.2zm63.5-.3c-.3.5-.7.5-.8.5H88V72.8c10.2 2 14.4 7.3 16.9 12.1.1.2.1.9-.2 1.6z" style="opacity:.2;fill:#424242;enable-background:new"/><linearGradient id="b" x1="42.35" x2="42.35" y1="796.828" y2="811.48" gradientTransform="translate(0 -714)" gradientUnits="userSpaceOnUse"><stop offset="0" style="stop-color:#fafafa"/><stop offset=".166" style="stop-color:#eaeaea"/><stop offset=".487" style="stop-color:#c2c2c2"/><stop offset=".93" style="stop-color:gray"/><stop offset="1" style="stop-color:#757575"/></linearGradient><path d="M45.2 92h-5.7c-2 0-3.7-1.7-3.7-3.7v-1.1c0-2 9.4-3.7 9.4-3.7 2-.4 3.7 1.7 3.7 3.7v1.1c0 2-1.7 3.7-3.7 3.7z" style="fill:url(#b)"/><g style="opacity:.2"><path d="M79.3 66.3c15.6 0 24.4 7.8 30.3 13 3 2.6 4.9 4.3 7.2 4.6 4.2.4 4.3 2 4.4 3V111c0 1.4-2.7 1.9-4.9 1.9H13.1c-2.5 0-4-.3-4.8-1-.9-.8-1.4-2.7-1.4-5.6v-2c.2-11.1 6-12.9 17.1-15.3 8.3-1.8 13.4-6.2 17.1-9.4 1-.9 1.9-1.7 2.7-2.2 9.1-6.5 15.7-11.1 35.5-11.1m0-3c-20.2 0-27.4 4.7-37.2 11.6-3.8 2.7-8.9 8.9-18.8 11.1C12.5 88.4 4.1 90.5 4 104.3v2c0 8.2 3.3 9.6 9.1 9.6h103.1c5.4 0 7.9-2 7.9-4.9V86.8c-.2-3.2-2.1-5.4-7.1-5.9-4.5-.4-14.1-17.6-37.7-17.6z" style="fill:#424242"/></g><g style="opacity:.2"><path d="M45.7 85.5c.5 0 1.2.8 1.2 1.7v1.1c0 .9-.8 1.7-1.7 1.7h-5.7c-.9 0-1.7-.8-1.7-1.7v-.5c1.1-.7 4.4-1.7 7.7-2.3h.2m0-2c-.2 0-.3 0-.5.1 0 0-9.4 1.7-9.4 3.7v1.1c0 2 1.7 3.7 3.7 3.7h5.7c2 0 3.7-1.7 3.7-3.7v-1.1c0-1.9-1.4-3.8-3.2-3.8z" style="fill:#424242"/></g><circle cx="31.7" cy="114" r="10" style="fill:#4e342e"/><g style="opacity:.2"><path d="M31.7 105c5 0 9 4 9 9s-4 9-9 9-9-4-9-9 4.1-9 9-9m0-1c-5.5 0-10 4.5-10 10s4.5 10 10 10 10-4.5 10-10-4.4-10-10-10z" style="fill:#eee"/></g><circle cx="31.7" cy="114" r="5.7" style="fill:#bdbdbd"/><circle cx="102.8" cy="114" r="10" style="fill:#4e342e"/><g style="opacity:.2"><path d="M102.8 105c5 0 9 4 9 9s-4 9-9 9-9-4-9-9 4.1-9 9-9m0-1c-5.5 0-10 4.5-10 10s4.5 10 10 10 10-4.5 10-10-4.4-10-10-10z" style="fill:#eee"/></g><circle cx="102.8" cy="114" r="5.7" style="fill:#bdbdbd"/></svg>