<svg xmlns="http://www.w3.org/2000/svg" viewBox="0 0 128 128"><path fill="#455A64" d="M4 12h120v12H4z"/><path fill="#E0E0E0" d="M6.01 16H124v4.05H6.01z"/><path fill="#eee" d="M122 14v8H6v-8h116m2-2H4v12h120V12z" opacity=".2"/><path fill="#90A4AE" d="M60.75 20c3.25 0 5.92-2.75 5.92-6S64 8 60.75 8H40.42c-3.25 0-5.92 2.75-5.92 6s2.66 6 5.92 6H47v12h-2.38l-1.25 4h-4.29c-1.52 0-2.75 1.48-2.75 3s1.23 3 2.75 3h23c1.52 0 2.75-1.48 2.75-3s-1.23-3-2.75-3h-3.95l-1.26-4H55V20h5.75zm51.46 0c3.25 0 5.92-2.75 5.92-6s-2.66-6-5.92-6H91.88c-3.25 0-5.92 2.75-5.92 6s2.66 6 5.92 6H98v12h-1.92l-1.25 4h-4.29c-1.52 0-2.75 1.48-2.75 3s1.23 3 2.75 3h23c1.52 0 2.75-1.48 2.75-3s-1.23-3-2.75-3h-3.95l-1.26-4H106V20h6.21z"/><path fill="#424242" d="M60.88 10c2.12 0 3.85 1.83 3.85 4s-1.86 4-3.98 4H55c-1.1 0-2 .9-2 2v12c0 1.1.9 2 2 2h.41l.82 2.6c.26.83 1.03 1.4 1.91 1.4h3.95c.32 0 .75.49.75 1s-.43 1-.75 1h-23c-.32 0-.75-.49-.75-1s.43-1 .75-1h4.29c.87 0 1.65-.57 1.91-1.4l.81-2.6h.9c1.1 0 2-.9 2-2V20c0-1.1-.9-2-2-2h-6.58c-2.12 0-3.92-1.83-3.92-4s1.79-4 3.92-4H61m-.25-2H40.42c-3.25 0-5.92 2.75-5.92 6s2.66 6 5.92 6H47v12h-2.38l-1.25 4h-4.29c-1.52 0-2.75 1.48-2.75 3s1.23 3 2.75 3h23c1.52 0 2.75-1.48 2.75-3s-1.23-3-2.75-3h-3.95l-1.26-4H55V20h5.75c3.25 0 5.92-2.75 5.92-6S64 8 60.75 8zm51.35 2c2.12 0 3.97 1.83 3.97 4s-1.74 4-3.86 4H106c-1.1 0-2 .9-2 2v12c0 1.1.9 2 2 2h.87l.82 2.6c.26.83 1.03 1.4 1.91 1.4h3.95c.32 0 .75.49.75 1s-.43 1-.75 1h-23c-.32 0-.75-.49-.75-1s.43-1 .75-1h4.29c.87 0 1.65-.57 1.91-1.4l.81-2.6H98c1.1 0 2-.9 2-2V20c0-1.1-.9-2-2-2h-6.12c-2.12 0-3.92-1.83-3.92-4s1.79-4 3.92-4H112m.21-2H91.88c-3.25 0-5.92 2.75-5.92 6s2.66 6 5.92 6H98v12h-1.92l-1.25 4h-4.29c-1.52 0-2.75 1.48-2.75 3s1.23 3 2.75 3h23c1.52 0 2.75-1.48 2.75-3s-1.23-3-2.75-3h-3.95l-1.26-4H106V20h6.21c3.25 0 5.92-2.75 5.92-6s-2.67-6-5.92-6z" opacity=".2"/><linearGradient id="a" x1="68.242" x2="68.242" y1="42.75" y2="104" gradientUnits="userSpaceOnUse"><stop offset=".114" stop-color="#EF5350"/><stop offset=".627" stop-color="#DB3938"/><stop offset=".945" stop-color="#D32F2F"/></linearGradient><path fill="url(#a)" d="M124 40H27.97c-4.39 0-7.98 3.6-7.98 8l-7.5 56.33H124V40z"/><path fill="#E0E0E0" d="M124 104.33H12.48l-.48 3.64c0 4.4 3.59 8 7.98 8H124v-11.64z"/><path fill="#424242" d="M124 113H19.98c-2.78 0-4.89-1.96-4.98-4.57l.45-3.64 7.5-56.58c.02-.13.03-.27.03-.4 0-2.69 2.19-4.8 4.98-4.8H124v-3H27.96c-4.39 0-7.98 3.37-7.98 7.8l-7.5 56.58-.48 3.87c0 4.43 3.59 7.74 7.98 7.74H124v-3z" opacity=".2"/><path fill="#4FC3F7" d="M112 92H96.61c-2.2 0-4-1.8-4-4V56c0-2.2 1.8-4 4-4H112c2.2 0 4 1.8 4 4v32c0 2.2-1.8 4-4 4zm-31.19 0h-15.4c-2.2 0-4-1.8-4-4V56c0-2.2 1.8-4 4-4H80.8c2.2 0 4 1.8 4 4v32c.01 2.2-1.79 4-3.99 4zm-31.44 0h-19.6c-2.07 0-3.54-1.64-3.27-3.64L31 55.64c.27-2 2.19-3.64 4.27-3.64h15.06c2.07 0 3.54 1.64 3.27 3.64l.03 32.73c-.27 1.99-2.19 3.63-4.26 3.63z"/><path fill="none" d="M112 92H96.61c-2.2 0-4-1.8-4-4V56c0-2.2 1.8-4 4-4H112c2.2 0 4 1.8 4 4v32c0 2.2-1.8 4-4 4zm-31.19 0h-15.4c-2.2 0-4-1.8-4-4V56c0-2.2 1.8-4 4-4H80.8c2.2 0 4 1.8 4 4v32c.01 2.2-1.79 4-3.99 4zm-31.44 0h-19.6c-2.07 0-3.54-1.64-3.27-3.64L31 55.64c.27-2 2.19-3.64 4.27-3.64h15.06c2.07 0 3.54 1.64 3.27 3.64l.03 32.73c-.27 1.99-2.19 3.63-4.26 3.63z"/><path fill="#424242" d="M112 55c.54 0 1 .46 1 1v32c0 .54-.46 1-1 1H96.61c-.54 0-1-.46-1-1V56c0-.54.46-1 1-1H112m0-3H96.61c-2.2 0-4 1.8-4 4v32c0 2.2 1.8 4 4 4H112c2.2 0 4-1.8 4-4V56c0-2.2-1.8-4-4-4zm-31.19 3c.54 0 1 .46 1 1v32c0 .54-.46 1-1 1h-15.4c-.54 0-1-.46-1-1V56c0-.54.46-1 1-1h15.4m0-3h-15.4c-2.2 0-4 1.8-4 4v32c0 2.2 1.8 4 4 4H80.8c2.2 0 4-1.8 4-4V56c.01-2.2-1.79-4-3.99-4zm-30.48 3c.17 0 .26.05.28.07s.02.08.01.15c-.02.14-.03.27-.03.41l.03 32.44c-.14.44-.7.92-1.27.92H29.77c-.17 0-.26-.05-.28-.07s-.02-.08-.01-.15l4.49-32.73c.06-.47.67-1.04 1.29-1.04h15.07m0-3H35.27c-2.07 0-3.99 1.64-4.27 3.64l-4.49 32.73c-.27 2 1.2 3.64 3.27 3.64h19.59c2.07 0 3.99-1.64 4.27-3.64l-.04-32.73c.27-2-1.2-3.64-3.27-3.64z" opacity=".2"/></svg>