<svg xmlns="http://www.w3.org/2000/svg" style="enable-background:new 0 0 128 128" viewBox="0 0 128 128" xml:space="preserve"><linearGradient id="a" x1="108.54" x2="108.54" y1="122.883" y2="76.558" gradientUnits="userSpaceOnUse"><stop offset=".356" style="stop-color:#bfbebe"/><stop offset="1" style="stop-color:#504f4f"/></linearGradient><path d="M112.51 124h-7.94c-1.66 0-3-1.34-3-3V77.27h13.94V121c0 1.66-1.34 3-3 3z" style="fill:url(#a)"/><linearGradient id="b" x1="20.27" x2="20.27" y1="122.883" y2="76.558" gradientUnits="userSpaceOnUse"><stop offset=".356" style="stop-color:#bfbebe"/><stop offset="1" style="stop-color:#504f4f"/></linearGradient><path d="M24.24 124H16.3c-1.66 0-3-1.34-3-3V77.27h13.94V121c0 1.66-1.34 3-3 3z" style="fill:url(#b)"/><linearGradient id="c" x1="64" x2="64" y1="88.808" y2="46.98" gradientTransform="matrix(1 0 0 -1 0 128)" gradientUnits="userSpaceOnUse"><stop offset=".026" style="stop-color:#ffee58"/><stop offset=".487" style="stop-color:#fdd642"/><stop offset="1" style="stop-color:#fbc02d"/></linearGradient><path d="M120 82.17H8c-2.21 0-4-1.79-4-4V44.63c0-2.21 1.79-4 4-4h112c2.21 0 4 1.79 4 4v33.54c0 2.21-1.79 4-4 4z" style="fill:url(#c)"/><radialGradient id="d" cx="20.35" cy="31.4" r="9.04" gradientUnits="userSpaceOnUse"><stop offset=".571" style="stop-color:#f44336"/><stop offset=".999" style="stop-color:#e12400"/></radialGradient><circle cx="20.35" cy="31.4" r="9.04" style="fill:url(#d)"/><radialGradient id="e" cx="108.54" cy="31.4" r="9.04" gradientUnits="userSpaceOnUse"><stop offset=".571" style="stop-color:#f44336"/><stop offset=".999" style="stop-color:#e12400"/></radialGradient><circle cx="108.54" cy="31.4" r="9.04" style="fill:url(#e)"/><path d="M12.1 40.63 4 54.66V44.63c0-2.21 1.79-4 4-4h4.1zm36.44 0L24.55 82.17H8c-.45 0-.88-.08-1.29-.22l23.86-41.32h17.97zm36.44 0L60.99 82.17H43.02l23.99-41.54zm36.31.22L97.43 82.17H79.46l23.99-41.54H120c.45 0 .88.08 1.29.22zM124 68.14v10.03c0 2.21-1.79 4-4 4h-4.1l8.1-14.03z"/><linearGradient id="f" x1="4" x2="124" y1="61.4" y2="61.4" gradientUnits="userSpaceOnUse"><stop offset=".001" style="stop-color:#bfbebe"/><stop offset=".05" style="stop-color:#212121;stop-opacity:0"/><stop offset=".95" style="stop-color:#212121;stop-opacity:0"/><stop offset="1" style="stop-color:#bfbebe"/></linearGradient><path d="M124 44.63v33.54c0 2.21-1.79 4-4 4H8c-.45 0-.88-.08-1.29-.22A3.979 3.979 0 0 1 4 78.17V44.63c0-2.21 1.79-4 4-4h112c.45 0 .88.08 1.29.22 1.58.53 2.71 2.02 2.71 3.78z" style="opacity:.2;fill:url(#f)"/><linearGradient id="g" x1="64" x2="64" y1="41.995" y2="81.428" gradientTransform="matrix(1 0 0 -1 0 122.8)" gradientUnits="userSpaceOnUse"><stop offset=".001" style="stop-color:#bfbebe"/><stop offset=".3" style="stop-color:#212121;stop-opacity:0"/><stop offset=".85" style="stop-color:#212121;stop-opacity:0"/><stop offset="1" style="stop-color:#bfbebe"/></linearGradient><path d="M124 78.17V44.63c0-2.21-1.79-4-4-4H8c-.45 0-.88.08-1.29.22A3.979 3.979 0 0 0 4 44.63v33.54c0 2.21 1.79 4 4 4h112c.45 0 .88-.08 1.29-.22a3.979 3.979 0 0 0 2.71-3.78z" style="opacity:.3;fill:url(#g)"/></svg>