<svg xmlns="http://www.w3.org/2000/svg" viewBox="0 0 128 128"><linearGradient id="a" x1="64" x2="64" y1="8.25" y2="120.13" gradientUnits="userSpaceOnUse"><stop offset="0" stop-color="#616161"/><stop offset=".305" stop-color="#515151"/><stop offset=".896" stop-color="#292929"/><stop offset="1" stop-color="#212121"/></linearGradient><circle cx="64" cy="64" r="56" fill="url(#a)"/><g fill="#424242" opacity=".2"><path d="M41.75 64c.27 0 .55.1.76.31l2.53 2.53c.42.42.42 1.1 0 1.52l-2.53 2.53c-.21.21-.48.31-.76.31s-.55-.1-.76-.31l-2.53-2.53c-.42-.42-.42-1.1 0-1.52l2.53-2.53c.21-.21.48-.31.76-.31m0-3c-1.09 0-2.11.42-2.88 1.19l-2.53 2.53a4.074 4.074 0 0 0 0 5.76l2.53 2.53c.77.77 1.79 1.19 2.88 1.19s2.11-.42 2.88-1.19l2.53-2.53a4.074 4.074 0 0 0 0-5.76l-2.53-2.53A4.038 4.038 0 0 0 41.75 61z"/><path d="M45.28 75.43c.27 0 .55.1.76.31l2.53 2.53c.42.42.42 1.1 0 1.52l-2.53 2.53c-.21.21-.48.31-.76.31s-.55-.1-.76-.31l-2.53-2.53c-.42-.42-.42-1.1 0-1.52l2.53-2.53c.21-.21.48-.31.76-.31m0-3c-1.09 0-2.11.42-2.88 1.19l-2.53 2.53a4.074 4.074 0 0 0 0 5.76l2.53 2.53c.77.77 1.79 1.19 2.88 1.19s2.11-.42 2.88-1.19l2.53-2.53a4.074 4.074 0 0 0 0-5.76l-2.53-2.53a4.038 4.038 0 0 0-2.88-1.19zM39.6 86.85c.27 0 .55.1.76.31l2.53 2.53c.42.42.42 1.1 0 1.52l-2.53 2.53c-.21.21-.48.31-.76.31-.27 0-.55-.1-.76-.31l-2.53-2.53c-.42-.42-.42-1.1 0-1.52l2.53-2.53c.21-.2.49-.31.76-.31m0-3c-1.09 0-2.11.42-2.88 1.19l-2.53 2.53a4.074 4.074 0 0 0 0 5.76l2.53 2.53c.77.77 1.79 1.19 2.88 1.19s2.11-.42 2.88-1.19l2.53-2.53c.77-.77 1.19-1.79 1.19-2.88s-.42-2.11-1.19-2.88l-2.53-2.53a4.038 4.038 0 0 0-2.88-1.19zM71.56 26a8.12 8.12 0 0 1 8.12 8.12A8.12 8.12 0 1 1 71.56 26m0-3c-6.13 0-11.12 4.99-11.12 11.12s4.99 11.12 11.12 11.12 11.12-4.99 11.12-11.12S77.7 23 71.56 23z"/><path d="M73.21 43.88c5.74 0 9.83 1.62 11.59 5.32l7.71 21.75c.52 1.5-.13 3.23-1.6 3.84a2.942 2.942 0 0 1-3.89-1.74l-5.79-17.06a.359.359 0 0 0-.34-.24c-.19 0-.37.13-.37.37v44.23c0 2.02-1.64 3.67-3.67 3.67-.12 0-.24-.01-.36-.02-1.91-.18-3.31-1.89-3.31-3.81V73.71c0-.81-.66-1.47-1.47-1.47s-1.47.66-1.47 1.47v26.63c0 2.02-1.64 3.67-3.67 3.67-.12 0-.24-.01-.36-.02-1.91-.18-3.31-1.89-3.31-3.81V56.23a.369.369 0 0 0-.63-.26l-4.97 5.1c-.55.57-1.31.89-2.1.89H41.99c-1.71 0-3.09-1.47-2.92-3.22.15-1.52 1.51-2.64 3.04-2.64H52.3c.76 0 1.48-.29 2.03-.82l8.31-7.74c1.94-2.17 5.94-3.66 10.57-3.66m0-3c-5.35 0-10.08 1.7-12.71 4.56l-8.22 7.65-.01.01H42.12c-3.1 0-5.74 2.35-6.03 5.36-.16 1.67.39 3.33 1.51 4.56s2.72 1.94 4.39 1.94h13.24c1.59 0 3.14-.65 4.25-1.79l.45-.46v37.47c0 3.49 2.64 6.47 6.02 6.79a6.662 6.662 0 0 0 5.8-2.42c1.09 1.34 2.67 2.25 4.46 2.42a6.675 6.675 0 0 0 7.31-6.64V72.06l.67 1.94c.84 2.4 3.09 4 5.61 4 .77 0 1.53-.15 2.25-.45 2.92-1.2 4.36-4.54 3.29-7.6L87.63 48.2l-.05-.15-.07-.14c-2.22-4.67-7.03-7.03-14.3-7.03z"/></g><g fill="#FAFAFA"><path d="m40.99 70.89-2.53-2.53c-.42-.42-.42-1.1 0-1.52l2.53-2.53c.42-.42 1.1-.42 1.52 0l2.53 2.53c.42.42.42 1.1 0 1.52l-2.53 2.53c-.42.42-1.1.42-1.52 0zm7.58 8.9-2.53 2.53c-.42.42-1.1.42-1.52 0l-2.53-2.53c-.42-.42-.42-1.1 0-1.52l2.53-2.53c.42-.42 1.1-.42 1.52 0l2.53 2.53c.42.42.42 1.1 0 1.52zm-5.68 11.42-2.53 2.53c-.42.42-1.1.42-1.52 0l-2.53-2.53c-.42-.42-.42-1.1 0-1.52l2.53-2.53c.42-.42 1.1-.42 1.52 0l2.53 2.53c.42.42.42 1.1 0 1.52z"/><circle cx="71.56" cy="34.12" r="8.12"/><path d="M92.51 70.95 84.8 49.2c-1.76-3.7-5.85-5.32-11.59-5.32-4.64 0-8.64 1.49-10.57 3.67l-8.31 7.74c-.55.52-1.27.82-2.03.82H42.12c-1.53 0-2.9 1.12-3.04 2.64A2.928 2.928 0 0 0 42 61.97h13.24c.79 0 1.55-.32 2.1-.89l4.97-5.1c.23-.24.63-.07.63.26v43.95c0 1.91 1.4 3.62 3.31 3.81 2.19.21 4.03-1.5 4.03-3.65V73.7c0-.81.66-1.47 1.47-1.47s1.47.66 1.47 1.47v26.48c0 1.91 1.4 3.62 3.31 3.81 2.19.21 4.03-1.5 4.03-3.65V56.11c0-.41.56-.51.71-.13l5.79 17.06a2.921 2.921 0 0 0 3.88 1.74c1.44-.6 2.09-2.33 1.57-3.83z"/></g><path fill="#424242" d="M64 17c25.92 0 47 21.08 47 47s-21.08 47-47 47-47-21.08-47-47 21.08-47 47-47m0-3c-27.61 0-50 22.39-50 50s22.39 50 50 50 50-22.39 50-50-22.39-50-50-50z" opacity=".2"/><linearGradient id="b" x1="64" x2="64" y1="4" y2="124.13" gradientUnits="userSpaceOnUse"><stop offset="0" stop-color="#FF5252"/><stop offset=".324" stop-color="#F33B3B"/><stop offset="1" stop-color="#D50000"/></linearGradient><path fill="url(#b)" d="M64 4C30.86 4 4 30.86 4 64s26.86 60 60 60 60-26.86 60-60S97.14 4 64 4zm50 60c0 11.99-4.24 23-11.3 31.62L32.38 25.3C41 18.24 52.01 14 64 14c27.57 0 50 22.43 50 50zM14 64c0-11.99 4.24-23 11.3-31.62l70.32 70.32C87 109.76 75.99 114 64 114c-27.57 0-50-22.43-50-50z"/><path fill="#424242" d="M64 7c31.43 0 57 25.57 57 57s-25.57 57-57 57S7 95.43 7 64 32.57 7 64 7m0-3C30.86 4 4 30.86 4 64s26.86 60 60 60 60-26.86 60-60S97.14 4 64 4z" opacity=".2"/></svg>