<svg xmlns="http://www.w3.org/2000/svg" viewBox="0 0 128 128"><linearGradient id="a" x1="20" x2="111.95" y1="757.79" y2="757.79" gradientTransform="translate(0 -713.89)" gradientUnits="userSpaceOnUse"><stop offset="0" stop-color="#d32f2f"/><stop offset="1" stop-color="#f44336"/></linearGradient><path fill="url(#a)" d="M108.8 39.1L20 4v79.8l88.8-35.1c4.2-1.8 4.2-7.8 0-9.6z"/><path fill="#424242" d="M23 8.4l84.6 33.4c1.2.5 1.3 1.6 1.3 2s-.1 1.5-1.3 2L23 79.3V8.4M20 4v79.8l88.8-35.1c4.2-1.8 4.2-7.8 0-9.6L20 4z" opacity=".2"/><path fill="#edc970" d="M21.9 124h-3.7c-1.2 0-2.1-1-2.1-2.1V8c0-2.2 1.8-4 4-4s4 1.8 4 4v113.9c-.1 1.2-1 2.1-2.2 2.1z"/><path fill="#424242" d="M20 6c1.1 0 2 .9 2 2v113.9c0 .1-.1.1-.1.1h-3.7c-.1 0-.1-.1-.1-.1V8c-.1-1.1.8-2 1.9-2m0-2c-2.2 0-4 1.8-4 4v113.9c0 1.2 1 2.1 2.1 2.1h3.7c1.2 0 2.1-1 2.1-2.1V8c.1-2.2-1.7-4-3.9-4z" opacity=".2"/></svg>