<svg xmlns="http://www.w3.org/2000/svg" viewBox="0 0 128 128"><linearGradient id="a" x1="64" x2="64" y1="4.25" y2="124.41" gradientUnits="userSpaceOnUse"><stop offset="0" stop-color="#82B1FF"/><stop offset=".264" stop-color="#6FA0FF"/><stop offset=".799" stop-color="#3D74FF"/><stop offset="1" stop-color="#2962FF"/></linearGradient><path fill="url(#a)" d="M116 124H12c-4.42 0-8-3.58-8-8V12c0-4.42 3.58-8 8-8h104c4.42 0 8 3.58 8 8v104c0 4.42-3.58 8-8 8z"/><path fill="#424242" d="M116 7c2.76 0 5 2.24 5 5v104c0 2.76-2.24 5-5 5H12c-2.76 0-5-2.24-5-5V12c0-2.76 2.24-5 5-5h104m0-3H12c-4.42 0-8 3.58-8 8v104c0 4.42 3.58 8 8 8h104c4.42 0 8-3.58 8-8V12c0-4.42-3.58-8-8-8z" opacity=".2"/><g fill="#424242" opacity=".2"><path d="M64.12 16c5.52 0 10 4.48 10 10s-4.48 10-10 10-10-4.48-10-10 4.48-10 10-10m0-3c-7.17 0-13 5.83-13 13s5.83 13 13 13 13-5.83 13-13-5.83-13-13-13z"/><path d="M63.92 38c7.05 0 12.92 2.83 14.18 6.56l9.64 27.01c.65 1.87-.33 3.91-2.2 4.57a3.584 3.584 0 0 1-4.56-2.2l-5.64-17.59a.273.273 0 0 0-.26-.2c-.14 0-.28.1-.28.28v5.8l6.58 26.03a1.79 1.79 0 0 1-1.74 2.23h-3.95c-.5 0-.9.4-.9.9v16.13c0 2.47-2.01 4.48-4.48 4.48-.15 0-.29-.01-.44-.02-2.33-.22-4.04-2.31-4.04-4.65V92.28c0-.99-.8-1.79-1.79-1.79s-1.79.8-1.79 1.79v15.24c0 2.47-2.01 4.48-4.48 4.48-.15 0-.29-.01-.44-.02-2.33-.22-4.04-2.31-4.04-4.65V91.39c0-.49-.4-.9-.9-.9h-4c-1.17 0-2.02-1.1-1.74-2.23l6.61-26.13h.02v-5.72c0-.18-.14-.28-.28-.28-.11 0-.22.06-.26.19l-5.73 17.62a3.58 3.58 0 0 1-4.56 2.2 3.588 3.588 0 0 1-2.2-4.57l9.53-27.05C51.04 40.81 56.89 38 63.92 38m0-3c-8.26 0-15.26 3.51-17.01 8.53l-9.52 27.04c-1.2 3.43.61 7.2 4.04 8.4.7.25 1.43.37 2.17.37.8 0 1.58-.15 2.3-.41l-2.17 8.59c-.36 1.44-.05 2.94.86 4.12a4.766 4.766 0 0 0 3.78 1.85h1.89v13.84c0 3.92 2.97 7.28 6.76 7.64.24.02.48.03.73.03 2.65 0 4.98-1.38 6.31-3.46 1.21 1.89 3.21 3.21 5.51 3.43.24.02.48.03.73.03 4.13 0 7.48-3.36 7.48-7.48V93.49h1.84c1.49 0 2.87-.67 3.78-1.85.91-1.17 1.23-2.68.86-4.12l-2.17-8.58a6.54 6.54 0 0 0 4.42.03c1.66-.58 3-1.77 3.76-3.36.76-1.58.86-3.37.28-5.03l-9.64-27.03C79.23 38.53 72.23 35 63.92 35z"/></g><g fill="#fff"><circle cx="64.12" cy="26" r="10"/><path d="M87.74 71.57 78.1 44.56C76.83 40.83 70.97 38 63.92 38c-7.03 0-12.88 2.81-14.17 6.52l-9.53 27.05c-.65 1.87.33 3.91 2.2 4.57 1.87.65 3.91-.33 4.57-2.2l5.73-17.62c.1-.3.55-.23.55.09v5.72h-.02l-6.61 26.13a1.79 1.79 0 0 0 1.74 2.23h4c.49 0 .9.4.9.9v15.94c0 2.34 1.71 4.43 4.04 4.65 2.67.25 4.92-1.84 4.92-4.46V92.28c0-.99.8-1.79 1.79-1.79s1.79.8 1.79 1.79v15.04c0 2.34 1.71 4.43 4.04 4.65 2.67.25 4.92-1.84 4.92-4.46V91.39c0-.49.4-.9.9-.9h3.95c1.17 0 2.02-1.1 1.74-2.23l-6.58-26.03v-5.8c0-.32.45-.39.55-.09l5.64 17.59c.65 1.87 2.7 2.85 4.57 2.2 1.85-.64 2.84-2.69 2.19-4.56z"/></g></svg>