<svg xmlns="http://www.w3.org/2000/svg" viewBox="0 0 128 128"><path fill="#3E2723" d="M16 124h8l4-8v-4.02l-12.02-.03L16 124zm71.98 0h-8c.33 0-3.99-8-3.99-8H76v-4.02l12.01-.03-.03 12.05z"/><path fill="#eee" d="m17.98 113.95 8.02.02v1.52c-2 3.22-2.79 5.21-3.39 6.51H18l-.02-8.05m-2-2.01L16 124h8.01H24c-.33 0 4-8 4-8v-4.02l-12.02-.04zm70.03 2.01-.03 8.05h-4.62c-.59-1.29-1.64-3.28-3.37-6.49v-1.54l8.02-.02m2-2.01-12.01.04V116h-.01s4.32 8 3.99 8h-.01 8.01l.03-12.06z" opacity=".2"/><linearGradient id="a" x1="33.875" x2="33.875" y1="74.333" y2="112.67" gradientUnits="userSpaceOnUse"><stop offset=".381" stop-color="#FF9800"/><stop offset=".724" stop-color="#F57C00"/></linearGradient><path fill="url(#a)" d="M48 110.83H19.75c-2.21 0-4-1.79-4-4V80c0-2.21 1.79-4 4-4H48c2.21 0 4 1.79 4 4v26.83c0 2.21-1.79 4-4 4z"/><linearGradient id="b" x1="69.875" x2="69.875" y1="74.333" y2="112.67" gradientUnits="userSpaceOnUse"><stop offset=".381" stop-color="#FF9800"/><stop offset=".724" stop-color="#F57C00"/></linearGradient><path fill="url(#b)" d="M84 110.73H55.75c-2.21 0-4-1.79-4-4V80c0-2.21 1.79-4 4-4H84c2.21 0 4 1.79 4 4v26.73c0 2.21-1.79 4-4 4z"/><path fill="#424242" d="M48 79c.55 0 1 .45 1 1v28c0 .55-.45 1-1 1H19.75c-.55 0-1-.45-1-1V80c0-.55.45-1 1-1H48m0-3H19.75c-2.21 0-4 1.79-4 4v28c0 2.21 1.79 4 4 4H48c2.21 0 4-1.79 4-4V80c0-2.21-1.79-4-4-4z" opacity=".2"/><path fill="#424242" d="M84 79c.55 0 1 .45 1 1v26.83c0 .55-.45 1-1 1H55.75c-.55 0-1-.45-1-1V80c0-.55.45-1 1-1H84m0-3H55.75c-2.21 0-4 1.79-4 4v26.83c0 2.21 1.79 4 4 4H84c2.21 0 4-1.79 4-4V80c0-2.21-1.79-4-4-4z" opacity=".2"/><path fill="#757575" d="M-98 106.83h-28.25c-2.21 0-4-1.79-4-4V80c0-2.21 1.79-4 4-4H-98c2.21 0 4 1.79 4 4v22.83c0 2.21-1.79 4-4 4z"/><path fill="#757575" d="M-62 106.83h-28.25c-2.21 0-4-1.79-4-4V80c0-2.21 1.79-4 4-4H-62c2.21 0 4 1.79 4 4v22.83c0 2.21-1.79 4-4 4z"/><path fill="#BDBDBD" d="M-138 104h88v12h-88z"/><path fill="#BDBDBD" d="M-130 116h-8c-2.21 0-4-1.79-4-4V96c0-2.21 1.79-4 4-4h8c2.21 0 4 1.79 4 4v16c0 2.21-1.79 4-4 4zm80 0h-8c-2.21 0-4-1.79-4-4V96c0-2.21 1.79-4 4-4h8c2.21 0 4 1.79 4 4v16c0 2.21-1.79 4-4 4zm28-48h-32l4-20h24z"/><path fill="#BDBDBD" d="M-40 64h4v60h-4z"/><path fill="#BDBDBD" d="M-46 120h16v4h-16z"/><path fill="#757575" d="M-130 116v8h8l4-8s-11.88-.12-12 0zm72 0v8h-8l-4-8h12z"/><path fill="#9E9E9E" d="M103.79 56.63h4.49V124h-4.49z"/><path fill="#757575" d="M97.05 119.51h17.96V124H97.05z"/><linearGradient id="c" x1="52" x2="52" y1="101.33" y2="123.68" gradientUnits="userSpaceOnUse"><stop offset="0" stop-color="#FF9800"/><stop offset="1" stop-color="#F57C00"/></linearGradient><path fill="url(#c)" d="M8 104h88v12H8z"/><path fill="#424242" d="M93 107v6H11v-6h82m3-3H8v12h88v-12z" opacity=".2"/><linearGradient id="d" x1="12" x2="12" y1="95" y2="117.06" gradientUnits="userSpaceOnUse"><stop offset="0" stop-color="#FF9800"/><stop offset="1" stop-color="#F57C00"/></linearGradient><path fill="url(#d)" d="M16 116H8c-2.21 0-4-1.79-4-4V96c0-2.21 1.79-4 4-4h8c2.21 0 4 1.79 4 4v16c0 2.21-1.79 4-4 4z"/><linearGradient id="e" x1="92" x2="92" y1="95" y2="117.06" gradientUnits="userSpaceOnUse"><stop offset="0" stop-color="#FF9800"/><stop offset="1" stop-color="#F57C00"/></linearGradient><path fill="url(#e)" d="M96 116h-8c-2.21 0-4-1.79-4-4V96c0-2.21 1.79-4 4-4h8c2.21 0 4 1.79 4 4v16c0 2.21-1.79 4-4 4z"/><path fill="#424242" d="M16 95c.55 0 1 .45 1 1v16c0 .55-.45 1-1 1H8c-.55 0-1-.45-1-1V96c0-.55.45-1 1-1h8m0-3H8c-2.21 0-4 1.79-4 4v16c0 2.21 1.79 4 4 4h8c2.21 0 4-1.79 4-4V96c0-2.21-1.79-4-4-4zm80 3c.55 0 1 .45 1 1v16c0 .55-.45 1-1 1h-8c-.55 0-1-.45-1-1V96c0-.55.45-1 1-1h8m0-3h-8c-2.21 0-4 1.79-4 4v16c0 2.21 1.79 4 4 4h8c2.21 0 4-1.79 4-4V96c0-2.21-1.79-4-4-4z" opacity=".2"/><path fill="#E0E0E0" d="M103.79 56.63h4.49V124h-4.49z"/><path fill="#BDBDBD" d="M97.05 119.51h17.96V124H97.05z"/><path fill="#424242" d="M107 58v61.51c0 .55.73 1.49 1.28 1.49H114v2H98v-2h5.79c.55 0 1.21-.94 1.21-1.49V58h2m1-1h-4v63h-7v4h18v-4h-7V57z" opacity=".2"/><path fill="#F9A825" d="M124 61.12H88.07l4.49-22.45h26.95z"/><path fill="#FFEB3B" d="M124 61.12H88.07l4.49-22.45h26.95z"/><path fill="#424242" d="m117.05 41.67 3.29 16.46H91.73l3.29-16.46h22.03m2.46-3H92.56l-4.49 22.46H124l-4.49-22.46z" opacity=".2"/></svg>