<svg xmlns="http://www.w3.org/2000/svg" xmlns:xlink="http://www.w3.org/1999/xlink" style="enable-background:new 0 0 128 128" viewBox="0 0 128 128" xml:space="preserve"><linearGradient id="a" x1="64.1" x2="64.1" y1="790.999" y2="837.89" gradientTransform="translate(0 -713.89)" gradientUnits="userSpaceOnUse"><stop offset="0" style="stop-color:#29b6f6"/><stop offset=".983" style="stop-color:#0288d1"/></linearGradient><path d="M124 124H4.2V79.6c0-5.7 37.1-11 68.8-2.7 37.3 9.7 51 2.7 51 2.7V124z" style="fill:url(#a)"/><g style="opacity:.2"><path d="M37.5 75.6c8.5 0 21.5.7 34.8 4.2 13.4 3.5 25.3 5.3 35.4 5.3 6.1 0 10.5-.7 13.3-1.3V121H7.2V80.2c2.1-1.7 12.6-4.6 30.3-4.6m0-3c-18.7 0-33.3 3.4-33.3 7V124H124V79.6s-4.8 2.4-16.3 2.4c-8 0-19.3-1.2-34.6-5.2-11.9-3-24.5-4.2-35.6-4.2z" style="fill:#424242"/></g><path d="M120.7 57.2 94 55l.3-4 26.5 2.4c1 .1 1.8 1 1.8 2 .1 1-.8 1.9-1.9 1.8zM79.6 42.8l13.9-1.5c.5-.1 1 .3 1.1.7l1.6 5.6c.2.8-.5 1.5-1.3 1.3l-15.6-4.1c-1-.2-.9-1.8.3-2z" style="fill:#757575"/><path d="M114.4 55.5h3.9v12h-3.9zm-10.4 0h3.9v12H104z" style="fill:#757575"/><path d="M70.8 64z" style="fill:#999"/><path d="M64.9 42c17.3.2 31.3 4 31.3 4l3.1 17-87.7-2.9S45.2 41.8 64.9 42z" style="fill:#eceff1"/><defs><path id="b" d="M64.9 42c17.3.2 31.3 4 31.3 4l3.1 17-87.7-2.9S45.2 41.8 64.9 42z"/></defs><clipPath id="c"><use style="overflow:visible" xlink:href="#b"/></clipPath><path d="M49.8 55.5 9 53.2l18.8-10.5 25.6 1.5c1.8.1 3.3 1.2 3.5 2.7l-1.5 4.7c-.6 2.4-3 4.1-5.6 3.9z" style="clip-path:url(#c);fill:#039be5"/><defs><path id="d" d="M64.9 42c17.3.2 31.3 4 31.3 4l3.1 17-87.7-2.9S45.2 41.8 64.9 42z"/></defs><clipPath id="e"><use style="overflow:visible" xlink:href="#d"/></clipPath><path d="m83.6 57.2-17-.9c-.9 0-1.6-.7-1.8-1.5l-1.6-6.4c-.3-1.3.7-2.5 2.1-2.5L81.8 47c.8 0 1.5.6 1.7 1.3l2.1 6.2c.5 1.4-.6 2.8-2 2.7z" style="clip-path:url(#e);fill:#039be5"/><linearGradient id="f" x1="15.71" x2="65.3" y1="788.379" y2="788.379" gradientTransform="translate(0 -713.89)" gradientUnits="userSpaceOnUse"><stop offset=".004" style="stop-color:#81d4fa"/><stop offset=".909" style="stop-color:#29b6f6"/></linearGradient><path d="M16.8 73.1c1.9-1.5 4.7-2.6 7.1-2.6-.7-.1-1.6-.3-2.1-1-.4-.6-.3-1.4.2-1.9 1-1.1 3.6-.8 4.9-.9 1.9-.1 4-.1 5.9.1-.6-.2-1.1-.7-1.4-1.3-.3-.7 0-1.7.7-2 .6-.3 1.2-.2 1.9 0C46.3 66.2 57.3 73 65.1 83c1.2 1.5-2.9 3.5-4.8 2.3-14.8-10.1-36.8 0-42.6-3.4-.8-.5-1.5-1.5-1.2-2.4.6-2.3 3.8-2.9 5.2-3.3-1.3.1-4.7.5-5.1.4-.7-.2-1.1-1-1-1.7.2-.8.6-1.3 1.2-1.8z" style="fill:url(#f)"/><g style="opacity:.2"><path d="M34.4 65.5c11.3 2.7 21.3 9 28.5 17.8-.3.1-.7.2-1.1.2-.2 0-.3 0-.3-.1-4.9-3.3-11-5-18.6-5-4.8 0-9.4.6-13.4 1.2-3.1.4-5.7.8-7.8.8-1.7 0-2.5-.2-2.8-.5l-.3-.3c.3-.9 2.3-1.4 3.3-1.7.2-.1.4-.1.6-.2a2 2 0 0 0 1.4-2.3c-.2-.9-1-1.6-2-1.6h-.2c-1.2.1-2.1.2-2.9.3 1.5-1 3.5-1.7 5.1-1.7 1 0 1.9-.8 2-1.9 0-.8-.4-1.6-1.2-1.9h2.6c.9 0 1.8-.1 2.7-.1 1 0 1.9 0 2.7.1h.2c.9 0 1.7-.6 1.9-1.5.1-.5 0-1.2-.4-1.6M33 63.2c-.3 0-.6 0-.8.2-.7.4-.9 1.3-.7 2 .2.6.7 1.1 1.4 1.3-.9-.1-1.9-.1-2.9-.1s-2.1 0-3 .1h-1.4c-1.3 0-2.8.1-3.5.9-.5.5-.5 1.4-.2 1.9.4.7 1.3.9 2.1 1-2.4 0-5.2 1.1-7.1 2.6-.6.5-1 1-1 1.5-.1.7.3 1.4 1 1.7h.3c.9 0 3.6-.3 4.8-.4-1.5.4-4.7 1.1-5.2 3.3-.2.9.4 1.9 1.2 2.4.9.6 2.2.8 3.9.8 5 0 13-1.9 21.2-1.9 6 0 12.2 1 17.5 4.6.4.3.9.4 1.5.4 1.9 0 4.2-1.5 3.3-2.7-7.8-10-18.8-16.8-31.1-19.5-.6-.1-1-.1-1.3-.1z" style="fill:#424242"/></g><g style="opacity:.2"><path d="M65 42v2h.1c14 .2 25.7 2.7 29.5 3.6L97 60.9l-77.2-2.5C30.4 53.2 51 44 65 44v-2m-.5 0c-19.7 0-52.9 18.1-52.9 18.1L99.3 63l-3.2-17s-13.9-3.8-31.3-4h-.3z" style="fill:#424242"/></g><path d="M6.2 56.5c-1.8-.1-2.2.5-1.4 1.7 2 3.3 7.5 14.3 24.2 19.8 22.3 7.3 87 5.1 87 5.1l6.1-15.1v-6L6.2 56.5z" style="fill:#e53935"/><defs><path id="g" d="M6.2 56.5c-1.8-.1-2.2.5-1.4 1.7 2 3.3 7.5 14.3 24.2 19.8 22.3 7.3 87 5.1 87 5.1l6.1-15.1v-6L6.2 56.5z"/></defs><clipPath id="h"><use style="overflow:visible" xlink:href="#g"/></clipPath><path d="M124 90.5H4v-29l120 6.7z" style="clip-path:url(#h);fill:#f5f5f5"/><g style="opacity:.2"><path d="m7.3 58.5 112.8 5.4v3.7l-5.5 13.5c-3 .1-10.8.3-20.6.3-18 0-50.3-.7-64.4-5.3C15.5 71.5 9.8 62.7 7.3 58.5m-1.5-2c-1.5 0-1.8.6-1.1 1.7C6.8 61.5 12.3 72.5 29 78c13.9 4.6 44.1 5.4 65 5.4 12.7 0 22-.3 22-.3l6.1-15.1v-6L6.2 56.5h-.4z" style="fill:#424242"/></g><linearGradient id="i" x1="78.218" x2="126.965" y1="799.413" y2="796.163" gradientTransform="translate(0 -713.89)" gradientUnits="userSpaceOnUse"><stop offset=".042" style="stop-color:#b3e5fc"/><stop offset=".227" style="stop-color:#a6e1fb"/><stop offset=".571" style="stop-color:#83d5fa"/><stop offset="1" style="stop-color:#4fc3f7"/></linearGradient><path d="M119.6 86.4c-1.8-2.2-4.9-4.2-7.7-4.9.9.1 2 0 2.7-.7.6-.6.7-1.6.3-2.3-1.2-2.4-10.3-3.5-12.7-3.7 1.8.2 5.1-1.9 2.5-3.9-2.8-2.2-34.2.8-44.8 14.9-1.6 2.1-.2 4.4 3.9 3.4 28.8-7.1 43.9 11.5 52.5 7.2 1.6-.8 4.3-5.1-3.3-7.9 1.5.5 3 1.2 4.6 1.5 3.2.4 2.6-2.9 2-3.6z" style="fill:url(#i)"/><g style="opacity:.2"><path d="M100.3 72.2c2 0 2.9.3 3.2.4-.3.2-.7.4-1 .4l-.2 1.9-.2 1.9c9.2 1 10.9 2.4 11.1 2.6-.1 0-.3.1-.7.1h-.5c-1 0-1.8.7-2 1.7s.5 2 1.5 2.2c2.3.5 4.9 2.2 6.6 4.1 0 .1.1.2.1.4h-.2c-.8-.1-1.7-.5-2.7-.8-.5-.2-1.1-.4-1.6-.6-.2-.1-.4-.1-.6-.1-.8 0-1.6.5-1.9 1.3-.3 1 .2 2.2 1.2 2.5 2.3.8 3.7 1.9 3.8 2.9.1.7-.5 1.3-.7 1.4-.6.3-1.3.4-2.1.4-2.5 0-5.8-1.4-9.8-3.1-6.5-2.7-15.4-6.5-26.7-6.5-4.4 0-9 .6-13.5 1.7-.5.1-1 .2-1.4.2-.3 0-.5-.1-.7-.1 0-.1.1-.2.2-.3 7.9-10.3 29.1-14.6 38.8-14.6m0-2c-9.6 0-31.8 4.2-40.4 15.5-1.3 1.7-.6 3.6 2.1 3.6.5 0 1.2-.1 1.8-.2 4.7-1.2 9.1-1.6 13.1-1.6 17.9 0 29.2 9.5 36.5 9.5 1.1 0 2-.2 2.9-.7 1.6-.8 4.3-5.1-3.3-7.9 1.5.5 3 1.2 4.6 1.5.2 0 .4.1.6.1 2.5 0 2-2.9 1.4-3.5-1.8-2.2-4.9-4.2-7.7-4.9h.5c.8 0 1.6-.1 2.2-.7s.7-1.6.3-2.3c-1.2-2.4-10.3-3.5-12.7-3.7h.3c1.9 0 4.8-2 2.2-3.9-.6-.6-2.1-.8-4.4-.8z" style="fill:#424242"/></g></svg>