<svg xmlns="http://www.w3.org/2000/svg" style="enable-background:new 0 0 128 128" viewBox="0 0 128 128" xml:space="preserve"><path d="M78.88 27.99h4.8v37.2h-4.8z" style="fill:#212121" transform="rotate(-45.001 81.28 46.589)"/><path d="m89.3 64.2.4.4c.8.8 2 .8 2.8 0l6.7-6.7c.8-.8.8-2 0-2.8l-.4-.4c-.8-.8-2-.8-2.8 0l-6.7 6.7c-.8.7-.8 2 0 2.8zM63.2 38.3l.4.4c.8.8 2 .8 2.8 0l6.7-6.7c.8-.8.8-2 0-2.8l-.4-.4c-.8-.8-2-.8-2.8 0l-6.7 6.7c-.8.8-.8 2 0 2.8z" style="fill:#757575"/><path d="m96.8 26.4 4.7 4.7c1.2 1.2 1.2 3.1 0 4.2l-4.3 4.3-8.9-8.9 4.3-4.3c1.2-1.2 3.1-1.2 4.2 0z" style="fill:#424242"/><linearGradient id="a" x1="36.886" x2="96.949" y1="803.982" y2="744.936" gradientTransform="translate(0 -713.89)" gradientUnits="userSpaceOnUse"><stop offset="0" style="stop-color:#e0e0e0"/><stop offset="1" style="stop-color:#f5f5f5"/></linearGradient><path d="M26.2 101.6c4.1 4.1 55.7-40 69.2-51.7 2.1-1.8 3.6-4.2 4.2-6.7l.8-3.1c.5-1.9.1-3.8-1.2-5l-6.4-6.4c-1.2-1.2-2.9-1.6-4.8-1.2l-3.2.7c-2.6.6-5.1 2.1-6.9 4.3-11.9 13.8-55.8 65-51.7 69.1z" style="fill:url(#a)"/><path d="m95.7 28.9 3.2 3.3 8.3-9.5c.9-1 1.2-2.2.7-2.8-.6-.6-1.8-.3-2.8.7.1 0-9.4 8.3-9.4 8.3z" style="fill:#616161"/><path d="M87.5 10.8 103.9 24l13.2 16.4c.8.8 2.1.8 2.9 0l.4-.4c.8-.8.8-2.1 0-2.9L103.9 24 90.7 7.6c-.8-.8-2.1-.8-2.9 0l-.3.4c-.8.8-.8 2 0 2.8z" style="fill:#424242"/><path d="m100.4 40.2-.8 3.1c-.1.4-.2.8-.4 1.2L83.5 28.7c.4-.2.9-.3 1.3-.4l3.2-.7c1.9-.4 3.6 0 4.8 1.2l6.4 6.4c1.2 1.2 1.7 3.1 1.2 5z" style="fill:#fb8c00"/><g style="opacity:.2"><path d="M89.3 8c.3 0 .5.1.7.3l7.4 9.2-9.2-7.4c-.2-.2-.3-.4-.3-.7s.1-.5.3-.7l.4-.4c.2-.2.4-.3.7-.3m21.1 22.5 9.2 7.4c.2.2.3.4.3.7s-.1.5-.3.7l-.4.4c-.2.2-.5.3-.7.3-.3 0-.5-.1-.7-.3l-7.4-9.2M89.3 7c-.5 0-1 .2-1.4.6l-.4.4c-.8.8-.8 2.1 0 2.9L103.9 24l13.2 16.4c.4.4.9.6 1.4.6s1-.2 1.4-.6l.4-.4c.8-.8.8-2.1 0-2.9L103.9 24 90.7 7.6c-.4-.4-.9-.6-1.4-.6z" style="fill:#eee"/></g><path d="M76.9 40.3c-.4.9 0 2 .9 2.3 1.4.6 3 2 4.3 3.3 1.2 1.2 2.4 2.6 2.8 3.9.3 1 1.5 1.5 2.4 1l2.9-1.5c1.1-.5 1.3-2.1.4-3.7l-.1-.2c-1.8-3.4-4.8-6.4-8.1-8.2l-.2-.1c-1.7-.9-3.2-.8-3.8.3l-1.5 2.9z" style="fill:#4fc3f7"/><g style="opacity:.2"><path d="M80.1 38.5c.1 0 .5 0 1.1.3l.2.1c3 1.6 5.8 4.4 7.3 7.4l.1.2c.3.5.3.9.3 1.1l-2.5 1.2c-.7-1.7-2-3.2-3.2-4.4-1.9-1.9-3.4-3-4.7-3.6l1.4-2.3m0-2c-.8 0-1.4.3-1.7.9l-1.5 2.9c-.4.9 0 2 .9 2.3 1.4.6 3 2 4.3 3.3 1.2 1.2 2.4 2.6 2.8 3.9.2.7.9 1.2 1.6 1.2.2 0 .5 0 .7-.2l2.9-1.5c1.1-.5 1.3-2.1.4-3.7l-.1-.2c-1.8-3.4-4.8-6.4-8.1-8.2l-.2-.1c-.6-.4-1.4-.6-2-.6z" style="fill:#424242"/></g><g style="opacity:.2"><path d="M89.3 29.5c.8 0 1.5.3 2 .8l6.4 6.4c.7.7.9 1.8.6 3.1l-.8 3.1c-.5 2.1-1.8 4.1-3.6 5.6-5.9 5.2-21.4 18.4-36 30.1-19.9 15.9-27.2 20-29.8 21 1-2.6 5.1-9.8 20.8-29.5C60.6 55.5 74 39.9 79.2 33.9c1.6-1.8 3.7-3.1 5.9-3.6l3.2-.7c.4-.1.7-.1 1-.1m0-2c-.4 0-.9 0-1.4.2l-3.2.7c-2.6.6-5.1 2.1-6.9 4.3-11.9 13.7-55.8 64.9-51.6 69 .2.2.5.3.8.3 7.8 0 55.4-40.8 68.3-52 2.1-1.8 3.6-4.2 4.2-6.7l.8-3.1c.5-1.9.1-3.8-1.2-5l-6.4-6.4c-.8-.9-2-1.3-3.4-1.3z" style="fill:#424242"/></g><linearGradient id="b" x1="56.978" x2="21.413" y1="786.056" y2="820.17" gradientTransform="translate(0 -713.89)" gradientUnits="userSpaceOnUse"><stop offset="0" style="stop-color:#ef6c00"/><stop offset="1" style="stop-color:#fb8c00"/></linearGradient><path d="m8.5 85 18.8 15.6 15.6 18.8c1.3 1.6 3.5 1.6 4.2.2l5.1-8.4c.7-1.5.5-3.5-.7-5.2L39.3 88.3 21.5 76.1c-1.7-1.2-3.7-1.4-5.2-.7l-8 5.5c-1.5.7-1.4 2.8.2 4.1z" style="fill:url(#b)"/><linearGradient id="c" x1="33.069" x2="108.839" y1="733.78" y2="828.044" gradientTransform="translate(0 -713.89)" gradientUnits="userSpaceOnUse"><stop offset="0" style="stop-color:#fb8c00"/><stop offset="1" style="stop-color:#ef6c00"/></linearGradient><path d="m17.5 25.3 33.7 39 12.1 12.6 39.3 33.5c1.4 1.3 3.4 1 4-.5l4.6-13c.8-2.2 0-5-2-7L38 18.7c-2-2-4.8-2.8-7-2l-13 4.6c-1.6.6-1.8 2.5-.5 4z" style="fill:url(#c)"/><g style="opacity:.2"><path d="M32.8 19.4c1 0 2.2.5 3.1 1.4L107 92c1.2 1.2 1.7 2.8 1.3 3.9l-4.2 11.9-38.8-33.1-11.9-12.4-33.3-38.6L32 19.5c.2 0 .5-.1.8-.1m0-3c-.6 0-1.2.1-1.8.3l-13 4.6c-1.5.5-1.8 2.5-.5 4l33.7 39 12.1 12.6 39.3 33.5c.6.6 1.3.8 2 .8.9 0 1.6-.4 1.9-1.3l4.6-13c.8-2.2 0-5-2-7L38 18.7c-1.5-1.5-3.4-2.3-5.2-2.3z" style="fill:#424242"/></g><g style="opacity:.2"><path d="M18.1 77.9c.5 0 1.1.2 1.7.6l17.4 11.9L49 107.7c.6.8.7 1.7.5 2.1l-4.5 7.4-15.4-18.5c-.1-.1-.2-.3-.4-.4L10.6 82.9l7.1-4.9c.1 0 .3 0 .4-.1m0-2.9c-.7 0-1.3.1-1.9.4l-8 5.5c-1.4.7-1.3 2.9.2 4.2l18.8 15.6 15.6 18.8c.7.8 1.6 1.2 2.4 1.2.8 0 1.4-.3 1.8-1l5.1-8.4c.7-1.5.5-3.5-.7-5.2L39.3 88.3 21.5 76.1c-1.1-.8-2.3-1.1-3.4-1.1z" style="fill:#424242"/></g><ellipse cx="32.01" cy="95.32" rx="15" ry="3" style="fill:#616161" transform="rotate(-45.001 32.01 95.322)"/></svg>