<svg xmlns="http://www.w3.org/2000/svg" style="enable-background:new 0 0 128 128" viewBox="0 0 128 128" xml:space="preserve"><path d="M16.7 19.7c-1 0-1.7.8-1.7 1.8v.1c0 24.7 4 59.3 24 83.5 12.1 14.7 23.9 18.5 24.5 18.7l.6.2.5-.2c.5-.2 12.5-4 24.5-18.7 19.9-24.2 24-58.8 24-83.5v-.1c0-1-.8-1.8-1.7-1.8-.3 0-29.1-1-46-15.3-.7-.6-1.7-.6-2.4 0-17.1 14.2-46 15.2-46.3 15.3z" style="fill:#ffb74d"/><g style="opacity:.2"><path d="M64 7.3c15.7 12.7 40.3 15 46 15.3-.1 24.2-4.3 57.5-23.3 80.6-10.4 12.7-20.8 16.9-22.8 17.6-2-.7-12.3-4.9-22.7-17.6C22.3 80.1 18.1 46.8 18 22.6c5.6-.4 30.3-2.7 46-15.3m0-3.4c-.4 0-.9.1-1.2.5C45.9 18.6 17 19.6 16.7 19.7c-1 0-1.7.8-1.7 1.8v.1c0 24.7 4 59.3 24 83.5 12.1 14.7 23.9 18.5 24.5 18.7l.6.2.5-.2c.5-.2 12.5-4 24.5-18.7 19.9-24.2 24-58.8 24-83.5v-.1c0-1-.8-1.8-1.7-1.8-.3 0-29.1-1-46-15.3-.5-.3-.9-.5-1.4-.5z" style="fill:#424242"/></g><path d="M27 29c-.8 0-1 1-1 1.7v.1c0 19.3 3 46.4 18.6 65.3 9.4 11.5 18.6 14.5 19 14.6l.4.1.4-.1c.4-.1 9.6-3.1 19-14.6C99 77.2 102 50.2 102 30.8v-.1c0-.8-.4-1.4-1.2-1.4h.1c-.2 0-22.7-.8-35.9-11.9-.6-.5-1.3-.5-1.9 0v-.2C49.8 28.3 27.3 29 27 29z" style="fill:#ffe0a9"/><path d="M100.8 29.3c-.2 0-22.7-.8-35.9-12-.2-.2-.6-.3-.9-.3v93.8l.4-.1c.4-.1 9.6-3.1 19-14.6C99 77.2 102 50.2 102 30.8v-.1c0-.7-.4-1.4-1.2-1.4z" style="fill:#e58a1f"/></svg>