<svg xmlns="http://www.w3.org/2000/svg" viewBox="0 0 128 128" style="enable-background:new 0 0 128 128"><path style="fill:#bfbebe" d="M36 57h-8v-5h-7v-7H9v7H4v15h52V55H36zM104 55v-3H80v15h44V55z"/><path style="fill:#66bb6a" d="M4.13 64H124v60H4.13z"/><linearGradient id="a" x1="4.13" x2="124" y1="34" y2="34" gradientTransform="matrix(1 0 0 -1 0 128)" gradientUnits="userSpaceOnUse"><stop offset="0" style="stop-color:#fdd835"/><stop offset="1" style="stop-color:#ffeb3b"/></linearGradient><path style="fill:url(#a)" d="M4.13 124l39.9-59.97L84.02 64 124 124z"/><linearGradient id="b" x1="64" x2="64" y1="60.455" y2="-24.062" gradientTransform="matrix(1 0 0 -1 0 128)" gradientUnits="userSpaceOnUse"><stop offset="0" style="stop-color:#504f4f"/><stop offset=".993" style="stop-color:#8d8c8c"/></linearGradient><path style="fill:url(#b)" d="M12 124l36.07-60h32L116 124z"/><path style="fill:#fff" d="M55.57 67H52.6l1.05-3h2.66zM48.66 95h-5.84l5.24-15h4.3l-3.7 15zm4.42-18h-3.94l2.77-8h3.17l-2 8zM41.48 124h-8.74l7.67-22h6.5zM72.48 67h2.96l-1.04-3h-2.66zM75.68 80h4.3l5.24 15h-5.84l-3.7-15zm-2.71-11h3.17l2.77 8h-3.94l-2-8zM86.57 124h8.74l-7.67-22h-6.51z"/><linearGradient id="c" x1="64" x2="64" y1="81.375" y2="15.102" gradientUnits="userSpaceOnUse"><stop offset="0" style="stop-color:#424242"/><stop offset=".993" style="stop-color:#8d8c8c"/></linearGradient><path style="fill:url(#c)" d="M106 16v2.43H22V16h-4v65h4V49.74h84V81h4V16h-4zM22 46.59V21.57h84v25.02H22z"/><linearGradient id="d" x1="64" x2="64" y1="75.419" y2="109.877" gradientTransform="matrix(1 0 0 -1 0 128)" gradientUnits="userSpaceOnUse"><stop offset=".011" style="stop-color:#66bb6a"/><stop offset=".238" style="stop-color:#61b665"/><stop offset=".527" style="stop-color:#53a657"/><stop offset=".847" style="stop-color:#3c8c40"/><stop offset="1" style="stop-color:#2e7d32"/></linearGradient><path style="fill:url(#d)" d="M98 51.18H30c-1.1 0-2-.9-2-2V18c0-1.1.9-2 2-2h68c1.1 0 2 .9 2 2v31.18a2 2 0 01-2 2z"/><path style="fill:#fff" d="M96.2 19.6v27.98H31.8V19.6h64.4m.13-2.13H31.67c-1.1 0-2 .9-2 2v28.24c0 1.1.9 2 2 2h64.65c1.1 0 2-.9 2-2V19.47c.01-1.1-.89-2-1.99-2z"/><path style="fill:none;stroke:#fafafa;stroke-width:2;stroke-miterlimit:10" d="M55 18v31"/><g><path style="fill:#fafafa" d="M49.53 39l-5.61 6.08L38.31 39z"/><path style="fill:#fafafa" d="M40.67 34.82h6.52v6.32h-6.52z"/></g><g><path style="fill:#fafafa" d="M83.53 39l-5.61 6.08L72.31 39z"/><path style="fill:#fafafa" d="M74.67 34.82h6.52v6.32h-6.52z"/></g><circle style="opacity:.3;fill:#f5f5f5;enable-background:new" cx="43.83" cy="27.33" r="4.67"/><path style="opacity:.3;fill:#f5f5f5;enable-background:new" d="M89.25 31.33H67c-1.65 0-3-1.35-3-3v-2c0-1.65 1.35-3 3-3h22.25c1.65 0 3 1.35 3 3v2c0 1.65-1.35 3-3 3z"/></svg>