<svg xmlns="http://www.w3.org/2000/svg" xmlns:xlink="http://www.w3.org/1999/xlink" style="enable-background:new 0 0 128 128" viewBox="0 0 128 128" xml:space="preserve"><linearGradient id="a" x1="64" x2="64" y1="797.39" y2="839.54" gradientTransform="translate(0 -713.89)" gradientUnits="userSpaceOnUse"><stop offset="0" style="stop-color:#29b6f6"/><stop offset=".983" style="stop-color:#0288d1"/></linearGradient><path d="M4 80h120v44H4z" style="fill:url(#a)"/><g style="opacity:.2"><path d="M121 83v38H7V83h114m3-3H4v44h120V80z" style="fill:#424242"/></g><path d="M67 28H47.4c-2.8 0-5.7 6.5-5.7 6.5H72c.1 0-2.2-6.5-5-6.5zm36.1 0c-3.7 0-7.1 1.9-8.8 5l-.9 1.6h19.4l-1.1-1.8c-1.7-3-5-4.8-8.6-4.8z" style="fill:#757575"/><g style="opacity:.2"><path d="M66.9 30c.4.1 1.3 1.1 2.1 2.5H45.1c.9-1.4 1.8-2.4 2.3-2.5h19.5m.1-2H47.4c-2.8 0-5.7 6.5-5.7 6.5H72c.1 0-2.2-6.5-5-6.5z" style="fill:#424242"/></g><g style="opacity:.2"><path d="M103.1 30c2.4 0 4.6.9 6 2.5h-12c1.4-1.5 3.6-2.5 6-2.5m0-2c-3.7 0-7.1 1.9-8.8 5l-.9 1.6h19.4l-1.1-1.8c-1.7-3-5-4.8-8.6-4.8z" style="fill:#424242"/></g><linearGradient id="b" x1="63.978" x2="63.978" y1="759.89" y2="802.562" gradientTransform="translate(0 -713.89)" gradientUnits="userSpaceOnUse"><stop offset="0" style="stop-color:#f5f5f5"/><stop offset="1" style="stop-color:#e0e0e0"/></linearGradient><path d="M117.1 33h-81c-1 0-1.9.5-2.4 1.2l-1.3 1.9c-.4.5 0 1.3.7 1.3h1.8c.5 0 .8.6.5 1L20 60.1H4c-.1 0 0 1.9 0 1.9 0 2 .7 3.9 1.9 5.4l11.6 14.5c1.6 2 2.5 3.7 2.4 6.2L124 88V59.8l-5.2-21.7c.8 0 1.4-.9 1.1-1.7l-.3-.8c-.5-1.6-.8-2.6-2.5-2.6z" style="fill:url(#b)"/><defs><path id="c" d="M34.6 39.4 20 60.1H4v2c0 1.9.7 3.8 1.9 5.3l11.7 14.5c1.6 2 2.5 3.7 2.4 6.2l104-.1V74.2L95.1 61.1 112 61l-.4-21.1-77-.5z"/></defs><clipPath id="d"><use style="overflow:visible" xlink:href="#c"/></clipPath><path d="M4 75.8h122V89H4z" style="clip-path:url(#d);fill:#01579b"/><defs><path id="e" d="M34.6 39.4 20 60.1H4v2c0 1.9.7 3.8 1.9 5.3l11.7 14.5c1.6 2 2.5 3.7 2.4 6.2l104-.1V74.2L95.1 61.1 112 61l-.4-21.1-77-.5z"/></defs><clipPath id="f"><use style="overflow:visible" xlink:href="#e"/></clipPath><path d="M28.8 40h79.3v6H28.8z" style="clip-path:url(#f);fill:#4fc3f7"/><defs><path id="g" d="M34.6 39.4 20 60.1H4v2c0 1.9.7 3.8 1.9 5.3l11.7 14.5c1.6 2 2.5 3.7 2.4 6.2l104-.1V74.2L95.1 61.1 112 61l-.4-21.1-77-.5z"/></defs><clipPath id="h"><use style="overflow:visible" xlink:href="#g"/></clipPath><path d="M21 50.4h86.9v8H21z" style="clip-path:url(#h);fill:#4fc3f7"/><defs><path id="i" d="M34.6 39.4 20 60.1H4v2c0 1.9.7 3.8 1.9 5.3l11.7 14.5c1.6 2 2.5 3.7 2.4 6.2l104-.1V74.2L95.1 61.1 112 61l-.4-21.1-77-.5z"/></defs><clipPath id="j"><use style="overflow:visible" xlink:href="#i"/></clipPath><g style="opacity:.2;clip-path:url(#j)"><path d="M106.1 42v2H30.8v-2h75.3m2-2H28.8v6h79.3v-6z" style="fill:#424242"/></g><defs><path id="k" d="M34.6 39.4 20 60.1H4v2c0 1.9.7 3.8 1.9 5.3l11.7 14.5c1.6 2 2.5 3.7 2.4 6.2l104-.1V74.2L95.1 61.1 112 61l-.4-21.1-77-.5z"/></defs><clipPath id="l"><use style="overflow:visible" xlink:href="#k"/></clipPath><g style="opacity:.2;clip-path:url(#l)"><path d="M105.9 52.4v4H23v-4h82.9m2-2H21v8h86.9v-8z" style="fill:#424242"/></g><g style="opacity:.2"><path d="M117.1 35h.2c.1.2.3.7.5 1.1l.1.2v.1c-.2.1-.4.3-.5.5-.4.5-.5 1.1-.4 1.7l5 21.4v26l-100.2.1c-.4-2.2-1.4-3.8-2.7-5.5L7.5 66.1c-1-1.1-1.5-2.6-1.5-4h14c.6 0 1.3-.3 1.6-.8l15.3-21.7c.6-.8.6-1.8.2-2.7-.4-.7-1-1.2-1.8-1.4.2-.2.5-.4.8-.4l81-.1m0-2h-81c-1 0-1.9.5-2.4 1.2l-1.3 1.9c-.4.5 0 1.3.7 1.3h1.8c.5 0 .8.6.5 1L20 60.1H4c-.1 0 0 1.9 0 1.9 0 2 .7 3.9 1.9 5.4l11.6 14.5c1.6 2 2.5 3.7 2.4 6.2L124 88V59.8l-5.2-21.7c.8 0 1.4-.9 1.1-1.7l-.3-.8c-.5-1.5-.8-2.6-2.5-2.6z" style="fill:#424242"/></g><circle cx="26.7" cy="68.4" r="4" style="fill:#ff9800"/><circle cx="48.2" cy="68.4" r="4" style="fill:#ff9800"/><circle cx="69.8" cy="68.4" r="4" style="fill:#ff9800"/><circle cx="91.3" cy="68.4" r="4" style="fill:#ff9800"/><circle cx="112.8" cy="68.4" r="4" style="fill:#ff9800"/><g style="opacity:.2"><path d="M26.7 66.4c1.1 0 2 .9 2 2s-.9 2-2 2-2-.9-2-2 .9-2 2-2m0-2c-2.2 0-4 1.8-4 4s1.8 4 4 4 4-1.8 4-4-1.8-4-4-4z" style="fill:#424242"/></g><g style="opacity:.2"><path d="M48.2 66.4c1.1 0 2 .9 2 2s-.9 2-2 2-2-.9-2-2 .9-2 2-2m0-2c-2.2 0-4 1.8-4 4s1.8 4 4 4 4-1.8 4-4-1.8-4-4-4z" style="fill:#424242"/></g><g style="opacity:.2"><path d="M69.8 66.4c1.1 0 2 .9 2 2s-.9 2-2 2-2-.9-2-2 .9-2 2-2m0-2c-2.2 0-4 1.8-4 4s1.8 4 4 4 4-1.8 4-4-1.8-4-4-4z" style="fill:#424242"/></g><g style="opacity:.2"><path d="M91.3 66.4c1.1 0 2 .9 2 2s-.9 2-2 2-2-.9-2-2 .9-2 2-2m0-2c-2.2 0-4 1.8-4 4s1.8 4 4 4 4-1.8 4-4-1.8-4-4-4z" style="fill:#424242"/></g><g style="opacity:.2"><path d="M112.8 66.4c1.1 0 2 .9 2 2s-.9 2-2 2-2-.9-2-2 .9-2 2-2m0-2c-2.2 0-4 1.8-4 4s1.8 4 4 4 4-1.8 4-4-1.8-4-4-4z" style="fill:#424242"/></g></svg>