<svg xmlns="http://www.w3.org/2000/svg" viewBox="0 0 128 128"><linearGradient id="a" x1="64" x2="64" y1="4125.5" y2="4247.7" gradientTransform="translate(0 -4122)" gradientUnits="userSpaceOnUse"><stop offset="0" stop-color="#8BC249"/><stop offset=".658" stop-color="#679F42"/><stop offset="1" stop-color="#679F42"/></linearGradient><path fill="url(#a)" d="M116 124H12c-4.4 0-8-3.6-8-8V12c0-4.4 3.6-8 8-8h104c4.4 0 8 3.6 8 8v104c0 4.4-3.6 8-8 8z"/><path fill="#424242" d="M116 7c2.8 0 5 2.2 5 5v104c0 2.8-2.2 5-5 5H12c-2.8 0-5-2.2-5-5V12c0-2.8 2.2-5 5-5h104m0-3H12c-4.4 0-8 3.6-8 8v104c0 4.4 3.6 8 8 8h104c4.4 0 8-3.6 8-8V12c0-4.4-3.6-8-8-8z" opacity=".2"/></svg>