<svg xmlns="http://www.w3.org/2000/svg" style="enable-background:new 0 0 128 128" viewBox="0 0 128 128" xml:space="preserve"><radialGradient id="a" cx="63.6" cy="-2088.9" r="56.96" gradientTransform="matrix(1 0 0 -1 0 -2026)" gradientUnits="userSpaceOnUse"><stop offset=".5" style="stop-color:#fde030"/><stop offset=".919" style="stop-color:#f7c02b"/><stop offset="1" style="stop-color:#f4a223"/></radialGradient><path d="M63.6 118.8c-27.9 0-58-17.5-58-55.9S35.7 7 63.6 7c15.5 0 29.8 5.1 40.4 14.4 11.5 10.2 17.6 24.6 17.6 41.5s-6.1 31.2-17.6 41.4c-10.6 9.3-25 14.5-40.4 14.5z" style="fill:url(#a)"/><linearGradient id="b" x1="63.6" x2="63.6" y1="-2144.8" y2="-2033" gradientTransform="matrix(1 0 0 -1 0 -2026)" gradientUnits="userSpaceOnUse"><stop offset=".158" style="stop-color:#f4a223"/><stop offset=".333" style="stop-color:#f7c02b"/><stop offset=".807" style="stop-color:#fde030;stop-opacity:0"/></linearGradient><path d="M63.6 118.8c-27.9 0-58-17.5-58-55.9S35.7 7 63.6 7c15.5 0 29.8 5.1 40.4 14.4 11.5 10.2 17.6 24.6 17.6 41.5s-6.1 31.2-17.6 41.4c-10.6 9.3-25 14.5-40.4 14.5z" style="fill:url(#b)"/><path d="M111.49 29.67c5.33 8.6 8.11 18.84 8.11 30.23 0 16.9-6.1 31.2-17.6 41.4-10.6 9.3-25 14.5-40.4 14.5-18.06 0-37.04-7.35-48.18-22.94 10.76 17.66 30.99 25.94 50.18 25.94 15.4 0 29.8-5.2 40.4-14.5 11.5-10.2 17.6-24.5 17.6-41.4 0-12.74-3.47-24.06-10.11-33.23z" style="fill:#eb8f00"/><radialGradient id="c" cx="-143.13" cy="1415.916" r="18.117" gradientTransform="matrix(.9623 -.1803 .1713 .9142 -75.147 -1256.13)" gradientUnits="userSpaceOnUse"><stop offset="0" style="stop-color:#ed7770"/><stop offset=".9" style="stop-color:#ed7770;stop-opacity:0"/></radialGradient><circle cx="29.7" cy="64.1" r="16.3" style="opacity:.8;fill:url(#c);enable-background:new"/><radialGradient id="d" cx="-73.259" cy="1415.944" r="18.115" gradientTransform="matrix(.9623 -.1803 .1713 .9142 -75.147 -1256.13)" gradientUnits="userSpaceOnUse"><stop offset="0" style="stop-color:#ed7770"/><stop offset=".9" style="stop-color:#ed7770;stop-opacity:0"/></radialGradient><circle cx="96.9" cy="51.5" r="16.3" style="opacity:.8;fill:url(#d);enable-background:new"/><path d="M96.9 49.4C89.2 56.5 79 62.1 67.2 64.8c-11.8 2.7-23.4 2.2-33.4-.9-1.8-.6-3.1 1.8-1.5 3 10.1 7.5 23.6 10.7 37.1 7.5 13.5-3.1 24.3-11.8 30.1-23 1-1.7-1.2-3.3-2.6-2zm-48.4-2.2-.2-.2c-.1-.1-.3-.2-.5-.4-.2-.1-.4-.3-.6-.4-.2-.2-.5-.4-.8-.6-.3-.2-.6-.4-.9-.5-.3-.2-.6-.3-.9-.3-.3-.1-.5-.1-.6-.1h-.3.2l-.5.1c-.1 0 0 0 0 0h.1c.1 0 0 0 0 0h-.1c-.1.1-.3.2-.5.3-.2.2-.5.4-.7.6-.2.2-.4.5-.6.8-.4.6-.7 1.1-.9 1.5s-.4.6-.4.6l-.2.4c-1 1.7-3.2 2.4-5 1.5-1.2-.6-1.9-1.7-2-2.9v-1.1c.1-.7.2-1.7.6-2.9s1.1-2.7 2.4-4.1c.7-.7 1.5-1.5 2.5-2 .2-.2.5-.3.8-.4.3-.1.5-.3.9-.4l.5-.2c.2-.1.4-.1.5-.1l.5-.1.3-.1h.4l.5-.1h.9c.6 0 1.2 0 1.8.1 1.2.2 2.2.6 3.1 1 1.8.9 2.9 2 3.8 2.9.4.5.8.9 1 1.3.3.4.5.8.7 1.1s.2.5.3.6c0 .1.1.2.1.2.7 1.8-.3 3.8-2.3 4.5-1.4.5-2.9.2-3.9-.6zm34.3-6.7-.2-.2c-.1-.1-.3-.2-.5-.4-.2-.1-.4-.3-.6-.4-.2-.2-.5-.4-.8-.6-.3-.2-.6-.4-.9-.5-.3-.2-.6-.3-.9-.3-.2-.1-.4-.1-.5-.1h-.3.2l-.5.1c-.1 0 0 0 0 0h.1c.1 0 0 0 0 0h-.1c-.1.1-.3.2-.6.3-.2.2-.4.4-.7.6-.2.2-.4.5-.6.8-.4.6-.7 1.1-.9 1.5-.2.4-.4.6-.4.6l-.2.3c-1 1.7-3.2 2.4-5 1.5-1.2-.6-1.9-1.7-2-2.9 0 0 0-.4.1-1.1.1-.7.2-1.7.6-2.9s1.1-2.7 2.4-4.1c.7-.7 1.5-1.5 2.5-2 .2-.1.5-.3.8-.4s.5-.3.9-.4l.6-.2c.2-.1.4-.1.5-.1l.5-.1.3-.1h.4l.5-.1h.9c.6 0 1.2 0 1.8.1 1.2.2 2.2.6 3.1 1 1.8.9 2.9 2 3.8 2.9.4.5.8.9 1 1.3.3.4.5.8.7 1.1s.2.5.3.6c.1.1.1.2.1.2.7 1.8-.3 3.8-2.3 4.5-1.6.7-3.1.4-4.1-.5z" style="fill:#422b0d"/><linearGradient id="e" x1="42.556" x2="42.556" y1="128.189" y2="97.296" gradientUnits="userSpaceOnUse"><stop offset="0" style="stop-color:#bf360c"/><stop offset="1" style="stop-color:#bf360c;stop-opacity:.2"/></linearGradient><path d="M38.87 84.46C37.78 81.38 37 113.28 37 113.28c2.92 1.23 5.87 2.31 8.93 3.13 1.21-2.73 2.79-7.76 1.96-13.46-1.34-9.11-6.78-12.14-9.02-18.49z" style="opacity:.66;fill:url(#e)"/><radialGradient id="f" cx="29.186" cy="93.866" r="38.904" gradientUnits="userSpaceOnUse"><stop offset=".33" style="stop-color:#fff176"/><stop offset="1" style="stop-color:#ffc400"/></radialGradient><path d="M39.5 81.23c-.49-1.33-1.11-2.32-2.68-2.32-.72 0-1.94.18-2.59 1.17-1.28 1.92-.78 5.52.2 8.65.55 1.77.4 2.42.4 2.42-2.72-.17-5.88-3.88-9.03-7.58-1.93-2.27-3.05-4.36-4.93-6.68-1.14-1.41-2.81-2.83-4.77-2.11-5.37 1.99 1.27 9.72 2.93 11.84 1.89 2.41 3.76 4.72 3.76 4.72-1.76-.41-2.87-.88-5.97-4.06-2.65-2.72-4.62-6.23-6.06-7.54-3.27-2.97-5.27-2-6.14-.02-.81 1.84.53 5.09 1.44 6.61 4.51 7.48 10.27 10.41 10.27 10.41-4.74-.21-8.48-5.29-9.99-6.83-4.38-4.45-6.38 1.06-3.99 5.05 1.1 1.83 2.2 3.12 4.21 5.19 3.25 3.33 6.31 4.84 6.31 4.84s-1.31.2-2.63-.49c-1.78-.93-3.77-2.33-4.8-3.13-2.95-2.27-5.76-.32-4.63 2.7 1.31 3.49 6.09 6.45 8.98 8.6 5.62 4.16 12.63 7.49 19.73 7.26 7.9-.25 13.34-5.68 15.48-13.31 1.24-4.44-1.72-11.5-2.47-13.28-2.47-5.76-2.54-10.78-3.03-12.11z" style="fill:url(#f)"/><radialGradient id="g" cx="36.79" cy="102.448" r="11.727" gradientTransform="matrix(.7398 -.6729 .6738 .7408 -59.452 51.312)" gradientUnits="userSpaceOnUse"><stop offset="0" style="stop-color:#ffc709"/><stop offset="1" style="stop-color:#ffc709;stop-opacity:0"/></radialGradient><path d="M23.62 99.08c.14 8.38 5.4 11.88 9.48 12.65a13.771 13.771 0 0 1-2.39-8.2c.1-2.9 1.22-6.51 2.88-8.47 1.66-1.96 1.24-3.89 1.24-3.89s-1.12-.09-1.54-.34c-1.34-.82-2.88-1.48-4.04-2.55-.85-.79-5.77 2.42-5.63 10.8z" style="fill:url(#g)"/><linearGradient id="h" x1="18.517" x2="5.827" y1="95.255" y2="82.775" gradientUnits="userSpaceOnUse"><stop offset=".127" style="stop-color:#b7537a"/><stop offset="1" style="stop-color:#ffc400"/></linearGradient><path d="M6.4 78.54a2.84 2.84 0 0 0-1.28 2.35c-.02.91.25 1.82.58 2.68.7 1.73 1.8 3.28 2.93 4.77 1.16 1.48 2.41 2.91 3.71 4.29 1.3 1.39 2.63 2.76 3.98 4.13-1.67-.98-3.22-2.16-4.65-3.46-1.42-1.31-2.77-2.73-3.91-4.31-1.17-1.57-2.1-3.32-2.71-5.2-.28-.94-.48-1.95-.31-2.95.12-.99.76-1.94 1.66-2.3z" style="fill:url(#h)"/><radialGradient id="i" cx="29.186" cy="93.866" r="38.904" gradientUnits="userSpaceOnUse"><stop offset=".33" style="stop-color:#fff176"/><stop offset="1" style="stop-color:#ffc400"/></radialGradient><path d="M.55 102.67c.03-.28.07-.52.12-.73-.07.23-.11.47-.12.73z" style="fill:url(#i)"/><linearGradient id="j" x1=".549" x2="24.074" y1="109.935" y2="109.935" gradientUnits="userSpaceOnUse"><stop offset=".127" style="stop-color:#da6727"/><stop offset="1" style="stop-color:#ffc400"/></linearGradient><path d="M4.31 106.78c-.72-.69-1.21-1.27-1.58-1.88-.42-.7-.66-1.44-.68-2.13-.02-.77.05-1.34.78-1.9.36-.28 1.37-.18 1.35-.19-.01-.01-.03-.01-.04-.02-.61-.24-1.18-.3-1.69-.22l.01-.01-.01.01c-.86.14-1.52.69-1.78 1.5-.05.21-.09.45-.12.73-.01.43.06.91.25 1.42.29.77.76 1.52 1.33 2.24.34.52.74 1.01 1.11 1.48.59.7 1.19 1.39 1.86 2.01a26.45 26.45 0 0 0 4.3 3.38c.75.46 8.17 5.01 14.67 6.26.02-.02-12.39-5.14-19.76-12.68z" style="fill:url(#j)"/><linearGradient id="k" x1=".779" x2="13.816" y1="96.876" y2="96.876" gradientUnits="userSpaceOnUse"><stop offset=".127" style="stop-color:#da6727"/><stop offset="1" style="stop-color:#ffc400"/></linearGradient><path d="M13.25 105.53c-.07 0-.15-.01-.21-.04-1.58-.66-3.15-1.6-4.81-2.88a27.08 27.08 0 0 1-4.01-3.91c-.64-.74-1.21-1.55-1.67-2.24l-.14-.22c-.47-.73-.95-1.48-1.25-2.36-.39-1.04-.49-2.11-.27-3.1.25-1.19.93-2 1.88-2.41 1.36-.59 2.88.91 2.79.87-1.05-.47-1.97-.21-2.21-.05-.55.38-.9 1.04-.97 1.81-.05.69.11 1.45.46 2.19.3.65.72 1.28 1.37 2.04.56.72 1.14 1.38 1.71 2.03a57.36 57.36 0 0 0 3.68 3.77c1.07.99 2.49 2.28 4.02 3.5.22.17.28.48.13.72-.12.18-.3.28-.5.28z" style="fill:url(#k)"/><linearGradient id="l" x1="4.074" x2="16.901" y1="87.433" y2="87.433" gradientUnits="userSpaceOnUse"><stop offset=".127" style="stop-color:#da6727"/><stop offset="1" style="stop-color:#ffc400"/></linearGradient><path d="M16.78 96.91c.19-.21.15-.34-.05-.54a218.71 218.71 0 0 1-3.97-4.12 61.13 61.13 0 0 1-3.67-4.24C8 86.58 6.9 85.04 6.22 83.37c-.26-.68-.56-1.58-.54-2.47 0-.4.11-.77.29-1.1.17-.31.42-.58.73-.78.01 0 .01-.01.01-.01.51-.31 1.34-.54 2.67-.31-2.33-1.57-4.08-.68-4.82 1.01-.81 1.84.57 5.13 1.49 6.65 4.51 7.48 10.02 10.47 10.02 10.47.27.17.57.22.71.08z" style="fill:url(#l)"/><linearGradient id="m" x1="13.586" x2="23.62" y1="83.513" y2="83.513" gradientUnits="userSpaceOnUse"><stop offset=".127" style="stop-color:#da6727"/><stop offset="1" style="stop-color:#ffc400"/></linearGradient><path d="M23.54 91.61c-1.69-2.24-8.47-9.35-8.3-14 .05-1.49 2.43-3.02 4.81-1.63.03.02-1.74-2-3.96-1.21-1.93.68-2.21 2.46-2.23 2.78-.1 1.01.18 1.98.45 2.72.56 1.4 1.27 2.76 2.29 4.39.76 1.24 1.65 2.5 2.79 3.99.63.81 1.27 1.55 1.92 2.25.44.48.89.94 1.35 1.39.11.1.25.16.39.16.12 0 .24-.04.34-.11.21-.18.31-.51.15-.73z" style="fill:url(#m)"/><linearGradient id="n" x1="25.394" x2="40.599" y1="85.763" y2="85.763" gradientUnits="userSpaceOnUse"><stop offset="0" style="stop-color:#ffc400"/><stop offset=".873" style="stop-color:#da6727"/></linearGradient><path d="M36.82 78.92c-.72 0-1.94.18-2.59 1.17-1.28 1.92-.78 5.52.2 8.65.16.51.26.92.32 1.26a.794.794 0 0 1-1.06.9c-2.45-.92-5.17-4.13-7.89-7.32l-.41-.5c.03.46 1.59 2.96 3.72 5.65.57.73 4.36 4.86 6.38 3.68 1.25-.72-.79-6.32-.81-7.77-.01-.79-.12-1.81.13-2.75.05-.24.2-.49.39-.74 1.09-1.46 3.35-1.52 4.28.05l.03.04c-.5-1.34-1.12-2.32-2.69-2.32z" style="fill:url(#n)"/><linearGradient id="o" x1="-1219.965" x2="-1219.965" y1="128.189" y2="97.296" gradientTransform="matrix(-1 0 0 1 -1135.343 0)" gradientUnits="userSpaceOnUse"><stop offset="0" style="stop-color:#bf360c"/><stop offset="1" style="stop-color:#bf360c;stop-opacity:.2"/></linearGradient><path d="M88.31 84.46c1.09-3.08 1.87 28.82 1.87 28.82-2.92 1.23-5.87 2.31-8.93 3.13-1.21-2.73-2.79-7.76-1.96-13.46 1.34-9.11 6.77-12.14 9.02-18.49z" style="opacity:.66;fill:url(#o)"/><radialGradient id="p" cx="-1233.335" cy="93.866" r="38.904" gradientTransform="matrix(-1 0 0 1 -1135.343 0)" gradientUnits="userSpaceOnUse"><stop offset=".33" style="stop-color:#fff176"/><stop offset="1" style="stop-color:#ffc400"/></radialGradient><path d="M87.68 81.23c.49-1.33 1.11-2.32 2.68-2.32.72 0 1.94.18 2.59 1.17 1.28 1.92.78 5.52-.2 8.65-.55 1.77-.4 2.42-.4 2.42 2.72-.17 5.88-3.88 9.03-7.58 1.93-2.27 3.05-4.36 4.93-6.68 1.14-1.41 2.81-2.83 4.77-2.11 5.37 1.99-1.27 9.72-2.93 11.84-1.89 2.41-3.76 4.72-3.76 4.72 1.76-.41 2.87-.88 5.97-4.06 2.65-2.72 4.62-6.23 6.06-7.54 3.27-2.97 5.27-2 6.14-.02.81 1.84-.53 5.09-1.44 6.61-4.51 7.48-10.27 10.41-10.27 10.41 4.74-.21 8.48-5.29 9.99-6.83 4.38-4.45 6.38 1.06 3.99 5.05-1.1 1.83-2.2 3.12-4.21 5.19-3.25 3.33-6.31 4.84-6.31 4.84s1.31.2 2.63-.49c1.78-.93 3.77-2.33 4.8-3.13 2.95-2.27 5.76-.32 4.63 2.7-1.31 3.49-6.09 6.45-8.98 8.6-5.62 4.16-12.63 7.49-19.73 7.26-7.9-.25-13.34-5.68-15.48-13.31-1.24-4.44 1.72-11.5 2.47-13.28 2.46-5.76 2.54-10.78 3.03-12.11z" style="fill:url(#p)"/><radialGradient id="q" cx="-1225.73" cy="102.448" r="11.727" gradientTransform="matrix(-.7398 -.6729 -.6738 .7408 -747.348 -798.185)" gradientUnits="userSpaceOnUse"><stop offset="0" style="stop-color:#ffc709"/><stop offset="1" style="stop-color:#ffc709;stop-opacity:0"/></radialGradient><path d="M103.56 99.08c-.14 8.38-5.4 11.88-9.48 12.65 1.64-2.39 2.49-5.31 2.39-8.2-.1-2.9-1.22-6.51-2.88-8.47-1.66-1.96-1.24-3.89-1.24-3.89s1.12-.09 1.54-.34c1.34-.82 2.88-1.48 4.04-2.55.84-.79 5.77 2.42 5.63 10.8z" style="fill:url(#q)"/><linearGradient id="r" x1="-1244.004" x2="-1256.694" y1="95.255" y2="82.775" gradientTransform="matrix(-1 0 0 1 -1135.343 0)" gradientUnits="userSpaceOnUse"><stop offset=".127" style="stop-color:#b7537a"/><stop offset="1" style="stop-color:#ffc400"/></linearGradient><path d="M120.77 78.54a2.84 2.84 0 0 1 1.28 2.35c.03.92-.24 1.82-.57 2.68-.7 1.73-1.8 3.28-2.93 4.77a62.626 62.626 0 0 1-3.71 4.29c-1.3 1.39-2.63 2.76-3.98 4.13 1.67-.98 3.22-2.16 4.65-3.46 1.42-1.31 2.77-2.73 3.91-4.31 1.17-1.57 2.1-3.32 2.71-5.2.28-.94.48-1.95.31-2.95-.13-.99-.76-1.94-1.67-2.3z" style="fill:url(#r)"/><radialGradient id="s" cx="-1233.335" cy="93.866" r="38.904" gradientTransform="matrix(-1 0 0 1 -1135.343 0)" gradientUnits="userSpaceOnUse"><stop offset=".33" style="stop-color:#fff176"/><stop offset="1" style="stop-color:#ffc400"/></radialGradient><path d="M126.63 102.67c-.03-.28-.07-.52-.12-.73.06.23.11.47.12.73z" style="fill:url(#s)"/><linearGradient id="t" x1="-1261.971" x2="-1238.447" y1="109.935" y2="109.935" gradientTransform="matrix(-1 0 0 1 -1135.343 0)" gradientUnits="userSpaceOnUse"><stop offset=".127" style="stop-color:#da6727"/><stop offset="1" style="stop-color:#ffc400"/></linearGradient><path d="M122.86 106.78c.72-.69 1.21-1.27 1.58-1.88.42-.7.66-1.44.68-2.13.02-.77-.05-1.34-.78-1.9-.36-.28-1.37-.18-1.35-.19.01-.01.03-.01.04-.02.61-.24 1.18-.3 1.69-.22l-.01-.01.01.01c.86.14 1.52.69 1.78 1.5.05.21.09.45.12.73.01.43-.06.91-.25 1.42-.29.77-.76 1.52-1.33 2.24-.34.52-.74 1.01-1.11 1.48-.59.7-1.19 1.39-1.86 2.01a26.45 26.45 0 0 1-4.3 3.38c-.75.46-8.17 5.01-14.67 6.26-.01-.02 12.4-5.14 19.76-12.68z" style="fill:url(#t)"/><linearGradient id="u" x1="-1261.742" x2="-1248.705" y1="96.876" y2="96.876" gradientTransform="matrix(-1 0 0 1 -1135.343 0)" gradientUnits="userSpaceOnUse"><stop offset=".127" style="stop-color:#da6727"/><stop offset="1" style="stop-color:#ffc400"/></linearGradient><path d="M113.92 105.53c.07 0 .15-.01.21-.04 1.58-.66 3.15-1.6 4.81-2.88a27.08 27.08 0 0 0 4.01-3.91c.64-.74 1.21-1.55 1.67-2.24l.14-.22c.47-.73.95-1.48 1.25-2.36.39-1.04.49-2.11.27-3.1-.25-1.19-.93-2-1.88-2.41-1.36-.59-2.88.91-2.79.87 1.05-.47 1.97-.21 2.21-.05.55.38.91 1.04.98 1.81.05.69-.11 1.45-.46 2.19-.3.65-.72 1.28-1.37 2.04-.56.72-1.14 1.38-1.71 2.03a57.36 57.36 0 0 1-3.68 3.77c-1.07.99-2.49 2.28-4.02 3.5-.22.17-.28.48-.13.72.11.18.3.28.49.28z" style="fill:url(#u)"/><linearGradient id="v" x1="-1258.446" x2="-1245.619" y1="87.433" y2="87.433" gradientTransform="matrix(-1 0 0 1 -1135.343 0)" gradientUnits="userSpaceOnUse"><stop offset=".127" style="stop-color:#da6727"/><stop offset="1" style="stop-color:#ffc400"/></linearGradient><path d="M110.4 96.91c-.19-.21-.15-.34.05-.54 1.49-1.51 2.79-2.86 3.97-4.12a61.13 61.13 0 0 0 3.67-4.24c1.08-1.42 2.18-2.96 2.86-4.63.26-.68.56-1.58.54-2.47 0-.4-.11-.77-.29-1.1-.17-.31-.42-.58-.73-.78-.01 0-.01-.01-.01-.01-.51-.31-1.34-.54-2.67-.31 2.33-1.57 4.08-.68 4.82 1.01.81 1.84-.57 5.13-1.49 6.65-4.51 7.48-10.02 10.47-10.02 10.47-.26.16-.57.21-.7.07z" style="fill:url(#v)"/><linearGradient id="w" x1="-1248.935" x2="-1238.901" y1="83.513" y2="83.513" gradientTransform="matrix(-1 0 0 1 -1135.343 0)" gradientUnits="userSpaceOnUse"><stop offset=".127" style="stop-color:#da6727"/><stop offset="1" style="stop-color:#ffc400"/></linearGradient><path d="M103.64 91.61c1.69-2.24 8.47-9.35 8.3-14-.05-1.49-2.43-3.02-4.81-1.63-.03.02 1.74-2 3.96-1.21 1.93.68 2.21 2.46 2.23 2.78.1 1.01-.18 1.98-.45 2.72-.56 1.4-1.27 2.76-2.29 4.39-.76 1.24-1.65 2.5-2.79 3.99-.63.81-1.27 1.55-1.92 2.25-.44.48-.89.94-1.35 1.39a.59.59 0 0 1-.39.16c-.12 0-.24-.04-.34-.11-.22-.18-.32-.51-.15-.73z" style="fill:url(#w)"/><linearGradient id="x" x1="-1237.127" x2="-1221.921" y1="85.763" y2="85.763" gradientTransform="matrix(-1 0 0 1 -1135.343 0)" gradientUnits="userSpaceOnUse"><stop offset="0" style="stop-color:#ffc400"/><stop offset=".873" style="stop-color:#da6727"/></linearGradient><path d="M90.36 78.92c.72 0 1.94.18 2.59 1.17 1.28 1.92.78 5.52-.2 8.65-.16.51-.26.92-.32 1.26a.794.794 0 0 0 1.06.9c2.45-.92 5.17-4.13 7.89-7.32l.41-.5c-.03.46-1.59 2.96-3.72 5.65-.57.73-4.36 4.86-6.38 3.68-1.25-.72.79-6.32.81-7.77.01-.79.12-1.81-.13-2.75-.05-.24-.2-.49-.39-.74-1.09-1.46-3.35-1.52-4.28.05l-.03.04c.5-1.34 1.11-2.32 2.69-2.32z" style="fill:url(#x)"/></svg>