<svg xmlns="http://www.w3.org/2000/svg" xmlns:xlink="http://www.w3.org/1999/xlink" viewBox="0 0 128 128"><linearGradient id="a" x1="2495.9" x2="2568.3" y1="-119.34" y2="-119.34" gradientTransform="matrix(-.983 .1317 .1306 .9913 2591.8 -167.55)" gradientUnits="userSpaceOnUse"><stop offset="0" stop-color="#EDC391"/><stop offset=".007" stop-color="#EDC492"/><stop offset=".164" stop-color="#F2CFA5"/><stop offset=".346" stop-color="#F6D7B3"/><stop offset=".575" stop-color="#F8DCBB"/><stop offset="1" stop-color="#F9DDBD"/></linearGradient><path fill="url(#a)" d="M49.93 40.14c3.78-3.28 13.35-11.05 21.34-13.11 2.05-.53 3.9-.78 5.64-.78 3.1 0 5.34.83 7.5 1.62 1.93.71 3.93 1.45 6.31 1.45 1.05 0 2.09-.14 3.18-.42 1.39-.36 2.79-1.28 4.27-2.25 2.16-1.41 4.61-3.02 7.27-3.02 2.18 0 4.34 1.06 6.61 3.25l7.01 6.58c3.47 3.49 3.7 8.26 3.28 11.63-1.03 8.28-7.26 18.06-14.35 22.68L49.93 40.14z"/><path fill="#E6B77E" d="M105.44 25.14c1.77 0 3.59.93 5.59 2.86l6.95 6.53c2.45 2.49 3.41 5.98 2.86 10.39-.95 7.62-6.53 16.58-12.99 21.14l-55.2-26.28c4.39-3.64 12.29-9.58 18.98-11.3 1.93-.49 3.65-.74 5.27-.74 2.83 0 4.85.74 6.98 1.53 2.06.76 4.18 1.54 6.83 1.54 1.18 0 2.34-.15 3.56-.47 1.63-.42 3.13-1.4 4.72-2.44 2.09-1.35 4.24-2.76 6.45-2.76m0-3c-5 0-8.87 4.52-11.92 5.31-1.01.26-1.94.37-2.8.37-4.57 0-7.55-3.08-13.81-3.08-1.72 0-3.69.23-6.02.83-10.67 2.74-23.65 14.94-23.65 14.94l60.85 28.97c11.55-6.93 21.75-27.28 11.99-37.11l-6.99-6.57c-2.81-2.7-5.35-3.66-7.65-3.66z"/><linearGradient id="b" x1="233.93" x2="343.48" y1="195.87" y2="195.87" gradientTransform="matrix(.983 .1317 -.1306 .9913 -200.86 -167.55)" gradientUnits="userSpaceOnUse"><stop offset="0" stop-color="#F9DDBD"/><stop offset=".327" stop-color="#F8DBBA"/><stop offset=".604" stop-color="#F5D5AF"/><stop offset=".862" stop-color="#F0CB9E"/><stop offset="1" stop-color="#EDC391"/></linearGradient><path fill="url(#b)" d="M66.49 103.64a6.52 6.52 0 0 1-4.25-1.58L14.52 59.89C9.05 55.05 5.68 49 5.51 43.69c-.12-3.78 1.34-7.23 4.34-10.25l6.96-6.53c2.28-2.2 4.44-3.26 6.62-3.26 2.66 0 5.11 1.6 7.27 3.02 1.48.97 2.88 1.89 4.27 2.25 1.09.28 2.13.42 3.18.42 2.38 0 4.37-.74 6.3-1.45 2.16-.8 4.4-1.62 7.5-1.62 1.75 0 3.59.26 5.64.78 10.17 2.61 22.87 14.46 23 14.58l28.2 25.1c2.8 2.4 3.14 6.61.79 9.41l-.2.24a6.535 6.535 0 0 1-5.02 2.34c-1.04 0-2.08-.25-3-.73a1.53 1.53 0 0 0-.69-.17c-.33 0-.66.11-.93.33-.46.37-.67.97-.52 1.54.53 2.1.02 4.33-1.36 5.96l-.2.24a6.53 6.53 0 0 1-5.01 2.34c-1.47 0-2.86-.48-4.02-1.38a1.477 1.477 0 0 0-1.68-.11c-.53.31-.82.92-.72 1.53.3 1.93-.24 3.88-1.48 5.36l-.2.24a6.535 6.535 0 0 1-5.02 2.34 6.49 6.49 0 0 1-3.89-1.29c-.26-.2-.58-.29-.89-.29-.25 0-.5.06-.73.19-.51.28-.82.84-.77 1.43a6.62 6.62 0 0 1-1.55 4.83l-.2.24a6.546 6.546 0 0 1-5.01 2.32z"/><path fill="#E6B77E" d="M23.42 25.14c2.22 0 4.37 1.41 6.45 2.77 1.59 1.04 3.09 2.02 4.72 2.44 1.22.32 2.38.47 3.56.47 2.64 0 4.77-.79 6.82-1.54 2.13-.79 4.15-1.53 6.98-1.53 1.62 0 3.34.24 5.27.74 9.79 2.51 22.23 14.1 22.35 14.22.02.02.04.04.06.05l28.17 25.07.04.04c2.15 1.84 2.42 5.11.59 7.29l-.2.24a5.042 5.042 0 0 1-6.18 1.25 3.036 3.036 0 0 0-3.25.32c-.92.73-1.33 1.94-1.04 3.08.41 1.63.02 3.36-1.05 4.63l-.2.24a5.037 5.037 0 0 1-3.86 1.81c-1.13 0-2.2-.37-3.1-1.07a2.98 2.98 0 0 0-3.36-.21 3.01 3.01 0 0 0-1.44 3.05c.24 1.5-.18 3.02-1.15 4.16l-.2.24a5.042 5.042 0 0 1-6.87.82 3.023 3.023 0 0 0-3.24-.22 3.006 3.006 0 0 0-1.54 2.86c.11 1.37-.32 2.7-1.2 3.75l-.2.24a5.063 5.063 0 0 1-3.88 1.81c-1.2 0-2.36-.43-3.24-1.18l-47.74-42.2c-5.16-4.57-8.34-10.22-8.5-15.12-.11-3.38 1.16-6.36 3.87-9.11l6.99-6.56c1.98-1.92 3.8-2.85 5.57-2.85m0-3c-2.3 0-4.84.96-7.65 3.67l-6.99 6.57c-9.76 9.83-2.74 22.02 4.74 28.63l47.74 42.2a8.025 8.025 0 0 0 5.23 1.94c2.29 0 4.57-.98 6.17-2.88l.2-.24a8.116 8.116 0 0 0 1.89-5.91 8.018 8.018 0 0 0 4.79 1.58c2.29 0 4.56-.98 6.16-2.88l.2-.24a8.162 8.162 0 0 0 1.81-6.56 8.041 8.041 0 0 0 4.94 1.7c2.29 0 4.56-.98 6.16-2.87l.2-.24a8.181 8.181 0 0 0 1.66-7.3c1.16.6 2.42.89 3.68.89 2.29 0 4.56-.97 6.16-2.87l.2-.24c2.89-3.44 2.47-8.58-.94-11.5L81.62 40.52S68.63 28.31 57.97 25.58c-2.32-.6-4.29-.83-6.02-.83-6.25 0-9.23 3.08-13.81 3.08-.87 0-1.79-.11-2.8-.37-3.05-.8-6.92-5.32-11.92-5.32z"/><radialGradient id="c" cx="2113.8" cy="196" r="16.524" gradientTransform="matrix(-.8204 .5799 -.3806 -.5426 1851.3 -1047.9)" gradientUnits="userSpaceOnUse"><stop offset=".5" stop-color="#F9DDBD"/><stop offset="1" stop-color="#EDC391"/></radialGradient><path fill="url(#c)" d="M30.33 86.85c-2.11 0-4.07-1.05-5.26-2.8-1.99-2.93-1.25-6.96 1.66-8.97l10.98-7.59a6.285 6.285 0 0 1 3.59-1.13c2.11 0 4.07 1.05 5.26 2.8 1.99 2.93 1.25 6.96-1.66 8.97l-10.98 7.59c-1.06.74-2.3 1.13-3.59 1.13z"/><path fill="#E6B77E" d="M41.3 67.87c1.61 0 3.11.8 4.02 2.14 1.53 2.26.96 5.35-1.27 6.89l-10.98 7.59c-.81.56-1.76.86-2.74.86-1.61 0-3.11-.8-4.02-2.14-1.53-2.26-.96-5.35 1.27-6.89l10.98-7.59c.81-.56 1.76-.86 2.74-.86m0-3c-1.53 0-3.08.45-4.45 1.39l-10.98 7.59c-3.59 2.48-4.51 7.42-2.05 11.04a7.838 7.838 0 0 0 6.51 3.45c1.53 0 3.08-.45 4.45-1.39l10.98-7.59c3.59-2.48 4.51-7.42 2.05-11.04-1.53-2.24-4-3.45-6.51-3.45z"/><radialGradient id="d" cx="1576" cy="632.2" r="16.282" gradientTransform="matrix(-.5733 .6659 -.498 -.4353 1279.1 -685.52)" gradientUnits="userSpaceOnUse"><stop offset=".5" stop-color="#F9DDBD"/><stop offset="1" stop-color="#EDC391"/></radialGradient><path fill="url(#d)" d="M53.06 104.36c-1.56 0-3.06-.58-4.23-1.63-2.63-2.36-2.87-6.45-.53-9.11l6.39-7.24a6.37 6.37 0 0 1 4.76-2.16c1.56 0 3.06.58 4.23 1.63 2.63 2.36 2.87 6.45.53 9.11l-6.39 7.24a6.354 6.354 0 0 1-4.76 2.16z"/><path fill="#E6B77E" d="M59.46 85.73c1.19 0 2.34.44 3.23 1.24 2.02 1.82 2.2 4.96.4 7l-6.39 7.24a4.83 4.83 0 0 1-6.87.41c-2.02-1.82-2.2-4.96-.4-7l6.39-7.24a4.844 4.844 0 0 1 3.64-1.65m0-3c-2.17 0-4.33.9-5.89 2.66l-6.39 7.24c-2.89 3.28-2.6 8.3.65 11.21a7.79 7.79 0 0 0 5.23 2.01c2.17 0 4.33-.9 5.89-2.66l6.39-7.24c2.89-3.28 2.6-8.3-.65-11.21a7.79 7.79 0 0 0-5.23-2.01z"/><radialGradient id="e" cx="2191.9" cy="324.78" r="13.76" gradientTransform="matrix(-.7813 .4857 -.3539 -.5793 1858 -811.9)" gradientUnits="userSpaceOnUse"><stop offset=".5" stop-color="#F9DDBD"/><stop offset="1" stop-color="#EDC391"/></radialGradient><path fill="url(#e)" d="M22.31 76.23c-2.21 0-4.22-1.13-5.38-3.02-1.84-3-.92-6.95 2.05-8.81l6.69-4.18a6.274 6.274 0 0 1 8.7 2.06c1.84 3 .92 6.95-2.05 8.8l-6.69 4.18c-1 .64-2.15.97-3.32.97z"/><path fill="#E6B77E" d="M28.99 60.77c1.68 0 3.22.86 4.1 2.31 1.41 2.3.71 5.33-1.57 6.75L24.84 74a4.768 4.768 0 0 1-6.62-1.58c-1.41-2.3-.71-5.33 1.57-6.75l6.69-4.18c.75-.47 1.62-.72 2.51-.72m0-3c-1.41 0-2.83.38-4.11 1.18l-6.69 4.18c-3.67 2.29-4.81 7.16-2.53 10.86a7.809 7.809 0 0 0 6.66 3.74c1.41 0 2.83-.38 4.11-1.18l6.69-4.18c3.67-2.29 4.81-7.16 2.53-10.86a7.787 7.787 0 0 0-6.66-3.74z"/><radialGradient id="f" cx="1695.7" cy="291.65" r="16.872" gradientTransform="matrix(.5965 .6015 -.7159 .7219 -749.49 -1151.8)" gradientUnits="userSpaceOnUse"><stop offset=".5" stop-color="#F9DDBD"/><stop offset="1" stop-color="#EDC391"/></radialGradient><path fill="url(#f)" d="M39.67 98.47c-1.65 0-3.21-.65-4.38-1.83-2.42-2.44-2.42-6.42 0-8.87l11.74-11.84c1.17-1.18 2.73-1.83 4.38-1.83s3.21.65 4.38 1.83a6.307 6.307 0 0 1 0 8.87L44.05 96.64a6.135 6.135 0 0 1-4.38 1.83z"/><path fill="#E6B77E" d="M51.41 75.6c1.25 0 2.43.49 3.32 1.39 1.85 1.86 1.85 4.89 0 6.76L42.98 95.58c-.89.89-2.06 1.39-3.32 1.39s-2.43-.49-3.32-1.39c-1.85-1.86-1.85-4.89 0-6.76l11.74-11.84c.9-.89 2.07-1.38 3.33-1.38m0-3c-1.97 0-3.94.76-5.45 2.27L34.22 86.71c-3.01 3.03-3.01 7.95 0 10.98a7.613 7.613 0 0 0 5.45 2.27c1.97 0 3.94-.76 5.45-2.27l11.74-11.84c3.01-3.03 3.01-7.95 0-10.98a7.688 7.688 0 0 0-5.45-2.27z"/><defs><path id="g" d="M44.83 46.73c-2.25-3.89-.96-8.43 3.22-11.02l23.28-10.36c2.56-.93 5.43 5.17 5.43 5.17L80.83 38s3.65 5.35 4.05 5.84c2.06 2.49-1.06-.71-5.33-1.65-7.56-1.65-18.97 7.46-24.43 8.43s-8.04 0-10.29-3.89z"/></defs><clipPath id="h"><use xlink:href="#g"/></clipPath><g clip-path="url(#h)"><path fill="#F9DDBD" d="M51.69 49.47c-2.62 0-4.08-.91-5.57-3.49-1.85-3.2-.79-6.78 2.62-8.95l23.13-10.29c.95-.33 2.46-.53 4.17-.53 5.04 0 9.84 1.55 10.5 3.38.03.09.07.17.12.25l7.37 12.5c.02.08.02.12.02.14-.05 0-.61.38-2.58.38-2.84 0-7.25-.81-11.49-2.11-.88-.27-1.85-.41-2.87-.41-4.75 0-10.16 2.91-14.93 5.47-2.88 1.55-5.61 3.01-7.34 3.32-1.23.23-2.26.34-3.15.34z"/><path fill="#E6B77E" d="M76.05 27.71c4.97 0 8.71 1.55 9.09 2.39.06.18.14.35.24.51l6.35 10.76h-.24c-2.7 0-6.94-.78-11.05-2.05-1.03-.31-2.14-.47-3.31-.47-5.13 0-10.72 3-15.64 5.65-2.65 1.43-5.4 2.9-6.89 3.17-1.15.2-2.1.3-2.9.3-1.86 0-2.91-.4-4.27-2.74-1.42-2.46-.62-5.14 2.04-6.87l22.97-10.22c.78-.27 2.12-.43 3.61-.43m0-3c-1.88 0-3.58.21-4.73.63L48.04 35.7c-4.18 2.59-5.47 7.13-3.22 11.02 1.72 2.97 3.63 4.24 6.87 4.24 1 0 2.13-.12 3.42-.35 4.9-.87 14.7-8.77 22.01-8.77.85 0 1.66.11 2.43.34 3.96 1.22 8.66 2.18 11.93 2.18 2.84 0 4.62-.73 3.93-2.64l-7.46-12.64c-1.05-2.97-7.08-4.37-11.9-4.37z"/></g></svg>