<svg xmlns="http://www.w3.org/2000/svg" viewBox="0 0 128 128"><linearGradient id="a" x1="56.3" x2="56.3" y1="76.893" y2="118.9" gradientUnits="userSpaceOnUse"><stop offset="0" stop-color="#64B5F6"/><stop offset="1" stop-color="#2196F3"/></linearGradient><path fill="url(#a)" d="M74.18 123.88c-7.44 0-70.38.05-70.38.05l.08-49.86 37.47 16.84a17.62 17.62 0 0 0 15.25-1.44l33.6-20.93 18.6 9.38s-26.81 45.96-34.62 45.96z"/><path fill="#424242" d="m90.27 71.97 14.44 7.07c-2.39 3.98-7.08 11.67-12.23 19.4-13.58 20.38-17.8 22.27-18.4 22.44-6.8 0-54.73.04-67.29.05l.07-42.23 33.25 14.94c.06.03.12.05.19.08 2.3.85 4.72 1.29 7.18 1.29 3.76 0 7.45-1.03 10.71-2.99l32.08-20.05m-.18-3.43-33.5 20.93a17.661 17.661 0 0 1-9.12 2.54c-2.07 0-4.15-.36-6.13-1.1L3.87 74.07l-.07 49.86s62.94-.05 70.38-.05c7.81 0 34.78-46.11 34.78-46.11l-18.87-9.23z" opacity=".2"/><linearGradient id="b" x1="100.11" x2="104.64" y1="36.431" y2="74.468" gradientUnits="userSpaceOnUse"><stop offset="0" stop-color="#A56C43"/><stop offset=".427" stop-color="#A26941"/><stop offset=".784" stop-color="#97603D"/><stop offset="1" stop-color="#8D5738"/></linearGradient><path fill="url(#b)" d="M106.31 79.01c-.33 0-.6-.07-.85-.22l-.14-.08-.15-.05c-.07-.02-6.95-2.38-12.84-5.98-9.63-5.9-8.07-14.27-6.93-20.39.19-1 .36-1.95.47-2.81.31-2.44-.61-5.57-1.58-8.88-1.06-3.61-2.39-8.1-.91-9.36.84-.71 1.73-1.06 2.73-1.06 2.34 0 4.61 1.99 5.17 3.06.85 1.61 2.82 6.75 1.8 11.15-.12.5-.25 1.04-.4 1.6-1.02 3.96-2.57 9.95 1.81 12.79 2.18 1.42 5.54 2.07 10.57 2.07 1.43 0 2.8-.05 4.02-.09.94-.03 1.79-.06 2.49-.06 4.12 0 7.78.24 9.92.41-1.9 4.22-6.99 14.4-13.14 17.34-.84.36-1.5.56-2.04.56z"/><path fill="#875334" d="M86.1 31.65c1.73 0 3.5 1.6 3.85 2.25 1.08 2.05 2.48 6.6 1.66 10.11-.11.49-.25 1.01-.39 1.56-1.06 4.11-2.84 11 2.45 14.43 2.47 1.6 5.98 2.32 11.39 2.32 1.45 0 2.84-.05 4.07-.09.95-.03 1.77-.06 2.43-.06 2.92 0 5.59.12 7.66.25-2.5 5.11-6.87 12.42-11.52 14.65-.8.38-1.21.44-1.39.44-.05 0-.07 0-.08-.01l-.28-.17-.31-.11c-.07-.02-6.8-2.33-12.54-5.84-8.75-5.36-7.36-12.83-6.24-18.84.19-1.03.37-2 .49-2.9.35-2.76-.61-6.03-1.63-9.49-.66-2.22-2.02-6.85-1.38-7.79.57-.48 1.13-.71 1.76-.71m0-3c-1.23 0-2.5.4-3.7 1.42-3.74 3.19 2.65 13.96 1.98 19.19-.76 5.94-5.03 17.21 7.16 24.67 6.11 3.74 13.14 6.13 13.14 6.13.52.31 1.07.44 1.63.44.9 0 1.82-.32 2.68-.74 8.42-4.02 14.69-20 14.69-20s-5.4-.61-12.12-.61c-1.61 0-3.98.16-6.5.16-3.57 0-7.42-.31-9.76-1.83-3.99-2.59-1.69-8.83-.77-12.79 1.08-4.66-.81-10.06-1.93-12.18-.79-1.5-3.51-3.86-6.5-3.86z"/><path fill="#9E9E9E" d="m120.22 63.99-30.42-.12V6.99c0-1.59 1.21-2.88 2.7-2.88h25.02c1.49 0 2.7 1.29 2.7 2.88v57z"/><path fill="#eee" d="m116 63.99-26.19-.12V6.99c0-1.59 1.21-2.88 2.7-2.88H116v59.88z"/><linearGradient id="c" x1="103.74" x2="103.74" y1="53.117" y2="10.529" gradientUnits="userSpaceOnUse"><stop offset="0" stop-color="#2196F3"/><stop offset="1" stop-color="#64B5F6"/></linearGradient><path fill="url(#c)" d="m112.11 53.12-16.75-.09v-42.5h16.75z"/><path fill="#424242" d="m115.98 6.02 1.5-.02h.06c.35 0 .75.42.75.92l-.13 55.04-2.4.03h-.01c-.08 0-.03-.01-.11 0L92 61.88V6.99c0-.48.17-.9.55-.9l23.43-.07m.02-1.95-23.45.05C91.06 4.12 90 5.4 90 6.99v56.89l26 .12v-.02l4.27.02.07-57c0-1.59-1.29-2.87-2.78-2.87L116 4.07z" opacity=".2"/><linearGradient id="d" x1="106.97" x2="123.21" y1="47.538" y2="47.538" gradientUnits="userSpaceOnUse"><stop offset="0" stop-color="#A56C43"/><stop offset=".427" stop-color="#A26941"/><stop offset=".784" stop-color="#97603D"/><stop offset="1" stop-color="#8D5738"/></linearGradient><path fill="url(#d)" d="M114.25 64.45c-1.9 0-3.54-1.47-3.81-3.42-.15-1.07.11-2.13.75-2.99.19-.26.25-.6.14-.91a.983.983 0 0 0-.66-.64c-1.43-.43-2.51-1.74-2.75-3.34-.27-1.81.61-3.58 2.13-4.31.39-.19.62-.61.56-1.04s-.4-.77-.83-.85c-1.73-.29-2.96-2.09-2.79-4.1.15-1.8 1.35-3.28 2.91-3.6a.993.993 0 0 0 .44-1.74c-1.13-.94-1.64-2.33-1.36-3.71.37-1.83 2.05-3.16 3.99-3.16.27 0 .55.03.82.08l6.1 1.18c1.1.21 2.05.83 2.66 1.74.57.86.78 1.88.58 2.87-.24 1.17-.95 1.91-1.51 2.32-.26.19-.41.5-.4.82 0 .32.16.62.42.81 1.08.76 1.68 2.14 1.56 3.6a4.252 4.252 0 0 1-1.34 2.79c-.2.19-.32.45-.33.72 0 .28.11.54.3.73.68.66 1.11 1.5 1.25 2.43.25 1.66-.43 3.27-1.74 4.11a1.001 1.001 0 0 0-.05 1.65c.88.64 1.45 1.59 1.6 2.68.31 2.18-1.15 4.21-3.26 4.53l-4.83.72c-.18.01-.37.03-.55.03z"/><path fill="#875334" d="M112.97 31.63c.21 0 .42.02.63.06l6.1 1.18a3.1 3.1 0 0 1 2.02 1.32c.42.63.58 1.39.43 2.12-.17.86-.71 1.41-1.13 1.72a1.996 1.996 0 0 0 .04 3.24c.79.56 1.23 1.59 1.14 2.7-.07.84-.43 1.6-1.02 2.13-.41.37-.64.9-.65 1.45s.21 1.08.61 1.47c.36.35.82.96.96 1.86.19 1.25-.33 2.5-1.29 3.13a1.998 1.998 0 0 0-.09 3.29c.66.48 1.08 1.2 1.2 2.01.23 1.64-.85 3.16-2.42 3.4l-4.83.72c-.13.02-.27.03-.41.03-1.4 0-2.62-1.1-2.82-2.56-.11-.81.08-1.61.56-2.26.38-.52.49-1.2.28-1.82s-.7-1.09-1.32-1.28c-1.06-.32-1.87-1.31-2.05-2.53-.21-1.38.44-2.72 1.58-3.26a1.995 1.995 0 0 0-.53-3.77c-1.22-.2-2.08-1.54-1.95-3.03.11-1.34 1-2.48 2.11-2.7a1.995 1.995 0 0 0 .88-3.49c-.84-.7-1.23-1.73-1.02-2.74.26-1.4 1.52-2.39 2.99-2.39m0-2c-2.38 0-4.5 1.62-4.97 3.96-.37 1.8.35 3.55 1.7 4.68-1.94.4-3.51 2.2-3.71 4.5-.22 2.58 1.38 4.8 3.62 5.17-1.88.9-3.04 3.05-2.69 5.36.31 2.05 1.71 3.63 3.45 4.15a5.113 5.113 0 0 0-.93 3.72c.35 2.49 2.43 4.28 4.8 4.28.23 0 .46-.02.7-.05l4.83-.72c2.65-.39 4.49-2.93 4.1-5.66a5.03 5.03 0 0 0-2-3.35c1.58-1.02 2.5-3 2.18-5.1a5.215 5.215 0 0 0-1.55-3c.91-.83 1.54-2.05 1.66-3.44.16-1.88-.66-3.57-1.98-4.5.94-.7 1.65-1.71 1.9-2.92.54-2.67-1.26-5.26-4.02-5.8l-6.1-1.18c-.32-.07-.66-.1-.99-.1z"/><path fill="none" stroke="#875334" stroke-linecap="round" stroke-linejoin="round" stroke-miterlimit="10" stroke-width="3" d="M111.74 38.77c2.96.13 6.35.32 8.87.85m-9.49 7.93c2.56-.74 7.19-.44 9.15-.01m-8.51 9.33c3.72-.43 5.02-.89 8.52-.89"/></svg>