<svg xmlns="http://www.w3.org/2000/svg" viewBox="0 0 128 128"><linearGradient id="a" x1="64" x2="64" y1="31.345" y2="-2.004" gradientTransform="matrix(1 0 0 -1 0 128)" gradientUnits="userSpaceOnUse"><stop offset="0" stop-color="#1976d2"/><stop offset=".528" stop-color="#1e89e6"/><stop offset=".997" stop-color="#2196f3"/></linearGradient><path fill="url(#a)" d="M64.13 95.97H64c-25.49.03-52 7.28-52 25.06V124h104v-2.97c0-16.76-26.26-25.06-51.87-25.06z"/><path fill="#c48e6a" d="M63.17 107.2c-4 0-7.26-3.22-7.26-7.17v-8.98h16.16v8.98c0 3.95-3.26 7.17-7.26 7.17h-1.64zM91.33 50.4H36.67c-5.89 0-10.71 5.14-10.71 11.41 0 6.28 4.82 11.41 10.71 11.41h54.65c5.89 0 10.71-5.14 10.71-11.41.01-6.27-4.81-11.41-10.7-11.41z"/><path fill="#e0bb95" d="M64 11.04c-17.4 0-33.52 18.61-33.52 45.39 0 26.64 16.61 39.81 33.52 39.81s33.52-13.17 33.52-39.81c0-26.78-16.12-45.39-33.52-45.39z"/><g fill="#5d4037"><ellipse cx="47.56" cy="58.78" rx="4.93" ry="5.1"/><ellipse cx="80.44" cy="58.78" rx="4.93" ry="5.1"/></g><path fill="#c48e6a" d="M67.86 68.03c-.11-.04-.21-.07-.32-.08h-7.07c-.11.01-.22.04-.32.08-.64.26-.99.92-.69 1.63s1.71 2.69 4.55 2.69 4.25-1.99 4.55-2.69c.29-.71-.06-1.37-.7-1.63z"/><path fill="#6d4c41" d="M72.42 76.11c-3.19 1.89-13.63 1.89-16.81 0-1.83-1.09-3.7.58-2.94 2.24.75 1.63 6.45 5.42 11.37 5.42s10.55-3.79 11.3-5.42c.75-1.66-1.09-3.33-2.92-2.24z"/><g fill="#ab872f"><path d="M88.01 50.74c0-.01-2.28-3.54-7.56-3.54-5.28 0-7.57 3.53-7.57 3.53v.01c-.19.25-.3.56-.3.9 0 .85.7 1.54 1.57 1.54.18 0 .62-.13.66-.15 3.17-1.29 5.64-1.3 5.64-1.3s2.46.01 5.62 1.29c.04.02.48.15.66.15.87 0 1.57-.69 1.57-1.54.01-.33-.1-.64-.29-.89zM55.16 50.74c.01-.01-2.28-3.54-7.56-3.54s-7.57 3.53-7.57 3.53l.01.01c-.19.25-.3.56-.3.9 0 .85.7 1.54 1.57 1.54.18 0 .62-.13.66-.15 3.17-1.29 5.65-1.3 5.65-1.3s2.46.01 5.62 1.29c.04.02.48.15.66.15.87 0 1.57-.69 1.57-1.54a1.62 1.62 0 00-.31-.89z"/></g><path fill="#fff" d="M65.79 124v-21.63c0-.55-.9-1-2-1s-2 .45-2 1V124h4z"/><circle cx="73.96" cy="116.55" r="3" fill="#fff"/><linearGradient id="b" x1="23.315" x2="23.315" y1="100.323" y2="125.823" gradientTransform="translate(0 .677)" gradientUnits="userSpaceOnUse"><stop offset=".199" stop-color="#ffd600"/><stop offset="1" stop-color="#ff0"/></linearGradient><path fill="url(#b)" d="M26.23 118.14l-16.08-.12a2.004 2.004 0 01-1.94-2.44l1.69-7.46c.88-4.75 2.83-5.27 5.81-5.66 8.5-1.1 22.76-3.1 22.76-3.1l-6.71 15.19a5.993 5.993 0 01-5.53 3.59z"/><path fill="#ffa000" d="M53.33 102.5l-43.07 4.05a8.29 8.29 0 017.35-6.85l35.13-3.52.59 6.32z"/><linearGradient id="c" x1="104.358" x2="104.358" y1="100.323" y2="125.823" gradientTransform="translate(0 .677)" gradientUnits="userSpaceOnUse"><stop offset=".199" stop-color="#ffd600"/><stop offset="1" stop-color="#ff0"/></linearGradient><path fill="url(#c)" d="M101.44 118.14l16.09-.12a2.005 2.005 0 001.94-2.43l-1.93-8.44c-.38-2.39-2.2-4.25-4.6-4.56-8.15-1.06-23.74-3.22-23.74-3.22l6.71 15.19c.96 2.19 3.14 3.6 5.53 3.58z"/><path fill="#ffa000" d="M74.33 102.5l43.07 4.05a8.29 8.29 0 00-7.35-6.85l-35.13-3.52-.59 6.32z"/><path fill="#ffeb3b" d="M75.69 93.67c-2.59 1.01-6.35 2.07-8.72 2.52-1.47.28-2.63 1.74-3.01 3.41-.38-1.67-1.55-3.12-3.01-3.41-2.37-.46-6.07-1.87-8.72-2.67-1.51-.45-3.11-1.13-3.11 2.68v10.44c0 .88.44 1.69 1.17 2.12 2.63 1.55 24.73 1.55 27.36 0 .73-.43 1.17-1.25 1.17-2.12V96.21c-.02-5.8-1.5-3.18-3.13-2.54z"/><g><path fill="#ab872f" d="M64.02 4.44h-.04c-45.43.24-36.12 52.14-36.12 52.14s2.04 5.35 2.97 7.71c.13.34.63.3.71-.05.97-4.34 4.46-19.73 6.22-24.4a6.08 6.08 0 016.8-3.83c4.45.81 11.55 1.81 19.37 1.81h.16c7.82 0 14.92-1 19.37-1.81 2.9-.53 5.76 1.08 6.79 3.83C92 44.5 95.47 59.8 96.45 64.2c.08.36.58.39.71.05l2.98-7.67c.01 0 9.32-51.9-36.12-52.14z"/><radialGradient id="d" cx="64.007" cy="80.493" r="38.093" gradientTransform="matrix(1 0 0 -1.1282 0 138.318)" gradientUnits="userSpaceOnUse"><stop offset=".794" stop-color="#bfa055" stop-opacity="0"/><stop offset="1" stop-color="#bfa055"/></radialGradient><path fill="url(#d)" d="M100.15 56.58s9.31-51.9-36.13-52.14H64h-.02c-.71 0-1.4.02-2.08.05-1.34.05-2.65.16-3.9.31h-.04c-.09.01-.17.03-.26.04-38.25 4.81-29.84 51.74-29.84 51.74l2.98 7.68c.13.34.62.31.7-.05.98-4.39 4.46-19.71 6.22-24.37a6.08 6.08 0 016.8-3.83c4.45.81 11.55 1.81 19.37 1.81h.16c7.82 0 14.92-1 19.37-1.81 2.9-.53 5.76 1.08 6.79 3.83 1.76 4.68 5.25 20.1 6.21 24.42.08.36.57.39.7.05.94-2.36 2.99-7.73 2.99-7.73z"/></g><g><linearGradient id="e" x1="63.985" x2="63.985" y1="4.075" y2="32.143" gradientTransform="translate(0 .677)" gradientUnits="userSpaceOnUse"><stop offset="0" stop-color="#ff0"/><stop offset=".801" stop-color="#ffd600"/></linearGradient><path fill="url(#e)" d="M99.77 7.49l-9.27 6.08 2.89 5.34-22.79-.01 2.83-5.24-9.44-9.28h-.01l-9.44 9.28 2.84 5.24-22.8.01 2.89-5.34-9.27-6.08.16 15.35-.05 9.16h71.36l-.06-9.16z"/><ellipse cx="46.85" cy="25.32" fill="#2196f3" rx="3.04" ry="3.99"/><ellipse cx="81" cy="25.32" fill="#2196f3" rx="3.04" ry="3.99"/><ellipse cx="63.98" cy="23.76" fill="#ff1744" rx="4.61" ry="6.06"/><ellipse cx="29.78" cy="25.32" fill="#0091ea" rx="3.04" ry="3.99"/><ellipse cx="98.08" cy="25.32" fill="#0091ea" rx="3.04" ry="3.99"/></g></svg>