<svg xmlns="http://www.w3.org/2000/svg" viewBox="0 0 128 128"><linearGradient id="a" x1="64.764" x2="64.764" y1="9.018" y2="120.7" gradientTransform="scale(-1 1) rotate(-7.03 36.973 923.595)" gradientUnits="userSpaceOnUse"><stop offset=".005" stop-color="#eee"/><stop offset=".282" stop-color="#EAEAEA"/><stop offset=".577" stop-color="#ddd"/><stop offset=".879" stop-color="#C8C8C8"/><stop offset="1" stop-color="#BDBDBD"/></linearGradient><path fill="url(#a)" d="M17.43 118.43c-.35 2.27 8.93 4.57 16.23 5.47s16.84.91 17.05-1.37c.23-2.47-7.94-4.83-10.77-5.63s-2.11-1.91-2.26-4.5 2.16-21.2 3.13-27.49c.44-2.84 1.52-5.46 2.57-7.49.86-1.44 1.65-2.7 2.37-3.83.09-.12.16-.19.16-.19l.02-.01c4.57-7.26 6.5-9.55 10.75-21.93C61.67 36.9 59.3 14 59.3 14l-10.89-2.21v-.02l-.44-.05-.43-.06v.02l-11.46-.55s-8.05 21.61-6.74 36.95c1.12 13.25 2.38 15.8 5.13 24.26l-.05.02s.11.25.28.7c.32.98.65 2.04 1.01 3.21.56 2.16.09 5.1-.07 7.98-.34 6.35-2.31 25.02-3.09 27.5-.77 2.48-.32 3.73-3.27 3.82-2.96.11-11.47.41-11.85 2.86z"/><path fill="#fff" d="M36.04 11.3c-.11.9.34 2.12 11.25 3.81s11.8.1 11.91-.81-5.26-2.52-11.6-3.31-11.45-.59-11.56.31z"/><linearGradient id="b" x1="51.436" x2="61.283" y1="29.243" y2="65.799" gradientTransform="scale(-1 1) rotate(5.1 14.86 -1064.494)" gradientUnits="userSpaceOnUse"><stop offset=".005" stop-color="#FFF56B"/><stop offset=".99" stop-color="#DECD78"/></linearGradient><path fill="url(#b)" d="M33.55 35.75c.42-2.42.89-4.57 1.36-6.49-.01 1.77 4.72 1.61 10.4-.29 5.47-1.83 9.95-4.66 10.22-6.43v.03c-.01.23.01.46.01.69l.03.81.03.97c.01.38.02.75.02 1.13v.13c.01 2.96 0 7.24-.51 12.45-.56 5.74-1.7 11.95-4.14 17.19-3.31 7.1-8.33 10.02-11.2 9.6-2.86-.41-5.75-4.71-6.52-11.27-1.14-9.68-.82-12.14.3-18.52z"/><path fill="#FFCA36" d="M55.08 21.67a1.86 1.86 0 0 0-.28-.21c.44.19.71.46.74.83.01.08-.01.17-.02.25 0-.19-.06-.38-.17-.54-.07-.12-.16-.23-.27-.33zM34.9 29.21c.01-.27.09-.56.22-.84-.07.29-.15.59-.22.89.01-.02 0-.03 0-.05z"/><path fill="#E0D077" d="M45.31 28.97c-5.68 1.9-10.4 2.06-10.4.29.07-.3.15-.6.22-.89.87-1.89 4.29-4.02 9.87-5.78 4.46-1.41 8.26-1.79 9.8-1.13.1.07.19.13.28.21.1.1.2.2.27.32.1.16.16.35.17.54-.26 1.78-4.75 4.61-10.21 6.44z"/><g fill="#fff"><ellipse cx="43.31" cy="44.84" rx=".84" ry=".85" transform="rotate(-6.303 43.317 44.847)"/><ellipse cx="49.77" cy="39.31" rx=".62" ry=".62" transform="rotate(-6.28 49.79 39.312)"/><ellipse cx="48.1" cy="33.56" rx=".62" ry=".62" transform="rotate(-6.298 48.12 33.57)"/><ellipse cx="48.3" cy="52.95" rx=".95" ry=".96" transform="rotate(-6.298 48.312 52.963)"/><ellipse cx="42.85" cy="54.48" rx=".62" ry=".62" transform="rotate(-6.28 42.876 54.489)"/><ellipse cx="38.02" cy="56.67" rx=".95" ry=".96" transform="rotate(-6.298 38.014 56.653)"/><ellipse cx="36.31" cy="40.81" rx="1.61" ry="1.62" transform="rotate(-6.298 36.31 40.81)"/><ellipse cx="52.3" cy="33.06" rx=".62" ry=".62" transform="rotate(-6.31 52.285 33.052)"/></g><path fill="#424242" d="M40.87 12.54c1.77 0 3.96.16 6.49.46 6.35.77 9 1.7 10 2.17.37 4.42 1.62 23.32-2.6 35.65-3.68 10.73-5.59 13.73-9.06 19.17-.43.67-.88 1.38-1.36 2.14-.06.07-.14.16-.21.26-.03.04-.06.08-.09.13-.77 1.23-1.54 2.45-2.39 3.87-.02.04-.04.07-.06.11-1.44 2.77-2.37 5.5-2.77 8.11-.85 5.51-3.32 24.93-3.15 27.91.03.45.02.85.02 1.25-.02 2.11.24 4.09 3.71 5.08 5.1 1.44 7.44 2.53 8.51 3.19-.94.21-2.59.42-5.4.42-2.66 0-5.71-.2-8.59-.55-6.38-.79-11.51-2.23-13.65-3.27 1.2-.39 3.73-.87 9.06-1.04 3.59-.11 4.32-1.96 4.81-4.01.09-.39.18-.79.32-1.22.9-2.88 2.86-22.07 3.17-27.99.04-.69.09-1.38.15-2.06.19-2.35.37-4.57-.14-6.53a.31.31 0 0 1-.02-.08c-.36-1.17-.7-2.25-1.02-3.24l-.03-.09c-.05-.13-.09-.24-.13-.34-.02-.1-.04-.2-.07-.29-.31-.95-.6-1.83-.87-2.65-2.13-6.41-3.19-9.63-4.17-21.16-1.1-12.98 4.79-30.85 6.28-35.11.48-.13 1.47-.29 3.26-.29m0-2.02c-4.23 0-4.93.83-4.91.88-.87 2.42-7.88 22.32-6.66 36.7 1.12 13.25 2.38 15.8 5.13 24.26l-.05.02s.11.25.28.7c.32.98.65 2.04 1.01 3.21.56 2.16.09 5.1-.07 7.98-.34 6.35-2.31 25.02-3.08 27.5s-.32 3.73-3.27 3.82-11.46.39-11.83 2.85c-.35 2.27 8.93 4.57 16.23 5.47 2.83.35 6 .57 8.83.57 4.46 0 8.08-.54 8.22-1.94.23-2.47-7.94-4.83-10.77-5.63s-2.11-1.91-2.26-4.5 2.16-21.2 3.13-27.49c.44-2.84 1.52-5.46 2.57-7.49.86-1.44 1.65-2.7 2.37-3.83.09-.12.16-.19.16-.19l.02-.01c4.57-7.26 6.5-9.55 10.75-21.93 4.99-14.56 2.62-37.46 2.62-37.46S57.92 12.24 47.61 11c-2.9-.35-5.09-.48-6.74-.48z" opacity=".2"/><linearGradient id="c" x1="86.066" x2="86.066" y1="7.427" y2="119.11" gradientTransform="rotate(-13.332 79.02 82.852)" gradientUnits="userSpaceOnUse"><stop offset=".005" stop-color="#eee"/><stop offset=".282" stop-color="#EAEAEA"/><stop offset=".577" stop-color="#ddd"/><stop offset=".879" stop-color="#C8C8C8"/><stop offset="1" stop-color="#BDBDBD"/></linearGradient><path fill="url(#c)" d="M97.81 108.32c-2.94.23-2.63-1.06-3.67-3.44s-5.05-20.72-6.08-26.99c-.47-2.84-1.26-5.71-.94-7.92.23-1.2.44-2.29.65-3.3.12-.47.2-.73.2-.73l-.05-.01c1.81-8.71 2.78-11.39 2.44-24.68C89.97 25.86 79.6 5.26 79.6 5.26l-11.34 1.8v-.02l-.43.11-.43.09v.02l-10.58 3.39s.16 23.02 6.71 36.94c5.57 11.84 7.75 13.9 13.09 20.62h.02s.08.06.18.17c.84 1.05 1.76 2.22 2.78 3.55 1.26 1.9 2.63 4.38 3.37 7.16 1.65 6.14 5.99 24.39 6.12 26.98.14 2.59.98 3.61-1.75 4.72s-10.59 4.35-10.09 6.78c.46 2.25 9.94 1.19 17.1-.51s16.13-5.01 15.53-7.22c-.64-2.39-9.13-1.75-12.07-1.52z"/><path fill="#fff" d="M79.63 5.41c.21.88-.11 2.14-10.77 5.02s-11.72 1.39-11.93.51 4.95-3.09 11.17-4.56c6.22-1.48 11.32-1.86 11.53-.97z"/><linearGradient id="d" x1="71.87" x2="81.522" y1="24.53" y2="60.364" gradientTransform="rotate(-1.146 74.4 42.307)" gradientUnits="userSpaceOnUse"><stop offset="0" stop-color="#FFF56B"/><stop offset=".99" stop-color="#DECD78"/></linearGradient><path fill="url(#d)" d="M84.5 30.63c-.67-2.31-1.36-4.36-2.02-6.18.2 1.72-4.42 2.07-10.16.83-5.52-1.19-10.2-3.47-10.65-5.16v.03c.03.22.04.45.06.67l.06.79c.02.32.05.63.08.95.03.37.07.73.1 1.1 0 .04.01.09.01.13.31 2.88.78 7.05 1.84 12.08 1.16 5.53 2.94 11.46 5.88 16.3 3.99 6.56 9.2 8.87 11.94 8.15s5.09-5.21 5.14-11.69c.07-9.53-.51-11.9-2.28-18z"/><path fill="#FFCA36" d="M62 19.24c.08-.09.16-.16.25-.24-.41.23-.64.53-.63.88 0 .08.02.16.05.24-.02-.19.02-.38.1-.54.06-.12.14-.24.23-.34zm20.48 5.17c-.04-.27-.15-.53-.31-.8.1.28.2.55.31.84-.01-.01 0-.02 0-.04z"/><path fill="#E0D077" d="M72.31 25.29c5.74 1.24 10.36.89 10.16-.83-.1-.29-.21-.57-.31-.84-1.06-1.75-4.61-3.45-10.24-4.57-4.5-.89-8.24-.86-9.67-.04-.09.08-.18.15-.25.24-.09.1-.17.22-.23.34-.08.17-.12.36-.1.54.45 1.69 5.12 3.97 10.64 5.16z"/><g fill="#fff"><ellipse cx="75.96" cy="40.55" rx=".83" ry=".83"/><ellipse cx="69.08" cy="35.85" rx=".6" ry=".61"/><ellipse cx="71.33" cy="41.46" rx=".93" ry=".94"/><ellipse cx="71.98" cy="48.98" rx=".93" ry=".94"/><ellipse cx="77.45" cy="49.89" rx=".6" ry=".61"/><ellipse cx="76.44" cy="34.54" rx=".6" ry=".61"/><ellipse cx="82.39" cy="51.5" rx=".93" ry=".94"/><ellipse cx="82.35" cy="35.86" rx="1.58" ry="1.59"/><ellipse cx="80.49" cy="27.96" rx=".6" ry=".61"/></g><path fill="#424242" d="M77.18 7.03c.49 0 .84.03 1.07.06 1.95 4.07 9.77 21.19 10.1 34.21.29 11.57-.41 14.88-1.82 21.49-.18.85-.37 1.75-.58 2.73-.03.14-.04.28-.04.41-.18.84-.59 2.72-.77 3.66-.01.03-.01.06-.01.09-.29 2.01.13 4.19.58 6.5.13.67.26 1.35.37 2.03.96 5.85 5.02 24.71 6.23 27.47.18.42.32.8.45 1.18.52 1.47 1.24 3.49 4.44 3.49.24 0 .5-.01.78-.03 1.01-.08 3.11-.25 5.21-.25 1.94 0 3.15.14 3.89.29-2.02 1.27-6.95 3.26-13.19 4.74-4.52 1.07-9.26 1.74-12.36 1.74-.65 0-1.15-.03-1.53-.07.99-.78 3.2-2.11 8.11-4.11 3.34-1.36 3.38-3.35 3.13-5.45-.05-.39-.1-.79-.12-1.24-.16-2.98-4.74-22.01-6.19-27.39-.68-2.55-1.91-5.16-3.64-7.75-.02-.04-.05-.07-.07-.1-1-1.31-1.9-2.44-2.8-3.58-.03-.04-.07-.08-.1-.12l-.24-.24c-.56-.7-1.09-1.36-1.59-1.98-4.05-5.03-6.28-7.8-11.11-18.06-5.55-11.79-6.38-30.72-6.5-35.15.93-.57 3.47-1.8 9.7-3.25 4.61-1.1 7.22-1.32 8.6-1.32m0-2.02c-1.72 0-4.53.3-9.07 1.36-10.12 2.37-11.27 4.28-11.27 4.28s.16 23.02 6.71 36.94c5.57 11.84 7.75 13.9 13.09 20.62h.02s.08.06.18.17c.83 1.05 1.76 2.22 2.78 3.55 1.26 1.9 2.63 4.38 3.37 7.16 1.65 6.14 5.99 24.39 6.12 26.98.14 2.59.98 3.61-1.75 4.72s-10.59 4.35-10.09 6.78c.19.91 1.86 1.28 4.27 1.28 3.51 0 8.58-.78 12.83-1.79 7.16-1.7 16.13-5.01 15.53-7.22-.38-1.43-3.57-1.78-6.7-1.78-2.11 0-4.19.16-5.37.25-.23.02-.43.03-.62.03-2.27 0-2.08-1.27-3.04-3.47-1.04-2.38-5.05-20.72-6.08-26.99-.47-2.84-1.26-5.71-.94-7.92.23-1.2.85-4.03.85-4.03l-.05-.01c1.81-8.71 2.78-11.39 2.44-24.68C90 26.82 80.85 7.8 79.72 5.5c.01-.04-.44-.49-2.54-.49z" opacity=".2"/><path fill="#F44336" d="m92.36 4.78 6.7.13c.33.01.57.32.48.64l-3.6 13.34c-.14.51-.86.5-.98-.02L91.86 5.4c-.07-.32.17-.63.5-.62zm16.69 3.11 4.65 4.83c.23.24.17.63-.11.79l-11.98 6.88c-.46.26-.96-.26-.68-.71l7.33-11.71c.17-.27.57-.31.79-.08zm8.13 14.32-.13 6.7c-.01.33-.32.57-.64.48l-13.34-3.6c-.51-.14-.5-.86.02-.98l13.46-3.1c.33-.08.64.17.63.5z"/></svg>