<svg xmlns="http://www.w3.org/2000/svg" viewBox="0 0 128 128"><path fill="none" stroke="#58C1EF" stroke-miterlimit="10" stroke-width="3" d="M63.73 33.16V96.5m-24.5-63.34 7 13.79V96.5m42-63.34-7 13.79V96.5"/><path fill="none" stroke="#44B3E6" stroke-miterlimit="10" stroke-width="3" d="M32.44 95.28h62.59"/><path fill="none" stroke="#58C1EF" stroke-miterlimit="10" stroke-width="3" d="M20.54 42v57.51m8.43-36.2L7.11 61.16m25.08 17.9L7.11 81.81m22.21-18.36h69.35m-70.3 15.91h69.65"/><path fill="none" stroke="#44B3E6" stroke-miterlimit="10" stroke-width="3" d="M25.5 47.53h76.46M7.67 105.62l24.27-9.7"/><path fill="none" stroke="#58C1EF" stroke-miterlimit="10" stroke-width="3" d="M107.5 42v57.51m-8.43-36.2 21.86-2.15m-25.08 17.9 25.08 2.75"/><path fill="none" stroke="#44B3E6" stroke-miterlimit="10" stroke-width="3" d="m120.36 105.62-24.26-9.7"/><linearGradient id="a" x1="9.999" x2="37.433" y1="64.919" y2="64.919" gradientUnits="userSpaceOnUse"><stop offset="0" stop-color="#B72025"/><stop offset=".999" stop-color="#D32E2E"/></linearGradient><path fill="url(#a)" d="M36.91 72.18c-.58-8.22-2.34-16.24-5.09-23.19-2.32-5.88-5.33-10.94-8.47-14.24a20.744 20.744 0 0 0-5.61-4.15c-.9-.45-1.86-.63-2.86-.54-2.13.19-4.01 1.7-4.63 3.75-.84 2.76.61 5.5 3.18 6.58.86.36 1.75 1.04 2.58 1.73C29.48 53.23 28.79 87.47 28.26 97.7c-.06 1.14.85 2.1 2 2.1h4.99c1.06 0 1.94-.83 2-1.9-.01-.12.59-12.49-.34-25.72z"/><linearGradient id="b" x1="90.566" x2="118" y1="64.919" y2="64.919" gradientUnits="userSpaceOnUse"><stop offset="0" stop-color="#B72025"/><stop offset=".999" stop-color="#D32E2E"/></linearGradient><path fill="url(#b)" d="M91.09 72.18c.58-8.22 2.34-16.24 5.09-23.19 2.32-5.88 5.33-10.94 8.47-14.24 1.58-1.66 3.57-3.13 5.61-4.15.9-.45 1.86-.63 2.86-.54 2.13.19 4.01 1.7 4.63 3.75.84 2.76-.61 5.5-3.18 6.58-.86.36-1.75 1.04-2.58 1.73-13.45 11.11-12.77 45.34-12.24 55.57.06 1.14-.85 2.1-2 2.1h-4.99c-1.06 0-1.94-.83-2-1.9-.01-.11-.61-12.48.33-25.71z"/><path fill="#434343" d="M15.35 33.04c.37 0 .71.08 1.05.25 1.74.86 3.43 2.12 4.77 3.53 2.88 3.03 5.67 7.75 7.85 13.28 2.64 6.67 4.33 14.38 4.89 22.3.78 10.95.49 21.29.37 24.4H31.3c.26-5.86.42-16.3-.95-26.95-1.89-14.69-6.08-24.8-12.44-30.05-1.01-.83-2.1-1.67-3.33-2.18-1.23-.52-1.84-1.72-1.47-2.94.27-.88 1.1-1.55 2.02-1.63.08-.01.15-.01.22-.01m0-3c-.16 0-.32.01-.48.02-2.13.19-4.01 1.7-4.63 3.75-.84 2.76.61 5.5 3.18 6.58.86.36 1.75 1.04 2.58 1.73C29.47 53.23 28.78 87.47 28.25 97.7c-.06 1.14.85 2.1 2 2.1h4.99c1.06 0 1.94-.83 2-1.9.01-.12.61-12.5-.33-25.72-.58-8.22-2.34-16.24-5.09-23.19-2.32-5.88-5.33-10.94-8.47-14.24a20.744 20.744 0 0 0-5.61-4.15 5.41 5.41 0 0 0-2.39-.56zm97.3 3c.07 0 .14 0 .22.01.92.08 1.76.75 2.02 1.63.37 1.22-.23 2.42-1.47 2.94-1.22.51-2.32 1.35-3.33 2.18-6.36 5.25-10.55 15.36-12.44 30.05-1.37 10.65-1.21 21.09-.95 26.95h-2.98c-.12-3.12-.41-13.45.37-24.4.56-7.92 2.25-15.63 4.89-22.3 2.19-5.53 4.98-10.25 7.85-13.28 1.34-1.41 3.03-2.66 4.77-3.53.34-.17.68-.25 1.05-.25m0-3c-.83 0-1.63.19-2.38.56a20.44 20.44 0 0 0-5.61 4.15c-3.14 3.3-6.14 8.36-8.47 14.24-2.75 6.95-4.51 14.97-5.09 23.19-.94 13.22-.34 25.59-.33 25.72.06 1.06.93 1.9 2 1.9h4.99c1.15 0 2.06-.96 2-2.1-.54-10.24-1.22-44.47 12.24-55.58.83-.68 1.71-1.36 2.58-1.73 2.57-1.08 4.02-3.82 3.18-6.58-.62-2.05-2.5-3.56-4.63-3.75-.16-.01-.32-.02-.48-.02z" opacity=".2"/><linearGradient id="c" x1="64" x2="64" y1="27.578" y2="102.76" gradientUnits="userSpaceOnUse"><stop offset="0" stop-color="#E53A35"/><stop offset="1" stop-color="#C62828"/></linearGradient><path fill="url(#c)" d="M12.98 109.28h-6c-1.66 0-3-1.34-3-3L4.03 36c0-5.2 4.22-9.41 9.41-9.41H114.6c5.2 0 9.41 4.21 9.41 9.41v70.27c0 1.66-1.34 3-3 3h-6c-1.66 0-3-1.34-3-3V44.01c0-2.99-2.42-5.41-5.41-5.41H19.45a3.415 3.415 0 0 0-3.41 3.41l-.05 64.28a3.009 3.009 0 0 1-3.01 2.99z"/><path fill="#434343" d="M114.6 29.59c3.54 0 6.41 2.88 6.41 6.41v70.27h-6V44.01c0-4.64-3.77-8.41-8.41-8.41H19.45c-1.71 0-3.32.67-4.53 1.88s-1.88 2.82-1.88 4.53l-.05 64.28h-6L7.03 36c0-3.53 2.88-6.41 6.41-6.41H114.6m0-3H13.45c-5.2 0-9.41 4.21-9.41 9.41l-.05 70.28c0 1.66 1.34 3 3 3h6c1.66 0 3-1.34 3-3L16.04 42a3.415 3.415 0 0 1 3.41-3.41h87.16c2.99 0 5.41 2.42 5.41 5.41v62.27c0 1.66 1.34 3 3 3h6c1.66 0 3-1.34 3-3V36.01c0-5.2-4.22-9.42-9.42-9.42z" opacity=".2"/></svg>