<svg xmlns="http://www.w3.org/2000/svg" viewBox="0 0 128 128"><path fill="#458C00" d="M93.82 39.55c.4-.01 8.97.51 12.44.26s4.68.11 4.68.11l-.61 1.76s1.14.03-4.4.28-15.58 1.71-16.74 1.01c-1.16-.69 4.63-3.42 4.63-3.42z"/><path fill="#6A9600" d="M108.74 16.2c.01-.34.2-.67.2-.67l-2.46-1.66s-8.52 9.1-11.5 12-5.43 5.66-7.3 7.66c-.95 1.02-1.02 2.52-.87 3.76 6.46-8 14.94-13.49 21.93-21.09z"/><path fill="#468C00" d="M111.64 18.45s-2.32-1.39-2.73-1.78a.567.567 0 0 1-.17-.47c-6.99 7.59-15.48 13.09-21.93 21.09.15 1.19.52 2.14.52 2.14s4.43-1.41 4.62-1.75 7.27-6.52 13.16-12.26 6.53-6.97 6.53-6.97z"/><linearGradient id="a" x1="125.22" x2="144.49" y1="43.776" y2="43.776" gradientTransform="rotate(43.128 126.947 -1.711)" gradientUnits="userSpaceOnUse"><stop offset="0" stop-color="#7CB342"/><stop offset="1" stop-color="#8BC34A"/></linearGradient><path fill="url(#a)" d="M86.07 39.4c.26-.14 7.54-2.38 12.25-3.54s14.22-4.54 15.8-5.26 4.49-1.75 4.49-1.75l1.42 2.49s-13.9 6.13-20.84 8.43-11.69 4.19-13.53 5.19-1.36-2.7-1.36-2.7l1.77-2.86z"/><linearGradient id="b" x1="101.42" x2="124.75" y1="45.854" y2="45.854" gradientTransform="rotate(43.128 126.947 -1.711)" gradientUnits="userSpaceOnUse"><stop offset="0" stop-color="#558B2F"/><stop offset="1" stop-color="#8BC34A"/></linearGradient><path fill="url(#b)" d="M85.87 4.79s.65-.56 1.53-.25.58 1.46.58 1.46-2.36 13.7-2.48 15.91c-.13 2.21-1.89 11.82-1.86 14.56.02 2.74-1.78 6.74-1.78 6.74l-4.07-3.94s2.29-3.68 3.13-8.46 3.36-15.75 3.76-19.9 1.19-6.12 1.19-6.12z"/><path fill="#468C00" d="M90.51 27.37c.37-1.26.81-2.5 1.39-3.72 2.25-4.75 5.91-13.36 6.6-14.78s.5-1.23.5-1.23-.89-.57-1.9-.87c-.56-.17-.97.01-1.37.15-2.44 6.65-5.41 13.29-5.22 20.45z"/><linearGradient id="c" x1="108.47" x2="126.86" y1="28.112" y2="63.124" gradientTransform="rotate(43.128 126.947 -1.711)" gradientUnits="userSpaceOnUse"><stop offset=".005" stop-color="#558B2F"/><stop offset="1" stop-color="#8BC34A"/></linearGradient><path fill="url(#c)" d="M88.05 38.67c1.02-3.86 1.41-7.66 2.47-11.3-.2-7.16 2.77-13.79 5.22-20.45-.32.11-.64.2-1.03.06-.88-.31-2.77-1.05-2.77-1.05s-1.47 1.99-3.03 7.38-3.66 12.88-5.01 16.4c-1.36 3.52-3.76 11.62-3.76 11.62s1.87 2.14 3.34 4.03 1.81 2.08 1.81 2.08 1.39-3.58 2.76-8.77z"/><path fill="#424242" d="M92.82 8.42c.45.17.9.34 1.22.45.34.12.7.18 1.06.18.48 0 .88-.11 1.22-.22-.35.78-.86 1.94-1.48 3.36-1.42 3.24-3.36 7.68-4.74 10.59-.58 1.22-1.07 2.54-1.5 4.02-.45 1.56-.78 3.14-1.02 4.34a2.006 2.006 0 0 0 1.97 2.39c.54 0 1.08-.22 1.47-.64 1.53-1.66 3.34-3.59 5.37-5.58 2.34-2.28 7.92-8.19 10.38-10.8.06.63.34 1.2.79 1.62.21.2.62.49 1.11.82-.9 1-2.42 2.59-4.93 5.04-3.52 3.43-7.49 7.03-10.11 9.42-1.79 1.63-2.67 2.43-3.01 2.79-.62.65-.73 1.65-.26 2.42a1.99 1.99 0 0 0 2.27.88c1.67-.48 4.07-1.16 6.1-1.66-.06.02-.12.04-.17.06-.92.31-1.48 1.23-1.34 2.18.03.22.1.42.19.61-2.6.25-5.16.48-6.64.48-.37 0-.58-.01-.7-.03-.07-.01-.14-.01-.2-.01-.25 0-.5.05-.73.14-1.54.61-2.79 1.14-3.71 1.59-.33.16-.61.41-.8.71-.55-.7-1.19-1.47-1.91-2.32a.927.927 0 0 0-.14-.14l-2.27-2.2c.81-1.6 2.03-4.41 2.62-7.73.13-.74.3-1.63.5-2.64.25.25.58.44.95.53.16.04.31.05.46.05.85 0 1.62-.54 1.9-1.38 1.06-3.23 2.32-7.6 3.43-11.46l.69-2.41c.71-2.63 1.45-4.39 1.96-5.45m-5.95-3.97c-.6 0-1 .34-1 .34s-.8 1.96-1.2 6.12-2.91 15.13-3.76 19.9-3.13 8.46-3.13 8.46l3.37 3.26c.66.79 1.54 1.84 2.31 2.83 1.47 1.89 1.81 2.08 1.81 2.08s.41-1.04 1-2.8c.85-.41 2.04-.93 3.57-1.53.25.03.55.04.91.04 3.28 0 10.71-1 15.19-1.2 5.54-.25 4.4-.28 4.4-.28l.61-1.76s-.67-.2-2.45-.2c-.61 0-1.34.02-2.23.09-.66.05-1.51.07-2.46.07-1.44 0-3.09-.04-4.63-.1h.01c6.94-2.3 20.84-8.43 20.84-8.43l-1.42-2.49s-2.91 1.03-4.49 1.75-11.09 4.1-15.8 5.26c-1.88.46-4.17 1.1-6.26 1.7.84-.88 7.48-6.71 13.07-12.15 5.89-5.74 6.52-6.96 6.52-6.96s-2.32-1.39-2.73-1.78a.567.567 0 0 1-.17-.47c.01-.34.2-.67.2-.67l-2.46-1.66s-8.52 9.1-11.5 12c-2.08 2.03-3.9 3.98-5.45 5.65.28-1.41.58-2.8.98-4.17.37-1.26.81-2.5 1.39-3.72 2.25-4.75 5.91-13.36 6.6-14.78.53-1.11.54-1.23.51-1.23l-.02.02s-.89-.57-1.9-.87c-.16-.05-.31-.07-.45-.07-.34 0-.63.12-.91.22-.21.07-.41.13-.63.13-.13 0-.26-.02-.4-.07-.88-.31-2.77-1.05-2.77-1.05s-1.47 1.99-3.03 7.38c-1.24 4.3-2.82 9.91-4.1 13.8.35-2.3.65-4.33.7-5.2C85.64 19.7 88 5.99 88 5.99s.3-1.15-.58-1.45c-.21-.06-.39-.09-.55-.09z" opacity=".2"/><linearGradient id="d" x1="33.199" x2="57.588" y1="66.494" y2="92.738" gradientUnits="userSpaceOnUse"><stop offset=".005" stop-color="#FFA24A"/><stop offset=".695" stop-color="#E45E00"/><stop offset="1" stop-color="#EB6700"/></linearGradient><path fill="url(#d)" d="M60.3 38.58c-3.71 4.03-5.81 7-9.68 11.91s-4.91 8.04-8.78 12.06-8.34 9.38-12.06 14.29-6.1 10.72-9.83 15.63-6.1 8.34-8.49 13.4-4.62 9.83-5.51 12.21-.3 4.91 2.38 4.91 4.91-2.08 11.32-6.1c6.4-4.02 14-9.23 16.23-12.36s8.49-7.3 10.72-8.49 11.76-9.23 14-11.91c2.23-2.68 7.59-8.19 11.46-11.17C75.93 70 83.82 62.4 85.31 60.62c1.49-1.79 5.06-5.66 5.36-8.04s1.94-8.64-7-16.08-18.16-3.58-23.37 2.08z"/><path fill="#424242" d="M73.23 35.38c2.94 0 5.8 1.15 8.52 3.42 7.04 5.87 6.38 10.38 6.02 12.81-.03.22-.06.42-.08.59-.12.81-1.46 2.72-3.98 5.66-.26.31-.5.59-.7.83-1.36 1.63-9.15 9.11-12.78 11.9-4.1 3.15-9.57 8.77-11.94 11.62-2.05 2.46-11.25 10.2-13.1 11.18-2.09 1.11-9.03 5.59-11.75 9.39-1.54 2.16-7.29 6.48-15.38 11.56-1.67 1.05-3.03 1.95-4.23 2.74-2.83 1.87-4.23 2.77-5.25 2.89.01-.2.06-.49.19-.85.89-2.36 3.29-7.47 5.41-11.98 2.21-4.69 4.39-7.89 8.16-12.87 1.98-2.61 3.58-5.42 5.13-8.14 1.52-2.67 2.96-5.19 4.7-7.49C36.09 73.47 40.4 68.36 44 64.63c2.42-2.52 3.82-4.69 5.29-6.99 1.04-1.63 2.12-3.31 3.69-5.29.99-1.26 1.86-2.38 2.68-3.44 2.33-3.01 4.17-5.39 6.85-8.3 3.05-3.32 6.96-5.23 10.72-5.23m0-3c-5.15 0-9.77 2.77-12.93 6.2-3.71 4.03-5.81 7-9.68 11.91s-4.91 8.04-8.78 12.06-8.34 9.38-12.06 14.29-6.1 10.72-9.83 15.63c-3.72 4.91-6.1 8.34-8.49 13.4-2.38 5.06-4.62 9.83-5.51 12.21s-.3 4.91 2.38 4.91 4.91-2.08 11.32-6.1 14-9.23 16.23-12.36 8.49-7.3 10.72-8.49 11.76-9.23 14-11.91c2.23-2.68 7.59-8.19 11.46-11.17C75.93 70 83.82 62.4 85.31 60.62c1.49-1.79 5.06-5.66 5.36-8.04s1.94-8.64-7-16.08c-3.52-2.94-7.09-4.12-10.44-4.12z" opacity=".2"/><path fill="#DE5900" d="M78.79 43.29s.21-.04.55-.06c.33-.02.86-.01 1.43.11.58.09 1.23.3 1.89.6.32.17.68.31.98.53.32.2.63.43.95.66.29.26.58.52.84.79.28.26.49.58.72.85.43.59.77 1.18.98 1.73.23.54.34 1.02.4 1.37.05.35.06.56.06.56l-.13.08s-.39-.6-1.06-1.44c-.66-.85-1.65-1.88-2.76-2.77-1.1-.91-2.32-1.66-3.28-2.13-.95-.48-1.63-.74-1.63-.74l.06-.14z"/><path fill="#A84300" d="M66.24 51.69s.2-.07.55-.16c.17-.04.38-.09.64-.1.26-.03.55-.04.85-.02.31.01.64.04.99.12.35.07.71.16 1.07.31.35.15.75.28 1.09.51.36.2.69.45 1.03.7.31.28.62.56.89.87.29.29.5.65.72.96.21.32.38.66.52.99.16.32.25.64.32.94.16.59.2 1.11.19 1.47s-.04.57-.04.57l-.14.05s-.07-.17-.2-.46c-.12-.3-.34-.7-.61-1.18-.54-.96-1.45-2.14-2.6-3.04-1.13-.94-2.46-1.59-3.51-1.92-.52-.17-.96-.29-1.28-.35-.32-.07-.5-.1-.5-.1l.02-.16z"/><path fill="#DE5900" d="M76.41 52.67s.19-.01.5 0c.3.01.77.08 1.25.25.5.15 1.05.41 1.59.76.25.19.55.36.79.6.25.22.49.47.73.71.21.27.42.54.61.81.21.26.34.58.49.86.28.58.48 1.15.56 1.67.11.51.11.96.1 1.27-.02.32-.06.5-.06.5l-.14.06s-.25-.57-.71-1.39c-.45-.82-1.15-1.86-1.99-2.78-.82-.94-1.76-1.77-2.52-2.31-.75-.55-1.29-.87-1.29-.87l.09-.14zM63.82 37.24s.16-.06.42-.13c.25-.07.65-.13 1.09-.11.45 0 .95.09 1.46.26.25.1.53.17.76.32.25.13.49.28.74.43.22.18.45.36.65.55.22.18.38.42.56.62.17.2.31.44.43.65.13.21.22.43.3.64.33.83.27 1.5.27 1.5l-.12.09s-.31-.41-.83-.98c-.51-.57-1.27-1.27-2.12-1.85-.83-.6-1.74-1.09-2.45-1.39-.7-.31-1.2-.47-1.2-.47l.04-.13zM47.65 55.73s.68-.22 1.64-.16c.24.01.5.03.76.09.27.05.55.1.83.21s.59.19.86.36c.28.15.56.32.84.51.26.21.51.43.75.67.25.22.42.52.61.78.18.27.32.55.42.83.13.26.18.55.23.8.07.24.06.49.06.7.01.2-.02.39-.05.54-.05.3-.11.46-.11.46l-.14.04s-.05-.13-.13-.37c-.04-.12-.09-.26-.17-.42-.08-.15-.15-.34-.26-.52-.4-.76-1.15-1.64-2.09-2.3-.91-.69-1.96-1.19-2.76-1.53-.79-.34-1.34-.55-1.34-.55l.05-.14z"/><path fill="#AB4400" d="M64.7 62.54s.19-.03.49-.04c.29-.01.77.02 1.26.15.26.05.52.14.79.25s.56.23.83.4.57.32.82.54c.26.21.51.43.76.66.23.25.45.51.65.77.22.25.36.55.53.81.31.55.53 1.1.65 1.61.13.49.17.93.17 1.24s-.02.5-.02.5l-.13.07s-.29-.55-.79-1.32c-.49-.78-1.24-1.76-2.12-2.62-.85-.88-1.83-1.64-2.62-2.11-.78-.49-1.34-.76-1.34-.76l.07-.15z"/><path fill="#C95100" d="M49.77 72.5s.19-.03.49-.04c.29-.01.77.02 1.26.15.26.05.52.14.79.25s.56.23.83.4.57.32.82.54c.26.21.51.43.76.66.23.25.45.51.65.77.22.25.36.55.53.81.31.55.53 1.1.65 1.61.13.49.17.93.17 1.24s-.02.5-.02.5l-.13.07s-.29-.55-.79-1.32c-.49-.78-1.24-1.76-2.12-2.62-.85-.88-1.83-1.64-2.62-2.11-.78-.49-1.34-.76-1.34-.76l.07-.15z"/><path fill="#DE5900" d="M40.46 74.56s.19-.06.51-.12c.31-.06.8-.1 1.34-.04.28.02.57.06.87.13s.62.15.93.28.65.24.95.43c.31.17.61.36.91.56.28.22.56.45.82.68.27.22.48.51.71.75.42.52.76 1.05.98 1.55a5.357 5.357 0 0 1 .5 1.77l-.12.09s-.4-.52-1.06-1.25-1.62-1.63-2.69-2.38c-1.05-.77-2.22-1.4-3.13-1.76-.9-.38-1.54-.56-1.54-.56l.02-.13zM26.53 90.78s.21-.02.56-.01c.34.01.87.07 1.43.23.29.07.59.18.9.32s.64.28.95.48.65.38.94.64c.3.24.6.5.88.77.27.29.53.58.77.88.26.29.43.63.64.93.37.63.66 1.26.82 1.83.18.56.25 1.06.28 1.41.02.35.01.56.01.56l-.13.07s-.34-.64-.93-1.55c-.58-.91-1.47-2.07-2.5-3.07a16.468 16.468 0 0 0-3.1-2.47c-.92-.57-1.58-.87-1.58-.87l.06-.15zm-4.43 16.23s.15-.05.39-.1c.23-.05.6-.07.98-.01.2.02.41.06.62.13s.44.14.64.26.44.21.63.38c.2.15.39.31.58.48.17.19.33.38.48.57.16.19.26.42.38.62.21.42.35.85.4 1.24.13.77-.06 1.37-.06 1.37l-.13.07s-.22-.39-.58-.94c-.36-.56-.9-1.26-1.54-1.87-1.22-1.29-2.84-2.07-2.84-2.07l.05-.13zm-11.47 7.58s.14-.05.35-.11.55-.09.9-.05c.36.02.76.13 1.15.31.19.1.4.18.57.33.18.13.35.28.52.43.15.17.29.34.43.52.15.17.22.38.33.56.18.38.29.77.32 1.13a2.8 2.8 0 0 1-.12 1.25l-.13.07s-.19-.34-.52-.83c-.32-.49-.8-1.11-1.36-1.64-1.08-1.14-2.5-1.83-2.5-1.83l.06-.14z"/></svg>