<svg xmlns="http://www.w3.org/2000/svg" viewBox="0 0 128 128"><linearGradient id="a" x1="76.152" x2="86.129" y1="58.593" y2="94.808" gradientTransform="rotate(-30.052 61.43 99.937)" gradientUnits="userSpaceOnUse"><stop offset="0" stop-color="#CC7E10"/><stop offset=".119" stop-color="#CE8215"/><stop offset=".267" stop-color="#D58C24"/><stop offset=".429" stop-color="#E09E3E"/><stop offset=".6" stop-color="#F0B660"/><stop offset=".739" stop-color="#FFCD82"/><stop offset=".793" stop-color="#FDCA7D"/><stop offset=".861" stop-color="#F8C16E"/><stop offset=".934" stop-color="#F0B255"/><stop offset="1" stop-color="#E6A138"/></linearGradient><path fill="url(#a)" d="m99 13-4.67 4S83.9 27.07 78.84 34.51c0 0-11.59 6.55-13.51 12.49 0 0-8.62 5.64-12.17 11.5 0 0-7.08 4.21-10.9 11.39 0 0-8.52 5.85-11.28 11.27 0 0-8.21 4.98-10.54 10.95 0 0-7.94 5.06-9.73 10.95 0 0-9.38 9.55-5.56 16.16 5.36 9.27 25.29 5.92 44.86-10.89C73.67 88 102.86 59.65 122.67 24.67 127.67 15.83 115.42.56 99 13z"/><linearGradient id="b" x1="134.19" x2="128.92" y1="45.569" y2="57.279" gradientTransform="rotate(-12.312 -15.689 192.364)" gradientUnits="userSpaceOnUse"><stop offset="0" stop-color="#822100"/><stop offset=".167" stop-color="#AD5D30"/><stop offset=".326" stop-color="#D08F57"/><stop offset=".465" stop-color="#EAB374"/><stop offset=".578" stop-color="#F9C986"/><stop offset=".65" stop-color="#FFD18C"/></linearGradient><path fill="url(#b)" d="M87.5 24.42c.44-.05 1.39-1.9 2.02-2.19C91 21.55 94.39 20.02 96 20c14.61-.26 11.65 7.59 11.41 7.56-6.7-.8-17.16-1.23-19.91-3.14z"/><linearGradient id="c" x1="120.56" x2="114.03" y1="54.535" y2="69.042" gradientTransform="rotate(-11.081 -25.041 205.766)" gradientUnits="userSpaceOnUse"><stop offset="0" stop-color="#822100"/><stop offset=".167" stop-color="#AD5D30"/><stop offset=".326" stop-color="#D08F57"/><stop offset=".465" stop-color="#EAB374"/><stop offset=".578" stop-color="#F9C986"/><stop offset=".65" stop-color="#FFD18C"/></linearGradient><path fill="url(#c)" d="M77 36c.45-.04 2.74-3.89 9.17-3.25C101.05 34.23 96.25 41.99 96 42c-8.18.45-22.83-1.67-19-6z"/><linearGradient id="d" x1="100.43" x2="94.659" y1="63.279" y2="76.104" gradientTransform="rotate(-16.206 15.417 155.348)" gradientUnits="userSpaceOnUse"><stop offset="0" stop-color="#822100"/><stop offset=".167" stop-color="#AD5D30"/><stop offset=".326" stop-color="#D08F57"/><stop offset=".465" stop-color="#EAB374"/><stop offset=".578" stop-color="#F9C986"/><stop offset=".65" stop-color="#FFD18C"/></linearGradient><path fill="url(#d)" d="M60.77 52.82c-1.06-.1-1.35-1.14-.61-1.9.31-.32 1.13-1.14 1.33-1.25 1.58-.87 3.88-2.93 5.67-3.08 16.12-1.38 12.94 8.93 12.67 8.92-6.43-.33-13.02-2.12-19.06-2.69z"/><linearGradient id="e" x1="80.897" x2="74.783" y1="73.948" y2="87.534" gradientTransform="rotate(-16.206 15.417 155.348)" gradientUnits="userSpaceOnUse"><stop offset="0" stop-color="#822100"/><stop offset=".167" stop-color="#AD5D30"/><stop offset=".326" stop-color="#D08F57"/><stop offset=".465" stop-color="#EAB374"/><stop offset=".578" stop-color="#F9C986"/><stop offset=".65" stop-color="#FFD18C"/></linearGradient><path fill="url(#e)" d="M45.84 68.2c-1.1-.93-1.94-2.07-.7-2.79.01 0 .01-.01.02-.01 1.53-.84 5.04-2.71 6.76-2.86 15.59-1.34 12.01 8.28 11.75 8.3-7.77.58-15.5-.67-17.83-2.64z"/><linearGradient id="f" x1="64.949" x2="59.035" y1="83.691" y2="96.834" gradientTransform="rotate(-9.816 -8.325 200.945)" gradientUnits="userSpaceOnUse"><stop offset="0" stop-color="#822100"/><stop offset=".167" stop-color="#AD5D30"/><stop offset=".326" stop-color="#D08F57"/><stop offset=".465" stop-color="#EAB374"/><stop offset=".578" stop-color="#F9C986"/><stop offset=".65" stop-color="#FFD18C"/></linearGradient><path fill="url(#f)" d="M31.26 80.19c.16-.67 2.44-2.43 3.07-2.69 1.5-.62 4.6-1.33 6.22-1.29 14.58.38 11.29 8.03 11.04 8.04-8.98.35-17.72-1.15-20.33-4.06z"/><linearGradient id="g" x1="46.743" x2="40.36" y1="92.711" y2="106.9" gradientTransform="rotate(-16.206 15.417 155.348)" gradientUnits="userSpaceOnUse"><stop offset="0" stop-color="#822100"/><stop offset=".167" stop-color="#AD5D30"/><stop offset=".326" stop-color="#D08F57"/><stop offset=".465" stop-color="#EAB374"/><stop offset=".578" stop-color="#F9C986"/><stop offset=".65" stop-color="#FFD18C"/></linearGradient><path fill="url(#g)" d="M16.24 95.35c.43-.08 1.88-1.99 2.48-2.33 1.42-.78 4.7-2.53 6.3-2.66 14.53-1.25 12.11 6.71 11.87 6.76-10.22 2.21-18.22 1.55-20.65-1.77z"/><path fill="#424242" d="M111.09 11.31c3.58 0 6.77 1.8 8.52 4.8 1.39 2.39 1.56 5.1.44 7.07-15.57 27.52-39.12 54.62-72 82.88-11.1 9.54-23.08 15.24-32.03 15.24-2.84 0-6.57-.62-8.28-3.57-2.17-3.76 3.09-10.5 5.1-12.56.34-.34.59-.77.73-1.23 1.2-3.94 6.53-8.04 8.48-9.29.54-.34.95-.85 1.18-1.44 1.6-4.1 7.26-8.23 9.3-9.48.48-.29.86-.7 1.12-1.2 1.98-3.87 8.11-8.65 10.31-10.16.4-.27.72-.64.95-1.06 3.36-6.32 9.73-10.19 9.79-10.22.42-.25.78-.61 1.04-1.03 3.14-5.2 11.16-10.49 11.24-10.54.57-.38 1-.94 1.21-1.59 1.13-3.5 8.04-8.48 12.13-10.8.4-.23.74-.54 1-.92 4.63-6.8 14.17-16.14 15.03-16.98l4.53-3.88c3.5-2.65 7.03-4.04 10.21-4.04m0-3c-3.56 0-7.67 1.34-12.09 4.69l-4.67 4S83.9 27.07 78.84 34.51c0 0-11.59 6.55-13.51 12.49 0 0-8.62 5.64-12.17 11.5 0 0-7.08 4.21-10.9 11.39 0 0-8.52 5.85-11.28 11.27 0 0-8.21 4.98-10.54 10.95 0 0-7.94 5.06-9.73 10.95 0 0-9.38 9.55-5.56 16.16 1.94 3.37 5.81 5.07 10.88 5.07 8.9 0 21.51-5.25 33.98-15.96C73.67 88 102.86 59.65 122.67 24.67c3.65-6.46-1.91-16.36-11.58-16.36z" opacity=".2"/></svg>