<svg xmlns="http://www.w3.org/2000/svg" viewBox="0 0 128 128"><path fill="#2B2B2B" d="M82.68 42.08 86 45.4c5.85 5.85 15.42 5.85 21.27 0l12.41-12.41c5.85-5.85 5.85-15.42 0-21.27l-3.32-3.32c-5.85-5.85-15.42-5.85-21.27 0L82.68 20.8c-5.85 5.85-5.85 15.43 0 21.28zm10.57-9.01c-3.11-3.11-3.08-8.24.07-11.39l6.69-6.69c3.15-3.15 8.28-3.18 11.39-.07l1.77 1.77c3.11 3.11 3.08 8.24-.07 11.39l-6.69 6.69c-3.15 3.15-8.28 3.18-11.39.07l-1.77-1.77zm-72.4 49.57L8.44 95.05c-5.85 5.85-5.85 15.42 0 21.27l3.32 3.32c5.85 5.85 15.42 5.85 21.27 0l12.41-12.41c5.85-5.85 5.85-15.42 0-21.27l-3.32-3.32c-5.85-5.85-15.42-5.85-21.27 0zm14.03 12.33c3.11 3.11 3.08 8.24-.07 11.39l-6.69 6.69c-3.15 3.15-8.28 3.18-11.39.07l-1.77-1.77c-3.11-3.11-3.08-8.24.07-11.39l6.69-6.69c3.15-3.15 8.28-3.18 11.39-.07l1.77 1.77z"/><radialGradient id="a" cx="65.944" cy="63.19" r="59.75" gradientTransform="rotate(-45.001 66.007 65.878)" gradientUnits="userSpaceOnUse"><stop offset=".596"/><stop offset=".676" stop-color="#060606"/><stop offset=".784" stop-color="#171717"/><stop offset=".908" stop-color="#333"/><stop offset="1" stop-color="#4D4D4D"/></radialGradient><circle cx="64.06" cy="64.02" r="59.75" fill="url(#a)"/><path fill="#eee" d="M105.73 6.01c3.5 0 6.77 1.35 9.22 3.8l3.32 3.32c5.09 5.09 5.09 13.36 0 18.44l-2.91 2.91c-.62.62-.76 1.58-.35 2.36 4.44 8.31 6.79 17.71 6.79 27.18 0 31.84-25.91 57.75-57.75 57.75-9.47 0-18.87-2.35-27.18-6.79-.3-.16-.62-.24-.94-.24-.52 0-1.03.2-1.41.59l-2.91 2.91c-2.45 2.45-5.73 3.8-9.22 3.8s-6.77-1.35-9.22-3.8l-3.32-3.32c-5.09-5.09-5.09-13.36 0-18.44l2.91-2.91c.62-.62.76-1.58.35-2.36C8.67 82.9 6.32 73.5 6.32 64.03c0-31.84 25.91-57.75 57.75-57.75 9.47 0 18.87 2.35 27.18 6.79.3.16.62.24.94.24.52 0 1.03-.2 1.41-.59l2.91-2.91c2.45-2.45 5.72-3.8 9.22-3.8m6.61 24.83c.53 0 1.04-.21 1.41-.59l.75-.75c1.9-1.9 2.95-4.43 2.97-7.11.02-2.7-1.01-5.22-2.9-7.11l-1.77-1.77c-1.87-1.87-4.38-2.9-7.05-2.9-2.71 0-5.26 1.05-7.17 2.97l-.75.75c-.41.41-.62.99-.58 1.57.05.58.34 1.12.81 1.46 4.86 3.54 9.12 7.8 12.66 12.66.34.47.88.77 1.46.81.06 0 .11.01.16.01m-89.97 86.6c2.71 0 5.26-1.05 7.17-2.97l.75-.75c.41-.41.62-.99.58-1.57-.05-.58-.34-1.12-.81-1.46-4.86-3.54-9.12-7.8-12.66-12.66a1.98 1.98 0 0 0-1.46-.81c-.05 0-.1-.01-.15-.01-.53 0-1.04.21-1.41.59l-.75.75c-1.9 1.9-2.95 4.43-2.97 7.11-.02 2.7 1.01 5.22 2.9 7.11l1.77 1.77c1.86 1.87 4.36 2.9 7.04 2.9M105.73 4.01c-3.86 0-7.71 1.46-10.64 4.39l-2.91 2.91a59.354 59.354 0 0 0-28.12-7.04c-33 0-59.75 26.75-59.75 59.75 0 10.17 2.55 19.74 7.03 28.12l-2.91 2.91c-5.85 5.85-5.85 15.42 0 21.27l3.32 3.32c2.92 2.92 6.78 4.39 10.64 4.39s7.71-1.46 10.64-4.39l2.91-2.91a59.464 59.464 0 0 0 28.12 7.03c33 0 59.75-26.75 59.75-59.75 0-10.17-2.55-19.74-7.03-28.12l2.91-2.91c5.85-5.85 5.85-15.42 0-21.27l-3.32-3.32c-2.93-2.92-6.79-4.38-10.64-4.38zm6.61 24.83a60.062 60.062 0 0 0-13.1-13.1l.75-.75a8.124 8.124 0 0 1 5.76-2.38c2.05 0 4.09.77 5.64 2.32l1.77 1.77c3.11 3.11 3.08 8.24-.07 11.39l-.75.75zm-89.97 86.6c-2.05 0-4.09-.77-5.64-2.32l-1.77-1.77c-3.11-3.11-3.08-8.24.07-11.39l.75-.75c3.66 5.02 8.08 9.44 13.1 13.1l-.75.75a8.166 8.166 0 0 1-5.76 2.38z" opacity=".2"/><radialGradient id="b" cx="64.005" cy="63.809" r="54.63" gradientUnits="userSpaceOnUse"><stop offset="0" stop-color="#EFC700"/><stop offset="1" stop-color="#FF8D03"/></radialGradient><path fill="url(#b)" d="M118.76 64c0 .45-.09.92-.1 1.36-.01.45-1.45.85-1.48 1.29-.02.45.91.95.88 1.4s-.14.9-.18 1.34c-.04.45.6.98.54 1.43s-1.46.71-1.52 1.16c-.07.44-.3.85-.38 1.29s-.42.82-.51 1.25c-.09.44.17.94.07 1.37-.1.44.35 1 .24 1.44-.11.43-.83.7-.95 1.13s-.3.83-.43 1.26.92 1.24.78 1.66-.43.82-.58 1.24-1.5.39-1.66.81 1.11 1.42.93 1.83c-.17.41-.88.61-1.07 1.01-.18.41.01 1.01-.18 1.41s-1.23.4-1.43.8-.31.84-.53 1.24c-.21.39-.29.87-.51 1.25-.22.39-.59.69-.83 1.07-.23.38-.87.5-1.12.87-.24.38.81 1.62.55 1.99-.25.37-1.17.29-1.43.66-.26.36-.56.71-.83 1.06-.27.36-.52.73-.8 1.08s-.98.35-1.27.69.39 1.52.09 1.86-.7.61-1 .93c-.3.33-1.3.01-1.61.33s-.51.76-.83 1.07-.79.47-1.11.77c-.33.3-.9.32-1.24.62s-.86.35-1.2.63c-.34.29-.12 1.26-.47 1.54s-1.11.02-1.47.29.25 1.85-.11 2.11-.77.51-1.14.76-1.18-.13-1.55.11c-.38.24-.35 1.16-.73 1.39s-1.48-.72-1.87-.49c-.39.22-.17 1.53-.57 1.75-.39.21-1.24-.4-1.63-.2-.4.2-.4 1.22-.81 1.41-.4.19-1.39-.86-1.8-.67-.41.18-.69.62-1.11.79-.41.17-1.04-.21-1.45-.05-.42.16-.2 1.99-.62 2.15-.42.15-.87.3-1.29.44s-1.23-.87-1.66-.73c-.43.13-.53 1.4-.96 1.52s-1.27-1.27-1.7-1.16-.64 1.12-1.08 1.22-.83.43-1.27.52-.81.62-1.25.7-.93-.04-1.38.03c-.44.07-1.06-1.16-1.51-1.1-.44.05-.91-.29-1.36-.24-.44.04-.8 1-1.25 1.04-.45.03-.93-.75-1.38-.73s-.86.75-1.31.76-.89-.04-1.34-.04-.91.61-1.35.6c-.45-.01-.9-.23-1.34-.25-.45-.02-.81-1.28-1.26-1.32-.45-.03-1 1.25-1.44 1.21-.45-.04-.8-.89-1.24-.95-.45-.06-1.05 1.02-1.49.96-.44-.07-.7-1.3-1.14-1.38s-.89-.04-1.33-.13-1.08.75-1.52.65-.91-.14-1.34-.25-.69-.91-1.12-1.03-.92-.07-1.34-.2c-.43-.13-.87-.24-1.29-.39-.42-.14-.88-.22-1.3-.37s-1 .07-1.41-.09c-.42-.16-.78-.5-1.19-.67s-.29-1.55-.7-1.74c-.41-.18-1.15.37-1.55.18s-.63-.73-1.03-.93-.9-.2-1.29-.42c-.39-.21-.49-.94-.88-1.16s-1.51.78-1.89.55-.53-.87-.9-1.11c-.38-.24-.28-1.19-.65-1.45-.37-.25-1.62.75-1.99.48-.36-.26-.45-.93-.81-1.2s-.35-1.02-.7-1.3-.4-.91-.74-1.2-1.43.29-1.76-.01c-.34-.3-.25-1.07-.58-1.37s-1.14-.11-1.46-.42.1-1.37-.22-1.69c-.31-.32-1.4.09-1.7-.24s-.21-1.03-.5-1.37c-.3-.34-.34-.89-.63-1.23s-.13-1.04-.41-1.39-1.85.31-2.12-.05.54-1.52.28-1.88-.1-1-.35-1.37-1.82.14-2.07-.23c-.24-.38.33-1.27.1-1.65s-1.47-.17-1.7-.56c-.22-.39.45-1.29.24-1.68s-1.05-.46-1.26-.86c-.2-.4-.26-.88-.46-1.28-.19-.4-.13-.93-.31-1.34s-.55-.74-.72-1.15-.9-.62-1.06-1.03c-.16-.42.86-1.29.7-1.71-.15-.42-1.17-.54-1.32-.96-.14-.42-.68-.74-.81-1.17s.85-1.19.73-1.62-.21-.86-.32-1.3c-.11-.43-.73-.75-.83-1.18-.1-.44-.5-.82-.58-1.26-.09-.44.38-.99.31-1.43-.08-.44.5-.98.44-1.42-.07-.44-.3-.85-.36-1.29-.05-.44.06-.89.02-1.34-.05-.47-.31-.89-.35-1.33-.03-.45.46-.91.44-1.36s-1.67-.83-1.68-1.28-.22-.91-.22-1.36.78-.9.79-1.35.79-.86.81-1.31 0-.88.03-1.33-.72-.96-.68-1.4c.04-.45.74-.82.79-1.26.06-.45.32-.85.38-1.29.07-.44.03-.89.11-1.33s.44-.81.53-1.25-1.2-1.17-1.11-1.61c.1-.44-.16-.98-.05-1.41s1.39-.56 1.51-1c.12-.43-.49-1.08-.36-1.51s1.14-.58 1.28-1 .07-.92.23-1.34c.15-.42-.16-1.02.01-1.44.16-.42.62-.72.79-1.13s.75-.65.93-1.05c.18-.41.7-.65.89-1.05s.15-.91.36-1.31c.2-.4.25-.87.47-1.26.21-.39.58-.69.8-1.08s-.23-1.17.01-1.56c.23-.38 1.46-.13 1.7-.51s-.06-1.1.19-1.47.5-.74.76-1.1-.38-1.4-.1-1.76c.27-.36 1.04-.34 1.32-.69s.19-1.02.48-1.36.75-.56 1.05-.89c.3-.34.57-.71.88-1.04.3-.33.95-.35 1.26-.67s.41-.87.73-1.18.93-.33 1.26-.63.94-.29 1.28-.58c.34-.3.28-1.05.62-1.34s1.11-.06 1.46-.34.61-.66.96-.93c.36-.27.74-.49 1.11-.75.36-.26 1.01-.09 1.38-.35.37-.25.6-.69.97-.93.38-.24.53-.81.92-1.05.38-.23.45-1 .84-1.22s1.07.07 1.46-.15c.39-.21.51-.95.91-1.16.4-.2 1.11.21 1.51.01.4-.19.93-.1 1.34-.28s.47-1.16.88-1.33 1.06.22 1.48.06 1.01.17 1.43.02.75-.5 1.18-.65c.42-.14.62-.98 1.05-1.11s1 .24 1.43.12.82-.37 1.25-.48.74-.74 1.18-.84 1.03.56 1.47.47.74-.9 1.18-.98.96.31 1.4.25c.44-.07.77-1.05 1.21-1.11.44-.05 1.06 1.41 1.5 1.37s.83-.71 1.27-.74c.45-.03.88-.19 1.33-.21s.9.26 1.35.24c.45-.01.89-.44 1.34-.44s.87 1.11 1.32 1.12.9-.64 1.35-.61c.45.02.98-1.24 1.43-1.21s.91.16 1.35.2c.45.04.82.86 1.26.92.45.06.99-.52 1.43-.46.44.07.76.98 1.2 1.05.44.08.99-.39 1.43-.3s.58 1.53 1.02 1.63 1.12-.84 1.55-.73.92.06 1.35.18.65.97 1.07 1.1c.43.13 1.18-.74 1.61-.6s.58 1.08 1 1.23.64.82 1.05.98c.42.16 1.21-.6 1.62-.43s1.03-.1 1.44.09c.41.18.31 1.46.72 1.65.4.19.83.33 1.23.53s.79.41 1.18.62.59.74.98.97c.39.22 1.01.04 1.39.27s1.11-.08 1.49.16.95.22 1.32.47.45.94.81 1.2.99.18 1.35.46c.36.27.42.94.77 1.22s1.05.15 1.39.44-.45 1.89-.12 2.19c.34.3 1.25-.06 1.57.24.33.3.71.55 1.03.87.32.31.14 1.11.45 1.43s1 .27 1.3.6 1.21.12 1.5.46c.3.34.88.45 1.16.8.29.34-.59 1.65-.31 2s1.48-.01 1.75.34c.27.36.08 1.06.34 1.43.26.36-.13 1.17.12 1.54s1.17.29 1.41.66c.24.38-.25 1.21-.02 1.59s1.97-.13 2.19.26-1.15 1.68-.94 2.07.64.65.85 1.05c.2.4 1.8.11 1.99.51s-1.28 1.59-1.1 2 1.76.2 1.93.62c.17.41-.72 1.26-.56 1.68s1.25.48 1.41.9c.15.42.11.92.25 1.35.14.42-.17 1-.04 1.42.13.43-.26 1-.14 1.43s.93.67 1.04 1.1-.48 1.03-.38 1.46c.1.44 1.47.6 1.56 1.04s-1.27 1.14-1.19 1.59c.08.44.68.78.75 1.22s1 .77 1.06 1.21c.05.44.5.86.55 1.31.04.44-1.49 1.03-1.46 1.48s.21.87.23 1.32 1.46.85 1.48 1.3c.03.46.01.93.01 1.38z"/><path fill="#FCDA00" d="M20.65 58.14S36.46 70.28 36.68 71s-7.9 8.31-15.73 1.29c-6.76-6.04-.96-13.99-.3-14.15z"/><path fill="#FFF59D" d="M20.87 58.53s15.29 11.49 15.51 12.16-7.33 7.46-14.92.85c-6.54-5.7-1.21-12.88-.59-13.01z"/><linearGradient id="c" x1="-112.87" x2="-103.11" y1="321.89" y2="324.68" gradientTransform="rotate(-63.268 -253.264 89.263)" gradientUnits="userSpaceOnUse"><stop offset=".005" stop-color="#FABD00"/><stop offset=".244" stop-color="#FAC300"/><stop offset=".567" stop-color="#FAD400"/><stop offset=".935" stop-color="#FAF000"/><stop offset="1" stop-color="#FAF600"/></linearGradient><path fill="url(#c)" d="m25.81 64.73-5.83.38a.808.808 0 0 1-.86-.76c-.05-.72-.01-1.79.46-2.73.37-.73.72-1.26 1-1.63.27-.36.78-.42 1.13-.15l4.54 3.44c.59.45.31 1.4-.44 1.45z"/><linearGradient id="d" x1="-113.7" x2="-103.94" y1="324.78" y2="327.57" gradientTransform="rotate(-63.268 -253.264 89.263)" gradientUnits="userSpaceOnUse"><stop offset=".005" stop-color="#FABD00"/><stop offset=".244" stop-color="#FAC300"/><stop offset=".567" stop-color="#FAD400"/><stop offset=".935" stop-color="#FAF000"/><stop offset="1" stop-color="#FAF600"/></linearGradient><path fill="url(#d)" d="M22.88 71.27s-1.22-.57-2.27-2.01c-.62-.85-.77-1.8-.79-2.43-.01-.41.27-.76.67-.83l5.77-1c.74-.13 1.24.73.77 1.31L23 71.29l-.12-.02z"/><linearGradient id="e" x1="-115.28" x2="-105.52" y1="330.31" y2="333.1" gradientTransform="rotate(-63.268 -253.264 89.263)" gradientUnits="userSpaceOnUse"><stop offset=".005" stop-color="#FABD00"/><stop offset=".244" stop-color="#FAC300"/><stop offset=".567" stop-color="#FAD400"/><stop offset=".935" stop-color="#FAF000"/><stop offset="1" stop-color="#FAF600"/></linearGradient><path fill="url(#e)" d="M24.03 72.56c.62.56 1.87 1.3 4.12 1.02.41-.05.72-.42.7-.84l-.24-4.94c-.04-.75-.98-1.05-1.44-.46l-3.23 4.12c-.26.34-.23.82.09 1.1z"/><linearGradient id="f" x1="-115.9" x2="-106.14" y1="332.49" y2="335.27" gradientTransform="rotate(-63.268 -253.264 89.263)" gradientUnits="userSpaceOnUse"><stop offset=".005" stop-color="#FABD00"/><stop offset=".244" stop-color="#FAC300"/><stop offset=".567" stop-color="#FAD400"/><stop offset=".935" stop-color="#FAF000"/><stop offset="1" stop-color="#FAF600"/></linearGradient><path fill="url(#f)" d="m29.03 67.96.58 4.56c.07.52.56.87 1.07.74.96-.23 2.52-.76 4.03-1.93.46-.35.47-1.04.01-1.4l-3.9-3.01c-.79-.59-1.92.05-1.79 1.04z"/><path fill="#FCDA00" d="M86.67 91.48S96.4 68.77 97.2 68.29s12.4 6.93 6.38 18.49c-5.19 9.96-16.51 5.44-16.91 4.7z"/><path fill="#FFF59D" d="M87.08 91.08s9.11-21.88 9.84-22.35c.74-.47 11.21 6.51 5.59 17.66-4.83 9.6-15.08 5.4-15.43 4.69z"/><linearGradient id="g" x1="-127.17" x2="-115.07" y1="409.52" y2="412.98" gradientTransform="rotate(-167.597 -30.815 238.336)" gradientUnits="userSpaceOnUse"><stop offset=".005" stop-color="#FABD00"/><stop offset=".244" stop-color="#FAC300"/><stop offset=".567" stop-color="#FAD400"/><stop offset=".935" stop-color="#FAF000"/><stop offset="1" stop-color="#FAF600"/></linearGradient><path fill="url(#g)" d="m93.01 83.26 2.25 6.89c.17.53-.12 1.09-.65 1.27-.85.28-2.15.56-3.42.28-.99-.22-1.74-.48-2.26-.7a.991.991 0 0 1-.53-1.31l2.73-6.5c.36-.86 1.59-.81 1.88.07z"/><linearGradient id="h" x1="-128.19" x2="-116.09" y1="413.1" y2="416.55" gradientTransform="rotate(-167.597 -30.815 238.336)" gradientUnits="userSpaceOnUse"><stop offset=".005" stop-color="#FABD00"/><stop offset=".244" stop-color="#FAC300"/><stop offset=".567" stop-color="#FAD400"/><stop offset=".935" stop-color="#FAF000"/><stop offset="1" stop-color="#FAF600"/></linearGradient><path fill="url(#h)" d="M101.75 84.76s-.31 1.63-1.72 3.34c-.83 1.01-1.92 1.48-2.67 1.69-.49.14-1-.09-1.2-.55l-2.97-6.62c-.38-.85.5-1.72 1.34-1.33l7.21 3.33.01.14z"/><linearGradient id="i" x1="-130.15" x2="-118.05" y1="419.95" y2="423.41" gradientTransform="rotate(-167.597 -30.815 238.336)" gradientUnits="userSpaceOnUse"><stop offset=".005" stop-color="#FABD00"/><stop offset=".244" stop-color="#FAC300"/><stop offset=".567" stop-color="#FAD400"/><stop offset=".935" stop-color="#FAF000"/><stop offset="1" stop-color="#FAF600"/></linearGradient><path fill="url(#i)" d="M102.95 83c.49-.91.99-2.64-.04-5.26-.19-.48-.73-.73-1.22-.58l-5.86 1.8c-.89.27-.96 1.5-.11 1.87l5.94 2.62c.49.2 1.05.01 1.29-.45z"/><linearGradient id="j" x1="-130.92" x2="-118.82" y1="422.64" y2="426.1" gradientTransform="rotate(-167.597 -30.815 238.336)" gradientUnits="userSpaceOnUse"><stop offset=".005" stop-color="#FABD00"/><stop offset=".244" stop-color="#FAC300"/><stop offset=".567" stop-color="#FAD400"/><stop offset=".935" stop-color="#FAF000"/><stop offset="1" stop-color="#FAF600"/></linearGradient><path fill="url(#j)" d="m95.9 78.4 5.3-2.1c.6-.24.87-.94.57-1.51-.57-1.08-1.69-2.79-3.55-4.25-.57-.44-1.4-.25-1.68.41l-2.42 5.61c-.5 1.14.63 2.3 1.78 1.84z"/><path fill="#FCDA00" d="M101.42 40.52s-22.24-6.18-22.79-6.86 4.87-12.35 16.33-8.21c9.87 3.56 7.1 14.61 6.46 15.07z"/><path fill="#FFF59D" d="M101.01 40.19s-21.4-5.71-21.93-6.33 4.63-11.19 15.66-7.39c9.49 3.29 6.88 13.31 6.27 13.72z"/><linearGradient id="k" x1="-80.179" x2="-68.875" y1="343.21" y2="346.44" gradientTransform="rotate(94.732 155.031 268.632)" gradientUnits="userSpaceOnUse"><stop offset=".005" stop-color="#FABD00"/><stop offset=".244" stop-color="#FAC300"/><stop offset=".567" stop-color="#FAD400"/><stop offset=".935" stop-color="#FAF000"/><stop offset="1" stop-color="#FAF600"/></linearGradient><path fill="url(#k)" d="m93.02 35.68 6.1-2.94a.927.927 0 0 1 1.25.44c.36.75.79 1.92.69 3.13-.08.94-.23 1.67-.36 2.18a.94.94 0 0 1-1.15.66l-6.37-1.72c-.84-.23-.94-1.38-.16-1.75z"/><linearGradient id="l" x1="-81.134" x2="-69.83" y1="346.55" y2="349.78" gradientTransform="rotate(94.732 155.031 268.632)" gradientUnits="userSpaceOnUse"><stop offset=".005" stop-color="#FABD00"/><stop offset=".244" stop-color="#FAC300"/><stop offset=".567" stop-color="#FAD400"/><stop offset=".935" stop-color="#FAF000"/><stop offset="1" stop-color="#FAF600"/></linearGradient><path fill="url(#l)" d="M93.32 27.39s1.55.09 3.31 1.18c1.04.64 1.61 1.59 1.9 2.26.19.43.04.94-.36 1.18l-5.76 3.57c-.74.46-1.65-.25-1.4-1.08l2.18-7.09.13-.02z"/><linearGradient id="m" x1="-82.964" x2="-71.66" y1="352.96" y2="356.19" gradientTransform="rotate(94.732 155.031 268.632)" gradientUnits="userSpaceOnUse"><stop offset=".005" stop-color="#FABD00"/><stop offset=".244" stop-color="#FAC300"/><stop offset=".567" stop-color="#FAD400"/><stop offset=".935" stop-color="#FAF000"/><stop offset="1" stop-color="#FAF600"/></linearGradient><path fill="url(#m)" d="M91.53 26.5c-.91-.34-2.57-.59-4.87.69-.42.24-.59.77-.38 1.2l2.39 5.2c.36.79 1.51.7 1.75-.13l1.68-5.83a.922.922 0 0 0-.57-1.13z"/><linearGradient id="n" x1="-83.684" x2="-72.38" y1="355.47" y2="358.7" gradientTransform="rotate(94.732 155.031 268.632)" gradientUnits="userSpaceOnUse"><stop offset=".005" stop-color="#FABD00"/><stop offset=".244" stop-color="#FAC300"/><stop offset=".567" stop-color="#FAD400"/><stop offset=".935" stop-color="#FAF000"/><stop offset="1" stop-color="#FAF600"/></linearGradient><path fill="url(#n)" d="m88.16 33.61-2.6-4.65c-.29-.52-.98-.69-1.47-.34a12.8 12.8 0 0 0-3.5 3.82c-.34.58-.06 1.33.59 1.51l5.49 1.54c1.12.31 2.05-.88 1.49-1.88z"/><path d="M55.74 46.21c-1.11-.58-2.47-.62-3.67-.26-.92.28-1.79.8-2.39 1.55s-.93 1.75-.77 2.7c.2 1.25 1.21 2.29 2.42 2.67 1.2.39 2.55.17 3.67-.43 2.59-1.4 4-4.52.74-6.23zm-1.6 4.74c-.57.31-1.26.42-1.87.22s-1.13-.73-1.23-1.37c-.08-.49.09-.99.4-1.38s.75-.65 1.22-.79c.62-.19 1.31-.17 1.88.13 1.65.88.93 2.47-.4 3.19zM88.22 75.7c-1.11-.58-2.47-.62-3.67-.26-.92.28-1.79.8-2.39 1.55s-.93 1.75-.77 2.7c.2 1.25 1.21 2.29 2.42 2.67 1.2.39 2.55.17 3.67-.43 2.58-1.41 3.99-4.53.74-6.23zm-1.61 4.73c-.57.31-1.26.42-1.87.22s-1.13-.73-1.23-1.37c-.08-.49.09-.99.4-1.38.31-.38.75-.65 1.22-.79.62-.19 1.31-.17 1.88.13 1.65.88.93 2.48-.4 3.19zM59.22 19.45c-1.11-.58-2.47-.62-3.67-.26-.92.28-1.79.8-2.39 1.55s-.93 1.75-.77 2.7c.2 1.25 1.21 2.29 2.42 2.67 1.2.39 2.55.17 3.67-.43 2.58-1.41 3.99-4.53.74-6.23zm-1.61 4.73c-.57.31-1.26.42-1.87.22s-1.13-.73-1.23-1.37c-.08-.49.09-.99.4-1.38.31-.38.75-.65 1.22-.79.61-.18 1.3-.16 1.87.14 1.66.87.94 2.47-.39 3.18zM95.72 41.7c-.16-1.23-1.12-2.29-2.3-2.7-1.17-.41-2.51-.24-3.62.32-2.6 1.31-4.08 4.33-.92 6.1 1.08.61 2.41.68 3.6.36.91-.25 1.78-.73 2.39-1.45.62-.72.97-1.69.85-2.63zm-2.53 1.67c-.31.37-.76.61-1.22.74-.61.17-1.29.13-1.84-.18-1.61-.91-.86-2.45.47-3.12.57-.29 1.25-.37 1.85-.16s1.09.75 1.17 1.38c.06.48-.12.97-.43 1.34zM38.92 78.7c-2.57-2.15-6.44-2.34-6.88 1.81-.15 1.42.38 2.86 1.26 3.98.68.85 1.58 1.55 2.63 1.87 1.04.32 2.23.25 3.16-.31 1.23-.73 1.91-2.23 1.81-3.66-.09-1.44-.88-2.77-1.98-3.69zm-1.13 5.26c-.48.28-1.08.32-1.62.16-.53-.16-1-.52-1.34-.96-.45-.57-.72-1.31-.65-2.03.22-2.12 2.2-2.02 3.51-.92.56.47.97 1.15 1.01 1.88.07.73-.28 1.5-.91 1.87z"/><linearGradient id="o" x1="7.282" x2="19.046" y1="199.95" y2="228.57" gradientTransform="rotate(-49.291 -147.083 114.841)" gradientUnits="userSpaceOnUse"><stop offset=".404"/><stop offset=".493" stop-color="#0F0F0F"/><stop offset=".691" stop-color="#2A2A2A"/><stop offset=".866" stop-color="#3A3A3A"/><stop offset="1" stop-color="#404040"/></linearGradient><path fill="url(#o)" d="M17.79 55.27c-.57-4.55 5.77-9.52 13.75-5.76s17.99 9.96 17.03 13.27-28.94 7.18-30.78-7.51z"/><path fill="#EE9565" d="M23.54 58.96c.87.68 1.94 1.18 2.96 1.57 2.19.85 4.41 1.58 6.66 2.21 1.64.46 5.7.93 8.09-.02-6.19-.85-12.51-.93-17.71-3.76z"/><path fill="#BA6E4C" d="M22.76 58.21c.23.27.49.52.78.75 5.2 2.82 11.53 2.91 17.7 3.76.13-.05.25-.11.37-.17-6.23-1.51-13.2-1.18-18.85-4.34z"/><path fill="#F6A67D" d="M29.7 52.15c-1.77-.33-3.64-.5-5.27.16s-2.91 2.38-2.57 4.17c.13.67.45 1.23.89 1.73 5.66 3.16 13.13 1.84 18.86 4.34 1.33-.68 1.97-1.91.97-4.02-.68-1.45-2.12-2.38-3.53-3.12a33.116 33.116 0 0 0-9.35-3.26z"/><linearGradient id="p" x1="24.394" x2="37.642" y1="226.34" y2="258.58" gradientTransform="rotate(35.571 376.654 193.513)" gradientUnits="userSpaceOnUse"><stop offset=".404"/><stop offset=".493" stop-color="#0F0F0F"/><stop offset=".691" stop-color="#2A2A2A"/><stop offset=".866" stop-color="#3A3A3A"/><stop offset="1" stop-color="#404040"/></linearGradient><path fill="url(#p)" d="M68.83 15.12c5.05-1.1 11.26 5.52 7.85 14.84S67.32 51.14 63.5 50.4s-10.97-31.73 5.33-35.28z"/><path fill="#EE9565" d="M65.26 21.94c-.67 1.04-1.13 2.3-1.47 3.47-.73 2.54-1.33 5.1-1.81 7.69-.35 1.88-.47 6.49.84 9.07.34-7.01-.2-14.11 2.44-20.23z"/><path fill="#BA6E4C" d="M66.02 20.99c-.28.29-.54.6-.76.95-2.64 6.12-2.1 13.22-2.44 20.23.07.14.15.27.23.4 1.08-7.13 0-14.91 2.97-21.58z"/><path fill="#F6A67D" d="M73.52 28.17c.19-2.02.19-4.13-.71-5.89-.91-1.76-2.96-3.02-4.93-2.46-.73.21-1.34.63-1.85 1.17-2.98 6.66-.74 14.91-2.97 21.59.89 1.43 2.34 2.02 4.61.68 1.56-.91 2.46-2.62 3.14-4.28 1.44-3.46 2.36-7.12 2.71-10.81z"/><linearGradient id="q" x1="54.126" x2="65.781" y1="203.47" y2="231.83" gradientTransform="rotate(77.59 179.651 159.423)" gradientUnits="userSpaceOnUse"><stop offset=".404"/><stop offset=".493" stop-color="#0F0F0F"/><stop offset=".691" stop-color="#2A2A2A"/><stop offset=".866" stop-color="#3A3A3A"/><stop offset="1" stop-color="#404040"/></linearGradient><path fill="url(#q)" d="M108.31 44.89c3.95 2.25 4.11 10.23-3.61 14.32s-18.59 8.33-20.64 5.6C82 62.08 95.57 37.62 108.31 44.89z"/><path fill="#EE9565" d="M101.96 47.25c-1.05.28-2.09.84-3 1.41a70.73 70.73 0 0 0-5.71 3.96c-1.33 1.02-4.13 3.96-4.79 6.42 4.35-4.39 8.17-9.35 13.5-11.79z"/><path fill="#BA6E4C" d="M103.02 47.08c-.35.03-.71.08-1.06.17-5.33 2.45-9.15 7.41-13.51 11.79-.04.13-.06.27-.09.4 4.92-4.04 8.79-9.76 14.66-12.36z"/><path fill="#F6A67D" d="M103.7 56.18c1.31-1.21 2.56-2.59 3-4.27s-.15-3.72-1.78-4.51c-.6-.3-1.25-.37-1.9-.33-5.87 2.6-9.26 9.31-14.65 12.36-.26 1.46.34 2.69 2.61 3.16 1.55.32 3.15-.27 4.57-.94 2.99-1.41 5.75-3.26 8.15-5.47z"/><linearGradient id="r" x1="83.254" x2="96.426" y1="224.97" y2="257.02" gradientTransform="rotate(160.744 94.381 166.897)" gradientUnits="userSpaceOnUse"><stop offset=".404"/><stop offset=".493" stop-color="#0F0F0F"/><stop offset=".691" stop-color="#2A2A2A"/><stop offset=".866" stop-color="#3A3A3A"/><stop offset="1" stop-color="#404040"/></linearGradient><path fill="url(#r)" d="M87.14 106.73c-2 4.73-10.93 5.99-16.55-2.12S58.73 84.87 61.52 82.2c2.78-2.68 32.07 9.26 25.62 24.53z"/><path fill="#EE9565" d="M83.64 99.92c-.46-1.14-1.22-2.23-1.98-3.18a83.303 83.303 0 0 0-5.21-5.87c-1.33-1.36-5-4.1-7.85-4.51 5.5 4.29 11.58 7.91 15.04 13.56z"/><path fill="#BA6E4C" d="M83.98 101.09c-.08-.39-.18-.78-.33-1.17-3.46-5.65-9.54-9.28-15.05-13.57-.16-.02-.31-.04-.46-.04 5.18 4.97 12.13 8.55 15.84 14.78z"/><path fill="#F6A67D" d="M73.85 103.07c1.53 1.31 3.25 2.53 5.2 2.79 1.95.27 4.15-.67 4.82-2.6.25-.72.25-1.45.11-2.17-3.71-6.23-11.7-9.14-15.84-14.78-1.67-.09-2.98.74-3.2 3.36-.15 1.79.72 3.5 1.67 5 1.99 3.16 4.44 6.01 7.24 8.4z"/><path fill="#ED0000" d="M48.58 45.42c-.11.07-3.52-1.07-5.25-1.41-1.73-.35-4.15-.07-4 .49s1.1.86 1.1.86-1.22.89-.15 1.2 5.31.71 5.31.71-3.28.29-2 .55c1.27.26 4.54.34 5.21 0 .67-.35.35-.26.35-.26l-.57-2.14z"/><path fill="#ED0000" d="M52.8 41.77s-3.23 2.04-4.1 2.82-.79 3.1.76 3.74 3.33.37 4.99-.48 2.26-2.91 2.26-2.91l-3.91-3.17z"/><path fill="#E53935" d="M43.37 35.5c.04.1.08.16.11.24.04.09.07.17.1.26.06.18.11.36.16.54.09.36.16.73.23 1.09.14.73.26 1.47.32 2.22l-.1-.12c.43.12.85.28 1.26.45s.82.36 1.19.62l-.09-.01.88-.14c.09-.01.18.05.19.14s-.05.18-.14.19l-.88.14h-.04l-.05-.01c-.45-.09-.86-.27-1.26-.45a8.96 8.96 0 0 1-1.19-.62l-.02-.01a.155.155 0 0 1-.08-.11c-.26-.71-.47-1.43-.65-2.15-.09-.36-.18-.73-.24-1.1-.03-.19-.05-.37-.07-.56 0-.09-.01-.19-.01-.29s0-.22.02-.31.11-.15.21-.13c.08.03.13.07.15.12zm-.9.41.2 3.44-.02-.13.54 2.98-.12-.13 1.41.5c.1.03.15.14.11.24-.03.1-.14.15-.24.11l-1.41-.5a.198.198 0 0 1-.11-.11l-.01-.02-1.05-2.84c-.01-.04-.02-.08-.02-.12l.32-3.43c.01-.1.1-.18.21-.17s.18.09.19.18zm-1.21.94c-.04.32-.1.63-.17.94s-.14.62-.22.92c-.08.31-.17.61-.26.91-.05.15-.11.3-.18.44s-.16.28-.27.41v-.09c.18.35.3.71.4 1.08s.18.74.2 1.14c0 .09-.07.17-.16.18-.07 0-.13-.03-.16-.09-.18-.35-.3-.71-.4-1.08s-.18-.75-.2-1.14v-.09c-.02-.17-.02-.33 0-.49s.05-.31.09-.47c.09-.3.18-.6.29-.9a16.019 16.019 0 0 1 .71-1.76c.04-.08.14-.12.23-.08.07.03.11.1.1.17z"/><path fill="#E53935" d="M41.37 36.05c-.49.57-1.03 1.09-1.59 1.59-.28.25-.56.5-.85.73-.3.23-.61.44-.98.58l.06-.1c-.06.66-.17 1.32-.31 1.97-.03.16-.07.33-.11.49l-.06.24c-.03.1-.03.09-.03.15-.02.14-.02.31-.03.47s-.02.32-.05.49c-.01.1-.1.17-.2.16a.185.185 0 0 1-.15-.13c-.04-.16-.07-.33-.1-.49-.02-.17-.04-.33-.05-.51-.01-.11.04-.27.05-.33l.05-.24c.03-.16.07-.31.1-.47.15-.63.31-1.24.54-1.86l.06-.1c.2-.34.46-.61.73-.87.28-.25.57-.48.86-.72.58-.47 1.18-.92 1.83-1.31.08-.05.2-.03.25.06.04.05.03.14-.02.2zm11.36-.64c-.81-.29-1.7.72-2.24 1.18-.79.67-1.51 1.4-2.18 2.18-.04.04-.08.07-.12.11-.03.03-.05.07-.05.1-.06.07-.13.14-.19.22-.14.17.14.35.27.19.09-.11.19-.22.28-.33 1.43-1.12 2.86-2.24 4.28-3.36.11-.09.07-.25-.05-.29zm1.97 1.46c-.86-.59-2.22.36-3 .75-1.13.57-2.2 1.23-3.22 1.97-.06.03-.12.06-.17.09s-.08.06-.09.1c-.09.07-.19.14-.29.21-.21.16.06.46.27.31.14-.11.29-.21.43-.31l6.06-2.76c.13-.07.14-.27.01-.36zm.95 1.69c-.73-.76-2.27-.05-3.13.21-1.24.37-2.44.85-3.61 1.41-.06.02-.13.04-.19.06s-.09.05-.12.09c-.11.05-.22.1-.33.16-.24.12-.04.48.2.36.16-.08.33-.16.49-.24 2.2-.56 4.4-1.13 6.59-1.69.16-.04.21-.25.1-.36zm1.03 1.63c-.69-.91-2.43-.39-3.38-.25-1.37.2-2.72.53-4.05.95l-.21.03c-.06.01-.1.04-.13.08-.12.04-.25.08-.37.12-.27.09-.1.51.17.41.18-.06.37-.12.56-.18 2.42-.26 4.85-.53 7.27-.79.16-.02.24-.24.14-.37z"/><path fill="#ED0000" d="M59.96 41.38s.09 1.73-1.02 2.85c-1.12 1.12-2.07 1.73-3.2 1.21s-2.43-1.49-3.34-3.57l2.15-2.21 5.41 1.72z"/><path fill="#ED0000" d="M61.58 37.19s.12 4.52-1.04 4.78c-1.17.25-6.29-1.97-6.29-1.97l.86-2.21 6.47-.6z"/><path fill="#ED0000" d="M58.82 31.48s1.55 1.24 2.34 3.14c.8 1.9 1.01 2.7 1.01 2.7s-1.36.84-3.8 1.21-3.55.41-3.55.41l-.88-2.3 4.88-5.16z"/><path fill="#ED0000" d="M54.52 28.65s3.45 1.3 4.29 2.15c.83.85-.11 2.97-1.75 4.48s-2.3 1.83-3.14 2.06-1.78-1.49-1.78-1.49l2.38-7.2z"/><path fill="#ED0000" d="M49.95 28.78s3.14-.94 4.01-.45 1.38 2.38.56 5.23c-.76 2.66-1.13 2.97-2.24 2.85-1.32-.15-3.25-.26-4.03-1.37-.77-1.11 1.7-6.26 1.7-6.26z"/><path fill="#ED0000" d="M49.95 28.78s.8 2.79-.14 4.86-3.06 2.96-10.09 3.61c-7.29.67-9.62-.31-9.62-.31l.62-1.03-2.37.13 1.14-1.17-1.49-.11 6.12-2.83-3-.13s6.77-1.91 10.77-2.5 5.83-.65 8.06-.52z"/><circle cx="35.68" cy="32.13" r=".9"/><path fill="#ED0000" d="M81.04 70.65c-.02.12-2.84 1.65-4.11 2.57-1.28.92-2.57 2.67-2.11 2.91s1.23-.19 1.23-.19-.16 1.34.7.83 3.69-3.05 3.69-3.05-1.8 2.32-.86 1.64 2.99-2.76 3.17-3.41.04-.39.04-.39l-1.75-.91z"/><path fill="#ED0000" d="M81.22 65.68s-.63 3.35-.65 4.39c-.01 1.04 1.55 2.4 2.91 1.78s2.27-1.95 2.72-3.55-.53-3.25-.53-3.25l-4.45.63z"/><path fill="#E53935" d="M71.39 68.03c.09.03.15.05.23.08s.15.06.23.09c.15.07.3.14.45.22.29.16.57.34.86.51.56.35 1.12.72 1.65 1.14l-.13-.01c.34-.21.7-.39 1.06-.55.36-.17.73-.32 1.13-.4l-.06.05.44-.66c.05-.07.14-.09.21-.04s.09.14.04.21l-.44.66c-.01.01-.01.02-.02.02l-.04.03c-.33.23-.7.4-1.06.55-.37.15-.74.29-1.13.4h-.02c-.04.01-.08.01-.12-.01-.62-.26-1.22-.56-1.8-.89-.29-.17-.58-.33-.86-.51a3.907 3.907 0 0 1-.6-.47c-.07-.06-.14-.13-.19-.2s-.03-.17.04-.22c.03-.01.08-.02.13 0zm-.28.84 2.37 1.96-.09-.07 2.28 1.46h-.16l1.18-.62a.18.18 0 0 1 .23.07c.04.08.01.18-.07.23l-1.18.62a.23.23 0 0 1-.14.01l-.02-.01-2.49-1.04a.203.203 0 0 1-.09-.06l-2.05-2.3c-.06-.07-.06-.18.01-.24.06-.07.15-.07.22-.01zm-.12 1.36c.18.22.35.45.51.68s.32.47.47.7c.15.24.29.48.44.72.07.12.13.25.18.39.05.13.09.27.1.43l-.06-.06c.34.1.65.24.95.4s.6.33.87.56c.06.05.07.15.02.21-.04.05-.1.06-.16.05-.34-.09-.65-.24-.95-.4s-.6-.34-.87-.56l-.06-.06c-.13-.09-.23-.19-.32-.3s-.17-.22-.25-.34c-.14-.24-.28-.49-.41-.74s-.26-.5-.38-.75-.23-.51-.34-.78c-.03-.08.01-.16.09-.19.06-.03.13-.01.17.04z"/><path fill="#E53935" d="M70.53 69.67c.07.67.09 1.34.08 2.01-.01.33-.01.67-.04 1s-.08.66-.21.99l-.03-.1c.4.44.76.91 1.1 1.4.09.12.17.24.25.37l.12.19c.05.08.04.07.08.11.08.1.19.2.29.31s.2.21.29.33c.06.07.05.17-.02.23-.05.04-.12.05-.18.02-.13-.07-.26-.15-.38-.23-.12-.09-.24-.17-.36-.28-.07-.06-.15-.19-.19-.23l-.13-.17c-.08-.12-.16-.24-.24-.35-.32-.48-.62-.96-.89-1.48l-.03-.1c-.1-.34-.12-.67-.13-1.01 0-.33.03-.67.05-1 .05-.67.12-1.33.25-1.99.02-.09.1-.14.19-.13.07-.01.12.04.13.11zm6.49-7.82c-.68.35-.56 1.55-.59 2.19-.04.92 0 1.84.1 2.75v.14c0 .04.01.07.03.1l.03.25c.03.19.32.12.29-.06-.02-.13-.03-.26-.05-.38.14-1.62.27-3.23.41-4.85.01-.12-.12-.19-.22-.14zm2.16-.4c-.91.21-1.11 1.67-1.33 2.42-.31 1.08-.53 2.19-.67 3.31-.02.06-.03.11-.05.17-.01.05-.01.09.01.12-.01.1-.03.21-.04.31-.02.23.34.24.36.01l.06-.47c.63-1.88 1.25-3.76 1.88-5.64.04-.13-.09-.26-.22-.23zm1.68.4c-.94.01-1.41 1.46-1.77 2.17-.51 1.03-.93 2.11-1.27 3.22-.03.05-.05.11-.08.16-.02.05-.02.09-.01.13-.03.1-.07.21-.1.31-.07.23.29.32.36.09.05-.16.09-.31.14-.47.97-1.78 1.94-3.56 2.9-5.34.07-.11-.04-.27-.17-.27zm1.69.32c-1.02-.1-1.74 1.35-2.22 2.06-.7 1.02-1.31 2.1-1.84 3.22-.04.05-.07.11-.11.16-.03.05-.04.09-.03.13-.05.1-.1.21-.15.31-.11.24.27.38.37.14.07-.16.15-.32.22-.47 1.3-1.75 2.6-3.49 3.9-5.24.1-.11 0-.29-.14-.31z"/><path fill="#ED0000" d="M85.32 60.76s1.19.99 1.24 2.4c.06 1.41-.13 2.4-1.15 2.83s-2.45.68-4.36.01l-.13-2.75 4.4-2.49z"/><path fill="#ED0000" d="M83.56 57.15s3.03 2.67 2.49 3.59c-.54.91-5.11 2.91-5.11 2.91l-.92-1.91 3.54-4.59z"/><path fill="#ED0000" d="M78.15 55.48s1.75-.26 3.48.38 2.38.98 2.38.98-.28 1.4-1.52 3.22-1.89 2.57-1.89 2.57l-2.04-.82-.41-6.33z"/><path fill="#ED0000" d="M73.69 56.57s2.95-1.47 4.01-1.5 1.87 1.88 1.87 3.87c-.01 1.99-.2 2.62-.57 3.3s-2.06.26-2.06.26l-3.25-5.93z"/><path fill="#ED0000" d="M70.99 59.64s1.3-2.63 2.15-2.89c.85-.27 2.39.54 3.76 2.81 1.28 2.12 1.26 2.55.5 3.19-.9.77-2.15 1.97-3.34 1.81s-3.07-4.92-3.07-4.92z"/><path fill="#ED0000" d="M70.99 59.64s2.32 1.17 3.09 3.05c.78 1.87.07 3.8-3.78 8.8-3.99 5.18-6.05 6.11-6.05 6.11l-.3-1.03-1.36 1.63-.07-1.46-.98.91 1.87-5.72-1.91 1.89s2.87-5.59 4.91-8.56 3.14-4.24 4.58-5.62z"/><circle cx="64.51" cy="71.01" r=".8"/><path fill="#ED0000" d="M42.88 91.76c-.04-.11 1.58-2.87 2.21-4.32.62-1.45.84-3.61.32-3.58s-.96.8-.96.8-.55-1.23-1.02-.35-1.6 4.51-1.6 4.51.36-2.92-.1-1.85-1.14 3.9-.96 4.55.16.36.16.36l1.95-.12z"/><path fill="#ED0000" d="M45.28 96.12s-1.18-3.2-1.7-4.1-2.56-1.27-3.41-.03-.95 2.84-.51 4.45 2.12 2.52 2.12 2.52l3.5-2.84z"/><path fill="#E53935" d="M52.51 89.05c-.09.02-.16.04-.23.05-.08.02-.16.03-.25.04-.17.02-.33.03-.5.04-.33.01-.67 0-1 0-.67-.01-1.33-.04-2-.13l.12-.05c-.19.36-.4.69-.63 1.02s-.46.65-.76.93l.03-.08-.04.8c0 .08-.07.14-.16.14-.08 0-.14-.07-.14-.16l.04-.8c0-.01 0-.02.01-.03l.02-.05c.16-.37.39-.7.63-1.02s.48-.63.76-.93l.01-.01a.16.16 0 0 1 .11-.05c.67-.1 1.33-.14 2-.16.33-.01.67-.02 1-.01a4.233 4.233 0 0 1 .75.1c.09.02.19.04.26.07.08.03.11.13.08.2-.01.05-.06.08-.11.09zm-.19-.86-3.04-.46.11.01-2.7-.08.13-.08-.7 1.14c-.05.08-.15.1-.23.06a.175.175 0 0 1-.06-.23l.7-1.14a.2.2 0 0 1 .12-.08h.02l2.68-.39c.04-.01.08 0 .11.01l2.94.92c.09.03.14.12.11.21-.02.07-.1.12-.19.11zm-.59-1.23c-.27-.09-.53-.2-.79-.32s-.51-.24-.76-.37c-.25-.12-.5-.26-.75-.4-.12-.07-.24-.15-.35-.24s-.22-.19-.31-.31l.08.02c-.34.09-.68.13-1.02.15s-.68.02-1.03-.04a.146.146 0 0 1-.12-.18c.01-.06.05-.11.11-.12.34-.1.68-.13 1.02-.15.34-.01.68-.02 1.03.04l.08.02c.15.01.29.05.43.09.14.05.26.1.39.17.24.14.49.27.73.42.24.14.48.3.71.45.24.16.47.32.69.5.07.05.08.15.02.21-.03.06-.1.08-.16.06z"/><path fill="#E53935" d="M52.41 87.2c-.41-.54-.76-1.11-1.1-1.68-.16-.29-.33-.58-.48-.88-.14-.3-.27-.61-.33-.96l.08.07c-.57-.17-1.12-.4-1.66-.64-.14-.06-.27-.12-.4-.18l-.2-.1c-.08-.04-.07-.04-.13-.06-.12-.04-.26-.08-.4-.12s-.28-.08-.42-.13a.168.168 0 0 1-.1-.21c.02-.06.08-.11.15-.11.15-.01.3 0 .45.01s.29.02.46.06c.09.01.23.09.28.1l.2.09.39.18c.52.24 1.03.51 1.52.82l.08.07c.26.24.45.51.63.8.17.29.32.59.47.88.3.6.58 1.2.81 1.84.03.08-.01.18-.1.21-.09.02-.16-.01-.2-.06zm-1.55 10.05c.4-.65-.31-1.62-.61-2.18-.44-.81-.95-1.58-1.5-2.31-.02-.04-.05-.08-.07-.13a.134.134 0 0 0-.08-.07c-.05-.07-.1-.14-.16-.2-.12-.15-.33.06-.22.2.08.1.16.2.24.31.71 1.46 1.43 2.91 2.14 4.37.05.1.2.1.26.01zm-1.65 1.45c.67-.65.1-2.01-.1-2.76a22.21 22.21 0 0 0-1.12-3.18c-.02-.06-.03-.11-.05-.17a.153.153 0 0 0-.07-.1c-.04-.1-.08-.19-.13-.29-.1-.21-.42-.04-.32.18.07.14.13.29.19.43l1.29 5.81c.03.13.21.17.31.08zm-1.65.51c.8-.5.47-1.98.4-2.77-.09-1.15-.29-2.29-.56-3.42-.01-.06-.01-.12-.02-.18 0-.05-.03-.09-.06-.12-.03-.1-.05-.21-.08-.32-.06-.23-.42-.13-.35.1.04.16.08.32.12.47.08 2.02.17 4.05.25 6.07.01.16.18.24.3.17zm-1.62.6c.93-.43.8-2.05.85-2.91.08-1.24.04-2.48-.07-3.71 0-.06.01-.13.01-.19s-.02-.1-.04-.13l-.03-.35c-.03-.26-.42-.19-.39.07.02.17.04.35.05.52l-.66 6.5c-.02.15.15.26.28.2z"/><path fill="#ED0000" d="M44.29 102.45s-1.53-.24-2.3-1.43-1.12-2.13-.47-3.02c.66-.89 1.75-1.84 3.74-2.25l1.53 2.29-2.5 4.41z"/><path fill="#ED0000" d="M47.66 104.64s-3.97-.74-3.98-1.8 2.89-5.12 2.89-5.12l1.77 1.16-.68 5.76z"/><path fill="#ED0000" d="M53.15 103.29s-1.37 1.12-3.18 1.46-2.55.38-2.55.38-.48-1.35-.35-3.55c.14-2.2.3-3.17.3-3.17l2.17-.34 3.61 5.22z"/><path fill="#ED0000" d="M56.43 100.06s-1.78 2.78-2.67 3.35c-.9.57-2.57-.65-3.59-2.36S49 98.7 48.96 97.92s1.64-1.28 1.64-1.28l5.83 3.42z"/><path fill="#ED0000" d="M57.17 96.05s.24 2.92-.36 3.59c-.59.66-2.33.76-4.67-.48-2.18-1.16-2.39-1.54-2.07-2.48.38-1.12.83-2.8 1.94-3.27 1.12-.48 5.16 2.64 5.16 2.64z"/><path fill="#ED0000" d="M57.17 96.05s-2.59.18-4.22-1.03-2.01-3.22-1.28-9.49c.77-6.49 2.06-8.35 2.06-8.35l.78.74.33-2.1.81 1.22.37-1.28 1.33 5.87.67-2.6s.41 6.27.18 9.87c-.21 3.59-.51 5.22-1.03 7.15z"/><circle cx="56.89" cy="82.96" r=".8"/></svg>