<svg xmlns="http://www.w3.org/2000/svg" style="enable-background:new 0 0 128 128" viewBox="0 0 128 128" xml:space="preserve"><linearGradient id="a" x1="66.89" x2="71.356" y1="735.61" y2="830.865" gradientTransform="translate(0 -714)" gradientUnits="userSpaceOnUse"><stop offset=".005" style="stop-color:#e09b56"/><stop offset=".216" style="stop-color:#e8c3b3"/><stop offset=".454" style="stop-color:#e1a76a"/><stop offset=".665" style="stop-color:#e9a24d"/><stop offset=".831" style="stop-color:#e6b561"/><stop offset=".971" style="stop-color:#e9a24d"/></linearGradient><path d="M84 69c-1.9 3.2-5.9 4.3-9 5.8-1.6.8-3.2 1.7-4.5 3-1.5 1.6-2.5 3.8-3.7 5.6-2.7 4-6.1 7.3-10.5 9.4-4.3 2.1-8.8 3.9-12.9 6.4-4.6 2.7-8.6 6.2-11.4 10.8-.9-1.7.3-3.9.8-5.6.1-.4.1-1 .2-1.4.1-.4.4-.8.7-1.1.5-.8 1-1.5 1.6-2.1 2.3-2.6 5.4-4.4 8.4-6 3.1-1.6 6.3-3.1 9.1-5.1 2.9-2.1 6-3.6 6.8-8 .6-3.2 3.9-5 6.7-6.3 3-1.4 6.4-2.6 8.7-5.1 1.5-1.6 2.8-3.4 4.2-5.1 1.5-1.8 3.1-3.7 4.7-5.5 3.1-3.5 6.3-6.9 9.6-10.1 7.6-7.3 16.1-13.6 25.6-18.3-1.7-2.4-3.4-4.8-5.2-7.1-.9-1.2-1.8-2.5-2.7-3.7-.5-.6-.6-.3-1.4 0-1.7.7-3.3 1.3-5 1.9-6.4 2.3-13.4 4.3-18.9 8.4-4.3 3.1-4.5 8.6-6.9 13-1.4 2.5-4 4.1-6 6.1-2.6 2.5-5 5.1-7.4 7.8-2.3 2.6-4.7 5.3-7.1 7.9-2.2 2.3-4.7 4.2-7.3 6-9.7 6.9-20.8 12.2-29.2 20.8-2 2-3.7 4.2-5.2 6.6-.3.5-.7 1.1-1 1.7-.3.6-.9 1.4-1 2-.1.4-.1.3.3.5 2.8 1.7 5.6 3.5 8.3 5.2 2.6 1.6 5.3 3.1 7.7 4.8 2 1.4 3.3 3.7 5.2 5.3 2 1.8 5 2 7.4.9 2.4-1 3.6-2.9 4.8-5 1.4-2.3 3-4.1 4.9-5.9 1.7-1.5 3.7-2.6 5.6-3.6 5.8-3 10.9-7.7 14.3-13.3 2-3.2 3.8-6.5 7.1-8.6 1.9-1.2 3.8-2.1 5.7-3.2 3.1-1.9 5.9-4.3 8.2-7 .9-1 1.7-2.1 2.4-3.2.9-1.4 1.6-3 2.6-4.4.9-1.3 1.9-2.5 3.2-3.5 1.5-1.1 3.1-1.9 4.7-2.7 2.4-1.2 4.6-2.8 6.6-4.6 1.8-1.6 3.1-3.4 4.4-5.3 1.1-1.6 2.3-3 3.3-4.6 1.3-1.9 2.6-3.8 1.9-6.2-12 4.7-23.6 11.6-32.3 21.7-2.7 3.1-5 6.5-7.1 10z" style="opacity:.8;fill:url(#a);enable-background:new"/><linearGradient id="b" x1="55.805" x2="59.891" y1="725.899" y2="813.061" gradientTransform="translate(0 -714)" gradientUnits="userSpaceOnUse"><stop offset=".007" style="stop-color:#7d2318"/><stop offset=".233" style="stop-color:#c9511d"/><stop offset=".47" style="stop-color:#c74723"/><stop offset=".723" style="stop-color:#c9511d"/><stop offset="1" style="stop-color:#7b2017"/></linearGradient><path d="M80 49c4.7-3.1 6.6-8.7 10.6-12.5 2.2-2.1 4.9-3.4 7-5.4 2-1.9 3.7-4.2 5.5-6.3 2.2-2.5 4.7-4.6 7.8-5.8-1-1.3-1.9-2.6-2.9-3.9-1.3-1.8-2.5-3.7-4.5-4.8-3.1-1.7-7.2-.9-9.5 1.8-1.9 2.3-3.3 5-5.5 7-1.5 1.3-3 2.5-4.8 3.4-1.2.6-2.5 1-3.8 1.5-1.4.6-2.9 1.3-4.2 2.1-1.5 1-2.9 2.2-4.2 3.4-2.4 2.1-4 4.8-5.7 7.5-1.5 2.5-3.5 4.5-6 6-2.3 1.4-4.7 2.7-7.1 3.9-1.7.8-3.4 1.6-4.9 2.7-2.3 1.6-4.7 3.5-6.5 5.8-1.4 1.9-2.7 3.8-4.1 5.8-1.2 1.7-2.2 3.3-3.8 4.7-1.5 1.4-3.2 2.7-5 3.7-2.7 1.5-5.6 2.6-8.4 4.1-2.9 1.5-5.6 3.6-7.9 5.8-1.9 1.8-3.4 3.9-4.9 6-1.3 1.9-2.7 3.8-2.4 6.2.6 4.2 5.2 6.7 8.3 9 .6.4 1.1.8 1.7 1.2 2.7-4.8 6.1-9.2 10.5-12.6 3.5-2.6 7.4-4.4 11.4-6.2 4.9-2.2 9.6-4.6 14-7.7 6-4.2 11-9.4 16.2-14.4 4.2-4.2 8.6-8.2 13.1-12z" style="fill:url(#b)"/><g style="opacity:.2"><path d="M99.7 12.6c2.6 0 4 1.7 5.4 3.7 1.1 1.5 2.2 3.1 3.3 4.6 2 2.7 4 5.5 6 8.2.7 1 1.5 2 2.2 3.1.5.7 1 1.4 1.5 2 .7 1 1.7 2.1 2.2 3.2 1 2-1.2 4.2-2.2 5.7-1.3 1.8-2.4 3.8-3.8 5.6s-3.4 3.4-5.2 4.8c-2.4 1.7-5.1 2.6-7.5 4.3-1.8 1.3-3.4 2.9-4.7 4.8-1.2 1.7-2 3.7-3.3 5.4-.9 1.3-2 2.6-3.2 3.8-2.3 2.3-4.9 4.3-7.8 5.7-1.5.7-3 1.6-4.4 2.5-1.2.9-2.3 2-3.3 3.1s-1.8 2.4-2.6 3.7c-2.1 3.4-4.2 6.5-7.1 9.2-2.4 2.2-5.1 4.1-8 5.6-3.1 1.6-5.7 3.6-8.1 6.1-1.2 1.2-2.2 2.7-3.1 4.2-.6 1-1.2 2.1-2.1 2.9-1.3 1.2-3.3 1.8-4.9 1-.6-.3-.9-.7-1.4-1.1-1.4-1.4-2.7-2.8-4.1-4.2-.7-.7-1.6-1.1-2.4-1.6L20 102c-2.4-1.5-4.7-3-6.9-4.6C11.4 95.8 9 94.3 8 92c-.7-1.6.5-3 1.4-4.3.9-1.4 2-2.7 3-4 2-2.4 4.3-4.4 6.9-6.2 2.4-1.6 5.2-2.8 7.9-3.9 2.5-1.1 4.7-2.5 6.8-4.2.9-.7 1.7-1.4 2.5-2.2 1.5-1.5 2.5-3.2 3.7-4.9 1.6-2.4 3.2-5 5.4-7 2.1-1.9 4.2-3.5 6.7-4.8 2-1 4-2 5.9-3.1 2.6-1.4 5.2-2.8 7.3-5 2.3-2.4 3.8-5.4 5.7-8.1 1.6-2.2 3.8-4.1 6.1-5.6 2.2-1.5 4.8-2.2 7.2-3.3 3.4-1.5 6.2-3.8 8.4-6.7 1.1-1.4 2.1-2.8 3.2-4.2.9-1.1 2-1.9 3.6-1.9m0-3c-4.3 0-6.3 3.5-8.6 6.6-1 1.3-1.9 2.5-3.1 3.6-1.6 1.3-3.3 2.5-5.2 3.3-3.1 1.3-6.2 2.4-8.9 4.6-1.5 1.2-3 2.4-4.2 3.8-1.2 1.5-2.3 3.1-3.3 4.7-.9 1.4-1.7 2.8-2.8 4-1.1 1.2-2.4 2.1-3.8 3-2.5 1.5-5.1 2.9-7.7 4.2-2.3 1.1-4.4 2.3-6.4 4-2.3 1.9-4.2 3.7-5.9 6.1-1.3 1.9-2.6 3.8-3.9 5.8-1.3 1.9-3.2 3.3-4.9 4.7-2.6 2.1-5.6 3.1-8.5 4.5-1.6.8-3.2 1.6-4.7 2.5-1.7 1.1-3.2 2.4-4.8 3.8-2.2 1.9-4 4.3-5.7 6.7-1.4 2-2.9 4.1-2.4 6.7.5 2.5 2.8 4.6 4.7 6.1 1.6 1.3 3.3 2.5 5 3.6 2.7 1.8 5.5 3.4 8.2 5.2 2 1.2 4 2.5 6 3.7.9.6 1.9 1.1 2.7 1.7 3.5 2.8 5.3 7.6 10.7 6.6 1.8-.3 3.4-1.3 4.5-2.6.9-1 1.4-2.1 2.2-3.2 1.6-2.5 3.5-5 6-6.6 2.4-1.6 5.1-2.8 7.5-4.5 3.8-2.5 7.3-5.8 9.9-9.6 1.4-2 2.6-4.1 3.9-6.2 1.7-2.5 4.2-4.2 6.8-5.6 2.7-1.5 5.3-3 7.7-5 3.2-2.7 5.4-5.8 7.5-9.4 1.2-2 2.5-4 4.4-5.4 1.8-1.3 3.8-2.2 5.7-3.3 2.8-1.5 5.4-3.7 7.5-6 1.8-1.9 3.1-4.3 4.6-6.5 1.6-2.3 3.4-4.4 3-7.4-.2-1.6-1.4-2.9-2.3-4.2-.7-1-1.4-1.9-2-2.9-4-5.6-8.1-11.2-12.2-16.8-1.6-2.6-3.9-4.3-7.2-4.3z" style="fill:#424242"/></g><linearGradient id="c" x1="75.482" x2="78.979" y1="746.692" y2="821.289" gradientTransform="translate(0 -714)" gradientUnits="userSpaceOnUse"><stop offset="0" style="stop-color:#c9511d"/><stop offset=".47" style="stop-color:#c74723"/><stop offset=".723" style="stop-color:#c9511d"/><stop offset="1" style="stop-color:#7b2017"/></linearGradient><path d="M76 68c-4 6-15 6-17 13-2.2 7.7-12.4 8.6-18.5 12.1-5.8 3.4-12.2 9.6-8.5 16.9 6-10 16-13 26-18 5-3 8-7 11-12 3-6 12-6 15-11 9.8-16.7 24-25.7 39.7-31.8-.2-.7-.5-1.3-.9-1.9-.1-.1-1-1.3-2.1-2.9l-1.6-2.2C100.9 39.3 88.9 52.4 76 68z" style="fill:url(#c)"/></svg>