<svg xmlns="http://www.w3.org/2000/svg" viewBox="0 0 128 128"><radialGradient id="a" cx="64" cy="94.229" r="46.866" gradientTransform="matrix(1 0 0 1.0998 0 -12.145)" gradientUnits="userSpaceOnUse"><stop offset="0" stop-color="#fff"/><stop offset=".479" stop-color="#FAFAFA"/><stop offset="1" stop-color="#EDEDED"/></radialGradient><ellipse cx="64" cy="91.48" fill="url(#a)" rx="60" ry="30.97"/><ellipse cx="64" cy="88.07" fill="#424242" opacity=".2" rx="45.14" ry="20.3"/><path fill="#424242" d="M64 63.52c15.56 0 30.14 3.1 41.05 8.74C115.34 77.56 121 84.39 121 91.48s-5.66 13.92-15.95 19.23c-10.92 5.63-25.49 8.74-41.05 8.74s-30.14-3.1-41.05-8.74C12.66 105.41 7 98.58 7 91.48s5.66-13.92 15.95-19.23c10.91-5.63 25.49-8.73 41.05-8.73m0-3c-33.14 0-60 13.86-60 30.97s26.86 30.97 60 30.97 60-13.86 60-30.97-26.86-30.97-60-30.97z" opacity=".2"/><linearGradient id="b" x1="15.274" x2="110.55" y1="38.742" y2="38.742" gradientTransform="matrix(1 0 0 -1 0 128.03)" gradientUnits="userSpaceOnUse"><stop offset="0" stop-color="#FFF1C0"/><stop offset=".242" stop-color="#FDEDBB"/><stop offset=".535" stop-color="#F5E1AC"/><stop offset=".853" stop-color="#EACE94"/><stop offset="1" stop-color="#E3C386"/></linearGradient><path fill="url(#b)" d="M109.14 74s1.41 2.65 1.41 5.76c0 5.18-4.52 11-5.99 12.42-7.44 7.15-23.34 12.4-41.8 12.4-19.84 0-36.79-5.96-43.34-13.92-1.87-2.28-4.14-5.26-4.14-10.44 0-4.15 2.07-6.22 2.07-6.22"/><radialGradient id="c" cx="42.182" cy="56.712" r="74.892" gradientTransform="matrix(.9996 .0266 .0195 -.7315 -1.09 111.68)" gradientUnits="userSpaceOnUse"><stop offset="0" stop-color="#FFAD2E"/><stop offset=".249" stop-color="#E7971C"/><stop offset="1" stop-color="#A5551B"/></radialGradient><path fill="url(#c)" d="M61.93 56.37c11.1 0 19.84 2.07 27.99 4.98 3.97 1.42 8.88 3.04 11.8 4.68 5.83 3.29 7.77 6.82 7.28 10.67-1.15 9.04-20.29 20.44-46.24 20.44-18.45 0-33.56-6.3-37.17-8.46-5.7-3.42-9.07-7.59-9.07-11.97 0-5.16 3.94-10.37 11.94-13.67 8.49-3.52 16.88-6.67 33.47-6.67z"/><linearGradient id="d" x1="12.16" x2="107.78" y1="55.327" y2="55.327" gradientTransform="scale(1 -1) rotate(-1.117 -6506.112 -4.293)" gradientUnits="userSpaceOnUse"><stop offset="0" stop-color="#FFF1C0"/><stop offset=".242" stop-color="#FDEDBB"/><stop offset=".535" stop-color="#F5E1AC"/><stop offset=".853" stop-color="#EACE94"/><stop offset="1" stop-color="#E3C386"/></linearGradient><path fill="url(#d)" d="M105.72 57.97s1.73 3.65 2.08 6.74c.6 5.21-5.09 11.45-6.59 12.84-7.58 7.01-23.58 11.94-42.04 11.58-19.83-.39-36.67-6.67-43.06-14.77-1.83-2.31-3.95-6.48-3.85-11.66.08-4.15 3.01-7.26 3.01-7.26"/><radialGradient id="e" cx="31.604" cy="71.596" r="64.314" gradientTransform="matrix(.9998 .0195 .0129 -.6609 -.672 102.17)" gradientUnits="userSpaceOnUse"><stop offset="0" stop-color="#FFAD2E"/><stop offset=".249" stop-color="#E7971C"/><stop offset="1" stop-color="#A5551B"/></radialGradient><path fill="url(#e)" d="M59.29 40.91c11.1.22 19.79 2.46 27.89 5.53 3.94 1.49 8.82 3.21 11.7 4.91 5.76 3.41 8.23 7.11 7.07 10.81-2.65 8.53-12.92 19.61-46.63 19.54-22.68-.05-33.43-6.95-36.99-9.19-5.63-3.53-8.92-7.77-8.84-12.15.1-5.16 4.14-10.29 12.2-13.44 8.57-3.35 17.01-6.34 33.6-6.01z"/><linearGradient id="f" x1="67.13" x2="90.947" y1="4228" y2="4194.5" gradientTransform="translate(0 -4122)" gradientUnits="userSpaceOnUse"><stop offset="0" stop-color="#DB7C34"/><stop offset=".251" stop-color="#C45D12"/><stop offset=".436" stop-color="#B4520F"/><stop offset=".626" stop-color="#994105"/><stop offset=".817" stop-color="#913B02"/></linearGradient><path fill="url(#f)" d="M84.23 78.68a9.875 9.875 0 0 0 3.42-5.32c.24-.97.33-2.02.03-2.97-.3-.96-1.05-1.81-2.03-2.04-.62-.14-1.26-.03-1.89.08-4.08.74-8.45 2.23-12.58 2.5-3.7.24-7.15-.04-10.85.97-.65.18-1.32.39-1.8.87-.72.72-.81 1.91-.44 2.86s1.11 1.71 1.9 2.36c.87.72 1.82 1.35 2.82 1.87.82.43 1.68.79 2.56 1.07 1.93.62 3.98.88 5.8 1.78s3.42 2.68 3.26 4.7c-.3 3.81-4.12 2.41-5.73 5.1-.6 1-.5 2.36.22 3.27 1.28 1.6 3.98.77 4.89 1.62.9.84 3.09 3.35.5 5.56-1.72 1.46-11.63 1.37-13.99 3.71s3.74 4.13 5.64 4.42c9.78 1.46 20.11-.51 27.78-3.83 2.53-1.1 13.05-6.83 9.03-9.03-1.41-.77-3-.56-7.9.97-3.08.96-6.28 1.66-9.5 1.91-1.91.15-4.4-1.83-3.98-3.23.62-2.09 2.57-2.82 3.8-4.49.88-1.2 1.14-3.09-.01-4.04-.72-.6-1.74-.62-2.68-.72-1.46-.16-3-.66-3.87-1.84-2.92-3.93 3.4-6.36 5.6-8.11z" opacity=".78"/><path fill="#823315" d="M58.54 72.78c-.66.68-.76 1.74-.49 2.61.28.89.91 1.61 1.6 2.22 1.4 1.22 3.02 2.18 4.74 2.85 1.72.68 3.58.93 5.38 1.5 1.79.53 3.58 1.6 4.48 3.37.46.87.57 1.94.32 2.89-.13.48-.33.96-.68 1.35-.35.38-.78.66-1.22.87-.88.41-1.79.63-2.53 1.09-.38.22-.7.51-.95.85-.27.34-.44.71-.51 1.13-.15.82.11 1.72.7 2.27.59.56 1.49.7 2.4.77.46.04.93.06 1.44.18.25.07.52.14.77.35.22.18.37.34.54.53.64.72 1.23 1.58 1.37 2.64.07.52 0 1.08-.21 1.57-.23.48-.53.92-.9 1.25-.16.19-.41.34-.65.48-.24.11-.47.2-.71.29-.47.14-.93.26-1.4.35-1.86.38-3.7.59-5.53.9-.91.16-1.82.32-2.71.54-.88.22-1.77.48-2.51.9-.37.2-.67.47-.89.76-.17.3-.19.55-.02.85.39.6 1.23 1.07 2.04 1.42.82.36 1.7.64 2.58.85.87.24 1.78.29 2.7.42 1.83.18 3.68.28 5.52.26 3.69-.05 7.38-.5 10.98-1.3 3.59-.82 7.17-1.91 10.46-3.5 1.64-.83 3.25-1.76 4.77-2.79.76-.52 1.49-1.07 2.17-1.66.65-.59 1.31-1.28 1.56-1.99.11-.35.08-.63-.13-.88-.21-.24-.61-.46-.99-.58-.76-.25-1.66-.16-2.54.01-1.79.34-3.55.93-5.35 1.47-1.8.53-3.64.96-5.5 1.26-.93.15-1.86.26-2.8.34-.44.05-1.02.07-1.51-.06-.5-.12-.97-.32-1.4-.57-.83-.53-1.66-1.2-1.94-2.33-.05-.28-.01-.64.08-.87.08-.24.18-.47.3-.7.24-.45.55-.84.89-1.2.68-.7 1.44-1.25 2.07-1.89.64-.63 1.11-1.37 1.25-2.23.16-.84-.07-1.73-.76-2.18-.68-.46-1.63-.46-2.57-.58-.95-.13-1.9-.39-2.74-.93a4.061 4.061 0 0 1-1.74-2.34c-.3-.98.02-2.07.64-2.82.6-.77 1.35-1.36 2.13-1.89 1.53-1.09 3.28-1.83 4.57-3.16 1.29-1.31 2.22-2.99 2.6-4.8.19-.9.22-1.86-.1-2.73-.32-.86-1.02-1.62-1.93-1.85.92.21 1.64.96 1.99 1.83.35.88.34 1.86.17 2.78-.35 1.84-1.25 3.58-2.54 4.95-.64.69-1.42 1.26-2.21 1.76-.79.51-1.58.99-2.33 1.53s-1.46 1.13-1.99 1.85c-.55.71-.78 1.61-.51 2.43.26.82.81 1.58 1.56 2.02.75.46 1.63.7 2.53.81.88.12 1.91.07 2.83.64.94.59 1.24 1.81 1.05 2.77-.14 1-.72 1.91-1.39 2.59-.67.7-1.43 1.26-2.04 1.9-.3.32-.57.67-.76 1.05-.09.19-.18.39-.24.59-.08.21-.07.32-.05.51.17.71.87 1.38 1.6 1.8.38.21.78.38 1.19.47.42.1.78.08 1.27.03.92-.09 1.83-.21 2.74-.37 1.82-.31 3.62-.73 5.39-1.26s3.55-1.14 5.43-1.51c.93-.17 1.96-.31 2.99.01.5.17.97.39 1.39.84.43.45.52 1.22.32 1.74-.38 1.06-1.11 1.74-1.81 2.4-.72.64-1.48 1.21-2.26 1.75a44.087 44.087 0 0 1-4.87 2.87c-3.42 1.66-7.01 2.78-10.68 3.62-3.67.8-7.43 1.24-11.19 1.28-1.88.01-3.76-.09-5.64-.29-.92-.13-1.88-.2-2.82-.46-.93-.24-1.83-.53-2.72-.92-.87-.41-1.79-.82-2.44-1.79-.13-.26-.28-.56-.24-.9-.01-.17.01-.33.08-.47.06-.14.11-.3.19-.41.32-.47.76-.81 1.2-1.05.89-.5 1.82-.75 2.74-.98s1.85-.39 2.78-.55c1.85-.3 3.71-.52 5.51-.86.88-.19 1.85-.35 2.37-.88.64-.57 1.02-1.34.91-2.15-.09-.81-.57-1.59-1.15-2.25-.14-.16-.31-.34-.45-.46-.1-.1-.3-.16-.49-.22-.4-.1-.87-.13-1.33-.18-.92-.09-1.99-.23-2.79-.99-.77-.75-1.05-1.86-.86-2.86.09-.51.33-1 .64-1.39.31-.4.7-.74 1.13-.99.86-.51 1.79-.72 2.6-1.09 1.72-.6 2.17-2.84 1.38-4.38-.78-1.62-2.42-2.68-4.16-3.24-1.74-.59-3.61-.89-5.35-1.62-1.74-.71-3.35-1.72-4.73-2.98-.68-.63-1.31-1.38-1.57-2.3-.32-.85-.19-1.91.49-2.58z" opacity=".78"/><linearGradient id="g" x1="15.507" x2="110.88" y1="69.382" y2="69.382" gradientTransform="matrix(1 0 0 -1 0 128.03)" gradientUnits="userSpaceOnUse"><stop offset="0" stop-color="#FFF1C0"/><stop offset=".242" stop-color="#FDEDBB"/><stop offset=".535" stop-color="#F5E1AC"/><stop offset=".853" stop-color="#EACE94"/><stop offset="1" stop-color="#E3C386"/></linearGradient><path fill="url(#g)" d="M109.18 43.3s1.71 4.26 1.71 7.37c0 5.18-4.62 9.51-6.09 10.93C97.35 68.75 81.45 74 62.99 74c-19.84 0-36.79-5.96-43.34-13.92-1.87-2.28-4.14-5.26-4.14-10.44 0-4.15 2.07-6.22 2.07-6.22"/><radialGradient id="h" cx="37.192" cy="89.022" r="79.422" gradientTransform="matrix(1 0 0 -.5569 0 88.588)" gradientUnits="userSpaceOnUse"><stop offset="0" stop-color="#FFAD2E"/><stop offset=".249" stop-color="#E7971C"/><stop offset="1" stop-color="#A5551B"/></radialGradient><path fill="url(#h)" d="M62.16 25.79c11.1 0 19.84 2.07 27.99 4.98 3.97 1.42 8.88 3.03 11.8 4.68 5.83 3.29 8.36 6.94 7.28 10.67-2.49 8.57-15.68 14.4-19.08 15.55-7.84 2.67-17.28 5.02-27.16 4.88-22.68-.3-33.56-6.3-37.17-8.46-5.7-3.42-9.07-7.59-9.07-11.97 0-5.16 3.94-10.37 11.94-13.67 8.5-3.51 16.88-6.66 33.47-6.66z"/><linearGradient id="i" x1="25.501" x2="94.33" y1="49.516" y2="49.516" gradientUnits="userSpaceOnUse"><stop offset="0" stop-color="#DB7C34"/><stop offset=".251" stop-color="#C45D12"/><stop offset=".436" stop-color="#B4520F"/><stop offset=".626" stop-color="#994105"/><stop offset=".817" stop-color="#913B02"/></linearGradient><path fill="url(#i)" d="M42.25 34.25c-1.18.98-4.11 2.5-5.58 2.94-9.52 2.85-11.55 4.49-11.12 7.69.21 1.55 2.85 2.94 11.72 4.19 3.33.47 6.68 1.73 9.02 4.14 2.74 2.81 1.16 5.17 3.77 8.11 4.26 4.81 11.25 3.74 19.13 9.7 3.36 2.54 7.61.54 9.22-.77 1.55-1.26 4.3-5.14 6.92-6.72 10.89-6.57 4.56-13.95 3.7-14.8-1.43-1.42-4.67-2.64-6.12-4.03-3.97-3.83 6.05-4.43 10.43-7.41.41-.28.87-.6.96-1.09.14-.74-.59-1.35-1.27-1.69-2.1-1.05-4.48-1.4-6.82-1.68-6.15-.75-12.35-1.19-18.54-1.3-2.09-.04-4.22-.05-6.24-.58-2.87-.76-5.38-2.54-8.23-3.32-2.02-.55-7.19-1.51-9.04-.18-1.17.84-.63 1.78-.51 2.94.19 1.78.07 2.65-1.4 3.86z" opacity=".78"/><path fill="#EDC23A" d="M63.47 40.53h-1.08l-9.56-6.15-1.69 2.12c-1.57 1.89-1.3 2.95.03 3.66l9.5 5.26c2.37 1.08 5.04.98 7.06-.19l7.43-4.17c1.03-.54 1.64-1.54.64-3.11-.82-1.27-2.12-3.36-2.12-3.36l-10.21 5.94z"/><path fill="#FFD54F" d="m62.39 40.53-9.56-6.15-1.69 2.12c-1.57 1.89-1.3 2.95.03 3.66l9.5 5.26c1.27.58 2.63.81 3.93.73-.02-.99-.32-2.03-.12-3.01.17-.84.75-1.59 1.51-1.97l-1.05-1.49-1.48.86h-1.07z"/><path fill="#F9E295" d="m73.25 36.78-6.85 4.13c-.57.34-2.74 1.89-6.27-.41l-6.85-4.28c-1.38-.84-.7-1.79.08-2.33l7.81-4.63c1.07-.64 2.57-.71 3.48-.15l8.71 5.23c1.25.74.46 2.21-.11 2.44z"/><path fill="#823315" d="M25.56 44.88c.13.61.68.97 1.17 1.27.52.29 1.07.51 1.63.71 1.13.38 2.29.67 3.45.93 2.34.52 4.68.8 7.1 1.2 2.39.46 4.78 1.32 6.78 2.87.97.77 1.94 1.7 2.52 2.92.6 1.21.72 2.5 1.05 3.54.58 2.09 2.37 3.64 4.34 4.68 2.01 1.04 4.32 1.65 6.62 2.42 2.3.75 4.62 1.69 6.75 2.95.54.31 1.06.64 1.58.99.26.17.51.35.76.53s.52.38.71.5c.83.57 1.81.87 2.84.86 2.04-.03 4.29-.93 5.7-2.48 1.6-1.67 3.13-3.61 5.11-5.22.48-.39 1.12-.79 1.58-1.07.5-.3.96-.63 1.43-.96.91-.68 1.76-1.44 2.45-2.3 1.4-1.7 2.03-3.88 1.52-6.01-.24-1.06-.72-2.08-1.34-3.01-.32-.46-.65-.9-1.04-1.23-.41-.35-.88-.67-1.37-.98-.99-.63-2.05-1.2-3.08-1.89-.51-.35-1.03-.74-1.48-1.24-.22-.25-.43-.52-.6-.86-.16-.33-.28-.75-.2-1.18.19-.89.85-1.31 1.37-1.64.56-.33 1.13-.56 1.7-.77 1.15-.42 2.3-.75 3.45-1.1 1.14-.35 2.28-.71 3.38-1.16.55-.22 1.1-.47 1.61-.76.49-.31 1.1-.58 1.26-1.19-.11.62-.72.97-1.18 1.32-.5.34-1.03.64-1.57.91-1.09.53-2.21.97-3.34 1.39-1.12.42-2.25.83-3.33 1.3-.54.24-1.06.5-1.52.81-.45.3-.84.7-.86 1.04-.05.33.22.76.6 1.14s.83.69 1.32 1c.99.6 2.06 1.12 3.13 1.73.54.31 1.07.63 1.59 1.05.54.43.96.95 1.34 1.46.75 1.03 1.35 2.2 1.69 3.47.33 1.27.39 2.65.07 3.96-.31 1.31-.95 2.5-1.74 3.53s-1.73 1.9-2.73 2.67c-.5.37-1.01.75-1.54 1.08-.56.36-.93.61-1.38.97-1.75 1.42-3.21 3.29-4.9 5.09-.42.44-.94.94-1.51 1.31-.56.37-1.13.69-1.74.95-1.2.52-2.52.86-3.89.84A7.04 7.04 0 0 1 68.89 72c-.31-.2-.52-.37-.76-.54-.23-.18-.47-.34-.71-.5-.48-.33-.97-.64-1.46-.93-1.99-1.19-4.14-2.08-6.37-2.88-2.22-.81-4.58-1.45-6.82-2.67-1.11-.61-2.17-1.39-3.04-2.35-.89-.93-1.6-2.16-1.91-3.43-.33-1.26-.41-2.41-.86-3.38-.4-.99-1.17-1.82-2.03-2.57-1.74-1.48-3.94-2.41-6.21-3.02-1.13-.31-2.32-.49-3.5-.74s-2.35-.51-3.52-.82c-1.16-.31-2.32-.66-3.44-1.12-.56-.24-1.11-.49-1.61-.83-.47-.3-1.01-.72-1.09-1.34z" opacity=".78"/><path fill="#FEF6E0" d="M65.74 66.09c2.7-.26 5.33-.5 7.98-.82 2.65-.3 5.27-.68 7.97-.99-2.49 1.08-5.17 1.65-7.85 1.98-2.69.3-5.43.35-8.1-.17zm8.66 43.34c2.68-.4 5.3-.77 7.93-1.23 2.63-.44 5.23-.95 7.9-1.4-2.44 1.21-5.07 1.92-7.74 2.39-2.66.43-5.4.62-8.09.24z"/><path fill="#823315" d="M62.16 27.86c9.45 0 17.87 1.5 27.29 4.86.6.22 1.23.44 1.87.66 3.42 1.2 7.29 2.57 9.6 3.87l.06.03c4.54 2.56 9.02 8.52 7.2 15.77-1.49 5.52-4.54 9.55-4.54 9.55 4.15 2.08 1.44 10.24 1.44 10.24 1.02 1.07 3.81 2.3 3.39 6.9 0 4.11-3.78 9.41-5.36 10.92-7.47 7.18-23.31 11.82-40.37 11.82-18.2 0-35.36-5.41-41.74-13.17-4.99-4.27-3.57-10.23-3.09-11.03l.78-1.29s-5.22-4.23-4.38-14.24c.25-4.81 2.76-6.41 2.76-6.41s-3.89-16.1 12.38-22c9.39-3.92 18.56-5.54 18.56-5.54 4.31-.62 8.93-.94 14.15-.94m0-2.07c-15.52-.45-27.38 4.02-33.47 6.66-16.43 6.68-13.5 20.69-13.18 21.86-.82 1.06-3.08 4.34-3.25 8.38-.35 8.59 3.71 14.34 3.89 14.54-.6.99-2.26 7.82 3.26 13.42 6.55 7.97 23.51 13.92 43.34 13.92 18.46 0 34.37-5.25 41.8-12.4 1.47-1.42 5.99-7.24 5.99-12.42.22-5.67-2.29-8.35-3.59-9.72.75-1.68 1.03-3.68.84-5.34-.19-1.67-.53-2.72-1.04-4.05 0 0 4.11-4.41 4.11-9.65-.33-10.39-4.19-12.86-8.93-15.54-2.91-1.65-7.83-3.27-11.8-4.68-8.14-2.91-16.87-4.98-27.97-4.98z" opacity=".36"/></svg>