<svg xmlns="http://www.w3.org/2000/svg" style="enable-background:new 0 0 128 128" viewBox="0 0 128 128" xml:space="preserve"><linearGradient id="a" x1="82.33" x2="96.24" y1="24.08" y2="24.08" gradientTransform="matrix(1 0 0 -1 0 127.89)" gradientUnits="userSpaceOnUse"><stop offset=".158" style="stop-color:#655c5a"/><stop offset=".335" style="stop-color:#5a5250"/><stop offset=".646" style="stop-color:#3d3736"/><stop offset="1" style="stop-color:#141111"/></linearGradient><path d="M82.33 101.06h13.91v5.5H82.33z" style="fill:url(#a)"/><linearGradient id="b" x1="89.285" x2="89.285" y1="26.831" y2="21.33" gradientTransform="matrix(1 0 0 -1 0 127.89)" gradientUnits="userSpaceOnUse"><stop offset="0" style="stop-color:#bfbebe"/><stop offset=".4" style="stop-color:#212121;stop-opacity:0"/><stop offset=".6" style="stop-color:#212121;stop-opacity:0"/><stop offset="1" style="stop-color:#bfbebe"/></linearGradient><path d="M82.33 101.06h13.91v5.5H82.33z" style="opacity:.5;fill:url(#b)"/><path d="M39.78 110.02c-.82 0-1.48-.12-1.83-.23l-18.34-6.13c-.43-.14-.78-.44-.99-.84s-.24-.86-.1-1.29c.23-.7.87-1.17 1.61-1.17.18 0 .35.03.52.08l17.7 5.87c.05.02.1.03.16.03.14 0 .28-.06.38-.17l9.62-10.94 1.85 4.77c-1.19 1.41-7.55 8.94-7.75 9.17-.47.53-1.5.85-2.83.85z" style="fill:#504f4f"/><radialGradient id="c" cx="41.125" cy="15.54" r="9.476" gradientTransform="matrix(1 0 0 -1 0 127.89)" gradientUnits="userSpaceOnUse"><stop offset=".017" style="stop-color:#afb8b6"/><stop offset=".183" style="stop-color:#a4aead"/><stop offset=".475" style="stop-color:#869295"/><stop offset=".857" style="stop-color:#57656f"/><stop offset="1" style="stop-color:#43535f"/></radialGradient><path d="M44.55 123.4c-3.76 0-6.82-3.06-6.82-6.82s3.06-6.82 6.82-6.82 6.82 3.06 6.82 6.82-3.06 6.82-6.82 6.82z" style="fill:url(#c)"/><path d="M44.55 119.5c-1.61 0-2.92-1.31-2.92-2.92s1.31-2.92 2.92-2.92 2.92 1.31 2.92 2.92-1.31 2.92-2.92 2.92z" style="fill:#282323"/><path d="M44.55 114.16c1.33 0 2.42 1.08 2.42 2.42S45.89 119 44.55 119s-2.42-1.08-2.42-2.42 1.09-2.42 2.42-2.42m0-1c-1.89 0-3.42 1.53-3.42 3.42s1.53 3.42 3.42 3.42 3.42-1.53 3.42-3.42-1.53-3.42-3.42-3.42z" style="fill:#504f4f"/><path d="M44.55 117.79c-.76 0-1.38-.62-1.38-1.38V99.78h2.75v16.63c.01.76-.61 1.38-1.37 1.38z" style="fill:#43535f"/><linearGradient id="d" x1="47.45" x2="47.45" y1="28.899" y2="21.16" gradientTransform="matrix(1 0 0 -1 0 127.89)" gradientUnits="userSpaceOnUse"><stop offset=".351" style="stop-color:#b80000"/><stop offset=".52" style="stop-color:#ad0000"/><stop offset=".817" style="stop-color:#8f0000"/><stop offset="1" style="stop-color:#7a0000"/></linearGradient><path d="M44.25 106.82c-1.57 0-2.85-1.28-2.85-2.85v-1.4c0-.77.32-1.52.88-2.06l8.5-8.14 2.72 14.44-9.25.01z" style="fill:url(#d)"/><g style="opacity:.2"><radialGradient id="e" cx="50.845" cy="28.295" r="5.445" gradientTransform="matrix(1 0 0 -1 0 127.89)" gradientUnits="userSpaceOnUse"><stop offset=".15" style="stop-color:#2f2829"/><stop offset=".574" style="stop-color:#241e1f"/><stop offset="1" style="stop-color:#141111"/></radialGradient><path d="m51.09 106.82-2.91-11.95 2.61-2.5 2.72 14.45z" style="fill:url(#e)"/><path d="m50.46 93.37 2.44 12.94h-1.42l-2.75-11.29 1.73-1.65" style="fill:#141111"/></g><radialGradient id="f" cx="93.315" cy="15.54" r="9.476" gradientTransform="matrix(1 0 0 -1 0 127.89)" gradientUnits="userSpaceOnUse"><stop offset=".017" style="stop-color:#afb8b6"/><stop offset=".183" style="stop-color:#a4aead"/><stop offset=".475" style="stop-color:#869295"/><stop offset=".857" style="stop-color:#57656f"/><stop offset="1" style="stop-color:#43535f"/></radialGradient><circle cx="96.74" cy="116.58" r="6.82" style="fill:url(#f)"/><circle cx="96.74" cy="116.58" r="2.92" style="fill:#282323"/><path d="M96.74 114.16c1.33 0 2.42 1.08 2.42 2.42S98.08 119 96.74 119s-2.42-1.08-2.42-2.42 1.09-2.42 2.42-2.42m0-1c-1.89 0-3.42 1.53-3.42 3.42s1.53 3.42 3.42 3.42 3.42-1.53 3.42-3.42-1.53-3.42-3.42-3.42z" style="fill:#504f4f"/><radialGradient id="g" cx="68.19" cy="33.195" r="3.09" gradientTransform="matrix(1 0 0 -1 0 127.89)" gradientUnits="userSpaceOnUse"><stop offset=".017" style="stop-color:#afb8b6"/><stop offset=".183" style="stop-color:#a4aead"/><stop offset=".475" style="stop-color:#869295"/><stop offset=".857" style="stop-color:#57656f"/><stop offset="1" style="stop-color:#43535f"/></radialGradient><path d="M66.49 90.67h3.4v8.05h-3.4z" style="fill:url(#g)"/><path d="M69.39 91.17v7.05h-2.4v-7.05h2.4m1-1h-4.4v9.05h4.4v-9.05z" style="fill:#2f3b4b"/><linearGradient id="h" x1="66.52" x2="66.52" y1="44.16" y2="61.46" gradientTransform="matrix(1 0 0 -1 0 127.89)" gradientUnits="userSpaceOnUse"><stop offset="0" style="stop-color:#6d6c6b"/><stop offset="1" style="stop-color:#444343"/></linearGradient><path d="M65.42 86.18c-.73-.96-2.49-3.92-2.49-10.13 0-6.22 1.77-9.18 2.5-10.14l4.47 1.95c-.68 1.05-1.97 3.64-1.97 8.19 0 4.52 1.4 6.96 2.18 7.96l-4.69 2.17z" style="fill:url(#h)"/><linearGradient id="i" x1="68.44" x2="68.44" y1="19.9" y2="36.861" gradientTransform="matrix(1 0 0 -1 0 127.89)" gradientUnits="userSpaceOnUse"><stop offset="0" style="stop-color:#cb0a05"/><stop offset=".271" style="stop-color:#f31612"/><stop offset=".892" style="stop-color:#f31612"/><stop offset=".956" style="stop-color:#d80e09"/><stop offset="1" style="stop-color:#cb0a05"/></linearGradient><path d="M55.28 109.33c-2.27 0-2.8-1.33-3.14-4.31l-2.15-15.06h36.9L84.75 105c-.34 2.99-.88 4.32-3.14 4.32H55.28v.01z" style="fill:url(#i)"/><g style="opacity:.2"><radialGradient id="j" cx="68.44" cy="37.177" r="13.057" gradientTransform="matrix(1 0 0 -1 0 127.89)" gradientUnits="userSpaceOnUse"><stop offset=".15" style="stop-color:#2f2829"/><stop offset=".574" style="stop-color:#241e1f"/><stop offset="1" style="stop-color:#141111"/></radialGradient><path d="m50.21 91.47-.22-1.51h36.9l-.22 1.51z" style="fill:url(#j)"/></g><linearGradient id="k" x1="68.496" x2="68.496" y1="47.793" y2="38.755" gradientTransform="matrix(1 0 0 -1 0 127.89)" gradientUnits="userSpaceOnUse"><stop offset="0" style="stop-color:#504f4f"/><stop offset="1" style="stop-color:#141111"/></linearGradient><path d="M50.01 90.23a1.47 1.47 0 0 1-1.46-1.49l.08-4.61c.01-.79.66-1.44 1.46-1.45l38.16-.19.19 5.44c.02.64-.22 1.25-.67 1.72s-1.05.72-1.7.72l-36.06-.14z" style="fill:url(#k)"/><linearGradient id="l" x1="68.496" x2="68.496" y1="43.966" y2="37.2" gradientTransform="matrix(1 0 0 -1 0 127.89)" gradientUnits="userSpaceOnUse"><stop offset=".358" style="stop-color:#212121;stop-opacity:0"/><stop offset="1" style="stop-color:#bfbebe"/></linearGradient><path d="M50.01 90.23a1.47 1.47 0 0 1-1.46-1.49l.08-4.61c.01-.79.66-1.44 1.46-1.45l38.16-.19.19 5.44c.02.64-.22 1.25-.67 1.72s-1.05.72-1.7.72l-36.06-.14z" style="opacity:.5;fill:url(#l)"/><linearGradient id="m" x1="68.445" x2="68.445" y1="34.53" y2="22.82" gradientTransform="matrix(1 0 0 -1 0 127.89)" gradientUnits="userSpaceOnUse"><stop offset=".533" style="stop-color:#9f0b00"/><stop offset=".976" style="stop-color:#9f0b00;stop-opacity:0"/></linearGradient><path d="M54.11 105.07h28.67s-.88-11.71-13.93-11.71-14.74 11.71-14.74 11.71z" style="fill:url(#m)"/><radialGradient id="n" cx="63.365" cy="27.39" r="17.005" gradientTransform="matrix(1 0 0 -1 0 127.89)" gradientUnits="userSpaceOnUse"><stop offset=".017" style="stop-color:#afb8b6"/><stop offset=".183" style="stop-color:#a4aead"/><stop offset=".475" style="stop-color:#869295"/><stop offset=".857" style="stop-color:#57656f"/><stop offset="1" style="stop-color:#43535f"/></radialGradient><path d="M68.44 122.9c-7.07 0-12.82-5.75-12.82-12.82s5.75-12.82 12.82-12.82 12.82 5.75 12.82 12.82-5.75 12.82-12.82 12.82z" style="fill:url(#n)"/><path d="M68.44 116.01c-3.42 0-6.2-2.78-6.2-6.2s2.78-6.2 6.2-6.2 6.2 2.78 6.2 6.2-2.78 6.2-6.2 6.2z" style="fill:#afb8b6"/><path d="M68.44 104.1c3.15 0 5.7 2.56 5.7 5.7 0 3.15-2.56 5.7-5.7 5.7s-5.7-2.56-5.7-5.7 2.56-5.7 5.7-5.7m0-1a6.7 6.7 0 1 0 0 13.4 6.7 6.7 0 0 0 0-13.4z" style="fill:#2f3b4b"/><path d="M68.44 111.79c-1.09 0-1.99-.89-1.99-1.98s.89-1.98 1.99-1.98c1.09 0 1.98.89 1.98 1.98s-.88 1.98-1.98 1.98z" style="fill:#2f2829"/><path d="M68.44 108.32c.82 0 1.48.67 1.48 1.48s-.67 1.48-1.48 1.48-1.48-.67-1.48-1.48.66-1.48 1.48-1.48m0-1a2.48 2.48 0 1 0 2.48 2.48c.01-1.37-1.11-2.48-2.48-2.48z" style="fill:#141111"/><path d="M96.74 117.79c-.76 0-1.38-.62-1.38-1.38V99.78h2.75v16.63c.01.76-.61 1.38-1.37 1.38z" style="fill:#43535f"/><ellipse cx="96.74" cy="99.78" rx="1.37" ry=".55" style="fill:#504f4f"/><path d="M51.65 66v-.86c0-.84.17-1.93.68-2.6.11-.14.2-.31.27-.49.31-.9-.17-1.87-1.07-2.18s-1.87.17-2.18 1.07c-.18.54-.09 1.1.22 1.54.5.72.57 1.38.58 2.26v.77c0 .22.43.57.63.63.05.02.1.03.16.03.28 0 .71.1.71-.17z" style="fill:#504f4f"/><path d="M55.78 64.16 54.5 65.5h-6.92l-6.6-3.42c-.37-.19-1.5.39-.53 1.2l7.65 5.43c.45.32 1 .49 1.55.49h2.45c1.54 0 2.35-.84 3.17-2.16.31-.51.6-1.09.6-1.09l-.09-1.79z" style="fill:#504f4f"/><radialGradient id="o" cx="36.857" cy="154.977" r="5.596" gradientTransform="matrix(1.6234 .3557 .1877 -.8569 2.12 151.816)" gradientUnits="userSpaceOnUse"><stop offset=".017" style="stop-color:#afb8b6"/><stop offset=".183" style="stop-color:#a4aead"/><stop offset=".475" style="stop-color:#869295"/><stop offset=".857" style="stop-color:#57656f"/><stop offset="1" style="stop-color:#43535f"/></radialGradient><path d="m87.73 42.66 3.36-15.37 2.98.66-3.36 15.36z" style="fill:url(#o)"/><linearGradient id="p" x1="87.738" x2="97.665" y1="103.238" y2="101.715" gradientTransform="matrix(1 0 0 -1 0 127.89)" gradientUnits="userSpaceOnUse"><stop offset="0" style="stop-color:#504f4f"/><stop offset="1" style="stop-color:#141111"/></linearGradient><path d="M93.5 34.42c-.14 0-.28-.01-.42-.03l-3.79-.59c-.72-.11-1.35-.5-1.77-1.08-.43-.59-.6-1.3-.49-2.02l1.89-12.05a2.693 2.693 0 0 1 2.68-2.29c.14 0 .28.01.42.03l3.79.59c1.48.23 2.49 1.62 2.26 3.1l-1.89 12.05a2.734 2.734 0 0 1-2.68 2.29z" style="fill:url(#p)"/><linearGradient id="q" x1="87.738" x2="97.665" y1="103.238" y2="101.715" gradientTransform="matrix(1 0 0 -1 0 127.89)" gradientUnits="userSpaceOnUse"><stop offset=".406" style="stop-color:#212121;stop-opacity:0"/><stop offset="1" style="stop-color:#bfbebe"/></linearGradient><path d="M93.5 34.42c-.14 0-.28-.01-.42-.03l-3.79-.59c-.72-.11-1.35-.5-1.77-1.08-.43-.59-.6-1.3-.49-2.02l1.89-12.05a2.693 2.693 0 0 1 2.68-2.29c.14 0 .28.01.42.03l3.79.59c1.48.23 2.49 1.62 2.26 3.1l-1.89 12.05a2.734 2.734 0 0 1-2.68 2.29z" style="opacity:.5;fill:url(#q)"/><linearGradient id="r" x1="79.872" x2="91.552" y1="69.322" y2="66.581" gradientTransform="matrix(1 0 0 -1 0 127.89)" gradientUnits="userSpaceOnUse"><stop offset="0" style="stop-color:#504f4f"/><stop offset="1" style="stop-color:#141111"/></linearGradient><path d="M86.49 84.28c-.12 0-.25-.01-.38-.03-3.71-.62-9.85-2.86-9.34-10.85.7-11.05 4.83-24.6 8.16-32.85.99-2.46 2.67-3.87 4.6-3.87 1.09 0 2.12.47 2.9 1.32.97 1.06 1.43 2.58 1.29 4.28-.6 7.3-3.69 30.43-4.99 40.04a2.272 2.272 0 0 1-2.24 1.96z" style="fill:url(#r)"/><linearGradient id="s" x1="80.718" x2="91.462" y1="59.527" y2="60.922" gradientUnits="userSpaceOnUse"><stop offset=".426" style="stop-color:#212121;stop-opacity:0"/><stop offset="1" style="stop-color:#bfbebe"/></linearGradient><path d="M86.49 84.28c-.12 0-.25-.01-.38-.03-3.71-.62-9.85-2.86-9.34-10.85.7-11.05 4.83-24.6 8.16-32.85.99-2.46 2.67-3.87 4.6-3.87 1.09 0 2.12.47 2.9 1.32.97 1.06 1.43 2.58 1.29 4.28-.6 7.3-3.69 30.43-4.99 40.04a2.272 2.272 0 0 1-2.24 1.96z" style="opacity:.5;fill:url(#s)"/><linearGradient id="t" x1="56.509" x2="107.349" y1="62.61" y2="62.61" gradientTransform="matrix(1 0 0 -1 0 127.89)" gradientUnits="userSpaceOnUse"><stop offset="0" style="stop-color:#504f4f"/><stop offset="1" style="stop-color:#141111"/></linearGradient><path d="M59.67 67.83c-3.23-.17-3.72-.7-3.84-2.58-.17-2.58 1.39-2.92 3.77-3.15l.47-.05c1.2-.13 3.13-.19 5.73-.19 5.8 0 13.04.33 13.11.33 1.66 0 2.81.36 3.46 1.07.54.59.77 1.48.67 2.64-.16 1.86-1.96 2.8-5.35 2.8l-18.02-.87z" style="fill:url(#t)"/></svg>