<svg xmlns="http://www.w3.org/2000/svg" viewBox="0 0 128 128"><linearGradient id="a" x1="7.628" x2="121.38" y1="91.657" y2="91.657" gradientUnits="userSpaceOnUse"><stop offset="0" stop-color="#8A3523"/><stop offset="1" stop-color="#C66C00"/></linearGradient><path fill="url(#a)" d="M120.7 59.42c-.54-.87-2.4 3.78-3.42 3.9-1.71.2-2.91 0-4.42-.71-1.17-.56-3.14-1.48-4.44-1.45-1.95.05-3.63 1.22-5.41-.43L64.3 59.44v-.02l-.25.01-.25-.01v.02l-38.72 1.29c-1.78 1.65-3.45.48-5.41.43-1.3-.03-3.27.9-4.44 1.45-1.51.72-2.7.91-4.42.71-1.02-.12-2.41-2.47-2.96-1.6-.25.4-.15.09-.22 1.77-.09 1.88 0 2.48 2.61 5.25 1.47 1.57 1.04 4.38 2.23 5.93 3.62 4.69 28.15 28.56 35.32 35.73l11.75 11.75A6.34 6.34 0 0 0 63.8 124h.25c.08 0 .16.01.25 0v-.01c1.55-.06 3.08-.66 4.26-1.85l11.75-11.75c7.17-7.17 31.7-31.04 35.32-35.73 1.19-1.55.97-5.14 2.41-6.73 1.44-1.6 2.63-2.9 3.1-4.5.67-2.3-.19-3.61-.44-4.01z"/><path fill="#F49314" d="M59.55 16.55c-.75.6-1.51 1.2-2.26 1.8-6.41 5.09-12.81 10.19-19.22 15.28-3.98 3.17-7.96 6.33-11.95 9.5-1.21.96-2.3 2.09-3.7 2.73-1.58.72 1.21-2.54.05-1.25-1.83 2.03-4 1.06-6.46 4.17-3.33 4.21-3.69 8.58-5.31 9.86-.87.69-3.21 1.21-2.87 3.33s5.64 4.91 8.93 7.93c2.67 2.45 3.91 7.27 6.59 9.71 2.41 2.19 5.6 3.34 8.04 5.5 1.96 1.73 3.32 4.02 4.86 6.14 2.15 2.98 4.84 6.32 7.94 8.37 3.31 2.2 5.95 4.7 8.82 7.53 1.5 1.48 2.95 2.52 4.61 3.71 1.77 1.27 2.63 3.57 4.66 4.53 2 .95 3.87 1.14 6.2-1.21 1.56-1.58 2.17-2.34 3.81-3.83 1.65-1.5 3.49-2.72 6.06-5.11s3.64-5.67 4.76-7.31c3.28-4.83 7.13-7.09 14.5-13.13 4.08-3.34 5.57-7.12 9.3-10.85s7.18-5.83 10.91-9.56c1.04-1.04 2.3-1.81 2.8-3.25.97-2.78-2.06-3.76-2.9-4.55-.53-.5-.84-1.19-1.18-1.84-1.95-3.75-5.94-8.28-9.05-10.93-8.01-6.8-15.95-10.38-24.43-16.63-4.82-3.55-9.63-7.1-14.45-10.65-2.51-2.49-6.56-2.49-9.06.01z"/><radialGradient id="b" cx="64.148" cy="97.334" r="35.075" gradientUnits="userSpaceOnUse"><stop offset="0" stop-color="#C66C00"/><stop offset="1" stop-color="#C66C00" stop-opacity=".121"/></radialGradient><path fill="url(#b)" d="m29.21 79.18 32.56 30.98a3.902 3.902 0 0 0 5.31-.03l35.41-36.07 1.44-6.7-74.11 5.61-.61 6.21z"/><linearGradient id="c" x1="64.077" x2="64.077" y1="66.524" y2=".718" gradientUnits="userSpaceOnUse"><stop offset=".393" stop-color="#FFB74D"/><stop offset=".511" stop-color="#FFB850"/><stop offset="1" stop-color="#FFCC80"/></linearGradient><path fill="url(#c)" d="M57.26 6.86 17.84 46.27a9.639 9.639 0 0 0 0 13.64l39.42 39.42a9.639 9.639 0 0 0 13.64 0l39.42-39.42a9.639 9.639 0 0 0 0-13.64L70.9 6.86c-3.77-3.77-9.88-3.77-13.64 0z"/><path fill="#BD6120" d="m56.07 18.47.95.95c.31.31.81.31 1.12 0l5.41-5.41a.79.79 0 0 1 1.12 0l5.4 5.4c.31.31.81.31 1.12 0l.94-.94a.79.79 0 0 0 0-1.12l-7.48-7.48a.79.79 0 0 0-1.12 0l-7.48 7.48c-.29.3-.29.81.02 1.12z"/><path fill="#AC5221" d="m43.95 30.59.95.95c.31.31.81.31 1.12 0l5.41-5.41a.79.79 0 0 1 1.12 0l5.4 5.4c.31.31.81.31 1.12 0l.94-.94a.79.79 0 0 0 0-1.12l-7.48-7.48a.79.79 0 0 0-1.12 0l-7.48 7.48c-.29.3-.29.81.02 1.12z"/><path fill="#9B4422" d="m31.83 42.7.95.95c.31.31.81.31 1.12 0l5.41-5.41a.79.79 0 0 1 1.12 0l5.4 5.4c.31.31.81.31 1.12 0l.94-.94a.79.79 0 0 0 0-1.12l-7.48-7.48a.79.79 0 0 0-1.12 0l-7.48 7.48a.81.81 0 0 0 .02 1.12z"/><path fill="#8A3523" d="m19.71 54.82.95.95c.31.31.81.31 1.12 0l5.41-5.41a.79.79 0 0 1 1.12 0l5.4 5.4c.31.31.81.31 1.12 0l.94-.94a.79.79 0 0 0 0-1.12l-7.48-7.48a.79.79 0 0 0-1.12 0l-7.48 7.48a.81.81 0 0 0 .02 1.12z"/><path fill="#BD6120" d="m92.33 54.73.95.95c.31.31.81.31 1.12 0l5.41-5.41a.79.79 0 0 1 1.12 0l5.4 5.4c.31.31.81.31 1.12 0l.94-.94a.79.79 0 0 0 0-1.12l-7.48-7.48a.79.79 0 0 0-1.12 0l-7.48 7.48a.81.81 0 0 0 .02 1.12z"/><path fill="#AC5221" d="m80.21 66.85.95.95c.31.31.81.31 1.12 0l5.41-5.41a.79.79 0 0 1 1.12 0l5.4 5.4c.31.31.81.31 1.12 0l.94-.94a.79.79 0 0 0 0-1.12l-7.48-7.48a.79.79 0 0 0-1.12 0l-7.48 7.48a.81.81 0 0 0 .02 1.12z"/><path fill="#9B4422" d="m68.09 78.97.95.95c.31.31.81.31 1.12 0l5.41-5.41a.79.79 0 0 1 1.12 0l5.4 5.4c.31.31.81.31 1.12 0l.94-.94a.79.79 0 0 0 0-1.12l-7.48-7.48a.79.79 0 0 0-1.12 0l-7.48 7.48a.81.81 0 0 0 .02 1.12z"/><path fill="#8A3523" d="m55.98 91.09.95.95c.31.31.81.31 1.12 0l5.41-5.41a.79.79 0 0 1 1.12 0l5.4 5.4c.31.31.81.31 1.12 0l.94-.94a.79.79 0 0 0 0-1.12l-7.48-7.48a.79.79 0 0 0-1.12 0l-7.48 7.48c-.3.31-.3.81.02 1.12z"/><path fill="#BD6120" d="m80.24 42.64.95.95c.31.31.81.31 1.12 0l5.41-5.41a.79.79 0 0 1 1.12 0l5.4 5.4c.31.31.81.31 1.12 0l.94-.94a.79.79 0 0 0 0-1.12l-7.48-7.48a.79.79 0 0 0-1.12 0l-7.48 7.48a.81.81 0 0 0 .02 1.12z"/><path fill="#AC5221" d="m68.12 54.76.95.95c.31.31.81.31 1.12 0l5.41-5.41a.79.79 0 0 1 1.12 0l5.4 5.4c.31.31.81.31 1.12 0l.94-.94a.79.79 0 0 0 0-1.12l-7.48-7.48a.79.79 0 0 0-1.12 0l-7.48 7.48a.81.81 0 0 0 .02 1.12z"/><path fill="#9B4422" d="m56.01 66.88.95.95c.31.31.81.31 1.12 0l5.41-5.41a.79.79 0 0 1 1.12 0l5.4 5.4c.31.31.81.31 1.12 0l.94-.94a.79.79 0 0 0 0-1.12l-7.48-7.48a.79.79 0 0 0-1.12 0l-7.48 7.48a.81.81 0 0 0 .02 1.12z"/><path fill="#8A3523" d="m43.89 79 .95.95c.31.31.81.31 1.12 0l5.41-5.41a.79.79 0 0 1 1.12 0l5.4 5.4c.31.31.81.31 1.12 0l.95-.94a.79.79 0 0 0 0-1.12l-7.48-7.48a.79.79 0 0 0-1.12 0l-7.48 7.48a.8.8 0 0 0 .01 1.12z"/><path fill="#BD6120" d="m68.15 30.56.95.95c.31.31.81.31 1.12 0l5.41-5.41a.79.79 0 0 1 1.12 0l5.4 5.4c.31.31.81.31 1.12 0l.94-.94a.79.79 0 0 0 0-1.12l-7.48-7.48a.79.79 0 0 0-1.12 0l-7.48 7.48c-.29.3-.29.81.02 1.12z"/><path fill="#AC5221" d="m56.04 42.67.95.95c.31.31.81.31 1.12 0l5.41-5.41a.79.79 0 0 1 1.12 0l5.4 5.4c.31.31.81.31 1.12 0l.94-.94a.79.79 0 0 0 0-1.12l-7.48-7.48a.79.79 0 0 0-1.12 0l-7.48 7.48a.81.81 0 0 0 .02 1.12z"/><path fill="#9B4422" d="m43.92 54.79.95.95c.31.31.81.31 1.12 0l5.41-5.41a.79.79 0 0 1 1.12 0l5.4 5.4c.31.31.81.31 1.12 0l.94-.94a.79.79 0 0 0 0-1.12l-7.48-7.48a.79.79 0 0 0-1.12 0l-7.48 7.48a.81.81 0 0 0 .02 1.12z"/><path fill="#8A3523" d="m31.8 66.91.95.95c.31.31.81.31 1.12 0l5.41-5.41a.79.79 0 0 1 1.12 0l5.4 5.4c.31.31.81.31 1.12 0l.94-.94a.79.79 0 0 0 0-1.12l-7.48-7.48a.79.79 0 0 0-1.12 0l-7.48 7.48a.81.81 0 0 0 .02 1.12z"/><path fill="#FFD54F" d="M78.9 66H54.86a2.49 2.49 0 0 1-2.49-2.49l1.68-18.72c0-1.38 2.41-4.81 5.84-4.81h16.2c2.19 0 4.08 3.25 4.08 4.63l1.23 18.9c0 1.37-1.12 2.49-2.5 2.49z"/><path fill="#F9A825" d="M81.25 64.3s-5.13-.57-5.97-4.89c-.68-3.49-17.31-8.48-18.02-3.48-.97 6.76-4.43 9.01-4.43 9.01.45.64 1.19 1.06 2.03 1.06H78.9c1.1 0 2.02-.71 2.35-1.7z"/><path fill="#FFECB3" d="m72.38 61.39-13.16-2.54a2.478 2.478 0 0 1-1.96-2.9l2.54-13.16a2.478 2.478 0 0 1 2.9-1.96l13.16 2.54c1.34.26 2.22 1.56 1.96 2.9l-2.54 13.16a2.478 2.478 0 0 1-2.9 1.96z"/><path fill="#BD6120" d="M54.05 44.79c-.11 3.11-.36 6.19-.63 9.26-.25 3.05-.64 6.19-.85 9.12-.06.67-.01 1.22.16 1.59.16.35.39.55.88.75.48.18 1.14.28 1.86.33.71.04 1.59.13 2.23.1 3.02-.07 6.13-.07 9.2-.12 3.08.04 6.16-.02 9.24.1l1.16.03c.36 0 .67 0 1-.03.64-.06 1.24-.2 1.73-.44.97-.46 1.48-1.31 1.53-2.58.02-.58-.06-1.38-.13-2.13l-.21-2.29-.41-4.6c-.24-3.08-.51-6.16-.63-9.26.85 2.99 1.54 6 2.23 9.01l.95 4.54c.16.76.29 1.52.43 2.29.13.77.29 1.5.32 2.46.02.92-.13 1.92-.62 2.85-.47.93-1.28 1.72-2.16 2.17-.88.47-1.81.7-2.7.81-.44.06-.9.07-1.31.09l-1.15.04c-3.08.14-6.16.13-9.25.2-3.09-.04-6.15.01-9.29-.17-.9-.05-1.56-.13-2.39-.19-.81-.08-1.7-.18-2.66-.55-.95-.34-2.01-1.19-2.43-2.29-.44-1.06-.44-2.11-.34-2.96.5-3.19 1.15-6.13 1.86-9.16.7-3 1.46-6 2.38-8.97z" opacity=".56"/><path d="M64.08 6.17c1.97 0 3.83.77 5.23 2.16l39.53 39.53c.39.39.74.84 1.06 1.35l.1.16.12.14c1.96 2.22 3.56 4.44 4.5 6.25l.12.23c.34.66.76 1.48 1.5 2.18.33.32.72.56 1.12.82.41.26 1.18.75 1.28 1.06l.08.27.15.24.09.15c.18.32.44.94.1 2.11-.32 1.11-1.31 2.2-2.56 3.59l-.07.07c-1.15 1.28-1.53 3.06-1.86 4.62-.17.8-.4 1.9-.66 2.24-2.71 3.51-18.55 19.14-28.01 28.48-2.94 2.9-5.49 5.41-7.12 7.04l-11.75 11.75c-.74.74-1.74 1.17-2.81 1.21h-.32a4.179 4.179 0 0 1-2.81-1.21l-11.75-11.75c-1.63-1.63-4.17-4.14-7.12-7.04-9.47-9.34-25.31-24.97-28.01-28.48-.25-.32-.41-1.13-.56-1.84-.27-1.32-.6-2.96-1.81-4.25-2.09-2.22-2.08-2.36-2.02-3.67.02-.42.03-.72.03-.94l.2-.33-.07-.7c.17-.17.65-.43.92-.57.38-.21.78-.42 1.15-.7 1.18-.94 1.78-2.45 2.48-4.21.69-1.74 1.54-3.91 3.15-5.96l.04-.05.14-.17.1-.2c.36-.71.82-1.34 1.37-1.89L58.85 8.34c1.4-1.4 3.25-2.17 5.23-2.17m0-2.17a9.5 9.5 0 0 0-6.76 2.8L17.78 46.33a9.49 9.49 0 0 0-1.77 2.45s0 .01-.01.01c-3.33 4.21-3.69 8.58-5.31 9.86-.85.67-3.08 1.19-2.88 3.17-.18.27-.1.15-.17 1.68-.09 1.88 0 2.48 2.61 5.25 1.47 1.57 1.04 4.38 2.23 5.93 3.62 4.69 28.15 28.56 35.32 35.73l11.75 11.75a6.34 6.34 0 0 0 4.26 1.85V124h.5v-.01a6.34 6.34 0 0 0 4.26-1.85l11.75-11.75c7.17-7.17 31.7-31.04 35.32-35.73 1.19-1.55.97-5.14 2.41-6.73 1.44-1.6 2.63-2.9 3.1-4.5.67-2.3-.18-3.61-.43-4.01-.46-1.52-2.35-2.23-2.98-2.83-.53-.5-.84-1.19-1.18-1.84-1.11-2.14-2.9-4.53-4.8-6.68-.38-.62-.83-1.21-1.37-1.74L70.84 6.8A9.533 9.533 0 0 0 64.08 4z" opacity=".2"/></svg>