<svg xmlns="http://www.w3.org/2000/svg" viewBox="0 0 128 128"><linearGradient id="a" x1="64" x2="64" y1="119.35" y2="56.578" gradientUnits="userSpaceOnUse"><stop offset=".386" stop-color="#eee"/><stop offset=".91" stop-color="#E0E0E0"/></linearGradient><ellipse cx="64" cy="67.9" fill="url(#a)" rx="59.31" ry="56.23"/><path fill="#212121" d="M64 13.67c31.6 0 57.31 24.33 57.31 54.23S95.6 122.13 64 122.13 6.69 97.8 6.69 67.9 32.4 13.67 64 13.67m0-2c-32.75 0-59.31 25.18-59.31 56.23S31.25 124.13 64 124.13s59.31-25.18 59.31-56.23S96.75 11.67 64 11.67z" opacity=".2"/><linearGradient id="b" x1="8.378" x2="119.65" y1="62.777" y2="62.777" gradientUnits="userSpaceOnUse"><stop offset=".297" stop-color="#FFB74D"/><stop offset="1" stop-color="#FB8C00"/></linearGradient><path fill="url(#b)" d="M119.62 59.96C120.55 32.23 94.72 9.72 64 9.72S8.38 32.21 8.38 59.96c0 15.22 7.13 39.58 36.07 48.37 0 0-10.15-.46-11.28-.26-2.58.47 8.83 6.36 18.33 7.29 25.17 2.47 45.37-4.78 60.43-28.28.03-.02 7.07-8.53 7.69-27.12z"/><path fill="#212121" d="M64 11.72c15.76 0 30.71 6.12 41.02 16.78 8.51 8.8 12.99 19.95 12.6 31.39-.31 9.26-2.28 15.85-3.89 19.75-1.7 4.13-3.34 6.16-3.37 6.2l-.07.08-.06.09c-12.16 18.98-27.96 27.82-49.75 27.82-2.81 0-5.77-.15-8.8-.45-4.19-.41-8.7-1.85-12.06-3.24 2.46.09 4.69.19 4.73.19l15.91.72-15.24-4.63c-12.43-3.78-21.76-10.8-27.75-20.89-6.01-10.11-6.9-20.36-6.9-25.57.01-26.6 24.06-48.24 53.63-48.24m0-2c-30.72 0-55.62 22.49-55.62 50.24 0 15.22 7.13 39.58 36.07 48.37 0 0-6.79-.31-9.88-.31-.69 0-1.19.02-1.4.05-2.58.47 8.83 6.36 18.33 7.29 3.07.3 6.07.46 9 .46 21.03 0 38.21-8.11 51.43-28.74.03-.03 7.07-8.54 7.69-27.13.93-27.72-24.9-50.23-55.62-50.23z" opacity=".2"/><ellipse cx="64" cy="57.77" fill="#FFE0B2" rx="53.03" ry="46.1"/><linearGradient id="c" x1="69.067" x2="50.269" y1="54.085" y2="60.406" gradientUnits="userSpaceOnUse"><stop offset=".026" stop-color="#FFB74D"/><stop offset=".297" stop-color="#FFB74D"/><stop offset="1" stop-color="#FB8C00"/></linearGradient><ellipse cx="64" cy="55.79" fill="url(#c)" rx="38.08" ry="37.38"/><ellipse cx="73.79" cy="60.3" fill="#FFE0B2" rx="24.37" ry="23.92"/><ellipse cx="63.82" cy="41.94" fill="#FFE0B2" rx="21.58" ry="25.34" transform="rotate(-69.824 63.824 41.94)"/><radialGradient id="d" cx="70.081" cy="39.866" r="23.912" gradientTransform="matrix(1 0 0 .9817 0 2.124)" gradientUnits="userSpaceOnUse"><stop offset=".297" stop-color="#FFB74D"/><stop offset="1" stop-color="#FB8C00"/></radialGradient><path fill="url(#d)" d="M39.91 37.26c3.96-7.65 15.75-9.56 26.34-4.28s15.96 15.76 12 23.41-15.75 9.56-26.34 4.28-15.96-15.77-12-23.41z"/><path fill="#9CCC65" d="M96.14 98.72s-1.24.14-2.83.05c-1.59-.08-3.53-.42-4.8-1.09s-2.67-2.12-3.65-3.41c-.99-1.3-1.6-2.42-1.6-2.42s1.47 0 3.16.07c1.7.08 3.62.19 4.74.78 1.12.6 2.24 2.12 3.22 3.47.98 1.34 1.76 2.55 1.76 2.55z"/><path fill="#689F38" d="M80.91 87.77s.1 1.01.13 2.25c.03 1.23.01 2.68-.36 3.64-.37.95-1.33 2.07-2.19 3-.86.92-1.61 1.64-1.61 1.64s-.6-1.1-1.08-2.51c-.48-1.4-.81-3.11-.4-4.15.4-1.04 1.78-2.07 3.06-2.76 1.28-.72 2.45-1.11 2.45-1.11zm11.72 1.72s-.74.19-1.74.22c-1 .04-2.25-.13-3.09-.54-.85-.4-1.79-1.28-2.4-2.1-.62-.82-.94-1.53-.94-1.53s.83.22 1.81.41c.98.2 2.08.35 2.76.67.67.32 1.45 1.09 2.2 1.72.73.64 1.4 1.15 1.4 1.15zM84.32 20.3s-.94-.82-1.92-2.02c-.99-1.2-2.04-2.76-2.42-4.07s-.34-3.22-.16-4.8c.17-1.58.52-2.81.52-2.81s.99.96 2.23 2.18c1.18 1.19 2.47 2.63 2.83 3.85.36 1.23.02 3.1-.35 4.7s-.73 2.97-.73 2.97z"/><path fill="#9CCC65" d="M25.76 36.24s-.23.1-.61.27c-.39.15-.96.3-1.63.39-1.34.15-2.99-.09-4.06-.52-1.09-.43-2.35-1.31-3.34-2.03l-1.77-1.27s1.02-.12 2.33-.02c1.31.09 2.84.32 3.81.7.98.39 2.08 1.2 3.15 1.74.53.26 1.05.46 1.45.58l.67.16z"/><path fill="#689F38" d="M24.08 32.89s-.48-.67-1.07-1.54c-.58-.88-1.26-1.97-1.59-2.87-.33-.89-.53-2.19-.67-3.26-.13-1.07-.21-1.92-.21-1.92s.73.57 1.52 1.4c.8.83 1.67 1.89 2.01 2.8.33.91.35 2.26.27 3.38-.07 1.13-.26 2.01-.26 2.01z"/><path fill="#E64A19" d="m56.33 75.28.51.34h.01c.08.05.1.15.05.23s-.15.1-.23.05c-.02-.02-.04-.04-.05-.06-.11-.18-.2-.37-.29-.56zm5.98 1.96.57.06h.01c.74.08 1.28.75 1.19 1.49-.08.74-.75 1.28-1.49 1.19-.12-.01-.23-.04-.34-.08l-.59-.23c-.65-.25-.98-.99-.72-1.64.21-.55.76-.86 1.32-.8l.05.01zm6.3.4h.59c1.04 0 1.89.85 1.88 1.89 0 1.04-.85 1.89-1.89 1.88-.06 0-.13 0-.19-.01l-.63-.07a1.854 1.854 0 0 1-1.65-2.04c.1-.95.9-1.66 1.84-1.66l.05.01zm6.24-.3.56-.06h.03a1.98 1.98 0 0 1 2.19 1.74c.12 1.07-.64 2.04-1.7 2.19l-.63.08c-1.09.15-2.09-.62-2.24-1.7-.15-1.09.62-2.09 1.7-2.24h.03l.06-.01zm6.2-1 .56-.12.04-.01c.89-.2 1.78.37 1.97 1.27.18.8-.26 1.6-1 1.89l-.58.23c-.88.35-1.87-.07-2.22-.95s.07-1.87.95-2.22c.09-.03.17-.06.26-.08l.02-.01zm6.19-1.64.57-.18.02-.01c.42-.13.87.1 1.01.53.1.33-.02.68-.28.88l-.49.38c-.4.31-.97.23-1.28-.17s-.23-.97.17-1.28c.09-.07.18-.12.28-.15zm-20.88-.28.6.13h.01c.09.02.15.11.13.2s-.11.15-.2.13a.161.161 0 0 1-.07-.04c-.17-.14-.33-.28-.47-.42zm6.28-.32.56-.15h.01a1.35 1.35 0 0 1 .69 2.61c-.11.03-.23.04-.35.04h-.64c-.7 0-1.27-.57-1.27-1.27 0-.59.4-1.08.94-1.22l.06-.01zm6.03-1.9.53-.2.02-.01c.97-.37 2.07.11 2.44 1.09.37.97-.11 2.07-1.09 2.44l-.18.06-.61.16a1.86 1.86 0 0 1-2.28-1.31 1.84 1.84 0 0 1 1.12-2.21l.05-.02zm5.71-2.52.5-.26.03-.02c.97-.51 2.17-.13 2.67.84.5.96.14 2.14-.8 2.66l-.55.3c-.96.53-2.17.18-2.7-.79-.53-.96-.18-2.17.79-2.7.01 0 .02-.01.03-.01l.03-.02zm5.42-3.16.51-.34c.76-.5 1.79-.29 2.3.47.45.69.33 1.58-.25 2.13l-.46.42c-.69.64-1.77.61-2.42-.09a1.71 1.71 0 0 1 .09-2.42c.07-.06.14-.12.22-.17h.01zm5.19-3.76.47-.37.02-.01a.8.8 0 0 1 1.13.13.8.8 0 0 1 .06.92l-.32.53c-.26.43-.82.57-1.26.31s-.57-.82-.31-1.26c.05-.1.12-.18.21-.25zm1.44 29.69c.07-.2.15-.39.23-.58.04-.09.15-.14.24-.1s.14.15.1.24c-.01.03-.03.06-.06.08-.16.13-.34.25-.51.36zm3.36-6.97.28-.53c.44-.83 1.48-1.15 2.31-.7.83.44 1.15 1.48.7 2.31-.08.15-.18.28-.29.4l-.43.44c-.63.64-1.66.64-2.29.02a1.63 1.63 0 0 1-.29-1.92l.01-.02zm3.59-6.54.27-.51.01-.01a2.379 2.379 0 1 1 4.06 2.47l-.35.51a2.334 2.334 0 0 1-3.26.6 2.347 2.347 0 0 1-.74-3.03l.01-.03zm3.29-6.49.24-.52.01-.03a2.466 2.466 0 0 1 3.27-1.22c1.22.56 1.77 1.98 1.25 3.21l-.25.59c-.53 1.26-1.99 1.85-3.25 1.31s-1.85-1.99-1.31-3.25c.01-.02.01-.03.02-.05l.02-.04zm2.73-6.63.18-.53.02-.06a1.995 1.995 0 0 1 2.53-1.26c.91.31 1.46 1.21 1.35 2.13l-.08.64a2.058 2.058 0 0 1-2.29 1.8 2.058 2.058 0 0 1-1.71-2.69v-.03zm1.62-6.99.05-.58v-.04a.812.812 0 0 1 1.58-.19l.21.61a.946.946 0 0 1-1.79.61c-.04-.13-.06-.26-.05-.38v-.03zM24.89 76.94l.31.53c.04.07.02.15-.05.19s-.15.02-.19-.05c-.01-.02-.02-.04-.02-.06l-.05-.61zm3.57 5.54.35.46.01.01c.42.55.31 1.34-.24 1.76s-1.34.31-1.76-.24c-.07-.1-.13-.21-.18-.32l-.22-.58c-.23-.6.08-1.28.68-1.5.49-.19 1.03-.01 1.34.38l.02.03zm4.08 4.89.4.41.01.01c.74.78.71 2.01-.06 2.75-.78.74-2.01.71-2.75-.06-.07-.08-.15-.17-.21-.26l-.35-.52c-.58-.87-.36-2.04.51-2.63.78-.52 1.8-.39 2.43.26l.02.04zm4.56 4.3.44.36.02.01c.99.82 1.13 2.3.31 3.29s-2.3 1.13-3.29.31c-.05-.04-.1-.09-.15-.13l-.45-.44c-.91-.89-.92-2.36-.03-3.27.85-.86 2.2-.92 3.12-.16l.03.03zm5 3.72.47.31.03.02a2.487 2.487 0 1 1-2.74 4.15l-.53-.35a2.481 2.481 0 0 1-.67-3.45 2.486 2.486 0 0 1 3.41-.7l.03.02zm5.4 3.14.51.26.03.02c1.19.61 1.67 2.06 1.06 3.25a2.437 2.437 0 0 1-3.14 1.12l-.57-.26c-1.23-.55-1.78-1.99-1.24-3.22s1.99-1.78 3.22-1.24c.04.02.07.03.1.05l.03.02zm5.74 2.62.54.21.03.01c1.09.43 1.62 1.66 1.19 2.75a2.128 2.128 0 0 1-2.52 1.27l-.6-.16a2.158 2.158 0 0 1 1.11-4.17c.08.02.16.05.23.07l.02.02zm6.01 2.2.56.18.02.01c.81.26 1.25 1.13.99 1.94-.23.7-.91 1.13-1.62 1.06l-.62-.06c-.88-.09-1.53-.87-1.44-1.76a1.607 1.607 0 0 1 2.09-1.37h.02zm6.27 1.89.58.17h.01a.597.597 0 0 1-.12 1.17l-.61.05a.706.706 0 1 1-.11-1.41c.08-.01.17 0 .25.02z"/><radialGradient id="e" cx="61.946" cy="16.427" r="25.048" gradientTransform="rotate(6.563 65.14 21.172)" gradientUnits="userSpaceOnUse"><stop offset="0" stop-color="#8C6239"/><stop offset=".681" stop-color="#603813"/><stop offset="1" stop-color="#442105"/></radialGradient><path fill="url(#e)" d="M75.22 28.45c.02-.16.05-.32.07-.48s.03-.31.04-.47c.14-.19.31-.44.48-.72.45-.68.77-1.59.74-2.28.01-.69-.54-1.56-.99-2.22-.19-.28-.4-.5-.58-.68-.07-.32-.14-.63-.22-.94.08-.23.18-.52.22-.85.11-.77.22-1.78-.1-2.39-.29-.62-.99-1.31-1.71-1.73-.29-.19-.56-.33-.77-.45-.17-.27-.35-.54-.53-.8-.01-.24-.04-.54-.09-.86-.09-.81-.46-1.7-.89-2.23-.47-.5-1.42-.86-2.19-1.06-.33-.07-.63-.11-.87-.14-.25-.2-.51-.39-.77-.58-.09-.23-.22-.5-.39-.79-.2-.35-.44-.72-.71-1.05-.28-.32-.6-.57-.9-.73-.31-.15-.7-.26-1.13-.29-.43-.02-.89.01-1.29.05-.34.04-.64.1-.89.16-.31-.1-.62-.19-.93-.28a8.71 8.71 0 0 0-.61-.61c-.6-.52-1.44-1.01-2.12-1.13-.68-.05-1.63.25-2.36.61-.3.16-.55.32-.75.45-.31.03-.64.04-.96.07a6.51 6.51 0 0 0-.81-.35c-.37-.14-.8-.27-1.22-.35s-.82-.05-1.16.02c-.33.08-.7.26-1.05.5-.34.27-.67.58-.95.87-.24.24-.43.48-.58.68-.3.12-.59.25-.89.39-.24-.03-.53-.06-.86-.07-.79 0-1.76.14-2.34.5-.55.41-1.12 1.21-1.41 1.99-.13.31-.23.6-.3.84-.24.21-.47.43-.7.66-.23.06-.52.14-.84.25-.78.24-1.62.72-2.03 1.27-.45.52-.59 1.55-.66 2.34-.04.33-.01.64.01.89-.15.28-.29.57-.43.86-.21.13-.47.29-.71.51-.57.52-1.32 1.22-1.47 1.89-.18.66-.09 1.64.19 2.43.1.33.21.61.3.84-.02.16-.05.32-.07.48s-.03.31-.04.47c-.14.19-.31.44-.48.72-.45.68-.77 1.59-.74 2.28-.01.69.54 1.56.99 2.22.19.28.4.5.58.68.07.32.14.63.22.94-.08.23-.18.52-.22.85-.11.77-.22 1.78.1 2.39.29.62.99 1.31 1.71 1.73.29.19.56.33.77.45.17.27.35.54.53.8.01.24.04.54.09.86.09.81.46 1.7.89 2.23.47.5 1.42.86 2.19 1.06.33.07.63.11.87.14.25.2.51.39.77.58.09.23.22.5.39.79.2.35.44.72.71 1.05.28.32.6.57.9.73.31.15.7.26 1.13.29.43.02.89-.01 1.29-.05.34-.03.64-.09.89-.15.31.1.62.19.93.28.16.18.36.38.61.61.6.52 1.44 1.01 2.12 1.13.68.05 1.63-.25 2.36-.61.3-.16.55-.32.75-.45.32-.01.65-.03.97-.06.22.11.49.24.81.35.37.14.8.27 1.22.35s.82.05 1.16-.02c.33-.08.7-.26 1.05-.5.34-.27.67-.58.95-.87.24-.24.43-.48.58-.68.3-.12.59-.25.89-.39.24.03.53.06.86.07.79 0 1.76-.14 2.34-.5.55-.41 1.12-1.21 1.41-1.99.13-.31.23-.6.3-.84.24-.21.47-.43.7-.66.23-.06.52-.14.84-.25.78-.24 1.62-.72 2.03-1.27.45-.52.59-1.55.66-2.34.04-.33.01-.64-.01-.89.15-.28.29-.57.43-.86.21-.13.47-.29.71-.51.57-.52 1.32-1.22 1.47-1.89.18-.66.09-1.64-.19-2.43-.11-.34-.22-.63-.31-.86z"/><path fill="#558B2F" d="M64.46 12.17s.21.03.57.13c.35.11.89.25 1.45.6.29.17.56.4.84.67s.5.6.69.87.34.49.46.63c.13.14.19.19.25.24.13.12.26.25.4.38.21.19.51.46.79.84.28.39.47.83.53 1.25s.06.8-.01 1.14c-.12.68-.37 1.17-.51 1.52l-.24.56s.11-.2.14-.57c.04-.36-.03-.9-.31-1.39-.14-.24-.31-.47-.52-.62s-.43-.23-.62-.26c-.2-.03-.44-.08-.73-.19s-.63-.3-.94-.6c-.32-.31-.56-.74-.66-1.12-.11-.39-.13-.75-.12-1.06.01-.32.04-.59.04-.86 0-.28-.06-.55-.15-.82-.17-.53-.52-.92-.82-1.11-.31-.2-.53-.23-.53-.23zM44.31 23.78s-.09.08-.21.23c-.13.13-.26.42-.37.71-.11.3-.18.64-.23.94-.06.29-.14.52-.26.68-.12.15-.34.29-.62.43-.15.06-.28.14-.45.21-.16.07-.29.16-.45.24-.28.17-.53.35-.66.5s-.19.25-.19.25.07-.1.09-.28c.03-.18-.01-.46-.1-.82-.07-.36-.18-.81-.19-1.24s.09-.84.3-1.09c.2-.26.58-.44 1.01-.53.22-.04.43-.07.65-.06.22 0 .41-.02.6 0 .37.02.64.01.81-.04.19-.04.27-.13.27-.13z" opacity=".76"/><path fill="#442105" d="M42.04 34.74s.9.36 2 .65c1.11.3 2.35.55 3.3.93.47.19 1.04.46 1.66.71s1.29.48 1.91.62c.62.13 1.18.21 1.58.22.4.02.65-.01.65-.01s-.24.01-.64.08c-.39.07-.93.22-1.56.43-1.23.42-2.95 1.03-4.25.9-.64-.06-1.36-.3-2-.72-.65-.42-1.21-.99-1.62-1.57s-.67-1.15-.83-1.57c-.14-.41-.2-.67-.2-.67zm-3.33-10.99s.03.95.35 2.17c.16.61.39 1.27.62 1.9.24.62.48 1.2.66 1.68.35.96.56 2.18.91 3.26.33 1.09.79 1.98.79 1.98s-.27-.04-.7-.17c-.44-.13-1.04-.37-1.65-.78-.61-.4-1.21-1-1.63-1.69-.42-.68-.64-1.43-.68-2.07-.07-1.31.59-2.93.97-4.13.19-.61.3-1.14.34-1.53s.02-.62.02-.62z"/><path fill="#558B2F" d="M60.89 30.94s.01-.5.03-1.11c.02-.6-.03-1.23.05-1.6.09-.38.4-.88.59-1.43.21-.54.33-1.05.33-1.05s.56.28 1.1.87c.55.57.95 1.56.79 2.24-.15.69-.91 1.34-1.59 1.65-.69.32-1.3.43-1.3.43z" opacity=".76"/><path fill="#442105" d="M58.67 41.96s-.13.17-.38.46c-.25.28-.64.64-1.14.98-.99.7-2.53 1.18-3.68 1.06-1.16-.09-2.6-.89-3.46-1.78-.44-.45-.76-.89-.96-1.22-.18-.33-.29-.54-.29-.54s1.05.16 2.16.06c1.13-.08 2.22-.41 2.93-.35.7.07 1.69.62 2.76.92 1.03.34 2.06.41 2.06.41z"/><path fill="#F57C00" d="M62.29 10.17s-.56.08-1.23.13c-.68.05-1.45.1-1.95-.01-.51-.12-1.12-.47-1.7-.72-.57-.25-1.1-.4-1.1-.4s.34-.56 1.05-1.04c.69-.48 1.71-.81 2.36-.66.66.14 1.35.83 1.81 1.46.47.65.76 1.24.76 1.24z" opacity=".7"/><path fill="#212121" d="M57.93 6.27c.33.08.9.38 1.36.78.23.21.41.4.53.53l.27.29.38.1c.29.08.58.16.87.26l.37.12.37-.09c.23-.06.46-.1.71-.12.29-.03.59-.05.85-.05h.19c.23.02.46.08.6.14.17.09.35.24.47.37.2.24.4.55.6.9.11.18.21.38.3.6l.15.36.32.23c.24.17.49.35.72.54l.3.23.38.04c.25.03.5.07.73.11.8.21 1.31.48 1.48.64.23.3.49.9.56 1.51.04.24.06.5.08.75l.02.38.22.31c.17.24.33.49.49.75l.19.31.32.17c.25.13.46.26.68.39l.04.02c.55.32 1.02.83 1.16 1.13l.02.06c.05.11.11.46-.04 1.58-.02.18-.09.37-.15.56l-.02.05-.13.38.1.39c.08.29.15.58.21.87l.08.39.28.28c.15.15.3.31.43.5.67.97.75 1.32.75 1.42v.08c.01.32-.18.97-.52 1.48l-.02.04c-.13.21-.27.42-.42.63l-.2.32-.03.37-.02.18c-.01.09-.01.17-.02.26s-.02.18-.04.27l-.03.18-.05.36.14.34c.1.25.19.49.27.73l.02.06c.21.58.25 1.28.16 1.61l-.01.04-.01.03c-.04.14-.25.46-1.06 1.18-.13.12-.31.23-.5.35l-.34.21-.17.37c-.13.27-.26.54-.4.8l-.18.35.03.39.01.07c.02.19.03.39.01.59-.12 1.19-.28 1.5-.34 1.58l-.03.03-.02.03c-.19.25-.75.61-1.4.81-.23.08-.46.15-.73.21l-.36.09-.26.26c-.21.21-.43.42-.65.61l-.28.25-.11.35c-.08.25-.17.5-.27.77-.21.56-.61 1.09-.91 1.34-.26.14-.85.26-1.55.27-.23-.01-.48-.03-.72-.06l-.39-.05-.35.16c-.27.13-.55.25-.83.36l-.36.14-.23.31c-.14.19-.29.37-.47.55-.26.27-.52.51-.77.71-.21.14-.42.24-.54.27-.11.02-.23.04-.34.04-.09 0-.18-.01-.26-.02a7.212 7.212 0 0 1-1.66-.56l-.35-.18-.39.03c-.3.02-.6.04-.9.05l-.38.01-.32.21c-.14.09-.36.24-.64.39-.54.27-1.18.45-1.56.46-.33-.08-.9-.38-1.36-.78-.23-.21-.41-.4-.53-.53l-.27-.29-.38-.1c-.29-.08-.58-.16-.87-.26l-.37-.12-.37.09c-.23.06-.46.1-.71.12-.29.03-.59.05-.85.05h-.19c-.23-.02-.46-.08-.6-.14-.17-.09-.35-.24-.47-.37-.2-.24-.4-.55-.6-.9-.11-.18-.21-.38-.3-.6l-.15-.36-.32-.23c-.25-.17-.49-.35-.72-.54l-.3-.23-.38-.04c-.25-.03-.5-.07-.73-.11-.8-.21-1.31-.48-1.48-.64-.23-.3-.49-.9-.56-1.51-.04-.24-.06-.5-.08-.75l-.02-.38-.22-.31c-.17-.24-.33-.49-.49-.75l-.19-.31-.32-.17c-.16-.08-.4-.22-.68-.39l-.04-.02c-.55-.32-1.02-.83-1.16-1.13l-.02-.06c-.05-.11-.11-.46.04-1.58.02-.18.09-.37.15-.56l.02-.05.13-.38-.1-.39c-.08-.29-.15-.58-.21-.87l-.08-.39-.28-.28c-.15-.15-.3-.31-.43-.5-.67-.97-.75-1.32-.75-1.42v-.08c-.01-.32.18-.97.52-1.48l.02-.04c.13-.21.27-.42.42-.63l.22-.3.03-.37.02-.18c.01-.09.01-.17.02-.26s.02-.18.04-.27l.03-.18.05-.36-.14-.34c-.1-.25-.19-.49-.27-.73l-.04-.06-.01-.03c-.21-.58-.25-1.28-.16-1.61l.01-.03V20c.04-.14.25-.46 1.06-1.18.13-.12.31-.23.5-.35l.35-.21.17-.37c.13-.27.26-.54.4-.8l.18-.35-.03-.39-.01-.07c-.02-.19-.03-.39-.01-.59.12-1.19.28-1.5.34-1.58l.03-.03.02-.03c.19-.25.75-.61 1.4-.81.23-.08.46-.15.73-.21l.36-.09.26-.26c.21-.21.43-.42.65-.61l.28-.25.11-.35c.08-.25.17-.5.27-.77.21-.56.61-1.09.91-1.34.26-.14.85-.26 1.55-.27.24.01.48.03.72.06l.39.05.35-.16c.27-.13.55-.25.83-.36l.36-.14.23-.31c.14-.19.29-.37.47-.55.26-.27.52-.51.76-.71.21-.14.42-.24.54-.27.11-.02.23-.04.34-.04.09 0 .18.01.26.02a7.212 7.212 0 0 1 1.66.56l.35.18.39-.03c.3-.02.6-.04.9-.05l.38-.01.32-.21c.14-.09.36-.24.64-.39.56-.27 1.2-.46 1.58-.46m.02-1.36c-.67 0-1.54.28-2.21.61-.3.16-.55.32-.75.45-.32.02-.65.03-.97.06a6.51 6.51 0 0 0-.81-.35c-.37-.14-.8-.27-1.22-.35-.18-.03-.36-.05-.52-.05-.23 0-.44.03-.63.07-.33.08-.7.26-1.05.5-.34.27-.67.58-.95.87-.24.24-.43.48-.58.68-.3.12-.59.25-.89.39-.24-.03-.53-.06-.86-.07h-.01c-.79 0-1.76.14-2.34.5-.55.41-1.12 1.21-1.41 1.99-.13.31-.23.6-.3.84-.24.21-.47.43-.7.66-.23.06-.52.14-.84.25-.78.24-1.62.72-2.03 1.27-.45.52-.59 1.55-.66 2.34-.04.33-.01.64.01.89-.15.28-.29.57-.43.86-.21.13-.47.29-.71.51-.57.52-1.32 1.22-1.47 1.89-.18.66-.09 1.64.19 2.43.1.33.21.61.3.84-.02.16-.05.32-.07.48s-.03.31-.04.47c-.14.19-.31.44-.48.72-.45.68-.77 1.59-.74 2.28-.01.69.54 1.56.99 2.22.19.28.4.5.58.68.07.32.14.63.22.94-.08.23-.18.52-.22.85-.11.77-.22 1.78.1 2.39.29.62.99 1.31 1.71 1.73.29.19.56.33.77.45.17.27.35.54.53.8.01.24.04.54.09.86.09.81.46 1.7.89 2.23.47.5 1.42.86 2.19 1.06.33.07.63.11.87.14.25.2.51.39.77.58.09.23.22.5.39.79.2.35.44.72.71 1.05.28.32.6.57.9.73.31.15.7.26 1.13.29.09 0 .19.01.28.01.34 0 .69-.02 1-.06.34-.03.64-.09.89-.15.31.1.62.19.93.28.16.18.36.38.61.61.6.52 1.44 1.01 2.12 1.13h.15c.67 0 1.54-.28 2.21-.61.3-.16.55-.32.75-.45.32-.01.65-.03.97-.06.22.11.49.24.81.35.37.14.8.27 1.22.35.18.03.36.05.52.05.23 0 .44-.03.63-.07.33-.08.7-.26 1.05-.5.34-.27.67-.58.95-.87.24-.24.43-.48.58-.68.3-.12.59-.25.89-.39.24.03.53.06.86.07.79 0 1.76-.14 2.34-.5.55-.41 1.12-1.21 1.41-1.99.13-.31.23-.6.3-.84.24-.21.47-.43.7-.66.23-.06.52-.14.84-.25.78-.24 1.62-.72 2.03-1.27.45-.52.59-1.55.66-2.34.04-.33.01-.64-.01-.89.15-.28.29-.57.43-.86.21-.13.47-.29.71-.51.57-.52 1.32-1.22 1.47-1.89.18-.66.09-1.64-.19-2.43-.1-.33-.21-.61-.3-.84.02-.16.05-.32.07-.48s.03-.31.04-.47c.14-.19.31-.44.48-.72.45-.68.77-1.59.74-2.28.01-.69-.54-1.56-.99-2.22-.19-.28-.4-.5-.58-.68-.07-.32-.14-.63-.22-.94.08-.23.18-.52.22-.85.11-.77.22-1.78-.1-2.39-.29-.62-.99-1.31-1.71-1.73-.29-.19-.56-.33-.77-.45-.17-.27-.35-.54-.53-.8-.01-.24-.04-.54-.09-.86-.09-.81-.46-1.7-.89-2.23-.47-.5-1.42-.86-2.19-1.06-.33-.07-.63-.11-.87-.14-.25-.2-.51-.39-.77-.58-.09-.23-.22-.5-.39-.79-.2-.35-.44-.72-.71-1.05-.28-.32-.6-.57-.9-.73-.31-.15-.7-.26-1.13-.29-.09 0-.19-.01-.29-.01-.34 0-.69.02-1 .06-.33.02-.63.08-.88.14-.31-.1-.62-.19-.93-.28a8.71 8.71 0 0 0-.61-.61c-.6-.52-1.44-1.01-2.12-1.13-.04.01-.09.01-.14.01z" opacity=".2"/><path fill="#F57C00" d="M59.93 22.58s-.07-.15-.19-.38c-.11-.24-.38-.53-.66-.83-.3-.29-.66-.56-.98-.78s-.59-.4-.77-.59c-.1-.08-.17-.22-.26-.34-.09-.14-.18-.29-.27-.44-.09-.17-.21-.32-.33-.5-.12-.17-.27-.31-.41-.46-.3-.27-.62-.5-.88-.58-.25-.09-.42-.1-.42-.1s.16.03.42 0 .63-.11 1.11-.21 1.08-.15 1.67-.06c.3.05.58.13.83.26.26.11.46.29.64.46.33.35.55.9.61 1.47.01.29.04.57 0 .84-.04.28-.04.52-.09.76-.08.47-.12.83-.1 1.09.01.24.08.39.08.39zm5.21 9.68s.02.1.08.27c.05.17.19.42.31.73.07.16.11.32.17.5.05.18.09.36.11.55.04.37-.02.71-.16.96s-.41.48-.75.64c-.17.08-.34.15-.53.19s-.35.09-.53.11-.31.06-.46.06c-.14.01-.25.03-.34.05-.18.03-.28.06-.28.06s.11-.02.22-.14.2-.36.22-.68-.03-.69-.07-1.01-.06-.57.03-.71c.08-.15.32-.25.61-.38.3-.12.65-.26.9-.43.26-.17.43-.37.47-.52.03-.15 0-.25 0-.25z" opacity=".7"/><path fill="#558B2F" d="M50.12 11.19s-.13 0-.34.05c-.21.04-.5.19-.79.38s-.57.44-.83.66c-.25.22-.48.39-.7.46-.22.08-.5.08-.84.07l-.52-.03c-.18-.01-.35.01-.52.01-.33.03-.64.12-.81.26-.17.13-.25.24-.25.24s.08-.1.16-.3c.08-.19.16-.5.29-.9.13-.39.33-.87.6-1.27.26-.4.61-.7.96-.82s.81-.08 1.25.08c.22.08.44.17.65.29.2.11.39.21.56.33.34.22.6.37.79.43.21.08.34.06.34.06z" opacity=".76"/><g fill="#F57C00" opacity=".7"><path d="M65.93 24.74s-.14-.06-.36-.21c-.22-.14-.54-.44-.77-.83s-.39-.82-.49-1.15c-.1-.34-.15-.54-.17-.77s-.06-.51-.13-.85c-.08-.33-.22-.68-.42-.97-.19-.29-.45-.48-.64-.6s-.32-.16-.32-.16.13.05.34.11c.23.05.56.13.91.21.38.09.85.22 1.28.46.45.22.83.57 1.05.94.11.18.2.4.25.64.04.23.04.46.02.67-.05.42-.21.77-.33 1.1-.27.64-.2 1.43-.22 1.41z"/><path d="M66.4 30.92s.17-.51.16-1.23c-.01-.36-.07-.76-.13-1.12-.08-.34-.15-.66-.21-.94-.12-.51-.05-1.11-.07-1.69-.01-.55-.23-1.21-.21-1.2 0 0 .17.04.44.11s.64.18 1.02.45c.37.26.71.67.91 1.13.2.45.24.93.15 1.31-.08.39-.3.8-.58 1.16-.27.36-.58.68-.82.96s-.41.54-.51.73c-.12.2-.15.33-.15.33z"/></g><path fill="#442105" d="M71.2 22.32s.25.21.6.65c.34.43.77 1.12 1.04 2.01.28.89.36 1.99.14 3.06-.1.53-.28 1.04-.49 1.51-.12.23-.23.46-.36.66l-.1.15h-.02c-.01.01-.04-.02-.05.04.02.3.04.51.02 1.03-.1 1.02-.45 1.78-.83 2.46-.39.67-.85 1.23-1.29 1.67-.88.9-1.75 1.22-1.75 1.22s.13-.2.27-.55c.14-.34.28-.83.37-1.38s.13-1.18.11-1.8c-.02-.6-.11-1.23-.27-1.56-.06-.01-.15-.3-.23-.49-.13-.47-.25-.93-.36-1.37.13-.31.24-.62.38-.86.08-.15.22-.28.36-.41.07-.07.13-.14.2-.2-.02-.07.03-.06.05-.1l.29-.32c.2-.22.41-.45.61-.71a6.126 6.126 0 0 0 1.35-3.8c.01-.56-.04-.91-.04-.91z"/><g fill="#F57C00" opacity=".7"><path d="M45.95 15.42s.47-.43 1.2-.78c.72-.35 1.68-.55 2.37-.39.36.07.71.19 1.08.35.36.13.74.26 1.09.31s.66-.03.87-.13.31-.21.31-.21-.1.1-.27.25c-.17.16-.42.36-.76.59-.66.48-1.71.97-2.33 1.09-.63.15-1.42-.15-2.15-.48-.74-.32-1.41-.6-1.41-.6z"/><path d="M41.82 21s.15-.52.2-1.28c.02-.38.03-.81.07-1.23.02-.43.09-.84.2-1.18.06-.17.13-.36.24-.56.05-.09.14-.21.22-.32.11-.14.3-.33.38-.37.4-.31.88-.49 1.31-.59.87-.19 1.51-.05 1.51-.05s-.47.6-.85 1.29c-.19.34-.36.68-.5.97-.07.1 0 .08 0 .1-.02.07-.04.1-.07.18-.07.13-.16.27-.26.39-.2.24-.5.51-.84.77-.32.27-.67.55-.93.81-.54.54-.68 1.07-.68 1.07z"/></g><path fill="#558B2F" d="M58.95 13.54s-.14.07-.37.17-.56.25-1 .35c-.43.1-1.02.14-1.62-.05-.59-.18-1.05-.5-1.34-.78s-.51-.62-.68-.92c-.15-.28-.3-.55-.47-.77-.31-.46-.78-.57-.8-.56 0 0 .04-.15.24-.35s.61-.39 1.12-.42c.5-.03 1.08.09 1.57.32.46.21.82.43 1.02.62.2.2.31.43.42.68.1.25.35.54.66.79s.64.47.87.64c.24.17.38.28.38.28zm5.02 3.78s-.37-.46-.9-.86c-.53-.41-1.17-.73-1.57-1.02-.39-.31-.86-.87-1.42-1.25-.53-.39-1.12-.64-1.12-.64s.14-.11.38-.28c.24-.16.6-.36 1.05-.49.9-.29 2.19-.17 2.87.38.7.52 1.12 1.71 1.09 2.63-.01.46-.1.86-.19 1.12l-.19.41z" opacity=".76"/><radialGradient id="f" cx="104.71" cy="41.13" r="27.713" gradientTransform="rotate(-4.133 61.331 58.554)" gradientUnits="userSpaceOnUse"><stop offset="0" stop-color="#8C6239"/><stop offset="1" stop-color="#603813"/></radialGradient><path fill="url(#f)" d="M119.7 48.87c-.01-.18-.01-.36-.03-.54a9.14 9.14 0 0 0-.05-.52c.11-.24.25-.54.38-.89.35-.83.51-1.89.34-2.63-.13-.75-.91-1.59-1.54-2.21-.26-.27-.54-.46-.77-.62-.14-.33-.28-.65-.44-.98.04-.27.08-.6.07-.97-.04-.85-.12-1.98-.6-2.58-.44-.62-1.35-1.22-2.21-1.53-.36-.14-.67-.25-.93-.33-.24-.26-.49-.51-.74-.76-.07-.26-.15-.57-.27-.92-.26-.87-.84-1.75-1.43-2.24-.62-.44-1.72-.64-2.6-.7-.37 0-.71.01-.98.03-.32-.16-.64-.32-.96-.47-.15-.23-.34-.5-.59-.77-.28-.33-.62-.69-.98-1-.37-.29-.76-.5-1.13-.6s-.82-.14-1.29-.09c-.48.07-.96.19-1.39.32-.36.1-.68.23-.93.34-.35-.04-.71-.08-1.07-.11a9.39 9.39 0 0 0-.78-.53c-.76-.44-1.77-.8-2.53-.79-.75.09-1.73.61-2.44 1.15-.29.24-.53.46-.72.65-.35.08-.7.17-1.04.26a6.18 6.18 0 0 0-.95-.21c-.43-.07-.92-.13-1.4-.13-.47 0-.9.11-1.25.26-.34.16-.71.43-1.04.76-.32.36-.61.77-.86 1.14-.21.31-.37.61-.49.86-.3.19-.59.39-.88.6-.26.02-.59.05-.95.1-.86.16-1.89.51-2.44 1.03-.51.56-.97 1.54-1.12 2.45-.07.37-.12.7-.15.97-.21.28-.42.57-.62.86-.24.11-.53.25-.86.44-.8.42-1.61 1.12-1.95 1.8-.38.66-.32 1.81-.24 2.68.03.37.12.7.19.97-.11.34-.2.68-.29 1.03-.2.18-.45.41-.67.7-.52.68-1.19 1.6-1.2 2.36-.05.76.24 1.8.71 2.6.18.33.35.62.5.85.01.18.01.36.03.54.01.17.03.35.05.52-.11.24-.25.54-.38.89-.35.83-.51 1.89-.34 2.63.13.75.91 1.59 1.54 2.21.26.27.54.46.77.62.14.33.28.65.44.98-.04.27-.08.6-.07.97.04.85.12 1.98.6 2.58.44.62 1.35 1.22 2.21 1.53.36.14.67.25.93.33.24.26.49.51.74.76.07.26.15.57.27.92.26.87.84 1.75 1.43 2.24.62.44 1.72.64 2.6.7.37 0 .71-.01.98-.03.32.16.64.32.96.47.15.23.34.5.59.77.29.33.62.69.98 1 .37.29.76.5 1.13.6s.82.14 1.29.09c.48-.07.96-.19 1.39-.32.36-.1.68-.23.93-.34.35.04.71.08 1.07.11.21.16.47.34.78.53.76.44 1.77.8 2.53.79.75-.09 1.73-.61 2.44-1.15.29-.24.53-.46.72-.65.35-.08.7-.17 1.04-.26.26.08.59.16.95.21.43.07.92.13 1.4.13.47 0 .9-.11 1.25-.26.34-.16.71-.43 1.04-.76.32-.36.61-.77.86-1.14.21-.31.37-.61.49-.86.3-.19.59-.39.88-.6.26-.02.59-.05.95-.1.86-.16 1.89-.51 2.44-1.03.51-.56.97-1.54 1.12-2.45.07-.37.12-.7.15-.97.21-.28.42-.57.62-.86.24-.11.53-.25.86-.44.8-.42 1.61-1.12 1.95-1.8.38-.66.32-1.81.24-2.68-.03-.37-.12-.7-.19-.97.11-.34.2-.68.29-1.03.2-.18.45-.41.67-.7.52-.68 1.19-1.6 1.2-2.36.05-.76-.24-1.8-.71-2.6-.18-.33-.36-.62-.5-.85z"/><path fill="#442105" d="M114.34 55.02s-.21-.47-.46-.96c-.23-.5-.54-.97-.54-1.25s.33-.67.55-1.11c.11-.22.2-.44.26-.61.05-.17.09-.27.07-.28.01.02.16-.05.43-.04s.66.08 1.04.26c.79.34 1.51 1.18 1.49 1.81 0 .64-.72 1.34-1.44 1.69-.35.19-.71.3-.97.38s-.43.11-.43.11z"/><g fill="#F9A825" opacity=".7"><path d="M114.65 43.22s.11.04.29.12c.18.07.44.15.75.31.3.15.68.41.96.84.28.41.41.9.39 1.3-.01.4-.13.84-.36 1.22-.2.38-.47.71-.71.97-.47.53-.77.91-.77.91s.08-.1.16-.28c.07-.19.14-.47.11-.8s-.13-.7-.27-1.01c-.16-.31-.31-.55-.4-.71-.1-.17-.1-.33-.09-.56.03-.22-.01-.56-.06-.92s-.08-.73-.07-.98c.03-.27.07-.41.07-.41z"/><path d="M111.93 38.03s.11.05.29.14c.19.08.44.21.76.37s.68.37 1 .65c.34.27.6.61.76.94.17.33.25.77.24 1.14s-.09.7-.16.97c-.16.52-.19.98-.17 1 0 0-.15-.02-.39-.12s-.55-.32-.82-.63-.49-.68-.64-.98c-.15-.32-.22-.53-.21-.75 0-.22.05-.51.09-.85.02-.33 0-.71-.09-1.02s-.26-.54-.41-.67c-.13-.15-.25-.19-.25-.19z"/></g><path fill="#689F38" d="M87.22 45.19s-.11.06-.29.18c-.18.1-.39.35-.6.62-.2.28-.38.6-.54.89-.16.28-.31.51-.49.65s-.45.24-.77.33c-.17.04-.33.1-.52.14-.18.04-.34.11-.52.17-.33.12-.63.26-.8.4-.17.13-.26.23-.26.23s.1-.09.17-.28c.08-.19.12-.49.15-.89.03-.39.05-.88.17-1.32.11-.45.33-.84.62-1.05.28-.22.72-.33 1.18-.32.23.01.46.02.69.07s.43.07.62.13c.38.1.67.15.87.14.21-.02.32-.09.32-.09z" opacity=".76"/><path fill="#442105" d="M111.11 62.47s-.14-.47-.31-1.05c-.16-.56-.34-1.17-.24-1.57.11-.39.58-.87 1.01-1.29s.83-.76.83-.76.14.1.35.29c.2.19.47.46.72.78.51.63.94 1.46.8 1.98s-.93 1.03-1.69 1.3c-.77.28-1.47.32-1.47.32z"/><path fill="#F9A825" d="M110.28 47.87s-.11-.13-.31-.33-.46-.49-.75-.79c-.31-.29-.58-.65-.88-.97-.28-.33-.51-.69-.7-1-.1-.16-.18-.35-.27-.55-.1-.19-.2-.4-.31-.61-.19-.44-.46-.85-.7-1.23-.24-.39-.53-.65-.73-.85s-.34-.31-.34-.31.13.12.37.26c.23.16.62.28 1.04.48.42.19.96.34 1.44.59.5.22.97.49 1.28.81.33.3.6.73.78 1.23.2.48.25 1.04.28 1.52.02.49-.05.94-.09 1.25s-.11.5-.11.5zm.82 8.27s.04-.16.07-.44c.01-.14.05-.29.03-.48-.01-.18-.03-.39-.05-.6s-.09-.44-.14-.67c-.04-.22-.12-.45-.19-.68-.13-.45-.29-.87-.37-1.23-.03-.18-.08-.38-.11-.59s-.04-.43-.06-.65c-.04-.44-.01-.92-.03-1.34.01-.43.03-.83.02-1.12.01-.29.01-.47.01-.47s.16.12.41.32c.26.2.59.51.91.9.34.38.62.85.83 1.34.19.49.29 1 .26 1.44-.01.22-.07.46-.13.7-.05.24-.17.5-.26.74-.18.5-.45.97-.63 1.39-.21.41-.35.77-.46 1.02-.08.25-.11.42-.11.42z"/><g fill="#442105"><path d="M88.53 65.54s1.07.02 2.32-.11c1.27-.12 2.68-.37 3.82-.41 1.13-.02 2.82.01 4.2-.26.68-.14 1.29-.31 1.7-.48.42-.16.65-.29.65-.29s-.24.12-.61.36-.86.61-1.43 1.07c-.56.46-1.2 1.01-1.88 1.49-.68.49-1.42.9-2.09 1.1s-1.5.26-2.33.12c-.83-.13-1.64-.45-2.31-.84s-1.18-.83-1.52-1.17c-.34-.35-.52-.58-.52-.58z"/><path d="M80.5 55.66s.42.96 1.23 2.08c.4.56.9 1.16 1.38 1.71.49.55.97 1.05 1.35 1.48.76.86 1.53 2.03 2.38 2.97.83.95 1.7 1.64 1.7 1.64s-.29.06-.78.08c-.49.03-1.19.01-1.96-.17s-1.62-.55-2.31-1.07c-.7-.52-1.24-1.19-1.55-1.82-.63-1.29-.7-3.18-.86-4.56-.09-.7-.2-1.29-.33-1.7-.14-.4-.25-.64-.25-.64z"/></g><path fill="#689F38" d="M104.31 59.17s-.34-.51-.77-1.16c-.42-.64-.93-1.37-1.15-1.97s-.33-1.5-.45-2.27c-.12-.78-.21-1.41-.21-1.41s.7.23 1.48.71c.78.47 1.61 1.23 1.88 1.95.27.71.14 1.81-.14 2.66a7.61 7.61 0 0 1-.64 1.49z" opacity=".76"/><path fill="#442105" d="M108.65 64.15s-.04.24-.1.64c-.08.4-.23.95-.5 1.56-.52 1.21-1.65 2.54-2.77 3.11-1.11.6-2.88.76-4.2.49-.67-.13-1.22-.33-1.6-.5-.37-.18-.59-.3-.59-.3s.25-.11.65-.3c.39-.19.89-.48 1.39-.82 1.02-.69 1.88-1.61 2.59-1.99.71-.37 1.95-.53 3.08-.94 1.1-.38 2.05-.95 2.05-.95z"/><path fill="#689F38" d="M110.15 35.27s-.6-.09-1.32-.24c-.73-.15-1.56-.33-2.07-.58-.52-.26-1.11-.78-1.68-1.18-.56-.4-1.09-.66-1.09-.66s.52-.47 1.39-.75c.85-.29 2-.34 2.66 0 .67.33 1.25 1.19 1.59 1.96.34.78.52 1.45.52 1.45z" opacity=".76"/><path fill="#212121" d="M96.33 28.16c.46.02 1.18.27 1.73.59.3.18.54.36.69.47l.31.23.39.03c.34.03.67.06 1 .1l.38.05.35-.16c.25-.11.5-.2.77-.28.42-.13.83-.22 1.15-.27.09-.01.18-.02.27-.02.23 0 .41.03.47.05.22.07.46.2.64.34.27.23.56.52.86.87.16.18.32.38.46.61l.22.33.36.16c.3.14.6.29.9.44l.34.18.38-.03c.22-.01.48-.03.78-.03h.06c.9.06 1.56.25 1.82.42.34.3.76.91.97 1.6.09.26.17.54.24.81l.09.37.27.27c.24.23.47.47.69.72l.25.27.35.11c.3.09.57.19.83.29l.04.02c.72.26 1.34.73 1.57 1.04l.02.03.02.02c.09.11.24.5.31 1.81.01.21-.02.44-.05.66l-.01.06-.05.4.17.36c.14.3.28.61.41.91l.15.37.33.23c.2.14.4.28.59.47.98.97 1.13 1.35 1.15 1.47l.02.08c.08.37.02 1.12-.27 1.8l-.01.02-.01.03c-.1.26-.21.52-.33.78l-.16.34.04.37.02.2.03.29c.01.1.01.21.02.31l.01.2.02.37.2.31c.16.25.31.5.45.75l.02.04c.38.64.55 1.41.52 1.81v.06c0 .17-.17.57-.94 1.58-.13.17-.3.33-.49.5l-.3.27-.1.39c-.08.32-.17.65-.27.96l-.12.38.1.38.02.07c.06.21.12.43.13.66.12 1.33.01 1.75-.06 1.87l-.02.03-.02.04c-.16.32-.7.86-1.41 1.23-.24.14-.48.26-.76.39l-.34.16-.21.31c-.19.27-.38.54-.59.81l-.23.3-.04.37c-.03.3-.08.59-.14.9-.12.68-.46 1.37-.75 1.72-.27.22-.91.5-1.7.65-.26.04-.54.06-.81.08l-.39.02-.32.23c-.27.19-.55.38-.83.56l-.32.21-.17.35c-.12.25-.25.48-.41.71-.23.35-.47.68-.7.95-.3.29-.53.42-.58.44-.16.07-.42.15-.72.15-.35 0-.76-.04-1.22-.12a4.14 4.14 0 0 1-.74-.17l-.38-.12-.38.11c-.32.09-.65.17-.98.24l-.38.09-.27.26c-.14.13-.35.34-.62.56-.64.48-1.31.78-1.69.85-.46-.02-1.18-.27-1.73-.59-.3-.18-.54-.36-.69-.47l-.31-.23-.39-.03c-.34-.03-.67-.06-1-.1l-.38-.05-.35.16c-.25.11-.5.2-.77.28-.42.13-.83.22-1.15.27-.09.01-.18.02-.27.02-.23 0-.41-.03-.47-.05-.22-.07-.46-.2-.64-.34-.27-.23-.56-.52-.86-.87-.16-.18-.32-.38-.46-.61l-.22-.33-.36-.16c-.3-.14-.6-.29-.9-.44l-.34-.17-.38.03c-.21.01-.48.02-.77.02h-.06c-.9-.06-1.56-.25-1.82-.42-.34-.3-.76-.91-.97-1.6-.09-.26-.17-.53-.24-.81l-.09-.37-.27-.27c-.24-.23-.47-.47-.69-.72l-.25-.27-.35-.11c-.3-.09-.57-.19-.83-.29l-.04-.02c-.72-.26-1.34-.73-1.57-1.04l-.02-.03-.02-.02c-.09-.11-.24-.5-.31-1.81-.01-.21.02-.44.05-.66l.01-.06.05-.4-.17-.36c-.14-.3-.28-.61-.41-.91l-.15-.37-.33-.23c-.2-.14-.4-.28-.59-.47-.98-.97-1.13-1.35-1.15-1.47l-.02-.08c-.08-.37-.02-1.12.27-1.8l.01-.02.01-.03c.1-.26.21-.52.33-.78l.16-.34-.04-.37-.02-.2-.03-.29c-.01-.1-.01-.21-.02-.31l-.01-.2-.02-.37-.2-.31c-.16-.25-.31-.5-.45-.75l-.02-.04c-.38-.64-.55-1.41-.52-1.81v-.06c0-.17.17-.57.94-1.58.13-.17.3-.33.49-.5l.3-.27.1-.39c.08-.32.17-.65.27-.96l.12-.38-.1-.38-.01-.07a2.86 2.86 0 0 1-.13-.66c-.12-1.33-.01-1.75.06-1.87l.02-.03.02-.04c.16-.32.7-.86 1.41-1.23.24-.14.48-.26.76-.39l.34-.16.21-.31c.19-.27.38-.54.59-.81l.23-.3.04-.37c.03-.3.08-.59.14-.9.12-.68.46-1.37.75-1.72.27-.22.91-.5 1.7-.65.26-.04.54-.06.81-.08l.39-.02.32-.23c.27-.19.55-.38.83-.56l.32-.21.17-.35c.12-.25.25-.48.41-.71.23-.35.47-.68.7-.95.3-.29.53-.42.58-.44.16-.07.42-.15.72-.15.35 0 .76.04 1.22.12.24.03.49.09.74.17l.38.12.38-.11c.32-.09.65-.17.98-.24l.37-.08.27-.26c.14-.13.35-.34.62-.56.63-.49 1.3-.79 1.68-.86m-.06-1.36h-.03c-.75.09-1.73.61-2.44 1.15-.29.24-.53.46-.72.65-.35.08-.7.17-1.04.26a6.18 6.18 0 0 0-.95-.21c-.43-.07-.92-.13-1.4-.13h-.01c-.47 0-.9.11-1.24.26-.34.16-.71.43-1.04.76-.32.36-.61.77-.86 1.14-.21.31-.37.61-.49.86-.3.19-.59.39-.88.6-.26.02-.59.05-.95.1-.86.16-1.89.51-2.44 1.03-.51.56-.97 1.54-1.12 2.45-.07.37-.12.7-.15.97-.21.28-.42.57-.62.86-.24.11-.53.25-.86.44-.8.42-1.61 1.12-1.95 1.8-.38.66-.32 1.81-.24 2.68.03.37.12.7.19.97-.11.34-.2.68-.29 1.03-.2.18-.45.41-.67.7-.52.68-1.19 1.6-1.2 2.36-.05.76.24 1.8.71 2.6.18.33.35.62.5.85.01.18.01.36.03.54.01.17.03.35.05.52-.11.24-.25.54-.38.89-.35.83-.51 1.89-.34 2.63.13.75.91 1.59 1.54 2.21.26.27.54.46.77.62.14.33.28.65.44.98-.04.27-.08.6-.07.97.04.85.12 1.98.6 2.58.44.62 1.35 1.22 2.21 1.53.36.14.67.25.93.33.24.26.49.51.74.76.07.26.15.57.27.92.26.87.84 1.75 1.43 2.24.62.44 1.72.64 2.6.7h.11c.33 0 .63-.01.87-.03.32.16.64.32.96.47.15.23.34.5.59.77.28.33.62.69.98 1 .37.29.76.5 1.13.6.25.07.55.11.87.11.14 0 .28-.01.42-.02.48-.07.96-.19 1.39-.32.36-.1.68-.23.93-.34.35.04.71.08 1.07.11.21.16.47.34.78.53.75.44 1.75.79 2.5.79h.03c.75-.09 1.73-.61 2.44-1.15.29-.24.53-.46.72-.65.35-.08.7-.17 1.04-.26.26.08.59.16.95.21.43.07.92.13 1.4.13h.01c.47 0 .9-.11 1.24-.26.34-.16.71-.43 1.04-.76.32-.36.61-.77.86-1.14.21-.31.37-.61.49-.86.3-.19.59-.39.88-.6.26-.02.59-.05.95-.1.86-.16 1.89-.51 2.44-1.03.51-.56.97-1.54 1.12-2.45.07-.37.12-.7.15-.97.21-.28.42-.57.62-.86.24-.11.53-.25.86-.44.8-.42 1.61-1.12 1.95-1.8.38-.66.32-1.81.24-2.68-.03-.37-.12-.7-.19-.97.11-.34.2-.68.29-1.03.2-.18.45-.41.67-.7.52-.68 1.19-1.6 1.2-2.36.05-.76-.24-1.8-.71-2.6-.18-.33-.35-.62-.5-.85-.01-.18-.01-.36-.03-.54a9.14 9.14 0 0 0-.05-.52c.11-.24.25-.54.38-.89.35-.83.51-1.89.34-2.63-.13-.75-.91-1.59-1.54-2.21-.26-.27-.54-.46-.77-.62-.14-.33-.28-.65-.44-.98.04-.27.08-.6.07-.97-.04-.85-.12-1.98-.6-2.58-.44-.62-1.35-1.22-2.21-1.53-.36-.14-.67-.25-.93-.33-.24-.26-.49-.51-.74-.76-.07-.26-.15-.57-.27-.92-.26-.87-.84-1.75-1.43-2.24-.62-.44-1.72-.64-2.6-.7h-.11c-.33 0-.63.01-.87.03-.32-.16-.64-.32-.96-.47-.15-.23-.34-.5-.59-.77-.28-.33-.62-.69-.98-1-.37-.29-.76-.5-1.13-.6-.25-.07-.55-.11-.87-.11-.14 0-.28.01-.42.02-.48.07-.96.19-1.39.32-.36.1-.68.23-.93.34-.35-.04-.71-.08-1.07-.11a9.39 9.39 0 0 0-.78-.53c-.75-.44-1.74-.79-2.5-.79z" opacity=".2"/><path fill="#F9A825" d="M88.37 37.32s-.37.43-.83.97c-.46.52-.98 1.08-1.52 1.34-.27.14-.6.29-.97.43-.36.15-.73.33-1.07.51-.64.38-.99.83-.99.83s.1-.1.21-.3.25-.49.37-.86c.23-.73.52-1.79 1.01-2.35.23-.28.59-.52 1-.66.41-.15.88-.2 1.3-.19.84.04 1.49.28 1.49.28zm6.71-.82s-.55-.07-1.26.09c-.35.09-.74.23-1.1.37-.36.15-.7.28-.99.36-.57.19-1.35.16-2.06.11-.72-.06-1.3-.1-1.3-.1s.31-.63.93-1.25c.31-.3.69-.59 1.09-.77.4-.19.83-.26 1.19-.22s.78.18 1.19.39c.4.19.79.42 1.13.6s.63.29.84.35c.2.06.34.07.34.07z" opacity=".7"/><path fill="#689F38" d="M99.08 38.8s-.13 0-.33.02c-.21.02-.51.14-.82.28-.31.15-.63.35-.92.52-.29.16-.54.3-.77.32-.23.03-.51-.02-.83-.11-.16-.05-.33-.09-.51-.15s-.35-.08-.53-.12c-.34-.06-.67-.09-.88-.06s-.34.07-.34.07.13-.02.29-.16c.16-.12.35-.37.56-.7.22-.32.49-.73.82-1.05.33-.33.71-.55 1.05-.59.35-.04.77.08 1.16.32.39.23.74.56 1.03.81.29.26.52.45.7.52.19.09.32.08.32.08z" opacity=".76"/><path fill="#F09300" d="M103.39 47.02s-.05-.1-.15-.26-.33-.35-.57-.53c-.25-.18-.56-.35-.82-.49-.25-.15-.46-.28-.56-.45-.11-.16-.15-.4-.19-.69-.01-.15-.04-.3-.05-.47s-.05-.32-.08-.48c-.07-.31-.16-.6-.26-.76s-.18-.25-.18-.25.07.1.23.16c.16.08.43.11.8.14.35.03.81.06 1.22.19.41.12.75.34.92.6.17.27.22.67.16 1.08-.06.42-.22.84-.33 1.17-.12.34-.2.59-.2.76 0 .18.06.28.06.28zm3.97 12.76s0 .11.01.3c0 .19.07.49.09.84.03.18.02.36.02.56s-.02.4-.05.59c-.07.39-.23.73-.44.96-.21.22-.55.41-.94.5-.19.04-.39.08-.6.08-.2.01-.39.02-.57.01-.19-.02-.34-.01-.5-.03-.15-.02-.27-.02-.37-.02h-.31s.12 0 .27-.1c.15-.09.32-.32.44-.64s.19-.71.24-1.05c.06-.33.12-.6.26-.74.13-.15.4-.21.73-.28.33-.06.72-.14 1.03-.27s.52-.3.61-.45c.09-.14.08-.26.08-.26z" opacity=".7"/><path fill="#F9A825" d="M96.45 33.6s-.1-.07-.28-.15-.49-.13-.8-.14c-.17.01-.33 0-.49.02l-.48.07c-.3.04-.54.07-.72.02s-.37-.19-.6-.38l-.35-.29c-.13-.1-.26-.17-.39-.25-.27-.14-.56-.2-.75-.16s-.3.1-.3.1.11-.05.24-.19c.14-.13.32-.37.6-.65s.68-.6 1.11-.79c.42-.2.88-.26 1.22-.16.35.09.69.39.94.77s.41.83.53 1.19.21.63.32.78c.09.16.2.21.2.21z" opacity=".7"/><path fill="#F9A825" d="M108.67 38.47s-.12-.2-.4-.44c-.27-.24-.76-.47-1.28-.52-.26-.02-.52-.01-.76.05-.24.07-.49.15-.76.25-.53.19-1.2.4-1.94.36-.36-.02-.81-.1-1.27-.32s-.86-.57-1.12-.93-.44-.72-.55-1.06c-.11-.31-.22-.62-.32-.91-.2-.54-.48-.98-.79-1.19s-.55-.23-.55-.23.23.03.59.14.87.33 1.45.68c.29.17.57.38.87.54s.57.31.82.38.42.06.56.04.29-.03.47-.02c.34.03.96.1 1.7.29.75.18 1.57.62 2.02 1.11.48.49.74.95.94 1.26.19.33.32.52.32.52z"/><radialGradient id="g" cx="39.486" cy="48.436" r="29.633" gradientTransform="rotate(20.8 35.484 80.626)" gradientUnits="userSpaceOnUse"><stop offset="0" stop-color="#8C6239"/><stop offset="1" stop-color="#603813"/></radialGradient><path fill="url(#g)" d="M61.63 69.83c.07-.18.15-.35.22-.53s.12-.35.19-.53c.22-.18.48-.41.77-.69.72-.65 1.35-1.6 1.52-2.4.21-.79-.17-1.95-.5-2.83-.13-.37-.32-.69-.47-.95.01-.38.02-.76.02-1.14.16-.25.35-.55.5-.91.35-.85.77-1.98.59-2.77-.15-.8-.75-1.79-1.45-2.49-.28-.3-.54-.54-.76-.74-.12-.36-.24-.72-.37-1.07.05-.28.11-.63.15-1.02.13-.96-.03-2.08-.38-2.81-.4-.71-1.37-1.39-2.2-1.85-.36-.17-.69-.31-.96-.41-.23-.3-.47-.6-.72-.89-.04-.29-.11-.64-.22-1.02-.13-.45-.29-.95-.5-1.41-.22-.45-.52-.82-.82-1.09-.31-.26-.73-.5-1.21-.66a9.2 9.2 0 0 0-1.49-.31c-.4-.07-.76-.09-1.06-.09-.32-.2-.65-.4-.99-.59-.14-.25-.3-.54-.52-.87-.54-.77-1.36-1.58-2.1-1.91-.77-.25-1.95-.19-2.88.01-.39.1-.72.21-.99.3-.38-.08-.75-.15-1.13-.22-.22-.19-.49-.42-.83-.63-.39-.27-.84-.54-1.29-.75-.46-.21-.93-.3-1.33-.31-.4 0-.88.09-1.35.27-.47.21-.94.47-1.35.72-.34.21-.64.42-.87.61-.38.05-.75.11-1.13.18-.26-.1-.59-.22-.97-.33-.9-.23-2.06-.35-2.83-.11-.75.32-1.63 1.06-2.19 1.87-.24.32-.43.63-.59.87-.34.18-.67.36-.99.55-.29 0-.63.01-1.04.04-.96.04-2.06.36-2.7.86-.67.47-1.12 1.61-1.44 2.49-.14.37-.2.73-.25 1.03-.26.28-.5.57-.75.86-.28.09-.62.19-.96.38-.81.43-1.87 1.01-2.23 1.75-.4.71-.58 1.85-.48 2.84.02.4.06.76.1 1.05-.07.18-.15.35-.22.53s-.12.35-.19.53c-.22.18-.48.41-.77.69-.72.65-1.35 1.6-1.52 2.4-.21.79.17 1.95.5 2.83.13.37.32.69.47.95-.01.38-.02.76-.02 1.14-.16.25-.35.55-.5.91-.35.85-.77 1.98-.59 2.77.15.8.75 1.79 1.45 2.49.28.3.54.54.76.74.12.36.24.72.37 1.07-.05.28-.11.63-.15 1.02-.13.96.03 2.08.38 2.81.4.71 1.37 1.39 2.2 1.85.36.17.69.31.96.41.23.3.47.6.72.89.04.29.11.64.22 1.01.13.45.29.95.5 1.41.22.45.52.82.82 1.09.31.26.73.5 1.21.66a9.2 9.2 0 0 0 1.49.31c.4.07.76.09 1.06.09.32.2.65.4.99.59.14.25.3.54.52.87.54.77 1.36 1.58 2.1 1.91.77.25 1.95.19 2.88-.01.39-.1.72-.21.99-.3.38.08.75.15 1.13.22.22.19.49.42.83.63.39.27.84.54 1.29.75.46.21.93.3 1.33.31.4 0 .88-.09 1.35-.27.47-.21.94-.47 1.35-.72.34-.21.64-.42.87-.61.38-.05.75-.11 1.13-.18.26.1.59.22.97.33.9.23 2.06.35 2.83.11.75-.32 1.63-1.06 2.19-1.87.24-.32.43-.63.59-.87.34-.18.67-.36.99-.55.29 0 .63-.01 1.04-.04.96-.04 2.06-.36 2.7-.86.67-.47 1.12-1.61 1.44-2.49.14-.37.2-.73.25-1.03.26-.28.5-.57.75-.86.28-.09.62-.19.96-.38.81-.43 1.87-1.01 2.23-1.75.4-.71.58-1.85.48-2.84-.02-.39-.06-.75-.1-1.04z"/><g opacity=".7"><path fill="#F09300" d="M56.82 47.59s-.42-.19-.9-.45c-.5-.25-1.06-.56-1.42-.86-.34-.31-.7-.86-1.03-1.3-.16-.23-.31-.43-.42-.57-.11-.15-.18-.24-.18-.24s.12-.03.34-.05c.21-.03.52-.05.84-.02.67.03 1.46.24 1.86.61.42.35.68 1.11.8 1.74.11.63.11 1.14.11 1.14z"/><path fill="#F09300" d="M59.32 52.23s-.34-.32-.71-.73c-.35-.42-.84-.87-1.04-1.3-.23-.41-.38-1.06-.52-1.61-.15-.54-.24-1.01-.24-1.01s.5.13 1.11.41c.59.28 1.25.73 1.51 1.21.23.49.28 1.26.15 1.9-.09.65-.26 1.13-.26 1.13zm0 12.31s-.1-.45-.19-1.01-.12-1.21-.09-1.68c.04-.47.37-1.09.57-1.61.21-.52.42-.95.42-.95s.32.42.64 1c.33.58.52 1.33.47 1.86-.04.53-.54 1.15-.98 1.62-.43.46-.84.77-.84.77z"/><path fill="#689F38" d="M57.36 57.97s-.21-.42-.42-.94-.4-1.15-.48-1.62c-.07-.47.1-1.14.18-1.7s.19-1.02.19-1.02.41.33.85.83c.45.49.82 1.17.89 1.7.09.53-.26 1.25-.57 1.8-.32.55-.64.95-.64.95z" opacity=".58"/></g><path fill="#442105" d="M50.27 78.93s.26-.46.52-.98c.28-.51.49-1.06.73-1.25.25-.19.79-.2 1.28-.34.25-.06.49-.15.65-.22.17-.08.27-.11.27-.14 0 .02.14.1.3.33s.34.59.42 1.02c.21.86-.04 1.98-.57 2.38-.53.42-1.56.32-2.31-.02-.38-.15-.71-.36-.94-.51-.21-.16-.35-.27-.35-.27z"/><path fill="#F09300" d="M57.5 70.15s.07-.12.17-.32c.11-.18.24-.46.37-.74.26-.58.44-1.25.68-1.67.25-.42.77-.94 1.18-1.48.21-.26.39-.51.52-.7.12-.18.2-.29.2-.29s.11.12.25.35.31.58.44.99c.27.81.31 1.92-.08 2.58-.37.66-1.38 1.19-2.22 1.31-.43.07-.8.07-1.07.03-.28-.03-.44-.06-.44-.06z" opacity=".7"/><path fill="#442105" d="m41.88 81.18.69-.91c.37-.48.78-1.02 1.18-1.2.41-.17 1.11-.12 1.74-.06s1.17.14 1.17.14 0 .18-.03.46-.09.67-.2 1.07c-.21.81-.62 1.68-1.15 1.91-.52.23-1.46-.06-2.18-.48-.72-.41-1.22-.93-1.22-.93z"/><path fill="#689F38" d="M53.57 70.76s.04-.18.08-.48.12-.7.18-1.14c.05-.45.18-.92.25-1.38.1-.46.24-.89.37-1.26.07-.19.17-.38.28-.59.08-.21.19-.44.29-.67.23-.46.39-.96.53-1.42.15-.46.17-.88.21-1.18.03-.3.03-.49.03-.49s-.01.18.03.48c.02.3.18.71.28 1.19.11.48.33 1.03.42 1.59.13.56.21 1.13.15 1.6-.03.47-.22.99-.5 1.46-.26.49-.69.9-1.05 1.26-.38.35-.79.6-1.07.78-.28.16-.48.25-.48.25zm-6.4 6.17s.16-.08.41-.23c.12-.08.28-.15.43-.29.15-.13.31-.28.48-.43.17-.16.32-.36.48-.55.16-.18.31-.39.45-.6.3-.4.55-.81.8-1.12l.42-.48c.15-.17.33-.32.51-.48.34-.33.75-.63 1.1-.93.37-.29.7-.54.93-.74l.39-.31s0 .21-.01.55c-.01.35-.06.82-.18 1.34-.1.53-.33 1.06-.6 1.56-.29.48-.65.9-1.03 1.16-.19.13-.42.25-.66.37-.23.12-.52.2-.78.29-.53.19-1.1.29-1.56.42-.48.1-.86.23-1.15.31-.27.07-.43.16-.43.16z" opacity=".58"/><path fill="#F09300" d="M50.49 68.09c.76-.5 1.52-1.28 1.84-1.98.24-.73.18-1.84-.04-2.74-.1-.39-.21-.73-.3-1 .08-.34.17-.68.23-1.01.19-.2.42-.45.66-.76.59-.7 1.1-1.67 1.16-2.44.07-.77-.41-1.82-.86-2.6-.22-.34-.43-.63-.61-.85-.03-.35-.06-.69-.11-1.03.11-.25.25-.57.37-.94.33-.86.45-1.96.26-2.71-.11-.37-.39-.76-.7-1.14-.3-.38-.69-.72-1.08-.99-.33-.24-.62-.42-.87-.57-.16-.31-.35-.6-.53-.89.01-.28.01-.63-.02-1.03-.13-.88-.4-2.02-1-2.56-.53-.61-1.69-.94-2.58-1.08-.41-.04-.77-.04-1.06-.04-.29-.18-.59-.36-.9-.52-.14-.24-.33-.52-.57-.84-.14-.18-.29-.38-.47-.56-.18-.16-.37-.32-.56-.47-.39-.28-.8-.57-1.2-.63-.39-.07-.88-.04-1.37.04-.49.09-.98.32-1.4.51-.36.16-.66.35-.89.52-.35.01-.7.03-1.04.07-.25-.14-.56-.29-.93-.4-.43-.14-.93-.29-1.41-.34-.48-.03-.95-.01-1.33.11-.38.1-.76.4-1.13.72-.36.33-.71.7-.96 1.1-.23.34-.4.64-.54.89-.3.17-.59.35-.89.53-.28 0-.63.01-1.02.04-.9.09-1.98.39-2.56.9-.56.53-1.03 1.55-1.21 2.47-.09.39-.15.73-.19 1.01-.22.26-.42.55-.63.82-.26.09-.59.21-.95.38-.8.4-1.73 1.02-2.11 1.68-.34.69-.48 1.78-.37 2.71.04.4.09.75.14 1.03-.07.16-.14.32-.21.49-.06.16-.1.32-.16.48-.22.17-.49.38-.78.65-.7.6-1.32 1.49-1.52 2.23-.17.75.12 1.85.44 2.7.16.37.32.69.46.94-.03.35-.06.69-.07 1.04-.15.23-.34.52-.53.86-.47.79-.81 1.84-.74 2.61.08.77.7 1.73 1.31 2.42.28.3.54.54.75.73.1.33.2.66.31.99-.07.27-.14.61-.19 1-.08.46-.08.96-.03 1.44.06.48.13.95.35 1.28.21.33.55.67.93.97s.88.52 1.29.71c.36.17.69.27.98.34.24.26.48.51.73.75.05.28.14.62.3.97.18.41.39.9.68 1.29.3.38.64.72.98.93.33.23.83.29 1.32.35.49.05 1.01.04 1.48-.07.4-.07.74-.16 1.01-.24.34.09.67.15 1.01.21.2.19.47.43.79.68.75.48 1.81 1.01 2.6.91.81-.01 1.8-.67 2.5-1.25.3-.28.54-.55.73-.77.33-.1.66-.2.99-.32.27.06.61.12 1 .16.92.14 2.01-.02 2.71-.37.64-.44 1.31-1.34 1.65-2.22.16-.37.28-.7.36-.97.26-.22.51-.46.76-.7.28-.05.62-.12 1-.22.85-.26 1.88-.72 2.35-1.33.46-.62.75-1.69.79-2.63.03-.4.03-.75.03-1.03.17-.3.34-.6.5-.91.24-.12.54-.29.87-.51z"/><path fill="#9CCC65" d="M48.07 67.09c.72-.49 1.43-1.24 1.73-1.92.23-.7.19-1.76 0-2.62-.09-.38-.18-.69-.26-.95.08-.32.16-.65.23-.97.18-.2.39-.44.62-.74.56-.68 1.04-1.62 1.11-2.36s-.36-1.73-.77-2.48c-.2-.32-.39-.6-.55-.81-.02-.33-.05-.66-.09-.99.11-.24.24-.55.36-.91.32-.83.45-1.88.28-2.6-.1-.35-.35-.73-.64-1.08-.28-.36-.63-.68-.99-.93-.3-.22-.57-.4-.8-.53-.15-.29-.31-.57-.48-.85.01-.27.02-.61 0-.99-.11-.84-.35-1.93-.89-2.44-.48-.57-1.55-.87-2.38-1-.38-.03-.72-.03-.98-.02-.27-.17-.54-.34-.83-.48-.13-.22-.3-.5-.52-.8-.13-.17-.27-.36-.42-.53-.16-.15-.34-.31-.52-.44-.36-.27-.74-.53-1.11-.58-.36-.06-.82-.03-1.27.06s-.91.32-1.3.51c-.34.16-.62.34-.84.51-.32.02-.65.04-.97.08-.23-.13-.52-.27-.86-.37-.4-.13-.86-.27-1.31-.31-.44-.02-.88.01-1.23.12-.36.1-.71.39-1.06.71-.34.32-.67.68-.91 1.07-.22.33-.38.62-.51.86-.28.17-.56.34-.83.52-.26 0-.58.01-.95.05-.84.1-1.84.4-2.39.9-.53.52-.98 1.5-1.16 2.38-.09.38-.15.71-.19.97-.21.26-.4.53-.6.8-.25.09-.55.21-.89.38-.75.39-1.62 1-1.98 1.64-.33.66-.47 1.71-.38 2.61.03.38.07.71.12.98-.06.16-.14.31-.2.47s-.1.31-.16.47c-.21.17-.46.38-.73.64-.66.59-1.25 1.44-1.44 2.16-.17.72.08 1.77.37 2.58.14.36.29.65.41.89-.03.33-.07.67-.08.99-.15.22-.32.5-.5.83-.45.76-.78 1.77-.72 2.51s.63 1.65 1.19 2.3c.25.28.49.51.68.69.08.32.17.63.27.94-.06.26-.14.58-.19.96-.08.44-.09.92-.05 1.38.05.45.11.91.31 1.22.19.32.5.64.85.92s.81.49 1.19.67c.33.15.64.25.9.31.22.25.44.48.67.71.05.27.12.59.27.93.16.4.35.86.61 1.23.27.36.58.68.9.88.3.22.77.27 1.22.31.46.04.93.02 1.37-.09.38-.08.69-.17.94-.25.31.08.62.14.94.19.19.18.43.4.72.64.69.45 1.66.95 2.4.84.75-.02 1.68-.67 2.33-1.23.28-.28.51-.53.68-.74.31-.1.61-.2.92-.32.25.05.56.1.93.14.86.12 1.87-.04 2.52-.4.6-.43 1.23-1.3 1.56-2.15.15-.36.27-.67.35-.93.25-.22.48-.45.72-.68.26-.05.58-.12.93-.22.8-.26 1.75-.72 2.2-1.31.44-.6.72-1.63.76-2.53.03-.38.04-.72.04-.99.17-.29.32-.58.48-.88.26-.15.54-.32.85-.53z"/><path fill="#689F38" d="M22.3 66.9s-1.1-2.3-1.11-3.71 1.06-3.8 1.06-3.8 1.82 2.38 1.82 3.78c.01 1.41-1.77 3.73-1.77 3.73zm16.11-21.42s-.33.66-.74 1.49c-.41.79-.86 1.67-1.41 2-.54.34-1.58.37-2.51.38-.93 0-1.74-.06-1.74-.06s-.07-1.08.06-2.28.51-2.53 1.19-2.95c.69-.41 2.06-.16 3.18.32 1.13.46 1.97 1.1 1.97 1.1z"/><path fill="#33691E" d="M27.88 64.34s-.55-.85-1.06-2.06-.98-2.74-.93-4.05c.03-.65.2-1.44.53-2.21.33-.78.84-1.52 1.37-2.04.53-.53 1.07-.88 1.45-1.1.39-.22.63-.32.63-.32s-.08.28-.19.73c-.1.45-.22 1.06-.25 1.69-.09 1.28.33 2.46.29 3.43-.05.94-.55 2.41-1 3.65-.46 1.26-.84 2.28-.84 2.28z"/><path fill="#689F38" d="m39.77 53.32-.97 1.24c-.55.7-1.22 1.53-1.83 2.02-.61.48-1.58.96-2.41 1.36l-1.49.7s.15-.8.51-1.75c.35-.95.93-2.03 1.59-2.56s1.83-.83 2.81-.96c1-.13 1.79-.05 1.79-.05z"/><path fill="#33691E" d="M30.41 73.24s.89-.44 1.86-1.09c.99-.63 1.99-1.48 2.81-1.92.83-.43 2.14-.82 3.27-1.29 1.13-.45 2.06-.91 2.06-.91s-.01 1.18-.49 2.6c-.44 1.42-1.48 3.05-2.67 3.67-1.18.65-3.11.58-4.51.11-.71-.22-1.29-.52-1.69-.75-.41-.26-.64-.42-.64-.42z"/><path fill="#689F38" d="M37.33 62.62s-.12.68-.39 1.5c-.27.81-.69 1.75-1.19 2.25s-1.42.92-2.21 1.22-1.46.5-1.46.5-.05-.84.07-1.83c.11-.99.38-2.1.87-2.6.5-.5 1.57-.73 2.52-.86s1.79-.18 1.79-.18z"/><path fill="#33691E" d="M46.25 56.19s.32.51.6 1.22c.28.7.52 1.61.46 2.29s-.44 1.55-.83 2.21c-.39.67-.78 1.14-.78 1.14s-.32-.64-.64-1.39c-.32-.76-.67-1.61-.62-2.2s.53-1.35.97-2.03c.44-.67.84-1.24.84-1.24zm-3.39-8.96s.55.24 1.18.7c.63.45 1.32 1.13 1.62 1.76s.39 1.61.35 2.39c-.03.79-.18 1.38-.18 1.38s-.55-.43-1.2-.95c-.63-.52-1.34-1.07-1.58-1.59-.25-.52-.22-1.39-.21-2.19l.02-1.5z"/><path fill="#212121" d="M40.37 37.6c.2.01.49.05.78.18.35.16.73.39 1.14.67.22.14.44.31.65.5l.29.26.39.07c.35.06.71.13 1.06.2l.37.08.36-.12c.2-.07.5-.17.86-.26.43-.09.89-.14 1.31-.14.39 0 .63.04.77.08.45.23 1.05.81 1.45 1.38.21.32.36.59.46.78l.19.34.34.19c.32.18.63.36.93.55l.33.2h.38c.3 0 .58.03.89.08.47.06.91.16 1.25.26.29.1.57.25.74.39.19.17.38.42.49.65.16.35.31.77.44 1.24.08.25.14.52.18.81l.06.39.26.3c.23.27.46.55.68.83l.23.3.35.15c.29.11.57.23.83.35.87.48 1.43.97 1.62 1.27.2.45.34 1.27.23 2.04-.03.3-.08.6-.13.91l-.07.37.13.36c.13.33.24.67.35 1.01l.11.35.27.24c.25.23.47.44.68.66l.04.04c.59.59 1 1.35 1.07 1.77l.02.06c.05.19-.01.69-.52 1.95-.09.22-.22.43-.36.64l-.03.05-.22.34v.4c0 .36 0 .72-.02 1.08l-.01.4.2.34c.13.23.27.46.37.73.5 1.36.5 1.84.46 2l-.02.04-.01.04c-.09.41-.5 1.13-1.1 1.68l-.04.04c-.21.21-.44.41-.68.61l-.29.24-.12.35-.07.2c-.03.1-.07.2-.1.3-.04.1-.08.21-.13.31l-.08.19-.14.34.05.36c.04.32.08.63.09.94v.06c.08.81-.1 1.66-.32 2.04l-.02.03-.01.03c-.12.25-.68.64-1.66 1.15-.21.11-.45.19-.72.27l-.39.12-.26.31c-.23.28-.46.55-.7.81l-.26.29-.07.39-.01.08c-.04.24-.08.48-.17.72-.47 1.3-.77 1.72-.94 1.83l-.06.04c-.37.29-1.2.54-1.97.57-.28.02-.56.03-.92.03h-.37l-.32.19c-.31.18-.62.36-.94.52l-.33.17-.2.32c-.17.27-.35.54-.55.81-.44.63-1.09 1.15-1.55 1.36-.1.03-.28.06-.56.06-.42 0-.95-.07-1.44-.19a10.3 10.3 0 0 1-.83-.29l-.36-.14-.38.07c-.35.07-.71.12-1.06.17l-.38.05-.3.24c-.23.19-.47.36-.73.51-.39.24-.77.45-1.12.61-.31.11-.61.17-.8.17-.2-.01-.5-.05-.8-.19a7.96 7.96 0 0 1-1.14-.67c-.22-.14-.44-.31-.65-.5l-.29-.26-.39-.07c-.35-.06-.71-.13-1.06-.2l-.37-.08-.36.12c-.2.07-.5.17-.86.26-.43.09-.89.14-1.31.14-.39 0-.63-.04-.77-.08-.45-.23-1.05-.81-1.45-1.38-.21-.32-.36-.59-.46-.78l-.19-.34-.34-.19c-.32-.18-.63-.36-.93-.55l-.33-.2h-.38c-.3 0-.58-.03-.89-.08a8.25 8.25 0 0 1-1.25-.26c-.29-.1-.57-.25-.74-.39-.19-.17-.38-.42-.49-.64a8.42 8.42 0 0 1-.44-1.24c-.08-.25-.14-.52-.18-.81l-.06-.39-.26-.3c-.23-.27-.46-.55-.68-.84l-.23-.3-.36-.14c-.29-.11-.57-.23-.83-.35-.87-.48-1.43-.97-1.62-1.27-.2-.45-.34-1.27-.23-2.04.03-.29.08-.6.13-.91l.07-.37-.13-.36c-.13-.33-.24-.67-.35-1.01l-.11-.35-.27-.24c-.25-.23-.47-.44-.68-.66l-.04-.04c-.59-.59-1-1.35-1.07-1.77l-.02-.06c-.05-.19.01-.69.52-1.95.09-.22.22-.43.35-.64l.03-.05.23-.3v-.4c0-.36 0-.72.02-1.08l.01-.4-.2-.34c-.13-.23-.27-.46-.37-.73-.5-1.36-.5-1.84-.46-2l.02-.08c.09-.41.5-1.13 1.1-1.68l.04-.04c.21-.21.44-.42.68-.61l.29-.24.12-.35.07-.2c.03-.1.07-.2.1-.3.04-.1.08-.21.13-.31l.08-.19.14-.34-.05-.36c-.04-.32-.08-.63-.09-.94v-.06c-.08-.81.1-1.66.32-2.04l.02-.03.01-.03c.12-.25.68-.64 1.66-1.15.21-.11.45-.19.72-.27l.39-.12.26-.31c.23-.28.46-.55.7-.81l.26-.29.07-.39.01-.08c.04-.24.08-.48.17-.72.47-1.3.77-1.72.94-1.83l.06-.04c.37-.29 1.2-.54 1.97-.57.28-.02.56-.03.92-.03h.37l.32-.19c.31-.18.62-.36.94-.52l.33-.17.2-.32c.17-.27.35-.54.55-.81.44-.63 1.09-1.15 1.55-1.36.1-.03.28-.06.56-.06.42 0 .95.07 1.44.19.27.08.56.18.83.29l.36.14.38-.07c.35-.07.71-.12 1.06-.17l.38-.05.3-.24c.23-.19.47-.36.73-.51.39-.24.77-.45 1.12-.61.32-.14.62-.2.84-.21m.01-1.35c-.4 0-.87.1-1.34.27-.47.21-.94.47-1.35.72-.34.21-.64.42-.87.61-.38.05-.75.11-1.13.18-.26-.1-.59-.22-.97-.33-.55-.14-1.2-.24-1.8-.24-.38 0-.73.04-1.03.14-.75.32-1.63 1.06-2.19 1.87-.24.32-.43.63-.59.87-.34.18-.67.36-.99.55h-.05c-.28 0-.61.01-.99.04-.96.04-2.06.36-2.7.86-.67.47-1.12 1.61-1.44 2.49-.14.37-.2.73-.25 1.03-.26.28-.5.57-.75.86-.28.09-.62.19-.96.38-.81.43-1.87 1.01-2.23 1.75-.4.71-.58 1.85-.48 2.84.02.4.06.76.1 1.05-.07.18-.15.35-.22.53s-.12.35-.19.53c-.22.18-.48.41-.77.69-.72.65-1.35 1.6-1.52 2.4-.21.79.17 1.95.5 2.83.13.37.32.69.47.95-.01.38-.02.76-.02 1.14-.16.25-.35.55-.5.91-.35.85-.77 1.98-.59 2.77.15.8.75 1.79 1.45 2.49.28.3.54.54.76.74.12.36.24.72.37 1.07-.05.28-.11.63-.15 1.02-.13.96.03 2.08.38 2.81.4.71 1.37 1.39 2.2 1.85.36.17.69.31.96.41.23.3.47.6.72.89.04.29.11.64.22 1.01.13.45.29.95.5 1.41.22.45.52.82.82 1.09.31.26.73.5 1.21.66a9.2 9.2 0 0 0 1.49.31c.4.07.76.09 1.06.09.32.2.65.4.99.59.14.25.3.54.52.87.54.77 1.36 1.58 2.1 1.91.36.12.8.17 1.26.17.54 0 1.12-.07 1.62-.18.39-.1.72-.21.99-.3.38.08.75.15 1.13.22.22.19.49.42.83.63.39.27.84.54 1.29.75.46.21.93.3 1.33.31h.01c.4 0 .87-.1 1.34-.27.47-.21.94-.47 1.35-.72.34-.21.64-.42.87-.61.38-.05.75-.11 1.13-.18.26.1.59.22.97.33.55.14 1.2.24 1.8.24.38 0 .73-.04 1.03-.14.75-.32 1.63-1.06 2.19-1.87.24-.32.43-.63.59-.87.34-.18.67-.36.99-.55h.05c.28 0 .61-.01.99-.04.96-.04 2.06-.36 2.7-.86.67-.47 1.12-1.61 1.44-2.49.14-.37.2-.73.25-1.03.26-.28.5-.57.75-.86.28-.09.62-.19.96-.38.81-.43 1.87-1.01 2.23-1.75.4-.71.58-1.85.48-2.84-.02-.4-.06-.76-.1-1.05.07-.18.15-.35.22-.53s.12-.35.19-.53c.22-.18.48-.41.77-.69.72-.65 1.35-1.6 1.52-2.4.21-.79-.17-1.95-.5-2.83-.13-.37-.32-.69-.47-.95.01-.38.02-.76.02-1.14.16-.25.35-.55.5-.91.35-.85.77-1.98.59-2.77-.15-.8-.75-1.79-1.45-2.49-.28-.3-.54-.54-.76-.74-.12-.36-.24-.72-.37-1.07.05-.28.11-.63.15-1.02.13-.96-.03-2.08-.38-2.81-.4-.71-1.37-1.39-2.2-1.85-.36-.17-.69-.31-.96-.41-.23-.3-.47-.6-.72-.89-.04-.29-.11-.64-.22-1.02-.13-.45-.29-.95-.5-1.41-.22-.45-.52-.82-.82-1.09-.31-.26-.73-.5-1.21-.66a9.2 9.2 0 0 0-1.49-.31c-.4-.07-.76-.09-1.06-.09-.32-.2-.65-.4-.99-.59-.14-.25-.3-.54-.52-.87-.54-.77-1.36-1.58-2.1-1.91-.36-.12-.8-.17-1.26-.17-.54 0-1.12.07-1.62.18-.39.1-.72.21-.99.3-.38-.08-.75-.15-1.13-.22-.22-.19-.49-.42-.83-.63-.39-.27-.84-.54-1.29-.75-.46-.21-.93-.3-1.33-.31 0 .01 0 .01-.01.01z" opacity=".2"/></svg>