<svg xmlns="http://www.w3.org/2000/svg" xmlns:xlink="http://www.w3.org/1999/xlink" style="enable-background:new 0 0 128 128" viewBox="0 0 128 128" xml:space="preserve"><defs><path id="a" d="M104.3 33.7c3.3-.8 5.2 1.2 8.3 2.4.7.2 1.6 0 1.9-.7 2.6-5-5.3-20.9-5.3-20.9s-15.4 7.3-20.4 4.8c-.6-.3-.9-1.2-.7-1.9 1.1-3.1 2.6-4.5 1.9-7.7-.8-3.6-4.3-6.1-7.9-5.7-5.1.6-9.2 6-6.7 11 .7 1.3 1.8 2.4 3 3.3.8.6 2.7 1.5 1.9 2.8-2.8 4.8-19.4 5.2-19.4 5.2s-.2 16 4.1 19.7c.7.6 1.8.5 2.4-.3 1.8-2.1 3.2-3.5 5.7-4.3 3.9-1.3 8.2.5 9.6 4.4 1.5 4.2-1 8.6-5.2 9.6-3.3.8-5.2-1.2-8.3-2.4-.7-.2-1.6 0-1.9.7-2.5 5 5.3 20.9 5.3 20.9L121 62.8s.2-16.7-4.1-20.5c-.7-.6-1.9-.5-2.5.2-1.9 2.2-3.3 4.6-6.2 5.4-3.7 1.1-7.8-.9-9.1-4.5-1.5-4.2 1-8.6 5.2-9.7z"/></defs><clipPath id="b"><use style="overflow:visible" xlink:href="#a"/></clipPath><g style="clip-path:url(#b)"><radialGradient id="c" cx="133.139" cy="700.761" r="81.556" gradientTransform="matrix(.8574 0 0 1.2211 -48.425 -760.37)" gradientUnits="userSpaceOnUse"><stop offset="0" style="stop-color:#81d4fa"/><stop offset=".47" style="stop-color:#81d4fa"/><stop offset=".549" style="stop-color:#7bd2fa"/><stop offset=".65" style="stop-color:#6ccdf9"/><stop offset=".763" style="stop-color:#51c4f8"/><stop offset=".884" style="stop-color:#2db7f6"/><stop offset="1" style="stop-color:#03a9f4"/></radialGradient><path d="M5.1 1h118.3v124.6H5.1z" style="fill:url(#c)"/><linearGradient id="d" x1="-2202" x2="-2202" y1="732.996" y2="781.337" gradientTransform="matrix(-1 0 0 1 -2138 -713.89)" gradientUnits="userSpaceOnUse"><stop offset="0" style="stop-color:#90a4ae"/><stop offset=".339" style="stop-color:#849aa5"/><stop offset=".958" style="stop-color:#637f8d"/><stop offset="1" style="stop-color:#607d8b"/></linearGradient><path d="M25.5 42.3c1-1.1 2.4-1.7 3.8-1.9 1.9-.2 4 .1 5.9-1.5 2-1.6 12-20 16.6-19.9 1.2 0 2.2 1.1 3.1 2.4 1.6 2.4 2.9 5.7 4.5 5.7 3.4 0 3.4 10.2 7.6 11.4 3.8 1.1 5.1 1.1 8.7 6.3 4.1-4.9 7.6-8.7 9.7-9.6.3-.2.7-.3.9-.3 3 0 6.1 8 9.2 13s4.6 3.7 7.5 3.3c3.1-.3 21 27.8 21 27.8H4s13.9-28.9 21.5-36.7z" style="fill:url(#d)"/><linearGradient id="e" x1="-2202" x2="-2202" y1="732.996" y2="781.337" gradientTransform="matrix(-1 0 0 1 -2138 -713.89)" gradientUnits="userSpaceOnUse"><stop offset="0" style="stop-color:#90a4ae"/><stop offset=".339" style="stop-color:#849aa5"/><stop offset=".958" style="stop-color:#637f8d"/><stop offset="1" style="stop-color:#607d8b"/></linearGradient><path d="M25.5 42.3c1-1.1 2.4-1.7 3.8-1.9 1.9-.2 4 .1 5.9-1.5 2-1.6 12-20 16.6-19.9 1.2 0 2.2 1.1 3.1 2.4 1.6 2.4 2.9 5.7 4.5 5.7 3.4 0 3.4 10.2 7.6 11.4 3.8 1.1 5.1 1.1 8.7 6.3 4.1-4.9 7.6-8.7 9.7-9.6.3-.2.7-.3.9-.3 3 0 6.1 8 9.2 13s4.6 3.7 7.5 3.3c3.1-.3 21 27.8 21 27.8H4s13.9-28.9 21.5-36.7z" style="fill:url(#e)"/><radialGradient id="f" cx="48.812" cy="744.515" r="54.414" gradientTransform="translate(0 -713.89)" gradientUnits="userSpaceOnUse"><stop offset="0" style="stop-color:#4db6ac"/><stop offset=".254" style="stop-color:#4ab5aa"/><stop offset=".472" style="stop-color:#3fb0a5"/><stop offset=".676" style="stop-color:#2da99d"/><stop offset=".872" style="stop-color:#159f92"/><stop offset="1" style="stop-color:#009688"/></radialGradient><path d="M76.7 46.2c-4.3-6.7-5.5-6.5-9.7-7.7s-4.2-11.4-7.6-11.4c-1.6 0-2.9-3.3-4.5-5.7C54 20.1 53 19 51.8 19c-4.6-.1-14.6 18.3-16.6 19.9-1.9 1.5-4.1 1.2-5.9 1.5-1.5.2-2.8.9-3.8 1.9C17.9 50.1 4 79 4 79h94.8c-2.9-1.2-14.2-20.8-22.1-32.8z" style="opacity:.8;fill:url(#f);enable-background:new"/><radialGradient id="g" cx="85.75" cy="752.952" r="39.982" gradientTransform="translate(0 -713.89)" gradientUnits="userSpaceOnUse"><stop offset="0" style="stop-color:#66bb6a"/><stop offset=".603" style="stop-color:#52ac56"/><stop offset="1" style="stop-color:#43a047"/></radialGradient><path d="M103.1 51.3c-2.9.4-4.4 1.7-7.5-3.3s-6.2-13-9.2-13c-.3 0-.6.1-.9.3-6.9 3-29.2 35.8-33.8 43.7H124s-17.9-28.1-20.9-27.7z" style="fill:url(#g)"/><path d="M80.9 51.9c.1-.3-.3-.5-.5-.3-2.6 3.5-12.5 13.1-16.3 17.4-.4.4.1 1 .6.8 1.5-.7 4.6-2.4 4.9-3.1.4-.9 2.8-3.3 3.5-4 .2-.1.3-.3.5-.4l3-2.5c.6-.5 1.1-1.1 1.4-1.8l2.9-6.1zm3.6 7.5c.2-.2-.1-.5-.3-.4l-2.9 1.3c-.2.1-.4.3-.5.6l-3.6 7.4c-.1.3.3.5.5.2 0-.1 6.8-9.1 6.8-9.1zm16.9 6.3c.2.1.4-.1.2-.3-2-2.3-7.3-10.4-9.7-13.5-.2-.3-.7-.1-.6.3.3 1.1 1.1 3.5 1.5 3.8.6.4 1.9 2.3 2.3 3 .1.1.2.2.2.4l1.3 2.4c.3.5.6.9 1 1.2 0-.1 3.8 2.7 3.8 2.7zm-1-6.7c-.1-.2.1-.2.2-.1l3.2 2.4c.2.1.5.3.6.5l3.3 4.8-2.5-2.3c-.1-.1-.2-.1-.2 0l1.5 3.9c.1.2-.2.1-.7 0l-5.4-9.2z" style="opacity:.2;fill:#81c784;enable-background:new"/><linearGradient id="h" x1="65.006" x2="65.006" y1="774.89" y2="797.64" gradientTransform="translate(0 -713.89)" gradientUnits="userSpaceOnUse"><stop offset="0" style="stop-color:#43a047"/><stop offset=".603" style="stop-color:#378c3b"/><stop offset="1" style="stop-color:#2e7d32"/></linearGradient><path d="M90.7 79.1s-1.3-.9-2-2.1c.7.1 1.9.2 1.6-.5 0 0-1.5-1-2-2.4.2 0 .5 0 .7-.2 0 0 .3-.2-.5-1 0 0-.7-.6-1.8-3.3-.2-.5-.8-.5-1 0-.5 1.1-1.3 2.6-2.1 3.5 0 0-1.1 1.2.7.8-.3.4-1.5 1.9-2.2 2.3 0 0-.2.2-.1.4-.4-.4-.9-1-1.2-1.7.7.1 1.9.1 1.6-.5 0 0-1.2-.8-1.8-1.9.7.1 1.7.1 1.4-.5 0 0-1.3-.9-1.8-2.2.2 0 .4 0 .6-.1 0 0 .3-.2-.5-.9 0 0-.6-.5-1.7-3-.2-.4-.7-.4-.9 0-.4.9-1.2 2.3-1.9 3.2 0 0-.9 1.1.6.7-.3.4-1.3 1.7-2 2.1 0 0-.7.8 1.3.7-.5.6-1.2 1.4-1.8 1.7 0 0-.8.9 1.6.7-.3.4-.8 1-1.2 1.5v-.1s-1.2-.8-1.8-1.9c.7.1 1.7.1 1.4-.5 0 0-1.3-.9-1.8-2.2.2 0 .4 0 .6-.1 0 0 .3-.2-.5-.9 0 0-.6-.5-1.7-3-.2-.4-.7-.4-.9 0-.4.9-1.2 2.3-1.9 3.2 0 0-.9 1.1.6.7-.3.4-1.3 1.7-2 2.1 0 0-.7.8 1.3.7-.5.6-1.2 1.3-1.7 1.6-.2-.3-.3-.5-.4-.8.3 0 .5 0 .8-.2 0 0 .4-.2-.6-1.2 0 0-.8-.7-2.2-3.9-.2-.5-.9-.6-1.2 0-.6 1.2-1.5 3-2.4 4.1 0 0-1.2 1.5.8.9-.2.3-.8 1.1-1.4 1.8-.4-.4-.8-.9-1.1-1.5.6.1 1.5.1 1.2-.4 0 0-1-.6-1.5-1.5.5.1 1.4.1 1.1-.4 0 0-1-.7-1.4-1.7.2 0 .3 0 .5-.1 0 0 .2-.2-.4-.7 0 0-.5-.4-1.3-2.4-.1-.3-.6-.3-.7 0-.4.8-.9 1.9-1.5 2.5 0 0-.8.9.5.6-.2.3-1 1.4-1.6 1.7 0 0-.6.7 1.1.6-.4.5-1 1.1-1.4 1.3 0 0-.7.7 1.3.6-.4.6-1.3 1.6-1.8 1.9 0 0-.8.8 1.4.7-.5.6-1.3 1.5-1.8 1.7 0 0-.1.1-.1.2-.2-.2-.5-.6-.7-.9.5.1 1.4.1 1.1-.4 0 0-1-.7-1.4-1.7.2 0 .3 0 .5-.1 0 0 .2-.2-.4-.7 0 0-.5-.4-1.3-2.4-.1-.3-.6-.3-.7 0-.4.8-.9 1.9-1.5 2.5 0 0-.8.9.5.6-.2.3-1 1.4-1.6 1.7 0 0-.6.7 1.1.6-.1.2-.3.3-.5.5v-.1s-1-.6-1.5-1.5c.5.1 1.4.1 1.1-.4 0 0-1-.7-1.4-1.7.2 0 .3 0 .5-.1 0 0 .2-.2-.4-.7 0 0-.5-.4-1.3-2.4-.1-.3-.6-.3-.7 0-.4.8-.9 1.9-1.5 2.5 0 0-.8.9.5.6-.2.3-1 1.4-1.6 1.7 0 0-.6.7 1.1.6-.4.5-1 1.1-1.4 1.3 0 0-.7.7 1.3.6-.4.6-1.3 1.6-1.8 1.9 0 0-.8.8 1.4.7-.5.6-1.3 1.5-1.8 1.7 0 0-1 1 2.2.7 0 0 .2 1 2.2.1 0 0 .7.3 1.2.4-.2.2-.5.9 2.3.7 0 0 .2 1 2.2.1 0 0 1.8.9 2-.2 0 0 2.7.5 2.2-.4 0 0-1.2-.8-1.9-2 .7.1 1.8.1 1.5-.5 0 0-1.3-.9-1.8-2.1.6.1 1.5.1 1.2-.4 0 0-.1-.1-.2-.1.4.1.9.1 1.8 0 0 0 .2 1 2.2.1 0 0 .8.4 1.4.4 0 0-1.2 1.3 2.8.9 0 0 .2 1.3 2.8.2 0 0 .7.4 1.4.5-.2.2-.8 1.2 2.8.8 0 0 .2 1.3 2.8.2 0 0 2.2 1.2 2.5-.2 0 0 3.3.6 2.7-.6 0 0-.7-.4-1.4-1.2.4 0 .8 0 1.4-.1 0 0 .2 1.3 2.8.2 0 0 2.2 1.2 2.5-.2 0 0 3.3.6 2.7-.6 0 0-.6-.4-1.2-1 .4 0 .9 0 1.6-.1 0 0 .2 1.1 2.4.1 0 0 1.9 1 2.1-.2-.2-.1 2.6.4 2.1-.6zm-44.8 1.1-.3-.6c.3 0 .8.1 1 0-.2.3-.5.5-.7.6zm.9 1c-.2-.1-.3-.3-.5-.5h.9c-.1.2-.2.4-.4.5zm11.5-.9v-.1h.1l-.1.1zm14.8-.3s.1 0 0 0c.1 0 .1 0 0 0z" style="fill:url(#h)"/><linearGradient id="i" x1="37.067" x2="37.067" y1="774.89" y2="797.64" gradientTransform="translate(0 -713.89)" gradientUnits="userSpaceOnUse"><stop offset="0" style="stop-color:#43a047"/><stop offset=".603" style="stop-color:#378c3b"/><stop offset="1" style="stop-color:#2e7d32"/></linearGradient><path d="M40.1 80.5s-.9-.6-1.3-1.4c.5.1 1.2.1 1-.3 0 0-1-.7-1.3-1.6.2 0 .3 0 .4-.1 0 0 .2-.1-.3-.7 0 0-.5-.4-1.2-2.2-.1-.3-.5-.3-.7 0-.3.7-.8 1.7-1.4 2.3 0 0-.7.8.5.5-.2.3-1 1.3-1.4 1.5 0 0-.5.6 1 .5-.4.4-.9 1-1.3 1.2 0 0-.7.7 1.6.5 0 0 .1.7 1.6.1 0 0 1.3.7 1.4-.1-.1.1 1.7.5 1.4-.2z" style="fill:url(#i)"/><linearGradient id="j" x1="109.7" x2="109.7" y1="792.568" y2="792.804" gradientTransform="translate(0 -713.89)" gradientUnits="userSpaceOnUse"><stop offset="0" style="stop-color:#43a047"/><stop offset=".603" style="stop-color:#378c3b"/><stop offset="1" style="stop-color:#2e7d32"/></linearGradient><path d="M109.6 78.8h.2c0 .1-.1.1-.1.1l-.1-.1z" style="fill:url(#j)"/><radialGradient id="k" cx="63" cy="1360.89" r="78.387" gradientTransform="matrix(1 0 0 .8 0 -1008.912)" gradientUnits="userSpaceOnUse"><stop offset="0" style="stop-color:#8bc34a"/><stop offset=".247" style="stop-color:#84bc47"/><stop offset=".598" style="stop-color:#72aa3d"/><stop offset=".753" style="stop-color:#689f38"/><stop offset="1" style="stop-color:#689f38"/></radialGradient><path d="M4 79h120v48H4z" style="fill:url(#k)"/><linearGradient id="l" x1="42.266" x2="42.266" y1="790.64" y2="829.27" gradientTransform="translate(0 -713.89)" gradientUnits="userSpaceOnUse"><stop offset="0" style="stop-color:#039be5"/><stop offset=".401" style="stop-color:#039be5"/><stop offset=".649" style="stop-color:#0a87d8"/><stop offset="1" style="stop-color:#1565c0"/></linearGradient><path d="M58.4 108.5c14.3-6.7 23.6-13.2-9.2-20C23.5 83.2 22.5 79 22.5 79h-9.9c-.6 5.5 11.6 9.4 23.2 13.2C47.3 96 57.1 99 32.6 106c-17.9 5-26.1 12.4-24.2 21.1h68c-25.1-4.2-30.1-12.9-18-18.6z" style="fill:url(#l)"/><path d="M19.6 95.8h-1.2c-.6 0-1.2-.5-1.2-1.2v-5.8h3.5v5.8c.1.7-.4 1.2-1.1 1.2z" style="fill:#795548"/><radialGradient id="m" cx="12.625" cy="772.265" r="34.23" gradientTransform="translate(0 -713.89)" gradientUnits="userSpaceOnUse"><stop offset="0" style="stop-color:#43a047"/><stop offset=".603" style="stop-color:#378c3b"/><stop offset="1" style="stop-color:#2e7d32"/></radialGradient><path d="M30 88.7s-3.1-2-4.8-5c1.7.2 4.4.3 3.7-1.3 0 0-3.4-2.4-4.7-5.6.5.1 1.1 0 1.6-.3 0 0 .7-.5-1.2-2.3 0 0-1.7-1.4-4.3-7.8-.4-1.1-1.9-1.1-2.4-.1-1.2 2.5-3 6.1-4.9 8.3 0 0-2.5 2.9 1.6 1.9-.7 1-3.4 4.5-5.1 5.5 0 0-1.9 2.1 3.5 1.8-1.3 1.5-3.2 3.7-4.6 4.4 0 0-2.5 2.6 5.6 1.8 0 0 .4 2.6 5.6.3 0 0 4.5 2.4 5-.4-.1-.1 6.6 1.2 5.4-1.2z" style="fill:url(#m)"/></g><defs><path id="n" d="M70.2 94.9c-3.2-1-4.8-.1-7.9.9-.8.2-1.8-.2-2-1-1.9-5.3 6.4-19.4 6.4-19.4s-17.4-1.5-20-6.4c-.3-.5-.1-1.3.4-1.7 2.2-1.7 4.6-2.9 5.7-5.7.9-2.6.6-5.7-1.4-7.6-2.9-2.9-7.8-3.1-10.7-.1s-2.3 6.7-1.2 10.3c.2.6-.1 1.4-.7 1.7-5 2.4-19.4-5.6-19.4-5.6s-7.8 14.9-5.9 20.2c.3.7 1.1 1.2 1.9 1 3.6-1 4.5-3.2 8.7-1.2 2 .9 3.5 2.8 3.8 5 .9 6.1-4.5 10.1-9.5 8.5-3.3-1-3.3-3.7-5.4-6.3-.4-.5-1.2-.7-1.7-.4-4.8 2.7-7 20.5-7 20.5l47.3 15.1s1.5-16.6 6.4-19.3c.5-.3 1.3-.1 1.7.4 2.1 2.7 2.8 4 6.1 5 2.6.8 6.2-.1 7.8-2.2 3.5-4.3 1.4-10.2-3.4-11.7z"/></defs><clipPath id="o"><use style="overflow:visible" xlink:href="#n"/></clipPath><g style="clip-path:url(#o)"><radialGradient id="p" cx="133.139" cy="700.761" r="81.556" gradientTransform="matrix(.8574 0 0 1.2211 -48.425 -760.37)" gradientUnits="userSpaceOnUse"><stop offset="0" style="stop-color:#81d4fa"/><stop offset=".47" style="stop-color:#81d4fa"/><stop offset=".549" style="stop-color:#7bd2fa"/><stop offset=".65" style="stop-color:#6ccdf9"/><stop offset=".763" style="stop-color:#51c4f8"/><stop offset=".884" style="stop-color:#2db7f6"/><stop offset="1" style="stop-color:#03a9f4"/></radialGradient><path d="M5.1 1h118.3v124.6H5.1z" style="fill:url(#p)"/><linearGradient id="q" x1="-2202" x2="-2202" y1="732.996" y2="781.337" gradientTransform="matrix(-1 0 0 1 -2138 -713.89)" gradientUnits="userSpaceOnUse"><stop offset="0" style="stop-color:#90a4ae"/><stop offset=".339" style="stop-color:#849aa5"/><stop offset=".958" style="stop-color:#637f8d"/><stop offset="1" style="stop-color:#607d8b"/></linearGradient><path d="M25.5 42.3c1-1.1 2.4-1.7 3.8-1.9 1.9-.2 4 .1 5.9-1.5 2-1.6 12-20 16.6-19.9 1.2 0 2.2 1.1 3.1 2.4 1.6 2.4 2.9 5.7 4.5 5.7 3.4 0 3.4 10.2 7.6 11.4 3.8 1.1 5.1 1.1 8.7 6.3 4.1-4.9 7.6-8.7 9.7-9.6.3-.2.7-.3.9-.3 3 0 6.1 8 9.2 13s4.6 3.7 7.5 3.3c3.1-.3 21 27.8 21 27.8H4s13.9-28.9 21.5-36.7z" style="fill:url(#q)"/><linearGradient id="r" x1="-2202" x2="-2202" y1="732.996" y2="781.337" gradientTransform="matrix(-1 0 0 1 -2138 -713.89)" gradientUnits="userSpaceOnUse"><stop offset="0" style="stop-color:#90a4ae"/><stop offset=".339" style="stop-color:#849aa5"/><stop offset=".958" style="stop-color:#637f8d"/><stop offset="1" style="stop-color:#607d8b"/></linearGradient><path d="M25.5 42.3c1-1.1 2.4-1.7 3.8-1.9 1.9-.2 4 .1 5.9-1.5 2-1.6 12-20 16.6-19.9 1.2 0 2.2 1.1 3.1 2.4 1.6 2.4 2.9 5.7 4.5 5.7 3.4 0 3.4 10.2 7.6 11.4 3.8 1.1 5.1 1.1 8.7 6.3 4.1-4.9 7.6-8.7 9.7-9.6.3-.2.7-.3.9-.3 3 0 6.1 8 9.2 13s4.6 3.7 7.5 3.3c3.1-.3 21 27.8 21 27.8H4s13.9-28.9 21.5-36.7z" style="fill:url(#r)"/><radialGradient id="s" cx="48.812" cy="744.515" r="54.414" gradientTransform="translate(0 -713.89)" gradientUnits="userSpaceOnUse"><stop offset="0" style="stop-color:#4db6ac"/><stop offset=".254" style="stop-color:#4ab5aa"/><stop offset=".472" style="stop-color:#3fb0a5"/><stop offset=".676" style="stop-color:#2da99d"/><stop offset=".872" style="stop-color:#159f92"/><stop offset="1" style="stop-color:#009688"/></radialGradient><path d="M76.7 46.2c-4.3-6.7-5.5-6.5-9.7-7.7s-4.2-11.4-7.6-11.4c-1.6 0-2.9-3.3-4.5-5.7C54 20.1 53 19 51.8 19c-4.6-.1-14.6 18.3-16.6 19.9-1.9 1.5-4.1 1.2-5.9 1.5-1.5.2-2.8.9-3.8 1.9C20.5 47.4 12.7 61.8 8 71c-2.4 4.7-4 8-4 8h94.8c-2.9-1.2-14.2-20.8-22.1-32.8z" style="opacity:.8;fill:url(#s);enable-background:new"/><radialGradient id="t" cx="85.75" cy="752.952" r="39.982" gradientTransform="translate(0 -713.89)" gradientUnits="userSpaceOnUse"><stop offset="0" style="stop-color:#66bb6a"/><stop offset=".603" style="stop-color:#52ac56"/><stop offset="1" style="stop-color:#43a047"/></radialGradient><path d="M103.1 51.3c-2.9.4-4.4 1.7-7.5-3.3s-6.2-13-9.2-13c-.3 0-.6.1-.9.3-6.9 3-29.2 35.8-33.8 43.7H124s-17.9-28.1-20.9-27.7z" style="fill:url(#t)"/><path d="M80.9 51.9c.1-.3-.3-.5-.5-.3-2.6 3.5-12.5 13.1-16.3 17.4-.4.4.1 1 .6.8 1.5-.7 4.6-2.4 4.9-3.1.4-.9 2.8-3.3 3.5-4 .2-.1.3-.3.5-.4l3-2.5c.6-.5 1.1-1.1 1.4-1.8l2.9-6.1zm3.6 7.5c.2-.2-.1-.5-.3-.4l-2.9 1.3c-.2.1-.4.3-.5.6l-3.6 7.4c-.1.3.3.5.5.2 0-.1 6.8-9.1 6.8-9.1zm16.9 6.3c.2.1.4-.1.2-.3-2-2.3-7.3-10.4-9.7-13.5-.2-.3-.7-.1-.6.3.3 1.1 1.1 3.5 1.5 3.8.6.4 1.9 2.3 2.3 3 .1.1.2.2.2.4l1.3 2.4c.3.5.6.9 1 1.2 0-.1 3.8 2.7 3.8 2.7zm-1-6.7c-.1-.2.1-.2.2-.1l3.2 2.4c.2.1.5.3.6.5l3.3 4.8-2.5-2.3c-.1-.1-.2-.1-.2 0l1.5 3.9c.1.2-.2.1-.7 0l-5.4-9.2z" style="opacity:.2;fill:#81c784;enable-background:new"/><linearGradient id="u" x1="65.006" x2="65.006" y1="774.89" y2="797.64" gradientTransform="translate(0 -713.89)" gradientUnits="userSpaceOnUse"><stop offset="0" style="stop-color:#43a047"/><stop offset=".603" style="stop-color:#378c3b"/><stop offset="1" style="stop-color:#2e7d32"/></linearGradient><path d="M90.7 79.1s-1.3-.9-2-2.1c.7.1 1.9.2 1.6-.5 0 0-1.5-1-2-2.4.2 0 .5 0 .7-.2 0 0 .3-.2-.5-1 0 0-.7-.6-1.8-3.3-.2-.5-.8-.5-1 0-.5 1.1-1.3 2.6-2.1 3.5 0 0-1.1 1.2.7.8-.3.4-1.5 1.9-2.2 2.3 0 0-.2.2-.1.4-.4-.4-.9-1-1.2-1.7.7.1 1.9.1 1.6-.5 0 0-1.2-.8-1.8-1.9.7.1 1.7.1 1.4-.5 0 0-1.3-.9-1.8-2.2.2 0 .4 0 .6-.1 0 0 .3-.2-.5-.9 0 0-.6-.5-1.7-3-.2-.4-.7-.4-.9 0-.4.9-1.2 2.3-1.9 3.2 0 0-.9 1.1.6.7-.3.4-1.3 1.7-2 2.1 0 0-.7.8 1.3.7-.5.6-1.2 1.4-1.8 1.7 0 0-.8.9 1.6.7-.3.4-.8 1-1.2 1.5v-.1s-1.2-.8-1.8-1.9c.7.1 1.7.1 1.4-.5 0 0-1.3-.9-1.8-2.2.2 0 .4 0 .6-.1 0 0 .3-.2-.5-.9 0 0-.6-.5-1.7-3-.2-.4-.7-.4-.9 0-.4.9-1.2 2.3-1.9 3.2 0 0-.9 1.1.6.7-.3.4-1.3 1.7-2 2.1 0 0-.7.8 1.3.7-.5.6-1.2 1.3-1.7 1.6-.2-.3-.3-.5-.4-.8.3 0 .5 0 .8-.2 0 0 .4-.2-.6-1.2 0 0-.8-.7-2.2-3.9-.2-.5-.9-.6-1.2 0-.6 1.2-1.5 3-2.4 4.1 0 0-1.2 1.5.8.9-.2.3-.8 1.1-1.4 1.8-.4-.4-.8-.9-1.1-1.5.6.1 1.5.1 1.2-.4 0 0-1-.6-1.5-1.5.5.1 1.4.1 1.1-.4 0 0-1-.7-1.4-1.7.2 0 .3 0 .5-.1 0 0 .2-.2-.4-.7 0 0-.5-.4-1.3-2.4-.1-.3-.6-.3-.7 0-.4.8-.9 1.9-1.5 2.5 0 0-.8.9.5.6-.2.3-1 1.4-1.6 1.7 0 0-.6.7 1.1.6-.4.5-1 1.1-1.4 1.3 0 0-.7.7 1.3.6-.4.6-1.3 1.6-1.8 1.9 0 0-.8.8 1.4.7-.5.6-1.3 1.5-1.8 1.7 0 0-.1.1-.1.2-.2-.2-.5-.6-.7-.9.5.1 1.4.1 1.1-.4 0 0-1-.7-1.4-1.7.2 0 .3 0 .5-.1 0 0 .2-.2-.4-.7 0 0-.5-.4-1.3-2.4-.1-.3-.6-.3-.7 0-.4.8-.9 1.9-1.5 2.5 0 0-.8.9.5.6-.2.3-1 1.4-1.6 1.7 0 0-.6.7 1.1.6-.1.2-.3.3-.5.5v-.1s-1-.6-1.5-1.5c.5.1 1.4.1 1.1-.4 0 0-1-.7-1.4-1.7.2 0 .3 0 .5-.1 0 0 .2-.2-.4-.7 0 0-.5-.4-1.3-2.4-.1-.3-.6-.3-.7 0-.4.8-.9 1.9-1.5 2.5 0 0-.8.9.5.6-.2.3-1 1.4-1.6 1.7 0 0-.6.7 1.1.6-.4.5-1 1.1-1.4 1.3 0 0-.7.7 1.3.6-.4.6-1.3 1.6-1.8 1.9 0 0-.8.8 1.4.7-.5.6-1.3 1.5-1.8 1.7 0 0-1 1 2.2.7 0 0 .2 1 2.2.1 0 0 .7.3 1.2.4-.2.2-.5.9 2.3.7 0 0 .2 1 2.2.1 0 0 1.8.9 2-.2 0 0 2.7.5 2.2-.4 0 0-1.2-.8-1.9-2 .7.1 1.8.1 1.5-.5 0 0-1.3-.9-1.8-2.1.6.1 1.5.1 1.2-.4 0 0-.1-.1-.2-.1.4.1.9.1 1.8 0 0 0 .2 1 2.2.1 0 0 .8.4 1.4.4 0 0-1.2 1.3 2.8.9 0 0 .2 1.3 2.8.2 0 0 .7.4 1.4.5-.2.2-.8 1.2 2.8.8 0 0 .2 1.3 2.8.2 0 0 2.2 1.2 2.5-.2 0 0 3.3.6 2.7-.6 0 0-.7-.4-1.4-1.2.4 0 .8 0 1.4-.1 0 0 .2 1.3 2.8.2 0 0 2.2 1.2 2.5-.2 0 0 3.3.6 2.7-.6 0 0-.6-.4-1.2-1 .4 0 .9 0 1.6-.1 0 0 .2 1.1 2.4.1 0 0 1.9 1 2.1-.2-.2-.1 2.6.4 2.1-.6zm-44.8 1.1-.3-.6c.3 0 .8.1 1 0-.2.3-.5.5-.7.6zm.9 1c-.2-.1-.3-.3-.5-.5h.9c-.1.2-.2.4-.4.5zm11.5-.9v-.1h.1l-.1.1zm14.8-.3s.1 0 0 0c.1 0 .1 0 0 0z" style="fill:url(#u)"/><linearGradient id="v" x1="37.067" x2="37.067" y1="774.89" y2="797.64" gradientTransform="translate(0 -713.89)" gradientUnits="userSpaceOnUse"><stop offset="0" style="stop-color:#43a047"/><stop offset=".603" style="stop-color:#378c3b"/><stop offset="1" style="stop-color:#2e7d32"/></linearGradient><path d="M40.1 80.5s-.9-.6-1.3-1.4c.5.1 1.2.1 1-.3 0 0-1-.7-1.3-1.6.2 0 .3 0 .4-.1 0 0 .2-.1-.3-.7 0 0-.5-.4-1.2-2.2-.1-.3-.5-.3-.7 0-.3.7-.8 1.7-1.4 2.3 0 0-.7.8.5.5-.2.3-1 1.3-1.4 1.5 0 0-.5.6 1 .5-.4.4-.9 1-1.3 1.2 0 0-.7.7 1.6.5 0 0 .1.7 1.6.1 0 0 1.3.7 1.4-.1-.1.1 1.7.5 1.4-.2z" style="fill:url(#v)"/><linearGradient id="w" x1="109.7" x2="109.7" y1="792.568" y2="792.804" gradientTransform="translate(0 -713.89)" gradientUnits="userSpaceOnUse"><stop offset="0" style="stop-color:#43a047"/><stop offset=".603" style="stop-color:#378c3b"/><stop offset="1" style="stop-color:#2e7d32"/></linearGradient><path d="M109.6 78.8h.2c0 .1-.1.1-.1.1l-.1-.1z" style="fill:url(#w)"/><radialGradient id="x" cx="63" cy="1360.89" r="78.387" gradientTransform="matrix(1 0 0 .8 0 -1008.912)" gradientUnits="userSpaceOnUse"><stop offset="0" style="stop-color:#8bc34a"/><stop offset=".247" style="stop-color:#84bc47"/><stop offset=".598" style="stop-color:#72aa3d"/><stop offset=".753" style="stop-color:#689f38"/><stop offset="1" style="stop-color:#689f38"/></radialGradient><path d="M4 79h120v48H4z" style="fill:url(#x)"/><linearGradient id="y" x1="42.266" x2="42.266" y1="790.64" y2="829.27" gradientTransform="translate(0 -713.89)" gradientUnits="userSpaceOnUse"><stop offset="0" style="stop-color:#039be5"/><stop offset=".401" style="stop-color:#039be5"/><stop offset=".649" style="stop-color:#0a87d8"/><stop offset="1" style="stop-color:#1565c0"/></linearGradient><path d="M58.4 108.5c14.3-6.7 23.6-13.2-9.2-20C23.5 83.2 22.5 79 22.5 79h-9.9c-.6 5.5 11.6 9.4 23.2 13.2C47.3 96 57.1 99 32.6 106c-17.9 5-26.1 12.4-24.2 21.1h68c-25.1-4.2-30.1-12.9-18-18.6z" style="fill:url(#y)"/><path d="M19.6 95.8h-1.2c-.6 0-1.2-.5-1.2-1.2v-5.8h3.5v5.8c.1.7-.4 1.2-1.1 1.2z" style="fill:#795548"/><radialGradient id="z" cx="12.625" cy="772.265" r="34.23" gradientTransform="translate(0 -713.89)" gradientUnits="userSpaceOnUse"><stop offset="0" style="stop-color:#43a047"/><stop offset=".603" style="stop-color:#378c3b"/><stop offset="1" style="stop-color:#2e7d32"/></radialGradient><path d="M30 88.7s-3.1-2-4.8-5c1.7.2 4.4.3 3.7-1.3 0 0-3.4-2.4-4.7-5.6.5.1 1.1 0 1.6-.3 0 0 .7-.5-1.2-2.3 0 0-1.7-1.4-4.3-7.8-.4-1.1-1.9-1.1-2.4-.1-1.2 2.5-3 6.1-4.9 8.3 0 0-2.5 2.9 1.6 1.9-.7 1-3.4 4.5-5.1 5.5 0 0-1.9 2.1 3.5 1.8-1.3 1.5-3.2 3.7-4.6 4.4 0 0-2.5 2.6 5.6 1.8 0 0 .4 2.6 5.6.3 0 0 4.5 2.4 5-.4-.1-.1 6.6 1.2 5.4-1.2z" style="fill:url(#z)"/></g><g style="opacity:.2"><path d="M82.8 6.1c2.4 0 4.6 1.8 5.2 4.1.4 1.6 0 2.5-.8 4.1-.3.7-.7 1.5-1.1 2.5-.6 1.6.2 3.6 1.7 4.3 1 .5 2.2.7 3.7.7 5.2 0 13.1-3.2 16.7-4.7 2.7 5.8 5.5 13.9 4.7 16.9-.6-.3-1.3-.6-1.9-.9-1.6-.8-3.2-1.6-5.3-1.6-.6 0-1.3.1-1.9.2-2.6.6-4.8 2.3-6 4.7s-1.4 5.1-.6 7.6c1.3 3.7 4.9 6.2 8.9 6.2.9 0 1.8-.1 2.7-.4 2.9-.9 4.5-2.9 6.1-4.8.3-.4.6-.7.9-1.1 2.1 2.4 3.1 11 3.2 17.3L73.8 72.3c-2.7-5.8-5.6-14.1-4.8-17.2.6.3 1.3.6 1.9.9 1.6.8 3.2 1.6 5.3 1.6.6 0 1.3-.1 1.9-.2 2.6-.6 4.7-2.3 6-4.6 1.2-2.3 1.5-5.1.6-7.6-1.3-3.7-4.8-6.1-9-6.1-1.1 0-2.1.2-3.1.5-3 1-4.6 2.6-6.5 4.7-2.1-2.3-3-10-3.2-15.9C68 28.1 79.3 27 82 22.3c1.1-1.8.4-3.5-2-5.1-.2-.1-.3-.2-.4-.3-.8-.6-1.9-1.5-2.4-2.6-1-2-.4-3.8.1-4.7 1-1.8 2.9-3.2 5-3.4.2-.1.4-.1.5-.1m0-2H82c-5.1.6-9.2 6-6.7 11 .7 1.3 1.8 2.4 3 3.3.8.6 2.7 1.5 1.9 2.8-2.8 4.8-19.4 5.2-19.4 5.2S60.7 42.2 65 46c.3.3.7.4 1.1.4.5 0 1.1-.2 1.4-.6 1.8-2.1 3.2-3.5 5.7-4.3.8-.3 1.7-.4 2.5-.4 3.1 0 6 1.8 7.1 4.8 1.5 4.2-1 8.6-5.2 9.6-.5.1-1 .2-1.5.2-2.5 0-4.3-1.6-6.8-2.5-.2-.2-.4-.2-.5-.2-.6 0-1.1.3-1.4.8-2.5 5 5.3 20.9 5.3 20.9L121 62.8s.2-16.7-4.1-20.5c-.3-.3-.7-.4-1.1-.4-.5 0-1.1.2-1.4.6-1.9 2.2-3.3 4.6-6.2 5.4-.7.2-1.4.3-2.1.3-3 0-5.9-1.9-7-4.8-1.5-4.2 1-8.6 5.2-9.6.5-.1 1-.2 1.5-.2 2.5 0 4.3 1.6 6.8 2.5.2.1.3.1.5.1.6 0 1.1-.3 1.4-.8 2.5-5-5.3-20.9-5.3-20.9S98 19.9 91.6 19.9c-1.1 0-2.1-.2-2.8-.5-.6-.3-.9-1.2-.7-1.9 1.1-3.1 2.6-4.5 1.9-7.7-.8-3.3-3.8-5.7-7.2-5.7z" style="fill:#424242"/></g><g style="opacity:.2"><path d="M45.8 53.8c1.5 0 3 .6 4.1 1.7 1.5 1.5 1.5 3.8.9 5.5s-1.9 2.6-3.5 3.7c-.5.3-1 .7-1.5 1.1-1.3 1-1.7 2.8-.9 4.2 2.4 4.5 12.9 6.4 18.6 7.1-2.5 4.7-6.7 13.7-5 18.4.5 1.4 1.9 2.4 3.4 2.4.4 0 .7-.1 1.1-.2.5-.2 1-.3 1.4-.4 1.3-.4 2.3-.8 3.3-.8.6 0 1.2.1 2 .3 1.7.5 3 1.9 3.5 3.6s.1 3.6-1.1 5.1c-.8 1.1-2.5 1.8-4.2 1.8-.5 0-1-.1-1.4-.2-2.3-.8-2.9-1.5-4.4-3.5-.2-.3-.5-.6-.7-.9-.6-.8-1.6-1.3-2.7-1.3-.5 0-1.1.1-1.5.4-4.6 2.5-6.5 13.1-7.1 18.4L6.5 106.3c1-7.2 3.2-15 5.3-17.1.4.6.8 1.2 1.1 1.9.9 1.7 2 3.7 4.9 4.6.9.3 1.9.4 2.8.4 2.7 0 5.3-1.2 7.1-3.3 1.8-2.1 2.6-4.9 2.2-7.9-.4-2.8-2.3-5.3-5-6.5-1.4-.6-2.6-1-3.8-1-1.6 0-2.8.6-3.9 1.1-.6.3-1.2.6-1.9.8-.6-3.1 2.2-10.8 4.9-16.4 3.5 1.8 11.1 5.3 16.1 5.3 1.2 0 2.3-.2 3.2-.6 1.5-.7 2.3-2.5 1.8-4.1-1.1-3.6-1.4-6.2.7-8.3 1-.9 2.3-1.4 3.8-1.4m0-2c-1.9 0-3.8.7-5.2 2.2-2.9 3-2.3 6.7-1.2 10.3.2.6-.1 1.4-.7 1.7-.7.3-1.5.4-2.4.4-6.1 0-17-6-17-6s-7.8 14.9-5.9 20.2c.2.6.9 1 1.5 1 .1 0 .3 0 .4-.1 2.6-.7 3.8-2 5.8-2 .8 0 1.7.2 2.9.8 2 .9 3.5 2.8 3.8 5 .8 5.2-3 8.9-7.3 8.9-.7 0-1.5-.1-2.2-.3-3.3-1-3.3-3.7-5.4-6.3-.3-.3-.7-.5-1.1-.5-.2 0-.4.1-.6.2-4.8 2.7-7 20.5-7 20.5l47.3 15.1s1.5-16.6 6.4-19.3c.2-.1.4-.1.6-.1.4 0 .8.2 1.1.5 2.1 2.7 2.8 4 6.1 5 .7.2 1.3.3 2.1.3 2.2 0 4.5-.9 5.8-2.5 3.5-4.4 1.4-10.3-3.4-11.8-1-.3-1.8-.4-2.6-.4-1.7 0-3.2.7-5.3 1.3-.2.1-.3.1-.5.1-.7 0-1.3-.4-1.6-1.1-1.9-5.3 6.3-19.4 6.3-19.4s-17.4-1.5-20-6.4c-.3-.5-.1-1.3.4-1.7 2.2-1.7 4.6-2.9 5.7-5.7.9-2.6.6-5.7-1.4-7.6-1.4-1.5-3.4-2.3-5.4-2.3z" style="fill:#424242"/></g></svg>