<svg xmlns="http://www.w3.org/2000/svg" style="enable-background:new 0 0 128 128" viewBox="0 0 128 128" xml:space="preserve"><linearGradient id="a" x1="-568.62" x2="-568.62" y1="150.53" y2="176.733" gradientTransform="matrix(0 -1 -1.0457 0 281.41 -459.07)" gradientUnits="userSpaceOnUse"><stop offset="0" style="stop-color:#eee"/><stop offset=".32" style="stop-color:#e2e2e2"/><stop offset=".89" style="stop-color:#c4c4c4"/><stop offset="1" style="stop-color:#bdbdbd"/></linearGradient><path d="M96.6 94H124v31.1H96.6z" style="fill:url(#a)"/><linearGradient id="b" x1="-523.07" x2="-523.07" y1="151.055" y2="265.252" gradientTransform="matrix(0 -1 -1.0457 0 281.41 -459.07)" gradientUnits="userSpaceOnUse"><stop offset="0" style="stop-color:#ff5269"/><stop offset="1" style="stop-color:#c00"/></linearGradient><path d="M67.8 125.1h29.5V94H67.8c-17.3 0-31.2-13.8-31.2-30.2S50.4 34 67.8 34h29.5V2.9H67.8C32.6 2.9 4 30.4 4 64s28.6 61.1 63.8 61.1z" style="fill:url(#b)"/><linearGradient id="c" x1="-477.62" x2="-477.62" y1="150.53" y2="176.733" gradientTransform="matrix(0 -1 -1.0457 0 281.41 -459.07)" gradientUnits="userSpaceOnUse"><stop offset="0" style="stop-color:#eee"/><stop offset=".32" style="stop-color:#e2e2e2"/><stop offset=".89" style="stop-color:#c4c4c4"/><stop offset="1" style="stop-color:#bdbdbd"/></linearGradient><path d="M96.6 3H124v31.1H96.6z" style="fill:url(#c)"/><g style="opacity:.2"><path d="M96 7.3c.4.1.8.2 1.2.2h22.4v22.3H97.8c-.4-.1-.8-.2-1.2-.2H67.8c-19.6 0-35.6 15.3-35.6 34.2 0 19.1 16 34.6 35.6 34.6h51.9v22.3H67.8C35 120.7 8.4 95.3 8.4 64S35 7.3 67.8 7.3H96m1.2-4.4H67.8C32.6 2.9 4 30.4 4 64s28.6 61.1 63.8 61.1H124V94H67.8c-17.3 0-31.2-13.8-31.2-30.2C36.6 47.5 50.4 34 67.8 34h28.8v.2H124V3H97.2v-.1z" style="fill:#424242"/></g></svg>