<svg xmlns="http://www.w3.org/2000/svg" style="enable-background:new 0 0 128 128" viewBox="0 0 128 128" xml:space="preserve"><circle cx="45.62" cy="119.26" r="4.74" style="fill:#553a30"/><circle cx="45.62" cy="119.26" r="2.55" style="fill:#bdbdbd"/><circle cx="84.26" cy="119.26" r="4.74" style="fill:#553a30"/><circle cx="84.26" cy="119.26" r="2.55" style="fill:#bdbdbd"/><linearGradient id="a" x1="54.085" x2="54.085" y1="92" y2="121.513" gradientTransform="matrix(1 0 0 -1 0 128)" gradientUnits="userSpaceOnUse"><stop offset="0" style="stop-color:#e0e0e0"/><stop offset=".999" style="stop-color:#757575"/></linearGradient><path d="M52.51 9.93h3.15v26.45h-3.15z" style="fill:url(#a)"/><linearGradient id="b" x1="73.625" x2="73.625" y1="92" y2="121.513" gradientTransform="matrix(1 0 0 -1 0 128)" gradientUnits="userSpaceOnUse"><stop offset="0" style="stop-color:#e0e0e0"/><stop offset=".999" style="stop-color:#757575"/></linearGradient><path d="M72.05 9.93h3.15v26.45h-3.15z" style="fill:url(#b)"/><linearGradient id="c" x1="63.87" x2="63.87" y1="122.75" y2="114.492" gradientTransform="matrix(1 0 0 -1 0 128)" gradientUnits="userSpaceOnUse"><stop offset="0" style="stop-color:#5b7782"/><stop offset=".98" style="stop-color:#455a64"/></linearGradient><path d="M51.41 8.46v5.69h5.38V9.16h14.03v4.33h5.51V8.46c0-1-.62-1.9-1.56-2.23-1.75-.61-5.12-1.39-10.89-1.39s-9.15.79-10.89 1.39c-.96.33-1.58 1.23-1.58 2.23z" style="fill:url(#c)"/><linearGradient id="d" x1="64.005" x2="64.005" y1="102.204" y2="7.94" gradientTransform="matrix(1 0 0 -1 0 128)" gradientUnits="userSpaceOnUse"><stop offset="0" style="stop-color:#90a4ae"/><stop offset=".237" style="stop-color:#889da7"/><stop offset=".602" style="stop-color:#738a95"/><stop offset="1" style="stop-color:#546e7a"/></linearGradient><path d="M88.75 119.02h-49.5c-4.06 0-7.37-3.32-7.37-7.37v-79c0-4.06 3.32-7.37 7.37-7.37h49.51c4.06 0 7.37 3.32 7.37 7.37v79c0 4.05-3.32 7.37-7.38 7.37z" style="fill:url(#d)"/><path d="M45.86 105.99h-.08c-1.35 0-2.46-1.11-2.46-2.46V40.76c0-1.35 1.11-2.46 2.46-2.46h.08c1.35 0 2.46 1.11 2.46 2.46v62.77c0 1.35-1.1 2.46-2.46 2.46zm12.21 0h-.08c-1.35 0-2.46-1.11-2.46-2.46V40.76c0-1.35 1.11-2.46 2.46-2.46h.08c1.35 0 2.46 1.11 2.46 2.46v62.77c-.01 1.35-1.11 2.46-2.46 2.46zm12.2 0h-.08c-1.35 0-2.46-1.11-2.46-2.46V40.76c0-1.35 1.11-2.46 2.46-2.46h.08c1.35 0 2.46 1.11 2.46 2.46v62.77c0 1.35-1.11 2.46-2.46 2.46zm12.2 0h-.08c-1.35 0-2.46-1.11-2.46-2.46V40.76c0-1.35 1.11-2.46 2.46-2.46h.08c1.35 0 2.46 1.11 2.46 2.46v62.77c0 1.35-1.11 2.46-2.46 2.46z" style="opacity:.7;fill:#b0bec5;enable-background:new"/><path d="M43.32 25.24c-.76 5.34-5.39 9.48-10.94 9.48h-.5v-2.11c0-4.06 3.32-7.37 7.37-7.37h4.07zm52.81 7.37v2.11h-.16c-5.54 0-10.17-4.14-10.93-9.48h3.72c4.06 0 7.37 3.32 7.37 7.37z" style="fill:#455a64"/><path d="M43.2 118.98h-3.95c-4.06 0-7.37-3.32-7.37-7.37v-1.48h.51c5.32 0 9.79 3.82 10.81 8.85zm52.93-8.85v1.48c0 4.05-3.32 7.37-7.38 7.37h-3.59c1.02-5.03 5.49-8.85 10.81-8.85h.16z" style="fill:#37474f"/><circle cx="81.06" cy="46.9" r="6.44" style="fill:#dcedc8"/><path d="M81.06 41.46c3 0 5.44 2.44 5.44 5.44s-2.44 5.44-5.44 5.44-5.44-2.44-5.44-5.44 2.44-5.44 5.44-5.44m0-2c-4.11 0-7.44 3.33-7.44 7.44s3.33 7.44 7.44 7.44 7.44-3.33 7.44-7.44-3.33-7.44-7.44-7.44z" style="fill:#2ca94f"/><path d="M47.37 81.46c-1 0-1.79-.28-2.34-.83-1.86-1.86-.51-6.36 2.95-9.82 2.33-2.33 5.19-3.78 7.48-3.78 1 0 1.79.28 2.34.83 1.86 1.86.51 6.36-2.95 9.82-2.33 2.33-5.2 3.78-7.48 3.78z" style="fill:#bbdefb"/><path d="M55.46 68.08c.72 0 1.26.18 1.61.52.56.56.68 1.67.32 3.04-.46 1.75-1.65 3.69-3.27 5.31-2.11 2.11-4.76 3.47-6.74 3.47-.72 0-1.26-.18-1.61-.52-1.27-1.27-.28-5.12 2.95-8.35 2.1-2.11 4.75-3.47 6.74-3.47m0-2.07c-2.47 0-5.59 1.46-8.21 4.08-3.93 3.93-5.25 8.98-2.95 11.28.77.77 1.84 1.13 3.07 1.13 2.47 0 5.59-1.46 8.21-4.08 3.93-3.93 5.25-8.98 2.95-11.28-.77-.77-1.84-1.13-3.07-1.13z" style="fill:#4480f7"/><path d="M44.18 37.12h18.36v8.67H44.18z" style="fill:#fafafa" transform="rotate(-13.784 53.36 41.456)"/><path d="m60.51 36.27 1.59 6.47-15.89 3.9-1.59-6.47 15.89-3.9m1.47-2.42L42.2 38.7l2.54 10.36 19.77-4.85-2.53-10.36z" style="fill:#ec4431"/><path d="M68.6 59.98c-.08 0-.15-.01-.23-.03l-12.52-2.97a.995.995 0 0 1-.74-1.2l1.5-6.32c.11-.45.52-.77.98-.77.08 0 .15.01.23.03l12.52 2.97a.996.996 0 0 1 .74 1.2l-1.5 6.32c-.11.45-.52.77-.98.77z" style="fill:#fff9c4"/><path d="m57.59 49.69 12.51 2.97-1.5 6.32-12.52-2.97 1.51-6.32m-.01-2.01c-.9 0-1.73.62-1.95 1.54l-1.5 6.32c-.25 1.07.41 2.15 1.48 2.41l12.52 2.97c.15.04.31.05.46.05.9 0 1.73-.62 1.95-1.54l1.5-6.32c.25-1.07-.41-2.15-1.48-2.41l-12.52-2.97c-.15-.03-.3-.05-.46-.05z" style="fill:#fbbe00"/></svg>