<svg xmlns="http://www.w3.org/2000/svg" viewBox="0 0 128 128"><path fill="#424242" d="M167.22 214.14c0 .6.08 1.19.19 1.77v-3.54c-.11.58-.19 1.17-.19 1.77zm.19-1.83v.06c0-.02.01-.04.01-.06h-.01z" opacity=".2"/><linearGradient id="a" x1="19.645" x2="106.67" y1="64.34" y2="64.34" gradientUnits="userSpaceOnUse"><stop offset=".202" stop-color="#E6E6E6"/><stop offset=".706" stop-color="#3D3D3D"/><stop offset=".961" stop-color="#C9C9CA"/></linearGradient><path fill="url(#a)" d="m106.67 17.13-87.02-2.25v87.66c0 6.23 19.48 11.28 43.51 11.28s43.51-5.05 43.51-11.28"/><linearGradient id="b" x1="37.468" x2="108.48" y1="69.896" y2="69.896" gradientUnits="userSpaceOnUse"><stop offset="0" stop-color="#fff"/><stop offset=".729" stop-color="#B3B3B3"/><stop offset="1" stop-color="#ccc"/></linearGradient><path fill="url(#b)" d="M81.44 26c-29.64 4.05-34.21 4.69-43.97 11v1.17l1.56 3.12c0 .78-.78 1.56-1.56 2.34v5.83c1.2 1.64 2.49 3.23 1.56 5.1-1.02 1.22-1.45 2.33-1.56 3.4v1.26c.25 2.51 1.77 4.86.78 7.83 0 .52-.35 1.13-.78 1.73v5.55c1.28 2.9.65 5.14 0 7.55v7.67c.21.08.47.12.78.12-.43 1.28-.67 2.54-.78 3.78v3.33c.34 4.35 1.83 8.6 2.34 13.17 0 .93-1.39 1.58-2.34 2.13v2.83c1.07 3.01 1.12 6.03.69 9.08 1.95-1.4 7.96-5.16 17.37-6.22 11.63-1.31 49.83 2.83 52.95-10.45V15.79S106.13 22.63 81.44 26z"/><ellipse cx="64" cy="15.28" fill="#F1F1F1" rx="44.48" ry="11.28"/><linearGradient id="c" x1="64" x2="64" y1="11.636" y2="26.832" gradientUnits="userSpaceOnUse"><stop offset="0" stop-color="#B3B3B3"/><stop offset="1" stop-color="#4D4D4D"/></linearGradient><ellipse cx="64" cy="15.28" fill="url(#c)" rx="18.47" ry="4.68"/><path fill="#424242" d="M64 7c11.33 0 22.03 1.09 30.14 3.07 8.94 2.18 11.19 4.6 11.34 5.18 0 .01 0 .02-.01.02-.13.51-.12 1.03.01 1.52v90.15c-2.34 7.51-25.45 7.52-37.94 7.53-5.05 0-9.41 0-12.34.33-5.89.66-10.56 2.31-13.87 3.9-.13-1.49-.42-2.9-.86-4.27v-.86c.49-.64.71-1.48.57-2.31a3.01 3.01 0 0 0-2.42-2.46c-14.51-2.66-15.97-6.23-15.97-6.26V16.08c0-.27-.04-.54-.11-.8 0-.01-.01-.02-.01-.03.17-.6 2.44-3.01 11.34-5.18C41.97 8.09 52.67 7 64 7m0-3C39.43 4 19.52 9.05 19.52 15.28c0 .27.05.54.12.8v86.45c0 3.81 7.29 7.17 18.43 9.21-.21.12-.42.23-.61.34v2.83c1.07 3.01 1.12 6.03.69 9.08 1.95-1.4 7.96-5.16 17.37-6.22 11.63-1.31 49.83 2.83 52.95-10.45V15.79s-.03.08-.1.22c.06-.24.1-.49.1-.73C108.48 9.05 88.57 4 64 4z" opacity=".2"/></svg>