<svg xmlns="http://www.w3.org/2000/svg" viewBox="0 0 128 128"><linearGradient id="a" x1="595.49" x2="595.79" y1="2071.6" y2="2283" gradientTransform="scale(1 -1) rotate(-45 -2378.95 1699.8)" gradientUnits="userSpaceOnUse"><stop offset="0" stop-color="#A1775D"/><stop offset=".11" stop-color="#B98865"/><stop offset=".22" stop-color="#CC956B"/><stop offset=".34" stop-color="#D79C6F"/><stop offset=".47" stop-color="#DB9F70"/><stop offset=".63" stop-color="#D89D6F"/><stop offset=".76" stop-color="#CE966C"/><stop offset=".87" stop-color="#BD8B66"/><stop offset=".98" stop-color="#A67B5F"/><stop offset="1" stop-color="#A1775D"/></linearGradient><path fill="url(#a)" d="m114.74 11.34.52.52c10.2 10.2 10.2 26.73 0 36.93l-67.89 67.89c-9.42 9.42-24.68 9.42-34.1 0l-.52-.52c-10.2-10.19-10.21-26.72-.01-36.93l67.89-67.89c9.41-9.42 24.68-9.43 34.1-.01l.01.01z"/><circle cx="31.03" cy="87.97" r="2.65" fill="#825A41"/><circle cx="40.01" cy="96.97" r="2.65" fill="#825A41"/><circle cx="18.55" cy="100.45" r="2.65" fill="#825A41"/><circle cx="27.53" cy="109.45" r="2.65" fill="#825A41"/><circle cx="32.68" cy="77.15" r="2.65" fill="#825A41"/><circle cx="50.85" cy="95.32" r="2.65" fill="#825A41"/><circle cx="42.07" cy="86.54" r="2.65" fill="#825A41"/><circle cx="20.2" cy="89.63" r="2.65" fill="#825A41"/><circle cx="38.36" cy="107.8" r="2.65" fill="#825A41"/><circle cx="29.6" cy="99.03" r="2.65" fill="#825A41"/><circle cx="96.97" cy="40.02" r="2.65" fill="#825A41"/><circle cx="87.98" cy="31.02" r="2.65" fill="#825A41"/><circle cx="109.45" cy="27.54" r="2.65" fill="#825A41"/><circle cx="100.46" cy="18.54" r="2.65" fill="#825A41"/><circle cx="95.32" cy="50.85" r="2.65" fill="#825A41"/><circle cx="77.15" cy="32.68" r="2.65" fill="#825A41"/><circle cx="85.94" cy="41.46" r="2.65" fill="#825A41"/><circle cx="107.8" cy="38.37" r="2.65" fill="#825A41"/><circle cx="89.63" cy="20.2" r="2.65" fill="#825A41"/><circle cx="98.41" cy="28.97" r="2.65" fill="#825A41"/><path fill="#212121" d="M97.69 7.27c5.6-.01 10.98 2.21 14.93 6.18l.51.51c9.01 9.03 9.01 23.66 0 32.69l-67.89 67.89c-8.24 8.25-21.61 8.25-29.85.01l-.52-.52c-9.03-9.02-9.03-23.66-.01-32.68l.01-.01 67.89-67.88a21 21 0 0 1 14.93-6.19m0-3c-6.4-.01-12.53 2.53-17.05 7.06L12.75 79.22c-10.2 10.2-10.2 26.73 0 36.93l.51.51c9.41 9.42 24.68 9.42 34.1 0l67.88-67.88c10.2-10.2 10.2-26.73 0-36.93l-.51-.51a24.05 24.05 0 0 0-17.04-7.07z" opacity=".2"/><linearGradient id="b" x1="595.49" x2="595.79" y1="2071.6" y2="2283" gradientTransform="scale(1 -1) rotate(-45 -2378.95 1699.8)" gradientUnits="userSpaceOnUse"><stop offset="0" stop-color="#A1775D"/><stop offset=".11" stop-color="#B98865"/><stop offset=".22" stop-color="#CC956B"/><stop offset=".339" stop-color="#D79C6F"/><stop offset=".475" stop-color="#DB9F70"/><stop offset=".63" stop-color="#D89D6F"/><stop offset=".76" stop-color="#CE966C"/><stop offset=".87" stop-color="#BD8B66"/><stop offset=".98" stop-color="#A67B5F"/><stop offset="1" stop-color="#A1775D"/></linearGradient><path fill="url(#b)" d="m114.74 11.34.52.52c10.2 10.2 10.2 26.73 0 36.93l-67.89 67.89c-9.42 9.42-24.68 9.42-34.1 0l-.52-.52c-10.2-10.19-10.21-26.72-.01-36.93l67.89-67.89c9.41-9.42 24.68-9.43 34.1-.01l.01.01z"/><circle cx="31.03" cy="87.97" r="2.65" fill="#825A41"/><circle cx="40.01" cy="96.97" r="2.65" fill="#825A41"/><circle cx="18.55" cy="100.45" r="2.65" fill="#825A41"/><circle cx="27.53" cy="109.45" r="2.65" fill="#825A41"/><circle cx="32.68" cy="77.15" r="2.65" fill="#825A41"/><circle cx="50.85" cy="95.32" r="2.65" fill="#825A41"/><circle cx="42.07" cy="86.54" r="2.65" fill="#825A41"/><circle cx="20.2" cy="89.63" r="2.65" fill="#825A41"/><circle cx="38.36" cy="107.8" r="2.65" fill="#825A41"/><circle cx="29.6" cy="99.03" r="2.65" fill="#825A41"/><circle cx="96.97" cy="40.02" r="2.65" fill="#825A41"/><circle cx="87.98" cy="31.02" r="2.65" fill="#825A41"/><circle cx="109.45" cy="27.54" r="2.65" fill="#825A41"/><circle cx="100.46" cy="18.54" r="2.65" fill="#825A41"/><circle cx="95.32" cy="50.85" r="2.65" fill="#825A41"/><circle cx="77.15" cy="32.68" r="2.65" fill="#825A41"/><circle cx="85.94" cy="41.46" r="2.65" fill="#825A41"/><circle cx="107.8" cy="38.37" r="2.65" fill="#825A41"/><circle cx="89.63" cy="20.2" r="2.65" fill="#825A41"/><circle cx="98.41" cy="28.97" r="2.65" fill="#825A41"/><path fill="#212121" d="M97.69 7.27c5.6-.01 10.98 2.21 14.93 6.18l.51.51c9.01 9.03 9.01 23.66 0 32.69l-67.89 67.89c-8.24 8.25-21.61 8.25-29.85.01l-.52-.52c-9.03-9.02-9.03-23.66-.01-32.68l.01-.01 67.89-67.88a21 21 0 0 1 14.93-6.19m0-3c-6.4-.01-12.53 2.53-17.05 7.06L12.75 79.22c-10.2 10.2-10.2 26.73 0 36.93l.51.51c9.41 9.42 24.68 9.42 34.1 0l67.88-67.88c10.2-10.2 10.2-26.73 0-36.93l-.51-.51a24.05 24.05 0 0 0-17.04-7.07z" opacity=".2"/><linearGradient id="c" x1="64" x2="64" y1="40.918" y2="93.082" gradientUnits="userSpaceOnUse"><stop offset=".241" stop-color="#FFD0AB"/><stop offset=".291" stop-color="#FBCBA5"/><stop offset=".357" stop-color="#F1BD94"/><stop offset=".433" stop-color="#E0A678"/><stop offset=".452" stop-color="#DB9F70"/><stop offset=".493" stop-color="#BF8961"/><stop offset=".541" stop-color="#A47453"/><stop offset=".591" stop-color="#916649"/><stop offset=".642" stop-color="#865D43"/><stop offset=".697" stop-color="#825A41"/></linearGradient><path fill="url(#c)" d="M81.72 64.98 64.98 81.72a3.21 3.21 0 0 1-4.55 0L46.28 67.57a3.21 3.21 0 0 1 0-4.55l16.74-16.74a3.21 3.21 0 0 1 4.55 0l14.16 14.16a3.208 3.208 0 0 1-.01 4.54zM39.19 68.4 59.6 88.81a4.327 4.327 0 0 0 6.12 0l23.09-23.09a4.327 4.327 0 0 0 0-6.12L68.4 39.19a4.327 4.327 0 0 0-6.12 0L39.19 62.28a4.327 4.327 0 0 0 0 6.12z"/></svg>