<svg xmlns="http://www.w3.org/2000/svg" style="enable-background:new 0 0 128 128" viewBox="0 0 128 128" xml:space="preserve"><linearGradient id="a" x1="72.9" x2="72.9" y1="816.4" y2="718.1" gradientTransform="translate(0 -714)" gradientUnits="userSpaceOnUse"><stop offset="0" style="stop-color:#b71c1c"/><stop offset=".525" style="stop-color:#e53935"/><stop offset=".674" style="stop-color:#db3330"/><stop offset=".926" style="stop-color:#c02221"/><stop offset="1" style="stop-color:#b71c1c"/></linearGradient><ellipse cx="72.9" cy="53.3" rx="45.9" ry="49.1" style="fill:url(#a)"/><linearGradient id="b" x1="127.2" x2="67.662" y1="767.3" y2="767.3" gradientTransform="translate(0 -714)" gradientUnits="userSpaceOnUse"><stop offset="0" style="stop-color:#b71c1c"/><stop offset=".167" style="stop-color:#ad1e1e"/><stop offset=".451" style="stop-color:#922422"/><stop offset=".816" style="stop-color:#672e2a"/><stop offset="1" style="stop-color:#4e342e"/></linearGradient><ellipse cx="69.4" cy="53.3" rx="42" ry="47.9" style="fill:url(#b)"/><linearGradient id="c" x1="78.1" x2="78.1" y1="755.875" y2="767.008" gradientTransform="translate(0 -714)" gradientUnits="userSpaceOnUse"><stop offset="0" style="stop-color:#bcaaa4"/><stop offset="1" style="stop-color:#a1887f"/></linearGradient><ellipse cx="78.1" cy="51.7" rx="16.6" ry="27.2" style="fill:url(#c)"/><g style="opacity:.2"><path d="M78.1 25.5c8.6 0 15.6 11.8 15.6 26.2s-7 26.2-15.6 26.2-15.6-11.8-15.6-26.2 7-26.2 15.6-26.2m0-1c-9.2 0-16.6 12.2-16.6 27.2s7.4 27.2 16.6 27.2 16.6-12.2 16.6-27.2-7.5-27.2-16.6-27.2z" style="fill:#212121"/></g><g style="opacity:.2"><path d="M48.1 7c5.3 0 9.5.5 11.8 1.5l1 .4 1-.3c3.6-1 7.3-1.5 11-1.5 23.6 0 42.9 20.7 42.9 46.2S96.6 99.4 72.9 99.4c-3.7 0-7.4-.5-11-1.5l-1-.3-.9.4c-2.8 1.1-6.8 1.6-11.6 1.6-1.9 0-3.5-.1-4.4-.1h-.8c-18.3 0-33.1-20.7-33.1-46.2S25 7.1 43.2 7.1h.7c.8 0 2.3-.1 4.2-.1m0-3c-2.6 0-4.5.1-4.9.1-20 0-36.1 22-36.1 49.2s16.2 49.1 36.1 49.1c.4 0 2.4.2 5.2.2 3.7 0 8.7-.3 12.6-1.8 3.8 1.1 7.7 1.7 11.8 1.7 25.3 0 45.9-22 45.9-49.2S98.3 4.1 72.9 4.1c-4.1 0-8.1.6-11.8 1.7-3.4-1.5-9-1.8-13-1.8z" style="fill:#212121"/></g><path d="M86.2 47c3.1 2.9 4.1 13.7 4.2 17.8.4 12.3 1.6 30.5 16 35.8 15.2 5.6 16.3 9.1 8.8 12.6-15.2 6.9-41.8 8.6-53 7.1-11.2-1.6-8.8-9.1-1.8-10 13.8-1.8 31.3 2.6 39.5 8.3" style="fill:none;stroke:#bcaaa4;stroke-width:5;stroke-miterlimit:10"/><g style="opacity:.2"><path d="M88.7 47.6c1.3 2.8 2.2 6.4 2.7 10 .3 2.7.5 5.6.7 8.7.8 13 1.7 27.8 14.6 32.8 10.7 4.1 14.6 6.7 14.7 9.7.1 2.9-3.1 4.6-5.5 5.7-11.8 5.4-30.5 7.8-43.8 7.8-3.8 0-7.3-.2-10-.6-8.4-1.2-9.1-5.4-9.1-6.7 0-3.2 3.1-5.9 7.3-6.4 2.2-.3 4.5-.4 6.9-.4 12.9 0 25.4 4 32.1 8l.3.2.4-.1c5.8-1.2 10.7-2.8 14.7-4.6 2.1-.9 3-1.7 3.3-2.1l.5-.6-.4-.6c-.6-.9-3-3-12.1-6.3-5.4-2-9.8-6.3-12.7-12.5-3.6-7.5-4.1-20.4-4.3-24.7V64c-.4-7.8-2.1-10.4-4-13.2l-.1-.1c.5-.5 1.1-1 1.8-1.4.6-.5 1.3-1 2-1.7m-16.8 71.6c6 0 12.8-.5 19.2-1.4l3.8-.5-3.6-1.4c-7.3-2.8-16.4-4.5-24.2-4.5-2.2 0-4.4.1-6.4.4-2.8.4-4.5 2-4.5 3.3 0 1.6 2.5 3.1 6.3 3.6 2.5.4 5.8.5 9.4.5m16.9-73.4c-1.2 2.2-3.8 2.9-5.3 4.9 2 3.1 3.9 5.3 4.3 13.4.1 2.7.4 17.6 4.4 26 2.8 5.9 7.1 10.7 13.3 13 9.3 3.4 11.2 5.4 11.6 5.9-.2.3-.9.9-3 1.8-4.1 1.9-9.1 3.3-14.4 4.5-7.4-4.4-20.4-8.1-32.6-8.1-2.4 0-4.7.1-7 .4-4.7.6-8.1 3.8-8.1 7.4 0 1.5.7 6.4 9.9 7.7 2.8.4 6.2.6 10.1.6 13.5 0 32.3-2.4 44.3-7.8 2.7-1.2 6.2-3.2 6.1-6.7-.1-3.8-4.4-6.5-15.3-10.6-15.3-5.9-12.9-27-14.7-40.7-.5-3.8-1.7-8.3-3.6-11.7zm-16.9 72.4c-3.6 0-6.8-.2-9.3-.5-4-.6-5.5-1.9-5.5-2.6 0-.8 1.3-2 3.7-2.3 2-.3 4.1-.4 6.3-.4 8.3 0 17.1 1.8 23.9 4.5-6.7.9-13.4 1.3-19.1 1.3z" style="fill:#212121"/></g><linearGradient id="d" x1="51.3" x2="51.3" y1="811.302" y2="720.91" gradientTransform="translate(0 -714)" gradientUnits="userSpaceOnUse"><stop offset="0" style="stop-color:#b71c1c"/><stop offset=".525" style="stop-color:#e53935"/><stop offset=".674" style="stop-color:#db3330"/><stop offset=".926" style="stop-color:#c02221"/><stop offset="1" style="stop-color:#b71c1c"/></linearGradient><ellipse cx="51.3" cy="53.3" rx="37.8" ry="49.1" style="fill:url(#d)"/><ellipse cx="43.2" cy="53.3" rx="36.1" ry="49.1" style="fill:#e53935"/><linearGradient id="e" x1="37" x2="37" y1="808.587" y2="727.657" gradientTransform="translate(0 -714)" gradientUnits="userSpaceOnUse"><stop offset="0" style="stop-color:#4e342e"/><stop offset=".53" style="stop-color:#b71c1c"/><stop offset=".609" style="stop-color:#ad1e1e"/><stop offset=".743" style="stop-color:#922422"/><stop offset=".914" style="stop-color:#672e2a"/><stop offset="1" style="stop-color:#4e342e"/></linearGradient><ellipse cx="37" cy="53.3" rx="22" ry="31.4" style="fill:url(#e)"/><ellipse cx="39.5" cy="53.3" rx="19.5" ry="29.1" style="fill:#f5f5f5"/><path d="M36.8 41.1c2.3 7.4.1 12 0 12.2 0-6.9-8-11.1-8-21.9 0-.9.1-1.7.2-2.6 3-2.9 6.7-4.6 10.5-4.6.6 0 1.2 0 1.8.1-3.5 1.6-7.9 5.9-4.5 16.8zm8 34.1c0 2.5-.6 4.8-1.6 6.7-1.2.4-2.5.5-3.7.5-1.9 0-3.7-.4-5.5-1.2 3-2.2 5.6-6.6 2.7-15.7-2.3-7.4-.1-12 0-12.2.1 6.9 8.1 11.1 8.1 21.9z" style="fill:#3b78e7"/><path d="M36.8 53.3c0-.1 0-.1 0 0-3.5-4.7-10.8-.3-16.2-6.8.7-4.1 1.9-7.8 3.6-11 .3 3.3 1.9 6.8 6.5 9.2 5.2 2.9 6 8.3 6.1 8.6zM56 68.8c-2 4.7-4.8 8.4-8.2 10.8 1.9-4.4 4.1-12.8-4.8-17.7-5.5-3-6.2-8.6-6.2-8.6 3.5 4.9 11.3 0 16.8 7.6 1.6 2.2 2.4 5.1 2.4 7.9z" style="fill:#00c853"/><path d="M36.8 53.3c-4.9 0-7.9 10.7-15.3 11.1-.9-3.2-1.4-6.6-1.5-10.2 1.9 1.2 4.4 1.2 8-.9 5-3 8.2-.5 8.8 0-.1-.1 0-.1 0 0z" style="fill:#3b78e7"/><path d="M59 53.3c0 3-.3 5.9-.9 8.6-.7-4.8-3.3-14.2-12.6-8.6-5.2 3.1-8.5.3-8.8 0 5 0 8-11.2 15.8-11.2 2.2 0 4.3 1.3 5.7 3.3.6 2.5.8 5.2.8 7.9z" style="fill:#3b78e7"/><path d="M36.8 53.3c-3.5 4.9 0 15.7-5.5 23.4-.5.7-1.1 1.3-1.6 1.8-2.2-1.9-4.2-4.5-5.7-7.6 2.4-.4 4.8-2.7 6.6-8.9 2.1-7.5 5.9-8.7 6.2-8.7zm19.5-14.9c-2.9-2.7-9.6-6.8-13.3 6.2-2.1 7.4-6 8.6-6.2 8.6 3.5-4.9 0-15.7 5.5-23.4 1.4-2 3.3-3.1 5.1-3.2 3.7 2.5 6.8 6.7 8.9 11.8z" style="fill:#00c853"/><g style="opacity:.2"><path d="M51.3 7.1c19.2 0 34.8 20.7 34.8 46.2S70.5 99.4 51.3 99.4c-2 0-3.7 0-5.3-.1h-.4c-.9.1-1.6.1-2.3.1-18.3 0-33.1-20.7-33.1-46.2S25 7.1 43.2 7.1c.6 0 1.3 0 2.2.1h.4c1.6 0 3.4-.1 5.5-.1m0-3c-1.9 0-3.8 0-5.7.1-.8-.1-1.6-.1-2.4-.1-20 0-36.1 22-36.1 49.2s16.2 49.2 36.1 49.2c.9 0 1.7-.1 2.6-.1 1.8.1 3.6.1 5.5.1 20.9 0 37.8-22 37.8-49.2.1-27.2-16.9-49.2-37.8-49.2z" style="fill:#212121"/></g></svg>