<svg xmlns="http://www.w3.org/2000/svg" style="enable-background:new 0 0 128 128" viewBox="0 0 128 128" xml:space="preserve"><radialGradient id="a" cx="49.611" cy="65.403" r="69.329" gradientTransform="matrix(.9149 -.3333 .1419 .4106 -4.99 55.809)" gradientUnits="userSpaceOnUse"><stop offset=".583" style="stop-color:#29452b"/><stop offset="1" style="stop-color:#506b3f"/></radialGradient><path d="M22.92 95.23c2.58.62 10.91 3.66 22.73.27 8.78-2.51 21.94-9.78 22.85-10.36 15.59-10.01 35.93-16.16 45.15-18.57 1.13-.3 1.73-2.43 1.43-3.58-.12-.49-.49-.88-.88-1.2-1.64-1.38-3.71-2.08-5.74-2.69-5.51-1.67-11.12-3-16.79-3.97-2.53-.43-5.19-.79-7.73-.28-2.53.5-5.07 1.89-7.52 2.74-5.75 2.01-11.46 4.13-17.11 6.42-7.57 3.07-16.74 6.17-22.97 11.8-.81.73-2.17 1.92-1.88 3.2 2.08 9.36-8.49 4.44-8.92 6.2-.42 1.75-6.39 9.11-2.62 10.02z" style="fill:url(#a)"/><path d="M82.54 113.99c7.32-11.21.54-34.83-2.25-40.96L69.18 77.4c1.2 2.64 9.43 22.29 1.09 39.98l12.27-3.39z" style="fill:#6d4c41"/><linearGradient id="b" x1="78.687" x2="49.635" y1="123.159" y2="106.496" gradientTransform="matrix(1 -.00617 .00617 1 -.69 .394)" gradientUnits="userSpaceOnUse"><stop offset=".405" style="stop-color:#8d6e63"/><stop offset=".627" style="stop-color:#76564b"/><stop offset=".768" style="stop-color:#6d4c41"/></linearGradient><path d="M63.55 120.4c-7.43-1.25-13.58-3.73-18.61-6.77l6.89-9.88c7.55 5.54 17.23 10.22 30.3 11.51-.01 0-9.17 6.32-18.58 5.14z" style="fill:url(#b)"/><path d="M57.6 107.39c8.73 5.06 20.16 10.07 24.02 7.11 7.96-6.12 2.34-33.8-1.33-41.46" style="fill:none;stroke:#bcaaa4;stroke-width:2;stroke-miterlimit:10"/><path d="m59.11 105.47-11.88-8.34a1.36 1.36 0 0 0-1.89.33l-8.39 11.92c-.43.62-.28 1.47.33 1.9l5.94 4.17 5.94 4.17c.61.43 1.46.28 1.89-.33l8.39-11.92c.43-.62.28-1.47-.33-1.9zm-12.27-5.01 3.43 2.41-6.57 9.32-3.43-2.41 6.57-9.32zm-.73 13.42 6.57-9.32 3.43 2.41-6.57 9.32-3.43-2.41z" style="fill:#9e9e9e"/><linearGradient id="c" x1="42.726" x2="33.04" y1="105.963" y2="91.082" gradientUnits="userSpaceOnUse"><stop offset=".462" style="stop-color:#8d6e63"/><stop offset=".825" style="stop-color:#6d4c41"/></linearGradient><path d="M47.66 101.04c-5.43-3.51-9.38-10.91-9.97-12.73l-11.2 3.86c1.26 3.86 4.97 9.76 11.21 15.62 1.39 1.31 3.59 1.68 3.86 1.31 2.19-3.04 4.42-5.76 6.1-8.06z" style="fill:url(#c)"/><path d="M49.54 116.29s-7-4.91-7.05-4.95c-.05-.04 6.41-9.43 6.41-9.43l6.61 5.9-5.97 8.48zm8.37-6.76 4.87 5.12-7.49 7.74-3.77-3.77z" style="fill:#8d6e63"/><path d="M43.79 100.34c-3.96-4.17-6.93-9.28-7.52-11.07l1.87-.61c.51 1.55 4.22 8.28 8.72 11.84 0 0-2.06.92-3.07-.16zm11.12 8.31s-4.94-3.76-5.83-4.52c-.89-.76-.18-2.21-.18-2.21l7.21 5.06-1.2 1.67zm2.85 13.4-2.47.34 6.16-7.7-4.11-4.34 1.15-1.64 5.61 5.9z" style="fill:#bcaaa4"/><path d="M117.75 57.88c-14.56-3.95-12.2-6.61-16.13-14.44C89.52 19.33 72.4 5.49 47.55 7.77 19.15 10.39 2 34.17 4.56 62.03c.66 7.13 1.96 13.01 4.58 19.56v.01c2.65 7.55-.94 12-2.56 13.58s-3.45 3.99.15 5.26c3.98 1.4 13.24 3.92 33.98-7.82 20.91-11.84 26.51-15.5 42.26-19.94 13.19-3.73 32.21-5.8 38.61-7.89 3.71-1.22 3.67-4.88-3.83-6.91z" style="fill:#506b3f"/><radialGradient id="d" cx="46.382" cy="73.258" r="66.355" gradientTransform="matrix(.9448 -.3277 .3279 .9456 -21.463 19.183)" gradientUnits="userSpaceOnUse"><stop offset=".468" style="stop-color:#506b3f;stop-opacity:0"/><stop offset="1" style="stop-color:#828e51"/></radialGradient><path d="M117.75 57.88c-14.56-3.95-12.2-6.61-16.13-14.44C89.52 19.33 72.4 5.49 47.55 7.77 19.15 10.39 2 34.17 4.56 62.03c.66 7.13 1.96 13.01 4.58 19.56v.01c2.65 7.55-.94 12-2.56 13.58s-3.45 3.99.15 5.26c3.98 1.4 13.24 3.92 33.98-7.82 20.91-11.84 26.51-15.5 42.26-19.94 13.19-3.73 32.21-5.8 38.61-7.89 3.71-1.22 3.67-4.88-3.83-6.91z" style="fill:url(#d)"/><linearGradient id="e" x1="13.007" x2="121.472" y1="98.56" y2="59.118" gradientUnits="userSpaceOnUse"><stop offset=".102" style="stop-color:#828e51"/><stop offset=".93" style="stop-color:#9b9e5a"/></linearGradient><path d="M120.79 58.96s2.2 1.85-.55 3.1c-2.8.84-7.96 1.73-13.88 2.75-7.88 1.36-16.82 2.89-24.2 4.98-14.6 4.12-20.79 7.65-37.35 17.06-1.73.99-3.58 2.04-5.57 3.16-10.17 5.75-18.66 8.67-25.26 8.67-1.43 0-4.93-.33-6.63-1.12-1.4-.65-.77-2.38-.77-2.38-2.53 2.5-2.71 4.25.15 5.26 1.53.54 3.82 1.24 7.25 1.24 5.51 0 13.94-1.82 26.73-9.06 20.91-11.84 26.51-15.5 42.26-19.94 13.19-3.73 32.21-5.8 38.61-7.89 2.25-.74 3.1-2.38 1.75-4.01.01 0-.82-1.13-2.54-1.82z" style="fill:url(#e)"/></svg>