<svg xmlns="http://www.w3.org/2000/svg" viewBox="0 0 128 128"><radialGradient id="a" cx="70.564" cy="48.326" r="56.542" gradientTransform="rotate(14.928 63.52 64.015)" gradientUnits="userSpaceOnUse"><stop offset="0" stop-color="#FFECB3"/><stop offset=".208" stop-color="#FFE0B2"/><stop offset=".39" stop-color="#F4CEA4"/><stop offset=".623" stop-color="#E3B08D"/><stop offset="1" stop-color="#4D6E80"/></radialGradient><circle cx="64" cy="63.93" r="40.78" fill="url(#a)"/><radialGradient id="b" cx="62.164" cy="49.209" r="50.244" gradientUnits="userSpaceOnUse"><stop offset="0" stop-color="#FFF8E1"/><stop offset=".427" stop-color="#FFECB3"/><stop offset="1" stop-color="#B37562"/></radialGradient><path fill="url(#b)" d="M29.35 80.67c3.99-2.36 9.95-1.55 14.33-2.91A19.64 19.64 0 0 0 54 70.11c2.22-3.27 3.44-7.2 6-10.22 3.13-3.69 7.78-5.5 11.37-8.65 4.1-3.6 4.77-8.38 7.75-12.73-2.21-.35-4.34 1.09-5.76 2.82-1.43 1.73-2.42 3.79-3.94 5.43-4.45 4.81-12.73 5.39-15.85 11.15-.08-3.1 1.76-5.95 4.03-8.07 2.26-2.12 4.97-3.69 7.36-5.66 2.3-1.89 4.31-4.15 5.92-6.67 2.32-3.62 2.8-6.64 6.21-9.26 1.08-.83 3.16-1.62 3.44-1.53 0 0-3.78-1.88-9.04-2.87-3.51 3.97-3.64 13.49-7.97 16.47-3.24 2.23-7.17 3.37-10.27 5.8-4.65 3.65-6.61 9.79-10.72 14.04a18.347 18.347 0 0 1-7.79 4.77c-2.12.65-4.35.91-6.47 1.55-1.76.53-3.49 1.39-4.71 2.74.65 4.94 2.2 9.68 4.52 14 .02-.01.04-.01.06-.02-.16-1 .13-1.9 1.21-2.53z"/><radialGradient id="c" cx="72.897" cy="53.792" r="54.836" gradientUnits="userSpaceOnUse"><stop offset="0" stop-color="#FFECB3"/><stop offset=".412" stop-color="#BD9C77"/><stop offset=".845" stop-color="#607D8B"/><stop offset=".998" stop-color="#1C3AA9"/></radialGradient><path fill="url(#c)" d="M80.53 26.72c-.28-.09-2.36.69-3.44 1.53-3.41 2.62-3.89 5.64-6.21 9.26a28.729 28.729 0 0 1-5.92 6.67c-2.39 1.97-5.1 3.54-7.36 5.66s-4.1 4.97-4.03 8.07c3.12-5.76 11.4-6.34 15.85-11.15 1.52-1.64 2.51-3.71 3.94-5.43 1.43-1.73 3.55-3.17 5.76-2.82-4.67 4.04-3.65 9.13-7.75 12.73-3.59 3.15-8.23 4.97-11.37 8.65-2.56 3.01-3.78 6.94-6 10.22-2.45 3.61-6.15 6.36-10.32 7.65-4.38 1.37-10.34.55-14.33 2.91-1.08.64-1.38 1.54-1.21 2.54 0 0 2.06 4 4.38 6.65 5.58 6.38 12.78 11.29 20.97 13.48 2.91.78 5.83 1.21 8.72 1.34 7.01-4.2 15.09-7.16 19.92-13.7 2.11-2.86 3.45-6.24 5.6-9.08 3.4-4.49 8.56-7.27 12.72-11.07a33.46 33.46 0 0 0 4.28-4.78c.49-9.37-2.36-18.77-7.92-26.32-1.43-1.94-3.14-3.63-4.77-5.4-3.95-4.28-11.51-7.61-11.51-7.61z" opacity=".86"/><radialGradient id="d" cx="56.585" cy="104" r=".138" gradientUnits="userSpaceOnUse"><stop offset=".323" stop-color="#FFECB3"/><stop offset="1" stop-color="#B37562"/></radialGradient><path fill="url(#d)" d="M56.39 103.98s-.01 0 0 0l.32.06c-.11-.02-.22-.04-.32-.06z"/><radialGradient id="e" cx="59.374" cy="104.4" r=".441" gradientUnits="userSpaceOnUse"><stop offset=".323" stop-color="#FFECB3"/><stop offset="1" stop-color="#B37562"/></radialGradient><path fill="url(#e)" d="M59.78 104.49c-.36-.04-.71-.09-1.07-.13.36.04.72.09 1.07.13z"/><radialGradient id="f" cx="104.73" cy="61.937" r=".126" gradientUnits="userSpaceOnUse"><stop offset=".323" stop-color="#FFECB3"/><stop offset="1" stop-color="#B37562"/></radialGradient><path fill="url(#f)" d="M104.73 62.06v-.18h-.01c.01.05.01.11.01.18z"/><radialGradient id="g" cx="88.438" cy="79.826" r="31.421" gradientUnits="userSpaceOnUse"><stop offset=".323" stop-color="#FFECB3"/><stop offset="1" stop-color="#B37562"/></radialGradient><path fill="url(#g)" d="M100.45 70.82c-4.16 3.8-9.32 6.58-12.72 11.07-2.15 2.84-3.48 6.22-5.6 9.08-4.82 6.54-12.89 9.49-19.91 13.69 2.39.11 4.76.01 7.09-.3 6.55-2.92 12.67-6.89 16.55-12.83 1.5-2.3 2.63-4.84 4.15-7.13 1.36-2.05 3.03-3.89 4.95-5.43 2.33-1.89 5-3.32 7.39-5.13.51-.38 1-.79 1.48-1.22.48-2.19.75-4.38.86-6.55a32.366 32.366 0 0 1-4.24 4.75z"/><radialGradient id="h" cx="104.77" cy="64.555" r=".139" gradientUnits="userSpaceOnUse"><stop offset=".323" stop-color="#FFECB3"/><stop offset="1" stop-color="#B37562"/></radialGradient><path fill="url(#h)" d="M104.77 64.69c0-.07.01-.14.01-.2-.01.06-.01.13-.01.2z"/><radialGradient id="i" cx="61.356" cy="104.59" r=".525" gradientUnits="userSpaceOnUse"><stop offset=".323" stop-color="#FFECB3"/><stop offset="1" stop-color="#B37562"/></radialGradient><path fill="url(#i)" d="M61.85 104.65c-.43-.02-.86-.06-1.29-.09l1.29.09z"/><path fill="#212121" d="M63.97 25.14c3.36 0 6.73.44 10.02 1.32 20.66 5.51 32.99 26.8 27.48 47.46-4.52 16.96-19.92 28.8-37.44 28.8-3.36 0-6.73-.44-10.02-1.32-20.66-5.51-32.99-26.8-27.48-47.46 4.52-16.95 19.92-28.8 37.44-28.8m0-2c-18.02 0-34.51 12.04-39.38 30.28-5.8 21.76 7.13 44.11 28.9 49.91 3.52.94 7.05 1.39 10.53 1.39 18.02 0 34.51-12.04 39.38-30.28 5.8-21.76-7.13-44.11-28.9-49.91-3.51-.94-7.05-1.39-10.53-1.39z" opacity=".3"/><path fill="#1A237E" d="M103.04 52.16c-1.6-5.29-4.26-10.2-7.8-14.43C88.91 45.12 80 54.88 68.97 66.6 57.03 79.27 46.04 88.91 37.76 95.15a40.49 40.49 0 0 0 14.11 7.71s18.78-15.18 27.96-24.28c9.17-9.08 23.21-26.42 23.21-26.42z" opacity=".26"/><linearGradient id="j" x1="9.344" x2="115.84" y1="63.035" y2="63.035" gradientUnits="userSpaceOnUse"><stop offset="0" stop-color="#002B70"/><stop offset="1" stop-color="#FF8A65"/></linearGradient><path fill="url(#j)" d="M114.34 11.26c-5.82-4.03-25.8 11.61-31.88 16.31L86.63 30s14.81-12.07 17.08-9.88c1.83 1.76-11.43 19.08-36.91 44.42-25.67 25.53-45.5 39.6-46.35 36.32-.81-3.09 9.31-14.78 9.31-14.78l-2.23-4.16c-7.13 9.12-21.76 28.45-17.39 32.44 5.92 5.41 27.56-8.87 62.32-42.35s48.17-56.4 41.88-60.75z"/><linearGradient id="k" x1="17.229" x2="95.518" y1="112.05" y2="33.763" gradientUnits="userSpaceOnUse"><stop offset=".003" stop-color="#588196"/><stop offset=".369" stop-color="#F7CB4D"/><stop offset=".579" stop-color="#FAD25F"/><stop offset=".893" stop-color="#FFE082"/></linearGradient><path fill="url(#k)" d="M121.61 6.86c-4.68-4.72-22.7 4.54-42.08 19.36 0 0 1.44.66 2.62 1.24 1.19.58 2.82 1.58 2.82 1.58 11.37-8.98 18.6-12.83 21.09-10.54 3.74 3.45-12.89 23.52-38.57 48.97-25.67 25.44-45.19 40.09-48.78 36.47-2.03-2.05.81-7.72 10.13-19.33l-2.72-5.55C10.79 98.6 1.67 116.26 6.4 121.03c6.99 7.05 38.45-12.79 70.26-44.32s51.94-62.8 44.95-69.85z"/><linearGradient id="l" x1="10.981" x2="113.8" y1="62.522" y2="62.522" gradientUnits="userSpaceOnUse"><stop offset="0" stop-color="#002B70"/><stop offset="1" stop-color="#42A5F5"/></linearGradient><path fill="url(#l)" d="M112.64 12.17c-5.66-4.25-23.92 10.84-30 15.54l2.33 1.33c12.17-9.73 19.1-12.55 21.09-10.54 3.58 3.62-12.89 23.52-38.57 48.97-25.67 25.44-45.19 40.09-48.78 36.47-2.03-2.05.81-7.72 10.13-19.33l-.93-1.9c-7.13 9.12-19.68 26.92-16.4 30.08 4.64 4.46 25.1-8.83 59.86-42.31s46.42-54.44 41.27-58.31z" opacity=".49"/><path fill="#4C6E83" d="M27.91 82.7a237.35 237.35 0 0 0-7.68 11.25c-2.41 3.83-4.73 7.75-6.47 11.87-.42 1.03-.81 2.07-1.08 3.11-.26 1.03-.44 2.13-.24 2.97.11.43.27.68.57.9.3.21.69.34 1.14.38.91.07 1.95-.17 2.95-.51 2.02-.71 3.99-1.78 5.9-2.92a78.7 78.7 0 0 0 5.59-3.73c7.27-5.31 14.18-11.19 20.92-17.23 6.76-6.03 13.38-12.23 19.91-18.52 6.56-6.24 12.9-12.71 18.96-19.42 6.05-6.71 11.8-13.7 16.82-21.17 2.46-3.74 4.78-7.64 6.31-11.75.36-1.03.67-2.07.78-3.09.14-.99-.04-2.05-.48-2.24-.24-.15-.72-.21-1.2-.17-.49.03-1.01.13-1.53.27-1.04.27-2.08.66-3.11 1.08-4.12 1.74-8.06 4.03-11.92 6.38-3.85 2.39-7.66 4.87-11.36 7.51 3.51-2.88 7.18-5.59 10.94-8.16 3.77-2.55 7.6-5.04 11.77-7.04 1.05-.5 2.12-.94 3.27-1.29.58-.17 1.17-.31 1.81-.38.63-.05 1.35-.08 2.12.3.82.42 1.23 1.25 1.37 1.92.17.7.16 1.34.11 1.97-.1 1.25-.4 2.41-.76 3.53-.72 2.25-1.69 4.36-2.75 6.41s-2.23 4.04-3.45 5.98c-4.89 7.78-10.65 14.91-16.65 21.79-6.03 6.86-12.43 13.38-18.99 19.7-6.57 6.29-13.25 12.49-20.1 18.5-6.9 5.95-13.89 11.83-21.47 17.01-1.9 1.29-3.83 2.53-5.84 3.68-2.02 1.13-4.09 2.21-6.39 2.91-1.16.33-2.38.62-3.74.47-.67-.07-1.41-.32-2.01-.79-.29-.23-.58-.54-.78-.88s-.31-.71-.39-1.05c-.25-1.41.06-2.61.38-3.75.34-1.14.79-2.22 1.28-3.27 2-4.17 4.53-7.98 7.14-11.72 2.64-3.73 5.43-7.32 8.35-10.81z"/><path fill="#212121" d="M121.61 6.86c-.83-.84-2.1-1.24-3.71-1.24-7.44 0-22.45 8.42-38.37 20.6 0 0 1.19.55 2.13 1l1.71-1.39C98.54 14.54 111.62 7.62 117.9 7.62c.75 0 1.76.11 2.29.65 1.9 1.91.89 9.15-8.19 23.26-8.41 13.07-21.46 28.62-36.75 43.77-29.92 29.65-55.19 45.16-64.69 45.16-1.27 0-2.2-.28-2.74-.83-2.29-2.31.7-14.3 17.92-36.81l.01.02.02.03 1.39-1.7-1.03-2.1C10.79 98.6 1.67 116.26 6.4 121.03c.95.96 2.36 1.42 4.16 1.42 11.41 0 38.62-18.51 66.1-45.74 31.82-31.52 51.94-62.8 44.95-69.85z" opacity=".2"/></svg>