<svg xmlns="http://www.w3.org/2000/svg" viewBox="0 0 128 128"><linearGradient id="a" x1="60.87" x2="117.2" y1="44.899" y2="114.57" gradientUnits="userSpaceOnUse"><stop offset="0" stop-color="#FADA80"/><stop offset="1" stop-color="#FCB963"/></linearGradient><path fill="url(#a)" d="M112.67 122.49a4.42 4.42 0 0 1-5.64-3.16c-1.43-5.84-4.3-15.91-8.4-22.47-6.96-11.13-28.97-29.57-38.08-40.16C46.7 40.6 32.98 13.32 32.44 12.14L43.95 6.9c.12.27 12.73 27.08 25.72 41.04 10.83 11.64 31.12 25.25 41.48 41.89 5.93 9.52 10.18 18.81 12.41 24.11 1.01 2.4-.25 5.16-2.73 5.95l-8.16 2.6z"/><path fill="#424242" d="M42.53 10.84c3.58 7.25 14.01 27.38 24.95 39.14 3.89 4.18 8.9 8.55 14.21 13.18 9.57 8.34 20.41 17.8 26.92 28.25 5.94 9.55 10.19 18.94 12.19 23.69.22.51.08.95-.02 1.16s-.34.6-.86.76l-8.15 2.6c-.14.05-.29.07-.44.07-.54 0-1.2-.34-1.38-1.08-1.71-6.99-4.62-16.71-8.77-23.35-4.45-7.11-14.23-16.56-23.69-25.69-5.76-5.56-11.21-10.82-14.66-14.84-11.3-13.12-22.49-33.83-26.29-41.16l5.99-2.73m1.42-3.94-11.51 5.24c.54 1.18 14.26 28.46 28.11 44.56 9.11 10.59 31.12 29.03 38.08 40.16 4.1 6.56 6.97 16.63 8.4 22.47a4.422 4.422 0 0 0 5.64 3.16l8.15-2.6a4.42 4.42 0 0 0 2.73-5.95c-2.24-5.3-6.49-14.59-12.41-24.11-10.35-16.64-30.64-30.25-41.47-41.89C56.68 33.98 44.07 7.17 43.95 6.9z" opacity=".2"/><linearGradient id="b" x1="36.548" x2="-12.676" y1="38.384" y2="38.384" gradientTransform="scale(-1 1) rotate(35.825 6.743 -27.924)" gradientUnits="userSpaceOnUse"><stop offset="0" stop-color="#B71C1C"/><stop offset=".618" stop-color="#F43729"/><stop offset=".998" stop-color="#F43729"/></linearGradient><path fill="url(#b)" d="M24.12 52.13c.62.26 2.25.99 3.12-.13 2.87-3.68 10.3-18.9 14.61-20.05 1.38-.37 2.79-.62 4.15-1.06 5.74-1.84 7.46-4.33 8.36-6.02.52-.98.53-1.84-.38-3.38-1.01-1.72-5.9-10.67-7.9-13.36-1.28-1.73-2.6-2.71-5.48-1.74-1.08.36-4.78 2.18-7.68 4.46-2.02 1.59-1.35 3.13-5.88 4.88-5.34 2.07-14.8 4.46-19.43 5.66-2.7.7-3.28 1.54-3.31 3.83-.02 4.45 3.58 20.03 19.82 26.91z"/><linearGradient id="c" x1="6.231" x2="26.298" y1="19.636" y2="53.274" gradientUnits="userSpaceOnUse"><stop offset="0" stop-color="#BDBDBD"/><stop offset=".566" stop-color="#E0E0E0"/><stop offset="1" stop-color="#BDBDBD"/></linearGradient><path fill="url(#c)" d="M19.61 37.33c-3.8-4.54-6.85-11.07-7.02-17.2 0 0-3.45.64-5.66 1-2.76.44-3 .95-3 3.56 0 4.43 3.94 20.56 20.19 27.45.62.26 2.25.99 3.12-.13.88-1.13 2.2-3.36 3.72-5.93-4.31-1.77-8.41-5.25-11.35-8.75z"/><ellipse cx="37.69" cy="9.46" fill="#FCB963" rx="5.97" ry="1.76" transform="rotate(-28.36 37.691 9.456)"/><path fill="#424242" d="M42.65 9.02c.17 0 .37 0 1.04.91 1.4 1.89 4.63 7.63 6.37 10.71.62 1.1 1.1 1.96 1.35 2.38.14.24.22.41.27.51-.53.98-1.66 2.92-6.59 4.5-.73.23-1.51.42-2.34.61-.55.13-1.1.26-1.65.4-2.46.65-4.82 2.15-12.79 15.62-1.09 1.85-2.14 3.62-2.9 4.75-.02-.01-.05-.02-.07-.03l-.05-.02C9.99 42.89 6.91 27.48 6.94 24.72c0-.23.01-.41.01-.56.11-.02.23-.04.38-.06 8.12-1.08 15.8-3.61 20.81-5.55 3.53-1.36 4.76-2.83 5.81-4.33.35-.5.52-.73.85-.99.17-.14.33-.29.47-.46.39-.48 1.42-1.35 3.03-2.21 1.06-.57 2.12-1 2.99-1.21.1-.02.19-.05.29-.08l.04-.01c.52-.2.85-.24 1.03-.24m0-3c-.58 0-1.25.12-2.03.38-.01 0-.03.01-.05.02-1.06.26-2.36.76-3.71 1.49-1.76.95-3.18 2.05-3.92 2.95-2.02 1.59-1.35 3.13-5.88 4.88-5.34 2.07-12.62 4.38-20.12 5.37-2.77.37-2.98 1.27-3 3.56-.04 4.43 3.94 20.56 20.19 27.45.37.16 1.09.47 1.8.47.49 0 .97-.15 1.33-.61 2.87-3.68 10.3-18.9 14.61-20.05 1.38-.37 2.79-.62 4.15-1.06 5.74-1.84 7.46-4.33 8.36-6.02.52-.98.53-1.84-.38-3.38-1.01-1.72-5.9-10.67-7.9-13.36-.93-1.22-1.89-2.09-3.45-2.09z" opacity=".2"/></svg>