<svg xmlns="http://www.w3.org/2000/svg" style="enable-background:new 0 0 128 128" viewBox="0 0 128 128" xml:space="preserve"><radialGradient id="a" cx="32.023" cy="77.381" r="40.304" gradientTransform="rotate(45.001 28.579 94.523)" gradientUnits="userSpaceOnUse"><stop offset=".231" style="stop-color:#e06055"/><stop offset="1" style="stop-color:#ad3731"/></radialGradient><path d="M59.79 94.85c1.54-7.76-.75-15.45-6.72-21.42s-14.58-7.15-22.33-5.6c-7.13 1.42-9.97 6.17-19.37 5.6 0 0-9.92 13.52 8.79 32.92 19.4 18.71 32.92 8.79 32.92 8.79-.58-9.41 5.29-13.16 6.71-20.29z" style="fill:url(#a)"/><radialGradient id="b" cx="91.112" cy="68.686" r="17.159" gradientTransform="matrix(-.9979 .0647 .0679 1.0485 123.144 -9.22)" gradientUnits="userSpaceOnUse"><stop offset="0" style="stop-color:#eee"/><stop offset="1" style="stop-color:#eee;stop-opacity:0"/></radialGradient><path d="M53.42 79.82c0-7.75-7.05-12.6-16.11-12.6s-18.45 3.54-18.89 15.39c-.29 7.75 5.14 24.76 17.86 20.05 8.49-3.14 17.14-15.09 17.14-22.84z" style="opacity:.37;fill:url(#b)"/><linearGradient id="c" x1="53.147" x2="41.307" y1="74.61" y2="85.45" gradientTransform="rotate(-1.812 49.319 77.79)" gradientUnits="userSpaceOnUse"><stop offset="0" style="stop-color:#e06055"/><stop offset="1" style="stop-color:#ad3731"/></linearGradient><path d="M56.57 70.49c4.79 4.5 5.9 11.11 2.47 14.76-3.43 3.66-10.1 2.97-14.89-1.53s-5.9-11.11-2.47-14.76c3.43-3.65 10.09-2.97 14.89 1.53z" style="fill:url(#c)"/><ellipse cx="51.29" cy="76.11" rx="7.41" ry="11.48" style="fill:#e06055" transform="rotate(-46.812 51.296 76.118)"/><linearGradient id="d" x1="28.108" x2="75.579" y1="28.496" y2="76.318" gradientTransform="matrix(-1 0 0 1 128.001 0)" gradientUnits="userSpaceOnUse"><stop offset=".189" style="stop-color:#8c5237"/><stop offset="1" style="stop-color:#754832"/></linearGradient><path d="m58.32 78.5 63-61.26c2.16-2.16 2.67-6.82-.62-10.12-3.33-3.33-8.59-1.25-10.54.69l-61.43 62.9c-1.94 1.94-1.02 5.29 1.29 7.34 3.33 2.96 7.33 1.42 8.3.45z" style="fill:url(#d)"/><radialGradient id="e" cx="122.177" cy="7.305" r="14.446" gradientUnits="userSpaceOnUse"><stop offset="0" style="stop-color:#ffcc80;stop-opacity:.4"/><stop offset="1" style="stop-color:#ffcc80;stop-opacity:0"/></radialGradient><path d="M111.07 7.39c-2.43 2.43-2.2 6.6.5 9.3 2.71 2.71 6.87 2.93 9.3.5 2.43-2.43 2.89-6.97.18-9.68-2.7-2.7-7.55-2.55-9.98-.12z" style="fill:url(#e)"/><path d="M54.3 107.14c-1.98 2.49-1.64 6.73-1.64 6.73-12.33 4.86-25.01-5.06-30.63-10.24-4.56-4.21-14.65-19.49-8.61-29.99 0 0 4.63.3 7.28-1.74 0 0-3.63-3.03-7.32-2.92-1.28.04-5.83-.77-7.65 5.96-.72 2.64-4.04 16.88 11.69 34.58 17.07 16.78 30.38 12.96 32.91 12.4 6.2-1.38 6.66-5.84 6.86-7.44.57-4.37-2.89-7.34-2.89-7.34z" style="fill:#e06055"/></svg>