<svg xmlns="http://www.w3.org/2000/svg" viewBox="0 0 128 128"><linearGradient id="a" x1="77.996" x2="77.996" y1="3.708" y2="122.64" gradientUnits="userSpaceOnUse"><stop offset="0" stop-color="#FF5252"/><stop offset=".206" stop-color="#FD4D4D"/><stop offset=".436" stop-color="#F64040"/><stop offset=".679" stop-color="#EA2A2A"/><stop offset=".927" stop-color="#DA0B0B"/><stop offset="1" stop-color="#D50000"/></linearGradient><circle cx="78" cy="112" r="12" fill="url(#a)"/><linearGradient id="b" x1="79.45" x2="79.45" y1="3.708" y2="122.64" gradientUnits="userSpaceOnUse"><stop offset="0" stop-color="#FF5252"/><stop offset=".206" stop-color="#FD4D4D"/><stop offset=".436" stop-color="#F64040"/><stop offset=".679" stop-color="#EA2A2A"/><stop offset=".927" stop-color="#DA0B0B"/><stop offset="1" stop-color="#D50000"/></linearGradient><path fill="url(#b)" d="M72.14 88.57c-2.3 0-4.12-1.94-4-4.23.29-5.21 1.14-9.5 2.55-12.88 1.77-4.25 5.28-8.92 10.52-14s8.56-8.7 9.96-10.85c2.15-3.27 3.22-6.81 3.22-10.63 0-5.04-1.25-8.89-3.75-11.55s-6.17-3.98-11-3.98c-4.62 0-8.34 1.3-11.17 3.9-2.11 1.95-3.44 4.41-3.97 7.39-.33 1.86-2.02 3.17-3.91 3.17H48.92c-2.38 0-4.27-2.07-3.98-4.43.93-7.46 4.07-13.51 9.42-18.16C60.74 6.77 69.16 4 79.64 4c10.8 0 19.23 2.74 25.27 8.23 6.05 5.49 9.07 13.15 9.07 23 0 8.77-4.09 17.4-12.25 25.9l-9.77 9.62c-.1.1-.2.2-.29.31-2.89 3.37-4.61 8.01-5.16 13.92-.19 2.04-1.92 3.6-3.97 3.6h-10.4z"/><path fill="#424242" d="M78 103.01c4.96 0 9 4.04 9 9s-4.04 9-9 9-9-4.04-9-9c0-4.97 4.04-9 9-9m0-3c-6.63 0-12 5.37-12 12s5.37 12 12 12 12-5.37 12-12-5.38-12-12-12zM79.64 7c9.98 0 17.81 2.51 23.26 7.45 5.44 4.94 8.09 11.73 8.09 20.78 0 7.92-3.83 15.92-11.39 23.79l-9.74 9.59c-.16.16-.31.32-.46.49-3.29 3.84-5.27 9.08-5.87 15.59-.05.49-.48.88-.99.88h-10.4c-.37 0-.62-.2-.73-.31-.11-.12-.3-.37-.28-.75.27-4.84 1.05-8.84 2.32-11.89 1.61-3.85 4.92-8.23 9.84-13 5.45-5.29 8.85-9.01 10.37-11.36 2.47-3.76 3.72-7.88 3.72-12.27 0-5.81-1.54-10.39-4.56-13.61-3.08-3.27-7.51-4.93-13.19-4.93-5.38 0-9.82 1.58-13.2 4.69-2.6 2.39-4.24 5.44-4.89 9.07-.07.39-.49.7-.96.7H48.92c-.4 0-.66-.22-.77-.35a.871.871 0 0 1-.23-.71c.85-6.76 3.6-12.08 8.41-16.27C62.11 9.55 69.95 7 79.64 7m0-3c-10.48 0-18.9 2.77-25.27 8.31-5.35 4.65-8.49 10.71-9.42 18.16-.3 2.36 1.6 4.43 3.98 4.43H60.6c1.89 0 3.58-1.31 3.91-3.17.53-2.98 1.85-5.44 3.97-7.39 2.82-2.6 6.54-3.9 11.17-3.9 4.84 0 8.5 1.33 11 3.98 2.5 2.66 3.75 6.51 3.75 11.55 0 3.81-1.07 7.35-3.22 10.63-1.4 2.15-4.72 5.77-9.96 10.85s-8.75 9.75-10.52 14c-1.41 3.38-2.26 7.67-2.55 12.88a4.01 4.01 0 0 0 4 4.23h10.4c2.05 0 3.78-1.56 3.97-3.6.55-5.9 2.27-10.54 5.16-13.92.09-.11.19-.21.29-.31l9.77-9.62c8.17-8.5 12.25-17.13 12.25-25.9 0-9.85-3.02-17.51-9.07-23C98.87 6.74 90.44 4 79.64 4z" opacity=".2"/><g fill="url(#c)"><linearGradient id="c" x1="26.013" x2="26.013" y1="4.431" y2="123.33" gradientUnits="userSpaceOnUse"><stop offset="0" stop-color="#FF5252"/><stop offset=".206" stop-color="#FD4D4D"/><stop offset=".436" stop-color="#F64040"/><stop offset=".679" stop-color="#EA2A2A"/><stop offset=".927" stop-color="#DA0B0B"/><stop offset="1" stop-color="#D50000"/></linearGradient><ellipse cx="26.01" cy="112" rx="12" ry="11.99"/><path d="M32.15 92.01H19.88c-2.19 0-3.98-1.74-4.03-3.91L14.02 8.13c-.05-2.24 1.77-4.09 4.03-4.09h15.93c2.26 0 4.08 1.85 4.03 4.09L36.18 88.1c-.05 2.17-1.84 3.91-4.03 3.91z"/></g><path fill="#424242" d="M26.01 103c4.96 0 9 4.03 9 8.99s-4.04 8.99-9 8.99-9-4.03-9-8.99 4.04-8.99 9-8.99m0-2.99c-6.63 0-12 5.37-12 11.99s5.37 11.99 12 11.99 12-5.37 12-11.99c0-6.63-5.37-11.99-12-11.99zm7.97-92.97c.39 0 .63.2.75.31.13.14.29.37.28.71l-1.83 79.97c-.01.54-.47.98-1.03.98H19.88c-.56 0-1.02-.44-1.03-.98L17.02 8.06c-.01-.34.15-.57.28-.71.11-.12.36-.31.75-.31h15.93m0-3H18.05c-2.26 0-4.08 1.85-4.03 4.09l1.83 79.97c.05 2.17 1.84 3.91 4.03 3.91h12.27c2.19 0 3.98-1.74 4.03-3.91l1.83-79.97c.05-2.24-1.77-4.09-4.03-4.09z" opacity=".2"/></svg>