<svg xmlns="http://www.w3.org/2000/svg" viewBox="0 0 128 128"><linearGradient id="a" x1="64" x2="64" y1="-.333" y2="128.1" gradientUnits="userSpaceOnUse"><stop offset="0" stop-color="#29B6F6"/><stop offset=".537" stop-color="#169FE4"/><stop offset=".995" stop-color="#0288D1"/></linearGradient><path fill="url(#a)" d="M116 124H12c-4.42 0-8-3.58-8-8V12c0-4.42 3.58-8 8-8h104c4.42 0 8 3.58 8 8v104c0 4.42-3.58 8-8 8z"/><path fill="#424242" d="M116 7c2.76 0 5 2.24 5 5v104c0 2.76-2.24 5-5 5H12c-2.76 0-5-2.24-5-5V12c0-2.76 2.24-5 5-5h104m0-3H12c-4.42 0-8 3.58-8 8v104c0 4.42 3.58 8 8 8h104c4.42 0 8-3.58 8-8V12c0-4.42-3.58-8-8-8z" opacity=".2"/><g fill="#fff"><path d="M69.92 109H58.08c-1.31 0-2.37-1.06-2.37-2.37V49.79c0-1.31 1.06-2.37 2.37-2.37h11.84c1.31 0 2.37 1.06 2.37 2.37v56.84c0 1.31-1.06 2.37-2.37 2.37z"/><circle cx="64" cy="29.66" r="10.66"/></g><path fill="#424242" d="M69.29 50.42V106H58.71V50.42h10.58m.63-3H58.08c-1.31 0-2.37 1.06-2.37 2.37v56.84c0 1.31 1.06 2.37 2.37 2.37h11.84c1.31 0 2.37-1.06 2.37-2.37V49.79c0-1.31-1.06-2.37-2.37-2.37zM64 22c4.22 0 7.66 3.44 7.66 7.66s-3.44 7.66-7.66 7.66-7.66-3.44-7.66-7.66S59.78 22 64 22m0-3c-5.89 0-10.66 4.77-10.66 10.66S58.11 40.32 64 40.32s10.66-4.77 10.66-10.66S69.89 19 64 19z" opacity=".2"/></svg>