<svg xmlns="http://www.w3.org/2000/svg" viewBox="0 0 128 128"><linearGradient id="a" x1="64" x2="64" y1="4.25" y2="124.41" gradientUnits="userSpaceOnUse"><stop offset="0" stop-color="#40C4FF"/><stop offset=".352" stop-color="#2DB5F9"/><stop offset="1" stop-color="#0091EA"/></linearGradient><path fill="url(#a)" d="M116 124H12c-4.42 0-8-3.58-8-8V12c0-4.42 3.58-8 8-8h104c4.42 0 8 3.58 8 8v104c0 4.42-3.58 8-8 8z"/><path fill="#424242" d="M116 7c2.76 0 5 2.24 5 5v104c0 2.76-2.24 5-5 5H12c-2.76 0-5-2.24-5-5V12c0-2.76 2.24-5 5-5h104m0-3H12c-4.42 0-8 3.58-8 8v104c0 4.42 3.58 8 8 8h104c4.42 0 8-3.58 8-8V12c0-4.42-3.58-8-8-8z" opacity=".2"/><path fill="#424242" d="M43.98 36c2.06 0 4.02 1.62 4.02 4.01V54c0 1.1.9 2 2 2h28c1.1 0 2-.9 2-2V40.01c0-2.39 1.96-4.01 4.02-4.01.9 0 1.82.31 2.61 1l24 23.99a4.001 4.001 0 0 1 0 6.02L86.63 91c-.79.69-1.71 1-2.61 1-2.06 0-4.02-1.62-4.02-4.01V74c0-1.1-.9-2-2-2H50c-1.1 0-2 .9-2 2v13.99c0 2.39-1.96 4.01-4.02 4.01-.9 0-1.82-.31-2.61-1l-24-23.99a4.001 4.001 0 0 1 0-6.02l24-23.99c.78-.69 1.7-1 2.61-1m0-3c-1.68 0-3.3.62-4.59 1.74l-.08.07-24 24C13.84 60.13 13 62.02 13 64s.84 3.87 2.31 5.19l23.94 23.93.07.07.08.07A6.933 6.933 0 0 0 43.98 95c3.87 0 7.02-3.14 7.02-7.01V75h26v12.99c0 3.86 3.15 7.01 7.02 7.01 1.68 0 3.3-.62 4.59-1.74l.14-.14 23.94-23.93c1.47-1.33 2.31-3.21 2.31-5.19s-.84-3.87-2.31-5.19L88.62 34.74a7.023 7.023 0 0 0-4.6-1.74C80.15 33 77 36.14 77 40.01V53H51V40.01c0-3.87-3.15-7.01-7.02-7.01z" opacity=".2"/><path fill="#FAFAFA" d="M110.63 60.99 86.63 37c-2.58-2.27-6.63-.43-6.63 3.01V54c0 1.1-.9 2-2 2H50c-1.1 0-2-.9-2-2V40.01c0-3.44-4.05-5.27-6.63-3.01l-24 23.99a4.001 4.001 0 0 0 0 6.02l24 23.99c2.59 2.26 6.63.43 6.63-3.01V74c0-1.1.9-2 2-2h28c1.1 0 2 .9 2 2v13.99c0 3.44 4.05 5.27 6.63 3.01l24-23.99a3.987 3.987 0 0 0 0-6.02z"/></svg>