<svg xmlns="http://www.w3.org/2000/svg" viewBox="0 0 128 128"><linearGradient id="a" x1="64" x2="64" y1="4.25" y2="124.41" gradientUnits="userSpaceOnUse"><stop offset="0" stop-color="#40C4FF"/><stop offset=".352" stop-color="#2DB5F9"/><stop offset="1" stop-color="#0091EA"/></linearGradient><path fill="url(#a)" d="M116 124H12c-4.42 0-8-3.58-8-8V12c0-4.42 3.58-8 8-8h104c4.42 0 8 3.58 8 8v104c0 4.42-3.58 8-8 8z"/><path fill="#424242" d="M116 7c2.76 0 5 2.24 5 5v104c0 2.76-2.24 5-5 5H12c-2.76 0-5-2.24-5-5V12c0-2.76 2.24-5 5-5h104m0-3H12c-4.42 0-8 3.58-8 8v104c0 4.42 3.58 8 8 8h104c4.42 0 8-3.58 8-8V12c0-4.42-3.58-8-8-8z" opacity=".2"/><path fill="#424242" d="M64 16c1.11 0 2.21.46 3.01 1.37l23.99 24c2.26 2.59.43 6.63-3.01 6.63H74c-1.1 0-2 .9-2 2v28c0 1.1.9 2 2 2h13.99c3.44 0 5.27 4.05 3.01 6.63l-23.99 24a3.989 3.989 0 0 1-6.02 0L37 86.63c-2.27-2.58-.43-6.63 3.01-6.63H54c1.1 0 2-.9 2-2V50c0-1.1-.9-2-2-2H40.01c-3.44 0-5.27-4.05-3.01-6.63l23.99-24c.8-.91 1.9-1.37 3.01-1.37m0-3c-1.98 0-3.87.84-5.19 2.31l-24 24-.07.08c-1.83 2.09-2.26 4.97-1.11 7.5S37.22 51 40 51h13v26H40.01c-2.78 0-5.22 1.57-6.37 4.11-1.15 2.53-.73 5.41 1.11 7.5l.14.14 23.93 23.94c1.33 1.47 3.21 2.31 5.19 2.31s3.87-.84 5.19-2.31l23.93-23.94.14-.14c1.83-2.09 2.26-4.97 1.11-7.5-1.16-2.54-3.61-4.11-6.39-4.11H75V51h12.99c2.78 0 5.22-1.57 6.37-4.11s.73-5.41-1.11-7.5l-.07-.08-.07-.07-23.92-23.93A6.978 6.978 0 0 0 64 13z" opacity=".2"/><path fill="#FAFAFA" d="M60.99 17.37 37 41.37c-2.27 2.58-.43 6.63 3.01 6.63H54c1.1 0 2 .9 2 2v28c0 1.1-.9 2-2 2H40.01c-3.44 0-5.27 4.05-3.01 6.63l23.99 24a4.001 4.001 0 0 0 6.02 0l23.99-24c2.26-2.59.43-6.63-3.01-6.63H74c-1.1 0-2-.9-2-2V50c0-1.1.9-2 2-2h13.99c3.44 0 5.27-4.05 3.01-6.63l-23.99-24a3.987 3.987 0 0 0-6.02 0z"/></svg>