<svg xmlns="http://www.w3.org/2000/svg" style="enable-background:new 0 0 128 128" viewBox="0 0 128 128" xml:space="preserve"><linearGradient id="a" x1="64" x2="64" y1="718.25" y2="837.91" gradientTransform="translate(0 -714)" gradientUnits="userSpaceOnUse"><stop offset="0" style="stop-color:#ffab40"/><stop offset="1" style="stop-color:#ff6d00"/></linearGradient><path d="M116 124H12c-4.4 0-8-3.6-8-8V12c0-4.4 3.6-8 8-8h104c4.4 0 8 3.6 8 8v104c0 4.4-3.6 8-8 8z" style="fill:url(#a)"/><g style="opacity:.2"><path d="M116 7c2.8 0 5 2.2 5 5v104c0 2.8-2.2 5-5 5H12c-2.8 0-5-2.2-5-5V12c0-2.8 2.2-5 5-5h104m0-3H12c-4.4 0-8 3.6-8 8v104c0 4.4 3.6 8 8 8h104c4.4 0 8-3.6 8-8V12c0-4.4-3.6-8-8-8z" style="fill:#424242"/></g><path d="M110.1 36H99.9c-1 0-1.9.8-1.9 1.9v23.5l-38.9-25c-1.4-.9-3.1.2-3.1 2v22.3L19 36.3c-1.4-.9-3 .2-3 2v51.4c0 1.8 1.7 2.9 3 2l37-24.4v22.3c0 1.8 1.7 2.9 3.1 2l38.9-25v23.5c0 1 .8 1.9 1.9 1.9h10.3c1 0 1.9-.8 1.9-1.9V37.9c-.1-1.1-.9-1.9-2-1.9z" style="fill:#fafafa"/><path d="M110.1 33H99.9c-2.7 0-4.9 2.2-4.9 4.9v18L60.7 33.8c-.8-.5-1.7-.8-2.6-.8-2.8 0-5.1 2.4-5.1 5.3v16.8L20.7 33.8c-.8-.5-1.7-.8-2.7-.8-2.8 0-5 2.4-5 5.3v51.3c0 2.9 2.3 5.3 5 5.3.9 0 1.9-.3 2.7-.8L53 72.9v16.8c0 2.9 2.3 5.3 5.1 5.3.9 0 1.8-.3 2.6-.8L95 72.1v18c0 2.7 2.2 4.9 4.9 4.9h10.3c2.7 0 4.9-2.2 4.9-4.9V37.9c-.1-2.7-2.3-4.9-5-4.9zm1.9 57.1c0 1-.8 1.9-1.9 1.9H99.9c-1 0-1.9-.8-1.9-1.9V66.6l-3 1.9-35.9 23.2c-.2.1-.3.2-.5.2H58c-.1 0-.3 0-.4-.1-.1 0-.1 0-.1-.1-.1 0-.2-.1-.3-.1 0 0-.1 0-.1-.1-.1-.1-.3-.2-.4-.3v-.1c-.1-.1-.2-.2-.3-.4l-.1-.1c-.1-.1-.1-.2-.1-.4V90c0-.2-.1-.4-.1-.6V67.3L19 91.7c-.2.1-.3.2-.5.2h-.7c-.1 0-.2 0-.4-.1h-.1c-.1 0-.2-.1-.3-.1 0 0-.1 0-.1-.1-.1-.1-.3-.2-.4-.3l-.1-.1c-.1-.1-.2-.2-.2-.3 0-.1-.1-.1-.1-.2-.1-.1-.1-.2-.1-.4v-.2c0-.2-.1-.4-.1-.6V38.3c0-.2 0-.4.1-.6v-.2c0-.1.1-.2.1-.4 0 0 0-.1.1-.1.1-.1.2-.3.3-.4.1-.1.2-.2.4-.3h.1c.1-.1.2-.1.4-.2h.1c.2 0 .3-.1.5-.1.1 0 .3 0 .4.1h.1c.2.1.3.1.5.2l34 22.4 3 2V38.3c0-.2 0-.4.1-.6v-.2c0-.1.1-.3.1-.4 0 0 0-.1.1-.1.1-.1.2-.3.3-.4.1-.1.3-.2.4-.3h.1c.1-.1.2-.1.4-.2h.1c.2 0 .3-.1.5-.1.1 0 .3 0 .4.1h.1c.2.1.4.1.5.2l38.9 25V37.9c0-1 .8-1.9 1.9-1.9h10.3c1 0 1.9.8 1.9 1.9v52.2h-.1z" style="opacity:.2;fill:#424242;enable-background:new"/></svg>