<svg xmlns="http://www.w3.org/2000/svg" viewBox="0 0 128 128"><linearGradient id="a" x1="64" x2="64" y1="4.25" y2="123.91" gradientUnits="userSpaceOnUse"><stop offset="0" stop-color="#FFAB40"/><stop offset="1" stop-color="#FF6D00"/></linearGradient><path fill="url(#a)" d="M116 124H12c-4.42 0-8-3.58-8-8V12c0-4.42 3.58-8 8-8h104c4.42 0 8 3.58 8 8v104c0 4.42-3.58 8-8 8z"/><path fill="#424242" d="M116 7c2.76 0 5 2.24 5 5v104c0 2.76-2.24 5-5 5H12c-2.76 0-5-2.24-5-5V12c0-2.76 2.24-5 5-5h104m0-3H12c-4.42 0-8 3.58-8 8v104c0 4.42 3.58 8 8 8h104c4.42 0 8-3.58 8-8V12c0-4.42-3.58-8-8-8z" opacity=".2"/><path fill="#424242" d="M54 36c1.1 0 2 .9 2 2v52c0 1.1-.9 2-2 2H42c-1.1 0-2-.9-2-2V38c0-1.1.9-2 2-2h12m0-3H42c-2.76 0-5 2.24-5 5v52c0 2.76 2.24 5 5 5h12c2.76 0 5-2.24 5-5V38c0-2.76-2.24-5-5-5zm32 3c1.1 0 2 .9 2 2v52c0 1.1-.9 2-2 2H74c-1.1 0-2-.9-2-2V38c0-1.1.9-2 2-2h12m0-3H74c-2.76 0-5 2.24-5 5v52c0 2.76 2.24 5 5 5h12c2.76 0 5-2.24 5-5V38c0-2.76-2.24-5-5-5z" opacity=".2"/><path fill="#FAFAFA" d="M54 92H42c-1.1 0-2-.9-2-2V38c0-1.1.9-2 2-2h12c1.1 0 2 .9 2 2v52c0 1.1-.9 2-2 2zm32 0H74c-1.1 0-2-.9-2-2V38c0-1.1.9-2 2-2h12c1.1 0 2 .9 2 2v52c0 1.1-.9 2-2 2z"/></svg>