<svg xmlns="http://www.w3.org/2000/svg" viewBox="0 0 128 128"><linearGradient id="a" x1="64" x2="64" y1="45.763" y2="82.409" gradientUnits="userSpaceOnUse"><stop offset="0" stop-color="#fff"/><stop offset=".658" stop-color="#ECECEC"/><stop offset="1" stop-color="#E0E0E0"/></linearGradient><path fill="url(#a)" d="M77.33 80H50.67C49.19 80 48 78.81 48 77.33V50.67A2.67 2.67 0 0 1 50.67 48h26.67a2.67 2.67 0 0 1 2.67 2.67v26.67A2.676 2.676 0 0 1 77.33 80z"/><path fill="#424242" d="M77 51v26H51V51h26m.33-3H50.67C49.19 48 48 49.19 48 50.67v26.67a2.67 2.67 0 0 0 2.67 2.67h26.67a2.67 2.67 0 0 0 2.67-2.67V50.67A2.678 2.678 0 0 0 77.33 48z" opacity=".2"/></svg>