<svg xmlns="http://www.w3.org/2000/svg" viewBox="0 0 128 128"><linearGradient id="a" x1="64" x2="64" y1="19.859" y2="108.27" gradientUnits="userSpaceOnUse"><stop offset="0" stop-color="#fff"/><stop offset=".658" stop-color="#ECECEC"/><stop offset="1" stop-color="#E0E0E0"/></linearGradient><path fill="url(#a)" d="M102 108H26c-3.31 0-6-2.69-6-6V26c0-3.31 2.69-6 6-6h76c3.31 0 6 2.69 6 6v76c0 3.31-2.69 6-6 6z"/><path fill="#424242" d="M102 23c1.65 0 3 1.35 3 3v76c0 1.65-1.35 3-3 3H26c-1.65 0-3-1.35-3-3V26c0-1.65 1.35-3 3-3h76m0-3H26c-3.31 0-6 2.69-6 6v76c0 3.31 2.69 6 6 6h76c3.31 0 6-2.69 6-6V26c0-3.31-2.69-6-6-6z" opacity=".2"/></svg>