<svg xmlns="http://www.w3.org/2000/svg" style="enable-background:new 0 0 128 128" viewBox="0 0 128 128" xml:space="preserve"><linearGradient id="a" x1="64" x2="64" y1="19.664" y2="106.124" gradientUnits="userSpaceOnUse"><stop offset="0" style="stop-color:#616161"/><stop offset=".827" style="stop-color:#212121"/></linearGradient><path d="M102 108H26c-3.31 0-6-2.69-6-6V26c0-3.31 2.69-6 6-6h76c3.31 0 6 2.69 6 6v76c0 3.31-2.69 6-6 6z" style="fill:url(#a)"/><linearGradient id="b" x1="64" x2="64" y1="19.478" y2="107.098" gradientUnits="userSpaceOnUse"><stop offset=".001" style="stop-color:#bfbebe"/><stop offset=".15" style="stop-color:#212121;stop-opacity:0"/><stop offset=".85" style="stop-color:#212121;stop-opacity:0"/><stop offset="1" style="stop-color:#bfbebe"/></linearGradient><path d="M102 108H26c-3.31 0-6-2.69-6-6V26c0-3.31 2.69-6 6-6h76c3.31 0 6 2.69 6 6v76c0 3.31-2.69 6-6 6z" style="opacity:.3;fill:url(#b)"/><linearGradient id="c" x1="150.697" x2="150.697" y1="276.391" y2="189.643" gradientTransform="matrix(0 1 1 0 -169.192 -86.698)" gradientUnits="userSpaceOnUse"><stop offset=".001" style="stop-color:#bfbebe"/><stop offset=".15" style="stop-color:#212121;stop-opacity:0"/><stop offset=".85" style="stop-color:#212121;stop-opacity:0"/><stop offset="1" style="stop-color:#bfbebe"/></linearGradient><path d="M20 102V26c0-3.31 2.69-6 6-6h76c3.31 0 6 2.69 6 6v76c0 3.31-2.69 6-6 6H26c-3.31 0-6-2.69-6-6z" style="opacity:.2;fill:url(#c)"/></svg>