<svg xmlns="http://www.w3.org/2000/svg" viewBox="0 0 128 128"><linearGradient id="a" x1="15.489" x2="26.289" y1="21.371" y2="44.321" gradientUnits="userSpaceOnUse"><stop offset="0" stop-color="#90CAF9"/><stop offset="1" stop-color="#E3F2FD"/></linearGradient><path fill="url(#a)" d="m27.6 31.4-2.36.63a.9.9 0 0 1-.68-.09l-1.76-1.01c-.6-.35-.6-1.22 0-1.56l1.76-1.01a.9.9 0 0 1 .68-.09l2.36.63c.48.13.97-.16 1.1-.64s-.16-.98-.64-1.11l-1.3-.34a.905.905 0 0 1-.64-1.11l.34-1.27a.91.91 0 0 0-.64-1.11h-.01a.9.9 0 0 0-1.1.64l-.6 2.27c-.06.23-.21.43-.42.55l-1.8 1.03a.9.9 0 0 1-1.35-.78v-2.42c0-.24.1-.47.26-.64l1.69-1.69c.35-.35.35-.93-.01-1.28l-.01-.01a.906.906 0 0 0-1.26 0l-.97.96a.9.9 0 0 1-1.27 0l-.97-.96a.9.9 0 0 0-1.27 0l.01.01c-.36.35-.36.93 0 1.28l1.68 1.66c.17.17.27.4.27.64v2.43a.9.9 0 0 1-1.35.78l-1.78-1.02a.893.893 0 0 1-.42-.55l-.62-2.28a.907.907 0 0 0-1.1-.64h-.01c-.48.13-.77.62-.64 1.11l.34 1.27a.91.91 0 0 1-.64 1.11l-1.3.34a.905.905 0 0 0 .46 1.75l2.36-.63a.9.9 0 0 1 .68.09l1.76 1.01c.6.35.6 1.22 0 1.56l-1.76 1.01a.9.9 0 0 1-.68.09l-2.36-.63c-.48-.13-.97.16-1.1.64s.16.98.64 1.11l1.3.34c.48.13.77.62.64 1.11l-.34 1.27c-.13.48.16.98.64 1.11h.01a.9.9 0 0 0 1.1-.64l.6-2.28c.06-.23.21-.43.42-.55l1.79-1.03a.9.9 0 0 1 1.35.78v1.6c0 .24-.1.47-.26.64l-1.7 1.69c-.35.35-.35.93 0 1.28l.01.01c.35.35.91.34 1.26 0l.97-.96a.9.9 0 0 1 1.27 0l.97.96c.35.35.91.35 1.26 0l.01-.01c.36-.35.36-.93 0-1.28l-1.67-1.66a.91.91 0 0 1-.27-.64v-1.62a.9.9 0 0 1 1.35-.78l1.78 1.02c.21.12.36.32.42.55l.61 2.28c.13.48.62.76 1.1.64h.01c.48-.13.77-.62.64-1.11l-.34-1.27a.91.91 0 0 1 .64-1.11l1.3-.34c.48-.13.77-.62.64-1.11-.11-.47-.6-.75-1.08-.62z"/><linearGradient id="b" x1="11.865" x2="19.065" y1="91.158" y2="106.46" gradientUnits="userSpaceOnUse"><stop offset="0" stop-color="#90CAF9"/><stop offset="1" stop-color="#E3F2FD"/></linearGradient><path fill="url(#b)" d="m19.94 97.84-1.57.42c-.15.04-.31.02-.45-.06l-1.18-.67a.6.6 0 0 1 0-1.04l1.18-.67c.14-.08.3-.1.45-.06l1.57.42c.32.08.65-.1.73-.42a.6.6 0 0 0-.43-.74l-.87-.23a.616.616 0 0 1-.43-.74l.23-.85a.6.6 0 0 0-.43-.74h-.01a.593.593 0 0 0-.73.43l-.4 1.52c-.04.15-.14.29-.28.37l-1.2.69c-.4.23-.9-.06-.9-.52v-1.62c0-.16.06-.31.18-.42l1.13-1.13a.6.6 0 0 0 0-.85l-.01-.01a.598.598 0 0 0-.84 0l-.65.64c-.23.23-.61.23-.84 0l-.65-.64a.598.598 0 0 0-.84 0l-.01.01c-.24.23-.24.62 0 .85l1.12 1.11c.11.11.18.27.18.43v1.62c0 .46-.5.75-.9.52l-1.19-.68a.592.592 0 0 1-.28-.36l-.41-1.52a.591.591 0 0 0-.73-.42h-.01c-.32.09-.51.42-.43.74l.23.85a.6.6 0 0 1-.43.74l-.87.23c-.32.09-.51.42-.43.74.09.32.41.51.73.42l1.57-.42c.15-.04.31-.02.45.06l1.18.67c.4.23.4.81 0 1.04l-1.18.67c-.14.08-.3.1-.45.06l-1.57-.42c-.32-.08-.65.1-.73.42a.6.6 0 0 0 .43.74l.87.23c.32.09.51.42.43.74l-.23.85a.6.6 0 0 0 .43.74h.01a.6.6 0 0 0 .73-.43l.4-1.52c.04-.15.14-.29.28-.37l1.19-.69c.4-.23.9.06.9.52v1.06c0 .16-.06.31-.18.43l-1.13 1.13c-.24.24-.24.62 0 .85l.01.01c.23.23.61.23.84 0l.65-.64c.23-.23.61-.23.84 0l.65.64c.23.23.61.23.84 0l.01-.01c.24-.23.24-.62 0-.85l-1.12-1.11a.622.622 0 0 1-.18-.43v-1.08c0-.46.5-.75.9-.52l1.19.68c.14.08.24.21.28.36l.41 1.52c.09.32.41.51.73.42h.01c.32-.09.51-.42.43-.74l-.23-.85a.6.6 0 0 1 .43-.74l.89-.22c.32-.09.51-.42.43-.74a.618.618 0 0 0-.74-.42z"/><linearGradient id="c" x1="111.87" x2="119.07" y1="77.173" y2="92.473" gradientUnits="userSpaceOnUse"><stop offset="0" stop-color="#90CAF9"/><stop offset="1" stop-color="#E3F2FD"/></linearGradient><path fill="url(#c)" d="m119.95 83.86-1.57.42c-.15.04-.31.02-.45-.06l-1.18-.67a.6.6 0 0 1 0-1.04l1.18-.67c.14-.08.3-.1.45-.06l1.57.42c.32.08.65-.1.73-.42a.6.6 0 0 0-.43-.74l-.87-.23a.616.616 0 0 1-.43-.74l.23-.85a.6.6 0 0 0-.43-.74h-.01a.593.593 0 0 0-.73.43l-.4 1.52c-.04.15-.14.29-.28.37l-1.2.69c-.4.23-.9-.06-.9-.52v-1.62c0-.16.06-.31.18-.42l1.13-1.13a.6.6 0 0 0 0-.85l-.01-.01a.598.598 0 0 0-.84 0l-.65.64c-.23.23-.61.23-.84 0l-.65-.64a.598.598 0 0 0-.84 0l-.01.01c-.24.23-.24.62 0 .85l1.12 1.11c.11.11.18.27.18.43v1.62c0 .46-.5.75-.9.52l-1.19-.68a.592.592 0 0 1-.28-.36l-.41-1.52a.591.591 0 0 0-.73-.42h-.01c-.32.09-.51.42-.43.74l.23.85a.6.6 0 0 1-.43.74l-.87.23c-.32.09-.51.42-.43.74.09.32.41.51.73.42l1.57-.42c.15-.04.31-.02.45.06l1.18.67c.4.23.4.81 0 1.04l-1.18.67c-.14.08-.3.1-.45.06l-1.57-.42c-.32-.08-.65.1-.73.42a.6.6 0 0 0 .43.74l.87.23c.32.09.51.42.43.74l-.23.85a.6.6 0 0 0 .43.74h.01a.6.6 0 0 0 .73-.43l.4-1.52c.04-.15.14-.29.28-.37l1.19-.69c.4-.23.9.06.9.52v1.06c0 .16-.06.31-.18.43l-1.13 1.13c-.24.24-.24.62 0 .85l.01.01c.23.23.61.23.84 0l.65-.64c.23-.23.61-.23.84 0l.65.64c.23.23.61.23.84 0l.01-.01c.24-.23.24-.62 0-.85l-1.12-1.11a.622.622 0 0 1-.18-.43V85.1c0-.46.5-.75.9-.52l1.19.68c.14.08.24.21.28.36l.41 1.52c.09.32.41.51.73.42h.01c.32-.09.51-.42.43-.74l-.23-.85a.6.6 0 0 1 .43-.74l.87-.23c.32-.09.51-.42.43-.74a.58.58 0 0 0-.72-.4z"/><linearGradient id="d" x1="103.04" x2="115.04" y1="8.597" y2="34.097" gradientUnits="userSpaceOnUse"><stop offset="0" stop-color="#90CAF9"/><stop offset="1" stop-color="#E3F2FD"/></linearGradient><path fill="url(#d)" d="m116.5 19.74-2.62.7c-.25.07-.52.03-.75-.1l-1.96-1.12c-.67-.38-.67-1.35 0-1.74l1.96-1.12c.23-.13.5-.17.75-.1l2.62.7c.53.14 1.08-.17 1.22-.71s-.17-1.09-.71-1.23l-1.45-.38a1 1 0 0 1-.71-1.23l.38-1.41a1 1 0 0 0-.71-1.23h-.01c-.53-.14-1.08.18-1.22.71l-.66 2.52c-.07.26-.24.48-.47.61l-1.99 1.15c-.67.38-1.5-.1-1.5-.87V12.2c0-.27.11-.52.29-.71l1.88-1.88a.999.999 0 0 0-.01-1.42l-.02-.02c-.39-.38-1.02-.38-1.4 0l-1.08 1.07c-.39.39-1.02.38-1.41 0l-1.08-1.07a.996.996 0 0 0-1.41 0l-.01.01a.99.99 0 0 0 0 1.42l1.86 1.85a1 1 0 0 1 .3.71v2.7c0 .77-.83 1.25-1.5.87l-1.98-1.13a.998.998 0 0 1-.47-.61l-.68-2.54c-.14-.53-.69-.85-1.22-.71h-.02a1 1 0 0 0-.71 1.23l.38 1.41a1 1 0 0 1-.71 1.23l-1.44.38a1 1 0 0 0-.71 1.23c.14.53.69.85 1.22.71l2.62-.7c.25-.07.52-.03.75.1l1.96 1.12c.67.38.67 1.35 0 1.74l-1.96 1.12c-.23.13-.5.17-.75.1l-2.62-.7c-.53-.14-1.08.17-1.22.71s.17 1.09.71 1.23l1.44.38a1 1 0 0 1 .71 1.23l-.38 1.41a1 1 0 0 0 .71 1.23h.01c.53.14 1.08-.18 1.22-.71l.67-2.53c.07-.26.24-.48.47-.61l1.99-1.14c.67-.38 1.5.1 1.5.87v1.77c0 .27-.11.52-.29.71l-1.89 1.88a.999.999 0 0 0 .01 1.42l.01.01c.39.38 1.02.38 1.4 0l1.08-1.07a.996.996 0 0 1 1.41 0l1.08 1.07c.39.38 1.02.39 1.41 0l.01-.01a.99.99 0 0 0 0-1.42l-1.86-1.85a1 1 0 0 1-.3-.71v-1.8c0-.77.83-1.25 1.5-.87l1.98 1.14c.23.13.4.35.47.61l.68 2.53c.14.53.69.85 1.22.71h.01a1 1 0 0 0 .71-1.23l-.38-1.41a1 1 0 0 1 .71-1.23l1.44-.38a1 1 0 0 0 .71-1.23c-.11-.51-.65-.83-1.19-.68z"/><path fill="#CFD8DC" d="M64.12 112c-32.96 0-59.71 4.8-60.11 12h120.21c-.39-7.2-27.14-12-60.1-12z"/><radialGradient id="e" cx="63.934" cy="87.394" r="37.317" gradientTransform="matrix(0 1 -1.105 0 160.5 23.46)" gradientUnits="userSpaceOnUse"><stop offset=".671" stop-color="#FAFAFA"/><stop offset=".886" stop-color="#CFD8DC"/></radialGradient><path fill="url(#e)" d="M102.62 81.19c5.12 18.77-.2 42.81-38.63 42.81S19.96 99.87 25.35 81.19c5.29-18.3 13.62-27.92 38.63-27.92s33.65 9.62 38.64 27.92z"/><path fill="#424242" d="M63.99 56.27c11.49 0 19.42 2.05 24.96 6.45 4.88 3.87 8.2 9.82 10.78 19.26 1.55 5.69 4.12 19.98-5.58 29.64-.81.81-1.09 2.02-.72 3.1a2.996 2.996 0 0 0 2.48 2c10.16 1.23 16.45 2.85 20.22 4.28H12.14c3.73-1.42 9.93-3.02 19.92-4.24a2.994 2.994 0 0 0 1.73-5.11c-3.31-3.25-10.46-12.66-5.56-29.62 4.83-16.7 11.96-25.76 35.76-25.76m0-3c-25.01 0-33.35 9.62-38.63 27.92-3.17 10.99-2.53 23.85 6.34 32.59C15.24 115.8 4.27 119.41 4.02 124h120.21c-.26-4.62-11.36-8.24-27.97-10.25 8.76-8.72 9.37-21.54 6.36-32.55C97.63 62.89 89 53.27 63.99 53.27z" opacity=".2"/><path fill="#F44336" d="M85.13 49H42.98c-2.36 0-4.6 6.58-4.6 8.93 0 .87.62 2.57 1.62 3.87v23.81c0 3.53 2.97 6.4 6.5 6.4s6.5-2.86 6.5-6.4V65.74c3 .32 6.59.51 10.71.51 22.57 0 25.57-5.96 25.57-8.31 0-2.36-1.79-8.94-4.15-8.94z"/><path fill="#424242" d="M84.53 52c.79 0 1.83 4.41 1.83 5.93-.05 1.08-4.03 5.23-22.5 5.23-3.69 0-6.86-.11-10.28-.44-.1-.01-.2.01-.3.01-.74 0-1.6.29-2.15.79-.63.56-1.13 1.37-1.13 2.22v19.87c0 1.87-1.63 3.4-3.5 3.4s-3.5-1.52-3.5-3.4v-23.8c0-.69 0-1.37-.44-1.9-.71-.86-.96-1.81-1.06-2.11.06-1.54 1.26-4.8 2.06-5.8H85m.13-3H42.98c-2.36 0-4.6 6.58-4.6 8.93 0 .87.62 2.57 1.62 3.87v23.81c0 3.53 2.97 6.4 6.5 6.4s6.5-2.86 6.5-6.4V65.74c3 .32 6.59.51 10.71.51 22.57 0 25.57-5.96 25.57-8.31 0-2.36-1.79-8.94-4.15-8.94z" opacity=".2"/><radialGradient id="f" cx="64.179" cy="59.232" r="30.289" gradientUnits="userSpaceOnUse"><stop offset=".621" stop-color="#fff"/><stop offset=".831" stop-color="#CFD8DC"/></radialGradient><circle cx="63.94" cy="37.95" r="21.48" fill="url(#f)"/><path fill="#424242" d="M63.94 19.47c10.19 0 18.48 8.29 18.48 18.48 0 5.56 0 10.37-2.15 13.49-2.32 3.36-7.66 5-16.33 5s-14.01-1.63-16.33-5c-2.15-3.12-2.15-7.92-2.15-13.49 0-10.19 8.29-18.48 18.48-18.48m0-3c-11.86 0-21.48 9.62-21.48 21.48s0 21.48 21.48 21.48 21.48-9.62 21.48-21.48-9.61-21.48-21.48-21.48z" opacity=".2"/><path fill="#424242" d="M83.47 38.78H44.53c-1.22 0-2.23-1-2.23-2.23V8.11c0-2.2 1.8-4 4-4h35.38c2.2 0 4 1.8 4 4v28.44c.01 1.23-.99 2.23-2.21 2.23z"/><path fill="#F44336" d="M42.31 24.12h43.38v6.92H42.31z"/><path fill="#424242" d="M92.21 39.18H35.79c-1.1 0-2-.9-2-2V32.4c0-1.1.9-2 2-2H92.2c1.1 0 2 .9 2 2v4.78c.01 1.1-.89 2-1.99 2z"/><circle cx="63.94" cy="80.82" r="4.26" fill="#424242"/><circle cx="54.35" cy="43.5" r="2.67" fill="#424242"/><circle cx="73.54" cy="43.5" r="2.67" fill="#424242"/><circle cx="63.94" cy="47.77" r="3.2" fill="#EF6C00"/><circle cx="63.94" cy="97.88" r="4.26" fill="#424242"/><path fill="#424242" d="M54.33 49.96c2.7 6.96 16.84 6.91 19.5-.09.51-1.36-1.66-1.94-2.17-.6-1.75 4.61-13.34 4.77-15.16.09-.52-1.34-2.7-.75-2.17.6z"/><ellipse cx="33.11" cy="73.42" fill="#B0BEC5" rx="3.21" ry="1.76" transform="rotate(-58.661 33.112 73.42)"/><path fill="#8D6E63" d="M16.51 55.07c2.98 7.25 8.47 13.78 14.37 18.87 1.45 1.26 3.58-.86 2.12-2.12-5.47-4.73-10.93-11.05-13.6-17.55-.72-1.76-3.62-.99-2.89.8z"/><path fill="#43A047" d="M8.41 52.28c.16-3.92 2.49-5.77 4-6.2 3.06-.86 4.86 0 6.74 1.73s2.04 3.49 2.38 3.48c.25 0-1.08-2.7.86-3.45 1.41-.55 2.64 1.09 2.9 1.73.71 1.73 1.49 6.74.94 8.16s-7.61 5.87-9.41 5.73c-1.79-.16-8.56-7.26-8.41-11.18z"/><path fill="#2E7D32" d="m27.58 62.02-7.24 4.77a2.42 2.42 0 0 1-3.35-.69l-.18-.27a2.42 2.42 0 0 1 .69-3.35l7.24-4.77a2.42 2.42 0 0 1 3.35.69l.18.27a2.43 2.43 0 0 1-.69 3.35z"/><ellipse cx="94.89" cy="73.42" fill="#B0BEC5" rx="1.76" ry="3.21" transform="rotate(-31.34 94.894 73.426)"/><path fill="#8D6E63" d="M108.59 54.27c-2.67 6.5-8.13 12.82-13.6 17.55-1.46 1.27.67 3.38 2.12 2.12 5.89-5.1 11.39-11.62 14.37-18.87.74-1.79-2.16-2.56-2.89-.8z"/><path fill="#43A047" d="M119.59 52.28c-.16-3.92-2.49-5.77-4-6.2-3.06-.86-4.86 0-6.74 1.73s-2.04 3.49-2.38 3.48c-.25 0 1.08-2.7-.86-3.45-1.41-.55-2.64 1.09-2.9 1.73-.71 1.73-1.49 6.74-.94 8.16.55 1.41 7.61 5.87 9.41 5.73 1.79-.16 8.56-7.26 8.41-11.18z"/><path fill="#2E7D32" d="m100.42 62.02 7.24 4.77c1.11.73 2.61.43 3.35-.69l.18-.27a2.42 2.42 0 0 0-.69-3.35l-7.24-4.77a2.42 2.42 0 0 0-3.35.69l-.18.27a2.43 2.43 0 0 0 .69 3.35z"/><path fill="#424242" d="M14.63 48.74c.7 0 1.34.21 2.5 1.28.74.68 1.04 1.21 1.28 1.75.26.59 1.05 2.23 3.13 2.23h.06c.58 0 1.14-.05 1.62-.36.18 1.27.28 2.59.18 3.09a3.072 3.072 0 0 0 1.63 3.36l-5.29 3.49c.03-.52-.08-1.04-.32-1.52a3.01 3.01 0 0 0-1.89-1.53c-.54-.3-2.12-1.62-3.73-3.66-1.79-2.27-2.41-3.92-2.39-4.47.11-2.87 1.8-3.42 1.82-3.43.53-.15 1-.23 1.4-.23m0-3c-.67 0-1.39.11-2.21.34-1.51.43-3.84 2.27-4 6.2-.15 3.86 6.41 10.8 8.33 11.14-.38.79-.36 1.75.16 2.54a2.566 2.566 0 0 0 3.57.73l6.97-4.59c1.19-.78 1.52-2.38.73-3.57a2.557 2.557 0 0 0-1.84-1.13c.36-1.73-.37-6.23-1.03-7.84-.22-.55-1.17-1.84-2.32-1.84-.19 0-.38-.11-.58-.03-1.95.76-.61 3.31-.87 3.31-.35 0-.5-1.61-2.38-3.34-1.38-1.26-2.72-1.92-4.53-1.92zm98.74 3c.4 0 .87.08 1.4.23.02 0 1.7.56 1.82 3.43.02.55-.6 2.2-2.39 4.47-1.6 2.03-3.18 3.36-3.73 3.66-.82.22-1.51.78-1.89 1.54-.24.48-.35 1-.32 1.52l-5.29-3.49a3.032 3.032 0 0 0 1.63-3.3c-.1-.5 0-1.89.18-3.16.48.32 1.04.36 1.62.36h.06c2.08 0 2.87-1.65 3.13-2.23.24-.54.54-1.14 1.28-1.82 1.16-1.07 1.8-1.21 2.5-1.21m0-3c-1.82 0-3.15.66-4.53 1.92-1.88 1.72-2.04 3.34-2.38 3.34-.25 0 1.08-2.55-.86-3.31-.2-.08-.39-.04-.58-.04-1.16 0-2.1 1.32-2.32 1.87-.66 1.61-1.39 6.13-1.03 7.86-.72.09-1.41.48-1.84 1.14-.78 1.19-.45 2.79.73 3.57l6.97 4.6a2.566 2.566 0 0 0 3.57-.73c.52-.79.54-1.75.16-2.54 1.92-.34 8.48-7.28 8.33-11.14-.16-3.92-2.49-5.77-4-6.2-.82-.23-1.55-.34-2.22-.34z" opacity=".2"/><path fill="#eee" d="M81.69 7c.54 0 1.31.57 1.31 1.11V30.4c0 1.66 1.03 2.6 2.69 2.6H91v3H37v-3h5.31c1.66 0 2.69-.94 2.69-2.6V8.11c0-.54.77-1.11 1.31-1.11H82m-.31-3H46.31C44.11 4 42 5.91 42 8.11V30h-6.21c-1.1 0-1.79 1.3-1.79 2.4v4.78c0 1.1.69 1.82 1.79 1.82H92.2c1.1 0 1.79-.72 1.79-1.82V32.4c0-1.1-.69-2.4-1.79-2.4H86V8.11C86 5.91 83.89 4 81.69 4z" opacity=".2"/></svg>