<svg xmlns="http://www.w3.org/2000/svg" style="enable-background:new 0 0 128 128" viewBox="0 0 128 128" xml:space="preserve"><radialGradient id="a" cx="56.431" cy="1429.162" r="57.704" gradientTransform="matrix(1.0146 0 0 .5359 6.745 -673.688)" gradientUnits="userSpaceOnUse"><stop offset="0" style="stop-color:#fff"/><stop offset="1" style="stop-color:#e3e3e3"/></radialGradient><ellipse cx="64" cy="92.2" rx="59.4" ry="31" style="fill:url(#a)"/><g style="opacity:.49"><linearGradient id="b" x1="63.1" x2="63.1" y1="790.604" y2="820.51" gradientTransform="translate(0 -714)" gradientUnits="userSpaceOnUse"><stop offset="0" style="stop-color:#fff"/><stop offset=".212" style="stop-color:#e2e2e2"/><stop offset=".559" style="stop-color:#b8b8b8"/><stop offset=".832" style="stop-color:#9e9e9e"/><stop offset=".995" style="stop-color:#949494"/></linearGradient><path d="M99.5 89.1c0 9.9-16.3 18.9-36.4 18.9s-36.4-9.1-36.4-18.9S43 71.2 63.1 71.2s36.4 8 36.4 17.9z" style="fill:url(#b)"/></g><g style="opacity:.2"><path d="M64 64.2c15.4 0 29.8 3.1 40.6 8.7 10.2 5.3 15.8 12.2 15.8 19.3s-5.6 13.9-15.8 19.3c-10.8 5.6-25.2 8.7-40.6 8.7s-29.8-3.1-40.6-8.7C13.2 106.2 7.6 99.4 7.6 92.2S13.2 78.3 23.4 73c10.8-5.7 25.2-8.8 40.6-8.8m0-3c-32.8 0-59.4 13.9-59.4 31s26.6 31 59.4 31 59.4-13.9 59.4-31-26.6-31-59.4-31z" style="fill:#424242"/></g><radialGradient id="c" cx="62.548" cy="794.197" r="42.384" gradientTransform="matrix(1 0 0 .9815 0 -713.367)" gradientUnits="userSpaceOnUse"><stop offset=".005" style="stop-color:#fff"/><stop offset=".276" style="stop-color:#fbfbfb"/><stop offset=".565" style="stop-color:#eee"/><stop offset=".861" style="stop-color:#d9d9d9"/><stop offset="1" style="stop-color:#ccc"/></radialGradient><path d="M113.9 56.2c-3.5-.8-9.1-.5-13.2 1.2.1-4.6-.2-7.7-.2-7.7H24.7s-5.5 50.8 37.8 50.8c14.8 0 23.9-5.8 29.5-13.5 21.4-3.8 27.6-13.2 29.1-19.5 1.5-6.7-3-10.4-7.2-11.3zm.5 12c-.6 1.1-5.7 8.2-15.9 9 0 0 3.6-15.5 11.2-15.7 7.6 0 5.3 5.7 4.7 6.7z" style="fill:url(#c)"/><linearGradient id="d" x1="62.6" x2="62.6" y1="742.365" y2="767.127" gradientTransform="translate(0 -714)" gradientUnits="userSpaceOnUse"><stop offset=".005" style="stop-color:#fff"/><stop offset=".276" style="stop-color:#fbfbfb"/><stop offset=".565" style="stop-color:#eee"/><stop offset=".861" style="stop-color:#d9d9d9"/><stop offset="1" style="stop-color:#ccc"/></linearGradient><path d="M100.7 51.7c0 9.7-17.1 17.6-38.2 17.6s-38-7.9-38-17.6 16.9-17.5 38-17.5 38.2 7.8 38.2 17.5z" style="fill:url(#d)"/><g style="opacity:.2"><path d="M62.5 37.6c20.6 0 33.4 6.5 35.1 12.7.1.5.2 1.1.2 1.3 0 .3-.1 3.4-.1 5.3 0 1 .4 2 1.3 2.5.5.4 1.1.5 1.7.5.4 0 .7-.1 1.1-.2 2.2-.9 5.2-1.4 8-1.4 1.3 0 2.5.1 3.5.3 1.8.4 3.4 1.5 4.3 2.8.8 1.3 1 2.9.6 4.8-1.1 4.9-6 13.7-26.6 17.4-.9.4-1.6.8-2 1.4-5.9 8.2-15 12.4-27.1 12.4-10.3 0-18.5-3-24.3-9.1C27.8 77.6 27.3 60.1 27.5 53v-.2c0-1.4.1-2.4.1-2.7 2-7.1 16.9-12.5 34.9-12.5m0-3c-19.5 0-35.6 5.9-37.8 15 0 0-.2 1.2-.2 3.3-.4 10.8.9 47.5 38 47.5 14.8 0 23.9-5.9 29.5-13.7 21.3-3.8 27.6-13.3 29-19.7 1.5-6.5-3-10.3-7.2-11.2-1.2-.3-2.6-.4-4.2-.4-3 0-6.3.5-9.1 1.6.1-1.9.1-5.1.1-5.4 0-.7-.2-2-.2-2-2.1-8.9-18.4-15-37.9-15z" style="fill:#424242"/></g><linearGradient id="e" x1="62.55" x2="62.55" y1="60.509" y2="81.227" gradientTransform="matrix(1 0 0 -1 0 127.89)" gradientUnits="userSpaceOnUse"><stop offset=".005" style="stop-color:#16110e"/><stop offset=".182" style="stop-color:#211611"/><stop offset=".496" style="stop-color:#3f241a"/><stop offset=".906" style="stop-color:#6f3a28"/><stop offset="1" style="stop-color:#7b402b"/></linearGradient><path d="M95.2 59.8c-6.4 5-18.7 8.2-32.6 8.2-13.8 0-26.1-3.1-32.7-8.1C31 52 45.2 45.8 62.6 45.8c17.2 0 31.4 6.2 32.6 14z" style="fill:url(#e)"/><path d="M52.9 44.4c-1 3.4 2.2 7.2 4.2 9 .2.2 0 .6-.2.5-2.4-.6-6.8-1.8-8.3-6.6-.9-2.9.4-6 3.1-10.5 1.5-2.7 2.3-5.2 2.5-8.1.2-3.1-.5-5.4-1.8-6.9-.2-.2 0-.6.3-.5 2.3 1.2 4.9 3.5 5.5 7.2.6 6.4-3.5 9.8-5.3 15.9zm13.2-1.3c-2.4 5.1 1.7 11.8 4.3 15.1.3.4-.1.9-.5.7-3.7-1.5-10.1-4.4-11.3-12.3-.7-4.7 2.2-9.3 7.4-15.7 3.1-3.8 4.9-7.6 5.9-12.1 1.1-4.7.5-8.5-1.1-11.2-.3-.4.2-.9.6-.6 3.2 2.5 6.7 6.7 6.8 12.6v.1c-.5 10-7.7 14.2-12.1 23.4z" style="opacity:.58;fill:#d7ccc8;enable-background:new"/><path d="M64.1 117.2c-21.2 0-41.5-3.7-50.1-12.4 7.8 9 27.3 15.4 50.1 15.4s42.4-6.4 50.1-15.4c-11.5 8.4-28.9 12.4-50.1 12.4z" style="fill:#fff"/></svg>