<svg xmlns="http://www.w3.org/2000/svg" viewBox="0 0 128 128"><linearGradient id="a" x1="64" x2="64" y1="4.25" y2="124.41" gradientUnits="userSpaceOnUse"><stop offset="0" stop-color="#B388FF"/><stop offset=".377" stop-color="#A175FF"/><stop offset="1" stop-color="#7C4DFF"/></linearGradient><path fill="url(#a)" d="M116 124H12c-4.42 0-8-3.58-8-8V12c0-4.42 3.58-8 8-8h104c4.42 0 8 3.58 8 8v104c0 4.42-3.58 8-8 8z"/><path fill="#424242" d="M116 7c2.76 0 5 2.24 5 5v104c0 2.76-2.24 5-5 5H12c-2.76 0-5-2.24-5-5V12c0-2.76 2.24-5 5-5h104m0-3H12c-4.42 0-8 3.58-8 8v104c0 4.42 3.58 8 8 8h104c4.42 0 8-3.58 8-8V12c0-4.42-3.58-8-8-8z" opacity=".2"/><path fill="#424242" d="M64 16c.87 0 1.83.37 2.72 1.26a1 1 0 0 1 .28.7v5.25c0 .52.39.94.91.99 8.11.79 15.51 3.99 21.47 8.89.19.15.42.23.64.23.25 0 .51-.1.7-.29l2.98-2.98c.59-.59 1.35-.88 2.12-.88 1.57 0 3.15 1.23 3.15 3.69 0 .26-.12.51-.3.69l-3.71 3.71c-.36.36-.39.94-.06 1.34 4.9 5.96 8.11 13.36 8.89 21.47a1 1 0 0 0 .99.91h5.25a1 1 0 0 1 .7.28c2.58 2.6.78 5.72-1.74 5.72h-4.21c-.52 0-.94.39-.99.91a39.821 39.821 0 0 1-8.89 21.47c-.33.4-.31.98.06 1.34l2.98 2.98c1.79 1.79.85 5.26-2.81 5.28-.26 0-.51-.12-.69-.3l-3.71-3.71a.984.984 0 0 0-.7-.29c-.23 0-.45.08-.64.23a39.745 39.745 0 0 1-21.47 8.89 1 1 0 0 0-.91.99V109c0 1.66-1.34 3-3 3-.87 0-1.83-.37-2.72-1.26a1 1 0 0 1-.28-.7v-5.25c0-.52-.39-.94-.91-.99a39.821 39.821 0 0 1-21.47-8.89c-.19-.15-.42-.23-.64-.23-.25 0-.51.1-.7.29l-2.98 2.98c-.59.59-1.35.88-2.12.88-1.57 0-3.15-1.23-3.16-3.69 0-.26.12-.51.3-.7l3.71-3.71c.36-.36.39-.94.06-1.34a39.745 39.745 0 0 1-8.89-21.47c-.06-.53-.48-.92-1-.92H19c-2.53 0-4.32-3.12-1.74-5.72a1 1 0 0 1 .7-.28h5.25c.52 0 .94-.39.99-.91.79-8.11 3.99-15.51 8.89-21.47.33-.4.31-.98-.06-1.34l-2.98-2.98c-1.79-1.79-.85-5.27 2.82-5.27.26 0 .51.12.69.3l3.71 3.71c.19.19.44.29.7.29.23 0 .45-.08.64-.23 5.96-4.9 13.36-8.11 21.47-8.89a1 1 0 0 0 .91-.99V19c.01-1.66 1.35-3 3.01-3m8.86 34.49c.26 0 .51-.1.7-.29l12.17-12.17a1 1 0 0 0-.08-1.49 34.794 34.794 0 0 0-17.55-7.28c-.04 0-.08-.01-.11-.01-.54 0-1 .45-1 1.01V47.5c0 .47.33.86.79.97 1.62.39 3.14 1.03 4.53 1.87.17.09.36.15.55.15m-17.72 0c.19 0 .38-.05.55-.15 1.39-.84 2.91-1.48 4.53-1.87.46-.11.79-.5.79-.97V30.25c0-.56-.45-1.01-1-1.01-.04 0-.08 0-.11.01-6.58.77-12.6 3.37-17.55 7.28a1 1 0 0 0-.08 1.49L54.44 50.2c.19.19.44.29.7.29M80.51 61h17.24c.59 0 1.07-.52 1-1.11-.77-6.58-3.37-12.6-7.28-17.55a.97.97 0 0 0-.77-.37c-.26 0-.52.1-.72.3L77.8 54.44c-.33.33-.38.84-.13 1.24.84 1.39 1.48 2.91 1.87 4.53.11.46.5.79.97.79m-50.26 0h17.24c.47 0 .86-.33.97-.79.39-1.62 1.03-3.14 1.87-4.53.24-.4.2-.91-.13-1.24L38.02 42.27c-.2-.2-.46-.3-.72-.3-.29 0-.58.12-.77.37a34.794 34.794 0 0 0-7.28 17.55c-.07.59.41 1.11 1 1.11M64 75c6.08 0 11-4.92 11-11s-4.92-11-11-11-11 4.92-11 11 4.92 11 11 11m26.69 11.03c.29 0 .58-.12.77-.37a34.794 34.794 0 0 0 7.28-17.55c.07-.59-.41-1.11-1-1.11H80.51c-.47 0-.86.33-.97.79-.39 1.62-1.03 3.14-1.87 4.53-.24.4-.2.91.13 1.24l12.17 12.17c.2.2.46.3.72.3m-53.38 0c.26 0 .52-.1.72-.3L50.2 73.56c.33-.33.38-.84.13-1.24-.84-1.39-1.48-2.91-1.87-4.53-.11-.46-.5-.79-.97-.79H30.25c-.59 0-1.07.52-1 1.11.77 6.58 3.37 12.6 7.28 17.55.2.25.49.37.78.37M60 98.76c.54 0 1-.45 1-1.01V80.51c0-.47-.33-.86-.79-.97-1.62-.39-3.14-1.03-4.53-1.87-.17-.1-.36-.15-.55-.15-.26 0-.51.1-.7.29L42.27 89.98a1 1 0 0 0 .08 1.49 34.794 34.794 0 0 0 17.55 7.28c.03 0 .07.01.1.01m8 0c.04 0 .08 0 .11-.01 6.58-.77 12.6-3.37 17.55-7.28a1 1 0 0 0 .08-1.49L73.56 77.8a.984.984 0 0 0-.7-.29c-.19 0-.38.05-.55.15-1.39.84-2.91 1.48-4.53 1.87-.46.11-.79.5-.79.97v17.24c.01.56.46 1.02 1.01 1.02M64 13c-1.6 0-3.11.62-4.24 1.76A5.928 5.928 0 0 0 58 19v2.43a42.69 42.69 0 0 0-19.86 8.23l-2.45-2.45a4.003 4.003 0 0 0-2.81-1.18c-2.87.01-5.26 1.49-6.24 3.86a5.975 5.975 0 0 0 1.3 6.53l1.72 1.72A42.69 42.69 0 0 0 21.43 58h-3.47c-1.06 0-2.1.43-2.83 1.17-2.02 2.03-2.66 4.77-1.67 7.14A5.984 5.984 0 0 0 19 70h2.43a42.69 42.69 0 0 0 8.23 19.86l-2.45 2.45c-.75.75-1.18 1.78-1.18 2.83.02 4.34 3.18 6.68 6.16 6.68 1.6 0 3.11-.62 4.24-1.76l1.72-1.72a42.69 42.69 0 0 0 19.86 8.23v3.47c0 1.06.43 2.1 1.17 2.83 1.38 1.37 3.1 2.13 4.83 2.13 3.31 0 6-2.69 6-6v-2.43a42.69 42.69 0 0 0 19.86-8.23l2.45 2.45c.75.75 1.77 1.18 2.81 1.18 2.88-.01 5.26-1.49 6.24-3.87.93-2.25.41-4.81-1.31-6.53l-1.72-1.72a42.69 42.69 0 0 0 8.23-19.86H109c2.43 0 4.61-1.45 5.54-3.7.99-2.37.35-5.11-1.67-7.14a4.029 4.029 0 0 0-2.83-1.17h-3.47a42.69 42.69 0 0 0-8.23-19.86l2.45-2.45c.75-.75 1.18-1.78 1.18-2.82-.01-4.34-3.18-6.69-6.15-6.69-1.6 0-3.11.62-4.24 1.76l-1.72 1.72A42.69 42.69 0 0 0 70 21.41v-3.47c0-1.06-.42-2.09-1.16-2.83C67.46 13.76 65.74 13 64 13zM46.03 37.54c3.62-2.46 7.69-4.15 11.97-4.97v13.4c-.86.28-1.7.63-2.5 1.03l-9.47-9.46zM70 45.98v-13.4c4.28.82 8.36 2.51 11.97 4.97l-9.47 9.47c-.8-.41-1.64-.76-2.5-1.04zm10.99 9.52 9.47-9.47c2.46 3.62 4.15 7.69 4.97 11.97h-13.4c-.29-.86-.64-1.7-1.04-2.5zM32.57 58a31.94 31.94 0 0 1 4.97-11.97l9.47 9.47c-.4.81-.75 1.64-1.03 2.5H32.57zM64 72c-4.41 0-8-3.59-8-8s3.59-8 8-8 8 3.59 8 8-3.59 8-8 8zm18.02-2h13.4a31.94 31.94 0 0 1-4.97 11.97l-9.47-9.47c.41-.8.76-1.64 1.04-2.5zm-49.45 0h13.4c.28.86.63 1.7 1.03 2.5l-9.47 9.47A32.084 32.084 0 0 1 32.57 70zm13.46 20.46 9.47-9.47c.81.4 1.64.75 2.5 1.03v13.4c-4.28-.81-8.36-2.5-11.97-4.96zM70 82.02c.86-.28 1.7-.63 2.5-1.03l9.47 9.47A32.007 32.007 0 0 1 70 95.43V82.02z" opacity=".2"/><path fill="#FAFAFA" d="M110.74 61.28a1 1 0 0 0-.7-.28h-5.25c-.52 0-.94-.39-.99-.91a39.821 39.821 0 0 0-8.89-21.47c-.33-.4-.31-.98.06-1.34l3.71-3.71c.18-.18.3-.43.3-.69-.01-3.66-3.49-4.6-5.27-2.82l-2.98 2.98c-.36.36-.94.39-1.34.06a39.745 39.745 0 0 0-21.47-8.89c-.53-.06-.92-.48-.92-1v-5.25a1 1 0 0 0-.28-.7C64.12 14.68 61 16.47 61 19v4.21c0 .52-.39.94-.91.99-8.11.79-15.51 3.99-21.47 8.89-.4.33-.98.31-1.34-.06l-3.71-3.71a.995.995 0 0 0-.69-.3c-3.66.01-4.6 3.49-2.82 5.27l2.98 2.98c.36.36.39.94.06 1.34a39.745 39.745 0 0 0-8.89 21.47c-.06.53-.48.92-1 .92h-5.25a1 1 0 0 0-.7.28C14.68 63.88 16.47 67 19 67h4.21c.52 0 .94.39.99.91.79 8.11 3.99 15.51 8.89 21.47.33.4.31.98-.06 1.34l-3.71 3.71c-.18.18-.3.44-.3.7.01 3.66 3.49 4.6 5.28 2.81l2.98-2.98c.36-.36.94-.39 1.34-.06 5.96 4.9 13.36 8.11 21.47 8.89a1 1 0 0 1 .91.99v5.25c0 .26.1.52.28.7 2.6 2.58 5.72.78 5.72-1.74v-4.21c0-.52.39-.94.91-.99 8.11-.79 15.51-3.99 21.47-8.89.4-.33.98-.31 1.34.06l3.71 3.71c.18.18.44.3.7.3 3.66-.01 4.6-3.49 2.81-5.28l-2.98-2.98a.997.997 0 0 1-.06-1.34c4.9-5.96 8.11-13.36 8.89-21.47a1 1 0 0 1 .99-.91H109c2.53.01 4.32-3.11 1.74-5.71zM67 30.25c0-.59.52-1.07 1.11-1 6.58.77 12.6 3.37 17.55 7.28a1 1 0 0 1 .08 1.49L73.56 50.2c-.33.33-.84.38-1.24.13-1.39-.84-2.91-1.48-4.53-1.87-.46-.11-.79-.5-.79-.97V30.25zm-24.66 6.28a34.794 34.794 0 0 1 17.55-7.28c.59-.07 1.11.41 1.11 1v17.24c0 .47-.33.86-.79.97-1.62.39-3.14 1.03-4.53 1.87-.4.24-.91.2-1.24-.13L42.27 38.02c-.42-.42-.4-1.12.07-1.49zm-5.81 5.81a1 1 0 0 1 1.49-.08L50.2 54.44c.33.33.38.84.13 1.24-.84 1.39-1.48 2.91-1.87 4.53-.11.46-.5.79-.97.79H30.25c-.59 0-1.07-.52-1-1.11.77-6.58 3.37-12.6 7.28-17.55zm1.49 43.39a1 1 0 0 1-1.49-.08 34.794 34.794 0 0 1-7.28-17.55c-.07-.59.41-1.11 1-1.11h17.24c.47 0 .86.33.97.79.39 1.62 1.03 3.14 1.87 4.53.24.4.2.91-.13 1.24L38.02 85.73zM61 97.75c0 .59-.52 1.07-1.11 1-6.58-.77-12.6-3.37-17.55-7.28a1 1 0 0 1-.08-1.49L54.44 77.8c.33-.33.84-.38 1.24-.13 1.39.84 2.91 1.48 4.53 1.87.46.11.79.5.79.97v17.24zM64 75c-6.08 0-11-4.92-11-11s4.92-11 11-11 11 4.92 11 11-4.92 11-11 11zm21.66 16.47a34.794 34.794 0 0 1-17.55 7.28c-.59.07-1.11-.41-1.11-1V80.51c0-.47.33-.86.79-.97 1.62-.39 3.14-1.03 4.53-1.87.4-.24.91-.2 1.24.13l12.17 12.17c.42.43.4 1.13-.07 1.5zm5.81-5.81a1 1 0 0 1-1.49.08L77.8 73.56a.997.997 0 0 1-.13-1.24c.84-1.39 1.48-2.91 1.87-4.53.11-.46.5-.79.97-.79h17.24c.59 0 1.07.52 1 1.11-.77 6.58-3.37 12.6-7.28 17.55zM97.75 61H80.51c-.47 0-.86-.33-.97-.79-.39-1.62-1.03-3.14-1.87-4.53-.24-.4-.2-.91.13-1.24l12.17-12.17a1 1 0 0 1 1.49.08 34.794 34.794 0 0 1 7.28 17.55c.08.58-.4 1.1-.99 1.1z"/></svg>