<svg xmlns="http://www.w3.org/2000/svg" viewBox="0 0 128 128"><linearGradient id="a" x1="64" x2="64" y1="4" y2="123.15" gradientUnits="userSpaceOnUse"><stop offset="0" stop-color="#EC407A"/><stop offset=".29" stop-color="#E63B76"/><stop offset=".664" stop-color="#D62B6A"/><stop offset=".995" stop-color="#C2185B"/></linearGradient><circle cx="64" cy="64" r="60" fill="url(#a)"/><path fill="#424242" d="M64 7c31.43 0 57 25.57 57 57s-25.57 57-57 57S7 95.43 7 64 32.57 7 64 7m0-3C30.86 4 4 30.86 4 64s26.86 60 60 60 60-26.86 60-60S97.14 4 64 4z" opacity=".2"/><path fill="#424242" d="M34.98 29.08c.82 0 1.7.25 2.56.76 7.11 4.26 12.43 15.52 13.47 29.24A1 1 0 0 0 52 60h24c.52 0 .95-.41.99-.93 1.07-13.99 6.58-25.42 13.91-29.48.61-.34 1.26-.5 1.89-.5 2.05 0 3.94 1.64 4 3.9.04 1.49-.8 2.9-2.1 3.63-3.99 2.26-8.59 10.49-9.66 22.28-.05.58.42 1.09 1 1.09h10.58c2.09 0 3.95 1.53 4.15 3.61.24 2.39-1.63 4.4-3.97 4.4H86.03c-.59 0-1.05.51-1 1.09 1.07 11.89 5.75 20.15 9.75 22.34 1.53.83 2.31 2.65 1.89 4.41-.47 2.01-1.95 3.09-3.66 3.09-.82 0-1.7-.25-2.55-.76-7.11-4.26-12.43-15.52-13.47-29.24-.04-.52-.47-.93-.99-.93H52c-.52 0-.95.41-.99.93-1.07 13.99-6.58 25.42-13.91 29.48-.61.34-1.26.5-1.89.5-2.05 0-3.94-1.64-4-3.9-.04-1.49.8-2.9 2.1-3.63 3.99-2.26 8.59-10.49 9.66-22.28.05-.58-.42-1.09-1-1.09H31.21c-2.34 0-4.21-2.01-3.98-4.39.2-2.08 2.06-3.61 4.15-3.61h10.59c.59 0 1.05-.51 1-1.09-1.07-11.89-5.75-20.15-9.75-22.34-1.53-.83-2.31-2.65-1.89-4.41.47-2.02 1.94-3.09 3.65-3.09m0-3c-3.22 0-5.81 2.12-6.58 5.4-.72 3.07.66 6.25 3.38 7.73C34.39 40.63 38.39 47 39.74 57h-8.35c-3.67 0-6.8 2.78-7.14 6.32-.19 1.97.46 3.93 1.79 5.39A6.99 6.99 0 0 0 31.22 71h8.53c-.71 5.32-2.11 9.16-3.22 11.53-2.11 4.51-4.12 5.91-4.69 6.23-2.31 1.31-3.69 3.73-3.62 6.33.11 3.76 3.25 6.81 7 6.81 1.16 0 2.32-.3 3.34-.87 8.03-4.45 13.8-15.86 15.27-30.03h20.33c1.44 13.8 7.01 25.09 14.76 29.74 1.29.78 2.71 1.19 4.1 1.19 3.22 0 5.81-2.12 6.58-5.4.72-3.07-.66-6.25-3.38-7.73-2.61-1.43-6.61-7.8-7.96-17.8h8.53c1.97 0 3.86-.84 5.18-2.29a7.084 7.084 0 0 0 1.79-5.39c-.34-3.54-3.47-6.32-7.14-6.32h-8.35c.71-5.32 2.11-9.16 3.22-11.54 2.11-4.51 4.12-5.91 4.69-6.23 2.31-1.31 3.69-3.73 3.62-6.33-.11-3.76-3.25-6.81-7-6.81-1.16 0-2.32.3-3.34.87C81.41 31.42 75.64 42.83 74.17 57H53.83c-1.44-13.79-7.01-25.09-14.76-29.74-1.29-.77-2.7-1.18-4.09-1.18z" opacity=".2"/><path fill="#FAFAFA" d="M96.62 60H86.04c-.59 0-1.05-.51-1-1.09 1.07-11.79 5.67-20.02 9.66-22.28 1.3-.74 2.14-2.14 2.1-3.63-.09-2.96-3.28-4.85-5.89-3.41C83.59 33.65 78.07 45.08 77 59.07c-.05.52-.48.93-1 .93H52c-.52 0-.95-.41-.99-.93-1.04-13.71-6.37-24.97-13.47-29.24-2.63-1.58-5.51-.65-6.21 2.33-.41 1.76.36 3.57 1.89 4.41 4.01 2.18 8.68 10.45 9.75 22.34.05.58-.42 1.09-1 1.09H31.38c-2.09 0-3.95 1.53-4.15 3.61A3.998 3.998 0 0 0 31.21 68h10.76c.59 0 1.05.51 1 1.09-1.07 11.79-5.67 20.02-9.66 22.28-1.3.74-2.14 2.14-2.1 3.63.09 2.96 3.28 4.85 5.89 3.41 7.32-4.06 12.84-15.49 13.91-29.48.04-.52.47-.93.99-.93h24c.52 0 .95.41.99.93 1.04 13.71 6.37 24.97 13.47 29.24 2.63 1.57 5.51.65 6.21-2.33.41-1.76-.36-3.57-1.89-4.41-4.01-2.18-8.68-10.45-9.75-22.34-.05-.58.42-1.09 1-1.09h10.76c2.34 0 4.21-2.01 3.98-4.39-.2-2.08-2.06-3.61-4.15-3.61z"/></svg>