<svg xmlns="http://www.w3.org/2000/svg" viewBox="0 0 128 128"><linearGradient id="a" x1="64" x2="64" y1="37" y2="130.84" gradientUnits="userSpaceOnUse"><stop offset="0" stop-color="#FFEB3B"/><stop offset=".419" stop-color="#FFDC28"/><stop offset=".995" stop-color="#FFC107"/></linearGradient><path fill="url(#a)" d="m56.84 8.42-51.99 104C2.2 117.74 6.06 124 12.01 124h103.98c5.95 0 9.82-6.26 7.16-11.58l-51.99-104c-2.95-5.89-11.37-5.89-14.32 0z"/><path fill="#424242" d="M64 7c1.93 0 3.61 1.03 4.47 2.76l51.99 104c.79 1.58.71 3.36-.22 4.86-.93 1.51-2.48 2.37-4.25 2.37H12.01c-1.77 0-3.32-.86-4.25-2.37s-1.01-3.28-.22-4.86l51.99-104C60.39 8.03 62.07 7 64 7m0-3c-2.84 0-5.68 1.47-7.16 4.42l-51.99 104C2.2 117.74 6.06 124 12.01 124h103.98c5.95 0 9.82-6.26 7.16-11.58l-51.99-104C69.68 5.47 66.84 4 64 4z" opacity=".2"/><g fill="#424242" opacity=".2"><path d="M64 34c4.63 0 8.29 3.66 7.98 7.98l-3.42 48.03C68.4 92.25 66.41 94 64 94s-4.4-1.75-4.56-3.99l-3.42-48.03C55.71 37.66 59.37 34 64 34m0-3c-3.14 0-6.14 1.28-8.23 3.52-1.97 2.12-2.95 4.84-2.75 7.67l3.42 48.03c.28 3.8 3.6 6.78 7.56 6.78s7.28-2.98 7.55-6.78l3.42-48.03c.2-2.83-.77-5.55-2.75-7.67C70.14 32.28 67.14 31 64 31z"/><path d="M64 98c3.31 0 6 2.69 6 6s-2.69 6-6 6-6-2.69-6-6 2.69-6 6-6m0-3c-4.96 0-9 4.04-9 9s4.04 9 9 9 9-4.04 9-9-4.04-9-9-9z"/></g><g fill="url(#b)"><linearGradient id="b" x1="64" x2="64" y1="32.25" y2="110.94" gradientUnits="userSpaceOnUse"><stop offset="0" stop-color="#424242"/><stop offset="1" stop-color="#212121"/></linearGradient><path d="M64 34c4.63 0 8.29 3.66 7.98 7.98l-3.42 48.03C68.4 92.25 66.41 94 64 94s-4.4-1.75-4.56-3.99l-3.42-48.03C55.71 37.66 59.37 34 64 34z"/><circle cx="64" cy="104" r="6"/></g></svg>