<svg xmlns="http://www.w3.org/2000/svg" style="enable-background:new 0 0 128 128" viewBox="0 0 128 128" xml:space="preserve"><path d="M120 76H8l12-40h88z" style="fill:#b71c1c"/><g style="opacity:.2"><path d="M105.8 39 116 73H12l10.2-34h83.6m2.2-3H20L8 76h112l-12-40z" style="fill:#424242"/></g><radialGradient id="a" cx="22.298" cy="725.286" r="21.528" gradientTransform="matrix(1 0 0 .9997 0 -713.978)" gradientUnits="userSpaceOnUse"><stop offset="0" style="stop-color:#e53935"/><stop offset=".191" style="stop-color:#dd3431"/><stop offset=".486" style="stop-color:#c82625"/><stop offset=".666" style="stop-color:#b71c1c"/><stop offset="1" style="stop-color:#b71c1c"/></radialGradient><path d="M27.6 16.9h-2.5v-3.5c0-1.1-.9-2-2-2s-2 .9-2 2v3.5h-2.5c-1.1 0-2 .9-2 2s.9 2 2 2h2.5V30c0 1.1.9 2 2 2s2-.9 2-2v-9.1h2.5c1.1 0 2-.9 2-2s-.9-2-2-2z" style="fill:url(#a)"/><radialGradient id="b" cx="104.16" cy="725.286" r="21.528" gradientTransform="matrix(1 0 0 .9997 0 -713.978)" gradientUnits="userSpaceOnUse"><stop offset="0" style="stop-color:#e53935"/><stop offset=".191" style="stop-color:#dd3431"/><stop offset=".486" style="stop-color:#c82625"/><stop offset=".666" style="stop-color:#b71c1c"/><stop offset="1" style="stop-color:#b71c1c"/></radialGradient><path d="M109.5 16.9H107v-3.5c0-1.1-.9-2-2-2s-2 .9-2 2v3.5h-2.5c-1.1 0-2 .9-2 2s.9 2 2 2h2.5V30c0 1.1.9 2 2 2s2-.9 2-2v-9.1h2.5c1.1 0 2-.9 2-2s-.9-2-2-2z" style="fill:url(#b)"/><radialGradient id="c" cx="312.693" cy="-749.131" r="118.61" gradientTransform="matrix(0 .9997 -.6157 0 -396.761 -304.847)" gradientUnits="userSpaceOnUse"><stop offset="0" style="stop-color:#eee"/><stop offset=".477" style="stop-color:#eee"/><stop offset=".633" style="stop-color:#e4e4e4"/><stop offset=".898" style="stop-color:#c9c9c9"/><stop offset="1" style="stop-color:#bdbdbd"/></radialGradient><path d="M64 8 36 60v64h56V60z" style="fill:url(#c)"/><radialGradient id="d" cx="63.646" cy="715.693" r="64.919" gradientTransform="matrix(1 0 0 .9997 0 -713.978)" gradientUnits="userSpaceOnUse"><stop offset="0" style="stop-color:#ef5350"/><stop offset=".272" style="stop-color:#e04341"/><stop offset=".629" style="stop-color:#c62828"/><stop offset="1" style="stop-color:#c62828"/></radialGradient><path d="M94.2 66.7c-1.1 0-2.1-.6-2.7-1.6L64.6 15c-.4-.7-1.4-.7-1.8 0L36.4 64.2c-.8 1.5-2.6 2-4.1 1.2s-2-2.6-1.2-4.1l30-55.7c.5-1 1.5-1.6 2.6-1.6s2.1.6 2.6 1.6l30.5 56.7c.8 1.5.2 3.3-1.2 4.1-.4.2-.9.3-1.4.3z" style="fill:url(#d)"/><linearGradient id="e" x1="100" x2="71.331" y1="778" y2="778" gradientTransform="translate(0 -714)" gradientUnits="userSpaceOnUse"><stop offset="0" style="stop-color:#757575"/><stop offset="1" style="stop-color:#757575;stop-opacity:0"/></linearGradient><path d="M96.9 62.3 66.4 5.6c-.5-.8-1.3-1.4-2.2-1.6v120H92V65.7c.6.6 1.4 1 2.2 1 .5 0 1-.1 1.4-.4 1.5-.7 2-2.5 1.3-4z" style="opacity:.5;fill:url(#e);enable-background:new"/><linearGradient id="f" x1="24" x2="52.736" y1="778" y2="778" gradientTransform="translate(0 -714)" gradientUnits="userSpaceOnUse"><stop offset="0" style="stop-color:#757575"/><stop offset="1" style="stop-color:#757575;stop-opacity:0"/></linearGradient><path d="M63.7 4c-1.1 0-2.1.6-2.6 1.6l-30 55.7c-.8 1.5-.2 3.3 1.2 4.1 1.2.7 2.7.4 3.7-.6V124h28.2V4h-.5z" style="opacity:.5;fill:url(#f);enable-background:new"/><g style="opacity:.2"><path d="M46.6 38.8 63.7 7l17.1 31.8h3.4L66.4 5.6c-.5-1-1.5-1.6-2.6-1.6s-2.1.6-2.6 1.6l-18 33.2h3.4zM89 120.7v.3H39v-.3h-3v3.3h56v-3.3z" style="fill:#424242"/></g><path d="M90.7 106.3h-6.3c-.5 0-.9-.5-.9-1v-2.9c0-.6.4-1 .9-1h6.3c.5 0 .9.5.9 1v2.9c0 .5-.4 1-.9 1zm-47 13.5h-4.9c-.4 0-.7-.4-.7-.8v-2.3c0-.4.3-.8.7-.8h4.9c.4 0 .7.4.7.8v2.3c0 .4-.3.8-.7.8zm10.2-27.4H49c-.4 0-.7-.4-.7-.8v-2.3c0-.4.3-.8.7-.8h4.9c.4 0 .7.4.7.8v2.3c0 .5-.3.8-.7.8z" style="opacity:.5;fill:#bdbdbd;enable-background:new"/><path d="M46.2 113.7h-8.4c-.7 0-1.3-.5-1.3-1.1v-3c0-.6.6-1.1 1.3-1.1h8.4c.7 0 1.3.5 1.3 1.1v3c-.1.6-.7 1.1-1.3 1.1zm39.1-13.5h-6.8c-.8 0-1.5-.6-1.5-1.4v-2.3c0-.8.7-1.4 1.5-1.4h6.8c.8 0 1.5.6 1.5 1.4v2.3c0 .7-.7 1.4-1.5 1.4zm-5.8 17h-6.8c-.8 0-1.5-.6-1.5-1.4v-2.3c0-.8.7-1.4 1.5-1.4h6.8c.8 0 1.5.6 1.5 1.4v2.3c0 .8-.6 1.4-1.5 1.4zM51.7 86.4h-6.8c-.8 0-1.5-.6-1.5-1.4v-2.3c0-.8.7-1.4 1.5-1.4h6.8c.8 0 1.5.6 1.5 1.4V85c0 .7-.7 1.4-1.5 1.4z" style="opacity:.2;fill:#bdbdbd;enable-background:new"/><radialGradient id="g" cx="271.013" cy="-1152.198" r="99.22" gradientTransform="matrix(0 .9997 -.3938 0 -430.937 -239.775)" gradientUnits="userSpaceOnUse"><stop offset="0" style="stop-color:#eee"/><stop offset=".453" style="stop-color:#eee"/><stop offset=".598" style="stop-color:#e8e8e8"/><stop offset=".788" style="stop-color:#d8d8d8"/><stop offset="1" style="stop-color:#bdbdbd"/></radialGradient><path d="M23 31 7 75v49h32V75z" style="fill:url(#g)"/><radialGradient id="h" cx="22.632" cy="742.202" r="49.032" gradientTransform="matrix(1 0 0 .9997 0 -713.978)" gradientUnits="userSpaceOnUse"><stop offset="0" style="stop-color:#ef5350"/><stop offset=".433" style="stop-color:#e04341"/><stop offset="1" style="stop-color:#c62828"/></radialGradient><path d="M39 78c-1.2 0-2.4-.8-2.8-2L23.9 42.4c-.3-.9-1.6-.9-1.9 0L9.8 76c-.6 1.6-2.4 2.4-4 1.7-1.5-.6-2.1-2.4-1.6-3.9L20.1 30c.4-1.2 1.6-2 2.8-2s2.4.8 2.8 2l15.9 43.8c.6 1.5-.1 3.3-1.6 3.9-.3.2-.7.3-1 .3z" style="fill:url(#h)"/><radialGradient id="i" cx="353.084" cy="-1152.198" r="99.22" gradientTransform="matrix(0 .9997 -.3938 0 -348.87 -321.813)" gradientUnits="userSpaceOnUse"><stop offset="0" style="stop-color:#eee"/><stop offset=".453" style="stop-color:#eee"/><stop offset=".598" style="stop-color:#e8e8e8"/><stop offset=".788" style="stop-color:#d8d8d8"/><stop offset="1" style="stop-color:#bdbdbd"/></radialGradient><path d="M105 31 89 75v49h32V75z" style="fill:url(#i)"/><radialGradient id="j" cx="104.7" cy="742.202" r="49.032" gradientTransform="matrix(1 0 0 .9997 0 -713.978)" gradientUnits="userSpaceOnUse"><stop offset="0" style="stop-color:#ef5350"/><stop offset=".433" style="stop-color:#e04341"/><stop offset="1" style="stop-color:#c62828"/></radialGradient><path d="M121 78c-1.2 0-2.4-.8-2.8-2L106 42.4c-.3-.9-1.6-.9-1.9 0L91.9 76c-.6 1.6-2.4 2.4-4 1.7-1.5-.6-2.1-2.4-1.6-3.9L102.2 30c.4-1.2 1.6-2 2.8-2s2.4.8 2.8 2l15.9 43.9c.6 1.5-.1 3.3-1.6 3.9-.3.1-.7.2-1.1.2z" style="fill:url(#j)"/><g style="opacity:.2"><path d="m23 31 15.9 43.8v.2h-3v46H10V75H7v-.2L23 31m0-3c-1.3 0-2.4.8-2.8 2l-16 43.8c-.5 1.5.1 3.3 1.6 3.9.4.2.8.3 1.2.3v46h32V78c.4 0 .8-.1 1.2-.2 1.5-.6 2.2-2.4 1.6-3.9L25.8 30c-.4-1.2-1.6-2-2.8-2z" style="fill:#424242"/></g><g style="opacity:.2"><path d="m105 31 16 43.8v.2h-3v46H92V75h-2.9v-.2L105 31m0-3c-1.3 0-2.4.8-2.8 2L86.3 73.8c-.6 1.5.1 3.3 1.6 3.9.4.2.8.2 1.2.2v46h32V78c.4 0 .8-.1 1.2-.2 1.5-.6 2.2-2.4 1.6-3.9l-16-43.9c-.5-1.2-1.6-2-2.9-2z" style="fill:#424242"/></g><path d="M35 91.8h-5.3c-.4 0-.8-.4-.8-.9v-2.4c0-.5.4-.9.8-.9H35c.4 0 .8.4.8.9V91c0 .5-.4.8-.8.8zm53 1.5h-6.8c-.6 0-1-.5-1-1.1V89c0-.6.5-1.1 1-1.1H88c.6 0 1 .5 1 1.1v3.2c0 .6-.5 1.1-1 1.1zm-68.3 26.5h-4.9c-.4 0-.7-.4-.7-.8v-2.3c0-.4.3-.8.7-.8h4.9c.4 0 .7.4.7.8v2.3c0 .4-.3.8-.7.8z" style="opacity:.5;fill:#bdbdbd;enable-background:new"/><path d="M17.3 114.1H11c-.5 0-.9-.5-.9-1.1v-3.1c0-.6.4-1.1.9-1.1h6.3c.5 0 1 .5 1 1.1v3.1c-.1.6-.5 1.1-1 1.1z" style="opacity:.2;fill:#bdbdbd;enable-background:new"/><path d="M111.4 117.5h-4.9c-.4 0-.7-.4-.7-.8v-2.3c0-.4.3-.8.7-.8h4.9c.4 0 .7.4.7.8v2.3c0 .4-.3.8-.7.8z" style="opacity:.5;fill:#bdbdbd;enable-background:new"/><path d="M116 111.8h-6.3c-.5 0-.9-.5-.9-1.1v-3.1c0-.6.4-1.1.9-1.1h6.3c.5 0 .9.5.9 1.1v3.1c0 .6-.4 1.1-.9 1.1z" style="opacity:.2;fill:#bdbdbd;enable-background:new"/><path d="M76 124H52v-16c0-6.6 5.4-12 12-12s12 5.4 12 12v16z" style="fill:#4fc3f7"/><path d="M80 58c0 8.8-7.2 16-16 16s-16-7.2-16-16 7.2-16 16-16 16 7.2 16 16z" style="fill:#fafafa"/><path d="M78.2 58c0 7.9-6.4 14.3-14.3 14.3S49.6 65.9 49.6 58 56.1 43.7 64 43.7 78.2 50.1 78.2 58z" style="fill:#e0e0e0"/><radialGradient id="k" cx="64" cy="772.21" r="13.067" gradientTransform="matrix(1 0 0 .9997 0 -713.978)" gradientUnits="userSpaceOnUse"><stop offset="0" style="stop-color:#81d4fa"/><stop offset="1" style="stop-color:#039be5"/></radialGradient><path d="M77.1 58c0 7.2-5.8 13.1-13.1 13.1-7.2 0-13.1-5.8-13.1-13.1S56.7 44.9 64 44.9c7.2 0 13.1 5.9 13.1 13.1z" style="fill:url(#k)"/><path d="M20.9 84.2H23l-.1-3.9h-2z" style="fill:#673ab7"/><path d="M18.4 80.8c0 .1-.1.1-.2.2-.6.9-1.2 2-1.7 3.3h1.9v-3.5z" style="fill:#03a9f4"/><path d="M20.9 84.2v-4h-2.1c-.1.2-.2.3-.4.5v3.5h2.5z" style="fill:#00e5ff"/><path d="M20.9 78c-.6.5-1.3 1.2-2 2.1 0 .1-.1.1-.1.2h2.1V78z" style="fill:#00bcd4"/><path d="M23 88.7h-4.6v4.5h4.7z" style="fill:#651fff"/><path d="M20.9 84.2v4.5H23v-4.5z" style="fill:#2196f3"/><path d="M18.4 97.7h2.5v4h-2.5z" style="fill:#3f51b5"/><path d="M18.4 93.2h2.5v4.5h-2.5z" style="fill:#4caf50"/><path d="m22.9 80.3-.1-3.6s-.8.4-1.9 1.4v2.3h2v-.1z" style="fill:#009688"/><path d="M20.9 101.7h2.4l-.1-4h-2.3z" style="fill:#2196f3"/><path d="M20.9 104.4h2.4v-2.7h-2.4z" style="fill:#304ffe"/><path d="M20.9 97.7h2.3l-.1-4.5h-2.2z" style="fill:#9c27b0"/><path d="M18.4 84.2h-1.9c-.5 1.3-.9 2.8-1 4.5h5.4v-4.5h-2.5z" style="fill:#64dd17"/><path d="M15.4 93.2h3v4.5h-3z" style="fill:#00bcd4"/><path d="M18.4 88.7h-2.9c-.1.6-.1 1.2-.1 1.8v2.7h3v-4.5z" style="fill:#03a9f4"/><path d="M18.4 101.7h-3v2.7h5.5v-2.7z" style="fill:#1de9b6"/><path d="M15.4 97.7h3v4h-3z" style="fill:#9c27b0"/><path d="M15.4 94.6h1l3.5-7.4H18l-2.6 4.9v1.1z" style="fill:#18ffff"/><path d="m19.9 87.2 3-6.3v-2.7l-4.9 9z" style="fill:#f44336"/><path d="M15.4 94.6v1.9l1-1.9z" style="fill:#ffc107"/><path d="m18.8 94.6-3.4 8.3v1.5h2.1l3.3-9.8z" style="fill:#fb8c00"/><path d="M23 87.2v-3l-1.2 3-3 7.4h2l2.2-6.9z" style="fill:#ffea00"/><path d="M24.8 84.2h-2.1l.1-3.9h2z" style="fill:#673ab7"/><path d="M27.2 80.8c0 .1.1.1.2.2.6.9 1.2 2 1.7 3.3h-1.9v-3.5z" style="fill:#03a9f4"/><path d="M24.8 84.2v-4h2.1c.1.2.2.3.4.5v3.5h-2.5z" style="fill:#00e5ff"/><path d="M24.8 78c.6.5 1.3 1.2 2 2.1 0 .1.1.1.1.2h-2.1V78z" style="fill:#00bcd4"/><path d="M22.6 88.7h4.6v4.5h-4.7z" style="fill:#651fff"/><path d="M24.8 84.2v4.5h-2.2l.1-4.5z" style="fill:#2196f3"/><path d="M24.8 97.7h2.5v4h-2.5z" style="fill:#3f51b5"/><path d="M24.8 93.2h2.5v4.5h-2.5z" style="fill:#4caf50"/><path d="m22.8 80.3.1-3.6s.8.4 1.9 1.4v2.3h-2v-.1z" style="fill:#009688"/><path d="M24.8 101.7h-2.4l.1-4h2.3z" style="fill:#2196f3"/><path d="M24.8 104.4h-2.5l.1-2.7h2.4z" style="fill:#304ffe"/><path d="M24.8 97.7h-2.3v-4.5h2.3z" style="fill:#9c27b0"/><path d="M27.2 84.2h1.9c.5 1.3.9 2.8 1 4.5h-5.4v-4.5h2.5z" style="fill:#64dd17"/><path d="M27.2 93.2h3v4.5h-3z" style="fill:#00bcd4"/><path d="M27.2 88.7h2.9c.1.6.1 1.2.1 1.8v2.7h-3v-4.5z" style="fill:#03a9f4"/><path d="M27.2 101.7h3.1v2.7h-5.5v-2.7z" style="fill:#1de9b6"/><path d="M27.2 97.7h3v4h-3z" style="fill:#9c27b0"/><path d="M30.3 94.6h-1l-3.5-7.4h1.8l2.7 4.9v1.1z" style="fill:#18ffff"/><path d="m25.8 87.2-3-6.3v-2.7l4.8 9z" style="fill:#f44336"/><path d="M30.3 94.6v1.9l-1-1.9z" style="fill:#ffc107"/><path d="m26.9 94.6 3.4 8.3v1.5h-2.2l-3.2-9.8z" style="fill:#fb8c00"/><path d="m23.9 87.2 3 7.4h-2l-2.3-6.9v-.5z" style="fill:#ffea00"/><path d="m22.6 87.2.1-3 1.2 3z" style="fill:#f44336"/><linearGradient id="l" x1="22.9" x2="22.9" y1="790.676" y2="800.675" gradientTransform="translate(0 -714)" gradientUnits="userSpaceOnUse"><stop offset="0" style="stop-color:#ffc107"/><stop offset="1" style="stop-color:#fff59d"/></linearGradient><path d="M22.9 87.8c.8-3.7 2.6-6.2 3.9-7.6-1.9-2.4-3.9-3.4-3.9-3.4s-2 1-3.9 3.4c1.4 1.4 3.1 3.9 3.9 7.6z" style="fill:url(#l)"/><path d="M31 90c-.1-3.5-1.1-6.7-2.9-9.3-.2-.3-.5-.6-.7-.9-2-2.5-4-3.5-4.1-3.6L23 76l-.3.1c-.1 0-2.1 1.1-4.1 3.6-.2.3-.5.6-.7.9-1.8 2.7-2.8 5.8-2.9 9.3V105h16V90s-.1 0 0 0zm-8-12.7c.6.3 1.9 1.3 3.3 2.9-1.2 1.5-2.6 3.7-3.3 6.9-.7-3.2-2.1-5.4-3.3-6.9 1.3-1.6 2.7-2.5 3.3-2.9zm-6.9 13.8v-.6c0-3.5 1-6.6 2.8-9.3 0-.1.1-.1.1-.2 1.5 1.9 3.4 5.1 3.4 10.3v12.5h-6.3V91.1zm7.3 12.8V91c.2-5 2-8.1 3.5-9.9 0 .1.1.1.1.2 1.8 2.6 2.7 5.7 2.8 9.3v13.3h-6.4z" style="fill:#fafafa"/><path d="M103 84.2h2v-3.9h-2z" style="fill:#673ab7"/><path d="m100.5 80.8-.2.2c-.6.9-1.2 2-1.7 3.3h1.9v-3.5z" style="fill:#03a9f4"/><path d="M103 84.2v-4h-2.1c-.1.2-.2.3-.4.5v3.5h2.5z" style="fill:#00e5ff"/><path d="M103 78c-.6.5-1.3 1.2-2 2.1-.1.1-.1.1-.1.2h2.1V78z" style="fill:#00bcd4"/><path d="M105.1 88.7h-4.6v4.5h4.7z" style="fill:#651fff"/><path d="M103 84.2v4.5h2.1l-.1-4.5z" style="fill:#2196f3"/><path d="M100.5 97.7h2.5v4h-2.5z" style="fill:#3f51b5"/><path d="M100.5 93.2h2.5v4.5h-2.5z" style="fill:#4caf50"/><path d="m105 80.3-.1-3.6s-.8.4-1.9 1.4v2.3h2v-.1z" style="fill:#009688"/><path d="M103 101.7h2.4l-.1-4H103z" style="fill:#2196f3"/><path d="M103 104.4h2.4v-2.7H103z" style="fill:#304ffe"/><path d="M103 97.7h2.3l-.1-4.5H103z" style="fill:#9c27b0"/><path d="M100.5 84.2h-1.9c-.5 1.3-.9 2.8-1 4.5h5.4v-4.5h-2.5z" style="fill:#64dd17"/><path d="M97.5 93.2h3v4.5h-3z" style="fill:#00bcd4"/><path d="M100.5 88.7h-2.9c-.1.6-.1 1.2-.1 1.8v2.7h3v-4.5z" style="fill:#03a9f4"/><path d="M100.5 101.7h-3v2.7h5.5v-2.7z" style="fill:#1de9b6"/><path d="M97.5 97.7h3v4h-3z" style="fill:#9c27b0"/><path d="M97.5 94.6h.9l3.6-7.4h-1.9l-2.6 4.9v1.1z" style="fill:#18ffff"/><path d="m102 87.2 3-6.3v-.6l-.1-2.1-4.8 9z" style="fill:#f44336"/><path d="M97.5 94.6v1.9l.9-1.9z" style="fill:#ffc107"/><path d="m100.8 94.6-3.4 8.3.1 1.5h2.1l3.2-9.8z" style="fill:#fb8c00"/><path d="m105.1 87.2-.1-3-1.2 3-3 7.4h2l2.3-6.9z" style="fill:#ffea00"/><path d="M106.8 84.2h-2v-3.9h2z" style="fill:#673ab7"/><path d="m109.3 80.8.2.2c.6.9 1.2 2 1.7 3.3h-1.9v-3.5z" style="fill:#03a9f4"/><path d="M106.8 84.2v-4h2.1c.1.2.2.3.4.5v3.5h-2.5z" style="fill:#00e5ff"/><path d="M106.8 78c.6.5 1.3 1.2 2 2.1.1.1.1.1.1.2h-2.1V78z" style="fill:#00bcd4"/><path d="M104.7 88.7h4.6v4.5h-4.7z" style="fill:#651fff"/><path d="M106.8 84.2v4.5h-2.1l.1-4.5z" style="fill:#2196f3"/><path d="M106.8 97.7h2.5v4h-2.5z" style="fill:#3f51b5"/><path d="M106.8 93.2h2.5v4.5h-2.5z" style="fill:#4caf50"/><path d="m104.8 80.3.1-3.6s.8.4 1.9 1.4v2.3h-2v-.1z" style="fill:#009688"/><path d="M106.8 101.7h-2.4l.1-4h2.3z" style="fill:#2196f3"/><path d="M106.8 104.4h-2.4v-2.7h2.4z" style="fill:#304ffe"/><path d="M106.8 97.7h-2.3l.1-4.5h2.2z" style="fill:#9c27b0"/><path d="M109.3 84.2h1.9c.5 1.3.9 2.8 1 4.5h-5.4v-4.5h2.5z" style="fill:#64dd17"/><path d="M109.3 93.2h3v4.5h-3z" style="fill:#00bcd4"/><path d="M109.3 88.7h2.9c.1.6.1 1.2.1 1.8v2.7h-3v-4.5z" style="fill:#03a9f4"/><path d="M109.3 101.7h3v2.7h-5.5v-2.7z" style="fill:#1de9b6"/><path d="M109.3 97.7h3v4h-3z" style="fill:#9c27b0"/><path d="M112.3 94.6h-.9l-3.6-7.4h1.9l2.6 4.9v1.1z" style="fill:#18ffff"/><path d="m107.8 87.2-3-6.3v-.6l.1-2.1 4.8 9z" style="fill:#f44336"/><path d="M112.3 94.6v1.9l-.9-1.9z" style="fill:#ffc107"/><path d="m109 94.6 3.3 8.3v1.5h-2.1l-3.2-9.8z" style="fill:#fb8c00"/><path d="m106 87.2 3 7.4h-2l-2.3-6.9v-.5z" style="fill:#ffea00"/><path d="m104.7 87.2.1-3 1.2 3z" style="fill:#f44336"/><linearGradient id="m" x1="105" x2="105" y1="790.676" y2="800.675" gradientTransform="translate(0 -714)" gradientUnits="userSpaceOnUse"><stop offset="0" style="stop-color:#ffc107"/><stop offset="1" style="stop-color:#fff59d"/></linearGradient><path d="M105 87.8c.8-3.7 2.6-6.2 3.9-7.6-1.9-2.4-3.9-3.4-3.9-3.4s-2 1-3.9 3.4c1.3 1.4 3 3.9 3.9 7.6z" style="fill:url(#m)"/><path d="M113 90c-.1-3.5-1.1-6.7-2.9-9.3-.2-.3-.4-.6-.7-.9-2-2.5-4-3.5-4.1-3.6l-.3-.2-.3.1c-.1 0-2.1 1.1-4.1 3.6-.2.3-.4.6-.7.9-1.8 2.7-2.8 5.8-2.9 9.3V105h16V90zm-8-12.7c.6.3 1.9 1.3 3.3 2.9-1.2 1.5-2.6 3.7-3.3 6.9-.7-3.2-2.1-5.4-3.3-6.9 1.4-1.6 2.8-2.5 3.3-2.9zm-6.8 13.8v-.6c0-3.5.9-6.6 2.8-9.3 0-.1.1-.1.1-.2 1.6 1.9 3.3 5.1 3.4 10.3v12.5h-6.3V91.1zm7.3 12.8V91c.2-5 1.9-8.1 3.5-9.9l.2.2c1.8 2.6 2.7 5.7 2.8 9.3v13.3h-6.5z" style="fill:#fafafa"/><path d="m66.9 47.1.5-1.7c-1.1-.3-2.2-.5-3.4-.5v1.8c1 0 2 .2 2.9.4z" style="fill:#03a9f4"/><path d="M64 46.7v-1.8c-2.4 0-4.6.7-6.5 1.8l.9 1.5c1.6-.9 3.5-1.5 5.6-1.5z" style="fill:#9c27b0"/><path d="m56 50-1.3-1.3c-1.6 1.6-2.8 3.6-3.4 5.9l1.7.5c.6-2 1.6-3.7 3-5.1z" style="fill:#64dd17"/><path d="m58.3 48.2-.9-1.5c-1 .6-1.9 1.3-2.7 2.1L56 50c.7-.7 1.5-1.3 2.3-1.8zM72 50l1.3-1.3c-1.6-1.6-3.6-2.8-5.9-3.4l-.5 1.7c1.9.6 3.7 1.6 5.1 3z" style="fill:#4caf50"/><path d="m74.9 60.9 1.7.5c.3-1.1.5-2.2.5-3.4h-1.8c0 1-.2 2-.4 2.9z" style="fill:#18ffff"/><path d="M75.3 58H77c0-2.4-.7-4.6-1.8-6.5l-1.5.9c1 1.6 1.6 3.5 1.6 5.6z" style="fill:#3f51b5"/><path d="m73.8 52.4 1.5-.9c-.6-1-1.3-1.9-2.1-2.7L72 50c.7.7 1.3 1.5 1.8 2.4zm1.1 8.5c-.5 1.9-1.5 3.7-2.9 5.1l1.3 1.3c1.6-1.6 2.8-3.6 3.4-5.9l-1.8-.5z" style="fill:#2196f3"/><path d="M64 69.3v1.8c2.4 0 4.6-.7 6.5-1.8l-.9-1.5c-1.6.9-3.6 1.5-5.6 1.5z" style="fill:#fb8c00"/><path d="m69.6 67.8.9 1.5c1-.6 1.9-1.3 2.7-2.1L72 66c-.7.7-1.5 1.3-2.4 1.8z" style="fill:#f44336"/><path d="m53.1 55.1-1.7-.5c-.3 1.1-.5 2.2-.5 3.4h1.8c0-1 .1-2 .4-2.9z" style="fill:#03a9f4"/><path d="m61.1 68.9-.5 1.7c1.1.3 2.2.5 3.4.5v-1.8c-1 0-2-.2-2.9-.4z" style="fill:#ffea00"/><path d="m54.2 63.6-1.5.9c.6 1 1.3 1.9 2.1 2.7L56 66c-.7-.7-1.3-1.5-1.8-2.4z" style="fill:#64dd17"/><path d="m56 66-1.3 1.3c1.6 1.6 3.6 2.8 5.9 3.4l.5-1.7c-2-.6-3.7-1.6-5.1-3z" style="fill:#f44336"/><path d="M52.7 58h-1.8c0 2.4.7 4.6 1.8 6.5l1.5-.9c-1-1.6-1.5-3.5-1.5-5.6z" style="fill:#00e5ff"/><path d="M64 50.9v-4.2c-2.1 0-4 .6-5.6 1.5l2.1 3.6c1-.6 2.2-.9 3.5-.9z" style="fill:#f44336"/><path d="m60.4 51.8-2.1-3.6c-.9.5-1.7 1.1-2.3 1.8l2.9 2.9c.5-.4 1-.8 1.5-1.1z" style="fill:#18ffff"/><path d="m65.8 51.1 1.1-4c-.9-.2-1.9-.4-2.9-.4v4.2c.6 0 1.2.1 1.8.2z" style="fill:#00e5ff"/><path d="M58.9 53 56 50c-1.4 1.4-2.4 3.1-2.9 5.1l4 1.1c.3-1.3 1-2.4 1.8-3.2z" style="fill:#03a9f4"/><path d="m69 53 3-3c-1.4-1.4-3.1-2.4-5.1-2.9l-1.1 4c1.2.3 2.3 1 3.2 1.9z" style="fill:#64dd17"/><path d="m57.1 56.2-4-1.1c-.3.9-.4 1.9-.4 2.9h4.2c-.1-.6 0-1.3.2-1.8z" style="fill:#00bcd4"/><path d="M71.1 58h4.2c0-2.1-.6-4-1.5-5.6l-3.6 2.1c.6 1 .9 2.2.9 3.5z" style="fill:#651fff"/><path d="m70.2 54.4 3.6-2.1c-.5-.9-1.1-1.7-1.8-2.3l-3 3c.5.4.8.9 1.2 1.4z" style="fill:#03a9f4"/><path d="m67.5 64.2 2.1 3.6c.9-.5 1.7-1.1 2.3-1.8L69 63c-.4.5-.9.9-1.5 1.2z" style="fill:#3f51b5"/><path d="M56.8 58h-4.2c0 2.1.6 4 1.5 5.6l3.6-2.1c-.5-1-.9-2.2-.9-3.5zm7.2 7.1v4.2c2.1 0 4-.6 5.6-1.5l-2.1-3.6c-1 .6-2.2.9-3.5.9z" style="fill:#9c27b0"/><path d="M71.1 58c0 .6-.1 1.2-.2 1.8l4 1.1c.2-.9.4-1.9.4-2.9h-4.2z" style="fill:#00bcd4"/><path d="m69 63 3 3c1.4-1.4 2.4-3.1 2.9-5.1l-4-1.1c-.4 1.3-1 2.4-1.9 3.2z" style="fill:#4caf50"/><path d="M58.9 63 56 66c1.4 1.4 3.1 2.4 5.1 2.9l1.1-4c-1.3-.4-2.4-1-3.3-1.9z" style="fill:#304ffe"/><path d="m62.1 64.9-1.1 4c.9.2 1.9.4 2.9.4v-4.2c-.6 0-1.2-.1-1.8-.2z" style="fill:#1de9b6"/><path d="m57.8 61.6-3.6 2.1c.5.9 1.1 1.7 1.8 2.3l2.9-2.9c-.4-.5-.8-1-1.1-1.5z" style="fill:#2196f3"/><radialGradient id="n" cx="63.98" cy="772.21" r="7.937" gradientTransform="matrix(1 0 0 .9997 0 -713.978)" gradientUnits="userSpaceOnUse"><stop offset="0" style="stop-color:#ffff8d"/><stop offset=".356" style="stop-color:#ffff8b"/><stop offset=".514" style="stop-color:#fffe84"/><stop offset=".634" style="stop-color:#fffc77"/><stop offset=".734" style="stop-color:#fff965"/><stop offset=".822" style="stop-color:#fff64d"/><stop offset=".901" style="stop-color:#fff131"/><stop offset=".973" style="stop-color:#ffec0f"/><stop offset="1" style="stop-color:#ffea00"/></radialGradient><path d="M70.2 54.4c-.3-.5-.7-1-1.1-1.5-.9-.9-2-1.5-3.2-1.8-.6-.2-1.2-.2-1.8-.2-1.3 0-2.5.3-3.6 1-.5.3-1 .7-1.5 1.1-.9.9-1.5 2-1.8 3.2-.2.6-.2 1.2-.2 1.8 0 1.3.3 2.5 1 3.6.3.5.7 1 1.1 1.5.9.9 2 1.5 3.2 1.8.6.2 1.2.2 1.8.2 1.3 0 2.5-.3 3.6-1 .5-.3 1-.7 1.5-1.1.9-.9 1.5-2 1.8-3.2.2-.6.2-1.2.2-1.8-.1-1.3-.4-2.5-1-3.6zm-1.1 5c-.2.9-.7 1.8-1.4 2.4-.3.3-.7.6-1.1.8-.8.5-1.7.7-2.7.7-.5 0-.9-.1-1.4-.2-.9-.2-1.8-.7-2.4-1.4-.3-.3-.6-.7-.8-1.1-.5-.8-.7-1.7-.7-2.7 0-.5.1-.9.2-1.4.2-.9.7-1.8 1.4-2.4.3-.3.7-.6 1.1-.8.8-.5 1.7-.7 2.7-.7.5 0 .9.1 1.4.2.9.2 1.8.7 2.4 1.4.3.3.6.7.8 1.1.5.8.7 1.7.7 2.7 0 .5-.1.9-.2 1.4z" style="fill:url(#n)"/><linearGradient id="o" x1="64" x2="64" y1="772" y2="772" gradientTransform="translate(0 -714)" gradientUnits="userSpaceOnUse"><stop offset="0" style="stop-color:#fff"/><stop offset="1" style="stop-color:#000"/></linearGradient><path d="M64 58z" style="fill:url(#o)"/><linearGradient id="p" x1="64" x2="64" y1="772" y2="772" gradientTransform="translate(0 -714)" gradientUnits="userSpaceOnUse"><stop offset="0" style="stop-color:#fff"/><stop offset="1" style="stop-color:#000"/></linearGradient><path d="M64 58z" style="fill:url(#p)"/><linearGradient id="q" x1="64" x2="64" y1="772" y2="772" gradientTransform="translate(0 -714)" gradientUnits="userSpaceOnUse"><stop offset="0" style="stop-color:#fff"/><stop offset="1" style="stop-color:#000"/></linearGradient><path d="M64 58z" style="fill:url(#q)"/><linearGradient id="r" x1="64" x2="64" y1="772" y2="772" gradientTransform="translate(0 -714)" gradientUnits="userSpaceOnUse"><stop offset="0" style="stop-color:#fff"/><stop offset="1" style="stop-color:#000"/></linearGradient><path d="M64 58z" style="fill:url(#r)"/><linearGradient id="s" x1="64" x2="64" y1="772" y2="772" gradientTransform="translate(0 -714)" gradientUnits="userSpaceOnUse"><stop offset="0" style="stop-color:#fff"/><stop offset="1" style="stop-color:#000"/></linearGradient><path d="M64 58z" style="fill:url(#s)"/><linearGradient id="t" x1="64" x2="64" y1="772" y2="772" gradientTransform="translate(0 -714)" gradientUnits="userSpaceOnUse"><stop offset="0" style="stop-color:#fff"/><stop offset="1" style="stop-color:#000"/></linearGradient><path d="M64 58z" style="fill:url(#t)"/><linearGradient id="u" x1="64" x2="64" y1="772" y2="772" gradientTransform="translate(0 -714)" gradientUnits="userSpaceOnUse"><stop offset="0" style="stop-color:#fff"/><stop offset="1" style="stop-color:#000"/></linearGradient><path d="M64 58z" style="fill:url(#u)"/><linearGradient id="v" x1="63.78" x2="66.058" y1="771.481" y2="776.927" gradientTransform="translate(0 -714)" gradientUnits="userSpaceOnUse"><stop offset="0" style="stop-color:#ffe082"/><stop offset=".365" style="stop-color:#ffdf80"/><stop offset=".527" style="stop-color:#ffdb79"/><stop offset=".649" style="stop-color:#ffd46c"/><stop offset=".75" style="stop-color:#ffca5a"/><stop offset=".839" style="stop-color:#ffbd43"/><stop offset=".919" style="stop-color:#ffad26"/><stop offset=".992" style="stop-color:#ff9a04"/><stop offset="1" style="stop-color:#ff9800"/></linearGradient><path d="M64 58v5.3c1 0 1.9-.3 2.7-.7.4-.2.8-.5 1.1-.8L64 58z" style="fill:url(#v)"/><linearGradient id="w" x1="64.078" x2="69.428" y1="772.55" y2="772.55" gradientTransform="translate(0 -714)" gradientUnits="userSpaceOnUse"><stop offset="0" style="stop-color:#fff59d"/><stop offset=".174" style="stop-color:#fff499"/><stop offset=".337" style="stop-color:#fff08e"/><stop offset=".495" style="stop-color:#ffe97b"/><stop offset=".652" style="stop-color:#ffe060"/><stop offset=".806" style="stop-color:#ffd43e"/><stop offset=".957" style="stop-color:#ffc614"/><stop offset="1" style="stop-color:#ffc107"/></linearGradient><path d="M68.6 55.3 64 58l3.8 3.8c.7-.7 1.1-1.5 1.4-2.4.1-.4.2-.9.2-1.4-.1-1-.4-1.9-.8-2.7z" style="fill:url(#w)"/><linearGradient id="x" x1="60.696" x2="63.42" y1="767.358" y2="772.359" gradientTransform="translate(0 -714)" gradientUnits="userSpaceOnUse"><stop offset="0" style="stop-color:#ffc107"/><stop offset=".016" style="stop-color:#ffc30c"/><stop offset=".179" style="stop-color:#ffd238"/><stop offset=".345" style="stop-color:#ffdf5c"/><stop offset=".51" style="stop-color:#ffe879"/><stop offset=".674" style="stop-color:#ffef8d"/><stop offset=".838" style="stop-color:#fff499"/><stop offset="1" style="stop-color:#fff59d"/></linearGradient><path d="M61.3 53.4c-.4.2-.8.5-1.1.8-.7.7-1.1 1.5-1.4 2.4L64 58v-5.3c-1-.1-1.9.2-2.7.7z" style="fill:url(#x)"/><linearGradient id="y" x1="63.855" x2="61.701" y1="772.424" y2="777.549" gradientTransform="translate(0 -714)" gradientUnits="userSpaceOnUse"><stop offset="0" style="stop-color:#fff59d"/><stop offset=".151" style="stop-color:#fff399"/><stop offset=".316" style="stop-color:#ffef8b"/><stop offset=".488" style="stop-color:#ffe776"/><stop offset=".664" style="stop-color:#ffdd57"/><stop offset=".842" style="stop-color:#ffcf30"/><stop offset="1" style="stop-color:#ffc107"/></linearGradient><path d="M60.2 61.8c.7.7 1.5 1.1 2.4 1.4.4.1.9.2 1.4.2V58l-3.8 3.8z" style="fill:url(#y)"/><linearGradient id="z" x1="63.902" x2="66.972" y1="771.779" y2="766.877" gradientTransform="translate(0 -714)" gradientUnits="userSpaceOnUse"><stop offset="0" style="stop-color:#ffe082"/><stop offset=".276" style="stop-color:#ffdf7f"/><stop offset=".445" style="stop-color:#ffda77"/><stop offset=".586" style="stop-color:#ffd269"/><stop offset=".711" style="stop-color:#ffc754"/><stop offset=".826" style="stop-color:#ffb83a"/><stop offset=".931" style="stop-color:#ffa619"/><stop offset="1" style="stop-color:#ff9800"/></linearGradient><path d="M67.8 54.2c-.7-.7-1.5-1.1-2.4-1.4-.4-.1-.9-.2-1.4-.2V58l4.6-2.7c-.2-.4-.5-.8-.8-1.1z" style="fill:url(#z)"/><linearGradient id="A" x1="64.243" x2="58.547" y1="771.992" y2="773.428" gradientTransform="translate(0 -714)" gradientUnits="userSpaceOnUse"><stop offset="0" style="stop-color:#ffe082"/><stop offset=".308" style="stop-color:#ffdf80"/><stop offset=".475" style="stop-color:#ffda78"/><stop offset=".609" style="stop-color:#ffd36a"/><stop offset=".725" style="stop-color:#ffc857"/><stop offset=".829" style="stop-color:#ffba3d"/><stop offset=".923" style="stop-color:#ffa91f"/><stop offset="1" style="stop-color:#ff9800"/></linearGradient><path d="M58.8 56.6c-.1.4-.2.9-.2 1.4 0 1 .3 1.9.7 2.7.2.4.5.8.8 1.1L64 58l-5.2-1.4z" style="fill:url(#A)"/><g style="opacity:.2"><path d="M64 98c5.5 0 10 4.5 10 10v14H54v-14c0-5.5 4.5-10 10-10m0-2c-6.6 0-12 5.4-12 12v16h24v-16c0-6.6-5.4-12-12-12z" style="fill:#424242"/></g></svg>