<svg xmlns="http://www.w3.org/2000/svg" viewBox="0 0 128 128"><path fill="#424242" d="M98.05 42.33c-6.44 0-11.65 5.22-11.65 11.65 0 6.44 5.22 11.65 11.65 11.65 6.44 0 11.65-5.22 11.65-11.65 0-6.44-5.22-11.65-11.65-11.65zm.48 18.82c-3.61 0-7.33-3.28-7.33-7.43s4.16-6.82 7.34-6.82 6.69 2.67 6.69 6.82-3.09 7.43-6.7 7.43z"/><path fill="#eee" d="M98.05 43.33c5.87 0 10.65 4.78 10.65 10.65s-4.78 10.65-10.65 10.65S87.4 59.85 87.4 53.98c-.01-5.87 4.77-10.65 10.65-10.65m.48 18.82c4.25 0 7.71-3.78 7.71-8.43 0-4.68-3.98-7.82-7.69-7.82-3.48 0-8.34 2.97-8.34 7.82-.01 4.97 4.38 8.43 8.32 8.43m-.48-19.82c-6.44 0-11.65 5.22-11.65 11.65 0 6.44 5.22 11.65 11.65 11.65 6.44 0 11.65-5.22 11.65-11.65 0-6.44-5.22-11.65-11.65-11.65zm.48 18.82c-3.61 0-7.33-3.28-7.33-7.43s4.16-6.82 7.34-6.82 6.69 2.67 6.69 6.82-3.09 7.43-6.7 7.43z" opacity=".2"/><path fill="#757575" d="m111.97 42.95-9.09 1.74-1.45-3.94a33.587 33.587 0 0 0-6.84-11.19l-1.01-1.09c-.87-.94-.64-2.45.47-3.09l1.01-.58c1.07-.61 2.41-.52 3.36.25 4.78 3.84 9.07 9.39 11.72 14.44l1.83 3.46z"/><path fill="#757575" d="M66.83 80.08c2.75-.15 4.68-1.78 7.23-2.07 3.6-.41 4.95 3.4 4.74 6.43-.54 7.58-5.12 13.45-2.29 21.33 3.61 10.08 16.81 13.07 25.61 8.02 6.95-3.99 7.4-10.7 7.42-17.78l.09-29.15c.02-7.49.05-14.98.07-22.47.02-4.83-7.48-4.83-7.5 0l-.15 45.16c-.01 4.16.48 12.43-2.33 16.04-2.82 3.62-7.93 3.91-11.87 2.15-6.75-3.04-4.78-10.67-3.06-16.29 1.91-6.24 2.54-13.48-2.86-18.28-1.96-1.75-4.54-2.68-7.17-2.68-2.93-.01-5.22 1.96-7.94 2.11-4.79.24-4.82 7.74.01 7.48z"/><path fill="#424242" d="M96.58 26.39c.16 0 .39.04.6.21 4.28 3.44 8.46 8.6 11.2 13.81l.58 1.1a2.002 2.002 0 0 0-1.32 2.38c.05.19.07.34.07.5l-.03 9.63-.04 12.86-.1 29.12c-.02 7.02-.51 12.66-6.42 16.05-2.44 1.4-5.33 2.15-8.35 2.15-6.75 0-12.4-3.57-14.38-9.11-1.58-4.42-.52-8.1.7-12.37.73-2.55 1.49-5.19 1.7-8.14.19-2.67-.58-5.21-2.06-6.8-1.1-1.18-2.53-1.8-4.15-1.8-.24 0-.49.01-.75.04-1.46.17-2.73.68-3.84 1.13-1.15.47-2.14.87-3.27.93h-.14c-1.15 0-1.35-.93-1.37-1.49-.01-.2 0-1.93 1.72-2.02 1.84-.1 3.44-.66 4.99-1.19 1.08-.37 2.1-.73 3.22-.95.22-.04.45-.06.68-.06 1.42 0 3.12.81 4.77 2.28 3.83 3.41 4.58 8.7 2.28 16.2-1.47 4.8-4.54 14.8 4.15 18.71 1.79.8 3.75 1.23 5.67 1.23 3.55 0 6.6-1.41 8.59-3.97 2.89-3.71 2.82-10.85 2.77-15.57-.01-.61-.01-1.18-.01-1.69l.15-45.16c0-.17.03-.33.09-.54.12-.41.1-.84-.05-1.24l-.94-2.56c-1.62-4.41-4.06-8.4-7.25-11.86l-1.01-1.09 1.01-.58c.18-.09.36-.14.54-.14m0-2c-.52 0-1.04.13-1.51.4l-1.01.58a2.002 2.002 0 0 0-.47 3.09l1.01 1.09c2.99 3.25 5.32 7.05 6.84 11.19l.94 2.56c-.09.33-.16.69-.16 1.08l-.15 45.16c-.01 4.16.48 12.43-2.33 16.04-1.74 2.23-4.35 3.2-7.01 3.2-1.66 0-3.34-.38-4.85-1.05-6.75-3.04-4.78-10.67-3.06-16.29 1.91-6.24 2.54-13.48-2.86-18.28-1.69-1.5-3.88-2.78-6.1-2.78-.36 0-.71.03-1.07.1-2.94.58-5.22 1.96-7.94 2.11-4.72.25-4.83 7.51-.24 7.51.08 0 .16 0 .24-.01 2.75-.15 4.68-1.78 7.23-2.07.18-.02.35-.03.52-.03 3.21 0 4.42 3.58 4.22 6.46-.54 7.58-5.12 13.45-2.29 21.33 2.46 6.85 9.34 10.43 16.26 10.43 3.26 0 6.53-.79 9.34-2.41 6.95-3.99 7.4-10.7 7.42-17.78l.09-29.15c.02-7.49.05-14.98.07-22.47 0-.36-.05-.68-.12-.98l2.39-.46-1.82-3.47c-2.65-5.05-6.94-10.6-11.72-14.44a2.96 2.96 0 0 0-1.86-.66z" opacity=".2"/><path fill="#C62828" d="M70.08 121.92H26.15l-4.11-61.8h52.28z"/><linearGradient id="a" x1="48.18" x2="48.18" y1="12.041" y2="67.986" gradientUnits="userSpaceOnUse"><stop offset=".246" stop-color="#F44336"/><stop offset=".925" stop-color="#D32F2F"/></linearGradient><path fill="url(#a)" d="M74.12 67.99H22.24c-4.42 0-8-3.58-8-8V20.04c0-4.42 3.58-8 8-8h51.88c4.42 0 8 3.58 8 8v39.94c0 4.42-3.58 8.01-8 8.01z"/><path fill="#81D4FA" d="M66.94 59.98H29.42c-4.08 0-7.38-3.3-7.38-7.38V27.42c0-4.08 3.3-7.38 7.38-7.38h37.53c4.08 0 7.38 3.3 7.38 7.38V52.6a7.39 7.39 0 0 1-7.39 7.38z"/><path fill="#455A64" d="M51.85 37.17H31.89c-1.1 0-2-.9-2-2v-3.99c0-1.1.9-2 2-2h19.96c1.1 0 2 .9 2 2v3.99a2 2 0 0 1-2 2zm12.62 0h-2.14c-1.1 0-2-.9-2-2v-3.99c0-1.1.9-2 2-2h2.14c1.1 0 2 .9 2 2v3.99c0 1.11-.89 2-2 2zM51.85 50.84H31.89c-1.1 0-2-.9-2-2v-3.99c0-1.1.9-2 2-2h19.96c1.1 0 2 .9 2 2v3.99a2 2 0 0 1-2 2zm12.62 0h-2.14c-1.1 0-2-.9-2-2v-3.99c0-1.1.9-2 2-2h2.14c1.1 0 2 .9 2 2v3.99c0 1.11-.89 2-2 2z"/><path fill="#424242" d="M74.06 15C76.8 15 79 17.21 79 20.04v39.94C79 62.8 76.86 65 74.12 65h-.4a2.99 2.99 0 0 0-2.99 2.8L67.27 119H28.96l-3.35-51.2a2.99 2.99 0 0 0-2.99-2.8h-.38C19.4 65 17 62.7 17 59.99V20.04c0-2.69 2.45-5.04 5.24-5.04H74m.12-3H22.24C17.82 12 14 15.62 14 20.04v39.94C14 64.4 17.82 68 22.24 68h.38l3.54 54h43.92l3.65-54h.4c4.42 0 7.88-3.6 7.88-8.01V20.04C82 15.62 78.54 12 74.12 12z" opacity=".2"/><path fill="#424242" d="M82.06 124H14.17v-3.16c0-2.68 2.18-4.86 4.86-4.86h57.96c2.79 0 5.07 2.28 5.07 5.07V124z"/><path fill="#eee" d="M76.99 117.98c1.69 0 3.07 1.38 3.07 3.07v.95H16.17v-1.16a2.86 2.86 0 0 1 2.86-2.86h57.96m0-2H19.03c-2.68 0-4.86 2.18-4.86 4.86V124h67.88v-2.95c.01-2.79-2.27-5.07-5.06-5.07z" opacity=".2"/><path fill="#424242" d="M66.94 22.04c2.97 0 5.38 2.41 5.38 5.38V52.6c0 2.97-2.41 5.38-5.38 5.38H29.42c-2.97 0-5.38-2.41-5.38-5.38V27.42c0-2.97 2.41-5.38 5.38-5.38h37.52m0-2H29.42c-4.08 0-7.38 3.3-7.38 7.38V52.6c0 4.08 3.3 7.38 7.38 7.38h37.53c4.08 0 7.38-3.3 7.38-7.38V27.42c-.01-4.07-3.31-7.38-7.39-7.38z" opacity=".2"/><path fill="#BDBDBD" d="M110.71 68.33h-9.54c-1.72 0-3.12-1.4-3.12-3.12V43.34c0-1.72 1.4-3.12 3.12-3.12h9.54c1.72 0 3.12 1.4 3.12 3.12V65.2c0 1.73-1.4 3.13-3.12 3.13z"/><path fill="#424242" d="M110.71 42.22c.62 0 1.12.5 1.12 1.12V65.2c0 .62-.5 1.12-1.12 1.12h-9.54c-.62 0-1.12-.5-1.12-1.12V43.34c0-.62.5-1.12 1.12-1.12h9.54m0-2h-9.54c-1.72 0-3.12 1.4-3.12 3.12V65.2c0 1.72 1.4 3.12 3.12 3.12h9.54c1.72 0 3.12-1.4 3.12-3.12V43.34c0-1.72-1.4-3.12-3.12-3.12z" opacity=".2"/></svg>