<svg xmlns="http://www.w3.org/2000/svg" style="enable-background:new 0 0 128 128" viewBox="0 0 128 128" xml:space="preserve"><linearGradient id="a" x1="-28.578" x2="-72.943" y1="-780.746" y2="-695.033" gradientTransform="scale(1 -1) rotate(9.167 -4058.452 429.311)" gradientUnits="userSpaceOnUse"><stop offset=".281" style="stop-color:#ededed"/><stop offset=".29" style="stop-color:#eee"/><stop offset=".42" style="stop-color:#eaeaea"/><stop offset=".549" style="stop-color:#dedede"/><stop offset=".678" style="stop-color:#cbcaca"/><stop offset=".806" style="stop-color:#afafaf"/><stop offset=".932" style="stop-color:#8b8b8b"/><stop offset="1" style="stop-color:#757575"/></linearGradient><path d="m72.1 48.7 42.4 69.8c.1.1.1.6.2 1 .1.8-.3 1.5-.8 2l-2.3 1.9c-.5.4-1.1.6-1.7.6s-.6 0-1.3-.2-59.5-66.6-59.5-66.6c-.9-1-.8-2.5.2-3.3l4.6-4.7c1.1-.9 2-3.2 3.6-.3 0 0 2.3 3.3 4.7 3 2.3-.3 6.6-4 6.6-4 1.1-.7 2.6-.3 3.3.8z" style="fill:url(#a)"/><linearGradient id="b" x1="-31.299" x2="-31.299" y1="-674.102" y2="-619.699" gradientTransform="scale(1 -1) rotate(4.502 -7834.439 472.319)" gradientUnits="userSpaceOnUse"><stop offset=".002" style="stop-color:#ff5252"/><stop offset=".208" style="stop-color:#f94d4d"/><stop offset=".497" style="stop-color:#e63f3f"/><stop offset=".833" style="stop-color:#c92929"/><stop offset="1" style="stop-color:#b71c1c"/></linearGradient><path d="M57.7 49.5 41.7 15c-4-8.6-14-12.9-22.7-9.3C9.7 9.5 5.5 20.2 9.7 29.2c2.6 5.5 7.3 8.2 14.6 10.9 11.8 4.4 23.7 16.3 24 16.4l.1.1c-.1 0 6.2-4.6 9.3-7.1zM30.4 32.2c-5.7 2.7-12.5.2-15.2-5.6s-.2-12.5 5.6-15.1S33.3 11.3 36 17s.2 12.6-5.6 15.2z" style="fill:url(#b)"/><linearGradient id="c" x1="-937.28" x2="-981.642" y1="-634.138" y2="-548.424" gradientTransform="rotate(-170.833 -430.645 -293.596)" gradientUnits="userSpaceOnUse"><stop offset=".003" style="stop-color:#eee"/><stop offset=".349" style="stop-color:#ebebeb"/><stop offset=".594" style="stop-color:#e2e2e2"/><stop offset=".806" style="stop-color:#d3d3d3"/><stop offset="1" style="stop-color:#bdbdbd"/></linearGradient><path d="M59.2 47.9s4.3 3.7 6.6 4 4.7-3 4.7-3c1.6-2.9 2.6-.6 3.6.3l4.6 4.7c1 .9 1.1 2.4.2 3.3 0 0-58.7 66.3-59.4 66.6-.7.2-.7.2-1.3.2-.6 0-1.2-.2-1.7-.6l-2.3-1.9c-.6-.5-.9-1.2-.8-2 0-.5.1-.9.2-1L56 48.7c.6-1.1 2-1.5 3.2-.8z" style="fill:url(#c)"/><linearGradient id="d" x1="-948.906" x2="-948.906" y1="-601.848" y2="-547.444" gradientTransform="rotate(-175.487 -414.762 -292.404)" gradientUnits="userSpaceOnUse"><stop offset=".002" style="stop-color:#ff5252"/><stop offset=".208" style="stop-color:#f94d4d"/><stop offset=".497" style="stop-color:#e63f3f"/><stop offset=".833" style="stop-color:#c92929"/><stop offset="1" style="stop-color:#b71c1c"/></linearGradient><path d="m79.7 56.6.1-.1c.3-.1 12.1-12 24-16.4 7.2-2.7 12-5.4 14.6-10.9 4.2-9 0-19.8-9.3-23.6-8.7-3.6-18.7.7-22.7 9.3L70.3 49.5c3.1 2.5 9.4 7.1 9.4 7.1zM92 17c2.7-5.7 9.5-8.2 15.2-5.6s8.2 9.5 5.6 15.2-9.5 8.2-15.2 5.6c-5.8-2.6-8.3-9.4-5.6-15.2z" style="fill:url(#d)"/><g style="opacity:.2"><path d="m89.6 14.9-.3.6c-1.6 3.5-1.8 7.4-.5 11.1 1.3 3.6 4 6.5 7.5 8.1 1.9.9 4 1.3 6.1 1.3 1.4 0 2.8-.2 4.1-.6-1.1.5-2.4 1-3.9 1.6-4.9 1.8-13.1 6.2-24 16.2h-.1c-.9.3-1.6.9-1.9 1.8l-.9 1c-.9 1-1 2.4-.3 3.5l36.2 59.6-1.6 1.3c-2.1-2.3-10.7-11.8-43.7-48.9-.6-.6-1.4-1-2.2-1-.9 0-1.7.4-2.2 1-32.9 37.1-41.5 46.6-43.7 48.9l-1.6-1.3 36.2-59.6c.7-1.1.5-2.6-.3-3.5l-.9-1c-.3-.8-1-1.5-1.9-1.8h-.1c-11.1-10-19.3-14.3-24.3-16.1-1.5-.5-2.7-1.1-3.9-1.6 1.3.4 2.7.6 4.1.6 2.1 0 4.2-.5 6.1-1.3 3.5-1.6 6.2-4.5 7.5-8.2s1.2-7.6-.5-11.1l-.3-.6c.2.4.4.7.6 1.1l15.3 32.8c.3.7 1 1.3 1.7 1.6.3.1.7.2 1 .2s.6 0 .9-.1c1 .8 3 2.3 4.8 3.2.4.2.9.3 1.3.3.5 0 .9-.1 1.3-.3 1.9-1 3.9-2.5 4.8-3.2.3.1.6.1.9.1s.7-.1 1-.2c.8-.3 1.4-.8 1.7-1.6L89.1 16c.1-.4.3-.7.5-1.1m13-10.7c-6.8 0-13.3 4-16.3 10.5L71.1 47.6c-.3-.2-.7-.2-1-.2-.4 0-.8.1-1.2.3 0 0-2.6 2.2-4.8 3.3-2.2-1.1-4.8-3.3-4.8-3.3-.4-.2-.8-.3-1.2-.3s-.7.1-1 .2L41.7 14.7c-3-6.5-9.5-10.5-16.3-10.5-2.1 0-4.3.4-6.4 1.3C9.7 9.3 5.5 20 9.7 29c2.6 5.5 7.3 8.2 14.6 10.9 11.8 4.4 23.7 16.3 24 16.4l.1.1s.1-.1.3-.2c.1.3.2.5.5.8 0 0 .3.4 1 1.1l-36.5 60.2c-.1.1-.1.6-.2 1-.1.8.3 1.5.8 2l2.3 1.9c.4.4 1 .6 1.5.6h.2c.6 0 .6 0 1.3-.2.5-.1 27.1-30.1 44.5-49.8 17.4 19.7 44.1 49.6 44.5 49.8.7.2.7.2 1.3.2h.2c.6 0 1.1-.2 1.5-.6l2.3-1.9c.6-.5.9-1.2.8-2 0-.5-.1-.9-.2-1L77.9 58.1c.6-.7 1-1.1 1-1.1.2-.2.4-.5.5-.8.2.2.3.2.3.2l.1-.1c.3-.1 12.1-12 23.9-16.4 7.2-2.7 12-5.4 14.6-10.9 4.2-9 0-19.8-9.3-23.6-2.1-.8-4.3-1.2-6.4-1.2zm-.2 28.9c-1.6 0-3.3-.3-4.8-1.1-5.7-2.7-8.2-9.5-5.6-15.2 1.9-4.2 6.1-6.6 10.4-6.6 1.6 0 3.3.3 4.8 1.1 5.7 2.7 8.2 9.5 5.6 15.2-1.9 4.2-6.1 6.6-10.4 6.6zm-76.8 0c-4.3 0-8.5-2.5-10.4-6.6-2.7-5.7-.2-12.5 5.6-15.2 1.6-.7 3.2-1.1 4.8-1.1 4.3 0 8.5 2.5 10.4 6.6 2.7 5.7.2 12.5-5.6 15.2-1.5.8-3.2 1.1-4.8 1.1z" style="fill:#424242"/></g><path d="M65.5 65.1c1.9-.8 2.8-3 1.9-4.9s-3-2.8-4.9-2-2.8 3-2 4.9c.9 1.9 3.1 2.8 5 2z" style="fill:#231815"/></svg>