<svg xmlns="http://www.w3.org/2000/svg" xmlns:xlink="http://www.w3.org/1999/xlink" viewBox="0 0 128 128"><radialGradient id="a" cx="22.599" cy="51.848" r="48.476" gradientTransform="matrix(1.0274 0 0 1.0036 2.629 3.448)" gradientUnits="userSpaceOnUse"><stop offset="0" stop-color="#BA8D68"/><stop offset=".449" stop-color="#B78A67"/><stop offset=".809" stop-color="#AD8264"/><stop offset="1" stop-color="#A47B62"/></radialGradient><path fill="url(#a)" d="M124 72.49c0-3-2.43-5.46-5.52-5.61-2.48-.12-8.65 1.45-12.14-.19-8.61-4.05-44.1-22.73-44.1-22.73-3.12-1.69-10.77-4.19-14.65-3.22l-28.3 11.28c-2.76.69-5 2.36-6.43 4.53-1.04 1.18-2.18 9.38-3.74 16.83S5.65 85.76 5.65 85.76c-1.54 5.68 2.95 9.49 6.94 10.17s9.21-1.77 10.75-7.46l3.28-15.74c.53-2.56 2.64-4.52 5.28-4.91l9.97.36-3.51 17.95s17.76 22.73 42.87 28.12c9.21 1.98 17.78-3.78 24.38-4.19 3.05-.19 9.39.48 12.18 1.29 3.1.9 6.22-1.38 6.22-4.51V72.49z"/><linearGradient id="b" x1="20.633" x2="104.68" y1="104.23" y2="104.23" gradientUnits="userSpaceOnUse"><stop offset="0" stop-color="#A47B62"/><stop offset="1" stop-color="#A47B62"/></linearGradient><path fill="url(#b)" d="M87.7 115.75c-6.36-.12-16.11-3.73-22.81-6.67a21.376 21.376 0 0 0-15.69-.58l-5.13 1.81c-4.87 1.72-10.33.1-13.37-3.97L20.63 92.87l84.05-.17s-1.54 23.35-16.98 23.05z"/><path fill="#91674D" d="m40.57 72.75 15.02-24.84-.1 4.15c-.1 4.24 2.67 8.05 6.83 9.4L40.57 72.75z"/><path fill="#1E88E5" d="m23.62 110.95-17.18 12.7c-1.22.9-2.74-.07-2.39-1.53l4.73-19.74c.11-.45.29-.9.54-1.3L66.28 6.22c1.21-2.01 3.68-2.81 5.52-1.77l8.77 4.95c1.84 1.04 2.35 3.51 1.14 5.53l-56.86 94.65c-.31.54-.73 1.01-1.23 1.37z"/><path fill="#91674D" d="M49.64 43.52c3.41 0 8.81 1.79 11.21 3.09 1.45.76 35.64 18.76 44.22 22.79 1.49.7 3.33 1.04 5.63 1.04 1.76 0 3.48-.19 5-.36.99-.11 1.93-.21 2.5-.21h.14c1.49.07 2.66 1.22 2.66 2.61v34.35c0 1.03-.95 1.71-1.83 1.71-.18 0-.37-.03-.55-.08-2.92-.85-8.58-1.44-11.83-1.44-.5 0-.96.01-1.37.04-2.84.18-5.77 1.13-8.87 2.15l-.61.2c-.41.13-.79.36-1.11.65-1.94 1.8-4.18 2.68-6.83 2.68h-.24c-4.61-.09-12.71-2.49-21.67-6.42-3.1-1.36-6.39-2.05-9.79-2.05-2.77 0-5.5.47-8.1 1.39l-5.13 1.81c-.96.34-1.96.51-2.97.51-2.77 0-5.38-1.29-7-3.44l-1.36-1.81c-.57-.76-1.46-1.2-2.4-1.2-.1 0-.19 0-.29.01-.3.03-.6.04-.88.04-2.9 0-3.96-1.47-4.5-2.58-.77-1.55-.87-3.15-.29-4.73.23-.63.23-1.3.04-1.91.65-.08 1.27-.38 1.76-.87.7-.71 1.52-1.32 2.42-1.81.04-.02.07-.04.1-.06l13.6-8.09c.73-.44 1.25-1.16 1.41-2l2.11-10.77c.18-.93-.08-1.89-.72-2.59-.57-.63-1.38-.99-2.22-.99-.09 0-.19 0-.28.01l-8.56.81c-.05.01-.11.01-.16.02-3.81.56-6.9 3.4-7.75 7.09l-4.65 14.44c-.01.04-.03.09-.04.13-.05.2-.12.42-.22.68-.23.64-.24 1.31-.05 1.92-.63.08-1.23.36-1.71.83-1.24 1.21-2.95 1.93-4.56 1.93-.28 0-.56-.02-.82-.07-1.63-.28-3.23-1.3-4.07-2.62-.68-1.07-.86-2.31-.51-3.68.36-.96 2.09-5.74 3.54-12.67.5-2.4.95-4.8 1.38-7.13.62-3.35 1.39-7.51 1.86-8.56l.07-.1a7.87 7.87 0 0 1 4.66-3.28c.13-.03.26-.07.38-.12l28.08-11.2c.26-.04.64-.09 1.17-.09m0-3c-.75 0-1.44.07-2.04.22L19.3 52.02c-2.76.69-5 2.36-6.43 4.53-1.04 1.18-2.18 9.38-3.74 16.83-1.56 7.46-3.47 12.37-3.47 12.37-1.54 5.68 2.95 9.49 6.94 10.17.43.07.87.11 1.32.11 2.27 0 4.74-.92 6.65-2.78-.8 2.22-.75 4.68.43 7.07 1.5 3.04 4.18 4.25 7.19 4.25.39 0 .78-.02 1.17-.06l1.36 1.81c2.23 2.98 5.76 4.65 9.4 4.65 1.33 0 2.67-.22 3.97-.68l5.13-1.81c2.3-.81 4.7-1.21 7.1-1.21 2.93 0 5.86.6 8.59 1.8 6.7 2.94 16.46 6.55 22.81 6.67h.29c3.72 0 6.62-1.39 8.87-3.48 3.17-1.03 6.11-2.04 8.74-2.21.35-.02.75-.03 1.19-.03 3.29 0 8.53.61 10.99 1.32.47.14.93.2 1.39.2 2.58 0 4.83-2.05 4.83-4.71V72.49c0-3-2.43-5.46-5.52-5.61-.09 0-.19-.01-.28-.01-1.69 0-4.68.57-7.5.57-1.6 0-3.13-.18-4.35-.75-8.61-4.05-44.1-22.73-44.1-22.73-2.66-1.43-8.54-3.44-12.63-3.44zm-26.6 48.87c.11-.3.21-.6.3-.92l4.7-14.57c.53-2.56 2.64-4.52 5.28-4.91l8.55-.8-2.11 10.77-13.6 8.09c-1.18.65-2.23 1.44-3.12 2.34z"/><linearGradient id="c" x1="67.412" x2="15.176" y1="18.589" y2="112.62" gradientUnits="userSpaceOnUse"><stop offset="0" stop-color="#64B5F6"/><stop offset="1" stop-color="#2196F3"/></linearGradient><path fill="url(#c)" d="m23.62 110.95-17.18 12.7c-1.22.9-2.74-.07-2.39-1.53l4.73-19.74c.11-.45.29-.9.54-1.3L66.28 6.22c1.21-2.01 3.68-2.81 5.52-1.77l8.77 4.95c1.84 1.04 2.35 3.51 1.14 5.53l-56.86 94.65c-.31.54-.73 1.01-1.23 1.37z"/><path fill="#424242" d="M70.04 7c.11 0 .21.02.29.07l8.77 4.95c.04.02.17.1.24.34.04.15.1.54-.2 1.03l-56.86 94.66c-.12.19-.27.37-.45.5L7.92 118.83l3.77-15.75c.04-.16.1-.31.19-.46L68.86 7.77c.31-.53.82-.77 1.18-.77m0-3c-1.44 0-2.91.81-3.76 2.22L9.31 101.07c-.25.41-.43.85-.54 1.3l-4.73 19.74c-.25 1.08.5 1.89 1.4 1.89.33 0 .68-.11 1-.35l17.18-12.7c.5-.37.92-.83 1.24-1.37l56.86-94.65c1.21-2.01.7-4.49-1.14-5.53l-8.77-4.95c-.55-.3-1.16-.45-1.77-.45z" opacity=".2"/><radialGradient id="d" cx="53.969" cy="77.178" r="35.227" gradientTransform="matrix(1.0356 0 0 1.0036 2.777 3.448)" gradientUnits="userSpaceOnUse"><stop offset="0" stop-color="#BA8D68"/><stop offset=".449" stop-color="#B78A67"/><stop offset=".809" stop-color="#AD8264"/><stop offset="1" stop-color="#A47B62"/></radialGradient><path fill="url(#d)" d="M78.69 64.46c-12.41-4.71-22.01-4.01-29 1.51-4.84 3.83-22.37 16.31-30.06 24.5-3.67 3.92-.25 8.33 2.94 10.32 6.25 3.92 12.5 3.61 26.08-4.63 6.94-4.21 11.39-.7 16.32 2.67 0 0 7.71 6.39 14.5 8.78s22.66-1.28 27.97-9.32c5.87-8.89-3.63-24.29-28.75-33.83z"/><defs><path id="e" d="M74.79 63.14c-2.06-.62-4.03-1.08-5.93-1.38-7.78-1.23-14.15.24-19.16 4.2-4.84 3.83-22.37 16.31-30.06 24.5-3.67 3.92-.25 8.33 2.94 10.32 6.25 3.92 12.5 3.61 26.08-4.63 6.94-4.21 11.39-.7 16.32 2.67 0 0 7.71 6.39 14.5 8.78 2.67.94 6.73.94 11.01.11-20.12-.34-28.01-39.39-28.01-39.39s-.01-4.12 12.31-5.18z"/></defs><clipPath id="f"><use xlink:href="#e"/></clipPath><g clip-path="url(#f)"><path fill="#91674D" d="M63.72 64.34c2.32 0 4.84.32 7.52.95-2.64 14.23 1.87 28.66 12.39 40.02-1.56-.07-2.57-.32-3.17-.53-6.19-2.18-13.51-8.2-13.58-8.26s-.14-.11-.22-.17l-.68-.47c-3.32-2.29-6.76-4.66-11.22-4.66-2.54 0-5.05.77-7.67 2.36-7.56 4.58-12.7 6.63-16.67 6.63-2.15 0-4.09-.61-6.27-1.98-1.67-1.05-2.95-2.63-3.1-3.86-.06-.43-.02-1.04.76-1.87 5.83-6.22 17.78-15.19 24.92-20.54 2.08-1.56 3.73-2.8 4.81-3.65 3.41-2.67 7.39-3.97 12.18-3.97m0-3c-5.5 0-10.16 1.57-14.03 4.62-4.84 3.83-22.37 16.31-30.06 24.5-3.67 3.92-.25 8.33 2.94 10.32 2.47 1.55 4.94 2.44 7.86 2.44 4.47 0 10.01-2.08 18.22-7.06 2.27-1.38 4.27-1.93 6.12-1.93 3.79 0 6.89 2.33 10.2 4.6 0 0 7.71 6.39 14.5 8.78 1.38.48 3.12.72 5.08.72 1.84 0 3.86-.21 5.93-.61-12.97-11.05-20.03-27.57-15.69-44.58-4.01-1.21-7.69-1.8-11.07-1.8z"/></g></svg>