<svg xmlns="http://www.w3.org/2000/svg" style="enable-background:new 0 0 128 128" viewBox="0 0 128 128" xml:space="preserve"><linearGradient id="a" x1="64" x2="64" y1="4.146" y2="122.866" gradientUnits="userSpaceOnUse"><stop offset="0" style="stop-color:#757575"/><stop offset=".515" style="stop-color:#504f4f"/></linearGradient><path d="M62.6 82.4c.8-.8 2-.8 2.8 0l40.5 40.5c1.6 1.6 4.1 1.6 5.7 0l11.3-11.3c.6-.6 1-1.3 1.1-2.1.3-1.3-.1-2.7-1.1-3.6L82.4 65.5c-.8-.8-.8-2.1 0-2.8l40.5-40.5c1.6-1.6 1.6-4.1 0-5.7L111.6 5.1c-.6-.6-1.3-1-2.1-1.1-1.3-.3-2.7.1-3.6 1.1L65.4 45.6c-.8.8-2.1.8-2.8 0L22.1 5.1c-1.6-1.6-4.1-1.6-5.7 0L5.1 16.4c-.6.6-1 1.3-1.1 2.1-.3 1.3.1 2.7 1.1 3.6l40.5 40.5c.8.8.8 2.1 0 2.8L5.1 105.9c-1.6 1.6-1.6 4.1 0 5.7l11.3 11.3c.6.6 1.3 1 2.1 1.1 1.3.3 2.7-.1 3.6-1.1l40.5-40.5z" style="fill:url(#a)"/></svg>