<svg xmlns="http://www.w3.org/2000/svg" viewBox="0 0 128 128"><linearGradient id="a" x1="42.015" x2="86.371" y1="26.377" y2="103.2" gradientUnits="userSpaceOnUse"><stop offset="0" stop-color="#E3F2FD"/><stop offset="1" stop-color="#90CAF9"/></linearGradient><path fill="url(#a)" d="m113.14 84.4-11.26-6.45 8.52-2.16a5.506 5.506 0 0 0 3.95-6.89c-.86-2.98-4.02-4.79-7.02-4.03l-19.59 4.97-9.79-5.61 10.46-5.98 18.84 4.8c3 .77 6.16-1.04 7.02-4.02a5.5 5.5 0 0 0-3.94-6.89l-7.78-1.98 10.79-6.17a6.995 6.995 0 0 0 2.6-9.55 6.995 6.995 0 0 0-9.55-2.6l-11.26 6.44 2.45-8.45a5.5 5.5 0 0 0-3.94-6.89c-3-.77-6.16 1.04-7.02 4.02L81 46.37l-10 5.71V39.72l13.53-13.97c2.15-2.23 2.15-5.87 0-8.09a5.497 5.497 0 0 0-7.94 0L71 23.43V11c0-3.87-3.13-7-7-7s-7 3.13-7 7v12.97l-6.12-6.32a5.497 5.497 0 0 0-7.94 0c-2.16 2.23-2.16 5.87 0 8.09L57 40.27v11.94l-10.51-6.03-5.56-19.29c-.86-2.98-4.02-4.79-7.02-4.03a5.506 5.506 0 0 0-3.95 6.89l2.4 8.32-11.17-6.4c-3.35-1.92-7.63-.76-9.55 2.59s-.76 7.63 2.59 9.55L25 49.99l-7.78 1.98a5.506 5.506 0 0 0-3.95 6.89c.86 2.98 4.02 4.79 7.02 4.03l18.85-4.79 10.66 6.11-10.09 5.77-19.45-4.96c-3-.77-6.16 1.04-7.02 4.02a5.5 5.5 0 0 0 3.94 6.89l8.39 2.14-11.18 6.39a6.995 6.995 0 0 0-2.6 9.55 6.995 6.995 0 0 0 9.55 2.6l10.79-6.17-2.23 7.71a5.5 5.5 0 0 0 3.94 6.89c3 .77 6.16-1.04 7.02-4.02l5.41-18.68L57 76.22v11.61l-13.96 14.42c-2.16 2.23-2.16 5.87 0 8.09a5.497 5.497 0 0 0 7.94 0l6.02-6.22V117c0 3.87 3.13 7 7 7s7-3.13 7-7v-12.43l5.59 5.77a5.497 5.497 0 0 0 7.94 0c2.15-2.23 2.15-5.87 0-8.09L71 88.28V76.37l10.26 5.88 5.39 18.68c.86 2.98 4.02 4.79 7.02 4.03a5.506 5.506 0 0 0 3.95-6.89l-2.23-7.72 10.78 6.18a7 7 0 0 0 9.55-2.59c1.93-3.34.77-7.62-2.58-9.54z"/><path fill="#424242" d="M64 6c2.76 0 5 2.24 5 5v12.43c0 .81.49 1.55 1.25 1.85.24.1.5.15.75.15.53 0 1.05-.21 1.44-.61l5.59-5.77a3.505 3.505 0 0 1 5.06 0c1.39 1.44 1.39 3.87 0 5.31L69.56 38.33c-.36.37-.56.87-.56 1.39v12.36a2.003 2.003 0 0 0 2.99 1.74l9.99-5.72c.45-.26.78-.68.93-1.18l5.62-19.41c.46-1.59 2.02-2.75 3.7-2.75.31 0 .61.04.91.11.94.24 1.72.83 2.2 1.66s.59 1.8.32 2.74l-2.45 8.45a2 2 0 0 0 2.91 2.3l11.26-6.44a5.03 5.03 0 0 1 2.48-.66c1.79 0 3.46.97 4.35 2.52 1.37 2.39.54 5.45-1.86 6.82l-10.79 6.17c-.71.4-1.1 1.2-.99 2.01s.7 1.47 1.49 1.67l7.78 1.98c.94.24 1.72.83 2.2 1.66s.59 1.8.32 2.74c-.46 1.59-2.02 2.75-3.7 2.75-.31 0-.61-.04-.91-.11l-18.84-4.8a2.005 2.005 0 0 0-1.48.2l-10.46 5.98c-.62.36-1.01 1.02-1.01 1.74s.38 1.38 1.01 1.74l9.79 5.61c.31.18.65.26.99.26.16 0 .33-.02.49-.06l19.59-4.97c.29-.07.6-.11.9-.11 1.69 0 3.24 1.16 3.7 2.75.27.93.16 1.91-.32 2.74s-1.26 1.42-2.2 1.66L101.39 76a2.005 2.005 0 0 0-.5 3.68l11.26 6.45c1.16.66 1.99 1.74 2.34 3.03s.18 2.64-.49 3.8a5.01 5.01 0 0 1-4.34 2.51c-.87 0-1.72-.23-2.48-.66L96.4 88.63c-.31-.18-.65-.26-.99-.26a2.011 2.011 0 0 0-1.93 2.56l2.23 7.72c.27.93.16 1.91-.32 2.74s-1.26 1.42-2.2 1.66c-.29.07-.6.11-.9.11-1.69 0-3.24-1.16-3.7-2.75L83.18 81.7c-.14-.5-.48-.92-.93-1.18l-10.26-5.88c-.31-.18-.65-.26-.99-.26a2.003 2.003 0 0 0-2 2v11.91c0 .52.2 1.02.56 1.39l13.53 13.97c1.39 1.44 1.39 3.87 0 5.31a3.505 3.505 0 0 1-5.06 0l-5.59-5.77a1.99 1.99 0 0 0-2.19-.46c-.76.31-1.25 1.04-1.25 1.85V117c0 2.76-2.24 5-5 5s-5-2.24-5-5v-12.88c0-.81-.49-1.55-1.25-1.85-.24-.1-.5-.15-.75-.15-.53 0-1.05.21-1.44.61l-6.02 6.22a3.505 3.505 0 0 1-5.06 0c-1.39-1.44-1.39-3.87 0-5.31l13.96-14.42c.36-.37.56-.87.56-1.39V76.22a2.003 2.003 0 0 0-2.99-1.74l-10.73 6.14c-.45.26-.78.68-.93 1.18l-5.41 18.68c-.46 1.59-2.02 2.75-3.7 2.75-.31 0-.61-.04-.91-.11-.94-.24-1.72-.83-2.2-1.66s-.59-1.8-.32-2.74l2.23-7.71a2 2 0 0 0-2.91-2.3l-10.79 6.17c-.76.43-1.61.66-2.48.66-1.79 0-3.46-.96-4.35-2.52a4.949 4.949 0 0 1-.48-3.8 4.98 4.98 0 0 1 2.34-3.03l11.18-6.39c.71-.4 1.1-1.2.99-2.01s-.7-1.47-1.49-1.67L17.67 74c-.94-.24-1.72-.83-2.2-1.66s-.59-1.8-.32-2.74c.46-1.59 2.02-2.75 3.7-2.75.31 0 .61.04.91.11l19.45 4.96a2.005 2.005 0 0 0 1.48-.2l10.09-5.77c.62-.36 1.01-1.02 1.01-1.74s-.38-1.38-1.01-1.74l-10.66-6.11c-.31-.18-.65-.26-.99-.26-.16 0-.33.02-.49.06l-18.85 4.79c-.29.07-.6.11-.9.11-1.69 0-3.24-1.16-3.7-2.75-.27-.93-.16-1.91.32-2.74s1.26-1.42 2.2-1.66l7.78-1.98a2.005 2.005 0 0 0 .5-3.68l-10.78-6.18a5.003 5.003 0 0 1-1.85-6.82 5.01 5.01 0 0 1 4.34-2.51c.87 0 1.72.23 2.48.66l11.17 6.4c.31.18.65.26.99.26a2.011 2.011 0 0 0 1.93-2.56l-2.4-8.32c-.27-.93-.16-1.91.32-2.74s1.26-1.42 2.2-1.66c.29-.07.6-.11.9-.11 1.69 0 3.24 1.16 3.7 2.75l5.56 19.29c.14.5.48.92.93 1.18l10.51 6.03c.31.18.65.26.99.26a2.003 2.003 0 0 0 2-2V40.27c0-.52-.2-1.02-.56-1.39L44.38 24.36c-1.39-1.44-1.39-3.87 0-5.31a3.505 3.505 0 0 1 5.06 0l6.12 6.32a1.99 1.99 0 0 0 2.19.46c.76-.31 1.25-1.04 1.25-1.85V11c0-2.76 2.24-5 5-5m0-2c-3.87 0-7 3.13-7 7v12.97l-6.12-6.32c-1.09-1.13-2.53-1.69-3.97-1.69s-2.88.56-3.97 1.69c-2.16 2.23-2.16 5.87 0 8.09L57 40.27v11.94l-10.51-6.03-5.56-19.29c-.73-2.52-3.1-4.2-5.62-4.2-.46 0-.93.06-1.4.17a5.506 5.506 0 0 0-3.95 6.89l2.4 8.32-11.17-6.4c-1.1-.63-2.29-.93-3.48-.93-2.43 0-4.79 1.26-6.08 3.52a7 7 0 0 0 2.59 9.55L25 49.99l-7.78 1.98a5.506 5.506 0 0 0-3.95 6.89c.73 2.52 3.1 4.2 5.62 4.2.46 0 .93-.06 1.4-.17l18.85-4.79 10.66 6.11-10.09 5.77-19.45-4.96c-.47-.12-.94-.18-1.4-.18-2.53 0-4.9 1.68-5.62 4.19a5.5 5.5 0 0 0 3.94 6.89l8.39 2.14-11.18 6.39a6.995 6.995 0 0 0-2.6 9.55 6.993 6.993 0 0 0 6.08 3.53c1.18 0 2.37-.3 3.47-.93l10.79-6.17-2.23 7.71a5.5 5.5 0 0 0 3.94 6.89c.47.12.94.18 1.4.18 2.53 0 4.9-1.68 5.62-4.19l5.41-18.68L57 76.22v11.61l-13.96 14.42c-2.16 2.23-2.16 5.87 0 8.09 1.09 1.13 2.53 1.69 3.97 1.69s2.88-.56 3.97-1.69l6.02-6.22V117c0 3.87 3.13 7 7 7s7-3.13 7-7v-12.43l5.59 5.77c1.09 1.13 2.53 1.69 3.97 1.69s2.88-.56 3.97-1.69c2.15-2.23 2.15-5.87 0-8.09L71 88.28V76.37l10.26 5.88 5.39 18.68c.73 2.52 3.1 4.2 5.62 4.2.46 0 .93-.06 1.4-.17a5.506 5.506 0 0 0 3.95-6.89l-2.23-7.72 10.78 6.18c1.1.63 2.29.93 3.48.93 2.43 0 4.79-1.26 6.08-3.52a7 7 0 0 0-2.59-9.55l-11.26-6.45 8.52-2.16a5.506 5.506 0 0 0 3.95-6.89c-.73-2.52-3.1-4.2-5.62-4.2-.46 0-.93.06-1.4.17l-19.59 4.97-9.79-5.61 10.46-5.98 18.84 4.8c.47.12.94.18 1.4.18 2.53 0 4.9-1.68 5.62-4.19a5.5 5.5 0 0 0-3.94-6.89l-7.78-1.98 10.79-6.17a6.995 6.995 0 0 0 2.6-9.55 6.993 6.993 0 0 0-6.08-3.53c-1.18 0-2.37.3-3.47.93l-11.26 6.44 2.45-8.45a5.5 5.5 0 0 0-3.94-6.89c-.47-.12-.94-.18-1.4-.18-2.53 0-4.9 1.68-5.62 4.19L81 46.36l-10 5.72V39.72l13.53-13.97c2.15-2.23 2.15-5.87 0-8.09-1.09-1.13-2.53-1.69-3.97-1.69s-2.88.56-3.97 1.69L71 23.43V11c0-3.87-3.13-7-7-7z" opacity=".2"/></svg>