<svg xmlns="http://www.w3.org/2000/svg" viewBox="0 0 128 128"><linearGradient id="a" x1="64" x2="64" y1="4126.2" y2="4246.4" gradientTransform="translate(0 -4122)" gradientUnits="userSpaceOnUse"><stop offset="0" stop-color="#81C784"/><stop offset=".414" stop-color="#6EBE71"/><stop offset="1" stop-color="#4CAF50"/></linearGradient><path fill="url(#a)" d="M116 124H12c-4.4 0-8-3.6-8-8V12c0-4.4 3.6-8 8-8h104c4.4 0 8 3.6 8 8v104c0 4.4-3.6 8-8 8z"/><path fill="#eee" d="M116 7c2.76 0 5 2.24 5 5v104c0 2.76-2.24 5-5 5H12c-2.76 0-5-2.24-5-5V12c0-2.76 2.24-5 5-5h104m0-3H12c-4.42 0-8 3.58-8 8v104c0 4.42 3.58 8 8 8h104c4.42 0 8-3.58 8-8V12c0-4.42-3.58-8-8-8z" opacity=".2"/><linearGradient id="b" x1="64.034" x2="64.034" y1="114.37" y2="19.99" gradientTransform="matrix(1 0 0 -1 0 130)" gradientUnits="userSpaceOnUse"><stop offset="0" stop-color="#fff"/><stop offset=".511" stop-color="#EBEBEB"/><stop offset="1" stop-color="#E1E1E1"/></linearGradient><path fill="url(#b)" d="M81.99 65.39c-.77-.77-.76-2.01 0-2.77l26.03-26.05c4.58-4.59 4.58-12.03 0-16.63-4.58-4.59-12-4.59-16.57 0L65.4 46.02c-.77.76-2.01.76-2.77 0L37.02 20.4c-4.59-4.57-12.04-4.57-16.64 0-4.59 4.57-4.59 11.99 0 16.56L46.01 62.6c.77.77.76 2.01 0 2.77L19.97 91.43c-4.58 4.59-4.58 12.03 0 16.63 4.58 4.59 12 4.59 16.57 0L62.6 81.98c.77-.76 2.01-.76 2.77 0l26.08 26.01c4.59 4.57 12.04 4.57 16.64 0 4.59-4.57 4.59-11.99 0-16.56l-26.1-26.04z"/><path fill="#424242" d="M99.74 19.5c2.33 0 4.52.91 6.16 2.56 3.41 3.42 3.41 8.97 0 12.39L79.88 60.5c-.94.94-1.46 2.18-1.46 3.51s.52 2.57 1.46 3.51l26.1 26.04c1.65 1.64 2.56 3.83 2.56 6.15s-.91 4.51-2.56 6.15c-1.66 1.65-3.86 2.56-6.2 2.56s-4.55-.91-6.2-2.55L67.5 79.86a4.915 4.915 0 0 0-3.51-1.45c-1.32 0-2.57.51-3.51 1.45l-26.06 26.08c-1.65 1.65-3.83 2.56-6.16 2.56s-4.52-.91-6.16-2.56c-3.41-3.42-3.41-8.97 0-12.39L48.13 67.5c.94-.94 1.46-2.18 1.46-3.51s-.52-2.57-1.45-3.51L22.5 34.84c-1.65-1.64-2.56-3.83-2.56-6.15s.91-4.51 2.56-6.15c1.66-1.65 3.86-2.56 6.2-2.56s4.55.91 6.2 2.55l25.6 25.62c.94.94 2.18 1.45 3.51 1.45 1.32 0 2.57-.51 3.51-1.45l26.06-26.08a8.615 8.615 0 0 1 6.16-2.57m0-3c-3 0-6 1.15-8.29 3.44L65.4 46.02c-.38.38-.88.57-1.39.57-.5 0-1-.19-1.39-.57L37.02 20.4c-2.3-2.29-5.31-3.43-8.32-3.43s-6.02 1.14-8.32 3.43c-4.59 4.57-4.59 11.99 0 16.56L46.01 62.6c.77.77.76 2.01 0 2.77L19.97 91.43c-4.58 4.59-4.58 12.03 0 16.63 2.29 2.3 5.29 3.44 8.29 3.44s6-1.15 8.29-3.44l26.06-26.08c.38-.38.88-.57 1.39-.57.5 0 1 .19 1.39.57l26.08 26.01c2.3 2.29 5.31 3.43 8.32 3.43s6.02-1.14 8.32-3.43c4.59-4.57 4.59-11.99 0-16.56l-26.1-26.04c-.77-.77-.76-2.01 0-2.77l26.03-26.05c4.58-4.59 4.58-12.03 0-16.63-2.3-2.29-5.3-3.44-8.3-3.44z" opacity=".2"/><path fill="#424242" d="M116 7c2.8 0 5 2.2 5 5v104c0 2.8-2.2 5-5 5H12c-2.8 0-5-2.2-5-5V12c0-2.8 2.2-5 5-5h104m0-3H12c-4.4 0-8 3.6-8 8v104c0 4.4 3.6 8 8 8h104c4.4 0 8-3.6 8-8V12c0-4.4-3.6-8-8-8z" opacity=".2"/></svg>