<svg xmlns="http://www.w3.org/2000/svg" viewBox="0 0 128 128"><g fill="url(#a)"><linearGradient id="a" x1="64.001" x2="64.001" y1="4.711" y2="126.86" gradientUnits="userSpaceOnUse"><stop offset="0" stop-color="#eee"/><stop offset=".322" stop-color="#E2E2E2"/><stop offset=".897" stop-color="#C3C3C3"/><stop offset="1" stop-color="#BDBDBD"/></linearGradient><ellipse cx="64" cy="112" rx="12" ry="12"/><path d="M70.14 92H57.86c-2.19 0-3.98-1.74-4.03-3.91L52 8.09C51.95 5.85 53.77 4 56.03 4h15.94c2.26 0 4.08 1.85 4.03 4.09l-1.83 80c-.05 2.17-1.84 3.91-4.03 3.91z"/></g><path fill="#424242" d="M64 103c4.96 0 9 4.04 9 9s-4.04 9-9 9-9-4.04-9-9 4.04-9 9-9m0-3c-6.63 0-12 5.37-12 12s5.37 12 12 12 12-5.37 12-12-5.37-12-12-12zm7.97-93c.39 0 .63.2.75.31.13.14.29.37.28.71l-1.83 80c-.01.54-.48.98-1.03.98H57.86c-.56 0-1.02-.44-1.03-.98L55 8.02c-.01-.34.15-.57.28-.71.12-.11.37-.31.75-.31h15.94m0-3H56.03C53.77 4 51.95 5.85 52 8.09l1.83 80c.05 2.17 1.84 3.91 4.03 3.91h12.27c2.19 0 3.98-1.74 4.03-3.91l1.83-80C76.05 5.85 74.23 4 71.97 4z" opacity=".2"/></svg>