<svg xmlns="http://www.w3.org/2000/svg" style="enable-background:new 0 0 128 128" viewBox="0 0 128 128" xml:space="preserve"><linearGradient id="a" x1="126.472" x2="3.401" y1="64.049" y2="64.049" gradientUnits="userSpaceOnUse"><stop offset=".485" style="stop-color:#504f4f"/><stop offset="1" style="stop-color:#757575"/></linearGradient><path d="M63.6 64.2c4.54 0 8.96 7.68 12.11 10.54 4.33 3.92 9.48 6.42 15.39 6.46 5.95.04 11.34-2.08 16.08-5.56 4.24-3.1 7.63-7.55 12.24-10.14 3.5-1.97 6.16-2.66 6.68-7.2.52-4.57-.44-10.04-5.84-10.89-11.85-1.85-17.5 14.58-27.76 16.29-9.81 1.63-15.08-13.53-24.09-16.14-5.04-1.46-10.49-.46-14.78 2.52-4.76 3.3-7.49 8.99-12.36 12.04-9.24 5.8-16.16-5.73-22.87-10.33-4.44-3.04-12.76-7.58-16.49-1.07-1.6 2.8-1.53 8.9.45 11.51 1.5 1.99 3.78 2.27 5.79 3.47 1.93 1.16 3.67 2.85 5.34 4.33 5.21 4.59 10.3 9.12 17.33 10.55 6.64 1.35 13.19.04 18.6-4.06C53.26 73.6 58.63 64.2 63.6 64.2z" style="fill:url(#a)"/></svg>